<?xml version="1.0" encoding="UTF-8"?>
<svg width="1200pt" height="1200pt" version="1.1" viewBox="0 0 1200 1200" xmlns="http://www.w3.org/2000/svg">
 <path d="m472.31 410.76c-4.6875 4.4531-9.375 8.7656-13.078 12.375-76.922 64.453-281.29 235.55-145.78 454.69 36.609 60.469 111.38 105.7 198.61 122.53-1.7812 9.6094-0.84375 19.219 0 27.469 2.0625 18.375 1.9219 22.781-12 25.922-6.2344 1.4531-10.219 7.6875-8.7656 13.922 1.2188 5.3906 6 9 11.297 9 0.84375 0 1.6875 0 2.5312-0.23438 34.688-7.7812 31.781-33.844 30-51.141-0.84375-7.6875-1.5469-15-0.23438-21.234 10.312 1.3125 20.766 2.3906 31.312 3 3 0.14062 6 0.14062 9.1406 0.23438-7.0781 18.609-5.7656 38.156 4.6875 52.922 9 12.703 12 25.453 9.7031 30.375-1.3125 2.625-5.625 3.4688-9.1406 3.7031-6.375 0.46875-11.297 6-10.781 12.375 0.375 6.1406 5.5312 10.781 11.531 10.781h0.84375c17.531-1.2188 25.219-9.8438 28.547-16.922 7.7812-16.453-0.9375-38.531-11.625-53.766-7.2188-10.219-6.1406-25.781 2.2969-39.469 18-0.70312 35.766-2.625 52.922-5.7656 1.2188 6.1406 0.46875 13.312-0.23438 20.766-1.9219 17.156-4.6875 43.219 30 51.141 0.84375 0.23438 1.6875 0.23438 2.5312 0.23438 5.2969 0 10.078-3.6094 11.297-9 1.4531-6.2344-2.5312-12.469-8.7656-13.922-13.922-3.1406-13.922-7.5469-12-25.922 0.9375-8.3906 1.9219-18.234 0-28.219 72.469-18.234 135.37-58.547 180.24-117.84 67.547-91.922 115.08-233.29-42.844-385.69l-3.2344-2.7656c-57.703-50.625-154.31-135.24-170.39-210.24-5.3906-25.219-2.8594-67.781 21.938-105.23 22.078-33.234 56.297-54.375 101.53-63 5.3906-1.0781 9.375-5.7656 9.4688-11.297 0-5.5312-3.7031-10.312-9.2344-11.531-109.55-23.391-190.69 16.078-241.45 117.38-25.078-10.078-51.234-10.688-73.547 0.46875-21.703 10.078-39 30.234-51 60.469-1.7812 4.6875-0.46875 9.9375 3.375 13.219 3.8438 3.2344 9.375 3.6094 13.547 0.9375 24.844-15.375 48.844-17.062 67.453-4.9219 22.219 14.531 32.766 47.156 27.469 84.938-2.2969 15.938-20.297 32.766-37.781 48.938zm23.062-153.37c-12-7.7812-25.547-11.766-39.844-11.766-6.7031 0-13.688 0.84375-20.625 2.625 7.2188-9.7031 15.469-16.453 24.844-20.531 1.0781-0.46875 2.1562-0.84375 3.2344-1.3125 16.078-5.7656 35.531-4.0781 59.062 4.9219 18.609 9.2344 36.703 25.547 51 49.547l20.062-11.859c-13.219-22.219-30.469-39.844-49.547-51.938 37.219-74.531 90.703-111.38 162.37-111.38h2.2969c-27 13.078-49.078 32.062-65.062 56.156-28.781 43.453-31.688 93.375-25.312 123 17.625 82.453 117.94 170.29 177.84 222.84l3 2.625c116.53 112.45 129.84 231.84 39.703 354.47-56.297 74.391-143.63 116.86-242.63 119.3h-2.7656c-8.3906 0.14062-16.781 0-25.453-0.375-102.14-5.2969-194.06-51.609-234.14-118.08-124.92-202.22 61.312-358.22 141.61-425.53 4.2188-4.0781 8.625-8.2969 13.219-12.469 20.391-18.938 41.531-38.625 45-62.766 6.7031-47.531-7.4531-87.703-37.781-107.62z"/>
 <path d="m361.08 762.94c6.2344 110.16 111.7 166.78 207 172.92 6.1406 0.375 12.375 0.60938 18.609 0.60938 100.08 0 204.94-51.703 227.39-172.08 0-0.375 0-0.70312 0.14062-1.0781 12.234-130.69-54-189.24-118.08-245.76-47.531-41.859-92.391-81.469-106.92-149.76-1.2188-5.3906-5.8594-9.2344-11.391-9.2344s-10.219 3.8438-11.297 9.2344c-12.375 60.141-50.297 102.14-90.375 146.53-53.625 59.391-114.47 126.84-114.94 248.53zm223.92-162.24c7.9219 15.938 18.234 28.547 28.312 40.781 20.391 24.844 39.703 48.375 36.141 101.16-6.8438 50.391-38.859 67.078-64.312 65.766-26.766-1.2188-56.531-22.078-58.219-64.219 0.14062-50.859 17.625-77.531 36-105.7 7.7812-11.859 15.703-24 22.078-37.922zm-14.531-81.328 1.6875 46.078c-4.9219 23.859-16.453 41.766-28.688 60.375-18.609 28.312-39.609 60.469-39.844 118.78 2.2969 54.703 42.141 85.078 80.391 86.859h3.7031c36.938 0 76.688-26.156 84.844-86.766 4.3125-62.859-19.922-92.297-41.297-118.31-15.609-18.938-30.234-36.703-34.922-67.219-0.23438-1.2188-0.60938-2.3906-1.2188-3.4688l-1.2188-34.781c15.375 24.609 35.297 44.297 54.844 63.375 42.234 41.391 82.219 80.531 74.766 168.84-14.062 83.391-83.297 117.14-145.55 113.53-57.844-3.375-121.78-39.844-125.53-111.47 0.375-84.375 37.781-130.45 74.062-174.94 15.609-19.219 31.453-38.766 44.062-61.219zm-3-87.234 0.9375 28.781c-9.375 42.234-33.938 72.844-60.141 105-36.938 45.469-78.844 96.938-79.219 190.08 4.4531 86.531 79.453 130.22 147.37 134.16 3.4688 0.23438 6.9375 0.23438 10.453 0.23438 69.703 0 143.63-40.219 159.47-134.06 8.5312-100.22-37.312-145.08-81.609-188.39-32.156-31.547-62.531-61.312-72.375-112.31-0.23438-1.0781-0.60938-2.0625-1.0781-3l-0.60938-17.156c23.156 40.219 56.859 70.219 89.859 99.469 62.391 55.078 121.31 107.06 110.39 225.61-21.469 113.53-126.71 158.16-221.63 152.06-85.453-5.5312-179.86-55.078-185.29-150.37 0.46875-112.08 55.688-173.16 108.94-232.31 27.141-30 54.703-60.844 74.156-97.922z"/>
</svg>
