<?xml version="1.0" encoding="UTF-8"?>
<svg width="1200pt" height="1200pt" version="1.1" viewBox="0 0 1200 1200" xmlns="http://www.w3.org/2000/svg">
 <g>
  <path d="m182.18 277.6-70 112c-10.605 16.941-14.473 37.242-10.84 56.898l126.72 688c3.3906 18.395 13.117 35.016 27.492 46.984 14.375 11.965 32.484 18.516 51.188 18.516h586.52c18.711 0.015625 36.84-6.5312 51.223-18.496 14.387-11.969 24.125-28.602 27.516-47.004l126.72-688c3.6328-19.656-0.23438-39.957-10.84-56.898l-70-112c-14.574-23.457-40.262-37.688-67.879-37.602h-182.32l87.039-152c5.375-9.3203 6.7227-20.426 3.7422-30.762-2.9688-10.449-10.059-19.242-19.641-24.359l-52.34-28.098c-9.3398-5.0078-20.285-6.1016-30.434-3.0469-10.145 3.0547-18.664 10.016-23.688 19.344l-117.94 218.92h-28.863l-117.88-218.8c-4.9766-9.375-13.488-16.379-23.645-19.465s-21.125-1.9961-30.477 3.0273l-52.418 28.18c-9.5117 5.0938-16.559 13.816-19.543 24.184-2.9883 10.367-1.6602 21.5 3.6836 30.875l87.039 152h-182.32c-27.594-0.066406-53.258 14.16-67.82 37.602zm750.44 849.64c-1.6953 9.2031-6.5586 17.52-13.75 23.508-7.1914 5.9844-16.254 9.2578-25.609 9.2539h-586.52c-9.3516 0.003906-18.41-3.2656-25.602-9.25-7.1914-5.9805-12.059-14.293-13.758-23.488l-126.58-687.26h918.4zm51.379-828.44 63.16 101.2h-894.32l63.262-101.2c7.2852-11.711 20.105-18.82 33.898-18.801h700c13.828-0.054688 26.695 7.0586 34 18.801zm-216.5-258.8 52.5 28.18-98.441 171.82h-61.68zm-387.38 28.16 52.277-28.16 107.7 200h-61.656z"/>
  <path d="m783.54 896.32c0.39453-0.09375 0.78125-0.20703 1.1602-0.33984 7.9375-2.9688 15.148-7.5898 21.16-13.559l28.281-28.281c4.9062-5.082 6.7695-12.371 4.9023-19.184-1.8672-6.8125-7.1875-12.133-14-14-6.8125-1.8672-14.102-0.003906-19.184 4.9023l-23.641 23.641-42.219-56.18v-96c9.7539-2.7148 18.652-7.8711 25.859-14.98l28.281-28.281c4.9062-5.0781 6.7695-12.371 4.9023-19.18-1.8672-6.8125-7.1875-12.133-14-14-6.8125-1.8672-14.102-0.003906-19.184 4.9023l-27.02 27.02-95.738-109.58v-0.003906c-11.355-13.035-27.797-20.516-45.082-20.516-17.285 0-33.727 7.4805-45.078 20.516l-93.863 107.58-24.941-24.941h0.003906c-5.082-4.9062-12.371-6.7695-19.184-4.9023-6.8125 1.8672-12.133 7.1875-14 14-1.8672 6.8125-0.003906 14.102 4.9023 19.184l28.281 28.281c6.0625 6.0234 13.355 10.668 21.379 13.617 0.52344 0.1875 1.0586 0.34766 1.6016 0.48047 0.96094 0.33984 2 0.60156 2.8789 0.87891v96l-42.219 56.18-23.641-23.641v0.003906c-5.082-4.9062-12.371-6.7695-19.184-4.9023-6.8125 1.8672-12.133 7.1875-14 14-1.8672 6.8086-0.003906 14.102 4.9023 19.18l28.281 28.281c6.3516 6.2969 14.043 11.082 22.5 14l0.83984 0.26172c0.82031 0.28125 1.6797 0.51953 2.5195 0.76172v142.48h-40c-7.1445 0-13.746 3.8125-17.32 10-3.5742 6.1875-3.5742 13.812 0 20 3.5742 6.1875 10.176 10 17.32 10h440c7.1445 0 13.746-3.8125 17.32-10 3.5742-6.1875 3.5742-13.812 0-20-3.5742-6.1875-10.176-10-17.32-10h-40v-142.6c1.1797-0.33984 2.3789-0.66016 3.5391-1.0781zm-83.539-116.32h-200v-80h200zm-210 40h220l30 40h-280zm93.121-250.48c3.8281-4.1914 9.2422-6.582 14.918-6.582 5.6797 0 11.094 2.3906 14.922 6.582l79.039 90.48h-187.88zm56.879 470.48h-80v-60h80zm40 0v-60c0-10.609-4.2148-20.781-11.715-28.285-7.5039-7.5-17.676-11.715-28.285-11.715h-80c-10.609 0-20.781 4.2148-28.285 11.715-7.5 7.5039-11.715 17.676-11.715 28.285v60h-60v-140h280v140z"/>
 </g>
</svg>
