<?xml version="1.0" encoding="UTF-8"?>
<svg width="1200pt" height="1200pt" version="1.1" viewBox="0 0 1200 1200" xmlns="http://www.w3.org/2000/svg">
 <path d="m966.79 414.28c-54.328-46.734-109.59-75.469-165.05-85.969 72.703-66.609 83.438-164.11 83.953-169.22 1.2656-12.75-7.6875-24.234-20.344-26.156-82.266-12.281-150.98 3.8438-204.28 47.859-40.594 33.562-65.859 78.328-81.562 120-45.703-108-145.78-131.76-147.1-132.1-12.891-2.8594-25.594 5.25-28.547 18.094-2.9062 12.891 5.1562 25.688 18 28.688 4.7344 1.125 103.78 25.781 127.03 149.81-70.641-47.391-186.61-80.906-323.53 49.734-69.516 66.328-90.281 174.14-58.5 303.56 40.453 164.76 155.06 313.26 266.58 345.37 16.078 4.6406 31.875 6.9375 47.297 6.9375 35.109 0 68.25-12.047 98.109-35.438 32.766 23.484 68.953 35.484 107.3 35.484 22.312 0 45.328-4.0312 68.766-12.094 128.02-44.156 253.26-209.21 285.19-375.79 21.797-113.91-4.2188-209.34-73.359-268.78zm-274.97-196.6c37.031-30.516 84.562-43.969 141.56-39.938-9.6094 38.953-37.922 115.83-115.5 147.94-0.9375 0.375-1.7344 0.89062-2.5781 1.3594-40.828 6.2812-76.266 21.656-105.23 39.516 10.219-45.281 32.672-108.42 81.75-148.87zm301.18 456.37c-28.5 148.78-142.26 301.03-253.69 339.47-53.297 18.375-101.34 9.75-143.06-25.312-0.1875-0.1875-0.32812-0.46875-0.51562-0.65625-4.0312-4.125-9.1875-6.4219-14.531-7.0312-0.32812-0.046875-0.60938-0.09375-0.9375-0.09375-0.84375-0.046875-1.6406-0.09375-2.4844-0.046875-6.6562 0-13.312 2.7188-18 8.1094-0.23438 0.28125-0.375 0.5625-0.60938 0.84375-33.188 30.797-70.969 40.547-112.41 28.641-94.688-27.281-197.16-163.74-233.26-310.69-27.094-110.39-10.688-204.19 45.047-257.34 121.64-116.06 220.82-81.562 284.34-29.203-13.172 13.547-20.719 23.484-21.656 24.75-7.875 10.641-5.625 25.641 4.9688 33.516s25.641 5.6719 33.562-4.9219c0.65625-0.89062 68.016-89.578 171.71-100.97 67.031-7.3125 135.61 18.75 204.05 77.625 74.906 64.406 68.156 167.63 57.516 223.36z"/>
</svg>
