<?xml version="1.0" encoding="UTF-8"?>
<svg width="1200pt" height="1200pt" version="1.1" viewBox="0 0 1200 1200" xmlns="http://www.w3.org/2000/svg">
 <path d="m281.18 245.81c-19.422 0-35.379 15.957-35.379 35.379v555h708.48v-555c0-19.422-16.074-35.379-35.492-35.379zm318.86 47.141c43.078 0 83.676 10.605 119.46 29.219l-23.73 41.074c-28.805-14.613-61.266-23.039-95.734-23.039-34.492 0-66.992 8.4258-95.824 23.062l-23.707-41.074c35.809-18.625 76.441-29.242 119.54-29.242zm139.92 41.051c68.902 44.227 115.62 120.05 119.53 206.94h-47.555c-3.8516-69.379-40.879-129.95-95.664-165.91zm-279.93 0.042969 23.684 41.004c-54.785 35.969-91.832 96.531-95.688 165.89h-47.531c3.918-86.859 50.645-162.66 119.54-206.89zm140.01 29.773c30.227 0 58.664 7.2539 83.973 19.832l-84.02 145.5-83.992-145.48c25.328-12.594 53.797-19.855 84.039-19.855zm0 23.617c-19.426 0-35.492 16.07-35.492 35.492 0 19.426 16.07 35.379 35.492 35.379 19.426 0 35.379-15.953 35.379-35.379s-15.953-35.492-35.379-35.492zm104.5 7.9102c47.781 31.773 80.016 84.766 83.785 145.59h-167.85zm-209.09 0.023438 84.062 145.57h-167.85c3.7734-60.809 36.004-113.79 83.785-145.57zm-7.8867 57.031c-19.426 0-35.492 16.07-35.492 35.492 0 19.426 16.07 35.379 35.492 35.379 19.426 0 35.379-15.953 35.379-35.379s-15.953-35.492-35.379-35.492zm224.98 0c-19.426 0-35.492 16.07-35.492 35.492 0 19.426 16.07 35.379 35.492 35.379 19.426 0 35.379-15.953 35.379-35.379s-15.953-35.492-35.379-35.492zm-372.05 112.15h47.531c3.8203 69.41 40.883 130 95.711 165.96l-23.664 40.984c-68.934-44.219-115.69-120.03-119.58-206.94zm71.172 0h167.87l-84.062 145.62c-47.816-31.77-80.066-84.762-83.809-145.62zm208.79 0h167.87c-3.7422 60.867-35.977 113.87-83.785 145.64zm191.51 0h47.531c-3.8867 86.934-50.617 162.77-119.55 206.99l-23.66-41.004c54.816-35.961 91.867-96.559 95.688-165.98zm-211.97 11.855 83.992 145.48c-25.301 12.562-53.734 19.789-83.949 19.789-30.242 0-58.711-7.25-84.039-19.832zm-112.43 5.8828c-19.426 0-35.492 16.07-35.492 35.492 0 19.426 16.07 35.379 35.492 35.379 19.426 0 35.379-15.953 35.379-35.379s-15.953-35.492-35.379-35.492zm224.98 0c-19.426 0-35.492 16.07-35.492 35.492 0 19.426 16.07 35.379 35.492 35.379 19.426 0 35.379-15.953 35.379-35.379s-15.953-35.492-35.379-35.492zm-112.48 64.945c-19.426 0-35.492 16.07-35.492 35.492 0 19.426 16.07 35.379 35.492 35.379 19.426 0 35.379-15.953 35.379-35.379 0-19.426-15.953-35.492-35.379-35.492zm-95.848 95.039c28.832 14.625 61.332 23.039 95.824 23.039 34.465 0 66.926-8.4141 95.734-23.016l23.73 41.074c-35.785 18.602-76.387 29.176-119.46 29.176-43.094 0-83.727-10.582-119.54-29.195zm-258.42 117.53v58.996c0 19.422 15.957 35.492 35.379 35.492h637.61c19.422 0 35.492-16.074 35.492-35.492v-58.996h-228.94l-20.363 40.707c-2 3.9922-6.0781 6.5195-10.543 6.5273h-188.88c-4.4727 0-8.5586-2.5273-10.562-6.5273l-20.34-40.707zm255.23 0 11.832 23.617h174.33l11.785-23.617z"/>
</svg>
