<?xml version="1.0" encoding="UTF-8"?>
<svg width="1200pt" height="1200pt" version="1.1" viewBox="0 0 1200 1200" xmlns="http://www.w3.org/2000/svg">
 <path d="m731.25 862.5c-27.008 0.34375-52.469 12.66-69.508 33.617-10.07 13.773-25.938 22.125-42.992 22.633-0.50781 0-0.86328-0.13281-1.3516-0.14844 13.148-22.758 20.082-48.57 20.102-74.852v-386.25c0.30078-55.758-17.965-110.03-51.91-154.26-33.949-44.23-81.652-75.906-135.59-90.035v-175.71h-37.5v169.78c-4.7266-0.375-9.375-0.89844-14.531-0.99219h-74.664c-27-0.30078-53.871 3.7969-79.555 12.129v-105.92l-37.5 75v46.293c-45.953 23.91-83.105 61.828-106.07 108.26-22.969 46.434-30.566 98.969-21.688 150 11.75 61.219 45.656 115.96 95.23 153.75 27.176 20.938 49.277 47.734 64.648 78.402 15.371 30.668 23.621 64.41 24.133 98.711v15.32c0.10547 9.2695 1.0195 18.508 2.7383 27.617-30.633 20.359-51.445 52.516-57.469 88.801-1.9766 15.797-9.5938 30.352-21.449 40.98-11.855 10.629-27.152 16.617-43.07 16.863h-105.75v37.5h105.75c25.109-0.26953 49.266-9.6367 67.988-26.367 18.727-16.73 30.742-39.688 33.824-64.609 3.8203-22.25 15.555-42.375 33.035-56.66 17.484-14.285 39.543-21.773 62.109-21.086 22.566 0.6875 44.125 9.5078 60.707 24.836 2.8594 2.6133 6.4688 4.2734 10.316 4.7383 3.8477 0.46875 7.7461-0.27734 11.152-2.1328 3.4336-1.8555 6.2109-4.7266 7.9531-8.2188 1.7422-3.4961 2.3633-7.4414 1.7773-11.301-0.49609-2.6211-0.78516-5.2812-0.86328-7.9492-0.003906-16.043 6.8438-31.328 18.82-42.004 11.977-10.676 27.941-15.73 43.879-13.891 13.703 1.8281 26.281 8.5391 35.434 18.902 9.1484 10.359 14.25 23.676 14.367 37.5-0.45703 19.98 7.3164 39.273 21.496 53.355 14.18 14.086 33.527 21.727 53.504 21.137 27.008-0.34375 52.469-12.66 69.508-33.617 10.07-13.773 25.938-22.125 42.992-22.633 17.602 0.80859 34.629 6.5195 49.16 16.488s25.988 23.797 33.078 39.93c16.875 38.344-2.3438 77.758-32.398 103.41h-0.003906c-27.879 22.113-63.297 32.461-98.699 28.84-21.898-0.74609-43.492-5.4102-63.75-13.766-12.762-6.8008-22.898-17.648-28.816-30.844-11.676-21.258-32.484-35.969-56.422-39.879-5.832-0.92969-11.762 0.96875-15.969 5.1094-4.2109 4.1445-6.2031 10.043-5.3672 15.891l0.13281 0.95703c0.57031 3.8789 2.3516 7.4766 5.0938 10.277 2.7422 2.8047 6.3008 4.6641 10.168 5.3203 4.0859 0.73047 7.7266 1.5391 8.4375 1.875 4.4219 1.2344 8.2109 4.1055 10.594 8.0312 2.3828 3.9258 3.1797 8.6094 2.2266 13.105-0.94922 4.4922-3.5781 8.4531-7.3477 11.078-16.387 16.352-51.301 12.113-78.281 12.02-37.5 0-75.148-0.26172-112.71-0.26172l-312.88-0.003906v75h482.79c28.254-0.125 54.316-15.234 68.457-39.691 32.164 24.172 70.738 38.336 110.91 40.723 4.5938 0.33594 9.168 0.52344 13.688 0.52344v0.003906c35.832 0.72656 70.77-11.227 98.645-33.75 33.012-30.199 51.418-73.152 50.512-117.88 0-82.707-58.895-150-131.25-150zm-318.75-36.957c-7.332 9.668-12.707 20.672-15.824 32.402-6.7891-3.3867-13.859-6.1719-21.133-8.3281-0.35547-3.75-0.54297-7.5938-0.54297-11.383v-15.32 0.003907c-0.53516-40.883-10.496-81.094-29.109-117.5-18.609-36.406-45.371-68.027-78.195-92.406-34.328-26.488-59.43-63.129-71.73-104.71-12.301-41.578-11.176-85.977 3.2148-126.88 14.391-40.902 41.316-76.227 76.941-100.94 35.625-24.719 78.141-37.57 121.49-36.73 5.0234 0 9.957 0.58203 14.887 1.0508v37.5c-5.1172-0.60156-10.293-1.0117-15.543-1.1055-22.434-0.40234-44.719 3.6641-65.566 11.949-20.852 8.2891-39.844 20.641-55.879 36.332-23.008 22.551-39.066 51.223-46.281 82.625-7.2109 31.398-5.2734 64.207 5.5898 94.539 10.859 30.332 30.188 56.914 55.691 76.598 37.414 27.863 67.887 63.988 89.047 105.56 21.156 41.574 32.43 87.473 32.941 134.12zm56.25-375.54c-9.9453 0-19.484 3.9492-26.516 10.984-7.0352 7.0312-10.984 16.57-10.984 26.516v56.25c0 6.6992-3.5742 12.887-9.375 16.238-5.8008 3.3477-12.949 3.3477-18.75 0-5.8008-3.3516-9.375-9.5391-9.375-16.238v-56.25c0-9.9453-3.9492-19.484-10.984-26.516-7.0312-7.0352-16.57-10.984-26.516-10.984-6.6992 0-12.887-3.5742-16.238-9.375-3.3477-5.8008-3.3477-12.949 0-18.75 3.3516-5.8008 9.5391-9.375 16.238-9.375h112.5c6.6992 0 12.887 3.5742 16.238 9.375 3.3477 5.8008 3.3477 12.949 0 18.75-3.3516 5.8008-9.5391 9.375-16.238 9.375zm131.25 393.75c-0.042969 19.43-5.1328 38.516-14.773 55.387-2.4648-5.6523-3.8125-11.723-3.9766-17.887-0.0625-20.098-6.6406-39.629-18.75-55.668v-368.08c0.25391-35.801-10.367-70.832-30.453-100.46-20.09-29.633-48.699-52.469-82.047-65.492v-0.88281-38.527c43.699 13.652 81.859 40.977 108.86 77.949 27.004 36.969 41.426 81.637 41.137 127.42z"/>
 <path d="m1048.6 453.38c-20.883 14.469-34.133 37.574-36.074 62.906-1.9453 25.328 7.6289 50.188 26.062 67.668 21.746 22.684 51.945 35.289 83.363 34.801h40.5v-37.5h-52.387c-15.824-0.019531-31.004-6.2695-42.254-17.395-11.25-11.129-17.668-26.238-17.859-42.062 0.21484-15.34 8-29.582 20.793-38.043 22.371-15.422 35.566-40.988 35.176-68.156-0.1875-16.273-0.22656-27.637 1.3867-55.574 1.1641-9.6484 4.8203-18.824 10.613-26.625 3.1328-5.2109 6.375-10.613 9.375-16.727 10.82-22.785 16.422-47.695 16.406-72.918 0.011719-30.168-8.0625-59.789-23.387-85.773-15.32-25.988-37.328-47.395-63.734-61.988-26.402-14.59-56.234-21.84-86.391-20.988-41.996 1.418-81.973 18.359-112.2 47.543-30.23 29.188-48.562 68.543-51.453 110.46-0.98438 16.496 0.46875 33.051 4.3125 49.125-1.875 0.20703-3.918 0.26172-5.8672 0.54297-40.066 6.0781-75.078 30.32-94.863 65.691-19.785 35.367-22.121 77.891-6.332 115.21 15.789 37.324 47.934 65.262 87.094 75.691 11.434 3.0898 23.238 4.6016 35.082 4.4805h17.738c6.6992 0 12.887 3.5742 16.238 9.375 3.3477 5.8008 3.3477 12.949 0 18.75-3.3516 5.8008-9.5391 9.375-16.238 9.375h-17.23c-23.328-0.34375-45.957 7.9883-63.488 23.379-17.535 15.395-28.727 36.75-31.406 59.926-2.1289 22.168 3.8906 44.352 16.938 62.398s32.223 30.719 53.938 35.648l129.98 30c11.883 2.5156 22.562 8.9922 30.289 18.371 7.7266 9.375 12.039 21.098 12.234 33.246-0.375 24.609 9.1367 48.34 26.406 65.875 17.273 17.535 40.855 27.41 65.469 27.406h95.625v-37.5h-58.125c-19.207 0.28906-37.73-7.1016-51.465-20.531-13.73-13.434-21.527-31.793-21.66-51 0.36719-16.805-5.0703-33.223-15.391-46.488-10.316-13.27-24.895-22.574-41.273-26.355l-124.69-28.781c-16.988-3.6211-32.328-12.688-43.691-25.828-11.359-13.137-18.121-29.625-19.25-46.961-1.4453-35.828 29.719-35.305 56.793-35.305 11.594-0.046875 22.887-3.6758 32.34-10.391 9.4492-6.7109 16.598-16.18 20.461-27.109h1.4453-0.003906c9.1289 0.20312 18.039-2.8125 25.168-8.5156s12.027-13.734 13.832-22.684c1.8594-10.895-1.1836-22.055-8.3164-30.496-7.1328-8.4453-17.625-13.312-28.676-13.305h-18.75c-32.191 0.007812-62.84-13.777-84.195-37.859-21.359-24.086-31.375-56.164-27.516-88.121 7.125-61.387 61.574-77.23 106.73-46.461l-0.003906-0.003906c3.3359 2.2305 7.3672 3.1758 11.348 2.6562 3.9805-0.51563 7.6367-2.457 10.289-5.4688 3.4844-3.8906 4.9688-9.1758 4.0234-14.309-0.94922-5.1367-4.2188-9.5469-8.8594-11.941-15.562-7.9492-35.117-17.98-37.145-19.258-15.375-9.543-12.883-34.555-11.906-50.137v0.003906c2.5938-32.469 16.953-62.871 40.383-85.492 23.43-22.625 54.316-35.91 86.855-37.359 35.453-1.0117 69.809 12.367 95.242 37.09 25.43 24.727 39.773 58.691 39.758 94.16-0.007812 19.598-4.3828 38.949-12.805 56.645-2.3828 4.9492-5.043 9.375-7.6133 13.574-9.0469 12.965-14.535 28.07-15.918 43.82-1.6328 28.555-1.6328 41.008-1.4453 58.125 0.14453 15.031-7.3086 29.121-19.82 37.461z"/>
 <path d="m656.25 281.25c24.863 0 48.711-9.8789 66.293-27.457 17.578-17.582 27.457-41.43 27.457-66.293s-9.8789-48.711-27.457-66.293c-17.582-17.578-41.43-27.457-66.293-27.457s-48.711 9.8789-66.293 27.457c-17.578 17.582-27.457 41.43-27.457 66.293 0.03125 24.855 9.918 48.684 27.492 66.258 17.574 17.574 41.402 27.461 66.258 27.492zm0-150c14.918 0 29.227 5.9258 39.773 16.477 10.551 10.547 16.477 24.855 16.477 39.773s-5.9258 29.227-16.477 39.773c-10.547 10.551-24.855 16.477-39.773 16.477s-29.227-5.9258-39.773-16.477c-10.551-10.547-16.477-24.855-16.477-39.773s5.9258-29.227 16.477-39.773c10.547-10.551 24.855-16.477 39.773-16.477z"/>
</svg>
