<?xml version="1.0" encoding="UTF-8"?>
<svg width="1200pt" height="1200pt" version="1.1" viewBox="0 0 1200 1200" xmlns="http://www.w3.org/2000/svg">
 <path d="m1069.8 205.87h-296.25v-8.8828c0-46.027-18.281-90.172-50.828-122.71-32.547-32.547-76.688-50.832-122.71-50.832-46.027 0-90.168 18.285-122.71 50.832-32.547 32.543-50.832 76.688-50.832 122.71v8.8867l-296.26-0.003906c-21.363-0.003907-41.57 9.6914-54.934 26.355-13.363 16.66-18.438 38.492-13.797 59.34 4.6445 20.852 18.5 38.465 37.672 47.887v760c0.019531 19.676 7.8477 38.543 21.762 52.457 13.914 13.914 32.777 21.742 52.457 21.762h853.23c19.68-0.019531 38.543-7.8477 52.457-21.762 13.914-13.914 21.742-32.781 21.762-52.457l0.054687-760c19.172-9.418 33.027-27.035 37.672-47.883 4.6406-20.852-0.43359-42.68-13.801-59.344-13.363-16.664-33.57-26.359-54.934-26.352zm-615.22-8.8828c0-51.957 27.719-99.961 72.711-125.94 44.992-25.98 100.43-25.98 145.42 0 44.992 25.977 72.711 73.98 72.711 125.94v8.8867l-290.84-0.003906zm-281.22 948.55c-12.219-0.015624-23.934-4.875-32.574-13.516-8.6367-8.6367-13.5-20.352-13.516-32.57v-47.723l82.629-49.898 83.074 50.172 0.097656 93.535zm801.75-520.95-83.352 50.332-83.246-50.266 0.089844-101.89 83.348-50.328 83.352 50.328zm14.047 24.375 83.336 50.32v101.76l-83.336 50.324-83.34-50.324v-101.75zm-111.46 50.32v101.72l-83.359 50.336-83.316-50.309v-101.75l83.336-50.32zm0.19531-251.21-83.34 50.324-83.336-50.324 0.003906-101.38h166.68zm-97.41 74.684-0.097656 101.79-83.438 50.391-83.324-50.324v-101.72l83.535-50.441zm-97.59 176.53v101.72l-83.348 50.344-83.312-50.309v-101.75l83.336-50.324zm0.19531-251.21-83.332 50.32-83.336-50.324v-101.38h166.68zm-97.598 74.566v101.95l-83.336 50.324-83.312-50.309 0.15234-101.83 83.371-50.344zm-97.398 176.64v101.72l-83.359 50.344-83.312-50.312v-101.75l83.336-50.324zm-83.141-200.89-83.336-50.324v-101.38h166.64l0.039062 101.39zm-14.094 24.344-0.15234 101.86-83.348 50.328-82.91-50.066v-102.24l83.109-50.184zm-180.7-24.344-82.875-50.035v-101.75c0.97656 0.039063 1.9492 0.074219 2.9336 0.074219h163.24l0.039062 101.39zm-13.828 24.504v101.44l-69.047 41.691v-184.82zm13.637 126.06 83.336 50.32v101.72l-83.363 50.348-82.656-49.938v-102.52zm-14.105 226.74v101.77l-68.578 41.41v-184.61zm28.125 101.78v-101.72l83.363-50.336 83.316 50.309v101.76l-83.336 50.316zm263.93 168.06h-166.7l-0.10156-93.211 83.449-50.391 83.34 50.324zm-69.125-168.06v-101.72l83.363-50.336 83.312 50.309v101.75l-83.34 50.32zm263.93 168.06h-166.68v-93.281l83.492-50.418 83.184 50.234zm-69.125-168.06v-101.72l83.363-50.336 83.301 50.301v101.75l-83.34 50.32zm263.93 168.06h-166.68v-93.281l83.504-50.422 83.172 50.156zm-69.141-168.07v-101.72l83.359-50.336 83.316 50.305v101.73l-83.578 50.137zm264.32 121.98c-0.015625 12.219-4.875 23.938-13.516 32.578s-20.355 13.504-32.578 13.516h-120.96v-93.648l82.648-49.578 84.414 49.766zm0-80.008-69.523-40.98v-102.71l69.535-41.984zm0.023437-352.87-69.488-41.953 0.19531-101.84 69.32-41.688zm0.015625-218.29-83.371 50.129-83.352-50.328v-101.39h163.8c0.98438 0 1.9609-0.03125 2.9336-0.074219zm-2.9258-129.71-939.6-0.003907c-11.27 0.085938-22.105-4.332-30.105-12.27-8-7.9414-12.496-18.746-12.496-30.012 0-11.27 4.4961-22.074 12.496-30.016 8-7.9375 18.836-12.355 30.105-12.27h939.61c11.27-0.085937 22.105 4.332 30.102 12.27 8 7.9414 12.496 18.746 12.496 30.012 0 11.27-4.4961 22.074-12.496 30.016-7.9961 7.9375-18.832 12.355-30.102 12.27z"/>
</svg>
