<?xml version="1.0" encoding="UTF-8"?>
<svg width="1200pt" height="1200pt" version="1.1" viewBox="0 0 1200 1200" xmlns="http://www.w3.org/2000/svg">
 <path d="m467.29 51.422c-17.812 0.09375-34.969 2.2031-50.578 5.2031-41.578 8.0625-71.906 22.641-71.906 22.641-6.6562 3.0469-10.641 9.9375-9.9844 17.25 0 0 9.8906 134.06 100.73 186.52 56.719 32.766 125.26 22.312 168.71 9.7969-10.219 23.391-15.609 44.578-18.469 59.109-49.547-11.062-100.88-13.969-150.61-7.9219-56.016 6.7969-110.11 24.891-157.55 55.172-94.922 60.562-161.58 170.81-161.58 330.89 0 159.05 50.578 287.16 139.03 358.5 86.859 70.078 209.39 82.219 344.9 17.719 135.52 64.5 258.05 52.359 344.9-17.719 88.5-71.391 139.03-199.45 139.03-358.5 0-160.08-66.656-270.32-161.58-330.89-47.438-30.281-101.53-48.375-157.55-55.172-47.531-5.7656-96.562-3.3281-144.05 6.5625 4.1719-19.406 13.031-48.281 31.781-77.109 1.5-1.5 2.6719-3.2344 3.5156-5.1562 0-0.046875 0.046875-0.09375 0.046875-0.14062 20.484-29.531 51.609-58.312 98.953-75.891 8.8594-3.2812 13.406-13.125 10.172-21.984-1.5938-4.3125-4.8281-7.7812-9-9.7031-4.125-1.9219-8.9062-2.0625-13.172-0.46875-39.656 14.719-69.562 36.562-92.062 60.656-10.031-43.734-34.828-113.16-94.359-147.56-28.359-16.406-59.672-21.938-89.344-21.797zm3.75 35.766c23.953-0.046875 48.094 4.0312 68.391 15.75 61.359 35.438 77.297 126.24 80.484 146.68-19.219 7.4062-105.75 39.141-167.16 3.6562-61.406-35.484-77.297-126.32-80.484-146.68 8.4844-3.2812 22.219-9.2812 51.281-14.719 14.859-2.7656 31.125-4.7344 47.531-4.7344zm17.156 288.1c35.906 0.046875 72.094 4.875 107.16 14.25l-0.046875 0.046875c1.1719 0.32812 2.3906 0.5625 3.6094 0.65625 2.1562 0.14062 4.3125-0.14062 6.375-0.84375 101.91-27.047 213.47-15.562 298.6 38.766 85.359 54.469 145.78 151.18 145.78 301.92 0 151.78-48.516 269.06-126.28 331.78-77.719 62.672-185.48 74.438-315.42 10.125-0.14062-0.046875-0.1875-0.09375-0.32812-0.14062v0.09375c-0.70312-0.28125-1.4062-0.51562-2.1562-0.70312-0.89062-0.375-1.8281-0.65625-2.7656-0.89062-0.9375-0.09375-1.8281-0.09375-2.7188-0.046875-0.9375-0.046875-1.8281-0.046875-2.7656 0.046875-0.79688 0.1875-1.5938 0.46875-2.3438 0.75-0.89062 0.23438-1.7344 0.46875-2.5781 0.84375-0.046875 0.046875-0.14062 0.046875-0.28125 0.09375h0.046875c-0.046875 0-0.09375 0.046875-0.14062 0.046875-129.94 64.266-237.71 52.5-315.42-10.172-77.766-62.766-126.28-180-126.28-331.78 0-150.74 60.422-247.45 145.78-301.92 56.016-35.766 123.47-52.969 192.1-52.875z"/>
</svg>
