<?xml version="1.0" encoding="UTF-8"?>
<svg width="1200pt" height="1200pt" version="1.1" viewBox="0 0 1200 1200" xmlns="http://www.w3.org/2000/svg">
 <path d="m784.92 239.88c-14.039-0.60156-27.84 4.6797-37.801 14.641l-33.359 33.48-482.88 482.88c-9.9609 9.9609-15.359 23.762-14.641 37.801 0.60156 14.16 7.1992 27.602 18.238 36.719 75.359 63 169.44 96.961 267.48 96.961 8.8789 0 17.879-0.23828 26.762-0.83984 208.68-13.078 375.96-180.36 389.04-389.04 6.7188-107.64-27.359-212.16-96.121-294.36-9.1172-10.922-22.559-17.641-36.715-18.242zm-482.16 510 180.96-180.96v255.6c-66.961-4.0781-130.68-30.121-180.96-74.641zm216.96-180.96 180.48 180.48c-47.398 42.121-107.88 69.719-174.12 74.879-2.1602 0.12109-4.1992 0.23828-6.3594 0.35938zm205.92 155.04-180.48-180.48h255.72c-0.12109 2.1602-0.12109 4.1992-0.35938 6.3594-5.1602 66.238-32.758 126.72-74.879 174.12zm-180.48-216.48 180.84-180.96c44.52 50.281 70.68 114 74.762 180.96zm336.6 42.719c-12 190.68-164.76 343.44-355.44 355.44-98.398 6.2383-193.92-24.961-269.04-87.719-3.2383-2.7617-5.1602-6.4805-5.2812-10.68-0.23828-4.0781 1.3203-7.9219 4.1992-10.801l21-21c61.32 55.078 140.64 85.441 223.2 85.801 0.35937 0 0.83984 0.12109 1.1992 0.12109 0.48047 0 0.83984-0.12109 1.3203-0.12109 8.6406 0 17.16-0.23828 25.801-0.96094 80.398-6.3594 153.48-41.879 208.2-95.879 0.71875-0.48047 1.4414-0.71875 2.0391-1.3203 0.60156-0.60156 0.83984-1.4414 1.3203-2.0391 54-54.84 89.641-127.8 95.879-208.2 0.71875-8.6406 0.96094-17.281 0.96094-25.801 0-0.48047 0.12109-0.83984 0.12109-1.3203 0-0.48047-0.12109-0.83984-0.12109-1.1992-0.35938-82.559-30.719-161.88-85.801-223.2l21-21c2.8789-2.8789 6.7188-4.3203 10.801-4.1992 4.1992 0.23828 7.9219 2.0391 10.68 5.2812 63.004 74.875 94.203 170.39 87.965 268.79z"/>
</svg>
