<?xml version="1.0" encoding="UTF-8"?>
<svg width="1200pt" height="1200pt" version="1.1" viewBox="0 0 1200 1200" xmlns="http://www.w3.org/2000/svg">
 <path d="m686.16 1070.2h-172.31c-137.06 0-248.39-111.47-248.39-248.39 0-109.22 70.781-202.22 168.94-235.31-53.859-33.234-67.078-105.94-67.078-169.69 0-103.55 84.234-187.92 187.92-187.92h89.766c103.55 0 187.92 84.234 187.92 187.92 0 82.078-25.219 140.06-71.297 168.37 100.22 32.062 173.06 126 173.06 236.76 0 137.06-111.47 248.39-248.39 248.39zm-172.31-465.61c-119.77 0-217.22 97.453-217.22 217.22s97.453 217.22 217.22 217.22h172.31c119.77 0 217.22-97.453 217.22-217.22s-97.453-217.22-217.22-217.22v-31.219c95.391 0 115.31-85.219 115.31-156.61 0-86.391-70.312-156.61-156.61-156.61h-89.766c-86.391 0-156.61 70.312-156.61 156.61 0 67.219 11.156 156.61 107.39 156.61h8.0625v31.219z"/>
 <path d="m618.47 573.71h36v31.219h-36z"/>
 <path d="m505.74 604.6 0.23438-31.219 34.219 0.28125-0.23438 31.219z"/>
 <path d="m529.92 851.16h376.22v31.312h-376.22z"/>
 <path d="m662.53 920.76h234.71v31.312h-234.71z"/>
 <path d="m517.55 264.37-13.312-28.312c30.234-14.297 47.766-47.297 47.766-90.609h31.312c0 55.078-24.703 99.469-65.766 118.92z"/>
 <path d="m681.61 263.39c-22.922-12.469-61.219-44.297-61.078-117.61h31.312c0 54.375 24.234 79.078 44.766 90.234l-14.859 27.469z"/>
 <path d="m552.14 160.97 0.09375-31.219 99.609 0.32812-0.09375 31.219z"/>
</svg>
