<?xml version="1.0" encoding="UTF-8"?>
<svg width="1200pt" height="1200pt" version="1.1" viewBox="0 0 1200 1200" xmlns="http://www.w3.org/2000/svg">
 <path d="m995.86 318.84c-93.234-93.141-217.31-144.37-349.22-144.37-51.938 0-102.7 7.9219-150.84 23.297-35.156-41.859-80.531-76.219-135.37-102.14-77.484-36.844-173.95-56.859-286.74-59.625-6.8438-0.14062-13.453 2.8594-17.625 8.2969-4.3594 5.25-5.9062 12.328-4.2188 19.078 14.297 56.859 35.859 142.92 109.69 212.86 29.625 28.219 65.766 52.219 108.61 72.141-75.938 89.062-117.38 200.86-117.38 319.08 0 131.76 51.375 255.47 144.71 348.61 93.234 93.141 217.31 144.37 349.22 144.37 131.86 0 255.94-51.234 349.22-144.37 93.234-93.141 144.71-216.94 144.71-348.61-0.14062-131.76-51.469-255.52-144.74-348.61zm-804.1-74.531c-51.375-48.703-73.547-104.77-89.906-163.18 93.234 5.0625 173.16 22.922 238.08 53.391 44.391 20.859 81.844 47.531 111.7 79.688 8.0625 8.625 15.469 17.625 22.453 27 2.1562 3 4.3125 6 6.375 9 31.688 46.453 43.453 91.922 47.766 118.78-69-7.9219-128.86-20.156-180.37-37.078-16.219-5.2969-31.547-11.156-46.219-17.391-44.109-19.078-80.719-42.375-109.88-70.219zm454.78 872.29c-248.16 0-450-201.47-450-449.06 0-115.78 44.156-221.53 116.53-301.31 55.781 20.531 121.22 35.391 196.92 44.766-9 13.781-16.781 30.234-22.219 50.062-3.2344 11.625 3.6094 23.766 15.375 27 1.9219 0.60938 3.9375 0.84375 5.8594 0.84375 9.6094 0 18.469-6.375 21.141-16.078 6.6094-23.859 17.531-41.297 30.141-54.141 39.609 13.312 46.688 51.234 47.062 53.297 1.6875 10.781 11.062 18.469 21.609 18.469 1.0781 0 2.2969-0.14062 3.375-0.23438 12-1.7812 20.156-13.078 18.375-25.078-0.375-2.3906-7.6875-46.219-46.922-73.547 24.469-8.5312 45.609-7.5469 47.531-7.4531 12.141 0.84375 22.547-8.2969 23.391-20.391 0.84375-12.141-8.2969-22.547-20.391-23.391-1.3125-0.14062-33.375-2.1562-69.469 11.531-4.6875 1.7812-9.2344 3.7031-13.781 6-5.1562-29.859-17.625-75-47.625-122.29 39.234-11.156 80.531-17.156 123.24-17.156 248.16 0 450 201.47 450 449.16-0.14063 247.55-201.98 449.02-450.14 449.02zm0-106.55c-12.141 0-21.938-9.8438-21.938-21.938 0-12.141 9.8438-21.938 21.938-21.938 62.156 0 121.78-18.844 172.31-54.469 9.9375-6.9375 23.625-4.5469 30.609 5.2969 6.9375 9.9375 4.5469 23.625-5.2969 30.609-57.938 40.828-126.32 62.438-197.63 62.438zm241.6-112.12c-12.141 0-21.938-9.8438-21.938-21.938 0-12.141 9.8438-21.938 21.938-21.938 12.141 0 21.938 9.8438 21.938 21.938 0 12.141-9.8438 21.938-21.938 21.938zm-611.76-205.31c-12.141 0-21.938-9.8438-21.938-21.938 0-12.141 9.8438-21.938 21.938-21.938 12.141 0 21.938 9.8438 21.938 21.938s-9.8438 21.938-21.938 21.938zm95.156 31.312c-12.141 0-21.938-9.8438-21.938-21.938 0-12.141 9.8438-21.938 21.938-21.938 12.141 0 21.938 9.8438 21.938 21.938 0 12.141-9.8438 21.938-21.938 21.938zm-58.594 72.984c-12.141 0-21.938-9.8438-21.938-21.938 0-12.141 9.8438-21.938 21.938-21.938 12.141 0 21.938 9.8438 21.938 21.938 0.046875 12.094-9.7969 21.938-21.938 21.938zm101.53 13.078c-12.141 0-21.938-9.8438-21.938-21.938 0-12.141 9.8438-21.938 21.938-21.938 12.141 0 21.938 9.8438 21.938 21.938 0.046875 12.094-9.7969 21.938-21.938 21.938zm-59.766 75.609c-12.141 0-21.938-9.8438-21.938-21.938 0-12.141 9.8438-21.938 21.938-21.938 12.141 0 21.938 9.8438 21.938 21.938 0.046875 12.094-9.7969 21.938-21.938 21.938z"/>
</svg>
