<?xml version="1.0" encoding="UTF-8"?>
<svg width="1200pt" height="1200pt" version="1.1" viewBox="0 0 1200 1200" xmlns="http://www.w3.org/2000/svg">
 <path d="m1080.4 112.31c7.3125-1.1719 16.312 0.65625 23.203 3.0938 13.688 4.8281 25.078 15.703 31.172 28.781 0.375 0.84375 0.75 1.6875 1.0781 2.5312 0.375 0.84375 0.70312 1.7344 0.98438 2.5781 0.32812 0.89062 0.60938 1.7344 0.84375 2.625 0.28125 0.89062 0.51562 1.7812 0.75 2.6719 0.1875 0.89062 0.42188 1.7812 0.5625 2.7188 0.1875 0.89062 0.32812 1.7812 0.46875 2.7188 0.14062 0.89062 0.23438 1.8281 0.32812 2.7188 0.09375 0.9375 0.14062 1.8281 0.1875 2.7656 0.046875 0.89062 0.046875 1.8281 0.046875 2.7656 0 0.89062-0.046875 1.8281-0.09375 2.7656-0.046875 0.89062-0.09375 1.8281-0.1875 2.7188-0.09375 0.9375-0.23438 1.8281-0.375 2.7656-0.14062 0.89062-0.28125 1.7812-0.46875 2.7188-0.1875 0.89062-0.42188 1.7812-0.60938 2.6719-0.23438 0.89062-0.51562 1.7812-0.75 2.6719-0.28125 0.84375-0.5625 1.7344-0.89062 2.5781-0.46875 1.2656-0.9375 2.4375-1.4531 3.6562-0.5625 1.1719-1.125 2.3438-1.7344 3.5156-0.60938 1.125-1.2656 2.25-1.9688 3.375s-1.4531 2.2031-2.2031 3.2344c-0.79688 1.0781-1.5938 2.0625-2.4375 3.0938-0.84375 0.98438-1.6875 1.9688-2.625 2.9062-0.89062 0.9375-1.8281 1.8281-2.8125 2.6719-0.98438 0.89062-1.9688 1.7344-3 2.5312-14.625 11.25-38.672 18.797-56.156 25.875-12.938 5.1094-25.688 10.688-38.297 16.641-7.5469 25.594-16.312 50.953-24.516 76.406-18.047 56.109-36.375 112.17-55.031 168.14-14.719 44.625-29.672 89.156-44.859 133.64-8.3906 24.844-16.266 50.25-25.688 74.719 8.7656 2.9531 18.328 4.6406 27.328 6.8438 17.016 4.1719 33.844 9.2344 49.734 16.734 1.125 0.51563 2.2031 1.0781 3.3281 1.6406s2.2031 1.1719 3.2812 1.7344c1.125 0.60938 2.2031 1.2188 3.2812 1.8281 1.0781 0.60937 2.1562 1.2656 3.1875 1.875 1.0781 0.65625 2.1094 1.3125 3.1875 1.9688 1.0312 0.70312 2.0625 1.3594 3.0938 2.0625 1.0312 0.70312 2.0625 1.4062 3.0469 2.1094 1.0312 0.75 2.0156 1.4531 3.0469 2.2031 0.98438 0.75 1.9688 1.5 2.9531 2.2969 0.9375 0.75 1.9219 1.5469 2.8594 2.2969 0.98438 0.79687 1.9219 1.6406 2.8594 2.4375 0.9375 0.79687 1.875 1.6406 2.7656 2.4844 0.9375 0.84375 1.8281 1.6875 2.7188 2.5312s1.7812 1.7344 2.6719 2.625c0.89062 0.89063 1.7344 1.7812 2.5781 2.6719 0.89062 0.89062 1.7344 1.8281 2.5312 2.7188 0.84375 0.9375 1.6406 1.875 2.4844 2.8125 0.79688 0.9375 1.5938 1.9219 2.3906 2.8594 0.75 0.98438 1.5469 1.9219 2.2969 2.9062 0.75 0.98438 1.5 1.9688 2.25 3 0.75 0.98438 1.4531 1.9688 2.1562 3 0.75 1.0312 1.4531 2.0625 2.1094 3.0938 0.70312 1.0312 1.3594 2.0625 2.0156 3.1406 0.70312 1.0312 1.3125 2.1094 1.9688 3.1406 0.65625 1.0781 1.2656 2.1562 1.875 3.2344 0.60938 1.0781 1.2188 2.1562 1.7812 3.2812 0.60938 1.0781 1.1719 2.2031 1.7344 3.2812 0.51562 1.125 1.0781 2.25 1.5938 3.375 0.5625 1.125 1.0781 2.25 1.5469 3.375 0.51562 1.125 0.98438 2.2969 1.5 3.4219 0.46875 1.1719 0.89062 2.2969 1.3594 3.4688 0.42188 1.1719 0.89062 2.3438 1.3125 3.5156 13.828 38.906 12.094 83.625-5.8594 120.94-14.719 30.516-40.875 57.188-71.766 71.484-9.9375 4.5938-20.531 7.5469-30.891 11.156 9.7969 15.75 21.609 30.562 32.672 45.422 6.5156-0.28125 13.031-0.46875 19.547-0.5625 6.1406-0.09375 15.562-0.70313 20.203 4.0781l0.70312 0.84375c0.23438 0.28125 0.46875 0.60938 0.65625 0.9375 0.1875 0.28125 0.375 0.60938 0.51562 0.98438 0.1875 0.32812 0.32812 0.65625 0.42188 1.0312 0.14062 0.32812 0.28125 0.70312 0.32812 1.0781 0.09375 0.32813 0.1875 0.70313 0.23438 1.0781s0.09375 0.75 0.09375 1.125v1.125c-0.1875 2.625-1.3125 5.0156-3.3281 6.7031-2.1094 1.7812-4.9688 2.4844-7.6406 2.7188-4.0312 0.375-8.2969-0.1875-12.328-0.28125-8.8125-0.14062-17.672-0.046874-26.484 0l-44.391 0.5625c-8.8594 0.046876-17.719 0.28125-26.484-0.65625-3.5625-3.1875-6.0469-5.9062-6.2344-10.969-0.09375-2.5312 0.75-5.0156 2.5781-6.7969 1.6406-1.5938 3.9375-2.5781 6.1406-3 6.1875-1.2188 13.547-0.46875 19.922-0.42188 9.6562 0.14063 19.312 0.14063 28.969 0-7.9688-13.406-20.578-28.125-30.141-40.875l-448.5 0.09375h-112.03c-33.891 0-67.734 2.1562-101.06-5.4375-9.7031 15.141-18.234 31.031-27.844 46.172 10.641 0.89062 44.953-2.25 51.797 3.4688 1.875 1.5469 2.3906 3.9844 2.5312 6.3281 0.14062 2.8594-0.46875 6.1875-2.4844 8.3906-2.5781 2.8125-8.8125 2.9531-12.516 3.0938-21.984 0.84375-44.297 0.046874-66.328 0-11.531 0-28.781 1.1719-39.797-0.5625-2.8594-0.46875-4.1719-1.3125-6.2344-3.3281-1.875-1.7812-3.4688-4.125-3.3281-6.8438 0.09375-2.5312 1.5938-4.8281 3.4688-6.4688 2.5312-2.2969 5.6719-3.375 9-3.8906 4.9219-0.84375 10.219-0.046876 15.234 0 7.7344 0.09375 15.609-0.23438 23.297 0.28125l0.65625 0.046874c11.438-16.875 21.609-35.109 30.328-53.531-9.3281-3.8438-18.656-7.7812-27.516-12.609-2.7188-1.4531-5.3438-2.9531-7.9688-4.5-2.625-1.5469-5.2031-3.1406-7.7812-4.7812-2.5781-1.6875-5.1094-3.375-7.5938-5.1094-2.4844-1.7344-4.9688-3.5625-7.4062-5.3906-2.4375-1.8281-4.8281-3.7031-7.1719-5.625-2.3438-1.9219-4.6875-3.8906-6.9844-5.9062-2.25-2.0156-4.5-4.0781-6.75-6.1875-2.2031-2.1094-4.3594-4.2656-6.4688-6.4219-2.1562-2.2031-4.2188-4.4062-6.2812-6.6562-2.0156-2.2969-4.0312-4.5938-6-6.8906-1.9688-2.3438-3.8438-4.7344-5.7188-7.125-1.875-2.4375-3.7031-4.875-5.4844-7.3125-1.7812-2.4844-3.5156-5.0156-5.2031-7.5469-1.6406-2.5312-3.2812-5.1094-4.875-7.7344-1.5938-2.5781-3.1406-5.2031-4.5938-7.875-1.5-2.6719-2.9531-5.3438-4.3125-8.0625-28.172-55.688-31.172-118.12-11.906-177.1 2.2031-6.3281 4.7344-12.562 7.5469-18.703 2.8125-6.0938 5.9062-12.047 9.2812-17.906 36.047-62.203 85.5-96.703 154.22-115.08-5.0625-31.359-11.906-62.484-17.766-93.703-7.6406-40.734-14.484-81.703-23.109-122.26-24-0.375-50.016-8.5312-69.469-22.688-24.047-17.484-39.469-42.562-43.922-72-4.0312-26.812 2.1094-56.812 18.516-78.75 3.1406-4.2188 6.5156-8.625 10.266-12.281 11.719-11.344 30.844-23.953 47.391-26.062 3.1875-0.42188 6.7031-0.1875 9.2812 2.0156 7.2188 6.375 1.4062 20.906 0.46875 28.969-0.65625 5.4844-0.51562 11.297-0.046875 16.734 1.4062 15.938 7.875 30.844 17.719 43.406 13.125 16.781 31.312 27.188 52.594 29.203 7.4062 0.75 15.094 0.375 22.594 0.32812 34.688-0.09375 74.859-4.7812 103.27 19.312 10.734 9.0938 20.391 22.688 21.516 37.125 0.65625 8.5781-0.98438 17.578-6.9375 24.188-12.375 13.547-35.531 9.6562-51.891 9.6094-13.547-0.09375-27.188-0.375-40.688 0.32812 1.2188 9.0938 3.375 18.047 5.0625 27.094l14.016 73.031 14.438 74.766c2.4844 12.984 4.6875 26.156 7.7344 39 26.906 5.0156 53.203 12.375 79.688 19.172l136.87 35.859 137.21 36.375 61.594 16.453c12.047 3.2344 24.328 6.0938 36.141 10.078 2.7188-10.453 6.375-20.672 9.7031-30.891l15-45.984c22.5-70.641 46.359-140.95 69.797-211.31 10.641-31.922 22.641-63.562 31.922-95.906-19.453 6.7031-38.016 18.656-58.781 20.719-0.89062 0.09375-1.7812 0.14062-2.6719 0.1875-0.9375 0.046875-1.8281 0.09375-2.7188 0.09375-0.9375 0-1.8281-0.046875-2.7188-0.09375-0.9375 0-1.8281-0.09375-2.7188-0.1875-0.89062-0.046875-1.7812-0.1875-2.7188-0.28125-0.89062-0.14062-1.7812-0.28125-2.6719-0.46875s-1.7812-0.375-2.625-0.5625c-0.89062-0.23438-1.7812-0.46875-2.625-0.75-0.89062-0.23438-1.7344-0.51562-2.5781-0.84375-0.89062-0.28125-1.7344-0.60938-2.5781-0.9375-0.79688-0.32812-1.6406-0.70312-2.4844-1.0781-0.79688-0.42188-1.5938-0.79688-2.3906-1.2188-0.84375-0.42188-1.5938-0.89062-2.3906-1.3125-0.79688-0.46875-1.5469-0.98438-2.2969-1.4531l-2.25-1.5469c-0.70312-0.5625-1.4531-1.125-2.1562-1.6875-11.203-9.2344-18.562-21.797-19.922-36.375-1.4062-14.766 2.7188-28.688 12.281-40.125 4.2188-5.0156 9.375-10.172 15.234-13.219 13.875-7.2188 29.344-12.516 43.828-18.516l72.703-30.703 81.516-34.547c13.406-5.7188 26.672-12.094 40.312-17.109 7.0781-2.625 13.969-4.7344 21.516-5.4375zm-791.72 471.98c-59.812 3.4219-115.17 27.703-155.26 72.797-33.891 38.109-56.156 95.25-52.922 146.63 0.09375 1.7344 0.1875 3.5156 0.32812 5.25 0.14062 1.7812 0.32812 3.5156 0.51562 5.2969 0.14062 1.7344 0.375 3.4688 0.5625 5.25 0.23438 1.7344 0.46875 3.4688 0.75 5.2031s0.5625 3.5156 0.89062 5.2031c0.28125 1.7812 0.60938 3.4688 0.98438 5.2031 0.32812 1.7344 0.70312 3.4688 1.125 5.1562 0.375 1.7344 0.79688 3.4688 1.2188 5.1562 0.46875 1.6875 0.9375 3.4219 1.4062 5.1094s0.98438 3.375 1.5 5.0625 1.0781 3.375 1.6406 5.0156c0.5625 1.6875 1.125 3.3281 1.7344 5.0156 0.60938 1.6406 1.2188 3.2812 1.875 4.9219s1.3125 3.2812 2.0156 4.9219c0.65625 1.5938 1.4062 3.2344 2.1094 4.8281l2.25 4.7812c0.75 1.5938 1.5469 3.1406 2.3438 4.7344 0.79688 1.5469 1.6406 3.1406 2.4844 4.6875s1.6875 3.0469 2.5781 4.5938c0.89062 1.5 1.7812 3.0469 2.7188 4.5469 0.89062 1.5 1.875 3 2.8125 4.4531 0.9375 1.5 1.9219 2.9531 2.9062 4.4062 1.0312 1.4531 2.0156 2.9062 3.0469 4.3594 1.0312 1.4062 2.0625 2.8125 3.1406 4.2188s2.1562 2.8125 3.2344 4.1719c1.125 1.4062 2.25 2.7656 3.375 4.125 1.125 1.3125 2.25 2.6719 3.4219 3.9844s2.3438 2.625 3.5625 3.9375c1.1719 1.2656 2.3906 2.5781 3.6562 3.7969 1.2188 1.2656 2.4375 2.5312 3.7031 3.75s2.5312 2.4375 3.8438 3.6562 2.5781 2.3906 3.9375 3.5625c27.047 23.672 59.812 42 95.344 49.172 24.844 5.0156 50.719 2.8594 75.938 2.7656l100.64-0.046875 384.74-0.42188h51.516c12.609 0.09375 25.312 0.70312 37.922-0.46875 29.625-2.8125 58.453-17.016 79.359-38.016 25.359-25.453 39.562-57.891 39.375-94.031-0.1875-34.594-13.781-70.688-38.625-95.109-12.188-12-27.797-22.875-43.828-29.016-23.859-9.0938-49.781-14.484-74.484-21.094l-125.72-33.75-238.82-64.172c-32.719-8.8125-65.531-17.25-98.438-25.266-36.984-9.1875-66.75-18.844-105.38-18.422-1.0312 0.046875-2.0156 0.046875-3.0469 0.09375zm708.47-319.26c-11.438 4.2656-22.781 9.0469-34.078 13.641-8.3438 3.375-16.922 6.5625-25.031 10.406-3.4219 11.953-7.7344 23.812-11.672 35.625l-22.781 68.156-59.344 177.94c-13.172 39.281-26.906 78.562-38.906 118.17 3.75 0.98438 7.5469 1.9219 11.344 2.8125 12.422 3.2812 25.078 6.3281 37.312 10.172 10.031-33.75 22.266-67.031 33.375-100.5l84.656-253.18c4.0312-12.328 25.594-74.344 25.547-82.828zm82.266-132.05c-11.953 3.0469-23.25 8.6719-34.594 13.547-17.25 7.5469-34.5 15-51.844 22.312l-110.81 46.312c-16.688 7.0781-34.688 13.266-50.672 21.797-5.8125 3.0938-10.5 7.1719-13.922 12.797-4.2656 7.125-5.9531 15.75-3.9375 23.859 2.25 9.2344 8.625 17.062 16.781 21.844 6.9844 4.0781 14.109 5.5781 22.219 5.0156 13.453-1.5469 36.328-14.109 49.734-19.594l132.05-54.141 39.938-16.359c7.5469-3.0469 15.609-5.5312 22.828-9.1406 5.625-2.8125 10.406-6.5156 14.344-11.438 5.8125-7.3594 8.9062-15.938 7.6875-25.406-1.1719-9.375-6.375-18.609-13.922-24.281-7.4062-5.5312-16.781-7.6406-25.875-7.125zm-925.97 34.547c-20.25 11.297-35.016 27.797-41.484 50.391-6.6094 23.062-3.0938 47.25 8.625 68.062 11.297 20.062 31.219 35.156 53.344 41.25 22.781 6.3281 48.047 3.3281 71.484 3.2812l83.109 0.09375c9.375 0.46875 34.781 2.7656 41.531-3.6562 1.5938-1.5469 2.3906-3.6094 2.4375-5.8594 0.09375-7.7812-6.6562-16.406-12-21.562-19.031-18.281-43.641-17.672-68.203-17.062-41.906 1.125-74.391 3.7031-107.16-27.469-17.625-16.781-30.234-44.953-30.656-69.281-0.046874-3.6094 0.5625-15.844-1.0312-18.188zm79.828 184.4-9.375 0.60938c7.1719 43.172 16.172 86.156 24.281 129.14l11.016 59.531c1.5938 8.1562 2.8125 16.406 4.8281 24.516 3.5156 0.1875 7.6875-1.125 11.25-1.5938 7.8281-1.0781 18.047-2.1094 25.922-1.2188 3.8438 0.14062 7.6406 0.1875 11.484 0.1875-3.2344-18.891-7.3125-37.594-10.922-56.391l-20.531-107.53c-2.9531-15.75-6.8438-31.5-9.2344-47.344-12.938-0.1875-25.828-0.1875-38.719 0.09375z"/>
 <path d="m287.06 674.44c11.25-0.79688 24.047 1.0312 34.969 3.75 30.609 7.5938 57.375 28.219 73.5 55.219 13.406 22.406 19.969 47.344 18.75 73.5-0.23438 4.9688-0.375 10.125-1.5469 15 19.219 7.3125 39.797 12.469 59.672 18 17.719 5.0156 35.391 10.266 53.016 15.609 0.1875-0.42188 0.375-0.79688 0.5625-1.2188 6.4219-12.984 18.188-22.781 31.875-27.328 14.766-4.9688 31.781-3 45.656 3.9844 12.75 6.4219 22.969 18.984 27.328 32.531 0.28125 0.89062 0.51562 1.8281 0.75 2.7188 0.28125 0.9375 0.46875 1.875 0.65625 2.8125 0.23438 0.89062 0.375 1.8281 0.51562 2.7656 0.1875 0.9375 0.28125 1.875 0.375 2.8125 0.14062 0.9375 0.1875 1.9219 0.28125 2.8594 0.046875 0.9375 0.09375 1.875 0.09375 2.8125 0 0.98438 0 1.9219-0.046875 2.8594s-0.09375 1.9219-0.1875 2.8594c-0.046875 0.9375-0.14062 1.875-0.28125 2.8125s-0.28125 1.875-0.46875 2.8125c-0.14062 0.9375-0.375 1.875-0.5625 2.7656-0.23438 0.9375-0.46875 1.875-0.70312 2.7656-0.28125 0.89062-0.5625 1.8281-0.89062 2.7188-0.28125 0.89062-0.60938 1.7812-0.98438 2.6719-0.32812 0.89062-0.70312 1.7344-1.0781 2.625-0.42188 0.84375-0.79688 1.6875-1.2656 2.5312-0.42188 0.84375-0.84375 1.6406-1.3125 2.4375s-0.98438 1.5938-1.4531 2.3438c-0.51562 0.79688-1.0312 1.5469-1.5938 2.2969s-1.125 1.4531-1.6875 2.1562c-0.5625 0.75-1.1719 1.4531-1.7812 2.1094-0.60938 0.70312-1.2656 1.3594-1.9219 2.0156s-1.3125 1.3125-1.9688 1.9219c-0.70312 0.65625-1.4062 1.2656-2.1094 1.8281-0.70312 0.60938-1.4062 1.1719-2.1562 1.7344-0.75 0.51562-1.5 1.0781-2.25 1.5938s-1.5469 0.98438-2.3438 1.5c-0.79688 0.46875-1.5938 0.9375-2.3906 1.3594s-1.6406 0.84375-2.4844 1.2656c-0.79688 0.375-1.6406 0.75-2.5312 1.125-0.84375 0.32812-1.6875 0.65625-2.5781 0.98438-0.84375 0.32812-1.7344 0.60938-2.625 0.89062-14.484 4.5-29.906 3.4688-43.359-3.7031-15.281-8.2031-24.609-20.859-29.484-37.266-1.1719-6.0469-1.4531-11.953-1.5938-18.094-13.406-2.9531-26.719-7.9688-39.844-11.953-24.328-7.2656-48.75-14.344-73.219-21.141-5.1562 11.672-11.203 22.547-19.453 32.391-20.906 24.938-49.969 39.797-82.312 42.656-31.641 2.7656-62.766-8.1094-87-28.359-0.75-0.65625-1.5469-1.3594-2.2969-2.0156s-1.5469-1.3594-2.2969-2.0625-1.4531-1.4062-2.2031-2.1094c-0.70312-0.70312-1.4531-1.4062-2.1562-2.1562-0.70312-0.70312-1.4062-1.4531-2.1094-2.2031s-1.4062-1.5-2.0625-2.25c-0.65625-0.79688-1.3594-1.5469-2.0156-2.3438s-1.3125-1.5469-1.9219-2.3438c-0.65625-0.79688-1.2656-1.6406-1.875-2.4375-0.65625-0.79688-1.2656-1.6406-1.8281-2.4375-0.60938-0.84375-1.2188-1.6875-1.7812-2.5312l-1.6875-2.5312c-0.5625-0.84375-1.125-1.7344-1.6406-2.5781-0.51562-0.89062-1.0781-1.7344-1.5938-2.625s-0.98438-1.7812-1.5-2.6719c-0.46875-0.89062-0.98438-1.7812-1.4531-2.7188-0.46875-0.89062-0.89062-1.7812-1.3594-2.7188-0.42188-0.9375-0.89062-1.8281-1.3125-2.7656s-0.84375-1.875-1.2188-2.8125c-0.42188-0.9375-0.79688-1.875-1.1719-2.8125s-0.75-1.9219-1.125-2.8594c-0.32812-0.9375-0.65625-1.9219-0.98438-2.9062-0.375-0.9375-0.65625-1.9219-0.98438-2.9062-0.28125-0.9375-0.60938-1.9219-0.89062-2.9062s-0.5625-1.9688-0.79688-2.9531c-0.28125-0.98438-0.51562-1.9688-0.75-2.9531-0.23438-1.0312-0.46875-2.0156-0.65625-3s-0.42188-2.0156-0.60938-3c-0.1875-1.0312-0.32812-2.0156-0.51562-3.0469-0.14062-0.98438-0.28125-2.0156-0.42188-3-0.14062-1.0312-0.28125-2.0156-0.375-3.0469s-0.1875-2.0156-0.28125-3.0469c-2.7188-31.734 6.7031-64.125 27.469-88.5 22.641-26.672 51.516-39.188 85.875-42.094zm0.60938 21.234c-29.531 3.2812-53.344 13.688-72.328 37.312-16.594 20.719-23.297 47.953-20.203 74.156 3.0938 26.438 16.828 51.984 37.969 68.344 19.875 15.375 47.859 24.75 72.938 21.375 25.875-3.4688 51.516-17.156 67.406-38.203 4.3125-6.4219 9.0469-12.891 11.859-20.156 0.23438-0.65625 0.51562-1.3125 0.75-2.0156-17.25-6.375-35.016-11.156-52.734-16.078-8.2031-2.2969-17.016-4.0781-24.938-7.2188-2.9062-1.125-5.2969-2.5781-7.7344-4.5-0.84375-2.0156-1.6406-4.0312-2.25-6.1406 0.84375-3.6562 1.4531-7.0781 4.7812-9.2812 1.5938-1.0781 3.3281-1.7812 5.1094-2.4375 13.641 2.8125 27.234 7.6875 40.594 11.719 14.438 4.3594 29.203 8.25 43.547 12.984 4.7812-26.531-3.2812-55.266-18.562-77.109-0.46875-0.65625-0.98438-1.3594-1.4531-2.0156-0.51562-0.70312-1.0312-1.3594-1.5469-2.0156-0.46875-0.65625-1.0312-1.3125-1.5469-1.9688s-1.0312-1.2656-1.5938-1.9219c-0.5625-0.60938-1.0781-1.2656-1.6406-1.875s-1.1719-1.2188-1.7344-1.8281-1.125-1.2188-1.7344-1.8281c-0.60938-0.5625-1.1719-1.1719-1.7812-1.7344-0.60938-0.60938-1.2188-1.1719-1.8281-1.7344-0.65625-0.5625-1.2656-1.125-1.9219-1.6406-0.60938-0.5625-1.2656-1.0781-1.875-1.6406l-1.9688-1.5469c-0.65625-0.51562-1.3594-1.0312-2.0156-1.5469-0.65625-0.46875-1.3594-0.98438-2.0156-1.4531-0.70312-0.46875-1.4062-0.9375-2.0625-1.4062-0.70312-0.46875-1.4062-0.9375-2.1094-1.3594-0.70312-0.46875-1.4531-0.89062-2.1562-1.3125-0.70312-0.46875-1.4531-0.89062-2.1562-1.2656-0.75-0.42188-1.4531-0.84375-2.2031-1.2188s-1.5-0.79688-2.25-1.125l-2.25-1.125c-0.75-0.32812-1.5-0.70312-2.2969-1.0312-0.75-0.32812-1.5-0.65625-2.2969-0.98438s-1.5469-0.60938-2.3438-0.9375c-0.75-0.28125-1.5469-0.5625-2.3438-0.84375s-1.5938-0.5625-2.3906-0.79688c-0.79688-0.28125-1.5938-0.51562-2.3906-0.75l-2.3906-0.70312c-0.84375-0.1875-1.6406-0.42188-2.4375-0.60938-0.84375-0.1875-1.6406-0.375-2.4375-0.5625-0.84375-0.1875-1.6406-0.32812-2.4844-0.51562-0.79688-0.14062-1.6406-0.28125-2.4844-0.42188-6.1406-1.0312-13.828-2.1094-20.062-1.0312zm283.26 149.34c-11.344 3.1406-19.875 7.9688-25.781 18.469-4.5938 8.25-6.1406 17.906-3.4688 27.047 2.8125 9.7031 10.266 17.766 19.078 22.406 5.9062 3.1406 14.062 4.9688 20.672 3.75 0.375-0.09375 0.75-0.14062 1.125-0.23438 0.23438-0.046875 0.51562-0.09375 0.75-0.14062 10.594-3.0938 19.641-8.2969 25.031-18.328 0.28125-0.51562 0.5625-1.0312 0.79688-1.5938 0.28125-0.51562 0.51562-1.0312 0.75-1.5938s0.42188-1.0781 0.60938-1.6406c0.23438-0.5625 0.42188-1.125 0.5625-1.6875 0.1875-0.5625 0.32812-1.125 0.51562-1.6875 0.14062-0.5625 0.23438-1.125 0.375-1.6875 0.09375-0.60938 0.23438-1.1719 0.28125-1.7344 0.09375-0.60938 0.1875-1.1719 0.23438-1.7812 0.046875-0.5625 0.09375-1.1719 0.14062-1.7344 0.046875-0.60938 0.046875-1.1719 0.046875-1.7812 0-0.5625 0-1.1719-0.046875-1.7344 0-0.60938-0.046875-1.1719-0.09375-1.7812-0.046875-0.5625-0.14062-1.1719-0.23438-1.7344-0.046875-0.5625-0.1875-1.1719-0.28125-1.7344s-0.23438-1.1719-0.375-1.7344-0.28125-1.125-0.46875-1.6875c-2.9062-9.5156-9.8906-17.062-18.656-21.609-6.9375-3.5156-13.875-4.5938-21.562-4.0312z"/>
</svg>
