<?xml version="1.0" encoding="UTF-8"?>
<svg width="1200pt" height="1200pt" version="1.1" viewBox="0 0 1200 1200" xmlns="http://www.w3.org/2000/svg">
 <path d="m517.18 75.5c-2.9922 0.10938-5.875 0.82422-8.4219 2.0859l-443.15 218.39c-4.4961 2.2227-7.6836 6.0039-8.8594 10.516-1.1758 4.5078-0.24219 9.3711 2.5977 13.512l74.934 110.75-75.004 110.9-0.003907-0.003907c-2.793 4.1367-3.6953 8.9805-2.5078 13.461 1.1875 4.4844 4.3672 8.2461 8.8438 10.457l72.406 35.672v295.99c0.019531 3.5469 1.043 7.0156 2.957 10.004 1.9102 2.9922 4.6328 5.375 7.8438 6.8789l443.22 208.61h0.003906c5.0781 2.4023 10.965 2.4023 16.039 0l443.22-208.61h0.003906c3.1875-1.5234 5.875-3.918 7.7617-6.9062 1.8867-2.9844 2.8906-6.4453 2.8945-9.9766v-295.92l72.406-35.672c4.4766-2.207 7.6562-5.9688 8.8438-10.453 1.1875-4.4844 0.28516-9.3242-2.5078-13.461l-74.969-110.82 75.004-110.9v0.003906c2.7969-4.1367 3.6953-8.9766 2.5078-13.461-1.1875-4.4844-4.3672-8.2461-8.8438-10.457l-443.25-218.42c-4.4844-2.1992-9.8906-2.668-15.031-1.3047-5.1445 1.3672-9.6055 4.457-12.402 8.5938l-63.652 94.086-63.652-94.121v-0.003906c-1.9883-2.9688-4.8555-5.4297-8.2578-7.0977-3.4062-1.668-7.2109-2.4688-10.969-2.3125zm169.75 41.68 409.49 201.8-59.477 87.934-409.49-201.8zm-173.89 0.039062 59.477 87.934-409.34 201.76-59.477-87.969zm87.02 115.95 401.07 197.7-401.1 197.66-401.1-197.66zm-437 221.61 409.49 201.76-59.477 87.969-409.49-201.8zm873.84 0.039062 59.477 87.934-409.34 201.72-59.512-87.934zm-861.39 164.91 333.35 164.26c4.4766 2.2031 9.8789 2.6758 15.02 1.3164 5.1445-1.3594 9.6055-4.4414 12.41-8.5703l44.938-66.434v365.76l-405.72-190.74zm848.94 0.078125v265.52l-405.72 190.81v-365.76l44.938 66.398h0.003906c2.8125 4.1562 7.3047 7.2578 12.484 8.6133 5.1758 1.3516 10.609 0.85156 15.094-1.3984z" fill-rule="evenodd"/>
</svg>
