<?xml version="1.0" encoding="UTF-8"?>
<svg width="1200pt" height="1200pt" version="1.1" viewBox="0 0 1200 1200" xmlns="http://www.w3.org/2000/svg">
 <path d="m996.42 1142.7h-624.79c-22.828 0-41.344-18.516-41.344-41.344v-867.42c0-22.828 18.516-41.344 41.344-41.344h624.79c22.828 0 41.344 18.516 41.344 41.344v867.42c0 22.828-18.516 41.344-41.344 41.344zm-624.79-922.03c-7.3125 0-13.266 5.9531-13.266 13.266v867.42c0 7.3125 5.9531 13.266 13.266 13.266h624.79c7.3125 0 13.266-5.9531 13.266-13.266v-867.42c0-7.3125-5.9531-13.266-13.266-13.266z"/>
 <path d="m458.06 316.74c0 30.75-46.172 30.75-46.172 0s46.172-30.75 46.172 0" fill-rule="evenodd"/>
 <path d="m584.26 316.74c0 30.75-46.125 30.75-46.125 0s46.125-30.75 46.125 0" fill-rule="evenodd"/>
 <path d="m710.53 316.74c0 30.75-46.172 30.75-46.172 0s46.172-30.75 46.172 0" fill-rule="evenodd"/>
 <path d="m836.76 316.74c0 30.75-46.172 30.75-46.172 0s46.172-30.75 46.172 0" fill-rule="evenodd"/>
 <path d="m963 316.74c0 30.75-46.125 30.75-46.125 0s46.125-30.75 46.125 0" fill-rule="evenodd"/>
 <path d="m529.64 417.37c0 30.797-46.172 30.797-46.172 0 0-30.75 46.172-30.75 46.172 0" fill-rule="evenodd"/>
 <path d="m595.97 465.14c9 9 9 23.625 0 32.625s-23.625 9-32.625 0-9-23.625 0-32.625c9-9.0469 23.625-9.0469 32.625 0z" fill-rule="evenodd"/>
 <path d="m700.36 424.4c9 9 9 23.625 0 32.625s-23.625 9-32.625 0-9-23.625 0-32.625 23.625-9 32.625 0z" fill-rule="evenodd"/>
 <path d="m836.02 554.48c0 30.75-46.125 30.75-46.125 0 0-30.797 46.125-30.797 46.125 0" fill-rule="evenodd"/>
 <path d="m852.71 424.03c0 30.797-46.125 30.797-46.125 0 0-30.75 46.125-30.75 46.125 0" fill-rule="evenodd"/>
 <path d="m939.94 677.68c9 9 9 23.625 0 32.625s-23.625 9-32.625 0-9-23.625 0-32.625c9.0469-9 23.625-9 32.625 0z" fill-rule="evenodd"/>
 <path d="m694.97 824.39c0 30.75-46.125 30.75-46.125 0s46.125-30.75 46.125 0" fill-rule="evenodd"/>
 <path d="m534.24 587.81c0 30.797-46.125 30.797-46.125 0 0-30.75 46.125-30.75 46.125 0" fill-rule="evenodd"/>
 <path d="m540.28 839.58c0 30.75-46.125 30.75-46.125 0 0-30.797 46.125-30.797 46.125 0" fill-rule="evenodd"/>
 <path d="m679.82 1000.3c0 30.75-46.172 30.75-46.172 0s46.172-30.75 46.172 0" fill-rule="evenodd"/>
 <path d="m911.53 894.89c9 9 9 23.625 0 32.625s-23.625 9-32.625 0-9-23.625 0-32.625 23.625-9 32.625 0z" fill-rule="evenodd"/>
 <path d="m817.45 698.9c0 30.75-46.172 30.75-46.172 0s46.172-30.75 46.172 0" fill-rule="evenodd"/>
 <path d="m607.45 682.6c9 9 9 23.625 0 32.625s-23.625 9-32.625 0-9-23.625 0-32.625c9.0469-9 23.625-9 32.625 0z" fill-rule="evenodd"/>
 <path d="m474.74 701.9c0 30.797-46.172 30.797-46.172 0 0-30.75 46.172-30.75 46.172 0" fill-rule="evenodd"/>
 <path d="m481.97 984c9 9 9 23.625 0 32.625s-23.625 9-32.625 0-9-23.625 0-32.625c9-9.0469 23.625-9.0469 32.625 0z" fill-rule="evenodd"/>
 <path d="m843.56 1018.5c0 30.797-46.125 30.797-46.125 0 0-30.75 46.125-30.75 46.125 0" fill-rule="evenodd"/>
 <path d="m826.6 794.81c9 9 9 23.625 0 32.625s-23.625 9-32.625 0-9-23.625 0-32.625 23.625-9 32.625 0z" fill-rule="evenodd"/>
 <path d="m952.78 512.02c0 30.75-46.125 30.75-46.125 0 0-30.797 46.125-30.797 46.125 0" fill-rule="evenodd"/>
 <path d="m451.18 492.66c0 30.75-46.125 30.75-46.125 0s46.125-30.75 46.125 0" fill-rule="evenodd"/>
 <path d="m344.34 1011h-139.5c-22.828 0-41.344-18.516-41.344-41.344v-867.42c0-22.828 18.516-41.344 41.344-41.344h624.79c22.828 0 41.344 18.516 41.344 41.344v104.34c0 7.7344-6.2812 14.062-14.062 14.062l-485.29-0.046875c-7.3125 0-13.266 5.9531-13.266 13.266v763.08c0.046875 7.7812-6.2812 14.062-14.016 14.062zm-139.5-922.03c-7.3125 0-13.266 5.9531-13.266 13.266v867.42c0 7.3125 5.9531 13.266 13.266 13.266h125.48l-0.046875-749.06c0-22.828 18.516-41.344 41.344-41.344h471.24v-90.281c0-7.3125-5.9531-13.266-13.266-13.266z"/>
 <path d="m346.45 129.28c5.4844 5.4844 5.4844 14.391 0 19.875s-14.391 5.4844-19.875 0-5.4844-14.391 0-19.875 14.391-5.4844 19.875 0z" fill-rule="evenodd"/>
 <path d="m264.42 135.1c0 18.75-28.078 18.75-28.078 0s28.078-18.75 28.078 0" fill-rule="evenodd"/>
 <path d="m273.98 308.44c0 18.75-28.078 18.75-28.078 0s28.078-18.75 28.078 0" fill-rule="evenodd"/>
 <path d="m266.68 669.05c0 18.75-28.078 18.75-28.078 0s28.078-18.75 28.078 0" fill-rule="evenodd"/>
 <path d="m260.48 891.19c5.4844 5.4844 5.4844 14.391 0 19.875s-14.391 5.4844-19.875 0-5.4844-14.391 0-19.875c5.5312-5.4844 14.391-5.4844 19.875 0z" fill-rule="evenodd"/>
 <path d="m302.44 797.48c0 18.703-28.125 18.703-28.125 0 0-18.75 28.125-18.75 28.125 0" fill-rule="evenodd"/>
 <path d="m238.36 753.19c5.4844 5.4844 5.4844 14.391 0 19.875s-14.391 5.4844-19.875 0-5.4844-14.391 0-19.875 14.391-5.4844 19.875 0z" fill-rule="evenodd"/>
 <path d="m303.05 554.53c0 18.75-28.078 18.75-28.078 0 0-18.703 28.078-18.703 28.078 0" fill-rule="evenodd"/>
 <path d="m236.95 483.89c5.4844 5.4844 5.4844 14.391 0 19.875s-14.391 5.4844-19.875 0-5.4844-14.391 0-19.875 14.391-5.4844 19.875 0z" fill-rule="evenodd"/>
 <path d="m304.03 440.81c5.4844 5.4844 5.4844 14.391 0 19.875s-14.391 5.4844-19.875 0-5.4844-14.391 0-19.875 14.391-5.4844 19.875 0z" fill-rule="evenodd"/>
 <path d="m244.45 370.26c5.4844 5.4844 5.4844 14.391 0 19.875s-14.391 5.4844-19.875 0-5.4844-14.391 0-19.875 14.391-5.4844 19.875 0z" fill-rule="evenodd"/>
 <path d="m299.81 235.08c0 18.75-28.125 18.75-28.125 0 0-18.703 28.125-18.703 28.125 0" fill-rule="evenodd"/>
 <path d="m245.53 194.86c5.4844 5.4844 5.4844 14.391 0 19.875s-14.391 5.4844-19.875 0-5.4844-14.391 0-19.875 14.391-5.4844 19.875 0z" fill-rule="evenodd"/>
 <path d="m429.66 149.72c5.4844 5.4844 5.4844 14.391 0 19.875s-14.391 5.4844-19.875 0-5.4844-14.391 0-19.875 14.391-5.4844 19.875 0z" fill-rule="evenodd"/>
 <path d="m505.6 109.5c5.4844 5.4844 5.4844 14.391 0 19.875s-14.391 5.4844-19.875 0-5.4844-14.391 0-19.875c5.5312-5.4844 14.391-5.4844 19.875 0z" fill-rule="evenodd"/>
 <path d="m559.26 152.16c5.4844 5.4844 5.4844 14.391 0 19.875s-14.391 5.4844-19.875 0-5.4844-14.391 0-19.875c5.5312-5.4844 14.391-5.4844 19.875 0z" fill-rule="evenodd"/>
 <path d="m628.36 130.03c0 18.703-28.125 18.703-28.125 0 0-18.75 28.125-18.75 28.125 0" fill-rule="evenodd"/>
 <path d="m704.21 154.4c5.4844 5.4844 5.4844 14.391 0 19.875s-14.391 5.4844-19.875 0-5.4844-14.391 0-19.875 14.391-5.4844 19.875 0z" fill-rule="evenodd"/>
 <path d="m776.02 115.59c5.4844 5.4844 5.4844 14.391 0 19.875s-14.391 5.4844-19.875 0-5.4844-14.391 0-19.875 14.391-5.4844 19.875 0z" fill-rule="evenodd"/>
 <path d="m707.11 667.6c0 30.797-46.125 30.797-46.125 0 0-30.75 46.125-30.75 46.125 0" fill-rule="evenodd"/>
 <path d="m767.48 898.82c9 9 9 23.625 0 32.625s-23.625 9-32.625 0-9-23.625 0-32.625c8.9531-9 23.578-9 32.625 0z" fill-rule="evenodd"/>
 <path d="m449.06 860.68c0 30.797-46.125 30.797-46.125 0 0-30.75 46.125-30.75 46.125 0" fill-rule="evenodd"/>
 <path d="m600.74 923.68c0 30.75-46.172 30.75-46.172 0 0-30.797 46.172-30.797 46.172 0" fill-rule="evenodd"/>
 <path d="m946.64 799.69c0 30.797-46.172 30.797-46.172 0 0-30.75 46.172-30.75 46.172 0" fill-rule="evenodd"/>
 <path d="m693.52 530.95c9 9 9 23.625 0 32.625s-23.625 9-32.625 0-9-23.625 0-32.625 23.625-9 32.625 0z" fill-rule="evenodd"/>
</svg>
