<?xml version="1.0" encoding="UTF-8"?>
<svg width="1200pt" height="1200pt" version="1.1" viewBox="0 0 1200 1200" xmlns="http://www.w3.org/2000/svg">
 <path d="m1084.4 399.1c-72.984-11.25-165.52-12.375-261.05-6.8906-0.42188 0.046875-0.84375 0.046875-1.3125 0.09375-16.266 0.9375-32.578 2.0625-48.938 3.375-0.51562 0.046875-1.0312 0.046875-1.5469 0.09375-0.046875 0-0.09375 0.046875-0.1875 0.046875-107.95 8.7188-215.9 24.984-300.47 43.969-0.42188 0.046875-0.79688 0.046875-1.2188 0.14062-33.891 7.6406-63.234 15.516-87.234 23.391-0.28125 0.09375-0.46875 0.23438-0.75 0.32812-16.078 5.25-29.953 10.594-41.156 15.891-99.609 46.828-256.4 197.76-297.42 307.18-2.1094 5.5312-1.3125 11.766 2.1094 16.641 3.375 4.875 8.7188 7.5469 14.906 7.6875 72.656-0.51562 143.95-0.32812 212.86-0.14062 33.891 0.09375 67.312 0.1875 100.17 0.1875 15.891 0 31.641-0.046876 47.297-0.09375h0.9375c12.609-0.046876 25.078-0.14063 37.547-0.23438 6.3281-0.046874 12.703-0.09375 18.984-0.14062 5.6719-0.046876 11.203-0.14063 16.828-0.23438 11.812-0.14062 23.719-0.28125 35.344-0.46875 0.046876 0 0.09375-0.046874 0.09375-0.046874 95.625-1.6875 184.26-5.7656 263.68-14.672 0.1875 0 0.32812 0.046876 0.51562 0.046876 0.70312 0 1.3594-0.046876 2.0625-0.14063 52.828-6 98.297-13.875 139.08-24.094 0.46875-0.14062 0.89062-0.42187 1.3594-0.5625 42.281-10.641 80.203-23.859 112.69-40.734 58.547-30.375 97.359-85.219 106.5-150.42 9.1875-65.672-13.406-129.66-62.016-175.55-2.6719-2.5312-6-4.1719-9.6094-4.6875zm-160.36 337.69c-0.09375 0.046876-0.1875 0.046876-0.32812 0.09375-17.812 4.3594-36.703 8.2969-56.719 11.812-2.0625 0.375-4.0781 0.70313-6.1406 1.0781-9.2344 1.5938-18.75 3.0938-28.547 4.4531-2.0625 0.28125-4.2188 0.5625-6.3281 0.84375-8.2969 1.1719-16.828 2.25-25.594 3.2812-1.7344 0.23438-3.5156 0.42188-5.25 0.60938-77.156-17.484-132.84-87.047-132.84-166.5 0-72.328 45.469-136.5 113.48-160.74 32.203-2.5781 64.359-4.4531 95.812-5.5781 76.781 17.719 132.24 87.188 132.24 166.31 0 59.016-29.766 112.73-79.828 144.28zm-401.53 37.266c-32.297 0.51562-65.297 0.79687-99.141 0.89062-62.109-21.469-103.69-79.594-103.69-145.5 0-54.188 28.969-104.77 75.703-132.47 22.641-7.3125 50.062-14.578 80.812-21.469 83.766 1.3594 151.45 69.891 151.45 153.94 0 64.641-40.547 122.34-101.16 144.52-1.3594 0.046874-2.7188 0.046874-4.0781 0.046874zm35.297-314.72c42.703-7.4531 88.781-14.109 136.18-19.547-27.047 24.609-47.156 55.969-58.172 91.078-18.703-30.609-45.703-55.453-78-71.531zm94.828 233.63c16.453 29.438 39.938 54.562 68.391 73.031-38.812 2.9062-79.641 4.875-122.11 6.2344 24.375-21.375 42.844-48.703 53.719-79.266zm-487.64 81.703c-25.5 0-51.281 0.046876-77.25 0.1875 40.828-79.969 137.53-178.13 217.6-233.02-13.922 26.672-21.703 56.672-21.703 87.656 0 57.562 25.734 110.3 67.922 145.6-25.875-0.046875-52.031-0.09375-78.516-0.1875-35.438-0.09375-71.531-0.1875-108.09-0.1875zm955.36-200.29c-7.5 53.531-39.375 98.531-87.422 123.47-9.8906 5.1094-20.344 9.8906-31.312 14.391 24.562-34.312 38.203-75.797 38.203-119.67 0-67.453-33.328-129.1-85.547-167.16 43.125 0.70312 83.531 3.375 118.92 8.4844 37.266 37.453 54.422 88.359 47.109 140.53z"/>
 <path d="m833.11 495.98c-53.203 0-96.516 43.312-96.516 96.516s43.312 96.516 96.516 96.516 96.516-43.312 96.516-96.516-43.312-96.516-96.516-96.516zm0 157.03c-33.375 0-60.516-27.141-60.516-60.516s27.141-60.516 60.516-60.516 60.516 27.141 60.516 60.516-27.141 60.516-60.516 60.516z"/>
 <path d="m473.72 553.08c-42.094 0-76.359 34.266-76.359 76.359s34.266 76.359 76.359 76.359 76.359-34.266 76.359-76.359-34.266-76.359-76.359-76.359zm0 116.72c-22.266 0-40.359-18.094-40.359-40.359s18.094-40.359 40.359-40.359 40.359 18.094 40.359 40.359-18.094 40.359-40.359 40.359z"/>
</svg>
