<?xml version="1.0" encoding="UTF-8"?>
<svg width="1200pt" height="1200pt" version="1.1" viewBox="0 0 1200 1200" xmlns="http://www.w3.org/2000/svg">
 <path d="m1035.3 495.52h-34.828v-208.92c0-38.391-31.219-69.656-69.656-69.656h-522.32c-38.391 0-69.656 31.266-69.656 69.656s31.266 69.656 69.656 69.656h417.84c19.219 0 34.828 15.609 34.828 34.828v104.48h-52.219v-17.391c0-48-39.047-87.047-87.047-87.047h-104.48c-48 0-87.047 39.047-87.047 87.047v17.391h-17.391c-198.94 0-360.94 159.74-365.21 357.71-20.953 12.047-35.203 34.359-35.203 60.188 0 38.391 31.266 69.656 69.656 69.656h766.08c38.391 0 69.656-31.266 69.656-69.656s-31.219-69.656-69.656-69.656h-52.219v-17.391c0-48 39.047-87.047 87.047-87.047h52.219c28.781 0 52.219-23.438 52.219-52.219v-139.26c0-28.781-23.438-52.219-52.219-52.219zm-208.92-174.1h-417.84c-19.219 0-34.828-15.609-34.828-34.828s15.609-34.828 34.828-34.828h522.32c19.219 0 34.828 15.609 34.828 34.828v208.92h-69.656v-104.48c0-38.391-31.219-69.656-69.656-69.656zm-261.19 156.71c0-28.781 23.438-52.219 52.219-52.219h104.48c28.781 0 52.219 23.438 52.219 52.219v17.391h-208.92zm417.84 435.28c0 19.219-15.609 34.828-34.828 34.828h-766.03c-19.219 0-34.828-15.609-34.828-34.828s15.609-34.828 34.828-34.828h766.08c19.219 0 34.828 15.609 34.828 34.828zm69.656-226.36c0 9.6094-7.7812 17.391-17.391 17.391h-52.219c-48.469 0-90.328 28.547-109.97 69.656h-569.06c-9.6094 0-17.391 7.7812-17.391 17.391s7.7812 17.391 17.391 17.391h558.52c-0.84375 5.7188-1.4062 11.484-1.4062 17.391v17.391l-678.56 0.09375c9.0938-174.32 153.79-313.4 330.37-313.4h522.32c9.6094 0 17.391 7.8281 17.391 17.391zm-121.87-121.87c-28.781 0-52.219 23.438-52.219 52.219s23.438 52.219 52.219 52.219 52.219-23.438 52.219-52.219-23.438-52.219-52.219-52.219zm0 69.656c-9.6094 0-17.391-7.8281-17.391-17.391 0-9.6094 7.7812-17.391 17.391-17.391 9.6094 0 17.391 7.8281 17.391 17.391 0 9.6094-7.7812 17.391-17.391 17.391zm-139.26-69.656c-28.781 0-52.219 23.438-52.219 52.219s23.438 52.219 52.219 52.219 52.219-23.438 52.219-52.219-23.438-52.219-52.219-52.219zm0 69.656c-9.6094 0-17.391-7.8281-17.391-17.391 0-9.6094 7.7812-17.391 17.391-17.391s17.391 7.8281 17.391 17.391c0 9.6094-7.7812 17.391-17.391 17.391z"/>
</svg>
