<?xml version="1.0" encoding="UTF-8"?>
<svg width="1200pt" height="1200pt" version="1.1" viewBox="0 0 1200 1200" xmlns="http://www.w3.org/2000/svg">
 <g>
  <path d="m755.22 586.17c-2.8203 0-5.3633-1.4102-6.7734-3.9492l-67.449-117.12c-2.2578-3.668-0.84766-8.4648 2.8203-10.723 3.668-2.2578 8.4648-0.84766 10.723 2.8203l67.449 117.12c2.2578 3.668 0.84766 8.4648-2.8203 10.723-1.4102 0.84766-2.8203 1.1289-3.9492 1.1289z"/>
  <path d="m734.34 607.05c-1.4102 0-2.5391-0.28125-3.9492-1.1289l-148.45-85.793c-3.668-2.2578-5.0781-7.0547-2.8203-10.723 2.2578-3.668 7.0547-5.0781 10.723-2.8203l148.45 85.793c3.668 2.2578 5.0781 7.0547 2.8203 10.723-1.4102 2.5391-4.2344 3.9492-6.7734 3.9492z"/>
  <path d="m726.72 635.28h-171.31c-4.2344 0-7.9023-3.3867-7.9023-7.9023s3.3867-7.9023 7.9023-7.9023h171.31c4.2344 0 7.9023 3.3867 7.9023 7.9023-0.003906 4.5156-3.6719 7.9023-7.9023 7.9023z"/>
  <path d="m585.89 749.29c-2.8203 0-5.3633-1.4102-6.7734-3.9492-2.2578-3.668-0.84766-8.4648 2.8203-10.723l148.45-85.793c3.668-2.2578 8.4648-0.84766 10.723 2.8203 2.2578 3.668 0.84766 8.4648-2.8203 10.723l-148.45 86.078c-1.1289 0.5625-2.5391 0.84375-3.9492 0.84375z"/>
  <path d="m783.44 863.31c-4.2344 0-7.9023-3.3867-7.9023-7.9023v-171.31c0-4.2344 3.3867-7.9023 7.9023-7.9023s7.9023 3.3867 7.9023 7.9023v171.31c0 4.5156-3.668 7.9023-7.9023 7.9023z"/>
  <path d="m669.43 832.83c-1.4102 0-2.5391-0.28125-3.9492-1.1289-3.668-2.2578-5.0781-7.0547-2.8203-10.723l85.793-148.45c2.2578-3.668 7.0547-5.0781 10.723-2.8203 3.668 2.2578 5.0781 7.0547 2.8203 10.723l-85.793 148.45c-1.4102 2.5391-4.2344 3.9492-6.7734 3.9492z"/>
  <path d="m783.44 863.31c-4.2344 0-7.9023-3.3867-7.9023-7.9023v-171.31c0-4.2344 3.3867-7.9023 7.9023-7.9023s7.9023 3.3867 7.9023 7.9023v171.31c0 4.5156-3.668 7.9023-7.9023 7.9023z"/>
  <path d="m897.46 832.83c-2.8203 0-5.3633-1.4102-6.7734-3.9492l-85.793-148.45c-2.2578-3.668-0.84766-8.4648 2.8203-10.723 3.668-2.2578 8.4648-0.84766 10.723 2.8203l85.793 148.45c2.2578 3.668 0.84766 8.4648-2.8203 10.723-1.1289 0.84766-2.5391 1.1289-3.9492 1.1289z"/>
  <path d="m981 749.29c-1.4102 0-2.5391-0.28125-3.9492-1.1289l-148.45-85.793c-3.668-2.2578-5.0781-7.0547-2.8203-10.723 2.2578-3.668 7.0547-5.0781 10.723-2.8203l148.45 85.793c3.668 2.2578 5.0781 7.0547 2.8203 10.723-1.4102 2.5391-3.9492 3.9492-6.7734 3.9492z"/>
  <path d="m1011.5 635.28h-171.31c-4.2344 0-7.9023-3.3867-7.9023-7.9023s3.3867-7.9023 7.9023-7.9023h171.31c4.2344 0 7.9023 3.3867 7.9023 7.9023s-3.3867 7.9023-7.9023 7.9023z"/>
  <path d="m832.55 607.05c-2.8203 0-5.3633-1.4102-6.7734-3.9492-2.2578-3.668-0.84766-8.4648 2.8203-10.723l148.45-85.793c3.668-2.2578 8.4648-0.84766 10.723 2.8203 2.2578 3.668 0.84766 8.4648-2.8203 10.723l-148.45 85.793c-1.1289 0.56641-2.5391 1.1289-3.9492 1.1289z"/>
  <path d="m811.95 586.17c-1.4102 0-2.5391-0.28125-3.9492-1.1289-3.668-2.2578-5.0781-7.0547-2.8203-10.723l85.793-148.45c2.2578-3.668 7.0547-5.0781 10.723-2.8203 3.668 2.2578 5.0781 7.0547 2.8203 10.723l-85.793 148.45c-1.6953 2.5391-4.2344 3.9492-6.7734 3.9492z"/>
  <path d="m783.44 578.55c-4.2344 0-7.9023-3.3867-7.9023-7.9023v-171.31c0-4.2344 3.3867-7.9023 7.9023-7.9023s7.9023 3.3867 7.9023 7.9023v171.31c0 4.5156-3.668 7.9023-7.9023 7.9023z"/>
  <path d="m350.52 681.28c-1.4102 0-2.5391-0.28125-3.9492-1.1289-3.668-2.2578-5.0781-7.0547-2.8203-10.723l46.848-81.281c2.2578-3.668 7.0547-5.0781 10.723-2.8203 3.668 2.2578 5.0781 7.0547 2.8203 10.723l-46.848 81.277c-1.4102 2.5391-3.9492 3.9531-6.7734 3.9531z"/>
  <path d="m305.08 681.28c-2.8203 0-5.3633-1.4102-6.7734-3.9492l-46.848-81.281c-2.2578-3.668-0.84766-8.4648 2.8203-10.723 3.668-2.2578 8.4648-0.84766 10.723 2.8203l46.848 81.281c2.2578 3.668 0.84766 8.4648-2.8203 10.723-1.4062 0.84375-2.8203 1.1289-3.9492 1.1289z"/>
  <path d="m288.15 697.93c-1.4102 0-2.5391-0.28125-3.9492-1.1289l-81-46.848c-3.668-2.2578-5.0781-7.0547-2.8203-10.723 2.2578-3.668 7.0547-5.0781 10.723-2.8203l81.281 46.848c3.668 2.2578 5.0781 7.0547 2.8203 10.723-1.6953 2.5391-4.2344 3.9492-7.0547 3.9492z"/>
  <path d="m282.22 720.79h-93.695c-4.2344 0-7.9023-3.3867-7.9023-7.9023s3.3867-7.9023 7.9023-7.9023h93.695c4.2344 0 7.9023 3.3867 7.9023 7.9023s-3.668 7.9023-7.9023 7.9023z"/>
  <path d="m207.15 790.5c-4.2344 0-7.9023-3.3867-7.9023-7.9023 0-3.3867 1.9766-5.9258 4.7969-7.3359l80.434-46.566c3.668-2.2578 8.4648-0.84766 10.723 2.8203 2.2578 3.668 0.84766 8.4648-2.8203 10.723l-80.996 46.848c-1.4102 0.84766-2.8203 1.4141-4.2344 1.4141z"/>
  <path d="m327.66 860.21c-4.2344 0-7.9023-3.3867-7.9023-7.9023v-93.695c0-4.2344 3.3867-7.9023 7.9023-7.9023s7.9023 3.3867 7.9023 7.9023v93.695c0 4.2344-3.3867 7.9023-7.9023 7.9023z"/>
  <path d="m257.95 841.58c-1.4102 0-2.5391-0.28125-3.9492-1.1289-3.668-2.2578-5.0781-7.0547-2.8203-10.723l46.848-80.996c2.2578-3.668 7.0547-5.0781 10.723-2.8203 3.668 2.2578 5.0781 7.0547 2.8203 10.723l-46.848 80.996c-1.4102 2.5352-3.9531 3.9492-6.7734 3.9492z"/>
  <path d="m327.66 860.21c-4.2344 0-7.9023-3.3867-7.9023-7.9023v-93.695c0-4.2344 3.3867-7.9023 7.9023-7.9023s7.9023 3.3867 7.9023 7.9023v93.695c0 4.2344-3.3867 7.9023-7.9023 7.9023z"/>
  <path d="m397.37 841.58c-2.8203 0-5.3633-1.4102-6.7734-3.9492l-46.852-81.281c-2.2578-3.668-0.84766-8.4648 2.8203-10.723 3.668-2.2578 8.4648-0.84766 10.723 2.8203l46.848 80.996c2.2578 3.668 0.84766 8.4648-2.8203 10.723-1.125 0.84766-2.5352 1.4141-3.9453 1.4141z"/>
  <path d="m467.07 720.79h-93.695c-4.2344 0-7.9023-3.3867-7.9023-7.9023s3.3867-7.9023 7.9023-7.9023h93.695c4.2344 0 7.9023 3.3867 7.9023 7.9023s-3.3867 7.9023-7.9023 7.9023z"/>
  <path d="m367.45 697.93c-2.8203 0-5.3633-1.4102-6.7734-3.9492-2.2578-3.668-0.84766-8.4648 2.8203-10.723l80.996-46.848c3.668-2.2578 8.4648-0.84766 10.723 2.8203 2.2578 3.668 0.84766 8.4648-2.8203 10.723l-80.996 46.848c-1.4062 0.84766-2.5352 1.1289-3.9492 1.1289z"/>
  <path d="m448.45 790.5c-1.4102 0-2.5391-0.28125-3.9492-1.1289l-80.996-46.848c-3.668-2.2578-5.0781-7.0547-2.8203-10.723 2.2578-3.668 7.0547-5.0781 10.723-2.8203l80.996 46.848c3.668 2.2578 5.0781 7.0547 2.8203 10.723-1.4141 2.5352-3.9531 3.9492-6.7734 3.9492z"/>
  <path d="m327.66 675.07c-4.2344 0-7.9023-3.3867-7.9023-7.9023v-182.6c0-4.2344 3.3867-7.9023 7.9023-7.9023s7.9023 3.3867 7.9023 7.9023v182.6c0 4.5156-3.3867 7.9023-7.9023 7.9023z"/>
  <path d="m514.49 600.56c-19.754 0-27.941-0.28125-30.762-0.5625-6.207-0.84766-11.57-2.2578-16.652-4.5156-8.75-4.2344-16.934-11.008-24.836-17.215-5.6445-4.5156-11.289-9.0312-16.367-12.137-28.785-19.191-63.5-29.633-98.211-29.633-4.2344 0-7.9023-3.3867-7.9023-7.9023 0-4.2344 3.3867-7.9023 7.9023-7.9023 37.816 0 75.637 11.57 106.68 32.172 5.6445 3.668 11.852 8.4648 17.781 13.266 7.3359 5.9258 14.676 11.852 21.73 15.238 3.1055 1.4102 7.0547 2.5391 11.57 3.1055h0.5625c3.9492 0.5625 36.125 0.28125 53.34 0.28125h18.625c4.2344 0 7.6211 3.668 7.6211 7.9023s-3.668 7.9023-7.9023 7.6211h-18.062c-9.8789 0.28125-18.344 0.28125-25.117 0.28125z"/>
  <path d="m784.29 863.31c-69.992 0-139.42-31.043-184.86-88.051-37.254-45.719-55.316-104.14-51.082-164.25 4.2344-60.113 30.48-115.43 73.66-155.5 3.1055-2.8203 8.1836-2.8203 11.008 0.28125 2.8203 3.1055 2.8203 8.1836-0.28125 11.008-82.691 76.766-92.285 210.82-20.883 298.59 65.758 82.41 184.29 106.4 276.29 55.879 90.027-47.414 136.03-156.63 107.53-254.28-30.762-109.5-145.91-179.21-256.82-155.22-4.2344 0.84766-8.4648-1.6914-9.3125-5.9258-0.84766-4.2344 1.6914-8.4648 5.9258-9.3125 57.855-12.418 118.25-2.2578 170.18 29.07 51.645 31.328 88.898 79.867 104.98 137.16 30.762 104.42-18.91 221.54-115.14 272.34-34.719 19.188-73.098 28.219-111.2 28.219z"/>
  <path d="m601.41 469.05c-4.2344 0-7.9023-3.3867-7.9023-7.9023v-28.504c0-4.2344 3.3867-7.9023 7.9023-7.9023h131.23c4.2344 0 7.9023 3.3867 7.9023 7.9023s-3.3867 7.9023-7.9023 7.9023h-123.61v20.883c0.003906 4.2344-3.3828 7.6211-7.6172 7.6211z"/>
  <path d="m607.34 440.55c-2.8203 0-5.3633-1.4102-6.7734-3.9492-8.75-15.805-9.0312-39.23 7.3359-51.645 5.6445-4.2344 12.98-6.4922 22.578-7.0547h0.28125c14.676-0.28125 26.812 1.1289 38.664 2.5391 22.859 2.5391 42.898 4.7969 70.273-6.7734 3.9492-1.6914 8.4648 0 10.16 3.9492 1.6914 3.9492 0 8.4648-4.2344 10.16-31.328 13.547-54.188 10.723-78.176 8.1836-11.289-1.4102-23.141-2.5391-36.688-2.5391-6.207 0.28125-10.723 1.6914-13.828 3.9492-9.0312 6.7734-8.4648 21.449-3.1055 31.609 1.9766 3.668 0.5625 8.4648-3.1055 10.723-0.83984 0.5625-1.9688 0.84766-3.3828 0.84766z"/>
  <path d="m731.23 469.05c-4.2344 0-7.9023-3.3867-7.9023-7.6211-0.28125-37.535 7.3359-75.918 21.449-110.91 1.6914-3.9492 6.207-5.9258 10.16-4.2344 3.9492 1.6914 5.9258 6.207 4.2344 10.16-13.547 33.301-20.602 69.426-20.32 104.98 0.28125 4.2383-3.1055 7.625-7.6211 7.625z"/>
  <path d="m731.23 469.05h-130.1c-4.2344 0-7.9023-3.3867-7.9023-7.9023 0-4.5156 3.3867-7.9023 7.9023-7.9023h130.1c4.2344 0 7.9023 3.3867 7.9023 7.9023 0 4.5156-3.668 7.9023-7.9023 7.9023z"/>
  <path d="m783.73 692c-7.9023 0-16.086-1.4102-23.988-4.5156-20.883-8.1836-35.559-25.965-39.793-47.977-4.5156-24.836 5.0781-49.387 25.398-64.062s46.566-16.652 68.863-4.7969c19.473 10.441 32.172 30.199 33.586 52.492 1.4102 22.297-8.1836 43.461-26.246 56.445-11.293 8.1797-24.273 12.414-37.82 12.414zm-0.28516-113.45c-10.16 0-20.039 3.1055-28.785 9.5938-15.523 11.289-22.859 29.633-19.191 48.543 3.1055 16.367 14.395 29.914 30.199 36.125 15.805 6.207 33.301 3.9492 46.848-5.9258 13.547-9.8789 20.883-25.965 19.754-42.898-1.1289-16.934-10.723-31.891-25.398-39.793-7.6211-3.668-15.523-5.6445-23.426-5.6445z"/>
  <path d="m531.14 352.21h-33.301c-4.2344 0-7.9023-3.3867-7.9023-7.9023s3.3867-7.9023 7.9023-7.9023h33.301c4.2344 0 7.9023 3.3867 7.9023 7.9023s-3.3867 7.9023-7.9023 7.9023z"/>
  <path d="m498.12 352.21h-33.301c-4.2344 0-7.9023-3.3867-7.9023-7.9023s3.3867-7.9023 7.9023-7.9023h33.301c4.2344 0 7.9023 3.3867 7.9023 7.9023s-3.668 7.9023-7.9023 7.9023z"/>
  <path d="m498.12 600.56c-4.2344 0-7.9023-3.3867-7.9023-7.9023v-248.36c0-4.2344 3.3867-7.9023 7.9023-7.9023 4.5156 0 7.9023 3.3867 7.9023 7.9023v248.36c0 4.2344-3.668 7.9023-7.9023 7.9023z"/>
  <path d="m328.79 860.21c-51.645 0-102.73-27.656-128.41-73.66-22.578-38.664-25.965-84.949-9.5938-127 16.367-42.051 50.234-73.66 92.852-86.922 42.898-13.547 89.18-6.7734 126.72 18.91 37.535 25.684 60.961 66.32 63.781 111.2 5.3633 67.734-40.074 132.64-105.27 151.55-12.703 3.9492-26.531 5.9258-40.078 5.9258zm-0.84375-278.83c-13.266 0-26.527 1.9766-39.512 6.207-38.102 11.852-68.578 40.074-83.254 77.609s-11.57 79.023 8.4648 113.73c29.07 51.93 93.98 77.895 150.99 60.395 58.418-16.652 98.777-74.789 93.98-135.18-2.5391-40.359-23.426-76.48-57.008-99.34-22.016-15.805-47.699-23.422-73.66-23.422zm-0.56641 184.85c-11.008 0-21.73-3.3867-30.762-9.8789-13.828-9.5938-22.297-25.965-22.297-43.18 0-17.496 8.4648-33.867 22.578-44.027 12.137-8.75 27.656-11.852 42.332-8.4648 14.676 3.1055 27.375 12.418 34.996 25.398 5.0781 8.75 7.6211 19.191 7.0547 28.785 0 8.4648-2.5391 17.215-7.0547 24.836-7.3359 12.98-20.32 22.297-35.277 25.398-3.9492 0.85156-7.6172 1.1328-11.57 1.1328zm0.28125-91.156c-7.6211 0-15.238 2.2578-21.73 7.0547-10.16 7.0547-16.086 18.625-16.086 31.043s5.9258 23.707 15.805 30.48c8.4648 6.207 19.191 8.4648 29.633 6.207 10.723-2.2578 20.039-8.75 25.117-18.062 3.1055-5.3633 4.7969-11.57 4.7969-17.215v-0.5625c0.5625-6.7734-1.4102-13.828-4.7969-20.039-5.3633-9.0312-14.395-15.805-24.836-18.062-2.5391-0.5625-5.0781-0.84375-7.9023-0.84375z"/>
 </g>
</svg>
