<?xml version="1.0" encoding="UTF-8"?>
<svg width="1200pt" height="1200pt" version="1.1" viewBox="0 0 1200 1200" xmlns="http://www.w3.org/2000/svg">
 <path d="m762.79 360.42c5.3906-19.547 15.797-36.984 29.719-50.906l-0.046875-0.046875c16.406-16.406 37.781-27.891 61.734-32.109l63.047-87-8.2031-8.2031-197.21 144.71-14.203 41.109c13.734-6.5625 28.641-9.8438 43.547-9.8438 7.2656-0.046875 14.484 0.75 21.609 2.2969zm-262.82 62.297c5.8594-7.1719 13.453-12.422 21.891-15.422 8.4375-3.0469 17.672-3.8438 26.719-2.1094l0.65625 0.14062c8.8125 1.8281 16.781 6 23.297 11.812 6.3281 5.6719 11.25 12.938 14.062 21.141l64.078-25.828 34.172-98.953c0.84375-3.1406 2.7656-6.0469 5.5781-8.1094l210.56-154.36c5.9062-4.9219 14.672-4.6406 20.203 0.89062l26.297 26.297c5.1094 5.1094 5.9062 13.359 1.5469 19.406l-74.297 102.47c-2.3906 3.2812-6.0938 5.5781-10.406 6.0938-19.688 2.2969-37.359 11.25-50.672 24.562h-0.046875c-10.922 10.922-18.938 24.844-22.688 40.453 6.6562 3.7969 13.031 8.3906 18.844 13.875l5.5312 5.5312 0.1875 0.23438 0.23438 0.23438 0.375 0.46875 0.23438 0.23438 6.9375 8.6719 0.1875 0.28125 0.1875 0.23438 0.375 0.5625 0.1875 0.23438 0.75 1.125c1.4062 2.0625 2.7188 4.1719 3.8906 6.2812 15.656-3.75 29.578-11.766 40.547-22.688v-0.046875c13.312-13.312 22.266-30.984 24.562-50.672 0.51562-4.3594 2.8125-8.0156 6.0938-10.406l102.47-74.297c6.0469-4.4062 14.297-3.6094 19.406 1.5469l26.297 26.297c5.5312 5.5312 5.8594 14.344 0.89062 20.203l-154.55 210.47c-2.0625 2.8594-4.9688 4.7344-8.1094 5.5781l-98.953 34.172-25.828 64.031c8.2031 2.8594 15.469 7.7344 21.141 14.109 5.8125 6.5156 9.9844 14.484 11.812 23.297l0.14062 0.65625c1.7812 9.0469 0.9375 18.234-2.1094 26.719-3.0469 8.4375-8.2969 16.031-15.422 21.891-0.60938 0.46875-1.2188 0.89062-1.875 1.2656-13.594 8.1094-26.25 7.1719-39.375 6.1875-14.766-1.125-30.469-2.2969-45.141 24.984-25.922 69.141-64.172 134.9-113.25 190.78-46.219 52.641-102 96.516-166.13 126.28-0.70312 0.28125-1.3594 0.5625-2.1094 0.75-11.719 3.4219-23.859 2.6719-34.594-1.5469-10.781-4.2188-20.203-11.906-26.531-22.406-6.2812-10.453-8.6719-22.406-7.3125-33.844 1.3125-11.297 6.2344-22.219 14.484-30.891 0.79688-0.89062 1.6875-1.6875 2.7188-2.3906 68.719-47.156 113.77-91.688 150.28-143.11 36.656-51.656 65.203-111.05 100.55-187.22 4.2188-10.969 9.8438-20.203 16.875-27.703 7.4531-7.9688 16.266-13.781 26.391-17.391v0.046875c2.625-0.9375 5.5312-1.1719 8.4375-0.46875l18.469-45.328c-1.7812-1.4062-3.5156-2.8594-5.2031-4.4062l-0.14062-0.14062-1.4062-1.2656-0.14063-0.14062-0.42187-0.375-1.875-1.875c-2.8594-2.8594-5.5312-5.9062-8.0156-9.0938l-45.328 18.469c0.70312 2.9062 0.46875 5.8125-0.46875 8.4375h0.046874c-3.6094 10.125-9.4219 18.891-17.391 26.391-7.5 6.9844-16.734 12.656-27.703 16.875-76.172 35.297-135.56 63.844-187.22 100.55-51.422 36.469-95.953 81.516-143.11 150.28-0.70312 1.0312-1.5 1.9219-2.3906 2.7188-8.6719 8.2969-19.594 13.172-30.891 14.484-11.484 1.3594-23.391-1.0312-33.844-7.3125-10.5-6.2812-18.234-15.75-22.406-26.531-4.2188-10.734-4.9688-22.922-1.5469-34.594 0.23438-0.75 0.46875-1.4062 0.79688-2.1094 29.719-64.125 73.641-119.95 126.28-166.18 55.875-49.078 121.64-87.328 190.78-113.25 27.281-14.672 26.109-30.422 24.984-45.141-0.98438-13.125-1.9219-25.781 6.1406-39.375 0.42188-0.51562 0.84375-1.125 1.3125-1.7344zm95.859 44.156 72.703-29.344c3.8906-1.5469 6.75-4.5469 8.25-8.1094 1.6875-3.7031 3.7031-7.3125 6.0938-10.781 2.2969-3.3281 5.0625-6.6562 8.2969-9.8438 13.781-13.781 31.922-20.719 50.016-20.719 17.484 0 34.922 6.4219 48.562 19.266l0.14062 0.14062 0.65625 0.60938 0.60938 0.60938c3.4219 3.4219 6.375 6.9844 8.8125 10.641 2.4844 3.6562 4.5938 7.5938 6.3281 11.719 0.51562 1.3125 1.2188 2.5312 2.0156 3.6562l0.28125 0.42188 0.14062 0.14062 0.09375 0.14062 0.14062 0.14062 0.09375 0.14062 0.14062 0.14062 0.09375 0.14062 0.9375 0.9375 0.1875 0.14062 0.09375 0.09375 0.1875 0.14062 0.09375 0.09375 0.1875 0.14062 0.09375 0.09375 0.1875 0.14062 0.09375 0.09375 0.1875 0.14062 0.60938 0.42188 0.09375 0.046875 0.1875 0.14062c1.9219 1.1719 4.125 1.875 6.4688 2.0625h2.25l0.28125-0.046875h0.046875l0.32812-0.046875h0.046875l0.375-0.046875c26.484-3.1875 50.156-15.234 68.062-33.094l0.046875 0.046875c16.406-16.406 27.891-37.781 32.109-61.734l87-63.094 8.2031 8.2031-144.52 197.29-98.438 33.984c-2.2031 0.23438-4.3594 0.98438-6.2344 2.1562l-3.7031 1.2656h-0.09375l-0.046875 0.046875h-0.14062l-0.09375 0.046875c-12.562 4.3594-26.156 5.0156-39.094 2.0625-6.7969-1.5469-13.453-4.125-19.641-7.7344l-0.09375-0.046875c-0.28125-0.1875-0.51562-0.32812-0.84375-0.51562l-1.1719-0.70312-0.09375-0.09375h-0.046875l-0.09375-0.046875-0.09375-0.09375-0.09375-0.046875-0.09375-0.09375-0.09375-0.046875-0.09375-0.09375-0.09375-0.046875-0.09375-0.09375-0.09375-0.046875-0.046875-0.046875c-2.0625-1.3594-4.0312-2.8125-6-4.4062l-0.09375-0.046875c-0.51562-0.46875-1.0781-0.89062-1.5938-1.3594l-0.09375-0.09375-0.23438-0.1875-0.46875-0.42188h-0.046875l-0.32812-0.28125-0.65625-0.65625-0.23438-0.1875-1.2188-1.2188-0.28125-0.14062-3.7969-3.7969-0.1875-0.23438-0.28125-0.28125-0.28125-0.32812c-0.51562-0.60938-0.98438-1.2188-1.4531-1.7812l-0.23438-0.28125-0.14062-0.14062-0.046875-0.09375-0.046875-0.046875-0.046875-0.09375v-0.046875l-0.1875-0.375-0.28125-0.28125-0.046875-0.09375-0.14062-0.1875v-0.046875l-0.28125-0.28125-0.046875-0.375-0.28125-0.28125-0.046875-0.09375v-0.046875l-0.046875-0.09375-0.046875-0.046875-0.1875-0.375-0.1875-0.1875-0.09375-0.1875-0.09375-0.09375-0.046875-0.09375v-0.046875l-0.046875-0.09375-0.5625-0.5625-0.046875-0.09375-0.046875-0.046875-0.046875-0.09375-0.046875-0.046875-0.046875-0.09375v-0.046875l-0.046875-0.09375v-0.046875l-0.1875-0.375-0.09375-0.09375-0.09375-0.1875v-0.046875l-0.046875-0.09375v-0.046875l-0.046875-0.09375v-0.046875l-0.046875-0.09375v-0.046875l-0.046875-0.09375-0.375-0.375-0.046875-0.09375-0.046875-0.046875-0.046875-0.09375-0.046875-0.046875-0.046875-0.09375v-0.046875l-0.046875-0.09375v-0.046875l-0.046875-0.09375c-3.6094-6.5156-11.625-9.4688-18.703-6.6094l-53.109 21.656c-1.7812-6.2344-3.5625-12.516-5.4375-18.844-2.4375-8.1562-4.9219-16.312-7.5-24.516zm-63.844-31.453c-3.0469 1.0781-5.8594 2.9531-8.1562 5.4375-2.5781 5.3438-2.0156 12.984-1.4062 20.906 1.8281 24.281 3.7969 50.25-41.578 74.203l-1.7812 0.75c-66.234 24.703-129.24 61.266-182.68 108.14-49.266 43.266-90.375 95.391-118.31 155.21-1.1719 4.8281-0.75 9.8438 0.98438 14.297 1.875 4.7812 5.2969 8.9531 9.8906 11.719 4.6406 2.7656 9.9375 3.8438 15.094 3.2344 4.6875-0.51562 9.1875-2.4844 12.891-5.7188 49.031-71.156 95.578-118.08 149.53-156.37 53.953-38.297 114.61-67.453 192.37-103.5l0.98437-0.42187c7.6875-2.9062 13.828-6.5625 18.516-10.922 3.3281-3.0938 5.9531-6.7031 7.9219-10.828-3.4219-13.031-7.3125-26.953-11.719-41.812-4.6406-15.703-9.9844-32.672-16.031-50.953l-0.046874-0.23437c-1.125-3.6562-3.1875-6.7969-5.8594-9.1875-2.5781-2.2969-5.7656-3.9844-9.3281-4.7344l-0.46875-0.09375c-3.7031-0.60937-7.4531-0.32812-10.828 0.89063zm219.37 123.56c-10.922 1.125-22.031 0.42188-32.766-2.0156-4.4531-1.0312-8.8594-2.3438-13.219-3.9844l-15.609 38.25c6.2344 1.7812 12.516 3.5625 18.844 5.4375 8.1562 2.3906 16.312 4.9219 24.516 7.4531zm21.562-131.9h-0.046875c-8.7656-8.7656-20.203-13.125-31.641-13.125-11.016 0-22.078 4.0781-30.703 12.234l-0.98438 0.89062v0.046875c-8.7656 8.7656-13.125 20.203-13.125 31.641 0 11.016 4.0781 22.078 12.234 30.703l0.89062 0.98438h0.046875c8.7656 8.7656 20.203 13.125 31.641 13.125 11.016 0 22.078-4.0781 30.703-12.234l0.98438-0.89062v-0.046875c8.7656-8.7656 13.125-20.203 13.125-31.641 0-11.016-4.0781-22.078-12.234-30.703zm-21.234 21.234v-0.046875c-2.9062-2.8594-6.7031-4.3125-10.547-4.3125-3.6094 0-7.1719 1.2656-9.9844 3.7969l-0.51562 0.51562h-0.046875c-2.8594 2.9062-4.3125 6.7031-4.3125 10.547 0 3.6094 1.2656 7.1719 3.7969 9.9844l0.51562 0.51562v0.046875c2.9062 2.8594 6.7031 4.3125 10.547 4.3125 3.6094 0 7.1719-1.2656 9.9844-3.7969l0.51562-0.5625h0.046875c2.8594-2.9062 4.3125-6.7031 4.3125-10.547 0-3.6094-1.2656-7.1719-3.7969-9.9844zm7.4531 227.86c2.4844-2.2969 4.3594-5.1094 5.4375-8.1562 1.2188-3.375 1.5469-7.125 0.79688-10.875l-0.09375-0.42188c-0.75-3.5625-2.4375-6.75-4.7344-9.3281-2.3906-2.6719-5.5312-4.7344-9.1875-5.8594l-0.23438-0.09375c-18.281-6-35.25-11.391-50.953-16.031-14.859-4.4062-28.828-8.3438-41.812-11.719-4.0781 1.9688-7.6875 4.6406-10.781 7.9688-4.3594 4.6406-8.0156 10.828-10.922 18.516l-0.42188 0.98438c-36.047 77.766-65.203 138.42-103.45 192.37-38.297 53.953-85.219 100.55-156.37 149.53-3.2344 3.7031-5.1562 8.2031-5.7188 12.891-0.60938 5.1562 0.46875 10.453 3.2344 15.094 2.7656 4.5938 6.9375 8.0156 11.719 9.8906 4.4531 1.7344 9.4219 2.1562 14.297 0.98438 59.812-27.938 111.94-69.047 155.21-118.31 46.922-53.438 83.484-116.44 108.14-182.68 0.23438-0.60938 0.46875-1.1719 0.79688-1.7344 23.906-45.328 49.875-43.406 74.156-41.578 7.9219 0.5625 15.562 1.125 20.906-1.4531z" fill-rule="evenodd"/>
</svg>
