<?xml version="1.0" encoding="UTF-8"?>
<svg width="1200pt" height="1200pt" version="1.1" viewBox="0 0 1200 1200" xmlns="http://www.w3.org/2000/svg">
 <path d="m829.74 287.76 206.02 184.74c4.3594 3.8906 9.9844 5.8594 15.75 5.4844 5.8594-0.375 11.25-2.8594 15.141-7.2656l39.891-44.484c8.0156-9 7.2656-22.875-1.6406-30.891l-269.02-241.36c-4.3594-3.8906-9.9844-5.8594-15.75-5.625-5.8594 0.375-11.25 2.8594-15.141 7.2656l-238.36 265.74-15.234-23.484c-5.25-8.0156-13.734-13.125-23.25-13.875-9.5156-0.75-18.75 2.8594-25.125 9.9844l-71.25 79.359-54.984 61.266-53.625 59.766c-11.25 12.516-10.266 31.875 2.3906 43.125l26.109 23.391-257.86 287.48c-3.8906 4.3594-5.8594 9.9844-5.625 15.75 0.375 5.8594 2.8594 11.25 7.2656 15.141l44.484 39.891c4.125 3.75 9.375 5.625 14.625 5.625 6 0 12-2.4844 16.266-7.2656l258-287.48 36.141 32.484-177.89 198.24c-3.8906 4.3594-5.8594 9.9844-5.625 15.75 0.375 5.8594 2.8594 11.25 7.2656 15.141l44.484 39.891c4.125 3.75 9.375 5.625 14.625 5.625 6 0 12-2.4844 16.266-7.2656l177.89-198.24 34.875 31.359-100.36 111.89c-3.8906 4.3594-5.8594 9.9844-5.625 15.75 0.375 5.8594 2.8594 11.25 7.2656 15.141l44.484 39.891c3.9844 3.6094 9.2344 5.625 14.625 5.625h1.2656c5.8594-0.375 11.25-2.8594 15.141-7.2656l100.36-111.89 26.016 23.391c5.625 5.1094 12.891 7.7344 20.391 7.7344h1.7344c8.1094-0.51562 15.609-3.9844 21.141-10.125l93.75-104.48c9.1406-10.266 10.359-25.5 2.8594-36.984l-24.234-37.359 65.25-72.891c1.125-1.2656 3.1406-1.3594 4.3594-0.23437l78.891 70.734c4.3594 3.8906 9.9844 5.8594 15.75 5.625 5.8594-0.23437 11.25-2.8594 15.141-7.2656l39.891-44.484c8.0156-9 7.2656-22.875-1.6406-30.891l-141.89-127.36c-9-8.0156-22.875-7.2656-30.891 1.6406l-103.27 114.98-26.484-40.734 133.36-148.64c0.75-0.89062 1.6406-0.98437 2.1094-0.98437 0.375 0 1.3594 0 2.25 0.75l142.13 127.5c4.3594 3.8906 9.9844 5.8594 15.75 5.4844 5.8594-0.375 11.25-2.8594 15.141-7.2656l39.891-44.484c8.0156-9 7.2656-22.875-1.6406-30.891l-205.13-184.13c-4.3594-3.8906-9.9844-5.8594-15.75-5.4844-5.8594 0.375-11.25 2.8594-15.141 7.2656l-171.24 190.87-27.375-42.234 200.48-223.5c1.125-1.2656 3.1406-1.3594 4.3594-0.23438zm-390.37 205.36 91.125 81.75c6.375 5.625 9.9844 13.5 10.5 21.984 0.51562 8.4844-2.3906 16.641-8.1094 23.016-11.766 12.984-31.875 14.109-44.859 2.4844l-91.125-81.75 42.516-47.391zm-282.74 512.26c-1.125 1.2656-3.1406 1.3594-4.3594 0.23438l-44.484-39.891c-0.89062-0.75-0.98438-1.6406-0.98438-2.1094 0-0.51562 0-1.3594 0.75-2.25l258-287.48 49.125 44.109-258 287.48zm193.26 12.234c-1.125 1.2656-3.1406 1.3594-4.3594 0.23438l-44.484-39.891c-0.89062-0.75-0.98438-1.6406-0.98438-2.1094 0-0.51562 0-1.3594 0.75-2.25l177.89-198.24 49.125 44.016-177.89 198.24zm189.52 14.016c-0.75 0.89062-1.6406 0.98438-2.1094 0.98438-0.51562 0-1.3594 0-2.25-0.75l-44.484-39.891c-0.89062-0.75-0.98438-1.6406-0.98438-2.1094 0-0.51562 0-1.3594 0.75-2.25l100.36-111.89 49.125 44.109-100.36 111.89zm314.72-449.63c1.125-1.2656 3.1406-1.3594 4.3594-0.23438l141.89 127.36c1.2656 1.125 1.3594 3.1406 0.23438 4.3594l-39.891 44.484c-0.75 0.89062-1.7344 0.98437-2.1094 0.98437-0.51562 0-1.3594 0-2.25-0.75l-78.891-70.734c-9-8.0156-22.875-7.2656-30.891 1.6406l-61.875 69-37.266-57.375 106.64-118.73zm-16.734-206.63c0.75-0.89063 1.6406-0.98438 2.1094-0.98438 0.375 0 1.3594 0 2.25 0.75l205.13 184.13c1.2656 1.125 1.3594 3.1406 0.23438 4.3594l-39.891 44.484c-0.75 0.89062-1.6406 0.98438-2.1094 0.98438-0.51562 0-1.3594 0-2.25-0.75l-142.13-127.5c-4.3594-3.8906-9.9844-5.8594-15.75-5.625-5.8594 0.375-11.25 2.8594-15.141 7.2656l-129.98 144.89-37.125-57.375 174.61-194.63zm-33.609 446.63c2.8594 4.5 2.4844 10.359-1.125 14.391l-93.75 104.48c-2.1094 2.3906-5.0156 3.75-8.1094 3.8906-3.1406 0.14062-6.1406-0.89062-8.4844-3l-32.625-29.25s-0.14062-0.23438-0.23438-0.375c-0.14062 0-0.23438-0.14062-0.375-0.23438l-62.391-56.016s-0.14062-0.23438-0.23438-0.375c0 0-0.23438-0.14062-0.375-0.23438l-48.234-43.266s-0.14062-0.23438-0.23438-0.375c-0.14062-0.14062-0.23438-0.14062-0.375-0.23438l-62.391-55.875s-0.14062-0.23438-0.23438-0.375c-0.14062 0-0.23438-0.14062-0.51562-0.23438l-49.359-44.25s-0.14062-0.23438-0.375-0.375c-0.14062 0-0.23438-0.14062-0.51562-0.23438l-62.391-55.875s-0.14062-0.23438-0.23438-0.375c-0.14062 0-0.23438-0.14062-0.375-0.23438l-32.766-29.391c-4.875-4.3594-5.25-11.859-0.89062-16.641l47.391-52.734 91.125 81.75c9.6094 8.625 21.75 12.891 33.75 12.891 13.875 0 27.75-5.625 37.641-16.734 9-9.9844 13.641-23.016 12.891-36.516s-6.6094-25.875-16.734-34.875l-91.125-81.75 65.016-72.375c2.25-2.4844 5.3906-3.8906 8.7656-3.8906h0.98438c3.75 0.23438 6.9844 2.25 9 5.3906l268.26 413.86zm-189.52-326.86-37.266-57.375 241.74-269.48c0.75-0.89062 1.6406-0.98438 2.1094-0.98438 0.375 0 1.3594 0 2.25 0.75l269.02 241.36c1.2656 1.125 1.3594 3.1406 0.23438 4.3594l-39.891 44.484c-0.75 0.89062-1.6406 0.98438-2.1094 0.98438-0.51562 0-1.3594 0-2.25-0.75l-206.02-184.74c-9-8.0156-22.875-7.2656-30.891 1.6406l-197.11 219.74z"/>
</svg>
