<?xml version="1.0" encoding="UTF-8"?>
<svg width="1200pt" height="1200pt" version="1.1" viewBox="0 0 1200 1200" xmlns="http://www.w3.org/2000/svg">
 <path d="m1143.7 714.05h-40.781c-33.422-97.219-126.37-164.34-230.02-164.34-21.656 0-42.797 3.0469-63.094 8.5312l-106.5-361.6c-5.8594-19.875-24.375-33.75-45.094-33.75h-261.84c-24.281 0-44.812 18.938-46.875 43.125l-21.141 255.05c-0.09375 0.9375-0.79688 1.6406-1.6875 1.7344l-61.641 6.8438v-113.39c0-29.953-24.469-54.328-54.516-54.328h-7.0781c-7.7812 0-14.062 6.2812-14.062 14.062s6.2812 14.062 14.062 14.062h7.0781c14.531 0 26.391 11.766 26.391 26.203v116.53l-161.63 17.953c-18.938 2.1094-33.188 18.047-33.188 37.078v303.1c0 17.578 12 32.531 29.109 36.422l56.109 12.609c14.297 88.922 91.406 157.13 184.26 157.13 95.344 0 174.05-71.812 185.34-164.11h145.74c33.422 97.125 126.47 164.16 230.21 164.16 103.73 0 196.6-67.031 230.02-164.16h40.781c7.7812 0 14.062-6.2812 14.062-14.062v-130.78c0-7.7812-6.2812-14.062-14.062-14.062zm-70.594 0h-400.6c32.062-81.047 111.89-136.22 200.39-136.22s168.14 55.172 200.21 136.22zm-995.68 125.81c-4.2188-0.9375-7.1719-4.6406-7.1719-9v-303.1c0-4.6875 3.5156-8.625 8.1562-9.0938l251.39-27.891c14.25-1.5938 25.453-13.125 26.625-27.375l21.141-255.05c0.79688-9.7031 9.0938-17.344 18.797-17.344h261.84c8.3438 0 15.75 5.5781 18.141 13.547l106.78 362.63c-64.781 25.922-117.09 78.984-140.44 146.81h-203.48c-33.422-31.359-78.281-50.719-127.6-50.719-103.03 0-186.89 83.812-186.89 186.89v0.32812l-47.344-10.641zm234.24 169.08c-87.516 0-158.76-71.203-158.76-158.76s71.203-158.76 158.76-158.76c87.562 0 158.76 71.203 158.76 158.76s-71.203 158.76-158.76 158.76zm561.28 0.046875c-88.5 0-168.28-55.078-200.34-136.03h400.55c-32.062 80.953-111.8 136.03-200.21 136.03zm256.69-164.16h-631.36c-1.0781-38.203-13.641-73.5-34.406-102.66h665.76z"/>
 <path d="m311.72 770.21c-44.109 0-79.969 35.906-79.969 79.969 0 44.109 35.906 79.969 79.969 79.969 44.109 0 79.969-35.906 79.969-79.969 0-44.109-35.906-79.969-79.969-79.969zm0 131.86c-28.594 0-51.844-23.25-51.844-51.844s23.25-51.844 51.844-51.844 51.844 23.25 51.844 51.844-23.25 51.844-51.844 51.844z"/>
 <path d="m877.6 779.34h-9.4688c-7.7812 0-14.062 6.2812-14.062 14.062s6.2812 14.062 14.062 14.062h9.4688c7.7812 0 14.062-6.2812 14.062-14.062s-6.2812-14.062-14.062-14.062z"/>
 <path d="m417.94 494.81h83.156l26.484 44.344c2.5312 4.2656 7.125 6.8438 12.094 6.8438h167.81c4.4062 0 8.625-2.0625 11.25-5.625 2.6719-3.5625 3.4688-8.1562 2.25-12.375l-81.75-278.26c-1.7812-6-7.2656-10.125-13.5-10.125h-189c-7.3125 0-13.406 5.625-14.016 12.891l-18.75 227.06c-0.32812 3.8906 1.0312 7.7812 3.6562 10.688 2.6719 2.9062 6.4219 4.5469 10.359 4.5469zm31.688-227.06h165.52l73.5 250.13h-141.05l-26.484-44.344c-2.5312-4.2656-7.125-6.8438-12.094-6.8438h-75.844l16.406-198.94z"/>
 <path d="m311.72 577.82h19.547c7.7812 0 14.062-6.2812 14.062-14.062s-6.2812-14.062-14.062-14.062h-19.547c-7.7812 0-14.062 6.2812-14.062 14.062s6.2812 14.062 14.062 14.062z"/>
</svg>
