<?xml version="1.0" encoding="UTF-8"?>
<svg width="1200pt" height="1200pt" version="1.1" viewBox="0 0 1200 1200" xmlns="http://www.w3.org/2000/svg">
 <path d="m1023.8 374.06-68.531 20.859 52.688-48.844c-38.953-62.203-91.594-114.7-153.94-153.47l-48.844 52.078 20.625-68.391c-64.641-34.641-136.36-53.906-209.63-56.297l-16.219 69.703-16.219-69.703c-73.266 2.3906-144.98 21.656-209.63 56.297l20.625 68.391-48.844-52.078c-62.109 38.812-114.56 91.312-153.32 153.47l52.078 48.844-68.531-20.859c-34.594 64.594-53.812 136.36-56.156 209.63l69.703 16.312-69.703 16.312c2.2969 73.266 21.469 145.03 56.062 209.63l68.531-20.859-52.078 48.844h-0.046874c38.766 62.391 91.266 115.08 153.47 154.08l48.844-52.078-20.625 68.391c64.688 34.406 136.4 53.484 209.63 55.688l16.219-69.703 16.219 69.703c73.266-2.3906 144.98-21.656 209.63-56.297l-20.625-68.391 48.844 52.688c62.391-38.906 115.08-91.641 153.94-154.08l-52.078-48.844 68.531 20.859c34.406-64.641 53.391-136.4 55.547-209.63l-69.703-16.312 69.703-16.312c-2.3438-73.266-21.562-145.03-56.156-209.63zm-423.84 570.79c-91.453 0-179.21-36.328-243.84-101.02-64.688-64.641-101.02-152.39-101.02-243.84s36.328-179.21 101.02-243.84c64.641-64.688 152.39-101.02 243.84-101.02s179.21 36.328 243.84 101.02c64.688 64.641 101.02 152.39 101.02 243.84-0.09375 91.453-36.422 179.11-101.11 243.74-64.641 64.688-152.29 101.02-243.74 101.11z"/>
 <path d="m642.14 459.71-10.922-177.1c-20.766-2.1094-41.672-2.1094-62.438 0l-10.922 177.14v-0.046875c27.422-8.25 56.625-8.25 84 0z"/>
 <path d="m657.37 286.22 11.391 184.45v-0.046875c12.047 6.4688 23.156 14.531 33 24l178.92-46.219v0.046875c-46.078-85.078-128.16-144.74-223.31-162.24z"/>
 <path d="m479.29 600c-0.32812 48.891 28.922 93.141 74.016 112.03 45.094 18.938 97.125 8.7656 131.81-25.688 34.641-34.453 45.094-86.438 26.484-131.68-18.656-45.188-62.719-74.672-111.61-74.672-66.375 0-120.32 53.625-120.71 120z"/>
 <path d="m746.29 596.76 165.71-65.062c-4.3594-20.578-10.781-40.688-19.219-60l-172.78 44.906c16.5 23.531 25.641 51.422 26.297 80.156z"/>
 <path d="m732 664.08 99.234 156c56.531-59.297 87.984-138.14 87.844-220.08 0-14.109-1.0312-28.266-3-42.234l-172.08 67.688c-2.1094 13.359-6.1875 26.391-12 38.625z"/>
 <path d="m648 738.14 112.69 137.06v-0.046875c18-10.594 34.969-22.875 50.625-36.703l-96-149.86v-0.046874c-17.109 22.734-40.5 39.984-67.312 49.594z"/>
 <path d="m600 746.53c-6.8438-0.046875-13.641-0.5625-20.391-1.5938l-117.61 143.06c87.281 41.766 188.72 41.766 276 0l-117.47-143.06c-6.7969 1.0312-13.641 1.5469-20.531 1.5938z"/>
 <path d="m483.61 688.55-95.391 149.9c15.656 13.828 32.625 26.109 50.625 36.703l113.16-137.02c-27.188-9.4219-51-26.672-68.391-49.594z"/>
 <path d="m456 625.45-172.08-67.688c-1.9688 13.969-3 28.125-3 42.234 0 81.984 31.641 160.82 88.312 220.08l99.234-156c-6-12.234-10.172-25.219-12.469-38.625z"/>
 <path d="m480 516.61-171.94-44.391c-8.4375 19.266-14.859 39.375-19.219 60l165.24 65.062v-0.046875c0.46875-28.828 9.4688-56.906 25.922-80.625z"/>
 <path d="m531.24 470.63 11.391-184.45v0.046875c-95.156 17.484-177.28 77.203-223.31 162.32l178.92 46.219c9.8438-9.5156 20.953-17.625 33-24.141z"/>
</svg>
