<?xml version="1.0" encoding="UTF-8"?>
<svg width="1200pt" height="1200pt" version="1.1" viewBox="0 0 1200 1200" xmlns="http://www.w3.org/2000/svg">
 <path d="m607.74 707.26c18.234 5.3438 35.484 13.594 51.047 24.469-6.4688 9.9844-14.906 18.562-24.75 25.172-14.625 9.6562-32.625 12.797-49.641 8.7188-5.1094-1.3125-9.9844-3.4688-14.391-6.4219-3.6094-2.3438-6.6562-5.4375-9.0469-9.0938-3.375-5.4375-4.3594-12.094-2.625-18.328 1.5469-6.8438 4.7344-13.266 9.2344-18.656 4.125-4.4062 9.6562-7.2188 15.609-8.0156 8.25-0.9375 16.641-0.23437 24.562 2.1562zm209.76-89.109c7.1719-1.9219 14.156-4.5469 20.812-7.8281 20.344-7.875 33.188-28.031 31.734-49.781-1.5938-17.859-13.172-33.281-29.906-39.797-10.641-3.4219-22.219-2.2969-32.062 3.0938 11.438 30.047 14.672 62.578 9.4219 94.312zm-35.719 5.6719 0.046875-0.046874c5.4844-25.312 4.6875-51.609-2.2969-76.547-17.391 17.719-38.953 30.797-62.719 38.062 1.5938 11.109 2.7188 23.109 3.375 36 20.438 2.7188 41.062 3.5625 61.641 2.4844zm-144-123.61h0.046875c-12.891-8.25-28.875-10.031-43.219-4.8281-9.2812 3.6094-15.609 9.9375-14.812 16.359 0.79688 6.9844 8.4844 15.328 26.391 23.578 21.984 11.156 45.797 18.234 70.266 20.953-5.5781-22.781-19.312-42.703-38.578-56.109zm13.828 284.76c-22.359 14.438-49.688 19.031-75.516 12.656-8.8125-2.2031-17.203-5.9531-24.75-11.016-7.3594-4.9688-13.594-11.438-18.375-18.938-8.2969-13.125-10.734-29.203-6.6094-44.203 2.8594-12.094 8.625-23.344 16.828-32.719 9.1406-10.031 21.562-16.547 35.016-18.422 12.703-1.6406 25.594-0.70312 37.922 2.7656 20.719 6 40.359 15.188 58.266 27.188 6.8906-16.969 11.156-34.875 12.656-53.062-62.203-12.094-123.1-30.188-181.82-54-10.406-4.0781-21.891-4.1719-32.391-0.375-9.0938 3.4688-16.359 10.547-20.016 19.547-61.359 150.1-45 221.58 3.5156 241.4 34.641 14.156 85.734 4.3594 137.63-20.812v0.046875c37.922-18.656 72.75-43.031 103.27-72.281-4.1719-3.2812-8.2969-6.75-12.375-10.453h-0.046874c-8.8125 12.984-20.109 24.094-33.188 32.672zm239.29 175.08v240h-388.64l-1.875-87.75h-144.19c-51.844-0.14062-93.797-42.141-93.891-93.984v-144.19h-62.719c-8.3438-0.046875-15.984-4.6875-19.875-12.094s-3.375-16.359 1.3594-23.25l75.844-109.73c-42.703-781.26 1156.5-456.84 633.94 231zm48.703-194.95c13.781-15.891 15.328-38.953 3.8438-56.578-10.922-15.703-34.359-26.625-72.891-26.625-31.922 0-57 22.312-74.719 54.891v0.046875c-6 11.203-11.062 22.922-15.094 35.016-11.344-3.7969-22.266-8.7188-32.672-14.625 5.8125-6.7969 11.391-13.734 16.641-20.906 18.938-25.078 33.797-52.969 44.062-82.688 15.422-2.2969 30.375-6.9375 44.438-13.688 39.469-19.734 53.016-52.453 49.922-82.781-3.0469-30.656-23.203-56.906-52.031-67.781-18.984-6.4688-39.797-4.875-57.516 4.4531-19.219-30.938-44.484-57.75-74.25-78.75-41.391-30.188-92.016-45.047-143.21-42-21.75 1.2188-43.078 6.4688-62.906 15.422-0.46875 0.1875-0.9375 0.46875-1.3594 0.75-18.609 8.5781-34.781 21.609-47.156 37.969-16.5 22.781-24.188 50.812-21.656 78.844 0.14062 4.5 2.1094 8.6719 5.3906 11.672 3.3281 3.0469 7.6875 4.5469 12.188 4.3125 4.4531-0.28125 8.625-2.3438 11.531-5.7188 2.9062-3.4219 4.3594-7.8281 3.9375-12.281-1.9219-20.25 3.5156-40.547 15.281-57.141 9.0938-11.906 20.953-21.422 34.594-27.703 0.375-0.14062 0.79688-0.32812 1.1719-0.51562 16.125-7.2188 33.375-11.484 51-12.422 43.359-2.625 86.297 9.8906 121.45 35.438 27.047 19.031 49.641 43.688 66.188 72.281-1.125 1.0781-2.2969 2.2031-3.375 3.375h0.046876c-14.25 16.031-32.344 28.172-52.547 35.297-12-42.188-32.672-67.5-54.844-80.906-21.703-13.594-48.516-16.266-72.469-7.2656-22.266 6.7031-37.031 27.703-35.766 50.906 1.9688 17.766 15.375 36.234 45.656 50.109 28.406 14.625 59.625 22.875 91.5 24.281 1.2188 8.1094 2.0625 16.781 2.625 26.062-57.891-12.047-114.61-29.297-169.4-51.469-18.141-7.0312-38.203-7.1719-56.438-0.375-17.625 6.6562-31.688 20.438-38.625 37.969-70.547 172.45-43.781 257.86 21.703 284.58 43.781 17.906 104.67 7.4531 164.48-21.609 43.031-21.141 82.406-49.172 116.48-82.875 14.859 9.0938 30.703 16.453 47.203 21.938-4.1719 19.125-6.5625 38.578-7.1719 58.125-0.046875 9 7.0781 16.359 16.078 16.641 9 0.23438 16.547-6.7031 17.062-15.703 0.51562-17.344 2.5781-34.594 6.1875-51.609 26.859 4.0781 54.328 1.5469 80.016-7.3125 21.938-7.2656 41.203-20.812 55.406-39.047zm-69-49.875c-17.906 0-33.469 15.234-45.609 37.453-4.5469 8.5312-8.4375 17.391-11.672 26.531 20.156 2.4375 40.594 0.28125 59.766-6.3281 15.516-4.9219 29.25-14.297 39.469-26.953 5.2031-7.2188 6.8906-14.062 3.7969-18.469-5.0625-7.2188-19.359-12.234-45.75-12.234zm-150.61-61.125c-2.25 23.766-8.4844 47.016-18.375 68.719l1.875 1.6875c5.5781 5.1094 11.203 9.75 16.781 14.156 6.2812-7.2188 12.188-14.578 17.766-22.078l0.046876-0.046875c13.781-18.328 25.078-38.391 33.75-59.672-17.344 0.23438-34.641-0.70312-51.844-2.7656zm-256.78-479.21c2.4844 1.5 5.3438 2.25 8.25 2.2969h37.453l-29.438 51c-4.2656 7.875-1.4531 17.719 6.3281 22.219 7.7812 4.4531 17.719 1.9219 22.406-5.7188l42.984-74.531h-0.046875c2.0156-2.8125 3.0938-6.1406 3.0938-9.6094 0-9.1875-7.4531-16.594-16.594-16.641h-37.359l32.156-55.641c2.2969-3.8438 2.9531-8.3906 1.8281-12.703s-3.8906-7.9688-7.7344-10.219c-3.8438-2.2031-8.4375-2.8125-12.703-1.6406-4.3125 1.1719-7.9219 4.0312-10.078 7.9219l-46.547 80.625c-2.2031 3.7969-2.8125 8.2969-1.6875 12.562 1.125 4.2188 3.8906 7.875 7.6875 10.078zm322.08-3.375h-0.046875c2.5781 1.4531 5.4844 2.2031 8.3906 2.2031h37.406l-29.438 50.953c-4.5938 7.9219-1.875 18.094 6.0938 22.688 7.9219 4.5938 18.094 1.875 22.688-6.0469l43.219-74.812v-0.046875c3.4688-5.0625 3.8438-11.672 0.9375-17.109-2.8594-5.4375-8.5312-8.8594-14.672-8.8125h-37.453l32.156-55.688v-0.046875c2.2969-3.7969 2.9531-8.3438 1.8281-12.656s-3.8906-7.9688-7.7344-10.219c-3.8438-2.2031-8.4375-2.8125-12.703-1.6406-4.3125 1.1719-7.9219 4.0312-10.078 7.9219l-46.547 80.578c-2.25 3.8438-2.8594 8.3438-1.7344 12.609s3.8906 7.9219 7.6875 10.125zm-161.06-60h-0.046875c2.5312 1.5 5.4375 2.2969 8.3906 2.2031v0.09375h37.406l-29.391 51c-4.2656 7.875-1.4531 17.719 6.3281 22.219 7.7812 4.4531 17.719 1.9219 22.406-5.7188l42.984-74.531c2.0156-2.7656 3.0938-6.1406 3.0938-9.5625-0.046875-9.1875-7.4531-16.641-16.641-16.641h-37.406l32.156-55.641c4.5938-7.9219 1.875-18.094-6.0469-22.688s-18.094-1.875-22.688 6.0469l-46.547 80.625c-4.5938 7.9219-1.875 18.047 6 22.688z"/>
</svg>
