<?xml version="1.0" encoding="UTF-8"?>
<svg width="1200pt" height="1200pt" version="1.1" viewBox="0 0 1200 1200" xmlns="http://www.w3.org/2000/svg">
 <path d="m599.99 420c-99.25 0-179.99 80.746-179.99 180 0 99.258 80.742 180 179.99 180 99.258 0 180-80.742 180-180 0-99.254-80.738-180-180-180zm0 336c-86.012 0-155.99-69.984-155.99-156 0-86.02 69.98-156 155.99-156 86.016 0 156 69.98 156 156 0 86.016-69.98 156-156 156zm44.871-101.21c0 20.156-19.711 35.953-44.871 35.953-25.152 0-44.859-15.797-44.859-35.953 0-6.6328 5.3711-12 12-12 6.6289 0 12 5.3672 12 12 0 5.6367 8.918 11.953 20.859 11.953 11.941 0 20.871-6.3164 20.871-11.953 0-6.6328 5.3672-12 12-12 6.6328 0 12 5.3672 12 12zm-95.152-91.121c0 13.23-8.1641 23.211-18.992 23.211s-19-9.9805-19-23.211c0-13.23 8.1719-23.207 19-23.207s18.992 9.9766 18.992 23.207zm138.57 0c0 13.23-8.168 23.211-18.996 23.211s-18.988-9.9805-18.988-23.211c0-13.23 8.1641-23.207 18.988-23.207s18.996 9.9766 18.996 23.207zm-480.89-143.66c-99.254 0-180 80.746-180 180 0 99.258 80.746 180 180 180 99.254 0 180-80.742 180-180 0-99.254-80.75-180-180-180zm0 336c-86.02 0-156-69.984-156-156 0-86.02 69.98-156 156-156 86.02 0 156 69.98 156 156 0 86.016-69.98 156-156 156zm49.773-84.258c0 6.6328-5.3711 12-12 12s-12-5.3672-12-12c0-7.1367-10.582-15.094-25.77-15.094-15.195 0-25.781 7.957-25.781 15.094 0 6.6328-5.3711 12-12 12-6.6289 0-12-5.3672-12-12 0-21.926 21.867-39.094 49.781-39.094 27.91 0 49.77 17.168 49.77 39.094zm-100.06-108.08c0 13.23-8.1641 23.211-18.992 23.211-10.828 0-19-9.9805-19-23.211 0-13.23 8.1719-23.207 19-23.207 10.824 0 18.992 9.9766 18.992 23.207zm138.57 0c0 13.23-8.168 23.211-18.996 23.211-10.828 0-18.988-9.9805-18.988-23.211 0-13.23 8.1641-23.207 18.988-23.207 10.824 0 18.996 9.9766 18.996 23.207zm696.96-143.66c-99.258 0-180 80.746-180 180 0 99.258 80.742 180 180 180 99.258 0 180-80.742 180-180 0-99.254-80.738-180-180-180zm0 336c-86.016 0-156-69.984-156-156 0-86.02 69.984-156 156-156 86.016 0 156 69.98 156 156 0 86.016-69.98 156-156 156zm50.285-134.68h-100.58c-6.6328 0-12 5.3672-12 12 0 35.168 27.938 63.773 62.285 63.773 34.348 0 62.297-28.605 62.297-63.773 0-6.6328-5.3633-12-12-12zm-50.293 51.773c-17.086 0-31.594-11.684-36.504-27.773h73.02c-4.9141 16.09-19.422 27.773-36.516 27.773zm-69.273-86.215c-10.828 0-19-9.9805-19-23.211 0-13.23 8.1719-23.207 19-23.207 10.828 0 18.992 9.9727 18.992 23.207 0 13.23-8.1641 23.211-18.992 23.211zm157.56-23.211c0 13.23-8.168 23.211-18.996 23.211-10.828 0-18.988-9.9805-18.988-23.211 0-13.23 8.1641-23.207 18.988-23.207 10.828 0 18.996 9.9766 18.996 23.207z"/>
</svg>
