<?xml version="1.0" encoding="UTF-8"?>
<svg width="1200pt" height="1200pt" version="1.1" viewBox="0 0 1200 1200" xmlns="http://www.w3.org/2000/svg">
 <path d="m1038.6 75.688c88.625 122.32 102.54 211.92 83.5 267.34-16.113 46.633-54.691 70.07-93.266 70.07-38.82 0-77.395-23.438-93.266-70.07-19.043-55.668-5.1289-145.27 83.988-268.08 4.1484-6.5898 14.648-5.8594 19.043 0.73438zm61.77 260.02c16.359-47.609 3.9062-125.25-71.535-233.89-75.441 108.65-87.895 186.29-71.535 233.89 12.453 36.133 41.992 54.445 71.535 54.445 29.543 0 59.082-18.312 71.535-54.445z"/>
 <path d="m600.12 1129.7c-141.36 0-274.43-55.18-374.53-155.04-100.1-100.1-155.04-233.16-155.04-374.53 0-141.61 55.18-274.43 155.04-374.53 100.1-100.1 233.16-155.04 374.53-155.04 134.53 0 262.71 50.539 360.86 142.09 4.6406 4.3945 4.8828 11.719 0.48828 16.359-4.3945 4.6406-11.719 4.8828-16.359 0.48828-93.996-87.895-216.56-135.99-344.98-135.99-279.31 0-506.61 227.3-506.61 506.61s227.3 506.61 506.61 506.61 506.61-227.3 506.61-506.61c0-71.781-14.648-141.36-43.945-206.55-2.6875-5.8594 0-12.695 5.8594-15.383 5.8594-2.6875 12.695 0 15.383 5.8594 30.52 68.117 45.898 140.88 45.898 215.83 0 141.61-55.18 274.43-155.04 374.53-100.35 100.35-233.41 155.28-374.77 155.28z" fill-rule="evenodd"/>
 <path d="m354.02 635.04c-38.574 0-75.93-15.871-103.28-44.922-4.3945-4.6406-4.1523-11.965 0.48828-16.359 4.6406-4.3945 11.965-4.1523 16.359 0.48828 29.785 31.984 74.465 44.922 116.95 33.691 42.238-11.23 74.711-44.922 84.477-87.406 1.4648-6.1055 7.5703-10.012 13.918-8.7891 6.1055 1.4648 10.012 7.5703 8.7891 13.918-11.719 51.027-50.297 91.066-100.84 104.74-12.453 3.1719-24.906 4.6367-36.867 4.6367z" fill-rule="evenodd"/>
 <path d="m846.23 635.04c-12.207 0-24.414-1.4648-36.621-4.8828-50.539-13.672-89.359-53.715-100.84-104.74-1.4648-6.3477 2.4414-12.453 8.7891-13.918 6.3477-1.4648 12.453 2.4414 13.918 8.7891 9.7656 42.727 41.992 76.176 84.477 87.406 42.238 11.23 87.16-1.4648 116.95-33.691 4.3945-4.6406 11.719-4.8828 16.359-0.48828 4.6406 4.3945 4.8828 11.719 0.48828 16.359-27.594 29.297-64.949 45.168-103.52 45.168z" fill-rule="evenodd"/>
 <path d="m424.33 932.9c-1.4648 0-2.9297-0.24609-4.1523-0.73438-5.8594-2.4414-9.0352-9.0352-6.5938-14.895 14.648-37.598 40.039-69.582 73.488-92.531s72.512-34.914 112.8-34.914c40.527 0 79.594 11.965 113.04 34.914 33.449 22.949 58.84 54.934 73.488 92.531 2.4414 5.8594-0.73438 12.695-6.5938 14.895-5.8594 2.1992-12.695-0.73437-14.895-6.5938-26.613-68.363-91.312-112.8-164.8-112.8s-138.19 44.191-164.8 112.8c-1.9453 4.3984-6.3398 7.3281-10.98 7.3281z" fill-rule="evenodd"/>
</svg>
