<?xml version="1.0" encoding="UTF-8"?>
<svg width="1200pt" height="1200pt" version="1.1" viewBox="0 0 1200 1200" xmlns="http://www.w3.org/2000/svg">
 <path d="m1087.5 210.56h-975c-10.312 0-18.75 8.4375-18.75 18.75v712.5c0 10.312 8.4375 18.75 18.75 18.75h796.13l15.188 15.188c9 9 21.188 13.688 33.188 13.688s24-4.6875 33-13.688c4.5-4.5 7.875-9.5625 10.125-15.188h87.375c10.312 0 18.75-8.4375 18.75-18.75v-712.5c0-10.312-8.4375-18.75-18.75-18.75zm-123.94 738.56c-3.75 3.75-9.5625 3.75-13.312 0l-132.56-132.56c-3.5625-3.5625-3.5625-9.5625 0-13.312 1.875-1.6875 4.3125-2.625 6.5625-2.625 2.4375 0 4.875 0.9375 6.75 2.625l132.56 132.56c1.6875 1.875 2.625 4.3125 2.625 6.75s-0.9375 4.6875-2.625 6.5625zm-532.31-101.06v-18.75c0-10.312-8.4375-18.75-18.75-18.75h-112.5c-10.312 0-18.75 8.4375-18.75 18.75v18.75h-37.5v-18.75c0-30.938 25.312-56.25 56.25-56.25h112.5c30.938 0 56.25 25.312 56.25 56.25v18.75zm355.87-95.438c-3 7.125-9.9375 11.438-17.25 11.625-2.4375 0-4.875-0.5625-7.3125-1.5-30.938-12.938-37.5-41.438-42.188-62.25-4.6875-20.062-7.6875-30.75-20.25-36s-22.312 0.1875-39.75 11.062c-18.188 11.25-43.125 26.812-74.062 13.875-30.938-12.75-37.5-41.438-42.188-62.25-4.6875-20.062-7.6875-30.75-20.25-36-12.375-5.0625-22.125 0.375-39.562 11.25-18.188 11.25-43.125 26.812-74.062 13.875-30.75-12.75-37.312-41.438-42.188-62.25-4.6875-20.062-7.6875-30.75-20.062-36-9.5625-3.9375-14.062-14.812-10.125-24.375s15-14.25 24.562-10.125c30.75 12.75 37.312 41.25 42.188 62.062 4.6875 20.062 7.6875 30.938 20.062 36 12.562 5.25 22.125 0 39.75-11.062 18.188-11.25 42.938-26.812 73.875-13.875 30.938 12.75 37.5 41.25 42.188 62.062 4.6875 20.062 7.6875 30.938 20.25 36 12.562 5.25 22.312-0.1875 39.75-11.062 18.188-11.25 42.938-26.812 74.062-13.875 30.938 12.938 37.5 41.438 42.188 62.25 4.6875 20.062 7.6875 30.75 20.25 36 9.5625 3.9375 14.062 15 10.125 24.562zm281.63 170.44h-69.375c-2.0625-5.0625-5.25-9.5625-9.375-13.688l-23.812-23.812h46.312c10.312 0 18.75-8.4375 18.75-18.75v-562.5c0-10.312-8.4375-18.75-18.75-18.75h-825c-10.312 0-18.75 8.4375-18.75 18.75v562.5c0 10.312 8.4375 18.75 18.75 18.75h646.31l37.312 37.5h-739.87v-675h937.5z"/>
</svg>
