<?xml version="1.0" encoding="UTF-8"?>
<svg width="1200pt" height="1200pt" version="1.1" viewBox="0 0 1200 1200" xmlns="http://www.w3.org/2000/svg">
 <g>
  <path d="m517.68 238.05 1.4414 15.77c0.45703 4.0664 3.8633 7.1055 7.9219 7.1055h0.75781c4.3672-0.35938 7.5469-4.2852 7.0781-8.6641l-1.4531-15.742c-0.45703-4.2969-3.9102-7.3906-8.6641-7.1289-4.3945 0.42969-7.5625 4.3047-7.082 8.6602z"/>
  <path d="m430.01 670.88c-0.55078-4.7891-0.74219-9.2656-0.74219-12.434l0.085937-2.375c0-4.3555-3.5391-6.875-7.9688-6.875-4.3906 0-7.9336 4.5977-7.9336 8.9531 0 4.0078 0.14453 9.1914 0.875 14.746 0.52734 3.9844 3.9258 6.9375 7.8477 6.9375 0.26562 0 0.64844 0 0.97266-0.070313 4.3438-0.58984 7.4766-4.5117 6.8633-8.8828z"/>
  <path d="m567.68 931.25c0-4.4297-3.5625-7.8945-7.8828-7.8945-4.3789 0-7.9453 3.4688-7.9453 7.8945v15.828c0 4.3906 3.5625 7.9453 7.9453 7.9453 4.3203 0 7.8828-3.5508 7.8828-7.9453z"/>
  <path d="m522.47 213.71c0.23828 0 0.51562 0 0.74219-0.046875 4.332-0.38281 7.5586-4.3086 7.0938-8.6055l-0.60156-6.5039c-0.046875-2.5312 0-5.1133 0.32422-7.7031 0.40625-4.3672-2.6641-8.293-7.043-8.7461-4.2109-0.39453-8.293 2.6641-8.7227 7.0312-0.33594 3.1914-0.48047 6.3945-0.38281 10.285l0.67188 7.1055c0.45312 4.125 3.8594 7.1836 7.918 7.1836z"/>
  <path d="m567.68 788.79c0-4.4414-3.5625-7.9922-7.8828-7.9922-4.3789 0-7.9453 3.5508-7.9453 7.9922v15.758c0 4.3555 3.5625 7.9062 7.9453 7.9062 4.3203 0 7.8828-3.5508 7.8828-7.9062z"/>
  <path d="m559.79 970.86c-4.3789 0-7.9453 3.4805-7.9453 7.8359v15.91c0 4.3789 3.5625 7.8477 7.9453 7.8477 4.3203 0 7.8828-3.4688 7.8828-7.8477v-15.91c0.011719-4.3555-3.5508-7.8359-7.8828-7.8359z"/>
  <path d="m567.68 883.74c0-4.3555-3.5625-7.8945-7.8828-7.8945-4.3789 0-7.9453 3.5391-7.9453 7.8945v15.852c0 4.3438 3.5625 7.9219 7.9453 7.9219 4.3203 0 7.8828-3.5742 7.8828-7.9219z"/>
  <path d="m567.68 836.24c0-4.3672-3.5625-7.8359-7.8828-7.8359-4.3789 0-7.9453 3.4688-7.9453 7.8359v15.828c0 4.3555 3.5625 7.9336 7.9453 7.9336 4.3203 0 7.8828-3.5742 7.8828-7.9336z"/>
  <path d="m496.75 319.81h15.863c4.332 0 7.9688-3.5391 7.9688-7.957 0-4.3555-3.6367-7.8945-7.9688-7.8945h-15.863c-4.332 0-7.8711 3.5391-7.8711 7.8945-0.003906 4.418 3.5391 7.957 7.8711 7.957z"/>
  <path d="m421.59 537.38c4.3672 0 7.9062-3.5742 7.9062-7.9336v-15.816c0-4.3672-3.5391-7.9219-7.9062-7.9219-4.3555 0-7.9062 3.5508-7.9062 7.9219v15.816c-0.003907 4.3594 3.5469 7.9336 7.9062 7.9336z"/>
  <path d="m421.59 584.82c4.3672 0 7.9062-3.5625 7.9062-7.8477v-15.91c0-4.3438-3.5391-7.8242-7.9062-7.8242-4.3555 0-7.9062 3.4805-7.9062 7.8242v15.91c-0.003907 4.2852 3.5469 7.8477 7.9062 7.8477z"/>
  <path d="m421.59 489.88c4.3672 0 7.9062-3.5742 7.9062-7.9336v-15.828c0-4.3555-3.5391-7.9336-7.9062-7.9336-4.3555 0-7.9062 3.5742-7.9062 7.9336v15.828c-0.003907 4.3594 3.5469 7.9336 7.9062 7.9336z"/>
  <path d="m421.59 632.33c4.3672 0 7.9062-3.4805 7.9062-7.9336v-15.828c0-4.3555-3.5391-7.9062-7.9062-7.9062-4.3555 0-7.9062 3.5508-7.9062 7.9062v15.828c-0.003907 4.4531 3.5469 7.9336 7.9062 7.9336z"/>
  <path d="m421.59 347.35c4.3672 0 7.9062-3.5156 7.9062-7.9219v-5.1367c0-3.1562 0.37109-5.8555 1.0312-7.9922 1.5-4.1641-0.74219-8.5938-4.8477-10.031-4.1523-1.3906-8.6875 0.80469-10.066 4.957-1.2734 3.8164-1.9336 8.1836-1.9336 13.066v5.1367c0 4.4062 3.5508 7.9219 7.9102 7.9219z"/>
  <path d="m421.59 442.33c4.3672 0 7.9062-3.5508 7.9062-7.8945v-15.828c0-4.3555-3.5391-7.9336-7.9062-7.9336-4.3555 0-7.9062 3.5742-7.9062 7.9336v15.828c-0.003907 4.3438 3.5469 7.8945 7.9062 7.8945z"/>
  <path d="m599.34 770.88c0-4.3672-3.5391-7.8945-7.8711-7.8945-4.3789 0-7.9336 3.5273-7.9336 7.8945v15.828c0 4.4648 3.5508 7.9219 7.9336 7.9219 4.332 0 7.8711-3.457 7.8711-7.9219z"/>
  <path d="m449.33 319.81h15.758c4.4414 0 8.0273-3.5391 8.0273-7.957 0-1.7031-0.98438-3.0234-1.8711-4.3555 4.0547-0.28906 7.4141-3.5391 7.4141-7.6914v-5.1953c0-3.0977 0.37109-5.7969 1.0938-7.9453 1.4297-4.1523-0.81641-8.6289-4.957-10.043-4.0547-1.3203-8.6758 0.82812-9.9961 4.957-1.332 3.7695-1.9922 8.1953-1.9922 13.031v5.1953c0 1.6211 0.98437 2.9023 1.7656 4.1523h-15.254c-4.3438 0-7.8945 3.5391-7.8945 7.8945 0.011719 4.418 3.5625 7.957 7.9062 7.957zm20.148-14.016c-1.3555-0.96094-2.6641-1.8359-4.3789-1.8359 1.7617 0 3.1172 0.80469 4.3789 1.8359z"/>
  <path d="m421.59 394.82c4.3672 0 7.9062-3.4805 7.9062-7.9062v-15.828c0-4.2852-3.5391-7.9336-7.9062-7.9336-4.3555 0-7.9062 3.6484-7.9062 7.9336v15.828c-0.003907 4.4258 3.5469 7.9062 7.9062 7.9062z"/>
  <path d="m551.84 741.35v15.695c0 4.4297 3.5625 7.9805 7.9453 7.9805 4.3203 0 7.8828-3.5508 7.8828-7.9805v-15.77c0-4.3555-3.5625-7.9062-7.8828-7.9062-4.3828-0.011719-7.9453 3.6133-7.9453 7.9805z"/>
  <path d="m737.38 398.16c0-4.4297-3.5508-8.0039-7.8711-8.0039-4.3789 0-7.9336 3.5742-7.9336 8.0039v15.77c0 4.3438 3.5508 7.9922 7.9336 7.9922 4.3203 0 7.8711-3.6484 7.8711-7.9922z"/>
  <path d="m737.38 350.59c0-4.3555-3.5508-7.9062-7.8711-7.9062-4.3789 0-7.9336 3.5508-7.9336 7.9062v15.805c0 4.4414 3.5508 7.9922 7.9336 7.9922 4.3203 0 7.8711-3.5508 7.8711-7.9922z"/>
  <path d="m709.71 320.16c2.2422 0.46875 6.457 1.6797 9.0117 4.8828 1.5859 1.8945 3.8633 2.8672 6.168 2.8672 1.7539 0 3.5508-0.60156 5.0391-1.8008 3.3008-2.7852 3.8516-7.7773 1.0312-11.16-5.4102-6.5742-12.793-9.2539-18.07-10.285-4.1992-0.91016-8.4844 1.8711-9.3242 6.168-0.89844 4.2773 1.8633 8.4648 6.1445 9.3281z"/>
  <path d="m682.11 723.43c1.2227 3.1797 4.2461 5.1133 7.4297 5.1133 0.875 0 1.9062-0.20312 2.7734-0.60156 2.9023-1.1055 8.6055-3.6367 15.551-8.2695 3.6367-2.3633 4.6094-7.3438 2.1367-10.957-2.375-3.6367-7.3203-4.5977-10.957-2.2422-5.8672 3.9375-10.645 6-12.395 6.6719-4.0859 1.6328-6.0781 6.2266-4.5391 10.285z"/>
  <path d="m737.38 445.6c0-4.3555-3.5508-7.9336-7.8711-7.9336-4.3789 0-7.9336 3.5742-7.9336 7.9336v15.84c0 4.3672 3.5508 7.9219 7.9336 7.9219 4.3203 0 7.8711-3.5508 7.8711-7.9219z"/>
  <path d="m737.38 588.07c0-4.2969-3.5508-7.8359-7.8711-7.8359-4.3789 0-7.9336 3.5391-7.9336 7.8359v15.828c0 4.4414 3.5508 7.9336 7.9336 7.9336 4.3203 0 7.8711-3.4922 7.8711-7.9336z"/>
  <path d="m663.82 319.81h15.852c4.332 0 7.9453-3.5391 7.9453-7.957 0-4.3555-3.6133-7.8945-7.9453-7.8945h-15.852c-4.332 0-7.9336 3.5391-7.9336 7.8945 0 4.418 3.6016 7.957 7.9336 7.957z"/>
  <path d="m737.38 493.12c0-4.3672-3.5508-7.9219-7.8711-7.9219-4.3789 0-7.9336 3.5508-7.9336 7.9219v15.816c0 4.3555 3.5508 7.9453 7.9336 7.9453 4.3203 0 7.8711-3.5898 7.8711-7.9453z"/>
  <path d="m729.5 627.66c-4.3789 0-7.9336 3.5508-7.9336 7.9453v15.828c0 4.3555 3.5508 7.9062 7.9336 7.9062 4.3203 0 7.8711-3.5508 7.8711-7.9062v-15.828c0-4.3945-3.5508-7.9453-7.8711-7.9453z"/>
  <path d="m737.38 540.55c0-4.2852-3.5508-7.8359-7.8711-7.8359-4.3789 0-7.9336 3.5508-7.9336 7.8359v15.84c0 4.4531 3.5508 7.9219 7.9336 7.9219 4.3203 0 7.8711-3.4688 7.8711-7.9219z"/>
  <path d="m591.28 747.11h1.0664c4.332-0.66016 7.3555-4.5859 6.8047-8.9297-1.1172-8.0039-6.1562-14.879-13.57-18.348-3.9258-1.8008-8.5781-0.15625-10.5 3.8398-1.8594 3.9961-0.14453 8.6523 3.8164 10.5 2.4844 1.1875 4.1641 3.4805 4.5469 6.168 0.51562 3.9609 3.9102 6.7695 7.8359 6.7695z"/>
  <path d="m599.34 960.94c0-4.4414-3.5391-7.9922-7.8711-7.9922-4.3789 0-7.9336 3.5508-7.9336 7.9922v15.781c0 4.4297 3.5508 7.9688 7.9336 7.9688 4.332 0 7.8711-3.5391 7.8711-7.9688z"/>
  <path d="m599.34 913.33c0-4.2852-3.5391-7.8242-7.8711-7.8242-4.3789 0-7.9336 3.5391-7.9336 7.8242v15.938c0 4.3555 3.5508 7.8242 7.9336 7.8242 4.332 0 7.8711-3.4688 7.8711-7.8242z"/>
  <path d="m599.34 818.39c0-4.3555-3.5391-7.9062-7.8711-7.9062-4.3789 0-7.9336 3.5508-7.9336 7.9062v15.84c0 4.3789 3.5508 7.9219 7.9336 7.9219 4.332 0 7.8711-3.5391 7.8711-7.9219z"/>
  <path d="m599.34 865.89c0-4.3555-3.5391-7.8828-7.8711-7.8828-4.3789 0-7.9336 3.5273-7.9336 7.8828v15.84c0 4.3789 3.5508 7.9336 7.9336 7.9336 4.332 0 7.8711-3.5508 7.8711-7.9336z"/>
  <path d="m616.87 260.36-1.5234 15.73c-0.37109 4.332 2.8086 8.207 7.0938 8.6992h0.82812c3.9609 0 7.4531-3.0859 7.9453-7.1406l1.5234-15.742c0.37109-4.3555-2.7969-8.2812-7.1758-8.7109-4.2852-0.19141-8.2109 2.7734-8.6914 7.1641z"/>
  <path d="m621.28 184.6c1.0195 3.4336 4.1875 5.7344 7.6914 5.7344 0.66016 0 1.4883-0.14453 2.2578-0.35938 4.1055-1.1992 6.5508-5.6406 5.3047-9.8164-1.7656-6.1094-4.7539-11.578-8.9141-16.691-2.7852-3.2539-7.7031-3.8398-11.148-1.043-3.3594 2.8203-3.875 7.7773-1.1172 11.195 2.9023 3.3242 4.7969 6.9844 5.9258 10.98z"/>
  <path d="m591.47 1032.1c4.332 0 7.8711-3.5273 7.8711-7.8945v-15.77c0-4.4297-3.5391-7.9922-7.8711-7.9922-4.3789 0-7.9336 3.5625-7.9336 7.9922v15.77c0 4.3672 3.5547 7.8945 7.9336 7.8945z"/>
  <path d="m635.79 230.34 1.4766-15.77c0.42188-4.3555-2.7461-8.2578-7.1406-8.6055-4.2852-0.3125-8.1953 2.7344-8.6289 7.0938l-1.5 15.758c-0.45703 4.3672 2.7461 8.2305 7.0938 8.6641 0.3125 0 0.51562 0.046875 0.75781 0.046875 4.0625-0.011719 7.4727-3.0703 7.9414-7.1875z"/>
  <path d="m664.7 1011.6c0.13281 0.097656 0.35938 0.097656 0.61328 0.097656 4.1641 0 7.5703-3.1328 7.9336-7.2617l1.2461-15.852c0.27734-4.2852-2.8906-8.1367-7.2734-8.4961-3.7695-0.28906-8.1953 2.8672-8.4844 7.332l-1.2617 15.695c-0.37891 4.4258 2.8828 8.207 7.2266 8.4844z"/>
  <path d="m678.78 838.08c-3.6367-0.14453-8.1602 2.8789-8.5312 7.2461l-1.2461 15.758c-0.43359 4.4531 2.8789 8.2188 7.2734 8.5938h0.55078c4.1172 0 7.5586-3.1211 7.9336-7.2461l1.2617-15.828c0.375-4.3828-2.9219-8.1484-7.2422-8.5234z"/>
  <path d="m619.36 1083.4h-15.863c-4.332 0-7.9219 3.5508-7.9219 7.9922 0 4.2852 3.5898 7.8359 7.9219 7.8359h15.863c4.3203 0 7.8711-3.5508 7.8711-7.8359 0.011719-4.4414-3.5391-7.9922-7.8711-7.9922z"/>
  <path d="m632.15 303.96h-5.4102c-1.2617-1.8594-3.3125-3.2148-5.7344-3.457-5.0508-0.25391-8.2305 2.7734-8.6875 7.1523l-0.27734 3.4688c-0.32422 2.2305 0.50391 4.4414 1.9219 6.1211 1.5234 1.6797 3.6836 2.5781 5.9023 2.5781h12.277c4.3789 0 7.9336-3.5391 7.9336-7.957 0.003906-4.3672-3.5469-7.9062-7.9258-7.9062z"/>
  <path d="m659.53 1074.8c-4.332-0.14453-8.1367 2.8906-8.5078 7.2461l-0.13281 1.2617c-4.2852 0.058594-7.7891 3.5508-7.7891 7.9922 0 4.2852 3.5508 7.8359 7.9219 7.8359h7.1992c4.1641 0 7.5117-3.1094 7.8828-7.2461l0.70703-8.5781c0.41016-4.3477-2.8516-8.1992-7.2812-8.5117z"/>
  <path d="m599.34 1071.7v-15.816c0-4.3555-3.5391-7.9336-7.8711-7.9336-2.1133 0-3.7695 0.88672-5.1953 2.1484-0.82813-3.5273-3.5898-6.3594-7.3672-6.3594h-11.879s-0.097656 0-0.097656 0.085938c0.19141-0.60156 0.74219-1.1055 0.74219-1.7773v-15.84c0-4.2969-3.5625-7.9062-7.8828-7.9062-4.3789 0-7.9453 3.6133-7.9453 7.9062v15.84c0 4.4414 3.5625 7.9219 7.9453 7.9219 1.8125 0 3.3477-0.88672 4.7031-1.9062-1.2461 1.1641-2.7852 1.9062-4.7031 1.9062v8.207c1.0664 0.625 2.0391 1.4141 3.3477 1.4141h15.758c1.8711 0 3.2656-0.89844 4.6328-1.8359v13.969c0 4.3672 3.5508 7.9219 7.9336 7.9219 4.3398-0.023437 7.8789-3.5742 7.8789-7.9453z"/>
  <path d="m559.79 1065.8c-4.3789 0-7.9453 3.5508-7.9453 7.9336v15.828c0 4.3555 3.5625 7.9062 7.9453 7.9062 4.3203 0 7.8828-3.5508 7.8828-7.9062v-15.828c0.011719-4.3828-3.5508-7.9336-7.8828-7.9336z"/>
  <path d="m556.52 149.94c-1.957-3.8984-6.8047-5.4492-10.691-3.5273-4.9453 2.4727-9.4688 5.7734-14.641 10.598-3.1328 2.9766-3.2773 7.9805-0.28906 11.207 1.5469 1.6211 3.6836 2.4375 5.7852 2.4375 1.9219 0 3.9102-0.69531 5.3633-2.1602 3.9102-3.6953 7.3203-6.1328 10.922-7.9453 3.9219-1.9844 5.4609-6.6992 3.5508-10.609z"/>
  <path d="m682.56 790.79c-3.7695-0.35937-8.1602 2.8672-8.5312 7.1641l-1.1523 15.84c-0.37109 4.3086 2.8672 8.1602 7.2227 8.5078 0.14453 0 0.37109 0.097657 0.61328 0.097657 4.0547 0 7.5586-3.1914 7.8242-7.3438l1.3672-15.742c0.27734-4.3828-2.9883-8.2383-7.3438-8.5234z"/>
  <path d="m439.95 695.1c-2.8906-3.1328-7.9219-3.3242-11.184-0.38281-3.1914 2.9766-3.4062 8.0156-0.37109 11.184 3.7695 4.1641 8.1484 7.9922 12.852 11.543 1.4531 1.0312 3.0352 1.4766 4.7656 1.4766 2.3633 0 4.8008-1.0938 6.3008-3.1797 2.6523-3.5391 1.8945-8.5078-1.6445-11.102-4-2.8945-7.5391-6.1445-10.719-9.5391z"/>
  <path d="m693.73 751.93c0.35938-4.3789-2.8906-8.207-7.2344-8.5195-4.3086-0.28906-8.1836 2.8086-8.5547 7.2617l-1.2852 15.77c-0.37109 4.3555 2.8906 8.1367 7.2227 8.4961h0.66016c4.1172 0 7.5586-3.1094 7.8828-7.1758z"/>
  <path d="m674.91 885.45c-4.1523-0.21484-8.2188 2.8906-8.4844 7.2461l-1.3672 15.77c-0.35938 4.3555 2.9023 8.1367 7.2734 8.5195 0.21484 0.070312 0.43359 0.070312 0.67187 0.070312 4.0664 0 7.5586-3.1914 7.8359-7.2617l1.332-15.828c0.38281-4.2812-2.8672-8.1562-7.2617-8.5156z"/>
  <path d="m671.09 932.82c-3.6367-0.30078-8.1602 2.8906-8.5312 7.2461l-1.3086 15.77c-0.3125 4.3555 2.9414 8.207 7.3203 8.5195 0.14453 0.070312 0.37109 0.070312 0.57422 0.070312 4.1055 0 7.5586-3.2148 7.9336-7.3203l1.2461-15.758c0.32422-4.375-2.9531-8.1445-7.2344-8.5273z"/>
  <path d="m478.48 897.74c4.3672-0.38281 7.6445-4.1641 7.2734-8.5312l-1.3438-15.828c-0.35938-4.2734-4.2734-7.4883-8.4961-7.1875-4.3789 0.35938-7.6094 4.1523-7.2734 8.5195l1.3555 15.758c0.27734 4.1523 3.7695 7.3203 7.8359 7.3203 0.22656 0.011719 0.45703 0.011719 0.64844-0.050781z"/>
  <path d="m486.25 992.38c4.4023-0.34766 7.6211-4.1172 7.2969-8.5078l-1.2734-15.758c-0.37109-4.3555-4.1055-7.5977-8.5664-7.2344-4.3906 0.33594-7.668 4.2109-7.1875 8.4844l1.2461 15.852c0.37109 4.0547 3.7812 7.2461 7.8359 7.2461 0.23828 0.015625 0.51562 0.015625 0.64844-0.082031z"/>
  <path d="m482.44 945.12c4.3555-0.37109 7.6211-4.2227 7.1406-8.5195l-1.2461-15.84c-0.32422-4.2734-4.1992-7.5469-8.4844-7.2461-4.3906 0.35938-7.6211 4.2227-7.2461 8.5781l1.2344 15.77c0.35937 4.1289 3.8633 7.2461 7.9219 7.2461 0.22266 0.011719 0.44922 0.011719 0.67969 0.011719z"/>
  <path d="m474.56 850.37c4.3672-0.35938 7.6445-4.1523 7.2734-8.5078l-1.2461-15.77c-0.37109-4.3672-4.0547-7.4648-8.6055-7.2461-4.2734 0.37109-7.5469 4.2227-7.1875 8.5078l1.2734 15.852c0.35938 4.1406 3.8164 7.2344 7.9219 7.2344 0.15234-0.007812 0.37891-0.007812 0.57031-0.070312z"/>
  <path d="m470.65 803.05c4.3672-0.34766 7.6445-4.1875 7.2617-8.5078l-1.2461-15.828c-0.38281-4.2852-4.1641-7.3906-8.5938-7.1641-4.2734 0.28906-7.5469 4.1406-7.1875 8.5195l1.2617 15.742c0.37109 4.1523 3.8164 7.2344 7.9336 7.2344 0.14844 0.003906 0.37891 0.003906 0.57031 0.003906z"/>
  <path d="m529.29 276.71c-4.2969 0.39453-7.4766 4.2852-7.0547 8.6289l1.4883 15.742c0.37109 4.1289 3.8164 7.1641 7.8477 7.1641h0.78125c4.332-0.44531 7.5117-4.332 7.1406-8.6758l-1.5-15.742c-0.41406-4.3906-4-7.4297-8.7031-7.1172z"/>
  <path d="m529.79 1083.4h-15.863c-4.332 0-7.8242 3.5508-7.8242 7.9922 0 4.2852 3.4922 7.8359 7.8242 7.8359h15.863c4.3789 0 7.9219-3.5508 7.9219-7.8359 0.007812-4.4414-3.5312-7.9922-7.9219-7.9922z"/>
  <path d="m491.54 1055.5c-4.3789 0.37109-7.6445 4.2109-7.2734 8.5781l1.2461 15.77c0.37109 4.1641 3.8633 7.2461 7.9453 7.2461h0.64844c4.2969-0.35938 7.5586-4.2109 7.1875-8.5781l-1.2617-15.758c-0.37891-4.3633-4.207-7.4023-8.4922-7.2578z"/>
  <path d="m466.81 755.72c4.332-0.37109 7.5586-4.1523 7.1875-8.5078l-1.2461-15.77c-0.38281-4.3555-4.2461-7.3203-8.543-7.2461-4.3203 0.37109-7.5977 4.1641-7.2344 8.5195l1.2461 15.742c0.37109 4.1406 3.8281 7.332 7.8945 7.332 0.23828-0.007813 0.46875-0.007813 0.69531-0.070313z"/>
  <path d="m490.2 1039.8c4.3789-0.37109 7.6562-4.1758 7.2734-8.5195l-1.3555-15.828c-0.27734-4.2852-4.2109-7.3203-8.4844-7.1875-4.3789 0.35938-7.6562 4.1406-7.2734 8.5078l1.3438 15.77c0.37109 4.1523 3.7695 7.3203 7.8242 7.3203 0.23047 0.007813 0.43359 0.007813 0.67188-0.0625z"/>
  <path d="m585.82 131c2.0039 0 3.9258-0.69531 5.4609-2.1602 3.9102-3.7305 7.3086-6.1797 10.812-7.9336 3.9102-2.0156 5.5547-6.7422 3.5508-10.633-1.9062-3.875-6.7305-5.4375-10.598-3.5039-5.0273 2.4375-9.5273 5.7461-14.641 10.559-3.1797 2.9766-3.3125 8.0156-0.27734 11.184 1.5391 1.6367 3.6406 2.4883 5.6914 2.4883z"/>
  <path d="m572.43 148.07c-0.15625 4.3555 3.168 8.0156 7.5703 8.207 5.3516 0.22656 9.8398 0.88672 13.754 2.0039 0.74219 0.23828 1.4414 0.28906 2.1836 0.28906 3.4062 0 6.6367-2.207 7.5586-5.7109 1.2617-4.2109-1.1641-8.5781-5.3984-9.7812-5.0898-1.4766-10.766-2.3281-17.449-2.6406-2.4258-0.046875-4.5703 1.3203-6.1562 3.2891-0.79297-0.39453-1.3906-1.1523-2.3867-1.2852-4.0547-0.33594-7.9805 2.6406-8.5781 6.8516 2.7617-0.42187 5.8789-0.61328 9.0469-0.71875-0.003906-0.20312-0.14453-0.32422-0.14453-0.50391z"/>
  <path d="m498.49 280.18h15.816c4.3789 0 7.9219-3.5508 7.9219-7.9219 0-4.3672-3.5391-7.9453-7.9219-7.9453h-15.816c-4.3789 0-7.9219 3.5742-7.9219 7.9453s3.543 7.9219 7.9219 7.9219z"/>
  <path d="m708.74 1035.2c-4.1523-0.33594-8.207 2.9141-8.4844 7.2617l-0.14453 1.332c-4.3789 0-7.8945 3.5742-7.8945 7.9336 0 4.3555 3.6133 7.9062 7.957 7.9062h7.2734c4.043 0 7.4531-3.1797 7.8242-7.332l0.74219-8.5078c0.35938-4.4297-2.8906-8.1992-7.2734-8.5938z"/>
  <path d="m669.97 1044.4-0.64844 7.3906 1.2969-15.707c0.37109-4.4141-2.8906-8.207-7.2344-8.5781-4.2461-0.35938-8.1602 2.8789-8.5547 7.2461l-1.2852 15.77c-0.32422 4.3672 2.8906 8.207 7.2344 8.5781h0.097656l-0.097656 0.54297h7.6914c4.4023 0 7.9453-3.5508 7.9453-7.9062-0.003907-3.8672-2.8945-6.5781-6.4453-7.3359z"/>
  <path d="m666.11 220.68-1.5469 15.77c-0.42188 4.3086 2.7461 8.1953 7.0938 8.6523h0.74219c4.0195 0 7.5234-3.0352 7.9336-7.1055l1.5469-15.77c0.45703-4.3672-2.7227-8.2188-7.1055-8.6758-4.4297-0.27344-8.293 2.7617-8.6641 7.1289z"/>
  <path d="m684.9 190.7 1.5977-15.758c0.37109-4.3672-2.8438-8.2578-7.1875-8.6758-4.2969-0.37109-8.2305 2.7734-8.6875 7.1055l-1.4883 15.84c-0.43359 4.2852 2.832 8.1836 7.1875 8.6055 0.23828 0.023438 0.46875 0.058594 0.74219 0.058594 4.0234 0 7.4648-3.1055 7.8359-7.1758z"/>
  <path d="m652.73 113.24c1.2109-4.2461-1.1758-8.6172-5.4258-9.8047-5.0742-1.4648-10.859-2.3516-17.531-2.6289-4.1055-0.17969-7.9805 3.2539-8.2188 7.5977-0.13281 4.3555 3.2656 8.0625 7.6562 8.2812 5.3047 0.19141 9.8398 0.81641 13.668 1.9336 0.74219 0.21484 1.4883 0.27734 2.2578 0.27734 3.3828 0.007812 6.5625-2.2109 7.5938-5.6562z"/>
  <path d="m758.94 280.5c2.2305 0.49219 6.3477 1.7148 8.9531 4.8945 1.5469 1.8828 3.8164 2.8438 6.1562 2.8438 1.7773 0 3.5508-0.5625 5.0508-1.7773 3.3125-2.8086 3.8164-7.7539 1.0312-11.172-5.4258-6.5508-12.84-9.2148-18.059-10.273-4.1641-0.81641-8.4492 1.8594-9.3359 6.1328-0.89062 4.3125 1.8086 8.5117 6.2031 9.3516z"/>
  <path d="m713.03 280.18h15.77c4.3789 0 7.9219-3.5508 7.9219-7.9219 0-4.3672-3.5391-7.9453-7.9219-7.9453h-15.77c-4.332 0-7.8711 3.5742-7.8711 7.9453s3.5391 7.9219 7.8711 7.9219z"/>
  <path d="m669 280.18h12.359c4.3789 0 7.8242-3.5508 7.8242-7.9219 0-4.3672-3.4453-7.9453-7.8242-7.9453h-5.4102c-1.3086-1.8945-3.3945-3.2266-5.8203-3.4336-5.0625-0.37109-8.2188 2.7344-8.6992 7.0938l-0.27734 3.5156c-0.22656 2.2188 0.51562 4.4531 2.0156 6.1211 1.4883 1.6211 3.6367 2.5703 5.832 2.5703z"/>
  <path d="m712.61 987.82c-4.2852-0.3125-8.207 2.8672-8.5195 7.2461l-1.3203 15.742c-0.37109 4.4648 2.8906 8.2422 7.2344 8.6172h0.625c4.0547 0 7.5469-3.1328 7.9219-7.2461l1.2617-15.77c0.40234-4.3789-2.8477-8.2305-7.2031-8.5898z"/>
  <path d="m670.49 144.96c1.0195 3.4453 4.1523 5.7109 7.6094 5.7109 0.74219 0 1.5-0.12109 2.2422-0.33594 4.1992-1.2227 6.5898-5.6641 5.4102-9.793-1.7773-6.1562-4.7539-11.555-8.9531-16.703-2.7617-3.3242-7.7891-3.8867-11.102-1.0781-3.4062 2.832-3.8867 7.7773-1.1406 11.184 2.8008 3.3945 4.7695 7.043 5.9336 11.016z"/>
  <path d="m778.62 588.07c-4.3672 0-7.9336 3.5508-7.9336 7.8477v15.84c0 4.4297 3.5625 7.9062 7.9336 7.9062 4.3906 0 7.9336-3.4805 7.9336-7.9062v-15.84c-0.003907-4.293-3.543-7.8477-7.9336-7.8477z"/>
  <path d="m779.38 627.8c-4.4531-0.57422-8.3516 2.4609-8.8789 6.8047-0.74219 5.1836-1.8594 9.6367-3.3945 13.117-1.7266 3.9844 0.046876 8.6641 4.0547 10.414 1.0312 0.43359 2.0625 0.68359 3.1797 0.68359 3.0234 0 5.9141-1.7773 7.2344-4.7266 2.1602-4.8125 3.7305-10.754 4.6211-17.426 0.51562-4.3438-2.5312-8.3398-6.8164-8.8672z"/>
  <path d="m778.62 493.03c-4.3672 0-7.9336 3.5508-7.9336 7.9336v15.84c0 4.3555 3.5625 7.8945 7.9336 7.8945 4.3906 0 7.9336-3.5391 7.9336-7.8945v-15.84c-0.003907-4.3789-3.543-7.9336-7.9336-7.9336z"/>
  <path d="m778.62 540.55c-4.3672 0-7.9336 3.5742-7.9336 7.9336v15.828c0 4.3555 3.5625 7.8945 7.9336 7.8945 4.3906 0 7.9336-3.5391 7.9336-7.8945v-15.828c-0.003907-4.3555-3.543-7.9336-7.9336-7.9336z"/>
  <path d="m778.62 445.6c-4.3672 0-7.9336 3.4688-7.9336 7.8359v15.926c0 4.2852 3.5625 7.8359 7.9336 7.8359 4.3906 0 7.9336-3.5508 7.9336-7.8359v-15.926c-0.003907-4.3711-3.543-7.8359-7.9336-7.8359z"/>
  <path d="m778.62 303.06c-4.3672 0-7.9336 3.5391-7.9336 7.8945v15.816c0 4.3906 3.5625 7.957 7.9336 7.957 4.3906 0 7.9336-3.5625 7.9336-7.957v-15.816c-0.003907-4.3516-3.543-7.8945-7.9336-7.8945z"/>
  <path d="m778.62 350.57c-4.3672 0-7.9336 3.5508-7.9336 7.9062v15.828c0 4.3906 3.5625 7.9453 7.9336 7.9453 4.3906 0 7.9336-3.5508 7.9336-7.9453v-15.828c-0.003907-4.3516-3.543-7.9062-7.9336-7.9062z"/>
  <path d="m778.62 398.09c-4.3672 0-7.9336 3.4805-7.9336 7.8945v15.77c0 4.3789 3.5625 8.0039 7.9336 8.0039 4.3906 0 7.9336-3.625 7.9336-8.0039v-15.77c-0.003907-4.418-3.543-7.8945-7.9336-7.8945z"/>
  <path d="m724.14 845.77c-4.1992-0.14453-8.2188 2.8906-8.5781 7.2461l-1.2461 15.758c-0.38281 4.3555 2.8789 8.207 7.1875 8.5078 0.22656 0.085938 0.44531 0.085938 0.64844 0.085938 4.1523 0 7.5469-3.1094 7.9219-7.2461l1.3672-15.828c0.25781-4.2891-2.9219-8.1406-7.3008-8.5234z"/>
  <path d="m727.91 798.49c-3.6836-0.44531-8.1133 2.8672-8.4844 7.1523l-1.2617 15.852c-0.35938 4.3672 2.9023 8.2422 7.2344 8.5078 0.15625 0 0.46875 0.097656 0.61328 0.097656 4.1641 0 7.6094-3.1914 7.9336-7.332l1.2617-15.742c0.37109-4.4688-2.9141-8.2578-7.2969-8.5352z"/>
  <path d="m748.3 666.89c-5.7461 3.7812-10.164 5.6992-12.191 6.5039-0.78125-3.0234-2.6992-5.543-5.9531-5.9883-4.2969-0.67188-8.3047 2.5195-8.9023 6.8164-0.66016 5.2422-1.7773 9.6016-3.3242 13.176-1.7539 3.9258 0 8.6523 4.0078 10.344 1.1289 0.51562 2.1719 0.74219 3.2773 0.74219 3.0234 0 5.832-1.7656 7.2344-4.7266 2.1484-4.8242 3.6719-10.738 4.5586-17.473-0.55078 4.2852-1.8945 7.4648-2.8906 11.027 1.3672 0.96094 2.8906 1.5352 4.5352 1.5352 0.98437 0 1.957-0.21484 2.8906-0.57422 2.7969-1.1289 8.5664-3.6484 15.48-8.207 3.6016-2.4609 4.5703-7.3672 2.207-10.969-2.4453-3.6953-7.332-4.6406-10.93-2.207z"/>
  <path d="m720.21 893.15c-3.6953-0.21484-8.1133 2.8906-8.4844 7.2461l-1.2461 15.758c-0.37109 4.3672 2.8789 8.2305 7.2344 8.5195 0.22656 0.070313 0.37109 0.070313 0.61328 0.070313 4.1523 0 7.5469-3.1797 7.9219-7.3203l1.2617-15.77c0.26172-4.3516-2.9062-8.1328-7.3008-8.5039z"/>
  <path d="m716.38 940.51c-3.4922-0.28906-8.1602 2.8906-8.5195 7.2461l-1.2617 15.781c-0.28906 4.3438 2.9883 8.1953 7.2852 8.4961h0.55078c4.1523 0 7.5469-3.1094 7.9336-7.2461l1.2461-15.77c0.38672-4.3438-2.8672-8.207-7.2344-8.5078z"/>
  <path d="m731.77 751.13c-3.5391-0.37109-8.1602 2.8906-8.5312 7.2461l-1.2617 15.742c-0.35938 4.3672 2.9023 8.1602 7.2852 8.5195 0.14453 0 0.40625 0.085937 0.55078 0.085937 4.1172 0 7.5586-3.2031 7.9453-7.2617l1.2461-15.816c0.38281-4.4023-2.8906-8.2031-7.2344-8.5156z"/>
  <path d="m735.62 703.75c-4.2969-0.28906-8.125 2.8906-8.5078 7.2461l-1.2461 15.84c-0.46875 4.2734 2.7969 8.1367 7.1875 8.5078h0.66016c4.0664 0 7.5703-3.0977 7.9336-7.2461l1.2461-15.816c0.35937-4.3086-2.9062-8.1602-7.2734-8.5312z"/>
 </g>
</svg>
