<?xml version="1.0" encoding="UTF-8"?>
<svg width="1200pt" height="1200pt" version="1.1" viewBox="0 0 1200 1200" xmlns="http://www.w3.org/2000/svg">
 <path d="m387 1003.1c-15.609 0-31.078-4.9219-44.297-14.531-23.391-17.062-34.922-45.375-30-73.781l32.156-187.78c1.0781-6.375-0.9375-12.703-5.625-17.297l-136.45-133.08c-20.766-20.156-28.078-49.781-19.078-77.391 8.8594-27.469 32.297-47.156 60.938-51.375l188.63-27.375c6.375-0.9375 11.859-4.9219 14.625-10.688l84.375-170.86c12.844-25.922 38.766-42.141 67.688-42.141s54.844 16.078 67.688 42.141l84.375 170.86c2.8594 5.7656 8.2969 9.7031 14.625 10.688l188.63 27.375c28.688 4.2188 51.938 23.859 60.938 51.375 8.8594 27.469 1.5469 57.234-19.078 77.391l-136.45 133.08c-4.5469 4.4531-6.7031 10.922-5.625 17.297l32.297 187.78c4.9219 28.547-6.6094 56.766-30 73.781-23.391 17.062-53.859 19.219-79.547 5.7656l-168.71-88.688c-5.7656-3-12.469-3-18.141 0l-168.71 88.688c-11.156 5.8594-23.156 8.7656-35.156 8.7656zm213-750.24c-3.6094 0-12.609 1.0781-17.531 10.922l-84.375 170.86c-11.062 22.312-32.297 37.688-56.859 41.297l-188.63 27.375c-10.781 1.5469-14.625 9.8438-15.703 13.312s-2.8594 12.375 4.9219 20.062l136.45 133.08c17.766 17.391 25.922 42.375 21.703 66.844l-32.156 187.78c-1.7812 10.781 4.7812 16.922 7.7812 19.078s10.781 6.6094 20.531 1.4531l168.71-88.688c21.938-11.531 48.234-11.531 70.219 0l168.71 88.688c9.7031 5.1562 17.625 0.60938 20.531-1.4531 3-2.1562 9.6094-8.2969 7.7812-19.078l-32.297-187.78c-4.2188-24.469 3.9375-49.453 21.703-66.844l136.45-133.08c7.7812-7.6875 6-16.547 4.9219-20.062-1.0781-3.4688-4.9219-11.766-15.703-13.312l-188.63-27.375c-24.609-3.6094-45.844-18.938-56.859-41.297l-84.375-170.86c-4.7812-9.8438-13.781-10.922-17.531-10.922z"/>
</svg>
