<?xml version="1.0" encoding="UTF-8"?>
<svg width="1200pt" height="1200pt" version="1.1" viewBox="0 0 1200 1200" xmlns="http://www.w3.org/2000/svg">
 <path d="m607.18 1173.4c-687.16-14.844-798.59-977.36-131.77-1146.1 7.0273-1.5234 14.371-0.31641 20.539 3.3789 6.1719 3.6953 10.703 9.6016 12.676 16.516 1.9766 6.9141 1.2461 14.324-2.043 20.719-36.16 67.18-55.051 142.3-54.965 218.59-5.7227 342.74 381.33 574.2 680.46 406.85 6.4023-3.2852 13.812-4.0078 20.73-2.0312 6.918 1.9805 12.82 6.5156 16.516 12.688 3.6953 6.1758 4.9062 13.523 3.3828 20.555-29.32 127.89-101.28 242.01-204.06 323.57-102.78 81.57-230.25 125.74-361.46 125.25zm-176.68-1074.5c-102.01 36.102-190.27 103.03-252.57 191.52-62.293 88.484-95.531 194.14-95.113 302.36 9.6211 587.53 814.88 724.68 1018.2 176.66-414.34 164.48-834.96-256.34-670.55-670.53z"/>
</svg>
