<?xml version="1.0" encoding="UTF-8"?>
<svg width="1200pt" height="1200pt" version="1.1" viewBox="0 0 1200 1200" xmlns="http://www.w3.org/2000/svg">
 <path d="m348.94 143.95c28.172-28.172 66.328-43.969 106.08-43.969h289.97c39.75 0 77.906 15.797 106.08 43.969l204.98 204.98c28.125 28.172 43.969 66.328 43.969 106.08v289.97c0 39.75-15.844 77.906-43.969 106.08l-204.98 204.98c-28.172 28.125-66.328 43.969-106.08 43.969h-289.97c-39.75 0-77.906-15.844-106.08-43.969l-204.98-204.98c-28.172-28.172-43.969-66.328-43.969-106.08v-289.97c0-39.75 15.797-77.906 43.969-106.08zm106.08 56.062c-13.266 0-25.969 5.25-35.344 14.625l-205.03 205.03c-9.375 9.375-14.625 22.078-14.625 35.344v289.97c0 13.266 5.25 25.969 14.625 35.344l205.03 205.03c9.375 9.375 22.078 14.625 35.344 14.625h289.97c13.266 0 25.969-5.25 35.344-14.625l205.03-205.03c9.375-9.375 14.625-22.078 14.625-35.344v-289.97c0-13.266-5.25-25.969-14.625-35.344l-205.03-205.03c-9.375-9.375-22.078-14.625-35.344-14.625z" fill-rule="evenodd"/>
</svg>
