<?xml version="1.0" encoding="UTF-8"?>
<svg width="1200pt" height="1200pt" version="1.1" viewBox="0 0 1200 1200" xmlns="http://www.w3.org/2000/svg">
 <path d="m1061.6 600c-3.3594 192.84-121.8 369.36-305.64 434.76-89.629 32.148-187 35.809-278.79 10.469-91.785-25.34-173.5-78.434-233.94-152.02-60.438-73.578-96.656-164.04-103.68-259-7.0312-94.961 15.469-189.77 64.414-271.45 49.719-81.77 123.4-146.25 211.03-184.7 87.633-38.449 184.97-49 278.81-30.219 214.56 44.16 364.08 236.16 367.8 452.16 0 23.16 36 23.16 36 0-0.87891-101.43-32.34-200.23-90.277-283.5-57.934-83.262-139.64-147.11-234.44-183.18-96.629-35.77-201.98-40.672-301.51-14.031-99.531 26.641-188.34 83.512-254.18 162.77-65.84 79.258-105.46 176.99-113.39 279.72-7.9375 102.73 16.199 205.39 69.086 293.82 52.367 86.164 129.44 154.59 221.2 196.38 91.766 41.793 193.98 55.023 293.36 37.977 237.48-41.762 406.08-252 410.28-489.96 0.23828-23.16-35.762-23.16-36.121 0z"/>
 <path d="m931.56 600c-4.1992 180.6-147.72 331.56-331.56 331.56-87.684-0.8125-171.54-36.004-233.55-98.008-62.004-62.008-97.195-145.87-98.008-233.55 0.78125-87.691 35.965-171.57 97.977-233.58 62.008-62.012 145.89-97.195 233.58-97.977 183.96 0 327.36 150.6 331.56 331.56 0 23.16 36 23.16 36 0-0.76172-74.477-23.797-147.02-66.141-208.29-42.348-61.273-102.06-108.47-171.46-135.51-72.336-26.84-151.24-30.43-225.72-10.273-74.473 20.156-140.8 63.055-189.72 122.71-210.96 261.12 25.32 654.72 354.84 592.32 173.88-33 294.12-186.96 298.2-360.96 0.48047-23.16-35.52-23.16-36 0z"/>
</svg>
