<?xml version="1.0" encoding="UTF-8"?>
<svg width="1200pt" height="1200pt" version="1.1" viewBox="0 0 1200 1200" xmlns="http://www.w3.org/2000/svg">
 <path d="m600 1125c-139.24 0-272.77-55.312-371.23-153.77s-153.77-231.99-153.77-371.23 55.312-272.77 153.77-371.23 231.99-153.77 371.23-153.77 272.77 55.312 371.23 153.77 153.77 231.99 153.77 371.23c0 92.156-24.258 182.69-70.336 262.5-46.078 79.809-112.36 146.09-192.16 192.16-79.809 46.078-170.34 70.336-262.5 70.336zm0-975c-119.35 0-233.81 47.41-318.2 131.8s-131.8 198.85-131.8 318.2 47.41 233.81 131.8 318.2 198.85 131.8 318.2 131.8 233.81-47.41 318.2-131.8 131.8-198.85 131.8-318.2-47.41-233.81-131.8-318.2-198.85-131.8-318.2-131.8z"/>
</svg>
