<?xml version="1.0" encoding="UTF-8"?>
<svg width="1200pt" height="1200pt" version="1.1" viewBox="0 0 1200 1200" xmlns="http://www.w3.org/2000/svg">
 <path d="m191.11 884.29c19.762 33.367 103.84 36.246 199.57-15.094 90.59-48.582 141.52-104.86 181.44-170.5 33.031-54.305 58.547-115.02 92.805-183.07 48.445-96.215 106.48-160.96 213.16-204.06 77.234-31.207 136.84-30.266 150.6-6.8086 7.0938 12.113 0.35547 35.676-17.738 60.465-39.91 54.684-114.59 129.75-258.79 181.55l-0.050781-2.3945c-1.418 3.3008-2.6953 6.9219-3.8711 10.809-29.859 66.363-47.832 157.68-72.016 229.05-50.793 149.91-150.51 295.76-386.54 331.43 30.828 16.383 39.469 25.461 76.188 38.57 200.48-51.781 302.38-200.68 337.94-361.51 13.027-58.949 16.832-121.67 35.32-184.69-5.5977 56.938-5.3906 133.57-15.25 204.7-21.809 157.26-98.352 294.56-281.76 366.95 31.32 7.9219 62.27 14.258 96.379 17.766 147.52-75.359 231.45-236.69 217.54-382.82-7.0781-74.27-12.426-176.9-3.8711-244.37 132.8-45.414 228.29-110.47 293.58-180.5 51.695-55.441 69.629-97.426 53.75-121.36-24.641-37.125-121.36-38.363-233.23 10.852-118.91 52.309-170.53 115.16-224.95 222.57-34.094 67.281-59.996 128.11-93.832 182.66-38.223 61.629-86.609 115.28-168.39 161.17-63.047 35.383-115.29 29.309-125.64 7.2227-15.23-32.496 24.355-68.066 71.332-97.418 42.828-26.75 86.918-46 106.07-55.383-17.953 32.219-55.441 56.16-96.129 76.465-77.664 38.758-50.043 95.809 37.102 50.191 51.453-26.941 88.172-60.609 117.61-98.887 51.695-67.195 82.832-148.29 124.75-235.32 98.938-205.46 266-287.02 441.79-280.76-14.594-18.887-32.027-39.555-46.508-50.414-163.42-4.8398-332.8 106.59-427.42 317.75-42 93.734-63.227 169.76-111.23 233.52-26.594 35.312-61.543 66.82-113.15 95.324-26.316 14.531-35.285-2.6367-10.559-14.359 43.512-20.633 86.719-53.785 106.98-94.59 41.629-83.902 71.117-160.17 99.457-229.94 70.098-172.59 183.2-312.08 416.3-342.33-22.336-16.625-43.754-31.891-61.258-42.016-186.75 21.668-326 166.6-386.13 374.05-19.891 68.602-43.977 137.32-66.598 203.99-33.266 11.23-92.934 38.77-147.77 72.5-76.031 46.762-142.79 105.44-116.96 149.02zm601.3-146.29c79.145 219.25 69.934 323.98 12.035 426.71 35.02-11.699 68.246-29.039 89.605-40.988 39.555-131.88-57.645-294.33-101.64-385.73zm-457.91-675.48c19.277-9.6602 39.684-17.773 55.938-23.906-59.762 171.34 19.613 348.74 21.602 354.66-26.309-95.238-40.445-272.16 29.738-371.38 1.5742-2.2188 59.98-14.273 86.875-16.641-127.74 121.03-111.87 305.59-98.965 447.16-81.777-148.02-127.9-271.95-95.18-389.89zm137.64 526.15c2.5391-59.918 4.543-103.41 11.492-149.59 14.738-97.891 34.836-181.01 80.887-252.53 45.828-71.16 117.67-132.14 205.19-162.65 1.3398 0 63.281 19.266 94.195 36.566-109.16 21.945-194.42 70.953-260.94 161.26-50.465 68.523-85.52 149.22-101.9 224.19-9.125 41.766-14.887 84.23-28.926 142.75zm661 287.44c3.9844-7.4375 7.4062-14.902 10.914-22.152l-235.56-55.719c39.227 22.535 212.4 76.656 224.65 77.871zm-285.15-105.85c51.168 5.418 243.29 12.613 324.78 9.4258 3.1797-9.0117 6.2539-21.039 8.8984-31.234-106.96 8.3359-246.37 11.18-342.99 10.359l9.3242 11.438zm-837.85-280.49c96.051-18.16 284.04-36.332 388.89-38.727l-8.8125-11.188c-99.992-4.1367-257.51 2.8516-372.25 14.594-3.4219 12.148-5.4609 22.414-7.8359 35.32zm139.44-285.2c40.375 53.594 162.18 171.84 232.7 222.71-57.594-66.656-142.04-179.73-183.78-272.21-16.684 14.496-37.637 36.203-48.91 49.508zm-148.3 356.94c75.504-24.711 301.48-76.207 414.21-86.324l-9.1914-12.562c-63.883-1.7617-306.05 35.219-401.03 58.363-1.5977 10.266-2.4453 18.18-3.9922 40.531zm789.57 132c84.871-15.5 343.3-92.215 409.12-132.91l-3.7148-42.043c-95.438 54.242-272.31 123.55-418.93 155.04 4.0703 7.4375 8.1484 12.863 13.523 19.926zm-785.17-9.5195c2.4453 18.465 5.7539 35.191 9.6758 51.262 102.08-68.852 285.81-155.01 432.41-188.22l-8.0859-21.316c-117.2 18.246-342.46 103.8-434 158.28zm1044.3 313.59c8.6914-9.168 26.992-32.047 35.805-44.688-34.516-28.082-134.01-104.56-175.9-131.93 54.434 26.359 140.26 76.031 193.97 105.99 4.6758-7.4297 13.617-22.352 17.789-29.418-56.738-26.25-195.75-78.453-243.69-109.87 82.383 14.258 179.05 34.008 274.98 46.156 3.2734-7.25 7.25-17.375 10.914-27.293-107.02-7.3008-215.89-17.617-312.23-31.633 50.379 65.578 156.36 143.44 198.37 222.67zm-292.68-407.57-1.2695 25.902c142.86-40.34 339.92-150.28 403.04-233.39-5.8594-15.18-14.18-34.977-23.848-53.293-71.875 113.49-225.8 212.16-377.92 260.77zm-662.55-312.74c47.285 27.941 142.82 81.82 196.04 109-47.77-16.383-166.21-71.523-208.92-87.922-4.7344 7.5859-9.3555 16.113-12.578 22.559 56.43 21.039 193.43 68.359 246.53 82.781-79.055-19.07-197.91-48.602-257.38-61.199-3.5156 6.7305-9.4531 19.957-12.941 29.395 82.469 11.785 193.18 28.34 278.11 46.242-85.918-9.0039-217.39-21.875-287.06-23.641-3.8633 9.7461-7.7148 21.645-11.336 34.086 76.102-7.1875 301.82-1.8242 351.14 1.2109-47.918-27.762-239.29-169.18-256.8-188.2-7.4922 9.6602-18.508 25.488-24.789 35.691zm693.86 431.74c43.277 88.898 171.69 240.95 155.17 383.52 19.621-13.375 55.469-42.242 69.215-56.539-9.582-53.387-179.69-266.57-224.38-326.97zm25.773 13.16c94.488-11.621 304.41-48.645 384.27-79.715 0.80469-11.008 1.3555-24.867 1.4102-37.574-113.06 43.391-260.07 76.613-397.11 102.19zm17.219 25.809c110.72-3.4648 278.45-18.551 357.68-33.375 2.418-11.922 4.5703-24.902 5.8477-36.254-66.32 16.285-266.23 49.438-374.15 54.734l10.617 14.887zm-410.92-258.92c-84.008 11.43-286.45 57.223-420.54 107.66-0.27734 14.531 0.19922 28.598 1.3906 46.016 83.566-41.895 285.03-108.72 431.32-134.93l-12.176-18.75zm19.102 17.754c-8.6562-37.438-28.098-72.629-52.73-115.17-57.023-98.496-117.77-210.34-81.441-313.36-26.207 13.875-41.523 24.883-63.883 41.707 7.3594 115.37 71.824 195.28 131.63 279.44 24.355 34.266 48.16 68.352 66.426 107.39zm-265.66 518.16c16.82 16.82 40.297 39.391 57.164 50.434 229.74-18.516 400.23-175.32 447.67-367.62 8.2695-33.516 38.023-115.16 60.859-166.37 11.094-24.875 21.125-42.863 31.656-56.859 8.1641-10.852 17.953-20.078 28.633-28.41 19.328-15.066 41.238-26.93 62.242-39.777 14.367-8.7969 28.305-18.059 40.695-29.125 14.188-12.676 11.734-23.312-12.727-15.121-13.816 4.6328-29.809 13.16-45.688 23.508-20.996 13.676-41.801 30.559-57.129 45.828-11.844 11.801-23.113 22.801-31.148 33.582-11 14.758-21.93 32.816-33.879 56.758-25.996 52.055-59.07 133.96-70.977 170.34-60.48 184.66-243.96 339.47-477.38 322.84zm583.04-386.43c-1.2773 31.363 7.6719 83.004 12.961 116.02 26.137 163.12-7.1797 363.3-138.76 445.44 42.441-2.168 67.082-6.1445 109.95-16.277 98.473-123.73 82.59-289.98 44.633-430.63-8.4492-31.312-15.422-62.961-19.121-95.023 119.81-33.344 326.95-117.11 419.85-182.97-2.8086-13.555-7.0859-30.516-11.301-45.602-100.21 74.598-267.21 165.16-418.2 209.04zm-136-638.55c-65.906 31.961-110.87 88.336-139.78 155.79-54.199 126.45-52.004 291.84-25.574 408.4-126.64 45.68-319.2 120.64-429.07 213.84 5.4414 17.887 10.988 33.859 17.074 47.484 68.5-98.945 305.25-192.66 419.36-236.15-0.35547-141.6-0.015625-297.06 61.691-414.51 38.258-72.828 100.12-131.03 200.04-162.25-35.391-6.6875-70.32-10.531-103.74-12.605zm-167 639.23c3.3086-7.5352 5.3555-18.723 6.7734-27.016-107.84 36.461-269.23 122.71-342.07 206.92-27.621 31.934-42.578 73.672-20.176 111.27 54.043 90.703 211.38 50.059 291.17 10.047 113.89-56.012 182.03-124.59 230.91-213.92 27.562-50.371 59.082-139.78 84.691-192.79 41.887-86.738 95.215-145.02 181.14-178.53 82.781-32.289 66.855 13.875 27.82 49.543-35.328 32.289-118.84 75.316-130.02 81.051-13.391 6.8672-20.66 25.973-27.156 42.551 26.473-10.887 118.2-59.617 175.25-108.94 39.555-34.188 67.645-70.867 51.789-95.195-15.23-18.367-72.094-6.9102-106.31 7.1641-87.168 35.848-141.83 86.418-194.16 191-26.152 54.422-59.07 133.49-89.414 185.98-46.898 81.105-115.92 150.76-222.43 200.11-150.28 69.629-276.22 32.926-219.81-66.055 42.199-74.055 199.07-168.79 301.99-203.19z" fill-rule="evenodd"/>
</svg>
