<?xml version="1.0" encoding="UTF-8"?>
<svg width="1200pt" height="1200pt" version="1.1" viewBox="0 0 1200 1200" xmlns="http://www.w3.org/2000/svg">
 <path d="m181.07 1009.4c-0.21094-1.0039-0.82812-1.875-1.707-2.4102-0.71094-0.54688-1.5938-0.82812-2.4883-0.79688-15.414-3.1016-30.918-5.6992-46.508-7.7969-15.164-3.2266-30.816-3.3789-46.039-0.44922-12.492 2.8984-22.855 11.578-27.906 23.367-4.2539 12.203-1.9844 25.734 6.0195 35.879 7.4297 9.0742 18.18 14.805 29.855 15.918-4.6602 6.582-7.0508 14.496-6.8086 22.555 0.19922 9.7617 4.1328 19.078 10.984 26.035 6.8516 6.957 16.109 11.027 25.867 11.379 8.875 0.23438 17.562-2.5859 24.605-7.9883 2.6016 7.1016 8.1758 12.715 15.262 15.363 5.6641 1.8555 11.746 2.0312 17.504 0.50391 5.7617-1.5312 10.957-4.6992 14.953-9.1172 8.875-9.7383 13.594-22.555 13.148-35.719-0.16406-14.527-2.6562-28.93-7.375-42.668-5.2031-15.203-11.68-29.941-19.367-44.055zm-115.95 15.27c4.3008-9.6211 13.141-16.445 23.535-18.176 13.246-2.0469 26.754-1.7031 39.883 1.0117 11.996 1.5977 23.941 3.5156 35.84 5.7617-15.52 10.258-29.641 22.641-44.305 34.016v-0.003906c-7.0469 5.1523-13.77 10.734-20.125 16.715-10.527 0.75781-20.871-3.0625-28.379-10.48-3.5898-3.7695-6.0898-8.4453-7.2266-13.527-1.1367-5.082-0.86719-10.375 0.77734-15.316zm63.488 98.621-0.003906 0.003906c-7.9609 1.4336-16.156-0.5625-22.566-5.4961-6.4102-4.9297-10.441-12.34-11.098-20.402-1.707-19.363 15.719-31.172 29.23-41.562 15.602-11.996 30.469-25.258 47.055-35.926v0.003906c0.42969 21.109-3.4219 42.086-11.312 61.672-5.6875 16.758-11.23 37.941-31.309 41.711zm65.824-7.1797-0.003906 0.003906c-3.7344 8.8008-11.699 15.094-21.125 16.688-9.1367 0.80469-19.848-6.6484-18.09-16.617 4.0938-6.3594 7.3398-13.227 9.6641-20.426 8.707-21.16 14.02-43.566 15.746-66.387 8.2148 16.48 13.887 34.113 16.816 52.293 2.3789 11.531 1.332 23.508-3.0117 34.449z"/>
 <path d="m1120.2 999.39c-14.461-4.2656-29.75-4.8906-44.512-1.8281-17.617 2.2227-35.137 5.0859-52.555 8.5859-0.90234-0.035156-1.7891 0.25-2.5039 0.80078-0.87109 0.53125-1.4883 1.4023-1.7031 2.4023-14.539 24.836-23.609 52.488-26.602 81.113-1.4102 13.426 2.1484 26.906 10.004 37.887 3.5117 4.8555 8.2852 8.6602 13.801 11 5.5195 2.3438 11.574 3.1289 17.508 2.2812 8.9805-1.707 16.379-8.0586 19.43-16.676 4.9688 3.9531 10.879 6.5469 17.152 7.5273 9.7695 1.7031 19.82-0.45703 28.027-6.0273 8.0078-5.7695 13.531-14.355 15.457-24.035 1.9297-9.6797 0.11719-19.73-5.0703-28.125-0.26953-0.44141-0.57422-0.85156-0.85937-1.2812 9.9883-1.0078 19.355-5.3281 26.609-12.273 9.1758-9.1641 13.121-22.332 10.504-35.031-3.2344-12.395-12.527-22.301-24.688-26.32zm-89.723 133.33c-4.6523 0.14844-9.25-0.99219-13.293-3.293-4.043-2.3047-7.3672-5.6797-9.6133-9.7578-5.4531-10.133-7.418-21.777-5.5898-33.141 1.2773-12.098 4.0391-23.996 8.2188-35.418 2.6875-7.4297 5.7578-14.711 9.1875-21.824 1.2734 19.715 5.5352 39.121 12.645 57.559 2.8633 10.293 7.1523 20.141 12.746 29.246 0.29297 4.0977-1.043 8.1484-3.7227 11.262-2.6797 3.1172-6.4805 5.0469-10.578 5.3672zm47.18-9.043v0.003907c-8.4492 0.32422-16.621-3.0547-22.375-9.2461-0.66406-0.72266-1.2734-1.4883-1.8711-2.2578v-0.003906c-0.23047-0.55078-0.58594-1.043-1.0352-1.4375-4.0547-6.4648-7.2109-13.449-9.3828-20.766-9.5195-22.137-14.363-46-14.238-70.094 14.422 9.2852 27.539 20.559 40.977 31.164 13.238 10.449 32.824 21.344 35.246 39.816 1.0898 8.0469-1.2461 16.18-6.4414 22.418-5.1953 6.2422-12.77 10.016-20.879 10.406zm53.309-73.227c-7.3203 9.3164-18.797 14.375-30.613 13.496-4.3789-4.2969-9.0703-8.2656-14.031-11.871-16.969-12.73-32.926-27.16-50.68-38.859 10.102-1.8867 20.242-3.5586 30.422-5.0117l0.003906-0.003906c13.508-2.75 27.332-3.6094 41.074-2.5469 10.754 0.91797 20.477 6.7656 26.324 15.84 2.2695 4.5938 3.2344 9.7227 2.793 14.828-0.44141 5.1055-2.2734 9.9883-5.293 14.129z"/>
 <path d="m79.801 200.61c14.461 4.2656 29.75 4.8906 44.512 1.8281 17.617-2.2227 35.137-5.0859 52.555-8.5859 0.90234 0.035156 1.7891-0.25 2.5039-0.80078 0.87109-0.53125 1.4883-1.4023 1.7031-2.4023 14.539-24.836 23.609-52.488 26.602-81.113 1.4141-13.426-2.1484-26.906-10.004-37.887-3.5117-4.8555-8.2852-8.6602-13.801-11-5.5195-2.3438-11.574-3.1289-17.508-2.2812-8.9805 1.707-16.379 8.0586-19.43 16.676-4.9688-3.9531-10.879-6.5469-17.148-7.5273-9.7734-1.7031-19.824 0.45703-28.031 6.0273-8.0078 5.7695-13.531 14.355-15.457 24.035-1.9297 9.6797-0.11719 19.73 5.0703 28.125 0.26953 0.44141 0.57422 0.85156 0.85937 1.2812-9.9883 1.0078-19.355 5.3281-26.609 12.273-9.1758 9.1641-13.121 22.332-10.504 35.031 3.2344 12.395 12.527 22.301 24.688 26.32zm89.723-133.33c4.6523-0.14844 9.25 0.99219 13.293 3.293 4.043 2.3047 7.3672 5.6797 9.6133 9.7578 5.4531 10.133 7.418 21.777 5.5898 33.141-1.2773 12.098-4.0391 23.996-8.2188 35.418-2.6875 7.4297-5.7539 14.711-9.1875 21.824-1.2695-19.715-5.5352-39.121-12.641-57.559-2.8672-10.293-7.1562-20.141-12.75-29.246-0.29297-4.0977 1.043-8.1484 3.7227-11.262 2.6797-3.1172 6.4805-5.0469 10.578-5.3672zm-47.18 9.043v-0.003907c8.4492-0.32422 16.621 3.0547 22.375 9.2461 0.66406 0.72266 1.2734 1.4883 1.8711 2.2578l-0.003906 0.003906c0.23437 0.55078 0.58984 1.043 1.0391 1.4375 4.0547 6.4648 7.2109 13.449 9.3828 20.766 9.5195 22.137 14.363 46 14.238 70.094-14.422-9.2852-27.539-20.559-40.977-31.164-13.238-10.449-32.824-21.344-35.246-39.816-1.0898-8.0469 1.2461-16.18 6.4414-22.418 5.1953-6.2422 12.77-10.016 20.879-10.406zm-53.309 73.227c7.3203-9.3164 18.797-14.375 30.613-13.496 4.3789 4.2969 9.0703 8.2656 14.031 11.871 16.969 12.73 32.93 27.16 50.68 38.859-10.102 1.8867-20.242 3.5586-30.422 5.0117v0.003906c-13.508 2.75-27.332 3.6094-41.078 2.5469-10.754-0.91797-20.477-6.7656-26.324-15.84-2.2656-4.5938-3.2305-9.7227-2.793-14.828 0.44141-5.1055 2.2734-9.9883 5.293-14.129z"/>
 <path d="m1018.9 190.65c0.21094 1.0039 0.82812 1.875 1.707 2.4102 0.71094 0.54688 1.5938 0.82812 2.4922 0.79688 15.414 3.1016 30.918 5.6992 46.508 7.7969h-0.003906c15.164 3.2266 30.816 3.3789 46.039 0.44922 12.492-2.8984 22.855-11.578 27.906-23.367 4.2539-12.203 1.9844-25.734-6.0195-35.879-7.4336-9.0742-18.18-14.805-29.855-15.918 4.6602-6.582 7.0508-14.496 6.8086-22.555-0.19922-9.7617-4.1328-19.078-10.984-26.035-6.8516-6.957-16.109-11.027-25.867-11.379-8.875-0.23438-17.562 2.5859-24.605 7.9883-2.6016-7.1016-8.1758-12.711-15.262-15.363-5.6641-1.8555-11.746-2.0312-17.504-0.50391-5.7617 1.5312-10.957 4.6992-14.953 9.1211-8.875 9.7344-13.594 22.551-13.148 35.715 0.16406 14.527 2.6562 28.93 7.375 42.668 5.2031 15.203 11.68 29.941 19.367 44.055zm115.95-15.27h-0.003906c-4.3008 9.6211-13.137 16.445-23.535 18.176-13.246 2.0469-26.754 1.7031-39.879-1.0117-11.996-1.5977-23.941-3.5156-35.84-5.7617 15.516-10.258 29.641-22.641 44.305-34.016l-0.003906 0.003906c7.0469-5.1523 13.77-10.734 20.125-16.715 10.527-0.75781 20.871 3.0625 28.379 10.48 3.5898 3.7695 6.0898 8.4453 7.2266 13.527 1.1367 5.082 0.86719 10.375-0.77734 15.316zm-63.488-98.625c7.9609-1.4336 16.156 0.5625 22.566 5.4961 6.4102 4.9297 10.441 12.34 11.098 20.402 1.7031 19.363-15.719 31.172-29.23 41.562-15.598 11.996-30.469 25.258-47.055 35.926v-0.003906c-0.42969-21.109 3.4219-42.086 11.312-61.672 5.6875-16.758 11.23-37.941 31.309-41.711zm-65.824 7.1797c3.7344-8.8008 11.699-15.094 21.125-16.688 9.1367-0.80469 19.848 6.6484 18.09 16.617-4.0898 6.3594-7.3398 13.227-9.6602 20.426-8.7109 21.16-14.023 43.566-15.75 66.387-8.2148-16.48-13.887-34.113-16.816-52.293-2.3789-11.531-1.332-23.508 3.0117-34.449z"/>
 <path d="m1116.6 946.82h4.9883v-693.63h-4.9883c-45.012-0.050782-88.168-17.957-120-49.785-31.832-31.828-49.734-74.984-49.785-120v-4.9883h-693.63v4.9883c-0.050782 45.012-17.953 88.168-49.785 120-31.828 31.828-74.984 49.734-120 49.785h-4.9883v693.63h4.9883c45.012 0.050782 88.168 17.953 120 49.785 31.832 31.828 49.734 74.984 49.785 120v4.9883h693.63v-4.9883c0.050782-45.012 17.953-88.168 49.785-120 31.828-31.832 74.984-49.734 120-49.785zm-179.69 164.8h-673.82c-1.332-45.914-20.164-89.582-52.645-122.06-32.477-32.48-76.145-51.312-122.06-52.645v-673.82c45.914-1.332 89.582-20.164 122.06-52.645 32.48-32.477 51.312-76.145 52.645-122.06h673.82c1.332 45.914 20.164 89.582 52.645 122.06 32.477 32.48 76.145 51.312 122.06 52.645v673.82c-45.914 1.332-89.582 20.164-122.06 52.645-32.48 32.477-51.312 76.145-52.645 122.06z"/>
 <path d="m915.29 131.05v-4.9883l-630.58 0.003906v4.9883-0.003906c-0.046876 40.742-16.25 79.797-45.059 108.61s-67.863 45.012-108.61 45.059h-4.9883l0.003906 630.58h4.9883-0.003906c40.742 0.046876 79.797 16.25 108.61 45.059s45.012 67.863 45.059 108.61v4.9883l630.58-0.003906v-4.9844c0.046876-40.742 16.25-79.797 45.059-108.61s67.863-45.012 108.61-45.059h4.9883l-0.003906-630.58h-4.9883 0.003906c-40.742-0.046876-79.797-16.25-108.61-45.059s-45.012-67.863-45.059-108.61zm148.68 774.34c-41.637 1.3203-81.211 18.449-110.67 47.906s-46.586 69.031-47.906 110.67h-610.78c-1.3203-41.637-18.449-81.211-47.906-110.67s-69.031-46.586-110.67-47.906v-610.78c41.637-1.3203 81.211-18.449 110.67-47.906s46.586-69.031 47.906-110.67h610.78c1.3203 41.637 18.449 81.211 47.906 110.67s69.031 46.586 110.67 47.906z"/>
</svg>
