<?xml version="1.0" encoding="UTF-8"?>
<svg width="1200pt" height="1200pt" version="1.1" viewBox="0 0 1200 1200" xmlns="http://www.w3.org/2000/svg">
 <path d="m625.08 194.86c-5.1562-8.8594-14.766-14.391-25.078-14.391s-19.922 5.5312-25.078 14.391l-451.08 781.36c-5.0625 8.8594-5.0625 19.922 0 28.922 5.1562 8.8594 14.766 14.391 25.078 14.391h902.16c10.312 0 19.922-5.5312 25.078-14.391 5.0625-9 5.0625-20.062 0-28.922zm230.63 683.06c-5.0625 8.8594-14.625 14.391-24.938 14.391h-461.53c-10.312 0-19.922-5.5312-24.938-14.391-5.1562-9-5.1562-20.062 0-28.922l230.63-399.71c5.1562-8.8594 14.766-14.391 25.078-14.391s19.922 5.5312 25.078 14.391l230.63 399.71c5.1562 8.8594 5.1562 19.922 0 28.922z"/>
 <path d="m419.29 834.61h361.4l-180.71-312.98z"/>
</svg>
