<?xml version="1.0" encoding="UTF-8"?>
<svg width="1200pt" height="1200pt" version="1.1" viewBox="0 0 1200 1200" xmlns="http://www.w3.org/2000/svg">
 <path d="m909.94 681.94 246.98 427.82c13.266 23.062-3.6562 51.609-29.812 51.562v0.14062h-496.13c-25.688 0-44.719-28.219-28.641-53.906l246.84-427.6c13.875-23.906 48.703-22.406 60.75 1.9688zm-622.5-153.66 179.76-103.78v-207.98l-179.76-103.78-179.86 103.88v207.84zm231.47-54.141-212.34 122.58c-10.594 7.0781-24.703 7.9688-36.422 1.1719l-212.26-122.53c-11.531-5.625-19.453-17.438-19.453-31.078v-247.55h0.09375c0-11.906 6.1875-23.438 17.203-29.812l214.36-123.79 0.046874 0.046875c10.266-5.9531 23.344-6.375 34.406-0.046875l211.64 122.16c11.906 5.4375 20.203 17.484 20.203 31.453v247.55h-0.14062c-0.046875 11.906-6.2812 23.484-17.344 29.859zm360.14-408.61c-140.29 0-254.95 114.66-254.95 254.95 0 224.53 273.74 341.39 435.05 180.1 161.29-161.29 44.438-435.05-180.1-435.05zm0 69.141c102.14 0 185.81 83.719 185.81 185.86 0 163.18-199.18 249.1-317.06 131.26-117.84-117.94-31.969-317.11 131.26-317.11zm-763.22 957.66h343.13v-343.13h-343.13zm377.72 69.141h-412.26c-19.078 0-34.547-15.469-34.547-34.547l-0.046876-412.26c0-19.078 15.469-34.547 34.547-34.547h412.26c19.078 0 34.547 15.469 34.547 34.547v412.26c0.046875 19.078-15.422 34.547-34.5 34.547zm573.84-69.141-188.29-326.16-188.34 326.16z" fill-rule="evenodd"/>
</svg>
