<?xml version="1.0" encoding="UTF-8"?>
<svg width="1200pt" height="1200pt" version="1.1" viewBox="0 0 1200 1200" xmlns="http://www.w3.org/2000/svg">
 <g>
  <path d="m132 612h18c6.6289 0 12-5.3672 12-12s-5.3711-12-12-12h-18c-6.6289 0-12 5.3672-12 12s5.3711 12 12 12z"/>
  <path d="m323.07 588c-6.6289 0-12 5.3672-12 12s5.3711 12 12 12h34.617c6.6289 0 12-5.3672 12-12s-5.3711-12-12-12z"/>
  <path d="m461.54 588h-34.617c-6.6289 0-12 5.3672-12 12s5.3711 12 12 12h34.617c6.6289 0 12-5.3672 12-12s-5.375-12-12-12z"/>
  <path d="m207.23 600c0 6.6328 5.3711 12 12 12h34.617c6.6289 0 12-5.3672 12-12s-5.3711-12-12-12h-34.617c-6.6289 0-12 5.3672-12 12z"/>
  <path d="m622.61 600c0 6.6328 5.3711 12 12 12h34.617c6.6289 0 12-5.3672 12-12s-5.3711-12-12-12h-34.617c-6.625 0-12 5.3672-12 12z"/>
  <path d="m876.92 588h-34.617c-6.6289 0-12 5.3672-12 12s5.3711 12 12 12h34.617c6.6289 0 12-5.3672 12-12s-5.375-12-12-12z"/>
  <path d="m565.38 588h-34.617c-6.6289 0-12 5.3672-12 12s5.3711 12 12 12h34.617c6.6289 0 12-5.3672 12-12s-5.3711-12-12-12z"/>
  <path d="m726.46 600c0 6.6328 5.3711 12 12 12h34.617c6.6289 0 12-5.3672 12-12s-5.3711-12-12-12h-34.617c-6.6289 0-12 5.3672-12 12z"/>
  <path d="m980.77 588h-34.609c-6.6289 0-12 5.3672-12 12s5.3711 12 12 12h34.609c6.6289 0 12-5.3672 12-12s-5.375-12-12-12z"/>
  <path d="m1068 588h-18c-6.6289 0-12 5.3672-12 12s5.3711 12 12 12h18c6.6289 0 12-5.3672 12-12s-5.3711-12-12-12z"/>
 </g>
</svg>
