<?xml version="1.0" encoding="UTF-8"?>
<svg width="1200pt" height="1200pt" version="1.1" viewBox="0 0 1200 1200" xmlns="http://www.w3.org/2000/svg">
 <path d="m1080 596.4v-3.6016c0-1.1992 0-2.3984-1.1992-3.6016 0-1.1992-1.1992-2.3984-1.1992-3.6016 0-1.1992-1.1992-2.3984-1.1992-3.6016 0-1.1992-1.1992-2.3984-1.1992-2.3984-1.1992-1.1992-1.1992-2.3984-2.3984-3.6016v-1.1992l-2.3984-2.3984-338.41-290.39c-10.801-8.3984-24-10.801-37.199-6-12 6-20.398 18-20.398 31.199v151.2h-519.6c-19.199 0-34.801 15.602-34.801 34.801v214.8c0 19.199 15.602 34.801 34.801 34.801h522v151.2c0 13.199 8.3984 25.199 20.398 31.199 4.8008 2.3984 9.6016 3.6016 14.398 3.6016 8.3984 0 15.602-2.3984 22.801-8.3984l336-292.8c1.1992 0 1.1992-1.1992 2.3984-2.3984l1.1992-1.1992v-1.1992c1.1992-1.1992 1.1992-2.3984 2.3984-3.6016 0-1.1992 1.1992-1.1992 1.1992-2.3984 0-1.1992 1.1992-2.3984 1.1992-3.6016 0-1.1992 1.1992-2.3984 1.1992-3.6016 0-1.1992 0-2.3984 1.1992-3.6016v-3.6016-3.6016c-1.1914 0.003906-1.1914-1.1953-1.1914-2.3984z"/>
</svg>
