<?xml version="1.0" encoding="UTF-8"?>
<svg width="1200pt" height="1200pt" version="1.1" viewBox="0 0 1200 1200" xmlns="http://www.w3.org/2000/svg">
 <path d="m572.14 625.02h55.719v50.035h-55.719z"/>
 <path d="m572.14 825.15h55.719v50.035h-55.719z"/>
 <path d="m572.14 725.09h55.719v50.035h-55.719z"/>
 <path d="m572.14 925.22h55.719v50.035h-55.719z"/>
 <path d="m572.14 1125.4h55.719v50.035h-55.719z"/>
 <path d="m572.14 1025.3h55.719v50.035h-55.719z"/>
 <path d="m572.14 424.88h55.719v50.035h-55.719z"/>
 <path d="m572.14 524.95h55.719v50.035h-55.719z"/>
 <path d="m572.14 124.68h55.719v50.035h-55.719z"/>
 <path d="m572.14 24.609h55.719v50.035h-55.719z"/>
 <path d="m572.14 324.81h55.719v50.035h-55.719z"/>
 <path d="m572.14 224.75h55.719v50.035h-55.719z"/>
</svg>
