<?xml version="1.0" encoding="UTF-8"?>
<svg width="1200pt" height="1200pt" version="1.1" viewBox="0 0 1200 1200" xmlns="http://www.w3.org/2000/svg">
 <path d="m600 0c165.67 0 315.68 67.16 424.26 175.74s175.74 258.59 175.74 424.26-67.16 315.68-175.74 424.26-258.58 175.74-424.26 175.74-315.68-67.168-424.26-175.74c-108.58-108.58-175.74-258.58-175.74-424.26s67.168-315.68 175.74-424.26c108.58-108.58 258.59-175.74 424.26-175.74zm117.12 575.99c15.363 23.312 24.391 51.746 24.391 82.391 0 39.277-14.852 74.945-38.836 100.83-24.242 26.16-57.812 42.344-94.945 42.344-37.137 0-70.703-16.184-94.945-42.344-23.992-25.887-38.836-61.551-38.836-100.83 0-30.645 9.0391-59.082 24.398-82.398-35.492 34.656-54.277 82.695-54.277 132.11 0 49.238 18.43 93.746 48.219 125.89 29.582 31.918 70.398 51.668 115.44 51.668 45.031 0 85.855-19.75 115.44-51.668 29.789-32.141 48.219-76.656 48.219-125.89 0-49.324-18.793-97.512-54.27-132.1zm-36.098 1.7031c-40.461-43.648-106.12-43.656-146.59 0-19.051 20.562-30.844 49.086-30.844 80.691 0 31.605 11.793 60.125 30.844 80.68 18.801 20.285 44.723 32.84 73.293 32.84 28.562 0 54.484-12.555 73.293-32.84 19.051-20.555 30.844-49.074 30.844-80.68 0-31.605-11.793-60.125-30.844-80.691zm112.86 99.344c1.4531 10.125 2.2109 20.496 2.2109 31.043 0 55.641-20.977 106.1-54.883 142.69-34.109 36.805-81.312 59.582-133.49 59.582-52.176 0-99.379-22.773-133.49-59.582-33.914-36.59-54.883-87.039-54.883-142.69 0-29.789 6.0117-58.105 16.812-83.594-90.125 126.27-35.062 311.48 116.35 361.04-173.23-38.328-233.58-251.92-134.19-393.48 60.988-86.867 166.76-110.52 265.95-79.203 153.71 48.547 175.09 228.19 114.04 348.13-39.27 77.156-104.12 135.83-184.8 129.65 71.41-6.1758 143.04-66 170.79-135.41 20.703-51.797 27.113-118.89 9.582-178.18zm-176.9 353.75c112.3 0 181.61-60.254 233.89-156.7 78.289-144.46 50.207-362.09-144.34-420.75-125.53-37.852-259.39-9.2617-336.59 95.73-125.8 171.08-49.414 429.24 169.84 475.56-197.63-61.758-265.59-297.92-136-450.48 71.141-83.758 184.16-112.26 293.48-74.496 169.84 58.676 186.21 247.22 135.88 367.48-35.113 83.895-129.7 163.67-216.16 163.67zm235.61-514.09c-64.324-81.105-164.31-115.98-264.91-113.86-91.117 1.9453-174.67 37.551-234.82 107.36-66.207 76.82-91.852 181.03-77.613 280.45 22.457 156.7 117.77 297.18 255.11 375.5 132.41 16.121 300.76-9.4688 381.3-126.42 75.004-108.91 112.95-295.88 51.184-462.88 106.3 168.97 32.184 395.65-16.406 476.28 20.047-15.344 39.043-31.992 56.867-49.828 19.102-19.102 36.859-39.555 53.102-61.199 57.906-299.89-68.516-582.66-349.87-624.66 298.37 8.7773 416.6 316.79 399.06 546.74 20.406-38.984 36.453-80.613 47.461-124.25 11-166.01-83.059-363.81-279.77-437.93 159.41 42.113 271.93 177.95 297.03 304.17 0.015625-2.0547 0.042969-4.1211 0.042969-6.1758 0-92.543-22.051-179.93-61.172-257.21-106.01-119.41-439.72-246.73-685.76 17.66 38.035-68.75 272.19-306.64 628.16-108.88-14.922-19.309-31.043-37.637-48.281-54.863-8.4844-8.4844-17.238-16.703-26.25-24.641-194.02-135.78-509.58-91.465-634.66 111.59 72.395-181.76 304.16-246.61 493.24-203.2-71.824-32.625-151.62-50.812-235.65-50.812-62.34 0-114.1 13.938-167.09 48.688-42.777 28.055-78.902 66.969-112.09 115.96-24.926 36.805-45.852 65.914-70.363 92.977-24.684 27.27-52.703 52.188-91.574 80.359-40.961 29.715-72.895 53.613-94.645 83.824-12.383 17.203-21.73 36.816-27.961 61.285-4.3711 28.441-6.6367 57.586-6.6367 87.258 0 68.082 11.934 133.38 33.824 193.91 1.4414-201.91 132.75-370.87 207.66-405.43-126.48 109.23-192.66 315.94-174.76 479.44 26.672 50.043 60.574 95.637 100.34 135.39 7.7148 7.7227 15.664 15.215 23.82 22.488-92.379-182.82-31.664-437.9 72.223-544.68 0.070312-0.078125-209.02 327.93-2.4375 597.91 53.672 34.77 113.57 60.766 177.63 75.953-116.73-85.363-196.43-216.49-217.12-360.86-15.25-106.54 12.492-217.75 83.41-300.04 65.008-75.438 155.38-114.05 253.9-115.93 107.95-2.0469 214.88 36.348 283.77 123.2 63.625 80.223 82.574 176.96 67.617 270.9-22.992 144.27-96.328 245.07-189.75 314.12-65.551 48.453-179.11 58.676-250.12 12.328 98.117 29.551 172.74 15.285 234.68-27.77 94.125-65.422 163.89-181.95 180.58-301.73 12.383-88.891-4.4766-179.58-62.312-252.5zm-793.54-97.918c22.352-24.875 50.793-46.043 85.363-71.117 37.574-27.242 64.43-51.07 87.809-76.887 23.543-26.008 43.91-54.336 68.246-90.281 34.121-50.371 71.359-90.754 115.42-120.46-83.445 28.441-158.19 75.68-219.19 136.68-61.699 61.691-109.31 137.46-137.64 222.07z"/>
</svg>
