<?xml version="1.0" encoding="UTF-8"?>
<svg width="1200pt" height="1200pt" version="1.1" viewBox="0 0 1200 1200" xmlns="http://www.w3.org/2000/svg">
 <path d="m541.33 470.67-60-130.67c-132 264-262.66 526.67-393.33 790.67 38.668 0 73.332 1.332 108 0 6.668 0 17.332-6.668 21.332-13.332 26.668-52 52-104 78.668-156 80-161.33 161.33-321.33 241.33-482.67 0-4 2.668-5.3359 4-8z"/>
 <path d="m788 1013.3h-21.332c-124 0-248-1.332-372-1.332-9.332 0-24 6.668-28 14.668-17.332 33.332-30.668 66.668-46.668 106.67h522.67z"/>
 <path d="m488 321.33 128-252 532 1058.7-292-2.668z"/>
</svg>
