<?xml version="1.0" encoding="UTF-8"?>
<svg width="1200pt" height="1200pt" version="1.1" viewBox="0 0 1200 1200" xmlns="http://www.w3.org/2000/svg">
 <path d="m674.53 285.19c-4.5-21.422-33.844-35.906-74.531-35.906s-70.031 14.484-74.531 35.953c-165 11.156-317.95 59.25-317.95 139.45v150.32c0 43.922 45.938 78.234 114.56 102.09l261.24 214.78v42.234c0 9.2344 7.5 16.688 16.688 16.688 9.2344 0 16.688-7.5 16.688-16.688v-42.234l261.24-214.87c68.625-23.859 114.56-58.172 114.56-102.09v-150.28c0-80.203-152.95-128.29-317.95-139.45zm242.72 337.92c-15.047 8.625-33.797 16.875-55.781 24.234-0.32812 0.09375-0.65625 0.23438-0.98438 0.32812-69.375 23.109-161.86 35.859-260.48 35.859s-191.11-12.703-260.44-35.812c-0.32812-0.09375-0.65625-0.23438-0.98438-0.32812-21.984-7.3594-40.734-15.609-55.781-24.234l-34.641-28.453c-4.7344-6.6094-7.2188-13.219-7.2188-19.688l-0.046875-16.781v-73.5c44.625 36.656 129.19 61.5 224.21 73.5 43.734 5.5312 89.672 8.3438 134.9 8.3438 45.23 0 91.172-2.8125 134.9-8.3438 95.016-12 179.58-36.844 224.21-73.5v90.188c0 6.4688-2.4844 13.078-7.2188 19.688zm-317.26 239.21-199.87-164.34c61.547 12.516 131.48 18.938 199.87 18.938 68.387 0 138.32-6.4219 199.87-18.938zm-353.86-454.4c12.188-19.875 45.234-39.984 93.422-56.016 51.328-17.109 115.41-28.547 185.29-33.281v24.797c-96.469 5.8125-205.82 23.625-229.26 64.5-2.9531 5.2031-4.5938 10.734-4.5938 16.688s1.5938 11.531 4.5938 16.688c29.906 52.312 200.02 66.844 304.4 66.844 104.39 0 274.5-14.578 304.4-66.797 2.9531-5.2031 4.5938-10.734 4.5938-16.688s-1.5938-11.531-4.5938-16.688c-23.391-40.922-132.74-58.688-229.26-64.5v-24.797c69.844 4.7812 133.92 16.172 185.29 33.281 48.188 16.078 81.188 36.141 93.422 56.016 3.4219 5.625 5.25 11.203 5.25 16.688s-1.7812 11.109-5.25 16.688c-12.188 19.875-45.234 39.984-93.422 56.016-69.328 23.109-161.81 35.859-260.44 35.859-98.629 0-191.11-12.703-260.44-35.812-48.188-16.078-81.188-36.141-93.422-56.016-3.4219-5.625-5.25-11.203-5.25-16.688 0-5.5312 1.8281-11.156 5.25-16.781zm629.39 16.734c-0.84375 2.6719-7.4062 9.1406-25.594 16.688-11.906 4.9219-28.734 10.312-52.266 15.422-53.391 11.578-123.61 18-197.68 18-74.109 0-144.28-6.375-197.72-18-23.531-5.1094-40.359-10.5-52.266-15.422-18.188-7.5469-24.75-14.016-25.594-16.688 0.84375-2.6719 7.4062-9.1406 25.594-16.688 11.859-4.9219 28.734-10.312 52.266-15.422 34.875-7.5938 76.922-12.891 122.53-15.703v47.812c0 6.0469 1.875 11.672 5.3906 16.688 10.734 15.328 36.469 25.078 69.797 25.078s59.062-9.75 69.75-25.031c3.5156-5.0156 5.3906-10.641 5.3906-16.688v-47.812c45.609 2.8125 87.656 8.1562 122.53 15.703 23.531 5.1094 40.359 10.5 52.266 15.422 18.234 7.5 24.75 13.922 25.594 16.641zm-233.76-82.781v81c-0.51562 0.51562-1.3125 1.0781-2.3438 1.7344-5.625 3.4688-18.703 8.3906-39.422 8.3906s-33.797-4.9219-39.375-8.3438c-1.0312-0.65625-1.8281-1.2188-2.3438-1.7344v-96.281c11.625 3.8906 25.781 6.1406 41.719 6.1406s30.094-2.25 41.766-6.2344zm-2.3438-50.859c-5.625 3.4688-18.703 8.3438-39.422 8.3438s-33.797-4.9219-39.422-8.3438c5.625-3.4219 18.703-8.3438 39.422-8.3438s33.797 4.9219 39.422 8.3438z"/>
</svg>
