<?xml version="1.0" encoding="UTF-8"?>
<svg width="1200pt" height="1200pt" version="1.1" viewBox="0 0 1200 1200" xmlns="http://www.w3.org/2000/svg">
 <path d="m145.87 134.7c1.5469 0.39453 3.1328 0.80469 4.7656 1.2109 2.1367 0.50391 6.0469 1.4883 9.3945 2.4844 7.6328 2.3867 15.602 4.8711 23.855 7.4531-2.2305-3.3125-6.625-9.4453-11.387-16.02-2.5781-3.7695-5.3984-7.5234-7.6445-11.113-1.2344-1.9219-2.4609-3.8164-3.6484-5.6875-2.1133-3.4453-4.1523-6.7578-6.1094-9.9258-3.8164-6.3945-7.1172-12.324-9.793-17.398-5.3398-10.164-8.4609-16.836-8.4609-16.836s-0.058594 7.3555 2.375 19.02c1.2227 5.8203 3.1562 12.672 6.0859 20.016 1.4531 3.6719 3.1914 7.4531 5.1602 11.281 0.9375 1.7031 1.8945 3.4453 2.8672 5.2188-0.023437 0.046875-0.058593 0.035156-0.058593 0.035156s0.13281 0.058594 0.44531 0.3125c0.19141 0.17969 0.27734 0.38281-0.023438 0.5625-0.34766 0.058594 0.058594 0.26562-1.2109 0.16797-1.8008-0.15625-3.5508-0.3125-5.2695-0.37109-6.8398-0.32422-12.875 0.085937-17.809 0.73047-9.8984 1.332-15.422 3.4062-15.422 3.4062s5.8789 0.50391 15.348 2.0391c4.7188 0.8125 10.336 1.8906 16.539 3.4141z"/>
 <path d="m167.69 92.398c2.8086 2.4258 5.7617 4.9805 8.8203 7.6211 1.6445 1.4766 3.3242 2.9883 5.0273 4.5117 3.1797 2.7969 6.4336 6.168 9.7422 9.3242 5.7227 5.7617 11.074 11.074 13.98 13.812-1.2227-8.5547-2.3984-16.824-3.5273-24.742-0.45703-3.4688-0.79297-7.4883-0.94922-9.6719-0.14453-1.668-0.28906-3.3008-0.43359-4.8945-0.51562-6.3594-0.67188-12.07-0.68359-16.871 0-9.5898 0.45703-15.469 0.45703-15.469s-2.9414 5.1133-5.8438 14.676c-1.4414 4.7773-2.8086 10.668-3.5898 17.461-0.21484 1.7031-0.33594 3.457-0.48047 5.2578-0.10938 1.2734-0.25391 0.83984-0.35938 1.1641-0.22656 0.26562-0.42188 0.15625-0.5625-0.070313-0.20312-0.35937-0.23828-0.49219-0.23828-0.49219s0.011719 0.035156-0.046875 0.058594c-1.5859-1.2461-3.1445-2.4727-4.6797-3.6719-3.457-2.5664-6.8984-4.8828-10.309-6.9102-6.7812-4.0664-13.234-7.0781-18.781-9.2148-11.125-4.2734-18.395-5.3867-18.395-5.3867s6.0859 4.1406 15.266 11.051c4.5703 3.457 9.8867 7.6602 15.586 12.457z"/>
 <path d="m79.02 145.15c0.48047-0.71875 1.2344-1.7266 2.3984-2.6875 2.2422-1.9688 6.3359-3.4922 10.895-2.9531 4.3906 0.45703 9.0586 3.1797 13.848 7.4648 4.8594 4.2734 9.4922 10.223 16.066 16.906 6.3359 6.6484 15.395 12.828 24.145 15.012 8.6992 2.4609 16.871 2.0625 23.195 0.5625 6.3711-1.5586 10.922-4.1992 13.703-6.2539 1.4141-1.0195 2.3984-1.9336 3.0469-2.5664 0.63672-0.625 0.98438-0.96094 0.98438-0.96094s-0.46875 0.070313-1.3555 0.20312c-0.86328 0.15625-2.1484 0.35938-3.7695 0.48047-3.2383 0.28906-7.8359 0.32422-13.078-0.60156-5.2422-0.97266-11.125-2.8906-16.738-6.1094-5.7461-3.1562-10.441-7.4141-16.402-13.488-5.8438-5.8906-12.66-12.574-20.676-16.801-7.8594-4.2852-17.293-6-24.48-3.4453-7.0195 2.3516-10.848 7.3672-11.93 10.895-1.1523 3.5898-0.42188 5.5078-0.53906 5.4844-0.007812 0.011719 0.23047-0.38672 0.6875-1.1406z"/>
 <path d="m215.72 82.309c5.0391 6.8633 8.4961 12.168 10.68 18.348 2.2812 6.0586 3.2266 12.168 3.3477 17.508 0.085938 5.3281-0.69531 9.8633-1.5 13.008-0.38281 1.5859-0.79297 2.8086-1.0781 3.6484-0.27734 0.85156-0.42188 1.3086-0.42188 1.3086s0.37109-0.27734 1.0938-0.81641c0.73047-0.53906 1.7891-1.3672 3.0234-2.5938 2.4844-2.4258 5.8086-6.4922 8.375-12.527 2.4961-6 4.1992-14.004 3.168-22.992-0.75781-8.9883-5.3984-18.91-10.945-26.23-5.543-7.5586-10.68-13.094-14.113-18.574-3.457-5.4102-5.3984-10.465-5.1484-14.867 0.20312-4.5977 2.375-8.3867 4.668-10.285 1.1289-0.99609 2.2578-1.5859 3.0352-1.9336 0.82812-0.32422 1.2617-0.50391 1.2617-0.50391 0.011719 0.12109-1.7656-0.91016-5.4961-0.34766-3.6602 0.49219-9.2266 3.4688-12.672 10.02-3.6836 6.6836-3.4922 16.273-0.52734 24.707 2.8711 8.6172 8.3672 16.406 13.25 23.125z"/>
 <path d="m183.55 157.49c-2.125 1.8008-2.375 4.9805-0.57422 7.1055 1.8008 2.125 4.9805 2.375 7.1055 0.57422s2.375-4.9805 0.57422-7.1055c-1.8125-2.1094-4.9922-2.375-7.1055-0.57422z"/>
 <path d="m215.21 130.56c-2.125 1.8008-2.375 4.9805-0.57422 7.1055 1.8008 2.125 4.9805 2.375 7.1055 0.57422s2.375-4.9805 0.57422-7.1055c-1.8008-2.1211-4.9805-2.3711-7.1055-0.57422z"/>
 <path d="m195.23 139.04c-2.9531 2.5078-3.3125 6.9492-0.80469 9.8984 2.5078 2.9531 6.9492 3.3125 9.8984 0.80469 2.9531-2.5078 3.3125-6.9492 0.80469-9.8984-2.5039-2.9648-6.9453-3.3242-9.8984-0.80469z"/>
 <path d="m1044.9 103.12c-1.9453 3.168-3.9844 6.4805-6.0977 9.9258-1.1992 1.8594-2.4102 3.7578-3.6484 5.6875-2.2422 3.5742-5.0625 7.3438-7.6445 11.113-4.7656 6.5625-9.1562 12.707-11.387 16.02 8.2578-2.5781 16.223-5.0625 23.855-7.4531 3.3477-1.0078 7.2617-1.9805 9.3945-2.4844 1.6328-0.42188 3.2148-0.81641 4.7656-1.2109 6.2031-1.5234 11.809-2.6055 16.535-3.3828 9.457-1.5352 15.348-2.0391 15.348-2.0391s-5.5195-2.0742-15.422-3.4062c-4.9453-0.64844-10.98-1.0547-17.809-0.73047-1.7148 0.058594-3.4688 0.21484-5.2695 0.37109-1.2734 0.097656-0.875-0.12109-1.2109-0.16797-0.30078-0.17969-0.21484-0.38281-0.023437-0.5625 0.32422-0.25391 0.44531-0.3125 0.44531-0.3125s-0.035157 0.011719-0.058594-0.035156c0.97266-1.7656 1.9336-3.5039 2.8672-5.2188 1.9805-3.8281 3.7188-7.5977 5.1602-11.281 2.9297-7.3438 4.8594-14.195 6.0859-20.016 2.4375-11.664 2.375-19.02 2.375-19.02s-3.1211 6.6719-8.4609 16.836c-2.6836 5.0547-5.9844 10.969-9.8008 17.367z"/>
 <path d="m999.65 88.367c-0.14453 1.5859-0.28906 3.2148-0.43359 4.8945-0.15625 2.1836-0.49219 6.2148-0.94922 9.6719-1.1289 7.9219-2.3047 16.188-3.5273 24.742 2.9023-2.7344 8.2578-8.0625 13.98-13.812 3.3008-3.1562 6.5625-6.5273 9.7422-9.3242 1.7031-1.5234 3.3711-3.0352 5.0273-4.5117 3.0586-2.6406 6.0117-5.1836 8.8203-7.6211 5.6992-4.8008 11.016-9 15.602-12.457 9.1797-6.8984 15.266-11.051 15.266-11.051s-7.2734 1.1172-18.395 5.3867c-5.543 2.1484-12 5.1484-18.781 9.2148-3.3945 2.0156-6.8398 4.3438-10.309 6.9102-1.5352 1.1992-3.0977 2.4258-4.6797 3.6719-0.058594-0.011719-0.046875-0.058593-0.046875-0.058593s-0.035156 0.13281-0.23828 0.49219c-0.14453 0.21484-0.33594 0.33594-0.5625 0.070313-0.10937-0.32422-0.25391 0.097656-0.35937-1.1641-0.13281-1.8008-0.26563-3.5625-0.48047-5.2578-0.79688-6.8047-2.1641-12.695-3.6055-17.473-2.9023-9.5508-5.8438-14.676-5.8438-14.676s0.44531 5.8906 0.45703 15.469c0 4.8008-0.16797 10.512-0.68359 16.883z"/>
 <path d="m1064.1 150.17c-5.9648 6.0703-10.656 10.332-16.402 13.488-5.6172 3.2148-11.496 5.1367-16.738 6.1094-5.2422 0.9375-9.8516 0.89844-13.078 0.60156-1.6328-0.12109-2.9023-0.32422-3.7695-0.48047-0.88672-0.13281-1.3555-0.20312-1.3555-0.20312s0.33594 0.32422 0.98438 0.96094c0.64844 0.63672 1.6328 1.5469 3.0469 2.5664 2.7969 2.0625 7.332 4.6914 13.703 6.2539 6.3242 1.5 14.496 1.9062 23.195-0.5625 8.7461-2.1836 17.809-8.3633 24.145-15.012 6.5742-6.6836 11.207-12.637 16.066-16.906 4.7891-4.2852 9.457-7.0078 13.848-7.4648 4.5586-0.52734 8.6523 0.99609 10.895 2.9531 1.1641 0.96094 1.9219 1.9688 2.3984 2.6875 0.45703 0.75781 0.69531 1.1641 0.69531 1.1641-0.12109 0.023437 0.61328-1.8945-0.53906-5.4844-1.0781-3.5273-4.9062-8.543-11.93-10.895-7.1875-2.5547-16.621-0.83984-24.48 3.4453-8.0234 4.2031-14.828 10.887-20.684 16.777z"/>
 <path d="m969.13 132.72c1.2227 1.2344 2.293 2.0625 3.0234 2.5938 0.71875 0.52734 1.1055 0.81641 1.1055 0.81641s-0.14453-0.44531-0.42188-1.3086c-0.28906-0.82812-0.69531-2.0508-1.0781-3.6484-0.80469-3.1445-1.5859-7.6914-1.5-13.008 0.12109-5.3398 1.0664-11.449 3.3477-17.508 2.1953-6.1797 5.6406-11.496 10.68-18.348 4.8828-6.7188 10.379-14.508 13.262-23.113 2.9648-8.4375 3.1562-18.023-0.52734-24.707-3.4453-6.5508-9.0117-9.5273-12.672-10.02-3.7305-0.5625-5.5078 0.46875-5.4961 0.34766 0 0 0.43359 0.16797 1.2617 0.50391 0.79297 0.35938 1.9062 0.94922 3.0352 1.9336 2.293 1.8945 4.4648 5.6875 4.668 10.285 0.25391 4.4023-1.6914 9.4453-5.1484 14.867-3.4453 5.4844-8.5664 11.004-14.113 18.574-5.543 7.3203-10.188 17.258-10.945 26.23-1.043 8.9883 0.67188 16.98 3.168 22.992 2.543 6.0352 5.8789 10.094 8.3516 12.516z"/>
 <path d="m1016.4 157.49c-2.125-1.8008-5.293-1.5469-7.1055 0.57422-1.8008 2.125-1.5469 5.3047 0.57422 7.1055 2.125 1.8008 5.3047 1.5469 7.1055-0.57422 1.8125-2.125 1.5469-5.293-0.57422-7.1055z"/>
 <path d="m977.69 131.14c-1.8008 2.125-1.5469 5.3047 0.57422 7.1055 2.125 1.8008 5.3047 1.5469 7.1055-0.57422 1.8008-2.125 1.5469-5.3047-0.57422-7.1055-2.125-1.8008-5.3047-1.5508-7.1055 0.57422z"/>
 <path d="m994.87 139.84c-2.5078 2.9531-2.1602 7.3906 0.80469 9.8984 2.9531 2.5078 7.3906 2.1602 9.8984-0.80469 2.5078-2.9531 2.1602-7.3906-0.80469-9.8984-2.9492-2.5078-7.3906-2.1484-9.8984 0.80469z"/>
 <path d="m155.09 1096.9c1.9453-3.168 3.9844-6.4805 6.1094-9.9258 1.1992-1.8594 2.4102-3.7578 3.6484-5.6875 2.2422-3.5742 5.0625-7.3438 7.6445-11.113 4.7656-6.5625 9.1562-12.707 11.387-16.008-8.2578 2.5781-16.223 5.0625-23.855 7.4531-3.3477 1.0078-7.2617 1.9805-9.3945 2.4844-1.6328 0.42187-3.2148 0.81641-4.7656 1.2109-6.2031 1.5234-11.809 2.6055-16.535 3.3828-9.457 1.5352-15.348 2.0391-15.348 2.0391s5.5195 2.0742 15.422 3.4062c4.9453 0.66016 10.98 1.0547 17.809 0.73047 1.7148-0.058594 3.4688-0.21484 5.2695-0.37109 1.2734-0.097656 0.86328 0.12109 1.2109 0.16797 0.30078 0.17969 0.21484 0.38281 0.023438 0.5625-0.32422 0.25391-0.44531 0.3125-0.44531 0.3125s0.035157-0.011719 0.058594 0.035156c-0.97266 1.7656-1.9336 3.5039-2.8672 5.2188-1.9805 3.8281-3.7188 7.5977-5.1602 11.281-2.9297 7.3438-4.8594 14.195-6.0859 20.016-2.4375 11.664-2.375 19.02-2.375 19.02s3.1211-6.6719 8.4609-16.836c2.6719-5.0664 5.9727-10.98 9.7891-17.379z"/>
 <path d="m200.35 1111.6c0.14453-1.5859 0.28906-3.2148 0.43359-4.8945 0.15625-2.1836 0.49219-6.2148 0.94922-9.6719 1.1289-7.9219 2.3047-16.188 3.5273-24.742-2.9023 2.7344-8.2578 8.0508-13.98 13.812-3.3008 3.1562-6.5625 6.5273-9.7422 9.3242-1.7031 1.5234-3.3828 3.0352-5.0273 4.5117-3.0586 2.6406-6.0117 5.1836-8.8203 7.6211-5.6992 4.8008-11.016 9-15.602 12.457-9.1797 6.8984-15.266 11.051-15.266 11.051s7.2734-1.1172 18.395-5.3867c5.543-2.1484 12-5.1484 18.781-9.2148 3.3945-2.0156 6.8398-4.3438 10.309-6.9102 1.5352-1.1992 3.0977-2.4258 4.6797-3.6719 0.058594 0.011719 0.046875 0.058593 0.046875 0.058593s0.035156-0.13281 0.23828-0.49219c0.14453-0.21484 0.33594-0.33594 0.5625-0.070313 0.10937 0.33594 0.25391-0.097656 0.35937 1.1641 0.13281 1.8008 0.26563 3.5625 0.48047 5.2578 0.78125 6.8047 2.1484 12.695 3.5898 17.461 2.9023 9.5508 5.8438 14.664 5.8438 14.664s-0.44531-5.8906-0.45703-15.469c0.015625-4.7773 0.18359-10.488 0.69922-16.859z"/>
 <path d="m135.95 1049.8c5.9648-6.0703 10.656-10.332 16.402-13.488 5.6172-3.2148 11.496-5.1367 16.738-6.1094 5.2422-0.9375 9.8516-0.89844 13.078-0.60156 1.6328 0.12109 2.9023 0.32422 3.7695 0.48047 0.88672 0.13281 1.3555 0.20312 1.3555 0.20312s-0.33594-0.32422-0.98438-0.94922c-0.64844-0.63672-1.6328-1.5469-3.0469-2.5664-2.7969-2.0625-7.332-4.6914-13.703-6.2656-6.3242-1.5-14.496-1.8945-23.195 0.5625-8.7461 2.1836-17.809 8.3633-24.145 15.012-6.5742 6.6836-11.207 12.637-16.066 16.906-4.7891 4.2852-9.457 7.0078-13.848 7.4648-4.5703 0.52734-8.6523-0.99609-10.895-2.9531-1.1641-0.96094-1.9219-1.9688-2.3984-2.6875-0.45703-0.75781-0.69531-1.1641-0.69531-1.1641 0.12109-0.023437-0.61328 1.8945 0.53906 5.4844 1.0781 3.5273 4.9062 8.543 11.93 10.895 7.1875 2.5547 16.621 0.83984 24.48-3.4453 8.0234-4.2031 14.828-10.887 20.684-16.777z"/>
 <path d="m230.86 1067.3c-1.2227-1.2344-2.293-2.0625-3.0234-2.5938-0.71875-0.52734-1.0938-0.81641-1.0938-0.81641s0.14453 0.44531 0.42188 1.3086c0.28906 0.82812 0.69531 2.0508 1.0781 3.6484 0.80469 3.1445 1.5859 7.6797 1.5 13.008-0.12109 5.3398-1.0664 11.449-3.3477 17.508-2.1953 6.1797-5.6523 11.496-10.68 18.348-4.8828 6.7188-10.379 14.508-13.262 23.113-2.9648 8.4375-3.1562 18.023 0.52734 24.707 3.4453 6.5508 9.0117 9.5273 12.672 10.02 3.7305 0.5625 5.5078-0.46875 5.4961-0.34766 0 0-0.43359-0.16797-1.2617-0.50391-0.79297-0.35938-1.9062-0.94922-3.0352-1.9336-2.293-1.8945-4.4648-5.6875-4.668-10.285-0.25391-4.4023 1.6914-9.4453 5.1484-14.867 3.4453-5.4844 8.5664-11.004 14.113-18.574 5.543-7.3203 10.188-17.258 10.945-26.23 1.043-8.9883-0.67188-16.98-3.168-22.992-2.543-6.0352-5.8789-10.094-8.3633-12.516z"/>
 <path d="m183.55 1042.5c2.125 1.8008 5.293 1.5469 7.1055-0.57422 1.8008-2.125 1.5469-5.3047-0.57422-7.1055-2.125-1.8008-5.3047-1.5469-7.1055 0.57422-1.8125 2.125-1.5469 5.293 0.57422 7.1055z"/>
 <path d="m222.31 1068.9c1.8008-2.125 1.5469-5.3047-0.57422-7.1055-2.125-1.8008-5.3047-1.5469-7.1055 0.57422-1.8008 2.125-1.5469 5.3047 0.57422 7.1055 2.125 1.8008 5.3047 1.5508 7.1055-0.57422z"/>
 <path d="m205.13 1060.2c2.5078-2.9531 2.1602-7.3906-0.80469-9.8984-2.9531-2.5078-7.3906-2.1602-9.8984 0.80469-2.5078 2.9531-2.1602 7.3906 0.80469 9.8984 2.9492 2.5078 7.3906 2.1484 9.8984-0.80469z"/>
 <path d="m1054.1 1065.3c-1.5469-0.39453-3.1328-0.80469-4.7656-1.2109-2.1367-0.50391-6.0469-1.4883-9.3945-2.4844-7.6328-2.3867-15.602-4.8711-23.855-7.4531 2.2305 3.3125 6.625 9.4453 11.387 16.008 2.5781 3.7695 5.3984 7.5234 7.6445 11.113 1.2344 1.9219 2.4609 3.8164 3.6484 5.6875 2.1133 3.4453 4.1523 6.7578 6.0977 9.9258 3.8164 6.3945 7.1172 12.324 9.793 17.398 5.3398 10.164 8.4609 16.836 8.4609 16.836s0.058594-7.3555-2.375-19.02c-1.2227-5.8203-3.1562-12.672-6.0859-20.016-1.4531-3.6836-3.1914-7.4531-5.1602-11.281-0.9375-1.7148-1.8945-3.4453-2.8672-5.2188 0.023438-0.046876 0.058594-0.035157 0.058594-0.035157s-0.13281-0.058593-0.44531-0.3125c-0.19141-0.17969-0.27734-0.38281 0.023438-0.5625 0.34766-0.046875-0.058594-0.26562 1.2109-0.16797 1.8008 0.15625 3.5508 0.3125 5.2695 0.37109 6.8398 0.32422 12.875-0.085937 17.809-0.73047 9.8984-1.332 15.422-3.4062 15.422-3.4062s-5.8789-0.50391-15.348-2.0391c-4.707-0.80078-10.324-1.8789-16.527-3.4023z"/>
 <path d="m1032.3 1107.6c-2.8086-2.4258-5.7617-4.9805-8.8203-7.6211-1.6445-1.4766-3.3242-2.9883-5.0273-4.5117-3.1797-2.7969-6.4336-6.168-9.7422-9.3242-5.7109-5.7617-11.074-11.074-13.98-13.812 1.2227 8.5547 2.3984 16.824 3.5273 24.742 0.45703 3.457 0.79297 7.4883 0.94922 9.6719 0.14453 1.668 0.28906 3.3008 0.43359 4.8945 0.51562 6.3594 0.67188 12.07 0.68359 16.871 0 9.5898-0.45703 15.469-0.45703 15.469s2.9414-5.1133 5.8438-14.664c1.4414-4.7773 2.8086-10.668 3.5898-17.461 0.21484-1.7031 0.33594-3.457 0.48047-5.2578 0.10938-1.2734 0.25391-0.83984 0.35938-1.1641 0.22656-0.26562 0.42188-0.15625 0.5625 0.070312 0.20312 0.35938 0.23828 0.49219 0.23828 0.49219s-0.011719-0.035156 0.046875-0.058594c1.5859 1.2461 3.1445 2.4727 4.6797 3.6719 3.457 2.5664 6.8984 4.8828 10.309 6.9102 6.7812 4.0664 13.234 7.0781 18.781 9.2148 11.125 4.2734 18.395 5.3867 18.395 5.3867s-6.0859-4.1406-15.266-11.051c-4.5703-3.4688-9.8867-7.6719-15.586-12.469z"/>
 <path d="m1121 1054.8c-0.48047 0.71875-1.2344 1.7266-2.3984 2.6875-2.2422 1.9688-6.3359 3.4922-10.895 2.9531-4.3906-0.45703-9.0586-3.1797-13.848-7.4648-4.8594-4.2734-9.4922-10.223-16.066-16.906-6.3359-6.6484-15.395-12.828-24.145-15.012-8.6992-2.4609-16.871-2.0625-23.195-0.5625-6.3711 1.5586-10.922 4.1992-13.703 6.2656-1.4141 1.0195-2.3984 1.9336-3.0469 2.5664-0.63672 0.625-0.98438 0.94922-0.98438 0.94922s0.46875-0.070313 1.3555-0.20312c0.86328-0.15625 2.1484-0.35938 3.7695-0.48047 3.2383-0.28906 7.8359-0.32422 13.078 0.60156 5.2422 0.98437 11.125 2.8906 16.738 6.1094 5.7461 3.1562 10.441 7.4141 16.402 13.488 5.8438 5.8906 12.66 12.574 20.676 16.801 7.8594 4.2852 17.293 6 24.48 3.4453 7.0195-2.3516 10.848-7.3672 11.93-10.895 1.1523-3.5898 0.42188-5.5078 0.53906-5.4844 0.007812-0.011719-0.23047 0.38672-0.6875 1.1406z"/>
 <path d="m984.28 1117.7c-5.0391-6.8633-8.4961-12.168-10.68-18.348-2.2812-6.0586-3.2266-12.168-3.3477-17.508-0.070312-5.3281 0.69531-9.8633 1.5-13.008 0.38281-1.5859 0.79297-2.8086 1.0781-3.6484 0.27734-0.85156 0.42188-1.3086 0.42188-1.3086s-0.37109 0.27734-1.1055 0.81641c-0.73047 0.53906-1.7891 1.3672-3.0234 2.5938-2.4844 2.4258-5.8086 6.4922-8.375 12.527-2.4961 6-4.1992 14.004-3.168 22.992 0.75781 8.9883 5.3984 18.91 10.945 26.23 5.543 7.5586 10.68 13.094 14.113 18.574 3.457 5.4102 5.3984 10.465 5.1484 14.867-0.20312 4.5977-2.375 8.3867-4.668 10.285-1.1289 0.99609-2.2422 1.5859-3.0352 1.9336-0.82812 0.32422-1.2617 0.50391-1.2617 0.50391-0.011718-0.12109 1.7773 0.91016 5.4961 0.34766 3.6602-0.50391 9.2266-3.4688 12.672-10.02 3.6836-6.6836 3.4922-16.273 0.52734-24.707-2.8594-8.6172-8.3555-16.406-13.238-23.125z"/>
 <path d="m1016.4 1042.5c2.125-1.8008 2.375-4.9805 0.57422-7.1055-1.8008-2.125-4.9805-2.375-7.1055-0.57422s-2.375 4.9805-0.57422 7.1055c1.8125 2.1094 4.9922 2.375 7.1055 0.57422z"/>
 <path d="m978.27 1061.8c-2.125 1.8008-2.375 4.9805-0.57422 7.1055 1.8008 2.125 4.9805 2.375 7.1055 0.57422 2.125-1.8008 2.375-4.9805 0.57422-7.1055-1.8164-2.1133-4.9961-2.375-7.1055-0.57422z"/>
 <path d="m1007.2 1055.6c0 3.875-3.1406 7.0195-7.0195 7.0195-3.875 0-7.0195-3.1445-7.0195-7.0195 0-3.8789 3.1445-7.0195 7.0195-7.0195 3.8789 0 7.0195 3.1406 7.0195 7.0195"/>
 <path d="m617.03 1071.7c0 8.4375 42.828 15.277 114.9 15.277 72.07 0 146.12-15.277 146.12-15.277s-74.051-15.289-146.12-15.289c-72.074 0-114.9 6.8398-114.9 15.289z"/>
 <path d="m356 1071.7c0 8.4375 42.828 15.277 114.9 15.277 72.07 0 146.12-15.277 146.12-15.277s-74.039-15.277-146.12-15.277c-72.082 0-114.9 6.8281-114.9 15.277z"/>
 <path d="m310.64 1063.3c-26.051-5.6641-56.93-20.664-82.02-41.617-25.094-21.266-39.312-43.906-48.371-60.059-9.1328-16.176-14.148-26.09-18.383-25.309-2.0156 0.37109-3.8516 3.4453-4.1641 8.9883-0.46875 5.5781-0.26562 13.836 2.3867 24.098 2.3047 10.367 7.2227 22.598 14.844 35.953 8.0898 13.008 19.02 27.156 34.152 39.805 15.203 12.527 33.145 21.719 50.785 27.098 17.605 5.7344 35.062 6.6484 49.477 6.2539 14.688-0.89844 25.824-3.1094 33.973-4.5 8.0508-1.5117 12.695-2.3867 12.695-2.3867s-4.6445-0.875-12.695-2.3867c-8.0078-1.4375-19.887-3.1172-32.68-5.9375z"/>
 <path d="m166.66 890.5c3.8164-27.516 7.6445-64.043 7.6445-100.09 0-72.086-6.8398-114.9-15.277-114.9s-15.277 42.816-15.277 114.9c0 36.035 3.8164 72.562 7.6445 100.09 1.6914 13.621 4.1875 25.57 6.1914 33.551 2.7227 7.8008 4.3086 12.301 4.3086 12.301s0.16797-4.6797 0.44531-12.793c0.86328-8.1094 2.1953-19.152 4.3203-33.059z"/>
 <path d="m159.02 414.48c-8.4375 0-15.277 42.828-15.277 114.9 0 72.07 15.277 146.12 15.277 146.12s15.277-74.039 15.277-146.12c0-72.082-6.8398-114.9-15.277-114.9z"/>
 <path d="m171.91 321.61c0.71875-8.543 1.3086-17.34 1.7266-26.27l0.49219-13.43 0.80469-12.254c3.0352-32.594 13.441-57.277 21.551-73.957 8.3281-16.621 13.621-26.316 10.402-29.52-2.6875-2.7617-13.812 1.7031-28.262 17.363-14.051 15.48-30.539 44.062-34.152 83.566l-0.5625 14.746 0.46875 13.477c0.42188 8.9297 1.0195 17.723 1.7266 26.27 1.4297 17.074 3.3477 33.098 5.2578 46.848 3.8164 27.516 7.6445 46.031 7.6445 46.031s3.8164-18.516 7.6445-46.031c1.9102-13.758 3.832-29.766 5.2578-46.84z"/>
 <path d="m217.8 159.38c6.8867-4.1875 17.039-9.4922 29.34-14.375 12.48-4.4883 26.891-9.2266 42.66-11.027 16.043-2.207 31.176-2.0391 49.957-1.7031 72.086 0 114.9-6.8398 114.9-15.277s-42.828-15.277-114.9-15.277c-17.219-0.39453-38.594 1.4766-55.824 7.1523-17.785 5.207-32.652 14.41-44.328 22.836-11.531 8.8555-19.777 17.594-24.949 24.07-2.5078 3.2891-4.4766 5.8672-5.832 7.6328-1.3438 1.7266-1.9453 2.7734-1.9453 2.7734s0.9375-0.70703 2.8555-1.8242c1.8867-1.1641 4.6094-2.8438 8.0664-4.9805z"/>
 <path d="m715.68 116.99c0-8.4375-42.828-15.277-114.9-15.277-72.074 0-146.11 15.277-146.11 15.277s74.039 15.277 146.12 15.277c72.082 0 114.89-6.8398 114.89-15.277z"/>
 <path d="m907.23 133.97c12.793 1.9453 23.723 4.5234 32.723 6.9609 4.4141 1.3789 8.4609 2.4844 12.07 3.3242 3.4922 1.0547 6.4922 1.9688 9.1094 2.4609 5.1953 1.0078 8.6172 0.74219 9.7578-0.92578 1.2461-1.8125 0.085938-4.8711-3.5039-9.1914-1.8008-2.1367-4.1641-4.6914-7.2227-7.3672-3.1797-2.4492-7.0078-5.1484-11.461-8.0508-9.0703-5.5-21.105-10.887-36.012-14.824-14.676-3.7188-33.59-4.957-50.891-4.6445-72.086 0-146.12 15.277-146.12 15.277s74.039 15.277 146.12 15.277c18.719-0.25391 32.254 0.046875 45.43 1.7031z"/>
 <path d="m998.96 181.56c6.6602 11.52 13.691 24.938 18.602 40.008 4.8828 15.059 8.125 31.262 9.6602 47.52 0.23828 4.0781 0.46875 8.0625 0.69531 11.93 0.097656 4.2344 0.20312 8.3516 0.28906 12.348 0.3125 8.0625 0.61328 15.648 0.88672 22.727 0.76953 14.148 1.8945 26.258 3.2773 36.121 2.7617 19.715 6.5898 30.422 10.801 30.422 4.2109 0 8.0391-10.703 10.801-30.422 1.3789-9.8516 2.4961-21.973 3.2773-36.121 0.27734-7.0781 0.57422-14.664 0.88672-22.727 0.070313-4.0781 0.23828-8.0742 0.16797-12.574-0.21484-4.668-0.43359-9.457-0.64844-14.363-1.8125-19.633-7.8945-38.867-16.488-55.188-8.6172-16.402-20.113-29.438-30.48-39.457-10.871-9.6953-20.914-16.211-28.164-20.23-7.3906-3.6484-11.652-5.7461-11.652-5.7461s3.168 3.4688 8.6641 9.4688c5.3008 6.1016 12.309 15.125 19.426 26.285z"/>
 <path d="m1043.2 643.66c8.4375 0 15.277-42.828 15.277-114.9 0-72.07-15.277-146.12-15.277-146.12s-15.277 74.039-15.277 146.12c0 72.082 6.8281 114.9 15.277 114.9z"/>
 <path d="m1043.2 904.68c8.4375 0 15.277-42.816 15.277-114.9 0-72.086-15.277-146.12-15.277-146.12s-15.277 74.039-15.277 146.12c-0.011719 72.07 6.8281 114.9 15.277 114.9z"/>
 <path d="m1044.5 952.18c1.0195-7.1992 1.5586-13.766 1.332-19.656 0.10938-5.832-0.12109-10.859-0.79297-15.012-0.98437-8.2695-1.8359-12.84-1.8359-12.84s-1.0664 4.5859-2.9297 12.527c-0.74219 3.9375-2.1719 8.6172-3.9961 13.836-1.4883 5.2812-3.8164 11.004-6.5039 17.074-10.066 24.625-30.719 52.273-55.754 73.211-25.379 20.879-50.148 30.875-67.691 36.805-4.4297 1.3672-8.375 2.7461-11.832 4.1055-3.4805 1.0781-6.4688 2.0273-8.9023 3.0977-4.8594 2.0742-7.5234 4.2227-7.5234 6.3359 0 2.1133 2.6758 3.9844 8.0898 5.543 2.6992 0.75781 6.0859 1.5234 10.129 2.0156 4.0078 0.21484 8.6875 0.26562 14.016 0.13281 10.586-0.53906 23.531-2.9883 38.074-8.1016 14.316-5.5664 30.086-13.98 45.277-26.52 30.527-25.426 47.809-63.789 50.844-92.555z"/>
</svg>
