<?xml version="1.0" encoding="UTF-8"?>
<svg width="1200pt" height="1200pt" version="1.1" viewBox="0 0 1200 1200" xmlns="http://www.w3.org/2000/svg">
 <path d="m599.93 274.03h-0.28125c-1.0859 0.023437-2.125 0.19141-3.1172 0.49609h-0.046875c-1.7969 0.56641-3.4727 1.5352-4.8906 2.9531l-42.227 42.227c-4.6016 4.6055-4.6016 12.09 0 16.695 4.6055 4.6289 12.094 4.6289 16.699 0l22.055-22.059v99.875l-209.26 120.84c-3.6602 2.1016-5.9023 5.9961-5.9023 10.227v239.8l-84.805 48.953c3.5898-13.34 8.0742-30.133 8.0742-30.133 1.7031-6.3047-2.0547-12.777-8.3359-14.477-6.3047-1.6758-12.773 2.0547-14.477 8.3594l-15.445 57.695c-0.51953 1.9375-0.51953 3.8711-0.09375 5.7148v0.023438c0.23828 1.0156 0.61328 2.0078 1.1328 2.9531l0.28516 0.49609c0.56641 0.94531 1.2266 1.7461 1.9844 2.457l0.023437 0.046875c1.3672 1.2734 3.0703 2.2422 5.0039 2.7617l57.695 15.445c6.2812 1.6992 12.777-2.0547 14.453-8.3359 1.6992-6.3047-2.0547-12.777-8.3359-14.477l-30.156-8.0781 86.504-49.926 207.56 119.83c0.11719 0.074219 0.21094 0.12109 0.33203 0.16797 3.5859 1.9336 7.957 1.8867 11.523-0.16797l207.66-119.9 86.48 49.949c-13.344 3.5664-30.133 8.0781-30.133 8.0781-6.3047 1.6758-10.039 8.1445-8.3594 14.453 1.6992 6.3047 8.168 10.035 14.477 8.3594l57.668-15.469c1.9375-0.51953 3.6367-1.4883 5.0078-2.7656l0.023437-0.023437c0.75781-0.70703 1.4414-1.5352 2.0078-2.4531l0.28125-0.49609c0.52344-0.96875 0.89844-1.9609 1.1367-2.9766v-0.023438c0.42578-1.8203 0.42578-3.7773-0.09375-5.7148l-15.469-57.695c-1.6797-6.2812-8.1719-10.035-14.453-8.3359-6.3086 1.6758-10.039 8.1484-8.3633 14.453l8.0781 30.156-84.875-49v-239.7c0-4.2305-2.2461-8.125-5.9062-10.227l-209.31-120.84v-99.875c9.7773 9.7773 22.082 22.059 22.082 22.059 4.6055 4.6289 12.09 4.6289 16.695 0 4.6055-4.6055 4.6055-12.09 0-16.695l-42.227-42.227c-1.4141-1.418-3.1172-2.3867-4.9102-2.9531h-0.023437c-0.99219-0.30469-2.0547-0.47266-3.1406-0.49609zm-203.36 497.43 2.7383-1.582c5.6445-3.2578 12.871-1.3203 16.129 4.3242 3.2578 5.6445 1.3242 12.871-4.3203 16.129l-1.0391 0.58984 178.09 102.82v-205.62l-13.438 7.7461c-5.6445 3.2578-12.871 1.3242-16.133-4.3203-3.2578-5.6445-1.3203-12.871 4.3242-16.133l11.809-6.8242-178.16-102.85zm228.65-102.89 11.738 6.7773c5.6445 3.2617 7.582 10.488 4.3203 16.129-3.2578 5.6445-10.484 7.582-16.129 4.3242l-13.367-7.6992v205.62s134.5-77.648 178.09-102.82l-1.1094-0.63672c-5.6445-3.2617-7.582-10.488-4.3242-16.133 3.2617-5.6406 10.488-7.5781 16.133-4.3203l2.7617 1.6055v-205.67zm-173.2 98.148c6.5664-3.8008 13.438-7.7695 20.453-11.809 5.6406-3.2578 7.5781-10.484 4.3203-16.129s-10.484-7.582-16.129-4.3203c-7.0156 4.0391-13.887 8.0039-20.453 11.809-5.6445 3.2578-7.582 10.484-4.3203 16.129 3.2578 5.6445 10.484 7.5781 16.129 4.3203zm307.65-20.523c-6.5898-3.8008-13.441-7.7461-20.453-11.805-5.6445-3.2617-12.871-1.3242-16.129 4.3203-3.2617 5.6445-1.3242 12.871 4.3203 16.129 7.0156 4.0625 13.863 8.0078 20.453 11.809 5.6445 3.2578 12.871 1.3242 16.129-4.3203 3.2578-5.6445 1.3203-12.871-4.3203-16.133zm-246.29-14.898c6.9414-4.0156 13.789-7.9609 20.449-11.809 5.6445-3.2617 7.582-10.488 4.3242-16.133-3.2617-5.6406-10.488-7.5781-16.133-4.3203-6.6562 3.8516-13.508 7.793-20.449 11.809-5.6445 3.2578-7.582 10.484-4.3203 16.129 3.2578 5.6445 10.484 7.582 16.129 4.3242zm184.94-20.523c-6.9453-4.0156-13.816-7.9609-20.453-11.809-5.6445-3.2578-12.871-1.3242-16.129 4.3203-3.2578 5.6445-1.3242 12.871 4.3203 16.133 6.6367 3.8477 13.508 7.793 20.453 11.805 5.6445 3.2617 12.871 1.3242 16.129-4.3203 3.2578-5.6445 1.3242-12.871-4.3203-16.129zm-86.578-269.27v4.2734c0 6.5156-5.2891 11.809-11.809 11.809-6.5156 0-11.809-5.293-11.809-11.809v-4.2734l-179.74 103.79 179.74 103.77v-14.355c0-6.5195 5.293-11.809 11.809-11.809 6.5195 0 11.809 5.2891 11.809 11.809v14.379l179.79-103.79zm-23.617 122.35v23.617c0 6.5195 5.293 11.809 11.809 11.809 6.5195 0 11.809-5.2891 11.809-11.809v-23.617c0-6.5156-5.2891-11.805-11.809-11.805-6.5156 0-11.809 5.2891-11.809 11.805zm0-70.848v23.617c0 6.5195 5.293 11.809 11.809 11.809 6.5195 0 11.809-5.2891 11.809-11.809v-23.617c0-6.5156-5.2891-11.809-11.809-11.809-6.5156 0-11.809 5.293-11.809 11.809z" fill-rule="evenodd"/>
</svg>
