<?xml version="1.0" encoding="UTF-8"?>
<svg width="1200pt" height="1200pt" version="1.1" viewBox="0 0 1200 1200" xmlns="http://www.w3.org/2000/svg">
 <path d="m779.86 1001.6h-359.76c-32.062 0-61.922-17.297-78-45l-179.86-311.53c-15.938-27.703-15.938-62.297 0-90l179.86-311.63c15.938-27.703 45.844-45 78-45h359.76c32.062 0 61.922 17.297 78 45l179.86 311.53c15.938 27.703 15.938 62.297 0 90l-179.86 311.63c-15.938 27.703-45.844 45-78 45zm-359.76-743.16c-10.688 0-20.625 5.7656-25.922 15l-179.86 311.63c-5.2969 9.2344-5.2969 20.766 0 30l179.86 311.63c5.3906 9.2344 15.234 15 26.062 15h359.76c10.688 0 20.625-5.7656 25.922-15l179.86-311.63c5.2969-9.2344 5.2969-20.766 0-30l-179.86-311.63c-5.3906-9.2344-15.234-15-26.062-15z"/>
</svg>
