<?xml version="1.0" encoding="UTF-8"?>
<svg width="1200pt" height="1200pt" version="1.1" viewBox="0 0 1200 1200" xmlns="http://www.w3.org/2000/svg">
 <path d="m600 1048.1c-22.5 0-43.125-9.375-60-24.375l-1.875-3.75-363.75-474.38c-31.875-33.75-31.875-86.25 1.875-118.12l3.75-3.75 361.88-249.38c15-15 35.625-22.5 58.125-22.5s43.125 7.5 58.125 22.5l365.62 253.12c31.875 31.875 33.75 86.25 1.875 118.12l-365.62 478.12c-16.875 15-37.5 24.375-60 24.375zm-18.75-63.75c11.25 9.375 28.125 9.375 37.5 0l363.75-476.25c11.25-11.25 11.25-28.125 1.875-39.375l-363.75-253.12c-11.25-11.25-30-11.25-41.25 0l-3.75 3.75-360 249.38c-9.375 11.25-9.375 28.125 1.875 39.375l1.875 3.75z"/>
</svg>
