<?xml version="1.0" encoding="UTF-8"?>
<svg width="1200pt" height="1200pt" version="1.1" viewBox="0 0 1200 1200" xmlns="http://www.w3.org/2000/svg">
 <defs>
  <clipPath id="cv">
   <path d="m882.73 258.46h20.242v20.246h-20.242z"/>
  </clipPath>
  <clipPath id="cu">
   <path d="m827.4 324.91h20.242v20.246h-20.242z"/>
  </clipPath>
  <clipPath id="cj">
   <path d="m1038.6 441.93h20.242v20.246h-20.242z"/>
  </clipPath>
  <clipPath id="by">
   <path d="m909.27 466.2h20.242v20.246h-20.242z"/>
  </clipPath>
  <clipPath id="bn">
   <path d="m586.54 314.79h20.242v20.246h-20.242z"/>
  </clipPath>
  <clipPath id="bc">
   <path d="m537.5 203.69h20.242v20.246h-20.242z"/>
  </clipPath>
  <clipPath id="ar">
   <path d="m757.24 228.1h20.242v20.246h-20.242z"/>
  </clipPath>
  <clipPath id="ag">
   <path d="m747.11 431.81h20.242v20.246h-20.242z"/>
  </clipPath>
  <clipPath id="v">
   <path d="m596.66 359.54h20.242v20.246h-20.242z"/>
  </clipPath>
  <clipPath id="k">
   <path d="m472.05 498.38h20.242v20.246h-20.242z"/>
  </clipPath>
  <clipPath id="ct">
   <path d="m510.96 379.78h20.242v20.246h-20.242z"/>
  </clipPath>
  <clipPath id="cs">
   <path d="m370.63 324.9h20.242v20.246h-20.242z"/>
  </clipPath>
  <clipPath id="cr">
   <path d="m336.43 510.45h20.242v20.246h-20.242z"/>
  </clipPath>
  <clipPath id="cq">
   <path d="m291.23 193.57h20.242v20.246h-20.242z"/>
  </clipPath>
  <clipPath id="cp">
   <path d="m305.18 288.84h20.242v20.246h-20.242z"/>
  </clipPath>
  <clipPath id="co">
   <path d="m798.61 153.08h20.242v20.246h-20.242z"/>
  </clipPath>
  <clipPath id="cn">
   <path d="m224.89 369.66h20.242v20.246h-20.242z"/>
  </clipPath>
  <clipPath id="cm">
   <path d="m360.51 173.32h20.242v20.246h-20.242z"/>
  </clipPath>
  <clipPath id="cl">
   <path d="m416.72 193.57h20.242v20.246h-20.242z"/>
  </clipPath>
  <clipPath id="ck">
   <path d="m465.76 288.84h20.242v20.246h-20.242z"/>
  </clipPath>
  <clipPath id="ci">
   <path d="m537.5 132.84h20.242v20.246h-20.242z"/>
  </clipPath>
  <clipPath id="ch">
   <path d="m712.03 324.91h20.242v20.246h-20.242z"/>
  </clipPath>
  <clipPath id="cg">
   <path d="m224.89 268.59h20.242v20.246h-20.242z"/>
  </clipPath>
  <clipPath id="cf">
   <path d="m340.27 345.15h20.242v20.246h-20.242z"/>
  </clipPath>
  <clipPath id="ce">
   <path d="m326.31 424.53h20.242v20.246h-20.242z"/>
  </clipPath>
  <clipPath id="cd">
   <path d="m1063.6 508.15h20.242v20.246h-20.242z"/>
  </clipPath>
  <clipPath id="cc">
   <path d="m963.02 258.46h20.242v20.246h-20.242z"/>
  </clipPath>
  <clipPath id="cb">
   <path d="m963.02 345.15h20.242v20.246h-20.242z"/>
  </clipPath>
  <clipPath id="ca">
   <path d="m622.51 510.45h20.242v20.246h-20.242z"/>
  </clipPath>
  <clipPath id="bz">
   <path d="m963.02 400.03h20.242v20.246h-20.242z"/>
  </clipPath>
  <clipPath id="bx">
   <path d="m963.02 542.4h20.242v20.246h-20.242z"/>
  </clipPath>
  <clipPath id="bw">
   <path d="m837.52 532.29h20.242v20.246h-20.242z"/>
  </clipPath>
  <clipPath id="bv">
   <path d="m792.32 606.13h20.242v20.246h-20.242z"/>
  </clipPath>
  <clipPath id="bu">
   <path d="m862.5 431.81h20.242v20.246h-20.242z"/>
  </clipPath>
  <clipPath id="bt">
   <path d="m701.9 544.35h20.242v20.246h-20.242z"/>
  </clipPath>
  <clipPath id="bs">
   <path d="m632.63 238.22h20.242v20.246h-20.242z"/>
  </clipPath>
  <clipPath id="br">
   <path d="m808.73 248.35h20.242v20.246h-20.242z"/>
  </clipPath>
  <clipPath id="bq">
   <path d="m566.29 556.42h20.242v20.246h-20.242z"/>
  </clipPath>
  <clipPath id="bp">
   <path d="m385.47 606.13h20.242v20.246h-20.242z"/>
  </clipPath>
  <clipPath id="bo">
   <path d="m395.59 476.32h20.242v20.246h-20.242z"/>
  </clipPath>
  <clipPath id="bm">
   <path d="m224.89 590.04h20.242v20.246h-20.242z"/>
  </clipPath>
  <clipPath id="bl">
   <path d="m249.85 424.53h20.242v20.246h-20.242z"/>
  </clipPath>
  <clipPath id="bk">
   <path d="m249.85 500.32h20.242v20.246h-20.242z"/>
  </clipPath>
  <clipPath id="bj">
   <path d="m732.28 498.02h20.242v20.246h-20.242z"/>
  </clipPath>
  <clipPath id="bi">
   <path d="m346.55 774.6h20.242v20.246h-20.242z"/>
  </clipPath>
  <clipPath id="bh">
   <path d="m179.69 532.29h20.242v20.246h-20.242z"/>
  </clipPath>
  <clipPath id="bg">
   <path d="m194.53 456.08h20.242v20.246h-20.242z"/>
  </clipPath>
  <clipPath id="bf">
   <path d="m114.23 596.64h20.242v20.246h-20.242z"/>
  </clipPath>
  <clipPath id="be">
   <path d="m169.57 389.9h20.242v20.246h-20.242z"/>
  </clipPath>
  <clipPath id="bd">
   <path d="m420.55 359.54h20.242v20.246h-20.242z"/>
  </clipPath>
  <clipPath id="bb">
   <path d="m1063.6 600.16h20.242v20.246h-20.242z"/>
  </clipPath>
  <clipPath id="ba">
   <path d="m993.38 670.62h20.242v20.246h-20.242z"/>
  </clipPath>
  <clipPath id="az">
   <path d="m963.02 844.49h20.242v20.246h-20.242z"/>
  </clipPath>
  <clipPath id="ay">
   <path d="m1018.3 476.32h20.242v20.246h-20.242z"/>
  </clipPath>
  <clipPath id="ax">
   <path d="m919.39 576.66h20.242v20.246h-20.242z"/>
  </clipPath>
  <clipPath id="aw">
   <path d="m882.73 620.27h20.242v20.246h-20.242z"/>
  </clipPath>
  <clipPath id="av">
   <path d="m788.49 704.14h20.242v20.246h-20.242z"/>
  </clipPath>
  <clipPath id="au">
   <path d="m652.88 590.04h20.242v20.246h-20.242z"/>
  </clipPath>
  <clipPath id="at">
   <path d="m701.9 864.73h20.242v20.246h-20.242z"/>
  </clipPath>
  <clipPath id="as">
   <path d="m596.66 596.01h20.242v20.246h-20.242z"/>
  </clipPath>
  <clipPath id="aq">
   <path d="m622.52 445.95h20.242v20.246h-20.242z"/>
  </clipPath>
  <clipPath id="ap">
   <path d="m556.17 670.62h20.242v20.246h-20.242z"/>
  </clipPath>
  <clipPath id="ao">
   <path d="m475.88 566.54h20.242v20.246h-20.242z"/>
  </clipPath>
  <clipPath id="an">
   <path d="m566.29 452.06h20.242v20.246h-20.242z"/>
  </clipPath>
  <clipPath id="am">
   <path d="m527.38 752.55h20.242v20.246h-20.242z"/>
  </clipPath>
  <clipPath id="al">
   <path d="m430.68 660.5h20.242v20.246h-20.242z"/>
  </clipPath>
  <clipPath id="ak">
   <path d="m295.05 594.07h20.242v20.246h-20.242z"/>
  </clipPath>
  <clipPath id="aj">
   <path d="m420.55 813.01h20.242v20.246h-20.242z"/>
  </clipPath>
  <clipPath id="ai">
   <path d="m395.59 530.34h20.242v20.246h-20.242z"/>
  </clipPath>
  <clipPath id="ah">
   <path d="m1038.6 682.69h20.242v20.246h-20.242z"/>
  </clipPath>
  <clipPath id="af">
   <path d="m305.18 660.5h20.242v20.246h-20.242z"/>
  </clipPath>
  <clipPath id="ae">
   <path d="m179.69 742.42h20.242v20.246h-20.242z"/>
  </clipPath>
  <clipPath id="ad">
   <path d="m114.23 688.65h20.242v20.246h-20.242z"/>
  </clipPath>
  <clipPath id="ac">
   <path d="m687.08 1038.5h20.242v20.246h-20.242z"/>
  </clipPath>
  <clipPath id="ab">
   <path d="m124.36 452.06h20.242v20.246h-20.242z"/>
  </clipPath>
  <clipPath id="aa">
   <path d="m1018.3 774.6h20.242v20.246h-20.242z"/>
  </clipPath>
  <clipPath id="z">
   <path d="m872.61 714.26h20.242v20.246h-20.242z"/>
  </clipPath>
  <clipPath id="y">
   <path d="m792.32 1009.6h20.242v20.246h-20.242z"/>
  </clipPath>
  <clipPath id="x">
   <path d="m909.27 806.91h20.242v20.246h-20.242z"/>
  </clipPath>
  <clipPath id="w">
   <path d="m778.37 802.89h20.242v20.246h-20.242z"/>
  </clipPath>
  <clipPath id="u">
   <path d="m899.14 904.83h20.242v20.246h-20.242z"/>
  </clipPath>
  <clipPath id="t">
   <path d="m537.5 904.83h20.242v20.246h-20.242z"/>
  </clipPath>
  <clipPath id="s">
   <path d="m676.95 943.5h20.242v20.246h-20.242z"/>
  </clipPath>
  <clipPath id="r">
   <path d="m576.42 999.42h20.242v20.246h-20.242z"/>
  </clipPath>
  <clipPath id="q">
   <path d="m701.9 760.59h20.242v20.246h-20.242z"/>
  </clipPath>
  <clipPath id="p">
   <path d="m823.57 914.95h20.242v20.246h-20.242z"/>
  </clipPath>
  <clipPath id="o">
   <path d="m632.63 854.61h20.242v20.246h-20.242z"/>
  </clipPath>
  <clipPath id="n">
   <path d="m566.29 772.65h20.242v20.246h-20.242z"/>
  </clipPath>
  <clipPath id="m">
   <path d="m430.68 999.42h20.242v20.246h-20.242z"/>
  </clipPath>
  <clipPath id="l">
   <path d="m510.96 894.7h20.242v20.246h-20.242z"/>
  </clipPath>
  <clipPath id="j">
   <path d="m430.68 914.95h20.242v20.246h-20.242z"/>
  </clipPath>
  <clipPath id="i">
   <path d="m510.96 817.04h20.242v20.246h-20.242z"/>
  </clipPath>
  <clipPath id="h">
   <path d="m712.03 688.65h20.242v20.246h-20.242z"/>
  </clipPath>
  <clipPath id="g">
   <path d="m295.06 844.49h20.242v20.246h-20.242z"/>
  </clipPath>
  <clipPath id="f">
   <path d="m440.8 712.92h20.242v20.246h-20.242z"/>
  </clipPath>
  <clipPath id="e">
   <path d="m204.65 804.84h20.242v20.246h-20.242z"/>
  </clipPath>
  <clipPath id="d">
   <path d="m259.98 752.55h20.242v20.246h-20.242z"/>
  </clipPath>
  <clipPath id="c">
   <path d="m259.98 894.7h20.242v20.246h-20.242z"/>
  </clipPath>
  <clipPath id="b">
   <path d="m336.43 914.95h20.242v20.246h-20.242z"/>
  </clipPath>
  <clipPath id="a">
   <path d="m642.76 153.08h20.242v20.246h-20.242z"/>
  </clipPath>
 </defs>
 <g clip-path="url(#cv)">
  <path d="m902.98 268.59c0 5.5898-4.5273 10.121-10.121 10.121-5.5898 0-10.117-4.5312-10.117-10.121-0.003906-5.5938 4.5234-10.125 10.113-10.125 5.5977 0 10.125 4.5312 10.125 10.125z"/>
 </g>
 <g clip-path="url(#cu)">
  <path d="m847.64 335.04c0 5.5898-4.5273 10.121-10.121 10.121-5.5898 0-10.117-4.5312-10.117-10.121-0.003906-5.5938 4.5234-10.125 10.113-10.125 5.5977 0 10.125 4.5312 10.125 10.125z"/>
 </g>
 <g clip-path="url(#cj)">
  <path d="m1058.8 452.06c0 5.5898-4.5273 10.121-10.121 10.121-5.5898 0-10.117-4.5312-10.117-10.121-0.003906-5.5938 4.5234-10.125 10.113-10.125 5.5977 0 10.125 4.5312 10.125 10.125z"/>
 </g>
 <g clip-path="url(#by)">
  <path d="m929.51 476.33c0 5.5898-4.5273 10.121-10.121 10.121-5.5898 0-10.117-4.5312-10.117-10.121-0.003906-5.5938 4.5234-10.125 10.113-10.125 5.5977 0 10.125 4.5312 10.125 10.125z"/>
 </g>
 <g clip-path="url(#bn)">
  <path d="m606.78 324.91c0 5.5898-4.5273 10.121-10.121 10.121-5.5898 0-10.117-4.5312-10.117-10.121-0.003906-5.5938 4.5234-10.125 10.113-10.125 5.5977 0 10.125 4.5312 10.125 10.125z"/>
 </g>
 <g clip-path="url(#bc)">
  <path d="m557.74 213.82c0 5.5898-4.5273 10.121-10.121 10.121-5.5898 0-10.117-4.5312-10.117-10.121-0.003906-5.5938 4.5234-10.125 10.113-10.125 5.5977 0 10.125 4.5312 10.125 10.125z"/>
 </g>
 <g clip-path="url(#ar)">
  <path d="m777.48 238.22c0 5.5898-4.5273 10.121-10.121 10.121-5.5898 0-10.117-4.5312-10.117-10.121-0.003907-5.5938 4.5234-10.125 10.113-10.125 5.5977 0 10.125 4.5312 10.125 10.125z"/>
 </g>
 <g clip-path="url(#ag)">
  <path d="m767.36 441.94c0 5.5898-4.5273 10.121-10.121 10.121-5.5898 0-10.117-4.5312-10.117-10.121-0.003907-5.5938 4.5234-10.125 10.113-10.125 5.5977 0 10.125 4.5312 10.125 10.125z"/>
 </g>
 <g clip-path="url(#v)">
  <path d="m616.9 369.66c0 5.5898-4.5273 10.121-10.121 10.121-5.5898 0-10.117-4.5312-10.117-10.121-0.003906-5.5938 4.5234-10.125 10.113-10.125 5.5977 0 10.125 4.5312 10.125 10.125z"/>
 </g>
 <g clip-path="url(#k)">
  <path d="m492.29 508.51c0 5.5898-4.5273 10.121-10.121 10.121-5.5898 0-10.117-4.5312-10.117-10.121-0.003907-5.5938 4.5234-10.125 10.113-10.125 5.5977 0 10.125 4.5312 10.125 10.125z"/>
 </g>
 <g clip-path="url(#ct)">
  <path d="m531.2 389.9c0 5.5898-4.5273 10.121-10.121 10.121-5.5898 0-10.117-4.5312-10.117-10.121-0.003906-5.5938 4.5234-10.125 10.113-10.125 5.5977 0 10.125 4.5312 10.125 10.125z"/>
 </g>
 <g clip-path="url(#cs)">
  <path d="m390.87 335.03c0 5.5898-4.5273 10.121-10.121 10.121-5.5898 0-10.117-4.5312-10.117-10.121-0.003906-5.5938 4.5234-10.125 10.113-10.125 5.5977 0 10.125 4.5312 10.125 10.125z"/>
 </g>
 <g clip-path="url(#cr)">
  <path d="m356.68 520.57c0 5.5898-4.5273 10.121-10.121 10.121-5.5898 0-10.117-4.5312-10.117-10.121-0.003906-5.5938 4.5234-10.125 10.113-10.125 5.5977 0 10.125 4.5312 10.125 10.125z"/>
 </g>
 <g clip-path="url(#cq)">
  <path d="m311.47 203.69c0 5.5898-4.5273 10.121-10.121 10.121-5.5898 0-10.117-4.5312-10.117-10.121-0.003906-5.5938 4.5234-10.125 10.113-10.125 5.5977 0 10.125 4.5312 10.125 10.125z"/>
 </g>
 <g clip-path="url(#cp)">
  <path d="m325.42 298.96c0 5.5898-4.5273 10.121-10.121 10.121-5.5898 0-10.117-4.5312-10.117-10.121-0.003906-5.5938 4.5234-10.125 10.113-10.125 5.5977 0 10.125 4.5312 10.125 10.125z"/>
 </g>
 <g clip-path="url(#co)">
  <path d="m818.85 163.2c0 5.5898-4.5273 10.121-10.121 10.121-5.5898 0-10.117-4.5312-10.117-10.121-0.003906-5.5938 4.5234-10.125 10.113-10.125 5.5977 0 10.125 4.5312 10.125 10.125z"/>
 </g>
 <g clip-path="url(#cn)">
  <path d="m245.14 379.78c0 5.5898-4.5273 10.121-10.121 10.121-5.5898 0-10.117-4.5312-10.117-10.121-0.003907-5.5938 4.5234-10.125 10.113-10.125 5.5977 0 10.125 4.5312 10.125 10.125z"/>
 </g>
 <g clip-path="url(#cm)">
  <path d="m380.75 183.45c0 5.5898-4.5273 10.121-10.121 10.121-5.5898 0-10.117-4.5312-10.117-10.121-0.003906-5.5938 4.5234-10.125 10.113-10.125 5.5977 0 10.125 4.5312 10.125 10.125z"/>
 </g>
 <g clip-path="url(#cl)">
  <path d="m436.96 203.69c0 5.5898-4.5273 10.121-10.121 10.121-5.5898 0-10.117-4.5312-10.117-10.121-0.003906-5.5938 4.5234-10.125 10.113-10.125 5.5977 0 10.125 4.5312 10.125 10.125z"/>
 </g>
 <g clip-path="url(#ck)">
  <path d="m486 298.96c0 5.5898-4.5273 10.121-10.121 10.121-5.5898 0-10.117-4.5312-10.117-10.121-0.003907-5.5938 4.5234-10.125 10.113-10.125 5.5977 0 10.125 4.5312 10.125 10.125z"/>
 </g>
 <g clip-path="url(#ci)">
  <path d="m557.74 142.96c0 5.5898-4.5273 10.121-10.121 10.121-5.5898 0-10.117-4.5312-10.117-10.121-0.003906-5.5938 4.5234-10.125 10.113-10.125 5.5977 0 10.125 4.5312 10.125 10.125z"/>
 </g>
 <g clip-path="url(#ch)">
  <path d="m732.27 335.04c0 5.5898-4.5273 10.121-10.121 10.121-5.5898 0-10.117-4.5312-10.117-10.121-0.003906-5.5938 4.5234-10.125 10.113-10.125 5.5977 0 10.125 4.5312 10.125 10.125z"/>
 </g>
 <g clip-path="url(#cg)">
  <path d="m245.14 278.71c0 5.5898-4.5273 10.121-10.121 10.121-5.5898 0-10.117-4.5312-10.117-10.121-0.003907-5.5938 4.5234-10.125 10.113-10.125 5.5977 0 10.125 4.5312 10.125 10.125z"/>
 </g>
 <g clip-path="url(#cf)">
  <path d="m360.51 355.28c0 5.5898-4.5273 10.121-10.121 10.121-5.5898 0-10.117-4.5312-10.117-10.121-0.003906-5.5938 4.5234-10.125 10.113-10.125 5.5977 0 10.125 4.5312 10.125 10.125z"/>
 </g>
 <g clip-path="url(#ce)">
  <path d="m346.55 434.66c0 5.5898-4.5273 10.121-10.121 10.121-5.5898 0-10.117-4.5312-10.117-10.121-0.003906-5.5938 4.5234-10.125 10.113-10.125 5.5977 0 10.125 4.5312 10.125 10.125z"/>
 </g>
 <g clip-path="url(#cd)">
  <path d="m1083.8 518.28c0 5.5898-4.5273 10.121-10.121 10.121-5.5898 0-10.117-4.5312-10.117-10.121-0.003906-5.5938 4.5234-10.125 10.113-10.125 5.5977 0 10.125 4.5312 10.125 10.125z"/>
 </g>
 <g clip-path="url(#cc)">
  <path d="m983.26 268.59c0 5.5898-4.5273 10.121-10.121 10.121-5.5898 0-10.117-4.5312-10.117-10.121-0.003907-5.5938 4.5234-10.125 10.113-10.125 5.5977 0 10.125 4.5312 10.125 10.125z"/>
 </g>
 <g clip-path="url(#cb)">
  <path d="m983.26 355.28c0 5.5898-4.5273 10.121-10.121 10.121-5.5898 0-10.117-4.5312-10.117-10.121-0.003907-5.5938 4.5234-10.125 10.113-10.125 5.5977 0 10.125 4.5312 10.125 10.125z"/>
 </g>
 <g clip-path="url(#ca)">
  <path d="m642.75 520.57c0 5.5898-4.5273 10.121-10.121 10.121-5.5898 0-10.117-4.5312-10.117-10.121-0.003907-5.5938 4.5234-10.125 10.113-10.125 5.5977 0 10.125 4.5312 10.125 10.125z"/>
 </g>
 <g clip-path="url(#bz)">
  <path d="m983.26 410.15c0 5.5898-4.5273 10.121-10.121 10.121-5.5898 0-10.117-4.5312-10.117-10.121-0.003907-5.5938 4.5234-10.125 10.113-10.125 5.5977 0 10.125 4.5312 10.125 10.125z"/>
 </g>
 <g clip-path="url(#bx)">
  <path d="m983.26 552.53c0 5.5898-4.5273 10.121-10.121 10.121-5.5898 0-10.117-4.5312-10.117-10.121-0.003907-5.5938 4.5234-10.125 10.113-10.125 5.5977 0 10.125 4.5312 10.125 10.125z"/>
 </g>
 <g clip-path="url(#bw)">
  <path d="m857.77 542.41c0 5.5898-4.5273 10.121-10.121 10.121-5.5898 0-10.117-4.5312-10.117-10.121-0.003906-5.5938 4.5234-10.125 10.113-10.125 5.5977 0 10.125 4.5312 10.125 10.125z"/>
 </g>
 <g clip-path="url(#bv)">
  <path d="m812.57 616.26c0 5.5898-4.5273 10.121-10.121 10.121-5.5898 0-10.117-4.5312-10.117-10.121-0.003906-5.5938 4.5234-10.125 10.113-10.125 5.5977 0 10.125 4.5312 10.125 10.125z"/>
 </g>
 <g clip-path="url(#bu)">
  <path d="m882.74 441.94c0 5.5898-4.5273 10.121-10.121 10.121-5.5898 0-10.117-4.5312-10.117-10.121-0.003906-5.5938 4.5234-10.125 10.113-10.125 5.5977 0 10.125 4.5312 10.125 10.125z"/>
 </g>
 <g clip-path="url(#bt)">
  <path d="m722.14 554.48c0 5.5898-4.5273 10.121-10.121 10.121-5.5898 0-10.117-4.5312-10.117-10.121-0.003906-5.5938 4.5234-10.125 10.113-10.125 5.5977 0 10.125 4.5312 10.125 10.125z"/>
 </g>
 <g clip-path="url(#bs)">
  <path d="m652.88 248.34c0 5.5898-4.5273 10.121-10.121 10.121-5.5898 0-10.117-4.5312-10.117-10.121-0.003907-5.5938 4.5234-10.125 10.113-10.125 5.5977 0 10.125 4.5312 10.125 10.125z"/>
 </g>
 <g clip-path="url(#br)">
  <path d="m828.97 258.47c0 5.5898-4.5273 10.121-10.121 10.121-5.5898 0-10.117-4.5312-10.117-10.121-0.003906-5.5938 4.5234-10.125 10.113-10.125 5.5977 0 10.125 4.5312 10.125 10.125z"/>
 </g>
 <g clip-path="url(#bq)">
  <path d="m586.54 566.54c0 5.5898-4.5273 10.121-10.121 10.121-5.5898 0-10.117-4.5312-10.117-10.121-0.003906-5.5938 4.5234-10.125 10.113-10.125 5.5977 0 10.125 4.5312 10.125 10.125z"/>
 </g>
 <g clip-path="url(#bp)">
  <path d="m405.71 616.26c0 5.5898-4.5273 10.121-10.121 10.121-5.5898 0-10.117-4.5312-10.117-10.121-0.003906-5.5938 4.5234-10.125 10.113-10.125 5.5977 0 10.125 4.5312 10.125 10.125z"/>
 </g>
 <g clip-path="url(#bo)">
  <path d="m415.83 486.45c0 5.5898-4.5273 10.121-10.121 10.121-5.5898 0-10.117-4.5312-10.117-10.121-0.003906-5.5938 4.5234-10.125 10.113-10.125 5.5977 0 10.125 4.5312 10.125 10.125z"/>
 </g>
 <g clip-path="url(#bm)">
  <path d="m245.14 600.17c0 5.5898-4.5273 10.121-10.121 10.121-5.5898 0-10.117-4.5312-10.117-10.121-0.003907-5.5938 4.5234-10.125 10.113-10.125 5.5977 0 10.125 4.5312 10.125 10.125z"/>
 </g>
 <g clip-path="url(#bl)">
  <path d="m270.09 434.66c0 5.5898-4.5273 10.121-10.121 10.121-5.5898 0-10.117-4.5312-10.117-10.121-0.003907-5.5938 4.5234-10.125 10.113-10.125 5.5977 0 10.125 4.5312 10.125 10.125z"/>
 </g>
 <g clip-path="url(#bk)">
  <path d="m270.09 510.45c0 5.5898-4.5273 10.121-10.121 10.121-5.5898 0-10.117-4.5312-10.117-10.121-0.003907-5.5938 4.5234-10.125 10.113-10.125 5.5977 0 10.125 4.5312 10.125 10.125z"/>
 </g>
 <g clip-path="url(#bj)">
  <path d="m752.52 508.15c0 5.5898-4.5273 10.121-10.121 10.121-5.5898 0-10.117-4.5312-10.117-10.121-0.003906-5.5938 4.5234-10.125 10.113-10.125 5.5977 0 10.125 4.5312 10.125 10.125z"/>
 </g>
 <g clip-path="url(#bi)">
  <path d="m366.8 784.73c0 5.5898-4.5273 10.121-10.121 10.121-5.5898 0-10.117-4.5312-10.117-10.121-0.003906-5.5938 4.5234-10.125 10.113-10.125 5.5977 0 10.125 4.5312 10.125 10.125z"/>
 </g>
 <g clip-path="url(#bh)">
  <path d="m199.93 542.41c0 5.5898-4.5273 10.121-10.121 10.121-5.5898 0-10.117-4.5312-10.117-10.121-0.003906-5.5938 4.5234-10.125 10.113-10.125 5.5977 0 10.125 4.5312 10.125 10.125z"/>
 </g>
 <g clip-path="url(#bg)">
  <path d="m214.77 466.2c0 5.5898-4.5273 10.121-10.121 10.121-5.5898 0-10.117-4.5312-10.117-10.121-0.003906-5.5938 4.5234-10.125 10.113-10.125 5.5977 0 10.125 4.5312 10.125 10.125z"/>
 </g>
 <g clip-path="url(#bf)">
  <path d="m134.48 606.77c0 5.5898-4.5273 10.121-10.121 10.121-5.5898 0-10.117-4.5312-10.117-10.121-0.003906-5.5938 4.5234-10.125 10.113-10.125 5.5977 0 10.125 4.5312 10.125 10.125z"/>
 </g>
 <g clip-path="url(#be)">
  <path d="m189.81 400.03c0 5.5898-4.5273 10.121-10.121 10.121-5.5898 0-10.117-4.5312-10.117-10.121-0.003906-5.5938 4.5234-10.125 10.113-10.125 5.5977 0 10.125 4.5312 10.125 10.125z"/>
 </g>
 <g clip-path="url(#bd)">
  <path d="m440.79 369.66c0 5.5898-4.5273 10.121-10.121 10.121-5.5898 0-10.117-4.5312-10.117-10.121-0.003907-5.5938 4.5234-10.125 10.113-10.125 5.5977 0 10.125 4.5312 10.125 10.125z"/>
 </g>
 <g clip-path="url(#bb)">
  <path d="m1083.8 610.29c0 5.5898-4.5273 10.121-10.121 10.121-5.5898 0-10.117-4.5312-10.117-10.121-0.003906-5.5938 4.5234-10.125 10.113-10.125 5.5977 0 10.125 4.5312 10.125 10.125z"/>
 </g>
 <g clip-path="url(#ba)">
  <path d="m1013.6 680.74c0 5.5898-4.5273 10.121-10.121 10.121-5.5898 0-10.117-4.5312-10.117-10.121-0.003907-5.5938 4.5234-10.125 10.113-10.125 5.5977 0 10.125 4.5312 10.125 10.125z"/>
 </g>
 <g clip-path="url(#az)">
  <path d="m983.26 854.62c0 5.5898-4.5273 10.121-10.121 10.121-5.5898 0-10.117-4.5312-10.117-10.121-0.003907-5.5938 4.5234-10.125 10.113-10.125 5.5977 0 10.125 4.5312 10.125 10.125z"/>
 </g>
 <g clip-path="url(#ay)">
  <path d="m1038.6 486.45c0 5.5898-4.5273 10.121-10.121 10.121-5.5898 0-10.117-4.5312-10.117-10.121-0.003906-5.5938 4.5234-10.125 10.113-10.125 5.5977 0 10.125 4.5312 10.125 10.125z"/>
 </g>
 <g clip-path="url(#ax)">
  <path d="m939.63 586.79c0 5.5898-4.5273 10.121-10.121 10.121-5.5898 0-10.117-4.5312-10.117-10.121-0.003906-5.5938 4.5234-10.125 10.113-10.125 5.5977 0 10.125 4.5312 10.125 10.125z"/>
 </g>
 <g clip-path="url(#aw)">
  <path d="m902.98 630.4c0 5.5898-4.5273 10.121-10.121 10.121-5.5898 0-10.117-4.5312-10.117-10.121-0.003906-5.5938 4.5234-10.125 10.113-10.125 5.5977 0 10.125 4.5312 10.125 10.125z"/>
 </g>
 <g clip-path="url(#av)">
  <path d="m808.73 714.26c0 5.5898-4.5273 10.121-10.121 10.121-5.5898 0-10.117-4.5312-10.117-10.121-0.003906-5.5938 4.5234-10.125 10.113-10.125 5.5977 0 10.125 4.5312 10.125 10.125z"/>
 </g>
 <g clip-path="url(#au)">
  <path d="m673.12 600.17c0 5.5898-4.5273 10.121-10.121 10.121-5.5898 0-10.117-4.5312-10.117-10.121-0.003907-5.5938 4.5234-10.125 10.113-10.125 5.5977 0 10.125 4.5312 10.125 10.125z"/>
 </g>
 <g clip-path="url(#at)">
  <path d="m722.14 874.86c0 5.5898-4.5273 10.121-10.121 10.121-5.5898 0-10.117-4.5312-10.117-10.121-0.003906-5.5938 4.5234-10.125 10.113-10.125 5.5977 0 10.125 4.5312 10.125 10.125z"/>
 </g>
 <g clip-path="url(#as)">
  <path d="m616.9 606.14c0 5.5898-4.5273 10.121-10.121 10.121-5.5898 0-10.117-4.5312-10.117-10.121-0.003906-5.5938 4.5234-10.125 10.113-10.125 5.5977 0 10.125 4.5312 10.125 10.125z"/>
 </g>
 <g clip-path="url(#aq)">
  <path d="m642.76 456.08c0 5.5898-4.5273 10.121-10.121 10.121-5.5898 0-10.117-4.5312-10.117-10.121-0.003907-5.5938 4.5234-10.125 10.113-10.125 5.5977 0 10.125 4.5312 10.125 10.125z"/>
 </g>
 <g clip-path="url(#ap)">
  <path d="m576.41 680.74c0 5.5898-4.5273 10.121-10.121 10.121-5.5898 0-10.117-4.5312-10.117-10.121-0.003906-5.5938 4.5234-10.125 10.113-10.125 5.5977 0 10.125 4.5312 10.125 10.125z"/>
 </g>
 <g clip-path="url(#ao)">
  <path d="m496.12 576.66c0 5.5898-4.5273 10.121-10.121 10.121-5.5898 0-10.117-4.5312-10.117-10.121-0.003907-5.5938 4.5234-10.125 10.113-10.125 5.5977 0 10.125 4.5312 10.125 10.125z"/>
 </g>
 <g clip-path="url(#an)">
  <path d="m586.54 462.18c0 5.5898-4.5273 10.121-10.121 10.121-5.5898 0-10.117-4.5312-10.117-10.121-0.003906-5.5938 4.5234-10.125 10.113-10.125 5.5977 0 10.125 4.5312 10.125 10.125z"/>
 </g>
 <g clip-path="url(#am)">
  <path d="m547.62 762.67c0 5.5898-4.5273 10.121-10.121 10.121-5.5898 0-10.117-4.5312-10.117-10.121-0.003906-5.5938 4.5234-10.125 10.113-10.125 5.5977 0 10.125 4.5312 10.125 10.125z"/>
 </g>
 <g clip-path="url(#al)">
  <path d="m450.92 670.63c0 5.5898-4.5273 10.121-10.121 10.121-5.5898 0-10.117-4.5312-10.117-10.121-0.003907-5.5938 4.5234-10.125 10.113-10.125 5.5977 0 10.125 4.5312 10.125 10.125z"/>
 </g>
 <g clip-path="url(#ak)">
  <path d="m315.3 604.19c0 5.5898-4.5273 10.121-10.121 10.121-5.5898 0-10.117-4.5312-10.117-10.121-0.003906-5.5938 4.5234-10.125 10.113-10.125 5.5977 0 10.125 4.5312 10.125 10.125z"/>
 </g>
 <g clip-path="url(#aj)">
  <path d="m440.79 823.14c0 5.5898-4.5273 10.121-10.121 10.121-5.5898 0-10.117-4.5312-10.117-10.121-0.003907-5.5938 4.5234-10.125 10.113-10.125 5.5977 0 10.125 4.5312 10.125 10.125z"/>
 </g>
 <g clip-path="url(#ai)">
  <path d="m415.83 540.46c0 5.5898-4.5273 10.121-10.121 10.121-5.5898 0-10.117-4.5312-10.117-10.121-0.003906-5.5938 4.5234-10.125 10.113-10.125 5.5977 0 10.125 4.5312 10.125 10.125z"/>
 </g>
 <g clip-path="url(#ah)">
  <path d="m1058.8 692.82c0 5.5898-4.5273 10.121-10.121 10.121-5.5898 0-10.117-4.5312-10.117-10.121-0.003906-5.5938 4.5234-10.125 10.113-10.125 5.5977 0 10.125 4.5312 10.125 10.125z"/>
 </g>
 <g clip-path="url(#af)">
  <path d="m325.42 670.63c0 5.5898-4.5273 10.121-10.121 10.121-5.5898 0-10.117-4.5312-10.117-10.121-0.003906-5.5938 4.5234-10.125 10.113-10.125 5.5977 0 10.125 4.5312 10.125 10.125z"/>
 </g>
 <g clip-path="url(#ae)">
  <path d="m199.93 752.54c0 5.5898-4.5273 10.121-10.121 10.121-5.5898 0-10.117-4.5312-10.117-10.121-0.003906-5.5938 4.5234-10.125 10.113-10.125 5.5977 0 10.125 4.5312 10.125 10.125z"/>
 </g>
 <g clip-path="url(#ad)">
  <path d="m134.48 698.78c0 5.5898-4.5273 10.121-10.121 10.121-5.5898 0-10.117-4.5312-10.117-10.121-0.003906-5.5938 4.5234-10.125 10.113-10.125 5.5977 0 10.125 4.5312 10.125 10.125z"/>
 </g>
 <g clip-path="url(#ac)">
  <path d="m707.32 1048.7c0 5.5898-4.5273 10.121-10.121 10.121-5.5898 0-10.117-4.5312-10.117-10.121-0.003906-5.5938 4.5234-10.125 10.113-10.125 5.5977 0 10.125 4.5312 10.125 10.125z"/>
 </g>
 <g clip-path="url(#ab)">
  <path d="m144.6 462.18c0 5.5898-4.5273 10.121-10.121 10.121-5.5898 0-10.117-4.5312-10.117-10.121-0.003906-5.5938 4.5234-10.125 10.113-10.125 5.5977 0 10.125 4.5312 10.125 10.125z"/>
 </g>
 <g clip-path="url(#aa)">
  <path d="m1038.6 784.73c0 5.5898-4.5273 10.121-10.121 10.121-5.5898 0-10.117-4.5312-10.117-10.121-0.003906-5.5938 4.5234-10.125 10.113-10.125 5.5977 0 10.125 4.5312 10.125 10.125z"/>
 </g>
 <g clip-path="url(#z)">
  <path d="m892.85 724.38c0 5.5898-4.5273 10.121-10.121 10.121-5.5898 0-10.117-4.5312-10.117-10.121-0.003906-5.5938 4.5234-10.125 10.113-10.125 5.5977 0 10.125 4.5312 10.125 10.125z"/>
 </g>
 <g clip-path="url(#y)">
  <path d="m812.57 1019.7c0 5.5898-4.5273 10.121-10.121 10.121-5.5898 0-10.117-4.5312-10.117-10.121-0.003906-5.5938 4.5234-10.125 10.113-10.125 5.5977 0 10.125 4.5312 10.125 10.125z"/>
 </g>
 <g clip-path="url(#x)">
  <path d="m929.51 817.03c0 5.5898-4.5273 10.121-10.121 10.121-5.5898 0-10.117-4.5312-10.117-10.121-0.003906-5.5938 4.5234-10.125 10.113-10.125 5.5977 0 10.125 4.5312 10.125 10.125z"/>
 </g>
 <g clip-path="url(#w)">
  <path d="m798.61 813.02c0 5.5898-4.5273 10.121-10.121 10.121-5.5898 0-10.117-4.5312-10.117-10.121-0.003906-5.5938 4.5234-10.125 10.113-10.125 5.5977 0 10.125 4.5312 10.125 10.125z"/>
 </g>
 <g clip-path="url(#u)">
  <path d="m919.38 914.96c0 5.5898-4.5273 10.121-10.121 10.121-5.5898 0-10.117-4.5312-10.117-10.121-0.003906-5.5938 4.5234-10.125 10.113-10.125 5.5977 0 10.125 4.5312 10.125 10.125z"/>
 </g>
 <g clip-path="url(#t)">
  <path d="m557.74 914.96c0 5.5898-4.5273 10.121-10.121 10.121-5.5898 0-10.117-4.5312-10.117-10.121-0.003906-5.5938 4.5234-10.125 10.113-10.125 5.5977 0 10.125 4.5312 10.125 10.125z"/>
 </g>
 <g clip-path="url(#s)">
  <path d="m697.2 953.63c0 5.5898-4.5273 10.121-10.121 10.121-5.5898 0-10.117-4.5312-10.117-10.121-0.003906-5.5938 4.5234-10.125 10.113-10.125 5.5977 0 10.125 4.5312 10.125 10.125z"/>
 </g>
 <g clip-path="url(#r)">
  <path d="m596.66 1009.5c0 5.5898-4.5273 10.121-10.121 10.121-5.5898 0-10.117-4.5312-10.117-10.121-0.003906-5.5938 4.5234-10.125 10.113-10.125 5.5977 0 10.125 4.5312 10.125 10.125z"/>
 </g>
 <g clip-path="url(#q)">
  <path d="m722.14 770.71c0 5.5898-4.5273 10.121-10.121 10.121-5.5898 0-10.117-4.5312-10.117-10.121-0.003906-5.5938 4.5234-10.125 10.113-10.125 5.5977 0 10.125 4.5312 10.125 10.125z"/>
 </g>
 <g clip-path="url(#p)">
  <path d="m843.81 925.07c0 5.5898-4.5273 10.121-10.121 10.121-5.5898 0-10.117-4.5312-10.117-10.121-0.003906-5.5938 4.5234-10.125 10.113-10.125 5.5977 0 10.125 4.5312 10.125 10.125z"/>
 </g>
 <g clip-path="url(#o)">
  <path d="m652.88 864.74c0 5.5898-4.5273 10.121-10.121 10.121-5.5898 0-10.117-4.5312-10.117-10.121-0.003907-5.5938 4.5234-10.125 10.113-10.125 5.5977 0 10.125 4.5312 10.125 10.125z"/>
 </g>
 <g clip-path="url(#n)">
  <path d="m586.54 782.78c0 5.5898-4.5273 10.121-10.121 10.121-5.5898 0-10.117-4.5312-10.117-10.121-0.003906-5.5938 4.5234-10.125 10.113-10.125 5.5977 0 10.125 4.5312 10.125 10.125z"/>
 </g>
 <g clip-path="url(#m)">
  <path d="m450.92 1009.5c0 5.5898-4.5273 10.121-10.121 10.121-5.5898 0-10.117-4.5312-10.117-10.121-0.003907-5.5938 4.5234-10.125 10.113-10.125 5.5977 0 10.125 4.5312 10.125 10.125z"/>
 </g>
 <g clip-path="url(#l)">
  <path d="m531.2 904.83c0 5.5898-4.5273 10.121-10.121 10.121-5.5898 0-10.117-4.5312-10.117-10.121-0.003906-5.5938 4.5234-10.125 10.113-10.125 5.5977 0 10.125 4.5312 10.125 10.125z"/>
 </g>
 <g clip-path="url(#j)">
  <path d="m450.92 925.07c0 5.5898-4.5273 10.121-10.121 10.121-5.5898 0-10.117-4.5312-10.117-10.121-0.003907-5.5938 4.5234-10.125 10.113-10.125 5.5977 0 10.125 4.5312 10.125 10.125z"/>
 </g>
 <g clip-path="url(#i)">
  <path d="m531.2 827.16c0 5.5898-4.5273 10.121-10.121 10.121-5.5898 0-10.117-4.5312-10.117-10.121-0.003906-5.5938 4.5234-10.125 10.113-10.125 5.5977 0 10.125 4.5312 10.125 10.125z"/>
 </g>
 <g clip-path="url(#h)">
  <path d="m732.27 698.78c0 5.5898-4.5273 10.121-10.121 10.121-5.5898 0-10.117-4.5312-10.117-10.121-0.003906-5.5938 4.5234-10.125 10.113-10.125 5.5977 0 10.125 4.5312 10.125 10.125z"/>
 </g>
 <g clip-path="url(#g)">
  <path d="m315.3 854.62c0 5.5898-4.5273 10.121-10.121 10.121-5.5898 0-10.117-4.5312-10.117-10.121-0.003906-5.5938 4.5234-10.125 10.113-10.125 5.5977 0 10.125 4.5312 10.125 10.125z"/>
 </g>
 <g clip-path="url(#f)">
  <path d="m461.04 723.05c0 5.5898-4.5273 10.121-10.121 10.121-5.5898 0-10.117-4.5312-10.117-10.121-0.003906-5.5938 4.5234-10.125 10.113-10.125 5.5977 0 10.125 4.5312 10.125 10.125z"/>
 </g>
 <g clip-path="url(#e)">
  <path d="m224.89 814.96c0 5.5898-4.5273 10.121-10.121 10.121-5.5898 0-10.117-4.5312-10.117-10.121-0.003906-5.5938 4.5234-10.125 10.113-10.125 5.5977 0 10.125 4.5312 10.125 10.125z"/>
 </g>
 <g clip-path="url(#d)">
  <path d="m280.22 762.67c0 5.5898-4.5273 10.121-10.121 10.121-5.5898 0-10.117-4.5312-10.117-10.121-0.003907-5.5938 4.5234-10.125 10.113-10.125 5.5977 0 10.125 4.5312 10.125 10.125z"/>
 </g>
 <g clip-path="url(#c)">
  <path d="m280.22 904.83c0 5.5898-4.5273 10.121-10.121 10.121-5.5898 0-10.117-4.5312-10.117-10.121-0.003907-5.5938 4.5234-10.125 10.113-10.125 5.5977 0 10.125 4.5312 10.125 10.125z"/>
 </g>
 <g clip-path="url(#b)">
  <path d="m356.67 925.07c0 5.5898-4.5273 10.121-10.121 10.121-5.5898 0-10.117-4.5312-10.117-10.121-0.003906-5.5938 4.5234-10.125 10.113-10.125 5.5977 0 10.125 4.5312 10.125 10.125z"/>
 </g>
 <g clip-path="url(#a)">
  <path d="m663 163.2c0 5.5898-4.5273 10.121-10.121 10.121-5.5898 0-10.117-4.5312-10.117-10.121-0.003907-5.5938 4.5234-10.125 10.113-10.125 5.5977 0 10.125 4.5312 10.125 10.125z"/>
 </g>
</svg>
