<?xml version="1.0" encoding="UTF-8"?>
<svg width="1200pt" height="1200pt" version="1.1" viewBox="0 0 1200 1200" xmlns="http://www.w3.org/2000/svg">
 <path d="m477.22 267.61c-2.2773 0.29297-4.4609 1.1016-6.3789 2.3633l-196.5 128.45c-4.2539 2.7969-6.8164 7.543-6.8164 12.633s2.5625 9.8398 6.8164 12.633l196.5 128.45c3.043 1.9844 6.6992 2.8086 10.297 2.3203 3.6016-0.48828 6.9062-2.2539 9.3086-4.9805 2.4023-2.7227 3.7422-6.2227 3.7773-9.8555v-37.777h30.23v83.113h-196.5c-4.0078 0-7.8516 1.5938-10.688 4.4258-2.8359 2.8359-4.4258 6.6797-4.4258 10.688v151.12-0.003907c0 4.0078 1.5898 7.8516 4.4258 10.688 2.8359 2.832 6.6797 4.4258 10.688 4.4258h196.5v151.12c0 4.0078 1.5938 7.8516 4.4297 10.684 2.832 2.832 6.6797 4.4258 10.688 4.4258h120.93c4.0078 0 7.8516-1.5938 10.688-4.4258 2.8359-2.832 4.4258-6.6758 4.4258-10.684v-151.12h30.23v37.777h0.003906c0.03125 3.6328 1.375 7.1328 3.7773 9.8555 2.4023 2.7266 5.707 4.4922 9.3047 4.9805 3.6016 0.48828 7.2578-0.33594 10.297-2.3203l196.5-128.45c4.2578-2.793 6.8203-7.543 6.8203-12.633s-2.5625-9.8359-6.8203-12.633l-196.5-128.45c-2.9961-1.9688-6.5977-2.8047-10.152-2.3633-3.6758 0.46484-7.0508 2.2578-9.4883 5.043-2.4375 2.7852-3.7695 6.3672-3.7383 10.07v37.777h-30.23v-83.113h196.5-0.003907c4.0117 0 7.8555-1.5938 10.688-4.4258 2.8359-2.8359 4.4297-6.6797 4.4297-10.688v-151.12 0.003906c0-4.0078-1.5938-7.8516-4.4297-10.688-2.832-2.832-6.6758-4.4258-10.688-4.4258h-196.5v-37.777c0-4.0078-1.5898-7.8516-4.4258-10.688-2.8359-2.832-6.6797-4.4258-10.688-4.4258h-120.93c-0.47266-0.023438-0.94531-0.023438-1.418 0-3.7578 0.35547-7.2461 2.1016-9.7812 4.8984s-3.9336 6.4414-3.918 10.215v37.777h-30.23v-37.777c0.035156-4.3594-1.8164-8.5195-5.0742-11.414-3.2578-2.8945-7.6055-4.2422-11.93-3.6992zm77.469 30.223h90.695v22.668h-90.695zm-90.695 12.75v25.031c0 4.0078 1.5938 7.8516 4.4258 10.684 2.8359 2.8359 6.6797 4.4258 10.688 4.4258h377.89v120.89h-377.89c-4.0078 0-7.8516 1.5938-10.688 4.4258-2.832 2.8359-4.4258 6.6758-4.4258 10.684v24.793l-153.75-100.35zm90.695 191.26h90.695v83.113h-90.695zm181.39 73.195 153.75 100.59-153.75 100.35v-24.793c0-4.0078-1.5938-7.8516-4.4297-10.684-2.832-2.8359-6.6797-4.4258-10.688-4.4258h-377.89v-120.89h377.89v-0.003906c4.0078 0 7.8555-1.5898 10.688-4.4258 2.8359-2.832 4.4297-6.6758 4.4297-10.684zm-181.39 191.26h90.695v136h-90.695z"/>
</svg>
