<?xml version="1.0" encoding="UTF-8"?>
<svg width="1200pt" height="1200pt" version="1.1" viewBox="0 0 1200 1200" xmlns="http://www.w3.org/2000/svg">
 <path d="m133.5 1078.6h936c6.625 0 12-5.3633 12-12v-936c0-6.6367-5.375-12-12-12h-936c-6.625 0-12 5.3633-12 12v936c0 6.6367 5.375 12 12 12zm245.18-468h92.578v92.594h-92.578zm-24 92.594h-92.594l0.003906-92.594h92.594zm140.58-92.594h92.594v92.594h-92.594zm92.59 116.59v92.594h-92.594v-92.594zm24 0h92.594v92.594h-92.594zm0-24v-92.594h92.594v92.594zm116.59-92.594h92.594v92.594h-92.594zm116.58 0h92.594v92.594h-92.594zm116.59 0h95.879v92.594h-95.879zm0-24v-92.594h95.879v92.594zm-24 0h-92.594v-92.594h92.594zm-116.59 0h-92.594v-92.594h92.594zm-116.58 0h-92.594v-92.594h92.594zm-92.594-116.59v-92.594h92.594v92.594zm-24 0h-92.594v-92.594h92.594zm0 24v92.594h-92.594v-92.594zm-116.59 92.59h-92.578v-92.594h92.578zm-116.58 0h-92.594v-92.594h92.594zm-116.59 0h-92.594v-92.594h92.594zm0 24v92.594h-92.594v-92.594zm0 116.59v92.594h-92.594v-92.594zm24 0h92.594v92.594h-92.594zm116.59 0h92.578v92.594h-92.578zm92.582 116.59v92.594h-92.578v-92.594zm24 0h92.594v92.594h-92.594zm116.59 0h92.594v92.594h-92.594zm116.59 0h92.594v92.594h-92.594zm0-24v-92.594h92.594v92.594zm116.58-92.59h92.594v92.594h-92.594zm116.59 0h95.879v92.594h-95.879zm95.879-257.18h-95.879v-92.594h95.879zm-119.88 0h-92.594v-92.594h92.594zm-116.59 0h-92.594v-92.594h92.594zm-92.578-116.59v-92.594h92.594v92.594zm-24 0h-92.594v-92.594h92.594zm-116.59 0h-92.594v-92.594h92.594zm-116.59 0h-92.578v-92.594h92.578zm0 24v92.594h-92.578v-92.594zm-116.58 92.594h-92.594v-92.594h92.594zm-116.59 0h-92.594v-92.594h92.594zm-92.594 373.77h92.594v92.594h-92.594zm116.59 0h92.594v92.594h-92.594zm92.59 116.58v94.234h-92.594v-94.234zm24 0h92.578v94.234h-92.578zm116.58 0h92.594v94.234h-92.594zm116.59 0h92.594v94.234h-92.594zm116.59 0h92.594v94.234h-92.594zm116.58 0h92.594v94.234h-92.594zm0-24v-92.594h92.594v92.594zm116.59-92.582h95.879v92.594h-95.879zm95.879-490.37h-95.879v-92.594h95.879zm-119.88 0h-92.594v-92.594h92.594zm-92.594-116.59v-94.227h92.594v94.234l-92.594 0.003906zm-24 0h-92.594l0.003906-94.227h92.594zm-116.58 0h-92.594v-94.227h92.594zm-116.59 0h-92.594l0.003906-94.227h92.594zm-116.59 0h-92.578l-0.003906-94.227h92.578zm-116.58 0h-92.594l0.003906-94.227h92.594zm0 24v92.594h-92.594v-92.594zm-116.59 92.59h-92.594v-92.594h92.594zm-92.594 606.95h92.594v94.234h-92.594zm816.12 94.234v-94.234h95.879v94.234zm95.879-817.77h-95.879v-94.227h95.879zm-819.41-94.227v94.234h-92.594v-94.234z"/>
</svg>
