<?xml version="1.0" encoding="UTF-8"?>
<svg width="1200pt" height="1200pt" version="1.1" viewBox="0 0 1200 1200" xmlns="http://www.w3.org/2000/svg">
 <path d="m121.87 337.4c0-8.3906 4.4531-16.125 11.719-20.297l454.5-262.4c7.2656-4.1719 16.172-4.1719 23.438 0l454.5 262.4c7.2656 4.1719 11.719 11.906 11.719 20.297v524.81c0 8.3906-4.4531 16.125-11.719 20.297l-454.5 262.4c-7.2656 4.1719-16.172 4.1719-23.438 0l-454.5-262.4c-7.2656-4.1719-11.719-11.906-11.719-20.297zm70.312 0 82.125 47.438 302.06-174.42v-94.875l-384.24 221.81zm58.734 88.031-82.125-47.438v443.68l82.125-47.438zm-58.734 436.82 384.24 221.81v-94.875l-302.06-174.42-82.125 47.438zm105.56-88.031 302.06 174.42 302.06-174.42v-348.79l-302.06-174.42-302.06 174.42zm709.74-436.82-384.24-221.81v94.875l302.06 174.42 82.125-47.438zm-384.24 746.68 384.24-221.81-82.125-47.438-302.06 174.42v94.875zm407.68-262.4v-443.68l-82.125 47.438v348.79z" fill-rule="evenodd"/>
</svg>
