<?xml version="1.0" encoding="UTF-8"?>
<svg width="1200pt" height="1200pt" version="1.1" viewBox="0 0 1200 1200" xmlns="http://www.w3.org/2000/svg">
 <path d="m1040.9 846c-1.4531 0-2.9062-0.51562-4.0781-1.5938l-33.047-30.562c-2.4375-2.25-2.5781-6.0469-0.32812-8.4844s6.0469-2.5781 8.4844-0.32812l33.047 30.562c2.4375 2.25 2.5781 6.0469 0.32812 8.4844-1.1719 1.2656-2.8125 1.9219-4.4062 1.9219zm-881.81 0c-1.5938 0-3.2344-0.65625-4.4062-1.9219-2.25-2.4375-2.1094-6.2344 0.32812-8.4844l33.047-30.562c2.4375-2.25 6.1875-2.1094 8.4844 0.32812 2.25 2.4375 2.1094 6.2344-0.32812 8.4844l-33.047 30.562c-1.1719 1.0781-2.625 1.5938-4.0781 1.5938zm816.94-60c-1.4531 0-2.9062-0.51562-4.0781-1.5938l-155.76-144c-2.4375-2.25-2.5781-6.0469-0.32812-8.4844s6.0469-2.5781 8.4844-0.32812l155.76 144c2.4375 2.25 2.5781 6.0469 0.32812 8.4844-1.2188 1.2656-2.8125 1.9219-4.4062 1.9219zm-752.06 0c-1.5938 0-3.2344-0.65625-4.4062-1.9219-2.25-2.4375-2.1094-6.2344 0.32812-8.4844l155.76-144c2.4375-2.25 6.2344-2.1094 8.4844 0.32812s2.1094 6.2344-0.32812 8.4844l-155.76 144c-1.125 1.0781-2.5781 1.5938-4.0781 1.5938zm227.72-264c-0.28125 0-0.51562 0-0.79688-0.046875-3.2812-0.46875-5.5781-3.4688-5.1562-6.75l32.391-240c0.46875-3.2812 3.3281-5.5781 6.75-5.1562 3.2812 0.46875 5.5781 3.4688 5.1562 6.75l-32.391 240c-0.42188 3-3 5.2031-5.9531 5.2031zm35.578-264c-0.28125 0-0.51562 0-0.79688-0.046875-3.2812-0.46875-5.5781-3.4688-5.1562-6.75l4.875-36c0.46875-3.2812 3.3281-5.625 6.75-5.1562 3.2812 0.46875 5.5781 3.4688 5.1562 6.75l-4.875 36c-0.42188 3-3 5.2031-5.9531 5.2031zm646.08 614.72-315.98-292.13c-5.0156-4.5938-11.391-7.3125-18.047-7.7344 1.5-4.3594 2.0156-9.0938 1.3594-13.969l-57.516-426.37c0-7.7344-7.4531-14.906-20.344-21-14.531-6.7969-35.953-12.328-61.547-15.75h-0.14062c-18.328-2.5781-38.766-3.9375-60.328-3.9375h-1.6406c-21.562 0-42.047 1.3594-60.328 3.9375h-0.14062c-25.641 3.375-47.062 8.9531-61.547 15.75-12.891 6.0938-20.344 13.312-20.344 21l-57.516 426.37c-0.65625 4.875-0.14062 9.6094 1.3594 13.969-6.6562 0.42188-13.031 3.1406-18.047 7.7344l-315.94 292.13c-6.375 4.4531-8.0156 14.625-5.5781 28.734 2.8594 15.75 10.594 36.469 22.5 59.391l0.14062 0.14062c8.3906 16.406 18.984 33.891 31.453 51.656 12.328 17.625 25.219 33.609 37.828 47.062l0.14062 0.14062c17.484 18.984 34.312 33.375 48.141 41.344 12.469 7.0312 22.641 8.9531 28.875 4.5938l369.84-191.58 369.79 191.63c6.2344 4.3594 16.406 2.4375 28.875-4.5938 13.828-8.0156 30.656-22.359 48.141-41.344l0.14062-0.14063c12.609-13.406 25.5-29.438 37.828-47.062 12.469-17.766 23.062-35.25 31.453-51.656l0.14062-0.14062c11.953-22.922 19.641-43.688 22.5-59.391 2.4844-14.156 0.84375-24.328-5.5312-28.781zm-534.14-767.29h1.6406c43.922 0 76.5 5.4375 97.922 11.812-15.844 6.7969-48.422 14.625-97.922 14.625h-1.5938c-49.5 0-82.031-7.875-97.922-14.625 21.375-6.375 53.906-11.812 97.875-11.812zm-114.75 17.625c4.4531 3.375 10.969 6.6562 19.125 9.5156 22.219 7.875 56.812 12.891 95.625 12.891h1.6406c38.766 0 73.359-5.0156 95.625-12.891 8.1562-2.8594 14.625-6.0938 19.125-9.5156 8.1562 3.6562 12.891 7.0312 13.969 9.5156-1.6406 3.375-9.8906 8.6719-24.938 13.547-21 7.0312-55.594 13.547-103.73 13.547h-1.6406c-48.141 0-82.734-6.5156-103.73-13.547-15.047-4.875-23.344-10.172-24.938-13.547 0.98438-2.4375 5.7656-5.8594 13.875-9.5156zm-358.26 881.76c-25.219-35.953-39.469-65.766-46.5-86.906 14.625 9.0938 39.75 31.172 68.203 71.719 28.5 40.547 40.688 71.719 44.203 88.547-17.484-13.828-40.547-37.453-65.906-73.359zm96.141 89.766c-2.5781 0.5625-8.1562-1.5-15.75-5.9531 0.14062-5.7188-0.9375-12.891-3.2344-21.141-6.375-22.641-22.125-53.859-44.344-85.594s-46.266-57.234-65.484-70.922c-7.0312-5.0156-13.406-8.3906-18.703-10.172-1.7812-8.8125-1.6406-14.625-0.28125-16.969 3.6562-0.5625 12.75 3.1406 25.359 12.75 17.906 13.172 43.125 37.688 70.781 77.016 27.656 39.469 42.188 71.484 48.422 92.766 4.7344 15.047 5.1094 24.938 3.2344 28.219zm370.08-191.68-6.9375 3.5625-348.74 180.66c-0.5625-26.016-21.281-73.219-54.938-121.22-33.75-48.141-71.062-83.531-95.484-92.906l305.39-282.32c5.2969-4.875 13.031-5.9531 19.406-2.7188l165.98 85.969c4.7812 2.5312 10.031 3.8438 15.328 4.6406zm-6.0469-239.63c-10.688-4.3594-159.94-82.734-164.72-85.219-6.375-3.2344-9.8906-10.312-8.9531-17.344l55.594-412.13c21.703 14.531 72.141 24.703 130.87 24.703h1.6406c58.734 0 109.17-10.172 130.87-24.703l55.594 412.13c0.9375 7.0312-2.5781 14.109-8.9531 17.344-4.7812 2.4844-154.03 80.906-164.72 85.219-4.2188 1.6875-8.9062 2.4844-13.594 2.4844s-9.375-0.79688-13.641-2.4844zm376.92 423.84-348.74-180.66-6.9375-3.5625v-224.39c5.2969-0.75 10.547-2.0625 15.328-4.6406l165.98-85.969c6.375-3.2344 14.109-2.1562 19.406 2.7188l305.39 282.32c-24.422 9.375-61.688 44.766-95.484 92.906-33.609 48-54.375 95.203-54.938 121.26zm110.53-82.312c-25.359 35.953-48.422 59.531-65.906 73.359 3.5156-16.828 15.75-48 44.203-88.547 28.5-40.547 53.578-62.672 68.203-71.719-7.0312 21.141-21.281 50.953-46.5 86.906zm51.422-104.02c-5.2969 1.7812-11.672 5.1562-18.703 10.172-19.266 13.688-43.266 39.188-65.484 70.922-22.219 31.734-37.969 62.906-44.344 85.594-2.2969 8.25-3.375 15.469-3.2344 21.141-7.5938 4.4531-13.172 6.5156-15.75 5.9531-1.875-3.2344-1.5-13.172 3.2344-28.219 6.2344-21.281 20.766-53.297 48.422-92.766 27.656-39.328 52.875-63.891 70.781-77.016 12.609-9.6094 21.703-13.312 25.359-12.75 1.3125 2.2969 1.4531 8.1562-0.28125 16.969z"/>
</svg>
