<?xml version="1.0" encoding="UTF-8"?>
<svg width="1200pt" height="1200pt" version="1.1" viewBox="0 0 1200 1200" xmlns="http://www.w3.org/2000/svg">
 <path d="m998.26 1190.6h-796.5c-106.12 0-192.37-86.25-192.37-192.37v-796.5c0-106.12 86.25-192.37 192.37-192.37h796.31c106.12 0 192.37 86.25 192.37 192.37v796.31c0 106.12-86.25 192.37-192.37 192.37zm-796.5-1087.5c-54.375 0-98.625 44.25-98.625 98.625v796.31c0 54.375 44.25 98.625 98.625 98.625h796.31c54.375 0 98.625-44.25 98.625-98.625v-796.31c0-54.375-44.25-98.625-98.625-98.625z"/>
</svg>
