<?xml version="1.0" encoding="UTF-8"?>
<svg width="1200pt" height="1200pt" version="1.1" viewBox="0 0 1200 1200" xmlns="http://www.w3.org/2000/svg">
 <path d="m56.633 609h-18c-4.9688 0-9-4.0273-9-9 0-4.9688 4.0312-9 9-9h18c4.9727 0 9 4.0312 9 9 0 4.9727-4.0273 9-9 9z"/>
 <path d="m244.47 609h-40.254c-4.9688 0-9-4.0273-9-9 0-4.9688 4.0312-9 9-9h40.254c4.9727 0 9 4.0312 9 9 0 4.9727-4.0273 9-9 9zm-93.914 0h-40.254c-4.9688 0-9-4.0273-9-9 0-4.9688 4.0312-9 9-9h40.254c4.9727 0 9 4.0312 9 9 0 4.9727-4.0273 9-9 9z"/>
 <path d="m1089.7 609h-40.254c-4.9688 0-9-4.0273-9-9 0-4.9688 4.0312-9 9-9h40.254c4.9727 0 9 4.0312 9 9 0 4.9727-4.0273 9-9 9zm-93.914 0h-40.254c-4.9688 0-9-4.0273-9-9 0-4.9688 4.0312-9 9-9h40.254c4.9727 0 9 4.0312 9 9 0 4.9727-4.0273 9-9 9zm-93.914 0h-40.254c-4.9688 0-9-4.0273-9-9 0-4.9688 4.0312-9 9-9h40.254c4.9727 0 9 4.0312 9 9 0 4.9727-4.0273 9-9 9zm-93.914 0h-40.254c-4.9688 0-9-4.0273-9-9 0-4.9688 4.0312-9 9-9h40.254c4.9727 0 9 4.0312 9 9 0 4.9727-4.0273 9-9 9zm-93.914 0h-40.254c-4.9688 0-9-4.0273-9-9 0-4.9688 4.0312-9 9-9h40.254c4.9727 0 9 4.0312 9 9 0 4.9727-4.0273 9-9 9zm-93.914 0h-40.254c-4.9688 0-9-4.0273-9-9 0-4.9688 4.0312-9 9-9h40.254c4.9727 0 9 4.0312 9 9 0 4.9727-4.0273 9-9 9zm-93.914 0h-40.254c-4.9688 0-9-4.0273-9-9 0-4.9688 4.0312-9 9-9h40.254c4.9727 0 9 4.0312 9 9 0 4.9727-4.0273 9-9 9zm-93.914 0h-40.254c-4.9688 0-9-4.0273-9-9 0-4.9688 4.0312-9 9-9h40.254c4.9727 0 9 4.0312 9 9 0 4.9727-4.0273 9-9 9zm-93.914 0h-40.254c-4.9688 0-9-4.0273-9-9 0-4.9688 4.0312-9 9-9h40.254c4.9727 0 9 4.0312 9 9 0 4.9727-4.0273 9-9 9z"/>
 <path d="m1161.4 609h-18c-4.9688 0-9-4.0273-9-9 0-4.9688 4.0312-9 9-9h18c4.9727 0 9 4.0312 9 9 0 4.9727-4.0273 9-9 9z"/>
</svg>
