<?xml version="1.0" encoding="UTF-8"?>
<svg width="1200pt" height="1200pt" version="1.1" viewBox="0 0 1200 1200" xmlns="http://www.w3.org/2000/svg">
 <path d="m1075.4 396.6c-0.12109 0-0.12109-0.12109 0 0l-272.04-272.04c-2.8789-2.8789-6.8398-4.5586-11.039-4.5586h-384.72c-4.0781 0-8.0391 1.6797-11.039 4.5586l-272.04 272.04c-2.8789 3-4.5586 6.957-4.5586 11.039v384.72c0 4.1992 1.6797 8.0391 4.5586 11.039l271.92 271.92c1.4414 1.4414 3.2383 2.6406 5.0391 3.3594s3.8398 1.1992 6 1.1992h384.72c2.0391 0 4.0781-0.35938 6-1.1992 1.9219-0.83984 3.6016-1.9219 5.0391-3.3594l272.04-272.04c2.8789-2.8789 4.5586-6.8398 4.5586-11.039l0.003906-384.6c0.12109-4.1992-1.5586-8.1602-4.4375-11.039zm-277.56-233.52 239.04 239.04-102.36 42.359-179.16-179.04zm117.48 306.24v261.24l-184.8 184.68h-261.24l-184.8-184.68v-261.24l184.8-184.8h261.24zm-146.28-318.12-42.359 102.24-253.44 0.003906-42.359-102.24zm-366.96 11.879 42.359 102.24-179.04 179.29-102.24-42.359zm-250.92 267.84 102.24 42.359v253.32l-102.24 42.359zm250.92 606-239.04-239.04 102.24-42.359 179.16 179.16zm28.801 11.879 42.359-102.24h253.32l42.359 102.24zm366.96-11.879-42.359-102.36 179.16-179.16 102.36 42.359zm250.92-267.84-102.36-42.359v-253.32l102.36-42.359z"/>
</svg>
