<?xml version="1.0" encoding="UTF-8"?>
<svg width="1200pt" height="1200pt" version="1.1" viewBox="0 0 1200 1200" xmlns="http://www.w3.org/2000/svg">
 <path d="m57.672 1032.1c-8.2422-0.68359-14.398-7.9219-13.715-16.164 0.68359-8.2422 7.9219-14.398 16.164-13.715 118.73 10.117 236.99-3.5273 348.23-38.918 111.21-35.387 215.61-92.594 306.61-169.45 90.973-76.859 164.77-170.25 218.27-274.04 49.141-95.363 81.219-199.59 93.707-307.98l-94.535 59.797c-6.9844 4.3906-16.234 2.3047-20.629-4.6797-4.3906-6.9844-2.3047-16.234 4.6797-20.629l125.5-79.418c6.5508-4.1406 15.121-2.5195 19.766 3.457l91.152 117.25c5.0742 6.5156 3.8867 15.949-2.6289 21.023-6.5156 5.0742-15.949 3.8867-21.023-2.6289l-72.254-93.023c-12.742 112.72-45.973 221.26-97.129 320.55-55.297 107.28-131.55 203.76-225.54 283.18-93.926 79.344-201.86 138.46-316.95 175.07-115.09 36.613-237.28 50.797-359.71 40.32z"/>
</svg>
