<?xml version="1.0" encoding="UTF-8"?>
<svg width="1200pt" height="1200pt" version="1.1" viewBox="0 0 1200 1200" xmlns="http://www.w3.org/2000/svg">
 <path d="m760.82 321.47c82.359-30.328 189.61-59.906 264.66-46.828-85.312-111.42-212.53-187.31-356.48-205.82 48.844 58.5 76.875 166.13 91.828 252.66zm264.71 603.84c-75.047 13.125-182.29-16.5-264.71-46.828-14.953 86.531-42.938 194.16-91.828 252.66 143.95-18.469 271.18-94.359 356.53-205.82zm-297.56-59.391c-14.016 83.812-58.125 269.68-127.97 269.68s-113.95-185.86-127.97-269.68c41.062-16.359 84-35.719 127.97-57.891 43.922 22.172 86.906 41.531 127.97 57.891zm-165.79-77.531c-17.766-9.5156-35.672-19.453-53.625-29.812l-0.046875 0.046875-52.641-31.594c2.5781 36.188 6.2344 70.969 10.828 103.92 30.891-12.516 62.812-26.719 95.484-42.562zm-142.4-84.375c-41.156-26.953-79.406-54.469-114.09-81.891-65.578 54.094-204.61 185.29-169.5 245.81 34.828 60 218.02 5.5781 297.47-24.094-6.375-43.781-11.109-90.703-13.875-139.82zm-141.37-104.02c-67.5 56.25-146.81 134.34-172.97 205.97-54.75-131.29-54.75-280.64 0-411.94 26.203 71.625 105.52 149.76 172.97 205.97zm-103.88-325.36c75.047-13.078 182.29 16.5 264.66 46.828 14.953-86.531 42.938-194.16 91.828-252.66-143.95 18.516-271.18 94.406-356.48 205.82zm297.52 59.438c14.016-83.812 58.125-269.68 127.97-269.68s113.95 185.86 127.97 269.68c-41.062 16.359-84.047 35.719-127.97 57.891-43.922-22.172-86.906-41.531-127.97-57.891zm165.79 77.531c17.766 9.4688 35.625 19.406 53.578 29.766l0.046876-0.046875 52.734 31.641c-2.5781-36.188-6.2344-70.969-10.828-103.92-30.938 12.516-62.906 26.719-95.531 42.562zm142.4 84.375c-2.7656-49.125-7.5-96.047-13.875-139.82 79.547-29.719 262.78-84.141 297.56-23.953 34.875 60.422-104.02 191.63-169.6 245.68-34.688-27.375-72.938-54.938-114.09-81.891zm141.37 104.02c67.5 56.25 146.81 134.39 172.97 205.97 54.75-131.34 54.75-280.64 0-411.94-26.203 71.625-105.47 149.72-172.97 205.97zm-37.781 280.22c-36.047-8.5312-75.562-20.766-117.52-36.422 6.375-43.781 11.109-90.703 13.875-139.82 41.156-26.953 79.359-54.469 114.05-81.844 34.594 28.5 64.969 56.672 90.375 83.625 142.64 151.31 101.58 222.32-100.78 174.47zm-17.109-280.22c-26.25-20.484-54.516-41.016-84.562-61.359v122.72c30.047-20.297 58.312-40.875 84.562-61.359zm-120.1-84.703v169.45l-72.234 43.969-0.046875-0.046875-0.09375 0.046875v0.046875l-0.1875 0.09375c-24.891 14.344-49.641 27.891-74.109 40.547-24.469-12.656-49.219-26.156-74.109-40.5l-0.375-0.28125v0.046875c-24.891-14.344-48.984-29.062-72.188-43.922l0.09375-169.45c23.203-14.859 47.297-29.531 72.188-43.922v0.046875l0.375-0.28125c24.844-14.344 49.641-27.891 74.062-40.5 24.469 12.656 49.219 26.156 74.109 40.547l0.1875 0.14062v0.046875l0.09375 0.046875v-0.046875c24.891 14.344 49.031 29.016 72.234 43.922zm-184.45-103.69c-32.625-15.844-64.594-30.094-95.438-42.562-4.5938 32.953-8.25 67.734-10.828 103.92l52.641-31.594 0.046875 0.046875c17.859-10.359 35.766-20.297 53.578-29.812zm-128.53-55.406c-79.547-29.719-262.74-84.188-297.56-23.953-34.922 60.422 104.02 191.63 169.6 245.68 34.688-27.375 72.938-54.891 114.09-81.891 2.8125-49.172 7.5-96.094 13.875-139.82zm-100.36 243.79c26.25-20.484 54.516-41.016 84.562-61.312v122.68c-30.047-20.344-58.312-40.875-84.562-61.359zm304.55 188.39c32.625 15.844 64.594 30.094 95.438 42.562 4.5938-32.953 8.25-67.734 10.828-103.97-17.016 10.594-34.5 21.094-52.312 31.359l-0.375 0.28125-0.046875-0.046876c-17.906 10.359-35.766 20.297-53.531 29.812zm-198.66 90.141c-82.359 30.328-189.61 59.906-264.66 46.828 85.312 111.42 212.53 187.31 356.48 205.82-48.844-58.5-76.875-166.13-91.828-252.66z" fill-rule="evenodd"/>
</svg>
