<?xml version="1.0" encoding="UTF-8"?>
<svg width="1200pt" height="1200pt" version="1.1" viewBox="0 0 1200 1200" xmlns="http://www.w3.org/2000/svg">
 <path d="m827.81 144.86c-8.3867-8.3984-19.105-17.52-23.773-20.27-4.668-2.7461-25.344-5.0039-37.234-5.0039h-316.5c-11.879 0-25.895 1.1172-31.141 2.4844-5.2578 1.3672-21.48 14.398-29.879 22.801l-223.78 223.78c-8.3984 8.3984-17.52 19.105-20.281 23.773-2.7461 4.6797-5.0039 25.367-5.0039 37.246v316.5c0 11.867 1.1172 25.883 2.4844 31.152 1.3672 5.2578 14.398 21.469 22.801 29.855l223.78 223.78c8.3984 8.3867 19.105 17.52 23.785 20.27 4.6797 2.7461 25.355 4.9922 37.234 4.9922l316.5-0.003906c11.879 0 25.895-1.1172 31.141-2.4844 5.2578-1.3555 21.48-14.387 29.867-22.789l223.78-223.77c8.3984-8.4102 17.52-19.117 20.281-23.773 2.7461-4.6797 5.0039-25.367 5.0039-37.246v-316.5c0-11.879-1.1289-25.895-2.4844-31.152-1.3672-5.2578-14.398-21.469-22.801-29.867z"/>
 <path d="m853.44 48.863c-8.3984-8.3984-24.996-15.277-36.875-15.277h-416.03c-11.879 0-28.477 6.875-36.875 15.277l-294.17 294.17c-8.3984 8.3984-15.277 24.996-15.277 36.875v416.03c0 11.879 6.875 28.477 15.277 36.863l294.17 294.18c8.3984 8.3984 24.996 15.266 36.875 15.266h416.03c11.879 0 28.477-6.8633 36.875-15.266l294.17-294.18c8.3984-8.3867 15.277-24.984 15.277-36.863v-416.03c0-11.879-6.875-28.477-15.277-36.875zm259.44 697.32c0 11.867-1.9922 30.121-4.4141 40.523-2.4258 10.414-23.004 37.523-31.402 45.938l-223.77 223.78c-8.4102 8.3867-22.727 19.895-31.789 25.547-9.0859 5.6523-42.805 10.262-54.695 10.262h-316.5c-11.879 0-30.121-1.9922-40.535-4.4023-10.414-2.4258-37.523-23.016-45.938-31.402l-223.78-223.78c-8.3984-8.3867-19.895-22.715-25.547-31.777-5.6523-9.0977-10.273-42.805-10.273-54.684v-316.5c0-11.879 1.9922-30.121 4.4141-40.535 2.4258-10.414 23.004-37.523 31.402-45.938l223.78-223.78c8.3984-8.3984 22.715-19.895 31.789-25.547 9.0859-5.6523 42.805-10.273 54.684-10.273h316.49c11.879 0 30.121 1.9922 40.523 4.4141 10.43 2.4258 37.523 23.004 45.938 31.402l223.78 223.78c8.3984 8.3984 19.895 22.715 25.547 31.789 5.6523 9.0859 10.262 42.805 10.262 54.684v316.5z"/>
</svg>
