<?xml version="1.0" encoding="UTF-8"?>
<svg width="1200pt" height="1200pt" version="1.1" viewBox="0 0 1200 1200" xmlns="http://www.w3.org/2000/svg">
 <path d="m600 116.4s311.52 431.76 400.2 482.04l-400.2 485.28-400.2-485.28c88.68-50.281 400.2-482.04 400.2-482.04m0-33.719c-10.801 0-21 5.1602-27.359 14.039-118.8 164.64-329.52 438.48-389.52 472.44-8.6406 4.9219-14.762 13.441-16.559 23.16-1.8008 9.8398 0.83984 19.922 7.1992 27.602l400.32 485.28c6.3594 7.8008 15.961 12.238 26.039 12.238s19.559-4.5586 26.039-12.238l400.2-485.28c6.3594-7.6797 9-17.762 7.1992-27.602-1.8008-9.8398-7.9219-18.238-16.559-23.16-60-33.961-270.72-307.8-389.52-472.44-6.3594-8.7617-16.559-14.039-27.359-14.039z"/>
</svg>
