<?xml version="1.0" encoding="UTF-8"?>
<svg width="1200pt" height="1200pt" version="1.1" viewBox="0 0 1200 1200" xmlns="http://www.w3.org/2000/svg">
 <path d="m697.74 641.95c-0.84375-13.922-1.2656-27.891-1.2656-41.953 0-14.016 0.42188-28.031 1.2656-41.953 119.72-15.75 233.76-60.609 332.21-130.64l12.844-9.0938-0.046874-261.05h-261.05l-9.0938 12.844c-70.031 98.391-114.89 212.44-130.64 332.16-27.938 1.6875-55.969 1.6875-83.906 0-15.75-119.72-60.609-233.76-130.64-332.16l-9.0938-12.844h-261.05v261.05l12.844 9.0938c98.391 70.031 212.44 114.89 332.16 130.64 0.84375 13.922 1.2656 27.891 1.2656 41.953 0 14.016-0.42188 28.031-1.2656 41.953-119.72 15.75-233.76 60.609-332.16 130.64l-12.844 9.0938v261.05h261.05l9.0938-12.844c70.031-98.391 114.89-212.44 130.64-332.16 27.938-1.6875 55.969-1.6875 83.906 0 15.75 119.72 60.609 233.76 130.64 332.16l9.0938 12.844h261.05v-261.05l-12.844-9.0938c-98.391-70.031-212.44-114.89-332.16-130.64zm115.64-423.84h168.52v168.52c-83.297 56.438-178.08 93.656-277.5 108.98 15.328-99.422 52.547-194.21 108.98-277.5zm-595.26 168.52v-168.52h168.52c56.438 83.297 93.703 178.08 108.98 277.5-99.422-15.328-194.21-52.547-277.5-108.98zm168.52 595.26h-168.52v-168.52c83.297-56.438 178.08-93.656 277.5-108.98-15.328 99.422-52.547 194.21-108.98 277.5zm249.84-345.42c-12.094-0.5625-24.281-0.89062-36.469-0.89062s-24.328 0.28125-36.469 0.89062c0.60938-12.094 0.89062-24.281 0.89062-36.469s-0.28125-24.328-0.89062-36.469c24.234 1.1719 48.703 1.1719 72.938 0-0.60938 12.094-0.89062 24.281-0.89062 36.469s0.28125 24.328 0.89062 36.469zm345.42 345.42h-168.52c-56.438-83.297-93.656-178.08-108.98-277.5 99.422 15.328 194.21 52.547 277.5 108.98z"/>
 <path d="m266.81 266.81v93.375-0.046875c51.469 31.922 107.25 56.297 165.66 72.328-16.031-58.406-40.406-114.19-72.328-165.66z"/>
 <path d="m432.47 767.53c-58.406 16.031-114.19 40.359-165.66 72.328v93.375h93.375l-0.046875-0.046875c31.922-51.469 56.297-107.25 72.328-165.66z"/>
 <path d="m839.86 933.19h93.328v-93.328c-51.469-31.922-107.25-56.297-165.66-72.328 16.031 58.406 40.406 114.19 72.328 165.66z"/>
 <path d="m767.53 432.47c58.406-16.031 114.19-40.406 165.66-72.328v-93.328h-93.328c-31.922 51.469-56.297 107.25-72.328 165.66z"/>
 <path d="m500.76 179.63c15.234 65.016 39.75 127.5 72.797 185.53l26.438 46.406 26.438-46.359v-0.046875c33.047-58.031 57.562-120.52 72.797-185.53l3.8906-16.5-103.12-103.12-103.12 103.12zm99.234-33.562 35.953 35.953c-9.1406 34.688-21.141 68.531-35.953 101.2-14.812-32.672-26.812-66.516-35.953-101.2z"/>
 <path d="m179.63 699.24c65.016-15.234 127.5-39.75 185.53-72.797l46.406-26.438-46.359-26.438h-0.046875c-58.031-33.047-120.52-57.562-185.53-72.797l-16.5-3.8906-103.12 103.12 103.12 103.12zm2.3906-135.19c34.688 9.1406 68.531 21.141 101.25 35.953-32.719 14.812-66.562 26.812-101.25 35.953l-35.953-35.953z"/>
 <path d="m626.44 834.84-26.438-46.406-26.438 46.406c-33.047 58.031-57.562 120.52-72.797 185.53l-3.8906 16.5 103.12 103.12 103.12-103.12-3.8906-16.5c-15.234-65.016-39.75-127.5-72.797-185.53zm-26.438 219.1-35.953-35.953c9.1406-34.688 21.141-68.531 35.953-101.2 14.812 32.672 26.812 66.516 35.953 101.2z"/>
 <path d="m1020.4 500.76c-65.016 15.234-127.5 39.75-185.53 72.797l-46.406 26.438 46.406 26.438c58.031 33.047 120.52 57.562 185.53 72.797l16.5 3.8906 103.12-103.12-103.12-103.12zm-2.3906 135.19c-34.688-9.1406-68.531-21.141-101.2-35.953 32.672-14.812 66.516-26.812 101.2-35.953l35.953 35.953z"/>
</svg>
