<?xml version="1.0" encoding="UTF-8"?>
<svg width="1200pt" height="1200pt" version="1.1" viewBox="0 0 1200 1200" xmlns="http://www.w3.org/2000/svg">
 <path d="m117.09 290.06h501.84c11.344 0 22.031 3.375 30.938 9.2344h254.53c9.9375 0 18 8.0625 18 18s-8.0625 18-18 18h-229.64c0.84375 3.8438 1.2656 7.8281 1.2656 11.906s-0.42188 8.0625-1.2656 11.953h417.32c3.2344 0 6.1875-1.3594 8.3906-3.5156 2.1562-2.1562 3.5156-5.1562 3.5156-8.3906s-1.3594-6.2344-3.5156-8.3906-5.1562-3.5156-8.3906-3.5156h-54.891c-9.9375 0-18-8.0625-18-18s8.0625-18 18-18h54.891c13.172 0 25.219 5.4375 33.844 14.062 8.6719 8.6719 14.062 20.672 14.062 33.844 0 13.219-5.3906 25.172-14.062 33.844s-20.672 14.062-33.844 14.062h-442.18c-4.2656 2.8125-8.9531 5.0156-13.922 6.6094-5.5312 66.797-35.344 126.52-80.484 170.44-48.516 47.203-114.75 76.172-187.5 76.172s-138.98-29.016-187.5-76.219c-45.141-43.922-75-103.64-80.484-170.44-8.8594-2.8125-16.828-7.7344-23.25-14.156l-1.0781-1.1719c-9.7031-10.266-15.656-24.094-15.656-39.141 0-15.656 6.4219-29.953 16.781-40.312 10.453-10.453 24.75-16.828 40.359-16.828zm81.047 541.5c0-9.9375 8.0625-18 18-18s18 8.0625 18 18v16.922c0 9.9375-8.0625 18-18 18s-18-8.0625-18-18zm0-168.56c0-9.9375 8.0625-18 18-18s18 8.0625 18 18v107.16c0 9.9375-8.0625 18-18 18s-18-8.0625-18-18zm111.94 49.5c0 9.9375-8.0625 18-18 18s-18-8.0625-18-18v-16.922c0-9.9375 8.0625-18 18-18s18 8.0625 18 18zm0 168.56c0 9.9375-8.0625 18-18 18s-18-8.0625-18-18v-107.16c0-9.9375 8.0625-18 18-18s18 8.0625 18 18zm191.86-49.5c0-9.9375 8.0625-18 18-18s18 8.0625 18 18v16.922c0 9.9375-8.0625 18-18 18s-18-8.0625-18-18zm0-168.56c0-9.9375 8.0625-18 18-18s18 8.0625 18 18v107.16c0 9.9375-8.0625 18-18 18s-18-8.0625-18-18zm-39.938 49.5c0 9.9375-8.0625 18-18 18s-18-8.0625-18-18v-16.922c0-9.9375 8.0625-18 18-18s18 8.0625 18 18zm0 168.56c0 9.9375-8.0625 18-18 18s-18-8.0625-18-18v-107.16c0-9.9375 8.0625-18 18-18s18 8.0625 18 18zm-111.94-6.0938c0-9.9375 8.0625-18 18-18s18 8.0625 18 18v16.969c0 9.9375-8.0625 18-18 18s-18-8.0625-18-18zm0-168.56c0-9.9375 8.0625-18 18-18s18 8.0625 18 18v107.16c0 9.9375-8.0625 18-18 18s-18-8.0625-18-18zm180.71-245.16c-9.9844 0-18.047-8.0625-18.047-18s8.0625-18 18-18c10.031 0 18.094 8.0625 18.094 18s-8.0625 18-18.047 18zm-325.5 0c-9.9844 0-18.047-8.0625-18.047-18s8.0625-18 18-18c10.031 0 18.094 8.0625 18.094 18s-8.0625 18-18.047 18zm65.109 0c-9.9844 0-18.047-8.0625-18.047-18s8.0625-18 18-18c10.031 0 18.094 8.0625 18.094 18s-8.0625 18-18.047 18zm195.28 0c-9.9844 0-18.047-8.0625-18.047-18s8.0625-18 18-18c10.031 0 18.094 8.0625 18.094 18s-8.0625 18-18.047 18zm-65.062 0c-9.9844 0-18.047-8.0625-18.047-18s8.0625-18 18-18c10.031 0 18.094 8.0625 18.094 18s-8.0625 18-18.047 18zm-65.109 0c-9.9844 0-18.047-8.0625-18.047-18s8.0625-18 18-18c10.031 0 18.094 8.0625 18.094 18s-8.0625 18-18.047 18zm0 130.22c-9.9844 0-18.047-8.0625-18.047-18s8.0625-18 18-18c10.031 0 18.094 8.0625 18.094 18s-8.0625 18-18.047 18zm65.109 0c-9.9844 0-18.047-8.0625-18.047-18s8.0625-18 18-18c10.031 0 18.094 8.0625 18.094 18s-8.0625 18-18.047 18zm-162.74-65.109c-9.9844 0-18.047-8.0625-18.047-18s8.0625-18 18-18c10.031 0 18.094 8.0625 18.094 18s-8.0625 18-18.047 18zm65.062 0c-9.9844 0-18.047-8.0625-18.047-18s8.0625-18 18-18c10.031 0 18.094 8.0625 18.094 18s-8.0625 18-18.047 18zm195.28 0c-9.9844 0-18.047-8.0625-18.047-18s8.0625-18 18-18c10.031 0 18.094 8.0625 18.094 18s-8.0625 18-18.047 18zm-65.109 0c-9.9844 0-18.047-8.0625-18.047-18s8.0625-18 18-18c10.031 0 18.094 8.0625 18.094 18s-8.0625 18-18.047 18zm-65.109 0c-9.9844 0-18.047-8.0625-18.047-18s8.0625-18 18-18c10.031 0 18.094 8.0625 18.094 18s-8.0625 18-18.047 18zm601.45-191.06c-9.9375 0-18-8.0625-18-18s8.0625-18 18-18h2.6719c9.9375 0 18 8.0625 18 18s-8.0625 18-18 18zm-369.71 69.047h-463.45c5.9531 55.594 31.359 105.23 69.234 142.08 42 40.828 99.375 65.953 162.47 65.953s120.52-25.078 162.47-65.906c37.875-36.844 63.328-86.484 69.234-142.08zm19.172-78.281h-501.84c-5.8125 0-11.109 2.3438-14.906 6.1406-3.8906 3.8438-6.2344 9.1406-6.2344 14.953 0 5.5312 2.1094 10.5 5.4844 14.25l0.70312 0.70312c3.8438 3.8438 9.0938 6.2344 14.906 6.2344h501.84c11.531 0 21.141-9.5156 21.141-21.141 0-11.672-9.4688-21.141-21.141-21.141z"/>
</svg>
