<?xml version="1.0" encoding="UTF-8"?>
<svg width="1200pt" height="1200pt" version="1.1" viewBox="0 0 1200 1200" xmlns="http://www.w3.org/2000/svg">
 <path d="m252 90.238c-39.48-28.32-78-28.32-117.48 0v139.44h117.48zm-39.84 80.398-37.441 0.003906c-4.9688 0-9-4.0312-9-9 0-4.9727 4.0312-9 9-9h37.68c4.9727 0 9 4.0273 9 9 0 4.9688-4.0273 9-9 9z"/>
 <path d="m134.76 1098.5c18.719 21.121 37.559 32.16 56.281 32.52 18.719 0.35938 40.078-10.68 61.199-32.762l-0.003907-719.28h-117.48z"/>
 <path d="m387.72 90.238c-39.48-28.32-78-28.199-117.48 0v139.44h117.48zm-39.719 80.402h-37.801c-4.9688 0-9-4.0312-9-9 0-4.9727 4.0312-9 9-9h37.801c4.9688 0 9 4.0273 9 9 0 4.9688-4.0312 9-9 9z"/>
 <path d="m270.24 1011.6c18.723 21.238 37.684 32.398 56.281 32.398 18.602 0 40.078-10.559 61.199-32.762v-632.28h-117.48z"/>
 <path d="m523.2 90.238c-39.359-28.32-77.879-28.32-117.48 0v139.44h117.48zm-39.84 80.398-37.68 0.003906c-4.9688 0-9-4.0312-9-9 0-4.9727 4.0312-9 9-9h37.68c4.9727 0 9 4.0273 9 9 0 4.9688-4.0273 9-9 9z"/>
 <path d="m405.72 924.72c18.719 21.238 37.68 32.16 56.281 32.52s40.078-10.559 61.199-32.762v-545.52h-117.48z"/>
 <path d="m658.8 90.238c-39.602-28.32-78-28.32-117.6 0v139.44h117.6zm-39.961 80.398-37.68 0.003906c-4.9727 0-9-4.0312-9-9 0-4.9727 4.0273-9 9-9h37.68c4.9727 0 9 4.0273 9 9 0 4.9688-4.0273 9-9 9z"/>
 <path d="m541.2 828c18.719 21.238 37.68 32.281 56.281 32.641 18.602 0.35938 40.078-10.68 61.32-32.762v-448.92h-117.6z"/>
 <path d="m794.28 90.238c-39.602-28.32-78-28.32-117.48 0v139.44h117.48zm-39.961 80.398-37.68 0.003906c-4.9727 0-9-4.0312-9-9 0-4.9727 4.0273-9 9-9h37.68c4.9688 0 9 4.0273 9 9 0 4.9688-4.0312 9-9 9z"/>
 <path d="m676.8 721.44c18.602 21.238 37.559 32.16 56.16 32.641h1.0781c19.078 0 39.359-11.039 60-32.762v-342.36h-117.24z"/>
 <path d="m929.76 90.238c-39.48-28.32-78-28.32-117.48 0v139.44h117.48zm-39.961 80.398-37.801 0.003906c-4.9688 0-9-4.0312-9-9 0-4.9727 4.0312-9 9-9h37.68c4.9727 0 9 4.0273 9 9 0 4.9688-4.0273 9-9 9z"/>
 <path d="m812.28 605.16c18.602 21.121 37.559 32.16 56.16 32.52 18.602 0.35937 40.078-10.559 61.32-32.762v-225.96h-117.48z"/>
 <path d="m1065.2 90.238c-39.48-28.32-78-28.32-117.48 0l0.003907 139.44h117.48zm-39.961 80.398-37.676 0.003906c-4.9727 0-9-4.0312-9-9 0-4.9727 4.0273-9 9-9h37.68c4.9688 0 9 4.0273 9 9 0 4.9688-4.0312 9-9 9z"/>
 <path d="m948 490.68c18.602 21.238 37.559 32.16 56.16 32.52 18.602 0.35938 40.078-10.559 61.32-32.762v-111.48h-117.48z"/>
 <path d="m103.44 247.68h993.12c25.051 0 45.359 25.051 45.359 45.359v22.559c0 25.051-20.309 45.359-45.359 45.359h-993.12c-25.051 0-45.359-25.051-45.359-45.359v-22.559c0-25.051 20.309-45.359 45.359-45.359z"/>
</svg>
