<?xml version="1.0" encoding="UTF-8"?>
<svg width="1200pt" height="1200pt" version="1.1" viewBox="0 0 1200 1200" xmlns="http://www.w3.org/2000/svg">
 <g>
  <path d="m830.82 614.28c-13.078-29.641-31.5-56.039-54.719-78.719l21.961-158.16c3.4219-24.48-4.0781-49.379-20.52-68.281-17.34-19.859-42.66-31.32-69.539-31.32h-215.95c-26.879 0-52.262 11.398-69.539 31.32-16.441 18.898-23.941 43.801-20.52 68.281l21.961 158.16c-23.219 22.621-41.641 49.078-54.719 78.719-14.219 32.16-21.422 66.422-21.422 101.88 0 36.059 7.4414 70.859 22.141 103.5 14.219 31.5 34.379 59.34 60 82.738 13.98 12.781 32.16 19.801 51.18 19.801h237.78c19.078 0 37.262-7.0195 51.18-19.801 25.621-23.398 45.781-51.238 60-82.738 14.699-32.641 22.141-67.441 22.141-103.5-0.003907-35.461-7.2617-69.719-21.422-101.88zm-73.02 274.62c-10.621 9.6602-24.422 15-38.941 15h-237.72c-14.52 0-28.32-5.3398-38.941-15-48.422-44.281-76.199-107.22-76.199-172.8 0-65.281 26.219-125.88 73.801-170.58 0.058594-0.058593 0.12109-0.12109 0.17969-0.17969 0.12109-0.12109 0.23828-0.23828 0.35938-0.42188 0.058594-0.12109 0.17969-0.17969 0.23828-0.30078 0.12109-0.12109 0.23828-0.23828 0.30078-0.42188 0.058594-0.12109 0.12109-0.23828 0.23828-0.30078 0.12109-0.12109 0.17969-0.30078 0.30078-0.42188 0.058593-0.12109 0.12109-0.23828 0.17969-0.30078 0.058594-0.17969 0.17969-0.35938 0.23828-0.48047 0.058593-0.12109 0.058593-0.17969 0.12109-0.30078 0.058594-0.17969 0.12109-0.35938 0.17969-0.53906 0.058593-0.12109 0.058593-0.17969 0.12109-0.30078 0.058594-0.17969 0.12109-0.42188 0.17969-0.60156 0-0.12109 0.058594-0.17969 0.058594-0.30078 0.058594-0.17969 0.058594-0.42188 0.12109-0.60156 0-0.12109 0-0.23828 0.058593-0.30078v-0.53906-0.23828-0.12109-0.48047c0-0.17969 0-0.35938-0.058593-0.48047v-0.12109l-22.617-162.89c-2.6992-19.559 3.0586-38.641 16.262-53.82 13.859-15.898 34.199-25.02 55.801-25.02h215.94c21.602 0 41.941 9.1211 55.801 25.02 13.199 15.121 18.961 34.262 16.262 53.82l-22.621 162.78v0.12109c0 0.17969-0.058594 0.30078-0.058594 0.48047v0.48047 0.12109 0.23828 0.53906c0 0.12109 0 0.23828 0.058594 0.35938 0 0.17969 0.058594 0.35938 0.058594 0.53906 0 0.12109 0.058594 0.23828 0.058594 0.30078 0.058594 0.17969 0.12109 0.35938 0.12109 0.53906 0.058593 0.12109 0.058593 0.23828 0.12109 0.30078 0.058594 0.17969 0.12109 0.35937 0.17969 0.53906 0.058593 0.12109 0.12109 0.23828 0.12109 0.35938 0.058594 0.17969 0.17969 0.30078 0.23828 0.48047 0.058594 0.12109 0.12109 0.23828 0.17969 0.35938 0.058594 0.12109 0.17969 0.30078 0.23828 0.42188 0.058594 0.12109 0.12109 0.23828 0.23828 0.35938 0.12109 0.12109 0.17969 0.23828 0.30078 0.42188 0.058594 0.12109 0.17969 0.17969 0.23828 0.30078 0.12109 0.12109 0.23828 0.23828 0.35938 0.42188l0.17969 0.17969c47.578 44.699 73.801 105.3 73.801 170.58 0.125 65.578-27.656 128.58-76.074 172.8z"/>
  <path d="m739.8 567.3c-3.6602-3.4219-9.4219-3.2383-12.84 0.42188-3.4219 3.6602-3.2383 9.4219 0.42187 12.84 5.3984 5.0391 10.5 10.441 15.238 16.02 1.8008 2.1602 4.3789 3.2383 6.9609 3.2383 2.1016 0 4.1406-0.71875 5.8789-2.1602 3.8398-3.2383 4.3203-9 1.0781-12.84-5.2773-6.0586-10.859-12-16.738-17.52z"/>
  <path d="m778.32 616.38c-2.4609-4.3789-8.0391-5.9414-12.422-3.4805-4.3789 2.4609-5.9414 8.0391-3.4805 12.422 15.359 27.359 23.52 58.801 23.52 90.84 0 19.68-3.1211 39.18-9.3008 57.961-1.5586 4.8008 1.0195 9.8984 5.8203 11.52 0.96094 0.30078 1.9219 0.48047 2.8203 0.48047 3.8398 0 7.3789-2.3984 8.6406-6.2383 6.7812-20.641 10.262-42.059 10.262-63.66 0-35.223-8.9414-69.723-25.859-99.844z"/>
  <path d="m670.26 359.34h-140.52c-12.121 0-23.641 5.2188-31.559 14.398-7.9805 9.0625-11.578 21.184-9.8984 33.184l11.82 84.898v0.17969c0 0.17969 0.058594 0.35938 0.12109 0.53906 0.058594 0.12109 0.058594 0.30078 0.12109 0.42188 0.058594 0.12109 0.058594 0.30078 0.12109 0.42187 0.058594 0.17969 0.12109 0.35938 0.17969 0.48047 0 0.058594 0.058594 0.12109 0.058594 0.12109 0.058594 0.058594 0.058594 0.17969 0.12109 0.23828 0.058593 0.12109 0.12109 0.23828 0.12109 0.30078 0.12109 0.17969 0.17969 0.35937 0.30078 0.53906 0.058594 0.058594 0.058594 0.12109 0.12109 0.17969 0.12109 0.23828 0.23828 0.42187 0.42187 0.60156 0.058594 0.058594 0.12109 0.12109 0.12109 0.17969 0.12109 0.17969 0.23828 0.30078 0.35938 0.48047 0.058594 0.058594 0.12109 0.12109 0.12109 0.17969 0.17969 0.17969 0.30078 0.35938 0.48047 0.48047l0.058594 0.058594c0.17969 0.17969 0.42187 0.35938 0.66016 0.53906 0.058594 0 0.058594 0.058593 0.12109 0.058593 0.17969 0.12109 0.35937 0.23828 0.53906 0.35938 0.058594 0.058593 0.12109 0.058593 0.23828 0.12109 0.17969 0.12109 0.30078 0.17969 0.48047 0.30078 0.058594 0.058594 0.12109 0.058594 0.23828 0.12109 0.23828 0.12109 0.48047 0.17969 0.66016 0.30078 0.058593 0.058593 0.17969 0.058593 0.23828 0.058593 0.17969 0.058594 0.35938 0.12109 0.48047 0.17969 0.12109 0 0.17969 0.058593 0.30078 0.058593 0.17969 0.058594 0.35938 0.058594 0.53906 0.12109 0.058594 0 0.17969 0.058594 0.23828 0.058594 0.23828 0.058594 0.53906 0.058594 0.78125 0.12109h0.12109 0.48047 0.17969 0.30078c0.17969 0 0.42188 0 0.60156-0.058594h0.12109c0.058594 0 0.12109 0 0.17969-0.058594 0.17969 0 0.35937-0.058594 0.53906-0.12109 0.12109 0 0.23828-0.058593 0.35938-0.12109 0.12109-0.058594 0.30078-0.058594 0.42188-0.12109 0.17969-0.058594 0.30078-0.12109 0.48047-0.17969 0.058593 0 0.12109-0.058594 0.17969-0.058594 27.781-11.219 57.238-16.922 87.48-16.922 30.238 0 59.699 5.6992 87.48 16.922 0.058594 0 0.12109 0.058594 0.12109 0.058594 0.17969 0.058593 0.35937 0.12109 0.48047 0.17969s0.30078 0.058594 0.42188 0.12109c0.12109 0.058593 0.30078 0.058593 0.42188 0.12109 0.17969 0.058594 0.35938 0.058594 0.53906 0.12109h0.17969c0.12109 0 0.17969 0 0.30078 0.058594h0.30078 0.66016 0.058594 0.42188c0.17969 0 0.30078 0 0.48047-0.058594 0.12109 0 0.23828 0 0.30078-0.058594 0.17969 0 0.35938-0.058593 0.53906-0.058593 0.12109 0 0.17969-0.058594 0.30078-0.058594 0.17969-0.058594 0.35937-0.12109 0.53906-0.12109 0.058594 0 0.17969-0.058593 0.23828-0.058593 0.17969-0.058594 0.35938-0.12109 0.53906-0.17969 0.12109-0.058594 0.17969-0.058594 0.30078-0.12109 0.17969-0.058594 0.30078-0.12109 0.48047-0.23828 0.12109-0.058594 0.17969-0.12109 0.30078-0.17969 0.12109-0.058594 0.30078-0.17969 0.42188-0.23828s0.23828-0.12109 0.30078-0.17969c0.12109-0.058594 0.23828-0.17969 0.35938-0.23828 0.12109-0.058594 0.23828-0.17969 0.30078-0.23828 0.12109-0.12109 0.17969-0.17969 0.30078-0.30078 0.12109-0.12109 0.17969-0.17969 0.30078-0.30078s0.23828-0.23828 0.35938-0.35938c0.058594-0.058594 0.17969-0.17969 0.23828-0.23828 0.17969-0.23828 0.35938-0.42188 0.48047-0.66016 0.058594-0.058593 0.058594-0.12109 0.12109-0.17969 0.12109-0.17969 0.23828-0.42188 0.35938-0.60156 0.058594-0.058593 0.058594-0.12109 0.12109-0.17969 0.12109-0.17969 0.17969-0.42188 0.30078-0.60156 0 0 0-0.058593 0.058593-0.058593 0-0.058594 0.058594-0.12109 0.058594-0.17969 0.058594-0.17969 0.12109-0.35938 0.17969-0.53906 0.058594-0.12109 0.058594-0.23828 0.12109-0.35938 0.058593-0.17969 0.058593-0.30078 0.12109-0.48047 0.058594-0.12109 0.058594-0.30078 0.058594-0.42188 0-0.058594 0-0.12109 0.058594-0.17969l11.82-84.898c1.6797-12-1.9219-24.121-9.8984-33.238-8-9.1992-19.461-14.418-31.578-14.418zm-153.72 118.74-10.199-73.621c-0.96094-6.7812 1.0781-13.621 5.5781-18.781 4.5-5.1602 10.98-8.1016 17.82-8.1016h140.52c6.8398 0 13.32 2.9414 17.82 8.1016 4.5 5.1602 6.5391 12 5.5781 18.781l-10.199 73.621c-26.762-9.3594-54.781-14.16-83.461-14.16-28.676 0.003906-56.695 4.7422-83.457 14.16z"/>
 </g>
</svg>
