<?xml version="1.0" encoding="UTF-8"?>
<svg width="1200pt" height="1200pt" version="1.1" viewBox="0 0 1200 1200" xmlns="http://www.w3.org/2000/svg">
 <path d="m1181.3 431.26h-10.453c6.4688-11.062 10.453-23.766 10.453-37.5v-18.75c0-9.8438-7.5938-18-17.391-18.703l-207.94-14.859 25.125-16.828c31.453-20.812 50.203-55.828 50.203-93.656v-43.5c0-6.0938-3-11.859-8.0156-15.375-5.0156-3.5156-11.391-4.3594-17.156-2.25l-194.26 70.734c-9.375 3.1875-18.375 8.2031-26.812 14.906l-82.875 66.375-6.1406 4.125c-36.562 24.328-58.406 65.109-58.406 109.17v73.969c-11.812-1.875-24.328-2.9062-37.5-2.9062s-25.688 1.0312-37.5 2.9062v-73.969c0-44.062-21.844-84.844-58.406-109.17l-89.109-70.5c-8.3906-6.6562-17.391-11.672-26.438-14.766l-194.63-70.875c-5.7656-2.1094-12.188-1.2656-17.156 2.25-5.0156 3.5156-8.0156 9.2344-8.0156 15.375v43.5c0 37.828 18.75 72.844 50.156 93.609l25.219 16.875-207.94 14.859c-9.7969 0.70312-17.391 8.8594-17.391 18.703v18.75c0 13.734 3.9844 26.438 10.453 37.5h-10.453c-10.359 0-18.75 8.3906-18.75 18.75v37.5c0 34.828 24 63.938 56.25 72.328v8.4844c0 38.344 28.688 70.453 66.75 74.719l118.69 13.125c0.70312 0.09375 1.3594 0.09375 2.0625 0.09375h3.9844c-2.4844 5.9531-3.9844 12.234-3.9844 18.75v281.26c0 42.75 56.438 75 131.26 75 48.984 0 89.953-13.875 112.5-35.391 22.547 21.562 63.516 35.391 112.5 35.391s89.953-13.875 112.5-35.391c22.547 21.562 63.516 35.391 112.5 35.391 74.812 0 131.26-32.25 131.26-75v-281.26c0-6.5156-1.4531-12.797-3.9844-18.75h3.9844c0.70312 0 1.3594-0.046874 2.0625-0.09375l118.73-13.125c38.062-4.2656 66.703-36.375 66.703-74.672v-8.4844c32.25-8.3906 56.25-37.5 56.25-72.328v-37.5c0-10.359-8.3906-18.75-18.75-18.75zm-487.5 150c0 15.281-36.516 37.5-93.75 37.5-57.234 0-93.75-22.219-93.75-37.5s36.516-37.5 93.75-37.5c57.234 0 93.75 22.219 93.75 37.5zm225 281.26c0 15.281-36.516 37.5-93.75 37.5-57.234 0-93.75-22.219-93.75-37.5v-40.266c23.484 13.406 56.297 21.516 93.75 21.516 37.453 0 70.266-8.0625 93.75-21.516zm-412.5-134.02c23.484 13.406 56.297 21.516 93.75 21.516 37.453 0 70.266-8.0625 93.75-21.516v40.266c0 15.281-36.516 37.5-93.75 37.5-57.234 0-93.75-22.219-93.75-37.5zm93.75-15.984c-57.234 0-93.75-22.219-93.75-37.5v-40.266c23.484 13.406 56.297 21.516 93.75 21.516 37.453 0 70.266-8.0625 93.75-21.516v40.266c0 15.281-36.516 37.5-93.75 37.5zm-225-75c57.234 0 93.75 22.219 93.75 37.5s-36.516 37.5-93.75 37.5c-57.234 0-93.75-22.219-93.75-37.5s36.516-37.5 93.75-37.5zm0 112.5c37.453 0 70.266-8.0625 93.75-21.516v40.266c0 15.281-36.516 37.5-93.75 37.5-57.234 0-93.75-22.219-93.75-37.5v-40.266c23.484 13.406 56.297 21.516 93.75 21.516zm-93.75 72.234c23.484 13.406 56.297 21.516 93.75 21.516 37.453 0 70.266-8.0625 93.75-21.516v40.266c0 15.281-36.516 37.5-93.75 37.5-57.234 0-93.75-22.219-93.75-37.5zm225 0c23.484 13.406 56.297 21.516 93.75 21.516 37.453 0 70.266-8.0625 93.75-21.516v40.266c0 15.281-36.516 37.5-93.75 37.5-57.234 0-93.75-22.219-93.75-37.5zm412.5-53.484c0 15.281-36.516 37.5-93.75 37.5-57.234 0-93.75-22.219-93.75-37.5v-40.266c23.484 13.406 56.297 21.516 93.75 21.516 37.453 0 70.266-8.0625 93.75-21.516zm0-93.75c0 15.281-36.516 37.5-93.75 37.5-57.234 0-93.75-22.219-93.75-37.5s36.516-37.5 93.75-37.5c57.234 0 93.75 22.219 93.75 37.5zm-791.63-69.281c-19.031-2.1562-33.375-18.234-33.375-37.406v-5.8125h131.26c10.359 0 18.75-8.3906 18.75-18.75s-8.3906-18.75-18.75-18.75h-150c-20.672 0-37.5-16.828-37.5-37.5v-18.75h187.5c10.359 0 18.75-8.3906 18.75-18.75s-8.3906-18.75-18.75-18.75h-131.26c-20.672 0-37.5-16.828-37.5-37.5v-1.3125l245.11-17.484c8.0156-0.5625 14.719-6.1406 16.781-13.922 2.0625-7.7344-1.0312-15.938-7.6875-20.391l-70.781-47.297c-20.906-13.828-33.422-37.172-33.422-62.344v-16.734l169.82 61.828c5.2969 1.8281 10.547 4.7812 15.516 8.7188l85.5 68.25 6.2344 4.125c26.109 17.344 41.672 46.5 41.672 77.953v83.766c-34.453 13.219-56.25 35.719-56.25 62.297v40.266c-23.484-13.406-56.297-21.516-93.75-21.516-34.734 0-65.438 7.0312-88.453 18.75h-41.766l-117.66-13.031zm247.87 388.03c-57.234 0-93.75-22.219-93.75-37.5v-40.266c23.484 13.406 56.297 21.516 93.75 21.516s70.266-8.0625 93.75-21.516v40.266c0 15.281-36.516 37.5-93.75 37.5zm225 0c-57.234 0-93.75-22.219-93.75-37.5v-40.266c23.484 13.406 56.297 21.516 93.75 21.516s70.266-8.0625 93.75-21.516v40.266c0 15.281-36.516 37.5-93.75 37.5zm225 0c-57.234 0-93.75-22.219-93.75-37.5v-40.266c23.484 13.406 56.297 21.516 93.75 21.516s70.266-8.0625 93.75-21.516v40.266c0 15.281-36.516 37.5-93.75 37.5zm337.5-506.26c0 20.672-16.828 37.5-37.5 37.5h-150c-10.359 0-18.75 8.3906-18.75 18.75 0 10.359 8.3906 18.75 18.75 18.75h131.26v5.8125c0 19.219-14.344 35.297-33.375 37.406l-117.66 13.031h-41.766c-23.016-11.719-53.672-18.75-88.453-18.75-37.453 0-70.266 8.0625-93.75 21.516v-40.266c0-26.578-21.797-49.078-56.25-62.297v-83.766c0-31.453 15.562-60.609 41.719-77.953l91.641-72.375c5.0156-3.9844 10.266-6.9375 15.938-8.8594l169.45-61.688v16.734c0 25.219-12.469 48.516-33.469 62.391l-70.688 47.25c-6.6562 4.4531-9.75 12.656-7.6875 20.391 2.0625 7.7344 8.8125 13.312 16.781 13.922l245.11 17.484v1.3125c0 20.672-16.828 37.5-37.5 37.5h-131.26c-10.359 0-18.75 8.3906-18.75 18.75 0 10.359 8.3906 18.75 18.75 18.75h187.5v18.75z"/>
</svg>
