<?xml version="1.0" encoding="UTF-8"?>
<svg width="1200pt" height="1200pt" version="1.1" viewBox="0 0 1200 1200" xmlns="http://www.w3.org/2000/svg">
 <path d="m474.72 45.602c-31.559-9.3594-66.961-0.83984-102.24 24.719-68.879 49.801-119.04 150.12-121.92 244.08-6.4805 211.32 63.121 340.44 66.121 345.84 3.1211 5.7617 9.2383 9.3594 15.719 9.3594h1.1992l176.16-11.879c5.3984-0.35938 10.32-3.2383 13.441-7.5586 3.1211-4.4414 4.0781-9.9609 2.7617-15.238-0.23828-0.71875-17.762-70.801 29.398-244.92 59.281-218.64-2.7617-321.24-80.52-344.28zm13.078 577.44-144.6 9.7188c-15.48-33.602-61.922-148.92-56.641-317.28 2.8789-93.121 56.039-179.16 107.04-216 19.559-14.16 38.879-21.48 55.922-21.48 5.2812 0 10.32 0.71875 15 2.1602 77.281 22.922 99.359 140.88 56.039 300.36-35.879 132.36-36 208.44-32.762 242.52z"/>
 <path d="m513.36 710.28-176.16 11.879c-8.5195 0.60156-15.359 6.9609-16.559 15.48-8.2812 57.961 9 119.64 43.801 157.08 22.801 24.602 51.48 37.441 83.281 37.441 2.7617 0 5.3984 0 8.1602-0.23828 32.16-2.1602 56.398-15.121 72.121-38.52 39.961-59.52 5.1602-166.2 3.6016-170.76-2.6406-7.8008-10.078-12.84-18.238-12.238zm-59.879 185.64c-24.238 1.6797-45.359-6.9609-62.762-25.68-24.48-26.398-38.16-70.441-35.879-113.16l146.52-9.8398c8.6406 32.879 18.359 93.961-3.2383 126.12-9.3594 13.801-23.879 21.238-44.641 22.68z"/>
 <path d="m625.08 866.04c2.3984 4.9219 6.8398 8.3984 12.121 9.6016l172.08 39.602c1.3203 0.35937 2.6406 0.48047 4.0781 0.48047 5.5195 0 10.801-2.5195 14.16-6.9609 3.7188-4.8008 92.879-121.32 119.88-331.08 12-93.238-21.719-200.28-81.84-260.28-30.84-30.719-64.32-44.879-97.078-40.559-80.52 10.559-157.92 102-133.92 327.24 18.961 178.44-9 245.16-9.6016 246.48-2.2812 4.9219-2.1602 10.559 0.23828 15.359zm215.04-523.2c44.52 44.52 83.398 137.88 71.52 230.16-21.48 167.16-85.441 273.72-106.08 304.32l-141.24-32.52c8.5195-33.121 20.52-108.24 5.8789-244.68-17.52-164.4 22.801-277.32 102.72-287.76 20.879-2.7617 44.641 8.0391 66.961 30.238z"/>
 <path d="m605.4 936.36c-2.1602 4.1992-53.398 104.04-23.398 169.2 11.762 25.559 33.719 42.238 65.16 49.441 8.7617 2.0391 17.398 3 25.922 3 24.961 0 48.84-8.5195 70.199-25.199 40.32-31.559 66.961-89.762 68.039-148.2 0.12109-8.5195-5.6406-15.961-13.922-17.879l-172.08-39.48c-7.9219-1.8008-16.199 1.9219-20.039 9.2383zm169.08 62.039c-4.4414 42.48-24.961 83.879-53.281 106.08-20.16 15.719-42.359 20.879-66 15.48-20.281-4.6797-33.48-14.281-40.441-29.398-16.199-35.16 3-93.84 16.68-125.04l143.16 32.879z"/>
</svg>
