<?xml version="1.0" encoding="UTF-8"?>
<svg width="1200pt" height="1200pt" version="1.1" viewBox="0 0 1200 1200" xmlns="http://www.w3.org/2000/svg">
 <path d="m105.12 982.38c-6.3203-6.3203-15.531-8.7852-24.16-6.4727-8.6328 2.3125-15.375 9.0547-17.688 17.688-2.3125 8.6289 0.15234 17.84 6.4727 24.16l100 100c6.3203 6.3203 15.531 8.7852 24.16 6.4727 8.6328-2.3125 15.375-9.0547 17.688-17.688 2.3125-8.6289-0.15234-17.84-6.4727-24.16l-32.25-32.375 471-471c39.262 38.469 92.105 59.91 147.07 59.676 54.965-0.23438 107.62-22.125 146.55-60.926l13.25-13.25 188.25-188.12c1.582-1.5664 3.0039-3.2812 4.25-5.125 3.6992-5.5508 5.6602-12.078 5.625-18.75 0.035156-6.6719-1.9258-13.199-5.625-18.75-1.2461-1.8438-2.668-3.5586-4.25-5.125l-274-273.88c-6.4219-6.1562-14.977-9.5938-23.875-9.5938s-17.453 3.4375-23.875 9.5938l-188 188.12-13.25 13.25c-37.816 37.871-59.641 88.824-60.969 142.33-1.3242 53.504 17.949 105.47 53.844 145.17l-471.38 471zm559.38-704.12 176.75-176.75 251 251-176.75 176.75c-30.785 30.699-71.758 49.039-115.16 51.551s-86.219-10.984-120.34-37.926l87.5-87.5c6.3203-6.3203 8.7852-15.531 6.4727-24.16-2.3125-8.6328-9.0547-15.375-17.688-17.688-8.6289-2.3125-17.84 0.15234-24.16 6.4727l-86.75 86.75c-24.324-34.207-35.746-75.922-32.246-117.75s21.699-81.062 51.371-110.75z"/>
</svg>
