<?xml version="1.0" encoding="UTF-8"?>
<svg width="1200pt" height="1200pt" version="1.1" viewBox="0 0 1200 1200" xmlns="http://www.w3.org/2000/svg">
 <path d="m912.52 249.98c0-75.844-61.641-137.48-137.48-137.48s-137.48 61.641-137.48 137.48c0 62.766 42.469 115.22 99.984 131.68v443.34c0 103.36-84.094 187.5-187.5 187.5s-187.5-84.141-187.5-187.5v-51.094l31.312 46.922c11.438 17.25 34.734 21.797 51.984 10.406 17.25-11.438 21.891-34.734 10.406-51.984l-99.984-150c-9.1406-13.734-26.25-19.781-42.047-15.094-15.797 4.7812-26.672 19.406-26.672 35.906v174.98c0 144.74 117.75 262.5 262.5 262.5s262.5-117.75 262.5-262.5l-0.046875-443.39c57.562-16.453 99.984-68.906 99.984-131.68zm-137.53 62.531c-34.453 0-62.484-28.031-62.484-62.484s28.031-62.484 62.484-62.484 62.484 28.031 62.484 62.484-28.031 62.484-62.484 62.484z"/>
</svg>
