<?xml version="1.0" encoding="UTF-8"?>
<svg width="1200pt" height="1200pt" version="1.1" viewBox="0 0 1200 1200" xmlns="http://www.w3.org/2000/svg">
 <path d="m939.52 554.41c-9.7695-0.23828-18.668 7.9648-19.453 18-0.66016 8.4453-25.883 22.223-73.84 34.445 3.7734-10.902 7.0781-22.16 9.7969-33.773 120.23-25.844 150.42-106.32-2.6172-142.22-22.188-80.094-72.543-118.68-113.41-137.12-24.91-11.023-39.973-34.953-38.379-60.992l6.3242-106.18c1.2773-36-53.824-51.422-107.94-51.562-54.312 0.12109-108.87 15.582-108.07 51.555l6.4727 106.22c1.5938 26.012-13.469 49.941-38.496 61.02-40.766 18.395-91.113 56.977-113.3 137.07-152.86 35.891-123.05 116.32-2.6133 142.22 18.848 85.891 72.617 145.77 101.13 214.57h-152.87c-10.355 0-18.75 8.3945-18.75 18.75v47.27c0 39.973 32.52 72.492 72.5 72.492h154.82v180.09c0 10.355 8.3945 18.75 18.75 18.75h160.86c10.355 0 18.75-8.3945 18.75-18.75v-180.09h154.82c39.98 0 72.5-32.52 72.5-72.492v-47.27c0-10.355-8.3945-18.75-18.75-18.75h-152.87c16.098-43.012 52.469-90.34 73.93-138.42 72.176-14.793 128.74-38.945 128.74-76.82 0-10.07-7.9844-17.613-18.047-18.008zm-19.453-52.121c-0.21875 1.8867-6.5898 11.105-33.93 21.863-7.043 2.8945-14.918 5.6406-23.535 8.2422 1.7812-19.352 1.5938-39.555-1.0859-60.598 46.5 13.844 58.34 27.426 58.551 30.492zm-320.07-389.79c34.816 0 58.402 7.3438 67.559 12.926-9.1562 5.5859-32.738 12.926-67.559 12.926-34.809 0-58.391-7.3438-67.547-12.926 9.1562-5.5859 32.738-12.926 67.547-12.926zm-124.8 215.54c39.395-17.449 63.191-55.738 60.625-97.551l-3.9336-64.555c38.887 13.27 97.23 13.273 136.13 0.027343 0 0-3.8438 64.527-3.8438 64.527-2.5625 41.812 21.23 80.098 60.508 97.496 37.945 13.523 90.355 68.918 98.719 140.94 4.1055 25.695 3.7227 50 0.39844 73.074-60.887 12.969-139.56 20.133-223.8 20.133-84.199 0-162.85-7.1602-223.8-20.133-15.5-89.613 30.836-188.34 98.996-213.96zm-161.58 196.02c-27.082-10.656-33.453-19.875-33.672-21.734 0.21094-3.0898 12.047-16.68 58.551-30.52-2.6797 21.039-2.8672 41.234-1.0859 60.582-8.6367-2.6133-16.609-5.3789-23.789-8.3281zm348.07 563.45h-123.36v-161.34h123.36zm227.32-233.82c0 19.289-15.703 34.992-35 34.992h-508.01c-19.301 0-35-15.703-35-34.992v-28.52c0.5 0.10156 482.06-0.015625 578.01 0v28.52zm-132.58-150.1c-18.352 30.977-34.688 58.578-40.508 84.082h-231.84c-5.8203-25.504-22.156-53.105-40.508-84.082-20.926-35.34-44.73-75.641-58.496-121.52 119.29 23.254 310.6 23.254 429.85-0.003906-3.5273 11.75-7.707 23.129-12.34 34.156-51.371 9.2773-118.96 16.105-202.59 16.105-24.629 0.42188-24.656 37.078 0 37.5 50.422 0 119.16-3.3906 182.91-12.621-8.7188 16.32-17.844 31.785-26.484 46.379z"/>
</svg>
