<?xml version="1.0" encoding="UTF-8"?>
<svg width="1200pt" height="1200pt" version="1.1" viewBox="0 0 1200 1200" xmlns="http://www.w3.org/2000/svg">
 <path d="m925.4 763.03c-14.344-97.359-58.688-170.02-105.66-246.94-43.312-70.922-92.344-151.26-128.26-266.48-2.0625-6.75-6.8438-12.328-13.219-15.422-7.2188-3.5625-14.719-6.4688-22.312-9l-0.046875-113.72h34.594c14.203 0 25.734-11.484 25.734-25.688s-11.531-25.688-25.734-25.688h-181.03c-14.203 0-25.688 11.531-25.688 25.688 0 14.203 11.484 25.688 25.688 25.688h34.828v113.62c-7.7344 2.4844-15.328 5.4844-22.641 9.0469-6.3281 3.1406-11.109 8.7188-13.219 15.422-35.859 115.22-84.891 195.56-128.21 266.48-46.969 76.922-91.312 149.58-105.66 246.94-17.625 120.56 32.156 240.32 129.94 312.56 55.875 41.25 122.21 63.328 192.05 64.031 1.1719 0.1875 2.2969 0.23438 3.4688 0.23438h0.14062c1.2188 0 2.3906-0.09375 3.5625-0.23438 69.75-0.75 135.94-22.828 191.68-64.031 97.828-72 147.61-191.76 129.98-312.52zm-329.72-651.56h8.8594v104.95c-2.9531-0.09375-5.9062-0.09375-8.8594 0zm-41.672 164.58c6.75-2.625 13.781-4.5938 20.859-6.0469 0.23437-0.046875 0.51562-0.09375 0.75-0.14062 23.438-4.5469 48.094-2.4844 70.359 6.1875 12.516 38.672 26.391 73.359 40.922 105.14h-173.81c14.531-31.781 28.359-66.469 40.922-105.14zm105.14 272.72c57.234 201.56 128.02 451.45-59.062 537.24-187.26-85.781-116.48-335.72-59.25-537.32 11.766-41.438 22.922-80.953 30.938-116.06h56.438c7.9688 35.156 19.172 74.625 30.938 116.16zm-333.71 221.76c12.797-87 52.594-152.21 98.672-227.63 20.625-33.75 42.469-69.656 63.75-110.25h31.078c-7.4531 30.984-17.297 65.766-27.609 102.05-49.125 173.06-112.97 398.11-5.1094 529.4-17.906-8.0156-35.109-17.859-51.188-29.719-82.453-61.078-124.45-162.14-109.59-263.86zm439.45 263.76c-16.031 11.812-33.094 21.609-50.906 29.625 107.58-131.26 43.734-356.21-5.3906-529.18-10.266-36.281-20.156-71.109-27.609-102.14h31.125c21.281 40.641 43.172 76.5 63.75 110.25 46.078 75.469 85.828 140.63 98.672 227.63 14.859 101.91-27.141 202.97-109.64 263.81z"/>
</svg>
