<?xml version="1.0" encoding="UTF-8"?>
<svg width="1200pt" height="1200pt" version="1.1" viewBox="0 0 1200 1200" xmlns="http://www.w3.org/2000/svg">
 <path d="m274.5 894.94c-3.5625-4.5-8.9531-7.0781-14.672-7.0781-5.6719 0-11.109 2.5781-14.672 7.0781 0 0-39.562 49.547-63.281 94.172-11.578 21.797-19.125 42.797-19.125 57.656 0 53.531 43.5 97.031 97.078 97.031s97.078-43.5 97.078-97.031c0-14.859-7.5-35.859-19.125-57.656-23.766-44.625-63.281-94.172-63.281-94.172zm-14.672 42.609c12.844 17.391 31.5 44.156 44.859 69.188 8.1562 15.328 14.719 29.578 14.719 40.031 0 32.859-26.719 59.531-59.578 59.531s-59.578-26.672-59.578-59.531c0-10.453 6.6094-24.703 14.719-40.031 13.312-25.031 32.016-51.75 44.859-69.188zm145.6-440.76-100.69 100.73c-7.3125 7.3125-7.3125 19.172 0 26.484l21.938 21.938-83.578 124.97c-15.188 22.734-12.234 53.016 7.125 72.375 19.312 19.312 49.594 22.312 72.328 7.0781l124.92-83.578 21.984 21.984c7.3125 7.3125 19.219 7.3125 26.531 0l100.69-100.73 3.2344 3.2812c36.609 36.609 96 36.609 132.61 0 73.125-73.125 204.14-204.19 277.26-277.31 36.656-36.609 36.656-95.953 0-132.56l-197.76-197.81c-36.609-36.562-95.953-36.562-132.56 0l-277.31 277.31c-36.609 36.609-36.609 96 0 132.56zm-51.703 176.21-79.5 118.78c-5.25 7.875-4.1719 18.328 2.4844 24.984 6.7031 6.7031 17.156 7.6875 24.984 2.4375l118.78-79.453zm216.42-11.484-28.641-28.641-87.469 87.469 28.688 28.641zm-170.48 4.4062 27.891 27.891 87.422-87.422-27.891-27.891zm29.016-278.44 277.31-277.31c21.984-21.938 57.562-21.938 79.547 0l197.76 197.76c21.984 21.984 21.984 57.609 0 79.594l-277.26 277.26c-21.984 21.984-57.609 21.984-79.594 0l-197.76-197.76c-21.984-21.984-21.984-57.562 0-79.547zm-84.188 223.26 28.688 28.641 87.422-87.375-28.688-28.688zm164.02-224.34c-7.3125 7.3125-7.3125 19.172 0 26.484l172.08 172.13c7.3125 7.3125 19.219 7.3125 26.531 0l196.36-196.4c7.3125-7.3125 7.3125-19.219 0-26.531l-172.08-172.08c-7.3594-7.3125-19.172-7.3125-26.484 0zm39.797 13.219 169.82-169.82 145.6 145.55-169.87 169.87z" fill-rule="evenodd"/>
</svg>
