<?xml version="1.0" encoding="UTF-8"?>
<svg width="1200pt" height="1200pt" version="1.1" viewBox="0 0 1200 1200" xmlns="http://www.w3.org/2000/svg">
 <path d="m1019.2 141.19h-80.391c0 30 6.0938 67.781-35.297 70.594-41.391-2.8125-35.297-40.641-35.297-70.594h-131.76c0 30 6.0938 67.781-35.297 70.594-41.391-2.8125-35.297-40.641-35.297-70.594h-131.72c0 30 6.0938 67.781-35.297 70.594-41.25-2.5781-35.344-40.781-35.297-70.594h-131.76c0 30 6.0938 67.781-35.297 70.594-41.391-2.8125-35.297-40.641-35.297-70.594h-80.391c-41.297 0-74.906 33.609-74.906 74.906v767.86c0 41.297 33.609 74.906 74.906 74.906h838.45c41.297 0 74.906-33.609 74.906-74.906l-0.046874-767.86c0-41.297-33.609-74.906-74.906-74.906zm-120.32 812.81c-13.781 13.828-36.188 13.875-49.922 0l-281.16-281.16c-55.312 50.344-147.71 47.344-199.69-6.7031l-114.66-114.7c-32.531-32.766 17.109-82.5 49.922-49.922l114.7 114.66c25.641 26.719 70.781 29.625 99.609 6.6562l-167.76-167.86c-13.781-13.781-13.781-36.141 0-49.922s36.141-13.781 49.922 0l167.76 167.86c22.734-29.719 20.625-72.516-6.5625-99.656l-114.7-114.7c-32.203-33.328 16.5-82.172 49.922-49.922l114.7 114.7c54.703 54.703 56.906 142.18 6.7969 199.64l281.16 281.16c13.781 13.781 13.781 36.141 0 49.922z"/>
</svg>
