<?xml version="1.0" encoding="UTF-8"?>
<svg width="1200pt" height="1200pt" version="1.1" viewBox="0 0 1200 1200" xmlns="http://www.w3.org/2000/svg">
 <path d="m1005.9 56.262c-34.809 0-69.621 13.258-96.137 39.77-0.19141 0.20703-0.38281 0.42188-0.56641 0.63672l-569.62 624.72c-14.957-5.1016-30.332-8.3008-45.898-9.375-5.9805-0.42578-11.977-0.49609-17.977-0.28516v-0.003906c-41.977 1.6797-83.969 19.426-119.27 54.703h0.003906c-0.023437 0.011719-0.046874 0.023438-0.070312 0.035157-44.031 44.027-45.262 111.03-49.117 175.65-3.8555 64.613-9.4258 127.62-45.668 170.84h-0.003906c-3.1406 3.75-4.6914 8.5781-4.3242 13.453 0.36719 4.8789 2.625 9.4219 6.293 12.656 3.6719 3.2344 8.457 4.9102 13.344 4.6641 0 0 67.094-3.3516 143.25-15.609 38.078-6.1289 78.508-14.465 114.57-25.996 36.066-11.531 67.93-25.664 89.395-47.125h0.003906c52.746-52.699 69.652-127.91 50.562-194.73l626.68-571.29c56.75-50.863 53.789-139.92 0.74219-192.96-26.516-26.512-61.328-39.77-96.137-39.77zm0.070313 37.195c25.086 0.015625 50.164 9.7109 69.547 29.09 38.785 38.781 40.695 102.71 0.74219 138.52h0.003906c-0.050782 0.046875-0.097656 0.09375-0.14453 0.14062l-478.55 436.25-97.012-97 435.82-477.97c19.402-19.344 44.492-29.008 69.578-28.992zm-530.69 534.7 94.562 94.551-110.12 100.39c-8.9219-16.965-20.492-32.875-34.73-47.113-15.25-15.246-31.934-28.141-49.586-38.293zm-194.72 120.93c3.5-0.027343 7 0.070313 10.5 0.35547 15.285 1.0547 30.676 4.7773 45.723 10.992h0.003906c0.21094 0.097656 0.42578 0.19141 0.64062 0.28125 21.512 8.9922 42.309 23.09 61.066 41.844 17.34 17.34 29.82 37.672 37.457 59.34h-0.003906c0.070312 0.16797 0.14062 0.33203 0.21484 0.49609 19.539 56.035 6.6914 120.92-38.57 166.14h-0.011719c-13.52 13.52-41.012 27.285-74.301 37.93-33.289 10.645-72.219 18.754-109.12 24.695-41.113 6.6172-76.008 10.195-102.05 12.402 25.609-49.238 29.41-106.64 32.543-159.15 3.875-64.93 8.2539-121.38 38.172-151.33 0.023438-0.007813 0.046875-0.019531 0.074219-0.027344 29.422-29.418 61.59-42.703 94.203-43.84v0.003907c1.1641-0.039063 2.332-0.066407 3.4922-0.070313z" fill-rule="evenodd"/>
</svg>
