<?xml version="1.0" encoding="UTF-8" standalone="no"?>
<svg
   width="817.86096"
   height="859.89062"
   viewBox="0 0 817.86096 859.89062"
   version="1.1"
   id="svg4"
   xmlns="http://www.w3.org/2000/svg"
   xmlns:svg="http://www.w3.org/2000/svg">
  <defs
     id="defs8" />
  <path
     d="m 436.28646,2.5436875 c -1.357,2.072 -1.518,3.974 -0.933,10.9999995 0.448,5.378 0.347,8.496 -0.275,8.496 -1.397,0 -1.903,-1.741 -2.717,-9.34 -0.394,-3.6779995 -1,-6.8629995 -1.348,-7.0769995 -0.348,-0.213 -2.77,-0.708 -5.382,-1.099 l -4.75,-0.711 v 3.102 c 0,2.577 -0.362,3.061 -2.14,2.863 -3.425,-0.381 -3.245,1.8299995 0.486,5.9599995 l 3.467,3.837 -3.657,-0.299 c -8.761,-0.717 -7.552,3.939 2.014,7.752 5.459,2.177 6.374,2.91 6.653,5.333 0.177,1.544 -0.385,3.888 -1.25,5.208 -2.316,3.535 -1.943,5.275 1.592,7.425 l 3.165,1.925 -2.678,0.672 -2.677,0.672 2.094,3.389 c 2.412,3.902 2.347,3.938 -3.114,1.753 -6.515,-2.607 -7.051,-0.605 -1.689,6.31 4.819,6.214 7.734,11.348 7.734,13.621 0,0.987 -1.099,1.329 -3.75,1.168 -3.284,-0.199 -3.864,-0.625 -4.668,-3.427 -0.506,-1.763 -3.729,-6.039 -7.176,-9.52 -6.103,-6.164 -8.386,-10.592 -8.4,-16.292 -0.004,-1.541 -0.866,-2.601 -2.673,-3.289 -3.536,-1.344 -4.519,0.25 -3.691,5.988 l 0.637,4.425 -5.624,-3.175 c -6.184,-3.49 -9.402,-3.996 -10.313,-1.623 -0.858,2.237 3.222,6.175 9.908,9.564 5.947,3.014 7.679,4.569 3.185,2.86 -3.312,-1.259 -7.148,-1.248 -7.934,0.023 -0.339,0.549 0.872,2.799 2.691,5 2.803,3.391 3.842,3.975 6.808,3.827 1.925,-0.097 4.483,0.353 5.684,0.999 1.202,0.647 3.114,1.176 4.25,1.176 2.278,0 2.728,1.938 0.879,3.787 -0.915,0.915 -0.682,1.723 1.02,3.535 l 2.207,2.349 -3.96,1.187 c -2.392,0.717 -4.208,1.969 -4.587,3.164 -0.73,2.299 0.281,6.151 1.892,7.213 1.615,1.063 6.395,0.93 7.092,-0.198 0.939,-1.518 7.477,-2.996 10.544,-2.383 l 2.787,0.558 -1.947,3.299 c -1.3,2.203 -1.73,4.162 -1.295,5.894 0.358,1.427003 0.827,2.595003 1.042,2.595003 0.215,0 2.618,-1.238 5.34,-2.750003 4.914,-2.73 4.96,-2.736 6.542,-0.75 1.215,1.526003 1.468,3.421003 1.069,8.000003 -0.288,3.3 -0.8,6.977 -1.138,8.172 -0.494,1.749 0.184,2.7 3.483,4.883 3.017,1.997 4.096,3.383 4.096,5.263 0,1.404 0.845,3.482 1.877,4.618 1.033,1.135 3.282,4.764 4.998,8.064 2.373,4.563 3.121,7.301 3.123,11.432 l 0.002,5.432 -5.75,-8.126 c -5.285,-7.47 -8.284,-9.953 -10.424,-8.631 -2.303,1.424 1.389,12.322 9.061,26.745 3.103,5.832 4.343,14.77 2.23,16.075 -0.485,0.301 -1.853,-1.711 -3.04,-4.469 -1.186,-2.758 -3.464,-7.075 -5.061,-9.594 -1.598,-2.519 -3.191,-5.885 -3.542,-7.48 -0.35,-1.595 -1.5,-3.363 -2.555,-3.928 -1.238,-0.662 -1.954,-2.167 -2.019,-4.241 -0.153,-4.96 -1.326,-8.173 -3.108,-8.517 -0.934,-0.179 -1.898,0.56 -2.274,1.745 -1.183,3.729 -2.023,2.148 -1.696,-3.192 0.287,-4.69 0.073,-5.358 -1.996,-6.251 -1.274,-0.55 -2.879,-2.18 -3.565,-3.622 -2.471,-5.193 -3.803,-5.325 -6.614,-0.657 -4.486,7.448 -4.326,7.291 -6.001,5.9 -0.829,-0.687 -3.158,-1.109 -5.176,-0.936 l -3.67,0.315 2.25,2.848 c 1.289,1.633 1.84,3.127 1.29,3.5 -3.711,2.52 -8.34,6.529 -8.34,7.224 0,1.286 6.686,2.846 15.304,3.569 5.429,0.456 8.548,1.241 10.25,2.58 3.106,2.443 3.091,3.579 -0.057,4.369 -5.293,1.329 -9.933,10.34 -4.959,9.63 1.079,-0.154 3.65,-0.551 5.712,-0.882 3.309,-0.531 3.75,-0.36 3.75,1.449 0,3.546 1.135,5.213 3.548,5.213 3.385,0 3.956,1.768 1.278,3.963 -2.142,1.757 -2.199,2.037 -0.714,3.549 0.887,0.903 3.587,1.893 6,2.2 5.803,0.74 7.554,1.742 9.45,5.408 1.566,3.028 1.558,3.053 -0.74,2.333 -1.277,-0.4 -2.951,-0.964 -3.721,-1.254 -1.117,-0.421 -1.292,0.415 -0.87,4.162 l 0.529,4.688 -4.352,-2.55 c -5.61,-3.288 -9.408,-2.657 -9.408,1.562 0,4.715 2.035,7.735 6.684,9.92 2.421,1.139 4.158,2.466 3.859,2.95 -0.299,0.483 -3.213,0.637 -6.476,0.341 -7.985,-0.724 -9.344,-0.139 -7.996,3.442 0.576,1.532 2.688,4.474 4.691,6.536 2.694,2.772 3.2,3.75 1.941,3.75 -1.326,0 -1.703,0.904 -1.703,4.077 v 4.077 l -3.077,-3.077 c -3.832,-3.833 -7.244,-4.203 -6.362,-0.691 0.594,2.369 0.01,3.251 -3.973,6.003 -1.745,1.205 -1.287,1.574 5.238,4.216 3.932,1.592 7.155,3.388 7.162,3.99 0.02,1.79 -3.695,4.688 -4.448,3.47 -0.362,-0.586 -1.531,-1.065 -2.599,-1.065 -2.251,0 -2.505,2.843 -0.882,9.882 0.556,2.41 0.762,4.631 0.457,4.935 -0.304,0.304 -2.319,-1.172 -4.478,-3.28 l -3.926,-3.833 -0.714,2.898 c -0.393,1.594 -1.322,3.837 -2.064,4.984 -2.124,3.284 0.152,12.414 3.094,12.414 2.155,0 2.589,2.528 1.851,10.79 l -0.688,7.71 -1.081,-4.913 c -1.247,-5.67 -3.454,-7.708 -6.03,-5.57 -3.256,2.702 -3.631,5.761 -1.354,11.054 1.863,4.331 2.071,6.328 1.683,16.185 -0.282,7.195 -0.958,12.144 -1.875,13.744 -1.344,2.344 -1.465,1.951 -1.934,-6.289 -0.497,-8.736 -1.35,-10.654 -4.757,-10.696 -0.946,-0.011 -1.103,-1.685 -0.634,-6.765 0.557,-6.047 0.402,-6.948 -1.493,-8.655 -1.845,-1.661 -2.114,-3.007 -2.104,-10.5 0.01,-7.311 0.384,-9.245 2.5,-12.947 1.368,-2.394 2.488,-5.116 2.488,-6.05 0,-4.004 -4.768,-5.35 -8.842,-2.496 -1.258,0.881 -2.539,1.351 -2.846,1.043 -0.79,-0.789 -0.67,-8.525 0.191,-12.395 0.669,-3.001 0.53,-3.25 -1.808,-3.25 -5.227,0 -5.722,-0.726 -3.634,-5.325 2.25,-4.957 2.523,-11.945 0.532,-13.598 -1.145,-0.95 -1.622,-0.52 -2.552,2.297 -1.118,3.39 -3.908,6.729 -4.176,4.998 -0.074,-0.479 -0.206,-3.666 -0.293,-7.081 -0.086,-3.415 -0.483,-6.535 -0.881,-6.933 -1.274,-1.274 -6.17,3.25 -6.763,6.248 l -0.573,2.894 -1.927,-3.437 c -2.766,-4.931 -6.022,-8.063 -8.383,-8.063 -2.504,0 -2.578,1.289 -0.295,5.153 1.711,2.898 1.699,3 -0.555,4.7 l -2.304,1.738 2.054,1.86 c 2.746,2.484 2.6,3.163 -0.945,4.399 -2.703,0.942 -4.321,4.15 -2.093,4.15 0.499,0 3.935,1.359 7.637,3.02 6.625,2.972 6.702,3.051 4.914,5.026 -1.779,1.966 -1.686,2.134 4.557,8.206 6.636,6.453 14.512,19.857 13.786,23.462 -0.26,1.29 -0.907,0.676 -2.33,-2.214 -1.881,-3.818 -2.185,-4 -6.675,-4.009 -3.998,-0.007 -5.235,-0.524 -8.25,-3.446 -1.95,-1.891 -3.546,-4.407 -3.546,-5.592 0,-1.185 -0.495,-3.574 -1.1,-5.309 l -1.099,-3.154 -3.795,3.005 c -4.603,3.646 -7.006,3.884 -7.006,0.696 0,-2.962 -1.575,-4.842 -6.307,-7.529 -6.501,-3.692 -7.752,-2.691 -5.141,4.114 0.589,1.533 -2.09,2.685 -6.302,2.71 -3.319,0.02 -2.744,1.677 1.515,4.365 5.433,3.43 6.523,5.063 5.744,8.608 l -0.668,3.041 h 6.137 c 6.052,0 15.022,1.685 15.022,2.821 0,0.321 -1.433,2.063 -3.185,3.87 l -3.185,3.286 2.359,2.512 c 2.772,2.95 4.765,3.133 8.814,0.809 2.816,-1.616 3.259,-1.603 8.785,0.25 6.569,2.203 13.412,7.967 13.412,11.297 0,2.933 -1.426,2.71 -5.954,-0.928 -5.141,-4.132 -8.608,-3.776 -8.396,0.861 0.191,4.152 1.582,5.799 7.377,8.736 4.463,2.261 10.973,8.503 10.973,10.521 0,2.183 -3.474,0.718 -7.061,-2.978 -6.377,-6.571 -15.693,-7.887 -18.12,-2.559 -1.626,3.568 0.439,5.732 4.705,4.932 4.024,-0.755 5.085,0.684 3.438,4.662 -0.677,1.635 -0.971,3.232 -0.654,3.55 0.318,0.317 3.776,0.928 7.684,1.357 8.219,0.902 11.008,2.781 11.008,7.413 0,3.063 -0.057,3.098 -4.5,2.745 -4.177,-0.333 -4.5,-0.187 -4.5,2.03 0,4.075 4.884,8.773 10,9.62 l 4.5,0.745 0.663,5.974 c 0.365,3.286 0.252,6.402 -0.25,6.924 -1.615,1.68 -0.975,5.855 1.261,8.236 l 2.175,2.314 -2.381,2.534 c -2.065,2.198 -2.237,2.915 -1.296,5.409 0.597,1.581 0.865,4.028 0.595,5.438 -0.32,1.674 0.454,4.174 2.23,7.205 l 2.72,4.641 -2.108,2.109 -2.109,2.108 -2.25,-2.249 c -1.683,-1.683 -2.376,-3.796 -2.75,-8.388 -0.476,-5.847 -0.652,-6.19 -3.706,-7.223 -4.563,-1.543 -5.736,-3.091 -5.459,-7.204 0.135,-2.009 -0.463,-4.69 -1.349,-6.041 l -1.592,-2.43 -1.91,2.296 -1.909,2.295 -2.363,-2.9 c -1.846,-2.265 -2.948,-2.788 -5.037,-2.389 -2.16,0.413 -2.675,0.136 -2.675,-1.437 0,-1.072 -1.426,-6.165 -3.169,-11.318 l -3.17,-9.369 -6.58,0.206 c -6.346,0.2 -6.59,0.118 -6.844,-2.293 -0.144,-1.375 -0.727,-4.195 -1.295,-6.267 l -1.032,-3.766 -3.535,2.696 c -4.276,3.262 -5.336,2.29 -5.36,-4.913 -0.011,-3.449 -0.407,-4.75 -1.448,-4.75 -0.788,0 -1.714,0.888 -2.059,1.974 -0.875,2.759 -5.128,5.537 -11,7.186 -5.839,1.64 -6.59,3.386 -3.208,7.457 1.318,1.585 2.705,4.15 3.084,5.699 0.685,2.809 0.708,2.816 8.141,2.539 7.705,-0.287 8.768,0.126 10.841,4.213 1.26,2.483 2.909,3.56 6.634,4.329 3.123,0.646 8,7.908 8,11.913 0,2.383 1.933,4.789 10.675,13.291 5.871,5.71 10.334,10.723 9.918,11.14 -0.417,0.416 -2.408,-1.114 -4.425,-3.401 -3.887,-4.406 -6.879,-6.334 -9.852,-6.349 -1.026,-0.005 -5.269,-3.931 -9.758,-9.029 -8.427,-9.572 -11.172,-11.167 -14.815,-8.606 -4.206,2.955 -6.097,4.623 -5.67,4.997 0.235,0.206 3.195,1.602 6.578,3.103 6.267,2.78 11.861,7.507 11.207,9.471 -0.205,0.614 -2.673,-0.468 -5.664,-2.482 -6.98,-4.701 -9.694,-4.409 -9.694,1.042 0,3.394 0.422,4.189 2.842,5.348 1.563,0.749 3.739,2.882 4.835,4.74 1.934,3.278 6.328,5.405 11.197,5.419 1.657,0.005 13.753,4.886 20.626,8.323 1.375,0.687 2.644,2.247 2.82,3.466 0.393,2.727 0.169,2.733 -4.271,0.113 -4.17,-2.46 -6.549,-1.933 -6.549,1.45 0,1.325 -0.675,2.969 -1.5,3.654 -2.113,1.753 -1.865,3.513 0.736,5.241 1.932,1.282 2.051,1.708 0.878,3.122 -2.06,2.482 -4.808,1.97 -7.265,-1.353 -3.855,-5.214 -7.821,-4.843 -10.019,0.937 -0.915,2.406 -1.154,2.166 -4.87,-4.897 -5.592,-10.626 -6.196,-11.068 -9.17,-6.692 l -2.426,3.571 -2.141,-4.408 c -2.69,-5.535 -5.729,-7.492 -6.599,-4.247 -0.328,1.224 -0.603,3.929 -0.61,6.011 -0.013,3.398 -0.207,3.682 -1.9,2.776 -2.546,-1.362 -6.142,-7.565 -7.573,-13.061 -1.053,-4.045 -1.468,-4.5 -4.106,-4.5 -2.825,0 -2.956,0.207 -3.481,5.5 -0.618,6.236 -1.518,5.088 -2.352,-3 -0.518,-5.024 -2.274,-8 -4.723,-8 -0.406,0 -1.558,2.555 -2.559,5.678 -1.764,5.502 -4.32,8.303 -4.32,4.734 0,-0.965 -1.974,-3.646 -4.386,-5.957 l -4.385,-4.202 -3.365,2.045 c -1.85,1.125 -2.801,1.428 -2.114,0.673 1.856,-2.036 1.516,-5.42 -0.75,-7.471 -2.722,-2.463 -2.521,-3.739 1,-6.342 3.435,-2.539 4.083,-6.68 1.189,-7.598 -0.996,-0.316 -3.329,-2.141 -5.185,-4.056 l -3.374,-3.481 2.307,-2.456 c 2.728,-2.904 2.244,-6.864 -1.054,-8.63 -3.102,-1.66 -8.617,-0.273 -10.532,2.649 -1.526,2.33 -1.494,3.033 0.487,10.704 3.021,11.699 3.85,19.106 2.073,18.514 -2.269,-0.757 -6.832,-14.069 -8.957,-26.137 -2.472,-14.032 -1.393,-21.392 4.187,-28.552 1.023,-1.312 1.859,-2.774 1.859,-3.25 0,-2.042 -4.939,-0.567 -10.5,3.137 l -6,3.995 -0.301,-4.968 c -0.166,-2.733 0.197,-5.9 0.805,-7.037 1.266,-2.365 0.45,-5.992 -1.349,-5.992 -0.665,0 -2.21,0.701 -3.432,1.557 -2.018,1.413 -2.223,1.41 -2.223,-0.032 0,-2.639 2.587,-7.903 4.896,-9.961 l 2.171,-1.935 -2.719,-2.169 -2.72,-2.168 2.186,-5.081 c 2.748,-6.388 2.974,-13.218 0.436,-13.196 -2.859,0.025 -3.852,1.121 -8.074,8.904 -3.981,7.34 -4.028,7.383 -4.35,4 -0.305,-3.201 -0.533,-3.399 -3.576,-3.105 -2.733,0.264 -3.25,-0.02 -3.25,-1.781 0,-1.153 -0.64,-2.341 -1.423,-2.642 -2.607,-1 -2.471,-3.166 0.489,-7.835 3.742,-5.9 3.731,-6.965 -0.066,-6.206 -3.51,0.702 -3.429,0.921 -1.432,-3.859 2.397,-5.735 0.421,-6.597 -4.479,-1.953 -5.798,5.494 -7.441,9.485 -6.618,16.076 0.709,5.678 -0.035,6.63 -2.799,3.576 -1.354,-1.497 -1.531,-3.206 -1.018,-9.857 0.706,-9.157 -0.411,-11.182 -3.796,-6.879 -1.633,2.075 -2.354,2.38 -3.46,1.461 -0.769,-0.638 -1.398,-1.732 -1.398,-2.43 0,-0.699 -0.746,-1.557 -1.659,-1.908 -1.437,-0.551 -1.303,-1.007 1,-3.411 3.012,-3.143 3.469,-6.641 0.994,-7.591 -1.416,-0.543 -1.192,-1.128 1.5,-3.905 1.925,-1.986 3.165,-4.297 3.165,-5.898 0,-2.468 -0.194,-2.577 -3.097,-1.744 -1.703,0.488 -3.739,1.421 -4.524,2.072 -2.081,1.727 -2.506,0.698 -1.173,-2.836 0.93,-2.463 0.897,-3.435 -0.16,-4.709 -1.138,-1.371 -1.568,-1.405 -2.939,-0.232 -3.983,3.404 -4.427,3.21 -3.875,-1.689 0.289,-2.566 0.127,-4.912 -0.36,-5.213 -0.487,-0.301 -2.233,0.412 -3.879,1.584 -4.663,3.32 -3.627,0.259 1.507,-4.455 4.55,-4.177 5.876,-8.085 3.104,-9.149 -0.768,-0.294 -3.842,0.845 -6.831,2.532 -2.989,1.687 -5.736,3.067 -6.104,3.067 -1.249,0 -0.676,-3.545 0.948,-5.863 1.114,-1.591 1.435,-3.432 1.031,-5.919 -0.468,-2.884 -0.079,-4.276 1.934,-6.914 l 2.52,-3.304 h -5.551 c -4.729,0 -5.551,-0.273 -5.551,-1.845 0,-1.015 0.9,-2.66 2,-3.655 1.1,-0.995 2,-2.845 2,-4.11 0,-1.836 -0.705,-2.432 -3.5,-2.956 -3.799,-0.713 -4.155,-1.413 -2.259,-4.448 0.99,-1.586 0.983,-2.397 -0.037,-4.03 -1.118,-1.791 -0.899,-2.502 1.76,-5.728 3.967,-4.813 4.069,-9.088 0.286,-11.885 -4.179,-3.09 -9.357,-5.569 -10.093,-4.833 -0.361,0.361 -0.657,3.769 -0.657,7.573 0,3.805 -0.117,6.917 -0.259,6.917 -0.143,0 -1.644,-2.25 -3.336,-5 -1.692,-2.75 -3.41,-5 -3.816,-5 -0.407,0 -1.719,1.042 -2.915,2.314 -3.462,3.686 -2.767,6.523 3.042,12.405 l 5.216,5.281 h -3.716 c -4.607,0 -5.018,2.275 -0.804,4.454 4.53,2.343 6.788,6.002 8.001,12.967 0.614,3.526 1.804,8.361 2.645,10.745 l 1.529,4.334 -4.633,-4.5 c -2.549,-2.475 -5.965,-6.413 -7.592,-8.75 -3.038,-4.365 -5.271,-5.172 -8.914,-3.222 -1.445,0.773 -2.85,0.553 -5.684,-0.888 -5.62,-2.861 -10.681,-4.046 -12.626,-2.958 -2.459,1.377 -1.044,3.089 6.819,8.254 4.517,2.967 8.045,4.564 10.079,4.564 4.446,0 4.775,0.867 1.409,3.7 -1.62,1.363 -2.945,3.041 -2.945,3.728 0,2.143 4.259,3.309 10.25,2.806 5.662,-0.474 5.75,-0.441 5.75,2.142 0,2.132 -0.469,2.624 -2.5,2.624 -3.457,0 -6.5,3.341 -6.5,7.138 v 3.137 l 8.573,-0.696 8.574,-0.695 4.426,4.426 c 4.694,4.694 5.948,7.574 2.493,5.725 -5.376,-2.877 -11.919,0.431 -10.673,5.396 0.764,3.041 2.139,3.822 12.491,7.092 7.819,2.47 8.091,2.662 9.246,6.517 0.655,2.185 0.89,4.273 0.523,4.64 -0.367,0.367 -2.576,-0.775 -4.91,-2.537 -7.13,-5.384 -10.507,-6.772 -12.877,-5.291 -1.201,0.75 -3.229,1.008 -4.95,0.63 -2.729,-0.6 -2.916,-0.443 -2.916,2.439 0,2.598 -0.381,3.079 -2.441,3.079 -1.343,0 -2.731,0.47 -3.086,1.044 -1.104,1.786 1.622,3.956 4.971,3.956 4.598,0 12.556,2.925 12.556,4.615 0,2.622 4.438,3.761 10.206,2.621 2.91,-0.576 5.673,-0.811 6.139,-0.523 1.01,0.624 0.385,4.569 -1.42,8.957 -1.872,4.554 -0.232,6.031 7.637,6.874 6.196,0.663 6.438,0.793 6.438,3.45 0,3.465 1.77,4.96 6.661,5.626 3.966,0.54 15.834,4.934 18.155,6.721 0.724,0.557 1.946,2.232 2.716,3.721 l 1.401,2.708 -4.003,-1.016 c -2.201,-0.558 -4.228,-0.79 -4.503,-0.514 -1.269,1.268 2.087,5.51 5.766,7.29 2.239,1.084 4.799,3.083 5.689,4.443 l 1.618,2.473 -3.832,-2.355 c -9.659,-5.937 -14.369,-8.056 -17.949,-8.073 -6.97,-0.033 -5.341,5.062 3.264,10.212 1.934,1.158 5.32,3.545 7.524,5.305 2.203,1.76 6.376,4.219 9.273,5.466 6.231,2.68 9.754,6.522 11.275,12.294 0.61,2.313 2.126,6.005 3.369,8.205 1.244,2.2 2.559,4.83 2.924,5.845 1.197,3.334 -5.474,-1.402 -8.663,-6.15 -3.589,-5.344 -7.232,-5.711 -11.096,-1.118 -1.424,1.692 -2.589,3.419 -2.589,3.837 0,0.418 4.948,3.871 10.996,7.673 12.008,7.549 13.116,9.495 2.339,4.106 -3.759,-1.879 -8.526,-3.965 -10.593,-4.635 -2.066,-0.67 -4.214,-2.072 -4.773,-3.115 -0.558,-1.044 -2.449,-2.269 -4.201,-2.723 -2.852,-0.739 -3.618,-1.818 -7.291,-10.273 -3.846,-8.853 -4.289,-9.447 -7.041,-9.447 -2.49,0 -2.986,0.436 -3.264,2.871 -0.327,2.864 -0.336,2.859 -3.747,-2 -1.88,-2.679 -4.995,-7.113 -6.922,-9.852 -1.926,-2.74 -3.503,-5.973 -3.503,-7.184 0,-1.475 -1.396,-3.141 -4.226,-5.041 -2.917,-1.959 -4.697,-4.122 -5.75,-6.988 -1.483,-4.038 -9.136,-13.306 -10.988,-13.306 -1.555,0 -4.037,4.3 -4.024,6.973 0.007,1.39 1.13,4.483 2.497,6.873 l 2.484,4.346 -3.022,-1.914 c -1.662,-1.052 -5.255,-4.02 -7.984,-6.596 -2.728,-2.575 -5.604,-4.682 -6.39,-4.682 -1.489,0 -7.597,7.053 -7.597,8.773 0,0.541 1.391,1.561 3.091,2.265 1.7,0.704 4.225,2.994 5.612,5.089 2.686,4.059 4.966,5.321 7.713,4.267 1.067,-0.41 3.255,0.448 5.891,2.309 2.306,1.628 6.218,3.921 8.693,5.097 4.999,2.374 11.803,7.694 10.953,8.566 -0.3,0.308 -2.734,-0.098 -5.409,-0.903 -6.573,-1.978 -9.282,-1.864 -10.008,0.422 -0.841,2.652 1.238,6.691 4.121,8.005 1.341,0.61 4.637,1.11 7.325,1.11 6.218,0 9.599,1.289 10.288,3.923 0.404,1.545 1.345,2.077 3.676,2.077 3.879,0 10.403,3.233 12.465,6.176 2.28,3.256 1.215,3.381 -3.794,0.445 -4.915,-2.88 -7.643,-3.246 -10.569,-1.419 -1.527,0.953 -2.472,0.909 -4.571,-0.214 -2.437,-1.304 -2.78,-1.237 -4.357,0.853 l -1.711,2.268 -1.86,-2.054 c -2.23,-2.465 -5.244,-2.641 -7.666,-0.449 -1.658,1.5 -1.992,1.298 -5.07,-3.069 -2.577,-3.656 -4.877,-5.425 -10.554,-8.119 -3.992,-1.895 -7.259,-3.884 -7.259,-4.421 0,-0.537 -2.25,-3.46 -5,-6.497 -2.75,-3.037 -5,-6.446 -5,-7.576 0,-3.155 -1.861,-5.924 -3.981,-5.924 -1.098,0 -2.468,-1.168 -3.223,-2.75 -1.011,-2.117 -2.203,-2.865 -5.179,-3.25 -3.368,-0.436 -4.011,-0.951 -4.991,-4 -1.022,-3.178 -1.51,-3.528 -5.298,-3.804 -5.753,-0.418 -6.573,-1.73 -4.789,-7.66 1.906,-6.333 1.864,-10.167 -0.121,-10.929 -3.197,-1.227 -5.41,-0.537 -7.547,2.354 -1.204,1.628 -2.531998,2.748 -2.950998,2.489 -0.42,-0.259 -1.982,-4.131 -3.472,-8.605 -2.594,-7.791 -2.638,-8.254 -1.033,-10.971 1.266,-2.142 1.419,-3.315 0.628,-4.794 -0.949,-1.772 -1.302,-1.827 -3.715,-0.575 -1.945,1.009 -3.194,1.102 -4.613,0.343 -1.991,-1.066 -1.996,-1.722 -0.085,-10.204 l 0.644,-2.855 -5.274,0.355 -5.273,0.356 0.554,-11.25 c 0.309,-6.258 0.163,-11.25 -0.328,-11.25 -0.486,0 -2.531,1.447 -4.545,3.215 -3.662,3.215 -3.662,3.215 -3.107,9.75 0.305,3.594 0.833,7.435 1.175,8.535 0.609,1.964 0.596,1.965 -0.678,0.054 -0.714,-1.07 -3.118,-3.995 -5.343,-6.5 -2.225,-2.505 -4.578,-5.792 -5.229,-7.304 -0.651,-1.512 -1.868,-2.75 -2.705,-2.75 -2.48,0 -1.897,7.324 1.046,13.133 1.412,2.786 2.402,5.231 2.2,5.433 -0.604,0.604 -9.925,-6.346 -11.471,-8.554 -0.788,-1.125 -1.6,-3.872 -1.804,-6.104 -0.395,-4.313 -1.615,-6.368 -4.787,-8.066 -2.594,-1.388 -3.67,0.342 -3.69,5.934 l -0.015,4.275 -2.859,-1.478 c -1.573,-0.813 -3.421,-2.835 -4.108,-4.493 -2.268,-5.477 -3.491,-5.659 -8.234,-1.226 l -4.299,4.018 3.321,3.435 3.322,3.436 -2.724,2.142 c -1.499,1.179 -2.389,2.474 -1.979,2.879 0.41,0.405 4.52,0.67 9.133,0.588 8.206,-0.144 8.364,-0.102 7.274,1.933 -0.912,1.705 -0.757,2.37 0.86,3.679 1.404,1.137 1.751,2.165 1.203,3.567 -1.36,3.479 -0.998,3.758 4.09,3.155 4.71,-0.557 5,-0.46 5,1.687 0,1.253 1.069,3.283 2.376,4.511 l 2.377,2.232 6.373,-4.129 6.374,-4.128 0.316,2.57 c 0.256,2.078 0.857,2.571 3.134,2.571 1.976,0 2.973,0.597 3.34,2 0.333,1.274 1.364,2 2.839,2 h 2.316 l -2.226,1.559 c -1.916,1.342 -2.059,1.864 -1.029,3.75 0.659,1.205 1.078,3.412 0.932,4.904 -0.22,2.254 0.212,2.819 2.557,3.337 5.565,1.232 7.702,2.094 8.092,3.263 0.657,1.972 -3.523,1.346 -8.771,-1.313 -6.121,-3.102 -9.409,-3.182 -11.443,-0.277 -0.856,1.222 -1.557,2.517 -1.557,2.878 0,0.361 2.55,2.623 5.666,5.027 5.646,4.356 5.697,4.372 13.965,4.372 6.433,0 8.674,0.377 9.976,1.678 1.571,1.571 1.461,1.81 -1.715,3.746 -1.865,1.137 -3.638,2.182 -3.939,2.322 -0.302,0.14 -0.369,2.391 -0.15,5.004 0.371,4.429 0.586,4.75 3.172,4.75 1.525,0 4.687,-0.675 7.025,-1.5 5.657998,-1.996 6.141998,-1.915 5.430998,0.918 -0.747,2.977 0.669,3.803 9.569,5.587 5.55,1.112 7.121,1.94 10.75,5.666 2.338,2.4 4.25,4.806 4.25,5.347 0,2.234 -7.738,0.955 -12.1,-2 -5.126,-3.474 -7.88,-3.81 -8.602,-1.051 -0.818,3.13 -3.598,3.279 -10.775998,0.577 -6.791,-2.556 -9.598,-2.352 -11.766,0.856 -0.475,0.703 -1.674,-0.073 -3.322,-2.15 -1.811,-2.282 -3.415,-3.25 -5.385,-3.25 -2.236,0 -3.068,-0.661 -4.092,-3.25 -2.144,-5.418 -3.844,-6.75 -8.612,-6.75 -2.39,0 -4.345,0.387 -4.345,0.86 0,0.474 1.132,2.53 2.517,4.569 2.807,4.137 2.634,4.924 -1.551,7.088 -2.773,1.434 -2.982,1.388 -4.551,-1.007 -1.127,-1.72 -2.553,-2.51 -4.53,-2.51 -2.533,0 -2.885,-0.363 -2.885,-2.971 0,-2.514 -0.501,-3.101 -3.25,-3.81 -3.136,-0.809 -3.26,-1.037 -3.55,-6.528 -0.32,-6.072 -0.902,-6.587 -4.662,-4.124 -2.593,1.699 -2.516,1.784 -11.354,-12.718 -1.223,-2.008 -2.923,-3.919 -3.776,-4.246 -1.632,-0.626 -10.329,1.151 -11.7200001,2.395 -0.446,0.399 1.4660001,2.362 4.2500001,4.362 3.235,2.324 5.062,4.372 5.062,5.673 0,1.865 -0.42,1.98 -5,1.373 l -5.0000001,-0.664 v 3.007 c 0,4.316 2.0220001,5.572 7.7200001,4.796 5.77,-0.786 6.538,-0.263 12.291,8.359 3.959,5.934 4.097,6.355 1.881,5.746 -10.897,-2.995 -30.06400005,-0.458 -30.70700005,4.065 -0.362,2.546 0.385,2.79 11.81500005,3.863 7.401,0.695 9.492,0.7 21.704,0.054 5.757,-0.304 6.133,-0.196 5.221,1.508 -0.541,1.01 -2.207,2.109 -3.704,2.441 -6.391,1.42 -6.221,1.229 -6.221,7.005 0,5.439 0.007,5.451 2.75,4.802 1.513,-0.358 3.679,-1.491 4.814,-2.519 1.136,-1.028 2.818,-1.869 3.738,-1.869 0.92,0 2.809,-1.8 4.198,-4 1.438,-2.278 3.309,-4 4.346,-4 2.522,0 3.343,1.068 2.033,2.645 -1.341,1.617 -0.453,4.355 1.413,4.355 0.746,0 1.779,1.688 2.298,3.75 0.845,3.361 1.252,3.728 3.926,3.538 1.961,-0.139 4.012,-1.369 5.984,-3.587 1.65,-1.857 4.35,-4.912 6,-6.789 l 3,-3.412 0.318,3.306 c 0.236,2.461 1.13,3.801 3.5,5.246 4.395,2.68 6.574,2.445 10.235,-1.104 l 3.149,-3.052 1.672,2.552 c 1.947,2.971 4.209,3.195 9.033998,0.895 3.245,-1.548 4.005,-1.543 11.498,0.076 4.413,0.953 9.068,1.596 10.345,1.429 1.277,-0.167 5.681,1.086 9.786,2.784 16.548,6.847 18.137,7.345 20.104,6.292 2.636,-1.41 3.282,0.769 1.844,6.221 -1.535,5.825 -3.603,8.855 -6.041,8.855 -1.106,0 -4.231,-1.125 -6.944,-2.5 -5.667,-2.872 -7.824,-3.122 -8.638,-1 -0.817,2.128 -1.223,2.024 -12.475,-3.199 -9.288,-4.311 -10.226,-4.558 -11.365,-3 -1.527,2.088 -5.476,2.201 -8.081,0.231 -3.003998,-2.272 -5.374998,-1.837 -6.527998,1.198 -1.246,3.276 -2.819,4.409 -5.125,3.692 -3.931,-1.223 -7.286,3 -5.728,7.21 0.654,1.769 1.913,2.147 8.967,2.691 7.051,0.543 8.901998,0.333 13.155998,-1.497 l 4.951,-2.13 5.683,2.67 c 6.925,3.253 14.262,4.686 20.219,3.949 l 4.464,-0.553 -2.008,2.099 c -3.988,4.17 -19.505,5.446 -25.992,2.139 -7.506,-3.827 -11.607,-1.884 -9.5,4.5 1.943,5.886 -2.066,8.392 -7.999998,5 -1.375,-0.786 -3.992,-1.445 -5.816,-1.465 -4.361,-0.046 -6.914,-1.499 -11.333,-6.448 l -3.648,-4.087 -1.262,2.75 c -1.459,3.179 -2.335,3.319 -7.427,1.191 -4.306,-1.799 -4.991,-1.478 -4.134,1.935 0.935,3.727 5.296,8.377 9.169,9.778 1.898,0.686 3.451,1.607 3.451,2.047 0,1.349 -3.831,0.898 -11.633,-1.369 -6.832,-1.985 -7.595,-2.033 -9.057,-0.571 -1.443,1.443 -1.824,1.449 -3.946,0.058 -1.292,-0.846 -3.105,-1.249 -4.029,-0.894 -1.139,0.437 -2.936,-0.574 -5.581,-3.14 l -3.902,-3.785 -2.397,2.98 c -5.544,6.893 -3.891,11.52 4.114,11.52 2.416,0 4.689,0.607 5.376,1.434 0.983,1.184 0.553,1.611 -2.467,2.445 -2.906,0.802 -4.924,0.613 -9.818,-0.922 -7.73,-2.423 -7.264,-2.467 -8.548,0.793 -0.596,1.512 -1.606,3.468 -2.245,4.345 -0.655,0.9 -0.875,2.736 -0.505,4.211 l 0.656,2.615 4.574,-1.96 c 5.902,-2.53 6.028,-2.488 2.371,0.789 -3.792,3.398 -5.632,9.988 -3.412,12.22 1.284,1.293 1.831,1.022 4.521,-2.241 3.013,-3.656 3.105,-3.689 6.023,-2.18 3.74,1.934 4.905,1.212 4.905,-3.037 0,-3.047 2.048,-6.512 3.849,-6.512 0.388,0 1.658,0.667 2.821,1.482 2.472,1.731 3.27,1.073 5.641,-4.652 0.836,-2.018 2.485,-4.186 3.665,-4.817 2.111,-1.13 2.12,-1.1 0.585,1.87 -1.708,3.302 -1.992,6.889 -0.706,8.916 0.607,0.958 1.785,0.235 4.482,-2.75 2.012,-2.227 3.818,-4.049 4.014,-4.049 0.195,0 0.177,2.137 -0.042,4.75 -0.219,2.613 0.034,5.389 0.561,6.171 1.565,2.318 5.651,-1.099 7.686,-6.427 1.279,-3.35 2.165,-4.431 3.282,-4.003 1,0.384 3.674,-1.538 7.724,-5.553 5.978,-5.925 9.032,-6.753 6.301,-1.709 -1.523,2.815 -4.89,15.077 -4.301,15.666 0.237,0.238 2.335,0.471 4.662,0.518 l 4.23,0.087 2.023,-5.626 c 2.008,-5.584 2.041,-5.614 4.389998,-4.05 2.636,1.754 2.805,1.629 6.295,-4.677 0.914,-1.651 3.508,-4.224 5.764,-5.717 3.969,-2.626 4.167,-2.656 6.088,-0.917 2.723,2.464 2.522,3.561 -1.214,6.632 -2.75,2.26 -3.028,2.875 -1.91,4.222 1.097,1.322 0.957,2.144 -0.863,5.089 -2.782,4.502 -2.349,7.716 1.208,8.962 2.288,0.801 3.171,0.559 5.39,-1.48 l 2.653,-2.438 -0.648,5.75 c -0.363,3.223 -0.252,5.75 0.253,5.75 0.495,0 3.199,-2.067 6.009,-4.593 5.682,-5.109 6.373,-7.806 3.297,-12.872 -1.773,-2.92 -1.765,-2.996 0.533,-5 1.284,-1.119 3.592,-5.159 5.13,-8.976 1.537,-3.818 3.212,-7.074 3.722,-7.237 0.509,-0.162 1.943,1.274 3.185,3.191 1.243,1.918 2.705,3.487 3.25,3.487 0.552,0 0.991,-2.854 0.991,-6.441 0,-6.766 0.918,-8.567 3.054,-5.993 4.164,5.016 7.946,3.93 7.946,-2.283 0,-6.156 5.23,-16.084 8.899,-16.894 1.431,-0.316 3.427,-0.801 4.436,-1.076 1.738,-0.475 1.747,-0.368 0.179,2.026 -2.163,3.301 -0.69,6.244 3.598,7.185 4.179,0.919 8.034,-1.984 9.47,-7.13 0.884,-3.168 1.597,-3.954 3.827,-4.218 2.466,-0.291 2.633,-0.123 1.666,1.685 -0.591,1.104 -1.075,2.937 -1.075,4.073 0,3.18 4.934,2.695 9.5,-0.934 4.489,-3.567 4.657,-3.589 7.072,-0.92 1.467,1.621 2.549,1.928 4.905,1.392 4.615,-1.049 8.005,-0.667 20.806,2.345 l 11.782,2.773 -2.344,2.202 c -3.26,3.063 -15.334,4.066 -21.597,1.795 -6.188,-2.244 -8.795,-2.018 -10.728,0.931 -1.493,2.279 -2.093,2.458 -6.33,1.896 l -4.681,-0.621 -1.804,4.354 c -6.991,16.877 -7.723,19.147 -6.432,19.945 0.811,0.501 2.575,-0.17 4.693,-1.785 2.256,-1.72 4.752,-2.625 7.441,-2.698 3.577,-0.096 4.159,-0.457 5.007,-3.109 0.952,-2.978 5.394,-8.5 6.837,-8.5 0.414,0 0.892,1.684 1.063,3.742 0.445,5.368 2.552,5.244 11.393,-0.669 4.171,-2.79 8.594,-5.073 9.828,-5.073 1.923,0 2.18,0.427 1.802,3 -0.351,2.391 -0.062,3.023 1.424,3.115 4.467,0.276 6.068,-0.433 9.39,-4.159 4.42,-4.957 5.728,-5.007 5.438,-0.206 -0.177,2.928 -0.856,4.133 -3.096,5.495 -1.578,0.959 -3.476,1.747 -4.218,1.75 -2.459,0.009 -8.151,3.21 -8.151,4.584 0,0.743 0.87,1.816 1.934,2.386 3.856,2.063 8.434,1.096 16.431,-3.472 8.204,-4.687 11.061,-5.432 11.949,-3.117 0.519,1.352 -3.046,3.624 -5.687,3.624 -0.703,0 -2.281,1.067 -3.506,2.372 l -2.228,2.371 3.677,1.467 3.678,1.467 -8.374,1.657 c -4.606,0.911 -11.299,1.946 -14.874,2.299 -3.575,0.353 -7.014,1.045 -7.642,1.537 -0.716,0.561 -3.99,-0.236 -8.776,-2.137 -10.173,-4.042 -11.993,-3.954 -14.855,0.717 -3.081,5.028 -4.924,9.386 -4.254,10.057 0.302,0.301 3.989,0.013 8.194,-0.64 4.204,-0.654 7.806,-1.028 8.003,-0.831 0.197,0.197 -0.532,1.49 -1.62,2.874 l -1.979,2.515 4.062,1.595 c 6.677,2.623 4.569,4.241 -4.977,3.82 -4.486,-0.198 -8.156,-0.115 -8.156,0.185 0,0.299 0.423,1.658 0.94,3.018 0.88,2.315 0.608,2.609 -4.25,4.59 -2.854,1.164 -6.99,3.669 -9.19,5.567 -3.359,2.896 -3.76,3.622 -2.5,4.529 3.788,2.726 23.121,-1.575 24.619,-5.478 0.567,-1.479 3.381,-2.243 3.381,-0.919 0,0.348 -0.909,2.102 -2.019,3.899 -2.229,3.606 -6.707,6.008 -17.87,9.585 -7.04,2.255 -7.479,2.576 -9.281,6.782 -1.041,2.428 -1.761,4.809 -1.6,5.293 0.161,0.483 2.496,-0.237 5.189,-1.6 3.321,-1.681 5.809,-2.295 7.736,-1.91 1.639,0.328 3.486,0.032 4.367,-0.699 0.839,-0.697 1.714,-1.079 1.943,-0.85 0.734,0.734 -3.213,8.616 -5.421,10.824 -1.828,1.828 -2.091,3.095 -1.839,8.839 0.261,5.94 0.523,6.705 2.295,6.705 1.367,0 2.648,-1.349 4.046,-4.259 1.913,-3.983 2.173,-4.164 4,-2.782 2.494,1.886 3.454,1.911 3.454,0.09 0,-2.891 2.184,-11.549 2.913,-11.549 0.412,0 2.219,2.048 4.016,4.551 4.816,6.706 8.112,4.228 4.472,-3.362 -1.878,-3.915 -2.272,-13.718 -0.619,-15.371 0.574,-0.574 2.095,0.049 3.969,1.626 1.671,1.406 3.535,2.556 4.143,2.556 1.69,0 1.367,-9.054 -0.392,-10.998 -0.824,-0.91 -1.886,-3.735 -2.361,-6.277 -0.797,-4.265 -0.7,-4.646 1.248,-4.924 1.875,-0.267 2.144,-1.056 2.407,-7.051 0.162,-3.712 0.639,-6.75 1.059,-6.75 0.419,0 1.636,0.661 2.704,1.468 2.665,2.016 3.131,1.904 3.841,-0.924 0.463,-1.845 1.509,-2.624 4.201,-3.129 4.507,-0.845 7.017,1.386 9.299,8.263 1.335,4.024 2.007,4.822 4.063,4.822 2.187,0 2.654,-0.725 4.182,-6.5 0.946,-3.575 1.751,-7.548 1.788,-8.829 0.059,-2.056 0.417,-2.253 3.045,-1.676 3.678,0.808 7.022,-0.162 7.022,-2.037 0,-0.774 1.339,-2.099 2.975,-2.945 1.92,-0.993 3.274,-2.686 3.819,-4.776 l 0.844,-3.237 1.437,2.984 c 1.099,2.283 2.315,3.127 5.178,3.592 2.057,0.334 4.565,1.354 5.572,2.266 2.446,2.213 4.087,2.09 6.861,-0.516 1.943,-1.826 2.314,-1.909 2.314,-0.521 0,0.91 -0.73,3.479 -1.622,5.708 -1.364,3.41 -3.231,5.103 -11.75,10.656 -9.435,6.149 -12.628,8.769 -12.628,10.362 0,0.356 1.125,1.161 2.5,1.787 1.807,0.823 2.5,1.921 2.5,3.961 0,6.898 1.767,5.874 18.456,-10.704 15.157,-15.055 19.094,-18.075 23.565,-18.075 1.786,0 1.809,0.23 0.424,4.156 -0.807,2.286 -1.349,4.254 -1.206,4.374 0.144,0.12 2.594,-0.09 5.446,-0.468 6.118,-0.81 6.034,-0.023 -0.688,6.438 -2.289,2.2 -4.788,5.193 -5.554,6.651 -1.025,1.953 -2.728,2.993 -6.461,3.95 -6.548,1.679 -7.489,2.833 -5.995,7.36 1.076,3.26 1.48,3.539 5.13,3.539 5.958,0 10.391,-2.804 22.802,-14.424 6.213,-5.817 11.697,-10.576 12.188,-10.576 0.491,0 0.893,1.733 0.893,3.851 0,2.118 0.499,5.282 1.109,7.032 1.235,3.541 2.546,3.544 8.697,0.015 l 3.307,-1.897 -1.557,2.222 c -0.856,1.222 -1.556,2.986 -1.556,3.92 0,1.066 -1.095,1.939 -2.942,2.344 -3.311,0.727 -11.058,5.995 -11.058,7.519 0,0.554 2.796,0.994 6.309,0.994 3.895,0 7.051,0.547 8.25,1.429 2.433,1.79 1.294,2.262 -6.84,2.834 -3.721,0.262 -6.756,1.127 -8.518,2.43 -1.903,1.408 -3.373,1.787 -4.83,1.248 -2.364,-0.874 -14.26,1.892 -16.644,3.87 -2.088,1.734 -5.956,11.01 -5.14,12.329 1.071,1.734 7.016,0.257 14.454,-3.592 8.044,-4.163 8.58,-4.272 6.516,-1.325 -0.856,1.222 -1.557,3.472 -1.557,5 0,4.393 4.362,3.801 9,-1.223 4.45,-4.82 6,-5.04 6,-0.853 0,4.09 -5.172,10.445 -12.411,15.25 -7.145,4.743 -10.418,5.326 -17.113,3.05 l -5.386,-1.831 -2.295,2.883 c -2.756,3.462 -3.563,5.796 -3.695,10.685 -0.09,3.304 0.183,3.716 2.65,4 2.291,0.263 2.802,0.858 3.063,3.566 0.458,4.748 2.909,4.154 8.187,-1.986 l 4.5,-5.234 0.5,3.985 c 0.396,3.157 0.958,4.05 2.704,4.299 2.956,0.42 8.296,-3.642 8.296,-6.311 0,-2.969 2.055,-5.304 5,-5.682 1.906,-0.245 3.251,-1.747 5.66,-6.321 3.401,-6.458 5.598,-9.383 5.947,-7.916 0.12,0.504 0.491,2.153 0.825,3.666 0.707,3.207 1.027,3.254 8.164,1.179 l 5.404,-1.571 v -4.307 c 0,-2.608 0.592,-4.797 1.5,-5.551 0.912,-0.757 1.5,-2.947 1.5,-5.585 0,-4.86 3.142,-14.136 5.97,-17.624 2.594,-3.199 3.45,-1.731 1.589,2.723 -2.669,6.388 -1.401,11.849 3.162,13.611 1.132,0.437 0.092,9.222 -1.852,15.645 -1.058,3.494 -1.057,4.856 0.005,7.5 2.407,5.991 2.414,6.504 0.103,7.237 -1.867,0.593 -2.12,1.221 -1.654,4.095 0.443,2.731 0.151,3.609 -1.493,4.489 -1.586,0.849 -1.914,1.737 -1.467,3.972 0.548,2.74 0.328,2.951 -4.575,4.407 -2.833,0.842 -5.914,1.53 -6.847,1.53 -2.245,0 -3.787,1.982 -4.564,5.863 -0.633,3.166 -0.643,3.171 -5.755,2.594 -2.817,-0.318 -6.134,-0.784 -7.372,-1.036 -1.938,-0.395 -2.25,-0.04 -2.25,2.56 0,2.619 -0.364,3.023 -2.75,3.051 -1.512,0.017 -3.577,0.658 -4.588,1.424 -1.572,1.192 -2.421,1.187 -5.876,-0.031 -6.026,-2.127 -6.343,-1.965 -5.946,3.028 l 0.354,4.452 -5.097,0.677 c -5.849,0.775 -6.433,1.757 -1.97,3.312 2.796,0.975 3.063,1.408 2.525,4.098 -0.331,1.654 -0.41,3.008 -0.176,3.008 0.235,0 3.018,0.675 6.187,1.5 3.168,0.825 6.554,1.249 7.524,0.941 0.971,-0.308 3.013,-2.792 4.539,-5.519 2.47,-4.416 3.065,-4.896 5.43,-4.382 1.611,0.351 3.08,0.063 3.735,-0.731 0.593,-0.72 2.251,-2.771 3.683,-4.559 1.432,-1.787 3.239,-3.25 4.015,-3.25 1.777,0 1.791,0.904 0.045,2.921 -2.202,2.546 -2.806,6.691 -1.172,8.047 2.353,1.954 4.959,0.374 12.527,-7.594 3.944,-4.151 7.353,-7.365 7.576,-7.142 0.732,0.731 -8.181,14.386 -12.169,18.643 -2.323,2.48 -5.406,4.571 -7.636,5.178 -2.709,0.738 -3.91,1.698 -4.358,3.482 -0.423,1.686 -1.608,2.72 -3.753,3.276 -2.669,0.692 -3.23,1.394 -3.771,4.727 -1.102,6.775 -9.856,12.462 -19.185,12.462 -4.458,0 -5.197,1.124 -3.234,4.921 0.848,1.639 1.541,3.227 1.541,3.529 0,1.369 -7.9,0.351 -11.261,-1.45 -5.042,-2.702 -7.97,-2.517 -11.856,0.75 -2.387,2.007 -4.364,2.75 -7.312,2.75 -3.135,0 -4.121,0.414 -4.398,1.849 -0.44,2.273 3.905,6.991 9.447,10.259 4.27,2.518 6.328,2.423 9.668,-0.449 1.632,-1.404 2.014,-1.312 4.383,1.057 l 2.595,2.595 -3.083,1.595 c -1.696,0.877 -4.036,1.594 -5.199,1.594 -3.02,0 -5.984,1.804 -5.984,3.642 0,1.109 -0.516,1.357 -1.75,0.842 -6.568,-2.74 -7.356,-2.907 -8.959,-1.896 -1.726,1.089 -2.77,2.692 -3.687,5.662 -0.403,1.304 -1.614,1.75 -4.747,1.75 h -4.206 l 2.349,2.5 c 2.216,2.359 2.946,2.501 12.924,2.515 9.485,0.014 14.462,0.933 12.996,2.399 -0.287,0.287 -3.199,0.823 -6.471,1.19 -8.75,0.983 -10.483,3.239 -6.449,8.396 2.59,3.311 2.515,3.647 -0.973,4.345 -2.07,0.414 -3.162,1.343 -3.592,3.058 -0.394,1.57 -1.126,2.269 -2.017,1.927 -2.256,-0.865 -10.41,2.94 -10.414,4.861 -0.006,2.441 -1.604,3.069 -4.059,1.593 -1.874,-1.126 -2.323,-1.008 -3.662,0.966 -2.02,2.976 -2.796,2.84 -4.283,-0.75 -1.319,-3.184 -3.107,-3.67 -7.44,-2.023 l -2.569,0.977 1.908,5.023 1.909,5.023 h -3.471 c -2.139,0 -4.699,-0.937 -6.672,-2.442 -1.761,-1.343 -5.325,-3.01 -7.921,-3.704 -4.321,-1.156 -4.953,-1.088 -7.482,0.798 -3.727,2.78 -4.034,5.104 -0.835,6.32 2.948,1.121 3.131,1.746 1.161,3.949 -1.547,1.729 -3.894,12.775 -3.016,14.195 1.284,2.077 4.995,0.529 11.059,-4.616 6.801,-5.77 7.79,-6.245 8.982,-4.316 0.446,0.721 -0.898,2.587 -3.44,4.777 -4.626,3.983 -4.863,4.804 -2.633,9.117 1.444,2.792 1.675,2.885 3.682,1.479 2.298,-1.61 4.778,-0.568 4.778,2.006 0,2.34 1.873,2.564 3.964,0.473 1.434,-1.434 2.036,-3.343 2.036,-6.454 0,-2.43 0.283,-5.155 0.628,-6.054 0.551,-1.438 0.918,-1.364 3.02,0.611 2.267,2.129 2.485,2.157 4.123,0.523 0.951,-0.949 2.409,-3.849 3.241,-6.444 l 1.512,-4.718 5.301,0.286 c 4.442,0.24 5.783,-0.12 8.276,-2.217 2.213,-1.863 3.698,-2.359 5.799,-1.939 3.336,0.667 4.819,-1.084 10.487,-12.38 2.001,-3.988 4.025,-7.25 4.497,-7.25 0.472,0 1.156,2.24 1.519,4.978 0.791,5.962 -1.61,11.609 -6.38,15.006 -3.674,2.616 -3.761,3.648 -0.523,6.195 3.579,2.815 3.11,4.58 -1.551,5.835 -5.169,1.392 -6.112,3.643 -2.681,6.396 1.433,1.149 3.073,3.328 3.644,4.84 1.024,2.71 0.982,2.75 -2.902,2.75 -5.423,0 -11.35,4.976 -10.038,8.427 0.842,2.215 0.638,2.329 -5.27,2.946 -6.479,0.678 -9.377,2.426 -8.37,5.049 0.477,1.243 2.197,1.578 8.105,1.578 6.039,0 7.395,0.274 6.96,1.408 -0.642,1.674 -4.383,3.256 -9.897,4.185 -4.431,0.747 -9.5,3.019 -9.5,4.258 0,0.44 1.102,1.836 2.449,3.101 1.765,1.658 3.213,2.155 5.187,1.777 6.684,-1.278 6.276,2.654 -0.598,5.754 -2.247,1.013 -4.652,3.006 -5.345,4.429 -1.264,2.593 -2.968,2.971 -7.252,1.609 -1.576,-0.501 -2.331,-0.058 -3.216,1.885 -1.333,2.924 -2.814,3.401 -13.619,4.379 -5.841,0.529 -8.176,1.163 -8.978,2.437 -2.167,3.447 0.611,4.296 13.176,4.029 11.575,-0.246 11.671,-0.229 9.302,1.613 -1.316,1.024 -4.806,2.622 -7.755,3.552 -6.631,2.09 -10.163,5.093 -10.977,9.334 -0.525,2.737 -0.327,3.25 1.259,3.25 1.036,0 3.904,-1.07 6.375,-2.377 2.471,-1.308 6.067,-2.684 7.992,-3.058 3.473,-0.675 3.484,-0.666 1.367,1.127 -1.173,0.995 -4.62,5.065 -7.66,9.045 -5.547,7.263 -6.151,9.548 -3.44,13.013 2.238,2.86 4.597,1.22 8.633,-6 4.476,-8.008 5.033,-7.13 2.459,3.878 -2.147,9.178 -1.674,10.372 4.11,10.372 h 4.531 v -3.723 -3.722 l 1.692,2.472 c 1.972,2.882 3.32,3.936 5.058,3.958 2.037,0.025 1.433,-4.826 -1.382,-11.099 -2.126,-4.738 -2.395,-6.148 -1.403,-7.344 0.995,-1.199 0.817,-2.004 -0.94,-4.237 l -2.169,-2.757 2.689,-0.896 c 2.655,-0.885 2.681,-0.981 2.035,-7.533 -0.474,-4.814 -0.288,-7.135 0.676,-8.455 1.203,-1.644 1.494,-1.298 3.04,3.607 2.187,6.938 4.378,8.956 9.279,8.545 5.009,-0.42 5.345,-2.193 1.153,-6.096 -3.685,-3.431 -5.728,-6.663 -5.728,-9.06 0,-0.809 1.575,-3.356 3.5,-5.66 1.925,-2.304 3.5,-4.912 3.5,-5.795 0,-2.9 1.69,0.138 2.938,5.282 1.518,6.256 2.564,7.513 6.25,7.513 7.621,0 8.945,-4.918 3.312,-12.296 -1.925,-2.521 -3.5,-4.836 -3.5,-5.144 0,-0.308 1.012,-0.567 2.25,-0.575 4.772,-0.033 5.219,-1.443 1.958,-6.183 -2.949,-4.286 -2.983,-4.461 -1.095,-5.64 1.681,-1.05 1.856,-1.916 1.274,-6.302 -0.657,-4.953 -0.62,-5.055 1.446,-3.949 3.217,1.721 4.467,4.884 3.814,9.65 -0.521,3.796 -0.151,4.899 3.382,10.1 2.181,3.212 3.967,6.386 3.969,7.055 0.004,2.224 3.354,8.284 4.579,8.284 0.663,0 1.489,-1.125 1.834,-2.5 0.397,-1.582 1.333,-2.5 2.549,-2.5 1.057,0 2.16,-0.386 2.452,-0.858 0.507,-0.82 -0.346,-4.525 -1.959,-8.508 -0.664,-1.64 -0.503,-1.731 1.33,-0.75 1.147,0.614 3.72,1.116 5.718,1.116 3.372,0 3.609,-0.197 3.315,-2.75 -0.311,-2.707 -1.348,-3.568 -12.946,-10.75 -4.635,-2.871 -4.8,-4.5 -0.453,-4.5 5.839,0 4.001,-4.664 -3.334,-8.457 -2.612,-1.351 -6.748,-6.406 -4.425,-5.409 8.649,3.714 10.49,4.145 11.833,2.774 2.151,-2.199 2.84,-6.388 1.266,-7.695 -0.755,-0.626 -3.102,-1.718 -5.217,-2.426 -4.363,-1.46 -6.178,-3.681 -5.166,-6.318 0.527,-1.375 0.969,-1.526 1.859,-0.636 0.642,0.642 2.202,1.167 3.467,1.167 2.046,0 2.3,-0.479 2.3,-4.326 0,-3.321 -0.581,-4.871 -2.5,-6.674 -3.236,-3.04 -3.153,-3.619 0.631,-4.376 2.94,-0.588 3.096,-0.839 2.563,-4.125 -0.557,-3.427 -0.498,-3.499 2.85,-3.499 2.839,0 3.527,-0.436 4.065,-2.577 0.526,-2.098 -0.073,-3.314 -3.225,-6.542 -2.13,-2.181 -4.822,-4.204 -5.984,-4.495 -1.89,-0.475 -2.178,-1.479 -2.755,-9.612 -0.355,-4.995 -0.645,-10.412 -0.645,-12.038 0,-2.91 0.028,-2.926 1.75,-0.962 1.457,1.661 10.25,4.798 10.25,3.657 0,-0.196 -0.9,-2.64 -2,-5.431 -2.495,-6.331 -2.489,-6.456 0.223,-4.557 2.513,1.761 5.56,1.984 7.777,0.57 1.273,-0.812 1.16,-1.196 -0.75,-2.542 -2.639,-1.859 -2.903,-4.006 -0.646,-5.269 1.473,-0.824 1.473,-1.153 0,-4 -0.882,-1.707 -1.604,-4.025 -1.604,-5.152 0,-2.151 1.445,-2.757 2.5,-1.05 0.34,0.55 1.911,1 3.492,1 3.035,0 3.377,-0.543 4.568,-7.261 0.861,-4.859 2.711,-6.107 2.32,-1.565 -0.173,2.006 0.404,4.393 1.409,5.828 0.936,1.336 1.993,4.02 2.35,5.964 0.357,1.943 1.106,3.83 1.665,4.191 1.789,1.16 3.696,-0.296 3.696,-2.821 0,-1.348 0.486,-4.379 1.079,-6.736 0.871,-3.458 0.774,-5.015 -0.5,-8.065 -2.363,-5.655 -1.994,-7.206 2.827,-11.891 2.881,-2.801 4.842,-5.815 5.668,-8.713 1.635,-5.737 2.485,-6.624 3.869,-4.038 0.62,1.159 1.996,2.107 3.057,2.107 2.201,0 3.457,-1.971 4.464,-7 0.879,-4.396 7.562,-19 8.694,-19 1.511,0 0.887,7.647 -1.155,14.145 -1.099,3.495 -4.683,11.045 -7.965,16.777 -5.96,10.409 -6.364,11.75 -7.474,24.816 -0.493,5.795 -0.358,6.351 1.91,7.837 1.925,1.261 2.324,2.186 1.886,4.374 -0.326,1.631 0.114,4.067 1.068,5.913 2.023,3.91 5.621,4.18 9.117,0.683 2.864,-2.864 2.945,-4.592 1.121,-23.912 -1.333,-14.116 -1.095,-15.143 3.835,-16.496 2.875,-0.789 2.986,-1.026 2.686,-5.73 -0.277,-4.344 -0.142,-4.735 1.172,-3.407 1.949,1.97 2.175,3.609 1.222,8.853 -0.782,4.3 -0.732,4.406 4.064,8.662 4.382,3.889 4.733,4.511 3.605,6.383 -1.814,3.011 -1.56,4.58 1.29,7.967 2.356,2.801 2.519,3.645 2.25,11.715 l -0.29,8.697 -7.694,4.112 c -7.005,3.742 -7.643,4.335 -7.113,6.611 1.246,5.347 4.042,6.293 9.607,3.25 1.76,-0.962 4.544,-1.75 6.188,-1.75 2.427,0 3.365,-0.703 5,-3.747 2.298,-4.28 3.512,-4.782 3.512,-1.455 0,3.267 -10.031,13.558 -13.985,14.349 -3.272,0.654 -6.015,3.641 -6.015,6.55 0,0.963 -1.295,2.422 -2.879,3.24 -3.266,1.69 -4.222,3.462 -3.452,6.404 0.445,1.704 0.93,1.882 2.996,1.096 3.775,-1.435 4.327,-1.201 5.871,2.495 0.788,1.887 1.844,3.685 2.345,3.994 1.824,1.128 5.067,-3.1 8.204,-10.696 1.765,-4.273 3.336,-7.642 3.491,-7.487 0.156,0.155 -0.183,2.468 -0.753,5.139 -1.442,6.763 -0.066,9.618 4.637,9.618 4.457,0 5.04,-1.822 5.04,-15.75 0,-9.738 0.538,-12.2 1.893,-8.667 1.322,3.443 1.824,21.003 0.718,25.06 -2.09,7.659 1.543,9.857 7.103,4.297 3.031,-3.031 3.055,-3.142 2.541,-11.382 -0.285,-4.577 -0.162,-8.9 0.275,-9.606 1.061,-1.717 3.97,8.121 3.97,13.425 0,2.957 0.683,4.726 2.592,6.719 2.407,2.512 2.532,3.088 1.75,8.055 -0.825,5.241 -0.951,5.401 -6.239,7.922 -7.016,3.344 -9.103,5.99 -9.103,11.538 0,3.932 0.243,4.389 2.334,4.389 1.284,0 4.861,-1.77 7.949,-3.933 l 5.615,-3.933 0.69,4.601 c 0.832,5.552 0.232,6.644 -6.394,11.634 -4.225,3.183 -4.968,4.185 -4.184,5.65 1.189,2.22 -0.466,2.981 -6.485,2.981 -5.798,0 -6.856,2.458 -2.573,5.979 4.836,3.976 4.264,7.459 -2.182,13.278 l -5.27,4.757 2.905,2.404 c 2.863,2.37 2.886,2.471 1.608,7.036 -0.713,2.547 -2.638,6.657 -4.278,9.132 -2.584,3.902 -2.917,5.172 -2.497,9.541 0.321,3.34 1.206,5.761 2.623,7.179 2.128,2.127 2.149,2.128 4.042,0.166 1.046,-1.084 3.074,-5.27 4.506,-9.3 3.489,-9.819 4.209,-11.096 8.546,-15.172 3.477,-3.267 3.766,-3.992 4.339,-10.897 0.506,-6.097 1.066,-7.87 3.185,-10.081 1.772,-1.85 2.866,-4.5 3.522,-8.529 0.93,-5.714 2.269,-8.506 3.276,-6.83 0.277,0.46 0.129,3.087 -0.327,5.837 -1.21,7.281 -1.12,15.254 0.194,17.359 0.927,1.485 0.708,2.423 -1.157,4.944 -1.909,2.583 -2.145,3.654 -1.386,6.3 0.503,1.754 1.811,3.685 2.907,4.293 1.095,0.607 2.181,1.218 2.413,1.358 0.231,0.14 -0.505,1.265 -1.635,2.5 -3.137,3.427 -3.446,5.823 -1.522,11.783 l 1.764,5.463 4.772,-0.065 c 3.691,-0.05 4.651,0.251 4.236,1.332 -0.295,0.768 -0.536,1.835 -0.536,2.371 0,0.536 -1.394,2.248 -3.097,3.803 -2.646,2.417 -2.934,3.132 -1.983,4.91 0.956,1.787 0.723,2.33 -1.653,3.847 -1.522,0.972 -3.355,2.563 -4.074,3.535 -0.718,0.972 -2.126,1.767 -3.127,1.767 -2.514,0 -3.843,1.885 -4.234,6.004 -0.28,2.949 -0.845,3.662 -3.614,4.557 -5.47,1.768 -11.218,9.867 -11.218,15.806 0,2.711 0.488,3.653 2.169,4.187 1.798,0.57 3.559,-0.744 10.287,-7.683 4.465,-4.604 10.205,-10.842 12.756,-13.862 2.552,-3.02 4.856,-5.27 5.122,-5 0.266,0.27 -1.758,4.541 -4.498,9.491 -5.516,9.967 -6.966,14.5 -4.635,14.5 0.798,0 2.507,-1.125 3.799,-2.5 3.405,-3.624 4.308,-3.067 2.002,1.235 -2.069,3.86 -2.612,9.754 -1.117,12.113 1.419,2.239 4.504,0.841 6.314,-2.861 l 1.705,-3.487 0.048,4.25 c 0.062,5.469 2.827,8.498 7.357,8.059 3.138,-0.304 3.19,-0.394 3.155,-5.434 -0.028,-3.933 -0.957,-6.955 -4,-13 -2.18,-4.331 -4.13,-8.261 -4.333,-8.733 -0.203,-0.472 1.484,-0.545 3.75,-0.162 2.265,0.383 4.119,0.473 4.119,0.2 0,-0.272 -1.16,-2.732 -2.579,-5.466 -2.892,-5.574 -4.368,-13.214 -2.553,-13.214 0.623,0 1.132,1.52 1.132,3.378 0,4.22 2.002,6 5.808,5.164 2.804,-0.616 2.955,-0.444 5.041,5.732 1.183,3.502 2.151,8.216 2.151,10.475 0,4.814 2.265,7.684 5.399,6.842 1.156,-0.31 2.583,-0.57 3.173,-0.577 2.024,-0.026 0.952,-15.066 -1.403,-19.684 -1.164,-2.28 -2.412,-5.999 -2.774,-8.264 -0.475,-2.965 -1.472,-4.697 -3.564,-6.186 -2.644,-1.883 -9.831,-11.408 -9.831,-13.03 0,-0.372 1.333,-0.173 2.962,0.442 1.629,0.615 3.268,0.811 3.643,0.436 0.375,-0.374 -0.289,-3.054 -1.474,-5.954 l -2.156,-5.274 3.475,4 c 1.911,2.2 3.492,4.337 3.512,4.75 0.021,0.413 0.868,0.75 1.883,0.75 2.647,0 4.646,2.707 6.647,9 2.493,7.839 7.576,20.003 8.351,19.985 0.361,-0.009 1.29,-0.416 2.064,-0.906 1.167,-0.739 1.21,-1.872 0.25,-6.652 -2.056,-10.237 -0.975,-10.877 3.558,-2.106 2.182,4.223 2.72,6.726 2.913,13.562 0.267,9.44 1.507,11.904 4.2,8.341 1.292,-1.71 2.005,-1.991 2.866,-1.13 1.904,1.904 9.122,2.833 10.366,1.334 1.384,-1.668 0.209,-3.865 -4.478,-8.374 -4.049,-3.895 -4.536,-6.473 -1.529,-8.083 1.665,-0.891 2.881,-0.614 6.428,1.465 6.752,3.957 11.519,3.094 11.519,-2.085 0,-4.608 -11.269,-10.332 -20.409,-10.366 -6.611,-0.025 -7.373,-1.42 -1.896,-3.469 5.592,-2.091 7.305,-3.271 7.305,-5.031 0,-2 -2.073,-2.313 -8.091,-1.222 -4.538,0.823 -6.409,0.706 -9.996,-0.624 l -4.413,-1.637 4.75,0.56 c 4.259,0.503 4.75,0.355 4.75,-1.423 0,-1.411 -1.083,-2.333 -3.75,-3.193 -2.062,-0.665 -4.136,-1.431 -4.607,-1.702 -1.335,-0.77 1.568,-2.212 4.486,-2.229 1.967,-0.011 2.939,-0.765 3.864,-2.997 0.679,-1.64 0.973,-3.665 0.652,-4.5 -0.773,-2.016 -7.257,-1.996 -12.124,0.038 -5.374,2.245 -9.792,1.592 -10.523,-1.556 -0.465,-2.001 -1.55,-2.741 -5.443,-3.71 -8.622,-2.146 -12.882,-8.629 -9.023,-13.731 2.431,-3.214 1.832,-6.165 -1.532,-7.559 -1.65,-0.683 -3,-1.611 -3,-2.062 0,-1.352 1.815,-2.047 2.49,-0.954 0.345,0.559 1.936,1.016 3.534,1.016 3.244,0 4.429,-1.567 5.499,-7.268 0.418,-2.23 1.272,-3.732 2.12,-3.732 2.639,0 7.981,2.731 11.658,5.959 2.954,2.594 4.208,3.088 6.539,2.576 1.718,-0.377 3.341,-1.638 4.015,-3.117 0.672,-1.473 2.993,-3.281 5.709,-4.445 3.741,-1.604 4.518,-2.374 4.256,-4.218 -0.304,-2.14 -0.815,-2.27 -10.025,-2.541 -9.078,-0.267 -9.837,-0.452 -11.734,-2.864 -1.728,-2.197 -2.544,-2.482 -5.506,-1.926 -3.288,0.617 -3.526,0.473 -4.348,-2.636 -0.854,-3.225 -0.967,-3.282 -5.894,-2.981 -4.23,0.259 -5.519,-0.11 -8.168,-2.338 -4.657,-3.919 -4.066,-5.088 2.94,-5.82 7.097,-0.742 7.915,-1.119 7.915,-3.651 0,-2.535 -3.106,-4.547 -10.952,-7.097 -8.821,-2.867 -12.182,-6.88 -5.798,-6.923 3.421,-0.023 11.055,-3.044 12.143,-4.805 0.878,-1.42 -0.367,-2.03 -6.531,-3.199 -6.221,-1.18 -6.434,-1.362 -7.155,-6.138 -0.728,-4.822 0.712,-6.58 6.799,-8.298 13.062,-3.686 16.126,-6.018 10.986,-8.36 -1.422,-0.648 -2.986,-1.178 -3.474,-1.178 -0.488,0 -2.051,-0.442 -3.473,-0.983 -2.529,-0.962 -2.554,-1.06 -1.117,-4.5 1.728,-4.134 1.236,-4.303 -5.666,-1.952 -2.527,0.861 -6.319,1.424 -8.428,1.25 -3.688,-0.303 -3.824,-0.443 -3.564,-3.688 0.388,-4.838 -1.321,-6.454 -6.031,-5.701 -2.752,0.44 -4.701,0.119 -6.799,-1.12 -3.698,-2.185 -3.7,-2.98 -0.009,-3.791 3.494,-0.767 5.514,-2.912 4.712,-5.002 -0.436,-1.138 -2.207,-1.513 -7.143,-1.513 -8.183,0 -9.266,-1.583 -4.471,-6.529 l 3.293,-3.398 -2.411,-0.893 c -1.326,-0.491 -3.086,-1.147 -3.911,-1.457 -0.825,-0.311 0.323,-0.601 2.55,-0.644 4.157,-0.081 6.45,-1.444 6.45,-3.834 0,-0.745 -2.587,-2.487 -5.75,-3.87 -6.226,-2.723 -9.193,-5.63 -9.228,-9.042 -0.012,-1.191 -0.509,-2.329 -1.103,-2.527 -0.595,-0.198 2.107,-1.387 6.004,-2.642 6.178,-1.99 6.963,-2.509 6.135,-4.055 -1.55,-2.897 -3.177,-3.79 -11.058,-6.069 -4.125,-1.193 -8.37,-2.422 -9.434,-2.73 -1.749,-0.508 -1.678,-0.696 0.75,-1.968 1.476,-0.773 2.684,-1.804 2.684,-2.29 0,-0.486 -1.913,-2.35 -4.25,-4.142 -8.134,-6.237 -10.75,-9.176 -10.75,-12.08 v -2.777 l 4.474,4.473 c 3.347,3.348 5.243,4.474 7.531,4.474 6.367,0 5.157,-3.313 -5.558,-15.209 -6.147,-6.825 -6.505,-7.487 -5.922,-10.937 0.421,-2.491 0.09,-4.697 -1.026,-6.856 -0.906,-1.751 -1.487,-3.343 -1.292,-3.539 1.028,-1.028 10.505,8.028 12.491,11.937 1.268,2.494 3.248,5.04 4.4,5.657 1.152,0.616 3.586,4.393 5.409,8.392 1.822,4 4.066,7.561 4.985,7.914 3.295,1.264 9.547,0.703 10.167,-0.913 0.797,-2.077 -2.303,-8.761 -6.909,-14.897 -4.269,-5.686 -4.365,-6.192 -2.088,-10.967 2.144,-4.495 1.019,-5.951 -6.222,-8.056 -3.583,-1.042 -5.766,-2.316 -6.507,-3.797 -0.614,-1.226 -2.987,-3.925 -5.274,-5.999 -3.843,-3.483 -3.955,-3.723 -1.481,-3.159 3.626,0.826 6.822,-0.326 6.822,-2.458 0,-0.964 -1.575,-3.593 -3.5,-5.842 -4.282,-5.003 -4.383,-6.663 -0.5,-8.271 1.65,-0.683 3,-1.637 3,-2.118 0,-0.482 -1.61,-2.658 -3.577,-4.836 -3.417,-3.782 -3.549,-4.198 -2.935,-9.253 0.447,-3.688 0.167,-6.619 -0.923,-9.669 -2,-5.59 -2.036,-8.242 -0.103,-7.5 0.804,0.308 1.727,1.396 2.051,2.417 0.324,1.021 1.456,2.132 2.516,2.468 1.22,0.387 2.317,2.148 2.99,4.801 1.401,5.516 2.925,8.455 4.748,9.154 2.596,0.996 4.028,-1.373 4.693,-7.759 0.94,-9.042 1.587,-11.794 2.621,-11.155 0.506,0.313 0.919,4.771 0.919,9.907 0,8.493 0.279,9.87 3.075,15.191 3.131,5.957 5.657,9.352 6.959,9.352 0.398,0 1.277,-1.336 1.953,-2.968 0.942,-2.275 0.97,-4.456 0.121,-9.332 -0.609,-3.5 -1.108,-7.395 -1.108,-8.654 0,-3.583 2.519,-0.867 5.635,6.075 1.451,3.233 3.234,5.879 3.963,5.879 0.729,0 1.871,-1.913 2.538,-4.25 l 1.213,-4.25 0.707,3 c 1.265,5.365 1.005,15.481 -0.47,18.334 -2.555,4.94 -2.954,9.915 -1.169,14.587 2.277,5.962 4.656,7.942 8.524,7.092 4.764,-1.046 5.343,-3.31 2.414,-9.43 -2.573,-5.375 -2.57,-7.993 0.01,-11.33 1.138,-1.471 1.85,-1.574 4.499,-0.65 3.356,1.169 3.661,1.894 4.541,10.783 0.293,2.962 0.749,5.601 1.013,5.865 0.264,0.264 1.747,0.039 3.295,-0.501 2.79,-0.973 2.811,-0.949 2.458,2.755 -0.196,2.055 0.306,5.032 1.116,6.615 1.714,3.353 1.145,5.438 -3.216,11.776 -5.044,7.332 -4.986,12.604 0.138,12.604 1.265,0 2.368,1.069 3.097,3 1.442,3.821 4.371,3.947 5.798,0.25 0.584,-1.513 1.924,-4.414 2.979,-6.448 1.353,-2.611 1.96,-5.992 2.064,-11.5 0.142,-7.556 0.166,-7.628 0.761,-2.302 0.783,7.026 1.495,8.047 5.399,7.746 3.581,-0.276 3.485,-0.768 2.133,11.004 -0.715,6.225 -0.707,6.25 1.84,6.25 1.844,0 3.16,-0.976 4.72,-3.5 1.19,-1.925 2.345,-3.5 2.567,-3.5 0.222,0 0.916,2.033 1.542,4.517 0.625,2.484 1.516,4.751 1.979,5.037 0.463,0.287 -0.32,3.656 -1.741,7.489 -2.124,5.731 -2.357,7.24 -1.312,8.499 1.058,1.275 0.828,1.991 -1.383,4.299 -3.154,3.292 -3.322,4.73 -0.718,6.124 3.227,1.727 6.311,1.175 9.269,-1.659 l 2.812,-2.695 -0.646,4.713 c -0.749,5.466 1.248,8.676 5.399,8.676 2.163,0 2.406,0.361 2.019,3 -0.401,2.73 -0.186,3 2.386,3 3.465,0 3.561,1.105 0.394,4.522 -3.065,3.308 -6.131,16.524 -3.817,16.456 0.413,-0.012 1.875,-0.902 3.25,-1.978 3.47,-2.714 4.997,-2.486 5.015,0.75 0.009,1.513 0.346,3.231 0.75,3.819 1.178,1.714 10.081,5.644 11.208,4.948 1.623,-1.004 1.2,-7.039 -0.877,-12.506 -1.149,-3.024 -1.481,-5.011 -0.838,-5.011 2.23,0 9.638,5.096 10.261,7.058 0.886,2.794 2.908,1.908 3.304,-1.448 l 0.322,-2.737 3.361,2.564 c 4.172,3.182 4.494,3.181 4.494,-0.014 0,-2.652 -2.668,-5.784 -9,-10.567 l -3.5,-2.643 2.75,-2.179 c 1.513,-1.199 2.75,-2.539 2.75,-2.978 0,-0.439 -2.362,-1.097 -5.25,-1.462 -2.888,-0.365 -6.711,-0.923 -8.496,-1.239 l -3.246,-0.576 2.544,-3.023 c 3.576,-4.25 2.897,-6.235 -2.17,-6.341 -6.141,-0.129 -7.038,-0.811 -8.371,-6.368 -0.946,-3.946 -1.866,-5.438 -4.047,-6.566 -2.889,-1.494 -4.586,-4.665 -3.466,-6.478 0.345,-0.558 0.653,-2.851 0.684,-5.095 0.047,-3.417 -0.565,-4.716 -3.766,-7.994 -2.102,-2.153 -3.216,-3.914 -2.476,-3.914 0.74,0 2.969,1.88 4.953,4.177 6.507,7.535 7.99,8.823 10.155,8.823 1.316,0 2.346,-0.789 2.676,-2.051 0.492,-1.882 0.688,-1.8 2.391,1 1.278,2.101 2.639,3.051 4.37,3.051 1.383,0 3.415,0.9 4.515,2 2.758,2.758 4.847,2.503 6.155,-0.75 l 1.106,-2.75 0.882,3.186 c 0.484,1.753 1.716,3.452 2.737,3.776 1.021,0.324 2.66,1.478 3.643,2.564 2.493,2.755 4.03,2.467 5.477,-1.026 1.475,-3.56 1.92,-3.637 5.365,-0.927 l 2.635,2.072 v -3.572 c 0,-3.405 0.162,-3.573 3.441,-3.573 4.25,0 5.375,-1.497 2.337,-3.107 -1.253,-0.665 -4.011,-2.297 -6.13,-3.628 l -3.852,-2.419 2.171,-2.311 2.172,-2.312 -3.82,-0.453 c -2.1,-0.25 -5.965,-1.071 -8.587,-1.824 -3.637,-1.045 -5.466,-1.108 -7.704,-0.263 -2.621,0.99 -3.103,0.852 -4.504,-1.287 -0.864,-1.318 -2.507,-2.396 -3.653,-2.396 -1.145,0 -3.399,-1.108 -5.009,-2.463 -2.403,-2.022 -3.381,-2.29 -5.46,-1.5 -3.935,1.496 -8.606,1.136 -11.985,-0.925 -1.696,-1.034 -4.539,-2.2 -6.318,-2.59 -3.809,-0.837 -4.55,-2.206 -3.165,-5.85 l 1.016,-2.672 h -8.006 c -9.885,0 -10.973,-1.338 -5.578,-6.863 1.999,-2.047 3.634,-4.229 3.634,-4.85 0,-1.505 -5.297,-2.6 -8.826,-1.825 -4.099,0.9 -7.608,-0.809 -9.445,-4.602 -0.883,-1.824 -1.459,-3.464 -1.278,-3.644 0.18,-0.181 3.03,0.372 6.333,1.228 8.169,2.117 9.897,1.973 11.835,-0.985 2.022,-3.086 0.867,-6.439 -3.119,-9.051 -2.243,-1.47 -3.105,-1.528 -6.417,-0.435 -3.346,1.104 -4.502,1.011 -9.205,-0.738 -3.872,-1.44 -5.467,-2.587 -5.695,-4.097 -0.174,-1.153 -2.424,-3.958 -5,-6.232 -2.576,-2.275 -3.803,-3.838 -2.728,-3.474 1.075,0.364 3.887,0.927 6.25,1.251 l 4.295,0.589 v -3.514 c 0,-4.238 -1.083,-5.246 -7.317,-6.816 -4.331,-1.091 -4.761,-1.458 -4.487,-3.824 0.443,-3.813 -4.867,-6.544 -10.948,-5.633 -3.453,0.518 -4.846,0.284 -6.337,-1.065 -2.887,-2.613 -2.42,-5.149 1.089,-5.92 3.465,-0.761 3.664,-1.467 1.25,-4.416 -1.209,-1.476 -3.359,-2.325 -6.95,-2.744 -7.368,-0.86 -10.046,-2.873 -12.757,-9.59 -1.276,-3.163 -1.968,-5.75 -1.538,-5.75 0.429,0 1.039,0.672 1.354,1.494 0.531,1.382 6.336,5.494 7.77,5.502 0.345,0.002 1.185,-1.34 1.866,-2.983 1.448,-3.498 2.225,-3.208 5.558,2.071 2.801,4.437 4.104,4.76 7.72,1.916 3.508,-2.759 4.478,-2.532 6.137,1.439 1.311,3.137 7.985,8.561 10.535,8.561 1.408,0 3.055,-3.437 3.055,-6.375 0,-1.379 0.385,-2.745 0.855,-3.035 0.776,-0.48 10.523,12.044 11.385,14.629 0.199,0.599 2.14,1.149 4.311,1.222 3.857,0.13 3.989,0.258 5.665,5.452 2.679,8.307 4.298,9.593 7.74,6.151 1.942,-1.942 1.974,-1.905 4.22,5.07 2.023,6.283 2.945,7.626 8.701,12.679 4.395,3.859 7.201,7.32 8.845,10.91 1.324,2.893 2.882,5.552 3.463,5.911 0.58,0.359 2.172,-0.774 3.537,-2.518 1.887,-2.411 2.795,-2.912 3.789,-2.087 1.652,1.371 11.49,0.183 11.485,-1.388 -0.009,-2.824 -4.306,-7.663 -9.115,-10.265 -3.911,-2.117 -6.031,-4.15 -8.191,-7.856 -3.35,-5.75 -4.211,-6.464 -7.818,-6.485 -1.445,-0.008 -3.154,-0.65 -3.797,-1.425 -0.953,-1.148 -0.604,-1.535 1.877,-2.08 1.676,-0.368 3.048,-1.049 3.048,-1.513 0,-2.034 -5.385,-6.965 -8.783,-8.042 -6.47,-2.051 -8.217,-3.64 -8.217,-7.478 0,-2.988 0.332,-3.477 2.362,-3.477 1.3,0 4.062,1.35 6.138,3 5.625,4.471 7.909,4.001 6.444,-1.325 -0.778,-2.827 -0.138,-2.377 5.841,4.1 3.693,4.002 7.256,7.264 7.918,7.25 2.842,-0.059 6.288,2.489 7.51,5.553 0.725,1.818 2.887,4.362 4.803,5.653 3.217,2.168 3.573,2.928 4.642,9.93 1.326,8.681 3.138,12.747 7.054,15.827 l 2.751,2.164 0.769,-2.968 c 0.522,-2.015 1.584,-3.172 3.308,-3.605 2.527,-0.634 2.531,-0.651 0.784,-3.608 -1.677,-2.839 -1.675,-3.107 0.048,-6.023 2.271,-3.844 1.723,-5.232 -3.324,-8.418 -4.168,-2.631 -5.391,-5.555 -2.298,-5.497 2.67,0.051 9.588,5.218 11.052,8.255 0.716,1.485 2.398,2.975 3.739,3.312 4.132,1.037 8.085,6.521 8.848,12.278 0.66,4.974 0.771,5.121 3.397,4.504 1.493,-0.351 3.164,-0.693 3.714,-0.76 0.616,-0.075 0.894,3.093 0.725,8.244 l -0.274,8.366 3.774,-0.701 c 2.076,-0.385 4.609,-1.449 5.627,-2.363 2.732,-2.453 4.883,-7.11 4.161,-9.008 -0.461,-1.213 -0.332,-1.363 0.479,-0.559 1.864,1.849 4.065,11.682 3.462,15.467 -0.377,2.369 0.107,5.28 1.44,8.663 1.345,3.412 1.817,6.278 1.428,8.674 -0.731,4.504 0.899,6.595 5.143,6.595 4.628,0 6.982,-4.596 6.337,-12.37 l -0.473,-5.703 3.425,3.286 c 3.22,3.091 8.246,11.473 8.246,13.754 0,0.568 -0.863,1.896 -1.918,2.951 -2.532,2.532 -3.967,12.907 -1.961,14.178 2.441,1.546 6.186,0.964 8.661,-1.346 l 2.411,-2.25 2.92,3.482 2.92,3.481 -3.017,2.819 c -3.769,3.523 -3.95,7.418 -0.516,11.123 1.375,1.484 2.5,3.485 2.5,4.447 0,2.406 1.959,4.148 4.665,4.148 2.587,0 3.852,-1.906 4.872,-7.343 0.519,-2.769 1.014,-3.506 1.814,-2.706 0.8,0.8 0.63,2.424 -0.625,5.959 -1.941,5.464 -2.224,9.664 -0.713,10.598 0.557,0.344 2.33,-0.031 3.94,-0.835 3.34,-1.666 4.047,-1.31 4.047,2.037 0,1.443 -1.8,4.3 -4.585,7.277 -4.868,5.205 -5.147,7.136 -1.506,10.43 1.75,1.584 2.074,1.534 5.614,-0.868 2.066,-1.402 4.599,-2.549 5.63,-2.549 1.762,0 1.785,0.214 0.374,3.59 -0.825,1.974 -3.306,5.858 -5.514,8.631 -2.207,2.772 -4.013,5.608 -4.013,6.303 0,1.651 2.272,2.479 4.909,1.79 2.344,-0.613 5.091,1.184 5.091,3.33 0,0.769 -1.165,3.159 -2.589,5.311 -2.855,4.315 -2.615,7.528 0.64,8.561 1.168,0.371 1.949,1.517 1.949,2.86 0,1.233 0.634,3.109 1.41,4.17 1.37,1.874 1.466,1.876 3.443,0.087 1.119,-1.013 2.172,-3.032 2.341,-4.487 0.567,-4.901 3.515,-3.223 5.891,3.354 l 1.084,3 1.939,-3.75 c 1.605,-3.103 2.472,-3.75 5.023,-3.75 2.4,0 2.949,-0.35 2.476,-1.582 -0.334,-0.87 -0.607,-1.989 -0.607,-2.487 0,-0.498 -1.738,-2.003 -3.863,-3.344 -4.164,-2.629 -10.664,-12.771 -9.736,-15.191 0.857,-2.232 3.57,-1.629 7.265,1.616 4.055,3.56 16.443,9.988 19.25,9.988 5.292,0 3.407,-5.709 -3.222,-9.759 l -5.194,-3.174 3.75,-0.033 c 4.001,-0.036 7.75,-2.77 7.75,-5.65 0,-1.408 -1.292,-1.565 -10.001,-1.215 -10.885,0.437 -10.15,0.813 -11.493,-5.868 -0.516,-2.571 -0.236,-3.452 1.426,-4.49 2.972,-1.857 2.609,-2.437 -2.297,-3.673 -2.401,-0.604 -5.419,-1.953 -6.708,-2.996 l -2.343,-1.897 7.208,-0.724 7.208,-0.724 v -3.898 -3.899 h -7.712 -7.713 l 4.75,-4.822 4.75,-4.823 -2.585,-1.177 c -1.421,-0.648 -4.813,-1.178 -7.537,-1.178 h -4.953 v -3.901 c 0,-3.678 -0.214,-3.952 -3.75,-4.813 l -3.75,-0.912 3.75,-1.265 c 2.063,-0.695 3.75,-1.585 3.75,-1.978 0,-0.393 -2.51,-1.945 -5.577,-3.45 l -5.578,-2.735 2.295,-1.858 c 1.962,-1.589 2.102,-2.092 0.961,-3.466 -0.734,-0.884 -3.194,-2.103 -5.467,-2.708 -5.898,-1.569 -7.634,-3.468 -7.634,-8.346 0,-2.276 -0.768,-5.22 -1.715,-6.571 l -1.714,-2.448 3.964,2.416 c 6.641,4.047 12.719,7.033 14.384,7.067 2.024,0.041 4.168,1.778 6.287,5.095 0.924,1.445 2.875,2.928 4.337,3.294 1.462,0.367 3.887,1.576 5.39,2.687 1.621,1.199 3.873,1.893 5.538,1.706 2.508,-0.281 2.93,0.112 3.96,3.686 1.043,3.621 1.463,4 4.439,4 3.387,0 6.015,2.885 6.095,6.691 0.054,2.593 1.304,2.891 9.087,2.168 l 7.198,-0.669 -0.696,-6.095 c -0.383,-3.352 -0.776,-7.67 -0.875,-9.595 -0.157,-3.078 -0.48,-3.476 -2.679,-3.301 -4.687,0.372 -6.618,-0.64 -9.872,-5.17 -3.458,-4.815 -4.602,-5.21 -9.723,-3.359 -2.755,0.997 -3.657,0.893 -6.071,-0.698 l -2.834,-1.87 3.75,-1.437 c 4.114,-1.576 4.503,-2.295 2.25,-4.165 -2.355,-1.954 -1.765,-4.812 1.323,-6.408 1.552,-0.803 3.392,-2.146 4.088,-2.985 1.071,-1.29 0.847,-1.63 -1.454,-2.207 -2.978,-0.748 -10.39,1.271 -18.552,5.053 -2.866,1.328 -5.947,2.087 -7.17,1.768 -2.032,-0.532 -2.047,-0.617 -0.295,-1.641 1.016,-0.594 3.021,-2.106 4.454,-3.361 l 2.606,-2.281 -2.149,-1.524 -2.15,-1.524 2.39,-2.39 c 4.069,-4.069 2.357,-5.499 -6.385,-5.333 -7.269,0.138 -7.759,0.3 -11.647,3.847 -5.735,5.231 -8.062,6.246 -12.575,5.483 -2.952,-0.499 -3.938,-1.166 -4.175,-2.825 -0.251,-1.765 -0.976,-2.172 -3.874,-2.172 -3.12,0 -3.512,-0.271 -3.148,-2.173 0.368,-1.921 -0.148,-2.256 -4.435,-2.878 -5.663,-0.822 -8.65,-2.159 -7.821,-3.499 0.323,-0.523 2.086,-0.95 3.917,-0.95 1.832,0 4.389,-0.857 5.683,-1.905 2.318,-1.877 2.324,-1.935 0.455,-4 -1.043,-1.152 -2.651,-2.095 -3.574,-2.095 -2.604,0 -3.075,-1.071 -1.477,-3.354 1.586,-2.263 2.019,-8.646 0.587,-8.646 -0.482,0 -1.437,0.675 -2.122,1.5 -1.507,1.816 -4.339,1.93 -6.98,0.281 -1.67,-1.044 -2.365,-0.825 -4.806,1.514 -3.084,2.955 -4.214,2.697 -4.214,-0.962 0,-2.776 -0.306,-2.834 -3.587,-0.684 -1.894,1.241 -2.799,1.365 -3.664,0.5 -0.865,-0.865 -0.853,-1.445 0.051,-2.349 1.604,-1.604 1.533,-6.735 -0.103,-7.363 -0.716,-0.275 -2.936,0.183 -4.932,1.017 -3.497,1.461 -3.641,1.438 -3.947,-0.617 -0.175,-1.173 -1.218,-2.629 -2.318,-3.235 -1.1,-0.606 -2.194,-1.221 -2.432,-1.367 -0.237,-0.146 1.038,-1.781 2.834,-3.634 l 3.266,-3.37 -2.306,-1.615 c -2.887,-2.022 -4.632,-2.028 -9.41,-0.031 l -3.793,1.584 1.671,-2.549 c 2.082,-3.178 2.147,-6.223 0.148,-6.99 -0.836,-0.321 -4.999,0.514 -9.25,1.856 -4.25,1.343 -9.275,2.57 -11.165,2.727 -3.101,0.259 -3.529,-0.026 -4.383,-2.922 -0.846,-2.871 -1.431,-3.271 -5.563,-3.807 -2.539,-0.329 -6.192,-0.976 -8.117,-1.438 l -3.5,-0.839 4.25,-0.104 c 3.532,-0.086 4.25,-0.437 4.25,-2.08 0,-3.795 -10.318,-7.909 -25.289,-10.081 -10.794,-1.567 -9.588,-2.906 2.635,-2.927 6.267,-0.011 9.63,-0.478 11.537,-1.605 2.583,-1.525 3.043,-1.427 11.385,2.427 4.781,2.209 9.715,4.321 10.963,4.693 1.248,0.373 5.79,2.246 10.094,4.164 6.981,3.11 8.142,3.355 10.75,2.275 4.291,-1.778 3.861,-5.012 -1.248,-9.385 -2.295,-1.964 -3.982,-3.739 -3.75,-3.942 0.233,-0.204 1.488,-0.926 2.79,-1.604 1.942,-1.012 2.631,-0.969 3.842,0.243 1.134,1.134 2.097,1.241 4.159,0.463 2.144,-0.81 3.525,-0.584 6.868,1.121 5.444,2.777 6.674,2.695 9.175,-0.615 l 2.079,-2.75 7.524,7.75 c 4.138,4.263 7.857,7.75 8.265,7.75 0.407,0 1.342,-0.965 2.079,-2.143 l 1.338,-2.144 2.284,2.864 c 1.917,2.404 2.53,2.66 3.818,1.591 1.28,-1.062 1.637,-0.949 2.156,0.687 0.342,1.078 1.249,2.201 2.016,2.495 2.104,0.808 9.53,-3.135 9.53,-5.06 0,-1.293 0.65,-1.041 2.919,1.132 1.605,1.538 3.364,2.521 3.909,2.184 2.062,-1.274 4.238,0.771 5.297,4.976 1.577,6.263 3.33,7.363 5.651,3.547 1.02,-1.678 2.95,-3.906 4.289,-4.952 5.838,-4.56 9.716,-3.23 10.638,3.646 0.624,4.652 2.929,6.672 6.775,5.936 2.238,-0.427 2.245,-0.395 0.9,4.655 -0.745,2.797 -1.36,5.249 -1.366,5.447 -0.007,0.199 1.597,0.06 3.564,-0.309 4.606,-0.864 6.154,0.468 6.985,6.008 0.363,2.418 1.95,6.431 3.527,8.918 3.507,5.529 7.548,6.253 10.421,1.868 1.67,-2.549 1.655,-2.829 -0.385,-7.027 -1.168,-2.405 -2.124,-4.818 -2.124,-5.363 0,-1.405 9.102,3.385 11.5,6.052 1.1,1.224 4.025,3.605 6.5,5.292 5.835,3.978 6.139,4.531 4.366,7.959 -2.339,4.523 -1.477,7.182 2.449,7.559 1.824,0.175 3.898,-0.165 4.61,-0.756 0.986,-0.818 1.953,-0.124 4.059,2.914 1.52,2.194 3.141,3.756 3.601,3.471 0.461,-0.284 1.148,-2.171 1.527,-4.191 0.662,-3.529 0.725,-3.577 1.596,-1.215 1.143,3.1 5.82,8.06 6.945,7.364 1.208,-0.746 1.047,-7.533 -0.269,-11.307 -2.097,-6.017 -0.017,-4.311 3.718,3.05 2.09,4.117 3.988,9.552 4.315,12.352 0.544,4.662 0.776,5.007 3.433,5.102 3.346,0.12 4.213,1.261 5.081,6.691 0.931,5.824 1.467,6.179 4.679,3.102 3.434,-3.29 3.664,-6.406 0.815,-11.017 -3.858,-6.241 -1.593,-6.679 2.575,-0.498 3.062,4.541 5.236,6.54 9.272,8.526 6.829,3.36 8.815,3.294 10.702,-0.356 2.306,-4.458 1.924,-6.643 -1.402,-8.02 -3.149,-1.305 -4.337,-3.176 -3.462,-5.457 0.406,-1.057 -0.645,-1.606 -4.054,-2.117 -6.499,-0.974 -19.247,-8.898 -21.94,-13.635 -1.15,-2.024 -1.782,-3.988 -1.405,-4.365 0.377,-0.377 3.594,0.941 7.15,2.929 7.332,4.1 8.671,4.3 12.735,1.899 3.866,-2.284 3.661,-3.818 -0.846,-6.307 -3.498,-1.933 -3.549,-2.023 -0.75,-1.344 1.65,0.4 5.3,0.764 8.11,0.808 2.811,0.045 5.738,0.603 6.506,1.24 0.767,0.637 2.63,1.468 4.14,1.847 2.556,0.642 2.744,0.474 2.744,-2.455 0,-1.729 -0.728,-4.255 -1.618,-5.613 -1.304,-1.989 -1.377,-2.761 -0.378,-3.965 0.683,-0.822 1.791,-1.495 2.463,-1.495 0.673,0 2.074,-0.941 3.115,-2.09 1.856,-2.052 1.855,-2.117 -0.036,-3.5 -1.061,-0.776 -2.481,-1.41 -3.156,-1.41 -0.675,0 -2.658,-0.788 -4.406,-1.75 -3.049,-1.68 -3.223,-1.675 -4.331,0.108 -4.212,6.786 -6.653,8.306 -6.653,4.142 0,-1.978 -0.505,-2.5 -2.421,-2.5 -1.875,0 -2.568,0.674 -3.078,2.993 -0.558,2.541 -0.938,2.844 -2.513,2 -3.229,-1.728 -5.497,-1.095 -8.988,2.507 -3.834,3.956 -5.945,4.428 -6.71,1.5 -0.372,-1.421 -1.364,-2 -3.428,-2 -2.115,0 -3.209,-0.668 -4.025,-2.459 -0.908,-1.992 -1.472,-2.271 -2.969,-1.471 -1.016,0.544 -2.539,2.326 -3.383,3.96 -2.092,4.045 -4.951,4.051 -4.143,0.009 0.641,-3.203 -1.259,-6.039 -4.044,-6.039 -1.213,0 -1.438,-0.75 -1.012,-3.377 0.5,-3.079 0.196,-3.607 -3.459,-6 -4.866,-3.186 -6.264,-3.265 -8.226,-0.464 -1.262,1.801 -1.767,1.948 -3.051,0.883 -0.846,-0.703 -2.626,-1.07 -3.955,-0.815 -1.84,0.351 -2.682,-0.123 -3.532,-1.989 -0.962,-2.111 -1.578,-2.364 -4.451,-1.825 -2.401,0.45 -3.702,0.183 -4.645,-0.953 -0.98,-1.181 -2.281,-1.414 -5.171,-0.925 -2.821,0.476 -4.569,0.188 -6.487,-1.068 l -2.625,-1.72 2.393,-1.805 c 1.316,-0.993 2.175,-2.009 1.908,-2.257 -0.267,-0.249 -4.244,-2.333 -8.838,-4.632 -4.595,-2.299 -8.17,-4.364 -7.944,-4.589 0.643,-0.643 7.917,1.566 12.007,3.648 4.59,2.336 7.403,2.402 8.634,0.203 0.884,-1.58 1.103,-1.58 3.514,0 3.499,2.293 4.881,2.128 7.718,-0.921 1.333,-1.433 3.437,-2.997 4.674,-3.475 2.52,-0.974 2.978,-4.07 0.862,-5.826 -0.763,-0.633 -3.841,-1.666 -6.839,-2.295 -4.612,-0.967 -6.096,-0.886 -9.633,0.529 -7.691,3.078 -7.711,1.705 -0.048,-3.366 l 7.592,-5.025 4.408,2.52 c 5.972,3.414 9.648,3.358 10.988,-0.167 1.415,-3.722 0.393,-6.977 -2.7,-8.598 l -2.595,-1.359 3.231,-1.339 c 3.189,-1.32 3.286,-1.277 7.358,3.291 2.269,2.546 5.026,4.761 6.126,4.922 1.746,0.257 1.989,-0.251 1.91,-4.001 -0.074,-3.538 0.191,-4.187 1.5,-3.68 6.255,2.421 8.275,1.557 6.055,-2.591 -1.262,-2.357 -0.608,-2.427 2.967,-0.315 1.508,0.891 3.567,3.151 4.575,5.024 2.01,3.732 5.237,5.1 8.24,3.492 1.713,-0.916 2.257,-0.356 4.777,4.915 3.005,6.287 4.451,7.057 8.253,4.393 2.738,-1.917 2.774,-2.927 0.223,-6.17 -2.564,-3.26 -2.564,-6.901 0,-8.273 4.323,-2.313 1.643,-4.909 -7.122,-6.899 -4.77,-1.082 -7.465,-2.198 -7.652,-3.165 -0.24,-1.248 1.369,-1.484 9.778,-1.438 9.675,0.053 10.15,0.159 12.28,2.742 2.095,2.541 2.557,2.655 8.466,2.085 6.014,-0.58 6.257,-0.711 6.429,-3.464 0.47,-7.54 0.566,-7.33 -3.601,-7.861 -2.157,-0.275 -4.13,-1.131 -4.384,-1.902 -0.38,-1.154 0.958,-1.305 7.573,-0.851 5.216,0.357 8.421,0.165 9.134,-0.548 2.525,-2.525 0.205,-16.699 -2.732,-16.699 -0.429,0 -2.305,1.125 -4.169,2.5 -1.864,1.375 -3.547,2.5 -3.74,2.5 -0.193,0 -0.049,-1.608 0.32,-3.573 0.666,-3.553 0.652,-3.571 -2.629,-3.25 -2.606,0.255 -3.961,1.268 -6.449,4.823 -2.845,4.064 -10.045,10.434 -14.847,13.134 -1.541,0.867 -1.761,0.736 -1.337,-0.798 0.279,-1.01 0.784,-3.479 1.121,-5.486 0.388,-2.306 2.628,-6.174 6.082,-10.5 3.007,-3.768 5.47,-7.809 5.473,-8.981 0.004,-1.253 -1.395,-3.201 -3.395,-4.726 l -3.401,-2.594 -1.591,3.975 c -1.361,3.401 -2.026,3.976 -4.599,3.976 -2.724,0 -3.009,0.307 -3.023,3.25 -0.018,3.741 -0.766,5.131 -3.258,6.05 -0.975,0.36 -1.938,1.227 -2.14,1.927 -0.203,0.7 -1.265,4.423 -2.36,8.273 l -1.992,7 -0.722,-4.69 c -1.169,-7.593 -6.513,-10.543 -6.513,-3.595 0,1.777 -1.085,4.518 -2.546,6.434 -2.462,3.228 -2.626,3.285 -4.992,1.734 -3.217,-2.108 -5.22,-1.206 -7.049,3.172 -1.397,3.342 -3.335,4.178 -4.134,1.783 -0.19,-0.571 1.244,-3.401 3.188,-6.288 3.633,-5.4 4.174,-7.488 2.589,-9.993 -0.73,-1.154 -1.413,-1.215 -3.408,-0.306 -2.888,1.316 -4.07,0.399 -5.178,-4.016 -0.926,-3.689 -1.936,-4.131 -4.942,-2.162 -2.433,1.594 -2.528,2.045 -2.528,11.931 0,8.878 -0.276,10.595 -2.027,12.635 l -2.028,2.361 -1.722,-2.478 c -2.942,-4.232 -5.278,-6.159 -7.034,-5.802 -1.366,0.277 -1.667,1.438 -1.573,6.061 0.124,6.128 -0.171,6.523 -3.175,4.251 -3.269,-2.473 -4.289,-1.784 -7.864,5.314 -1.896,3.765 -4.645,8.269 -6.108,10.009 -2.658,3.159 -17.067,10.88 -18.197,9.75 -0.963,-0.963 1.366,-5.199 5.182,-9.423 1.95,-2.158 3.546,-4.718 3.546,-5.687 0,-2.555 -2.196,-9.495 -3.005,-9.495 -0.378,0 -3.738,2.588 -7.466,5.75 -4.88,4.14 -7.153,6.87 -8.116,9.75 -1.688,5.046 -4.667,7.5 -9.105,7.5 h -3.47 l 4.645,-8.522 c 5.39,-9.887 5.583,-12.969 0.981,-15.646 l -3.035,-1.766 -4.538,6.256 c -2.495,3.441 -5.801,8.58 -7.347,11.419 -3.028,5.564 -4.532,6.393 -8.774,4.837 -1.869,-0.686 -4.037,-0.653 -6.872,0.104 -3.676,0.981 -4.193,0.904 -4.608,-0.681 -0.263,-1.005 -1.769,-2.047 -3.443,-2.382 -2.66,-0.532 -2.942,-0.94 -2.661,-3.857 l 0.314,-3.262 6.14,0.316 c 5.683,0.293 6.409,0.08 9.75,-2.854 3.434,-3.015 4.737,-5.962 2.636,-5.962 -1.945,0 -4.223,-6.139 -3.569,-9.621 l 0.634,-3.379 h -5.581 c -3.376,0 -6.523,-0.617 -7.966,-1.563 -2.23,-1.461 -2.649,-1.396 -6.464,1.013 -4.571,2.885 -4.544,2.833 -2.859,5.532 1.033,1.654 0.707,2.957 -2.116,8.46 -3.943,7.689 -4.451,8.176 -9.756,9.368 l -4.071,0.915 1.071,-2.839 c 2.129,-5.639 -4.952,-15.103 -9.292,-12.421 -0.581,0.359 -1.057,2.834 -1.057,5.5 0,4.11 -0.266,4.784 -1.75,4.428 -2.31,-0.553 -3.644,0.472 -5.346,4.107 -1.745,3.728 -16.392,11.708 -19.837,10.807 -2.057,-0.538 -2.01,-0.664 0.916,-2.443 3.585,-2.18 4.466,-3.939 3.633,-7.256 -0.812,-3.237 -3.037,-3.877 -7.294,-2.098 -4.706,1.966 -4.999,1.915 -5.733,-1.01 -0.345,-1.375 -1.181,-2.497 -1.858,-2.494 -0.677,0.003 -4.31,2.463 -8.074,5.468 -6.435,5.136 -7.096,5.428 -11.072,4.883 -3.161,-0.434 -5.345,-0.039 -8.656,1.566 l -4.429,2.145 5.923,-5.46 c 5.593,-5.155 9.084,-7.164 16.077,-9.25 2.217,-0.661 3.081,-1.589 3.309,-3.553 0.189,-1.624 1.649,-3.68 3.75,-5.282 2.68,-2.044 3.441,-3.345 3.441,-5.883 0,-1.792 -0.595,-4.072 -1.322,-5.066 -1.23,-1.682 -1.538,-1.698 -4.374,-0.231 -3.286,1.699 -4.304,1.351 -4.304,-1.474 0,-0.989 -0.912,-2.287 -2.026,-2.883 -1.618,-0.866 -2.627,-0.657 -5.002,1.034 -3.929,2.798 -5.246,5.457 -4.464,9.016 0.353,1.606 0.338,3.874 -0.032,5.04 -0.593,1.869 -1.179,2.046 -4.924,1.484 l -4.251,-0.637 -1.694,4.437 c -0.932,2.441 -3.521,6.987 -5.752,10.102 -3.711,5.183 -4.2,5.536 -5.743,4.14 -1.023,-0.926 -2.585,-1.291 -3.973,-0.928 -1.778,0.465 -3.254,-0.352 -6.639,-3.674 -2.537,-2.49 -4.944,-4.044 -5.772,-3.726 -0.782,0.3 -2.33,2.478 -3.442,4.839 -1.95,4.145 -2.191,4.301 -6.903,4.475 -2.686,0.1 -8.258,0.469 -12.383,0.822 l -7.5,0.64 5.5,-2.775 c 6.386,-3.222 7.985,-6.739 3.567,-7.848 -1.409,-0.353 -3.126,-0.432 -3.815,-0.174 -0.688,0.258 -4.402,0.177 -8.252,-0.18 l -7,-0.649 5.5,-1.25 c 17.025,-3.868 22.198,-6.609 20.556,-10.889 -0.623,-1.623 -0.643,-1.623 -15.33,0.574 -7.069,1.057 -5.373,-0.598 3.956,-3.859 7.577,-2.649 10.489,-5.277 7.818,-7.056 -0.911,-0.607 -5.101,-0.748 -10.664,-0.359 -8.457,0.591 -9.299,0.481 -10.934,-1.428 -1.468,-1.715 -2.55,-1.976 -6.336,-1.527 -4.415,0.524 -4.244,0.377 5.168,-4.443 9.53,-4.881 9.822,-4.959 13.974,-3.733 4.07,1.201 4.352,1.14 7.016,-1.524 3.44,-3.44 3.525,-5.632 0.276,-7.112 -5.793,-2.639 0.158,-4.856 6.108,-2.275 2.141,0.928 5.741,2.27 8,2.982 l 4.108,1.294 1.626,-3.41 c 1.871,-3.923 3.846,-4.264 8.158,-1.409 3.424,2.268 6.814,2.577 8.21,0.75 0.525,-0.687 2.393,-4.846 4.152,-9.242 2.977,-7.44 3.079,-8.078 1.477,-9.25 -2.329,-1.702 -2.276,-1.71 -15.339,2.242 -11.419,3.455 -19.315,4.418 -20.5,2.5 -0.34,-0.55 -0.097,-1 0.54,-1 2.658,0 7.669,-3.238 9.31,-6.016 1.467,-2.483 2.404,-2.984 5.581,-2.984 2.1,0 5.579,-0.621 7.731,-1.381 3.847,-1.357 6.981,-1.382 34.338,-0.271 8.707,0.353 9.64,0.21 11.183,-1.719 l 1.684,-2.104 3.104,2.295 3.104,2.295 3.039,-2.557 c 1.672,-1.407 3.35,-2.558 3.731,-2.558 0.38,0 2.344,1.124 4.366,2.497 4.218,2.866 5.31,2.096 4.343,-3.062 -0.764,-4.073 0.241,-4.346 3.446,-0.935 2.833,3.016 5.55,3.21 7,0.5 1.489,-2.781 2.5,-2.512 4.724,1.257 1.917,3.249 1.941,3.257 10.599,3.443 4.772,0.104 8.677,-0.199 8.677,-0.672 0,-0.473 -1.808,-2.292 -4.017,-4.041 -2.209,-1.75 -4.513,-4.109 -5.119,-5.241 -1.083,-2.024 -0.956,-2.05 7.396,-1.46 8.001,0.564 8.627,0.463 10.689,-1.731 1.43,-1.523 2.895,-2.147 4.223,-1.8 1.118,0.293 2.369,-0.012 2.78,-0.677 0.41,-0.664 2.952,-1.771 5.647,-2.459 4.471,-1.14 4.901,-1.507 4.901,-4.184 0,-2.769 -0.255,-2.951 -4.5,-3.225 -2.475,-0.16 -5.918,-0.948 -7.651,-1.75 -4.085,-1.893 -5.174,-1.843 -9.643,0.435 -4.083,2.082 -5.437,1.45 -3.206,-1.498 2.102,-2.776 1.812,-3.989 -0.462,-1.931 -1.903,1.722 -2.027,1.666 -4.099,-1.845 -1.175,-1.992 -2.253,-3.621 -2.396,-3.621 -0.143,0 -1.865,2.417 -3.826,5.372 -3.295,4.961 -11.333,12.628 -13.241,12.628 -0.45,0 -1.607,-0.714 -2.571,-1.586 -1.659,-1.502 -1.597,-1.83 1.171,-6.196 4.643,-7.32 3.711,-9.707 -2.761,-7.071 -1.548,0.63 -4.157,1.193 -5.797,1.25 -2.658,0.092 -3.051,0.521 -3.606,3.936 -0.862,5.296 -4.277,8.299 -12.813,11.267 -6.831,2.376 -7.407,2.431 -9.133,0.869 -1.729,-1.565 -2.044,-1.511 -5.183,0.883 l -3.343,2.55 0.393,-6.951 0.393,-6.951 h -3.028 c -2.342,0 -3.939,1.035 -7.05,4.569 -3.461,3.932 -4.3,4.42 -6.019,3.5 -3.188,-1.706 -6.945,-1.281 -8.123,0.921 -0.586,1.094 -2.417,2.688 -4.069,3.542 -3.681,1.904 -15.974,5.764 -16.543,5.195 -0.227,-0.227 2.12,-2.396 5.217,-4.82 12.064,-9.444 11.642,-8.963 11.054,-12.582 -0.529,-3.261 -0.468,-3.325 3.148,-3.34 5.004,-0.021 6.604,-1.188 5.834,-4.257 -0.575,-2.29 -0.162,-3.171 4.066,-8.672 0.188,-0.244 3.367,-0.771 7.064,-1.17 3.698,-0.399 9.761,-1.258 13.473,-1.908 6.23,-1.092 6.75,-1.377 6.75,-3.697 0,-2.124 0.35,-2.418 2.25,-1.897 5.434,1.49 9.633,1.749 11.569,0.713 1.933,-1.034 1.99,-1.391 0.786,-4.857 -0.714,-2.057 -1.094,-5.425 -0.843,-7.484 l 0.455,-3.744 -4.234,1.494 c -2.329,0.822 -5.865,1.504 -7.859,1.515 -2.573,0.016 -5.629,1.321 -10.538,4.5 -3.802,2.464 -8.077,4.477 -9.5,4.474 l -2.586,-0.006 2.888,-1.754 c 1.589,-0.965 4.514,-4.175 6.5,-7.133 2.817,-4.195 4.597,-5.739 8.087,-7.01 3.239,-1.18 5.273,-2.819 7.366,-5.936 l 2.891,-4.305 7.634,0.807 c 4.199,0.444 10.346,0.685 13.66,0.535 5.263,-0.237 6.87,0.177 12.694,3.268 10.392,5.515 13.694,4.125 8.487,-3.571 -4.034,-5.963 -4.022,-5.815 -0.433,-5.233 2.328,0.378 3.715,0.061 4.645,-1.059 1.768,-2.131 3.394,-2.014 5.581,0.402 2.304,2.546 3.2,2.521 4.035,-0.111 0.579,-1.825 1.195,-2.028 4.524,-1.496 3.879,0.621 4.495,0.308 7.235,-3.675 1.052,-1.529 1.687,-1.62 4.487,-0.645 2.345,0.818 3.627,0.833 4.565,0.055 1.004,-0.834 1.691,-0.274 2.978,2.425 0.92,1.93 2.461,3.753 3.425,4.051 0.963,0.298 2.532,0.959 3.487,1.469 0.955,0.51 3.348,0.927 5.318,0.927 3.248,0 3.518,-0.209 2.901,-2.25 -0.374,-1.238 -1.838,-3.488 -3.254,-5 l -2.575,-2.75 h 2.667 c 2.117,0 3.099,-0.849 4.768,-4.12 l 2.102,-4.12 5.919,0.67 5.918,0.669 v -3.977 -3.978 l 5.443,-0.68 c 6.804,-0.85 8.848,-2.95 9.537,-9.797 l 0.52,-5.167 8.259,-0.291 8.259,-0.29 -0.656,-2.71 c -1.797,-7.432 -2.624,-8.234 -5.921,-5.741 -2.244,1.698 -6.041,1.989 -6.941,0.532 -1.583,-2.562 -5.192,-0.714 -11.164,5.715 -3.431,3.694 -6.528,6.426 -6.882,6.072 -1.475,-1.474 1.036,-7.346 4.658,-10.897 4.382,-4.295 4.743,-5.484 1.939,-6.374 -2.758,-0.875 -3.414,-3.912 -1.603,-7.416 2.02,-3.905 1.957,-5.423 -0.308,-7.473 -1.763,-1.596 -1.989,-1.513 -4.344,1.595 -3.95,5.212 -4.891,7.541 -4.66,11.537 0.284,4.94 -1.641,8.533 -4.146,7.738 -1.204,-0.382 -2.673,0.186 -4.056,1.569 -1.768,1.768 -2.076,2.978 -1.672,6.567 0.586,5.199 -0.127,5.867 -6.262,5.867 h -4.5 l -0.5,5 -0.5,5 -4.857,0.309 -4.857,0.309 3.149,-5.505 c 2.881,-5.035 5.369,-11.969 6.731,-18.764 0.422,-2.101 0.079,-2.795 -1.652,-3.344 -1.81,-0.575 -2.055,-1.148 -1.433,-3.349 1.823,-6.445 -0.36,-10.562 -6.22,-11.734 l -3.131,-0.626 0.13,11.852 c 0.098,9.003 -0.269,12.814 -1.531,15.852 -0.913,2.2 -2.769,6.913 -4.123,10.472 -3.241,8.515 -4.918,9.529 -8.741,5.286 -2.453,-2.721 -2.769,-3.644 -1.968,-5.75 0.56,-1.472 0.595,-3.437 0.084,-4.758 -0.997,-2.582 -5.809,-7.356 -6.608,-6.556 -0.294,0.294 -0.819,2.935 -1.167,5.868 -0.602,5.085 -0.699,5.231 -2.091,3.136 -2.215,-3.337 -3.96,-2.665 -4.717,1.815 -0.415,2.453 -1.809,5.144 -3.588,6.923 -1.642,1.643 -2.91,3.986 -2.91,5.38 0,2.761 -2.883,4.473 -4.155,2.468 -0.448,-0.706 -0.821,-2.746 -0.83,-4.534 -0.008,-1.788 -0.494,-3.25 -1.079,-3.25 -0.585,0 -3.274,2.363 -5.975,5.25 -5.695,6.089 -6.508,5.726 -7.549,-3.378 -0.845,-7.396 -1.596,-8.565 -4.617,-7.188 -4.517,2.058 -8.924,6.628 -11.764,12.199 -1.575,3.09 -5.204,7.867 -8.065,10.617 l -5.201,5 0.703,-3.965 c 0.934,-5.267 2.839,-8.775 7.049,-12.986 4.178,-4.177 4.269,-4.87 0.849,-6.428 l -2.635,-1.2 6.354,-4.711 6.354,-4.71 -3.219,-0.313 c -4.036,-0.393 -4.11,-1.576 -0.199,-3.196 2.722,-1.127 2.96,-1.577 2.404,-4.539 -0.339,-1.809 -0.686,-5.606 -0.771,-8.438 -0.163,-5.447 -0.656,-5.742 -5.904,-3.536 -1.534,0.645 -1.75,0.106 -1.75,-4.371 0,-5.261 -0.387,-5.648 -4.537,-4.532 -1.335,0.358 -2.647,2.265 -3.809,5.537 -1.967,5.537 -6.109,8.878 -11.015,8.884 l -2.861,0.004 2.141,1.75 c 1.33,1.088 2.474,3.643 3.023,6.75 0.487,2.75 1.392,7.869 2.013,11.375 0.621,3.506 0.954,6.549 0.741,6.763 -0.214,0.213 -2.317,-2.362 -4.674,-5.722 -4.623,-6.591 -4.417,-6.6 -8.102,0.376 l -2.003,3.792 4.541,5.316 c 4.506,5.274 5.507,7.886 3.497,9.128 -0.669,0.414 -0.842,3.76 -0.48,9.309 0.379,5.814 0.255,7.964 -0.377,6.537 -1.127,-2.545 -6.254,-6.374 -8.534,-6.374 -2.68,0 -2.975,2.924 -0.702,6.968 2.914,5.184 2.69,7.714 -0.984,11.146 -2.577,2.407 -3.018,3.437 -2.525,5.901 0.616,3.081 -0.39,3.929 -2.058,1.735 -0.523,-0.687 -1.74,-3.387 -2.706,-6 -1.535,-4.156 -3.589,-6.382 -3.589,-3.89 0,0.474 -1.165,2.577 -2.588,4.675 -2.807,4.136 -2.901,8.041 -0.343,14.175 1.89,4.531 -0.554,9.476 -6.074,12.293 -4.781,2.438 -7.685,6.745 -8.582,12.727 -0.779,5.198 -2.078,6.282 -3.39,2.83 -1.88,-4.943 -4.723,-2.049 -7.5,7.637 -1.199,4.178 -2.019,5.55 -3.079,5.143 -1.788,-0.686 -1.795,-1.343 -0.06,-6.07 0.761,-2.073 1.895,-5.653 2.521,-7.955 0.628,-2.313 4.226,-8.333 8.044,-13.459 9.99,-13.414 10.3,-18.544 1.278,-21.201 -5.498,-1.62 -5.583,-1.512 -6.722,8.595 -0.357,3.163 -0.989,5.75 -1.405,5.75 -0.415,0 -3.524,-1.125 -6.908,-2.5 -3.384,-1.375 -6.559,-2.5 -7.055,-2.5 -2.081,0 -1.72,4.24 0.922,10.814 4.326,10.767 4.612,13.513 1.65,15.843 -1.353,1.064 -2.818,3.49 -3.255,5.389 -0.73,3.171 -0.904,2.774 -2.116,-4.829 -1.543,-9.678 -3.569,-14.217 -6.345,-14.217 -2.418,0 -3.273,3.021 -3.376,11.93 -0.103,8.825 1.692,18.683 4.319,23.723 1.385,2.657 1.935,5.013 1.538,6.593 l -0.616,2.458 -2.852,-2.852 c -1.569,-1.569 -3.325,-2.852 -3.903,-2.852 -1.651,0 -4.274,5.887 -3.587,8.05 0.836,2.635 -0.323,5.95 -2.081,5.95 -0.786,0 -3.227,-1.624 -5.425,-3.61 -2.197,-1.985 -4.599,-3.378 -5.338,-3.095 -0.746,0.287 -2.132,4.218 -3.124,8.86 -2.098,9.827 -1.865,9.344 -7.346,15.263 -4.648,5.019 -7.155,5.326 -4.698,0.575 2.018,-3.903 1.883,-7.294 -0.404,-10.118 -1.867,-2.305 -1.867,-2.412 0,-6.071 2.213,-4.337 2.363,-6.881 0.683,-11.528 -1.702,-4.707 -5.49,-4.262 -8.283,0.971 -1.1,2.061 -2.298,3.749 -2.662,3.75 -0.364,0.002 -0.971,-1.825 -1.349,-4.059 -0.817,-4.841 0.927,-7.371 5.746,-8.335 4.466,-0.893 6.765,-3.348 6.765,-7.223 0,-4.333 -2.255,-5.492 -9.107,-4.681 l -5.359,0.635 1.586,-2.417 c 0.997,-1.519 4.057,-3.297 8.233,-4.785 5.599,-1.995 6.647,-2.733 6.647,-4.683 0,-2.839 -2.779,-3.893 -7.837,-2.972 l -3.663,0.666 3.431,-2.561 c 1.887,-1.409 4.221,-2.813 5.188,-3.12 0.967,-0.307 2.285,-2.157 2.931,-4.113 0.983,-2.979 0.918,-3.81 -0.402,-5.129 -2.02,-2.021 -4.215,-1.061 -11.898,5.202 l -5.75,4.688 v -3.909 c 0,-4.64 2.68,-7.977 8.994,-11.198 4.056,-2.069 4.225,-2.336 3.744,-5.919 -0.277,-2.064 -0.16,-4.389 0.258,-5.168 0.419,-0.779 1.072,-2.428 1.45,-3.666 0.645,-2.105 0.395,-2.25 -3.879,-2.25 -5.628,0 -5.912,-1.517 -0.583,-3.113 2.191,-0.657 4.767,-2.059 5.724,-3.117 1.617,-1.786 1.626,-2.124 0.123,-4.743 l -1.619,-2.819 3.786,-1.707 c 2.431,-1.097 4.848,-1.474 6.753,-1.056 3.033,0.666 11.249,-1.88 11.249,-3.487 0,-0.97 -7.532,-7.192 -10.684,-8.826 -1.202,-0.623 -4.441,-1.132 -7.198,-1.132 h -5.014 l 1.033,-2.962 c 0.904,-2.595 3.676,-4.935 11.298,-9.538 1.422,-0.859 1.487,-1.48 0.459,-4.403 -1.693,-4.817 0.634,-6.473 7.86,-5.592 4.254,0.518 5.368,0.341 5.857,-0.933 0.377,-0.984 1.821,-1.572 3.861,-1.572 3.406,0 8.528,-3.242 8.528,-5.398 0,-2.047 -4.445,-5.602 -7.004,-5.602 -1.307,0 -4.978,0.537 -8.158,1.194 -3.18,0.657 -6.061,0.916 -6.402,0.575 -1.11,-1.11 1.062,-3.727 6.463,-7.786 4.686,-3.521 5.941,-3.983 10.811,-3.983 h 5.509 l -0.399,-3.418 c -0.392,-3.354 -0.317,-3.43 3.994,-4.077 3.695,-0.554 4.766,-0.309 6.734,1.54 1.903,1.788 3.021,2.071 5.985,1.515 6.945,-1.303 8.007,-2.27 9.283,-8.447 1.945,-9.419 2.256,-9.084 -6.307,-6.799 -5.076,1.355 -8.126,1.707 -9.46,1.093 -1.837,-0.846 -1.671,-1.264 2.49,-6.255 2.452,-2.941 4.207,-5.753 3.901,-6.25 -0.768,-1.242 -9.829,-1.138 -12.643,0.145 -1.392,0.635 -3.675,3.884 -5.797,8.25 -2.97,6.113 -3.923,7.252 -6.295,7.524 -1.931,0.221 -3.731,1.613 -5.822,4.5 -2.99,4.127 -5.598,6.297 -6.493,5.402 -0.817,-0.817 14.563,-27.146 17.248,-29.527 1.959,-1.736 3.3,-2.149 5.452,-1.676 2.231,0.49 3.406,0.074 5.382,-1.901 3.934,-3.934 3.252,-5.126 -4.066,-7.107 l -6.594,-1.785 2.921,-2.921 c 2.616,-2.616 3.192,-2.797 5.52,-1.737 3.421,1.559 7.003,0.572 8.247,-2.273 0.55,-1.258 2.18,-2.849 3.622,-3.535 3.306,-1.573 5.242,-3.863 4.407,-5.215 -0.354,-0.572 -2.443,-1.328 -4.641,-1.68 -3.166,-0.506 -3.858,-0.974 -3.329,-2.253 2.418,-5.839 0.501,-6.974 -8.017,-4.75 l -5.582,1.458 2.77,-3.303 c 3.251,-3.875 6.237,-5.739 9.453,-5.901 1.765,-0.089 2.394,-0.791 2.641,-2.946 0.252,-2.199 0.697,-2.675 2,-2.139 0.922,0.379 3.544,0.918 5.827,1.197 5.092,0.624 6.665,-1.394 5.414,-6.943 -1.059,-4.694 -0.095,-6.015 4.579,-6.281 2.121,-0.12 5.538,-0.566 7.593,-0.99 3.169,-0.655 4.252,-0.379 7.13,1.816 l 3.393,2.588 3.87,-3.36 3.87,-3.361 -2.5,-2.694 c -3.783,-4.076 -7.695,-5.73 -12.63,-5.337 -4.334,0.345 -4.355,0.33 -2.124,-1.387 1.619,-1.246 4.156,-1.742 9.004,-1.758 6.465,-0.021 6.75,-0.124 6.75,-2.439 0,-1.453 -1.096,-3.266 -2.75,-4.547 l -2.75,-2.13 3.5,0.713 c 6.206,1.266 7.477,1.043 7.82,-1.369 0.175,-1.238 0.745,-2.25 1.265,-2.25 0.52,0 4.039,2.25 7.82,5 9.893,7.195 12.639,6.472 11.369,-2.996 l -0.537,-4.004 h 3.663 c 2.476,0 3.867,-0.533 4.294,-1.645 1.049,-2.733 -2.559,-4.464 -8.833,-4.238 -4.461,0.161 -6.21,-0.246 -8.375,-1.95 l -2.737,-2.152003 4.375,-1.986 c 5.125,-2.325 11.347,-2.546 14.876,-0.529 2.949,1.686 6.623,1.919 7.514,0.478 0.347,-0.562 -1.469,-3.359 -4.036,-6.214 l -4.668,-5.192 2.206,-1.786 c 2.833,-2.294 4.715,-2.247 8.758,0.218 6.352,3.872 9.29,1.889 5.097,-3.44 -3.27,-4.158 -1.248,-5.363 5.454,-3.251 8.984,2.832 13.032,1.766 16.145,-4.256 1.433,-2.77 1.404,-2.832 -1.63,-3.439 -1.7,-0.34 -4.834,-0.618 -6.965,-0.618 -4.571,0 -5.014,-1.132 -1.03,-2.635 2.27,-0.857 3.089,-2.045 4.054,-5.879 1.01,-4.01 0.972,-5.043 -0.228,-6.243 -1.697,-1.697 -4.455,-0.599 -8.899,3.545 l -2.728,2.544 0.602,-6.441 c 0.462,-4.95 0.267,-6.718 -0.841,-7.638 -2.446,-2.03 -5.297,0.959 -6.769,7.098 -2.188,9.121 -4.224,10.126 -5.416,2.671 -0.354,-2.212 -0.923,-4.022 -1.264,-4.022 -0.488,0 -6.603,3.429 -8.194,4.595 -0.186,0.136 0.822,2.228 2.24,4.648 2.812,4.798 2.546,5.836 -2.33,9.079 -2.276,1.514 -2.514,1.492 -3.806,-0.353 -2.118,-3.024 -2.975,-2.393 -3.748,2.76 -0.656,4.375 -0.812,4.581 -2.08,2.75 -2.46,-3.554 -3.494,-4.479 -5.005,-4.479 -1.229,0 -1.376,1.101 -0.841,6.319 0.845,8.25 -1.039,12.405 -5.835,12.867 -2.79,0.269 -3.305,0.744 -3.595,3.314 -0.444,3.93 -1.843,5.5 -4.901,5.5 -2.136,0 -2.389,-0.323 -1.764,-2.25 0.401,-1.238 0.948,-3.9 1.214,-5.917 0.276,-2.099 1.511,-4.632 2.886,-5.924 3.073,-2.887 3.029,-4.269 -0.204,-6.387 -2.492,-1.633 -2.577,-1.983 -1.931,-8.013 0.732,-6.838 -0.054,-8.333 -3.431,-6.526 -3.182,1.704 -5.031,6.404 -5.031,12.794 v 5.877 l -3,-0.441 c -3.435,-0.504 -3.556,-0.04 -1.5,5.787 1.989,5.636 1.926,6 -1.031,6 -1.429,0 -2.807,0.718 -3.164,1.647 -0.574,1.497 -0.259,2.729 2.246,8.777003 0.819,1.979 0.818,1.979 -4.157,-0.072 -0.625,-0.257 -1.668,1.556 -2.401,4.173 l -1.296,4.628 -2.098,-2.609 -2.099,-2.61 -3.5,2.858 c -1.925,1.572 -4.288,3.148 -5.25,3.502 -1.271,0.467 -1.75,1.747 -1.75,4.675 0,2.217 -0.45,4.031 -1,4.031 -2.009,0 -5,4.074 -5,6.809 0,1.545 -0.626,3.664 -1.39,4.71 -1.14,1.559 -1.817,1.711 -3.75,0.843 -3.429,-1.538 -4.688,-0.713 -5.927,3.887 -0.816,3.03 -1.337,3.725 -2.002,2.673 -1.644,-2.598 -0.966,-6.663 2.439,-14.619 5.615,-13.119 7.249,-15.606 13.563,-20.649 7.158,-5.718003 7.738,-8.295003 3.077,-13.692003 -2.933,-3.395 -3.021,-3.423 -4.541,-1.462 -3.39,4.375 -5.503,6.5 -6.462,6.5 -1.815,0 -1.072,-1.65 3.743,-8.317 2.612,-3.617 5.517,-7.95 6.453,-9.63 1.306,-2.34 2.4,-3.053 4.685,-3.053 4.011,0 8.029,-1.621 8.764,-3.536 0.337,-0.877 -0.278,-2.533 -1.398,-3.765 -2.441,-2.685 -1.974,-4.275 1.836,-6.246 2.024,-1.046 2.91,-2.258 2.91,-3.979 0,-2.167 -0.44,-2.474 -3.55,-2.474 -4.673,0 -9.069,2.362 -10.867,5.84 -1.437,2.779 -4.583,6.028 -4.583,4.733 0,-3.934 18.754,-22.924 26.5,-26.833 5.826,-2.941 7.787,-4.961 9.358,-9.639 2.15,-6.4 1.542,-8.808 -2.977,-11.799 l -4.12,-2.726 -1.88,2.323 c -1.035,1.277 -1.881,3.003 -1.881,3.835 0,2.287 -6.297,13.266 -7.608,13.266 -0.631,0 -1.691,-0.656 -2.356,-1.457 -0.958,-1.154 -0.88,-1.928 0.377,-3.723 0.902,-1.288 1.587,-4.291 1.587,-6.961 0,-6.695 -0.599,-7.788 -3.817,-6.959 -3.534,0.911 -5.798,5.636 -7.238,15.1 -0.706,4.646 -2.301,9.694 -4.191,13.268 -1.679,3.172 -3.192,5.628 -3.362,5.457 -0.171,-0.171 0.571,-3.144 1.648,-6.607 2.329,-7.483 2.451,-11.007 0.539,-15.584 -1.26,-3.016 -5.792,-6.534 -8.416,-6.534 -1.643,0 -1.861,5.81 -0.473,12.564 0.914,4.44 1.029,7.093 0.359,8.242 -0.859,1.472 -0.992,1.396 -1.019,-0.586 -0.016,-1.254 -1.143,-4.924 -2.503,-8.156 -1.36,-3.232 -2.768,-7.718 -3.128,-9.97 -0.496,-3.101 -1.109,-4.094 -2.527,-4.094 -1.558,0 -1.872,0.771 -1.872,4.596 0,2.527 -0.726,5.825 -1.614,7.328 -1.55,2.624 -1.471,3.06 2.012,10.98 3.604,8.198 3.8,10.096 1.043,10.096 -2.258,0 -1.744,1.358 2.559,6.763 2.2,2.763 4,5.938 4,7.055 0,1.117 -1.913,3.851 -4.25,6.075 -3.89,3.702 -4.25,4.466 -4.25,9.026 0,2.739 -0.562,5.543 -1.25,6.231 -1.632,1.632 -1.533,4.731 0.25,7.85 0.786,1.375 1.445,4.676 1.465,7.336003 0.04,5.55 -2.924,17.664 -4.322,17.664 -0.558,0 -0.704,-3.622 -0.36,-8.935 0.457,-7.061 0.279,-9.184 -0.852,-10.122 -0.918,-0.762 -1.431,-3.123003 -1.431,-6.584003 0,-5.256 -0.065,-5.381 -2.497,-4.771 -2.647,0.665 -2.652,0.634 -1.073,-7.686 0.167,-0.879 -0.272,-2.672 -0.974,-3.984 l -1.277,-2.387 -3.617,3.834 -3.616,3.835 0.523,-10.263 c 0.288,-5.645 0.638,-10.345 0.777,-10.446 0.14,-0.1 1.912,-1.286 3.938,-2.634 3.995,-2.659 3.87,-4.169 -0.434,-5.222 -2.398,-0.587 -2.75,-1.158 -2.75,-4.463 0,-2.084 0.661,-4.663 1.468,-5.731 0.808,-1.067 1.483,-3.01 1.5,-4.316 0.028,-2.11 -0.303,-2.308 -2.968,-1.775 -4.047,0.809 -3.87,-0.563 1.002,-7.735 4.661,-6.861 4.966,-8.615 1.498,-8.615 -1.375,0 -2.5,-0.396 -2.5,-0.881 0,-0.484 1.125,-3.87 2.5,-7.523 3.099,-8.2319995 3.109,-9.4139995 0.097,-10.5589995 -1.321,-0.503 -2.698,-1.391 -3.059,-1.975 -1.232,-1.99400002 -5.439,-1.14300002 -7.133,1.442 M 126.82946,414.59569 c -1.321,1.405 -1.727,2.296 -0.903,1.98 1.302,-0.499 4.539,-4.536 3.638,-4.536 -0.184,0 -1.415,1.15 -2.735,2.556 m 320.302,8.559 c -3.39,2.171 -3.967,3.324 -2.207,4.412 1.333,0.823 8.187,-4.345 7.417,-5.592 -0.823,-1.331 -1.545,-1.167 -5.21,1.18 m 16.766,310.587 c 0.047,2.262 4.903,8.969 7.341,10.139 3.419,1.64 4.318,0.937 2.869,-2.245 -1.081,-2.371 -10.242,-9.455 -10.21,-7.894"
     stroke="none"
     fill="#000000"
     fill-rule="evenodd"
     id="path2" />
</svg>
