<?xml version="1.0" standalone="no"?>
<!DOCTYPE svg PUBLIC "-//W3C//DTD SVG 20010904//EN"
 "http://www.w3.org/TR/2001/REC-SVG-20010904/DTD/svg10.dtd">
<svg version="1.0" xmlns="http://www.w3.org/2000/svg"
 width="696.000000pt" height="872.000000pt" viewBox="0 0 696.000000 872.000000"
 preserveAspectRatio="xMidYMid meet">
<metadata>
Created by potrace 1.16, written by Peter Selinger 2001-2019
</metadata>
<g transform="translate(0.000000,872.000000) scale(0.100000,-0.100000)"
fill="#000000" stroke="none">
<path d="M2219 8659 c-83 -9 -113 -24 -186 -96 -32 -32 -85 -83 -118 -114 -33
-31 -67 -65 -76 -75 -30 -35 -188 -144 -217 -150 -26 -5 -30 -3 -35 24 -3 17
-27 53 -52 82 -59 66 -125 197 -125 248 0 51 -14 62 -82 62 -78 0 -98 -19 -98
-96 0 -44 12 -87 59 -207 33 -84 73 -197 90 -253 27 -85 38 -106 73 -140 46
-44 149 -197 198 -294 18 -36 50 -110 70 -165 21 -55 57 -142 79 -194 23 -51
47 -116 52 -143 l11 -50 -79 -77 c-109 -108 -118 -109 -288 -37 -33 14 -74 26
-92 26 -23 0 -42 10 -67 34 -19 19 -74 56 -123 81 -212 111 -283 178 -283 269
0 40 -34 173 -85 336 -45 144 -109 512 -125 720 -14 175 -21 190 -90 190 -70
0 -101 -11 -122 -44 -18 -28 -19 -43 -14 -161 3 -71 10 -155 16 -185 5 -30 16
-113 25 -185 9 -78 29 -179 50 -252 19 -67 35 -129 35 -138 0 -23 -15 -17
-233 91 -104 52 -197 94 -207 94 -32 0 -67 -21 -81 -47 -16 -30 -16 -91 0
-121 19 -36 85 -78 186 -118 54 -21 114 -54 142 -76 60 -50 111 -76 188 -97
59 -16 60 -17 92 -80 18 -36 45 -78 61 -95 15 -17 41 -48 56 -69 15 -20 51
-55 79 -76 29 -21 88 -71 132 -111 123 -111 280 -183 426 -195 81 -7 90 -10
155 -54 91 -62 106 -92 138 -271 14 -80 42 -201 62 -270 24 -83 37 -155 41
-215 3 -49 14 -116 24 -148 17 -51 18 -69 9 -162 -16 -172 -20 -183 -117 -330
-40 -60 -85 -129 -100 -152 -15 -23 -88 -128 -162 -234 -74 -105 -152 -226
-173 -268 -22 -42 -41 -77 -43 -79 -2 -2 -39 30 -83 70 -44 40 -91 81 -104 90
-14 9 -44 50 -68 90 -28 48 -75 105 -137 165 -88 85 -102 95 -202 137 -59 25
-132 51 -162 58 -67 14 -75 20 -98 73 -12 28 -65 89 -145 169 -105 106 -131
126 -156 126 l-30 0 0 -106 0 -107 118 -126 c65 -69 129 -142 142 -161 31 -44
48 -57 85 -66 17 -4 68 -24 115 -46 46 -21 107 -45 135 -54 45 -13 57 -22 99
-80 27 -36 73 -84 103 -106 45 -34 251 -261 277 -306 9 -15 -62 -151 -105
-199 -16 -19 -29 -42 -29 -51 0 -10 -13 -33 -30 -52 -16 -19 -29 -44 -30 -55
0 -11 -9 -26 -20 -33 -11 -7 -20 -23 -20 -35 0 -13 -6 -31 -13 -41 -12 -17
-22 -9 -118 93 -63 67 -116 115 -134 121 -44 14 -208 41 -305 50 -68 7 -103 5
-179 -11 -52 -11 -103 -27 -113 -36 -22 -20 -23 -54 -2 -94 27 -52 60 -59 293
-59 l211 0 6 -27 c12 -48 43 -101 63 -108 10 -3 79 -69 152 -146 73 -78 149
-149 171 -160 56 -29 88 -102 88 -204 0 -49 6 -91 19 -122 13 -35 20 -88 24
-191 5 -97 11 -152 22 -172 8 -16 15 -44 15 -61 0 -39 36 -174 56 -209 8 -14
26 -58 39 -99 l25 -75 -27 -39 c-51 -74 -208 -180 -282 -191 -24 -4 -103 -34
-175 -67 -72 -33 -152 -67 -177 -75 -81 -25 -290 -197 -327 -270 -17 -33 -33
-49 -60 -60 -20 -8 -46 -19 -57 -24 -11 -5 -29 -10 -40 -12 -18 -3 -20 -11
-19 -79 2 -140 50 -178 118 -95 44 55 177 149 248 177 57 22 247 129 338 189
30 21 71 42 90 49 50 16 157 93 183 131 18 27 43 41 134 77 93 36 116 41 136
32 33 -15 121 -185 145 -282 11 -43 27 -86 35 -95 8 -9 35 -57 58 -107 l44
-90 0 -220 c-1 -155 -5 -234 -15 -267 -13 -45 -12 -50 13 -99 26 -49 27 -56
27 -219 0 -94 -5 -181 -11 -196 -5 -16 -30 -49 -55 -76 -24 -26 -44 -52 -44
-59 0 -6 -12 -25 -26 -43 -100 -122 -124 -158 -124 -191 0 -41 20 -55 77 -55
77 0 119 33 235 186 l106 142 7 88 c10 111 1 249 -20 339 -24 100 -17 198 20
261 24 43 28 66 37 179 10 129 25 180 54 192 8 3 47 -11 87 -31 40 -20 105
-43 146 -50 65 -12 79 -19 118 -58 l44 -43 -43 -38 c-24 -22 -72 -62 -107 -90
-97 -77 -99 -87 -56 -265 30 -126 45 -167 107 -290 43 -84 80 -144 90 -148 25
-7 82 12 103 36 12 13 16 29 12 52 -9 53 -72 231 -105 294 -42 83 -72 149 -72
160 0 9 68 77 193 194 44 42 48 43 64 27 9 -9 24 -36 33 -59 27 -75 93 -75
331 0 152 48 314 72 336 49 21 -21 6 -84 -61 -254 -30 -76 -66 -181 -80 -233
-14 -52 -30 -110 -35 -129 -6 -19 -13 -68 -16 -110 -12 -162 -11 -158 -56
-165 -53 -8 -90 -28 -140 -73 -44 -39 -69 -81 -69 -111 0 -14 9 -22 33 -26 17
-3 51 -21 74 -40 50 -39 97 -61 117 -53 8 3 24 24 35 46 24 46 69 81 104 81
28 0 79 -17 87 -29 16 -23 125 -102 172 -124 52 -25 64 -26 229 -28 221 -1
318 18 444 91 46 27 92 50 102 52 10 2 28 24 40 50 15 32 40 60 78 88 31 23
80 75 111 116 47 64 61 75 98 85 54 13 72 30 182 158 48 56 113 123 143 148
30 25 72 64 92 86 67 77 199 251 199 263 0 7 4 14 9 16 4 1 20 22 35 45 21 34
43 51 106 83 44 22 86 40 94 40 19 0 225 -103 259 -130 15 -12 34 -34 41 -49
43 -82 77 -440 58 -610 -18 -164 -17 -179 23 -241 19 -30 37 -70 40 -90 4 -19
10 -42 14 -50 19 -35 161 -33 206 2 36 28 44 76 43 253 0 157 -1 161 -35 248
-23 61 -31 93 -24 100 7 7 34 6 83 -1 40 -6 107 -14 148 -17 177 -14 265 -28
328 -52 49 -19 93 -27 163 -31 113 -5 157 6 195 51 23 27 26 38 22 88 -2 31
-12 69 -22 83 -17 26 -20 27 -79 21 -60 -7 -66 -5 -150 38 -101 52 -122 58
-240 64 -81 4 -96 2 -175 -27 -82 -31 -94 -32 -217 -31 -99 1 -133 5 -144 16
-11 11 -15 43 -17 117 -2 106 -25 220 -46 227 -7 2 -22 15 -35 27 -13 13 -28
24 -33 24 -19 0 -90 72 -90 91 0 18 100 158 217 302 35 43 79 110 99 150 20
40 54 95 75 124 21 28 46 71 55 95 10 24 23 52 31 63 7 11 13 34 13 51 0 49
39 267 50 278 22 22 270 -12 332 -45 13 -7 62 -48 110 -92 109 -100 135 -117
175 -117 86 0 115 128 67 290 -21 70 -72 124 -158 165 -95 45 -185 62 -262 47
-52 -10 -130 -4 -241 18 -2 0 -3 21 -3 48 0 27 -7 57 -15 70 -14 19 -14 25 2
54 15 28 18 59 19 199 1 164 1 167 29 215 16 27 56 76 89 110 58 59 66 63 166
94 58 17 127 38 155 46 32 11 66 14 96 10 93 -13 130 33 137 171 l4 81 -63 -5
c-35 -3 -75 -11 -89 -18 -44 -22 -462 -107 -483 -99 -21 8 -118 172 -167 283
-67 148 -90 245 -90 372 0 99 1 105 36 167 51 93 81 129 133 160 40 24 57 27
131 27 83 0 88 -1 218 -63 74 -34 152 -75 175 -91 75 -51 126 -72 165 -69 l37
3 0 70 c0 84 -15 125 -56 149 -17 10 -81 59 -142 110 -62 51 -131 105 -154
120 -24 14 -43 32 -43 40 0 7 13 30 29 50 38 48 43 63 90 287 24 113 52 216
71 260 29 68 32 85 37 215 5 121 3 146 -12 178 -23 48 -60 66 -132 65 -85 -1
-105 -10 -130 -54 -29 -51 -29 -107 -2 -233 30 -136 22 -201 -42 -362 -57
-140 -96 -201 -158 -244 -35 -25 -44 -27 -52 -15 -8 13 -20 66 -50 219 -6 30
-17 66 -24 80 -13 27 -7 224 15 515 15 196 15 282 2 340 -6 28 -15 97 -20 155
-10 121 0 164 68 301 51 100 89 143 148 165 26 10 53 22 59 27 21 15 120 209
137 266 20 68 20 143 2 196 -8 22 -22 65 -30 95 -20 74 -68 143 -130 190 -64
48 -280 158 -411 209 l-100 40 -195 -1 c-301 -1 -381 2 -401 12 -31 17 -53
112 -45 199 10 103 31 201 61 275 29 73 31 99 9 117 -22 18 -140 14 -170 -6
-31 -20 -57 -73 -78 -159 -15 -60 -15 -83 -5 -186 17 -176 -8 -281 -78 -327
-30 -20 -69 -21 -448 -11 -254 7 -442 22 -598 50 -59 10 -68 14 -74 36 -8 35
97 237 157 300 62 65 210 261 210 278 0 23 -36 34 -116 34 -75 0 -77 -1 -111
-36 -67 -72 -215 -291 -227 -336 -6 -28 -61 -101 -145 -194 -25 -27 -54 -66
-63 -85 -123 -254 -151 -371 -152 -639 l-1 -175 -135 0 c-97 -1 -153 -6 -199
-18 -35 -10 -72 -17 -84 -15 -13 2 -46 40 -91 107 l-72 104 -72 17 c-54 13
-98 16 -164 12 l-92 -5 -105 -71 c-58 -39 -128 -95 -156 -124 -52 -55 -109
-92 -144 -92 -31 0 -44 37 -96 265 -26 116 -58 249 -71 297 -23 83 -79 208
-123 273 -12 17 -21 38 -21 47 0 23 47 57 154 113 89 46 243 165 303 235 17
20 63 83 101 140 l70 103 -15 36 c-26 64 -48 72 -154 60z m3523 -820 c82 -32
171 -80 215 -115 23 -19 70 -47 105 -63 35 -15 70 -36 78 -46 8 -10 61 -56
117 -102 63 -52 103 -92 103 -103 0 -32 -153 -150 -196 -150 -37 0 -124 -104
-163 -196 -19 -43 -52 -116 -73 -161 -56 -120 -65 -178 -71 -438 -5 -219 -4
-234 19 -330 21 -86 23 -107 14 -155 -24 -124 -34 -151 -61 -171 -27 -19 -130
-65 -224 -100 -61 -22 -148 -25 -168 -5 -15 15 -22 94 -33 366 -5 131 -12 181
-44 320 -21 91 -42 185 -45 209 -10 59 -50 101 -97 101 -81 0 -109 -104 -103
-375 4 -196 12 -254 49 -348 21 -55 38 -123 53 -223 7 -47 -35 -91 -95 -100
-26 -4 -58 -15 -71 -25 -13 -11 -33 -19 -45 -19 -31 0 -376 -100 -418 -121
-44 -23 -66 -23 -92 -4 -11 8 -40 15 -65 15 -55 0 -96 23 -163 90 -41 42 -48
54 -48 88 0 35 9 50 63 114 177 210 216 264 237 329 11 35 23 96 26 134 4 46
12 74 22 82 17 14 36 120 35 198 -1 64 -18 172 -32 208 -14 35 -51 288 -51
349 l0 46 48 15 c26 9 144 49 262 91 196 68 218 78 250 114 48 53 117 176 157
281 19 47 38 96 43 109 8 19 17 22 62 22 55 0 205 44 223 65 32 39 86 40 177
4z m-1884 -95 c48 -23 73 -28 191 -34 75 -4 180 -14 234 -21 81 -11 103 -11
130 0 46 20 166 29 371 30 195 1 216 -4 216 -55 0 -35 -34 -52 -161 -80 -182
-40 -351 -131 -465 -250 l-61 -64 -154 0 c-85 0 -220 5 -301 12 -115 9 -160 9
-213 -1 -80 -14 -87 -10 -95 57 -6 48 45 306 66 334 6 7 28 35 49 62 l39 48
50 -6 c27 -3 74 -18 104 -32z m-1168 -660 c152 -72 178 -77 407 -83 137 -4
216 -10 223 -17 9 -9 3 -21 -20 -47 -17 -20 -42 -64 -56 -99 -14 -35 -52 -115
-85 -178 -50 -100 -69 -126 -142 -196 -87 -86 -112 -127 -122 -206 -9 -68 -44
-104 -145 -151 -107 -49 -125 -65 -165 -152 -49 -108 -112 -151 -255 -175 -41
-7 -115 -23 -165 -36 -104 -27 -130 -19 -78 24 18 15 37 41 43 57 17 44 3 137
-34 235 -19 47 -39 103 -46 125 -7 22 -39 86 -72 142 -74 127 -88 177 -88 321
0 105 2 115 27 153 30 46 68 69 112 69 17 0 52 8 78 19 26 10 76 21 111 24 64
7 130 34 169 70 28 25 213 126 233 126 8 1 40 -11 70 -25z m1494 -87 c59 -65
87 -107 121 -181 25 -52 45 -104 45 -115 0 -11 -16 -39 -35 -63 -19 -24 -41
-55 -49 -69 -17 -29 -21 -112 -11 -214 11 -110 -7 -188 -59 -265 -25 -36 -57
-73 -73 -82 -15 -9 -45 -34 -67 -56 l-38 -40 -42 17 c-22 10 -92 35 -154 55
-66 22 -137 54 -171 77 -32 21 -66 39 -75 39 -10 0 -63 30 -119 67 -56 37
-124 75 -152 84 -28 9 -51 23 -53 32 -5 27 135 293 184 348 44 49 94 138 94
167 0 7 18 32 41 56 37 41 40 50 46 115 3 39 9 71 12 72 3 0 56 1 116 2 86 2
118 6 145 21 38 20 174 37 201 24 9 -4 51 -45 93 -91z m-934 -991 c85 -41 164
-71 215 -81 90 -20 278 -114 348 -176 37 -33 40 -39 30 -60 -16 -37 -180 -220
-272 -306 -45 -42 -100 -102 -122 -134 -22 -32 -55 -71 -75 -86 -21 -17 -47
-53 -63 -88 -29 -61 -178 -256 -255 -332 -23 -23 -57 -68 -74 -101 -24 -44
-39 -62 -60 -67 -37 -9 -135 -70 -192 -119 -82 -71 -153 -119 -201 -136 -25
-9 -83 -40 -129 -70 -101 -64 -174 -94 -215 -87 -16 3 -99 17 -183 32 -163 28
-305 69 -384 112 -46 25 -148 122 -148 141 0 5 23 38 51 73 70 87 93 125 162
264 82 166 124 223 252 350 131 128 154 172 133 251 -15 55 -5 74 48 92 257
90 521 216 594 286 67 64 190 161 230 181 19 10 63 42 98 71 35 30 66 54 70
54 4 0 67 -29 142 -64z m2593 -544 c26 -29 47 -57 47 -63 0 -5 22 -58 49 -117
26 -59 51 -122 55 -141 9 -48 -9 -103 -64 -201 -26 -47 -67 -121 -91 -165 -63
-114 -121 -167 -289 -268 -145 -86 -293 -150 -424 -183 -64 -16 -65 -16 -96 6
-36 26 -178 192 -228 268 -25 38 -36 66 -39 105 -3 28 -11 70 -18 92 -13 41
-23 167 -30 377 -3 99 -1 119 13 131 30 26 294 105 407 122 61 10 142 25 180
35 146 38 224 51 340 58 66 5 125 6 131 2 6 -3 32 -29 57 -58z m-1654 -46 l94
-94 103 -28 c57 -15 105 -32 106 -38 1 -6 2 -110 2 -231 1 -219 1 -220 35
-335 54 -185 74 -221 190 -337 67 -67 101 -109 99 -120 -2 -10 -19 -25 -38
-35 -19 -9 -75 -35 -125 -59 -83 -39 -102 -54 -245 -194 -178 -174 -274 -255
-301 -255 -10 0 -37 7 -59 16 -56 23 -155 16 -197 -14 -17 -12 -45 -22 -63
-22 -17 0 -44 -7 -61 -15 -16 -9 -49 -15 -72 -15 -23 0 -70 -2 -103 -6 -82 -8
-208 9 -297 42 -192 71 -309 97 -432 100 -50 1 -117 9 -150 19 -33 9 -102 19
-153 22 -86 5 -93 7 -98 29 -11 44 25 85 119 135 48 26 104 60 124 75 69 52
450 424 554 540 56 63 117 124 135 134 25 16 43 47 94 160 34 77 69 145 76
151 8 6 18 26 22 43 5 17 19 36 31 42 13 7 44 32 70 56 78 76 172 141 210 147
29 5 49 21 110 94 58 67 81 87 101 87 19 0 50 -24 119 -94z m1548 -1123 c12
-38 27 -88 33 -113 7 -25 23 -66 36 -92 13 -26 24 -62 24 -80 0 -29 13 -46
115 -143 63 -60 128 -130 145 -154 33 -51 34 -46 -37 -152 -77 -117 -103 -224
-86 -364 12 -101 8 -118 -25 -111 -15 3 -43 9 -62 12 -50 9 -65 27 -84 95 -11
36 -39 92 -73 142 -31 45 -71 104 -88 130 -21 30 -43 87 -61 150 -26 97 -31
105 -88 166 -34 35 -110 104 -169 152 -98 80 -112 89 -150 89 -23 0 -46 4 -52
8 -14 10 -55 70 -55 80 0 16 50 32 96 32 27 0 75 12 118 29 40 16 108 39 152
51 80 23 209 83 254 119 14 11 27 21 30 21 3 0 15 -30 27 -67z m-4144 -106
c95 -46 176 -92 204 -117 25 -22 56 -42 67 -45 12 -2 48 -9 81 -15 34 -6 81
-23 109 -40 26 -17 75 -38 108 -47 76 -21 87 -41 68 -115 -13 -51 -12 -52 14
-74 l26 -23 -23 -16 c-22 -14 -28 -14 -68 4 -24 11 -89 27 -144 35 -110 17
-341 89 -432 134 -32 16 -88 41 -125 56 -98 39 -198 97 -221 128 l-20 27 54
96 53 97 46 -4 c29 -3 102 -32 203 -81z m3277 -242 c0 -23 14 -47 53 -93 57
-68 83 -76 127 -42 14 11 34 20 44 20 19 0 210 -101 233 -123 6 -7 18 -52 27
-100 13 -79 18 -92 49 -120 19 -18 44 -55 55 -83 11 -28 43 -85 71 -127 28
-41 60 -101 71 -133 24 -69 57 -107 125 -141 28 -14 65 -38 83 -54 17 -16 67
-52 110 -80 42 -29 80 -57 83 -62 4 -5 3 -24 -2 -41 -5 -17 -9 -53 -9 -81 0
-27 -8 -72 -16 -100 -9 -27 -20 -102 -24 -165 -6 -101 -12 -129 -49 -224 -22
-60 -41 -123 -41 -140 0 -41 -9 -53 -45 -62 -17 -4 -45 -20 -63 -36 -18 -15
-36 -28 -40 -28 -5 0 -22 -20 -40 -45 -17 -25 -50 -57 -73 -72 -23 -16 -56
-42 -73 -59 -29 -29 -39 -33 -131 -43 -93 -10 -103 -9 -143 10 -52 25 -164
146 -199 214 -14 27 -54 96 -89 152 -84 136 -132 232 -140 281 -3 21 -1 109 5
195 11 148 11 159 -8 194 -20 39 -107 127 -222 226 -46 40 -76 76 -99 119 -18
35 -44 75 -57 89 -13 14 -37 60 -52 102 -16 42 -43 99 -60 127 l-32 51 75 102
c83 114 173 204 321 323 147 118 147 118 162 97 7 -9 13 -31 13 -48z m-3698
-145 c12 -11 38 -23 57 -26 20 -4 66 -19 103 -35 36 -16 79 -29 95 -29 15 0
49 -11 75 -24 27 -14 75 -26 115 -31 46 -4 79 -14 103 -30 43 -29 87 -40 206
-54 134 -16 235 -57 249 -102 4 -10 17 -31 29 -47 22 -26 23 -34 22 -196 l-1
-170 -30 -8 c-37 -11 -163 -2 -231 16 -44 11 -55 11 -79 -2 -20 -10 -44 -13
-80 -8 -76 9 -106 -15 -164 -130 -25 -50 -70 -119 -98 -153 -29 -34 -57 -79
-61 -99 -5 -20 -13 -55 -18 -77 -6 -25 -15 -40 -24 -40 -11 0 -22 34 -42 135
-15 74 -41 195 -58 267 -29 122 -32 148 -33 322 l-2 188 -45 88 c-27 54 -69
115 -107 157 -62 67 -70 92 -35 101 30 8 32 7 54 -13z m1410 -210 c34 -11 80
-20 100 -20 20 0 85 -15 145 -34 187 -58 385 -88 603 -90 74 0 140 -4 147 -9
19 -12 313 30 332 47 34 31 112 14 155 -32 10 -12 24 -53 31 -96 15 -86 30
-114 170 -311 73 -102 107 -140 158 -178 64 -47 67 -52 111 -155 69 -165 96
-270 98 -387 2 -85 -1 -106 -20 -141 -20 -40 -69 -74 -107 -74 -9 0 -40 -22
-68 -48 -75 -70 -135 -115 -194 -149 -35 -19 -67 -49 -93 -85 -47 -67 -130
-125 -232 -163 -86 -33 -114 -51 -190 -122 -31 -29 -65 -53 -75 -53 -10 0 -72
-5 -137 -11 -135 -11 -826 -18 -826 -7 0 4 13 16 29 27 16 12 43 43 60 69 17
26 38 57 47 70 22 29 38 110 38 187 0 45 -14 102 -53 224 -29 90 -59 174 -66
185 -8 12 -25 53 -40 91 -14 39 -37 81 -51 95 -46 45 -103 144 -114 195 -15
77 -27 232 -18 255 5 15 16 20 42 20 18 0 47 7 62 15 16 8 50 15 76 15 26 0
63 7 82 16 19 10 44 14 57 11 23 -6 167 -167 258 -290 l43 -57 3 -103 c3 -141
26 -218 82 -274 46 -47 58 -50 118 -29 l40 14 0 59 c-1 32 -9 108 -18 168 -11
73 -14 127 -9 160 l7 50 155 6 c97 3 164 10 180 18 14 8 55 44 92 82 72 73 91
118 69 165 -12 28 -65 54 -110 54 -36 0 -210 -62 -266 -94 -22 -13 -60 -29
-85 -35 -25 -7 -62 -19 -83 -28 -35 -15 -38 -15 -58 3 -12 10 -41 46 -66 79
-62 83 -215 224 -255 236 -50 14 -190 11 -213 -5 -11 -7 -39 -16 -61 -19 -23
-4 -61 -16 -85 -26 -61 -28 -79 -16 -79 53 0 29 -4 77 -9 107 -14 82 -34 347
-26 359 9 15 46 12 117 -10z m-487 -750 c88 -13 164 -26 168 -30 4 -4 32 -101
62 -216 29 -115 59 -222 65 -239 7 -16 39 -107 70 -202 45 -132 68 -184 99
-225 44 -59 71 -117 91 -194 l13 -52 -48 -57 c-74 -86 -94 -89 -186 -33 -44
28 -55 30 -104 25 -51 -5 -57 -3 -95 28 -29 24 -59 37 -115 50 -96 21 -296
121 -346 174 -28 29 -45 64 -78 162 -22 68 -50 138 -62 154 -11 17 -36 61 -55
99 l-36 69 40 41 c22 22 49 61 61 86 11 25 46 86 76 135 30 50 69 117 86 150
44 85 67 108 104 102 16 -2 102 -14 190 -27z m2680 -892 c30 -13 224 -281 255
-352 32 -72 5 -126 -63 -126 -15 0 -72 -9 -125 -20 -53 -10 -132 -24 -175 -30
-43 -6 -109 -22 -147 -36 -38 -13 -75 -21 -83 -18 -20 7 -140 -22 -187 -46
-61 -31 -89 -26 -149 25 -35 30 -66 47 -92 51 l-40 7 28 31 c16 17 46 53 68
80 32 40 56 57 149 101 66 31 133 72 166 100 30 27 78 65 105 86 55 41 245
159 257 159 4 0 19 -5 33 -12z m-1013 -659 c16 -26 260 -149 297 -149 14 -1
37 -7 51 -15 14 -8 38 -14 55 -15 34 0 262 91 317 128 27 17 42 22 50 14 7 -5
70 -12 140 -14 70 -2 130 -7 134 -11 14 -13 -107 -155 -303 -355 -127 -130
-205 -202 -218 -202 -12 0 -40 -23 -68 -55 -27 -31 -70 -66 -95 -79 -26 -13
-58 -36 -72 -51 -14 -15 -41 -38 -62 -51 -23 -15 -45 -42 -63 -78 -43 -88 -38
-87 -234 -51 -64 11 -98 13 -145 5 -33 -5 -73 -10 -87 -10 -29 0 -231 137
-248 168 -7 13 -4 41 10 93 11 41 22 99 26 129 5 42 20 80 65 157 32 56 58
104 58 107 0 3 11 16 25 30 14 14 25 33 25 43 0 10 9 47 20 81 11 35 20 79 20
98 0 39 6 41 110 46 51 3 74 10 105 31 48 33 71 34 87 6z"/>
</g>
</svg>
