<?xml version="1.0" standalone="no"?>
<!DOCTYPE svg PUBLIC "-//W3C//DTD SVG 20010904//EN"
 "http://www.w3.org/TR/2001/REC-SVG-20010904/DTD/svg10.dtd">
<svg version="1.0" xmlns="http://www.w3.org/2000/svg"
 width="552.000000pt" height="872.000000pt" viewBox="0 0 552.000000 872.000000"
 preserveAspectRatio="xMidYMid meet">
<metadata>
Created by potrace 1.16, written by Peter Selinger 2001-2019
</metadata>
<g transform="translate(0.000000,872.000000) scale(0.100000,-0.100000)"
fill="#000000" stroke="none">
<path d="M2860 8614 c-46 -25 -123 -71 -170 -103 -47 -32 -145 -88 -218 -125
-125 -64 -488 -296 -617 -395 -306 -235 -427 -429 -475 -763 -17 -112 -9 -184
39 -388 49 -204 60 -235 105 -295 20 -25 36 -51 36 -57 0 -20 89 -134 151
-194 94 -88 346 -240 474 -284 127 -44 420 -222 528 -320 79 -73 255 -270 316
-355 92 -127 250 -269 337 -303 76 -30 147 -75 279 -177 159 -122 252 -185
274 -185 50 0 67 84 31 154 -23 46 -16 41 -255 189 -104 65 -210 135 -235 155
-95 76 -214 200 -262 271 -54 81 -328 366 -420 435 -63 48 -395 224 -492 260
-134 51 -417 213 -497 284 -70 63 -187 300 -230 467 -38 147 -49 220 -38 259
5 17 14 68 20 115 15 113 37 172 105 289 81 137 125 195 219 287 95 94 220
184 360 262 55 31 145 83 200 116 331 201 415 249 477 274 121 47 194 133 139
163 -41 21 -94 11 -181 -36z"/>
<path d="M771 8594 c-11 -14 -23 -40 -26 -58 -4 -28 -16 -768 -15 -931 0 -38
-8 -122 -20 -185 -13 -78 -20 -159 -20 -253 0 -119 5 -158 34 -295 35 -159
130 -447 206 -624 54 -124 136 -271 295 -523 160 -255 267 -439 346 -597 78
-155 94 -197 139 -353 21 -71 56 -182 78 -245 79 -226 155 -539 211 -875 11
-66 27 -158 36 -205 8 -47 22 -123 30 -170 8 -47 20 -151 25 -232 6 -81 17
-194 26 -250 8 -57 15 -123 15 -148 0 -151 98 -523 188 -715 46 -98 83 -143
214 -262 102 -92 121 -102 158 -83 36 20 22 52 -56 135 -86 91 -133 158 -175
247 -39 85 -106 318 -131 457 -11 63 -29 153 -40 200 -12 51 -24 161 -30 271
-12 224 -45 452 -90 620 -11 41 -25 115 -30 165 -18 178 -31 250 -64 354 -18
58 -38 137 -44 176 -19 107 -87 373 -122 472 -47 135 -187 479 -227 558 -54
109 -248 430 -320 530 -140 195 -295 491 -387 740 -90 242 -110 326 -125 530
-11 151 -11 179 4 249 13 66 16 149 16 525 0 253 5 512 12 598 l12 153 -24 25
c-31 33 -72 33 -99 -1z"/>
<path d="M1064 8552 c-50 -33 -96 -366 -100 -727 -3 -294 -21 -804 -29 -831
-9 -28 63 -309 119 -466 24 -70 87 -223 139 -341 77 -174 112 -240 189 -354
134 -199 428 -713 513 -898 17 -38 66 -112 107 -164 42 -51 95 -127 119 -169
101 -176 238 -549 284 -772 29 -143 70 -273 92 -295 30 -31 87 -6 98 43 11 54
-33 310 -70 402 -19 47 -49 132 -66 190 -17 58 -41 125 -54 150 -12 25 -30 70
-40 100 -40 126 -141 306 -275 490 -34 47 -91 143 -126 214 -36 72 -69 135
-73 140 -5 6 -58 110 -119 231 -78 155 -131 247 -181 313 -106 139 -351 631
-438 881 l-65 186 8 440 c4 242 6 454 4 470 -2 17 -4 102 -4 190 0 146 3 168
28 249 26 86 65 247 66 274 0 26 -48 62 -82 62 -18 0 -38 -4 -44 -8z"/>
<path d="M2905 8442 c-122 -60 -336 -187 -465 -276 -52 -36 -126 -84 -165
-107 -193 -115 -327 -219 -470 -363 -92 -93 -132 -162 -170 -291 -34 -118 -40
-203 -26 -355 15 -156 33 -234 69 -308 16 -31 35 -75 42 -97 22 -67 54 -108
153 -197 85 -76 107 -89 204 -128 104 -43 112 -44 213 -44 133 1 289 40 458
114 311 137 744 314 811 332 139 36 251 10 435 -100 95 -57 151 -99 215 -162
109 -106 141 -153 211 -310 84 -187 198 -390 268 -476 39 -48 147 -131 219
-169 57 -29 90 -28 132 4 l24 18 -36 56 c-20 31 -64 78 -100 106 -76 60 -234
233 -252 276 -7 17 -22 41 -33 55 -10 14 -53 95 -95 180 -96 195 -179 321
-278 419 -64 64 -100 89 -212 149 -189 100 -291 120 -502 95 -95 -12 -154 -32
-361 -126 -67 -31 -202 -89 -300 -130 -99 -42 -217 -93 -264 -115 -113 -52
-137 -59 -257 -77 l-102 -15 -86 30 c-242 86 -288 123 -359 291 -64 150 -86
253 -86 407 0 148 9 190 66 307 37 77 61 108 163 216 79 83 150 147 208 186
188 128 630 397 738 449 129 62 159 93 153 161 -3 34 -6 38 -33 41 -20 2 -63
-13 -130 -46z"/>
<path d="M1755 8251 c-55 -27 -129 -74 -165 -103 -87 -72 -250 -256 -291 -329
-19 -33 -48 -83 -66 -111 -18 -28 -35 -72 -38 -97 -4 -25 -16 -91 -28 -146
-19 -84 -22 -131 -21 -290 l0 -190 47 -185 c25 -102 63 -228 83 -280 47 -120
184 -331 257 -395 62 -54 274 -201 311 -215 24 -9 275 -151 496 -281 47 -28
112 -81 176 -144 165 -164 243 -314 290 -565 12 -69 26 -134 30 -143 6 -16 84
-77 99 -77 10 0 65 124 65 147 0 43 -59 282 -80 323 -12 23 -41 73 -65 110
-24 38 -57 95 -74 127 -55 109 -229 301 -306 337 -22 11 -128 72 -235 136
-107 64 -253 149 -324 189 -129 72 -246 160 -323 244 -65 70 -170 236 -188
297 -9 30 -30 97 -47 148 -52 159 -62 433 -23 616 15 70 104 314 154 421 10
22 37 61 60 87 58 65 204 180 277 216 80 40 104 71 104 131 0 87 -33 91 -175
22z"/>
<path d="M1978 7568 c-165 -198 -194 -282 -169 -505 6 -56 17 -120 25 -143 33
-97 144 -240 230 -299 23 -15 90 -44 149 -64 99 -34 117 -37 221 -37 105 0
122 3 218 36 192 67 466 194 732 338 308 168 676 345 796 384 139 44 339 93
415 102 144 16 327 30 510 40 405 22 396 20 406 47 12 33 11 56 -4 77 -13 17
-29 18 -328 7 -476 -17 -613 -35 -1004 -134 -62 -15 -213 -87 -657 -309 -595
-297 -835 -403 -997 -438 l-85 -19 -115 30 c-142 36 -183 62 -261 165 -81 107
-89 137 -88 314 1 176 9 201 89 274 71 64 81 95 47 146 -17 25 -32 36 -55 38
-26 3 -37 -4 -75 -50z"/>
<path d="M1980 4598 c0 -33 55 -243 123 -475 20 -67 57 -216 82 -330 25 -114
63 -282 85 -373 45 -189 86 -441 95 -580 9 -155 25 -321 37 -381 7 -41 7 -66
-1 -91 -10 -31 -8 -46 20 -124 92 -261 256 -500 466 -679 89 -76 170 -116 288
-144 50 -11 141 -34 203 -51 152 -40 290 -57 577 -70 132 -6 274 -14 315 -19
72 -9 76 -8 98 16 12 13 22 31 22 39 0 59 -74 84 -262 89 -210 6 -398 30 -598
74 -342 77 -474 132 -602 251 -77 71 -216 253 -275 360 -52 94 -87 245 -88
385 -1 114 -14 206 -48 336 -8 30 -18 91 -21 135 -12 140 -82 527 -117 643
-10 35 -22 95 -25 135 -3 39 -14 100 -25 136 -10 36 -41 153 -69 260 -107 407
-147 490 -238 490 -41 0 -42 -1 -42 -32z"/>
<path d="M1786 3735 c-30 -28 -32 -40 -11 -92 25 -66 45 -170 55 -296 5 -67
14 -176 20 -242 5 -66 14 -217 20 -335 5 -118 17 -255 25 -305 9 -49 20 -120
25 -156 22 -160 131 -376 310 -613 67 -90 251 -262 355 -333 88 -60 196 -104
365 -148 95 -25 176 -48 180 -50 3 -2 60 -13 126 -24 164 -27 417 -45 549 -39
62 3 158 -1 220 -8 61 -7 187 -13 280 -14 143 0 186 -4 270 -24 55 -13 119
-26 143 -30 24 -4 90 -20 148 -36 57 -16 130 -32 161 -35 60 -7 334 20 364 36
28 14 30 59 4 85 -37 37 -115 54 -249 54 -67 0 -139 5 -161 10 -22 5 -101 17
-175 25 -74 9 -186 27 -248 41 -108 23 -132 24 -453 24 -322 0 -352 2 -572 31
-128 17 -270 39 -317 49 -147 31 -412 110 -475 141 -135 65 -327 227 -433 363
-82 106 -212 394 -259 574 -22 85 -25 124 -29 312 -3 123 -13 277 -24 360 -10
80 -19 177 -19 216 0 77 -53 339 -79 389 -23 46 -63 95 -77 95 -7 0 -24 -11
-39 -25z"/>
<path d="M1187 2470 c-64 -51 -13 -102 188 -186 60 -26 142 -67 180 -91 94
-61 229 -200 290 -298 138 -225 346 -515 425 -593 65 -65 133 -112 255 -177
50 -26 110 -60 135 -75 25 -16 61 -31 80 -35 19 -4 88 -23 152 -41 72 -20 163
-37 232 -43 62 -6 158 -20 212 -31 69 -13 177 -23 354 -30 140 -5 309 -17 375
-25 65 -8 143 -15 171 -15 29 0 104 -9 168 -20 101 -17 342 -40 573 -53 39 -2
162 6 272 17 173 19 204 25 222 43 18 17 19 24 9 42 -6 12 -23 27 -38 33 -16
7 -151 15 -342 20 -390 10 -408 11 -550 42 -224 48 -303 56 -930 86 -158 7
-219 14 -263 29 -31 11 -105 27 -164 36 -151 24 -297 59 -443 107 -235 77
-268 102 -469 348 -136 167 -142 174 -221 295 -88 133 -295 407 -347 457 -63
61 -101 80 -267 128 -182 54 -222 59 -259 30z"/>
<path d="M1066 1271 c-43 -16 -85 -36 -93 -44 -21 -20 -11 -57 26 -96 34 -37
79 -41 168 -15 41 12 85 15 167 12 107 -3 115 -5 211 -49 285 -131 1005 -320
1326 -349 63 -5 149 -16 191 -25 54 -10 211 -18 535 -25 462 -11 836 -38 1033
-76 43 -8 145 -15 240 -16 l165 -1 -160 -10 c-343 -21 -761 -12 -1030 23 -139
18 -479 -1 -604 -35 -53 -14 -123 -25 -156 -25 -66 0 -210 -49 -565 -189 -382
-152 -459 -156 -853 -42 -160 46 -191 59 -457 195 -176 89 -325 158 -390 180
-132 44 -295 86 -333 86 -30 0 -77 -39 -77 -64 0 -21 83 -59 233 -106 256 -80
382 -139 590 -273 108 -70 324 -169 502 -230 82 -28 104 -31 242 -35 114 -3
171 0 233 12 129 26 330 101 530 196 136 65 221 99 320 127 l135 37 795 7
c856 8 1374 21 1430 37 83 23 88 36 34 77 -31 24 -45 27 -125 30 -50 2 -93 5
-95 8 -2 2 45 9 106 16 60 6 117 14 125 17 19 8 28 40 23 85 l-3 34 -125 3
c-81 2 -165 -3 -239 -14 -74 -11 -141 -15 -190 -11 -259 21 -351 30 -472 47
-75 11 -181 20 -236 20 -100 0 -277 21 -343 40 -43 12 -239 12 -300 0 -28 -6
-66 -5 -100 0 -30 6 -135 14 -234 20 -226 13 -520 45 -656 71 -267 51 -725
187 -900 267 -94 42 -150 59 -285 83 -186 34 -245 34 -339 0z m4122 -678 c-15
-2 -42 -2 -60 0 -18 2 -6 4 27 4 33 0 48 -2 33 -4z"/>
<path d="M20 1030 c-20 -12 -21 -127 -2 -139 8 -4 51 -11 97 -15 46 -3 139
-20 207 -36 67 -17 139 -30 159 -30 97 0 401 -106 622 -217 126 -63 579 -254
685 -289 63 -20 80 -22 119 -14 70 16 83 26 83 65 0 50 -33 80 -110 98 -105
24 -331 113 -525 204 -188 89 -575 249 -682 283 -34 10 -102 24 -150 30 -49 7
-155 25 -238 41 -153 30 -238 36 -265 19z"/>
</g>
</svg>
