<?xml version="1.0" encoding="UTF-8" standalone="no"?>
<!-- Generator: Adobe Illustrator 26.0.3, SVG Export Plug-In . SVG Version: 6.00 Build 0)  -->

<svg
   version="1.1"
   id="Layer_1"
   x="0px"
   y="0px"
   viewBox="0 0 475.20986 466.15239"
   overflow="visible"
   xml:space="preserve"
   width="475.20987"
   height="466.1524"
   xmlns="http://www.w3.org/2000/svg"
   xmlns:svg="http://www.w3.org/2000/svg"><defs
   id="defs17" />
<path
   d="m 230.22467,205.63159 c 10.7,-11.8 21.2,-23.5 31.8,-35 3.5,-3.8 7.1,-7.6 11,-10.8 5.1,-4.2 11,-5.6 17.2,-2.2 5.1,2.8 8,9.1 6.2,16.1 -1.3,5 -3.7,10 -6.7,14.2 -4.4,6.4 -9.9,12.1 -14.7,18.2 -4.5,5.7 -9,11.5 -13,17.6 -1.1,1.7 -1.4,4.8 -0.7,6.6 2.6,6.3 6,12.2 8.9,18.4 10.1,21.8 20.1,43.6 30,65.4 1.9,4.2 6.5,7.1 6.2,12.6 0,0.5 5.2,2.6 7.1,1.9 19,-7.6 37.8,-15.7 56.7,-23.6 10.6,-4.5 18.3,-12.6 26.2,-20.5 0.5,-0.5 0.8,-1.1 2.3,-3.4 1.2,2.9 2.1,4.8 2.9,6.8 0.6,-0.5 1.3,-0.9 1.9,-1.4 -0.6,-1.9 -1.2,-3.8 -1.8,-5.7 -2.7,-8.8 -1.6,-13.3 5.7,-18.8 14,-10.5 23.3,-24.5 30,-40.5 3.6,-8.6 8.2,-16.8 11.9,-25.3 3.1,-6.9 8.4,-8.3 15.1,-7.6 9.3,0.9 11.5,2.7 10.6,12.1 -0.7,6.9 -1.5,14.2 -4.5,20.3 -8.9,18.4 -18.7,36.4 -28.5,54.4 -2.1,3.9 -5.6,7 -8.4,10.5 -0.8,1 -1.4,2 -3,4.2 3.4,-0.6 5.4,-0.9 6.6,-1.1 1.7,6.6 2.9,13.3 5.2,19.6 6.3,16.8 13.4,33.3 19.6,50.2 3.4,9.4 5.8,19.1 8,28.8 1.4,6 -2.8,13.2 -7.9,15.3 -5.1,2.1 -11,0.6 -14.6,-5.5 -4,-6.8 -7.3,-14.2 -9.9,-21.7 -5.5,-16.1 -10.2,-32.4 -15.5,-48.6 -1.1,-3.4 -3,-6.7 -5.1,-9.6 -0.7,-0.9 -3.6,-1.3 -4.9,-0.6 -10.4,5.5 -20.6,11.4 -31,17 -8.6,4.7 -17.4,9.1 -26.1,13.6 -9.9,5.2 -20,9.8 -31.5,10.2 -6.9,0.3 -10.5,4.4 -9.5,11.1 3.5,24.7 7,49.4 11.1,74.1 1.1,6.6 -0.9,12.2 -3,17.8 -1.7,4.4 -6,5.6 -10.4,5.4 -5.4,-0.2 -10.4,-1.8 -12.7,-7.3 -1.1,-2.7 -1.4,-5.8 -1.7,-8.7 -0.7,-5.9 -1,-11.9 -1.9,-17.8 -3.5,-23.2 -7.1,-46.4 -10.7,-69.6 -0.2,-1.4 0.3,-2.9 0.5,-4.4 0.5,-5.8 1.1,-11.4 -3.6,-16.4 -2.1,-2.3 -2.5,-6.1 -4.1,-9 -11.8,-22.2 -23.8,-44.3 -35.7,-66.5 -3,-5.6 -5.6,-11.3 -8.6,-17.3 -0.3,0.1 -1,0.3 -1.6,0.7 -9.3,7.2 -18.7,14.3 -27.9,21.7 -5.1,4.2 -9.8,8.9 -14.7,13.4 -1.6,1.4 -3.3,2.7 -5,4.1 -6,4.7 -12.2,9.1 -17.9,14.1 -1.9,1.7 -3,4.9 -3.3,7.5 -2.2,22 0.8,43.6 4.6,65.3 2.4,13.7 6.6,26.7 10.1,40 2,7.5 3.9,15.2 4.6,23 0.5,5.1 -0.5,10.7 -2.2,15.5 -2,5.8 -6.9,7.6 -13,6.4 -0.2,0 -0.3,-0.1 -0.5,-0.1 -14.8,-3 -15.3,-4.5 -15.4,-19.5 -0.1,-9.9 -2.6,-19.7 -4.1,-29.6 -1,-6.6 -2.2,-13.1 -3.3,-19.7 -1.1,-6.6 -1.9,-13.2 -3.3,-19.7 -3.5,-15.4 -7.3,-30.8 -10.9,-46.2 -1.5,-6.5 -2.6,-7.3 -9.1,-5.6 -1.6,0.4 -3.3,0.5 -4.9,0.6 -17.1,1.1 -34.2,2.2 -51.3,3.4 -15.2,1.1 -30.4,4 -45.6,-0.8 -6.8,-2.2 -9.9999999,-8.5 -5.7,-14.2 5,-6.8 10.5,-13 20.5,-13.2 13.5,-0.3 26.9,-2.2 40.4,-3.1 14.1,-0.9 28.2,-2.1 42.4,-2.1 14.5,0 25.7,-6.8 36.8,-14.7 5.4,-3.9 10.8,-7.8 16.3,-11.5 7.6,-5 13.5,-11.1 16.4,-20.1 2.2,-6.7 9.1,-9.4 16.1,-7.8 7.7,1.8 15.6,3.3 23.5,3.8 9.9,0.6 16.6,-4.5 19.5,-13.2 2.2,-6.6 -1.2,-14 -8.9,-19.4 -1.8,-0.5 -3.9,-1.5 -5.6,-2.5 z"
   id="path2" />
<path
   d="m 370.82467,130.33159 c 8.2,-2 14.4,-11.3 13.1,-18.5 -0.4,-2.2 -2.2,-4.4 -3.9,-6.1 -3,-3 -6.5,-4.6 -0.6,-9.099998 5.9,-4.6 10.1,-11.4 15.3,-16.9 11.1,-11.7 22.6,-23 33.5,-34.9 4.1,-4.5 7,-10.1 10.9,-14.7 4.6,-5.5 9.2,-11.5 14.9,-15.8 7.5,-5.5999997 17.6,-0.3 19.2,9 1.3,7.6 -1.4,13.8 -6.1,19.3 -12.8,15.1 -25.4,30.4 -38.7,45.1 -6,6.7 -10.9,13.799998 -14.8,21.699998 -7.5,15.4 -15.3,30.7 -22.5,46.3 -2.3,4.9 -3,10.5 -4.5,15.7 -4.3,16.1 -8.6,32.1 -12.8,48.2 -2.3,9 -4.7,18 -6.4,27.2 -2.4,12.3 -6.7,23.7 -14,33.9 -6.9,9.8 -13.3,9.2 -23.1,4.9 -6.8,-3 -8.8,-11.5 -4.9,-20.1 3.6,-8 8,-15.7 11.7,-23.7 8.4,-18 12.6,-37.2 14.9,-56.8 1.9,-15.7 4.9,-30.9 12.3,-45 0.4,-0.8 0.5,-1.8 1.1,-3.6 -5.7,0.4 -10.7,0.5 -15.8,1.1 -8.1,1 -16.1,2.4 -24.1,3.3 -24.5,2.7 -49,5.4 -73.5,7.9 -8.6,0.9 -17.2,1.8 -25.9,1.9 -5,0 -10.3,-1 -15.1,-2.7 -5.9,-2.1 -9.3,-7 -9.4,-13.5 -0.1,-6.4 3.2,-11 9.1,-13 4,-1.3 8.3,-1.7 12.5,-2.1 3.8,-0.3 7.7,0.4 11.4,-0.1 31.1,-3.4 62.2,-6.7 93.3,-10.5 8.3,-1 16.4,-4 24.7,-5.9 8.1,-1.9 15.8,-3.999998 23.3,2.9 6.5,6 5.7,9.4 1,17.4 -1,1.7 -2.9,2.8 -4.2,4.2 -0.7,1 -1.3,2 -1.9,3 z"
   id="path4" />
<path
   d="m 98.62467,178.63159 c -0.7,-1.2 -1.1,-3.2 -2.1,-3.6 -5.4,-1.9 -6.6,-6.3 -6.9,-11.1 -1.7,-27.9 -3.3,-55.8 -5,-83.599998 -0.1,-1.6 -1.3,-4 -2.7,-4.6 -4.4,-2.2 -9.1,-4 -13.8,-5.6 -5.9,-2 -12,-3.5 -17.9,-5.6 -5,-1.7 -9.7,-4.2 -14.6,-5.9 -6.9,-2.5 -14,-4.5 -20.9,-6.9 -5.6999999,-2 -10.5999999,-5 -13.2999999,-10.7 -3.1,-6.6 -1.10000004,-11.7 5.6,-14.5 6.8999999,-2.8 13.1999999,-2.4 18.9999999,2.9 7.2,6.6 16.4,8.4 25.6,10.3 6.6,1.3 13,3.7 19.5,5.7 5.5,1.7 11,3.6 16.6,5.3 4.4,1.3 8.8,2.5 14,4 -3.2,3.2 -5.5,5.7 -8.7,8.9 1.9,0 2.3,0.1 2.4,0 4.9,-5.8 11,-9.3 18.3,-12.1 16.2,-6.4 31.9,-14.3 47.7,-21.7 5.3,-2.5 10.3,-5.5 15.4,-8.3 6.3,-3.5 16.1,0.4 18,7.4 0.4,1.5 -0.2,3.8 -1.3,4.9 -3.7,3.8 -7.6,7.4 -11.6,10.8 -2.1,1.8 -5,2.8 -7.2,4.5 -10.4,8.3 -21.5,15 -34.4,18.8 -3.4,1 -6.8,3.1 -9.4,5.6 -4,3.9 -8.4,6.7 -13.8,8.4 -1.7,0.5 -3.5,4 -3.4,6.1 0.8,18.599998 2.2,37.099998 3.1,55.699998 0.4,7.2 0.1,14.4 0.1,20.7 1.1,-0.6 3.3,-2.4 5.6,-2.7 2.4,-0.3 5.3,0.5 7.6,1.6 27.6,12.9 55,26 82.6,39 5.7,2.7 11.7,4.7 17.5,7.4 2.7,1.2 5.3,3 7.3,5.1 3.7,3.9 6.4,8.4 3.8,14 -2.6,5.6 -6.5,9.5 -13.2,9.9 -16.6,0.8 -31.8,-4.7 -46.6,-11.3 -0.7,-0.3 -1.5,-0.9 -1.9,-1.6 -5.6,-10.6 -16.2,-14 -26.2,-17.8 -8.9,-3.4 -18.2,-5.5 -27.2,-8.5 -4.2,-1.4 -8.2,-3.5 -12.3,-5.3 -7.3,-3.1 -13.4,-7.3 -15.4,-15.5 z"
   id="path6" />
<path
   d="m 437.02467,29.931592 c -5.3,5.9 -10,12.4 -16,17.3 -2.7,2.1 -8.5,1.8 -12.3,0.6 -14.8,-4.4 -29.3,-9.7 -44,-14.4 -10.1,-3.2 -20.5,-5.9 -30.6,-9 -4.5,-1.4 -8.2,-4 -8.3,-9.4 -0.1,-5.0999997 2.2,-8.6999997 6.7,-11.3999997 4.9,-3.00000003 9.9,-4.60000003 15.6,-3.00000003 14,3.80000003 28.1,7.00000003 41.9,11.19999973 15.5,4.8 30.7,10.6 46.1,15.9 0.2,0.7 0.6,1.5 0.9,2.2 z"
   id="path8" />
<path
   d="m 98.42467,178.53159 c 0,2.2 -0.4,4.5 0.2,6.4 1.7,5.2 -1.5,6.7 -5.3,8.8 -11,6.1 -22.2,12 -32.5,19.3 -11.6,8.1 -23.9,13.8 -37.7,16.2 -9.7,1.7 -17.7999999,-5.8 -16.9999999,-15.7 0.3,-3.8 2.1,-6.5 5.7999999,-7.9 20.2,-7.4 37.8,-19.3 55,-32 5.8,-4.3 12.3,-7.8 19.7,-12.4 -0.5,9.3 2.6,15.8 12,17.4 0,0 -0.2,-0.1 -0.2,-0.1 z"
   id="path10" />
<path
   d="m 121.32467,157.13159 c -0.5,-5.7 -0.9,-11.2 -1.6,-16.6 -0.5,-4 0.3,-7.1 4.1,-9.2 9.1,-5.2 17.8,-11.1 27.1,-15.8 4.2,-2.1 9.6,-2.6 14.4,-2.8 4.1,-0.2 7.6,1.6 9.4,6 1.8,4.5 1.2,8.2 -1.5,12.2 -4.1,6.2 -9.4,10.9 -16,14.5 -6.7,3.8 -12.9,8.2 -19.3,12.4 -3.2,2.1 -6.4,3.1 -10.1,0.9 -1.8,-1.2 -4.3,-1.2 -6.5,-1.6 z"
   id="path12" />
</svg>
