<?xml version="1.0" encoding="UTF-8" standalone="no"?>
<svg
   width="388"
   height="471.12241"
   viewBox="0 0 388 471.12241"
   version="1.1"
   id="svg4"
   xmlns="http://www.w3.org/2000/svg"
   xmlns:svg="http://www.w3.org/2000/svg">
  <defs
     id="defs8" />
  <path
     d="m 163.426,2.7694274 c -6.377,6.881 -7.571,11.2999996 -6.169,22.8259996 0.387,3.185 -6.123,3.317 -9.868,0.201 -3.906,-3.25 -6.824,-4.701 -9.455,-4.701 -3.136,0 -8.477,6.107 -10.398,11.891 -2.587,7.79 -5.87,8.167 -10.841,1.247 -4.378,-6.094 -9.894,-8.864 -19.411,-9.748 -10.073,-0.936 -12.284,0.535 -12.284,8.173 0,9.273 5.769,17.236 15.658,21.61 2.342,1.036 4.51,2.29 4.817,2.787 0.62,1.003 -2.457,8.04 -3.516,8.04 -0.369,0 -2.667,-1.524 -5.105,-3.386 -8.03,-6.131 -11.726,-7.614 -18.973,-7.614 -7.434,0 -7.84,-0.434 -7.867,-8.434 -0.028,-7.944 -7.096,-17.566 -12.904,-17.566 -1.722,0 -3.78,1.089 -5.553,2.941 -2.454,2.561 -3.004,2.755 -4.259,1.5 -1.992,-1.993 -6.659,-1.805 -8.605,0.346 -2.428,2.683 -4.693,8.722 -4.693,12.514 0,1.851 -0.266,3.632 -0.591,3.956 -0.325,0.325 -2.582,-0.929 -5.016,-2.787 -5.169,-3.945 -14.045,-7.025 -17.643,-6.122 -1.536,0.385 -3.141,1.955 -4.131,4.042 -3.298,6.951 -1.362,15.194 5.133,21.86 l 3.654,3.75 H 8.903 c -7.528,0 -8.903,0.946 -8.903,6.123 0,4.232 3.397,8.996 8.175,11.467 l 2.936,1.519 -3.055,3.48 c -2.539,2.892 -3.056,4.329 -3.056,8.495003 0,5.486 1.968,10.306 4.622,11.325 0.934,0.358 8.348,-0.115 16.477,-1.052 12.135,-1.397 15.06,-1.47 16.341,-0.407 1.218,1.011 1.56,3.431 1.56,11.047 0,11.734 0.61,15.207 3.15,17.934 3.917,4.204 6.72,2.877 15.694,-7.431 7.63,-8.764 10.156,-10.907 10.156,-8.614 0,1.59 7.073,4.313 9.572,3.685 3.242,-0.813 5.29,-4.219 7.034,-11.694 1.913,-8.202 2.616,-8.945 7.785,-8.237 3.555,0.487 4.679,0.172 7.326,-2.055 1.72,-1.448 4.103,-4.648 5.296,-7.112003 2.464,-5.09 5.085,-6.256 10.237,-4.556 4.87,1.608 9.494,5.87 12.563,11.583003 2.248,4.183 3.203,5.05 5.845,5.307 5.931,0.575 9.326,-5.8 9.336,-17.534003 0.007,-7.805 1.444,-8.954 12.815,-10.251 8.493,-0.969 14.049,-3.209 20.448,-8.245 l 3.757,-2.956 6.187,2.09 c 6.688,2.258 15.799,2.819 15.799,0.973 0,-0.771 1.938,-0.921 6.25,-0.485 6.686,0.675 7.811,0.316 9.59,-3.065 1.474,-2.8 -0.064,-11.342 -2.855,-15.858 -2.182,-3.53 -7.304,-6.476 -11.261,-6.476 -5.979,0 -8.587,-1.192 -10.244,-4.683 -2.191,-4.618 -1.374,-6.317 3.038,-6.317 7.063,0 12.482,-4.684 12.482,-10.788 0,-4.648 -1.584,-7.14 -5.603,-8.82 -3.017,-1.26 -3.309,-1.687 -2.364,-3.453 0.593,-1.108 0.804,-2.878 0.469,-3.933 -0.927,-2.9209996 -6.143,-6.8479996 -10.075,-7.5859996 -4.331,-0.812 -11.983,1.882 -13.524,4.761 -1.071,2.0009996 -1.08,2.0009996 -3.303,-0.087 -1.226,-1.152 -2.65,-2.097 -3.164,-2.1 -0.515,-0.004 -1.703,-1.354 -2.639,-3 -2.272,-3.99200003 -6.837,-4.133 -10.371,-0.32 m 1.615,4.268 c -5.178,7.2719996 -5.665,11.6349996 -1.67,14.9509996 1.22,1.013 1.876,0.692 3.742,-1.833 2.827,-3.823 3.558,-3.833 4.387,-0.06 0.736,3.352 3.397,4.033 5.563,1.424 1.079,-1.3 1.075,-1.721 -0.024,-2.4 -0.912,-0.563 -1.146,-1.977 -0.741,-4.471 0.51,-3.146 0.271,-3.792 -1.743,-4.7099996 -1.284,-0.585 -2.824,-2.139 -3.423,-3.453 -1.459,-3.202 -3.553,-3.012 -6.091,0.552 m 24.288,1.516 c -2.618,1.139 -5.329,4.0909996 -5.329,5.8029996 0,0.216 1.35,0.194 3,-0.048 2.276,-0.334 3,-0.05 3,1.174 0,1.106 -0.894,1.613 -2.845,1.613 -2.825,0 -6.155,2.602 -6.155,4.81 0,1.875 4.907,2.565 7.824,1.099 1.472,-0.74 2.98,-1.498 3.351,-1.685 0.372,-0.188 1.467,1.326 2.434,3.364 l 1.758,3.705 -5.093,4.603 c -5.308,4.798 -8.696,9.349 -7.701,10.344 0.747,0.747 9.427,-7.541 9.427,-9.001 0,-0.738 1.915,-0.934 5.762,-0.591 4.864,0.434 6.189,0.178 8.5,-1.639 1.821,-1.433 2.738,-3.093 2.738,-4.959 0,-3.138 -1.144,-4.345 -5.429,-5.725 -3.949,-1.273 -5.429,-3.721 -3.814,-6.308 2.04,-3.266 1.44,-5.037 -2.225,-6.5679996 -4.207,-1.758 -5.144,-1.757 -9.203,0.009 M 135.133,27.653427 c -3.187,4.052 -5.659,11.316 -4.31,12.665 0.84,0.84 1.585,0.725 2.903,-0.447 2.737,-2.433 9.128,-4.772 13.146,-4.811 1.995,-0.02 4.753,-0.679 6.128,-1.465 l 2.5,-1.429 -2.816,-0.036 c -3.224,-0.04 -5.977,-1.328 -10.011,-4.684 -3.606,-2.999 -5.049,-2.96 -7.54,0.207 m -44.883,1.044 c -1.687,0.762 -1.589,7.845 0.155,11.198 2.557,4.914 6.352,7.671 10.115,7.347 1.939,-0.167 4.684,0.451 6.339,1.429 3.464,2.046 6.141,1.324 6.141,-1.658 0,-1.964 0.366,-2.09 4.346,-1.493 3.009,0.451 4.674,0.255 5.414,-0.637 0.823,-0.991 0.461,-1.324 -1.568,-1.446 -2.507,-0.15 -4.337,-1.826 -8.493,-7.775 -0.991,-1.418 -3.572,-3.482 -5.738,-4.587 -3.896,-1.988 -14.299,-3.468 -16.711,-2.378 m -36.75,6.398 c -3.168,3.306 -6.892,3.908 -8.327,1.346 -2.218,-3.964 -7.173,2.874 -7.173,9.899 0,1.821 -0.75,4.381 -1.667,5.69 -1.606,2.293 -1.566,2.468 1.11,4.769 4.106,3.532 4.728,3.043 7.265,-5.704 0.356,-1.228 0.695,-1.146 1.867,0.446 1.91,2.596 3.418,1.023 4.134,-4.31 0.914,-6.816 5.287,-8.324 5.295,-1.827 0.004,3.748 3.517,10.021 5.276,9.423 0.671,-0.229 1.22,-1.641 1.22,-3.14 0,-1.553 0.752,-3.147 1.75,-3.708 0.963,-0.541 1.75,-1.883 1.75,-2.983 0,-3.98 -5.869,-12.901 -8.487,-12.901 -0.626,0 -2.432,1.35 -4.013,3 m 137.535,9.934 c -2.301,4.299 0.288,11.066 4.233,11.066 1.73,0 8.732,4.84 8.732,6.036 0,0.53 -0.685,0.964 -1.521,0.964 -1.895,0 -4.194,4.702 -2.902,5.935 1.151,1.1 17.516,1.807 19.047,0.824 1.251,-0.803 0.209,-8.334 -1.626,-11.763 -1.494,-2.791 -5.61,-4.618 -11.998,-5.325 -4.44,-0.491 -6.03,-1.196 -8.25,-3.655 -1.512,-1.676 -2.75,-3.715 -2.75,-4.532 0,-2.104 -1.739,-1.84 -2.965,0.45 m -180.478,1.289 c -3.481,4.969 -1.552,10.919 6.262,19.32 3.384,3.637 4.972,6.066 4.364,6.674 -0.526,0.526 -4.631,1.208 -9.122,1.516 -8.072,0.554 -8.162,0.59 -7.863,3.146 0.207,1.772 1.954,3.815 5.552,6.494 6.122,4.557 6.498,6.442 2.25,11.28 -3.194,3.638 -3.976,8.654003 -1.942,12.456003 0.945,1.764 1.725,1.906 7.25,1.312 5.945,-0.638 12.158,-3.318 12.908,-5.568 0.196,-0.589 0.179,-2.597 -0.039,-4.462003 -0.313,-2.681 -0.844,-3.388 -2.536,-3.376 -3.458,0.024 -7.011,2.316 -7.625,4.919003 -0.314,1.33 -1.121,2.601 -1.794,2.825 -2.236,0.746 -1.267,-3.397003 1.778,-7.600003 3.195,-4.41 3.729,-7.03 1.824,-8.935 -0.902,-0.902 -0.758,-1.64 0.619,-3.161 1.419,-1.568 1.657,-2.912 1.134,-6.399 -0.61,-4.065 -0.421,-4.617 2.375,-6.97 1.67,-1.406 3.94,-2.842 5.043,-3.192 3.859,-1.225 2.158,-2.752 -2.319,-2.081 -3.977,0.597 -4.418,0.44 -5.512,-1.961 -1.508,-3.309 -0.997,-4.081 3.224,-4.873 5.635,-1.057 5.994,-2.663 1.45,-6.477 -3.525,-2.96 -12.159,-7.11 -14.792,-7.11 -0.513,0 -1.633,1 -2.489,2.223 m 104.884,4.873 c -0.993,1.606 2.272,4.591 3.585,3.278 0.572,-0.572 0.752,-1.79 0.4,-2.707 -0.726,-1.891 -2.97,-2.213 -3.985,-0.571 m -46.534,6.644 c 1.354,2.632 6.016,5.26 9.332,5.26 1.286,0 4.092,0.894 6.235,1.987 3.603,1.837 4.033,1.865 5.688,0.366 2.226,-2.014 1.722,-2.861 -3.19,-5.367 -2.671,-1.363 -5.881,-1.986 -10.232,-1.986 -3.7,0 -6.891,-0.521 -7.662,-1.25 -1.092,-1.031 -1.121,-0.858 -0.171,0.99 m 24.093,6.638 c 0,0.207 0.787,0.995 1.75,1.75 1.586,1.243 1.621,1.208 0.378,-0.378 -1.307,-1.666 -2.128,-2.195 -2.128,-1.372 m 98.5,0.622 c 0.34,0.55 0.816,1 1.059,1 0.243,0 0.441,-0.45 0.441,-1 0,-0.55 -0.477,-1 -1.059,-1 -0.582,0 -0.781,0.45 -0.441,1 m -49.676,24 c -0.922,1.375 -1.984,4.188 -2.361,6.25 -0.775,4.24 -1.075,4.411 -3.64,2.089 -3.051,-2.761 -3.316,-0.624 -0.547,4.412003 1.618,2.942 3.298,4.749 4.414,4.749 2.542,0 4.462,-6.531 4.102,-13.958003 -0.291,-6.012 -0.3,-6.029 -1.968,-3.542 M 30,90.154427 c 0,1.132 0.45,1.781 1,1.441 0.55,-0.34 1,-1.266 1,-2.059 0,-0.793 -0.45,-1.441 -1,-1.441 -0.55,0 -1,0.927 -1,2.059 m 74.538,5.33 c -2.727,3.327 -4.738,4.693003 -8.317,5.648003 l -4.721,1.26 4.337,0.928 c 3.641,0.778 4.662,0.634 6.358,-0.899 1.925,-1.739 7.333,-11.326003 6.389,-11.326003 -0.248,0 -2.068,1.975 -4.046,4.389 m -64.444,7.861003 c -0.722,1.929 -0.439,2.359 1.987,3.017 4.868,1.32 5.919,4.038 5.919,15.306 0,10.496 1.258,16.427 3.485,16.427 0.71,0 3.253,-2.513 5.652,-5.584 2.4,-3.071 5.866,-7.176 7.703,-9.124 2.95,-3.126 3.168,-3.713 1.86,-5.02 -1.257,-1.257 -2.021,-1.285 -5.065,-0.185 -3.789,1.37 -5.804,0.682 -3.818,-1.304 0.651,-0.65 1.183,-2.27 1.183,-3.6 0,-1.946 0.4,-2.312 2.057,-1.878 1.307,0.341 1.917,0.111 1.673,-0.634 -0.211,-0.644 -1.544,-1.309 -2.96,-1.478 -3.228,-0.385 -5.77,2.933 -5.77,7.53 0,1.802 -0.461,3.277 -1.025,3.277 -1.665,0 -3.068,-4.988 -2.402,-8.538 0.524,-2.794 0.225,-3.548 -1.978,-4.992 -1.427,-0.935 -2.595,-2.548 -2.595,-3.585 0,-2.85 -4.815,-2.552 -5.906,0.365 m -6.281,2.433 c 0.721,0.289 1.584,0.253 1.916,-0.079 0.332,-0.332 -0.258,-0.568 -1.312,-0.525 -1.165,0.048 -1.402,0.285 -0.604,0.604 m 158.831,3.383 c -1.667,1.311 -3.234,4.141 -4.29,7.75 l -1.664,5.684 -1.414,-4.207 c -0.778,-2.314 -2.974,-5.576 -4.88,-7.25 -6.166,-5.414 -14.696,-3.646 -17.457,3.618 -1.48,3.893 -1.111,14.486 0.621,17.807 1.716,3.291 1.342,5.883 -1.343,9.324 -1.532,1.963 -3.22,2.437 -11.753,3.299 -8.31,0.839 -10.357,1.395 -12.329,3.345 -2.182,2.158 -2.269,2.627 -1.134,6.067 0.677,2.051 3.006,5.504 5.177,7.675 l 3.946,3.946 -2.062,3.495 c -1.134,1.923 -2.062,4.82 -2.062,6.438 0,3.136 3.016,6.943 5.5,6.943 1.798,0 1.928,2.839 0.369,8.043 -1.401,4.675 -0.518,8.539 2.293,10.044 1.176,0.629 5.06,1.506 8.63,1.949 3.571,0.443 6.902,1.404 7.404,2.135 1.127,1.642 0.27,12.813 -1.433,18.674 -1.238,4.261 -1.357,4.353 -6.063,4.723 -8.605,0.678 -13.7,5.565 -13.7,13.141 0,5.328 4.205,11.613 11.843,17.698 6.587,5.248 10.536,9.83 12.165,14.114 0.555,1.461 3.031,5.781 5.501,9.599 2.47,3.818 4.491,7.353 4.491,7.854 0,0.501 -0.938,2.502 -2.085,4.445 -2.596,4.4 -1.892,8.62 1.971,11.818 2.623,2.171 2.67,2.374 1.174,5.001 -1.404,2.465 -1.407,3.014 -0.027,5.5 0.844,1.519 4.383,4.63 7.866,6.913 9.447,6.193 9.597,6.414 9.273,13.636 -0.25,5.573 -0.007,6.519 2.211,8.603 1.576,1.481 4.179,2.532 7.078,2.858 2.522,0.285 4.812,0.884 5.089,1.333 0.277,0.448 -0.408,3.411 -1.523,6.583 -2.551,7.257 -2.538,8.825 0.093,11.456 1.96,1.96 2.785,2.067 10.972,1.427 8.498,-0.665 8.951,-0.595 11.292,1.746 1.341,1.341 3.393,4.31 4.56,6.597 1.824,3.575 1.966,4.682 1.012,7.884 -1.473,4.944 -0.171,8.155 4.983,12.297 2.233,1.795 4.061,3.909 4.061,4.697 0,0.788 -2.475,5.842 -5.5,11.232 -6.605,11.768 -7.08,15.493 -2.471,19.371 3.996,3.363 8.199,4.037 20.064,3.22 l 9.847,-0.678 0.59,2.793 c 0.831,3.939 1.747,5.411 4.77,7.669 2.299,1.716 3.235,1.84 7.15,0.944 2.477,-0.567 4.74,-0.796 5.027,-0.508 0.288,0.287 0.523,2.866 0.523,5.731 0,7.754 0.96,11.203 4.033,14.494 3.398,3.637 8.392,3.991 12.352,0.876 3.27,-2.572 4.982,-5.86 6.569,-12.612 1.546,-6.583 2.859,-7.678 8.277,-6.904 12.77,1.823 15.386,1.844 17.09,0.14 0.924,-0.923 1.679,-3.161 1.679,-4.972 0,-3.159 0.188,-3.318 4.64,-3.928 2.551,-0.35 5.917,-0.636 7.479,-0.636 4.954,0 10.587,-2.875 11.915,-6.083 1.085,-2.617 0.933,-3.368 -1.386,-6.872 -3.016,-4.558 -7.372,-7.301 -21.188,-13.344 -23.287,-10.184 -32.144,-18.804 -35.526,-34.571 -1.922,-8.964 -5.901,-12.08 -17.424,-13.646 -9.433,-1.282 -17.51,-12.675 -17.51,-24.698 0,-4.952 -2.161,-10.085 -5.117,-12.155 -1.483,-1.039 -4.371,-1.631 -7.956,-1.631 -10.966,0 -13.927,-2.481 -13.927,-11.665 0,-3.803 -0.536,-5.071 -3.321,-7.856 -2.084,-2.084 -4.692,-3.537 -7,-3.9 -2.024,-0.319 -5.227,-0.819 -7.119,-1.113 -6.679,-1.037 -10.089,-7.641 -11.232,-21.754 -0.567,-7.009 -0.923,-8.035 -3.556,-10.25 -2.331,-1.962 -4.041,-2.462 -8.414,-2.462 -3.019,0 -6.366,-0.469 -7.438,-1.043 -2.445,-1.309 -20.701,-29.104 -22.55,-34.333 -1.358,-3.843 -1.839,-15.276 -0.804,-19.127 0.456,-1.697 1.218,-1.949 4.99,-1.649 3.554,0.283 4.868,0.938 6.516,3.253 1.579,2.218 2.857,2.899 5.437,2.899 1.855,0 3.651,-0.45 3.991,-1 2.189,-3.542 8.092,1.635 11.072,9.711 2.256,6.114 4.132,8.289 7.149,8.289 8.315,0 11.009,-8.642 8.129,-26.08 -0.856,-5.184 -0.862,-7.598 -0.022,-9.442 1.051,-2.307 1.631,-2.478 8.416,-2.478 8.907,0 13.466,-2.076 16.086,-7.325 3.329,-6.668 -0.48,-13.564 -8.714,-15.776 -2.264,-0.608 -4.413,-1.583 -4.777,-2.167 -0.363,-0.584 -0.415,-3.436 -0.116,-6.34 0.505,-4.893 0.322,-5.501 -2.512,-8.335 -1.681,-1.681 -3.767,-3.057 -4.634,-3.057 -1.721,0 -2.13,-1.54 -0.652,-2.453 0.508,-0.315 2.983,-3.311 5.5,-6.658 5.482,-7.294 6.13,-12.079 2.143,-15.825 -2.188,-2.056 -3.212,-2.248 -10.25,-1.924 l -7.818,0.36 -0.5,-8.341 c -0.433,-7.231 -0.814,-8.596 -2.861,-10.25 -3.245,-2.624 -10.061,-2.545 -13.495,0.157 M 86,108.97443 c 0,2.08 -4.795,6.121 -7.263,6.121 -1.295,0 -3.228,0.65 -4.296,1.445 -1.899,1.413 -1.887,1.497 0.559,3.897 3.796,3.724 6.6,4.214 8.345,1.458 1.608,-2.541 3.999,-12.789 3.176,-13.613 -0.287,-0.286 -0.521,0.025 -0.521,0.692 m 108.733,3.871 c -1.901,2.109 -3.329,7.25 -2.015,7.25 0.515,0 0.73,1.4 0.479,3.111 -0.769,5.24 4.339,6.053 7.522,1.196 1.906,-2.91 3.573,-1.296 2.781,2.693 -0.885,4.459 1.506,7.438 6.422,8 2.485,0.284 4.693,1.148 5.111,2 3.467,7.069 3.466,7.065 1.653,10.225 -2.954,5.147 -1.362,4 4.148,-2.988 4.147,-5.258 5.198,-7.312 4.963,-9.703 l -0.297,-3.034 h -8.577 c -11.33,0 -11.923,-0.518 -11.923,-10.422 0,-4.639 -0.475,-8.153 -1.2,-8.878 -1.784,-1.784 -7.263,-1.452 -9.067,0.55 m -26.237,0.629 c -2.626,1.921 -3.37,13.117 -1.143,17.227 l 1.567,2.894 0.04,-4.75 c 0.047,-5.602 1.418,-6.165 3.04,-1.25 0.635,1.925 1.705,3.5 2.378,3.5 1.786,0 3.622,-2.129 3.622,-4.2 0,-2.186 2.292,-2.358 4,-0.3 1.328,1.601 5.544,2.046 6.391,0.676 0.28,-0.453 -0.481,-0.791 -1.691,-0.75 -1.706,0.057 -2.778,-1.138 -4.773,-5.323 -3.976,-8.342 -8.796,-11.113 -13.431,-7.724 m 42.658,29.059 c 0.191,0.917 0.796,1.644 1.346,1.615 1.484,-0.079 1.212,-2.316 -0.346,-2.835 -0.841,-0.28 -1.215,0.177 -1,1.22 m -66.651,7.302 c -4.006,0.589 -4.688,2.032 -2.694,5.701 l 1.664,3.059 0.335,-2.809 c 0.225,-1.875 1.392,-3.452 3.514,-4.746 3.163,-1.928 2.892,-2.044 -2.819,-1.205 m 4.135,4.76 c -0.86,2.241 0.392,4.64 2.238,4.291 0.925,-0.176 1.76,-1.488 1.94,-3.05 0.25,-2.163 -0.096,-2.741 -1.643,-2.741 -1.077,0 -2.218,0.675 -2.535,1.5 m 65.66,3 c 0.314,1.1 1.255,3.8 2.092,6 0.837,2.2 1.542,5.222 1.566,6.715 0.025,1.543 1.339,4.191 3.044,6.132 3.576,4.073 3.637,4.419 0.852,4.833 -5.299,0.789 -4.798,7.646 0.511,6.998 1.45,-0.176 2.637,0.161 2.637,0.75 0,0.59 -0.337,1.103 -0.75,1.141 -8.379,0.77 -11.896,2.927 -13.348,8.188 -0.644,2.334 -1.248,7.168 -1.342,10.743 l -0.171,6.5 -3.58,0.304 c -2.856,0.242 -3.986,-0.214 -5.593,-2.256 -1.107,-1.407 -3.296,-3.121 -4.864,-3.807 -1.569,-0.687 -4.129,-2.112 -5.69,-3.167 -3.02,-2.043 -11.714,-2.744 -14.912,-1.203 -1.279,0.616 -1.75,0.423 -1.75,-0.717 0,-4.907 -4.283,-8.654 -9.892,-8.654 -3.746,0 -6.169,-2.918 -6.785,-8.172 -0.443,-3.783 -1.874,-8.387 -5.54,-17.828 l -0.97,-2.5 -1.865,3.5 c -2.693,5.055 -2.446,6.93 1.073,8.157 4.522,1.576 5.154,3.625 3.333,10.801 -1.046,4.122 -1.243,6.553 -0.584,7.212 0.547,0.547 4.528,1.433 8.847,1.969 7.538,0.936 11.554,2.815 11.271,5.272 -0.354,3.078 0.298,3.589 4.582,3.589 3.807,0 4.799,0.445 6.688,3 2.204,2.981 5.16,3.913 6.342,2 0.34,-0.55 2.131,-1 3.981,-1 4.232,0 9.191,5.406 11.92,12.994 2.212,6.153 4.159,7.263 6.879,3.923 1.784,-2.19 1.895,-3.264 1.175,-11.417 -1.436,-16.272 -1.22,-20.182 1.251,-22.652 1.905,-1.904 3.174,-2.179 9.278,-2.015 4.773,0.128 8.052,-0.317 10.087,-1.37 6.891,-3.563 5.411,-11.557 -2.508,-13.551 -2.418,-0.609 -5.378,-2.022 -6.578,-3.141 -1.926,-1.794 -2.103,-2.675 -1.502,-7.483 0.762,-6.095 -0.936,-9.288 -4.938,-9.288 -1.18,0 -2.746,-0.562 -3.481,-1.25 -1.092,-1.022 -1.232,-0.885 -0.766,0.75 m 76.371,19.545 c -2.915,2.294 -4.655,7.384 -4.663,13.646 -0.003,2.305 -0.468,4.476 -1.032,4.825 -0.564,0.349 -4.163,-0.174 -7.996,-1.161 -6.292,-1.621 -7.381,-1.653 -11.192,-0.325 -4.74,1.651 -8.788,6.661 -8.782,10.868 0.006,4.155 3.408,8.628 9.932,13.059 3.335,2.265 6.064,4.496 6.064,4.958 0,0.462 -0.708,1.428 -1.573,2.146 -3.117,2.586 -5.546,9.196 -6.524,17.751 l -0.994,8.688 2.67,2.309 c 1.695,1.466 3.263,2.052 4.296,1.605 0.894,-0.387 5.675,-0.869 10.625,-1.072 6.788,-0.278 10.225,0.065 13.984,1.395 6.096,2.156 7.481,4.566 7.501,13.045 0.017,7.258 1.854,12.422 5.181,14.567 4.666,3.008 9.042,0.33 15.155,-9.272 1.198,-1.883 2.806,-3.629 3.573,-3.881 0.81,-0.267 4.621,2.947 9.1,7.673 6.396,6.749 8.229,8.131 10.788,8.131 3.074,0 5.894,-2.742 7.565,-7.356 0.66,-1.823 2.38,-1.837 7.016,-0.058 0.92,0.353 2.58,-0.438 4.093,-1.951 2.271,-2.271 2.544,-3.345 2.544,-10.007 v -7.464 l 7.859,-2.617 c 8.968,-2.987 12.141,-5.707 12.141,-10.407 0,-4.492 -3.58,-7.804 -9.374,-8.673 -4.384,-0.658 -4.624,-0.858 -4.582,-3.831 0.024,-1.725 0.403,-4.995 0.844,-7.268 1.165,-6.017 0.254,-10.072 -2.995,-13.321 -3.467,-3.467 -9.367,-4.706 -14.439,-3.032 -1.974,0.652 -3.788,0.984 -4.033,0.739 -0.245,-0.245 0.51,-2.604 1.677,-5.242 1.616,-3.655 2.021,-6.183 1.701,-10.617 -0.574,-7.932 -2.456,-9.895 -9.486,-9.895 -6.516,0 -10.846,1.725 -14.75,5.877 -2.55,2.712 -3.604,3.119 -8,3.092 -2.843,-0.017 -7.475,-1.004 -10.563,-2.25 -4.929,-1.989 -5.777,-2.787 -8.166,-7.691 -1.466,-3.01 -3.653,-6.273 -4.86,-7.25 -2.913,-2.359 -7.104,-2.25 -10.305,0.267 m 1.995,3.774 c -0.974,1.076 -1.958,4.255 -2.259,7.294 -0.852,8.606 -1.274,9.751 -4.168,11.322 l -2.737,1.485 3.628,0.04 c 3.987,0.044 5.361,-1.076 6.4,-5.216 0.824,-3.282 3.891,-3.699 5.472,-0.744 0.589,1.1 1.772,2 2.629,2 0.857,0 1.794,-0.9 2.081,-2 0.288,-1.1 1.258,-2.007 2.157,-2.015 1.417,-0.014 1.435,-0.141 0.133,-0.962 -0.825,-0.521 -2.85,-3.551 -4.5,-6.735 -3.289,-6.346 -5.929,-7.681 -8.836,-4.469 m 48.336,8.903 c -0.825,0.31 -3.402,2.299 -5.728,4.421 -3.884,3.543 -4.697,3.857 -10.006,3.857 -3.179,0 -7.321,-0.442 -9.206,-0.983 -1.885,-0.54 -3.639,-0.771 -3.897,-0.513 -0.846,0.846 6.389,3.368 11.674,4.069 4.541,0.602 5.652,0.369 9.087,-1.904 4.657,-3.082 9.076,-4.41 9.076,-2.728 0,0.637 -0.693,2.499 -1.541,4.138 -0.847,1.639 -1.271,3.417 -0.941,3.95 1.158,1.874 3.446,0.942 4.982,-2.029 2.683,-5.189 3.764,-3.688 3.061,4.25 l -0.642,7.25 3.013,-6.5 c 3.097,-6.683 3.854,-12.664 2.033,-16.066 -0.785,-1.466 -2.055,-1.915 -5.25,-1.855 -2.318,0.043 -4.89,0.333 -5.715,0.643 m -74.692,8.242 c -3.231,1.369 -5.644,5.561 -4.902,8.518 0.352,1.403 2.921,4.217 5.86,6.421 6.931,5.195 10.734,8.738 10.734,9.998 0,0.566 -1.284,2.508 -2.853,4.314 -4.283,4.93 -5.206,7.222 -6.08,15.095 -0.948,8.541 -0.281,9.898 4.229,8.605 8.958,-2.569 25.686,-0.024 30.324,4.614 2.458,2.458 3.125,1.732 1.39,-1.511 -1.474,-2.754 -9.212,-4.869 -21.01,-5.741 l -10.5,-0.777 -0.305,-5.912 c -0.277,-5.383 0.013,-6.373 3.25,-11.073 4.939,-7.171 4.766,-10.279 -0.945,-16.963 -4.584,-5.365 -6.323,-9.512 -2.563,-6.109 1.065,0.964 2.415,1.457 3,1.096 1.346,-0.832 1.391,-5.218 0.063,-6.039 -1.765,-1.091 -1.069,-2.499 1.25,-2.53 1.871,-0.026 1.981,-0.188 0.654,-0.964 -2.504,-1.464 -9.182,-2.064 -11.596,-1.042 m 13.692,10.536 c 0,1.689 0.458,2.514 1.25,2.25 0.688,-0.229 1.25,-1.242 1.25,-2.25 0,-1.008 -0.562,-2.021 -1.25,-2.25 -0.792,-0.264 -1.25,0.561 -1.25,2.25 m 78.75,5.189 c -2.579,0.674 -2.136,1.909 1.178,3.281 6.021,2.494 7.302,5.802 5.645,14.578 -0.742,3.933 -0.646,4.129 3.391,6.927 7.993,5.539 7.757,8.27 -1.209,14.025 -5.261,3.377 -6.321,4.545 -6.808,7.5 -0.878,5.33 -2.745,8.01 -6.037,8.668 -1.64,0.328 -3.468,1.549 -4.063,2.714 -1.587,3.109 -5.006,5.57 -7.771,5.596 l -2.425,0.022 2.349,2.5 c 1.292,1.375 2.936,2.5 3.654,2.5 1.415,0 5.346,-6.956 5.346,-9.46 0,-1.904 0.053,-1.903 4.978,0.068 6.247,2.5 6.9,1.763 7.232,-8.163 l 0.29,-8.647 8,-2.501 c 8.531,-2.667 11.5,-4.559 11.5,-7.33 0,-2.398 -1.834,-3.669 -6.5,-4.504 -7.352,-1.316 -8.794,-4.834 -6.608,-16.12 1.094,-5.648 -0.705,-9.734 -4.936,-11.209 -3.358,-1.17 -4.225,-1.224 -7.206,-0.445 m -202.726,19.333 c -6.753,1.589 -8.974,8.087 -4.974,14.559 1.127,1.824 4.39,5.221 7.25,7.55 l 5.2,4.233 -4.704,-4.932 c -9.728,-10.2 -9.55,-17.329 0.495,-19.803 1.535,-0.378 2.521,-1.124 2.191,-1.658 -0.67,-1.084 -0.629,-1.085 -5.458,0.051 m 7.796,2.365 c 0.59,2.174 11.75,16.613 12.841,16.613 0.22,0 -1.751,-3.275 -4.381,-7.278 -2.629,-4.004 -5.262,-8.139 -5.851,-9.191 -1.67,-2.98 -3.403,-3.076 -2.609,-0.144 m -5.82,4.165 c 0,1.409 4.619,8.433 5.55,8.44 0.577,0.005 1.579,-0.521 2.225,-1.167 0.9,-0.9 0.361,-1.727 -2.3,-3.536 -1.911,-1.299 -3.475,-2.795 -3.475,-3.325 0,-0.53 -0.45,-0.964 -1,-0.964 -0.55,0 -1,0.248 -1,0.552 m 118.651,1.916 c -0.642,1.671 0.848,2.959 2.349,2.032 1.495,-0.924 1.206,-3.5 -0.393,-3.5 -0.766,0 -1.647,0.661 -1.956,1.468 m 90.349,3.532 c 0,1.1 0.6,2 1.333,2 1.881,0 2.619,-0.962 1.991,-2.598 -0.816,-2.127 -3.324,-1.676 -3.324,0.598 m -45.893,23.017 c -5.896,7.336 -11.043,8.767 -13.108,3.645 -0.819,-2.029 -0.876,-1.996 -0.936,0.541 -0.076,3.244 1.727,7.502 3.458,8.167 1.837,0.705 5.26,-2.034 7.099,-5.681 2.345,-4.649 6.448,-8.69 8.817,-8.683 1.135,0.004 3.303,0.653 4.818,1.443 2.575,1.344 2.691,1.319 1.778,-0.388 -2.424,-4.528 -7.87,-4.092 -11.926,0.956 m -8.638,0.033 c -0.95,1.538 0.351,2.53 1.635,1.246 0.718,-0.718 0.735,-1.277 0.052,-1.699 -0.56,-0.346 -1.319,-0.142 -1.687,0.453 m -116.231,7.45 c 2.454,2.2 6.346,6.813 8.649,10.25 2.303,3.438 4.292,6.25 4.42,6.25 0.835,0 -2.061,-17.011 -3.111,-18.27 -0.874,-1.049 -3.461,-1.674 -7.861,-1.897 l -6.558,-0.333 4.461,4 m -104.848,-0.151 c -1.589,1.35 -4.015,4.637 -5.39,7.303 -1.375,2.666 -2.602,5.025 -2.726,5.241 -0.124,0.215 -0.799,-0.06 -1.5,-0.613 -2.965,-2.337 -6.522,-2.256 -11.251,0.259 -3.585,1.906 -5.552,2.358 -8.142,1.873 -4.792,-0.899 -8.921,1.098 -10.902,5.273 -1.373,2.894 -2.035,3.38 -3.82,2.804 -5.323,-1.719 -8.766,-1.703 -10.704,0.051 -1.075,0.974 -1.955,2.42 -1.955,3.214 0,3.161 3.407,8.331 6.856,10.404 2.004,1.204 3.792,2.297 3.974,2.429 0.181,0.132 -1.376,1.802 -3.46,3.713 -3.703,3.393 -3.784,3.62 -3.552,9.899 0.147,4.007 -0.338,7.801 -1.291,10.081 -2.144,5.133 -1.953,10.294 0.473,12.72 2.405,2.405 3.906,2.447 15.392,0.438 4.89,-0.855 9.252,-1.191 9.692,-0.746 0.441,0.444 0.94,3.237 1.109,6.207 0.26,4.571 0.738,5.719 3.118,7.49 l 2.811,2.092 3.881,-2.126 3.881,-2.125 0.979,2.807 c 2.051,5.885 9.433,5.998 12.081,0.187 l 1.203,-2.641 3.887,4.208 c 4.379,4.743 7.753,5.422 10.966,2.209 1.1,-1.1 2,-3.125 2,-4.5 0,-1.375 0.179,-2.5 0.398,-2.5 0.219,0 2.356,1.12 4.75,2.488 5.207,2.976 6.909,3.096 9.877,0.693 1.878,-1.521 2.225,-2.732 2.118,-7.384 -0.177,-7.69 0.785,-8.307 12.415,-7.961 12.937,0.386 16.442,-1.529 16.442,-8.984 0,-4.323 -1.396,-6.343 -7.506,-10.857 -4.682,-3.458 -5.648,-4.758 -6.886,-9.259 -0.792,-2.88 -1.724,-8.836 -2.071,-13.236 -1.359,-17.225 -2.942,-18.894 -14.773,-15.574 -5.521,1.549 -8.198,1.86 -10.029,1.163 -1.379,-0.524 -5.27,-4.789 -8.685,-9.519 -3.402,-4.714 -6.569,-8.57 -7.036,-8.57 -0.468,0 -1.499,-0.249 -2.292,-0.553 -0.793,-0.305 -2.742,0.551 -4.332,1.902 m 1.59,4.175 c -0.696,0.838 -1.088,1.626 -0.873,1.75 0.216,0.124 1.743,0.977 3.393,1.896 1.65,0.918 4.722,4.172 6.826,7.232 4.446,6.462 7.826,7.855 17.927,7.387 l 6.247,-0.289 2.404,7 c 1.699,4.949 2.464,9.551 2.609,15.707 0.192,8.145 0.403,8.933 3.258,12.185 4.34,4.943 4.981,7.581 2.356,9.706 -1.17,0.948 -2.127,1.988 -2.127,2.312 0,1.188 12.653,0.564 14.395,-0.709 3.306,-2.418 1.706,-6.718 -4.112,-11.049 -7.195,-5.356 -8.925,-9.423 -10.631,-24.985 -0.773,-7.051 -1.799,-13.214 -2.28,-13.695 -0.499,-0.499 -4.091,-0.028 -8.373,1.098 -4.153,1.092 -8.728,1.704 -10.252,1.371 -3.393,-0.741 -7.599,-4.86 -12.831,-12.565 -4.121,-6.069 -5.764,-6.969 -7.936,-4.352 m -1.382,4.212 c -1.325,1.324 -0.478,5.258 1.341,6.232 2.407,1.287 3.494,-0.107 2.664,-3.415 -0.586,-2.332 -2.878,-3.945 -4.005,-2.817 m -20.904,8.42 c -2.145,1.599 -3.736,1.968 -6.754,1.563 -5.809,-0.779 -7.631,0.053 -9.311,4.249 -1.889,4.721 -3.642,5.411 -8.657,3.404 -2.182,-0.873 -4.66,-1.322 -5.505,-0.998 -1.369,0.526 -1.375,0.904 -0.049,3.467 0.818,1.583 2.877,3.453 4.575,4.156 2.842,1.177 6.007,4.433 6.007,6.179 0,0.402 -1.995,2.698 -4.434,5.102 -4.245,4.185 -4.397,4.537 -3.564,8.229 0.67,2.972 0.409,5.187 -1.138,9.658 -1.104,3.19 -1.863,6.816 -1.686,8.057 0.329,2.308 2.783,3.391 5.403,2.385 1.206,-0.463 1.244,-0.915 0.214,-2.563 -1.007,-1.613 -0.987,-2.636 0.103,-5.273 0.744,-1.799 1.566,-4.846 1.826,-6.771 0.26,-1.925 1.779,-5.161 3.375,-7.191 3.647,-4.641 3.633,-6.759 -0.1,-14.649 -1.649,-3.487 -2.999,-6.573 -2.999,-6.858 0,-0.285 1.137,-0.233 2.527,0.115 2.024,0.508 3.17,-0.046 5.75,-2.78 3.049,-3.232 3.69,-3.451 11.886,-4.071 5.641,-0.427 8.889,-0.292 9.309,0.389 0.912,1.475 5.072,1.3 6.373,-0.268 0.823,-0.992 0.378,-2.092 -1.821,-4.5 -3.457,-3.784 -7.184,-4.123 -11.33,-1.031 m 109.303,5.85 c -1.348,2.519 0.697,6.445 3.884,7.456 2.737,0.869 3.421,3.428 1.642,6.144 -2.246,3.428 -1.889,5.022 1.727,7.696 6.079,4.495 6.081,4.495 5.552,-1.007 -0.332,-3.464 -1.334,-6.069 -3.262,-8.485 -1.53,-1.917 -3.515,-5.667 -4.411,-8.332 -1.843,-5.483 -3.468,-6.582 -5.132,-3.472 m 41.791,11.645 c 1.99,2.38 5.073,4.808 6.852,5.395 1.779,0.587 4.388,1.975 5.798,3.084 l 2.562,2.015 v -4.072 c 0,-5.034 -2.447,-7.747 -7.694,-8.529 -2.093,-0.312 -5.455,-0.939 -7.471,-1.394 l -3.664,-0.827 3.617,4.328 m -167.342,-0.564 c -1.03,1.668 1.287,3.58 2.667,2.2 1.154,-1.154 0.432,-3.287 -1.113,-3.287 -0.485,0 -1.184,0.489 -1.554,1.087 m 187.496,20.793 c 2.297,4.257 8.403,8.12 12.837,8.12 4.448,0 5.954,2.525 6.395,10.718 0.429,7.983 2.056,11.112 7.816,15.032 5.199,3.538 6.703,2.804 2.969,-1.449 -4.595,-5.234 -6.924,-11.121 -7.923,-20.028 -1.06,-9.451 -2.714,-11.251 -10.397,-11.317 -2.826,-0.024 -6.811,-0.641 -8.855,-1.37 -3.357,-1.199 -3.631,-1.17 -2.842,0.294 m -40.725,7.122 c -0.247,5.1 0.002,6.038 1.972,7.418 1.241,0.869 3.311,1.58 4.601,1.58 1.971,0 2.234,-0.359 1.649,-2.25 -1.202,-3.888 -4.152,-9.184 -6.083,-10.918 -1.784,-1.604 -1.867,-1.443 -2.139,4.17 m -150.717,4.998 c 0.34,0.55 0.816,1 1.059,1 0.243,0 0.441,-0.45 0.441,-1 0,-0.55 -0.477,-1 -1.059,-1 -0.582,0 -0.781,0.45 -0.441,1 m 68.155,3.829 c -0.91,1.006 -1.662,3.368 -1.67,5.25 -0.017,3.83 -0.777,5.387 -2.985,6.118 -1.064,0.352 -0.482,1.121 2,2.646 1.925,1.182 3.95,2.003 4.5,1.824 0.55,-0.178 1.227,-3.143 1.504,-6.588 0.394,-4.886 0.993,-6.658 2.725,-8.061 l 2.221,-1.798 -2.225,-0.596 c -3.455,-0.926 -4.292,-0.76 -6.07,1.205 m 95.035,13.769 c -0.991,2.976 -1.525,5.86 -1.187,6.407 0.338,0.547 2.189,0.995 4.113,0.995 3.414,0 3.46,-0.053 1.941,-2.223 -0.856,-1.222 -1.557,-3.895 -1.557,-5.94 0,-5.59 -1.295,-5.292 -3.31,0.761 M 68,359.09543 c 0,0.55 0.477,1 1.059,1 0.582,0 0.781,-0.45 0.441,-1 -0.34,-0.55 -0.816,-1 -1.059,-1 -0.243,0 -0.441,0.45 -0.441,1 m 30.149,3.036 c 3.719,4.628 6.002,4.77 6.89,0.429 0.596,-2.916 0.504,-3.01 -2.592,-2.649 -1.766,0.207 -3.515,-0.118 -3.888,-0.72 -0.372,-0.603 -1.347,-1.096 -2.165,-1.096 -1.028,0 -0.485,1.249 1.755,4.036 M 82,360.90443 c 0,2.071 2.551,4.122 3.995,3.212 1.282,-0.808 1.211,-1.157 -0.5,-2.45 -2.24,-1.692 -3.495,-1.966 -3.495,-0.762 m 201,9.161 c 0.825,0.567 3.239,1.512 5.365,2.1 5.536,1.531 8.227,4.655 9.038,10.493 0.938,6.754 2.372,10.06 5.154,11.882 l 2.354,1.543 -2.348,-4.744 c -1.291,-2.609 -2.863,-7.208 -3.493,-10.22 -1.371,-6.552 -4.124,-9.791 -8.98,-10.566 -1.974,-0.315 -4.715,-0.786 -6.09,-1.046 -1.943,-0.367 -2.166,-0.243 -1,0.558 m -42.886,6.019 c 1.233,2.194 2.438,3.792 2.678,3.552 0.483,-0.483 -3.67,-7.541 -4.438,-7.541 -0.265,0 0.527,1.795 1.76,3.989 m 50.386,2.011 c 0.34,0.55 0.816,1 1.059,1 0.243,0 0.441,-0.45 0.441,-1 0,-0.55 -0.477,-1 -1.059,-1 -0.582,0 -0.781,0.45 -0.441,1 m -48.574,9.695 c -1.184,3.114 0.435,5.899 5.861,10.084 l 3.23,2.49 -1.333,-2.884 c -4.555,-9.862 -5.83,-12.385 -6.256,-12.385 -0.262,0 -0.939,1.213 -1.502,2.695 m 1.169,32.79 c -4.254,7.538 -4.111,10.19 0.655,12.193 3.009,1.265 5.879,1.449 14.529,0.93 6.497,-0.39 11.512,-0.255 12.623,0.34 1.014,0.542 2.345,2.976 2.957,5.407 1.298,5.153 2.908,6.054 8.246,4.617 3.852,-1.038 3.875,-1.073 2.284,-3.501 -0.884,-1.349 -4.565,-3.909 -8.179,-5.688 -3.614,-1.78 -7.549,-4.213 -8.744,-5.408 -1.984,-1.984 -2.901,-2.127 -10.591,-1.647 -10.265,0.641 -11.376,-0.166 -10.649,-7.733 0.264,-2.747 0.364,-4.995 0.223,-4.995 -0.142,0 -1.651,2.468 -3.354,5.485 m 5.105,-1.285 c -1.906,1.906 -1.457,4.8 0.743,4.8 2.072,0 5.321,-3.764 4.456,-5.163 -0.761,-1.232 -3.818,-1.018 -5.199,0.363 m 91.8,1.271 c 0,1.559 -9.874,8.529 -12.082,8.529 -0.756,0 -3.067,1.852 -5.136,4.115 -3.645,3.988 -3.904,4.094 -8.378,3.423 -7.113,-1.067 -9.765,0.576 -15.594,9.663 -3.584,5.587 -5.515,7.742 -6.575,7.336 -1.238,-0.475 -1.411,0.209 -0.992,3.929 0.991,8.791 5.949,12.152 10.608,7.193 1.21,-1.288 3.074,-5.399 4.143,-9.137 1.068,-3.737 2.743,-7.679 3.721,-8.759 1.851,-2.046 3.44,-2.059 18.573,-0.157 l 4.789,0.601 -0.25,-3.712 c -0.332,-4.92 1.501,-6.139 10.484,-6.968 8.639,-0.798 13.325,-2.137 14.045,-4.012 1.114,-2.904 -6.476,-9.363 -14.606,-12.429 -2.197,-0.828 -2.75,-0.75 -2.75,0.385"
     stroke="none"
     fill="#000000"
     fill-rule="evenodd"
     id="path2" />
</svg>
