<?xml version="1.0" encoding="UTF-8"?>
<svg width="1200pt" height="1200pt" version="1.1" viewBox="0 0 1200 1200" xmlns="http://www.w3.org/2000/svg">
 <g>
  <path d="m756.94 423.94c0-78.422-63.797-142.22-142.22-142.22-78.422 0-142.22 63.797-142.22 142.22s63.797 142.22 142.22 142.22c78.422 0 142.22-63.797 142.22-142.22zm-262.22 0c0-66.141 53.859-120 120-120s120 53.859 120 120-53.859 120-120 120-120-53.859-120-120z"/>
  <path d="m896.86 829.08c-5.2031-42.703-11.672-95.859-40.266-137.29-29.859-43.5-76.875-64.969-111-75.328-41.859-12.797-79.688-15.281-130.92-15.281s-89.062 2.5312-130.78 15.281c-34.219 10.359-81.234 31.828-111.14 75.328-28.312 41.062-34.688 92.203-40.312 137.34-5.7188 47.344-11.578 94.828-17.438 142.22-0.75 6.1406 3.6094 11.672 9.7031 12.422 0.46875 0.046875 0.9375 0.09375 1.3594 0.09375 5.5312 0 10.312-4.125 11.062-9.75 5.8594-47.391 11.719-94.875 17.438-142.22 5.2969-42.609 11.297-90.891 36.562-127.45 26.25-38.203 68.438-57.328 99.281-66.656 39.047-11.953 75.141-14.297 124.26-14.297 49.121 0 85.219 2.3438 124.45 14.297 30.75 9.3281 72.891 28.5 99.141 66.703 25.5 36.938 31.359 84.984 36.516 127.36 5.7188 47.391 11.578 94.875 17.438 142.22 0.70312 5.625 5.4844 9.75 11.062 9.75 0.42188 0 0.9375 0 1.3594-0.09375 6.1406-0.75 10.453-6.3281 9.7031-12.422-5.8594-47.344-11.672-94.828-17.438-142.22z"/>
  <path d="m801.32 771.79c-22.078 2.0625-41.906 17.531-49.406 38.391-2.0625 5.8125 0.9375 12.141 6.7031 14.25 1.2188 0.42188 2.5312 0.65625 3.75 0.65625 3.1406 0 6.0469-1.3125 8.1562-3.6094l-4.6875 150.79c-0.1875 6.1406 4.6406 11.297 10.781 11.484h0.375c6 0 10.922-4.7812 11.109-10.781l5.3906-174.24c0-0.75 0-1.5-0.14062-2.2031 3.2344-1.3594 6.6094-2.2969 10.078-2.5781 6.1406-0.60938 10.594-6 10.031-12.141s-6-10.594-12.141-10.031z"/>
  <path d="m435.19 771.79c-6.1406-0.60938-11.578 3.9375-12.141 10.031-0.60938 6.1406 3.9375 11.578 10.031 12.141 3.4688 0.32812 6.8438 1.2188 10.078 2.5781-0.14062 0.60938-0.1875 1.2188-0.1875 1.875v174.24c0 6.1406 5.0156 11.109 11.109 11.109 6.1406 0 11.109-5.0156 11.109-11.109v-152.02c2.1094 2.8125 5.3906 4.4531 8.8594 4.4531 1.2188 0 2.5312-0.1875 3.75-0.65625 5.8125-2.0625 8.8125-8.4375 6.7031-14.25-7.5-20.859-27.328-36.328-49.406-38.391z"/>
  <path d="m961.45 821.16c-6.1406-49.828-13.734-111.89-51.328-166.31-30.469-44.297-77.578-78-136.69-97.781 31.406-37.312 48.469-83.906 48.469-133.08 0-114.28-93-207.28-207.28-207.28s-207.28 93-207.28 207.28c0 49.219 17.109 95.859 48.562 133.18-58.922 19.688-106.08 53.344-136.74 97.734-37.5 54.281-45.047 116.2-51.141 165.94l-18.422 150.56c-0.75 6.1406 3.6094 11.625 9.7031 12.422 6.1406 0.75 11.625-3.6094 12.422-9.7031l18.375-150.14v-0.42187c5.8594-47.297 13.078-106.22 47.438-156 29.297-42.422 75.562-74.203 134.06-92.016 1.3594-0.42187 2.7188-0.79687 4.0312-1.1719 1.2188-0.32813 2.4844-0.70313 3.7031-1.0312 3.75-1.125 6.6094-4.1719 7.5469-7.9688 0.9375-3.7969-0.14062-7.7812-2.9062-10.547-35.062-35.062-54.328-81.469-54.328-130.78 0-102 83.016-185.02 185.02-185.02s185.02 83.016 185.02 185.02c0 49.312-19.266 95.766-54.328 130.78-2.8125 2.8125-3.8906 6.8438-2.9062 10.641 0.9375 3.7969 3.8906 6.8438 7.6875 7.9219 1.4062 0.42188 2.7656 0.75 4.125 1.125 1.2656 0.32813 2.5312 0.65625 3.7969 1.0312 58.406 17.859 104.62 49.688 133.78 92.062 34.5 50.016 41.719 108.98 47.578 156.42l18.375 150.14c0.70312 5.625 5.4844 9.7969 11.062 9.7969 0.42188 0 0.9375 0 1.3594-0.09375 6.1406-0.75 10.453-6.2812 9.7031-12.422l-18.375-150.14z"/>
  <path d="m1068.1 582.42h-15.984c-0.46875-2.3906-1.1719-4.7344-1.9219-6.9844l13.875-8.0156c5.2969-3.0938 7.1719-9.8906 4.0781-15.188s-9.8906-7.1719-15.188-4.0781l-13.922 8.0625c-1.5938-1.7812-3.3281-3.5156-5.1094-5.1094l8.0625-13.922c3.0938-5.2969 1.2188-12.141-4.0781-15.188-5.2969-3.0938-12.141-1.2188-15.188 4.0781l-8.0156 13.875c-2.2969-0.75-4.5938-1.4531-6.9844-1.9219v-15.984c0-6.1406-5.0156-11.109-11.109-11.109-6.1406 0-11.109 5.0156-11.109 11.109v15.984c-2.3906 0.46875-4.7344 1.1719-6.9844 1.9219l-8.0156-13.875c-3.0938-5.2969-9.8906-7.1719-15.188-4.0781s-7.1719 9.8906-4.0781 15.188l8.0625 13.922c-1.7812 1.5938-3.5156 3.3281-5.1094 5.1094l-13.922-8.0625c-5.2969-3.0938-12.141-1.2188-15.188 4.0781-3.0938 5.2969-1.2188 12.141 4.0781 15.188l13.875 8.0156c-0.75 2.2969-1.4531 4.5938-1.9219 6.9844h-15.984c-6.1406 0-11.109 5.0156-11.109 11.109 0 6.1406 5.0156 11.109 11.109 11.109h15.984c0.46875 2.3906 1.1719 4.7344 1.9219 6.9844l-13.875 8.0156c-5.2969 3.0938-7.1719 9.8906-4.0781 15.188 2.0625 3.5625 5.8125 5.5781 9.6562 5.5781 1.875 0 3.7969-0.46875 5.5781-1.5l13.922-8.0625c1.5938 1.7812 3.3281 3.5156 5.1094 5.1094l-8.0625 13.922c-3.0938 5.2969-1.2188 12.141 4.0781 15.188 1.7812 0.98438 3.7031 1.5 5.5781 1.5 3.8438 0 7.5938-2.0156 9.6562-5.5781l8.0156-13.875c2.2969 0.75 4.5938 1.4531 6.9844 1.9219v15.984c0 6.1406 5.0156 11.109 11.109 11.109 6.1406 0 11.109-5.0156 11.109-11.109v-15.984c2.3906-0.46875 4.7344-1.1719 6.9844-1.9219l8.0156 13.875c2.0625 3.5625 5.8125 5.5781 9.6562 5.5781 1.875 0 3.7969-0.46875 5.5781-1.5 5.2969-3.0938 7.1719-9.8906 4.0781-15.188l-8.0625-13.922c1.7812-1.5938 3.5156-3.3281 5.1094-5.1094l13.922 8.0625c1.7812 0.98438 3.7031 1.5 5.5781 1.5 3.8438 0 7.5938-2.0156 9.6562-5.5781 3.0938-5.2969 1.2188-12.141-4.0781-15.188l-13.875-8.0156c0.75-2.2969 1.4531-4.5938 1.9219-6.9844h15.984c6.1406 0 11.109-5.0156 11.109-11.109 0-6.1406-5.0156-11.109-11.109-11.109zm-71.578 45.609c-18.984 0-34.5-15.469-34.5-34.5 0-18.984 15.469-34.5 34.5-34.5 18.984 0 34.5 15.469 34.5 34.5 0 18.984-15.469 34.5-34.5 34.5z"/>
  <path d="m255.14 568.31 8.0156-13.875c2.2969 0.75 4.5938 1.4531 6.9844 1.9219v15.984c0 6.1406 5.0156 11.109 11.109 11.109 6.1406 0 11.109-5.0156 11.109-11.109v-15.984c2.3906-0.46875 4.7344-1.1719 6.9844-1.9219l8.0156 13.875c2.0625 3.5625 5.8125 5.5781 9.6562 5.5781 1.875 0 3.7969-0.46875 5.5781-1.5 5.2969-3.0938 7.1719-9.8906 4.0781-15.188l-8.0625-13.922c1.7812-1.5938 3.5156-3.3281 5.1094-5.1094l13.922 8.0625c1.7812 0.98438 3.7031 1.5 5.5781 1.5 3.8438 0 7.5938-2.0156 9.6562-5.5781 3.0938-5.2969 1.2188-12.141-4.0781-15.188l-13.875-8.0156c0.75-2.2969 1.4531-4.5938 1.9219-6.9844h15.984c6.1406 0 11.109-5.0156 11.109-11.109 0-6.1406-5.0156-11.109-11.109-11.109h-15.984c-0.46875-2.3906-1.1719-4.7344-1.9219-6.9844l13.875-8.0156c5.2969-3.0938 7.1719-9.8906 4.0781-15.188s-9.8906-7.1719-15.188-4.0781l-13.922 8.0625c-1.5938-1.7812-3.3281-3.5156-5.1094-5.1094l8.0625-13.922c3.0938-5.2969 1.2188-12.141-4.0781-15.188-5.2969-3.0938-12.141-1.2188-15.188 4.0781l-8.0156 13.875c-2.2969-0.75-4.5938-1.4531-6.9844-1.9219v-15.984c0-6.1406-5.0156-11.109-11.109-11.109-6.1406 0-11.109 5.0156-11.109 11.109v15.984c-2.3906 0.46875-4.7344 1.1719-6.9844 1.9219l-8.0156-13.875c-3.0938-5.2969-9.8906-7.1719-15.188-4.0781s-7.1719 9.8906-4.0781 15.188l8.0625 13.922c-1.7812 1.5938-3.5156 3.3281-5.1094 5.1094l-13.922-8.0625c-5.2969-3.0938-12.141-1.2188-15.188 4.0781-3.0938 5.2969-1.2188 12.141 4.0781 15.188l13.875 8.0156c-0.75 2.2969-1.4531 4.5938-1.9219 7.0312h-15.984c-6.1406 0-11.109 5.0156-11.109 11.109 0 6.1406 5.0156 11.109 11.109 11.109h15.984c0.46875 2.3906 1.1719 4.7344 1.9219 6.9844l-13.875 8.0156c-5.2969 3.0938-7.1719 9.8906-4.0781 15.188 2.0625 3.5625 5.8125 5.5781 9.6562 5.5781 1.875 0 3.7969-0.46875 5.5781-1.5l13.922-8.0625c1.5938 1.7812 3.3281 3.5156 5.1094 5.1094l-8.0625 13.922c-3.0938 5.2969-1.2188 12.141 4.0781 15.188 1.7812 0.98438 3.7031 1.5 5.5781 1.5 3.8438 0 7.5938-2.0156 9.6562-5.5781zm26.156-102.09c18.984 0 34.5 15.469 34.5 34.5 0 18.984-15.469 34.5-34.5 34.5-18.984 0-34.5-15.469-34.5-34.5 0-18.984 15.469-34.5 34.5-34.5z"/>
  <path d="m234.32 846.05h-20.578c-0.70312-3.8438-1.6875-7.5938-3-11.203l17.859-10.312c5.2969-3.0938 7.1719-9.8906 4.0781-15.188s-9.8906-7.1719-15.188-4.0781l-17.859 10.266c-2.4844-2.9531-5.25-5.7188-8.2031-8.2031l10.266-17.859c3.0938-5.2969 1.2188-12.141-4.0781-15.188-5.2969-3.0938-12.141-1.2188-15.188 4.0781l-10.312 17.859c-3.6094-1.3125-7.3125-2.2969-11.203-3v-20.578c0-6.1406-5.0156-11.109-11.109-11.109-6.1406 0-11.109 5.0156-11.109 11.109v20.578c-3.8438 0.70312-7.5938 1.6875-11.203 3l-10.312-17.859c-3.0938-5.2969-9.8906-7.1719-15.188-4.0781s-7.1719 9.8906-4.0781 15.188l10.266 17.859c-2.9531 2.4844-5.7188 5.25-8.2031 8.2031l-17.859-10.266c-5.2969-3.0938-12.141-1.2188-15.188 4.0781-3.0938 5.2969-1.2188 12.141 4.0781 15.188l17.859 10.312c-1.3125 3.6094-2.2969 7.3125-3 11.203h-20.578c-6.1406 0-11.109 5.0156-11.109 11.109 0 6.1406 5.0156 11.109 11.109 11.109h20.578c0.70312 3.8438 1.6875 7.5938 3 11.203l-17.859 10.312c-5.2969 3.0938-7.1719 9.8906-4.0781 15.188 2.0625 3.5625 5.8125 5.5781 9.6562 5.5781 1.875 0 3.7969-0.46875 5.5781-1.5l17.859-10.266c2.4844 2.9531 5.25 5.7188 8.2031 8.2031l-10.266 17.859c-3.0938 5.2969-1.2188 12.141 4.0781 15.188 1.7812 0.98438 3.7031 1.5 5.5781 1.5 3.8438 0 7.5938-2.0156 9.6562-5.5781l10.312-17.859c3.6094 1.3125 7.3125 2.2969 11.203 3v20.578c0 6.1406 5.0156 11.109 11.109 11.109 6.1406 0 11.109-5.0156 11.109-11.109v-20.578c3.8438-0.70312 7.5938-1.6875 11.203-3l10.312 17.859c2.0625 3.5625 5.8125 5.5781 9.6562 5.5781 1.875 0 3.7969-0.46875 5.5781-1.5 5.2969-3.0938 7.1719-9.8906 4.0781-15.188l-10.266-17.859c2.9531-2.4844 5.7188-5.25 8.2031-8.2031l17.859 10.266c1.7812 0.98438 3.7031 1.5 5.5781 1.5 3.8438 0 7.5938-2.0156 9.6562-5.5781 3.0938-5.2969 1.2188-12.141-4.0781-15.188l-17.859-10.312c1.3125-3.6094 2.2969-7.3125 3-11.203h20.578c6.1406 0 11.109-5.0156 11.109-11.109 0-6.1406-5.0156-11.109-11.109-11.109zm-84.516 53.812c-23.531 0-42.703-19.172-42.703-42.703s19.172-42.703 42.703-42.703 42.703 19.172 42.703 42.703-19.172 42.703-42.703 42.703z"/>
  <path d="m818.76 323.02h20.578c0.70312 3.8438 1.6875 7.5938 3 11.203l-17.859 10.312c-5.2969 3.0938-7.1719 9.8906-4.0781 15.188 2.0625 3.5625 5.8125 5.5781 9.6562 5.5781 1.875 0 3.7969-0.46875 5.5781-1.5l17.859-10.266c2.4844 2.9531 5.25 5.7188 8.2031 8.2031l-10.266 17.859c-3.0938 5.2969-1.2188 12.141 4.0781 15.188 1.7812 0.98438 3.7031 1.5 5.5781 1.5 3.8438 0 7.5938-2.0156 9.6562-5.5781l10.312-17.859c3.6094 1.3125 7.3125 2.2969 11.203 3v20.578c0 6.1406 5.0156 11.109 11.109 11.109 6.1406 0 11.109-5.0156 11.109-11.109v-20.578c3.8438-0.70312 7.5938-1.6875 11.203-3l10.312 17.859c2.0625 3.5625 5.8125 5.5781 9.6562 5.5781 1.875 0 3.7969-0.46875 5.5781-1.5 5.2969-3.0938 7.1719-9.8906 4.0781-15.188l-10.266-17.812c2.9531-2.4844 5.7188-5.25 8.2031-8.2031l17.812 10.266c1.7812 0.98438 3.7031 1.5 5.5781 1.5 3.8438 0 7.5938-2.0156 9.6562-5.5781 3.0938-5.2969 1.2188-12.141-4.0781-15.188l-17.859-10.312c1.3125-3.6094 2.2969-7.3125 3-11.203h20.578c6.1406 0 11.109-5.0156 11.109-11.109 0-6.1406-5.0156-11.109-11.109-11.109h-20.578c-0.70312-3.8438-1.6875-7.5938-3-11.203l17.859-10.312c5.2969-3.0938 7.1719-9.8906 4.0781-15.188s-9.8906-7.1719-15.188-4.0781l-17.812 10.266c-2.4844-2.9531-5.25-5.7188-8.2031-8.2031l10.266-17.812c3.0938-5.2969 1.2188-12.141-4.0781-15.188-5.2969-3.0938-12.141-1.2188-15.188 4.0781l-10.312 17.859c-3.6094-1.3125-7.3125-2.2969-11.203-3v-20.578c0-6.1406-5.0156-11.109-11.109-11.109-6.1406 0-11.109 5.0156-11.109 11.109v20.578c-3.8438 0.70312-7.5938 1.6875-11.203 3l-10.312-17.859c-3.0938-5.2969-9.8906-7.1719-15.188-4.0781s-7.1719 9.8906-4.0781 15.188l10.266 17.812c-2.9531 2.4844-5.7188 5.25-8.2031 8.2031l-17.812-10.266c-5.2969-3.0938-12.141-1.2188-15.188 4.0781-3.0938 5.2969-1.2188 12.141 4.0781 15.188l17.859 10.312c-1.3125 3.6094-2.2969 7.3125-3 11.203h-20.578c-6.1406 0-11.109 5.0156-11.109 11.109 0 6.1406 5.0156 11.109 11.109 11.109zm84.516-53.859c23.531 0 42.703 19.172 42.703 42.703s-19.172 42.703-42.703 42.703-42.703-19.172-42.703-42.703 19.172-42.703 42.703-42.703z"/>
  <path d="m304.6 323.02c22.594 0 41.016-18.422 41.016-41.016s-18.422-41.016-41.016-41.016-41.016 18.422-41.016 41.016 18.422 41.016 41.016 41.016zm0-59.766c10.312 0 18.75 8.3906 18.75 18.75s-8.3906 18.75-18.75 18.75-18.75-8.3906-18.75-18.75 8.3906-18.75 18.75-18.75z"/>
  <path d="m193.22 695.63c15.234 0 27.656-12.422 27.656-27.656s-12.422-27.656-27.656-27.656-27.656 12.422-27.656 27.656 12.422 27.656 27.656 27.656zm0-33c2.9531 0 5.3438 2.3906 5.3438 5.3438s-2.3906 5.3438-5.3438 5.3438-5.3438-2.3906-5.3438-5.3438 2.3906-5.3438 5.3438-5.3438z"/>
  <path d="m1037.3 771.74c-20.156 0-36.562 16.406-36.562 36.562s16.406 36.562 36.562 36.562 36.562-16.406 36.562-36.562-16.406-36.562-36.562-36.562zm0 50.906c-7.875 0-14.297-6.4219-14.297-14.297 0-7.9219 6.4219-14.297 14.297-14.297 7.9219 0 14.297 6.4219 14.297 14.297 0 7.9219-6.4219 14.297-14.297 14.297z"/>
  <path d="m976.18 454.5c0 15.375 12.469 27.844 27.844 27.844s27.844-12.469 27.844-27.844-12.469-27.844-27.844-27.844-27.844 12.469-27.844 27.844zm27.844-5.5781c3.0938 0 5.5781 2.4844 5.5781 5.5781s-2.4844 5.5781-5.5781 5.5781-5.5781-2.4844-5.5781-5.5781 2.4844-5.5781 5.5781-5.5781z"/>
  <path d="m1112.1 896.58c-18.656 0-33.797 15.141-33.797 33.797s15.141 33.797 33.797 33.797 33.797-15.141 33.797-33.797-15.141-33.797-33.797-33.797zm0 45.281c-6.375 0-11.531-5.1562-11.531-11.531s5.1562-11.531 11.531-11.531 11.531 5.1562 11.531 11.531-5.1562 11.531-11.531 11.531z"/>
 </g>
</svg>
