<?xml version="1.0" encoding="UTF-8"?>
<svg width="1200pt" height="1200pt" version="1.1" viewBox="0 0 1200 1200" xmlns="http://www.w3.org/2000/svg">
 <path d="m1170 702c-1.2188-33.609-14.391-61.219-26.391-80.391 3.6094-20.391 8.3906-69.609-24-104.39-6-7.2188-14.391-13.219-22.781-18 6-31.219-1.2188-61.219-20.391-84-16.781-19.219-38.391-27.609-54-31.219-34.781-69.609-105.61-112.78-175.22-105.61-13.219 1.2188-24 3.6094-34.781 8.3906-79.219-62.391-175.22-74.391-231.61-27.609-3.6094 2.3906-6 6-8.3906 8.3906-27.609-8.3906-109.22-26.391-163.22 24-6 4.7812-10.781 12-16.781 18-123.61 4.7812-202.78 68.391-214.78 132-46.781 6-86.391 34.781-104.39 75.609-13.266 22.828-18.047 51.609-13.266 79.219-14.391 20.391-34.781 58.781-28.781 106.78 4.7812 38.391 25.219 64.781 37.219 80.391 57.609 73.219 144 88.781 168 91.219 9.6094 1.2188 19.219 1.2188 28.781 1.2188 30 0 61.219-4.7812 90-15.609 16.781 38.391 48 70.781 81.609 88.781 14.391 7.2188 43.219 19.219 78 19.219 16.781 0 36-2.3906 55.219-10.781 22.781-9.6094 39.609-24 51.609-37.219 15.609 9.6094 39.609 19.219 67.219 12 19.219-3.6094 32.391-13.219 42-22.781 22.781 7.2188 56.391 14.391 96 6 52.781-12 86.391-45.609 103.22-68.391 25.219 14.391 55.219 22.781 84 22.781 22.781 0 45.609-4.7812 67.219-15.609 64.688-30 91.078-98.391 88.688-152.39zm-105.61 118.78c-49.219 24-112.78 8.3906-150-36-7.2188-8.3906-19.219-9.6094-27.609-2.3906s-9.6094 19.219-2.3906 27.609c4.7812 6 9.6094 10.781 14.391 15.609-13.219 18-39.609 44.391-81.609 54-37.219 8.3906-69.609-1.2188-85.219-8.3906-8.3906-3.6094-18-1.2188-22.781 6-4.7812 6-14.391 15.609-30 19.219-27.609 6-49.219-14.391-49.219-15.609-3.6094-3.6094-9.6094-6-15.609-4.7812-6 0-10.781 3.6094-14.391 8.3906-8.3906 12-24 28.781-48 39.609-43.219 18-84 1.2188-99.609-7.2188-40.781-21.609-80.391-72-70.781-124.78 3.6094-19.219 12-37.219 26.391-52.781 7.2188-7.2188 7.2188-20.391-1.2188-27.609-8.3906-7.2188-19.219-7.2188-27.609 0-7.2188 7.2188-21.609 19.219-40.781 20.391-26.391 2.3906-54-13.219-70.781-39.609-6-9.6094-18-12-26.391-6-9.6094 6-12 18-6 26.391 24 39.609 66 62.391 108 57.609h3.6094c-1.2188 4.7812-2.3906 9.6094-3.6094 14.391-2.3906 13.219-2.3906 26.391 0 39.609-26.391 9.6094-62.391 18-104.39 13.219-15.609-1.2188-92.391-13.219-142.78-76.781-13.219-16.781-25.219-34.781-28.781-61.219-2.3906-21.609 2.3906-42 9.6094-57.609 2.3906 3.6094 4.7812 6 7.2188 8.3906 28.781 32.391 69.609 36 85.219 36 10.781 0 19.219-8.3906 19.219-19.219 0-10.781-8.3906-19.219-19.219-19.219-10.781 0-38.391-2.3906-57.609-24-26.391-28.781-18-70.781-8.3906-91.219 13.219-27.609 39.609-46.781 70.781-52.781 4.7812 18 15.609 42 42 67.219 3.6094 3.6094 8.3906 6 13.219 6 4.7812 0 9.6094-2.3906 14.391-6 7.2188-7.2188 7.2188-20.391 0-27.609-31.219-30-33.609-55.219-32.391-63.609 2.3906-45.609 63.609-96 156-105.61-6 18-7.2188 37.219 2.3906 54 7.2188 13.219 20.391 22.781 38.391 28.781 2.3906 1.2188 3.6094 1.2188 6 1.2188 8.3906 0 15.609-4.7812 18-13.219 3.6094-9.6094-2.3906-21.609-12-24-6-2.3906-13.219-6-16.781-12-8.3906-15.609 10.781-49.219 28.781-66 33.609-31.219 87.609-24 115.22-18-4.7812 10.781-8.3906 21.609-10.781 33.609-2.3906 10.781 4.7812 20.391 15.609 22.781h3.6094c9.6094 0 16.781-6 19.219-15.609 6-30 19.219-45.609 28.781-54 38.391-31.219 108-24 168 18-14.391 9.6094-26.391 21.609-34.781 30-24-6-48-2.3906-64.781 12-9.6094 8.3906-16.781 19.219-21.609 31.219-3.6094 9.6094 2.3906 21.609 12 24 9.6094 3.6094 21.609-2.3906 24-12 2.3906-6 4.7812-10.781 9.6094-13.219 9.6094-7.2188 25.219-8.3906 39.609-2.3906 8.3906 3.6094 18 1.2188 22.781-6 10.781-14.391 42-49.219 90-54 56.391-6 114 32.391 140.39 92.391 2.3906 6 8.3906 10.781 15.609 12 9.6094 1.2188 27.609 4.7812 39.609 19.219 18 21.609 16.781 58.781-3.6094 88.781-6 8.3906-3.6094 20.391 4.7812 26.391 3.6094 2.3906 7.2188 3.6094 10.781 3.6094 6 0 12-2.3906 15.609-8.3906 3.6094-4.7812 6-9.6094 8.3906-14.391 2.3906 2.3906 6 4.7812 8.3906 7.2188 26.391 27.609 13.219 74.391 13.219 75.609-1.2188 6 0 12 2.3906 16.781 9.6094 14.391 22.781 37.219 24 67.219 4.6875 43.219-14.484 94.781-63.703 118.78z"/>
 <path d="m600 604.78c2.3906-1.2188 4.7812-3.6094 6-6 2.3906 2.3906 4.7812 3.6094 8.3906 4.7812 9.6094 6 18 7.2188 25.219 8.3906 6 1.2188 8.3906 1.2188 10.781 3.6094 7.2188 4.7812 10.781 16.781 12 25.219 1.2188 9.6094 9.6094 16.781 19.219 16.781h2.3906c10.781-1.2188 18-12 15.609-21.609-3.6094-24-13.219-40.781-27.609-51.609-9.6094-7.2188-18-8.3906-25.219-9.6094-4.7812-1.2188-8.3906-1.2188-13.219-3.6094-7.2188-3.6094-13.219-12-16.781-22.781-3.6094-9.6094-15.609-14.391-25.219-10.781s-14.391 15.609-10.781 25.219c1.2188 2.3906 2.3906 6 3.6094 8.3906-1.2188 0-2.3906 1.2188-3.6094 1.2188-4.7812 2.3906-25.219 14.391-55.219 22.781-32.391 8.3906-74.391 12-116.39-8.3906-25.219-12-46.781-31.219-62.391-55.219-6-8.3906-18-10.781-26.391-4.7812s-10.781 18-4.7812 26.391c20.391 30 46.781 54 78 68.391 20.391 9.6094 40.781 15.609 61.219 18-3.6094 3.6094-8.3906 7.2188-12 10.781l-14.391 14.391c-8.4375 7.2656-8.4375 19.266-0.046875 26.484 3.6094 3.6094 8.3906 4.7812 13.219 4.7812 4.7812 0 10.781-2.3906 14.391-6 3.6094-4.7812 8.3906-8.3906 12-13.219 19.219-19.219 42-33.609 68.391-45.609 33.609-9.5625 58.828-22.781 63.609-26.391z"/>
 <path d="m876 632.39c-22.781 25.219-52.781 36-74.391 27.609-6-2.3906-12-6-18-12-7.2188-8.3906-19.219-8.3906-27.609-1.2188-8.3906 7.2188-8.3906 19.219-1.2188 27.609 7.2188 8.3906 15.609 14.391 25.219 19.219-7.2188 12-21.609 28.781-44.391 37.219-19.219 7.2188-37.219 6-48 3.6094-2.3906 0-3.6094-1.2188-6-1.2188h-1.2188c-1.2188 0-2.3906-1.2188-3.6094-1.2188-40.781-8.3906-79.219-2.3906-109.22 18-19.219 13.219-33.609 32.391-44.391 55.219-4.7812 9.6094 0 21.609 9.6094 25.219 2.3906 1.2188 4.7812 1.2188 7.2188 1.2188 7.2188 0 14.391-4.7812 18-12 7.2188-16.781 18-30 31.219-39.609 21.609-14.391 50.391-19.219 80.391-12 3.6094 1.2188 7.2188 2.3906 10.781 2.3906 20.391 6 40.781 15.609 60 30 8.3906 6 20.391 4.7812 27.609-3.6094 6-8.3906 4.7812-20.391-3.6094-27.609-2.3906-2.3906-6-3.6094-8.3906-6 38.391-16.781 57.609-48 64.781-62.391 28.781-1.2188 58.781-15.609 84-42 7.2188-7.2188 7.2188-20.391-1.2188-27.609-8.3438-7.2188-20.344-7.2188-27.562 1.1719z"/>
 <path d="m1004.4 650.39c-10.781-1.2188-20.391 6-21.609 15.609-1.2188 10.781 6 20.391 15.609 21.609 4.7812 1.2188 13.219 3.6094 16.781 9.6094 3.6094 7.2188 0 24-16.781 33.609-9.6094 4.7812-12 16.781-7.2188 26.391 3.6094 6 9.6094 9.6094 16.781 9.6094 3.6094 0 7.2188-1.2188 9.6094-2.3906 32.391-19.219 46.781-57.609 32.391-85.219-11.953-22.828-37.172-27.609-45.562-28.828z"/>
 <path d="m921.61 465.61c-8.3906-6-40.781-26.391-75.609-15.609-19.219 6-28.781 18-34.781 26.391-4.7812 7.2188-8.3906 12-19.219 15.609-7.2188 3.6094-13.219 3.6094-21.609 3.6094-3.6094 0-7.2188 0-12 1.2188-1.2188-4.7812-2.3906-9.6094-4.7812-13.219-14.391-24-43.219-25.219-45.609-25.219-10.781 0-19.219 8.3906-19.219 19.219 0 10.781 8.3906 19.219 19.219 19.219 0 0 9.6094 0 13.219 6 2.3906 3.6094 1.2188 6 1.2188 8.3906-8.3906 6-15.609 12-21.609 20.391s-4.7812 20.391 3.6094 27.609c3.6094 2.3906 7.2188 3.6094 12 3.6094 6 0 12-2.3906 15.609-7.2188 4.7812-6 10.781-12 16.781-15.609 8.3906-4.7812 15.609-6 25.219-6 8.3906 0 20.391-1.2188 33.609-6 20.391-8.3906 28.781-20.391 34.781-28.781 4.7812-7.2188 7.2188-9.6094 14.391-12 19.219-6 38.391 7.2188 43.219 9.6094 19.219 13.219 24 33.609 24 39.609 1.2188 10.781 12 18 21.609 15.609 10.781-1.2188 18-12 15.609-21.609-0.046875-8.4375-7.2656-43.219-39.656-64.828z"/>
 <path d="m507.61 496.78h2.3906c14.391-2.3906 34.781-8.3906 55.219-24 21.609-16.781 32.391-37.219 38.391-51.609 3.6094-9.6094-1.2188-21.609-10.781-25.219-9.6094-3.6094-21.609 1.2188-25.219 10.781-3.6094 9.6094-10.781 22.781-26.391 34.781-14.391 10.781-27.609 14.391-37.219 15.609-10.781 1.2188-18 10.781-16.781 21.609 2.3906 12.047 10.781 18.047 20.391 18.047z"/>
</svg>
