<?xml version="1.0" encoding="UTF-8"?>
<svg width="1200pt" height="1200pt" version="1.1" viewBox="0 0 1200 1200" xmlns="http://www.w3.org/2000/svg">
 <path d="m426.37 848.95c-0.23438 15.375-2.3438 31.125-6.4688 47.062-0.32812 1.3125-0.32812 2.625-0.23438 3.9375-29.719 51.938-56.812 105.05-78.094 159.74-2.3906 6.1875 0.65625 13.125 6.8438 15.516 1.4062 0.5625 2.9062 0.84375 4.3594 0.84375 4.7812 0 9.3281-2.9062 11.156-7.6406 20.859-53.766 47.672-106.22 77.203-157.64 14.297-10.078 29.578-19.641 45.703-28.078 44.906 55.547 90 73.688 133.97 73.688 43.781 0 86.344-18 126.24-34.875 9.8438-4.1719 19.641-8.2969 29.484-12.188 7.8281-3.0938 13.406-10.172 14.578-18.469 1.1719-8.3438-2.1094-16.406-8.7656-21.562-85.172-66-202.26-66.281-314.39-3.6562 15.094-24.891 30.609-49.594 46.172-74.062l2.9062-0.09375c37.453-1.0312 76.219-2.1094 114.14-8.1562 15.562-2.4844 30.844-6.6094 45.469-12.281 0.46875 0.28125 0.98438 0.5625 1.5 0.79688 50.062 22.406 95.578 33.562 136.36 33.562 73.781 0 132.1-36.609 174.19-109.59 4.2656-7.4531 5.25-16.406 2.6719-24.562-2.5312-8.0625-8.0625-14.438-15.562-18.047-77.719-37.172-170.34-16.828-241.69 53.156-23.203 22.781-52.641 39.375-84.516 48.281 23.25-22.359 39.656-51.891 45.094-83.906 1.125-6.5625-3.2812-12.75-9.8438-13.828-6.5156-1.125-12.75 3.2812-13.828 9.8438-6.7969 40.266-33.938 76.125-70.828 93.656-1.5469 0.75-2.8594 1.7812-3.9375 3.0469-22.125 2.0625-44.438 3-66.469 3.6094 1.9688-3.0938 3.9844-6.2344 5.9531-9.3281 5.0625-7.9219 10.078-15.797 15.141-23.672 0.60938-0.75 1.0781-1.5 1.5-2.3438 25.266-39.656 49.875-78.891 71.766-117.52 18.188-8.9062 35.719-19.266 52.734-30.375 48.281 37.125 118.36 41.203 193.55 10.969 65.438-26.344 115.55-71.812 119.16-107.91 1.3125-10.312-9.2344-20.016-13.969-22.406-102.47-49.594-183.61 8.4375-262.03 64.594-22.125 15.844-44.812 31.875-68.203 45.984 2.5312-4.875 4.9688-9.75 7.4062-14.625 123.47-91.078 247.74-255.19 193.78-420.1-2.4844-7.5938-8.5781-13.406-16.312-15.469-7.7812-2.1094-15.984-0.14062-22.078 5.25-81.047 72.703-106.55 186.56-71.812 320.63-19.125 22.125-39.938 42.422-61.266 60.844 54.047-131.26 53.156-254.16-88.359-362.72-7.0312-5.4375-16.125-7.5469-24.797-5.7188-8.7656 1.7812-16.312 7.3125-20.672 15.234-95.391 174.14-25.266 287.72 76.5 418.03-22.219 41.344-48.469 83.906-76.266 127.64-9.1406-14.906-17.156-29.953-24.047-45.234 0.375-0.5625 0.79688-1.125 1.0781-1.7812 17.906-41.672 20.859-88.594 8.4375-132.1-1.8281-6.375-8.5312-10.031-14.859-8.25-6.375 1.8281-10.031 8.4844-8.25 14.812 8.7656 30.609 8.6719 63.141 0.23438 93.703-16.031-46.922-21.938-95.391-17.438-144.98 7.3125-81.797-26.578-163.6-90.609-218.81-17.203-14.859-36.609-29.109-57.609-42.328-8.0625-5.0625-17.906-5.5781-26.391-1.2656-8.5312 4.3125-14.062 12.516-14.812 22.031-9.375 123.74 46.781 224.81 162.42 292.18 0.65625 0.375 1.3594 0.70312 2.0625 0.98437 1.1719 21.75 4.5 43.172 9.5156 64.359-17.109-10.594-33.891-17.391-50.344-23.953-34.078-13.641-66.281-26.484-104.25-72.141-4.2188-5.1094-11.766-5.8125-16.875-1.5469-5.1094 4.2188-5.8125 11.812-1.5469 16.875 41.812 50.344 80.062 65.625 113.81 79.078 24.094 9.6562 46.875 18.797 70.125 39.703 10.828 31.031 26.016 61.312 45.188 90.891-3.9375 6.1875-7.8281 12.281-11.812 18.516-21.797 34.031-43.781 68.531-65.062 103.5 1.2656-118.08-94.5-217.78-203.72-261.14-9.7969-3.8438-20.484-2.1094-28.688 4.5469-8.1094 6.6562-12.047 17.156-10.219 27.422 9.7969 56.25 39.703 226.87 218.53 229.82zm340.18 38.391c-9.6094 3.8438-19.266 7.9219-28.875 12-73.969 31.266-144.1 60.844-216.89-14.484 44.484-2.4844 92.391-2.625 132.89 17.484 1.6875 0.84375 3.5625 1.2656 5.3438 1.2656 4.4062 0 8.6719-2.4375 10.781-6.6562 2.9531-5.9531 0.51562-13.125-5.3906-16.078-39.328-19.547-84.281-22.125-125.48-20.859 74.344-25.781 157.55-26.391 227.63 27.328zm-15.75-163.92c50.109-49.125 132.79-87.703 214.6-48.609 1.8281 0.89062 2.625 2.3906 3 3.5625 0.5625 1.7812 0.32812 3.7969-0.5625 5.4375-52.359 90.75-130.31 117.94-237.52 82.547 57.281-8.25 118.41-19.781 172.87-46.875 5.9062-2.9531 8.3438-10.172 5.3906-16.078s-10.125-8.3438-16.078-5.3906c-51.094 25.406-107.67 36.234-163.87 44.344 7.7812-5.8594 15.234-12.141 22.172-18.938zm213.37-237.94c0.28125 0.23438 0.75 0.65625 1.125 1.125-4.8281 23.531-44.625 61.969-103.88 85.781-27.516 11.062-89.953 30.516-144.05 7.3594 59.156-3.6094 129.74-17.297 173.63-57.844 4.875-4.5 5.1562-12.094 0.65625-16.969s-12.094-5.1562-16.969-0.65625c-39.609 36.656-107.86 48.141-157.31 51.375 3.375-2.3906 6.7969-4.7812 10.125-7.1719 79.312-56.812 147.84-105.89 236.68-63zm-140.53-337.74c28.781 87.938 1.7344 176.39-48.656 252.1 14.906-45.188 22.547-93.469 22.125-140.95-0.046875-6.6094-5.4375-11.906-12-11.906h-0.09375c-6.6562 0.046875-11.953 5.4844-11.906 12.094 0.42188 47.062-7.5938 94.922-23.109 139.36-16.172-104.67 9.3281-192.52 73.641-250.69zm-502.45 93.75c0.09375-1.4062 1.0781-2.1094 1.6406-2.3906 0.375-0.1875 0.79688-0.32812 1.3125-0.32812 0.46875 0 0.98438 0.14062 1.5 0.46875 20.016 12.562 38.391 26.109 54.703 40.219 58.219 50.203 89.062 124.4 82.406 198.52-0.14062 1.5469-0.14062 3.0938-0.28125 4.6406-14.672-46.969-37.125-83.062-62.531-123.79l-11.25-18.094c-3.4688-5.625-10.922-7.3594-16.5-3.8906-5.625 3.4688-7.4062 10.875-3.8906 16.5l11.344 18.188c25.641 41.062 46.594 74.719 60.281 118.97-86.672-61.828-126.61-145.4-118.73-249zm241.03-71.625c1.3125-2.3438 3.375-3.0938 4.5-3.2812 0.375-0.09375 0.79688-0.14062 1.3594-0.14062 1.125 0 2.5781 0.28125 3.9844 1.4062 133.5 102.42 132 217.74 76.406 345.66 1.6875-80.297-12.75-160.64-42.984-235.13-2.5312-6.1406-9.5625-9.0938-15.656-6.6094-6.1406 2.4844-9.0938 9.5156-6.6094 15.656 32.906 81.047 46.359 169.26 39.797 256.45-104.53-137.63-138.61-231.98-60.797-374.02zm-329.06 440.29c0.5625-0.46875 1.6406-1.125 3-1.125 0.51562 0 1.0781 0.09375 1.6875 0.32813 83.297 33.047 158.11 100.97 181.18 184.03-27.328-37.5-62.859-70.922-101.58-94.875-5.625-3.4688-13.031-1.7344-16.5 3.8906s-1.7344 13.031 3.8906 16.5c41.766 25.828 79.594 63.516 106.12 105.14-98.625-7.875-156-74.812-179.53-209.26-0.46875-2.5312 1.0781-4.0781 1.7344-4.6406z"/>
</svg>
