<?xml version="1.0" encoding="UTF-8"?>
<svg width="1200pt" height="1200pt" version="1.1" viewBox="0 0 1200 1200" xmlns="http://www.w3.org/2000/svg">
 <path d="m1040.2 737.75c-7.5352-12.559-17.199-23.707-28.562-32.945l-0.33203-12.164c-1.0156-30.398-10.648-59.879-27.773-85.012-17.129-25.133-41.043-44.879-68.961-56.945-37.113-63.906-51.383-138.53-40.473-211.62 13.039-40.82 17.316-83.93 12.551-126.52-38.715-159.41-189.65-159.71-280.16-102.28-22.156 13.637-47.617 35.785-114.89 155.42-56.203 97.168-45.316 102.55-90.973 175.2-57.605 79.121-71.926 74.777-153.08 176.55-116.31 128.66-170.57 318.47 27.664 378.49-5.3633 49.289 18.16 131.3 80.844 128.66v0.003906c49.152-4.0312 97.578-14.426 144.06-30.922 88.973-35.645 145.53-74.66 238.84-91.152 20 6.6953 42.719 14.496 69.281 23.645 48.852 11.414 127.14 65.422 178.41 24.875v0.003906c21.984-15.973 34.645-41.781 33.82-68.941l-2.4414-76.695c16.598-18.98 63.543-89.207 22.18-167.65zm-67.43-53.809c-27.438-7.7188-56.637-6.332-83.219 3.957-11.629 4.6953-22.309 11.453-31.531 19.949-4.6914 5.1328-10.973 8.5391-17.836 9.668-21.512 3.0391-31.715-9.6562-56.02 1.375-18.949 10.375-32.918 27.949-38.754 48.75-0.70703 4.582-3.3867-0.53516-5.5195-2.2227-18.484-19.449-25.539-47.098-18.641-73.023 1.2812-4.8086 0.60156-9.9258-1.8867-14.23-2.4883-4.3047-6.5859-7.4453-11.391-8.7305-32.723-5.2305-27.738 45.105-24.848 65.285 1.3555 21.203 22.602 33.746 1.8164 38.062h-0.003906c-50.27-63.016-87.473-135.41-109.44-212.97 29.039-23.727 49.246-56.539 57.359-93.152 21.395 25.355 52.191 40.902 85.297 43.059-0.007813 14.191 5.293 27.871 14.859 38.352 9.5664 10.48 22.707 17 36.84 18.285l92.195 8.7539h-0.003907c28.148 2.668 54.52 14.941 74.684 34.762 20.164 19.82 32.891 45.977 36.039 74.074zm-482.69 195.95 2.793 18.227c-17.941 17.953-5.0234-6.1133-2.793-18.227zm37.297-4.1445-10.777-70.316c37.184-73.523 55.418-142.97 2.9219-214.98 7.7617-2.9961 15.02-5.457 23.16-9.3047h-0.003906c22.836 75.445 59.34 146.05 107.69 208.3-38.84 20.652-74.266 47.168-105.03 78.617-6.1484 2.1719-12.148 4.7422-17.965 7.6875zm156.36-61.621c12.074-5.625 24.43-10.617 37.023-14.953 5.0508 4.5703 10.434 8.7539 16.105 12.523-0.27734 12.117 1.3242 24.203 4.7422 35.828 6.0742 19.957 17.117 38.039 32.098 52.555-11.688-0.19531-25.367-0.80078-39.633-2.2539-62.457-5.8164-77.758-24.98-126.28-35.594h0.003906c23.34-18.957 48.828-35.102 75.941-48.105zm164.25-323.62 0.003906 0.003906c4.8242 16.145 10.754 31.941 17.75 47.277l-92.305-8.7617c-4.8359-0.42188-9.3438-2.6367-12.637-6.207-3.2891-3.5742-5.1289-8.2461-5.1523-13.102v-9.2461c33.613-17.438 61.223-44.555 79.266-77.848 2.1836 22.996 6.5625 45.727 13.078 67.887zm-10.254-160.59c-55.156 153.98-155.61 204.41-219.49 35.973-6.9688-7.5977-29.133-34.359-22.047-59.426h0.003907c2.1836-7.6094 5.8203-14.723 10.711-20.945 4.3828 2.875 7.4766 7.3438 8.6328 12.457 23.602 63.168 138.77-4.4609 165.66-39.395v0.003906c7.7539 17.723 19.102 33.645 33.324 46.754 5.7383 9.5156 27.965 13.262 23.199 24.582zm-650.8 552.23c-16.691-42.473 0.007812-88.449 12.195-122 13.715-37.719 32.199-63.941 77.383-118.89 82.082-102.93 95.414-96.621 155.23-179.44 48.359-76.398 35.723-79.457 92.559-177.77 68.059-121.05 90.039-134.57 101.88-141.86 9.3555-5.7773 93.32-55.195 162.39-13.496 65.648 48.902 66.102 95.594 59.684 156.06-14.281-10.727-25.555-24.953-32.734-41.305-5.3164-11.598-16.125-19.73-28.742-21.625-12.617-1.8984-25.34 2.6953-33.832 12.215-26.211 29.512-62.52 48.141-101.78 52.219-23.691-61.949-78.324-40.66-91.047 10.027-13.574 51.645 23.059 76.164 33.855 107.72 6.1484 23.527 5.1641 48.355-2.8281 71.32-7.9922 22.969-22.637 43.043-42.062 57.668-22.168 18.637-43.699 20.258-69.258 33.895-46.25 23.664-70.273 57.59-99.984 100.16v-0.003906c-32.645 48.355-56.91 101.87-71.77 158.29-11.668 43.711-20.926 88.027-27.73 132.75-33.496-11.184-76.727-33.277-93.402-75.926zm401.07 130.2c-74.73 34.68-81.023 46.645-189.82 69.457-44.047 8.3477-53.02 5.3281-58.465 1.5195v-0.003906c-9.4453-7.8398-16.473-18.203-20.262-29.883-8.9297-28.148-9.8125-58.23-2.5547-86.855 6.6719-43.777 15.66-87.168 26.926-130 13.828-52.719 36.379-102.75 66.715-148.03 18.977-32.129 44.492-59.914 74.895-81.555 50.32 65.5 27.336 119.33-5.4922 188.75-17.449 42.02-31.086 85.52-40.746 129.98-13.023 1.6914-26.074 3.6758-39.586 6.3164v0.003906c-6.5586 1.2969-11.926 5.9922-14.094 12.316-2.1641 6.3242-0.80078 13.32 3.582 18.367 4.3867 5.0469 11.125 7.3789 17.688 6.1211 22.914-4.4844 46.066-7.6367 69.344-9.4492 65.988-6.0234 132.52 1.293 195.62 21.516-28.629 8.4727-56.617 18.977-83.754 31.43zm376.57 8.3594c-11.965 8.832-27.566 11.062-41.527 5.9336-38.965-13.762-73.332-25.789-102.59-35.918-115.01-40-204.6-72.234-294.55-70.301l0.003907 0.003906c15.094-12.32 33.516-19.875 52.914-21.703 19.402-1.8242 38.906 2.1602 56.039 11.445 30.238 13.387 62.434 21.816 95.352 24.965 26.941 2.6758 54.047 3.2578 81.078 1.7383 31.5-2.1172 53.652-9.3672 85.164-9.6484 25.375 0.86328 50.52 5.1641 74.742 12.785 3.6172-0.27734 7.1289-1.3398 10.289-3.1172-0.63672 25.965 9.9531 66.812-16.918 83.816zm36.84-155.75c-8.4609 14.23-19.941 26.434-33.629 35.75-23.047-7.0469-46.988-10.746-71.09-10.988-23.516 0.79297-46.934 3.3945-70.051 7.7812-40.961-29.844-64.883-71.051-46.328-116.18 6.207-14.73 12.516-34.305 32.48-28.168v-0.003906c11.047 2.7461 22.539 3.1953 33.766 1.3203 13.59-2.2461 26.156-8.625 35.988-18.273 6.0859-5.7812 13.203-10.363 20.984-13.504 18.582-7.8242 39.359-8.6836 58.523-2.4258 19.16 6.2578 35.426 19.215 45.809 36.492 28.41 48.312-6.0664 107.56-6.4531 108.2z"/>
</svg>
