<?xml version="1.0" encoding="UTF-8"?>
<svg width="1200pt" height="1200pt" version="1.1" viewBox="0 0 1200 1200" xmlns="http://www.w3.org/2000/svg">
 <path d="m219 537.96c-71.16-2.5195-156-26.398-188.16-96.602 37.078 24.719 80.641 39 124.32 46.801 13.199 30.961 36.602 45.961 69.719 46.559-1.8008 1.0781-3.7188 2.1602-5.8789 3.2383zm32.879 36.602c-65.762 17.281-188.4-6.9609-220.44-63.719 43.559 18.359 78.48 28.441 126.48 25.441 17.52 3.8398 31.68 5.6406 48.359 6.7188-9.1211 2.8789-14.16 2.6406-23.281 2.5195 23.641 16.441 44.16 25.32 74.039 22.199-1.5586 2.1602-3.2383 4.5586-5.1602 6.8398zm696.24 0c65.762 17.281 188.4-6.9609 220.32-63.719-43.441 18.359-78.359 28.441-126.36 25.441-17.52 3.8398-31.68 5.6406-48.359 6.7188 9.1211 2.8789 14.16 2.6406 23.281 2.5195-23.641 16.441-44.16 25.32-74.039 22.199 1.5586 2.1602 3.2383 4.5586 5.1602 6.8398zm-318.6 162.24c3 2.3984 6.1211 4.6797 9.3594 6.7188 3.4805 0.60156 6.6016 0.83984 9.9609 0.71875-0.12109-0.96094-0.23828-1.8008-0.35938-2.7617-3-2.5195-5.6406-6-6.1211-7.6797 5.3984 3.3594 18 5.0391 21.719 3.1211-0.48047-2.3984-0.60156-4.9219 0.23828-7.3203-2.8789-2.1602-4.9219-5.5195-5.7617-8.2812 8.3984 5.2812 21.359 4.5586 24.84 3.7188-0.96094-3.8398-0.96094-7.4414 0.60156-11.16-3.4805-2.7617-5.7617-6-6.3594-9.8398 11.398 6.1211 16.68 6.6016 26.16 6.3594-1.0781-3.7188-1.6797-7.8008-0.60156-11.641-4.9219-3.7188-7.6797-7.4414-10.32-13.199 9.9609 5.6406 25.68 6.9609 31.559 6.1211-1.5586-6.1211-1.0781-14.52 0.48047-20.52-5.8789-5.1602-10.922-10.32-15.121-17.641 11.281 9 22.68 10.922 45.602 12.238-4.0781-6.4805-6.1211-13.32-6.1211-21-6.3594-5.3984-12.602-11.641-15.121-18.48 9.1211 9.6016 34.078 14.879 47.879 16.32-4.1992-6.4805-6.9609-14.281-6-22.199-11.16-9-21-19.078-28.199-32.16 15.719 17.762 32.641 27.359 62.879 28.32-4.9219-5.8789-7.1992-12.961-8.0391-20.398-13.199-8.7617-24.121-19.922-33-32.879 20.398 21.961 60.84 33.602 82.559 32.398-4.5586-6.4805-8.5195-13.922-10.922-21.48-15.359-8.8789-26.52-20.879-31.559-37.922 4.5586 9 12.121 16.68 19.559 22.32 23.641 7.4414 39 10.559 64.559 8.5195-5.7617-8.3984-10.559-18.84-13.559-28.559-3.2383-3.2383-7.6797-9.8398-8.6406-13.078 32.52 34.559 83.16 50.16 127.68 24.84-10.32-2.0391-26.641-8.6406-33.961-15.84-12.359-0.71875-27.238-4.4414-37.801-9.4805 56.879 15.48 102.36 5.1602 118.2-57.719-27 25.559-63.961 35.52-102.12 40.199-61.559 27.359-166.92-21.238-197.64 62.641-11.039 41.281-71.52 156-116.52 166.68zm21.359 12.961c4.6797 2.0391 9.3594 3.6016 14.281 4.9219-0.12109-1.1992-0.35938-2.6406-0.48047-4.0781-3.2383-1.4414-6.3594-2.8789-9.3594-4.6797l0.71875 1.9219c-1.9219 0.96094-3 1.5586-5.1602 1.9219zm19.801 2.8789 0.60156 3.4805c9.1211 1.8008 18.602 2.6406 28.199 2.5195-1.6797-1.9219-3.2383-3.8398-4.8008-5.8789-2.5195-0.71875-5.1602-1.5586-7.5586-2.5195l1.1992 4.6797c-6.3594-0.12109-11.398-0.48047-17.641-2.2812zm15.121-8.8789c12.238 4.3203 25.922 8.8789 38.879 9.9609-1.8008-2.0391-3.4805-4.0781-5.0391-6.2383-3.1211-1.4414-6.1211-3-9-4.6797l1.1992 2.7617c-9.7188-0.12109-16.922-0.83984-26.398-4.4414l0.35938 2.6406zm-24.48-1.0781c6.1211 3.2383 12.719 5.5195 19.559 6.2383-0.60156-3.4805-1.1992-6.7188-1.3203-10.32-3.6016-1.6797-6.9609-3.6016-10.078-5.5195-0.12109 2.5195 0.83984 5.0391 1.6797 7.4414-3.8398 1.9219-5.3984 2.2812-9.8398 2.1602zm47.16-7.9219c16.199 11.039 40.199 18.602 59.762 19.441-3.8398-4.3203-7.4414-9.3594-10.199-14.398-8.8789-4.3203-17.039-9-24.602-13.922 0.60156 3.1211 1.5586 4.8008 2.7617 7.5586-10.68-0.12109-18.238-1.0781-28.441-5.1602 0.12109 2.1602 0.48047 4.3203 0.71875 6.4805zm-31.922-4.0781c8.1602 4.6797 17.52 8.0391 27 8.8789-0.83984-4.6797-1.5586-9.1211-1.5586-13.922-4.8008-2.3984-9.2383-5.1602-13.199-8.0391-0.96094 3.7188 0.48047 7.4414 1.6797 10.922-5.0391 2.5195-8.1602 2.5195-13.922 2.1602zm55.68-12.359c23.641 15.84 49.32 28.078 78 29.879-5.3984-5.3984-9.2383-10.68-11.762-17.879-17.16-6.2383-32.641-13.801-43.078-21.121 0.60156 2.8789 1.6797 4.8008 2.8789 7.4414-9.3594-0.23828-17.16-0.71875-26.281-3.3594 0 1.5586 0.12109 3.2383 0.23828 5.0391zm-36.719-3c9.6016 6.3594 20.879 11.16 32.398 12.238-1.0781-4.9219-1.8008-11.039-1.6797-16.078-6.2383-2.3984-12.238-5.3984-17.879-9.1211-0.23828 3.9609 1.3203 8.0391 2.6406 11.641-5.6406 2.7617-9.2383 2.3984-15.48 1.3203zm59.762-65.762c1.4414 9.6016 6.2383 15.238 12.121 22.559-12-0.60156-24.48-0.83984-36.238-3 16.68 14.641 30.48 23.641 56.879 24.602-2.6406-7.0781-3.1211-17.16-1.8008-24.48l-0.60156-0.35938c-10.68-5.3984-21-12.121-30.359-19.32zm93.719-71.398c3.6016 8.6406 8.3984 15.121 14.398 22.32-20.398 2.0391-35.039-0.23828-54.359-6.9609 33 20.879 76.922 34.32 115.8 30.84-8.7617-8.5195-18.602-20.52-24.84-30.84-17.398-2.8789-35.16-7.5586-51-15.359zm-57.48 93.602c-0.60156 4.5586-0.35938 9 0.23828 13.559 31.801 18 96.961 33.359 133.8 33.359-9.3594-8.5195-16.922-19.922-22.559-31.199-22.801-4.0781-46.32-10.32-67.32-19.199 2.5195 6.9609 3.7188 8.0391 8.6406 12.961-14.52 2.8789-33.961-0.96094-52.801-9.4805zm2.3984 21.121c1.0781 2.2812 3.1211 4.5586 4.5586 6.6016-16.199 0-30.121-0.60156-45.121-7.6797 0 3 0.35938 6.2383 0.71875 9.2383 24.84 20.641 81.84 37.801 114.36 38.879-8.5195-7.8008-14.16-15.602-17.281-26.879-21.961-5.6406-42.84-12.84-57.238-20.16zm-46.078-4.0781c-6.1211-3.6016-12-8.1602-18-13.32-1.4414 8.2812-0.83984 13.441 2.6406 21.238-8.0391 0.83984-14.281 0.83984-22.441-0.12109 11.879 8.1602 25.441 13.078 39.84 14.039-1.4414-6.2383-2.6406-15.48-2.0391-21.84zm-123.48 43.078c43.199-3.4805 106.32-125.88 116.4-163.68 30.359-76.801 110.76-47.762 180.6-59.281-62.879 3.3594-159.12-18.48-187.8 48.961-32.039 77.762-74.879 107.28-102.84 126.48-22.68 15.602-45.48 50.52-6.3594 47.52zm157.2-107.16c0.48047 9.7188 6.7188 17.16 12.48 24.48-13.559-0.83984-24.84-2.0391-38.039-6.2383 20.16 16.199 50.641 33.602 77.039 33.359-3.7188-7.1992-7.1992-18.961-6.4805-27-16.199-6-31.199-14.281-45-24.602zm50.52 26.52c0 2.8789 0.60156 6.3594 1.4414 9.9609 42 18.602 106.2 30.121 152.04 25.199-16.199-6.8398-24-13.199-34.68-27.359-27.121-1.8008-53.039-6.6016-72.961-12 5.2812 5.8789 11.281 10.32 17.52 15.121-22.199-1.5586-41.879-3.7188-63.359-10.922zm-48.84-32.398c28.078 21.602 59.398 32.641 94.559 36.238-9-8.7617-16.441-20.16-18.602-32.641-17.398-5.1602-34.559-12.719-50.039-22.199 2.5195 11.398 7.5586 14.641 16.559 21.238-14.879 0.96094-27.719 1.5586-42.48-2.6406zm82.199 5.2812c1.1992 5.1602 3.7188 10.801 6.7188 15.238 48.238 15 124.92 22.199 173.28 4.1992-21.961-4.1992-43.68-11.762-64.078-20.762-20.398-0.35938-39.48-2.1602-55.199-5.1602 3.8398 3.9609 7.8008 7.1992 12 10.801-26.039 3.6016-47.16 2.5195-72.719-4.3203zm42.121-29.398c3.8398 5.5195 7.9219 10.68 12.121 15.719 53.52 12.359 161.28 9.6016 207.72-23.52-32.879 5.1602-60.238 4.0781-92.762-4.1992-5.6406 0.83984-48.48 6.4805-79.68-0.35938 6.2383 6.3594 12.602 10.559 19.801 15.48-22.801 0.35938-44.52 0.12109-67.199-3.1211zm-18.602-49.078c4.1992 10.199 8.8789 17.641 15.84 26.16-21.359 2.1602-40.078 2.7617-61.078-2.8789 32.039 18.719 77.398 23.398 113.64 23.398-8.8789-7.4414-15.719-16.199-22.199-25.801-15.359-2.7617-31.199-9.4805-46.199-20.879zm92.039-7.6797c71.16-2.5195 156-26.398 188.16-96.602-37.078 24.719-80.641 39-124.32 46.801-13.199 30.961-36.602 45.961-69.719 46.559 1.8008 1.0781 3.7188 2.1602 5.8789 3.2383zm-410.52 198.84c-3 2.3984-6.1211 4.6797-9.3594 6.7188-3.4805 0.60156-6.6016 0.83984-9.9609 0.71875 0.12109-0.96094 0.23828-1.8008 0.35938-2.7617 3-2.5195 5.6406-6 6.1211-7.6797-5.3984 3.3594-18 5.0391-21.719 3.1211 0.48047-2.3984 0.48047-4.9219-0.23828-7.3203 2.8789-2.1602 4.9219-5.5195 5.7617-8.2812-8.3984 5.2812-21.359 4.5586-24.84 3.7188 0.96094-3.8398 0.96094-7.4414-0.60156-11.16 3.4805-2.7617 5.6406-6 6.3594-9.8398-11.398 6.1211-16.68 6.6016-26.16 6.3594 1.0781-3.7188 1.6797-7.8008 0.60156-11.641 4.9219-3.7188 7.6797-7.4414 10.32-13.199-9.9609 5.6406-25.68 6.9609-31.559 6.1211 1.5586-6.1211 1.0781-14.52-0.48047-20.52 5.7617-5.1602 10.922-10.32 15.121-17.641-11.281 9-22.68 10.922-45.602 12.238 4.0781-6.4805 6.1211-13.32 6.1211-21 6.3594-5.3984 12.602-11.641 15.121-18.48-9.1211 9.6016-34.078 14.879-47.879 16.32 4.1992-6.4805 6.9609-14.281 5.8789-22.199 11.281-9 21.121-19.078 28.32-32.16-15.719 17.762-32.641 27.359-62.879 28.32 4.8008-5.8789 7.1992-12.961 8.0391-20.398 13.199-8.7617 24.121-19.922 32.879-32.879-20.281 21.961-60.719 33.602-82.441 32.398 4.5586-6.4805 8.5195-13.922 10.922-21.48 15.359-8.8789 26.52-20.879 31.559-37.922-4.5586 9-12.121 16.68-19.559 22.32-23.641 7.4414-39 10.559-64.68 8.5195 5.8789-8.3984 10.68-18.84 13.68-28.559 3.2383-3.2383 7.5586-9.8398 8.6406-13.078-32.52 34.559-83.16 50.16-127.68 24.84 10.199-2.0391 26.641-8.6406 33.961-15.84 12.359-0.71875 27.238-4.4414 37.801-9.4805-56.879 15.48-102.36 5.1602-118.2-57.719 27 25.559 63.961 35.52 102.12 40.199 61.559 27.359 166.92-21.238 197.64 62.641 11.039 41.281 71.52 156 116.52 166.68zm-21.359 12.961c-4.6797 2.0391-9.3594 3.6016-14.281 4.9219 0.12109-1.1992 0.35938-2.6406 0.48047-4.0781 3.2383-1.4414 6.3594-2.8789 9.3594-4.6797l-0.71875 1.9219c1.9219 0.96094 3 1.5586 5.1602 1.9219zm-19.801 2.8789-0.60156 3.4805c-9.1211 1.8008-18.602 2.6406-28.199 2.5195 1.6797-1.9219 3.2383-3.8398 4.8008-5.8789 2.5195-0.71875 5.0391-1.5586 7.5586-2.5195l-1.1992 4.6797c6.3594-0.12109 11.398-0.48047 17.641-2.2812zm-15.121-8.8789c-12.238 4.3203-25.922 8.8789-38.879 9.9609 1.8008-2.0391 3.4805-4.0781 5.0391-6.2383 3.1211-1.4414 6.1211-3 9-4.6797l-1.1992 2.7617c9.7188-0.12109 16.922-0.83984 26.398-4.4414l-0.35938 2.6406zm24.48-1.0781c-6.1211 3.2383-12.719 5.5195-19.559 6.2383 0.60156-3.4805 1.1992-6.7188 1.3203-10.32 3.6016-1.6797 6.9609-3.6016 10.078-5.5195 0.12109 2.5195-0.83984 5.0391-1.6797 7.4414 3.8398 1.9219 5.3984 2.2812 9.8398 2.1602zm-47.16-7.9219c-16.199 11.039-40.199 18.602-59.762 19.441 3.8398-4.3203 7.4414-9.3594 10.199-14.398 8.8789-4.3203 17.039-9 24.602-13.922-0.60156 3.1211-1.5586 4.8008-2.7617 7.5586 10.68-0.12109 18.238-1.0781 28.441-5.1602-0.12109 2.1602-0.48047 4.3203-0.71875 6.4805zm31.922-4.0781c-8.2812 4.6797-17.52 8.0391-27 8.8789 0.71875-4.6797 1.4414-9.1211 1.5586-13.922 4.8008-2.3984 9.2383-5.1602 13.199-8.0391 0.96094 3.7188-0.48047 7.4414-1.6797 10.922 5.0391 2.5195 8.1602 2.5195 13.922 2.1602zm-55.68-12.359c-23.641 15.84-49.32 28.078-78 29.879 5.2812-5.3984 9.2383-10.68 11.762-17.879 17.16-6.2383 32.641-13.801 43.078-21.121-0.71875 2.8789-1.6797 4.8008-2.8789 7.4414 9.3594-0.23828 17.16-0.71875 26.281-3.3594 0 1.5586-0.12109 3.2383-0.23828 5.0391zm36.719-3c-9.6016 6.3594-20.879 11.16-32.398 12.238 1.0781-4.9219 1.8008-11.039 1.6797-16.078 6.2383-2.3984 12.238-5.3984 17.879-9.1211 0.23828 3.9609-1.3203 8.0391-2.6406 11.641 5.6406 2.7617 9.2383 2.3984 15.48 1.3203zm-59.762-65.762c-1.4414 9.6016-6.2383 15.238-12.121 22.559 12-0.60156 24.48-0.83984 36.238-3-16.68 14.641-30.48 23.641-56.879 24.602 2.6406-7.0781 3.1211-17.16 1.8008-24.48l0.60156-0.35938c10.68-5.3984 21-12.121 30.359-19.32zm-93.719-71.398c-3.6016 8.6406-8.3984 15.121-14.398 22.32 20.281 2.0391 35.039-0.23828 54.359-6.9609-33 20.879-76.922 34.32-115.8 30.84 8.6406-8.5195 18.602-20.52 24.84-30.84 17.398-2.8789 35.16-7.5586 51-15.359zm57.48 93.602c0.60156 4.5586 0.35938 9-0.23828 13.559-31.801 18-96.961 33.359-133.8 33.359 9.3594-8.5195 16.922-19.922 22.559-31.199 22.801-4.0781 46.32-10.32 67.32-19.199-2.5195 6.9609-3.7188 8.0391-8.6406 12.961 14.52 2.8789 33.961-0.96094 52.801-9.4805zm-2.3984 21.121c-1.0781 2.2812-3.1211 4.5586-4.5586 6.6016 16.199 0 30.121-0.60156 45.121-7.6797 0 3-0.35938 6.2383-0.71875 9.2383-24.84 20.641-81.84 37.801-114.36 38.879 8.5195-7.8008 14.16-15.602 17.281-26.879 21.961-5.6406 42.84-12.84 57.238-20.16zm46.078-4.0781c6.1211-3.6016 12-8.1602 18-13.32 1.4414 8.2812 0.83984 13.441-2.6406 21.238 8.0391 0.83984 14.281 0.83984 22.441-0.12109-11.879 8.1602-25.441 13.078-39.84 14.039 1.4414-6.2383 2.6406-15.48 2.0391-21.84zm123.48 43.078c-43.199-3.4805-106.32-125.88-116.4-163.68-30.359-76.801-110.76-47.762-180.6-59.281 62.879 3.3594 159.12-18.48 187.8 48.961 32.039 77.762 74.879 107.28 102.84 126.48 22.68 15.602 45.48 50.52 6.3594 47.52zm-157.2-107.16c-0.48047 9.7188-6.7188 17.16-12.48 24.48 13.559-0.83984 24.84-2.0391 38.039-6.2383-20.16 16.199-50.641 33.602-77.039 33.359 3.7188-7.1992 7.1992-18.961 6.4805-27 16.199-6 31.199-14.281 45-24.602zm-50.52 26.52c0 2.8789-0.60156 6.3594-1.4414 9.9609-42 18.602-106.2 30.121-152.04 25.199 16.199-6.8398 24-13.199 34.68-27.359 27.121-1.8008 53.039-6.6016 72.961-12-5.2812 5.8789-11.281 10.32-17.52 15.121 22.199-1.5586 41.879-3.7188 63.359-10.922zm48.84-32.398c-28.078 21.602-59.52 32.641-94.559 36.238 9-8.7617 16.441-20.16 18.602-32.641 17.398-5.1602 34.559-12.719 50.039-22.199-2.5195 11.398-7.5586 14.641-16.559 21.238 14.879 0.96094 27.719 1.5586 42.48-2.6406zm-82.199 5.2812c-1.1992 5.1602-3.7188 10.801-6.7188 15.238-48.238 15-124.92 22.199-173.28 4.1992 21.961-4.1992 43.68-11.762 64.078-20.762 20.398-0.35938 39.359-2.1602 55.199-5.1602-3.8398 3.9609-7.8008 7.1992-12 10.801 26.039 3.6016 47.16 2.5195 72.719-4.3203zm-42.121-29.398c-3.8398 5.5195-7.9219 10.68-12.121 15.719-53.52 12.359-161.28 9.6016-207.72-23.52 32.879 5.1602 60.238 4.0781 92.762-4.1992 5.6406 0.83984 48.48 6.4805 79.68-0.35938-6.2383 6.3594-12.602 10.559-19.801 15.48 22.801 0.35938 44.52 0.12109 67.199-3.1211zm18.602-49.078c-4.1992 10.199-8.8789 17.641-15.84 26.16 21.359 2.1602 39.961 2.7617 61.078-2.8789-32.039 18.719-77.398 23.398-113.64 23.398 8.8789-7.4414 15.719-16.199 22.199-25.801 15.359-2.7617 31.199-9.4805 46.199-20.879z"/>
</svg>
