<?xml version="1.0" encoding="UTF-8"?>
<svg width="1200pt" height="1200pt" version="1.1" viewBox="0 0 1200 1200" xmlns="http://www.w3.org/2000/svg">
 <path d="m600 89.973c-138.1 0-250.66 112.3-250.66 250.25 0 89.094 46.957 167.57 117.42 211.99-166.42 55.516-286.17 212.25-286.17 397.27v130.43c-0.03125 7.9531 3.1016 15.598 8.7031 21.246 5.6055 5.6484 13.223 8.8359 21.18 8.8672h779.06c7.957-0.03125 15.574-3.2227 21.18-8.8672 5.6016-5.6484 8.7344-13.293 8.7031-21.246v-130.43c0-185.02-119.75-341.75-286.17-397.27 70.465-44.418 117.42-122.9 117.42-211.99 0-137.95-112.57-250.25-250.66-250.25zm0 59.824c105.73 0 190.66 84.953 190.66 190.43 0 105.48-84.938 190.49-190.66 190.49s-190.66-85.012-190.66-190.49c0-105.48 84.938-190.43 190.66-190.43zm0 440.92c199.7 0 359.41 159.46 359.41 358.77v100.55l-718.83-0.003906v-100.55c0-199.3 159.71-358.77 359.41-358.77zm137.75 159.9v-0.003907c-7.957-0.03125-15.598 3.1016-21.246 8.707-5.6484 5.6016-8.8398 13.223-8.8711 21.18v58.242l-58.242-0.003907c-7.9961-0.03125-15.676 3.1328-21.332 8.7891-5.6523 5.6523-8.8164 13.332-8.7852 21.328 0.03125 7.957 3.2227 15.578 8.8711 21.18 5.6484 5.6055 13.289 8.7344 21.246 8.7031h58.242v58.242c0.03125 7.957 3.2227 15.578 8.8711 21.18 5.6484 5.6055 13.289 8.7344 21.246 8.7031 7.9141-0.027343 15.5-3.1875 21.098-8.7852 5.5977-5.5977 8.7539-13.18 8.7852-21.098v-58.242h58.242c7.957 0.03125 15.598-3.0977 21.246-8.7031 5.6484-5.6016 8.8398-13.223 8.8711-21.18 0.03125-7.9961-3.1328-15.676-8.7852-21.328-5.6562-5.6562-13.336-8.8203-21.332-8.7891h-58.242v-58.238c-0.03125-7.918-3.1875-15.5-8.7852-21.098-5.5977-5.5977-13.184-8.7578-21.098-8.7891z" fill-rule="evenodd"/>
</svg>
