<?xml version="1.0" encoding="UTF-8"?>
<svg width="1200pt" height="1200pt" version="1.1" viewBox="0 0 1200 1200" xmlns="http://www.w3.org/2000/svg">
 <path d="m600 56.25c-299.81 0-543.75 243.94-543.75 543.75s243.94 543.75 543.75 543.75 543.75-243.94 543.75-543.75-243.94-543.75-543.75-543.75zm0 1050c-10.875 0-21.75-0.5625-32.438-1.125l18.938-18.375 62.438-17.812c6.375-1.875 11.25-6.75 12.938-13.125l15.562-57.375c2.625-9.9375-3.1875-20.25-13.125-23.062s-20.25 3.1875-23.062 13.125l-12.75 47.25-49.125 14.062-23.812-31.688c-2.0625-2.625-4.6875-4.6875-7.6875-6l-33.188-13.875-18-41.062c-4.125-9.375-15.188-13.875-24.75-9.5625-9.5625 4.125-13.875 15.188-9.5625 24.75l21 47.812c1.875 4.5 5.4375 7.875 9.9375 9.75l35.438 14.812 19.875 26.625-29.438 28.688c-217.69-35.062-389.25-209.25-420.38-428.25l29.625 9.9375 40.125 60.188c3.5625 5.4375 9.5625 8.4375 15.562 8.4375 2.8125 0 5.625-0.5625 8.4375-2.0625l43.688-21.938c9.1875-4.6875 12.938-15.938 8.4375-25.125-4.6875-9.375-15.938-12.938-25.125-8.4375l-28.875 14.438-34.5-51.938c-2.25-3.375-5.625-6-9.75-7.3125l-51.75-17.25c-0.5625-10.125-0.9375-20.25-0.9375-30.562 0-152.81 68.25-290.06 175.69-382.88l35.062 26.062c4.6875 3.5625 10.875 4.6875 16.5 3l37.125-11.062 33.562 29.25c3.5625 3.1875 7.875 4.6875 12.375 4.6875 5.25 0 10.5-2.25 14.062-6.375 6.75-7.875 6-19.688-1.875-26.438l-41.25-36c-4.875-4.3125-11.438-5.625-17.625-3.75l-38.062 11.438-19.688-14.625c84-62.25 188.06-99 300.38-99 130.5 0 249.56 49.688 339.38 130.88l-2.625 3.9375-48 14.625c-7.125 2.0625-12.188 8.25-13.125 15.562l-6.1875 48.562c-1.3125 10.312 6 19.688 16.312 21h2.4375c9.375 0 17.438-6.9375 18.562-16.5l4.6875-36.562 42.375-12.75c4.3125-1.3125 7.875-3.9375 10.312-7.6875l2.4375-3.75c86.438 90.938 139.69 213.56 139.69 348.56 0 31.125-3 61.688-8.4375 91.312l-41.25-20.625c-5.0625-2.625-11.062-2.625-16.312 0l-8.0625 3.75-20.625-58.688c-3.375-9.75-14.062-15-23.812-11.438-9.75 3.375-15 14.062-11.438 23.812l21.938 62.438-24.75 11.625c-9.375 4.5-13.312 15.562-9 24.938 3.1875 6.75 9.9375 10.688 17.062 10.688 2.625 0 5.4375-0.5625 8.0625-1.875l58.688-27.75 41.625 20.812c-57.188 216.75-255 377.06-489.56 377.06zm0-831.19c-179.25 0-324.94 145.88-324.94 324.94s145.88 324.94 324.94 324.94 324.94-145.88 324.94-324.94-145.88-324.94-324.94-324.94zm0 612.56c-158.62 0-287.44-129-287.44-287.44s129-287.44 287.44-287.44 287.44 129 287.44 287.44-129 287.44-287.44 287.44zm171.94-396.94c0-46.5-37.875-84.375-84.375-84.375-23.062 0-44.062 9.375-59.25 24.375-9.1875-1.5-18.562-2.625-28.312-2.625-94.875 0-171.94 77.062-171.94 171.94s77.062 171.94 171.94 171.94 171.94-77.062 171.94-171.94c0-22.5-4.5-44.25-12.938-65.062 8.0625-12.938 12.938-27.938 12.938-44.25zm-84.375-46.875c25.875 0 46.875 21 46.875 46.875s-21 46.875-46.875 46.875-46.875-21-46.875-46.875 21-46.875 46.875-46.875zm-87.562 290.62c-74.062 0-134.44-60.375-134.44-134.44s60.375-134.44 134.44-134.44c2.4375 0 4.875 0.375 7.3125 0.375-2.4375 7.875-4.125 15.938-4.125 24.75 0 46.5 37.875 84.375 84.375 84.375 15.188 0 29.438-4.3125 41.812-11.438 3.375 11.812 5.25 24 5.25 36.562 0 74.062-60.375 134.44-134.44 134.44z"/>
</svg>
