<?xml version="1.0" encoding="UTF-8"?>
<svg width="1200pt" height="1200pt" version="1.1" viewBox="0 0 1200 1200" xmlns="http://www.w3.org/2000/svg">
 <path d="m944.95 472.55c-1.4531-2.8125-3.9844-4.9688-7.0312-5.9531l-22.406-7.0312 5.9531-1.7812c5.5781-1.6875 9.1406-7.125 8.4375-12.891l-5.0156-41.859c3.9844-8.625 5.9531-19.031 4.9688-30.328-1.0312-12.375-5.4375-23.859-12.375-32.344-7.875-9.6562-18.75-14.672-29.25-13.781-0.5625 0.046875-1.0312 0.28125-1.5938 0.32812-0.42188 0.046875-0.84375-0.09375-1.2656 0l-94.172 19.969c-19.078-58.078-52.734-95.062-100.69-109.64 21.375-28.641 51.609-41.531 91.406-39.094 3.6562 0.1875 7.0312-1.1719 9.4688-3.7969s3.5625-6.1875 3.1406-9.7031l-6.5156-50.531c-0.42188-3.1875-2.0625-6.0469-4.5938-8.0156-2.5312-1.9219-5.8125-2.8125-8.9531-2.3438l-40.922 5.6719 6.8906-26.672c0.79688-3.0938 0.32812-6.375-1.3125-9.1406s-4.3125-4.7344-7.4062-5.4844l-39.141-9.7969c-5.9531-1.5-11.953 1.6875-14.109 7.4062l-22.031 58.219-10.641 11.859 8.5312-75.891c0.70312-6.4688-3.8438-12.328-10.266-13.219l-47.297-6.5156c-6.2344-0.89062-12.281 3.375-13.453 9.7031-7.6875 41.719-19.172 102-26.859 138.56l-59.672-131.53c-2.5781-5.7188-9.1875-8.4375-15.094-6.2812l-57.047 21.188c-3.0938 1.1719-5.5781 3.5625-6.8906 6.6094-1.2656 3.0469-1.2188 6.5156 0.14062 9.5625l13.031 29.016-51.703-11.391c-6.3281-1.3594-12.469 2.3906-14.156 8.5312l-13.031 47.297c-0.89062 3.2812-0.375 6.8438 1.5 9.75 1.875 2.8594 4.875 4.8281 8.2969 5.2969 35.391 5.25 70.641 13.922 89.203 41.391 2.8125 4.1719 5.1094 8.8125 7.125 13.781-3.6562-0.28125-7.5-0.42188-11.812-0.32812l-1.1719 0.046875c-26.719 0.75-53.297 7.4062-78.891 19.688-10.828 5.2031-21.797 16.125-20.156 31.219 0.32812 2.9531 1.1719 5.625 2.3906 8.0625v0.09375c8.1094 19.125 1.5 36.609-6.7969 58.688l-2.8125 7.5469c-4.4531 12.047-17.25 51.141-10.875 83.391-17.484 11.812-31.359 25.5-41.25 40.922-11.578 18.094-26.391 46.594-31.125 79.828-5.2031 36.75 0 76.406 16.406 124.87 0.23438 0.65625 0.60938 1.1719 0.9375 1.7812-5.3438 19.219-6.7969 39.562-3.375 59.531 22.547 132.47 118.36 260.53 256.31 342.56 24.094 14.297 55.781 30.469 89.859 30.469 1.5469 0 3.0469-0.046875 4.5938-0.09375 34.828-1.5 62.953-19.594 80.391-34.5 21.844-18.656 38.812-42.047 53.953-64.547 51.703-76.969 93.469-160.36 124.03-247.92 7.5-21.516 14.625-44.531 11.859-68.625-2.2031-19.078-11.438-35.906-24.422-46.781 11.391-9.4688 20.297-22.828 25.266-39.047 9.6094-31.219 3.2812-66.75-16.5-92.719-3.5156-4.5938-7.5469-8.7656-11.812-12.656v-17.25l57.797 9.5156c5.9062 1.0312 11.578-2.4844 13.359-8.1562l11.391-35.484c0.98438-3.0469 0.70312-6.3281-0.75-9.1875zm-289.36 134.68c-7.2656-0.09375-15.938-5.25-21.375-11.438-3.7969-4.3125-7.0781-9.2344-10.641-14.484-4.6406-6.9375-9.4688-14.156-15.938-20.578-4.875-4.875-10.594-9.0469-16.828-12.469v-70.172c0-36.844 12.234-71.109 28.594-94.5 10.078 6.8906 22.641 11.109 36.516 12.047 1.3594 0.09375 2.8125 0.14062 4.3594 0.14062 17.203 0 42.562-5.5312 45.516-6.1875l151.03-32.062c-1.7344 6.6094-2.4844 13.875-1.8281 21.562 0.89062 10.5 4.3125 20.25 9.5625 28.172l-101.62 20.109c-30.141 6.2812-55.125 28.266-65.156 57.375l-42.141 122.48zm-20.062-242.02c6.75-5.9062 13.734-10.031 20.578-11.719 11.953-2.9531 22.219 2.25 30.469 15.328-9.8906 1.6875-21.75 3.2812-28.969 2.8125-8.2969-0.5625-15.891-2.9062-22.031-6.4219zm259.08 36.047c-4.1719 0.375-7.3125-3.4219-8.625-5.0156-3.8438-4.7344-6.4219-11.719-7.0781-19.219-1.2188-14.297 5.1094-26.016 11.344-26.578h0.46875c3.6094 0 6.8906 3.4688 8.1562 5.0156 3.8438 4.7344 6.4219 11.719 7.0781 19.219 1.2188 14.297-5.1094 26.016-11.344 26.578zm-289.78-315.79 24.328 3.375-11.438 101.44c-0.5625 5.2031 2.25 10.172 6.9844 12.281 4.7344 2.1094 10.359 0.9375 13.828-2.9062l37.219-41.344c0.98438-1.125 1.7812-2.3906 2.2969-3.7969l19.031-50.344 17.016 4.2656-8.3906 32.297c-0.98438 3.8906 0 8.0156 2.625 10.969 2.6719 3 6.6562 4.5 10.594 3.8906l46.688-6.4688 3.1875 24.75c-47.906 1.0781-84.281 22.922-108.14 65.016-1.9219 3.375-2.0625 7.4531-0.42187 10.969 1.6406 3.5156 4.875 6 8.6719 6.75 47.625 8.8594 79.828 40.266 98.484 95.203l-56.766 12.047c-0.23437-0.79687-0.32812-1.6406-0.75-2.4375-13.875-25.922-35.719-37.266-59.859-31.312-40.266 10.078-83.391 71.906-83.391 147.84v61.219c-11.203-2.4844-23.203-3.1406-35.438-1.6406-18.094 2.25-34.875 8.4375-50.016 15.656 2.2031-10.688 3.0938-21.469 3.75-30.375l0.32812-4.5469c2.25-28.688 2.8594-58.547-8.0156-82.219-2.0625-4.5-4.5938-8.25-7.4062-11.391 11.391-71.906 43.172-127.82 97.266-170.48 0.46875-0.32812 0.84375-0.75 1.2188-1.1719l0.1875-0.1875c0.046876-0.046875 0.09375-0.09375 0.14063-0.14062 0.51562-0.5625 1.0312-1.2188 1.8281-3.0469 0.1875-0.42188 0.32813-0.79688 0.46875-1.2188 3.4219-9.2344 10.922-40.5 33.656-162.98zm-226.13 89.391 6.4688-23.438 63.891 14.109c4.4531 0.98437 9.0469-0.60938 11.906-4.125 2.8594-3.5156 3.5156-8.3438 1.6406-12.469l-17.578-39.094 34.547-12.844 65.625 144.66c-21.75 18.281-40.078 39-55.078 62.109 0.14062-10.359-0.32812-20.109-1.5469-29.109 0-0.23438 0.046875-0.42188 0.046875-0.65625-0.046875-0.51562-0.1875-0.9375-0.28125-1.4531-2.8125-18.891-8.5781-34.922-17.484-48.141-21.141-31.312-56.016-43.031-92.203-49.5zm-2.0625 117.75c22.547-10.828 45.844-16.688 69.188-17.344l1.3125-0.046874c10.359-0.375 15 0.46875 17.016 1.2656-1.1719 1.4062-4.7344 3.8906-14.953 7.5938-1.5938 0.5625-3 1.0781-4.0312 1.5469-23.625 10.031-48.047 14.906-71.766 14.297-2.0625-0.046874-3.2812-0.42187-3.4688-0.42187-0.23438-2.2969 3.2812-5.25 6.7031-6.8906zm-15.234 92.297 2.7656-7.3594c6.4688-17.109 12.938-34.641 11.766-53.531h1.125c26.016 0 52.078-5.4375 77.484-16.266 0.75-0.32813 1.7344-0.65625 2.8594-1.0781 2.3438-0.84375 5.4844-2.0156 8.8125-3.5156-0.28125 21.609-3.75 46.781-10.781 76.172-0.09375 0.375 0 0.75-0.046875 1.125-3.1875 11.016-5.8125 22.359-7.9219 34.078-4.8281-0.1875-9.2812 0.46875-12.891 1.1719-12.375 2.3906-23.766 6.8906-34.781 11.297-3.1875 1.2656-6.3281 2.4844-9.5156 3.7031l-6.9844 2.5781c-10.828 3.9844-21.984 8.2031-32.859 13.641-1.3594-19.547 4.125-43.547 10.922-62.016zm-82.031 199.22c4.0781-28.922 17.25-54.141 27.562-70.219 11.344-17.672 29.344-32.859 53.484-45.141 9.9375-5.0625 20.297-8.9062 31.266-12.938l7.0781-2.625c3.3281-1.2656 6.6094-2.5312 9.8906-3.8438 10.406-4.125 20.297-8.0625 30.469-10.031 5.3906-1.0312 9.1875-0.98438 11.344 0.1875 1.1719 0.65625 3.0469 2.3906 5.0625 6.75 8.5781 18.703 7.9219 44.812 5.8594 70.312l-0.32812 4.6875c-1.2656 17.062-3.1875 42.844-15 51.422-0.65625 0.375-1.3594 0.79688-2.0156 1.1719-15.281 9-29.766 17.531-45.281 23.906-6.8438 2.8125-13.875 5.2031-20.906 7.5938-10.734 3.6562-21.844 7.4531-32.531 12.75-24.609 12.188-44.531 31.828-58.078 55.219-9.0938-33.703-11.672-62.578-7.9219-89.156zm576.74 200.86c-29.906 85.641-70.734 167.21-121.31 242.48-14.156 21.094-30 42.891-49.641 59.719-20.578 17.578-43.969 27.797-65.859 28.734-29.25 1.2188-57.469-12.938-81.141-27.047-131.95-78.469-223.55-200.34-244.92-325.97-8.25-48.469 18.75-101.53 62.812-123.37 5.7188-2.8125 11.719-5.1562 17.906-7.4062-2.4375 18.328-0.51562 37.078 5.5781 54.516-14.156 7.0781-25.734 20.391-31.266 36.844-5.3906 16.031-5.4375 34.969-0.09375 54.75 4.5469 16.781 12.141 32.062 19.5 46.828 2.1094 4.2188 6.3281 6.6562 10.734 6.6562 1.7812 0 3.6094-0.375 5.3438-1.2656 5.9062-2.9531 8.3438-10.172 5.3906-16.078-6.8438-13.734-13.875-27.938-17.812-42.422-2.8594-10.547-5.25-26.203-0.32812-40.781 3.4219-10.125 10.547-18.375 18.891-22.688 3.2812 5.3906 6.9375 10.547 11.062 15.328-3.9375 30.469 6.375 62.297 27.844 84.281 2.3438 2.3906 5.4844 3.6094 8.5781 3.6094 3 0 6.0469-1.125 8.3906-3.4219 4.7344-4.6406 4.8281-12.234 0.1875-16.969-12.234-12.562-19.688-29.297-21.516-46.641 9.9375 6.7031 20.859 11.906 32.484 15.281 1.125 0.32812 2.25 0.46875 3.3281 0.46875 5.2031 0 9.9844-3.4219 11.531-8.6719 1.8281-6.375-1.8281-13.031-8.1562-14.859-23.25-6.75-44.062-23.484-55.641-44.766-11.344-20.812-14.156-46.641-7.7344-69.516 2.5781-0.9375 5.1562-1.7812 7.6875-2.8125 17.109-7.0312 33-16.406 48.328-25.406 5.2969-3.0938 10.594-6.2344 15.891-9.2344 17.953-10.172 39.375-20.906 62.062-23.719 22.359-2.7188 43.453 3.2812 56.344 16.172 4.7812 4.7812 8.7656 10.734 12.984 17.016 3.7969 5.625 7.6875 11.484 12.516 16.969 9.1875 10.453 24.234 19.406 39.516 19.453 6.2812 0.89062 12.188 2.1094 17.953 3.5156 5.7188 24.984 11.391 50.531 14.812 76.219 1.0781 10.594-6.75 24.844-23.438 42.422-6.9844 7.3594-15.094 13.688-23.672 20.25-28.875-4.9688-58.969-0.375-84.891 13.172-5.8594 3.0469-8.1562 10.312-5.0625 16.172 2.1562 4.0781 6.3281 6.4219 10.641 6.4219 1.875 0 3.75-0.42188 5.5312-1.3594 14.531-7.5938 30.656-11.719 47.016-12.281-15.609 15.141-24.656 30.656-27.516 47.109-1.125 6.5156 3.2344 12.75 9.75 13.875 0.70312 0.09375 1.3594 0.1875 2.0625 0.1875 5.7188 0 10.781-4.125 11.812-9.9375 2.2969-13.219 11.062-26.203 26.859-39.75 5.2031-4.4531 10.641-8.625 16.125-12.797 9.75-7.4531 19.828-15.188 28.734-24.562 3.375-3.5156 6.3281-6.9844 9.1406-10.359-0.51562 32.766-6.9844 61.594-19.406 85.781-6.6094 12.844-14.953 24.656-23.766 37.172-1.6875 2.3438-3.3281 4.8281-5.0156 7.2188-23.531 15.609-58.406 24.422-82.875 29.672-6.4688 1.3594-10.594 7.7812-9.1875 14.25 1.2188 5.625 6.1875 9.4688 11.719 9.4688 0.84375 0 1.6875-0.09375 2.5312-0.28125 15.797-3.375 35.719-8.25 54.938-15.375-13.266 28.5-15.562 56.156-6.3281 78.891 1.875 4.6406 6.375 7.5 11.109 7.5 1.5 0 3.0469-0.28125 4.5-0.89062 6.1406-2.4844 9.0938-9.4688 6.6094-15.609-10.359-25.594 2.5312-54.844 11.156-69.984 6-10.594 13.031-20.484 20.438-30.984 3.6094-5.1094 7.2656-10.312 10.828-15.656 15.141 25.172 19.172 57.188 9.8438 85.078-2.1094 6.2812 1.2656 13.078 7.5469 15.188 1.2656 0.42188 2.5312 0.60938 3.7969 0.60938 5.0156 0 9.7031-3.1875 11.391-8.2031 12.797-38.297 5.2031-82.781-18.984-115.12 0.375-0.65625 0.75-1.3125 1.125-2.0156 16.688-32.531 24-71.859 21.75-116.86-0.23438-4.875-0.89062-9.7031-1.3125-14.531 9.5625 4.0312 18 10.641 25.734 20.672 10.641 13.875 15.516 32.484 12.984 49.828-0.79688 5.5312-2.3438 11.156-3.9375 17.156-2.25 8.25-4.5469 16.781-5.1562 26.016-1.2188 18.375 6.75 41.156 27.281 47.625 1.2188 0.375 2.3906 0.5625 3.6094 0.5625 5.1094 0 9.8438-3.2812 11.438-8.3906 1.9688-6.3281-1.5-13.078-7.8281-15.047-7.4062-2.3438-11.156-13.594-10.547-23.109 0.46875-6.8906 2.3438-13.922 4.3594-21.328 0.46875-1.7812 0.9375-3.6094 1.4062-5.4375l17.766 12.094c2.0625 1.4062 4.4062 2.0625 6.75 2.0625 3.8438 0 7.5938-1.8281 9.9375-5.25 3.7031-5.4844 2.2969-12.938-3.1875-16.688l-27.328-18.562c0.23438-20.062-6.2344-40.031-18.516-56.062-13.406-17.484-29.203-28.172-47.953-32.484-2.8594-18.656-6.5625-37.031-10.594-55.172 19.219 7.7344 35.578 17.531 50.672 26.672 20.109 12.188 37.5 22.734 55.922 23.906 2.8594 0.1875 5.625 0.28125 8.3438 0.28125 9.6562 0 18.422-1.2656 26.391-3.5625 14.344 5.1562 23.531 21.75 25.219 36.609 2.1562 19.031-4.0781 39.094-10.688 57.984zm58.5-285-61.547-10.125c-3.5625-0.60937-7.0312 0.42188-9.7031 2.6719-2.6719 2.2969-4.2188 5.625-4.2188 9.1406v14.859c-15.234-7.5938-32.25-11.672-49.219-11.297-28.172 0.84375-56.203 14.25-74.953 35.859-4.3594 5.0156-3.7969 12.562 1.1719 16.922 5.0156 4.3594 12.562 3.8438 16.922-1.1719 14.438-16.594 35.953-26.906 57.562-27.562 25.078-0.60938 50.016 11.156 65.203 31.078 15.188 19.922 20.016 47.156 12.656 71.109-4.4062 14.297-12.562 25.594-23.016 31.688-1.8281 1.0781-3.8906 1.9219-6 2.7656-1.2188 0.1875-2.3438 0.65625-3.4219 1.1719-7.7812 2.4375-16.969 3.375-27.844 2.6719-12.516-0.79687-27.562-9.8906-45-20.484-22.031-13.359-48.703-29.344-83.766-37.875l40.875-118.83c7.3125-21.141 25.453-37.125 47.25-41.672l130.5-25.828c0.42188-0.09375 0.70312-0.32812 1.0781-0.46875 1.3125-0.23437 2.6719-0.46875 3.9375-0.84375l1.6875 13.922-33.562 10.125c-5.0156 1.5-8.4844 6.1406-8.5312 11.391s3.375 9.9375 8.3906 11.531l48 15.094-4.5469 14.109z"/>
</svg>
