<?xml version="1.0" encoding="UTF-8"?>
<svg width="1200pt" height="1200pt" version="1.1" viewBox="0 0 1200 1200" xmlns="http://www.w3.org/2000/svg">
 <defs>
  <clipPath id="a">
   <path d="m92 68.25h1040v1026.8h-1040z"/>
  </clipPath>
 </defs>
 <g clip-path="url(#a)">
  <path d="m319.31 640.36c-19.828-39.188-36.328-81.797-49.547-128.06-11.719-40.781-18.141-73.969-19.266-99.469-0.046875-1.5-0.75-2.625-2.0625-3.3281-50.953-28.125-92.484-67.453-118.73-119.48-21.281-42.141-33.516-86.438-36.75-133.03-0.375-4.875-0.32812-8.8594 0.046875-11.906 1.9219-15.281 3.8906-30.656 24.141-27.188 3 0.46875 8.1562 3.5625 15.469 9.0938 5.8125 4.4531 17.391 10.312 34.641 17.625 15.891 6.8438 31.828 13.453 47.766 19.828 17.484 7.125 33.609 16.266 51.375 25.734 2.1094 1.125 3.8438 0.84375 5.4375-1.0312 27.422-33.469 55.969-68.953 85.688-106.45 2.8594-3.6094 7.125-7.6406 12.797-11.953 33.562-25.547 58.359 23.953 64.359 48.844 8.9531 37.125 4.875 74.344-7.4062 112.88-17.812 55.594-28.875 88.688-33.141 99.234-2.7656 6.7031-2.8594 15.141-5.7656 21.891-0.79688 1.9688-0.5625 3.7969 0.89062 5.3438 36 41.016 76.828 75.094 122.29 102.33 1.0781 0.5625 1.9688 0.42188 2.625-0.51562 7.2656-8.4844 13.875-15.938 20.016-22.312 37.547-39.422 61.688 6.1875 73.828 36.469 7.7812 19.359 12.234 30.656 13.406 33.984 0.9375 2.25 1.3125 4.5 1.125 6.9375l-0.23437 4.7344c-0.046876 1.0781 0.375 1.8281 1.3594 2.3438 11.344 5.625 51.891 23.812 121.6 54.656 25.734 11.391 53.344 25.125 82.781 41.25 66.281 36.281 122.44 82.312 168.56 138.28 30.891 37.406 57.75 77.812 80.531 121.13 26.625 50.531 47.531 102 53.672 157.13 1.5 13.688-0.79688 26.156-6.9375 37.406-7.8281 14.531-22.266 17.016-40.125 19.5-20.578 2.8125-39.984 3.4688-58.453 1.8281-23.109-2.0156-47.859-6.1406-74.25-12.375-77.672-18.422-123.24-29.438-136.6-33.047-61.781-16.5-125.76-38.391-181.22-72.281-18.094-11.062-32.109-20.484-42-28.219-0.9375-0.75-1.9688-1.0781-3.0938-0.9375-1.2188 0.09375-2.2031 0.65625-2.9531 1.5469-9.0469 11.016-18.422 23.766-27.984 38.109-7.125 10.688-12.75 16.781-16.969 18.281-25.359 8.9062-50.156-25.828-57.562-45.75-10.406-28.219-12-56.766-4.7344-85.828 1.6406-6.5156 4.2656-12.375 7.9219-17.766 0.65625-0.9375 0.5625-1.7812-0.1875-2.625l-25.594-28.734c-0.84375-0.9375-1.4531-1.9219-1.875-3l-2.0156-4.5c-0.51562-1.3125-1.5-2.0625-3-2.1094-67.5-3.0938-129.98-31.875-172.45-84.281-13.406-16.547-22.875-34.688-28.219-54.375-1.7812-6.4219-1.7812-21.984 2.1562-29.297 12.891-23.766 44.719-12.984 63.469-5.2031 0.375 0.14062 0.75 0.09375 1.0312-0.23438s0.32812-0.70312 0.14062-1.0781zm49.453-310.22c7.0312-21.891 15.75-49.219 26.156-81.938 8.7188-27.469 13.969-47.438 15.562-60.141 4.2656-32.203 2.9062-67.828-18.188-94.359-0.79688-1.125-1.9688-1.7812-3.375-1.875-1.4062-0.14062-2.625 0.28125-3.6562 1.2188-3.4688 2.9531-5.9062 5.4375-7.4531 7.4531-30.234 38.203-58.875 73.734-85.875 106.73-9.8906 12-21.797 14.625-35.859 7.8281-16.969-8.25-32.812-18.047-50.719-25.266-27.75-11.156-58.781-22.172-84-37.781-0.42188-0.28125-0.79688-0.28125-1.2188 0-0.46875 0.23438-0.70312 0.65625-0.65625 1.1719 6.5156 91.359 47.953 176.11 128.26 224.39 0.70312 0.375 1.0781 0.1875 1.0781-0.65625 0.60938-25.406 4.875-50.156 12.75-74.25 2.8125-8.4375 6.6094-15.984 11.578-22.781 16.359-22.594 48.844-20.062 65.812 0.23438 0.84375 1.0781 1.5469 2.2031 2.0625 3.375 7.2188 16.734 15.844 32.391 25.922 46.875 0.23438 0.32812 0.5625 0.51562 0.9375 0.42188 0.42188-0.046875 0.75-0.28125 0.89062-0.65625zm118.41 487.18c38.953 44.484 82.828 83.625 131.76 117.42 45 31.125 90.562 52.828 141.98 69.516 35.812 11.578 74.625 22.312 116.44 32.203 63.328 14.859 96.375 22.547 99.094 23.109 19.875 3.8906 35.859 6.3281 48.047 7.2656 21.938 1.5938 43.125 0.79688 63.609-2.5312 10.453-1.7344 14.625-4.3594 15.188-14.297 0.14063-1.4531-0.46875-2.4375-1.875-3-43.125-17.062-82.922-46.922-119.81-79.172-22.312-19.594-52.688-46.875-90.938-81.938-9.5625-8.7188-22.5-18.656-38.859-29.625-16.734-11.25-37.875-18.141-55.734-21.094-11.719-1.875-46.031-6.7969-102.94-14.859-3.1875-0.42188-5.7656-1.9219-7.6875-4.5-1.9688-2.4844-2.7656-5.3906-2.3906-8.5781l0.046874-0.60938c0.375-3.1875 1.875-5.8125 4.4062-7.875 2.5312-2.0156 5.4375-2.8594 8.625-2.5781 15.609 1.5938 32.062 3.6562 49.406 6.1875 20.578 3 52.453 5.25 74.578 11.344 26.953 7.4062 51.984 21 75.141 40.688 63.234 53.859 126.42 123.61 204 162.47 0.46875 0.28125 0.98438 0.1875 1.4062-0.1875 0.46875-0.28125 0.65625-0.79688 0.46875-1.3594-10.781-44.297-27.281-86.766-49.5-127.31-45-82.125-98.344-150.56-170.58-203.29-32.812-24.094-69.328-45.562-109.36-64.641-41.812-19.875-66.375-31.266-73.781-34.172-56.438-22.641-117.05-52.594-181.87-89.812-81.047-46.594-158.63-113.58-198.94-198.66-3.4219-7.2188-8.4375-10.031-15-8.4844-17.672 4.1719-24.375 53.109-25.5 68.25-2.1094 29.391-0.65625 57.609 4.5 84.75 13.875 73.547 38.344 142.69 73.406 207.37 0.42188 0.79688 1.0312 1.4531 1.7812 1.9219 2.625 1.5938 6.0938 2.9062 10.312 3.8906 36.844 8.4844 75.469 14.859 115.88 19.125 15.75 1.6875 29.438 3.1875 40.969 4.6406 15.797 1.9688 29.484 3.2344 41.109 3.6562 3.1406 0.14062 5.8125 1.3125 8.0625 3.5625s3.375 4.9688 3.5156 8.0625l0.046875 0.375c0.14062 3.0938-0.89062 5.7656-2.9531 8.0156s-4.5938 3.5156-7.7344 3.6094c-12.797 0.65625-24.75 0.14062-35.766-1.4062-7.7344-1.2188-15.188-1.875-22.359-2.1562-2.9531-0.09375-23.438-2.2969-61.453-6.4688-54.656-6.1406-105.56-17.719-152.68-34.641-3.1875-1.125-7.5-1.8281-12.984-2.0625-1.2656-0.046875-1.875 0.5625-1.8281 1.7344 0.32812 23.906 20.016 51.188 37.172 67.875 29.156 28.312 63.703 46.453 103.78 54.328 9.4219 1.8281 21.234 3.4219 35.531 4.875 12.188 1.2656 24.141 1.4531 35.906 0.42188 26.484-2.1562 50.812-5.1094 72.938-8.9062 19.547-3.375 24.375 22.125 4.6875 26.297-20.906 4.3594-47.719 7.5-80.438 9.375-0.51562 0-0.84375 0.23438-1.0312 0.70312-0.1875 0.42188-0.09375 0.79688 0.1875 1.1719zm104.06-312.24c-5.3438-16.641-12-31.875-19.688-45.75-1.9219-3.4688-4.5-6.5625-7.5938-9.4688-1.9688-1.7344-3.8438-1.6875-5.625 0.14063l-23.391 23.391c-0.79688 0.84375-0.75 1.5938 0.32812 2.1562l53.906 31.219c0.5625 0.28125 1.125 0.23438 1.6406-0.14062 0.51562-0.42188 0.70312-0.9375 0.42188-1.5469zm-25.922 423.19c-22.266-18.141-42.234-36.328-59.953-54.562-0.28125-0.32812-0.65625-0.375-1.0312-0.28125-0.46875 0.09375-0.70312 0.32812-0.84375 0.75-6.4219 22.594-6.2812 45.281 0.375 68.062 4.2188 14.391 12 26.203 23.438 35.531 1.2656 0.98438 2.3438 0.84375 3.2812-0.46875l34.875-48c0.23438-0.42188 0.23438-0.75-0.14062-1.0312z"/>
 </g>
 <path d="m954.14 808.92c-1.875 1.8281-4.0781 3.1406-6.5156 4.0781-2.4375 0.89062-5.0156 1.2656-7.6406 1.125s-5.1562-0.75-7.5938-1.875c-2.5312-1.125-4.6406-2.625-6.5156-4.6406-1.9219-1.9219-3.375-4.1719-4.3594-6.6562-1.0781-2.5312-1.5938-5.0625-1.5938-7.6875 0-2.7188 0.51562-5.2031 1.5-7.6406 1.0312-2.3906 2.4375-4.5 4.3125-6.2344 1.8281-1.8281 4.0312-3.1406 6.4688-4.0781 2.4375-0.89062 4.9688-1.2656 7.5938-1.1719 2.7188 0.09375 5.2031 0.75 7.6875 1.875 2.4375 1.1719 4.5938 2.6719 6.5156 4.6875 1.875 1.9219 3.3281 4.1719 4.3125 6.6562 1.0781 2.5312 1.5469 5.0625 1.5469 7.6875 0 2.7188-0.46875 5.2031-1.5 7.6406-0.98438 2.3906-2.4375 4.5-4.2188 6.2344z"/>
 <path d="m911.02 938.21-0.09375 0.79688c-0.23438 3.0469-1.5469 5.5781-3.8438 7.5-2.3438 2.0156-4.9688 2.8594-8.0156 2.6719-28.875-1.9688-57.75-6.5625-86.484-13.734-26.156-6.5625-52.969-19.359-80.438-38.438-3-2.1094-4.875-4.9219-5.5781-8.5781-0.75-3.6094-0.046875-6.9375 1.875-10.031l0.375-0.5625c1.9219-2.9531 4.6875-4.8281 8.1094-5.5312 3.5156-0.60938 6.7031 0.09375 9.6562 2.1562 26.484 18.844 53.156 31.547 79.969 38.062 21.328 5.1562 46.031 9.4688 74.156 12.938 3.1875 0.375 5.7188 1.7812 7.7344 4.3125 2.0156 2.4375 2.8594 5.25 2.5781 8.4375z"/>
 <path d="m981.56 1006.7 0.046875 0.98438c0.09375 3.1406-0.9375 5.7656-3 8.0625-2.1094 2.25-4.7344 3.375-7.7812 3.5156-47.344 1.8281-90.891-1.3594-130.64-9.6094-44.672-9.3281-87.328-26.531-127.87-51.562-3.1406-1.9688-5.1094-4.6875-6.0469-8.25s-0.5625-6.9375 1.1719-10.219l0.32812-0.46875c1.6875-3.1406 4.2188-5.2031 7.6875-6.1406 3.4219-0.9375 6.6094-0.42188 9.6562 1.3594 44.766 27 90.656 44.625 137.58 52.969 34.875 6.0938 70.5 8.8125 106.92 8.0625 3.2812-0.14062 6 0.98438 8.3438 3.1875 2.3438 2.1562 3.5625 4.9219 3.6094 8.1094z"/>
</svg>
