<?xml version="1.0" encoding="UTF-8"?>
<svg width="1200pt" height="1200pt" version="1.1" viewBox="0 0 1200 1200" xmlns="http://www.w3.org/2000/svg">
 <path d="m1178 809.44c-5.8594-8.5312-17.531-10.734-26.062-4.875-21.188 14.484-51.516 22.828-83.156 22.828s-61.922-8.3438-83.156-22.828c-6.375-4.3594-14.812-4.3594-21.188 0-21.234 14.484-51.562 22.828-83.25 22.828-31.641 0-61.922-8.3438-83.156-22.828-6.375-4.3594-14.812-4.3594-21.188 0-9 6.1406-19.875 10.922-31.547 14.672v-69.281c0-111.75 87.469-155.86 151.36-188.06 8.7188-4.4062 16.922-8.5312 24.469-12.609 127.69-69.75 211.82-177.94 236.76-303.84 7.5938-31.219-0.65625-59.156-21.094-71.203-12.516-7.3594-39.328-14.438-79.5 22.688-38.156 42.797-117.56 48.984-181.4 54-35.156 2.7188-65.531 5.1094-87.188 12.281-65.812 16.969-151.4 74.062-188.72 143.81-37.266-69.703-122.63-126.74-187.55-143.48-22.828-7.4531-53.156-9.8438-88.312-12.609-63.844-5.0156-143.29-11.203-182.72-55.312-38.859-35.812-65.672-28.781-78.141-21.375-20.438 12.047-28.734 40.031-21.281 70.406 25.078 126.71 109.22 234.89 237 304.69 7.4531 4.0312 15.656 8.2031 24.375 12.562 63.844 32.25 151.26 76.359 151.26 188.06v69.281c-11.672-3.75-22.547-8.5312-31.547-14.672-6.375-4.3594-14.812-4.3594-21.188 0-21.188 14.484-51.516 22.828-83.156 22.828s-61.969-8.3438-83.156-22.828c-6.375-4.3594-14.812-4.3594-21.188 0-21.188 14.531-51.469 22.828-83.109 22.828s-61.969-8.3438-83.156-22.828c-8.5781-5.8594-20.203-3.6562-26.062 4.875s-3.6562 20.203 4.875 26.062c27.281 18.703 65.344 29.391 104.34 29.391 34.172 0 67.594-8.2031 93.75-22.828 26.109 14.625 59.531 22.828 93.75 22.828s67.641-8.2031 93.75-22.828c26.109 14.625 59.531 22.828 93.75 22.828s67.641-8.2031 93.75-22.828c26.109 14.625 59.531 22.828 93.75 22.828s67.641-8.2031 93.75-22.828c26.109 14.625 59.531 22.828 93.75 22.828s67.688-8.2031 93.844-22.828c26.109 14.625 59.531 22.828 93.75 22.828 39 0 77.062-10.688 104.34-29.391 8.4375-5.8125 10.641-17.531 4.7812-26.062zm-567.42-4.875c-6.375-4.3594-14.812-4.3594-21.188 0-21.188 14.484-51.516 22.828-83.156 22.828-4.7812 0-9.4219-0.5625-14.109-0.9375v-76.5c0-134.76-103.41-186.98-171.89-221.53-8.3906-4.2188-16.312-8.2031-23.391-12.094-117.7-64.266-195.19-163.36-218.26-279.79-4.0312-16.594-0.1875-27.75 3.75-30 3.8438-2.2969 15.938 0.32812 32.391 15.328 48.141 54.094 135.94 60.938 206.48 66.469 31.406 2.4375 61.031 4.7812 80.719 11.156 71.391 18.469 179.34 98.25 179.34 176.53 0 10.359 8.3906 18.75 18.75 18.75 10.359 0 18.75-8.3906 18.75-18.75 0-78.281 107.95-158.06 180.47-176.86 18.562-6.0938 48.188-8.3906 79.547-10.828 70.547-5.5312 158.34-12.375 205.22-65.156 17.766-16.312 29.906-18.891 33.75-16.688 3.8906 2.2969 7.7812 13.406 3.5625 30.844-22.875 115.59-100.36 214.69-218.06 279-7.125 3.8438-15.047 7.875-23.438 12.094-68.484 34.547-171.98 86.766-171.98 221.53v76.5c-4.6875 0.375-9.3281 0.9375-14.109 0.9375-31.641 0-61.922-8.2969-83.156-22.828z"/>
 <path d="m514.69 971.34c-21.234 14.484-51.562 22.828-83.156 22.828-31.641 0-61.922-8.3438-83.156-22.828-6.375-4.3594-14.766-4.3594-21.188 0-21.234 14.484-51.562 22.828-83.156 22.828s-61.922-8.3438-83.156-22.875c-8.5312-5.8125-20.203-3.6094-26.062 4.9219s-3.6562 20.25 4.9219 26.062c27.328 18.656 65.344 29.344 104.34 29.344 34.172 0 67.594-8.2031 93.75-22.828 26.156 14.625 59.578 22.828 93.75 22.828 39 0 76.969-10.688 104.3-29.391 8.5312-5.8594 10.734-17.531 4.875-26.062-5.8125-8.4844-17.484-10.688-26.062-4.8281z"/>
 <path d="m1002.4 971.34c-21.234 14.484-51.562 22.828-83.156 22.828s-61.922-8.3438-83.156-22.828c-6.375-4.3594-14.766-4.3594-21.188 0-21.234 14.484-51.562 22.828-83.156 22.828-31.641 0-61.922-8.3438-83.156-22.828-8.5312-5.8594-20.203-3.6562-26.062 4.875s-3.6562 20.203 4.875 26.062c27.328 18.656 65.344 29.391 104.34 29.391 34.172 0 67.594-8.2031 93.75-22.828 26.156 14.625 59.578 22.828 93.75 22.828 39 0 77.016-10.688 104.34-29.391 8.5312-5.8594 10.734-17.531 4.875-26.062s-17.484-10.734-26.062-4.875z"/>
 <path d="m1028.1 531.1c-10.359 0-18.75 8.3906-18.75 18.75v111.7c0 10.359 8.3906 18.75 18.75 18.75s18.75-8.3906 18.75-18.75v-111.7c0-10.406-8.3906-18.75-18.75-18.75z"/>
 <path d="m920.76 672.94v43.828c0 10.359 8.3906 18.75 18.75 18.75s18.75-8.3906 18.75-18.75v-43.828c0-10.359-8.3906-18.75-18.75-18.75s-18.75 8.3438-18.75 18.75z"/>
 <path d="m190.69 661.55v-111.7c0-10.359-8.3906-18.75-18.75-18.75s-18.75 8.3906-18.75 18.75v111.7c0 10.359 8.3906 18.75 18.75 18.75 10.312 0 18.75-8.3906 18.75-18.75z"/>
 <path d="m279.24 716.72v-43.828c0-10.359-8.3906-18.75-18.75-18.75s-18.75 8.3906-18.75 18.75v43.828c0 10.359 8.3906 18.75 18.75 18.75s18.75-8.3906 18.75-18.75z"/>
</svg>
