<?xml version="1.0" encoding="UTF-8"?>
<svg width="1200pt" height="1200pt" version="1.1" viewBox="0 0 1200 1200" xmlns="http://www.w3.org/2000/svg">
 <path d="m1138.9 681.2-4.1523-3.3242v0.003906c-9.8008-8.3281-20.371-15.699-31.57-22.016-38.629-22.844-91.797-41.121-159.09-55.66 67.289-14.539 120.87-32.812 159.5-55.66 11.203-6.3164 21.773-13.688 31.57-22.012 1.3359-1.0039 2.5859-2.1172 3.7383-3.3242l6.6445-6.2305c34.699-34.871 54.18-82.062 54.18-131.26 0-49.191-19.48-96.383-54.18-131.25-18.387-18.59-40.543-33.023-64.973-42.34-24.43-9.3125-50.57-13.289-76.668-11.66 2.1562-37.598-7.1719-74.965-26.75-107.14-19.578-32.172-48.473-57.633-82.855-73-34.383-15.367-72.629-19.914-109.66-13.039-37.027 6.8789-71.09 24.852-97.664 51.535l-5.8164 6.2305-3.3242 4.1523h0.003906c-8.332 9.8906-15.832 20.449-22.43 31.57-22.43 38.629-40.707 91.797-55.242 158.67-14.539-66.875-32.812-120.46-55.66-159.09h-0.003906c-6.3164-11.203-13.688-21.773-22.012-31.57-1.0039-1.3359-2.1172-2.5859-3.3242-3.7383l-6.2305-6.6445c-34.871-34.699-82.062-54.18-131.26-54.18-49.191 0-96.383 19.48-131.25 54.18-18.59 18.387-33.023 40.543-42.34 64.973-9.3125 24.43-13.289 50.57-11.66 76.668-26.094-1.6289-52.238 2.3438-76.668 11.66-24.43 9.3125-46.586 23.75-64.973 42.336-34.699 34.871-54.18 82.062-54.18 131.26 0 49.191 19.48 96.387 54.18 131.26l6.2305 6.2305 4.1523 3.3242v-0.003906c9.8008 8.3281 20.371 15.699 31.57 22.016 38.215 22.43 91.383 41.121 158.67 55.66-66.875 14.121-120.46 32.812-159.09 55.242-11.121 6.6016-21.68 14.102-31.57 22.43-1.4336 0.87891-2.6992 2.0039-3.7383 3.3242l-6.6445 5.8164c-26.688 26.574-44.66 60.637-51.535 97.664-6.875 37.027-2.3281 75.27 13.039 109.65 15.367 34.383 40.824 63.281 73 82.859 32.172 19.574 69.535 28.906 107.14 26.75-1.6289 26.094 2.3438 52.238 11.66 76.668 9.3125 24.43 23.75 46.586 42.336 64.973 34.871 34.699 82.062 54.18 131.26 54.18 49.191 0 96.387-19.48 131.26-54.18l6.2305-6.2305 3.3242-4.1523h-0.003906c8.3281-9.8008 15.699-20.371 22.016-31.57 22.43-38.629 41.121-91.797 55.66-159.09 14.539 67.289 32.812 120.87 55.66 159.5 6.3164 11.203 13.688 21.773 22.012 31.57 0.87891 1.4336 2.0039 2.6992 3.3242 3.7383l5.8164 6.6445c34.887 34.828 82.168 54.387 131.46 54.387 49.293 0 96.574-19.559 131.46-54.387 18.59-18.387 33.023-40.543 42.34-64.973 9.3125-24.43 13.289-50.57 11.66-76.668 26.094 1.6289 52.238-2.3438 76.668-11.66 24.43-9.3125 46.586-23.75 64.973-42.336 34.824-34.891 54.383-82.172 54.383-131.46 0-49.297-19.559-96.578-54.383-131.46zm-9.5547 252.96c-35.82 35.918-86.398 52.98-136.66 46.105l-14.539-1.6602 1.6602 14.539 0.003907-0.003907c5.8672 45.309-7.5195 91-36.91 125.98-29.387 34.977-72.086 56.039-117.72 58.066-45.641 2.0312-90.043-15.156-122.42-47.387l-5.3984-5.8164-2.9062-3.3242-0.003906 0.003906c-7.4023-8.8594-14.07-18.305-19.938-28.246-27.414-47.352-48.598-118.38-63.551-211.42l-11.215-68.953-11.215 68.953c-14.953 93.043-36.551 164.07-63.965 211.01h-0.003906c-5.5859 10.02-12.121 19.48-19.52 28.246l-3.3242 3.7383-4.9844 4.9844c-30.562 30.742-72.125 48.027-115.47 48.027-43.352 0-84.91-17.285-115.47-48.027-35.906-35.656-52.977-86.109-46.105-136.24l1.6602-14.539-14.539 1.6602 0.003907 0.003907c-50.262 6.875-100.84-10.191-136.66-46.105-30.543-30.672-47.688-72.191-47.688-115.47s17.145-84.805 47.688-115.47l5.8164-5.3984 3.3242-2.9062-0.003906-0.003906c8.8594-7.4023 18.305-14.07 28.246-19.938 47.352-27.414 118.38-48.598 211.42-63.551l68.953-11.215-68.953-11.215c-93.457-14.953-164.48-36.551-211.01-63.965v-0.003906c-10.02-5.5859-19.48-12.121-28.246-19.52l-3.7383-3.3242-5.3984-4.9844c-30.539-30.672-47.684-72.191-47.684-115.47s17.145-84.801 47.684-115.47c35.82-35.918 86.398-52.98 136.66-46.105l14.539 1.6602-2.0781-14.539v0.003907c-6.0195-45.422 7.3281-91.281 36.781-126.38 29.453-35.098 72.301-56.199 118.08-58.156 45.777-1.9531 90.27 15.418 122.61 47.879l5.3984 5.8164 2.9062 3.3242 0.003906-0.003906c7.2617 8.8672 13.793 18.316 19.523 28.246 27.414 47.352 49.012 118.38 63.965 211.42l11.215 69.367 11.215-69.367c14.953-93.043 36.137-164.07 63.551-211.01 5.8711-9.9414 12.539-19.387 19.938-28.246l3.3242-3.7383 4.9844-5.3984c30.672-30.539 72.191-47.684 115.47-47.684s84.801 17.145 115.47 47.684c35.918 35.82 52.98 86.398 46.105 136.66l-1.6602 14.539 14.539-1.6602-0.003907-0.003907c50.137-6.8711 100.59 10.203 136.24 46.105 30.742 30.562 48.031 72.125 48.031 115.47 0 43.352-17.289 84.91-48.031 115.47-1.5859 2.0039-3.3984 3.8125-5.3984 5.4023l-3.3242 2.9062c-8.9453 7.3594-18.535 13.895-28.66 19.523-46.938 27.414-117.96 49.012-211.01 63.965l-68.953 11.215 68.953 11.215c93.043 14.953 164.07 36.551 211.01 63.551 9.9414 5.8711 19.387 12.539 28.246 19.938l3.7383 3.3242 5.3984 4.9844c30.539 30.672 47.684 72.191 47.684 115.47s-17.145 84.801-47.684 115.47z"/>
 <path d="m651.3 640.5c-10.426-10.57-16.27-24.824-16.27-39.668 0-14.848 5.8438-29.098 16.27-39.668 28.246-29.074 56.906-57.734 84.734-87.227 42.781-44.445 85.152-89.305 126.69-135.41-46.105 41.535-90.965 83.906-135.41 126.69-29.492 27.828-58.152 56.488-86.812 84.734h0.003906c-10.695 10.352-24.992 16.141-39.875 16.141-14.887 0-29.184-5.7891-39.879-16.141-28.66-28.246-57.32-56.906-86.812-84.734-44.445-42.781-89.305-85.152-135.41-126.69 41.535 46.105 83.906 90.965 126.69 135.41 27.828 29.492 56.488 58.152 84.734 87.227h0.003907c10.426 10.57 16.27 24.82 16.27 39.668 0 14.844-5.8438 29.098-16.27 39.668-28.246 28.66-56.906 57.734-84.734 86.812-42.781 44.445-85.152 89.305-126.69 135.41 46.105-41.535 90.965-83.906 135.41-126.69 29.492-27.828 58.152-56.074 86.812-84.734l-0.003906-0.003906c10.695-10.352 24.992-16.141 39.879-16.141 14.883 0 29.18 5.7891 39.875 16.141 28.66 28.66 57.32 56.906 86.812 84.734 44.445 42.781 89.305 85.152 135.41 126.69-41.535-46.105-83.906-90.965-126.69-135.41-27.832-29.074-56.492-58.148-84.738-86.809z"/>
</svg>
