<?xml version="1.0" encoding="UTF-8"?>
<svg width="1200pt" height="1200pt" version="1.1" viewBox="0 0 1200 1200" xmlns="http://www.w3.org/2000/svg">
 <path d="m864.61 431.76c-2.5312-3.9375-7.3125-6.4688-13.312-11.625-12.938 13.781-26.391 25.781-36.938 39.938-22.688 30.469-30.234 66.703-22.922 102.61 3.6094 17.531 22.453 32.156 34.922 47.625 8.0625 9.9375 19.922 17.766 25.219 28.781 14.531 30.234 35.156 51.469 67.922 61.781 6.4688 2.0625 9.6094 14.766 14.297 22.547-8.3906 0.375-17.859 3.6094-24.938 0.70312-34.453-14.062-65.766-32.156-85.922-66.141-9.8438-16.547-21.469-34.688-47.391-36.703 2.0625 18.141 6.375 34.312 5.1562 50.062-3.8438 48.469 22.219 79.219 59.297 102.94 15.609 9.9375 33.844 16.078 51.234 23.062 33.844 13.547 56.859 56.625 46.312 96.703-9.2344-9.2344-19.922-15-22.781-23.531-9.7031-28.078-25.781-43.922-57.234-45.609-12.609-0.70312-25.078-10.219-36.938-16.781-12.469-7.0781-24.234-15.469-40.453-25.922-4.7812 46.312 4.9219 84.703 35.766 113.39 38.156 35.625 51.609 79.688 54.469 129 0.375 6.8438-4.9219 13.922-7.6875 21-6.375-4.9219-16.219-8.7656-18.234-15.141-4.6875-14.531-5.625-30.141-7.7812-45.375-2.7656-19.922-8.2969-37.922-31.781-48.234-8.5312 17.766-15.375 35.297-25.312 50.859-4.2188 6.6094-14.859 8.8594-22.688 13.219-2.8594-7.4531-8.5312-15.234-7.7812-22.312 1.2188-12.469 3.9375-26.156 10.453-36.469 22.078-34.781 20.062-69.234-0.375-112.78-34.219 39.938-66.469 75.703-96.141 113.53-10.781 13.688-14.156 33-23.062 48.469-3.7031 6.4688-13.078 9.8438-19.781 14.625-4.5469-9.2344-12.938-18.469-12.703-27.469 0.14062-9.1406 8.7656-18 13.688-27 8.5312-15.469 17.062-30.938 28.688-52.219-33.469 5.1562-60.234 9.2344-87 13.453-1.3125-3.1406-2.625-6.375-3.9375-9.4688 7.9219-5.7656 15.141-13.547 24-16.688 15.234-5.2969 31.453-8.1562 47.531-11.062 62.062-11.531 115.45-75.703 114.84-139.22-0.14062-12.938-2.2969-25.781-4.0781-44.297-38.859 22.922-72.141 43.922-106.69 62.297-12.375 6.4688-28.219 6.4688-42.375 9.375-1.4531-2.5312-2.7656-5.0625-4.2188-7.5469 5.2969-6.6094 9.375-15.234 16.078-19.453 28.219-17.625 56.156-36.375 86.391-50.297 29.859-13.781 46.781-33.609 47.859-66.375 0.84375-24.844 1.6875-49.688 1.4531-74.531-0.60938-43.547 11.062-82.078 38.391-116.86 41.531-52.781 100.31-69.703 161.53-81.375 58.547-11.156 58.312-10.078 45.703-67.547-5.1562-23.391-16.078-34.922-41.156-28.688-49.781 12.234-100.31 22.078-149.39 36.469-66.234 19.453-121.69 55.219-154.69 118.78-22.922 44.156-59.531 71.625-104.39 90.844-8.8594 3.7031-19.219 13.453-21.234 22.078-11.391 50.625-38.062 91.688-75.609 125.76-23.391 21.234-48.938 40.078-73.922 59.766-10.312 8.1562-16.219 15.141-8.3906 29.859 12.703 24 23.062 49.453 33 74.766 6.4688 16.547 11.297 33.844 15.234 51.141 0.9375 4.4531-4.2188 10.219-6.4688 15.375-5.3906-3.1406-13.312-5.0625-15.703-9.7031-20.859-40.781-40.781-82.219-61.547-124.55-14.391 13.688-30.938 30.938-48.938 46.312-15.375 13.219-17.062 26.859-11.062 45.609 20.297 63.141 61.547 111.14 111.23 151.31 115.08 93.234 245.16 156.37 391.08 185.29 74.156 14.766 134.16-15 167.39-83.062 8.625-17.625 15.375-36.234 22.219-54.703 46.078-122.53 59.859-248.29 27.234-375.84-21.562-82.688-70.875-153-115.64-224.76z"/>
 <path d="m464.06 318.37c0.375 15.703 7.9219 32.531 15.938 46.547 15.375 27 33.375 52.547 51.609 80.531 27.234-11.297 49.547-27.141 53.766-70.078 7.7812-78.469 51.469-111.61 120.47-107.53 7.5469 0.46875 15.844 1.4531 22.547-1.0781 32.625-12.375 64.781-25.781 100.45-40.312-6.8438-10.219-11.062-23.297-19.922-28.781-50.297-31.453-48-75-31.781-122.86 1.0781-3.2344 1.6875-6.7031 1.6875-10.078-0.23438-11.766 8.0625-26.625-10.922-32.062-20.156-5.7656-46.453 3.7031-51.609 19.078-7.2188 21.141-13.547 42.469-20.766 63.609-5.7656 17.062-19.312 18.234-33.609 13.922-16.547-4.9219-9-16.453-6.4688-27.234 4.2188-17.391 7.2188-35.156 10.078-52.781 3.6094-21.844-11.062-23.531-27-23.297-14.766 0.23438-31.547-1.3125-28.219 21.609 3.1406 21 7.7812 41.859 11.297 62.859 0.9375 6 2.5312 15.234-0.60938 17.766-4.0781 3.4688-14.391 4.9219-18.609 2.0625-8.7656-5.8594-18-13.781-22.312-23.156-9-19.312-15.141-39.938-22.219-60.141-6.2344-17.625-31.688-24.609-59.531-16.312-19.688 5.8594-11.625 21.609-8.625 31.922 8.0625 27.938 18.703 55.078 28.922 82.453 6.7031 18 4.6875 33.844-9.9375 46.781-38.391 33.891-45.75 79.406-44.625 126.56z"/>
 <path d="m466.92 514.92c16.219-48.469 3.2344-102.14-31.688-128.29-35.391-26.391-92.297-22.453-134.06 9.1406-122.86 92.625-128.63 245.39-81.234 351.71 59.156-44.391 117.84-86.859 174.84-131.63 33.375-26.156 58.359-59.766 72.141-100.92z"/>
 <path d="m244.69 152.06c69.375 24.234 75.938 34.547 76.219 107.77 0.14062 22.547 0 45.234 0 66 35.156-1.5469 68.062-3 107.86-4.7812 0-58.688 0.9375-117.47-0.9375-176.06-0.375-9.9375-11.297-24.141-21-28.453-38.859-17.297-78.609-33.234-119.16-46.078-47.859-15.141-60.844-4.2188-68.062 45.141-3.1406 22.031 6.0938 29.719 25.078 36.469z"/>
 <path d="m1001.3 420.47c-8.8594-11.156-27.234-14.859-40.078-21.141-17.297 5.1562-29.531 8.8594-41.766 12.609 4.9219 13.312 8.7656 27 15 39.609 3.2344 6.4688 10.453 15.375 15.938 15.375 18.609 0.23438 38.062-0.84375 55.312-6.7031 3.1406-0.84375 3-30.375-4.4062-39.75z"/>
</svg>
