<?xml version="1.0" encoding="UTF-8"?>
<svg width="1200pt" height="1200pt" version="1.1" viewBox="0 0 1200 1200" xmlns="http://www.w3.org/2000/svg">
 <path d="m952.42 607.23c-4.293 0-8.5508 0.14063-12.781 0.39063l-0.003906-445.09h13.645c11.75 0.03125 23.016 4.7148 31.328 13.023 8.3086 8.3125 12.996 19.57 13.031 31.324v405.08c-14.867-3.1523-30.023-4.7383-45.219-4.7344zm-89.52 489.7h-756.34c-11.75-0.03125-23.012-4.7148-31.32-13.027-8.3125-8.3086-12.996-19.57-13.027-31.32v-936.13c0.03125-11.75 4.7148-23.016 13.023-31.328 8.3125-8.3086 19.574-12.996 31.324-13.031h28.066v126.44h0.003906c1.1719 31.219 18.504 59.578 45.754 74.859 27.246 15.277 60.484 15.277 87.734 0 27.246-15.281 44.578-43.641 45.754-74.859v-56.844c0.003906-12.723-4.9766-24.945-13.879-34.039-8.8984-9.0938-21.012-14.34-33.734-14.605-12.723-0.26562-25.043 4.4648-34.316 13.176v-34.129h23.215c-3.4766-2.0781-6.0508-5.3789-7.2109-9.2617-2.25-7.6797-8.082-13.797-15.645-16.418-7.5664-2.6172-15.93-1.4102-22.449 3.2383-6.5195 4.6445-10.383 12.16-10.375 20.168v128.71c0 8.8398 4.7188 17.008 12.375 21.43 7.6562 4.4219 17.09 4.4219 24.746 0 7.6562-4.4219 12.371-12.59 12.371-21.43v-56.844c0-5.793 3.0898-11.148 8.1094-14.047 5.0195-2.8945 11.199-2.8945 16.219 0 5.0195 2.8984 8.1094 8.2539 8.1094 14.047v56.844c0 20.43-10.898 39.305-28.59 49.52-17.695 10.215-39.492 10.215-57.184 0-17.695-10.215-28.594-29.09-28.594-49.52v-128.71c0.007813-18.477 8.9414-35.809 23.98-46.539 15.043-10.727 34.34-13.523 51.812-7.5117 17.469 6.0117 30.957 20.094 36.211 37.805 1.0234 3.4492 0.87109 7.1406-0.43359 10.496-1.3047 3.3516-3.6914 6.1758-6.7773 8.0234h591.07c11.75 0.035156 23.012 4.7227 31.324 13.031 8.3086 8.3125 12.992 19.578 13.023 31.328v495.51c-29.926 6.4141-58.168 19.043-82.902 37.066-24.734 18.023-45.406 41.039-60.68 67.562h-264c-5.7969 0-11.148 3.0898-14.047 8.1094-2.8984 5.0195-2.8984 11.199 0 16.219 2.8984 5.0195 8.25 8.1094 14.047 8.1094h248.73c-9.0703 24.293-13.703 50.02-13.68 75.953 0 6.4414 0.30469 12.809 0.84766 19.113h-235.84c-5.7969 0-11.148 3.0898-14.047 8.1094-2.8984 5.0156-2.8984 11.199 0 16.219 2.8984 5.0156 8.25 8.1094 14.047 8.1094h241.18c8.668 35.438 26.109 68.129 50.715 95.066h-291.89c-5.7969 0-11.148 3.0898-14.047 8.1094-2.8984 5.0156-2.8984 11.199 0 16.219 2.8984 5.0156 8.25 8.1094 14.047 8.1094h300.19c3.2734 0.011719 6.4727-0.96484 9.1758-2.8047 2.707-1.8398 4.793-4.457 5.9844-7.5039 26.77 21.895 58.383 37.078 92.211 44.285v14.566c-0.035156 11.754-4.7227 23.02-13.035 31.332-8.3164 8.3086-19.586 12.988-31.34 13.016zm-460.78-174.89c-5.793 0-11.148 3.0898-14.043 8.1094-2.8984 5.0156-2.8984 11.199 0 16.219 2.8945 5.0156 8.25 8.1094 14.043 8.1094h257.13c5.7969 0 11.148-3.0938 14.047-8.1094 2.8984-5.0195 2.8984-11.203 0-16.219-2.8984-5.0195-8.25-8.1094-14.047-8.1094zm0-45.473h52.309v-0.003906c5.793 0 11.148-3.0898 14.047-8.1094 2.8945-5.0156 2.8945-11.199 0-16.219-2.8984-5.0156-8.2539-8.1094-14.047-8.1094h-52.309c-5.793 0-11.148 3.0938-14.043 8.1094-2.8984 5.0195-2.8984 11.203 0 16.219 2.8945 5.0195 8.25 8.1094 14.043 8.1094zm0-82.004v-0.003907c-5.793 0-11.148 3.0938-14.043 8.1094-2.8984 5.0195-2.8984 11.203 0 16.219 2.8945 5.0195 8.25 8.1094 14.043 8.1094h257.13c5.7969 0 11.148-3.0898 14.047-8.1094 2.8984-5.0156 2.8984-11.199 0-16.219-2.8984-5.0156-8.25-8.1094-14.047-8.1094zm0-45.473h52.309v-0.003906c5.793 0 11.148-3.0898 14.047-8.1094 2.8945-5.0195 2.8945-11.199 0-16.219-2.8984-5.0195-8.2539-8.1094-14.047-8.1094h-52.309c-5.793 0-11.148 3.0898-14.043 8.1094-2.8984 5.0195-2.8984 11.199 0 16.219 2.8945 5.0195 8.25 8.1094 14.043 8.1094zm273.35-65.785v-0.003906c0-4.3008-1.707-8.4258-4.75-11.469-3.043-3.043-7.168-4.75-11.469-4.75h-257.13c-5.793 0-11.148 3.0898-14.043 8.1094-2.8984 5.0195-2.8984 11.199 0 16.219 2.8945 5.0195 8.25 8.1094 14.043 8.1094h257.13c4.3125 0 8.4453-1.7148 11.488-4.7695 3.043-3.0508 4.7461-7.1914 4.7305-11.5zm140.65-72.953c0-4.3008-1.707-8.4258-4.75-11.469-3.0391-3.0391-7.168-4.75-11.469-4.75h-393.47c-5.793 0-11.148 3.0938-14.047 8.1094-2.8945 5.0195-2.8945 11.203 0 16.219 2.8984 5.0195 8.2539 8.1094 14.047 8.1094h393.47c4.3008 0 8.4297-1.707 11.469-4.75 3.043-3.0391 4.75-7.1641 4.75-11.469zm0-66.039v0.003906c0-4.3047-1.707-8.4297-4.75-11.469-3.0391-3.043-7.168-4.75-11.469-4.75h-235.49c-5.7969 0-11.148 3.0898-14.047 8.1094-2.8984 5.0156-2.8984 11.199 0 16.219 2.8984 5.0156 8.25 8.1094 14.047 8.1094h235.49c4.3008 0 8.4297-1.7109 11.469-4.75 3.043-3.043 4.75-7.168 4.75-11.469zm-16.219-82.258-454.91 0.003906c-5.793 0-11.148 3.0898-14.043 8.1094-2.8984 5.0195-2.8984 11.199 0 16.219 2.8945 5.0195 8.25 8.1094 14.043 8.1094h454.91c5.7969 0 11.148-3.0898 14.047-8.1094 2.8984-5.0195 2.8984-11.199 0-16.219-2.8984-5.0195-8.25-8.1094-14.047-8.1094zm-214.32-123.34c0.007812 6.5938 2.6289 12.918 7.293 17.578 4.6641 4.6641 10.984 7.2852 17.578 7.293h31.945v31.945c0.007812 6.5977 2.6289 12.918 7.293 17.586 4.6641 4.6641 10.984 7.2891 17.582 7.2969h45.902c6.5977-0.007813 12.918-2.6328 17.582-7.2969 4.668-4.6641 7.293-10.988 7.3008-17.586v-31.945h31.945c6.5938-0.007813 12.914-2.6328 17.578-7.2969 4.6602-4.6602 7.2852-10.98 7.293-17.574v-45.902c-0.007812-6.5938-2.6328-12.914-7.293-17.578-4.6641-4.6602-10.984-7.2852-17.578-7.293h-31.945v-31.945c-0.007812-6.5977-2.6328-12.922-7.3008-17.586-4.6641-4.6641-10.984-7.2891-17.582-7.3008h-45.902c-6.5977 0.011719-12.918 2.6367-17.582 7.3008-4.6641 4.6641-7.2852 10.988-7.293 17.586v31.945h-31.945c-6.5938 0.003906-12.914 2.6289-17.578 7.2891-4.6641 4.6641-7.2852 10.988-7.293 17.582zm-249.69-19.73c0 4.3008 1.7109 8.4258 4.75 11.469 3.043 3.043 7.168 4.75 11.469 4.75h106.93c5.7969 0 11.148-3.0898 14.047-8.1094 2.8984-5.0195 2.8984-11.199 0-16.219-2.8984-5.0195-8.25-8.1094-14.047-8.1094h-106.93c-4.3008 0-8.4258 1.707-11.469 4.75-3.0391 3.043-4.75 7.168-4.75 11.469zm-66.555 0c0 4.3008 1.707 8.4258 4.75 11.469 3.043 3.043 7.168 4.75 11.469 4.75h17.078c5.793 0 11.148-3.0898 14.047-8.1094 2.8945-5.0195 2.8945-11.199 0-16.219-2.8984-5.0195-8.2539-8.1094-14.047-8.1094h-17.078c-4.3008 0-8.4258 1.707-11.469 4.75-3.043 3.043-4.75 7.168-4.75 11.469zm0 77.266c0 4.3047 1.707 8.4297 4.75 11.469 3.043 3.043 7.168 4.75 11.469 4.75h271.84c5.793 0 11.148-3.0898 14.047-8.1094 2.8945-5.0156 2.8945-11.199 0-16.219-2.8984-5.0156-8.2539-8.1094-14.047-8.1094h-271.84c-4.3008 0-8.4258 1.7109-11.469 4.75-3.043 3.043-4.75 7.168-4.75 11.469zm-116.01 82.031c0 4.3008 1.707 8.4258 4.75 11.469 3.0391 3.043 7.168 4.75 11.469 4.75h109.89c5.793 0 11.148-3.0898 14.047-8.1094 2.8945-5.0195 2.8945-11.199 0-16.219-2.8984-5.0195-8.2539-8.1094-14.047-8.1094h-109.89c-4.3008 0-8.4297 1.707-11.469 4.75-3.043 3.043-4.75 7.168-4.75 11.469zm0 66.039c0 4.3008 1.707 8.4258 4.75 11.469 3.0391 3.0391 7.168 4.75 11.469 4.75h329.27c5.7969 0 11.148-3.0938 14.047-8.1094 2.8984-5.0195 2.8984-11.203 0-16.219-2.8984-5.0195-8.25-8.1094-14.047-8.1094h-329.27c-4.3008 0-8.4297 1.707-11.469 4.75-3.043 3.0391-4.75 7.1641-4.75 11.469zm174.61 383.8c-3.0391-3.043-7.1641-4.75-11.465-4.75-4.2969 0-8.4219 1.707-11.461 4.75l-35.445 35.43-20.488-20.488c-4.1016-4.1016-10.078-5.707-15.684-4.2109-5.6016 1.5-9.9844 5.875-11.488 11.477s0.09375 11.582 4.1953 15.688l31.957 31.957c3.043 3.043 7.168 4.7539 11.469 4.7539 4.3047 0 8.4297-1.7109 11.473-4.7539l46.902-46.914h-0.003906c3.0508-3.0352 4.7695-7.1562 4.7773-11.461 0.007812-4.3008-1.6992-8.4336-4.7383-11.477zm0-127.5c-3.0391-3.0391-7.1641-4.75-11.465-4.75-4.2969 0-8.4219 1.7109-11.461 4.75l-35.445 35.43-20.488-20.488v0.003906c-4.1016-4.1055-10.078-5.7109-15.684-4.2148-5.6016 1.5-9.9844 5.875-11.488 11.477-1.5039 5.6055 0.09375 11.582 4.1953 15.688l31.957 31.957c3.043 3.043 7.168 4.7539 11.469 4.7539 4.3047 0 8.4297-1.7109 11.473-4.7539l46.938-46.875c3.0547-3.0391 4.7734-7.1758 4.7734-11.488s-1.7188-8.4453-4.7734-11.488zm0-127.5c-3.043-3.0352-7.1641-4.7422-11.465-4.7422-4.2969 0-8.4219 1.707-11.461 4.7422l-35.445 35.445-20.488-20.488c-4.0977-4.1055-10.074-5.7109-15.676-4.2148-5.6055 1.4961-9.9844 5.8672-11.488 11.469-1.5078 5.6016 0.089843 11.582 4.1875 15.684l31.957 31.957v0.003906c3.043 3.0391 7.168 4.75 11.469 4.75 4.3047 0 8.4297-1.7109 11.473-4.75l46.938-46.953c3.0352-3.0391 4.7383-7.1562 4.7383-11.449 0-4.2969-1.7031-8.4141-4.7383-11.453zm29.051-62.754c0-4.3008-1.707-8.4258-4.75-11.469-3.0391-3.0391-7.1641-4.75-11.469-4.75h-171.22c-5.7969 0-11.148 3.0938-14.047 8.1094-2.8984 5.0195-2.8984 11.203 0 16.219 2.8984 5.0195 8.25 8.1094 14.047 8.1094h171.29c4.3008 0 8.4258-1.707 11.465-4.75 3.043-3.0391 4.7539-7.1641 4.7539-11.469zm113.66 377.45c0-4.3008-1.707-8.4258-4.75-11.469-3.043-3.0391-7.168-4.75-11.469-4.75h-52.309c-5.793 0-11.148 3.0898-14.043 8.1094-2.8984 5.0195-2.8984 11.199 0 16.219 2.8945 5.0195 8.25 8.1094 14.043 8.1094h52.309c4.3008 0 8.4258-1.707 11.469-4.75 3.043-3.043 4.75-7.168 4.75-11.469zm469.04 54.57v10.219c-0.023438 20.355-8.1211 39.875-22.516 54.27-14.395 14.395-33.914 22.492-54.27 22.516h-710.25v13.656c0.035156 11.762 4.7227 23.027 13.043 31.34 8.3242 8.3125 19.598 12.988 31.355 13.008h756.28c11.75-0.03125 23.016-4.7148 31.324-13.023 8.3125-8.3125 13-19.57 13.035-31.324v-105.01c-14.867 3.1523-30.023 4.7422-45.219 4.7383-4.2969 0-8.5508-0.14062-12.785-0.39062zm-264.84-694.99v40.609h30.77v-40.609c0-4.3008 1.7109-8.4297 4.7539-11.473 3.043-3.043 7.1719-4.75 11.477-4.7461h40.598v-30.781h-40.598c-4.293 0.003906-8.4102-1.6953-11.453-4.7227-3.043-3.0312-4.7617-7.1406-4.7773-11.434v-40.676h-30.77v40.676c0 4.3008-1.7109 8.4258-4.7539 11.469-3.0391 3.0391-7.1641 4.75-11.465 4.75h-40.602v30.77h40.602c4.2891 0 8.4102 1.7031 11.449 4.7344 3.0391 3.0312 4.7539 7.1406 4.7695 11.434zm462.95 477.62h-0.003907c-0.003906 49.148-19.527 96.277-54.281 131.03-34.75 34.75-81.883 54.273-131.03 54.277-49.145 0-96.281-19.52-131.04-54.266-34.754-34.75-54.285-81.879-54.293-131.02-0.007813-49.148 19.508-96.281 54.25-131.04 34.746-34.758 81.871-54.293 131.02-54.305 49.129 0.082032 96.219 19.633 130.96 54.367 34.742 34.734 54.305 81.82 54.402 130.95zm-62.93 0h-0.003906c0.035156-42.145-21.625-81.34-57.328-103.74-35.699-22.398-80.414-24.844-118.35-6.4766-37.93 18.371-63.738 54.969-68.305 96.863l-0.33984-0.37891c-3.8164-4.3594-9.6719-6.3477-15.355-5.2227s-10.336 5.1992-12.203 10.688c-1.8672 5.4844-0.66406 11.551 3.1523 15.91l26.613 30.379h0.003906c2.832 3.2344 6.832 5.2109 11.125 5.4961 4.2891 0.28516 8.5156-1.1484 11.75-3.9805l30.379-26.613v-0.003907c4.3672-3.8164 6.3633-9.6719 5.2422-15.363-1.125-5.6914-5.1992-10.348-10.688-12.223-5.4883-1.8711-11.562-0.67188-15.926 3.1445l-1.4766 1.2617-0.003906 0.003906c2.1445-18.531 9.9609-35.945 22.383-49.859 16.949-19.172 41.363-30.074 66.949-29.898 31.879 0.37891 61.176 17.605 77.008 45.277 15.832 27.672 15.832 61.66 0 89.332-15.832 27.676-45.129 44.898-77.008 45.277-19.527 0.082031-38.539-6.25-54.113-18.023-3.4297-2.6797-7.7891-3.8711-12.102-3.3047-4.3125 0.56641-8.2188 2.8398-10.84 6.3125-2.6172 3.4766-3.7344 7.8555-3.0898 12.16 0.64062 4.3008 2.9844 8.168 6.5039 10.727 24.352 18.34 54.668 26.93 85.023 24.094 30.352-2.8398 58.555-16.902 79.082-39.441 20.531-22.535 31.91-51.926 31.91-82.41zm-106.17-16.219-0.003906-29.633c0-5.793-3.0938-11.148-8.1094-14.047-5.0195-2.8945-11.203-2.8945-16.219 0-5.0195 2.8984-8.1094 8.2539-8.1094 14.047v45.84c-0.019531 4.3047 1.6758 8.4375 4.707 11.492 3.0352 3.0547 7.1562 4.7773 11.461 4.7891h35.367c5.793 0 11.148-3.0898 14.047-8.1094 2.8984-5.0156 2.8984-11.199 0-16.219-2.8984-5.0156-8.2539-8.1094-14.047-8.1094z"/>
</svg>
