<?xml version="1.0" encoding="UTF-8"?>
<svg width="1200pt" height="1200pt" version="1.1" viewBox="0 0 1200 1200" xmlns="http://www.w3.org/2000/svg">
 <path d="m356.26 618.74c-10.359 0-18.75-8.3906-18.75-18.75v-187.5c0-10.359 8.3906-18.75 18.75-18.75 10.359 0 18.75 8.3906 18.75 18.75v187.5c0 4.9688-1.9688 9.75-5.4844 13.266-3.5156 3.5156-8.2969 5.4844-13.266 5.4844z"/>
 <path d="m843.74 618.74c-10.359 0-18.75-8.3906-18.75-18.75v-187.5c0-10.359 8.3906-18.75 18.75-18.75 10.359 0 18.75 8.3906 18.75 18.75v187.5c0 4.9688-1.9688 9.75-5.4844 13.266-3.5156 3.5156-8.2969 5.4844-13.266 5.4844z"/>
 <path d="m562.5 525h-131.26c-10.359 0-18.75-8.3906-18.75-18.75v-56.25c0-72.469 58.781-131.26 131.26-131.26h18.75c4.9688 0 9.75 1.9688 13.266 5.4844 3.5156 3.5156 5.4844 8.2969 5.4844 13.266v168.74c0 4.9688-1.9688 9.75-5.4844 13.266s-8.2969 5.4844-13.266 5.4844zm-112.5-37.5h93.75v-131.26c-51.797 0-93.75 41.953-93.75 93.75z"/>
 <path d="m768.74 525h-131.26c-10.359 0-18.75-8.3906-18.75-18.75s8.3906-18.75 18.75-18.75h112.5v-37.5c0-24.844-9.8906-48.703-27.469-66.281s-41.438-27.469-66.281-27.469v56.25c0 10.359-8.3906 18.75-18.75 18.75s-18.75-8.3906-18.75-18.75v-75c0-10.359 8.3906-18.75 18.75-18.75h18.75c72.469 0 131.26 58.781 131.26 131.26v56.25c0 4.9688-1.9688 9.75-5.4844 13.266-3.5156 3.5156-8.2969 5.4844-13.266 5.4844z"/>
 <path d="m600 300c-10.359 0-18.75-8.3906-18.75-18.75v-75c0-10.359 8.3906-18.75 18.75-18.75s18.75 8.3906 18.75 18.75v75c0 4.9688-1.9688 9.75-5.4844 13.266s-8.2969 5.4844-13.266 5.4844z"/>
 <path d="m562.5 356.26c-3.7031 0.046876-7.3125-1.0781-10.312-3.1875-8.5781-5.7188-10.875-17.25-5.25-25.875l37.5-56.25c2.4844-4.6406 6.8438-8.0156 11.953-9.3281 5.1094-1.2656 10.547-0.375 14.906 2.5781 4.4062 2.9062 7.4062 7.5469 8.2031 12.75 0.79688 5.2031-0.60938 10.5-3.9375 14.625l-37.5 56.25c-3.4688 5.25-9.2812 8.3906-15.562 8.4375z"/>
 <path d="m637.5 356.26c-6.2812-0.046874-12.094-3.1875-15.562-8.4375l-37.5-56.25c-3.3281-4.125-4.7344-9.4219-3.9375-14.625 0.79688-5.2031 3.7969-9.8438 8.2031-12.75 4.3594-2.9531 9.7969-3.8438 14.906-2.5781 5.1094 1.3125 9.4688 4.6875 11.953 9.3281l37.5 56.25c5.625 8.625 3.3281 20.156-5.25 25.875-3 2.1094-6.6094 3.2344-10.312 3.1875z"/>
 <path d="m618.74 656.26h-187.5c-10.359 0-18.75-8.3906-18.75-18.75v-75c0-10.359 8.3906-18.75 18.75-18.75h262.5c4.9688 0 9.75 1.9688 13.266 5.4844 3.5156 3.5156 5.4844 8.2969 5.4844 13.266 0 24.844-9.8906 48.703-27.469 66.281-17.578 17.578-41.438 27.469-66.281 27.469zm-168.74-37.5h168.74c23.859 0 45.094-15 53.062-37.5h-221.81z"/>
 <path d="m487.5 806.26c-31.5 0-56.25-33-56.25-75-1.6875-15.375 3.7031-30.703 14.625-41.625 10.922-10.922 26.25-16.312 41.625-14.625 15.375-1.6875 30.703 3.7031 41.625 14.625 10.922 10.922 16.312 26.25 14.625 41.625 0 42-24.75 75-56.25 75zm0-93.75c-15 0-18.75 2.25-18.75 18.75 0 22.875 11.062 37.5 18.75 37.5s18.75-14.625 18.75-37.5c0-16.5-3.75-18.75-18.75-18.75z"/>
 <path d="m712.5 806.26c-31.5 0-56.25-33-56.25-75-1.6875-15.375 3.7031-30.703 14.625-41.625 10.922-10.922 26.25-16.312 41.625-14.625 15.375-1.6875 30.703 3.7031 41.625 14.625 10.922 10.922 16.312 26.25 14.625 41.625 0 42-24.75 75-56.25 75zm0-93.75c-15 0-18.75 2.25-18.75 18.75 0 22.875 11.062 37.5 18.75 37.5s18.75-14.625 18.75-37.5c0-16.5-3.75-18.75-18.75-18.75z"/>
 <path d="m675 750h-75c-10.359 0-18.75-8.3906-18.75-18.75s8.3906-18.75 18.75-18.75h75c10.359 0 18.75 8.3906 18.75 18.75s-8.3906 18.75-18.75 18.75z"/>
 <path d="m600 750h-75c-10.359 0-18.75-8.3906-18.75-18.75s8.3906-18.75 18.75-18.75h75c10.359 0 18.75 8.3906 18.75 18.75s-8.3906 18.75-18.75 18.75z"/>
 <path d="m562.5 1068.7h-3.375l-204.19-37.5c-9-1.6406-15.516-9.5625-15.375-18.75l-2.0625-386.44-87.75 30.188c-5.7188 1.875-12 0.89062-16.875-2.625-5.2031-3.7031-8.1562-9.75-7.875-16.125v-225c0-93.188 75.562-168.74 168.74-168.74h109.12l-15.375-90.75c-0.89062-5.4844 0.70312-11.062 4.3125-15.234 3.6094-4.2188 8.9062-6.6094 14.438-6.5156h187.5c5.5312-0.09375 10.828 2.2969 14.438 6.5156 3.6094 4.1719 5.2031 9.75 4.3125 15.234l-15.375 90.75h109.12c93.188 0 168.74 75.562 168.74 168.74v225c-0.046875 6.0469-2.9531 11.672-7.875 15.188-4.875 3.5156-11.156 4.5-16.875 2.625l-87.75-29.25v386.44c0.14062 9.1875-6.375 17.109-15.375 18.75l-206.26 37.5c-5.3438 1.0312-10.922-0.32813-15.188-3.75-4.5-3.6562-7.0781-9.1875-6.9375-15l-2.25-75h-35.25v75c0.046875 5.625-2.3906 11.016-6.75 14.625-3.4219 2.7188-7.6406 4.1719-12 4.125zm0-131.26h72.75c4.9688 0 9.75 1.9688 13.266 5.4844s5.4844 8.2969 5.4844 13.266l2.25 71.438 168.74-30.75v-396.94c0.046874-6.0469 2.9531-11.672 7.875-15.188 4.875-3.5156 11.156-4.5 16.875-2.625l87.75 29.25v-198.94c0-34.828-13.828-68.203-38.438-92.812-24.609-24.609-57.984-38.438-92.812-38.438h-131.26c-5.5312 0.09375-10.828-2.2969-14.438-6.5156-3.6094-4.1719-5.2031-9.75-4.3125-15.234l15.375-90.75h-143.26l15.375 90.75c0.89063 5.4844-0.70312 11.062-4.3125 15.234-3.6094 4.2188-8.9062 6.6094-14.438 6.5156h-131.26c-72.469 0-131.26 58.781-131.26 131.26v198.94l87.75-29.25c5.7188-1.875 12-0.89063 16.875 2.625 4.9219 3.5156 7.8281 9.1406 7.875 15.188l2.0625 397.13 166.69 30.375v-71.25c-0.14062-5.0156 1.8281-9.8438 5.4375-13.312 3.5156-3.5156 8.3438-5.4844 13.312-5.4375z"/>
 <path d="m600 862.5c-10.359 0-18.75-8.3906-18.75-18.75v-206.26c0-10.359 8.3906-18.75 18.75-18.75s18.75 8.3906 18.75 18.75v206.26c0 4.9688-1.9688 9.75-5.4844 13.266s-8.2969 5.4844-13.266 5.4844z"/>
 <path d="m768.74 862.5h-337.5c-10.359 0-18.75-8.3906-18.75-18.75s8.3906-18.75 18.75-18.75h337.5c10.359 0 18.75 8.3906 18.75 18.75s-8.3906 18.75-18.75 18.75z"/>
 <path d="m768.74 918.74h-337.5c-10.359 0-18.75-8.3906-18.75-18.75 0-10.359 8.3906-18.75 18.75-18.75h337.5c10.359 0 18.75 8.3906 18.75 18.75 0 10.359-8.3906 18.75-18.75 18.75z"/>
 <path d="m637.5 525c-31.5 0-56.25-33-56.25-75-1.6875-15.375 3.7031-30.703 14.625-41.625s26.25-16.312 41.625-14.625c15.375-1.6875 30.703 3.7031 41.625 14.625s16.312 26.25 14.625 41.625c0 42-24.75 75-56.25 75zm0-93.75c-15 0-18.75 2.25-18.75 18.75 0 22.875 11.062 37.5 18.75 37.5s18.75-14.625 18.75-37.5c0-16.5-3.75-18.75-18.75-18.75z"/>
</svg>
