<?xml version="1.0" encoding="UTF-8"?>
<svg width="1200pt" height="1200pt" version="1.1" viewBox="0 0 1200 1200" xmlns="http://www.w3.org/2000/svg">
 <g>
  <path d="m276 146.4c0-62.398-50.398-112.8-112.8-112.8-62.398 0.003906-112.8 50.402-112.8 112.8 0 62.398 50.398 112.8 112.8 112.8 62.402 0 112.8-50.398 112.8-112.8zm-192 0c0-43.199 34.801-79.199 79.199-79.199 44.398 0 79.199 34.801 79.199 79.199 0 44.398-34.801 79.199-79.199 79.199-44.398 0.003906-79.199-35.996-79.199-79.199z"/>
  <path d="m1099.2 492c1.1992-4.8008 2.3984-10.801 2.3984-15.602 0-12-4.8008-24-13.199-33.602-8.3984-8.3984-20.398-13.199-32.398-13.199-6 0-10.801 1.1992-15.602 2.3984-7.1992-15.602-24-26.398-42-26.398s-34.801 10.801-42 26.398c-4.8008-1.1992-10.801-2.3984-15.602-2.3984-12 0-24 4.8008-33.602 13.199-8.3984 8.3984-13.199 20.398-13.199 32.398 0 6 1.1992 10.801 2.3984 15.602-15.602 7.1992-26.398 24-26.398 42s10.801 34.801 26.398 42c-1.1992 4.8008-2.3984 10.801-2.3984 15.602 0 12 4.8008 24 13.199 33.602 8.3984 8.3984 20.398 13.199 32.398 13.199 6 0 10.801-1.1992 15.602-2.3984 7.1992 15.602 24 26.398 42 26.398s34.801-10.801 42-26.398c4.8008 1.1992 10.801 2.3984 15.602 2.3984 12 0 24-4.8008 33.602-13.199 8.3984-8.3984 13.199-20.398 13.199-32.398 0-6-1.1992-10.801-2.3984-15.602 15.602-7.1992 26.398-24 26.398-42 0.003906-19.199-10.797-34.801-26.398-42zm-20.398 54h-14.398c-1.1992 9.6016-6 19.199-10.801 27.602l9.6016 9.6016c4.8008 4.8008 4.8008 12 0 16.801-2.3984 2.3984-6 3.6016-8.3984 3.6016-3.6016 0-6-1.1992-8.3984-3.6016l-9.6016-9.6016c-8.3984 6-16.801 9.6016-27.602 10.801v14.398c0 7.1992-6 12-12 12-7.1992 0-12-6-12-12v-14.398c-9.6016-1.1992-19.199-6-27.602-10.801l-9.6016 9.5977c-2.3984 2.3984-6 3.6016-8.3984 3.6016-3.6016 0-6-1.1992-8.3984-3.6016-4.8008-4.8008-4.8008-12 0-16.801l9.6016-9.6016c-6-8.3984-9.6016-16.801-10.801-27.602h-14.398c-7.1992 0-12-6-12-12s6-12 12-12h14.398c1.1992-9.6016 6-19.199 10.801-27.602l-9.6016-9.6016c-4.8008-4.8008-4.8008-12 0-16.801 2.3984-2.3984 6-3.6016 8.3984-3.6016 3.6016 0 6 1.1992 8.3984 3.6016l9.6016 9.6016c8.3984-6 16.801-9.6016 27.602-10.801v-14.398c0-7.1992 6-12 12-12 7.1992 0 12 6 12 12v14.398c9.6016 1.1992 19.199 6 27.602 10.801l9.6016-9.6016c2.3984-2.3984 6-3.6016 8.3984-3.6016 3.6016 0 6 1.1992 8.3984 3.6016 4.8008 4.8008 4.8008 12 0 16.801l-9.6016 9.6016c6 8.3984 9.6016 16.801 10.801 27.602h14.398c7.1992 0 12 6 12 12 0 6.0039-4.8008 12.004-12 12.004z"/>
  <path d="m798 594c1.1992-3.6016 1.1992-7.1992 1.1992-10.801 0-12-4.8008-22.801-13.199-31.199s-19.199-13.199-31.199-13.199c-3.6016 0-7.1992 0-10.801 1.1992-8.3984-13.199-21.602-21.602-38.398-21.602-16.801 0-30 8.3984-38.398 21.602-3.6016-1.1992-7.1992-1.1992-10.801-1.1992-12 0-22.801 4.8008-31.199 13.199s-13.199 19.199-13.199 31.199c0 3.6016 0 7.1992 1.1992 10.801-13.199 8.3984-21.602 21.602-21.602 38.398 0 16.801 8.3984 30 21.602 38.398-1.1992 3.6016-1.1992 7.1992-1.1992 10.801 0 12 4.8008 22.801 13.199 31.199s19.199 13.199 31.199 13.199c3.6016 0 7.1992 0 10.801-1.1992 8.3984 13.199 21.602 21.602 38.398 21.602 16.801 0 30-8.3984 38.398-21.602 3.6016 1.1992 7.1992 1.1992 10.801 1.1992 12 0 22.801-4.8008 31.199-13.199s13.199-19.199 13.199-31.199c0-3.6016 0-7.1992-1.1992-10.801 13.199-8.3984 21.602-21.602 21.602-38.398 0-16.797-8.4023-31.199-21.602-38.398zm-22.801 48h-12c-1.1992 8.3984-4.8008 16.801-9.6016 22.801l8.3984 8.3984c3.6016 3.6016 3.6016 10.801 0 14.398-2.3984 2.3984-4.8008 3.6016-7.1992 3.6016s-4.8008-1.1992-7.1992-3.6016l-8.3984-8.3984c-7.1992 4.8008-14.398 8.3984-22.801 9.6016v12c0 6-4.8008 10.801-10.801 10.801s-10.801-4.8008-10.801-10.801v-12c-8.3984-1.1992-16.801-4.8008-22.801-9.6016l-8.3984 8.3984c-2.3984 2.3984-4.8008 3.6016-7.1992 3.6016-2.3984 0-4.8008-1.1992-7.1992-3.6016-3.6016-3.6016-3.6016-10.801 0-14.398l8.3984-8.3984c-4.8008-7.1992-8.3984-14.398-9.6016-22.801h-12c-6 0-10.801-4.8008-10.801-10.801s4.8008-10.801 10.801-10.801h12c1.1992-8.3984 4.8008-16.801 9.6016-22.801l-8.3984-8.3984c-3.6016-3.6016-3.6016-10.801 0-14.398 2.3984-2.3984 4.8008-3.6016 7.1992-3.6016 2.3984 0 4.8008 1.1992 7.1992 3.6016l8.3984 8.3984c7.1992-4.8008 14.398-8.3984 22.801-9.6016v-12c0-6 4.8008-10.801 10.801-10.801s10.801 4.8008 10.801 10.801v12c8.3984 1.1992 16.801 4.8008 22.801 9.6016l8.3984-8.3984c2.3984-2.3984 4.8008-3.6016 7.1992-3.6016s4.8008 1.1992 7.1992 3.6016c3.6016 3.6016 3.6016 10.801 0 14.398l-8.3984 8.3984c4.8008 7.1992 8.3984 14.398 9.6016 22.801h12c6 0 10.801 4.8008 10.801 10.801s-4.8008 10.801-10.801 10.801z"/>
  <path d="m1129.2 218.4c18-14.398 26.398-39.602 16.801-62.398-8.3984-19.199-26.398-32.398-48-32.398-2.3984 0-4.8008 0-8.3984 1.1992 1.1992-9.6016 0-19.199-3.6016-27.602-4.8008-13.199-15.602-22.801-27.602-27.602-6-2.3984-13.199-3.6016-20.398-3.6016-16.801 0-32.398 8.3984-42 21.602-9.6016-13.199-25.199-21.602-42-21.602-7.1992 0-13.199 1.1992-19.199 3.6016-13.199 4.8008-22.801 15.602-27.602 27.602-3.6016 8.3984-4.8008 18-3.6016 27.602-2.3984 0-4.8008-1.1992-8.3984-1.1992-20.398 0-39.602 12-48 32.398-4.8008 13.199-4.8008 26.398 0 39.602 3.6016 8.3984 9.6016 16.801 16.801 21.602-7.1992 6-13.199 13.199-16.801 21.602-4.8008 13.199-4.8008 26.398 0 39.602 8.3984 19.199 26.398 32.398 48 32.398 2.3984 0 4.8008 0 8.3984-1.1992-1.1992 9.6016 0 19.199 3.6016 27.602 4.8008 13.199 15.602 22.801 27.602 27.602 6 2.3984 13.199 3.6016 20.398 3.6016 16.801 0 31.199-7.1992 40.801-20.398h1.1992c9.6016 13.199 25.199 20.398 42 20.398 7.1992 0 13.199-1.1992 19.199-3.6016 13.199-4.8008 22.801-15.602 27.602-27.602 3.6016-8.3984 4.8008-16.801 3.6016-25.199 1.1992-1.1992 1.1992-1.1992 2.3984-2.3984h6c20.398 0 39.602-12 48-32.398 4.8008-13.199 4.8008-26.398 0-39.602-3.6016-6.0078-9.6016-13.211-16.801-19.211zm-36 20.402 12 4.8008c8.3984 3.6016 13.199 13.199 9.6016 22.801-2.3984 7.1992-9.6016 10.801-15.602 10.801-2.3984 0-4.8008 0-7.1992-1.1992l-12-4.8047c-8.3984 12-18 22.801-30 30l4.8008 10.801c3.6016 8.3984 0 19.199-9.6016 22.801-2.3984 1.1992-3.5977 1.1992-6 1.1992-7.1992 0-13.199-3.6016-15.602-10.801l-4.8008-12c-6 1.1992-12 1.1992-18 1.1992-8.3984 0-15.602-1.1992-24-3.6016l-4.8008 13.199c-2.3984 7.1992-9.6016 10.801-15.602 10.801-2.3984 0-4.8008 0-7.1992-1.1992-8.3984-3.6016-13.199-13.199-9.6016-22.801l6-14.398c-10.801-8.3984-20.398-18-26.398-28.801l-16.797 8.4023c-2.3984 1.1992-4.8008 1.1992-6 1.1992-7.1992 0-13.199-3.6016-15.602-10.801-3.6016-8.3984 0-19.199 9.6016-22.801l16.801-7.1992c-2.3984-12-1.1992-25.199 1.1992-37.199l-19.199-7.1992c-8.3984-3.6016-13.199-13.199-9.6016-22.801 2.3984-7.1992 9.6016-10.801 15.602-10.801 2.3984 0 4.8008 0 7.1992 1.1992l19.199 7.1992c7.1992-10.801 15.602-19.199 25.199-25.199l-7.1992-19.199c-3.6016-8.3984 0-19.199 9.6016-22.801 2.3984-1.1992 4.8008-1.1992 6-1.1992 7.1992 0 13.199 3.6016 15.602 10.801l7.1992 18c7.1992-1.1992 14.398-2.3984 21.602-2.3984 4.8008 0 10.801 0 15.602 1.1992l7.1992-16.801c2.3984-7.1992 9.6016-10.801 15.602-10.801 2.3984 0 4.8008 0 7.1992 1.1992 8.3984 3.6016 13.199 13.199 9.6016 22.801l-6 15.602c12 7.1992 21.602 15.602 28.801 26.398l14.398-6c2.3984-1.1992 4.8008-1.1992 6-1.1992 7.1992 0 13.199 3.6016 15.602 10.801 3.6016 8.3984 0 19.199-9.6016 22.801l-12.004 7.1992c3.6016 13.199 3.6016 27.602 1.1992 40.801z"/>
  <path d="m675.6 327.6 180-204 1.1992-1.1992c14.398-19.199 10.801-45.602-7.1992-60l-12-8.3984c-16.801-13.199-40.801-12-56.398 3.6016l-201.6 176.39c-2.3984 1.1992-3.6016 2.3984-6 3.6016l-121.2 121.2-40.801-66 73.199-22.801c14.398-3.6016 26.398-13.199 34.801-25.199l80.398-123.6c7.1992-10.801 10.801-24 9.6016-37.199-1.1992-18-10.801-34.801-26.398-45.602-27.602-18-64.801-9.6016-82.801 18l-69.602 106.8-134.4 48h-1.1992c-4.8008 1.1992-8.3984 4.8008-13.199 7.1992l-102 63.602c-3.6016 2.3984-7.1992 6-10.801 9.6016-9.6016 7.1992-15.602 16.801-19.199 27.602l-57.602 160.8c0 1.1992 0 1.1992-1.1992 2.3984-3.6016 12-4.8008 24-1.1992 34.801l39.602 142.8c3.6016 13.199 10.801 24 21.602 32.398 14.398 10.801 33.602 14.398 51.602 9.6016 31.199-8.3984 50.398-42 42-73.199l-34.805-124.8 8.3984-25.199 60 96 22.801 288v3.6016l-1.1992 261.6v1.1992c1.1992 21.602 18 39.602 39.602 40.801l14.398 1.1992h3.6016c21.602 0 40.801-16.801 42-38.398l38.398-256.8 32.398-292.8 204-249.6c-1.1992-2.4023 0-4.8008 1.2031-6zm-33.602-13.203-202.8 248.4c-1.1992 1.1992-1.1992 2.3984-2.3984 2.3984l-1.1992 1.1992c-1.1992 2.3984-1.1992 3.6016-2.3984 6l-32.398 296.4-38.398 256.8v1.1992c0 4.8008-4.8008 8.3984-8.3984 7.1992l-14.398-1.1992c-3.6016 0-7.1992-3.6016-7.1992-7.1992l3.5898-254.4v-7.1992l-24-297.6c0-2.3984-1.1992-6-2.3984-8.3984l-82.801-132c-3.6016-6-9.6016-8.3984-16.801-8.3984-7.1992 1.1992-12 6-14.398 12l-20.398 66c-1.1992 3.6016-1.1992 6 0 9.6016l36 129.6c3.6016 13.199-3.6016 27.602-18 31.199-7.1992 2.3984-15.602 0-21.602-3.6016-4.8008-3.6016-7.1992-8.3984-9.6016-13.199l-39.602-142.8c-1.1992-4.8008-1.1992-10.801 1.1992-15.602v-1.1992-2.3984l56.398-160.8c1.1992-4.8008 4.8008-8.3984 8.3984-12l2.3984-2.3984c2.3984-2.3984 3.6016-3.6016 6-4.8008l102-63.602 1.1992-1.1992c2.3984-1.1992 3.6016-2.3984 6-3.6016l140.4-49.199c3.6016-1.1992 7.1992-3.6016 8.3984-7.1992l72-111.6c7.1992-12 22.801-14.398 34.801-7.1992 6 4.8008 10.801 10.801 10.801 19.199 0 6-1.1992 10.801-3.6016 15.602l-80.398 123.6c-4.8008 6-10.801 9.6016-15.602 10.801l-96 30c-4.8008 1.1992-9.6016 6-10.801 10.801-2.3984 4.8008-1.1992 10.801 1.1992 15.602l64.801 103.2c2.3984 4.8008 7.1992 7.1992 13.199 8.3984 4.8008 1.1992 10.801-1.1992 14.398-4.8008l133.2-132c1.1992-1.1992 2.3984-1.1992 4.8008-2.3984l206.41-178.8s1.1992 0 1.1992-1.1992c2.3984-2.3984 7.1992-3.6016 10.801-1.1992l12 8.3984c2.3984 1.1992 2.3984 3.6016 3.6016 6 0 1.1992 0 3.6016-1.1992 6l-184.8 208.8c-1.2031 1.1992-2.4023 3.5977-3.6016 4.7969z"/>
  <path d="m343.2 276c-4.8008-7.1992-14.398-9.6016-22.801-6-36 20.398-58.801 15.602-60 15.602-4.8008-1.1992-9.6016 0-13.199 2.3984-4.8008 2.3984-7.1992 7.1992-7.1992 12-3.6016 16.801-22.801 42-34.801 52.801-6 6-7.1992 16.801-1.1992 22.801l44.398 54c19.199 26.398 51.602 43.199 82.801 43.199 8.3984 0 15.602-1.1992 22.801-3.6016 7.1992-2.3984 12-4.8008 16.801-7.1992 4.8008-3.6016 8.3984-7.1992 13.199-13.199 24-33.602 25.199-79.199 2.3984-110.4zm10.801 153.6c-2.3984 3.6016-3.6016 4.8008-4.8008 4.8008 0 0-2.3984 1.1992-6 2.3984-22.801 6-54-6-68.398-26.398 0 0 0-1.1992-1.1992-1.1992l-34.801-43.199c9.6016-10.801 22.801-27.602 30-45.602 12 0 31.199-2.3984 54-13.199l33.602 50.398c14.398 20.398 13.199 50.398-2.4023 72z"/>
  <path d="m344.4 345.6c-6-7.1992-16.801-8.3984-24-2.3984l-8.3984 5.9961-7.1992-9.6016c-6-7.1992-16.801-9.6016-24-3.6016s-9.6016 16.801-3.6016 24l7.1992 10.801-10.801 8.3984c-7.1992 6-8.3984 16.801-2.3984 24 3.6016 4.8008 8.3984 7.1992 13.199 7.1992 3.6016 0 7.1992-1.1992 10.801-3.6016l9.6016-7.1992 9.6016 13.199c3.6016 4.8008 8.3984 7.1992 14.398 7.1992 3.6016 0 7.1992-1.1992 10.801-3.6016 7.1992-6 9.6016-16.801 3.6016-24l-10.801-14.398 9.6016-7.1992c7.1953-7.1914 8.3945-17.992 2.3945-25.191z"/>
  <path d="m1058.4 183.6-39.602 1.1992-26.398-31.199c-6-7.1992-16.801-8.3984-24-1.1992-7.1992 6-8.3984 16.801-1.1992 24l8.3984 9.6016-27.598 1.1953c-9.6016 0-16.801 8.3984-16.801 18 0 9.6016 8.3984 16.801 16.801 16.801l52.801-1.1992 31.199 36c3.6016 3.6016 8.3984 6 13.199 6 3.6016 0 8.3984-1.1992 10.801-4.8008 7.1992-6 8.3984-16.801 1.1992-24l-13.199-14.398h12c9.6016 0 16.801-8.3984 16.801-18 2.3984-10.801-6-19.203-14.402-18z"/>
  <path d="m972 246c-9.6016-1.1992-18 2.3984-19.199 2.3984-8.3984 3.6016-13.199 13.199-9.6016 22.801 3.6016 8.3984 13.199 13.199 21.602 9.6016 4.8008-1.1992 6 0 7.1992 2.3984 2.3984 7.1992 9.6016 10.801 15.602 10.801 2.3984 0 3.6016 0 6-1.1992 8.3984-3.6016 13.199-13.199 9.6016-22.801-4.8047-13.199-15.602-22.801-31.203-24z"/>
 </g>
</svg>
