<?xml version="1.0" encoding="UTF-8"?>
<svg width="1200pt" height="1200pt" version="1.1" viewBox="0 0 1200 1200" xmlns="http://www.w3.org/2000/svg">
 <path d="m206.25 917.7c22.273 27.578 47.367 52.75 74.867 75.113 0.28125 0.26172 0.41406 0.63672 0.71094 0.88281 2.1758 1.7617 4.5391 3.2812 6.7305 4.9883 7.2891 5.7266 14.73 11.238 22.332 16.539 2.8672 2.0078 5.625 4.0117 8.6055 5.9609 9.0938 6.0742 18.449 11.812 27.977 17.305 1.6484 0.95703 3.2266 2.082 4.8945 3.0195 0.39453 0.22656 0.80469 0.30078 1.2188 0.48828v-0.003906c17.934 10.043 36.461 18.98 55.484 26.758h-202.82zm89.605-673.95h226.09c-19.461 22.434-28.23 52.203-24.051 81.605 4.1836 29.398 20.914 55.539 45.855 71.656v17.062h-28.125l-127.33-127.33c-3.5156-3.5117-8.2852-5.4883-13.254-5.4883-4.9727 0-9.7422 1.9766-13.258 5.4883l-56.25 56.25c-3.5156 3.5195-5.4883 8.2852-5.4883 13.258s1.9727 9.7383 5.4883 13.258l44.57 44.57-87.602-0.003906c-4.9727 0-9.7422 1.9766-13.258 5.4922-3.5156 3.5156-5.4922 8.2852-5.4922 13.258v75c0 4.9727 1.9766 9.7422 5.4922 13.258 3.5156 3.5156 8.2852 5.4922 13.258 5.4922h206.25v216.54l-177.19 209.38c-32.859-28.781-61.57-61.977-85.312-98.645v-507.71c24.766-38.281 54.949-72.77 89.605-102.39zm697.89 102.39v507.71c-23.742 36.668-52.453 69.863-85.312 98.645l-177.19-209.38v-216.54h206.25c4.9727 0 9.7422-1.9766 13.258-5.4922 3.5156-3.5156 5.4922-8.2852 5.4922-13.258v-75c0-4.9727-1.9766-9.7422-5.4922-13.258-3.5156-3.5156-8.2852-5.4922-13.258-5.4922h-87.562l44.57-44.57v0.003906c3.5117-3.5195 5.4883-8.2852 5.4883-13.258s-1.9766-9.7383-5.4883-13.258l-56.25-56.25c-3.5195-3.5117-8.2852-5.4883-13.258-5.4883s-9.7383 1.9766-13.258 5.4883l-127.37 127.33h-28.125v-17.062c24.941-16.117 41.672-42.258 45.855-71.656 4.1797-29.402-4.5898-59.172-24.051-81.605h226.09c34.656 29.625 64.84 64.113 89.605 102.39zm-118.37 632.85c-10.219 7.5-20.625 14.531-31.426 21.113l-1.6484 1.0117-111.06-126.92v-73.012l148.12 174.99c-1.332 0.95703-2.6797 1.8594-3.9922 2.8125zm-550.76 0c-1.3125-0.95703-2.6641-1.875-3.957-2.8125l148.09-174.99v73.012l-111.05 126.92-1.6484-1.0117c-10.766-6.582-21.211-13.688-31.43-21.113zm78.504-564.92-57.863-57.824 29.738-29.738 87.562 87.562zm159.38 37.5c4.9727 0 9.7422-1.9766 13.258-5.4922 3.5156-3.5156 5.4922-8.2852 5.4922-13.258v-46.574c0-3.4844-0.96875-6.8984-2.8008-9.8633-1.8281-2.9648-4.4492-5.3594-7.5664-6.918-17.824-8.8242-30.684-25.254-34.969-44.676-4.2812-19.418 0.47266-39.734 12.93-55.238 12.453-15.504 31.27-24.523 51.156-24.523s38.703 9.0195 51.156 24.523c12.457 15.504 17.211 35.82 12.93 55.238-4.2852 19.422-17.145 35.852-34.969 44.676-3.1172 1.5586-5.7383 3.9531-7.5664 6.918-1.832 2.9648-2.8008 6.3789-2.8008 9.8633v46.648c0 4.9727 1.9766 9.7422 5.4922 13.262 3.5156 3.5156 8.2852 5.4883 13.258 5.4883h281.25v37.5h-206.25c-4.9727 0-9.7422 1.9766-13.258 5.4922-3.5156 3.5156-5.4922 8.2852-5.4922 13.258v551.33c-12.375 2.4922-24.898 4.5195-37.5 6.0195v-276.17c0-20.094-10.723-38.664-28.125-48.715-17.402-10.047-38.848-10.047-56.25 0-17.402 10.051-28.125 28.621-28.125 48.715v276.17c-12.602-1.5-25.125-3.5234-37.5-6.0195v-551.4c0-4.9727-1.9766-9.7422-5.4922-13.258-3.5156-3.5156-8.2852-5.4922-13.258-5.4922h-206.25v-37.5zm174.94-37.5 87.562-87.562 29.738 29.738-57.863 57.824zm-268.69 517.09v118.84c-26.648-7.7734-52.547-17.918-77.383-30.32zm112.5 137.12v-279.21c0-6.6992 3.5742-12.887 9.375-16.238 5.8008-3.3477 12.949-3.3477 18.75 0 5.8008 3.3516 9.375 9.5391 9.375 16.238v279.21c-6.2266 0.24219-12.469 0.46875-18.75 0.46875s-12.523-0.22656-18.75-0.46875zm150-137.12 77.383 88.426v-0.003906c-24.832 12.434-50.73 22.609-77.383 30.414zm262.5 137.59h-202.82c19.023-7.7773 37.551-16.715 55.484-26.758 0.41406-0.1875 0.82422-0.26172 1.2188-0.48828 1.668-0.9375 3.2422-2.0625 4.8945-3.0195 9.5234-5.4922 18.883-11.25 27.977-17.305 2.9062-1.875 5.7383-3.957 8.6055-5.9609 7.6016-5.3125 15.043-10.824 22.332-16.539 2.1953-1.707 4.5547-3.2266 6.7305-4.9883 0.30078-0.24219 0.42969-0.61719 0.71094-0.88281v0.003906c27.5-22.363 52.594-47.535 74.867-75.113zm75-468.75c0.058594 63.113-12.699 125.58-37.5 183.62v-367.23c24.801 58.035 37.559 120.5 37.5 183.62zm-75-317.7c-10.832-13.422-22.336-26.289-34.461-38.551h34.461zm-393.75-151.05c90.09-0.070312 178.27 25.98 253.86 75h-507.71c75.586-49.02 163.77-75.07 253.86-75zm-393.75 112.5h34.461c-12.125 12.262-23.629 25.129-34.461 38.551zm-37.5 539.87c-24.746-58.055-37.5-120.51-37.5-183.62s12.754-125.56 37.5-183.62z"/>
</svg>
