<?xml version="1.0" encoding="UTF-8"?>
<svg width="1200pt" height="1200pt" version="1.1" viewBox="0 0 1200 1200" xmlns="http://www.w3.org/2000/svg">
 <g>
  <path d="m570.28 499.26c-36.609-9.7969-79.969 10.594-96 52.547-11.625 30.422-42.75 3.375-75.703 28.641-23.297 0.84375-42 19.922-42 43.406v55.5c0 24 19.547 43.547 43.547 43.547h24.516c77.25 455.11 52.031 314.06 58.078 341.48 5.625 29.156 34.5 59.25 73.031 59.25h287.21c37.172 0 69.094-28.312 74.156-65.531l56.953-335.16h8.25c24 0 43.547-19.547 43.547-43.547v-55.5c0-22.922-17.906-41.578-40.453-43.219-26.719-25.266-57.422-21.797-59.297-22.266-10.547 0.46875-20.25-6.0938-24.047-16.266-12.891-32.625-44.25-56.953-87.141-53.672-10.969 1.3594-21.516-5.2031-25.547-15.797-34.688-92.438-163.31-87.188-190.36 8.5781-3.7969 12.797-16.078 20.953-28.734 18zm325.97 555.66c-3.7031 27.141-26.578 47.625-53.297 47.625h-287.21c-8.8594 0-16.969-2.4844-24.188-6.2812-10.406-23.438-15-74.438-50.344-282.52-7.1719-42.094 25.266-80.484 67.969-80.484h401.72zm86.016-453.52c12.375 0 22.453 10.078 22.453 22.453v55.5c0 12.375-10.078 22.453-22.453 22.453h-582.18c-12.375 0-22.453-10.078-22.453-22.453v-55.5c0-12.375 10.078-22.453 22.453-22.453z"/>
  <path d="m431.53 646.78h26.297c5.3438 0 9.75-4.4062 9.75-9.75s-4.3594-9.75-9.75-9.75h-26.297c-5.3438 0-9.75 4.4062-9.75 9.75 0 5.3906 4.4062 9.75 9.75 9.75z"/>
  <path d="m490.92 646.78h172.6c5.3438 0 9.75-4.4062 9.75-9.75s-4.4062-9.75-9.75-9.75h-172.6c-5.3438 0-9.75 4.4062-9.75 9.75 0.046875 5.3906 4.4062 9.75 9.75 9.75z"/>
  <path d="m448.26 86.531c-4.8281-9.0938-15.938-12.703-25.172-8.2969l-237.98 113.2c-9.8438 4.6875-13.594 16.359-9 25.734l98.531 203.06c4.5469 9.4688 16.125 13.688 25.828 8.8594 185.58-94.734 188.11-82.969 178.03-111.8 19.734-2.25 23.625-19.734 16.219-30.328 2.1562-0.9375 12.047-1.0781 16.266-12.609 5.2031-14.109-6.8906-22.172-9.4688-26.484 4.6875-7.5 22.594-18.75 13.875-35.109zm36.141 148.92c-12.938 15.328 4.0781 28.875 5.0625 30.984-2.1094 0.98438-12.75 1.0781-16.641 13.5-1.875 5.9531-0.70312 12.328 2.625 16.406-8.9062 0.79688-14.438 4.9688-17.391 11.109-4.8281 10.078 0.70312 16.969 1.4062 19.125l-166.64 82.688-96.891-199.6 234.56-111.61 65.672 123.47z"/>
  <path d="m515.34 322.87c-9.4219 3.8906-11.391 20.859-4.3594 37.969s20.391 27.797 29.812 23.953c9.5625-3.9375 11.578-20.953 4.5469-38.062-7.0781-17.062-20.438-27.797-30-23.859z"/>
  <path d="m546.84 233.11c-9.4219 3.8906-11.391 20.859-4.3594 37.969s20.391 27.797 29.812 23.953c9.5625-3.9375 11.531-20.953 4.5469-38.062-7.0781-17.062-20.438-27.797-30-23.859z"/>
  <path d="m622.6 399.89c9.5625-3.9375 11.531-20.953 4.5469-38.062-7.0312-17.109-20.391-27.797-29.953-23.859-9.4219 3.8906-11.391 20.859-4.3594 37.969 6.9844 17.156 20.344 27.844 29.766 23.953z"/>
  <path d="m354.84 186.19c-37.781 0-68.391 30.609-68.391 68.391s30.609 68.578 68.391 68.578 68.391-30.797 68.391-68.578c-0.046875-37.781-30.656-68.391-68.391-68.391zm8.625 84.656c-17.109 6.9844-33.984 5.0625-37.969-4.4531-4.0312-9.5156 6.75-22.781 23.859-29.953 17.109-6.9844 34.172-4.875 37.969 4.4531 3.9844 9.6562-6.75 22.969-23.859 29.953z"/>
 </g>
</svg>
