<?xml version="1.0" encoding="UTF-8"?>
<svg width="1200pt" height="1200pt" version="1.1" viewBox="0 0 1200 1200" xmlns="http://www.w3.org/2000/svg">
 <path d="m630.75 293.62c-194.37 2.7148-394.18 116.61-570.75 311.62 310.27 436.38 738.81 380.84 1080 0-148.88-218.61-326.66-314.18-509.25-311.62zm-30.75 71.25c132.21 0 239.25 106.61 239.25 238.88 0 132.29-106.99 240-239.25 240-132.29 0-240-107.74-240-240 0-132.21 107.74-238.88 240-238.88z"/>
 <path d="m599.41 418.55 18.738 71.93 70.492-89.359-28.625 104.7 68.879-40.41-33.711 70.543 112.68-18.109-101.86 60.902 90.258 19.891-94.176 20.547 103.2 73.113-120.42-34.645 55.746 84.762-81.328-58.207 26.961 119.48-67.48-95.633-22.266 122.29-26.805-115.27-56.887 80.066 20.848-96.305-58.781 32.441 32.844-58.84-101.96 27.785 90.23-63.77-93.672-11.375 93.535-27.113-117.2-55.262 127.91 10.664-57.152-66.738 85.496 32-43.688-114.27 86.246 83.438z"/>
</svg>
