<?xml version="1.0" encoding="UTF-8"?>
<svg width="1200pt" height="1200pt" version="1.1" viewBox="0 0 1200 1200" xmlns="http://www.w3.org/2000/svg">
 <path d="m490.8 433.2 175.2 378c0-18-1.1992-48-1.1992-85.199l-38.398-334.8c-84.004 1.1992-135.6 42-135.6 42zm219.6-43.199c-20.398-1.1992-39.602-1.1992-56.398 0l19.199 192c6-62.398 18-129.6 37.199-192zm-430.8 326.4c31.199 9.6016 62.398 20.398 97.199 33.602 0 0 100.8 51.602 178.8 84l-205.2-258c-30 44.398-52.797 93.602-70.797 140.4zm-132 178.8c6-32.398 13.199-66 24-97.199-26.398-4.8008-52.801-8.3984-78-10.801 13.199 38.402 32.398 74.402 54 108zm475.2-33.598s25.199 8.3984 37.199-4.8008l-195.6-404.4c-33.602 25.199-63.602 54-90 87.602l236.4 316.8c4.8047 2.3984 8.4023 3.5977 12.004 4.8008zm502.8-385.2c-16.801-70.801-48-136.8-88.801-193.2 24 61.199 49.199 128.4 67.199 175.2 7.1992 4.8008 15.602 12 21.602 18zm-27.602 73.203c-50.398-39.602-98.398-70.801-145.2-94.801l-184.8 55.199-37.199 93.602c-6 58.801-10.801 133.2-6 194.4 0 0 10.801 118.8-32.398 133.2 0 0-46.801 45.602-165.6-10.801 0 0-123.6-64.801-277.2-105.6-24 91.199-30 160.8-30 166.8 96 98.402 231.6 158.4 380.4 158.4 297.6 0 540-242.4 540-540v-18c-21.602 3.6016-42-32.398-42-32.398zm-362.4-224.4c10.801-25.199 25.199-49.199 39.602-70.801 0 0 40.801-63.602 102-117.6-80.402-47.996-176.4-76.797-277.2-76.797-298.8 0-540 242.4-540 540 0 28.801 2.3984 55.199 6 81.602 42 1.1992 88.801 6 140.4 15.602 31.199-75.602 60-127.2 60-127.2 0-0.003906 144-266.4 469.2-244.8zm8.3984 154.8 10.801-3.6016 31.199-76.801c-7.1992-1.1992-12-2.3984-19.199-3.6016-9.6016 25.203-18 54.004-22.801 84.004zm66-75.602-26.398 64.801 126-32.398c-33.602-14.402-67.203-25.199-99.602-32.402zm38.398-135.6c-16.801 19.199-33.602 40.801-49.199 64.801 60 10.801 111.6 25.199 156 42zm204 153.6-76.801-210c-10.801-10.801-21.602-20.398-32.398-30-24 16.801-49.199 37.199-74.398 62.398l133.2 151.2c19.199 9.6016 37.199 19.199 50.398 26.398z"/>
</svg>
