<?xml version="1.0" encoding="UTF-8"?>
<svg width="1200pt" height="1200pt" version="1.1" viewBox="0 0 1200 1200" xmlns="http://www.w3.org/2000/svg">
 <path d="m210 869.91v0.085938c0 76.68 57.828 140.1 132.17 148.95 23.258 54.574 77.09 91.055 137.83 91.055 49.094 0 92.617-23.809 120-60.383 27.383 36.562 70.906 60.383 120 60.383 60.742 0 114.57-36.48 137.83-91.055 74.34-8.8438 132.17-72.266 132.17-148.95v-0.085938c37.414-28.129 60-72.504 60-119.91 0-26.34-7.0547-52.297-20.172-75 13.117-22.703 20.172-48.66 20.172-75 0-49.262-23.508-94.031-62.711-121.91 1.8008-9.2773 2.7109-18.672 2.7109-28.094 0-47.41-22.586-91.789-60-119.91v-0.085938c0-48.887-24.059-94.609-63.637-122.54-15-67.91-75.504-117.46-146.36-117.46-49.094 0-92.617 23.809-120 60.383-27.383-36.574-70.906-60.383-120-60.383-70.848 0-131.36 49.547-146.36 117.46-39.59 27.934-63.637 73.656-63.637 122.54v0.085938c-37.414 28.129-60 72.504-60 119.91 0 9.4336 0.89844 18.816 2.7109 28.094-39.203 27.875-62.711 72.645-62.711 121.91 0 26.34 7.0547 52.297 20.172 75-13.117 22.703-20.172 48.66-20.172 75 0 47.41 22.586 91.789 60 119.91zm420 48.625 24.406-12.203c8.293-4.1406 17.57-6.3359 26.848-6.3359h38.746c16.57 0 30-13.43 30-30s-13.43-30-30-30h-38.746c-17.652 0-35.281 4.0938-51.254 11.629v-202.72c28.273-12.371 59.148-18.91 90-18.91 16.57 0 30-13.43 30-30s-13.43-30-30-30c-30.516 0-61.02 5.125-90 14.785v-215.43c19.703 13.402 42.926 20.641 67.273 20.641h52.727c16.57 0 30-13.43 30-30s-13.43-30-30-30h-52.727c-16.02 0-31.094-6.2383-42.434-17.566l-24.84-24.852v-47.582c0-49.633 40.367-90 90-90 38.676 0 72.133 24.648 84.625 59.762l-54.406-0.37109h-0.21484c-16.477 0-29.879 13.297-30 29.797-0.12109 16.57 13.234 30.098 29.785 30.203l89.051 0.61328h0.21484c2.375 0 4.668-0.34766 6.8867-0.875 15.145 16.402 24.059 38.016 24.059 60.875 0 1.2109-0.085938 2.543-0.15625 3.875l-33.984 42.984c-16.414 20.762-25.523 46.68-25.812 73.141l-90.047-0.003906c-16.57 0-30 13.43-30 30s13.43 30 30 30h90v30c0 16.57 13.43 30 30 30s30-13.43 30-30v-88.727c0-13.453 4.5977-26.664 12.926-37.211l21.277-26.914c16.246 16.609 25.801 39.07 25.801 62.844 0 10.633-1.957 21.254-5.832 31.559-5.4375 14.496 1.0547 30.77 14.988 37.523 31.352 15.238 50.84 46.234 50.84 80.926 0 10.391-1.7539 20.484-5.1367 30h-114.86c-16.57 0-30 13.43-30 30s13.43 30 30 30h97.668c0.75781 1.2969 1.5586 2.5664 2.5312 3.7695 12.961 16.152 19.801 35.594 19.801 56.23 0 20.316-6.9492 39.707-19.105 55.285-21.371-33.191-58.57-55.285-100.89-55.285h-60c-16.547 0-30-13.465-30-30 0-16.57-13.43-30-30-30s-30 13.43-30 30c0 49.633 40.367 90 90 90h60c33.086 0 60 26.914 60 60 0 41.293-27.984 76.094-66.086 86.629l-9.5039-47.508c-3.2539-16.262-19.176-26.746-35.293-23.531-16.246 3.2539-26.785 19.055-23.531 35.305l12 59.988c-0.15625 0.50391-0.39453 0.97266-0.52734 1.4883-10.211 39.812-45.996 67.629-87.059 67.629-5.4844 0-10.836-0.57422-16.055-1.5117l37.273-37.273c11.723-11.711 11.723-30.707 0-42.422-11.723-11.723-30.707-11.723-42.422 0l-48.301 48.301c-12.805-15.551-20.496-35.434-20.496-57.094zm-330-288.54h-84.863c-3.3828-9.5156-5.1367-19.609-5.1367-30 0-34.691 19.488-65.688 50.844-80.914 13.934-6.7578 20.426-23.027 14.988-37.523-3.875-10.309-5.832-20.93-5.832-31.559 0-22.031 8.293-42.852 22.414-59.027l59.773 100.57c0.71875 1.1875 1.5 2.3281 2.3633 3.4219 5.6992 7.1172 12.098 13.477 19.043 19.02l-34.812 34.812c-11.723 11.711-11.723 30.707 0 42.422 5.8711 5.8477 13.539 8.7773 21.219 8.7773s15.348-2.9297 21.215-8.7852l52.188-52.188c4.8945 0.60156 9.8398 0.97266 14.855 0.97266h31.742c16.57 0 30-13.43 30-30s-13.43-30-30-30h-31.754c-17.699 0-34.234-7.6562-45.66-21.07l-72.168-121.45c-0.23828-2.7109-0.41797-5.2344-0.41797-7.4766 0-29.797 15.047-57.504 39.527-74.195l52.055 26.027c4.3086 2.1602 8.8789 3.1797 13.391 3.1797 11.004 0 21.602-6.0703 26.855-16.586 7.4023-14.82 1.3906-32.844-13.414-40.246l-50.34-25.176c14.199-31.477 45.781-53.004 81.926-53.004 49.633 0 90 40.367 90 90v110.64c-19.703-13.402-42.926-20.641-67.273-20.641h-22.727c-16.57 0-30 13.43-30 30s13.43 30 30 30h22.727c16.02 0 31.094 6.2383 42.434 17.566l24.84 24.852v177.96c-25.199 7.5352-52.777 5.5312-76.586-6.3711-14.844-7.4414-32.832-1.4141-40.246 13.414-7.4023 14.82-1.3906 32.844 13.414 40.246 22.992 11.496 48.203 17.242 73.414 17.242 10.055 0 20.09-1.1758 30-3l0.003906 108.09h-64.379c-22.871 0-43.43-12.707-53.664-33.168l-20.125-40.246c-7.4141-14.832-25.43-20.82-40.246-13.43-14.809 7.4141-20.82 25.43-13.414 40.246l20.125 40.246c20.457 40.938 61.566 66.352 107.32 66.352h64.379v120c0 39.098-25.105 72.359-60 84.758v-47.473c0-32.051-12.48-62.184-35.148-84.852l-33.648-33.637c-11.723-11.711-30.73-11.711-42.422 0-11.723 11.723-11.723 30.707 0 42.434l33.637 33.637c11.328 11.328 17.578 26.398 17.578 42.434v47.531c-27.613-9.793-49.453-32.773-57.059-62.449-3.4062-13.309-15.395-22.547-29.051-22.547-0.35938 0-0.73047 0-1.0938 0.011718l-2.793 0.15234c-49.633 0-90-40.367-90-90 0-0.83984 0.070312-1.7891 0.10938-2.6875l51.109-51.109c11.723-11.711 11.723-30.707 0-42.422-11.723-11.723-30.707-11.723-42.422 0l-41.027 41.02c-17.461-16.777-27.77-40.078-27.77-64.801 0-20.641 6.8398-40.078 19.801-56.23 0.96094-1.1992 1.7773-2.4727 2.5312-3.7695h67.668c16.57 0 30-13.43 30-30s-13.43-30-30-30z"/>
</svg>
