<?xml version="1.0" encoding="UTF-8"?>
<svg width="1200pt" height="1200pt" version="1.1" viewBox="0 0 1200 1200" xmlns="http://www.w3.org/2000/svg">
 <path d="m618.24 464.44c-2.7656 0-5.5781-0.60938-8.25-1.8281-9.7969-4.5938-14.344-16.406-9.75-26.156 4.5469-9.7969 15.938-14.203 25.734-9.6094l0.5625 0.28125c9.7969 4.5938 14.062 16.219 9.4688 26.062-3.3281 7.0781-10.406 11.25-17.766 11.25z"/>
 <path d="m527.53 618.52c-15.844 0-31.781-4.7812-47.344-14.25-9.2344-5.625-12.141-17.672-6.5156-26.906 5.625-9.2812 17.625-12.188 26.906-6.5156 18.703 11.344 35.109 11.484 53.109 0.14062 9.1406-5.7188 21.234-3 27 6.1406 5.7656 9.1875 3 21.281-6.1875 27-15.234 9.5625-31.078 14.391-46.969 14.391z"/>
 <path d="m437.34 464.44c-3.0469 0-6.0938-0.70312-9-2.2031-9.6094-4.9688-13.594-16.922-8.625-26.531 4.9688-9.6562 16.5-13.5 26.156-8.5312l0.51562 0.28125c9.6094 4.9688 13.359 16.781 8.3438 26.391-3.4688 6.75-10.266 10.594-17.391 10.594z"/>
 <path d="m861.98 1010.2c-18.844 0-37.453-3.2344-55.359-9.5156-86.438-30.562-131.9-125.68-101.39-212.11 23.438-66.328 86.391-110.91 156.74-110.91 18.844 0 37.453 3.1875 55.359 9.5625 86.391 30.516 131.9 125.63 101.34 212.06-23.438 66.328-86.438 110.91-156.71 110.91zm-0.046875-293.39c-53.766 0-101.91 34.078-119.81 84.797-23.344 66 11.438 138.74 77.484 162.1 13.688 4.8281 27.938 7.3125 42.328 7.3125 53.719 0 101.86-34.078 119.77-84.75 23.344-66.047-11.438-138.74-77.484-162.1-13.688-4.875-27.891-7.3594-42.281-7.3594z"/>
 <path d="m934.22 864.19c-4.5 0-9-1.5-12.656-4.6875-8.25-7.0312-9.4688-19.594-2.4375-27.797s19.172-9.4219 27.375-2.4375l0.46875 0.375c8.25 7.0312 9.2344 19.406 2.25 27.656-3.9375 4.5469-9.4688 6.8906-15 6.8906z"/>
 <path d="m806.34 819c-4.5 0-9-1.5-12.703-4.6406-8.25-7.0312-9.4688-19.594-2.4375-27.844 7.0312-8.2031 19.125-9.4219 27.375-2.3906l0.46875 0.375c8.25 7.0312 9.2344 19.359 2.25 27.609-3.8906 4.5469-9.4219 6.8906-14.953 6.8906z"/>
 <path d="m848.58 945.32c-20.016 0-37.594-8.7656-51.562-25.875-6.8438-8.3438-5.625-20.719 2.7656-27.562s20.719-5.625 27.562 2.7656c8.2969 10.125 17.109 13.359 29.391 10.5 10.594-2.4375 21.047 4.2656 23.438 14.812s-4.2656 21-14.812 23.391c-5.7656 1.3125-11.344 1.9688-16.781 1.9688z"/>
 <path d="m941.72 618.14c-1.6875-0.60938-3.4688-1.0312-5.1562-1.5938-4.7344-16.172-10.875-32.25-17.672-49.031-19.547-48.656-43.922-109.12-39.375-210.24 3.6562-81.234-27.75-160.97-88.453-224.44-68.344-71.438-166.97-114.09-263.9-114.09-96.891 0-195.47 42.609-263.72 113.95-60.75 63.516-92.156 143.26-88.547 224.53 4.5 101.11-19.828 161.53-39.422 210.14-30.469 75.703-52.453 131.39 46.781 255.79-50.438 49.219-81.891 117.84-81.891 193.74v144.74c0.046875 10.828 8.8125 19.594 19.641 19.594h860.06c8.2969 0 15.703-5.25 18.469-13.078l87.562-247.97c43.453-123.05-21.281-258.56-144.37-302.06zm-586.13-111.8v-56.578c0-64.969 16.688-111.38 42.469-118.31 5.3438-1.4531 9.8438-2.1562 13.406-2.1562 6.5625 0 9.75 2.3438 18.984 9.7969 19.219 15.562 48.234 39.047 136.69 39.047l6.9375-0.046875c12.234 0 23.859-0.1875 34.828-0.375 9.6094-0.14062 18.703-0.28125 27.188-0.28125 24.375 0 50.344 1.1719 58.547 9.8438 3.2812 3.5156 4.6875 9.9375 4.125 20.344v98.672c0 94.594-76.969 171.52-171.52 171.52-94.688 0.046875-171.66-76.875-171.66-171.47zm71.531 185.39c29.812 16.125 63.891 25.312 100.08 25.312 36.281 0 70.406-9.1875 100.22-25.406v62.484l-100.22 57.422-100.08-57.328zm158.39 341.53 28.969-81.938 216.1 190.74h-251.34c-8.25-36.188-6.1406-73.547 6.2812-108.8zm380.68 108.8h-76.406l-48.516-42.844 154.69-41.531zm82.969-234.84-37.312 105.7-205.78 55.219-177.47-156.66 48-135.94c27.844-78.797 102.89-131.72 186.79-131.72 22.219 0 44.203 3.75 65.297 11.25 102.66 36.281 156.74 149.39 120.47 252.14z"/>
</svg>
