<?xml version="1.0" encoding="UTF-8"?>
<svg width="1200pt" height="1200pt" version="1.1" viewBox="0 0 1200 1200" xmlns="http://www.w3.org/2000/svg">
 <g>
  <path d="m225 914.06h93.75v46.875h-93.75z"/>
  <path d="m356.25 914.06h49.219v46.875h-49.219z"/>
  <path d="m1071.9 494c-8.8359-64.629-50.121-126.07-122.71-182.62-123.55-96.27-277.14-141.89-421.36-125.18-74.988 8.6953-148.31 35.227-212.02 76.734-65.613 42.75-118.36 99.82-152.52 165.04-28.828 55.031-40.781 108.09-35.531 157.73 6.5273 61.723 41.637 115.11 91.617 139.34 26.73 12.949 60.82 17.109 93.527 11.402 17.109-2.9766 32.625-8.4141 45.973-15.973 11.32 33.961 35.438 60.457 69.785 75.457 20.988 9.1641 43.805 13.688 66.633 13.688 22.98 0 45.961-4.6055 67.09-13.652 85.23 52.383 121.01 107.68 166.29 207.46 3.7969 8.3906 12.141 13.77 21.34 13.77h93.75c12.949 0 23.438-10.488 23.438-23.438 0-54.891-4.7578-85.98-14.695-121.08 9.1289-6.1992 17.191-13.23 24.645-19.746 6.2344-5.4492 12.129-10.605 18.164-14.93 10.453-7.4883 22.594-13.395 35.461-19.652 15.035-7.3125 30.598-14.871 45.047-25.758 52.395-39.445 70.395-114.94 46.102-174.69 9.2695-5.8242 17.379-12.68 24.164-20.52 21.914-25.324 31.324-63 25.805-103.37zm-832.07 188.87c-34.992-16.957-60.68-57.023-65.449-102.08-4.2539-40.277 5.9766-84.375 30.434-131.06 39.961-76.289 107.04-138.08 187.77-176.52l0.011719 1.5c3.5625-0.046876 4.4648 0.92578 5.0039 1.5 3.457 3.7148 4.3242 10.23 2.1211 15.867-3.4453 8.8008-11.332 17.227-19.688 26.168l-1.2656 1.3477c-11.859 12.68-23.895 26.637-29.355 45.445-7.4414 25.629 2.0625 53.121 22.594 65.367l24.012-40.254c-1.5234-0.91406-3.2109-6.4922-1.5938-12.047 2.5781-8.8828 10.254-17.602 18.586-26.508l1.2539-1.3359c10.488-11.215 22.371-23.93 29.098-41.074 7.2422-18.457 5.4961-38.93-4.0781-55.055 30.117-10.359 61.629-17.625 93.926-21.363 39.035-4.5234 78.855-4.0312 118.52 1.1953 2.2031 15.035 1.2305 30.527-3 45.129-0.46875 1.6172-0.97266 3.2461-1.4766 4.875-3.375 10.91-7.582 24.48-4.125 39.82 5.0039 22.172 22.23 34.078 36.07 43.641 7.5117 5.1914 16.02 11.074 17.004 15.41l45.703-10.395c-5.0273-22.125-22.242-34.02-36.059-43.582-7.5117-5.1914-16.02-11.074-16.992-15.398-0.70312-3.1055 1.3594-9.7617 3.1758-15.621 0.59766-1.9102 1.1836-3.8203 1.7344-5.7188 4.6523-16.066 6.5625-32.871 5.8008-49.547 33.809 7.7227 67.242 18.844 99.691 33.199-4.7461 31.945 4.2422 65.906 25.312 90.633 11.438 13.43 25.113 23.262 38.332 32.766 16.195 11.637 30.176 21.691 36.34 35.484l42.785-19.137c-11.332-25.336-32.812-40.781-51.762-54.41-11.449-8.2383-22.277-16.02-30.012-25.102-8.7656-10.301-13.957-23.719-15.129-37.418 26.062 14.449 51.246 31.066 75.234 49.746 62.602 48.773 97.957 99.914 105.07 152 1.9219 14.062 1.3594 27.34-1.4531 38.988-8.1094-8.6484-17.414-17.789-29.789-24.176-31.137-16.078-66.094-7.1016-89.227-1.1602l11.66 45.398c21.492-5.5195 41.953-9.8672 56.062-2.5898 6.9141 3.5742 13.488 10.676 20.461 18.211 1.0781 1.1602 2.168 2.3438 3.293 3.5391-14.66 9.0469-32.613 12.926-46.816 14.543-34.043 3.8789-64.652-6.4453-98.379-24.188 6.1055-42.914-6.6797-72.141-19.441-89.742-25.535-35.227-69.188-50.32-98.812-52.547-48.75-3.6562-115.49 5.5312-175.89 26.074-0.12891-4.0898-0.69141-8.2734-1.8047-12.527-2.0742-7.8984-5.7188-14.496-8.6484-19.793-1.5938-2.8828-4.2539-7.6992-4.3125-9.1992 0.023438-0.70312 1.1484-3.8203 5.8359-8.7656 1.6875-1.7695 3.5977-3.6094 5.6133-5.5547 5.5547-5.3438 11.848-11.391 16.992-19.488 11.203-17.625 11.602-38.684 1.0195-53.672l-38.273 27.059c-0.73828-1.043-0.92578-2.0039-0.92578-2.25 0.011719 0.46875-0.31641 2.0508-1.3594 3.7148-2.1328 3.3633-5.9297 7.0078-9.9375 10.863-2.3086 2.2266-4.6992 4.5234-7.125 7.0664-12.938 13.641-19.23 28.02-18.68 42.75 0.46875 12.68 5.8242 22.371 10.125 30.152 1.9336 3.4922 3.75 6.7852 4.3477 9.0352 1.6758 6.3633-4.1133 16.688-9.0469 24.27-17.508 9.0703-33.516 19.289-47.145 30.609-26.566 22.078-47.895 44.941-64.184 68.859-10.922 1.9922-21.926 3.6211-31.688 2.5781-9.4922-1.0078-17.602-4.9688-21.152-10.324-3.1758-4.7812-4.5586-12.809-5.7891-21.305l-0.14062-0.92578c-1.7461-12-3.7266-25.594-11.191-38.625-10.816-18.855-31.031-29.648-50.285-26.848l6.7383 46.383c-0.51562 0.070313-0.89062 0.011719-0.99609-0.011718 0.69141 0.19922 2.6016 1.5586 3.8789 3.7969 3.0234 5.2852 4.2188 13.418 5.4727 22.043l0.14062 0.9375c1.957 13.43 4.582 27.621 13.137 40.488 11.414 17.168 31.535 28.465 55.23 30.996 3.5742 0.38672 7.1133 0.5625 10.617 0.58594-4.8984 13.043-8.5078 26.402-10.828 40.125-22.828 28.16-79.57 33.305-112.91 17.156zm207.59 70.113c-39.082-17.062-48.281-50.602-48.926-76.43 7.3125-48.234 35.203-91.934 85.254-133.54 58.137-48.328 174.01-75.035 245.77-69.656 4.1836 0.31641 9.457 1.1367 15.27 2.6016-10.699 13.805-31.125 23.098-41.297 27.082-4.207 1.6523-8.4727 3.2344-12.984 4.9102-26.602 9.8906-56.742 21.094-76.664 47.297-4.2656 5.6133-7.6641 11.461-10.664 16.617-3.3398 5.7422-6.4805 11.156-9.9609 14.742-6.7148 6.9141-18.422 10.98-30.855 14.859l-1.1953 0.375c-15.902 4.9688-33.926 10.594-48.926 23.848-18.07 15.984-29.344 45.211-15.914 70.125l41.273-22.23c-0.97266-1.793 0.50391-8.1797 5.707-12.785 7.4766-6.6094 19.301-10.301 31.828-14.215l1.207-0.375c17.684-5.5312 36.164-12.164 50.52-26.965 7.4766-7.6992 12.457-16.266 16.84-23.824 2.543-4.3711 4.9453-8.4961 7.4531-11.812 11.672-15.375 33.047-23.309 55.664-31.723 4.5117-1.6758 9.1641-3.4102 13.758-5.2031 31.113-12.188 53.379-28.652 65.965-48.48 2.6367 2.5781 5.0977 5.3789 7.3242 8.4492 12.422 17.145 15.305 40.008 8.6133 67.957-8.1211 22.547-38.941 46.582-65.543 58.84-9.8672 4.5469-20.039 8.5312-30.809 12.75-20.766 8.1445-42.246 16.559-62.227 29.52-16.605 10.781-30.727 23.766-44.379 36.328-14.016 12.902-27.27 25.078-42.082 33.938-32.801 19.641-74.965 22.301-110.02 6.9961zm317.64 217.32c-21.422-46.16-42.105-84.703-69.469-119.54-24.434-31.113-53.285-57.75-89.238-82.172 8.7305-7.125 16.91-14.637 24.938-22.02 7.5938-6.9844 14.93-13.723 22.43-19.863 6 35.473 15.258 72.598 37.312 104.84 15.152 22.137 36.914 39.926 61.277 50.098 14.461 6.0352 29.273 9.0586 43.652 9.0586 4.2773 0 8.5078-0.29297 12.691-0.83203 6.6094 24.375 10.254 46.863 11.344 80.438zm188.5-220.1c-9.1641-0.5625-19.254-4.3008-28.266-8.1094-2.6484-1.125-5.2969-2.2734-7.9453-3.4336-13.57-5.9297-27.598-12.07-43.711-14.543-26.309-4.0312-50.438 3.8789-66.188 21.715l35.145 31.02c7.0664-8.0039 19.102-7.1367 23.941-6.3984 10.043 1.5352 20.73 6.2109 32.027 11.156 0.12891 0.058593 0.24609 0.10547 0.375 0.16406-10.418 5.2266-20.895 10.934-30.926 18.129-7.8633 5.6367-14.895 11.789-21.703 17.73-10.582 9.2461-20.566 17.977-31.324 22.512-29.789 12.527-66.75-7.9922-85.277-35.062-20.25-29.59-27.328-68.578-32.66-104.52 8.4141-3.7148 17.191-7.1602 26.215-10.688 10.922-4.2773 22.207-8.707 33.316-13.828 26.285-12.117 58.957-34.523 78.246-62.848 35.625 18.152 74.836 31.652 120.14 26.484 8.2148-0.9375 16.066-2.3086 23.555-4.1016 15.551 38.109 5.6133 86.93-24.961 114.62z"/>
 </g>
</svg>
