<?xml version="1.0" encoding="UTF-8"?>
<svg width="1200pt" height="1200pt" version="1.1" viewBox="0 0 1200 1200" xmlns="http://www.w3.org/2000/svg">
 <path d="m954.02 386.47-108.14-62.438v-135.26l-125.93-72.711-113.93 65.773-113.93-65.773-125.93 72.707v128.29l-120.2 69.395v145.39l120.2 69.395 0.003907 128.96 125.93 72.707 113.93-65.785 113.93 65.785 125.92-72.707v-135.9l108.14-62.438zm-456 17.004 104.65-60.422 99.203 57.266v117.7l-99.742 57.59-104.11-60.098zm323.86-200.84v114.72l-104.51 60.348-99.348-57.359v-117.71l101.93-58.848zm-431.71 0 101.93-58.848 101.93 58.848v114.55l-104.65 60.434-99.215-57.277-0.003906-117.71zm-120.19 197.69 101.93-58.836 101.93 58.836v117.7l-101.93 58.848-101.93-58.848zm120.19 316.02v-117.71l99.758-57.59 104.11 60.109v115.19l-101.93 58.824zm329.79 58.836-101.93-58.824v-117.71l99.887-57.672 103.97 60.023v115.36zm210.07-257.17-99.887 57.684-103.97-60.023v-112.36l104.51-60.336 99.348 57.348z"/>
 <path d="m606.02 1035.9c0 13.223-10.766 24-24 24-13.234 0-24-10.777-24-24v-60c0-26.484-21.527-48-48-48-26.473 0-48 21.516-48 48v48c0 13.223-10.766 24-24 24-13.234 0-24-10.777-24-24v-191.61c0-26.484-21.527-48-48-48-26.473 0-48 21.516-48 48v47.977c0 13.246-10.766 24-24 24-13.234 0-24-10.754-24-24v-288.37h-24v288.38c0 26.484 21.527 48 48 48 26.473 0 48-21.516 48-48v-47.977c0-13.246 10.766-24 24-24 13.234 0 24 10.754 24 24v191.61c0 26.461 21.527 48 48 48 26.473 0 48-21.539 48-48v-48c0-13.246 10.766-24 24-24 13.234 0 24 10.754 24 24v60c0 26.461 21.527 48 48 48 26.473 0 48-21.539 48-48v-156h-24z"/>
 <path d="m606.02 795.94h24v48h-24z"/>
 <path d="m438.02 615.89-24 0.074219 0.14453 86.531 71.93 41.508 12-20.785-59.93-34.594z"/>
 <path d="m498.02 329.52-59.926-34.582-0.13281-72.734-24 0.085937 0.13281 86.508 71.926 41.52z"/>
 <path d="m773.95 411.89-24 0.085937 0.14453 86.52 71.926 41.508 12-20.797-59.926-34.594z"/>
</svg>
