<?xml version="1.0" encoding="UTF-8"?>
<svg width="1200pt" height="1200pt" version="1.1" viewBox="0 0 1200 1200" xmlns="http://www.w3.org/2000/svg">
 <path d="m625.45 497.48c-149.21 10.148-278.71 80.336-407.13 150.94-48.812 26.84-94.348 56.125-142.99 83.082-12.332 6.832-81.062 29.609-74.938 45.809 8.2734 21.766 82.613-13.086 95.934-20.918 26.801-16.328 52.809-44.844 53.391-45.211 36.598-22.207 64.645-39.926 107.12-18.801 56.137 27.934 110.96 54.188 169.74 76.289 127.98 48.109 276.52 94.582 404.5 24.316 91.004-49.934 149.37-144.45 262.21-150.09 23.273-1.1562 43.48 6.2461 65.504 12.41 4.9961 1.3789 59.754 5.125 34.645-13.125-27.594-20.281-58.66-33.539-90.73-44.82-155.16-54.617-309.57-111.38-477.26-99.879m-328.95 132.18c65.57-34.242 130.83-69.562 202.37-89.848 99.316-28.168 205.05-30.105 306.41-12.242 104.9 18.5 211.15 57.375 310.69 96.195-114.37-14.391-184.11 79.242-268.33 135.51-93.227 62.188-193.09 57.465-296.94 27.555-40.5-11.656-80.441-23.871-120.03-38.234-30.246-11.008-63.086-19.773-90.652-36.52-28.648-17.406-71.059-43.832-105.61-49.66 20.598-11.137 41.348-21.945 62.098-32.758"/>
 <path d="m741.7 503.14c-9.8477 9.0273 5.3594 34.125 7.6367 43.816 5.5664 23.77 8.9648 49.504 6.1797 73.895-5.1016 44.234-50.387 69.355-90.211 77.797-50.258 10.668-100.92-14.285-129.97-55.617-12.527-17.824-15.145-37.207-10.629-58.348 1.8359-8.5469 11.176-25.254 6.5977-33.957-4.125-7.8594-16.016-6.7773-18.645 1.7031-17.875 57.57-7.375 98.836 39.785 136.95 39.484 31.926 90.797 40.098 138.44 22.961 36.465-13.102 74.117-37.727 82.926-78.02 3.3828-15.516-6.9883-154.36-32.109-131.18"/>
 <path d="m621.34 545.11c-54.914 24.004-37.145 115.95 23.797 113.95 105.43-3.3945 35.41-171.02-23.797-113.95"/>
 <path d="m113.29 570.03c-3.8398 5.0234-4.2812 6.543 3.5 14.324 23.781 19.852 37.715 29 68.652 34.555 26.227 4.7227 101.64 20.816 116.79-2.9023 14.637-22.898-61.98-10.707-70.863-10.719-12.711 0-26.449-3.4883-39.004-5.7109-29.43-5.2578-38.094-10.277-61.484-29.82-5.8164-5.8281-13.883-4.5508-17.59 0.27344z"/>
 <path d="m252.23 476.65c-16.641 14.793 98.848 133.25 132.13 102.13 14.324-13.414-10.395-17.445-17.238-18.266-17.383-2.1094-30.559-12.75-43.52-23.77-10.07-8.5742-57.488-72.453-71.371-60.094"/>
 <path d="m421.18 390.59c-29.117 6.2461 43.062 163.79 85.059 141.77 16.898-8.8711-24.445-32.133-35.66-41.578-8.4453-7.1289-16.641-25.188-21.285-34.164-3.9531-11.75-11.082-69.695-28.113-66.027"/>
 <path d="m584.61 375.09c-16.301 13.012-2.1719 129.63 11.5 139.17 24.34 16.977 7.3633-66.676 6.3242-73.453-2.2656-14.973-1.6523-42.125-5.1914-49.879-3.2266-6.0391-2.7695-23.723-12.633-15.836"/>
 <path d="m778.74 374.87c-3.9023 3.3555-5.1016 44.141-6.7148 51.949 0 8.4453-4.6445 19.176-6.7539 27.504-3.8906 15.457-27.371 46.34-23.742 59.898 16.07 59.688 78.883-175.11 37.211-139.35"/>
 <path d="m895.07 414c-1.7812 24.59-21.324 66.934-42.777 79.75-10.082 6.0352-21.688 9.2227-32.668 13.23-13.492 4.8906-10.289 25.293 4.332 19.969 23.145 3.7734 55.254-27.449 65.168-44.754 9.4844-16.562 18.879-34.152 23.73-52.73 5.6211-21.5-16.484-33.133-17.785-15.465"/>
 <path d="m1016.1 428.13c-10.656 22.402-19.645 46.914-38.797 63.695-13.477 11.801-27.801 18.617-43.52 26.527-8.1953 4.1367-27.645 11.109-29.402 21.883-1.4062 8.7422 8.7422 15.039 15.938 9.8477 36.57-26.32 75.133-35.648 97.602-79.062 3.3164-6.6602 7.2734-13.012 9.8633-20.008 3.7578-10.211-3.0078-41.082-11.684-22.883"/>
 <path d="m1124.2 492.08c-13.477 21.855-25.512 44.297-48.266 58.426-14.57 12.957-37.922 12.293-56.086 13.727-14.727 1.1836-28.609 18.773-8.0547 17.148 28.711 13.531 74.703-12.672 94.699-30.48 12.059-10.758 18.902-21.895 26.84-35.492 6.1914-10.605 1.2227-40.164-9.1328-23.328"/>
</svg>
