<?xml version="1.0" encoding="UTF-8"?>
<svg width="1200pt" height="1200pt" version="1.1" viewBox="0 0 1200 1200" xmlns="http://www.w3.org/2000/svg">
 <path d="m52.734 873.37h1094.5c15.188 0 27.562 12.328 27.562 27.562v259.08c0 15.188-12.328 27.562-27.562 27.562h-1094.5c-15.188 0-27.562-12.328-27.562-27.562v-259.08c0-15.188 12.328-27.562 27.562-27.562zm509.9-860.86h584.63c15.188 0 27.562 12.328 27.562 27.562v259.08c0 15.188-12.328 27.562-27.562 27.562h-584.63c-15.188 0-27.562-12.328-27.562-27.562v-259.08c0-15.188 12.328-27.562 27.562-27.562zm557.06 55.078h-529.55v204h529.55zm-808.78 634.4h808.78v-203.95h-808.78zm836.34 55.078h-863.86c-15.188 0-27.562-12.328-27.562-27.562v-259.03c0-15.188 12.328-27.562 27.562-27.562h863.86c15.188 0 27.562 12.328 27.562 27.562v259.03c0 15.188-12.328 27.562-27.562 27.562zm-27.562 171.37h-1039.5v204h1039.5z"/>
</svg>
