<?xml version="1.0" encoding="UTF-8"?>
<svg width="1200pt" height="1200pt" version="1.1" viewBox="0 0 1200 1200" xmlns="http://www.w3.org/2000/svg">
 <path d="m198.79 192.24c-0.23438 0.046875-0.51562 0.046875-0.75 0.046875-14.766 1.3594-27.656 8.4844-36.516 18.984s-13.781 24.375-12.609 39.141c0.046875 0.23438 0.046875 0.51562 0.046875 0.75 1.3594 14.766 8.4844 27.656 18.984 36.516 10.594 8.9531 24.609 13.828 39.562 12.609 14.906-1.2656 27.938-8.4375 36.891-19.031 8.8594-10.5 13.781-24.375 12.609-39.141-0.046875-0.23438-0.046875-0.51562-0.046875-0.75-1.3594-14.766-8.4844-27.656-18.984-36.516s-24.375-13.734-39.188-12.609zm809.72 258.74 136.97-74.297c5.5781-3 12.516-0.9375 15.562 4.6406 0.9375 1.7344 1.4062 3.6094 1.4062 5.4844v743.53c0 6.3281-5.1562 11.484-11.484 11.484l-137.26-0.09375c-6.3281 0-11.484-5.1562-11.484-11.484v-669.05c0-4.4531 2.5312-8.3438 6.2812-10.219zm130.97-44.953-114.28 62.016v650.72h114.28zm-367.64 186.52 136.4-18.516c6.2812-0.84375 12.047 3.5625 12.891 9.8438 0.046876 0.51562 0.09375 1.0312 0.09375 1.5469h0.046876v544.87c0 6.3281-5.1562 11.484-11.484 11.484l-137.26-0.046876c-6.3281 0-11.484-5.1562-11.484-11.484v-526.26c0-6.0938 4.7812-11.109 10.781-11.438zm126.47 5.9062-114.33 15.516v504.79h114.33zm-362.58 81.656 136.22 41.578c4.9219 1.5 8.1094 6.0469 8.1094 10.922h0.046875v397.64c0 6.3281-5.1562 11.484-11.484 11.484h-137.26c-6.3281 0-11.484-5.1562-11.484-11.484v-439.55c0-6.3281 5.1562-11.484 11.484-11.484 1.5469 0.046875 3 0.32812 4.3594 0.89062zm121.4 60.938-114.33-34.875v412.6h114.33zm-366.94 114.38h137.26c6.3281 0 11.484 5.1562 11.484 11.484v263.39c0 6.3281-5.1562 11.484-11.484 11.484l-137.26-0.046876c-6.3281 0-11.484-5.1562-11.484-11.484v-263.39c0-6.3281 5.1562-11.438 11.484-11.438zm125.76 22.922h-114.28v240.42h114.28zm-366.94 56.766h137.26c6.3281 0 11.484 5.1562 11.484 11.484v183.71c0 6.3281-5.1562 11.484-11.484 11.484l-137.26-0.046875c-6.3281 0-11.484-5.1562-11.484-11.484v-183.66c0-6.375 5.1562-11.484 11.484-11.484zm125.76 22.922h-114.28v160.74h114.28zm502.22-633.74c0.09375 0.42188 0.14062 0.84375 0.1875 1.2656 3.375 21.656 15.094 39.938 31.406 52.078 16.312 12.094 37.219 18.047 58.922 15 0.42188-0.09375 0.84375-0.14062 1.2656-0.1875 21.656-3.375 39.938-15.094 52.078-31.406 12.094-16.312 18.047-37.219 15-58.922-0.09375-0.42188-0.14062-0.84375-0.1875-1.2656-3.375-21.656-15.094-39.938-31.406-52.078-16.312-12.094-37.219-18.047-58.922-15-0.42188 0.09375-0.84375 0.14062-1.2656 0.1875-21.656 3.375-39.938 15.094-52.078 31.406-12.094 16.312-18.047 37.219-15 58.922zm-27.141 4.5938c-4.3594-29.391 3.6562-57.75 20.109-79.875 16.453-22.172 41.344-38.016 70.734-42.375h0.046875c29.391-4.3125 57.75 3.6562 79.875 20.109 22.172 16.453 38.016 41.344 42.375 70.734v0.046875c4.3594 29.391-3.6562 57.75-20.109 79.922s-41.344 38.016-70.734 42.375h-0.046875c-29.391 4.3594-57.75-3.6562-79.922-20.109s-38.016-41.344-42.375-70.734zm-90.469-48.141-48.891 22.312c-5.9531 2.2031-9.75 8.3438-8.8125 14.906l9.5156 64.453h0.046875c0.84375 5.9062 5.5312 10.781 11.766 11.625l54.328 7.3594c2.4375 4.9688 5.0625 9.7969 7.8281 14.438 2.8125 4.6875 5.8594 9.2812 9.0469 13.781l-18.984 50.812c-2.3906 5.7188-0.70312 12.516 4.5 16.359l51.844 38.484c4.8281 3.8906 11.859 4.1719 17.016 0.23438l43.594-33.234c5.25 1.7812 10.547 3.375 15.797 4.6875 5.3438 1.3594 10.734 2.4844 16.125 3.375l22.312 48.891c2.2031 5.9531 8.3438 9.75 14.906 8.8125l64.453-9.5156c5.9062-0.84375 10.781-5.5312 11.625-11.766l7.3594-54.328c4.9688-2.4375 9.7969-5.0625 14.438-7.8281 4.6875-2.8125 9.2812-5.8594 13.781-9.0469l50.812 18.984c5.7188 2.3906 12.516 0.70312 16.359-4.4531l38.484-51.844c3.8906-4.8281 4.1719-11.859 0.23438-17.016l-33.234-43.594c1.7812-5.25 3.375-10.547 4.6875-15.797 1.3594-5.3438 2.4844-10.734 3.375-16.125l48.891-22.312c5.9531-2.2031 9.7969-8.3438 8.8125-14.906l-9.5156-64.453c-0.84375-5.9062-5.5312-10.781-11.766-11.625l-54.328-7.3594c-2.4375-4.9688-5.0625-9.7969-7.8281-14.438-2.8125-4.6875-5.8594-9.2812-9.0469-13.781l18.984-50.812c2.3906-5.7188 0.70312-12.516-4.4531-16.359l-52.078-38.438c-4.8281-3.8906-11.859-4.1719-17.016-0.23438l-43.594 33.234c-5.25-1.7812-10.547-3.375-15.797-4.6875-5.3438-1.3594-10.734-2.4844-16.125-3.3281l-22.312-48.891c-2.2031-5.9531-8.3438-9.7969-14.906-8.8125l-64.453 9.5156c-5.9062 0.84375-10.781 5.5312-11.625 11.766l-7.3594 54.328c-4.9688 2.4375-9.7969 5.0625-14.438 7.8281-4.6875 2.8125-9.2812 5.8594-13.781 9.0469l-50.812-18.984c-5.7188-2.3906-12.516-0.70312-16.359 4.4531l-38.484 51.844c-3.8906 4.8281-4.1719 11.859-0.23438 17.016l33.234 43.594c-1.7812 5.25-3.375 10.547-4.6875 15.797-1.2188 5.25-2.3438 10.641-3.2344 16.031zm30.047-9.4688c1.7344-6.8906 3.8438-13.5 6.2812-19.875 1.7812-4.6406 0.89062-9.6094-1.9219-13.266l-31.5-41.344 26.531-35.719 48.703 18.188c4.6875 1.7344 9.7031 0.79688 13.312-2.1094 5.4375-4.2188 11.156-8.1562 17.109-11.719 6.0938-3.6562 12.234-6.8438 18.469-9.6094 4.5469-2.0156 7.4062-6.1406 8.0156-10.734h0.046875l6.9375-51.469 44.016-6.5156 21.562 47.25c2.0625 4.5 6.2344 7.3594 10.828 7.9219v0.046875c6.9375 0.84375 13.781 2.1562 20.484 3.8438 6.8906 1.7344 13.5 3.8438 19.875 6.2812 4.6406 1.7812 9.6094 0.89062 13.266-1.875l41.344-31.5 35.719 26.531-18.188 48.703c-1.7344 4.6875-0.79688 9.7031 2.1094 13.312 4.2188 5.4375 8.1094 11.156 11.719 17.109 3.6562 6.0938 6.8438 12.234 9.6094 18.469 2.0156 4.5469 6.1406 7.4062 10.734 8.0156v0.046875l51.469 6.9375 6.5156 44.016-47.25 21.562c-4.5 2.0625-7.3594 6.2344-7.9219 10.828h-0.046875c-0.84375 6.9375-2.1562 13.781-3.8438 20.484-1.7344 6.8906-3.8438 13.5-6.2812 19.875-1.7812 4.6406-0.89062 9.6094 1.9219 13.266l31.5 41.344-26.531 35.719-48.703-18.188c-4.6875-1.7344-9.7031-0.79688-13.312 2.1094-5.4375 4.2188-11.156 8.1094-17.109 11.719-6.0938 3.6562-12.234 6.8438-18.469 9.6094-4.5469 2.0156-7.4062 6.1406-8.0156 10.734h-0.046875l-6.9375 51.469-44.016 6.5156-21.562-47.25c-2.0625-4.5-6.2344-7.3594-10.828-7.9219v-0.046875c-6.9375-0.84375-13.781-2.1562-20.484-3.8438-6.8906-1.7344-13.5-3.8438-19.875-6.2812-4.6406-1.7812-9.6094-0.89062-13.266 1.9219l-41.344 31.5-35.719-26.531 18.188-48.703c1.7344-4.6875 0.79688-9.7031-2.1094-13.312-4.2188-5.4375-8.1094-11.156-11.719-17.109-3.6562-6.0938-6.8438-12.234-9.6094-18.469-2.0156-4.5469-6.1406-7.4062-10.734-8.0156v-0.046875l-51.469-6.9375-6.5156-44.016 47.25-21.562c4.5-2.0625 7.3594-6.2344 7.9219-10.828h0.046875c0.84375-7.0312 2.1562-13.828 3.8438-20.531zm-465.47 345.98 83.906 18.562 90.703 18v0.046875c5.3906 1.0312 9.8438 5.2969 10.875 11.016l20.25 109.22c0.84375 4.4531 2.4375 8.3438 4.7344 11.672 2.2969 3.2812 5.4375 6.1406 9.375 8.4375 3.8906 2.2969 7.9219 3.6562 11.906 4.0781 4.0781 0.42188 8.2969-0.046875 12.562-1.4531l3.3281-1.0781c7.125-2.3438 12.797-7.125 16.312-13.125s4.875-13.266 3.4688-20.672l-25.875-135c-0.09375-0.46875-0.1875-0.9375-0.23438-1.4062-0.46875-4.0781-1.7344-8.0156-3.6562-11.484s-4.5469-6.6562-7.7344-9.2812c-2.0156-1.6406-4.125-3-6.4219-4.0781-2.2031-1.0312-4.5938-1.8281-7.1719-2.3438l-91.781-18.234v-0.046875c-6.2812-1.2188-11.016-6.7031-11.109-13.359l-1.125-125.26c-0.42188-7.3125 4.9688-13.734 12.328-14.484l95.016-10.031c5.1562-0.51562 9.8438-1.7344 14.156-3.5625s8.3906-4.4062 12.375-7.7812l66.891-56.484c4.2656-3.6094 6.7031-8.7188 7.125-13.969 0.46875-5.3906-1.125-10.922-4.7812-15.328l-1.3594-1.6406c-3.6562-4.4062-8.7656-6.8906-14.109-7.4062-5.3906-0.51562-10.969 1.0312-15.516 4.7344l-49.641 40.031c-5.9062 4.7812-12.047 8.4844-18.656 11.25-6.6094 2.7188-13.594 4.5-21.188 5.2969l-61.969 6.8438c-2.5312 0.28125-5.0625 0.42188-7.875 0.46875-2.5781 0.046875-5.1094-0.09375-7.7812-0.32812l-109.92-10.406c-0.46875-0.046875-0.89062-0.046875-1.2656-0.09375-4.4062-0.046875-8.5312 2.0156-11.719 5.2969-3.5156 3.6094-5.9062 8.5312-6.375 13.734-0.046875 0.65625-0.09375 1.3125-0.09375 1.8281l-1.0781 191.68c0.046875 0.5625 0.046875 1.1719 0 1.7812-0.79688 11.672 1.125 20.719 5.3438 27.047 1.9688 2.9062 4.5938 5.3906 7.7812 7.3125zm93.469 48.516-41.812 194.11c-2.4375 11.344-7.9219 21.234-15.703 28.922-7.6875 7.5938-17.625 12.938-29.016 15.234v0.046876l-1.2188 0.23437c-0.46875 0.09375-0.89062 0.14063-1.3594 0.1875-9.1875 1.6406-18.188 1.1719-26.531-1.4062-8.8125-2.6719-16.922-7.5469-23.859-14.531-6.9375-6.9375-11.812-15.094-14.484-23.906-2.6719-8.7656-3.0469-18.234-1.0781-27.844l41.109-200.39c-3.8906-3.2344-7.3125-6.9844-10.219-11.297-7.5469-11.391-11.062-26.203-9.8438-44.109l1.2188-191.68c0-1.5 0.09375-2.9531 0.23438-4.3125 1.0781-11.578 6.3281-22.453 14.109-30.422 8.1562-8.2969 19.172-13.547 31.406-13.453 1.3125 0 2.5312 0.046876 3.75 0.1875l109.92 10.406c1.8281 0.1875 3.4688 0.23438 5.0625 0.23438 1.4062 0 3-0.14063 4.9688-0.32813l62.062-6.8438c4.9219-0.51562 9.375-1.6406 13.547-3.375 4.1719-1.7344 8.1094-4.125 12-7.2656l49.641-40.031c10.312-8.2969 23.062-11.766 35.344-10.641 12.281 1.1719 24.094 6.9375 32.578 17.156l1.3594 1.6406c8.4844 10.219 12.141 22.875 11.156 35.109-1.0312 12.281-6.6562 24.141-16.828 32.719l-66.891 56.484c-6.0938 5.1562-12.469 9.1406-19.359 12.094-6.8906 2.9531-14.156 4.7812-22.125 5.625l-82.594 8.7188 0.9375 102.28 80.766 16.031c4.7812 0.9375 9.3281 2.4844 13.641 4.5 4.4531 2.1094 8.4844 4.6875 12.094 7.6406 5.8594 4.7812 10.734 10.734 14.438 17.484 3.5625 6.4688 5.9062 13.594 6.7969 21.047l25.828 134.86c2.7188 14.109 0 28.125-6.7969 39.703s-17.672 20.766-31.406 25.312l-3.3281 1.0781c-8.1094 2.6719-16.172 3.6094-24.094 2.7656-7.9688-0.84375-15.703-3.4688-23.016-7.7812-7.2656-4.2656-13.266-9.7969-17.859-16.406-4.5938-6.5625-7.7344-14.109-9.2812-22.453l-18.516-100.03zm-88.266-17.531 0.75 0.14062 60.516 12-41.672 193.78c-1.2656 6-4.0781 11.156-8.0625 15.047-3.9844 3.9375-9.1406 6.7031-15.141 7.9219v-0.046875l-1.2188 0.23438c-0.32812 0.046875-0.65625 0.14062-0.98438 0.23438-4.6875 0.79688-9.2344 0.51562-13.5-0.79688-4.5469-1.3594-8.7188-3.8906-12.375-7.5469s-6.2344-7.875-7.5938-12.422-1.5938-9.4688-0.51562-14.484zm66.984-483.42c22.453-1.875 43.547 5.5312 59.531 19.031s26.812 33.094 28.688 55.594c1.875 22.453-5.5312 43.594-19.031 59.578s-33.094 26.812-55.594 28.688c-22.453 1.875-43.594-5.5312-59.578-19.031s-26.812-33.094-28.688-55.594c-1.875-22.453 5.5312-43.594 19.031-59.578s33.094-26.812 55.594-28.688z" fill-rule="evenodd"/>
</svg>
