<?xml version="1.0" encoding="UTF-8"?>
<svg width="1200pt" height="1200pt" version="1.1" viewBox="0 0 1200 1200" xmlns="http://www.w3.org/2000/svg">
 <path d="m530.06 181.87c-183.19 0-332.26 149.26-332.26 332.44 0 183.18 149.06 332.44 332.26 332.44 183.19 0 332.44-149.06 332.44-332.44 0-183.37-149.06-332.44-332.44-332.44zm-255.37 340.5c-2.625-5.0625-2.625-11.062 0-16.125 43.688-91.125 144-150 255.37-150s211.87 58.875 255.56 150c2.4375 5.0625 2.4375 11.062 0 16.125-43.688 91.125-144 150-255.56 150s-211.69-58.875-255.37-150z"/>
 <path d="m1065.4 959.63-110.81-110.62c-7.3125-7.3125-19.125-7.3125-26.438 0l-34.312 34.125-69-69c77.625-76.5 125.81-182.63 125.81-299.81 0-231.94-188.63-420.56-420.56-420.56-231.94 0-420.56 188.63-420.56 420.56 0 231.94 188.81 420.56 420.56 420.56 101.25 0 194.26-36 266.81-95.625l70.5 70.5-34.125 34.125c-7.3125 7.3125-7.3125 19.125 0 26.438l110.62 110.81c16.312 16.125 37.875 25.125 60.75 25.125s44.438-9 60.75-25.125c33.375-33.562 33.375-87.938 0-121.5zm-535.31-62.25c-211.13 0-383.06-171.74-383.06-383.06 0-211.32 171.94-383.06 383.06-383.06 211.13 0 383.06 171.94 383.06 383.06 0 211.13-171.74 383.06-383.06 383.06z"/>
 <path d="m637.5 514.31c0-59.25-48.188-107.44-107.44-107.44s-107.25 48.188-107.25 107.44 48.188 107.44 107.25 107.44 107.44-48.188 107.44-107.44zm-177.19 0c0-38.438 31.312-69.938 69.75-69.938s69.938 31.5 69.938 69.938-31.312 69.938-69.938 69.938-69.75-31.5-69.75-69.938z"/>
 <path d="m635.26 613.69c48.562-20.625 88.688-55.125 112.5-99.375-23.812-44.25-63.938-78.75-112.5-99.375 24.562 25.875 39.75 60.938 39.75 99.375s-15.188 73.5-39.75 99.375z"/>
 <path d="m425.06 414.94c-48.562 20.625-88.688 55.125-112.5 99.375 23.812 44.25 63.938 78.938 112.5 99.375-24.562-25.875-39.75-60.938-39.75-99.375s15.188-73.5 39.75-99.375z"/>
 <path d="m562.5 514.31c0-17.812-14.438-32.438-32.438-32.438s-32.25 14.625-32.25 32.438 14.438 32.438 32.25 32.438 32.438-14.625 32.438-32.438z"/>
</svg>
