<?xml version="1.0" encoding="UTF-8"?>
<svg width="1200pt" height="1200pt" version="1.1" viewBox="0 0 1200 1200" xmlns="http://www.w3.org/2000/svg">
 <g>
  <path d="m883.6 135.1c-13.5 0-24.516 10.734-24.844 24.234v1.6406c0 25.031-19.875 44.859-45 44.859h-1.5v-0.046875c-13.406 0.32812-24.141 11.297-24.188 24.703v0.14062c0.046875 13.453 10.781 24.375 24.188 24.703 0.42188 0.046875 0.84375 0.09375 1.2656 0.14062 0.09375 0 0.14062-0.14062 0.23438-0.14062h0.14062c25.078 0.046875 44.859 19.828 44.859 44.859v1.6406c0.32812 13.453 11.344 24.234 24.844 24.188 13.406-0.046875 24.375-10.781 24.703-24.188l0.14062-1.2656v-0.23438c0-25.031 19.734-44.859 44.859-44.859h-0.046875 0.375c6.7031 0.1875 13.219-2.3438 18-7.0312s7.5-11.109 7.5-17.812c0-13.453-10.734-24.516-24.234-24.844h-1.6406c-25.125 0-44.859-19.781-44.859-44.859v-0.23438l0.046875 0.046875v-0.28125c0.14062-6.7031-2.4375-13.125-7.0781-17.906-4.6875-4.7812-11.109-7.4531-17.766-7.4531zm-592.74 32.953-1.6875 0.14062h-0.14062c-2.7188 0-5.4844-0.046875-8.3438 0.375l-7.4531 1.125c-31.688 4.6406-53.859 36-47.625 67.406l49.5 249.19c-39.75 32.812-77.906 90.75-78.047 200.72v-0.046875 0.46875c0 0.51562 0.046875 1.0312 0.046875 1.5469 0.046875 123.28 7.5469 210.94 14.062 263.39v-0.046876l0.14062 0.28125c3.375 24.328 9.75 45.844 24.047 63.234 14.297 17.344 35.016 28.172 60.141 35.109l0.046875-0.046874c0 0.046874 0.046875 0.09375 0.09375 0.14062 32.438 8.7188 76.406 15.469 126 13.172 2.0625 0.046874 4.1719-0.09375 6.1875-0.51563 44.156-2.7188 92.391-12.469 141.19-35.203 23.016-10.547 91.828-40.5 143.29-78.047 25.734-18.797 48.703-38.672 58.172-66.891 4.7344-14.109 4.5938-31.266-2.6719-45.984s-19.922-26.156-36.469-35.719l1.5 0.89063c-43.688-29.672-153.24-93.188-188.02-194.58-2.1562-6.2812-4.5-11.672-6.75-17.531-0.1875-1.0312-0.42188-2.0156-0.70312-3-0.60938-1.875-1.4531-3.6562-2.4844-5.3438-16.734-41.906-35.859-74.062-59.625-96.844-22.312-21.375-50.953-26.953-79.406-31.312l-47.109-237.52c-5.4844-27.516-28.969-47.109-56.156-48.562h-1.7344zm-1.0312 49.547h0.14062c4.6406 0.23438 9.1875 4.0781 10.125 8.7188l49.406 248.72c2.2969 11.672 12.562 20.062 24.469 19.969 27.141-0.09375 47.016 6.9375 66.984 26.062 13.312 12.75 26.391 32.438 38.859 58.781l-231.66 73.219c6.8906-85.922 39.375-122.26 66.984-140.34l0.046875 0.046875c8.4375-5.5312 12.703-15.656 10.734-25.594l-51.703-259.69c-1.0312-5.2969 0.79688-7.8281 6.1875-8.625l7.4531-1.125c0.60938-0.09375 1.1719-0.1875 1.9219-0.14063zm593.76 2.9062c3.3281 3.9375 6.0469 6.7969 9.9844 10.125-3.9375 3.3281-6.6562 6.0938-9.9844 10.031-3.375-3.9375-6.3281-6.6562-10.312-10.031 3.9844-3.375 6.8906-6.1406 10.312-10.125zm-94.172 9.75v0.75l-0.375-0.375zm136.03 327.84h0.046875c-12.797 0.09375-23.438 9.8438-24.562 22.547-0.09375 0.5625-0.09375 1.125-0.14062 1.6406-0.046875 0.32812-0.09375 0.60938-0.09375 0.89062v0.5625c0 15.188-11.766 26.859-27 26.859v-0.046875h-0.28125c-0.375 0-0.79688 0.14062-1.125 0.14062-13.359 0.42188-24 11.344-24.094 24.703 0 13.406 10.688 24.422 24.094 24.844h1.4062c15.234 0 27 11.812 27 27v-0.046875 0.51562c-0.09375 6.6094 2.4844 13.031 7.1719 17.719 4.6406 4.6875 10.969 7.3594 17.625 7.3594 13.453 0 24.469-10.734 24.844-24.188v-1.4062c0-15.188 11.766-27 27-27h0.14062l-0.046875 0.046875h1.2656c13.406-0.32812 24.141-11.297 24.188-24.703v-0.14062c-0.046875-12.797-9.7969-23.391-22.547-24.562-0.51562-0.046875-1.0781-0.09375-1.6406-0.14062h-1.4062c-15.234 0-27-11.812-27-27v-0.14062l0.046875 0.046875v-1.3125c-0.375-13.453-11.344-24.188-24.844-24.188zm-426.89 67.828c43.406 123.98 169.31 192.66 206.39 217.87v-0.046875c0.46875 0.375 0.9375 0.70312 1.4062 1.0312 11.016 6.375 15.562 11.812 17.016 14.719s1.5469 3.9844 0.09375 8.3438c-2.9062 8.6719-18.188 26.391-40.406 42.562-9.2812 6.7969-19.641 13.359-30.281 19.781-7.5938-2.7188-23.953-9.6562-46.969-26.109-32.062-22.922-74.109-63.375-111.98-133.69h-0.046875c-4.4062-8.0625-12.938-13.031-22.172-12.891-3.9844 0-7.9688 1.0312-11.531 2.9062-12 6.5156-16.453 21.516-9.9844 33.562 41.438 76.875 89.109 123.32 126.94 150.37 8.0156 5.7188 15.562 10.453 22.688 14.625-21.469 10.688-40.781 19.547-51.469 24.422-0.046875 0-0.09375 0.046875-0.14062 0.09375-39.422 18.375-78.75 26.906-115.31 29.953-5.0156-6.4219-12.328-17.203-20.719-35.531-14.953-32.672-30.469-85.734-29.531-165.94 0.1875-13.688-10.781-24.891-24.422-25.078-13.688-0.14062-24.891 10.781-25.078 24.422-1.0781 86.906 15.891 147.79 33.938 187.22 2.5312 5.5312 5.0625 10.594 7.6406 15.328-25.312-1.875-47.953-5.9062-65.906-10.734h-0.14062c-19.312-5.3438-28.828-11.438-34.969-18.891-6.1406-7.4531-10.453-18.703-13.172-38.391-5.9062-47.953-12.656-128.53-13.406-240.32zm350.68 9.0938v-0.046875 0.79688l-0.375-0.42188z"/>
  <path d="m701.76 320.02c-13.453-0.046875-24.516 10.734-24.844 24.188v1.6406c0 25.031-19.875 44.859-45 44.859h-1.5 0.046875c-13.453 0.32812-24.188 11.25-24.234 24.703v0.1875-0.046875c0.046875 13.453 10.781 24.375 24.234 24.703 0.42188 0.09375 0.84375 0.14062 1.2656 0.14062 0.09375 0 0.14062-0.14062 0.23438-0.14062h0.14062c25.078 0.046875 44.859 19.828 44.859 44.859v1.6406c0.32812 13.5 11.344 24.234 24.844 24.188 13.406-0.046875 24.375-10.734 24.703-24.188l0.14062-1.2656v-0.23438c0-25.031 19.734-44.859 44.859-44.859h-0.046875 0.375c6.7031 0.1875 13.219-2.3438 18-7.0312s7.5-11.109 7.5-17.812c0-13.453-10.734-24.469-24.188-24.797h-1.6406c-25.125 0-44.859-19.781-44.859-44.859v-0.5625c0.14062-6.6562-2.4375-13.125-7.0781-17.859-4.6875-4.7812-11.109-7.4531-17.766-7.4531zm0 85.406c3.3281 3.9375 6.0469 6.7969 9.9844 10.125-3.9375 3.3281-6.6562 6.0938-9.9844 10.031-3.375-3.9375-6.3281-6.6562-10.312-10.031 3.9844-3.375 6.8906-6.1406 10.312-10.125zm-94.172 9.75h0.046875v0.75l-0.375-0.375z"/>
 </g>
</svg>
