<?xml version="1.0" encoding="UTF-8"?>
<svg width="1200pt" height="1200pt" version="1.1" viewBox="0 0 1200 1200" xmlns="http://www.w3.org/2000/svg">
 <path d="m365.68 109.41h79.453l56.156-56.156c27.188-27.188 62.953-40.734 98.766-40.734 35.766 0 71.578 13.594 98.766 40.734l56.156 56.156h79.453c38.391 0 73.312 15.703 98.625 41.016s41.016 60.234 41.016 98.672v79.406l56.156 56.156c27.188 27.188 40.734 62.953 40.734 98.766 0 35.766-13.594 71.578-40.734 98.766l-56.156 56.156v79.453c0 37.453-14.953 71.625-39.141 96.75l132.19 223.6c7.7344 13.078 3.375 29.906-9.7031 37.641-7.5938 4.4531-16.406 4.875-24.047 1.9219l-145.55-48.797-32.859 137.58c-3.4688 14.719-18.281 23.812-33 20.344-6.75-1.5938-12.281-5.5312-15.984-10.781l-0.046874 0.046875-163.18-228.32c-13.875 4.4062-28.312 6.6562-42.75 6.6562s-28.875-2.25-42.75-6.6562l-163.18 228.32-0.046875-0.046875c-3.7031 5.2031-9.2344 9.1875-15.984 10.781-14.719 3.4688-29.531-5.625-33-20.344l-32.859-137.58-145.55 48.797c-7.5938 3-16.453 2.5781-24.047-1.9219-13.078-7.7344-17.391-24.609-9.7031-37.641l132.19-223.6c-24.188-25.125-39.141-59.25-39.141-96.75v-79.453l-56.156-56.156c-27.188-27.188-40.734-62.953-40.734-98.766 0-35.766 13.594-71.578 40.734-98.766l56.156-56.156v-79.406c0-38.438 15.703-73.359 41.016-98.672s60.234-41.016 98.625-41.016zm143.34 811.36c-2.6719-2.25-5.25-4.6875-7.7344-7.2188l-56.156-56.156h-79.453c-19.594 0-38.297-4.0781-55.266-11.438l-92.578 156.66 105.38-35.297c14.344-4.7812 29.906 2.9531 34.734 17.297 0.375 1.1719 0.70312 2.3906 0.9375 3.6562l25.547 106.92 124.6-174.37zm380.58-74.812c-16.969 7.3594-35.672 11.438-55.266 11.438h-79.453l-56.156 56.156c-2.5312 2.5312-5.1094 4.9219-7.7344 7.2188l124.6 174.37 25.547-106.92c0.23438-1.1719 0.5625-2.3906 0.9375-3.6562 4.8281-14.344 20.391-22.125 34.734-17.297l105.38 35.297-92.578-156.66zm-405.32-351.19c-10.781-10.734-10.781-28.172 0-38.906 10.781-10.781 28.172-10.781 38.953 0l50.062 50.062 103.41-103.45c10.781-10.781 28.172-10.781 38.953 0s10.781 28.172 0 38.953l-122.9 122.9c-10.781 10.781-28.172 10.781-38.953 0l-69.562-69.562zm115.69-279.32c74.016 0 141 30 189.47 78.469 48.516 48.516 78.469 115.5 78.469 189.47 0 74.016-30 141-78.469 189.47-48.516 48.516-115.5 78.469-189.47 78.469-74.016 0-141-30-189.47-78.469-48.516-48.516-78.469-115.5-78.469-189.47s30-141 78.469-189.47c48.516-48.516 115.5-78.469 189.47-78.469zm150.52 117.42c-38.531-38.531-91.734-62.344-150.52-62.344s-111.98 23.812-150.52 62.344-62.344 91.734-62.344 150.52 23.812 112.03 62.344 150.52c38.531 38.531 91.734 62.344 150.52 62.344s111.98-23.812 150.52-62.344 62.344-91.734 62.344-150.52-23.812-111.98-62.344-150.52zm-294.05-168.37h-90.844c-23.203 0-44.344 9.5625-59.672 24.891s-24.891 36.469-24.891 59.719v90.844c0 7.0781-2.7188 14.109-8.0625 19.453l-64.219 64.219c-16.406 16.406-24.609 38.109-24.609 59.812s8.2031 43.359 24.609 59.812l63.984 63.984c5.1562 5.0156 8.2969 12 8.2969 19.734v90.844c0 23.203 9.5625 44.344 24.891 59.719 15.328 15.328 36.469 24.891 59.672 24.891h90.844c7.0781 0 14.062 2.7188 19.453 8.0625l64.219 64.219c16.406 16.406 38.109 24.609 59.812 24.609s43.359-8.2031 59.812-24.609l63.984-63.984c5.0156-5.1562 12-8.2969 19.734-8.2969h90.844c23.203 0 44.344-9.5625 59.672-24.891s24.891-36.469 24.891-59.719v-90.844c0-7.0781 2.7188-14.109 8.0625-19.453l64.219-64.219c16.406-16.406 24.609-38.109 24.609-59.812s-8.2031-43.359-24.609-59.812l-63.984-63.984c-5.1562-5.0156-8.2969-12-8.2969-19.734v-90.844c0-23.203-9.5625-44.391-24.891-59.719s-36.469-24.891-59.672-24.891h-90.844c-7.0781 0-14.062-2.7188-19.453-8.0625l-64.219-64.266c-16.406-16.406-38.109-24.609-59.812-24.609s-43.359 8.2031-59.812 24.609l-63.984 64.031c-5.0156 5.1562-12 8.2969-19.734 8.2969z"/>
</svg>
