<?xml version="1.0" encoding="UTF-8"?>
<svg width="1200pt" height="1200pt" version="1.1" viewBox="0 0 1200 1200" xmlns="http://www.w3.org/2000/svg">
 <path d="m863.16 104.67c15.703 66.422-25.453 133.03-91.875 148.69-66.422 15.703-133.03-25.453-148.69-91.875-15.703-66.422 25.453-132.98 91.875-148.69 66.422-15.703 132.98 25.453 148.69 91.875"/>
 <path d="m571.22 266.39c-148.82-44.391-266.44-14.391-319.22 3.6094-8.3906 2.3906-16.781 6-24 9.6094-3.6094 2.3906-6 3.6094-6 3.6094-51.609 28.781-91.219 86.391-99.609 169.22-9.6094 93.609 58.781 177.61 154.78 187.22 67.219 7.2188 130.78-24 165.61-76.781l40.781-92.391z"/>
 <path d="m1063.2 429.61c1.2188-32.391-24-56.391-56.391-60l-96-6c-21.609-1.2188-31.219-6-37.219-9.6094l-100.78-67.219c-4.7812-2.3906-7.2188-4.7812-10.781-6-52.781-21.609-110.39-20.391-165.61-9.6094l-54 126-43.219 99.609s0 1.2188-1.2188 1.2188c-51.609 139.22-25.219 211.22 15.609 249.61 12 15.609 31.219 25.219 51.609 25.219h231.61v220.78c0 36 27.609 68.391 64.781 69.609 37.219 1.2188 68.391-28.781 68.391-66v-290.44c0-37.219-30-66-66-66h-285.61c-6 0-10.781-4.7812-10.781-10.781s4.7812-10.781 9.6094-10.781h102c1.2188-2.3906 1.2188-3.6094 3.6094-7.2188l80.391-178.78 37.219 24c27.609 18 58.781 28.781 90 30l109.22 6c16.781 1.2188 33.609-6 45.609-18 11.953-12 19.125-28.828 17.953-45.609z"/>
 <path d="m699.61 795.61h-144c0 1.2188 0 1.2188 1.2188 2.3906l48 123.61-103.22 164.39c-19.219 31.219-10.781 72 20.391 91.219 10.781 7.2188 22.781 10.781 34.781 10.781 21.609 0 43.219-10.781 56.391-31.219l121.22-193.22c10.781-18 13.219-39.609 6-60z"/>
</svg>
