<?xml version="1.0" standalone="no"?>
<!DOCTYPE svg PUBLIC "-//W3C//DTD SVG 20010904//EN"
 "http://www.w3.org/TR/2001/REC-SVG-20010904/DTD/svg10.dtd">
<svg version="1.0" xmlns="http://www.w3.org/2000/svg"
 width="1536.000000pt" height="1339.000000pt" viewBox="0 0 1536.000000 1339.000000"
 preserveAspectRatio="xMidYMid meet">
<metadata>
Created by potrace 1.16, written by Peter Selinger 2001-2019
</metadata>
<g transform="translate(0.000000,1339.000000) scale(0.100000,-0.100000)"
fill="#000000" stroke="none">
<path d="M9007 13372 c-26 -29 -66 -125 -78 -186 -13 -74 1 -171 43 -286 41
-115 62 -198 92 -375 38 -219 36 -232 -30 -242 -156 -24 -513 -283 -585 -425
-34 -67 -7 -163 53 -194 44 -23 179 -14 313 20 64 17 128 26 177 26 l77 0 8
-37 c14 -68 8 -400 -11 -521 -18 -121 -58 -288 -72 -302 -5 -5 -34 -2 -64 6
-30 8 -84 14 -121 14 -36 0 -87 3 -113 6 -57 8 -58 18 -15 117 51 116 79 207
86 279 l6 68 -38 0 c-54 0 -117 -33 -158 -83 -19 -23 -77 -108 -130 -188 -107
-163 -145 -203 -204 -212 -22 -4 -67 -25 -100 -47 -65 -43 -83 -48 -83 -26 0
31 59 276 73 303 9 16 27 78 42 139 35 143 145 472 235 704 146 375 142 362
148 492 5 132 -3 165 -47 191 -49 29 -93 22 -150 -23 -64 -50 -100 -100 -157
-212 -88 -175 -143 -326 -404 -1103 -191 -571 -252 -735 -272 -735 -6 0 -8 6
-5 13 54 143 170 551 197 697 53 283 53 602 0 810 -10 41 -31 133 -45 204 -32
158 -61 232 -172 446 -169 325 -208 375 -256 322 -26 -28 -47 -88 -47 -131 0
-26 12 -63 36 -108 31 -59 37 -82 45 -168 11 -133 11 -603 -1 -790 -13 -213
-71 -511 -120 -622 -18 -40 -22 -45 -35 -32 -7 8 -48 95 -90 194 -127 299
-186 404 -350 624 -133 178 -261 301 -315 301 -36 0 -86 -56 -96 -107 -14 -73
19 -170 194 -573 178 -412 291 -771 292 -926 l0 -62 -57 -7 c-122 -14 -163
-39 -163 -97 0 -41 25 -98 107 -244 l73 -130 -40 -120 c-60 -176 -87 -286
-110 -451 -22 -160 -27 -183 -39 -183 -16 0 -53 305 -96 780 -40 440 -62 577
-165 990 -64 257 -99 341 -203 490 -67 96 -105 122 -172 118 -44 -3 -51 -6
-64 -32 -12 -25 -10 -53 18 -235 51 -334 72 -573 52 -585 -4 -3 -22 14 -39 38
-49 68 -99 112 -181 156 -123 67 -116 56 -114 168 2 53 10 153 19 222 15 117
25 173 88 460 14 63 46 219 71 345 25 127 57 282 70 345 14 64 30 188 36 280
14 194 7 221 -60 266 -35 22 -45 25 -65 16 -28 -12 -44 -52 -178 -437 -50
-143 -136 -379 -191 -525 -209 -559 -225 -607 -289 -872 -14 -59 -41 -78 -112
-78 -40 0 -90 -9 -143 -27 -69 -22 -84 -25 -98 -13 -8 7 -61 74 -117 149 -165
221 -260 303 -527 457 l-84 48 -103 1 c-96 0 -104 -2 -129 -25 -53 -50 -65
-97 -44 -173 12 -46 52 -86 155 -159 105 -73 256 -232 337 -354 98 -148 326
-578 314 -591 -3 -2 -46 3 -96 11 -118 21 -185 21 -205 0 -28 -27 -19 -88 25
-177 46 -93 140 -239 238 -372 199 -268 246 -363 340 -686 28 -97 51 -182 51
-188 0 -29 -20 -4 -58 72 -74 147 -279 436 -465 653 -111 130 -154 167 -260
224 -43 24 -83 52 -88 64 -14 33 -113 450 -159 671 -68 326 -163 653 -287 985
-78 210 -98 249 -221 450 -122 199 -198 310 -341 495 -173 223 -297 347 -452
449 -76 50 -113 55 -182 23 -126 -57 -114 -98 159 -539 541 -874 578 -948 683
-1388 51 -215 89 -407 107 -550 15 -124 19 -307 6 -328 -7 -10 -30 -6 -108 17
-156 47 -406 139 -423 156 -14 14 -16 57 -15 313 1 171 8 389 18 515 9 120 14
235 10 255 -9 51 -49 112 -75 112 -24 0 -110 -78 -151 -138 -17 -24 -41 -71
-55 -104 -30 -75 -141 -509 -153 -602 -11 -90 -19 -97 -77 -66 -100 53 -330
305 -449 494 -27 43 -83 130 -125 194 -42 65 -96 152 -120 196 -50 90 -72 109
-125 104 -30 -2 -42 -9 -55 -33 -39 -66 -52 -315 -25 -457 25 -131 148 -410
251 -568 76 -118 516 -572 650 -670 33 -24 61 -45 62 -45 2 -1 14 -82 28 -181
31 -214 54 -316 133 -574 84 -271 84 -273 65 -266 -8 3 -64 40 -123 81 -129
90 -269 162 -400 206 l-95 33 -415 7 c-341 5 -426 9 -475 23 -125 34 -267 100
-376 173 -89 59 -175 150 -296 313 -147 199 -235 271 -292 241 -28 -15 -73
-113 -79 -170 -7 -73 13 -145 73 -266 124 -249 357 -512 597 -673 224 -150
472 -272 723 -354 99 -32 184 -63 189 -68 11 -11 -30 -28 -165 -68 -138 -41
-223 -80 -449 -208 -134 -76 -219 -132 -301 -200 -63 -51 -160 -131 -216 -177
-130 -106 -241 -169 -370 -210 l-103 -32 0 -98 c0 -113 14 -154 64 -190 28
-20 42 -22 161 -22 123 0 135 2 220 34 50 19 151 54 225 78 74 25 196 70 270
100 368 150 424 163 740 170 260 6 352 -3 438 -42 65 -30 70 -56 15 -78 -54
-21 -207 -125 -276 -185 -109 -97 -230 -251 -320 -407 -52 -90 -222 -479 -296
-678 -94 -255 -153 -470 -154 -569 -1 -57 2 -71 22 -91 44 -48 157 -42 205 10
14 15 35 54 48 87 50 136 224 354 502 631 357 355 624 537 793 539 34 1 65 -2
69 -7 37 -37 -421 -630 -666 -859 -89 -85 -186 -157 -346 -258 -135 -85 -195
-176 -164 -250 24 -58 48 -65 225 -64 191 2 296 25 453 99 203 96 376 230 727
560 218 206 298 275 319 275 7 0 84 -131 171 -292 158 -290 262 -450 457 -706
123 -162 145 -240 183 -647 47 -517 42 -819 -18 -1020 -26 -87 -237 -271 -368
-320 -154 -58 -313 -141 -389 -202 -41 -34 -183 -168 -316 -300 -288 -284
-287 -283 -292 -452 -5 -139 10 -248 48 -363 58 -174 170 -362 253 -426 129
-100 403 -258 667 -386 146 -70 224 -100 465 -176 329 -104 292 -100 570 -61
83 11 209 24 280 27 123 6 133 5 198 -19 93 -36 232 -110 291 -154 28 -21 75
-71 105 -110 99 -128 309 -299 450 -365 47 -22 118 -49 156 -59 39 -11 117
-35 175 -54 58 -18 161 -45 228 -59 68 -15 134 -31 145 -37 12 -7 58 -46 102
-89 63 -61 98 -86 169 -119 49 -22 110 -54 135 -69 133 -82 260 -109 556 -118
184 -6 206 -5 282 15 58 15 113 21 185 21 95 0 110 3 188 36 47 19 227 71 400
115 173 44 337 91 365 104 27 13 95 56 150 95 55 39 136 88 180 110 92 45 239
90 297 90 48 0 201 -42 282 -78 l61 -27 430 0 c413 0 434 1 539 23 100 22 116
23 190 12 110 -17 245 -9 321 18 133 49 285 184 395 352 106 164 113 183 108
304 -10 209 -124 465 -476 1068 -394 676 -430 752 -492 1053 -41 199 -47 313
-26 495 36 307 109 778 147 939 11 47 45 208 75 356 31 152 64 290 76 315 29
60 216 246 348 347 255 195 496 515 579 770 37 112 55 149 80 163 31 16 73 11
116 -13 101 -57 212 -315 230 -537 7 -82 -7 -193 -51 -390 -30 -135 -54 -194
-139 -350 -186 -341 -211 -420 -164 -517 60 -124 137 -111 306 55 216 211 385
519 495 902 8 28 19 45 28 45 21 0 183 -328 270 -550 101 -253 237 -508 364
-679 102 -138 296 -295 438 -353 69 -28 157 -35 196 -14 51 27 9 150 -103 306
-106 147 -279 434 -365 605 -113 225 -196 484 -295 922 -38 170 -78 389 -71
395 6 7 124 -55 398 -208 549 -307 710 -371 936 -371 124 0 141 8 189 98 50
94 51 109 11 147 -48 45 -132 87 -278 140 -236 85 -251 94 -497 299 -134 112
-273 251 -379 381 -40 50 -45 60 -33 72 8 7 91 53 184 103 269 141 391 220
482 314 29 29 56 65 62 80 20 54 -25 139 -85 158 -45 15 -123 6 -167 -20 -56
-32 -150 -44 -372 -44 -348 0 -473 25 -690 138 -452 235 -646 343 -653 364
-10 30 171 74 388 93 124 12 150 11 315 -10 99 -12 248 -36 330 -53 206 -42
240 -46 396 -47 188 -1 392 16 462 40 148 50 354 194 598 419 113 104 134 140
126 216 -6 62 -21 94 -45 94 -9 0 -50 -23 -90 -50 -63 -43 -80 -50 -122 -50
-26 0 -67 -9 -92 -20 -152 -67 -623 -79 -958 -24 -61 10 -120 28 -165 49 -38
18 -158 66 -265 105 -205 76 -310 124 -310 140 0 26 348 213 510 275 117 45
327 100 439 116 96 14 244 7 371 -16 47 -8 115 -15 152 -15 57 0 71 4 97 25
31 27 71 117 71 162 0 39 -68 97 -211 177 -186 105 -240 123 -441 146 -295 34
-366 35 -513 10 -297 -50 -378 -82 -613 -239 -279 -187 -442 -329 -598 -522
-110 -135 -156 -171 -231 -177 -30 -3 -53 0 -53 5 0 5 37 62 83 125 98 136
141 216 192 355 20 56 42 109 48 117 7 9 140 77 297 152 302 145 363 180 460
270 197 183 446 639 548 1006 41 145 47 204 25 247 -24 47 -39 49 -53 7 -15
-46 -81 -120 -144 -160 -52 -33 -92 -78 -326 -366 -165 -202 -266 -309 -345
-365 -68 -48 -142 -88 -155 -83 -5 2 6 41 25 87 71 172 118 495 119 811 1 190
-1 210 -23 277 -25 77 -79 152 -99 139 -19 -12 -68 -115 -91 -191 -11 -39 -32
-135 -46 -215 -49 -287 -100 -446 -196 -613 -29 -51 -90 -159 -136 -242 -94
-169 -125 -205 -179 -205 l-37 0 7 128 c11 198 -20 499 -64 614 -34 89 -64
106 -115 66 -48 -38 -84 -158 -100 -343 -18 -196 -81 -496 -121 -577 -14 -27
-93 -98 -110 -98 -5 0 -24 73 -43 163 -39 190 -91 377 -128 460 -26 57 -59 87
-98 87 -20 0 -19 14 2 48 41 64 281 389 393 532 168 215 261 358 356 545 149
296 202 531 160 710 -18 76 -49 105 -111 105 -35 0 -52 -6 -80 -32 -43 -37
-61 -71 -114 -212 -57 -152 -110 -252 -216 -411 -121 -181 -201 -268 -474
-522 -307 -284 -321 -296 -328 -289 -4 3 11 63 31 134 151 506 168 592 170
852 1 194 -7 240 -45 260 -28 15 -36 13 -80 -27 -53 -48 -90 -124 -187 -383
-160 -428 -304 -741 -343 -747 -17 -3 -58 51 -135 176 -73 119 -76 144 -38
386 78 500 -7 939 -232 1199 l-49 58 -31 -36 c-18 -20 -34 -51 -38 -68 -3 -17
-1 -117 5 -222 13 -217 7 -448 -16 -616 -16 -112 -33 -160 -58 -160 -7 0 -44
24 -84 54 -122 92 -295 181 -485 250 l-48 18 -24 81 c-14 45 -48 165 -76 267
-66 235 -215 686 -240 728 -22 36 -40 40 -63 14z m602 -1785 c110 -61 220
-135 234 -158 7 -11 -1 -56 -28 -155 -53 -196 -77 -256 -147 -359 -79 -116
-209 -287 -215 -281 -2 2 1 30 7 63 26 129 23 540 -7 882 l-6 74 34 -7 c18 -3
76 -30 128 -59z m618 -710 c117 -172 96 -311 -82 -545 -41 -54 -142 -169 -225
-257 -83 -88 -168 -186 -188 -218 -20 -33 -62 -98 -94 -147 -31 -48 -77 -124
-102 -167 -49 -85 -86 -128 -86 -101 0 21 23 75 82 192 71 142 136 243 231
359 102 125 149 193 215 317 81 153 129 277 161 416 31 138 46 184 58 184 5 0
18 -15 30 -33z m-4571 -462 c51 -78 148 -347 250 -699 62 -212 77 -317 50
-351 -16 -20 -16 -20 -37 5 -39 46 -108 197 -143 312 -68 226 -175 711 -163
741 9 24 24 21 43 -8z m5701 -197 c-9 -318 -35 -485 -80 -520 -34 -27 -225
-124 -231 -118 -18 18 175 604 259 788 54 116 59 103 52 -150z m-2734 -57 c9
-9 -128 -161 -144 -161 -14 0 -11 124 4 143 23 33 114 44 140 18z m-607 -155
c11 -45 -28 -366 -45 -366 -4 0 -24 32 -45 71 -43 80 -44 110 -6 212 36 95 82
136 96 83z m-4937 -301 c25 -18 95 -59 154 -91 123 -66 159 -101 181 -175 22
-71 90 -509 81 -517 -11 -10 -95 87 -182 211 -157 224 -309 503 -320 589 -6
40 -6 40 17 28 13 -7 44 -27 69 -45z"/>
</g>
</svg>
