<?xml version="1.0" standalone="no"?>
<!DOCTYPE svg PUBLIC "-//W3C//DTD SVG 20010904//EN"
 "http://www.w3.org/TR/2001/REC-SVG-20010904/DTD/svg10.dtd">
<svg version="1.0" xmlns="http://www.w3.org/2000/svg"
 width="867.000000pt" height="1536.000000pt" viewBox="0 0 867.000000 1536.000000"
 preserveAspectRatio="xMidYMid meet">
<metadata>
Created by potrace 1.16, written by Peter Selinger 2001-2019
</metadata>
<g transform="translate(0.000000,1536.000000) scale(0.100000,-0.100000)"
fill="#000000" stroke="none">
<path d="M4635 15349 c-633 -34 -1512 -268 -2135 -567 -210 -101 -1048 -597
-1322 -783 -252 -171 -626 -541 -869 -858 -99 -129 -206 -293 -245 -374 -133
-281 -50 -563 205 -696 84 -44 146 -63 286 -87 50 -8 120 -29 157 -45 208 -91
607 -127 1248 -113 476 11 769 9 990 -6 247 -16 633 -50 639 -55 2 -3 -13 -87
-34 -188 -53 -254 -73 -363 -90 -502 -16 -128 -20 -272 -7 -292 13 -20 54 -30
172 -42 189 -19 198 -21 204 -38 14 -36 36 -280 47 -517 15 -309 3 -617 -40
-1046 -36 -360 -53 -591 -86 -1175 -38 -686 -56 -855 -92 -855 -3 0 -33 24
-67 54 -79 69 -169 126 -210 133 -36 6 -54 -13 -111 -110 l-28 -48 -31 29
c-17 16 -42 36 -56 45 -29 20 -89 22 -113 5 -22 -17 -33 -107 -47 -388 -19
-386 -43 -598 -80 -706 -18 -52 -57 -113 -181 -284 -133 -184 -196 -388 -155
-505 15 -45 15 -52 -4 -126 -11 -42 -24 -118 -29 -168 -5 -49 -15 -100 -21
-112 -13 -24 -10 -53 18 -154 11 -38 23 -92 27 -119 6 -45 5 -48 -12 -41 -38
15 -199 17 -464 6 -435 -19 -571 1 -718 106 l-24 18 7 -45 c20 -129 46 -167
105 -154 69 15 143 9 199 -15 28 -13 52 -30 52 -37 0 -15 -53 -44 -115 -64
-85 -27 -195 -96 -195 -122 0 -19 65 -1 116 31 50 32 191 81 233 81 18 0 22
-5 19 -27 -3 -26 -12 -31 -103 -63 -127 -45 -175 -73 -265 -155 -89 -82 -109
-91 -168 -70 -161 54 -116 -39 50 -106 85 -34 109 -58 81 -80 -12 -11 -69 -15
-232 -17 -200 -3 -221 -2 -273 18 -30 11 -68 32 -83 46 l-28 26 6 163 c7 159
4 195 -14 195 -10 0 -20 -37 -55 -200 -14 -69 -29 -131 -33 -138 -10 -18 -68
49 -123 141 -44 74 -70 97 -106 97 -27 0 -68 20 -131 65 -57 41 -85 50 -99 32
-17 -20 18 -69 77 -107 52 -34 81 -72 142 -188 30 -58 39 -67 113 -110 90 -51
211 -165 222 -209 6 -22 2 -31 -27 -56 -58 -49 -145 -87 -212 -94 -77 -7 -217
10 -350 42 -115 28 -151 31 -145 13 6 -18 92 -64 156 -85 28 -9 52 -20 52 -24
0 -4 -36 -19 -80 -34 -82 -27 -131 -57 -117 -71 13 -13 99 -6 193 16 47 11
154 32 238 45 83 14 166 28 185 31 l35 6 -55 -43 c-166 -131 -289 -317 -306
-463 -9 -73 12 -57 74 55 77 139 103 179 152 232 48 51 77 62 65 25 -3 -13
-47 -106 -96 -208 -114 -235 -132 -280 -114 -280 15 0 62 34 89 65 9 11 40 57
68 103 59 96 79 105 79 33 0 -32 8 -64 25 -95 14 -26 25 -49 25 -51 0 -13 -37
-36 -73 -46 -23 -6 -82 -28 -132 -49 -49 -20 -128 -50 -175 -65 -87 -28 -197
-78 -215 -97 -7 -7 15 -9 75 -5 96 6 167 28 345 107 137 61 183 70 220 46 26
-17 27 -17 64 17 41 37 148 93 158 83 10 -10 -23 -105 -57 -164 -17 -29 -45
-62 -63 -73 -50 -31 -202 -76 -317 -93 -193 -31 -235 -39 -296 -57 -79 -24
-90 -38 -69 -78 18 -35 20 -36 55 -16 36 21 46 18 45 -12 0 -46 37 -42 95 10
52 47 132 77 203 77 20 0 54 6 74 14 24 9 88 16 173 19 124 3 141 6 213 35 43
18 85 32 93 32 35 0 6 -61 -76 -160 -21 -25 -93 -126 -160 -225 -67 -99 -138
-197 -156 -218 -32 -35 -44 -67 -25 -67 14 0 61 39 144 118 43 41 80 72 83 69
4 -3 -15 -39 -40 -79 -68 -105 -75 -148 -19 -113 73 46 104 89 133 185 9 30
37 85 62 122 64 93 102 202 123 352 8 56 41 96 79 96 35 0 51 -20 76 -95 19
-56 25 -65 46 -65 13 0 32 -8 42 -18 24 -24 114 -266 110 -294 -4 -29 -63 -59
-118 -60 -45 0 -70 15 -70 43 0 11 -2 19 -4 19 -2 0 -23 -20 -47 -44 -47 -46
-120 -79 -202 -91 -26 -4 -47 -11 -47 -15 0 -4 46 -29 103 -56 100 -48 104
-49 192 -48 132 2 645 109 783 163 29 12 54 21 55 21 1 0 0 -42 -2 -92 -1 -51
2 -152 9 -223 11 -124 11 -133 -9 -193 -25 -73 -48 -111 -121 -202 -58 -73
-90 -129 -90 -160 0 -66 -81 -129 -177 -137 -44 -3 -79 2 -143 21 -236 72
-338 82 -382 38 l-21 -21 24 -5 c13 -3 69 -14 124 -25 55 -12 134 -30 175 -41
41 -11 114 -25 162 -32 48 -6 93 -15 99 -19 26 -15 -44 -96 -190 -220 -36 -30
-88 -83 -117 -118 -51 -61 -82 -121 -64 -121 5 0 38 24 73 53 36 28 118 95
183 148 123 100 146 125 183 196 28 57 131 165 206 218 48 34 125 79 196 113
3 1 9 -41 13 -94 7 -96 26 -164 46 -164 6 0 24 7 40 15 37 19 39 51 10 125
-38 96 -19 180 39 180 32 0 99 -44 154 -102 45 -47 80 -50 85 -6 3 22 -8 38
-55 82 -36 35 -54 59 -48 65 6 5 49 25 96 44 47 20 115 52 152 72 69 38 87 39
87 2 0 -33 78 -181 130 -245 25 -31 93 -93 150 -137 245 -187 384 -368 490
-637 95 -241 167 -357 208 -332 28 18 26 44 -8 85 -44 55 -116 213 -129 281
-18 98 -55 167 -184 336 -38 51 -68 94 -65 97 10 10 95 -54 134 -101 58 -69
102 -141 169 -273 31 -63 76 -146 100 -185 23 -39 74 -134 112 -211 81 -163
93 -183 112 -190 26 -10 30 10 15 70 -21 81 -59 160 -137 288 -36 59 -82 151
-103 205 -20 53 -53 121 -73 150 -55 80 -101 155 -101 164 0 15 85 7 127 -12
48 -21 83 -69 153 -210 50 -101 109 -161 206 -210 52 -27 80 -35 122 -35 124
0 93 66 -132 279 -235 221 -282 271 -332 355 -55 90 -105 156 -213 281 -134
155 -189 251 -216 377 -24 113 -17 237 21 354 16 50 79 118 165 177 l46 31 92
-125 c134 -185 186 -302 167 -378 -3 -13 -42 -63 -85 -110 -89 -96 -134 -176
-129 -228 5 -56 28 -39 58 45 27 77 48 110 84 129 24 13 56 -15 41 -36 -81
-109 -132 -217 -119 -251 12 -29 48 19 99 130 26 58 52 105 56 105 11 0 16
-24 27 -130 l8 -85 24 50 c19 42 37 138 39 218 1 29 35 20 97 -26 63 -46 116
-106 181 -202 23 -34 48 -67 57 -74 17 -14 19 -8 30 74 3 22 8 54 12 72 6 29
3 34 -34 57 -32 20 -45 37 -62 83 -12 32 -46 104 -75 159 l-54 102 37 40 c37
40 149 102 184 102 22 0 44 -42 51 -97 5 -46 55 -125 94 -151 37 -24 39 7 5
85 -37 84 -45 114 -33 132 6 10 42 17 111 22 115 9 161 29 67 29 -61 0 -112
16 -140 44 -26 26 -21 34 26 47 57 15 155 5 181 -20 40 -37 126 -55 142 -29
12 19 -28 42 -146 82 l-112 39 23 18 c60 47 118 45 244 -8 237 -100 346 -253
424 -596 l32 -139 -35 -176 c-20 -97 -42 -217 -51 -267 -19 -107 -32 -355 -19
-355 5 0 23 26 41 58 17 31 53 82 81 113 27 31 65 85 85 120 42 76 72 106 118
119 45 13 109 13 109 0 0 -6 -17 -33 -39 -60 -75 -95 -109 -195 -118 -354 -5
-74 -3 -97 5 -92 7 4 12 13 12 20 0 7 37 68 81 137 118 180 138 218 160 309
37 155 89 250 138 250 53 0 157 -101 209 -205 28 -57 61 -220 71 -352 4 -62
11 -116 15 -120 18 -19 34 34 41 137 8 128 18 137 60 55 28 -56 75 -105 101
-105 31 0 13 57 -47 151 -67 105 -180 306 -204 362 -14 33 -14 37 0 37 9 0 50
-20 93 -44 114 -66 187 -88 317 -93 61 -3 121 -1 135 5 23 8 21 10 -32 30 -31
12 -87 26 -125 33 -142 23 -263 64 -263 89 0 18 72 22 203 11 138 -13 263 -36
272 -52 11 -17 53 -10 60 11 15 48 -31 80 -145 100 -36 6 -82 16 -103 21 -33
9 -37 12 -26 26 16 19 155 113 167 113 4 0 21 -14 37 -30 54 -56 96 -25 51 39
-24 33 -25 37 -10 59 21 33 14 44 -49 80 -93 53 -134 122 -77 131 42 6 154
-19 192 -42 65 -41 144 -152 280 -396 41 -73 87 -149 102 -167 44 -56 75 -40
76 38 0 24 4 27 43 30 34 2 42 7 42 23 0 19 -9 26 -98 65 -65 30 -129 95 -166
170 -17 34 -39 74 -50 88 -10 15 -30 60 -45 99 -14 40 -35 92 -47 115 -29 58
-102 151 -133 172 -43 28 -29 56 29 56 33 0 362 -99 535 -160 168 -60 185 -63
185 -35 0 13 -21 32 -66 60 -75 46 -111 58 -219 74 -97 15 -232 49 -245 62
-15 16 31 49 69 49 57 0 210 -31 251 -51 22 -10 55 -30 74 -44 65 -48 207 -72
219 -37 8 26 -238 117 -405 149 -64 12 -146 17 -298 17 -115 1 -216 5 -222 9
-34 22 16 101 87 137 20 10 119 34 221 53 196 37 239 49 239 68 0 16 -259 4
-354 -16 -38 -8 -71 -13 -74 -11 -2 2 50 51 115 107 152 133 225 207 220 222
-4 15 -41 21 -74 12 -14 -3 -57 -36 -96 -73 -84 -79 -137 -117 -227 -162 -36
-18 -86 -50 -112 -71 -68 -57 -111 -73 -154 -59 -40 14 -50 28 -59 95 -4 28
-11 60 -16 72 -13 34 -139 107 -156 89 -3 -3 16 -31 42 -63 26 -32 54 -73 62
-92 13 -30 13 -36 -1 -49 -14 -14 -23 -14 -93 1 -97 21 -161 59 -191 115 -23
42 -61 236 -48 249 11 11 50 -13 119 -76 73 -66 103 -78 93 -36 -5 21 5 37 65
102 40 43 81 98 92 123 45 105 94 128 224 106 101 -18 143 -20 143 -7 0 18
-43 40 -212 112 -165 70 -169 72 -237 145 -78 81 -108 129 -89 140 6 4 44 9
83 12 64 4 80 1 136 -24 59 -27 73 -29 170 -27 58 1 125 6 147 13 36 9 42 15
42 37 l0 26 -92 -7 c-51 -3 -113 -9 -138 -12 -44 -6 -46 -5 -109 53 l-64 59
84 66 c96 75 116 95 121 123 4 28 -30 23 -82 -11 -23 -15 -54 -27 -71 -26 -31
1 -102 48 -153 101 l-29 30 21 68 c12 37 24 86 28 108 3 22 10 54 15 72 l10
31 82 -1 c64 -1 103 5 176 27 159 48 256 28 437 -91 90 -58 264 -218 318 -291
48 -66 80 -164 71 -221 -8 -55 -49 -147 -100 -227 -21 -32 -53 -90 -71 -129
-18 -38 -50 -96 -70 -127 -36 -57 -40 -88 -9 -88 15 0 25 13 115 150 27 41 64
95 81 119 18 25 52 87 75 139 47 105 44 106 58 -22 6 -47 20 -76 37 -76 12 0
29 68 29 117 0 92 19 94 130 14 208 -148 210 -152 249 -473 12 -91 26 -179 32
-195 13 -34 38 -63 55 -63 23 0 24 35 4 114 -12 43 -27 141 -36 218 -8 77 -19
158 -25 181 -6 23 -13 57 -16 75 -5 30 -3 32 25 32 41 0 90 -22 215 -97 128
-77 221 -113 297 -112 l55 0 -25 21 c-14 12 -72 44 -130 71 -58 28 -134 69
-170 92 -36 23 -85 52 -110 65 -77 39 -131 72 -126 78 3 3 37 -5 74 -18 38
-13 76 -20 86 -17 49 19 15 79 -75 132 -77 45 -100 50 -154 35 -44 -12 -45
-12 -141 41 -97 54 -144 96 -144 129 0 52 95 53 160 1 42 -33 50 -37 50 -21 0
21 -54 57 -152 100 -56 25 -103 51 -106 58 -2 7 12 19 34 28 21 9 63 33 93 53
66 45 103 57 191 66 91 9 130 21 246 71 113 49 126 50 236 29 83 -16 111 -12
106 14 -6 31 -95 64 -183 69 -80 4 -82 4 -211 -52 -133 -57 -174 -67 -174 -42
0 29 69 113 124 150 64 43 63 61 -3 71 -73 12 -82 16 -91 41 -13 32 -33 39
-71 24 -37 -16 -49 -37 -49 -87 0 -66 -20 -116 -64 -159 -60 -60 -97 -68 -242
-49 -124 16 -333 53 -346 61 -12 7 7 38 82 139 82 109 93 130 120 231 22 85
45 258 36 273 -4 5 -29 3 -59 -4 -77 -20 -224 -33 -582 -50 -372 -17 -422 -21
-571 -41 l-111 -15 -61 25 c-34 14 -76 26 -94 26 -42 0 -273 -53 -324 -75 -75
-31 -164 -136 -164 -192 0 -53 -15 -73 -55 -73 -75 0 -185 63 -185 105 0 13 5
27 11 31 6 3 57 6 114 5 57 0 106 3 109 8 11 17 -5 40 -35 50 -16 5 -29 15
-29 20 0 6 -11 11 -25 11 -37 0 -31 13 28 65 28 26 56 53 60 61 4 8 1 37 -8
66 -23 80 -20 118 16 161 30 37 30 37 24 129 -6 86 -4 99 24 181 l30 88 -34
71 c-19 40 -37 86 -40 103 -2 16 -16 109 -31 205 l-27 175 22 85 c20 76 21 93
11 155 -17 107 -99 460 -127 544 -61 187 -165 314 -212 257 -6 -7 -26 -53 -44
-101 -18 -49 -37 -90 -43 -92 -6 -2 -14 11 -18 29 -3 17 -3 338 0 712 4 407 2
1118 -6 1766 -13 1127 -11 1225 26 1304 22 44 54 62 144 75 90 14 128 35 155
83 21 40 23 25 -30 293 -51 260 -82 369 -169 591 -94 241 -126 330 -126 350 0
21 31 33 165 59 232 46 554 164 820 300 251 128 387 215 720 463 77 57 192
138 255 179 221 145 246 163 330 239 62 56 108 87 170 116 230 107 804 558
899 707 118 186 68 514 -108 703 -101 110 -370 268 -631 371 -455 180 -1155
296 -1975 327 -305 11 -899 11 -1110 -1z m2365 -10778 c0 -16 -93 -93 -135
-112 -40 -18 -196 -52 -315 -69 -55 -8 -70 -6 -105 10 -49 23 -66 37 -88 71
-20 30 -14 54 17 71 43 23 626 50 626 29z m-4669 -11 c22 -12 26 -45 6 -53 -7
-3 -24 -3 -38 -1 -13 2 -45 6 -71 9 -56 7 -61 20 -15 40 38 17 91 19 118 5z
m5082 4 c12 -12 -22 -62 -65 -97 -98 -80 -264 -157 -436 -204 -135 -36 -336
-35 -349 3 -5 14 375 197 542 261 86 33 288 57 308 37z m-4831 -31 c11 -10 18
-30 18 -55 0 -32 -3 -38 -20 -38 -12 0 -40 18 -63 39 -41 39 -42 40 -22 55 26
20 64 20 87 -1z m-557 -78 c20 -19 25 -34 25 -73 0 -26 -6 -57 -14 -68 -14
-18 -17 -17 -65 33 -78 81 -82 133 -11 133 30 0 47 -7 65 -25z m3751 -27 c-9
-45 -47 -120 -68 -132 -23 -14 -58 18 -58 53 0 36 24 67 68 91 55 28 66 26 58
-12z m452 20 c7 -7 12 -24 12 -40 0 -32 -28 -51 -68 -46 -35 4 -40 35 -12 71
23 29 49 34 68 15z m-4047 -33 c151 -77 409 -237 409 -255 0 -15 -76 -12 -232
10 -174 25 -244 44 -258 70 -17 32 -12 210 6 210 3 0 36 -16 75 -35z m3747 13
c16 -16 15 -93 -1 -106 -18 -15 -130 -32 -141 -21 -13 11 8 79 35 113 15 20
29 26 58 26 20 0 42 -5 49 -12z m1512 -41 c0 -28 -29 -75 -101 -163 -66 -82
-111 -121 -143 -130 -13 -3 -53 7 -96 25 -41 17 -110 38 -152 48 -43 10 -78
20 -78 23 0 3 26 11 58 18 62 13 195 74 316 144 134 79 196 90 196 35z m-992
-53 c47 -41 39 -56 -50 -99 l-73 -35 -3 82 c-2 46 0 93 3 106 l6 23 41 -23
c22 -13 56 -37 76 -54z m-1050 -46 c51 -35 54 -61 10 -88 -44 -26 -64 -25 -95
6 -22 22 -25 31 -19 71 10 73 12 73 104 11z m-3570 -2 c31 -16 66 -53 75 -78
4 -11 -3 -24 -21 -39 -35 -28 -104 -21 -182 18 -77 39 -78 72 -4 98 51 18 98
19 132 1z m4070 -28 c7 -7 12 -24 12 -38 0 -34 -17 -50 -52 -50 -51 0 -77 81
-30 93 33 9 58 7 70 -5z m697 -82 c130 -23 142 -33 73 -61 -91 -36 -190 -28
-245 20 l-28 24 35 15 c44 19 66 19 165 2z m-1010 -47 l39 -11 -27 -15 c-39
-20 -119 -28 -145 -14 -31 16 -27 29 11 40 44 13 75 13 122 0z m188 -51 c11
-13 17 -34 15 -52 -3 -27 -8 -31 -46 -39 -43 -8 -108 0 -166 23 l-28 10 42 31
c87 63 146 72 183 27z m-5259 -3 c30 -33 39 -64 20 -72 -27 -10 -84 63 -68 88
9 15 24 10 48 -16z m5826 -2 c20 -25 22 -36 17 -107 -7 -107 -45 -184 -101
-205 -37 -14 -40 -14 -57 8 -14 18 -19 41 -20 95 0 39 -4 80 -8 91 -7 16 -11
11 -24 -30 -9 -28 -19 -72 -23 -98 -3 -27 -12 -54 -19 -60 -10 -10 -8 -18 11
-40 28 -33 30 -54 10 -102 -18 -41 -43 -45 -86 -15 -37 26 -110 136 -110 165
0 33 33 59 65 51 20 -5 25 -4 19 6 -4 7 -21 33 -36 57 -49 79 -27 153 50 167
20 3 64 14 97 24 33 11 90 19 127 19 61 1 68 -1 88 -26z m-4105 -53 c0 -31
-29 -39 -56 -14 -32 29 -24 46 19 42 32 -3 37 -6 37 -28z m-191 -46 c25 -10
20 -44 -6 -44 -32 0 -52 15 -45 34 7 17 24 20 51 10z m3360 -33 c16 -17 36
-138 36 -218 l0 -33 -75 0 c-86 0 -132 16 -163 55 -25 32 -28 65 -8 103 16 29
69 83 101 100 32 18 90 14 109 -7z m2246 -5 c115 -13 134 -20 122 -41 -13 -25
-75 -65 -99 -65 -37 0 -98 36 -132 77 -35 42 -39 58 -13 48 9 -4 64 -12 122
-19z m-5991 5 c33 -21 -97 -59 -143 -41 -37 14 -33 38 7 43 62 7 122 7 136 -2z
m3921 -6 c72 -13 194 -60 221 -86 73 -68 -9 -179 -131 -179 -64 0 -129 20
-142 43 -6 11 -17 65 -24 120 -15 105 -11 122 26 113 8 -3 31 -7 50 -11z
m-454 -64 c-3 -22 -10 -51 -16 -66 -8 -22 -14 -24 -37 -19 -39 10 -75 29 -96
52 -17 19 -16 20 50 45 98 37 107 36 99 -12z m-4142 -26 c76 -8 143 -18 148
-23 15 -15 -15 -31 -91 -47 -100 -21 -169 -19 -208 5 -51 30 -58 99 -9 86 11
-4 84 -13 160 -21z m1556 -10 c10 -12 3 -24 -41 -70 l-54 -55 -47 30 c-76 48
-67 65 52 104 31 10 78 5 90 -9z m-650 -29 c0 -15 -67 -73 -124 -107 -27 -15
-40 -19 -48 -11 -18 18 24 84 68 109 44 26 104 31 104 9z m1041 -51 c16 -9 87
-35 157 -59 70 -23 129 -45 132 -49 6 -7 -92 -92 -129 -111 -53 -28 -117 -24
-169 12 -103 68 -155 206 -89 231 23 9 45 3 98 -24z m-593 -22 c17 -13 32 -28
32 -32 0 -5 -21 -22 -47 -38 -27 -16 -93 -57 -148 -91 -103 -64 -129 -73 -139
-47 -7 20 79 121 163 193 69 58 79 60 139 15z m2571 -10 c100 -49 141 -89 141
-137 0 -47 -26 -174 -45 -220 -21 -49 -35 -55 -59 -21 -12 15 -58 71 -104 124
-80 93 -142 179 -155 213 -7 20 26 66 57 79 32 13 84 1 165 -38z m-3519 -33
c9 -36 26 -81 38 -100 43 -69 20 -140 -46 -140 -48 0 -145 25 -177 46 -17 11
-36 14 -68 9 -40 -6 -48 -4 -81 25 -20 18 -36 38 -36 45 0 20 131 139 181 163
34 18 58 22 108 20 l65 -3 16 -65z m170 -1 c14 -50 6 -90 -27 -148 -24 -41
-27 -43 -39 -26 -7 10 -18 41 -25 70 -14 63 0 116 34 133 37 18 46 14 57 -29z
m1262 -124 c32 -49 58 -99 58 -111 0 -32 -54 -74 -96 -74 -47 0 -129 78 -139
133 -9 48 10 120 43 159 l25 29 25 -23 c14 -13 51 -63 84 -113z m-258 106 c8
-13 -18 -94 -31 -98 -18 -6 -53 34 -53 60 0 13 5 28 12 35 14 14 64 16 72 3z
m3810 -11 c5 -5 11 -33 14 -63 4 -50 2 -55 -28 -81 -30 -25 -180 -106 -196
-106 -24 0 80 239 112 259 20 12 83 6 98 -9z m-1793 -66 c27 -60 20 -78 -27
-71 -80 13 -106 58 -58 96 42 33 62 27 85 -25z m771 6 c49 -5 92 -12 98 -15 5
-3 10 -20 10 -37 0 -46 25 -88 90 -153 l59 -58 -34 -66 c-67 -132 -119 -181
-193 -181 -80 0 -279 80 -308 125 -14 22 -15 37 -4 132 14 124 44 253 63 265
12 9 41 7 219 -12z m-2852 -68 c35 -54 36 -65 10 -167 -27 -106 -60 -175 -110
-229 -47 -51 -74 -62 -177 -70 l-71 -6 -22 73 c-13 39 -27 104 -33 144 -13 88
-4 112 55 149 61 39 133 87 206 139 61 43 64 44 87 29 13 -9 38 -36 55 -62z
m3271 51 c19 -19 2 -59 -54 -126 -35 -41 -62 -63 -79 -65 -46 -6 -118 74 -118
130 0 32 25 66 53 71 42 10 186 2 198 -10z m147 -71 c34 -81 32 -119 -8 -166
-56 -63 -145 -81 -192 -39 -36 32 -19 75 79 201 61 79 66 82 83 67 10 -9 27
-37 38 -63z m-4942 22 c21 -14 50 -36 64 -48 52 -47 98 -72 184 -101 49 -16
91 -35 93 -40 2 -6 -22 -30 -53 -55 -31 -25 -99 -92 -151 -150 -197 -220 -301
-283 -376 -227 -30 21 -48 111 -54 272 -6 148 -6 151 21 203 51 100 134 171
202 172 18 0 48 -11 70 -26z m3434 -79 c52 -29 147 -78 210 -108 128 -62 294
-168 304 -193 19 -50 -103 -198 -207 -249 -52 -25 -65 -27 -130 -22 -85 6
-138 23 -269 84 l-98 46 1 156 c1 218 11 330 29 341 23 14 57 2 160 -55z
m-981 26 c30 -30 35 -77 36 -301 l0 -205 -48 -3 c-88 -6 -218 52 -238 105 -7
19 -5 41 7 82 21 74 126 293 153 320 26 26 65 27 90 2z m-429 -36 c16 -20 1
-39 -26 -33 -27 5 -32 48 -6 48 11 0 25 -7 32 -15z m-310 -49 c6 -8 10 -25 8
-38 -2 -17 -10 -23 -28 -23 -18 0 -26 6 -28 23 -3 22 13 52 28 52 4 0 13 -7
20 -14z m3338 -36 c4 -56 -20 -76 -53 -44 -19 20 -13 62 13 82 26 19 37 9 40
-38z m-4004 8 c16 -25 51 -148 60 -213 9 -57 -3 -70 -46 -56 -39 13 -122 63
-155 94 -41 37 -25 157 24 186 10 6 37 11 60 11 33 0 46 -5 57 -22z m1686 -8
c15 -21 30 -30 49 -30 38 0 54 -22 55 -73 1 -57 -21 -105 -56 -123 -26 -14
-30 -13 -52 9 -17 17 -27 47 -40 120 -10 54 -15 104 -12 112 9 24 33 17 56
-15z m-158 -41 c32 -63 36 -124 12 -175 -32 -66 -42 -39 -58 160 -8 94 4 98
46 15z m2636 -33 c4 -32 -19 -43 -54 -28 -29 14 -33 56 -6 71 24 14 56 -9 60
-43z m-3224 1 c20 -15 35 -77 36 -149 0 -55 -7 -78 -25 -78 -25 0 -155 193
-155 230 0 15 123 13 144 -3z m2774 -18 c28 -5 58 -16 68 -24 32 -23 -2 -45
-89 -58 -111 -16 -142 2 -117 67 8 22 16 26 49 26 22 0 62 -5 89 -11z m-2958
-19 c10 -5 42 -47 69 -92 28 -46 65 -100 82 -120 37 -43 32 -58 -19 -58 -40 0
-75 -18 -153 -80 -28 -22 -60 -40 -70 -40 -43 0 -80 157 -64 272 13 90 93 151
155 118z m3250 -19 c5 -11 10 -33 10 -50 0 -25 -5 -32 -27 -37 -35 -9 -56 19
-47 61 3 16 8 33 11 38 8 14 42 7 53 -12z m-4372 -46 c27 -27 42 -49 36 -54
-8 -8 -108 -41 -124 -41 -16 0 -50 43 -50 64 0 29 45 76 73 76 11 0 40 -20 65
-45z m4466 29 c22 -21 20 -41 -4 -49 -24 -8 -50 10 -50 35 0 33 28 41 54 14z
m-4754 -127 c0 -102 -23 -248 -51 -322 -21 -56 -47 -75 -84 -61 -42 16 11 254
96 429 12 25 26 44 31 41 4 -3 8 -42 8 -87z m4905 75 c45 -28 166 -223 173
-278 6 -56 -25 -107 -94 -152 -57 -39 -87 -40 -130 -7 -59 45 -214 300 -214
352 0 17 7 24 28 28 15 4 61 22 102 41 87 39 95 40 135 16z m-2364 -49 c5 -15
9 -47 7 -72 -2 -38 -7 -47 -24 -49 -24 -3 -64 39 -64 69 0 19 46 79 61 79 5 0
14 -12 20 -27z m1829 -8 c21 -25 -1 -37 -78 -43 -81 -5 -122 2 -122 23 0 24
32 34 111 35 57 0 80 -4 89 -15z m-4169 -57 c31 -28 37 -63 16 -92 -30 -41
-95 28 -105 110 l-5 47 33 -19 c18 -10 45 -31 61 -46z m998 9 c10 -31 51 -221
51 -238 0 -14 -40 -30 -60 -24 -24 8 -40 80 -40 186 0 113 25 152 49 76z
m-1329 -3 c0 -52 -59 -313 -81 -355 -19 -38 -56 -60 -152 -93 -97 -33 -114
-15 -69 72 17 32 40 87 52 123 26 76 84 191 109 213 19 17 122 76 134 76 4 0
7 -16 7 -36z m3850 -98 c22 -44 30 -72 30 -113 0 -49 -4 -58 -38 -95 -33 -35
-45 -41 -90 -46 -61 -5 -72 8 -52 67 11 33 10 42 -9 77 -12 21 -21 46 -21 55
0 26 28 99 57 148 l26 45 33 -40 c18 -21 47 -66 64 -98z m-3139 88 c42 -25 48
-49 18 -73 -22 -18 -22 -18 40 -24 69 -8 109 -23 125 -49 8 -14 4 -24 -24 -53
-59 -61 -130 -68 -130 -13 0 24 -23 70 -44 87 -21 18 -20 3 4 -44 36 -70 24
-134 -37 -196 -45 -47 -30 -57 28 -18 24 16 51 29 60 29 19 0 71 -55 93 -97
27 -54 21 -76 -43 -146 -33 -36 -95 -112 -140 -170 -114 -148 -162 -187 -231
-187 -48 0 -72 29 -82 100 -6 50 -15 71 -37 95 -25 26 -30 40 -35 110 -4 44
-19 120 -33 168 -35 122 -22 180 52 246 44 38 50 38 72 4 9 -16 18 -30 20 -32
3 -5 105 48 125 66 16 14 16 17 -5 44 -15 21 -22 48 -25 94 -4 60 -3 65 19 75
39 17 171 6 210 -16z m3393 -19 c48 -8 90 -16 93 -19 9 -8 -15 -42 -56 -79
-100 -90 -200 -61 -201 59 0 48 16 67 50 58 14 -3 65 -12 114 -19z m356 -10
c15 -18 7 -53 -20 -88 -14 -18 -34 -28 -65 -33 -55 -8 -119 6 -123 28 -4 21
45 78 83 94 41 18 110 18 125 -1z m135 -12 c7 -20 -44 -73 -70 -73 -18 0 -20
42 -5 71 14 25 65 26 75 2z m-4308 -112 c5 -19 -1 -31 -30 -58 -20 -18 -46
-33 -57 -33 -37 0 -40 83 -6 164 l16 39 35 -44 c20 -24 38 -55 42 -68z m1731
83 c42 -17 37 -38 -11 -42 -39 -3 -77 24 -77 54 0 18 25 15 88 -12z m-265 -41
c19 -11 -18 -33 -57 -33 -46 0 -94 24 -66 33 8 3 22 8 30 11 15 5 79 -2 93
-11z m3022 -12 c37 -21 77 -78 73 -106 -2 -13 -12 -21 -30 -23 -27 -3 -27 -4
-12 -27 24 -37 30 -139 10 -170 -15 -23 -15 -26 4 -45 22 -22 35 -63 26 -85
-4 -12 -25 -15 -100 -15 -91 0 -97 1 -129 29 -32 29 -34 29 -45 10 -21 -33
-49 -21 -125 49 -40 37 -97 83 -125 102 -67 45 -71 58 -31 93 63 52 110 32
192 -80 17 -24 32 -41 34 -40 2 2 -3 22 -11 45 -16 46 -16 46 32 57 l34 7 -51
31 c-72 44 -82 87 -21 87 24 0 35 8 54 38 43 68 142 87 221 43z m-2262 -10
c29 -35 53 -119 38 -134 -11 -11 -66 30 -93 72 -18 26 -24 72 -11 84 14 15 43
5 66 -22z m-1314 -113 c1 -42 -17 -52 -80 -46 -42 4 -41 19 3 116 l31 67 23
-50 c12 -27 23 -67 23 -87z m643 47 c7 -27 -6 -153 -18 -164 -12 -12 -200 29
-252 55 -103 52 -74 83 110 114 61 11 113 22 116 25 14 13 36 -2 44 -30z m874
0 c90 -45 125 -75 182 -159 51 -76 51 -76 262 -174 69 -32 133 -66 143 -76 23
-24 22 -81 -3 -106 -26 -26 -162 -94 -229 -114 -132 -39 -221 -3 -221 89 0 33
-31 95 -83 163 -39 51 -42 60 -53 159 -13 115 -21 131 -75 142 -31 6 -34 10
-37 45 -7 78 12 83 114 31z m-403 -37 c24 -32 17 -78 -12 -78 -26 0 -71 38
-71 60 0 24 28 52 48 48 8 -2 24 -15 35 -30z m2017 -13 c-27 -29 -97 -65 -126
-65 -34 0 -57 24 -49 49 9 31 37 40 124 40 l74 1 -23 -25z m-2334 0 c28 -8 61
-26 74 -40 l24 -25 -17 -104 c-9 -57 -17 -119 -17 -137 0 -59 -10 -60 -85 -10
-48 32 -71 55 -73 71 -4 21 -1 23 37 17 23 -3 41 -3 41 0 0 3 -13 20 -29 39
-45 50 -62 125 -41 178 11 30 19 31 86 11z m-1042 -11 c52 -51 -31 -126 -114
-104 -22 6 -40 17 -40 24 0 22 41 67 74 82 41 18 61 17 80 -2z m1534 -38 c38
-57 43 -109 13 -126 -37 -19 -81 -12 -112 19 -35 36 -38 81 -9 129 30 49 65
42 108 -22z m597 -7 c113 -42 186 -113 144 -140 -68 -43 -311 90 -285 157 7
19 62 12 141 -17z m-1430 -82 c28 -8 69 -20 93 -26 52 -14 54 -30 11 -94 -66
-101 -154 -157 -244 -157 -67 0 -97 51 -55 95 19 20 19 24 6 91 -8 38 -17 97
-21 132 l-7 63 83 -45 c46 -24 107 -51 134 -59z m1716 43 c10 -6 19 -17 19
-25 0 -18 -39 -45 -66 -45 -25 0 -58 44 -50 66 6 17 68 19 97 4z m634 -41 c20
-18 47 -51 61 -75 43 -73 92 -226 108 -336 19 -124 25 -143 104 -308 149 -314
254 -667 220 -737 -18 -37 -59 -64 -109 -73 -81 -16 -90 -8 -123 105 l-15 50
0 -82 c-1 -90 -13 -113 -57 -113 -47 0 -64 17 -64 63 0 53 32 172 53 195 13
15 13 26 2 87 -7 39 -21 110 -30 159 -8 49 -23 102 -32 119 -8 17 -22 61 -29
97 -8 36 -28 93 -44 127 -69 139 -136 196 -387 322 -159 80 -236 141 -284 225
-56 99 -32 126 117 134 60 3 115 0 149 -8 l53 -13 99 47 c120 56 157 59 208
15z m-2680 4 c12 -12 15 -25 10 -52 -8 -44 -46 -123 -60 -125 -18 -2 -18 143
0 170 18 28 28 30 50 7z m-121 -108 c-1 -89 -15 -152 -42 -186 -23 -27 -116
-39 -144 -17 -24 18 -39 185 -17 191 64 18 74 24 79 47 7 31 45 51 90 48 l35
-3 -1 -80z m1125 1 c6 -7 16 -40 22 -72 10 -52 9 -59 -7 -71 -10 -7 -37 -13
-60 -13 -66 0 -95 41 -74 105 6 19 21 42 33 50 27 19 71 19 86 1z m-949 -107
c0 -34 -21 -51 -57 -47 -40 4 -41 35 -1 77 29 32 32 32 45 15 7 -10 13 -30 13
-45z m516 32 c21 -15 67 -58 102 -94 69 -73 72 -84 47 -180 -26 -100 -79 -187
-114 -187 -31 0 -44 -19 -52 -76 -9 -64 -33 -101 -45 -69 -4 10 -2 45 5 78 11
54 11 61 -4 70 -59 32 -70 84 -63 285 7 198 35 238 124 173z m788 7 c9 -12 16
-42 16 -67 l0 -44 -63 5 c-35 3 -78 13 -97 23 l-34 17 47 44 c54 52 105 60
131 22z m2148 -115 c9 -10 19 -28 22 -40 9 -28 22 -29 36 -3 15 28 30 25 83
-15 55 -42 63 -43 71 -10 7 29 14 30 121 11 97 -17 124 -27 149 -55 17 -19 18
-22 2 -45 -12 -18 -36 -31 -89 -47 -39 -11 -137 -41 -215 -65 -79 -24 -162
-44 -185 -44 -99 1 -247 114 -247 189 0 40 28 81 55 81 20 0 25 5 25 24 0 31
10 34 91 35 51 1 69 -3 81 -16z m-3107 -164 c13 -85 35 -201 49 -259 35 -142
31 -157 -58 -245 -124 -123 -255 -175 -439 -175 -174 0 -204 31 -194 200 8
146 82 450 119 486 12 13 199 44 260 44 23 0 28 -4 28 -25 0 -14 -11 -53 -25
-88 -31 -75 -65 -201 -64 -236 l0 -26 11 25 c32 78 39 90 53 90 15 0 19 13 30
88 3 24 15 62 26 84 19 38 168 202 176 195 2 -2 14 -73 28 -158z m-322 123
c38 -42 -40 -68 -143 -48 l-65 13 55 26 c65 32 129 35 153 9z m953 -5 c11 -11
-30 -51 -112 -107 -99 -69 -101 -69 -113 -23 -6 21 -11 57 -11 80 0 39 3 43
33 52 36 11 191 10 203 -2z m1075 -13 c22 -23 23 -27 9 -52 -20 -35 -107 -89
-121 -75 -12 12 20 105 47 134 23 25 36 24 65 -7z m872 -29 c87 -53 205 -142
217 -165 6 -11 21 -20 35 -20 30 0 136 -97 171 -156 37 -64 54 -137 54 -240 0
-99 -11 -146 -43 -181 -62 -69 -165 22 -322 282 -87 144 -150 275 -169 351
-17 64 -22 164 -8 164 4 0 33 -16 65 -35z m-3405 -11 c43 -17 41 -38 -11 -89
-46 -46 -99 -67 -219 -86 -124 -19 -120 0 34 169 31 33 31 33 97 26 36 -3 81
-12 99 -20z m207 -14 c30 -25 36 -79 15 -137 -10 -30 -29 -103 -41 -161 -25
-125 -42 -172 -63 -172 -23 0 -28 47 -24 273 2 161 6 210 17 216 16 10 75 -2
96 -19z m2135 -123 c0 -36 -144 -117 -222 -125 -39 -4 -49 -1 -54 13 -14 35
30 74 116 105 65 23 160 27 160 7z m-434 -12 c7 -18 -12 -45 -32 -45 -16 0
-37 37 -29 50 10 16 55 12 61 -5z m2649 5 c22 -8 26 -15 23 -42 -4 -43 -25
-52 -162 -73 -91 -13 -125 -14 -215 -4 -58 6 -110 15 -114 19 -20 18 191 82
323 99 93 12 115 12 145 1z m-3350 -87 c0 -63 -19 -88 -52 -67 -30 19 -28 76
3 113 35 42 48 29 49 -46z m-1941 51 c36 -14 4 -54 -42 -54 -25 0 -44 23 -36
44 6 16 48 22 78 10z m5392 -115 c75 -36 185 -171 160 -196 -4 -4 -35 0 -69 8
-42 9 -112 14 -215 13 l-152 -2 -77 67 c-42 36 -78 71 -80 78 -3 7 22 13 74
18 43 4 114 13 158 20 115 19 153 18 201 -6z m-685 -39 c33 -17 89 -48 124
-70 108 -66 166 -92 228 -100 37 -6 73 -19 97 -35 48 -33 150 -153 150 -176 0
-21 -88 -102 -166 -154 -111 -74 -205 -96 -302 -71 -72 18 -169 65 -196 94
-20 23 -19 52 5 200 13 82 8 140 -28 315 -7 36 11 36 88 -3z m-2793 -13 c6 -7
31 -94 56 -194 48 -196 58 -221 118 -301 22 -29 46 -68 53 -85 15 -37 35 -197
35 -286 0 -72 3 -72 -119 6 -106 69 -189 146 -213 200 -60 134 -62 559 -3 649
17 26 56 32 73 11z m815 -15 c9 -9 21 -38 26 -64 6 -25 27 -82 46 -126 19 -44
36 -91 37 -103 4 -35 -28 -35 -90 2 -69 39 -86 75 -72 150 6 28 10 69 10 90 0
67 14 83 43 51z m-1039 -197 c13 -14 31 -49 40 -77 23 -76 76 -392 67 -401
-25 -25 -128 47 -151 105 -7 18 -29 59 -49 91 -30 50 -35 67 -34 120 0 67 21
127 55 164 28 29 43 29 72 -2z m-794 -187 c40 -71 39 -99 -8 -145 -48 -49
-163 -105 -224 -111 -62 -6 -62 7 -2 87 54 72 88 101 120 101 18 0 25 7 30 28
14 63 26 92 40 92 7 0 27 -24 44 -52z m3531 -76 c36 -56 38 -108 7 -163 -24
-44 -33 -47 -47 -20 -15 28 -43 209 -36 232 9 28 39 8 76 -49z m-3241 43 c0
-13 -94 -66 -113 -63 -32 4 -36 45 -5 57 23 10 118 15 118 6z m3437 -107 c35
-39 47 -69 32 -79 -8 -5 -20 -9 -27 -9 -17 0 -55 20 -64 34 -14 20 -8 55 10
65 24 14 26 14 49 -11z m-2262 -269 c24 -30 53 -75 66 -98 19 -38 20 -44 7
-58 -23 -23 -90 -28 -125 -9 -41 21 -80 69 -93 114 -11 42 -14 185 -3 196 9 8
92 -73 148 -145z m1669 -85 c9 -8 16 -20 16 -25 0 -23 -32 -83 -67 -126 -36
-44 -38 -45 -44 -22 -20 70 -2 155 38 178 25 15 39 13 57 -5z m-1325 -318 c76
-57 201 -194 201 -222 0 -8 -7 -14 -16 -14 -32 0 -143 61 -173 95 -57 66 -101
175 -70 175 6 0 32 -15 58 -34z"/>
</g>
</svg>
