<?xml version="1.0" standalone="no"?>
<!DOCTYPE svg PUBLIC "-//W3C//DTD SVG 20010904//EN"
 "http://www.w3.org/TR/2001/REC-SVG-20010904/DTD/svg10.dtd">
<svg version="1.0" xmlns="http://www.w3.org/2000/svg"
 width="3325.000000pt" height="2415.000000pt" viewBox="0 0 3325.000000 2415.000000"
 preserveAspectRatio="xMidYMid meet">
<metadata>
Created by potrace 1.16, written by Peter Selinger 2001-2019
</metadata>
<g transform="translate(0.000000,2415.000000) scale(0.100000,-0.100000)"
fill="#000000" stroke="none">
<path d="M27290 24109 c-244 -5 -362 -12 -475 -28 -82 -11 -204 -26 -270 -31
-129 -12 -402 -53 -660 -100 -88 -16 -212 -36 -275 -45 -63 -9 -176 -33 -250
-52 -165 -43 -174 -45 -436 -87 -154 -25 -247 -46 -350 -80 -198 -64 -367
-112 -533 -152 -79 -19 -205 -54 -280 -79 -75 -24 -218 -64 -318 -89 -100 -25
-237 -63 -305 -85 -68 -21 -217 -65 -333 -96 -526 -141 -644 -188 -880 -345
-188 -125 -548 -332 -714 -412 -102 -49 -228 -110 -279 -135 -95 -47 -288
-164 -353 -214 -19 -15 -109 -64 -200 -108 -130 -63 -192 -100 -298 -181 -74
-56 -151 -116 -172 -134 -20 -19 -70 -56 -110 -84 -41 -27 -126 -92 -190 -143
-64 -52 -188 -137 -275 -189 -87 -52 -201 -127 -254 -165 -148 -110 -325 -234
-440 -309 -58 -38 -147 -100 -198 -138 -52 -38 -144 -102 -206 -142 -61 -40
-159 -111 -216 -157 -132 -107 -228 -174 -461 -327 -202 -131 -261 -165 -534
-309 -225 -119 -389 -234 -880 -624 -77 -61 -207 -162 -290 -223 -82 -62 -204
-159 -270 -215 -66 -57 -199 -155 -295 -218 -374 -246 -943 -632 -1060 -720
-52 -39 -142 -110 -200 -157 -58 -47 -151 -113 -208 -148 -113 -70 -347 -231
-680 -469 -119 -85 -284 -201 -367 -256 -82 -56 -172 -120 -200 -144 -90 -77
-84 -76 -64 -17 27 79 25 140 -7 177 -14 17 -32 31 -40 31 -19 0 -19 1 21 60
48 72 59 118 46 195 -6 34 -11 82 -11 106 0 25 -9 62 -20 84 -14 28 -18 49
-14 76 11 69 -15 119 -60 119 -13 0 -29 7 -36 15 -15 18 -51 20 -69 3 -9 -9
-8 -2 3 19 9 18 16 38 16 46 0 25 -34 58 -60 59 -14 0 -45 5 -71 10 -37 9 -51
8 -83 -7 -49 -24 -149 -140 -234 -275 -101 -160 -130 -195 -270 -327 -179
-169 -233 -244 -304 -418 l-28 -70 6 50 c3 28 21 80 40 117 40 80 42 110 9
143 -31 32 -66 32 -104 -1 -29 -24 -32 -24 -53 -10 -76 54 -173 -20 -277 -210
-77 -138 -92 -181 -131 -373 -19 -95 -47 -192 -72 -255 -22 -56 -51 -137 -63
-181 -90 -314 -161 -507 -254 -694 -51 -100 -75 -136 -139 -203 -83 -87 -210
-194 -392 -331 -63 -48 -147 -115 -187 -149 -39 -35 -133 -117 -208 -183 -76
-66 -190 -162 -255 -213 -65 -50 -182 -152 -261 -225 -78 -72 -239 -219 -358
-324 -229 -204 -296 -275 -338 -361 -16 -34 -37 -59 -56 -69 -17 -8 -56 -33
-87 -54 -135 -92 -244 -121 -385 -102 l-60 8 -3 42 c-2 30 5 61 24 104 37 83
61 99 143 99 36 0 84 7 107 15 24 8 75 13 125 13 72 -1 91 2 135 25 61 31 84
71 84 147 0 112 -58 167 -190 181 -100 10 -141 23 -170 54 -18 19 -21 31 -16
57 12 64 18 64 87 11 35 -28 74 -55 86 -62 52 -27 152 1 182 51 43 70 31 204
-30 322 -35 68 -79 176 -79 195 0 3 27 7 59 7 70 1 156 38 195 84 40 48 51
127 32 224 -18 91 -21 288 -6 351 6 22 15 76 20 119 5 44 14 84 19 89 13 13
27 -18 35 -78 8 -64 90 -242 127 -277 39 -37 94 -38 161 -1 72 39 92 82 93
199 l0 91 38 -71 c48 -88 81 -124 127 -136 120 -32 226 92 218 256 -3 66 -10
84 -95 260 -84 171 -122 281 -107 306 3 4 23 0 45 -8 81 -33 193 0 233 67 22
37 20 102 -4 149 -11 21 -62 81 -113 132 -51 51 -108 120 -127 153 -25 43 -49
69 -85 92 -27 17 -77 51 -110 76 -82 60 -222 142 -269 157 -87 28 -492 -15
-610 -64 -47 -19 -151 -91 -203 -139 l-42 -38 -16 31 c-34 65 -127 90 -191 51
-32 -19 -92 -88 -113 -129 l-12 -23 -40 35 c-70 64 -146 38 -220 -77 -66 -102
-71 -150 -22 -235 13 -23 23 -50 21 -60 -2 -11 -23 16 -57 71 -59 98 -84 120
-140 120 -65 0 -99 -36 -141 -147 l-11 -29 -28 27 c-15 15 -44 29 -64 33 -96
15 -244 -124 -272 -257 -10 -50 -11 -50 -55 -28 -33 17 -45 18 -71 9 -38 -13
-49 -8 -49 26 0 67 -60 112 -185 137 -79 16 -81 17 -139 81 -80 89 -134 120
-211 120 -43 0 -72 -7 -100 -22 -24 -13 -98 -33 -185 -49 -188 -34 -306 -72
-405 -132 -44 -26 -123 -69 -175 -95 -52 -26 -126 -70 -165 -99 -181 -136
-382 -365 -462 -528 -26 -52 -48 -97 -51 -100 -2 -3 -16 10 -30 27 -31 37 -73
56 -108 47 -26 -7 -84 -67 -84 -87 0 -7 -29 -73 -65 -147 -35 -74 -76 -175
-91 -225 -14 -49 -41 -142 -59 -205 -18 -63 -40 -167 -50 -230 -21 -150 -46
-259 -91 -406 -51 -165 -60 -207 -83 -385 -40 -299 -24 -582 45 -838 18 -65
28 -136 34 -230 4 -75 17 -183 28 -241 43 -217 72 -439 77 -590 3 -85 10 -193
16 -240 9 -71 9 -96 -5 -148 -29 -115 -141 -307 -184 -319 -61 -15 -252 6
-462 51 -191 41 -246 57 -490 149 -285 107 -326 125 -413 181 -80 51 -228 123
-314 153 -68 23 -95 27 -203 27 -106 1 -131 -2 -165 -19 -75 -38 -116 -131
-97 -224 16 -73 81 -206 136 -272 88 -107 337 -314 497 -414 l64 -39 -30 -7
c-16 -4 -86 -7 -155 -8 -128 -1 -199 -11 -450 -61 -224 -45 -450 -70 -628 -70
-178 0 -455 -22 -564 -45 -94 -19 -191 -67 -224 -110 -53 -70 -61 -154 -20
-218 27 -41 147 -134 207 -161 167 -74 726 -212 1029 -255 186 -26 521 -44
675 -36 l120 6 -40 -36 c-22 -19 -85 -70 -140 -112 -112 -86 -282 -230 -305
-258 -8 -10 -47 -42 -86 -71 -40 -29 -93 -72 -119 -94 -26 -22 -75 -55 -109
-72 -107 -53 -189 -114 -271 -200 -44 -47 -113 -106 -153 -133 -110 -72 -191
-191 -192 -280 0 -55 18 -77 91 -110 54 -24 70 -27 125 -22 35 4 96 19 136 35
40 16 158 51 263 77 207 51 271 73 415 140 52 24 149 67 215 95 66 28 127 54
135 57 10 5 7 -4 -8 -28 -70 -107 -255 -486 -327 -669 -42 -106 -158 -349
-225 -470 -28 -50 -92 -178 -141 -283 -50 -106 -112 -230 -139 -277 -122 -218
-195 -360 -275 -535 -48 -104 -109 -237 -136 -295 -26 -58 -122 -251 -212
-430 -266 -528 -344 -725 -457 -1155 -72 -274 -77 -302 -85 -450 -7 -124 7
-402 26 -515 22 -129 125 -294 223 -355 45 -28 80 -59 326 -291 65 -60 125
-106 190 -143 52 -29 131 -79 175 -111 87 -62 127 -85 244 -134 42 -18 110
-54 151 -80 50 -31 114 -59 190 -83 63 -19 160 -55 215 -79 64 -27 135 -49
195 -59 100 -17 272 -57 461 -105 71 -18 142 -30 182 -30 36 0 96 -7 134 -16
91 -22 252 -14 398 19 61 14 158 28 216 31 116 6 223 33 361 90 46 19 139 51
208 71 320 93 365 114 565 265 215 162 197 152 236 136 27 -11 73 -13 209 -9
156 4 181 7 233 29 32 14 89 29 126 33 38 5 111 23 162 39 52 17 125 38 163
46 69 16 241 92 349 154 32 18 82 42 112 52 30 10 94 37 142 60 48 24 126 59
173 80 82 35 355 207 471 296 30 23 102 71 160 105 77 47 135 94 224 179 66
64 150 143 186 175 61 55 115 116 315 355 114 137 357 383 467 474 108 89 166
146 238 236 24 30 95 109 157 176 127 135 267 315 332 426 24 40 44 74 45 76
2 2 37 -4 79 -12 106 -22 207 -20 386 9 85 14 171 28 191 31 19 4 76 -1 125
-9 95 -17 164 -11 206 17 13 8 42 18 66 22 38 6 48 3 87 -25 24 -17 61 -38 82
-45 50 -18 222 -43 346 -51 66 -4 119 -14 161 -30 87 -33 164 -52 282 -69 78
-12 132 -28 231 -70 330 -139 607 -297 688 -392 l49 -56 0 -387 c1 -246 -3
-426 -11 -496 -7 -60 -18 -168 -24 -240 -6 -71 -17 -159 -24 -195 -29 -141
-59 -327 -57 -359 4 -58 -63 -217 -140 -336 -160 -247 -180 -276 -227 -332
-26 -32 -65 -87 -85 -122 -49 -84 -158 -200 -274 -292 -51 -41 -125 -100 -165
-131 -40 -32 -106 -82 -148 -112 -91 -65 -135 -115 -183 -204 -35 -67 -61 -90
-156 -137 -57 -29 -167 -122 -201 -171 -55 -80 -139 -252 -139 -285 0 -17 5
-39 11 -50 8 -16 7 -25 -5 -38 -26 -29 -93 -183 -105 -242 -21 -100 -17 -217
9 -277 22 -51 69 -102 94 -102 17 0 99 86 148 156 123 176 233 294 343 367 39
25 104 76 145 113 71 63 161 127 168 119 2 -1 -9 -26 -23 -55 -48 -95 -70
-271 -45 -362 10 -36 93 -138 112 -138 5 0 23 -9 39 -21 22 -15 37 -19 66 -13
51 9 77 35 104 103 66 167 139 273 255 372 135 115 166 134 251 149 66 12 79
18 142 72 39 33 93 89 120 126 53 72 130 149 226 227 33 27 104 92 157 144
116 112 114 112 203 2 41 -51 61 -86 71 -127 13 -49 70 -168 110 -228 7 -12
20 -41 28 -64 24 -68 93 -157 168 -218 46 -37 76 -71 93 -105 14 -27 35 -55
46 -62 11 -6 29 -26 40 -43 35 -57 119 -71 135 -21 4 12 15 33 25 46 23 29 25
119 5 218 -7 37 -17 142 -20 233 -4 91 -11 203 -16 250 -5 47 -14 185 -20 308
-9 186 -8 236 4 305 8 45 17 136 21 202 10 205 46 515 85 730 16 88 38 230 50
315 42 322 52 388 75 505 13 66 28 172 34 235 7 63 18 176 26 250 23 220 39
493 41 690 2 102 7 203 13 224 20 79 -27 217 -101 298 -50 54 -259 241 -309
275 -91 63 -230 142 -296 170 -37 16 -88 42 -112 57 l-43 28 23 16 c53 35 52
68 -2 127 -25 27 -36 45 -28 46 8 1 50 0 94 -1 85 -1 266 35 328 66 79 40 99
93 53 139 l-24 24 31 5 c18 3 68 10 112 16 107 15 288 66 348 98 58 31 97 74
97 107 0 28 -20 75 -32 75 -4 0 -8 4 -8 9 0 5 26 12 58 16 31 3 88 15 127 27
140 40 200 156 114 220 -20 15 -53 22 -134 28 -59 5 -109 11 -112 13 -2 2 24
7 58 11 99 12 189 44 227 82 30 30 34 39 28 67 -12 60 -56 77 -206 77 -59 0
-80 3 -70 10 8 5 43 10 77 10 55 0 207 21 363 50 34 6 86 29 135 57 44 26 138
77 210 113 151 75 187 113 189 194 2 83 -38 102 -174 82 l-55 -8 53 32 c55 32
92 79 92 117 0 12 -11 35 -25 52 l-26 30 28 15 c99 52 128 146 58 192 -25 16
-87 16 -185 -1 -47 -9 125 46 240 76 196 51 306 98 457 195 46 29 260 141 476
248 272 135 433 222 527 284 226 148 683 472 905 642 116 89 255 193 310 233
55 39 141 110 190 157 50 48 144 131 209 185 66 55 168 154 228 220 100 111
238 241 383 359 33 27 114 102 181 165 66 64 161 154 210 201 95 92 211 241
279 360 23 41 46 75 52 77 5 2 29 -22 54 -52 69 -88 317 -298 449 -380 120
-75 562 -476 840 -761 188 -194 373 -358 490 -436 82 -55 142 -108 276 -245
150 -153 172 -180 183 -221 23 -91 30 -138 30 -226 1 -81 -2 -97 -36 -175 -20
-47 -49 -109 -65 -137 -18 -32 -36 -89 -48 -152 -10 -55 -28 -122 -39 -149
-98 -237 -103 -254 -117 -398 -13 -134 -9 -244 12 -365 16 -88 101 -210 158
-224 21 -5 33 1 65 31 33 31 47 57 80 153 22 63 48 142 57 175 l18 60 17 -100
c23 -134 66 -289 95 -347 66 -131 164 -258 222 -287 27 -14 62 -6 62 14 0 8
15 28 33 44 l32 31 0 182 c1 159 4 194 23 267 13 46 32 133 43 194 11 60 36
151 55 201 20 50 49 136 65 191 30 102 77 215 90 215 3 0 13 -15 20 -32 23
-57 178 -278 295 -423 225 -279 462 -419 558 -330 26 24 27 30 23 88 -5 65
-46 259 -72 337 -8 25 -21 74 -29 110 -9 36 -31 125 -51 198 -29 111 -35 156
-41 280 -3 81 -14 190 -25 242 -10 52 -17 95 -16 97 2 1 54 -23 117 -53 174
-84 454 -193 523 -203 34 -5 182 -11 328 -13 251 -3 268 -2 288 16 45 41 15
102 -64 129 -34 12 -41 19 -46 50 -8 47 -17 61 -188 266 -153 182 -328 358
-475 477 -47 37 -82 72 -80 76 3 4 17 8 32 8 15 0 52 7 82 15 30 8 90 15 133
15 91 0 284 41 482 101 121 37 141 40 315 49 273 14 310 22 335 71 34 65 8
101 -101 139 -43 15 -139 55 -211 89 -161 75 -287 109 -453 121 -134 10 -202
21 -321 50 -41 11 -136 27 -210 35 -73 9 -150 21 -169 26 -19 5 -66 36 -105
70 -38 33 -86 69 -105 79 -63 32 -288 118 -365 139 -81 23 -139 49 -238 110
-129 79 -397 221 -517 274 -265 117 -581 298 -794 454 -50 36 -106 78 -125 92
-65 47 -266 256 -334 346 -37 50 -88 131 -114 180 -25 50 -62 114 -80 143 -19
29 -58 104 -88 167 -29 63 -74 145 -99 184 l-45 71 32 24 c18 13 96 61 174
106 170 98 167 97 518 106 285 6 346 15 571 80 87 26 245 68 349 94 105 26
235 64 290 84 55 20 156 48 225 62 69 14 184 45 255 69 72 24 196 58 277 75
81 17 194 46 250 65 103 33 328 124 403 162 22 12 110 49 195 83 204 83 326
140 490 232 74 42 191 104 260 138 204 102 759 420 824 472 22 18 166 109 320
204 155 95 313 192 351 217 207 132 687 545 836 718 45 52 158 173 253 270
255 261 490 516 545 589 26 36 67 99 91 140 24 41 64 107 90 145 26 39 69 108
95 155 63 110 145 233 264 395 123 167 158 227 216 360 78 181 181 375 246
465 78 108 186 326 229 461 41 130 70 189 174 348 45 69 97 153 116 186 18 33
77 128 130 210 53 83 143 226 201 318 57 93 142 216 189 274 47 58 123 154
170 213 47 60 103 122 125 140 22 17 105 93 185 169 167 158 196 180 425 323
199 124 394 233 555 310 63 30 173 87 245 127 129 71 257 119 425 161 91 23
277 92 513 189 179 74 225 97 432 214 203 115 263 171 328 307 25 52 50 114
57 138 14 54 4 266 -16 340 -14 50 -14 53 7 81 17 23 20 38 16 66 -3 20 -11
43 -18 51 -28 34 -204 147 -261 168 -160 60 -554 186 -653 210 -60 15 -195 47
-298 72 -104 25 -248 68 -320 95 -137 52 -338 116 -632 200 -172 50 -379 94
-580 124 -60 9 -200 32 -310 50 -369 63 -548 82 -870 95 -171 7 -250 15 -355
35 l-135 27 -590 2 c-324 1 -736 -2 -915 -5z m-15020 -6816 c-17 -32 -40 -69
-50 -83 l-20 -25 10 28 c21 60 71 137 87 137 2 0 -10 -26 -27 -57z m-5471
-1949 c-12 -27 -13 -27 -16 -7 -5 26 19 77 24 52 2 -8 -2 -29 -8 -45z m-624
-131 c-6 -14 -13 -117 -15 -214 0 -4 -19 -9 -42 -13 -24 -4 -52 -9 -63 -12
-19 -4 -20 0 -20 83 0 48 4 94 8 101 8 12 114 71 131 72 4 0 5 -8 1 -17z
m2531 -407 c5 -27 3 -37 -4 -32 -14 8 -32 72 -31 106 1 24 1 24 14 -5 7 -17
17 -48 21 -69z m-2760 7 c-1 -38 3 -81 7 -96 l8 -28 -38 25 c-46 32 -89 33
-126 3 -22 -17 -35 -47 -62 -135 -38 -128 -50 -216 -37 -282 8 -44 7 -45 -27
-65 -54 -31 -79 -75 -86 -153 -12 -133 -44 -192 -104 -192 -102 0 -177 -99
-156 -207 l7 -37 -33 26 c-51 39 -71 72 -77 126 -5 58 10 92 41 92 30 0 135
51 175 85 66 56 73 92 46 254 -9 55 -14 110 -11 123 11 43 47 77 124 120 45
25 83 53 95 72 20 32 20 43 2 182 -9 75 2 90 76 97 45 5 168 44 176 56 0 0 0
-29 0 -66z m-553 -1483 c18 -73 23 -110 16 -122 -13 -24 -111 -73 -189 -95
-75 -20 -80 -16 -80 77 0 47 7 79 24 115 27 58 44 75 129 126 72 44 62 54 100
-101z m-1459 -8728 c74 -35 144 -100 177 -164 31 -59 38 -177 14 -247 -24 -72
-99 -152 -183 -193 -62 -31 -73 -33 -172 -33 -96 0 -110 2 -163 29 -76 39
-148 116 -175 189 -30 80 -28 146 7 248 32 92 57 120 143 165 69 35 113 44
205 40 66 -3 95 -10 147 -34z"/>
</g>
</svg>
