<?xml version="1.0" encoding="UTF-8" standalone="no"?>
<svg
   width="1370.614"
   height="1581.0011"
   viewBox="0 0 1370.614 1581.0011"
   version="1.1"
   id="svg4"
   xmlns="http://www.w3.org/2000/svg"
   xmlns:svg="http://www.w3.org/2000/svg">
  <defs
     id="defs8" />
  <path
     d="m 1200.3222,8.572 c -7.084,4.715 -14.904,10.488 -17.379,12.83 -2.475,2.341 -7.2,6.471 -10.5,9.177 -3.3,2.707 -6.225,5.146 -6.5,5.421 -8.303,8.303 -35.673,31.187 -42.533,35.562 -1.632,1.04 -3.192,2.146 -3.467,2.456 -0.71,0.8 -19.192,14.464 -21,15.525 -1.23,0.721 -1.202,0.424 0.153,-1.648 10.522,-16.093 13.336,-20.731 17.392,-28.667 2.594,-5.075 5.073,-9.228 5.508,-9.228 1.2,0 3.085,-6.478 2.402,-8.256 -0.84,-2.19 -5.858,-4.062 -8.631,-3.22 -7.547,2.29 -27.545,21.866 -85.871,84.056 -5.199,5.544 -15.751,17.019 -23.448,25.5 -23.40897,25.792 -67.14997,69.399 -82.50497,82.251 -15.792,13.217 -15.769,13.197 -34,29.65 -44.378,40.048 -60.291,61.569 -86.529,117.023 -11.545,24.4 -15.252,31.005 -40.128,71.496 -12.153,19.781 -15.394,25.254 -20.429,34.5 -2.546,4.675 -7.991,14.125 -12.101,21 -4.109,6.875 -9.371,15.875 -11.694,20 -4.27,7.586 -14.173,21.08 -32.874,44.795 -11.065,14.032 -35.677,39.492 -43.76,45.267 -6.574,4.697 -19.811,12.741 -25.643,15.584 -7.385,3.599 -16.421,1.996 -44.342,-7.867 -25.098,-8.866 -29.866,-10.085 -44,-11.25 -8.728,-0.72 -19.996,0.663 -25.088,3.08 -1.742,0.826 -6.28,1.59 -10.086,1.697 -7.786,0.218 -12.326,2.376 -12.326,5.859 0,1.165 1.735,4.868 3.855,8.227 4.523,7.166 4.893,8.205 5.711,16.054 0.751,7.202 3.454,16.215 7.584,25.292 8.056,17.703 15.525,42.513 20.251,67.262 l 1.432,7.5 -4.763,9 c -2.62,4.95 -9.388,17.775 -15.041,28.5 -22.935,43.513 -34.582,59.649 -64.984,90.031 -40.089,40.062 -55.546,54.527 -79.545,74.44 -9.928,8.238 -23.066,19.482 -28.076,24.029 -4.584,4.161 -25.172,23.257 -30.882,28.644 -3.873,3.654 -8.659,8.154 -10.636,10 -10.775,10.062 -40.407,44.986 -57.575,67.856 -15.712,20.93 -38.072,49.623 -62.732,80.5 -26.41,33.067 -30.552,38.186 -39.608,48.95 -10.119,12.026 -32.674999,40.505 -49.837999,62.923 -6.791,8.87 -15.585,20.177 -19.542,25.127 -11.998,15.007 -24.813,32.69 -27.794,38.352 -2.966,5.634 -3.628,10.937 -1.617,12.948 2.812,2.812 13.634,0.902 19.483,-3.438 1.751,-1.299 3.46,-2.362 3.798,-2.362 0.338,0 2.956,-1.488 5.817,-3.307 7.953,-5.056 8.089,-5.128 7.322,-3.887 -0.379,0.613 -4.161,5.97 -8.405,11.904 -4.243,5.935 -11.489,17.99 -16.102,26.79 -4.613,8.8 -11.677,22.075 -15.699,29.5 -7.332,13.537 -18.7569996,38.325 -21.7929996,47.285 -2.03299995,6.002 -2.09199995,12.079 -0.132,13.706 3.406,2.827 12.8529996,-1.133 18.5569996,-7.779 1.752,-2.042 7.971,-8.682 13.82,-14.756 9.008,-9.356 28.351,-32.509 33.914,-40.595 0.894,-1.298 4.121,-5.352 7.173,-9.008 3.051,-3.656 8.922,-11.026 13.047,-16.379 4.125,-5.352 8.323,-10.686 9.329,-11.853 1.878,-2.179 -8.289,17.926 -15.923,31.485 -15.756,27.987 -31.953,66.368 -42.998,101.894 -7.373,23.712 -8.569,31.942 -5.021,34.539 1.612,1.181 2.191,1.169 3.973,-0.078 1.147,-0.804 2.918,-1.461 3.937,-1.461 2.404,0 12.989,-10.09 17.31,-16.5 1.854,-2.75 7.088,-10.489 11.632,-17.199 8.735,-12.898 10.371,-15.582 23.047,-37.801 4.393,-7.7 10.686999,-18.572 13.985999,-24.159 6.422,-10.876 22.728,-33.545 22.728,-31.597 0,0.646 -1.604,5.58 -3.564,10.965 -20.513,56.356 -28.394999,85.774 -32.898999,122.791 -1.815,14.908 -1.994,24.777 -0.502,27.566 1.599,2.987 6.757,2.612 7.969999,-0.579 0.526,-1.383 2.57,-3.931 4.543,-5.664 1.974,-1.732 4.922,-5.791 6.551,-9.02 1.63,-3.229 4.75,-8.788 6.932,-12.354 2.183,-3.566 3.969,-6.72 3.969,-7.009 0,-0.288 3.432,-7.368 7.627,-15.732 4.195,-8.364 9.989,-21.508 12.876,-29.208 8.486,-22.636 21.698,-50.632 23.19,-49.14 0.279,0.279 -0.197,3.349 -1.058,6.823 -7.232,29.175 -11.979,51.928 -16.025,76.817 -4.154,25.546 -4.807,55.002 -1.337,60.295 2.377,3.626 6.12,3.605 8.393,-0.045 0.941,-1.513 4.523,-7.048 7.959,-12.302 3.436,-5.253 7.133,-11.798 8.215,-14.542 1.082,-2.745 3.404,-7.428 5.16,-10.406 3.017,-5.116 5.511,-10.525 15.219,-33 6.637,-15.365 6.561,-15.438 6.008,5.729 -0.511,19.524 1.109,50.068 2.932,55.296 1.329,3.815 4.116,5.434 6.841,3.975 1.1,-0.589 2,-1.515 2,-2.058 0,-0.542 1.806,-2.946 4.013,-5.34 2.463,-2.672 6.54,-9.647 10.555,-18.056 8.074,-16.91 10.957,-26.329 21.411,-69.958 2.756,-11.501 5.198,-21.098 5.425,-21.325 0.565,-0.565 1.187,1.792 3.096,11.737 1.991,10.367 9.173,38.285 10.924,42.464 1.779,4.244 6.432,9.531 9.372,10.649 2.587,0.983 7.204,-1.054 7.204,-3.178 0,-0.56 0.883,-1.966 1.961,-3.124 3.441,-3.693 12.801,-23.289 16.109,-33.724 1.981,-6.25 3.713,-10.087 4.553,-10.087 3.289,0 14.291,-5.376 18.664,-9.12 7.948,-6.806 16.098,-20.285 20.679,-34.202 1.35,-4.104 2.9,-7.006 3.889,-7.284 0.905,-0.255 5.245,-2.302 9.645,-4.549 8.074,-4.125 16.943,-11.662 20.567,-17.478 1.831,-2.94 2.43,-3.178 9.692,-3.851 10.125,-0.938 12.442,-2.003 21.449,-9.858 7.783,-6.788 13.688,-14.08 16.125,-19.912 1.106,-2.647 2.971,-4.134 9.065,-7.227 9.594,-4.87 17.639,-12.714 21.643,-21.105 1.628,-3.41 2.959,-6.649 2.959,-7.199 0,-0.549 1.238,-1.306 2.75,-1.683 4.476,-1.113 19.493,-11.177 22.941,-15.374 2.443,-2.973 4.16,-4.038 7.321,-4.544 2.271,-0.363 5.335,-1.433 6.808,-2.378 3.48,-2.23 14.533,-10.466 15.18,-11.311 0.275,-0.359 3.875,-0.884 8,-1.167 10.056,-0.689 22.45,-6.383 29.15,-13.393 4.949,-5.178 11.088,-14.296 13.481,-20.025 0.935,-2.237 2.598,-3.963 4.661,-4.839 8.064,-3.423 21.891,-17.506 23.247,-23.678 0.329,-1.496 2.198,-4.431 4.155,-6.522 1.957,-2.09 5.188,-6.329 7.182,-9.419 2.414,-3.743 6.327,-7.651 11.721,-11.709 7.964,-5.992 15.324,-14.205 17.237,-19.237 0.62,-1.629 3.463,-3.991 7.82,-6.496 8.709,-5.006 19.691,-15.747 22.282,-21.79 1.487,-3.471 2.647,-4.745 4.765,-5.237 10.091,-2.342 22.382,-15.894 26.295,-28.992 0.961,-3.219 2.527,-5.048 7.419,-8.669 3.41,-2.524 7.384,-6.313 8.831,-8.42 2.433,-3.544 6.46,-17.66 6.577,-23.056 0.031,-1.391 2.284,-4.307 6.017,-7.788 7.214,-6.726 9.16,-10.526 9.16,-17.891 0,-5.565 0.031,-5.623 4.933,-9.144 3.21,-2.306 5.655,-5.1 7,-7.999 1.137,-2.45 3.048,-6.592 4.247,-9.204 1.199,-2.612 5.387,-8.125 9.308,-12.25 3.92,-4.125 8.326,-8.981 9.79,-10.791 l 2.661,-3.29 1.583,3.79 c 0.871,2.085 3.329,7.841 5.462,12.791 5.496,12.757 19.444,46.043 24.609,58.732 11.548,28.366 25.162,54.53 33.961,65.268 8.462,10.327 20.944,15.264 31.724,12.548 6.912,-1.742 12.495,-4.573 16.474,-8.354 l 3.252,-3.09 4.248,2.063 c 6.693,3.252 10.127,3.655 16.166,1.9 6.692,-1.945 9.77,-5.393 15.196,-17.018 l 3.886,-8.326 8,0.125 c 6.894,0.107 8.71,-0.249 13.138,-2.572 4.779,-2.508 12.362,-9.921 12.362,-12.086 0,-0.537 1.993,-0.725 4.586,-0.433 5.273,0.594 11.948,-0.947 18.414,-4.252 5.884,-3.008 16.70897,-13.521 20.49997,-19.91 2.62,-4.416 3.644,-5.245 8.092,-6.557 7.752,-2.287 13.531,-5.938 19.8,-12.51 7.531,-7.896 10.046,-13.516 10.081,-22.528 0.022,-5.602 -0.434,-7.741 -2.28,-10.71 -1.959,-3.151 -2.123,-4.051 -1.092,-5.979 2.152,-4.021 1.621,-21.167 -0.975,-31.475 l -2.307,-9.164 3.212,-3.336 c 4.769,-4.952 5.847,-6.92 6.938,-12.672 1.021,-5.385 -0.083,-12.566 -3.36,-21.856 -1.4,-3.967 -1.375,-4.095 1.064,-5.4 5.226,-2.798 7.442,-11.612 4.838,-19.247 -1.567,-4.592 -1.558,-4.909 0.169,-6.218 1.001,-0.759 2.06,-1.394 2.354,-1.411 1.567,-0.093 4.318,-7.12 5.55,-14.177 1.949,-11.165 0.731,-15.693 -6.015,-22.351 -4.733,-4.671 -6.103,-5.35 -20.57,-10.19 -8.779,-2.937 -24.17,-6.996 -35.49897,-9.361 -11,-2.296 -26.075,-5.746 -33.5,-7.666 -7.425,-1.92 -19.342,-4.819 -26.481,-6.442 -7.14,-1.623 -17.94,-4.661 -24,-6.751 l -11.019,-3.799 v -9.834 -9.834 l 3.239,-0.839 c 3.267,-0.847 14.909,-8.454 17.245,-11.268 0.693,-0.836 2.668,-1.531 4.388,-1.544 10.154,-0.08 21.525,-6.796 28.319,-16.726 0.846,-1.237 2.105,-2.25 2.797,-2.25 6.348,0 22.2,-12.997 25.094,-20.575 1.171,-3.067 2.428,-4.64 4.026,-5.041 3.336,-0.838 13.556,-8.256 17.24997,-12.52 3.638,-4.2 5.627,-8.596 6.62,-14.628 0.58,-3.518 1.43,-4.765 4.862,-7.127 5.528,-3.805 12.996,-11.887 15.475,-16.747 4.519,-8.857 6.829,-24.608 4.626,-31.547 -0.843,-2.658 0.979,-4.494 7.963,-8.019 13.013,-6.569 23.994,-20.738 25.229,-32.555 0.556,-5.326 0.955,-6.155 3.745,-7.785 4.918,-2.873 15.912,-11.997 18.217,-15.119 1.152,-1.56 2.851,-4.299 3.776,-6.087 0.992,-1.919 2.451,-3.25 3.561,-3.25 2.627,0 16.897,-10.982 21.752,-16.74 7.069,-8.384 8.645,-12.494 9.11,-23.76 0.318,-7.704 0.817,-10.459 2.174,-12 5.911,-6.712 10.71,-21.054 11.977,-35.789 0.639,-7.436 1.146,-9.206 3.291,-11.5 3.326,-3.556 5.095,-7.203 7.624,-15.721 2.969,-9.998 5.14,-22.077 5.14,-28.6 0,-3.086 0.293,-7.75 0.652,-10.365 0.573,-4.183 1.049,-4.92 3.967,-6.139 1.824,-0.762 4.381,-1.386 5.682,-1.386 6.048,0 29.075,-15.983 34.389,-23.869 4.428,-6.57 6.553,-14.078 5.828,-20.588 -0.365,-3.276 -1.306,-7.494 -2.091,-9.372 -2.243,-5.368 -1.791,-6.425 4.476,-10.463 8.349,-5.378 15.659,-13.412 17.112,-18.808 2.032,-7.542 2.739,-8.687 5.772,-9.353 4.518,-0.993 17.079,-8.799 23.629,-14.686 8.714,-7.831 13.55,-20.103 13.576,-34.45 0.01,-3.466 0.603,-4.64 3.91,-7.7 4.7,-4.348 12.841,-9.643 19.439,-12.643 12.908,-5.868 30.206,-19.647 34.232,-27.268 1.673,-3.167 1.855,-8.132 0.397,-10.855 -2.213,-4.136 -6.486,-5.212 -17.88,-4.504 -20.944,1.301 -25.788,1.689 -39,3.12 -7.375,0.799 -13.628,1.235 -13.895,0.967 -0.426,-0.425 16.204,-8.528 17.503,-8.528 0.275,0 1.918,-0.64 3.651,-1.422 1.733,-0.783 6.751,-2.987 11.151,-4.9 22.2,-9.648 47.521,-22.308 59,-29.499 7.2,-4.51 18.39,-15.319 20.613,-19.912 1.725,-3.564 1.928,-4.882 1.047,-6.815 -2.171,-4.764 -6.003,-4.646 -46.66,1.434 -9.28,1.387 -25.215,4.659 -34.462,7.074 -4.104,1.072 -7.574,1.837 -7.712,1.699 -0.138,-0.137 11.545,-6.723 25.962,-14.634 14.417,-7.912 30.262,-16.87 35.212,-19.908 9.155,-5.618 19.5,-14.844 19.5,-17.391 0,-0.773 1.125,-1.918 2.5,-2.544 1.723,-0.785 2.5,-1.938 2.5,-3.709 0,-6.78 -11.363,-6.162 -47,2.557 -44.878,10.98 -76.755,20.517 -97.39,29.139 -7.484,3.127 -12.813,4.962 -13.222,4.553 -0.134,-0.134 7.262,-4.455 16.434,-9.603 9.173,-5.147 20.728,-11.735 25.678,-14.64 9.152,-5.371 42.119,-28.018 52.959,-36.382 3.278,-2.528 6.653,-5.13 7.5,-5.782 7.162,-5.511 14.974,-12.272 17.041,-14.749 1.375,-1.648 4.238,-4.917 6.363,-7.266 5.565,-6.15 4.611,-7.764 -4.137,-6.995 -9.912,0.872 -19.93,4.167 -51.726,17.016 -38.351,15.498 -38.941,15.773 -54,25.154 -11.797,7.348 -19.05,11.427 -22.5,12.653 l -2.5,0.888 2.619,-2.258 c 1.441,-1.242 7.516,-5.846 13.5,-10.232 10.075,-7.384 28.423,-21.589 30.987,-23.99 0.608,-0.57 4.822,-4.387 9.364,-8.482 12.704,-11.455 26.906,-29.174 31.598,-39.422 1.407,-3.072 3.879,-6.526 5.495,-7.677 3.818,-2.718 4.061,-7.122 0.483,-8.752 -2.909,-1.325 -11.061,0.492 -19.046,4.246 -2.75,1.293 -9.781,4.596 -15.624,7.339 -9.227,4.332 -16.444,8.149 -34.376,18.182 -2.2,1.231 -6.475,3.906 -9.5,5.944 -3.025,2.039 -9.775,6.114 -15,9.055 -5.225,2.942 -12.338,7.078 -15.808,9.19 -3.469,2.113 -6.611,3.841 -6.982,3.841 -0.371,0 3.847,-4.613 9.373,-10.25 5.526,-5.637 11.739,-12.392 13.807,-15.009 7.575,-9.59 23.61,-39.01 23.61,-43.318 0,-2.138 -4.18,-4.423 -8.094,-4.423 -2.913,0 -6.245,1.728 -16.527,8.572"
     stroke="none"
     fill="#000000"
     fill-rule="evenodd"
     id="path2" />
</svg>
