<?xml version="1.0" standalone="no"?>
<!DOCTYPE svg PUBLIC "-//W3C//DTD SVG 20010904//EN"
 "http://www.w3.org/TR/2001/REC-SVG-20010904/DTD/svg10.dtd">
<svg version="1.0" xmlns="http://www.w3.org/2000/svg"
 width="364.000000pt" height="1536.000000pt" viewBox="0 0 364.000000 1536.000000"
 preserveAspectRatio="xMidYMid meet">
<metadata>
Created by potrace 1.16, written by Peter Selinger 2001-2019
</metadata>
<g transform="translate(0.000000,1536.000000) scale(0.100000,-0.100000)"
fill="#000000" stroke="none">
<path d="M1138 15343 c-9 -10 -41 -79 -71 -154 -30 -75 -102 -235 -160 -355
-146 -307 -161 -353 -206 -641 -17 -105 -46 -274 -65 -375 -39 -204 -51 -305
-66 -553 -15 -235 -23 -287 -90 -550 -94 -372 -157 -648 -190 -835 -17 -96
-48 -249 -70 -340 -71 -302 -130 -648 -149 -875 -18 -210 -33 -948 -35 -1650
-1 -765 -1 -774 79 -1388 41 -316 86 -695 89 -742 0 -11 -6 -20 -14 -22 -71
-10 -94 -17 -121 -40 -44 -37 -69 -96 -69 -164 0 -59 16 -119 31 -119 11 0 12
6 10 95 -2 83 20 128 74 151 88 36 107 16 155 -171 45 -177 134 -447 219 -670
64 -166 126 -361 256 -795 102 -341 165 -531 243 -735 79 -208 114 -320 141
-456 49 -249 56 -405 23 -487 -13 -32 -22 -74 -22 -107 0 -72 28 -268 45 -318
12 -34 12 -43 0 -61 -14 -21 -82 -324 -104 -461 -29 -182 -40 -640 -20 -836
23 -231 66 -365 217 -687 52 -111 92 -206 88 -210 -11 -10 -172 77 -221 120
-52 46 -82 58 -113 47 -50 -19 -65 -121 -36 -252 35 -159 117 -266 288 -382
146 -98 179 -139 245 -298 6 -15 15 -26 20 -22 5 3 22 38 37 78 23 60 39 84
98 143 41 41 109 93 161 124 49 30 109 73 132 96 52 52 98 142 119 231 20 85
23 230 6 261 -17 30 -60 29 -108 -5 -21 -14 -58 -39 -81 -55 -49 -34 -183
-101 -189 -95 -2 2 39 89 91 193 144 287 200 442 237 669 20 121 17 544 -6
725 -21 178 -50 342 -82 478 -30 130 -30 176 2 362 25 146 25 151 8 212 -42
156 -41 271 2 486 30 151 70 276 141 446 86 205 144 366 248 701 194 624 266
832 380 1095 88 205 156 376 190 480 15 47 36 102 47 123 18 36 19 37 46 23
60 -32 75 -59 80 -151 3 -47 9 -85 14 -85 17 0 30 56 26 122 -3 55 -9 75 -33
109 -17 23 -47 51 -67 62 -21 10 -38 26 -38 35 0 23 58 241 142 532 195 678
268 1063 323 1705 20 226 43 386 100 681 62 322 68 402 69 919 1 474 -6 587
-46 758 -24 105 -47 162 -111 278 -91 166 -127 310 -176 709 -40 315 -54 394
-87 477 -38 96 -119 261 -217 447 -47 87 -102 204 -122 260 -77 210 -167 348
-394 605 -142 161 -199 235 -237 306 -58 108 -94 137 -125 99 -11 -14 -7 -28
31 -97 24 -45 60 -109 80 -142 20 -33 80 -146 133 -252 99 -197 132 -246 297
-434 95 -109 157 -198 254 -367 211 -368 280 -555 297 -802 24 -370 110 -725
211 -882 119 -184 157 -449 144 -1013 -9 -404 -22 -560 -62 -775 -79 -415 -96
-531 -119 -790 -40 -455 -106 -861 -205 -1260 -60 -239 -248 -890 -273 -940
-16 -32 -34 -51 -62 -65 -93 -47 -315 -309 -405 -477 -24 -46 -46 -76 -51 -71
-5 5 -16 85 -25 178 l-17 170 67 125 c96 178 213 327 287 366 32 16 56 10 119
-32 22 -15 42 -25 45 -23 11 12 -42 71 -82 90 -41 20 -51 21 -91 10 -89 -23
-180 -108 -300 -278 -36 -51 -70 -93 -76 -93 -6 0 -35 52 -65 115 -99 212
-184 317 -322 398 -65 38 -109 48 -109 24 0 -17 34 -47 90 -80 148 -85 294
-350 307 -558 l6 -86 -57 -127 c-100 -226 -220 -565 -302 -853 -16 -57 -32
-103 -35 -103 -4 0 -9 208 -12 463 -4 359 -9 478 -21 532 -8 39 -22 102 -30
140 -8 39 -15 92 -16 118 0 26 -7 64 -15 84 -23 54 -28 128 -16 222 12 94 28
121 73 121 58 0 134 -64 178 -150 57 -112 89 -388 56 -480 -23 -61 -23 -62 -9
-67 7 -2 21 13 32 35 61 119 46 389 -31 555 -86 185 -288 236 -359 90 -22 -44
-24 -60 -23 -188 1 -105 8 -180 29 -300 27 -154 28 -176 32 -575 8 -640 -28
-1364 -92 -1893 -27 -221 -44 -291 -58 -234 -15 58 -49 458 -67 782 -11 198
-24 398 -30 445 -18 155 -40 589 -40 794 0 277 14 444 57 691 28 157 37 239
37 325 1 108 -1 118 -26 162 -36 60 -81 88 -142 88 -127 0 -245 -142 -282
-341 -24 -123 -16 -328 14 -386 23 -45 37 -58 46 -45 7 11 -12 139 -26 175
-10 27 -9 39 32 247 22 110 27 129 44 145 9 9 16 23 16 30 0 20 58 62 110 80
57 20 96 12 115 -26 37 -70 30 -163 -30 -439 -70 -319 -68 -299 -74 -780 l-6
-445 -54 185 c-82 285 -112 371 -228 653 l-106 261 12 75 c26 158 130 413 207
507 18 23 58 58 87 77 29 20 59 43 66 51 12 14 10 16 -8 16 -33 0 -115 -34
-156 -65 -87 -67 -173 -209 -235 -389 -22 -66 -42 -122 -44 -124 -2 -2 -25 32
-51 75 -137 227 -270 352 -373 353 -42 0 -98 -25 -117 -53 -10 -14 -18 -18
-25 -11 -13 13 -52 254 -90 554 -79 641 -99 974 -81 1343 14 295 19 486 31
1167 7 356 14 539 25 620 32 238 89 541 135 725 27 105 60 258 74 340 32 185
142 663 201 870 43 152 65 301 76 500 22 423 92 731 248 1083 117 267 150 376
215 712 20 102 45 216 56 254 18 65 19 86 1 86 -4 0 -15 -8 -23 -17z m-667
-8241 c69 -44 167 -183 275 -391 49 -94 49 -94 48 -190 0 -53 -6 -143 -13
-200 -16 -121 -12 -122 -91 24 -74 136 -165 263 -278 384 -107 115 -125 144
-136 224 -11 71 7 113 62 148 57 36 77 36 133 1z m2399 -376 c0 -27 -82 -250
-146 -399 -182 -419 -211 -499 -363 -994 -150 -490 -167 -534 -107 -274 63
268 97 492 116 760 12 175 25 221 101 374 92 182 226 383 332 495 51 53 67 62
67 38z m-2457 -119 c73 -97 168 -256 253 -422 l81 -160 7 -170 c9 -224 23
-380 51 -550 12 -77 21 -142 19 -144 -3 -3 -23 62 -139 438 -31 102 -88 270
-127 375 -103 281 -218 646 -218 696 0 21 30 -5 73 -63z m1859 -168 c2 -6 1
-37 -3 -68 -13 -102 -10 -264 5 -293 12 -23 12 -31 -2 -62 -9 -20 -20 -36 -24
-36 -5 0 -29 -42 -54 -92 -34 -70 -44 -101 -40 -125 3 -23 -1 -36 -16 -50 -32
-28 -58 -93 -58 -145 0 -27 -4 -48 -10 -48 -5 0 -10 -7 -10 -16 0 -9 -9 -18
-20 -21 -20 -5 -29 -33 -10 -33 21 0 9 -51 -20 -82 -16 -17 -30 -36 -30 -42 0
-6 -11 -38 -25 -71 -22 -56 -23 -62 -8 -84 14 -22 14 -24 -2 -17 -14 5 -16 2
-12 -15 4 -15 0 -23 -14 -26 -23 -6 -24 -16 -4 -33 15 -13 10 -70 -8 -81 -5
-4 -7 -15 -3 -24 4 -12 -1 -23 -15 -33 -12 -8 -30 -33 -40 -56 -18 -40 -19
-40 -18 -11 0 17 8 55 19 85 11 30 20 75 20 100 0 25 7 95 15 155 13 99 26
164 97 470 21 90 49 167 71 193 6 8 10 33 8 56 -3 47 14 100 29 91 6 -3 10 4
10 17 0 22 35 133 87 278 36 102 73 154 85 119z m-1278 -307 c76 -229 129
-419 141 -502 11 -76 56 -274 66 -292 10 -20 54 -233 68 -335 5 -38 17 -93 25
-123 17 -60 22 -207 6 -179 -5 9 -15 49 -21 90 -6 41 -17 86 -25 101 -8 15
-14 40 -14 56 0 16 -9 49 -19 73 -11 24 -26 83 -35 131 -8 48 -22 97 -30 110
-8 13 -24 59 -36 103 -26 99 -160 442 -223 573 -30 63 -30 64 -24 185 11 209
18 259 33 246 7 -6 47 -113 88 -237z m-95 -436 c47 -57 275 -900 321 -1189 9
-55 10 -81 2 -89 -18 -18 -36 33 -34 105 0 37 -3 67 -9 67 -5 0 -9 11 -9 24 0
14 -5 28 -10 31 -8 5 -8 11 0 20 8 10 8 24 -1 54 -13 44 -18 48 -37 29 -9 -9
-12 -7 -12 10 0 13 7 25 15 28 24 10 17 34 -10 34 -14 0 -29 8 -35 19 -13 25
-13 78 0 86 16 10 11 21 -15 33 -28 13 -33 37 -10 46 24 9 17 26 -10 26 -30 0
-34 26 -7 46 16 13 16 14 -5 20 -19 5 -23 13 -23 45 0 21 -5 41 -11 44 -6 4
-7 19 -4 36 6 24 4 28 -10 23 -15 -6 -15 -4 -4 14 12 19 11 24 -9 42 -15 15
-20 28 -16 44 4 17 -1 25 -23 35 l-28 13 23 9 c27 10 25 29 -5 44 -19 10 -19
12 -5 34 14 21 14 26 -2 55 -9 17 -14 39 -11 48 4 9 2 19 -4 23 -6 3 -11 19
-11 36 0 19 -5 29 -15 29 -15 0 -21 21 -8 33 10 10 19 8 32 -7z m1329 -88
c-10 -51 -23 -129 -29 -173 -6 -44 -28 -135 -49 -203 -22 -68 -49 -174 -61
-235 -11 -62 -37 -152 -57 -202 -19 -49 -46 -121 -59 -160 l-23 -70 6 55 c9
95 94 459 140 604 25 76 62 202 84 280 39 144 56 196 63 196 3 0 -4 -42 -15
-92z m-1381 -550 c-3 -8 -6 -5 -6 6 -1 11 2 17 5 13 3 -3 4 -12 1 -19z m493
-490 c0 -16 -3 -19 -11 -11 -6 6 -8 16 -5 22 11 17 16 13 16 -11z m30 -173 c0
-8 -7 -15 -15 -15 -8 0 -15 7 -15 15 0 8 7 15 15 15 8 0 15 -7 15 -15z"/>
<path d="M1090 4876 c0 -9 7 -16 16 -16 9 0 14 5 12 12 -6 18 -28 21 -28 4z"/>
</g>
</svg>
