<?xml version="1.0" standalone="no"?>
<!DOCTYPE svg PUBLIC "-//W3C//DTD SVG 20010904//EN"
 "http://www.w3.org/TR/2001/REC-SVG-20010904/DTD/svg10.dtd">
<svg version="1.0" xmlns="http://www.w3.org/2000/svg"
 width="1536.000000pt" height="880.000000pt" viewBox="0 0 1536.000000 880.000000"
 preserveAspectRatio="xMidYMid meet">
<metadata>
Created by potrace 1.16, written by Peter Selinger 2001-2019
</metadata>
<g transform="translate(0.000000,880.000000) scale(0.100000,-0.100000)"
fill="#000000" stroke="none">
<path d="M10650 8794 c-68 -14 -146 -37 -157 -46 -7 -6 -75 -12 -150 -13 -142
-3 -420 -39 -593 -76 -97 -21 -796 -208 -950 -254 -283 -84 -588 -216 -788
-339 -122 -76 -287 -199 -307 -229 -8 -13 -22 -71 -31 -130 l-15 -105 35 -106
c37 -111 59 -147 238 -392 232 -317 292 -491 254 -728 -37 -227 -101 -444
-198 -670 -144 -338 -224 -470 -410 -681 -62 -70 -129 -146 -149 -168 l-35
-40 -135 24 c-123 22 -159 24 -449 24 -289 0 -324 -2 -422 -23 -191 -40 -393
-145 -501 -261 -61 -66 -61 -81 6 -104 55 -20 60 -21 257 -63 140 -30 158 -37
221 -90 24 -20 79 -57 122 -82 43 -25 76 -50 74 -56 -4 -13 -307 -157 -455
-216 -108 -43 -237 -76 -437 -110 -224 -38 -342 -42 -885 -25 -278 8 -732 19
-1010 25 -460 8 -529 12 -775 40 -148 17 -329 37 -402 45 -135 14 -161 22
-456 129 -226 83 -486 94 -767 34 -325 -69 -473 -162 -609 -385 -37 -61 -84
-122 -115 -150 -89 -81 -396 -295 -487 -340 -57 -27 -98 -55 -118 -80 -35 -42
-56 -104 -47 -139 6 -23 10 -24 95 -24 49 0 124 7 167 16 69 15 99 15 234 5
85 -7 216 -13 290 -14 122 -2 148 -6 275 -42 135 -37 145 -39 290 -38 120 0
197 8 390 37 249 38 568 79 905 117 171 19 250 22 635 22 364 1 462 -2 565
-17 273 -37 498 -94 747 -187 76 -28 192 -69 258 -91 111 -37 234 -84 520
-201 61 -25 171 -68 245 -97 146 -57 311 -142 376 -195 54 -44 343 -211 505
-291 346 -171 1255 -500 1688 -610 193 -49 435 -92 724 -129 106 -13 226 -31
267 -40 169 -34 833 -44 1085 -16 50 6 223 24 385 41 162 17 358 40 434 51
119 18 175 20 380 16 133 -2 345 -10 471 -17 203 -11 258 -11 469 4 131 9 280
24 330 33 93 16 683 181 813 227 64 23 88 26 207 26 166 0 312 14 399 39 l67
20 143 -30 c78 -16 225 -49 327 -74 244 -59 302 -67 357 -53 54 13 103 57 103
91 0 27 16 37 59 37 15 0 52 12 82 27 84 43 91 97 22 174 -37 41 -37 41 -20
71 22 39 21 59 -4 113 -24 51 -69 98 -109 115 -15 6 -32 22 -38 35 -36 78
-274 202 -543 283 -595 179 -817 237 -1145 297 -209 38 -240 48 -424 128 -69
30 -181 73 -250 95 -69 23 -253 84 -410 136 -157 53 -303 100 -325 105 -40 10
-40 11 -53 75 -12 64 -12 65 23 138 38 78 43 123 20 167 -13 26 -13 30 6 47
31 28 69 107 104 219 31 96 32 101 18 153 l-14 55 30 31 c34 36 65 100 81 170
8 38 7 61 -5 108 -20 80 -19 93 9 112 14 8 39 45 57 81 42 85 49 174 22 260
l-20 61 44 49 c43 49 79 128 90 193 3 19 -2 69 -12 112 l-18 77 32 46 c30 44
31 49 31 155 0 60 -5 124 -11 141 -11 31 -10 34 25 63 71 58 97 144 72 231
-23 80 -20 115 14 166 39 57 38 85 -5 167 l-35 67 35 38 c19 22 35 49 35 60 0
44 -25 104 -57 136 l-34 33 20 37 19 38 -29 58 c-25 49 -29 65 -23 106 6 47 5
49 -30 70 -46 29 -66 58 -66 95 0 17 -12 47 -26 67 -31 46 -43 94 -44 177 l0
62 28 -7 c72 -21 152 3 174 52 l11 24 28 -24 c66 -55 256 -98 335 -76 32 8 45
18 54 42 10 24 18 29 34 25 128 -30 183 -29 247 6 l36 20 49 -25 c92 -47 194
-45 209 4 8 24 18 24 97 -1 112 -35 182 -24 218 35 l20 33 63 -14 c159 -34
243 -25 241 24 -1 27 1 27 143 3 250 -44 303 -38 303 31 0 58 -123 148 -290
211 -79 30 -82 32 -49 35 60 5 209 -34 338 -88 197 -83 381 -121 410 -86 9 11
8 18 -6 32 -26 26 -258 135 -395 185 -64 24 -116 45 -114 46 1 1 48 -6 105
-17 115 -22 286 -26 341 -7 43 15 50 44 18 74 -74 70 -556 248 -983 365 -82
22 -157 45 -165 50 -15 9 137 6 471 -8 117 -5 162 -3 220 10 159 35 223 89
145 121 -39 16 -293 81 -486 124 -155 34 -472 84 -640 101 -63 6 -254 27 -425
46 -179 20 -409 39 -545 44 -129 5 -260 12 -290 15 -30 3 -194 10 -365 16
-170 5 -391 17 -490 25 -178 15 -747 27 -795 18z"/>
<path d="M13960 10 c0 -5 5 -10 10 -10 6 0 10 5 10 10 0 6 -4 10 -10 10 -5 0
-10 -4 -10 -10z"/>
</g>
</svg>
