<?xml version="1.0" standalone="no"?>
<!DOCTYPE svg PUBLIC "-//W3C//DTD SVG 20010904//EN"
 "http://www.w3.org/TR/2001/REC-SVG-20010904/DTD/svg10.dtd">
<svg version="1.0" xmlns="http://www.w3.org/2000/svg"
 width="1534.000000pt" height="1536.000000pt" viewBox="0 0 1534.000000 1536.000000"
 preserveAspectRatio="xMidYMid meet">
<metadata>
Created by potrace 1.16, written by Peter Selinger 2001-2019
</metadata>
<g transform="translate(0.000000,1536.000000) scale(0.100000,-0.100000)"
fill="#000000" stroke="none">
<path d="M9035 15349 c-199 -10 -379 -31 -470 -54 -98 -25 -160 -62 -254 -149
-102 -93 -161 -129 -243 -146 -77 -15 -162 -72 -283 -190 -116 -113 -191 -164
-272 -185 -70 -18 -131 -58 -248 -162 -257 -229 -657 -730 -785 -983 -123
-245 -182 -541 -151 -761 40 -280 173 -606 291 -713 39 -35 53 -40 95 -36 93
9 95 136 4 214 -65 55 -73 87 -73 276 0 372 106 807 245 1014 176 259 632 694
974 928 140 96 216 134 318 159 45 11 165 48 266 81 172 58 185 61 210 47 61
-34 24 -151 -97 -312 -32 -43 -128 -150 -213 -239 -224 -234 -357 -401 -452
-564 -133 -228 -245 -753 -235 -1104 3 -109 7 -143 23 -175 26 -52 54 -56 89
-15 37 45 54 116 66 275 14 206 54 341 156 535 209 394 706 918 1109 1168 487
301 1055 351 1621 142 617 -229 1225 -745 1567 -1331 78 -134 228 -441 255
-522 28 -86 29 -150 2 -177 -19 -19 -32 -20 -207 -17 -210 2 -235 -4 -274 -66
-35 -58 -40 -99 -50 -377 -5 -151 -13 -305 -19 -342 -24 -162 -91 -267 -302
-478 -258 -256 -449 -407 -640 -504 -118 -60 -180 -81 -368 -121 -238 -51
-618 -191 -834 -309 -46 -25 -118 -70 -160 -101 -89 -63 -151 -86 -316 -115
-514 -89 -1448 -142 -2825 -160 -390 -5 -775 -14 -855 -20 -184 -14 -449 -46
-484 -60 -168 -63 -659 -142 -1431 -230 -847 -96 -1160 -150 -1379 -237 -168
-67 -141 -46 -921 -686 -240 -198 -491 -409 -558 -471 -431 -398 -751 -898
-848 -1323 -29 -131 -36 -299 -15 -403 36 -180 108 -353 232 -556 154 -255
237 -485 218 -605 -13 -78 23 -327 82 -567 51 -208 64 -323 64 -587 0 -251
-10 -392 -41 -615 -39 -280 -121 -584 -189 -707 -17 -29 -44 -77 -60 -107 -85
-151 -122 -356 -135 -736 -12 -363 -48 -660 -121 -990 -72 -325 -106 -537
-108 -676 -1 -109 1 -124 19 -144 47 -51 62 -54 338 -58 245 -4 257 -3 257 15
0 10 -15 171 -34 358 -45 438 -50 548 -37 725 34 438 155 820 442 1385 64 127
156 300 204 385 264 467 362 712 396 992 26 212 79 268 260 268 188 0 247 -57
280 -273 7 -43 20 -88 29 -100 23 -28 40 -20 150 73 103 86 191 132 266 138
50 4 56 2 83 -26 113 -122 72 -706 -84 -1192 -21 -63 -89 -236 -153 -385 -63
-148 -115 -274 -115 -280 0 -5 64 -152 142 -325 149 -330 207 -477 265 -676
76 -261 110 -464 120 -714 4 -85 9 -204 13 -263 l6 -109 341 4 c288 3 347 6
378 20 40 18 58 43 58 82 0 65 -100 319 -250 636 -89 187 -121 278 -153 435
-19 97 -22 140 -22 375 0 283 6 340 56 588 59 284 144 528 309 877 65 138 136
293 158 345 48 114 112 295 112 318 0 10 5 34 10 54 9 31 19 41 63 62 94 45
245 61 734 76 866 26 1105 40 1438 81 230 29 337 59 626 177 418 171 674 248
851 259 218 13 275 -46 382 -399 133 -439 201 -1156 176 -1842 -19 -526 -61
-869 -166 -1370 -75 -357 -96 -487 -98 -586 -1 -100 13 -134 64 -164 32 -19
54 -21 283 -24 l247 -4 0 109 c0 59 -7 360 -15 668 -23 872 -19 1162 20 1390
23 132 49 212 127 389 81 186 126 315 129 371 1 22 -5 61 -14 86 -58 168 -87
806 -44 967 19 71 49 102 99 102 264 0 415 -615 538 -2190 39 -512 71 -1033
90 -1480 6 -140 16 -273 21 -294 17 -61 54 -91 130 -105 85 -14 420 -13 479 2
67 18 67 50 0 165 -67 117 -101 199 -150 367 -79 270 -153 700 -181 1047 -17
215 -7 470 24 648 34 189 54 379 67 620 12 223 24 318 51 407 24 75 55 114
114 143 83 40 152 148 191 295 14 53 19 106 19 215 -1 130 -4 159 -34 280 -63
258 -40 315 275 675 172 198 255 300 434 540 521 697 1097 1623 1425 2290 166
337 245 552 245 665 0 301 346 606 795 701 267 56 431 25 518 -97 77 -109 102
-248 117 -659 6 -180 14 -291 25 -334 34 -140 131 -272 299 -407 82 -66 222
-144 258 -144 11 0 37 17 58 38 68 67 95 208 87 442 -9 230 -39 347 -132 510
-86 150 -112 244 -94 331 13 58 47 102 98 128 58 29 88 33 251 32 227 -2 334
32 441 138 109 110 152 267 114 416 -72 274 -413 821 -775 1240 -131 152 -173
211 -227 320 -85 169 -135 353 -208 770 -132 753 -324 1413 -550 1891 -118
251 -214 387 -357 511 -145 124 -228 244 -242 348 -16 118 -56 168 -144 178
-61 7 -141 45 -204 99 -93 77 -226 119 -430 138 -213 19 -448 82 -659 176
-279 124 -448 148 -754 104 -240 -34 -389 -25 -496 31 -113 59 -284 78 -734
84 -181 2 -411 -1 -510 -6z"/>
</g>
</svg>
