<?xml version="1.0" encoding="UTF-8" standalone="no"?>
<!-- Created with Inkscape (http://www.inkscape.org/) -->

<svg
   version="1.1"
   width="391"
   height="167"
   viewBox="0 0 391 167"
   id="Layer_1"
   xml:space="preserve"
   xmlns="http://www.w3.org/2000/svg"
   xmlns:svg="http://www.w3.org/2000/svg"><defs
   id="defs15" />
    
    <g
   id="g3">
        
        <g
   id="g5">
            
            <path
   d="m 177,0 c -20.904,6.763 -30.244,25.09 -42,41 -26.443,3.142 -65.061,4.48 -92,11 -6.655,1.61 -14.193,5.277 -23,9 -6.722,2.842 -18.676,5.437 -19,12 -0.249,5.051 3.986,6.723 8,9 3.815,2.165 7.884,4.263 12,4 8.556,11.062 30.696,13.232 47,18 12.134,3.549 24.541,5.51 36,8 16.338,17.662 26.297,41.702 47,55 -50.333,0 -100.667,0 -151,0 C 0,111.334 0,55.667 0,0 59,0 118,0 177,0 Z"
   id="path7"
   style="fill:#ffffff;fill-rule:evenodd" />
            
            <path
   d="m 177,0 c 0.667,0 1.333,0 2,0 2.238,6.261 -1.806,10.931 -2,17 -0.305,9.549 3.249,16.985 6,22 1.499,2.168 5.004,2.329 5,6 -2.656,0.01 -5.711,-0.378 -7,1 28.222,3.864 63.826,7.87 91,16 5.27,-0.064 7.34,-3.327 13,-3 1.786,2.544 -1.109,4.877 2,7 6.043,0.831 11.405,2.643 17,4 5.933,1.439 13.045,4.239 18,3 3.49,-0.873 6.076,-5.277 9,-9 6.938,-8.836 10.776,-13.235 19,-19 3.917,-2.746 7.878,-4.572 12,-7 7.448,-4.387 16.37,-11.464 28,-10 -1.711,5.289 -7.298,6.702 -7,14 -3.458,-0.792 -4.222,1.112 -6,2 -2.932,5.096 -7.563,9.646 -11,15 -3.182,4.955 -7.238,11.411 -8,18 -1.03,8.908 3.433,24.838 6,33 0.452,1.437 2.467,2.568 3,4 0.849,2.278 0.231,4.476 1,6 1.957,3.882 5.253,5.648 5,8 -13.44,0.829 -21.954,-5.221 -27,-12 -1.961,-2.634 -2.984,-6.611 -5,-9 -3.003,-3.56 -7.243,-5.422 -10,-9 -3.45,-4.479 -4.574,-9.914 -9,-13 -8.129,1.204 -15.769,2.898 -25,3 -3.629,-0.962 -0.84,4.493 -4,4 -4.447,0.447 -7.289,-0.711 -10,-2 -11.106,4.894 -32.322,-0.322 -38,10 -5.681,-0.653 -13.981,1.315 -18,-1 -1.529,3.835 -8.409,4.473 -14,6 -22.635,6.184 -45.955,10.363 -72,11 3.213,17.787 8.303,33.697 12,51 -0.667,0 -1.333,0 -2,0 C 130.297,153.702 120.338,129.662 104,112 92.541,109.51 80.134,107.549 68,104 51.696,99.232 29.556,97.062 21,86 16.884,86.263 12.815,84.165 9,82 4.986,79.723 0.751,78.051 1,73 1.324,66.437 13.278,63.842 20,61 28.807,57.277 36.345,53.61 43,52 69.939,45.48 108.557,44.142 135,41 146.756,25.09 156.096,6.763 177,0 Z"
   id="path9"
   style="fill-rule:evenodd" />
            
            <path
   d="m 153,167 c -3.697,-17.303 -8.787,-33.213 -12,-51 26.045,-0.637 49.365,-4.816 72,-11 5.591,-1.527 12.471,-2.165 14,-6 4.019,2.315 12.319,0.347 18,1 5.678,-10.322 26.894,-5.106 38,-10 2.711,1.289 5.553,2.447 10,2 3.16,0.493 0.371,-4.962 4,-4 9.231,-0.102 16.871,-1.796 25,-3 4.426,3.086 5.55,8.521 9,13 2.757,3.578 6.997,5.44 10,9 2.016,2.389 3.039,6.366 5,9 5.046,6.779 13.56,12.829 27,12 0.253,-2.352 -3.043,-4.118 -5,-8 -0.769,-1.524 -0.151,-3.722 -1,-6 -0.533,-1.432 -2.548,-2.563 -3,-4 -2.567,-8.162 -7.03,-24.092 -6,-33 0.762,-6.589 4.818,-13.045 8,-18 3.438,-5.354 8.068,-9.904 11,-15 1.778,-0.888 2.542,-2.792 6,-2 -0.298,-7.298 5.289,-8.711 7,-14 -11.63,-1.464 -20.552,5.613 -28,10 -4.122,2.428 -8.083,4.254 -12,7 -8.224,5.765 -12.062,10.164 -19,19 -2.924,3.723 -5.51,8.127 -9,9 -4.955,1.239 -12.067,-1.561 -18,-3 -5.595,-1.357 -10.957,-3.169 -17,-4 -3.109,-2.123 -0.214,-4.456 -2,-7 -5.66,-0.327 -7.73,2.936 -13,3 -27.174,-8.13 -62.778,-12.136 -91,-16 1.289,-1.378 4.344,-0.99 7,-1 0.004,-3.671 -3.501,-3.832 -5,-6 -2.751,-5.015 -6.305,-12.451 -6,-22 0.194,-6.069 4.238,-10.739 2,-17 70.667,0 141.333,0 212,0 0,55.667 0,111.334 0,167 -79.334,0 -158.665,0 -238,0 z"
   id="path11"
   style="fill:#ffffff;fill-rule:evenodd" />
            
        </g>
        
    </g>
    
</svg>
