<?xml version="1.0" standalone="no"?>
<!DOCTYPE svg PUBLIC "-//W3C//DTD SVG 20010904//EN"
 "http://www.w3.org/TR/2001/REC-SVG-20010904/DTD/svg10.dtd">
<svg version="1.0" xmlns="http://www.w3.org/2000/svg"
 width="1381.000000pt" height="1536.000000pt" viewBox="0 0 1381.000000 1536.000000"
 preserveAspectRatio="xMidYMid meet">
<metadata>
Created by potrace 1.16, written by Peter Selinger 2001-2019
</metadata>
<g transform="translate(0.000000,1536.000000) scale(0.100000,-0.100000)"
fill="#000000" stroke="none">
<path d="M7145 15342 c-40 -25 -52 -41 -70 -92 -36 -102 -39 -164 -40 -820 -1
-685 -4 -736 -52 -873 -36 -100 -121 -166 -216 -167 -85 0 -111 53 -144 290
-19 140 -25 679 -10 935 11 185 7 190 -76 104 -70 -74 -97 -84 -178 -69 -79
15 -226 67 -303 108 -102 53 -161 115 -175 183 -19 92 -55 158 -96 175 -33 13
-39 13 -79 -5 -24 -10 -79 -52 -122 -91 -86 -80 -195 -140 -254 -140 -44 0
-115 -32 -129 -58 -6 -11 -13 -39 -17 -63 -4 -24 -11 -50 -17 -56 -12 -16 -58
-17 -108 -1 -22 6 -42 8 -46 5 -9 -10 28 -59 137 -182 167 -188 261 -335 276
-431 8 -57 0 -77 -53 -129 -43 -43 -45 -48 -40 -88 3 -24 22 -81 43 -128 57
-133 65 -159 50 -159 -22 0 -104 79 -131 125 -14 23 -32 77 -40 120 -8 43 -24
96 -34 120 -50 112 -209 313 -296 373 -39 26 -57 33 -81 29 -45 -8 -85 21
-135 95 -72 108 -119 148 -173 148 -38 0 -40 -17 -7 -55 16 -19 37 -58 46 -87
19 -64 31 -270 18 -318 -14 -55 -42 -51 -162 25 -147 92 -166 88 -79 -17 29
-35 88 -101 131 -148 190 -204 372 -498 632 -1020 293 -587 486 -1082 560
-1438 67 -322 106 -426 185 -501 29 -28 50 -56 50 -68 0 -99 260 -797 290
-778 15 9 12 130 -10 340 -22 208 -25 295 -11 295 18 0 51 -53 66 -104 26 -94
36 -223 33 -473 -2 -137 1 -258 5 -269 4 -12 16 -24 27 -27 28 -7 41 -70 50
-256 4 -91 11 -173 15 -183 4 -10 40 -27 92 -43 80 -25 86 -25 110 -10 13 9
40 49 59 88 61 130 154 537 154 678 0 38 4 69 8 69 5 0 14 -24 21 -53 13 -60
35 -97 57 -97 8 0 41 18 73 41 73 51 97 50 94 -8 -2 -54 -45 -177 -101 -288
-55 -112 -78 -144 -108 -155 -24 -9 -24 -12 -24 -142 0 -146 -10 -197 -46
-245 -30 -40 -101 -63 -189 -63 -75 0 -122 -15 -131 -42 -3 -11 -3 -40 1 -64
l6 -45 -71 36 c-39 19 -116 69 -171 110 -55 41 -110 75 -122 75 -91 0 -154 53
-214 177 -47 96 -93 149 -122 138 -58 -23 -166 -7 -267 41 -56 26 -72 54 -31
54 53 0 70 55 43 143 -8 26 -10 47 -6 47 5 0 36 -33 68 -73 77 -94 91 -105
103 -86 5 8 9 37 9 65 0 66 17 89 58 81 60 -12 71 28 81 290 l6 178 76 -115
c86 -129 105 -173 90 -214 -6 -14 -15 -26 -21 -26 -6 0 -20 -21 -32 -47 -24
-54 -21 -118 9 -217 30 -98 43 -84 77 86 53 262 -30 597 -240 965 -119 208
-171 345 -218 579 -39 191 -73 267 -126 279 -28 6 -31 10 -25 36 10 44 -41
128 -179 296 -67 82 -197 243 -290 358 -332 411 -509 561 -738 625 -195 54
-535 84 -948 85 -337 0 -440 -9 -509 -43 -87 -43 -74 -70 139 -281 218 -216
234 -250 120 -251 -100 -1 -91 -33 37 -145 150 -131 223 -176 340 -206 219
-56 1127 -564 1370 -767 123 -103 272 -302 371 -496 31 -61 59 -115 61 -120 6
-15 -89 53 -179 128 -47 38 -184 167 -305 286 -238 234 -334 321 -463 418
-259 198 -536 318 -912 397 -96 21 -267 58 -380 83 -113 25 -225 49 -250 55
-84 18 -147 -28 -157 -116 -9 -76 9 -87 257 -156 327 -91 494 -135 739 -196
123 -31 236 -62 250 -70 l26 -13 -28 -7 c-34 -9 -138 -1 -297 23 -138 20 -510
22 -695 3 -301 -30 -547 -79 -645 -128 l-55 -28 -3 -87 -3 -87 28 -8 c44 -12
467 -8 583 6 58 6 159 21 225 32 65 11 129 18 142 14 26 -6 30 -35 12 -98 -17
-61 10 -104 92 -143 85 -42 98 -57 67 -78 -50 -33 -258 -49 -853 -66 -463 -14
-605 -25 -623 -48 -37 -48 62 -213 157 -261 78 -40 230 -34 425 15 321 81 938
139 1311 123 171 -8 240 -32 168 -60 -35 -13 -294 -28 -489 -29 -336 0 -517
-35 -851 -161 -257 -97 -357 -122 -455 -114 -71 6 -78 5 -98 -17 -41 -44 -6
-99 95 -149 75 -37 153 -46 235 -29 84 18 90 10 61 -83 -13 -41 -22 -80 -19
-87 2 -7 32 12 78 49 106 87 194 129 310 146 106 16 187 51 263 114 76 64 200
100 467 137 178 25 643 26 749 1 77 -17 151 -57 151 -81 0 -19 -38 -24 -230
-31 -311 -11 -462 -31 -775 -100 -110 -24 -254 -53 -320 -64 -149 -26 -236
-50 -365 -101 -321 -128 -464 -249 -242 -204 69 13 190 53 537 174 126 44 233
66 247 52 17 -17 -51 -58 -217 -132 -337 -150 -563 -309 -634 -448 -50 -98 -4
-212 85 -212 70 0 245 68 414 161 101 56 166 98 270 179 61 47 100 63 100 40
0 -31 75 6 153 77 21 18 54 41 73 50 35 17 35 17 57 -10 40 -50 139 -59 322
-32 124 19 231 47 363 97 115 43 182 60 182 47 0 -13 -71 -62 -195 -136 -131
-78 -210 -135 -370 -268 -346 -287 -866 -805 -966 -963 -34 -55 -37 -84 -8
-113 19 -19 30 -21 93 -17 92 7 164 32 366 128 194 92 236 110 261 110 17 0
17 -2 0 -52 -11 -29 -51 -133 -90 -231 -123 -311 -120 -376 22 -377 104 0 171
61 292 265 142 240 458 696 472 681 3 -3 -42 -108 -100 -233 -128 -275 -140
-305 -171 -430 -64 -253 -62 -544 3 -633 58 -80 113 -65 251 65 97 92 178 145
220 145 23 0 83 57 128 121 16 25 100 184 186 354 242 482 487 897 593 1002
62 62 159 106 237 107 63 1 121 -16 129 -38 12 -30 -56 -126 -236 -333 -200
-229 -423 -612 -501 -861 -51 -163 -60 -249 -60 -592 0 -173 6 -369 13 -435
47 -473 147 -861 304 -1185 82 -169 171 -292 336 -464 82 -85 161 -171 176
-190 32 -43 33 -30 -15 -441 -42 -361 -51 -484 -59 -820 -7 -324 0 -570 20
-650 17 -71 35 -103 91 -163 27 -29 62 -80 78 -115 83 -185 117 -397 62 -397
-80 0 -1052 1013 -1527 1592 -681 832 -1486 2102 -2068 3268 -187 374 -268
550 -414 905 -89 217 -192 436 -318 675 -59 114 -118 287 -160 472 -14 64 -38
141 -53 170 -23 45 -31 53 -52 50 -108 -14 -601 -349 -801 -544 -203 -197
-352 -532 -439 -983 -68 -359 -77 -864 -24 -1395 71 -703 278 -1324 668 -2003
269 -467 605 -887 1127 -1403 301 -298 501 -476 783 -698 278 -219 519 -380
1166 -778 674 -414 1112 -667 1694 -979 130 -70 240 -153 356 -269 175 -175
300 -368 318 -492 16 -105 132 -259 239 -315 107 -57 194 -78 328 -78 103 0
127 4 170 23 27 13 56 29 65 36 25 22 79 35 190 47 90 9 114 15 172 47 37 20
98 60 134 89 37 29 74 53 83 53 36 0 244 52 369 92 164 52 158 47 373 335 182
244 280 351 399 436 150 106 360 287 663 570 390 365 643 587 952 836 354 286
607 465 920 651 616 366 1094 739 1483 1160 679 734 1047 1523 1113 2390 22
286 0 522 -76 825 -55 218 -118 392 -210 580 -86 176 -144 265 -246 382 -148
170 -205 261 -234 372 -33 129 -68 143 -150 58 -67 -69 -137 -184 -286 -468
-186 -357 -346 -615 -587 -949 -365 -505 -834 -1057 -1562 -1840 -659 -709
-1025 -1124 -1496 -1700 -503 -615 -624 -740 -624 -640 0 80 135 420 285 715
104 207 155 288 250 400 92 109 271 355 455 625 220 321 606 869 949 1345
1025 1425 1034 1438 1196 1930 301 907 284 1363 -63 1703 -66 65 -93 83 -226
148 -99 49 -139 72 -116 69 176 -26 382 -48 460 -49 112 -1 150 15 150 62 0
69 56 92 172 73 85 -14 140 -2 164 35 46 69 -56 189 -245 289 l-113 60 115 7
c132 8 180 19 228 51 143 96 -6 436 -192 437 -45 0 -96 17 -103 35 -18 47 111
71 287 54 79 -7 122 -8 129 -1 22 22 -243 122 -474 178 -65 15 -115 31 -110
35 4 4 54 14 112 24 183 29 277 64 339 125 57 58 36 90 -66 101 -72 7 -93 20
-77 46 16 25 79 43 189 55 150 15 192 45 159 114 -36 75 -145 127 -389 183
-99 23 -181 43 -183 45 -1 2 68 30 155 61 359 132 446 196 338 250 -36 17 -69
20 -325 26 -329 7 -350 11 -347 66 2 32 -1 37 -28 45 -44 12 -153 -7 -285 -51
-212 -71 -217 -71 -156 1 47 54 73 113 85 190 14 87 62 133 179 172 146 49
204 134 135 198 -42 38 -57 42 -207 47 l-139 6 129 114 c243 217 245 221 122
280 -63 30 -98 55 -146 105 -82 85 -136 106 -265 106 -117 0 -138 -12 -66 -35
30 -10 58 -21 63 -26 18 -16 -28 -50 -164 -119 -230 -116 -452 -272 -805 -566
-214 -177 -369 -295 -427 -325 -83 -42 -61 0 78 152 189 209 214 287 144 446
-27 62 -45 59 -152 -30 -27 -21 -48 -35 -48 -29 0 10 90 117 252 298 242 271
294 357 257 425 -12 24 -103 69 -137 69 -29 0 -36 -19 -24 -62 25 -90 -55
-206 -338 -489 -214 -214 -285 -278 -297 -265 -12 11 41 109 138 256 162 244
331 450 371 450 31 0 28 16 -12 55 -22 22 -40 49 -40 60 0 37 47 117 154 260
105 139 158 230 171 292 5 27 2 37 -19 58 -44 44 -121 33 -358 -54 -162 -59
-265 -83 -343 -79 -56 3 -60 5 -63 28 -1 14 18 105 43 204 50 196 53 234 27
286 -53 108 -173 55 -367 -162 -153 -170 -221 -208 -407 -227 -132 -13 -208
-40 -259 -93 -21 -22 -42 -37 -47 -34 -16 10 -23 73 -32 276 -11 259 -26 300
-115 300 -102 0 -105 -14 -116 -615 -15 -822 -26 -897 -157 -1022 -69 -67 -93
-69 -124 -10 -22 40 -23 52 -22 242 1 286 43 607 118 914 46 185 49 274 10
320 -36 43 -75 42 -102 -1 -70 -114 -180 -556 -277 -1108 -30 -171 -50 -230
-89 -255 -30 -20 -58 -13 -86 22 -28 35 -26 124 4 283 51 264 89 698 90 1045
1 221 -1 243 -19 280 -17 34 -25 40 -55 43 -21 1 -47 -5 -65 -16z m2013 -204
c19 -19 14 -81 -14 -191 -14 -56 -36 -159 -49 -228 -23 -124 -54 -218 -81
-240 -23 -19 -27 13 -8 82 42 158 38 175 -31 141 -25 -12 -48 -22 -50 -22 -13
0 -1 48 46 180 28 80 57 164 66 187 27 77 88 124 121 91z m-3100 -578 c21 -23
60 -81 86 -131 26 -49 51 -87 56 -84 4 2 11 35 15 72 12 117 47 142 106 76 79
-91 137 -279 164 -533 7 -65 -7 -146 -28 -167 -13 -13 -18 -13 -44 1 -17 8
-47 37 -68 64 -20 27 -55 60 -77 72 -37 20 -50 22 -142 17 -129 -6 -229 -36
-272 -82 -36 -38 -50 -84 -64 -210 -12 -104 -18 -127 -30 -120 -5 3 -39 98
-75 211 -76 235 -121 345 -176 426 -22 32 -39 62 -39 68 0 16 28 12 122 -16
48 -14 98 -24 110 -22 30 4 34 36 18 158 -14 111 -6 163 28 168 28 4 49 -38
58 -113 4 -34 13 -59 21 -62 7 -3 31 6 52 20 75 50 116 130 91 176 -9 17 -9
26 1 37 20 24 46 16 87 -26z m-1356 -347 c63 -65 81 -141 32 -131 -29 5 -104
168 -77 168 5 0 25 -17 45 -37z m3587 -139 c12 -15 21 -39 21 -54 0 -46 -37
-174 -83 -286 -100 -244 -368 -784 -389 -784 -36 0 85 426 175 621 40 85 61
163 76 294 17 145 73 235 147 235 23 0 38 -7 53 -26z m989 -36 c39 -39 -36
-174 -196 -353 -80 -88 -129 -158 -178 -250 -51 -94 -132 -178 -212 -219 -65
-33 -86 -34 -77 -3 16 51 106 230 163 320 126 201 307 416 406 483 54 36 75
41 94 22z m-660 -186 c2 -29 -4 -80 -13 -115 -42 -165 -258 -557 -307 -557
-33 0 55 262 168 499 73 154 122 233 138 228 6 -2 12 -27 14 -55z m-2418 -32
c36 -19 86 -223 114 -470 33 -287 47 -632 26 -645 -22 -13 -47 117 -90 470
-17 138 -43 315 -57 395 -31 173 -37 225 -29 245 6 18 11 18 36 5z m4374 -540
c20 -7 26 -16 26 -41 0 -26 -12 -44 -68 -98 -38 -37 -113 -97 -168 -133 -54
-35 -137 -90 -184 -120 -111 -73 -265 -202 -479 -401 -194 -180 -342 -336
-760 -795 -157 -171 -288 -312 -291 -312 -12 0 -111 249 -123 307 -15 70 0
126 58 218 100 161 414 490 441 462 8 -8 -29 -76 -141 -257 -104 -168 -135
-223 -118 -205 6 6 71 84 145 175 520 635 1125 1116 1513 1203 38 9 124 7 149
-3z m-3570 -472 c-17 -533 -3 -749 55 -873 34 -74 51 -77 51 -10 0 50 14 95
30 95 6 0 33 -21 61 -47 66 -61 121 -172 127 -254 5 -68 17 -83 33 -42 75 182
112 233 170 233 83 0 214 -154 329 -385 87 -176 123 -288 118 -370 l-3 -60 45
-23 c53 -27 84 -25 88 4 2 12 -21 93 -50 180 -49 148 -52 166 -53 259 l0 100
55 109 c56 111 112 187 126 173 4 -4 -3 -54 -16 -110 -45 -200 -39 -316 36
-605 51 -201 55 -263 20 -337 -28 -60 -137 -208 -281 -382 -143 -171 -142
-170 -100 -78 81 179 193 362 235 385 29 16 70 81 70 112 0 22 -5 28 -22 28
-25 0 -52 -16 -119 -72 -170 -141 -287 -75 -198 112 17 36 33 87 36 113 6 46
4 50 -35 90 -39 41 -92 128 -92 152 0 7 -7 18 -15 25 -13 11 -20 9 -41 -11
-26 -24 -104 -171 -104 -195 0 -16 36 -19 45 -4 3 6 17 10 31 10 54 0 18 -88
-101 -247 -58 -76 -117 -129 -135 -118 -20 12 11 88 65 164 14 19 25 46 25 60
0 29 -48 119 -76 141 -16 14 -17 13 -10 -10 43 -152 37 -165 -79 -157 -103 7
-182 34 -209 70 -15 21 -23 55 -31 146 -13 133 -29 171 -70 171 -30 0 -56 -38
-85 -126 -32 -95 -83 -134 -111 -82 -11 21 -8 107 6 154 4 12 -1 29 -13 44
-15 19 -24 22 -54 16 -77 -14 -185 -125 -213 -218 -14 -47 -13 -57 1 -110 13
-44 14 -62 6 -70 -21 -21 -63 11 -202 154 l-136 138 -28 -105 c-39 -145 -92
-201 -132 -140 -16 24 -16 38 1 107 6 24 3 29 -27 41 -18 8 -49 31 -67 52 -42
49 -101 171 -108 226 -6 39 -4 42 13 35 41 -17 56 -18 65 -5 22 35 3 117 -59
249 -43 91 -77 214 -102 371 -36 223 -70 387 -107 513 -68 231 -73 251 -73
283 0 18 4 33 9 33 17 0 88 -87 124 -151 95 -170 192 -441 313 -873 41 -148
79 -276 85 -285 20 -31 -9 264 -71 737 -32 236 -36 307 -20 317 31 19 99 -190
165 -505 28 -137 64 -260 75 -260 4 0 10 28 14 62 7 75 40 146 73 161 22 10
28 8 44 -11 10 -13 20 -44 23 -70 12 -95 26 -155 49 -205 28 -60 62 -105 72
-95 4 4 -5 57 -20 118 -25 102 -27 138 -6 114 4 -5 38 -46 75 -91 37 -46 74
-83 81 -83 18 0 23 31 31 190 4 74 10 144 14 155 7 18 9 17 29 -15 11 -19 21
-40 21 -46 0 -6 9 -19 20 -29 18 -16 22 -17 34 -4 22 24 35 77 47 193 14 141
1 294 -37 421 -16 54 -29 125 -32 177 -4 80 -2 93 22 142 31 63 64 108 75 101
5 -2 11 -36 15 -75 4 -38 11 -72 16 -75 9 -5 30 44 50 118 28 103 33 51 24
-235z m-3844 224 c0 -34 118 -134 346 -292 82 -57 212 -151 289 -209 142 -108
297 -252 278 -258 -33 -11 -703 366 -972 547 -94 63 -161 129 -161 159 0 14
13 24 43 35 108 40 177 47 177 18z m443 -47 c309 -51 483 -103 692 -207 238
-119 420 -274 631 -538 370 -465 599 -955 699 -1495 33 -175 46 -415 23 -415
-59 0 -104 159 -117 413 -5 100 -13 163 -20 170 -10 9 -24 -1 -61 -43 -56 -63
-58 -59 -38 57 16 95 6 140 -35 156 l-32 13 -1 115 c0 103 -3 123 -33 204 -64
177 -239 489 -353 631 -80 99 -318 307 -333 292 -8 -7 73 -121 222 -316 217
-283 423 -606 400 -628 -12 -13 -141 109 -752 716 -602 597 -611 606 -695 647
-66 33 -409 240 -429 259 -9 8 28 3 232 -31z m2385 -90 c17 -37 15 -120 -2
-134 -21 -18 -36 15 -36 78 0 80 16 104 38 56z m3322 -83 c0 -48 -106 -154
-375 -377 -223 -185 -382 -343 -432 -430 -44 -77 -60 -86 -68 -41 -19 99 98
305 284 498 144 151 295 258 470 334 87 39 121 43 121 16z m1510 -502 c0 -38
-328 -205 -361 -184 -27 17 108 105 245 161 84 34 116 40 116 23z m710 -209
c0 -17 -259 -100 -651 -207 -482 -131 -682 -156 -653 -81 9 23 98 81 173 111
134 54 469 123 776 160 72 9 144 17 160 19 63 8 195 7 195 -2z m-1540 -410 c0
-37 -308 -234 -402 -257 -100 -24 88 129 277 225 77 39 125 51 125 32z m700 1
c0 -32 -145 -114 -204 -116 -43 -1 -44 14 -4 47 61 49 208 98 208 69z m625
-147 c0 -27 -143 -98 -323 -158 -164 -55 -261 -77 -347 -77 -83 0 -112 12
-157 63 -45 51 -57 42 -58 -43 -1 -100 -46 -163 -151 -208 -25 -11 -92 -36
-150 -57 -126 -45 -237 -95 -300 -135 -69 -45 -89 -38 -89 30 0 21 14 41 58
82 67 61 145 105 356 197 82 37 151 72 154 80 4 11 -18 13 -129 9 -148 -6
-185 -16 -199 -52 -11 -29 -95 -88 -200 -141 -177 -89 -382 -247 -732 -564
-109 -99 -204 -168 -215 -158 -21 22 117 188 356 428 114 113 244 236 291 273
207 164 452 306 586 340 79 20 125 20 169 -1 19 -9 37 -14 41 -11 3 3 -4 24
-15 47 -44 86 -26 90 137 24 115 -46 119 -47 227 -46 84 0 137 7 225 27 250
59 336 75 400 73 58 -2 65 -4 65 -22z m-2956 -44 c42 -30 66 -88 65 -161 0
-77 -15 -110 -49 -110 -54 0 -104 101 -106 219 -2 80 27 97 90 52z m-4093 -30
c38 -17 94 -84 81 -98 -13 -13 -247 87 -247 106 0 19 121 13 166 -8z m4703
-223 c-33 -52 -39 -69 -34 -95 9 -49 -33 -127 -241 -445 -68 -104 -122 -188
-120 -188 1 0 81 86 177 192 278 307 424 446 445 425 32 -31 -388 -546 -599
-735 -82 -73 -117 -95 -170 -107 -37 -8 -67 -58 -67 -113 0 -83 32 -109 107
-87 67 21 93 19 93 -4 0 -35 -145 -131 -197 -131 -38 0 -56 56 -56 170 1 111
21 191 83 330 24 53 50 136 61 187 22 111 58 186 137 284 101 126 376 379 413
379 5 0 -10 -28 -32 -62z m-4574 -52 c141 -70 197 -107 182 -122 -11 -12 -151
45 -213 86 -69 46 -143 109 -129 110 6 0 78 -33 160 -74z m857 43 c27 -37 41
-132 35 -244 -6 -110 -20 -164 -50 -195 -45 -49 -58 4 -60 245 -2 150 0 174
16 198 21 32 33 31 59 -4z m5907 -170 c89 -19 77 -39 -52 -89 -206 -81 -317
-72 -241 19 32 39 55 51 119 67 64 16 112 17 174 3z m-667 -167 c35 -35 -92
-87 -311 -127 -212 -38 -296 -73 -289 -119 4 -27 73 -50 188 -65 110 -15 130
-19 130 -31 0 -12 -46 -24 -296 -76 -274 -56 -420 -89 -519 -118 -150 -44
-163 -40 -91 29 62 60 210 145 350 202 65 26 113 49 107 51 -6 2 -52 -4 -103
-12 -104 -18 -184 -21 -193 -6 -16 25 192 143 336 190 85 28 329 82 419 93 75
9 259 2 272 -11z m-4032 -7 c60 -31 32 -65 -53 -65 -66 0 -99 34 -65 68 17 17
83 15 118 -3z m5064 -35 c13 -13 -68 -31 -256 -55 -324 -41 -509 -37 -370 9
141 47 590 80 626 46z m-7257 -101 c295 -94 690 -301 821 -429 48 -48 52 -60
19 -60 -89 0 -923 410 -1037 510 l-25 21 62 -5 c33 -3 105 -20 160 -37z m6831
-105 c94 -27 -162 -89 -290 -70 -25 4 -54 13 -64 20 -26 19 -5 42 49 55 44 11
265 7 305 -5z m-5630 -121 c40 -94 67 -302 46 -357 -30 -79 -104 144 -104 313
0 43 3 81 7 84 16 17 32 4 51 -40z m2248 -95 c-8 -18 -48 -105 -88 -193 -41
-88 -85 -187 -98 -220 -41 -106 -60 -109 -60 -11 0 77 29 166 79 244 35 54
167 212 177 212 2 0 -2 -15 -10 -32z m263 -210 c-93 -184 -250 -438 -271 -438
-48 0 155 385 263 500 46 49 50 21 8 -62z m1906 78 c42 -18 57 -46 57 -108 0
-37 -5 -55 -22 -73 -32 -34 -67 -43 -205 -50 -151 -8 -328 -29 -519 -61 -82
-14 -150 -23 -152 -21 -7 6 447 224 546 263 92 35 191 62 238 63 12 1 38 -5
57 -13z m-5155 -6 c0 -5 -17 -14 -38 -19 -234 -64 -489 -100 -506 -72 -9 14
143 61 258 82 110 19 286 25 286 9z m2660 -16 c0 -30 -40 -99 -109 -189 -60
-78 -231 -279 -231 -271 0 4 32 70 71 149 107 213 199 337 250 337 14 0 19 -7
19 -26z m3404 -42 c53 -9 56 -28 9 -50 -30 -13 -67 -17 -178 -17 -119 0 -151
4 -214 23 -119 38 -82 48 189 50 85 0 173 -2 194 -6z m-4261 -224 c29 -39 36
-182 13 -260 -26 -92 -79 -116 -103 -48 -17 49 -16 207 1 264 25 82 51 95 89
44z m-1508 13 c18 -7 17 -10 -13 -25 -121 -63 -470 -63 -522 -1 -13 16 -10 18
35 28 35 8 479 6 500 -2z m3091 -38 c-18 -150 -18 -201 -1 -252 27 -83 130
-171 199 -171 30 0 32 13 11 63 -14 34 -14 37 7 51 66 46 284 -25 364 -118 43
-51 46 -92 7 -107 -126 -48 -506 -28 -761 41 -88 24 -215 89 -220 112 -2 11 8
17 36 21 79 13 158 95 247 257 85 154 122 188 111 103z m2606 -28 c311 -47
868 -245 868 -309 0 -25 -142 -251 -432 -686 -160 -239 -297 -442 -304 -450
-12 -12 -14 13 -14 170 0 270 -25 350 -109 350 -56 0 -124 -46 -276 -186 -180
-164 -277 -241 -341 -271 -83 -38 -86 -34 -103 125 -12 108 -42 184 -98 245
-20 23 -32 42 -27 44 6 2 36 -6 69 -17 32 -11 73 -20 92 -20 31 0 33 2 33 33
0 18 -17 69 -39 113 -75 153 -194 296 -381 459 -49 43 -89 80 -87 81 3 3 248
-43 297 -56 121 -32 394 -160 610 -285 288 -166 465 -224 550 -180 31 16 41
37 42 87 0 94 40 148 107 148 83 0 105 57 49 128 -104 130 -335 264 -693 403
l-190 74 70 6 c130 10 210 9 307 -6z m-5637 -205 c29 -7 27 -8 -49 -44 -108
-50 -222 -84 -237 -69 -17 17 5 65 40 86 55 32 172 45 246 27z m1989 -121 c25
-29 34 -59 19 -59 -4 0 -21 5 -39 12 -45 16 -78 0 -104 -52 -11 -22 -23 -40
-25 -40 -3 0 -5 25 -5 56 0 48 4 59 29 85 41 41 90 40 125 -2z m336 -91 c66
-20 265 -128 352 -193 95 -70 181 -173 176 -209 -8 -54 -90 -21 -336 133 -163
103 -257 151 -291 151 -43 0 -70 71 -40 106 28 34 57 36 139 12z m-301 -273
c71 -33 216 -136 317 -224 96 -83 161 -164 176 -218 13 -49 90 -124 227 -223
200 -144 395 -355 441 -478 32 -84 18 -212 -24 -220 -39 -8 -415 395 -729 782
-296 364 -416 495 -478 523 -40 17 -46 31 -29 64 14 25 34 24 99 -6z m2417
-561 c88 -66 248 -231 270 -277 32 -68 3 -110 -190 -265 -228 -185 -416 -313
-488 -332 -42 -12 -68 -49 -68 -96 0 -50 -38 -111 -88 -142 -66 -41 -129 -107
-243 -258 -195 -259 -339 -506 -364 -626 -8 -37 -39 -121 -69 -185 -145 -310
-596 -1515 -758 -2023 -154 -485 -363 -1292 -487 -1880 -42 -199 -93 -352
-124 -372 -43 -27 -102 111 -141 332 -69 382 -101 934 -93 1605 9 754 43 1047
154 1344 62 167 107 260 437 921 328 655 434 883 459 978 17 69 34 85 91 84
49 -1 128 -31 142 -53 5 -8 9 -34 9 -59 0 -43 1 -45 29 -45 43 0 85 60 120
169 35 110 67 150 122 150 22 0 57 -3 80 -7 80 -16 104 41 104 249 0 106 13
164 36 164 8 0 31 -16 53 -35 53 -48 124 -78 165 -71 51 10 76 44 87 120 12
85 30 129 64 152 62 44 68 53 62 106 -4 26 -24 104 -47 173 -46 143 -49 165
-20 165 52 0 153 -73 313 -227 107 -103 175 -143 250 -145 59 -1 102 26 122
74 38 95 -2 260 -86 356 -55 63 -28 50 97 -44z m-127 -94 c43 -44 66 -91 57
-115 -15 -40 -67 9 -99 93 -30 76 -17 83 42 22z"/>
<path d="M7555 11717 c-46 -70 -94 -291 -80 -366 6 -32 8 -34 20 -18 7 10 27
66 44 125 55 192 64 332 16 259z"/>
<path d="M4010 12703 c0 -30 454 -246 474 -226 7 7 -20 52 -43 71 -84 67 -431
192 -431 155z"/>
<path d="M8825 11091 c-91 -75 -130 -120 -115 -135 17 -17 58 12 123 89 102
121 99 136 -8 46z"/>
<path d="M6818 14243 c-30 -34 -43 -96 -42 -203 0 -81 4 -113 18 -138 31 -58
74 -23 101 83 26 103 15 206 -28 253 -25 27 -29 27 -49 5z"/>
<path d="M3450 14039 c-145 -31 -166 -38 -142 -46 53 -19 615 -308 727 -374
381 -223 763 -508 919 -685 24 -27 63 -63 86 -79 121 -84 40 101 -153 347
-423 542 -845 845 -1202 864 -75 3 -115 -1 -235 -27z"/>
<path d="M10312 13817 c-12 -13 -22 -33 -22 -46 0 -29 17 -61 33 -61 15 0 59
44 75 75 26 50 -44 76 -86 32z"/>
<path d="M10095 13670 c-91 -8 -148 -39 -175 -95 -23 -48 -26 -93 -6 -101 19
-7 60 15 183 97 94 63 120 86 112 93 -11 10 -52 12 -114 6z"/>
<path d="M3105 13600 c4 -6 35 -25 71 -42 35 -17 64 -34 64 -38 0 -11 -39 -20
-95 -21 -59 -1 -96 -10 -97 -24 -1 -27 242 -113 807 -284 575 -174 657 -218
1006 -542 304 -281 397 -352 507 -384 46 -13 18 27 -126 184 -82 89 -670 645
-757 716 -142 116 -523 275 -870 365 -226 59 -528 100 -510 70z m559 -130 c29
-28 -213 -85 -271 -64 -36 12 -36 35 0 52 57 28 245 36 271 12z"/>
<path d="M3563 9755 c-61 -26 -230 -151 -219 -162 6 -6 247 110 286 137 16 12
30 26 30 31 0 14 -60 10 -97 -6z"/>
</g>
</svg>
