<?xml version="1.0" standalone="no"?>
<!DOCTYPE svg PUBLIC "-//W3C//DTD SVG 20010904//EN"
 "http://www.w3.org/TR/2001/REC-SVG-20010904/DTD/svg10.dtd">
<svg version="1.0" xmlns="http://www.w3.org/2000/svg"
 width="793.000000pt" height="1536.000000pt" viewBox="0 0 793.000000 1536.000000"
 preserveAspectRatio="xMidYMid meet">
<metadata>
Created by potrace 1.16, written by Peter Selinger 2001-2019
</metadata>
<g transform="translate(0.000000,1536.000000) scale(0.100000,-0.100000)"
fill="#000000" stroke="none">
<path d="M1220 15328 c-30 -31 -31 -36 -25 -83 4 -27 8 -65 9 -83 2 -18 13
-43 26 -57 29 -31 19 -58 -23 -63 -72 -9 -51 -65 53 -137 54 -38 91 -75 150
-154 44 -58 78 -106 76 -108 -1 -2 -55 22 -119 52 -129 61 -223 95 -262 95
-31 0 -65 -33 -65 -64 0 -41 41 -90 90 -105 25 -8 66 -22 93 -32 26 -10 96
-30 155 -44 64 -16 123 -38 146 -53 49 -33 116 -117 116 -144 0 -19 -4 -20
-51 -14 -107 14 -190 63 -216 127 -15 40 -55 79 -79 79 -21 0 -44 -30 -44 -57
0 -25 -2 -25 -42 -18 -169 28 -193 27 -202 -8 -7 -26 20 -67 56 -84 14 -7 64
-24 112 -38 47 -14 100 -31 118 -38 l33 -14 -53 -11 c-95 -21 -150 -16 -226
23 -39 19 -80 35 -92 35 -12 0 -27 7 -34 15 -28 34 -70 10 -70 -40 0 -63 47
-100 275 -215 l153 -77 -75 -6 c-80 -6 -117 -23 -129 -59 -7 -22 -6 -23 63
-78 18 -14 37 -13 114 11 101 31 169 24 294 -30 105 -45 169 -80 161 -88 -2
-2 -46 10 -96 27 -106 36 -224 46 -240 20 -12 -19 8 -49 46 -72 48 -28 213
-68 314 -77 88 -7 101 -11 170 -51 41 -25 116 -79 165 -122 50 -44 113 -90
141 -103 27 -13 71 -46 97 -74 47 -50 86 -116 75 -127 -4 -3 -28 2 -55 12 -54
19 -86 15 -126 -16 -51 -41 -45 -119 18 -224 19 -32 35 -60 35 -62 0 -2 -20
-4 -44 -4 -25 0 -56 -4 -70 -10 -61 -23 -8 -97 104 -147 118 -53 119 -54 151
-102 54 -82 52 -130 -3 -68 -18 20 -73 57 -123 83 -71 37 -100 47 -141 48 -87
1 -110 -44 -54 -107 39 -45 329 -237 358 -237 26 0 176 -211 222 -314 32 -71
110 -291 110 -310 0 -7 -30 -27 -67 -44 -79 -37 -84 -35 -148 45 -118 148
-145 188 -139 203 13 32 16 190 5 237 -15 57 -33 80 -72 88 -20 5 -38 20 -55
46 -23 36 -28 40 -62 37 -35 -3 -37 -5 -34 -34 2 -22 -8 -46 -38 -90 -22 -32
-40 -66 -40 -75 0 -9 25 -52 55 -94 31 -43 54 -79 52 -81 -2 -2 -37 29 -78 69
-86 84 -126 156 -139 248 -26 177 -96 308 -154 286 -8 -3 -20 -24 -27 -47 -11
-36 -10 -51 11 -123 13 -45 25 -88 28 -94 10 -29 -28 -10 -71 35 -58 63 -77
101 -88 176 -6 43 -14 66 -30 79 -24 19 -94 23 -105 6 -12 -21 -6 -70 12 -90
9 -11 15 -22 11 -25 -3 -3 -35 26 -72 65 -37 39 -86 80 -109 91 -54 26 -151
27 -185 3 -24 -16 -25 -16 -50 14 -14 17 -69 109 -121 204 -52 94 -105 179
-118 187 -36 23 -72 6 -99 -48 -35 -68 -31 -93 25 -148 27 -26 71 -85 99 -132
73 -126 153 -275 153 -288 0 -7 -15 -12 -36 -12 -55 0 -99 49 -109 120 -10 78
-23 127 -52 188 -45 96 -91 51 -79 -78 3 -39 4 -70 1 -70 -3 0 -34 28 -68 63
-34 34 -92 90 -129 123 -65 60 -75 76 -115 179 -15 40 -24 51 -45 53 -28 3
-68 -36 -68 -68 0 -10 -7 -23 -16 -31 -13 -10 -24 -9 -67 10 -85 38 -92 37
-110 -2 -19 -39 -22 -118 -7 -147 5 -10 30 -26 55 -35 51 -20 55 -29 23 -46
-69 -36 -44 -84 52 -100 47 -7 89 -23 150 -58 47 -27 114 -61 150 -76 121 -52
115 -58 -55 -53 -82 3 -161 2 -175 -1 -14 -4 -31 -19 -40 -33 -13 -25 -13 -29
10 -52 33 -36 71 -44 255 -56 247 -16 298 -26 400 -75 50 -23 99 -50 110 -58
19 -15 14 -16 -65 -17 -47 0 -250 5 -451 11 -341 10 -369 10 -403 -6 -39 -19
-56 -56 -39 -84 6 -9 25 -25 44 -36 29 -17 58 -20 210 -25 147 -4 180 -8 196
-22 15 -14 26 -15 58 -8 22 4 78 11 125 15 47 3 149 15 227 26 196 26 219 25
332 -17 53 -20 105 -41 116 -47 18 -10 18 -10 -5 -19 -14 -5 -68 -18 -120 -29
-52 -11 -123 -29 -157 -40 -35 -12 -110 -24 -176 -29 -159 -12 -212 -37 -205
-97 2 -22 11 -31 38 -40 69 -24 319 -9 462 27 l45 11 105 -103 c75 -74 114
-121 139 -168 26 -51 77 -110 234 -270 189 -193 315 -333 315 -352 0 -15 -70
21 -178 91 -104 68 -132 79 -254 102 -50 9 -66 19 -137 82 -101 90 -202 204
-239 271 -41 71 -112 134 -216 191 -124 67 -156 78 -178 58 -27 -24 -22 -54
22 -122 22 -34 52 -85 66 -113 34 -68 107 -143 229 -238 96 -74 345 -319 345
-339 0 -12 -57 7 -116 37 -45 23 -125 105 -276 283 -67 79 -135 148 -183 183
-42 32 -83 72 -93 91 -25 50 -134 175 -152 175 -26 0 -118 -59 -125 -79 -3
-11 1 -36 9 -56 18 -43 339 -372 410 -420 l48 -33 -56 -12 c-30 -6 -62 -8 -70
-3 -8 4 -45 44 -82 88 -96 113 -182 194 -249 234 -56 34 -58 34 -112 23 -31
-6 -67 -19 -80 -28 l-25 -16 25 -26 c14 -15 34 -46 46 -70 14 -28 40 -54 76
-78 60 -40 69 -54 51 -80 -12 -16 -18 -17 -56 -5 -62 18 -133 66 -173 114 -19
24 -60 63 -91 86 -61 47 -81 49 -130 10 -26 -21 -27 -25 -21 -80 l7 -58 -55 6
c-134 14 -191 -61 -133 -176 29 -57 50 -67 156 -75 67 -6 182 -30 203 -43 4
-3 -16 -21 -44 -41 -106 -74 -113 -141 -18 -181 53 -23 63 -36 73 -94 10 -56
37 -64 158 -44 108 18 271 68 414 128 52 22 121 46 152 54 61 16 148 20 156 7
6 -11 -57 -71 -146 -141 -37 -28 -89 -80 -117 -115 -27 -35 -97 -103 -155
-151 -116 -95 -144 -131 -122 -160 13 -18 76 -34 143 -35 50 0 59 -11 39 -43
-18 -27 -8 -77 20 -108 51 -56 216 20 409 188 44 38 105 88 136 110 30 22 125
107 209 187 l155 147 115 -6 c234 -12 260 -15 260 -34 0 -10 -12 -34 -27 -53
l-28 -35 -66 33 c-70 36 -140 51 -183 40 -45 -11 -32 -41 44 -101 39 -31 70
-60 70 -65 0 -6 -24 -10 -54 -10 -48 0 -61 -5 -122 -47 -69 -47 -94 -53 -251
-62 -22 -2 -53 -40 -53 -65 0 -34 23 -48 92 -55 l61 -6 -69 -57 c-37 -32 -83
-65 -101 -73 -36 -17 -63 -60 -63 -98 0 -28 35 -77 55 -77 26 0 45 -31 45 -73
0 -24 7 -53 16 -65 34 -49 161 -14 215 61 16 21 59 95 95 164 108 199 227 314
352 338 59 12 111 29 277 92 43 16 219 32 353 33 46 0 143 9 215 21 109 17
151 20 242 13 61 -4 191 -9 290 -10 129 -1 191 -6 219 -16 l40 -15 -56 -33
c-71 -42 -89 -71 -63 -100 26 -28 68 -25 143 11 77 38 95 33 147 -40 20 -28
66 -74 103 -102 115 -90 244 -228 271 -289 63 -145 93 -199 135 -250 46 -55
56 -75 96 -204 27 -89 114 -272 169 -356 23 -35 44 -76 48 -90 10 -44 74 -162
134 -250 79 -116 94 -154 119 -300 30 -173 30 -236 -3 -341 -23 -72 -27 -103
-27 -200 0 -101 -2 -118 -19 -133 -50 -45 -88 -220 -70 -321 22 -131 22 -132
1 -163 -30 -41 -40 -95 -48 -257 -4 -93 -3 -159 5 -193 10 -46 9 -57 -8 -91
-34 -67 -53 -194 -55 -371 l-2 -165 -31 -55 c-24 -42 -35 -80 -47 -160 -23
-153 -32 -352 -17 -388 10 -24 9 -42 -8 -108 -30 -118 -36 -225 -21 -407 l13
-163 -32 -45 c-23 -32 -34 -60 -38 -100 -6 -58 11 -220 29 -280 10 -33 7 -45
-30 -125 -22 -49 -43 -99 -47 -112 -12 -43 -6 -128 15 -213 21 -80 21 -91 10
-219 -15 -155 -9 -380 11 -427 12 -29 11 -38 -11 -90 -22 -51 -25 -71 -23
-166 2 -81 -1 -107 -10 -105 -7 2 -33 39 -59 83 -47 77 -95 144 -202 279 -34
43 -64 95 -80 140 -15 40 -55 122 -89 182 -61 106 -62 111 -62 184 -1 41 -5
100 -9 131 -7 47 -5 63 12 95 21 42 167 460 185 531 7 31 7 50 -1 68 -18 38
-47 31 -81 -19 -36 -52 -171 -322 -171 -342 0 -18 -59 -149 -64 -143 -3 2 -16
88 -30 190 -15 103 -31 201 -37 219 -18 51 -6 98 69 262 127 276 130 291 83
339 -59 58 -94 29 -176 -146 -96 -205 -111 -206 -150 -12 l-15 78 118 147
c126 158 145 191 140 243 -3 31 -6 34 -37 34 -30 0 -43 -11 -130 -110 -53 -60
-104 -111 -113 -113 -12 -2 -20 14 -32 72 -9 41 -34 107 -54 148 l-37 73 1
265 c0 311 14 430 62 525 40 79 72 187 72 240 l0 44 68 -6 c56 -5 75 -2 108
15 82 42 224 212 224 269 0 13 -6 32 -12 43 -11 17 -9 26 10 58 76 125 79 158
12 149 -22 -3 -40 -4 -40 -2 0 2 17 38 38 81 33 70 37 88 37 156 0 62 -4 82
-21 105 -31 42 -51 40 -100 -8 -24 -23 -45 -41 -48 -38 -2 2 5 54 15 114 23
139 23 148 0 176 l-19 23 -42 -29 c-70 -49 -198 -194 -230 -262 -47 -100 -63
-93 -36 16 8 31 17 71 20 89 3 26 25 53 94 120 105 102 133 147 163 262 24 90
25 105 13 188 -8 62 -42 99 -75 81 -43 -22 -112 -140 -163 -276 -15 -40 -36
-83 -46 -95 -18 -22 -19 -22 -26 -4 -9 24 11 166 32 228 8 25 35 69 60 98 81
95 94 146 47 177 -42 28 -100 23 -130 -11 -13 -16 -26 -26 -28 -24 -2 2 2 58
10 123 8 66 15 145 15 177 0 54 -1 56 -31 67 -69 24 -211 3 -272 -41 l-30 -21
6 -101 c4 -56 10 -114 13 -130 7 -28 6 -29 -25 -23 -42 9 -66 -5 -80 -44 -17
-49 -14 -61 30 -120 23 -30 52 -76 65 -104 25 -55 57 -217 52 -268 -3 -30 -6
-25 -50 59 -74 144 -177 313 -198 324 -45 24 -130 -3 -130 -42 0 -33 121 -256
222 -411 105 -159 135 -233 143 -349 l6 -83 -41 44 c-22 24 -57 71 -77 105
-20 34 -77 104 -128 156 -50 52 -106 118 -125 145 -78 118 -139 155 -161 98
-15 -39 -4 -82 34 -138 17 -26 40 -60 49 -74 19 -28 16 -35 -33 -59 -31 -16
-34 -20 -32 -60 1 -31 18 -74 57 -148 31 -58 56 -106 56 -108 0 -2 -23 -1 -50
2 -39 3 -55 1 -70 -13 -18 -16 -20 -16 -46 4 -32 25 -60 15 -70 -26 -8 -31 12
-75 91 -198 l58 -90 -94 91 c-102 99 -191 162 -273 192 -110 41 -177 37 -196
-14 -28 -74 102 -213 298 -318 50 -28 90 -52 87 -54 -2 -2 -39 -8 -81 -13 -92
-10 -118 -27 -89 -59 10 -11 37 -31 60 -45 38 -22 50 -39 68 -96 5 -15 22 -16
149 -12 157 6 256 -5 318 -37 60 -30 151 -120 171 -168 11 -25 28 -57 39 -72
25 -35 25 -59 -1 -140 -15 -47 -22 -102 -26 -201 -6 -149 5 -267 42 -459 29
-149 50 -308 42 -316 -3 -3 -21 -1 -41 6 -26 8 -41 8 -56 0 -37 -20 -23 -49
66 -140 82 -84 86 -90 94 -146 12 -84 47 -219 76 -286 13 -31 24 -60 24 -63 0
-14 -41 4 -239 109 -229 122 -270 136 -403 136 l-58 0 0 -54 c0 -31 5 -58 13
-64 6 -5 47 -17 91 -25 43 -9 101 -28 129 -43 47 -24 115 -52 368 -148 92 -35
96 -38 107 -75 16 -53 126 -273 163 -328 17 -24 29 -47 26 -49 -3 -3 -61 0
-129 6 -168 16 -312 11 -335 -13 -32 -31 -6 -50 103 -73 54 -12 137 -31 184
-43 47 -12 102 -27 122 -32 25 -7 46 -22 65 -47 14 -20 57 -77 94 -127 37 -49
75 -112 84 -140 24 -69 102 -240 137 -296 15 -26 37 -71 47 -101 40 -117 116
-234 240 -372 40 -44 92 -115 117 -159 24 -44 78 -121 119 -172 73 -89 98
-137 192 -360 25 -59 25 -62 13 -161 -11 -95 -10 -107 11 -184 24 -89 24 -140
-1 -415 -14 -155 -17 -166 -109 -374 -99 -223 -100 -225 -110 -362 -10 -135
-23 -170 -85 -231 -49 -49 -66 -82 -66 -129 0 -49 16 -66 98 -109 43 -22 88
-54 101 -70 26 -36 53 -38 104 -7 51 31 77 72 77 124 0 36 7 50 47 95 60 68
96 148 123 278 12 58 38 146 58 195 31 77 36 101 35 166 -1 54 -7 90 -22 123
-19 44 -19 50 -5 77 34 67 39 347 8 436 -13 35 -14 56 -5 115 16 112 31 352
31 500 0 110 4 148 24 220 14 49 30 132 36 185 18 159 29 201 95 348 35 77 70
161 79 187 9 27 36 73 61 103 28 35 45 66 45 82 0 15 18 54 40 87 21 34 46 77
54 96 19 43 60 95 194 241 56 62 102 119 102 127 0 9 46 61 103 116 56 56 153
156 215 223 66 72 143 143 189 176 100 70 356 309 708 662 336 336 410 420
494 559 81 134 91 174 91 353 0 78 5 164 11 192 6 31 37 92 85 167 41 65 74
124 74 132 0 7 7 23 15 36 15 22 37 157 30 180 -2 6 -6 23 -9 39 -5 20 -12 27
-30 27 -41 0 -73 -36 -97 -108 -19 -59 -44 -112 -101 -214 l-17 -30 -10 38
c-5 22 -19 75 -30 120 -11 44 -29 100 -40 125 -11 24 -25 82 -31 129 -13 101
-39 208 -92 385 -21 72 -50 193 -64 270 -14 77 -39 183 -55 236 -19 60 -35
144 -43 220 -7 68 -20 137 -28 154 -15 28 -14 32 15 87 27 52 31 70 38 190 10
162 4 198 -36 217 -26 13 -30 12 -46 -7 -9 -12 -31 -64 -49 -117 -39 -111 -54
-131 -71 -89 -22 57 -78 291 -84 355 -9 89 -24 155 -51 215 -13 29 -35 110
-50 181 -14 70 -33 136 -42 146 -21 24 -58 21 -76 -5 -24 -33 -21 -165 5 -258
11 -41 33 -136 48 -210 33 -158 101 -416 138 -515 14 -38 42 -135 64 -215 21
-80 55 -198 75 -263 l38 -118 -63 -63 -63 -63 31 -60 c16 -33 59 -92 94 -130
60 -66 64 -74 71 -131 4 -33 22 -114 41 -179 39 -138 44 -165 29 -170 -6 -2
-83 70 -171 160 -112 115 -169 181 -192 223 -38 73 -96 135 -117 127 -19 -7
-44 -55 -44 -83 0 -29 14 -53 85 -145 34 -44 88 -118 121 -165 32 -47 122
-150 200 -230 77 -80 148 -158 156 -175 14 -28 93 -276 124 -388 7 -27 16
-111 20 -187 l7 -140 -64 -97 c-82 -125 -197 -269 -324 -407 -55 -60 -135
-149 -179 -198 -43 -49 -191 -186 -330 -306 -283 -244 -551 -487 -612 -553
-22 -25 -79 -97 -126 -160 -47 -62 -133 -167 -192 -232 -58 -64 -126 -148
-151 -186 -24 -38 -75 -111 -113 -161 -43 -57 -79 -117 -95 -158 -49 -132 -65
-168 -99 -224 -43 -70 -93 -218 -109 -319 -12 -82 -34 -139 -54 -139 -14 0
-58 54 -76 94 -10 20 -10 31 0 49 10 18 10 34 2 63 -6 22 -15 96 -21 164 -13
155 -17 174 -47 231 -26 51 -22 79 16 113 48 43 68 222 35 302 -20 48 -15 164
9 211 23 43 42 170 33 217 -5 27 -23 55 -58 92 -46 49 -50 57 -40 79 18 39 52
231 52 293 0 31 -7 84 -15 117 -23 96 -19 158 21 280 47 148 53 212 24 290
-34 96 -34 97 3 182 20 44 38 102 42 129 4 27 16 85 27 128 11 47 23 143 28
235 6 113 16 183 35 256 19 72 28 143 35 255 6 121 13 165 29 201 11 25 35 99
52 165 26 98 32 140 34 239 1 97 6 129 22 165 29 63 71 249 78 345 4 44 14
114 23 155 22 104 25 540 5 700 -16 123 -13 177 18 305 10 44 19 104 19 133 0
51 -2 56 -54 110 l-54 57 19 135 c20 131 21 270 4 331 -6 23 2 36 65 105 91
101 124 147 144 207 40 118 109 204 228 283 67 45 235 124 263 124 8 0 17 -11
21 -25 9 -37 57 -72 131 -95 108 -33 134 -35 166 -10 55 43 29 77 -95 121 -49
18 -85 36 -81 40 4 4 68 28 142 53 74 25 154 58 177 73 23 15 84 55 134 88
202 132 347 262 508 454 94 112 132 141 185 141 53 0 217 110 217 146 0 7 -11
21 -24 29 -22 15 -29 14 -101 -15 -43 -17 -79 -29 -81 -27 -8 7 83 141 108
160 23 17 49 21 171 26 116 5 149 10 173 25 68 44 110 101 99 135 -7 23 -117
66 -142 57 -20 -8 -33 9 -33 45 0 28 -16 39 -55 39 -13 0 -31 3 -40 6 -20 8
-45 56 -45 87 0 34 49 103 129 182 39 38 71 77 71 86 0 9 -11 21 -25 27 -32
15 -81 -1 -147 -46 -46 -32 -78 -41 -78 -23 0 5 5 22 10 37 6 14 17 67 26 117
14 79 14 92 1 104 -10 11 -24 13 -46 8 -49 -11 -82 -70 -122 -225 l-11 -45
-20 52 c-31 84 -94 117 -138 73 -27 -27 -26 -35 15 -163 35 -108 36 -110 20
-157 -9 -26 -22 -56 -30 -66 -13 -18 -14 -17 -15 16 0 19 -9 54 -20 77 -21 47
-51 61 -97 46 -25 -9 -28 -15 -31 -59 -2 -27 4 -91 13 -142 16 -87 16 -96 0
-145 -21 -65 -32 -80 -80 -113 -32 -21 -43 -24 -57 -15 -14 8 -41 9 -100 1
-45 -5 -83 -8 -85 -7 -1 2 13 43 33 93 19 49 43 118 54 155 39 129 183 376
255 437 45 38 62 69 68 129 3 29 13 66 22 83 9 17 19 54 22 83 8 75 22 95 124
189 117 107 179 188 179 234 0 26 -6 37 -23 45 -30 14 -57 2 -133 -55 -68 -51
-92 -59 -74 -25 6 11 15 57 20 102 6 65 17 100 49 166 46 96 48 110 22 167
-26 56 -64 84 -116 84 -57 0 -70 -18 -95 -127 -12 -50 -27 -99 -34 -108 -12
-16 -15 -16 -44 -1 -45 23 -79 20 -98 -9 -15 -23 -15 -29 7 -90 20 -58 21 -70
11 -116 -7 -28 -12 -94 -12 -147 0 -53 -4 -103 -9 -111 -9 -14 -38 -12 -115 5
-26 6 -28 5 -22 -12 26 -65 24 -360 -3 -387 -6 -6 -15 10 -25 47 -9 31 -23 82
-32 113 -28 103 -96 213 -130 213 -13 0 -44 -59 -44 -83 0 -24 48 -171 73
-224 12 -27 40 -79 61 -117 l39 -69 -12 -111 c-22 -202 -29 -230 -78 -306 -24
-38 -73 -132 -108 -209 -34 -77 -87 -179 -118 -228 -30 -48 -58 -104 -61 -123
-4 -19 -15 -46 -26 -60 -29 -36 -40 -13 -40 85 0 109 -13 149 -51 165 -22 10
-33 10 -42 1 -18 -18 -25 -117 -20 -276 l6 -151 -67 -54 c-37 -30 -76 -69 -87
-86 -21 -34 -88 -98 -95 -91 -2 2 12 72 32 155 35 144 36 152 20 176 -25 38
-73 36 -114 -6 -41 -44 -60 -91 -67 -174 -11 -119 -44 -245 -78 -299 -30 -46
-115 -159 -187 -247 -37 -45 -55 -49 -46 -10 3 15 25 122 50 237 28 136 58
248 85 318 25 65 44 133 47 170 9 100 11 106 97 196 99 103 133 147 176 226
18 33 40 67 47 76 8 9 27 54 43 101 17 51 54 125 91 183 83 130 122 216 163
357 22 76 49 141 76 187 39 63 44 81 56 178 8 59 32 189 54 288 21 99 49 232
61 295 l22 115 95 80 c117 98 125 110 121 172 l-3 48 -39 -2 c-21 -2 -54 -12
-73 -23 -19 -11 -37 -20 -40 -20 -3 0 -4 31 -1 68 3 60 9 76 46 134 23 35 42
72 42 82 0 33 -32 78 -66 92 -20 8 -34 21 -34 32 0 27 36 80 113 165 l71 78
-38 30 -37 31 51 53 c52 56 63 92 35 115 -25 21 -90 5 -145 -34 l-50 -36 36
47 c39 51 78 124 87 164 4 14 31 63 62 110 30 46 55 94 55 106 0 12 -11 35
-25 52 -21 24 -35 31 -73 33 l-47 3 -7 50 c-8 59 -28 78 -68 64 -58 -21 -68
-44 -79 -173 -11 -145 -32 -183 -24 -45 7 136 -13 175 -77 149 -36 -15 -66
-74 -75 -149 -8 -62 -25 -52 -25 15 0 50 -10 59 -71 68 -25 4 -61 18 -80 31
-45 34 -72 31 -119 -11 -69 -63 -114 -178 -145 -371 -4 -24 -30 -80 -61 -131
-49 -82 -76 -151 -119 -306 -9 -33 -20 -55 -25 -50 -10 11 -30 170 -30 243 0
34 13 93 34 160 20 61 42 158 51 226 9 66 25 173 37 238 l22 118 -36 36 c-34
34 -37 35 -72 23 -46 -15 -56 -39 -56 -135 0 -40 -7 -108 -15 -150 -16 -83
-82 -305 -95 -318 -4 -5 -16 15 -26 45 -14 39 -18 79 -17 153 1 102 19 373 29
433 l5 32 -49 0 c-31 0 -54 -5 -62 -14 -6 -8 -20 -75 -31 -148 -10 -73 -21
-143 -24 -155 -6 -24 -25 -32 -25 -11 0 6 -32 81 -71 166 -67 144 -71 157 -60
187 14 39 14 63 0 104 -17 48 -53 43 -87 -14 -15 -24 -30 -45 -33 -45 -3 0
-31 29 -63 65 l-58 65 -41 -46 c-32 -35 -54 -49 -92 -58 -77 -20 -88 -42 -96
-194 -4 -70 -8 -136 -8 -147 -3 -40 -28 12 -56 116 -31 111 -54 149 -91 149
-34 0 -74 -42 -74 -77 0 -51 29 -142 80 -250 53 -113 54 -126 1 -126 -41 0
-77 26 -102 76 -26 51 -34 57 -81 57 l-38 0 8 -47 c12 -79 7 -424 -7 -457 -7
-19 -15 -26 -21 -20 -6 6 -24 66 -41 134 l-31 125 12 163 c15 189 12 199 -54
187 -58 -11 -76 -32 -85 -98 -4 -31 -10 -59 -13 -62 -6 -7 -38 68 -38 89 0 23
-70 106 -94 112 -30 7 -101 -28 -117 -58 -15 -28 -5 -97 21 -148 l21 -41 -21
-68 c-11 -37 -20 -83 -20 -100 0 -33 -15 -71 -28 -71 -4 0 -7 55 -7 123 0 87
-7 154 -22 232 -13 61 -30 172 -38 248 -18 161 -33 207 -68 207 -42 0 -60 -32
-65 -119 -5 -87 12 -237 29 -257 9 -11 7 -23 -6 -51 -17 -35 -17 -53 -6 -253
6 -118 16 -266 22 -328 11 -123 7 -152 -22 -152 -28 0 -56 53 -68 129 -5 36
-15 291 -21 566 -7 275 -14 503 -17 508 -5 8 -49 9 -80 1 -46 -12 -50 -78 -38
-555 8 -320 4 -349 -38 -283 -13 22 -39 69 -57 104 l-33 64 17 206 c19 243 20
316 3 350 -23 46 -97 39 -124 -13 -21 -40 -30 -238 -15 -342 5 -38 7 -72 5
-75 -7 -8 -49 47 -106 140 l-52 85 -1 115 c0 63 -4 125 -8 137 -21 64 -156 35
-156 -34 0 -35 -16 -28 -42 20 -30 54 -68 61 -111 21 -51 -47 -64 -130 -27
-177 30 -38 26 -55 -17 -62 -88 -15 -107 -27 -190 -113 -45 -48 -85 -83 -89
-80 -10 11 -41 147 -48 219 -9 83 -23 118 -51 125 -31 8 -82 -20 -100 -56 -14
-26 -21 -30 -58 -30 -74 0 -117 -41 -117 -112 0 -50 -15 -63 -40 -33 -11 14 1
83 63 367 21 92 -28 132 -146 121 l-65 -6 -6 -51 c-9 -81 -7 -185 6 -247 10
-51 9 -69 -11 -161 -15 -64 -24 -140 -25 -200 0 -53 -5 -100 -9 -104 -15 -15
-42 13 -82 87 l-40 74 -5 330 -5 330 -26 3 c-34 4 -73 -31 -89 -78 -6 -19 -16
-116 -21 -214 -5 -99 -10 -181 -13 -183 -2 -2 -23 40 -47 94 -44 101 -50 136
-34 220 7 41 6 43 -25 60 -18 10 -80 53 -137 96 -59 43 -115 77 -128 77 -12 0
-37 -15 -55 -32z m3898 -602 c4 -20 -15 -46 -35 -46 -22 0 -27 29 -7 51 20 22
37 20 42 -5z m-2265 -86 c29 -11 88 -44 130 -73 76 -52 211 -166 205 -173 -2
-1 -52 12 -112 31 -105 34 -246 65 -291 65 -21 0 -22 -2 -13 -51 5 -28 8 -54
6 -59 -5 -14 -95 46 -114 75 -19 29 -21 21 39 131 45 83 59 88 150 54z m2532
-55 c0 -27 -4 -30 -33 -33 -37 -4 -50 15 -32 48 8 15 19 20 38 18 23 -2 27 -8
27 -33z m-3046 8 c5 -10 16 -43 25 -73 l16 -55 -30 35 c-30 36 -46 82 -35 100
9 14 13 13 24 -7z m-169 -59 c14 -37 12 -70 -5 -84 -13 -11 -20 -9 -40 10 -27
25 -31 53 -15 95 8 22 13 24 30 15 12 -6 25 -22 30 -36z m347 -28 c9 -19 13
-41 10 -49 -14 -38 -87 -17 -87 25 0 25 27 58 47 58 7 0 21 -15 30 -34z m4191
-152 c3 -32 -28 -71 -47 -59 -16 9 -13 47 5 73 20 30 38 23 42 -14z m-4354
-27 c7 -18 6 -30 -3 -41 -26 -31 -56 8 -40 53 11 28 31 23 43 -12z m640 -33
c145 -25 209 -63 222 -132 14 -73 -40 -63 -161 32 -27 21 -83 54 -122 73 -69
33 -99 63 -50 49 12 -3 62 -13 111 -22z m1199 -64 c44 -52 130 -204 117 -208
-6 -2 -33 11 -61 28 -72 44 -96 52 -120 40 -25 -14 -25 -65 1 -108 21 -35 22
-35 88 -52 58 -15 129 -80 142 -131 6 -21 33 -72 62 -114 28 -41 49 -78 46
-80 -2 -3 -48 19 -102 49 -103 57 -225 102 -251 92 -29 -11 -29 -36 1 -67 40
-41 156 -120 241 -163 85 -42 99 -62 83 -112 -17 -50 -35 -64 -86 -64 -58 0
-58 -16 1 -91 25 -32 45 -63 45 -69 0 -20 -131 -7 -172 17 -56 33 -183 250
-234 403 -32 92 -35 164 -24 466 l5 132 45 5 c35 4 51 12 70 36 34 42 61 40
103 -9z m2025 0 c17 -26 22 -46 21 -99 0 -36 -4 -75 -8 -85 -6 -17 -12 -10
-35 38 -40 85 -48 195 -13 184 6 -3 22 -19 35 -38z m-3505 -16 c17 -8 70 -55
117 -103 79 -81 92 -90 188 -131 114 -48 131 -62 112 -85 -18 -21 -8 -29 75
-60 155 -58 403 -205 345 -205 -5 0 -10 -11 -10 -25 0 -27 45 -76 164 -180
l69 -60 -21 -70 c-33 -106 -34 -106 -80 -37 -67 98 -173 177 -230 170 -21 -2
-28 -10 -33 -36 -9 -42 -44 -80 -78 -84 -46 -5 -56 -46 -43 -168 16 -138 16
-193 0 -188 -17 6 -156 208 -167 243 -14 44 -20 90 -36 289 -21 250 -34 290
-88 265 -60 -27 -72 -156 -37 -379 27 -168 26 -174 -14 -107 -19 31 -54 82
-79 114 -25 32 -52 72 -61 90 -9 18 -25 37 -36 43 -31 17 -47 58 -54 143 -4
43 -9 84 -13 93 -3 8 -31 22 -63 31 -43 12 -60 21 -64 37 -3 12 -9 106 -13
210 -6 179 -5 190 13 203 23 17 88 11 137 -13z m-1123 -20 c96 -30 147 -84 80
-84 -37 0 -112 38 -160 80 l-35 31 35 -6 c19 -4 55 -13 80 -21z m1820 -89 c59
-59 57 -67 -4 -32 -35 20 -80 87 -58 87 4 0 32 -25 62 -55z m-1013 -60 c-3
-58 -10 -112 -15 -121 -9 -15 -11 -15 -21 5 -18 33 12 221 35 221 4 0 4 -47 1
-105z m2747 83 c24 -33 19 -80 -10 -124 -15 -21 -35 -58 -45 -81 -25 -58 -46
-56 -103 11 -25 29 -46 57 -46 61 0 17 162 155 182 155 4 0 14 -10 22 -22z
m-496 -25 c2 -11 -6 -36 -17 -54 -17 -28 -21 -51 -21 -124 0 -122 -11 -134
-39 -41 -25 84 -23 103 26 199 24 49 46 57 51 20z m-2720 -97 c18 -25 29 -46
24 -46 -19 0 -72 59 -72 80 0 27 8 22 48 -34z m1561 -60 c46 -34 131 -139 131
-162 0 -8 -33 13 -132 84 -80 57 -91 73 -60 91 24 14 24 14 61 -13z m1843 -13
c23 -21 23 -55 -1 -84 l-19 -24 -36 19 c-43 23 -45 40 -9 78 31 32 40 34 65
11z m184 9 c15 -10 74 -93 74 -104 0 -14 -68 -9 -84 8 -10 9 -16 33 -16 60 0
44 5 51 26 36z m648 -98 c12 -31 6 -61 -18 -84 -33 -30 -59 -21 -50 17 17 70
53 106 68 67z m-4176 -24 c20 -11 46 -28 58 -37 27 -24 85 -105 79 -111 -4 -5
-64 43 -155 126 -49 45 -41 54 18 22z m3436 -89 c28 -21 69 -47 91 -59 40 -20
40 -20 15 -30 -110 -42 -169 -85 -210 -149 -56 -87 -39 -91 110 -23 128 58
124 59 131 -30 4 -41 8 -172 9 -290 3 -251 -3 -278 -95 -402 -63 -87 -128
-188 -179 -280 -37 -68 -60 -84 -70 -50 -3 9 -6 94 -7 187 l-3 171 62 89 c94
135 99 175 30 287 -16 26 -32 64 -35 85 -13 81 -52 123 -115 123 -54 0 -49 19
22 82 58 51 61 56 71 118 16 102 71 210 107 210 8 0 38 -17 66 -39z m-594 1
c0 -32 -16 -52 -42 -52 -22 0 -23 12 -3 50 20 39 45 39 45 2z m1360 -177 c-22
-36 -79 -89 -87 -81 -8 8 18 47 60 93 46 49 61 43 27 -12z m290 -30 c0 -39
-43 -97 -65 -88 -29 10 -16 81 23 125 21 25 42 6 42 -37z m-1656 -45 c46 -21
66 -36 66 -49 0 -29 -63 -146 -81 -149 -19 -4 -42 48 -65 145 -14 61 -13 83 5
83 5 0 38 -14 75 -30z m-2168 -200 c33 -21 84 -62 114 -89 l55 -50 -36 -1
c-57 0 -137 46 -170 98 -25 39 -38 82 -25 82 2 0 30 -18 62 -40z m3828 -23
c20 -27 20 -28 1 -62 -15 -30 -52 -65 -122 -118 -25 -19 -25 23 0 70 13 27 27
65 31 85 11 62 53 74 90 25z m-3013 -77 c33 -27 65 -50 70 -50 6 0 9 -10 7
-22 -3 -20 -10 -23 -59 -26 -39 -2 -59 1 -67 11 -13 16 -29 137 -18 137 4 0
34 -22 67 -50z m2700 -12 c13 -49 5 -106 -36 -257 -14 -51 -25 -108 -25 -126
0 -39 -8 -65 -21 -65 -13 0 -11 65 6 208 34 281 51 333 76 240z m-984 -130
c-3 -7 -22 -56 -42 -108 -21 -52 -41 -98 -45 -103 -3 -4 -14 27 -24 69 -20 85
-21 83 51 125 53 31 68 35 60 17z m-2304 -19 c12 -7 49 -35 82 -64 34 -29 88
-67 120 -85 84 -45 151 -96 183 -138 15 -20 67 -81 115 -136 148 -169 173
-217 142 -269 -13 -21 -21 -66 -27 -156 -15 -197 -8 -189 -92 -100 -91 96
-236 286 -317 415 -34 54 -94 146 -134 204 -73 108 -185 300 -185 318 0 10 25
16 73 21 10 0 28 -4 40 -10z m1642 -60 c9 -27 -24 -74 -51 -74 -15 0 -19 6
-17 29 2 31 28 66 49 66 7 0 16 -10 19 -21z m-797 -54 c56 -23 92 -67 92 -112
0 -33 -2 -35 -27 -29 -72 15 -153 19 -168 6 -29 -24 -18 -58 28 -86 59 -37 86
-63 108 -106 29 -56 26 -78 -12 -78 -59 0 -97 28 -176 134 -89 118 -109 159
-119 243 -10 96 -13 94 118 68 63 -13 133 -31 156 -40z m2142 -29 c-18 -104
-33 -136 -65 -136 -40 0 -40 24 0 108 70 148 88 156 65 28z m580 55 c31 -60
-23 -408 -83 -528 -13 -26 -38 -93 -55 -148 -33 -106 -55 -138 -105 -150 -36
-9 -39 -15 -47 -100 -6 -58 -13 -80 -36 -110 -17 -23 -34 -62 -41 -95 -16 -82
-52 -151 -92 -177 -47 -32 -141 -31 -141 2 0 15 121 198 155 235 27 30 55 85
91 177 23 60 25 77 19 144 -6 72 -4 82 30 165 20 49 43 122 51 163 8 41 32
115 53 165 21 50 46 116 54 146 17 58 40 86 92 113 39 21 42 21 55 -2z m-3825
-112 c18 -33 17 -90 -2 -96 -13 -5 -19 12 -29 80 -7 55 7 63 31 16z m2199 -64
c11 -8 39 -15 64 -15 l43 0 -6 -42 c-12 -82 -10 -242 3 -289 8 -26 34 -71 58
-100 48 -58 76 -131 94 -247 6 -37 13 -77 16 -89 8 -40 -13 -25 -60 40 -60 84
-80 101 -109 93 -31 -7 -47 -47 -45 -113 2 -58 -3 -68 -26 -60 -17 7 -80 127
-118 227 -24 61 -25 70 -15 154 11 97 7 106 -45 106 -42 0 -58 10 -92 58 l-33
44 45 42 c25 22 76 78 114 124 38 45 74 82 81 82 7 0 21 -7 31 -15z m-608
-276 c6 -30 21 -73 33 -97 39 -76 4 -76 -76 1 -59 56 -69 120 -26 162 26 27
56 -2 69 -66z m-1389 41 c7 -14 15 -37 18 -52 3 -15 27 -55 55 -90 27 -35 77
-103 112 -152 71 -101 154 -203 246 -305 l63 -70 -42 2 c-53 3 -71 -20 -49
-61 15 -25 21 -27 93 -32 68 -4 79 -8 94 -30 9 -14 64 -73 121 -132 57 -59
102 -113 99 -120 -3 -9 -30 -13 -100 -12 -127 2 -156 18 -175 94 -16 63 -27
80 -52 80 -15 0 -18 -11 -22 -65 -6 -91 -18 -99 -70 -43 -24 25 -70 63 -103
85 -33 22 -69 50 -79 62 -28 31 -112 247 -207 533 l-82 246 17 47 c20 51 42
57 63 15z m3029 -18 c-17 -47 -36 -173 -36 -236 0 -23 -7 -51 -15 -62 -15 -19
-15 -19 -30 0 -18 24 -21 156 -4 207 12 35 88 144 95 136 2 -2 -2 -22 -10 -45z
m-4499 -103 c27 -12 58 -26 70 -32 36 -16 37 -37 2 -37 -46 0 -139 55 -139 82
0 13 16 10 67 -13z m2565 -76 c21 -24 27 -55 19 -93 l-6 -32 -46 58 c-66 86
-66 84 -21 84 25 0 44 -6 54 -17z m1702 -158 c10 -30 12 -54 7 -68 -5 -12 -60
-76 -122 -143 -63 -66 -122 -131 -132 -143 -11 -14 -26 -21 -40 -19 -19 3 -22
10 -25 62 l-3 60 120 114 c67 63 130 130 142 148 11 19 24 34 29 34 4 0 15
-20 24 -45z m-1974 -12 c6 -27 33 -100 60 -163 41 -98 90 -274 79 -284 -2 -2
-59 49 -127 114 l-123 117 26 59 c22 48 54 164 55 197 0 4 4 7 9 7 5 0 14 -21
21 -47z m-2109 7 c89 -30 199 -81 199 -92 0 -6 -7 -7 -16 -4 -9 4 -56 13 -105
21 -93 15 -120 25 -156 58 -47 42 -17 49 78 17z m2669 -20 c22 -11 45 -30 51
-42 7 -13 12 -69 13 -133 1 -93 -2 -114 -18 -138 -43 -63 -76 -9 -105 176 -12
70 -21 134 -21 142 0 21 34 19 80 -5z m385 -40 c8 -16 27 -62 41 -102 15 -40
58 -139 96 -221 l69 -147 -48 -62 c-26 -34 -51 -66 -56 -72 -12 -18 -80 62
-71 82 10 20 9 55 -3 227 -8 101 -16 145 -36 199 -27 69 -35 126 -17 126 5 0
16 -13 25 -30z m-744 -100 c42 -23 190 -279 244 -422 21 -57 11 -78 -40 -78
-45 0 -85 39 -85 83 0 19 -7 56 -15 83 -8 27 -15 63 -15 80 0 21 -16 55 -47
100 -50 73 -90 164 -72 164 6 0 19 -5 30 -10z m1813 -254 c12 -62 -8 -105 -94
-204 -74 -85 -110 -111 -110 -79 0 7 -21 43 -46 80 -25 38 -43 75 -40 83 3 8
23 22 43 30 22 9 70 49 116 97 l78 82 23 -27 c13 -14 26 -42 30 -62z m-3788
-91 c138 -18 158 -25 273 -97 52 -33 121 -73 153 -89 32 -16 87 -50 120 -75
34 -25 91 -61 127 -81 140 -76 252 -146 244 -154 -4 -4 -51 -11 -105 -15 l-96
-7 -99 46 c-110 52 -196 77 -261 77 -34 0 -48 -6 -67 -26 -25 -27 -40 -76 -33
-111 4 -26 119 -80 198 -93 36 -7 117 -27 180 -46 63 -19 178 -48 255 -65 77
-17 162 -40 189 -51 27 -10 108 -32 179 -48 174 -39 210 -58 249 -127 17 -30
50 -70 74 -90 24 -20 40 -41 37 -46 -10 -17 -298 -1 -414 23 -83 18 -120 20
-184 15 -110 -11 -119 -10 -173 13 -26 11 -99 34 -162 52 -63 17 -126 37 -139
43 -13 7 -57 54 -98 105 -41 52 -107 130 -147 175 -112 127 -154 182 -266 347
-79 117 -117 163 -159 194 -155 117 -166 146 -53 146 37 0 117 -7 178 -15z
m3229 -59 c8 -19 19 -78 24 -133 6 -54 13 -109 16 -123 10 -40 -10 -8 -66 104
-52 106 -59 139 -32 168 24 27 42 22 58 -16z m768 -146 c-20 -35 -70 -86 -77
-79 -3 3 -1 22 4 44 10 44 32 65 67 65 24 0 24 0 6 -30z m-489 -169 c-1 -44
-15 -68 -33 -57 -14 9 -14 46 -1 81 15 39 35 25 34 -24z m1816 -16 c0 -28 -41
-98 -120 -205 -42 -58 -98 -137 -123 -177 -48 -72 -127 -152 -221 -223 -89
-67 -474 -246 -513 -238 -10 2 24 39 91 101 68 64 115 116 133 150 25 46 34
54 79 68 28 9 76 33 107 53 31 20 83 52 115 72 32 20 140 120 245 225 103 104
192 189 197 189 6 0 10 -7 10 -15z m-230 -11 c0 -65 -195 -234 -270 -234 -25
0 -22 16 15 90 33 65 67 95 148 129 81 34 107 38 107 15z m-3574 -79 c84 -44
115 -55 152 -55 53 0 103 -12 180 -42 38 -15 68 -37 106 -80 52 -57 146 -222
146 -256 0 -22 -62 39 -102 100 -17 26 -38 50 -47 52 -20 6 -131 26 -144 26
-5 0 -6 -22 -2 -51 l7 -52 -28 7 c-73 19 -297 231 -352 335 -32 60 -37 71 -26
71 3 0 53 -25 110 -55z m1729 -169 c3 -17 9 -128 14 -246 5 -118 12 -223 16
-232 5 -12 2 -18 -7 -18 -32 0 -132 256 -144 368 -4 32 -13 67 -20 79 -23 36
-16 67 22 112 l37 42 38 -37 c22 -22 41 -51 44 -68z m364 -203 c1 -23 -5 -84
-13 -135 -8 -51 -20 -133 -26 -183 -8 -67 -19 -108 -45 -160 -33 -67 -124
-183 -110 -140 4 11 15 92 26 180 20 176 32 245 54 321 8 28 21 82 29 120 8
38 23 87 32 109 l17 40 18 -55 c10 -30 18 -74 18 -97z m-1243 95 c20 -39 74
-196 74 -216 0 -25 -44 -8 -67 27 -40 59 -65 180 -43 206 17 20 17 20 36 -17z
m-2256 -148 c22 -11 40 -24 40 -29 0 -11 -77 -21 -113 -14 -31 6 -84 74 -73
92 7 11 71 -11 146 -49z m-1245 -86 c-34 -25 -186 -62 -163 -38 10 10 142 53
163 53 20 0 20 0 0 -15z m992 -128 c9 -7 -134 -112 -200 -148 -46 -24 -113
-73 -154 -110 -40 -38 -78 -68 -84 -68 -5 0 -61 -22 -123 -50 -62 -27 -127
-53 -144 -56 -29 -6 -32 -4 -32 16 0 42 48 107 114 154 35 25 111 88 168 139
170 153 139 140 308 131 80 -3 146 -7 147 -8z m1058 -120 c29 -12 26 -13 -53
-20 -46 -3 -118 -18 -160 -32 -84 -27 -245 -44 -255 -27 -11 17 31 61 66 69
92 20 362 27 402 10z m1712 -303 c29 -50 24 -65 -13 -37 -35 26 -59 68 -50 89
8 23 28 7 63 -52z m-669 -3089 c-6 -66 -54 -163 -113 -230 -54 -60 -56 -48
-14 83 34 106 60 163 93 204 28 35 40 15 34 -57z m-761 50 c15 -9 21 -23 21
-47 0 -18 14 -61 31 -95 21 -42 27 -63 19 -68 -6 -4 -17 2 -25 12 -16 21 -113
210 -113 219 0 9 41 -4 67 -21z"/>
</g>
</svg>
