<?xml version="1.0" standalone="no"?>
<!DOCTYPE svg PUBLIC "-//W3C//DTD SVG 20010904//EN"
 "http://www.w3.org/TR/2001/REC-SVG-20010904/DTD/svg10.dtd">
<svg version="1.0" xmlns="http://www.w3.org/2000/svg"
 width="1536.000000pt" height="842.000000pt" viewBox="0 0 1536.000000 842.000000"
 preserveAspectRatio="xMidYMid meet">
<metadata>
Created by potrace 1.16, written by Peter Selinger 2001-2019
</metadata>
<g transform="translate(0.000000,842.000000) scale(0.100000,-0.100000)"
fill="#000000" stroke="none">
<path d="M7450 8408 c-447 -78 -1056 -266 -1370 -423 -113 -57 -194 -116 -380
-276 -202 -174 -216 -184 -295 -214 -77 -29 -109 -51 -317 -222 -159 -129
-461 -349 -583 -423 -129 -79 -149 -81 -304 -28 -54 18 -105 28 -142 28 -50 0
-63 -5 -101 -33 -68 -52 -73 -70 -73 -244 l0 -152 -35 -37 c-85 -89 -207 -136
-481 -184 -95 -17 -173 -29 -173 -28 -1 2 -8 28 -15 58 -33 144 -155 328 -278
422 -90 68 -159 92 -263 92 -72 0 -94 -4 -141 -27 -79 -38 -83 -45 -65 -107 9
-29 18 -100 21 -158 4 -59 15 -136 25 -172 23 -79 63 -123 197 -216 118 -83
153 -122 153 -173 0 -41 -13 -63 -90 -146 -58 -63 -63 -75 -104 -275 -18 -91
-44 -192 -57 -225 l-24 -60 -80 0 c-150 1 -248 66 -507 337 -95 99 -181 184
-191 190 -14 7 -38 3 -87 -13 l-69 -22 -11 -49 c-22 -105 -23 -239 -1 -443 21
-199 27 -383 15 -445 l-7 -32 -91 7 c-724 53 -1117 441 -1357 1340 -56 209
-49 197 -112 193 l-52 -3 -3 -105 c-1 -58 2 -114 7 -125 6 -11 17 -69 26 -130
54 -361 156 -711 299 -1026 144 -315 339 -613 713 -1087 l121 -153 -27 -72
c-22 -62 -26 -87 -26 -182 1 -144 23 -208 162 -467 118 -221 165 -278 284
-337 66 -33 144 -42 167 -19 7 7 12 36 12 65 0 39 4 55 16 60 8 3 140 -13 292
-36 349 -52 435 -61 602 -61 153 0 306 22 525 75 505 122 908 308 1320 608
176 128 184 130 496 122 l230 -5 29 -33 c70 -80 204 -120 385 -116 l109 3 64
-90 c83 -115 138 -184 328 -406 86 -101 213 -255 282 -343 241 -306 276 -377
274 -545 -1 -109 -21 -255 -62 -453 -28 -134 -28 -140 -14 -210 28 -134 1
-214 -150 -440 -103 -154 -137 -220 -161 -312 -24 -92 -20 -134 17 -189 55
-83 124 -125 319 -192 120 -41 136 -44 232 -44 56 0 120 5 142 10 22 5 130 14
240 20 245 14 340 30 422 70 92 46 133 110 133 211 0 47 1 48 33 53 17 3 79
13 137 22 189 29 293 83 341 176 l19 37 -30 50 c-17 27 -50 91 -74 142 -256
548 -270 1305 -35 1905 31 81 47 108 66 117 27 12 301 -40 858 -163 487 -108
787 -165 1002 -190 79 -10 103 -9 162 5 64 16 78 16 188 2 193 -26 204 -27
303 -16 251 27 516 112 813 260 127 64 337 187 420 245 l47 34 0 -34 c0 -65
29 -182 83 -336 85 -241 92 -321 46 -505 -43 -172 -135 -360 -251 -517 -75
-101 -226 -258 -306 -318 -45 -33 -65 -56 -78 -89 -9 -24 -38 -72 -65 -107
-75 -99 -75 -99 -31 -121 32 -17 64 -53 147 -167 22 -30 56 -40 265 -72 84
-13 172 -18 330 -18 238 0 310 12 435 74 65 31 146 104 171 152 14 27 14 34 1
67 -14 35 -14 41 7 93 47 114 77 155 275 360 170 177 209 278 190 499 -24 298
-6 404 161 944 32 105 71 233 85 285 14 52 28 102 31 110 10 28 182 -378 267
-630 133 -394 191 -685 192 -970 0 -161 -1 -167 -33 -265 -19 -55 -76 -188
-127 -295 -127 -267 -153 -346 -170 -511 l-6 -66 37 -33 c129 -113 350 -145
787 -116 131 9 267 16 302 16 82 0 88 3 129 60 19 27 43 51 53 54 17 5 18 21
18 203 0 221 13 300 95 593 22 80 58 210 80 290 63 226 83 352 84 521 l0 146
-42 69 c-72 120 -111 237 -149 444 -13 74 -17 155 -17 370 l-1 275 57 165 c84
246 112 398 184 1015 14 121 34 279 46 350 24 151 21 192 -38 485 -99 495
-234 850 -445 1165 -321 480 -761 885 -1198 1105 -272 137 -552 195 -1161 240
-146 10 -331 25 -413 32 -248 20 -438 0 -914 -101 -476 -100 -573 -110 -873
-86 -238 20 -398 16 -473 -10 -46 -16 -54 -15 -205 11 -330 55 -550 120 -1412
412 -333 113 -611 193 -667 191 -21 -1 -63 -6 -93 -11z"/>
</g>
</svg>
