<?xml version="1.0" standalone="no"?>
<!DOCTYPE svg PUBLIC "-//W3C//DTD SVG 20010904//EN"
 "http://www.w3.org/TR/2001/REC-SVG-20010904/DTD/svg10.dtd">
<svg version="1.0" xmlns="http://www.w3.org/2000/svg"
 width="1049.000000pt" height="1536.000000pt" viewBox="0 0 1049.000000 1536.000000"
 preserveAspectRatio="xMidYMid meet">
<metadata>
Created by potrace 1.16, written by Peter Selinger 2001-2019
</metadata>
<g transform="translate(0.000000,1536.000000) scale(0.100000,-0.100000)"
fill="#000000" stroke="none">
<path d="M7868 15333 c-20 -16 -65 -53 -100 -84 -83 -74 -97 -81 -139 -69 -44
13 -144 13 -191 0 -49 -14 -133 -96 -160 -157 -15 -34 -22 -69 -22 -119 -1
-64 3 -79 37 -144 44 -85 40 -100 -32 -100 -71 0 -122 -19 -162 -59 -37 -38
-79 -132 -79 -179 0 -61 81 -187 131 -204 23 -8 0 -55 -50 -105 -81 -80 -85
-90 -92 -237 -5 -88 -13 -151 -27 -191 -11 -33 -25 -109 -32 -170 -18 -158
-19 -160 -63 -88 -64 106 -75 138 -65 191 15 80 -12 170 -68 225 -43 43 -90
60 -169 60 -103 1 -150 -25 -195 -106 -30 -54 -34 -71 -34 -132 0 -77 14 -113
61 -157 70 -67 202 -89 283 -48 22 11 42 20 45 20 6 0 95 -178 123 -245 11
-27 30 -77 43 -109 l23 -59 -27 -21 c-15 -12 -27 -27 -27 -34 0 -6 22 -78 49
-159 27 -81 52 -173 55 -203 4 -30 11 -196 16 -368 10 -311 18 -400 46 -498
17 -63 20 -450 3 -504 -6 -19 -14 -87 -18 -150 -10 -135 -40 -238 -103 -345
-65 -109 -163 -205 -211 -205 -10 0 -14 12 -14 38 0 46 -23 92 -74 150 -29 33
-37 50 -34 70 3 15 9 60 14 99 l9 73 99 105 c122 131 150 177 158 264 10 110
23 160 70 267 54 124 58 181 21 277 -14 34 -29 81 -35 103 -6 24 -41 82 -81
135 -85 114 -153 248 -175 349 -10 41 -23 97 -31 124 -8 26 -14 61 -14 76 0
16 -3 35 -6 44 -7 19 -24 21 -24 4 0 -7 -14 -48 -32 -92 -22 -57 -47 -95 -87
-139 l-56 -60 -6 125 c-6 114 -9 131 -42 204 -61 137 -67 155 -113 343 -25
102 -49 192 -54 201 -5 9 -35 31 -67 48 -63 33 -103 71 -151 143 -41 61 -87
99 -120 99 -39 0 -68 22 -184 141 -99 101 -138 130 -388 291 -73 47 -182 145
-267 239 -37 42 -101 113 -141 157 -40 45 -78 82 -84 82 -7 0 -7 -36 -2 -112
17 -216 4 -301 -67 -455 -72 -156 -128 -339 -180 -593 -15 -73 -27 -376 -19
-495 6 -97 14 -130 64 -280 57 -167 58 -173 64 -314 l7 -144 46 -13 c36 -11
61 -29 109 -81 58 -61 124 -152 117 -160 -2 -1 -21 7 -43 18 -34 18 -52 20
-135 16 -61 -3 -105 -10 -120 -20 -74 -47 -273 -47 -392 -2 -54 21 -67 19 -67
-10 0 -40 35 -100 80 -135 23 -18 39 -34 37 -36 -3 -4 -251 92 -307 118 -14 7
-41 17 -60 23 -19 6 -35 16 -34 23 1 7 2 21 3 31 1 17 11 19 89 23 77 3 94 7
131 31 56 37 91 110 91 190 0 134 -97 237 -224 237 -69 0 -95 -10 -147 -57
-83 -75 -104 -190 -53 -292 l27 -53 -20 -26 c-25 -34 -60 -38 -126 -16 -29 10
-54 19 -57 19 -3 1 -21 8 -41 17 -40 17 -46 34 -70 183 -12 80 -59 272 -94
390 -13 44 -26 90 -30 103 -6 22 -5 23 27 17 23 -4 52 0 89 14 97 36 139 102
139 216 0 79 -19 121 -82 182 -48 47 -117 69 -178 58 -37 -7 -111 -47 -130
-70 -17 -20 -40 -19 -40 2 0 9 5 31 12 49 10 28 8 40 -18 99 -33 80 -78 118
-157 135 l-52 11 -42 87 c-23 48 -51 110 -63 139 l-22 52 27 54 c51 105 31
235 -51 326 -52 58 -108 87 -184 96 -106 12 -109 13 -134 63 -13 26 -31 74
-41 107 -9 33 -25 83 -35 110 -10 28 -21 62 -24 77 -3 15 -17 40 -30 55 l-24
28 -7 -46 c-12 -78 0 -189 34 -332 l32 -137 -30 -39 c-71 -89 -83 -185 -38
-284 39 -85 61 -111 125 -149 56 -32 59 -33 176 -33 l119 0 12 -40 c7 -22 22
-62 34 -88 26 -61 27 -89 0 -105 -30 -19 -79 -129 -79 -177 0 -50 32 -120 73
-163 l32 -33 -45 16 c-53 19 -202 21 -246 5 -16 -6 -55 -39 -86 -73 l-56 -61
-124 13 c-68 8 -143 20 -168 27 -81 25 -127 18 -230 -31 -193 -94 -390 -229
-367 -251 7 -7 25 -1 317 113 176 69 170 68 300 44 30 -5 84 -15 120 -20 141
-23 130 -19 130 -54 0 -45 50 -145 96 -191 57 -57 115 -80 199 -80 56 0 80 5
120 26 58 30 127 101 153 155 21 46 31 54 51 43 19 -10 221 -71 239 -72 22 -2
39 -38 62 -128 12 -47 29 -114 40 -150 35 -127 35 -122 -3 -115 -21 4 -59 0
-97 -11 -84 -23 -132 -69 -154 -146 -14 -51 -15 -62 -1 -113 16 -63 21 -71 79
-132 68 -73 177 -79 268 -17 22 16 47 39 55 51 10 15 25 23 44 23 16 0 149
-40 296 -89 147 -49 315 -101 373 -116 103 -27 154 -47 164 -63 7 -12 47 -195
43 -199 -2 -1 -39 4 -83 13 -43 8 -142 19 -219 24 -169 10 -313 32 -420 65
-44 13 -118 33 -165 44 -47 10 -104 24 -127 30 -64 17 -237 42 -348 51 -55 5
-120 13 -145 19 -25 6 -83 10 -130 11 -47 0 -114 7 -150 15 -85 19 -128 18
-165 -1 -87 -47 -178 -67 -202 -43 -20 20 -166 -24 -256 -77 -143 -83 -124
-79 -337 -84 -107 -3 -201 -9 -207 -13 -22 -14 -14 -32 48 -113 51 -65 123
-167 161 -228 4 -6 20 -42 37 -81 24 -57 31 -94 40 -200 14 -177 29 -224 97
-295 30 -32 83 -72 117 -91 34 -18 83 -47 110 -64 l47 -32 -36 -54 c-51 -73
-177 -229 -257 -317 -37 -39 -78 -90 -92 -112 -39 -62 -165 -191 -179 -182
-27 17 -85 32 -128 32 -70 0 -125 -29 -200 -107 -58 -60 -67 -75 -73 -119 -4
-27 -11 -54 -16 -60 -5 -5 1 -40 12 -79 17 -54 32 -79 71 -121 46 -49 50 -56
44 -89 -8 -41 -16 -43 -64 -13 -28 17 -55 23 -121 26 -86 4 -86 4 -141 -35
-71 -50 -100 -104 -100 -189 0 -79 8 -100 59 -151 54 -54 93 -71 180 -79 39
-4 73 -10 76 -14 2 -3 -7 -40 -20 -81 -14 -41 -31 -100 -40 -131 -9 -32 -20
-58 -25 -58 -5 0 -16 12 -24 28 -17 31 -101 115 -133 131 -27 14 -175 14 -224
1 -74 -21 -165 -131 -184 -222 -4 -23 -14 -30 -57 -43 -78 -23 -97 -20 -140
22 -36 35 -43 38 -96 37 -68 0 -105 -20 -133 -75 -10 -21 -32 -45 -48 -53 -51
-27 -48 -65 5 -66 15 0 24 -8 28 -24 8 -34 69 -84 111 -92 76 -14 117 9 190
110 14 20 31 29 60 33 51 6 92 -12 168 -75 65 -56 111 -72 217 -79 69 -4 78
-3 109 21 19 14 38 26 42 26 4 0 -7 -26 -24 -57 l-33 -57 -80 3 c-87 3 -143
-12 -201 -56 -70 -51 -112 -170 -98 -278 6 -53 12 -63 81 -141 l75 -84 -11
-58 c-15 -74 -10 -137 10 -137 12 0 74 107 93 158 1 5 35 15 74 22 90 17 116
31 174 92 75 78 79 88 79 181 0 91 -11 126 -59 192 -37 51 -37 54 -11 105 11
22 20 45 20 52 0 23 17 14 43 -24 70 -106 150 -153 256 -153 130 0 217 61 271
188 13 31 13 157 -1 207 -13 47 -55 108 -88 128 -22 13 -18 14 55 20 l79 7 34
-38 c18 -20 58 -70 88 -110 30 -40 92 -119 138 -177 55 -68 88 -119 95 -147 7
-24 18 -64 26 -89 7 -25 18 -79 25 -120 6 -41 19 -95 29 -121 l18 -48 -49 -40
c-69 -58 -103 -133 -104 -224 0 -60 5 -82 34 -141 18 -38 43 -78 55 -88 36
-30 116 -68 160 -75 l41 -7 46 -130 c45 -126 62 -152 80 -124 12 19 11 107 -1
149 -18 59 -27 118 -21 127 3 5 22 19 43 31 96 59 145 159 136 281 -6 77 -24
118 -78 169 -43 42 -79 62 -163 88 -52 16 -58 21 -67 53 -5 20 -19 70 -30 111
-12 41 -32 119 -46 174 -31 122 -36 132 -133 255 -44 55 -97 123 -117 153 -21
29 -56 73 -79 98 -70 76 -69 73 -41 114 33 49 50 134 41 205 -23 185 -183 280
-381 226 -76 -21 -88 -14 -78 45 14 79 27 94 95 113 35 10 79 26 97 35 44 21
140 126 148 160 3 15 10 37 16 49 14 29 4 119 -18 166 -17 36 -17 40 -2 68 39
67 510 653 528 657 9 1 56 -29 105 -68 125 -98 276 -173 383 -190 46 -7 86
-18 88 -24 8 -22 -24 -176 -49 -229 -13 -29 -56 -89 -96 -133 -39 -43 -74 -90
-78 -104 -3 -14 -12 -34 -19 -45 -6 -11 -19 -55 -27 -98 -23 -111 -55 -174
-136 -262 -48 -51 -71 -84 -71 -101 l0 -24 213 0 c117 0 240 -5 272 -11 70
-13 145 -46 270 -118 122 -70 284 -121 388 -121 46 0 77 -4 77 -10 0 -6 -25
-47 -55 -91 -30 -44 -55 -85 -55 -92 0 -6 12 -28 26 -48 l26 -38 -27 -83 c-15
-46 -38 -109 -52 -141 -22 -54 -24 -76 -34 -370 l-11 -312 -47 -55 c-26 -30
-56 -68 -67 -85 -56 -83 -75 -211 -67 -450 l5 -140 -43 -70 c-56 -91 -58 -134
-11 -197 41 -54 82 -136 82 -166 0 -12 -4 -30 -10 -40 -24 -43 -90 -243 -100
-302 -5 -36 -10 -120 -10 -187 0 -131 -7 -146 -45 -103 -18 20 -82 44 -150 55
-58 10 -87 32 -209 155 -61 61 -128 122 -150 135 -37 21 -99 40 -266 81 -30 7
-98 20 -150 28 -150 24 -244 50 -301 86 -30 18 -73 35 -96 38 l-43 5 0 -34 c0
-24 16 -59 50 -114 45 -72 55 -101 76 -211 2 -11 17 -40 34 -65 30 -44 75
-173 104 -303 9 -37 36 -110 60 -162 25 -52 45 -98 45 -102 0 -4 -10 -10 -22
-13 -13 -3 -63 -33 -113 -66 -49 -33 -111 -69 -137 -78 -48 -18 -50 -18 -128
5 -91 26 -202 24 -257 -4 -51 -26 -187 -73 -260 -90 -101 -23 -220 -69 -304
-117 -40 -23 -99 -57 -131 -75 -68 -39 -207 -102 -296 -135 -35 -12 -106 -53
-160 -91 -94 -68 -97 -69 -144 -63 -61 9 -97 -12 -97 -54 0 -23 10 -37 47 -64
27 -20 60 -48 74 -64 26 -27 129 -191 141 -224 9 -23 106 -103 155 -128 35
-18 121 -42 193 -54 119 -21 271 -106 331 -184 23 -29 59 -67 80 -84 47 -37
123 -71 152 -68 46 5 93 -15 155 -68 36 -30 92 -67 126 -83 34 -15 88 -50 121
-79 32 -28 68 -53 79 -56 12 -2 78 -6 147 -9 96 -5 138 -11 173 -26 42 -19 48
-19 78 -5 18 8 52 30 75 49 29 23 78 46 160 72 135 44 200 48 273 15 25 -11
63 -27 84 -36 24 -9 36 -19 30 -25 -10 -10 -175 -68 -269 -95 -152 -43 -368
-169 -466 -272 -35 -37 -91 -113 -124 -167 -64 -105 -91 -137 -197 -228 -60
-53 -74 -73 -154 -222 -48 -91 -104 -186 -125 -213 -21 -26 -43 -57 -47 -68
-5 -11 -12 -85 -16 -165 -11 -225 -25 -285 -96 -423 -34 -64 -59 -121 -56
-125 2 -4 67 -2 143 4 115 9 148 16 196 39 54 25 66 27 155 23 73 -4 109 -11
147 -28 67 -31 200 -39 276 -17 30 9 135 62 234 118 233 132 305 164 649 290
77 28 151 58 165 68 15 10 42 26 62 35 48 22 155 112 205 172 119 144 281 449
334 629 58 200 101 359 120 449 26 119 78 221 154 303 l61 66 80 7 c44 4 95
15 114 24 25 13 36 15 45 6 13 -13 11 -189 -5 -274 -17 -94 -145 -336 -260
-491 -64 -85 -168 -282 -206 -389 -14 -39 -36 -118 -48 -176 -13 -58 -31 -136
-41 -175 -15 -56 -18 -109 -19 -260 0 -166 3 -200 22 -265 15 -52 24 -118 28
-216 4 -78 12 -151 19 -162 6 -10 34 -52 61 -92 28 -39 55 -79 60 -88 43 -70
56 -97 70 -148 59 -215 75 -239 211 -310 61 -32 95 -43 149 -48 38 -4 77 -13
85 -21 9 -8 55 -33 103 -55 73 -35 94 -50 126 -93 59 -79 90 -106 131 -117 20
-5 55 -22 76 -36 21 -15 60 -33 86 -40 41 -13 50 -20 66 -57 27 -59 64 -92 89
-78 31 16 75 87 90 144 8 28 18 128 24 220 5 92 14 178 19 192 5 13 40 59 78
102 38 43 76 89 85 103 18 28 57 143 57 169 0 50 38 132 108 234 l77 112 3 96
c3 75 0 104 -12 128 -15 29 -15 32 -1 38 47 17 235 -127 292 -225 20 -33 51
-60 132 -113 213 -138 220 -145 254 -211 15 -29 45 -72 66 -96 32 -35 46 -43
68 -40 41 5 55 39 48 118 -3 36 -8 95 -12 131 -7 80 11 147 71 268 58 116 64
136 76 286 10 122 14 138 66 268 l55 137 6 200 6 200 26 -7 c14 -3 56 -16 92
-29 73 -26 196 -33 217 -12 7 7 47 12 104 12 77 1 103 -3 153 -24 79 -32 116
-30 201 13 39 20 120 53 180 73 132 44 232 93 299 145 28 21 78 50 110 65 57
25 162 84 195 110 8 6 39 19 69 29 52 17 96 25 245 45 76 10 77 11 96 59 13
32 12 35 -11 53 -13 11 -45 31 -70 44 -26 12 -59 38 -74 55 -14 18 -74 127
-132 243 -58 116 -124 238 -146 271 -55 82 -181 205 -253 246 -53 31 -64 43
-109 124 -42 77 -58 96 -109 130 -74 50 -92 84 -115 217 -10 57 -26 121 -35
142 l-16 39 -323 -5 c-267 -4 -331 -8 -377 -22 -86 -27 -129 -48 -169 -79
-106 -85 -233 -121 -486 -137 -200 -13 -248 -23 -415 -84 -69 -25 -134 -46
-145 -46 -11 0 -58 -16 -105 -36 -71 -30 -101 -37 -180 -41 -96 -6 -407 22
-423 37 -5 4 -13 40 -19 79 -11 72 -10 72 17 101 35 36 116 75 186 90 30 6
250 15 489 20 283 6 468 15 530 24 214 33 400 90 483 148 98 67 125 98 182
208 64 122 124 188 231 249 112 64 164 103 228 171 111 119 169 244 242 525
61 238 71 353 54 628 -15 243 -11 289 27 365 45 89 28 89 -175 -2 -116 -52
-202 -76 -279 -76 -28 0 -55 -4 -58 -10 -3 -5 -14 -10 -24 -10 -10 0 -55 -19
-100 -41 -45 -23 -112 -50 -149 -59 -37 -10 -75 -21 -85 -25 -21 -9 -15 11 21
70 47 75 141 278 152 327 12 58 18 147 29 414 5 125 13 210 21 225 16 32 61
79 74 79 10 0 53 -67 144 -225 79 -137 124 -169 276 -195 44 -8 102 -33 206
-89 80 -43 155 -81 168 -85 13 -4 78 -57 144 -117 66 -61 139 -119 162 -131
58 -30 175 -68 207 -68 15 0 31 -4 34 -10 3 -5 17 -10 31 -10 29 0 48 -38 35
-72 -5 -13 -14 -70 -20 -128 -6 -58 -14 -122 -17 -142 l-6 -38 -36 25 c-20 14
-41 25 -47 25 -5 1 -28 9 -50 20 -48 23 -82 24 -153 6 -87 -23 -173 -92 -205
-165 -27 -61 -26 -154 1 -208 48 -93 163 -163 268 -163 l42 0 -2 -102 -1 -103
42 -61 c49 -71 103 -100 218 -117 l70 -9 22 -82 c12 -44 35 -135 52 -201 34
-138 66 -257 116 -435 20 -69 47 -168 60 -221 13 -52 32 -115 41 -139 21 -51
26 -212 7 -231 -6 -6 -33 -13 -60 -16 -85 -7 -147 -31 -186 -71 -56 -58 -67
-94 -67 -230 l0 -118 50 -49 c28 -27 50 -54 50 -61 0 -6 -21 -60 -46 -119 -25
-59 -49 -126 -52 -149 -5 -41 -5 -41 16 -23 11 10 56 72 99 138 l78 119 75 0
c64 0 82 4 126 30 58 32 110 93 130 148 7 20 13 69 14 108 0 82 -30 154 -84
202 l-33 29 29 49 c27 45 29 54 24 124 -3 41 -17 115 -31 163 -14 48 -36 134
-50 190 -14 56 -41 158 -59 227 -19 69 -46 170 -61 224 -14 55 -30 107 -35
115 -4 9 -15 40 -24 70 l-16 54 21 -19 c12 -10 47 -50 78 -89 64 -81 323 -365
404 -444 50 -49 63 -56 153 -81 55 -16 133 -38 174 -50 194 -57 185 -53 187
-80 8 -100 64 -189 147 -232 49 -25 174 -35 234 -19 28 8 63 31 106 71 58 55
68 60 108 60 69 0 92 42 42 77 -54 37 -61 49 -67 112 -17 158 -147 273 -292
258 -69 -7 -128 -38 -187 -99 l-49 -50 -67 16 c-37 9 -116 29 -177 45 -60 15
-122 31 -137 35 -36 8 -36 32 2 51 43 22 58 19 107 -21 65 -53 132 -67 218
-43 47 13 129 92 151 146 19 45 21 138 4 185 -13 37 -13 37 27 81 22 24 46 54
52 66 11 19 9 21 -14 21 -14 0 -42 -7 -62 -15 -49 -21 -52 -20 -112 25 -123
93 -272 88 -356 -12 -42 -50 -52 -83 -60 -202 -7 -106 -9 -111 -39 -138 l-31
-29 -95 98 c-53 54 -190 199 -306 322 l-212 224 25 47 c26 51 39 138 29 193
-4 19 -22 55 -41 80 -36 47 -36 57 0 57 87 0 201 87 246 188 37 82 37 132 0
214 -38 84 -71 112 -164 143 -90 29 -114 31 -144 10 -21 -15 -23 -14 -28 8 -9
35 -2 122 10 120 49 -12 185 -70 250 -106 97 -55 127 -64 144 -43 16 19 6 39
-76 139 -35 43 -78 106 -96 140 l-32 62 -2 215 c-1 118 -3 256 -4 305 -2 83 1
95 31 158 32 68 33 70 27 175 -10 187 -59 314 -176 452 -214 254 -261 312
-290 364 -18 31 -31 60 -28 62 3 3 36 -8 74 -24 150 -66 342 -99 420 -72 55
20 59 16 260 -239 61 -76 68 -91 93 -185 15 -55 35 -131 45 -168 21 -75 19
-83 -39 -155 -18 -23 -42 -67 -51 -98 -17 -53 -17 -58 0 -116 26 -85 65 -142
119 -174 48 -28 52 -37 59 -115 6 -61 27 -132 44 -150 27 -29 49 25 68 172 l6
48 76 37 c71 35 79 42 110 100 46 83 52 145 23 222 -30 80 -104 152 -175 170
-89 22 -94 28 -132 131 -99 273 -99 273 -17 245 55 -18 67 -32 89 -97 30 -88
140 -161 245 -162 114 -1 180 45 245 174 28 57 40 70 69 80 51 16 62 35 34 54
-13 9 -40 19 -62 23 -33 5 -41 12 -57 48 -30 69 -59 96 -138 133 -65 30 -81
33 -124 27 -28 -3 -60 -11 -71 -17 -45 -23 -107 -81 -132 -124 -25 -42 -28
-44 -72 -44 -72 0 -172 20 -172 35 0 7 -11 15 -24 19 -24 6 -166 131 -166 147
0 5 8 9 18 9 10 0 45 11 78 24 32 13 94 30 137 37 72 12 87 11 195 -10 180
-36 192 -36 192 -15 0 14 -28 33 -96 69 -52 28 -103 58 -111 68 -9 9 -23 17
-31 17 -28 0 -128 119 -196 232 -38 64 -109 167 -157 230 -83 105 -179 269
-179 304 0 12 7 14 28 10 15 -3 104 -8 197 -11 213 -8 223 -9 231 -43 23 -95
113 -203 186 -222 83 -23 199 3 262 58 10 10 36 41 58 70 34 46 43 52 74 52
19 0 44 5 55 11 20 10 20 12 4 29 -10 11 -37 27 -61 36 -41 15 -44 19 -54 70
-20 94 -74 149 -173 179 -125 37 -264 -6 -285 -88 l-8 -32 -180 -3 c-98 -2
-226 0 -284 3 -104 7 -104 7 -74 24 17 9 37 22 45 29 8 7 41 31 73 53 l59 40
36 -34 c45 -43 86 -57 168 -57 81 0 118 16 170 72 52 58 63 95 53 192 -9 88
-30 120 -110 161 -92 47 -180 42 -258 -15 -56 -40 -72 -67 -93 -158 -11 -48
-24 -81 -35 -87 -77 -45 -184 -121 -184 -132 0 -16 19 -7 130 61 41 25 80 46
86 46 28 0 23 -20 -8 -36 -18 -9 -42 -25 -54 -35 -11 -11 -46 -35 -78 -54
l-57 -34 -82 82 c-46 45 -113 99 -150 121 -37 21 -67 42 -67 47 0 8 22 15 125
40 71 17 174 59 370 151 94 44 222 97 285 119 141 49 182 73 270 155 51 48 84
70 127 85 71 25 99 50 125 109 19 44 64 100 80 100 15 0 127 91 163 133 20 23
53 75 73 116 52 104 62 121 105 178 20 28 44 67 52 87 14 34 14 36 -6 47 -14
7 -41 8 -78 4 -146 -20 -255 3 -380 80 -32 19 -92 51 -134 71 -66 31 -86 36
-147 35 -39 0 -80 -6 -92 -12 -12 -7 -61 -14 -108 -17 -68 -4 -99 -1 -141 14
-39 13 -82 19 -154 19 -98 -1 -102 -2 -181 -42 -112 -58 -466 -174 -482 -158
-7 7 58 102 110 160 60 66 98 123 98 146 0 16 -8 19 -48 19 -27 0 -63 -7 -80
-15 -35 -18 -167 -47 -191 -43 -10 2 6 16 39 35 30 17 93 62 140 100 47 38
112 87 145 110 115 78 124 102 125 316 0 95 4 148 14 171 16 38 67 72 159 106
104 39 111 87 28 199 -80 108 -86 125 -85 221 0 70 7 102 36 185 48 136 71
258 65 347 -2 40 -21 143 -41 228 -35 147 -36 162 -33 290 4 133 13 178 60
305 30 80 -18 82 -123 5 -36 -26 -92 -61 -125 -78 -33 -16 -82 -41 -110 -55
-50 -26 -75 -33 -235 -63 -92 -17 -280 -78 -349 -113 -23 -12 -87 -64 -141
-115 -117 -109 -178 -145 -265 -156 -49 -6 -72 -15 -103 -39 -21 -18 -56 -36
-76 -42 -49 -14 -112 -71 -141 -130 -13 -26 -46 -71 -73 -100 -49 -53 -50 -53
-108 -54 l-59 0 0 250 c0 244 7 345 25 375 8 12 15 12 57 -3 89 -32 162 -20
244 39 46 34 69 72 89 150 10 39 12 41 72 58 98 27 208 68 208 77 0 4 -15 11
-34 15 -42 7 -215 1 -237 -10 -11 -5 -37 10 -84 49 -37 30 -80 58 -94 62 -49
11 -64 23 -50 39 6 8 23 14 38 14 39 1 105 34 130 66 13 16 36 58 52 93 34 75
43 73 90 -20 25 -50 37 -63 95 -95 63 -35 69 -36 132 -31 109 11 188 87 200
195 2 26 9 52 14 59 5 6 60 27 121 47 74 24 126 47 151 67 40 34 37 58 -5 40
-13 -5 -68 -17 -122 -25 -53 -9 -114 -23 -135 -31 -34 -15 -38 -15 -47 1 -14
25 -45 56 -75 75 l-25 16 45 23 c61 31 174 78 240 100 30 10 78 28 105 40 28
12 92 35 143 52 96 30 154 32 252 7 19 -4 94 -15 165 -23 206 -25 237 -38 216
-97 -42 -121 44 -279 179 -328 92 -33 118 -35 198 -9 55 18 87 37 132 77 l60
52 63 -47 c69 -52 161 -99 177 -89 17 10 11 50 -13 86 -12 19 -67 64 -122 101
l-100 67 -7 65 c-15 155 -132 261 -283 259 -56 -1 -136 -26 -177 -54 -32 -23
-70 -24 -129 -4 -24 8 -105 29 -179 45 -74 17 -155 36 -180 43 -53 14 -216 16
-245 3 -29 -13 -32 -14 -121 -34 -105 -25 -290 -87 -380 -128 l-71 -32 -6 71
c-5 52 -15 87 -37 129 -29 57 -30 60 -14 89 9 17 44 60 78 95 69 71 92 105 83
128 -9 24 -39 19 -79 -11z m-410 -715 c35 -21 35 -22 13 -32 -28 -12 -55 2
-59 33 -4 26 2 26 46 -1z m-4294 -1680 c7 -13 17 -41 21 -63 10 -60 49 -119
98 -151 25 -15 50 -36 56 -46 13 -20 57 -193 100 -388 15 -69 31 -135 35 -147
5 -15 3 -23 -4 -23 -6 0 -12 6 -14 13 -2 6 -15 48 -30 92 -14 44 -34 123 -46
175 -28 132 -69 250 -95 276 -26 26 -70 40 -170 54 -138 20 -132 18 -138 48
-3 16 -26 55 -50 89 l-45 60 88 -5 c79 -4 93 -2 122 16 42 27 54 27 72 0z
m3229 -1917 c55 -60 87 -127 87 -183 0 -25 -7 -31 -54 -52 -29 -13 -57 -29
-60 -35 -13 -20 -26 -11 -26 17 0 16 -7 42 -15 58 -17 35 -45 189 -45 251 l0
44 29 -20 c15 -11 53 -47 84 -80z m1118 60 c-17 -31 -81 -76 -153 -109 -44
-20 -87 -50 -126 -89 -58 -57 -73 -85 -101 -189 -15 -54 -46 -84 -147 -139
-97 -52 -114 -55 -114 -20 0 19 22 47 84 108 47 45 93 90 103 100 10 11 74 76
143 146 110 112 135 132 210 168 97 48 116 52 101 24z m-1564 -37 c64 -37 223
-204 223 -234 0 -4 -24 -19 -53 -34 -30 -14 -68 -42 -86 -61 -39 -43 -36 -44
-128 68 l-63 79 0 107 c0 59 3 110 6 114 8 7 48 -8 101 -39z m625 -349 c16
-36 -3 -75 -37 -75 -48 0 -100 78 -62 93 6 3 29 6 50 6 31 1 39 -4 49 -24z
m-762 -53 c100 -35 159 -64 164 -81 2 -9 7 -33 11 -53 7 -47 6 -48 -144 -9
-104 27 -266 96 -316 134 -19 15 -18 16 20 22 22 4 45 8 50 11 23 9 164 -7
215 -24z m401 -10 c-24 -44 -61 -52 -61 -13 0 25 9 31 42 31 25 0 27 -3 19
-18z m154 -142 c-3 -5 -13 -10 -21 -10 -8 0 -12 5 -9 10 3 6 13 10 21 10 8 0
12 -4 9 -10z m915 0 c0 -5 -5 -10 -12 -10 -6 0 -19 -6 -27 -13 -36 -30 -304
-117 -318 -104 -10 11 19 48 50 63 104 54 307 96 307 64z m-420 -45 c10 -12
10 -28 1 -72 -13 -65 -26 -85 -54 -81 -52 8 -80 106 -42 148 22 24 77 27 95 5z
m-404 -25 c22 0 16 -37 -8 -54 -42 -30 -94 -11 -86 31 3 18 43 34 66 27 8 -2
20 -4 28 -4z m-691 -36 c50 -9 100 -18 113 -20 35 -7 36 -28 8 -90 -14 -31
-26 -63 -26 -70 0 -19 -68 -51 -147 -70 -46 -11 -99 -15 -163 -12 -121 5 -178
31 -288 134 l-77 72 30 7 c17 4 64 19 105 32 127 42 266 47 445 17z m465 6 c0
-5 -5 -10 -11 -10 -5 0 -7 5 -4 10 3 6 8 10 11 10 2 0 4 -4 4 -10z m-130 -97
c0 -27 -41 -63 -72 -63 -36 0 -35 14 1 51 33 32 71 39 71 12z m949 -38 c146
-10 197 -39 322 -177 l74 -81 -40 6 c-22 4 -95 31 -162 62 -67 30 -146 61
-176 69 -29 8 -75 21 -101 30 -26 9 -52 14 -57 10 -11 -6 -39 13 -39 26 0 19
53 70 69 66 9 -2 58 -7 110 -11z m-429 -25 c0 -5 -7 -10 -15 -10 -8 0 -15 5
-15 10 0 6 7 10 15 10 8 0 15 -4 15 -10z m-162 -96 c-9 -9 -21 -13 -28 -9 -14
9 5 25 30 25 12 0 12 -3 -2 -16z m-498 -39 c19 -23 7 -40 -67 -95 -129 -95
-272 -155 -385 -163 -50 -3 -58 -1 -58 14 0 19 64 81 107 102 15 8 53 22 83
32 91 29 233 87 260 106 31 23 44 23 60 4z m974 -39 c17 -7 51 -21 76 -30 85
-30 198 -105 307 -205 114 -104 146 -150 141 -203 -5 -46 -27 -56 -85 -35 -26
9 -71 17 -100 17 -74 0 -243 35 -293 60 -54 28 -119 88 -175 163 -48 62 -55
97 -30 131 9 12 15 42 15 74 l0 55 57 -7 c31 -4 70 -13 87 -20z m-687 -38 c29
-27 29 -32 -3 -74 -31 -40 -48 -43 -70 -9 -17 26 -12 58 14 88 20 22 31 22 59
-5z m443 -34 c0 -46 -57 -77 -99 -54 -18 9 -19 14 -9 30 22 35 108 54 108 24z
m-603 -64 c39 -102 40 -115 6 -149 -26 -26 -38 -30 -109 -35 -70 -5 -121 -17
-177 -41 -15 -6 -16 -4 -7 20 27 72 214 280 245 273 11 -2 27 -28 42 -68z
m429 -65 c16 -8 55 -15 88 -15 54 0 61 -3 92 -35 18 -20 50 -69 70 -110 36
-73 37 -76 31 -162 -4 -62 -14 -111 -35 -168 -17 -44 -43 -116 -60 -160 -16
-44 -33 -99 -37 -122 -4 -24 -10 -45 -15 -48 -11 -7 -34 23 -73 95 l-35 65 -5
245 c-5 228 -8 251 -31 323 -24 73 -31 107 -22 107 2 0 17 -7 32 -15z m-109
-62 c4 -21 8 -106 8 -188 l0 -150 -46 -95 c-26 -52 -54 -104 -64 -115 l-17
-20 7 20 c35 100 31 128 -31 221 l-45 69 3 107 c3 87 7 110 22 127 11 12 26
21 35 21 9 0 34 9 56 19 57 27 63 26 72 -16z m3031 -302 c40 -3 73 -10 75 -16
4 -17 -170 -28 -238 -15 -33 6 -130 14 -215 17 -90 4 -147 9 -135 14 23 9 407
9 513 0z m527 -111 c18 -8 17 -9 -7 -9 -16 -1 -28 4 -28 9 0 12 8 12 35 0z
m-4346 -713 c1 -9 -19 -52 -43 -95 -42 -72 -58 -117 -86 -237 -6 -27 -16 -142
-21 -255 -12 -268 -23 -355 -56 -456 l-27 -83 30 -47 c17 -28 46 -57 69 -70
22 -12 66 -45 98 -74 51 -46 58 -56 52 -79 -19 -78 -189 -260 -338 -362 -48
-33 -121 -87 -162 -120 -41 -32 -76 -59 -79 -59 -2 0 -6 12 -9 28 -3 15 -20
45 -38 67 -58 73 -98 143 -122 214 -32 93 -64 137 -153 211 -41 34 -74 65 -74
68 0 4 48 23 108 42 59 19 138 50 176 68 75 38 82 48 111 162 39 155 124 332
300 625 122 202 197 349 220 431 10 32 20 63 23 68 6 11 20 -20 21 -47z
m-4330 -148 c6 -18 27 -51 46 -74 l34 -43 -31 -6 c-17 -3 -46 -6 -64 -6 -29 0
-34 3 -34 23 0 38 22 137 30 137 5 0 13 -14 19 -31z m4674 -1758 c29 -16 65
-33 81 -37 43 -10 148 -115 211 -209 57 -86 66 -109 40 -99 -36 14 -236 -29
-255 -54 -3 -4 -23 -19 -45 -34 -22 -14 -78 -60 -125 -102 l-85 -77 -3 41 c-2
22 4 78 13 123 31 152 33 172 46 358 l12 186 29 -33 c16 -19 53 -47 81 -63z
m2597 -752 c0 -4 -16 -9 -35 -11 -38 -4 -42 3 -24 49 l11 28 24 -30 c13 -16
24 -33 24 -36z m-3949 -1078 c31 -46 62 -100 68 -121 11 -38 15 -140 6 -140
-3 0 -23 9 -45 20 -54 28 -115 26 -179 -6 -65 -33 -75 -26 -61 44 16 88 120
297 143 289 7 -2 37 -41 68 -86z m-476 -2 c54 -48 82 -104 100 -204 9 -49 21
-98 26 -107 11 -22 12 -141 0 -136 -7 3 -71 76 -140 161 -30 37 -53 120 -58
215 -7 113 8 127 72 71z m1045 -113 c0 -19 -4 -37 -9 -40 -4 -3 -11 -27 -14
-54 -7 -60 -53 -178 -77 -195 -9 -6 -20 -24 -23 -38 -4 -14 -36 -55 -72 -91
l-66 -65 -72 -5 c-82 -5 -143 -32 -189 -81 -28 -31 -30 -31 -44 -13 -7 11 -14
23 -14 26 0 3 27 25 60 48 40 29 70 60 90 95 32 57 36 77 18 106 -23 37 67
171 149 223 44 28 233 116 251 117 7 1 12 -12 12 -33z m-1302 -140 c55 -16 94
-34 118 -55 20 -18 52 -40 70 -49 19 -8 34 -19 34 -23 0 -4 -28 -10 -62 -14
-78 -9 -142 -36 -158 -67 -7 -12 -14 -25 -16 -27 -7 -7 -64 52 -64 65 0 6 -6
14 -14 17 -18 7 -56 91 -56 123 0 22 33 54 55 54 6 0 48 -11 93 -24z m468
-193 c8 -58 16 -109 19 -113 3 -4 -12 -11 -33 -14 -81 -14 -77 -16 -82 42 -3
28 -2 52 2 52 5 0 17 9 28 20 17 17 20 34 21 103 1 81 1 81 15 49 8 -19 21
-81 30 -139z m254 67 c30 -30 27 -78 -6 -90 -55 -21 -118 25 -95 69 23 43 70
52 101 21z m5840 -100 c0 -5 -11 -10 -24 -10 -14 0 -28 5 -31 10 -4 6 7 10 24
10 17 0 31 -4 31 -10z m-7075 -44 c17 -3 95 -10 175 -16 172 -13 257 -26 287
-46 23 -14 73 -102 73 -127 0 -21 -71 -84 -120 -106 -62 -28 -168 -28 -225 -1
-23 11 -63 40 -89 65 -47 45 -147 189 -165 239 -10 25 -10 26 12 12 12 -8 36
-17 52 -20z m620 -86 c21 -23 13 -50 -14 -50 -23 0 -56 43 -46 60 10 16 40 12
60 -10z m163 -187 l-4 -28 -17 35 c-15 33 -15 36 1 48 15 11 17 10 20 -7 2
-12 2 -33 0 -48z m666 -13 c20 -7 26 -17 26 -38 0 -55 -49 -69 -96 -29 -31 27
-28 52 8 67 30 12 32 12 62 0z m-864 -64 c0 -20 -27 -39 -45 -32 -8 3 -15 15
-15 26 0 16 7 20 30 20 19 0 30 -5 30 -14z m210 -39 c0 -18 -26 -35 -37 -24
-3 4 0 20 7 37 9 23 15 28 21 18 5 -7 9 -21 9 -31z m320 18 c10 -12 7 -20 -18
-45 -34 -34 -66 -38 -94 -13 -25 22 -23 28 15 52 38 24 80 27 97 6z m205 -35
c13 -21 86 -50 124 -50 22 0 66 11 97 25 31 14 63 25 71 25 8 0 62 -16 121
-36 177 -59 241 -121 286 -278 29 -99 32 -126 14 -126 -32 1 -255 102 -334
151 -48 30 -126 91 -174 137 -83 77 -119 101 -107 67 4 -8 -21 6 -55 30 -33
25 -71 45 -84 45 -26 0 -30 10 -12 28 12 12 41 2 53 -18z m-820 -30 c12 -14
15 -24 9 -30 -6 -6 -78 -13 -160 -15 l-149 -5 95 26 c52 14 105 27 117 28 13
1 26 6 30 9 13 13 40 7 58 -13z m515 -100 c0 -5 -4 -10 -10 -10 -5 0 -10 5
-10 10 0 6 5 10 10 10 6 0 10 -4 10 -10z m-430 -201 c-7 -11 -55 -42 -108 -67
l-97 -47 -127 -4 c-89 -2 -128 0 -128 8 0 6 5 11 10 11 6 0 10 6 10 14 0 24
129 134 204 175 39 22 105 49 146 61 41 12 80 26 85 31 14 14 19 -155 5 -182z
m188 79 c7 -7 12 -21 12 -33 0 -31 -19 -45 -62 -45 -60 0 -79 58 -26 80 33 13
62 12 76 -2z m580 -40 c27 -27 4 -127 -33 -142 -45 -17 -71 -1 -81 52 -5 27
-1 37 29 67 36 36 64 44 85 23z m155 -54 c24 -61 19 -122 -18 -224 -61 -173
-70 -280 -36 -405 11 -38 17 -72 14 -75 -10 -10 -178 177 -232 260 -69 105
-164 294 -151 298 6 2 25 -1 42 -7 57 -20 149 -14 205 14 67 34 133 121 133
175 0 36 24 17 43 -36z"/>
<path d="M3379 13747 c-54 -15 -125 -56 -156 -89 -34 -37 -76 -164 -69 -209
21 -129 99 -234 197 -263 73 -22 164 -20 218 4 23 11 69 47 102 80 46 47 62
72 75 116 36 124 -29 268 -153 341 -53 31 -145 39 -214 20z"/>
<path d="M9233 6126 c-48 -22 -133 -105 -154 -151 -21 -44 -25 -130 -9 -186
13 -46 81 -124 131 -149 53 -27 148 -27 206 1 50 24 131 110 139 148 3 14 9
34 15 43 16 31 10 91 -18 169 -26 75 -28 78 -82 105 -67 34 -175 44 -228 20z"/>
<path d="M8234 5563 c-77 -135 -103 -172 -173 -241 -82 -81 -164 -146 -197
-156 -11 -3 -42 1 -70 9 -59 18 -91 19 -151 4 -58 -15 -154 -102 -178 -162
-25 -61 -23 -143 4 -201 l23 -47 -39 -47 c-55 -65 -76 -99 -69 -111 4 -6 14
-7 24 -3 35 15 131 74 143 88 10 13 16 11 41 -13 28 -27 34 -28 121 -28 105 0
151 18 204 78 51 58 67 114 59 204 -15 157 -20 139 69 215 44 38 103 88 132
111 87 71 196 257 150 257 -12 0 -80 -97 -108 -154 -13 -28 -81 -88 -166 -148
-21 -15 -59 -43 -85 -63 -27 -20 -48 -33 -48 -28 0 4 16 19 35 32 20 13 89 76
153 140 88 87 126 132 150 180 55 109 33 185 -24 84z m-674 -803 c-46 -40 -70
-54 -70 -40 0 11 78 70 94 70 5 0 -5 -14 -24 -30z"/>
</g>
</svg>
