<?xml version="1.0" standalone="no"?>
<!DOCTYPE svg PUBLIC "-//W3C//DTD SVG 20010904//EN"
 "http://www.w3.org/TR/2001/REC-SVG-20010904/DTD/svg10.dtd">
<svg version="1.0" xmlns="http://www.w3.org/2000/svg"
 width="889.000000pt" height="1536.000000pt" viewBox="0 0 889.000000 1536.000000"
 preserveAspectRatio="xMidYMid meet">
<metadata>
Created by potrace 1.16, written by Peter Selinger 2001-2019
</metadata>
<g transform="translate(0.000000,1536.000000) scale(0.100000,-0.100000)"
fill="#000000" stroke="none">
<path d="M4665 15348 c-108 -38 -754 -498 -1190 -847 -215 -172 -306 -260
-934 -896 -743 -751 -942 -968 -1173 -1279 -296 -396 -533 -835 -609 -1126
-18 -71 -21 -103 -17 -196 6 -126 32 -203 84 -242 206 -158 261 -213 421 -427
277 -369 357 -531 399 -817 28 -193 8 -379 -54 -507 -25 -49 -33 -57 -92 -84
-152 -69 -597 -248 -735 -296 -208 -72 -365 -150 -425 -210 -70 -70 -129 -198
-160 -346 -10 -50 -20 -65 -75 -120 -69 -70 -92 -119 -102 -220 -4 -46 -2 -63
9 -73 12 -9 19 -7 38 13 23 24 28 25 156 25 l132 0 108 -75 c253 -174 297
-201 459 -280 175 -87 583 -252 738 -300 48 -15 89 -30 91 -34 7 -11 -14 -125
-35 -191 -53 -166 -249 -498 -468 -793 -113 -153 -131 -212 -111 -372 18 -145
138 -485 349 -988 123 -294 207 -460 377 -744 40 -66 143 -241 229 -387 341
-583 614 -985 1195 -1760 283 -377 358 -471 478 -603 185 -203 488 -498 732
-712 261 -229 291 -254 336 -269 17 -5 95 -51 174 -101 144 -92 173 -104 184
-76 7 20 1 34 -57 139 l-49 88 21 38 c11 21 21 55 21 77 0 45 -35 153 -81 254
l-31 68 21 27 c17 21 20 35 15 58 -9 44 -65 152 -150 292 -73 119 -82 145 -65
173 12 18 -6 76 -79 265 -56 145 -57 151 -44 188 12 33 11 49 -1 110 -21 97
-61 215 -134 390 -34 80 -61 148 -61 150 0 3 21 4 46 4 39 -1 50 3 67 26 21
27 21 29 3 121 -18 94 -35 150 -99 312 l-36 90 31 32 c28 29 30 36 24 75 -4
24 -34 124 -67 223 -56 167 -60 183 -48 217 21 65 -9 176 -97 350 -20 39 -42
103 -50 142 -9 39 -53 181 -98 316 l-84 246 40 33 c22 19 60 61 85 94 41 57
44 64 42 118 l-2 58 61 66 c102 109 100 103 76 252 -6 40 -3 48 54 132 45 67
62 103 67 138 12 88 27 127 82 227 37 66 57 114 61 145 2 25 27 96 55 156 44
96 51 120 55 190 4 70 9 89 44 154 34 61 42 87 49 158 8 73 18 104 80 241 39
86 76 160 81 163 6 4 53 10 106 13 121 9 202 24 467 87 397 94 531 106 885 74
348 -31 865 -66 1100 -75 446 -18 898 15 1022 74 99 47 165 123 183 209 3 16
24 48 47 73 l41 44 -6 113 c-4 85 -2 119 9 137 35 64 0 183 -76 259 -26 26
-83 66 -126 88 -148 76 -285 110 -749 187 -434 72 -629 99 -985 136 -492 50
-692 86 -822 149 -35 16 -112 61 -173 99 -237 148 -449 256 -565 287 -99 27
-133 51 -210 144 -155 190 -454 646 -481 733 -9 32 -28 77 -42 101 -30 53 -77
156 -168 372 -120 285 -155 358 -291 609 -135 250 -167 306 -312 543 -47 79
-86 147 -86 153 0 5 21 40 47 77 53 78 98 172 108 226 5 26 2 52 -10 83 l-17
45 71 112 c100 160 115 196 108 273 -4 55 -2 67 20 99 13 19 50 88 81 152 l57
117 0 96 0 96 53 80 c73 112 95 179 94 281 -1 77 1 87 42 175 62 131 76 179
76 257 0 64 4 78 64 200 91 187 120 282 114 370 -5 68 -4 71 38 143 71 118 98
225 73 295 -9 27 -3 45 55 172 91 196 109 252 104 328 -6 90 -30 113 -115 113
l-63 0 0 59 c0 51 -3 62 -22 75 -25 18 -59 19 -103 4z"/>
</g>
</svg>
