<?xml version="1.0" standalone="no"?>
<!DOCTYPE svg PUBLIC "-//W3C//DTD SVG 20010904//EN"
 "http://www.w3.org/TR/2001/REC-SVG-20010904/DTD/svg10.dtd">
<svg version="1.0" xmlns="http://www.w3.org/2000/svg"
 width="144.000000pt" height="190.000000pt" viewBox="0 0 144.000000 190.000000"
 preserveAspectRatio="xMidYMid meet">
<metadata>
Created by potrace 1.16, written by Peter Selinger 2001-2019
</metadata>
<g transform="translate(0.000000,190.000000) scale(0.100000,-0.100000)"
fill="#000000" stroke="none">
<path d="M216 1883 c-4 -5 -14 -22 -21 -40 -9 -20 -26 -38 -47 -46 -18 -8 -44
-29 -58 -47 -14 -18 -40 -50 -57 -72 -62 -75 -41 -88 99 -64 55 10 104 14 108
9 5 -4 37 -65 73 -134 82 -161 129 -230 244 -355 51 -57 93 -111 93 -122 0
-11 -7 -36 -15 -55 -20 -49 -19 -79 6 -154 21 -61 21 -65 5 -130 -9 -38 -32
-108 -50 -158 -21 -55 -41 -133 -51 -203 -22 -154 -42 -222 -71 -253 -35 -36
-31 -49 16 -49 34 0 42 4 50 25 5 14 14 25 19 25 5 0 12 21 15 48 11 74 55
251 70 281 7 14 23 49 35 76 29 65 72 138 77 132 4 -4 31 -124 64 -282 5 -22
13 -82 19 -134 10 -87 9 -96 -9 -121 -29 -41 -25 -50 20 -50 36 0 41 3 54 35
12 28 13 47 5 92 -6 32 -14 121 -19 198 -5 77 -14 169 -19 205 -6 36 -13 82
-16 104 l-6 38 73 -7 c40 -4 77 -11 82 -16 13 -12 46 -11 46 1 0 5 13 16 28
24 l28 15 24 -72 c61 -190 73 -305 50 -472 -9 -58 -16 -75 -40 -98 -17 -15
-30 -32 -30 -36 0 -5 17 -11 38 -13 30 -4 42 0 64 21 24 23 27 34 28 86 0 66
17 229 27 260 5 17 8 14 19 -16 15 -44 43 -209 45 -264 1 -22 -2 -50 -6 -63
-7 -20 -4 -22 27 -22 31 0 36 4 45 35 9 28 7 55 -8 128 -25 122 -33 207 -24
254 l7 38 26 -50 26 -50 8 40 c11 49 -6 172 -33 234 -14 31 -19 67 -19 128 0
101 -11 131 -76 201 -48 53 -111 91 -214 132 -28 11 -85 48 -128 83 -101 83
-161 125 -252 177 -97 56 -204 160 -282 274 -77 112 -135 176 -159 176 -15 0
-19 8 -19 40 0 38 -14 52 -34 33z m1137 -1288 c4 -78 3 -86 -8 -65 -21 38 -28
114 -19 199 l8 76 7 -60 c3 -33 9 -100 12 -150z"/>
</g>
</svg>
