<?xml version="1.0" standalone="no"?>
<!DOCTYPE svg PUBLIC "-//W3C//DTD SVG 20010904//EN"
 "http://www.w3.org/TR/2001/REC-SVG-20010904/DTD/svg10.dtd">
<svg version="1.0" xmlns="http://www.w3.org/2000/svg"
 width="4567.000000pt" height="3868.000000pt" viewBox="0 0 4567.000000 3868.000000"
 preserveAspectRatio="xMidYMid meet">
<metadata>
Created by potrace 1.16, written by Peter Selinger 2001-2019
</metadata>
<g transform="translate(0.000000,3868.000000) scale(0.100000,-0.100000)"
fill="#000000" stroke="none">
<path d="M34482 38641 c-11 -6 -9 -16 8 -47 30 -53 79 -103 186 -189 50 -40
123 -111 162 -157 40 -46 85 -92 102 -101 42 -25 168 -171 252 -292 134 -192
321 -523 547 -970 126 -248 200 -412 276 -615 35 -91 111 -271 170 -400 59
-129 153 -341 210 -470 57 -129 125 -282 153 -340 27 -58 53 -121 56 -140 4
-19 22 -82 39 -139 l31 -104 -28 -24 c-16 -13 -32 -21 -36 -16 -4 4 -76 159
-160 343 -299 660 -468 978 -725 1370 -332 504 -622 807 -1065 1111 -243 167
-631 376 -924 498 -111 46 -140 50 -156 21 -17 -32 18 -58 285 -214 249 -145
547 -331 654 -409 46 -33 91 -82 167 -184 58 -76 189 -241 292 -368 202 -248
270 -354 434 -671 175 -339 256 -567 352 -995 51 -223 156 -742 151 -747 -2
-2 -30 13 -62 34 -200 127 -445 354 -579 536 -43 59 -148 215 -233 348 -398
625 -539 781 -1241 1381 -449 384 -554 470 -730 601 -192 142 -430 292 -430
270 0 -13 91 -116 145 -163 28 -24 161 -135 295 -246 135 -111 272 -230 304
-265 110 -118 471 -480 534 -535 34 -31 62 -60 62 -65 0 -12 117 -179 270
-388 133 -181 190 -266 372 -555 80 -126 173 -274 207 -327 34 -54 107 -181
162 -284 108 -202 184 -321 283 -442 90 -112 89 -114 -10 -37 -104 81 -428
324 -635 475 -372 272 -594 465 -1034 900 -159 158 -318 308 -352 334 -87 65
-198 194 -386 446 -88 118 -181 239 -205 268 -142 167 17 -150 251 -503 234
-351 422 -577 886 -1063 210 -220 317 -334 618 -664 79 -86 189 -196 245 -244
98 -84 421 -404 414 -411 -5 -5 -252 82 -351 123 -301 127 -677 364 -1242 786
-493 369 -780 566 -909 625 -50 23 -58 31 -91 96 -166 331 -333 557 -412 557
-23 0 -34 -6 -42 -24 -10 -21 -1 -45 74 -192 107 -209 169 -345 162 -352 -3
-3 -41 0 -85 7 -86 13 -120 5 -120 -27 0 -25 -69 75 -146 213 -139 247 -300
451 -392 499 -30 16 -32 16 -32 -2 0 -10 20 -50 44 -89 24 -38 46 -81 49 -94
7 -27 57 -108 168 -272 42 -62 116 -182 164 -267 48 -85 125 -214 172 -287 46
-73 89 -147 95 -165 6 -18 45 -87 86 -153 126 -202 518 -989 615 -1235 44
-112 117 -347 117 -377 0 -10 -10 -13 -36 -11 l-36 3 -63 155 c-212 524 -550
1168 -860 1640 -248 377 -675 899 -804 981 -49 32 -81 26 -81 -14 0 -13 67
-112 156 -232 291 -394 552 -797 741 -1145 165 -304 334 -659 333 -698 0 -4
-51 92 -113 213 -182 354 -277 499 -516 785 -275 328 -388 456 -534 602 -79
79 -160 163 -179 186 -38 46 -70 53 -76 19 -9 -43 58 -143 261 -394 305 -376
749 -1146 972 -1688 59 -143 175 -452 175 -467 0 -13 -90 -9 -95 5 -72 218
-188 481 -331 748 -54 101 -140 267 -190 369 -197 399 -363 655 -658 1010
-134 162 -343 380 -394 412 -26 16 -35 18 -48 8 -9 -8 -12 -21 -8 -34 10 -32
93 -152 258 -371 449 -599 630 -986 931 -1984 71 -233 71 -240 23 -241 -31 0
-86 99 -129 230 -89 272 -216 560 -353 798 -46 81 -119 212 -161 292 -127 237
-210 376 -467 781 -135 211 -285 458 -334 547 -91 167 -113 194 -141 171 -19
-17 -12 -79 23 -186 38 -119 114 -269 304 -603 289 -507 431 -802 586 -1217
87 -234 297 -863 290 -870 -15 -15 -39 13 -68 79 -63 143 -328 665 -394 775
-206 346 -565 726 -896 951 -58 40 -97 79 -188 193 -302 374 -434 521 -464
517 -55 -8 -12 -97 177 -370 53 -76 93 -138 90 -138 -3 0 -82 30 -176 66 -183
71 -219 79 -225 52 -4 -22 37 -48 261 -160 190 -96 284 -150 304 -177 58 -76
255 -371 317 -474 108 -179 155 -276 232 -477 106 -278 273 -795 260 -807 -1
-2 -18 32 -35 74 -44 106 -197 400 -261 504 -87 139 -170 238 -316 374 -76 72
-167 161 -203 200 -36 38 -97 103 -136 144 -38 40 -194 189 -345 330 -151 140
-336 314 -410 386 -190 184 -227 215 -262 215 -53 0 -50 -46 9 -131 114 -167
308 -385 503 -565 171 -159 306 -303 440 -469 54 -66 155 -185 225 -265 136
-155 217 -270 292 -415 61 -118 253 -567 247 -577 -3 -4 -18 -8 -34 -8 -27 0
-34 10 -141 223 -235 467 -440 816 -587 1002 -210 264 -360 392 -982 837 -321
229 -365 253 -405 224 -13 -9 -16 -20 -11 -40 11 -45 272 -293 546 -520 430
-355 628 -596 875 -1061 59 -110 53 -105 -65 60 -472 657 -719 911 -1225 1257
-308 211 -449 284 -541 276 -30 -2 -40 -7 -42 -24 -2 -15 15 -32 75 -71 89
-59 676 -543 771 -636 138 -135 328 -373 525 -657 121 -176 440 -839 464 -963
10 -55 -12 -20 -62 98 -125 293 -258 496 -579 884 -315 380 -408 475 -751 770
-538 462 -692 564 -703 467 -3 -25 21 -52 220 -250 123 -122 306 -303 408
-401 349 -338 576 -643 745 -998 57 -121 88 -197 82 -204 -2 -2 -20 23 -40 54
-93 151 -298 400 -546 663 -182 193 -219 238 -349 420 -123 172 -137 190 -337
414 -77 87 -167 195 -200 240 -125 173 -159 203 -184 159 -20 -36 69 -218 177
-361 26 -34 110 -144 188 -244 77 -101 188 -255 246 -343 59 -88 157 -221 220
-295 62 -74 126 -157 142 -185 16 -27 68 -111 116 -185 170 -262 254 -424 338
-650 72 -194 79 -220 61 -230 -7 -5 -17 -6 -21 -2 -17 18 -157 274 -242 444
-164 326 -364 639 -532 835 -47 54 -127 149 -180 210 -404 478 -819 863 -931
863 -28 0 -33 -3 -33 -25 0 -18 44 -70 169 -202 343 -361 674 -774 864 -1078
119 -190 259 -487 332 -704 36 -107 64 -196 62 -198 -2 -2 -17 32 -32 74 -157
435 -391 848 -654 1156 -99 116 -667 703 -857 887 -197 189 -353 300 -423 300
-64 0 -50 -25 105 -183 82 -84 228 -246 325 -362 97 -115 242 -286 323 -380
120 -139 157 -190 205 -280 32 -60 111 -200 176 -310 65 -110 131 -227 146
-260 64 -143 233 -700 269 -890 6 -33 14 -69 17 -80 12 -45 -17 4 -46 76 -59
151 -165 351 -262 495 -156 233 -651 857 -793 1000 -56 56 -121 112 -146 124
-25 13 -62 38 -83 57 -46 41 -80 42 -85 2 -4 -34 75 -151 248 -369 269 -339
392 -531 561 -875 93 -191 259 -571 259 -595 0 -5 -26 -14 -57 -20 -52 -11
-59 -11 -71 6 -7 11 -67 118 -133 239 -199 364 -331 574 -571 912 -329 463
-724 871 -1158 1197 -171 128 -450 314 -487 325 -33 10 -68 -1 -76 -23 -17
-43 40 -104 258 -280 267 -216 517 -461 792 -776 209 -239 245 -289 307 -427
33 -70 96 -200 142 -288 124 -241 295 -612 266 -580 -5 6 -46 71 -92 145 -216
348 -422 640 -626 885 -130 156 -488 517 -669 675 -290 252 -803 653 -892 696
-107 53 -147 8 -75 -82 61 -76 302 -317 580 -578 373 -352 623 -626 857 -941
146 -196 216 -295 210 -295 -3 0 -79 65 -168 143 -253 225 -353 300 -740 558
-405 271 -491 330 -727 505 -230 169 -284 193 -292 127 -3 -24 -12 -16 -100
88 -53 62 -129 157 -170 209 -64 82 -78 95 -103 95 -27 0 -30 -3 -33 -38 -4
-51 19 -128 73 -236 75 -149 158 -257 765 -1001 135 -165 236 -299 317 -420
80 -120 294 -470 314 -515 10 -22 99 -212 199 -422 99 -210 180 -384 180 -387
0 -4 -8 -6 -18 -6 -12 0 -27 19 -46 58 -15 31 -69 127 -119 212 -50 85 -121
208 -158 272 -130 227 -173 284 -395 533 -263 295 -396 408 -884 750 -202 141
-436 319 -580 439 -170 142 -226 177 -265 162 -45 -17 26 -127 185 -286 l115
-116 -105 64 c-182 111 -338 180 -374 166 -29 -11 -17 -49 27 -91 23 -22 125
-105 227 -183 269 -208 467 -378 663 -569 195 -190 268 -298 478 -706 160
-312 268 -579 353 -874 l16 -55 -102 100 c-125 123 -259 230 -438 350 -260
175 -547 330 -685 369 -106 31 -135 52 -300 223 -196 203 -312 308 -559 508
-105 85 -222 182 -261 215 -83 72 -569 438 -708 534 -111 76 -160 89 -165 45
-2 -18 12 -42 50 -87 102 -120 495 -489 688 -646 353 -288 408 -337 490 -442
44 -55 77 -101 76 -103 -2 -2 -44 4 -92 13 -80 15 -99 23 -184 80 -358 236
-650 358 -1057 440 l-162 33 -108 85 c-181 142 -271 193 -295 169 -19 -19 1
-56 76 -141 41 -46 73 -88 70 -93 -3 -4 -20 -8 -39 -8 -75 0 -114 -46 -57 -68
15 -6 74 -23 131 -37 58 -15 114 -31 125 -37 11 -6 136 -121 279 -257 211
-200 255 -247 240 -253 -10 -4 -65 -25 -122 -47 l-103 -41 -53 47 c-232 208
-294 261 -395 342 -139 112 -344 251 -422 286 -91 42 -141 22 -107 -41 7 -13
109 -113 228 -223 119 -109 288 -272 375 -360 l159 -162 -71 -44 c-89 -54
-200 -138 -271 -204 l-53 -50 -103 69 c-302 203 -629 385 -780 435 -82 28
-111 46 -305 195 -57 44 -110 80 -116 80 -6 0 -17 -7 -24 -15 -31 -37 68 -166
261 -340 519 -468 608 -554 900 -880 288 -321 385 -458 528 -744 81 -161 301
-686 301 -718 0 -3 -37 43 -82 103 -46 60 -144 171 -218 248 -131 134 -459
413 -555 472 -100 61 -400 265 -635 431 -490 345 -655 449 -777 488 -55 18
-103 14 -103 -8 0 -19 42 -55 145 -125 116 -79 325 -238 792 -602 410 -319
585 -478 740 -670 94 -117 214 -290 291 -421 90 -154 90 -161 1 -64 -45 50
-130 135 -188 190 -58 55 -176 168 -261 250 -236 229 -427 379 -750 590 -467
306 -914 508 -1125 509 -68 1 -80 -2 -83 -16 -4 -22 20 -37 283 -175 468 -245
903 -540 1287 -872 180 -155 241 -215 349 -341 84 -98 226 -285 208 -275 -8 5
-77 68 -154 141 -511 482 -872 763 -1306 1017 -280 163 -1164 617 -1203 617
-31 0 -51 -32 -37 -58 5 -10 29 -36 53 -58 92 -85 223 -168 652 -413 476 -273
639 -381 766 -510 52 -53 158 -154 234 -226 160 -149 287 -287 428 -463 54
-68 98 -124 98 -126 0 -1 -82 79 -182 178 -101 100 -234 225 -297 278 -317
272 -705 525 -1278 832 l-163 88 -147 156 c-226 242 -464 477 -501 496 -39 20
-72 13 -72 -15 0 -46 83 -163 283 -397 43 -51 77 -95 75 -97 -4 -4 -253 44
-305 60 -57 16 -83 1 -68 -41 13 -36 47 -55 196 -109 68 -25 191 -78 273 -117
l148 -73 207 -234 c326 -370 427 -488 522 -611 102 -132 308 -423 303 -429 -1
-2 -51 35 -111 82 -229 180 -440 320 -728 481 -248 139 -620 310 -821 377 -89
30 -111 33 -219 33 -124 1 -185 -12 -185 -40 0 -19 30 -29 138 -48 130 -23
236 -64 502 -197 350 -175 481 -257 652 -408 79 -69 214 -186 299 -259 178
-151 313 -304 462 -524 49 -73 102 -149 118 -169 35 -44 36 -55 7 -65 -18 -5
-35 8 -107 87 -206 226 -460 448 -627 547 -76 45 -104 51 -128 26 -20 -19 -20
-31 -1 -68 8 -15 15 -44 15 -62 0 -26 10 -45 39 -77 21 -23 46 -58 55 -77 9
-19 78 -109 154 -200 224 -269 276 -340 263 -353 -9 -9 -27 5 -78 61 -92 103
-283 276 -448 407 -194 155 -419 322 -465 345 -78 40 -118 16 -80 -47 11 -19
20 -46 20 -60 0 -20 28 -55 113 -142 311 -319 411 -430 545 -599 45 -57 82
-107 82 -113 0 -19 -16 -6 -55 44 -22 28 -224 237 -450 463 -308 308 -500 490
-770 730 -198 175 -375 332 -394 347 -44 36 -85 34 -89 -5 -2 -15 2 -36 8 -48
34 -63 297 -364 634 -724 93 -100 208 -226 255 -281 141 -164 541 -666 541
-680 0 -4 -44 33 -97 82 -200 181 -338 288 -538 413 -216 136 -647 341 -945
449 -131 48 -219 83 -340 137 -87 39 -178 52 -187 28 -8 -23 54 -78 191 -168
77 -51 242 -160 366 -241 l225 -148 203 -206 c112 -113 241 -247 285 -297 84
-92 237 -287 237 -300 0 -4 -26 17 -57 47 -195 184 -345 294 -958 702 -286
191 -610 410 -720 487 -110 77 -210 143 -223 146 -53 14 -39 -24 46 -122 67
-77 179 -176 347 -304 61 -47 234 -199 385 -339 151 -139 309 -281 350 -313
101 -81 409 -375 487 -467 58 -68 61 -75 45 -87 -9 -7 -23 -14 -30 -14 -8 0
-58 41 -111 90 -127 118 -251 217 -431 344 -267 190 -429 290 -753 465 -103
56 -218 121 -255 144 -394 253 -875 484 -1045 503 -56 6 -95 -11 -85 -37 3 -8
48 -36 99 -63 509 -267 1179 -713 1629 -1084 115 -95 486 -460 548 -539 l32
-41 -36 -22 -36 -23 -176 175 c-253 249 -394 371 -681 586 -171 129 -546 381
-731 492 -226 136 -496 256 -634 281 -153 29 -214 -54 -70 -96 89 -26 280
-128 454 -243 254 -166 598 -423 653 -486 26 -31 143 -143 260 -249 254 -232
359 -341 500 -517 155 -193 134 -199 -126 -37 -246 154 -318 194 -487 275
-226 108 -599 253 -853 330 -200 61 -196 60 -336 78 -200 24 -380 14 -485 -28
-28 -11 -120 -36 -204 -55 -204 -45 -276 -71 -280 -100 -3 -18 -14 -24 -60
-34 -79 -16 -160 -47 -170 -66 -8 -14 -21 -14 -126 1 -187 25 -331 17 -343
-21 -8 -23 45 -42 252 -93 251 -61 430 -113 785 -227 279 -90 252 -77 687
-310 197 -105 491 -323 641 -475 l73 -75 -40 -26 -40 -27 -103 81 c-356 279
-923 592 -1384 762 -455 168 -773 246 -1039 254 -136 4 -173 9 -245 31 -138
43 -332 35 -280 -11 8 -7 65 -33 125 -57 61 -24 117 -49 126 -56 8 -8 42 -23
74 -34 71 -25 244 -115 510 -268 400 -229 497 -291 552 -352 29 -31 119 -114
200 -183 184 -155 311 -305 503 -591 l72 -109 -23 -18 c-13 -10 -41 -26 -61
-35 l-37 -17 -28 34 c-91 110 -277 310 -379 409 -318 306 -606 525 -1009 767
-399 241 -992 492 -1065 453 -59 -31 -8 -72 266 -215 217 -114 448 -248 599
-347 166 -110 805 -751 1152 -1157 l123 -144 -42 -36 c-23 -20 -45 -36 -48
-36 -4 0 -43 45 -87 101 -173 215 -340 373 -594 564 -249 188 -604 417 -829
538 -270 144 -610 252 -794 252 -143 0 -158 -63 -26 -105 547 -176 1024 -468
1469 -900 133 -129 246 -264 339 -403 94 -140 164 -261 159 -275 -3 -6 -27
-24 -54 -39 l-50 -27 -49 71 c-380 558 -789 917 -1391 1224 -266 135 -586 251
-782 284 -116 19 -223 0 -237 -42 -9 -30 12 -46 89 -63 250 -55 610 -210 921
-395 164 -97 175 -106 390 -312 205 -198 365 -374 483 -534 76 -103 134 -191
97 -147 -11 12 -80 78 -154 148 -264 249 -524 428 -845 584 -341 166 -642 262
-920 293 -169 19 -450 -10 -500 -52 -18 -15 -19 -46 -2 -57 6 -4 107 -11 222
-14 156 -5 234 -12 303 -28 200 -44 536 -172 746 -282 79 -42 126 -78 273
-211 210 -190 362 -344 481 -486 92 -110 252 -327 252 -343 0 -5 -12 -15 -26
-21 -24 -11 -28 -9 -62 32 -326 396 -568 638 -756 754 -247 155 -590 228 -875
186 l-64 -9 -151 103 c-83 57 -179 119 -214 139 -73 42 -254 186 -407 322
-114 102 -147 116 -153 65 -5 -48 98 -173 239 -290 35 -29 70 -63 76 -75 7
-13 103 -98 213 -190 110 -92 200 -171 200 -175 0 -4 -6 -13 -14 -19 -31 -26
-58 -105 -58 -168 -1 -136 86 -157 107 -26 7 45 38 99 67 117 19 11 61 -18
277 -197 103 -85 139 -123 221 -232 54 -71 150 -197 214 -280 114 -146 285
-392 340 -487 23 -40 25 -48 11 -48 -21 0 -122 69 -160 110 -34 36 -178 151
-212 169 -12 6 -55 14 -95 16 -84 6 -118 -6 -132 -47 -14 -41 34 -128 169
-306 108 -143 115 -155 98 -168 -10 -7 -21 -14 -24 -14 -3 0 -42 32 -86 70
-133 115 -332 260 -477 345 -74 44 -166 102 -203 128 -80 57 -210 122 -273
138 -86 22 -214 -39 -246 -117 -8 -19 -14 -58 -14 -89 l0 -56 -172 117 c-297
201 -417 244 -418 148 0 -28 97 -119 245 -229 167 -124 489 -424 745 -693 150
-159 181 -198 114 -145 -62 49 -286 193 -449 288 -199 117 -560 293 -715 349
-69 24 -174 65 -235 90 -244 100 -427 136 -732 143 -217 6 -264 0 -277 -33
-18 -47 34 -68 234 -94 566 -72 830 -193 1464 -670 170 -128 436 -354 444
-377 10 -33 -34 -18 -139 45 -388 234 -1032 548 -1334 651 -247 83 -294 93
-481 98 -151 5 -181 3 -254 -16 -49 -12 -111 -37 -150 -60 -65 -39 -169 -138
-171 -163 -7 -71 45 -76 186 -19 125 51 187 64 310 63 211 -3 538 -121 1062
-386 187 -94 189 -95 323 -219 74 -69 164 -154 198 -190 l64 -64 -31 -22 c-27
-20 -36 -21 -65 -11 -50 16 -174 8 -221 -15 -53 -27 -66 -61 -40 -112 11 -21
21 -41 23 -45 2 -4 -22 -24 -53 -43 -55 -36 -58 -36 -129 -30 l-72 7 -44 -37
c-55 -46 -60 -52 -60 -91 0 -16 -6 -37 -12 -45 -16 -20 -209 -142 -224 -142
-6 0 -79 46 -162 102 -162 110 -236 141 -284 117 -48 -24 -37 -56 78 -227 93
-137 106 -161 94 -172 -8 -8 -64 -45 -125 -84 -93 -60 -119 -71 -168 -77 -93
-10 -127 -34 -127 -90 0 -16 -13 -32 -40 -50 -22 -14 -41 -26 -43 -26 -2 0
-48 30 -102 66 -170 113 -319 178 -490 214 -49 11 -123 30 -164 44 -260 90
-382 102 -397 40 -12 -47 32 -75 352 -220 111 -50 241 -114 290 -144 99 -58
234 -157 234 -171 0 -5 -11 -16 -25 -25 -24 -15 -26 -14 -107 49 -275 212
-706 433 -1030 527 -142 40 -201 46 -271 26 -57 -16 -77 -36 -77 -74 0 -28 19
-40 101 -63 79 -22 287 -108 410 -170 96 -48 203 -132 347 -273 104 -101 242
-255 242 -270 0 -3 -11 -13 -25 -22 -23 -15 -26 -14 -102 43 -109 82 -162 114
-283 172 -158 74 -242 96 -375 95 -60 0 -129 -6 -152 -13 -131 -37 -140 -151
-11 -151 93 0 330 -139 509 -299 38 -34 69 -68 69 -76 0 -26 -34 -25 -97 5
-117 56 -217 74 -404 74 -172 1 -214 -7 -222 -43 -5 -24 45 -109 73 -123 55
-27 220 -123 220 -128 0 -8 -97 -60 -113 -60 -8 0 -63 14 -123 31 -134 39
-185 36 -226 -10 -27 -30 -27 -31 -13 -77 22 -73 80 -134 149 -157 52 -17 56
-21 43 -35 -13 -12 -23 -13 -61 -3 -25 6 -74 11 -110 11 -86 0 -106 -18 -106
-92 0 -38 5 -57 20 -73 l21 -22 -27 -18 c-24 -16 -31 -16 -88 -2 -132 33 -633
29 -703 -5 -14 -7 -32 -23 -40 -34 -13 -20 -11 -25 10 -50 25 -28 25 -29 178
-35 138 -6 164 -9 249 -39 129 -44 128 -43 92 -69 l-30 -21 -119 34 c-258 74
-477 111 -521 87 -65 -35 -43 -91 46 -117 31 -9 66 -22 77 -29 11 -7 52 -23
90 -35 90 -29 215 -86 215 -98 0 -5 -8 -16 -18 -25 -17 -16 -22 -14 -83 17
-35 19 -100 47 -144 61 -70 24 -92 27 -181 23 -105 -4 -134 -14 -134 -48 0
-23 37 -38 120 -50 71 -10 162 -40 241 -80 58 -29 57 -29 33 -48 -12 -9 -37
-29 -56 -44 l-34 -27 -69 25 c-112 41 -175 33 -175 -21 0 -29 14 -40 85 -69
l57 -23 -49 -40 c-43 -35 -53 -39 -91 -35 -55 5 -92 -17 -92 -56 0 -16 5 -33
11 -39 7 -7 -43 -58 -173 -173 -922 -820 -1781 -1725 -2632 -2774 -525 -647
-751 -951 -1323 -1781 -72 -104 -167 -235 -211 -290 -176 -218 -364 -571 -570
-1070 -390 -942 -642 -2023 -696 -2990 -25 -442 -22 -967 9 -1365 38 -495 87
-782 235 -1385 275 -1127 685 -2127 1254 -3064 458 -753 1133 -1559 1871
-2234 190 -174 257 -227 385 -312 85 -56 194 -118 242 -139 82 -36 133 -65
403 -230 137 -84 676 -354 1015 -508 574 -262 1048 -452 1495 -600 837 -277
1670 -515 2335 -669 1372 -316 2469 -469 3770 -525 579 -25 1572 -15 2045 20
1825 136 3893 524 5867 1101 2398 702 4393 1705 5828 2931 135 116 365 299
512 407 280 208 348 264 629 523 475 438 757 656 1149 886 348 204 658 346
1060 483 69 24 244 84 390 134 404 138 717 213 1242 298 237 38 238 38 238 63
0 51 -9 54 -187 70 -204 18 -609 11 -808 -15 -681 -87 -1233 -247 -1800 -519
-576 -277 -1020 -594 -1553 -1107 -290 -280 -306 -293 -592 -496 -828 -586
-1350 -927 -1950 -1270 -864 -494 -1500 -791 -2540 -1186 -187 -71 -729 -255
-930 -316 -113 -34 -279 -85 -370 -112 -820 -251 -2342 -598 -3320 -759 -822
-135 -1701 -249 -2230 -290 -80 -6 -228 -17 -330 -25 -684 -53 -1715 -54
-2510 -1 -990 66 -1855 190 -2835 407 -208 46 -321 80 -510 152 -213 82 -482
170 -880 287 -866 256 -1436 441 -1586 516 -105 52 -676 362 -1023 557 -99 55
-252 136 -340 179 -140 69 -186 98 -347 221 -185 141 -457 365 -638 526 -103
91 -638 622 -742 736 -114 125 -272 320 -417 515 -106 142 -279 416 -407 645
-69 123 -405 786 -405 798 0 4 -11 30 -24 59 -34 76 -111 269 -147 374 -248
709 -325 991 -399 1463 -60 379 -80 651 -80 1086 -1 1001 109 1921 314 2635
52 182 146 457 185 545 54 119 383 652 580 940 113 166 106 158 610 678 570
588 1036 1024 1567 1468 175 146 256 207 390 288 194 119 446 289 924 621 542
376 1217 813 2285 1478 226 141 467 291 536 334 145 90 223 126 674 308 182
73 539 219 795 325 707 293 930 384 1935 790 160 64 377 153 484 197 107 44
218 88 245 98 28 10 214 75 414 144 360 124 364 126 605 256 241 129 246 131
618 261 937 326 1584 581 2179 858 198 93 537 266 652 334 42 25 139 69 215
97 174 65 279 115 573 272 129 69 294 155 366 191 l131 66 75 -137 c42 -75
102 -186 134 -247 31 -60 93 -169 136 -241 69 -116 78 -137 78 -180 l0 -49
-212 -120 c-246 -139 -318 -188 -426 -287 -43 -40 -148 -129 -232 -198 -379
-308 -563 -522 -867 -1008 -75 -119 -174 -278 -221 -352 -47 -74 -102 -164
-123 -200 -72 -128 -178 -366 -199 -449 -20 -78 -39 -127 -134 -348 -19 -45
-44 -114 -56 -154 -12 -40 -40 -100 -62 -132 -77 -113 -90 -254 -38 -422 17
-54 37 -152 45 -219 37 -301 92 -505 197 -726 65 -138 87 -235 91 -391 l2
-124 -42 -63 c-44 -67 -102 -206 -148 -355 -40 -128 -34 -217 23 -347 23 -52
42 -102 42 -111 0 -8 -31 -77 -70 -152 -56 -109 -70 -146 -70 -181 0 -93 60
-102 165 -24 79 58 408 385 472 468 61 81 120 196 137 270 24 100 31 286 16
386 -15 97 -4 201 36 342 42 146 59 162 119 122 94 -64 251 -152 320 -180 107
-44 128 -61 243 -198 144 -172 137 -160 176 -332 19 -85 45 -184 59 -220 37
-100 149 -340 157 -340 4 0 15 -19 24 -41 16 -39 21 -82 46 -389 6 -74 16
-155 21 -180 22 -98 166 -327 264 -418 34 -32 68 -74 75 -93 8 -21 15 -101 18
-217 4 -159 2 -193 -16 -265 -12 -49 -22 -133 -26 -210 l-5 -129 37 -15 c24
-10 41 -12 52 -6 19 12 114 154 181 271 131 229 189 507 189 902 0 267 -8 301
-109 505 -75 152 -164 373 -163 405 0 8 -8 36 -19 62 -25 61 -49 177 -49 237
0 59 10 111 21 111 4 0 41 -31 82 -68 83 -78 144 -110 279 -148 51 -14 131
-40 178 -56 70 -25 186 -56 305 -83 11 -3 72 -34 135 -70 172 -98 278 -124
422 -105 107 14 198 56 229 107 21 34 23 35 37 17 29 -38 81 -161 101 -241 12
-45 30 -144 41 -220 30 -204 60 -273 117 -273 28 0 35 15 69 155 78 324 69
646 -27 907 -16 46 -40 110 -51 143 -38 106 -181 218 -297 232 l-49 6 23 46
c13 25 26 61 30 78 4 18 8 33 10 33 2 0 48 -11 104 -24 104 -24 135 -39 224
-105 66 -48 90 -106 113 -266 17 -122 44 -191 81 -208 23 -10 28 -8 53 20 15
17 38 57 50 89 19 51 22 78 21 201 0 155 -8 198 -51 283 -54 107 -138 184
-323 295 l-99 60 -27 86 c-45 141 -163 342 -245 416 -57 52 -171 121 -269 162
-57 24 -73 26 -207 26 l-145 0 -79 -37 c-76 -37 -81 -38 -195 -38 -73 0 -139
6 -176 15 -138 36 -266 139 -305 243 -12 31 -39 89 -60 129 -21 39 -51 109
-66 156 -26 82 -27 86 -11 111 10 14 24 26 32 26 26 0 276 133 385 204 123 80
222 155 380 286 63 52 151 121 195 154 102 75 589 561 687 686 41 52 95 129
121 170 43 70 133 176 348 411 47 52 111 126 141 166 31 39 83 94 116 122 121
101 254 266 334 417 87 161 104 212 153 455 22 105 25 147 24 308 -1 342 -32
694 -85 966 -17 89 -69 266 -90 306 l-13 26 47 -9 c392 -76 627 -102 1055
-120 294 -12 771 -2 1077 23 73 5 432 9 865 7 518 -1 781 2 875 10 204 18 446
50 635 83 252 43 352 56 538 68 249 17 474 44 987 122 450 68 701 118 1149
229 181 45 612 126 846 160 248 35 507 79 741 125 122 24 277 54 345 65 211
36 317 59 519 111 211 54 276 74 508 154 41 14 76 25 78 25 2 0 30 -40 63 -88
208 -310 479 -543 826 -712 229 -112 419 -175 692 -231 395 -80 668 -101 1328
-101 532 -1 721 8 1084 52 188 22 210 19 364 -54 76 -36 115 -64 202 -143 262
-236 291 -266 410 -419 63 -80 210 -201 296 -242 24 -11 87 -40 139 -65 102
-47 221 -139 340 -261 36 -37 81 -76 100 -86 19 -10 65 -34 101 -54 98 -53
174 -70 294 -63 57 2 136 14 184 27 l84 23 20 -24 c29 -35 84 -156 101 -221
21 -82 30 -269 17 -360 -6 -42 -24 -119 -41 -171 -35 -111 -38 -159 -10 -187
11 -11 26 -20 34 -20 26 0 82 46 113 95 18 28 49 70 69 95 55 67 98 138 124
205 32 82 40 336 16 468 -23 119 -77 273 -140 392 -41 77 -54 114 -59 163 -4
34 -14 76 -22 92 l-15 29 78 -35 c102 -47 309 -118 449 -154 106 -28 126 -30
338 -32 124 -2 225 -4 225 -5 0 -1 -25 -60 -55 -132 -30 -72 -55 -142 -55
-156 0 -15 9 -31 25 -41 23 -15 27 -15 58 3 85 45 126 86 166 162 21 42 49
105 61 141 32 90 37 93 141 86 48 -3 93 -8 100 -11 24 -9 98 -127 132 -210 30
-75 32 -87 31 -200 -1 -142 -20 -218 -109 -422 -60 -136 -83 -227 -64 -250 7
-7 29 -13 49 -13 32 0 48 8 96 52 118 108 282 379 320 527 24 96 15 394 -15
506 -43 160 -103 258 -301 493 -91 107 -102 115 -206 141 l-67 17 -19 68 c-29
105 -149 338 -205 398 -12 13 -26 35 -32 49 -5 16 -29 38 -58 53 -84 48 -156
58 -390 58 l-212 -1 -25 54 c-48 106 -144 184 -271 221 -53 15 -84 16 -260 8
-110 -4 -251 -8 -312 -8 l-113 1 -82 49 c-45 27 -122 88 -173 136 -85 81 -95
95 -125 170 -84 215 -228 389 -435 528 -123 82 -406 250 -540 321 -146 76
-350 161 -515 213 -61 19 -150 58 -199 85 -135 76 -327 159 -558 241 -51 18
-93 36 -93 40 0 4 17 19 38 32 20 14 64 51 97 82 33 31 108 86 167 123 146 91
274 200 527 451 147 145 232 221 266 239 123 63 269 167 373 267 65 63 94 107
106 162 6 27 13 33 44 39 55 10 140 51 189 91 23 19 47 32 53 29 6 -4 19 -24
30 -45 31 -61 77 -107 124 -125 50 -19 44 -8 135 -244 63 -159 88 -203 145
-246 45 -34 340 -139 704 -251 l153 -47 192 6 c219 6 314 23 502 87 264 91
536 250 790 461 55 46 190 173 300 284 110 110 253 245 317 298 75 63 138 126
175 175 31 42 96 118 144 168 130 137 199 263 224 410 13 72 33 125 111 293
53 114 107 223 120 244 14 21 32 69 39 105 14 66 21 79 133 237 32 45 44 73
48 111 10 77 11 78 86 65 97 -17 125 -15 139 10 12 23 0 89 -27 141 -12 23
-12 28 -1 28 30 0 203 -71 243 -100 53 -38 81 -39 90 -4 10 41 -1 92 -46 209
-44 112 -54 165 -34 172 7 2 14 -18 18 -54 7 -59 36 -123 57 -123 19 0 67 59
83 103 8 23 20 75 27 115 6 40 13 71 16 68 3 -2 9 -39 14 -82 6 -43 15 -84 21
-91 20 -25 74 -16 101 17 53 63 69 130 76 317 4 108 10 176 17 183 15 15 31
-80 42 -245 6 -111 9 -120 28 -123 28 -4 72 67 117 188 58 158 87 329 87 523
0 53 4 97 8 97 5 0 17 -6 28 -14 17 -13 19 -27 19 -143 0 -127 0 -128 23 -131
34 -5 61 25 157 168 97 147 127 203 171 325 40 112 49 98 41 -60 -7 -119 -2
-135 39 -135 65 0 170 226 189 408 l7 63 25 -53 c32 -69 79 -118 114 -118 51
0 54 17 29 161 -29 174 -33 395 -6 368 8 -8 45 -162 60 -248 27 -152 81 -162
149 -26 59 120 70 222 37 360 -10 44 -17 81 -16 82 5 5 64 -83 88 -132 14 -27
28 -65 32 -84 12 -66 45 -79 88 -33 57 60 63 182 18 356 -16 63 -43 145 -60
182 -32 72 -35 84 -21 84 13 0 114 -154 135 -203 13 -33 19 -38 43 -35 20 2
33 14 51 48 22 41 23 54 19 140 -8 171 -72 320 -161 376 -85 54 -43 75 55 27
39 -19 91 -63 186 -160 131 -133 157 -149 183 -118 18 22 5 118 -26 184 -43
94 -135 223 -217 303 -57 56 -75 80 -64 84 21 7 277 -21 418 -48 119 -21 145
-20 155 7 12 31 -7 63 -73 119 -81 68 -161 109 -263 135 l-75 19 38 7 c21 4
93 10 160 14 113 6 122 7 125 27 4 31 -86 110 -171 148 -40 18 -101 41 -137
51 -78 22 -84 27 -75 55 7 22 9 22 114 15 92 -5 109 -4 121 10 19 23 2 54 -70
122 -33 32 -60 61 -60 65 0 4 8 9 18 12 28 10 188 168 207 205 44 87 69 321
41 386 -11 26 -9 35 16 85 31 61 33 78 26 292 -4 134 -5 139 -41 212 -48 95
-95 158 -204 270 -117 119 -223 202 -308 242 -86 41 -259 85 -470 119 -88 15
-236 47 -330 72 -93 24 -225 53 -293 64 -68 10 -192 35 -275 54 -84 20 -181
38 -217 41 -36 3 -110 11 -165 19 -55 7 -145 19 -200 25 -157 18 -268 39 -430
82 -310 81 -430 100 -740 117 -155 9 -155 9 -335 111 -141 81 -302 141 -510
191 -47 12 -112 30 -144 40 -33 10 -79 19 -103 19 -83 0 -350 -32 -508 -61
-88 -16 -175 -29 -192 -29 -18 0 -57 -12 -86 -26 l-54 -27 -33 24 c-18 13 -36
34 -41 47 -5 12 -20 28 -35 34 -24 11 -29 10 -51 -17 l-25 -29 -19 25 c-10 13
-19 27 -19 31 0 13 -68 37 -87 32 -11 -3 -27 3 -37 15 -25 28 -50 26 -70 -4
l-17 -25 -35 35 c-35 35 -73 45 -103 26 -14 -9 -12 -53 4 -93 16 -40 -15 -14
-49 42 -41 66 -63 83 -103 78 -44 -5 -51 -31 -20 -75 15 -22 27 -43 27 -47 0
-21 -54 10 -103 58 -57 57 -113 80 -146 59 -22 -14 -26 -41 -8 -61 8 -9 17
-28 19 -42 2 -19 -2 -26 -18 -28 -15 -2 -32 11 -61 50 -49 65 -103 98 -127 79
-20 -17 -20 -63 0 -103 13 -25 14 -32 2 -39 -23 -15 -47 -10 -63 15 -23 35
-130 116 -154 116 -30 0 -51 -47 -45 -101 l5 -44 -75 79 c-61 63 -86 99 -130
190 -30 61 -94 174 -142 251 -197 314 -321 459 -518 606 -66 50 -145 109 -175
132 -30 23 -77 56 -105 73 -60 36 -57 30 -207 389 -59 143 -122 312 -139 375
-128 471 -185 653 -248 795 -31 71 -44 91 -62 93 l-23 4 6 -104 c10 -163 94
-598 182 -948 48 -190 96 -412 91 -417 -6 -7 -76 39 -216 142 -164 121 -207
147 -233 143 -34 -5 -32 -35 8 -96 74 -110 220 -240 398 -352 l92 -58 51 -208
c28 -115 68 -283 89 -374 93 -408 152 -616 215 -760 29 -65 80 -247 80 -284 0
-7 -17 -21 -39 -30 -21 -10 -58 -31 -82 -47 -48 -31 -69 -36 -69 -16 0 22 -84
185 -155 302 -83 137 -249 376 -419 605 -192 259 -291 399 -403 565 -122 184
-365 565 -421 660 -51 89 -122 189 -275 385 -335 430 -468 567 -784 808 -219
167 -359 257 -381 243z m3176 -2250 c123 -154 285 -395 400 -597 48 -85 192
-374 192 -387 0 -3 -31 -11 -70 -18 -84 -15 -86 -13 -159 100 -87 136 -146
246 -238 443 -78 166 -264 583 -280 628 -7 18 84 -80 155 -169z m-5419 -1072
c58 -23 89 -42 106 -63 22 -31 58 -97 195 -361 l72 -140 -79 85 c-201 215
-455 495 -463 510 -8 15 -4 16 39 9 26 -4 85 -22 130 -40z m651 -406 c110 -78
171 -138 282 -278 44 -55 96 -120 115 -144 43 -53 287 -262 438 -376 61 -46
218 -153 350 -237 412 -265 465 -300 465 -308 0 -5 -24 -17 -52 -28 -53 -20
-53 -20 -93 1 -155 78 -868 607 -1175 871 -230 198 -324 299 -441 474 -60 90
-109 168 -109 173 0 6 28 -10 63 -35 34 -25 105 -76 157 -113z m-242 -408
c261 -323 388 -503 530 -750 94 -166 289 -552 281 -559 -3 -3 -20 -9 -37 -12
-29 -6 -32 -4 -49 37 -32 82 -100 214 -168 329 -92 155 -394 625 -575 895 -81
121 -157 240 -169 265 l-22 45 36 -40 c20 -22 98 -116 173 -210z m-2079 -420
c129 -171 136 -182 242 -407 108 -229 201 -449 258 -611 41 -119 49 -157 32
-157 -5 0 -16 -2 -24 -5 -10 -4 -24 20 -52 87 -139 337 -450 974 -605 1240
l-60 103 56 -60 c30 -33 99 -118 153 -190z m3146 -532 c61 -50 136 -118 168
-151 l59 -59 -48 -17 c-26 -9 -49 -16 -50 -16 -1 0 -19 24 -40 53 -21 28 -79
104 -128 167 -120 156 -115 148 -91 130 11 -8 70 -56 130 -107z m-8389 -468
c279 -276 577 -734 733 -1125 l30 -75 -21 -8 c-12 -4 -27 -6 -34 -5 -7 2 -147
207 -311 455 -164 249 -365 555 -448 680 -82 125 -159 241 -170 257 l-20 31
50 -35 c27 -19 113 -98 191 -175z m-837 -229 c133 -148 198 -233 330 -431 131
-196 168 -261 227 -401 41 -99 134 -358 134 -373 0 -3 -29 53 -64 126 -95 197
-180 336 -317 524 -27 36 -78 119 -115 185 -90 160 -193 321 -271 422 -87 114
-49 88 76 -52z m-2664 -36 c85 -33 231 -108 329 -169 l60 -36 -90 -12 c-49 -6
-98 -12 -109 -12 -16 -1 -324 237 -390 300 -10 10 49 -11 200 -71z m617 -396
c28 -5 60 -26 121 -80 173 -152 411 -533 575 -919 74 -175 194 -486 189 -491
-2 -2 -29 33 -59 78 -78 117 -182 248 -280 353 -63 69 -98 118 -142 200 -175
328 -290 489 -506 708 l-155 157 110 0 c61 0 127 -3 147 -6z m-475 -146 c320
-328 374 -408 673 -988 100 -195 211 -410 247 -478 91 -173 69 -177 -37 -8
-162 261 -341 486 -619 776 -92 96 -207 227 -256 290 -111 145 -221 276 -304
363 -35 37 -62 69 -60 72 10 9 215 75 235 75 14 0 56 -36 121 -102z m1053 -8
c23 -12 277 -393 397 -595 114 -191 213 -372 268 -490 36 -78 41 -95 28 -100
-9 -3 -17 -4 -18 -3 -1 2 -60 120 -132 263 -236 471 -385 716 -561 918 -17 19
-10 22 18 7z m-1460 -286 c263 -327 749 -1061 828 -1250 114 -273 133 -365 48
-234 -108 169 -248 340 -455 560 -338 357 -466 475 -783 718 -99 75 -187 143
-196 150 -15 12 -14 16 18 43 56 48 178 130 270 182 l85 48 44 -48 c24 -26 88
-103 141 -169z m-565 -309 c188 -162 477 -450 590 -588 100 -123 190 -249 252
-352 46 -77 186 -355 224 -443 l19 -43 -45 -21 c-25 -12 -46 -20 -48 -17 -2 2
-38 69 -81 148 -43 79 -125 223 -183 320 -252 419 -404 612 -828 1050 -140
146 -119 134 100 -54z m3040 -140 c77 -95 175 -233 175 -247 0 -4 -6 -8 -13
-8 -25 0 -311 353 -366 452 -22 41 -20 40 54 -32 42 -41 109 -115 150 -165z
m-4755 -1154 c140 -99 240 -178 268 -210 124 -138 368 -462 487 -645 117 -181
123 -186 -150 124 -208 237 -550 613 -680 749 -96 100 -89 99 75 -18z m-990
-2048 c0 -8 -9 0 -50 45 l-45 47 48 -45 c26 -24 47 -45 47 -47z m-3408 -207
c186 -40 537 -169 799 -294 202 -96 520 -313 740 -504 37 -32 51 -50 44 -57
-7 -7 -55 18 -151 78 -77 49 -225 135 -329 191 -105 57 -275 154 -380 216
-294 175 -490 262 -714 318 -132 33 -224 46 -332 46 -51 0 -90 2 -87 5 27 28
283 28 410 1z m-277 -187 c196 -24 405 -94 571 -192 69 -41 475 -363 529 -419
l20 -21 -25 15 c-262 157 -474 247 -930 392 -185 58 -491 146 -675 193 l-110
28 70 6 c127 10 458 9 550 -2z m-999 -375 c173 -57 501 -182 600 -229 95 -44
414 -249 557 -357 126 -95 250 -205 380 -336 l119 -119 -37 -22 c-20 -11 -41
-21 -46 -21 -6 0 -65 48 -132 106 -317 277 -731 554 -1257 844 -266 146 -306
170 -299 170 3 0 55 -16 115 -36z m-1896 -1588 c122 -28 253 -74 318 -112 139
-82 459 -426 667 -718 60 -85 75 -113 68 -125 -6 -9 -17 -17 -26 -19 -15 -3
-171 112 -417 307 -52 41 -171 150 -265 241 -166 161 -265 249 -433 383 -83
66 -83 67 -50 67 18 0 80 -11 138 -24z m-810 -1044 c165 -93 421 -333 663
-621 43 -51 44 -57 17 -66 -20 -6 -79 34 -480 330 -91 67 -194 141 -230 165
-36 24 -68 48 -72 54 -9 13 -10 138 -2 160 8 20 43 13 104 -22z m27642 -2289
c102 -70 210 -143 240 -161 43 -26 48 -31 23 -26 -50 11 -184 81 -264 140 -80
57 -240 202 -206 185 11 -5 104 -67 207 -138z m1959 19 c-20 -2 -55 -1 -79 3
l-42 6 57 43 58 43 21 -46 21 -46 -36 -3z m-19446 -5387 c28 -12 59 -33 71
-46 26 -30 74 -101 74 -111 0 -4 -17 -10 -37 -13 -21 -3 -67 -12 -103 -20 -36
-8 -103 -16 -150 -20 l-85 -6 53 47 c65 57 82 89 82 154 0 58 -2 58 95 15z"/>
</g>
</svg>
