<?xml version="1.0" standalone="no"?>
<!DOCTYPE svg PUBLIC "-//W3C//DTD SVG 20010904//EN"
 "http://www.w3.org/TR/2001/REC-SVG-20010904/DTD/svg10.dtd">
<svg version="1.0" xmlns="http://www.w3.org/2000/svg"
 width="71.000000pt" height="1536.000000pt" viewBox="0 0 71.000000 1536.000000"
 preserveAspectRatio="xMidYMid meet">
<metadata>
Created by potrace 1.16, written by Peter Selinger 2001-2019
</metadata>
<g transform="translate(0.000000,1536.000000) scale(0.100000,-0.100000)"
fill="#000000" stroke="none">
<path d="M268 15331 c-32 -29 -33 -32 -32 -108 1 -66 7 -93 38 -173 48 -121
49 -169 7 -267 -38 -87 -38 -107 -5 -205 l26 -76 -33 -114 c-48 -164 -47 -245
3 -354 57 -122 55 -132 -53 -306 -82 -132 -94 -176 -94 -338 1 -154 14 -202
100 -365 75 -143 82 -165 139 -411 52 -223 74 -290 118 -359 81 -128 99 -214
100 -490 1 -187 -11 -294 -53 -460 -40 -160 -56 -196 -125 -280 -36 -44 -78
-107 -94 -140 -55 -114 -58 -241 -8 -352 26 -60 36 -207 19 -294 -7 -34 -28
-111 -47 -172 -86 -280 -92 -411 -38 -825 59 -457 52 -610 -42 -886 -57 -167
-62 -222 -34 -351 41 -192 44 -225 26 -296 -9 -35 -32 -89 -52 -119 -93 -146
-121 -241 -131 -445 -11 -247 28 -523 101 -700 46 -114 91 -192 211 -370 197
-290 196 -288 195 -555 l0 -205 -100 -150 c-117 -178 -158 -256 -173 -336 -15
-85 3 -186 54 -300 41 -91 41 -94 37 -184 -4 -79 -14 -116 -67 -271 l-61 -181
0 -638 0 -638 -39 -121 c-49 -149 -67 -266 -52 -323 6 -23 36 -71 70 -112 67
-82 81 -121 81 -217 0 -59 -7 -83 -45 -173 -27 -61 -45 -118 -45 -140 0 -20
12 -94 25 -166 57 -300 67 -376 62 -490 -5 -131 -26 -201 -98 -326 -66 -116
-65 -133 14 -232 19 -24 32 -58 42 -108 31 -159 37 -177 55 -194 19 -17 63
-18 58 0 -2 5 -8 9 -15 7 -22 -5 -42 43 -58 141 -18 115 -24 130 -70 202 -19
31 -35 63 -35 72 0 9 20 51 45 94 55 93 81 163 96 261 14 93 7 188 -37 453
-45 274 -46 303 -6 381 54 104 76 240 52 326 -6 20 -39 71 -75 112 -43 51 -66
88 -71 113 -9 47 7 131 55 290 l38 128 6 612 7 611 60 156 c72 186 90 256 90
356 0 80 -10 124 -60 265 -54 151 -40 205 115 430 137 199 169 282 187 487 20
211 5 254 -175 535 -192 300 -243 401 -286 568 -41 162 -55 274 -54 445 0 204
15 267 108 454 106 215 114 284 56 461 -44 133 -48 180 -22 263 11 38 34 85
50 105 33 42 53 113 77 277 19 132 17 161 -27 516 -37 301 -48 479 -38 614 8
114 21 174 77 350 33 103 37 126 36 220 0 97 -3 113 -38 205 -30 78 -39 115
-39 170 -2 97 20 153 104 265 80 106 115 174 153 300 52 176 69 284 70 455 1
221 -25 329 -141 579 -86 185 -108 251 -148 431 -38 170 -68 262 -114 353 -17
34 -46 104 -63 155 -27 79 -32 106 -33 193 l0 100 88 175 c108 216 110 231 42
370 -57 118 -58 152 -8 274 47 113 51 190 14 277 l-24 57 29 83 c25 73 29 102
35 248 4 91 11 195 14 232 7 63 6 68 -18 92 -34 34 -69 33 -109 -3z"/>
</g>
</svg>
