<?xml version="1.0" standalone="no"?>
<!DOCTYPE svg PUBLIC "-//W3C//DTD SVG 20010904//EN"
 "http://www.w3.org/TR/2001/REC-SVG-20010904/DTD/svg10.dtd">
<svg version="1.0" xmlns="http://www.w3.org/2000/svg"
 width="1249.000000pt" height="1114.000000pt" viewBox="0 0 1249.000000 1114.000000"
 preserveAspectRatio="xMidYMid meet">
<metadata>
Created by potrace 1.16, written by Peter Selinger 2001-2019
</metadata>
<g transform="translate(0.000000,1114.000000) scale(0.100000,-0.100000)"
fill="#000000" stroke="none">
<path d="M1062 11114 c-103 -27 -161 -74 -184 -150 -35 -110 -42 -172 -43
-334 0 -145 4 -179 28 -281 15 -64 27 -131 27 -150 0 -18 6 -58 14 -88 8 -31
19 -81 25 -111 6 -30 22 -91 36 -135 43 -142 85 -323 85 -365 0 -23 7 -69 14
-103 17 -71 44 -270 52 -371 2 -38 16 -116 30 -175 17 -70 29 -155 35 -251 4
-80 15 -210 24 -290 9 -80 20 -244 24 -365 7 -203 11 -231 44 -365 40 -164 63
-280 77 -390 19 -150 39 -247 58 -281 11 -19 25 -52 32 -74 7 -22 23 -54 36
-72 13 -17 24 -36 24 -41 0 -6 16 -33 35 -62 19 -29 35 -55 35 -59 1 -15 69
-95 168 -195 85 -86 121 -115 172 -139 105 -48 267 -82 465 -96 77 -6 221 -17
320 -26 99 -8 209 -16 245 -17 52 -2 65 -6 68 -20 4 -19 -50 -51 -104 -62 -18
-4 -54 -21 -80 -38 -27 -17 -71 -37 -99 -45 -27 -8 -75 -30 -106 -48 -30 -17
-86 -42 -125 -55 -264 -87 -524 -299 -524 -428 0 -71 -40 -273 -67 -337 -21
-50 -107 -227 -171 -350 -8 -16 -22 -43 -30 -59 -25 -48 -27 -109 -6 -131 19
-18 54 -79 95 -163 34 -71 69 -246 69 -347 0 -73 -5 -106 -29 -176 -16 -47
-41 -103 -56 -125 -33 -49 -30 -99 12 -150 15 -20 40 -53 54 -74 14 -22 42
-57 61 -78 109 -121 151 -367 85 -499 -41 -83 -80 -147 -109 -181 -36 -42 -88
-145 -88 -173 0 -12 24 -70 53 -128 52 -106 52 -106 51 -201 0 -81 -4 -103
-27 -153 -48 -103 -129 -209 -277 -362 -80 -82 -157 -166 -170 -185 -13 -19
-45 -57 -71 -85 -85 -90 -222 -250 -334 -390 -276 -346 -607 -674 -778 -770
-58 -33 -207 -165 -218 -192 -19 -51 32 -113 95 -113 34 0 128 36 161 62 14
11 41 28 59 37 18 9 67 54 108 101 90 101 166 168 268 237 94 63 232 183 330
286 90 95 226 211 295 253 28 16 87 60 131 96 43 36 94 73 113 83 19 9 59 37
90 61 31 24 60 44 65 44 5 0 52 21 105 46 91 44 101 47 199 52 85 4 110 1 145
-14 49 -21 87 -52 87 -71 0 -20 42 -42 92 -49 69 -10 146 17 206 71 61 55 106
75 169 75 57 0 140 -28 182 -62 32 -25 61 -75 61 -105 0 -27 34 -77 72 -106
78 -58 164 -60 254 -6 95 58 117 84 162 200 40 104 41 109 47 265 8 208 20
279 60 361 64 133 245 321 389 403 114 65 212 182 334 400 48 85 109 187 137
225 48 68 153 205 165 215 10 9 214 304 256 370 40 64 78 129 166 285 68 119
201 383 222 439 17 44 42 91 109 206 11 19 43 76 70 125 49 89 144 224 262
372 33 41 70 92 83 114 25 42 59 59 73 38 5 -8 9 -32 9 -54 0 -22 7 -85 15
-140 8 -55 15 -124 15 -152 0 -49 -26 -229 -36 -245 -3 -4 -7 -112 -10 -240
-6 -254 -10 -223 60 -468 64 -219 100 -328 123 -369 24 -41 107 -237 140 -329
34 -95 142 -95 176 0 33 92 116 288 140 329 23 41 59 150 123 369 70 245 66
214 60 468 -3 128 -7 236 -10 240 -10 16 -36 196 -36 245 0 28 7 97 15 152 8
55 15 118 15 140 0 22 4 46 9 54 14 21 48 4 73 -38 13 -22 50 -73 83 -114 118
-148 213 -283 262 -372 27 -49 59 -106 70 -125 67 -115 92 -162 109 -206 21
-56 154 -320 222 -439 88 -156 126 -221 166 -285 42 -66 246 -361 256 -370 12
-10 117 -147 165 -215 28 -38 89 -140 137 -225 122 -218 220 -335 334 -400
144 -82 325 -270 389 -403 40 -82 52 -153 60 -361 6 -156 7 -161 47 -265 45
-116 67 -142 162 -200 90 -54 176 -52 254 6 38 29 72 79 72 106 0 110 202 204
326 152 20 -8 58 -35 86 -60 60 -54 137 -81 206 -71 50 7 92 29 92 49 0 19 38
50 87 71 35 15 60 18 145 14 98 -5 108 -8 199 -52 53 -25 100 -46 105 -46 5 0
34 -20 65 -44 31 -24 71 -52 90 -61 19 -10 70 -47 113 -83 44 -36 103 -80 131
-96 69 -42 205 -158 295 -253 98 -103 236 -223 330 -286 102 -69 178 -136 268
-237 41 -47 90 -92 108 -101 18 -9 45 -26 59 -37 33 -26 127 -62 161 -62 63 0
114 62 95 113 -11 27 -160 159 -218 192 -171 96 -502 424 -778 770 -112 140
-249 300 -334 390 -26 28 -58 66 -71 85 -13 19 -90 103 -170 185 -148 153
-229 259 -277 362 -23 50 -27 72 -27 153 -1 95 -1 95 52 201 28 58 52 116 52
128 0 28 -52 131 -88 173 -29 34 -68 98 -109 181 -66 132 -24 378 85 499 19
21 47 56 61 78 14 21 39 54 54 74 42 51 45 101 12 150 -15 22 -40 78 -56 125
-24 70 -29 103 -29 176 0 101 35 276 69 347 41 84 76 145 95 163 21 22 19 83
-6 131 -195 378 -221 438 -247 586 -12 64 -21 136 -21 160 0 129 -260 341
-524 428 -39 13 -95 38 -125 55 -31 18 -79 40 -106 48 -28 8 -72 28 -99 45
-26 17 -62 34 -80 38 -54 11 -108 43 -104 62 3 14 16 18 68 20 36 1 146 9 245
17 99 9 243 20 320 26 198 14 360 48 465 96 51 24 87 53 172 139 99 100 167
180 168 195 0 4 16 30 35 59 19 29 35 56 35 62 0 5 11 24 24 41 13 18 29 50
36 72 7 22 21 55 32 74 19 34 39 131 58 281 14 110 37 226 77 390 33 134 37
162 44 365 4 121 15 285 24 365 9 80 20 210 24 290 6 96 18 181 35 251 14 59
28 137 30 175 8 101 35 300 52 371 7 34 14 80 14 103 0 42 42 223 85 365 14
44 30 105 36 135 6 30 17 80 25 111 8 30 14 70 14 88 0 19 12 86 27 150 24
102 28 136 28 281 -1 226 -30 358 -94 417 -70 65 -121 76 -348 81 -187 3 -213
2 -335 -22 -224 -44 -339 -86 -593 -216 -172 -88 -258 -141 -440 -269 -71 -51
-163 -116 -204 -144 -106 -75 -307 -244 -446 -376 -161 -154 -497 -495 -543
-551 -20 -25 -61 -72 -92 -105 -31 -33 -83 -94 -115 -135 -33 -41 -109 -129
-169 -195 -59 -66 -120 -136 -135 -155 -14 -19 -60 -76 -102 -127 -41 -50
-124 -162 -183 -250 -118 -173 -262 -374 -342 -474 -29 -35 -117 -163 -198
-284 -80 -121 -154 -231 -163 -245 -86 -121 -207 -342 -302 -555 -18 -38 -71
-146 -119 -240 -70 -136 -91 -171 -109 -173 -29 -4 -30 22 -6 73 15 30 15 44
6 90 -19 88 -84 155 -165 169 -26 5 -45 17 -63 40 -27 36 -36 96 -18 118 6 7
16 31 22 54 20 75 98 181 312 424 36 41 81 98 99 125 19 28 47 64 63 80 15 17
53 62 83 100 30 39 77 97 105 130 114 134 158 194 204 275 66 114 88 144 168
219 81 78 97 102 132 205 28 81 25 104 -11 92 -11 -4 -61 -46 -111 -94 -92
-87 -93 -87 -117 -172 -22 -76 -77 -195 -139 -300 -28 -48 -128 -176 -209
-270 -37 -43 -90 -109 -119 -146 -79 -105 -198 -254 -243 -304 -60 -68 -197
-244 -223 -287 -29 -48 -43 -80 -43 -98 0 -25 -64 -65 -105 -65 -41 0 -105 40
-105 65 0 18 -14 50 -43 98 -26 43 -163 219 -223 287 -45 50 -164 199 -243
304 -29 37 -82 103 -119 146 -81 94 -181 222 -209 270 -62 105 -117 224 -139
300 -24 85 -25 85 -117 172 -50 48 -100 90 -111 94 -36 12 -39 -11 -11 -92 35
-103 51 -127 132 -205 80 -75 102 -105 168 -219 46 -81 90 -141 204 -275 28
-33 75 -91 105 -130 30 -38 68 -83 83 -100 16 -16 44 -52 63 -80 18 -27 63
-84 99 -125 214 -243 292 -349 312 -424 6 -23 16 -47 22 -54 18 -22 9 -82 -18
-118 -18 -23 -37 -35 -63 -40 -81 -14 -146 -81 -165 -169 -9 -46 -9 -60 6 -90
24 -51 23 -77 -5 -73 -19 2 -40 37 -110 173 -48 94 -101 202 -119 240 -95 213
-216 434 -302 555 -9 14 -83 124 -163 245 -81 121 -169 249 -198 284 -80 100
-224 301 -342 474 -59 88 -142 200 -183 250 -42 51 -88 108 -102 127 -15 19
-76 89 -135 155 -60 66 -136 154 -169 195 -32 41 -84 102 -115 135 -31 33 -72
80 -92 105 -46 56 -382 397 -543 551 -139 132 -340 301 -446 376 -41 28 -132
93 -204 144 -182 128 -268 181 -440 269 -252 129 -368 171 -588 215 -109 22
-152 25 -314 24 -129 0 -205 -5 -241 -15z"/>
</g>
</svg>
