<?xml version="1.0" standalone="no"?>
<!DOCTYPE svg PUBLIC "-//W3C//DTD SVG 20010904//EN"
 "http://www.w3.org/TR/2001/REC-SVG-20010904/DTD/svg10.dtd">
<svg version="1.0" xmlns="http://www.w3.org/2000/svg"
 width="535.000000pt" height="1536.000000pt" viewBox="0 0 535.000000 1536.000000"
 preserveAspectRatio="xMidYMid meet">
<metadata>
Created by potrace 1.16, written by Peter Selinger 2001-2019
</metadata>
<g transform="translate(0.000000,1536.000000) scale(0.100000,-0.100000)"
fill="#000000" stroke="none">
<path d="M3550 15350 c-149 -13 -237 -33 -473 -106 -428 -132 -517 -181 -860
-470 -56 -48 -124 -101 -150 -119 -78 -53 -206 -284 -253 -455 -10 -36 -22
-66 -26 -68 -4 -2 -8 -31 -8 -65 0 -64 -13 -102 -28 -80 -4 6 -5 -40 -3 -102
3 -120 -12 -247 -34 -268 -9 -10 -10 -19 -3 -32 6 -10 8 -54 5 -104 -6 -101
-41 -209 -83 -252 -26 -27 -29 -28 -46 -12 -17 15 -18 15 -18 -11 0 -56 -95
-201 -124 -190 -9 3 -17 -11 -25 -43 -15 -58 -68 -160 -87 -167 -8 -3 -14 -16
-14 -28 0 -13 -10 -39 -22 -58 -12 -19 -30 -51 -39 -70 -9 -19 -43 -67 -76
-105 -167 -196 -218 -323 -307 -767 -87 -429 -183 -752 -451 -1508 -179 -503
-233 -686 -320 -1065 -14 -60 -35 -148 -49 -195 -27 -98 -56 -284 -56 -360 0
-29 11 -118 25 -199 13 -80 34 -213 45 -296 35 -245 69 -370 163 -585 154
-356 299 -584 445 -703 100 -81 171 -124 345 -207 171 -82 164 -75 191 -186
33 -128 37 -216 46 -859 12 -893 8 -873 240 -1395 45 -102 121 -273 169 -380
l86 -195 5 -265 c8 -349 -23 -261 383 -1111 362 -759 450 -981 521 -1318 l25
-114 -34 -66 c-123 -246 -73 -445 152 -607 166 -120 396 -174 688 -161 166 8
278 31 409 85 344 142 531 363 601 712 9 41 18 145 21 230 11 285 -40 597
-168 1020 -106 350 -168 491 -395 890 -257 453 -273 487 -464 963 -121 301
-176 417 -263 556 -106 168 -146 292 -210 656 -44 245 -70 352 -146 610 -112
378 -120 444 -84 695 12 90 17 188 18 350 0 245 -12 343 -59 479 -14 41 -25
76 -25 78 0 1 21 13 48 25 58 27 212 181 262 262 19 31 61 91 93 134 98 131
159 313 193 572 22 164 22 450 1 790 -9 146 -24 389 -32 540 -15 266 -36 520
-51 608 -9 59 8 54 51 -14 20 -31 39 -54 42 -51 3 3 -4 19 -16 35 -12 17 -21
32 -21 35 0 2 23 -1 51 -7 42 -10 53 -17 64 -41 7 -17 23 -39 36 -50 l23 -20
-22 32 c-55 79 8 95 86 20 17 -17 32 -26 32 -20 0 7 -4 15 -10 18 -26 16 -3
24 73 27 l82 3 -42 13 c-23 7 -92 21 -153 33 -253 45 -285 72 -323 277 -8 39
-10 69 -5 65 6 -3 30 -33 55 -67 52 -71 69 -77 65 -23 -2 20 -1 37 3 37 19 0
65 -34 89 -65 16 -20 31 -34 34 -31 3 3 -3 14 -12 25 -23 25 -8 33 37 20 44
-12 92 -51 113 -90 16 -32 34 -38 34 -13 0 13 3 14 14 5 11 -9 12 -6 8 14 -7
37 12 31 70 -22 l52 -48 -24 39 -24 39 25 -6 c64 -18 180 -38 196 -35 10 2
-34 21 -97 42 -181 61 -425 158 -551 221 l-114 57 -46 164 c-25 91 -42 167
-37 170 23 15 60 -8 78 -49 l19 -42 0 38 c1 29 5 37 20 37 24 0 37 -16 49 -60
l9 -35 8 28 c8 29 24 34 56 17 15 -9 19 -22 19 -65 0 -68 18 -82 22 -18 l3 48
33 -32 c20 -20 32 -42 33 -60 1 -27 1 -27 8 -4 4 14 12 26 18 28 12 4 20 -17
26 -72 l3 -30 12 28 c6 15 18 27 26 27 14 0 50 -43 80 -95 l17 -30 -6 28 c-4
20 -2 27 6 22 17 -11 39 -70 40 -107 l1 -33 10 28 c12 34 24 34 68 -4 45 -38
51 -21 10 31 -41 52 -226 227 -320 303 -90 72 -216 135 -289 144 -70 8 -116
39 -116 78 0 26 4 30 31 33 20 2 38 -3 50 -15 17 -17 18 -17 11 0 -16 41 99
41 146 0 16 -15 17 -14 17 5 0 44 39 36 109 -22 23 -20 46 -36 51 -36 12 0 20
28 14 45 -9 24 -23 17 -17 -7 5 -21 3 -21 -26 7 -39 36 -27 42 56 25 38 -8 66
-21 85 -40 25 -26 28 -27 28 -8 0 34 24 14 55 -47 27 -53 55 -82 55 -56 0 5 4
21 10 36 9 25 11 25 39 10 36 -18 61 -52 61 -82 0 -32 16 -29 25 5 7 26 7 26
20 -15 7 -23 24 -56 39 -73 14 -18 26 -44 26 -58 l1 -27 12 23 c10 17 15 20
25 10 10 -10 11 -5 6 22 l-6 35 26 -28 c14 -15 26 -35 26 -43 0 -8 6 -14 13
-14 6 0 32 -16 56 -35 24 -19 46 -33 49 -30 14 14 -123 159 -278 294 -179 155
-301 195 -645 212 -121 6 -222 13 -224 15 -18 16 37 28 166 35 81 5 167 14
191 20 32 9 49 9 68 0 30 -13 55 -15 34 -1 -28 17 2 24 126 28 119 4 126 3
149 -18 24 -22 24 -22 18 -1 -12 48 40 5 72 -59 23 -44 31 -24 11 24 -8 19
-11 38 -7 40 9 6 52 -38 69 -69 11 -19 11 -19 12 3 0 34 20 27 71 -28 26 -27
52 -50 59 -50 6 0 42 -25 78 -55 37 -30 70 -55 75 -55 17 0 -36 62 -119 137
-95 88 -184 146 -259 169 -72 23 -308 29 -583 15 -220 -11 -302 -9 -302 9 0 5
33 10 73 13 156 10 447 61 455 79 7 15 50 8 76 -13 l27 -21 -3 28 c-4 35 24
44 53 18 17 -16 19 -16 19 -1 0 22 5 21 43 -7 52 -38 65 -41 29 -7 -18 17 -30
35 -27 41 11 18 62 10 101 -16 21 -14 33 -20 27 -13 -7 7 -13 19 -13 26 0 21
34 15 75 -13 26 -17 36 -20 32 -10 -5 13 1 16 28 16 39 0 54 -19 56 -72 2 -32
2 -32 8 7 4 25 12 41 22 43 24 4 84 -41 87 -67 3 -21 4 -21 17 -5 12 17 14 17
39 1 14 -9 29 -31 34 -49 4 -17 13 -33 20 -36 7 -2 10 2 6 12 -9 24 5 19 43
-15 42 -37 53 -32 23 11 -61 85 -214 180 -350 217 -105 28 -336 24 -530 -10
-154 -26 -354 -48 -440 -46 -36 1 -20 6 80 29 229 51 280 65 280 77 0 7 9 13
20 13 11 0 23 7 26 15 7 17 13 18 33 6 12 -8 12 -12 2 -25 -12 -14 -10 -16 7
-16 30 0 35 16 16 45 l-16 25 58 0 c33 0 75 -5 94 -10 25 -7 41 -7 56 1 17 9
38 5 109 -19 82 -29 113 -32 100 -12 -2 4 -25 11 -50 14 -24 4 -48 12 -51 18
-7 11 107 6 169 -8 44 -10 31 12 -21 34 -40 17 -176 42 -231 42 -8 0 -12 2 -9
5 5 5 137 17 204 18 17 0 46 -10 65 -23 l34 -24 -24 27 -24 27 44 0 c25 0 55
-7 67 -16 20 -14 22 -14 22 0 0 30 41 16 92 -31 l52 -48 -33 48 c-36 52 -33
54 46 31 37 -11 71 -30 99 -56 40 -37 44 -39 44 -18 0 22 0 22 31 -4 34 -29
51 -33 43 -11 -7 19 -99 79 -159 105 -75 32 -213 43 -473 37 -198 -4 -251 -9
-322 -27 -77 -19 -351 -69 -489 -89 -30 -5 -63 -6 -73 -3 -28 7 -18 32 22 54
34 18 50 19 125 3 l30 -6 -34 19 -34 19 59 22 c32 13 71 21 85 19 19 -3 25 0
22 9 -8 20 46 35 97 28 32 -4 41 -3 30 4 -11 7 -12 13 -4 21 18 18 115 40 181
40 55 0 64 -3 84 -27 20 -26 21 -22 3 22 -8 19 26 21 45 3 11 -10 14 -10 18 0
6 17 48 15 83 -3 27 -14 30 -14 30 0 0 22 48 19 88 -5 l33 -20 -11 20 c-10 19
-8 20 38 20 36 0 59 -7 86 -25 37 -25 39 -19 7 19 -15 17 -15 18 4 13 11 -3
51 -11 89 -17 63 -12 69 -15 81 -45 8 -17 22 -38 31 -46 16 -13 16 -12 6 8
-33 61 15 76 51 16 20 -34 22 -36 25 -15 2 12 6 22 9 22 4 0 41 -21 84 -46 44
-25 84 -44 91 -42 7 3 -11 23 -40 46 -154 121 -353 167 -782 179 -187 5 -215
4 -314 -16 -59 -13 -115 -25 -122 -28 -8 -3 -14 -1 -14 5 0 6 24 20 54 33 37
15 53 26 49 36 -12 31 67 86 108 76 22 -6 23 -5 10 11 -17 21 -8 29 51 47 32
10 41 9 75 -11 l38 -22 -23 25 c-17 18 -20 27 -11 32 21 14 70 7 91 -12 20
-18 20 -17 14 5 -6 17 -3 22 9 22 28 0 55 -20 55 -40 0 -11 5 -20 10 -20 6 0
19 -9 31 -21 34 -34 34 -13 0 28 -35 42 -38 58 -15 67 29 11 50 6 84 -19 19
-14 38 -25 44 -25 5 0 -1 11 -14 25 l-23 25 35 0 c52 0 65 -7 90 -51 11 -21
27 -40 34 -43 8 -3 6 7 -6 27 -39 64 -17 88 38 42 36 -30 52 -33 27 -5 -10 11
-15 23 -12 26 13 14 60 -9 99 -48 41 -41 42 -38 6 14 -10 14 -18 29 -18 32 0
15 45 3 72 -19 40 -34 93 -62 83 -43 -5 7 -15 21 -23 30 -12 14 -12 20 -2 33
19 23 65 18 98 -10 30 -25 56 -35 34 -13 -18 18 -14 28 12 28 39 0 56 -10 56
-34 0 -21 1 -21 18 2 l18 24 98 -42 c54 -23 100 -40 102 -37 13 12 -102 75
-181 100 -177 54 -140 51 -550 43 -209 -3 -410 -11 -447 -16 -104 -15 -170
-45 -266 -121 -96 -76 -188 -125 -303 -163 -80 -26 -276 -62 -285 -53 -3 3 21
13 53 23 32 10 65 24 74 31 8 7 20 13 26 13 5 0 79 48 164 106 293 201 284
196 341 204 29 4 43 8 31 9 -46 2 -20 18 70 42 78 20 115 24 244 24 83 0 151
2 151 5 -2 33 33 41 67 16 17 -12 20 -11 30 8 16 31 60 32 106 2 49 -33 52
-33 31 3 -25 43 -7 50 51 18 l52 -28 -30 26 -30 26 82 -3 c80 -3 83 -4 124
-43 39 -37 40 -37 21 -8 -46 66 -13 73 54 11 40 -37 44 -38 33 -15 -16 35 -11
39 33 27 28 -8 41 -21 67 -68 18 -31 30 -49 27 -39 -26 82 -16 86 53 22 29
-27 54 -43 63 -40 8 3 54 -19 103 -50 92 -58 125 -64 65 -13 -60 51 -252 176
-311 202 -31 13 -92 32 -134 41 -88 18 -98 22 -89 37 4 6 -1 8 -12 5 -11 -4
-100 -11 -199 -17 -99 -6 -211 -15 -250 -20 -38 -6 -151 -17 -250 -25 -198
-16 -232 -23 -317 -66 -32 -16 -83 -40 -115 -54 l-58 -26 30 31 c34 36 75 60
104 60 14 0 18 5 14 18 -6 26 87 109 133 118 27 5 32 9 23 20 -16 20 0 36 32
32 25 -4 29 -1 29 19 0 30 30 31 76 2 19 -11 42 -19 51 -17 13 3 6 9 -22 23
-55 27 -58 52 -8 61 21 3 50 18 66 32 l27 26 28 -20 c46 -34 59 -40 40 -17
-22 24 -23 39 -2 47 17 7 54 -10 54 -24 0 -6 4 -10 8 -10 5 0 7 14 4 30 -5 37
13 40 53 8 27 -21 27 -21 21 -1 -15 47 72 57 119 13 12 -11 27 -20 34 -20 8 0
1 10 -14 22 -37 29 -19 37 84 39 74 1 84 -1 128 -30 25 -17 54 -31 62 -31 9 1
-1 10 -22 21 -51 27 -43 43 24 47 41 2 65 -3 102 -21 26 -14 42 -18 36 -11
-14 16 -3 34 20 34 10 0 38 -11 64 -23 25 -13 45 -19 44 -13 -3 14 32 20 47 7
8 -6 16 -24 19 -39 3 -15 13 -36 21 -47 15 -19 16 -19 6 8 -25 70 -3 86 53 37
19 -16 46 -34 60 -39 18 -7 29 -21 37 -49 5 -22 18 -46 27 -53 15 -13 15 -12
5 8 -15 27 -15 43 -2 43 6 0 56 -42 113 -93 56 -51 111 -99 121 -107 46 -35
-21 54 -104 139 -138 141 -249 211 -395 248 -59 15 -112 18 -335 17 -480 0
-642 -41 -892 -223 -131 -95 -136 -97 -154 -74 -12 17 -13 16 -14 -10 0 -64
-146 -173 -246 -185 -65 -7 -55 19 12 34 34 7 43 12 31 17 -25 10 -21 23 13
37 32 13 57 39 27 27 -46 -18 10 56 64 83 21 11 48 20 59 20 19 0 21 4 15 29
-7 32 12 58 48 66 12 2 42 9 67 14 37 7 40 9 15 10 -16 1 -36 5 -43 10 -19 12
82 61 125 61 27 0 33 4 31 18 -4 25 81 65 143 66 39 1 49 4 49 18 0 27 57 50
127 52 58 1 61 2 37 12 l-27 11 47 18 47 18 25 -24 25 -24 -11 29 c-7 20 -7
33 -1 39 17 17 69 12 93 -9 l22 -19 -17 28 c-23 36 -13 50 34 45 26 -2 39 0
39 9 0 16 31 32 50 25 8 -3 26 -13 39 -23 35 -28 51 -22 17 5 -38 32 -26 46
40 46 48 0 58 -4 96 -37 l42 -38 -32 40 c-32 39 -32 40 -10 48 26 9 74 -8 89
-32 8 -13 9 -12 4 7 -10 34 20 40 53 10 55 -50 68 -55 39 -15 l-28 37 41 0
c61 0 105 -23 182 -95 68 -65 98 -82 79 -47 -5 10 -18 25 -27 33 -10 8 -30 32
-46 53 -34 47 -25 66 32 66 32 0 40 -4 48 -27 6 -16 17 -37 26 -48 15 -18 15
-17 0 19 -10 25 -12 42 -6 48 18 18 71 -3 123 -50 l51 -46 -7 32 c-4 19 -3 32
3 32 5 0 55 -40 111 -90 56 -49 104 -90 107 -90 14 0 -28 54 -95 121 -94 94
-139 113 -324 135 -73 9 -157 25 -187 36 -90 33 -304 77 -550 113 l-74 11 35
21 c19 12 55 31 79 42 37 17 45 17 57 5 16 -16 43 -19 43 -5 0 5 -10 12 -22
15 -21 7 -19 9 17 22 22 9 73 24 114 35 l74 19 55 -25 c49 -23 53 -23 38 -6
-24 27 -12 41 35 41 31 0 48 -8 81 -37 37 -33 40 -34 25 -11 -23 37 -21 48 7
48 23 0 41 -17 73 -66 10 -16 10 -12 2 16 -5 19 -9 38 -9 42 0 16 33 7 68 -19
l37 -27 -24 27 -24 27 61 0 c56 0 62 -2 86 -32 14 -18 28 -29 32 -25 4 4 0 15
-9 25 -27 29 -20 35 30 27 59 -9 89 -24 132 -69 19 -20 39 -36 44 -36 6 0 -6
18 -28 40 -21 22 -36 42 -33 45 11 11 78 -7 111 -29 17 -12 45 -41 60 -64 16
-24 32 -41 34 -38 3 3 -2 17 -11 30 -24 37 -21 59 7 51 31 -10 97 -53 97 -65
0 -6 7 -10 16 -10 9 0 46 -29 82 -65 36 -36 67 -63 70 -60 3 2 -14 29 -37 59
-78 101 -204 179 -347 215 -111 27 -134 30 -360 45 -111 8 -210 19 -222 25
-13 7 -29 8 -49 1 -15 -5 -85 -19 -155 -30 -71 -11 -171 -31 -224 -45 -93 -24
-98 -24 -158 -9 -76 20 -86 29 -45 43 43 15 95 13 144 -4 34 -12 41 -12 48 0
4 8 18 15 29 15 12 0 19 2 16 5 -3 3 -79 12 -169 20 -171 16 -260 30 -294 48
-20 10 -20 10 -1 -12 l19 -21 -48 0 -49 0 30 31 c56 59 103 69 204 44 15 -4 8
3 -18 17 l-42 24 55 27 c30 15 61 27 68 27 7 0 33 -14 58 -32 l44 -32 -32 35
c-18 19 -33 40 -33 47 0 13 61 32 103 32 15 0 46 -9 68 -21 22 -11 50 -19 62
-17 17 3 11 8 -23 18 l-45 15 47 3 c26 2 56 -1 65 -7 13 -7 20 -5 30 7 11 16
17 15 68 -12 66 -34 84 -30 22 4 l-42 24 40 8 c61 11 164 9 186 -3 11 -6 25
-8 32 -6 7 3 1 9 -12 14 -30 12 -21 18 49 31 160 31 224 26 300 -24 14 -9 9
-2 -10 15 l-35 31 35 -6 c19 -3 56 -16 83 -28 44 -22 47 -22 47 -4 0 10 5 18
10 18 18 0 83 -30 101 -46 16 -15 17 -14 12 5 -7 26 9 27 44 4 15 -10 36 -16
48 -15 11 2 52 -10 90 -27 70 -30 83 -32 70 -11 -23 37 -187 91 -354 115 -58
9 -115 19 -126 23 -11 4 -115 7 -230 7 l-210 0 -49 35 c-61 44 -94 86 -79 101
6 6 29 13 52 16 34 5 47 1 78 -22 21 -16 32 -22 26 -15 -28 30 -15 40 50 40
43 0 75 -6 102 -20 47 -24 51 -25 35 -5 -9 10 -10 19 -3 26 6 6 25 -1 53 -20
55 -37 68 -30 20 10 l-34 29 26 0 c16 0 38 -12 56 -30 17 -16 36 -30 44 -30 8
0 7 4 -4 11 -10 5 -22 19 -28 29 -18 34 34 25 76 -12 33 -29 36 -30 30 -10 -9
29 17 30 59 2 21 -14 32 -16 42 -8 13 10 78 8 168 -8 61 -10 32 11 -40 30 -95
24 -286 46 -404 46 -136 0 -172 6 -163 29 5 14 2 13 -23 -3 -42 -27 -163 -35
-181 -12 -10 14 -16 15 -34 6 -11 -6 -69 -20 -128 -31 -130 -25 -442 -100
-532 -128 -68 -21 -81 -21 -60 4 24 29 -1 14 -87 -50 -87 -66 -110 -77 -99
-50 3 8 1 15 -4 15 -5 0 -12 -11 -16 -25 -6 -25 -83 -103 -122 -124 -17 -9
-23 -8 -31 6 -10 17 -10 16 -11 -3 0 -11 -13 -40 -29 -65 -32 -50 -91 -109
-91 -91 0 9 -7 8 -23 -3 -22 -14 -125 -27 -310 -39 l-79 -5 7 27 c9 39 34 74
56 79 21 6 27 33 7 33 -6 0 1 14 17 30 22 23 38 30 66 30 33 0 36 2 32 21 -4
14 -12 19 -24 16 -11 -3 -19 -3 -19 -1 0 9 31 64 35 64 3 0 14 -15 26 -32 l20
-33 -7 38 -6 37 53 1 c53 1 53 1 19 11 -48 13 -58 25 -37 45 14 14 22 15 46 6
25 -9 29 -8 24 4 -10 26 17 31 90 17 40 -8 88 -13 107 -13 36 1 32 3 -57 20
-29 6 -53 14 -53 19 0 12 88 40 125 40 17 0 53 -7 79 -16 65 -22 68 -11 4 13
l-53 20 54 17 c30 9 73 16 95 16 29 0 37 3 26 10 -13 8 -13 10 0 14 49 17 142
26 181 17 49 -11 60 -8 30 9 -32 17 -18 27 58 41 l69 12 67 -37 c77 -43 100
-43 28 0 l-48 29 130 5 130 5 -105 9 c-119 11 -111 14 83 37 106 12 108 12
138 -10 29 -21 30 -22 20 -3 -6 12 -11 23 -11 26 0 12 47 5 89 -15 l45 -20
-19 21 c-18 20 -18 20 23 20 43 0 63 14 36 24 -63 24 -521 -28 -874 -99 -206
-41 -261 -49 -302 -40 l-33 8 35 28 c36 31 70 36 117 19 l28 -10 -24 18 c-30
24 -23 36 36 56 54 19 87 20 114 6 21 -12 26 -1 7 18 -25 25 25 39 117 33 38
-2 39 -2 20 13 -19 14 -19 15 20 32 61 25 109 29 136 10 27 -19 43 -21 33 -5
-7 12 10 10 63 -7 10 -3 7 1 -7 10 -14 8 -37 15 -52 16 -44 0 -40 15 8 29 40
12 89 10 130 -6 8 -3 14 0 14 6 0 7 -10 15 -22 20 -21 8 -21 8 3 15 13 4 70
10 126 13 l101 6 38 -32 c42 -34 67 -42 41 -13 -10 10 -17 24 -17 30 0 17 46
15 80 -3 27 -14 30 -14 30 0 0 10 10 15 33 15 33 0 57 -17 71 -50 3 -8 5 0 3
18 -4 37 -2 38 38 12 20 -13 31 -16 36 -8 5 8 31 5 93 -11 47 -13 91 -21 98
-18 24 9 -57 35 -207 67 -82 18 -159 37 -169 42 -13 7 -42 7 -90 -1 -39 -5
-122 -12 -184 -15 -168 -7 -371 -48 -542 -111 -227 -83 -212 -79 -262 -54 -24
12 -58 33 -77 47 -19 14 -50 28 -69 31 -20 4 -37 12 -40 20 -4 11 4 13 37 8
40 -5 42 -4 27 12 -14 16 -14 19 4 39 17 18 25 20 46 12 35 -14 39 -13 23 7
-12 14 -12 17 1 21 8 3 27 18 42 34 16 17 36 28 52 28 20 0 26 5 24 18 -5 26
42 27 118 2 84 -28 94 -19 13 12 -34 13 -64 29 -67 36 -6 20 42 32 83 21 44
-13 59 -4 20 11 -27 10 -27 11 -9 25 40 30 76 28 169 -9 49 -20 90 -34 93 -32
2 3 -28 21 -67 40 -39 20 -71 41 -71 46 0 15 73 12 113 -5 50 -21 68 -19 34 4
l-28 18 23 7 c48 12 78 6 113 -25 39 -34 47 -26 14 15 l-20 26 23 0 c14 0 37
-13 53 -30 21 -22 38 -30 62 -30 36 0 37 12 3 30 -16 8 -18 8 -14 -5 7 -17 -4
-19 -26 -5 -13 9 -12 13 5 26 28 22 103 13 146 -16 29 -20 31 -21 17 -4 -45
51 6 45 53 -6 20 -22 43 -40 50 -40 7 0 -2 16 -21 35 -28 29 -31 35 -17 41 16
6 40 -4 112 -47 51 -30 30 0 -23 33 -31 19 -33 22 -16 29 35 14 62 9 93 -17
17 -14 31 -21 31 -15 0 16 42 13 85 -5 31 -13 43 -13 61 -3 12 6 32 9 43 6 36
-9 23 13 -16 30 -105 44 -833 39 -1005 -7 -100 -26 -191 -68 -280 -128 -40
-27 -91 -59 -113 -71 -22 -12 -71 -49 -110 -82 -89 -78 -105 -85 -220 -108
-56 -12 -108 -29 -127 -42 -72 -50 -200 -163 -259 -229 -62 -68 -94 -85 -105
-55 -3 8 4 31 15 51 12 20 20 43 17 51 -14 35 26 68 97 83 36 7 38 8 12 9 -43
1 -59 20 -38 43 9 10 23 18 31 18 12 0 12 3 -4 15 -16 13 -17 16 -4 25 8 5 35
10 60 11 72 1 96 17 28 18 -45 1 -58 4 -58 16 0 8 1 15 3 15 1 0 27 9 57 20
41 14 48 19 28 19 -37 1 -45 19 -19 44 20 20 24 20 91 9 113 -19 161 -13 58 7
-49 10 -90 20 -93 23 -25 25 67 78 136 78 32 0 40 3 29 10 -8 5 -25 10 -37 10
-12 0 -25 5 -28 10 -8 14 56 40 97 40 18 0 40 5 48 10 12 8 9 10 -12 10 -15 0
-29 4 -33 9 -8 14 63 34 120 35 45 0 47 1 22 10 -27 10 -26 11 35 35 39 15 91
26 137 28 47 3 69 8 61 13 -20 12 -13 17 68 45 83 29 113 31 172 10 23 -8 54
-15 69 -14 17 0 3 7 -38 20 -35 12 -60 24 -55 29 5 5 40 17 77 26 64 17 70 18
95 1 68 -42 162 -71 162 -50 0 6 -22 13 -49 17 -52 7 -99 35 -88 53 11 18 93
25 139 13 24 -7 66 -29 95 -51 74 -56 78 -48 8 16 l-60 55 67 0 c66 0 68 -1
108 -41 23 -23 44 -39 47 -35 4 3 -6 19 -20 34 -15 16 -27 31 -27 34 0 3 23
-3 51 -13 51 -20 97 -20 49 -1 -29 12 -17 19 40 25 19 2 -109 5 -284 5 l-319
2 -226 -70 c-404 -126 -511 -168 -591 -230 -140 -110 -277 -275 -355 -430 -57
-114 -82 -195 -120 -384 l-32 -160 -63 -23 c-35 -13 -75 -22 -89 -21 -24 3
-24 5 13 21 45 20 42 35 -4 19 -40 -15 -50 6 -26 55 13 27 14 38 5 49 -16 19
2 40 47 54 19 6 34 16 34 21 0 12 -27 12 -35 -1 -3 -5 -15 -10 -26 -10 -45 0
-8 103 46 125 45 19 44 27 -2 23 -44 -4 -55 18 -29 57 14 22 24 25 74 26 93 1
110 17 19 18 -75 1 -78 2 -75 23 2 13 19 33 41 48 22 14 33 26 25 28 -39 11
-41 12 -28 27 7 9 30 15 54 16 l41 1 -34 12 c-19 7 -36 17 -38 23 -6 17 66 73
95 74 l27 1 -28 10 c-15 5 -26 15 -24 22 6 19 69 36 113 30 22 -2 49 -1 60 3
17 6 17 8 -6 14 -14 4 -45 7 -69 8 l-45 1 30 31 c57 62 104 89 151 89 27 0 42
4 38 10 -3 6 -15 10 -26 10 -10 0 -19 4 -19 9 0 17 43 41 72 41 31 0 37 14 11
25 -16 6 -16 8 6 26 18 14 39 19 90 19 46 0 62 3 51 10 -8 5 -33 10 -55 10
l-39 0 22 23 c19 19 33 22 96 22 76 0 81 9 13 21 l-39 6 21 21 c16 17 36 22
91 25 38 2 70 8 70 13 0 5 -10 9 -22 9 -13 0 -30 4 -37 9 -12 8 -10 11 10 16
16 4 45 -3 83 -20 32 -14 64 -24 70 -22 6 3 -18 18 -54 35 l-65 29 59 8 c50 7
57 10 43 20 -15 11 -12 14 22 29 l38 18 97 -42 c59 -25 105 -39 117 -35 32 10
21 25 -18 25 -44 1 -145 39 -151 58 -11 35 98 29 151 -9 38 -28 34 -6 -5 25
-25 19 -30 28 -21 37 12 12 19 9 113 -44 25 -14 61 -28 80 -31 31 -6 30 -4
-12 13 -66 26 -120 61 -115 75 5 15 85 20 103 5 8 -6 18 -9 22 -5 4 4 -1 13
-10 20 -10 7 -15 16 -11 19 13 14 55 6 103 -18 27 -14 57 -25 67 -25 10 0 -7
13 -37 28 -30 15 -56 32 -58 39 -5 18 45 27 84 15 30 -9 33 -8 36 12 5 38 50
29 136 -25 18 -12 35 -19 38 -16 3 3 -14 16 -38 28 l-43 23 75 23 c101 32 117
29 160 -34 19 -29 41 -55 48 -58 16 -6 0 26 -22 45 -9 7 -16 16 -16 21 0 12
43 11 76 -1 50 -19 37 -1 -17 24 l-54 25 106 -2 c100 -2 108 -4 145 -32 l39
-30 -23 33 c-13 18 -32 36 -42 42 -26 14 -278 20 -400 10z m833 -507 c-7 -2
-19 -2 -25 0 -7 3 -2 5 12 5 14 0 19 -2 13 -5z m-1668 -434 c4 -6 -22 -59 -58
-117 -66 -108 -113 -198 -137 -262 -22 -57 -58 -98 -128 -145 -76 -51 -73 -54
-85 53 l-6 54 51 54 c54 57 57 68 8 32 -37 -27 -45 -20 -29 27 16 42 32 58 85
85 35 17 36 19 14 20 -25 1 -25 1 10 30 19 17 49 33 67 36 26 5 32 10 28 23
-6 19 52 79 100 104 35 19 71 21 80 6z m282 -7 c32 -10 73 -28 91 -39 l33 -20
-78 -40 c-43 -22 -94 -46 -114 -52 -48 -16 -209 -29 -209 -18 0 18 84 127 99
128 9 1 32 1 51 0 l35 -1 -27 15 c-75 42 9 61 119 27z m-141 -227 c-42 -37
-89 -55 -147 -55 -46 0 -51 6 -33 42 20 39 44 47 139 47 l80 0 -39 -34z m190
1 c10 -8 16 -17 12 -21 -9 -9 -119 -37 -125 -31 -5 5 75 66 87 66 3 0 15 -6
26 -14z m1098 -52 c21 -21 20 -34 -2 -34 -26 0 -56 25 -48 38 10 17 32 15 50
-4z m-54 -28 c25 -13 61 -28 80 -35 19 -6 53 -27 75 -46 61 -53 64 -52 -319
-75 l-168 -11 -141 -70 c-157 -79 -181 -94 -249 -156 l-47 -43 -91 0 c-90 0
-91 0 -84 23 9 31 8 30 46 11 l33 -17 -24 26 c-20 22 -22 29 -11 42 26 31 46
35 90 20 24 -8 52 -15 64 -14 14 0 8 5 -19 15 -22 8 -46 21 -54 29 -13 12 -12
17 3 34 25 27 51 34 76 21 19 -10 20 -10 8 10 -12 19 -10 24 17 46 39 31 111
55 141 48 18 -5 24 -2 24 10 0 27 27 30 70 7 l40 -21 -16 25 c-9 13 -13 29 -9
35 8 13 66 9 100 -5 17 -8 18 -7 7 7 -20 25 3 32 34 11 27 -17 27 -17 16 4
-11 20 -8 23 41 41 65 24 125 34 132 21 4 -5 -4 -9 -16 -9 -28 0 -20 -8 45
-46 49 -28 51 -25 13 28 -17 22 -18 30 -7 43 18 21 48 19 100 -9z m-1840 -58
c0 -80 -7 -106 -31 -113 -22 -7 -59 11 -59 29 0 7 9 25 21 39 15 20 18 31 10
45 -13 24 12 62 40 62 17 0 19 -7 19 -62z m435 52 c-3 -5 -15 -10 -26 -10 -11
0 -17 5 -14 10 3 6 15 10 26 10 11 0 17 -4 14 -10z m73 -2 c-5 -18 -113 -71
-135 -66 -13 3 -3 12 34 31 28 15 54 31 58 37 9 15 47 12 43 -2z m-524 -194
c18 -18 21 -89 6 -129 -10 -28 -97 -125 -111 -125 -12 0 -11 47 2 71 5 11 31
33 57 50 26 17 39 28 29 25 -73 -24 -81 -18 -71 45 11 67 54 98 88 63z m366
-4 c0 -5 -7 -10 -15 -10 -8 0 -15 5 -15 10 0 6 7 10 15 10 8 0 15 -4 15 -10z
m-160 -120 c0 -32 -28 -80 -47 -80 -15 0 -14 -2 1 -19 12 -14 14 -21 6 -26
-17 -10 -27 4 -35 47 -6 33 -3 41 23 68 36 35 52 38 52 10z m-411 -27 c0 -21
-5 -54 -12 -73 -13 -37 -36 -49 -120 -64 l-38 -7 3 68 3 68 65 22 c93 32 100
31 99 -14z m277 -146 c16 -30 16 -31 -12 -55 -44 -36 -127 -82 -148 -82 -15 0
-16 -3 -6 -14 26 -32 -13 -97 -41 -69 -21 21 1 66 55 118 28 28 60 63 70 78
10 17 23 26 32 23 10 -4 14 2 14 20 0 31 15 24 36 -19z m-296 -17 c0 -33 -29
-80 -49 -80 -10 0 -38 -9 -62 -20 -24 -10 -48 -15 -52 -11 -5 5 -7 30 -5 57 3
47 4 49 43 60 22 7 59 13 83 13 36 1 42 -2 42 -19z m1498 -21 c23 -22 58 -47
77 -55 40 -16 85 -19 85 -4 0 6 -12 10 -27 10 -55 1 -133 50 -133 84 0 17 136
4 202 -19 39 -14 82 -25 94 -25 100 0 -78 -85 -274 -131 -133 -31 -209 -76
-433 -254 -204 -164 -351 -257 -380 -240 -16 10 10 35 36 35 29 0 55 10 55 20
0 5 -10 6 -22 3 -21 -5 -21 -3 7 27 35 38 81 60 127 61 l33 1 -35 10 c-19 5
-37 11 -39 13 -7 8 62 86 90 100 15 8 45 15 66 16 l38 1 -42 10 c-24 5 -43 12
-43 16 0 4 15 24 33 46 29 34 39 39 80 41 26 1 53 7 59 13 7 7 -1 9 -31 5 -56
-8 -55 16 2 58 35 26 48 30 82 26 34 -5 38 -4 23 7 -43 32 7 72 77 62 46 -7
64 7 25 19 -28 9 -10 39 38 64 57 30 82 26 130 -20z m-343 -9 c-21 -22 -38
-30 -63 -30 -28 0 -32 -2 -23 -14 9 -11 6 -18 -15 -35 -43 -34 -125 -24 -111
13 11 28 98 76 138 76 21 0 41 5 44 10 3 6 18 10 32 10 l27 0 -29 -30z m-325
-10 c0 -5 -9 -10 -20 -10 -11 0 -20 5 -20 10 0 6 9 10 20 10 11 0 20 -4 20
-10z m-71 -23 c16 -20 4 -27 -44 -27 -40 0 -73 19 -58 33 12 12 90 7 102 -6z
m-98 -34 l43 -19 -61 -47 c-34 -26 -68 -47 -77 -47 -21 0 -46 39 -46 72 0 25
-4 28 -31 28 -17 0 -28 4 -24 10 3 6 21 10 40 10 19 0 37 5 41 11 8 14 59 6
115 -18z m-787 -37 c-6 -17 -34 -30 -34 -16 0 5 8 14 18 19 22 13 22 13 16 -3z
m1077 -5 c31 -25 24 -39 -89 -177 -95 -116 -147 -167 -166 -161 -16 5 -56 79
-56 105 0 18 6 22 33 23 l32 1 -27 10 c-16 5 -28 16 -28 23 0 20 40 45 84 52
35 5 37 7 18 14 -57 21 1 44 84 33 38 -4 54 -3 54 5 0 6 -13 14 -30 18 -39 7
-38 28 3 53 40 25 59 25 88 1z m-496 -111 l33 -45 -108 -81 c-101 -76 -107
-80 -100 -52 17 58 45 103 79 125 29 20 31 23 12 23 -26 0 -27 13 -4 51 24 40
47 34 88 -21z m1341 24 c13 -3 32 -20 43 -37 l20 -32 -2 30 -2 30 50 -4 c59
-4 92 -18 77 -33 -7 -7 -22 -6 -47 2 -20 7 -38 10 -41 8 -4 -5 39 -26 101 -49
l30 -11 -60 -20 c-133 -45 -449 -159 -589 -213 -155 -60 -195 -63 -143 -11 19
19 37 26 63 26 35 0 36 1 18 14 -19 14 -19 15 2 43 11 15 37 37 57 48 20 11
38 29 41 41 11 44 215 174 271 174 11 0 25 -10 30 -22 17 -36 36 -35 28 3 -5
28 -4 31 11 26 10 -4 29 -10 42 -13z m-1710 -168 c-7 -12 -16 -34 -20 -51 -4
-16 -31 -72 -59 -124 -55 -98 -89 -133 -110 -112 -15 15 1 43 29 51 10 3 20
12 22 20 2 8 11 26 20 39 9 13 31 46 49 72 l32 48 -32 -19 c-37 -23 -67 -26
-67 -7 0 17 67 85 104 105 l31 17 -27 3 c-16 2 -28 5 -28 6 0 2 12 30 27 62
l28 59 7 -74 c6 -56 4 -80 -6 -95z m-161 115 c-12 -37 -55 -81 -81 -81 -21 0
-23 -4 -18 -24 6 -25 -22 -80 -36 -71 -13 8 6 81 30 115 23 32 100 94 108 86
2 -3 1 -14 -3 -25z m2205 9 c81 -9 110 -17 110 -31 0 -17 -66 -20 -105 -5 -22
9 -58 15 -80 14 -35 -3 -40 0 -43 21 -3 21 -1 23 20 17 12 -3 57 -11 98 -16z
m210 -24 c32 -12 33 -13 11 -19 -26 -6 -91 2 -91 13 0 23 28 25 80 6z m-1115
-136 c-10 -11 -23 -20 -28 -20 -6 0 -2 9 8 20 10 11 23 20 28 20 6 0 2 -9 -8
-20z m-685 -34 c0 -7 7 -19 16 -27 14 -12 14 -14 -3 -27 -17 -12 -17 -14 0
-23 36 -21 22 -37 -88 -98 -106 -59 -190 -87 -220 -73 -33 15 -31 25 6 56 29
25 36 26 93 20 64 -7 72 5 9 15 -46 8 -54 27 -14 36 19 4 31 14 35 30 5 21 80
84 116 98 28 10 50 7 50 -7z m574 -72 c-85 -103 -255 -241 -304 -246 -14 -2
-28 -10 -32 -19 -8 -19 -95 -56 -106 -45 -10 11 55 66 78 66 11 0 20 5 20 10
0 6 11 15 25 20 14 5 25 14 25 20 0 5 14 10 30 10 19 0 30 5 30 14 0 16 42 46
64 46 8 0 53 38 101 85 96 93 128 111 69 39z m-1160 1 c-10 -8 -16 -15 -11
-15 16 0 -24 -60 -58 -86 -33 -25 -65 -27 -65 -4 0 5 13 24 29 42 26 29 30 31
47 18 16 -14 17 -13 11 16 -7 38 -3 44 37 44 28 0 29 -1 10 -15z m-120 -164
c-1 -24 6 -27 24 -9 13 13 27 5 17 -11 -11 -18 -51 -12 -71 10 -16 17 -16 22
-4 29 22 14 35 6 34 -19z m-312 -76 c-34 -71 -48 -84 -38 -33 7 35 54 113 63
104 3 -3 -8 -34 -25 -71z m264 58 c21 -28 16 -43 -11 -43 -14 0 -28 -7 -31
-15 -6 -15 -44 -21 -44 -7 0 9 59 82 67 82 3 0 12 -8 19 -17z m462 -17 c11
-11 9 -17 -13 -34 -56 -44 -205 -82 -205 -51 0 14 63 39 102 39 l33 1 -25 13
-24 14 34 21 c37 22 73 21 98 -3z m330 -8 c-7 -21 -71 -59 -93 -56 -31 5 -22
20 25 45 48 26 74 29 68 11z m-128 -86 c0 -26 -89 -71 -140 -71 l-25 0 24 17
c68 49 141 76 141 54z m-136 -101 c6 -9 -78 -78 -121 -100 -28 -14 -63 -14
-63 1 0 6 -10 2 -23 -10 -21 -20 -25 -21 -45 -6 -29 20 -28 34 2 34 14 0 28 5
31 10 3 6 20 10 37 10 25 0 28 2 18 15 -10 12 -6 13 27 8 34 -6 37 -5 25 10
-11 13 -10 17 5 26 22 13 100 14 107 2z m456 -40 c0 -15 -56 -51 -78 -51 -27
0 -46 24 -30 38 23 18 108 28 108 13z m-90 -68 c0 -10 -32 -43 -42 -43 -12 0
-10 24 4 38 13 13 38 16 38 5z m-200 -38 c0 -3 -7 -21 -14 -40 -16 -37 -30
-42 -71 -23 -30 14 -47 2 -22 -17 16 -12 16 -13 -5 -19 -36 -9 -150 -7 -143 3
3 5 40 21 83 36 42 14 93 34 112 45 34 19 60 25 60 15z m295 -111 c-27 -13
-63 -24 -79 -24 -25 0 -27 2 -15 16 19 23 48 33 99 33 l45 -1 -50 -24z m182
-49 c-28 -25 -47 -32 -47 -17 0 9 51 41 65 41 6 0 -3 -11 -18 -24z m-332 -4
c-11 -4 -33 -11 -50 -15 -28 -6 -29 -5 -11 9 11 8 34 15 50 14 26 0 28 -2 11
-8z m230 -67 c-83 -69 -202 -108 -260 -85 -16 7 -10 11 34 25 30 9 69 16 87
16 19 0 34 6 38 15 7 18 82 55 111 54 17 0 16 -3 -10 -25z m-273 -100 c30 -16
31 -17 13 -30 -25 -19 -60 -18 -90 2 -26 17 -34 7 -12 -15 10 -10 8 -12 -7 -9
-32 5 -29 26 6 48 40 24 50 25 90 4z m1079 -1031 c17 -44 4 -63 -14 -21 -20
44 -20 48 -7 48 6 0 15 -12 21 -27z m248 -155 c9 -15 12 -30 7 -35 -8 -8 -56
41 -56 58 0 20 34 4 49 -23z m-636 -438 c10 -16 14 -30 8 -30 -10 0 -41 39
-41 52 0 17 17 6 33 -22z"/>
<path d="M2590 14365 c0 -9 44 -23 54 -18 4 3 2 9 -5 14 -15 10 -49 12 -49 4z"/>
<path d="M2331 13946 c-6 -16 -10 -31 -7 -33 7 -8 28 37 23 50 -3 7 -10 -1
-16 -17z"/>
<path d="M2799 14270 c13 -11 30 -20 39 -20 19 0 15 3 -28 24 l-35 17 24 -21z"/>
<path d="M3464 13889 c32 -17 60 -28 63 -25 6 6 -92 56 -109 56 -7 -1 13 -15
46 -31z"/>
<path d="M3428 13573 c6 -2 18 -2 25 0 6 3 1 5 -13 5 -14 0 -19 -2 -12 -5z"/>
<path d="M3545 13270 c3 -5 15 -10 26 -10 11 0 17 5 14 10 -3 6 -15 10 -26 10
-11 0 -17 -4 -14 -10z"/>
<path d="M2866 15041 c-3 -5 1 -14 9 -21 12 -10 15 -10 15 3 0 19 -16 31 -24
18z"/>
<path d="M3365 15000 c3 -5 15 -10 26 -10 11 0 17 5 14 10 -3 6 -15 10 -26 10
-11 0 -17 -4 -14 -10z"/>
<path d="M3215 14939 c11 -13 21 -26 22 -28 2 -2 3 3 3 12 0 9 -10 22 -22 28
l-23 12 20 -24z"/>
<path d="M2930 14865 c0 -9 44 -23 54 -18 4 3 2 9 -5 14 -15 10 -49 12 -49 4z"/>
<path d="M3410 14755 c13 -14 25 -25 27 -25 2 0 -4 11 -13 25 -9 14 -21 25
-27 25 -6 0 0 -11 13 -25z"/>
<path d="M3230 14630 c0 -5 7 -10 16 -10 8 0 12 5 9 10 -3 6 -10 10 -16 10 -5
0 -9 -4 -9 -10z"/>
<path d="M2185 14610 c3 -5 21 -10 38 -10 24 0 28 3 17 10 -20 13 -63 13 -55
0z"/>
<path d="M3135 14570 c3 -5 13 -10 21 -10 8 0 12 5 9 10 -3 6 -13 10 -21 10
-8 0 -12 -4 -9 -10z"/>
<path d="M3899 14470 c13 -11 27 -20 32 -20 18 0 8 10 -23 25 l-33 16 24 -21z"/>
<path d="M3190 14400 c-14 -11 -20 -20 -15 -20 6 0 21 9 35 20 14 11 21 20 15
20 -5 0 -21 -9 -35 -20z"/>
<path d="M4380 14104 c8 -8 23 -20 34 -26 19 -10 18 -8 -3 16 -26 27 -53 37
-31 10z"/>
<path d="M4540 13920 c6 -11 20 -25 31 -31 17 -9 20 -8 14 3 -24 41 -67 68
-45 28z"/>
<path d="M4112 13518 c6 -18 28 -21 28 -4 0 9 -7 16 -16 16 -9 0 -14 -5 -12
-12z"/>
<path d="M4545 13190 c3 -5 13 -10 21 -10 8 0 12 5 9 10 -3 6 -13 10 -21 10
-8 0 -12 -4 -9 -10z"/>
<path d="M3984 12845 c11 -8 29 -15 40 -15 21 1 21 1 2 15 -11 8 -29 15 -40
15 -21 -1 -21 -1 -2 -15z"/>
<path d="M3480 12432 c0 -5 7 -13 16 -16 24 -9 54 -7 54 4 0 6 -6 10 -12 10
-7 0 -23 3 -35 6 -13 4 -23 2 -23 -4z"/>
<path d="M3382 12408 c6 -18 28 -21 28 -4 0 9 -7 16 -16 16 -9 0 -14 -5 -12
-12z"/>
<path d="M3014 12215 c22 -17 46 -20 46 -6 0 5 -10 11 -22 15 -37 9 -44 6 -24
-9z"/>
<path d="M3330 11972 c0 -12 48 -37 56 -29 3 3 -8 13 -25 22 -17 8 -31 12 -31
7z"/>
<path d="M3338 11523 c6 -2 18 -2 25 0 6 3 1 5 -13 5 -14 0 -19 -2 -12 -5z"/>
<path d="M3600 10201 c0 -13 29 -35 37 -28 7 8 -15 37 -28 37 -5 0 -9 -4 -9
-9z"/>
</g>
</svg>
