<?xml version="1.0" encoding="UTF-8" standalone="no"?>
<!-- Created with Inkscape (http://www.inkscape.org/) -->

<svg
   version="1.1"
   width="137.78732mm"
   height="158.23807mm"
   viewBox="0 0 137.78732 158.23807"
   id="svg8"
   xmlns="http://www.w3.org/2000/svg"
   xmlns:svg="http://www.w3.org/2000/svg">
  <defs
     id="defs2" />
  <g
     id="layer1"
     transform="translate(-41.475387,-35.029777)">
    <path
       d="m 62.333613,180.83854 c 0,0 -10.55714,-1.00226 -11.49257,-1.00226 -0.93546,0 -4.74404,0.66817 -6.08039,0.80182 -1.33636,0.13362 -3.34087,0.86862 -3.14042,1.33632 0.20045,0.46773 1.13591,2.67272 1.46997,3.54135 0.33409,0.8686 1.93773,4.67719 5.2786,4.81085 3.34086,0.13363 3.94221,0.53453 6.94899,0.33407 3.00677,-0.20044 5.54585,-0.46773 8.21854,-0.46773 2.67269,0 2.27179,0.20045 6.548119,0.60139 4.276302,0.40088 6.414453,0.80178 7.683971,0.33409 1.26955,-0.46775 2.47224,-0.93548 2.47224,-0.93548 l 0.968881,-0.16702 c 0,0 3.441088,0.26725 4.24289,0.26725 0.801819,0 2.271789,0.13364 2.271789,0.13364 l 3.54131,-2.17157 0.400931,-5.54585 -2.605892,-0.4677 c 0,0 -3.27406,0.3341 -3.608138,0.40089 -0.33409,0.0668 -3.274042,0.20046 -3.274042,0.20046 l 6.080371,-2.47224 c 0,0 1.40316,-0.93544 2.071341,-1.5368 0.668179,-0.60136 1.002268,-1.00225 1.002268,-1.00225 0,0 -2.004539,10.28986 -2.338628,10.89122 -0.33406,0.60135 -1.06907,2.20497 -0.86863,2.73951 0.20048,0.53455 0.53457,1.33636 2.53908,1.60364 2.004509,0.26725 5.345369,-0.33409 5.345369,-0.33409 0,0 11.759887,-0.13365 13.096217,-0.13365 1.33636,0 6.48128,-0.33408 7.55036,-0.46773 1.06908,-0.13362 2.87316,0.33409 4.00905,0.20046 1.13591,-0.13362 1.13591,-1.1359 2.80633,-0.80181 1.67044,0.33409 3.4745,0.0668 3.4745,0.0668 0,0 1.13591,-0.60134 1.13591,-1.26951 0,-0.66819 0.20045,-0.86863 0,-1.80407 -0.20047,-0.93547 -0.40092,-1.73726 -1.00227,-2.20499 -0.60137,-0.46772 -6.08038,-2.67268 -7.34991,-2.87314 -1.26952,-0.20044 -3.14042,-0.46773 -4.54358,-0.26728 -1.40317,0.20046 -6.01356,0.33409 -8.0849,0.60137 -2.07134,0.26726 -5.14496,1.20269 -5.54585,1.20269 -0.4009,0 -2.071346,0 -2.071346,-0.40089 0,-0.40089 -0.200451,-1.40317 0.200451,-2.93998 0.400915,-1.53677 0.935455,-4.20949 1.336355,-5.01128 0.4009,-0.80182 4.67722,-9.5549 4.94448,-10.22308 0.26728,-0.66815 2.80633,-5.47902 2.80633,-5.47902 l 2.53907,-1.40316 c 0,0 0.13364,6.01355 0.26726,7.08266 0.13364,1.06907 0.60137,4.00901 1.40316,6.34764 0.80182,2.3386 1.06908,9.42126 1.67045,10.55714 0.60135,1.13592 2.73952,2.2718 4.2763,2.2718 1.53681,0 2.67272,0.0668 2.87317,-0.46773 0.20044,-0.53454 -1.47,-13.43029 -1.47,-13.43029 v -13.16301 l 0.0907,-4.00989 0.85046,0.18898 0.80319,-1.18117 0.51972,0.42523 c 0,0 0.18896,-0.75596 1.03941,-1.55916 0.85045,-0.8032 2.03163,-1.70089 2.31511,-1.70089 0.28351,0 1.03944,0.0473 1.32292,1.32291 0.2835,1.27569 5.48065,16.39472 6.04763,17.57591 0.56695,1.18117 1.60639,3.07104 1.79539,3.96875 0.18898,0.89769 0.6142,2.40957 0.99219,3.30728 0.37797,0.8977 5.14992,6.80357 5.19716,8.03198 0.0472,1.22844 -0.0945,2.45687 0.99219,2.74034 1.08669,0.28348 3.07107,-0.0472 3.77978,-0.14173 0.70869,-0.0945 0.6142,-0.37798 2.17334,-0.189 1.55916,0.189 1.7009,-0.18898 2.74034,-0.47246 1.03944,-0.28349 2.12611,0.33074 2.88206,-0.14174 0.75596,-0.47249 1.46468,-0.70871 1.79541,-1.0867 0.33072,-0.37798 0.85042,-0.37798 0.75594,-1.3229 -0.0945,-0.94495 -0.99219,-1.98438 -0.99219,-1.98438 0,0 -1.60639,-0.61421 -2.26785,-0.61421 -0.66146,0 -1.79538,-0.0473 -2.55135,0 -0.75594,0.0472 -2.69309,0.0472 -3.44903,-0.94494 -0.75594,-0.99218 -3.49628,-3.77978 -3.77976,-4.53572 -0.28347,-0.75594 -0.80319,-2.69308 -0.80319,-3.35455 0,-0.66146 -0.0945,-3.26002 -0.189,-3.44902 -0.0945,-0.189 -2.08219,-9.6034 -2.01536,-10.27158 0.0668,-0.66818 -0.20045,-10.4235 -0.20045,-11.02487 0,-0.60135 1.00225,-5.61266 1.26952,-4.87766 0.26727,0.73497 0.53455,2.67271 0.66819,1.73724 0.13362,-0.93542 0.73499,-3.07358 0.73499,-3.07358 l 0.53453,0.66815 c 0,0 0.8018,-1.9377 1.67042,-3.14039 0.86863,-1.20271 2.00454,-2.20499 2.67272,-3.07362 0,0 2.20499,-2.60587 3.07362,-4.20949 0.86863,-1.60362 1.5368,-3.27405 2.00452,-6.34765 0.46772,-3.0736 0.40091,-4.47676 0.53454,-6.28083 0.13364,-1.80407 -0.13363,-4.07586 -0.13363,-4.94449 0,-0.86863 1.73725,-5.34539 1.73725,-5.34539 l 0.4009,-2.07134 c 0,0 1.80407,0.53454 2.07134,0.73499 0.26727,0.20045 0.93544,-1.33635 0.93544,-1.33635 0,0 -0.4009,1.20272 0.80181,0.735 1.20272,-0.46773 4.40995,-2.2718 5.01131,-2.40543 0.60135,-0.13364 7.38332,-2.83974 7.7174,-3.14042 0.33409,-0.30068 1.5368,-0.4009 2.07134,-0.73499 0.53454,-0.33409 2.03793,-1.10249 2.27179,-1.436568 0.23387,-0.334092 1.06908,-1.135901 1.16931,-1.436582 0.10022,-0.30067 0.26727,-1.13589 0.26727,-1.46998 0,-0.334089 -0.20045,-1.169299 -0.20045,-1.169299 0,0 0.66817,-0.434319 0.8018,-0.668179 0.13364,-0.23386 0.40091,-0.634762 0.53454,-1.169302 0.13364,-0.534538 0.33409,-1.369759 0.33409,-1.70384 0,-0.33409 -0.16704,-1.5034 -0.33409,-1.837479 -0.16704,-0.334092 -2.67269,-2.572469 -2.67269,-2.572469 0,0 -2.70611,-2.171571 -3.70837,-2.472241 -1.00226,-0.30068 -0.83521,-0.0334 -1.00226,-0.334092 -0.16704,-0.300677 -1.10248,-1.570209 -1.43657,-1.971108 -0.33409,-0.40091 -2.03793,-1.63703 -2.37202,-1.937711 -0.33408,-0.30068 -1.43657,-0.902031 -2.33861,-1.269529 -0.90203,-0.36749 -7.95126,-2.739512 -8.25194,-2.87315 -0.30068,-0.13363 -1.26953,-0.501131 -1.26953,-0.501131 l -0.0668,-1.70384 -0.50113,0.334092 c 0,0 0.0334,-0.734992 -0.26727,-0.567952 -0.30068,0.167039 -1.06908,0.70158 -1.23612,0.734991 -0.16705,0.0334 -0.96885,-0.267271 -1.57021,-0.23386 -0.60136,0.0334 -1.46998,0 -1.70384,0 -0.23386,0 -2.50566,-0.567952 -2.50566,-0.567952 l -0.86862,-0.668168 c 0,0 -1.23118,-1.430822 -1.23118,-1.903291 0,-0.472469 -1.13393,-13.55989 -1.13393,-13.55989 0,0 -3.59078,-14.97731 -3.87426,-15.44978 -0.28348,-0.47247 -4.06325,-4.67746 -4.96094,-5.38616 -0.8977,-0.70871 -4.20499,-2.03162 -4.20499,-2.03162 l -0.14174,1.08668 -1.74814,-1.08668 c 0,0 0.47247,1.08668 0.0945,1.13392 -0.37797,0.0472 -1.22842,-0.66145 -2.03161,0.42523 -0.80321,1.08668 -1.70089,2.64583 -2.07888,4.06324 -0.37797,1.41741 -0.85044,1.37017 -1.18116,4.58296 -0.33074,3.2128 0.42522,14.50484 0.6142,15.969501 0.18899,1.464649 0.7087,2.645828 1.41741,4.063238 0.7087,1.41741 3.26004,4.25223 3.37816,4.55934 0.11813,0.307102 0.63784,1.181172 0.96857,1.417413 0.33072,0.236228 0.61421,0.0709 0.96856,0.401598 0.35435,0.330731 0.77957,0.68508 1.5119,1.5119 0.73233,0.826831 1.03944,1.03944 1.06307,1.41741 0.0236,0.377981 0,1.322919 -0.0709,2.12612 -0.0709,0.803201 0.56697,3.14193 0.87407,3.87426 0.30711,0.732329 1.29928,2.196981 1.41741,2.598581 0.11812,0.401601 0.18898,1.535531 0.18898,1.535531 0,0 -0.14174,0.779579 -0.18898,0.944938 -0.0473,0.16537 -0.63784,3.449031 -0.99219,4.039621 -0.35435,0.59059 -1.15755,2.17337 -1.15755,2.17337 l 0.56697,0.0472 c 0,0 -1.60641,4.748331 -2.197,5.149932 -0.59059,0.401598 -1.72452,0.637828 -3.07105,1.13393 -1.34655,0.496088 -1.34655,0.732329 -2.03163,0.850439 -0.68508,0.118121 -2.9293,-0.0709 -3.30728,-0.0945 -0.37799,-0.0236 1.13393,1.252048 1.13393,1.252048 0,0 -2.57496,-0.0709 -2.76396,-0.0709 -0.18898,0 -4.18135,-0.0472 -4.18135,-0.0472 l 0.0945,1.18117 c 0,0 -0.99219,-0.28348 -1.27567,0.14174 -0.28348,0.42523 -3.44903,2.64584 -3.77976,3.11831 -0.33073,0.47247 -0.8977,1.03943 -1.79539,1.88988 -0.89769,0.85045 -1.46466,1.84263 -2.12612,2.36235 -0.66145,0.51972 -11.906254,5.29167 -12.284224,5.57515 -0.377979,0.28348 -6.756329,3.2128 -7.9375,3.54353 -1.181179,0.33073 -7.465028,2.69308 -8.315479,3.1183 -0.850442,0.42522 -7.181551,3.77976 -7.512272,3.82701 -0.330729,0.0472 -3.590779,2.4096 -4.393978,2.97656 -0.8032,0.56697 -3.071051,2.26786 -4.063241,2.97656 -0.99219,0.70871 -2.22061,1.7009 -3.11831,2.55134 -0.89769,0.85045 -0.89769,0.85045 -2.45684,2.55135 -1.55915,1.70088 -4.96094,8.07923 -5.48066,9.26041 -0.51971,1.18117 -1.27566,5.90589 -1.5119,7.3233 -0.23624,1.41741 1.5987,20.63298 1.56529,21.1007 -0.0334,0.46772 -0.13363,1.33635 0.7684,2.3052 0.90204,0.96885 2.27179,1.63703 2.97338,2.13816 0.70158,0.50114 1.1693,0.63477 1.67043,1.16931 0.50113,0.53453 2.63927,1.30294 2.63927,1.30294 z"
       id="path4014"
       style="fill:#000000;stroke:#000000;stroke-width:0.264583px;stroke-linecap:butt;stroke-linejoin:miter;stroke-opacity:1" />
  </g>
</svg>
