<?xml version="1.0" encoding="UTF-8" standalone="no"?>
<svg
   width="727.78107"
   height="377.11389"
   viewBox="0 0 727.78107 377.11389"
   version="1.1"
   id="svg4"
   xmlns="http://www.w3.org/2000/svg"
   xmlns:svg="http://www.w3.org/2000/svg">
  <defs
     id="defs8" />
  <path
     d="m 192.23913,1.9505726 c -10.548,3.716 -23.113,11.9080004 -25.579,16.6780004 -0.852,1.648 -2.844,3.447 -4.426,3.999 -2.562,0.893 -5.468,3.974 -14.818,15.707 -1.472,1.848 -4.739,5.898 -7.259,9 -6.963,8.572 -12.918,17.8 -12.918,20.019 0,1.093 -0.879,2.266 -1.953,2.607 -1.075,0.341 -3.627,2.959 -5.672,5.818 -9.498,13.275 -12.183,16.651 -18.31,23.023 -4.66,4.845997 -9.932,8.821997 -18.168,13.701997 -6.382,3.781 -12.354,8.02 -13.271,9.42 -0.917,1.4 -4.92,4.104 -8.897,6.009 -3.976,1.906 -10.379,6.224 -14.229,9.596 -3.85,3.372 -8.945,7.539 -11.322,9.26 -2.376,1.721 -6.739,6.579 -9.694,10.796 -2.955,4.217 -7.935,9.855 -11.066,12.529 -11.3170004,9.663 -13.4690004,11.913 -14.32900037,14.98 -1.297,4.629 1.15699997,8.695 9.04399997,14.988 6.7550004,5.39 7.5280004,6.244 12.5720004,13.894 7.002,10.619 9.278,13.449 17.717,22.024 10.009,10.17 16.208,14.836 26.344,19.832 12.167,5.996 22.201,11.473 24.874,13.576 1.447,1.137 3.422,2.068 4.39,2.068 1.138,0 4.889,4.615 10.615,13.059 4.87,7.183 9.53,14.053 10.355,15.267 0.825,1.214 4.087,5.615 7.25,9.78 3.162,4.164 5.75,7.896 5.75,8.292 0,0.395 1.268,2.38 2.818,4.411 1.55,2.03 6.121,8.092 10.157,13.471 4.035,5.379 10.53,13.074 14.431,17.1 7.459,7.696 19.775,16.62 22.938,16.62 1.026,0 4.098,1.121 6.827,2.492 3.84,1.928 7.605,2.724 16.645,3.519 6.426,0.564 12.686,1.249 13.911,1.521 2.693,0.598 16.39,-1.468 17.723,-2.673 0.522,-0.472 1.922,-0.859 3.11,-0.859 1.189,0 3.819,-1.125 5.845,-2.5 2.026,-1.375 4.375,-2.5 5.22,-2.5 2.43,0 18.296,-8.84 24.713,-13.768 3.211,-2.466 7.936,-6.404 10.5,-8.75 2.564,-2.347 6.642,-6.003 9.061,-8.124 6.467,-5.671 22.101,-26.773 22.101,-29.831 0,-0.67 0.816,-1.955 1.813,-2.858 0.997,-0.902 3.11,-4.548 4.695,-8.101 l 2.881,-6.461 9.663,0.589 c 8.896,0.542 9.829,0.423 11.751,-1.499 1.148,-1.148 2.777,-4.41 3.62,-7.249 1.715,-5.776 1.124,-7.888 -2.958,-10.563 -1.356,-0.888 -2.465,-2.576 -2.465,-3.75 0,-1.251 -1.485,-3.32 -3.588,-4.997 -4.291,-3.425 -3.4,-5.704 1.446,-3.697 4.768,1.975 27.039,-0.351 31.587,-3.299 1.13,-0.732 4.037,-1.593 6.459,-1.912 2.421,-0.32 5.666,-1.514 7.209,-2.655 1.543,-1.141 3.709,-2.075 4.812,-2.075 1.103,0 3.623,-1.42 5.599,-3.156 3.585,-3.147 7.073,-5.337 13.226,-8.304 1.788,-0.862 3.25,-1.993 3.25,-2.514 0,-1.965 4.271,-4.814 8.145,-5.433 2.545,-0.407 6.1,-0.049 9.688,0.975 3.117,0.89 8.142,2.309 11.167,3.153 3.025,0.844 7.3,2.119 9.5,2.832 2.2,0.714 6.015,1.613 8.478,1.999 2.463,0.385 5.464,1.347 6.669,2.136 1.685,1.104 4.808,1.34 13.522,1.019 13.173,-0.485 19.069,-1.671 22.134,-4.451 1.208,-1.097 3.434,-2.286 4.947,-2.644 3.357,-0.794 3.517,-3.115 0.464,-6.743 -4.106,-4.879 -7.957,-6.016 -23.619,-6.974 -21.995,-1.346 -36.075,-4.836 -36.905,-9.147 -0.279,-1.448 0.405,-1.746 3.987,-1.733 2.378,0.008 6.348,0.726 8.823,1.596 2.475,0.871 12.15,2.627 21.5,3.903 28.938,3.951 45.984,7.611 65.5,14.065 4.125,1.364 8.956,2.868 10.735,3.342 1.78,0.474 5.056,1.811 7.281,2.97 2.225,1.16 4.877,2.109 5.892,2.109 1.016,0 2.383,0.646 3.039,1.436 0.655,0.789 2.505,1.724 4.111,2.077 1.605,0.352 3.169,1.045 3.474,1.539 0.306,0.494 4.023,2.498 8.262,4.453 4.238,1.955 8.381,4.002 9.206,4.55 0.825,0.547 3.394,1.896 5.709,2.998 2.314,1.102 4.483,2.448 4.818,2.991 0.335,0.542 2.041,1.667 3.791,2.498 4.581,2.176 7.41,3.902 9.504,5.797 1.009,0.913 2.208,1.661 2.662,1.661 0.455,0 2.302,1.125 4.105,2.5 1.803,1.375 3.688,2.5 4.189,2.5 0.502,0 1.769,0.948 2.817,2.106 1.048,1.159 3.48,2.926 5.405,3.927 3.709,1.928 18.67,13.659 20.999,16.466 0.759,0.915 1.7,3.764 2.09,6.332 1.718,11.293 2.908,16.242 4.796,19.945 2.41,4.723 11.784,15.224 13.59,15.224 0.701,0 1.537,-1.31 1.857,-2.911 0.45,-2.248 1.291,-3.067 3.692,-3.594 4.949,-1.087 6.976,1.471 6.976,8.802 0,7.553 3.131,18.211 6.732,22.914 6.644,8.678 13.719,11.745 18.171,7.877 1.322,-1.148 2.794,-2.088 3.271,-2.088 0.478,0 1.353,-1.063 1.945,-2.362 0.908,-1.993 0.496,-3.438 -2.641,-9.25 -2.045,-3.788 -6.75,-10.938 -10.456,-15.888 -3.706,-4.95 -9.049,-12.57 -11.873,-16.933 -2.824,-4.364 -9.863,-12.819 -15.642,-18.791 -5.779,-5.971 -10.507,-11.308 -10.507,-11.859 0,-1.872 -7.958,-11.403 -11.988,-14.359 -2.207,-1.618 -4.012,-3.274 -4.012,-3.681 0,-0.407 -3.55,-3.241 -7.888,-6.298 -4.339,-3.058 -10.839,-8.151 -14.446,-11.319 -10.39,-9.126 -17.36,-14.512 -20.479,-15.824 -1.588,-0.667 -3.165,-1.936 -3.504,-2.818 -0.338,-0.883 -2.581,-2.621 -4.983,-3.862 -2.402,-1.241 -6.861,-3.922 -9.91,-5.957 -3.048,-2.036 -7.51,-4.66 -9.916,-5.83 -2.406,-1.17 -5.049,-2.526 -5.874,-3.012 -10.601,-6.246 -33.062,-15.427 -52.5,-21.461 -8.25,-2.56 -15.675,-4.876 -16.5,-5.146 -0.825,-0.27 -5.325,-1.305 -10,-2.3 -4.675,-0.995 -12.1,-2.728 -16.5,-3.851 -14.433,-3.685 -34.233,-8.199 -35.967,-8.199 -3.803,0 -0.502,-2.593 4.976,-3.909 5.23,-1.256 7.03,-1.214 16.615,0.385 17.357,2.895 35.596,0.426 38.143,-5.163 1.025,-2.25 0.764,-2.8 -2.818,-5.932 -7.353,-6.428 -10.804,-8.189 -19.449,-9.924 -6.616,-1.328 -10.717,-1.541 -18.5,-0.962 -5.5,0.409 -11.8,0.739 -14,0.735 -2.2,-0.005 -9.11,0.697 -15.355,1.559 -12.394,1.712 -13.703,1.447 -16,-3.236 -0.745,-1.519 -2.207,-3.615 -3.25,-4.658 -1.042,-1.042 -1.895,-2.301 -1.895,-2.796 0,-1.023 -6.549,-5.099 -8.192,-5.099 -0.593,0 -2.118,-1.012 -3.387,-2.25 -5.203,-5.071 -6.192,-5.693 -10.953,-6.892 -2.733,-0.688 -5.966,-2.128 -7.185,-3.198 -1.359,-1.194 -4.263,-2.137 -7.5,-2.438 -2.906,-0.27 -6.408,-1.267 -7.783,-2.214 -1.375,-0.948 -3.625,-1.986 -5,-2.307 -1.375,-0.321 -5.65,-1.315 -9.5,-2.21 -6.274,-1.457 -15.826,-1.595 -22.892,-0.33 -1.041,0.187 -2.063,-0.138 -2.271,-0.722 -0.208,-0.584 2.106,-1.844 5.143,-2.801 5.48,-1.727 6.612,-3.146 4.333,-5.425 -0.915,-0.915 -0.695,-1.71 0.965,-3.477 1.424,-1.516 2.379,-4.219 2.822,-7.991997 0.604,-5.138 0.416,-6.034 -1.906,-9.078 -3.199,-4.194 -9.419,-5.44 -15.941,-3.193 -3.751,1.292 -4.376,1.274 -5.981,-0.179 -0.985,-0.892 -2.429,-3.768 -3.208,-6.39 -0.779,-2.623 -2.969,-7.196 -4.866,-10.162 -1.898,-2.967 -4.354,-7.437 -5.459,-9.935 -2.346,-5.303 -27.078,-30.866 -34.239,-35.388 -2.475,-1.564 -6.075,-4.032 -8,-5.485 -11.157,-8.4230004 -36.054,-18.22000043 -46,-18.10200043 -1.925,0.023 -5.3,0.093 -7.5,0.155 -2.2,0.062 -6.925,-0.093 -10.5,-0.344 -5.067,-0.357 -7.933,0.047 -13,1.83200003"
     stroke="none"
     fill="#000000"
     fill-rule="evenodd"
     id="path2" />
</svg>
