<?xml version="1.0" standalone="no"?>
<!DOCTYPE svg PUBLIC "-//W3C//DTD SVG 20010904//EN"
 "http://www.w3.org/TR/2001/REC-SVG-20010904/DTD/svg10.dtd">
<svg version="1.0" xmlns="http://www.w3.org/2000/svg"
 width="693.000000pt" height="1536.000000pt" viewBox="0 0 693.000000 1536.000000"
 preserveAspectRatio="xMidYMid meet">
<metadata>
Created by potrace 1.16, written by Peter Selinger 2001-2019
</metadata>
<g transform="translate(0.000000,1536.000000) scale(0.100000,-0.100000)"
fill="#000000" stroke="none">
<path d="M3061 15349 c-150 -9 -199 -17 -356 -61 -397 -110 -978 -386 -1415
-673 -428 -280 -714 -590 -919 -995 -142 -279 -217 -513 -306 -957 l-57 -278
-5 -300 c-8 -441 8 -583 103 -876 92 -289 210 -537 364 -766 123 -184 128
-189 139 -177 6 5 24 50 41 99 50 140 132 264 301 450 187 207 492 572 693
830 157 202 170 215 207 215 54 0 52 -45 -7 -130 -20 -29 -74 -101 -121 -159
-203 -254 -403 -585 -647 -1071 -227 -450 -347 -712 -333 -727 2 -2 53 28 112
67 l107 71 -6 -45 c-27 -178 -46 -566 -28 -566 14 0 39 37 97 145 26 50 59
106 74 125 l25 34 7 -34 c4 -19 15 -111 24 -205 23 -237 41 -385 49 -393 11
-10 35 27 116 174 41 74 77 131 81 127 12 -13 118 -364 125 -412 3 -25 1 -73
-4 -106 -6 -33 -8 -62 -5 -65 3 -3 34 26 70 63 35 38 66 67 68 65 2 -2 35 -89
73 -193 95 -259 90 -247 104 -239 7 4 28 19 46 32 41 31 52 27 151 -62 40 -36
80 -66 87 -66 16 0 21 -20 28 -114 9 -109 30 -112 80 -10 l28 57 68 -68 67
-67 199 101 c223 112 353 185 434 243 l55 39 27 -33 c57 -67 76 -125 87 -253
18 -207 34 -819 81 -3035 76 -3594 108 -4779 136 -4985 19 -142 28 -165 64
-165 32 0 32 1 50 175 37 373 52 884 115 3975 79 3872 92 4208 161 4277 47 47
134 24 279 -73 112 -75 291 -182 385 -229 82 -41 68 -45 167 48 l51 50 26 -56
c49 -103 73 -100 82 9 7 94 12 114 28 114 7 0 47 30 87 66 102 92 108 94 161
55 l43 -32 19 43 c11 24 48 121 82 217 35 96 66 176 69 179 3 3 22 -14 43 -39
63 -75 83 -92 93 -82 5 5 16 70 24 144 8 74 19 157 24 184 16 75 65 245 71
245 3 0 45 -68 94 -150 79 -132 106 -169 106 -142 0 4 4 34 10 67 5 33 19 162
30 287 12 125 25 240 29 255 7 27 9 25 52 -50 101 -177 135 -231 147 -235 9
-3 12 16 12 72 0 64 -18 320 -34 479 -3 29 -1 47 6 47 5 0 49 -28 97 -63 102
-75 141 -100 146 -95 10 10 -361 758 -560 1128 -121 226 -239 405 -471 716
-62 84 -122 169 -133 190 -26 48 -28 89 -5 80 9 -3 26 -9 39 -12 24 -6 92 -87
240 -284 175 -233 294 -373 541 -635 185 -196 251 -277 370 -458 59 -89 110
-157 117 -155 28 10 195 272 278 438 103 206 163 376 233 656 52 208 59 291
53 647 -5 347 -5 340 -93 740 -84 381 -151 584 -275 828 -117 230 -226 386
-388 553 -179 184 -375 334 -729 560 -463 295 -689 407 -998 497 -141 41 -453
105 -576 118 -110 12 -604 12 -807 0z"/>
</g>
</svg>
