<?xml version="1.0" standalone="no"?>
<!DOCTYPE svg PUBLIC "-//W3C//DTD SVG 20010904//EN"
 "http://www.w3.org/TR/2001/REC-SVG-20010904/DTD/svg10.dtd">
<svg version="1.0" xmlns="http://www.w3.org/2000/svg"
 width="1761.000000pt" height="988.000000pt" viewBox="0 0 1761.000000 988.000000"
 preserveAspectRatio="xMidYMid meet">
<metadata>
Created by potrace 1.16, written by Peter Selinger 2001-2019
</metadata>
<g transform="translate(0.000000,988.000000) scale(0.100000,-0.100000)"
fill="#000000" stroke="none">
<path d="M1613 9865 c-51 -22 -120 -92 -170 -173 l-47 -75 -75 82 c-61 66 -78
80 -88 70 -33 -34 -5 -198 78 -455 70 -219 74 -257 27 -309 -34 -39 -72 -61
-213 -120 -127 -54 -156 -77 -307 -237 -73 -79 -244 -255 -379 -393 -261 -265
-342 -356 -399 -445 -32 -50 -35 -61 -34 -126 1 -123 69 -225 188 -280 97 -44
171 -58 322 -58 l142 -1 143 72 c82 40 168 76 199 82 30 5 136 15 235 21 99 6
196 15 216 19 l36 8 31 -76 c39 -95 92 -181 272 -441 187 -270 243 -367 311
-536 68 -170 103 -237 170 -326 83 -111 161 -162 426 -279 169 -74 525 -257
613 -314 126 -82 165 -147 181 -298 6 -60 6 -278 -2 -627 -13 -640 -9 -709 47
-822 39 -77 248 -246 403 -325 l74 -38 211 0 211 0 46 27 c51 30 87 72 121
142 28 58 24 61 -81 71 -42 4 -79 9 -83 12 -5 2 1 22 12 44 l20 39 -139 0
-140 0 20 67 c27 96 27 96 -33 72 -61 -24 -144 -27 -185 -6 -105 55 -140 181
-150 547 -6 230 -6 235 13 220 51 -40 85 -110 113 -232 27 -120 58 -166 133
-201 62 -28 100 -37 223 -47 87 -7 95 -6 233 33 l143 41 30 61 c16 33 67 105
114 160 121 142 135 174 135 300 0 93 -2 106 -33 169 l-33 69 -29 -132 c-22
-100 -32 -129 -39 -119 -38 51 -112 138 -118 138 -3 0 -36 -33 -72 -72 l-66
-73 0 65 0 64 -40 -39 c-33 -32 -40 -46 -40 -78 l0 -38 -146 -70 c-80 -39
-147 -69 -149 -67 -5 7 -136 820 -133 832 4 18 882 -152 1193 -230 l230 -58
230 -6 229 -5 23 -94 c60 -252 124 -430 291 -806 208 -472 273 -699 316 -1117
36 -344 51 -1161 22 -1217 -54 -103 -488 -336 -1069 -572 -239 -97 -280 -122
-472 -294 -126 -112 -160 -137 -319 -231 -162 -96 -219 -142 -295 -238 -64
-80 -66 -89 -19 -96 l37 -5 -39 -90 c-22 -49 -40 -93 -40 -97 0 -4 15 -8 34
-8 33 0 33 -1 40 -52 3 -29 6 -82 7 -118 0 -36 4 -74 8 -85 7 -16 9 -14 14 13
6 32 7 32 66 32 62 0 269 66 718 228 221 80 215 76 466 313 250 236 288 260
765 486 728 344 1004 516 1078 671 14 30 16 53 10 141 -15 237 -45 382 -206
996 -44 166 -88 374 -112 530 -20 127 -22 178 -23 535 0 336 3 407 17 475 59
278 80 391 85 478 5 82 9 97 23 97 9 0 61 -22 116 -48 145 -71 166 -77 231
-62 67 15 116 59 157 144 24 48 32 57 50 52 11 -3 80 -14 152 -25 196 -30 228
-45 326 -152 105 -114 156 -141 274 -147 71 -4 89 -1 129 18 126 61 263 333
339 672 24 107 35 177 51 331 l6 57 80 0 c187 0 511 -32 774 -76 344 -57 677
-141 1370 -344 819 -240 1100 -313 1485 -385 516 -96 910 -120 1795 -112 568
5 610 8 834 63 236 58 474 146 716 264 283 138 476 271 635 437 382 398 664
917 695 1282 l8 83 -43 -22 c-60 -31 -130 -104 -235 -245 -48 -66 -120 -163
-159 -215 -431 -579 -905 -862 -1601 -955 -356 -48 -1095 -19 -1685 65 -930
133 -1689 365 -3060 934 -701 291 -1182 578 -1884 1120 -244 189 -354 269
-466 341 -460 294 -876 451 -1332 501 -203 22 -1124 15 -1273 -9 -154 -26
-346 -75 -500 -127 -258 -88 -407 -152 -995 -428 -419 -196 -622 -271 -865
-318 -73 -15 -144 -18 -375 -19 -271 0 -288 1 -344 22 -94 36 -164 82 -245
163 -101 100 -180 218 -302 451 -56 107 -125 237 -155 290 -110 198 -121 244
-134 606 -11 321 -29 417 -96 523 -59 95 -162 134 -251 95z"/>
</g>
</svg>
