<?xml version="1.0" standalone="no"?>
<!DOCTYPE svg PUBLIC "-//W3C//DTD SVG 20010904//EN"
 "http://www.w3.org/TR/2001/REC-SVG-20010904/DTD/svg10.dtd">
<svg version="1.0" xmlns="http://www.w3.org/2000/svg"
 width="3657.000000pt" height="2530.000000pt" viewBox="0 0 3657.000000 2530.000000"
 preserveAspectRatio="xMidYMid meet">
<metadata>
Created by potrace 1.16, written by Peter Selinger 2001-2019
</metadata>
<g transform="translate(0.000000,2530.000000) scale(0.100000,-0.100000)"
fill="#000000" stroke="none">
<path d="M21116 25278 c-8 -13 -42 -102 -74 -198 -33 -96 -107 -312 -165 -480
-59 -168 -267 -813 -462 -1435 -792 -2512 -1168 -3707 -1270 -4035 -109 -349
-135 -416 -186 -481 -42 -54 -97 -175 -110 -244 -14 -70 -21 -81 -56 -90 -19
-4 -46 4 -101 32 l-75 38 -141 -2 c-123 -1 -151 -4 -220 -27 -44 -15 -156 -45
-250 -67 -185 -44 -1120 -233 -1356 -275 -80 -14 -239 -47 -355 -74 -403 -93
-1379 -341 -1594 -405 -240 -71 -867 -252 -1381 -398 -184 -52 -411 -111 -505
-130 -93 -20 -260 -56 -370 -81 -255 -58 -363 -66 -940 -73 -490 -6 -495 -5
-941 57 -239 34 -859 157 -1009 200 -55 16 -140 38 -190 50 -103 25 -404 114
-680 202 -159 50 -227 79 -420 175 -402 202 -1117 584 -1247 666 -29 19 -210
124 -403 234 -398 228 -358 204 -930 550 -236 142 -506 301 -600 353 -249 136
-593 328 -810 450 -388 219 -522 285 -765 378 -320 122 -555 199 -875 287
-458 125 -487 131 -800 167 -263 30 -317 33 -575 32 -299 0 -377 -7 -720 -60
-91 -14 -188 -34 -217 -44 -61 -21 -213 -123 -264 -177 -47 -50 -67 -99 -48
-118 12 -11 38 -9 159 11 128 22 169 24 355 21 l210 -3 194 -62 c106 -35 216
-75 245 -89 129 -65 513 -315 768 -501 136 -99 246 -209 662 -662 187 -203
224 -250 385 -485 298 -433 503 -744 568 -860 33 -60 173 -297 310 -525 211
-353 260 -443 328 -600 113 -261 643 -1321 827 -1655 882 -1594 813 -1476
1031 -1788 101 -144 255 -365 343 -492 87 -126 300 -410 473 -630 290 -368
519 -668 631 -826 25 -35 134 -174 243 -309 155 -190 297 -348 637 -705 241
-253 482 -514 537 -580 54 -66 179 -214 277 -330 179 -211 256 -317 423 -585
183 -294 189 -307 437 -938 238 -608 334 -888 481 -1412 60 -210 97 -329 147
-459 l39 -104 -45 -226 c-25 -124 -48 -248 -51 -276 -10 -72 -35 -168 -115
-439 l-70 -238 0 -157 c0 -215 12 -316 45 -380 50 -99 192 -297 373 -520 100
-124 227 -291 283 -373 78 -114 121 -166 191 -230 99 -90 130 -130 184 -239
91 -184 312 -520 416 -635 125 -136 470 -449 605 -547 64 -47 178 -100 543
-257 157 -66 319 -141 360 -165 117 -68 175 -91 305 -120 94 -21 139 -26 206
-23 85 4 87 5 285 101 109 53 205 97 212 97 23 0 127 57 180 99 58 46 129 139
168 217 20 42 27 76 35 180 6 71 7 165 4 209 -6 74 -11 89 -67 190 -34 61 -93
161 -131 223 -65 105 -76 118 -167 187 -167 126 -289 200 -455 275 -235 106
-298 129 -404 151 -53 11 -112 24 -131 31 -36 11 -265 163 -490 324 -149 106
-411 324 -405 334 7 12 350 193 440 233 68 30 545 187 568 187 4 0 49 16 100
36 171 67 315 57 797 -56 1072 -252 1516 -356 1661 -390 175 -42 541 -118 721
-150 95 -17 126 -18 277 -9 l171 9 217 -141 c356 -230 400 -264 524 -407 61
-69 114 -133 119 -142 8 -14 -85 -69 -603 -356 -337 -186 -747 -407 -912 -491
-220 -113 -309 -163 -336 -191 -36 -38 -200 -305 -273 -445 l-40 -77 0 -128
c1 -179 36 -346 95 -446 50 -85 159 -244 207 -304 40 -49 168 -137 266 -183
66 -31 70 -32 174 -26 65 3 147 15 207 31 55 14 237 55 405 91 397 87 591 136
682 175 40 17 123 43 183 57 61 14 133 38 160 53 28 15 84 38 125 50 41 12
106 38 143 58 75 39 89 53 304 312 162 196 324 359 383 388 25 12 119 40 210
62 189 47 234 63 384 138 96 47 126 69 240 174 155 143 298 263 385 322 71 49
127 119 181 226 77 154 96 227 171 640 l71 395 46 60 c54 72 87 142 137 293
20 62 43 118 50 126 7 7 68 44 135 82 105 58 133 80 196 149 40 44 90 103 111
130 21 28 210 257 420 510 357 430 399 478 660 734 l278 275 171 101 c93 56
188 108 210 115 21 7 289 100 594 207 305 107 625 219 710 249 88 30 306 91
505 139 237 58 449 118 655 185 445 144 613 196 725 224 119 30 515 156 815
259 374 129 888 351 1340 577 645 323 1233 626 1675 863 620 333 1923 1093
2565 1497 300 189 752 467 1005 620 253 152 624 376 825 497 201 121 491 285
645 366 283 148 633 356 779 464 171 125 276 253 306 373 23 88 23 95 1 115
-18 15 -43 20 -133 24 -137 7 -218 1 -473 -37 -110 -16 -288 -40 -396 -53
l-195 -23 -845 12 c-464 6 -1499 18 -2299 27 l-1455 16 -345 35 c-1013 101
-1138 118 -1740 234 -140 27 -313 60 -385 74 -71 14 -204 39 -295 55 -157 29
-633 135 -750 167 -95 27 -566 179 -1065 345 -373 124 -506 172 -595 218 -603
306 -923 479 -1020 549 -246 178 -349 262 -595 483 -143 129 -299 265 -345
304 -47 38 -208 175 -359 305 -151 129 -364 308 -475 398 -110 90 -261 219
-336 286 -74 68 -151 137 -170 153 -28 25 -692 512 -1235 907 -283 205 -999
745 -1267 953 -314 245 -334 257 -469 277 -77 11 -86 53 -35 171 28 66 33 143
16 235 -9 48 -7 60 26 154 20 55 170 580 334 1166 235 841 1069 3727 1485
5140 67 229 73 268 44 321 -13 26 -45 24 -63 -3z"/>
</g>
</svg>
