<?xml version="1.0" encoding="UTF-8" standalone="no"?>
<!-- Generator: Adobe Illustrator 24.0.0, SVG Export Plug-In . SVG Version: 6.00 Build 0)  -->

<svg
   version="1.1"
   id="Layer_1"
   x="0px"
   y="0px"
   viewBox="0 0 444.33444 878.32013"
   xml:space="preserve"
   width="444.33444"
   height="878.32013"
   xmlns="http://www.w3.org/2000/svg"
   xmlns:svg="http://www.w3.org/2000/svg"><defs
   id="defs13" />
<style
   type="text/css"
   id="style2">
	.st0{stroke:#000000;stroke-width:0.5;stroke-miterlimit:10;}
</style>
<g
   id="g8"
   transform="translate(-93.891357,-53.991888)">
	<path
   class="st0"
   d="m 187.71,70.07 c 0.19,-0.14 0.41,-0.24 0.61,-0.37 l 0.22,-1.01 c -0.28,0.46 -0.56,0.92 -0.83,1.38 z"
   id="path4" />
	<path
   class="st0"
   d="m 527.68,879.23 c -15.84,-26.14 -27.55,-54.12 -41.85,-80.96 -2.08,-3.9 -4.6,-8.1 -9.09,-9.63 -3.35,-8.81 -5.7,-17.96 -5.95,-27.27 -0.27,-9.91 0.61,-19.53 -1.38,-29.28 -0.26,-1.3 -0.55,-2.66 -0.07,-3.91 0.33,-0.85 0.99,-1.56 1.54,-2.31 2.39,-3.25 2.77,-7.42 1.98,-11.25 -0.79,-3.83 -2.65,-7.4 -4.49,-10.92 -13.59,-26.01 -21.73,-55.67 -30.76,-83.23 -8.2,-25.02 -13.52,-50.74 -17.75,-76.55 -5.03,-30.68 -12.42,-61.59 -17.96,-92.2 -0.83,-4.58 -1.25,-10.14 2.85,-12.96 0.92,5.92 1.2,11.92 0.83,17.89 2.7,-8.14 4.74,-16.45 6.11,-24.84 4.02,4.03 6.42,9.34 6.63,14.75 3.01,-3.7 2.8,-8.68 2.78,-13.25 -0.03,-8.1 0.95,-16.21 2.92,-24.12 10.3,-41.32 5.72,-85.03 -9.28,-125.18 -11.83,-31.68 -6.51,-65.95 -20.86,-96.78 -6.7,-14.39 -17.87,-26.72 -29.84,-38.01 -7.63,-7.2 -15.37,-14.95 -21.29,-23.35 -2.49,-3.54 -4.82,-7.24 -8.23,-10.1 -2.16,-1.81 -4.68,-3.22 -6.86,-5.01 -3.13,-2.56 -5.45,-5.81 -7.76,-8.99 -8.54,-11.78 -17.66,-23.53 -29.92,-32.26 -12.24,-8.72 -24.84,-13.66 -40.41,-14.78 -7.63,-0.55 -15.36,-0.89 -22.87,0.42 -5.02,0.88 -9.84,2.49 -14.63,4.08 -8.31,2.77 -16.73,5.65 -23.76,10.48 l -0.28,1.25 c -13.64,-0.84 -27.36,-0.66 -40.97,0.54 -5.06,0.45 -10.11,1.04 -15.02,2.22 -4.03,0.97 -7.93,2.34 -11.83,3.7 -5.83,2.04 -11.75,4.13 -16.71,7.56 -4.96,3.43 -8.91,8.45 -9.3,14.07 1.86,-2.51 5.23,-3.83 8.53,-4.42 3.29,-0.6 6.69,-0.41 10.04,-0.18 6.84,0.46 13.68,1.05 20.49,1.77 10.45,1.1 21.02,2.55 30.57,6.51 9.55,3.96 18.08,10.78 21.4,19.75 1.03,2.79 1.54,5.71 2.05,8.61 2.15,12.33 4.18,25.51 -1.59,36.86 -8.73,17.15 -5.83,37.23 -4.41,56.05 0.62,8.19 1.59,16.38 3.52,24.41 1.75,7.3 4.29,14.43 6.98,21.5 2.79,7.31 5.75,14.57 9.22,21.64 10.64,21.66 26.08,41.41 45.15,57.74 9.83,8.42 17.59,17.79 27,26.59 18.09,16.91 36.32,33.99 50.05,53.94 0.88,1.27 1.79,2.6 3.21,3.38 3.67,1.99 8.66,-1.12 9.51,-4.89 0.85,-3.77 -1.12,-7.56 -3.26,-10.89 -2.87,-4.45 -6.17,-8.67 -9.86,-12.6 8.46,4.1 14.73,8.8 19.8,16.14 5.66,8.19 8.57,17.71 10.09,27.25 1.51,9.55 1.71,19.22 2.35,28.84 1.42,21.42 5.09,42.72 10.94,63.52 6.8,24.21 7.96,48.96 13.52,73.42 2.68,11.79 6.59,23.33 9.63,35.05 3.76,14.44 6.2,29.13 9.13,43.73 3.65,18.18 8.06,36.25 13.21,54.14 3.37,-8.52 5.99,-17.28 7.83,-26.17 4.02,9.99 5.11,20.65 6.62,31.18 2.11,14.78 4.23,29.57 6.34,44.35 1.86,12.97 -6.78,24.91 -9.37,37.78 -2.34,11.61 -1.82,23.67 1.51,35.08 1.54,5.29 3.67,10.42 5.92,15.51 6.46,14.62 14.08,29.15 26.03,40.64 2.73,2.62 5.91,5.18 9.85,5.78 4.29,0.65 8.71,-1.27 11.58,-4.21 2.87,-2.94 4.38,-6.76 5.24,-10.59 0.67,-2.96 0.96,-5.98 0.93,-9.01 1.48,3.29 4.13,6.4 5.98,9.72 2.98,5.36 7.4,10.27 13.34,13 5.94,2.73 13.53,2.96 19.08,-0.36 2.22,-1.33 4.03,-3.14 5.75,-4.98 4.05,-4.33 7.83,-9.1 9.23,-14.62 2.75,-10.65 -3.84,-21.19 -9.65,-30.78 z m -56.09,-79.76 c -1.07,4.84 -2.14,9.68 -3.21,14.51 -2.6,11.79 -0.59,23.24 -0.53,35.26 -4.72,-12.53 -10.02,-24.88 -15.88,-37.02 -3.7,-7.67 -9.31,-13.66 -13.86,-20.95 -5.37,-8.61 -5.96,-18.86 -6.93,-28.69 -1.26,-12.75 -3.36,-25.44 -6.28,-37.96 5.8,10.49 11.65,21.36 13.42,32.86 -1.46,-16.06 -2.98,-32.12 -4.65,-48.17 10.4,18.65 16.7,39.15 18.42,59.96 0.88,-12.98 1.7,-25.96 2.45,-38.95 2.55,6.65 5.1,13.3 7.64,19.95 1.71,4.46 3.43,8.95 4.17,13.62 0.63,3.91 0.57,7.88 1.21,11.78 0.59,3.52 1.74,6.95 2.95,10.34 0.86,2.41 1.75,4.85 1.85,7.38 0.11,2.04 -0.33,4.07 -0.77,6.08 z"
   id="path6" />
</g>
</svg>
