<?xml version="1.0" standalone="no"?>
<!DOCTYPE svg PUBLIC "-//W3C//DTD SVG 20010904//EN"
 "http://www.w3.org/TR/2001/REC-SVG-20010904/DTD/svg10.dtd">
<svg version="1.0" xmlns="http://www.w3.org/2000/svg"
 width="1536.000000pt" height="1097.000000pt" viewBox="0 0 1536.000000 1097.000000"
 preserveAspectRatio="xMidYMid meet">
<metadata>
Created by potrace 1.16, written by Peter Selinger 2001-2019
</metadata>
<g transform="translate(0.000000,1097.000000) scale(0.100000,-0.100000)"
fill="#000000" stroke="none">
<path d="M3245 10963 c-11 -3 -63 -25 -115 -48 -101 -45 -189 -68 -175 -44 6
9 3 11 -9 6 -9 -4 -44 -14 -78 -23 -34 -8 -75 -22 -91 -30 -16 -9 -41 -14 -55
-13 -15 2 -34 -1 -42 -6 -8 -5 -27 -8 -42 -6 -16 1 -42 -8 -65 -23 -41 -28
-69 -33 -76 -13 -3 9 -7 9 -20 -1 -9 -8 -29 -15 -44 -17 -15 -2 -41 -7 -58
-10 -28 -6 -29 -5 -11 9 33 27 12 27 -27 0 -20 -13 -37 -32 -37 -40 0 -8 -4
-12 -10 -9 -18 11 -11 35 18 61 23 21 24 24 7 22 -11 -1 -25 1 -32 5 -8 5 -17
0 -25 -13 -7 -11 -18 -20 -25 -20 -16 0 -17 12 -1 28 20 20 1 24 -28 5 -26
-17 -28 -17 -21 0 12 32 -9 17 -26 -18 -16 -34 -45 -51 -33 -20 3 8 1 15 -5
15 -7 0 -9 11 -5 28 5 20 4 23 -4 12 -5 -8 -10 -22 -10 -31 0 -8 -7 -24 -15
-35 -15 -18 -16 -16 -13 24 4 47 1 50 -18 25 -13 -17 -13 -17 -14 0 0 9 -5 17
-11 17 -11 0 -9 -17 6 -67 11 -35 -11 -28 -24 7 -11 33 -22 37 -41 15 -17 -20
-30 -19 -30 3 0 14 -2 15 -10 2 -5 -8 -10 -28 -10 -44 0 -24 -2 -27 -15 -16
-12 10 -15 10 -15 -4 0 -18 -11 -21 -25 -7 -6 6 -17 4 -30 -5 -16 -12 -18 -18
-7 -34 10 -17 10 -20 -4 -20 -8 0 -12 -5 -9 -11 4 -6 -2 -13 -14 -16 -16 -4
-19 -9 -11 -23 18 -33 11 -44 -12 -24 -13 10 -17 12 -10 4 17 -19 15 -33 -3
-26 -23 9 -18 -6 13 -32 l27 -23 -29 6 c-26 6 -28 4 -16 -10 17 -20 5 -32 -15
-15 -11 9 -15 9 -15 1 0 -6 7 -14 15 -17 8 -4 15 -13 15 -22 0 -13 -3 -12 -20
3 -27 24 -26 7 2 -22 12 -13 17 -23 11 -23 -6 0 -16 7 -23 15 -7 8 -18 15 -24
15 -6 -1 9 -18 34 -40 50 -45 51 -62 0 -25 -19 14 -36 25 -38 25 -2 0 8 -21
23 -46 l27 -46 -23 7 c-23 6 -23 5 4 -17 32 -28 36 -43 7 -28 -13 7 -20 7 -20
1 0 -6 9 -15 20 -21 11 -6 20 -17 20 -26 0 -8 6 -14 13 -13 6 1 19 0 27 -4 8
-3 22 -7 30 -10 10 -3 7 -8 -12 -15 -37 -15 -48 -39 -32 -70 11 -22 11 -29 -2
-43 -8 -9 -12 -23 -9 -31 4 -9 -1 -18 -9 -21 -9 -4 -16 -13 -16 -21 0 -10 6
-13 15 -10 21 9 19 2 -15 -41 -30 -37 -39 -65 -21 -65 5 0 13 9 16 20 7 23 52
56 62 46 4 -3 -3 -16 -15 -29 -27 -29 -56 -97 -41 -97 6 0 25 16 42 35 17 19
38 35 46 35 10 0 3 -13 -21 -37 -43 -45 -64 -83 -47 -83 6 0 8 -7 4 -17 -4
-12 4 -8 23 10 17 17 38 27 49 25 15 -3 11 -10 -24 -45 -41 -41 -53 -63 -34
-63 5 0 13 9 16 20 3 11 11 20 17 20 6 0 7 -7 2 -17 -5 -10 -9 -57 -10 -104
-1 -48 -5 -92 -8 -98 -4 -6 -4 -20 -1 -31 5 -15 -10 -43 -58 -108 -77 -103
-110 -168 -126 -240 -31 -146 7 -330 74 -360 77 -35 148 -2 252 117 43 49 80
88 84 85 14 -8 -7 -69 -28 -78 -22 -11 -49 -46 -34 -46 6 0 13 5 16 10 8 13
45 13 45 0 0 -6 -14 -19 -31 -28 -17 -9 -41 -25 -53 -34 -21 -17 -20 -17 12
-7 18 6 40 8 50 4 15 -5 14 -8 -8 -25 -32 -25 -17 -26 24 -1 21 12 38 16 51
11 17 -7 13 -11 -28 -30 -26 -12 -45 -26 -41 -31 4 -7 10 -7 17 0 6 6 27 11
47 11 l35 0 -25 -20 c-21 -16 -22 -20 -7 -20 11 0 15 -5 11 -11 -7 -11 -87 -8
-144 6 -23 6 -22 4 5 -11 18 -11 55 -19 94 -20 58 -3 93 -15 79 -29 -3 -3 -52
1 -108 10 -114 17 -145 14 -53 -5 70 -15 163 -39 163 -44 0 -1 -37 -1 -82 2
-70 4 -81 2 -70 -9 8 -9 44 -15 100 -17 91 -4 125 -16 78 -28 -27 -6 -132 2
-164 13 -13 5 -14 3 -6 -6 7 -7 40 -16 75 -21 73 -9 99 -18 99 -32 0 -6 -12
-8 -30 -5 -16 4 -32 2 -35 -3 -4 -6 9 -10 29 -10 44 0 66 -9 66 -26 0 -10 12
-14 39 -14 23 0 44 -6 52 -16 11 -13 9 -15 -12 -10 -32 8 -93 11 -149 7 -76
-4 -17 -17 108 -24 123 -7 169 -20 110 -31 -19 -3 -58 -2 -87 4 -66 12 -95 12
-66 0 11 -5 14 -9 8 -9 -7 -1 -13 -4 -13 -8 0 -5 28 -7 62 -5 35 2 74 -1 88
-7 23 -9 22 -10 -15 -11 -36 -1 -38 -2 -16 -11 13 -5 32 -7 42 -4 10 3 44 7
76 9 32 2 67 7 77 11 14 6 17 5 12 -3 -4 -7 -15 -12 -25 -12 -9 0 -26 -6 -37
-14 -16 -13 -11 -13 41 0 71 16 98 18 90 4 -9 -14 1 -12 36 6 17 8 38 14 47
12 14 -3 12 -7 -9 -21 -28 -19 -112 -37 -170 -37 -78 0 -45 -18 46 -25 104 -8
129 -25 38 -25 -32 0 -65 -5 -73 -10 -11 -8 4 -10 52 -9 43 2 73 -2 83 -11 11
-9 37 -11 101 -6 60 5 84 4 79 -3 -3 -6 -32 -11 -63 -12 -31 0 -66 -5 -77 -10
-22 -10 120 -5 165 6 19 5 22 4 10 -4 -12 -8 -8 -11 20 -11 19 0 51 -3 71 -6
l36 -6 -5 -88 c-5 -97 3 -154 19 -129 6 10 9 5 9 -19 0 -18 5 -41 12 -51 9
-15 7 -30 -10 -77 -20 -55 -21 -85 -2 -54 18 29 21 1 3 -30 -43 -75 -52 -94
-47 -99 3 -3 10 2 15 12 6 9 16 17 23 17 8 0 13 6 12 13 0 6 4 13 9 15 17 4
18 -49 1 -67 -29 -32 -56 -106 -55 -151 l1 -45 10 45 c15 68 28 97 37 81 7
-11 9 -11 13 0 3 8 8 12 11 9 3 -3 -6 -32 -20 -65 -14 -33 -28 -82 -32 -109
-4 -27 -14 -54 -22 -60 -16 -12 -14 -86 2 -86 6 0 16 15 24 34 13 30 35 57 35
42 0 -3 -15 -40 -34 -83 -19 -43 -38 -91 -42 -108 -6 -29 -6 -29 31 13 21 24
39 41 42 38 6 -6 -22 -60 -67 -126 -54 -82 -58 -88 -36 -71 10 8 26 31 36 52
18 33 50 60 50 40 0 -5 -22 -43 -50 -85 -27 -42 -50 -79 -50 -83 0 -3 29 22
64 55 82 79 102 81 28 3 -52 -55 -100 -121 -88 -121 3 0 24 25 47 55 23 31 50
60 61 66 34 18 19 -11 -34 -67 -28 -30 -49 -57 -46 -60 6 -6 33 19 46 43 12
20 72 28 72 9 0 -18 -26 -39 -88 -71 -58 -29 -65 -42 -13 -24 47 17 56 0 24
-46 l-27 -39 53 38 c28 21 54 36 57 33 8 -8 -104 -102 -150 -125 -42 -21 -68
-52 -44 -52 6 0 33 14 60 31 27 17 52 28 56 25 4 -4 0 -11 -8 -16 -8 -5 -24
-15 -34 -23 -18 -13 -16 -14 15 -9 49 6 27 -11 -48 -38 -41 -15 -68 -31 -79
-49 -10 -14 -23 -30 -31 -34 -7 -4 -13 -19 -13 -32 0 -13 -8 -28 -17 -34 -10
-5 -15 -12 -12 -15 3 -3 26 10 52 30 30 23 54 34 69 32 19 -3 14 -9 -35 -37
-31 -18 -63 -41 -70 -50 -6 -10 -21 -23 -32 -29 -17 -10 -12 -11 25 -6 42 5
44 4 26 -10 -11 -9 -30 -16 -43 -16 -13 0 -23 -4 -23 -9 0 -5 -9 -11 -20 -14
-11 -3 -20 -11 -20 -17 0 -7 7 -10 16 -6 43 17 64 18 64 4 0 -25 -37 -51 -65
-46 -15 3 -25 1 -25 -7 0 -6 -14 -24 -30 -40 -17 -16 -28 -35 -25 -43 3 -8 -6
-22 -19 -33 -31 -24 -55 -81 -37 -87 8 -3 -3 -20 -30 -48 -50 -51 -45 -73 6
-24 19 18 38 30 42 26 5 -4 -20 -33 -54 -64 -59 -54 -103 -113 -103 -138 0 -7
-15 -35 -34 -62 -19 -28 -42 -73 -52 -99 -9 -26 -24 -56 -32 -65 -12 -14 -12
-18 -2 -18 9 0 4 -11 -12 -27 -33 -36 -63 -83 -52 -83 4 0 -4 -12 -18 -27 -32
-34 -68 -93 -68 -111 0 -8 12 1 26 18 15 17 29 29 32 26 3 -3 -16 -30 -42 -60
-65 -77 -123 -181 -81 -146 11 9 15 9 15 1 0 -21 -20 -51 -34 -51 -16 0 -60
-96 -51 -111 4 -5 -5 -23 -19 -40 -14 -17 -26 -37 -26 -44 0 -8 -6 -18 -13
-22 -8 -4 -22 -20 -32 -36 -17 -27 -17 -27 7 -27 13 0 40 14 61 31 72 59 24 0
-69 -86 -52 -48 -92 -90 -89 -93 3 -3 11 0 17 6 23 23 27 11 7 -22 -23 -40
-49 -65 -49 -47 0 6 -5 11 -10 11 -6 0 -8 -10 -4 -24 4 -19 -2 -30 -35 -56
-45 -37 -58 -60 -39 -71 9 -6 2 -17 -27 -41 -59 -47 -103 -96 -121 -131 -9
-18 -37 -51 -63 -74 -25 -23 -40 -42 -33 -43 21 0 13 -26 -13 -38 -14 -6 -25
-18 -25 -26 0 -9 -15 -32 -32 -52 -23 -26 -33 -48 -35 -77 -2 -22 -10 -45 -19
-51 -8 -7 -14 -16 -12 -21 1 -6 -7 -26 -20 -46 -12 -20 -25 -52 -28 -70 -4
-19 -13 -39 -21 -46 -9 -7 -13 -19 -10 -27 3 -8 -1 -20 -9 -27 -19 -15 -94
-159 -94 -180 0 -9 -9 -24 -20 -34 -12 -11 -18 -26 -15 -36 4 -12 -1 -18 -19
-23 -20 -5 -26 -14 -32 -51 -4 -28 -11 -45 -20 -45 -8 0 -14 -9 -14 -20 0 -13
-9 -22 -25 -26 -14 -3 -22 -10 -19 -15 3 -5 -4 -9 -15 -9 -23 0 -28 -15 -8
-23 6 -3 3 -6 -8 -6 -27 -1 -163 34 -210 53 -25 11 -42 13 -50 6 -7 -6 -15 -6
-22 1 -15 15 -83 -10 -83 -29 0 -8 -6 -12 -15 -8 -8 3 -15 1 -15 -5 0 -6 -9
-9 -19 -7 -22 3 -61 -28 -61 -49 0 -10 -6 -12 -20 -8 -16 5 -20 2 -20 -16 0
-47 -240 -249 -297 -249 -34 0 -76 -24 -107 -60 -34 -41 -33 -54 9 -79 26 -15
35 -27 35 -46 0 -45 28 -75 69 -75 45 0 108 29 140 64 32 35 46 33 46 -6 0
-29 4 -34 40 -47 36 -12 45 -12 75 2 19 8 52 20 72 27 20 6 56 25 79 42 23 17
68 42 98 55 31 14 64 32 73 40 14 13 32 13 120 4 58 -6 121 -7 145 -2 49 10
111 45 173 98 37 31 108 73 125 73 2 0 -1 -15 -6 -32 -12 -44 -12 -45 11 -68
12 -12 33 -20 51 -20 33 0 119 47 119 66 0 6 20 75 45 153 25 78 45 153 45
165 0 13 6 29 14 35 10 8 13 24 9 49 -3 27 -2 33 6 22 15 -22 29 23 37 127 7
94 22 136 54 153 13 7 20 21 20 40 0 17 5 30 10 30 6 0 10 -7 10 -15 0 -26 14
-16 48 33 18 26 49 65 68 87 l36 40 -6 -35 c-4 -28 1 -21 26 32 17 36 38 69
47 71 9 3 24 8 33 12 15 6 18 2 19 -21 1 -17 3 -22 6 -12 7 26 59 78 78 78 12
0 15 5 10 20 -8 25 11 94 30 110 12 10 16 8 24 -11 9 -21 10 -19 10 19 1 23 6
42 11 42 6 0 10 10 10 23 0 46 17 50 24 4 4 -24 14 -53 22 -63 15 -18 15 -18
9 1 -20 63 -17 165 6 165 6 0 6 -7 -1 -21 -10 -17 -8 -21 8 -26 12 -3 28 -24
41 -55 26 -63 35 -59 16 7 -22 72 -18 174 6 159 5 -3 9 -18 9 -35 0 -24 4 -29
25 -29 30 0 32 11 5 35 -11 10 -20 22 -20 27 0 17 25 7 46 -19 32 -41 38 -23
7 20 -20 28 -24 40 -15 49 8 8 14 5 21 -15 13 -34 26 -35 26 -2 0 14 -6 25
-13 25 -15 0 -12 32 3 36 6 1 24 -16 40 -38 17 -23 36 -44 44 -46 8 -3 2 11
-12 30 -15 19 -27 41 -27 49 1 10 4 9 14 -4 18 -23 29 -22 16 2 -14 28 -12 41
5 35 9 -4 15 0 15 9 0 27 22 31 39 8 13 -17 22 -20 39 -14 l22 9 -25 34 c-25
34 -33 74 -16 84 5 3 12 -11 16 -31 5 -27 9 -33 16 -22 5 8 6 21 4 30 -3 9 2
22 11 30 16 13 17 11 12 -13 -4 -20 1 -33 18 -49 31 -30 42 -17 15 17 -25 31
-26 41 -8 59 12 11 19 10 43 -6 16 -11 43 -27 59 -35 l30 -15 -26 23 c-15 13
-43 36 -63 51 -39 30 -46 51 -19 61 11 5 23 -1 35 -16 l19 -23 -12 28 c-7 15
-9 30 -6 34 4 3 38 -10 77 -30 81 -43 96 -46 55 -12 -22 19 -25 24 -10 19 11
-3 7 3 -10 13 -18 11 -31 28 -33 42 -2 21 1 23 25 17 16 -3 53 -8 83 -11 l55
-5 -57 13 c-55 13 -98 39 -98 60 0 5 11 7 25 5 14 -3 25 -1 25 3 0 14 53 10
74 -6 25 -19 42 -19 49 -1 4 10 -10 19 -49 32 -30 9 -57 21 -60 25 -2 5 5 18
17 30 20 20 23 21 34 6 13 -18 30 -24 20 -7 -4 6 16 10 52 11 53 1 55 2 20 9
-41 8 -61 20 -32 20 18 0 18 1 -1 15 -19 14 -19 14 1 15 11 0 34 -8 50 -18 40
-24 65 -33 65 -24 0 5 -18 18 -40 31 -22 12 -40 26 -40 32 0 12 17 12 25 -1 3
-5 11 -10 16 -10 5 0 2 11 -7 25 -19 30 -5 33 21 5 17 -19 55 -28 55 -13 0 4
-15 22 -32 41 l-33 34 57 -7 c32 -4 70 -4 85 1 25 7 22 8 -26 15 -57 8 -107
39 -63 39 13 0 21 3 19 8 -3 4 26 7 64 7 42 0 73 5 81 13 10 10 6 12 -21 10
-26 -2 -35 1 -41 18 -7 18 -5 22 13 22 12 0 45 6 72 14 l50 13 -57 3 c-40 2
-58 7 -62 19 -9 23 2 29 24 15 11 -7 20 -8 20 -4 0 5 35 16 78 26 42 9 91 23
107 30 l30 14 -40 -4 c-32 -4 -36 -2 -20 6 18 9 17 10 -5 5 -67 -14 -100 -17
-100 -9 0 16 57 35 135 43 98 11 124 31 39 31 -32 0 -66 5 -74 10 -22 14 48
40 107 40 56 0 48 14 -16 27 -63 12 -68 35 -5 26 33 -4 45 -3 40 5 -9 15 30
39 77 48 49 9 30 24 -31 24 -74 0 -36 18 53 25 47 4 88 12 91 17 3 5 -22 7
-63 3 -65 -5 -67 -4 -38 9 35 17 128 21 155 6 11 -6 21 -6 25 -1 7 13 -16 18
-112 26 -46 4 -80 11 -77 16 3 5 19 9 35 9 17 0 28 4 25 9 -9 14 22 21 50 11
36 -14 66 -12 37 2 -30 14 -29 26 2 34 36 9 52 32 29 40 -75 23 -55 26 66 9
22 -3 10 4 -30 17 -43 14 -58 23 -45 26 48 10 37 23 -15 18 -43 -4 -49 -4 -25
4 17 5 66 13 110 18 l80 9 -90 2 c-75 1 -87 4 -70 14 11 6 56 11 103 11 l82 0
-47 18 c-32 12 -62 16 -88 13 -22 -3 -53 -2 -70 3 -28 8 -26 9 28 16 32 4 93
5 135 2 75 -5 76 -5 37 9 -22 7 -76 14 -120 14 -56 1 -75 4 -65 11 8 5 32 10
53 10 23 0 36 4 32 10 -8 14 29 12 97 -4 31 -8 59 -11 62 -8 14 13 4 22 -24
22 -16 0 -30 4 -30 8 0 5 -12 15 -27 22 -18 8 -23 14 -14 18 7 2 35 -6 62 -18
27 -13 52 -20 56 -17 4 4 -4 21 -16 38 -13 17 -21 33 -18 35 3 3 25 -5 48 -17
38 -19 42 -19 29 -4 -8 10 -40 29 -70 42 -60 27 -100 59 -100 81 0 8 20 -2 51
-27 29 -23 57 -41 63 -41 6 1 -2 12 -19 25 -16 13 -27 27 -23 30 9 10 54 -12
94 -47 26 -23 34 -27 26 -12 -6 11 -38 40 -72 65 -105 75 -97 68 -79 69 9 0
28 -9 43 -21 16 -13 33 -18 44 -14 14 5 11 9 -15 20 -37 16 -45 30 -12 22 20
-5 19 -3 -6 23 -15 15 -25 36 -23 46 3 15 9 11 33 -21 46 -60 101 -115 116
-115 8 0 0 11 -18 25 -37 30 -76 90 -70 108 2 7 19 -3 43 -28 37 -37 84 -70
84 -58 0 2 -9 18 -21 35 -23 32 -19 49 8 27 15 -12 16 -12 10 4 -4 10 -7 27
-7 37 0 10 -9 20 -21 23 -13 4 -19 12 -18 24 2 10 0 24 -4 31 -12 18 13 15 35
-5 21 -19 23 -8 3 27 -20 35 -20 57 0 40 8 -7 15 -19 15 -26 0 -17 16 -19 25
-3 5 6 12 4 21 -8 14 -16 14 -15 8 17 -3 19 -17 68 -31 108 -14 41 -23 76 -20
78 3 3 15 -11 27 -31 12 -20 25 -34 27 -31 3 3 -4 18 -15 34 -24 32 -65 132
-58 139 2 3 21 -11 43 -29 48 -43 108 -88 116 -88 4 0 7 7 7 15 0 8 -6 12 -14
9 -9 -4 -21 6 -31 27 -11 21 -20 28 -24 20 -8 -13 -26 10 -49 62 -15 34 -15
40 -2 32 18 -11 11 5 -17 41 -16 18 -33 34 -39 34 -17 0 -25 27 -15 52 8 21 9
20 37 -19 16 -23 49 -74 73 -112 49 -78 70 -90 26 -16 -15 26 -25 48 -23 51 2
2 21 -10 41 -27 20 -17 37 -27 37 -22 -1 4 -21 24 -46 43 -56 43 -128 129
-155 184 -19 38 -15 36 48 -32 67 -72 109 -101 58 -41 -14 17 -24 36 -22 42 8
24 27 15 63 -30 42 -53 63 -73 77 -73 5 0 -3 12 -18 27 -31 32 -59 82 -50 91
3 3 17 -7 30 -23 13 -17 24 -25 25 -18 0 6 -4 15 -10 18 -5 3 -10 11 -10 17 0
6 30 -18 66 -52 62 -57 110 -87 122 -75 3 3 -2 13 -11 23 -19 21 -22 32 -7 32
6 0 26 -22 46 -50 20 -27 40 -50 45 -50 9 0 -6 32 -29 62 -8 9 -12 27 -10 40
3 21 6 19 34 -22 18 -25 45 -56 60 -70 20 -17 23 -18 11 -4 -9 11 -17 29 -17
39 0 17 2 16 24 -4 17 -16 25 -19 28 -9 4 10 8 10 23 -2 17 -13 18 -13 10 0
-4 8 -15 23 -23 33 -35 40 5 12 71 -50 40 -37 66 -61 60 -53 -7 8 -13 18 -13
22 0 14 54 -4 83 -29 16 -12 34 -23 41 -23 8 0 23 -33 35 -77 54 -186 85 -281
106 -323 20 -40 21 -49 10 -70 -10 -18 -10 -27 -2 -32 7 -4 -7 -25 -36 -55
-26 -26 -47 -52 -47 -58 0 -5 -14 -23 -32 -38 -20 -17 -25 -26 -15 -23 12 4
17 2 15 -6 -3 -7 -16 -15 -31 -18 -28 -5 -207 -174 -207 -195 0 -7 -11 -16
-24 -19 -14 -3 -35 -20 -48 -37 -28 -37 -56 -65 -103 -102 -19 -16 -33 -33
-30 -37 3 -4 -11 -17 -30 -29 -23 -14 -33 -25 -29 -36 4 -10 0 -15 -15 -15
-12 0 -21 -4 -21 -9 0 -5 -16 -19 -36 -32 -73 -45 -224 -183 -224 -204 0 -8
-16 -19 -35 -26 -19 -7 -35 -18 -35 -24 0 -5 -16 -20 -35 -33 -19 -12 -35 -27
-35 -32 0 -6 -7 -10 -15 -10 -8 0 -15 -4 -15 -10 0 -5 6 -10 12 -10 23 0 -28
-41 -53 -43 -14 -1 -48 -20 -75 -43 -27 -23 -59 -46 -71 -53 -13 -6 -23 -17
-23 -24 0 -7 -25 -27 -56 -46 -46 -28 -175 -126 -344 -264 -19 -16 -27 -26
-17 -23 11 3 15 2 12 -4 -3 -6 -20 -10 -37 -10 -23 0 -29 -4 -24 -15 3 -8 0
-15 -7 -15 -7 0 -23 -7 -36 -16 -18 -13 -20 -18 -10 -25 10 -6 -1 -15 -36 -30
-28 -12 -45 -24 -38 -26 6 -2 26 3 43 12 53 27 45 9 -9 -22 -28 -15 -49 -33
-47 -40 3 -6 -19 -25 -49 -42 -74 -42 -79 -54 -19 -46 55 7 51 1 -27 -40 -50
-26 -81 -55 -58 -55 8 0 4 -9 -9 -23 -27 -28 -28 -38 -4 -31 9 3 0 -9 -21 -28
-34 -30 -51 -58 -27 -43 22 14 8 -19 -25 -58 -19 -22 -35 -50 -35 -63 0 -12
-7 -27 -15 -34 -11 -9 -12 -16 -5 -25 8 -9 7 -14 -3 -18 -8 -3 -30 -30 -51
-61 -20 -30 -42 -58 -48 -62 -8 -5 -5 -10 7 -14 17 -6 13 -11 -24 -35 -42 -28
-42 -29 -19 -38 22 -9 22 -9 3 -19 -21 -10 -95 -111 -95 -130 0 -14 -186 -223
-215 -242 -14 -9 -30 -16 -37 -16 -8 0 -13 -14 -14 -35 0 -25 -9 -45 -31 -68
-17 -17 -35 -41 -41 -52 -23 -46 -72 -213 -72 -247 0 -20 -18 -94 -40 -163
-48 -150 -50 -181 -15 -197 21 -9 28 -8 46 8 25 23 70 109 94 183 34 103 47 5
20 -149 -20 -112 -19 -153 4 -181 l18 -23 52 22 c54 22 56 21 63 -23 6 -36 43
-30 93 16 25 23 45 49 45 59 0 9 7 32 16 50 13 26 15 47 9 104 -9 80 -9 76 2
279 8 141 7 149 -12 161 -19 13 -18 14 18 21 21 4 42 16 48 26 5 11 16 19 23
19 28 0 33 -263 10 -471 -6 -48 -4 -57 12 -63 24 -9 62 20 86 66 28 54 46 160
52 301 3 83 9 134 18 145 30 39 226 226 261 248 20 13 37 31 37 39 0 8 12 28
28 44 50 56 72 84 72 94 0 8 157 182 206 227 9 8 35 34 59 57 23 24 47 43 54
43 13 0 66 103 76 150 11 49 44 92 67 84 17 -5 23 4 19 34 -2 11 2 11 20 2 26
-14 39 0 39 43 0 18 5 27 16 27 11 0 14 6 9 20 -7 23 13 28 21 5 4 -8 11 -15
18 -15 6 0 17 -9 24 -20 17 -28 32 -25 32 8 0 15 5 34 10 42 8 12 13 11 39 -8
17 -12 32 -22 33 -22 2 0 2 20 0 45 -3 37 -1 45 13 45 9 0 15 -6 13 -13 -2 -6
7 -23 20 -35 l25 -24 -7 38 -8 37 29 -18 c27 -17 27 -17 -4 17 -32 33 -42 58
-23 58 5 0 13 -7 18 -16 12 -22 32 -9 25 16 -7 27 6 25 47 -10 44 -38 62 -39
27 -2 -31 32 -34 47 -11 56 11 4 19 -3 27 -24 11 -28 26 -38 40 -24 3 4 -8 24
-25 45 -17 22 -28 42 -24 46 4 5 16 -3 27 -17 42 -54 58 -70 70 -70 7 0 -3 17
-22 38 -72 77 -74 98 -4 42 39 -31 66 -40 45 -15 -10 12 -7 13 22 5 18 -6 42
-10 53 -10 18 1 17 3 -7 23 -16 13 -28 29 -28 37 0 9 8 6 25 -10 14 -13 25
-20 25 -16 0 4 -19 25 -42 46 -23 22 -38 43 -35 46 4 4 27 -12 53 -35 42 -40
73 -51 44 -16 -15 18 -7 19 23 4 12 -7 -4 15 -35 49 -32 33 -58 66 -58 74 0 7
24 -13 53 -44 57 -62 100 -82 48 -23 -56 64 -33 68 27 6 32 -34 64 -61 72 -61
11 1 10 5 -5 16 -17 13 -18 16 -5 24 22 14 26 13 38 -12 8 -18 11 -19 11 -6 1
9 -3 20 -9 23 -5 3 -10 13 -10 22 0 14 3 13 25 -1 14 -9 30 -14 36 -10 15 9
68 -56 69 -83 0 -13 6 -23 14 -23 8 0 20 -16 26 -36 19 -56 105 -178 167 -234
32 -29 105 -86 162 -127 70 -49 115 -90 137 -121 17 -26 39 -54 49 -62 17 -14
17 -13 10 10 -6 22 -6 23 8 10 8 -8 26 -35 40 -60 13 -24 30 -46 37 -48 9 -3
9 1 0 18 -6 12 -10 24 -7 26 8 8 37 -8 31 -17 -8 -14 27 -67 45 -68 44 -2 54
-7 71 -40 10 -20 28 -45 41 -56 l23 -20 -18 28 c-9 16 -16 36 -14 45 2 11 18
-7 45 -50 43 -68 67 -84 104 -73 15 5 25 1 37 -17 9 -12 14 -24 12 -26 -5 -4
40 -31 52 -32 4 0 5 7 1 16 -5 14 -3 15 18 4 27 -15 86 -61 131 -103 23 -21
33 -25 43 -17 9 8 15 8 20 0 4 -6 39 -27 78 -46 79 -40 109 -62 101 -75 -3 -5
9 -6 26 -3 19 4 30 2 30 -5 0 -6 -6 -11 -12 -12 -7 -1 5 -5 27 -10 36 -9 54
-23 55 -41 0 -5 -7 -8 -15 -8 -8 0 -15 -4 -15 -10 0 -5 6 -10 13 -10 9 0 8 -3
-2 -9 -8 -5 -28 -5 -48 1 -25 7 -45 5 -76 -6 -23 -8 -60 -18 -82 -21 -22 -4
-54 -15 -71 -25 -18 -10 -42 -16 -57 -13 -14 3 -41 0 -60 -6 -19 -7 -100 -14
-181 -16 -80 -2 -151 -7 -156 -10 -5 -3 -26 -2 -46 4 -36 10 -94 5 -94 -8 0
-3 -98 -5 -218 -4 -208 3 -220 2 -237 -17 -10 -11 -24 -20 -32 -20 -7 0 -13
-5 -13 -10 0 -6 -28 -24 -63 -40 -34 -17 -87 -51 -117 -76 -30 -25 -95 -66
-144 -92 -50 -26 -109 -57 -133 -70 -24 -13 -50 -34 -59 -48 -16 -23 -15 -26
10 -59 15 -19 31 -35 36 -35 6 0 21 -18 36 -41 32 -52 98 -83 153 -74 29 5 48
1 77 -14 54 -29 98 -36 133 -20 22 10 29 19 25 31 -6 20 6 24 22 8 7 -7 29 0
69 25 32 19 67 37 77 41 10 3 16 10 13 15 -4 5 10 9 29 9 19 0 47 5 61 12 19
9 38 8 82 -2 43 -11 58 -11 61 -2 2 6 21 -24 43 -67 21 -43 46 -85 55 -92 24
-20 122 -17 164 5 19 11 53 34 76 52 23 19 49 34 58 34 10 0 50 11 89 24 40
14 134 36 210 51 76 14 164 37 195 51 38 17 88 28 147 34 50 5 144 14 210 20
127 12 401 62 469 86 22 8 83 22 135 30 109 17 121 23 176 78 l40 41 115 -1
c81 0 128 -6 158 -17 24 -9 65 -19 92 -23 28 -4 50 -11 50 -15 0 -5 11 -7 24
-3 13 3 46 -2 72 -11 40 -14 72 -16 174 -11 132 6 305 7 405 1 33 -2 50 -1 38
2 -13 2 -23 11 -23 20 0 10 6 13 18 8 9 -3 48 -15 87 -26 73 -20 203 -27 175
-9 -20 13 -8 13 87 -1 43 -7 83 -16 90 -21 17 -13 63 1 56 18 -4 11 13 14 95
14 l99 0 -9 -43 c-6 -23 -16 -55 -24 -70 -8 -16 -14 -36 -14 -46 0 -10 -18
-41 -40 -71 -22 -29 -43 -63 -46 -74 -21 -64 -174 -168 -430 -291 -91 -43 -93
-44 -157 -137 -36 -51 -78 -120 -95 -153 -30 -60 -153 -297 -204 -393 -40 -74
-90 -203 -84 -218 2 -6 20 -15 38 -19 69 -14 69 -14 62 -50 -13 -69 44 -158
86 -135 13 7 21 7 25 -1 5 -7 15 -4 29 9 11 10 29 22 38 25 18 6 58 81 96 177
13 30 34 69 47 85 l25 30 -6 -40 c-3 -22 -15 -71 -25 -110 -21 -77 -25 -156
-9 -186 17 -30 103 -27 136 6 14 14 29 25 34 25 6 0 9 8 8 17 -3 40 3 64 20
81 12 12 22 47 30 101 6 45 22 104 34 129 l22 47 7 -77 c10 -116 17 -145 45
-178 24 -28 27 -29 47 -15 12 8 29 15 38 15 23 0 66 52 74 90 4 16 1 46 -5 65
-9 28 -9 39 4 57 11 16 16 46 16 103 0 75 2 84 28 112 15 17 65 49 112 72 47
23 92 49 101 57 8 7 47 29 86 48 104 51 159 111 222 244 17 34 37 62 45 62 9
0 12 7 9 20 -3 11 -1 20 4 20 5 0 33 -54 62 -120 95 -214 197 -374 310 -485
28 -27 51 -55 51 -62 0 -21 207 -151 355 -223 303 -148 577 -211 985 -225 384
-13 1002 -67 1398 -120 109 -15 269 -56 437 -112 44 -15 89 -27 100 -27 11 -1
20 -8 20 -16 0 -11 17 -18 58 -24 44 -7 57 -13 55 -25 -2 -12 5 -15 29 -14 25
2 31 0 27 -12 -5 -12 2 -15 34 -15 40 0 64 -14 40 -23 -7 -2 7 -13 32 -23 80
-32 279 -133 337 -170 32 -20 62 -37 69 -38 7 -1 38 -19 69 -39 32 -20 63 -37
71 -37 7 0 28 -13 46 -29 43 -37 76 -54 89 -45 6 4 14 2 18 -4 10 -17 160
-112 177 -112 8 0 17 -7 20 -15 4 -9 13 -13 24 -10 12 4 19 -1 24 -17 5 -19 8
-20 15 -8 8 12 13 12 29 -4 15 -13 22 -14 27 -5 6 8 22 -4 51 -37 32 -36 46
-46 52 -36 7 10 18 6 48 -14 49 -33 97 -54 125 -54 13 0 31 -8 41 -17 18 -16
18 -16 12 0 -11 30 20 21 101 -27 l30 -18 -28 25 -29 24 65 -12 c58 -11 65
-10 59 3 -4 12 0 14 16 9 12 -4 32 -10 44 -14 15 -4 19 -3 14 5 -11 18 10 14
54 -8 22 -11 40 -16 40 -11 0 5 -7 11 -15 15 -29 11 -15 25 20 19 36 -6 36 -6
25 23 -6 16 -16 34 -21 41 -6 7 -8 17 -5 22 4 6 -7 17 -24 26 -35 18 -42 42
-7 25 19 -9 20 -9 3 2 -35 24 -96 81 -96 90 0 5 5 6 10 3 6 -3 10 -4 10 -2 0
2 -18 16 -40 31 -22 14 -40 32 -40 38 0 6 11 1 25 -12 14 -13 27 -21 31 -18 3
3 -22 27 -55 52 -34 26 -66 56 -71 66 -10 18 -8 19 15 10 41 -16 29 -5 -50 45
-91 57 -103 72 -34 45 28 -12 53 -19 56 -17 2 3 -16 13 -41 23 -24 10 -42 22
-40 26 2 3 -26 21 -62 38 -36 17 -64 33 -61 36 3 3 15 1 26 -6 12 -6 21 -8 21
-5 0 3 -47 28 -104 54 -57 27 -106 54 -110 59 -4 6 23 -3 60 -19 36 -17 68
-28 71 -25 3 2 -61 37 -142 76 -80 40 -149 78 -152 86 -3 8 -68 44 -144 81
-77 36 -137 68 -134 71 3 3 -34 22 -82 42 -49 20 -137 59 -197 86 -91 40 -106
49 -85 55 19 5 14 7 -26 13 -27 4 -67 9 -87 12 -23 4 -45 15 -56 29 -18 23
-93 45 -152 45 -19 0 -30 5 -30 14 0 17 -25 24 -139 35 -111 12 -154 30 -71
31 39 0 51 3 40 10 -8 5 -32 10 -52 10 -43 0 -63 19 -21 21 l28 1 -30 8 c-16
4 -55 8 -85 9 -73 2 -104 21 -35 21 36 0 46 3 35 10 -8 5 -49 10 -90 10 -102
0 -150 9 -150 28 0 13 -23 14 -170 10 -94 -3 -173 -1 -176 3 -3 5 34 9 83 10
48 0 108 4 133 9 30 6 -14 8 -135 5 -128 -3 -169 -1 -141 6 62 15 57 22 -11
16 -63 -7 -93 -2 -93 14 0 5 12 10 28 11 30 1 -88 13 -248 23 -68 5 -119 4
-145 -3 -27 -8 -41 -8 -46 -1 -3 6 -17 7 -32 4 -15 -4 -35 -4 -44 -1 -15 6
-15 8 -3 16 11 7 8 10 -13 10 -16 0 -26 -4 -22 -10 4 -6 -12 -10 -42 -10 -36
0 -53 -5 -66 -20 -13 -15 -29 -20 -69 -20 -38 0 -49 3 -38 10 8 5 25 10 37 10
12 0 24 4 27 9 9 14 -122 22 -189 12 -33 -5 -64 -5 -69 -1 -8 8 24 16 94 23
19 2 -6 5 -56 5 -49 1 -141 -5 -204 -13 -62 -8 -115 -13 -117 -11 -2 2 39 12
91 21 53 10 96 21 96 25 0 3 -48 0 -106 -8 -98 -13 -127 -12 -111 5 4 3 32 8
63 11 37 3 51 8 42 13 -7 5 -65 6 -129 3 -78 -5 -122 -3 -135 4 -16 10 -12 11
26 12 25 0 52 5 60 10 15 10 -59 14 -267 15 -45 0 -85 3 -89 8 -7 6 77 13 134
9 13 0 20 3 16 9 -3 6 -25 9 -48 8 -22 -1 -48 1 -56 4 -8 3 -48 8 -88 10 -71
5 -90 13 -122 50 -9 10 -41 22 -77 28 -34 6 -67 17 -73 24 -8 9 -4 11 15 7 47
-9 25 6 -41 28 -54 18 -69 28 -77 51 -6 15 -21 32 -34 38 -39 18 -160 115
-133 106 20 -6 18 -3 -10 17 -19 13 -36 34 -38 46 -3 18 -8 21 -23 17 -27 -9
-52 13 -45 40 4 16 -5 32 -35 61 -68 65 -142 154 -129 154 7 0 27 -16 46 -35
46 -49 50 -44 10 12 -18 27 -37 59 -40 73 -7 24 -7 25 10 5 16 -20 16 -20 9 4
-5 16 -4 21 4 17 6 -4 11 -3 11 2 0 15 -53 116 -67 127 -22 18 -34 64 -23 86
6 11 8 24 5 30 -4 5 7 31 24 57 16 26 39 70 51 97 23 52 73 308 85 432 7 67 6
71 -20 97 -21 21 -49 32 -115 46 -115 26 -115 25 -117 62 -1 17 -10 53 -19 80
-8 26 -13 54 -10 61 3 7 7 3 11 -11 4 -12 11 -22 16 -22 10 0 2 22 -22 65 -26
47 -32 84 -14 91 8 4 15 16 15 28 1 20 1 20 15 -4 24 -41 17 -1 -15 90 -17 46
-30 98 -30 115 1 28 1 29 15 11 15 -20 15 -20 15 0 0 10 -9 56 -20 102 -22 91
-25 142 -10 142 6 0 10 -6 10 -14 0 -8 4 -17 9 -21 5 -3 1 25 -10 62 -23 80
-24 119 -5 130 12 7 12 19 2 73 -8 41 -11 139 -9 268 3 221 -12 343 -61 510
-17 61 -20 82 -11 78 14 -5 -36 125 -57 152 -8 9 -6 12 6 12 21 0 21 1 -13 68
-16 31 -36 75 -45 97 -17 44 -18 44 37 -27 17 -23 15 -17 -34 110 -5 13 -9 33
-9 45 1 21 1 22 15 3 8 -11 17 -18 19 -15 9 8 -19 79 -32 81 -10 2 -9 8 6 23
19 20 19 21 -4 86 -16 48 -19 70 -11 78 7 7 5 37 -8 105 -15 76 -16 100 -7
121 16 36 15 71 -4 122 -15 40 -16 45 -1 61 14 16 15 23 3 64 -21 68 -31 162
-17 154 16 -10 14 10 -5 46 -12 24 -14 36 -6 49 13 21 6 48 -37 146 -33 75
-38 99 -20 87 17 -10 1 32 -32 84 -31 50 -43 105 -14 66 8 -10 15 -14 15 -8 0
5 -11 25 -25 44 -27 36 -34 66 -12 54 6 -5 -1 9 -16 29 -24 31 -26 41 -16 53
10 12 8 20 -10 42 -11 15 -26 37 -33 50 -6 12 -17 22 -25 22 -7 0 -13 5 -13
10 0 6 9 10 20 10 11 0 20 4 20 9 0 14 -39 61 -108 132 -35 37 -59 69 -54 73
6 3 35 -20 65 -51 31 -32 58 -55 61 -52 5 5 -4 19 -51 79 -13 15 -23 35 -23
43 0 20 -90 118 -168 182 -34 27 -59 51 -57 53 2 3 31 -14 65 -37 33 -23 60
-38 60 -34 0 17 -78 104 -137 155 -68 58 -68 81 0 27 66 -51 74 -55 47 -25
-14 15 -44 39 -67 53 -24 14 -43 30 -43 37 0 6 -20 29 -45 49 -46 39 -58 61
-27 50 13 -5 12 -1 -5 19 -26 28 -31 47 -8 28 9 -7 18 -11 20 -8 8 7 -70 66
-123 93 -26 13 -57 33 -67 45 -10 11 -43 34 -72 51 -29 17 -55 34 -58 40 -8
11 40 -6 68 -26 18 -13 22 -12 33 3 17 22 17 42 0 42 -7 0 -24 8 -37 18 -13
10 -42 24 -65 30 -46 13 -91 52 -60 52 9 0 35 -9 56 -20 61 -31 48 -15 -27 32
-36 23 -61 44 -55 46 6 2 22 -4 34 -12 12 -9 29 -16 36 -16 8 0 -27 27 -77 60
-50 33 -91 62 -91 65 0 10 43 -6 74 -28 16 -12 26 -15 22 -9 -4 7 -31 26 -59
43 -36 20 -43 28 -24 23 39 -9 33 2 -14 26 -33 17 -38 24 -29 35 19 23 -9 65
-67 105 -29 19 -52 40 -53 46 0 5 -28 31 -62 56 -35 26 -76 61 -93 78 l-30 33
30 -6 c28 -5 29 -4 10 10 -11 8 -56 33 -100 55 -89 46 -88 60 1 29 43 -15 54
-16 39 -5 -27 20 -139 54 -180 54 -21 0 -35 6 -39 16 -5 13 -1 15 21 9 27 -6
27 -6 8 10 -19 16 -19 16 10 11 17 -3 41 -9 55 -12 22 -7 24 -6 11 9 -8 10
-28 17 -48 17 -30 0 -103 23 -103 33 0 2 15 2 33 0 29 -3 30 -2 9 7 -13 5 -21
14 -18 19 4 5 -26 15 -65 21 -40 7 -73 18 -76 25 -2 8 -18 18 -34 24 -49 17
-33 31 39 33 l67 1 -55 6 c-30 4 -71 14 -90 23 -19 8 -65 19 -102 23 -105 10
-99 29 7 22 70 -4 85 -3 70 6 -11 7 -57 12 -101 12 -53 0 -87 5 -98 14 -23 20
-20 28 12 25 99 -11 125 -11 110 -3 -8 5 -52 13 -97 18 -48 5 -92 16 -109 27
-20 14 -54 19 -137 24 -65 3 -109 9 -108 15 2 6 20 11 40 13 21 2 43 8 48 14
7 7 -12 8 -64 3 -51 -4 -71 -3 -66 4 3 6 21 11 38 12 57 1 1 17 -88 25 -44 4
-72 9 -62 11 9 3 17 8 17 12 0 4 -26 3 -58 -3 -64 -10 -108 -2 -82 14 11 7 5
10 -22 10 -77 0 -94 27 -20 32 l47 3 -37 12 c-30 9 -53 8 -124 -8 -49 -11
-106 -19 -129 -17 l-40 3 45 13 c25 7 69 20 99 28 29 8 51 18 48 20 -3 3 -39
-4 -79 -15 -91 -26 -100 -26 -68 -1 l25 20 -27 0 c-29 0 -38 14 -15 23 37 15
-68 4 -121 -13 -82 -26 -109 -24 -52 2 37 18 41 22 23 25 -12 2 -44 -7 -72
-21 -28 -14 -56 -26 -63 -26 -7 1 4 10 25 21 50 26 40 37 -13 15 -47 -19 -90
-22 -52 -4 33 16 27 28 -10 17 -41 -11 -103 -12 -74 0 35 14 2 20 -42 8 -31
-8 -45 -8 -50 0 -8 11 -100 10 -142 -3 -23 -7 -24 -6 -10 11 14 17 13 18 -24
12 -23 -4 -45 -2 -52 4 -9 7 -22 5 -44 -6 -31 -16 -33 -16 -47 4 -13 19 -23
21 -91 20 -42 -1 -102 -2 -133 -1 -52 2 -57 4 -63 27 -4 15 -24 36 -49 51 -61
38 -87 65 -87 88 0 15 -15 29 -50 48 -39 22 -50 33 -50 52 0 23 -40 66 -62 66
-5 0 -22 15 -38 34 -18 19 -54 43 -88 56 -75 30 -122 59 -122 74 0 28 -38 47
-106 52 -105 8 -114 11 -114 38 0 18 -14 30 -70 59 -38 20 -91 39 -117 43 -27
3 -56 14 -67 23 -13 12 -44 17 -124 19 -83 3 -111 8 -129 22 -13 10 -40 21
-60 25 -21 4 -47 12 -58 18 -11 7 -49 13 -85 13 -82 2 -200 19 -248 36 l-37
13 45 6 45 6 -46 1 c-26 1 -84 -5 -129 -14 -77 -14 -132 -13 -82 1 12 4 22 12
22 17 0 8 -18 5 -57 -9 -7 -3 -13 2 -13 11 0 16 -9 18 -45 9z m5914 -5608 c17
5 20 -5 31 -97 11 -95 28 -159 30 -118 2 34 18 -29 25 -100 4 -41 13 -82 21
-91 9 -10 15 -48 18 -104 2 -53 9 -91 15 -93 14 -5 14 -28 0 -53 -12 -23 -18
-169 -6 -169 4 0 7 -7 7 -15 0 -8 5 -15 10 -15 16 0 11 -56 -10 -112 -20 -54
-27 -128 -11 -128 4 0 2 -35 -4 -77 -11 -69 -11 -80 3 -96 13 -15 14 -20 3
-27 -11 -6 -13 -26 -7 -87 3 -43 9 -118 13 -168 3 -49 11 -93 17 -97 7 -5 3
-17 -12 -37 -20 -28 -21 -31 -4 -40 16 -9 16 -10 -1 -17 -10 -3 -30 -1 -45 7
-35 17 -153 38 -272 48 -52 4 -86 9 -75 11 11 2 32 2 48 1 20 -2 27 2 27 15 0
15 -8 16 -68 10 -73 -7 -124 1 -86 14 14 5 7 11 -31 23 -28 9 -69 19 -92 23
-24 4 -41 10 -38 14 3 4 -21 11 -53 15 -41 5 -64 14 -84 32 -25 24 -31 25 -85
17 -93 -12 -371 -11 -366 2 7 18 -18 22 -72 14 -28 -4 -51 -7 -52 -6 -1 1 6
12 16 25 10 12 33 26 52 31 28 6 29 8 9 9 -24 1 -25 3 -22 55 l4 55 41 4 42 3
-33 8 c-36 9 -38 31 -4 30 17 0 19 2 10 13 -20 24 2 27 27 3 31 -29 33 -15 3
17 -12 13 -20 25 -17 27 2 2 29 -2 59 -10 74 -19 83 -19 71 5 -6 10 -25 24
-42 30 -17 6 -28 15 -24 21 3 5 -1 10 -9 10 -19 0 -21 23 -3 38 10 9 22 4 48
-17 40 -33 73 -51 91 -51 7 1 -4 10 -24 20 -20 11 -39 29 -43 40 -4 11 -10 18
-15 15 -20 -12 -19 17 1 45 23 30 23 30 41 10 10 -11 22 -20 25 -20 3 0 -1 8
-10 18 -20 22 -21 34 -5 50 15 15 38 -3 38 -29 0 -14 7 -19 25 -19 18 0 23 4
19 15 -4 10 0 15 12 16 17 1 17 2 2 6 -11 3 -18 14 -18 27 0 12 -5 27 -12 34
-8 8 -8 15 2 27 17 20 31 19 23 -2 -4 -11 -3 -14 5 -9 7 4 12 16 12 26 0 14 5
18 17 13 12 -5 15 -2 11 9 -11 28 11 36 58 22 l45 -13 -6 32 c-7 36 10 91 25
82 5 -3 10 -17 10 -30 0 -50 18 -32 22 22 3 39 10 60 23 69 29 21 34 17 28
-21 -4 -23 -2 -35 6 -35 6 0 11 15 11 33 0 39 21 82 39 82 8 0 21 -20 29 -45
l15 -45 18 82 c20 93 29 113 73 164 17 19 36 44 43 55 11 17 12 15 13 -16 1
-29 5 -22 19 36 17 69 27 90 83 170 30 43 57 136 59 199 2 64 10 80 79 141
l65 58 3 -73 c3 -65 5 -71 21 -66z m-2339 -605 c0 -17 -26 -79 -60 -145 -33
-63 -81 -174 -106 -247 -68 -194 -97 -245 -110 -193 -3 14 -9 25 -13 25 -4 0
-16 7 -27 16 -18 15 -17 15 14 10 20 -4 31 -2 27 4 -3 6 -15 10 -25 10 -11 0
-27 9 -37 19 -10 11 -32 25 -48 32 -26 11 -27 13 -10 17 15 4 11 7 -19 16 -45
13 -60 36 -24 37 22 0 22 1 4 12 -11 7 -30 22 -42 35 -11 12 -30 22 -40 23
-11 0 -13 3 -6 6 21 8 13 26 -9 20 -16 -4 -23 1 -30 22 -6 17 -24 35 -47 46
-37 18 -37 18 -12 26 14 4 19 7 12 8 -8 1 -12 8 -10 18 2 11 33 24 108 44 58
15 145 43 195 63 49 20 116 41 149 48 34 7 77 22 96 35 49 32 70 30 70 -7z
m-6220 -1951 c-36 -23 -78 -54 -95 -69 -16 -16 -47 -36 -67 -45 -34 -13 -38
-14 -38 0 0 21 69 95 89 95 9 0 36 14 61 30 29 19 58 30 80 30 l35 0 -65 -41z
m9560 -677 c3 -2 -6 -1 -20 3 -27 7 -90 68 -90 86 0 7 24 -10 53 -36 28 -27
54 -51 57 -53z m4790 -1544 c10 -6 7 -7 -10 -2 -14 3 -32 11 -40 16 -10 6 -7
7 10 2 14 -3 32 -11 40 -16z"/>
<path d="M7900 9360 c8 -5 20 -10 25 -10 6 0 3 5 -5 10 -8 5 -19 10 -25 10 -5
0 -3 -5 5 -10z"/>
<path d="M8065 9176 c17 -14 34 -26 39 -26 11 0 11 0 -34 29 l-35 23 30 -26z"/>
<path d="M13003 1503 c9 -2 23 -2 30 0 6 3 -1 5 -18 5 -16 0 -22 -2 -12 -5z"/>
</g>
</svg>
