<?xml version="1.0" standalone="no"?>
<!DOCTYPE svg PUBLIC "-//W3C//DTD SVG 20010904//EN"
 "http://www.w3.org/TR/2001/REC-SVG-20010904/DTD/svg10.dtd">
<svg version="1.0" xmlns="http://www.w3.org/2000/svg"
 width="1532.000000pt" height="1536.000000pt" viewBox="0 0 1532.000000 1536.000000"
 preserveAspectRatio="xMidYMid meet">
<metadata>
Created by potrace 1.16, written by Peter Selinger 2001-2019
</metadata>
<g transform="translate(0.000000,1536.000000) scale(0.100000,-0.100000)"
fill="#000000" stroke="none">
<path d="M13766 12733 c-30 -27 -88 -77 -129 -113 -117 -103 -174 -136 -359
-215 -371 -157 -664 -294 -753 -350 -27 -17 -75 -54 -105 -82 -62 -56 -185
-142 -275 -193 -73 -41 -278 -168 -359 -223 -77 -52 -274 -145 -401 -190 -104
-37 -157 -53 -360 -107 -257 -69 -441 -137 -609 -228 -34 -17 -90 -47 -126
-64 -87 -43 -378 -328 -408 -399 -11 -26 -32 -65 -46 -88 -14 -22 -26 -52 -26
-65 0 -14 -4 -28 -10 -31 -5 -3 -10 -13 -10 -22 0 -9 -6 -24 -13 -32 -8 -9
-22 -38 -32 -66 -18 -52 -33 -74 -150 -228 -116 -152 -402 -424 -552 -524
-187 -125 -410 -228 -678 -313 -88 -28 -195 -62 -238 -76 -86 -28 -278 -81
-432 -120 -55 -14 -176 -39 -270 -55 -312 -53 -388 -68 -670 -129 -364 -79
-666 -152 -785 -190 -52 -16 -189 -57 -305 -91 -232 -67 -215 -61 -375 -119
-63 -23 -131 -46 -150 -52 -19 -5 -50 -21 -69 -34 -20 -13 -39 -24 -43 -24
-11 0 -118 -73 -254 -172 -131 -95 -189 -152 -316 -308 -48 -58 -100 -118
-117 -134 -17 -17 -31 -34 -31 -40 0 -5 -11 -26 -24 -45 -34 -49 -94 -208
-117 -311 -10 -47 -26 -150 -34 -229 -13 -126 -13 -161 -1 -270 8 -69 17 -162
21 -206 17 -209 78 -442 245 -945 68 -207 74 -245 67 -505 -4 -126 -11 -264
-17 -305 -13 -85 -53 -248 -69 -276 -24 -45 -73 -160 -131 -309 -92 -236 -118
-283 -226 -395 -34 -36 -77 -90 -96 -121 -18 -31 -67 -101 -108 -156 -41 -55
-114 -156 -162 -224 -137 -195 -252 -317 -724 -770 -94 -90 -195 -184 -224
-209 -58 -49 -168 -120 -186 -120 -23 0 -65 -28 -119 -79 -61 -58 -85 -116
-105 -257 -5 -43 -15 -96 -21 -118 -14 -53 -14 -103 1 -121 21 -25 142 -78
189 -82 56 -6 88 15 249 162 124 113 236 209 303 257 24 18 95 75 157 127 62
51 166 134 231 185 65 50 185 145 267 212 82 66 157 125 166 130 47 26 474
465 602 619 59 70 196 266 196 280 0 3 10 22 23 43 13 20 38 73 57 117 19 44
44 96 55 115 12 19 30 56 40 82 10 26 24 53 31 59 8 6 14 15 14 20 0 12 17 49
44 94 41 69 72 138 90 200 9 33 26 87 37 120 12 33 25 79 28 102 4 23 12 48
18 55 26 32 57 610 50 933 -6 275 -12 313 -76 505 -39 115 -63 194 -80 260 -5
19 -21 73 -35 120 -14 47 -26 93 -26 102 0 9 -4 27 -9 40 -32 81 -81 411 -88
594 -5 127 5 181 47 249 46 75 339 325 380 325 7 0 29 13 50 30 118 94 710
272 1280 385 74 14 205 44 290 65 85 22 198 46 250 55 52 8 160 31 240 50 80
19 219 46 310 60 212 33 286 47 443 85 149 36 526 164 707 239 201 84 478 235
568 310 24 20 62 48 84 62 69 45 479 458 543 548 33 46 82 113 109 149 99 134
114 167 205 437 26 77 54 151 61 165 24 45 84 113 142 159 99 79 116 91 131
91 8 0 41 16 73 35 54 32 254 115 349 145 22 6 112 38 200 71 88 32 189 66
225 75 183 46 636 348 847 566 179 185 507 496 576 546 67 50 195 122 217 122
8 0 46 21 83 46 38 25 106 67 151 93 159 92 308 216 370 309 55 84 99 172 87
172 -6 0 -35 -21 -65 -47z"/>
</g>
</svg>
