<?xml version="1.0" standalone="no"?>
<!DOCTYPE svg PUBLIC "-//W3C//DTD SVG 20010904//EN"
 "http://www.w3.org/TR/2001/REC-SVG-20010904/DTD/svg10.dtd">
<svg version="1.0" xmlns="http://www.w3.org/2000/svg"
 width="1317.000000pt" height="1536.000000pt" viewBox="0 0 1317.000000 1536.000000"
 preserveAspectRatio="xMidYMid meet">
<metadata>
Created by potrace 1.16, written by Peter Selinger 2001-2019
</metadata>
<g transform="translate(0.000000,1536.000000) scale(0.100000,-0.100000)"
fill="#000000" stroke="none">
<path d="M9247 15349 c-25 -15 -65 -100 -88 -186 -61 -241 -44 -1072 27 -1261
18 -49 17 -233 -2 -252 -24 -24 -159 155 -230 304 -92 195 -119 320 -129 596
-6 182 -17 226 -50 213 -48 -18 -69 -138 -68 -378 1 -210 18 -337 58 -439 13
-34 38 -99 56 -145 107 -281 671 -893 1162 -1260 82 -62 97 -77 97 -101 0 -34
-12 -39 -110 -46 -72 -5 -87 -2 -370 80 -162 48 -330 93 -372 101 -43 8 -171
19 -285 25 -120 7 -249 20 -305 31 -53 10 -111 19 -130 19 -37 0 -72 -26 -83
-60 -13 -42 50 -179 140 -305 72 -99 113 -166 195 -318 73 -135 107 -170 217
-223 129 -61 234 -87 358 -87 97 -1 123 3 225 33 195 58 278 43 405 -73 l59
-53 -66 -81 c-114 -140 -180 -269 -208 -408 -7 -33 -34 -115 -61 -183 -27 -67
-72 -200 -100 -295 -64 -221 -128 -355 -207 -435 -62 -64 -134 -99 -342 -168
-145 -49 -463 -181 -531 -221 -85 -51 -211 -101 -344 -138 -66 -18 -137 -40
-157 -48 -20 -8 -77 -20 -127 -26 -118 -15 -225 -47 -401 -120 -80 -34 -155
-61 -168 -61 -32 0 -176 -52 -232 -83 -35 -20 -65 -27 -135 -32 -49 -4 -110
-13 -135 -20 -25 -7 -63 -16 -86 -19 -23 -3 -66 -17 -98 -31 -87 -39 -138 -40
-356 -10 -210 29 -252 29 -430 -1 -124 -21 -370 -24 -475 -6 -155 26 -393 34
-690 23 -159 -6 -319 -14 -355 -17 -36 -4 -265 -8 -510 -9 -674 -4 -787 -19
-1680 -224 -239 -55 -543 -122 -675 -150 -487 -103 -505 -109 -578 -185 l-48
-50 -93 -6 c-78 -4 -99 -9 -133 -32 -72 -47 -193 -261 -259 -454 -32 -94 -34
-165 -17 -499 11 -208 14 -233 63 -450 108 -482 204 -685 464 -983 188 -215
223 -270 269 -432 61 -210 63 -557 6 -784 -39 -153 -111 -262 -248 -376 -106
-89 -146 -113 -191 -115 -22 -1 -51 -10 -64 -19 -64 -41 -212 -294 -241 -411
-19 -75 -19 -117 0 -198 14 -63 14 -69 -16 -208 -27 -128 -31 -173 -39 -399
-9 -264 -14 -313 -57 -565 -13 -82 -28 -222 -33 -310 -6 -119 -18 -203 -44
-330 -44 -210 -70 -465 -91 -875 -23 -473 -28 -523 -66 -616 -37 -92 -47 -181
-27 -239 11 -35 17 -40 46 -43 19 -2 44 4 59 13 13 9 26 15 28 13 1 -2 12 -34
25 -73 53 -164 64 -170 310 -170 126 0 172 4 195 15 35 18 42 47 21 88 l-15
29 67 12 c102 17 141 30 153 52 13 26 -9 62 -52 84 -66 35 -71 92 -34 425 22
196 31 322 49 670 4 82 10 144 62 565 18 154 43 372 55 484 23 224 41 309 93
437 43 105 163 307 259 436 175 235 471 528 799 791 55 45 132 119 180 177 50
59 147 154 243 237 287 249 519 476 684 673 126 150 131 158 131 202 0 37 0
37 33 31 17 -3 60 -17 94 -29 151 -57 266 -76 568 -94 209 -13 304 -25 403
-52 61 -17 123 -22 302 -28 133 -5 298 -17 405 -31 149 -20 222 -24 425 -23
255 1 615 17 805 35 237 23 257 27 365 73 58 25 173 63 255 86 83 23 279 84
436 135 337 112 550 165 656 165 31 0 33 -3 52 -65 44 -143 66 -310 81 -625
14 -287 24 -365 65 -500 68 -224 174 -715 210 -975 30 -210 30 -564 1 -1015
-26 -393 -49 -651 -62 -672 -12 -18 -33 -469 -34 -695 0 -203 2 -223 18 -232
22 -12 52 4 82 41 30 39 56 35 130 -17 94 -66 143 -80 285 -80 92 0 131 4 168
18 86 34 102 92 40 152 -20 19 -40 35 -45 35 -4 0 -26 16 -48 36 -32 29 -45
52 -65 116 -71 224 -81 529 -38 1178 l7 105 9 -120 c5 -66 9 -190 8 -275 0
-103 8 -233 24 -387 14 -128 29 -303 35 -390 8 -130 14 -165 32 -202 29 -57
65 -67 102 -26 13 14 27 22 30 16 4 -5 31 -24 61 -41 72 -41 183 -61 355 -63
119 -2 140 0 182 20 52 24 78 62 78 116 0 42 -7 48 -92 82 -106 42 -154 110
-182 256 -16 83 -75 221 -111 259 -45 48 -48 69 -50 370 -1 157 -7 519 -14
805 -7 286 -11 653 -9 815 4 277 6 303 32 419 34 152 104 421 145 555 40 129
40 194 -1 378 -28 128 -32 163 -35 343 -2 110 2 274 9 365 l13 164 44 8 c121
21 329 155 492 317 177 178 293 368 385 635 36 104 41 113 116 192 94 100 134
161 154 234 42 151 89 291 123 364 48 104 296 515 373 619 90 122 104 151 169
348 61 187 101 342 113 437 4 30 20 108 36 175 81 344 107 590 120 1122 l8
340 35 125 c89 314 109 460 105 740 -3 187 -2 197 20 242 31 63 80 104 134
113 118 19 430 135 611 227 113 58 121 64 213 166 111 124 123 145 153 267 12
49 42 138 67 198 24 59 44 113 44 119 0 6 12 36 26 65 37 79 52 157 34 178
-19 23 -110 15 -240 -20 -52 -14 -140 -35 -195 -46 -283 -56 -524 -149 -690
-267 -27 -19 -45 -29 -38 -21 6 8 55 46 108 84 269 194 409 360 487 578 22 60
23 72 20 382 -1 220 -7 356 -18 435 -17 129 -46 263 -69 316 -8 20 -33 94 -54
164 -42 134 -114 276 -206 405 -50 71 -81 88 -102 59 -18 -25 -11 -54 49 -199
131 -317 150 -388 170 -650 9 -122 9 -168 -3 -250 -14 -97 -15 -100 -39 -98
-42 2 -142 55 -180 94 -19 20 -73 103 -120 185 -47 82 -94 159 -106 173 -23
27 -44 21 -44 -12 0 -31 56 -202 76 -232 9 -14 12 -25 6 -25 -19 0 -68 69 -86
122 -18 52 -106 251 -149 336 -27 53 -61 87 -78 77 -32 -20 22 -262 93 -420
106 -235 85 -209 323 -402 181 -147 277 -282 244 -345 -6 -13 -40 -61 -74
-108 -34 -47 -84 -121 -111 -165 -27 -44 -70 -101 -96 -127 l-47 -48 -99 0
c-116 0 -127 5 -196 103 -58 83 -61 100 -31 194 33 105 48 207 49 333 1 131
-22 196 -62 171 -12 -7 -72 -130 -72 -148 0 -6 -25 -94 -55 -194 -66 -217 -83
-326 -67 -418 8 -45 8 -69 1 -83 -16 -29 -2 -135 27 -221 14 -40 22 -81 20
-93 -5 -19 -10 -20 -73 -13 -262 29 -635 19 -823 -23 -163 -35 -156 -36 -163
9 -4 21 -7 50 -7 65 0 44 -39 135 -88 206 -69 101 -99 174 -136 333 -50 213
-102 366 -131 385 -19 12 -28 13 -46 4 -19 -11 -21 -18 -16 -64 4 -28 13 -116
22 -196 8 -80 19 -188 25 -240 14 -136 12 -204 -7 -251 l-16 -41 -66 4 c-36 3
-80 12 -96 21 -17 8 -102 86 -190 172 -88 86 -177 168 -197 181 -44 31 -68 77
-68 132 0 34 8 50 49 99 62 74 117 125 211 198 147 114 370 359 455 501 82
136 158 489 109 508 -9 3 -17 6 -19 6 -1 0 -10 -19 -20 -42 -25 -63 -131 -254
-183 -328 -100 -144 -200 -235 -427 -387 -178 -119 -227 -146 -241 -131 -12
12 -85 392 -115 598 -21 144 -16 501 10 658 38 234 37 249 -12 221z"/>
</g>
</svg>
