<?xml version="1.0" standalone="no"?>
<!DOCTYPE svg PUBLIC "-//W3C//DTD SVG 20010904//EN"
 "http://www.w3.org/TR/2001/REC-SVG-20010904/DTD/svg10.dtd">
<svg version="1.0" xmlns="http://www.w3.org/2000/svg"
 width="1536.000000pt" height="1068.000000pt" viewBox="0 0 1536.000000 1068.000000"
 preserveAspectRatio="xMidYMid meet">
<metadata>
Created by potrace 1.16, written by Peter Selinger 2001-2019
</metadata>
<g transform="translate(0.000000,1068.000000) scale(0.100000,-0.100000)"
fill="#000000" stroke="none">
<path d="M7475 10669 c-88 -13 -135 -32 -217 -87 -97 -65 -133 -104 -198 -213
-30 -50 -68 -101 -83 -113 -117 -90 -123 -103 -107 -243 16 -132 44 -203 90
-225 19 -10 47 -20 62 -23 32 -6 68 -66 68 -112 0 -53 -66 -171 -133 -237
-100 -99 -259 -165 -398 -166 -151 0 -355 -61 -557 -166 l-143 -74 -509 0
-508 0 -194 54 c-356 99 -379 102 -1138 115 -879 16 -1128 28 -1325 61 -145
25 -226 52 -452 154 -253 113 -475 180 -582 174 l-56 -3 1 -35 c0 -19 4 -42 8
-51 4 -10 2 -18 -6 -21 -14 -5 -119 8 -324 41 -72 11 -195 25 -275 31 -220 16
-299 1 -299 -58 0 -37 35 -70 91 -86 41 -12 36 -13 -104 -18 -160 -6 -187 -15
-187 -65 0 -63 43 -84 225 -111 l120 -18 -105 -8 c-130 -8 -168 -20 -181 -53
-22 -58 28 -85 191 -103 150 -16 165 -21 139 -47 -6 -6 -9 -26 -7 -44 3 -29 8
-36 39 -46 86 -28 424 -55 919 -73 802 -29 863 -34 1100 -91 168 -40 227 -60
414 -141 252 -109 381 -143 1166 -314 96 -21 156 -27 370 -34 222 -7 268 -11
355 -33 156 -40 266 -56 453 -69 199 -13 441 -2 652 32 287 44 505 49 552 10
21 -17 23 -26 22 -122 -1 -71 -10 -140 -28 -223 -44 -195 -46 -358 -7 -626 35
-247 40 -276 76 -379 14 -42 30 -117 35 -172 5 -53 23 -149 39 -215 43 -166
51 -242 58 -533 7 -290 -5 -446 -43 -576 -13 -45 -59 -168 -104 -273 -151
-363 -236 -607 -274 -791 -15 -77 -26 -112 -70 -237 -53 -152 -83 -359 -91
-645 -4 -106 -11 -214 -16 -240 -5 -26 -34 -107 -65 -180 -69 -165 -154 -416
-199 -592 -51 -197 -78 -540 -91 -1118 -6 -298 -20 -432 -53 -496 -11 -21 -53
-86 -95 -146 -49 -69 -83 -130 -95 -169 -11 -34 -27 -82 -36 -107 -12 -32 -15
-60 -11 -99 8 -64 17 -77 57 -86 16 -4 51 -22 79 -41 34 -23 61 -34 86 -34 26
0 46 -8 71 -30 40 -36 79 -39 117 -9 l27 21 50 -21 c87 -38 107 -18 150 155
35 142 62 202 96 210 46 12 156 -2 203 -26 45 -22 227 -142 306 -201 35 -26
51 -31 95 -31 45 0 56 4 77 27 18 21 22 34 16 59 -10 50 -64 137 -118 191 -28
28 -81 88 -118 135 -36 47 -105 128 -153 180 -114 125 -138 176 -138 289 2
146 46 317 227 866 140 427 155 482 167 605 5 58 14 119 19 135 28 92 44 132
97 255 33 74 81 188 107 253 63 152 124 258 251 431 56 78 129 184 163 236
143 224 164 257 196 295 l34 40 47 -24 c59 -30 187 -34 248 -8 21 9 44 14 53
10 23 -9 198 -281 265 -413 16 -32 33 -60 38 -62 22 -8 183 -304 206 -378 12
-38 51 -96 130 -195 84 -104 107 -146 130 -236 9 -35 21 -69 26 -75 9 -11 50
-157 74 -265 8 -37 24 -161 35 -275 11 -115 25 -228 30 -252 6 -23 42 -122 81
-220 164 -408 221 -594 223 -722 1 -95 -17 -133 -119 -255 -85 -101 -296 -397
-332 -464 -43 -81 -25 -136 49 -147 49 -8 87 11 218 110 63 48 153 106 199
129 73 36 93 42 146 41 98 -1 130 -23 170 -116 18 -42 45 -113 60 -157 37
-113 83 -140 147 -86 37 31 39 31 68 0 31 -33 69 -32 115 5 21 17 55 33 76 36
23 4 48 18 65 35 15 16 42 32 60 35 18 3 39 12 45 20 18 22 5 148 -23 230 -30
84 -60 130 -190 287 -130 156 -130 157 -145 256 -23 161 -26 219 -13 329 14
127 4 303 -36 622 -57 460 -167 927 -260 1112 -56 110 -67 181 -69 438 -2 240
-11 318 -65 545 -67 283 -169 568 -344 964 -135 302 -151 347 -167 466 -34
253 26 898 107 1160 69 224 68 216 94 620 5 88 15 197 22 243 8 63 8 109 -1
190 -11 107 -18 140 -61 328 -26 112 -23 136 28 195 21 25 31 29 78 29 30 0
111 -11 181 -25 235 -45 331 -57 655 -80 l216 -16 159 45 c345 97 385 103 553
86 174 -17 291 -13 471 15 359 56 462 85 949 264 250 93 421 141 695 196 267
54 347 61 870 80 650 24 1113 59 1175 88 34 16 40 70 11 89 -32 20 -26 26 37
33 207 22 292 44 306 81 16 41 -38 77 -133 90 -72 9 -72 20 2 28 130 13 190
46 185 99 -2 19 -13 38 -31 51 -26 19 -41 21 -180 20 l-152 -1 63 17 c77 21
102 42 102 86 0 25 -7 38 -26 50 -41 28 -318 12 -639 -35 -143 -21 -262 -37
-264 -35 -2 2 6 15 18 30 29 37 27 72 -4 86 -30 13 -117 1 -263 -38 -124 -33
-170 -51 -377 -145 -362 -164 -363 -164 -1243 -161 -661 3 -1100 -7 -1294 -28
-59 -7 -130 -26 -230 -61 -269 -95 -239 -92 -849 -96 l-536 -4 -73 46 c-39 26
-104 62 -143 80 -120 54 -345 107 -537 125 -88 8 -116 15 -176 45 -130 64
-234 179 -234 258 0 33 7 47 44 83 28 28 52 44 68 44 32 0 64 35 76 85 16 61
32 211 32 295 0 104 -18 136 -98 178 -48 26 -66 41 -77 69 -35 84 -166 243
-225 273 -126 64 -435 98 -635 69z m7553 -1516 c-10 -2 -28 -2 -40 0 -13 2 -5
4 17 4 22 1 32 -1 23 -4z"/>
</g>
</svg>
