<?xml version="1.0" standalone="no"?>
<!DOCTYPE svg PUBLIC "-//W3C//DTD SVG 20010904//EN"
 "http://www.w3.org/TR/2001/REC-SVG-20010904/DTD/svg10.dtd">
<svg version="1.0" xmlns="http://www.w3.org/2000/svg"
 width="4580.000000pt" height="3352.000000pt" viewBox="0 0 4580.000000 3352.000000"
 preserveAspectRatio="xMidYMid meet">
<metadata>
Created by potrace 1.16, written by Peter Selinger 2001-2019
</metadata>
<g transform="translate(0.000000,3352.000000) scale(0.100000,-0.100000)"
fill="#000000" stroke="none">
<path d="M36571 33493 c-14 -31 -23 -21 114 -122 60 -45 106 -81 102 -81 -4 0
-60 16 -125 35 -186 55 -238 65 -258 51 -34 -25 -10 -47 146 -130 155 -82 302
-172 565 -345 l140 -93 -211 7 -211 8 -6 -24 c-4 -13 -7 -27 -7 -31 0 -4 55
-35 122 -70 l122 -63 -154 -3 c-222 -4 -293 7 -415 66 -158 77 -161 77 -575
77 -340 0 -553 -11 -636 -34 -24 -6 -29 -13 -29 -37 0 -27 3 -29 50 -34 40 -5
45 -7 25 -13 -25 -6 -671 -77 -1065 -117 -110 -11 -218 -22 -240 -26 -61 -8
-823 -147 -1140 -207 l-280 -53 -405 92 c-223 51 -417 95 -431 98 -21 4 -29 0
-38 -20 -6 -14 -11 -27 -11 -29 0 -2 56 -34 125 -71 69 -38 121 -71 117 -74
-4 -4 -74 -21 -157 -39 -94 -21 -216 -57 -327 -98 -161 -60 -178 -68 -178 -89
0 -35 28 -44 137 -45 54 0 116 -3 138 -7 34 -7 2 -15 -230 -61 -379 -74 -589
-120 -980 -216 -474 -116 -566 -143 -825 -245 -356 -140 -326 -135 -827 -133
l-423 2 0 -24 c0 -13 -4 -26 -9 -29 -4 -3 -108 -22 -230 -42 l-221 -37 0 -29
c0 -33 -3 -32 120 -48 52 -7 103 -16 114 -20 27 -9 31 -9 -439 -75 -737 -103
-1089 -155 -1175 -174 -61 -13 -163 -54 -358 -142 -267 -120 -273 -123 -267
-148 4 -14 8 -28 10 -29 2 -2 81 3 176 12 95 8 174 14 175 13 2 -1 -153 -57
-344 -123 l-347 -121 0 -29 0 -29 65 2 65 2 -187 -64 c-135 -45 -226 -70 -323
-86 l-135 -22 0 -31 0 -32 208 -18 c114 -10 217 -20 230 -23 19 -5 3 -17 -90
-65 -62 -33 -198 -111 -303 -173 -104 -62 -239 -139 -300 -170 -169 -90 -241
-171 -215 -241 18 -47 82 -49 164 -7 l30 15 -34 -42 c-41 -52 -97 -94 -170
-128 -97 -45 -413 -163 -480 -179 -85 -20 -94 -25 -98 -57 l-3 -26 73 0 73 -1
-30 -17 c-16 -9 -72 -35 -124 -58 -111 -49 -122 -44 154 -74 105 -12 195 -22
200 -24 12 -4 -290 -101 -590 -190 -121 -37 -276 -87 -345 -112 -143 -52 -390
-171 -498 -239 -40 -25 -177 -99 -304 -165 l-231 -118 44 -6 c24 -3 93 -10
153 -16 60 -5 111 -11 113 -13 4 -5 -1212 -533 -1306 -567 -123 -45 -339 -102
-686 -180 -176 -39 -426 -98 -555 -130 -366 -91 -435 -103 -823 -144 -130 -14
-246 -30 -257 -36 -33 -18 -26 -59 13 -75 59 -25 446 -91 650 -111 37 -4 64
-10 60 -15 -12 -12 -363 -113 -494 -143 l-116 -26 -879 -1 c-858 0 -1260 -8
-1514 -28 -115 -10 -641 -39 -1615 -92 -490 -26 -1153 -36 -1365 -20 -162 12
-354 40 -1005 145 l-390 63 -170 -9 c-93 -5 -345 -7 -560 -5 -528 7 -632 20
-1172 152 -460 112 -640 140 -988 151 -448 14 -1229 -47 -1440 -113 -103 -32
-539 -258 -700 -363 -413 -269 -747 -499 -825 -569 -430 -384 -725 -674 -797
-781 -137 -206 -668 -1118 -715 -1230 -115 -273 -236 -644 -707 -2181 -362
-1181 -391 -1289 -421 -1589 -78 -773 -210 -1884 -240 -2020 -66 -299 -377
-1643 -559 -2415 -114 -484 -237 -992 -271 -1115 -55 -198 -87 -534 -205
-2170 -53 -733 -61 -817 -80 -912 -39 -185 -99 -386 -177 -598 -82 -221 -97
-248 -193 -351 -154 -167 -227 -288 -291 -484 -91 -278 -203 -873 -259 -1370
-19 -166 -19 -288 0 -396 20 -116 85 -374 134 -539 23 -74 41 -140 41 -148 0
-8 -77 -188 -171 -400 -329 -741 -414 -948 -439 -1065 -39 -178 -111 -275
-344 -464 -206 -168 -345 -292 -404 -363 -42 -50 -88 -134 -198 -357 l-144
-293 16 -117 17 -118 -31 -185 c-17 -101 -29 -186 -27 -188 2 -3 22 3 45 12
22 9 40 12 40 8 0 -4 -9 -77 -20 -162 -11 -85 -20 -160 -20 -166 0 -7 15 -8
47 -3 98 16 100 13 21 -49 -95 -76 -102 -85 -88 -111 22 -42 7 -50 570 289
245 146 512 305 593 351 225 128 283 189 353 376 40 107 91 318 109 450 25
192 44 254 158 508 43 97 117 306 152 433 10 35 21 59 25 55 18 -19 411 -1038
484 -1253 44 -131 52 -197 71 -590 32 -673 58 -898 132 -1170 14 -52 27 -127
28 -167 5 -126 66 -221 174 -271 106 -49 174 -53 901 -61 l675 -7 270 -58 270
-58 295 -4 c216 -2 342 1 470 12 258 24 301 19 435 -47 94 -46 117 -54 165
-54 47 1 67 7 114 35 32 19 80 56 107 81 l49 45 0 180 c0 138 4 189 16 224 20
55 22 152 5 203 -7 21 -46 83 -87 137 -83 112 -144 164 -461 394 -154 111
-195 146 -203 171 -17 52 -76 112 -138 141 -53 25 -71 28 -252 36 -134 7 -236
6 -325 -2 -71 -6 -167 -13 -212 -17 l-82 -6 -16 39 c-41 94 -158 467 -195 621
-22 92 -123 517 -224 943 l-185 775 9 485 c12 645 29 1067 46 1166 24 140 81
318 235 727 l149 397 638 958 638 957 189 365 c321 624 574 1087 729 1337 31
51 93 132 137 179 115 124 248 278 469 539 256 304 359 422 515 590 126 135
222 248 410 480 120 148 180 211 310 323 61 52 199 176 308 276 109 99 202
182 205 184 9 3 173 -288 279 -494 119 -229 187 -378 228 -499 44 -129 74
-191 162 -334 111 -180 355 -516 566 -780 64 -80 129 -194 426 -745 192 -358
372 -698 399 -756 606 -1293 797 -1713 861 -1893 33 -94 203 -683 276 -957 26
-96 53 -186 60 -200 14 -26 35 -522 35 -815 0 -416 53 -752 146 -938 46 -91
239 -341 1019 -1322 l231 -290 73 -165 c178 -399 366 -738 540 -970 31 -41
125 -147 210 -235 322 -335 473 -531 706 -912 l162 -267 69 -23 c38 -13 79
-28 92 -35 30 -16 75 -87 112 -183 58 -145 101 -216 175 -290 138 -137 316
-211 562 -235 79 -7 142 -22 261 -60 245 -80 336 -101 453 -107 l105 -6 208
72 208 71 52 -44 c69 -58 135 -102 193 -128 93 -43 353 -19 476 43 23 12 80
50 127 85 l86 63 39 -14 c48 -17 135 -19 190 -4 58 16 160 123 210 221 37 71
43 78 92 98 68 28 136 89 163 146 29 58 62 288 54 364 -8 64 -106 413 -134
478 -33 73 -107 178 -165 230 -85 78 -228 145 -404 192 -83 21 -201 55 -263
74 -198 62 -315 78 -521 70 l-178 -7 -132 51 c-72 27 -159 58 -193 67 -58 17
-63 16 -135 -4 -161 -45 -174 -37 -316 200 -272 455 -379 649 -571 1039 -532
1082 -876 1799 -1057 2205 -81 183 -357 1032 -385 1184 -13 71 10 201 66 381
l36 115 13 455 c35 1176 29 2182 -15 2536 -29 235 -39 408 -42 704 -3 304 -5
295 86 395 l55 60 88 -1 c105 -1 177 -19 469 -115 l212 -69 -6 -196 -5 -196
72 36 c44 23 71 31 70 24 0 -7 -6 -46 -13 -86 l-13 -73 26 6 c100 26 385 86
476 100 122 20 254 16 430 -10 171 -26 155 -15 155 -101 0 -68 2 -74 20 -74
12 0 165 27 341 61 l321 61 432 -41 c796 -76 1263 -103 1417 -82 151 20 405
33 564 28 l150 -4 145 -51 c574 -201 1523 -452 2290 -606 385 -77 437 -83 965
-106 259 -11 501 -24 539 -28 l68 -7 -138 -110 -138 -110 49 -7 c28 -3 77 -7
111 -7 56 -1 61 -3 60 -23 -2 -42 52 -56 415 -110 l344 -51 122 -100 c68 -55
122 -102 120 -103 -1 -2 -101 -15 -222 -29 -121 -14 -229 -30 -239 -34 -14 -5
17 -22 125 -66 l144 -60 -45 -7 c-25 -3 -89 -9 -142 -13 l-98 -7 1 -31 c0 -28
10 -39 72 -84 90 -66 326 -290 427 -406 99 -112 150 -203 215 -380 29 -78 90
-234 135 -347 142 -353 135 -329 196 -713 256 -1621 489 -2882 573 -3095 55
-140 130 -488 272 -1262 55 -300 107 -572 115 -605 28 -106 32 -127 68 -355
60 -374 83 -439 233 -660 133 -195 264 -352 429 -515 83 -82 159 -164 168
-181 28 -58 35 -118 56 -485 35 -647 45 -727 128 -1038 l27 -104 65 -25 c491
-185 613 -216 1120 -281 129 -17 260 -39 290 -49 48 -17 95 -20 345 -24 257
-4 296 -3 340 12 78 27 128 55 192 108 32 27 68 54 80 60 41 22 105 13 238
-34 72 -25 186 -66 255 -90 69 -24 161 -49 206 -55 80 -10 85 -10 410 57 l329
67 120 -24 c154 -31 398 -34 485 -7 119 37 176 98 211 224 27 97 68 194 83
194 6 0 42 -16 80 -35 38 -20 71 -33 73 -31 3 2 -21 80 -53 173 -65 188 -78
211 -222 356 -74 76 -101 95 -178 132 l-91 44 -40 78 c-23 43 -75 156 -118
252 -42 96 -116 239 -163 318 l-87 144 -111 55 c-100 49 -121 56 -210 66 -54
6 -101 12 -103 14 -10 8 162 204 251 287 55 51 126 129 159 174 71 98 104 126
271 231 239 151 415 304 590 514 49 59 177 192 283 295 106 104 236 236 290
296 125 140 173 174 330 238 143 58 134 50 262 223 54 72 112 169 167 276 46
91 104 201 130 245 97 168 128 281 213 765 29 169 35 232 37 360 1 182 10 157
-149 415 l-105 170 7 85 c25 272 3 409 -127 800 -198 597 -289 843 -364 984
-94 175 -159 327 -190 446 l-25 93 32 -30 c17 -16 40 -33 49 -36 23 -8 48 18
48 51 0 24 -22 128 -36 175 -4 12 29 -3 102 -48 60 -35 109 -63 111 -61 2 1
-8 29 -21 62 -47 116 -56 238 -21 304 8 14 46 61 85 105 93 104 167 209 182
257 6 21 14 38 17 38 4 0 19 -25 34 -55 26 -53 27 -54 56 -44 26 9 29 14 25
47 -3 20 -8 79 -12 131 l-8 94 100 278 c56 153 103 275 107 271 3 -4 16 -34
29 -67 47 -119 75 -150 109 -116 13 13 20 41 25 99 4 45 11 84 16 87 4 3 15
-13 24 -35 15 -39 28 -46 60 -34 13 5 16 24 16 103 0 57 4 90 9 81 5 -8 32
-81 61 -162 54 -148 63 -162 98 -139 10 6 16 56 23 172 5 90 16 220 25 289 11
82 14 155 10 213 -4 58 -2 96 5 110 7 12 73 85 148 162 129 132 140 147 198
260 34 66 67 140 73 165 12 42 13 43 20 19 4 -14 13 -71 20 -127 12 -96 14
-103 37 -108 16 -4 28 -2 33 7 14 22 21 98 18 194 -2 89 -2 91 44 180 54 105
91 218 114 347 13 67 32 124 72 207 30 64 206 438 391 831 186 393 359 769
385 835 26 66 56 131 67 145 l21 25 -6 -95 c-3 -68 -15 -131 -41 -220 -41
-141 -42 -165 -5 -165 28 0 28 0 288 350 132 177 226 319 361 543 213 354 234
395 268 539 14 59 30 126 36 148 l11 40 7 -50 c4 -27 8 -105 8 -172 1 -111 3
-123 21 -133 16 -8 24 -6 41 11 24 24 105 191 170 351 23 60 46 108 49 108 4
0 19 -42 35 -92 l27 -93 20 35 c10 19 49 89 85 155 105 193 228 372 280 408
337 235 503 354 525 377 35 37 55 106 74 255 9 66 17 122 19 123 2 2 102 -64
223 -147 121 -83 223 -151 227 -151 4 0 4 54 0 119 l-7 119 98 -24 c192 -46
872 -154 973 -154 44 0 49 2 55 26 4 15 6 27 4 29 -2 1 -84 43 -183 94 -99 52
-181 94 -182 95 -6 5 20 221 27 229 4 4 20 1 36 -8 89 -46 187 7 252 139 l29
59 74 -91 c41 -50 76 -91 79 -91 3 -1 16 32 29 72 13 39 74 191 137 337 108
253 153 378 314 890 55 174 66 198 100 232 26 27 46 38 67 38 39 0 117 -51
145 -94 17 -27 30 -36 51 -36 15 0 27 3 27 8 0 4 9 84 20 177 11 94 20 179 20
190 1 16 42 -82 134 -320 7 -17 10 -15 23 20 8 22 29 95 48 161 95 346 87 531
-44 1001 -28 100 -51 188 -51 194 0 7 28 -15 63 -48 134 -128 309 -251 423
-297 32 -13 111 -31 174 -40 229 -33 441 -79 749 -163 l313 -85 175 79 c173
77 175 79 235 148 65 75 284 399 325 479 44 86 112 272 128 346 8 39 15 100
15 135 l0 64 98 74 c108 82 219 196 325 332 57 73 99 149 224 404 85 173 171
336 191 362 31 42 59 61 206 140 148 79 184 104 269 182 78 71 108 108 152
183 l55 94 -40 212 c-56 300 -140 612 -191 713 -126 247 -264 476 -341 566
-218 256 -441 490 -519 546 -207 148 -198 139 -243 243 -60 136 -81 162 -226
289 -127 110 -134 119 -259 305 -70 105 -184 281 -253 391 -110 178 -127 210
-146 287 -12 48 -22 95 -22 104 0 9 23 56 51 105 28 49 62 117 74 151 l23 62
-26 53 c-24 48 -31 54 -82 71 l-55 19 -6 74 c-9 128 -61 236 -261 544 -206
319 -238 370 -277 456 -16 35 -39 79 -51 97 -14 20 -17 30 -9 28 47 -16 232
-67 234 -64 1 2 8 14 15 27 10 20 10 25 -1 32 -8 4 -23 15 -34 23 -19 15 -18
15 17 16 52 0 94 37 84 73 -8 33 -48 54 -215 113 -69 25 -141 55 -161 66 -76
47 -154 116 -190 168 -34 51 -80 133 -80 144 0 15 232 260 327 346 111 101
112 102 97 126 -9 13 -20 24 -25 24 -5 0 14 28 42 63 77 94 127 185 148 267
19 77 41 228 41 290 l0 35 -83 -83 -83 -82 -57 87 c-32 49 -82 138 -112 198
-49 97 -60 133 -100 312 -69 311 -83 424 -101 806 l-7 147 -58 -55 c-31 -30
-61 -55 -66 -55 -5 0 -31 107 -58 238 -26 130 -51 245 -55 255 -4 13 -23 -24
-60 -119 l-55 -138 -6 44 c-4 25 -12 110 -19 190 -7 80 -16 148 -19 152 -4 4
-64 -73 -135 -172 -77 -109 -134 -180 -144 -180 -9 0 -89 -7 -177 -15 l-160
-15 -65 44 c-168 111 -284 236 -331 356 -12 30 -35 81 -51 113 -25 50 -32 57
-51 52 -12 -4 -27 -13 -33 -21 -10 -12 -32 13 -121 133 -139 188 -207 285
-321 453 -201 298 -456 533 -762 702 -50 28 -154 61 -450 142 l-385 105 -310
41 c-272 36 -870 123 -917 134 -11 3 -20 -6 -27 -25 -9 -27 -7 -31 27 -55 l37
-25 -30 6 c-86 18 -334 89 -438 125 -205 70 -300 117 -492 242 -95 62 -371
228 -378 228 -2 0 -9 -12 -16 -27z m-6624 -26198 c61 -49 118 -103 128 -119
38 -62 228 -309 340 -441 111 -131 184 -227 365 -474 40 -57 105 -132 143
-167 81 -75 245 -188 442 -303 77 -46 196 -125 265 -175 181 -134 241 -173
369 -238 127 -65 120 -70 -39 -33 l-105 24 -120 -40 c-181 -60 -239 -98 -282
-184 -67 -132 -80 -145 -245 -247 l-156 -96 -45 10 c-55 11 -138 -2 -197 -32
-62 -32 -111 -81 -219 -219 -120 -154 -233 -263 -386 -370 -144 -102 -145
-102 -145 -60 0 19 -9 93 -20 164 -14 96 -20 184 -20 332 0 168 -18 417 -105
1472 -58 698 -105 1277 -105 1286 0 21 7 17 137 -90z"/>
</g>
</svg>
