<?xml version="1.0" encoding="UTF-8" standalone="no"?>
<!-- Created with Inkscape (http://www.inkscape.org/) -->

<svg
   version="1.1"
   width="906"
   height="405.33862"
   viewBox="0 0 906 405.33862"
   id="Layer_1"
   xml:space="preserve"
   xmlns="http://www.w3.org/2000/svg"
   xmlns:svg="http://www.w3.org/2000/svg"><defs
   id="defs19" />
    
    <g
   id="g3"
   transform="translate(0,-0.97026056)">
        
        <g
   id="g5">
            
            <path
   d="m 906,244 c 0,3.667 0,7.333 0,11 -17.697,9.71 -48.681,17.125 -77,12 -7.709,-1.396 -8.874,-1.616 -15,-5 -6.599,-3.646 -9.682,-5.819 -16,-11 -2.629,-2.155 -6.383,-4.465 -9,-7 -8.007,-7.754 -14.261,-18.852 -21,-29 -2.145,-3.229 -5.095,-5.875 -7,-9 -2.015,-3.306 -3.029,-8.045 -5,-12 -1.781,-3.576 -4.913,-7.093 -6,-10 -2.185,-5.845 -1.979,-13.974 -5,-20 -2.199,-4.387 -6.379,-7.703 -8,-14 -0.739,-2.869 -0.051,-6.21 -1,-9 -1.467,-4.312 -4.822,-9.32 -7,-14 -0.979,-2.104 -1.979,-4.774 -3,-7 -2.944,-6.423 -5.022,-8.73 -10,-15 -3.26,-4.106 -5.662,-6.539 -9,-10 -2.433,-2.523 -7.128,-5.4 -11,-8 1.024,5.819 4.477,10.861 6,17 0.432,1.74 -0.364,4.319 0,6 0.498,2.296 2.35,5.05 3,8 0.604,2.739 0.107,6.425 1,9 0.615,1.775 2.405,3.026 3,5 1.068,3.544 0.938,5.547 2,9 2.508,8.152 5.654,17.983 9,26 2.891,6.925 6.87,13.652 10,21 2.584,6.068 2.133,7.15 6,12 1.039,1.303 1.893,3.393 3,5 4.029,5.845 7.777,12.471 12,20 1.847,3.293 4.472,8.751 6,10 2.019,1.65 6.766,1.665 10,3 5.442,2.247 9.604,5.639 15,9 0.997,0.621 1.568,2.146 3,3 1.757,1.048 4.511,0.552 5,1 0.326,0.299 1.823,3.316 3,5 5.257,7.521 10.943,17.678 15,28 2.051,5.219 6.576,9.535 9,15 0.518,1.167 0.318,3.892 1,5 2.645,4.296 6.811,6.029 9,11 1.199,2.724 1.138,6.1 3,9 4.169,6.492 12.255,8.809 15,17 0.481,1.437 -0.309,3.402 0,6 0.507,4.269 3.73,15.257 3,21 -0.208,1.639 -4.995,15.273 -7,18 -0.298,0.404 -8.473,6.608 -10,7 -4.379,1.124 -8.019,-0.804 -14,0 -1.538,-6.266 -7.686,-5.84 -9,-11 -1.122,-4.405 2.121,-10.372 2,-15 -0.044,-1.681 -1.734,-4.423 -2,-7 -0.8,-7.769 -1.811,-11.697 -7,-19 -1.311,-1.845 -3.699,-3.164 -5,-5 -1.313,-1.854 -1.786,-4.418 -3,-6 -1.098,-1.432 -3.758,-2.537 -5,-4 -1.321,-1.557 -1.922,-3.95 -3,-5 -2.041,-1.988 -5.188,-3.164 -7,-5 -1.821,-1.846 -3.135,-5.004 -5,-7 -4.887,-5.229 -12.045,-12.854 -18,-18 -2.053,-1.773 -5.681,-3.153 -8,-5 -4.063,-3.236 -5.217,-5.727 -11,-8 -4.387,-1.725 -8.434,-4.299 -13,-7 -2.64,-1.562 -6.093,-2.307 -9,-4 -2.39,-1.393 -4.68,-4.815 -7,-6 -2.437,-1.244 -5.632,-0.657 -8,-2 -2.201,-1.249 -4.692,-4.309 -7,-6 -2.582,-1.892 -4.736,-3.284 -7,-5 -4.761,-3.608 -9.206,-8.261 -14,-11 -2.981,-1.703 -6.425,-1.588 -9,-3 -6.071,-3.33 -12.647,-10.525 -21,-13 -2.818,8.219 -2.727,11.479 -2,20 1.369,16.06 -0.405,34.711 2,48 1.325,7.324 2.804,12.113 5,18 1.288,3.452 3.116,6.492 3,10 -0.145,4.365 -5.77,17.127 -9,22 -1.455,2.193 -3.903,3.02 -5,5 -0.982,1.774 -0.28,4.275 -1,6 -0.458,1.099 -2.255,2.594 -3,4 -2.029,3.829 -3.233,6.484 -6,10 -6.807,8.65 -18.142,16.121 -28,24 -3.521,2.814 -6.222,5.835 -9,7 -1.377,0.577 -3.525,-0.309 -5,0 -2.913,0.609 -6.549,2.735 -10,3 -3.456,0.265 -7.694,-0.764 -12,-1 -11.529,-0.632 -23.839,2.248 -30,-2 -1.864,-1.285 -7.202,-12.639 -7,-16 0.242,-4.033 4.1,-8.861 6,-10 0.901,-0.54 3.395,0.526 6,0 2.726,-0.551 5.315,-2.809 7,-3 1.397,-0.159 7.508,-0.289 10,0 4.187,0.485 8.074,3.19 9,3 0.811,-0.167 12.09,-10.571 14,-13 1.389,-1.766 1.364,-4.703 3,-7 2.425,-3.405 6.723,-5.437 8,-8 1.829,-3.67 3.854,-15.324 4,-21 0.085,-3.325 -2.107,-10.84 -1,-16 -5.685,-2.708 -6.241,-10.106 -11,-19 -2.824,-5.277 -6.281,-9.378 -8,-14 -2.793,-7.511 -3.925,-18.284 -11,-22 0.982,0.516 -2.043,1.474 -4,1 -2.787,-0.675 -7.398,-5.026 -11,-4 1.826,1.523 7.653,2.053 5,5 -8.473,-0.696 -6.569,-5.545 -13,-1 -0.871,0.615 -0.951,2.519 -3,2 L 532.591,248.682 529,249 c 0.675,-3.608 -8.443,-2.526 -8,0 l -3,4 v 5 c -2.688,-1.6 -5.477,2.634 -8,3 -1.115,0.162 -6.778,-3.003 -11,-1 -1.442,-1.558 -4.026,-1.974 -3,-6 -3.606,-0.593 -6.706,-1.688 -10,0 -1.373,-2.279 2.578,-3.759 0,-4 -2.404,0.21 -5.246,4.109 -7,4 -1.054,-0.066 -1.007,-2.741 -3,-2 -2.348,0.319 -2.238,3.095 -4,4 -1.947,-3.847 -3.12,1.725 -7,-1 0.34,2.007 -0.205,3.129 -2,3 -0.575,-1.758 1.209,-5.875 -1,-6 -2.043,4.567 -5.453,6.23 -10,6 -2.452,1.332 1.802,3.019 -1,4 -2.805,-2.413 -10.167,-0.877 -12,1 -3.541,0.541 -2.459,-3.541 -6,-3 -0.052,6.292 -6.392,-2.562 -7,5 -2.602,-1.458 -2.051,-5.354 -3,-6 0.911,3.087 -3.495,2.688 -5,4 -1.404,1.224 -1.243,5.775 -3,3 1.241,-5.08 0.51,-1.171 -3,-1 0.586,-2.081 2.102,-3.232 3,-5 -4.978,-0.978 -2.636,5.364 -7,5 0.839,-1.161 1.319,-2.681 1,-5 -4.118,0.785 -5.132,-1.535 -9,-1 -0.256,4.698 -2.604,11.485 -2,16 0.343,2.566 2.962,5.68 4,9 4.734,15.146 7.337,33.546 10,52 4.146,1.854 7.015,4.985 7,11 -0.973,0.027 -0.776,1.224 -1,2 -1.89,0.443 -6.027,-1.36 -5,2 -0.538,7.418 3.207,17.156 2,27 -0.325,2.653 -3.05,7.032 -4,11 -0.846,3.534 0.032,8.551 -1,10 -2.682,3.768 -16.034,6.351 -23,7 -9.885,0.921 -33.804,-0.162 -39,-4 -1.16,-0.856 -7.046,-11.417 -7,-14 0.07,-3.963 3.964,-9.891 8,-12 6.096,-3.187 15.694,-2.055 26,-3 -3.327,-8.228 0.389,-17.888 -3,-28 -1.502,-4.483 -5.119,-10.238 -8,-15 -5.122,-8.464 -13.144,-17.894 -20,-26 -7.448,-8.806 -13.394,-15.055 -22,-22 -0.77,4.771 3.562,4.438 3,9 -1.894,0.319 -1.177,-2.278 -2,-3 -1.514,-1.328 -2.066,0.644 -3,0 -1.343,-0.926 -2.294,-3.027 -5,-4 -1.671,3.767 4.652,4.554 2,6 -3.396,-2.357 -3.788,-4.949 -8,-2 -1.004,-1.329 -0.946,-3.721 -3,-4 -1.301,2.483 2.934,4.15 0,5 -2.447,-0.887 -1.083,-5.584 -5,-5 -1.651,0.607 3.416,4.791 -1,6 -3.024,-1.643 -3.826,-5.507 -7,-7 0.34,2.007 -0.205,3.129 -2,3 -1.595,-0.738 0.228,-4.895 -3,-4 -1.084,2.562 3.038,4.768 0,6 0.074,-2.436 -2.89,-3.233 -4,-5 -0.939,-1.493 0.132,-5.439 -3,-5 2.035,4.623 0.171,4.958 -1,7 -3.742,-1.592 -2.742,-7.925 -6,-10 -0.409,2.409 1.826,2.174 1,5 -2.945,-0.389 -1.955,-4.712 -4,-6 0.147,2.48 0.186,4.853 -2,5 0.205,-4.205 0.36,-8.36 -3,-9 0.34,2.007 -0.205,3.129 -2,3 -0.146,-5.854 -2.623,-9.377 -5,-13 1.723,4.531 -4.965,4.89 -6,6 -0.468,0.502 0.51,2.552 0,3 -1.11,0.976 -2.346,1.254 -4,3 0.368,-1.701 -0.78,-1.887 -2,-2 -0.291,6.587 -6.761,10.479 -12,9 -2.27,4.561 -7.451,6.378 -11,11 -1.143,1.488 -1.421,4.354 -3,6 -3.334,3.476 -8.668,5.113 -12,9 -1.679,1.958 -3.295,5.579 -5,8 -1.942,2.757 -3.888,4.383 -6,7 -1.955,2.423 -2.975,5.578 -5,8 -2.018,2.413 -5.187,3.659 -7,6 -1.882,2.429 -2.202,5.743 -4,8 -2.072,2.6 -5.543,4.099 -8,7 -1.593,1.881 -1.613,4.294 -3,6 -1.542,1.896 -3.919,3.632 -6,5 -1.524,1.002 -4.672,1.621 -6,3 -2.045,2.123 -2.424,7.79 -5,10 -1.806,1.55 -4.802,0.553 -6,2 -3.485,4.211 -3.809,14.549 -9,20 -6.196,6.507 -27.196,5.303 -39,5 -6.296,-0.161 -14.264,1.482 -21,1 -2.701,-0.193 -7.262,-0.152 -9,-1 -1.615,-0.788 -1.523,-4.068 -4,-7 -2.728,-3.229 -3.655,-0.958 -4,-4 -0.478,-4.217 4.445,-11.35 8,-14 1.931,-1.439 13.108,-6.527 17,-7 4.282,-0.52 12.633,1.871 17,2 2.386,-5.591 10.854,-8.605 15,-15 3.253,-5.017 3.36,-13.315 6,-21 0.53,-1.544 2.112,-2.989 3,-5 8.162,-18.478 17.344,-38.755 25,-59 5.125,-13.553 11.48,-20.827 10,-40 -0.312,-4.031 -2.037,-8.49 -3,-14 -2.606,-14.918 -0.95,-25.465 -11,-27 -3.084,-0.486 -1.236,5.236 -3,7 -0.063,0.063 -1.911,-1.3 -2,-1 -0.611,2.052 0.425,3.412 0,6 -3.044,0.283 -3.889,-3.204 -6,-1 -0.729,2.271 1.802,7.802 -2,7 0.783,-0.694 2.226,-5.58 0,-6 -2.216,1.691 -1.271,4.49 -3,6 0.729,-0.637 -0.294,-4.401 -1,-2 -0.507,1.724 1.141,5.685 -2,6 -2.985,-2.886 -0.666,-2.364 1,-5 -3.078,-0.745 -1.922,2.745 -5,2 -0.602,1.444 5.207,4.051 4,7 -4.432,-0.73 -4.049,-4.863 -8,-3 1.055,-0.498 0.435,1.83 -1,1 0.877,-2.06 -2.593,-4.49 -3,-2 1.44,0.56 2.44,1.56 3,3 -4.113,0.113 -3.327,-4.674 -7,-5 -1.351,4.377 -2.193,3.08 -5,6 -0.389,-2.611 -0.513,-5.486 -2,-7 -0.834,0.256 -6.417,2.609 -9,2 -0.989,-0.233 0.232,-2.435 -1,-2 -0.872,0.308 -4.268,3.851 -6,5 -4.012,2.662 -4.763,12.432 -10,16 -0.443,0.302 -3.444,0.458 -5,1 -1.456,0.507 -3.24,1.827 -4,2 -0.012,0.003 0.082,-1.918 0,-2 -0.381,-0.381 -1.919,1.86 -4,2 -0.447,0.03 -0.823,-2.252 -2,-2 0.003,-0.001 -0.5,3.19 -2,2 -0.547,-1.453 1.168,-5.169 -1,-5 0.279,8.222 -6.285,-0.761 -8,-1 -0.19,-0.026 -1.884,3.423 -2,1 -0.224,-7.789 -3.438,-17.879 -8,-18 0.885,1.849 5.217,5.36 3,7 -1.45,-1.884 -1.47,-5.196 -4,-6 -0.595,2.071 1.236,6.569 -1,7 -1.885,-3.854 -4.293,-5.384 -6,-1 -1.371,-2.339 -2.74,-9.868 -5,-8 0.877,0.904 2.866,5.645 1,6 -2.238,-1.279 -4.123,-4.83 -6,-1 0.537,-3.537 -0.848,-5.152 -3,-6 0.086,1.419 0.165,2.832 -1,3 0.319,-2.319 -0.161,-3.839 -1,-5 -8.305,-0.757 -10.883,-11.743 -16,-18 -2.611,-3.193 -4.609,-4.225 -6,-9 0,-0.667 0,-1.333 0,-2 2.484,-1.243 3.158,-7.344 6,-12 1.045,-1.713 2.855,-3.473 4,-5 3.196,-4.262 4.974,-10.434 8,-17 1.783,-3.869 4.415,-7.438 5,-11 0.946,-5.763 -2.189,-13.962 0,-21 1.116,-3.586 10.162,-10.025 14,-14 3.817,-3.954 4.998,-5.5 9,-10 1.43,-1.608 2.374,-3.497 4,-5 4.131,-3.817 8.846,-4.68 10,-8 0.925,-2.661 -1.182,-6.298 -1,-9 0.274,-4.065 2.698,-9.392 5,-13 1.536,-2.407 1.747,-2.792 5,-4 5.691,-2.114 13.177,1.054 17,5 0.779,0.805 0.223,5.284 3,3 8.736,-2.916 15.59,-7.7 24,-12 2.028,-1.037 2.137,-0.386 4,-2 0.902,-0.782 1.121,-2.199 3,-2 2.646,-0.905 4.633,1.514 7,2 3.757,0.771 8.302,-1.067 14,-1 2.875,0.034 4.564,1.238 7,1 5.486,-0.537 11.23,-2.336 17,-3 13.151,-1.513 25,-2.655 39,-6 3.717,-0.888 7.405,-2.411 11,-3 3.502,-0.574 7.43,-0.145 10,-1 6.929,-2.305 10.65,-9.378 18,-10 2.732,-0.231 7.936,1.75 12,2 4.466,0.274 6.902,-0.548 9,0 2.622,0.685 5.702,2.741 8,4 2.887,1.581 4.968,2.991 8,4 1.559,0.519 3.092,0.256 5,1 0.946,0.369 2.904,1.983 3,2 2.137,0.364 5.11,-1.292 8,-1 2.284,0.231 4.854,2.023 7,2 1.29,-0.014 2.921,-1.653 5,-2 6.257,-1.043 12.063,-0.941 18,-2 3.745,-0.668 7.316,-1.524 11,-2 3.86,-0.498 8.125,0.549 11,0 1.998,-0.381 5.698,-3.083 9,-4 1.021,-0.284 1.472,-1.301 4,-2 2.871,-0.794 3.591,-1.048 6,-2 4.102,-1.622 11.036,-1.209 17,-3 3.926,-1.179 6.952,-4.234 11,-5 3.29,-0.622 7.499,0.706 11,0 3.474,-0.7 6.296,-4.006 10,-5 2.297,-0.616 4.943,0.437 8,0 4.636,-0.662 12.563,-3.81 19,-4 3.489,-0.103 7.383,0.979 11,1 3.543,0.021 7.635,-1.237 11,-1 4.492,0.316 9.196,2.585 14,3 7.96,0.688 16.049,-1.453 24,-1 2.765,0.157 4.429,2.786 7,3 2.143,0.179 4.528,-2.039 7,-2 10.646,0.168 22.355,0.966 34,2 6.065,0.539 11.482,0.383 17,1 6.62,0.74 12.521,3.46 19,4 8.469,0.705 17.118,0.309 26,1 3.675,0.286 7.947,0.92 12,1 3.819,0.076 8.565,-1.465 12,-1 2.373,0.322 4.502,3.167 8,4 3.148,0.75 7.024,0.222 10,1 2.699,0.706 4.719,2.823 8,4 2.648,0.95 6.286,1.015 9,2 2.671,0.97 5.417,3.084 8,4 7.224,2.561 7.876,1.806 13,6 5.855,4.793 12.268,11.603 19,17 2.658,2.131 6.402,4.183 8,6 0.842,0.957 0.811,3.464 2,5 2.043,2.637 5.445,6.305 8,10 9.264,13.399 19.627,31.203 26,48 3.484,9.182 6.369,19.236 10,29 1.716,4.615 3.192,9.244 5,14 1.705,4.485 3.153,9.694 5,14 0.892,2.08 2.931,3.776 4,6 2.03,4.223 1.774,7.255 4,11 1.271,2.139 3.456,5.64 5,9 4.164,9.061 7.088,19.735 12,26 4.016,5.121 11.945,8.84 19,14 3.229,2.362 5.447,4.961 9,7 3.858,2.214 8.202,4.465 11,5 7.174,1.371 24.838,-0.27 33,-3 4.938,-1.652 15.323,-10.417 24,-11 6.412,-0.432 7.066,-0.276 9,4 z M 46,205 c -0.468,3.114 2.514,3.574 4,2 0.169,-2.503 -1.536,-3.13 -3,-4 -0.729,2.729 1.987,2.013 2,4 -1.427,-0.239 -1.687,-1.646 -3,-2 z m 501,38 c 2.487,-0.154 3.096,1.571 5,2 -0.225,-1.891 1.127,-2.206 1,-4 -2.717,1.687 -4.684,-1.587 -6,2 z m -8,0 c -2.409,0.409 -2.174,-1.826 -5,-1 -0.305,4.715 4.09,4.631 5,1 z"
   id="path7"
   style="fill-rule:evenodd" />
            
            <g
   id="g9">
                
                <path
   d="m 518,253 c 4.227,-0.854 8.533,-0.821 12.73,-1.192"
   id="path11"
   style="fill:none;stroke:#000000;stroke-width:4.7329;stroke-linecap:round" />
                
                <path
   d="m 530.73,251.808 c 0.557,-0.945 1.229,-2.067 1.86,-3.126"
   id="path13"
   style="fill:none;stroke:#000000;stroke-width:6.0828;stroke-linecap:round" />
                
                <path
   d="m 518,253 c 0.337,10.88 18.465,9.462 12.73,-1.192"
   id="path15"
   style="fill:none;stroke:#000000;stroke-width:4.2088;stroke-linecap:round" />
                
            </g>
            
        </g>
        
    </g>
    
</svg>
