<?xml version="1.0" standalone="no"?>
<!DOCTYPE svg PUBLIC "-//W3C//DTD SVG 20010904//EN"
 "http://www.w3.org/TR/2001/REC-SVG-20010904/DTD/svg10.dtd">
<svg version="1.0" xmlns="http://www.w3.org/2000/svg"
 width="1536.000000pt" height="1457.000000pt" viewBox="0 0 1536.000000 1457.000000"
 preserveAspectRatio="xMidYMid meet">
<metadata>
Created by potrace 1.16, written by Peter Selinger 2001-2019
</metadata>
<g transform="translate(0.000000,1457.000000) scale(0.100000,-0.100000)"
fill="#000000" stroke="none">
<path d="M2542 14518 c-43 -71 -55 -127 -60 -291 l-4 -157 -51 -25 c-28 -13
-53 -22 -55 -20 -7 6 -4 121 3 164 5 32 4 41 -8 41 -24 0 -40 -52 -45 -147
l-4 -93 -49 -35 c-27 -19 -49 -39 -49 -45 0 -26 -33 -3 -116 83 -210 214 -241
252 -249 304 -9 64 -32 116 -47 111 -20 -7 -21 -44 -4 -95 20 -60 20 -70 -3
-76 -11 -3 -22 -17 -26 -36 -12 -57 -50 -29 -76 58 -7 24 -20 45 -28 48 -14 4
-82 31 -129 50 -10 4 -13 -1 -10 -18 2 -18 17 -31 59 -50 54 -26 56 -29 87
-109 18 -45 32 -95 32 -112 0 -27 -3 -30 -22 -24 -13 3 -28 6 -34 6 -6 0 -49
25 -94 55 -46 30 -85 53 -87 51 -3 -2 3 -18 11 -35 29 -55 79 -82 234 -127 7
-2 12 -21 12 -46 0 -29 12 -68 34 -115 19 -39 36 -82 38 -95 3 -20 -1 -23 -27
-20 -70 7 -135 80 -171 190 -20 63 -22 65 -34 43 -22 -42 -7 -113 41 -193 58
-96 59 -100 9 -53 -23 22 -59 69 -79 105 -21 36 -56 97 -79 135 -38 66 -110
150 -120 141 -2 -3 5 -17 16 -33 25 -36 87 -159 113 -226 11 -28 34 -83 51
-120 39 -84 28 -107 -25 -53 -33 32 -47 62 -111 238 -33 90 -99 158 -152 158
-36 0 -29 -17 20 -52 44 -31 45 -31 108 -224 35 -107 61 -194 57 -194 -7 0
-45 43 -91 102 -15 20 -37 38 -49 41 -20 5 -21 3 -16 -31 4 -19 27 -65 52
-102 25 -36 45 -75 45 -87 0 -44 -75 -39 -100 7 -6 10 -17 56 -26 102 -30 160
-85 238 -166 238 -33 0 -38 -2 -29 -14 6 -8 32 -19 56 -25 37 -9 48 -18 64
-50 22 -42 85 -280 77 -288 -17 -18 -76 51 -76 90 0 9 -7 17 -15 17 -23 0 -18
-39 10 -85 14 -22 25 -43 25 -47 0 -5 -27 12 -61 37 -63 46 -111 62 -155 51
-35 -9 -19 -27 46 -50 47 -17 80 -46 80 -72 0 -6 -39 -26 -87 -44 -320 -118
-529 -235 -743 -417 -121 -102 -158 -155 -189 -272 -78 -289 -87 -486 -33
-771 36 -194 60 -290 73 -290 4 0 40 38 79 85 102 122 129 141 203 138 38 -2
72 3 95 14 30 13 72 17 212 18 96 1 195 6 220 10 62 10 390 135 530 202 63 30
160 70 215 89 55 19 125 47 155 63 30 16 80 32 110 36 81 10 132 24 160 44 14
10 62 23 107 30 98 14 180 41 323 106 110 50 204 85 227 85 18 0 17 -44 -3
-83 -9 -18 -41 -58 -70 -90 -30 -32 -54 -61 -54 -65 0 -4 -24 -22 -53 -41 -28
-18 -83 -69 -120 -112 -41 -48 -99 -100 -145 -131 -42 -29 -140 -102 -217
-164 -77 -61 -187 -141 -244 -179 -58 -37 -130 -91 -160 -120 -69 -65 -131
-102 -386 -235 l-200 -104 -180 -6 c-152 -5 -187 -9 -225 -26 -61 -28 -76 -47
-55 -68 9 -9 24 -16 33 -16 9 0 51 -11 92 -24 155 -49 255 -61 530 -60 212 0
279 4 400 23 257 39 439 87 653 172 135 54 246 111 429 222 113 68 182 102
245 122 48 15 126 48 173 72 74 39 90 44 128 39 59 -8 67 -14 46 -37 -16 -18
-16 -19 5 -19 16 0 25 -9 32 -30 6 -16 14 -30 19 -30 4 0 3 -24 -2 -52 -12
-63 -6 -165 12 -197 10 -20 14 -21 26 -9 13 12 12 20 -1 58 -18 52 -13 90 22
143 20 32 27 36 39 26 9 -7 29 -9 52 -5 36 5 41 3 69 -32 16 -20 48 -65 72
-99 23 -35 46 -63 52 -63 16 0 1 66 -36 158 -18 45 -29 82 -24 82 5 0 24 -24
43 -52 18 -29 43 -61 54 -72 21 -18 21 -18 33 8 11 23 9 33 -9 72 -25 50 -28
78 -9 72 18 -7 36 -66 37 -128 1 -70 25 -138 78 -218 24 -38 44 -81 48 -108 3
-24 -1 -119 -10 -211 -31 -335 -40 -514 -40 -848 -1 -362 10 -488 54 -660 45
-171 205 -530 308 -690 24 -38 75 -102 112 -141 37 -40 96 -120 135 -184 42
-69 92 -137 128 -173 44 -43 69 -78 92 -130 17 -40 64 -126 104 -191 107 -176
142 -250 215 -465 79 -228 98 -268 212 -441 53 -81 114 -192 159 -290 77 -167
97 -202 150 -260 34 -36 98 -192 205 -495 l53 -150 251 -251 c243 -244 256
-255 413 -358 89 -58 168 -106 176 -106 8 0 86 -18 173 -41 133 -34 181 -41
290 -46 l132 -6 -10 -33 c-14 -51 -14 -141 -1 -214 8 -44 13 -257 14 -650 3
-572 2 -587 -20 -689 -26 -125 -58 -205 -106 -272 -20 -28 -33 -54 -30 -59 3
-4 1 -41 -5 -81 -20 -143 -94 -260 -288 -456 -75 -77 -159 -155 -187 -173 -27
-18 -81 -65 -120 -105 -52 -53 -83 -76 -120 -89 -136 -49 -169 -72 -291 -201
-94 -101 -122 -125 -144 -125 -15 0 -46 -7 -69 -15 -52 -18 -302 -153 -396
-213 -91 -58 -193 -162 -235 -238 -30 -53 -40 -63 -80 -78 -177 -64 -311 -123
-316 -139 -4 -13 -14 -17 -39 -15 -24 1 -43 -6 -70 -28 -21 -16 -49 -38 -62
-48 -14 -10 -64 -30 -111 -43 -120 -34 -262 -105 -326 -164 -51 -47 -93 -119
-81 -140 13 -19 53 -8 94 28 l43 36 46 -16 c32 -12 79 -17 148 -17 120 0 189
-18 229 -60 16 -16 33 -30 38 -30 5 0 60 20 123 45 68 27 129 45 154 45 50 0
177 65 410 211 242 151 253 156 357 173 111 17 165 45 210 106 60 83 68 92 86
109 10 9 28 26 41 39 24 23 25 23 77 8 109 -33 155 -14 170 69 5 28 16 55 24
61 9 6 13 18 10 25 -3 10 26 27 95 58 l100 43 0 42 c0 56 11 116 21 116 4 0
11 -10 15 -22 l7 -23 8 23 c5 12 15 22 24 22 8 0 20 11 25 25 5 14 16 25 24
25 8 0 37 26 65 57 45 50 54 56 69 45 27 -19 42 -25 49 -18 4 3 -2 12 -12 20
-10 7 -15 18 -11 25 6 9 11 9 23 -1 13 -10 18 -9 33 10 63 77 67 80 143 101
41 11 100 32 131 45 l56 25 43 -19 c44 -20 76 -24 115 -14 19 6 22 11 17 35
-5 23 -3 28 17 31 12 2 28 14 35 28 9 19 29 30 80 46 60 18 71 25 90 60 13 21
28 56 33 76 8 29 18 39 44 48 65 21 113 101 123 202 5 45 7 47 29 42 27 -7 30
2 9 30 -26 34 -19 56 16 56 27 0 30 2 19 16 -11 13 -10 16 8 21 12 3 22 13 22
22 0 10 16 44 37 77 30 49 37 70 41 129 4 55 10 76 29 99 15 19 21 35 17 48
-5 17 -3 18 15 8 28 -15 41 -5 41 30 0 17 9 53 20 82 11 29 20 66 20 81 0 21
13 41 51 78 28 27 54 49 59 49 4 0 11 15 14 34 4 18 16 42 27 52 13 12 18 25
14 41 -3 15 2 28 16 42 13 12 20 27 17 39 -4 14 3 27 23 41 21 16 34 39 45 80
16 55 19 59 57 71 l40 12 -6 43 c-7 47 5 67 22 38 9 -15 10 -13 11 14 0 22 12
48 34 77 19 25 49 85 67 133 29 76 42 97 99 153 36 36 77 79 90 95 14 17 39
40 57 53 25 18 34 34 43 77 10 47 15 55 34 55 15 0 32 -14 54 -45 20 -28 50
-54 82 -70 28 -14 77 -49 108 -78 89 -81 123 -104 196 -132 104 -39 125 -52
202 -125 70 -66 98 -80 163 -80 19 0 39 -13 68 -44 37 -40 46 -44 101 -51 93
-11 171 -53 256 -138 49 -50 86 -78 112 -87 46 -14 97 -46 172 -107 30 -25 75
-54 101 -66 25 -12 50 -28 55 -36 5 -8 44 -52 86 -98 43 -46 86 -103 96 -127
14 -33 26 -46 51 -55 86 -31 213 -221 213 -318 0 -29 9 -68 24 -99 13 -28 29
-74 35 -103 17 -79 33 -110 100 -191 80 -98 97 -137 132 -299 17 -81 41 -161
60 -200 24 -49 33 -82 35 -131 1 -36 17 -112 33 -170 45 -153 43 -200 -23
-447 -15 -56 -30 -129 -34 -162 l-7 -60 -130 -107 c-215 -176 -316 -233 -457
-256 -72 -12 -74 -12 -146 -86 -68 -68 -74 -79 -83 -131 -5 -31 -9 -57 -9 -58
0 -12 -101 -92 -160 -127 -87 -52 -106 -70 -154 -150 -40 -67 -44 -81 -18 -71
62 24 153 36 333 44 112 6 239 17 281 26 42 9 98 15 125 13 42 -3 48 -6 51
-27 2 -13 -8 -60 -22 -106 -14 -46 -26 -95 -26 -109 0 -26 0 -26 82 -26 140 0
181 17 362 155 63 48 65 51 80 117 33 145 95 228 302 404 68 58 145 132 172
167 l50 62 94 18 c51 9 103 17 115 17 18 0 25 9 34 42 28 106 -43 238 -169
313 l-51 30 -35 120 c-138 468 -210 902 -206 1250 3 350 4 334 -50 605 -54
272 -78 360 -116 427 -13 23 -24 58 -24 77 0 25 -11 51 -33 83 -19 27 -58 88
-87 137 -30 50 -75 112 -102 140 -26 27 -48 57 -48 66 0 17 -20 58 -78 160
-17 30 -28 58 -26 62 3 4 17 8 32 8 l26 0 -30 32 c-17 18 -50 62 -73 98 -38
57 -41 66 -26 76 15 11 13 17 -18 61 -43 60 -72 118 -80 159 -3 17 -49 95
-101 173 -76 112 -96 150 -96 177 0 40 -20 93 -42 112 -14 11 -13 20 8 80 13
37 24 85 24 107 0 35 7 47 43 83 36 36 51 43 88 45 24 2 55 10 69 20 14 9 54
25 90 37 36 11 76 29 90 39 24 19 25 19 62 0 40 -20 108 -25 137 -9 16 8 20 5
25 -23 5 -23 9 -28 15 -18 12 20 24 -4 17 -34 -5 -18 1 -33 22 -57 16 -18 31
-38 33 -44 3 -7 36 -5 106 6 107 17 115 16 126 -12 5 -14 20 -17 89 -16 46 1
102 -4 125 -11 58 -16 132 -68 168 -118 16 -23 40 -45 52 -49 25 -7 79 -63 95
-100 9 -18 19 -24 44 -24 24 0 39 -8 60 -32 l27 -33 128 0 c120 0 129 1 152
23 14 13 28 35 32 49 4 19 9 22 19 14 9 -8 20 -3 40 18 18 19 47 34 80 42 56
13 105 38 107 54 1 5 0 26 -1 47 -1 20 4 45 12 57 11 17 10 25 -5 50 -19 33
-22 51 -7 51 19 0 110 -92 116 -117 4 -16 13 -23 31 -23 16 0 27 -7 30 -20 4
-14 28 -27 83 -47 66 -23 80 -32 98 -64 21 -35 24 -37 59 -32 21 3 45 14 53
23 14 17 20 17 85 5 130 -26 227 -15 264 28 10 13 31 17 88 17 65 0 77 3 98
25 14 13 25 34 25 46 0 23 -5 23 88 3 24 -5 36 4 106 75 70 72 82 81 115 81
36 0 37 1 64 70 15 38 27 81 27 95 0 15 11 41 24 58 13 18 36 72 49 120 14 49
27 91 30 94 3 3 29 -2 58 -10 47 -14 54 -14 75 0 13 8 24 24 24 35 0 16 5 19
25 14 32 -8 65 35 45 59 -23 27 23 17 73 -16 39 -25 54 -30 81 -25 38 7 84 53
116 116 11 22 34 49 50 62 23 16 30 30 30 55 0 23 5 33 15 33 11 0 14 7 9 25
-3 14 -1 32 6 40 6 8 9 18 6 24 -9 14 4 41 21 41 10 0 13 6 8 18 -50 127 -51
133 -24 199 11 28 11 34 -4 51 -19 20 -14 32 14 32 16 0 15 6 -9 59 -25 56
-33 64 -115 113 -48 29 -119 80 -158 113 -101 84 -96 82 -119 67 -11 -6 -25
-12 -32 -12 -7 0 -5 5 5 11 25 15 11 29 -29 29 -19 0 -34 5 -34 10 0 6 -18 10
-40 10 -43 0 -45 2 -30 31 13 23 -4 26 -44 8 -20 -10 -30 -8 -56 11 -40 29
-140 60 -190 60 -32 0 -39 4 -42 23 -2 17 -10 23 -39 25 -26 2 -38 9 -42 22
-3 10 -21 26 -42 34 -20 9 -39 25 -42 36 -3 11 -13 20 -22 20 -9 0 -38 14 -64
30 -26 17 -56 30 -67 30 -14 0 -19 6 -17 22 1 16 -3 22 -18 23 -24 0 -105 55
-159 108 -24 23 -56 42 -82 48 -23 6 -50 20 -60 30 -13 15 -31 19 -79 19 -35
0 -118 9 -186 21 -77 13 -146 19 -181 16 -53 -5 -76 4 -45 16 6 3 3 6 -7 6
-11 1 -69 21 -130 45 -128 51 -177 66 -226 66 -21 0 -61 15 -100 36 -44 25
-81 37 -115 40 -27 1 -76 14 -108 28 -31 14 -75 29 -98 32 -28 5 -39 11 -35
20 4 10 -3 14 -22 14 -36 0 -54 13 -47 32 5 12 -4 16 -42 20 -30 3 -64 15 -91
33 -29 19 -61 30 -104 34 -64 7 -102 23 -173 71 -72 49 -120 69 -208 84 -97
17 -104 20 -207 91 -41 29 -127 81 -190 116 -63 35 -149 89 -192 122 -55 41
-101 66 -160 86 -46 16 -123 48 -173 73 -108 54 -162 73 -369 133 -88 26 -266
85 -395 132 -736 266 -1370 366 -2021 319 -248 -18 -333 -17 -670 10 -102 9
-349 19 -550 24 -385 9 -445 16 -631 70 -283 82 -453 175 -557 303 -166 206
-287 420 -356 631 -36 111 -40 168 -27 387 30 502 43 612 87 760 26 86 27 87
75 110 29 13 49 29 49 38 0 26 29 61 51 61 25 0 24 16 -1 30 -32 17 -25 40 13
41 91 3 110 33 48 76 -50 35 -65 76 -58 156 6 72 20 83 65 55 30 -18 35 -19
49 -5 22 22 9 49 -38 75 -48 28 -50 58 -4 82 45 23 54 40 36 69 -8 13 -15 13
-51 1 -36 -12 -43 -12 -57 2 -25 25 -9 48 32 48 32 0 36 3 33 22 -2 13 -21 34
-45 51 -47 31 -60 65 -20 52 12 -4 36 -8 52 -9 44 -2 47 35 6 71 -39 35 -39
41 1 45 20 2 34 9 36 18 1 9 -20 44 -48 79 -27 34 -50 72 -50 85 0 12 -16 37
-36 57 -41 39 -88 124 -78 142 4 7 16 22 27 35 19 20 19 24 6 38 -9 8 -30 23
-49 32 -22 11 -38 30 -48 57 -24 62 -62 112 -210 277 -212 235 -355 358 -537
460 -49 28 -101 59 -114 69 -13 11 -36 19 -51 19 -19 0 -29 6 -33 19 -4 16
-18 21 -68 27 -35 5 -55 10 -44 12 11 2 24 8 29 13 6 5 -54 9 -148 9 -140 0
-157 2 -146 15 11 13 -1 15 -94 15 -85 0 -108 3 -112 15 -5 11 -10 12 -26 4
-11 -6 -46 -9 -79 -7 -32 1 -60 0 -62 -3 -1 -4 -13 -10 -26 -14 -16 -5 -21 -4
-17 4 5 7 -8 11 -41 11 -26 0 -60 7 -76 15 -25 13 -32 12 -80 -10 -57 -27
-107 -32 -136 -13 -16 10 -25 7 -55 -20 -45 -39 -73 -41 -82 -7 -8 30 -14 31
-48 4 -17 -14 -35 -19 -50 -15 -17 4 -30 -2 -51 -24 -45 -47 -59 -40 -51 23 4
28 14 65 22 81 18 36 18 35 -6 29 -23 -6 -40 -32 -64 -96 -15 -40 -39 -67 -60
-67 -3 0 -6 19 -6 43 0 46 13 75 78 168 56 82 54 102 -5 49 -57 -49 -88 -97
-108 -165 -13 -48 -46 -95 -64 -95 -5 0 -11 13 -14 29 -6 29 -3 54 27 216 18
94 19 135 6 155 -20 29 -40 -17 -40 -91 0 -41 -11 -112 -30 -185 -16 -66 -30
-121 -30 -123 0 -2 -7 2 -15 9 -12 10 -21 10 -46 -1 -28 -11 -33 -10 -45 6
-34 46 -30 160 11 335 13 57 23 106 21 108 -2 2 -13 -12 -24 -30z m-653 -360
c58 -71 65 -93 26 -78 -79 30 -105 56 -105 103 0 24 7 37 21 37 3 0 30 -28 58
-62z m26 -123 c71 -31 197 -114 190 -125 -3 -5 -26 -12 -51 -16 -25 -3 -54
-15 -64 -26 -18 -19 -18 -19 -36 8 -11 14 -40 50 -65 78 -49 55 -79 96 -79
108 0 11 44 0 105 -27z m-76 -120 c17 -15 39 -50 51 -82 33 -89 20 -97 -32
-18 -25 39 -55 79 -67 89 -46 42 -1 52 48 11z"/>
</g>
</svg>
