<?xml version="1.0" standalone="no"?>
<!DOCTYPE svg PUBLIC "-//W3C//DTD SVG 20010904//EN"
 "http://www.w3.org/TR/2001/REC-SVG-20010904/DTD/svg10.dtd">
<svg version="1.0" xmlns="http://www.w3.org/2000/svg"
 width="1414.000000pt" height="1536.000000pt" viewBox="0 0 1414.000000 1536.000000"
 preserveAspectRatio="xMidYMid meet">
<metadata>
Created by potrace 1.16, written by Peter Selinger 2001-2019
</metadata>
<g transform="translate(0.000000,1536.000000) scale(0.100000,-0.100000)"
fill="#000000" stroke="none">
<path d="M5118 15337 c-20 -12 -73 -68 -118 -124 -44 -56 -85 -105 -91 -108
-18 -12 -46 6 -67 44 -27 48 -35 51 -131 51 -83 0 -101 -9 -101 -48 0 -34 48
-149 83 -201 29 -43 30 -46 24 -134 -5 -73 -3 -92 9 -105 11 -10 14 -25 10
-45 -3 -16 -6 -40 -6 -53 0 -19 -12 -30 -58 -53 -52 -26 -60 -34 -71 -73 -26
-85 -57 -134 -93 -144 -28 -8 -36 -18 -57 -71 -20 -52 -30 -64 -62 -79 -90
-40 -89 -82 2 -193 33 -41 56 -78 51 -83 -4 -4 -35 -15 -68 -24 -32 -8 -70
-22 -83 -31 -22 -14 -23 -19 -17 -82 3 -36 6 -80 6 -97 0 -43 21 -67 61 -68
26 -1 34 -5 34 -20 0 -29 -61 -47 -119 -34 -68 14 -92 -12 -116 -125 -17 -86
-10 -103 50 -116 28 -6 78 -11 112 -11 53 0 60 -2 55 -17 -3 -10 -26 -72 -51
-138 -25 -66 -45 -134 -46 -151 0 -16 11 -58 25 -93 13 -34 29 -95 34 -134 6
-40 17 -92 26 -117 15 -41 15 -48 -1 -90 -24 -65 -70 -151 -97 -183 l-24 -28
-66 70 c-83 88 -103 125 -88 158 6 13 25 29 41 35 30 10 30 11 30 83 0 104
-15 171 -50 218 -36 49 -39 95 -14 224 19 102 11 131 -50 200 l-43 48 -11 150
-12 150 34 35 c47 49 56 71 56 135 0 54 2 60 49 111 55 60 68 98 51 149 -10
29 -9 43 5 80 23 60 16 137 -15 170 -20 22 -32 25 -90 25 -109 0 -142 -42
-154 -200 -12 -141 -80 -320 -121 -320 -24 0 -32 31 -38 150 -9 176 -22 198
-98 166 -64 -27 -83 -59 -89 -144 l-5 -76 -41 -9 c-52 -10 -78 -38 -78 -82 0
-50 31 -84 115 -128 41 -22 94 -56 119 -76 25 -21 57 -45 72 -55 14 -9 29 -24
32 -33 7 -18 -19 -209 -34 -248 -12 -31 -39 -32 -98 -4 -49 24 -109 99 -217
272 -73 118 -79 121 -154 91 -42 -17 -44 -20 -60 -94 -8 -37 -7 -58 9 -108 15
-48 17 -68 9 -91 -6 -16 -9 -44 -7 -63 3 -32 6 -34 78 -59 41 -14 95 -36 120
-49 25 -12 90 -35 145 -49 l100 -26 8 -81 c8 -73 7 -86 -12 -123 -12 -22 -26
-41 -32 -41 -6 0 -39 10 -74 22 -78 27 -109 20 -137 -34 -30 -57 -33 -99 -11
-150 19 -41 24 -45 80 -60 32 -10 72 -27 87 -39 l28 -22 -27 -14 c-17 -9 -36
-36 -54 -76 -16 -34 -48 -86 -72 -116 -71 -86 -109 -142 -109 -160 0 -9 30
-46 66 -81 67 -66 96 -111 108 -165 4 -16 27 -57 52 -90 25 -33 63 -98 85
-145 22 -46 53 -105 69 -131 17 -25 30 -49 30 -52 0 -4 -15 -7 -33 -7 -40 0
-56 15 -92 90 -18 38 -43 68 -81 98 -66 52 -78 70 -114 166 -17 47 -54 113
-98 174 -44 60 -75 114 -80 140 -15 63 -35 87 -122 145 -44 28 -80 58 -80 65
0 20 29 72 41 72 5 0 21 11 34 25 19 18 25 35 25 69 0 45 -1 47 -57 83 -32 21
-59 38 -61 39 -2 1 8 25 22 52 24 48 28 51 82 63 50 11 58 17 71 48 8 19 20
58 26 86 10 49 9 55 -16 98 -27 46 -95 112 -140 136 -24 13 -33 11 -113 -26
l-87 -39 -1 -106 c-1 -123 -18 -160 -74 -166 -37 -4 -72 13 -72 34 0 8 23 58
50 112 38 73 53 116 61 172 14 93 25 110 93 154 30 19 60 44 65 55 25 45 3
129 -38 151 -33 17 -103 11 -158 -14 -60 -28 -73 -50 -122 -197 -35 -105 -46
-120 -147 -187 -69 -46 -74 -54 -75 -120 0 -26 -11 -74 -23 -107 l-22 -60 -65
-1 c-35 -1 -69 -2 -75 -3 -17 -2 -32 -47 -39 -116 -3 -33 -13 -101 -21 -152
l-16 -92 40 -89 c25 -53 44 -116 50 -158 15 -101 139 -523 167 -565 13 -20 56
-66 97 -102 111 -99 454 -352 533 -393 73 -39 232 -153 275 -199 25 -26 25
-27 5 -42 -15 -11 -41 -14 -110 -11 -126 5 -174 33 -274 157 l-74 92 -57 -7
-57 -6 -31 44 c-49 71 -107 118 -146 118 -18 0 -60 3 -93 6 l-61 7 -28 60
c-42 88 -58 104 -121 122 -107 31 -163 56 -163 72 0 9 12 41 26 73 22 49 31
59 62 68 56 18 101 49 113 79 10 26 -3 178 -16 191 -4 4 -51 -4 -142 -25 -18
-4 -30 9 -77 80 -61 93 -116 138 -141 117 -15 -13 -19 -33 -35 -220 -6 -69
-20 -160 -31 -203 -11 -42 -28 -122 -40 -177 -27 -138 -26 -140 105 -160 38
-6 78 -16 88 -21 25 -14 56 -82 65 -147 7 -44 16 -59 71 -116 49 -51 70 -66
92 -66 43 0 72 -14 124 -59 58 -51 110 -57 126 -16 9 23 15 25 68 25 47 0 66
-5 103 -29 60 -40 110 -85 84 -76 -41 14 -132 17 -153 6 -20 -10 -22 -20 -22
-84 0 -40 4 -76 8 -82 14 -20 138 -55 193 -55 31 0 87 9 123 20 66 21 67 21
94 1 15 -10 52 -27 82 -36 30 -9 78 -26 105 -37 28 -12 77 -23 109 -26 57 -4
62 -6 112 -59 51 -53 53 -57 48 -97 -6 -38 -3 -45 22 -65 24 -19 38 -22 86
-19 l58 4 7 -40 c7 -33 15 -44 40 -56 50 -23 39 -33 -29 -27 -115 9 -287 56
-364 98 -43 24 -116 51 -184 68 -89 24 -122 38 -163 69 -78 59 -77 59 -179 46
-98 -12 -126 -8 -163 25 -11 10 -109 62 -218 116 -109 54 -202 106 -206 114
-5 9 -14 54 -21 99 -18 120 -54 157 -194 197 -66 19 -82 13 -66 -29 7 -19 7
-40 -1 -71 -10 -39 -9 -47 10 -71 21 -27 26 -72 12 -107 -6 -15 -9 -13 -23 16
-21 44 -67 79 -138 105 -50 18 -55 23 -63 58 -14 69 -74 134 -124 134 -24 0
-135 -53 -150 -72 -7 -8 -20 -46 -29 -84 -14 -60 -14 -87 -4 -204 20 -225 22
-235 78 -294 43 -45 52 -62 66 -124 21 -94 20 -128 -8 -181 l-23 -44 -30 44
c-65 96 -85 140 -104 235 -11 54 -27 113 -35 133 -14 33 -16 34 -28 19 -7 -10
-25 -18 -40 -18 -19 0 -44 -17 -86 -58 -74 -72 -76 -90 -19 -187 55 -94 58
-104 74 -223 13 -100 15 -106 75 -198 34 -52 60 -101 57 -107 -2 -7 -38 -22
-79 -34 -83 -25 -169 -83 -228 -155 -39 -48 -41 -58 -26 -236 l9 -103 54 -49
c30 -28 60 -50 67 -50 39 0 86 95 86 174 0 74 17 92 107 111 40 8 89 22 109
30 44 18 120 19 154 2 38 -19 36 -48 -6 -76 -19 -14 -48 -43 -64 -65 -43 -63
-72 -86 -141 -109 l-64 -22 3 -38 c2 -25 -9 -66 -37 -131 -55 -132 -58 -151
-29 -176 13 -11 47 -41 75 -66 l53 -47 45 13 c25 7 57 22 70 32 22 17 25 27
25 91 0 107 3 113 69 135 64 21 81 44 81 110 l0 42 126 0 127 0 -5 -80 c-4
-63 -10 -87 -27 -111 -26 -36 -61 -114 -61 -138 0 -10 20 -36 45 -59 48 -43
58 -79 30 -102 -8 -7 -15 -27 -15 -45 0 -58 -30 -81 -156 -121 -317 -98 -389
-104 -515 -41 -100 50 -287 97 -390 97 -120 0 -138 29 -103 163 18 72 69 187
82 187 15 0 32 49 32 91 0 46 -17 83 -70 155 -21 27 -50 75 -65 105 -44 88
-58 99 -131 99 -51 0 -68 4 -89 23 l-27 22 26 45 c47 83 44 168 -9 240 -30 41
-31 59 -6 109 34 66 100 126 156 140 79 21 95 35 95 81 0 22 11 69 25 106 30
81 31 88 4 113 -41 38 -70 36 -186 -14 -119 -51 -143 -71 -143 -120 0 -24 -12
-46 -49 -88 -40 -46 -51 -66 -56 -104 -8 -65 -25 -98 -82 -166 -36 -42 -54
-74 -67 -119 -9 -33 -50 -124 -90 -202 -72 -137 -74 -144 -81 -231 -3 -49 -13
-125 -22 -168 -8 -44 -13 -109 -11 -146 3 -59 8 -73 34 -102 16 -19 56 -72 88
-118 l59 -83 -12 -50 c-6 -28 -30 -89 -53 -137 -36 -74 -41 -95 -41 -151 0
-74 33 -174 63 -190 10 -6 39 -10 63 -10 38 0 49 5 70 30 21 25 33 30 69 30
24 0 60 -5 82 -11 38 -10 38 -11 34 -53 -3 -23 -24 -84 -48 -136 -47 -105 -64
-206 -39 -236 17 -21 123 -74 147 -74 25 0 38 16 47 58 3 17 10 32 13 32 4 0
27 -30 52 -67 44 -66 47 -68 91 -71 97 -6 128 71 73 181 -15 29 -49 84 -76
122 l-49 71 20 44 c31 67 27 112 -16 191 l-37 69 20 27 c11 15 32 36 46 46 24
18 32 18 73 8 25 -6 85 -29 133 -51 63 -28 108 -41 161 -46 49 -4 78 -12 87
-23 97 -121 111 -147 117 -220 5 -64 27 -147 72 -273 l13 -37 -157 -155 c-86
-85 -193 -185 -239 -221 -68 -55 -88 -78 -116 -133 -34 -67 -81 -131 -186
-256 -35 -41 -84 -121 -133 -215 -83 -162 -90 -192 -62 -270 29 -84 29 -131 0
-212 -79 -213 -84 -231 -73 -255 10 -22 17 -24 85 -24 67 0 76 2 98 26 31 33
45 82 45 156 0 48 4 62 28 90 79 92 85 117 52 213 -20 57 -20 57 0 85 11 16
38 68 61 117 22 48 70 140 107 202 107 184 259 323 519 473 48 27 120 78 161
114 80 68 143 104 183 104 13 0 61 -26 109 -60 113 -80 150 -97 245 -109 69
-10 89 -17 145 -56 36 -24 90 -65 120 -91 75 -64 235 -183 290 -216 31 -18 84
-34 160 -48 63 -12 125 -28 137 -36 34 -22 88 -78 133 -138 32 -44 55 -62 121
-95 45 -23 89 -41 99 -41 23 0 175 73 218 105 50 36 166 59 265 51 151 -12
168 -16 178 -43 5 -13 23 -32 40 -41 18 -9 43 -26 57 -38 l26 -21 -47 -45
c-27 -25 -47 -54 -47 -65 0 -12 -3 -28 -6 -37 -9 -24 -84 -20 -156 9 -33 14
-87 30 -119 37 -54 11 -61 10 -86 -8 -62 -46 -75 -49 -228 -54 -93 -4 -184
-13 -239 -25 l-89 -20 -21 30 c-44 62 -103 115 -129 115 -14 0 -59 -17 -99
-38 -53 -27 -74 -43 -76 -59 -4 -27 46 -103 100 -155 l39 -36 -101 -89 c-121
-105 -126 -108 -214 -121 -84 -13 -146 -51 -146 -90 0 -41 31 -186 44 -201 6
-8 38 -27 70 -42 71 -34 72 -34 247 71 95 57 124 70 158 70 47 0 92 20 134 59
35 31 54 67 74 135 19 65 29 76 65 76 16 0 56 12 90 26 l61 25 78 -32 79 -33
0 -44 0 -44 -67 4 -68 5 -55 -57 -55 -57 -86 -6 c-103 -7 -143 -22 -136 -51
28 -118 31 -125 67 -140 59 -25 73 -27 170 -17 71 8 109 18 156 41 34 16 66
30 73 30 6 0 22 -18 37 -39 21 -33 25 -47 19 -80 -7 -43 2 -67 63 -158 32 -49
37 -52 81 -55 43 -3 47 -6 66 -44 11 -23 29 -52 40 -64 31 -34 144 -97 241
-136 101 -39 149 -77 134 -105 -6 -10 -10 -45 -10 -79 0 -47 6 -71 25 -104
l24 -42 -19 -79 c-23 -93 -25 -148 -7 -163 7 -6 39 -21 72 -34 101 -39 309
-27 222 13 -33 15 -33 29 3 104 16 33 27 49 24 35 -6 -28 41 -278 61 -326 19
-45 73 -82 139 -96 46 -9 56 -14 51 -27 -13 -33 -35 -126 -35 -147 0 -20 -6
-22 -97 -29 -54 -5 -166 -7 -248 -6 -186 2 -188 1 -193 -96 -5 -90 7 -104 127
-149 l94 -35 160 11 c166 12 181 16 232 58 82 68 127 61 235 -34 82 -74 135
-102 210 -111 60 -7 70 7 46 67 -9 23 -12 41 -6 45 13 8 46 -11 55 -32 8 -22
20 -223 13 -223 -3 0 -25 9 -49 20 -60 27 -76 25 -153 -15 -37 -19 -76 -35
-86 -35 -29 0 -50 28 -119 160 -35 67 -70 124 -79 127 -10 4 -21 -2 -31 -18
-8 -13 -37 -45 -63 -70 l-48 -45 0 -100 c0 -108 10 -139 72 -233 42 -65 66
-73 154 -54 48 10 91 12 139 8 93 -10 106 -10 205 -1 74 7 92 5 142 -13 83
-32 103 -52 136 -139 47 -125 47 -116 8 -160 -61 -67 -69 -97 -51 -200 39
-220 48 -260 70 -309 27 -60 31 -61 127 -37 77 19 109 47 150 132 29 58 33 78
41 200 8 121 11 137 30 153 20 16 22 28 25 147 3 121 2 132 -17 151 -34 34
-62 26 -93 -24 -25 -42 -67 -70 -91 -62 -7 2 -10 45 -8 114 2 106 1 112 -20
127 -13 9 -31 16 -40 16 -10 0 -23 17 -33 44 -9 23 -32 69 -52 102 -24 40 -34
68 -32 89 4 40 28 36 90 -16 98 -82 149 -84 229 -9 33 31 66 52 92 59 52 13
59 7 17 -16 -18 -10 -44 -27 -57 -38 -25 -20 -25 -23 -13 -80 28 -142 64 -182
220 -241 60 -23 86 -40 130 -85 30 -31 70 -82 89 -113 l34 -56 -16 -54 c-14
-50 -14 -56 2 -83 10 -15 64 -68 120 -117 108 -96 144 -142 139 -178 -3 -20
-13 -25 -77 -36 -41 -7 -85 -11 -99 -7 -14 3 -56 37 -93 76 -68 69 -96 82
-118 55 -18 -21 -126 -56 -196 -63 -74 -7 -95 -17 -95 -46 0 -12 -11 -46 -25
-75 -36 -77 -33 -110 15 -171 43 -54 59 -61 81 -35 11 13 28 15 95 12 111 -6
183 -40 221 -106 129 -227 154 -259 252 -311 74 -39 117 -74 136 -112 14 -26
12 -42 -14 -178 -53 -267 -64 -364 -65 -565 l-1 -189 -128 -53 c-182 -74 -332
-169 -535 -339 -141 -119 -172 -156 -172 -206 0 -60 35 -114 103 -160 74 -49
141 -69 229 -69 62 0 78 -5 166 -49 177 -89 247 -98 420 -56 140 34 395 36
524 5 144 -35 211 -36 301 -6 43 14 113 44 157 66 70 35 90 40 162 44 180 8
318 106 318 225 0 53 -31 91 -163 200 -222 185 -361 274 -538 345 l-80 33 -4
184 c-4 203 -9 246 -62 526 -46 241 -48 235 90 317 114 67 158 115 229 249 55
105 86 136 157 162 57 20 180 20 208 0 20 -14 24 -12 67 36 56 62 63 86 40
130 -10 19 -25 59 -35 89 -9 30 -23 58 -30 61 -8 4 -54 15 -104 24 -49 8 -113
27 -141 40 -28 14 -58 25 -67 25 -8 0 -36 -24 -62 -52 -26 -29 -62 -62 -81
-74 -31 -19 -39 -19 -108 -10 -91 13 -99 20 -85 68 7 28 34 59 107 125 167
152 164 147 140 237 -11 43 -11 46 27 103 21 32 64 83 94 113 46 46 72 61 146
89 56 21 102 46 121 65 33 34 71 123 81 191 6 46 11 40 -75 92 -31 19 -22 27
19 18 18 -4 57 -31 90 -61 86 -79 123 -75 253 30 67 53 93 6 41 -74 -19 -29
-43 -76 -55 -106 -18 -44 -28 -55 -56 -64 -43 -14 -48 -34 -42 -156 l5 -94
-29 0 c-32 0 -63 27 -90 78 -20 37 -35 40 -72 11 -26 -20 -26 -22 -26 -143 0
-122 0 -124 30 -162 30 -36 31 -41 24 -105 -9 -90 16 -198 62 -275 48 -80 50
-82 137 -105 75 -21 78 -21 97 -4 27 25 68 157 79 258 5 45 15 104 21 129 15
60 3 101 -51 162 l-41 46 39 102 39 103 69 34 c63 32 76 35 140 31 73 -3 192
-3 260 1 22 1 77 -4 123 -11 78 -13 84 -13 110 7 15 11 45 55 68 97 36 68 42
87 47 167 4 50 3 98 -2 107 -16 29 -131 142 -145 142 -7 0 -39 -51 -71 -112
-78 -151 -90 -168 -124 -168 -15 0 -58 15 -96 34 -73 36 -97 36 -169 -1 l-29
-15 5 104 c6 111 15 140 50 159 22 12 23 7 2 -82 -8 -35 12 -42 79 -28 75 16
123 44 192 109 102 98 128 101 228 35 63 -43 73 -46 165 -55 188 -18 241 -14
343 26 103 42 109 50 109 144 0 39 -5 64 -15 74 -22 22 -77 30 -155 22 -37 -3
-136 -3 -219 1 l-151 6 0 26 c0 23 -13 77 -35 148 -7 21 -4 23 26 23 45 0 133
42 154 73 15 23 74 286 75 333 0 36 -23 54 -85 65 -55 10 -95 31 -95 50 0 12
60 69 99 94 23 14 53 50 80 96 43 72 44 74 32 119 -6 25 -32 86 -56 135 -25
50 -45 97 -45 106 0 29 44 57 131 83 95 28 120 46 99 71 -7 8 -19 15 -26 15
-8 0 -14 5 -14 10 0 6 1 10 3 10 1 0 33 9 71 20 38 11 105 24 150 31 52 7 107
23 155 45 41 19 78 34 82 34 23 0 4 -22 -54 -63 -80 -58 -146 -129 -154 -168
-4 -21 -18 -39 -44 -56 -46 -30 -73 -26 -122 17 l-34 29 -79 -49 c-43 -28 -82
-60 -87 -73 -16 -42 3 -104 54 -182 27 -42 49 -80 49 -86 0 -6 -29 -52 -64
-102 -35 -51 -67 -102 -70 -114 -5 -15 7 -57 35 -129 41 -101 42 -107 24 -120
-10 -7 -23 -15 -29 -18 -27 -11 25 -26 94 -26 69 0 173 26 218 53 16 11 15 68
-3 142 -19 81 -19 109 5 155 22 43 27 130 10 174 -8 21 -5 28 19 49 15 13 66
38 113 55 47 18 121 54 164 80 69 41 83 54 107 102 32 63 47 74 86 65 24 -5
33 -1 59 30 16 20 42 61 56 90 23 44 26 61 21 98 -6 42 -4 48 27 82 l33 36 60
-30 c103 -53 253 -67 331 -32 38 17 41 22 57 87 23 90 17 96 -100 102 -100 5
-146 27 -184 89 l-22 35 -76 -4 c-67 -3 -76 -1 -79 15 -9 44 7 65 74 96 80 37
97 38 166 6 29 -14 67 -25 85 -25 30 0 32 -3 53 -67 12 -38 33 -85 46 -105 31
-49 104 -91 163 -94 38 -2 71 -17 176 -78 72 -42 140 -79 152 -82 22 -6 134
39 152 60 6 7 18 58 28 115 l18 103 -34 29 c-22 18 -55 32 -90 39 -116 22
-127 28 -236 126 l-107 96 35 29 c46 38 107 121 107 146 0 27 -25 47 -103 83
-67 30 -68 30 -104 14 -30 -15 -74 -63 -103 -114 -10 -18 -56 -15 -166 11 -66
15 -111 19 -203 17 l-117 -3 -60 37 c-55 33 -63 36 -104 28 -25 -5 -75 -20
-111 -34 -37 -14 -89 -28 -116 -32 l-50 -6 -11 45 c-8 30 -25 57 -54 85 -41
40 -42 42 -23 57 11 9 37 25 58 36 21 11 42 30 47 43 12 33 28 37 171 43 111
5 135 3 197 -16 39 -11 83 -32 99 -45 39 -33 160 -86 195 -86 46 0 165 67 201
114 18 22 59 68 92 101 l60 61 130 28 c72 15 146 37 165 49 52 31 216 153 288
214 127 107 175 133 270 149 48 8 90 14 94 14 4 0 58 34 120 76 104 69 116 75
154 71 46 -5 107 -43 191 -118 29 -27 81 -63 115 -80 117 -59 303 -197 395
-293 96 -99 150 -185 264 -415 l67 -134 -19 -55 c-31 -90 -26 -110 41 -192 34
-41 38 -52 43 -123 6 -85 27 -134 68 -154 31 -16 131 -17 147 -1 22 22 12 79
-34 196 -54 136 -59 191 -26 294 15 48 19 75 13 96 -5 16 -43 96 -84 178 -59
116 -92 167 -147 229 -82 92 -151 191 -175 251 -12 32 -37 58 -103 110 -48 37
-157 138 -242 224 l-156 157 18 49 c9 27 17 56 18 65 0 9 9 36 19 60 10 24 22
80 26 124 7 82 15 97 116 227 11 16 32 22 90 28 53 5 102 19 174 50 55 24 119
45 143 48 39 4 45 1 77 -32 19 -21 35 -42 35 -48 0 -6 -16 -39 -35 -74 -41
-73 -45 -120 -15 -190 17 -39 18 -50 8 -64 -53 -72 -79 -113 -107 -164 -52
-97 -38 -177 31 -189 65 -10 83 0 134 77 l48 71 13 -47 c16 -55 29 -62 82 -43
94 33 121 62 121 129 -1 53 -4 64 -64 206 -40 95 -45 135 -18 149 9 5 47 12
83 16 63 7 67 6 74 -14 8 -26 54 -51 95 -51 49 0 83 42 105 128 21 87 17 121
-26 211 -37 77 -69 167 -69 191 0 17 113 183 157 231 20 22 23 35 23 100 0 40
-5 92 -10 114 -6 22 -15 94 -20 159 l-10 119 -69 126 c-38 69 -79 159 -91 200
-17 53 -35 88 -70 130 -61 73 -77 106 -86 170 -5 42 -15 61 -51 101 -31 34
-46 61 -51 91 -9 52 -25 65 -156 123 -97 44 -100 45 -135 30 -67 -28 -69 -34
-38 -122 15 -42 27 -94 27 -114 0 -43 17 -64 62 -73 82 -18 174 -98 199 -172
10 -32 8 -40 -22 -96 -44 -82 -45 -149 -6 -225 15 -29 25 -58 21 -63 -11 -19
-68 -37 -96 -32 -62 12 -101 -16 -139 -96 -12 -25 -42 -73 -67 -106 -60 -80
-75 -119 -70 -177 4 -34 13 -56 36 -82 42 -48 96 -214 89 -275 -3 -24 -11 -47
-18 -51 -7 -5 -56 -11 -108 -15 -153 -11 -336 -62 -410 -114 -23 -17 -45 -21
-122 -21 -85 -1 -110 3 -267 49 -95 28 -183 56 -195 62 -34 17 -56 51 -57 84
0 17 -7 39 -15 49 -26 35 -18 62 30 102 57 46 57 66 3 164 -34 63 -42 87 -46
147 l-5 71 64 7 c35 3 91 5 124 3 l60 -3 6 -58 c4 -32 9 -60 12 -63 3 -3 31
-16 63 -29 32 -13 61 -32 65 -42 4 -10 8 -50 8 -90 1 -84 16 -105 91 -127 l45
-14 40 38 c22 21 55 45 72 54 50 25 50 51 4 166 -25 61 -41 119 -41 144 0 54
-6 62 -60 76 -65 17 -103 44 -141 99 -18 26 -50 60 -71 75 -62 44 -48 76 38
90 29 5 58 1 100 -13 32 -11 83 -24 112 -30 94 -19 111 -34 112 -96 1 -96 41
-185 84 -185 13 0 42 20 73 53 l52 52 10 129 c12 158 9 169 -84 254 -67 61
-118 87 -220 113 l-45 11 26 47 c15 25 45 72 67 103 35 51 40 66 48 144 12
118 21 147 74 234 24 41 45 88 45 103 0 40 -102 147 -140 147 -17 0 -33 8 -42
22 l-15 22 -12 -23 c-7 -12 -24 -75 -37 -139 -22 -103 -31 -127 -77 -200 -28
-45 -56 -81 -62 -79 -5 2 -19 25 -29 51 -18 43 -19 52 -7 124 16 94 32 127 83
172 39 34 40 37 53 135 24 188 26 303 7 375 l-17 65 -64 33 c-86 43 -124 42
-167 -3 -18 -20 -39 -55 -45 -78 -17 -57 -22 -63 -74 -77 -49 -14 -130 -78
-141 -112 -5 -16 -8 -18 -15 -7 -14 23 -10 73 9 99 13 19 17 45 17 107 0 76
-2 83 -20 83 -29 0 -106 -25 -154 -50 -54 -27 -77 -66 -91 -154 -6 -39 -13
-81 -16 -93 -3 -17 -48 -44 -212 -124 -114 -56 -219 -113 -235 -127 l-27 -26
-106 12 c-116 13 -121 12 -189 -43 -57 -45 -54 -44 -168 -71 -63 -15 -129 -40
-172 -63 -48 -27 -114 -50 -214 -75 -150 -37 -186 -42 -210 -27 -11 7 -6 13
22 25 29 11 37 21 37 40 0 50 8 56 76 56 82 0 109 22 101 82 -5 36 -2 43 46
95 50 53 55 55 117 63 71 9 160 37 260 82 l66 30 59 -18 c86 -25 185 -22 260
8 l60 24 3 81 c3 77 2 82 -20 89 -27 8 -109 8 -141 -1 -18 -5 -15 0 13 26 64
57 90 69 156 69 55 0 63 -3 79 -26 25 -39 73 -28 136 31 42 39 54 45 91 45 40
0 47 5 106 67 34 36 65 78 68 92 20 92 46 162 65 172 12 6 58 17 103 25 49 9
88 21 99 33 17 17 17 22 2 107 -9 49 -27 129 -40 177 -14 51 -29 149 -36 230
-15 178 -23 217 -49 217 -29 0 -84 -53 -130 -126 -22 -36 -48 -68 -57 -71 -9
-4 -46 1 -82 10 -35 10 -68 14 -73 9 -4 -4 -12 -43 -18 -86 -13 -106 -1 -135
71 -165 82 -33 82 -33 111 -102 32 -76 39 -68 -111 -119 l-105 -35 -40 -82
-41 -83 -70 0 c-115 0 -138 -11 -203 -95 l-57 -73 -56 5 -56 6 -39 -49 c-129
-159 -182 -194 -308 -201 -71 -5 -84 -3 -106 15 l-24 20 39 35 c77 69 171 136
254 181 117 64 538 384 600 455 59 68 58 65 121 290 26 97 53 189 60 205 6 16
15 63 21 105 6 45 22 102 41 141 44 94 48 114 38 178 -5 31 -16 105 -24 164
-7 60 -20 115 -27 124 -11 14 -26 15 -85 10 l-72 -6 -7 37 c-4 21 -13 50 -21
65 -8 15 -14 51 -14 81 0 59 -7 68 -90 124 -69 47 -97 80 -116 136 -9 29 -30
87 -46 129 -28 75 -31 78 -85 104 -76 37 -143 39 -178 3 -27 -27 -41 -82 -31
-122 4 -16 29 -40 71 -67 36 -24 70 -50 75 -59 4 -9 13 -52 19 -95 11 -74 22
-103 85 -220 35 -65 34 -82 -8 -96 -88 -29 -128 52 -113 235 2 28 -3 32 -73
67 -41 20 -86 37 -99 37 -56 2 -191 -138 -191 -197 0 -14 9 -55 20 -92 l20
-68 58 -14 c54 -13 59 -17 85 -65 l27 -51 -37 -23 c-67 -40 -83 -59 -83 -102
0 -34 7 -45 50 -87 28 -27 50 -57 50 -69 0 -14 -22 -35 -74 -70 -89 -61 -121
-97 -129 -149 -5 -26 -30 -72 -77 -138 -43 -59 -82 -129 -101 -177 -39 -103
-52 -121 -117 -169 -42 -32 -60 -53 -82 -103 -16 -35 -38 -68 -49 -74 -22 -12
-71 -15 -71 -4 0 3 20 40 43 82 24 42 55 101 69 131 14 30 46 82 71 116 25 33
50 79 55 102 12 51 39 90 115 169 59 60 60 62 47 93 -7 17 -46 72 -87 123 -43
54 -78 108 -84 131 -6 22 -24 51 -40 65 -16 14 -29 29 -29 33 0 13 76 47 120
54 38 6 44 11 62 52 30 68 9 161 -46 197 -21 14 -29 13 -91 -6 -37 -11 -73
-23 -80 -26 -28 -10 -48 56 -46 151 1 49 3 92 5 94 3 2 47 14 99 27 53 13 122
37 154 54 33 16 84 36 114 45 29 9 60 20 68 25 16 10 17 64 3 102 -7 17 -4 41
9 84 16 51 17 68 7 118 -12 64 -28 81 -91 98 -28 7 -42 7 -52 -1 -8 -7 -55
-76 -104 -154 -95 -151 -154 -216 -214 -235 -42 -14 -54 -9 -68 26 -16 43 -40
224 -31 239 16 29 149 127 224 165 55 28 82 48 93 70 20 37 22 77 6 106 -10
20 -64 43 -99 43 -9 0 -12 18 -11 63 2 84 -17 120 -81 152 -27 14 -56 25 -64
25 -21 0 -34 -55 -43 -194 -6 -95 -11 -121 -25 -130 -48 -29 -109 113 -129
299 -12 109 -36 177 -68 194 -33 18 -135 25 -160 11 -47 -25 -64 -117 -36
-195 11 -30 12 -49 4 -78 -14 -53 1 -93 56 -147 44 -44 45 -45 45 -111 0 -64
2 -69 45 -121 l44 -54 -11 -150 -11 -149 -44 -46 c-58 -61 -67 -96 -48 -195
24 -127 21 -178 -17 -230 -35 -49 -47 -101 -47 -216 -1 -64 2 -78 14 -78 28 0
65 -31 65 -55 0 -23 -90 -145 -142 -193 l-25 -22 -26 37 c-39 56 -89 163 -94
204 -3 20 2 61 11 92 9 30 16 71 16 91 0 19 12 66 26 103 48 125 48 113 -2
252 -26 69 -52 138 -60 152 l-13 26 72 0 c102 0 146 11 159 37 12 28 -4 123
-29 175 l-18 36 -68 -3 c-76 -3 -131 17 -125 46 2 13 12 16 40 14 47 -4 54 8
63 126 9 122 6 126 -132 162 -24 6 -43 14 -43 18 0 4 23 35 51 67 97 114 102
158 20 199 -35 18 -51 34 -60 58 -24 65 -37 83 -73 100 -37 18 -68 69 -97 159
-8 26 -21 41 -42 49 -64 27 -79 47 -79 105 0 30 4 57 10 60 6 3 7 43 3 101 -5
86 -4 96 14 117 38 41 93 172 93 220 0 35 -29 47 -110 47 -76 0 -85 -4 -121
-56 -44 -65 -61 -60 -139 38 -111 141 -142 168 -185 168 -32 0 -47 -8 -95 -52
-31 -29 -86 -74 -123 -100 -72 -51 -104 -99 -94 -140 9 -33 61 -104 92 -124
25 -17 27 -16 71 14 53 38 91 41 165 11 76 -29 106 -54 135 -110 22 -44 26
-68 31 -187 5 -124 9 -142 34 -194 25 -49 29 -69 29 -135 0 -101 -8 -114 -52
-89 -52 30 -77 56 -119 127 -48 80 -71 103 -96 95 -10 -3 -49 -37 -87 -75 -62
-63 -68 -71 -61 -99 4 -20 32 -55 81 -102 110 -105 148 -126 252 -140 48 -7
93 -17 100 -22 6 -6 12 -28 12 -50 0 -63 13 -78 69 -78 27 0 53 -6 59 -12 6
-7 28 -58 50 -114 32 -79 44 -127 55 -220 15 -125 12 -145 -24 -164 -28 -16
-42 -1 -58 60 -11 41 -24 60 -74 106 -66 60 -143 114 -163 114 -15 0 -114
-102 -131 -135 -18 -33 -9 -48 53 -95 29 -22 72 -65 94 -94 23 -30 55 -61 73
-69 69 -32 226 -97 236 -97 19 0 54 -94 72 -198 10 -59 21 -117 25 -129 10
-36 -24 -29 -89 17 -30 22 -63 40 -71 40 -9 0 -36 -16 -62 -35 -25 -19 -55
-35 -67 -35 -25 0 -147 78 -147 94 0 6 14 44 32 84 43 99 37 115 -65 167 -54
28 -84 50 -97 72 -12 20 -30 35 -47 38 -50 11 -58 21 -80 106 -12 46 -32 110
-44 142 -13 35 -19 68 -16 86 7 34 -6 47 -143 148 -153 112 -176 140 -201 236
-6 25 -18 52 -28 60 -22 20 -87 37 -143 37 -40 0 -50 -4 -64 -26 -15 -22 -16
-33 -6 -87 18 -95 50 -192 73 -221 11 -14 76 -64 144 -111 121 -83 155 -121
155 -170 0 -16 -10 -17 -112 -10 -87 6 -118 12 -137 26 -19 15 -39 19 -110 18
-62 -1 -96 3 -118 14 -38 20 -83 72 -83 97 0 13 -22 30 -70 56 -40 21 -87 56
-109 80 -48 55 -66 56 -216 9 -162 -50 -174 -73 -94 -175 56 -70 89 -83 198
-75 133 10 154 -5 182 -136 15 -71 33 -85 117 -94 51 -5 80 -14 103 -31 29
-21 43 -24 129 -24 53 0 122 7 153 15 32 8 101 15 153 15 88 0 97 -2 120 -25
14 -14 39 -56 56 -93 33 -70 59 -108 141 -205 27 -32 47 -60 45 -63 -3 -2 -36
-6 -74 -7 -83 -2 -112 15 -175 99 -42 58 -62 67 -129 62 -105 -8 -119 -146
-25 -256 25 -30 29 -32 45 -17 27 24 44 18 61 -24 26 -62 52 -73 212 -87 78
-7 156 -16 174 -19 18 -4 68 -2 112 4 80 12 81 12 151 -19 40 -17 104 -38 143
-46 40 -8 75 -18 78 -22 30 -32 115 -289 134 -401 7 -42 6 -43 -16 -36 -13 4
-65 32 -115 61 -50 30 -100 54 -111 54 -11 0 -26 7 -33 15 -15 18 -68 19 -121
3 -37 -11 -42 -9 -76 18 -20 17 -41 44 -47 61 -17 48 -22 49 -69 10 -92 -76
-97 -146 -20 -283 36 -65 54 -87 82 -100 55 -27 118 -28 190 -5 61 19 67 19
130 4 122 -29 134 -41 85 -90 -25 -25 -28 -25 -114 -19 -88 7 -89 7 -106 -20
-10 -15 -20 -53 -22 -86 -4 -53 -2 -62 21 -86 37 -40 47 -66 47 -119 0 -37 8
-60 34 -103 45 -73 69 -189 56 -261 -10 -51 -10 -51 30 -96 47 -54 70 -119 77
-220 5 -65 2 -82 -33 -182 -36 -102 -38 -112 -25 -146 13 -36 13 -37 -28 -72
-45 -38 -74 -87 -86 -143 -4 -19 -16 -49 -26 -67 -20 -31 -20 -31 1 -38 11 -4
41 -5 67 -4 45 3 47 2 55 -29 5 -18 8 -65 6 -105 l-3 -72 -40 3 c-108 9 -95
17 -135 -84 -19 -50 -43 -113 -52 -140 -9 -27 -23 -57 -30 -67 -13 -18 -15
-17 -41 3 -15 12 -46 24 -67 27 -22 3 -40 8 -40 10 0 3 16 33 35 67 39 70 48
143 20 166 -23 19 -19 30 25 75 48 48 60 99 60 245 0 76 3 100 16 111 26 21
42 61 49 124 4 33 15 119 25 190 10 72 24 179 30 238 l12 108 -45 68 c-25 38
-59 95 -75 128 -17 33 -50 83 -75 111 -24 29 -69 102 -101 164 -68 133 -71
137 -113 154 -28 12 -32 19 -38 66 -3 29 -13 76 -20 103 -8 28 -19 93 -25 145
-17 142 -38 180 -102 180 -29 0 -33 6 -43 85 -9 72 -26 92 -93 111 -43 13 -67
27 -97 60 -41 45 -62 53 -82 33 -19 -19 -47 -1 -133 80 l-83 79 6 45 6 46 -52
37 c-36 26 -75 43 -127 56 -41 10 -87 23 -102 29 -25 10 -30 8 -61 -25 -36
-37 -67 -46 -85 -23 -7 7 -20 51 -31 98 -20 83 -22 85 -96 158 -73 71 -75 75
-75 121 l0 48 -42 10 c-24 6 -62 13 -85 17 -28 4 -62 22 -100 51 -62 48 -63
49 -177 30 -99 -16 -120 -36 -129 -123 -11 -108 15 -207 62 -232 24 -13 104 9
155 44 l36 24 60 -26 c41 -17 62 -32 65 -47 3 -11 10 -43 15 -71 16 -71 32
-92 82 -102 37 -7 45 -13 55 -43 20 -60 16 -107 -14 -145 l-27 -33 -70 35
c-39 20 -102 55 -141 78 -50 31 -86 45 -125 50 -52 6 -57 5 -87 -25 -42 -41
-43 -75 -3 -159 25 -53 29 -71 24 -110 -5 -41 -2 -50 27 -89 18 -23 42 -45 52
-48 25 -8 55 21 78 74 22 50 33 48 59 -13 14 -32 31 -51 65 -71 l47 -27 93 48
c88 44 96 47 117 33 13 -8 38 -20 56 -26 32 -11 34 -10 48 23 20 48 18 76 -11
147 -14 34 -25 63 -25 65 0 1 31 2 69 2 56 -1 76 3 100 20 l29 21 21 -29 c23
-32 56 -146 46 -161 -3 -6 -15 -10 -26 -10 -33 0 -114 -47 -147 -85 -45 -51
-42 -84 16 -170 26 -38 54 -71 63 -73 24 -4 65 33 111 105 l42 66 76 -6 c148
-12 188 -37 210 -127 13 -52 12 -54 -11 -69 -13 -9 -51 -41 -85 -72 -34 -30
-85 -73 -113 -94 l-51 -39 0 -69 c0 -79 15 -139 40 -162 9 -8 43 -26 76 -39
43 -18 60 -30 65 -48 5 -20 11 -23 48 -21 80 4 142 32 197 90 l52 53 12 -65
c17 -92 87 -189 181 -251 37 -24 52 -46 98 -137 29 -60 51 -110 48 -113 -2 -3
-29 16 -58 42 -30 25 -69 53 -86 62 -32 15 -35 14 -94 -16 -73 -38 -83 -39
-128 -11 -49 29 -55 17 -42 -87 8 -69 20 -108 56 -183 29 -62 41 -99 35 -105
-7 -7 -36 -4 -84 8 -122 31 -230 7 -359 -81 -161 -109 -179 -141 -115 -205 19
-19 20 -29 15 -119 -3 -54 -3 -100 1 -103 10 -6 163 33 179 46 6 5 30 47 53
94 23 47 47 83 53 81 6 -2 32 -30 57 -63 33 -42 64 -68 108 -92 48 -26 62 -38
62 -56 0 -31 -18 -46 -57 -46 -39 0 -93 -20 -110 -42 -7 -8 -16 -29 -19 -47
-6 -29 -1 -37 64 -103 l71 -70 61 4 c48 3 66 10 88 31 61 58 78 28 68 -121 -4
-54 -7 -106 -7 -117 0 -11 16 -33 36 -49 44 -35 69 -80 61 -112 -10 -39 -46
-30 -116 31 -36 31 -75 58 -88 62 -37 9 -82 -5 -154 -48 -55 -34 -68 -46 -68
-66 0 -36 31 -81 84 -126 25 -21 46 -45 46 -53 0 -20 -53 -50 -102 -58 -22 -4
-49 -11 -59 -17 -26 -13 -24 -54 4 -92 17 -25 21 -43 19 -79 -4 -45 -2 -48 21
-48 13 0 70 14 126 31 55 17 108 28 116 25 22 -8 18 -40 -10 -96 -29 -58 -30
-80 -5 -140 l18 -45 -58 -55 c-54 -52 -59 -60 -76 -134 -14 -62 -23 -81 -41
-89 -51 -23 -93 -120 -93 -219 0 -60 -8 -74 -59 -104 -52 -31 -71 -80 -83
-221 -10 -113 -14 -132 -41 -175 -26 -42 -29 -54 -24 -102 5 -49 3 -55 -21
-73 -43 -32 -186 -164 -196 -180 -4 -9 -14 -73 -22 -144 -11 -111 -20 -145
-58 -242 -27 -69 -54 -163 -70 -245 -15 -75 -39 -161 -55 -197 -33 -72 -106
-188 -160 -254 -44 -54 -129 -123 -142 -115 -5 3 -9 23 -9 45 0 78 -60 59
-177 -57 -59 -59 -80 -73 -114 -78 -23 -4 -44 -4 -47 -1 -7 6 13 142 33 233
19 84 36 108 89 126 34 12 45 24 86 97 26 46 70 125 99 174 55 96 91 195 91
253 0 28 8 43 41 75 23 21 61 47 85 57 46 20 45 18 78 160 19 79 20 124 4 150
-15 24 2 45 78 95 56 37 54 32 69 175 5 44 1 67 -18 115 -22 58 -24 60 -68 67
-105 17 -109 19 -109 37 0 10 11 44 26 76 14 32 32 92 41 134 8 42 28 104 44
138 l28 63 82 0 82 0 49 53 c33 35 47 58 45 72 -15 69 -41 164 -51 185 -13 28
-42 31 -161 16 -54 -7 -66 -5 -128 23 -78 36 -95 59 -132 174 -27 86 -32 139
-12 155 19 16 113 40 201 52 45 6 93 19 111 30 18 11 44 20 58 20 14 0 33 3
42 6 21 8 48 64 70 141 18 65 69 137 106 148 18 6 19 12 13 53 -10 72 -52 197
-71 215 -17 14 -23 13 -78 -9 -33 -14 -95 -29 -138 -33 -45 -5 -85 -15 -93
-23 -8 -8 -28 -67 -44 -132 -16 -65 -31 -121 -34 -123 -3 -3 -34 -8 -69 -10
-61 -5 -66 -4 -81 19 -24 36 -39 186 -33 315 4 62 2 126 -4 145 -5 18 -14 88
-19 155 -12 135 -15 116 63 306 25 60 59 164 77 231 l32 122 85 68 85 68 27
-26 c31 -30 54 -32 163 -15 122 19 148 28 158 52 8 21 38 137 43 166 1 9 -31
33 -78 61 -87 50 -219 145 -249 179 -11 11 -27 21 -36 21 -10 0 -79 -63 -154
-140 -146 -151 -166 -162 -217 -121 l-23 18 29 49 c16 27 48 77 72 112 24 35
43 69 43 77 0 19 -45 53 -80 59 -17 3 -43 9 -60 12 -39 7 -38 29 3 54 38 24
94 26 124 5 20 -14 23 -14 31 2 17 31 32 122 32 186 0 106 -63 197 -114 164
-10 -7 -27 -36 -38 -65 -16 -42 -30 -59 -75 -92 -63 -45 -73 -47 -114 -23
l-28 17 34 23 c24 16 35 31 35 49 0 42 -28 97 -67 131 -35 30 -36 33 -24 60
10 22 51 166 51 179 0 2 -18 13 -40 24 -23 12 -50 30 -60 40 -26 26 -64 25
-107 -1 -31 -20 -38 -20 -74 -9 -50 17 -66 4 -74 -58 -12 -85 -12 -86 -47 -57
-44 37 -93 34 -118 -7 -11 -18 -20 -41 -20 -50 0 -29 -49 -77 -86 -84 -19 -3
-34 -12 -34 -19 0 -13 76 -53 142 -74 22 -7 51 -29 74 -58 20 -25 68 -65 106
-89 37 -24 68 -48 68 -52 0 -4 -20 -22 -45 -40 -50 -35 -63 -68 -45 -111 21
-52 49 -73 85 -67 32 6 32 6 54 -54 14 -37 41 -82 72 -117 l49 -56 0 -126 c0
-150 15 -228 64 -335 33 -72 36 -85 31 -140 -4 -34 -22 -103 -42 -154 l-36
-93 -28 35 c-31 37 -119 86 -156 86 -13 0 -28 10 -36 23 -7 12 -31 51 -52 86
l-38 63 19 109 c22 135 16 174 -64 408 -52 153 -57 175 -62 279 -6 134 -9 138
-122 174 -68 22 -73 26 -107 80 -20 32 -53 89 -74 128 -35 65 -40 71 -82 81
-45 11 -45 11 -45 56 l0 45 -68 -64 c-38 -34 -83 -80 -101 -100 l-32 -36 43
-41 c24 -23 66 -62 93 -89 61 -57 205 -283 205 -321 0 -39 35 -159 52 -179 28
-31 40 -63 49 -131 5 -36 19 -96 31 -133 12 -37 19 -70 15 -74 -13 -13 -87 47
-139 113 -47 60 -53 72 -54 118 0 27 -8 70 -18 94 -9 25 -20 73 -23 108 -6 62
-6 63 -42 72 -79 21 -87 19 -141 -34 -27 -27 -50 -55 -50 -61 0 -7 11 -25 24
-41 31 -37 56 -87 56 -111 0 -11 -8 -39 -19 -62 -19 -42 -19 -42 5 -114 12
-39 29 -91 36 -116 11 -38 18 -47 47 -56 34 -11 56 -32 114 -108 25 -33 32
-36 76 -36 44 0 52 -4 84 -39 45 -50 53 -66 62 -121 10 -64 20 -77 62 -84 129
-23 143 -38 118 -122 -13 -47 -14 -64 -4 -109 11 -48 10 -55 -10 -81 l-21 -29
21 -80 c11 -44 25 -85 31 -92 5 -6 31 -19 56 -27 58 -20 208 -145 227 -190 9
-21 14 -84 16 -182 l2 -149 -24 3 c-34 4 -66 38 -76 81 -8 32 -14 38 -56 50
-37 12 -49 20 -53 40 -12 54 -16 61 -50 81 l-34 22 6 77 c6 73 5 79 -17 99
-28 27 -23 27 -94 2 -95 -33 -124 -20 -70 30 32 30 31 53 -3 115 -21 39 -34
51 -57 55 -40 7 -57 53 -49 132 8 76 -10 118 -49 118 -16 0 -37 4 -47 10 -16
8 -17 14 -7 45 18 59 0 80 -85 106 -124 37 -142 37 -169 -1 -13 -17 -36 -38
-51 -46 -67 -35 -45 -174 27 -174 28 0 39 -13 88 -108 22 -42 49 -95 60 -117
18 -34 22 -58 22 -152 0 -132 -6 -143 -85 -151 l-52 -5 -25 -55 c-13 -31 -33
-68 -44 -83 -25 -35 -24 -43 11 -117 24 -52 30 -77 30 -133 l0 -69 50 -25 c54
-27 59 -38 33 -67 -16 -18 -15 -21 27 -58 33 -29 54 -39 79 -40 31 0 33 -2 27
-27 -4 -16 -10 -51 -13 -79 -4 -44 -2 -55 16 -73 30 -30 55 -26 100 14 27 24
48 35 70 35 54 0 52 -27 -7 -80 -29 -26 -52 -52 -52 -58 0 -18 52 -176 63
-190 5 -7 17 -11 26 -10 13 3 16 -6 14 -45 -2 -64 -8 -77 -36 -77 -16 0 -43
21 -84 64 -68 72 -108 90 -170 75 -47 -10 -147 -55 -161 -72 -6 -7 -20 -47
-33 -90 -29 -100 -22 -108 59 -79 74 27 76 27 116 -3 18 -14 45 -25 60 -25 41
0 27 -21 -32 -50 -51 -24 -52 -26 -52 -67 0 -30 6 -48 21 -62 l22 -20 -22 -51
-22 -51 55 -54 c30 -29 62 -55 71 -58 20 -8 19 -26 -5 -82 -11 -26 -20 -63
-20 -83 -1 -20 -7 -48 -15 -62 l-14 -25 -1 38 c0 20 -4 37 -10 37 -5 0 -37
-18 -72 -39 -34 -22 -65 -38 -69 -35 -4 2 -6 19 -3 37 3 17 1 37 -3 43 -14 20
-97 57 -152 68 -36 8 -58 18 -65 31 -6 11 -12 22 -13 24 -2 2 -18 -13 -37 -35
l-33 -39 -41 29 c-59 41 -63 48 -65 118 -2 49 -8 72 -29 103 -22 34 -27 55
-33 144 -9 133 -26 193 -66 223 -74 56 -76 59 -81 144 -7 94 -31 150 -81 188
-28 22 -36 37 -52 103 -18 79 -42 114 -105 154 -24 16 -24 18 -12 60 25 83 25
96 -2 155 -49 106 -34 114 130 64 54 -17 104 -28 112 -25 9 3 12 20 11 54 -2
37 3 55 19 76 12 15 22 38 22 51 0 27 -34 54 -68 54 -46 0 -111 37 -112 63 0
4 25 31 56 60 62 57 87 102 73 128 -4 9 -39 35 -77 58 -54 32 -78 41 -115 41
-42 0 -53 -6 -118 -60 -39 -33 -77 -60 -85 -60 -7 0 -18 9 -24 21 -17 32 3 78
56 124 l45 40 -11 54 c-11 59 -13 163 -4 199 8 30 38 28 61 -4 18 -25 70 -43
124 -44 30 0 131 86 155 132 33 63 -17 128 -98 128 -24 0 -46 8 -65 24 -34 30
-26 43 59 88 46 24 69 46 99 90 22 32 46 58 54 58 8 0 32 -35 54 -78 22 -43
47 -84 56 -92 17 -14 133 -48 168 -49 16 -1 17 8 11 99 l-7 99 32 36 c32 37
34 60 8 93 -21 26 -177 133 -229 157 -72 33 -190 47 -242 29 -53 -19 -106 -18
-106 1 0 9 12 39 26 68 46 90 64 156 64 234 0 76 -12 92 -40 58 -19 -23 -80
-18 -125 10 -66 40 -87 35 -189 -49 -25 -21 -49 -37 -52 -34 -2 3 21 55 51
117 48 95 61 114 94 130 20 11 64 50 97 87 53 61 61 76 80 152 l21 85 31 -45
c38 -56 131 -102 207 -102 44 -1 50 2 53 21 2 16 16 26 53 38 99 33 129 80
129 207 l0 66 -52 43 c-103 85 -203 173 -210 184 -12 19 13 103 38 128 27 27
108 48 194 50 l53 2 47 -69 c26 -37 61 -77 78 -88 l31 -20 26 28 c40 43 85
129 85 162 0 18 -10 43 -25 61 -25 29 -134 91 -161 91 -7 0 -15 4 -19 9 -9 16
15 103 41 148 l24 42 37 -24 c29 -20 48 -25 100 -25 58 0 64 -2 58 -17 -49
-116 -54 -163 -21 -209 14 -19 16 -18 69 8 l56 27 36 -24 c20 -14 39 -25 42
-25 4 0 26 -9 50 -21 27 -13 53 -19 68 -15 37 9 91 61 101 98 14 46 42 44 59
-5 28 -81 65 -89 120 -24 33 38 36 46 32 87 -4 35 1 59 24 112 40 92 39 127
-7 168 -26 22 -43 30 -58 26 -11 -3 -32 -6 -46 -6 -14 0 -50 -16 -80 -36 -57
-37 -224 -124 -237 -124 -5 0 -19 17 -32 37 -19 30 -22 45 -18 86 8 65 30 97
65 97 40 0 69 36 82 100 17 86 24 95 82 119 l54 22 68 -36 c101 -53 141 -46
171 27 12 30 18 71 18 134 1 137 -11 148 -173 172 -72 10 -97 3 -139 -42 -25
-27 -58 -40 -126 -51 -22 -3 -52 -11 -67 -17 -25 -9 -28 -16 -28 -56 0 -43 -4
-50 -78 -126 -78 -80 -79 -82 -96 -164 -20 -94 -34 -108 -84 -87 -17 8 -32 18
-32 22 0 4 -7 16 -14 26 -12 16 -16 16 -48 2 -20 -8 -69 -22 -109 -31 -45 -10
-84 -25 -99 -39 -14 -12 -35 -28 -48 -34 -20 -11 -22 -17 -16 -62 7 -49 6 -50
-37 -90 -111 -104 -150 -132 -161 -121 -24 24 -58 12 -106 -38 -35 -36 -56
-50 -76 -50 -33 0 -82 -24 -90 -45 -3 -8 -8 -44 -12 -80 -7 -63 -8 -65 -35
-65 -17 0 -41 -11 -60 -28 -29 -26 -32 -35 -46 -142 -8 -63 -21 -137 -29 -164
-8 -27 -14 -68 -14 -90 0 -51 -5 -58 -56 -84 -36 -18 -46 -33 -96 -134 -30
-63 -76 -139 -102 -171 -25 -31 -62 -87 -82 -124 -19 -37 -55 -96 -80 -131
-24 -35 -42 -67 -39 -72 3 -5 10 -51 15 -102 5 -51 23 -185 39 -297 27 -179
33 -207 55 -230 22 -24 24 -36 29 -156 5 -141 14 -177 52 -207 42 -33 47 -51
25 -94 -11 -21 -20 -43 -20 -49 0 -6 17 -44 37 -85 21 -41 39 -78 41 -82 2 -5
-5 -8 -15 -8 -11 0 -42 -11 -69 -25 l-49 -25 -17 23 c-10 12 -27 51 -39 87
-36 109 -80 210 -92 210 -6 0 -30 -7 -54 -16 -65 -25 -73 -17 -73 69 0 41 3
89 6 106 6 31 7 31 69 31 34 0 65 3 68 7 4 3 0 17 -8 30 -9 13 -25 53 -36 88
-15 51 -30 75 -70 114 -43 43 -49 53 -40 70 18 32 13 64 -24 160 -40 103 -43
152 -19 265 13 60 25 85 59 126 42 51 42 53 37 115 -7 88 14 184 51 242 23 37
32 64 38 116 5 57 11 73 36 100 17 18 33 40 36 50 9 23 -11 115 -30 146 -14
21 -19 23 -62 16 -120 -20 -171 -3 -171 57 0 22 5 28 21 28 11 0 49 8 84 17
61 16 65 16 137 -5 66 -20 81 -21 129 -11 65 14 99 47 148 142 40 80 50 141
28 184 -18 35 -91 103 -110 103 -8 0 -18 -17 -23 -37 -12 -51 -65 -87 -114
-78 -96 18 -152 2 -291 -84 -76 -46 -119 -62 -119 -44 0 38 50 225 77 288 19
44 41 97 50 118 12 28 22 37 41 37 41 0 143 30 202 60 51 26 60 27 110 18 30
-6 89 -7 130 -4 41 4 129 10 196 15 144 10 173 23 204 86 24 49 31 53 50 30 7
-8 18 -15 24 -15 18 1 73 81 86 127 25 84 -16 163 -85 163 -50 0 -70 -12 -151
-97 l-71 -73 -64 0 c-35 0 -69 4 -76 8 -7 5 12 36 58 92 38 47 89 123 114 170
24 47 53 94 64 104 26 23 157 33 221 16 25 -7 101 -16 169 -21 122 -8 125 -8
152 16 16 13 46 26 69 29 22 3 58 9 79 12 51 7 65 25 86 111 26 109 32 113
176 113 l120 0 47 44 c26 25 58 63 70 85 l23 41 -24 24 c-24 24 -185 80 -265
93 -33 6 -39 2 -76 -40 -23 -25 -72 -63 -110 -85 -54 -30 -71 -45 -80 -71 -7
-20 -28 -46 -55 -65 -40 -29 -49 -31 -135 -32 -73 -1 -99 -5 -131 -22 -33 -18
-56 -22 -138 -22 l-99 0 6 28 c11 43 38 74 112 124 202 139 189 126 223 232
17 53 34 120 37 150 6 47 4 56 -16 76 -20 20 -28 21 -78 15 -115 -14 -124 -20
-155 -110 -15 -44 -40 -93 -55 -108 -15 -16 -87 -74 -160 -128 -128 -96 -133
-101 -127 -130 5 -20 -3 -59 -23 -122 -17 -50 -36 -116 -42 -145 -12 -53 -30
-72 -69 -72 -12 0 -34 -17 -53 -41 -21 -26 -53 -50 -88 -66 -64 -28 -100 -59
-100 -86 0 -10 14 -49 30 -87 17 -38 30 -75 30 -83 0 -21 -112 -87 -148 -87
-18 0 -45 13 -73 35 -24 19 -49 35 -55 35 -6 0 -29 -14 -50 -31 -41 -33 -94
-60 -105 -53 -4 2 -3 21 2 41 5 21 16 80 24 131 25 151 31 159 182 222 97 40
137 62 163 90 19 21 51 55 71 76 20 22 55 55 78 75 22 20 41 40 41 46 0 5 -26
41 -58 79 -39 46 -66 70 -83 72 -29 3 -75 -26 -160 -101 -49 -43 -62 -62 -80
-114 -22 -68 -41 -79 -75 -46 -14 15 -16 30 -10 109 7 97 28 186 70 299 31 82
48 98 93 90 44 -8 68 18 77 83 6 50 8 51 44 57 170 27 166 25 276 114 77 62
126 123 126 155 0 23 -144 166 -167 166 -13 0 -40 -35 -101 -132 -33 -53 -97
-108 -125 -108 -21 0 -27 22 -27 101 0 57 5 80 30 129 29 57 30 65 30 185 0
124 0 126 36 196 34 68 38 72 100 100 35 16 84 32 107 35 37 5 47 2 81 -25 44
-35 62 -38 94 -15 28 20 82 112 82 141 0 28 -58 94 -119 136 -25 17 -74 55
-109 84 -35 29 -71 53 -80 53 -9 0 -34 -10 -54 -23z m-2322 -2911 l28 -23 -22
-28 c-12 -15 -22 -42 -22 -60 0 -30 43 -128 75 -169 14 -19 16 -19 50 -3 20 9
54 17 77 17 39 0 40 -1 34 -27 -4 -16 -9 -46 -12 -69 -6 -40 -5 -42 47 -85 29
-24 72 -62 97 -84 l44 -41 -18 -36 c-17 -36 -17 -37 11 -94 16 -33 59 -89 105
-136 75 -77 78 -79 113 -73 27 5 44 3 62 -9 43 -28 103 -113 110 -156 8 -50
26 -60 103 -60 l60 0 7 -40 c6 -33 18 -50 71 -96 81 -72 83 -91 14 -124 -28
-13 -55 -29 -60 -35 -14 -16 36 -89 104 -154 56 -52 84 -62 106 -36 13 16 108
20 143 7 28 -12 177 -204 177 -229 0 -21 -5 -23 -47 -23 -26 0 -74 8 -106 17
-60 16 -60 16 -79 -6 -26 -33 -25 -120 2 -154 11 -14 46 -35 78 -47 95 -36
122 -51 122 -70 0 -20 -46 -45 -101 -55 -47 -9 -91 10 -156 69 -49 44 -54 53
-92 172 -44 136 -79 194 -157 263 -42 37 -51 40 -126 47 -91 8 -88 0 -47 110
l23 61 -32 64 c-17 35 -81 123 -142 196 -99 117 -120 136 -198 182 -48 29
-102 70 -121 92 l-33 40 25 57 c30 66 28 73 -40 129 -117 97 -159 111 -221 73
l-32 -20 -11 27 c-32 88 -53 133 -69 148 -10 9 -49 25 -86 34 -64 16 -68 19
-81 56 -21 60 -63 279 -55 287 4 3 44 20 89 37 44 18 96 42 115 56 42 30 42
30 74 1z m8654 -47 c25 -12 74 -33 110 -45 36 -13 65 -27 65 -31 -3 -48 -21
-146 -42 -225 l-25 -96 -67 -17 c-90 -22 -104 -34 -131 -107 -39 -105 -34
-101 -84 -76 -27 13 -53 18 -67 15 -13 -4 -63 -36 -111 -72 -99 -75 -106 -91
-68 -166 21 -39 21 -40 1 -67 -31 -44 -65 -71 -142 -115 -61 -35 -91 -62 -171
-155 -53 -62 -115 -141 -138 -174 -48 -73 -52 -119 -16 -208 13 -32 21 -61 18
-64 -3 -3 -34 -6 -68 -6 -83 0 -100 -8 -168 -77 -64 -65 -101 -136 -136 -258
-19 -69 -30 -88 -74 -133 -63 -66 -92 -82 -148 -82 -50 0 -112 28 -116 52 -4
19 41 45 126 73 39 12 59 26 73 49 25 41 25 116 0 147 l-19 23 -73 -17 c-92
-21 -128 -22 -136 -1 -9 23 7 51 90 150 l75 91 64 6 c46 4 69 2 85 -9 12 -8
31 -14 43 -14 40 0 170 144 170 189 0 16 -13 27 -55 46 -68 30 -72 53 -18 99
73 62 92 84 98 112 4 16 8 35 11 42 2 8 24 12 63 12 79 0 89 5 97 48 9 49 35
91 88 140 39 36 48 40 83 35 34 -4 45 -1 76 26 51 46 146 173 157 211 7 25 6
41 -5 63 -20 39 -13 50 86 128 92 72 102 91 78 162 -11 32 -10 40 2 48 19 12
90 1 112 -19 15 -14 19 -13 36 2 30 27 81 140 81 178 0 24 -8 42 -26 59 l-26
24 33 27 c28 24 35 26 48 14 9 -8 36 -24 61 -37z m-7594 -85 c63 -42 94 -76
124 -134 30 -58 72 -103 155 -165 28 -20 58 -52 67 -69 10 -20 35 -42 63 -57
47 -24 47 -24 41 -67 -5 -34 -1 -52 16 -82 28 -49 18 -93 -23 -98 -28 -3 -38
7 -99 95 -22 31 -40 45 -70 53 -22 6 -56 25 -75 42 -32 27 -40 30 -79 24 -50
-8 -56 -1 -56 67 0 93 -11 119 -68 174 -30 29 -63 55 -74 59 -19 6 -20 12 -14
70 8 77 21 114 39 114 8 0 32 -12 53 -26z m6498 -13 c3 -5 12 -40 21 -77 14
-68 14 -69 -8 -84 -12 -8 -47 -39 -79 -70 -53 -52 -56 -59 -62 -115 -15 -134
-11 -127 -66 -124 -41 2 -53 -1 -83 -28 -20 -17 -49 -34 -66 -38 -17 -4 -42
-21 -58 -41 -100 -123 -103 -126 -135 -97 -23 21 -23 54 2 95 16 26 19 43 14
79 -6 43 -5 47 19 53 31 7 87 53 87 71 0 7 28 35 63 63 93 73 135 119 158 168
40 84 170 182 193 145z m-4754 -332 c5 -37 9 -38 87 -24 l42 7 15 -53 c27 -91
14 -115 -34 -64 -28 29 -42 31 -81 8 -27 -16 -29 -16 -50 3 -51 46 -62 129
-21 153 26 15 36 8 42 -30z m3000 -19 c19 -35 11 -69 -26 -110 -34 -37 -37
-39 -57 -25 -30 21 -61 19 -82 -5 -23 -25 -55 -26 -55 -2 0 10 7 40 16 66 l16
47 62 -3 c59 -3 61 -2 64 22 6 46 10 52 32 40 11 -6 24 -19 30 -30z m-4541
-461 c6 -18 11 -40 11 -50 0 -23 13 -24 73 -3 54 18 80 13 70 -12 -6 -15 -2
-16 28 -9 68 15 84 12 87 -17 3 -21 -7 -39 -44 -78 -52 -56 -52 -56 -4 -182
25 -63 22 -88 -10 -88 -38 0 -58 18 -65 60 -4 26 -21 56 -49 87 -38 44 -81
102 -143 192 -29 42 -29 78 -1 108 28 30 34 29 47 -8z m6084 -37 c18 -31 18
-33 0 -62 -47 -76 -144 -208 -172 -235 -20 -19 -34 -43 -38 -68 -7 -44 -40
-72 -73 -62 -27 8 -26 38 5 103 13 28 27 68 31 86 5 32 2 39 -41 80 -39 39
-46 50 -43 78 3 35 2 35 81 22 33 -6 37 -4 37 15 0 25 9 26 57 6 56 -23 82
-20 89 13 12 56 16 63 32 60 9 -2 24 -18 35 -36z m-7888 -942 c46 -32 94 -50
131 -50 31 0 38 -6 74 -61 46 -71 46 -80 -9 -182 -43 -81 -96 -153 -133 -180
-31 -23 -45 -19 -106 31 -31 26 -35 35 -43 107 -6 44 -17 100 -25 125 -38 111
-39 116 -19 160 32 70 75 87 130 50z m9737 -40 c41 -44 45 -89 15 -158 -16
-37 -27 -88 -32 -142 -7 -84 -8 -85 -52 -127 -58 -55 -84 -56 -132 -4 -43 47
-111 158 -136 223 l-17 47 31 48 c44 69 45 70 93 77 24 4 70 22 103 41 67 39
87 38 127 -5z m-10167 -315 c9 -52 14 -60 50 -83 65 -40 102 -81 131 -145 l27
-62 -17 -67 c-10 -39 -15 -80 -11 -97 5 -24 -3 -46 -41 -112 -47 -81 -48 -82
-65 -60 -10 12 -25 45 -35 74 -9 28 -25 69 -35 89 -13 25 -19 59 -19 103 0 53
-6 77 -30 124 -33 67 -54 189 -38 231 12 32 49 71 62 67 6 -2 16 -30 21 -62z
m1268 29 c29 -15 75 -42 103 -60 88 -55 108 -63 220 -79 60 -9 134 -23 165
-31 51 -13 61 -12 110 5 30 10 78 30 107 45 61 31 78 29 171 -22 l63 -35 -5
-43 c-2 -24 -12 -55 -21 -69 -15 -23 -22 -25 -99 -25 -45 0 -107 -7 -137 -15
-114 -32 -123 -31 -194 14 -84 53 -121 60 -293 61 -112 0 -150 4 -178 17 -49
23 -135 6 -242 -48 -132 -66 -138 -84 -58 -181 25 -30 45 -60 45 -66 0 -6 -22
-24 -49 -40 -27 -17 -62 -47 -77 -68 l-28 -37 -101 8 c-187 14 -178 17 -190
-57 -4 -23 -19 -51 -40 -74 -32 -34 -38 -36 -80 -31 -90 10 -102 48 -63 200
l23 88 127 65 c137 69 143 76 168 167 15 55 23 60 147 101 45 15 97 39 117 54
144 111 194 153 199 166 9 22 30 20 90 -10z m8043 -15 c10 -12 66 -59 124
-105 92 -74 115 -87 200 -115 52 -17 103 -38 112 -47 10 -8 25 -40 34 -71 8
-31 23 -64 32 -75 10 -10 69 -44 133 -76 112 -57 146 -81 136 -97 -3 -5 3 -33
14 -63 23 -66 25 -138 3 -168 -12 -18 -25 -22 -69 -22 -48 0 -56 3 -84 35 -30
34 -37 53 -43 105 -4 33 -21 35 -156 20 l-113 -13 -52 50 c-29 28 -67 58 -84
67 -33 16 -44 48 -23 61 23 14 90 108 90 126 0 28 -37 58 -130 103 -96 46 -93
46 -385 28 -221 -14 -235 -17 -304 -64 -68 -45 -105 -50 -180 -24 -27 10 -77
16 -133 16 -102 0 -122 7 -137 51 -23 67 -16 85 47 122 102 60 108 60 196 16
100 -50 132 -55 219 -35 40 9 116 23 170 30 86 13 107 20 162 56 64 42 185
109 196 110 3 0 14 -10 25 -21z m1238 -8 c28 -29 28 -33 24 -113 -4 -72 -10
-95 -42 -160 -33 -66 -37 -82 -31 -121 6 -38 1 -60 -35 -151 -38 -93 -64 -138
-74 -125 -1 2 -21 39 -44 81 -32 59 -40 84 -36 106 3 16 -2 57 -11 91 -17 58
-17 63 0 109 28 72 59 113 122 158 51 36 59 45 65 85 14 81 20 84 62 40z
m-8907 -603 c80 -29 163 -77 163 -94 0 -27 -33 -95 -51 -104 -10 -6 -44 -10
-77 -10 -51 0 -62 3 -75 23 l-15 22 -43 -30 c-93 -65 -139 -160 -139 -287 0
-61 -3 -74 -29 -106 l-29 -37 9 -125 c5 -69 8 -184 7 -256 l-2 -131 31 -39
c17 -22 34 -56 38 -77 9 -47 26 -56 81 -45 23 5 58 8 76 6 29 -3 33 -7 33 -32
1 -24 7 -32 33 -43 55 -22 31 -63 -37 -63 l-31 0 0 -71 c0 -61 3 -73 23 -89
29 -24 16 -47 -44 -78 -69 -35 -72 -42 -64 -159 6 -100 6 -103 -15 -103 -31 0
-95 36 -119 66 -12 15 -21 41 -21 61 0 29 -9 42 -54 83 -32 30 -59 66 -70 92
-9 26 -27 50 -44 60 -15 9 -49 35 -75 59 -58 51 -59 76 -4 102 32 16 37 23 37
52 0 20 -12 54 -27 80 -33 54 -61 57 -81 10 -16 -35 -75 -80 -92 -70 -6 4 -29
30 -51 58 -30 37 -39 56 -35 73 5 20 -1 27 -43 48 -54 28 -57 34 -67 106 -9
69 -18 74 -123 66 l-89 -7 -20 33 c-11 18 -23 56 -27 83 -23 181 -27 196 -57
218 -25 18 -28 27 -28 76 0 93 4 98 72 110 46 8 74 21 116 53 31 24 65 48 77
55 28 17 99 16 142 -2 51 -22 71 -19 103 15 30 32 74 39 122 21 16 -6 48 -2
104 12 77 20 82 23 113 69 32 50 82 88 114 88 10 0 17 8 17 20 0 45 29 89 82
124 63 43 101 46 185 14z m7347 -12 c59 -25 115 -84 122 -128 4 -24 13 -42 23
-45 59 -18 76 -31 112 -84 29 -44 46 -59 63 -59 13 0 43 -7 66 -15 30 -11 62
-13 111 -9 66 7 69 6 104 -25 42 -36 36 -35 83 -15 20 9 62 17 92 17 52 2 60
-1 119 -47 67 -52 117 -75 164 -76 32 0 41 -18 50 -98 6 -54 -1 -69 -46 -97
-12 -7 -21 -45 -35 -143 -16 -114 -22 -137 -43 -157 -22 -21 -29 -22 -91 -15
-115 13 -121 9 -134 -83 -7 -54 -11 -59 -69 -91 -33 -18 -39 -26 -37 -48 2
-19 -9 -39 -46 -79 -48 -52 -50 -53 -77 -39 -14 8 -39 32 -53 54 -15 22 -32
41 -39 43 -20 7 -73 -87 -73 -129 0 -29 4 -38 23 -44 31 -9 57 -34 57 -54 0
-16 -39 -52 -121 -112 -24 -17 -40 -38 -44 -60 -5 -21 -28 -53 -66 -90 -49
-47 -59 -63 -59 -91 0 -37 -40 -82 -98 -112 -56 -27 -66 -16 -57 63 5 37 8 81
8 99 -2 37 -29 83 -50 83 -23 0 -70 28 -77 46 -4 11 1 25 14 39 16 17 20 35
20 92 l0 71 -35 -1 c-44 -1 -75 24 -56 47 6 8 23 17 36 20 18 5 23 12 22 34
l-2 27 90 0 89 0 8 44 c5 29 18 56 38 76 l30 31 4 234 c3 129 8 247 11 261 5
20 0 34 -23 60 -27 31 -30 43 -36 133 -9 118 -30 171 -94 233 -52 51 -77 60
-101 39 -12 -11 -37 -16 -83 -16 -70 0 -82 8 -106 63 -26 60 -25 61 138 133
84 38 105 40 154 20z m-4066 -60 c50 -46 77 -95 63 -109 -9 -9 -26 -7 -71 9
l-60 21 -51 -29 c-30 -18 -58 -27 -67 -23 -18 7 -5 20 78 83 23 18 30 31 30
58 0 32 2 35 23 29 12 -4 37 -21 55 -39z m-2198 -22 c44 -31 80 -61 80 -67 0
-33 -23 -87 -36 -87 -22 0 -82 27 -111 50 -35 28 -48 25 -128 -24 l-70 -43 -3
-51 c-2 -35 3 -62 16 -88 19 -37 21 -38 70 -35 70 3 156 -39 146 -72 -9 -31
-10 -32 -52 -18 -34 11 -42 11 -77 -8 -39 -20 -42 -20 -132 -4 l-93 17 0 45
c0 29 -10 67 -27 101 -30 64 -34 146 -9 185 21 32 107 81 176 101 30 8 75 24
100 34 25 10 51 19 58 19 7 1 48 -24 92 -55z m5190 11 c33 -14 66 -25 74 -25
34 0 130 -46 170 -81 38 -34 44 -45 50 -92 6 -46 3 -61 -24 -118 -20 -42 -30
-80 -30 -110 l0 -46 -94 -12 c-88 -11 -97 -11 -133 7 -34 17 -42 18 -75 6 -34
-12 -39 -11 -48 6 -14 27 -14 27 30 55 31 20 53 25 100 25 57 0 61 2 80 33 14
22 20 50 20 89 l0 58 -42 21 c-24 12 -57 32 -74 45 -39 30 -42 30 -90 -5 -48
-36 -115 -56 -126 -38 -16 26 -21 90 -7 98 8 4 45 30 84 58 38 28 71 51 73 51
1 0 29 -11 62 -25z m-2895 -180 c45 -18 49 -31 35 -99 -9 -45 -18 -61 -45 -82
-19 -14 -39 -41 -45 -60 -6 -19 -15 -34 -19 -34 -4 0 -19 12 -33 28 -52 54
-47 186 10 239 29 27 49 29 97 8z m-1918 -65 c30 0 32 -2 38 -47 3 -27 15 -72
26 -101 30 -85 27 -107 -23 -127 -23 -9 -64 -36 -91 -61 -38 -34 -57 -44 -83
-44 -44 0 -62 28 -70 111 -5 45 -12 68 -25 79 -10 8 -20 28 -21 44 -2 23 5 35
31 55 19 14 53 43 75 64 35 32 46 37 76 32 19 -2 49 -5 67 -5z m4440 -60 c107
-91 105 -89 98 -113 -4 -12 -15 -29 -26 -39 -10 -9 -19 -27 -19 -41 0 -57 -14
-117 -32 -136 -30 -33 -63 -26 -116 23 -27 25 -69 54 -95 65 -55 24 -57 32
-28 130 11 36 23 84 28 106 7 35 11 40 33 37 14 -2 37 2 50 7 40 16 47 13 107
-39z m-5558 -73 c66 -18 71 -34 32 -110 -28 -56 -32 -72 -26 -109 11 -74 24
-103 60 -138 38 -37 45 -74 24 -127 -6 -15 -17 -69 -24 -119 -16 -112 -81
-254 -116 -254 -27 0 -133 106 -185 184 -36 54 -39 65 -37 120 1 34 2 161 2
283 l0 222 43 22 c80 41 143 48 227 26z m6731 -43 l57 -25 6 -137 c4 -84 2
-154 -5 -180 -8 -31 -7 -59 1 -99 26 -129 4 -188 -116 -314 -100 -105 -113
-104 -166 2 -30 59 -41 96 -48 156 -5 44 -16 99 -24 123 -25 71 -20 104 20
134 35 27 49 60 61 148 5 37 2 52 -20 86 -14 23 -26 55 -26 72 0 25 6 34 33
45 55 24 161 19 227 -11z m-6052 -305 c76 -36 132 -68 132 -76 0 -44 -52 -100
-113 -123 -60 -22 -80 -62 -81 -163 l-1 -82 34 -17 c54 -27 55 -30 37 -108
-21 -96 -20 -142 4 -172 11 -14 80 -78 153 -142 187 -163 197 -178 156 -257
-16 -33 -19 -48 -12 -78 7 -28 5 -46 -9 -79 -28 -68 -24 -90 27 -139 34 -32
45 -50 45 -73 0 -66 50 -128 149 -182 18 -10 36 -32 45 -55 24 -59 30 -67 66
-85 32 -17 35 -17 73 5 51 28 58 44 64 136 3 56 -1 103 -17 176 -32 145 -35
178 -15 195 14 12 21 11 50 -4 18 -10 46 -32 62 -48 27 -28 28 -34 31 -141 1
-62 3 -143 4 -182 2 -38 -3 -89 -9 -113 -14 -52 1 -72 53 -72 28 0 38 -6 54
-32 19 -31 27 -68 15 -68 -13 0 -62 30 -74 44 -16 19 -77 20 -176 2 -104 -18
-117 -32 -70 -76 14 -13 25 -29 25 -37 0 -7 -23 -27 -50 -44 -58 -36 -105
-106 -96 -143 3 -12 15 -35 27 -51 20 -24 27 -27 66 -21 39 5 47 3 82 -29 26
-24 54 -38 86 -44 43 -8 56 -18 112 -80 49 -54 74 -73 106 -83 23 -6 48 -16
55 -21 22 -17 122 -194 143 -254 12 -32 28 -66 37 -76 15 -17 15 -21 -3 -54
-11 -20 -26 -42 -33 -50 -17 -17 -73 -17 -94 0 -8 6 -39 64 -67 127 -28 63
-59 122 -68 132 -37 41 -134 10 -191 -61 -21 -27 -41 -41 -56 -41 -33 0 -60
33 -53 66 5 29 -9 93 -24 109 -6 6 -42 12 -82 15 l-72 5 -6 42 c-3 25 -15 53
-30 69 -21 22 -30 25 -68 21 -54 -6 -71 9 -101 92 -22 60 -24 61 -82 82 -60
22 -109 66 -131 118 -6 14 -37 51 -69 81 -32 31 -58 62 -58 69 0 7 18 31 39
53 l40 39 140 -7 140 -7 6 37 c6 30 3 43 -21 77 -57 83 -109 101 -225 79 -39
-8 -67 -7 -99 1 -43 11 -48 10 -123 -30 -96 -51 -112 -52 -103 -10 3 17 6 39
6 48 0 9 18 30 40 47 62 48 182 201 175 224 -4 14 5 25 37 47 42 28 43 30 49
98 4 39 7 107 8 152 1 77 -1 84 -24 99 -13 9 -41 18 -62 21 -31 4 -45 0 -74
-24 -20 -15 -49 -45 -64 -66 -42 -58 -69 -72 -113 -59 -33 10 -41 9 -74 -13
-29 -19 -38 -32 -38 -53 0 -32 48 -84 93 -101 27 -11 28 -13 21 -58 -8 -59
-20 -83 -41 -83 -24 0 -83 -68 -83 -95 0 -59 -48 -113 -89 -100 -11 3 -36 28
-56 55 -21 29 -61 64 -96 85 -58 36 -73 60 -45 71 26 10 25 32 -5 73 -16 23
-29 53 -29 67 0 40 -65 99 -117 107 -40 7 -93 52 -93 80 0 6 17 28 37 49 36
37 39 38 108 38 67 0 76 3 133 40 34 22 62 43 62 47 0 21 -43 74 -86 108 -93
73 -102 100 -63 177 l21 41 74 -7 c63 -5 81 -3 113 14 44 22 51 35 51 97 0 40
5 50 43 89 143 147 130 126 129 201 -2 75 -16 163 -32 193 -17 31 -12 43 37
99 48 55 96 91 123 91 8 0 75 -27 148 -61z m5341 27 c34 -18 141 -132 141
-150 0 -8 -7 -31 -16 -52 -10 -23 -19 -81 -22 -140 l-5 -101 84 -84 c83 -84
84 -84 89 -144 5 -54 8 -61 40 -83 32 -22 42 -23 112 -18 l77 6 26 -40 c45
-71 32 -111 -55 -175 -42 -31 -100 -109 -88 -120 2 -1 32 -22 68 -45 63 -40
67 -41 123 -35 53 6 62 4 93 -20 48 -37 58 -59 40 -93 -15 -29 -42 -46 -91
-57 -44 -9 -105 -72 -105 -108 0 -18 -11 -42 -30 -64 -36 -41 -37 -48 -5 -69
14 -9 25 -19 25 -23 0 -4 -25 -22 -56 -41 -30 -18 -78 -60 -106 -92 -52 -59
-77 -70 -109 -45 -22 17 -39 52 -39 81 0 31 -55 96 -82 96 -22 0 -48 53 -48
99 0 25 7 34 39 51 47 23 81 64 81 95 0 14 -13 34 -31 49 -28 24 -37 26 -81
20 l-50 -7 -73 77 c-70 73 -74 76 -118 76 -33 0 -53 -6 -73 -23 l-26 -23 7
-142 7 -143 39 -31 c24 -19 39 -40 39 -53 0 -25 96 -146 170 -215 40 -38 49
-53 55 -92 l6 -48 -42 15 c-23 8 -58 25 -77 37 -32 20 -51 22 -196 25 l-161 2
-52 -54 c-53 -54 -60 -73 -46 -123 l6 -24 144 8 c157 7 167 5 198 -56 17 -34
5 -62 -44 -96 -26 -18 -54 -51 -73 -87 -30 -56 -86 -107 -116 -107 -39 0 -72
-32 -93 -89 -28 -78 -47 -95 -97 -88 -33 6 -42 2 -70 -23 -26 -23 -32 -37 -32
-68 0 -48 -8 -52 -96 -52 -60 0 -65 -2 -74 -26 -6 -14 -10 -49 -10 -79 0 -45
-3 -55 -25 -69 -34 -22 -57 -14 -90 33 -27 40 -101 81 -145 81 -30 0 -66 -43
-90 -106 -11 -30 -26 -65 -34 -77 -8 -12 -17 -33 -21 -47 -13 -44 -35 -60 -81
-60 -40 0 -46 3 -69 40 -28 45 -31 65 -11 77 7 4 19 26 26 48 13 40 51 118 92
185 62 104 68 110 97 110 31 0 77 33 121 85 52 63 68 73 115 81 34 5 59 17 86
41 36 32 42 35 83 29 41 -6 46 -5 65 23 37 52 37 82 -1 132 -19 24 -53 54 -76
67 -50 28 -53 47 -10 82 l32 27 -26 17 c-14 9 -69 24 -121 32 -104 17 -97 18
-184 -37 l-33 -21 0 22 c0 29 26 76 45 84 9 3 32 6 51 6 20 0 37 6 40 13 3 8
-5 48 -16 90 -20 73 -20 78 -5 132 13 42 15 74 10 125 -10 98 -1 124 52 165
57 43 89 46 104 8 8 -22 7 -39 -5 -73 -21 -60 -46 -194 -46 -247 0 -23 5 -64
10 -90 9 -39 18 -53 47 -72 35 -23 40 -23 78 -10 35 12 43 21 60 66 18 46 28
57 94 99 80 52 110 96 111 164 0 29 7 40 40 63 49 34 59 74 35 135 -12 29 -15
55 -11 83 5 29 1 53 -15 89 -13 31 -19 59 -15 74 4 15 61 75 143 148 76 68
153 138 172 156 l34 33 -8 72 c-14 127 -12 169 8 178 9 5 25 13 35 18 38 18
22 189 -21 228 -12 11 -42 30 -67 41 -48 23 -94 79 -88 109 2 9 14 23 28 30
55 28 236 111 243 112 4 1 21 -5 36 -13z m-4657 -168 c43 -36 63 -104 36 -125
-7 -6 -43 -20 -80 -32 -50 -17 -77 -33 -105 -63 -21 -23 -55 -58 -77 -79 -37
-37 -39 -42 -47 -126 -7 -77 -11 -91 -34 -110 -32 -28 -75 -31 -76 -5 -1 9 -1
67 -1 127 -1 115 21 225 64 328 18 42 38 62 38 38 0 -5 7 -16 15 -24 11 -12
24 -13 57 -6 47 11 68 31 68 66 0 22 4 23 63 23 36 0 70 -5 79 -12z m3943 -37
c-8 -37 12 -57 67 -66 38 -7 44 -5 64 20 l21 27 15 -39 c9 -21 29 -85 46 -143
28 -98 30 -113 25 -223 -3 -65 -10 -120 -14 -123 -13 -8 -77 25 -84 44 -4 9
-10 53 -14 97 l-8 81 -80 81 c-72 73 -86 82 -154 104 -69 22 -74 26 -77 54 -4
42 35 98 73 106 17 4 52 7 78 8 48 1 49 1 42 -28z m-6912 -236 c21 -26 43 -39
95 -55 52 -15 72 -26 82 -45 8 -14 50 -47 93 -73 50 -29 88 -60 102 -82 12
-19 59 -74 104 -122 81 -86 82 -88 84 -142 2 -66 -16 -90 -84 -110 -59 -18
-78 -9 -132 61 -60 78 -75 91 -194 161 l-101 61 -133 -26 c-105 -21 -138 -32
-155 -50 -34 -37 -77 -30 -198 32 -58 30 -114 55 -124 55 -9 0 -37 -14 -62
-30 -48 -32 -85 -38 -93 -17 -15 40 -17 123 -3 147 42 69 42 70 17 112 -12 22
-20 42 -17 45 8 9 218 52 253 53 55 0 63 -8 63 -60 0 -53 18 -76 67 -86 28 -6
35 -1 72 46 23 29 53 72 67 96 28 47 56 62 124 63 40 1 48 -3 73 -34z m9878
-3 c15 -6 46 -40 72 -79 65 -98 88 -117 130 -109 45 8 53 20 62 84 l7 52 52 0
c56 0 236 -36 250 -50 5 -5 -1 -21 -13 -38 -27 -39 -27 -58 5 -99 23 -30 25
-39 18 -91 -7 -62 -19 -92 -35 -92 -6 0 -38 17 -70 37 l-60 36 -127 -61 c-139
-68 -173 -75 -189 -39 -10 20 -28 27 -139 50 -152 32 -164 33 -195 8 -13 -10
-61 -40 -107 -66 -70 -40 -93 -60 -139 -121 -58 -78 -76 -89 -126 -80 -62 12
-94 40 -101 88 -10 63 4 89 97 187 45 48 94 103 108 122 15 19 54 50 88 68 33
17 73 48 87 67 15 19 38 37 53 40 66 14 111 37 137 71 25 32 30 35 68 30 22
-2 53 -9 67 -15z m-4850 -164 c7 -13 14 -68 17 -123 3 -91 0 -113 -32 -235
-36 -136 -106 -319 -152 -397 -42 -73 -97 -102 -120 -65 -35 55 -25 129 38
267 l41 90 -12 111 c-11 114 -3 201 22 235 7 8 40 34 75 58 34 23 68 51 75 62
16 25 34 24 48 -3z m-1776 -123 c25 -21 54 -53 66 -72 20 -33 21 -40 11 -98
-7 -34 -12 -77 -12 -94 0 -34 -20 -80 -43 -99 -11 -10 -24 -8 -58 7 -24 11
-73 24 -108 30 -82 13 -148 45 -167 82 -17 34 -18 31 61 154 90 140 159 164
250 90z m3391 -10 c31 -18 55 -46 89 -102 79 -129 79 -130 61 -158 -22 -34
-102 -73 -167 -81 -30 -3 -74 -15 -98 -25 -74 -32 -96 -12 -112 104 -24 175
-30 148 44 222 57 57 70 65 103 65 22 0 55 -10 80 -25z m-6255 -512 c29 -28
32 -29 79 -19 56 11 66 7 50 -23 -10 -20 -8 -21 35 -21 54 0 98 17 144 55 l33
29 47 -26 c25 -14 75 -34 109 -44 49 -13 76 -29 118 -67 30 -27 54 -57 54 -66
0 -23 23 -43 85 -74 53 -27 133 -102 122 -113 -11 -11 -96 -23 -171 -23 l-68
-1 -60 55 c-32 30 -71 57 -86 60 -15 3 -45 10 -67 16 -22 6 -67 15 -100 21
-33 5 -80 19 -104 30 -24 10 -67 22 -95 25 -54 6 -86 26 -86 53 0 36 -27 54
-86 60 -51 4 -60 9 -88 43 -30 38 -31 39 -11 54 33 24 111 12 146 -24z m9106
-5 c15 -12 7 -30 -31 -70 -21 -24 -33 -28 -80 -28 -58 0 -65 -5 -75 -54 -8
-36 -40 -56 -94 -56 -21 0 -54 -9 -75 -19 -20 -10 -64 -23 -97 -29 -33 -5 -96
-19 -139 -31 -67 -18 -87 -28 -131 -71 -29 -27 -64 -52 -78 -56 -26 -6 -215
11 -225 20 -14 14 70 93 134 125 56 30 70 41 72 63 5 43 99 116 180 140 37 11
86 31 109 45 l43 25 41 -36 c28 -24 59 -39 96 -46 68 -15 88 -9 73 21 -7 11
-10 23 -7 25 2 2 28 -1 57 -7 51 -11 53 -10 74 16 33 41 117 54 153 23z
m-4627 -342 c-12 -58 -20 -116 -19 -129 7 -75 -10 -85 -59 -34 -47 49 -50 81
-11 158 18 35 46 81 62 102 44 57 52 31 27 -97z m-699 -21 c70 -25 82 -33 151
-108 41 -45 78 -88 82 -95 5 -8 17 -53 27 -100 25 -115 36 -140 70 -158 28
-14 29 -17 29 -87 0 -46 -5 -80 -13 -92 -19 -25 -31 -5 -29 48 2 33 -6 51 -46
106 -27 36 -59 83 -71 103 -12 20 -44 53 -71 72 -27 20 -61 53 -74 75 -20 31
-36 43 -78 56 -65 21 -78 31 -78 59 0 11 -12 53 -26 91 -43 117 -43 111 7 83
24 -14 78 -38 120 -53z m-681 -127 c-1 -7 -7 -24 -15 -38 -8 -14 -14 -37 -15
-52 0 -26 3 -28 39 -28 74 0 91 -19 41 -45 -34 -18 -39 -52 -15 -95 8 -14 14
-41 15 -61 0 -29 7 -43 35 -68 19 -17 50 -38 68 -47 17 -9 56 -32 86 -51 l55
-35 -39 -33 c-35 -29 -38 -35 -26 -49 20 -24 10 -28 -48 -20 -43 5 -55 12 -73
38 -12 17 -45 56 -73 86 -49 52 -53 61 -65 130 -19 115 -28 144 -55 185 -18
26 -25 48 -23 75 1 26 -5 46 -20 65 -28 35 -28 43 1 48 52 10 127 7 127 -5z
m2905 -28 c3 -5 -5 -25 -18 -42 -19 -25 -24 -41 -20 -66 4 -24 -1 -42 -20 -70
-26 -38 -47 -100 -47 -140 0 -54 -33 -137 -69 -173 -20 -20 -53 -57 -74 -83
-36 -44 -41 -46 -88 -46 -46 0 -49 1 -39 19 14 27 14 27 -27 52 l-36 23 32 27
c18 14 56 39 84 54 29 16 69 41 90 57 30 25 37 36 37 66 1 21 7 48 15 62 26
45 19 78 -20 101 -19 12 -33 24 -30 29 2 4 27 10 55 12 28 3 53 8 57 12 7 6
-5 60 -22 99 -6 15 0 17 63 17 39 0 74 -4 77 -10z m-4276 -667 c13 -9 39 -48
57 -88 39 -85 53 -99 91 -91 23 5 37 0 71 -30 23 -20 50 -50 58 -66 20 -40 9
-52 -68 -72 -53 -14 -63 -13 -125 5 -76 21 -143 25 -160 8 -18 -18 -78 -1
-127 36 -58 44 -101 66 -118 60 -8 -3 -18 -20 -24 -38 -21 -71 -114 -75 -190
-8 -27 23 -86 61 -133 84 l-85 42 45 7 c85 13 145 8 217 -17 94 -33 220 -35
269 -5 30 18 32 23 35 87 l3 68 50 17 c64 22 104 22 134 1z m1685 -17 c-7 -19
12 -29 52 -28 21 1 46 -9 73 -29 40 -28 41 -31 26 -52 -20 -28 -19 -62 2 -98
16 -27 16 -30 -5 -67 -12 -22 -19 -42 -15 -46 3 -3 28 -6 55 -6 26 0 48 -2 48
-5 0 -3 -9 -14 -19 -24 -25 -25 -18 -52 26 -99 33 -35 34 -39 23 -70 -11 -31
-9 -36 25 -78 26 -31 38 -57 40 -83 2 -21 15 -61 30 -90 21 -42 25 -60 20 -95
-9 -60 -20 -74 -42 -58 -47 33 -63 36 -78 16 -35 -46 -55 -102 -55 -155 1 -54
1 -54 48 -83 41 -25 60 -29 156 -35 116 -6 144 -20 82 -41 -20 -6 -36 -18 -36
-26 0 -8 18 -32 40 -54 44 -44 47 -61 30 -179 -9 -67 -31 -101 -62 -101 -23 0
-139 109 -171 159 -20 34 -49 99 -115 262 -15 36 -39 80 -55 98 -32 39 -33 41
-7 91 26 50 25 66 -5 157 -29 85 -27 103 9 103 31 0 35 7 43 69 4 34 0 62 -12
94 -15 41 -16 47 -1 75 16 31 16 32 -11 45 -16 8 -45 20 -65 26 -41 13 -45 25
-27 76 10 27 8 36 -20 81 -17 28 -34 66 -37 85 -4 19 -20 49 -36 67 -35 41
-36 65 0 91 31 24 54 27 46 7z m3947 -7 c51 -13 64 -33 64 -97 0 -48 3 -57 28
-76 41 -30 188 -29 267 2 41 16 76 22 135 22 134 0 139 -7 46 -51 -45 -21
-102 -56 -128 -78 -69 -57 -97 -66 -150 -46 -34 13 -45 23 -51 48 -12 48 -47
47 -108 -1 -82 -65 -121 -77 -164 -50 -16 10 -35 9 -102 -6 -46 -10 -95 -20
-110 -23 -14 -3 -51 2 -82 11 -51 15 -56 19 -56 45 0 21 13 41 54 80 50 47 57
50 82 41 36 -14 58 6 80 73 9 27 32 67 51 88 37 40 48 42 144 18z m-1763 -32
c29 -27 28 -45 -7 -87 -15 -19 -31 -51 -35 -70 -3 -19 -20 -55 -37 -80 -20
-30 -28 -51 -24 -65 4 -11 9 -34 12 -51 5 -30 3 -32 -39 -42 -23 -6 -52 -17
-62 -25 -18 -13 -18 -18 -6 -46 11 -27 10 -38 -5 -77 -12 -33 -15 -58 -10 -92
8 -56 20 -72 51 -72 29 0 30 -11 5 -81 -33 -97 -35 -135 -12 -175 26 -44 26
-46 -4 -82 -14 -16 -42 -72 -64 -123 -106 -258 -101 -249 -178 -326 -59 -59
-79 -73 -104 -73 -25 0 -32 6 -44 34 -8 19 -18 72 -21 118 l-6 83 41 40 c23
21 41 45 41 52 0 7 -13 19 -30 28 -61 31 -36 42 105 48 80 3 95 6 133 32 40
27 42 31 42 80 0 35 -8 67 -25 102 -37 73 -45 77 -85 48 -41 -30 -55 -22 -64
39 -5 34 -1 54 18 97 14 29 28 74 32 99 5 31 17 57 40 83 19 20 34 39 34 41 0
1 -5 18 -11 35 -11 30 -9 35 23 69 46 48 51 66 27 95 -10 14 -19 28 -19 31 0
3 22 6 49 6 28 0 52 4 55 8 3 5 -4 21 -15 38 -23 35 -24 57 -4 74 19 16 19 60
0 86 -20 26 -19 27 18 54 20 15 51 27 82 30 42 4 50 8 53 28 4 24 12 22 50
-11z m-795 -263 c-1 -51 -10 -92 -33 -154 l-32 -85 6 -196 7 -196 -30 -26
c-17 -14 -40 -28 -51 -32 -21 -7 -20 -3 -106 -308 -43 -152 -46 -172 -35 -202
11 -31 9 -38 -14 -74 -23 -34 -26 -46 -20 -85 5 -31 4 -46 -4 -46 -19 0 -33
40 -26 79 5 30 1 44 -20 76 -22 32 -25 42 -16 62 16 35 14 56 -15 151 -33 107
-31 117 52 339 65 176 96 286 130 467 l18 98 -24 20 c-20 16 -22 21 -10 28 8
5 58 42 110 83 52 42 100 74 105 73 6 -2 9 -33 8 -72z m-2556 -221 c73 -54 74
-51 -30 -104 -88 -45 -147 -26 -118 39 24 53 62 112 73 112 5 0 39 -21 75 -47z
m4576 -15 c13 -24 30 -60 38 -81 15 -44 6 -57 -45 -57 -33 0 -171 69 -159 81
17 17 128 98 135 99 3 0 17 -19 31 -42z m-5363 -47 c36 -17 76 -31 90 -31 33
0 197 -35 235 -50 l29 -11 -29 -23 c-41 -33 -25 -49 77 -76 93 -25 126 -43
134 -74 3 -14 -13 -59 -45 -126 -72 -152 -72 -162 -17 -248 26 -39 61 -81 79
-93 47 -32 97 -81 97 -95 0 -21 -26 -34 -96 -49 -38 -8 -69 -13 -71 -11 -1 1
2 17 7 35 12 44 -5 84 -75 178 -30 40 -55 78 -55 85 0 7 16 37 36 67 67 99 88
167 64 210 -9 19 -149 111 -167 111 -6 0 -18 -9 -29 -21 -10 -12 -31 -28 -47
-35 -25 -14 -31 -13 -67 7 -28 16 -43 34 -55 66 -21 55 -63 104 -124 145 -62
41 -91 69 -85 79 5 9 24 3 114 -40z m1218 -419 c112 -76 116 -81 108 -134 -7
-41 -11 -45 -79 -84 -40 -23 -82 -45 -94 -48 -12 -4 -56 2 -99 13 -50 13 -83
17 -94 11 -9 -5 -26 -35 -36 -67 l-19 -58 -5 85 c-5 82 -14 108 -56 167 -15
22 -15 23 11 33 14 5 37 10 50 10 43 0 74 19 134 81 40 41 65 60 75 56 9 -4
55 -33 104 -65z m3735 26 c12 -6 45 -34 72 -63 49 -50 81 -65 142 -65 36 0 38
-23 6 -71 -23 -35 -28 -56 -33 -128 l-5 -86 -18 52 c-27 76 -35 80 -121 58
-90 -22 -122 -17 -205 34 -75 46 -81 54 -81 103 0 36 3 39 106 107 58 39 107
71 110 71 3 0 15 -5 27 -12z m-3973 -590 c0 -133 62 -211 198 -247 40 -11 42
-14 42 -49 0 -21 -6 -46 -13 -55 -12 -17 -16 -17 -81 3 -37 12 -74 19 -82 16
-7 -3 -19 -26 -25 -51 l-11 -45 -63 0 -64 0 -30 45 -31 46 27 23 c25 22 28 30
29 102 1 44 10 106 19 138 12 40 16 77 12 112 -5 51 -5 53 21 56 40 5 52 -17
52 -94z m4153 17 c-3 -31 1 -75 12 -115 10 -36 17 -99 17 -141 0 -73 1 -77 29
-98 l29 -22 -29 -43 c-17 -24 -38 -46 -46 -50 -31 -11 -115 -7 -115 7 0 6 -5
29 -11 50 -9 32 -14 37 -40 37 -16 0 -46 -7 -66 -15 -72 -30 -93 -18 -93 53 0
36 1 37 58 54 77 23 116 49 149 99 23 34 28 56 34 137 4 54 8 98 8 99 1 1 16
1 35 0 l34 -2 -5 -50z"/>
<path d="M6357 9009 c4 -13 8 -18 11 -10 2 7 -1 18 -6 23 -8 8 -9 4 -5 -13z"/>
</g>
</svg>
