<?xml version="1.0" encoding="UTF-8" standalone="no"?>
<svg
   width="2912.333"
   height="3052.9805"
   viewBox="0 0 2912.333 3052.9805"
   version="1.1"
   id="svg4"
   xmlns="http://www.w3.org/2000/svg"
   xmlns:svg="http://www.w3.org/2000/svg">
  <defs
     id="defs8" />
  <path
     d="m 847.412,2.7474823 c -2.246,2.246 -2.99,4.268 -3.953,10.7419997 -1.496,10.059 -5.875,17.751 -16.82,29.547 -4.309,4.644 -9.157,10.244 -10.774,12.444 -1.616,2.2 -5.885,7.194 -9.485,11.098 -3.601,3.903 -8.229,9.753 -10.285,13 -2.056,3.246 -6.678,9.277 -10.272,13.402 -3.593,4.125 -11.201,14.249998 -16.906,22.499998 -13.732,19.856 -20.859,28.609 -34.134,41.92 -8.25,8.273 -12.276,13.234 -15.889,19.58 -11.891,20.886 -20.177,33.878 -29.657,46.5 -4.717,6.282 -9.263,13.589 -10.597,17.036 -1.285,3.319 -4.098,8.168 -6.252,10.775 -2.154,2.606 -4.457,6.415 -5.118,8.464 -1.466,4.546 -9.196,22.853 -11.818,27.99 -2.345,4.595 -5.076,7.135 -10.465,9.735 -5.492,2.649 -6.622,5.305 -6.639,15.609 -0.013,7.553 -0.368,9.271 -2.893,14.002 -1.582,2.966 -3.404,7.929 -4.047,11.029 -1.25,6.018 -2.65,7.768 -7.865,9.833 -5.054,2.001 -6.01,4.088 -5.452,11.892 0.557,7.786 0.352,8.301 -7.607,19.063 -3.056,4.133 -6.743,10.442 -8.192,14.021 -2.09,5.158 -3.551,7.15 -7.048,9.607 l -4.411,3.1 -0.515,7.422 c -0.644,9.273 -2.71,13.212 -8.974,17.106 -5.088,3.163 -6.451,5.476 -7.455,12.649 -0.974,6.961 -4.869,13.486 -10.441,17.489 -4.188,3.009 -5.262,4.469 -6.743,9.166 -1.063,3.374 -3.489,7.612 -6.123,10.698 -2.4,2.811 -5.882,8.306 -7.738,12.212 -5.138,10.809 -9.378,15.194 -16.824,17.401 -6.871,2.037 -6.567,1.31 -5.121,12.222 0.485,3.665 -0.055,6.258 -2.849,13.683 -1.896,5.038 -5.064,11.362 -7.039,14.053 -1.975,2.691 -7.197,12.352 -11.604,21.468 -6.785,14.034 -8.562,16.913 -11.595,18.788 -4.488,2.774 -6.065,5.282 -6.908,10.987 -0.645,4.369 -3.917,15.298 -7.634,25.5 -1.002,2.75 -2.345,7.7 -2.985,11 -0.651,3.359 -3.098,9.566 -5.557,14.101 -2.417,4.456 -4.395,8.744 -4.395,9.529 0,0.784 -1.56,4.682 -3.467,8.662 -1.907,3.979 -3.78,9.591 -4.162,12.471 -0.871,6.57 -5.485,19.381 -9.811,27.237 -1.817,3.3 -3.873,7.8 -4.569,10 -1.501,4.743 -6.26,14.429 -9.548,19.432 -1.292,1.965 -3.502,8.509 -4.921,14.568 -1.829,7.811 -3.447,12.221 -5.584,15.213 -4.34,6.077 -5.743,10.005 -7.319,20.491 -1.089,7.251 -2.175,10.639 -4.907,15.304 -1.93,3.296 -4.671,9.553 -6.091,13.904 -1.779,5.454 -3.886,9.46 -6.778,12.89 l -4.197,4.977 -0.785,10.865 c -0.593,8.206 -1.429,12.394 -3.415,17.111 -1.447,3.435 -3.517,9.17 -4.6,12.745 -1.083,3.575 -3.382,11 -5.108,16.5 -2.546,8.108 -3.14,11.702 -3.14,19 -10e-4,15.563 2.084,49.039 3.18,51.062 0.578,1.066 2.478,3.288 4.224,4.938 1.745,1.65 5.009,6.15 7.253,10 6.054,10.389 8.391,13.129 16.696,19.578 4.152,3.22302 9.133,7.18502 11.069,8.80402 4.942,4.132 27.963,16.432 39.668,21.194 7.179,2.921 11.019,5.171 14.312,8.387 3.466,3.384 5.879,4.747 10.5,5.93 6.058,1.551 22.613,8.357 26.756,11.001 1.234,0.787 5.394,2.359 9.244,3.493 4.721,1.391 8.582,3.372 11.859,6.088 2.672,2.214 4.922,4.048 5,4.076 0.077,0.028 4.93,0.42 10.783,0.872 12.082,0.932 14.198,1.938 31.228,14.851 6.88,5.218 9.536,7.959 11.844,12.226 3.925,7.259 5.167,8.544 12.274,12.696 9.716,5.679 23.316,18.332 35.443,32.975 2.81,3.394 7.463,7.853 10.339,9.909 11.952,8.544 51.77,47.774 55.09,54.277 1.024,2.003 3.099,4.993 4.612,6.643 1.514,1.65 4.612,5.785 6.885,9.188 2.273,3.403 4.606,6.48 5.183,6.837 0.578,0.357 4.067,5.222 7.755,10.812 l 6.705,10.163 -0.119,12.084 c -0.108,10.888 -0.392,12.691 -2.871,18.214 -1.513,3.372 -2.487,6.819 -2.165,7.659 0.323,0.841 4.455,3.367 9.184,5.613 l 8.596,4.085 3.458,7.172 c 1.902,3.945 5.284,9.423 7.514,12.173 4.297,5.296 17.823,25.512 20.384,30.463 2.208,4.271 1.87,8.582 -1.067,13.594 -2.39,4.078 -2.504,4.796 -1.5,9.477 0.597,2.785 1.084,8.08 1.082,11.765 0,8.446 -1.996,11.947 -9.545,16.775 -8.289,5.303 -7.124,8.282 4.549,11.634 7.63,2.191 8.826,6.013 14.486,46.292 3.465,24.659 3.37,29.503 -0.736,37.595 -4.454,8.778 -8.547,11.016 -21.369,11.687 -6.126,0.32 -9.749,0.957 -10.483,1.841 -1.775,2.139 -0.253,5.672 3.55,8.238 5.302,3.577 15.757,14.598 18.391,19.387 1.969,3.579 2.255,5.21 1.807,10.301 -0.647,7.345 -4.641,18.752 -7.707,22.016 -1.236,1.315 -5.44,4.273 -9.343,6.573 -3.903,2.3 -8.109,4.795 -9.346,5.545 -3.411,2.066 -2.742,4.439 2.698,9.573 5.811,5.485 6.399,7.545 6.489,22.744 0.053,8.753 -0.309,11.356 -2.17,15.646 -1.918,4.42 -4.87,17.709 -6.778,30.51 -0.397,2.667 -2.302,5.616 -7.034,10.894 -3.569,3.98 -6.679,8.185 -6.911,9.343 -0.233,1.159 -0.651,7.282 -0.93,13.607 -0.614,13.935 -2.351,21.038 -7.659,31.324 -3.759,7.284 -3.993,8.216 -3.393,13.517 0.603,5.331 0.37,6.233 -3.657,14.176 -5.776,11.395 -7.231,13.234 -14.323,18.114 -12.286,8.453 -14.097,11.596 -8.445,14.666 8.367,4.544 10.863,10.734 10.863,26.942 0,8.245 -0.329,9.977 -2.855,15.04 -2.782,5.576 -5.188,16.283 -7.169,31.912 -2.183,17.212 -8.162,30.897 -16.852,38.567 -3.962,3.497 -4.1,7.846 -0.514,16.242 5.355,12.535 5.208,11.051 1.714,17.359 -1.743,3.145 -4.082,9.39 -5.199,13.877 -1.116,4.487 -2.903,9.869 -3.969,11.961 -1.066,2.092 -3.61,8.303 -5.652,13.803 -4.175,11.242 -7.186,16.573 -15.613,27.643 -6.415,8.427 -8.039,11.572 -10.362,20.068 -1.202,4.393 -2.829,7.079 -7.054,11.643 -3.02,3.262 -7.078,8.566 -9.018,11.787 -1.939,3.221 -6.741,9.399 -10.67,13.729 -5.723,6.308 -8.451,8.459 -13.715,10.815 -3.615,1.618 -7.812,4.125 -9.327,5.571 -1.516,1.446 -5.672,4.904 -9.237,7.686 -20.761,16.202 -37.138,33.757 -52.892,56.696 -6.093,8.873 -7.832,10.704 -12.099,12.74 -5.941,2.835 -6.749,3.818 -9.561,11.622 -1.19,3.3 -4.15,9.226 -6.579,13.168 -2.43,3.943 -5.372,9.343 -6.539,12 -1.166,2.658 -5.021,9.465 -8.565,15.128 -6.602,10.546 -13.206,25.314 -15.809,35.348 -0.805,3.105 -1.464,9.938 -1.464,15.185 0,5.247 -0.689,12.814 -1.531,16.816 -2.374,11.289 -2.854,20.794 -1.513,29.968 1.498,10.248 2.991,13.979 7.662,19.149 5.006,5.541 6.936,10.429 10.847,27.466 1.865,8.124 4.109,16.772 4.987,19.217 0.983,2.735 1.963,10.621 2.549,20.5 0.524,8.83 1.409,18.755 1.965,22.055 1.311,7.766 2.536,43.01 1.658,47.689 -0.692,3.688 -5.1,10.056 -8.715,12.587 -3.041,2.13 -6.669,0.176 -14.141,-7.615 -9.412,-9.815 -19.063,-28.451 -21.245,-41.027 -0.877,-5.056 -2.035,-10.351 -2.573,-11.766 -1.239,-3.258 -3.671,-19.184 -5.401,-35.368 -1.565,-14.637 -3.34,-19.304 -12.545,-32.993 -4.505,-6.701 -10.985,-13.924 -23.526,-26.227 -15.306,-15.014 -17.555,-17.639 -19.443,-22.686 -1.209,-3.234 -4.678,-8.821 -8.003,-12.89 -3.227,-3.95 -6.176,-8.583 -6.552,-10.295 -0.376,-1.712 -2.876,-5.534 -5.556,-8.493 -2.679,-2.959 -5.998,-7.601 -7.374,-10.317 -1.376,-2.715 -4.674,-7.561 -7.328,-10.768 -2.655,-3.207 -6.259,-7.927 -8.008,-10.488 -3.877,-5.674 -20.658,-21.008 -25.939,-23.703 -2.109,-1.076 -6.345,-2.686 -9.413,-3.578 -6.939,-2.017 -18.239,-9.692 -22.475,-15.263 -1.757,-2.311 -3.954,-6.586 -4.882,-9.5 -0.929,-2.914 -2.859,-6.364 -4.289,-7.666 -2.402,-2.187 -3.178,-2.323 -10.158,-1.779 -4.157,0.323 -9.809,0.873 -12.561,1.22 -4.214,0.533 -5.773,0.223 -9.898,-1.971 -5.425,-2.884 -10.802,-3.311 -18.406,-1.462 -5.57,1.354 -7.78,3.057 -8.671,6.683 -2.773,11.285 -10.433,9.517 -27.522,-6.352 -11.205,-10.405 -16.389,-13.431 -30,-17.513 -7.697,-2.308 -31.458,-11.593 -36.997,-14.458 -6.251,-3.232 -35.102,-13.501 -37.932,-13.501 -1.68,0 -4.223,1.098 -5.994,2.589 -4.317,3.632 -4.256,8.525 0.173,13.896 l 3.25,3.941 -0.103,11.037 c -0.056,6.07 -0.512,18.462 -1.012,27.537 l -0.91,16.5 -3.696,6 c -2.98,4.837 -3.888,7.55 -4.686,14 -0.544,4.4 -1.67,10.925 -2.501,14.5 -0.831,3.575 -1.808,10.325 -2.17,15 -0.363,4.675 -1.467,10.383 -2.455,12.684 -2.294,5.344 -4.364,5.934 -25.467,7.248 -26.888,1.674 -32.5,3.467 -32.5,10.384 0,7.104 4.799,9.629 18.5,9.735 4.4,0.034 9.572,0.599 11.493,1.255 3.079,1.052 3.767,1.962 5.802,7.672 1.269,3.563 3.029,7.275 3.911,8.25 2.119,2.341 7.004,2.254 12.794,-0.228 6.582,-2.821 8.378,-2.547 14.018,2.138 8.145,6.765 14.546,10.608 22.288,13.379 16.564,5.931 18.644,9.504 12.591,21.621 -1.275,2.551 -4.433,6.447 -7.019,8.657 -2.586,2.21 -8.007,7.998 -12.048,12.862 -6.412,7.718 -7.676,9.924 -9.941,17.343 -3.106,10.174 -9.004,23.663 -11.659,26.663 -1.381,1.56 -3.622,2.36 -8.048,2.874 -5.845,0.678 -6.46,1.024 -13.046,7.337 -8.289,7.945 -10.158,11.767 -11.722,23.96 -0.806,6.281 -1.881,10.312 -3.329,12.473 -3.066,4.578 -10.331,9.111 -19.49,12.161 -8.867,2.954 -10.428,4.256 -10.428,8.705 0,3.917 2.806,6.089 11.333,8.773 6.465,2.034 18.231,3.211 50.5,5.051 8.25,0.47 17.7,1.33 21,1.91 3.86,0.678 8.793,0.74 13.829,0.175 11.693,-1.313 29.918,1.585 39.971,6.355 5.89,2.795 9.239,3.701 15.366,4.157 4.309,0.321 10.534,1.412 13.834,2.425 3.3,1.013 7.575,2.133 9.5,2.489 1.925,0.356 13.175,3.945 25,7.976 31.439,10.717 40.467,13.286 50.5,14.371 4.979,0.539 11.234,1.943 14,3.143 2.75,1.192 8.479,2.523 12.731,2.957 9.174,0.937 11.363,2.205 16.908,9.8 2.307,3.16 5.67,7.406 7.472,9.435 4.897,5.517 6.507,12.162 5.749,23.73 -0.565,8.617 -0.301,10.968 2.587,23.087 1.768,7.421 4.536,17.853 6.151,23.181 3.343,11.033 4.52,19.022 5.938,40.312 0.55,8.25 1.706,18.825 2.57,23.5 4.749,25.706 6.697,35.092 8.405,40.5 1.042,3.3 2.404,8.913 3.026,12.474 1.306,7.468 2.046,9.084 6.618,14.456 4.227,4.966 4.318,8.392 0.345,12.917 -4.595,5.233 -4.048,7.679 3.348,14.967 7.007,6.904 6.544,5.614 9.288,25.889 l 1.718,12.704 -3.283,6.263 c -2.845,5.429 -3.222,6.992 -2.829,11.737 0.421,5.074 0.807,5.781 5.273,9.655 4.416,3.831 4.818,4.553 4.818,8.652 0,2.555 -0.714,5.492 -1.666,6.852 -0.917,1.308 -1.667,3.245 -1.667,4.304 0,2.322 4.963,8.512 14.469,18.047 8.709,8.736 13.007,14.055 18.653,23.083 l 4.378,7 v 13.075 13.076 l 3.201,3.653 c 1.76,2.009 3.423,5.125 3.696,6.925 0.272,1.799 0.726,5.023 1.009,7.164 0.283,2.142 1.487,4.928 2.675,6.193 2.565,2.73 13.474,6.812 23.919,8.949 4.125,0.844 8.267,2.307 9.204,3.25 1.243,1.25 1.891,4.29 2.393,11.215 1.158,15.988 1.545,16.337 19.875,17.917 9.261,0.799 14.189,1.708 17.227,3.18 5.095,2.466 11.897,9.79 16.939,18.238 6.072,10.174 5.104,9.665 18.38,9.665 6.44,0 14.133,-0.498 17.096,-1.107 6.214,-1.278 41.516,-1.243 47.161,0.046 2.076,0.474 5.363,2.144 7.303,3.711 8.46,6.832 9.802,7.532 13.362,6.963 1.892,-0.302 6.392,-2.571 10,-5.041 12.334,-8.447 25.828,-8.803 35.642,-0.939 1.968,1.577 4.625,3.711 5.904,4.742 3.796,3.06 7.013,2.367 12.398,-2.669 5.486,-5.132 9.558,-6.229 20.524,-5.531 4.875,0.31 7.303,1.046 10.29,3.116 3.524,2.442 4.773,2.709 12.671,2.709 4.82,0 9.631,0.465 10.693,1.033 1.063,0.569 2.884,2.931 4.048,5.25 3.335,6.646 5.708,8.717 9.988,8.717 4.429,0 9.75,-3.665 20.402,-14.051 3.85,-3.755 8.162,-7.109 9.581,-7.454 2.89,-0.702 23.217,2.059 25.959,3.527 0.971,0.519 3.241,2.808 5.046,5.086 3.435,4.338 8.224,7.048 10.862,6.148 0.853,-0.292 4.817,-3.723 8.808,-7.624 l 7.256,-7.094 7.511,-0.379 c 7.264,-0.367 7.683,-0.261 12.753,3.231 8.023,5.526 10.83,5.125 20.262,-2.89 6.401,-5.44 8.249,-6.5 11.333,-6.5 2.026,0 4.572,0.614 5.656,1.365 4.356,3.015 5.975,2.823 11.184,-1.324 10.036,-7.991 19.283,-9.961 27.656,-5.893 2.431,1.181 5.143,1.87 6.025,1.532 0.883,-0.339 2.711,-3.117 4.063,-6.174 2.171,-4.909 3.076,-5.845 7.751,-8.022 6.206,-2.889 9.286,-3.071 14.773,-0.876 6.106,2.443 8.204,1.384 12.894,-6.511 5.954,-10.023 12.956,-15.852 23.917,-19.911 4.922,-1.823 9.868,-3.958 10.991,-4.745 1.124,-0.787 3.885,-5.238 6.137,-9.89 4.682,-9.672 7.828,-12.578 16.248,-15.009 3.117,-0.899 6.115,-2.177 6.663,-2.839 0.547,-0.661 1.522,-4.109 2.165,-7.661 1.54,-8.503 3.003,-11.123 11.155,-19.976 4.79,-5.203 7.454,-9.105 8.874,-13 3.13,-8.589 4.084,-10.041 9.832,-14.972 4.138,-3.55 6.2,-6.413 9.073,-12.594 4.452,-9.582 8.363,-13.762 14.479,-15.474 2.505,-0.701 5.114,-1.949 5.798,-2.773 0.86,-1.037 1.269,-6.152 1.328,-16.625 0.094,-16.577 0.366,-17.71 6.525,-27.196 3.34,-5.144 4.246,-7.772 5.957,-17.274 1.11,-6.164 2.406,-15.028 2.879,-19.698 1.012,-9.986 3.508,-14.577 10.565,-19.432 6.208,-4.271 6.565,-6.568 2.136,-13.743 -3.809,-6.171 -4.443,-9.744 -2.258,-12.731 1.743,-2.384 18.778,-8.714 25.04,-9.304 2.885,-0.272 9.606,0.469 16.456,1.815 10.423,2.049 12.388,2.159 19.675,1.106 8.649,-1.251 32.158,-1.588 37.415,-0.536 1.875,0.375 5.818,3.032 9.645,6.5 3.559,3.226 7.025,5.864 7.702,5.863 0.676,0 3.93,-1.842 7.23,-4.089 5.83,-3.971 6.199,-4.077 13,-3.719 6.144,0.323 7.655,0.823 12.362,4.089 6.262,4.345 9.139,4.614 18.299,1.713 4.449,-1.409 10.514,-2.191 20.339,-2.62 l 14,-0.611 7.715,4.119 c 4.243,2.266 8.84,4.12 10.216,4.12 1.548,0 4.434,-1.716 7.569,-4.5 2.787,-2.475 5.164,-4.521 5.283,-4.547 0.12,-0.025 6.593,-0.44 14.386,-0.921 7.793,-0.481 15.159,-1.405 16.368,-2.052 2.306,-1.234 2.33,-2.146 0.368,-14.107 -0.836,-5.093 1.906,-6.875 10.568,-6.867 9.583,0.01 13.452,1.449 19.967,7.439 6.869,6.314 9.182,7.156 23.56,8.57 11.497,1.131 10.947,0.912 21.398,8.513 4.214,3.066 8.768,3.178 16.695,0.41 7.792,-2.721 11.454,-2.071 16.97,3.013 2.416,2.227 5.28,4.049 6.366,4.049 1.768,0 9.148,-3.322 20.571,-9.259 17.768,-9.236 17.015,-8.578 18,-15.738 0.998,-7.257 1.871,-7.654 18.257,-8.317 20.025,-0.81 24.651,1.03 27.725,11.026 2.549,8.292 4.679,10.288 10.977,10.288 2.811,0 7.671,-0.9 10.801,-2 3.129,-1.1 6.507,-2 7.505,-2 4.05,0 14.027,3.244 18.551,6.032 5.91,3.641 9.097,3.731 14.007,0.394 7.742,-5.26 11.56,-6.381 21.825,-6.404 8.809,-0.02 10.145,0.239 15.352,2.978 3.782,1.99 7.157,3 10.021,3 3.782,0 4.993,-0.617 9.757,-4.971 2.991,-2.734 6.657,-5.434 8.145,-6 4.195,-1.595 13.414,-1.223 24.077,0.971 5.346,1.1 9.854,2 10.018,2 0.164,0 2.796,3.755 5.85,8.345 3.977,5.977 6.166,10.59 7.712,16.25 2.645,9.689 4.874,14.283 10.384,21.405 2.341,3.025 5.197,7.352 6.348,9.616 3.251,6.396 6.692,9.9 11.177,11.38 6.695,2.21 9.267,6.098 11.944,18.058 1.286,5.745 2.731,11.212 3.212,12.147 0.555,1.082 3.147,2.139 7.114,2.902 l 6.241,1.199 15.5,15.221 c 8.525,8.371 17.344,16.152 19.597,17.291 2.253,1.139 6.322,4.506 9.043,7.482 6.314,6.909 7.244,7.364 17.409,8.522 10.755,1.226 11.634,1.601 22.451,9.588 17.163,12.673 19.531,14.75 23.527,20.633 4.441,6.54 6.381,7.961 10.871,7.961 2.321,0 4.519,-1.394 9.403,-5.963 7.239,-6.771 10.547,-8.426 14.126,-7.065 1.335,0.508 7.229,5.334 13.097,10.726 12.357,11.353 12.105,11.179 19.964,13.802 5.352,1.787 6.209,2.459 8.027,6.302 1.119,2.366 2.698,4.721 3.51,5.234 0.811,0.514 6.296,0.94 12.188,0.949 8.381,0.012 11.817,-0.42 15.787,-1.985 5.008,-1.974 16.828,-2.771 20.455,-1.379 2.437,0.935 4.063,4.926 6.061,14.879 0.993,4.95 2.421,10.237 3.171,11.75 1.264,2.548 1.811,2.75 7.426,2.75 5.069,0 7.087,-0.573 12.321,-3.5 3.442,-1.925 7.606,-3.5 9.252,-3.5 1.647,0 5.861,1.432 9.365,3.183 6.032,3.015 10.955,7.381 20.526,18.206 2.242,2.536 4.729,4.611 5.527,4.611 0.797,0 3.913,-1.854 6.923,-4.121 l 5.473,-4.12 7.745,0.526 c 8.008,0.543 10.021,1.381 17.332,7.215 3.655,2.917 4.105,3.009 16.197,3.334 6.841,0.183 16.102,-0.17 20.582,-0.784 4.479,-0.615 11.417,-1.543 15.417,-2.063 5.906,-0.766 8.349,-1.672 13,-4.821 8.753,-5.926 11.419,-7.045 21.923,-9.206 12.631,-2.599 14.304,-3.703 14.304,-9.436 0,-6.33 1.446,-8.725 7.428,-12.303 6.707,-4.012 11.763,-10.188 16.197,-19.786 3.429,-7.421 3.63,-7.633 9.876,-10.435 6.057,-2.718 9.499,-6.368 9.499,-10.074 0,-0.646 1.575,-4.663 3.5,-8.926 3.101,-6.869 3.501,-8.705 3.506,-16.126 0.01,-10.836 1.493,-19.727 3.817,-22.839 1.017,-1.362 4.726,-3.97 8.243,-5.797 8.481,-4.405 10.335,-6.306 14.308,-14.67 2.685,-5.655 5.233,-8.872 12.741,-16.091 5.162,-4.963 13.077,-12.901 17.59,-17.64 7.353,-7.721 8.756,-8.743 13.5,-9.839 7.497,-1.732 9.303,-3.167 10.826,-8.608 0.867,-3.096 3.283,-7.058 6.908,-11.326 3.066,-3.61 8.088,-9.714 11.161,-13.564 5.542,-6.944 6.966,-8.043 14.099,-10.883 2.928,-1.165 4.317,-2.686 6.662,-7.295 3.214,-6.314 7.818,-11.141 15.639,-16.395 4.562,-3.064 36.735,-34.713 52.5,-51.645 5.558,-5.969 8.167,-7.816 18,-12.74 l 11.5,-5.759 8,0.619 c 9.146,0.707 21.423,3.662 25.026,6.023 1.346,0.882 3.31,3.285 4.363,5.34 3.038,5.927 7.874,11.475 18.611,21.352 6.469,5.952 11.942,10.056 15.5,11.625 3.025,1.334 9.1,5.024 13.5,8.201 10.993,7.938 13.979,9.295 21.492,9.771 8.268,0.523 12.931,-1.599 14.757,-6.714 1.538,-4.308 0.726,-17.772 -1.39,-23.061 -0.884,-2.208 -5.679,-7.776 -12.019,-13.954 -12.613,-12.291 -14.331,-14.852 -14.336,-21.366 0,-3.923 0.643,-5.786 3.293,-9.5 1.813,-2.54 5.944,-9.569 9.18,-15.619 5.771,-10.788 5.897,-11.196 6.555,-21.159 0.644,-9.75 0.856,-10.475 5.289,-18.036 4.476,-7.634 4.645,-8.225 5.492,-19.123 0.815,-10.477 1.073,-11.456 3.781,-14.306 1.598,-1.682 4.706,-3.972 6.906,-5.088 2.2,-1.116 5.915,-3.582 8.255,-5.48 2.341,-1.898 5.716,-3.886 7.5,-4.417 1.785,-0.532 11.12,-1.219 20.745,-1.529 l 17.5,-0.562 13.5,4.141 13.5,4.14 43.841,0.438 c 36.173,0.362 44.306,0.195 46.5,-0.955 3.063,-1.605 8.402,-7.055 10.039,-10.248 3.585,-6.993 -2.146,-21.428 -10.647,-26.816 -4.56,-2.89 -4.761,-3.219 -5.492,-9 -2.018,-15.945 -3.842,-25.717 -6.189,-33.145 -2.382,-7.542 -3.072,-8.603 -9.578,-14.741 -3.856,-3.638 -7.566,-6.627 -8.243,-6.642 -4.56,-0.104 -23.731,-16.027 -23.731,-19.71 0,-0.803 1.593,-4.042 3.541,-7.197 3.332,-5.399 3.597,-6.468 4.494,-18.151 1.668,-21.736 3.701,-31.385 8.147,-38.669 3.381,-5.538 15.705,-14.693 27.788,-20.643 10.417,-5.128 11.95,-5.602 18.139,-5.602 8.36,0 10.902,0.941 17.726,6.559 4.301,3.541 6.17,4.441 9.221,4.441 2.104,0 4.114,-0.465 4.465,-1.034 0.352,-0.569 1.057,-3.98 1.566,-7.579 1.575,-11.12 3.321,-12.7 16.528,-14.962 9.815,-1.68 16.243,-5.205 22.868,-12.538 2.94,-3.254 3.517,-4.641 3.517,-8.456 0,-10.456 -2.501,-11.503 -30.275,-12.68 -23.104,-0.978 -21.144,-1.187 -34.406,3.663 -2.923,1.068 -11.452,1.847 -28.354,2.588 -25.088,1.099 -27.212,1.486 -34.181,6.232 -2.044,1.392 -5.419,2.826 -7.5,3.187 -7.444,1.291 -40.435,12.918 -45.311,15.969 -2.734,1.71 -7.35,5.003 -10.259,7.317 -6.317,5.026 -13.913,7.293 -24.438,7.293 -6.601,0 -8.369,-0.477 -18.394,-4.965 -6.1,-2.731 -14.141,-7.049 -17.869,-9.596 -3.727,-2.547 -7.589,-4.475 -8.58,-4.284 -0.991,0.191 -2.977,2.355 -4.412,4.809 -1.454,2.487 -4.863,6.028 -7.701,7.999 -2.8,1.945 -7.28,5.584 -9.956,8.086 -2.675,2.502 -7.564,6.385 -10.864,8.63 -3.3,2.245 -10.888,8.393 -16.863,13.662 -6.668,5.881 -12.46,10.132 -15,11.01 -7.822,2.703 -29.152,6.53 -39.89,7.156 -13.092,0.764 -27.484,5.211 -36.411,11.252 -11.298,7.646 -21.301,13.163 -33.506,18.483 -6.781,2.956 -16.56,7.936 -21.73,11.066 -5.17,3.131 -9.887,5.692 -10.482,5.692 -0.594,0 -6.264,2.468 -12.599,5.484 -9.116,4.339 -14.126,6.011 -24.019,8.013 -6.875,1.391 -14.525,3.195 -17,4.008 -7.058,2.321 -15.859,3.685 -19.132,2.966 -4.716,-1.036 -8.87,-7.537 -8.861,-13.871 0.01,-5.764 1.359,-8.257 7.743,-14.281 l 4.25,-4.009 v -7.686 -7.686 l 4.858,-4.719 4.859,-4.719 0.493,-12.111 c 0.636,-15.626 1.978,-18.661 10.183,-23.018 3.241,-1.721 6.291,-3.842 6.778,-4.712 0.599,-1.07 0.029,-3.62 -1.754,-7.856 -2.128,-5.055 -2.528,-7.246 -2.061,-11.288 0.514,-4.449 1.147,-5.523 5.604,-9.515 3.366,-3.015 5.535,-5.985 6.571,-9 2.324,-6.761 5.824,-11.448 12.068,-16.162 l 5.628,-4.25 -0.789,-5.544 c -1.467,-10.316 -1.191,-11.531 3.835,-16.905 l 4.627,-4.946 -0.579,-6.91 c -0.485,-5.777 -0.219,-7.719 1.619,-11.846 1.679,-3.769 2.315,-7.539 2.687,-15.937 0.415,-9.369 0.881,-11.766 3.147,-16.17 l 2.66,-5.17 -2.098,-5.33 c -3.708,-9.422 -11.336,-33.542 -11.336,-35.847 0,-1.228 1.178,-4.859 2.619,-8.068 3.483,-7.762 2.855,-9.892 -4.069,-13.8 -6.349,-3.583 -6.927,-4.457 -8.61,-13.011 -0.896,-4.558 -2.146,-7.41 -4.349,-9.925 -3.007,-3.433 -3.092,-3.804 -3.142,-13.604 -0.067,-13.108 0.13,-12.438 -4.199,-14.222 -5.822,-2.398 -8.111,-5.17 -10.279,-12.45 -1.279,-4.295 -3.391,-8.403 -5.847,-11.376 -2.115,-2.559 -4.363,-6.382 -4.996,-8.495 -0.634,-2.114 -2.944,-6.012 -5.134,-8.662 -2.218,-2.684 -4.644,-7.093 -5.474,-9.949 -1.237,-4.257 -3.002,-6.641 -10.379,-14.025 -7.368,-7.374 -9.192,-9.837 -10.661,-14.396 -0.975,-3.025 -3.057,-7.382 -4.628,-9.682 -1.577,-2.31 -3.45,-7.025 -4.186,-10.537 -0.733,-3.496 -2.574,-8.474 -4.091,-11.063 -3.682,-6.282 -7.385,-24.686 -8.193,-40.718 -0.984,-19.52 1.167,-24.117 12.182,-26.03 12.004,-2.085 13.546,-4.738 5.619,-9.665 -3.309,-2.058 -5.892,-4.804 -8.25,-8.774 -1.888,-3.179 -4.095,-6.821 -4.903,-8.093 -1.31,-2.061 -1.273,-2.862 0.346,-7.362 1.356,-3.773 1.638,-6.34 1.113,-10.155 -0.667,-4.852 -0.536,-5.277 2.638,-8.552 3.745,-3.864 3.712,-4.012 -2.627,-11.955 -2.48,-3.107 -3,-4.674 -3,-9.038 0,-4.752 0.375,-5.664 3.75,-9.12 4.438,-4.545 4.593,-6.025 1.171,-11.195 l -2.578,-3.897 1.749,-8.413 1.748,-8.413 -3.17,-5.541 c -1.743,-3.047 -3.17,-6.453 -3.17,-7.568 0,-1.116 1.834,-4.436 4.076,-7.379 l 4.077,-5.35 -0.611,-10.5 c -0.594,-10.223 -0.532,-10.655 2.355,-16.378 2.697,-5.347 2.913,-6.503 2.387,-12.778 -0.567,-6.763 -0.503,-7.009 3.262,-12.475 4.474,-6.497 6.258,-7.825 13.336,-9.926 2.872,-0.854 5.472,-2.203 5.778,-2.999 1.212,-3.159 -0.669,-6.131 -5.569,-8.798 -9.417,-5.125 -11.118,-9.419 -12.778,-32.254 -0.534,-7.339 -0.34,-8.654 2.049,-13.87 3.269,-7.142 3.275,-8.304 0.064,-13.035 -3.072,-4.527 -3.211,-5.611 -1.506,-11.703 0.999,-3.566 1.045,-5.445 0.196,-7.882 -1.62,-4.646 -1.389,-7.286 1.082,-12.372 l 2.197,-4.523 -2.191,-2.754 c -1.206,-1.514 -4.058,-6.353 -6.338,-10.753 -3.808,-7.346 -4.163,-8.69 -4.347,-16.435 -0.195,-8.257 -0.271,-8.494 -3.572,-11.25 -1.854,-1.548 -3.682,-2.815 -4.061,-2.815 -1.009,0 -2.886,-5.861 -2.886,-9.008 0,-1.491 -1.35,-5.24 -3,-8.332 -3.644,-6.83 -3.696,-8.353 -0.5,-14.66 4.178,-8.245 3.833,-8.612 -8.717,-9.249 -6.329,-0.322 -6.907,-0.558 -10,-4.081 -1.806,-2.056 -4.852,-4.511 -6.769,-5.455 -4.283,-2.107 -5.98,-5.306 -5.999,-11.31 -0.019,-5.93 -1.668,-7.317 -10.343,-8.7 -3.755,-0.599 -7.501,-1.648 -8.323,-2.33 -2.533,-2.102 -5.429,-8.762 -6.531,-15.017 -1.201,-6.817 -2.586,-8.14 -10.318,-9.858 -6.966,-1.548 -8.603,-2.869 -13.213,-10.665 -11.974,-20.251 -13.251,-26.406 -8.125,-39.166 1.984,-4.941 -0.307,-6.279 -9.568,-5.586 -3.902,0.292 -7.681,0.127 -8.398,-0.368 -0.717,-0.495 -1.692,-3.647 -2.166,-7.006 -0.583,-4.121 -1.833,-7.515 -3.842,-10.436 -3.105,-4.513 -8.476,-22.445 -9.795,-32.702 -0.61,-4.741 -1.293,-6.007 -5.397,-10 -3.279,-3.19 -4.907,-5.697 -5.388,-8.298 -0.38,-2.05 -2.359,-5.875 -4.399,-8.5 l -3.709,-4.773 v -10 -10 l 3.75,-4.827 c 2.063,-2.654 3.75,-5.583 3.75,-6.508 0,-0.924 -1.162,-3.863 -2.581,-6.53 -4.151,-7.796 -1.593,-12.93 8.283,-16.625 6.437,-2.408 9.631,-2.509 15.363,-0.487 3.718,1.312 4.514,1.327 5.729,0.112 2.245,-2.246 0.572,-5.235 -5.609,-10.015 -8.985,-6.95 -10.352,-8.786 -10.352,-13.903 0,-5.904 1.714,-8.391 7.165,-10.401 8.42,-3.105 8.866,-4.623 3.002,-10.201 -3.822,-3.636 -4,-4.079 -4,-9.967 0,-5.752 0.571,-7.291 8.61,-23.195 6.048,-11.964 10.104,-18.668 13.629,-22.524 5.889,-6.443 19.514,-14.86 31.363,-19.374 10.068,-3.835 15.397,-7.332 25.206,-16.542 4.231,-3.972 9.267,-8.026 11.192,-9.009 1.925,-0.982 6.184,-4.02 9.465,-6.751 7.187,-5.983 9.523,-6.96 16.035,-6.702 8.477,0.335 9.415,0.068 13.772,-3.917 2.326,-2.127 5.634,-4.584 7.352,-5.46 4.37,-2.231 16.285,-4.737 26.591,-5.594 l 8.716,-0.724 5.362,-5.071 c 4.847,-4.585 6.122,-5.234 13.284,-6.76 4.358,-0.928 9.948,-2.316 12.423,-3.083 2.475,-0.767 6.975,-1.912 10,-2.544 4.918,-1.028 10.968,-3.749 22.123,-9.949 1.992,-1.107 6.042,-2.277 9,-2.6 7.752,-0.846 9.514,-2.285 10.885,-8.89 0.932,-4.489 1.954,-6.322 5.168,-9.277 4.192,-3.853 16.824,-19.87 16.824,-21.333 0,-0.466 1.883,-5.009 4.185,-10.098 l 4.185,-9.251 0.44,-23.22702 c 0.423,-22.267 0.349,-23.455 -1.793,-28.731 -1.229,-3.027 -3.491,-10.35 -5.026,-16.273 -1.536,-5.923 -3.706,-13.919 -4.822,-17.769 -1.117,-3.85 -2.493,-9.615 -3.06,-12.812 -0.695,-3.924 -2.146,-7.334 -4.469,-10.5 -4.105,-5.594 -6.242,-12.524 -7.611,-24.688 -0.557,-4.95 -1.016,-9.371 -1.021,-9.824 0,-0.454 -2.495,-3.432 -5.535,-6.619 -4.74,-4.97 -5.817,-6.847 -7.556,-13.176 -1.115,-4.06 -3.059,-8.956 -4.319,-10.881 -4.14,-6.324 -5.498,-9.651 -6.514,-15.959 -0.564,-3.501 -2.223,-8.266 -3.79,-10.884 -1.533,-2.561 -4.026,-7.92 -5.541,-11.907 -1.514,-3.987 -3.991,-10.536 -5.503,-14.552 -1.512,-4.016 -4.273,-9.662 -6.135,-12.547 -1.861,-2.885 -4.394,-8.825 -5.629,-13.2 -1.235,-4.376 -2.706,-8.517 -3.271,-9.203 -0.564,-0.686 -1.801,-3.948 -2.748,-7.248 -0.948,-3.3 -2.872,-8.25 -4.276,-11 -2.166,-4.24 -2.64,-6.803 -3.122,-16.872 l -0.569,-11.872 -5.229,-4.628 c -4.124,-3.65 -5.66,-5.896 -7.273,-10.628 -1.124,-3.3 -3.373,-7.859 -4.998,-10.131 -2.435,-3.407 -3.133,-5.717 -3.977,-13.17 -1.308,-11.544 -1.35,-11.646 -7.607,-18.296 -4.208,-4.473 -5.692,-7.001 -7.39,-12.593 -1.281,-4.216 -3.742,-9.145 -6.192,-12.403 -5.375,-7.146 -5.9,-8.737 -6.573,-19.907 l -0.571,-9.5 -4.204,-4.157 c -3.526,-3.488 -4.317,-5.013 -4.907,-9.462 -0.593,-4.468 -1.333,-5.885 -4.7,-8.992 -4.905,-4.529 -7.831,-11.798 -8.591,-21.349 -0.309,-3.872 -0.95,-7.799 -1.426,-8.727 -0.476,-0.928 -3.486,-3.526 -6.689,-5.773 -6.015,-4.219 -7.42,-6.338 -11.639,-17.546 -1.245,-3.308 -3.447,-8.277 -4.894,-11.044 -1.446,-2.766 -3.588,-8.952 -4.76,-13.746 -2.236,-9.152 -2.258,-9.182 -11.887,-16.567 -3.003,-2.302 -9.993,-14.598 -9.993,-17.578 0,-0.82 0.736,-3.034 1.635,-4.92 2.598,-5.448 1.294,-8.213 -5.38,-11.41 -4.703,-2.253 -6.541,-3.949 -10.547,-9.729 -6.039,-8.711 -8.288,-13.601 -9.194,-19.987 -0.825,-5.817 -2.53,-9.481 -6.983,-15.013 -5.162,-6.412 -5.76,-8.258 -6.423,-19.828 -0.53,-9.257 -0.921,-11.139 -2.502,-12.069 -5.071,-2.984 -8.096,-6.614 -12.078,-14.492 -2.729,-5.399 -6.107,-10.29 -9.057,-13.111 -5.037,-4.819 -9.915,-13.752 -10.993,-20.13 -0.364,-2.155 -2.212,-6.045 -4.106,-8.644 -1.894,-2.599 -3.986,-6.076 -4.648,-7.726 -0.661,-1.65 -2.945,-6.375 -5.074,-10.5 -2.128,-4.125 -4.755,-9.75 -5.837,-12.5 -1.083,-2.75 -3.662,-7.25 -5.733,-10 -2.071,-2.75 -5.933,-8.825 -8.583,-13.5 -2.65,-4.675 -5.964,-10.3 -7.363,-12.5 -1.399,-2.2 -6.017,-10.3 -10.263,-18 -4.245,-7.7 -9.818,-16.8 -12.384,-20.221 -2.927,-3.904 -5.396,-8.661 -6.628,-12.769 -1.081,-3.601 -3.272,-8.676 -4.871,-11.278 -1.599,-2.603 -4.273,-8.332 -5.944,-12.732 -1.671,-4.4 -4.781,-11.375 -6.913,-15.5 -2.131,-4.125 -4.407,-9.155 -5.057,-11.178 -0.65,-2.023 -2.875,-6.298 -4.944,-9.5 -2.069,-3.202 -8.212,-14.822 -13.651,-25.821998 -5.439,-11 -11.072,-21.8 -12.517,-24 -5.444,-8.286 -11.962,-28.416 -11.962,-36.945 0,-4.593 -2.068,-7.006 -5.309,-6.192 -2.101,0.527 -2.923,1.678 -4.152,5.818 -2.108,7.1 -3.63,9.096 -8.149,10.696 -5.273,1.867 -6.39,2.915 -6.39,5.995 0,1.91 1.358,3.797 4.97,6.907 3.597,3.098 5.278,5.429 6.09,8.445 0.617,2.292 4.401,12.741 8.409,23.221 7.958,20.810998 9.824,26.732998 11.515,36.554998 1.543,8.957 6.659,26.944 9.475,33.311 2.868,6.486 4.706,12.909 3.475,12.148 -0.501,-0.309 -2.114,-2.677 -3.586,-5.261 -1.471,-2.584 -4.352,-6.948 -6.402,-9.698 -5.228,-7.014 -8.917,-18 -9.883,-29.433 -0.677,-8.02 -1.133,-9.705 -3.041,-11.25 -3.014,-2.441 -3.244,-2.385 -8.299,1.99 -2.419,2.094 -7.156,4.812 -10.527,6.041 -3.371,1.229 -6.396,2.666 -6.722,3.194 -0.325,0.527 -1.679,0.958 -3.007,0.958 -1.718,0 -2.896,-0.939 -4.078,-3.25 -0.914,-1.787 -3.128,-4.887 -4.921,-6.888 -1.793,-2 -3.564,-5.15 -3.935,-7 -0.372,-1.849 -1.116,-4.786 -1.653,-6.525 l -0.978,-3.164 -9.944,0.192 c -11.32,0.219 -11.875,0.525 -14.656,8.074 -1.459,3.96 -2.71,5.46 -6.31,7.565 -5.254,3.073 -7.291,7.126 -4.822,9.594 0.861,0.862 4.637,2.317 8.39,3.235 l 6.823,1.667 5.838,8.5 c 3.211,4.675 7.451,11.628 9.422,15.451 1.972,3.823 5.846,10.269 8.61,14.325 3.33,4.887 5.951,10.328 7.771,16.133 2.973,9.483 11.301,26.312 15.477,31.274 3.807,4.525 5.995,9.388 8.015,17.817 2.335,9.744 4.163,13.917 10.559,24.105 2.899,4.617 6.734,11.545 8.524,15.395 3.954,8.507 9.107,17.753 17.256,30.962 5.777,9.365 7.382,13.538 5.206,13.538 -1.968,0 -25.043,-20.377 -42.717,-37.72 -8.593,-8.433 -13.018,-11.977 -17.811,-14.264 -3.507,-1.674 -8.317,-4.664 -10.688,-6.646 -2.371,-1.981 -6.646,-4.634 -9.499,-5.896 -6.395,-2.828 -15.288,-9.304 -18.467,-13.447 -8.876,-11.568 -10.789,-12.352 -16.18,-6.633 -2.655,2.817 -4.086,3.471 -8.416,3.85 -7.29,0.637 -8.283,1.747 -8.283,9.256 0,3.441 -0.675,7.871 -1.5,9.846 -2.015,4.823 -1.889,7.265 0.5,9.654 1.729,1.729 3.333,2 11.829,2 9.221,0 10.105,0.183 14.304,2.965 2.462,1.631 7.602,5.676 11.422,8.989 3.82,3.313 10.095,8.474 13.945,11.469 9.838,7.653 25.689,25.04 30.966,33.965 2.449,4.142 5.53,9.237 6.848,11.322 8.616,13.635 12.969,20.93 17.477,29.29 2.817,5.225 7.597,13.1 10.621,17.5 3.024,4.4 7.125,10.665 9.113,13.922 1.988,3.258 5.085,7.641 6.883,9.742 1.798,2.1 4.521,7.009 6.051,10.908 1.529,3.899 4.209,8.965 5.954,11.259 5.635,7.403 18.542,33.571 22.726,46.071 4.19,12.52 7.127,28.537 8.362,45.598 0.553,7.636 1.341,10.971 4.016,17 2.095,4.722 4.093,11.812 5.394,19.141 1.137,6.403 2.972,13.753 4.078,16.333 1.106,2.581 2.011,5.272 2.011,5.981 0,0.709 1.99,5.284 4.421,10.167 3.758,7.547 4.576,10.302 5.45,18.378 0.708,6.543 1.963,11.694 4.032,16.548 3.648,8.559 7.449,26.942 9.607,46.452 0.882,7.975 2.927,19.486 4.545,25.581 1.856,6.992 3.322,15.848 3.974,24 0.568,7.105 1.449,15.619 1.957,18.919 0.509,3.3 1.196,8.537 1.528,11.638 0.664,6.22 1.261,7.214 6.737,11.221 5.097,3.729 6.649,7.173 7.852,17.418 0.563,4.798 1.96,12.098 3.104,16.223 1.519,5.479 2.108,10.687 2.186,19.327 l 0.107,11.827 -3.116,2.789 c -3.903,3.494 -8.861,4.23 -21.509,3.194 -7.085,-0.58 -10.283,-1.295 -12.119,-2.712 -20.289,-15.651 -30.13,-24.651 -31.827,-29.107 -0.68,-1.782 -0.823,-6.183 -0.39,-11.973 0.821,-10.973 0.861,-10.931 -11.484,-11.961 -11.237,-0.937 -11.973,-1.667 -12.74,-12.635 -0.78,-11.154 -1.573,-11.89 -8.53,-7.921 -5.34,3.046 -18.437,6.189 -25.645,6.155 -5.004,-0.024 -16.834,-2.588 -21.468,-4.652 -2.809,-1.251 -4.472,-2.976 -6.249,-6.482 -2.819,-5.564 -3.918,-6.285 -11.814,-7.744 -4.415,-0.816 -6.98,-2.025 -10.288,-4.846 -2.423,-2.068 -6.858,-5.784 -9.855,-8.259 -4.767,-3.937 -7.185,-7.172 -14.305,-19.139 -1.435,-2.412 -1.414,-3.483 0.254,-12.5 2.275,-12.308 6.861,-21.513 12.903,-25.895 4.834,-3.508 6.193,-7.838 2.742,-8.74 -2.792,-0.73 -22.144,1.713 -24.792,3.131 -3.4,1.819 -5.959,1.352 -9.483,-1.729 -1.807,-1.58 -5.616,-3.872 -8.465,-5.094 -4.03,-1.727 -5.548,-3.032 -6.838,-5.877 -6.455,-14.245 -8.61,-17.313 -14.301,-20.361 -3.4,-1.82 -4.078,-3.033 -6.777,-12.13 -0.952,-3.208 -3.457,-8.696 -5.567,-12.195 -2.11,-3.499 -3.837,-7.199 -3.837,-8.222 0,-1.023 1.125,-3.385 2.5,-5.249 3.385,-4.588 3.149,-6.983 -1.085,-11.054 -4.941,-4.749 -6.726,-8.473 -5.977,-12.467 0.738,-3.932 1.032,-4.185 10.541,-9.068 6.026,-3.093 8.508,-3.825 12.769,-3.764 6.879,0.1 8.254,1.414 14.49,13.853 2.757,5.5 6.419,11.753 8.138,13.895 1.718,2.142 4.251,6.642 5.63,10 2.318,5.649 2.763,6.13 5.955,6.434 5.257,0.501 6.039,-1.361 6.039,-14.372 0,-12.033 -0.515,-10.467 6.717,-20.408 2.67,-3.671 3.181,-29.41 0.711,-35.876 -1.695,-4.438 -1.687,-4.545 0.427,-6.257 1.183,-0.957 3.909,-2.038 6.059,-2.401 2.149,-0.364 4.729,-1.569 5.734,-2.678 1.726,-1.907 1.731,-2.087 0.094,-3.283 -0.984,-0.721 -6.152,-1.502 -11.986,-1.813 -12.271,-0.654 -14.025,-1.263 -20.682,-7.176 -2.998,-2.662 -6.119,-4.565 -7.487,-4.565 -1.29,0 -4.939,1.187 -8.108,2.638 -5.536,2.535 -6.219,2.612 -17.371,1.954 -10.517,-0.62 -17.546,-1.777 -28.364,-4.668 -3.199,-0.856 -4.187,-1.85 -6.665,-6.714 -2.438,-4.786 -3.772,-6.154 -8.244,-8.454 -6.751,-3.474 -19.835,-15.778 -19.835,-18.654 0,-2.085 0.791,-3.006 6.417,-7.471 6.621,-5.255 -0.874,-7.335 -14.417,-4.002 -3.575,0.88 -9.92,1.658 -14.1,1.728 -7.01,0.118 -8.021,-0.135 -13,-3.248 -3.29,-2.056 -8.988,-4.27 -14.579,-5.663 -6.949,-1.732 -10.752,-3.365 -15.656,-6.723 -3.562,-2.439 -9.557,-5.663 -13.321,-7.165 -3.764,-1.501 -8.194,-3.731 -9.844,-4.956 -1.65,-1.224 -6.6,-4.181 -11,-6.571 -4.4,-2.389 -11.375,-6.453 -15.5,-9.03 -4.125,-2.578 -9.761,-5.435 -12.525,-6.349 -2.764,-0.915 -7.264,-3.515 -10,-5.778 -2.736,-2.263 -7.225,-5.156 -9.975,-6.429 -8.866,-4.103 -17.983,-9.999 -18.342,-11.863 -0.205,-1.066 0.927,-2.98 2.746,-4.642 3.751,-3.426 3.903,-5.365 0.59,-7.536 -2.11,-1.382 -4.127,-1.532 -12.76,-0.943 l -10.253,0.699 -6.771,-7.536 c -8.073,-8.984 -17.718,-14.618 -30.5,-17.816 -6.965,-1.743 -9.086,-2.79 -13.272,-6.554 -2.741,-2.464 -8.44,-6.341 -12.665,-8.617 -5.769,-3.107 -8.704,-5.478 -11.784,-9.521 -2.51,-3.294 -5.888,-6.291 -8.702,-7.722 -3.709,-1.884 -4.931,-3.205 -6.311,-6.817 -2.049,-5.365 -3.689,-6.928 -8.976,-8.554 -4.256,-1.309 -15.846,-7.698 -21.265,-11.722 -1.795,-1.334 -4.382,-4.631 -5.748,-7.327 -2.865,-5.653 -4.815,-6.974 -10.296,-6.974 -5.316,0 -11.891,-2.438 -16.463,-6.104 -2.074,-1.664 -6.124,-4.083 -9,-5.375 -8.303,-3.732 -20.773,-13.906 -24.274,-19.805 -2.637,-4.443 -3.838,-5.438 -8.954,-7.42 -6.76,-2.618 -11.925,-7.204 -17.792,-15.796 -2.253,-3.3 -7.346,-9.419 -11.318,-13.599 -6.402,-6.735 -7.297,-8.155 -7.88,-12.5 -2.29,-17.07 -3.526,-19.401 -10.28,-19.401 -2.938,0 -4.275,0.791 -7.776,4.605 -4.055,4.417 -4.449,4.602 -9.665,4.54 -3.443,-0.042 -7.244,-0.904 -10.363,-2.35 -4.845,-2.248 -5.426,-2.28 -35.426,-1.965 -25.579,0.269 -31.91,0.631 -39.239,2.245 -12.144,2.675 -13.606,2.526 -20.376,-2.073 -12.005,-8.155 -18.183,-3.729 -18.341,13.139 -0.035,3.666 -0.777,5.661 -3.536,9.5 -1.92,2.672 -5.025,7.784 -6.899,11.359 -4.432,8.456 -6.762,10.495 -14.854,12.994 -6.527,2.016 -6.721,2.173 -7.737,6.287 -2.439,9.876 -3.145,11.434 -6.739,14.868 -2.534,2.422 -6.085,4.355 -10.779,5.869 -11.924,3.846 -14.386,5.483 -16.987,11.294 -3.006,6.717 -8.517,11.938 -16.013,15.172 -11.621,5.015 -12.703,5.784 -14.426,10.26 -2.321,6.031 -3.942,7.248 -10.98,8.243 -3.426,0.484 -6.853,1.398 -7.615,2.03 -0.762,0.633 -2.088,3.567 -2.947,6.52 -1.613,5.548 -4.371,8.464 -8.005,8.462 -1.115,0 -4.88,-1.35 -8.367,-3 -13.177,-6.234 -19.772,-1.708 -11.66,8.001 1.925,2.304 3.5,4.967 3.5,5.917 0,4.715 -13.397,19.651 -21.284,23.73 -1.578,0.816 -7.054,4.302 -12.171,7.746 -10.447,7.035 -12.553,8.004 -20.982,9.66 -7.434,1.461 -11.017,4.728 -12.06,10.999 -1.435,8.634 -3.754,11.264 -16.296,18.49 l -8.293,4.778 -10.207,0.121 c -5.614,0.067 -10.752,0.461 -11.418,0.875 -0.666,0.415 -1.497,2.426 -1.845,4.469 -1.397,8.194 -2.675,11.406 -5.571,14 -5.422,4.857 -10.845,8.034 -14.873,8.715 -2.172,0.367 -6.773,2.493 -10.224,4.725 -3.452,2.232 -11.676,6.849 -18.276,10.261 -6.6,3.412 -16.154,9.201 -21.232,12.866 -5.077,3.664 -11.667,7.574 -14.645,8.688 -2.977,1.114 -7.191,3.313 -9.364,4.887 -7.789,5.643 -9.773,6.249 -19.31,5.903 -5.517,-0.2 -9.272,0.093 -9.955,0.776 -0.603,0.603 -1.725,3.526 -2.494,6.495 -1.042,4.027 -2.234,6.034 -4.69,7.899 -1.811,1.375 -5.547,4.914 -8.302,7.865 -22.543,24.146 -22.312,24.022 -41.367,22.269 -12.944,-1.191 -15.219,-1.927 -26.641,-8.618 -6.661,-3.903 -11.886,-5.689 -14.125,-4.83 -0.812,0.312 -2.996,2.557 -4.854,4.99 -6.507,8.522 -11.202,10.235 -20.052,7.314 -4.903,-1.618 -7.185,-0.495 -9.733,4.792 -2.155,4.47 -2.525,4.729 -10.236,7.178 -7.683,2.439 -8.012,2.669 -8.313,5.791 -0.419,4.343 2.099,5.246 12.619,4.525 9.601,-0.658 13.194,0.855 13.194,5.556 0,3.537 -1.397,5.275 -7,8.709 -2.475,1.517 -4.831,3.253 -5.235,3.858 -1.506,2.257 -0.668,6.235 2.235,10.601 3.644,5.482 3.722,7.643 0.5,14 -2.868,5.659 -3.127,8.235 -1.005,9.996 1.598,1.326 4.537,-0.025 9.151,-4.205 1.346,-1.22 3.209,-1.822 5,-1.617 4.078,0.466 4.189,3.748 0.338,10.007 -3.652,5.935 -4.815,11.112 -2.991,13.311 2.269,2.733 4.921,1.695 8.278,-3.242 1.776,-2.612 8.1,-9.475 14.054,-15.25 6.979,-6.769 12.309,-12.97 15,-17.451 2.312,-3.848 5.514,-7.73 7.176,-8.697 5.968,-3.471 23.592,-3.616 26.987,-0.221 2.641,2.641 1.924,9.414 -1.429,13.481 -4.142,5.025 -4.557,7.704 -1.831,11.808 1.25,1.88 2.788,4.291 3.418,5.357 0.63,1.066 1.465,7.252 1.855,13.746 0.933,15.522 0.131,18.039 -7.041,22.087 -4.882,2.754 -5.497,3.504 -6.935,8.45 -1.712,5.891 -3.929,7.99 -9.577,9.07 -1.897,0.362 -5.215,1.543 -7.374,2.625 -5.095,2.55 -9.886,2.004 -19.519,-2.228 -5.493,-2.413 -7.853,-3.006 -9,-2.26 -1.734,1.126 -1.741,0.8 0.218,11.422 0.779,4.229 2.189,8.868 3.133,10.308 3.022,4.611 1.803,7.673 -4.156,10.444 -6.464,3.006 -6.685,4.779 -1.319,10.6 4.011,4.352 6.81,11.086 5.752,13.843 -0.324,0.843 -2.747,2.564 -5.385,3.825 -3.244,1.55 -5.018,3.1 -5.481,4.791 -0.376,1.375 -1.178,4.399 -1.781,6.72 -0.998,3.833 -1.484,4.317 -5.317,5.284 -6.91,1.743 -8.349,2.642 -11.353,7.095 -2.837,4.205 -3.79,4.745 -12.173,6.901 -2.368,0.609 -5.968,2.593 -8,4.409 -5.403,4.831 -7.367,5.591 -14.453,5.591 -7.024,0 -8.172,-0.749 -12.668,-8.263 -3.076,-5.141 -5.511,-6.335 -8.685,-4.255 -3.137,2.056 -4.059,4.317 -5.307,13.018 -1.301,9.075 -4.087,11.912 -12.698,12.935 -10.642,1.264 -13.084,2.33 -19.143,8.356 -6.99,6.953 -13.18,9.794 -23.71,10.884 -8.809,0.912 -8.636,0.762 -11.954,10.346 -1.322,3.819 -2.846,5.46 -9.82,10.576 -17.627,12.933 -22.707,15.738 -29.323,16.195 -5.799,0.399 -6.23,0.264 -9.75,-3.055 -5.977,-5.638 -4.546,-10.745 4.263,-15.209 4.068,-2.062 6.055,-4.075 6.055,-6.135 0,-0.244 -2.7,-3.346 -6,-6.893 l -6,-6.45 v -6.782 c 0,-4.187 0.961,-10.223 2.51,-15.775 1.381,-4.946 2.99,-12.368 3.575,-16.493 0.74,-5.215 1.935,-8.871 3.921,-12 2.375,-3.742 3.038,-6.269 3.933,-15 1.69,-16.49 1.699,-16.519 7.609,-23.143 6.104,-6.84 6.263,-7.628 4.418,-21.847 -1.424,-10.978 -0.418,-16.504 3.868,-21.248 3.404,-3.768 3.528,-4.178 3.386,-11.169 -0.176,-8.624 4.572,-27.452 7.336,-29.093 0.927,-0.55 3.093,-1.92 4.815,-3.045 l 3.129,-2.044 0.093,-16.956 c 0.101,-18.466 0.593,-20.964 5.792,-29.424 1.974,-3.211 4.481,-9.609 5.976,-15.252 1.417,-5.347 3.74,-12.018 5.162,-14.825 1.423,-2.807 3.898,-10.405 5.5,-16.885 4.296,-17.369 10.141,-33.163 14.443,-39.023 2.045,-2.786 5.256,-8.767 7.136,-13.293 3.372,-8.114 10.688,-20.969 16.935,-29.753 1.76,-2.475 4.096,-6.553 5.192,-9.062 1.096,-2.509 5.028,-7.909 8.739,-12 4.306,-4.748 7.924,-9.997 10.003,-14.513 4.145,-9.007 12.268,-19.983 24.694,-33.365 6.26,-6.743 11.135,-13.09 13.484,-17.56 2.056,-3.912 7.275,-10.97 11.832,-16 4.484,-4.95 9.231,-10.554 10.548,-12.453 1.318,-1.899 5.18,-6.544 8.582,-10.321 3.403,-3.778 7.661,-9.649 9.463,-13.047 4.837,-9.122 6.285,-10.809 18.864,-21.977 6.319,-5.611 13.348,-12.002 15.618,-14.202 2.27,-2.2 7.602,-6.334 11.848,-9.186 9.419,-6.327 14.482,-7.293 25.287,-4.824 5.415,1.238 7.697,1.373 9.238,0.548 3.312,-1.772 3.601,-5.451 0.808,-10.272 -2.407,-4.155 -2.429,-4.378 -0.865,-8.605 1.522,-4.111 1.508,-4.41 -0.268,-5.709 -1.031,-0.753 -3.951,-1.674 -6.489,-2.045 -3.734,-0.547 -5.386,-1.509 -8.655,-5.041 -5.819,-6.287 -7.727,-5.922 -11.568,2.207 l -3.106,6.574 -17.143,8.311 c -9.429,4.571 -20.072,9.724 -23.651,11.451 -8.743,4.218 -14.91,9.694 -20.662,18.347 -5.73,8.618 -16.476,19.842 -21.33,22.277 -5.683,2.851 -15.017,9.395 -22.307,15.637 -5.324,4.56 -7.528,5.83 -10.115,5.83 -5.97,0 -11.578,-6.432 -11.578,-13.279 0,-4.117 3.235,-9.177 13.72,-21.461 4.279,-5.013 9.341,-11.735 11.249,-14.937 1.908,-3.203 7.487,-11.448 12.398,-18.323 4.911,-6.875 10.294,-15.396 11.962,-18.935 4.087,-8.672 20.101,-33.832 27.324,-42.929 12.379,-15.591 15.378,-18.994 26.783,-30.39 10.407,-10.398 23.621,-21.132 30.365,-24.665 1.265,-0.663 5.462,-1.471 9.326,-1.795 10.526,-0.882 10.922,-1.453 10.065,-14.492 -0.398,-6.048 -1.225,-11.226998 -1.902,-11.903998 -0.93,-0.93 -2.165,-0.828 -5.527,0.456 -7.912,3.022 -9.935,2.041 -13.798,-6.692 -3.698,-8.361 -7.05,-7.302 -8.962,2.831 -0.666,3.529 -1.727,7.099 -2.357,7.931 -1.86,2.457998 -16.618,12.308998 -23.646,15.783998 -3.575,1.768 -11.176,6.721 -16.891,11.007 -5.844,4.383 -11.384,7.793 -12.661,7.793 -4.436,0 -14.424,-3.813 -18.551,-7.082 -7.662,-6.068 -13.999,-3.883 -15.786,5.444 -4.015,20.95 -3.953,20.747 -7.964,26.06 -2.168,2.871 -5.609,8.531 -7.647,12.578 -2.038,4.047 -5.394,9.64 -7.457,12.429 -2.064,2.789 -6.81,10.921 -10.547,18.071 -9.375,17.935 -19.459,34.768 -25.461,42.5 -8.729,11.246 -19.894,28.445 -24.556,37.827 -4.292,8.639 -8.129,13.173 -11.145,13.173 -0.768,0 -1.64,-0.634 -1.938,-1.409 -0.7,-1.826 12.173,-28.655 18.468,-38.489 2.677,-4.181 6.098,-10.04 7.603,-13.019 1.505,-2.98 4.949,-7.757 7.653,-10.616 3.201,-3.385 6.113,-7.95 8.345,-13.083 6.502,-14.95 20.133,-39.947 27.211,-49.902 8.556,-12.035 13.373,-21.413 18.377,-35.78 2.614,-7.502 5.17,-12.69 8.375,-17 8.753,-11.766 15.387,-22.696998 17.411,-28.691998 1.117,-3.308 4.062,-8.6 6.544,-11.762 2.483,-3.161 5.264,-7.545 6.18,-9.74 2.238,-5.362 15.019,-24.034 18.122,-26.475 1.365,-1.073 5.025,-2.903 8.135,-4.067 6.228,-2.33 7.142,-3.23 7.165,-7.055 0.011,-1.839 -1.403,-3.875 -4.876,-7.026 -4.154,-3.768 -5.214,-5.523 -7.038,-11.6459997 -1.335,-4.482 -2.864,-7.593 -4.043,-8.22400004 -3.349,-1.792 -7.058,-1.139 -9.949,1.75200004"
     stroke="none"
     fill="#000000"
     fill-rule="evenodd"
     id="path2" />
</svg>
