<?xml version="1.0" standalone="no"?>
<!DOCTYPE svg PUBLIC "-//W3C//DTD SVG 20010904//EN"
 "http://www.w3.org/TR/2001/REC-SVG-20010904/DTD/svg10.dtd">
<svg version="1.0" xmlns="http://www.w3.org/2000/svg"
 width="1536.000000pt" height="820.000000pt" viewBox="0 0 1536.000000 820.000000"
 preserveAspectRatio="xMidYMid meet">
<metadata>
Created by potrace 1.16, written by Peter Selinger 2001-2019
</metadata>
<g transform="translate(0.000000,820.000000) scale(0.100000,-0.100000)"
fill="#000000" stroke="none">
<path d="M8430 8179 c-346 -58 -1103 -192 -1173 -208 -62 -14 -653 -226 -870
-313 -15 -6 -104 -66 -197 -134 -341 -246 -328 -239 -715 -392 -392 -156 -505
-206 -1192 -530 l-481 -227 40 -41 c22 -23 36 -44 31 -46 -4 -3 -59 -22 -120
-42 -98 -33 -113 -41 -113 -59 0 -17 -29 -41 -123 -104 -67 -45 -142 -91 -167
-101 -75 -33 -376 -237 -620 -423 -88 -66 -173 -117 -358 -213 -304 -159
-1076 -635 -1609 -995 -251 -168 -285 -197 -343 -282 -21 -31 -79 -99 -128
-151 -50 -53 -102 -113 -115 -135 -44 -70 -85 -179 -127 -339 -23 -86 -44
-162 -47 -171 -5 -13 -2 -13 25 1 47 25 57 20 81 -38 19 -46 20 -59 11 -97 -9
-36 -21 -198 -33 -433 l-2 -40 90 -23 c254 -64 417 -67 581 -9 225 79 340 147
528 309 54 47 151 122 216 166 l117 80 30 -66 29 -67 27 47 c34 57 36 58 81
46 24 -7 60 -7 107 0 115 16 275 123 610 406 l271 230 162 75 c157 74 244 119
415 214 175 98 431 224 556 274 146 57 178 66 423 116 162 34 185 36 361 36
l188 0 39 -42 c28 -31 46 -65 64 -121 l24 -79 -56 -252 -57 -252 -116 -209
c-64 -116 -134 -238 -156 -271 -51 -79 -142 -155 -536 -451 l-312 -235 -32
-76 c-17 -43 -51 -135 -75 -207 -43 -127 -44 -131 -44 -266 l0 -136 165 -348
c141 -297 176 -362 236 -439 38 -50 98 -129 132 -176 96 -131 123 -155 186
-169 29 -6 110 -16 180 -22 88 -7 181 -24 306 -56 160 -39 190 -44 270 -41 82
3 95 6 145 37 49 30 57 32 85 22 17 -6 44 -11 60 -11 49 0 119 92 132 175 l5
34 -88 44 c-49 24 -155 70 -236 101 l-146 56 -133 0 -132 0 -111 107 c-105
101 -115 113 -182 240 -58 109 -74 149 -84 209 -16 101 -8 125 58 192 54 54
182 134 182 114 0 -5 -7 -26 -16 -47 -8 -20 -13 -39 -11 -41 2 -3 75 37 162
87 110 64 207 111 321 154 141 55 285 119 530 236 68 33 370 257 807 599 315
246 328 255 373 264 28 6 37 0 152 -122 95 -101 152 -176 266 -344 79 -117
168 -259 197 -313 28 -55 95 -177 149 -270 151 -265 152 -266 245 -611 47
-176 101 -371 120 -434 19 -63 39 -155 46 -203 l11 -88 128 -152 128 -152 198
-112 c110 -61 291 -157 404 -214 l205 -102 235 -49 c205 -42 245 -48 315 -43
137 9 178 8 240 -5 78 -17 100 -11 178 49 57 44 77 52 175 76 l111 26 12 54
c6 29 9 79 7 111 -5 55 -3 61 23 85 33 31 35 38 15 64 -12 16 -30 20 -97 24
-125 5 -351 -17 -447 -44 l-83 -24 -112 42 c-112 42 -718 372 -744 405 -37 45
-123 423 -123 537 0 135 42 459 81 623 44 186 53 251 74 497 8 95 21 190 30
215 9 25 32 99 51 165 47 158 61 190 141 301 l67 94 167 0 c236 0 269 -11 397
-132 53 -49 127 -111 166 -138 92 -62 110 -82 194 -220 l71 -115 -47 -5 c-73
-8 -66 -28 30 -85 51 -31 123 -88 188 -151 225 -216 443 -391 696 -558 l72
-48 85 -196 c52 -122 116 -296 168 -457 78 -247 82 -265 83 -355 1 -52 -5
-122 -13 -156 l-14 -60 52 -115 c29 -63 78 -160 109 -216 64 -119 98 -147 222
-184 62 -18 103 -22 240 -23 107 -1 172 -6 186 -13 40 -23 117 -34 261 -38 90
-3 151 -1 164 5 24 13 49 72 49 115 0 21 -12 47 -34 77 -31 41 -41 46 -96 57
-34 7 -95 27 -134 45 -40 19 -104 39 -142 45 -38 7 -77 14 -87 17 -9 3 -51 49
-92 102 -41 53 -117 149 -169 212 l-95 115 6 335 c3 184 7 336 8 338 2 2 119
-44 261 -103 318 -129 295 -111 487 -390 69 -100 88 -136 112 -215 42 -135
107 -286 143 -329 17 -20 49 -60 72 -89 45 -57 55 -62 63 -31 9 32 23 15 46
-54 17 -49 36 -78 90 -136 61 -65 72 -73 86 -61 14 11 20 9 49 -19 l33 -32 21
56 c14 35 22 79 22 117 0 46 6 69 25 103 14 23 28 65 31 91 11 87 -21 256 -87
468 -53 173 -165 472 -201 539 -14 28 -235 293 -343 412 -219 242 -275 310
-387 464 -66 91 -136 198 -155 237 -31 65 -34 81 -39 190 l-6 119 37 74 c71
146 318 479 401 542 74 56 110 79 125 79 30 0 183 -84 264 -144 122 -92 147
-104 414 -188 l233 -73 160 -172 c173 -184 200 -204 348 -258 63 -23 97 -28
217 -32 l142 -6 96 54 c83 46 103 62 141 115 24 34 56 87 70 119 31 67 30 80
-20 293 -32 134 -33 146 -21 195 7 29 16 69 19 89 4 21 40 105 81 188 82 164
138 292 183 417 16 44 53 115 81 156 51 77 60 100 40 112 -7 5 -6 12 4 23 8
10 38 50 66 90 l51 72 -24 10 c-21 8 -24 14 -23 58 2 45 -3 58 -55 134 -31 45
-91 120 -132 164 -97 105 -146 201 -146 287 0 73 13 92 130 204 l87 82 31 145
c38 172 43 317 14 376 -17 34 -19 35 -79 38 l-62 3 -144 -91 c-80 -49 -151
-90 -158 -90 -8 0 -45 -14 -84 -30 l-69 -30 -32 31 c-29 28 -33 29 -42 14 -8
-16 -20 -13 -128 35 -201 88 -284 137 -409 236 -66 53 -158 116 -205 141 -47
26 -152 96 -235 157 -263 194 -353 248 -688 415 -177 88 -382 192 -456 231
-79 42 -131 65 -128 55 4 -8 3 -15 -1 -15 -5 0 -63 22 -130 49 -131 53 -132
53 -79 -22 11 -16 16 -32 11 -37 -5 -5 -72 -16 -149 -26 l-140 -16 -215 36
c-250 42 -217 28 -675 276 -301 164 -517 307 -582 387 -21 25 -47 57 -59 71
l-20 25 -53 -35 c-46 -32 -56 -35 -89 -27 -20 5 -109 25 -197 45 -89 20 -210
56 -273 80 -111 44 -310 108 -427 138 -115 29 -614 107 -673 105 -15 0 -79 -9
-142 -20z"/>
</g>
</svg>
