<?xml version="1.0" standalone="no"?>
<!DOCTYPE svg PUBLIC "-//W3C//DTD SVG 20010904//EN"
 "http://www.w3.org/TR/2001/REC-SVG-20010904/DTD/svg10.dtd">
<svg version="1.0" xmlns="http://www.w3.org/2000/svg"
 width="724.000000pt" height="1213.000000pt" viewBox="0 0 724.000000 1213.000000"
 preserveAspectRatio="xMidYMid meet">
<metadata>
Created by potrace 1.16, written by Peter Selinger 2001-2019
</metadata>
<g transform="translate(0.000000,1213.000000) scale(0.100000,-0.100000)"
fill="#000000" stroke="none">
<path d="M1847 12119 c-55 -13 -224 -95 -261 -125 -192 -160 -248 -219 -340
-358 -160 -243 -182 -285 -276 -521 -51 -126 -112 -268 -136 -315 -34 -69 -44
-99 -49 -160 -3 -41 -28 -190 -55 -330 -27 -140 -56 -302 -65 -360 -29 -179
-63 -311 -106 -402 -69 -146 -75 -209 -62 -606 11 -329 13 -342 52 -552 45
-238 68 -392 63 -430 -2 -21 -21 -37 -95 -79 -89 -53 -217 -135 -286 -186 -19
-14 -43 -25 -55 -25 -39 0 -95 -21 -126 -46 -37 -32 -59 -96 -40 -119 21 -25
56 -18 81 16 21 30 22 31 83 23 98 -12 100 -12 192 75 99 92 150 121 217 121
83 0 106 -38 252 -410 62 -157 161 -388 220 -515 l107 -230 88 -345 c48 -190
102 -424 119 -520 90 -511 142 -896 156 -1150 l7 -115 -37 -58 c-33 -51 -75
-87 -103 -87 -6 0 -11 54 -13 119 -2 66 -7 123 -11 127 -11 10 -62 -32 -168
-140 -100 -102 -118 -133 -119 -206 -1 -25 -5 -50 -9 -56 -4 -6 -42 -19 -84
-28 -92 -20 -169 -67 -246 -149 -70 -75 -96 -134 -89 -202 8 -83 -16 -115
-158 -210 -111 -74 -120 -83 -123 -114 -2 -19 2 -46 8 -60 52 -112 65 -125
153 -150 72 -21 138 -18 286 15 48 11 96 15 140 11 36 -3 102 -2 146 2 65 7
107 4 218 -15 169 -29 165 -29 138 0 l-22 23 28 7 c15 4 101 9 190 13 l161 6
16 -31 c10 -19 16 -56 16 -94 0 -95 -53 -393 -103 -575 -42 -154 -47 -166
-103 -241 -33 -44 -75 -90 -94 -103 -19 -13 -90 -68 -159 -122 -132 -105 -186
-137 -224 -137 -48 0 -137 -84 -137 -130 0 -9 11 -23 25 -30 22 -12 29 -10 65
15 35 24 44 26 66 17 55 -26 134 2 154 52 5 14 19 30 31 36 12 7 47 35 79 63
84 76 137 117 150 117 6 0 22 7 35 16 20 13 26 14 29 3 46 -156 122 -381 136
-404 10 -16 30 -70 45 -120 34 -110 52 -148 122 -247 76 -108 148 -185 182
-193 31 -6 95 -70 224 -220 142 -166 322 -337 407 -386 41 -23 120 -72 175
-107 387 -251 750 -456 839 -474 45 -10 73 -9 158 6 117 21 155 34 182 65 19
21 19 21 -12 60 -25 31 -33 53 -40 112 -10 81 1 361 17 422 14 59 75 169 173
313 82 123 93 134 159 174 85 50 159 119 159 147 0 11 -9 31 -19 45 -13 16
-21 45 -23 93 -3 39 -11 95 -18 126 -13 52 -12 63 9 135 42 141 52 167 114
282 l61 113 175 145 c150 123 198 157 326 225 136 73 235 136 234 149 0 6
-124 93 -184 129 -220 135 -493 395 -568 543 -35 68 -39 84 -44 174 -4 76 -2
113 11 157 19 64 77 169 115 208 14 14 111 76 216 139 158 95 245 138 520 258
305 133 342 146 495 182 91 21 192 50 224 64 34 15 77 26 103 26 24 0 61 9 82
19 24 13 69 22 127 26 127 9 288 33 364 54 36 10 83 24 105 30 48 13 215 110
223 130 3 7 0 22 -6 32 -7 11 -8 20 -2 24 6 4 4 18 -6 36 -13 26 -19 29 -42
24 -17 -3 -41 1 -61 11 -50 25 -172 15 -291 -24 -52 -17 -139 -45 -194 -62
-54 -18 -127 -45 -162 -62 -82 -39 -94 -34 -94 36 0 30 -5 67 -10 82 -10 25
-7 31 27 66 46 47 101 75 179 89 32 5 77 16 99 24 74 25 121 27 177 5 73 -27
101 -25 141 10 42 36 51 37 65 5 8 -16 20 -25 35 -25 31 0 47 18 47 52 0 16 7
31 15 34 18 7 20 59 4 101 -5 15 -28 45 -50 66 -31 29 -47 37 -77 37 -27 0
-45 7 -58 21 -16 18 -27 21 -76 16 -44 -4 -72 -14 -120 -45 -35 -21 -79 -42
-98 -46 -55 -10 -133 19 -234 87 -50 33 -185 115 -301 180 -297 169 -997 651
-1135 782 -36 34 -131 114 -211 177 -80 64 -157 129 -170 146 -13 16 -88 98
-167 183 -152 164 -158 173 -338 526 -57 112 -81 228 -95 453 l-12 185 31 175
c18 96 36 205 41 241 5 36 36 137 69 225 33 87 74 213 91 279 28 102 31 122
19 143 -18 34 -104 111 -249 224 -68 53 -160 130 -204 170 -44 40 -132 116
-195 169 -111 93 -248 232 -399 409 -63 73 -90 118 -196 331 -131 260 -158
336 -191 533 -10 59 -14 125 -11 163 l5 64 -67 34 c-163 83 -314 183 -393 261
-80 78 -208 246 -316 412 -48 75 -56 94 -56 137 -1 28 3 66 7 85 16 70 -53
105 -156 79z"/>
</g>
</svg>
