<?xml version="1.0" encoding="UTF-8" standalone="no"?>
<svg
   width="2149.3647"
   height="2644.4692"
   viewBox="0 0 2149.3647 2644.4692"
   version="1.1"
   id="svg4"
   xmlns="http://www.w3.org/2000/svg"
   xmlns:svg="http://www.w3.org/2000/svg">
  <defs
     id="defs8" />
  <path
     d="m 1185.9583,0.5549442 c -22.443,1.534 -28.397,2.724 -43.5,8.691 -45.239,17.8739998 -87.583,44.5199998 -116.47,73.2909998 -16.802,16.735 -27.94401,32.769996 -42.04001,60.499996 -16.239,31.946 -24.326,54.487 -33.929,94.579 -11.465,47.861 -31.816,111.146 -51.266,159.421 -3.324,8.25 -10.885,25.35 -16.801,38 -17.543,37.513 -23.723,55.711 -33.998,100.115 -3.295,14.237 -7.603,31.693 -9.574,38.791 -18.435,66.387 -51.642,141.164 -86.194,194.094 -22.046,33.773 -40.702,55.354 -74.228,85.868 -48.546,44.185 -97.722,79.289 -115.721,82.607 -7.166,1.321 -13.131,4.538 -25.344,13.671 -12.158,9.091 -25.641,17.462 -42.435,26.345 -16.511,8.734 -34.58,20.045 -51.903,32.48996 -16.455,11.821 -38.122,26.402 -56.41,37.96 -26.946,17.03 -67.037,46.369 -94.187,68.926 -54.351,45.156 -169.749,178.824 -230,266.414 -28.655,41.657 -41.349,65.478 -48.522,91.058 -19.4889997,69.489 -17.9409997,112.362 5.718,158.444 5.834,11.363 9.139,14.414 16.957,15.658 9.092,1.446 34.162,-1.509 46.925,-5.531 19.663,-6.197 32.128,-19.861 55.219,-60.529 5.785,-10.188 13.107,-22.542 16.273,-27.453 30.327,-47.05 89.256,-115.107 145.53,-168.069 38.229,-35.98 56.723,-51.518 97.4,-81.829 14.85,-11.066 36,-27.095 47,-35.62 25.818,-20.01 37.783,-28.644 55,-39.69 34.573,-22.18 72.171,-41.431 104.5,-53.507 19.252,-7.191 63.539,-20.072 73.329,-21.329 7.288,-0.934 12.79,-3.768 19.994,-10.297 8.258,-7.484 12.328,-9.886 18.797,-11.095 9.314,-1.74 24.494,-10.995 45.795,-27.921 6.278,-4.989 11.802,-9.071 12.275,-9.071 2.254,0 5.069,13.276 7.254,34.216 2.162,20.727 4.338,61.757 6.064,114.344 1.35,41.169 2.36,61.143 3.966,78.44 1.828,19.698 4.065,36.537 6.641,50 6.102,31.888 10.063,64.113 14.874,121 6.897,81.551 7.934,87.525 26.905,155.061 26.414,94.034 35.076,130.27 45.056,188.487 17.914,104.5 34.806,164.01 65.233,229.815 17.232,37.268 26.423,60.74 33.193,84.767 6.577,23.34 17.36801,52.287 25.73901,69.049 8.144,16.304 17.051,40.358 20.485,55.321 1.105,4.814 1.849,11.982 1.868,18 0.027,8.498 -0.306,10.633 -2.22,14.215 -7.656,14.326 -40.08501,46.769 -87.74801,87.785 -32.297,27.793 -46.624,44.544 -43.661,51.046 0.615,1.35 1.957,2.454 2.983,2.454 3.742,0 13.371,-4.023 31.829,-13.299 18.316,-9.204 27.528,-12.868 30.099,-11.97 2.568,0.895 1.086,5.418 -4.251,12.977 -7.162,10.144 -11.389,18.808 -11.607,23.792 -0.096,2.2 0.171,7.181 0.594,11.069 0.663,6.109 0.476,7.728 -1.378,11.92 -1.181,2.669 -3.652,6.689 -5.491,8.934 -4.459,5.441 -7.609,10.704 -7.613,12.72 -0.013,5.578 9.595,0.738 23.996,-12.09 16.038,-14.287 19.652,-15.903 17.876,-7.996 -2.533,11.273 -19.841,37.943 -24.624,37.943 -2.717,0 -6.252,4.781 -6.252,8.455 0,4.586 2.889,7.545 7.365,7.545 4.824,0 8.025,-3.022 12.035,-11.36 4.965,-10.322 21.412,-27.64 26.25,-27.64 4.001,0 -0.673,9.896 -15.52,32.855 -10.995,17.005 -12.61,20.065 -11.288,21.387 4.434,4.434 17.84,-9.395 35.617,-36.742 9.10001,-13.998 18.58101,-26.475 21.45901,-28.24 1.75,-1.073 2.183,-0.939 3.216,0.99 1.816,3.393 2.269,20.149 0.932,34.451 -1.002,10.717 -4.769,34.432 -6.639,41.799 -0.671,2.643 13.687,-12.475 18.518,-19.5 5.702,-8.289 10.545,-18.511 14.689,-31.002 5.059,-15.249 9.172,-21.064 12.782,-18.068 3.311,2.749 1.525,9.928 -9.588,38.526 -7.069,18.192 -11.821,33.782 -11.825,38.794 0,2.221 0.449,2.75 2.347,2.75 6.966,0 22.67,-17.743 27.672,-31.264 2.804,-7.58 5.054,-8.705 19.386,-9.689 11.977,-0.822 16.428,-2.34 19.183,-6.545 0.885,-1.351 3.395,-7.063 5.579,-12.693 2.183,-5.63 4.71,-11.49 5.615,-13.023 2.346,-3.971 4.869,-3.585 6.304,0.964 1.618,5.131 2.233,46.905 1.129,76.75 -0.488,13.2 -0.698,24.45 -0.467,25 0.725,1.727 30.533,28.507 35.136,31.566 11.157,7.415 16.875,6.893 58.113,-5.305 29.181,-8.632 38.049,-10.169 58.5,-10.138 29.105,0.045 72.661,5.093 106,12.285 20.086,4.334 23.051,3.958 30.557,-3.871 3.938,-4.106 5.928,-5.261 12.814,-7.436 11.49,-3.63 27.781,-5.522 56.153,-6.521 25.103,-0.885 29.716,-1.647 32.855,-5.434 3.616,-4.359 -2.209,-14.637 -17.169,-30.292 -15.824,-16.56 -18.183,-17.391 -60.667,-21.369 -34.498,-3.23 -48.573,-6.068 -68.043,-13.718 -19.005,-7.467 -41.994,-19.44 -41.998,-21.872 -10e-4,-0.645 2.883,-1.347 6.923,-1.685 12.82,-1.075 15.8,-4.656 10.244,-12.31 -6.518,-8.981 -30.097,-28.363 -53.669,-44.116 -21.128,-14.119 -23.996,-17.764 -25.746,-32.72 -0.838,-7.161 -0.824,-11.42 0.057,-17.085 1.327,-8.541 3.007,-12.356 7.785,-17.688 2.982,-3.327 4.833,-7.934 6.816,-16.964 1.164,-5.299 5.441,-8.644 21.019,-16.436 8.405,-4.205 19.285,-10.535 24.176,-14.069 16.634,-12.015 20.446,-13.401 51.893,-18.868 21.093,-3.668 49.285,-10.213 55.909,-12.98 1.953,-0.817 4.218,-2.501 5.033,-3.744 3.395,-5.183 21.941,-13.666 29.97,-13.709 2.715,-0.015 5.427,0.951 8.861,3.154 5.972,3.832 7.431,3.284 9.942,-3.734 2.623,-7.332 6.139,-10.287 13.688,-11.503 8.367,-1.347 14.661,-4.673 22.793,-12.042 12.188,-11.045 22.766,-16.825 30.88,-16.872 10.78,-0.063 11.019,11.091 0.585,27.305 -5.221,8.112 -5.918,12.638 -3.124,20.269 1.188,3.246 2.84,8.152 3.671,10.902 2.111,6.992 3.364,8.127 7.215,6.532 3.384,-1.402 9.151,-7.34 11.454,-11.795 0.82,-1.586 2.196,-3.467 3.057,-4.182 2.019,-1.676 2.019,-0.947 0,20.358 -2.19,23.12 -1.276,26.502 11.926,44.087 13.461,17.931 21.305,26.19 29.64,31.207 9.701,5.841 47.26,13.36 59.528,11.919 2.849,-0.335 7.346,-1.568 9.994,-2.739 4.333,-1.917 5.346,-2.011 10.12,-0.943 2.918,0.653 10.453,3.84 16.745,7.082 12.633,6.509 21.902,9.974 26.68,9.974 8.02,0 13.327,-5.808 16.449,-18 2.797,-10.924 5.581,-18.158 10.006,-26 2.328,-4.125 5.591,-10.496 7.251,-14.159 4.412,-9.732 5.584,-10.271 23.18,-10.673 18.783,-0.429 83.542,2.525 92.256,4.208 4.101,0.792 8.313,2.407 10.837,4.156 3.594,2.49 5.257,2.914 12.856,3.278 7.227,0.345 9.018,0.127 10.413,-1.268 3.461,-3.46 1.115,-17.646 -4.997,-30.225 -1.92,-3.951 -3.338,-7.977 -3.151,-8.946 1.117,-5.801 13.377,-7.355 56.833,-7.201 34.664,0.122 48.504,-1.083 57.32,-4.992 6.474,-2.87 7.462,-4.571 5.148,-8.867 -4.465,-8.292 -35.051,-30.286 -58.864,-42.33 -11.795,-5.965 -22.324,-9.723 -87.753,-31.317 -40.893,-13.496 -87.626,-28.859 -103.851,-34.141 -41.359,-13.463 -62.531,-23.148 -81.745,-37.394 -14.601,-10.826 -17.504,-16.854 -14.726,-30.579 3.002,-14.831 11.06,-34.202 33.717,-81.05 46.147,-95.422 62.027,-132.951 77.22,-182.494 22.876,-74.6 35.917,-170.545 32.577,-239.665 -2.178,-45.062 -6.93,-79.655 -20.445,-148.841 -12.876,-65.914 -19.787,-103.53 -31.598,-172 -21.634,-125.414 -29.982,-165.52 -44.338,-213 -33.019,-109.21096 -40.366,-134.62096 -47.696,-164.96996 -4.004,-16.581 -6.067,-27.684 -7.96,-42.851 -0.605,-4.851 -2.826,-14.555 -4.934,-21.563 -4.983,-16.565 -5.629,-20.409 -3.699,-22.011 1.794,-1.488 15.527,-4.372 33.74,-7.085 52.177,-7.771 85.572,-0.193 167.358,37.975 31.59,14.743 45.19,20.65 58.529,25.424 11.275,4.034 49.593,35.837 75.536,62.693 5.519,5.713 14.738,16.238 20.486,23.388 30.484,37.92296 51.415,58.05896 66.185,63.67096 6.468,2.457 14.073,2.356 19.476,-0.26 9.55,-4.623 22.001,-24.05 26.22,-40.911 4.042,-16.15496 6.319,-54.60496 6.483,-109.49996 0.141,-46.983 -0.06,-48.183 -14.086,-84 -14.443,-36.881 -26.132,-53.757 -59.911,-86.5 -39.845,-38.624 -76.364,-64.692 -119.889,-85.583 -18.381,-8.822 -60.239,-25.692 -80.217,-32.329 -36.929,-12.27 -63.038,-15.996 -144.283,-20.592 -51.188,-2.896 -75.477,-4.914 -96.287,-8.002 -24.779,-3.677 -52.59,-11.855 -71.213,-20.94 -17.855,-8.711 -25.146,-16.632 -40.553,-44.054 -12.074,-21.49 -22.598,-36.029 -42.344,-58.496 -27.762,-31.589 -56.227,-57.807 -82.09,-75.612 -13.832,-9.522 -23.513,-18.774 -23.513,-22.472 0,-3.966 7.424,-17.964 17.414,-32.832 20.705,-30.818 44.821,-55.688 68.086,-70.213 12.797,-7.99 23.411,-12.621 45.707,-19.943 11.489,-3.773 27.956,-9.846 36.592,-13.496 16.365,-6.916 66.073,-30.049 67.549,-31.436 1.068,-1.003 -1.828,-23.855 -3.94,-31.088 -2.406,-8.241 -7.904,-17.34 -15.06,-24.926 -13.919,-14.755 -21.366,-17.223 -70.848,-23.487 -43.343,-5.486 -63.26,-10.221 -80.722,-19.191996 -11.303,-5.807 -20.211,-14.092 -33.049,-30.742 -12.325,-15.984 -29.701,-33.548 -39.638,-40.068 -18.907,-12.407 -53.143,-24.1779998 -80.091,-27.5369998 -10.969,-1.367 -84.72,-2.055 -101,-0.942"
     stroke="none"
     fill="#000000"
     fill-rule="evenodd"
     id="path2" />
</svg>
