<?xml version="1.0" standalone="no"?>
<!DOCTYPE svg PUBLIC "-//W3C//DTD SVG 20010904//EN"
 "http://www.w3.org/TR/2001/REC-SVG-20010904/DTD/svg10.dtd">
<svg version="1.0" xmlns="http://www.w3.org/2000/svg"
 width="600.000000pt" height="872.000000pt" viewBox="0 0 600.000000 872.000000"
 preserveAspectRatio="xMidYMid meet">
<metadata>
Created by potrace 1.16, written by Peter Selinger 2001-2019
</metadata>
<g transform="translate(0.000000,872.000000) scale(0.100000,-0.100000)"
fill="#000000" stroke="none">
<path d="M3413 8648 c-6 -7 -15 -26 -20 -43 -7 -22 -17 -31 -35 -33 -14 -2
-34 -12 -44 -23 -9 -10 -23 -19 -29 -19 -7 0 -20 -12 -30 -26 -13 -20 -22 -24
-43 -20 -30 7 -45 -1 -54 -25 -6 -15 -68 -33 -68 -20 0 3 9 17 20 31 27 34 25
57 -7 85 -36 31 -53 31 -53 0 0 -31 -16 -33 -23 -4 -4 17 -11 20 -28 16 -12
-3 -35 1 -51 9 -33 17 -58 13 -58 -9 0 -8 -7 -20 -15 -27 -8 -7 -15 -21 -15
-32 0 -17 -5 -19 -31 -13 -28 6 -30 5 -27 -21 2 -15 -3 -29 -9 -31 -7 -3 -13
1 -13 8 0 7 -7 21 -17 31 -9 10 -21 28 -27 41 -15 30 -50 29 -54 -1 -2 -13 2
-30 8 -38 10 -11 9 -14 -6 -14 -11 1 -30 7 -44 15 -36 20 -45 18 -59 -12 -11
-24 -10 -29 10 -44 14 -11 18 -18 10 -23 -6 -4 -11 -14 -11 -22 0 -26 45 -15
80 21 39 40 60 37 29 -6 -11 -16 -18 -36 -15 -44 8 -21 53 -19 65 4 10 18 45
34 55 24 6 -6 -20 -50 -48 -80 -12 -12 -27 -29 -34 -38 -7 -8 -22 -15 -32 -15
-11 0 -20 -4 -20 -10 0 -18 -21 -10 -44 17 -28 32 -41 25 -50 -25 -6 -41 -28
-68 -46 -57 -21 13 -22 -26 -1 -49 11 -12 21 -28 21 -34 0 -7 11 -18 25 -24
22 -10 24 -16 19 -45 -5 -28 -3 -35 13 -39 15 -4 18 -12 15 -35 -2 -16 -13
-35 -23 -42 -12 -9 -15 -17 -8 -27 14 -23 11 -30 -17 -40 -20 -8 -25 -16 -22
-38 2 -22 8 -28 36 -30 35 -4 43 -25 15 -41 -13 -7 -25 -3 -49 17 -17 15 -39
32 -50 38 -17 10 -16 13 19 35 41 27 53 47 37 63 -16 16 -12 26 10 26 13 0 20
7 20 20 0 11 -6 20 -14 20 -8 0 -17 7 -20 16 -3 9 -12 14 -19 11 -6 -2 -17 3
-23 12 -10 13 -16 13 -38 3 -38 -17 -48 -15 -41 7 14 46 -38 34 -54 -12 -9
-23 -14 -28 -23 -19 -9 9 -8 16 5 30 15 17 24 52 13 52 -3 0 -21 -10 -41 -22
-40 -23 -55 -16 -55 28 0 11 -5 25 -12 32 -17 17 -3 26 21 13 36 -20 95 23 61
44 -15 9 -12 36 5 55 22 24 9 97 -21 127 -35 35 -71 30 -88 -12 -8 -19 -21
-38 -29 -41 -20 -7 -86 37 -87 59 0 21 -50 25 -50 3 0 -7 -7 -20 -17 -27 -15
-13 -14 -11 1 19 17 33 17 34 -8 59 -14 14 -26 29 -26 34 0 4 -21 15 -47 25
-29 11 -72 42 -108 76 -33 32 -64 58 -70 58 -37 0 -47 -70 -16 -97 28 -23 17
-33 -35 -33 -32 0 -46 -5 -51 -16 -10 -26 26 -46 70 -41 20 3 37 2 37 -3 0
-15 61 -32 95 -27 52 9 43 -14 -17 -43 -27 -13 -52 -30 -55 -37 -3 -6 6 -26
19 -43 13 -18 22 -42 20 -55 -3 -18 4 -28 27 -39 32 -17 49 -52 33 -68 -7 -7
-16 0 -26 21 -20 37 -43 40 -56 6 -5 -14 -14 -25 -20 -25 -23 0 -8 -31 23 -46
46 -24 67 -44 67 -67 0 -24 46 -87 63 -87 7 0 18 -21 25 -47 11 -40 11 -48 -3
-55 -21 -12 -19 -44 6 -84 24 -40 55 -45 68 -10 16 41 47 39 82 -5 17 -22 29
-43 26 -46 -4 -3 -22 -7 -42 -8 -46 -3 -49 -7 -34 -48 16 -45 9 -59 -37 -76
-45 -16 -74 -38 -74 -58 0 -7 -7 -13 -15 -13 -11 0 -8 9 11 38 14 20 32 41 40
45 16 9 19 57 4 57 -5 0 -10 17 -10 38 0 64 -60 99 -80 47 -6 -15 -17 -25 -29
-25 -21 0 -31 18 -31 57 0 34 -23 25 -35 -15 -12 -40 -26 -41 -48 -2 -15 24
-25 30 -53 30 -26 0 -34 -4 -34 -18 0 -24 -28 -62 -46 -62 -8 0 -20 11 -26 25
-6 14 -19 25 -30 25 -28 0 -24 -61 7 -106 29 -43 32 -64 9 -64 -14 0 -16 -7
-11 -45 5 -35 4 -45 -8 -45 -26 0 -63 45 -80 97 -16 50 -36 70 -57 57 -7 -4
-9 -34 -5 -80 6 -75 -2 -91 -30 -63 -13 13 -33 4 -33 -15 0 -7 9 -21 20 -31
12 -11 18 -25 15 -36 -5 -15 2 -21 39 -30 25 -6 46 -17 46 -23 0 -6 20 -18 45
-25 37 -11 46 -18 53 -45 8 -29 30 -47 75 -60 12 -4 17 -16 17 -41 0 -31 3
-35 26 -35 30 0 64 -16 64 -31 0 -5 -11 -7 -25 -3 l-25 6 7 -83 c5 -65 4 -81
-6 -74 -9 5 -11 20 -7 44 5 33 2 39 -35 73 -42 39 -63 46 -74 28 -4 -6 -11 -8
-16 -4 -6 4 -6 11 1 19 8 9 8 15 0 20 -11 7 -56 -25 -77 -55 -8 -11 -19 -20
-24 -20 -6 0 -3 10 5 22 27 38 15 88 -20 88 -6 0 -28 16 -48 35 -38 36 -76 46
-76 21 0 -25 -16 -27 -43 -6 -25 20 -57 27 -57 12 0 -19 57 -65 121 -97 38
-20 69 -40 69 -46 0 -14 -72 0 -86 17 -16 19 -31 17 -44 -5 -5 -11 -23 -22
-40 -26 -39 -9 -39 -37 0 -65 17 -12 30 -24 30 -28 0 -4 -17 -18 -36 -30 -45
-29 -54 -20 -54 56 0 48 -2 52 -24 52 -18 0 -25 8 -33 33 -7 24 -15 32 -31 31
-19 0 -22 5 -22 41 0 52 -27 83 -58 66 -21 -11 -32 -32 -32 -62 0 -24 -4 -24
-39 2 -51 37 -63 1 -17 -47 12 -11 38 -31 58 -43 45 -27 46 -30 13 -23 -18 3
-25 0 -25 -11 0 -24 27 -46 65 -53 20 -3 38 -11 42 -17 7 -12 -26 -6 -74 14
-39 16 -47 10 -32 -25 9 -18 22 -27 48 -32 75 -13 96 -21 99 -38 2 -10 -3 -25
-11 -34 -21 -24 -31 -78 -17 -87 7 -4 23 -2 36 6 30 16 42 5 21 -19 -23 -25
-21 -42 2 -42 11 0 23 -4 26 -10 3 -5 1 -10 -4 -10 -6 0 -11 -13 -11 -30 0
-16 -5 -30 -11 -30 -12 0 -2 -88 13 -107 6 -8 6 -23 1 -40 l-10 -28 -12 23
c-15 28 -31 29 -31 1 0 -12 -5 -19 -12 -16 -7 2 -12 14 -10 25 3 20 -1 22 -47
22 -55 0 -66 -14 -34 -46 16 -16 16 -18 -13 -43 -17 -14 -33 -33 -36 -42 -5
-11 -15 -15 -38 -11 -29 4 -31 2 -28 -19 3 -21 9 -24 50 -27 39 -2 48 -7 48
-21 0 -14 -6 -17 -25 -13 -38 7 -34 -33 5 -53 35 -18 49 -58 29 -82 -12 -14
-15 -12 -19 23 -4 31 -9 39 -25 39 -15 0 -21 -8 -25 -34 -6 -43 -50 -72 -97
-64 -27 4 -33 1 -46 -22 -21 -41 -31 -13 -10 30 14 29 15 40 5 55 -16 26 -15
45 2 59 8 7 18 26 21 43 9 37 -7 57 -26 33 -8 -9 -24 -27 -37 -40 -16 -16 -22
-34 -22 -68 0 -52 -30 -100 -50 -81 -18 18 -7 49 18 52 33 5 27 31 -12 47 -18
8 -36 23 -39 35 -8 31 -37 25 -38 -7 l-1 -28 -10 30 c-6 17 -15 36 -21 43 -7
9 -7 16 1 24 18 18 14 53 -10 92 -24 36 -45 45 -65 25 -9 -9 -18 -8 -37 5 -58
37 -91 5 -36 -34 17 -12 30 -29 30 -38 0 -9 15 -32 34 -52 43 -45 86 -170 58
-170 -5 0 -19 11 -32 25 -13 14 -42 31 -64 37 -23 7 -57 22 -76 34 -19 12 -50
25 -67 29 -27 5 -33 11 -33 31 0 27 -28 44 -40 24 -4 -7 -5 -21 -2 -32 10 -39
-20 -13 -38 32 -19 50 -39 62 -47 31 -4 -17 -8 -19 -20 -9 -30 24 -38 -38 -13
-97 5 -11 10 -29 12 -40 2 -13 14 -21 36 -26 18 -4 44 -17 57 -29 20 -19 32
-22 67 -17 24 3 50 2 58 -4 13 -8 11 -12 -9 -28 -28 -22 -24 -42 14 -67 20
-13 31 -14 53 -6 15 6 42 14 59 17 41 8 43 -5 8 -51 -32 -41 -32 -54 0 -54 19
0 31 10 46 35 l21 35 30 -37 c40 -51 52 -56 109 -50 l49 6 0 -65 c0 -40 -6
-79 -16 -100 -18 -38 -26 -38 -30 2 -2 14 -8 32 -15 40 -15 18 -48 18 -55 -1
-9 -22 -23 -18 -34 10 -16 41 -60 25 -60 -21 0 -12 -11 -29 -27 -39 -23 -15
-24 -19 -9 -27 9 -5 31 -8 49 -6 28 3 32 0 35 -24 2 -19 11 -29 34 -37 18 -6
39 -18 49 -27 9 -8 42 -17 73 -19 85 -6 94 -15 57 -53 -17 -17 -31 -35 -31
-41 0 -21 44 -11 71 15 31 30 86 43 142 33 49 -8 51 -12 33 -48 -20 -38 -20
-41 2 -41 11 0 31 17 47 38 15 20 25 30 22 21 -3 -9 0 -22 6 -29 9 -9 9 -14 1
-17 -6 -2 -20 -10 -30 -18 -28 -20 -9 -33 61 -41 87 -10 94 -19 48 -67 -48
-49 -71 -58 -104 -41 -28 14 -134 22 -146 11 -12 -13 13 -28 53 -33 52 -7 114
-25 114 -34 0 -4 -7 -13 -15 -20 -8 -7 -15 -21 -15 -31 0 -27 32 -24 68 6 36
30 96 34 111 8 10 -19 86 -47 102 -38 13 9 11 -9 -2 -22 -17 -17 -3 -43 22
-43 12 0 35 15 53 34 45 50 86 53 86 7 0 -31 -5 -35 -129 -97 -51 -25 -59 -26
-147 -20 -79 5 -94 4 -94 -8 0 -9 22 -21 57 -31 76 -22 146 -13 229 30 l64 34
0 -34 c0 -36 15 -54 31 -38 6 6 13 36 16 67 3 31 12 61 21 68 13 11 14 6 8
-42 -4 -30 -14 -81 -21 -112 -15 -59 -11 -92 9 -85 21 7 34 52 53 177 l18 125
45 0 c42 0 46 -3 65 -38 19 -36 19 -39 3 -48 -21 -12 -23 -35 -5 -46 23 -13
27 -53 11 -114 -20 -77 -16 -153 9 -157 13 -3 17 3 17 25 0 31 97 190 127 207
10 6 61 12 113 13 52 1 113 3 136 5 35 2 53 -5 120 -49 43 -28 135 -77 204
-109 166 -77 171 -81 164 -110 -5 -21 -3 -24 22 -24 40 0 60 -14 46 -31 -6 -8
-24 -30 -40 -49 -59 -70 -112 -164 -150 -264 -42 -109 -132 -393 -159 -503
-25 -101 -22 -282 7 -408 53 -239 41 -284 -110 -382 -286 -185 -363 -239 -438
-306 -124 -111 -162 -129 -284 -133 -238 -8 -391 -95 -523 -298 -91 -139 -111
-203 -135 -416 -9 -83 -15 -102 -49 -155 -21 -33 -56 -91 -77 -130 -21 -38
-70 -122 -109 -185 -110 -177 -152 -259 -171 -333 -9 -38 -27 -81 -40 -96 -15
-18 -24 -43 -26 -76 l-3 -48 -48 -14 c-43 -12 -52 -12 -73 1 -39 27 -85 20
-150 -22 -81 -53 -134 -105 -134 -132 0 -26 -9 -31 111 62 74 57 122 78 133
60 3 -5 -11 -22 -32 -38 -96 -72 -172 -159 -172 -194 0 -18 59 28 130 100 64
65 168 129 189 116 10 -7 3 -37 -21 -84 -13 -24 -96 -82 -119 -82 -38 0 -169
-132 -169 -169 0 -26 32 -7 79 46 32 36 51 51 51 40 0 -26 37 -21 44 6 5 22
96 95 96 78 0 -37 -38 -143 -61 -173 -28 -34 -69 -134 -69 -165 0 -27 33 -8
44 26 6 19 17 36 25 39 10 3 11 -1 5 -19 -8 -25 -6 -228 2 -241 11 -18 23 -5
29 30 14 90 40 202 47 202 4 0 13 -9 20 -20 15 -23 58 -27 58 -6 0 8 -16 50
-35 92 -19 42 -33 79 -31 81 2 2 18 -5 36 -16 18 -10 39 -17 46 -14 21 8 17
41 -5 48 -39 12 -71 46 -71 75 0 63 9 63 73 -2 35 -37 62 -58 64 -50 9 24 22
11 77 -73 52 -80 86 -107 86 -67 0 15 -60 128 -92 174 -7 9 -9 20 -5 25 13 13
42 -13 45 -41 2 -16 10 -26 19 -26 9 0 26 -12 39 -26 28 -29 47 -24 35 9 -5
13 -7 35 -4 50 4 19 -5 42 -36 89 l-41 63 41 -45 c22 -24 53 -63 68 -85 30
-45 61 -58 61 -26 0 29 -116 169 -155 188 -25 12 -38 30 -59 82 -39 94 -42
112 -21 127 20 15 12 34 -14 34 -9 0 -25 6 -35 13 -16 12 -15 19 23 117 26 66
69 150 118 225 43 67 103 167 133 223 32 60 58 98 63 93 5 -5 6 -35 3 -67 -3
-33 -6 -72 -6 -89 0 -16 0 -45 0 -64 0 -49 -42 -101 -81 -101 -60 0 -119 -40
-119 -79 0 -19 35 -12 48 9 7 11 21 20 32 20 23 0 25 -8 7 -35 -7 -11 -28 -68
-47 -128 -25 -79 -31 -110 -23 -118 15 -15 49 51 75 145 21 77 59 150 82 159
17 7 21 -4 31 -75 7 -53 -13 -102 -65 -162 -17 -18 -30 -36 -30 -40 0 -3 13
-6 29 -6 24 0 35 8 54 41 14 22 27 37 30 32 10 -17 28 -166 23 -189 -4 -13 -2
-32 4 -41 5 -10 16 -49 24 -88 13 -67 13 -71 -6 -87 -25 -22 -20 -52 9 -56 27
-4 20 -28 -14 -55 -27 -22 -31 -57 -6 -57 9 0 26 8 37 17 16 14 18 14 8 2 -6
-9 -12 -38 -11 -65 1 -27 -1 -60 -3 -74 -2 -17 2 -25 12 -25 21 0 62 -73 54
-97 -6 -19 -4 -19 25 -4 17 9 49 34 71 57 38 38 60 44 60 15 0 -7 -11 -18 -25
-24 -15 -7 -25 -20 -25 -32 0 -17 3 -18 25 -10 26 10 26 9 19 -28 -12 -59 -10
-215 2 -219 5 -2 19 14 29 34 l19 38 6 -40 c4 -32 9 -40 25 -40 17 0 21 9 28
65 4 36 5 85 2 110 -3 30 -1 52 8 63 12 17 14 16 33 -10 11 -15 24 -40 27 -55
5 -17 15 -28 28 -30 15 -2 27 -18 41 -56 17 -46 51 -82 64 -69 10 9 -37 115
-61 137 -14 13 -25 29 -25 36 0 6 -20 38 -45 70 -53 68 -58 99 -17 107 15 3
28 4 29 3 2 -1 -3 -16 -9 -33 -13 -33 -6 -63 15 -63 7 0 18 12 24 28 l11 27 1
-32 c1 -36 24 -46 36 -15 6 16 7 16 20 -2 19 -26 35 -11 35 32 0 43 18 83 40
90 12 4 13 2 4 -9 -7 -8 -15 -51 -19 -97 -7 -85 -2 -96 33 -73 19 12 27 84 12
111 -10 19 -10 24 4 32 10 6 16 23 16 48 0 22 5 40 10 40 6 0 10 -6 10 -14 0
-8 7 -17 16 -20 13 -5 14 -9 4 -21 -9 -11 -9 -22 1 -50 16 -43 42 -43 47 0 2
17 7 35 12 40 4 6 10 23 14 39 8 32 33 62 44 52 3 -4 0 -16 -7 -28 -11 -17
-10 -23 3 -36 13 -13 20 -13 42 -3 23 10 26 16 20 43 -5 26 -4 29 8 18 11 -8
15 -34 15 -93 0 -99 10 -167 23 -167 10 0 48 28 103 77 l29 27 9 -34 c6 -24 5
-36 -3 -38 -22 -8 -69 -54 -76 -75 -4 -12 -17 -35 -30 -50 -14 -16 -24 -42
-24 -58 0 -27 2 -29 20 -19 11 6 22 21 25 33 4 13 19 36 36 51 16 15 29 33 29
40 0 7 9 21 20 31 19 17 20 17 20 -1 0 -34 28 -99 43 -102 10 -2 17 9 21 33 4
19 5 39 2 43 -3 5 5 8 17 8 37 -1 28 36 -10 48 -51 14 -39 26 27 26 58 0 60 1
60 25 0 14 -7 28 -15 31 -21 9 -19 21 6 27 13 4 19 12 17 24 -3 15 -13 18 -56
18 -38 -1 -52 3 -52 13 0 10 -7 12 -23 8 -24 -6 -26 2 -63 190 -3 16 2 23 18
27 27 8 36 1 20 -15 -16 -16 -15 -43 3 -58 10 -8 15 -31 15 -66 0 -40 4 -54
14 -54 8 0 17 8 20 17 6 14 8 14 22 -5 14 -21 52 -33 40 -13 -9 14 4 41 19 41
8 0 11 -8 8 -19 -3 -13 2 -20 20 -25 14 -3 33 -3 41 0 16 6 18 11 20 48 1 11
7 21 14 23 9 4 12 -13 11 -64 -2 -95 -10 -126 -37 -138 -17 -8 -21 -15 -16
-30 4 -11 7 -35 7 -52 0 -30 3 -32 26 -26 14 3 29 8 33 10 15 8 30 89 24 130
-7 49 7 57 23 13 10 -31 31 -41 31 -15 0 21 24 19 45 -5 25 -28 60 -23 60 9 0
34 21 37 27 4 3 -15 4 -76 3 -135 -2 -83 1 -108 11 -108 21 0 25 14 34 127 5
60 10 113 10 118 1 6 -5 51 -13 100 -13 83 -13 91 2 108 16 16 17 16 17 -5 1
-127 5 -158 19 -158 9 0 15 9 15 24 0 13 7 30 16 37 15 12 16 10 9 -29 -5 -29
-3 -48 5 -58 9 -9 11 -32 7 -65 l-6 -51 29 5 c32 7 33 4 46 -105 3 -31 12 -65
19 -75 12 -17 14 -16 26 10 10 22 10 38 -1 81 -13 57 -7 133 13 169 9 15 9 21
0 24 -18 6 -16 64 2 90 13 19 13 26 3 43 -11 17 -10 25 2 48 34 60 60 29 60
-71 0 -33 -6 -46 -27 -63 -26 -21 -27 -23 -11 -41 12 -13 14 -23 8 -33 -5 -8
-10 -32 -10 -52 0 -34 3 -38 26 -38 24 0 26 3 21 28 -7 36 5 94 21 100 10 3
12 -8 10 -44 -3 -42 0 -50 19 -58 18 -9 22 -21 28 -81 11 -131 15 -145 37
-145 22 0 22 3 3 160 -5 39 -4 42 6 22 30 -56 47 12 45 176 -1 68 1 92 11 92
19 0 33 -34 33 -84 0 -34 4 -46 15 -46 10 0 15 10 16 28 0 15 4 36 9 47 6 17
9 14 15 -17 4 -21 13 -42 21 -49 8 -6 14 -18 14 -25 0 -18 29 -18 36 0 3 8 -1
25 -9 38 -26 42 -41 116 -29 143 22 49 33 28 26 -50 -6 -72 -6 -75 15 -75 16
0 21 6 21 25 0 14 5 25 10 25 6 0 10 -9 10 -20 0 -11 6 -20 14 -20 16 0 28 88
14 107 -5 6 -6 23 -2 38 6 24 8 25 21 12 13 -12 15 -45 14 -171 -2 -132 1
-156 13 -156 17 0 22 23 32 155 16 210 31 292 58 319 19 19 21 19 24 3 2 -9
10 -17 18 -17 8 0 13 -4 9 -9 -3 -5 -1 -12 5 -16 20 -12 9 -24 -29 -35 -44
-12 -56 -33 -46 -80 8 -34 16 -37 51 -14 13 9 27 14 30 12 2 -3 -7 -13 -21
-22 -34 -22 -65 -53 -65 -65 0 -18 32 -21 48 -4 16 16 17 15 20 -4 2 -12 -4
-35 -12 -52 -24 -45 -21 -54 14 -48 22 5 30 3 30 -8 0 -20 27 -19 38 1 6 10
12 12 16 6 3 -5 -5 -17 -19 -26 -34 -22 -31 -40 9 -71 31 -24 54 -63 74 -130
6 -22 16 -31 34 -33 24 -3 26 1 30 40 3 24 -2 62 -9 85 -16 48 -14 115 5 121
6 2 12 -3 12 -10 0 -8 9 -31 20 -52 17 -35 18 -47 9 -110 -12 -86 2 -156 32
-156 17 0 19 8 19 70 0 64 2 70 20 70 30 0 36 28 11 54 -12 13 -24 39 -28 59
-5 31 -1 40 25 67 18 18 41 30 56 30 31 0 31 -1 4 47 l-22 38 32 -29 c23 -22
35 -27 43 -19 14 14 -1 43 -41 76 -19 17 -30 35 -30 52 l0 27 34 -29 c19 -15
35 -34 35 -40 2 -22 41 -15 41 7 0 11 -5 20 -11 20 -7 0 -9 9 -6 22 3 12 2 29
-4 39 -11 21 4 34 19 16 14 -16 82 -178 82 -194 0 -20 22 -63 33 -63 17 0 1
93 -36 217 -20 67 -37 126 -37 130 1 4 9 -2 20 -15 11 -13 24 -21 30 -17 14 9
3 43 -26 78 -27 33 -30 50 -10 69 7 8 16 29 19 48 8 54 31 110 42 107 5 -2 9
-15 7 -28 -2 -13 -3 -44 -3 -69 0 -25 0 -73 0 -107 0 -56 2 -63 19 -63 13 0
22 9 27 27 13 54 25 57 66 17 38 -37 46 -55 69 -141 8 -33 16 -43 31 -43 18 0
19 4 13 37 -3 21 -13 56 -21 78 -37 101 -38 106 -23 115 13 8 13 14 0 42 -11
26 -15 112 -20 388 -6 341 -7 360 -34 473 -30 128 -104 353 -138 420 -32 64
-103 168 -149 221 -23 26 -39 50 -36 53 4 3 32 -9 63 -28 68 -41 163 -141 193
-202 26 -54 61 -172 61 -207 0 -14 16 -74 36 -135 24 -76 37 -143 44 -215 6
-75 26 -169 69 -329 34 -124 64 -240 67 -258 10 -56 24 -48 24 14 -1 80 -21
185 -64 333 -27 90 -40 158 -46 241 -7 81 -18 145 -39 210 -16 52 -41 141 -55
199 -14 58 -40 134 -58 170 -45 92 -141 186 -244 238 -91 46 -139 82 -147 112
-7 28 7 26 90 -14 132 -63 262 -210 350 -395 19 -41 68 -160 108 -265 39 -105
93 -231 118 -281 73 -144 88 -213 98 -475 7 -210 21 -343 65 -632 14 -96 20
-116 31 -107 19 17 16 87 -11 282 -14 95 -28 202 -31 238 l-7 67 73 60 c41 34
75 59 77 57 3 -2 -19 -26 -47 -52 -48 -45 -80 -106 -62 -118 5 -2 22 16 40 40
28 39 80 82 131 110 8 4 -13 -19 -47 -53 -87 -84 -152 -190 -110 -180 10 2
178 192 191 215 1 1 16 -2 34 -5 l34 -7 -21 -27 c-12 -14 -41 -34 -66 -44 -42
-15 -60 -34 -34 -34 6 0 -17 -31 -51 -70 -54 -61 -59 -70 -40 -70 15 0 55 31
116 92 52 50 97 89 100 85 10 -9 -4 -24 -84 -93 -81 -69 -136 -143 -153 -207
-19 -72 -3 -60 64 45 78 123 96 142 89 98 -6 -44 23 -39 47 7 19 38 77 100 85
92 3 -2 2 -32 -1 -67 l-6 -62 -61 -19 c-40 -12 -62 -25 -64 -36 -3 -15 4 -17
55 -14 58 4 58 4 61 -25 2 -16 -1 -39 -6 -50 -6 -12 -20 -42 -32 -68 -11 -25
-32 -54 -45 -62 -32 -21 -32 -36 1 -36 15 0 33 -8 40 -18 12 -16 14 -16 27 2
18 25 21 17 37 -79 16 -95 25 -125 41 -125 9 0 11 43 6 174 -4 96 -10 182 -14
192 -4 11 -3 15 5 11 6 -4 18 -31 28 -60 26 -81 114 -301 125 -311 32 -34 -12
144 -75 303 -61 154 -75 204 -76 271 0 68 12 78 44 38 15 -18 37 -49 50 -68
12 -19 31 -36 42 -38 13 -2 29 -20 43 -50 34 -71 84 -147 89 -133 6 17 -36
140 -64 188 -13 23 -51 65 -84 94 -33 28 -69 71 -80 95 -19 39 -43 185 -31
184 3 -1 22 -9 41 -19 29 -16 45 -40 100 -152 45 -92 71 -135 84 -137 16 -3
18 0 12 24 -10 37 -66 156 -101 212 -30 49 -18 55 36 19 24 -16 47 -48 79
-114 44 -90 74 -133 92 -133 13 0 3 32 -38 120 -76 163 -116 202 -198 193 -66
-8 -98 26 -125 129 -29 108 -27 104 -149 378 -162 365 -173 383 -343 583 -158
186 -234 259 -309 295 -68 34 -238 81 -384 106 -143 25 -184 55 -238 174 -33
72 -51 86 -176 131 -136 48 -364 164 -404 204 -28 28 -43 57 -67 135 -17 55
-61 158 -97 228 -36 71 -74 162 -85 202 -25 100 -34 236 -19 292 19 70 27 75
65 35 31 -33 65 -46 65 -25 0 5 -14 25 -31 44 l-30 35 42 46 c23 25 52 48 65
51 17 4 24 13 24 29 0 21 -6 24 -56 30 -47 6 -57 5 -69 -11 -14 -18 -14 -18
-15 -1 0 38 130 252 171 281 29 20 89 21 115 1 10 -8 27 -15 37 -15 16 0 18 5
12 39 -7 40 -6 40 35 52 26 8 47 22 58 41 12 20 24 28 45 28 15 0 37 5 48 10
17 10 19 7 19 -31 0 -25 7 -50 17 -61 26 -29 3 -88 -52 -134 -25 -20 -45 -40
-45 -45 0 -20 48 -7 83 22 49 41 65 74 82 171 16 87 29 113 40 79 10 -31 43
-27 47 6 3 26 6 28 110 46 l107 19 46 -23 c26 -13 63 -37 83 -55 21 -17 55
-40 77 -51 27 -13 39 -24 37 -36 -2 -10 6 -29 17 -44 12 -14 21 -33 21 -42 0
-9 9 -27 20 -41 26 -33 25 -37 -10 -101 -37 -67 -38 -89 -7 -89 19 0 29 11 48
56 l24 56 39 -51 c44 -59 126 -123 231 -181 72 -40 95 -44 95 -15 0 14 -77 67
-123 84 -56 21 -117 73 -162 135 -25 35 -45 67 -45 72 0 5 21 18 46 28 49 20
84 13 75 -16 -2 -7 -6 -30 -9 -50 -3 -28 0 -38 10 -38 8 0 23 28 37 73 29 88
47 123 62 119 17 -4 41 19 35 35 -8 19 5 16 31 -8 19 -19 25 -20 39 -9 9 9 34
13 62 11 51 -3 63 -8 45 -19 -6 -4 -11 -27 -11 -52 0 -25 -8 -78 -17 -117 -10
-40 -16 -76 -12 -79 11 -11 52 5 79 29 19 18 27 37 32 84 5 41 13 66 26 78 19
17 20 17 20 -4 0 -26 28 -40 41 -20 5 8 9 26 9 40 0 23 4 26 25 21 14 -2 32 1
40 8 15 12 16 10 40 -57 6 -18 32 -16 39 3 3 9 6 27 6 40 0 14 5 35 12 47 11
21 12 21 23 -13 15 -45 50 -54 65 -15 10 26 30 26 30 -1 0 -8 5 -14 10 -14 19
0 10 -38 -12 -54 -16 -12 -19 -18 -10 -22 7 -3 18 -11 25 -17 21 -20 69 -18
74 4 6 22 14 24 30 8 16 -16 36 -1 30 22 -4 16 -1 18 19 13 32 -8 32 12 0 45
-23 24 -24 28 -11 59 10 22 21 32 36 32 12 0 49 17 83 39 48 30 68 37 94 33
36 -5 38 -1 16 33 -34 52 7 71 71 34 30 -18 40 -20 61 -10 29 13 27 36 -2 36
-32 0 -22 30 11 33 17 2 36 8 43 14 17 15 15 48 -3 48 -17 0 -21 45 -5 55 6 3
10 15 10 27 0 15 -5 19 -19 15 -12 -3 -28 4 -41 18 -28 30 -18 52 13 30 42
-29 87 -13 87 31 0 17 7 23 28 26 33 4 38 33 5 32 -24 -1 -29 6 -14 21 5 6 11
21 13 34 4 34 28 40 28 8 0 -19 12 -33 45 -56 25 -17 51 -28 58 -25 7 2 23 -9
35 -26 23 -31 62 -41 62 -16 0 8 -4 18 -10 21 -18 11 -11 23 10 18 13 -3 26 1
33 11 7 10 41 22 82 29 58 11 70 16 70 33 0 17 -7 19 -70 19 l-70 0 -3 33 c-4
39 -25 51 -51 28 -17 -15 -20 -15 -44 5 -18 13 -27 30 -27 49 0 36 13 45 40
28 16 -10 24 -10 41 0 18 11 24 11 40 -4 16 -14 24 -15 44 -6 34 16 31 39 -6
60 -71 39 -99 72 -61 72 26 0 112 57 112 74 0 17 -51 30 -80 21 -14 -4 -20 -2
-20 9 0 8 -9 20 -21 27 -30 16 -44 -3 -42 -56 1 -25 0 -45 -3 -45 -2 0 -12 17
-21 38 -21 43 -45 48 -53 12 -3 -16 -12 -25 -25 -25 -12 0 -21 -9 -25 -25 -4
-17 -8 -21 -14 -12 -9 15 -62 16 -71 2 -4 -6 -15 -8 -25 -5 -11 4 -22 0 -27
-10 -8 -14 -11 -13 -28 5 -25 27 -34 25 -46 -10 -13 -36 -29 -39 -29 -5 0 35
-19 73 -40 78 -29 8 -43 -8 -36 -39 6 -26 5 -27 -7 -11 -19 23 -47 22 -47 -2
0 -11 5 -23 10 -26 11 -7 -41 -55 -59 -55 -7 0 -25 -7 -42 -16 -29 -14 -31
-14 -49 8 -16 20 -22 21 -38 11 -16 -10 -23 -9 -32 2 -18 22 -50 19 -50 -4 0
-10 6 -24 14 -30 7 -6 11 -22 8 -36 -5 -28 -20 -33 -29 -9 -3 8 -12 13 -19 10
-10 -4 -14 3 -14 21 0 24 -2 25 -39 19 -44 -7 -54 5 -42 50 6 24 12 28 48 30
23 1 47 5 52 9 16 9 13 25 -4 25 -21 0 -19 13 6 28 16 10 24 10 35 1 22 -18
29 16 11 53 -17 35 -16 43 6 35 8 -3 17 -24 20 -47 6 -49 9 -52 30 -45 20 8
29 46 21 95 -8 49 7 53 43 10 13 -16 31 -30 38 -30 27 0 27 22 -1 51 l-28 29
41 0 c52 0 88 13 97 35 11 29 -4 35 -45 18 -47 -18 -54 -15 -38 20 6 14 9 33
6 41 -9 24 -36 19 -47 -8 -12 -32 -25 -39 -40 -21 -22 26 -49 18 -59 -17 -9
-32 -9 -32 -10 14 -1 60 -9 78 -32 78 -16 0 -19 -8 -19 -56 l0 -56 -39 7 c-36
6 -40 4 -43 -16 -4 -29 -28 -37 -28 -10 0 17 -4 20 -24 15 -19 -4 -26 0 -40
29 -22 47 -20 67 4 67 27 0 25 26 -2 41 -23 12 -38 28 -38 41 0 4 13 -1 29
-10 16 -9 32 -14 35 -11 8 8 -19 80 -34 89 -17 11 -4 30 21 30 11 0 22 7 25
15 4 8 11 15 16 15 6 0 3 -12 -7 -26 -13 -20 -14 -28 -4 -40 18 -22 57 -17 74
10 11 16 22 22 36 19 10 -3 27 1 36 8 14 12 17 12 21 0 6 -19 40 -51 53 -51 7
0 9 9 5 23 -5 21 -3 23 26 19 31 -5 31 -5 24 32 l-7 37 20 -20 c12 -12 26 -21
31 -21 14 0 13 26 -2 49 -22 36 25 68 52 36 7 -8 28 -15 46 -15 29 0 37 5 51
35 10 21 24 35 34 35 10 0 30 5 44 12 29 13 35 50 8 47 -31 -3 -34 0 -23 21 8
14 8 26 -1 41 -14 27 1 39 49 39 30 0 32 2 26 25 -7 27 10 35 20 10 3 -8 14
-15 25 -15 17 0 19 4 10 32 -5 18 -9 34 -9 35 0 1 10 7 21 14 19 10 26 6 59
-30 42 -46 82 -55 100 -21 9 17 8 20 -14 20 -14 0 -28 5 -31 10 -10 16 25 25
46 12 29 -19 49 -14 49 10 0 12 7 29 15 38 20 22 9 53 -16 45 -32 -11 -21 19
14 36 19 10 33 25 35 39 3 20 0 22 -22 18 -15 -3 -29 -1 -32 3 -3 5 -14 4 -25
-1 -15 -9 -19 -7 -19 7 0 20 -47 53 -75 53 -10 0 -24 -8 -31 -17 -12 -17 -14
-17 -34 5 -41 43 -86 14 -77 -50 3 -21 3 -38 1 -38 -9 0 -34 61 -34 83 0 30
-35 42 -74 27 -37 -14 -34 10 4 48 42 43 39 55 -15 50 -25 -2 -45 0 -45 3 0
10 77 49 95 49 19 0 55 36 55 55 0 18 -23 19 -50 3 -29 -18 -43 1 -42 58 1 26
-1 51 -4 55 -6 11 -94 -51 -94 -67 0 -6 -8 -22 -19 -35 -18 -22 -19 -22 -45
-6 -16 11 -41 17 -63 15 -31 -3 -39 1 -50 22 -11 23 -17 26 -42 22 -5 -1 -12
-13 -15 -27 -8 -30 -22 -32 -31 -4 -4 11 -19 25 -33 31 l-27 10 40 13 c24 7
45 8 52 3 13 -11 53 7 53 23 0 5 -11 14 -24 19 -18 6 -22 14 -19 33 3 13 -3
39 -12 58 l-18 33 -18 -23 c-10 -12 -21 -38 -25 -57 -8 -45 -24 -44 -21 2 2
40 -13 54 -34 31 -12 -12 -18 -12 -46 0 -32 13 -33 13 -33 -13 0 -26 -1 -26
-18 -11 -23 21 -42 22 -42 2 0 -8 -7 -15 -15 -15 -8 0 -15 7 -15 15 0 8 -7 15
-16 15 -8 0 -24 5 -35 11 -20 10 -20 11 -2 31 12 14 14 22 6 25 -6 2 -32 20
-58 41 -43 33 -45 37 -29 49 24 18 28 17 62 -12 17 -14 37 -25 45 -25 19 0 31
48 17 65 -6 8 -10 19 -9 27 9 67 -20 99 -53 58 -20 -25 -20 -25 -37 8 -6 12
-21 22 -31 22 -17 0 -20 -7 -20 -40 0 -38 -2 -40 -30 -40 -18 0 -33 -6 -36
-15 -4 -9 -19 -15 -39 -15 -20 0 -35 6 -39 15 -8 22 -25 18 -38 -9 -7 -17 -20
-26 -42 -28 -26 -2 -34 -10 -51 -45 -16 -36 -24 -43 -47 -43 -23 0 -28 -4 -28
-25 0 -20 -5 -25 -24 -25 -17 0 -26 -7 -30 -25 -5 -19 -13 -25 -35 -25 -38 0
-91 49 -91 84 0 19 -5 26 -20 26 -17 0 -20 -7 -20 -41 0 -38 -2 -41 -22 -35
-13 4 -42 10 -65 13 l-41 5 -7 -56 c-4 -31 -12 -59 -18 -63 -7 -4 -8 5 -4 26
5 25 2 40 -13 61 -25 36 -25 48 2 77 29 31 12 53 -27 35 -27 -13 -34 -2 -10
18 18 15 20 50 2 50 -7 0 -18 -5 -25 -12 -9 -9 -12 -4 -12 24 0 51 -36 61 -53
14 -7 -18 -8 -18 -27 -1 -20 18 -40 13 -40 -9 0 -8 -6 -19 -14 -25 -12 -10
-19 -8 -35 8 -26 26 -27 53 -1 76 14 12 20 33 22 73 3 49 6 58 28 69 22 11 25
10 28 -7 4 -22 31 -27 50 -8 7 7 12 24 12 40 0 49 19 76 66 89 41 12 44 16 50
58 8 49 -3 89 -27 104 -14 9 -24 3 -52 -26 -19 -20 -42 -37 -51 -37 -10 0 -21
-13 -27 -30 -13 -35 -34 -42 -23 -7 11 32 7 55 -11 84 -22 33 -51 27 -47 -10
4 -38 -14 -67 -43 -67 -22 0 -24 -3 -19 -29 7 -31 -8 -48 -24 -28 -5 6 -15 31
-21 54 -6 23 -16 45 -21 48 -11 7 -13 45 -4 70 4 8 20 23 36 31 28 15 31 14
53 -6 16 -15 30 -20 44 -15 12 4 21 2 21 -4 0 -17 32 -13 65 7 27 17 33 17 64
5 36 -15 101 -10 101 8 0 5 -16 19 -36 31 l-35 21 30 28 c24 21 31 36 31 63 0
42 -26 50 -36 11 -3 -13 -13 -30 -22 -37 -13 -11 -15 -10 -9 10 13 51 -15 66
-61 34 -49 -34 -50 -34 -48 0 1 29 -3 34 -34 44 -36 12 -48 28 -30 39 6 4 22
-2 34 -14 12 -12 30 -21 40 -21 15 0 17 6 12 34 -4 21 -2 37 4 41 8 5 7 11 -1
21 -9 11 -9 21 -1 39 9 19 19 25 45 25 34 0 67 24 67 48 0 14 47 37 107 52 26
6 47 19 54 32 10 19 9 20 -20 16 -26 -4 -31 -2 -25 11 4 9 9 28 12 44 3 22 1
27 -17 27 -11 0 -21 -4 -21 -10 0 -5 -4 -10 -10 -10 -5 0 -10 12 -10 26 0 19
-4 25 -15 20 -8 -3 -22 -9 -30 -12 -17 -7 -21 11 -5 21 6 3 10 13 10 21 0 10
-12 14 -40 14 -36 0 -40 3 -40 25 0 20 -5 25 -24 25 -14 0 -28 -5 -32 -11 -4
-8 -12 -2 -21 15 -7 14 -20 26 -28 26 -19 0 -55 -36 -55 -54 0 -21 -40 -46
-72 -46 -38 0 -43 -15 -19 -55 23 -40 18 -45 -15 -14 -25 23 -44 18 -44 -12 0
-10 -4 -19 -10 -19 -5 0 -10 -14 -10 -31 0 -22 5 -32 20 -36 33 -9 23 -22 -12
-17 -39 6 -63 -8 -55 -30 4 -10 18 -16 37 -16 35 0 38 -13 10 -37 -11 -10 -20
-26 -20 -36 0 -14 -5 -17 -19 -12 -25 8 -35 -9 -21 -35 10 -18 9 -20 -7 -12
-77 40 -92 39 -94 -6 -1 -17 -3 -21 -6 -9 -3 10 -14 17 -30 17 -23 0 -25 -3
-19 -32 16 -83 19 -121 9 -115 -6 4 -13 24 -17 45 -3 22 -13 45 -21 52 -19 16
-19 35 3 90 14 38 21 44 41 42 21 -3 23 -1 17 22 -3 14 -8 36 -11 49 -8 32 52
59 124 55 60 -3 74 9 43 40 -19 19 -19 20 19 56 41 41 73 109 67 147 -2 18
-10 25 -30 27 -26 3 -28 7 -28 48 0 40 -2 44 -24 44 -13 0 -28 -6 -33 -12z
m-423 -208 c0 -11 -4 -20 -10 -20 -5 0 -10 9 -10 20 0 11 5 20 10 20 6 0 10
-9 10 -20z m196 -34 c20 -21 17 -28 -6 -16 -11 6 -20 15 -20 20 0 14 9 12 26
-4z m633 -58 c1 -22 -4 -28 -19 -28 -29 0 -36 -27 -14 -52 l19 -22 -28 21
c-22 17 -34 20 -52 13 -15 -6 -27 -6 -30 0 -11 18 -33 10 -39 -15 -13 -53 19
-100 50 -74 23 19 16 3 -13 -30 -29 -33 -53 -40 -53 -16 0 8 -9 15 -20 15 -15
0 -20 -7 -20 -28 0 -16 -8 -36 -17 -44 -39 -33 -121 -86 -127 -81 -8 8 21 60
42 75 10 7 24 38 31 71 13 60 44 102 69 92 19 -7 42 13 35 31 -3 8 -18 14 -33
14 -58 0 -37 17 27 23 73 7 78 9 70 32 -4 9 -20 16 -39 16 -18 1 3 5 47 9 56
6 83 13 90 24 9 14 10 14 17 -2 3 -9 7 -29 7 -44z m-781 7 c-3 -3 -9 2 -12 12
-6 14 -5 15 5 6 7 -7 10 -15 7 -18z m-178 -35 c0 -5 -2 -10 -4 -10 -3 0 -8 5
-11 10 -3 6 -1 10 4 10 6 0 11 -4 11 -10z m186 -80 c14 8 26 9 47 1 24 -9 26
-13 17 -32 -7 -11 -9 -27 -6 -34 3 -8 1 -17 -5 -20 -5 -4 -14 7 -20 24 -20 56
-49 34 -49 -37 -1 -33 -2 -35 -14 -19 -9 11 -12 33 -9 61 3 26 1 46 -6 50 -6
4 -11 15 -11 24 0 14 4 12 19 -7 15 -20 21 -21 37 -11z m162 -39 c-32 -26 -37
-17 -7 15 13 14 25 20 27 14 2 -6 -7 -19 -20 -29z m-1125 -21 c3 -11 2 -20 -3
-20 -12 0 -31 26 -23 33 11 12 21 7 26 -13z m1518 -253 c-8 -8 -11 1 -11 29 0
53 14 67 18 19 2 -21 -1 -42 -7 -48z m-217 -18 c-3 -5 -10 -7 -15 -3 -5 3 -7
10 -3 15 3 5 10 7 15 3 5 -3 7 -10 3 -15z m-412 -14 c-2 -14 -8 -25 -13 -25
-10 0 -12 34 -2 43 13 14 20 6 15 -18z m-482 5 c0 -5 -7 -10 -15 -10 -8 0 -15
5 -15 10 0 6 7 10 15 10 8 0 15 -4 15 -10z m700 -15 c0 -8 -4 -15 -9 -15 -13
0 -22 16 -14 24 11 11 23 6 23 -9z m-1000 -15 c0 -5 -4 -10 -9 -10 -6 0 -13 5
-16 10 -3 6 1 10 9 10 9 0 16 -4 16 -10z m145 -160 c3 -5 2 -10 -4 -10 -5 0
-13 5 -16 10 -3 6 -2 10 4 10 5 0 13 -4 16 -10z m185 -12 c0 -13 -23 -5 -28
10 -2 7 2 10 12 6 9 -3 16 -11 16 -16z m750 -13 c0 -8 -4 -15 -10 -15 -5 0
-10 7 -10 15 0 8 5 15 10 15 6 0 10 -7 10 -15z m-62 -23 c2 -7 -3 -12 -12 -12
-9 0 -16 7 -16 16 0 17 22 14 28 -4z m-748 -2 c0 -5 -4 -10 -10 -10 -5 0 -10
5 -10 10 0 6 5 10 10 10 6 0 10 -4 10 -10z m46 -37 c-10 -10 -19 5 -10 18 6
11 8 11 12 0 2 -7 1 -15 -2 -18z m828 11 c20 -8 11 -24 -15 -24 -12 0 -19 -7
-19 -19 0 -10 -7 -24 -15 -31 -8 -7 -15 -23 -15 -35 0 -23 -28 -39 -64 -35
-10 1 -29 -9 -42 -21 l-24 -22 0 27 c0 27 39 76 60 76 5 0 10 6 10 14 0 9 7
12 20 9 15 -4 20 0 20 15 0 13 11 27 28 35 33 18 36 19 56 11z m66 -114 c15
-28 1 -49 -17 -25 -15 22 -17 45 -3 45 5 0 14 -9 20 -20z m260 0 c0 -11 -7
-20 -15 -20 -15 0 -21 21 -8 33 12 13 23 7 23 -13z m-1260 -7 c0 -22 -36 -83
-50 -83 -9 0 -22 -6 -28 -12 -10 -10 -15 -10 -22 2 -15 23 -13 26 30 39 29 8
41 18 46 36 5 22 24 36 24 18z m1078 -21 c2 -7 -3 -12 -12 -12 -9 0 -16 7 -16
16 0 17 22 14 28 -4z m-1633 -12 c3 -5 1 -10 -4 -10 -6 0 -11 5 -11 10 0 6 2
10 4 10 3 0 8 -4 11 -10z m-74 -96 c30 5 39 3 39 -8 0 -18 -45 -29 -68 -17
-29 16 -54 49 -47 62 6 8 13 3 22 -16 13 -25 18 -27 54 -21z m659 42 c0 -3 -4
-8 -10 -11 -5 -3 -10 -1 -10 4 0 6 5 11 10 11 6 0 10 -2 10 -4z m-520 -94 c0
-5 -9 -17 -20 -27 -22 -20 -28 -4 -7 20 14 16 27 19 27 7z m-270 -12 c0 -5 -4
-10 -10 -10 -5 0 -10 5 -10 10 0 6 5 10 10 10 6 0 10 -4 10 -10z m646 -25 c-3
-9 -11 -13 -16 -10 -8 5 -7 11 1 21 14 18 24 11 15 -11z m224 -6 c0 -11 -4
-17 -10 -14 -5 3 -10 13 -10 21 0 8 5 14 10 14 6 0 10 -9 10 -21z m-208 -46
c18 3 50 10 71 15 20 5 37 6 37 2 0 -4 15 -30 33 -56 32 -48 32 -49 10 -49
-18 0 -23 6 -23 25 0 42 -11 50 -47 35 -33 -14 -51 -50 -39 -80 3 -10 -3 -17
-18 -21 -13 -3 -28 -15 -33 -27 -10 -21 -10 -21 -26 10 -22 42 -22 43 11 43
27 0 29 2 30 45 0 37 -3 45 -18 45 -25 0 -70 21 -70 32 0 5 11 1 25 -8 16 -10
37 -14 57 -11z m754 -60 c-10 -10 -19 5 -10 18 6 11 8 11 12 0 2 -7 1 -15 -2
-18z m-876 -33 c-12 -29 -30 -41 -30 -20 0 15 32 62 38 56 2 -3 -1 -19 -8 -36z
m2453 -32 c-9 -10 -24 -18 -34 -18 -14 0 -17 7 -16 33 4 53 15 61 42 29 21
-25 22 -28 8 -44z m-2023 12 c0 -5 -2 -10 -4 -10 -3 0 -8 5 -11 10 -3 6 -1 10
4 10 6 0 11 -4 11 -10z m1930 -25 c0 -8 -4 -15 -9 -15 -13 0 -22 16 -14 24 11
11 23 6 23 -9z m-1995 -15 c-3 -5 -10 -10 -16 -10 -5 0 -9 5 -9 10 0 6 7 10
16 10 8 0 12 -4 9 -10z m1430 -39 c3 -5 1 -12 -5 -16 -5 -3 -10 1 -10 9 0 18
6 21 15 7z m685 -35 c0 -3 -4 -8 -10 -11 -5 -3 -10 -1 -10 4 0 6 5 11 10 11 6
0 10 -2 10 -4z m-2784 -33 c-10 -10 -19 5 -10 18 6 11 8 11 12 0 2 -7 1 -15
-2 -18z m2612 -41 c6 -18 -15 -14 -22 4 -4 10 -1 14 6 12 6 -2 14 -10 16 -16z
m202 3 c-13 -16 -40 -20 -40 -7 0 14 12 22 33 22 16 0 17 -3 7 -15z m-3220
-16 c0 -5 -7 -9 -15 -9 -15 0 -20 12 -9 23 8 8 24 -1 24 -14z m3120 -18 c0 -8
-52 -23 -59 -16 -1 2 0 8 4 14 8 13 55 15 55 2z m-3092 -40 c3 -8 -1 -12 -9
-9 -7 2 -15 10 -17 17 -3 8 1 12 9 9 7 -2 15 -10 17 -17z m3193 7 c1 -7 1 -17
0 -22 -5 -24 11 -54 30 -59 19 -5 21 -10 14 -54 -4 -31 -14 -54 -28 -65 -44
-35 -71 -13 -32 26 29 29 32 44 9 53 -10 4 -20 0 -26 -10 -5 -10 -13 -17 -18
-17 -15 0 -11 41 5 70 8 14 14 40 15 58 0 22 5 32 15 32 8 0 16 -6 16 -12z
m73 -3 c10 -7 15 -19 11 -25 -5 -8 -13 -6 -26 6 -33 30 -21 46 15 19z m-284
-10 c0 -8 -7 -15 -15 -15 -16 0 -20 12 -8 23 11 12 23 8 23 -8z m394 -1 c3 -9
6 -25 6 -36 0 -17 -4 -19 -32 -13 -43 9 -43 9 -21 39 21 29 38 33 47 10z
m-3525 -13 c9 -6 10 -11 2 -15 -16 -10 -14 -46 3 -46 7 0 19 -7 26 -15 10 -12
10 -15 -2 -15 -8 0 -19 5 -25 11 -12 12 -53 3 -53 -12 0 -20 -26 -7 -38 18
-10 22 -10 29 1 35 8 4 25 16 38 27 28 23 29 24 48 12z m381 -22 c0 -5 -7 -9
-15 -9 -15 0 -20 12 -9 23 8 8 24 -1 24 -14z m-276 -68 c-6 -6 -11 1 -18 29
l-7 25 15 -25 c8 -14 12 -27 10 -29z m271 9 c8 -13 -4 -50 -16 -50 -5 0 -9 14
-9 30 0 30 13 40 25 20z m3180 0 c3 -5 -1 -10 -10 -10 -9 0 -13 5 -10 10 3 6
8 10 10 10 2 0 7 -4 10 -10z m392 -32 c14 -9 19 -18 13 -27 -6 -11 -12 -11
-31 3 -13 9 -31 16 -41 16 -22 0 -23 14 -2 35 14 13 18 14 28 2 6 -8 21 -21
33 -29z m-3642 -20 c-4 -12 0 -27 10 -38 16 -17 15 -19 -4 -29 -11 -6 -22 -11
-25 -11 -11 0 -16 59 -6 84 11 31 34 25 25 -6z m874 -3 c30 -34 42 -85 21 -85
-5 0 -10 4 -10 9 0 5 -10 11 -21 13 -16 2 -25 15 -35 48 -8 25 -14 46 -14 48
0 1 6 2 14 2 8 0 28 -16 45 -35z m2552 -35 c3 -30 4 -57 3 -59 -2 -2 -12 7
-22 19 l-19 23 -21 -21 c-12 -12 -24 -22 -27 -22 -15 0 -54 33 -49 41 3 5 15
2 27 -6 32 -22 37 -19 37 23 0 43 16 64 45 60 16 -2 21 -13 26 -58z m-3691 30
c0 -5 -6 -10 -14 -10 -7 0 -28 -3 -45 -6 -24 -5 -31 -3 -31 10 0 12 10 16 45
16 25 0 45 -4 45 -10z m3530 1 c0 -5 -11 -16 -25 -25 -14 -9 -25 -25 -25 -36
0 -15 -7 -20 -28 -20 -16 0 -37 -7 -48 -15 -24 -18 -54 -19 -54 -1 0 18 56 66
78 66 9 1 33 9 52 20 39 22 50 24 50 11z m-2645 -31 c16 -16 25 -30 19 -30
-10 1 -64 46 -64 55 0 13 18 3 45 -25z m835 20 c0 -5 -5 -10 -11 -10 -5 0 -7
5 -4 10 3 6 8 10 11 10 2 0 4 -4 4 -10z m2070 -19 c0 -6 -4 -13 -10 -16 -5 -3
-10 1 -10 9 0 9 5 16 10 16 6 0 10 -4 10 -9z m-3226 -32 c-3 -5 -10 -7 -15 -3
-5 3 -7 10 -3 15 3 5 10 7 15 3 5 -3 7 -10 3 -15z m-579 1 c3 -5 -1 -10 -9
-10 -9 0 -16 5 -16 10 0 6 4 10 9 10 6 0 13 -4 16 -10z m327 -35 c0 -5 -5 -11
-11 -13 -6 -2 -11 4 -11 13 0 9 5 15 11 13 6 -2 11 -8 11 -13z m2648 -6 c0 -5
-4 -9 -10 -9 -5 0 -10 7 -10 16 0 8 5 12 10 9 6 -3 10 -10 10 -16z m1017 2 c6
6 16 10 22 8 6 -2 -5 -17 -25 -33 -41 -32 -61 -24 -50 19 6 25 8 26 25 11 12
-11 20 -13 28 -5z m-804 -26 c-16 -34 -33 -46 -33 -25 0 15 31 60 41 60 5 0 1
-16 -8 -35z m-1634 -1 c11 -10 17 -23 14 -31 -3 -7 3 -23 12 -33 23 -25 7 -25
-22 -1 -15 12 -20 25 -16 40 4 15 1 21 -11 21 -10 0 -14 5 -11 10 8 13 12 13
34 -6z m2021 -31 c0 -13 -3 -13 -15 -3 -8 7 -12 16 -9 21 8 13 24 1 24 -18z
m240 18 c0 -6 -4 -13 -10 -16 -5 -3 -10 1 -10 9 0 9 5 16 10 16 6 0 10 -4 10
-9z m-3890 -26 c10 -18 11 -28 3 -36 -17 -17 -33 -1 -33 32 0 36 12 37 30 4z
m700 21 c0 -2 -7 -9 -15 -16 -13 -11 -14 -10 -9 4 5 14 24 23 24 12z m2377
-34 c-16 -15 -19 -15 -27 -2 -7 11 -4 16 13 21 30 8 34 2 14 -19z m673 8 c0
-5 -2 -10 -4 -10 -3 0 -8 5 -11 10 -3 6 -1 10 4 10 6 0 11 -4 11 -10z m-3420
-14 c0 -11 -19 -15 -25 -6 -3 5 1 10 9 10 9 0 16 -2 16 -4z m3680 -46 c0 -19
-19 -30 -51 -30 -24 0 -26 36 -2 62 15 17 17 17 35 2 10 -10 18 -25 18 -34z
m-454 3 c-10 -10 -19 5 -10 18 6 11 8 11 12 0 2 -7 1 -15 -2 -18z m302 11 c24
-7 3 -21 -25 -17 -44 7 -55 12 -48 23 6 9 33 7 73 -6z m-2873 -24 c3 -5 -1
-10 -9 -10 -9 0 -16 5 -16 10 0 6 4 10 9 10 6 0 13 -4 16 -10z m2273 -9 c3 -8
-1 -12 -9 -9 -7 2 -15 10 -17 17 -3 8 1 12 9 9 7 -2 15 -10 17 -17z m-278 -6
c-7 -9 -15 -13 -17 -11 -7 7 7 26 19 26 6 0 6 -6 -2 -15z m764 9 c9 -3 16 -10
16 -16 0 -14 -43 -5 -48 10 -4 13 7 15 32 6z m-2095 -13 c10 -7 10 -12 -5 -30
-25 -29 -34 -26 -34 9 0 30 13 37 39 21z m381 -55 c-7 -9 -10 -26 -6 -41 8
-31 -8 -33 -28 -3 -14 19 -13 23 7 48 12 16 26 24 31 19 5 -5 4 -14 -4 -23z
m-475 14 c3 -5 -1 -10 -9 -10 -9 0 -16 5 -16 10 0 6 4 10 9 10 6 0 13 -4 16
-10z m-537 -18 c2 -7 -3 -12 -12 -12 -9 0 -16 7 -16 16 0 17 22 14 28 -4z
m2757 8 c3 -5 2 -10 -4 -10 -5 0 -13 5 -16 10 -3 6 -2 10 4 10 5 0 13 -4 16
-10z m-3265 -19 c0 -3 -11 -11 -25 -18 -27 -12 -36 2 -14 24 11 11 39 7 39 -6z
m1449 -2 c-16 -10 -23 -4 -14 10 3 6 11 8 17 5 6 -4 5 -9 -3 -15z m-1712 -15
c-9 -9 -28 6 -21 18 4 6 10 6 17 -1 6 -6 8 -13 4 -17z m3013 12 c0 -16 -18
-31 -27 -22 -8 8 5 36 17 36 5 0 10 -6 10 -14z m726 -17 c19 -11 34 -26 34
-33 0 -13 -38 -53 -43 -45 -1 2 -7 13 -13 24 -18 33 -43 31 -50 -5 -7 -34 -20
-29 -26 10 -2 18 -10 26 -27 28 -23 4 -24 2 -17 -37 5 -35 4 -41 -11 -41 -29
0 -83 38 -83 58 0 13 14 23 48 35 92 32 144 33 188 6z m-3051 1 c-3 -5 -10
-10 -16 -10 -5 0 -9 5 -9 10 0 6 7 10 16 10 8 0 12 -4 9 -10z m620 -10 c3 -5
-1 -10 -10 -10 -9 0 -13 5 -10 10 3 6 8 10 10 10 2 0 7 -4 10 -10z m-309 -64
c-9 -14 -23 -26 -31 -26 -19 0 -19 14 0 30 8 7 15 22 15 33 0 20 1 20 17 5 15
-16 15 -19 -1 -42z m2391 -3 c-4 -3 -13 0 -22 7 -12 10 -13 16 -3 27 11 13 14
12 22 -6 5 -12 6 -24 3 -28z m-3398 -20 c1 -7 -3 -13 -8 -13 -10 0 -20 57 -12
66 6 5 18 -28 20 -53z m1152 -5 c34 -21 46 -35 39 -42 -17 -17 -12 -46 9 -46
11 0 21 6 24 13 3 9 9 9 23 1 12 -7 33 -53 58 -129 36 -113 37 -119 20 -132
-31 -23 -43 -16 -37 20 5 32 4 33 -32 34 -32 1 -38 -3 -52 -33 -13 -27 -18
-31 -27 -19 -6 8 -25 17 -42 21 -39 7 -64 -15 -65 -59 l-1 -32 -11 28 c-6 15
-19 27 -28 27 -10 0 -21 5 -24 10 -9 15 -42 12 -49 -5 -3 -9 -3 -36 1 -60 7
-52 0 -57 -22 -15 -24 46 -19 66 45 174 49 82 71 108 113 136 50 33 51 35 25
38 -24 3 -26 5 -15 22 9 16 8 22 -7 33 -12 9 -17 20 -13 31 9 22 12 21 68 -16z
m2039 -1 c0 -14 -19 -37 -31 -37 -3 0 -4 11 -1 25 4 25 32 36 32 12z m331 -13
c23 -14 39 -28 36 -30 -3 -3 -15 1 -26 8 -18 11 -23 11 -31 -2 -15 -24 -12
-45 15 -84 29 -43 30 -46 11 -46 -19 0 -46 44 -46 77 -1 37 -26 71 -41 56 -13
-13 -39 -6 -39 11 0 12 41 33 68 35 7 1 31 -11 53 -25z m-3749 0 c9 -3 24 -16
32 -30 15 -22 15 -25 1 -30 -19 -8 -19 -28 0 -44 22 -19 18 -30 -11 -30 -38 0
-29 -40 13 -54 42 -14 48 -22 34 -40 -8 -10 -23 -13 -41 -10 -16 4 -31 1 -35
-5 -4 -8 -20 -2 -48 19 -22 16 -51 30 -63 30 -28 0 -54 25 -54 51 0 17 8 19
71 19 68 0 70 1 64 23 -17 55 -29 70 -74 94 -1 1 0 7 4 13 7 11 58 8 107 -6z
m1648 6 c0 -5 -2 -10 -4 -10 -3 0 -8 5 -11 10 -3 6 -1 10 4 10 6 0 11 -4 11
-10z m-1092 -19 c3 -8 -1 -12 -9 -9 -7 2 -15 10 -17 17 -3 8 1 12 9 9 7 -2 15
-10 17 -17z m2781 -62 l23 -30 -57 -74 c-31 -41 -62 -76 -68 -78 -7 -3 -31 6
-54 19 -23 13 -49 21 -57 18 -9 -4 -16 -1 -16 6 0 6 9 14 20 17 11 3 20 12 20
20 0 7 23 28 51 45 42 27 50 36 47 59 -1 14 3 34 11 42 11 14 15 15 35 2 12
-8 32 -29 45 -46z m-3109 27 c0 -2 -7 -9 -15 -16 -13 -11 -14 -10 -9 4 5 14
24 23 24 12z m860 -12 c0 -8 -4 -12 -10 -9 -5 3 -10 10 -10 16 0 5 5 9 10 9 6
0 10 -7 10 -16z m-970 -4 c0 -5 -4 -10 -10 -10 -5 0 -10 5 -10 10 0 6 5 10 10
10 6 0 10 -4 10 -10z m3460 -11 c0 -5 -7 -9 -15 -9 -15 0 -20 12 -9 23 8 8 24
-1 24 -14z m-430 -11 c0 -13 -23 -5 -28 10 -2 7 2 10 12 6 9 -3 16 -11 16 -16z
m-322 -15 c2 -11 -4 -26 -13 -33 -13 -11 -15 -8 -15 25 0 39 22 46 28 8z
m-1118 2 c0 -8 9 -19 21 -26 16 -8 18 -14 9 -22 -9 -9 -17 -5 -36 16 -13 16
-22 33 -19 38 9 14 25 11 25 -6z m-1450 -55 c0 -22 -4 -40 -9 -40 -10 0 -23
58 -15 71 13 21 24 6 24 -31z m750 19 c0 -6 -4 -7 -10 -4 -5 3 -10 11 -10 16
0 6 5 7 10 4 6 -3 10 -11 10 -16z m1470 6 c0 -8 -7 -15 -15 -15 -16 0 -20 12
-8 23 11 12 23 8 23 -8z m936 -12 c-10 -10 -19 5 -10 18 6 11 8 11 12 0 2 -7
1 -15 -2 -18z m-2511 -4 c5 -5 22 -9 38 -9 34 0 32 -23 -2 -28 -20 -3 -22 -8
-18 -35 3 -18 8 -42 12 -54 14 -43 -12 -23 -54 41 -22 35 -41 74 -41 85 0 18
4 20 28 15 15 -4 31 -11 37 -15z m2160 -11 c-10 -31 -25 -47 -25 -26 0 24 11
48 22 48 5 0 6 -10 3 -22z m-2465 2 c0 -5 -5 -10 -11 -10 -5 0 -7 5 -4 10 3 6
8 10 11 10 2 0 4 -4 4 -10z m584 -4 c24 -12 25 -15 10 -27 -14 -11 -18 -10
-30 6 -13 18 -18 35 -10 35 2 0 16 -6 30 -14z m906 -16 c0 -5 -4 -10 -10 -10
-5 0 -10 5 -10 10 0 6 5 10 10 10 6 0 10 -4 10 -10z m891 -21 c8 -15 8 -24 0
-32 -6 -6 -11 -19 -11 -29 0 -10 -5 -18 -11 -18 -7 0 -9 8 -4 23 9 29 9 39 0
60 -10 25 12 22 26 -4z m-3176 1 c3 -5 -1 -10 -9 -10 -9 0 -16 5 -16 10 0 6 4
10 9 10 6 0 13 -4 16 -10z m3065 -11 c0 -5 -7 -9 -15 -9 -15 0 -20 12 -9 23 8
8 24 -1 24 -14z m-3210 -28 c-13 -26 -27 -34 -35 -21 -8 14 13 40 32 40 10 0
11 -4 3 -19z m828 1 c2 -7 -2 -10 -12 -6 -9 3 -16 11 -16 16 0 13 23 5 28 -10z
m657 -24 c-11 -35 -22 -43 -40 -28 -20 17 -19 23 8 36 34 17 39 16 32 -8z
m-1345 -3 c0 -8 -4 -15 -10 -15 -5 0 -10 7 -10 15 0 8 5 15 10 15 6 0 10 -7
10 -15z m1975 -8 c0 -26 -20 -25 -23 2 -3 16 1 22 10 19 7 -3 13 -12 13 -21z
m-2246 -23 c3 -16 1 -17 -13 -5 -19 16 -21 34 -3 29 6 -3 14 -13 16 -24z
m2457 -1 c-10 -10 -19 5 -10 18 6 11 8 11 12 0 2 -7 1 -15 -2 -18z m-1742 2
c3 -9 0 -15 -8 -15 -8 0 -16 7 -20 15 -3 9 0 15 8 15 8 0 16 -7 20 -15z m282
-9 c-3 -14 -2 -28 4 -31 15 -9 12 -35 -5 -35 -14 0 -38 66 -29 82 3 4 12 8 21
8 11 0 14 -6 9 -24z m198 -15 c15 -29 13 -41 -10 -41 -12 0 -25 55 -16 65 9 8
11 6 26 -24z m66 4 c0 -8 -4 -15 -10 -15 -5 0 -10 7 -10 15 0 8 5 15 10 15 6
0 10 -7 10 -15z m2010 11 c0 -11 -19 -15 -25 -6 -3 5 1 10 9 10 9 0 16 -2 16
-4z m-2880 -16 c0 -5 -9 -14 -20 -20 -15 -8 -20 -8 -20 3 0 8 3 17 7 20 10 10
33 8 33 -3z m1167 -6 c4 -10 -1 -22 -12 -30 -23 -17 -29 -12 -21 21 7 28 24
33 33 9z m-92 -4 c-3 -5 -10 -10 -16 -10 -5 0 -9 5 -9 10 0 6 7 10 16 10 8 0
12 -4 9 -10z m1879 -14 c-6 -16 -24 -23 -24 -8 0 10 22 33 27 28 2 -2 1 -11
-3 -20z m-2779 4 c3 -5 1 -10 -4 -10 -6 0 -11 5 -11 10 0 6 2 10 4 10 3 0 8
-4 11 -10z m2896 -13 c9 -7 16 -28 17 -48 1 -33 -1 -36 -23 -31 -22 4 -25 1
-25 -28 0 -38 -23 -37 -28 2 -2 14 -12 34 -22 43 -19 17 -18 18 8 46 29 31 48
35 73 16z m-917 -14 c5 -11 1 -22 -10 -30 -15 -11 -22 -9 -48 14 -17 16 -33
29 -35 31 -2 1 16 2 41 2 34 0 48 -4 52 -17z m1363 11 c-3 -3 -12 -4 -19 -1
-8 3 -5 6 6 6 11 1 17 -2 13 -5z m-1836 -25 c10 -20 9 -21 -23 -14 -39 9 -42
11 -33 24 11 18 44 12 56 -10z m-1596 1 c8 -13 -5 -13 -25 0 -13 8 -13 10 2
10 9 0 20 -4 23 -10z m1117 -35 c6 -30 -3 -32 -28 -4 -15 17 -16 22 -4 29 19
12 27 5 32 -25z m1624 16 c-7 -11 -46 -21 -46 -12 0 13 13 21 32 21 11 0 17
-4 14 -9z m-1956 -21 c0 -5 -5 -10 -11 -10 -5 0 -7 5 -4 10 3 6 8 10 11 10 2
0 4 -4 4 -10z m2506 -20 c8 0 14 7 14 15 0 8 5 15 10 15 6 0 10 -8 10 -19 0
-24 -20 -81 -28 -81 -22 1 -45 33 -47 64 -2 29 0 32 12 20 8 -8 21 -14 29 -14z
m-1896 12 c0 -4 -5 -13 -11 -19 -17 -17 -2 -33 30 -33 26 0 51 -16 51 -32 0
-4 -13 -8 -30 -8 -32 0 -37 -9 -18 -28 16 -16 51 -15 93 2 37 16 63 2 31 -16
-9 -5 -16 -18 -16 -29 0 -18 -4 -20 -32 -14 -18 4 -77 25 -131 46 -53 22 -104
39 -112 39 -10 0 -15 10 -15 32 l0 31 23 -21 c38 -36 81 -20 45 16 -8 8 -8 15
-2 21 17 17 94 28 94 13z m-630 -34 c0 -12 -28 -9 -36 3 -3 6 0 15 7 20 13 7
28 -5 29 -23z m856 -5 c-11 -11 -19 6 -11 24 8 17 8 17 12 0 3 -10 2 -21 -1
-24z m154 -66 c-3 -21 -9 -39 -15 -40 -15 -3 -18 57 -4 105 l13 43 5 -35 c4
-19 4 -52 1 -73z m-2220 78 c0 -15 -26 -32 -36 -23 -2 3 -2 13 2 22 8 20 34
21 34 1z m1438 -17 c-2 -17 -8 -33 -15 -35 -7 -3 -10 3 -6 15 7 28 -17 39 -34
17 -7 -11 -13 -16 -13 -13 0 4 -3 13 -6 21 -4 11 2 17 18 20 55 10 59 9 56
-25z m573 12 c13 -10 21 -19 17 -20 -14 0 -58 23 -58 32 0 14 16 9 41 -12z
m1644 -7 c-5 -10 -8 -26 -9 -35 -1 -26 -13 -11 -18 22 -4 25 -1 30 15 30 14 0
17 -4 12 -17z m-3431 -19 c4 -10 -3 -14 -29 -14 -37 0 -46 13 -18 28 20 12 39
6 47 -14z m1284 -3 c2 -12 -2 -29 -10 -38 -11 -14 -14 -12 -19 18 -3 19 -3 38
-1 42 7 15 27 1 30 -22z m872 14 c-7 -8 -16 -15 -21 -15 -5 0 -6 7 -3 15 4 8
13 15 21 15 13 0 13 -3 3 -15z m231 -18 c-16 -16 -26 0 -10 19 9 11 15 12 17
4 2 -6 -1 -17 -7 -23z m1299 24 c0 -12 -20 -25 -27 -18 -7 7 6 27 18 27 5 0 9
-4 9 -9z m-2840 -16 c0 -8 -4 -15 -10 -15 -5 0 -10 7 -10 15 0 8 5 15 10 15 6
0 10 -7 10 -15z m253 9 c9 -10 -4 -34 -19 -34 -8 0 -14 6 -14 13 0 22 19 35
33 21z m-188 -34 c3 -5 -1 -10 -9 -10 -9 0 -16 5 -16 10 0 6 4 10 9 10 6 0 13
-4 16 -10z m1150 -20 c-4 -12 -9 -19 -12 -17 -3 3 -2 15 2 27 4 12 9 19 12 17
3 -3 2 -15 -2 -27z m215 26 c0 -11 -19 -15 -25 -6 -3 5 1 10 9 10 9 0 16 -2
16 -4z m-2442 -36 c-11 -18 -28 -27 -28 -16 0 2 -3 11 -6 20 -5 12 0 16 20 16
24 0 25 -2 14 -20z m-79 -21 c18 -24 20 -33 11 -45 -24 -28 -40 -16 -40 31 0
25 1 45 3 45 2 0 13 -14 26 -31z m219 0 c-12 -7 -24 -7 -35 0 -15 9 -12 10 17
10 29 0 32 -1 18 -10z m1097 -11 c-10 -34 -23 -44 -31 -25 -9 23 2 47 21 47
12 0 15 -6 10 -22z m-165 1 c0 -38 -36 -51 -64 -23 -24 24 -20 29 24 29 22 0
40 -3 40 -6z m520 -22 c21 6 200 -75 200 -90 0 -5 -9 -5 -21 -2 -11 4 -33 2
-47 -3 -15 -6 -39 -13 -54 -16 -38 -8 -46 -42 -17 -72 12 -13 33 -24 46 -24
40 0 39 -28 -1 -63 -20 -18 -36 -40 -36 -50 0 -26 45 -43 80 -30 32 12 40 8
40 -19 0 -19 25 -25 35 -8 3 6 13 10 22 10 11 0 14 -6 9 -25 -7 -27 11 -34 32
-13 7 7 12 8 12 2 0 -5 5 -38 11 -74 20 -125 26 -185 22 -197 -7 -18 -63 -17
-63 1 0 8 5 18 10 21 19 12 10 45 -15 57 -14 6 -25 17 -25 24 0 22 -21 27 -40
9 -16 -14 -23 -15 -34 -6 -23 19 -39 3 -32 -32 8 -37 33 -67 57 -67 10 0 25
-13 33 -29 9 -16 25 -31 38 -34 35 -10 14 -19 -26 -12 -29 6 -36 12 -36 31 0
17 -6 24 -20 24 -27 0 -36 -25 -21 -57 l12 -25 -47 7 c-26 4 -54 11 -63 15 -9
5 -49 23 -88 41 -40 18 -73 38 -73 45 0 8 -9 14 -21 14 -11 0 -27 7 -36 15
-11 12 -19 13 -28 5 -10 -8 -22 -7 -44 5 -37 18 -61 62 -61 108 0 47 71 188
114 228 35 31 47 64 26 71 -12 4 -3 88 9 88 4 0 12 -13 18 -30 15 -40 28 -38
41 9 16 53 15 81 -3 81 -8 0 -15 6 -15 14 0 7 -7 19 -15 26 -22 18 -19 25 18
42 29 14 34 14 55 -2 12 -10 31 -16 42 -13z m-1496 -16 c22 -22 52 -45 67 -52
16 -6 27 -15 24 -19 -6 -9 -52 -2 -82 12 -12 6 -31 8 -43 5 -18 -5 -21 -2 -17
15 3 11 2 30 -3 43 -8 22 -5 35 10 35 3 0 23 -18 44 -39z m2256 21 c17 -14 21
-24 15 -41 -5 -16 -10 -19 -19 -11 -8 5 -30 8 -50 6 -30 -4 -36 -2 -36 14 0
11 12 26 28 34 35 19 36 19 62 -2z m1004 -31 c-5 -23 -2 -32 15 -43 32 -20 25
-31 -9 -13 -16 9 -30 20 -30 25 0 6 -9 10 -20 10 -18 0 -20 -4 -15 -37 l6 -38
-20 35 c-11 19 -20 39 -21 43 0 7 74 45 92 46 4 1 5 -12 2 -28z m-3094 -27 c0
-29 -11 -30 -34 -5 -21 24 -14 41 14 34 13 -3 20 -14 20 -29z m520 16 c0 -5
-7 -10 -16 -10 -8 0 -12 5 -9 10 3 6 10 10 16 10 5 0 9 -4 9 -10z m3214 -5
c11 -9 16 -20 12 -31 -6 -16 -8 -15 -26 1 -20 18 -27 45 -12 45 4 0 15 -7 26
-15z m-3494 -5 c0 -5 -4 -10 -10 -10 -5 0 -10 5 -10 10 0 6 5 10 10 10 6 0 10
-4 10 -10z m2097 -27 c-9 -9 -19 -14 -23 -11 -10 10 6 28 24 28 15 0 15 -1 -1
-17z m-2257 -35 c0 -13 -17 -9 -30 7 -6 8 -8 20 -4 26 5 9 11 7 21 -6 7 -11
13 -22 13 -27z m2643 28 c7 -18 -1 -26 -25 -26 -21 0 -23 11 -6 28 16 16 25
15 31 -2z m-2094 -20 c8 -10 9 -16 1 -21 -13 -8 -30 3 -30 21 0 18 14 18 29 0z
m1861 -21 c0 -14 -4 -25 -10 -25 -5 0 -10 11 -10 25 0 14 5 25 10 25 6 0 10
-11 10 -25z m-2160 5 c0 -5 -13 -16 -30 -25 -34 -18 -40 -18 -40 -5 0 6 9 10
20 10 11 0 23 7 26 15 7 17 24 21 24 5z m678 -30 c-24 -33 -41 -40 -31 -12 9
26 24 42 40 42 10 0 8 -8 -9 -30z m1802 -10 c10 -19 -5 -40 -28 -40 -12 0 -12
3 -1 16 10 12 10 20 1 34 -10 16 -9 18 3 13 9 -3 20 -13 25 -23z m672 10 c33
-20 24 -25 -19 -14 -13 4 -23 13 -23 20 0 18 3 18 42 -6z m-3107 0 c3 -5 1
-10 -4 -10 -6 0 -11 5 -11 10 0 6 2 10 4 10 3 0 8 -4 11 -10z m1223 -7 c2 -8
-6 -13 -23 -13 -18 0 -29 -6 -32 -20 -7 -25 -19 -26 -33 -1 -22 41 -13 52 37
49 26 -2 48 -9 51 -15z m239 -9 c-9 -9 -28 6 -21 18 4 6 10 6 17 -1 6 -6 8
-13 4 -17z m1783 16 c0 -5 -7 -10 -16 -10 -8 0 -12 5 -9 10 3 6 10 10 16 10 5
0 9 -4 9 -10z m-3541 -14 l24 -13 -24 -17 c-30 -21 -34 -20 -69 6 -22 16 -27
24 -18 30 19 12 60 9 87 -6z m2539 -4 c2 -8 -8 -12 -30 -12 -31 1 -32 1 -13
15 21 17 37 15 43 -3z m347 -20 c10 -5 15 -14 11 -21 -10 -16 -56 -14 -62 4
-4 9 -19 15 -41 15 -19 0 -32 4 -28 9 7 12 97 7 120 -7z m-1035 0 c0 -13 -12
-22 -22 -16 -10 6 -1 24 13 24 5 0 9 -4 9 -8z m-1775 -19 c3 -10 1 -19 -5 -21
-6 -2 -17 -10 -25 -19 -8 -8 -19 -11 -25 -8 -16 10 -12 23 10 30 11 3 20 13
20 21 0 20 16 18 25 -3z m219 4 c17 -12 17 -14 2 -20 -22 -9 -20 -34 4 -40 16
-4 20 -14 20 -51 0 -51 -12 -63 -55 -52 -26 7 -35 39 -14 52 7 4 9 21 5 43 -6
37 1 81 13 81 4 0 15 -6 25 -13z m686 3 c0 -5 -9 -14 -20 -20 -15 -8 -20 -8
-20 3 0 8 3 17 7 20 10 10 33 8 33 -3z m-775 -10 c-3 -5 -11 -10 -16 -10 -6 0
-7 5 -4 10 3 6 11 10 16 10 6 0 7 -4 4 -10z m550 1 c3 -5 1 -12 -5 -16 -5 -3
-10 1 -10 9 0 18 6 21 15 7z m796 -11 c5 0 9 -4 9 -10 0 -16 -26 -12 -41 7
-12 15 -12 16 4 10 10 -4 23 -7 28 -7z m846 -16 c-9 -9 -28 6 -21 18 4 6 10 6
17 -1 6 -6 8 -13 4 -17z m1166 -40 c-5 -15 -15 -30 -21 -32 -19 -6 -25 25 -11
58 12 25 16 28 28 16 10 -10 11 -21 4 -42z m-3046 31 c5 -15 -22 -55 -37 -55
-15 0 -22 53 -8 61 20 13 38 11 45 -6z m141 3 c-3 -7 -11 -13 -18 -13 -7 0
-15 6 -17 13 -3 7 4 12 17 12 13 0 20 -5 18 -12z m1282 3 c0 -6 -4 -13 -10
-16 -5 -3 -10 1 -10 9 0 9 5 16 10 16 6 0 10 -4 10 -9z m2380 -47 c0 -8 -2
-14 -5 -14 -6 0 -35 56 -35 67 1 14 40 -39 40 -53z m-3480 37 c0 -12 -20 -25
-27 -18 -7 7 6 27 18 27 5 0 9 -4 9 -9z m141 -93 c-30 -68 -51 -93 -51 -61 0
11 -4 23 -9 29 -5 5 -12 30 -16 56 -8 52 -11 49 60 64 52 12 55 -2 16 -88z
m759 82 c-12 -23 -30 -27 -30 -7 0 17 10 27 27 27 11 0 11 -5 3 -20z m116 -6
c-3 -9 -6 -20 -6 -25 0 -12 -27 -11 -35 1 -9 14 13 40 32 40 10 0 13 -6 9 -16z
m1634 -37 c0 -5 -7 -4 -15 3 -8 7 -15 20 -15 29 1 13 3 13 15 -3 8 -11 15 -24
15 -29z m-3275 16 c-4 -10 -10 -28 -12 -40 -5 -21 -7 -20 -54 14 -27 19 -49
36 -49 37 0 1 28 3 61 4 55 2 61 1 54 -15z m2007 -65 c-11 -11 -82 28 -82 46
0 7 6 18 13 25 10 10 19 5 46 -24 21 -24 30 -40 23 -47z m129 49 c-8 -8 -11
-7 -11 4 0 20 13 34 18 19 3 -7 -1 -17 -7 -23z m893 25 c3 -5 -10 -23 -28 -41
-19 -19 -36 -28 -40 -23 -3 6 -1 14 4 17 6 4 15 18 20 31 9 24 34 32 44 16z
m-271 -18 c3 -4 2 -15 -4 -25 -8 -16 -13 -17 -31 -8 -21 11 -21 12 -3 25 21
16 29 17 38 8z m955 -23 c-7 -12 -16 -21 -21 -21 -8 0 -2 14 16 38 16 20 20 6
5 -17z m-1218 -2 c-6 -10 -10 -28 -10 -41 0 -22 -1 -22 -31 10 -16 17 -34 32
-40 32 -5 0 -9 4 -9 8 0 5 22 9 50 9 45 1 49 -1 40 -18z m420 11 c0 -5 -7 -10
-16 -10 -8 0 -12 5 -9 10 3 6 10 10 16 10 5 0 9 -4 9 -10z m-1084 -35 c-6 -22
-3 -25 19 -25 14 0 25 -4 25 -10 0 -12 -34 -30 -57 -30 -15 0 -18 7 -15 45 3
32 8 45 19 45 11 0 14 -7 9 -25z m1000 -12 c-4 -4 -11 -1 -16 7 -16 25 -11 35
7 17 9 -9 13 -20 9 -24z m343 28 c7 -5 11 -13 7 -19 -18 -29 39 -67 83 -55 12
3 21 1 21 -5 0 -5 -43 -27 -96 -48 l-97 -38 -36 21 c-36 21 -50 51 -21 45 66
-16 80 -15 80 5 0 14 -10 23 -32 29 -35 10 -50 34 -21 34 10 0 26 9 36 20 18
21 52 26 76 11z m801 -5 c0 -15 -54 -39 -64 -28 -6 6 42 42 57 42 4 0 7 -6 7
-14z m76 -15 c-4 -6 -14 -11 -22 -11 -12 0 -13 4 -3 21 7 14 14 18 21 11 6 -6
7 -15 4 -21z m-3736 4 c0 -8 -4 -15 -10 -15 -5 0 -10 7 -10 15 0 8 5 15 10 15
6 0 10 -7 10 -15z m334 -20 c7 -18 -14 -55 -30 -55 -7 0 -14 7 -18 15 -3 9 0
15 9 15 8 0 15 9 15 20 0 24 15 27 24 5z m1548 -6 c5 -37 33 -47 61 -21 25 23
61 29 73 11 3 -6 -6 -24 -21 -39 -27 -28 -29 -29 -64 -14 -33 13 -81 59 -81
77 0 18 29 5 32 -14z m-467 1 c3 -5 15 -10 26 -10 10 0 19 -7 19 -15 0 -13 -7
-15 -37 -9 -28 5 -39 3 -48 -10 -7 -9 -19 -14 -29 -10 -23 9 -20 23 8 34 13 5
27 14 31 19 8 14 22 14 30 1z m1675 -6 c0 -8 -4 -12 -10 -9 -5 3 -10 10 -10
16 0 5 5 9 10 9 6 0 10 -7 10 -16z m-3550 -36 c0 -41 0 -42 -16 -20 -12 18
-25 22 -65 22 -36 0 -49 4 -49 14 0 19 15 24 78 25 l52 1 0 -42z m535 32 c-3
-5 -10 -10 -16 -10 -5 0 -9 5 -9 10 0 6 7 10 16 10 8 0 12 -4 9 -10z m3282 0
c13 0 13 -3 3 -15 -15 -19 -34 -19 -49 -2 -13 16 -3 30 17 22 7 -3 21 -5 29
-5z m-3467 -15 c0 -8 -4 -15 -10 -15 -5 0 -10 7 -10 15 0 8 5 15 10 15 6 0 10
-7 10 -15z m2500 8 c-1 -15 -90 -107 -90 -94 0 9 -8 11 -25 7 -30 -8 -33 10
-9 55 12 24 18 28 29 19 11 -9 21 -8 42 3 32 17 53 21 53 10z m-2713 -33 c36
-32 29 -41 -12 -14 -18 12 -28 13 -44 5 -22 -12 -37 0 -27 24 9 24 46 17 83
-15z m133 -5 c0 -32 -52 -29 -69 3 -8 15 -4 17 30 14 24 -3 39 -9 39 -17z
m133 -5 c-15 -9 -30 -15 -33 -12 -3 2 1 7 8 9 7 3 18 11 25 18 7 7 16 11 20 8
5 -3 -4 -13 -20 -23z m2484 -54 c-4 -9 -15 -16 -25 -16 -10 0 -27 -9 -37 -20
-10 -11 -23 -20 -28 -20 -6 0 9 20 34 43 41 41 69 47 56 13z m571 -9 c18 -37
42 -35 42 4 0 34 22 36 28 3 7 -37 23 -40 49 -9 18 22 23 25 19 10 -3 -11 -12
-45 -20 -76 -8 -31 -26 -79 -40 -107 -29 -58 -33 -92 -11 -92 19 0 41 35 66
106 11 32 29 70 39 84 9 14 20 34 24 46 5 17 14 20 59 20 60 -1 77 -9 77 -37
0 -11 11 -24 25 -31 24 -11 24 -12 9 -29 -13 -14 -14 -22 -6 -32 16 -19 4
-121 -13 -107 -7 6 -20 8 -29 4 -12 -5 -15 -14 -10 -45 8 -47 -8 -52 -26 -9
-11 26 -18 30 -49 30 -30 0 -45 -9 -93 -55 -54 -52 -58 -54 -68 -35 -14 26
-30 26 -37 0 -5 -18 -8 -16 -27 13 -28 41 -49 45 -87 13 -34 -29 -38 -30 -58
-17 -11 7 -9 14 9 39 12 16 19 35 16 41 -9 14 -36 14 -36 0 0 -7 -12 -9 -34
-5 -24 5 -36 3 -39 -6 -2 -7 -7 2 -11 20 -9 40 -39 41 -43 2 -1 -14 -6 -36
-12 -50 -10 -25 -10 -25 -10 -2 -1 12 -8 25 -16 28 -10 4 -13 13 -10 25 8 23
-11 59 -30 59 -10 0 -15 -10 -15 -29 0 -36 -16 -49 -25 -21 -5 15 -12 19 -31
14 -19 -5 -23 -3 -19 9 4 9 -1 16 -14 20 -28 7 -27 27 2 27 27 0 54 16 44 26
-4 4 -34 10 -67 12 -50 4 -57 6 -45 18 18 18 66 18 91 -1 27 -20 61 -18 74 4
13 25 13 34 0 26 -16 -10 -49 4 -61 26 -30 57 41 83 128 47 51 -21 53 -21 115
-4 35 9 81 25 103 36 49 22 56 21 73 -13z m362 29 c0 -3 -4 -8 -10 -11 -5 -3
-10 -1 -10 4 0 6 5 11 10 11 6 0 10 -2 10 -4z m260 -12 c0 -8 -4 -12 -10 -9
-5 3 -10 10 -10 16 0 5 5 9 10 9 6 0 10 -7 10 -16z m-3422 -61 c17 -10 22 -22
20 -41 -4 -34 -26 -39 -73 -16 -34 16 -35 18 -19 35 15 17 15 19 0 25 -9 3
-16 11 -16 16 0 13 58 0 88 -19z m1215 20 c-7 -2 -21 -2 -30 0 -10 3 -4 5 12
5 17 0 24 -2 18 -5z m2147 -12 c0 -6 -4 -13 -10 -16 -5 -3 -10 1 -10 9 0 9 5
16 10 16 6 0 10 -4 10 -9z m-2253 -16 c19 -8 60 -15 89 -15 30 0 54 -4 54 -9
0 -15 -135 -155 -168 -174 -30 -17 -31 -17 -42 2 -5 11 -10 44 -10 73 0 29 -4
68 -10 87 -5 19 -7 38 -4 42 8 14 51 11 91 -6z m353 -15 c0 -23 25 -33 40 -15
16 19 30 10 30 -19 0 -13 7 -29 15 -36 23 -19 18 -47 -13 -68 l-27 -20 -28 24
c-16 13 -37 24 -48 24 -23 0 -25 33 -4 70 8 14 14 35 15 48 0 13 4 20 10 17 6
-3 10 -14 10 -25z m-1321 -31 c2 -8 -7 -9 -30 -4 -42 9 -51 17 -43 39 6 15 9
15 37 -3 18 -11 33 -25 36 -32z m1875 34 c3 -10 9 -24 12 -30 3 -7 2 -13 -4
-13 -7 0 -32 42 -32 55 0 13 18 3 24 -12z m-688 -35 c1 -24 4 -54 8 -68 6 -21
-2 -35 -47 -85 l-55 -60 -67 2 c-67 2 -94 11 -65 21 27 9 172 156 191 195 11
20 23 37 27 37 4 0 8 -19 8 -42z m595 7 c-1 -15 -24 -12 -29 3 -3 9 2 13 12
10 10 -1 17 -7 17 -13z m1381 -30 c16 -14 36 -25 45 -25 17 0 52 -38 53 -57 0
-20 -18 -15 -30 8 -17 30 -52 21 -69 -18 -14 -31 -31 -44 -31 -24 0 5 -10 11
-21 14 -20 5 -21 10 -15 58 11 80 19 85 68 44z m-3428 -1 c22 -8 20 -21 -9
-56 -14 -16 -25 -36 -25 -44 0 -8 -4 -14 -10 -14 -11 0 -4 49 12 93 12 30 10
29 32 21z m1826 -4 c0 -5 -2 -10 -4 -10 -3 0 -8 5 -11 10 -3 6 -1 10 4 10 6 0
11 -4 11 -10z m35 -88 c-9 -9 -25 11 -25 31 1 21 1 21 15 -3 7 -14 12 -27 10
-28z m240 29 c3 -5 1 -12 -5 -16 -5 -3 -10 1 -10 9 0 18 6 21 15 7z m285 -18
c13 -12 -22 -39 -60 -45 -47 -8 -75 2 -82 29 -4 16 1 18 32 15 21 -2 41 1 44
7 6 10 53 6 66 -6z m-580 -35 c0 -22 -52 -78 -90 -98 -45 -23 -72 -25 -99 -8
-16 10 -26 8 -54 -7 -52 -28 -67 -16 -67 50 0 64 8 68 65 30 24 -17 44 -23 57
-19 17 5 18 3 9 -14 -9 -17 -8 -22 10 -27 13 -4 27 -1 37 9 29 28 117 95 125
96 4 0 7 -5 7 -12z m1643 -48 c3 -11 1 -23 -4 -26 -5 -3 -9 6 -9 20 0 31 6 34
13 6z m-1983 -5 c0 -8 -4 -15 -10 -15 -5 0 -10 7 -10 15 0 8 5 15 10 15 6 0
10 -7 10 -15z m605 -5 c3 -5 -3 -10 -14 -10 -12 0 -21 5 -21 10 0 6 6 10 14
10 8 0 18 -4 21 -10z m215 -6 c29 -10 -11 -22 -54 -17 -54 6 -68 11 -62 22 5
8 85 5 116 -5z m880 -35 l10 -33 -28 27 c-22 23 -25 29 -12 37 18 11 18 10 30
-31z m-1919 -32 c-12 -12 -45 -1 -37 12 3 5 15 7 27 4 13 -4 17 -9 10 -16z
m1635 -4 c-10 -10 -19 5 -10 18 6 11 8 11 12 0 2 -7 1 -15 -2 -18z m-706 -13
c15 -28 44 -27 35 1 -7 20 -5 21 46 14 60 -8 74 -16 66 -39 -4 -11 -19 -16
-46 -16 -33 0 -40 -4 -44 -22 -4 -20 -4 -19 -6 5 -1 24 -5 27 -34 27 -26 0
-36 6 -45 25 -9 20 -9 25 3 25 8 0 19 -9 25 -20z m435 10 c3 -5 -3 -10 -14
-10 -12 0 -21 5 -21 10 0 6 6 10 14 10 8 0 18 -4 21 -10z m-593 -82 c-5 -5
-20 0 -36 13 -14 11 -32 22 -39 23 -6 1 -19 6 -27 11 -12 7 -10 10 10 15 17 4
29 1 37 -9 10 -14 14 -13 35 9 l23 25 3 -39 c2 -21 -1 -43 -6 -48z m778 60 c0
-13 -43 -6 -47 8 -2 7 6 10 22 7 14 -3 25 -10 25 -15z m-368 -23 c-11 -21 -25
-4 -16 20 4 10 10 13 16 7 7 -7 7 -16 0 -27z m898 5 c8 -5 11 -12 8 -16 -10
-9 -38 3 -38 16 0 12 10 13 30 0z m-1200 -44 c10 -13 10 -16 -3 -16 -17 0 -47
26 -47 41 0 12 32 -4 50 -25z m1065 -55 c7 -12 -12 -24 -25 -16 -11 7 -4 25
10 25 5 0 11 -4 15 -9z m-1045 -117 c0 -36 -10 -43 -29 -20 -8 10 -8 21 -1 40
13 35 30 24 30 -20z m-1293 -340 c4 -13 -24 -51 -32 -43 -10 10 6 60 18 56 6
-2 12 -8 14 -13z m-307 -1226 c-57 -52 -163 -132 -311 -236 -100 -70 -123 -82
-158 -82 -23 0 -41 4 -41 8 0 14 522 350 545 351 6 0 -10 -18 -35 -41z m660
-42 c146 -66 256 -130 276 -161 19 -29 10 -68 -14 -61 -9 2 -35 7 -57 11 -22
3 -88 29 -146 57 -89 42 -109 56 -123 84 -8 19 -34 54 -56 78 -67 73 -56 72
120 -8z m-190 -136 c0 -28 -7 -25 -25 11 -16 30 -16 30 4 19 12 -6 21 -20 21
-30z m-410 -34 c0 -24 -3 -52 -6 -61 -8 -20 -172 -98 -191 -91 -33 13 -6 44
136 158 25 20 49 37 54 37 4 1 7 -19 7 -43z m365 -115 c22 -33 33 -71 20 -71
-7 0 -108 62 -127 78 -21 17 -24 78 -5 85 16 5 80 -47 112 -92z m315 2 c39
-35 80 -145 87 -233 4 -52 0 -79 -20 -135 -24 -69 -25 -69 -36 -42 -6 16 -11
39 -11 52 0 38 -29 180 -56 272 -34 116 -24 139 36 86z m-160 -12 c0 -6 -4
-13 -10 -16 -5 -3 -10 1 -10 9 0 9 5 16 10 16 6 0 10 -4 10 -9z m330 -52 c0
-25 -8 -24 -37 3 -31 29 -29 39 7 27 19 -7 30 -18 30 -30z m-1485 11 c3 -5 1
-10 -4 -10 -6 0 -11 5 -11 10 0 6 2 10 4 10 3 0 8 -4 11 -10z m610 1 c-6 -5
-21 -12 -35 -15 -24 -7 -24 -6 -6 8 21 17 57 23 41 7z m-895 -8 c0 -5 -15 -20
-33 -35 -22 -17 -57 -71 -101 -155 -37 -70 -93 -164 -125 -208 -52 -73 -64
-83 -137 -120 -76 -37 -95 -50 -183 -121 l-34 -28 6 78 c17 200 164 444 314
523 73 39 115 52 195 62 88 12 98 12 98 4z m1939 -40 c12 -14 19 -28 16 -31
-6 -7 -34 17 -46 40 -15 28 6 22 30 -9z m-692 -15 c49 -30 76 -68 60 -85 -11
-10 -127 89 -127 109 0 14 12 9 67 -24z m1232 1 c75 -33 205 -125 283 -202
140 -136 263 -323 380 -579 57 -125 138 -326 138 -342 0 -2 -13 -7 -30 -11
-32 -7 -51 -26 -32 -33 19 -6 14 -64 -9 -101 -32 -53 -139 -153 -189 -178 -25
-12 -46 -19 -47 -15 -1 4 -7 84 -12 177 -6 94 -17 193 -25 220 -8 28 -41 106
-75 175 -33 69 -85 190 -115 270 -132 351 -187 456 -296 572 -36 38 -64 71
-61 74 6 5 34 -3 90 -27z m-1539 7 c0 -3 -4 -8 -10 -11 -5 -3 -10 -1 -10 4 0
6 5 11 10 11 6 0 10 -2 10 -4z m909 -15 c6 -10 13 -38 17 -62 7 -44 7 -44 -14
-26 -11 10 -26 32 -32 48 -20 47 7 83 29 40z m-1524 -39 c-6 -7 -35 18 -35 31
0 5 9 2 20 -8 11 -10 18 -20 15 -23z m535 19 c0 -22 -85 -119 -95 -109 -14 14
-23 78 -12 86 9 5 80 34 105 41 1 1 2 -8 2 -18z m590 -6 c-7 -8 -17 -15 -23
-15 -5 0 -2 9 8 20 21 23 35 19 15 -5z m560 -40 c0 -14 -4 -25 -9 -25 -12 0
-23 29 -15 41 10 18 24 9 24 -16z m-1780 -24 c0 -10 -61 -54 -67 -48 -9 10 40
65 53 60 8 -3 14 -8 14 -12z m-162 -79 c-11 -45 -24 -82 -29 -82 -13 0 -11 65
3 97 15 35 40 75 44 71 1 -2 -6 -41 -18 -86z m1882 29 c-1 -42 -13 -27 -25 29
-7 31 -6 33 9 21 9 -8 16 -28 16 -50z m-66 -60 l49 -54 -7 -211 c-6 -189 -5
-221 13 -307 18 -84 19 -108 9 -190 -12 -112 -14 -119 -28 -119 -28 0 -59 55
-80 143 -12 50 -41 148 -63 217 l-41 125 -1 175 c0 182 -1 175 51 320 4 11 11
8 27 -15 12 -16 44 -54 71 -84z m-997 69 c-11 -29 -27 -41 -27 -19 0 16 20 49
29 49 5 0 4 -13 -2 -30z m618 20 c3 -5 2 -10 -4 -10 -5 0 -13 5 -16 10 -3 6
-2 10 4 10 5 0 13 -4 16 -10z m-854 -72 l16 -66 -51 -72 -51 -71 -3 47 c-4 65
13 201 29 220 24 29 42 11 60 -58z m-341 42 c0 -5 -4 -10 -10 -10 -5 0 -10 5
-10 10 0 6 5 10 10 10 6 0 10 -4 10 -10z m397 -22 c-3 -8 -6 -5 -6 6 -1 11 2
17 5 13 3 -3 4 -12 1 -19z m1412 -27 c14 -42 14 -81 1 -81 -13 0 -41 97 -33
116 7 19 17 8 32 -35z m-1859 -15 c0 -12 -15 -48 -33 -81 -35 -65 -67 -85 -67
-41 0 28 -1 29 -24 20 -9 -3 -16 -17 -16 -30 0 -13 -4 -24 -10 -24 -15 0 -12
33 6 58 8 12 22 22 30 22 8 0 14 10 14 23 0 25 28 71 56 92 17 12 21 12 32 -2
6 -9 12 -26 12 -37z m1211 33 c8 -16 8 -28 -1 -48 l-12 -26 -19 24 c-26 31
-25 71 1 71 10 0 24 -10 31 -21z m-202 -13 c16 -17 22 -33 19 -57 -4 -49 -31
-45 -39 6 -3 22 -9 48 -14 58 -10 25 8 21 34 -7z m751 -47 c0 -27 -4 -49 -10
-49 -18 0 -30 40 -24 80 9 58 34 35 34 -31z m-1197 19 c-10 -99 -26 -118 -36
-45 -4 28 -1 49 9 65 22 34 33 26 27 -20z m197 2 c0 -20 -32 -44 -43 -33 -4 3
1 19 9 35 16 30 34 29 34 -2z m-518 -43 c-4 -52 -15 -56 -40 -15 -15 26 -15
28 8 53 30 32 38 23 32 -38z m1767 -13 c35 -39 121 -204 158 -302 55 -148 94
-299 109 -425 8 -71 13 -131 11 -133 -2 -3 -29 7 -59 21 -52 24 -57 29 -73 77
-9 29 -34 84 -55 123 -57 104 -78 181 -101 365 -11 91 -26 194 -34 228 -22 92
-8 106 44 46z m-739 -1 c1 -10 3 -42 6 -72 7 -61 -4 -62 -31 -1 -16 35 -16 44
-5 65 16 29 30 33 30 8z m-1520 -79 c0 -13 -4 -24 -10 -24 -5 0 -10 14 -10 31
0 17 4 28 10 24 6 -3 10 -17 10 -31z m1380 6 c0 -25 -10 -50 -21 -50 -10 0
-12 63 -3 73 11 10 24 -3 24 -23z m716 -4 c3 -13 -1 -46 -9 -73 l-15 -48 -1
73 c-1 71 12 97 25 48z m-1101 4 c-3 -5 -10 -10 -16 -10 -5 0 -9 5 -9 10 0 6
7 10 16 10 8 0 12 -4 9 -10z m-310 -34 c5 -23 1 -45 -13 -72 -10 -22 -22 -51
-26 -66 -9 -37 -18 -35 -51 8 -19 24 -25 41 -19 49 5 6 26 35 47 63 22 29 43
52 47 52 5 0 12 -15 15 -34z m-195 -58 c-1 -15 -50 61 -50 77 0 5 11 -7 25
-27 14 -20 25 -43 25 -50z m-595 52 c3 -5 2 -10 -4 -10 -5 0 -13 5 -16 10 -3
6 -2 10 4 10 5 0 13 -4 16 -10z m1017 -12 c-7 -7 -12 -8 -12 -2 0 6 3 14 7 17
3 4 9 5 12 2 2 -3 -1 -11 -7 -17z m1264 -38 c5 -24 3 -32 -4 -25 -5 6 -13 26
-17 45 -5 25 -4 32 4 25 6 -6 14 -26 17 -45z m-490 3 c-10 -10 -19 5 -10 18 6
11 8 11 12 0 2 -7 1 -15 -2 -18z m299 -148 c-9 -202 -25 -195 -25 10 1 156 2
168 16 150 14 -17 15 -41 9 -160z m-1561 105 c20 -25 36 -52 35 -60 0 -8 -17
-49 -39 -90 -38 -74 -42 -76 -54 -20 -2 14 -10 47 -17 74 -9 38 -9 62 1 103
13 62 20 61 74 -7z m886 50 c0 -5 -2 -10 -4 -10 -3 0 -8 5 -11 10 -3 6 -1 10
4 10 6 0 11 -4 11 -10z m319 -115 c-1 -68 2 -129 6 -136 11 -17 31 -390 22
-396 -13 -8 -15 -3 -30 117 -17 135 -23 540 -8 540 6 0 10 -47 10 -125z
m-1737 90 c12 -5 11 -23 -8 -113 -12 -59 -30 -152 -39 -207 -20 -113 -44 -148
-109 -161 -69 -12 -69 -15 26 286 32 101 64 166 89 184 27 18 23 18 41 11z
m1098 -9 c0 -8 -4 -18 -10 -21 -5 -3 -10 3 -10 14 0 12 5 21 10 21 6 0 10 -6
10 -14z m502 -69 c16 -34 16 -38 2 -26 -18 15 -54 83 -53 101 0 17 29 -25 51
-75z m-1418 37 c10 -27 7 -44 -9 -44 -10 0 -15 10 -15 30 0 32 14 40 24 14z
m-364 3 c0 -1 -16 -40 -35 -86 -19 -45 -35 -88 -35 -96 0 -22 -33 -115 -40
-115 -9 0 9 76 40 175 26 82 47 125 60 125 6 0 10 -1 10 -3z m521 -79 c-6 -17
-11 -42 -11 -55 0 -13 -4 -21 -10 -18 -10 6 -6 43 13 115 11 40 12 42 15 17 2
-16 -1 -42 -7 -59z m686 -14 c-3 -65 -9 -100 -19 -110 -13 -13 -16 -4 -24 72
-9 78 -8 89 9 110 33 43 39 30 34 -72z m-628 23 c-12 -62 -27 -106 -28 -83 -2
35 22 147 29 135 4 -6 3 -29 -1 -52z m-666 -5 c-6 -20 -23 -67 -37 -104 -25
-67 -46 -192 -46 -279 0 -35 -6 -52 -25 -73 -33 -35 -57 -33 -94 10 -27 30
-31 41 -25 70 6 32 4 34 -25 40 l-32 7 4 76 c2 42 11 90 20 106 25 47 106 120
182 163 79 45 95 42 78 -16z m2527 30 c0 -9 11 -61 24 -114 34 -136 40 -178
27 -178 -6 0 -11 8 -11 18 0 10 -12 52 -26 93 -29 80 -46 217 -25 205 6 -4 11
-15 11 -24z m-1571 -21 c29 -36 41 -81 23 -81 -5 0 -23 27 -40 60 -35 69 -28
78 17 21z m491 35 c0 -3 -4 -8 -10 -11 -5 -3 -10 -1 -10 4 0 6 5 11 10 11 6 0
10 -2 10 -4z m-1074 -122 c-19 -49 -26 33 -8 96 5 19 7 12 10 -29 2 -29 1 -60
-2 -67z m1384 102 c0 -8 -4 -17 -9 -21 -12 -7 -24 12 -16 25 9 15 25 12 25 -4z
m700 -30 c-1 -20 -2 -20 -15 4 -19 33 -19 46 0 30 8 -7 15 -22 15 -34z m-1390
-8 c0 -19 -18 -43 -25 -36 -4 3 -2 16 5 27 12 24 20 27 20 9z m813 -67 c27
-57 36 -131 17 -131 -5 0 -10 6 -10 13 0 7 -11 29 -25 50 -30 43 -47 141 -24
132 8 -3 26 -32 42 -64z m-669 28 c11 -55 6 -148 -8 -184 -17 -41 -40 -48 -30
-10 3 14 7 69 9 123 3 108 2 102 14 102 5 0 11 -14 15 -31z m-340 -1 c-1 -13
-8 -65 -15 -116 -10 -79 -14 -92 -28 -86 -9 4 -26 9 -38 11 -13 3 -23 12 -23
20 0 17 92 193 101 193 3 0 5 -10 3 -22z m1565 -255 c1 -116 -3 -183 -9 -183
-5 0 -10 16 -10 35 0 19 -7 54 -15 77 -11 34 -12 58 -5 108 5 36 10 90 10 121
0 31 3 59 7 63 15 15 21 -43 22 -221z m-1493 161 c8 -31 -24 -134 -42 -134
-17 0 -17 3 -2 108 11 73 14 81 26 65 7 -10 15 -27 18 -39z m-426 37 c0 -6 -4
-13 -10 -16 -5 -3 -10 1 -10 9 0 9 5 16 10 16 6 0 10 -4 10 -9z m950 -21 c0
-16 -4 -30 -10 -30 -5 0 -10 6 -10 14 0 8 -3 21 -6 30 -4 11 -1 16 10 16 11 0
16 -9 16 -30z m704 -290 c24 -80 51 -166 61 -191 l18 -46 -26 -37 -25 -38 -15
54 c-59 205 -117 496 -109 548 5 32 8 27 29 -55 14 -49 44 -155 67 -235z
m-1032 206 c-7 -13 -32 24 -32 47 0 10 6 28 12 40 11 20 13 18 19 -28 3 -27 4
-54 1 -59z m-841 45 c-6 -11 -11 -31 -11 -45 0 -14 -4 -28 -10 -31 -13 -8 -1
85 14 104 14 19 20 -3 7 -28z m421 -25 c0 -18 -11 -55 -26 -82 -21 -42 -25
-45 -26 -23 0 27 17 133 26 159 8 23 26 -14 26 -54z m1803 -31 c9 -44 21 -88
26 -97 12 -22 -6 -68 -26 -68 -8 0 -15 3 -16 8 -3 32 -7 70 -13 157 -10 119 3
119 29 0z m-2160 54 c-9 -17 -19 -28 -22 -25 -6 6 23 56 32 56 3 0 -2 -14 -10
-31z m1384 -89 c11 -52 21 -111 21 -131 0 -21 8 -47 19 -60 17 -22 18 -36 14
-112 -3 -48 -7 -86 -9 -84 -2 2 -10 48 -19 103 -8 54 -24 131 -35 169 -23 78
-39 237 -23 220 6 -5 20 -53 32 -105z m-1128 17 c-13 -13 -15 31 -3 60 5 14 8
10 10 -16 2 -18 -1 -38 -7 -44z m958 -22 c-1 -95 -14 -127 -22 -55 -9 71 -9
135 0 143 14 15 23 -20 22 -88z m-1091 66 c3 -8 -1 -12 -9 -9 -7 2 -15 10 -17
17 -3 8 1 12 9 9 7 -2 15 -10 17 -17z m574 -71 c-2 -16 -8 -30 -13 -30 -12 0
-11 17 1 41 15 26 17 24 12 -11z m814 -35 c18 -49 16 -157 -4 -177 -18 -18
-28 23 -37 142 -6 93 -5 103 9 91 8 -7 22 -32 32 -56z m-746 5 c8 -31 7 -47
-4 -75 -8 -19 -17 -35 -20 -35 -4 0 -6 34 -6 75 0 82 13 98 30 35z m146 -55
c-5 -52 -13 -95 -18 -95 -13 0 -10 164 4 178 7 7 15 12 18 12 3 0 1 -43 -4
-95z m-740 48 c5 -17 1 -44 -10 -73 -10 -25 -20 -57 -23 -72 -3 -16 -10 -28
-16 -28 -6 0 -8 26 -4 73 8 111 37 165 53 100z m-123 -30 c3 -27 8 -55 12 -63
3 -9 -1 -24 -9 -35 -12 -17 -17 -18 -41 -7 -23 11 -26 17 -21 40 11 46 38 112
46 112 4 0 10 -21 13 -47z m337 14 c0 -20 -36 -54 -46 -44 -3 3 3 21 12 40 18
38 34 40 34 4z m61 23 c15 -9 19 -22 19 -64 0 -48 -2 -54 -19 -49 -16 4 -20
16 -23 64 -1 32 -2 59 0 59 2 0 12 -5 23 -10z m-191 -62 c0 -36 -25 -18 -27
20 -2 34 -1 36 13 18 8 -11 14 -28 14 -38z m908 -118 c-2 -19 -7 -35 -12 -35
-11 0 -20 172 -10 194 9 19 26 -107 22 -159z m1125 98 c17 -123 19 -158 9
-158 -15 0 -19 21 -27 118 -5 52 -3 82 3 82 5 0 12 -19 15 -42z m-1613 -84 c0
-52 -54 -179 -65 -151 -11 26 2 143 22 202 l16 50 13 -30 c7 -16 13 -49 14
-71z m-1300 40 c0 -11 14 -33 30 -49 17 -16 30 -34 30 -40 0 -5 11 -27 25 -47
l24 -36 -39 -26 c-49 -32 -78 -33 -89 -3 -7 17 -7 172 -1 247 1 14 20 -28 20
-46z m328 24 c-2 -6 -10 -14 -16 -16 -7 -2 -10 2 -6 12 7 18 28 22 22 4z m112
-18 c0 -57 -57 -149 -75 -121 -3 6 -17 11 -29 11 -32 0 -53 26 -40 48 10 16
121 90 137 91 4 1 7 -13 7 -29z m576 -134 c-7 -12 -11 -35 -8 -54 5 -36 -12
-44 -22 -9 -3 12 -9 56 -12 97 -6 69 -4 77 17 105 l24 30 7 -75 c6 -55 4 -79
-6 -94z m971 56 c41 -197 40 -251 -3 -252 -16 0 -48 247 -39 309 4 28 10 51
13 51 4 0 17 -48 29 -108z m-276 -252 c-18 -52 -34 268 -17 325 8 23 12 -9 18
-135 4 -91 4 -176 -1 -190z m1299 234 c0 -12 -6 -27 -14 -34 -16 -12 -19 -1
-30 105 l-5 50 24 -50 c14 -27 25 -60 25 -71z m-1529 25 c10 -40 19 -82 19
-93 -1 -20 -1 -20 -11 -2 -22 37 -51 191 -33 173 3 -3 14 -38 25 -78z m-305
29 c-9 -45 -22 -55 -36 -28 -9 18 -8 25 6 41 26 28 37 23 30 -13z m1644 19 c0
-18 -21 -37 -41 -37 -20 0 -29 -20 -29 -66 0 -37 13 -44 29 -16 9 16 10 16 16
0 4 -9 1 -26 -5 -38 -7 -14 -9 -39 -5 -67 10 -68 -29 -98 -70 -53 -18 20 -18
24 8 128 15 59 27 117 27 130 0 18 4 22 19 17 11 -3 22 -1 26 5 9 14 25 13 25
-3z m-1988 -29 c3 -54 -3 -102 -14 -115 -5 -7 -7 -21 -3 -32 3 -12 3 -26 -1
-32 -12 -21 -24 14 -24 75 0 95 37 188 42 104z m584 -5 c3 -16 18 -80 34 -143
28 -113 43 -210 55 -375 5 -72 4 -83 -14 -99 -15 -14 -24 -15 -40 -7 -44 24
-54 66 -61 251 -4 96 -13 211 -20 255 -11 72 -11 84 4 113 20 39 34 41 42 5z
m825 -30 c7 -21 13 -73 14 -116 2 -74 0 -80 -22 -90 -13 -5 -26 -8 -29 -4 -9
8 7 247 17 247 4 0 13 -17 20 -37z m119 -11 c0 -20 9 -66 20 -101 10 -35 17
-68 14 -72 -2 -4 0 -10 6 -14 13 -8 13 -45 0 -45 -6 0 -22 11 -36 25 -24 24
-24 28 -18 113 4 58 3 96 -4 109 -12 21 -6 37 9 27 5 -3 9 -22 9 -42z m-1724
2 c13 -14 24 -32 24 -40 0 -20 -27 -29 -44 -15 -11 10 -17 8 -24 -6 -16 -27
-21 -13 -15 40 6 55 23 61 59 21z m-155 -31 c-9 -16 -10 -16 -11 -1 0 9 3 25
7 35 7 16 8 17 11 1 2 -10 -1 -25 -7 -35z m439 25 c0 -19 -2 -20 -10 -8 -13
19 -13 30 0 30 6 0 10 -10 10 -22z m736 -162 c6 -85 4 -108 -5 -105 -9 3 -13
45 -16 149 -3 164 10 137 21 -44z m261 4 c3 -47 10 -93 15 -103 12 -23 1 -42
-17 -27 -20 16 -49 239 -37 284 10 35 33 -58 39 -154z m-803 42 c25 -127 26
-137 14 -153 -7 -10 -8 -5 -5 16 3 16 0 41 -7 55 -56 113 -55 108 -43 145 6
19 13 35 16 35 3 0 15 -44 25 -98z m1436 67 c0 -10 -4 -19 -10 -19 -5 0 -10
12 -10 26 0 14 4 23 10 19 6 -3 10 -15 10 -26z m69 -80 c1 -40 -4 -72 -12 -84
-20 -26 -26 -7 -16 50 4 28 9 73 9 100 3 73 18 20 19 -66z m-2464 90 c12 -19
-5 -23 -22 -6 -16 16 -16 17 -1 17 9 0 20 -5 23 -11z m173 -11 c15 -15 -3 -38
-29 -38 -14 0 -19 7 -19 25 0 27 26 35 48 13z m82 -27 c-6 -12 -17 -21 -25
-21 -19 0 -19 -10 2 -39 15 -22 15 -25 -1 -37 -10 -7 -16 -21 -15 -31 2 -10 0
-24 -4 -31 -5 -7 -11 -25 -13 -39 -7 -35 -10 -38 -29 -23 -9 8 -13 21 -9 36 5
21 3 24 -20 24 -25 0 -26 2 -26 56 0 41 3 55 13 51 6 -3 20 -8 29 -12 12 -5
20 -1 25 11 7 19 75 85 81 79 2 -2 -1 -13 -8 -24z m1697 7 c-3 -8 -6 -5 -6 6
-1 11 2 17 5 13 3 -3 4 -12 1 -19z m1036 -3 c28 -20 37 -32 37 -55 l0 -29 -50
31 c-37 23 -50 37 -50 54 0 31 16 30 63 -1z m-2682 -28 c-13 -13 -15 1 -4 30
7 17 8 17 11 -1 2 -10 -1 -23 -7 -29z m2413 27 c3 -9 6 -36 6 -61 0 -40 -2
-44 -16 -33 -26 22 -36 50 -29 81 7 31 29 39 39 13z m-1074 -34 c0 -32 -14
-40 -24 -14 -5 14 8 44 20 44 2 0 4 -13 4 -30z m2158 -97 l5 -63 -67 0 -66 0
19 38 c11 21 27 44 35 51 9 8 16 22 16 32 0 10 5 30 11 46 l11 28 15 -35 c9
-19 18 -63 21 -97z m-940 100 c25 -23 38 -103 15 -103 -43 0 -73 52 -58 100 8
25 17 25 43 3z m-2378 -10 c0 -10 -50 -73 -58 -73 -4 0 -7 16 -7 35 0 35 8 44
20 25 9 -15 25 -12 25 5 0 8 5 15 10 15 6 0 10 -3 10 -7z m-500 -33 c13 -9 13
-11 0 -20 -31 -20 -69 -8 -49 17 13 15 28 16 49 3z m1148 -147 c-6 -7 -17 -13
-25 -13 -11 0 -13 10 -8 48 4 26 12 63 18 82 11 35 11 35 19 -35 4 -45 3 -74
-4 -82z m1896 54 c3 -17 8 -92 13 -165 8 -125 3 -164 -12 -105 -3 14 -24 51
-45 81 -32 44 -37 58 -29 74 5 10 7 28 4 38 -4 14 -2 20 9 20 8 0 20 9 26 20
10 18 7 21 -19 26 -31 6 -41 25 -41 77 l0 28 45 -31 c33 -23 45 -38 49 -63z
m-2410 38 c7 -27 1 -45 -15 -45 -5 0 -9 16 -9 35 0 41 15 47 24 10z m296 -13
c0 -7 -4 -10 -10 -7 -5 3 -10 16 -10 28 0 18 2 19 10 7 5 -8 10 -21 10 -28z
m132 -14 c-4 -49 -22 -58 -22 -12 0 23 18 70 24 62 1 -1 1 -24 -2 -50z m873
43 c3 -5 1 -12 -5 -16 -5 -3 -10 1 -10 9 0 18 6 21 15 7z m57 -78 c-2 -46 -9
-83 -15 -83 -11 0 -4 141 8 160 12 19 13 8 7 -77z m-2022 -54 c0 -32 -22 -89
-34 -89 -7 0 -24 9 -38 20 -21 16 -26 30 -31 93 -4 41 -9 81 -13 91 -3 9 21
-10 55 -42 34 -32 61 -65 61 -73z m2430 91 c0 -20 -57 -53 -66 -38 -4 6 2 18
13 27 11 9 23 25 27 36 6 16 9 17 16 5 6 -8 10 -22 10 -30z m-2444 8 c21 -12
32 -24 26 -26 -7 -2 -26 8 -43 22 -37 32 -32 33 17 4z m350 -14 c-5 -13 -10
-14 -18 -6 -6 6 -8 18 -4 28 5 13 10 14 18 6 6 -6 8 -18 4 -28z m381 14 c-3
-8 -6 -5 -6 6 -1 11 2 17 5 13 3 -3 4 -12 1 -19z m1020 -35 c6 -44 -14 -98
-26 -72 -4 8 -5 40 -3 73 4 65 20 64 29 -1z m993 -25 l-20 -33 0 51 c0 60 9
74 27 40 11 -22 11 -29 -7 -58z m-2204 7 c-16 -40 -42 -74 -50 -64 -2 2 10 33
27 69 32 70 50 66 23 -5z m961 13 c-2 -13 -4 -5 -4 17 -1 22 1 32 4 23 2 -10
2 -28 0 -40z m-1074 7 c-3 -9 0 -21 6 -29 9 -10 7 -25 -6 -61 -10 -26 -22 -47
-28 -46 -17 1 -17 48 0 65 9 9 16 28 15 44 -3 42 -1 54 10 47 5 -3 7 -12 3
-20z m1026 -42 c1 -7 -3 -13 -9 -13 -5 0 -10 17 -9 38 1 33 2 34 9 12 4 -14 8
-31 9 -37z m1161 53 c0 -3 -4 -8 -10 -11 -5 -3 -10 -1 -10 4 0 6 5 11 10 11 6
0 10 -2 10 -4z m-685 -26 c-3 -5 -13 -10 -21 -10 -8 0 -12 5 -9 10 3 6 13 10
21 10 8 0 12 -4 9 -10z m613 -31 c-1 -13 -7 -23 -13 -22 -13 3 -18 30 -11 50
10 24 29 1 24 -28z m-2424 13 c-1 -7 -2 -21 -2 -32 -3 -35 -22 -21 -22 16 0
24 4 34 13 32 6 -3 12 -10 11 -16z m2032 -28 c4 -30 3 -49 -5 -57 -17 -17 -31
9 -31 61 0 60 26 58 36 -4z m-1339 4 c-3 -7 -5 -2 -5 12 0 14 2 19 5 13 2 -7
2 -19 0 -25z m192 6 c11 -14 23 -34 26 -44 7 -21 -19 -90 -34 -90 -11 0 -26
39 -22 58 1 7 -7 24 -18 38 -17 21 -18 29 -8 45 16 26 32 24 56 -7z m1965 10
c9 -24 7 -28 -9 -14 -17 14 -20 30 -6 30 5 0 12 -7 15 -16z m-2648 -29 c0 -34
-9 -45 -21 -25 -7 11 4 60 14 60 3 0 6 -16 7 -35z m2574 10 c0 -8 9 -23 20
-33 17 -16 19 -24 10 -46 -8 -23 -12 -25 -30 -14 -29 19 -43 59 -30 92 10 27
30 28 30 1z m976 -20 c-14 -11 -24 -12 -39 -3 -20 10 -20 11 4 29 21 16 26 16
39 3 13 -14 13 -17 -4 -29z m-3156 26 c0 -6 -4 -13 -10 -16 -5 -3 -10 1 -10 9
0 9 5 16 10 16 6 0 10 -4 10 -9z m1730 1 c0 -5 -6 -16 -13 -26 -10 -14 -18
-16 -31 -9 -17 9 -17 11 -1 26 17 18 45 23 45 9z m240 -53 c0 -29 -36 -60 -49
-42 -3 5 -14 12 -24 16 -15 6 -16 10 -5 29 7 13 19 31 27 41 13 16 15 16 33 1
10 -10 18 -30 18 -45z m-2488 39 c14 -12 13 -16 -15 -38 l-30 -24 6 24 c4 14
7 31 7 38 0 6 4 12 8 12 5 0 15 -6 24 -12z m1368 -13 c0 -13 -6 -42 -14 -62
-8 -21 -19 -54 -25 -73 l-11 -35 7 40 c5 37 9 77 12 133 1 31 31 29 31 -3z
m710 10 c7 -9 11 -18 8 -20 -9 -10 -38 7 -38 21 0 18 14 18 30 -1z m-340 -30
c0 -19 -4 -35 -10 -35 -12 0 -24 45 -15 59 13 22 25 10 25 -24z m-1304 -2 c-2
-16 -8 -46 -11 -68 -4 -22 -13 -47 -20 -55 -7 -8 -15 -31 -17 -50 -2 -24 -9
-36 -21 -38 -17 -3 -18 1 -12 55 4 32 14 63 22 70 8 6 12 16 8 22 -3 6 1 21 9
33 9 12 16 30 16 40 0 10 7 18 16 18 12 0 14 -7 10 -27z m274 1 c0 -8 -4 -12
-10 -9 -5 3 -10 13 -10 21 0 8 5 12 10 9 6 -3 10 -13 10 -21z m320 -20 c0 -8
-4 -14 -10 -14 -12 0 -31 35 -23 44 9 8 33 -14 33 -30z m1270 15 c0 -5 -7 -9
-15 -9 -15 0 -20 12 -9 23 8 8 24 -1 24 -14z m302 -21 c-15 -15 -26 -4 -18 18
5 13 9 15 18 6 9 -9 9 -15 0 -24z m-2262 15 c-1 -18 -19 -35 -29 -28 -9 5 -9
10 0 21 12 15 29 19 29 7z m-300 -17 c0 -56 -53 -196 -74 -196 -7 0 -11 27
-11 71 0 68 1 71 35 99 32 27 50 36 50 26z m488 -8 c19 -19 14 -61 -12 -93
-20 -25 -26 -28 -40 -16 -21 18 -20 34 4 81 22 43 29 47 48 28z m904 -5 c2
-10 2 -61 -1 -113 -6 -89 -7 -94 -30 -100 -29 -7 -39 -28 -17 -36 12 -5 13
-10 5 -27 -9 -16 -8 -23 2 -31 16 -13 23 -91 10 -114 -13 -23 -31 45 -37 143
-5 64 -2 93 15 144 12 35 21 76 21 91 0 52 23 81 32 43z m782 -5 c-23 -76 -61
-107 -50 -40 3 20 6 43 6 50 0 6 12 12 26 12 22 0 24 -3 18 -22z m-2114 -34
c0 -13 -4 -24 -10 -24 -5 0 -10 14 -10 31 0 17 4 28 10 24 6 -3 10 -17 10 -31z
m1474 20 c20 -20 20 -34 1 -34 -8 0 -15 -9 -15 -19 0 -18 -17 -38 -25 -30 -1
2 -6 23 -10 46 -5 35 -4 42 12 46 10 3 19 5 20 6 1 0 9 -6 17 -15z m72 -21
c-11 -11 -19 6 -11 24 8 17 8 17 12 0 3 -10 2 -21 -1 -24z m-635 -2 c20 -16
21 -21 10 -35 -7 -9 -19 -16 -26 -16 -11 0 -35 41 -35 60 0 16 26 11 51 -9z
m1688 -20 c8 -14 5 -23 -10 -40 -12 -12 -24 -19 -27 -16 -4 4 1 13 12 20 19
15 14 35 -10 35 -8 0 -14 9 -14 20 0 18 3 19 20 10 11 -6 24 -19 29 -29z
m-2396 15 c6 -15 -1 -26 -15 -26 -4 0 -8 9 -8 20 0 23 15 27 23 6z m437 -1
c10 -12 10 -15 -4 -15 -9 0 -16 7 -16 15 0 8 2 15 4 15 2 0 9 -7 16 -15z
m1366 -22 c-11 -11 -19 6 -11 24 8 17 8 17 12 0 3 -10 2 -21 -1 -24z m214 -9
c0 -19 -4 -34 -10 -34 -5 0 -19 -9 -30 -20 l-20 -20 0 24 c0 27 41 96 53 89 4
-2 7 -20 7 -39z m-3017 -8 c-3 -13 8 -48 26 -84 40 -79 23 -90 -47 -30 -37 31
-38 42 -15 109 12 34 21 45 29 38 6 -5 9 -20 7 -33z m3266 -22 c-17 -50 -16
-49 -34 -34 -11 9 -12 16 -4 26 6 7 9 21 7 31 -1 10 1 24 6 31 7 12 11 11 23
-1 13 -13 13 -20 2 -53z m-2794 40 c34 -22 31 -29 -10 -30 -26 0 -35 4 -35 16
0 15 8 30 17 30 2 0 15 -7 28 -16z m860 6 c3 -5 2 -17 -3 -26 -8 -14 -10 -12
-14 10 -5 26 5 35 17 16z m1090 -10 c-3 -5 -10 -10 -16 -10 -5 0 -9 5 -9 10 0
6 7 10 16 10 8 0 12 -4 9 -10z m-1535 -36 c0 -5 -6 -19 -14 -29 -12 -16 -13
-14 -10 21 1 21 3 41 4 44 1 9 20 -24 20 -36z m735 16 c3 -5 1 -10 -4 -10 -6
0 -11 5 -11 10 0 6 2 10 4 10 3 0 8 -4 11 -10z m-845 -12 c0 -7 3 -23 6 -35 5
-17 2 -23 -10 -23 -12 0 -16 9 -16 35 0 19 5 35 10 35 6 0 10 -6 10 -12z
m2365 -8 c3 -11 12 -20 19 -20 22 0 37 -45 22 -66 -7 -9 -11 -25 -9 -33 2 -9
-3 -30 -11 -46 l-16 -30 -1 45 c-1 45 -1 50 8 81 2 9 -7 29 -21 46 -14 17 -23
33 -19 37 12 11 22 6 28 -14z m-1575 -14 c0 -35 -14 -39 -40 -12 l-22 24 24 5
c12 2 26 5 31 6 4 0 7 -10 7 -23z m1010 -21 c0 -12 -20 -35 -31 -35 -10 0 -21
49 -14 60 7 12 45 -10 45 -25z m-1592 8 c-5 -25 -28 -28 -28 -4 0 12 6 21 16
21 9 0 14 -7 12 -17z m2568 -20 c-4 -4 -11 -1 -16 7 -16 25 -11 35 7 17 9 -9
13 -20 9 -24z m-3066 -18 c0 -6 -6 -20 -14 -30 -12 -17 -13 -16 -13 11 0 16
-3 38 -8 49 -8 20 -8 20 13 1 12 -11 22 -24 22 -31z m1020 -69 c0 -14 -2 -26
-3 -26 -2 0 -22 18 -45 40 -33 31 -42 46 -42 72 l0 33 45 -47 c29 -30 45 -56
45 -72z m790 99 c0 -8 -2 -15 -4 -15 -2 0 -6 7 -10 15 -3 8 -1 15 4 15 6 0 10
-7 10 -15z m110 2 c0 -7 -7 -22 -15 -33 -13 -17 -14 -16 -4 14 11 33 19 41 19
19z m452 -12 c-5 -28 -22 -44 -22 -21 0 21 11 46 20 46 4 0 5 -11 2 -25z
m-1652 -15 c0 -13 -53 -31 -63 -21 -19 19 0 38 32 33 17 -2 31 -8 31 -12z
m-650 -47 c0 -41 -3 -54 -10 -43 -17 26 -12 100 7 100 2 0 3 -26 3 -57z m2449
27 c-25 -33 -19 -51 11 -32 17 11 20 10 20 -8 0 -27 -24 -35 -60 -20 l-29 12
31 39 c37 45 59 53 27 9z m-2093 -16 c-9 -13 -16 -35 -16 -49 0 -26 -14 -34
-22 -12 -7 18 31 99 43 91 6 -4 4 -15 -5 -30z m114 4 c0 -5 -4 -8 -10 -8 -5 0
-10 10 -10 23 0 18 2 19 10 7 5 -8 10 -18 10 -22z m1762 0 c-9 -9 -12 -7 -12
12 0 19 3 21 12 12 9 -9 9 -15 0 -24z m-306 -26 c-12 -11 -18 7 -10 30 l8 23
4 -23 c2 -13 1 -26 -2 -30z m854 -6 c18 -77 8 -89 -22 -26 -26 54 -27 80 -4
80 7 0 19 -24 26 -54z m-3327 -64 c50 -64 58 -85 30 -75 -36 12 -64 47 -58 70
4 18 -2 27 -36 48 -34 22 -39 29 -28 41 14 17 6 25 92 -84z m747 55 c0 -34
-15 -66 -25 -55 -10 9 6 99 16 92 5 -3 9 -20 9 -37z m1493 28 c22 21 32 19 45
-10 13 -28 0 -42 -18 -20 -14 17 -40 20 -40 4 0 -6 -7 -3 -16 5 -8 9 -20 16
-25 16 -5 0 -9 5 -9 10 0 6 11 3 24 -5 21 -14 25 -14 39 0z m-1569 -44 c-4
-22 -11 -41 -16 -41 -14 0 -23 33 -10 38 7 2 12 12 12 21 0 18 10 34 17 27 2
-2 1 -22 -3 -45z m1014 13 c-10 -10 -28 6 -28 24 0 15 1 15 17 -1 9 -9 14 -19
11 -23z m1048 -81 c-11 -28 -26 -11 -26 31 0 71 13 89 23 32 4 -27 6 -55 3
-63z m-1794 45 c-2 -27 -8 -48 -14 -48 -9 0 -5 34 9 83 8 29 10 16 5 -35z
m258 38 c0 -8 -4 -17 -9 -21 -12 -7 -24 12 -16 25 9 15 25 12 25 -4z m416 2
c5 -7 9 -36 11 -64 2 -40 -1 -55 -16 -68 -17 -15 -19 -15 -25 -1 -3 9 -1 25 4
35 5 10 7 39 4 64 -7 45 5 62 22 34z m281 -2 c2 -2 6 -24 9 -49 5 -38 4 -47
-8 -47 -9 0 -27 -9 -41 -20 -14 -11 -28 -20 -31 -20 -2 0 2 23 10 51 14 46 14
53 0 68 -25 27 -19 34 22 26 20 -4 38 -8 39 -9z m1300 -106 c-32 -57 -36 -61
-46 -42 -8 16 -7 21 5 26 10 4 14 14 11 26 -4 14 0 20 13 20 13 0 21 13 31 48
12 45 13 46 17 16 2 -22 -7 -51 -31 -94z m-1917 100 c0 -5 -5 -10 -11 -10 -5
0 -7 5 -4 10 3 6 8 10 11 10 2 0 4 -4 4 -10z m1262 -5 c0 -5 -5 -11 -11 -13
-6 -2 -11 4 -11 13 0 9 5 15 11 13 6 -2 11 -8 11 -13z m-1172 -15 c0 -5 -4
-10 -10 -10 -5 0 -10 5 -10 10 0 6 5 10 10 10 6 0 10 -4 10 -10z m-368 -12 c6
-17 -1 -38 -13 -38 -5 0 -9 11 -9 25 0 26 14 34 22 13z m-205 -26 c-10 -10
-17 -25 -18 -33 0 -9 -2 -10 -5 -2 -6 13 26 67 34 58 3 -3 -2 -13 -11 -23z
m-887 11 c0 -5 18 -32 40 -61 22 -29 40 -55 40 -58 0 -16 -64 47 -78 76 -9 19
-18 38 -20 43 -2 4 1 7 7 7 6 0 11 -3 11 -7z m1252 -61 c2 -35 -1 -52 -9 -52
-6 0 -15 9 -18 20 -7 23 -25 26 -44 8 -11 -11 -13 -10 -9 2 3 8 18 17 34 20
26 5 29 9 26 40 -2 22 1 31 7 25 5 -6 11 -34 13 -63z m1208 58 c0 -5 -5 -10
-11 -10 -5 0 -7 5 -4 10 3 6 8 10 11 10 2 0 4 -4 4 -10z m654 -5 c-4 -8 -13
-15 -21 -15 -13 0 -13 3 -3 15 7 8 16 15 21 15 5 0 6 -7 3 -15z m-1744 -10 c0
-9 -11 -26 -25 -39 -14 -13 -25 -28 -25 -35 0 -6 -5 -11 -11 -11 -8 0 -9 11
-5 33 9 46 66 91 66 52z m2014 -9 c17 -27 12 -56 -10 -56 -8 0 -14 10 -14 24
0 13 -3 31 -6 40 -10 25 12 19 30 -8z m-984 4 c0 -5 -5 -10 -11 -10 -5 0 -7 5
-4 10 3 6 8 10 11 10 2 0 4 -4 4 -10z m318 -7 c-5 -25 -28 -28 -28 -4 0 12 6
21 16 21 9 0 14 -7 12 -17z m-1246 -59 c15 -50 15 -61 3 -73 -14 -15 -45 -9
-45 9 0 5 6 10 14 10 11 0 14 11 11 47 -2 26 -9 49 -15 51 -5 2 -10 8 -10 14
0 5 5 8 12 6 7 -3 20 -31 30 -64z m1032 22 c-5 -23 -27 -34 -25 -13 2 30 15
57 23 49 5 -5 6 -21 2 -36z m-394 30 c0 -3 -4 -8 -10 -11 -5 -3 -10 -1 -10 4
0 6 5 11 10 11 6 0 10 -2 10 -4z m1100 -27 c0 -12 -27 -11 -35 1 -11 17 5 32
21 19 8 -6 14 -15 14 -20z m-2460 -3 c0 -14 -5 -28 -11 -31 -15 -10 -18 -4
-12 28 7 34 23 36 23 3z m-60 5 c0 -6 -4 -13 -10 -16 -5 -3 -10 1 -10 9 0 9 5
16 10 16 6 0 10 -4 10 -9z m2428 -86 c2 -52 1 -95 -3 -95 -3 0 -17 7 -30 16
-27 18 -34 54 -10 54 16 0 38 34 28 44 -3 3 -18 6 -32 6 l-25 0 34 35 c19 19
34 35 34 35 1 0 2 -43 4 -95z m-2168 55 c0 -11 -7 -20 -15 -20 -18 0 -19 12
-3 28 16 16 18 15 18 -8z m1390 11 c0 -5 -7 -11 -15 -15 -15 -5 -20 5 -8 17 9
10 23 9 23 -2z m230 -37 c0 -13 -4 -24 -9 -24 -11 0 -21 25 -21 52 0 17 3 18
15 8 8 -7 15 -23 15 -36z m-1937 -1 c-3 -32 9 -47 37 -48 8 0 15 -6 14 -12 -1
-7 -2 -23 -2 -35 -2 -20 -3 -20 -21 -4 -10 9 -25 14 -35 10 -15 -6 -17 0 -15
42 1 27 -2 57 -6 68 -6 14 -4 17 11 14 15 -3 18 -11 17 -35z m1777 0 c0 -20
-3 -24 -11 -16 -7 7 -9 19 -6 27 10 24 17 19 17 -11z m-1228 -35 c-8 -31 -22
-20 -22 19 0 34 1 35 14 18 7 -10 11 -27 8 -37z m582 30 c-14 -48 -23 -54 -24
-15 0 27 4 37 16 37 11 0 14 -6 8 -22z m198 10 c-7 -7 -12 -22 -12 -35 0 -26
-18 -31 -27 -8 -6 16 23 55 41 55 6 0 5 -5 -2 -12z m-1102 -23 c0 -8 -5 -26
-10 -41 -8 -21 -14 -24 -22 -16 -9 9 -9 15 0 24 7 7 12 23 12 36 0 13 4 20 10
17 6 -3 10 -12 10 -20z m2343 2 c7 -19 -8 -41 -22 -33 -16 10 -14 46 3 46 8 0
16 -6 19 -13z m77 -62 c0 -24 -5 -35 -15 -35 -15 0 -20 26 -9 54 11 28 24 17
24 -19z m-2337 -17 c-7 -52 -9 -54 -26 -39 -12 10 -12 16 1 46 22 47 31 44 25
-7z m136 16 c3 -16 1 -17 -13 -5 -19 16 -21 34 -3 29 6 -3 14 -13 16 -24z
m1426 -13 c6 -27 -10 -79 -21 -68 -4 4 -8 71 -5 90 3 19 20 4 26 -22z m-575
-12 c0 -6 -4 -7 -10 -4 -5 3 -10 11 -10 16 0 6 5 7 10 4 6 -3 10 -11 10 -16z
m-1200 -34 c0 -23 -5 -35 -14 -35 -13 0 -13 15 0 58 7 23 14 12 14 -23z m738
8 c-2 -14 -8 -28 -14 -30 -7 -2 -9 8 -6 27 5 37 25 40 20 3z m1752 0 c0 -10
-4 -24 -9 -32 -7 -11 -10 -9 -16 8 -7 22 0 41 16 41 5 0 9 -8 9 -17z m-2205
-34 c0 -24 -5 -34 -15 -34 -16 0 -25 37 -16 62 10 26 31 8 31 -28z m-355 -16
c0 -15 -42 -83 -51 -83 -9 0 0 51 14 79 9 19 9 25 -1 28 -6 3 -9 9 -6 15 8 12
44 -20 44 -39z m1296 27 c25 -10 26 -12 12 -27 -20 -20 -48 -10 -48 17 0 23 0
23 36 10z m-463 -71 c-40 -41 -41 -41 -48 -18 -5 15 -3 25 4 27 7 2 24 15 39
27 45 40 49 10 5 -36z m-676 26 c-4 -8 -11 -15 -17 -15 -7 0 -7 6 0 21 13 23
26 19 17 -6z m824 -35 c28 -16 23 -30 -11 -30 -23 0 -30 4 -30 20 0 22 12 25
41 10z m859 -26 c0 -8 -5 -12 -10 -9 -6 4 -8 11 -5 16 9 14 15 11 15 -7z
m-1707 -34 c-3 -11 -9 -18 -13 -15 -5 3 -6 14 -3 25 3 11 9 18 13 15 5 -3 6
-14 3 -25z"/>
</g>
</svg>
