<?xml version="1.0" encoding="UTF-8" standalone="no"?>
<svg
   width="847.85834"
   height="280.32703"
   viewBox="0 0 847.85834 280.32703"
   version="1.1"
   id="svg4"
   xmlns="http://www.w3.org/2000/svg"
   xmlns:svg="http://www.w3.org/2000/svg">
  <defs
     id="defs8" />
  <path
     d="m 335.116,4.8786819 c -4.061,2.723 -7.602,4.95 -7.868,4.95 -0.266,0 -2.022,1.3500001 -3.901,3.0000001 -1.879,1.65 -3.805,3 -4.279,3 -0.825,0 -21.667,24.485 -31.042,36.468 -10.231,13.077 -16.853,15.672 -47.526,18.621 -6.6,0.635 -13.995,1.797 -16.432,2.583 -2.438,0.785 -9.188,2.086 -15,2.89 -5.813,0.805 -11.88,1.91 -13.483,2.456 -1.603,0.546 -7.453,1.713 -13,2.594 -5.547,0.88 -11.251,2.203 -12.677,2.938 -1.426,0.736 -6.151,2 -10.5,2.81 -4.349,0.81 -9.708,2.165 -11.908,3.012 -2.2,0.847 -5.125,1.569 -6.5,1.605 -1.375,0.036 -5.65,1.216 -9.5,2.624 -3.85,1.407 -8.8,2.976 -11,3.486 -2.2,0.511 -6.025,1.807 -8.5,2.879998 -12.194,5.286 -19.432,7.523 -29.5,9.116 -10.557,1.672 -23.697,5.553 -27.97,8.262 -1.116,0.708 -4.73,1.84 -8.03,2.515 -3.3,0.675 -8.025,2.058 -10.5,3.074 -2.475,1.015 -6.975,2.377 -10,3.026 -3.025,0.648 -6.4,1.566 -7.5,2.038 -1.1,0.473 -4.376,1.607 -7.281,2.521 -5.555,1.749 -11.219,5.764 -11.219,7.954 0,2.895 7.714,8.32 13.648,9.599 3.219,0.693 7.427,2.034 9.352,2.981 6.742,3.314 19.552,7.868 25.233,8.97 3.152,0.611 5.992,1.531 6.309,2.044 0.317,0.513 3.699,0.933 7.517,0.933 H 69 v 3.481 c 0,3.901 -0.491,3.677 12,5.494 17.405,2.532 20.915,3.075 29,4.484 4.675,0.814 11.2,1.928 14.5,2.475 3.3,0.546 9.15,1.705 13,2.575 4.625,1.045 9.078,1.375 13.124,0.971 4.446,-0.445 7.151,-0.183 9.872,0.954 2.2,0.919 6.693,1.57 10.876,1.577 7.559,0.011 12.706,1.268 21.628,5.281 6.2,2.789 8.427,4.93 9.405,9.038 0.37,1.557 2.033,5.832 3.695,9.5 1.661,3.669 4.006,8.879 5.211,11.579 1.204,2.7 3.652,7.769 5.439,11.264 1.787,3.496 3.25,6.865 3.25,7.488 0,0.623 1.645,3.61 3.655,6.638 2.01,3.028 5.179,8.475 7.042,12.103 6.449,12.562 7.355,13.691 15.115,18.846 3.504,2.328 5.648,3.192 6.301,2.539 0.553,-0.553 1.229,-10.221 1.532,-21.888 0.486,-18.698 0.796,-21.616 2.949,-27.709 1.473,-4.17 2.406,-9.039 2.406,-12.563 0,-5.116 0.34,-6.078 3.069,-8.69 2.792,-2.672 3.583,-2.904 8.75,-2.57 3.125,0.202 7.706,0.369 10.181,0.37 7.472,0.003 53.21,-4.1 57.5,-5.158 2.2,-0.543 8.725,-1.717 14.5,-2.61 5.775,-0.892 12.03,-2.288 13.9,-3.101 1.87,-0.813 8.17,-2.172 14,-3.019 5.83,-0.847 11.028,-1.947 11.55,-2.444 0.523,-0.498 3.643,-0.905 6.934,-0.905 5.461,0 11.222,1.755 16.616,5.061 0.825,0.506 4.862,2.566 8.971,4.579 l 7.47,3.661 3.53,-2.041 c 2.053,-1.187 5.621,-5.141 8.529,-9.451 2.75,-4.075 6.662,-9.412 8.694,-11.859 l 3.695,-4.45 12.305,-0.667 c 6.768,-0.366 17.256,-0.975 23.306,-1.353 8.068,-0.505 13.292,-0.281 19.599,0.84 9.844,1.748 12.894,3.032 21.811,9.184 6.78,4.676 12.404,6.223 18.482,5.082 3.425,-0.642 5.187,-3.013 7.122,-9.586 0.912,-3.098 12.627,-13 15.38,-13 0.443,0 2.633,-1.323 4.865,-2.94 3.5,-2.536 5.278,-3.031 12.9,-3.596 4.863,-0.36 10.604,-1.1 12.76,-1.643 2.155,-0.544 8.899,-1.358 14.987,-1.808 8.63,-0.639 11.645,-0.521 13.685,0.534 3.167,1.638 12.407,11.581 14.472,15.574 0.818,1.583 1.867,2.879 2.33,2.879 0.463,0 1.969,1.688 3.347,3.75 4.421,6.617 14.889,17.271 20.489,20.854 6.717,4.296 21.025,9.647 23.906,8.94 2.098,-0.515 2.513,-1.576 4.02,-10.275 0.31,-1.792 -0.135,-5.355 -0.999,-8 -2.24,-6.855 -4.662,-18.249 -4.659,-21.915 0.005,-5.204 7.164,-10.164 36.503,-25.29 5.395,-2.782 7.256,-3.924 18.085,-11.103 3.897,-2.584 8.729,-5.239 10.737,-5.902 2.007,-0.663 3.887,-1.588 4.176,-2.055 0.289,-0.468 2.883,-1.628 5.764,-2.577 5.489,-1.808 15.333,-6.962 16.306,-8.538 0.313,-0.505 2.225,-1.596 4.25,-2.423 2.025,-0.828 4.632,-2.662 5.793,-4.077 l 2.11,-2.572 4.275,2.342 c 2.351,1.287 5.227,2.897 6.39,3.576 2.367,1.383 5.601,1.61 7.117,0.5 1.573,-1.153 6.497,-8.716 6.497,-9.98 0,-0.624998 3.081,-3.670998 6.846,-6.768998 5.311,-4.369 7.338,-6.818 9.038,-10.921 1.206,-2.908 3.3,-6.329 4.654,-7.601 3.056,-2.87 3.081,-4.034 0.148,-6.79 -1.932,-1.814 -3.463,-2.166 -9.25,-2.123 -11.408,0.085 -21.199,1.826 -50.436,8.968 -14.019,3.425 -25.093,5.819 -32.5,7.028 -3.85,0.628 -9.25,1.939 -12,2.913 -2.75,0.975 -7.925,2.087 -11.5,2.472 -3.575,0.385 -7.447,1.312 -8.604,2.061 -1.157,0.749 -3.857,1.656 -6,2.016 -5.292,0.889 -14.452,3.351 -16.896,4.542 -1.1,0.536 -4.925,1.847 -8.5,2.913 -10.192,3.037998 -22.316,7.128998 -24.395,8.229998 -1.796,0.952 -4.251,1.868 -19.605,7.319 -3.575,1.269 -8.173,3.023 -10.218,3.897 -2.878,1.231 -7.312,1.59 -19.633,1.59 -14.317,0 -15.962,-0.176 -16.373,-1.75 -0.285,-1.088 -2.234,-2.225 -5.152,-3.005 -3.631,-0.972 -6.141,-2.725 -11.091,-7.748 -3.518,-3.571 -6.683,-7.393998 -7.032,-8.494998 -0.983,-3.096 -4.863,-2.47 -12.381,1.995998 -4.057,2.41 -9.09,4.442 -12.674,5.117 -6.861,1.291 -48.899,0.516 -56.946,-1.05 -2.75,-0.535 -8.6,-1.698 -13,-2.584 -4.4,-0.886 -12.95,-2.445998 -19,-3.465998 -6.05,-1.02 -13.7,-2.573 -17,-3.45 -3.3,-0.877 -10.5,-2.31 -16,-3.184 -5.5,-0.874 -10.826,-2.029 -11.835,-2.566 -1.01,-0.537 -7.48,-1.633 -14.379,-2.436 -6.899,-0.803 -14.115,-2.117 -16.037,-2.919 -1.921,-0.803 -5.052,-1.46 -6.958,-1.46 -2.891,0 -3.643,-0.472 -4.541,-2.852 -0.592,-1.568 -2.387,-3.705 -3.989,-4.75 -3.267,-2.129 -11.385,-12.278 -12.801,-16.003 -0.508,-1.337 -1.617,-8.61 -2.464,-16.163 -0.847,-7.552 -1.965,-15.982 -2.485,-18.732 -0.519,-2.75 -1.245,-7.025 -1.614,-9.5 -0.368,-2.475 -1.232,-5.6250001 -1.92,-7.0000001 -0.689,-1.375 -1.743,-3.737 -2.343,-5.25 -1.575,-3.971 -4.41,-3.47000001 -13.018,2.3"
     stroke="none"
     fill="#000000"
     fill-rule="evenodd"
     id="path2" />
</svg>
