<?xml version="1.0" encoding="UTF-8" standalone="no"?>
<svg
   width="1278.5109"
   height="1617.9159"
   viewBox="0 0 1278.5109 1617.9159"
   version="1.1"
   id="svg4"
   xmlns="http://www.w3.org/2000/svg"
   xmlns:svg="http://www.w3.org/2000/svg">
  <defs
     id="defs8" />
  <path
     d="m 1197.512,0.97889086 c -1.643,0.49000004 -5.243,0.83600004 -8,0.76800004 -2.756,-0.067 -11.312,0.157 -19.012,0.498 -11.446,0.507 -16.286,1.236 -26.532,3.993 -6.892,1.856 -13.428,3.8540001 -14.523,4.4400001 -1.095,0.586 -4.893,1.818 -8.438,2.736 -3.546,0.919 -9.386,3.463 -12.977,5.654 -12.404,7.567 -17.034,10.608 -22.272,14.626 -5.747,4.409 -12.968,7.989 -22.258,11.036 -3.3,1.083 -11.625,4.083 -18.5,6.667 -13.369,5.027 -17.58,6.453 -34,11.521 -14.373,4.435 -30.687,12.644 -28.826,14.505 0.769,0.77 12.754,-3.012 23.826,-7.518 5.775,-2.351 13.425,-5.282 17,-6.514 3.575,-1.232 10.901,-4.123 16.28,-6.425 5.379,-2.302 10.554,-4.036 11.5,-3.854 4.351,0.838 0.858,3.487 -12.794,9.699 -7.982,3.633 -18.154,8.506 -22.605,10.83 -4.45,2.324 -11.869,5.125 -16.486,6.224 -17.233,4.103 -28.433,7.746 -26.094,8.488 6.38,2.025 11.713,0.608 38.897,-10.332 5.61,-2.258 10.795,-4.105 11.523,-4.105 1.7,0 15.501,-5.307 20.706,-7.963 4.696,-2.396 8.353,-2.609 10.033,-0.585 2.9,3.494 1.409,4.926 -19.649,18.867 -6.496,4.3 -14.961,10.06 -18.811,12.799 -9.148,6.506999 -25.891,15.698999 -36.245,19.897999 -7.19,2.916 -13.448,7.21 -12.176,8.354 1.251,1.124 18.843,-3.158 22.421,-5.457 6.491,-4.172 14.553,-8.934 21.5,-12.702 3.575,-1.94 9.2,-5.712 12.5,-8.383999 6.649,-5.384 25.404,-15.362 26.539,-14.119 1.369,1.499 -0.77,12.827 -3.402,18.021999 -1.45,2.862 -2.637,6.858 -2.637,8.88 0,3.047 -0.699,4.293 -4.088,7.283 -2.249,1.984 -7.086,7.186 -10.75,11.561 -3.664,4.375 -8.686,9.775 -11.159,12 -16.062,14.45 -20.437,19.553 -16.753,19.542 2.249,-0.006 7.215,-3.603 10.263,-7.432 5.229,-6.571 9.585,-10.574 13.845,-12.724 2.278,-1.15 6.478,-4.284 9.332,-6.965 7.659,-7.193 10.257,-6.196 3.965,1.522 -5.951,7.302 -6.183,8.233 -3.141,12.623 3.649,5.266 2.908,7.653 -5.579,17.98 -3.842,4.675 -8.459,10.3 -10.26,12.5 -1.8,2.2 -4.456,6.049 -5.901,8.553 -1.445,2.505 -6.52,8.917 -11.278,14.25 -7.414,8.312 -8.317,9.694 -6.323,9.679 2.334,-0.018 4.66,-1.422 16.954,-10.233 3.645,-2.612 7.132,-4.749 7.75,-4.749 1.338,0 1.479,3.323 0.245,5.764 -2.45,4.846 -4.122,9.54 -4.122,11.574 0,1.249 -1.256,4.271 -2.791,6.716 -3.062,4.877 -6.209,12.566 -6.209,15.173 0,0.913 0.962,2.333 2.137,3.157 1.817,1.272 2.039,2.114 1.48,5.612 -0.429,2.678 -0.123,5.694 0.876,8.635 1.438,4.237 1.408,4.804 -0.479,9.071 -1.108,2.504 -2.014,5.068 -2.014,5.699 0,0.631 -1.934,4.541 -4.297,8.688 -2.364,4.147 -5.344,9.986 -6.624,12.976 -1.28,2.989 -3.171,6.629 -4.203,8.089 -4.02,5.689 -1.536,4.777 5.691,-2.087 8.75,-8.312 10.778,-8.707 11.246,-2.19 0.305,4.245 0.113,4.558 -7.355,11.954 -8.232,8.152 -10.254,11.505 -8.334,13.818 0.966,1.164 1.913,0.627 5.504,-3.122 2.386,-2.49 4.741,-4.527 5.233,-4.527 2.142,0 3.348,3.072 2.643,6.739 -0.397,2.069 -0.67,6.368 -0.607,9.555 0.063,3.187 -0.601,7.983 -1.476,10.657 -1.163,3.556 -1.311,5.386 -0.551,6.806 0.796,1.488 0.556,2.844 -1.028,5.798 -1.616,3.015 -1.824,4.245 -0.954,5.637 0.612,0.979 1.112,2.416 1.112,3.193 0,2.218 -5.853,12.815 -8.818,15.965 -3.797,4.035 -16.679,11.422 -23.182,13.293 -3.025,0.871 -6.454,2.456 -7.62,3.523 -2.541,2.323 -12.443,5.456 -20.241,6.403 -3.101,0.377 -9.914,2.487 -15.139,4.69 -5.225,2.202 -12.521,5.046 -16.214,6.319 -8.512,2.933 -9.597,3.518 -19.286,10.4 -24.161,17.161 -28.259,19.956 -31,21.144 -1.65,0.715 -4.141,2.22 -5.535,3.343 -2.318,1.869 -8.026,4.306 -22.965,9.805 -6.3,2.319 -19.651,9.356 -20.569,10.842 -0.957,1.548 -17.255,12.121 -24.988,16.211 -3.819,2.019 -10.842,5.051 -15.608,6.738 -4.765,1.686 -11.29,4.662 -14.5,6.613 -3.209,1.951 -11.46,6.503 -18.335,10.116 -16.196,8.511 -17.669,9.534 -27.35,18.995 -10.425,10.189 -21.177,19.155 -30.592,25.511 -12.298,8.302 -20.86,15.288 -24.353,19.871 -1.817,2.383 -5.675,5.908 -8.574,7.833 -5.549,3.686 -12.957,11.915 -18.742,20.822 -8.463,13.031 -23.701,29.543 -31.333,33.954 -6.264,3.62 -21.308,13.659 -28.556,19.055 -5.748,4.279 -10.58,8.649 -21.844,19.752 -2.836,2.796 -8.531,7.611 -12.656,10.699 -19.179,14.36 -28.766,21.973 -31.834,25.279 -1.833,1.976 -7.683,7.181 -13,11.566 -5.316,4.385 -12.591,10.398 -16.166,13.361 -3.575,2.964 -9.875,8.078 -14,11.365 -4.125,3.287 -9.375,7.927 -11.667,10.312 -5.736,5.967 -17.315,21.734 -17.415,23.713 -0.045,0.892 -0.017,4.126 0.063,7.186 0.142,5.451 0.047,5.653 -4.668,9.878 -21.348,19.129 -20.15,17.583 -23.384,30.182 -1.958,7.625 -2.64,8.869 -7.605,13.876 -3,3.025 -11.618,11.8 -19.151,19.5 -10.131,10.355 -15.31,14.856 -19.896,17.288 -3.409,1.808 -7.481,4.57 -9.048,6.137 -1.567,1.567 -5.297,4.085 -8.289,5.596 -2.992,1.511 -6.712,3.812 -8.267,5.113 -1.554,1.301 -3.297,2.366 -3.872,2.366 -0.575,0 -6.278,3.976 -12.674,8.835 -6.395,4.859 -13.698,10.038 -16.23,11.508 -2.532,1.471 -5.453,3.614 -6.492,4.762 -1.77,1.956 -11.754,8.756 -22.698,15.459 -2.636,1.615 -8.711,5.646 -13.5,8.957 -4.789,3.312 -10.865,7.362 -13.502,9 -19.055,11.836 -30.738,19.778 -34.84,23.684 -1.563,1.487 -5.547,4.541 -8.853,6.787 -3.307,2.245 -6.012,4.461 -6.012,4.923 0,0.463 -2.475,2.546 -5.5,4.629 -3.025,2.084 -5.5,4.159 -5.5,4.612 0,0.453 -2.812,2.10201 -6.25,3.66301 -3.437,1.561 -8.433,4.732 -11.101,7.045 -2.668,2.313 -7.586,6.022 -10.928,8.242 -3.342,2.22 -7.234,4.928 -8.648,6.018 -1.415,1.09 -7.523,5.167 -13.573,9.06 -6.05,3.893 -13.475,9.406 -16.5,12.25 -3.025,2.845 -9.55,7.576 -14.5,10.514 -4.95,2.939 -10.575,6.813 -12.5,8.609 -3.664,3.419 -8.287,6.705 -26.5,18.832 -6.05,4.029 -16.175,11.05 -22.5,15.604 -6.325,4.553 -16.194,10.534 -21.932,13.29 -13.227,6.354 -19.068,11.468 -19.068,16.695 0,9.547 2.453,11.441 16,12.349 4.125,0.276 10.475,1.255 14.112,2.175 l 6.612,1.672 5.388,-2.721 c 2.963,-1.496 9.213,-6.395 13.888,-10.887 8.992,-8.64 17.231,-15.101 23.006,-18.042 1.922,-0.979 5.744,-3.543 8.494,-5.699 5.39,-4.225 7.483,-5.704 20.5,-14.475 15.872,-10.696 26.816,-19.285 35.791,-28.091 8.3,-8.144 13.606,-12.196 14.629,-11.172 0.603,0.602 -13.88,15.551 -20.42,21.076 -3.025,2.556 -10.225,8.141 -16,12.413 -5.775,4.271 -14.325,11.574 -19,16.228 -4.675,4.653 -13.675,12.678 -20,17.832 -11.345,9.243 -21.863,18.055 -38.169,31.976 -10.237,8.74 -18.831,17.762 -18.831,19.769 0,2.47 1.495,2.694 8.359,1.255 5.052,-1.059 7.403,-2.183 10.34,-4.947 2.09,-1.968 5.543,-4.751 7.673,-6.186 6.242,-4.205 19.938,-16.053 22.363,-19.346 2.06,-2.797 8.836,-8.153 38.796,-30.66 6.068,-4.558 14.618,-11.548 19,-15.532 4.383,-3.985 9.6,-8.277 11.594,-9.539 1.994,-1.262 4.523,-3.434 5.619,-4.827 2.59,-3.293 10.994,-10.082 19.592,-15.826 6.623,-4.425 13.952,-10.86 35.074,-30.796 5.55,-5.238 13.015,-12.035 16.59,-15.105 7.803,-6.7 29.526,-22.44401 36.5,-26.45401 5.673,-3.262 19.57,-13.123 30.104,-21.362 19.133,-14.964 43.795,-31.473 51.896,-34.739 2.75,-1.109 7.922,-3.91 11.494,-6.224 13.594,-8.808 17.477,-10.181 29.594,-10.456 11.139,-0.253 13.702,-0.943 21.05,-5.671 2.448,-1.575 5.308,-2.112 13,-2.438 9.688,-0.411 20.168,-2.862 26.862,-6.283 3.915,-2.001 25.544,-17.98 32.158,-23.758 5.521,-4.823 19.006,-14.72 22.638,-16.616 1.212,-0.633 4.314,-3.105 6.893,-5.494 4.735,-4.386 16.894,-12.613 26.882,-18.189 8.114,-4.53 12.904,-4.578 18.429,-0.188 3.648,2.899 4.125,3 14.177,3 8.357,0 11.158,0.385 14.243,1.959 2.695,1.375 7.193,2.205 15.086,2.784 10.75,0.788 11.593,0.704 19.099,-1.896 4.318,-1.497 9.774,-4.042 12.123,-5.657 5.02,-3.449 29.759,-16.942 66.772,-36.417 35.793,-18.833 47.41,-25.239 54.467,-30.032 9.782,-6.644 19.771,-10.741 26.187,-10.741 9.9,0 13.903,3.297 17.906,14.75 1.754,5.018 1.994,5.25 5.426,5.25 1.975,0 5.356,0.9 7.514,2 2.158,1.1 5.454,2 7.325,2 9.892,0 19.464,12.535 17.752,23.246 -0.458,2.864 0.176,6.107 2.513,12.86 3.017,8.712 3.103,9.421 2.456,20.212 -0.791,13.182 -0.682,24.516 0.292,30.141 0.384,2.222 0.437,11.016 0.118,19.541 -0.498,13.261 -0.32,16.344 1.231,21.339 2.483,7.996 2.307,10.132 -1.365,16.58 -3.476,6.105 -5.744,17.435 -5.822,29.081 -0.029,4.219 -0.725,8.001 -1.986,10.779 -1.474,3.247 -1.71,4.89 -0.979,6.813 0.53,1.393 1.237,6.217 1.572,10.72 0.513,6.912 0.282,9.00601 -1.486,13.44101 -1.551,3.891 -2.181,8.039 -2.431,16 -0.221,7.036 -0.886,11.956 -1.925,14.247 -0.874,1.925 -1.803,6.425 -2.065,10 -0.262,3.575 -1.483,9.373 -2.713,12.884 -3.691,10.54 -1.676,21.576 6.594,36.116 l 4.266,7.5 0.563,16.285 c 0.357,10.345 1.44,21.288 2.969,30 3.659,20.844 5.618,35.999 5.653,43.731 0.017,3.841 0.642,11.542 1.387,17.114 0.746,5.571 1.05,11.871 0.675,14 -0.374,2.128 -0.296,5.67 0.175,7.87 0.471,2.2 0.993,15.925 1.161,30.5 0.168,14.575 0.607,30.1 0.977,34.5 2.297,27.364 3.724,65.581 3.735,100 0.005,16.5 0.397,36.525 0.872,44.5 0.516,8.675 0.47,22.735 -0.115,35 -0.537,11.275 -1.136,30.625 -1.332,43 -0.463,29.369 -2.032,34.967 -9.817,35.024 -9.703,0.071 -14.326,3.138 -17.674,11.726 -1.927,4.942 -1.942,5.25 -0.261,5.25 0.982,0 2.277,-0.492 2.878,-1.093 1.824,-1.824 5.003,0.66 5.718,4.469 0.764,4.076 1.902,4.624 9.598,4.624 5.232,0 6.09,0.302 8.169,2.872 1.277,1.58 4.17,4.072 6.428,5.538 2.258,1.466 6.419,5.517 9.247,9.002 7.901,9.738 15.118,12.994 40.147,18.11 4.125,0.843 8.98,2.307 10.788,3.253 2.894,1.515 3.404,1.541 4.263,0.223 0.95,-1.46 0.84,-2.9 -0.462,-6.033 -0.375,-0.902 0.264,-2.503 1.548,-3.881 2.088,-2.242 2.592,-2.316 11.274,-1.663 6.01,0.451 11.955,1.682 17.551,3.631 4.654,1.621 9.633,2.948 11.063,2.948 1.584,0 3.724,1.172 5.475,3 1.581,1.65 3.749,3 4.818,3 1.678,0 1.863,-0.499 1.352,-3.644 -1.141,-7.033 -3.866,-12.025 -7.228,-13.241 -1.867,-0.675 -3.877,-2.508 -4.965,-4.528 -1.538,-2.855 -2.951,-3.76 -8.902,-5.703 -9.482,-3.096 -9.995,-3.612 -8.629,-8.685 1.212,-4.499 3.314,-5.74 7.985,-4.714 l 2.887,0.634 -1.016,-4.001 c -1.736,-6.841 -2.865,-7.296 -17.893,-7.22 -8.481,0.043 -13.736,-0.34 -14.609,-1.064 -1.028,-0.853 -2.809,-0.694 -7.236,0.647 -7.527,2.279 -12.344,1.46 -16.531,-2.81 -2.605,-2.656 -3.497,-4.94 -5.495,-14.066 -2.915,-13.31 -2.482,-14.52 6.943,-19.399 l 6.421,-3.323 3.049,3.605 c 1.677,1.983 4.174,4.159 5.549,4.835 1.985,0.977 2.612,2.2 3.044,5.94 0.885,7.653 4.279,11.067 13.747,13.832 2.361,0.689 5.421,2.299 6.802,3.579 3.339,3.094 8.332,3.03 13.407,-0.174 2.178,-1.375 4.342,-2.5 4.809,-2.5 0.466,0 2.938,1.384 5.492,3.076 3.236,2.144 5.283,2.873 6.753,2.407 1.89,-0.6 2.04,-1.165 1.448,-5.468 -0.363,-2.64 -0.259,-5.047 0.231,-5.35 1.269,-0.784 12.402,1.044 29.767,4.89 8.25,1.827 16.18,3.083 17.622,2.792 1.448,-0.294 3.973,0.168 5.639,1.029 2.97,1.536 3.026,1.518 3.528,-1.107 0.653,-3.415 -0.358,-5.979 -3.928,-9.961 -1.573,-1.755 -3.86,-4.51 -5.081,-6.122 -1.221,-1.611 -3.832,-3.694 -5.802,-4.629 -2.052,-0.974 -4.015,-2.844 -4.597,-4.379 -1.527,-4.033 -4.924,-7.178 -7.752,-7.178 -1.387,0 -4.188,-1.155 -6.224,-2.566 -2.98,-2.065 -5.551,-2.741 -13.172,-3.462 -7.682,-0.726 -11.241,-1.67 -18.851,-4.999 -5.16,-2.257 -10.393,-5.095 -11.63,-6.308 -3.021,-2.965 -6.927,-19.591 -8.262,-35.165 -1.357,-15.85 -2.71,-28.523 -3.895,-36.5 -2.95,-19.863 -4.419,-59.556 -5.773,-156 -0.174,-12.375 -0.474,-33.525 -0.667,-47 -0.193,-13.475 -1.35,-39.8 -2.571,-58.5 -1.221,-18.7 -2.261,-42.55 -2.31,-53 -0.106,-22.565 1.115,-27.377 8.72,-34.388 8.604,-7.93 14.666,-19.97 16.001,-31.779 0.363,-3.208 1.485,-8.533 2.494,-11.833 1.009,-3.3 2.095,-8.519 2.414,-11.599 0.318,-3.079 1.258,-7.523 2.088,-9.875 0.83,-2.353 1.509,-6.133 1.51,-8.402 10e-4,-3.764 2.873,-11.024 7.367,-18.62401 0.814,-1.375 4.671,-9.025 8.573,-17 3.902,-7.975 8.596,-16.975 10.433,-20 7.138,-11.759 10.557,-18.149 15.578,-29.115 2.867,-6.262 6.443,-13.41 7.946,-15.885 1.503,-2.475 3.009,-5.241 3.346,-6.147 0.338,-0.905 3.691,-6.98 7.453,-13.5 3.761,-6.519 8.141,-14.778 9.733,-18.353 1.592,-3.575 4.323,-8.75 6.068,-11.5 1.746,-2.75 4.485,-7.121 6.088,-9.714 1.603,-2.593 6.183,-9.432 10.179,-15.198 4.685,-6.762 8.117,-13.003 9.666,-17.581 2.838,-8.389 6.085,-12.944 12.525,-17.571 2.599,-1.867 6.626,-6.104 8.948,-9.415 2.559,-3.648 4.949,-6.021 6.063,-6.021 1.011,0 3.147,1.631 4.746,3.624 l 2.907,3.623 5.239,-1.123 c 2.882,-0.618 6.969,-1.124 9.083,-1.124 2.517,0 4.045,-0.525 4.427,-1.52 0.321,-0.835 2.093,-2.41 3.938,-3.498 2.196,-1.296 5.164,-5.002 8.594,-10.731 2.883,-4.813 7.439,-11.901 10.126,-15.751 2.687,-3.85 6.104,-9.925 7.593,-13.5 3.571,-8.572 3.973,-9 8.465,-9 3.566,0 4.126,-0.42 7.838,-5.887 3.999,-5.888 9.555,-19.297 14.465,-34.91 1.435,-4.563 3.22,-9.513 3.967,-11 0.747,-1.486 2.363,-6.753 3.591,-11.703 2.729,-11.002 5.922,-16.76 11.109,-20.035 2.17,-1.369 3.945,-2.944 3.945,-3.5 0,-0.555 1.739,-2.912 3.865,-5.237 5.047,-5.521 8.313,-11.843 11.641,-22.53 1.49,-4.784 3.738,-11.173 4.997,-14.198 3.197,-7.683 7.06,-22.106 8.303,-31 0.577,-4.125 3.775,-20.775 7.108,-37 4.129,-20.104 6.074,-31.889 6.105,-37 0.025,-4.125 0.752,-12.45 1.615,-18.5 3.564,-24.977 2.291,-43.725 -4.717,-69.5 -4.285,-15.762 -5.917,-26.933 -5.917,-40.509 0,-8.624 -0.444,-13.309 -1.5,-15.837 -0.84,-2.01 -1.5,-6.616 -1.5,-10.465 0,-4.272 -0.758,-9.078 -2,-12.689 -1.338,-3.89 -2,-8.417 -2,-13.687 0,-6.12 -0.549,-9.179 -2.468,-13.736 -1.526,-3.627 -2.723,-8.924 -3.137,-13.888 -0.6,-7.201 -0.455,-8.297 1.412,-10.671 1.345,-1.71 1.816,-3.242 1.331,-4.332 -0.413,-0.927 -2.841,-6.057 -5.395,-11.4 -4.881,-10.209 -12.046,-31.487 -11.112,-32.998 1.045,-1.69 3.221,1.355 4.481,6.27 1.058,4.132 1.645,4.942 3.577,4.942 2.045,0 2.311,-0.48 2.311,-4.167 0,-4.813 -4.634,-13.975 -11.523,-22.784 -2.387,-3.052 -4.657,-6.899 -5.046,-8.549 -0.389,-1.65 -1.166,-3.582 -1.727,-4.292 -0.663,-0.842 -0.678,-1.634 -0.042,-2.27 0.636,-0.636 3.664,1.473 8.677,6.043 4.235,3.86 8.102,7.019 8.593,7.019 0.491,0 1.178,-1.694 1.528,-3.764 0.756,-4.476 -1.972,-11.49 -5.908,-15.187 -1.404,-1.319 -2.552,-2.805 -2.552,-3.303 0,-1.449 6.303,0.29 8.564,2.362 3.272,2.998 3.764,2.304 3.071,-4.323 -0.555,-5.309 -1.159,-6.737 -4.142,-9.792 -1.921,-1.968 -3.493,-3.896 -3.493,-4.285 0,-1.549 3.374,-0.571 6.182,1.792 1.634,1.375 3.328,2.5 3.764,2.5 1.271,0 2.066,-7.11 1.014,-9.075 -1.958,-3.659 -1.222,-5.141 2.182,-4.394 l 3.142,0.69 -0.503,-9.61 c -0.276,-5.286 -0.109,-9.611 0.372,-9.611 0.481,0 1.806,0.563 2.944,1.25 1.861,1.124 2.454,0.808 5.875,-3.129 4.218,-4.854 6.058,-12.328 3.988,-16.196 -0.939,-1.755 -0.791,-2.156 0.965,-2.616 1.173,-0.307 2.075,-1.361 2.075,-2.426 0,-1.979 2.442,-2.595 3.5,-0.883 3.103,5.021 2.624,-8.516 -0.563,-15.925 -1.771,-4.117 -2.094,-6.269 -1.622,-10.834 0.353,-3.425999 1.206,-6.148999 2.139,-6.830999 1.084,-0.793 1.37,-2.041 0.949,-4.145 -0.662,-3.31 1.831,-7.27 4.569,-7.258 1.342,0.006 11.448,5.958 17.735,10.446 1.214,0.866 2.662,3.225 3.219,5.239999 1.291,4.675 6.341,16.307 7.081,16.307 2.096,0 8.562,-23.294999 7.355,-26.499999 -0.207,-0.55 -0.753,-5.85 -1.214,-11.778 -0.753,-9.691 -1.231,-11.555 -4.743,-18.475 -6.625,-13.057 -14.052,-20.774 -25.836,-26.842 -3.919,-2.018 -4.747,-3.83 -3.611,-7.905 0.153,-0.55 0.226,-2.905 0.16,-5.233 -0.112,-4.014 -0.367,-4.36 -4.931,-6.672 -2.647,-1.342 -5.397,-3.144 -6.112,-4.0050001 -2.996,-3.61 -8.438,-5.782 -19.158,-7.648 -6.137,-1.06800004 -11.442,-1.90300004 -11.788,-1.85600004 -0.346,0.047 -1.973,0.487 -3.617,0.977 M 872.313,1126.2719 c -7.286,7.529 -8.152,8.839 -8.759,13.25 -0.37,2.692 -0.152,9.844 0.484,15.894 0.637,6.05 1.299,20.995 1.472,33.211 0.173,12.216 0.567,23.466 0.877,25 2.787,13.794 6.07,133.895 4.669,170.789 -0.334,8.8 -0.279,21.625 0.123,28.5 0.401,6.875 0.776,28.123 0.832,47.219 0.116,39.498 0.929,47.073 5.105,47.577 3.173,0.382 8.461,-3.219 12.498,-8.512 5.782,-7.581 7.285,-17.337 7.436,-48.284 0.26,-53.471 -0.167,-94.964 -1.171,-113.5 -0.565,-10.45 -1.197,-29.8 -1.403,-43 -0.207,-13.2 -0.706,-29.85 -1.11,-37 -0.404,-7.15 -0.836,-19.75 -0.96,-28 -0.124,-8.25 -0.551,-18.15 -0.948,-22 -0.397,-3.85 -0.824,-12.4 -0.948,-19 -0.124,-6.6 -0.528,-14.025 -0.898,-16.5 -0.369,-2.475 -1.549,-15.215 -2.621,-28.311 -1.072,-13.096 -2.21,-24.234 -2.529,-24.75 -1.427,-2.31 -4.625,-0.358 -12.149,7.417"
     stroke="none"
     fill="#000000"
     fill-rule="evenodd"
     id="path2" />
</svg>
