<?xml version="1.0" standalone="no"?>
<!DOCTYPE svg PUBLIC "-//W3C//DTD SVG 20010904//EN"
 "http://www.w3.org/TR/2001/REC-SVG-20010904/DTD/svg10.dtd">
<svg version="1.0" xmlns="http://www.w3.org/2000/svg"
 width="2244.000000pt" height="2820.000000pt" viewBox="0 0 2244.000000 2820.000000"
 preserveAspectRatio="xMidYMid meet">
<metadata>
Created by potrace 1.16, written by Peter Selinger 2001-2019
</metadata>
<g transform="translate(0.000000,2820.000000) scale(0.100000,-0.100000)"
fill="#000000" stroke="none">
<path d="M16704 28186 c-111 -26 -194 -79 -243 -155 -53 -82 -72 -179 -80
-416 -5 -115 -12 -219 -16 -230 -4 -11 -34 -74 -66 -140 -52 -105 -63 -137
-85 -255 -30 -161 -55 -223 -158 -395 -43 -71 -104 -185 -137 -253 -33 -67
-96 -184 -141 -260 -45 -75 -131 -231 -190 -347 -233 -449 -338 -555 -554
-555 -103 0 -183 19 -284 67 -60 29 -93 54 -165 128 -94 96 -274 338 -345 465
-23 41 -73 125 -111 185 -48 78 -86 157 -129 270 -33 88 -92 225 -130 305 -37
80 -73 161 -79 181 -7 22 -10 114 -9 245 2 178 0 218 -16 269 -50 165 -195
255 -410 255 -124 0 -193 -16 -311 -74 -203 -100 -335 -285 -335 -470 0 -142
51 -218 226 -337 58 -40 132 -101 168 -140 70 -76 380 -535 432 -639 18 -36
46 -104 62 -151 45 -126 137 -473 167 -629 15 -74 41 -187 58 -250 43 -160 43
-290 -1 -475 -17 -71 -52 -238 -77 -370 -26 -132 -64 -294 -85 -360 -21 -66
-46 -160 -55 -210 -23 -126 -57 -192 -197 -382 -141 -191 -221 -269 -393 -386
-191 -130 -284 -235 -427 -487 -186 -327 -379 -722 -523 -1070 -60 -143 -150
-453 -180 -618 -13 -75 -41 -184 -60 -242 -20 -58 -52 -163 -72 -235 -41 -147
-41 -147 -26 -510 12 -300 23 -335 148 -505 75 -102 95 -139 95 -179 0 -80
-41 -110 -200 -147 -63 -15 -227 -67 -365 -116 -137 -50 -299 -106 -360 -125
-60 -19 -180 -63 -265 -98 -85 -34 -204 -77 -265 -95 -60 -17 -168 -54 -240
-80 -71 -26 -191 -67 -265 -90 -74 -24 -182 -63 -240 -87 -58 -25 -150 -62
-205 -83 -133 -51 -394 -165 -585 -255 -85 -40 -213 -93 -285 -118 -71 -25
-190 -69 -264 -96 -175 -67 -233 -81 -328 -81 -142 0 -206 54 -207 174 -1 140
95 742 141 891 68 217 153 301 462 458 248 127 345 161 746 268 127 34 336 50
588 47 222 -3 234 -2 288 20 124 50 233 159 280 280 30 79 36 199 15 296 -59
262 -265 422 -519 402 -107 -9 -166 -34 -288 -121 -175 -126 -231 -139 -549
-132 -356 8 -478 26 -533 75 -11 9 -38 42 -60 72 -57 79 -102 124 -187 190
-87 67 -168 150 -197 200 -11 19 -35 80 -53 135 -18 55 -53 143 -77 195 -58
124 -73 185 -73 292 0 107 12 163 62 297 22 58 55 164 74 236 43 160 84 265
184 465 42 85 98 210 124 277 26 67 72 162 103 210 31 48 87 146 124 216 86
161 230 361 365 508 116 126 158 196 175 298 22 124 -32 242 -160 348 -129
107 -284 162 -453 163 -210 0 -330 -67 -426 -240 -42 -75 -59 -150 -71 -315
-12 -163 -25 -214 -82 -310 -64 -109 -112 -208 -173 -360 -32 -77 -95 -207
-140 -290 -46 -82 -91 -166 -101 -185 -10 -19 -83 -134 -163 -255 -120 -182
-163 -238 -246 -321 -150 -150 -355 -298 -488 -351 -132 -54 -186 -65 -348
-70 -223 -8 -265 1 -460 98 -180 89 -245 142 -351 282 -79 104 -96 141 -160
337 l-54 165 4 135 c8 299 6 343 -12 398 -42 118 -132 214 -231 245 -62 18
-277 14 -355 -7 -81 -22 -158 -61 -237 -119 -149 -110 -215 -261 -193 -442 11
-89 41 -148 128 -258 92 -116 117 -169 201 -437 39 -124 97 -297 129 -385 121
-330 230 -755 291 -1142 11 -70 34 -204 51 -298 29 -159 31 -181 26 -350 -4
-165 -7 -189 -36 -286 -17 -58 -43 -135 -57 -170 -39 -95 -180 -337 -298 -513
-57 -84 -130 -198 -162 -252 -75 -128 -122 -177 -334 -347 -200 -162 -551
-501 -699 -677 -53 -63 -143 -169 -201 -236 -144 -166 -357 -424 -488 -590
-60 -77 -153 -188 -207 -249 -181 -205 -431 -526 -524 -674 -92 -146 -212
-317 -321 -456 -110 -140 -282 -384 -352 -500 -30 -49 -97 -153 -149 -230 -52
-77 -127 -191 -168 -254 -56 -88 -103 -144 -200 -240 -91 -90 -157 -168 -230
-271 -106 -149 -138 -208 -185 -341 -31 -87 -89 -190 -172 -304 -206 -284
-224 -326 -231 -555 -6 -171 17 -497 42 -589 37 -141 147 -272 336 -398 203
-135 282 -163 464 -163 146 0 236 18 332 65 94 46 146 89 334 270 500 482 718
684 857 791 48 37 190 156 315 263 126 108 247 208 269 224 49 32 81 34 109 6
35 -35 19 -88 -102 -352 -61 -133 -129 -298 -151 -367 -22 -69 -57 -174 -79
-235 -45 -126 -52 -163 -75 -370 -38 -351 -38 -358 -2 -545 22 -116 20 -167
-12 -290 -50 -186 -49 -574 1 -735 62 -202 208 -403 410 -567 100 -80 174
-164 218 -248 39 -74 45 -110 28 -152 -22 -51 -63 -66 -218 -78 -212 -16 -370
-54 -813 -195 -131 -42 -215 -95 -313 -199 -112 -117 -193 -274 -227 -437 -24
-118 -48 -432 -41 -534 14 -186 67 -371 141 -493 111 -182 189 -264 395 -413
111 -80 194 -152 359 -314 118 -115 253 -241 300 -278 114 -91 294 -202 530
-327 107 -56 200 -106 205 -110 6 -4 126 -69 267 -144 239 -127 616 -309 880
-425 62 -27 169 -76 238 -109 173 -83 1019 -363 1420 -471 184 -50 381 -121
501 -182 97 -48 468 -271 614 -369 146 -98 302 -186 450 -253 164 -75 453
-229 560 -298 55 -36 154 -96 220 -134 66 -37 181 -111 255 -163 100 -70 191
-122 350 -200 248 -121 317 -165 365 -230 19 -26 69 -128 111 -227 151 -354
197 -452 266 -568 38 -64 98 -180 133 -257 35 -78 91 -187 123 -243 33 -57 94
-173 135 -258 41 -86 115 -226 165 -311 186 -318 209 -367 247 -540 13 -59 33
-125 44 -147 50 -97 171 -170 316 -191 65 -9 117 -9 226 0 219 18 312 56 383
158 25 35 31 55 34 112 4 61 1 77 -25 132 -17 35 -63 104 -103 153 -41 50 -88
122 -106 160 -37 81 -101 297 -109 370 -24 204 231 484 560 616 175 70 504
110 908 110 263 1 302 -5 647 -92 140 -35 244 -54 370 -68 209 -24 273 -37
450 -91 74 -23 180 -51 235 -61 161 -31 217 -54 352 -145 154 -104 198 -118
339 -112 90 4 111 9 168 37 119 58 278 263 327 421 40 129 35 300 -11 390 -24
46 -94 116 -140 140 -49 25 -153 43 -204 35 -22 -3 -99 -18 -170 -32 -179 -35
-300 -30 -566 27 -107 22 -319 63 -470 90 -425 76 -509 104 -680 221 -161 110
-282 237 -367 384 -187 325 -215 381 -259 530 -110 365 -2 687 373 1111 50 56
117 135 151 177 116 142 263 258 365 289 64 19 113 -2 311 -131 321 -209 530
-311 733 -358 69 -16 129 -17 544 -16 367 1 502 5 630 19 119 12 254 18 489
18 289 1 332 -1 385 -17 99 -31 303 -141 417 -226 77 -57 172 -112 345 -200
268 -136 373 -202 518 -324 128 -107 174 -159 243 -277 31 -52 78 -129 104
-170 27 -41 68 -127 93 -190 73 -188 129 -229 320 -238 230 -10 351 33 478
168 124 132 181 273 159 393 -22 117 -84 214 -168 263 -24 14 -105 53 -182 88
-166 75 -194 93 -342 228 -63 57 -162 139 -220 182 -58 44 -159 134 -226 200
-102 102 -142 153 -259 325 -225 333 -260 416 -253 605 3 92 6 108 37 170 45
91 122 167 246 240 55 33 143 89 195 124 102 70 215 126 435 217 77 32 268
124 425 205 261 135 516 252 630 287 25 8 88 23 140 34 52 10 156 39 230 64
168 55 228 65 406 65 225 0 307 25 406 124 99 99 138 205 138 377 0 214 -63
344 -245 502 -170 148 -314 178 -497 106 -79 -31 -126 -68 -269 -215 -74 -75
-161 -155 -194 -178 -126 -90 -759 -416 -976 -504 -170 -69 -492 -165 -734
-218 -110 -25 -247 -58 -305 -74 -58 -16 -125 -34 -150 -40 -26 -7 -235 -15
-495 -20 -497 -9 -497 -9 -535 52 -25 41 -26 116 -4 265 21 143 41 201 131
373 137 264 235 399 420 581 192 190 296 282 422 372 244 175 313 288 281 457
-14 74 -79 204 -135 267 -81 92 -255 188 -415 229 -102 26 -238 16 -323 -24
-75 -35 -147 -97 -183 -158 -31 -53 -54 -158 -54 -255 0 -138 -13 -176 -153
-459 -234 -476 -308 -598 -474 -787 -104 -119 -159 -171 -312 -296 -178 -144
-270 -169 -348 -96 -60 57 -168 293 -207 453 -27 110 -50 169 -129 337 -72
155 -113 261 -171 439 -41 129 -83 264 -92 300 -25 94 -22 204 10 340 15 63
33 171 42 240 8 69 20 154 25 190 6 36 15 160 19 275 8 209 8 211 63 435 31
124 65 250 75 280 40 114 100 216 258 436 55 77 126 190 157 251 33 65 91 154
142 219 63 81 107 153 172 279 82 162 200 372 341 610 104 175 214 333 304
435 46 52 111 129 145 171 35 42 103 114 153 159 49 46 107 108 127 139 52 78
98 207 118 331 9 58 24 123 34 146 24 53 116 159 272 314 69 69 160 166 203
215 131 155 286 319 333 352 58 41 109 51 318 58 107 4 261 19 415 40 351 49
466 63 631 74 123 9 449 57 694 102 131 24 564 139 635 169 41 17 120 49 175
70 233 89 631 283 858 417 117 70 214 192 318 403 133 270 168 397 176 656 9
260 -21 371 -177 669 -44 85 -90 189 -105 240 -57 190 -117 260 -361 421 -313
206 -441 330 -525 507 -41 88 -40 147 7 252 73 165 134 361 155 493 14 93 5
355 -16 458 -29 137 -135 311 -292 475 -166 174 -340 274 -580 335 -76 19
-174 51 -218 71 -275 122 -465 150 -632 94 -98 -33 -362 -166 -435 -218 -117
-84 -359 -287 -495 -414 -210 -198 -248 -214 -538 -223 -99 -4 -290 -20 -425
-36 -662 -80 -703 -84 -970 -84 -323 1 -453 22 -500 82 -28 35 -25 80 12 169
31 73 33 85 33 198 l0 120 -56 120 c-31 66 -69 160 -84 210 -23 71 -47 118
-118 223 -119 179 -158 254 -210 407 -25 72 -72 186 -106 254 -72 148 -102
263 -102 391 -1 135 34 236 128 367 47 67 83 95 208 163 44 24 136 82 205 130
306 212 415 259 815 349 318 71 434 83 597 61 40 -5 188 -14 328 -19 228 -9
266 -13 360 -37 89 -24 126 -28 240 -28 157 -1 227 12 301 57 63 38 109 95
140 174 20 50 23 76 23 188 0 152 -14 198 -95 320 -119 178 -289 263 -469 234
-87 -14 -147 -42 -278 -133 -125 -87 -214 -131 -289 -145 -183 -35 -607 -38
-793 -5 -60 10 -134 15 -200 13 -151 -4 -352 -3 -530 2 -85 2 -263 0 -396 -5
-222 -8 -243 -7 -279 9 -106 51 -97 217 24 475 65 136 83 198 131 450 58 307
69 349 124 489 31 76 69 188 86 247 16 60 52 163 80 229 131 317 257 656 302
815 52 185 89 270 198 455 51 87 88 133 173 220 108 108 140 155 182 268 30
79 82 128 205 192 189 99 240 182 242 395 2 231 -69 365 -236 444 -39 19 -98
42 -131 51 -84 23 -302 29 -381 11z m-1914 -7771 c142 -33 256 -33 384 0 108
28 194 32 235 11 42 -22 87 -78 127 -159 20 -40 65 -124 100 -187 114 -207
153 -350 110 -414 -31 -48 -90 -65 -334 -97 -269 -34 -310 -41 -467 -81 -68
-17 -147 -31 -183 -31 -86 -1 -128 30 -198 146 -100 166 -114 259 -75 489 12
68 26 156 32 195 12 80 34 117 83 139 43 18 66 17 186 -11z m-1706 -10429 c42
-17 61 -61 52 -119 -8 -52 -61 -230 -132 -448 -30 -91 -70 -235 -90 -320 -19
-85 -46 -201 -60 -259 -34 -144 -41 -297 -20 -480 10 -92 15 -216 14 -340 -2
-235 3 -260 103 -472 73 -157 145 -354 184 -508 29 -115 44 -153 90 -224 65
-102 70 -124 70 -306 0 -191 -6 -209 -95 -295 -76 -72 -138 -159 -155 -218
-10 -31 -20 -120 -24 -219 -12 -226 -17 -237 -199 -417 -75 -75 -182 -184
-237 -242 -79 -83 -115 -113 -173 -143 -127 -66 -209 -60 -248 17 -16 29 -16
45 -4 171 18 189 19 867 1 956 -29 148 -116 299 -335 578 -183 235 -557 617
-886 907 -69 60 -156 138 -195 173 -145 133 -410 336 -688 528 -159 109 -309
216 -334 238 -58 51 -79 96 -61 134 22 45 72 69 211 102 213 50 540 138 712
191 349 109 441 141 620 219 103 44 256 105 340 135 84 31 216 83 292 116 76
34 181 79 233 101 52 22 177 82 276 134 100 51 241 118 313 148 73 30 169 76
214 102 70 41 140 71 170 73 4 1 22 -5 41 -13z"/>
</g>
</svg>
