<?xml version="1.0" standalone="no"?>
<!DOCTYPE svg PUBLIC "-//W3C//DTD SVG 20010904//EN"
 "http://www.w3.org/TR/2001/REC-SVG-20010904/DTD/svg10.dtd">
<svg version="1.0" xmlns="http://www.w3.org/2000/svg"
 width="1536.000000pt" height="978.000000pt" viewBox="0 0 1536.000000 978.000000"
 preserveAspectRatio="xMidYMid meet">
<metadata>
Created by potrace 1.16, written by Peter Selinger 2001-2019
</metadata>
<g transform="translate(0.000000,978.000000) scale(0.100000,-0.100000)"
fill="#000000" stroke="none">
<path d="M7250 9561 l-505 -217 -410 -238 c-474 -275 -480 -278 -500 -309 -8
-13 -96 -307 -194 -653 -165 -577 -189 -652 -290 -907 -60 -153 -111 -280
-113 -283 -2 -2 -42 -15 -89 -28 -47 -14 -152 -49 -235 -79 -441 -161 -568
-176 -884 -106 -186 41 -323 44 -415 10 -33 -12 -71 -25 -85 -27 -21 -4 -387
96 -393 107 -1 2 -12 22 -23 44 -35 65 -69 79 -214 85 l-125 5 -184 78 c-153
65 -255 120 -605 324 l-421 246 -281 279 -280 279 -43 -3 -42 -3 113 -178 113
-178 376 -288 375 -287 280 -148 c153 -82 283 -152 289 -157 5 -6 1 -9 -10 -9
-39 0 -212 -49 -290 -82 -107 -45 -189 -102 -262 -182 -68 -75 -104 -142 -163
-306 -82 -228 -143 -312 -251 -344 -66 -20 -92 -20 -156 -1 -82 24 -142 64
-237 155 -99 96 -172 190 -334 431 -128 191 -154 220 -122 138 39 -100 111
-238 180 -341 76 -115 234 -303 310 -370 l50 -44 -20 -39 c-35 -70 -21 -157
37 -225 40 -46 130 -92 225 -116 65 -16 68 -18 77 -53 6 -20 18 -67 28 -104
17 -67 17 -69 -1 -83 -26 -18 -154 -46 -251 -53 l-80 -6 -19 -40 c-10 -22 -21
-60 -24 -85 -4 -39 -13 -53 -71 -111 -36 -36 -139 -116 -229 -179 -89 -62
-226 -170 -305 -240 -121 -108 -154 -143 -217 -236 l-73 -109 129 125 c232
226 376 335 557 420 123 58 187 74 292 73 155 -2 249 -63 276 -181 4 -20 1
-77 -7 -134 -10 -74 -11 -117 -4 -162 19 -120 107 -257 237 -368 70 -60 215
-158 298 -201 33 -17 53 -32 45 -34 -8 -1 -116 -16 -240 -33 -191 -26 -281
-45 -600 -126 -355 -90 -398 -103 -802 -252 -235 -86 -428 -159 -428 -162 0
-8 108 -60 123 -60 8 0 148 40 313 89 164 49 463 137 664 196 l365 107 230 24
c127 13 374 37 550 54 219 21 399 45 572 76 251 45 253 46 378 105 l126 60 35
-30 c102 -90 227 -122 554 -141 374 -22 471 -51 801 -242 212 -123 290 -162
397 -198 l87 -29 7 -73 c8 -76 63 -885 74 -1088 l7 -116 72 -42 c40 -24 77
-48 83 -55 5 -7 74 -163 153 -347 l144 -335 264 -330 c146 -181 322 -400 391
-485 69 -85 157 -197 194 -248 60 -82 76 -97 124 -118 31 -13 59 -23 63 -22 5
2 -12 45 -36 95 -67 142 -452 671 -706 972 l-206 244 -114 321 c-105 297 -119
331 -192 451 l-79 130 -19 185 c-36 366 -68 850 -55 850 4 0 64 -38 134 -84
293 -194 491 -291 802 -393 654 -215 1208 -376 2645 -768 1077 -294 1182 -321
1479 -380 868 -172 1760 -211 2971 -130 553 38 770 94 1040 272 258 170 485
401 617 627 150 256 179 526 77 727 -79 157 -382 550 -588 763 -124 127 -250
231 -505 415 -120 86 -377 284 -373 286 1 2 76 42 167 90 388 206 713 441 993
717 265 260 423 492 494 725 24 80 27 103 26 243 0 134 -3 168 -25 251 -70
263 -217 525 -410 733 -111 120 -219 211 -298 251 -183 92 -982 318 -1445 409
-540 105 -885 137 -1489 136 -652 0 -1178 -34 -1836 -121 -230 -30 -342 -52
-700 -139 -457 -111 -585 -136 -2129 -406 -427 -74 -859 -150 -961 -168 l-186
-32 -197 -153 c-109 -84 -200 -151 -203 -148 -3 2 75 213 172 468 190 499 378
1068 398 1204 l11 80 125 68 c251 137 723 388 1040 553 l325 168 257 62 258
61 72 58 c40 32 77 62 82 67 6 4 -96 8 -225 7 l-234 0 -505 -218z m4865 -1501
c530 -29 1045 -113 1610 -261 l39 -11 -54 -34 c-29 -18 -81 -42 -114 -53 -134
-44 -170 -46 -631 -43 -457 3 -841 -8 -1175 -33 -799 -62 -1549 -193 -2300
-401 -107 -30 -222 -62 -255 -71 l-60 -16 -79 47 -79 47 -346 60 c-190 32
-377 64 -415 71 -88 15 -54 20 -971 -164 -853 -171 -882 -175 -1006 -125 -36
15 -77 27 -91 27 -39 0 -72 -42 -116 -148 -22 -53 -50 -119 -61 -145 l-21 -48
-52 40 c-72 53 -179 111 -264 141 l-71 25 155 119 155 119 481 84 c2058 357
2296 401 2770 518 416 102 539 124 991 174 652 74 1474 107 1960 81z m1891
-340 c283 -83 544 -172 600 -206 123 -74 305 -262 416 -429 74 -111 157 -281
197 -400 32 -99 50 -192 34 -182 -30 18 -812 164 -1355 252 -536 87 -907 126
-1753 187 -486 35 -912 31 -1890 -16 l-90 -4 105 25 c58 13 272 63 475 109
364 83 612 145 830 206 99 27 130 42 312 151 111 67 201 123 199 124 -2 2
-108 -21 -237 -51 -555 -130 -1525 -329 -1971 -406 l-467 -80 -62 37 -63 36
39 14 c71 25 445 124 636 169 581 136 1199 233 1784 278 363 29 633 37 1140
35 428 -1 524 1 595 14 147 28 262 76 335 141 22 19 43 35 46 36 3 0 69 -18
145 -40z m-5231 -574 c44 -15 104 -39 133 -54 l54 -28 -44 -13 c-95 -28 -423
-147 -602 -217 l-190 -75 -155 -3 c-255 -5 -362 -41 -596 -201 -225 -153 -245
-166 -318 -201 -110 -51 -186 -67 -297 -62 -74 4 -112 12 -172 35 -67 26 -217
118 -297 181 l-23 19 58 46 c219 174 836 408 1345 511 333 67 593 96 849 92
160 -3 182 -5 255 -30z m580 -260 c38 -9 88 -19 110 -22 22 -4 36 -8 30 -10
-5 -2 -154 -35 -330 -75 l-320 -71 -205 16 c-113 9 -227 16 -254 16 -31 0 -46
4 -40 9 12 12 318 126 539 200 l176 60 112 -54 c61 -30 143 -61 182 -69z
m2690 -26 c610 -39 1022 -76 1400 -125 432 -57 1663 -273 1793 -316 23 -8 31
-16 28 -27 -2 -10 -12 -78 -22 -152 l-16 -135 -166 -252 c-91 -139 -168 -253
-172 -253 -4 0 -139 34 -301 74 -576 146 -884 195 -1444 226 -353 20 -1644 9
-1789 -15 -24 -4 -54 14 -205 127 -578 433 -887 546 -1721 633 -140 15 -264
30 -274 34 -12 4 96 32 290 75 l309 68 275 10 c151 5 453 17 670 27 547 26
960 26 1345 1z m-8750 -226 c61 -15 114 -30 118 -34 11 -10 -46 -191 -75 -238
-35 -57 -84 -107 -136 -140 -47 -30 -128 -60 -137 -50 -3 2 4 30 14 61 31 89
59 233 67 340 6 83 9 97 23 93 9 -3 66 -17 126 -32z m9925 -824 c515 -35 802
-82 1345 -218 l270 -68 -75 -73 c-286 -280 -634 -525 -1030 -725 l-145 -74
-50 29 c-65 38 -54 35 -583 144 -251 52 -468 97 -481 100 l-24 6 29 30 c19 20
25 32 17 37 -6 4 -245 185 -532 402 -335 254 -516 397 -507 402 44 25 1424 31
1766 8z m-554 -1014 c695 -140 814 -168 814 -186 0 -11 -325 -138 -506 -198
-299 -100 -611 -176 -944 -231 -175 -29 -432 -62 -438 -57 -1 2 68 63 154 136
86 74 261 236 388 362 127 125 238 227 247 228 8 0 136 -24 285 -54z m1105
-389 c103 -78 267 -201 365 -274 208 -153 328 -262 467 -423 l99 -115 -39 -2
c-21 -2 -114 -11 -208 -20 -133 -14 -253 -18 -555 -17 -715 2 -1302 53 -2033
174 -218 37 -581 103 -634 117 -19 4 -4 18 99 91 101 70 129 86 167 89 642 59
1192 180 1732 384 86 32 196 77 245 99 49 22 94 40 99 40 6 0 94 -64 196 -143z
m-10786 34 c77 -35 126 -107 225 -334 23 -54 41 -99 39 -101 -2 -2 -60 -36
-129 -75 l-126 -71 -113 0 -113 0 26 35 c73 96 105 213 113 413 7 170 5 167
78 133z m3848 -525 c171 -51 270 -114 456 -291 171 -161 257 -209 421 -234 36
-6 245 -15 465 -21 l399 -11 206 -109 c113 -59 249 -130 303 -157 90 -44 96
-49 70 -54 -53 -12 -231 -9 -594 11 -484 26 -516 30 -727 91 -363 105 -624
211 -1081 438 -257 128 -374 199 -455 278 l-49 48 44 13 c87 25 146 31 299 28
133 -3 167 -7 243 -30z m-733 -126 l35 -29 -52 21 c-29 12 -50 25 -47 30 9 15
29 8 64 -22z m5277 -60 c964 -184 1564 -248 2423 -257 390 -4 500 -2 615 11
77 8 187 18 245 22 l106 7 70 -94 c53 -71 95 -147 173 -311 l103 -218 -7 -72
c-12 -122 11 -108 -271 -153 l-249 -40 -1025 1 c-647 0 -1123 5 -1290 12
-1286 59 -1710 98 -2194 198 -243 51 -519 134 -444 134 9 0 113 32 231 70 118
39 224 70 235 70 11 0 49 -9 84 -20 177 -56 1124 -260 1532 -330 478 -82 560
-91 786 -88 l205 3 -285 62 c-157 34 -420 92 -585 128 -165 37 -491 102 -725
145 -370 69 -463 90 -719 164 l-294 84 -220 -99 -221 -98 -145 -7 -146 -6
-290 146 c-159 81 -293 150 -297 154 -4 4 158 7 360 8 378 1 561 11 812 45
379 52 670 141 975 295 88 45 167 82 176 83 9 1 133 -21 276 -49z m-5369 -9
c31 -16 156 -72 277 -126 121 -53 292 -130 380 -170 343 -157 943 -364 1391
-480 159 -41 404 -106 544 -145 414 -115 867 -234 1880 -495 1695 -437 2702
-712 2662 -726 -29 -11 -573 -29 -862 -29 -771 0 -1472 77 -2138 236 -79 19
-376 97 -660 175 -284 77 -690 188 -902 246 -1004 273 -1634 458 -2225 654
-209 69 -303 105 -416 163 -146 74 -429 244 -429 257 0 4 10 11 22 15 38 12
116 93 164 172 26 43 69 105 96 139 46 58 134 142 151 143 4 0 33 -13 65 -29z
m3539 -830 c105 -39 343 -104 497 -136 414 -88 832 -132 1641 -175 677 -35
934 -40 1925 -40 l975 0 233 36 c128 20 236 33 240 30 11 -12 -86 -191 -148
-275 -189 -255 -470 -487 -728 -600 -127 -56 -322 -99 -542 -121 -196 -19
-205 -18 -445 53 -635 189 -1295 366 -2835 762 -659 170 -963 249 -1439 376
l-164 44 173 7 c169 7 323 25 445 52 84 19 82 19 172 -13z"/>
</g>
</svg>
