<?xml version="1.0" standalone="no"?>
<!DOCTYPE svg PUBLIC "-//W3C//DTD SVG 20010904//EN"
 "http://www.w3.org/TR/2001/REC-SVG-20010904/DTD/svg10.dtd">
<svg version="1.0" xmlns="http://www.w3.org/2000/svg"
 width="896.000000pt" height="1546.000000pt" viewBox="0 0 896.000000 1546.000000"
 preserveAspectRatio="xMidYMid meet">
<metadata>
Created by potrace 1.16, written by Peter Selinger 2001-2019
</metadata>
<g transform="translate(0.000000,1546.000000) scale(0.100000,-0.100000)"
fill="#000000" stroke="none">
<path d="M4736 15434 c-35 -34 -32 -64 15 -153 43 -83 69 -120 267 -381 144
-188 397 -495 572 -691 51 -57 60 -74 69 -125 12 -67 30 -739 25 -914 -2 -63
-4 -143 -4 -177 l0 -61 -147 -47 c-82 -25 -173 -56 -203 -67 -134 -52 -585
-301 -773 -426 -206 -139 -411 -322 -534 -478 -26 -34 -75 -93 -108 -131 -91
-105 -191 -235 -260 -337 -86 -125 -368 -587 -442 -721 -33 -60 -90 -165 -127
-232 -90 -164 -131 -256 -211 -468 -83 -221 -137 -393 -160 -505 -9 -47 -21
-89 -26 -94 -20 -22 -187 134 -319 299 -78 98 -280 402 -281 424 -4 46 3 148
17 251 24 187 35 250 59 351 42 177 42 214 -9 489 -62 335 -83 484 -91 625
-12 238 -54 486 -89 534 l-23 31 -11 -26 c-16 -34 -15 -119 3 -234 8 -52 19
-176 25 -275 12 -192 26 -298 90 -655 44 -248 47 -301 24 -405 -35 -161 -53
-256 -65 -359 -12 -106 -13 -109 -28 -85 -9 13 -31 38 -50 54 -127 111 -121
102 -121 167 0 58 -1 61 -51 113 -45 48 -53 63 -65 122 -8 37 -30 100 -49 138
-20 42 -36 93 -40 127 -4 31 -19 95 -35 140 -20 61 -31 120 -40 218 -17 201
-40 268 -106 305 -21 12 -52 41 -69 65 -41 58 -140 133 -211 160 -76 28 -171
30 -249 7 -110 -34 -180 -139 -173 -263 3 -66 19 -79 36 -31 21 60 72 107 127
121 59 15 102 7 158 -31 64 -44 77 -76 75 -184 -2 -94 -2 -94 44 -184 34 -65
51 -114 62 -175 11 -60 31 -115 66 -188 33 -66 58 -134 70 -192 32 -151 76
-265 131 -347 16 -23 29 -46 29 -51 0 -5 -15 -25 -32 -44 -18 -19 -60 -70 -93
-112 -111 -144 -130 -164 -220 -237 -49 -40 -115 -99 -146 -131 -74 -76 -95
-77 -162 -6 -66 70 -121 189 -143 308 -26 140 -40 144 -68 20 -10 -46 -12 -78
-6 -110 19 -96 51 -189 99 -285 28 -55 53 -113 57 -130 18 -77 80 -125 164
-125 35 0 38 -2 44 -34 4 -18 20 -52 36 -74 34 -47 67 -60 183 -71 60 -6 83
-13 102 -31 30 -29 79 -22 174 26 52 26 78 48 117 96 80 101 95 126 124 201
14 40 39 91 53 115 34 53 40 51 140 -62 l75 -84 10 -83 c6 -46 14 -127 17
-179 4 -52 20 -203 36 -335 17 -132 34 -307 38 -390 7 -144 5 -187 -19 -480
-31 -369 -31 -347 -10 -469 11 -63 30 -136 41 -163 37 -84 49 -136 56 -230 l6
-92 -64 -31 c-35 -16 -78 -30 -95 -30 -16 0 -39 -6 -50 -14 -18 -14 -18 -15
11 -23 17 -4 67 -8 113 -7 l83 1 -3 -236 -3 -236 37 -105 c20 -58 46 -139 57
-180 37 -131 70 -500 71 -775 0 -168 15 -342 31 -362 31 -36 34 7 34 420 0
549 -10 640 -103 906 l-37 106 3 250 4 250 52 47 c34 30 63 69 83 110 38 77
67 191 59 230 -3 16 -39 98 -80 181 -91 185 -116 248 -116 290 l0 31 70 -69
c39 -39 85 -91 103 -116 42 -60 117 -161 170 -229 24 -30 62 -89 84 -130 22
-41 55 -99 73 -129 l33 -54 4 -316 c6 -605 11 -749 33 -881 55 -341 117 -594
180 -746 15 -36 8 -60 -150 -489 -351 -957 -569 -1422 -833 -1780 -34 -47 -89
-122 -122 -167 -32 -46 -156 -213 -275 -373 -206 -276 -259 -350 -326 -456
-16 -26 -51 -80 -78 -120 -90 -136 -188 -364 -172 -404 3 -9 18 -15 35 -15
l30 0 -38 -92 c-42 -101 -71 -194 -71 -227 0 -11 7 -24 15 -29 13 -7 6 -27
-45 -124 -79 -153 -125 -282 -149 -420 -37 -214 -49 -788 -14 -717 6 13 32 91
58 172 49 154 78 216 176 380 135 223 295 448 498 701 53 65 121 151 152 190
111 143 383 465 494 586 39 41 136 152 217 245 255 296 413 437 758 679 69 49
177 119 240 156 63 38 149 92 190 121 41 29 109 75 150 103 182 122 429 314
620 486 l73 65 -7 -145 c-29 -643 -40 -2365 -18 -2765 17 -301 48 -496 90
-563 22 -34 63 31 106 168 25 79 46 132 196 505 51 127 106 264 122 305 54
137 155 473 188 625 17 83 48 211 67 285 19 74 39 153 44 175 5 22 32 110 60
196 58 181 70 201 258 409 144 159 196 229 247 333 l38 77 23 -22 c20 -19 27
-20 60 -10 114 35 288 240 401 473 48 98 77 163 174 392 39 89 58 117 58 84 0
-18 43 -57 62 -57 52 0 109 95 171 281 43 127 139 516 163 658 12 71 24 112
39 130 69 85 265 403 361 586 31 61 82 152 112 204 30 51 72 134 93 184 21 50
45 100 52 111 31 48 245 502 304 646 71 171 149 377 183 485 13 39 47 144 77
235 75 231 252 837 311 1070 51 199 68 287 123 650 62 414 69 458 84 590 9 74
25 212 36 305 28 238 48 539 49 745 1 152 4 187 25 265 73 268 113 547 121
845 5 165 3 220 -16 360 -12 91 -27 217 -35 280 -8 64 -21 149 -29 190 -8 41
-29 159 -46 261 -24 144 -28 192 -20 213 12 33 15 29 -79 141 -324 389 -608
602 -931 699 -295 88 -599 116 -885 81 -182 -22 -276 -51 -469 -146 l-59 -29
-76 52 c-42 29 -128 91 -192 138 -63 47 -223 155 -353 240 -131 85 -286 187
-345 227 -267 181 -598 373 -641 373 -10 0 -26 -7 -34 -16z m-3180 -5466 c-21
-72 -62 -132 -106 -157 -54 -30 -60 -41 -75 -132 -16 -104 -31 -119 -116 -119
-68 0 -114 16 -147 52 l-23 25 39 7 c51 8 126 41 155 69 13 12 38 45 56 73 18
28 46 61 62 73 15 12 59 57 96 102 37 44 69 76 71 70 2 -6 -3 -34 -12 -63z
m684 -504 c32 -45 86 -128 121 -185 34 -57 93 -152 130 -211 97 -151 119 -195
119 -241 0 -28 8 -50 28 -76 16 -20 46 -62 67 -94 l38 -58 -17 -107 c-9 -59
-19 -140 -22 -180 -4 -40 -10 -74 -14 -77 -14 -9 -130 77 -223 164 -86 83
-208 226 -235 278 -5 10 -12 65 -15 123 -3 58 -17 191 -30 295 -14 105 -28
240 -31 300 -4 61 -9 128 -13 150 l-5 40 22 -20 c12 -11 48 -57 80 -101z"/>
</g>
</svg>
