<?xml version="1.0" standalone="no"?>
<!DOCTYPE svg PUBLIC "-//W3C//DTD SVG 20010904//EN"
 "http://www.w3.org/TR/2001/REC-SVG-20010904/DTD/svg10.dtd">
<svg version="1.0" xmlns="http://www.w3.org/2000/svg"
 width="1387.000000pt" height="1536.000000pt" viewBox="0 0 1387.000000 1536.000000"
 preserveAspectRatio="xMidYMid meet">
<metadata>
Created by potrace 1.16, written by Peter Selinger 2001-2019
</metadata>
<g transform="translate(0.000000,1536.000000) scale(0.100000,-0.100000)"
fill="#000000" stroke="none">
<path d="M2595 15334 c-22 -2 -92 -9 -155 -15 -270 -25 -589 -96 -837 -184
-269 -97 -591 -274 -786 -434 -96 -78 -136 -124 -204 -239 -33 -55 -67 -99
-82 -106 -14 -7 -73 -28 -131 -46 -191 -59 -274 -118 -330 -235 -41 -86 -47
-142 -22 -199 37 -82 129 -123 427 -192 296 -68 393 -107 910 -368 209 -106
418 -206 463 -222 80 -28 86 -32 127 -89 23 -33 71 -85 106 -115 102 -86 229
-212 250 -247 18 -29 20 -55 23 -360 2 -180 9 -373 15 -428 60 -519 196 -987
407 -1403 91 -177 286 -498 345 -565 61 -68 134 -116 152 -98 15 15 16 404 3
711 -10 231 -5 278 50 508 18 78 43 197 54 265 22 128 53 240 74 269 12 16 17
17 59 4 115 -35 173 -84 637 -540 195 -192 497 -480 670 -639 764 -704 1306
-1247 1688 -1692 80 -93 203 -231 272 -305 69 -75 161 -178 205 -230 200 -239
626 -732 779 -905 264 -298 415 -480 506 -614 24 -36 99 -162 168 -280 150
-260 231 -379 591 -875 411 -564 434 -598 1026 -1521 409 -637 744 -1137 871
-1300 234 -300 284 -383 284 -469 0 -67 -25 -114 -135 -261 -125 -166 -162
-230 -194 -329 -92 -288 -106 -630 -41 -957 43 -210 131 -412 226 -517 31 -34
61 -62 68 -62 14 0 59 45 74 75 5 11 24 76 40 143 27 109 38 135 92 220 33 54
68 123 77 155 16 54 18 57 49 57 22 0 48 12 78 35 25 19 67 51 92 70 58 45 91
59 229 97 61 17 126 39 146 49 81 40 116 117 105 232 -3 37 -3 67 0 67 10 0
75 -40 116 -72 20 -16 62 -44 92 -62 l56 -34 67 25 c128 47 269 74 419 80 278
12 529 -42 852 -183 70 -31 133 -58 140 -61 27 -12 8 21 -69 117 -416 517
-1026 926 -1839 1233 -134 50 -123 34 -164 243 -36 182 -53 332 -71 614 -48
787 -62 884 -191 1333 -41 144 -97 345 -124 447 -60 224 -101 352 -258 798
-67 189 -192 565 -277 835 -86 271 -228 710 -315 977 -334 1018 -441 1376
-784 2598 -147 522 -172 645 -164 795 6 103 36 165 139 289 40 48 89 111 108
140 34 48 43 54 146 96 61 25 136 62 169 83 67 45 115 53 396 64 185 8 291 26
378 66 l65 29 -5 44 c-8 68 -46 135 -117 207 -84 84 -189 153 -366 239 -266
130 -472 191 -817 241 -40 6 -325 14 -633 19 -568 8 -652 14 -845 55 -199 42
-392 127 -545 242 -53 39 -200 178 -355 334 -299 301 -577 537 -983 838 -340
251 -630 432 -1182 736 -636 352 -1279 578 -1858 656 -145 19 -593 34 -702 23z"/>
</g>
</svg>
