<?xml version="1.0" standalone="no"?>
<!DOCTYPE svg PUBLIC "-//W3C//DTD SVG 20010904//EN"
 "http://www.w3.org/TR/2001/REC-SVG-20010904/DTD/svg10.dtd">
<svg version="1.0" xmlns="http://www.w3.org/2000/svg"
 width="838.000000pt" height="1536.000000pt" viewBox="0 0 838.000000 1536.000000"
 preserveAspectRatio="xMidYMid meet">
<metadata>
Created by potrace 1.16, written by Peter Selinger 2001-2019
</metadata>
<g transform="translate(0.000000,1536.000000) scale(0.100000,-0.100000)"
fill="#000000" stroke="none">
<path d="M5645 15344 c-49 -25 -62 -42 -106 -133 -23 -47 -71 -134 -105 -193
-82 -139 -130 -234 -205 -410 -111 -257 -276 -690 -318 -831 -64 -213 -116
-303 -196 -341 -66 -32 -111 24 -103 129 5 59 47 157 123 290 42 73 364 839
386 920 30 105 32 246 5 325 -10 30 -22 59 -26 63 -12 13 -132 -67 -180 -119
-55 -59 -80 -118 -129 -294 -79 -287 -177 -524 -271 -659 -59 -83 -71 -83 -78
2 -7 84 23 204 99 407 158 416 171 468 129 510 -31 31 -97 27 -147 -9 -92 -67
-152 -200 -192 -426 -26 -146 -26 -147 -90 -315 -127 -330 -307 -982 -361
-1308 -32 -188 -43 -218 -129 -346 -60 -88 -91 -176 -132 -369 -43 -208 -77
-329 -182 -652 -301 -925 -319 -1082 -226 -1995 93 -916 107 -1143 90 -1462
-12 -219 -38 -424 -75 -583 -42 -183 -128 -479 -153 -529 -34 -68 -118 -154
-238 -244 -55 -41 -152 -125 -215 -187 -155 -150 -173 -158 -452 -209 -112
-21 -183 -47 -258 -97 -69 -47 -119 -103 -220 -249 -40 -58 -104 -144 -141
-191 -104 -131 -123 -175 -124 -284 0 -87 1 -90 23 -93 16 -3 42 11 80 41 76
59 155 102 223 122 46 13 98 15 260 13 189 -2 208 0 263 20 67 25 77 26 129
11 83 -23 164 -131 174 -235 5 -44 1 -62 -24 -116 -17 -35 -58 -94 -92 -133
-34 -38 -183 -214 -331 -390 -407 -484 -465 -552 -553 -655 -45 -52 -107 -133
-138 -180 -37 -55 -102 -130 -185 -211 l-129 -125 -319 -800 c-176 -439 -347
-853 -381 -919 -34 -66 -116 -208 -182 -315 -146 -236 -208 -358 -229 -448
-28 -116 -6 -248 51 -308 53 -56 108 -57 169 -4 18 17 36 30 38 30 3 0 3 -31
0 -68 -2 -38 1 -102 8 -142 10 -62 18 -80 45 -107 73 -73 140 -29 222 146 25
53 76 159 113 236 88 181 84 168 130 379 21 99 48 208 59 241 l20 60 -6 -265
c-12 -456 -5 -596 38 -780 21 -89 90 -244 133 -295 l25 -30 64 135 c70 145
108 252 132 369 9 41 17 77 19 79 2 2 25 -61 51 -140 57 -172 126 -344 166
-414 60 -107 153 -188 205 -182 62 7 84 87 84 302 l0 141 46 -80 c136 -236
194 -309 278 -350 71 -35 148 -38 179 -6 21 21 22 31 27 251 l5 230 105 -166
c58 -91 123 -183 145 -206 22 -23 94 -76 160 -120 133 -88 126 -88 149 13 33
145 29 357 -10 549 -21 102 -47 152 -165 320 -147 210 -183 290 -177 385 l3
50 171 -245 c94 -135 209 -301 255 -370 94 -140 219 -275 263 -286 48 -11 79
6 96 53 17 51 6 148 -35 287 -45 155 -166 442 -240 567 -20 34 -34 63 -33 64
2 2 32 -2 68 -9 80 -15 126 -39 210 -106 119 -95 171 -105 205 -39 18 34 21
222 4 298 -12 59 -59 116 -143 176 -30 22 -56 42 -56 46 0 3 24 13 53 24 91
32 144 63 151 87 3 13 6 49 6 80 0 84 26 110 111 115 90 6 115 18 139 68 12
24 28 49 37 57 16 13 82 34 143 44 28 5 61 32 158 128 133 130 146 148 156
215 9 62 20 76 65 90 45 13 61 34 61 80 0 38 14 42 127 39 98 -4 112 6 169
116 48 94 65 110 156 158 68 35 79 44 88 77 5 20 10 42 10 49 0 49 50 87 147
112 48 12 57 25 68 90 9 54 52 123 130 211 63 71 91 121 125 222 23 71 78 150
129 187 29 20 31 25 31 90 0 38 3 76 6 85 4 8 36 37 72 62 77 55 95 90 112
211 6 45 17 99 24 120 16 45 104 222 111 222 2 0 61 -85 129 -190 209 -316
361 -451 544 -481 56 -9 96 -8 211 5 77 9 213 16 301 16 181 0 166 -7 190 86
6 23 16 44 23 47 6 2 35 -2 62 -9 102 -28 103 -28 143 0 21 14 60 51 87 82 26
31 76 77 109 101 l61 45 97 -7 c95 -7 97 -7 122 19 34 33 34 74 0 194 -15 51
-25 94 -23 96 2 2 50 -1 107 -6 57 -6 119 -7 137 -4 56 11 60 29 57 223 -4
219 1 237 84 323 37 39 64 75 64 88 0 11 -13 54 -30 95 -38 95 -38 139 0 262
34 110 32 132 -20 235 -40 79 -59 161 -63 275 -6 164 -49 222 -187 251 -44 10
-80 21 -80 25 0 5 7 34 15 66 8 31 15 89 15 129 0 94 -33 162 -102 210 -136
93 -313 51 -673 -158 -175 -102 -261 -144 -450 -221 -266 -108 -361 -131 -466
-117 -98 14 -139 52 -139 129 0 45 14 83 104 290 20 47 57 157 83 245 57 202
93 280 173 380 l64 79 6 102 c6 111 11 122 80 196 76 79 88 141 66 334 -11
101 -12 160 -4 265 5 74 11 223 12 330 2 157 6 202 19 232 42 93 11 175 -103
280 l-79 71 59 28 c77 36 92 61 91 146 -1 99 -10 166 -37 275 -33 133 -32 194
6 266 42 80 46 111 22 158 -25 51 -39 112 -57 265 -8 69 -20 141 -27 160 -13
39 -52 104 -79 134 -17 19 -17 24 -3 80 9 33 22 72 30 88 24 46 14 77 -36 115
-60 45 -70 70 -63 165 7 87 -1 104 -68 137 -19 10 -41 25 -47 33 -16 19 -38
126 -53 254 l-12 101 43 74 c57 95 60 138 10 179 -76 64 -124 61 -288 -18
-104 -49 -202 -71 -266 -59 -49 9 -72 56 -56 116 13 48 54 83 145 126 137 64
256 151 556 409 96 84 231 189 298 235 206 139 291 234 291 325 0 50 -31 102
-65 111 -88 22 -213 -44 -455 -241 -151 -122 -217 -168 -341 -234 -76 -40
-485 -231 -496 -231 -11 0 3 39 39 111 53 107 163 219 373 380 202 155 249
201 372 353 179 224 321 454 366 595 18 56 23 166 8 190 -12 18 -35 9 -137
-55 -111 -70 -161 -112 -354 -299 -85 -83 -177 -169 -205 -191 -59 -48 -344
-254 -350 -254 -2 0 -12 14 -20 30 -23 44 -6 93 59 170 31 36 107 142 170 235
63 94 140 199 172 235 204 230 245 312 309 613 l23 107 -37 0 c-115 0 -270
-138 -471 -418 -68 -95 -124 -171 -126 -169 -1 1 4 61 12 132 29 256 72 380
192 557 56 84 76 123 80 155 9 85 -22 127 -75 99 -61 -31 -75 -53 -315 -516
-197 -378 -272 -510 -350 -614 -50 -67 -118 -126 -145 -126 -20 0 -16 45 11
151 31 119 55 181 154 404 92 208 133 329 197 585 25 102 48 193 51 203 4 13
-1 17 -23 17 -15 0 -41 -7 -58 -16z"/>
</g>
</svg>
