<?xml version="1.0" standalone="no"?>
<!DOCTYPE svg PUBLIC "-//W3C//DTD SVG 20010904//EN"
 "http://www.w3.org/TR/2001/REC-SVG-20010904/DTD/svg10.dtd">
<svg version="1.0" xmlns="http://www.w3.org/2000/svg"
 width="953.000000pt" height="1536.000000pt" viewBox="0 0 953.000000 1536.000000"
 preserveAspectRatio="xMidYMid meet">
<metadata>
Created by potrace 1.16, written by Peter Selinger 2001-2019
</metadata>
<g transform="translate(0.000000,1536.000000) scale(0.100000,-0.100000)"
fill="#000000" stroke="none">
<path d="M4320 15354 c-1038 -57 -1769 -277 -2348 -708 -140 -104 -388 -352
-487 -486 -43 -58 -103 -134 -135 -170 -135 -154 -321 -418 -432 -615 -284
-501 -508 -1156 -623 -1825 -9 -52 -41 -178 -70 -280 -252 -863 -291 -1436
-116 -1709 39 -60 71 -77 110 -56 29 14 75 81 100 141 31 78 321 164 554 164
161 0 272 -18 437 -70 281 -89 384 -118 483 -135 133 -22 201 -8 237 49 42 69
42 69 181 45 96 -17 147 -20 228 -16 103 6 103 6 97 -16 -32 -108 -23 -198 25
-267 l17 -25 -102 0 c-150 -1 -320 -56 -354 -115 -15 -26 -21 -28 -109 -34
-155 -12 -252 -44 -330 -110 -39 -34 -41 -35 -183 -46 -269 -21 -465 -69 -624
-153 -106 -55 -219 -166 -264 -257 -55 -112 -182 -531 -198 -650 l-7 -50 206
0 205 0 -34 -78 c-56 -129 -76 -222 -76 -347 0 -128 10 -172 38 -166 56 11
149 11 198 1 31 -6 56 -14 56 -16 0 -3 -10 -24 -22 -47 -21 -38 -23 -55 -22
-172 1 -111 6 -148 32 -249 18 -66 38 -126 45 -133 26 -26 79 -26 157 0 41 14
76 24 78 22 2 -2 -13 -75 -34 -162 -28 -118 -38 -187 -42 -275 -4 -115 -4
-117 21 -142 35 -35 69 -33 146 9 36 19 66 33 68 31 3 -2 -3 -38 -11 -80 -18
-87 -21 -204 -6 -273 18 -81 19 -81 102 -41 88 43 124 53 135 36 4 -7 8 -83 8
-168 1 -125 6 -170 23 -234 12 -44 24 -82 27 -84 3 -3 65 11 139 30 l134 36 4
-72 c7 -104 44 -168 121 -208 22 -11 46 -17 54 -13 9 3 55 14 103 25 102 22
194 65 302 143 72 52 80 55 110 46 42 -12 181 -11 233 1 22 5 41 8 42 6 2 -1
-13 -49 -33 -107 -93 -275 -162 -640 -125 -663 4 -3 54 15 110 39 104 46 241
89 265 83 11 -2 5 -27 -25 -103 -61 -155 -139 -391 -139 -419 0 -31 0 -31 123
-11 99 16 390 45 395 40 2 -2 -17 -86 -42 -187 -38 -155 -56 -238 -102 -478
-5 -29 -16 -40 118 117 119 138 261 252 389 313 66 31 89 36 89 21 0 -4 -9
-66 -20 -137 -75 -497 -44 -949 94 -1380 19 -60 89 -314 155 -564 67 -250 139
-520 161 -600 94 -338 153 -681 169 -980 11 -213 30 -333 56 -359 34 -34 70
116 105 437 29 276 84 474 357 1292 130 388 248 731 264 762 83 164 162 412
200 628 40 222 37 567 -7 818 -8 46 -12 87 -9 91 12 12 152 -70 213 -126 79
-70 185 -205 253 -323 28 -50 54 -90 57 -90 3 0 2 79 -1 175 -7 179 -26 354
-52 484 -8 40 -15 77 -15 81 0 18 213 -21 315 -57 39 -14 100 -41 138 -59 l67
-34 0 51 c0 73 -42 268 -95 443 -24 82 -43 152 -40 154 19 19 187 -63 289
-141 38 -28 78 -59 89 -67 20 -14 20 -13 14 150 -7 210 -33 361 -97 553 -27
83 -48 152 -47 153 1 2 20 -1 42 -6 52 -12 191 -13 233 -1 30 9 38 6 110 -46
109 -78 198 -120 305 -144 50 -12 111 -32 134 -44 l43 -23 33 39 c45 52 67
124 67 219 l0 79 43 -24 c53 -30 156 -57 199 -53 28 3 34 8 47 48 29 92 18
273 -25 412 -4 13 8 9 45 -16 27 -19 69 -36 94 -40 54 -8 127 7 144 30 34 47
43 216 17 340 -8 42 -14 78 -12 79 2 2 37 -13 77 -32 42 -21 96 -38 124 -41
l50 -5 -7 124 c-9 141 -15 185 -58 362 -16 71 -28 131 -25 133 3 3 23 -4 45
-15 49 -25 192 -74 199 -68 7 8 41 158 58 265 23 138 17 289 -13 349 l-22 42
48 -22 c39 -18 65 -22 149 -22 56 0 105 4 110 8 14 14 7 168 -11 237 -23 90
-82 210 -150 304 l-57 79 33 -7 c156 -32 302 -27 415 16 l56 20 -7 87 c-25
339 -125 605 -291 776 -156 161 -342 236 -624 251 -99 5 -121 10 -151 30 -103
69 -226 106 -390 120 -78 6 -88 9 -124 41 -99 89 -312 131 -529 104 -31 -4
-56 -5 -54 -2 37 65 49 108 45 165 -4 49 -22 107 -45 146 -2 3 75 6 170 6 112
1 194 7 235 16 58 14 64 13 69 -1 13 -43 35 -68 79 -91 116 -59 400 -26 764
88 79 25 98 26 270 26 252 1 413 -33 584 -122 64 -33 70 -40 96 -97 56 -124
120 -165 175 -111 37 37 83 138 107 234 19 75 22 114 22 287 -1 333 -58 660
-214 1210 -33 116 -71 273 -85 350 -149 801 -411 1518 -752 2057 -236 373
-562 751 -838 971 -611 488 -1359 749 -2405 837 -124 11 -785 21 -910 14z"/>
</g>
</svg>
