<?xml version="1.0" encoding="UTF-8"?>
<svg width="1200pt" height="1200pt" version="1.1" viewBox="0 0 1200 1200" xmlns="http://www.w3.org/2000/svg">
 <path d="m861.98 562.23c22.586-42.984 31.957-99.191 49.188-147.53 19.488-1.8359 29.734 5.5938 41.617 11.363 9.0234 64.273-5.6992 120.11 0 196.7 74.102-36.863 96.516-158.17 162.67-215.63-26.184 83.484-55.246 181.5-109.73 245.89-14.207 16.789-37.656 35.855-64.285 34.031-34.945-32.102-29.594-79.715-30.266-136.18-24.887 41.93-15.383 118.26-64.309 136.18-54.742-29.184-15.227-107.58-18.898-177.78-18.145 19.871-30.07 59.352-52.957 79.441-7.4414 6.5039-26.977 42.086-45.395 64.309-17.258 20.82-34.883 61.812-68.102 56.734-38.879-5.9648-41.891-81.371-37.824-132.39 5.2578-65.953 25.98-120.43 30.277-185.34-45.77 90.371-102.61 194.47-136.2 302.62-10.262 33.07-7.8594 81.887-49.188 94.586-43.344-86.41 11.449-196.08 7.5859-295.07-49.645 54.551-65.23 142.77-94.57 223.19-13.262 36.301-28.273 79.98-41.617 117.25-11.988 33.527-21.312 92.676-71.867 87.012-66.707-189.97-2.1719-391.39 7.5586-582.55-51.961 63.672-107.39 176.11-136.19 268.57-9 28.945-4.9688 59.195-37.824 68.102-41.305-31.586 2.6523-82.297 22.715-128.63 38.594-89.137 79.246-205.77 132.38-268.56 18.301-2.4258 26.746 4.9922 37.824 0 23.195 21.527 20.375 53.641 18.91 79.441-6.9844 123.5-44.914 240.9-37.824 397.2 1.3672 30.312 6.1211 62.508 11.34 94.57 47.172-77.484 77.605-197.46 117.28-313.97 12.758-37.477 32.762-116.75 94.559-90.793 23.762 44.102 3.707 124.23 0 192.93 52.402-104.24 92.293-227.14 151.31-313.97 21.227-3.5625 24.336 10.98 41.629 11.34 8.7734 121.13-37.5 197.23-22.715 317.76 67.777-50.746 99.516-137.54 147.53-208.07 16.836-2.9531 22.703 5.0391 37.824 3.7812 20.914 27.992 11.086 84.031 7.5586 113.45z" fill-rule="evenodd"/>
</svg>
