<?xml version="1.0" encoding="UTF-8"?>
<svg width="1200pt" height="1200pt" version="1.1" viewBox="0 0 1200 1200" xmlns="http://www.w3.org/2000/svg">
 <path d="m877.95 576.96c33.109-9.1445 53.195-46.633 83.52-48.961 9.8398-16.078 27.562-24.277 48.961-28.789 7.9922 7.2852 22.777 20.184 14.398 34.559 2.0508 1.7148 20.352 3.4336 20.16-5.7617-15.035 36.227-81.973 59.605-97.906 95.039-44.688 23.074-69.816 52.512-115.21 77.746-14.531-3.707-17.711-18.77-23.039-31.668-31.98 16.008-56.242 39.758-92.172 51.828-32.258-18.562-8.5547-55.141 11.531-69.121-15.098 2.1953-24.91 9.6484-40.32 11.52-8.8203-9.4219-21.371-15.109-20.172-34.559-69.203 30.637-114.77 84.898-184.32 115.2-45.59-34.535 9.2266-82.969 34.559-106.56-37.129 13.441-65.988 42.793-106.56 74.879-19.465 15.371-53.41 46.246-77.762 43.199-13.152-1.6445-36.77-24.637-34.559-46.078 1.7148-16.691 30.672-40.547 46.078-57.602 45.984-50.891 117.24-97.141 152.64-149.75-122.24 75.516-226.5 169.01-322.56 270.71-14.543-9.8867-28.379-18.348-14.398-40.309 20.195-31.738 60.371-55.645 92.16-83.52 87.133-76.414 197.93-180.29 305.28-221.75 52.848 18.684 3.3125 72.66-23.039 100.79-55.789 59.578-140.21 115.54-181.44 172.79 59.809-23.629 115.8-92.566 178.56-132.47 19.559-12.445 59.746-32.965 72-31.68 51.238 5.3516 9.168 76.223-14.41 89.27 50.484-30.18 97.836-63.445 152.64-89.27 10.402 7.8242 23.855 12.625 25.922 28.789 44.34-16.703 117.71-113.99 141.12-31.68-6.2734 18.676-20.398 29.512-31.664 43.203z" fill-rule="evenodd"/>
</svg>
