<?xml version="1.0" encoding="UTF-8"?>
<svg width="1200pt" height="1200pt" version="1.1" viewBox="0 0 1200 1200" xmlns="http://www.w3.org/2000/svg">
 <path d="m128.36 865.46c18.996-7.7773 30.504-23.062 45.406-34.922-12.805 18.648-22.523 70.586-66.359 69.852-21.539-29.484-0.94922-82.547 13.992-115.26 23.305-51.156 60.383-103.67 94.297-153.7 57.277-84.492 121.99-165 185.15-244.51 0.57422-7.5859-12.406-1.5977-17.484-3.5039 29.652-28.57 53.113-63.324 90.828-83.82 14.281 0.85156 12.086 18.191 17.473 27.949-128.16 186.02-275.59 317.73-363.3 537.91zm412.18-324.85c23.953-25.453 39.758-49.488 62.879-76.848 26.762-31.668 121.56-104.95 59.387-132.73-42.086 44.09-76.945 95.387-136.23 122.26 15.84-27.012 59.461-52.379 38.41-94.32-15.457-7.4766-26.629 7.4766-41.902 10.488 2.1367 11.652 10.246 11.914 3.4922 24.457-58.754 84.324-149.36 188.11-209.59 282.94-33.324 52.488-86.293 122.95-48.898 188.62 19.5-2.0273 30.898 4.0547 45.406 6.9961 67.957-83.387 124.91-177.82 192.11-261.98 33.602-15.312 58.117-58.332 94.32-59.387-22.777 27.227-59.508 59.184-94.32 94.32-31.547 31.859-74.461 73.344-87.324 104.8-4.4297 10.848-9.7578 34.477-6.9844 45.395 17.797 70.344 100.54-8.6172 122.26-27.949 37.043-32.914 71.699-58.523 104.8-87.312 24.961-21.719 51.684-61.094 69.852-73.355 6.0352-4.0781 7.8711-8.1367 10.488-10.477 48.816-44.039 89.102-99.625 143.22-125.76-21.023 36.035-51.277 62.832-69.852 101.3-28.836 20.113-47.195 44.316-73.355 76.859-18.098 22.477-61.465 61.727-55.883 97.789 7.4023 48.059 69.742 32.316 101.3 13.969 96.984-56.375 193.46-159.38 268.95-216.56-52.141 75.73-138.21 140.27-192.12 220.05-11.195 16.586-55.129 75.145 0 83.844 15.48-37.355 37.453-81.949 66.371-115.27 4.3672-5.0625 16.262-6.0117 20.953-10.477 15.758-15.047 27.805-38.172 45.422-55.895 16.98-17.113 33.156-33.625 48.887-52.391 38.965-46.512 108.1-110.47 66.359-157.19-136.3 87.238-220.82 244.89-387.73 289.92 60.598-123.39 176.86-191.11 227.07-324.86-4.5586-12.91-7.4141-27.516-17.461-34.922-25.934 6.2891-42.648 29.004-62.867 45.395-139.62 113.25-246.95 268.12-401.71 352.82 23.363-53.207 73.98-101.15 101.3-125.76 22.777-20.484 36.012-46.523 55.895-66.348 37.586-37.535 147.94-103.29 101.3-164.18-126.13 89.281-235.41 214.04-331.86 321.37 56.258-66.07 110.64-148.98 167.66-209.6zm-258.47 289.93c-10.223-23.09 20.184-35.652 13.98-66.371 41.027-50.09 73.586-104.75 111.77-157.19 36.863-50.629 81.348-96.973 115.27-150.2 11.855 6.0234 25.609 2.4258 38.426 0-87.688 130.05-205.54 229.94-279.45 373.76z" fill-rule="evenodd"/>
</svg>
