<?xml version="1.0" encoding="UTF-8"?>
<svg width="1200pt" height="1200pt" version="1.1" viewBox="0 0 1200 1200" xmlns="http://www.w3.org/2000/svg">
 <path d="m386.16 984.52c-21.938-2.7188-35.156-6.5156-52.406-14.953-15.469-7.5469-26.953-15.703-39.188-27.797-12.75-12.609-20.859-23.906-29.016-40.406-6.7969-13.828-11.344-27.984-13.734-42.844-0.23438-1.4062-0.60938-2.5312-0.89062-2.5312-1.875 0-14.672-2.2031-19.219-3.3281-20.062-4.875-42.703-15.938-58.875-28.828-6.3281-5.0625-17.531-16.312-22.781-22.922-7.3125-9.1406-11.859-16.359-17.531-27.891-5.8125-11.859-8.5312-19.359-11.391-31.547-3.2344-13.781-3.7031-18.422-3.6562-34.641 0.046875-12.562 0.32812-16.594 1.5938-23.859 11.062-63.094 58.828-111.28 121.64-122.58 4.2188-0.75 7.875-1.5938 8.1094-1.875 0.23438-0.23438 2.7188-3.9844 5.4844-8.25 24.938-37.922 68.953-63.656 113.25-66.188 3.9844-0.23438 7.5469-0.51562 8.0156-0.65625 0.5625-0.1875 0.5625-1.5-0.14062-5.0625-4.2188-21.891-2.25-47.719 5.4375-71.156 16.312-49.688 58.734-87.609 110.16-98.438 9.2812-1.9219 20.203-3 31.5-3.0469l11.484-0.046875 4.2656-8.8125c19.688-40.5 58.594-70.172 103.55-79.078 20.25-3.9844 43.547-3.5156 63.375 1.2656 29.719 7.1719 57.469 24.047 76.875 46.641 10.453 12.234 20.812 29.016 25.688 41.719 0.84375 2.2031 1.7344 4.2188 1.9688 4.5 0.23438 0.23438 2.5312-0.14062 5.1094-0.84375 23.109-6.5156 50.859-6.9844 74.484-1.3125 29.719 7.1719 57.469 24.047 76.875 46.641 18.844 21.984 29.953 45.938 34.875 75.094 1.6406 9.75 1.6406 34.312 0 44.25-2.5781 15.469-6.2812 27.516-12.281 40.219-1.9688 4.2188-3.6094 7.875-3.6094 8.1094s1.1719 0.79688 2.5781 1.2188c3.8906 1.1719 17.906 8.2031 24.797 12.469 23.484 14.531 42.562 35.766 54.984 61.219 10.453 21.422 15.094 41.531 15.094 65.531 0 16.312-2.1094 30.562-6.6562 44.672-14.672 45.938-50.25 82.078-95.344 96.797l-10.078 3.2812-0.42188 3.7031c-5.4375 46.5-33.609 88.922-75.188 113.2-31.5 18.375-70.969 24.844-106.78 17.438-32.203-6.6562-62.578-24.188-83.766-48.328l-6.1406-6.9844-4.0781 5.1562c-12.797 16.219-26.812 28.453-44.438 38.766-22.547 13.172-49.922 20.484-76.641 20.484-21.375 0-40.078-4.0312-62.953-13.594-1.6875-0.70312-2.1094-0.42188-7.0781 4.1719-29.203 27.375-65.766 41.953-104.34 41.578-5.7656-0.046875-11.344-0.1875-12.469-0.375z"/>
</svg>
