<?xml version="1.0" encoding="UTF-8"?>
<svg width="1200pt" height="1200pt" version="1.1" viewBox="0 0 1200 1200" xmlns="http://www.w3.org/2000/svg">
 <path d="m891.62 288.42c-1.1992 13.441-33.121 30.156-40.883 10.895 17.289 0.46875 25.703-26.09 40.883-10.895zm-89.953 21.789c-12.18-3.707-16.895 1.0938-24.527-8.1602-9.1328 16.129 9.168 22.488 19.105 21.793-3.9844-10.297 7.4609-5.2305 5.4219-13.633zm-8.1719 49.07v-13.645c-3.7422 0.12109-5.9766-1.2852-8.1836-2.7344-0.44531 8.4258-4.3438 4.6211-5.4258 16.367 4.5117 0.011719 9.0625 0.011719 13.609 0.011719zm-321.57 21.805c1.9688 6.1797 11.531 4.8125 16.355 8.1602-5.0508-16.453 2.5781-11.914 8.1836-21.793-10.535-8.8438-24.852-2.4375-24.539 13.633zm479.64 27.238c-14.652-5.1484-42.574-6.0352-40.871 13.621 8.8438-6.6133 28.355-6.8164 35.41 2.7461-15.203 13.836-33.109 25.02-29.953 57.238 14.855-1.8828 4.9219-10.801 10.883-21.793 9.8438-18.152 37.457-28.246 24.531-51.812zm-269.79 32.711c-3.6367 2.6172-21.371 5.2422-30 10.906 1.6328 8.375 0.71875 19.285 10.922 19.066 4.8945-9.6914 24.477-19.027 19.078-29.973zm106.29 16.355c7.8359 0.3125 1.3906 14.941 10.895 13.621 5.1953-5.6992 8.7852-13.008 10.883-21.793-5.5273-8.2188-23.949-6.4805-21.777 8.1719zm190.74-2.7344c-3.6953 3.5039-3.6953 12.875 0 16.355 18.289-8.9883 18.121 1.5859 35.461 5.4609 3.8008-37.871-29.414-7.2109-35.461-21.816zm-109.01 27.266c1.1172-4.6562 3.5273 0.57422 8.1836 0 3.0859-7.6211 3.0859-21.145-8.1836-21.793-2.8438 2.8086-5.6289 19.449 0 21.793zm-455.11 46.332c-1.6328 12.527 12.277 9.5156 10.883 21.793h13.645c-0.71875-15.324-9.2656-20.891 0-32.711-7.1641-4.4805-18.828 5.3477-24.527 10.918zm487.82 125.36c-0.57422 13.391 9.9375 29.914 21.816 21.793-15.516-0.66016-3.6016-14.184-2.7227-21.793-5.7969-7.0078-12.145-4.8242-19.094 0zm-144.43 144.43c7.5352-8.7734 15.875-26.988 5.4609-38.16-29.184 9.5742-44.914-9.1094-76.297-5.4609-0.37109-39.73-27.086-47.941-38.172-81.758-10.559-7.2617-31.094 4.7383-21.816 16.344 2.9141-2.5195 0.875-10.043 8.1836-8.1602 14.617 24.023 40.535 40.176 40.871 70.836 2.9883-6.2539 4.5117 11.594 8.1836 13.645 28.031 1.3203 49.98 12.91 70.871 13.609-4.0312 10.285-15.059 19.598-10.922 30 14.258-0.058594 33.926 9.5898 32.711-10.906-6.293-12.082-13.852 5.8086-19.074 0.011719zm-337.93-106.28c-9.707 7.0195-0.71875 20.52 8.1719 24.527-3.2891-15.086 14.113-9.5156 13.645-21.793-9.3984 1.1875-15.301-1.0938-21.816-2.7344zm346.1 27.262c3.2266-8.1484 2.3633 9.9609 10.883 5.4492 4.1406-5.8555 11.832-8.1719 10.922-19.094-6.5625 3.5664-28.582 5.7969-21.805 13.645zm-171.67 49.043c-8.5547 8.8555-1.668 24.492 10.883 27.254v-21.793c-5.4219-0.046875-3.4531-7.4375-10.883-5.4609zm-337.96 133.55c-12.926 10.668 6.2383 18.145 10.906 27.254 6.457-6.7812 0.011719-16.066 0-24.527-4.7266 0.19922-8.4609-0.62891-10.906-2.7266zm196.25 24.527c11.125 4.3203 19.031-9.625 32.711-10.906-2.0156-19.598-34.992-6.4102-32.711 10.906zm43.598 79.02c-3.1914-2.2695-7.2969-3.5898-13.645-2.7227-1.3203 11.301 9.6367 7.0898 13.645 2.7227zm-155.36-207.12c-9.0234-8.5195-6-15.422-5.4258-29.977-8.6758-1.2734-27.551-4.5859-49.055 0-2.9766 16.223-13.285 23.352-8.1836 40.883-16.57 33.383-43.391 56.555-73.586 76.309-11.914 1.9062-15.359-4.6445-27.254-2.7344 3.2539 10.98 18.938 33.406 10.895 57.227 1.1406-3.3711-19.812 24.48-27.254 10.906-0.44531-13.152 15.949-9.4805 19.066-19.105 4.7031-25.441-11.605-27.59-13.621-51.758 4.8359-8.6055 22.922-10.992 29.977-2.7344 37.008-14.746 53.531-50.027 76.309-79.031-1.6328-6.5391-3.8984-12.422-2.7109-21.793-20.629 6.2266-39.086 20.016-57.238 16.344-19.68-3.9844-46.273-45.48-68.125-62.699-10.621-8.3281-22.883-6.9375-30-16.332 0.69531-26.566 5.3984-49.141 24.527-57.227 30.562 9.8047 78.984-9.3594 103.56-19.105 3.5039-13.5-6.6016-13.367-5.4492-24.492 1.9688-8.9414 9.8047-12.035 16.355-16.367 3.9375 10.309-7.5 5.2305-5.4492 13.645 9.5898 11.855 11.594 20.555 8.1602 40.859 18.289 37.633 91.234 24.035 122.65 8.1602-2.3047-15.816-7.2969-29.039-5.4609-49.02 50.617-5.7852 99.371-1.957 130.82-30 14.039-1.8359 23.34 7.5586 27.254-5.4375 0.48047-5.9023-9.6719-1.2461-13.609-2.7344 2.375-21.684-11.473-17.879-5.4609-38.16 3.8984 4.2461 6.8516 9.4805 13.609 10.906 54.047-41.113 144.8-32.664 218.02-13.633-21.852-24.973-13.836-61.969-10.883-98.125-13.262-14.723-6.8516-26.039-5.4609-49.043-33.973 5.6172-43.465 16.645-68.137 21.793-4.043 1.1992 1.0938 3.4805 0 8.1719-20.629-9.3477-24.324 11.027-43.598 10.906-1.1289-6.5742 4.9805-5.9297 2.7461-13.633-47.23-0.75781-59.543 26.004-95.41 40.883-1.2227 26.941-10.066 46.246-8.1719 76.297-3.7695 8.6758-2.6875-9.6367-2.7109-13.645-6.2539 4.6914-1.0195 20.82-2.7227 30-16.188-22.141-2.7109-62.617 2.7227-92.664-10.754-9.2539-23.281-16.715-32.711-27.254-10.969-1.8711-15.574 2.6055-24.527 2.7344 0.33594 4.8945-3.7305 14.34-5.4609 24.527-8.543-3.793 3.7578-13.453-2.7109-16.355-31.078 0.37109-51.91 46.523-81.77 21.805-15.098 12.07-36.684 21-59.953 35.41 29.785 6.1445 10.586 43.5 24.527 49.066-3.3594 21.168-21.996 27.059-38.148 35.438-0.9375 8.4492 6.3125 13.008 0 19.066-34.523-0.89844-83.93-40.586-92.664 8.1836-11.473 2.5195-13.055 0.82813-24.527 5.4609-2.6641-16.094 24.781-40.992 43.598-46.344 24.445-6.9609 41.953 6.457 57.238 21.805 3.5391-21.887 22.645-28.223 40.883-35.438-3.0703-20.844 2.4258-40.332-16.355-49.055-12.637 2.8086-21.203 9.6836-32.711 13.621-2.3047 11.398 5.3164 12.875 5.4492 21.816-23.531-7.6094-11.941-42.254 10.895-40.883-6.793-17.449 10.957-22.934 0-38.148 1.8945-5.375 15.227 0.67188 16.367-5.4492-45.684-5.8555-62.09 10.094-95.387 19.066 3.6133-8.1133 2.7734-13.824-2.7227-19.066-13.262 1.1875-34.211 6.4453-46.344 0-0.3125-10.297 5.3398-14.664 13.633-16.355-5.4609 15.086 42.758-4.3906 46.309 16.355 11.281-2.3516 19.957-7.332 32.723-8.1953-3.6836-13.57-5.4492-29.09-5.4609-46.309 39.047-23.746 111.5-111.7 158.05-54.527 13.777-5.3047 26.125-12.012 32.711-24.527 2.8789-13.777-6.2148-15.574-5.4375-27.254 15.707-33.266 67.117-42.551 114.48-35.426 0.070313 17.16-1.7656 36.266 5.4375 46.332 27.254-22.727 55.5-44.398 92.664-57.254-1.7656 37.246 36.336 33.07 59.953 38.16 32.531-43.777 96.086-56.555 149.89-79.02 25.367 12.012 49.633 19.223 84.48 13.609v8.1953c-7.9805 12.898-35.258 6.5156-54.492 8.1719-33.156-31.32-143.55 23.27-166.25 54.516-0.33594 22.199 11.387 48.504 16.344 65.398-24.793-6.2539-29.652-30.492-29.988-54.504-24.324-10.188-68.293-0.71875-68.137-35.426-30.648 9.3242-52.621 27.289-73.586 46.309 5.5938 16.223 22.285 21.324 32.711 32.711-1.9062 8.9883-4.3789 17.438-5.4375 27.254 5.0508 9.4688 11.027 18.059 24.527 19.066 1.9688 7.4531-5.4258 5.4961-5.4609 10.906 28.391 1.4297 70.609-5.1602 70.836-27.254 65.449-20.508 127.23 3.6602 204.42-2.7344 46.453 24.359 94.895-4.0312 141.73-10.883-4.043 20.473-34.031 15.012-43.645 29.953-34.535 0-82.848 15.48-103.55-5.4258-45.973 16.754-85.906-16.934-130.82-5.4609-4.043 5.0391-5.1953 12.949-5.4258 21.793-7.6094-12.66-7.0938 16.703-8.1836 27.266 5.9023 0.45703 1.2227-9.6836 2.7227-13.645 12.551 19.945 8.2422 56.148 8.1719 81.758 37.766-11.461 77.09 14.664 103.56 5.4492 15.238 17.508 14.93 50.484 32.711 65.41 22.934-6.1328 56.316-1.8242 73.586-13.633 2.4492 4.8359 7.6445 6.9258 5.4727 16.344-9.3711 5.1719-27.887 1.1875-38.184 5.4609 58.465-5.2305 117.43-0.82812 125.36 57.238 13.176-0.69531 25.246 11.629 40.883 0-6.6484 30.145-44.52 14.641-54.492 2.7344-15.938-18.984-7.8594-36.73-27.277-46.32-25.176-12.527-52.922 2.5938-87.191-2.7461-3.7695-1.6914-0.40625-10.5-5.4609-10.895-13.141 1.3789-21.145 7.8945-38.148 5.4375-12.48-12.938-18.961-31.883-24.527-51.77-27.648-8.543-42.984-25.223-76.297-21.793 1.1523 12.457 4.1406 23.113 2.7109 38.16-8.8438-3.7188-13.906-17.102-5.4609-24.539-1.1172-8.8672-12.961-7.0195-19.066-10.895-5.9648 10.094 4.9219 23.137 5.4609 35.438-19.57-0.12109-50.27-6.7305-76.297-10.906-11.23 16.945-21.215 35.137-27.277 57.227 12.961 12.312 31.621 40.559 51.77 54.516 0.17969 23.688-6.0352 35.016-8.1484 43.598-17.172-5.0039 1.5703-21.625-2.7461-38.148-42.48 19.836-118.64 13.57-138.97 62.688 1.7656 2.7617 6.2539 2.8086 5.4375 8.1719-7.7031 0.46875-11.34 5.0039-19.066 5.4492 1.8359 13.656-2.5078 21.109-2.7109 32.711-12.996 8.7969-28.633 15-43.598 21.793-49.777-23.926-110.95 32.27-152.62 16.418zm-27.242-327.04c-13.934-2.1133-15.238 8.3984-19.066 16.344 8.7227-3.082 19.078-4.5234 19.066-16.344zm283.44-76.297c-36.539-10.906-6.2539-55.344-40.883-68.137-10.066 0.80469-4.3789 17.438-19.066 13.621 14.281-28.055-13.297-50.566-8.1719-76.297-36-0.79297-66.875 10.754-92.664 27.254 23.039 24.422-5.6289 56.891-24.527 65.41 37.32 18.301 22.094 70.379-19.066 62.688 10.957-4.2734 21.648-37.645 29.965-19.094 2.2695-24.047-13.738-29.855-24.527-40.859-10.117 6.5625-30.59 22.957-40.883 5.4492 7.6562-12.156 28.02-10.945 32.711-19.094-50.387-34.441-93.984 32.258-133.54 57.238-1.1875 12.434 2.7461 30.012-2.7109 38.16 19.367 0.53906 49.141-14.137 59.953 2.7227-6.4062 12.66 6.7422 19.871 10.906 29.988 6.4336-12.66 24.445-13.727 32.688-24.527-4.6094 0.61328-6.7305-3.0703 0-2.7344 4.7383 8.832 7.1641-7.0781 16.355-2.7344-0.20312 4.7539 0.61328 8.4727 2.7109 10.895 18.625-2.2812 26.699-15.098 40.922-21.793 2.375-8.7461-9-3.7305-8.2188-10.906 25.066-4.2617 61.992-14.82 84.516-5.4375 4.9219 2.0508 5.6641 11.832 8.1484 13.645 29.797 21.137 70.742-28.676 95.379-35.457zm136.26 49.031c1.1172 11.617 1.2461 24.191 5.4609 32.723 0.37109-11.398-1.9336-34.281-5.4609-32.723zm-228.92 204.41c5.7617 24.227 27.312 32.652 29.965 59.953 21.887-4.3438 20.902-23.605 38.172-35.426 30.203-20.664 77.629-10.703 106.3-35.438-26.125-21.816-48.59-59.102-19.105-92.641-6.7578-3.5508-11.293 7.9922-13.609 0 5.5312-2.9766 17.293-6.8984 10.883-13.633-39.086-7.957-84.035 2.5312-117.19 21.793 11.398 23.891-5.7969 49.906-32.711 51.781 2.375 11.258 8.543 18.73 10.934 29.988-2.125 6.9492-13.562 4.6328-13.633 13.621zm-158.08 103.56c-1.6328-8.5781-5.2578-27.875-10.883-16.344-5.543-13.645-2.0039-34.645 0-49.066-41.375 8.1719-85.98-2.6992-98.125-32.688-38.172 29.641-123.62-6.7695-111.74 62.688 22.02-13.512 33.266 30.07 59.965 29.977 14.387 38.594 53.953 33.145 89.93 16.344 6.2891-15.168 6.0234-26.125 16.355-32.723 11.027 3.0859-0.22656 15.91 0 24.527 12.945 2.5312 52.402-4.2031 54.5-2.7148zm0 38.172c68.195-17.844 127.64-22.152 179.86-32.734 0.61328-2.1016 0.097656-5.3516 2.7461-5.4492 0.023437-44.496-18.434-72.574-40.883-100.82 4.3789-8.3633 14.461-10.98 16.355-21.793-3.0469-6.9375-6.7188-13.285-10.895-19.066-46.824 10.02-67.512 4.2734-106.3 13.621-2.4102 18.73 5.0508 27.637 10.895 38.137-11.496 6.6836-21.961 14.363-38.137 16.367-23.879 15.684-11.004 50.641-10.906 73.57 9.2773 3.5625 19.02-6.0469 21.805 0-19.176 9.8516-33.32 10.441-24.539 38.172zm588.67-294.35c-1.9336-7.1289-8.8906-9.2773-10.883-16.344-2.1836 9.4453 4.0664 10.477 2.7109 19.078-10.273-5.0508-19.367 3.0352-19.066 16.332 1.5977 7.6914 23.746 20.184 27.254 8.1836-2.4492-5.6992-15.371-0.96094-16.355-8.1836 2.2891-9.4883 7.582-16.004 16.34-19.066zm19.059 237.1c-17.137-25.547-55.906-29.473-81.742-46.332-3.1914-44.953-43.223-53.062-59.941-84.469 9.707-12.086 30.863-12.719 32.676-32.711-34.066 10.164-54.73 46.152-103.56 32.711-18.215 12.938-37.727 61.078-21.77 81.742 1.4141-24.336 6.1797-63.047 29.953-70.812 13.945-4.6094 29.891 9.7812 46.344-2.7344-1.3203 8.5781 8.3398 6.1562 5.4258 16.332 15.07-0.52734-12.66-14.387 2.7461-16.332 19.176 37.164 58.078 44.699 57.238 84.48 18.383 7.8945 31.656 21 49.031 29.977 52.727 0.85156 39.156 68.039 84.48 76.297 1.1875 5.1719 5.8672 6.8516 5.4609 13.645 8.2188 4.4883 22.223 3.2031 24.527 13.609-9.6367 2.3984-14.039-7.0078-16.344 2.7344 7.2461 7.043 25.68 5.125 32.711-2.7344-16.633-32.891-84.695-41.844-68.137-89.93 35.664 2.6172 51.324-15.156 73.559-24.527 13.871-5.8555 29.148-2.5781 38.172-16.355-48.73-4.082-77.156 35.375-130.83 35.41zm-621.36-128.08c0.50391-4.043 6.6016-2.5195 10.906-2.7344 1.0664-13.883-9.7578-26.977-21.793-19.078-3.2891 13.285 10.824 9.1562 10.895 19.078-1.4922 0-3.0898 2.2188-0.007813 2.7344zm594.12-343.38c6.3711-4.4141 22.129 5.0273 24.527 13.609-10.078 5.4961-10.992 22.801 2.7227 24.539-7.8359 1.2617-14.629 11.797-8.1836 19.066 15-3.1797 20.352-15.996 24.539-29.965-3.4688-7.0664-16.285 2.0898-16.355-2.7461 2.9141-5.2578 9.2539-7.1172 13.645-10.895-15.91-19.199 27.852-17.508 8.1836-40.871 5.3867-3.6953 10.586-7.5703 8.1719-19.066 24.84-4.8828 42.48-9.6484 62.676-13.633-2.1133 13.008 5.6992 16.105 16.379 16.332-12.145-11.785 6.3828-11.855 5.4258-27.254-39.516 2.9141-69.215 7.0312-100.82 21.816 13.586 43.102-46.676 13.738-40.906 49.066zm-610.46 158.06c8.8438 1.5703 12.672-1.8594 19.094-2.7344 1.5977 5.6641 5.6992 8.7969 8.1602 13.645 6.4336 0.046875 8.0273-4.7266 16.367-2.7344 1.1172-12.863 1.7656-16.129 8.1602-27.266-18.707-5.4375-45.793 2.8438-51.781 19.09zm264.36 411.5c-25.453-47.027-115.7 7.4414-152.62-10.906 5.3633-10.043 13.945-16.934 13.645-32.699-3.4922-0.15625-3.793-3.5039-8.207-2.7344-10.859 38.184-39.359 58.754-46.309 100.85-13.883 6.0977-25.246 14.734-30 29.965 7.1289 6.2539 32.102 15.215 32.711-2.7344-3.9727-1.4766-14.074 3.1914-13.645-2.7344 6.4219-16.477 23.93-8.7734 27.277-24.504 3.3594-8.832-8.8203-2.0898-5.4609-10.922 9.4688-12.312 13.262-30.324 24.527-40.859 44.617 19.066 117.64-42.07 149.89 8.1602 20.496 3.707 40.344-3.4453 54.492-5.4258 4.4414 6.4453 6.0703 15.742 8.1836 24.527 9.8633 1.2227 13.199 6.9961 21.805 2.6992-6.6836-11.484-18.121-18.203-19.066-35.41-22.824-6.9258-34.992 4.9883-57.227 2.7305z" fill-rule="evenodd"/>
</svg>
