<?xml version="1.0" encoding="UTF-8"?>
<svg width="1200pt" height="1200pt" version="1.1" viewBox="0 0 1200 1200" xmlns="http://www.w3.org/2000/svg">
 <path d="m839.71 395.99-52.727 51.238-154.14-278.15-177.17 351.48-108.49-94.992-334.52 535.37h1174.7zm-596.82 537.8h-57.672l70.859-93.395zm-98.637-0.30078-74.641 1.0078 263.46-434.55zm464.02-213.77v157.5l-120.3-188.64-52.738 40.285v-100.73l-79.094-157.5 148.31 131.87 26.363-10.992 140.07 137.35zm17.566-249.08-42.84 43.344-6.0352-25.645-79.094 81.805-29.113-30.527 164.24-316.22 6.5898 178.86 39.012 5.4961 79.645 148.96zm165.9 23.449 41.746-45.781 118.11 191.07-123.05-136.75 81.289 273.49z"/>
</svg>
