<?xml version="1.0" encoding="UTF-8"?>
<svg width="1200pt" height="1200pt" version="1.1" viewBox="0 0 1200 1200" xmlns="http://www.w3.org/2000/svg">
 <path d="m1123.2 1122h-16.406l-381.66-817.69c-3.3281-7.125-9.1875-12.328-16.172-15.188v-224.39c0-7.3594-5.9531-13.312-13.312-13.312s-13.312 5.9531-13.312 13.312v6.4688h-151.69c-5.3438 0-10.172 3.1875-12.234 8.0625-2.1094 4.875-1.0781 10.594 2.5781 14.438l39 41.062-39 41.062c-3.6562 3.8906-4.6875 9.5625-2.5781 14.438s6.9375 8.0625 12.234 8.0625h151.69v92.25c-4.7812 2.7188-8.8125 6.75-11.578 11.812l-210.32 377.58-32.766-58.875c-5.3906-9.6562-15.656-15.703-26.719-15.703-11.109 0-21.328 6-26.719 15.703l-279.1 500.9h-18.281c-7.3594 0-13.312 5.9531-13.312 13.312s5.9531 13.312 13.312 13.312h1046.4c7.3594 0 13.312-5.9531 13.312-13.312s-5.9531-13.312-13.312-13.312zm-416.58 0-159.89-287.06 37.969-45.375c2.625-3.1406 6.2812-4.9219 10.359-5.0625 4.0781 0.14062 7.875 1.3594 10.734 4.3125l30.562 31.5c8.1562 8.3906 19.594 12.844 31.266 12.375 11.719-0.5625 22.641-6.0938 29.953-15.234l21.609-26.906c2.625-3.2344 6.3281-5.1094 10.5-5.2969 4.1719-0.046875 8.0156 1.4062 10.875 4.4062l29.672 31.172c7.875 8.2969 18.562 12.609 30.469 12.703 11.438-0.23438 22.359-5.2969 29.906-13.922l28.828-32.906c5.0625-5.7656 13.969-6.4219 19.828-1.5l67.359 56.578 33 70.734h-30.844c-7.3594 0-13.312 5.9531-13.312 13.312s5.9531 13.312 13.312 13.312h43.312l21.516 46.125h-115.27c-7.3594 0-13.312 5.9531-13.312 13.312s5.9531 13.312 13.312 13.312h127.74l21.516 46.125h-218.58c-7.3594 0-13.312 5.9531-13.312 13.312s5.9531 13.312 13.312 13.312h231.05l17.391 37.312h-370.78zm-144.98-950.34 26.344-27.703c4.875-5.1562 4.875-13.219 0-18.375l-26.344-27.703h120.66v73.781zm132.37 143.72c0.98438-1.7344 2.5312-2.0156 3.5625-2.0156 1.0781 0.046876 2.5781 0.46875 3.4219 2.25l218.81 468.84-23.438-19.688c-16.922-14.203-42.469-12.234-57.047 4.3594l-28.828 32.906c-2.6719 3.0469-6.375 4.7344-10.406 4.8281-3.9844-0.09375-7.7812-1.5-10.594-4.4062l-29.672-31.172c-8.1094-8.5312-19.547-13.172-31.312-12.656s-22.781 6.0469-30.141 15.281l-21.609 26.906c-2.5781 3.2344-6.2812 5.1094-10.406 5.2969-4.2656 0.1875-7.9688-1.3594-10.875-4.3125l-30.562-31.5c-8.0625-8.2969-19.172-12.984-30.844-12.375-11.531 0.42188-22.406 5.7656-29.859 14.625l-31.406 37.547-57.188-102.66 218.34-391.97zm-547.6 769.36h259.26c7.3594 0 13.312-5.9531 13.312-13.312s-5.9531-13.312-13.312-13.312l-244.4-0.046875 25.688-46.125h148.97c7.3594 0 13.312-5.9531 13.312-13.312s-5.9531-13.312-13.312-13.312h-134.16l25.688-46.125h58.5c7.3594 0 13.312-5.9531 13.312-13.312s-5.9531-13.312-13.312-13.312h-43.641l23.016-41.297h13.172c7.3594 0 13.312-5.9531 13.312-13.312 0-6.8438-5.2031-12.234-11.812-13.031l117.38-210.71c0.98438-1.7344 2.5781-2.0156 3.4219-2.0156s2.4375 0.28125 3.4219 2.0156l271.78 487.92-550.36-0.14062 20.766-37.312z"/>
</svg>
