<?xml version="1.0" encoding="UTF-8"?>
<svg width="1200pt" height="1200pt" version="1.1" viewBox="0 0 1200 1200" xmlns="http://www.w3.org/2000/svg">
 <path d="m817.4 759.19c-93 0-202.5-25.875-325.4-76.922-143.34-59.531-262.74-71.531-345.37-34.688-69.141 30.844-115.92 87.422-122.34 97.453-6.2344 12.984-27.234 5.5781-23.953-8.4844 5.4844-92.344 44.016-161.9 111.52-201.28 121.69-69.328 297.1-33.047 428.34 31.922 159.42 61.5 308.76 112.41 437.86-3.8438 52.781-49.594 80.625-116.44 78.516-188.16 2.8594-169.45-200.44-248.29-322.22-158.81-11.016 7.875-25.594-6.4219-17.906-17.578 2.25-3.5156 56.766-86.766 161.34-109.64 250.26-51.281 369.1 243.19 271.4 449.29-56.156 134.16-186.79 221.06-331.78 220.74zm-792.42-15.844v0.046875zm230.58-142.22c71.109 0 154.26 19.266 246.24 57.469 119.77 49.734 225.98 74.953 315.56 74.953 134.68 0.32812 255.98-80.391 308.16-204.98 88.828-187.64-12.094-460.36-242.26-414.42-42.094 9.1875-75.516 29.766-99.609 49.734 155.58-40.5 293.81 50.672 298.55 210.52 2.3438 78.047-29.203 153.71-86.578 207.61-136.64 124.18-297.1 74.953-465.66 8.7188-151.4-75.094-311.02-88.359-405.24-33.281-50.672 29.578-82.266 76.922-94.125 141.14 23.672-23.906 60.188-54.188 105.52-74.391 34.547-15.375 74.625-23.062 119.44-23.062z"/>
 <path d="m820.4 539.72c-61.359 0-136.45-28.031-218.16-58.547-76.453-28.547-163.08-60.891-250.18-74.438-108-16.828-192.19 2.1562-243.84 21.047-56.062 20.484-87 45.281-87.281 45.562-5.4844 4.4531-13.547 3.6562-18.047-1.8281-4.4531-5.4844-3.6562-13.547 1.8281-18 1.3594-1.125 33.797-27.328 93.516-49.312 54.656-20.156 143.76-40.453 257.76-22.734 89.672 13.969 177.61 46.781 255.19 75.75 133.45 49.828 238.82 89.203 293.48 19.172 51.609-66.141-6.0469-154.36-6.6094-155.26-3.9375-5.9062-2.3438-13.828 3.5625-17.766s13.828-2.3438 17.766 3.5625c2.8125 4.2188 68.344 104.67 5.4844 185.26-26.859 34.359-62.438 47.531-104.48 47.531z"/>
 <path d="m468.94 1135.9c-8.9062 0.1875-15.469-9.6094-11.812-17.812 48.281-114.61 43.078-217.64-14.578-290.02-94.359-123.47-307.82-101.95-354.28 56.719-2.25 6.7031-9.5625 10.312-16.266 8.0156-6.7031-2.25-10.312-9.5625-8.0156-16.266 51.984-177.74 292.45-203.53 398.58-64.453 36.938 46.359 88.406 149.11 18.141 315.94-1.9688 4.9219-6.75 7.875-11.766 7.875z"/>
 <path d="m609.79 1125.1c-8.2969 0.09375-14.719-8.2031-12.375-16.219 38.859-141.1-4.6406-277.45-46.266-325.18-4.6406-5.3438-4.125-13.453 1.2188-18.094s13.453-4.125 18.094 1.2188c66.609 93.047 84.703 209.34 51.703 348.84-1.5938 5.7188-6.75 9.4219-12.375 9.4219z"/>
 <path d="m372.32 1012c-9.6094 0.23438-16.172-11.109-11.016-19.312 27.234-43.125 13.734-109.12-31.5-132.71-36.094-19.266-83.672-8.7188-113.16 25.078-4.6406 5.3438-12.75 5.9062-18.094 1.2188-5.3438-4.6406-5.9062-12.75-1.2188-18.094 37.266-42.703 98.062-55.688 144.56-30.844 57.984 29.906 75.984 113.16 41.531 168.32-2.4375 4.0781-6.7031 6.3281-11.109 6.3281z"/>
 <path d="m799.45 862.31c-65.906 0-111-11.578-113.48-12.234-6.8438-1.7812-10.922-8.8125-9.1406-15.656s8.8125-10.969 15.656-9.1406c0.75 0.1875 76.312 19.5 172.74 7.3125 128.39-16.266 231.14-77.719 305.34-182.68 4.0781-5.7656 12.094-7.125 17.859-3.0469 5.7656 4.0781 7.1719 12.094 3.0469 17.859-124.45 164.11-252.94 192.28-392.02 197.58z"/>
 <path d="m12.938 341.86c-11.578 0.42188-17.531-15.703-8.0625-22.781 5.0156-4.0312 125.48-97.922 400.97-49.031 164.29 39.609 239.26-130.36 241.97-205.92 0.65625-7.0312 6.8906-12.281 13.922-11.625s12.234 6.8438 11.625 13.922c-2.7188 89.391-92.016 271.5-272.02 228.84-174.42-28.688-293.72-10.781-380.44 43.781-2.3438 1.9219-5.1562 2.8125-7.9688 2.8125z"/>
 <path d="m1011.7 1113c-4.4531 0-8.7656-2.2969-11.109-6.4219-69.75-121.45-188.81-151.13-190.03-151.45-6.8906-1.6406-11.156-8.5312-9.5156-15.422 1.6406-6.8906 8.5312-11.156 15.422-9.5156 5.2969 1.2656 130.82 32.203 206.34 163.6 5.0156 8.25-1.5938 19.453-11.109 19.219z"/>
 <path d="m411.71 206.44c-16.312 0-27.656-1.875-28.922-2.0625-5.4375-0.9375-9.6562-5.2031-10.5-10.641-0.5625-3.6094-13.406-89.016 36.656-134.02 61.406-55.266 131.81-36.141 134.76-35.297 4.5469 1.3125 8.0156 5.0156 9.0469 9.6562 0.70312 3.1875 16.312 79.078-35.766 134.02-30.75 32.297-75.984 38.344-105.28 38.344zm-15.094-26.297c21 1.6406 71.766 1.875 101.72-29.719 33.938-35.812 32.625-84.047 30.516-102.94-17.812-2.7656-62.531-4.9688-102.8 31.266-31.125 27.984-30.984 79.969-29.438 101.39z"/>
 <path d="m740.16 440.29c-67.875 0-115.69-66.328-117.75-69.188-3.1875-4.5-3.1406-10.5 0.09375-14.953 2.1562-2.9531 53.438-72.375 120.71-68.859 82.5 4.3594 118.73 67.641 120.24 70.312 2.2969 4.125 2.1562 9.2344-0.42188 13.219-1.7812 2.7656-44.391 67.453-120.1 69.469zm-90.844-76.547c13.453 15.75 48.328 50.906 90.844 50.906 0.70312 0 1.3594 0 2.0625-0.046875 49.031-1.3125 82.406-36.375 94.359-51.234-10.688-14.578-40.734-47.672-94.781-50.531-41.719-2.1562-78.422 34.641-92.484 50.906z"/>
 <path d="m1075.1 1009.7c-67.875 0-115.69-66.328-117.75-69.188-3.1875-4.5-3.1406-10.5 0.09375-14.953 2.1562-2.9531 53.391-72.375 120.71-68.859 82.5 4.3594 118.73 67.641 120.24 70.312 2.2969 4.125 2.1562 9.2344-0.42188 13.219-1.7812 2.7656-44.391 67.453-120.1 69.469zm-90.844-76.547c13.688 16.031 49.547 52.078 92.953 50.906 49.031-1.3125 82.406-36.375 94.359-51.234-10.688-14.578-40.734-47.672-94.781-50.531-41.812-2.25-78.469 34.594-92.531 50.859z"/>
 <path d="m839.9 1179.5c-27.844 0-69.75-6.375-103.64-38.484-50.391-47.719-36.938-130.64-36.328-134.16 0.9375-5.4375 5.2031-9.6562 10.641-10.5 3.6094-0.5625 89.016-13.406 134.06 36.609 55.266 61.406 36.141 131.76 35.297 134.76-1.3125 4.5469-5.0156 8.0156-9.6562 9.0469-1.2188 0.28125-13.125 2.7188-30.375 2.7188zm-115.73-158.76c-1.6406 21-1.875 71.766 29.719 101.67 35.578 33.703 84 32.484 102.94 30.469 2.7656-17.859 4.9219-62.484-31.266-102.7-27.984-31.125-79.969-30.984-101.39-29.438z"/>
 <path d="m234.24 1125.4c-95.344 5.3438-135.42-97.969-135.79-136.5-0.51562-5.4844 2.5312-10.688 7.5469-12.891 3.3281-1.5 82.5-36 138.98 0.70312 69.281 45 69.047 117.94 69 121.03-0.046874 4.7344-2.7656 9.0469-6.9844 11.203-1.9219 0.98438-32.812 16.453-72.75 16.453zm-108.8-129.37c3.8438 20.719 16.781 69.797 55.031 90.516 43.125 23.344 89.578 9.6562 107.34 2.8125-1.9688-17.953-11.438-61.641-56.812-91.125-35.109-22.828-85.312-9.2812-105.56-2.2031z"/>
</svg>
