<?xml version="1.0" encoding="UTF-8"?>
<svg width="1200pt" height="1200pt" version="1.1" viewBox="0 0 1200 1200" xmlns="http://www.w3.org/2000/svg">
 <path d="m171.74 416.21c-10.781 12.281-29.438 13.453-41.719 2.6719s-13.453-29.484-2.6719-41.719c34.078-38.766 83.156-60.984 134.76-61.031 67.5 0 99.938 29.344 132.42 58.688 23.859 21.609 47.766 43.219 92.812 43.219 45.094 0 68.953-21.609 92.859-43.219 32.438-29.344 64.922-58.688 132.37-58.688 67.453 0 99.891 29.344 132.37 58.688 23.906 21.609 47.812 43.219 92.859 43.219 17.391 0 34.266-3.7031 49.641-10.641s29.297-17.203 40.734-30.234h0.046875c10.922-11.578 29.062-12.375 41.016-1.875s13.453 28.594 3.375 40.922c-34.078 38.719-83.156 60.984-134.76 61.031-67.5 0-99.938-29.344-132.42-58.688-23.859-21.609-47.766-43.219-92.812-43.219s-68.953 21.609-92.859 43.219c-32.484 29.344-64.922 58.688-132.37 58.688-67.453 0-99.891-29.344-132.32-58.688-23.906-21.609-47.812-43.219-92.906-43.219-17.391 0-34.266 3.7031-49.594 10.641-15.375 6.9375-29.297 17.203-40.734 30.234zm0 203.34c-10.781 12.281-29.438 13.453-41.719 2.6719s-13.453-29.484-2.6719-41.719c34.078-38.719 83.156-60.938 134.76-61.031 67.5 0 99.938 29.344 132.42 58.688 23.859 21.609 47.766 43.219 92.812 43.219 45.094 0 68.953-21.609 92.859-43.219 32.438-29.344 64.922-58.688 132.37-58.688 67.453 0 99.891 29.344 132.37 58.688 23.906 21.609 47.812 43.219 92.859 43.219 17.391 0 34.266-3.7031 49.641-10.641s29.297-17.203 40.734-30.234l0.046875-0.046875c10.875-11.906 29.297-12.938 41.391-2.25 12.141 10.688 13.453 29.062 3 41.391-34.125 38.672-83.203 60.891-134.76 60.938-67.5 0-99.938-29.344-132.42-58.688-23.859-21.609-47.766-43.219-92.812-43.219s-68.953 21.609-92.859 43.219c-32.484 29.344-64.922 58.688-132.37 58.688-67.453 0-99.891-29.344-132.32-58.688-23.906-21.609-47.812-43.219-92.906-43.219-17.391 0-34.266 3.7031-49.594 10.641-15.375 6.9375-29.297 17.203-40.734 30.234zm0 203.34c-10.781 12.281-29.438 13.453-41.719 2.6719s-13.453-29.484-2.6719-41.719c34.078-38.719 83.156-60.938 134.76-61.031 67.5 0 99.938 29.344 132.42 58.688 23.859 21.562 47.766 43.172 92.812 43.172 45.094 0 68.953-21.609 92.859-43.172 32.438-29.344 64.922-58.641 132.37-58.641 67.453 0 99.891 29.344 132.37 58.641 23.906 21.609 47.812 43.172 92.859 43.172 34.594 0 67.547-14.859 90.422-40.828 5.1562-5.9062 12.469-9.4688 20.297-9.9844s15.516 2.1562 21.422 7.3125c12.281 10.781 13.453 29.484 2.6719 41.719-34.125 38.719-83.203 60.938-134.76 60.984-67.5 0-99.938-29.344-132.42-58.688-23.859-21.562-47.766-43.172-92.812-43.172s-68.953 21.609-92.859 43.172c-32.484 29.344-64.969 58.641-132.37 58.641-67.406 0-99.891-29.344-132.32-58.641-23.906-21.609-47.812-43.172-92.906-43.172-17.391 0-34.266 3.7031-49.594 10.688-15.375 6.9375-29.297 17.203-40.734 30.234"/>
</svg>
