<?xml version="1.0" encoding="UTF-8"?>
<svg width="1200pt" height="1200pt" version="1.1" viewBox="0 0 1200 1200" xmlns="http://www.w3.org/2000/svg">
 <path d="m605.33 85.332-518.66 421.34v602.67h1037.3v-602.67zm-236 236 218.67-177.33v325.33h-218.67zm0 182.67h121.33l-121.33 121.33zm-33.332 572h-216v-250.67h214.67v250.67zm0-284h-216v-269.33l214.67-174.67v444zm505.33 284h-472v-402.67l170.67-170.67h133.33l166.67 166.67v406.67zm0-453.33-118.67-118.67h118.67zm0-153.34h-218.66v-325.33l218.67 177.33zm249.34 606.67h-216v-250.67h214.67l-0.003907 250.67zm0-284h-216v-444l214.67 174.67-0.003907 269.33z"/>
</svg>
