<?xml version="1.0" encoding="UTF-8"?>
<svg width="1200pt" height="1200pt" version="1.1" viewBox="0 0 1200 1200" xmlns="http://www.w3.org/2000/svg">
 <g>
  <path d="m1038 904.87c-69.984-60-92.016-144-122.02-198s-75.75-187.74-75.75-187.74l-42 57.75-29.25-22.5-21 38.25-15-22.5s-18-3.75-27 11.25-12.75 79.5-17.25 70.5-27.75-48.75-30.75-34.5-28.5 60.75-28.5 60.75-9.75-21.75-23.25-39.75-21-36-25.5-48.75-12.75-36-12.75-36-11.25 2.25-17.25 14.25-21.75 62.25-21.75 62.25-13.5-51-20.25-65.25-24.75-20.016-24.75-20.016-48 104.02-116.02 189.98c-67.969 86.016-237.98 195.98-237.98 195.98l-57.984 36s102 21.984 159.98 18c57.984-3.9844 96-20.016 96-20.016s-39.984 39.984-24 38.016c15.984-2.0156 45.984 3.9844 111.98 7.7812 66 3.75 98.016 0 98.016 0l-14.016-29.766s56.016 3.9844 129 21.844c72.984 17.859 89.016 0 89.016 0l-30-31.828s62.016 20.016 126 30c63.984 9.9844 314.02-24 314.02-24s-20.016-12-90-72zm-233.02-311.53c6 12.75 22.5 45 24.75 52.5s16.5 39.75 18.75 42.75 24 33.75 24 33.75l4.5 15s-20.25-21.75-27.75-29.25-24-45-24-45v36.75s-16.5-42.75-16.5-45-8.7656-39-8.7656-39l-6.9844 9s-0.75-36.75-19.5-61.5c0 0 25.5 17.25 31.5 30zm-379.5 270c-11.25 12.75-22.5 31.5-33 44.25s-50.25 35.25-72 45.75-48 17.25-48 17.25l-69.75 6.75s32.25-11.25 57-29.25 41.25-40.5 51.75-53.25 28.5-42.75 28.5-42.75-21.75 13.5-39 21.75-60.75 22.5-60.75 22.5l45.75-46.5s60-57.281 87-84.141 57.75-77.859 57.75-77.859l-33.75 30s40.5-54.75 52.5-74.25 24.75-50.25 24.75-50.25-5.25 42-10.5 58.5-4.5 24.75-13.5 40.5c-5.7656 10.125-11.484 20.25-17.156 30.422-1.875 3.375-14.719 22.5-5.3906 20.109 5.3438-1.4062 11.531-4.5 16.453-7.0312 12.656-6.4688 21.562-14.766 31.078-25.078 7.8281-8.4844 15.844-16.781 23.766-25.172-5.0625 12.516-11.109 24.75-18.141 36.281-11.156 18.234-26.391 33.516-39.891 49.922-11.344 13.781-21.938 28.172-32.438 42.562-2.3438 3.1875-5.2969 6.6562-7.8281 9.4688-0.28125-1.8281-1.4062-18.891-2.1562-18.984-2.7188-0.46875-6.8438 5.4375-8.3438 7.0781-6.6094 7.3594-12.188 15.562-17.062 24.141-5.0156 8.8125-9.4688 18-13.125 27.469-3.2344 8.3438-9.0469 20.812-8.1562 29.812 17.719-8.3438 34.5-21.797 50.484-33.047 20.25-14.25 48.75-48.75 48.75-48.75-0.09375 0.046875-14.344 39.047-25.594 51.797zm84.75 9.75c-1.5 9.75-3.75 30-3.75 30l-7.5-19.5-10.5 35.25s-2.25 33 0 46.5 10.5 38.25 10.5 38.25-24-13.5-28.5-21.75-3-17.25-3-17.25l-14.25 3.75s3-22.5 9-36 8.25-27 8.25-27l-8.25-1.5s17.25-22.5 30-39.516 27-21.234 27-21.234-7.5 20.25-9 30zm39.75-148.22c-6.5156 8.4844-29.484 27.984-30 30-0.51562 2.0156 29.016-7.5 29.016-7.5s-9 10.5-22.5 23.016c-13.5 12.516-24.984 24-27.516 26.484-2.4844 2.4844-7.5-22.031 5.0156-40.5 12.516-18.516 24.516-32.016 29.484-47.484 5.0156-15.516 8.6719-26.484 8.6719-26.484l-22.172 21.516 5.0156-36.562s9.5156-28.5 12.984-42.516c3.5156-14.016 9-36.469 13.5-44.484 4.5-8.0156 11.016-17.016 11.016-17.016s-4.9688 17.531-5.4844 32.016c-0.51562 14.484 5.4844 41.016 5.4844 41.016l9.5156-21s-5.4844 21-5.4844 37.5 5.4844 17.484 5.4844 17.484l16.5-18.984s-8.4844 26.484-12.984 35.484c-4.5469 9-19.031 29.484-25.547 38.016zm151.03 273.98s-29.016-8.0156-42.984-21.516c-14.016-13.5-17.531-38.484-17.531-38.484l-8.4375 38.484-9-18.516-23.062 8.0156s3-20.016 0-29.016 0-30 0-30l-11.484 24.984s-7.5-45.984-8.4844-63.984 6.9844-54.984 8.4844-71.812c1.5-16.828 13.5-26.156 20.156-41.156s8.3438-26.016 8.3438-26.016 6 24.984 6 27.984 0.98438 24-2.0156 33.984c-3 9.9844-9.9844 21.984-12 39-2.0156 17.016 5.0156 39 5.0156 39v-27c0-9.9844 14.016-20.484 14.016-20.484s9 28.5 12 46.5 11.016 54 18 75c6.9844 21.047 42.984 55.031 42.984 55.031zm-14.016-198.52c-5.0156-7.5-29.016-42.516-29.016-42.516l15.984 5.4844s-2.0156-12-6-24-22.5-34.5-22.5-34.5l18 3.5156s-6.5156-12.516-5.4844-22.5c0.98438-9.9844 0-26.016 0-26.016l11.016 12s-9.9844-31.5-6-49.5c0 0 10.5 36 15.984 48.516 5.4844 12.516 11.484 27 12.984 42.984 1.5 15.984 0 24.984 0 24.984l-9.5156-19.5s2.5312 17.016 6.5156 32.016c4.0312 15.047 10.031 35.531 14.531 42.562 4.5 6.9844 14.484 28.5 14.484 28.5s-25.969-14.531-30.984-22.031zm168.98 99c-17.25-11.25-31.5-30.75-36.75-39s-25.5-30.75-25.5-30.75l-6.75 25.5s-9-19.5-9-38.25-0.75-55.5-0.75-55.5l-15 24s-5.25-30.609-5.25-42.656c0-12.094-0.75-54.094-0.75-54.094l-16.5 21s-2.25-18 0.75-39-2.25-51.75-2.25-51.75l-20.25 11.25s3-41.25 11.25-56.25c0 0 14.25 20.531 24.75 48.516 10.5 27.984 13.5 45.234 13.5 45.234l10.5 12.609s9 33.891 9.75 36.141-3 12.75 4.5 27 19.5 52.594 22.5 53.672c3 1.0781 24.75 27.328 25.5 30.328s30 60.75 39 75.75-6 7.5-23.25-3.75zm69.75-114c-6-8.25-20.25-43.359-21-42.656-0.75 0.65625-12.75-25.594-12.75-25.594l1.5 20.25s-11.25-39-16.5-53.25-9-52.5-9-52.5l-9.75 18.75s-8.25-19.5-9.75-31.5-1.5-37.5-1.5-37.5l-12 12s11.25-35.25 4.5-63.75c0 0 18.75 57.75 26.25 75s19.5 40.5 20.25 45.75 4.5 44.25 4.5 44.25l7.5-14.391s15 33.891 18 42.141 6.75 17.25 9.75 30 7.5 20.25 12.75 28.5 16.5 24 18 28.5-24.75-15.75-30.75-24zm136.26 171.52-18.516 3-19.5-15.984-11.016 21.984-15.984-47.016s-9.9844-36.984-12.984-42.984-3.9844-24-3.9844-24l15.984 24.984s32.016 33 44.016 46.5 66.984 47.484 66.984 47.484c-18.984 3.0469-45-13.969-45-13.969z"/>
  <path d="m628.5 670.87s-9.9844-19.734-15.984-28.5-9.9844-12.75-10.734-15.234 3-11.25 4.7344-12.516 11.484-12 11.484-12l8.7656-3.2344s6.9844 13.734 9.2344 15 6.75 3 7.7344 5.4844 7.5 7.7344 7.5 7.7344l-2.4844 7.5s-2.4844-7.2656-3.9844-8.7656-5.0156-5.25-6.75-6-6.2344-3.9844-6.75-5.4844-4.7812-9.2344-4.7812-9.2344-3.2812 9.75 0 14.766 4.5469 9.9844 5.2969 12c0.70312 1.9688 6.4688-1.7812 6.4688-1.7812l3 8.4844 5.7656-1.7344s-6.75 15.469-8.7656 18.984-9.75 14.531-9.75 14.531z"/>
  <path d="m634.36 500.81c-6.4688-28.312-13.547-51.375-38.438-93.562-14.719-24.984-36.516-46.406-62.016-59.484-26.25-13.5-63.609 14.906-21 39.75 51.375 29.953 82.5 55.453 121.45 113.3z"/>
  <path d="m639.94 426.74c1.8281-19.453 2.1094-35.672-4.9688-67.875-4.1719-19.031-13.594-37.312-27.141-51.047-13.969-14.156-43.781-3.8438-21.75 21 26.531 29.953 41.062 52.781 53.859 97.922z"/>
  <path d="m551.86 322.74c-10.922-14.578-20.906-25.969-45.938-43.828-14.812-10.547-32.766-17.25-50.719-18.281-18.516-1.0312-32.672 24.75-1.875 28.125 37.078 4.125 61.453 10.781 98.531 33.984z"/>
  <path d="m554.63 459.47c-10.172-9.75-19.219-17.203-40.594-27.656-12.656-6.1875-27.188-9.0469-41.016-7.5469-14.25 1.5469-21.797 23.016 2.1094 21.703 28.875-1.5469 48.281 0.46875 79.5 13.5z"/>
  <path d="m628.55 305.53c2.0625-18.094 2.7188-33.234-3.2344-63.422-3.5156-17.859-11.953-35.062-24.281-48.141-12.75-13.453-40.734-4.4531-20.719 19.125 24.141 28.5 37.219 50.062 48.234 92.438z"/>
  <path d="m708.32 505.36c8.5781-21.188 16.875-38.25 40.828-67.828 14.156-17.531 32.953-31.406 53.344-38.344 21-7.125 44.344 19.734 9.8906 33.609-41.578 16.734-67.734 32.578-104.06 72.562z"/>
  <path d="m746.11 290.53c9.8438-13.734 18.797-24.516 41.109-41.578 13.219-10.125 29.156-16.781 44.953-18.234 16.312-1.4531 28.406 21.891 1.2188 25.828-32.672 4.7812-54.234 11.625-87.281 33.984z"/>
  <path d="m732.1 522.24c7.0312-9.8438 13.453-17.531 29.438-29.812 9.4688-7.2656 20.859-12.047 32.203-13.031 11.672-1.0312 20.344 15.656 0.89062 18.516-23.438 3.4219-38.859 8.2969-62.531 24.328z"/>
  <path d="m695.26 449.72c1.8281-21.047 4.5469-38.391 17.672-71.484 7.7344-19.547 20.578-37.359 36.703-49.594 16.594-12.609 44.438 3.6094 17.812 26.203-32.156 27.281-50.953 49.031-72.188 94.875z"/>
  <path d="m665.58 375.28c-3.2812-25.5-4.5-46.875 2.5312-89.578 4.1719-25.266 14.812-49.781 30.797-68.484 16.453-19.312 53.812-7.2188 27.938 26.531-31.172 40.781-47.906 71.531-61.266 131.53z"/>
  <path d="m626.44 532.97c-14.906-14.062-28.078-24.75-59.203-39.656-18.422-8.8125-39.562-12.797-59.625-10.5-20.625 2.3906-31.359 33.656 3.2812 31.5 41.906-2.625 70.078 0.09375 115.55 18.656z"/>
  <path d="m680.76 450.56c0 11.859-17.812 11.859-17.812 0s17.812-11.859 17.812 0"/>
  <path d="m566.34 281.68c0 11.859-17.766 11.859-17.766 0s17.766-11.859 17.766 0"/>
  <path d="m660.14 555.37c0 11.859-17.766 11.859-17.766 0s17.766-11.859 17.766 0"/>
  <path d="m699.24 517.45c0 18.234-27.375 18.234-27.375 0 0-18.281 27.375-18.281 27.375 0"/>
  <path d="m664.92 216.98c0 18.234-27.375 18.234-27.375 0 0-18.281 27.375-18.281 27.375 0"/>
  <path d="m593.76 473.16c0 18.234-27.422 18.234-27.422 0 0-18.281 27.422-18.281 27.422 0"/>
 </g>
</svg>
