<?xml version="1.0" encoding="UTF-8"?>
<svg width="1200pt" height="1200pt" version="1.1" viewBox="0 0 1200 1200" xmlns="http://www.w3.org/2000/svg">
 <path d="m1181.8 778.18c-87.273-9.6953-176.97-48.484-261.82-87.273-15.758-7.2734-32.727-3.6367-43.637 6.0625-36.363 35.152-83.637 65.453-143.03 93.332h-1.2109c-169.7-13.332-275.15-41.211-322.43-83.637-15.758-15.758-21.816-30.305-18.184-41.211 8.4844-31.516 80-54.547 136.97-72.727 58.184-18.184 105.45-33.938 110.3-59.395v-4.8477c144.24 80 298.18 141.82 460.61 181.82 6.0625 1.2109 10.91-2.4258 12.121-7.2734 1.2109-6.0625-2.4258-10.91-7.2734-12.121-164.85-41.211-322.43-104.24-467.88-186.67-16.969-9.6953-37.574-10.91-53.332-4.8477-27.879 10.91-56.969 20.605-86.062 31.516 12.121-24.242 19.395-50.91 19.395-77.574 0-92.121-75.152-168.48-168.48-168.48s-168.48 75.152-168.48 168.48c0 69.09 41.211 129.7 103.03 155.15-83.637 30.305-170.91 60.605-260.61 92.121-4.8477 2.4258-8.4844 7.2734-6.0625 13.332 1.2109 3.6367 6.0625 7.2734 9.6953 7.2734h3.6367c206.06-71.516 400-141.82 561.21-202.43 6.0625-2.4258 13.332-3.6367 20.605-2.4258 2.4258 2.4258 7.2734 7.2734 7.2734 12.121-3.6367 14.547-55.758 31.516-96.969 44.848-46.062 14.547-92.121 29.09-121.21 49.695-1.2109 0-2.4258 0-3.6367 1.2109-35.152 19.395-69.09 42.426-101.82 63.031-73.938 48.484-149.09 98.184-238.79 122.43-6.0625 1.2109-8.4844 7.2734-7.2734 12.121 1.2109 4.8477 4.8477 7.2734 9.6953 7.2734h2.4258c94.551-26.664 172.12-77.574 247.28-126.06 20.605-13.332 42.426-26.668 63.031-40-2.4258 18.184 4.8477 37.574 24.242 58.184 47.273 43.637 141.82 71.516 296.97 87.273-44.848 18.184-94.547 33.938-152.73 48.484-6.0625 1.2109-8.4844 7.2734-7.2734 12.121 1.2109 4.8477 4.8477 7.2734 9.6953 7.2734h2.4258c146.67-37.574 249.7-83.637 321.21-143.03 8.4844 16.969 33.938 29.09 65.453 44.848 33.938 16.969 76.363 37.574 81.211 61.816 1.2109 9.6953-3.6367 21.816-14.547 33.938-37.574 35.152-118.79 56.969-220.61 83.637-78.789 21.816-167.27 44.848-267.88 82.426-4.8477 2.4258-8.4844 8.4844-6.0625 13.332 1.2109 3.6367 6.0625 7.2734 9.6953 7.2734 1.2109 0 2.4258 0 3.6367-1.2109 98.184-36.363 187.88-59.395 265.45-81.211 107.88-29.09 190.3-50.91 232.73-89.695 16.969-16.969 23.031-33.938 19.395-50.91-6.0625-33.938-54.547-58.184-94.547-77.574-24.242-12.121-55.758-27.879-56.969-37.574 0-2.4258 2.4258-6.0625 4.8477-8.4844 4.8477-4.8477 13.332-6.0625 20.605-2.4258 86.062 40 178.18 78.789 269.09 89.695 6.0625 1.2109 10.91-3.6367 10.91-9.6953 3.6484-8.4883 0.011718-13.336-6.0508-13.336zm-867.88-181.82c-65.453-15.758-112.73-75.152-112.73-144.24 0-81.211 66.668-146.67 146.67-146.67s146.67 66.668 146.67 146.67c0 31.516-9.6953 63.031-29.09 89.695-48.488 18.184-99.395 36.367-151.52 54.547 1.2148 0 0 0 0 0z"/>
</svg>
