<?xml version="1.0" encoding="UTF-8"?>
<svg width="1200pt" height="1200pt" version="1.1" viewBox="0 0 1200 1200" xmlns="http://www.w3.org/2000/svg">
 <g>
  <path d="m641.07 584.1c35.117-35.27 7.6133-106.29-40.246-158-35.934 38.523-58.125 84.562-57.102 119.3 0.47656 16.133 6.0273 29.023 16.473 38.297 9.1133 8.0898 19.305 13.172 30.367 15.262l-0.003906-111.37c0-5.1836 4.1914-9.375 9.375-9.375s9.375 4.1914 9.375 9.375v111.96c12.027-1.5742 23.297-6.9531 31.762-15.465z"/>
  <path d="m669.7 720.85c9.6758 6.9375 20.625 10.5 33.367 10.5 59.43 0 82.266-73.594 84.234-140.45-70.633 2.5781-140.48 33.656-140.48 84.195 0 12.289 3.375 23.492 9.543 32.512 15.355-17.195 52.266-57.309 87.59-86.598 3.9844-3.3203 9.9102-2.7578 13.199 1.2266 3.3086 3.9922 2.7578 9.8984-1.2266 13.199-34.504 28.609-71.684 69.137-86.223 85.41z"/>
  <path d="m221.41 1106.4c-18.523 38.711-16.172 53.07-12.977 58.246 3.1602 5.1016 11.137 7.3789 25.875 7.3789h731.25c14.727 0 22.715-2.2773 25.875-7.3789 3.1953-5.1758 5.5508-19.539-12.977-58.246z"/>
  <path d="m978.46 93.852c18.523-38.711 16.172-53.07 12.977-58.246-3.1602-5.1016-11.137-7.3789-25.875-7.3789h-731.25c-14.727 0-22.715 2.2773-25.875 7.3789-3.1953 5.1758-5.5508 19.539 12.977 58.246z"/>
  <path d="m428.65 889.2c18.262-16.883 52.754-27.441 75.891-18.957 23.578-19.473 57.891-25.219 86.023-26.195v-35.98c-7.0039-19.18-33.188-54.113-48.148-72.805-13.125 9.8047-28.398 14.852-45.602 14.852-76.117 0-103.12-90.898-103.12-168.75 0-5.1836 4.1914-9.375 9.375-9.375 81.805 0 168.75 36.141 168.75 103.12 0 17.973-5.5859 34.387-15.797 47.156 7.6875 9.5547 22.34 28.312 34.547 46.961l0.003906-151.27c-15.75-2.2422-30.133-8.9727-42.816-20.23-14.258-12.676-22.125-30.57-22.762-51.77-1.2383-41.746 25.941-96.695 69.234-140 1.7617-1.7617 4.1328-2.7461 6.6289-2.7461h0.007812c2.4922 0 4.8828 0.99219 6.6367 2.7656 57.535 57.789 93.523 144.5 46.875 191.34-11.973 12.02-28.039 19.5-45.055 21.168v150.72c12.234-18.695 26.914-37.473 34.547-46.969-10.211-12.77-15.797-29.184-15.797-47.148 0-66.984 86.945-103.12 168.75-103.12 5.1836 0 9.375 4.1914 9.375 9.375 0 77.852-27.008 168.75-103.12 168.75-17.195 0-32.465-5.0352-45.602-14.852-14.887 18.602-41.137 53.605-48.148 72.816v35.98c28.125 0.97656 62.438 6.7227 86.016 26.176 22.996-8.4648 57.508 2.0703 75.883 18.984 15.262-5.2227 30.16-7.8672 44.352-7.8672 12.555 0 25.312 1.7812 37.52 5.1484l-0.019532-642.64h-506.25v642.63c12.207-3.3672 24.957-5.1367 37.5-5.1367 14.191 0 29.09 2.6445 44.332 7.8555z"/>
  <path d="m455.93 621.01c35.371 29.324 72.32 69.508 87.59 86.605 6.168-9.0273 9.543-20.223 9.543-32.512 0-50.551-69.852-81.617-140.48-84.195 1.9688 66.863 24.805 140.45 84.234 140.45 12.75 0 23.699-3.5625 33.375-10.492-14.445-16.172-51.684-56.766-86.242-85.414-3.9844-3.3086-4.5273-9.207-1.2266-13.199 3.3008-3.9844 9.1992-4.5469 13.211-1.2383z"/>
  <path d="m976.55 112.6h-753.23c-31.93 159.01-47.055 322.92-44.773 487.37-2.2773 164.7 12.844 328.62 44.773 487.63h753.23c31.941-159 47.062-322.9 44.785-487.37 2.2773-164.73-12.844-328.63-44.785-487.63zm-67.246 853.12c0 25.848-21.027 46.875-46.875 46.875h-525c-25.848 0-46.875-21.027-46.875-46.875v-731.25c0-25.848 21.027-46.875 46.875-46.875h525c25.848 0 46.875 21.027 46.875 46.875z"/>
  <path d="m862.43 206.35h-525c-15.508 0-28.125 12.617-28.125 28.125v731.25c0 15.508 12.617 28.125 28.125 28.125h525c15.508 0 28.125-12.617 28.125-28.125v-731.25c0-15.516-12.617-28.125-28.125-28.125zm9.375 750c0 10.34-8.4102 18.75-18.75 18.75h-506.25c-10.34 0-18.75-8.4102-18.75-18.75v-712.5c0-10.34 8.4102-18.75 18.75-18.75h506.25c10.34 0 18.75 8.4102 18.75 18.75z"/>
  <path d="m815.56 900.09c-13.715 0-28.352 2.9453-43.527 8.7578-1.0859 0.42188-2.2227 0.61719-3.3477 0.61719-2.7109 0-5.3516-1.1797-7.1719-3.3359-13.715-16.293-48.449-25.539-62.98-16.762-3.6562 2.2227-8.3633 1.668-11.41-1.3203-16.762-16.406-47.719-25.445-87.16-25.453-0.019532 0-0.027344 0.007813-0.039063 0.007813-0.007813 0-0.027344-0.007813-0.039063-0.007813-39.43 0.007813-70.379 9.0391-87.16 25.453-3.0547 2.9805-7.7148 3.5352-11.363 1.3516-14.711-8.7734-49.426 0.44141-63 16.707-2.5508 3.0859-6.8047 4.1914-10.555 2.7461-15.148-5.8047-29.793-8.7578-43.52-8.7578-12.617 0-25.426 2.1562-37.5 6.0547v50.203h506.27v-50.203c-12.051-3.9023-24.867-6.0586-37.496-6.0586z"/>
 </g>
</svg>
