<?xml version="1.0" encoding="UTF-8"?>
<svg width="1200pt" height="1200pt" version="1.1" viewBox="0 0 1200 1200" xmlns="http://www.w3.org/2000/svg">
 <path d="m426.54 604.75c0 97.426 78.414 175.84 175.84 175.84s175.84-78.414 175.84-175.84c0-97.426-78.414-175.84-175.84-175.84-97.426-0.003906-175.84 78.414-175.84 175.84zm308.91 552.47-43.961 8.3164-66.535-335.05v340.99h-43.961v-340.99l-66.535 335.05-43.961-8.3164 66.535-335.05-130.69 314.85-41.582-16.637 130.69-314.85-190.1 283.96-36.832-24.949 190.1-283.96-241.19 241.19-32.078-32.078 241.19-241.19-283.96 190.1-24.949-36.832 283.96-190.1-314.85 130.69-16.633-41.586 314.85-130.69-335.05 67.723-8.3164-43.961 335.05-66.531h-342.18v-45.148h342.18l-335.05-66.535 8.3164-43.961 335.05 66.535-314.85-130.69 16.633-40.398 314.85 130.69-282.77-190.1 24.949-36.832 283.96 190.1-242.38-241.19 32.078-32.078 241.19 241.19-190.1-283.96 36.832-24.949 190.1 283.96-130.69-314.85 41.586-16.633 130.69 314.85-67.723-335.05 43.961-8.3164 66.531 335.05v-342.18h43.961v342.18l66.535-335.05 43.961 8.3164-66.535 335.05 130.69-314.85 41.586 16.633-130.69 314.85 190.1-283.96 36.832 24.949-190.1 283.96 241.19-241.19 32.078 32.078-241.19 241.19 283.96-190.1 24.949 36.832-283.96 190.1 314.85-130.69 16.633 41.586-314.85 130.69 335.05-66.535 8.3164 43.961-335.05 65.348h340.99v45.148h-340.99l335.05 66.535-8.3164 43.961-335.05-66.535 314.85 130.69-16.633 40.395-314.85-130.69 283.96 190.1-24.949 36.832-283.96-190.1 241.19 241.19-32.078 32.078-241.19-241.19 190.1 283.96-36.828 24.949-190.1-283.96 130.69 314.85-41.586 16.633-130.69-314.85z"/>
</svg>
