<?xml version="1.0" encoding="UTF-8"?>
<svg width="1200pt" height="1200pt" version="1.1" viewBox="0 0 1200 1200" xmlns="http://www.w3.org/2000/svg">
 <path d="m225 975h750c13.398 0 25.777-7.1484 32.477-18.75 6.6992-11.602 6.6992-25.898 0-37.5-6.6992-11.602-19.078-18.75-32.477-18.75h-750c-13.398 0-25.777 7.1484-32.477 18.75-6.6992 11.602-6.6992 25.898 0 37.5 6.6992 11.602 19.078 18.75 32.477 18.75z"/>
 <path d="m1122.4 287c-0.40234-1.082-0.84375-2.0781-1.3477-3.1133-0.49609-1.0469-0.76953-2.1758-1.375-3.1875l-112.5-187.5h0.003906c-6.7773-11.293-18.98-18.203-32.152-18.199h-750c-13.172-0.003906-25.375 6.9062-32.152 18.199l-112.5 187.5c-0.60547 1.0078-0.87109 2.1328-1.375 3.1875-0.5 1.0195-0.94922 2.0625-1.3438 3.125-1.6133 4.0859-2.4922 8.4258-2.5938 12.816l-0.035156 0.17188v28.125c0.16406 37.176 13.445 73.102 37.5 101.45v357.93c0.19141 3.5352 0.89453 7.0273 2.0859 10.359-11.961 6.6914-21.934 16.441-28.891 28.254-6.9531 11.812-10.645 25.262-10.695 38.969v182.34c0.023438 20.57 8.207 40.289 22.75 54.832s34.262 22.727 54.832 22.75h894.84c20.57-0.023438 40.289-8.207 54.832-22.75s22.727-34.262 22.75-54.832v-182.34c-0.050781-13.707-3.7422-27.156-10.695-38.969-6.957-11.812-16.93-21.562-28.891-28.254 1.1914-3.332 1.8945-6.8242 2.0859-10.359v-357.93c24.055-28.348 37.336-64.273 37.5-101.45v-28.125l-0.039062-0.17578c-0.097657-4.3945-0.97656-8.7344-2.5898-12.824zm-484.87-137h122.09l33.746 112.5h-155.84zm168.24 187.5c-3.1055 27.746-19.734 52.16-44.414 65.211-24.68 13.055-54.219 13.055-78.898 0-24.68-13.051-41.309-37.465-44.414-65.211zm-624.11 56.074c-3.2266-5.4258-7.7969-9.9297-13.266-13.082-9.8906-12.359-16.078-27.266-17.855-42.992h167.73c-2.168 20.148-11.547 38.832-26.406 52.605-14.859 13.777-34.199 21.715-54.449 22.355-20.254 0.63672-40.055-6.0703-55.75-18.887zm5.8672 86.078c15.137 4.9766 30.941 7.625 46.875 7.8477 47.23-0.17578 91.918-21.414 121.88-57.926 29.848 36.652 74.605 57.926 121.88 57.926s92.027-21.273 121.88-57.926c29.848 36.652 74.605 57.926 121.88 57.926s92.027-21.273 121.88-57.926c19.617 24.621 46.32 42.625 76.5 51.582 30.176 8.957 62.379 8.4297 92.25-1.5039v307.85h-825zm206.76-142.15h167.73c-3.1055 27.746-19.734 52.16-44.414 65.211-24.68 13.055-54.219 13.055-78.898 0-24.68-13.051-41.309-37.465-44.414-65.211zm637.37 42.992c-5.4688 3.1523-10.039 7.6562-13.266 13.082-15.695 12.816-35.496 19.523-55.75 18.887-20.25-0.64063-39.59-8.5781-54.449-22.355-14.859-13.773-24.238-32.457-26.406-52.605h167.73c-1.7773 15.727-7.9648 30.633-17.855 42.992zm-77.875-230.49 67.512 112.5h-149.61l-33.746-112.5zm-391.26 112.5h-155.84l33.746-112.5h122.09zm-316.26-112.5h115.85l-33.746 112.5h-149.61zm803.76 897.42c0 0.68359-0.26953 1.3438-0.75391 1.8281s-1.1445 0.75391-1.8281 0.75391l-897.42-2.582 2.582-184.92 897.42 2.582z"/>
</svg>
