<?xml version="1.0" encoding="UTF-8"?>
<svg width="1200pt" height="1200pt" version="1.1" viewBox="0 0 1200 1200" xmlns="http://www.w3.org/2000/svg">
 <path d="m1037.2 763.88c25.469-62.844-26.5-130.32-94.211-121.2-5.207 0.69922-10.258-2.1523-12.332-6.9883-24.613-57.277-80.785-94.289-143.11-94.289-54.891 0-105.11 28.586-133.27 75.195 18.172 15.711 32.074 36.465 39.203 60.414 1.8477 6.2031-1.6875 12.73-7.8906 14.574-6.2188 1.8516-12.734-1.7031-14.574-7.8906-13.199-44.352-54.773-75.332-101.1-75.332-63.664 0-113.55 56.477-104.38 120.55 1.0078 7.0508-4.4609 13.379-11.602 13.379h-1.2109c-67.387 0-122.21 54.824-122.21 122.21-0.003906 67.395 54.824 122.21 122.21 122.21h502.23c67.387 0 122.21-54.824 122.21-122.21 0-33.371-13.23-64.555-37.258-87.805-3.4336-3.3203-4.5039-8.3945-2.7109-12.82z"/>
 <path d="m1073.8 544.02c-3.4336-3.3203-4.5039-8.3945-2.7109-12.824 36.898-91.012-38.289-189.37-136.87-176.09-5.1992 0.70703-10.254-2.1523-12.332-6.9883-35.199-81.906-115.53-134.84-204.66-134.84-79.766 0-152.64 42.211-192.51 110.78 26.617 22.129 46.488 52.059 56.324 85.098 1.8477 6.2031-1.6875 12.73-7.8906 14.574-6.2188 1.8516-12.734-1.7031-14.574-7.8906-19.07-64.066-79.121-108.81-146.04-108.81-92.129 0-164 81.738-150.77 174.12 0.48047 3.3633-0.51953 6.7695-2.7461 9.3359-4.2266 4.875-9.9062 3.9297-10.547 4.043-96.926 0-175.78 78.855-175.78 175.78s78.855 175.78 175.78 175.78h59.793c8.6055-67.871 64.059-121.33 132.85-126.78-3.1797-72.867 55.348-134.39 128.79-134.39 22.848 0 45.359 5.9688 65.359 17.789 32.574-52.59 89.805-84.75 152.27-84.75 68.816 0 131.12 39.223 161.05 100.64 78.27-4.6367 137.55 71.664 113 146.75 7.1328 7.6484 13.316 15.945 18.566 24.73 64.16-68.945 63.809-178.16-6.3633-246.07z"/>
</svg>
