<?xml version="1.0" encoding="UTF-8"?>
<svg width="1200pt" height="1200pt" version="1.1" viewBox="0 0 1200 1200" xmlns="http://www.w3.org/2000/svg">
 <path d="m119.48 737.66c-31.168 25.973-77.922 15.586-93.508-20.777 31.168-25.973 77.922-15.586 93.508 20.777z" fill-rule="evenodd"/>
 <path d="m145.45 732.47c-36.363 0-62.336-41.559-57.145-83.117 41.559 5.1953 67.531 41.559 57.145 83.117z" fill-rule="evenodd"/>
 <path d="m187.01 748.05c-31.168-20.777-41.559-67.531-20.777-103.89 36.363 20.777 46.754 72.727 20.777 103.89z" fill-rule="evenodd"/>
 <path d="m155.84 768.83c-15.586 41.559-62.336 51.949-93.508 31.168 15.586-41.559 57.145-57.145 93.508-31.168z" fill-rule="evenodd"/>
 <path d="m207.79 768.83c5.1953 41.559-20.777 83.117-62.336 77.922-5.1953-41.559 25.973-77.922 62.336-77.922z" fill-rule="evenodd"/>
 <path d="m270.13 800c10.391 41.559-15.586 83.117-57.145 83.117-5.1953-41.559 20.777-83.117 57.145-83.117z" fill-rule="evenodd"/>
 <path d="m296.11 436.36c-36.363-15.586-51.949-62.336-31.168-98.703 36.363 15.586 51.949 62.336 31.168 98.703z" fill-rule="evenodd"/>
 <path d="m316.88 457.14c-20.777-36.363-5.1953-83.117 31.168-98.703 20.777 36.363 5.1953 88.312-31.168 98.703z" fill-rule="evenodd"/>
 <path d="m327.27 503.89c0-41.559 31.168-77.922 67.531-72.727 5.1953 41.559-25.973 77.922-67.531 72.727z" fill-rule="evenodd"/>
 <path d="m296.11 483.12c-36.363 10.391-72.727-25.973-72.727-67.531 36.363-5.1953 72.727 25.973 72.727 67.531z" fill-rule="evenodd"/>
 <path d="m322.08 529.87c-31.168 31.168-72.727 20.777-93.508-15.586 25.973-25.973 72.727-20.777 93.508 15.586z" fill-rule="evenodd"/>
 <path d="m353.25 592.21c-20.777 36.363-67.531 41.559-93.508 10.391 20.777-36.363 67.531-41.559 93.508-10.391z" fill-rule="evenodd"/>
 <path d="m477.92 348.05c-36.363-15.586-51.949-62.336-31.168-98.703 36.363 15.586 51.949 62.336 31.168 98.703z" fill-rule="evenodd"/>
 <path d="m498.7 368.83c-20.777-36.363-5.1953-83.117 31.168-98.703 15.586 36.363 5.1953 88.312-31.168 98.703z" fill-rule="evenodd"/>
 <path d="m503.89 436.36c-15.586-36.363 5.1953-83.117 46.754-88.312 10.391 36.363-10.391 83.117-46.754 88.312z" fill-rule="evenodd"/>
 <path d="m472.73 394.8c-36.363 10.391-72.727-25.973-67.531-67.531 36.363-5.1953 72.727 25.973 67.531 67.531z" fill-rule="evenodd"/>
 <path d="m415.59 488.31c-10.391-41.559 20.777-77.922 57.145-83.117 10.391 41.559-20.777 83.117-57.145 83.117z" fill-rule="evenodd"/>
 <path d="m748.05 327.27c-36.363-15.586-51.949-62.336-31.168-98.703 36.363 15.586 51.949 62.336 31.168 98.703z" fill-rule="evenodd"/>
 <path d="m763.64 348.05c-15.586-36.363 0-83.117 31.168-98.703 20.777 36.363 5.1953 83.117-31.168 98.703z" fill-rule="evenodd"/>
 <path d="m774.03 394.8c-5.1953-41.559 25.973-83.117 62.336-77.922 5.1953 41.559-25.973 77.922-62.336 77.922z" fill-rule="evenodd"/>
 <path d="m742.86 374.03c-36.363 10.391-72.727-25.973-72.727-67.531 41.559-5.1953 72.727 25.973 72.727 67.531z" fill-rule="evenodd"/>
 <path d="m753.25 410.39c-25.973 25.973-72.727 20.777-88.312-15.586 25.973-31.168 72.727-20.777 88.312 15.586z" fill-rule="evenodd"/>
 <path d="m950.65 420.78c-25.973-31.168-10.391-83.117 20.777-98.703 25.973 31.168 10.391 83.117-20.777 98.703z" fill-rule="evenodd"/>
 <path d="m966.23 441.56c0-46.754 31.168-77.922 72.727-67.531 0 41.559-36.363 72.727-72.727 67.531z" fill-rule="evenodd"/>
 <path d="m966.23 472.73c20.777-41.559 62.336-46.754 93.508-20.777-20.777 36.363-67.531 46.754-93.508 20.777z" fill-rule="evenodd"/>
 <path d="m872.73 436.36c-5.1953-41.559 20.777-77.922 62.336-77.922 5.1953 41.559-20.777 77.922-62.336 77.922z" fill-rule="evenodd"/>
 <path d="m872.73 503.89c41.559 5.1953 72.727-31.168 72.727-72.727-36.363-5.1953-72.727 25.973-72.727 72.727z" fill-rule="evenodd"/>
 <path d="m1111.7 612.99c-15.586-41.559 10.391-83.117 46.754-88.312 15.586 41.559-10.391 83.117-46.754 88.312z" fill-rule="evenodd"/>
 <path d="m1111.7 633.77c15.586-36.363 62.336-41.559 88.312-15.586-15.586 36.363-62.336 46.754-88.312 15.586z" fill-rule="evenodd"/>
 <path d="m1085.7 664.93c31.168-20.777 72.727-5.1953 88.312 31.168-31.168 25.973-77.922 10.391-88.312-31.168z" fill-rule="evenodd"/>
 <path d="m1059.7 664.93c-20.777-31.168-10.391-77.922 20.777-93.508 20.777 31.168 10.391 77.922-20.777 93.508z" fill-rule="evenodd"/>
 <path d="m1018.2 592.21c-36.363-20.777-46.754-67.531-20.777-103.89 31.168 20.777 41.559 67.531 20.777 103.89z" fill-rule="evenodd"/>
 <path d="m249.35 638.96c-36.363 10.391-72.727-20.777-72.727-62.336 36.363-10.391 72.727 20.777 72.727 62.336z" fill-rule="evenodd"/>
 <path d="m233.77 529.87c-36.363 25.973-77.922 5.1953-88.312-36.363 31.168-20.777 72.727 0 88.312 36.363z" fill-rule="evenodd"/>
 <path d="m176.62 545.45c-15.586 41.559-57.145 57.145-88.312 31.168 10.391-41.559 57.145-51.949 88.312-31.168z" fill-rule="evenodd"/>
 <path d="m171.43 628.57c-31.168 25.973-77.922 15.586-93.508-20.777 31.168-25.973 77.922-15.586 93.508 20.777z" fill-rule="evenodd"/>
 <path d="m223.38 483.12c-36.363 0-67.531-41.559-57.145-83.117 36.363 0 67.531 41.559 57.145 83.117z" fill-rule="evenodd"/>
 <path d="m150.65 519.48c-25.973 25.973-72.727 20.777-93.508-15.586 25.973-31.168 72.727-20.777 93.508 15.586z" fill-rule="evenodd"/>
 <path d="m171.43 483.12c-36.363 5.1953-72.727-25.973-72.727-67.531 41.559-10.391 72.727 20.777 72.727 67.531z" fill-rule="evenodd"/>
 <path d="m88.312 638.96c-25.973 25.973-72.727 10.391-88.312-25.973 31.168-25.973 72.727-15.586 88.312 25.973z" fill-rule="evenodd"/>
 <path d="m389.61 394.8c-36.363-10.391-46.754-62.336-31.168-98.703 36.363 15.586 51.949 62.336 31.168 98.703z" fill-rule="evenodd"/>
 <path d="m337.66 353.25c-36.363 5.1953-72.727-25.973-67.531-67.531 36.363-10.391 67.531 25.973 67.531 67.531z" fill-rule="evenodd"/>
 <path d="m431.17 316.88c-36.363 10.391-72.727-25.973-67.531-67.531 36.363-5.1953 72.727 25.973 67.531 67.531z" fill-rule="evenodd"/>
 <path d="m555.84 342.86c-20.777-36.363-5.1953-83.117 31.168-98.703 15.586 36.363 0 83.117-31.168 98.703z" fill-rule="evenodd"/>
 <path d="m493.51 285.71c-25.973-31.168-20.777-83.117 15.586-103.89 25.973 31.168 15.586 83.117-15.586 103.89z" fill-rule="evenodd"/>
 <path d="m644.16 337.66c-36.363-10.391-51.949-57.145-31.168-93.508 36.363 10.391 51.949 62.336 31.168 93.508z" fill-rule="evenodd"/>
 <path d="m638.96 410.39c-36.363 5.1953-72.727-25.973-72.727-67.531 36.363-10.391 72.727 25.973 72.727 67.531z" fill-rule="evenodd"/>
 <path d="m768.83 451.95c-20.777 36.363-67.531 41.559-93.508 10.391 20.777-36.363 62.336-41.559 93.508-10.391z" fill-rule="evenodd"/>
 <path d="m602.6 561.04c41.559 10.391 72.727-25.973 72.727-67.531-36.363-5.1953-72.727 25.973-72.727 67.531z" fill-rule="evenodd"/>
 <path d="m732.47 566.23c-5.1953 46.754 25.973 83.117 67.531 77.922 0-46.754-31.168-77.922-67.531-77.922z" fill-rule="evenodd"/>
 <path d="m815.59 597.4c-36.363-15.586-51.949-62.336-31.168-98.703 31.168 10.391 46.754 62.336 31.168 98.703z" fill-rule="evenodd"/>
 <path d="m810.39 467.53c-20.777-36.363-10.391-83.117 25.973-98.703 20.777 31.168 10.391 83.117-25.973 98.703z" fill-rule="evenodd"/>
 <path d="m862.34 394.8c-25.973-31.168-25.973-83.117 5.1953-103.89 31.168 25.973 25.973 77.922-5.1953 103.89z" fill-rule="evenodd"/>
 <path d="m992.21 722.08c36.363-15.586 72.727 15.586 72.727 57.145-36.363 10.391-72.727-15.586-72.727-57.145z" fill-rule="evenodd"/>
 <path d="m924.68 618.18c-10.391-41.559 15.586-83.117 51.949-88.312 10.391 41.559-15.586 83.117-51.949 88.312z" fill-rule="evenodd"/>
 <path d="m1049.4 524.68c-15.586-41.559 10.391-83.117 51.949-83.117 10.391 36.363-15.586 83.117-51.949 83.117z" fill-rule="evenodd"/>
 <path d="m1039 561.04c10.391-36.363 51.949-57.145 88.312-36.363-10.391 36.363-51.949 57.145-88.312 36.363z" fill-rule="evenodd"/>
 <path d="m1002.6 675.32c36.363-20.777 77.922 0 88.312 41.559-36.363 20.777-77.922-5.1953-88.312-41.559z" fill-rule="evenodd"/>
 <path d="m415.59 566.23c-10.391-41.559 15.586-83.117 51.949-83.117 10.391 41.559-15.586 83.117-51.949 83.117z" fill-rule="evenodd"/>
 <path d="m602.6 618.18c31.168 15.586 72.727-5.1953 83.117-46.754-36.363-20.777-77.922 5.1953-83.117 46.754z" fill-rule="evenodd"/>
 <path d="m664.93 306.49c-20.777-36.363-5.1953-83.117 31.168-98.703 15.586 36.363 0 83.117-31.168 98.703z" fill-rule="evenodd"/>
 <path d="m649.35 254.55c-36.363-15.586-51.949-62.336-31.168-98.703 31.168 15.586 46.754 62.336 31.168 98.703z" fill-rule="evenodd"/>
 <path d="m545.45 264.93c-25.973-31.168-10.391-83.117 20.777-98.703 25.973 36.363 10.391 83.117-20.777 98.703z" fill-rule="evenodd"/>
 <path d="m285.71 711.69c-15.586 25.973-51.949 31.168-72.727 5.1953 15.586-25.973 51.949-31.168 72.727-5.1953z" fill-rule="evenodd"/>
 <path d="m363.64 638.96c-10.391 31.168-41.559 46.754-67.531 31.168 10.391-31.168 41.559-46.754 67.531-31.168z" fill-rule="evenodd"/>
 <path d="m368.83 763.64c-31.168-10.391-67.531 10.391-72.727 46.754 31.168 15.586 67.531-5.1953 72.727-46.754z" fill-rule="evenodd"/>
 <path d="m233.77 405.2c-36.363-15.586-41.559-67.531-20.777-98.703 36.363 15.586 46.754 67.531 20.777 98.703z" fill-rule="evenodd"/>
 <path d="m898.7 353.25c-15.586-41.559 10.391-83.117 51.949-88.312 10.391 41.559-15.586 83.117-51.949 88.312z" fill-rule="evenodd"/>
 <path d="m825.97 306.49c-25.973-31.168-10.391-83.117 20.777-98.703 25.973 36.363 10.391 83.117-20.777 98.703z" fill-rule="evenodd"/>
 <path d="m758.44 264.93c-20.777-36.363-10.391-83.117 25.973-103.89 20.777 36.363 10.391 83.117-25.973 103.89z" fill-rule="evenodd"/>
 <path d="m1033.8 425.97c10.391-36.363 51.949-57.145 88.312-36.363-15.586 41.559-57.145 62.336-88.312 36.363z" fill-rule="evenodd"/>
 <path d="m992.21 374.03c-10.391-41.559 15.586-83.117 51.949-88.312 10.391 41.559-15.586 83.117-51.949 88.312z" fill-rule="evenodd"/>
 <path d="m862.34 696.11c-20.777-31.168-10.391-72.727 20.777-83.117 20.777 25.973 10.391 67.531-20.777 83.117z" fill-rule="evenodd"/>
 <path d="m940.26 670.13c5.1953-36.363 41.559-57.145 72.727-41.559-10.391 36.363-41.559 57.145-72.727 41.559z" fill-rule="evenodd"/>
 <path d="m400 633.77c-5.1953-36.363 20.777-67.531 51.949-67.531 5.1953 36.363-20.777 67.531-51.949 67.531z" fill-rule="evenodd"/>
 <path d="m348.05 555.84c-5.1953-31.168 15.586-62.336 46.754-62.336 5.1953 31.168-15.586 62.336-46.754 62.336z" fill-rule="evenodd"/>
 <path d="m509.09 514.29c-5.1953-36.363 20.777-67.531 46.754-67.531 10.391 36.363-15.586 67.531-46.754 67.531z" fill-rule="evenodd"/>
 <path d="m607.79 659.74c25.973 20.777 62.336 10.391 72.727-20.777-20.777-20.777-57.145-10.391-72.727 20.777z" fill-rule="evenodd"/>
 <path d="m836.36 716.88c-20.777-15.586-20.777-51.949 0-67.531 15.586 15.586 15.586 51.949 0 67.531z" fill-rule="evenodd"/>
 <path d="m883.12 555.84c31.168 0 57.145-25.973 57.145-57.145-31.168-5.1953-57.145 20.777-57.145 57.145z" fill-rule="evenodd"/>
 <path d="m909.09 701.3c15.586-20.777 46.754-20.777 62.336 5.1953-15.586 20.777-46.754 15.586-62.336-5.1953z" fill-rule="evenodd"/>
 <path d="m929.87 737.66c25.973-15.586 62.336 0 67.531 36.363-25.973 15.586-62.336-5.1953-67.531-36.363z" fill-rule="evenodd"/>
 <path d="m529.87 571.43c-5.1953-31.168 15.586-62.336 46.754-62.336 5.1953 31.168-15.586 62.336-46.754 62.336z" fill-rule="evenodd"/>
 <path d="m607.79 462.34c5.1953-36.363-15.586-67.531-46.754-67.531-5.1953 36.363 15.586 67.531 46.754 67.531z" fill-rule="evenodd"/>
 <path d="m623.38 477.92c-5.1953-31.168 15.586-62.336 46.754-62.336 5.1953 31.168-15.586 62.336-46.754 62.336z" fill-rule="evenodd"/>
 <path d="m841.56 555.84c-20.777-20.777-20.777-51.949 0-72.727 20.777 20.777 20.777 51.949 0 72.727z" fill-rule="evenodd"/>
 <path d="m831.17 628.57c-5.1953-31.168 20.777-62.336 51.949-62.336 5.1953 31.168-20.777 62.336-51.949 62.336z" fill-rule="evenodd"/>
 <path d="m405.2 779.22c5.1953 41.559-20.777 77.922-62.336 77.922-5.1953-41.559 25.973-77.922 62.336-77.922z" fill-rule="evenodd"/>
 <path d="m316.88 737.66c-31.168-15.586-67.531 5.1953-72.727 46.754 31.168 10.391 67.531-10.391 72.727-46.754z" fill-rule="evenodd"/>
 <path d="m431.17 690.91c-10.391-36.363 5.1953-72.727 36.363-72.727 10.391 31.168-5.1953 67.531-36.363 72.727z" fill-rule="evenodd"/>
 <path d="m675.32 685.71c-5.1953-31.168 25.973-57.145 57.145-51.949 0 36.363-25.973 62.336-57.145 51.949z" fill-rule="evenodd"/>
 <path d="m675.32 748.05c-5.1953-36.363 25.973-62.336 57.145-51.949 0 31.168-31.168 57.145-57.145 51.949z" fill-rule="evenodd"/>
 <path d="m649.35 737.66c0-31.168-20.777-62.336-46.754-51.949-5.1953 31.168 20.777 62.336 46.754 51.949z" fill-rule="evenodd"/>
 <path d="m519.48 701.3c-20.777-25.973-51.949-31.168-67.531-10.391 15.586 25.973 51.949 36.363 67.531 10.391z" fill-rule="evenodd"/>
 <path d="m259.74 670.13c-15.586-25.973-51.949-31.168-67.531-10.391 15.586 25.973 51.949 31.168 67.531 10.391z" fill-rule="evenodd"/>
 <path d="m857.14 742.86c15.586-20.777 46.754-20.777 62.336 0-15.586 20.777-46.754 20.777-62.336 0z" fill-rule="evenodd"/>
 <path d="m649.35 836.36c25.973-15.586 51.949-31.168 77.922-51.949 98.703-25.973 161.04-51.949 212.99-140.26 0 0-5.1953-5.1953-10.391 0-51.949 77.922-88.312 93.508-187.01 119.48 51.949-57.145 72.727-119.48 93.508-187.01 0-5.1953-5.1953-5.1953-5.1953 0 0 0-31.168 114.29-103.89 181.82-15.586 20.777-36.363 31.168-57.145 46.754-5.1953-41.559-5.1953-77.922 0-109.09 0-5.1953-5.1953-10.391-5.1953-5.1953-5.1953 36.363-15.586 72.727-5.1953 119.48-5.1953 5.1953-10.391 5.1953-20.777 10.391-25.973-51.949-46.754-98.703-46.754-135.07-15.586-103.89 20.777-212.99 20.777-212.99 5.1953-5.1953 0-10.391 0-5.1953-25.973 67.531-41.559 135.07-36.363 207.79-62.336-83.117-83.117-124.68-77.922-223.38 0-5.1953-5.1953-5.1953-5.1953 0-10.391 98.703 25.973 166.23 83.117 254.55 5.1953 15.586 10.391 25.973 15.586 41.559-36.363-25.973-67.531-62.336-83.117-98.703 0-5.1953-5.1953-5.1953-5.1953 0 20.777 41.559 41.559 83.117 93.508 119.48 10.391 31.168 25.973 57.145 36.363 83.117-36.363-15.586-119.48-46.754-166.23-93.508-67.531-67.531-103.89-181.82-103.89-181.82 0-5.1953-5.1953-5.1953-5.1953 0 20.777 67.531 46.754 129.87 93.508 187.01-98.703-25.973-135.07-41.559-187.01-119.48-5.1953-5.1953-10.391 0-5.1953 0 46.754 88.312 109.09 114.29 207.79 140.26 57.145 46.754 119.48 77.922 176.62 93.508 31.168 46.754-31.168 83.117-77.922 114.29l-322.08 51.949h758.44l-358.44-51.949c31.168-41.559 62.336-72.727 5.1953-155.84z" fill-rule="evenodd"/>
</svg>
