<?xml version="1.0" encoding="UTF-8"?>
<svg width="1200pt" height="1200pt" version="1.1" viewBox="0 0 1200 1200" xmlns="http://www.w3.org/2000/svg">
 <path d="m0.14062 906.42 592.3-12.844-592.3-12.863c-0.10156 4.293-0.14062 8.5703-0.14062 12.863s0.039062 8.5703 0.14062 12.844z" fill-rule="evenodd"/>
 <path d="m1.2812 854.13 591.21 38.797-588.99-64.422c-0.9375 8.4688-1.668 17.016-2.2188 25.625z" fill-rule="evenodd"/>
 <path d="m6.9414 802.08 585.63 90.191-581.21-115.52c-1.6289 8.3672-3.1133 16.793-4.418 25.32z" fill-rule="evenodd"/>
 <path d="m17.117 750.71 575.59 140.94-568.96-165.77c-2.3828 8.2031-4.6016 16.488-6.6367 24.832z" fill-rule="evenodd"/>
 <path d="m31.754 700.43 561.16 190.58-552.35-214.72c-3.1133 7.9805-6.0469 16.039-8.8125 24.141z" fill-rule="evenodd"/>
 <path d="m50.766 651.68 542.39 238.72-531.51-262.05c-3.7852 7.6953-7.4297 15.449-10.891 23.328z" fill-rule="evenodd"/>
 <path d="m73.988 604.72 519.48 285.09-506.61-307.34c-4.4375 7.3086-8.7305 14.738-12.863 22.246z" fill-rule="evenodd"/>
 <path d="m101.2 560 492.61 329.26-477.85-350.29c-5.0664 6.8984-9.9961 13.902-14.758 21.027z" fill-rule="evenodd"/>
 <path d="m132.2 517.83 462.02 370.91-445.48-390.59c-5.6602 6.4336-11.156 13.008-16.527 19.684z" fill-rule="evenodd"/>
 <path d="m166.77 478.48 427.9 409.76-409.76-427.9c-6.168 5.9219-12.215 11.969-18.137 18.137z" fill-rule="evenodd"/>
 <path d="m204.57 442.31 390.59 445.48-370.91-462.02c-6.6758 5.375-13.25 10.871-19.684 16.527z" fill-rule="evenodd"/>
 <path d="m245.4 409.54 350.29 477.85-329.26-492.61c-7.125 4.7617-14.125 9.6875-21.027 14.758z" fill-rule="evenodd"/>
 <path d="m288.89 380.43 307.34 506.61-285.09-519.48c-7.5117 4.1328-14.941 8.4258-22.246 12.863z" fill-rule="evenodd"/>
 <path d="m334.78 355.23 262.05 531.51-238.72-542.39c-7.8789 3.4609-15.633 7.1055-23.328 10.891z" fill-rule="evenodd"/>
 <path d="m382.71 334.14 214.72 552.35-190.58-561.16c-8.1016 2.7695-16.16 5.6992-24.141 8.8125z" fill-rule="evenodd"/>
 <path d="m432.3 317.33 165.77 568.96-140.94-575.59c-8.3438 2.0352-16.629 4.2539-24.832 6.6367z" fill-rule="evenodd"/>
 <path d="m483.18 304.94 115.52 581.21-90.191-585.63c-8.5273 1.3008-16.957 2.7891-25.32 4.418z" fill-rule="evenodd"/>
 <path d="m534.93 297.08 64.422 588.99-38.797-591.21c-8.6094 0.55078-17.16 1.2812-25.625 2.2188z" fill-rule="evenodd"/>
 <path d="m587.16 293.72 12.863 592.3 12.844-592.3c-4.2734-0.10156-8.5508-0.14062-12.844-0.14062s-8.5703 0.039063-12.863 0.14062z" fill-rule="evenodd"/>
 <path d="m639.47 294.86-38.816 591.21 64.445-588.99c-8.4883-0.9375-17.035-1.668-25.625-2.2188z" fill-rule="evenodd"/>
 <path d="m691.52 300.52-90.211 585.63 115.54-581.21c-8.3867-1.6289-16.812-3.1133-25.32-4.418z" fill-rule="evenodd"/>
 <path d="m742.89 310.7-140.94 575.59 165.75-568.96c-8.2031-2.3828-16.488-4.6016-24.812-6.6367z" fill-rule="evenodd"/>
 <path d="m793.15 325.33-190.56 561.16 214.7-552.35c-7.957-3.1133-16.02-6.0469-24.141-8.8125z" fill-rule="evenodd"/>
 <path d="m841.92 344.34-238.74 542.39 262.05-531.51c-7.6719-3.7852-15.449-7.4297-23.305-10.891z" fill-rule="evenodd"/>
 <path d="m888.88 367.57-285.11 519.48 307.34-506.61c-7.3086-4.4375-14.715-8.7305-22.227-12.863z" fill-rule="evenodd"/>
 <path d="m933.57 394.78-329.24 492.61 350.29-477.85c-6.8984-5.0664-13.922-9.9961-21.047-14.758z" fill-rule="evenodd"/>
 <path d="m975.77 425.78-370.93 462.02 390.59-445.48c-6.4336-5.6602-12.988-11.156-19.664-16.527z" fill-rule="evenodd"/>
 <path d="m1015.1 460.34-409.74 427.9 427.9-409.76c-5.9219-6.168-11.969-12.215-18.156-18.137z" fill-rule="evenodd"/>
 <path d="m1051.3 498.14-445.48 390.59 462.04-370.91c-5.3945-6.6758-10.891-13.25-16.547-19.684z" fill-rule="evenodd"/>
 <path d="m1084 538.98-477.85 350.29 492.63-329.26c-4.7852-7.125-9.7109-14.125-14.777-21.027z" fill-rule="evenodd"/>
 <path d="m1113.1 582.47-506.61 307.34 519.5-285.09c-4.1523-7.5117-8.4453-14.941-12.883-22.246z" fill-rule="evenodd"/>
 <path d="m1138.4 628.36-531.53 262.05 542.42-238.72c-3.4805-7.8789-7.125-15.633-10.891-23.328z" fill-rule="evenodd"/>
 <path d="m1159.5 676.29-552.35 214.72 561.14-190.58c-2.7695-8.1016-5.6992-16.16-8.793-24.141z" fill-rule="evenodd"/>
 <path d="m1176.3 725.88-568.98 165.77 575.61-140.94c-2.0547-8.3438-4.2734-16.629-6.6367-24.832z" fill-rule="evenodd"/>
 <path d="m1188.6 776.76-581.21 115.52 585.65-90.191c-1.3008-8.5273-2.7891-16.957-4.4375-25.32z" fill-rule="evenodd"/>
 <path d="m1196.5 828.5-588.99 64.422 591.19-38.797c-0.52734-8.6094-1.2812-17.16-2.1992-25.625z" fill-rule="evenodd"/>
 <path d="m1199.9 880.73-592.33 12.863 592.33 12.844c0.082032-4.2734 0.12109-8.5508 0.12109-12.844 0-4.293-0.039062-8.5703-0.12109-12.863z" fill-rule="evenodd"/>
</svg>
