<?xml version="1.0" encoding="UTF-8"?>
<svg width="1200pt" height="1200pt" version="1.1" viewBox="0 0 1200 1200" xmlns="http://www.w3.org/2000/svg">
 <path d="m525 150c-41.109 0-75 33.891-75 75v200.02c0 14.109-10.875 24.984-24.984 24.984h-200.02c-41.109 0-75 33.891-75 75v150c0 41.109 33.891 75 75 75h200.02c14.109 0 24.984 10.875 24.984 24.984v200.02c0 41.109 33.891 75 75 75h150c41.109 0 75-33.891 75-75v-200.02c0-14.109 10.875-24.984 24.984-24.984h200.02c41.109 0 75-33.891 75-75v-150c0-41.109-33.891-75-75-75h-200.02c-14.109 0-24.984-10.875-24.984-24.984v-200.02c0-41.109-33.891-75-75-75zm75 99.984c6.6094 0 12.984 2.6719 17.672 7.3594s7.3125 11.016 7.3125 17.672v49.969c0 6.6562-2.625 12.984-7.3125 17.672s-11.062 7.3594-17.672 7.3594c-13.828 0-24.984-11.203-24.984-25.031v-49.969c0-13.828 11.156-25.031 24.984-25.031zm0 150c6.6094 0 12.984 2.6719 17.672 7.3594s7.3125 11.016 7.3125 17.672v49.969c0 6.6562-2.625 12.984-7.3125 17.672s-11.062 7.3594-17.672 7.3594c-13.828 0-24.984-11.203-24.984-25.031v-49.969c0-13.828 11.156-25.031 24.984-25.031zm-324.98 175.03h49.969c6.6562 0 12.984 2.625 17.672 7.3125s7.3594 11.062 7.3594 17.672-2.6719 12.984-7.3594 17.672-11.016 7.3125-17.672 7.3125h-49.969c-13.828 0-25.031-11.156-25.031-24.984s11.203-24.984 25.031-24.984zm150 0h49.969c6.6562 0 12.984 2.625 17.672 7.3125s7.3594 11.062 7.3594 17.672-2.6719 12.984-7.3594 17.672-11.016 7.3125-17.672 7.3125h-49.969c-13.828 0-25.031-11.156-25.031-24.984s11.203-24.984 25.031-24.984zm300 0h49.969c6.6562 0 12.984 2.625 17.672 7.3125s7.3594 11.062 7.3594 17.672-2.6719 12.984-7.3594 17.672-11.016 7.3125-17.672 7.3125h-49.969c-13.828 0-25.031-11.156-25.031-24.984s11.203-24.984 25.031-24.984zm150 0h49.969c6.6562 0 12.984 2.625 17.672 7.3125s7.3594 11.062 7.3594 17.672-2.6719 12.984-7.3594 17.672-11.016 7.3125-17.672 7.3125h-49.969c-13.828 0-25.031-11.156-25.031-24.984s11.203-24.984 25.031-24.984zm-275.02 124.97c6.6094 0 12.984 2.6719 17.672 7.3594s7.3125 11.016 7.3125 17.672v49.969c0 6.6562-2.625 12.984-7.3125 17.672s-11.062 7.3594-17.672 7.3594c-13.828 0-24.984-11.203-24.984-25.031v-49.969c0-13.828 11.156-25.031 24.984-25.031zm0 150c6.6094 0 12.984 2.6719 17.672 7.3594s7.3125 11.016 7.3125 17.672v49.969c0 6.6562-2.625 12.984-7.3125 17.672s-11.062 7.3594-17.672 7.3594c-13.828 0-24.984-11.203-24.984-25.031v-49.969c0-13.828 11.156-25.031 24.984-25.031z"/>
</svg>
