<?xml version="1.0" encoding="UTF-8"?>
<svg width="1200pt" height="1200pt" version="1.1" viewBox="0 0 1200 1200" xmlns="http://www.w3.org/2000/svg">
 <path d="m1007.8 568.61c0 28-6.7812 54.957-19.648 78.957h-2.0898c-32.867-66.609-102.61-111.13-177.91-111.13-17.219 0-34.262 2.2617-50.957 6.7812-39.129-70.434-114.61-115.82-196.87-115.82-123.13 0-223.48 99.305-225.04 221.74-59.129 7.6523-110.26 40.523-142.44 87.477-83.992-9.7383-149.39-81.219-149.39-168 0-93.391 75.824-169.39 169.22-169.39 3.6523 0 7.4766 0.17578 11.305 0.51953-1.5664-10.262-2.4336-20.523-2.4336-30.781 0-104.7 85.215-189.74 190.09-189.74 81.043 0 151.65 50.086 178.96 124.35 21.391-10.086 45.047-15.305 69.043-15.305 70.957 0 133.74 46.434 155.3 112.7 8-1.2188 15.828-1.7383 23.477-1.7383 93.391 0 169.39 76 169.39 169.39z"/>
 <path d="m1156.5 851.74c0 93.219-76 169.04-169.39 169.04h-625.91c-93.395 0-169.22-75.824-169.22-169.04 0-93.391 75.824-169.39 169.22-169.39 3.6523 0 7.4766 0.17578 11.477 0.34766-1.7383-10.086-2.6055-20.348-2.6055-30.609 0-104.7 85.391-189.91 190.26-189.91 80.871 0 151.48 50.262 178.78 124.52 21.566-10.086 45.043-15.477 69.043-15.477 70.957 0 133.74 46.609 155.3 112.87 8.1758-1.2188 15.828-1.7383 23.652-1.7383 93.391 0 169.39 76 169.39 169.39z"/>
</svg>
