<?xml version="1.0" encoding="UTF-8"?>
<svg width="1200pt" height="1200pt" version="1.1" viewBox="0 0 1200 1200" xmlns="http://www.w3.org/2000/svg">
 <path d="m123.53 575.47c-31.809 0-61.199 16.973-77.105 44.516-15.902 27.547-15.902 61.484 0 89.031 15.906 27.543 45.297 44.516 77.105 44.516h172.94c0.64844-6.9062 1.8281-13.75 3.5312-20.473 1.793-6.043 4.0312-11.941 6.707-17.648v-1.5898 0.003907c2.6055-5.6562 5.6758-11.086 9.1758-16.234l1.2344-1.9414c3.4727-4.8789 7.2422-9.5352 11.293-13.941 0.60547-0.69141 1.2539-1.3398 1.9414-1.9414 4.1133-4.3203 8.5352-8.332 13.238-12l2.293-1.5898c4.8164-3.543 9.8906-6.7305 15.176-9.5273l2.293-1.2344v-0.003906c5.7188-2.7422 11.617-5.0977 17.648-7.0586h1.9414c6.1172-1.9258 12.371-3.3984 18.707-4.4102 0-32.762 13.012-64.184 36.18-87.348 23.168-23.168 54.586-36.184 87.348-36.184 10.969 0.054688 21.887 1.5391 32.473 4.4141 0.085937-0.94141 0.085937-1.8867 0-2.8242 0-2.8242 0.88281-5.8242 1.4102-8.6484 0.53125-2.8242 0 0 0 0 5.1211-25.484 18.152-48.703 37.234-66.352-13.664-11.141-30.312-18-47.859-19.727-17.547-1.7266-35.211 1.7578-50.785 10.02-5.0938 2.6367-11.145 2.6367-16.238 0-5.1445-2.5898-8.7031-7.5312-9.5273-13.234-4.2227-31.367-24.863-58.094-54.137-70.121-29.277-12.023-62.742-7.5156-87.793 11.824-25.055 19.34-37.883 50.578-33.66 81.945 0.61328 3.3242 0.25391 6.7539-1.0273 9.8828s-3.4375 5.8242-6.207 7.7617c-2.5742 1.7422-5.5586 2.7734-8.6562 2.9883-3.1016 0.21875-6.1992-0.38672-8.9922-1.75-12.629-8.082-27.051-12.93-42-14.121-25.984-0.089844-50.688 11.277-67.523 31.07-16.836 19.797-24.09 46.004-19.828 71.637 0.95703 5.7891-1.0273 11.676-5.293 15.707-3.8438 3.582-9.0859 5.2617-14.297 4.5859"/>
 <path d="m419.82 854.29h656.64c31.809 0 61.199-16.969 77.105-44.512 15.902-27.547 15.902-61.484 0-89.031-15.906-27.547-45.297-44.516-77.105-44.516-6.293 0.015625-12.566 0.72656-18.703 2.1172-4.1797 0.94922-8.5625 0.34766-12.332-1.6992-3.7656-2.0469-6.6602-5.3945-8.1406-9.418-6.2695-17.309-17.742-32.25-32.848-42.77-15.105-10.523-33.098-16.109-51.504-15.996-2.8164-0.26172-5.6523-0.26172-8.4727 0-4.5039 0.73047-9.1172-0.31641-12.867-2.9141-3.75-2.5977-6.3477-6.5508-7.25-11.023-5.3867-27.719-23.715-51.184-49.305-63.121s-55.344-10.91-80.047 2.7656c-5.0469 2.6992-11.094 2.7852-16.215 0.22266-5.1211-2.5586-8.6797-7.4453-9.5508-13.105-3.2461-21.059-13.934-40.254-30.121-54.113-16.188-13.855-36.805-21.453-58.113-21.414-17.289 0.007813-34.184 5.168-48.531 14.824l-2.4688 1.9414c-3.7578 2.5859-7.3008 5.4805-10.59 8.6445l-1.2344 1.2344c-3.8047 3.8906-7.2852 8.0781-10.41 12.531-3.0352 4.5078-5.6367 9.293-7.7656 14.293-1.9336 4.9453-3.5234 10.016-4.7656 15.176v3.1797c-0.97266 5.1797-1.5039 10.434-1.5859 15.703v1.5898c-0.17578 2.7617-0.17578 5.5312 0 8.293 1.4023 4.3516 1.0625 9.082-0.94922 13.188s-5.5391 7.2695-9.8398 8.8281c-4.3008 1.5547-9.0391 1.3828-13.211-0.48438h-1.2383c-13.016-6.8086-27.484-10.383-42.176-10.414-23.402 0-45.844 9.2969-62.391 25.844s-25.844 38.992-25.844 62.395v3.3516c0.10938 3.543 0.40625 7.0742 0.88281 10.586 0.88672 5.5117-0.88672 11.117-4.7812 15.117-3.8945 4-9.4531 5.918-14.984 5.1797-17.305 0.070313-34.199 5.293-48.527 15-1.4102 0-2.6484 2.293-4.0586 3.3516-1.4102 1.0586-6.1758 4.7656-9 7.4102v0.003906c-16.52 16.648-25.727 39.191-25.59 62.645 0 23.402 9.2969 45.844 25.844 62.391 16.547 16.551 38.988 25.844 62.391 25.844"/>
</svg>
