<?xml version="1.0" encoding="UTF-8"?>
<svg width="1200pt" height="1200pt" version="1.1" viewBox="0 0 1200 1200" xmlns="http://www.w3.org/2000/svg">
 <path d="m298.8 370.6c16.398-5 33.602-8.6016 51.398-11 78.398-10.801 158.2-16.398 237.4-16.398 105.8 0 212.6 9.8008 317.2 29.199 2.3984 0.39844 5 1 7.6016 1.6016 9.8008-10 18-21 24-33.199 8.1992-16.199 12.199-34 12.199-51.398 0-29.602-11.398-58.398-32.801-76.801-20.801-18-47-24.398-74.199-29.602-144.4-26.801-291.6-30-437.8-10-27.602 4-51.398 11-72.801 21.801-15 8-28.602 17.199-40.398 27.602-24.801 22.398-44 61.801-31.199 99.602 7.2031 21.594 22.602 37.191 39.402 48.594z"/>
 <path d="m199 952.2c297.2-47.199 568.2-206.2 669.2-271-181.4-32.398-366.4-39.801-551.2-21.602-39 3.8008-74.398 12.801-104.8 27-22.398 10.398-42.398 22.801-59.602 37-35 29.398-63.602 82.398-48.398 134.6 14 48.801 59.199 76.801 94.801 94z"/>
 <path d="m924.2 692.2c-54 37-333.8 220.2-657.2 288 161 57.199 338.6 58.398 497.4 59.398 10 0.19922 20.398 0.19922 31 0.19922 45 0 93.398-1.8008 139.8-14.199 33-8.8008 62.602-22.398 87-40 24.602-17.602 44.398-39 58.199-63.602 33-59.602 23.801-136-21.602-178-28.398-26.398-66.199-36.801-102.8-45.199-10.598-2.3984-21.195-4.3984-31.797-6.5977z"/>
 <path d="m229 637.2c25.801-8.6016 54-14.602 84.199-17.398 45.398-4.3984 91.199-7.3984 137-8.8008 196.8-64.398 307.6-172.2 345.2-214.6-145.8-18-293.4-17.398-439.8 2.8008-32.801 4.3984-62.398 13.398-88.398 26.602-19 9.6016-35.801 20.801-49.602 33.398-29.598 26.602-52.598 73.602-37.598 118.8 8.8008 26.602 28 45.398 49 59.199z"/>
 <path d="m842.2 402.6c-8.1992 11.199-94.801 124.2-279.8 207.8 134.2 3 268.2 19.398 399 48.602 21.801-16.199 39-36 50.398-58.602 26.801-52.398 16.199-118.2-24.398-153-25.398-22-58.398-29.602-90-35.602-18.398-3.4023-36.797-6.4023-55.199-9.1992z"/>
</svg>
