<?xml version="1.0" encoding="UTF-8"?>
<svg width="1200pt" height="1200pt" version="1.1" viewBox="0 0 1200 1200" xmlns="http://www.w3.org/2000/svg">
 <path d="m600 425.68c96.281 0 174.32 78.047 174.32 174.32s-78.047 174.32-174.32 174.32-174.32-78.047-174.32-174.32 78.047-174.32 174.32-174.32zm-54.141-42.656c-16.594 4.125-32.484 10.125-47.391 17.719-13.312-36.844-20.25-77.438-57.609-109.59 29.625 46.5-5.1562 94.031 3.7969 148.08-12.141 11.719-22.969 24.797-32.203 39-29.953-25.266-56.25-56.953-104.72-66.141 48.891 25.453 42.516 84 77.297 126.32-4.5469 15.984-7.4062 32.672-8.2969 49.922-38.578-6.8906-77.203-21.188-123.79-4.9219 55.078-2.3906 78.844 51.469 130.13 70.734 4.125 16.594 10.078 32.484 17.672 47.391-36.844 13.312-77.438 20.203-109.59 57.609 46.5-29.625 94.031 5.1562 148.08-3.7969 11.719 12.141 24.797 22.969 39 32.203-25.266 29.953-56.953 56.25-66.141 104.72 25.453-48.891 84-42.516 126.32-77.297 15.984 4.5469 32.672 7.4062 49.922 8.2969-6.8906 38.578-21.188 77.203-4.9219 123.79-2.3906-55.078 51.469-78.844 70.734-130.13 16.594-4.125 32.484-10.078 47.391-17.672 13.312 36.844 20.203 77.438 57.609 109.59-29.625-46.5 5.1562-94.031-3.7969-148.08 12.141-11.719 22.969-24.797 32.203-39 29.953 25.266 56.25 56.953 104.72 66.141-48.891-25.453-42.516-84-77.297-126.32 4.5469-15.984 7.4062-32.672 8.2969-49.922 38.578 6.8906 77.203 21.188 123.79 4.9219-55.078 2.3906-78.844-51.469-130.13-70.734-4.125-16.594-10.078-32.484-17.672-47.391 36.844-13.312 77.438-20.203 109.59-57.609-46.5 29.625-94.031-5.1562-148.08 3.7969-11.719-12.141-24.797-22.969-39-32.203 25.266-29.953 56.953-56.25 66.141-104.72-25.453 48.891-84 42.516-126.32 77.297-15.984-4.5938-32.672-7.4062-49.922-8.2969 6.8906-38.578 21.188-77.203 4.875-123.79 2.4375 55.078-51.469 78.844-70.734 130.13zm163.45-135.24c112.08-42.188-6.6562-155.95 135.84-164.29 13.125-0.75 19.875 15.234 10.5 24.188-72.516 73.312 119.44 137.06 15.094 241.97 118.12 19.734 72-138.52 199.78-74.344 11.578 5.7656 9.6562 22.781-2.625 26.062-99.984 27.047 34.734 178.5-108.23 217.22 92.859 76.219 131.39-84.188 210.19 35.484 7.125 10.781-3.0938 24.422-15.281 21.234-99.844-26.484-59.719 171.74-202.4 133.97 42.188 112.08 155.95-6.6562 164.29 135.84 0.75 13.125-15.234 19.875-24.188 10.5-73.312-72.516-137.06 119.44-241.97 15.094-19.734 118.12 138.52 72 74.344 199.78-5.7656 11.578-22.781 9.6562-26.062-2.625-27.047-99.984-178.5 34.734-217.22-108.23-76.219 92.859 84.188 131.39-35.484 210.19-10.781 7.125-24.422-3.0938-21.234-15.281 26.484-99.844-171.74-59.719-133.97-202.4-110.53 41.578 5.2031 156.05-135.84 164.29-13.125 0.75-19.875-15.234-10.5-24.188 72.516-73.312-119.44-137.06-15.094-241.97-118.12-19.734-72 138.52-199.78 74.344-11.578-5.7656-9.6562-22.781 2.625-26.062 99.984-27.047-34.734-178.5 108.23-217.22-92.859-76.219-131.39 84.188-210.19-35.484-7.125-10.781 3.0938-24.422 15.281-21.234 99.844 26.484 59.719-171.74 202.4-133.97-42.188-112.08-155.95 6.6562-164.29-135.84-0.75-13.125 15.234-19.875 24.188-10.5 73.312 72.516 137.06-119.44 241.97-15.094 19.734-118.12-138.52-72-74.344-199.78 5.7656-11.578 22.781-9.6562 26.062 2.625 27.047 99.984 178.5-34.734 217.22 108.23 76.031-92.578-83.906-131.53 35.531-210.19 10.781-7.125 24.422 3.0938 21.234 15.281-26.531 99.844 171.74 59.719 133.97 202.4z" fill-rule="evenodd"/>
</svg>
