<?xml version="1.0" encoding="UTF-8"?>
<svg width="1200pt" height="1200pt" version="1.1" viewBox="0 0 1200 1200" xmlns="http://www.w3.org/2000/svg">
 <path d="m1114.6 677.95-19.117-11.543 4.5938-25.137 10.27-31.742-5.8086-20.844-18.625 4.0625-8.0508 35.18-4.6484 43.695 9.0742 24.512-15.016-23.082 4.9531-46.227 14.98-65.461-11.902-11.902-8.4883 3.3984-34.09-3.8125-9.1055 7.3281v27.926l0.20312 41.844 14.453 15.512-14.93 42.051 8.4062 30.566-13.992-26.957-18.531 6.1914-13.734 7.5156 10.27-12.453 21.438-7.1953 12.711-38.082-15.133-14.484-3.7422-41.898-44.785-7.4414-15.301 24.188 10.023 17.316 2.0312 53.234-1.3242 0.57812-7.1094-7.8555-2.082-17.762-30.988-31.059-23.148-33.762-27.59 19.285-14.523 45.672-13.668 15.773 14.359 12.719 27.961 49.723 26.062 10.035-30.922-4.3945-28.629-50.898-33.184-29.391-21.742 33.453-13.848-24.836 4.3672-43.82-16.715-27.344v-39.91l-17.398-20.316-19.867-22.645-26.98 22.176-4.3438 38.77 10.668 31.203-11.887-23.758-36.855 61.062v31.395l-10.621 19.648-12.082-3.8359-24.074-42.047 2.9414-53.574-22.836-33.43 0.003906-48.816-19.188-24.84-23.25-27.684-32.465 27.113-5.0508 47.398 13.164 38.152-18.008-29.047-48.535 74.656v35.316c-13.332-48.449-43.555-98.75-52.684-115.65-5.1406-9.4961-10.191-14.449-15.008-14.266-6.832 0.23047-12.762 10.211-14.52 14.055l-20.785 57.641c9.1953 17.02 20.477 36.152 30.203 53.914 2.6406-1.2031 5.4258-3.3984 8.2969-3.3984h0.34766c11.395 0 19.938 10.785 20.309 11.18l22.285 30.156-6.1406 3.8789-21.559-28.27s-6.9922-7.3672-15.168-7.0664c-4.6094 0.09375-8.9883 2.5938-12.992 7.3633l-16.258 19.242-5.3711-4.5039 16.258-19.238c1.3203-1.5508 2.6836-2.9141 4.0977-4.1172-15.562-28.391-35.246-64.492-43.906-81.027-4.4688-8.5-8.9141-13.059-12.391-12.805-4.4688 0.32422-8.7305 8.4531-10.121 12.344l-27.441 80.797c18.617 19.383 83.785 85.777 84.48 86.473 0 0-74.613-66-91.031-83.16-3.8438-4.0312-6.1602-3.4023-6.9258-3.2188-6.2969 1.6445-12.02 16.422-13.801 23.32l-0.11328 0.30859-17.957-30.691-28.992-31.82-7.3672-62.648-27.074-31.305-17.004 10.812-15.25 52.227 12.215-14.445 39.516 79.547-16.344 49.07 19.105 27.074-26.289-25.297 16.797-50.371-34.148-68.734-25.938 30.684-22.988 85.828-40.094 55.086h1056.2z"/>
</svg>
