<?xml version="1.0" encoding="UTF-8"?>
<svg width="1200pt" height="1200pt" version="1.1" viewBox="0 0 1200 1200" xmlns="http://www.w3.org/2000/svg">
 <path d="m244.66 571.49-38.445-43.113-55.645 117.8 42.32 35.73z"/>
 <path d="m1101.4 717.91-17.66-43.859v-128.4l-62.238-51.422-47.25 38.184-25.863 186.33-17.551 21.305-86.121-148.77-27.477 66.723 15.781 26.812 13.668-21.895 58.348 86.941h-8.668l-49.465-73.699-9.7695 15.641 39.758 67.539-4.8008 6.0039-77.789-132.11-50.578 100-4.9883-37.777-29.723-20.59-23.016 26.828 15.156-36.34-30.223-127.85-37.145-24.031-19.492 28.074-16.625 43.578-20.176 35.676h-0.12891l11.293-42.375 17.059-44.363 25.484-36.688 19.145 12.391-8.293-47.508-26.449-22.648-26.633-59.449h-19.465l-27.504 80.379-37.242 71.766-30.035 113.5-34.871 86.59-72.348-106.83-33.992 43.551 18.102 56.477-85-183.91-71.176 151.83-48.109-40.656-82.473 166.96h1070.3z"/>
</svg>
