<?xml version="1.0" encoding="UTF-8"?>
<svg width="1200pt" height="1200pt" version="1.1" viewBox="0 0 1200 1200" xmlns="http://www.w3.org/2000/svg">
 <g>
  <path d="m623.44 154.76c0-12.945-10.492-23.438-23.438-23.438-46.984 0-94.504 25.27-133.81 71.16-32.617 38.074-53.691 83.742-53.691 116.34 0 12.945 10.496 23.438 23.438 23.438 12.945 0 23.438-10.492 23.438-23.438 0-38.523 63.875-140.62 140.62-140.62 12.945 0 23.438-10.492 23.438-23.438z"/>
  <path d="m1105.6 987.21c-28.727-11.812-69.238-22.316-120.42-31.215-97.535-16.961-225.24-26.711-361.75-27.711v-329.2c144.16-11.949 257.81-133.08 257.81-280.27 0-155.08-126.17-281.25-281.25-281.25s-281.25 126.17-281.25 281.25c0 147.19 113.66 268.32 257.81 280.27v329.2c-136.52 1.0039-264.21 10.75-361.75 27.711-51.184 8.9023-91.699 19.402-120.43 31.215-14.066 5.7891-56.883 23.395-56.883 58.172 0 34.777 42.816 52.387 56.887 58.168 190.02 78.145 819.46 78.859 1011.2 0 14.07-5.7852 56.887-23.387 56.887-58.168-0.003906-34.777-42.816-52.383-56.887-58.168zm-739.99-668.39c0-129.23 105.14-234.38 234.38-234.38 129.24 0 234.38 105.14 234.38 234.38 0 129.23-105.14 234.38-234.38 234.38-129.23 0-234.38-105.14-234.38-234.38zm594.92 772.53c-203.35 32.434-517.35 32.492-721.08 0-116.06-18.508-146.43-39.215-153.54-45.969 7.1094-6.7539 37.473-27.461 153.54-45.969 92.68-14.781 211.61-23.305 337.1-24.254v93.66c0 12.941 10.496 23.438 23.438 23.438 12.945 0 23.438-10.496 23.438-23.438v-93.66c125.49 0.94531 244.42 9.4727 337.11 24.254 116.06 18.508 146.43 39.215 153.54 45.969-7.1094 6.7539-37.473 27.461-153.54 45.969z"/>
 </g>
</svg>
