<?xml version="1.0" encoding="UTF-8"?>
<svg width="1200pt" height="1200pt" version="1.1" viewBox="0 0 1200 1200" xmlns="http://www.w3.org/2000/svg">
 <path d="m165.28 160.78c0-55.641 181.55-100.78 405.47-100.78s405.47 45.141 405.47 100.78-181.55 100.78-405.47 100.78-405.47-45.141-405.47-100.78zm869.44 332.44c-0.32812 16.641-7.0781 31.172-20.062 43.5-26.859 25.922-81.75 42.281-163.55 48.422 11.719-10.781 23.156-22.219 33.938-34.875 71.297-9.5625 98.438-26.531 108.33-35.812 7.0781-6.7969 10.172-13.594 10.5-21.609 0-18.797-20.344-37.641-56.391-51.188h-0.09375c-15.75 43.828-35.812 77.766-56.766 102.42-1.8281 2.1562-3.375 4.0312-5.5312 6.1875-41.344 5.8594-97.828 8.9531-174.32 6.7969l-6.4688-0.32812c-8.9531-0.9375-15.422 6.4688-15.75 15.141-0.32812 8.625 6.4688 15.75 15.141 15.75l6.1875 0.32812c17.578 0.32812 34.547 0.60938 50.625 0.60938 33.328 0 63.234-0.9375 90.422-3.375-94.734 86.109-202.13 109.55-224.95 191.63-13.594 48.469 25.922 83.016 58.312 124.03l15.141 2.1562c25.594 3.375 86.109 11.438 86.109 54.609 0 6.1875-1.8281 15.422-11.109 24.047-12.047 11.438-32.719 17.578-52.781 20.344 1.2188-11.109 0.60938-21.281-1.5469-30.844 19.125-3.375 33.328-8.9531 34.547-13.594 0-9.2344-16.359-16.969-46.922-21.891 5.8594 11.109 10.172 22.547 12.328 35.484-14.812 2.7656-32.109 4.0312-49.359 3.0938-7.4062-0.9375-15.75 5.8594-16.359 14.203-0.60938 8.625 5.8594 16.031 14.203 16.359 3.375 0.32812 8.0156 0.60938 12.938 0.60938 11.109 0 25.594-0.60938 40.125-3.0938v0.9375c-9.8906 91.359-99.656 148.74-121.26 134.53-16.359-10.5 14.812-50.625-0.9375-109.88-24.047-91.031-131.44-99.047-236.68-170.02 27.141 1.8281 57.094 2.7656 89.156 2.7656 24.703 0 51.234-0.60938 78.703-1.8281 8.625-0.32812 15.141-7.7344 14.812-16.031-0.32812-8.625-7.4062-14.484-16.031-14.812-92.859 4.0312-162.94 0.60938-213.52-6.1875-20.672-18.516-38.859-38.859-52.781-61.734-1.2188 0.9375-2.7656 1.5469-4.3125 1.8281-31.172 6.1875-45.656 18.516-46.266 22.547 0 1.2188 1.2188 3.375 3.7031 5.8594 12.047 11.719 43.828 24.047 99.656 31.453 3.0938 2.7656 6.1875 5.25 9.2344 8.0156 12.328 10.5 24.375 19.734 37.031 27.75-85.172-5.8594-143.81-21.609-167.58-45.375-11.109-10.781-13.266-21.891-12.938-29.016 0.9375-26.859 34.875-43.828 67.594-50.625-10.172-25.312-15.422-54.328-13.266-87.328 4.6406-72.844 38.578-102.14 33.328-170.02-0.9375-12.328-2.4844-23.766-4.3125-34.547 37.969 10.5 86.109 18.188 143.48 23.156 40.734 3.375 78.047 4.6406 112.31 4.6406 53.391 0 98.109-3.0938 131.44-5.8594 8.625-0.9375 14.812-8.3438 14.203-16.641-0.9375-8.625-8.3438-15.422-16.688-14.203-53.672 4.6406-137.02 9.8906-238.55 1.2188-70.641-5.8594-120.32-15.75-153.66-26.531-5.8594-21.281-13.266-39.516-21.281-56.484l-2.4844 0.60938c-24.984 8.0156-33.656 17.297-33.328 21.281 0.9375 8.0156 17.297 21.609 57.094 34.547 3.0938 10.5 5.5312 21.891 7.4062 34.266-58.641-16.031-91.969-38.578-95.062-65.438-1.5469-12.938 3.375-37.031 52.172-53.062-14.484-27.469-29.625-56.484-41.953-96.562 84.844 50.906 269.39 66.656 390.66 66.656 130.82 0 334.18-17.906 408.24-79.312 2.4844 80.203-6.4688 145.87-22.172 199.26l0.75 0.28125c0.1875 0.046875 0.32812 0 0.46875 0.09375 67.172 25.453 76.734 61.547 76.734 80.672zm-463.78 154.92c-0.60938-8.625-8.3438-14.812-16.641-14.203-27.469 2.4844-54.938 3.375-82.688 3.375-32.719 0-65.719-2.1562-98.438-5.8594-8.0156-0.9375-16.031 4.9219-16.969 13.594-0.9375 8.3438 4.9219 16.031 13.594 16.969 33.656 4.0312 67.875 5.8594 101.81 6.1875h4.6406c26.859 0 54-1.2188 80.859-3.375 8.2969-0.9375 14.766-8.3438 13.828-16.688z"/>
</svg>
