<?xml version="1.0" encoding="UTF-8"?>
<svg width="1200pt" height="1200pt" version="1.1" viewBox="0 0 1200 1200" xmlns="http://www.w3.org/2000/svg">
 <path d="m638.63 241.69c-4.7344-10.875-10.547-21.281-17.438-30.938-7.3125-9.6562-13.594-20.016-18.75-30.938-3.1406-11.625-1.4062-24.047 4.875-34.312 8.9531-15.188 15.609-31.594 19.688-48.75 2.4844-15.562 1.3125-31.453-3.375-46.5-2.8594-10.031-6.5156-19.781-10.875-29.25l-5.25-10.688c-0.70312-1.3594-2.25-2.0625-3.75-1.6875-0.79688 0.23438-1.5 0.75-1.9219 1.5-0.375 0.75-0.42188 1.6406-0.14062 2.4375 0 0 0 4.125 2.8125 11.062 2.2969 9.6094 3.9375 19.406 4.875 29.25 1.5469 12.656 0.14062 25.5-4.125 37.5-2.625 6.6094-6.0469 12.938-10.125 18.75-4.125 6.375-9.1875 12-14.625 18.75-6.1406 7.875-10.969 16.641-14.25 26.062-4.0781 10.688-5.3438 22.219-3.75 33.562 3.3281 16.172 8.8594 31.828 16.5 46.5 3.5625 7.5938 6.3281 15.469 8.25 23.625 0.09375 1.2656 0.09375 2.4844 0 3.75h12.75c15.188-0.046875 30.328 0.98438 45.375 3 0.046875-3.9844-0.65625-7.9219-2.0625-11.625z"/>
 <path d="m621 965.81c-3.5625-7.5469-6.3281-15.469-8.25-23.625v-3.75h-12.75c-15.234 0.046875-30.469-0.98438-45.562-3-0.046875 3.9844 0.65625 7.9219 2.0625 11.625l4.6875 11.25c4.7812 10.875 10.688 21.234 17.625 30.938 7.3594 9.5156 13.688 19.828 18.75 30.75 3.2344 11.625 1.4531 24.047-4.875 34.312-8.5312 15.281-14.859 31.688-18.75 48.75-2.4844 15.562-1.3125 31.453 3.375 46.5 2.9062 9.9844 6.4688 19.734 10.688 29.25l5.0625 10.688c0.70312 1.3594 2.25 2.0625 3.75 1.6875 0.79688-0.23438 1.5-0.75 1.9219-1.5 0.375-0.75 0.42188-1.6406 0.14062-2.4375l-2.8125-11.062c-2.2969-9.6094-3.9375-19.406-4.875-29.25-1.4531-12.656-0.046875-25.453 4.125-37.5 2.625-6.6094 6.0469-12.938 10.125-18.75 4.3125-6.375 9.1875-12 14.625-18.75 6.1406-7.875 11.016-16.688 14.438-26.062 3.7031-10.734 4.7344-22.172 3-33.375-3.2344-16.266-8.8125-32.016-16.5-46.688z"/>
 <path d="m1191.4 603.74c-0.23438-0.79688-0.75-1.5-1.5-1.9219-0.75-0.375-1.6406-0.42187-2.4375-0.14062l-11.062 3c-9.5156 2.5312-19.266 4.3594-29.062 5.4375-13.031 1.9219-26.297 0.75-38.812-3.375-14.391-6.0938-27.797-14.297-39.75-24.375-7.7344-5.7656-16.359-10.359-25.5-13.5-9.8438-3.4219-20.391-4.5469-30.75-3.1875-15.797 3.375-31.031 9.0469-45.188 16.875-7.7812 3.75-15.844 6.75-24.188 9l-4.875 1.125v7.3125c0.046875 13.547-0.79688 27.047-2.4375 40.5 3.3281 0.14062 6.6094-0.375 9.75-1.5l11.062-4.5c10.781-4.125 21.094-9.4219 30.75-15.75 9.8906-7.5 20.672-13.781 32.062-18.75 12.375-2.8594 25.406-0.70313 36.188 6 14.906 9.0938 31.078 15.891 48 20.25 15.375 2.6719 31.172 1.7812 46.125-2.625 9.9844-2.8125 19.734-6.2344 29.25-10.312l10.688-4.875c0.89062-0.375 1.5469-1.0781 1.875-1.9688 0.32812-0.89063 0.23438-1.875-0.1875-2.7188z"/>
 <path d="m187.5 634.69c15.75-3.1875 30.938-8.5312 45.188-15.938 7.6875-3.75 15.75-6.7969 24-9h4.6875v-9.75c-0.046875-13.781 0.79688-27.562 2.4375-41.25-3.375-0.1875-6.7969 0.375-9.9375 1.6875l-11.062 4.3125c-10.688 4.6406-20.953 10.312-30.562 16.875-9.8438 7.5-20.531 13.828-31.875 18.75-12.234 3-25.172 0.9375-35.812-5.8125-15-9.0469-31.219-15.797-48.188-20.062-15.375-2.5312-31.172-1.5469-46.125 2.8125-9.9844 2.8125-19.734 6.2344-29.25 10.312l-10.688 4.875c-1.3594 0.70312-2.0625 2.25-1.6875 3.75 0.23438 0.79688 0.75 1.5 1.5 1.9219 0.75 0.375 1.6406 0.42188 2.4375 0.14062l11.062-3c9.5625-2.4375 19.266-4.2656 29.062-5.4375 12.984-1.7812 26.203-0.5625 38.625 3.5625 14.484 6.4688 27.938 14.953 39.938 25.312 7.6875 5.9062 16.312 10.547 25.5 13.688 9.9375 3.1875 20.484 3.9375 30.75 2.25z"/>
 <path d="m832.69 354 6.75 6.5625c10.125 10.078 19.594 20.766 28.312 32.062 2.7188-2.3438 4.875-5.2969 6.1875-8.625l4.875-11.062c4.1719-10.969 7.3594-22.219 9.5625-33.75 1.4531-12.188 4.4062-24.141 8.8125-35.625 6.3281-10.688 16.781-18.328 28.875-21.188 17.25-4.0781 33.75-10.781 48.938-19.875 12.797-9.1406 23.297-21.047 30.75-34.875 5.0156-9.0469 9.4219-18.469 13.125-28.125l4.125-10.875c0.5625-1.5-0.09375-3.1875-1.5-3.9375-1.5469-0.75-3.4219-0.14062-4.3125 1.3125l-5.625 9.9375c-5.1094 8.4375-10.734 16.5-16.875 24.188-8.25 10.172-18.797 18.281-30.75 23.625-6.5156 3-13.359 5.1094-20.438 6.375-7.5 1.5-15 2.0625-24.188 3.5625-9.7031 1.3594-19.125 4.2188-27.938 8.4375-9.7969 4.5938-18.328 11.484-24.938 20.062-8.8594 13.734-15.797 28.641-20.625 44.25-2.8594 8.0156-6.4219 15.703-10.688 23.062z"/>
 <path d="m329.26 803.44c-3.2344 2.9062-5.7188 6.4688-7.3125 10.5l-4.5 11.062c-4.3594 11.25-7.5 22.969-9.375 34.875-1.4531 11.859-4.1719 23.578-8.0625 34.875-2.0156 4.5938-5.1562 8.625-9.1875 11.625-5.3438 3.9375-11.297 6.9844-17.625 9-6.9375 2.625-15.938 5.0625-24.188 8.4375-8.5312 3.5625-16.594 8.1562-24 13.688-12.844 9.3281-23.297 21.516-30.562 35.625-4.9688 9.1406-9.2344 18.703-12.75 28.5-2.4375 6.9375-3.9375 10.875-3.9375 10.875-0.5625 1.4531 0.09375 3.0938 1.5 3.75 1.5 0.84375 3.4219 0.375 4.3125-1.125l5.8125-9.75c5.1094-8.6719 10.734-16.969 16.875-24.938 8.1094-10.312 18.516-18.609 30.375-24.188 6.4688-2.7188 13.312-4.5938 20.25-5.625 7.5-1.5 15-1.6875 24.375-3.1875 9.8906-1.3594 19.594-4.125 28.688-8.25 10.172-4.6406 19.125-11.625 26.062-20.438 9.2812-13.875 16.594-28.922 21.75-44.812 2.8594-7.7812 6.5625-15.188 11.062-22.125l1.6875-2.8125c-3.375-3-6.75-6.1875-9.9375-9.5625-11.297-11.25-21.75-23.25-31.312-36z"/>
 <path d="m1014.2 1016.4-9.9375-5.625c-8.4375-5.0625-16.594-10.641-24.375-16.688-10.453-7.9688-18.938-18.234-24.75-30-5.6719-14.531-9.0938-29.812-10.125-45.375-1.3125-9.2812-3.8438-18.375-7.5-27-4.5938-9.6094-11.438-18.047-19.875-24.562-13.594-8.8594-28.453-15.703-44.062-20.25-8.1562-2.8594-15.984-6.4688-23.438-10.875l-3.9375-2.4375-5.8125 5.8125c-9.7969 9.8438-20.203 19.031-31.125 27.562 2.3906 2.5781 5.25 4.5938 8.4375 6l10.875 4.6875c10.828 4.3594 22.078 7.6406 33.562 9.75 12.281 1.5 24.281 4.5469 35.812 9 10.594 6.7031 18.094 17.391 20.812 29.625 3.7031 17.156 10.031 33.656 18.75 48.938 9 12.75 20.812 23.297 34.5 30.75 9.0469 5.0625 18.469 9.5156 28.125 13.312l10.875 4.125c1.5 0.5625 3.1875-0.09375 3.9375-1.5 0.70312-0.75 1.0312-1.7812 0.89062-2.8125s-0.75-1.9219-1.6406-2.4375z"/>
 <path d="m373.87 318.74c-11.062-4.3594-22.594-7.5469-34.312-9.5625-12-1.5-23.812-4.2656-35.25-8.25-10.5-6.0469-18-16.172-20.812-27.938-4.5469-16.969-11.625-33.141-21-48-9.1406-12.844-21.234-23.344-35.25-30.562-9.0938-5.0625-18.562-9.4688-28.312-13.125l-10.875-3.9375c-1.5-0.5625-3.1875 0.09375-3.9375 1.5-0.75 1.5469-0.14062 3.4219 1.3125 4.3125l9.75 5.8125c8.5312 5.0156 16.641 10.688 24.188 17.062 10.406 8.0625 18.75 18.469 24.375 30.375 2.8594 6.4688 4.875 13.266 6 20.25 1.5 7.5 1.875 15 3.375 24.188 1.7812 9.8906 4.9219 19.5 9.375 28.5 4.2656 9.75 10.641 18.422 18.75 25.312 14.062 9.2344 29.344 16.5 45.375 21.562 7.875 2.8594 15.469 6.4688 22.688 10.688l3.1875 2.25 8.0625-8.4375c10.641-10.781 22.078-20.812 34.125-30-2.7188-2.9062-6.0469-5.1562-9.75-6.5625z"/>
 <path d="m835.87 102.94c1.1719-10.312 1.7344-20.719 1.6875-31.125v-11.625c0.09375-0.9375-0.1875-1.875-0.75-2.625-0.60938-0.75-1.5-1.2188-2.4375-1.3125-1.7344-0.14062-3.2812 1.0781-3.5625 2.8125 0 0 0 4.125-1.6875 11.438-1.5 9.7031-3.7031 19.312-6.5625 28.688-3.6094 12.562-10.031 24.188-18.75 33.938-5.0156 5.0625-10.641 9.5156-16.688 13.312-6.375 4.3125-13.125 7.5-21 12.375-8.625 5.0156-16.406 11.344-23.062 18.75-7.3594 8.2031-12.703 18.047-15.562 28.688-3.2344 16.078-4.1719 32.578-2.8125 48.938 0.375 8.7188-0.046875 17.438-1.3125 26.062-0.09375 1.2656-0.09375 2.4844 0 3.75 16.922 6.6562 33.281 14.625 48.938 23.812 1.5938-3.4219 2.3906-7.125 2.4375-10.875v-12c-0.09375-11.812-1.4062-23.531-3.9375-35.062-3-11.766-4.7812-23.859-5.25-36 1.875-12.188 8.625-23.109 18.75-30.188 14.297-10.547 26.953-23.203 37.5-37.5 8.0156-13.5 12.797-28.641 14.062-44.25z"/>
 <path d="m492.74 982.87c-3 13.219-8.9531 25.594-17.438 36.188-7.125 8.8594-15.703 16.453-25.312 22.5-8.625 5.8125-15 8.625-21 12.75-5.625 3.3281-10.922 7.2188-15.75 11.625-8.625 9.0938-15.234 19.875-19.5 31.688-5.0625 11.625-8.0625 22.688-10.688 30.188s-3.75 12.188-3.75 12.188c-0.60938 1.7812-2.4844 2.7656-4.3125 2.25-1.0781-0.46875-1.875-1.4531-2.0625-2.625 0 0-1.125-4.6875-2.4375-12.938-2.1094-11.625-2.9531-23.438-2.625-35.25 0.23437-18.516 4.9219-36.75 13.688-53.062 5.1094-9.1406 11.438-17.625 18.75-25.125 6.75-7.3125 14.625-14.062 18.75-18.75 4.4062-4.0781 8.1562-8.8125 11.062-14.062 1.9219-3.3281 3-7.0312 3.1875-10.875-0.23438-12-1.3594-23.953-3.375-35.812-1.0781-7.0312-1.6875-14.109-1.875-21.188v-18.75c0.09375-0.5625 0.09375-1.125 0-1.6875 20.672 12.281 42.609 22.266 65.438 29.812v4.3125c2.4844 18.797 2.25 37.875-0.75 56.625z"/>
 <path d="m1143.7 834.37c-0.28125 1.5938-1.5938 2.7656-3.1875 2.8125h-11.625c-10.406 0.23438-20.812-0.28125-31.125-1.5-15.609-1.7344-30.609-6.9844-43.875-15.375-14.25-10.594-26.906-23.25-37.5-37.5-6.9375-10.172-17.812-16.969-30-18.75-12.141 0.42188-24.234 2.1562-36 5.25-11.578 2.5312-23.391 3.8438-35.25 3.9375h-12c-3.75-0.046875-7.4531-0.89062-10.875-2.4375 9.375-15.844 17.391-32.484 24-49.688h3.9375c8.2969 1.3125 16.734 1.8281 25.125 1.5 16.406-1.3594 32.953-0.42188 49.125 2.8125 10.5 2.9531 20.156 8.3438 28.125 15.75 7.3125 6.75 13.641 14.531 18.75 23.062 4.875 7.875 8.0625 14.812 12.375 21.188 3.75 6 8.25 11.531 13.312 16.5 9.6562 8.7656 21.234 15.141 33.75 18.75 9.4688 2.8125 19.125 4.9688 28.875 6.5625l11.25 1.6875c1.3125-0.046875 2.5312 0.65625 3.1406 1.8281 0.60938 1.1719 0.46875 2.5781-0.32812 3.6094z"/>
 <path d="m308.44 427.31c-9.7031 16.312-18 33.422-24.75 51.188h-3.5625c-8.2969-1.4062-16.734-1.9688-25.125-1.6875-16.359 1.1719-32.766-0.046875-48.75-3.5625-10.688-2.8594-20.484-8.3438-28.5-15.938-7.3594-6.75-13.688-14.625-18.75-23.25-4.875-7.875-8.0625-14.625-12.188-21-3.7969-6.0469-8.25-11.672-13.312-16.688-9.5625-8.7656-21.047-15.188-33.562-18.75-9.4688-2.9531-19.078-5.2031-28.875-6.75l-11.25-1.6875c-0.9375 0.046875-1.9219-0.28125-2.5781-0.98438-0.70312-0.65625-1.0312-1.6406-0.98438-2.5781 0.28125-1.5938 1.5938-2.7656 3.1875-2.8125h11.625c10.406-0.23438 20.812 0.28125 31.125 1.5 15.656 1.5938 30.703 6.7031 44.062 15 14.25 10.641 26.859 23.25 37.5 37.5 4.2188 5.25 9.2812 9.75 15 13.312 4.3594 2.8594 9.4219 4.4531 14.625 4.6875 12.094-0.46875 24.094-2.2969 35.812-5.4375 11.672-2.5312 23.531-3.8906 35.438-4.125h12c4.0312-0.1875 8.0625 0.51562 11.812 2.0625z"/>
 <path d="m1149.4 385.87-7.875 8.625c-7.1719 7.5469-14.906 14.578-23.062 21-12.141 10.078-26.438 17.109-41.812 20.625-17.484 2.5312-35.203 2.5312-52.688 0-11.859-1.9688-23.953 1.0312-33.562 8.25-8.0625 9.0469-15.234 18.844-21.375 29.25-6.4219 10.031-13.828 19.359-22.125 27.938l-8.625 8.4375c-2.8594 2.7188-6.2344 4.9219-9.9375 6.375-4.5938-18.75-10.875-37.078-18.75-54.75l3-1.875c6.75-4.9219 12.984-10.453 18.75-16.5 10.922-12.609 23.531-23.672 37.5-32.812 9.6094-5.4375 20.438-8.4844 31.5-8.8125 9.9844-0.375 19.969 0.79688 29.625 3.375 9 2.25 16.125 4.875 23.625 6.375 6.8906 1.6875 13.922 2.5312 21 2.4375 13.172-0.46875 26.016-4.0312 37.5-10.5 8.7188-4.5469 17.109-9.6562 25.125-15.375l9.375-6.75c0.5625-0.5625 1.3594-0.9375 2.1562-0.9375s1.5938 0.375 2.1562 0.9375c0.51562 0.79688 0.65625 1.7812 0.375 2.7188-0.32812 0.89062-0.98438 1.5938-1.875 1.9688z"/>
 <path d="m289.69 736.13-3.375 2.25c-6.75 5.1094-13.031 10.828-18.75 17.062-10.594 12.375-22.922 23.156-36.562 32.062-9.4219 5.2969-19.969 8.2969-30.75 8.8125-9.8438 0.42188-19.734-0.65625-29.25-3.1875-9-2.25-16.125-4.6875-23.625-6.1875-6.9375-1.5469-14.062-2.2969-21.188-2.25-13.172 0.70312-25.969 4.4531-37.5 10.875-8.625 4.7344-16.969 9.9844-24.938 15.75l-9.1875 6.75c-0.5625 0.5625-1.3594 0.9375-2.1562 0.9375s-1.5938-0.375-2.1562-0.9375c-1.0781-1.1719-1.0781-2.9531 0-4.125l8.25-7.6875c7.2656-7.4062 15.047-14.297 23.25-20.625 12.141-9.9844 26.484-16.922 41.812-20.25 17.344-2.5312 34.969-2.5312 52.312 0 12.141 2.1094 24.562-0.79688 34.5-8.0625 8.4375-8.9062 15.797-18.797 21.938-29.438 6.5156-9.7969 13.922-18.938 22.125-27.375l8.625-8.25c2.625-2.5781 5.7188-4.5469 9.1875-5.8125 4.5 17.016 10.312 33.609 17.438 49.688z"/>
 <path d="m818.06 1149.6c-1.2188 0.9375-2.9062 0.9375-4.125 0l-7.6875-7.875c-7.5938-7.1719-14.719-14.812-21.375-22.875-10.359-12.094-17.672-26.484-21.375-42-3.0469-17.578-3.4688-35.531-1.125-53.25 0.42188-6.3281-0.1875-12.656-1.875-18.75-1.1719-4.5938-3.5625-8.8125-6.9375-12.188-9-7.5-18.656-14.156-28.875-19.875-10.359-6.4688-20.016-13.922-28.875-22.312l-8.625-8.625c-3.375-3.2812-6-7.2656-7.6875-11.625 21.938-5.2969 43.266-12.703 63.75-22.125l1.3125 2.0625c4.4062 6.7969 9.5625 13.078 15.375 18.75 12.656 10.969 23.766 23.578 33 37.5 5.625 10.125 8.6719 21.422 9 33 0.1875 10.219-1.125 20.391-3.9375 30.188-2.4375 9.1875-5.0625 16.125-6.75 23.438-1.8281 6.7031-2.7656 13.641-2.8125 20.625 0.09375 13.078 3.375 25.969 9.5625 37.5 4.4062 8.8125 9.4219 17.344 15 25.5l6.5625 9.375c0.42188 1.4062-0.1875 2.9062-1.5 3.5625z"/>
 <path d="m519 271.13c-20.344 4.875-40.219 11.719-59.25 20.438l-1.5-2.4375c-4.6875-6.7969-10.125-13.078-16.125-18.75-12.609-10.969-23.625-23.578-32.812-37.5-5.4375-9.8906-8.5312-20.953-9-32.25-0.14062-10.078 1.125-20.109 3.75-29.812 2.4375-9 4.875-16.125 6.5625-23.438 1.5-6.8906 2.1562-13.969 1.875-21-0.28125-13.125-3.7031-25.969-9.9375-37.5-4.5-8.8125-9.6562-17.25-15.375-25.312l-6.5625-9.375c-0.65625-0.51562-0.98438-1.3125-0.98438-2.1562s0.32812-1.6406 0.98438-2.1562c1.1719-1.0312 2.9531-1.0312 4.125 0l8.4375 7.875c7.7344 7.0312 14.859 14.672 21.375 22.875 10.172 12.141 17.297 26.531 20.812 42 2.625 17.531 2.625 35.344 0 52.875-0.42188 6.2812 0.09375 12.609 1.5 18.75 1.2188 4.7812 3.6094 9.1406 6.9375 12.75 9 7.875 18.797 14.766 29.25 20.625 10.172 6.4219 19.688 13.922 28.312 22.312l8.625 8.625c3.9375 3.4219 7.0312 7.7344 9 12.562z"/>
 <path d="m600 291.74c-30.375-0.046876-60.562 4.3594-89.625 13.125-7.3125 2.25-14.812 4.875-21.938 7.6875-92.766 36.094-162.47 114.7-187.08 211.18-24.609 96.469-1.1719 198.89 62.953 275.02 4.5 5.25 9 10.125 13.5 15 58.219 60.188 138.47 94.031 222.19 93.75 28.406 0.046875 56.672-3.7969 84-11.438 11.109-3.2344 22.078-7.0781 32.812-11.438 88.266-36.703 154.55-112.31 179.34-204.61 24.797-92.344 5.3906-190.97-52.594-266.95-57.984-76.031-147.94-120.84-243.56-121.31z"/>
</svg>
