<?xml version="1.0" encoding="UTF-8"?>
<svg width="1200pt" height="1200pt" version="1.1" viewBox="0 0 1200 1200" xmlns="http://www.w3.org/2000/svg">
 <path d="m368.08 547.13c3.8945-37.047-1.9961-76.801-12.574-105.8-19.859-54.453-71.613-80.297-127.96-68.949-11.434 2.3047-22.785 6.2734-31.887 13.57-17.195 13.781-25.176 50.262 2.3828 58.594 11.922 3.5977 26.707-5.7852 26.316-18.242-2.7891 10.836-19.082 14.906-26.633 6.668-6.4961-7.0859-4.8867-19.055 1.4297-26.312 34.148-39.23 104.21-0.09375 124.66 33.738 18.41 30.453 22.859 67.164 24.848 102.7 1.5508 27.812 1.5 57.18-11.98 81.555 18.676-19.293 28.242-47.52 31.395-77.52m658.93-52.918c-0.42969-3.4727-1.3008-6.9023-2.4766-10.184-3.8828-10.859-11.031-20.598-20.496-27.199-14.52-10.121-33.812-12.258-50.844-7.4219-17.031 4.8359-31.801 16.133-42.66 30.113-16.484 21.23-26.082 47.699-23.246 74.621 1.707 16.148 7.1562 29.664 12.961 39.719 5.8867 10.09 12.059 16.859 16.309 20.84 0.77344 0.76172 1.9492-0.24219 1.3828-1.1406-5.668-8.6055-16.52-28.211-16.887-55.844-0.16406-13.672 2.7266-28.859 10.098-43.465 9.0859-18.008 25.156-34.32 43.406-43.047 13.969-6.6758 31.035-8.8867 43.438 2.125 7.543 6.7031 11.992 16.27 14.547 26.023 1.5703 6.0078 1.5508 14.074-4.1484 16.527-4.3711 1.8828-9.8125-1.5078-10.953-6.1289-1.1328-4.6211 1.3633-9.6094 5.2109-12.402-7.5859 0.32422-12.746 9.7031-9.9258 16.758 2.8125 7.0508 11.691 10.523 18.984 8.4219 7.3047-2.0977 12.703-8.7852 14.625-16.137 1.0352-3.9688 1.1719-8.1016 0.67578-12.18m-297.11-121.07c32.605-43.832 86.527-66.461 117.8-111.32 16.309-23.391 33.383-72.23 0.78516-90.121-18.477-10.148-39.984 1.0977-51.383 16.527-4.0742 5.6562-7.0469 12.469-5.9141 19.215 0.49609 3.1797 2.1914 6.457 4.8242 8.2539 2.4766 1.6914 5.0664 2.3008 7.4141 2.3594 2.3398 0.042969 4.543-0.50781 6.25-1.6367 1.7383-1.125 2.7266-2.9141 2.9375-4.4219 0.19922-1.2695-1.3867-1.2773-1.7227-0.47266-0.85547 2.3906-4.2578 3.5312-7.7812 2.3477-1.707-0.56641-3.4219-1.7148-4.3047-3.1289-0.77734-1.2773-1.0703-3.5156-0.66016-5.5703 2.4805-12.582 23.648-25.098 35.891-22.105 7.0781 1.7305 12.066 8.5547 13.457 15.703 1.3789 7.1562-0.25 14.555-2.582 21.453-10.688 31.586-34.602 55.758-57.742 78.719-11.633 11.539-24.301 22.672-34.543 35.512-9.7461 12.215-14.145 26.977-23.34 39.531 0.20312-0.28125 0.41016-0.55469 0.61719-0.83984m-107.6 389.85c-1.3281 1.2422 0.12891 3.4453 1.7227 2.5273 7.9102-4.5234 20.262-11.426 34.07-23.383 13.91-11.77 29.555-28.258 44.023-49.93 14.527-21.605 27.445-48.426 37.234-79.035 4.8672-15.316 8.75-31.613 11.82-48.637 3.0664-17.148 4.6797-34.637 6.5117-51.906 3.4453-34.57 8.2305-65.102 21.754-88.664 13.141-23.879 32.855-42.121 52.375-55.824 19.438-13.973 38.551-23.922 54.102-32.102 15.66-8.0469 28.098-14.031 36.238-18.086 1.6367-0.8125 0.73828-3.2891-1.043-2.8789-9.6172 2.2461-24.473 5.6914-43.098 11.219-18.602 5.5547-41.074 13.285-64.887 26.289-23.477 13.105-48.805 32.82-65.785 61.895-16.996 29.195-22.707 63.258-25.922 94.336-3.0312 31.469-5.2969 60.508-11.543 88.648-5.7539 28.035-14.16 54.195-24.285 76.945-9.9922 22.832-22.012 41.992-33.523 56.801-11.441 14.926-22.602 25.09-29.766 31.785m127.67 274.91c21.137-16.207 21.934-29.93 6.4023-22.27-22.672 11.254-47.203 16.605-70.613 18.66-23.656 1.9805-45.727 1.5352-69.805-1.0703-23.828-2.7344-48.773-8.0391-74.082-18.609-12.629-5.375-25.297-12.078-37.512-20.586-12.16-8.625-23.75-19.184-33.812-31.457-20.383-24.543-32.922-56.215-36.688-86.762-0.21094-1.5781-0.31641-3.1445-0.49609-4.7227-1.1484 13.91-2.1328 27.961-2.6406 41.059-0.55469 15.84-0.19531 30.742 1.7773 44.219 1.9766 13.559 5.4688 25.301 11.16 35.871 5.5703 10.773 13.754 20.887 23.449 30.137 19.543 18.496 45.516 32.75 71.855 42.539 26.418 9.7656 53.727 14.828 79.867 15.379 52.637 1.6875 99.086-17.246 131.14-42.387m67.824-31.859c-39.324 57.59-98.828 101.7-166.19 119.75-67.363 18.043-142.07 9.1914-201.91-26.629-35.613-21.328-66.016-52.246-83.5-89.891-20.762-44.684-22.406-96.016-16.801-144.97 13.148-114.78 63.59-223.11 73.68-338.2 4.2422-48.488 0.76953-99.188-21.559-142.43-22.523-43.637-64.121-76.988-111.6-89.496 40.32-10.43 83.578 7.9219 114.21 36.148 56.215 51.805 77.359 132.62 76.492 209.06-0.84766 75.371-27.711 147.65-32.434 220.99 1.8594-4.5 3.5508-9.0625 5.375-13.578 2.6211-6.4805 5.5625-12.773 8.5898-18.996 45.555-90.805 106.89-165.86 120.73-270.36 12.66-95.484-3.1367-192.32-25.129-285.22-11.129-47.016-20.855-82.559-26.539-106.8-1.1719-4.832 5.4531-7.5508 7.707-3.1172 11.992 23.844 31.457 61 52.91 108.77 43.305 96.531 74.992 201.7 70.922 308.48-1.9883 52.02-12.797 103.49-32.84 151.58-19.789 47.527-51.797 87.891-75.309 133.39-27.309 52.824-33.152 118.59 17.273 159.19 57.531 46.312 142.16 37.141 198.85-5.7422 24.273-18.371 45.633-48.797 27.035-78.953-8.4102-13.621-23.023-22.328-38.836-24.805-25.527-4.0039-51.746 0.92578-74.488 12.598-9.6172 4.9375-18.625-7.4883-11.211-15.352 8.1758-8.6562 17.562-16.137 27.969-21.977 26.641-14.938 59.965-18.418 88.348-7.1133 54.598 21.738 70.266 72.547 64.789 124.08-3.8398 36.082-18.059 72.531-36.539 99.59m158.14-165.36c40.957 160.75-115.66 291.86-264.83 299.32 37.883-17.074 74.098-37.867 107.95-61.988 49.871-35.543 96.844-82.223 109.43-142.16 8.543-40.707 0.074219-83.52-16.305-121.76-42.445-99.086-138.68-197.64-83.461-311.83 11.266-23.289 29.102-44.93 53.59-53.289-38.59 40.297-50.312 96.996-33.523 150.07 19.141 60.496 60.996 109.1 92.84 162.86 14.586 24.629 27.074 50.332 34.316 78.766" fill-rule="evenodd"/>
</svg>
