<?xml version="1.0" encoding="UTF-8"?>
<svg width="1200pt" height="1200pt" version="1.1" viewBox="0 0 1200 1200" xmlns="http://www.w3.org/2000/svg">
 <g>
  <path d="m599.91 138.12c-6.5742-0.98047-12.645 3.6094-13.582 10.172-1.7383 12.129-3.2734 24.266-4.6094 36.391-0.72266 6.5898 4.0312 12.516 10.617 13.242 0.44141 0.050781 0.89062 0.074219 1.3281 0.074219 6.0352 0 11.238-4.5469 11.914-10.688 1.3008-11.871 2.8008-23.734 4.5078-35.609 0.9375-6.5625-3.6133-12.637-10.176-13.582z"/>
  <path d="m607.46 700.17c-6.6133 0.42578-11.633 6.1289-11.207 12.742 1.7539 27.297 3.0469 51.793 3.9648 74.879 0.25391 6.4609 5.5742 11.523 11.984 11.523 0.16016 0 0.32422-0.007812 0.48047-0.011718 6.6289-0.26563 11.777-5.8398 11.516-12.461-0.92578-23.285-2.2266-47.965-3.9883-75.461-0.42578-6.6133-6.0039-11.633-12.75-11.211z"/>
  <path d="m575.8 260.7c-1.1016 23.098-1.6641 47.516-1.6641 72.562l0.007813 3.3242c0.035156 6.6055 5.4023 11.934 12 11.934h0.066406c6.6289-0.035157 11.973-5.4375 11.934-12.066l-0.007813-3.1953c0-24.668 0.55078-48.699 1.6406-71.414 0.31641-6.6211-4.793-12.246-11.414-12.562-6.4688-0.0625-12.238 4.8008-12.562 11.418z"/>
  <path d="m624.24 938.38c1.0742-22.859 1.6172-46.961 1.6172-71.578v-4.2852c-0.027344-6.6094-5.3945-11.949-12-11.949h-0.050781c-6.6289 0.027344-11.977 5.4258-11.949 12.051v4.125c0 24.297-0.53516 48.016-1.5938 70.508-0.30859 6.6211 4.8047 12.238 11.426 12.551 0.19531 0.007813 0.38281 0.011719 0.57422 0.011719 6.3672 0.003906 11.672-5.0078 11.977-11.434z"/>
  <path d="m592.49 498.91c6.6133-0.42578 11.633-6.1289 11.207-12.742-1.7539-27.316-3.043-51.801-3.9453-74.863-0.25391-6.6133-5.7109-12.047-12.457-11.52-6.6211 0.25781-11.785 5.8359-11.52 12.457 0.91016 23.262 2.2031 47.949 3.9648 75.461 0.41016 6.3516 5.6914 11.234 11.965 11.234 0.26172-0.007812 0.52344-0.011719 0.78516-0.027344z"/>
  <path d="m596.14 550.05c-6.6094 0.50391-11.555 6.2695-11.051 12.879l5.8125 75.051c0.48047 6.2969 5.7422 11.086 11.953 11.086 0.30469 0 0.61328-0.011718 0.92578-0.035156 6.6094-0.50391 11.555-6.2734 11.051-12.879l-5.8125-75.051c-0.50391-6.6094-6.3125-11.559-12.879-11.051z"/>
  <path d="m594.43 1012.7c-1.3008 11.871-2.8008 23.734-4.5078 35.609-0.94531 6.5625 3.6094 12.641 10.172 13.582 0.58203 0.078125 1.1562 0.12109 1.7266 0.12109 5.8711 0 11.004-4.3125 11.859-10.297 1.7383-12.129 3.2734-24.266 4.6094-36.391 0.72266-6.5898-4.0312-12.516-10.617-13.242-6.6016-0.64844-12.52 4.0312-13.242 10.617z"/>
  <path d="m539.91 138.12c-6.5859-0.98047-12.648 3.6094-13.582 10.172-0.87109 6.0664-1.6875 12.129-2.4609 18.195-0.83203 6.5742 3.8203 12.578 10.395 13.418 0.51563 0.066406 1.0273 0.09375 1.5312 0.09375 5.9531 0 11.113-4.4297 11.891-10.488 0.75-5.9336 1.5508-11.871 2.4023-17.805 0.9375-6.5664-3.6133-12.641-10.176-13.586z"/>
  <path d="m535.08 535.73c-6.6094 0.49219-11.566 6.2539-11.07 12.859l2.6367 34.488c0.48437 6.293 5.7461 11.074 11.953 11.074 0.30859 0 0.62109-0.011719 0.9375-0.035156 6.6094-0.51562 11.547-6.2891 11.039-12.891l-2.6367-34.43c-0.48828-6.6055-6.3008-11.648-12.859-11.066z"/>
  <path d="m540.36 604.65c-6.6094 0.51562-11.547 6.2891-11.039 12.891l2.6367 34.43c0.46875 6.3047 5.7305 11.105 11.953 11.105 0.29688 0 0.60547-0.011719 0.91016-0.035156 6.6094-0.49219 11.566-6.2539 11.07-12.859l-2.6367-34.488c-0.51562-6.6172-6.4219-11.648-12.895-11.043z"/>
  <path d="m545.6 673.58c-6.6094 0.46094-11.598 6.1953-11.133 12.809 0.80078 11.461 1.5664 22.926 2.2734 34.383 0.39062 6.3633 5.6758 11.262 11.965 11.262 0.24609 0 0.49609-0.007812 0.75-0.023438 6.6133-0.41016 11.648-6.1016 11.238-12.715-0.70703-11.523-1.4844-23.051-2.2852-34.582-0.46094-6.6094-6.2344-11.602-12.809-11.133z"/>
  <path d="m565.34 823.32c-0.16016-6.6289-5.7266-12.293-12.273-11.711-6.6289 0.15234-11.871 5.6484-11.711 12.273 0.26563 11.445 0.43359 22.887 0.48438 34.324 0.027343 6.6094 5.3945 11.949 12 11.949h0.050781c6.6289-0.027344 11.977-5.4258 11.949-12.051-0.054688-11.594-0.22656-23.191-0.5-34.785z"/>
  <path d="m550.08 742.56c-6.6211 0.33984-11.707 5.9883-11.359 12.605 0.58984 11.453 1.1172 22.91 1.5664 34.363 0.24609 6.4609 5.5664 11.539 11.984 11.539 0.15234 0 0.30859 0 0.46875-0.011718 6.6211-0.25391 11.785-5.8281 11.523-12.453-0.44531-11.559-0.97266-23.121-1.5781-34.68-0.34766-6.6289-6.0898-11.805-12.605-11.363z"/>
  <path d="m565.65 892.9c0.10547-6.6289-5.1836-12.082-11.812-12.188-6.5781 0.15234-12.082 5.1914-12.188 11.812-0.17578 11.414-0.48438 22.832-0.9375 34.262-0.26562 6.6211 4.8906 12.203 11.516 12.461 0.16016 0.007812 0.32422 0.011719 0.48047 0.011719 6.4102 0 11.73-5.0625 11.984-11.523 0.45703-11.613 0.76953-23.223 0.95703-34.836z"/>
  <path d="m514.36 305.86c-0.10938 6.6289 5.1719 12.086 11.801 12.199h0.20313c6.5352 0 11.883-5.2383 11.992-11.801 0.1875-11.426 0.51172-22.848 0.96484-34.266 0.26953-6.6211-4.8867-12.203-11.508-12.469-6.7617-0.10156-12.203 4.8906-12.469 11.508-0.46094 11.609-0.78125 23.219-0.98438 34.828z"/>
  <path d="m514.64 375.44c0.14062 6.5352 5.4844 11.73 11.988 11.73 0.09375 0 0.17969 0 0.27344-0.007813 6.6289-0.14453 11.879-5.6367 11.727-12.266-0.25391-11.438-0.41797-22.887-0.46094-34.328-0.027343-6.6133-5.3945-11.953-12-11.953h-0.046874c-6.6289 0.027343-11.984 5.4219-11.953 12.047 0.042969 11.598 0.20703 23.188 0.47266 34.777z"/>
  <path d="m533.46 525.23c0.28125 0 0.5625-0.011719 0.85156-0.027344 6.6094-0.46094 11.598-6.1953 11.133-12.809-0.80078-11.453-1.5586-22.922-2.2656-34.383-0.40234-6.6094-5.9141-11.582-12.715-11.238-6.6133 0.41016-11.648 6.1016-11.238 12.715 0.70703 11.531 1.4766 23.055 2.2773 34.582 0.4375 6.3242 5.7109 11.16 11.957 11.16z"/>
  <path d="m560.11 997.36c1.0977-11.598 2.0117-23.199 2.7695-34.797 0.42578-6.6094-4.582-12.324-11.199-12.758-6.4961-0.33984-12.324 4.582-12.758 11.199-0.73828 11.367-1.6406 22.734-2.7109 34.098-0.62109 6.6055 4.2188 12.457 10.816 13.078 0.38672 0.035157 0.76562 0.050781 1.1406 0.050781 6.1289-0.003906 11.355-4.6602 11.941-10.871z"/>
  <path d="m529.84 456.22c6.6211-0.33203 11.711-5.9766 11.371-12.59-0.57813-11.453-1.1016-22.918-1.543-34.371-0.24609-6.6211-5.8633-11.609-12.445-11.539-6.6211 0.25781-11.789 5.8281-11.539 12.453 0.44531 11.559 0.96484 23.113 1.5586 34.676 0.32422 6.4102 5.625 11.391 11.973 11.391 0.20703-0.003907 0.42188-0.007813 0.625-0.019532z"/>
  <path d="m517.2 236.2c-0.44531 6.6133 4.5586 12.332 11.168 12.773 0.27344 0.023438 0.54688 0.027344 0.81641 0.027344 6.2656 0 11.539-4.8594 11.957-11.199 0.76172-11.367 1.6758-22.738 2.7539-34.117 0.62891-6.5977-4.2109-12.453-10.816-13.078-6.6055-0.55469-12.453 4.2188-13.078 10.816-1.1055 11.59-2.0273 23.188-2.8008 34.777z"/>
  <path d="m532.32 1030.5c-0.75 5.9336-1.5508 11.871-2.4023 17.805-0.94531 6.5625 3.6094 12.641 10.172 13.582 0.57812 0.082031 1.1523 0.125 1.7227 0.125 5.8711 0 11.004-4.3125 11.859-10.297 0.87109-6.0664 1.6875-12.129 2.4609-18.195 0.83203-6.5742-3.8203-12.578-10.395-13.418-6.5586-0.82422-12.578 3.8242-13.418 10.398z"/>
  <path d="m479.91 138.12c-6.5977-0.98047-12.645 3.6094-13.582 10.172-1.7383 12.129-3.2734 24.266-4.6094 36.391-0.72266 6.5898 4.0312 12.516 10.617 13.242 0.44141 0.050781 0.89062 0.074219 1.3281 0.074219 6.0352 0 11.238-4.5469 11.914-10.688 1.3008-11.871 2.8008-23.734 4.5078-35.609 0.9375-6.5625-3.6133-12.637-10.176-13.582z"/>
  <path d="m504.24 938.38c1.0742-22.859 1.6172-46.961 1.6172-71.578v-4.2852c-0.027344-6.6094-5.3945-11.949-12-11.949h-0.050781c-6.6289 0.027344-11.977 5.4258-11.949 12.051v4.125c0 24.297-0.53516 48.016-1.5938 70.508-0.30859 6.6211 4.8047 12.238 11.426 12.551 0.19531 0.007813 0.38281 0.011719 0.57422 0.011719 6.3672 0.003906 11.672-5.0078 11.977-11.434z"/>
  <path d="m487.46 700.17c-6.6133 0.42578-11.633 6.1289-11.207 12.742 1.7539 27.297 3.0469 51.793 3.9648 74.879 0.25391 6.4609 5.5742 11.523 11.984 11.523 0.16016 0 0.32422-0.007812 0.48047-0.011718 6.6289-0.26563 11.777-5.8398 11.516-12.461-0.92578-23.285-2.2266-47.965-3.9883-75.461-0.42578-6.6133-5.9805-11.633-12.75-11.211z"/>
  <path d="m476.14 550.05c-6.6094 0.50391-11.555 6.2695-11.051 12.879l5.8125 75.051c0.48047 6.2969 5.7422 11.086 11.953 11.086 0.30469 0 0.61328-0.011718 0.92578-0.035156 6.6094-0.50391 11.555-6.2734 11.051-12.879l-5.8125-75.051c-0.50781-6.6094-6.2031-11.559-12.879-11.051z"/>
  <path d="m455.8 260.7c-1.1016 23.098-1.6641 47.516-1.6641 72.562l0.007813 3.3242c0.035156 6.6055 5.4023 11.934 12 11.934h0.066406c6.6289-0.035157 11.973-5.4375 11.934-12.066l-0.007813-3.1953c0-24.668 0.55078-48.699 1.6406-71.414 0.31641-6.6211-4.793-12.246-11.414-12.562-6.4727-0.0625-12.238 4.8008-12.562 11.418z"/>
  <path d="m472.49 498.91c6.6133-0.42578 11.633-6.1289 11.207-12.742-1.7539-27.316-3.043-51.801-3.9453-74.863-0.25391-6.6211-5.75-12.051-12.453-11.527-6.6211 0.25781-11.785 5.8359-11.52 12.457 0.91016 23.262 2.2031 47.949 3.9648 75.461 0.41016 6.3516 5.6914 11.234 11.965 11.234 0.25781 0 0.51953-0.003907 0.78125-0.019532z"/>
  <path d="m474.43 1012.7c-1.3008 11.871-2.8008 23.734-4.5078 35.609-0.94531 6.5625 3.6094 12.641 10.172 13.582 0.58203 0.078125 1.1562 0.12109 1.7266 0.12109 5.8711 0 11.004-4.3125 11.859-10.297 1.7383-12.129 3.2734-24.266 4.6094-36.391 0.72266-6.5898-4.0312-12.516-10.617-13.242-6.5938-0.64844-12.52 4.0312-13.242 10.617z"/>
  <path d="m419.91 138.12c-6.6094-0.98047-12.645 3.6094-13.582 10.172-0.87109 6.0664-1.6875 12.129-2.4609 18.195-0.83203 6.5742 3.8203 12.578 10.395 13.418 0.51563 0.066406 1.0273 0.09375 1.5312 0.09375 5.9531 0 11.113-4.4297 11.891-10.488 0.75-5.9336 1.5508-11.871 2.4023-17.805 0.9375-6.5664-3.6133-12.641-10.176-13.586z"/>
  <path d="m420.36 604.65c-6.6094 0.51562-11.547 6.2891-11.039 12.891l2.6367 34.43c0.46875 6.3047 5.7305 11.105 11.953 11.105 0.29688 0 0.60547-0.011719 0.91016-0.035156 6.6094-0.49219 11.566-6.2539 11.07-12.859l-2.6367-34.488c-0.51953-6.6172-6.4062-11.648-12.895-11.043z"/>
  <path d="m445.65 892.9c0.10547-6.6289-5.1836-12.082-11.812-12.188-6.6445 0.15234-12.082 5.1914-12.188 11.812-0.17578 11.414-0.48438 22.832-0.9375 34.262-0.26562 6.6211 4.8906 12.203 11.516 12.461 0.16016 0.007812 0.32422 0.011719 0.48047 0.011719 6.4102 0 11.73-5.0625 11.984-11.523 0.45703-11.613 0.76953-23.223 0.95703-34.836z"/>
  <path d="m415.08 535.73c-6.6094 0.49219-11.566 6.2539-11.07 12.859l2.6367 34.488c0.48437 6.293 5.7461 11.074 11.953 11.074 0.30859 0 0.62109-0.011719 0.9375-0.035156 6.6094-0.51562 11.547-6.2891 11.039-12.891l-2.6367-34.43c-0.48828-6.6055-6.2422-11.648-12.859-11.066z"/>
  <path d="m445.34 823.32c-0.16016-6.6289-5.6133-12.293-12.273-11.711-6.6289 0.15234-11.871 5.6484-11.711 12.273 0.26563 11.445 0.43359 22.887 0.48438 34.324 0.027343 6.6094 5.3945 11.949 12 11.949h0.050781c6.6289-0.027344 11.977-5.4258 11.949-12.051-0.054688-11.594-0.22656-23.191-0.5-34.785z"/>
  <path d="m430.08 742.56c-6.6211 0.33984-11.707 5.9883-11.359 12.605 0.58984 11.453 1.1172 22.91 1.5664 34.363 0.24609 6.4609 5.5664 11.539 11.984 11.539 0.15234 0 0.30859 0 0.46875-0.011718 6.6211-0.25391 11.785-5.8281 11.523-12.453-0.44531-11.559-0.97266-23.121-1.5781-34.68-0.34766-6.6289-6.1836-11.805-12.605-11.363z"/>
  <path d="m425.6 673.58c-6.6094 0.46094-11.598 6.1953-11.133 12.809 0.80078 11.461 1.5664 22.926 2.2734 34.383 0.39062 6.3633 5.6758 11.262 11.965 11.262 0.24609 0 0.49609-0.007812 0.75-0.023438 6.6133-0.41016 11.648-6.1016 11.238-12.715-0.70703-11.523-1.4844-23.051-2.2852-34.582-0.45703-6.6094-6.1758-11.602-12.809-11.133z"/>
  <path d="m394.36 305.86c-0.10938 6.6289 5.1719 12.086 11.801 12.199h0.20313c6.5352 0 11.883-5.2383 11.992-11.801 0.1875-11.426 0.51172-22.848 0.96484-34.266 0.26953-6.6211-4.8867-12.203-11.508-12.469-6.5859-0.10156-12.203 4.8906-12.469 11.508-0.46094 11.609-0.78125 23.219-0.98438 34.828z"/>
  <path d="m394.64 375.44c0.14062 6.5352 5.4844 11.73 11.988 11.73 0.09375 0 0.17969 0 0.27344-0.007813 6.6289-0.14453 11.879-5.6367 11.727-12.266-0.25391-11.438-0.41797-22.887-0.46094-34.328-0.027343-6.6133-5.3945-11.953-12-11.953h-0.046874c-6.6289 0.027343-11.984 5.4219-11.953 12.047 0.042969 11.598 0.20703 23.188 0.47266 34.777z"/>
  <path d="m397.2 236.2c-0.44531 6.6133 4.5586 12.332 11.168 12.773 0.27344 0.023438 0.54688 0.027344 0.81641 0.027344 6.2656 0 11.539-4.8594 11.957-11.199 0.76172-11.367 1.6758-22.738 2.7539-34.117 0.62891-6.5977-4.2109-12.453-10.816-13.078-6.6055-0.55469-12.445 4.2188-13.078 10.816-1.1055 11.59-2.0273 23.188-2.8008 34.777z"/>
  <path d="m413.46 525.23c0.28125 0 0.5625-0.011719 0.85156-0.027344 6.6094-0.46094 11.598-6.1953 11.133-12.809-0.80078-11.453-1.5586-22.922-2.2656-34.383-0.40234-6.6094-5.9531-11.582-12.715-11.238-6.6133 0.41016-11.648 6.1016-11.238 12.715 0.70703 11.531 1.4766 23.055 2.2773 34.582 0.4375 6.3242 5.7109 11.16 11.957 11.16z"/>
  <path d="m409.84 456.22c6.6211-0.33203 11.711-5.9766 11.371-12.59-0.57813-11.453-1.1016-22.918-1.543-34.371-0.24609-6.6211-5.8633-11.609-12.445-11.539-6.6211 0.25781-11.789 5.8281-11.539 12.453 0.44531 11.559 0.96484 23.113 1.5586 34.676 0.32422 6.4102 5.625 11.391 11.973 11.391 0.20703-0.003907 0.42188-0.007813 0.625-0.019532z"/>
  <path d="m440.11 997.36c1.0977-11.598 2.0117-23.199 2.7695-34.797 0.42578-6.6094-4.582-12.324-11.199-12.758-6.418-0.33984-12.316 4.582-12.758 11.199-0.73828 11.367-1.6406 22.734-2.7109 34.098-0.62109 6.6055 4.2188 12.457 10.816 13.078 0.38672 0.035157 0.76562 0.050781 1.1406 0.050781 6.1289-0.003906 11.355-4.6602 11.941-10.871z"/>
  <path d="m412.32 1030.5c-0.75 5.9336-1.5508 11.871-2.4023 17.805-0.94531 6.5625 3.6094 12.641 10.172 13.582 0.57812 0.082031 1.1523 0.125 1.7227 0.125 5.8711 0 11.004-4.3125 11.859-10.297 0.87109-6.0664 1.6875-12.129 2.4609-18.195 0.83203-6.5742-3.8203-12.578-10.395-13.418-6.5352-0.82422-12.574 3.8242-13.418 10.398z"/>
  <path d="m359.91 138.12c-6.6289-0.98047-12.645 3.6094-13.582 10.172-1.7383 12.129-3.2734 24.266-4.6094 36.391-0.72266 6.5898 4.0312 12.516 10.617 13.242 0.44141 0.050781 0.89062 0.074219 1.3281 0.074219 6.0352 0 11.238-4.5469 11.914-10.688 1.3008-11.871 2.8008-23.734 4.5078-35.609 0.9375-6.5625-3.6133-12.637-10.176-13.582z"/>
  <path d="m367.46 700.17c-6.6133 0.42578-11.633 6.1289-11.207 12.742 1.7539 27.297 3.0469 51.793 3.9648 74.879 0.25391 6.4609 5.5742 11.523 11.984 11.523 0.16016 0 0.32422-0.007812 0.48047-0.011718 6.6289-0.26563 11.777-5.8398 11.516-12.461-0.92578-23.285-2.2266-47.965-3.9883-75.461-0.42578-6.6133-5.9492-11.633-12.75-11.211z"/>
  <path d="m335.8 260.7c-1.1016 23.098-1.6641 47.516-1.6641 72.562l0.007813 3.3242c0.035156 6.6055 5.4023 11.934 12 11.934h0.066406c6.6289-0.035157 11.973-5.4375 11.934-12.066l-0.007813-3.1953c0-24.668 0.55078-48.699 1.6406-71.414 0.31641-6.6211-4.793-12.246-11.414-12.562-6.4766-0.0625-12.238 4.8008-12.562 11.418z"/>
  <path d="m384.24 938.38c1.0742-22.859 1.6172-46.961 1.6172-71.578v-4.2852c-0.027344-6.6094-5.3945-11.949-12-11.949h-0.050781c-6.6289 0.027344-11.977 5.4258-11.949 12.051v4.125c0 24.297-0.53516 48.016-1.5938 70.508-0.30859 6.6211 4.8047 12.238 11.426 12.551 0.19531 0.007813 0.38281 0.011719 0.57422 0.011719 6.3672 0.003906 11.672-5.0078 11.977-11.434z"/>
  <path d="m352.49 498.91c6.6133-0.42578 11.633-6.1289 11.207-12.742-1.7539-27.316-3.043-51.801-3.9453-74.863-0.25781-6.6133-5.7969-12.047-12.457-11.52-6.6211 0.25781-11.785 5.8359-11.52 12.457 0.91016 23.262 2.2031 47.949 3.9648 75.461 0.41016 6.3516 5.6914 11.234 11.965 11.234 0.26172-0.007812 0.52344-0.011719 0.78516-0.027344z"/>
  <path d="m356.14 550.05c-6.6094 0.50391-11.555 6.2695-11.051 12.879l5.8125 75.051c0.48047 6.2969 5.7422 11.086 11.953 11.086 0.30469 0 0.61328-0.011718 0.92578-0.035156 6.6094-0.50391 11.555-6.2734 11.051-12.879l-5.8125-75.051c-0.50781-6.6094-6.2266-11.559-12.879-11.051z"/>
  <path d="m354.43 1012.7c-1.3008 11.871-2.8008 23.734-4.5078 35.609-0.94531 6.5625 3.6094 12.641 10.172 13.582 0.58203 0.078125 1.1562 0.12109 1.7266 0.12109 5.8711 0 11.004-4.3125 11.859-10.297 1.7383-12.129 3.2734-24.266 4.6094-36.391 0.72266-6.5898-4.0312-12.516-10.617-13.242-6.5938-0.64844-12.52 4.0312-13.242 10.617z"/>
  <path d="m839.91 138.12c-6.5859-0.98047-12.648 3.6094-13.582 10.172-1.7383 12.129-3.2734 24.266-4.6094 36.391-0.72266 6.5898 4.0312 12.516 10.617 13.242 0.44141 0.050781 0.89062 0.074219 1.3281 0.074219 6.0352 0 11.238-4.5469 11.914-10.688 1.3008-11.871 2.8008-23.734 4.5078-35.609 0.9375-6.5625-3.6133-12.637-10.176-13.582z"/>
  <path d="m847.46 700.17c-6.6133 0.42578-11.633 6.1289-11.207 12.742 1.7539 27.297 3.0469 51.793 3.9648 74.879 0.25391 6.4609 5.5742 11.523 11.984 11.523 0.16016 0 0.32422-0.007812 0.48047-0.011718 6.6289-0.26563 11.777-5.8398 11.516-12.461-0.92578-23.285-2.2266-47.965-3.9883-75.461-0.43359-6.6133-6.0625-11.633-12.75-11.211z"/>
  <path d="m836.14 550.05c-6.6094 0.50391-11.555 6.2695-11.051 12.879l5.8125 75.051c0.48047 6.2969 5.7422 11.086 11.953 11.086 0.30469 0 0.61328-0.011718 0.92578-0.035156 6.6094-0.50391 11.555-6.2734 11.051-12.879l-5.8125-75.051c-0.50391-6.6094-6.2695-11.559-12.879-11.051z"/>
  <path d="m832.49 498.91c6.6133-0.42578 11.633-6.1289 11.207-12.742-1.7539-27.316-3.043-51.801-3.9453-74.863-0.25781-6.6133-5.8789-12.047-12.457-11.52-6.6211 0.25781-11.785 5.8359-11.52 12.457 0.91016 23.262 2.2031 47.949 3.9648 75.461 0.41016 6.3516 5.6914 11.234 11.965 11.234 0.26172-0.007812 0.52344-0.011719 0.78516-0.027344z"/>
  <path d="m864.24 938.38c1.0742-22.859 1.6172-46.961 1.6172-71.578v-4.2852c-0.027344-6.6094-5.3945-11.949-12-11.949h-0.050781c-6.6289 0.027344-11.977 5.4258-11.949 12.051v4.125c0 24.297-0.53516 48.016-1.5938 70.508-0.30859 6.6211 4.8047 12.238 11.426 12.551 0.19531 0.007813 0.38281 0.011719 0.57422 0.011719 6.3672 0.003906 11.672-5.0078 11.977-11.434z"/>
  <path d="m815.8 260.7c-1.1016 23.098-1.6641 47.516-1.6641 72.562l0.007813 3.3242c0.035156 6.6055 5.4023 11.934 12 11.934h0.066406c6.6289-0.035157 11.973-5.4375 11.934-12.066l-0.007813-3.1953c0-24.668 0.55078-48.699 1.6406-71.414 0.31641-6.6211-4.793-12.246-11.414-12.562-6.4531-0.0625-12.238 4.8008-12.562 11.418z"/>
  <path d="m834.43 1012.7c-1.3008 11.871-2.8008 23.734-4.5078 35.609-0.94531 6.5625 3.6094 12.641 10.172 13.582 0.58203 0.078125 1.1562 0.12109 1.7266 0.12109 5.8711 0 11.004-4.3125 11.859-10.297 1.7383-12.129 3.2734-24.266 4.6094-36.391 0.72266-6.5898-4.0312-12.516-10.617-13.242-6.5273-0.64844-12.516 4.0312-13.242 10.617z"/>
  <path d="m779.91 138.12c-6.5977-0.98047-12.645 3.6094-13.582 10.172-0.87109 6.0664-1.6875 12.129-2.4609 18.195-0.83203 6.5742 3.8203 12.578 10.395 13.418 0.51563 0.066406 1.0273 0.09375 1.5312 0.09375 5.9531 0 11.113-4.4297 11.891-10.488 0.75-5.9336 1.5508-11.871 2.4023-17.805 0.9375-6.5664-3.6133-12.641-10.176-13.586z"/>
  <path d="m769.84 456.22c6.6211-0.33203 11.711-5.9766 11.371-12.59-0.57813-11.453-1.1016-22.918-1.543-34.371-0.24609-6.6211-5.8711-11.609-12.445-11.539-6.6211 0.25781-11.789 5.8281-11.539 12.453 0.44531 11.559 0.96484 23.113 1.5586 34.676 0.32422 6.4102 5.625 11.391 11.973 11.391 0.20703-0.003907 0.42188-0.007813 0.625-0.019532z"/>
  <path d="m773.46 525.23c0.28125 0 0.5625-0.011719 0.85156-0.027344 6.6094-0.46094 11.598-6.1953 11.133-12.809-0.80078-11.453-1.5586-22.922-2.2656-34.383-0.40234-6.6094-5.9922-11.582-12.715-11.238-6.6133 0.41016-11.648 6.1016-11.238 12.715 0.70703 11.531 1.4766 23.055 2.2773 34.582 0.4375 6.3242 5.7109 11.16 11.957 11.16z"/>
  <path d="m785.6 673.58c-6.6094 0.46094-11.598 6.1953-11.133 12.809 0.80078 11.461 1.5664 22.926 2.2734 34.383 0.39062 6.3633 5.6758 11.262 11.965 11.262 0.24609 0 0.49609-0.007812 0.75-0.023438 6.6133-0.41016 11.648-6.1016 11.238-12.715-0.70703-11.523-1.4844-23.051-2.2852-34.582-0.46094-6.6094-6.2227-11.602-12.809-11.133z"/>
  <path d="m780.36 604.65c-6.6094 0.51562-11.547 6.2891-11.039 12.891l2.6367 34.43c0.46875 6.3047 5.7305 11.105 11.953 11.105 0.29688 0 0.60547-0.011719 0.91016-0.035156 6.6094-0.49219 11.566-6.2539 11.07-12.859l-2.6367-34.488c-0.51562-6.6172-6.4492-11.648-12.895-11.043z"/>
  <path d="m790.08 742.56c-6.6211 0.33984-11.707 5.9883-11.359 12.605 0.58984 11.453 1.1172 22.91 1.5664 34.363 0.24609 6.4609 5.5664 11.539 11.984 11.539 0.15234 0 0.30859 0 0.46875-0.011718 6.6211-0.25391 11.785-5.8281 11.523-12.453-0.44531-11.559-0.97266-23.121-1.5781-34.68-0.34766-6.6289-6.0742-11.805-12.605-11.363z"/>
  <path d="m754.64 375.44c0.14062 6.5352 5.4844 11.73 11.988 11.73 0.09375 0 0.17969 0 0.27344-0.007813 6.6289-0.14453 11.879-5.6367 11.727-12.266-0.25391-11.438-0.41797-22.887-0.46094-34.328-0.027343-6.6133-5.3945-11.953-12-11.953h-0.046874c-6.6289 0.027343-11.984 5.4219-11.953 12.047 0.042969 11.598 0.20703 23.188 0.47266 34.777z"/>
  <path d="m754.36 305.86c-0.10938 6.6289 5.1719 12.086 11.801 12.199h0.20313c6.5352 0 11.883-5.2383 11.992-11.801 0.1875-11.426 0.51172-22.848 0.96484-34.266 0.26953-6.6211-4.8867-12.203-11.508-12.469-6.6211-0.10156-12.203 4.8906-12.469 11.508-0.46094 11.609-0.78125 23.219-0.98438 34.828z"/>
  <path d="m757.2 236.2c-0.44531 6.6133 4.5586 12.332 11.168 12.773 0.27344 0.023438 0.54688 0.027344 0.81641 0.027344 6.2656 0 11.539-4.8594 11.957-11.199 0.76172-11.367 1.6758-22.738 2.7539-34.117 0.62891-6.5977-4.2109-12.453-10.816-13.078-6.5898-0.55469-12.453 4.2188-13.078 10.816-1.1055 11.59-2.0273 23.188-2.8008 34.777z"/>
  <path d="m775.08 535.73c-6.6094 0.49219-11.566 6.2539-11.07 12.859l2.6367 34.488c0.48437 6.293 5.7461 11.074 11.953 11.074 0.30859 0 0.62109-0.011719 0.9375-0.035156 6.6094-0.51562 11.547-6.2891 11.039-12.891l-2.6367-34.43c-0.48828-6.6055-6.2812-11.648-12.859-11.066z"/>
  <path d="m800.11 997.36c1.0977-11.598 2.0117-23.199 2.7695-34.797 0.42578-6.6094-4.582-12.324-11.199-12.758-6.5117-0.33984-12.324 4.582-12.758 11.199-0.73828 11.367-1.6406 22.734-2.7109 34.098-0.62109 6.6055 4.2188 12.457 10.816 13.078 0.38672 0.035157 0.76562 0.050781 1.1406 0.050781 6.1289-0.003906 11.355-4.6602 11.941-10.871z"/>
  <path d="m805.34 823.32c-0.15234-6.6289-5.9492-12.293-12.273-11.711-6.6289 0.15234-11.871 5.6484-11.711 12.273 0.26563 11.445 0.43359 22.887 0.48438 34.324 0.027343 6.6094 5.3945 11.949 12 11.949h0.050781c6.6289-0.027344 11.977-5.4258 11.949-12.051-0.054688-11.594-0.22656-23.191-0.5-34.785z"/>
  <path d="m805.65 892.9c0.10547-6.6289-5.1836-12.082-11.812-12.188-6.4531 0.15234-12.078 5.1914-12.188 11.812-0.17578 11.414-0.48438 22.832-0.9375 34.262-0.26562 6.6211 4.8906 12.203 11.516 12.461 0.16016 0.007812 0.32422 0.011719 0.48047 0.011719 6.4102 0 11.73-5.0625 11.984-11.523 0.45703-11.613 0.76953-23.223 0.95703-34.836z"/>
  <path d="m772.32 1030.5c-0.75 5.9336-1.5508 11.871-2.4023 17.805-0.94531 6.5625 3.6094 12.641 10.172 13.582 0.57812 0.082031 1.1523 0.125 1.7227 0.125 5.8711 0 11.004-4.3125 11.859-10.297 0.87109-6.0664 1.6875-12.129 2.4609-18.195 0.83203-6.5742-3.8203-12.578-10.395-13.418-6.5938-0.82422-12.574 3.8242-13.418 10.398z"/>
  <path d="m719.91 138.12c-6.6133-0.98047-12.645 3.6094-13.582 10.172-1.7383 12.129-3.2734 24.266-4.6094 36.391-0.72266 6.5898 4.0312 12.516 10.617 13.242 0.44141 0.050781 0.89062 0.074219 1.3281 0.074219 6.0352 0 11.238-4.5469 11.914-10.688 1.3008-11.871 2.8008-23.734 4.5078-35.609 0.9375-6.5625-3.6133-12.637-10.176-13.582z"/>
  <path d="m727.46 700.17c-6.6133 0.42578-11.633 6.1289-11.207 12.742 1.7539 27.297 3.0469 51.793 3.9648 74.879 0.25391 6.4609 5.5742 11.523 11.984 11.523 0.16016 0 0.32422-0.007812 0.48047-0.011718 6.6289-0.26563 11.777-5.8398 11.516-12.461-0.92578-23.285-2.2266-47.965-3.9883-75.461-0.43359-6.6133-6.0352-11.633-12.75-11.211z"/>
  <path d="m716.14 550.05c-6.6094 0.50391-11.555 6.2695-11.051 12.879l5.8125 75.051c0.48047 6.2969 5.7422 11.086 11.953 11.086 0.30469 0 0.61328-0.011718 0.92578-0.035156 6.6094-0.50391 11.555-6.2734 11.051-12.879l-5.8125-75.051c-0.50391-6.6094-6.293-11.559-12.879-11.051z"/>
  <path d="m744.24 938.38c1.0742-22.859 1.6172-46.961 1.6172-71.578v-4.2852c-0.027344-6.6094-5.3945-11.949-12-11.949h-0.050781c-6.6289 0.027344-11.977 5.4258-11.949 12.051v4.125c0 24.297-0.53516 48.016-1.5938 70.508-0.30859 6.6211 4.8047 12.238 11.426 12.551 0.19531 0.007813 0.38281 0.011719 0.57422 0.011719 6.3672 0.003906 11.672-5.0078 11.977-11.434z"/>
  <path d="m695.8 260.7c-1.1016 23.098-1.6641 47.516-1.6641 72.562l0.007813 3.3242c0.035156 6.6055 5.4023 11.934 12 11.934h0.066406c6.6289-0.035157 11.973-5.4375 11.934-12.066l-0.007813-3.1953c0-24.668 0.55078-48.699 1.6406-71.414 0.31641-6.6211-4.793-12.246-11.414-12.562-6.4609-0.0625-12.238 4.8008-12.562 11.418z"/>
  <path d="m712.49 498.91c6.6133-0.42578 11.633-6.1289 11.207-12.742-1.7539-27.316-3.043-51.801-3.9453-74.863-0.25781-6.6133-5.918-12.047-12.457-11.52-6.6211 0.25781-11.785 5.8359-11.52 12.457 0.91016 23.262 2.2031 47.949 3.9648 75.461 0.41016 6.3516 5.6914 11.234 11.965 11.234 0.26172-0.007812 0.52344-0.011719 0.78516-0.027344z"/>
  <path d="m714.43 1012.7c-1.3008 11.871-2.8008 23.734-4.5078 35.609-0.94531 6.5625 3.6094 12.641 10.172 13.582 0.58203 0.078125 1.1562 0.12109 1.7266 0.12109 5.8711 0 11.004-4.3125 11.859-10.297 1.7383-12.129 3.2734-24.266 4.6094-36.391 0.72266-6.5898-4.0312-12.516-10.617-13.242-6.5195-0.64844-12.516 4.0312-13.242 10.617z"/>
  <path d="m659.91 138.12c-6.6289-0.98047-12.645 3.6094-13.582 10.172-0.87109 6.0664-1.6875 12.129-2.4609 18.195-0.83203 6.5742 3.8203 12.578 10.395 13.418 0.51563 0.066406 1.0273 0.09375 1.5312 0.09375 5.9531 0 11.113-4.4297 11.891-10.488 0.75-5.9336 1.5508-11.871 2.4023-17.805 0.9375-6.5664-3.6133-12.641-10.176-13.586z"/>
  <path d="m649.84 456.22c6.6211-0.33203 11.711-5.9766 11.371-12.59-0.57813-11.453-1.1016-22.918-1.543-34.371-0.24609-6.6211-5.8633-11.609-12.445-11.539-6.6211 0.25781-11.789 5.8281-11.539 12.453 0.44531 11.559 0.96484 23.113 1.5586 34.676 0.32422 6.4102 5.625 11.391 11.973 11.391 0.20703-0.003907 0.42188-0.007813 0.625-0.019532z"/>
  <path d="m665.6 673.58c-6.6094 0.46094-11.598 6.1953-11.133 12.809 0.80078 11.461 1.5664 22.926 2.2734 34.383 0.39062 6.3633 5.6758 11.262 11.965 11.262 0.24609 0 0.49609-0.007812 0.75-0.023438 6.6133-0.41016 11.648-6.1016 11.238-12.715-0.70703-11.523-1.4844-23.051-2.2852-34.582-0.45703-6.6094-6.1562-11.602-12.809-11.133z"/>
  <path d="m655.08 535.73c-6.6094 0.49219-11.566 6.2539-11.07 12.859l2.6367 34.488c0.48437 6.293 5.7461 11.074 11.953 11.074 0.30859 0 0.62109-0.011719 0.9375-0.035156 6.6094-0.51562 11.547-6.2891 11.039-12.891l-2.6367-34.43c-0.48828-6.6055-6.2266-11.648-12.859-11.066z"/>
  <path d="m670.08 742.56c-6.6211 0.33984-11.707 5.9883-11.359 12.605 0.58984 11.453 1.1172 22.91 1.5664 34.363 0.24609 6.4609 5.5664 11.539 11.984 11.539 0.15234 0 0.30859 0 0.46875-0.011718 6.6211-0.25391 11.785-5.8281 11.523-12.453-0.44531-11.559-0.97266-23.121-1.5781-34.68-0.34766-6.6289-6.1719-11.805-12.605-11.363z"/>
  <path d="m653.46 525.23c0.28125 0 0.5625-0.011719 0.85156-0.027344 6.6094-0.46094 11.598-6.1953 11.133-12.809-0.80078-11.453-1.5586-22.922-2.2656-34.383-0.41016-6.6094-6.0273-11.582-12.715-11.238-6.6133 0.41016-11.648 6.1016-11.238 12.715 0.70703 11.531 1.4766 23.055 2.2773 34.582 0.4375 6.3242 5.7109 11.16 11.957 11.16z"/>
  <path d="m685.65 892.9c0.10547-6.6289-5.1836-12.082-11.812-12.188-6.5156 0.15234-12.082 5.1914-12.188 11.812-0.17578 11.414-0.48438 22.832-0.9375 34.262-0.26562 6.6211 4.8906 12.203 11.516 12.461 0.16016 0.007812 0.32422 0.011719 0.48047 0.011719 6.4102 0 11.73-5.0625 11.984-11.523 0.45703-11.613 0.76953-23.223 0.95703-34.836z"/>
  <path d="m634.64 375.44c0.14062 6.5352 5.4844 11.73 11.988 11.73 0.09375 0 0.17969 0 0.27344-0.007813 6.6289-0.14453 11.879-5.6367 11.727-12.266-0.25391-11.438-0.41797-22.887-0.46094-34.328-0.027343-6.6133-5.3945-11.953-12-11.953h-0.046874c-6.6289 0.027343-11.984 5.4219-11.953 12.047 0.042969 11.598 0.20703 23.188 0.47266 34.777z"/>
  <path d="m660.36 604.65c-6.6094 0.51562-11.547 6.2891-11.039 12.891l2.6367 34.43c0.46875 6.3047 5.7305 11.105 11.953 11.105 0.29688 0 0.60547-0.011719 0.91016-0.035156 6.6094-0.49219 11.566-6.2539 11.07-12.859l-2.6367-34.488c-0.51562-6.6172-6.4297-11.648-12.895-11.043z"/>
  <path d="m634.36 305.86c-0.10938 6.6289 5.1719 12.086 11.801 12.199h0.20313c6.5352 0 11.883-5.2383 11.992-11.801 0.1875-11.426 0.51172-22.848 0.96484-34.266 0.26953-6.6211-4.8867-12.203-11.508-12.469-6.6914-0.10156-12.199 4.8906-12.469 11.508-0.46094 11.609-0.78125 23.219-0.98438 34.828z"/>
  <path d="m685.34 823.32c-0.15234-6.6289-5.8359-12.293-12.273-11.711-6.6289 0.15234-11.871 5.6484-11.711 12.273 0.26563 11.445 0.43359 22.887 0.48438 34.324 0.027343 6.6094 5.3945 11.949 12 11.949h0.050781c6.6289-0.027344 11.977-5.4258 11.949-12.051-0.054688-11.594-0.22656-23.191-0.5-34.785z"/>
  <path d="m637.2 236.2c-0.44531 6.6133 4.5586 12.332 11.168 12.773 0.27344 0.023438 0.54688 0.027344 0.81641 0.027344 6.2656 0 11.539-4.8594 11.957-11.199 0.76172-11.367 1.6758-22.738 2.7539-34.117 0.62891-6.5977-4.2109-12.453-10.816-13.078-6.5977-0.55469-12.453 4.2188-13.078 10.816-1.1055 11.59-2.0273 23.188-2.8008 34.777z"/>
  <path d="m680.11 997.36c1.0977-11.598 2.0117-23.199 2.7695-34.797 0.42578-6.6094-4.582-12.324-11.199-12.758-6.4336-0.33984-12.316 4.582-12.758 11.199-0.73828 11.367-1.6406 22.734-2.7109 34.098-0.62109 6.6055 4.2188 12.457 10.816 13.078 0.38672 0.035157 0.76562 0.050781 1.1406 0.050781 6.1289-0.003906 11.355-4.6602 11.941-10.871z"/>
  <path d="m652.32 1030.5c-0.75 5.9336-1.5508 11.871-2.4023 17.805-0.94531 6.5625 3.6094 12.641 10.172 13.582 0.57812 0.082031 1.1523 0.125 1.7227 0.125 5.8711 0 11.004-4.3125 11.859-10.297 0.87109-6.0664 1.6875-12.129 2.4609-18.195 0.83203-6.5742-3.8203-12.578-10.395-13.418-6.5742-0.82422-12.574 3.8242-13.418 10.398z"/>
 </g>
</svg>
