<?xml version="1.0" encoding="UTF-8"?>
<svg width="1200pt" height="1200pt" version="1.1" viewBox="0 0 1200 1200" xmlns="http://www.w3.org/2000/svg">
 <path d="m142.3 471.61c11.617 9.5039 28.043 11.879 49.281 7.1289 31.852-7.1289 80.988-11.883 104.63-7.1289 23.645 4.75 77.312 37.293 86.273-11.355 8.9609-48.648 18.297-115.44 0-128.73s-19.84-70.59 20.508-95.961 78.473-48.273 95.238-64.043c16.77-15.773 70.684-15.855 101.69-26.176 31.008-10.32 25.062-107.17 38.781-80.809 18.031 34.656 33.52 82.254 51.125 95.652 22.07 16.801 64.188 69.062 64.188 84.195 0 15.133 36.312 50.68 48.648 74.809 12.332 24.129 15.121 73.652 59.043 48.891 43.926-24.762 40.512-15.926 68.234 13.457 27.723 29.383 61.016 30.328 93.461 19.25 32.441-11.074 114.8 15.094 103.55 54.758-11.254 39.668-65.812 120.02-109.08 134.96-43.262 14.953-65.883 6.8711-59.234 57.973 6.6484 51.102 15.066 76.945-28.699 76.945s-29.93 78.43-29.93 107.99c0 21.055 32.789 48.75 28.316 80.449-1.8086 12.816-9.7031 26.289-28.316 40.238-64.656 48.469-33.812 56.801-16.906 77.105 16.906 20.305 55.207 71.391 16.906 101.48-38.305 30.094-28.324-41.395-80.812-58.289-52.484-16.891-86.121 1.6094-110.89-7.6406s-52.75 6.2969-71.922-17.891c-19.172-24.191 27.793-80.359 13.895-102.83-5.7344-9.2734-36.879-19.664-46.734-36.605-14.02-24.113 0-53.496-28.363-68.488-22.16-11.719-91.48 49.473-122.58 58.98-31.098 9.5078 0-93.488-45.688-93.488s-98.125-31.312-131.93-31.312h-50.008c-1.5586-28.406-43.941-50.844-74.012-83.488-50.156-54.449-122.65-69.855-44.656-113.48 77.996-43.625 16.094-60.488 16.094-78.812 0-6.3555 6.6328-15.602 19.898-27.742z" fill-rule="evenodd"/>
</svg>
