<?xml version="1.0" encoding="UTF-8"?>
<svg width="1200pt" height="1200pt" version="1.1" viewBox="0 0 1200 1200" xmlns="http://www.w3.org/2000/svg">
 <path d="m1038.4 726.94-11.906 17.203-55.547-97.828-35.719 39.656-108.42-137.53-17.203 17.203-64.781-112.41-64.781 93.891-105.8-203.63-78 140.16-18.516-17.203-44.953 67.453-37.031-50.25-130.87 203.63-39.656-55.547-51.562 87.281-17.203-19.828-96.469 157.36h1080zm-836.29 97.828-9.2344-46.922-43.641 58.828-3.9375-31.734-33.703 23.812 47.625-89.906 22.5 11.906 22.453-46.266 9.9375 29.766zm89.953-125.58 99.188-183.14-29.109 142.78-40.312 76.688zm169.22 127.55-3.2812-66.75-66.797 72.094 9.8906-54.891-55.547 42.984 11.906-49.594-22.5-21.797 48.938-83.297v35.062l48.938-87.891h21.797l-22.5 62.812 73.406-110.39-29.109 103.78 42.984-77.344 19.172 144.14zm107.77-235.97-44.953-74.719-59.484 58.828-17.203-22.453 30.422-55.547 7.9219 27.75 83.297-120.32-7.9219 111.75 39.656-26.438zm159.98 92.531-29.766 47.578-52.219-59.484 93.844-183.79-21.141 183.79 31.734-91.875 72.75 252.56z"/>
</svg>
