<?xml version="1.0" encoding="UTF-8"?>
<svg width="1200pt" height="1200pt" version="1.1" viewBox="0 0 1200 1200" xmlns="http://www.w3.org/2000/svg">
 <path d="m613.05 133.35c2.457 0.88672 5.0391 1.3945 7.6484 1.5-1.3516-1.5-2.6992-3.3008-4.0508-5.1016l-1.6484-3.6016 4.3516-0.89844v-6h-1.0508c0 1.3516 0 3.1484-1.5 3.75-2.7852 1.5859-5.6953 2.9414-8.6992 4.0508 1.3359 2.3281 3.0039 4.4492 4.9492 6.3008z" fill-rule="evenodd"/>
 <path d="m460.8 668.7c1.3516-1.8008 2.25-4.1992 3.4492-6.1484 3.8711-5.7812 4.9688-12.98 3-19.652-1.1992-3.75-2.3984-7.5-3.8984-11.25-0.62109-1.3633-1.8398-2.3633-3.3008-2.6992-4.3789 0.37891-8.7344 0.98047-13.051 1.8008-1.6875 0.4375-3.3398 0.98828-4.9492 1.6484 0-5.25 3.75-6.6016 6.6016-8.25h-0.003906c3.043-1.125 5.1406-3.9258 5.3672-7.1602s-1.4609-6.3008-4.3164-7.8398c-5.5508-4.9492-12.602-9.1484-12-18.301v0.003906c-0.066407-0.76562-0.51953-1.4453-1.1992-1.8008-3.6016-1.1992-3.1484-3.8984-2.6992-6.75 0.68359-2.6875-0.11328-5.5352-2.0898-7.4805-1.9766-1.9453-4.8359-2.6953-7.5117-1.9688-1.4648 0.44141-3.0312 0.44141-4.5 0-4.0156-1.7695-8.4297-2.4219-12.785-1.8945-4.3555 0.52734-8.4883 2.2188-11.965 4.8945-4.1992 2.25-7.3516 3.6016-11.398 0-1.1523-0.75391-2.418-1.3086-3.75-1.6523 0 2.1016-0.75 3.75-1.1992 5.3984-0.44922 1.6484-1.3516 3.3008-1.8008 4.9492-1.5 6-3.1484 6.6016-9.1484 4.5l-0.003906 0.003906c-2.5039-0.66016-5.1406-0.66016-7.6484 0-7.3516 2.5508-7.8008 9.4492-9 15.75-0.60547 2.0234-1.4102 3.9844-2.3984 5.8477-1.0508 2.3984-2.1016 4.6484-3.3008 7.0508-1.1992 2.3984-1.0508 2.6992-1.8008 2.8516-5.1016 1.1992-10.352 1.8008-15 3-1.5938 0.73047-3.1055 1.6367-4.5 2.6992 1.0508 1.5 1.6484 3.6016 3 4.1992 3.4023 1.3477 6.918 2.4023 10.5 3.1523l-5.5508 5.1016c-3.3008 3-6.4492 5.3984-11.102 2.3984h0.003906c-0.88281-0.51172-1.9688-0.51172-2.8516 0-2.8516 2.8516-5.3984 5.8516-8.25 9.1484 0.70703 1.1641 1.5117 2.2695 2.3984 3.3008l9 9.75s1.6484 0.89844 2.25 1.6484c0.60156 0.75 3.4492 3 3.75 4.8008 0.30078 1.8008 2.6992 4.5 6 5.1016 2.3125 0.53516 4.5 1.5039 6.4531 2.8477 1.8008 1.0508 3.4492 3.3008 5.25 3.6016h14.102-0.003906c1.5-2.3438 3.2617-4.5078 5.25-6.4492 4.9492-4.0508 5.25-3.75 1.5-9.3008s-1.1992-5.1016 2.3984-6.4492h0.003906c2.1523-0.80078 4.0664-2.1445 5.5469-3.9023 0.52344-1.3125 1.7109-2.2422 3.1133-2.4297 1.3984-0.1875 2.793 0.39844 3.6367 1.5312 3.7578 2.8359 6.1094 7.1562 6.4531 11.848-0.09375 4.5547 3.4023 8.3828 7.9492 8.7031 5.25 0 5.25 2.8516 4.8008 6.6016v-0.003906c-0.37109 1.3828-0.67187 2.7852-0.90234 4.1992 0 3 0 4.3516 3.75 3.1484v0.003906c2.4023-0.86328 4.957-1.2188 7.5-1.0508 2.6992 0 4.5 0 5.8516-2.6992 0.46484-1.1367 1.4531-1.9727 2.6484-2.2422 1.1953-0.26562 2.4453 0.066406 3.3516 0.89062 2.9219 1.9297 5.7266 4.0352 8.3984 6.3008 0.68359 0.77344 1.668 1.2188 2.6992 1.2188 1.0352 0 2.0195-0.44531 2.7031-1.2188 4.6289-2.9688 7.6641-7.8789 8.25-13.352-0.10547-2.25 0.97266-4.3906 2.8438-5.6484 1.8711-1.2539 4.2578-1.4453 6.3047-0.5 3.8984 3.1484 5.8516 0.89844 7.8008-1.8008z" fill-rule="evenodd"/>
 <path d="m367.65 271.5c1.4141 3.4258 3.7188 6.4141 6.6719 8.6562 2.9531 2.2422 6.4492 3.6523 10.129 4.0938-5.1016 4.0508-6.3008 11.398-15 10.648 0.68359 2.0508 1.6953 3.9766 3 5.7031 1.8008 1.8008 4.3516 4.1992 6.4492 4.0508 2.1016-0.14844 4.0508-3.1484 6-4.9492l1.1992-0.75c5.5508-1.6484 6.4492-4.9492 3.4492-9.6016v-1.0508l6 4.5 0.75-1.0508-1.0508-5.5508h0.003906c3.2812-0.085938 6.5469-0.48828 9.75-1.1992 6.0312-3.5898 9.7344-10.082 9.75-17.102-0.14844-2.8984-0.14844-5.8008 0-8.6992 0-3 1.9492-4.5 5.25-3.8984 3.3008 0.60156 7.1992-1.0508 7.0508-6.6016h-0.89844l-8.25 3.3008h-0.003906c1.3008-3.0703 2.75-6.0742 4.3516-9 3.8906-4.7344 5.0781-11.133 3.1484-16.949-2.3984-6.75-3.75-6.8984-9-2.3984s-12.75 10.051-19.199 15v-0.003906c-3.9648 2.1094-7.5586 4.8438-10.648 8.1016-0.89062 1.6562-2.4023 2.8906-4.207 3.4258-1.8008 0.53516-3.7461 0.32812-5.3945-0.57422-5.8516 7.8008-8.8516 15-1.3516 24.301h-1.5z" fill-rule="evenodd"/>
 <path d="m352.65 326.55c1.1719 1.2305 1.9102 2.8086 2.1016 4.5 0 4.5 0 9-1.0508 13.648v21c0.35938 2.7812 1.3359 5.4453 2.8516 7.8008 1.1523 1.7109 2.5117 3.2734 4.0508 4.6484l3.8984-4.8008v0.003906c-1.0703-4.0117-1.3242-8.1914-0.75-12.301 1.3008-4.8906 1.5586-10.004 0.75-15 0-1.6484 1.3516-3.75 1.8008-5.6992 0.44922-1.9492 1.1992-5.5508 1.9492-8.25 0.75-2.6992 4.3516-7.9492 2.1016-12.148l4.6484-4.9531-8.1016-6c-1.8398 0.58203-3.6445 1.2852-5.3984 2.1016-4.9492 3.1484-13.5 0-15 10.051v-0.003906c2.1719 1.6602 4.2266 3.4648 6.1484 5.4023z" fill-rule="evenodd"/>
 <path d="m595.35 168.9c0.89844 0 2.25 1.1992 2.6992 2.1016 0.43359 1.1445 1.3672 2.0312 2.5312 2.4102 1.168 0.37891 2.4414 0.21094 3.4688-0.46094 2.5508-1.3516 5.6992-3.75 8.1016-3.1484 2.3984 0.60156 3.4492 4.3516 5.3984 7.0508-2.3984 2.8516-5.6992 5.1016-6.3008 7.8008-0.60156 2.6992 1.5 6.3008 2.3984 9.6016l1.3516-0.003906c1.5-5.6992 2.8516-11.398 4.3516-17.102 4.5742-0.13672 8.3203-3.6875 8.6992-8.25l-20.102-7.5 6.3008-6.6016-5.6992-2.6992v0.003906c-0.058593-0.44922-0.058593-0.90234 0-1.3516h2.1016l4.9492-2.8516c-1.0547-1.4727-2.3164-2.7891-3.75-3.8984-3.6016-2.25-6.6016-2.1016-8.6992 2.25 0 0-2.25 1.1992-3.4492 1.3516-10.051 0-8.1016 1.5-9.6016 9.8984-0.30078 2.0898-0.30078 4.2109 0 6.3008 0.89844 2.5508 1.0469 5.3984 5.25 5.0977z" fill-rule="evenodd"/>
 <path d="m529.35 677.1c2.3906-3.1484 3.8906-6.875 4.3477-10.801-0.59766-3.8984-1.7617-7.6875-3.4492-11.25-1.6484 0.89844-4.6484 1.3516-5.8516 3.1484-5.1641 6.793-9.9727 13.852-14.398 21.152-1.8242 3.75-3.2812 7.668-4.3516 11.699 4.3047-0.67578 8.4922-1.9375 12.453-3.75 4.3242-2.7031 8.1367-6.1602 11.25-10.199z" fill-rule="evenodd"/>
 <path d="m478.65 548.85c2.8164 0.98047 5.8867 0.98047 8.7031 0 1.5 0 2.25-3.6016 3.1484-5.25-2.1016-6.75-3.8984-12.75-5.8516-18.602-0.67969-1.0898-1.543-2.0508-2.5469-2.8516-0.72656-1.0664-1.9336-1.707-3.2266-1.707s-2.5 0.64062-3.2266 1.707c-2.4609 4.1758-3.5 9.0352-2.957 13.852 0.53906 4.8164 2.6328 9.3281 5.957 12.852z" fill-rule="evenodd"/>
 <path d="m592.95 186.15c1.3516 1.5 4.1992 3.3008 5.3984 2.8516h0.003906c3.6484-1.9258 7.1133-4.1836 10.348-6.75-8.5508-2.25-10.648-4.1992-13.5-10.648-2.0586 0.007813-4.0977 0.41406-6 1.1992-1.4023 1.1797-2.1328 2.9766-1.9492 4.8008 1.5273 3.0781 3.4453 5.9531 5.6992 8.5469z" fill-rule="evenodd"/>
 <path d="m346.8 397.2 9.4492-12.301c-4.6484 0-2.25-3.1484-1.5-5.1016-3.6016 0-7.9492 3.8984-9.3008 9.1484-0.44922 2.8555-3.3008 6.6055 1.3516 8.2539z" fill-rule="evenodd"/>
 <path d="m423.45 385.05c-3-2.3984-5.25-5.5508-7.0508-5.25-1.8008 0.30078-4.0508 3.3008-6 4.9492l6.6016 6.75z" fill-rule="evenodd"/>
 <path d="m379.05 440.7c0 1.1992 1.3516 2.3984 2.1016 3.75l3.3008-2.5508h-0.003906c1.4219-1.1172 2.7734-2.3203 4.0508-3.5977 1.5-1.9492 2.8516-4.0508 4.3516-6.1484v-0.003906c-3.8867 1.1523-7.6953 2.5547-11.402 4.2031-1.4062 1.0195-2.2852 2.6133-2.3984 4.3477z" fill-rule="evenodd"/>
 <path d="m408.45 419.1c-7.3516 1.8008-10.352 8.3984-15 12.898 9.6016-1.8008 14.102-5.5508 15-12.898z" fill-rule="evenodd"/>
 <path d="m645 130.05-3.4492 1.1992c-1.3516 0.75-2.6992 1.8008-4.9492 3.3008 0-2.3984 0.75-3.6016 1.0508-4.6484l-1.6484-0.89844-6.0039 12.445 16.352-9.8984z" fill-rule="evenodd"/>
 <path d="m428.4 477.75c-8.3984 5.3984-10.352 10.5-5.6992 13.801 1.8008-4.3516 3.4492-8.5508 5.6992-13.801z" fill-rule="evenodd"/>
 <path d="m630 153.9c1.4766 0.44531 2.9805 0.79687 4.5 1.0508h2.1016c0.30078 0 1.3516-1.9492 1.0508-2.25-0.30078-0.30078-3.8984-4.6484-6.6016-7.6484 0.14844 4.9492-0.15234 6.8984-1.0508 8.8477z" fill-rule="evenodd"/>
 <path d="m626.1 147.75v-9.3008s-1.3516-1.5-2.1016-1.5-1.9492 1.0508-1.8008 1.6484c0 3 0 6.1484 0.89844 9.1484z" fill-rule="evenodd"/>
 <path d="m615 159.45 7.0508 1.9492v-6.3008l-6.75 2.3984v0.003906c-0.015625 0.66016-0.11719 1.3164-0.30078 1.9492z" fill-rule="evenodd"/>
 <path d="m428.4 400.2v-8.3984c-5.25 3.4492-5.3984 5.25 0 8.3984z" fill-rule="evenodd"/>
 <path d="m875.7 810c-4.7148-4.0859-10.16-7.2422-16.051-9.3008-10.484-2.6484-21.289-3.8125-32.098-3.4492-6.4492 0-11.699 1.1992-13.051 8.6992-0.28516 1.0938-0.79688 2.1172-1.5 3-1.1406 2.6211-3.6211 4.4062-6.4688 4.6562s-5.6016-1.0742-7.1797-3.457c-1.5547-1.7305-3.3789-3.1992-5.4023-4.3477-2.8516-1.3516-3.1484-3-1.5-5.25 3.2969-4.125 6.8008-8.082 10.5-11.852 3.6094-2.7656 5.582-7.1641 5.25-11.699-1.9883-10.363-5.9609-20.246-11.699-29.102 0-0.89844-1.8008-1.3516-2.5508-2.1016l-18.75-15-9.3008-7.3516c1.3516-1.6484 3.75-1.8008 6.3008 0v0.003907c1.5781 1.1523 2.9922 2.5156 4.1992 4.0508 2.3789 4.3906 7.6172 6.3711 12.301 4.6484 3.8984-1.3516 6.6016 0 7.3516 4.9492v0.003906c-0.019531-2.043-0.53516-4.0508-1.5-5.8516-1.9492-3.75-4.3516-7.0508-6.4492-10.648-4.2109-6.9766-8.0195-14.188-11.402-21.602-3-7.3516-0.89844-10.648 6.6016-15l-2.25-1.5c-9.3945-5.1758-16.43-13.77-19.652-24-2.125-6.7617-7.1172-12.246-13.648-15-4.9492-1.6484-9.6016-3.75-15-5.5508-5.9062-1.3203-11.191-4.5977-15-9.3008-5.8203-8.4844-9.2383-18.383-9.8984-28.648 0-1.0508 0-1.8008-1.0508-2.6992-3.4492-9.8984-7.3516-19.5-10.199-30-1.4102-6.0547-2.2109-12.238-2.4023-18.449 0.25-4.0234-0.64844-8.0312-2.5859-11.562s-4.8398-6.4375-8.3633-8.3906c-0.89844 0-2.3984-1.6484-2.25-2.25 0.89844-3.6016-2.1016-3.8984-4.0508-5.3984-2.4023-2.0039-4.5234-4.3242-6.3008-6.8984-2.25-3.1484-3.6016-6.8984-6-9.8984v-0.003906c-1.9375-2.2812-4.3398-4.1211-7.0469-5.3984-7.1992-3.8984-15-6.8984-22.051-11.25-7.0508-4.3516-11.102-4.5-17.25 2.25-2.6328 3.9414-7.3203 5.9883-12 5.25-3.8672-0.92188-7.6719-2.0742-11.402-3.4492-1.1992 0-2.8516-1.5-3-2.5508 0.19141-1.3672 1.1094-2.5195 2.4023-3 4.9297-1.5234 9.1055-4.8438 11.699-9.3008 1.9219-2.3203 4.082-4.4336 6.4492-6.3008 1.1992-0.89844 3.1484-1.8008 4.1992-1.3516 9.1484 3.8984 13.648-3.6016 20.852-7.6484-2.957-1.9023-6.0703-3.5586-9.3008-4.9492-5.6992-2.1016-6.4492-3.3008-5.25-9 0.14844-1.1445 0.14844-2.3047 0-3.4492l-6.4492-1.0508c1.4609-1.3203 3.2969-2.1562 5.25-2.3984 8.9727-2.1055 16.328-8.5078 19.648-17.102 1.4961-7.3164 5.4023-13.922 11.102-18.75 2.4492-2.5078 4.207-5.6094 5.1016-9 2.8516-6.3008 5.3984-12.898 7.9492-19.352 1.0625-2.2969 1.5273-4.8242 1.3477-7.3477-0.98047-5.2422 0.21094-10.656 3.3008-15 3.4492-5.25 7.3516-10.051 10.801-15 1.4805-2.3867 2.2578-5.1406 2.25-7.9492-0.53906-3.6172-1.5508-7.1445-3-10.5-1.2305-3.8867-3.9844-7.1016-7.6328-8.9141-3.6523-1.8086-7.8789-2.0586-11.719-0.6875-1.9961 0.59375-4.0664 0.89453-6.1484 0.89844l-26.852-1.5c-3.6953-0.90625-7.5547-0.90625-11.25 0-2.8008 1.4531-5.9453 2.1094-9.0898 1.8945-3.1484-0.21094-6.1758-1.2812-8.7578-3.0938-4.6758-2.9414-10.711-2.582-15 0.90234-2.0273 1.582-4.4844 2.5234-7.0508 2.6992-4.5156-0.054687-8.8125 1.9297-11.699 5.3984-2.3672 2.0039-5.2969 3.2227-8.3867 3.4922-3.0898 0.26562-6.1875-0.42969-8.8633-1.9922 1.6484-2.25 3.3008-4.6484 5.25-7.6484h-8.6992c2.3984-6 3.4492-6.3008 8.3984-3.8984v-0.003906c1.1523 0.37891 2.4219 0.089843 3.3008-0.75 3.6016-4.6484 7.0508-9.6016 10.5-15l-1.5-1.0508v0.003906c-0.99219 1.0703-2.0977 2.0234-3.3008 2.8477-1.1289 0.3125-2.3203 0.3125-3.4492 0h-11.25l-1.6484-2.3984c9 0 7.8008-5.3984 8.5508-10.051h-0.003906c0.30859-1.1055 0.93359-2.0977 1.8008-2.8516 6.3008-5.3984 12.898-10.801 19.051-16.352 6.1484-5.5508 7.5-7.9492 11.25-11.852v0.003907c2.5117-2.6719 5.332-5.0391 8.3984-7.0508 6.5273-3.543 11.383-9.5312 13.5-16.648 0.35156-1.5117-0.10156-3.1016-1.1992-4.1992-2.5508-1.6484-2.25-3.6016-1.3516-5.8516l3.6016-8.3984c1.1992-3 0-4.9492-3-4.9492s-8.3984 0-12.449-0.89844v-0.003906c-1.7461-0.15234-3.5039-0.15234-5.25 0l1.9492 4.8008c-3.1484 0-7.3516 1.9492-9.1484 0-4.8008-3.75-8.3984-0.75-11.398 1.3516h-0.003906c-3.7422 2.9258-8.7305 3.7188-13.199 2.0977-4.0078-1.3555-8.4258-0.68359-11.852 1.8008-5.625 2.5469-12.074 2.5469-17.699 0-6.8984-2.8516-6.75-3.3008-10.352 3-1.1992-1.0508-2.5508-1.9492-3.6016-3h0.003906c-4.1484-3.8008-9.4062-6.1641-15-6.75-2.5508 0-4.1992 0-5.3984 3.1484-2.3984 5.8516-6.8984 10.801-5.6992 17.699l-0.003906 0.003906c0.13672 0.28516 0.13672 0.61328 0 0.89844-3.7148 4.1641-4.207 10.297-1.1992 15 1.3516 3-0.75 4.8008-4.0508 4.0508-1.1289-0.29297-2.3164-0.29297-3.4492 0-2.0352 0.47266-4.0391 1.0742-6 1.8008 0 1.0508 0.89844 2.5508 1.5 4.1992 1.2695 2.5586 2.3242 5.2148 3.1523 7.9492 0.097657 1.8789-0.15625 3.7617-0.75 5.5508l-4.8008-1.3516-2.5508-1.0508v9.4531c3.5586 1.582 7.0156 3.3867 10.352 5.3984 1.1992 0.75 1.0508 3.3008 1.5 4.9492-1.6602 0.46875-3.375 0.72266-5.1016 0.75-1.1758-0.42188-2.2461-1.0859-3.1484-1.9492l-7.5 8.25c-0.75781-1.4062-1.6094-2.7617-2.5508-4.0508-0.75-0.89844-2.1016-2.3984-2.5508-2.1016v0.003906c-1.2773 0.50391-2.2656 1.5469-2.6992 2.8477-0.23047 1.9453-0.23047 3.9062 0 5.8516l-1.8008 1.0508c0-1.0508 0-2.8516-1.6484-3.1484v-0.003906c-1.6719-0.83203-3.5664-1.0938-5.4023-0.75 0 0-1.3516 2.6992-1.0508 4.0508 0.75 4.5-1.0508 10.949 7.0508 11.25 0.035156 0.34766 0.035156 0.69922 0 1.0508l-1.3516 1.0508c-5.6992 2.5508-6.1484 4.5-2.3984 9.3008v-0.003906c1.3789 2.1523 2.582 4.4102 3.6016 6.75l-1.1992 1.0508-6-3c-2.7188 3.668-3.4492 8.4414-1.9531 12.75 0.76562 2.5508 1.3164 5.1602 1.6523 7.8008 0 3.75 2.25 4.8008 5.5508 3 0.89844 0 1.6484-1.3516 2.5508-1.5h-0.003906c1.1484-0.14453 2.3047-0.14453 3.4531 0-0.3125 1.082-0.71094 2.1367-1.2031 3.1484-1.3203 1.5742-2.7227 3.0742-4.1992 4.5-2.3438 1.875-4.8555 3.5312-7.5 4.9531-1.3125-0.11328-2.5391-0.69922-3.4492-1.6523 0-4.9492-2.6992-5.6992-5.3984-6.1484-0.19922-2.8984-0.19922-5.8047 0-8.6992 0.33203-2.9883 0.88281-5.9453 1.6484-8.8516 0-2.5508 0-5.25 1.0508-7.8008h-0.89844l-7.1992 22.051h-0.003906c-1.4883-6.3438-2.2422-12.836-2.25-19.352 0.0625-3.5977-0.83594-7.1523-2.6016-10.289s-4.3359-5.7461-7.4492-7.5586c-6.3008 3.3008-6.4492 7.9492-4.8008 13.648h0.003906c0.28516 1.957-0.32031 3.9375-1.6523 5.4023 0 0-3.6016 0-4.9492-1.3516-1.3516-1.3516-4.3516-4.8008-6.6016-7.1992h-1.5c0 2.8516 1.3516 5.5508 1.6484 7.0508 0.30078 1.5-0.89844 5.5508-1.3516 8.1016l-6.1445-4.2031c-0.89844 3.4492-2.8516 6.4492-2.25 8.8516 1.1602 2.9844 3.1328 5.582 5.6992 7.5 3.8984 3.4492 7.5 1.9492 10.949-2.25 0.75781 2.3359 1.2617 4.75 1.5 7.1992-0.32031 1.6328-0.32031 3.3164 0 4.9492 2.9062 5.707 7.1875 10.602 12.449 14.25l6.6016-6c0.89844 2.6992 1.3516 4.0508 2.1016 6l4.3516-5.3984c3.1484 3.6016 2.8516 3.6016 1.5 7.1992-1.3516 3.6016-1.6484 6.6016-2.5508 9.8984 10.051-2.3984 11.699-12.449 18.898-16.801l3.6016 6.6016c-7.6484 4.6484-7.6484 4.6484-6 11.551-8.1016 1.0508-5.6992 9.4492-9.8984 13.648h-0.003906c1.5977 0.11328 3.2031 0.11328 4.8008 0 1.1797 0.22656 2.2422 0.86719 3 1.8008 0.16797 1.0117-0.10547 2.0508-0.75 2.8516-2.25 2.8516-4.6484 5.3984-7.1992 8.1016v-0.003906c-5.0742-1.1367-10.387-0.44922-15 1.9492-1.3516 0.75-2.1016 2.5508-3 3.75 1.3516 0.92969 2.8125 1.6836 4.3477 2.25 3.4492 0.89844 7.1992 1.3516 11.551 2.25l-5.3984 5.1016c-3.6016-3.3008-7.0508-2.1016-11.102 0s-5.25 5.6992-6.4492 9.75l7.9492 1.9492v1.3516l-5.5508 1.6484c1.9258 1.1055 3.9297 2.0586 6 2.8516 1.1992 0 2.6992 3.6016 2.3984 3.8984h0.003906c-1.1562 1.1523-1.8047 2.7188-1.8047 4.3516 0 1.6328 0.64844 3.1953 1.8047 4.3477-5.25 1.8008-10.648-2.25-16.199 2.3984 2.6992 1.9492 4.8008 4.6484 6.8984 4.5v0.003906c9.2656-0.078125 18.34-2.668 26.25-7.5l1.1992 5.1016v-0.003906c3.4062-2.7188 6.6602-5.625 9.75-8.6992 3.4492-4.0508 2.8516-6.4492-1.1992-9.75-1.793-1.4453-3.4961-3-5.1016-4.6484h3.6016c3.3008 2.5508 5.5508 0.75 7.8008-1.6484 4.8008-4.9492 9.4492-10.051 15-15v-0.003906c1.6758-1.418 3.4844-2.6719 5.3984-3.75l1.3516 1.6484-20.551 23.551c4.0508-2.3984 7.5-4.0508 11.852 0l-11.25 7.6484c3 3.3008 1.9492 5.3984-1.1992 7.8008l-0.003906 0.003906c-1.7266 1.9258-2.8242 4.332-3.1484 6.8984 0 2.8516 0.75 6.1484-3.4492 7.3516 0 0-0.75 1.6484-1.3516 2.3984-1.543 2.5469-3.2969 4.9531-5.25 7.1992-2.1016 2.3984-4.6484 4.3516-7.0508 6.6016-2.3984 2.25-4.6484 4.6484-1.8008 7.9492-2.8516 2.25-5.5508 4.3516-8.25 6.75 0-1.6484 0-2.8516-0.75-4.3516l-13.801 6.1484c-9 4.3516-4.9492 13.648-8.8516 19.949l1.6484 1.0508 7.6484-7.3516c5.1016 6 5.1016 6 2.5508 12.449v3.3008l0.007812 0.003907c1.4375 0.23047 2.9062 0.23047 4.3477 0 2.25-0.89844 4.0508-2.6992 6.3008-3.4492 2.3594-0.65625 4.3164-2.3125 5.3555-4.5352 1.0352-2.2188 1.0547-4.7812 0.042969-7.0156 0-1.8008-1.1992-3.4492-1.8008-4.8008 2.6992-1.0508 6.1484-1.3516 6.8984-3 5.25-11.102 9.8984-22.5 15-33.75 1.1992-2.8516 1.8008-6.6016 6.1484-5.3984h0.003907c2.0117 5.3594 1.1055 11.375-2.3984 15.902-4.707 4.3945-5.168 11.695-1.0508 16.648 0.21875 0.57812 0.21875 1.2188 0 1.8008 0 7.3516 5.25 15-1.3516 22.051v1.0508l0.003906-0.003906c-0.58203 5.043-1.4297 10.051-2.5508 15-1.0508 4.6484-3.4492 9.1484-4.6484 13.949l-0.003906 0.003906c-0.46484 2.0898-0.14453 4.2773 0.90234 6.1484 0 0.75 3.6016 0 5.5508 0h3.3008-0.003906c2.0352-0.19922 3.8633-1.332 4.9492-3.0625 1.0859-1.7305 1.3086-3.8672 0.60156-5.7891-0.30078-2.1367-0.30078-4.3086 0-6.4492 0.75-5.1016 2.5508-10.199 2.8516-15-0.015625-5.7695 2.5078-11.254 6.8984-15 1.2227-0.89453 2.0234-2.25 2.2227-3.75s-0.22266-3.0195-1.1719-4.1992c-1.7578-3.418-3.2109-6.9805-4.3516-10.648-0.43359-2.2305-0.43359-4.5234 0-6.75h2.1016c0.99219 2.043 1.6992 4.2109 2.1016 6.4492-0.55859 4.8398 2.7109 9.2891 7.5 10.199 0-0.89844 0.75-1.8008 1.1992-2.8516 3 2.3984 5.25 4.5 1.8008 7.3516l9.4492 7.8008c-0.75-5.6992-1.3516-10.199-1.6484-13.5h-0.003906c1.8945-2.2578 3.5977-4.668 5.1016-7.1992 1.8008-3.3008 1.9492-6.4492 7.9492-7.5 6-1.0508 7.0508 3.1484 10.199 5.3984-2.168 0.17188-4.3438-0.24219-6.2969-1.1992-4.8008-2.1016-8.25 0-8.25 4.9492v14.102h-4.0508c0.78516 1.0391 1.4883 2.1445 2.0977 3.2969v1.8008c0 0.44922 2.6992 6.8984 5.1016 7.8008 5.0195 2.2031 8.6172 6.7578 9.6016 12.148 1.4766 3.1562 0.53516 6.9141-2.25 9-4.1836 3.7109-7.293 8.4766-9 13.801-3.8984 8.5508-7.8008 17.102-11.852 25.5-0.89844 1.8008-3.1484 3-4.5 4.8008-1.3203 1.2305-2.3008 2.7812-2.8516 4.5-0.90234 5.5664 1.0742 11.211 5.25 15 4.082 3.5195 6.5234 8.5664 6.75 13.949 0 1.3516 2.3984 3 3.6016 4.5l1.8008-1.1992c-1.4766-4.1289-2.7305-8.3359-3.75-12.602-0.48047-2.2188 0.070313-4.5352 1.5-6.2969 2.1836-1.0312 4.7148-1.0312 6.8984 0 4.8008 3 9 6.8984 13.5 10.352v-0.003906c2.3984 1.875 4.9609 3.5312 7.6523 4.9492 1.25 0.23437 2.5391-0.15625 3.4492-1.0469 1.875-4.1836 1.3594-9.0547-1.3516-12.75-0.98438-1.9102-1.5469-4.0078-1.6484-6.1523l10.199 4.3516c0.69141 0.39062 1.2617 0.96094 1.6484 1.6484 2.457 3.4258 6.3398 5.5391 10.547 5.7461 4.207 0.20313 8.2812-1.5234 11.055-4.6953 2.3984-2.25 5.6992-5.25 8.5508-5.25 7.1992 0 8.25-3.6016 7.6484-9.1484v-0.89844h3.75 19.352c1.6484 0 3.1484 1.5 4.8008 2.25v1.3516c-3.8984 0.89844-10.5-5.5508-11.398 4.1992-4.0508 0-5.8516 1.9492-7.1992 5.3984-3.4492 9.6016-6.6016 19.199-10.5 28.5l-0.003906-0.003906c-1.457 3.0273-1.1133 6.6133 0.89844 9.3008 3.8984 6.3008 6.8984 12.898 10.5 19.199 1.1523 2.9961 3.0039 5.668 5.4023 7.8008 2.0547 1.1133 3.1953 3.3906 2.8477 5.6992-0.36328 3.6992 1.375 7.293 4.5 9.3008l8.3984-14.102 3.3008 3.1484c3-0.75 6-2.6992 7.3516-1.8008v0.003907c1.3711 0.92188 2.2773 2.3945 2.4766 4.0352 0.20312 1.6406-0.31641 3.2891-1.4258 4.5156l-1.1992 1.5c-2.3984 3.1484-4.5 6.3008 0 10.051-4.0508 3.75-11.25 3.3008-11.102 11.398 0.14844 8.1016 0 11.102 6.6016 13.648-2.1016 3-4.0508 5.5508-5.5508 8.25v0.003906c-3.8828 4.1094-4.3242 10.387-1.0508 15 1.9492 2.6992 1.0508 5.1016-2.1016 6.4492h0.003906c-2.0234 1.0781-3.9766 2.2773-5.8516 3.5977 2.25 4.5 4.1992 8.6992 6 12.75l-1.5 0.89844v0.003906c-2.3906-1.5-4.6055-3.2578-6.6016-5.25-1.4258-2.1641-3.6797-3.6484-6.2344-4.1016-2.5508-0.45312-5.1797 0.16016-7.2656 1.6992-3.0508 2.2227-6.7266 3.418-10.5 3.418-3.7695 0-7.4492-1.1953-10.5-3.418h-2.25c-1.9531 6.3672-8.5234 10.113-15 8.5508 0.89844-1.8008 1.8008-3.6016 3.1484-6-3.1484 0-6.3008 0.89844-8.3984 0-2.1289-1.6016-3.7461-3.7891-4.6484-6.3008-2.1016-3.8984-5.5508-4.9492-12-3.75-6.4492 1.1992-6.3008 2.8516-5.8516 7.1992v0.003906c0.14062 1.4453 0.14062 2.9023 0 4.3477l-6.6016-2.3984h0.003906c0.16797 1.2266 0.46875 2.4336 0.89844 3.5977l15 13.5c5.6992 5.25 5.8516 8.6992 0 15-2.1016 2.1016-4.8008 3.6016-7.1992 5.5508s-7.8008 6.6016-11.398 10.051c-1.0508 0.89844-1.1992 2.8516-1.8008 4.5 5.5508 1.3516 10.199-4.9492 15 1.0508 0.82031-3.3906 2.7344-6.418 5.4453-8.6133 2.7109-2.1953 6.0664-3.4375 9.5547-3.5391 4.5 0 6.1484 2.1016 6.8984 6.1484 0.75 4.0508 1.8008 6.3008 2.25 9.6016 0.67188 2.6602 0.67188 5.4453 0 8.1016-1.2812 3.0703-1.2812 6.5273 0 9.6016 0.99219 3.6094 1.2969 7.375 0.90234 11.098-1.0508 16.352-15 22.199-25.801 30h-2.3984-0.003906c-3.7852 0.78516-7.4297 2.1484-10.797 4.0508-5.8516 4.5-10.801 10.352-17.398 7.1992l-9.3008 7.3516-8.6992 6.4492h-0.003906c0.19141 0.48047 0.44531 0.93359 0.75 1.3516 4.3516 0 9.8984-2.6992 12.449 2.6992 2.5508 5.3984-4.1992 6.6016-7.0508 10.949h0.003906c0.73438 0.60547 1.6133 1.0195 2.5469 1.1992 4.9492 0 6.75 3.6016 9.1484 7.0508h0.003906c1.8828 1.5508 4.3438 2.207 6.75 1.8008 4.5625-1.0117 9.0703-2.2617 13.5-3.75v-3c0-1.3516 1.3516-4.6484 4.5-4.8008l13.352-1.1992c1.9492 5.5508 2.1016 5.5508 9 6.8984h-0.003906c1.7422 0.65234 3.4453 1.4023 5.1016 2.25-0.0625 0.55078-0.0625 1.1016 0 1.6523h-4.6484c-1.5586 1.1758-2.7969 2.7227-3.6016 4.5 0 0 1.1992 3 1.8008 2.8516 5.25 0 10.5-0.89844 15.898-1.5v-0.75c3.4492-4.0508 8.25-4.3516 10.648 0l0.003906-0.003906c3.4648 5.3633 7.8906 10.039 13.047 13.801 3.8984 2.8516 8.6992 4.1797 13.504 3.7383 4.8086-0.44531 9.2891-2.625 12.598-6.1367 2.668-3.1406 5.9961-5.6523 9.75-7.3516 4.8828-2.1055 9.8945-3.9102 15-5.3984l3.6016-1.3516 0.89844 0.89844c-1.3477 2.8281-3.0078 5.4961-4.9492 7.9531-3.2617 3.457-6.8281 6.6211-10.652 9.4492-2.1797 1.5312-3.9141 3.6172-5.0234 6.043-1.1055 2.4258-1.5469 5.1055-1.2734 7.7578 0.21484 1.1836-0.085937 2.4062-0.83203 3.3555-0.75 0.94531-1.8672 1.5273-3.0703 1.5938-8.5508 1.8008-16.949 4.8008-25.051-0.89844v-0.003906c-0.58984-0.14453-1.207-0.14453-1.7969 0-11.789-1.4766-23.738-1.0703-35.402 1.2031-1.4414 1.1602-2.4062 2.8164-2.6992 4.6484 1.6484 4.8008-0.89844 7.5-3.8984 10.352-3 2.8516-5.5508 0-8.25-0.75-2.6992-0.75-5.3984 0-5.6992 3.4492h-0.003906c-0.59766 3.5195-0.89844 7.082-0.89844 10.648 0.019531 4.5312-1.8242 8.8711-5.1016 12-2.6992 3-4.8008 6.75-7.6484 9.75-1.5078 1.6992-3.4961 2.9023-5.6992 3.4492-4.2773 0.63672-7.8516 3.5781-9.3008 7.6523-3.6562 8.8164-9.3672 16.633-16.648 22.801-2.25 1.9492-4.8008 3.6016-7.6484 5.6992-5.6992-3.3008-9.6016 0.89844-13.648 4.6484-4.0508 3.75-1.6484 6.3008 0 9.6016 5.5508 0 5.6992 0 8.3984-5.25 0-1.0508 2.6992-2.25 3.6016-1.9492h-0.003907c3.7148 0.71094 7.1289 2.5195 9.8008 5.1953 2.6758 2.6758 4.4844 6.0898 5.1992 9.8047h2.3984c0-1.1992 1.0508-2.1016 1.6484-2.3984 4.8008-1.6484 5.3984-5.1016 5.1016-9.6016-0.30078-4.5-0.89844-6.4492 4.3516-4.8008 0 0 1.0508-0.89844 1.5-1.6484v-0.003906c2.2148-3.6523 6.2266-5.832 10.5-5.6992l1.9492-10.949 0.89844 1.5c5.25-0.89844 10.5-1.6484 15-3 3.9648-1.418 8.3672-0.85938 11.852 1.5 0.79688 0.66797 1.7109 1.1797 2.6992 1.5 5.3984 0.89844 10.949 1.3516 16.199 2.3984 1.6289 0.33594 2.9805 1.4609 3.6016 3 1.6484 5.3984 6.6016 3.3008 10.051 4.3516 0 0 2.25-1.5 2.25-2.3984 0.39453-3.8867 2.6992-7.3203 6.1484-9.1523 1.4766-1.3125 2.6992-2.8906 3.6016-4.6484h-1.8008c-0.14844-1.9492-0.14844-3.9023 0-5.8516 0.35547-1.3086 0.96875-2.5312 1.8008-3.5977 1.6484-3.3008 2.3984-8.25 5.1016-9.75 7.1992-3.8984 15-5.8516 22.801-9.4492l-0.003906-0.003906c3.7383-1.9023 7.9883-2.5508 12.121-1.8477 4.1328 0.70312 7.9336 2.7188 10.828 5.75 4.0508 3.1484 7.8008 6.75 11.699 10.051v-7.8008c7.1992 1.3516 13.949 2.5508 20.551 4.0508 6.6016 1.5 8.1016 0 8.1016-4.3516s3.8984-6.6016 7.9492-7.1992l7.1992-0.89844c4.1992 0 7.8008 0 7.3516 5.25v-0.003906c3.0781 1 6.0859 2.1992 9 3.6016 9.6016 5.8516 9.4492 6 16.648-2.25 2.3984-2.8516 2.1016-5.5508-1.3516-6.75h0.003906c-2.2812-1.3164-4.8672-2.0078-7.5-2.0078-2.6328 0-5.2188 0.69141-7.5 2.0078-2.5312 1.1836-5.2031 2.0391-7.9492 2.5508 0-1.9492 0-2.5508 1.0508-2.6992l15-8.25h-0.003906c0.56641-0.29687 1.2383-0.29687 1.8008 0 4.6484 4.5 11.102 2.5508 16.352 4.3516v-0.003906c6.4102 2.2422 13.391 2.2422 19.801 0 15.223-5.7031 32.137-4.7773 46.648 2.5508h1.3516c2.3633-0.23047 4.6836-0.78516 6.8984-1.6484 4.5-2.1016 8.6992-4.9492 13.199-7.3516 3.5938-1.2109 7.0586-2.7695 10.352-4.6484 2.582-2.8125 6.5352-3.9141 10.199-2.8516 3.3008 1.1992 5.5508 0 5.3984-3.8984-0.39063-4.7305 2.8398-9 7.5-9.9023 3-0.89844 6-2.25 9-3.3008 6.75-2.5508 7.8008-3.8984 7.6484-10.801 0-4.1992-1.3516-8.6992 2.3984-12.301v-4.9492c-9.1484 1.8008-17.699 3.6016-26.398 4.9492-0.89844 0-2.25-1.1992-3-2.1016-0.75-0.89844-2.8516-4.1992-4.8008-4.9492-5.3984-2.25-11.102-3.75-16.648-5.6992 0 0-1.3516-1.1992-2.8516-2.3984l12-1.8008 0.003906 0.003906c2.168-0.16406 4.293-0.66797 6.3008-1.5 6.2266-3.4375 8.7188-11.113 5.6992-17.551-1.3516-4.1992 0.89844-4.8008 3.6016-5.3984v-0.003906c1.3828-0.28906 2.8125-0.28906 4.1992 0 3.1172 0.71875 6.3906-0.13672 8.7539-2.293 2.3633-2.1562 3.5195-5.3359 3.0938-8.5039 0-1.8008 1.1992-5.25 2.1016-5.25 5.1016 0 6.6016-4.3516 9.1484-7.5 0.90625-1.2812 2.0234-2.3984 3.3008-3.3008 3.293-2.1367 5.3984-5.6875 5.6992-9.6016 0.63281-5.168 1.9961-10.219 4.0508-15 4.1914-8.2773 5.4336-17.738 3.5273-26.82-1.9102-9.0781-6.8555-17.238-14.027-23.129z" fill-rule="evenodd"/>
</svg>
