<?xml version="1.0" encoding="UTF-8"?>
<svg width="1200pt" height="1200pt" version="1.1" viewBox="0 0 1200 1200" xmlns="http://www.w3.org/2000/svg">
 <path d="m327.62 877.66h475.96c45.395 0 82.191 45.395 82.191 82.191 0 45.395-36.801 82.191-82.191 82.191h-475.96c-45.395 0-82.191-45.395-82.191-82.191 0-45.395 36.801-82.191 82.191-82.191z"/>
 <path d="m642.35 737.55h345.41c84.086 0 152.25 84.086 152.25 152.25 0 84.086-68.164 152.25-152.25 152.25h-345.41c-84.086 0-152.25-84.086-152.25-152.25 0-84.086 68.164-152.25 152.25-152.25z"/>
 <path d="m1027.2 780.18c0 139.35-112.96 252.31-252.31 252.31-139.35 0-252.32-112.96-252.32-252.31 0-139.35 112.96-252.32 252.32-252.32 139.35 0 252.31 112.96 252.31 252.32"/>
 <path d="m612.43 878.62c0 82.867-67.18 150.05-150.05 150.05-82.871 0-150.05-67.18-150.05-150.05 0-82.871 67.18-150.05 150.05-150.05 82.867 0 150.05 67.18 150.05 150.05"/>
 <path d="m516.9 317.96h-341.46c-49.281 0-89.234 49.281-89.234 89.234 0 49.281 39.953 89.234 89.234 89.234h341.46c49.281 0 89.234-49.281 89.234-89.234 0-49.281-39.953-89.234-89.234-89.234z"/>
 <path d="m239.64 263.46h-63.156c-64.332 0-116.48 64.332-116.48 116.48 0 64.332 52.152 116.48 116.48 116.48h63.156c64.332 0 116.48-64.332 116.48-116.48 0-64.332-52.152-116.48-116.48-116.48z"/>
 <path d="m172.89 325.5c0 92.535 75.016 167.55 167.55 167.55 92.539 0 167.55-75.016 167.55-167.55 0-92.539-75.016-167.55-167.55-167.55-92.535 0-167.55 75.016-167.55 167.55"/>
</svg>
