<?xml version="1.0" encoding="UTF-8"?>
<svg width="1200pt" height="1200pt" version="1.1" viewBox="0 0 1200 1200" xmlns="http://www.w3.org/2000/svg">
 <path d="m953.48 811.29 97.41 25.301 34.34-14.934-39.129-205.73-31.043-104.04-57.012-48.008-65.832 58.914-18.262 66.305 15.031 17.949z"/>
 <path d="m1067.8 840.97 49.277 12.809-40.715-136.45 21.09 110.76z"/>
 <path d="m944.13 817.38-64.75-205.06-24.258-28.918-26.988 19.754-47.102 165.6-0.32031-1.1719-7.0586-12.246 20.746-72.906-26.57 62.801-22.883-39.699-28.543 54.367 24.18-65.719 28.277-117.25 12.168-60.582-30.012-93.613-94.602-78.734-78.105 48.203-35.652 70.172-37.312 55.199 10.117 122.44 56.938 22.07 6.5273 39.734 45.156 25.496-51.762-17.617-6.5273-39.93-55.973-21.922-23.484-18.84-26.578 39.734-52.078 113.43-43.477-61.512c-2.1719-3.0898-4.9531-4.7812-7.7539-4.7812-2.8359 0-5.6094 1.6875-7.7852 4.7812l-23.293 32.938 44.07 102.42h90.426l261.09-0.011719h216.32l-139.65-20.191v-6.4805l-1.25-4.5664 216.15 31.238h70.266l-137.78-35.801z"/>
 <path d="m166.95 831.02c-21.602-45.758-9.125-124.08 6.5234-185.43l-90.539 210.41h103.56c-8.043-6.2109-14.594-14.539-19.547-24.98z"/>
 <path d="m220.92 548.64c-3.5781 0-7.5547 4.293-10.645 11.504-1.5742 4.1211-71.055 189.36-34.539 266.73 6.9844 14.797 17.113 24.297 30.938 29.133h152.21l-127.32-295.81c-3.1211-7.2383-7.0977-11.559-10.645-11.559z"/>
</svg>
