<?xml version="1.0" encoding="UTF-8"?>
<svg width="1200pt" height="1200pt" version="1.1" viewBox="0 0 1200 1200" xmlns="http://www.w3.org/2000/svg">
 <path d="m1062.4 693.17c-8.6641-10.586-19.188-27.336-27.516-37.02-13.105-15.18-28.715-23.832-50.484-15.648-17.641 6.6484-33.973 17.074-56.605-13.934-17.34-23.785-40.02-30.961-69.863-17.305-10.262 4.6914-21.254 6.9961-32.328 5.4609 0.3125-4.8828 0.74219-9.7422 0.74219-14.723 0-3.5625-0.35938-7.0312-0.53906-10.559 17.23-8.4375 26.508-23.461 32.461-34.586 11.305-21.098 25.57-35.027 60.266-22.477 24.395 8.8438 41.074 3.5039 58.68-21.672 17.426-24.898 37.754-16.824 60.383-8.543 44.102 16.141 64.066-12.973 88.922-22.309-15.191 3.8398-36.996 18.672-69.469 3.4805-12.371-5.7852-29.137-16.309-40.836-21.395-18.395-8.0156-36.238-9.0469-52.262 7.7773-13.031 13.656-23.207 30.145-57.035 12.012-25.945-13.906-49.488-10.535-70.477 14.688-7.1875 8.6523-16.031 15.457-26.617 18.91-3.1914-7.8945-6.6953-15.648-10.727-23.062 11.664-15 13.477-32.449 14.016-44.965 1.0195-23.902 7.8125-42.66 44.543-46.391 25.801-2.6289 38.531-14.688 43.453-44.988 4.8945-30 26.734-31.547 50.699-33.91 46.738-4.5977 52.066-39.48 70.43-58.691-11.988 10.055-25.223 32.879-61.055 33.289-13.68 0.15625-33.336-2.0508-46.078-1.5586-20.051 0.75781-36.59 7.5586-43.727 29.699-5.8086 17.941-7.8359 37.211-46.188 35.543-29.426-1.2617-49.176 12-57.109 43.824-2.7461 10.969-7.7773 20.988-15.887 28.715-6.2266-5.6758-12.719-11.004-19.559-15.949 4.1641-18.719-1.9062-35.34-6.8867-46.934-9.457-21.973-11.473-41.832 19.98-61.117 22.141-13.547 28.355-29.953 19.68-59.398-8.6289-29.148 10.367-39.996 30.949-52.523 40.129-24.434 29.785-58.176 37.98-83.449-6.4453 14.258-8.4492 40.559-40.57 56.484-12.254 6.0586-30.926 12.613-42.203 18.602-17.734 9.3828-29.652 22.68-26.496 45.719 2.5664 18.684 9.0977 36.926-26.184 52.066-27.047 11.617-39.086 32.137-32.438 64.273 2.2695 10.992 2.0898 22.141-1.8008 32.555-8.0625-2.3867-16.32-4.2461-24.719-5.7461-4.4141-18.59-16.98-30.961-26.461-39.215-18.059-15.695-28.465-32.723-8.4961-63.742 14.062-21.816 12.539-39.266-8.0742-62.027-20.398-22.512-8.0039-40.535 5.1016-60.77 25.547-39.426 1.582-65.344-1.9688-91.66 0.35938 15.637 9.9727 40.223-12.047 68.496-8.4102 10.789-22.402 24.781-29.965 35.051-11.902 16.164-16.871 33.312-4.0312 52.691 10.402 15.73 24.215 29.316-0.99609 58.273-19.344 22.211-21.277 45.926-1.3438 71.977 6.8516 8.9766 11.543 19.152 12.516 30.301-8.4102 1.3438-16.68 3.0977-24.758 5.3398-12.047-14.832-28.727-20.531-40.871-23.855-23.09-6.3125-39.84-17.125-35.316-53.746 3.1914-25.754-5.7461-40.836-34.188-52.391-28.152-11.449-24.805-33.07-21.77-56.977 5.9141-46.586-26.914-59.555-41.543-81.719 7.1289 13.934 26.438 31.922 18.863 66.949-2.8906 13.355-9.4219 32.039-11.773 44.578-3.7188 19.715-0.75781 37.332 19.223 49.223 16.211 9.6484 34.547 15.91 24.395 52.934-7.7773 28.402 0.75781 50.617 30 65.438 10.031 5.1016 18.648 12.203 24.371 21.77-6.9258 4.8242-13.488 10.078-19.801 15.625-17.328-8.207-34.871-5.9883-47.27-3.6953-23.531 4.3203-43.344 1.8594-55.152-33.098-8.293-24.574-22.895-34.297-53.531-32.363-30.324 1.8945-36.684-19.031-44.328-41.879-14.867-44.555-50.09-41.988-72.875-55.609 12.457 9.457 37.668 17.281 46.031 52.129 3.1914 13.309 5.4258 32.965 8.7227 45.277 5.2188 19.379 15.516 33.973 38.676 36.023 18.781 1.6562 38.039-0.66016 44.941 37.105 5.3047 28.957 22.633 45.266 55.441 45.938 11.258 0.22656 22.094 2.8906 31.391 9.0234-4.1523 7.332-8.0156 14.844-11.352 22.668-19.031 0.21484-33.781 9.7695-43.906 17.172-19.344 14.125-38.258 20.473-64.043-5.8906-18.145-18.551-35.496-20.977-62.281-5.9531-26.496 14.879-41.316-1.2227-58.105-18.492-32.746-33.684-63.348-16.094-89.797-18.48 15.324 3.1211 41.438-0.76953 64.094 26.988 8.6641 10.598 19.199 27.359 27.516 37.02 13.105 15.203 28.727 23.867 50.484 15.66 17.641-6.6484 33.973-17.09 56.594 13.934 17.34 23.785 40.031 30.961 69.875 17.328 10.273-4.6914 21.254-6.9961 32.34-5.4727-0.32813 4.8945-0.75 9.7422-0.75 14.711 0 3.5625 0.37109 7.043 0.52734 10.586-17.219 8.4258-26.508 23.449-32.461 34.547-11.281 21.109-25.559 35.062-60.254 22.5-24.395-8.8555-41.102-3.4922-58.703 21.66-17.41 24.887-37.754 16.812-60.371 8.543-44.113-16.117-64.055 12.996-88.922 22.32 15.168-3.8398 36.996-18.66 69.469-3.4922 12.383 5.7969 29.148 16.309 40.836 21.422 18.406 8.0156 36.238 9.0352 52.273-7.7773 13.008-13.68 23.195-30.18 57.035-12.012 25.945 13.895 49.5 10.523 70.465-14.723 7.1875-8.6406 16.031-15.445 26.629-18.887 3.1914 7.8945 6.6953 15.66 10.727 23.09-11.664 15-13.465 32.438-14.004 44.941-1.0195 23.93-7.8242 42.672-44.531 46.402-25.801 2.6289-38.531 14.688-43.477 45-4.8945 29.988-26.723 31.535-50.699 33.887-46.738 4.5859-52.066 39.492-70.441 58.68 12.012-10.031 25.246-32.844 61.078-33.277 13.668-0.15625 33.324 2.0625 46.078 1.5703 20.051-0.75781 36.562-7.5859 43.715-29.699 5.7969-17.93 7.8242-37.223 46.188-35.566 29.41 1.2852 49.152-11.977 57.109-43.801 2.7461-10.957 7.7773-20.988 15.887-28.715 6.2148 5.6641 12.719 10.98 19.535 15.938-4.1406 18.707 1.9336 35.328 6.9102 46.906 9.457 21.996 11.461 41.844-19.992 61.117-22.129 13.586-28.344 29.965-19.656 59.398 8.6172 29.148-10.379 40.02-30.961 52.547-40.129 24.422-29.785 58.176-37.992 83.449 6.4453-14.281 8.4727-40.57 40.57-56.484 12.254-6.0977 30.926-12.625 42.203-18.602 17.734-9.3828 29.652-22.68 26.508-45.73-2.5664-18.695-9.1094-36.938 26.172-52.094 27.047-11.605 39.086-32.125 32.438-64.246-2.2695-10.992-2.0742-22.152 1.8125-32.566 8.0391 2.3867 16.297 4.2461 24.695 5.7461 4.4023 18.602 16.969 30.973 26.461 39.215 18.059 15.719 28.477 32.746 8.4961 63.742-14.027 21.793-12.527 39.277 8.0742 62.051 20.398 22.523 8.0039 40.535-5.1016 60.77-25.547 39.395-1.5859 65.305 1.9688 91.633-0.38281-15.625-9.9727-40.223 12.047-68.496 8.4102-10.777 22.402-24.77 29.965-35.062 11.902-16.152 16.871-33.277 4.0547-52.691-10.402-15.719-24.227-29.293 0.97266-58.262 19.332-22.211 21.289-45.898 1.3555-71.965-6.8633-8.9766-11.566-19.164-12.539-30.301 8.4375-1.3555 16.703-3.1094 24.781-5.3633 12.059 14.832 28.727 20.52 40.848 23.832 23.09 6.3242 39.852 17.148 35.328 53.746-3.2031 25.754 5.7344 40.824 34.188 52.391 28.152 11.426 24.793 33.059 21.77 56.953-5.9141 46.609 26.914 59.578 41.531 81.73-7.1172-13.934-26.438-31.906-18.852-66.949 2.8906-13.344 9.4062-32.027 11.785-44.566 3.7188-19.727 0.74219-37.332-19.223-49.223-16.211-9.6602-34.547-15.91-24.395-52.934 7.7773-28.379-0.75781-50.605-30.023-65.426-10.02-5.0898-18.637-12.203-24.359-21.758 6.8984-4.8242 13.477-10.094 19.801-15.625 17.305 8.207 34.871 5.9883 47.27 3.7188 23.531-4.3438 43.32-1.8594 55.129 33.086 8.3047 24.602 22.895 34.297 53.543 32.375 30.324-1.9219 36.695 19.008 44.328 41.844 14.879 44.566 50.09 42 72.887 55.621-12.469-9.4453-37.668-17.281-46.043-52.117-3.1797-13.285-5.4102-32.965-8.7227-45.289-5.2188-19.379-15.539-33.961-38.676-36.023-18.805-1.668-38.039 0.67188-44.941-37.078-5.3164-28.969-22.656-45.289-55.441-45.926-11.258-0.23828-22.094-2.9023-31.402-9.0352 4.1641-7.3438 8.0156-14.855 11.34-22.68 19.031-0.21484 33.77-9.7812 43.895-17.172 19.344-14.113 38.258-20.496 64.055 5.8789 18.145 18.562 35.508 20.988 62.27 5.9414 26.508-14.855 41.316 1.2344 58.117 18.516 32.734 33.66 63.324 16.094 89.797 18.445-15.27-3.0898-41.383 0.8125-64.039-26.957z"/>
</svg>
