<?xml version="1.0" encoding="UTF-8"?>
<svg width="1200pt" height="1200pt" version="1.1" viewBox="0 0 1200 1200" xmlns="http://www.w3.org/2000/svg">
 <path d="m1068 120h-936c-6.6289 0-12 5.3672-12 12v936c0 6.6328 5.3711 12 12 12h936c6.6289 0 12-5.3672 12-12v-936c0-6.6328-5.3711-12-12-12zm-12 936h-912v-912h912z"/>
 <path d="m441.91 446.14c29.875 0 57.98-11.652 79.043-32.309 21.059 20.652 49.168 32.309 79.047 32.309s57.988-11.652 79.047-32.309c21.062 20.652 49.168 32.309 79.043 32.309 34.551 0 66.777-15.527 88.422-42.609 4.1367-5.168 3.293-12.727-1.8828-16.863-5.1914-4.1484-12.734-3.3047-16.867 1.8867-17.062 21.34-42.457 33.586-69.672 33.586s-52.605-12.246-69.668-33.586c-0.28516-0.35547-0.69141-0.52734-1.0078-0.84375-0.32422-0.32812-0.50391-0.74609-0.875-1.043-0.29687-0.23828-0.66016-0.29688-0.97266-0.5-0.67188-0.44141-1.3516-0.77734-2.082-1.0742-0.73828-0.29688-1.4492-0.55078-2.2148-0.69531-0.72656-0.14062-1.4336-0.17188-2.1719-0.17578-0.80078-0.003906-1.5586 0.035157-2.3398 0.19141-0.72266 0.14062-1.3906 0.37891-2.0859 0.65234-0.76562 0.30469-1.4727 0.65234-2.1719 1.1172-0.30078 0.19922-0.65625 0.25391-0.94531 0.48438-0.36719 0.29297-0.54297 0.71094-0.86719 1.0352-0.31641 0.31641-0.72656 0.49219-1.0156 0.85156-17.062 21.34-42.457 33.586-69.672 33.586s-52.609-12.246-69.672-33.586c-0.28516-0.35547-0.69141-0.52734-1.0078-0.84375-0.32422-0.32812-0.50391-0.74609-0.875-1.043-0.29687-0.23828-0.66016-0.29688-0.97266-0.5-0.67188-0.44141-1.3516-0.77734-2.082-1.0742-0.73828-0.29688-1.4492-0.55078-2.2148-0.69531-0.72656-0.14062-1.4336-0.17188-2.1719-0.17578-0.80078-0.003906-1.5586 0.035157-2.3398 0.19141-0.72266 0.14062-1.3906 0.37891-2.0859 0.65234-0.76562 0.30469-1.4727 0.65234-2.1719 1.1172-0.30078 0.19922-0.65625 0.25391-0.94531 0.48438-0.36719 0.29297-0.54297 0.71094-0.86719 1.0352-0.31641 0.31641-0.72656 0.49219-1.0156 0.85156-17.062 21.34-42.453 33.586-69.668 33.586s-52.609-12.246-69.672-33.586c-4.1406-5.1797-11.695-6.0234-16.867-1.8867s-6.0156 11.695-1.8828 16.863c21.641 27.082 53.867 42.609 88.422 42.609z"/>
 <path d="m441.91 569.41c29.875 0 57.98-11.652 79.043-32.309 21.059 20.656 49.168 32.309 79.047 32.309s57.988-11.652 79.047-32.309c21.062 20.652 49.168 32.309 79.043 32.309 34.551 0 66.777-15.527 88.422-42.609 4.1367-5.168 3.293-12.727-1.8828-16.863-5.1914-4.1367-12.734-3.3047-16.867 1.8867-17.062 21.34-42.457 33.586-69.672 33.586s-52.605-12.246-69.668-33.586c-0.28516-0.35547-0.69141-0.52734-1.0078-0.84375-0.32422-0.32812-0.50391-0.74609-0.875-1.043-0.29687-0.23828-0.65625-0.29297-0.96875-0.49609-0.67969-0.44922-1.3633-0.78516-2.1055-1.082-0.72656-0.29297-1.4219-0.53906-2.1758-0.68359-0.74609-0.14453-1.4648-0.17969-2.2227-0.17969-0.78516 0-1.5273 0.035156-2.2969 0.1875-0.73047 0.14062-1.4102 0.38281-2.1133 0.66016-0.76172 0.30078-1.4609 0.64844-2.1562 1.1094-0.30469 0.19922-0.66016 0.25781-0.94922 0.48828-0.36719 0.29297-0.54688 0.71094-0.86719 1.0391-0.31641 0.31641-0.72656 0.48828-1.0117 0.85156-17.062 21.332-42.457 33.578-69.672 33.578s-52.609-12.246-69.672-33.586c-0.28516-0.35547-0.69141-0.52734-1.0078-0.84375-0.32422-0.32812-0.50391-0.74609-0.875-1.043-0.29687-0.23828-0.65625-0.29297-0.96875-0.49609-0.67969-0.44922-1.3633-0.78516-2.1055-1.082-0.72656-0.29297-1.4219-0.53906-2.1758-0.68359-0.74609-0.14453-1.4648-0.17969-2.2227-0.17969-0.78516 0-1.5273 0.035156-2.2969 0.1875-0.73047 0.14062-1.4102 0.38281-2.1133 0.66016-0.76172 0.30078-1.4609 0.64844-2.1562 1.1094-0.30469 0.19922-0.66016 0.25781-0.94922 0.48828-0.36719 0.29297-0.54688 0.71094-0.86719 1.0391-0.31641 0.31641-0.72656 0.48828-1.0117 0.85156-17.062 21.34-42.453 33.586-69.668 33.586s-52.609-12.246-69.672-33.586c-4.1406-5.1797-11.695-6.0234-16.867-1.8867s-6.0156 11.695-1.8828 16.863c21.641 27.074 53.867 42.602 88.422 42.602z"/>
 <path d="m441.91 692.68c29.875 0 57.98-11.652 79.043-32.309 21.059 20.652 49.168 32.309 79.047 32.309s57.988-11.652 79.047-32.309c21.062 20.652 49.168 32.309 79.043 32.309 34.551 0 66.777-15.527 88.422-42.609 4.1367-5.168 3.293-12.727-1.8828-16.863-5.1914-4.1367-12.734-3.293-16.867 1.8867-17.062 21.34-42.457 33.586-69.672 33.586s-52.605-12.246-69.668-33.586c-0.28516-0.35547-0.69141-0.52734-1.0078-0.84375-0.32422-0.32812-0.50391-0.74609-0.875-1.043-0.29687-0.23438-0.65625-0.29297-0.96875-0.49609-0.67969-0.44922-1.3672-0.78906-2.1094-1.0859-0.71875-0.28906-1.4141-0.53516-2.1641-0.67578-0.75391-0.14453-1.4844-0.17969-2.2539-0.18359-0.76953 0-1.5 0.035157-2.2539 0.18359-0.74609 0.14453-1.4375 0.38672-2.1562 0.67578-0.74609 0.29688-1.4375 0.64062-2.1211 1.0898-0.30859 0.20312-0.66797 0.26172-0.96094 0.49609-0.36719 0.29688-0.54688 0.71484-0.87109 1.043-0.31641 0.31641-0.72266 0.48828-1.0078 0.84375-17.062 21.336-42.457 33.582-69.672 33.582s-52.609-12.246-69.672-33.586c-0.28516-0.35547-0.69141-0.52734-1.0078-0.84375-0.32422-0.32812-0.50391-0.74609-0.875-1.043-0.29687-0.23438-0.65625-0.29297-0.96875-0.49609-0.67969-0.44922-1.3672-0.78906-2.1094-1.0859-0.71875-0.28906-1.4141-0.53516-2.1641-0.67578-0.75391-0.14453-1.4844-0.17969-2.2539-0.18359-0.76953 0-1.5 0.035157-2.2539 0.18359-0.74609 0.14453-1.4375 0.38672-2.1562 0.67578-0.74609 0.29688-1.4375 0.64062-2.1211 1.0898-0.30859 0.20312-0.66797 0.26172-0.96094 0.49609-0.36719 0.29688-0.54688 0.71484-0.87109 1.043-0.31641 0.31641-0.72266 0.48828-1.0078 0.84375-17.062 21.34-42.453 33.586-69.668 33.586s-52.609-12.246-69.672-33.586c-4.1406-5.1797-11.695-6.0234-16.867-1.8867-5.1719 4.1367-6.0156 11.695-1.8828 16.863 21.641 27.078 53.867 42.605 88.422 42.605z"/>
 <path d="m441.91 815.95c29.875 0 57.98-11.652 79.043-32.309 21.059 20.652 49.168 32.309 79.047 32.309s57.988-11.652 79.047-32.309c21.062 20.652 49.168 32.309 79.043 32.309 34.551 0 66.777-15.527 88.422-42.609 4.1367-5.168 3.293-12.727-1.8828-16.863-5.1914-4.1484-12.734-3.293-16.867 1.8867-17.062 21.34-42.457 33.586-69.672 33.586s-52.605-12.246-69.668-33.586c-0.28516-0.35547-0.69141-0.52734-1.0078-0.84375-0.32422-0.32813-0.50391-0.74609-0.875-1.043-0.29687-0.23828-0.66016-0.29688-0.97266-0.5-0.67188-0.44531-1.3555-0.78125-2.0898-1.0781-0.73437-0.29688-1.4375-0.54688-2.2031-0.69141-0.73828-0.14063-1.4531-0.17578-2.2031-0.17969-0.78516 0-1.5312 0.035156-2.3008 0.1875-0.73438 0.14062-1.418 0.38281-2.125 0.66797-0.75391 0.30078-1.4492 0.64453-2.1406 1.0977-0.30469 0.20312-0.66406 0.25781-0.95703 0.49219-0.36719 0.29297-0.54688 0.71484-0.87109 1.0391-0.31641 0.31641-0.72266 0.48828-1.0117 0.84766-17.055 21.344-42.449 33.59-69.664 33.59s-52.609-12.246-69.672-33.586c-0.28516-0.35547-0.69141-0.52734-1.0078-0.84375-0.32422-0.32813-0.50391-0.74609-0.875-1.043-0.29687-0.23828-0.66016-0.29688-0.97266-0.5-0.67188-0.44531-1.3555-0.78125-2.0898-1.0781-0.73437-0.29688-1.4375-0.54688-2.2031-0.69141-0.73828-0.14063-1.4531-0.17578-2.2031-0.17969-0.78516 0-1.5312 0.035156-2.3008 0.1875-0.73438 0.14062-1.418 0.38281-2.125 0.66797-0.75391 0.30078-1.4492 0.64453-2.1406 1.0977-0.30469 0.20312-0.66406 0.25781-0.95703 0.49219-0.36719 0.29297-0.54688 0.71484-0.87109 1.0391-0.31641 0.31641-0.72266 0.48828-1.0117 0.84766-17.062 21.34-42.453 33.586-69.668 33.586s-52.609-12.246-69.672-33.586c-4.1406-5.1797-11.695-6.0234-16.867-1.8867-5.1719 4.1367-6.0156 11.695-1.8828 16.863 21.648 27.086 53.875 42.613 88.43 42.613z"/>
</svg>
