<?xml version="1.0" encoding="UTF-8"?>
<svg width="1200pt" height="1200pt" version="1.1" viewBox="0 0 1200 1200" xmlns="http://www.w3.org/2000/svg">
 <path d="m1181.8 663.03c-86.059-10.91-175.75-55.758-260.61-100.61-16.969-8.4844-35.152-4.8477-47.273 8.4844-4.8477 4.8477-13.332 13.332-18.184 18.184-158.79-14.547-395.15-61.82-443.63-112.73-15.758-19.395-21.816-36.363-18.184-50.91 9.6953-36.363 80-61.816 135.76-82.426 58.184-21.816 104.24-38.789 111.52-67.879v-4.8477c143.03 93.336 296.97 163.64 458.18 209.7 6.0625 2.4258 13.332-2.4258 14.547-8.4844 1.2109-6.0625-2.4258-13.332-8.4844-14.547-164.85-47.273-322.43-120-466.67-215.76-18.184-10.91-38.789-13.332-55.758-4.8477-161.21 70.305-355.15 150.3-561.21 233.94-6.0586 2.4219-9.6953 9.6953-7.2695 15.758 2.4258 4.8477 6.0625 7.2734 10.91 7.2734 1.2109 0 3.6367 0 4.8477-1.2109 204.85-83.637 400-163.64 562.43-233.94 4.8477-2.4258 12.121-3.6367 18.184-2.4258 4.8477 6.0625 7.2734 9.6953 6.0625 13.332-3.6367 16.969-54.547 35.152-95.758 50.91-46.062 16.969-92.121 33.938-122.43 58.184-1.2109 0-2.4258 1.2109-3.6367 1.2109-35.152 23.031-69.09 48.484-101.82 72.727-72.734 55.754-147.89 113.94-236.37 141.81-6.0625 2.4258-9.6953 8.4844-7.2734 15.758 1.2148 4.8516 6.0625 8.4883 10.91 8.4883h3.6367c92.121-30.305 169.7-88.484 244.85-144.24 19.395-14.547 38.789-29.09 59.395-43.637-2.4258 19.395 6.0625 41.211 25.453 64.242 53.332 58.184 283.64 99.395 442.43 115.15-67.879 59.395-163.64 105.45-295.76 145.45-6.0625 2.4258-9.6953 8.4844-8.4844 14.547 1.2109 4.8477 6.0625 8.4844 12.121 8.4844h3.6367c147.88-43.637 252.12-98.184 323.64-167.27 9.6953 18.184 33.938 33.938 63.031 50.91 33.938 20.605 73.938 44.848 77.574 71.516 2.4258 12.121-2.4258 26.668-15.758 41.211-37.574 40-117.57 64.242-219.39 95.758-78.789 24.242-168.48 52.121-267.88 94.547-6.0625 2.4258-8.4844 9.6953-6.0625 15.758 2.4258 4.8477 6.0625 7.2734 10.91 7.2734 1.2109 0 3.6367 0 4.8477-1.2109 98.184-42.426 186.67-69.09 265.45-93.332 109.09-33.938 187.88-58.184 230.3-103.03 16.969-20.605 24.242-41.211 20.605-60.605-6.0625-38.789-52.121-65.453-90.91-88.484-25.453-14.547-53.332-32.727-55.758-44.848 0-1.2109-1.2109-8.4844 3.6367-13.332 4.8477-3.6367 13.332-4.8477 18.184-1.2109 87.273 46.062 176.97 92.121 266.67 103.03 7.2734 1.2109 12.121 1.2109 13.332-6.0625 1.2148-7.2812-1.2109-14.555-8.4844-15.766z"/>
 <path d="m700.61 649.7c7.2734 1.2109 8.4844 1.2109 16.969 2.4258h1.2109c2.4258 0 6.0625-2.4258 6.0625-4.8477 0-3.6367-1.2109-6.0625-4.8477-7.2734-8.4844-1.2109-10.91-1.2109-16.969-2.4258l-3.6367-1.2109c-3.6367 0-6.0625 1.2109-7.2734 4.8477-1.2109 3.6367 1.2109 6.0625 4.8477 7.2734z"/>
 <path d="m670.3 644.85c2.4258 0 4.8477-2.4258 6.0625-4.8477 0-3.6367-1.2109-6.0625-4.8477-7.2734-176.97-31.516-289.7-69.09-326.06-109.09-4.8477-6.0625-8.4844-10.91-12.121-16.969-1.2109-2.4258-6.0625-3.6367-8.4844-2.4258-2.4258 1.2109-3.6367 6.0625-2.4258 8.4844 3.6367 6.0625 8.4844 12.121 13.332 18.184 49.695 53.332 208.48 90.906 334.55 113.94-1.2148 0 0 0 0 0z"/>
 <path d="m913.94 888.48c-35.152 12.121-73.938 24.242-115.15 37.574-43.637 13.332-88.484 27.879-138.18 44.848-3.6367 1.2109-4.8477 4.8477-3.6367 7.2734 1.2109 2.4258 3.6367 3.6367 6.0625 3.6367h2.4258c48.484-16.969 94.547-30.305 138.18-44.848 41.211-13.332 81.211-25.453 115.15-37.574 3.6367-1.2109 4.8477-4.8477 3.6367-7.2734-1.2148-3.6367-4.8516-4.8477-8.4883-3.6367z"/>
 <path d="m1071.5 689.7c-2.4258-2.4258-6.0625-2.4258-8.4844 0-2.4258 2.4258-2.4258 6.0625 0 8.4844 38.789 35.152 41.211 66.668 9.6953 105.45-18.184 18.184-42.426 35.152-77.574 52.121-2.4258 1.2109-4.8477 4.8477-2.4258 8.4844 1.2109 2.4258 3.6367 3.6367 6.0625 3.6367h2.4258c36.363-16.969 63.031-35.152 81.211-54.547 36.363-44.844 32.727-84.844-10.91-123.63z"/>
 <path d="m1050.9 681.21c2.4258-2.4258 1.2109-6.0625-1.2109-8.4844-2.4258-1.2109-4.8477-2.4258-6.0625-4.8477-2.4258-2.4258-6.0625-1.2109-8.4844 1.2109-2.4258 2.4258-1.2109 6.0625 1.2109 8.4844 2.4258 1.2109 3.6367 2.4258 6.0625 4.8477 1.2109 1.2109 2.4258 1.2109 3.6367 1.2109 1.2109 0.003907 3.6328-1.207 4.8477-2.4219z"/>
</svg>
