<?xml version="1.0" encoding="UTF-8"?>
<svg width="1200pt" height="1200pt" version="1.1" viewBox="0 0 1200 1200" xmlns="http://www.w3.org/2000/svg">
 <path d="m602.96 411.15c-50.684-1.9141-100.54 30.145-126.83 78.504l-1.8438 1.793c-39.109-16.016-83.996-13.062-114.06 17.113-30.062 30.18-39.852 75.68-24.906 115.96 14.941 40.277 51.734 67.727 93.809 69.926h17.711c-2.7422-36.973 11.047-74.086 38.836-100.69 31.984-30.586 76-38.734 121.62-27.215 26.168-36.93 65.941-62.484 109.63-69.648-14.359-35.801-42.184-65.094-79.008-78.781-11.5-4.2734-23.262-6.5273-34.961-6.9648zm-33.023 197.6c-20.547-0.23438-38.422 6.5312-51.609 19.141-14.324 13.711-22.598 31.422-24.309 49.906l96.164-66.648c-6.9453-1.4414-13.77-2.3398-20.25-2.3984z"/>
 <path d="m745.98 517.47c-50.934-1.8203-101.05 28.895-127.47 75.234l-1.8672 1.6992c-39.301-15.348-84.43-12.508-114.64 16.41-30.207 28.922-40.023 72.523-25.004 111.12 15.016 38.598 52.02 64.891 94.301 67h169.2v-0.23438c64.914-2.1016 119.27-50.27 129.41-114.9 10.199-64.949-27.137-127.96-88.773-149.81-11.559-4.0938-23.363-6.2578-35.113-6.6797z"/>
</svg>
