<?xml version="1.0" encoding="UTF-8"?>
<svg width="1200pt" height="1200pt" version="1.1" viewBox="0 0 1200 1200" xmlns="http://www.w3.org/2000/svg">
 <path d="m131.04 815.99c-4.2617 1.1055-8.6133-1.457-9.7188-5.7188-1.1055-4.2617 1.457-8.6133 5.7188-9.7188l44.449-11.641c4.2617-1.1055 8.6133 1.457 9.7188 5.7188 1.1055 4.2617-1.457 8.6133-5.7188 9.7188zm204.38-479.49c1.3594 2.3945 0.51953 5.4375-1.875 6.7969-2.3945 1.3594-5.4375 0.51953-6.7969-1.875l-62.887-110.85c-1.3594-2.3945-0.51953-5.4375 1.875-6.7969 2.3945-1.3594 5.4375-0.51953 6.7969 1.875zm-37.332 53.672c2.75 0.011719 4.9727 2.25 4.9609 5s-2.25 4.9727-5 4.9609l-127.45-0.96484c-2.75-0.011719-4.9727-2.25-4.9609-5s2.25-4.9727 5-4.9609zm27.84 59.148c1.3906-2.3711 4.4453-3.168 6.8164-1.7773 2.3711 1.3906 3.168 4.4453 1.7773 6.8164l-64.559 109.89c-1.3906 2.3711-4.4453 3.168-6.8164 1.7773-2.3711-1.3906-3.168-4.4453-1.7773-6.8164zm65.133 5.4727c-1.3594-2.3945-0.51953-5.4375 1.875-6.7969 2.3945-1.3594 5.4375-0.51953 6.7969 1.875l62.887 110.85c1.3594 2.3945 0.51953 5.4375-1.875 6.7969s-5.4375 0.51953-6.7969-1.875zm37.328-53.672c-2.75-0.011719-4.9727-2.25-4.9609-5s2.25-4.9727 5-4.9609l127.45 0.96484c2.75 0.011719 4.9727 2.25 4.9609 5s-2.25 4.9727-5 4.9609zm-27.84-59.148c-1.3906 2.3711-4.4453 3.168-6.8164 1.7773-2.3711-1.3906-3.168-4.4453-1.7773-6.8164l64.559-109.89c1.3906-2.3711 4.4453-3.168 6.8164-1.7773 2.3711 1.3906 3.168 4.4453 1.7773 6.8164zm-32.312 6.0469c0 2.7617-2.2383 5-5 5s-5-2.2383-5-5v-93.133c0-2.7617 2.2383-5 5-5s5 2.2383 5 5zm-43.766 19.496c2.3828 1.3711 3.207 4.4141 1.8359 6.7969-1.3711 2.3828-4.4141 3.207-6.7969 1.8359l-80.656-46.566c-2.3828-1.3711-3.207-4.4141-1.8359-6.7969 1.3711-2.3828 4.4141-3.207 6.7969-1.8359zm-4.9805 47.625c2.3828-1.3789 5.4375-0.56641 6.8164 1.8164 1.3789 2.3828 0.56641 5.4375-1.8164 6.8164l-80.656 46.566c-2.3828 1.3789-5.4375 0.56641-6.8164-1.8164-1.3789-2.3828-0.56641-5.4375 1.8164-6.8164zm38.766 28.129c0-2.75 2.2305-4.9805 4.9805-4.9805s4.9805 2.2305 4.9805 4.9805v93.133c0 2.75-2.2305 4.9805-4.9805 4.9805s-4.9805-2.2305-4.9805-4.9805zm43.746-19.496c-2.3828-1.3711-3.207-4.4141-1.8359-6.7969 1.3711-2.3828 4.4141-3.207 6.7969-1.8359l80.656 46.566c2.3828 1.3711 3.207 4.4141 1.8359 6.7969-1.3711 2.3828-4.4141 3.207-6.7969 1.8359zm4.9805-47.625c-2.3828 1.3789-5.4375 0.56641-6.8164-1.8164-1.3789-2.3828-0.56641-5.4375 1.8164-6.8164l80.656-46.566c2.3828-1.3789 5.4375-0.56641 6.8164 1.8164 1.3789 2.3828 0.56641 5.4375-1.8164 6.8164zm313.27 346.84c2.2852-1.5312 5.3828-0.91797 6.9141 1.3672s0.91797 5.3828-1.3672 6.9141c-17.441 11.73-38.992 21.801-61.551 30.605-22.43 8.7539-45.84 16.262-67.168 22.91-2.6328 0.82031-5.4297-0.64844-6.25-3.2812-0.82031-2.6328 0.64844-5.4297 3.2812-6.25 21.168-6.5977 44.387-14.043 66.504-22.676 21.988-8.582 42.906-18.336 59.637-29.59zm-567.79 57.414c3.2188-1.1797 6.3945-2.4375 9.5469-3.793l-3.9648-9.1797c-2.9844 1.2812-5.9883 2.4727-9.0391 3.5898zm-118.73 22.969c3.3203-0.37891 6.6367-0.76172 9.9531-1.1562l-1.1797-9.9297c-3.3008 0.39453-6.6094 0.77344-9.9141 1.1523l1.1367 9.9336zm39.828-5.0352c3.3164-0.47656 6.6484-0.96484 9.957-1.5l-1.5664-9.875c-3.2461 0.55078-6.5586 1.0117-9.8203 1.4805l1.4297 9.8984zm39.734-6.9766c3.3008-0.71094 6.5898-1.457 9.8711-2.2539l-2.3555-9.7188c-3.2031 0.77344-6.4102 1.5039-9.6289 2.1953l2.1172 9.7734zm680.57-64.688c-1.5859-2.2422-1.0508-5.3477 1.1914-6.9336 2.2422-1.5859 5.3477-1.0508 6.9336 1.1914 8.1328 11.488 17.82 20.746 27.773 28.234 10.02 7.543 20.305 13.293 29.543 17.73 2.4805 1.1875 3.5312 4.1602 2.3438 6.6406-1.1875 2.4805-4.1602 3.5312-6.6406 2.3438-9.75-4.6836-20.613-10.758-31.223-18.746-10.684-8.0391-21.113-18.016-29.922-30.461zm112.28 67.602c-2.6641-0.69141-4.2656-3.4102-3.5742-6.0742s3.4102-4.2656 6.0742-3.5742c11.422 2.9688 22.742 5.2461 33.59 6.9336 12.102 1.8828 23.672 3.0391 34.176 3.6094 2.75 0.14062 4.8672 2.4844 4.7266 5.2344s-2.4844 4.8672-5.2344 4.7266c-10.754-0.58203-22.66-1.7773-35.191-3.7266-11.199-1.7422-22.855-4.082-34.566-7.1289zm-215.53 146.82c-2.5547-1.0234-3.7969-3.9297-2.7734-6.4844 1.0234-2.5547 3.9297-3.7969 6.4844-2.7734 22.852 9.1406 46.918 15.809 71.391 20.914 24.52 5.1133 49.523 8.6641 74.164 11.562 2.7383 0.3125 4.707 2.7891 4.3945 5.5273-0.3125 2.7383-2.7891 4.707-5.5273 4.3945-24.836-2.9219-50.105-6.5156-75.062-11.719-25-5.2148-49.621-12.039-73.07-21.422zm-226.45-45.473c2.2852-1.5312 5.3828-0.91797 6.9141 1.3672s0.91797 5.3828-1.3672 6.9141c-4 2.6758-8.1016 5.1953-12.281 7.5664-4.2812 2.4258-8.7227 4.7383-13.297 6.9336-2.4805 1.1875-5.4531 0.13672-6.6406-2.3438-1.1875-2.4805-0.13672-5.4531 2.3438-6.6406 4.2539-2.043 8.4844-4.2461 12.672-6.6211 4.0039-2.2695 7.8984-4.6641 11.656-7.1758zm-73.664 31.527c2.6641-0.69141 5.3828 0.91016 6.0742 3.5742 0.69141 2.6641-0.91016 5.3828-3.5742 6.0742-11.711 3.043-23.363 5.3867-34.566 7.1289-12.531 1.9492-24.438 3.1406-35.191 3.7266-2.75 0.14062-5.0938-1.9766-5.2344-4.7266s1.9766-5.0938 4.7266-5.2344c10.504-0.57031 22.074-1.7266 34.176-3.6094 10.848-1.6875 22.168-3.9648 33.59-6.9336zm240.05 26.789c-4.1758-1.3984-6.4297-5.918-5.0312-10.094 1.3984-4.1758 5.918-6.4297 10.094-5.0312l67.469 22.754c4.1758 1.3984 6.4297 5.918 5.0312 10.094-1.3984 4.1758-5.918 6.4297-10.094 5.0312zm68.27-357.41c-3.4688-2.7109-4.0859-7.7188-1.375-11.188 2.7109-3.4688 7.7188-4.0859 11.188-1.375 13.75 10.742 27.164 21.832 39.273 35.133 12.324 13.539 23.266 29.285 31.789 49.102 8.1211 18.875 7.1797 35.793-0.21875 51.023-7.0703 14.551-20.043 27.191-36.531 38.281-17.656 11.875-39.395 22.039-62.125 30.91-22.52 8.7891-45.992 16.316-67.367 22.98-2.9766 0.92969-3.668 1.1328-10.004 3.0977-24.742 7.6758-45.695 14.172-56.867 19.98-11.738 6.1016-19.145 12.395-23.172 18.645-3.957 6.1445-4.5156 12.395-2.7344 18.398 2 6.7344 6.8438 13.426 13.262 19.586 12.543 12.039 30.594 21.598 45.969 25.887 4.2461 1.1719 6.7344 5.5664 5.5625 9.8125s-5.5664 6.7344-9.8125 5.5625c-17.621-4.918-38.34-15.902-52.781-29.766-8.293-7.9609-14.66-16.984-17.512-26.586-3.0703-10.336-2.1328-21.051 4.6094-31.523 5.4922-8.5352 14.887-16.75 29.23-24.207 12.262-6.375 33.945-13.098 59.555-21.043l9.9414-3.0977c21.121-6.5859 44.277-14.012 66.305-22.605 21.82-8.5156 42.547-18.176 59.062-29.285 14.254-9.5859 25.312-20.191 31.031-31.969 5.3906-11.102 6.0039-23.605-0.09375-37.773-7.7539-18.027-17.707-32.352-28.914-44.664-11.426-12.551-24.184-23.094-37.273-33.32zm-463.18 189.88c-4.2969 1-8.5938-1.6719-9.5938-5.9688s1.6719-8.5938 5.9688-9.5938c79.66-18.762 154.93-43.113 226.34-76.562 71.355-33.422 139-75.977 203.54-131.19 13.039-11.152 29.086-16.605 45.07-16.398 16.008 0.21094 31.914 6.0742 44.648 17.559 67.125 60.527 134.56 107.37 202.65 142.56 67.988 35.141 136.71 58.695 206.49 72.688 4.332 0.86328 7.1445 5.0742 6.2812 9.4062s-5.0742 7.1445-9.4062 6.2812c-71.145-14.266-141.25-38.305-210.68-74.188-69.324-35.832-137.89-83.438-206.02-144.87-9.7891-8.8281-21.953-13.336-34.148-13.496-12.215-0.16016-24.5 4.0234-34.504 12.586-65.641 56.156-134.5 99.465-207.16 133.5-72.609 34.008-148.89 58.707-229.46 77.688z"/>
</svg>
