<?xml version="1.0" encoding="UTF-8"?>
<svg width="1200pt" height="1200pt" version="1.1" viewBox="0 0 1200 1200" xmlns="http://www.w3.org/2000/svg">
 <path d="m739.68 275.1-92.449-175.24 192.77 175.24zm-126.35-182.35v182.35h96.199zm-60.566 7.1094-192.76 175.24h100.32zm33.902 175.24v-182.35l-96.199 182.35zm-359.22 282.57h745.1c12.98 0 23.547-9.668 23.547-21.555 0-11.887-10.566-21.555-23.547-21.555l-745.1-0.003906c-12.984 0-23.551 9.668-23.551 21.555 0 11.891 10.566 21.559 23.551 21.559zm672.04 226.4v-199.73h-598.98v199.73zm-672.04 69.777h745.1c12.98 0 23.547-9.668 23.547-21.555s-10.566-21.555-23.547-21.555h-745.1c-12.984 0-23.551 9.668-23.551 21.555s10.566 21.555 23.551 21.555zm778.41 228.71h-106.37v-202.04h-598.98v202.04h-106.37c-6.7891 0-12.348 5.5547-12.348 12.344 0 6.7891 5.5547 12.344 12.348 12.344h811.73c6.7891 0 12.348-5.5547 12.348-12.344 0-6.7891-5.5547-12.344-12.348-12.344zm-729.98-752h24.625v157.34h598.98v-157.34h24.625c7.918 0 14.395-6.4766 14.395-14.395 0-7.918-6.4766-14.395-14.395-14.395h-648.23c-7.918 0-14.395 6.4805-14.395 14.395 0 7.918 6.4766 14.395 14.395 14.395z"/>
</svg>
