<?xml version="1.0" encoding="UTF-8"?>
<svg width="1200pt" height="1200pt" version="1.1" viewBox="0 0 1200 1200" xmlns="http://www.w3.org/2000/svg">
 <path d="m968.26 862.48 3.2656 1.0391 13.691-7.1133-2.6133-10.305h-7.8086l-6.8828-2.8438-2.7695 0.30859-0.96094 4.6914zm-917.99-351.45-3.1172 1-1.1914 0.57812-0.76953 0.84375h-0.074218l-0.61328-3.1133-0.5-4.9219v-14.574l0.65625-5.5391 1.7305-0.61719 1.7305 0.11719 3.3438 2.7305 1.2305 0.57812 1.8047-0.11328 1.3867-0.57812 1.4609-2.3828 0.92188-4.9609v-1.8086l-0.34766-1.7305-1.2695-4.2305 0.69141-1.2695 1.1914-0.69141 1.8047 0.23047 0.96094 0.92188 2.5781 6.8828 1.7305 2.2695 2.5781 1.1523h3.7695l4.6523-1.2656 3.6172-2.2695 1.7305-2.3086 0.42188-1.2656-0.078125-3.6523-1.9609-7.3047-3.1914-8.3828-0.69141-5.1523-0.074219-3.4219 0.42188-1.5 3.5391-4.4609 6.3438-5.2695 2.6914-3.1172 2.3086-3.3047 0.69141-3.4609 0.34766-5.2695 0.5-3.4219 0.11328-3.6523-0.19141-1.9609-0.5-1.3828-1.5781-2.0391-2.3086-1.6133-7.1523-2.7305-2.5781-1.6133-1.8867-1.9609-1.3828-2.2695-0.53906-1.6133-0.5-3.1914 0.26953-1.6133 0.84766-3.1133 2.3438-5.3828 3.1914-4.5742 3.3477-6.3086 1.9609-5.8047 5.3477-10.461 0.5-1.5781 0.80859-2.5352 0.69141-1.2695 0.84375-3.0781 0.61719-1.5 1.5391-2.5 0.42578-1.3867 3.3438-6.3047 1.7305-2.1914 0.61719-1.3477 2.3047-3.5391 6.4609-8.8438-0.69141-3.0781 12.344-1.3828 9.4609-2.3086 3.4609-0.46094 1.9609 0.11328 2.4219 1.6133 3.2695 4.3438 1.1172 0.80859 3 1.0391 1.4609-0.46094 1.8047-2.0781 0.61719-4.9219-0.69141-2.9609-2.5-5.1523 0.078125-1.9609 2.0781-1.8086 1.6562-0.38672 1.5391 0.46094 1.1914 0.80859 1.5781 2.3086 1.0391 3.7695 1.5391 2.3086 1.0391 1.0391 3.1914 0.76953 1.8086-0.11328 2.5781-1.2305 3.9609-3.8047 3-4.9219 1.3828-0.46094 1.6562 0.46094 1.1914 0.69141 0.96094 1.0391 0.5 3.1914-1.8047 4.1523-0.69141 3.1914 0.19141 1.7305 1.2695 2.3828 1.3828 0.69141 5 1.0391 4.5391 1.4609 5.9609 3.9219 4.5 3.4219 1.3477 0.57813h2l1.6133-0.34766 1.3086-0.69141 2.0781-1.8086 2.6523-3.1133 3.4609-6.3047 0.42188-1.4609-0.078126-3.6914 0.23047-1.5742 1.0391-0.92188h1.6523l0.92578 1.0391 0.80859 1.1133 0.69141 3 0.57812 1.3867 0.96094 1 3 1.0391 6.5391 1.5 2 1.9219 3.9609 5.6133 1.1914 0.80859h1.8086l0.61328-1.2695 0.15234-3.7695-0.84375-2.8828-0.34766-3.4219 0.42578-1.2656 0.88281-1.1133 1.6133-0.38672 2 0.11328 2.3828 1.6133 1.9219 1.9609 4.8828 2.9609 1.6523 0.46094 3.4219-0.11719 1.0391-0.92187 0.42188-1.5 0.26953-2.2695-0.69141-3-1.5391-2.3828-2.8477-3.0742-1.5391-2.3086-0.53906-1.3828-0.15234-1.7305 0.23047-1.5742 0.38672-0.73047 0.30859-0.65625 2.2695-1.6133 3.4219-0.46094 3.1914 0.92188 1.8828 1.9609 1.3867 2.0391 0.84375 2.9219 0.039062 1.4609-0.70703 1.3164-1.0391 0.92187-0.69141 1.2695v1.5l0.92578 1 1.8477-0.11328 2.5-1.4609 3.2695-2.5352 2.5-1.5 3.9609-3.7695 2.3828-1.3828 3.4609-0.46094 1.3867 0.57812 3.6914 2.6172 0.078124 0.078125 3.8828 3.6523 2.3086 1.6133 2.3438 3.4219 3.6133 9.5 1.8867 7.4609 1.1133 2.7695 1.5781 2.2695 0.5 1.3828 0.76953 1.1523 1.9219 2 2.1172 1.6523 4.5742 1.5 2.0781 0.11328 1.5391-0.34375 7.5-0.34766 1.6133-0.34766 4.9219-2.7695 1.0391-0.88281 2.6523-1.2695 1.6562-0.34766 3.7695 0.34766 3.1914 0.80859 2.7695 1.2305 3.1914 0.92578 6.9609 1.1523 6.3086 1.7305 2.5781 1.4609 4.0781 5.7695 3.5781 2.6172 4.1133 1.2656 3.6523 1.1562 2.7305 1.1172 5.3438 2.7695 8.1914 5.5 1.8047 0.34375 1.6133-0.34375 2.6914-3.1172 2.5-1.4609 3-0.80859 3.8828 0.11328 1.3828 0.69141 1.7305 2.0391 1 2.7695 3.457 13.258 0.76953 1.1562 2.5 1.5 3.6133 0.46094 3.1914 0.92187 2.7305 1.2305 9.8438 4.1133 4.3086 1.7305 6.5391 1.6133 5.8438 0.34766 5.4219-0.34766 4.6523-1.1523 4.9219-2.7305 3.1172-0.92188 3.2656-2.4219 6.8086-9.0391 4.0391-3.7695 1.9609-3.9219 1.5781-4.2305 1.3828-2.6133 2.9219-2.8477 1.2695 0.19531 2.9219 2.3047 2.6172 1.4609 1.6914 0.23047 1.4609-0.46094 2.5-1.4609 1.6523-0.23047 2.7305 1.0391 3.4609 2.6133 2.9219 2.8828 1.0391 2.7305 0.078125 1.7305-0.23047 1.4609-1.0391 1.0391-0.69141 1.3828-0.26953 1.6172 2.1523 1.8047 9.7305 2.3086 5.5391 0.57813 10.309 2.2695 5.9609 2.1914 5.5781 4.2305 1.6133 0.69141 3.5781 0.23047 1.6133-0.23047 2.6523-1.0391 6.8086-5.0391 2.6914-1.1523 3.2695-0.65234 3.7695 0.34375 3.0391-0.80859 1.0391-0.80859 1.6914-2.3086 2.2695-3.6523 1.0391-0.92578 2.4609-1.3828h7.4219l10.5-1.0391 7.3477-2.3867 1.5391-0.11328 1.6523 0.69141 4.6133 3.1914 10.422 3.6914 2.1523 1.5781 3.3828 4.5781 1.1172 0.57812 2.0781 0.34766 4.9609-0.80859 4.1523-1.6914 7.6523-1.5 9.2305-3.6523 0.57812-0.23047 1.6523 0.46094 4.8086 3.0742 1.6523-0.34375 0.84766-1.0391 0.53516-1.4609 0.078125-1.9609 0.42578-1.5 0.88281-1.2695 1-0.65234 1.6562-0.46094 3.6133-0.23047 9.4609-0.11328 5.4609 0.57812 1.6914 0.46094 5.4219-0.23047 1.6562 0.23047 9.5742 3.6523-0.11328 3.7695 0.34375 1.5 0.76953 1.1523 1.5742 0.46094 3.7695-0.11328 4.3086-1.5 6.3086-1.5 15.844 0.69141 3.3438 0.69141 1.3867 0.69141 0.92188 0.92188 2.4219 3.3086 2.1523 1.8477 1.3086 0.69141 3.7695 0.34766 1.6523 0.42188 1.1172 0.80859 1.7305 2.1914 0.69141 4.8086 0.5 1.2656 0.96094 1.0391 1.2305 0.76953 2.1914 0.57812 0.69141 0.61719 1.9609 0.11328 3.3086-0.61328 3.6914-2.0391 3.5391-2.3086 1.8867-2.0781 4.5-3.3086 7.8047-3.7695 3.5391-2.3086 2.8477-0.92188 5.0742-0.69141 1.3828-0.42187 0.96094-1.1562 0.23047-1.6133-0.34375-1.6133 0.19141-1.8047 0.42578-1.5 0.96094-1.1562 2.2305-1.6133 1.4609-0.42188 5.2305-0.46094 1.6562-0.34766 1.1914-0.69141 2.1523-1.7305 1.3086-2.6172 1.9609-1.9609 1.6562-0.23047 5.1523 1.0391 3.8086 0.34375 18.496-2.9609 3.2656 0.34375 1.3867 0.65625 5 1.2656 7.5-2.0781 3.9609-1.8047 3.4609-0.46094 3.3477 0.80859 7.2305 2.8477 5.5781 0.69141 7.3047-0.38281 1.8477 2.2305 1.5391 0.46094 3.4609-0.34375 1.3828 0.23047 1.3477 0.65234 1.8047 0.23047 1.5-0.46094 1.6914 0.23047 1.7305 2.1914 2.6914 1.3867 2.1523 1.8047 1.5391 4.0391 0.76953 2.8477 0.76953 1.1523 0.96094 1.0391 2.9219 1.1562 5.1523 0.19141 2.4258-2.9609 1.6133-0.34375 1.3828 0.69141 2.1523 3.0742 1.3828 0.69141 3.1914 0.23047 3.4219-0.46094 4.3438 1.8438 2.8086-0.57812 2-2.0781 1.3828-0.42578 1.8086-0.11328 1.2695-0.69141 0.42187-1.0391 1.4609-0.46094 1.3828 0.57812 4.9219-0.80859 2.9219 1.1523 0.88281 0.92188 1.4648 2.3828-0.11719 1.5-3.0742 4.6914-0.53906 1.5-0.078125 1.9219 1.1914 6.0781 0.26953 4.3867 0.96094 4.5742 1.0391 2.7305 3.6133 2.3086 1.5391 0.46094 4.0391 0.23047 1.5781 0.42188 2.3086 1.7305 0.84375 0.92188 1.3086 2.5391 0.26953 1.5742-0.19531 5.5 0.57812 0.73047h-0.078125l-0.80859-0.11328-3.8086-4.7695-2.6523-1.5781-2.3086-4.5742-1.8086 1.1133-4.5 0.11719-2.5352 4.6133-4.5 0.88281-1.6172 1.1914-0.078126 3.1914h0.039063l0.88281 0.38672 1.3828-0.92187 0.26953 2.7695 2.4219-1.5781 0.078125 1.6914-2.9609 3.7305-1.6562 3.4609-5.6914 19.957-2.0352 11.113 0.078125 1.6914 0.42188 9.9219-0.61719 2.3438 2.2305 4.0781 1.4219 9.6914 2.3086 4.7305-0.84766 1.7695 2.6172 4.9609-1.5 0.84766 2.9219 3.0352-0.26953-1.9609 1.5391-3 1.0391 0.38281 0.23047 0.65625-0.92188 3.1914 0.84375 2.8477 0.88281 0.23047v-0.039063l0.34766-3.8438 2.4219 4.4609 0.80859 4.3867-4.3438 30.035 0.57813 8.2266 0.23047 3.3086 2.9219 14.688 6.4609 16.805 2.5781 4.9609 1.3828 6.9219 0.53906 4.3438-0.46094 7.8438-2.5742 1.9219 0.57813 0.57812 1.5781-0.42188 1.1914 0.96094 6.6523 15.574 1.3828 4.3828 2.2305 14.77 0.11328 2.0391 1 2.1133 6.9219 14.961 6.9609 7.7695 3.9609 6 7.0352 8.0352-0.61328 0.84766 3.5 2.1523 2.0391 2.1133 7.3477 7.8828 2.1914 3.0391 19.613 19.73 1.9219 1.1523 2.1523 0.30859 5.1133 1.0391 0.34766 2.3828 3.1523 4.8828 0.92578 1.4219 6.3438 6.7305 2.1914 3.4609 1.6523 0.76953 4.7305 4.3438 5.2305 5.3477 4.8828 4.9219 3.1562 3.2305 9.7266 4.8086 4.1953 1.8047 5.8047 0.80859 0.03125 0.011719-1.3867 5.1133-1.3828 2.7695-2.0039 5.9609-0.57422 3.3086-0.26953 3.5742 0.26953 1.5781 0.76953 2.8828 0.76562 1.1172 0.42578 1.3828-0.76953 3.2305-2.3438 5.1562-1.5391 2.6133-2.1484 1.8438-7.7344 3.4219-1.0352 1.1562-1.3867 2.2695-1.1172 3-1.3828 2.4258-2.6562 1.2305-7.0742-0.88281-6.8828 0.65234-1.5391-0.57812-1.1523-0.76953-0.65234-1.1523-0.88672-2.8828-0.34375-3.1914-1.0352-2.7305-0.23438-1.3828-1.3828-2.5391-2.5781-3.4219-1.9219-3.6914-0.92188-1-1.3086-0.57813h-1.8086l-1.3828 2.6172-1.2695 4.6172-1.3828 2.5-1.0391 0.92187-1.3867 0.46094-1.5391-0.47266-0.96094-0.92188-0.69141-1.2695-0.23047-1.4609 0.23047-1.7305 1.0391-3 0.078126-1.8086-1.1914-2.4219-3.3477-2.6172-11.844-5.1523 0.23047-0.42188 0.46094-1.1562-0.23047-0.76953 2.6914-6.6133 0.30859-0.76953 0.11719-1.7695 0.11328-0.80859-2.4219-3.6523-0.5-1.3086-0.078125-1.3438 0.30469-1.8477 0.88281-2.4609 0.96094-1.5781 2.6562-4.5352 0.65234-0.69141-1.3086-1.3086-0.42188-0.38672-1.5 0.46094-2.2695 0.76953-1.4219 0.96094-1.7695 0.92188-3.2305 1.2695-1.9609 1.3828-2.2305 1.2695-0.76953 0.80859-2.8086 3.4609-3.2695 2.5-2.4609 1.1914-0.34766 0.19141-3.7695 0.73047-0.73047 0.15234-1.1133 0.96094-0.88281 0.76953-1.8477 0.92187-1.1523 2 1.8477 5.6133 0.039062 1.6133v0.69141l-1.3477 3.8867 0.92188 3.5391 0.80859 1.5781 0.80859 0.38672 1.1172 0.46094-1.1562 3.6523c1.0781 1.9609 2.4258 3.8047 3.3867 5.8477 1.5 2.0781-0.34766 2-2.0391 1.8438-2.1133-0.078125-3.9609-1.6914-6.0391-1.7695-1.4609 1.3477-2.1133 0.26953-2.5781-1.3477-0.38672-3.6523-3.6133-0.96094-5.7695-0.61719-2.5391 1.3867-4.8477 3.3086-7.2305 4.9219-2.5391 1.4609-1.9609 5.2695-1.8477 7.7695 0.38672 2.3086-1.1914 4.4609-1.6914 6.6914-0.92188 2.0391-0.96094 4.6523-2.8828 6.0742-2.3828 2-4.7656 4.0781-5.3438 7.3047-2.3086 1.8086-6.0391 2.1523-8.9219 3.2305-1.4609 1.6914 0.039062 4 0.46094 5.8438 0.5 2.0781-0.5 4.1523-1 6.1914l-1.4609-0.30859-1.8047 0.11328-1.1914 0.69141-2.6172 3.3086-1.3477 0.46094-1.8047 0.11719-6.5742-1.5781-1.8086 0.078125-1.3477 0.46094-2.1523 1.8477-3.8867 5.7305-1.0391 0.92187-1.5391 0.34375-3.3828-0.80859-6.1172-5.6133-1.1133-0.80859-3.0742-1.3828-5.1133-0.69141-3.1523 0.57812-2.4219 1.3828-1.5 0.38672-1.6133 0.86328-1.1133 0.61328-4.6523 1.0391-3.2695-0.46094-8.6914-3.4609-6.9609-1.1523-9.2305-1-3.2656-0.92188-2.6562-1.2695-4.5781-3.3047-4.5742-5.0391-5.0742-4.6172-6.4609-3.4219-6.1914-1.8086-15.5-1.0391-3.3438-0.57812-1.3086-0.57813-3.4609-2.6523-2.5742-2.9609-2.3086-3.5391-3.0391-2.8828-1.2695-0.80859-4.3047-1.5-1.3086-0.88281-5.4219-2.3086-2.4258-1.5-4.3828-3.4219-2.8828-3.2656-0.53906-0.84766 0.15234-3.7695 0.53906-1.5 0.078125-5.4961 0.34375-1.8477-0.26953-3.4219-0.84766-1.0391-1.3828-0.57812-1.8086-0.34766-1.7305 0.11719-1.5391-0.46094-0.76953-1.1523-0.11719-1.9219 0.61719-3.1133 1.4609-4.4609-0.34766-1.6133-3.8867-3.7695-5.5-4.2305-2.8477-3-0.26953-1.4609 0.80859-3.2305 0.078124-1.9219-0.53906-4.9219 0.34766-1.6133 1.0391-0.92188 7.3438-0.23047 2.2305-1.7305 1.2695-2.3828 3.6133-4.3438 0.34375-1.8477-0.33594-1.3945 0.53906-1.4609 2.9219-3.1172 4.7305-6.8828 1.3086-4.4609 0.078126-1.9219-0.34766-1.5 0.15234-1.9609 2.9609-2.8438 2.5-3.1172 0.5-1.4609 0.078126-1.8477-1.3867-2.3086-1.3477-0.65234-1.5742-0.46094-4.4219 0.53906-5.5391 1.0391-5.5391-0.57812-2.6523 1.2695-3.1172 2.6523-2.5 1.5781-4.2305 1.0391-2.9219-1.0391-1.1172-0.76953-1.8867-2.0742-2.6523-1.2695-1.7305-0.23047-6.0391 1.6133-1.3828-0.69141-0.92188-1.1523 0.92188-2.9609 6.1133-5.6133 1.1172-2.5391 0.078125-1.9219-0.23047-1.5-1.8828-1.9609-2.7695-1.3477-4.6523-1.3828-1.9961-0.003906-1.3477 0.46094-2.3438 1.5742-1.1133 2.7695-1.1914 0.69141-12.113-0.11719-4.9609-0.34375-1.5391-0.46094-1.1172-0.80859-2.1523-3.5391-0.42187-3.2305-0.53906-1.3438-0.92188-1.1562-3.0391-2.4219-4.4609-1.6914-3-2.8828-0.34766-1.5 0.23047-3.7695-1.7305-2.1523-3.7695-2.3086-5.4219-2.5352-1.3828-0.46094-1.9609-0.11328-2.5 1.6133-1.4609 2.1914-2.5 5.3828-1.6523 2.1523-1.3086 0.69141-3.3477-0.11719-1.2695-0.65234-3.1914-0.96094-3.5391 0.26953-0.69141 1.4609-0.078125 1.9609-3.2656 4.4609-1.8086 2.0781-3.1914 2.6172-3.6914 3.9961-3.5391 2.3086-3.0391 0.80859-1.8086 0.11719-1.9609-0.34766-14.305 0.92188-2.7695 0.92188-1 0.88281-0.88281 1.2656-0.5 1.3867 0.15234 1.7305 1.2305 2.5 1.8867 1.9609 2.6523 1.2305 8.8047 3.2305 4.0391 2.3047 1.1914 2.2695-0.42188 1.5-0.84766 1.1562-1.2305 0.69141-6.3438 1.2305-5.4609 0.11328-14.805-3.4219-5.5-0.57812-5.6914 1.9609-2.8438 1.4609-1.3477 0.23047-5.2695 2.4219-3.0391 0.80859-3.3477 0.46094-5.5742 0.11719-6 0.88281-4.0781 0.11328-1.5781-0.46094-3.8438-2.1523-2.0781-1.6133-0.76953-1.2695-0.34766-1.4609 0.074219-1.8438 0.5-1.5 0.69141-1.3438 3.4609-2.6562 1.7305-2.0742-0.19141-1.5781-2.0781-1.8477-1.5391-0.46094-6.6133-0.34375 0.42188 3.2305-0.26953 1.6914-0.69141 1.2695-1.6133 2.1914-2.2305 1.5781-0.88281 1.1523-2.6523 5.1523-1.6523 2.1914-1.0391 0.92578-3.4219 4.3438-3.8867 3.7695-1.1172 2.8828-0.84375 1-10.539-5.2656-2.3828-3.3086-1.2305-1.0391-2.5-1.2656-3.5391-0.42578-2.4609-1.5-0.96094-0.92187-2.9219-4.9219-1.1133-0.80859-1.5781-0.46094-4.1133-0.11719-3.1914-0.69141-1.3828-0.80859-5.9219-3.6523-5.5391-4.2305-8.0781-9.0742-1.1914-0.76953-3.3047-0.69141-12.73 0.57812-10.344 1.1133-1.3477 0.46094-1.2305 0.80859-1.4609 0.46094-2.0781 1.8477-2.1523 5.5-2.5781 3.3047-1.1523 1.0391-3.3086 2.1953-1.5781 0.34375-1.9609-0.11328-3.1914-0.80859-3.6172-2.3047-4.9219-4.9219-6.9609-4.5781-1.8828-2.1914-5.4219-7.5352-1.1172-1.0391-3.4609-2.1914-1.8867-1.9219-1.3086-2.5352-0.69141-2.9609 0.19531-7.5781-0.34766-1.3828-1.7305-1.1914-3.6914-1.4219-11.535-0.11328-1.7305-0.23047-2.9219-1.2695-3.1172-2.5391-1.8867-2.3828-6.4609-10.191-1.8867-1.9609-2.6172-1.4609-6.9609 0.65234-3.9609-0.11719-3.1133-1-3.6914-2.0781-3.5391-0.11328-2.2305 1.8477-4.4609 2.8438-2.8477 1.0391-2.2695-0.19141-2.6523-0.96094-1.1133-0.80859-2.9219-3.0781-2-3.5391-1.6914-2.0781-0.80859-1.3828-1.1133-6.0781-1.7305-2.1523-2.9219-1.0391-7.3047-0.80859-4.0391-1.8438-1.2305-0.80859-3.7695-3.7695-4.2305-3.3047-1.8828-0.69141-10.078 1.2695-2.9219-1.2695-2.3438-1.6133-2.8438-2.7305-2.6523-3.1172-1.3086-2.5-1.6914-2.1914-2.1523-1.9219-2.0781-1.6133-9.6523-5.3828-2.5781-1.9609-2-1.9219-0.42578-3.2305 0.61719-1.5 4.3828-2.1133 0.69141-0.38672 0.84766-1.2695 0.46094-1.3828-0.11719-1.6914-0.57812-1.2695-1.3086-1.4219-3.0781-2-4.1523-1.8477-9.7305-5.9609-5.5-2.3828-7.8438-2.4219-10.074-1.9609-3.7891-0.011719-3 1.0391-2.6523 1.1523-2.2695 1.6133-3.6914 4-1.6133 2.1914-1.4609 2.6172-4.2305 5.3828-5.7695 5.8438-5 6.6523-1.3086 2.6172-0.92187 4.8086-0.80859 1.1523-2.4609 1.3867-4.5781 1.2656-2.6914 1.3477-6.6914 0.92578-2.5 1.5-1.4609 2.3828v1.8477l1.0781 2.2305-3.0781-2.2305-1.9609-1.9219-0.69141-1.1523-0.96094-3.1172 0.19531-3.5391-0.76953-3.0781-1.3086-2.4219-2.0781-1.8438-2.3867-1.5781-4.3086-1.7305-10.691-6.7695-1.3828-0.46094-1.8086 0.11328-4.0391 1.8477-1.7305 0.11328-3.3477-0.69141-2.8438-1.9219-2.6914 1.2305-5.3477 0.34766-1.8086-0.23047-4.3086-1.6172-1.4609 5.0391-2.7305 0.92578-4.7305 3.1133-1.3828 0.46094-1.8086-0.23047-1.3086-0.57812-2.5-0.19141-2.7305 0.65234-1.7188-0.11719-1.0391-0.92188-0.53906-1.3867 0.26953-1.8477 1.1133-4.6914 1.5781-4.6914 0.92188-4.3438 0.42188-3.3086 2-5.8477 1.0391-0.92188 4.8086-0.92188 1.3828-0.80859 1.8867-1.8477 1.4609-2.3828 1.1523-4.6914 0.76953-5.0391 0.34375-5.6133-0.80859-6.6523-0.73047-3.9609-1.0781-1.7695-2.1133-1.9609-4.3047-1.457-7.4219-0.69141-3.6914-2.1914-0.76953-1.1172-2.6172-6.8828-2.0391-1.8477-2.0781 0.11328-1.2305 0.80859-3.0781 4.4609-1.8828 1.9609-1.5781 0.34766-5.5781 0.23047-1.8047-0.23047-2.7695-1.1562-5-4.9219-3.3477-2.5391-5.0742-2.9609-4.1523-1.3828-1.8008-0.23047-1.3828 0.46094-3.2695 2.7305-1.1914 0.57813-1.8086 0.11719-1.3828-0.53906-2.1523-1.7305-1.8867-3.9219-0.96094-0.88281-1.3828-0.57812-1.9648-0.11719z"/>
</svg>
