<?xml version="1.0" encoding="UTF-8"?>
<svg width="1200pt" height="1200pt" version="1.1" viewBox="0 0 1200 1200" xmlns="http://www.w3.org/2000/svg">
 <path d="m422.4 427.2c21.602 0 42-8.3984 58.801-22.801 36 30 82.801 30 118.8 0 36 30 82.801 30 118.8 0 18 14.398 38.398 22.801 58.801 22.801 10.801 0 20.398-9.6016 20.398-20.398 0-10.801-9.6016-20.398-20.398-20.398-19.199 0-34.801-13.199-43.199-24-3.6016-4.8008-9.6016-7.1992-15.602-7.1992s-12 2.3984-15.602 7.1992c-9.6016 10.801-24 24-43.199 24s-34.801-13.199-43.199-24c-7.1992-9.6016-22.801-9.6016-31.199 0-9.6016 10.801-24 24-43.199 24-19.199 0-34.801-13.199-43.199-24-7.1992-9.6016-22.801-9.6016-31.199 0-9.6016 10.801-24 24-43.199 24-10.801 0-20.398 9.6016-20.398 20.398-0.007812 10.801 7.1953 20.398 17.992 20.398z"/>
 <path d="m422.4 535.2c21.602 0 42-8.3984 58.801-22.801 36 30 82.801 30 118.8 0 36 30 82.801 30 118.8 0 18 14.398 38.398 22.801 58.801 22.801 10.801 0 20.398-9.6016 20.398-20.398 0-10.801-9.6016-20.398-20.398-20.398-19.199 0-34.801-13.199-43.199-24-3.6016-4.8008-9.6016-7.1992-15.602-7.1992s-12 2.3984-15.602 7.1992c-9.6016 10.801-24 24-43.199 24s-34.801-13.199-43.199-24c-7.1992-9.6016-22.801-9.6016-31.199 0-9.6016 10.801-24 24-43.199 24-19.199 0-34.801-13.199-43.199-24-7.1992-9.6016-22.801-9.6016-31.199 0-9.6016 10.801-24 24-43.199 24-10.801 0-20.398 9.6016-20.398 20.398-0.007812 10.801 7.1953 20.398 17.992 20.398z"/>
 <path d="m422.4 643.2c21.602 0 42-8.3984 58.801-22.801 36 30 82.801 30 118.8 0 36 30 82.801 30 118.8 0 18 14.398 38.398 22.801 58.801 22.801 10.801 0 20.398-9.6016 20.398-20.398 0-10.801-9.6016-20.398-20.398-20.398-19.199 0-34.801-13.199-43.199-24-3.6016-4.8008-9.6016-7.1992-15.602-7.1992s-12 2.3984-15.602 7.1992c-9.6016 10.801-24 24-43.199 24s-34.801-13.199-43.199-24c-7.1992-9.6016-22.801-9.6016-31.199 0-9.6016 10.801-24 24-43.199 24-19.199 0-34.801-13.199-43.199-24-7.1992-9.6016-22.801-9.6016-31.199 0-9.6016 10.801-24 24-43.199 24-10.801 0-20.398 9.6016-20.398 20.398-0.007812 10.801 7.1953 20.398 17.992 20.398z"/>
 <path d="m422.4 751.2c21.602 0 42-8.3984 58.801-22.801 36 30 82.801 30 118.8 0 36 30 82.801 30 118.8 0 18 14.398 38.398 22.801 58.801 22.801 10.801 0 20.398-9.6016 20.398-20.398 0-10.801-9.6016-20.398-20.398-20.398-19.199 0-34.801-13.199-43.199-24-3.6016-4.8008-9.6016-7.1992-15.602-7.1992s-12 2.3984-15.602 7.1992c-9.6016 10.801-24 24-43.199 24s-34.801-13.199-43.199-24c-7.1992-9.6016-22.801-9.6016-31.199 0-9.6016 10.801-24 24-43.199 24-19.199 0-34.801-13.199-43.199-24-7.1992-9.6016-22.801-9.6016-31.199 0-9.6016 10.801-24 24-43.199 24-10.801 0-20.398 9.6016-20.398 20.398-0.007812 10.801 7.1953 20.398 17.992 20.398z"/>
 <path d="m1159.2 795.6h-67.199l-96-433.2c-1.1992-4.8008-6-8.3984-10.801-8.3984l-130.8-0.003906c-6 0-10.801 4.8008-10.801 10.801v430.8h-487.2v-430.8c0-6-4.8008-10.801-10.801-10.801h-130.8c-4.8008 0-9.6016 3.6016-10.801 8.3984l-96 433.2h-67.199c-6 0-10.801 4.8008-10.801 10.801v28.801c0 6 4.8008 10.801 10.801 10.801h1118.4c6 0 10.801-4.8008 10.801-10.801v-28.801c0-6.0039-4.8008-10.801-10.801-10.801z"/>
</svg>
