<?xml version="1.0" encoding="UTF-8"?>
<svg width="1200pt" height="1200pt" version="1.1" viewBox="0 0 1200 1200" xmlns="http://www.w3.org/2000/svg">
 <path d="m606 661.72-10.289 36.547-36.605 10.348 36.605 10.348 10.289 36.547 10.348-36.547 36.605-10.348-36.605-10.348z"/>
 <path d="m511.24 351.43-12.234 43.457-43.527 12.305 43.527 12.305 12.234 43.457 12.305-43.457 43.527-12.305-43.527-12.305z"/>
 <path d="m177.95 453.32-7.7891 27.668-27.711 7.8359 27.711 7.8359 7.7891 27.668 7.8359-27.668 27.711-7.8359-27.711-7.8359z"/>
 <path d="m398.25 481.59 10.289 36.547 36.605 10.348-36.605 10.348-10.289 36.547-10.348-36.547-36.605-10.348 36.605-10.348z"/>
 <path d="m673.46 854.97 12.234 43.457 43.527 12.305-43.527 12.305-12.234 43.457-12.305-43.457-43.527-12.305 43.527-12.305z"/>
 <path d="m712.49 738.07 7.7891 27.668 27.711 7.8359-27.711 7.8359-7.7891 27.668-7.8359-27.668-27.711-7.8359 27.711-7.8359z"/>
 <path d="m932.59 257.59-10.289 36.547-36.605 10.348 36.605 10.348 10.289 36.547 10.348-36.547 36.605-10.348-36.605-10.348z"/>
 <path d="m359.98 633.77-12.234 43.457-43.527 12.305 43.527 12.305 12.234 43.457 12.305-43.457 43.527-12.305-43.527-12.305z"/>
 <path d="m1007.7 147.37-7.7891 27.668-27.711 7.8359 27.711 7.8359 7.7891 27.668 7.8359-27.668 27.711-7.8359-27.711-7.8359z"/>
 <path d="m770.23 288.39 10.289 36.547 36.605 10.348-36.605 10.348-10.289 36.547-10.348-36.547-36.605-10.348 36.605-10.348z"/>
 <path d="m996.5 381.1 7.7891 27.668 27.711 7.8359-27.711 7.8359-7.7891 27.668-7.8359-27.668-27.711-7.8359 27.711-7.8359z"/>
 <path d="m840.68 510.76-7.7891 27.668-27.711 7.8359 27.711 7.8359 7.7891 27.668 7.8359-27.668 27.711-7.8359-27.711-7.8359z"/>
 <path d="m636.86 316.49-7.7891 27.668-27.711 7.8359 27.711 7.8359 7.7891 27.668 7.8359-27.668 27.711-7.8359-27.711-7.8359z"/>
 <path d="m734.42 402.3-12.234 43.457-43.527 12.305 43.527 12.305 12.234 43.457 12.305-43.457 43.527-12.305-43.527-12.305z"/>
 <path d="m789.39 625.63 12.234 43.457 43.527 12.305-43.527 12.305-12.234 43.457-12.305-43.457-43.527-12.305 43.527-12.305z"/>
 <path d="m519.26 535.29-12.234 43.457-43.527 12.305 43.527 12.305 12.234 43.457 12.305-43.457 43.527-12.305-43.527-12.305z"/>
 <path d="m566.66 801.51-7.7891 27.668-27.711 7.8359 27.711 7.8359 7.7891 27.668 7.8359-27.668 27.711-7.8359-27.711-7.8359z"/>
 <path d="m408.5 811.45 10.289 36.547 36.605 10.348-36.605 10.348-10.289 36.547-10.348-36.547-36.605-10.348 36.605-10.348z"/>
 <path d="m696.89 569.1-7.7891 27.668-27.711 7.8359 27.711 7.8359 7.7891 27.668 7.8359-27.668 27.711-7.8359-27.711-7.8359z"/>
 <path d="m260.94 776.53 10.289 36.547 36.605 10.348-36.605 10.348-10.289 36.547-10.348-36.547-36.605-10.348 36.605-10.348z"/>
 <path d="m142.03 819.57 7.7891 27.668 27.711 7.8359-27.711 7.8359-7.7891 27.668-7.8359-27.668-27.711-7.8359 27.711-7.8359z"/>
 <path d="m266.69 532.63-7.7891 27.668-27.711 7.8359 27.711 7.8359 7.7891 27.668 7.8359-27.668 27.711-7.8359-27.711-7.8359z"/>
 <path d="m957.68 554.96 10.289 36.547 36.605 10.348-36.605 10.348-10.289 36.547-10.348-36.547-36.605-10.348 36.605-10.348z"/>
 <path d="m783.55 927.73-7.7891 27.668-27.711 7.8359 27.711 7.8359 7.7891 27.668 7.8359-27.668 27.711-7.8359-27.711-7.8359z"/>
 <path d="m910.87 691.96-7.7891 27.668-27.711 7.8359 27.711 7.8359 7.7891 27.668 7.8359-27.668 27.711-7.8359-27.711-7.8359z"/>
 <path d="m614.89 481.67 7.7891 27.668 27.711 7.8359-27.711 7.8359-7.7891 27.668-7.8359-27.668-27.711-7.8359 27.711-7.8359z"/>
 <path d="m405.73 292.4-7.7891 27.668-27.711 7.8359 27.711 7.8359 7.7891 27.668 7.8359-27.668 27.711-7.8359-27.711-7.8359z"/>
 <path d="m483.14 692.72-7.7891 27.668-27.711 7.8359 27.711 7.8359 7.7891 27.668 7.8359-27.668 27.711-7.8359-27.711-7.8359z"/>
 <path d="m857.9 381.04-7.7891 27.668-27.711 7.8359 27.711 7.8359 7.7891 27.668 7.8359-27.668 27.711-7.8359-27.711-7.8359z"/>
 <path d="m577.27 981.63-7.7891 27.668-27.711 7.8359 27.711 7.8359 7.7891 27.668 7.8359-27.668 27.711-7.8359-27.711-7.8359z"/>
 <path d="m215.76 938.35 7.7891 27.668 27.711 7.8359-27.711 7.8359-7.7891 27.668-7.8359-27.668-27.711-7.8359 27.711-7.8359z"/>
 <path d="m1068 620.79-7.7891 27.668-27.711 7.8359 27.711 7.8359 7.7891 27.668 7.8359-27.668 27.711-7.8359-27.711-7.8359z"/>
 <path d="m692.1 189.92-7.7891 27.668-27.711 7.8359 27.711 7.8359 7.7891 27.668 7.8359-27.668 27.711-7.8359-27.711-7.8359z"/>
 <path d="m82.902 529.22-7.7891 27.668-27.711 7.832 27.711 7.8359 7.7891 27.668 7.8359-27.668 27.711-7.8359-27.711-7.832z"/>
 <path d="m461.78 171.06-7.7891 27.668-27.711 7.8359 27.711 7.8359 7.7891 27.668 7.8359-27.668 27.711-7.8359-27.711-7.8359z"/>
 <path d="m1091.9 313.08 7.7891 27.668 27.711 7.8359-27.711 7.8359-7.7891 27.668-7.8359-27.668-27.711-7.8359 27.711-7.8359z"/>
</svg>
