<?xml version="1.0" encoding="UTF-8"?>
<svg width="1200pt" height="1200pt" version="1.1" viewBox="0 0 1200 1200" xmlns="http://www.w3.org/2000/svg">
 <g>
  <path d="m662.32 41.344c-2.5625-23.125-29.453-41.344-62.309-41.344-32.859 0-59.754 18.219-62.305 41.348 18.543-10.055 39.762-15.77 62.305-15.77 22.527 0 43.762 5.7148 62.309 15.766z"/>
  <path d="m479.46 105.05c-19.059 3.582-33.73 25.227-33.73 51.461 0 26.113 14.535 47.672 33.465 51.406-6.6797-15.727-10.383-33.004-10.383-51.141 0-18.363 3.8047-35.848 10.648-51.727z"/>
  <path d="m720.83 207.92c18.934-3.7383 33.465-25.293 33.465-51.406 0-26.234-14.66-47.879-33.73-51.461 6.8438 15.887 10.648 33.363 10.648 51.727 0.003906 18.129-3.6992 35.414-10.383 51.141z"/>
  <path d="m427.39 717.73c-1.9297-31.293-2.8047-59.871-2.8047-85.957-0.125-103.07 13.926-166.48 29.648-204.02v203.16h291.56v-203.06c1.7539 4.1836 3.5039 8.6992 5.2188 13.566 13.543 38.535 24.438 99.059 24.398 190.36 0.007813 26.09-0.875 54.672-2.7812 85.977-1.3164 21.43 14.996 39.867 36.426 41.172 0.80859 0.046875 1.6055 0.074219 2.4023 0.074219 20.395 0.003906 37.508-15.871 38.777-36.5 2.0039-32.754 2.9258-62.902 2.9258-90.723-0.17188-148.15-25.957-230.75-60.855-279.96-8.3516-11.711-17.32-21.266-26.375-29.012-18.09 22.301-47.52 56.504-82.098 88.699v146.11c0 10.734-8.7031 19.438-19.438 19.438h-128.77c-10.734 0-19.438-8.7031-19.438-19.438v-146.1c-34.582-32.199-64.016-66.402-82.098-88.707-18.422 15.828-36.48 39.371-50.609 72.66-21.898 51.129-36.578 125.06-36.637 236.32 0 27.82 0.92969 57.988 2.9453 90.738 1.2812 20.613 18.398 36.48 38.777 36.48 0.79688 0 1.6055-0.023438 2.4219-0.074219 21.43-1.3203 37.727-19.762 36.406-41.191z"/>
  <path d="m454.23 687.6v446.81c0 36.234 29.383 65.59 65.602 65.59 36.227 0 65.602-29.355 65.602-65.59v-350.84h29.156v350.84c0 36.234 29.383 65.59 65.602 65.59 36.227 0 65.602-29.355 65.602-65.59v-446.81z"/>
  <path d="m482.31 319.87c16.316 18.945 37.156 41.531 59.953 62.809h115.5c30.551-28.504 57.438-59.312 74.91-80.617-2.1836-0.91406-4.3203-1.7344-6.3945-2.4648-6.375-3.6211-13.902-5.75-21.988-5.7734 0.60547-1.8711 1.0156-3.8281 1.0156-5.8984v-22.672c0-7.6797-4.4883-14.258-10.961-17.41-23.871 24.715-57.328 40.141-94.332 40.141-37.004 0-70.449-15.418-94.328-40.148-6.4648 3.1602-10.953 9.7344-10.953 17.41v22.672c0 2.0703 0.40625 4.0273 1.0117 5.8984-8.0781 0.023438-15.59 2.1484-21.965 5.7617-2.0977 0.73047-4.2461 1.5547-6.4453 2.4727 4.4219 5.3984 9.4414 11.395 14.98 17.82z"/>
  <path d="m600.01 278.27c67.094 0 121.48-54.383 121.48-121.48 0-67.094-54.391-121.48-121.48-121.48s-121.48 54.391-121.48 121.48c0 67.098 54.391 121.48 121.48 121.48zm-72.891-121.47c0-7.7344 1.2344-15.176 3.4727-22.18l22.168 22.172-22.168 22.172c-2.2383-6.9961-3.4727-14.438-3.4727-22.164zm36.484-63.051 26.098 26.109-26.629 26.629-26.109-26.109c6.4023-11.039 15.602-20.234 26.641-26.629zm99.453 26.629-26.109 26.109-26.629-26.629 26.109-26.105c11.035 6.3945 20.234 15.59 26.629 26.625zm-26.629 99.461-26.109-26.109 26.629-26.629 26.109 26.109c-6.3945 11.035-15.594 20.223-26.629 26.629zm-14.25 6.3711c-6.9922 2.2383-14.445 3.4727-22.172 3.4727-7.7344 0-15.176-1.2305-22.172-3.4688l22.172-22.172zm50.73-69.41c0 7.7305-1.2344 15.176-3.4727 22.172l-22.18-22.172 22.18-22.172c2.2383 6.9883 3.4727 14.434 3.4727 22.172zm-46.27-0.007813-26.629 26.629-26.629-26.629 26.629-26.629zm-63.57 10.309 26.629 26.629-26.109 26.109c-11.039-6.3984-20.223-15.594-26.633-26.629zm59.109-79.719-22.168 22.164-22.172-22.168c6.9961-2.2383 14.438-3.4688 22.172-3.4688 7.7266 0 15.176 1.2344 22.168 3.4727z"/>
  <path d="m480.35 646.7h48.594v23.488h-48.594z"/>
  <path d="m554.46 646.7h165.22v23.488h-165.22z"/>
  <path d="m628.56 439.16c0 15.766-12.785 28.547-28.551 28.547s-28.547-12.781-28.547-28.547c0-15.77 12.781-28.551 28.547-28.551s28.551 12.781 28.551 28.551"/>
  <path d="m628.56 521.77c0 15.766-12.785 28.547-28.551 28.547s-28.547-12.781-28.547-28.547c0-15.77 12.781-28.551 28.547-28.551s28.551 12.781 28.551 28.551"/>
 </g>
</svg>
