<?xml version="1.0" encoding="UTF-8"?>
<svg width="1200pt" height="1200pt" version="1.1" viewBox="0 0 1200 1200" xmlns="http://www.w3.org/2000/svg">
 <path d="m624.96 265.44c-293.4-16.203-486 98.16-502.32 298.56-5.7617 69.84 19.199 139.2 72 200.4 77.52 89.641 206.16 150.84 348.72 167.04v0.003906c0.87891 0.046875 1.7617 0.046875 2.6406 0 9.6016 0.96094 19.199 1.8008 28.922 2.5195 19.078 2.0391 37.078 2.0391 55.199 2.0391 149.88 0 279.48-41.281 361.08-116.4 26.512-23.168 47.922-51.59 62.879-83.461 14.953-31.875 23.129-66.504 24-101.7 3.9609-221.52-156.96-352.56-453.12-369zm-180.96 55.32c-12.434 10.305-25.543 19.766-39.238 28.316-62.16 38.879-171.72 137.52-234.84 204.84 17.879-138.36 134.76-208.08 274.08-233.16zm-214.8 413.76c-28.801-32.07-48.699-71.129-57.719-113.28 41.641-54.84 185.76-189.24 257.16-233.52 33.57-21.055 64.164-46.523 90.961-75.719 18.238-1.1992 36.602-1.8008 54.961-1.8008 15.961 0 32.039 0 48 1.3203 123.72 6.8398 313.68 42.238 383.28 188.52-45.719 84-127.08 129.96-205.8 174.36-66.238 37.199-134.76 75.719-181.44 136.56-4.3984 5.8398-8.8398 11.84-13.32 18-18.48 25.441-36 49.441-60 57-130.44-15.957-246.72-71.156-316.08-151.44zm730.8 51.48c-75.84 69.961-200.4 107.16-345.36 104.16 9.6758-11.164 18.766-22.82 27.238-34.922 4.1992-5.7617 8.2812-12 12.602-17.039 40.922-53.398 102.48-87.961 168-124.56 73.68-41.641 149.52-84.602 202.32-158.52 5.5977 25.766 8.0156 52.121 7.1992 78.48-0.79688 29-7.6055 57.523-20 83.758s-30.102 49.609-52 68.641zm-732-132c-6.4297 0-12.375-3.4297-15.59-9s-3.2148-12.43 0-18 9.1602-9 15.59-9c6.4961 0 12.496 3.4648 15.746 9.0898 3.2461 5.625 3.2461 12.555 0 18.18-3.25 5.625-9.25 9.0898-15.746 9.0898z"/>
</svg>
