<?xml version="1.0" encoding="UTF-8"?>
<svg width="1200pt" height="1200pt" version="1.1" viewBox="0 0 1200 1200" xmlns="http://www.w3.org/2000/svg">
 <path d="m869.11 91.406c-3.8438 0.09375-7.5 1.8281-10.031 4.6875 0 0-27.469 30.75-58.594 63.938-15.562 16.594-32.062 33.797-46.359 47.953s-27.188 25.594-32.391 29.062c-23.578 15.703-190.55 91.172-206.11 96.656-22.125 7.7812-39.141 16.688-53.391 32.391-6.1875 6.8438-9.75 14.812-15 25.828-5.2031 10.969-10.828 24.047-16.078 36.609-9.1875 22.078-16.125 40.172-17.953 44.906h-188.21c-7.7812 0-14.062 6.2812-14.062 14.062v243.74c0 7.7812 6.2812 14.062 14.062 14.062h750c7.7812 0 14.062-6.2812 14.062-14.062v-243.74c0-3.75-1.5-7.3594-4.1719-9.9844-2.625-2.625-6.2344-4.125-9.9844-4.0781l-182.63 1.5938c9.7969-6.3281 19.828-13.031 28.969-20.016 22.266-17.016 32.812-33.984 38.719-47.484s7.9688-21.328 11.531-24.844c6.3281-6.2344 42.797-39.844 76.781-71.016 33.938-31.172 66.047-60.562 66.047-60.562h-0.046874c2.8594-2.5781 4.5-6.2344 4.5938-10.078 0.046874-3.8438-1.4062-7.5469-4.125-10.266l-135.24-135.28-0.046875 0.046875c-2.7188-2.7656-6.4688-4.2656-10.359-4.125zm0.84375 34.406 114.47 114.42c-8.1094 7.4531-26.859 24.609-55.266 50.672-33.984 31.219-69.094 63.516-77.438 71.672-11.062 10.828-12.938 22.969-17.625 33.609-4.6406 10.688-11.25 22.125-30 36.422-26.203 20.016-65.953 42.234-65.953 42.234l0.046875 0.046875c-0.1875 0.23438-0.42188 0.42188-0.65625 0.65625l-51.516 0.42188c1.5938-1.0781 3.375-2.25 5.3906-3.4688 8.4375-5.25 20.062-11.719 32.25-18.75 24.422-14.109 51.188-29.016 65.344-48.984v0.046875c4.5-6.3281 2.9531-15.094-3.375-19.594-3.0469-2.1562-6.7969-3-10.453-2.3906-3.7031 0.65625-6.9844 2.7188-9.1406 5.7656-6.9844 9.8906-32.484 27-56.438 40.828-11.953 6.8906-23.625 13.359-33.047 19.172-4.6875 2.9062-8.8125 5.6719-12.422 8.4844-3.6094 2.8594-6.9844 5.0156-9.7031 11.484-2.4844 5.9062-8.1562 17.859-13.125 29.391-2.4844 5.7656-4.875 11.531-6.75 16.734-1.8281 5.2031-3.4688 9.0469-3.4688 15.562v51c0 8.8125-3 13.734-7.7812 17.672s-12 6.375-19.406 6.4688c-7.4062 0.046875-14.625-2.2969-19.312-6.0938-4.7344-3.8438-7.6406-8.625-7.6406-17.438v-58.875c0-7.125 5.4375-25.078 12-42.609s13.969-34.641 15.938-49.969c1.9219-14.672-3.2812-27.422-10.125-35.859-4.875-6-13.734-6.9375-19.781-2.0625-6 4.9219-6.9375 13.781-2.0156 19.781 3.0938 3.7969 4.9219 7.5938 4.0312 14.531-0.98438 7.7812-7.6406 25.781-14.344 43.641-0.375 0.98438-0.70312 1.9688-1.0781 2.9531h-118.12c3.5156-9 8.25-20.953 13.734-34.078 5.1094-12.328 10.594-25.078 15.469-35.344s10.406-18.984 10.406-18.984c10.594-11.672 21.703-17.672 41.953-24.797 26.812-9.4219 176.26-75.703 212.34-99.75 9.7031-6.4688 21.797-17.906 36.562-32.484 14.719-14.578 31.406-31.969 47.109-48.703 26.062-27.797 41.766-45.422 48.984-53.484zm-630.89 375.74h312.89c-1.9219 7.2188-3.1406 14.391-3.1406 21.375v58.875c0 16.453 7.3594 30.562 18.047 39.281 10.688 8.6719 24.094 12.516 37.266 12.422s26.484-4.0781 37.125-12.891 18-22.922 18-39.375v-51c0 1.8281 0.42188-2.0625 1.9219-6.2344 1.4531-4.125 3.6094-9.4219 5.9531-14.859 0.75-1.7344 1.5469-3.375 2.2969-5.1094h-0.046875c0.32812 0.09375 0.60938 0.14063 0.9375 0.23438l290.63-2.5781v215.48h-721.87zm-14.062 271.87c-7.7812 0-14.062 6.2812-14.062 14.062v243.74c0 7.7812 6.2812 14.062 14.062 14.062h356.26c7.7812 0 14.062-6.2812 14.062-14.062v-243.74c0-7.7812-6.2812-14.062-14.062-14.062zm412.5 0c-7.7812 0-14.062 6.2812-14.062 14.062v243.74c0 7.7812 6.2812 14.062 14.062 14.062h337.5c7.7812 0 14.062-6.2812 14.062-14.062v-243.74c0-7.7812-6.2812-14.062-14.062-14.062zm-398.44 28.125h328.13v215.63h-328.13zm412.5 0h309.37v215.63h-309.37z"/>
</svg>
