<?xml version="1.0" encoding="UTF-8"?>
<svg width="1200pt" height="1200pt" version="1.1" viewBox="0 0 1200 1200" xmlns="http://www.w3.org/2000/svg">
 <path d="m147.96 573.51h26.613c24.66-46.145 71.047-75.93 130.13-75.93 14.895 0 27.59 1.9531 40.285 5.6172 26.855-57.863 74.465-96.441 138.43-103.28-23.195-26.367-50.297-42.48-87.406-25.879-1.7109 0.73438-3.418-0.24609-3.9062-1.7109-24.172-79.594-138.43-79.594-162.85 0-0.48828 1.7109-2.4414 2.4414-3.9062 1.7109-44.922-19.777-95.949 11.719-98.148 60.793 0 1.2227-0.73438 2.1992-1.9531 2.6875-28.078 9.7656-46.875 36.379-46.875 65.922-0.49609 38.816 31 70.066 69.578 70.066z" fill-rule="evenodd"/>
 <path d="m1075.2 548.36c-1.2227-0.48828-1.9531-1.4648-1.9531-2.6875-0.97656-23.438-13.184-43.945-32.961-56.156-19.531-12.207-43.945-13.918-65.188-4.6406-1.7109 0.73438-3.418-0.24609-3.9062-1.7109-10.988-36.133-43.703-60.305-81.547-60.305-37.598 0-70.316 24.172-81.547 60.305-0.48828 1.7109-2.4414 2.4414-3.9062 1.7109-31.984-14.16-54.203-2.9297-78.617 14.16 67.629 8.7891 116.21 60.062 126.71 127.69 27.832 13.43 50.539 32.961 65.922 57.621h134.04c38.574 0 69.828-31.25 69.828-69.828 0-29.781-18.801-56.395-46.879-66.16z" fill-rule="evenodd"/>
 <path d="m830.6 642.85c-5.1289-69.094-54.445-121.59-125.49-121.59-20.508 0-34.914 4.3945-53.715 11.719-23.195-66.164-74.223-110.36-146.73-110.36-73 0-123.3 43.215-146.73 110.36-18.555-7.3242-33.203-11.719-53.715-11.719-73.977 0-120.86 53.227-125.49 121.59-51.516 19.777-85.695 62.746-85.695 119.14 0 69.094 56.156 125.49 125.49 125.49h572.29c69.094 0 125.49-56.156 125.49-125.49 0-56.398-34.426-99.367-85.695-119.14z" fill-rule="evenodd"/>
</svg>
