<?xml version="1.0" encoding="UTF-8"?>
<svg width="1200pt" height="1200pt" version="1.1" viewBox="0 0 1200 1200" xmlns="http://www.w3.org/2000/svg">
 <g>
  <path d="m959.84 244.55h-719.69c-50.902 0-92.16 45.156-92.16 100.86v121.75h904.01v-121.75c0-55.703-41.27-100.86-92.16-100.86z"/>
  <path d="m148 854.58c0 55.727 41.258 100.87 92.16 100.87h719.7c50.879 0 92.16-45.156 92.16-100.87v-121.75h-904.02z"/>
  <path d="m505.55 639.9c5.1836 12.215 12.551 23.172 21.973 32.578 9.4062 9.4062 20.363 16.789 32.566 21.961 12.648 5.3398 26.074 8.0508 39.898 8.0508 13.836 0 27.254-2.7109 39.898-8.0508 12.215-5.1719 23.172-12.551 32.578-21.961 9.4062-9.4062 16.801-20.363 21.961-32.578 5.3398-12.648 8.0508-26.074 8.0508-39.898s-2.7109-27.254-8.0508-39.898c-5.1602-12.203-12.551-23.172-21.961-32.566-9.4062-9.4219-20.363-16.801-32.578-21.973-12.648-5.3398-26.062-8.0625-39.898-8.0625-13.824 0-27.254 2.7227-39.898 8.0625-12.203 5.1719-23.16 12.551-32.566 21.973-9.4219 9.3945-16.789 20.363-21.973 32.566-5.3398 12.66-8.0508 26.074-8.0508 39.898s2.7109 27.254 8.0508 39.898zm118.03 46.754-3.5156-29.363-10.176-24.637c2.1484-0.63672 4.2227-1.4883 6.1914-2.543l10.211 24.551 18.277 23.27c-6.5273 3.7656-13.57 6.7188-20.988 8.7227zm21.613-9.0859-10.992-27.434-16.199-21.156c1.8828-1.1641 3.6602-2.5547 5.3164-4.0938l16.223 21.109 23.664 17.723c-5.3867 5.3438-11.445 10-18.012 13.852zm18.527-14.363-17.711-23.629-21.133-16.246c1.5469-1.6445 2.9141-3.4219 4.0781-5.293l21.145 16.176 27.457 11.004c-3.8398 6.5664-8.5078 12.602-13.836 17.988zm14.195-18.625-23.258-18.266-24.574-10.223c1.0547-1.9805 1.9062-4.043 2.5547-6.1797l24.602 10.176 29.398 3.4922c-2.0117 7.4297-4.9648 14.473-8.7227 21zm8.9062-21.672-27.203-11.664-26.398-3.4922c0.49219-2.1602 0.78125-4.3789 0.86328-6.6367l26.398 3.4453 29.293-4.2227c-0.027344 7.8125-1.0352 15.383-2.9531 22.57zm2.9648-23.254-29.281-4.2109h-0.011718l-26.398 3.4453c-0.085938-2.2578-0.37109-4.4766-0.86328-6.6367l26.387-3.5039 27.215-11.641c1.9062 7.1992 2.9141 14.758 2.9531 22.547zm-3.1328-23.246-29.387 3.5273-24.613 10.164c-0.64844-2.1602-1.5-4.2109-2.5547-6.1797l24.562-10.223 23.258-18.277c3.7539 6.5312 6.707 13.574 8.7344 20.988zm-9.0977-21.609-27.445 10.992-21.156 16.188c-1.1641-1.8711-2.5312-3.6484-4.0547-5.293l21.098-16.223 17.723-23.676c5.3281 5.3984 9.9961 11.434 13.836 18.012zm-14.352-18.516-23.652 17.699-16.234 21.121c-1.668-1.5352-3.4336-2.9023-5.3164-4.0664l16.199-21.145 10.992-27.457c6.5664 3.8516 12.625 8.5195 18.012 13.848zm-18.637-14.195-18.266 23.23-10.223 24.602c-1.9688-1.0547-4.043-1.9062-6.1914-2.5547l10.176-24.602 3.5156-29.398c7.418 2 14.461 4.9648 20.988 8.7227zm-21.684-8.9062-11.652 27.191-3.5039 26.398c-2.1484-0.49219-4.3672-0.79297-6.625-0.85156l3.4453-26.398-4.2227-29.293c7.8125 0.027344 15.371 1.0352 22.559 2.9531zm-18.324 147.35v-0.023438l-3.4453-26.41c2.2578-0.070312 4.4766-0.34766 6.625-0.83984l3.5039 26.375 11.652 27.203c-7.1992 1.9062-14.746 2.9414-22.547 2.9648zm-91.223-36.949 29.375-3.4922 24.613-10.176c0.66016 2.1367 1.5 4.1992 2.5664 6.1797l-24.574 10.223-23.258 18.266c-3.7422-6.5273-6.6953-13.57-8.7227-21zm9.0859 21.625 27.445-10.98 21.156-16.199c1.1641 1.8711 2.5312 3.6602 4.0664 5.293l-21.109 16.234-17.699 23.652c-5.3516-5.3867-10.008-11.422-13.859-18zm14.352 18.516 23.652-17.699 16.246-21.133c1.6562 1.5352 3.4219 2.9297 5.293 4.0938l-16.176 21.133-11.004 27.457c-6.5664-3.8555-12.613-8.5117-18.012-13.852zm18.633 14.211 18.277-23.242 10.223-24.59c1.9688 1.0547 4.0195 1.9062 6.1797 2.543l-10.164 24.613-3.5273 29.387c-7.4023-1.9922-14.457-4.9453-20.988-8.7109zm21.699 8.8906 11.629-27.203 3.5156-26.375c2.1602 0.49219 4.3672 0.76953 6.6367 0.83984l-3.4453 26.41 4.2109 29.281c-7.8008-0.011719-15.359-1.0352-22.547-2.9531zm22.535-176.61-4.2109 29.293 3.4453 26.398c-2.2578 0.058594-4.4766 0.35938-6.6367 0.85156l-3.4922-26.375-11.652-27.215c7.1992-1.9062 14.758-2.9141 22.547-2.9531zm-23.246 3.1328 3.5273 29.375 10.164 24.625c-2.1367 0.64844-4.2109 1.5-6.1797 2.5547l-10.211-24.59-18.289-23.242c6.5312-3.7422 13.586-6.707 20.988-8.7227zm-21.609 9.0859 10.992 27.445 16.188 21.156c-1.8711 1.1641-3.6484 2.5312-5.293 4.0664l-16.223-21.098-23.676-17.723c5.3984-5.3281 11.445-9.9961 18.012-13.848zm-18.504 14.352 17.688 23.652 21.121 16.246c-1.5352 1.6562-2.9023 3.4219-4.0664 5.293l-21.145-16.176-27.457-11.004c3.8516-6.5781 8.5078-12.613 13.859-18.012zm-14.223 18.637 23.258 18.277 24.59 10.223c-1.0664 1.9688-1.9062 4.0195-2.5664 6.1797l-24.59-10.164-29.398-3.5273c2.0117-7.418 4.9648-14.461 8.707-20.988zm-8.8906 21.672 27.191 11.664 26.41 3.5039c-0.50391 2.1602-0.79297 4.3789-0.86328 6.6367l-26.398-3.4453-29.293 4.2109c0.023437-7.8008 1.0469-15.359 2.9531-22.57zm26.328 27.477 26.398-3.4453c0.070313 2.2578 0.35938 4.4766 0.86328 6.625l-26.375 3.5039-27.227 11.664c-1.8945-7.1992-2.9297-14.762-2.9648-22.559z"/>
 </g>
</svg>
