<?xml version="1.0" encoding="UTF-8"?>
<svg width="1200pt" height="1200pt" version="1.1" viewBox="0 0 1200 1200" xmlns="http://www.w3.org/2000/svg">
 <path d="m622.91 459.6c-3.1172 0.007813-6.2148 0.10938-9.332 0.32813-6.3008 0.44531-12.559 1.3477-18.727 2.6953-6.5312 1.418-12.926 3.3359-19.137 5.707-11.629 4.4258-22.598 10.438-32.676 17.688-8.6953 6.2422-16.703 13.387-23.984 21.223-6.3281 6.8164-12.105 14.16-17.273 21.891-2.7305 4.0586-5.2773 8.2305-7.668 12.488l-3.2539 3.625-4.4375 1.9414-4.8711-0.09375c-0.77344-0.17969-0.77344-0.17969-1.5234-0.35938-0.77344-0.16797-0.77344-0.16797-1.5234-0.32812-3.0273-0.63281-6.0781-1.1484-9.1484-1.5156-6.4609-0.78125-12.992-0.95312-19.5-0.51953-7.4414 0.49609-14.84 1.793-22.027 3.8555-5.9414 1.7109-11.742 3.9414-17.32 6.6328-4.6875 2.2656-9.2148 4.8594-13.559 7.7344-3.8711 2.5703-7.6016 5.3711-11.176 8.3633-15.906 13.355-28.398 30.516-37.113 49.312-2.5938 5.5742-4.8477 11.301-6.7812 17.137-0.97656 2.9844-1.8672 5.9961-2.6836 9.0312l-1.6406 3.5195c-0.91016 0.92188-1.6836 2.0117-2.7305 2.7617-1.0469 0.75391-2.2539 1.332-3.4805 1.6914-1.25 0.35547-2.5703 0.30859-3.8672 0.41406-0.25 0.019531-0.48047-0.03125-0.70703-0.046875-0.22656-0.011719-0.45312-0.023438-0.68359-0.035156-0.66016-0.03125-0.66016-0.03125-1.3398-0.058594-1.0938-0.035156-2.1875-0.054688-3.3008-0.042969-2.5508 0.019531-5.0742 0.15625-7.6016 0.42578-6.6875 0.69531-13.289 2.2617-19.59 4.6133-6.8984 2.582-13.426 6.0898-19.434 10.328-4.918 3.457-9.4922 7.3906-13.656 11.695-3.1602 3.2539-6.1211 6.7227-8.8281 10.363-2.2734 3.0508-4.3906 6.2227-6.3477 9.4922-7.4648 12.465-12.516 26.309-15.156 40.574-1.6602 8.9414-2.3906 18.055-2.1836 27.145 0.13672 6.4375 0.72656 12.867 1.8203 19.219 1.25 7.4453 3.1641 14.781 5.7109 21.887 5.6875 15.809 14.676 30.543 26.691 42.34 1.5938 1.5469 3.2109 3.0469 4.8945 4.4883 1.957 1.6758 3.9805 3.2773 6.0742 4.7891 2.5508 1.8359 5.168 3.543 7.875 5.1016 3.1836 1.8281 6.4844 3.4531 9.875 4.8594 4.0742 1.6836 8.2617 3.043 12.562 4.043 3.7539 0.875 7.5742 1.4766 11.422 1.793 2.1602 0.17578 4.3242 0.25391 6.4844 0.26172h471.02l0.52344-0.13672c0.57031-0.035156 1.1602-0.074219 1.7305-0.12109 1.8867-0.15625 3.7539-0.36719 5.5977-0.65234 3.5039-0.53516 6.9414-1.3086 10.332-2.3086 3.9336-1.1562 7.7578-2.6094 11.469-4.3359 3.0703-1.4258 6.0508-3.0352 8.918-4.8086 2.4336-1.5 4.7812-3.1133 7.0547-4.8359 2.0039-1.5117 3.9375-3.1055 5.8242-4.7695 13.52-12.004 23.574-27.625 29.855-44.516 2.8672-7.6875 4.9609-15.652 6.2812-23.746 1-6.1641 1.5703-12.398 1.707-18.645 0.20312-9.7539-0.66016-19.539-2.5938-29.105-2.7305-13.539-7.668-26.656-14.746-38.523-1.957-3.2656-4.0977-6.4375-6.3711-9.4883-2.707-3.6406-5.6445-7.1094-8.8086-10.363-3.7773-3.8828-7.8477-7.4609-12.219-10.66-5.9375-4.3633-12.422-8.0117-19.273-10.738-6.0742-2.4141-12.426-4.0938-18.887-4.9648-2.3203-0.3125-4.6406-0.51953-6.9648-0.625-1.2031-0.054688-2.3867-0.074219-3.5938-0.078125l-4.3242-0.875c-1.2266-0.82031-2.6367-1.418-3.6836-2.4609-1.0273-1.043-1.8906-2.3125-2.4609-3.6758-0.54297-1.3633-0.63672-2.8789-0.86328-4.3359-0.066406-0.40625 0-0.82031 0-1.2305v-1.1953c-0.023437-0.79688-0.023437-1.5938-0.046875-2.3906-0.089844-3.5508-0.25-7.1016-0.5-10.648-0.56641-8.0977-1.5703-16.164-3.0703-24.148-4.5977-24.758-13.633-48.742-27.035-70.078-9.9414-15.789-22.277-30.113-36.75-41.898-7.4414-6.0547-15.426-11.434-23.871-15.961-9.6016-5.1328-19.773-9.1719-30.285-11.906-6.3711-1.6523-12.879-2.8359-19.434-3.5195-4.0508-0.42578-8.125-0.64844-12.199-0.70312-0.5-0.003906-1-0.007813-1.4766-0.007813zm-212.54 58.008 0.089844 0.007813c17.18-64.133 68.289-110.71 128.64-110.71 9.375 0 18.523 1.125 27.352 3.2656 29.719-52.883 80.758-87.805 138.7-87.805 91.656 0 166.07 87.391 166.07 195.04 57.844 0 104.81 55.152 104.81 123.09 0 54.109-29.809 100.12-71.156 116.59-0.42969-7.2266-1.3633-14.43-2.7969-21.527-3.1875-15.809-8.9219-31.121-17.137-45.02-2.707-4.6055-5.7109-9.0547-8.9414-13.305-4.5742-5.9531-9.625-11.523-15.18-16.574-7.4414-6.7891-15.746-12.645-24.711-17.254-6.9648-3.5859-14.336-6.4102-21.938-8.3555-2.6367-0.67188-5.3008-1.2422-7.9844-1.7031-1.457-0.25391-2.9375-0.46875-4.418-0.66406-0.56641-0.066406-1.1133-0.13672-1.6602-0.19531-0.22656-4.6758-0.54688-9.3438-1.0234-14.004-0.93359-8.8633-2.3203-17.68-4.2305-26.383-5.7344-26.082-15.977-51.223-30.586-73.598-11.105-17.016-24.734-32.418-40.594-45.164-8.3086-6.6836-17.227-12.629-26.625-17.664-11.172-5.9844-23.051-10.684-35.316-13.871-8.0312-2.0859-16.227-3.5273-24.484-4.2969-4.5742-0.42578-9.1719-0.63672-13.77-0.66406h-1.3164c-3.6445 0.027344-7.2617 0.16406-10.902 0.4375-7.1445 0.53906-14.266 1.5781-21.277 3.1055-14.516 3.1719-28.555 8.4492-41.617 15.504-11.902 6.4141-23.008 14.273-33.109 23.254-9.3984 8.3594-17.934 17.676-25.531 27.703-3.4141 4.5195-6.6445 9.1914-9.6953 13.977-0.5 0.80078-1 1.6055-1.5 2.4102-3.7109-0.625-7.418-1.1094-11.176-1.4219-7.3242-0.60547-14.723-0.57422-22.047 0.085938-8.7852 0.79688-17.477 2.5117-25.922 5.0938-3.0469 0.93359-6.0508 1.9766-9.0078 3.1328z" fill-rule="evenodd"/>
</svg>
