<?xml version="1.0" encoding="UTF-8"?>
<svg width="1200pt" height="1200pt" version="1.1" viewBox="0 0 1200 1200" xmlns="http://www.w3.org/2000/svg">
 <path d="m86.625 813.32c37.125-29.672 89.625-29.672 126.74 0 50.625 40.734 122.63 40.734 173.26 0 37.125-29.672 89.625-29.672 126.74 0 50.625 40.734 122.63 40.734 173.26 0 37.125-29.672 89.625-29.672 126.74 0 50.625 40.734 122.63 40.734 173.26 0 37.125-29.672 89.625-29.672 126.37 0h0.375c7.875 6.5156 19.875 5.2031 26.25-2.8594s5.25-19.875-3-26.344v-0.046875c-50.625-40.688-122.63-40.688-173.26 0v0.046875c-37.125 29.672-89.625 29.672-126.74 0v-0.046875c-50.625-40.688-122.63-40.688-173.26 0v0.046875c-37.125 29.672-89.625 29.672-126.74 0v-0.046875c-50.625-40.688-122.63-40.688-173.26 0v0.046875c-37.125 29.672-89.625 29.672-126.74 0v-0.046875c-50.625-40.688-122.63-40.688-173.26 0v0.046875c-8.25 6.4688-9.375 18.281-3 26.344s18.375 9.375 26.25 2.8594zm0-132.47c37.125-29.719 89.625-29.719 126.74 0 50.625 40.734 122.63 40.734 173.26 0 37.125-29.719 89.625-29.719 126.74 0 50.625 40.734 122.63 40.734 173.26 0 37.125-29.719 89.625-29.719 126.74 0 50.625 40.734 122.63 40.734 173.26 0 37.125-29.719 89.625-29.719 126.37 0h0.375c7.875 6.4688 19.875 5.2031 26.25-2.8594s5.25-19.875-3-26.344v-0.046875c-50.625-40.688-122.63-40.688-173.26 0v0.046875c-37.125 29.672-89.625 29.672-126.74 0v-0.046875c-50.625-40.688-122.63-40.688-173.26 0v0.046875c-37.125 29.672-89.625 29.672-126.74 0v-0.046875c-50.625-40.688-122.63-40.688-173.26 0v0.046875c-37.125 29.672-89.625 29.672-126.74 0v-0.046875c-50.625-40.688-122.63-40.688-173.26 0v0.046875c-8.25 6.4688-9.375 18.281-3 26.344s18.375 9.3281 26.25 2.8594zm0-132.47v-0.046875c37.125-29.672 89.625-29.672 126.74 0v0.046875c50.625 40.688 122.63 40.688 173.26 0v-0.046875c37.125-29.672 89.625-29.672 126.74 0v0.046875c50.625 40.688 122.63 40.688 173.26 0v-0.046875c37.125-29.672 89.625-29.672 126.74 0v0.046875c50.625 40.688 122.63 40.688 173.26 0v-0.046875c37.125-29.672 89.625-29.672 126.37 0 0.375 0 0.375 0 0.375 0.046875 7.875 6.4688 19.875 5.2031 26.25-2.8594s5.25-19.875-3-26.391c-50.625-40.734-122.63-40.734-173.26 0-37.125 29.719-89.625 29.719-126.74 0-50.625-40.734-122.63-40.734-173.26 0-37.125 29.719-89.625 29.719-126.74 0-50.625-40.734-122.63-40.734-173.26 0-37.125 29.719-89.625 29.719-126.74 0-50.625-40.734-122.63-40.734-173.26 0-8.25 6.5156-9.375 18.328-3 26.391s18.375 9.3281 26.25 2.8594zm0-132.47v-0.046875c37.125-29.672 89.625-29.672 126.74 0v0.046875c50.625 40.688 122.63 40.688 173.26 0v-0.046875c37.125-29.672 89.625-29.672 126.74 0v0.046875c50.625 40.688 122.63 40.688 173.26 0v-0.046875c37.125-29.672 89.625-29.672 126.74 0v0.046875c50.625 40.688 122.63 40.688 173.26 0v-0.046875c37.125-29.672 89.625-29.672 126.37 0 0.375 0 0.375 0.046875 0.375 0.046875 7.875 6.4688 19.875 5.1562 26.25-2.9062s5.25-19.875-3-26.344c-50.625-40.734-122.63-40.734-173.26 0-37.125 29.672-89.625 29.672-126.74 0-50.625-40.734-122.63-40.734-173.26 0-37.125 29.672-89.625 29.672-126.74 0-50.625-40.734-122.63-40.734-173.26 0-37.125 29.672-89.625 29.672-126.74 0-50.625-40.734-122.63-40.734-173.26 0-8.25 6.4688-9.375 18.281-3 26.344s18.375 9.375 26.25 2.9062z" fill-rule="evenodd"/>
</svg>
