<?xml version="1.0" encoding="UTF-8"?>
<svg width="1200pt" height="1200pt" version="1.1" viewBox="0 0 1200 1200" xmlns="http://www.w3.org/2000/svg">
 <path d="m36.562 988.13c4.5 3.5156 10.312 4.875 15.938 3.75 0 0 39.375-7.5 106.88 41.25s120.94 49.688 127.5 46.875l7.5-4.6875c6.2812-7.5469 15.516-12 25.312-12.188 15.938 0.9375 30.938 15.938 35.625 21.562 4.8281 7.5469 14.719 10.031 22.5 5.625 3.75-0.9375 24.375-4.6875 75 12.188 42.328 15 87.703 19.5 132.19 13.125h3.75c65.625-28.125 122.81 17.812 124.69 19.688l8.4375 3.75c40.078 8.6719 80.906 13.359 121.87 14.062 33.75 0 63.75-5.625 75.938-23.438 6.4688-11.156 19.172-17.109 31.875-15 32.812 23.438 62.812 29.062 88.125 15.938 55.312-28.125 60.938-135.94 60.938-163.13 23.438-44.062 95.625-137.81 95.625-138.74 2.4375-3.2344 3.75-7.1719 3.75-11.25v-603.74c0-77.812-19.688-128.44-59.062-152.81-39.375-24.371-108.75-4.6875-120.94 0.9375-150 34.688-462.19 340.31-511.87 389.06-72.188-4.6875-115.31 40.312-133.13 63.75-2.6719-3.7969-6.7031-6.4688-11.25-7.5-72.188-13.125-115.31-6.5625-135.94 17.812s-9.375 65.625-0.9375 88.125l3.75 11.25c-6.5625 15-54.375 63.75-98.438 105-36.562-1.875-63.75 7.5-81.562 27.188s-23.438 61.875-21.562 77.812c-19.781 23.156-29.859 53.062-28.125 83.438 2.9062 27 15.609 51.984 35.625 70.312zm26.25-135.94c3.6094-4.4531 5.0156-10.312 3.75-15.938 0 0-6.5625-33.75 10.312-52.5s30.938-16.875 58.125-14.062c5.1094 0.42188 10.219-1.2656 14.062-4.6875 118.12-106.88 118.12-129.37 118.12-136.87-0.75-8.7656-3-17.297-6.5625-25.312-5.625-15.938-15-41.25-5.625-51.562s25.312-18.75 101.25-5.625h8.4375c2.7656 6.6562 9.0938 11.156 16.266 11.531 7.2188 0.42188 14.016-3.3281 17.484-9.6562 0-0.9375 39.375-67.5 114.38-58.125 5.9062 0.75 11.812-1.3125 15.938-5.625 1.875-1.875 125.63-125.63 256.87-232.5l-1.875 2.8125c-3.9844 9.3281 0.1875 20.109 9.375 24.375l171.56 77.812 7.5 1.875c8.625-0.28125 15.938-6.4219 17.719-14.859 1.7344-8.4375-2.4375-17.016-10.219-20.766l-171.56-76.875c-4.7812-2.1094-10.219-2.1094-15 0 88.125-71.25 178.13-134.06 237.19-147.19l4.6875-1.875c0.9375 0 51.562-25.312 87.188-3.75s41.25 58.125 41.25 120.94v97.5c-1.875-2.8125-4.4531-5.1094-7.5-6.5625l-247.5-118.12c-4.5469-2.7188-10.031-3.375-15.094-1.8281s-9.2344 5.1562-11.484 9.9375-2.3906 10.266-0.375 15.188c2.0625 4.875 6.0469 8.6719 11.016 10.453l246.56 118.12 8.4375 1.875c6.4219 0.09375 12.422-3.0938 15.938-8.4375v479.06c-15.938 21.562-77.812 103.12-98.438 143.44-1.2656 2.625-1.9219 5.5312-1.875 8.4375 0 36.562-10.312 118.12-40.312 134.06-12.188 6.5625-30 0.9375-51.562-15l-4.6875-2.8125c-29.438-8.2969-60.844 3.9375-76.875 30-10.312 11.25-83.438 7.5-153.74-6.5625-16.875-12.188-81.562-54.375-157.5-23.438-37.266 4.6875-75.094 0.84375-110.62-11.25-45.938-15-73.125-15.938-88.125-14.062-14.531-14.812-33.75-24.094-54.375-26.25-17.953-0.79688-35.531 5.625-48.75 17.812-9.375 0-38.438-3.75-91.875-42.188s-109.69-49.688-129.37-48.75c-12.188-13.125-36.562-50.625 7.5-102.19z"/>
 <path d="m345 726.56 171.56 77.812 7.5 1.875c8.625-0.28125 15.938-6.4219 17.719-14.859 1.7344-8.4375-2.4375-17.016-10.219-20.766l-171.56-77.812c-9.0938-3.2344-19.172 0.9375-23.297 9.6562s-0.9375 19.125 7.3594 24.094z"/>
 <path d="m780.94 399.37 334.69 127.5h6.5625c9.375 0.375 17.578-6.1875 19.219-15.422s-3.75-18.234-12.656-21.141l-334.69-126.56c-9.0938-1.9688-18.234 3-21.516 11.672-3.2812 8.7188 0.28125 18.469 8.3906 23.016z"/>
 <path d="m611.26 492.19 212.81 90.938 7.5 1.875c8.625-0.28125 15.938-6.4219 17.719-14.859 1.7344-8.4375-2.4375-17.016-10.219-20.766l-212.81-91.875c-9.5625-4.125-20.719 0.28125-24.844 9.8438s0.28125 20.719 9.8438 24.844z"/>
 <path d="m839.06 913.13-212.81-90.938c-9.5625-4.125-20.719 0.28125-24.844 9.8438s0.28125 20.719 9.8438 24.844l212.81 90 7.5 1.875c8.625-0.28125 15.938-6.4219 17.719-14.859 1.7344-8.4375-2.4375-17.016-10.219-20.766z"/>
 <path d="m1040.6 875.63-212.81-90.938c-9.5625-4.125-20.719 0.28125-24.844 9.8438s0.28125 20.719 9.8438 24.844l212.81 90 7.5 1.875c8.625-0.28125 15.938-6.4219 17.719-14.859 1.7344-8.4375-2.4375-17.016-10.219-20.766z"/>
 <path d="m1113.7 751.87-370.31-163.13c-9.5625-4.125-20.719 0.28125-24.844 9.8438s0.28125 20.719 9.8438 24.844l370.31 162.19 7.5 1.875c8.625-0.28125 15.938-6.4219 17.719-14.859 1.7344-8.4375-2.4375-17.016-10.219-20.766z"/>
 <path d="m347.81 623.44 370.31 162.19 7.5 1.875c8.625-0.28125 15.938-6.4219 17.719-14.859 1.7344-8.4375-2.4375-17.016-10.219-20.766l-370.31-163.13c-9.5625-4.125-20.719 0.28125-24.844 9.8438s0.28125 20.719 9.8438 24.844z"/>
 <path d="m182.81 788.44 370.31 162.19 7.5 1.875c8.625-0.28125 15.938-6.4219 17.719-14.859 1.7344-8.4375-2.4375-17.016-10.219-20.766l-370.31-163.13c-9.5625-4.125-20.719 0.28125-24.844 9.8438s0.28125 20.719 9.8438 24.844z"/>
 <path d="m1050.9 645 8.4375 1.875c8.8125 0.14062 16.5-5.8594 18.516-14.438 2.0156-8.5312-2.1562-17.344-10.078-21.188l-77.812-40.312c-4.4062-3.375-10.078-4.6406-15.516-3.4219s-10.031 4.7812-12.562 9.7031c-2.5312 4.9688-2.7656 10.781-0.60938 15.891s6.5156 9 11.812 10.641z"/>
 <path d="m736.87 998.44-77.812-40.312c-8.6719-2.625-18 1.3125-22.125 9.375-4.1719 8.0625-1.9219 17.906 5.25 23.438l77.812 40.312 8.4375 1.875c8.8125 0.14062 16.5-5.8594 18.516-14.438 2.0156-8.5312-2.1562-17.344-10.078-21.188z"/>
 <path d="m332.81 951.56-77.812-40.312c-8.6719-2.625-18 1.3125-22.125 9.375-4.1719 8.0625-1.9219 17.906 5.25 23.438l77.812 40.312 8.4375 1.875c8.8125 0.14062 16.5-5.8594 18.516-14.438 2.0156-8.5312-2.1562-17.344-10.078-21.188z"/>
 <path d="m520.31 594.37 77.812 40.312 8.4375 1.875c8.8125 0.14062 16.5-5.8594 18.516-14.438 2.0156-8.5312-2.1562-17.344-10.078-21.188l-77.812-40.312c-4.4062-3.375-10.078-4.6406-15.516-3.4219s-10.031 4.7812-12.562 9.7031c-2.5312 4.9688-2.7656 10.781-0.60938 15.891s6.5156 9 11.812 10.641z"/>
</svg>
