<?xml version="1.0" encoding="UTF-8"?>
<svg width="1200pt" height="1200pt" version="1.1" viewBox="0 0 1200 1200" xmlns="http://www.w3.org/2000/svg">
 <path d="m316.59 614.41c-5.5156 0-11.203-0.11719-17.062-0.35156-102.84-4.1953-139.12-67.969-148.59-90.094-18.086-2.9766-35.645-8.5664-52.125-16.594-40.875-20.227-65.297-53.344-70.688-95.766-6.6562-53.18 12.375-84.375 29.484-101.23 9.5312-9.3242 20.797-16.691 33.164-21.68 12.867-49.641 46.617-84.938 97.992-102.07 21.961-7.1289 44.883-10.852 67.969-11.039 6.3398-14.105 15.367-26.844 26.578-37.5 34.312-32.812 80.25-39.117 115.73-37.758 3.9023-10.91 9.5625-21.105 16.758-30.188 14.508-18.352 42.562-41.32 93.75-46.57 50.578-5.2031 85.031 8.9297 105.05 21.68 10.324 6.5156 19.609 14.551 27.539 23.836 16.406-3.0938 55.805-8.3672 87.562 4.2656 14.555-9.375 54.094-28.594 120.59-16.852 62.25 10.969 85.383 62.766 90.539 97.078 21.609-1.2656 65.836 0.84375 93.938 34.43 18.234 1.8281 77.039 10.805 114.63 52.406 23.062 25.523 33.703 58.336 31.664 97.547-0.14062 6.8203-4.4297 80.461-119.67 102.52-6.2969 1.0859-12.301-3.0703-13.504-9.3438-1.1992-6.2773 2.8438-12.355 9.0977-13.672 41.18-7.875 71.625-24.305 88.055-47.484 12.352-17.227 12.773-32.484 12.773-32.484-0.011719-0.17969-0.011719-0.35938 0-0.53906 1.7578-32.812-6.8672-60.023-25.641-80.812-37.5-41.602-103.27-45.211-103.83-45.211-3.4883-0.17188-6.7188-1.8906-8.8125-4.6875-28.125-38.227-86.344-28.336-86.93-28.125-3.4023 0.62891-6.9062-0.27344-9.5781-2.4727-2.668-2.1953-4.2344-5.4609-4.2734-8.918 0-3.0234-3.2578-75-72.352-87.234-72.375-12.773-106.1 14.906-107.51 16.102-3.5938 3.0508-8.6602 3.6797-12.891 1.5938-33.094-16.547-85.148-3.9141-85.664-3.7969-4.9258 1.2305-10.082-0.85156-12.773-5.1562-1.2656-1.9922-33.023-49.898-115.43-41.438-34.641 3.5625-60.82 16.406-77.836 37.805-7.125 8.7344-12.223 18.941-14.93 29.883-1.0117 5.9805-6.4219 10.199-12.469 9.7266-107.81-8.4609-129.89 63.469-130.78 66.516-1.5156 5.3242-6.5469 8.8633-12.07 8.4844-23.246-0.71484-46.438 2.6328-68.531 9.8906-45.516 15.375-73.641 46.008-83.273 91.008-0.93359 4.3359-4.2344 7.7734-8.5312 8.8828-2.5078 0.67969-62.484 17.812-52.242 99.703 4.3125 34.5 23.438 60.539 57.117 77.344 16.289 8.0234 33.805 13.266 51.82 15.516 4.7539 0.42188 8.7773 3.6836 10.172 8.25 0.98438 3.0703 25.312 76.5 129.89 80.766 106.43 4.3594 142.64-35.367 142.97-35.766 2.0039-2.3633 4.8789-3.8164 7.9688-4.0312 3.0898-0.23828 6.1484 0.75391 8.5078 2.7656 1.0078 0.84375 26.461 21.328 63.891 9.375 6.1758-1.9414 12.754 1.4883 14.695 7.6641 1.9414 6.1758-1.4883 12.754-7.6641 14.695-25.746 8.4961-53.895 5.5703-77.344-8.0391-15.727 12.75-56.484 37.172-136.9 37.172z"/>
 <path d="m349.62 743.53c-4.2891 0-8.6719-0.21094-13.172-0.60938-60.938-5.5312-82.945-36.586-90.797-55.008-51.023 15.703-86.109-14.742-101.6-39.422-15.703 2.9062-48.281 6.0703-74.391-10.195-18.352-11.438-29.906-29.93-34.312-55.008-9.5625-54.492 30.281-90.891 52.828-102.52 5.7109-2.7773 12.594-0.5 15.523 5.1328 2.9297 5.6367 0.83594 12.578-4.7188 15.656-2.1797 1.1484-49.547 26.789-40.57 77.648 3.2812 18.492 11.016 31.312 23.648 39.188 25.781 16.102 64.312 5.6016 64.688 5.5078 5.4883-1.5859 11.32 1.0195 13.805 6.1641 5.5703 10.273 13.207 19.281 22.43 26.461 18.75 14.25 40.828 16.055 65.484 5.3672 3.3633-1.457 7.2148-1.2539 10.406 0.54297 3.1953 1.8008 5.3633 4.9883 5.8594 8.6211 0.25781 1.6172 7.5 42.492 73.828 48.516 69.82 6.3516 110.84-50.742 111.23-51.328 3.7266-5.293 11.043-6.5625 16.336-2.8359 5.293 3.7266 6.5625 11.043 2.8359 16.336-1.875 2.625-44.391 61.758-119.34 61.781z"/>
 <path d="m987.7 687.38c-5.2969 0-10.992-0.1875-16.898-0.70312-34.617-2.9062-63.117-14.883-83.297-34.852-19.828 16.547-69.281 48.539-134.48 24.82-6.082-2.2148-9.2227-8.9414-7.0078-15.023 2.2148-6.082 8.9414-9.2227 15.023-7.0078 68.789 25.008 116.65-25.266 118.64-27.422 2.3281-2.5117 5.6367-3.8789 9.0547-3.7422 3.4219 0.13672 6.6133 1.7578 8.7344 4.4453 39.562 49.969 121.17 33.469 121.99 33.305h0.28125c25.5-4.6875 43.336-15.586 52.992-32.25 17.766-30.633 3.8438-71.484 3.7031-71.883-1.1406-3.2539-0.78906-6.8438 0.95703-9.8125 1.75-2.9727 4.7148-5.0234 8.1133-5.6094 11.113-2.3594 21.805-6.3906 31.711-11.953 19.922-11.273 31.242-26.742 33.656-45.984 2.5547-20.391-0.65625-38.953-9.5156-55.172-3.668-7.0312-8.5312-13.379-14.367-18.75-4.7383-4.1406-5.3594-11.281-1.4141-16.18 3.9492-4.8945 11.059-5.8047 16.109-2.0547 1.6641 1.3125 40.195 32.93 32.438 94.969-3.3516 26.859-19.289 48.938-46.055 63.867-8.3281 4.5898-17.109 8.3047-26.203 11.086 3.8203 17.555 7.5703 50.742-8.8594 79.055-13.219 22.828-36.398 37.5-68.883 43.547-12.012 2.2266-24.207 3.332-36.422 3.3047z"/>
 <path d="m614.06 733.88c-3.9844 0-8.0156 0-12.141-0.30469-157.2-7.3594-178.83-99.07-179.67-102.96-1.3906-6.3242 2.6055-12.578 8.9297-13.969 6.3242-1.3906 12.578 2.6055 13.969 8.9297 0.79687 3.375 19.922 78.141 157.85 84.609 58.312 2.7188 106.71-15.445 143.84-53.906 16.785-17.297 30.059-37.68 39.094-60.023 2.1484-6.0742 8.793-9.2734 14.879-7.168 6.0898 2.1055 9.3359 8.7305 7.2695 14.832-9.9336 25.266-24.758 48.324-43.617 67.852-27.609 28.734-75.633 62.109-150.4 62.109z"/>
 <path d="m832.57 614.88c-32.578 0.47266-64.242-10.773-89.227-31.688-10.543-8.8672-19.723-19.246-27.234-30.797-19.617 3.6797-36 1.0781-48.773-7.8281-20.227-14.062-22.664-38.578-22.758-39.609-0.60156-6.4727 4.1562-12.207 10.629-12.809 6.4727-0.60156 12.207 4.1562 12.809 10.629 0 0.44531 1.8281 15.023 12.984 22.664 8.6953 5.9531 21.445 6.7266 37.922 2.3438 5.4336-1.4609 11.141 1.1445 13.594 6.2109 1.2891 2.625 33.07 65.133 114.84 56.742 83.18-8.5312 104.84-64.523 105.05-65.086 2.2031-6.082 8.918-9.2305 15-7.0312 1.7109 0.60938 43.523 14.883 68.344-21.375 3.6484-5.3477 10.941-6.7188 16.289-3.0703 5.3477 3.6484 6.7188 10.941 3.0703 16.289-24.188 35.344-62.062 37.828-85.453 33.023-11.062 19.711-43.594 62.625-119.91 70.453-5.707 0.60938-11.441 0.92188-17.18 0.9375z"/>
 <path d="m782.81 1174.2h-363.28c-5.9492-0.015625-10.945-4.4844-11.613-10.398-0.67188-5.9102 3.1953-11.387 8.9883-12.734 43.195-9.9844 72.492-35.695 87.117-76.453 6.8867-19.488 10.066-40.094 9.375-60.75v-0.86719-238.69c0-55.148-23.672-67.055-24.68-67.523l0.25781 0.11719 9-21.656c1.5938 0.65625 38.859 16.969 38.859 89.062v238.29c0.90625 23.477-2.6016 46.91-10.336 69.094-9.375 27.812-27.258 51.977-51.117 69.07h251.58c-23.816-17.109-41.656-41.273-51-69.07-7.7344-22.184-11.242-45.617-10.336-69.094v-96.094c-0.63281-20.883 10.266-62.602 56.109-72.656 25.781-5.6016 154.83-42.188 154.83-208.85 0-6.4727 5.2461-11.719 11.719-11.719s11.719 5.2461 11.719 11.719c0 71.789-21.961 129.96-65.273 172.92-29.879 29.219-67.27 49.59-108.02 58.852-38.578 8.5078-37.641 47.555-37.641 49.219v97.008 0.89062c-0.35156 4.6875-7.0312 113.3 96.398 137.18 5.8008 1.3477 9.6641 6.832 8.9883 12.746-0.67578 5.918-5.6836 10.383-11.637 10.387z"/>
 <path d="m705.7 799.22c-11.555 0-28.359-7.5-28.359-28.125v-59.766c0-6.4727 5.2461-11.719 11.719-11.719s11.719 5.2461 11.719 11.719v59.766c0 1.6641 0 4.4297 4.6875 4.6875 104.18-2.3438 109.9-101.74 110.16-105.98 0.27344-6.4727 5.7383-11.5 12.211-11.227 6.4727 0.27344 11.5 5.7383 11.227 12.211-1.6953 21.992-7.9688 43.387-18.422 62.812-15.914 29.18-48.773 64.242-114.84 65.625z"/>
 <path d="m525 921.09c-5.6602-0.011719-10.5-4.0664-11.508-9.6328-4.3594-24.023-31.242-33.352-57.258-42.375-6.5391-2.3438-12.727-4.4297-18.539-6.7969-55.664-22.781-91.008-77.133-86.016-132.33 0.28125-3.1094 1.7812-5.9766 4.1797-7.9766 2.3945-2 5.4844-2.9688 8.5938-2.6875 6.4727 0.58203 11.246 6.3008 10.664 12.773-4.0781 44.977 25.336 89.602 71.531 108.52 5.2266 2.1562 11.109 4.1953 17.344 6.3516 29.32 10.172 65.812 22.852 72.656 60.352 1.1562 6.3438-3.0352 12.43-9.375 13.617-0.75 0.12891-1.5117 0.19141-2.2734 0.1875z"/>
 <path d="m525 821.09h-0.84375c-61.898-4.3828-91.594-32.812-105.59-55.805-9.3125-15.246-14.625-32.594-15.445-50.438 0-6.4727 5.2461-11.719 11.719-11.719s11.719 5.2461 11.719 11.719c0 3.1875 1.9219 75.984 99.258 82.898 6.4727 0.21875 11.539 5.6445 11.32 12.117s-5.6445 11.539-12.117 11.32z"/>
 <path d="m386.88 1018.2c-4.8164-0.003906-9.625-0.35547-14.391-1.0547-22.027-3.3594-42.523-13.293-58.805-28.5-41.695-39.047-41.461-120.94-41.297-180.73v-11.203-81.844c0-6.4727 5.2461-11.719 11.719-11.719s11.719 5.2461 11.719 11.719v81.844 11.25c-0.16406 55.5-0.375 131.51 33.867 163.57 23.039 21.586 63.867 33.141 94.195 12.07 18.891-13.125 28.453-34.922 28.453-64.828v-58.594c0-6.4727 5.2461-11.719 11.719-11.719s11.719 5.2461 11.719 11.719v58.594c0 37.5-13.312 66.586-38.508 84.07-14.832 10.148-32.418 15.504-50.391 15.352z"/>
 <path d="m339.07 913.38c-5.7422 0-10.637-4.1641-11.562-9.832-0.92578-5.6641 2.3906-11.168 7.8359-12.996 44.719-14.93 51.422-45.891 49.219-69.234-0.64844-6.4414 4.0469-12.184 10.488-12.832 6.4414-0.64844 12.184 4.0469 12.832 10.488 4.2656 44.32-19.453 78.469-65.062 93.75-1.2031 0.42969-2.4727 0.64844-3.75 0.65625z"/>
 <path d="m245.04 913.38c-1.2422 0-2.4766-0.19922-3.6562-0.58594-37.734-12.375-61.805-36.914-73.57-75-9.8438-31.898-9.6328-68.297-9.375-103.5v-14.438c0-6.4727 5.2461-11.719 11.719-11.719s11.719 5.2461 11.719 11.719v14.578c-0.39844 68.883-0.77344 133.95 66.844 156.12 5.4648 1.7969 8.8164 7.293 7.9141 12.973-0.90234 5.6797-5.7969 9.8672-11.547 9.8789z"/>
 <path d="m918.75 810.94c-30.961 0-58.008-5.3203-80.391-15.773-5.7578-2.7969-8.207-9.6992-5.5-15.5 2.7109-5.8008 9.5742-8.3516 15.414-5.7344 19.266 9 42.961 13.57 70.477 13.57 41.766 0 73.734-11.719 95.016-34.711 33.938-36.68 30.141-90.258 30.094-90.797-0.50391-6.4727 4.332-12.129 10.805-12.633 6.4727-0.50391 12.129 4.332 12.633 10.805 0.21094 2.6016 4.5703 64.406-36.234 108.54-25.992 28.031-63.75 42.234-112.31 42.234z"/>
 <path d="m796.88 757.03c-3.8906 0-7.5234-1.9336-9.7031-5.1562-20.016-29.625-23.438-61.102-24.961-74.555-0.14063-1.1719-0.28125-2.5781-0.39844-3.3281-1.8203-5.6758 0.91406-11.816 6.3477-14.262 5.4336-2.4492 11.844-0.42578 14.887 4.6992 1.6172 2.6953 1.875 5.0859 2.3438 10.336 1.2891 11.719 4.3125 39.164 21.094 63.984 2.418 3.5781 2.6719 8.1953 0.66406 12.016-2.0078 3.8203-5.957 6.2305-10.273 6.2656z"/>
 <path d="m466.41 140.62c-2.3125 0.007812-4.5742-0.67969-6.4922-1.9688-15.094-10.055-43.266-13.852-52.852-14.461-6.4727-0.40625-11.387-5.9844-10.98-12.457 0.40625-6.4727 5.9844-11.387 12.457-10.98 1.6641 0 40.922 2.7188 64.359 18.352 4.3398 2.8477 6.2891 8.2109 4.7891 13.184-1.5 4.9688-6.0898 8.3594-11.281 8.332z"/>
 <path d="m876.56 210.94c-4.3633 0-8.3633-2.418-10.387-6.2812-2.0234-3.8672-1.7305-8.5352 0.75391-12.117 14.539-20.988 37.352-34.762 62.695-37.852 6.4727-0.48047 12.105 4.3789 12.586 10.852 0.48047 6.4727-4.3789 12.105-10.852 12.586-18.301 2.4805-34.703 12.574-45.164 27.797-2.1953 3.1484-5.793 5.0234-9.6328 5.0156z"/>
 <path d="m324.45 473.58c-34.031 0-55.242-14.789-67.078-27.258-5.3008-5.5586-9.8477-11.793-13.523-18.539-9.5508 1.5703-19.355 0.26953-28.168-3.7305-8.8164-4-16.246-10.523-21.355-18.746-1.5547-2.6953-1.9727-5.8945-1.168-8.9023 0.80859-3.0039 2.7734-5.5625 5.4688-7.1172 5.6094-3.2344 12.785-1.3086 16.02 4.3008 1.0781 1.7578 10.594 16.172 32.414 9.375 6.0898-1.8789 12.566 1.4531 14.578 7.5 0.53906 1.5703 14.438 39.844 63.562 39.539s62.25-34.852 62.789-36.305c1.9727-5.625 7.8516-8.8711 13.664-7.5469 0.70312 0.16406 72.094 15.773 89.297-27.797 2.4609-5.8867 9.1797-8.7188 15.113-6.3789s8.9062 9 6.6836 14.98c-10.383 26.344-34.336 41.883-69.211 44.953-12.609 1.0078-25.293 0.58203-37.805-1.2656-8.5547 14.906-30.984 42.398-80.344 42.797z"/>
 <path d="m871.15 408.07c-3.3984-0.007812-6.793-0.19531-10.172-0.5625-35.156-3.8438-52.172-22.477-60-35.672-27.023 12.422-72.305 18.445-106.69-23.977-2.1328-2.3906-3.1914-5.5508-2.9297-8.7422 0.25781-3.1953 1.8125-6.1406 4.3008-8.1562 2.4883-2.0195 5.6914-2.9297 8.8711-2.5195 3.1758 0.40625 6.0469 2.0977 7.9453 4.6758 36.891 45.492 85.359 14.062 87.398 12.633 3.1602-2.1094 7.1484-2.5547 10.699-1.1953 3.5508 1.3594 6.2188 4.3555 7.1602 8.0391 0.28125 1.0078 8.1328 27.492 45.797 31.617 38.672 4.2188 58.594-25.594 59.484-26.859 3.0586-4.75 9.0703-6.6406 14.297-4.5 10.898 4.4766 20.461 4.2891 28.453-0.5625 3.4414-2.0938 6.4102-4.8789 8.7188-8.1797 1.5898-2.668 4.1797-4.5977 7.1914-5.3594 3.0117-0.76562 6.207-0.29688 8.875 1.293 5.5586 3.3125 7.3789 10.508 4.0664 16.066-6.9141 11.719-27.281 29.531-57.633 21.352-16.465 19.27-40.488 30.438-65.836 30.609z"/>
 <path d="m972.66 1017.2c-6.4727 0-11.719-5.2461-11.719-11.719v-370.31c0-6.4727 5.2461-11.719 11.719-11.719s11.719 5.2461 11.719 11.719v370.31c0 3.1094-1.2344 6.0898-3.4336 8.2852-2.1953 2.1992-5.1758 3.4336-8.2852 3.4336z"/>
 <path d="m246.09 1028.9c-6.4727 0-11.719-5.2461-11.719-11.719v-114.84c0-6.4727 5.2461-11.719 11.719-11.719s11.719 5.2461 11.719 11.719v114.84c0 3.1094-1.2344 6.0898-3.4336 8.2852-2.1953 2.1992-5.1758 3.4336-8.2852 3.4336z"/>
 <path d="m539.86 1174.2c-5.457 0.011719-10.199-3.7461-11.438-9.0625-1.2383-5.3125 1.3594-10.777 6.2578-13.18 25.781-12.609 30.469-59.086 30.164-75.938v-152.6c0-6.4727 5.2461-11.719 11.719-11.719s11.719 5.2461 11.719 11.719v152.34c0 4.6875 0.65625 75.844-43.289 97.359-1.6055 0.75391-3.3633 1.1211-5.1328 1.0781z"/>
 <path d="m576.56 892.97c-6.4727 0-11.719-5.2461-11.719-11.719v-7.0312c0-6.4727 5.2461-11.719 11.719-11.719s11.719 5.2461 11.719 11.719v7.0312c0 3.1094-1.2344 6.0898-3.4336 8.2852-2.1953 2.1992-5.1758 3.4336-8.2852 3.4336z"/>
 <path d="m972.66 1061.7c-6.4727 0-11.719-5.2461-11.719-11.719v-7.0312c0-6.4727 5.2461-11.719 11.719-11.719s11.719 5.2461 11.719 11.719v7.0312c0 3.1094-1.2344 6.0898-3.4336 8.2852-2.1953 2.1992-5.1758 3.4336-8.2852 3.4336z"/>
</svg>
