<?xml version="1.0" encoding="UTF-8"?>
<svg width="1200pt" height="1200pt" version="1.1" viewBox="0 0 1200 1200" xmlns="http://www.w3.org/2000/svg">
 <path d="m601.2 924c0-9.6016 7.1992-18 16.801-19.199s18 7.1992 19.199 16.801c1.1992 9.6016-7.1992 18-16.801 19.199h-1.1992c-9.5977 0-18-7.1992-18-16.801zm-57.598 12c-9.6016-2.3984-15.602-12-14.398-21.602 2.3984-9.6016 12-15.602 21.602-14.398 9.6016 2.3984 15.602 12 14.398 21.602-1.1992 8.3984-9.6016 14.398-18 14.398-1.2031 1.1992-2.4023 0-3.6016 0zm128.4-21.602c-3.6016-9.6016 1.1992-19.199 10.801-22.801 9.6016-3.6016 19.199 1.1992 22.801 10.801 3.6016 9.6016-1.1992 19.199-10.801 22.801-2.3984 1.1992-3.6016 1.1992-6 1.1992-7.1992 0-14.402-4.7969-16.801-12zm-200.4-3.5977c-8.3984-4.8008-12-15.602-7.1992-24 4.8008-8.3984 15.602-12 24-7.1992 8.3984 4.8008 12 15.602 7.1992 24-3.6016 6-9.6016 9.6016-15.602 9.6016-3.6016-0.003906-6-1.2031-8.3984-2.4023zm266.4-25.199c-6-8.3984-3.6016-19.199 3.6016-25.199 8.3984-6 19.199-3.6016 25.199 3.6016 6 8.3984 3.6016 19.199-4.8008 25.199-3.6016 2.3984-7.1992 3.6016-10.801 3.6016-3.5977-0.003907-9.5977-2.4062-13.199-7.2031zm-330-19.203c-7.1992-7.1992-7.1992-18-1.1992-25.199 7.1992-7.1992 18-7.1992 25.199-1.1992 7.1992 7.1992 7.1992 18 1.1992 25.199-3.6016 3.6016-8.3984 6-13.199 6-3.6016 0-8.3984-1.1992-12-4.8008zm386.4-26.398c-8.3984-6-9.6016-18-2.3984-25.199 6-7.1992 18-9.6016 25.199-2.3984 7.1992 6 8.3984 18 2.3984 25.199-3.6016 4.8008-8.3984 6-14.398 6-3.5977 0-8.3984-1.2031-10.801-3.6016zm-434.4-32.398c-4.8008-8.3984-2.3984-19.199 6-25.199 8.3984-4.8008 19.199-2.3984 25.199 6 4.8008 8.3984 2.3984 19.199-6 25.199-2.3984 1.1992-6 2.3984-9.6016 2.3984-7.1992 0-13.199-2.3984-15.598-8.3984zm475.2-26.402c-9.6016-3.6016-13.199-14.398-9.6016-24 3.6016-9.6016 14.398-13.199 24-9.6016 9.6016 3.6016 13.199 14.398 9.6016 24-2.3984 7.1992-9.6016 10.801-16.801 10.801-2.3984 0-4.7969 0-7.1992-1.1992zm-506.4-44.398c-2.3984-9.6016 2.3984-19.199 12-21.602 9.6016-2.3984 19.199 2.3984 22.801 12 2.3984 9.6016-2.3984 19.199-12 22.801-1.1992 0-3.6016 1.1992-4.8008 1.1992-8.4023-1.1992-15.602-6-18-14.398zm530.4-24c-9.6016-1.1992-16.801-10.801-15.602-20.398 1.1992-9.6016 10.801-16.801 20.398-15.602 9.6016 1.1992 16.801 10.801 15.602 20.398-1.1992 9.6016-9.6016 15.602-18 15.602-1.1992 1.1992-1.1992 0-2.3984 0zm-541.2-51.602v0c0-10.801 8.3984-19.199 18-19.199s18 8.3984 18 18-8.3984 18-18 18c-9.6016 1.1992-18-7.1992-18-16.801zm525.6-34.801c-1.1992-9.6016 6-19.199 15.602-20.398s19.199 6 20.398 15.602c1.1992 9.6016-6 19.199-15.602 20.398h-2.3984c-9.6016 0-16.801-7.1992-18-15.602zm-502.8-20.398c-9.6016-2.3984-15.602-12-12-22.801 2.3984-9.6016 12-15.602 21.602-12 9.6016 2.3984 15.602 13.199 12 22.801-2.3984 8.3984-9.6016 13.199-16.801 13.199-1.2031 0-3.6016-1.1992-4.8008-1.1992zm484.8-44.398c-3.6016-9.6016 0-19.199 9.6016-24 9.6016-3.6016 20.398 0 24 9.6016s0 19.199-9.6016 24c-2.3984 1.1992-4.8008 1.1992-7.1992 1.1992-7.2031-0.003906-14.402-3.6016-16.801-10.801zm-460.8-24c-8.3984-4.8008-10.801-15.602-6-25.199 4.8008-8.3984 16.801-10.801 25.199-6 8.3984 4.8008 10.801 16.801 6 25.199-3.6016 6-9.6016 8.3984-15.602 8.3984-3.5977 1.1992-6 0-9.5977-2.3984zm426-33.602c-6-7.1992-4.8008-19.199 2.3984-25.199s19.199-4.8008 25.199 2.3984 4.8008 19.199-2.3984 25.199c-3.6016 2.3984-7.1992 3.6016-12 3.6016-4.8008 1.1992-9.6016-1.1992-13.199-6zm-384-25.199c-7.1992-7.1992-6-18 1.1992-25.199 7.1992-7.1992 19.199-6 25.199 1.1992 7.1992 7.1992 6 19.199-1.1992 25.199-3.6016 3.6016-8.3984 4.8008-12 4.8008-4.8008 0-9.6016-1.1992-13.199-6zm334.8-20.402c-8.3984-6-9.6016-16.801-4.8008-25.199 6-8.3984 16.801-9.6016 25.199-4.8008 8.3984 6 9.6016 16.801 4.8008 25.199-3.6016 4.8008-9.6016 7.1992-14.398 7.1992-3.6016 1.2031-7.2031 0.003906-10.801-2.3984zm-279.6-24c-4.8008-8.3984-1.1992-19.199 7.1992-24 8.3984-4.8008 19.199-1.1992 24 7.1992 4.8008 8.3984 1.1992 19.199-7.1992 24-2.3984 1.1992-6 2.3984-8.3984 2.3984-6 0.003906-12-3.5977-15.602-9.5977zm219.6-6c-9.6016-3.6016-14.398-13.199-10.801-22.801 3.6016-9.6016 13.199-14.398 22.801-10.801 9.6016 3.6016 14.398 13.199 10.801 22.801-2.3984 7.1992-9.6016 12-16.801 12-1.2031 0.003906-3.6016-1.1992-6-1.1992zm-153.6-22.797c-2.3984-9.6016 3.6016-19.199 14.398-21.602 9.6016-2.3984 19.199 4.8008 21.602 14.398 2.3984 9.6016-4.8008 19.199-14.398 21.602h-3.6016c-8.3984 0-15.602-6-18-14.398zm88.801 8.3984c-9.6016-1.1992-18-9.6016-16.801-19.199 0-9.6016 9.6016-16.801 19.199-16.801 9.6016 0 18 9.6016 16.801 19.199-1.1992 9.6016-8.3984 16.801-19.199 16.801z"/>
 <path d="m600 1002c-188.4 0-342-153.6-342-342s153.6-342 342-342 342 153.6 342 342-153.6 342-342 342zm0-648c-169.2 0-306 136.8-306 306s136.8 306 306 306 306-136.8 306-306-136.8-306-306-306z"/>
 <path d="m723.6 684c22.801-50.398 30-102 16.801-138-15.602-42-64.801-82.801-140.4-76.801-1.1992 0-136.8 12-140.4 62.398-1.1992 15.602 9.6016 27.602 26.398 36-6 20.398-6 39.602-4.8008 49.199l-26.398 50.398c-2.3984 4.8008-2.3984 9.6016-1.1992 14.398 1.1992 4.8008 4.8008 8.3984 9.6016 10.801l18 8.3984c1.1992 24-4.8008 50.398-4.8008 50.398-2.3984 9.6016 2.3984 18 12 21.602 4.8008 1.1992 20.398 4.8008 39.602 4.8008 4.8008 0 10.801 0 15.602-1.1992 2.3984 12 3.6016 44.398 4.8008 72 0 7.1992 4.8008 14.398 12 16.801 2.3906-1.1953 3.5898-1.1953 5.9883-1.1953 4.8008 0 10.801-2.3984 14.398-6 49.199-58.801 139.2-82.801 140.4-84 6-1.1992 10.801-6 12-12 2.3984-6 1.1992-12-3.6016-16.801 0.007812 0-21.594-27.598-5.9922-61.199zm-120-180c64.801-4.8008 96 31.199 103.2 54 9.6016 26.398 3.6016 69.602-15.602 110.4 0 1.1992 0 1.1992-1.1992 2.3984l-12-4.8008c6-13.199 7.1992-26.398 3.6016-38.398-3.6016-14.398-14.398-25.199-27.602-28.801-12-2.3984-30-1.1992-52.801 20.398 1.1992-10.801 0-25.199-7.1992-37.199-3.6016-6-8.3984-13.199-16.801-19.199 15.602-3.6016 33.602-7.1992 51.602-4.8008 9.6016 1.1992 19.199-6 20.398-15.602 1.1992-9.6016-6-19.199-15.602-20.398-52.801-6-104.4 20.398-106.8 21.602 0 0-1.1992 0-1.1992 1.1992-15.602-4.8008-24-8.3984-27.602-10.801 14.402-10.797 61.203-26.395 105.61-29.996zm-20.402 300c-1.1992-19.199-2.3984-30-4.8008-38.398 15.602-7.1992 30-18 39.602-34.801 4.8008-8.3984 1.1992-19.199-8.3984-24-8.3984-4.8008-19.199-1.1992-24 8.3984-13.199 25.199-49.199 26.398-70.801 24 2.3984-14.398 3.6016-36 1.1992-55.199-1.1992-6-4.8008-10.801-10.801-13.199l-9.6016-4.8008 9.6016-18h25.199c9.6016 0 18-8.3984 18-18s-8.3984-18-18-18h-13.199c0-7.1992 0-19.199 3.6016-32.398 7.1992 1.1992 13.199 3.6016 20.398 4.8008 10.801 2.3984 18 7.1992 22.801 14.398 6 10.801 2.3984 25.199 0 30-3.6016 9.6016 1.1992 19.199 9.6016 22.801l24 9.6016c7.1992 2.3984 15.602 1.1992 20.398-4.8008 16.801-19.199 26.398-21.602 27.602-21.602 0 0 1.1992 2.3984 1.1992 7.1992s-2.3984 19.199-20.398 34.801c-7.1992 6-8.3984 18-1.1992 25.199 3.6016 3.6016 8.3984 6 13.199 6 3.6016 0 8.3984-1.1992 12-4.8008 2.3984-2.3984 4.8008-3.6016 6-6l24 8.3984c0 15.602 2.3984 30 7.1992 39.602-24 9.6016-67.203 28.801-104.4 58.801z"/>
</svg>
