<?xml version="1.0" encoding="UTF-8"?>
<svg width="1200pt" height="1200pt" version="1.1" viewBox="0 0 1200 1200" xmlns="http://www.w3.org/2000/svg">
 <path d="m600 56.25c-300.11 0-543.75 243.64-543.75 543.75s243.64 543.75 543.75 543.75 543.75-243.64 543.75-543.75-243.64-543.75-543.75-543.75zm0 37.5c279.41 0 506.25 226.84 506.25 506.25s-226.84 506.25-506.25 506.25-506.25-226.84-506.25-506.25 226.84-506.25 506.25-506.25z" fill-rule="evenodd"/>
 <path d="m600 158.18c-243.86 0-441.82 197.96-441.82 441.82s197.96 441.82 441.82 441.82 441.82-197.96 441.82-441.82-197.96-441.82-441.82-441.82zm0 37.5c223.16 0 404.32 181.16 404.32 404.32 0 223.16-181.16 404.32-404.32 404.32-223.16 0-404.32-181.16-404.32-404.32 0-223.16 181.16-404.32 404.32-404.32z" fill-rule="evenodd"/>
 <path d="m618.56 293.25h-37.125l-41.773 306.75 41.773 306.75h37.125l41.773-306.75zm-18.562 141.49 22.5 165.26-22.5 165.26-22.5-165.26 22.5-165.26z" fill-rule="evenodd"/>
 <path d="m568.73 618.26-133.99-18.262 133.99-18.262-5.0625-37.125-270.41 36.824v37.125l270.41 36.824z" fill-rule="evenodd"/>
 <path d="m631.27 581.74 133.99 18.262-124.61 16.988 5.0625 37.125 261.04-35.551v-37.125l-270.41-36.824z" fill-rule="evenodd"/>
 <path d="m176.93 618.75h72.824v-37.5h-72.824z" fill-rule="evenodd"/>
 <path d="m950.25 618.75h72.824v-37.5h-72.824z" fill-rule="evenodd"/>
 <path d="m581.25 176.93v72.824h37.5v-72.824z" fill-rule="evenodd"/>
 <path d="m581.25 950.25v72.824h37.5v-72.824z" fill-rule="evenodd"/>
 <path d="m885.9 287.59-51.488 51.488 26.512 26.512 51.488-51.488z" fill-rule="evenodd"/>
 <path d="m339.07 834.41-51.488 51.488 26.512 26.512 51.488-51.488z" fill-rule="evenodd"/>
 <path d="m287.59 314.1 51.488 51.488 26.512-26.512-51.488-51.488z" fill-rule="evenodd"/>
 <path d="m834.41 860.93 51.488 51.488 26.512-26.512-51.488-51.488z" fill-rule="evenodd"/>
</svg>
