<?xml version="1.0" encoding="UTF-8"?>
<svg width="1200pt" height="1200pt" version="1.1" viewBox="0 0 1200 1200" xmlns="http://www.w3.org/2000/svg">
 <path d="m497.45 914.54c-131.37-38.062-201.94-136.65-301.85-73.746-50.484 31.719-76.918 88.547-87.754 145.38-5.5508 29.34-8.9883 61.059-7.6641 90.66 0.52734 12.688 1.8516 25.902 3.1719 38.59 0.26562 2.1133 5.0234 17.711 3.9648 19.297-125.55-210.66-105.99-514.62 57.887-699.12 86.434-97.004 206.17-153.57 334.36-168.9 65.551-7.9297 134.8-2.1133 197.97 17.445 62.906 19.559 120.53 54.977 181.06 79.031 70.574 28.02 142.2 0.79297 179.73-64.758 41.234-72.16 39.117-157.27 31.188-236.83 43.348 103.88 82.203 199.56 80.352 314.54-1.5859 108.63-28.812 216.74-86.168 310.04-60.527 98.324-152.51 176.56-260.62 216.48-49.957 18.504-100.7 27.754-153.83 31.188-43.605 2.9062-124.22-5.5508-171.8-19.293zm151.19-401.5c-46.52-28.281-107.31-13.48-135.59 33.039s-13.48 107.31 33.039 135.59 107.31 13.48 135.59-33.039c28.285-46.52 13.48-107.31-33.039-135.59z"/>
</svg>
