<?xml version="1.0" encoding="UTF-8"?>
<svg width="1200pt" height="1200pt" version="1.1" viewBox="0 0 1200 1200" xmlns="http://www.w3.org/2000/svg">
 <path d="m904.5 600c0 167.9-136.6 304.5-304.5 304.5s-304.5-136.6-304.5-304.5c0-38.953 7.2188-76.781 21.516-112.41 2.5781-6.4219 9.8438-9.5156 16.266-6.9375s9.5156 9.8438 6.9375 16.266c-13.078 32.672-19.734 67.359-19.734 103.08 0 154.13 125.39 279.52 279.52 279.52s279.52-125.39 279.52-279.52-125.39-279.52-279.52-279.52c-76.641 0-148.13 30.422-201.24 85.641-4.7812 4.9688-12.703 5.1562-17.672 0.32812-4.9688-4.7812-5.1094-12.703-0.32812-17.672 57.891-60.188 135.74-93.328 219.28-93.328 167.9 0 304.5 136.6 304.5 304.5zm-561.84-138.05c1.9688 1.125 4.125 1.6875 6.2344 1.6875 4.3125 0 8.5312-2.25 10.828-6.2344 3.2812-5.6719 7.0312-11.484 11.578-17.859 4.0312-5.625 2.7188-13.406-2.9062-17.438-5.5781-3.9844-13.453-2.7188-17.438 2.9062-5.0156 7.0312-9.2344 13.547-12.891 19.875-3.4688 6-1.4062 13.641 4.5938 17.062zm446.68 48.047c2.1562 4.5 6.6094 7.125 11.297 7.125 1.7812 0 3.6094-0.375 5.3438-1.2188 6.2344-2.9531 8.9062-10.406 5.9062-16.641-23.25-48.797-62.906-88.359-111.75-111.42-6.2812-2.9531-13.688-0.28125-16.641 5.9531-2.9531 6.2344-0.28125 13.688 5.9531 16.641 43.641 20.625 79.125 55.969 99.891 99.562zm292.92 92.016c-0.046874 8.9531-4.6875 17.062-12.422 21.656l-66.234 39.188c-10.031 5.9531-14.812 17.438-11.906 28.031 7.2656 26.438 17.719 51.984 31.031 75.891l42.984 77.109c4.3594 7.8281 4.3125 17.203-0.1875 24.984s-12.516 12.516-21.516 12.656l-88.172 1.3125c-28.031 0.42188-55.969 4.3125-83.016 11.531-11.016 2.9531-18.984 12.844-19.266 24l-12.562 1.6875 12.516 0.23438-1.5 76.969c-0.1875 8.9531-4.9219 17.016-12.75 21.469-7.8281 4.4531-17.109 4.5-24.984 0.09375l-66.984-37.734c-10.172-5.7188-22.453-4.125-30.234 3.75-19.312 19.547-36.188 41.344-50.25 64.875l-45.141 75.516c-4.5938 7.7344-12.703 12.328-21.703 12.328-8.9531 0-17.109-4.5938-21.703-12.328l-45.141-75.516c-14.391-24.094-31.781-46.406-51.609-66.281-8.0625-8.0625-20.578-9.9844-30.469-4.6875l-69.047 38.109c-7.875 4.3594-17.203 4.2188-24.938-0.28125-7.7812-4.5469-12.469-12.609-12.562-21.562l-0.79688-76.688c-0.14062-11.719-7.6875-21.609-18.328-24.375-26.531-6.9375-53.859-10.641-81.188-11.062l-88.172-1.3125c-9-0.14062-17.016-4.8281-21.516-12.656-4.5-7.7812-4.5469-17.109-0.1875-24.984l42.938-77.109c13.594-24.422 24.188-50.484 31.453-77.438 3-11.109-1.6406-22.922-11.203-28.828l-67.547-40.781c-7.6875-4.6406-12.234-12.797-12.234-21.75 0.046874-8.9531 4.6875-17.062 12.422-21.656l66.234-39.188c10.031-5.9531 14.812-17.438 11.906-28.078-7.2656-26.438-17.719-51.984-31.031-75.844l-42.984-77.109c-4.3594-7.8281-4.3125-17.203 0.1875-24.984s12.516-12.516 21.516-12.656l88.172-1.3125c27.984-0.42188 55.922-4.3125 83.016-11.531 11.016-2.9531 18.984-12.844 19.266-24.047l0.046876-1.9219 1.5-76.969c0.1875-8.9531 4.9219-17.016 12.75-21.469 7.8281-4.4531 17.156-4.4531 24.984-0.09375l66.984 37.734c10.172 5.7188 22.5 4.0781 30.234-3.75 19.266-19.547 36.188-41.391 50.25-64.875l45.141-75.516c4.5938-7.7344 12.703-12.328 21.703-12.328 8.9531 0 17.109 4.5938 21.703 12.328l45.141 75.516c14.297 23.906 31.5 46.031 51.188 65.812 8.3906 8.4375 21.75 10.172 32.531 4.2656l67.406-37.172c7.875-4.3594 17.203-4.2188 24.938 0.28125 7.7812 4.5469 12.469 12.609 12.562 21.562l0.79688 76.688c0.14062 11.672 7.6875 21.609 18.422 24.422 26.484 6.8906 53.812 10.594 81.141 11.016l88.172 1.3125c9 0.14062 17.016 4.8281 21.516 12.656 4.5 7.7812 4.5469 17.109 0.1875 24.984l-42.938 77.109c-13.594 24.375-24.188 50.438-31.5 77.484-2.9531 11.062 1.6406 22.922 11.203 28.781l67.547 40.781c7.6875 4.6406 12.234 12.797 12.234 21.75zm-25.172 0.14062-67.781-41.438c-18.891-11.625-28.031-34.922-22.172-56.578 7.8281-29.016 19.219-57 33.797-83.156l42.938-77.109-88.406-1.7812c-29.344-0.46875-58.641-4.4062-87.047-11.812-21.609-5.625-36.844-25.406-37.125-48.047l-0.84375-76.969-67.594 36.797c-20.766 11.438-46.359 7.9219-62.578-8.3438-21.094-21.234-39.562-44.953-54.891-70.594l-45.141-75.516-45.609 75.516c-15.047 25.219-33.188 48.656-53.906 69.609-15.656 15.844-40.359 19.172-60.047 8.1094l-67.266-37.875-1.9219 77.203s-0.046876 2.1094-0.046876 2.1562c-0.65625 22.172-16.172 41.672-37.828 47.484-29.109 7.7812-59.062 11.906-89.109 12.375l-88.172 1.3125 42.703 77.531c14.297 25.641 25.5 53.016 33.281 81.422 5.9062 21.469-3.5625 44.531-23.016 56.062l-66.469 39.328 67.688 41.344c18.984 11.672 28.125 34.969 22.266 56.672-7.8281 28.969-19.172 56.906-33.797 83.109l-42.938 77.109 88.406 1.7812c29.391 0.46875 58.688 4.4062 87.141 11.859 21.562 5.625 36.75 25.312 37.031 47.906l0.84375 77.062 69.703-37.969c7.4062-3.9844 15.562-5.9531 23.719-5.9531 13.266 0 26.484 5.1562 36.281 14.953 21.328 21.328 39.938 45.234 55.406 71.109l45.141 75.516 45.609-75.516c15.094-25.219 33.188-48.656 53.906-69.609 15.656-15.844 40.312-19.172 60-8.1094l67.266 37.875 1.9219-77.203s0.046874-2.1094 0.046874-2.1562c0.65625-22.172 16.172-41.672 37.828-47.484 29.062-7.7344 59.062-11.906 89.109-12.375l88.172-1.3125-42.703-77.531c-14.297-25.641-25.5-53.062-33.281-81.422-5.9062-21.469 3.5625-44.531 23.016-56.016l66.516-39.375z"/>
</svg>
