<?xml version="1.0" encoding="UTF-8"?>
<svg width="1200pt" height="1200pt" version="1.1" viewBox="0 0 1200 1200" xmlns="http://www.w3.org/2000/svg">
 <path d="m899.02 616.08c-0.89062-2.25-2.625-4.0312-4.7812-4.9688-2.2031-0.9375-4.6875-0.98438-6.8906-0.09375l-52.594 20.812-85.5-188.72c-1.3594-2.9531-4.1719-4.9688-7.4531-5.25l-32.391-2.7656-48.984-102.8c-1.4062-2.9531-4.3594-4.9219-7.6406-5.1094-3.375-0.046875-6.4219 1.4531-8.1562 4.2656l-20.344 32.766-22.031-19.922c-2.0156-1.7812-4.6875-2.625-7.3594-2.25-2.6719 0.42188-5.0156 1.9688-6.375 4.3125l-78.234 131.95-32.109-31.875c-2.0625-2.0156-4.9219-2.9531-7.7344-2.4844s-5.2969 2.2031-6.6094 4.7812l-79.406 154.6-53.203 13.781c-2.0156 0.51562-3.75 1.6875-4.9688 3.375-1.1719 1.5938-118.41 159.79-211.92 236.44-2.9531 2.3906-4.0312 6.4219-2.7656 9.9844s4.6875 5.9531 8.4844 5.9531h960c3.75 0 7.0781-2.2969 8.3906-5.8125s0.32812-7.4531-2.4375-9.9375c-1.4062-1.2656-141.66-126.1-186.94-240.98zm56.016 238.74-85.125-74.062-17.156-83.672-36.469 107.25 20.016 50.438h-152.34l-53.203-132.24-61.5 28.172-92.953-102.98-28.969 93.328 38.625-13.922 53.625 61.125-42.516 66.562h-352.78c53.156-47.578 109.69-113.81 148.4-161.9l60.188 29.672 38.625 96.797 5.3438-121.22-56.766-64.828 52.734-13.641c2.4844-0.65625 4.5938-2.2969 5.7656-4.5938l75.656-147.24 31.547 31.359c1.9688 1.9688 4.6875 2.8594 7.4531 2.5312 0.32812-0.046875 0.5625-0.23438 0.89062-0.32812l29.719 127.03 77.25-92.25 4.9219-149.29c0.51562 0 1.0312 0.1875 1.5469 0.14062 2.625-0.375 4.9688-1.875 6.375-4.1719l17.344-27.938 44.109 92.578c1.3594 2.8594 4.1719 4.8281 7.3594 5.1094l1.8281 0.14062 7.6406 65.25-58.969 104.06 79.359 145.87 7.5-139.45 45.984-60.422 35.812 79.031c1.9688 4.3594 7.0781 6.4219 11.531 4.6406l52.312-20.719c39.891 92.953 132.74 187.22 171.28 223.82h-101.95z"/>
</svg>
