<?xml version="1.0" encoding="UTF-8"?>
<svg width="1200pt" height="1200pt" version="1.1" viewBox="0 0 1200 1200" xmlns="http://www.w3.org/2000/svg">
 <path d="m183.28 1154.9c-90.703-89.062-79.312-162.19-17.812-225.52 56.578-58.312 158.63-104.25 255.74-147.98 94.969-42.75 185.11-83.438 210.24-124.31l0.375-0.60938c23.297-39.703-37.594-82.922-100.69-127.64-64.922-45.984-131.95-93.469-140.86-157.69l-0.1875-2.2969c-3.5156-59.062 46.453-90.797 92.062-119.72 18.469-11.766 36.328-23.109 44.672-33.281l1.2656-1.5c4.5938-5.9531 7.9688-11.625 10.031-16.875l0.09375-0.14063h-0.09375c3.7031-9.7031 3.8906-19.688 0.32812-29.25v-0.046874h-0.09375c-4.1719-11.391-13.828-23.391-28.219-35.156-18.328-14.906-43.922-29.109-76.641-41.766-14.812-5.7188-22.172-22.5-16.453-37.312 4.5469-11.766 15.984-18.797 27.984-18.375v-0.046874c83.016 3.4219 148.97 13.219 197.72 29.016l0.1875 0.046876v-0.046876c54.281 17.578 89.672 43.922 105.61 78.328 32.484 70.078-7.2188 124.45-41.109 170.63l-0.89062 1.0781-12.656 17.766c-13.078 19.031 12.281 44.109 52.828 71.812 29.906 20.531 67.969 41.766 106.55 63.328 108.05 60.375 222.47 124.31 224.29 208.74 1.3125 59.484-42.047 90.375-90.844 125.21-41.672 29.719-88.734 63.328-100.59 120.52v0.09375c-6.375 30.984 3.5156 61.359 29.766 90.75 29.859 33.469 79.875 65.906 149.58 96.703 14.578 6.375 21.188 23.484 14.812 38.062-4.6875 10.781-15.328 17.25-26.391 17.25v0.046875h-848.86c-8.6719 0-16.406-3.7969-21.75-9.7969zm23.484-185.26c-36.141 37.219-42.609 81.375 10.266 137.21h722.02c-27.094-18-49.172-36.609-66.281-55.828-39.094-43.781-53.438-90.891-43.125-140.86 16.453-79.453 73.266-120.1 123.71-155.95 35.531-25.359 67.125-48 66.516-77.062-1.125-51.188-100.69-106.92-194.72-159.37-39.703-22.172-78.891-44.109-110.91-66.094-68.438-46.734-106.69-95.578-68.062-151.97l0.46875-0.60938 13.078-18.188 1.125-1.7344c24.609-33.562 53.531-73.125 35.297-112.31-8.8125-19.031-32.625-34.969-71.156-47.531v-0.046875c-17.391-5.5781-37.5-10.406-60.188-14.391 12.891 13.781 22.219 28.266 27.797 43.219h-0.09375c8.6719 23.109 8.3438 46.781-0.60938 70.031h-0.09375c-4.2188 11.016-10.547 21.797-18.422 31.875l-1.7812 2.4375c-14.016 17.156-35.812 31.031-58.453 45.422-31.359 19.781-65.578 41.672-65.438 66.328 6.2344 39.188 62.484 78.984 116.86 117.56 85.125 60.375 167.58 118.78 117.19 203.63l-1.0781 1.9219c-34.5 56.016-132.52 100.31-235.78 146.76-92.344 41.531-189.37 85.266-238.13 135.56zm499.78-655.22c-5.8594 7.125-14.344 10.875-23.016 10.688m-114.66 669.28c5.4844 14.953-2.2031 31.594-17.156 37.031-14.953 5.4844-31.594-2.1562-37.031-17.156-39.281-106.31 66.75-162.56 168.32-216.14 44.719-23.625 88.781-46.969 112.45-71.625 20.578-21.328 22.406-47.531-15.797-84.281-11.484-11.016-11.859-29.344-0.84375-40.781 11.016-11.484 29.297-11.859 40.781-0.84375 69.844 67.266 61.875 119.67 17.484 165.84-30.141 31.266-78.234 56.812-127.22 82.688-79.641 42.094-162.79 86.203-141 145.26"/>
</svg>
