<?xml version="1.0" encoding="UTF-8"?>
<svg width="1200pt" height="1200pt" version="1.1" viewBox="0 0 1200 1200" xmlns="http://www.w3.org/2000/svg">
 <path d="m513.71 932.58c-18.703 0-37.5-4.7812-53.859-13.641-3.8438-2.0625-5.25-6.8906-3.1406-10.734 2.0625-3.8438 6.8906-5.25 10.734-3.1406 16.219 8.8594 35.297 12.891 53.672 11.438 4.3594-0.375 8.1562 2.9062 8.4844 7.2188 0.375 4.3594-2.8594 8.1562-7.2188 8.4844-2.8594 0.23438-5.7188 0.32812-8.5781 0.32812z"/>
 <path d="m596.16 939.56c-8.25 0-16.453-0.32812-24.656-0.98438-3.8906-0.32812-6.9375-3.4219-7.2188-7.2656-0.28125-3.8906 2.2969-7.4062 6.1406-8.2969 111.66-25.734 174-64.828 230.16-144.32 29.625-41.906 46.219-93.281 46.828-144.66 0.65625-55.828-15.094-113.06-42.094-153.14-2.25-3.3281-1.6406-7.7812 1.3594-10.359 3-2.625 7.5-2.5781 10.453 0.046875 40.406 35.906 67.875 84.094 78.469 134.48 3.4688-31.781 3.75-66.797-3.0938-100.78-0.84375-4.0312 1.6406-8.0625 5.625-9.1406 3.9844-1.0781 8.1562 1.0312 9.5625 4.9688 36.656 102.42 17.531 224.44-48.703 310.78-61.219 79.781-162.24 128.68-262.78 128.68zm249.61-411.79c11.578 33.047 17.812 70.078 17.391 106.5-0.60937 54.516-18.281 109.03-49.734 153.56-47.344 67.078-98.812 106.59-177.89 133.36 82.125-10.734 160.64-54.375 210.89-119.91 40.219-52.5 62.25-118.88 63.75-185.34-2.8125 21.656-6.9375 41.531-11.062 58.266-0.98438 4.0312-4.9688 6.6094-9.0469 5.8594-4.0781-0.70312-6.9375-4.5-6.4688-8.5781 5.1094-48.281-9.1875-100.41-37.828-143.63z"/>
 <path d="m319.36 492.14c-0.9375 0-1.875-0.14062-2.8125-0.51562-3.6562-1.4062-5.7188-5.2031-4.9219-9 21.328-102.52 107.25-188.34 213.74-213.56 108.19-25.594 224.16 5.8125 295.36 79.969 9.2344 9.6562 20.578 26.766 25.078 43.312 0.89062 3.2812-0.42188 6.75-3.2344 8.625s-6.5156 1.7812-9.1875-0.32812c-24.609-18.938-54.141-33.75-85.594-43.219 20.531 19.547 35.016 43.781 43.172 72.422 0.98438 3.5156-0.51562 7.2188-3.7031 9.0469-3.1406 1.7812-7.1719 1.2188-9.7031-1.5-58.875-63.047-148.69-96.141-234.37-86.344-88.266 10.078-175.5 65.203-217.03 137.11-1.4531 2.5312-4.0781 3.9375-6.8438 3.9375zm280.03-215.81c-23.578 0-47.297 2.625-70.359 8.1094-84.047 19.875-154.5 79.594-187.18 155.02 48.844-55.969 122.68-95.297 199.55-104.06 78.422-8.9531 160.03 16.031 220.92 66.141-12.141-21.797-29.578-39.375-52.781-53.297-3.2344-1.9688-4.6406-5.9062-3.375-9.4688 1.3125-3.5625 4.9219-5.6719 8.6719-5.0625 36.703 6.0469 72.562 19.219 103.55 37.828-3.0938-4.5-6.2812-8.4844-9.1406-11.484-51.234-53.344-130.08-83.625-209.95-83.625z"/>
 <path d="m871.92 498.47c-0.65625 0-1.2656-0.09375-1.875-0.23438-14.953-3.7031-33.938-14.812-42.609-31.266-9.8906-18.891-2.5312-43.031 1.0781-52.5 0.9375-2.4375 3-4.2188 5.5312-4.875 2.5312-0.60938 5.2031 0.09375 7.1719 1.7812 22.219 20.062 36.281 48.703 38.578 78.609 0.1875 2.5312-0.84375 5.0156-2.7656 6.6562-1.4531 1.2188-3.2344 1.875-5.1094 1.875zm-32.203-66.047c-1.9688 9.6094-2.1094 19.781 1.7812 27.188 3.8438 7.3594 11.672 14.297 20.859 18.938-3.5156-16.969-11.344-32.953-22.547-46.125z"/>
 <path d="m504.19 825.71c-30.422 0-60.797-5.5781-88.922-16.922-3.1875-1.2656-5.2031-4.5-4.9219-8.0156 0.28125-3.4219 2.8125-6.3281 6.1875-7.0312 5.5781-1.2188 10.594-3.375 15.797-5.7656-47.578-17.812-90.891-51.562-118.64-93.375-32.062-48.234-45.797-108.84-37.594-166.22 0.60938-4.1719 4.3125-7.125 8.5781-6.75 4.2188 0.42188 7.3125 3.9844 7.1719 8.25-0.9375 19.781 5.6719 41.25 18.469 61.219 1.3594-52.828 31.359-107.34 79.969-141.94 3.0469-2.1562 7.2188-1.9219 9.9375 0.65625 2.7656 2.5781 3.3281 6.6562 1.4062 9.8906-36.469 60.703-39.75 139.31-8.3906 200.34 31.828 62.016 98.25 103.08 165.94 103.12h3.1406c69.75-1.3125 136.78-48.844 159.37-113.02 1.4531-4.0312 5.8125-6.1875 9.8906-4.875s6.375 5.625 5.1094 9.75c-18.469 62.297-66.375 117.33-128.06 147.14-32.297 15.609-68.344 23.484-104.39 23.484zm-62.578-24.562c52.5 15.141 110.95 10.594 160.18-13.172 20.156-9.75 38.766-22.359 55.172-37.125-28.312 17.25-61.031 27.516-94.312 28.125h-3.4219c-73.5 0-145.5-44.531-180-111.7-27.938-54.328-30.422-121.55-8.2969-180.1-33.609 36.422-50.484 84.422-43.125 128.02 0.60937 3.4219-1.2188 6.8906-4.3125 8.3906-3.1406 1.5-6.9375 0.79688-9.2812-1.7812-6.7031-7.3125-15.281-18.047-22.594-31.406 4.4062 33.938 16.5 66.938 35.391 95.391 29.906 45.047 79.125 80.062 131.58 93.797 3.5156 0.9375 5.9531 4.1719 5.8594 7.7812-0.09375 3.6562-2.625 6.75-6.1875 7.5469-5.8125 1.2656-11.062 3.6094-16.5 6.0938z"/>
 <path d="m680.53 779.34c-2.7188 0-5.3438-1.4531-6.8438-3.9375-2.0625-3.6094-0.98438-8.25 2.4844-10.547 53.016-35.062 79.453-106.97 61.5-167.21-18.047-60.562-80.953-106.03-143.48-103.41-26.625 1.0781-50.625 10.031-67.641 25.172-18.562 16.5-28.312 41.484-24.891 63.516 2.7188 17.297 13.828 32.391 28.219 40.078-5.8125-18.141-2.0625-38.484 11.156-51.234 17.812-17.25 48-20.484 70.266-7.5938 20.906 12.141 34.078 37.219 32.766 62.578-1.2188 23.719-14.297 46.5-35.016 60.984-18.844 13.219-42.891 19.172-67.734 16.734-53.859-5.2969-101.34-53.297-108.14-109.27-6.4219-52.781 22.547-109.83 70.453-138.74 45-27.188 105.05-30.469 156.71-8.5781 3.2812 1.4062 5.2031 4.7812 4.7812 8.2969-0.46875 3.5156-3.2344 6.2812-6.75 6.7969-0.60938 0.09375-1.2188 0.14062-1.8281 0.28125 35.016 10.547 67.219 31.406 88.734 58.641 31.781 40.219 44.062 94.125 32.953 144.14-10.359 46.688-44.672 87.703-94.125 112.5-1.125 0.5625-2.3438 0.84375-3.5156 0.84375zm-81.047-300.98c68.344 0 133.6 48.422 153.32 114.8 10.781 36.375 7.5938 75.609-6.9375 110.25 7.9688-12.797 13.688-26.578 16.828-40.875 10.078-45.422-1.125-94.406-29.953-130.92-28.266-35.859-77.156-59.531-124.5-60.234-4.125-0.09375-7.5-3.2812-7.7812-7.4062-0.23438-4.125 2.7188-7.7344 6.7969-8.2969 5.4375-0.75 11.062-1.7344 16.641-2.7656-39-8.2969-79.922-2.3906-112.17 17.062-42.703 25.781-68.578 76.5-62.906 123.32 5.9062 48.938 47.25 90.844 93.984 95.484 20.766 2.0625 41.578-3 57.141-13.922 16.453-11.578 27.281-30.328 28.266-48.938 1.0312-19.547-8.9531-38.859-24.891-48.094-16.406-9.4688-38.484-7.2188-51.375 5.2969-12.141 11.766-12.188 33.281-0.14062 48 2.0625 2.4844 2.3438 5.9062 0.84375 8.7656-1.5 2.8125-4.5938 4.4531-7.7812 4.125-28.781-2.9531-54.141-28.172-58.922-58.594-4.3594-27.656 7.125-57.422 29.953-77.766 19.734-17.578 47.25-27.891 77.531-29.156 1.9688-0.09375 3.9375-0.14063 5.9062-0.14063z"/>
</svg>
