<?xml version="1.0" encoding="UTF-8"?>
<svg width="1200pt" height="1200pt" version="1.1" viewBox="0 0 1200 1200" xmlns="http://www.w3.org/2000/svg">
 <path d="m565.77 117.94-430.88 176.22c-13.082 5.3516-23.484 15.719-28.875 28.785l-1.0977 2.8906c-3.0273 8.7383-3.6875 17.988-2.0312 26.902l0.25781 1.2148-0.19141 1.3008c-0.23828 2.043-0.35938 4.1055-0.35938 6.1836v474.65l0.066406 2.6172c0.98438 19.977 13.188 37.789 31.648 45.863l423.37 185.1 1.707 1.4023c9.1719 7.1445 20.527 11.141 32.48 11.141l2.7383-0.10938 2.0156 0.09375 2.9297-0.070312c11.621-0.5625 22.133-4.5625 30.66-11.293l1.3906-1.1641 423.38-185.1 2.6133-1.2383c18.059-9.3359 29.102-27.449 29.102-47.242v-474.65l-0.12109-3.4766-0.26953-2.7891c-0.21484-1.8008-0.49609-3.5-0.87891-5.25l0.054688-0.30078c2.9414-23.609-10.398-46.758-33.121-55.711l-447.17-176.23c-12.684-4.9961-26.809-4.9062-39.426 0.25391zm26.227 33.238 447.17 176.23c7.2578 2.8594 11.527 10.266 10.594 17.785l-0.28125 1.6094c-0.55859 2.4922-0.57812 5.0703-0.070312 7.5586l0.48438 1.8477c0.39844 1.25 0.65234 2.543 0.75391 3.8672l0.070313 2.0703-0.015626 473.95c0 6.3242-3.5312 12.117-9.125 15.012l-1.5469 0.72656-425.48 186.02c-1.4844 0.64844-2.8711 1.4961-4.125 2.5117l-1.2109 1.0742c-3.1445 3.0586-7.3047 4.7812-11.785 4.7812l-1.9805-0.10547h-1.6172l-2.7695 0.125c-3.1445-0.015625-6.6484-1.2852-9.5703-3.5742l-1.4062-1.2266c-1.5469-1.5078-3.3555-2.7227-5.3359-3.5859l-426.02-186.26c-6.1562-2.6914-10.137-8.7734-10.137-15.492v-474.65c0-0.89844 0.070312-1.7852 0.20703-2.6484l0.25-1.2852c0.59375-2.4961 0.64453-5.0781 0.16016-7.5781l-0.46484-1.8594c-1.1406-3.7227-0.98047-7.6953 0.54297-11.387 1.7266-4.1758 5.0469-7.4883 9.2305-9.1992l430.88-176.22c4.0312-1.6484 8.5469-1.6797 12.598-0.082031z"/>
 <path d="m468.11 483.57 122.89 39.969 0.89453 0.21875c0.90625 0.14844 1.8359 0.085937 2.7227-0.1875l139.44-42.836-109.15 92.355-0.72656 0.73438c-0.66406 0.79297-1.1133 1.7461-1.3008 2.7695l-25.527 139.92-29.871-144.35c-0.26172-1.2812-0.9375-2.4375-1.9219-3.3008z"/>
 <path d="m304.41 672.46c4.6758-4.6953 12.273-4.7109 16.969-0.035157 4.3359 4.3125 4.6836 11.121 1.0352 15.836l-0.99609 1.1328-123.14 123.7c-4.6758 4.6953-12.273 4.7148-16.973 0.039063-4.332-4.3164-4.6836-11.125-1.0312-15.84l0.99609-1.1328z"/>
 <path d="m295.21 733.22c4.6758-4.6953 12.273-4.7148 16.969-0.039062 4.3359 4.3164 4.6836 11.121 1.0352 15.84l-0.99609 1.1328-61.57 61.852c-4.6758 4.6953-12.273 4.7109-16.969 0.035157-4.3359-4.3125-4.6875-11.121-1.0352-15.836l0.99609-1.1328z"/>
 <path d="m867.98 704.02c4.1406-4.1562 10.863-4.1719 15.02-0.03125 3.8398 3.8203 4.1484 9.8477 0.91797 14.023l-0.88281 1.0039-163.47 164.3c-4.1367 4.1602-10.863 4.1719-15.02 0.035157-3.8359-3.8242-4.1445-9.8516-0.91406-14.023l0.88281-1.0039z"/>
 <path d="m843.47 778.3c4.6758-4.6953 12.273-4.7148 16.969-0.039062 4.3359 4.3164 4.6836 11.121 1.0352 15.84l-0.99609 1.1328-86.199 86.59c-4.6758 4.6953-12.273 4.7148-16.973 0.039062-4.332-4.3164-4.6836-11.121-1.0312-15.84l0.99609-1.1328z"/>
 <path d="m520.1 219.02c4.6758-4.6992 12.273-4.7148 16.973-0.039063 4.3359 4.3164 4.6836 11.121 1.0352 15.836l-0.99609 1.1328-110.83 111.33c-4.6758 4.6992-12.273 4.7148-16.973 0.039062-4.332-4.3164-4.6836-11.121-1.0312-15.836l0.99609-1.1328z"/>
 <path d="m506.36 289.45c4.5938-4.7773 12.191-4.9258 16.969-0.33203 4.4102 4.2383 4.8789 11.035 1.3086 15.816l-0.97266 1.1484-72.578 75.5c-4.5938 4.7773-12.191 4.9297-16.969 0.33594-4.4102-4.2422-4.8789-11.039-1.3086-15.816l0.97266-1.1523z"/>
 <path d="m594 936c9.3594 0 17.047 7.1367 17.918 16.266l0.082032 1.7344v108c0 9.9414-8.0586 18-18 18-9.3555 0-17.043-7.1367-17.918-16.266l-0.082031-1.7344v-108c0-9.9414 8.0586-18 18-18z"/>
 <path d="m1036.8 331.5c9.1094-3.9766 19.723 0.18359 23.699 9.2969 3.7422 8.5742 0.27344 18.477-7.7422 22.926l-1.5547 0.76953-83.973 36.652c-9.1094 3.9766-19.719-0.1875-23.695-9.2969-3.7461-8.5742-0.27734-18.477 7.7383-22.93l1.5547-0.76953z"/>
 <path d="m151.23 331.5c-9.1094-3.9766-19.719 0.18359-23.695 9.2969-3.7461 8.5742-0.27734 18.477 7.7383 22.926l1.5547 0.76953 83.973 36.652c9.1094 3.9766 19.723-0.1875 23.699-9.2969 3.7422-8.5742 0.27344-18.477-7.7422-22.93l-1.5547-0.76953z"/>
</svg>
