<?xml version="1.0" encoding="UTF-8"?>
<svg width="1200pt" height="1200pt" version="1.1" viewBox="0 0 1200 1200" xmlns="http://www.w3.org/2000/svg">
 <path d="m539.06 877.78c0-0.5625 0.75-1.2656 1.6406-1.5938 1.5938-0.60938 34.641-20.812 73.359-44.812 18.469-11.438 20.672-12.469 49.078-22.734 16.359-5.9062 30-10.453 30.328-10.125s-1.9688 3.4219-5.1094 6.8438-19.641 21.375-36.656 39.891l-30.938 33.656-40.875-0.09375c-22.453-0.046875-40.875-0.51562-40.875-1.0781zm103.22-6.2812c19.359-18.281 42.984-40.125 57.609-53.25l15.938-14.344 14.484 16.125c15.469 17.156 47.344 53.438 50.016 56.812 1.5 1.9688-2.0625 2.0625-72.094 2.0156l-73.688-0.046875 7.6875-7.2656zm142.6 1.2188c-21.328-33.844-36.188-57.234-52.781-83.109l-19.641-30.656 5.5312-18.656 30.984 28.875c30.891 28.828 31.078 28.922 67.312 53.625 19.969 13.641 45.938 31.359 57.703 39.375s21.375 15.047 21.375 15.562c0 0.5625-23.953 1.0312-53.25 1.0781l-53.25 0.046875-3.8906-6.1875zm-397.22-1.0312c0.46875-0.42188 7.9219-4.0312 16.641-8.0625 52.969-24.562 74.906-36.047 91.125-47.719 8.8594-6.375 17.859-12.609 19.969-13.828 3.8906-2.25 23.859-27 69.281-85.734 13.078-16.922 24.375-30.75 25.172-30.75 1.5469 0 36.797 17.062 38.906 18.844 0.9375 0.79688-3.3281 11.859-14.953 38.719-8.9531 20.719-16.125 37.828-15.891 38.016 0.23438 0.23438 10.078-12.281 21.844-27.75 29.719-39.047 32.344-42.047 36.188-42.094 2.1562 0 4.9688-1.7344 8.625-5.2031l5.4375-5.2031-1.6406-6.7969c-14.859-62.203-31.734-123.61-43.453-157.97l-7.5938-22.266-0.70312-32.531c-0.375-17.906-0.375-32.531 0-32.531 0.75 0 27.656 39.422 28.641 42 0.46875 1.1719-0.375 1.4062-3.375 0.9375-10.594-1.6406-16.266-1.9219-16.266-0.79688 0 0.65625 6.5156 5.0156 14.484 9.7031l14.484 8.5312 30.469 40.453c31.312 41.531 66.844 87.797 79.031 102.84 3.7969 4.6875 6.6094 8.4844 6.2812 8.4844s-8.9062-6.7031-19.078-14.906c-23.016-18.516-46.219-37.172-52.922-42.469-10.828-8.5312-1.8281 1.3125 28.219 30.984 16.969 16.781 41.344 40.5 54.141 52.734s31.875 31.547 42.375 42.891l19.125 20.625-3.5625 4.3125c-1.9688 2.3906-3.1875 4.6875-2.7656 5.1094s3-0.42188 5.6719-1.875l4.875-2.6719 9.9844 10.312c5.4844 5.6719 22.828 23.484 38.484 39.516 25.734 26.391 36.094 37.875 31.969 35.344-0.79688-0.51562-12.141-8.9062-25.125-18.703-13.031-9.7969-34.219-25.453-47.109-34.828-59.625-43.359-96.656-70.125-103.12-74.484-6.0469-4.0781-10.594-8.7188-18-18.188-1.0312-1.3125 2.4844-0.14062 9.6562 3.2344 6.1875 2.9062 11.625 5.25 12.141 5.25 1.2188 0-10.5-7.8281-19.031-12.656-22.453-12.797-51.375-28.359-51.844-27.844-0.65625 0.65625 28.969 32.016 47.344 50.109 11.672 11.484 17.203 15.516 68.344 49.781 46.547 31.172 107.3 70.828 130.82 85.359l5.6719 3.5156-78 0.65625-42.562-33.703c-27.75-21.984-57.281-46.828-84.844-71.391l-42.281-37.688-41.953 43.359c-40.5 41.859-42.844 44.016-67.172 62.812-13.875 10.688-35.859 27.844-48.844 38.109l-23.672 18.656-70.312 0.1875c-38.672 0.09375-69.938-0.14062-69.516-0.5625zm126.24-35.25c19.781-16.547 33.047-29.203 67.828-64.688 23.766-24.281 43.031-44.297 42.75-44.531-0.5625-0.5625-39.469 31.5-73.172 60.234-24.562 20.953-26.812 23.25-45.703 46.266-18.891 23.062-23.578 29.344-18.562 25.172 1.2188-1.0312 13.312-11.109 26.812-22.453zm-141.14 15.891c0.046875-0.51562 4.125-4.3125 9.0938-8.4375 39.656-32.766 103.97-91.406 150.94-137.58 21.984-21.609 41.062-39.844 42.328-40.547 1.2656-0.65625 5.0156-2.2969 8.3438-3.6094l6.0469-2.3906v4.5c0 4.9688-4.9688 11.531-45.75 60.609-10.781 12.938-20.484 24.938-21.609 26.625-4.5 6.8438-0.46875 4.8281 14.578-7.4062 8.7188-7.0312 16.219-12.844 16.734-12.844 1.6875-0.046875-48.562 63.562-53.812 68.109-2.3438 2.0625-13.875 8.3438-65.484 35.719l-32.812 17.438-14.344 0.375c-7.875 0.23438-14.297-0.046875-14.297-0.60938zm2.8594-18.562c9.7031-13.172 28.922-35.766 30.422-35.719 0.65625 0 2.3906 0.9375 3.8438 2.0625l2.6719 2.0625-15.562 14.156c-8.5781 7.7812-17.625 15.938-20.203 18.141l-4.6406 3.9844zm-223.82-7.2188c1.7344-3 22.781-37.781 46.688-77.25 23.906-39.516 44.859-74.109 46.547-76.875 2.6719-4.4531 5.2969-6.2812 21.094-14.906 9.9375-5.4375 22.5-12.562 27.938-15.844l9.8906-5.9531 39.609-54.469c48.984-67.406 48.516-66.797 51.188-66.797 1.2188 0 6.6094 3.9375 12 8.7656s10.688 8.7656 11.766 8.8125c1.0781 0 5.2969-1.5469 9.375-3.5156 7.4062-3.5156 7.4531-3.5156 9.375-1.1719 1.0781 1.3125 3.5625 9 5.5312 17.156s3.75 14.953 3.9375 15.141 7.9688-11.156 17.297-25.219c18.656-28.078 15.656-25.031 41.625-41.625l8.2031-5.25 3.1406-13.781c1.7344-7.5938 6.1406-28.031 9.75-45.422 7.5938-36.141 5.7656-32.625 24.281-47.484 6.2812-5.0156 12.656-10.641 14.109-12.469 1.5-1.8281 13.125-18.375 25.781-36.75 12.703-18.375 24-34.594 25.125-36.047l2.0625-2.625 10.031 12.609c5.5312 6.9375 19.078 23.953 30.094 37.781 16.219 20.391 22.219 27 31.406 34.594 6.2344 5.1562 14.438 11.906 18.141 15.047l6.7969 5.6719 24.188 60 6.9844 5.3438c15.703 12.094 41.203 32.719 42.984 34.781 1.0312 1.2188 6 11.438 11.016 22.734 20.25 45.609 21.375 47.344 42.609 65.438 9.9375 8.4844 14.578 14.25 38.719 48.375l12.141 17.156 11.859 0.79688c6.5156 0.42188 17.672 1.5 24.703 2.3906 11.812 1.4531 13.078 1.8281 15.516 4.9219 4.5938 5.7188 33.703 47.672 104.3 150.28 7.2656 10.594 13.219 19.641 13.219 20.156 0 1.9688-3.1406-0.5625-8.6719-6.9844-8.0156-9.2812-76.172-91.219-104.77-125.9-13.078-15.891-24.703-29.109-25.781-29.438s-10.453-1.4531-20.766-2.4844c-17.719-1.8281-18.891-2.1094-21.094-4.9688-33.094-42.797-36.047-46.078-56.719-63l-20.016-16.406-4.6406-11.109c-2.5781-6.1406-8.0625-19.312-12.188-29.297-14.062-33.984-10.078-28.594-38.578-51.422l-25.266-20.203-6.9844-18.984c-3.8438-10.453-8.9531-24.562-11.344-31.406l-4.3594-12.422-11.906-10.453c-6.5156-5.7188-14.484-12.797-17.625-15.703-5.0625-4.6406-30.656-37.875-43.594-56.484-2.5312-3.7031-4.9219-6.7031-5.2969-6.75s-2.1094 8.25-3.8438 18.422-4.0312 23.156-5.1094 28.969l-1.9219 10.5-28.781 38.25-8.4375 44.812-36.094 37.688-24.844 12.891c-22.547 11.719-25.359 13.5-30.281 19.406-7.3594 8.7656-23.906 31.594-23.344 32.156 0.46875 0.46875 9.0469-5.7656 33.188-24.375 12.797-9.8438 16.031-11.812 20.391-12.281 4.4062-0.51562 5.1094-0.28125 4.5 1.2656-0.375 1.0312-9 12.562-19.125 25.641s-18.844 24.375-19.359 25.031c-0.89062 1.125 2.1562 11.109 3.9375 12.844 0.75 0.75 19.312-22.172 52.828-65.391 17.438-22.5 19.125-24.328 22.547-24.328 3.5625 0 3.75 0.23438 4.875 6.4219l1.1719 6.4219-18.656 30.188c-34.078 55.125-40.594 66.141-37.406 63 6.4688-6.3281 83.625-104.06 84.984-107.62 1.3125-3.4219 11.344-48.422 11.344-50.812 0-2.0156 8.4844-13.406 10.547-14.156 0.51562-0.1875 1.0312 12.797 1.125 28.875l0.14062 29.203-19.828 31.5c-44.109 70.078-84.703 132.84-85.922 132.84-0.70312 0-12.234-16.828-40.406-58.828-5.0625-7.5469-9.9844-13.969-10.969-14.297-0.98438-0.28125-5.7656-1.4062-10.641-2.4375l-8.9062-1.9219-5.0156-18.375c-2.7656-10.125-5.1094-18.516-5.25-18.656-0.14062-0.14063-3.5156 1.0312-7.4531 2.625-3.9844 1.5938-8.2031 2.9062-9.4219 2.9062-1.3125 0-5.25-3.5156-9.7031-8.7188-4.0781-4.7812-7.8281-8.7656-8.2969-8.8125-0.75-0.09375-5.7188 14.906-17.906 54l-4.2656 13.641-26.016 24.609c-14.297 13.547-28.266 26.484-31.078 28.781-2.7656 2.2969-16.219 10.875-29.859 18.984-24.75 14.766-24.844 14.812-31.219 23.766-44.719 62.766-102.94 139.64-105.7 139.64-0.65625 0 0.1875-2.4375 1.9688-5.4375zm209.68-237.14c2.0156-3.9844 8.0156-22.312 7.4531-22.828-0.42187-0.42187-36.281 49.172-37.219 51.469-0.9375 2.3906 28.266-25.734 29.719-28.641zm178.26-123.94c1.0312-2.4375 7.1719-17.859 13.594-34.266l11.719-29.859 7.8281-8.2031c15.141-15.891 15.562-16.453 17.906-24.797 1.2188-4.4062 3.2812-11.578 4.5-15.938 1.2188-4.3594 1.7812-7.6406 1.1719-7.2656-0.5625 0.375-4.9219 7.3125-9.6094 15.469-8.0156 13.875-9.375 15.562-21.469 26.297l-12.938 11.484-7.3594 34.125c-4.0312 18.75-7.6406 34.875-7.9688 35.766-1.4531 3.75 0.89062 1.3125 2.625-2.7188zm-370.22 365.06c1.9688-3.2812 27.234-38.484 46.922-65.391 11.531-15.75 29.062-40.172 38.953-54.234 20.578-29.25 15-24.422 60.469-52.031 12.891-7.8281 28.453-17.672 34.547-21.844 6.0938-4.1719 11.297-7.4062 11.531-7.1719 0.23438 0.23438-2.7656 5.1094-6.6094 10.828-5.1094 7.6406-9.7969 12.75-17.391 19.078-12.188 10.172-42.141 37.219-45.516 41.062-3.0469 3.5156-2.9531 3.4688 25.172-15.281 27.328-18.188 40.781-26.391 41.719-25.453 0.51562 0.51562-17.484 25.406-29.297 40.594-1.0781 1.4062-0.1875 1.5469 5.7188 0.9375 6.75-0.70313 7.2656-0.98438 13.125-7.5 3.375-3.75 6.1406-6.375 6.1406-5.8594 0.046875 0.51563-0.9375 3.9375-2.1562 7.5938-2.3438 7.125-4.6406 34.594-2.7188 32.484 0.60938-0.65625 3.3281-7.6406 6.0938-15.516s5.3438-14.109 5.7656-13.875c0.42188 0.28125 3.8906 7.9219 7.6875 17.016 4.0781 9.75 7.2656 15.984 7.7812 15.141 0.46875-0.75 1.5469-5.5312 2.3438-10.641 0.89062-5.4375 2.0156-9.0469 2.7656-8.8125 1.125 0.375 10.031 20.062 11.766 26.016 0.5625 1.9219 1.2656 1.2188 3.9375-3.9375l3.2812-6.2812 1.9688 3c1.0781 1.6406 3.2812 6 4.9219 9.7031l2.9531 6.7031 4.5469-4.4531c3.0469-2.9531 5.0625-4.125 6.1406-3.5156 0.84375 0.51563 5.1094 3.2344 9.4688 6l7.9219 5.0625-16.453 20.531c-9.0469 11.297-16.828 20.484-17.297 20.484s-10.312-6.6094-21.938-14.625c-20.156-13.969-27.188-19.641-56.062-45.422-11.297-10.078-13.078-11.297-14.906-9.9375-2.7188 1.9688-80.531 65.906-106.59 87.609-28.312 23.531-28.219 23.484-33.281 23.484-3.1875 0-4.125-0.375-3.4688-1.4531zm18.562 0.32812c0.375-0.60937 13.359-10.5 28.875-21.984 15.516-11.484 40.125-29.719 54.75-40.5 14.625-10.828 28.031-20.766 29.766-22.031 5.2031-3.8438 4.6406-2.1562-9.2812 27.516-4.7812 10.219-8.5312 18.797-8.25 19.031 0.23438 0.23438 4.6406-5.3906 9.75-12.609 10.453-14.672 19.828-23.156 22.594-20.438 1.9219 1.9219 1.0781 4.9688-6.3281 21.891-2.7656 6.375-4.7812 11.578-4.4531 11.578s4.3125-2.1562 8.8125-4.7812 8.3906-4.5938 8.6719-4.3125c0.70312 0.70312-6.7031 11.297-12.328 17.672-2.7188 3.0938-9.5156 8.8125-15.094 12.797-5.5781 3.9375-12.938 9.4688-16.359 12.281l-6.2812 5.1094h-42.75c-27.141 0-42.469-0.42187-42.047-1.125zm100.22-1.3594c1.5938-1.3125 12.609-10.406 24.422-20.156l21.469-17.766-0.65625-8.2031c-0.375-4.5-0.98438-10.031-1.4062-12.328-0.75-3.9844-0.375-3.75 10.828 7.3125 6.375 6.2812 12 11.438 12.469 11.438 1.3594 0-7.0781-12-18.469-26.391-5.5312-6.9844-10.078-13.219-10.078-13.922-0.046875-0.70312-0.46875-3.5625-1.0312-6.3281l-0.98438-5.0156 14.203 13.875c16.125 15.797 17.531 16.781 44.344 32.391l19.594 11.391-7.1719 9c-3.9375 4.9688-10.359 13.078-14.297 18.094l-7.1719 9.0938-89.062-0.09375 2.9531-2.4375zm636.56-21.234c-31.312-35.438-49.453-56.438-49.453-57.141 0-0.32813 6.1875-4.9219 13.781-10.172 7.5469-5.25 15.609-10.922 17.859-12.562 2.25-1.6406 9-5.0625 15-7.6406l10.875-4.6406 4.2656 6.4219c2.4844 3.7031 3.7969 6.7969 3.1875 7.3594-0.60938 0.51563-8.0625 6.6094-16.547 13.5-8.5312 6.8906-15.797 13.031-16.172 13.641-0.375 0.60937 3.7031-0.51563 9.0469-2.5312 5.3438-2.0156 16.453-6.0469 24.609-8.9531l14.906-5.2969 12.656 12.234c6.9375 6.7031 16.172 15.562 20.531 19.641 6.6562 6.2812 7.6875 7.7344 6.7031 9.6094-1.0781 2.0625-1.4062 2.0625-4.6875 0.375-1.9219-0.98437-10.406-6.2812-18.844-11.766l-15.328-9.9844-27.281 6.5625 11.953 0.84375c10.781 0.79688 12.562 1.2656 18.141 4.7812 3.4219 2.1562 12.141 7.2656 19.359 11.344l13.125 7.4062-6.3281 7.125c-3.4688 3.8906-6.1875 7.2656-6.0469 7.4062 0.14062 0.14063 5.3438-2.3438 11.531-5.5312 10.172-5.25 11.391-5.625 12.844-3.8906 0.89062 1.0312 10.969 9.2812 22.406 18.281s20.812 16.594 20.812 16.828c0 0.23438-22.922 0.46875-50.953 0.46875h-50.953zm-511.64-12c-1.2188-0.9375-2.8125-1.875-3.5156-2.1094-0.70312-0.23438 6.2812-9.0938 15.609-19.688 9.2812-10.594 17.297-19.734 17.812-20.297 0.51562-0.60937 3.7031 0.75 7.4531 3.2812l6.5156 4.3594-6.7969 6.0938c-3.7031 3.375-12.656 11.531-19.875 18.141-7.2188 6.6094-13.547 12-14.062 11.953-0.51562 0-1.9688-0.79688-3.1875-1.7344zm40.5-41.766-6-4.875 5.8125-6.5625c3.1875-3.6094 11.766-13.5 19.031-22.031 7.2656-8.4844 13.641-15.469 14.203-15.516 1.125-0.09375 15.188 11.391 15.75 12.797 0.28125 0.75-20.766 21.141-37.406 36.141l-5.3906 4.875zm-22.031-17.109c-5.8594-4.3594-21.328-15.562-34.359-24.891l-23.672-17.016 0.70312-19.922c0.75-21.375 1.6406-31.031 2.9062-31.031 0.42188 0 4.6406 6.6094 9.3281 14.625 4.6875 8.0625 8.7656 14.625 9 14.625s-1.0781-3.5625-2.9531-7.9219c-1.8281-4.3594-5.5312-14.25-8.25-21.984-4.6406-13.359-4.8281-14.531-4.0781-23.156 0.75-8.5312 0.98438-9.2344 4.2188-10.875 1.875-0.98438 3.8438-1.5 4.3125-1.2188s5.5781 10.594 11.344 22.828c5.7656 12.281 10.641 22.078 10.922 21.844 0.51562-0.51562-4.7812-21.75-10.406-41.766-3.2344-11.531-3.4219-13.312-2.5781-23.438l0.89062-10.969 9.8438 28.125c17.109 48.984 19.875 55.641 34.875 84.375 13.172 25.266 18.891 35.062 16.312 28.125-4.3125-11.672-16.781-49.781-16.312-49.781 0.5625 0 14.719 12.188 30.234 26.062l5.7656 5.1562-10.453 13.453c-16.781 21.609-25.641 32.578-26.297 32.625-0.32812 0-5.3906-3.5156-11.297-7.875zm416.02-19.312c-10.922-13.688-21.422-27-23.391-29.578-5.4844-7.2188-78.938-118.64-97.359-147.66-9-14.203-33.844-53.766-55.219-87.984l-38.906-62.203v-12.797c0-11.812 0.1875-12.938 2.4844-14.391 2.0625-1.3125 2.6719-1.3125 3.5156 0 0.5625 0.84375 8.2031 13.219 16.969 27.422s16.922 27.141 18.141 28.688l2.2031 2.8594-0.84375-5.8594c-1.3594-9.5625-1.0781-13.969 0.84375-14.344 3.6094-0.70312 9.6094 11.391 21.609 43.359 6.6562 17.766 12.469 32.859 12.891 33.609 0.89062 1.4062 26.859 22.5 33.234 26.953 2.1094 1.5 3.6562 2.9531 3.375 3.1875-0.28125 0.28125-5.3906-1.4062-11.438-3.7031-6-2.2969-11.672-4.0312-12.609-3.8438s6.1406 4.8281 15.75 10.312l17.438 9.9844-10.828 0.32812c-5.9531 0.1875-10.828 0.70312-10.828 1.1719s6.7031 3.75 14.859 7.2656c8.1562 3.5625 16.406 7.2188 18.281 8.2031 3 1.5469 4.8281 5.1562 14.156 27.797l10.734 26.062 18.984 17.297c16.547 15.094 32.016 30.703 32.016 32.25 0 0.28125-4.5 2.4844-9.9844 4.9688-5.4844 2.4375-9.9844 4.8281-9.9844 5.25 0 0.46875 4.3594 0.14062 9.6562-0.65625 5.2969-0.84375 11.297-1.7344 13.312-2.0625 3.2812-0.51562 4.3594 0.28125 11.531 8.1562l7.875 8.7188-3.75 9.0469c-2.0625 4.9688-5.0625 11.625-6.6094 14.719-1.5938 3.1406-2.625 5.9062-2.3438 6.1875s5.0156-4.2656 10.547-10.172l10.031-10.641 11.156 1.2656c6.1406 0.70312 11.766 1.2656 12.469 1.2656s-3.2344 4.9219-8.7656 10.922c-9.8906 10.688-14.25 16.031-13.078 16.031 0.32812 0 7.4531-5.5312 15.891-12.328 19.312-15.516 21.281-15.797 28.641-4.2188l3.2812 5.1562-3.3281 3.1875c-11.625 11.062-50.859 45.75-51.75 45.75-0.60938 0-9.9844-11.203-20.906-24.891zm-79.594-156.56c-0.60938-0.5625-3.6094-1.8281-6.7031-2.8594-5.2969-1.7812-5.5781-1.7344-5.5781 0.375 0 1.5938 1.0312 2.3438 3.7969 2.6719 7.2656 0.89063 9.5625 0.84375 8.4375-0.1875zm-268.87 149.58c-9.4688-10.734-9.6094-8.7188 1.9688-23.109 5.6719-7.0312 10.688-12.844 11.109-12.891 0.42188-0.046876 4.2188 4.2656 8.3906 9.6094l7.6406 9.6562-11.297 11.438c-6.2344 6.2812-11.578 11.391-11.906 11.391-0.32812-0.046876-3-2.7656-5.8594-6.0469zm175.97-21.516c-8.625-6.3281-14.203-8.6719-20.719-8.7188-1.9219 0-4.125-0.42187-4.8281-0.89062s-3.0938-5.7656-5.2969-11.812c-3.75-10.359-4.7344-11.812-18.469-27.562-7.9688-9.1406-15.562-18.047-16.922-19.781l-2.3906-3.1875-72.281 71.719-5.625-8.0156c-3.0938-4.4062-6.5156-9.4219-7.6406-11.156l-2.0156-3.0938 23.953-29.109c13.172-16.031 25.453-30.656 27.328-32.531s16.969-13.078 33.562-24.891c28.594-20.344 30.234-21.328 31.219-18.844 0.5625 1.4531 5.3438 14.531 10.688 29.016 5.3438 14.484 16.172 44.016 24.141 65.578 7.9219 21.562 14.297 39.328 14.203 39.422-0.14062 0.14062-4.125-2.625-8.8594-6.0938zm-211.78-18.234c-10.922-11.719-20.438-22.125-21.094-23.156-0.70312-1.0312-5.3906-13.219-10.406-27.094s-9.8906-26.625-10.781-28.359c-1.9219-3.7969-3.7031-32.625-1.9219-30.797 0.65625 0.65625 3.7031 8.2969 6.75 17.016 3.0938 8.7188 7.4531 19.5 9.6562 24.047 6.4219 12.984 14.578 27.703 15.047 27.234 0.23438-0.23437-0.5625-7.7812-1.8281-16.734-1.2656-8.9531-2.0625-16.5-1.7344-16.781 1.9219-1.9219 8.8594 5.6719 31.078 34.219 13.828 17.766 25.266 33 25.453 33.844 0.32812 1.5-17.672 27-19.453 27.609-0.51562 0.1875-9.8438-9.2812-20.766-20.953zm125.16-90.281c5.5781-13.5 32.766-66.797 33.656-65.859 0.51563 0.5625 2.625 7.5938 4.7344 15.656l3.7969 14.672-15.656 14.953c-8.625 8.25-18.703 17.625-22.359 20.906l-6.7031 5.9531z"/>
</svg>
