<?xml version="1.0" encoding="UTF-8"?>
<svg width="1200pt" height="1200pt" version="1.1" viewBox="0 0 1200 1200" xmlns="http://www.w3.org/2000/svg">
 <path d="m747 482.29c1.7812-0.9375 3.6094-1.9219 5.3906-2.8594 0.46875-0.23438 1.0781-0.46875 1.5469-0.84375 1.3125-0.60938 2.625-1.3125 3.9375-1.9219 0.60938-0.23438 1.3125-0.60938 1.9219-0.84375 1.3125-0.60938 2.625-1.0781 3.8438-1.6875 0.60938-0.23438 1.2188-0.46875 1.7812-0.70312 1.6875-0.60938 3.375-1.3125 5.0625-1.9219 0.23438-0.14062 0.46875-0.14062 0.70312-0.23438 1.9219-0.70312 3.8438-1.3125 5.7656-1.9219 0.60938-0.14062 1.2188-0.375 1.7812-0.46875 1.4531-0.375 2.7656-0.84375 4.2188-1.2188 0.70312-0.14062 1.3125-0.375 2.0625-0.46875 1.4531-0.375 2.7656-0.70312 4.2188-0.9375 0.60938-0.14062 1.3125-0.23438 1.9219-0.375 1.9219-0.375 3.8438-0.70312 5.625-1.0781 0.14062 0 0.23438 0 0.375-0.14062 2.0625-0.375 4.0781-0.60938 6.1406-0.84375 0.60938-0.14062 1.2188-0.14062 1.9219-0.23438 1.4531-0.14062 2.8594-0.375 4.3125-0.46875 0.70312-0.14062 1.4531-0.14062 2.1562-0.14062 1.4531-0.14062 2.8594-0.23438 4.3125-0.23438 0.60938 0 1.3125-0.14062 1.9219-0.14062 2.0625-0.14062 4.2188-0.14062 6.2344-0.14062 1.5469 0 3.1406 0 4.6875 0.14062 0.46875 0 1.0781 0 1.5469 0.14062 1.0781 0 2.0625 0.14062 3.1406 0.14062 0.60938 0 1.2188 0.14062 1.7812 0.14062 0.9375 0.14062 1.9219 0.14062 2.8594 0.23438 0.70312 0 1.3125 0.14062 2.0625 0.23438 0.84375 0.14062 1.7812 0.14062 2.625 0.23438 0.70312 0.14062 1.3125 0.14062 2.0625 0.23438 0.84375 0.14062 1.6875 0.23438 2.5312 0.375 0.70312 0.14062 1.4531 0.23438 2.0625 0.375 0.84375 0.14062 1.6875 0.23438 2.5312 0.375 0.70312 0.14062 1.4531 0.23438 2.0625 0.375 0.84375 0.14062 1.6875 0.375 2.3906 0.46875 0.70312 0.14062 1.4531 0.23438 2.0625 0.46875 0.84375 0.14062 1.5469 0.375 2.3906 0.46875 0.70312 0.14062 1.4531 0.375 2.0625 0.46875 0.84375 0.23438 1.5469 0.375 2.3906 0.60938 0.70312 0.23438 1.4531 0.375 2.0625 0.60938 0.70312 0.23438 1.5469 0.46875 2.2969 0.60938 0.70312 0.23438 1.4531 0.375 2.0625 0.60938 0.70312 0.23438 1.5469 0.46875 2.2969 0.70312 0.70312 0.23438 1.3125 0.46875 2.0625 0.70312 0.70312 0.23438 1.5469 0.46875 2.2969 0.84375 0.70312 0.23438 1.3125 0.46875 2.0625 0.70312 0.70312 0.23438 1.4531 0.60938 2.2969 0.84375 0.70312 0.23438 1.3125 0.46875 2.0625 0.84375 0.70312 0.23438 1.4531 0.60938 2.1562 0.9375 0.70312 0.23438 1.3125 0.60938 2.0625 0.84375 0.70312 0.375 1.4531 0.60938 2.1562 0.9375 0.70312 0.375 1.3125 0.60938 1.9219 0.9375 0.70312 0.375 1.4531 0.70312 2.1562 1.0781 0.60938 0.375 1.3125 0.60938 1.9219 0.9375 0.70312 0.375 1.4531 0.70312 2.1562 1.0781 0.60938 0.375 1.3125 0.70312 1.9219 1.0781 0.70312 0.375 1.4531 0.70312 2.0625 1.2188 0.60938 0.375 1.2188 0.70312 1.9219 1.0781s1.4531 0.84375 2.0625 1.2188 1.2188 0.70312 1.7812 1.0781c0.70312 0.46875 1.3125 0.84375 2.0625 1.3125 0.60938 0.375 1.2188 0.70312 1.7812 1.2188 0.70312 0.46875 1.3125 0.9375 2.0625 1.3125 0.60938 0.375 1.2188 0.84375 1.7812 1.2188 0.70312 0.46875 1.3125 0.9375 2.0625 1.4531 0.60938 0.375 1.2188 0.84375 1.6875 1.2188 0.70312 0.46875 1.3125 0.9375 1.9219 1.5469 0.60938 0.46875 1.0781 0.84375 1.6875 1.3125s1.3125 1.0781 1.9219 1.5469c0.46875 0.46875 1.0781 0.84375 1.5469 1.3125 0.60938 0.60938 1.3125 1.0781 1.9219 1.6875 0.46875 0.46875 1.0781 0.84375 1.5469 1.3125 0.60938 0.60938 1.3125 1.2188 1.9219 1.7812 0.46875 0.46875 0.9375 0.84375 1.4531 1.3125 0.70312 0.60938 1.3125 1.3125 2.0625 1.9219l1.3125 1.3125c0.70312 0.70312 1.4531 1.5469 2.1562 2.2969l1.0781 1.0781c1.0781 1.0781 2.1562 2.2969 3.1406 3.4688 0.23438 0.23438 0.46875 0.46875 0.70312 0.84375 0.84375 0.9375 1.5469 1.7812 2.3906 2.7656 0.375 0.46875 0.70312 0.9375 1.0781 1.4531 0.60938 0.70312 1.2188 1.4531 1.7812 2.1562h163.92c10.078 0 18.844-6.375 21.938-15.703 2.1562-6.8438 3.2344-14.062 3-21.375-1.0781-33.375-27.938-60.141-61.219-60.938-5.2969-0.14062-10.453 0.375-15.469 1.4531-9.375 2.0625-18.844-2.1562-23.625-10.453-8.0625-13.922-22.922-22.453-38.859-22.453-6.4688 0-12.703 1.3125-18.609 4.0781-10.922 4.9219-23.859 0.14062-28.922-10.688-10.781-23.062-34.219-38.062-59.625-38.062-36.375 0-65.859 29.531-65.859 65.859 0 6.2344-2.3906 12.141-6.7031 16.219-4.2188 4.2188-9.9375 6.375-15.844 6.2344h-4.6875c-28.078 1.3125-51.375 21-58.078 47.297 1.2188-0.70312 2.5312-1.4531 3.7031-2.1562 1.0781-0.375 1.3125-0.46875 1.6875-0.70312z"/>
 <path d="m425.76 462.61h240c6.7031 0 12.844-4.6875 14.297-11.062 0.9375-4.0781 1.3125-8.2969 1.0781-12.609-1.3125-19.781-17.062-36.609-36.703-39-3.7031-0.46875-7.5469-0.46875-11.156 0.14062-9.9375 1.3125-19.781-2.7656-25.547-10.688-10.078-13.922-26.391-22.312-43.547-22.312s-33.375 8.2969-43.453 22.078c-5.625 7.7812-15.234 11.859-24.844 10.781-1.5469-0.23438-3.2344-0.23438-4.9219-0.23438-12.938 0-25.078 5.8594-33.141 16.078-5.3906 6.8438-13.781 10.547-22.547 9.8438-1.4531-0.14062-2.8594-0.14062-4.3125 0.14062-10.219 1.0781-18.469 9.2344-19.781 19.453-0.14062 1.3125-0.23438 2.625-0.14062 3.9375 0.1875 7.0781 7.1719 13.453 14.719 13.453z"/>
 <path d="m325.55 688.69c0.46875-0.84375 1.0781-1.6875 1.6875-2.5312 0.9375-1.4531 1.7812-2.8594 2.7656-4.2188 0.60938-0.84375 1.2188-1.7812 1.7812-2.625 0.60938-0.70312 1.0781-1.4531 1.6875-2.2969 0.60938-0.70312 1.0781-1.5469 1.6875-2.2969 0.60938-0.70312 1.2188-1.4531 1.7812-2.1562 0.60938-0.70312 1.2188-1.4531 1.7812-2.1562 0.60938-0.70312 1.2188-1.4531 1.7812-2.1562 0.60938-0.70312 1.2188-1.4531 1.7812-2.1562 0.60938-0.70312 1.3125-1.3125 1.9219-2.0625 0.60938-0.70312 1.3125-1.4531 1.9219-2.0625 0.60938-0.70312 1.3125-1.3125 1.9219-1.9219l2.0625-2.0625c0.70312-0.60938 1.3125-1.3125 2.0625-1.9219 0.70312-0.60938 1.3125-1.3125 2.0625-1.9219 0.70312-0.60938 1.3125-1.2188 2.0625-1.7812 0.70312-0.60938 1.4531-1.2188 2.1562-1.7812 0.70312-0.60938 1.4531-1.2188 2.1562-1.6875 0.70312-0.60938 1.4531-1.2188 2.2969-1.7812 0.70312-0.60938 1.4531-1.0781 2.1562-1.6875s1.5469-1.2188 2.2969-1.6875c0.70312-0.46875 1.4531-1.0781 2.1562-1.5469 0.84375-0.60938 1.5469-1.0781 2.3906-1.6875 0.70312-0.46875 1.5469-0.9375 2.2969-1.4531 0.84375-0.46875 1.6875-1.0781 2.3906-1.5469s1.5469-0.9375 2.2969-1.4531c0.84375-0.46875 1.6875-0.9375 2.5312-1.4531 0.70312-0.46875 1.5469-0.84375 2.2969-1.3125 0.84375-0.46875 1.6875-0.9375 2.625-1.3125 0.84375-0.375 1.5469-0.84375 2.3906-1.2188 0.84375-0.46875 1.7812-0.84375 2.625-1.3125 0.84375-0.375 1.5469-0.70312 2.3906-1.0781s1.7812-0.84375 2.7656-1.2188c0.84375-0.375 1.5469-0.70312 2.3906-1.0781 0.9375-0.375 1.7812-0.70312 2.7656-1.0781 0.84375-0.375 1.6875-0.60938 2.3906-0.9375 0.9375-0.375 1.9219-0.70312 2.8594-0.9375 0.84375-0.23438 1.6875-0.60938 2.5312-0.84375 0.9375-0.375 1.9219-0.60938 2.8594-0.9375l2.5312-0.70312c0.9375-0.23438 2.0625-0.60938 3-0.84375 0.84375-0.23438 1.6875-0.46875 2.5312-0.60938 0.9375-0.23438 2.0625-0.46875 3.1406-0.70312 0.84375-0.23438 1.6875-0.375 2.5312-0.60938 1.0781-0.23438 2.0625-0.375 3.1406-0.60938 0.84375-0.14062 1.6875-0.375 2.3906-0.46875 1.0781-0.23438 2.1562-0.375 3.2344-0.46875 0.84375-0.14062 1.5469-0.23438 2.3906-0.375 1.2188-0.14062 2.2969-0.23438 3.4688-0.375 0.70312-0.14062 1.4531-0.23438 2.2969-0.23438 1.3125-0.14062 2.625-0.23438 3.8438-0.375 0.60938 0 1.2188-0.14062 1.9219-0.14062 1.9219-0.14062 3.8438-0.23438 5.7656-0.23438s3.9375-0.14062 5.8594 0c0.9375 0 1.7812 0 2.625 0.14062 1.0781 0 2.1562 0 3.1406 0.14062 1.0781 0 2.2969 0.14062 3.375 0.23438 0.84375 0 1.6875 0.14062 2.3906 0.14062 1.2188 0.14062 2.3906 0.23438 3.6094 0.375 0.70312 0.14062 1.4531 0.14062 2.1562 0.23438 1.2188 0.14062 2.3906 0.375 3.6094 0.46875 0.70312 0.14062 1.4531 0.23438 2.1562 0.375 1.2188 0.23438 2.2969 0.375 3.4688 0.60938 0.84375 0.14062 1.5469 0.23438 2.3906 0.46875 1.0781 0.23438 2.1562 0.46875 3.2344 0.70312 0.84375 0.23438 1.6875 0.375 2.5312 0.60938 0.9375 0.23438 1.9219 0.46875 3 0.70312 0.60938 0.14062 1.2188 0.23438 1.7812 0.46875 1.2188 0.375 2.3906-0.23438 3-1.4531 0.46875-1.0781 1.0781-2.0625 1.6875-3.1406 0.23438-0.60938 0.60938-1.0781 0.84375-1.6875 0.9375-1.7812 2.0625-3.4688 3.1406-5.1562 0.60938-0.9375 1.2188-1.7812 1.7812-2.625 0.60938-0.84375 1.0781-1.6875 1.6875-2.5312 0.70312-0.9375 1.4531-1.9219 2.1562-3 0.46875-0.70312 1.0781-1.3125 1.5469-2.0625 2.625-3.375 5.3906-6.6094 8.2969-9.6094 0.70312-0.70312 1.4531-1.5469 2.2969-2.2969l3.2344-3.2344c-18-16.688-41.625-26.062-66.375-26.062-6 0-12.141 0.60938-17.859 1.6875-12.141 2.2969-24.141-2.8594-30.703-13.078-22.547-34.922-60.844-55.688-102.38-55.688-41.766 0-80.156 21-102.61 56.156-6.8438 10.547-19.219 15.703-31.688 13.219-6.6094-1.4531-13.453-2.1562-20.297-2.1562-26.062 0-50.625 10.219-69.141 28.922-18.469 18.609-28.688 43.219-28.547 69.375 0 7.3125 0.84375 14.531 2.5312 21.609 4.3125 18.703 20.859 31.688 40.219 31.688h212.53c0.375-0.70312 0.70312-1.5469 1.0781-2.2969 0.375-0.84375 0.70312-1.6875 1.0781-2.5312 0.46875-0.9375 0.84375-1.7812 1.3125-2.7656 0.375-0.84375 0.84375-1.6875 1.2188-2.5312 0.46875-0.84375 0.9375-1.7812 1.4531-2.625 0.46875-0.84375 0.84375-1.6875 1.3125-2.3906 0.46875-0.84375 0.9375-1.6875 1.5469-2.5312 0.51562-1.2188 0.89062-2.0625 1.3594-2.7656z"/>
 <path d="m1140 792.84c-1.2188-71.766-58.078-130.31-129.37-133.55-5.2969-0.23438-10.453-0.23438-15.703 0.14062-7.6875 0.46875-15.234-2.2969-20.625-7.6875-5.625-5.5312-8.625-13.078-8.2969-20.859 0.14062-2.0625 0.14062-4.2188 0.14062-6.2344 0-30.844-9.7031-60.141-28.219-84.703-18.609-24.844-43.922-42.234-72.609-50.859-12.938-3.8438-26.766-5.8594-40.781-5.8594-32.156 0-62.531 10.547-87.609 30.375-19.781 15.609-35.062 36.234-44.297 59.625-2.5312 6.375-7.5469 11.297-14.062 13.547-6.2344 2.1562-13.078 1.5469-18.844-1.6875-14.859-8.3906-31.781-12.938-49.078-12.938-21.844 0-42.469 6.9375-59.859 20.062-1.6875 1.3125-3.375 2.625-5.0625 4.0781-0.60938 0.60938-1.3125 1.0781-1.9219 1.6875-0.9375 0.84375-1.9219 1.6875-2.7656 2.625l-2.2969 2.2969c-0.70312 0.70312-1.4531 1.4531-2.1562 2.2969s-1.5469 1.6875-2.2969 2.625c-0.60938 0.70312-1.2188 1.4531-1.7812 2.1562-0.70312 0.9375-1.4531 1.7812-2.1562 2.7656-1.0781 1.4531-2.0625 2.8594-3 4.3125-0.60938 0.9375-1.2188 1.7812-1.6875 2.7656-0.70312 1.0781-1.3125 2.1562-2.0625 3.375-0.46875 0.70312-0.84375 1.5469-1.2188 2.2969-1.9219 3.6094-3.6094 7.4531-5.1562 11.297l-3.6094 9.4688-9.4688-3.375c-3.4688-1.2188-6.9375-2.2969-10.453-3.2344-0.70312-0.23438-1.4531-0.375-2.1562-0.60938-0.9375-0.23438-2.0625-0.46875-3-0.70312-0.84375-0.23438-1.6875-0.375-2.3906-0.46875-0.9375-0.23438-1.9219-0.375-2.8594-0.60938-0.84375-0.14062-1.6875-0.375-2.5312-0.46875-0.9375-0.14062-1.9219-0.23438-2.8594-0.46875-0.84375-0.14062-1.6875-0.23438-2.5312-0.375-1.0781-0.14062-2.1562-0.23438-3.2344-0.375-0.70312-0.14062-1.4531-0.14062-2.1562-0.23438-1.7812-0.14062-3.4688-0.23438-5.2969-0.375h-1.7812c-1.2188 0-2.5312-0.14062-3.7031-0.14062h-4.3125c-46.453 1.2188-88.219 25.922-112.08 64.688-0.84375 1.4531-1.6875 2.8594-2.5312 4.3125-1.6875 3-3.2344 6-4.6875 9.1406s-2.7656 6.2344-4.0781 9.4688c-5.3906 14.062-8.2969 28.688-8.7656 43.781-0.46875 15.469 1.5469 30.609 6.1406 45.141 7.3125 23.391 28.922 39.141 53.625 39.141l701.11-0.1875c15.141 0 29.391-5.8594 40.078-16.688 10.547-10.688 16.453-24.703 16.312-39.703v-1.0781z"/>
</svg>
