<?xml version="1.0" encoding="UTF-8"?>
<svg width="1200pt" height="1200pt" version="1.1" viewBox="0 0 1200 1200" xmlns="http://www.w3.org/2000/svg">
 <path d="m80.766 493.03c9.9375-18.422 26.906-35.438 41.109-51 5.6719-7.0781 11.344-14.156 15.562-22.688 2.8125 0 4.2656 0 7.0781-1.4062 36.844-21.234 73.688-28.312 116.16-28.312 24.094 0 25.5-38.25 0-38.25-31.172 0-60.938 4.2656-90.656 12.75 36.844-65.156 70.828-131.76 121.82-188.44 60.938-68.016 137.44-73.688 222.42-84.984 1.4062 1.4062 4.2656 1.4062 7.0781 1.4062 68.016-4.2656 123.28 48.188 164.34 97.734 15.562 18.422 42.516-8.4844 26.906-26.906-25.5-29.766-55.266-60.938-89.25-80.766 26.906 1.4062 55.266 7.0781 80.766 22.688 35.438 21.234 62.344 55.266 89.25 84.984 32.578 36.844 60.938 75.094 90.656 113.34l2.8125 2.8125c1.4062 1.4062 2.8125 2.8125 4.2656 4.2656 75.094 51 168.61 75.094 206.86 162.94-26.906-22.688-59.484-39.656-89.25-53.859-75.094-35.438-136.03-18.422-191.26 39.656-17.016 18.422 9.9375 45.328 26.906 26.906 21.234-22.688 43.922-43.922 76.5-49.594 26.906-2.8125 53.859 8.4844 77.906 19.828 43.922 21.234 106.27 58.078 123.28 107.67 1.4062 2.8125 1.4062 5.6719 4.2656 7.0781 8.4844 65.156 4.2656 131.76-8.4844 195.52-18.422 90.656-62.344 161.53-134.58 219.61-58.078 46.734-126.1 82.172-196.92 104.86-2.8125-1.4062-7.0781-4.2656-11.344-4.2656-49.594-2.8125-82.172-63.75-123.28-84.984 58.078-73.688 70.828-165.74 99.188-255 24.094-77.906 102-160.08 66.609-246.52-28.312-75.094-148.78-87.844-213.94-109.08-46.734-14.156-86.438-43.922-134.58-52.406-48.188-8.4844-99.188 8.4844-147.32 11.344-25.5 2.8125-25.5 41.109 0 38.25 38.25-2.8125 76.5-11.344 114.75-12.75 45.328-2.8125 80.766 22.688 121.82 39.656 36.844 15.562 76.5 25.5 114.75 36.844 35.438 9.9375 83.578 22.688 106.27 55.266 25.5 36.844-2.8125 93.516-18.422 127.5-17.016 33.984-35.438 66.609-46.734 102-29.766 89.25-38.25 184.18-106.27 255-28.312 1.4062-59.484 11.344-84.984 12.75-42.516 0-65.156-15.562-94.922-39.656-15.562-12.75-32.578-21.234-52.406-18.422-39.656 4.2656-60.938 48.188-84.984 77.906-25.5-29.766-42.516-66.609-62.344-100.59-22.688-41.109-51-77.906-75.094-119.02-28.312-48.188-46.734-102-62.344-154.4-12.75-51-35.438-107.67-9.9375-157.26zm702.71-93.516c4.2656 24.094 41.109 14.156 36.844-9.9375-9.9375-55.266-31.172-106.27-58.078-154.4-12.75-21.234-45.328-2.8125-32.578 19.828 25.5 45.328 45.328 93.516 53.859 144.52zm-347.11 697.03c-43.922-7.0781-83.578-18.422-117.61-45.328 9.9375-11.344 18.422-24.094 26.906-36.844 7.0781-9.9375 15.562-19.828 25.5-26.906 17.016-12.75 33.984 7.0781 45.328 17.016 39.656 33.984 80.766 41.109 131.76 36.844 19.828-2.8125 39.656-7.0781 58.078-9.9375 4.2656 1.4062 9.9375 2.8125 14.156 0 17.016 2.8125 31.172 15.562 45.328 26.906 19.828 17.016 36.844 36.844 59.484 49.594-94.922 21.234-195.52 5.6719-289.03-11.344zm-328.69-294.71c24.094 46.734 56.672 86.438 82.172 131.76 41.109 69.422 76.5 147.32 155.86 178.5 42.516 17.016 90.656 24.094 136.03 29.766 48.188 7.0781 99.188 14.156 148.78 15.562 109.08 1.4062 221.02-42.516 314.53-97.734 90.656-55.266 161.53-128.9 196.92-230.95 35.438-106.27 36.844-230.95 4.2656-338.63-15.562-48.188-39.656-90.656-80.766-120.42-48.188-35.438-102-58.078-151.6-90.656-56.672-75.094-116.16-162.94-196.92-212.53-72.234-42.516-158.68-18.422-236.58-9.9375-43.922 5.6719-87.844 11.344-128.9 28.312-46.734 18.422-80.766 53.859-110.48 92.109-63.75 77.906-94.922 177.1-160.08 253.6-24.094 28.312-43.922 55.266-49.594 93.516-7.0781 48.188 14.156 100.59 26.906 147.32 11.344 45.328 29.766 89.25 49.594 130.36z"/>
</svg>
