<?xml version="1.0" encoding="UTF-8"?>
<svg width="1200pt" height="1200pt" version="1.1" viewBox="0 0 1200 1200" xmlns="http://www.w3.org/2000/svg">
 <path d="m961.4 592.97-26.578 26.578-39.047-79.688-31.219 32.812-39.047-79.688-32.812 29.672-17.203-40.594-24.984 4.6875-35.906-39.047-20.297 17.203-68.766-85.922-20.297 29.672-17.203-12.469-81.234 115.59-40.594-51.562-93.75 123.42-23.438-29.672-42.188 56.25-20.297-10.922-28.125 56.25-26.578-26.578-171.84 192.1h42.891l139.03-132.79v28.828l52.828-61.641 19.453 43.219-211.31 122.39h953.72l-147.37-132.79 36.609-11.391 110.77 144.19h83.391zm-212.48-78.094 31.266 45.281-28.125-22.641-28.125 22.641zm-284.29-29.719 45.281 75-48.422-43.734-48.422 43.734zm28.125 221.86-14.062-70.312-206.16 149.68 176.48-201.19 12.516 14.859 23.438-32.016 10.922 20.297 94.547-160.92 16.406 37.5 14.062-53.109 28.125 45.281-82.781 165.61 82.781-109.36 99.984 96.844-84.375-49.969-49.969 67.172 56.25-51.562-49.969 75 65.625-50.766-75 99.188-21.094-31.266v46.875l-61.734-64.031zm209.34-56.25-32.812 99.984-24.984-43.734-53.906 43.734 57-71.859 6.2344 20.297 42.188-73.406 93.75 99.984zm107.44-50.766-60.609 46.078 60.609-85.922 65.906 95.297z"/>
</svg>
