<?xml version="1.0" encoding="UTF-8"?>
<svg width="1200pt" height="1200pt" version="1.1" viewBox="0 0 1200 1200" xmlns="http://www.w3.org/2000/svg">
 <path d="m1105.9 545.33-489.8-470.94c-9.1953-8.7383-22.996-8.7383-32.191 0l-489.8 470.94c-9.1992 8.7383-9.1992 23.457-0.46094 32.652 4.6016 4.6016 10.578 6.8984 16.555 6.8984 5.5195 0 11.5-2.3008 15.637-6.4375l39.09-37.25v567.98c0 12.414 10.121 22.996 22.996 22.996h282.84c3.2188 0 6.4375-0.92188 8.7383-1.8438 1.3789-0.46094 2.3008-1.3789 3.2188-2.3008 1.3789-0.92188 3.2188-1.3789 4.1367-2.7578 1.3789-0.92188 1.8438-2.3008 2.7578-3.2188 0.46094-1.3789 1.8438-2.3008 2.3008-4.1367 0.45703-0.92188 0.45703-2.7578 0.91797-4.1406 0.46094-1.3789 0.92188-2.7578 0.92188-4.5977l2.3008-300.78h212.48l-2.3008 300.32v0.46094c0 1.3789 0.46094 3.2188 0.92188 4.5977 0.46094 1.3789 0.46094 2.7578 0.91797 4.1406 0.46094 1.3789 1.3789 2.7578 2.3008 3.6758 0.91797 1.3789 1.3789 2.7578 2.3008 3.6797 1.3789 0.92188 2.3008 1.3789 3.6797 2.3008 1.3789 0.92188 2.3008 1.8438 3.6758 2.7578 1.3789 0.46094 2.7578 0.46094 4.6016 0.92188 1.3789 0 2.7578 0.92188 4.5977 0.92188h282.84c12.875 0 22.996-10.578 22.996-22.996l0.007812-567.99 38.629 37.25c9.1992 8.7383 23.914 8.2773 32.652-0.46094 8.7383-9.1914 8.7383-23.91-0.45703-32.648zm-347.23-86.922h-316.88c-12.875 0-22.996-10.117-22.996-22.996 0-12.418 10.121-22.996 22.996-22.996h316.87c12.414 0 22.996 10.578 22.996 22.996 0 12.879-10.578 22.996-22.992 22.996zm93.816 70.824c12.418 0 22.996 10.121 22.996 22.996 0 12.879-10.578 22.996-22.996 22.996l-504.97-0.003906c-12.418 0-22.996-10.117-22.996-22.996 0-12.875 10.578-22.996 22.996-22.996zm-175.22-187.18h-154.53c-12.879 0-22.996-10.578-22.996-22.996 0-12.879 10.117-22.996 22.996-22.996h154.53c12.879 0 22.996 10.117 22.996 22.996-0.003907 12.418-10.117 22.996-22.996 22.996zm-296.64 590.05h-102.56c-12.879 0-22.996-10.117-22.996-22.996 0-12.414 10.117-22.996 22.996-22.996l102.56 0.003907c12.418 0 22.996 10.578 22.996 22.996 0 12.875-10.578 22.992-22.996 22.992zm22.996 93.82c0 12.875-10.578 22.996-22.996 22.996h-97.039c-12.418 0-22.996-10.121-22.996-22.996 0-12.418 10.578-22.996 22.996-22.996l97.039 0.003906c12.418 0 22.996 10.578 22.996 22.992zm-21.152-210.18h-104.4c-12.879 0-22.996-10.578-22.996-22.996 0-12.879 10.117-22.996 22.996-22.996h104.4c12.875 0 22.996 10.117 22.996 22.996-0.003906 12.418-10.121 22.996-22.996 22.996zm-101.64-123.71c-12.875 0-22.996-10.578-22.996-22.996 0-12.879 10.121-22.996 22.996-22.996l638.34 0.003906c12.875 0 22.996 10.117 22.996 22.996 0 12.414-10.121 22.996-22.996 22.996zm638.34 116.36h-95.199c-12.875 0-22.996-10.117-22.996-22.996 0-12.414 10.121-22.996 22.996-22.996h95.199c12.875 0 22.996 10.578 22.996 22.996 0 12.879-10.121 22.996-22.996 22.996zm22.996 93.824c0 12.875-10.121 22.996-22.996 22.996h-95.199c-12.875 0-22.996-10.121-22.996-22.996 0-12.879 10.121-22.996 22.996-22.996h95.199c12.875 0 22.996 10.117 22.996 22.996zm-17.477 139.81h-100.72c-12.875 0-22.996-10.578-22.996-22.996 0-12.879 10.121-22.996 22.996-22.996h100.72c12.879 0 22.996 10.117 22.996 22.996 0 12.418-10.117 22.996-22.996 22.996z"/>
</svg>
