<?xml version="1.0" encoding="UTF-8"?>
<svg width="1200pt" height="1200pt" version="1.1" viewBox="0 0 1200 1200" xmlns="http://www.w3.org/2000/svg">
 <g fill-rule="evenodd">
  <path d="m1118.2 990.76h-1036.4c-6.3477 0-11.477-5.1289-11.477-11.477v-679.47c0-6.3477 5.1289-11.477 11.477-11.477h810.82c6.3477 0 11.477 5.1289 11.477 11.477s-5.1289 11.477-11.477 11.477h-799.11v656.28h1013.2v-656.03h-47.363c-6.3477 0-11.477-5.1289-11.477-11.477s5.1289-11.477 11.477-11.477h58.84c6.3477 0 11.477 5.1289 11.477 11.477v679.47c-0.003906 6.1055-5.1289 11.23-11.477 11.23z"/>
  <path d="m542.26 809.6c-4.1523 0-7.8125-2.1992-10.012-5.8594l-132.33-229.01c-1.7109-3.1758-1.9531-6.8359-0.73438-10.254 1.4648-3.418 4.1523-5.8594 7.5703-6.8359l107.67-28.809c6.1055-1.7109 12.453 1.9531 14.16 8.3008 1.7109 6.1055-1.9531 12.453-8.3008 14.16l-92.535 24.902 120.37 208.26 323.99-86.918-120.37-208.26-83.5 22.461c-6.1055 1.7109-12.453-1.9531-14.16-8.3008-1.7109-6.1055 1.9531-12.453 8.3008-14.16l92.043-24.66c5.1289-1.4648 10.5 0.97656 12.941 5.3711l132.33 229.01c1.7109 3.1758 1.9531 6.8359 0.73438 10.254-1.4648 3.418-4.1523 5.8594-7.5703 6.8359l-347.18 93.02c-1.2148 0.25-2.4375 0.49219-3.4141 0.49219z"/>
  <path d="m802.52 378.43c-4.1523 0-7.8125-2.1992-10.012-5.8594l-38.574-67.141c-3.1758-5.6172-1.2227-12.695 4.1523-15.871 5.6172-3.1758 12.695-1.2227 15.871 4.1523l34.18 59.328 89.113-23.926c6.1055-1.7109 12.453 1.9531 14.16 8.3008 1.7109 6.1055-1.9531 12.453-8.3008 14.16l-97.66 26.125c-0.97656 0.73047-1.9531 0.73047-2.9297 0.73047z"/>
  <path d="m81.789 571.55c-5.1289 0-9.7656-3.418-11.23-8.5469-1.7109-6.1055 1.9531-12.453 8.0586-14.16l171.64-45.898-113.53-197.27c-3.1758-5.6172-1.2227-12.695 4.1523-15.871 5.6172-3.1758 12.695-1.2227 15.871 4.1523l121.34 210.21c1.7109 3.1758 1.9531 6.8359 0.73438 10.254-1.4648 3.418-4.1523 5.8594-7.5703 6.8359l-186.04 49.809c-1.2227 0.24219-2.4453 0.48438-3.4219 0.48438z"/>
  <path d="m278.57 880.16c-5.1289 0-9.7656-3.418-11.23-8.5469-1.7109-6.1055 1.9531-12.453 8.3008-14.16l155.52-41.75-120.37-208.26-226.08 60.551c-6.1055 1.7109-12.453-1.9531-14.16-8.3008-1.7109-6.1055 1.9531-12.453 8.0586-14.16l234.63-62.746c5.1289-1.4648 10.5 0.97656 12.941 5.3711l132.33 229.01c1.7109 3.1758 1.9531 6.8359 0.73438 10.254-1.4648 3.418-4.1523 5.8594-7.8125 6.8359l-170.17 45.656c-0.73828 0.24609-1.7148 0.24609-2.6914 0.24609zm-196.79 52.734c-5.1289 0-9.7656-3.418-11.23-8.5469-1.7109-6.1055 1.9531-12.453 8.0586-14.16l128.91-34.426c6.1055-1.7109 12.453 1.9531 14.16 8.3008 1.7109 6.1055-1.9531 12.453-8.0586 14.16l-128.66 34.43c-0.97656 0.24219-2.1992 0.24219-3.1758 0.24219z"/>
  <path d="m227.79 990.76c-5.1289 0-9.7656-3.418-11.23-8.5469-1.7109-6.1055 1.9531-12.453 8.0586-14.16l269.3-72.27c5.1289-1.4648 10.5 0.97656 12.941 5.3711l41.75 72.27c3.1758 5.6172 1.2227 12.695-4.1523 15.871-5.6172 3.1758-12.695 1.2227-15.871-4.1523l-36.867-64.695-261 69.824c-0.97656 0.48828-1.9531 0.48828-2.9297 0.48828z"/>
  <path d="m647 990.76c-3.9062 0-7.8125-1.9531-10.012-5.8594l-56.156-97.172c-1.7109-3.1758-1.9531-6.8359-0.73438-10.254 1.4648-3.418 4.1523-5.8594 7.8125-6.8359l347.19-92.777c5.1289-1.4648 10.5 0.97656 12.941 5.3711l109.87 190.19c3.1758 5.6172 1.2227 12.695-4.1523 15.871-5.6172 3.1758-12.695 1.2227-15.871-4.1523l-105.47-182.62-323.99 86.918 48.586 84.23c3.1758 5.6172 1.2227 12.695-4.1523 15.871-1.9492 0.73438-3.9023 1.2227-5.8555 1.2227z"/>
  <path d="m1118.2 925.33c-3.9062 0-7.8125-1.9531-10.012-5.8594l-86.43-149.91c-1.7109-3.1758-1.9531-6.8359-0.73438-10.254 1.4648-3.418 4.1523-5.8594 7.8125-6.8359l86.43-23.195c6.1055-1.7109 12.453 1.9531 14.16 8.0586 0.24609 0.97656 0.24609 1.7109 0.48828 2.6875v0.73437c-0.24609 4.8828-3.6641 9.5234-8.5469 10.742l-72.023 19.289 79.105 136.97c0.97656 1.7109 1.4648 3.6641 1.4648 5.3711v0.48828c0 3.9062-2.1992 7.5703-5.8594 9.7656-1.9492 1.4609-3.9023 1.9492-5.8555 1.9492z"/>
  <path d="m1018.6 417.5c-5.1289 0-9.7656-3.418-11.23-8.5469-1.7109-6.1055 1.9531-12.453 8.0586-14.16l99.613-26.613c6.1055-1.7109 12.453 1.9531 14.16 8.3008 0.24609 0.97656 0.24609 1.7109 0.48828 2.6875v0.73438c-0.24609 4.8828-3.6641 9.5234-8.5469 10.742l-99.613 26.613c-0.97656 0-1.9531 0.24219-2.9297 0.24219zm111.09 226.57v-0.73437c0-0.97656-0.24609-1.7109-0.48828-2.6875-1.7109-6.1055-8.0586-9.7656-14.16-8.3008l-126.23 34.184-120.37-208.26 79.105-21.242c6.1055-1.7109 9.7656-8.0586 8.0586-14.16-1.7109-6.1055-8.0586-9.7656-14.16-8.3008l-93.754 25.148c-3.418 0.97656-6.3477 3.418-7.5703 6.8359-1.4648 3.418-1.2227 7.082 0.73438 10.254l132.33 229.01c2.1992 3.6641 5.8594 5.8594 10.012 5.8594 0.97656 0 1.9531-0.24609 2.9297-0.48828l135.02-36.133c5.125-1.4648 8.3008-6.1016 8.543-10.984z"/>
  <path d="m361.59 496.6c-4.1523 0-7.8125-2.1992-10.012-5.8594l-106.94-185.07c-3.1758-5.6172-1.2227-12.695 4.1523-15.871 5.6172-3.1758 12.695-1.2227 15.871 4.1523l102.54 177.5 323.99-86.918-45.656-79.105c-3.1758-5.6172-1.2227-12.695 4.1523-15.871 5.6172-3.1758 12.695-1.2227 15.871 4.1523l53.227 92.043c1.7109 3.1758 1.9531 6.8359 0.73438 10.254-1.4648 3.418-4.1523 5.8594-7.8125 6.8359l-347.18 93.02c-0.98438 0.49609-1.9609 0.73828-2.9375 0.73828z"/>
  <path d="m600.12 483.91c-15.137 0-30.52 4.1523-42.727 12.207-23.438 15.383-33.203 42.238-27.344 75.93 3.6641 21.484 33.938 73.734 55.91 111.82 5.1289 8.7891 10.012 17.09 14.16 24.414 4.1523-7.3242 9.0352-15.625 14.16-24.414 21.973-38.086 52.25-90.09 55.91-111.82 5.8594-33.449-3.9062-60.551-27.344-75.93-12.449-8.0547-27.59-12.207-42.727-12.207zm0 260.27c-4.3945 0-8.3008-2.4414-10.254-6.3477-4.8828-9.7656-13.672-24.902-23.684-42.48-24.172-41.75-54.203-93.754-58.84-119.39-7.3242-42.48 6.1055-78.617 37.355-99.125 32.715-21.484 78.371-21.484 111.09 0 31.25 20.508 44.68 56.645 37.355 99.125-4.3945 25.637-34.668 77.641-58.84 119.39-10.254 17.578-19.043 32.715-23.684 42.238-2.1992 4.1484-6.1055 6.5898-10.5 6.5898z"/>
  <path d="m600.12 531.03c-13.672 0-24.902 11.23-24.902 24.902 0 13.918 11.23 24.902 24.902 24.902 13.918 0 25.148-11.23 25.148-24.902-0.24219-13.672-11.477-24.902-25.148-24.902zm0 73.246c-26.613 0-48.098-21.484-48.098-48.098s21.484-48.098 48.098-48.098c26.613 0 48.098 21.484 48.098 48.098 0 26.367-21.727 48.098-48.098 48.098z"/>
  <path d="m320.81 779.33m-81.301-90.09c-15.137 0-30.52 4.1523-42.727 12.207-23.438 15.383-33.203 42.238-27.344 75.93 3.6641 21.484 33.938 73.734 55.91 111.82 5.1289 8.7891 10.012 17.09 14.16 24.414 4.1523-7.3242 9.0352-15.625 14.16-24.414 21.973-38.086 52.25-90.09 55.91-111.82 5.8594-33.449-3.9062-60.551-27.344-75.93-12.453-8.3008-27.59-12.207-42.727-12.207zm0 260.02c-4.3945 0-8.3008-2.4414-10.254-6.3477-4.8828-9.7656-13.672-24.902-23.684-42.48-24.414-41.754-54.445-93.512-59.082-119.15-7.3242-42.48 6.1055-78.617 37.355-99.125 32.715-21.484 78.371-21.484 111.09 0 31.25 20.508 44.68 56.645 37.355 99.125-4.3945 25.637-34.668 77.641-58.84 119.39-10.254 17.578-19.043 32.715-23.684 42.48-1.957 3.6641-5.8633 6.1055-10.258 6.1055z"/>
  <path d="m239.51 736.11c-13.918 0-25.148 11.23-25.148 24.902s11.23 24.902 25.148 24.902c13.672 0 24.902-11.23 24.902-24.902s-11.23-24.902-24.902-24.902zm0 73.246c-26.613 0-48.098-21.484-48.098-48.098s21.73-48.098 48.098-48.098c26.613 0 48.098 21.484 48.098 48.098 0 26.367-21.73 48.098-48.098 48.098z"/>
  <path d="m975.87 232.43c-15.137 0-30.52 4.1523-42.727 12.207-23.438 15.383-33.203 42.238-27.344 75.93 3.6641 21.484 33.938 73.734 55.91 111.82 5.1289 8.7891 10.012 17.09 14.16 24.414 4.1523-7.3242 9.0352-15.625 14.16-24.414 21.973-38.086 52.25-90.09 55.91-111.82 5.8594-33.449-3.9062-60.551-27.344-75.93-12.211-8.0547-27.348-12.207-42.727-12.207zm0 260.27c-4.3945 0-8.3008-2.4414-10.254-6.3477-4.8828-9.7656-13.672-24.902-23.684-42.48-24.172-41.75-54.203-93.754-58.84-119.39-7.3242-42.48 6.1055-78.617 37.355-99.125 32.715-21.484 78.371-21.484 111.09 0 31.25 20.508 44.68 56.645 37.355 99.125-4.3945 25.637-34.668 77.641-58.84 119.39-10.254 17.578-19.043 32.715-23.684 42.238-1.957 4.1484-6.1055 6.5898-10.5 6.5898z"/>
  <path d="m975.87 279.55c-13.918 0-24.902 11.23-24.902 24.902 0 13.918 11.23 24.902 24.902 24.902 13.918 0 24.902-11.23 24.902-24.902 0.24219-13.914-10.988-24.902-24.902-24.902zm0 73.004c-26.613 0-48.098-21.484-48.098-48.098s21.484-48.098 48.098-48.098c26.613 0 48.098 21.484 48.098 48.098 0 26.609-21.488 48.098-48.098 48.098z"/>
 </g>
</svg>
