<?xml version="1.0" encoding="UTF-8"?>
<svg width="1200pt" height="1200pt" version="1.1" viewBox="0 0 1200 1200" xmlns="http://www.w3.org/2000/svg">
 <path d="m527.02 843.98v-487.97c0-6.6562 5.3438-12 12-12 6.6094 0 12 5.3438 12 12v488.02-0.046875c0 6.6562-5.3906 12-12 12-6.6562 0-12-5.3438-12-12zm72.984 12c3.1875 0 6.2344-1.2656 8.4844-3.5156s3.5156-5.2969 3.5156-8.4844v-487.97c0-6.6562-5.3906-12-12-12s-12 5.3438-12 12v488.02-0.046875c0 3.1875 1.2656 6.2344 3.5156 8.4844s5.2969 3.5156 8.4844 3.5156zm60.984 0c3.1875 0 6.2344-1.2656 8.4844-3.5156s3.5156-5.2969 3.5156-8.4844v-487.97c0-6.6562-5.3438-12-12-12-6.6094 0-12 5.3438-12 12v488.02-0.046875c0 3.1875 1.2656 6.2344 3.5156 8.4844s5.2969 3.5156 8.4844 3.5156zm94.5-618c5.7656 7.6406 8.9531 16.922 9 26.531 0.28125 18.984-12.234 35.766-30.469 40.969v589.03c18.234 5.2031 30.75 21.984 30.469 40.969-0.046875 9.6094-3.2344 18.891-9 26.531 24.422 12.469 39.703 37.594 39.516 64.969v61.031c0 3.1875-1.2656 6.2344-3.5156 8.4844s-5.2969 3.5156-8.4844 3.5156h-366c-6.6094 0-12-5.3906-12-12v-61.031c-0.1875-27.375 15.094-52.5 39.516-64.969-5.7656-7.6406-8.9531-16.922-9-26.531-0.28125-18.984 12.234-35.766 30.469-40.969v-589.03c-18.234-5.2031-30.75-21.984-30.469-40.969 0.046875-9.6094 3.2344-18.891 9-26.531-24.422-12.469-39.703-37.594-39.516-64.969v-61.031c0-6.6094 5.3906-12 12-12h366c3.1875 0 6.2344 1.2656 8.4844 3.5156s3.5156 5.2969 3.5156 8.4844v61.031c0.1875 27.375-15.094 52.5-39.516 64.969zm-265.5 69.516v585h219.98l0.046875-585zm231.98 670.5h-243.98c-27.609 0-49.969 22.406-49.969 50.016v50.016h341.02v-50.016h-0.046875c0.046875-26.484-20.531-48.422-46.969-50.016zm0-60.984h-243.98c-9.9844 0.23438-18 8.4375-18 18.469 0 9.9375 8.0625 18 18 18h244.03c9.9375 0 18-8.0625 18-18 0-10.031-8.0156-18.234-18-18.469zm18-650.02h0.046875c0-9.9375-8.0625-18-18-18h-244.03c-9.9375 0-18 8.0625-18 18 0 10.031 8.0156 18.234 18 18.516h244.03c5.25-0.09375 10.266-2.4375 13.688-6.4688 3.4688-4.0312 5.0156-9.3281 4.3125-14.531zm30.516-140.02h-340.97v50.016c0 13.266 5.25 25.969 14.625 35.344s22.078 14.672 35.344 14.672h244.03c13.266 0 25.969-5.2969 35.344-14.672s14.625-22.078 14.625-35.344z"/>
</svg>
