<?xml version="1.0" encoding="UTF-8"?>
<svg width="1200pt" height="1200pt" version="1.1" viewBox="0 0 1200 1200" xmlns="http://www.w3.org/2000/svg">
 <path d="m740.3 1199.1c-37.156 3.3125-74.289-6.5898-104.86-27.973-27.32-18.672-51.398-41.695-71.281-68.148-35.891-48.969-63.98-103.2-83.266-160.77-36.98-110.25-55.152-225.94-53.746-342.21-0.73828-116.21 17.711-231.75 54.598-341.96 19.359-57.445 47.398-111.59 83.137-160.55 19.695-26.5 43.648-49.551 70.887-68.207 30.43-21.445 67.438-31.492 104.53-28.379 11.34 1.3359 21.418 7.8516 27.293 17.641 5.8711 9.7891 6.8789 21.746 2.7227 32.379-4.1523 10.633-13 18.742-23.957 21.953l-6.0586 1.7617c-17.445 5.3477-32.945 15.684-44.586 29.734-14.32 16.445-26.281 34.805-35.531 54.555-20.895 43.953-36.418 90.262-46.234 137.93-21.359 99.609-31.609 201.28-30.562 303.15-0.38281 101.8 10.148 203.34 31.414 302.9 9.9023 47.559 25.379 93.781 46.109 137.71 9.0664 19.773 20.895 38.16 35.133 54.613 11.52 14.121 26.898 24.594 44.258 30.141l6.2852 1.9336c10.832 3.332 19.527 11.461 23.582 22.039 4.0508 10.582 3.0156 22.441-2.8164 32.156-5.832 9.7148-15.805 16.207-27.051 17.609z"/>
</svg>
