<?xml version="1.0" encoding="UTF-8"?>
<svg width="1200pt" height="1200pt" version="1.1" viewBox="0 0 1200 1200" xmlns="http://www.w3.org/2000/svg">
 <g>
  <path d="m438 973.2c-10.801 6-25.199 2.3984-31.199-9.6016-6-10.801-2.3984-25.199 9.6016-31.199 49.199-26.398 36-154.8 21.602-289.2-10.801-92.398-20.398-187.2-10.801-262.8 12-102 57.602-169.2 175.2-154.8 8.3984 1.1992 16.801 3.6016 25.199 6 25.199 8.3984 49.199 26.398 67.199 51.602 16.801 25.199 27.602 57.602 22.801 97.199-2.3984 12-4.8008 25.199-9.6016 39.602-4.8008 12-9.6016 22.801-15.602 33.602 18 8.3984 33.602 20.398 48 36 22.801 24 39.602 56.398 48 91.199 9.6016 34.801 10.801 73.199 2.3984 106.8-22.801 86.398-104.4 151.2-278.4 106.8-7.1992-1.1992-13.199-7.1992-15.602-13.199 3.6016 91.199-7.1992 164.4-58.801 192zm46.801-346.8c4.8008 43.199 9.6016 87.602 12 127.2 3.6016-12 15.602-19.199 28.801-15.602 140.4 36 205.2-10.801 220.8-73.199 7.1992-27.602 6-56.398-1.1992-84s-20.398-52.801-37.199-70.801c-12-14.398-27.602-24-44.398-27.602-9.6016 10.801-19.199 19.199-27.602 25.199-12 8.3984-22.801 14.398-33.602 16.801-14.398 4.8008-27.602 3.6016-37.199-4.8008-7.1992-4.8008-12-12-14.398-20.398-2.3984-8.3984 0-18 6-22.801 30-27.602 60-40.801 87.602-43.199 8.3984-12 15.602-25.199 20.398-40.801 4.8008-9.6016 7.1992-20.398 8.3984-30 2.3984-26.398-3.6016-48-15.602-64.801-10.801-16.801-27.602-28.801-43.199-33.602-6-2.3984-10.801-3.6016-15.602-3.6016-82.801-10.801-115.2 39.602-124.8 114-8.3984 70.801 1.1992 163.2 10.801 252z"/>
  <path d="m600 6c164.4 0 312 66 420 174s174 255.6 174 420-66 312-174 420-255.6 174-420 174-312-66-420-174-174-255.6-174-420 66-312 174-420 255.6-174 420-174zm379.2 214.8c-97.199-97.199-230.4-157.2-379.2-157.2s-282 60-379.2 157.2-157.2 230.4-157.2 379.2 60 282 157.2 379.2 230.4 157.2 379.2 157.2 282-60 379.2-157.2 157.2-230.4 157.2-379.2-60-282-157.2-379.2z"/>
 </g>
</svg>
