<?xml version="1.0" standalone="no"?>
<!DOCTYPE svg PUBLIC "-//W3C//DTD SVG 20010904//EN"
 "http://www.w3.org/TR/2001/REC-SVG-20010904/DTD/svg10.dtd">
<svg version="1.0" xmlns="http://www.w3.org/2000/svg"
 width="1536.000000pt" height="1253.000000pt" viewBox="0 0 1536.000000 1253.000000"
 preserveAspectRatio="xMidYMid meet">
<metadata>
Created by potrace 1.16, written by Peter Selinger 2001-2019
</metadata>
<g transform="translate(0.000000,1253.000000) scale(0.100000,-0.100000)"
fill="#000000" stroke="none">
<path d="M12695 12108 c-49 -4 -223 -11 -385 -17 -323 -11 -558 -32 -690 -62
-47 -10 -146 -26 -220 -34 -248 -28 -290 -36 -398 -71 -142 -47 -222 -64 -309
-64 -54 0 -83 -5 -112 -21 -22 -11 -66 -25 -98 -30 -144 -24 -215 -41 -260
-64 -18 -9 -41 -14 -52 -10 -20 6 -51 61 -51 89 0 26 37 56 69 56 16 0 34 7
41 15 31 37 -139 62 -202 29 l-31 -16 6 -94 c6 -97 -3 -124 -39 -124 -7 0 -58
-25 -111 -55 -54 -30 -102 -55 -108 -55 -10 0 -18 -12 -113 -185 -58 -106
-122 -201 -183 -275 -20 -25 -65 -88 -100 -140 -34 -52 -82 -120 -105 -151
-29 -38 -46 -71 -50 -100 -9 -55 -32 -109 -78 -179 -20 -30 -50 -88 -67 -130
-36 -87 -84 -164 -124 -200 -46 -42 -124 -167 -207 -332 -64 -128 -90 -169
-146 -230 -94 -101 -155 -183 -190 -255 -16 -34 -39 -75 -51 -91 -11 -17 -21
-33 -21 -37 0 -3 -21 -34 -47 -67 -27 -33 -59 -75 -73 -93 -14 -18 -44 -55
-67 -84 -23 -28 -51 -76 -63 -107 -35 -95 -82 -155 -171 -218 -79 -57 -123
-76 -259 -111 -36 -9 -90 -29 -120 -43 -48 -23 -68 -27 -150 -27 -68 0 -103 5
-125 16 -16 9 -54 29 -83 44 -29 16 -66 43 -82 62 -16 18 -51 46 -77 62 -180
106 -219 141 -258 226 -9 22 -23 47 -30 55 -31 36 -95 182 -115 260 -20 79
-22 131 -6 171 7 16 -104 112 -220 190 l-53 36 -58 -19 c-32 -11 -92 -30 -133
-42 l-75 -21 -3 -38 c-2 -21 6 -66 18 -101 11 -35 23 -86 27 -113 6 -58 -12
-149 -36 -177 -12 -14 -16 -40 -16 -111 0 -93 0 -94 -34 -129 -47 -49 -84 -64
-224 -93 -67 -14 -137 -33 -157 -43 -42 -23 -186 -148 -209 -183 -51 -79 -144
-96 -222 -42 -24 17 -62 39 -83 50 -63 32 -130 99 -165 164 -27 52 -37 62 -71
71 -35 9 -45 7 -102 -21 l-64 -31 -13 -92 c-7 -50 -15 -130 -18 -177 -6 -85
-5 -87 24 -125 29 -37 126 -221 192 -365 16 -36 36 -70 43 -76 7 -6 43 -13 80
-16 83 -8 134 -33 186 -92 58 -66 72 -116 72 -254 0 -64 5 -166 10 -228 6 -67
6 -145 1 -197 -8 -84 -10 -88 -68 -168 -33 -46 -74 -108 -91 -139 -18 -31 -71
-100 -118 -152 -68 -77 -95 -99 -132 -112 -26 -10 -75 -30 -109 -46 -35 -16
-67 -29 -72 -29 -5 0 -29 -15 -53 -33 -186 -141 -352 -222 -603 -293 -65 -18
-118 -41 -162 -70 -35 -23 -88 -48 -116 -54 -29 -7 -70 -24 -92 -39 -38 -25
-65 -39 -178 -91 -26 -12 -97 -49 -157 -81 -59 -33 -113 -59 -119 -59 -19 0
-202 -81 -255 -113 -28 -16 -87 -47 -131 -67 -44 -20 -109 -59 -145 -86 -77
-59 -117 -79 -199 -100 -79 -20 -202 -69 -265 -106 -26 -16 -118 -63 -203
-105 -169 -83 -169 -83 -193 -189 -27 -117 -97 -149 -146 -65 -16 27 -22 29
-93 34 -106 6 -138 -16 -193 -135 -23 -51 -25 -60 -12 -65 10 -4 26 5 41 21
25 27 27 28 129 24 109 -3 125 -10 138 -55 5 -16 -2 -32 -29 -61 -19 -22 -35
-43 -35 -48 0 -20 -54 -111 -85 -144 -18 -19 -36 -46 -40 -58 -4 -13 -29 -48
-56 -78 -27 -29 -51 -66 -55 -81 -7 -28 -67 -155 -109 -228 -13 -22 -26 -51
-30 -65 -4 -14 -18 -39 -31 -57 -13 -17 -24 -34 -24 -37 0 -10 -80 -123 -122
-172 -23 -28 -59 -78 -78 -113 -19 -34 -55 -93 -80 -129 -24 -37 -61 -110 -81
-163 -62 -159 -134 -289 -188 -339 -34 -32 -53 -60 -64 -95 -9 -27 -27 -79
-41 -115 -14 -36 -39 -103 -56 -150 -17 -47 -51 -121 -75 -165 -24 -44 -55
-122 -70 -174 -14 -51 -34 -112 -44 -135 -18 -38 -31 -113 -51 -278 -5 -36
-14 -84 -20 -105 -19 -62 -30 -184 -41 -433 -5 -129 -12 -272 -15 -317 -4 -59
-1 -98 10 -137 9 -30 16 -82 16 -117 0 -37 14 -120 34 -203 19 -78 42 -176 51
-218 9 -43 21 -78 26 -78 40 0 96 25 115 50 11 16 58 60 103 96 46 37 92 82
103 100 11 18 58 67 105 109 71 64 107 87 226 144 78 37 162 81 185 99 49 35
219 104 297 120 90 19 171 32 198 32 15 0 46 12 69 28 37 24 51 27 122 27 45
0 96 -4 113 -8 30 -8 34 -6 44 20 5 15 21 39 33 53 13 14 39 50 58 80 53 82
125 145 367 322 212 155 306 218 371 249 174 83 301 133 365 144 38 6 97 26
130 42 58 29 171 63 211 63 10 0 73 14 139 31 101 26 132 30 193 25 62 -5 81
-2 130 18 31 13 91 31 132 41 41 9 98 25 125 35 75 27 180 40 319 40 133 0
141 3 112 45 -31 46 -48 125 -42 193 12 116 28 216 38 236 6 11 17 42 24 70
34 129 85 260 117 300 19 22 40 52 47 66 33 64 216 339 249 373 20 21 56 50
81 63 55 29 129 83 201 145 59 51 124 87 209 114 54 18 121 55 149 82 18 19
56 33 87 33 14 0 35 7 48 15 13 8 41 17 62 19 21 2 63 16 92 30 30 15 68 29
85 32 18 3 51 13 74 21 68 25 133 4 133 -42 0 -29 -69 -72 -131 -81 -119 -16
-169 -94 -169 -260 0 -96 37 -144 112 -144 17 0 17 2 5 27 -29 56 -30 73 -7
73 14 0 22 8 26 28 3 15 25 47 50 72 24 24 46 52 49 61 6 19 32 32 46 23 5 -3
-9 -27 -31 -54 -22 -26 -40 -53 -40 -58 0 -6 -8 -15 -17 -21 -31 -17 -41 -79
-21 -136 19 -57 36 -71 96 -81 54 -9 55 7 2 41 -43 27 -48 36 -26 55 8 6 12
18 9 26 -3 9 3 22 16 30 11 8 21 23 21 33 0 11 7 21 15 25 8 3 15 12 15 20 0
23 17 28 34 10 22 -22 21 -24 -24 -73 -43 -46 -48 -62 -25 -81 8 -7 15 -18 15
-25 0 -7 25 -28 56 -48 49 -32 60 -36 100 -30 43 6 62 23 27 23 -43 1 -62 32
-74 116 -13 101 -9 159 11 159 8 0 16 -9 17 -20 1 -11 5 -54 8 -95 6 -74 7
-75 49 -108 45 -33 83 -40 130 -22 37 14 32 34 -15 55 -57 26 -69 48 -69 126
0 51 -5 72 -20 92 -11 14 -20 34 -20 44 0 19 55 111 74 124 5 4 6 21 3 38 -5
23 -2 36 12 50 16 16 31 18 112 14 52 -3 117 -11 144 -18 49 -14 199 -98 240
-135 13 -12 43 -20 85 -23 36 -3 101 -10 145 -16 44 -5 118 -7 165 -5 63 4 99
1 140 -11 31 -10 94 -18 145 -18 81 -2 96 -5 149 -34 l60 -33 193 0 193 0 53
30 c66 37 116 45 197 30 73 -13 124 -37 174 -80 24 -22 44 -30 70 -30 42 0 40
-16 15 136 -26 158 13 318 96 391 23 21 61 50 84 65 32 22 41 34 41 56 0 59
31 154 100 308 11 23 22 55 26 70 4 16 17 47 30 69 27 48 74 211 74 259 0 19
9 73 21 121 15 66 18 94 10 116 -9 28 1 91 19 114 4 6 11 30 15 53 5 33 18 54
49 85 60 59 145 116 183 123 43 8 92 -12 104 -43 11 -28 48 -45 109 -49 25 -1
50 -3 57 -3 6 -1 30 -17 53 -36 23 -19 49 -39 58 -44 19 -11 20 -69 1 -82 -8
-5 -29 -8 -46 -5 -29 4 -33 2 -33 -18 0 -23 35 -39 159 -71 54 -14 55 -14 129
20 40 19 71 38 68 43 -8 14 22 36 86 65 53 24 57 28 74 80 l17 55 -35 41 c-50
59 -109 87 -197 94 -40 3 -76 8 -79 11 -3 3 0 17 6 31 9 20 19 25 50 25 26 0
45 -7 57 -20 10 -11 25 -20 34 -20 9 0 34 -9 56 -20 72 -37 83 -23 33 43 -39
52 -82 73 -178 88 -68 11 -79 10 -120 -8 -65 -29 -94 -34 -129 -22 -31 11 -50
46 -36 69 3 6 2 25 -4 43 -17 51 -20 303 -5 372 15 70 49 230 70 330 8 39 19
93 25 120 6 28 26 75 45 107 19 31 34 61 34 66 0 5 16 33 35 61 19 29 44 78
55 110 12 32 39 80 60 107 21 27 50 73 65 102 19 37 47 69 89 102 33 27 87 79
120 115 32 37 75 77 95 89 114 72 181 106 221 112 40 6 74 21 144 61 12 8 58
13 112 13 l92 0 12 29 c6 17 13 82 14 148 1 91 5 125 17 144 9 13 20 45 24 69
4 25 24 77 46 117 25 47 42 94 48 135 7 45 22 85 55 143 25 44 46 83 46 87 0
5 25 46 56 93 41 62 88 114 177 195 204 185 241 217 267 230 14 7 48 27 75 45
28 18 82 53 121 79 39 25 77 53 85 62 7 9 58 38 113 66 56 28 119 66 141 84
23 18 72 47 111 64 38 17 80 38 94 46 60 36 160 77 220 91 90 21 191 55 286
97 84 37 257 79 378 90 89 9 102 16 110 66 9 56 47 128 89 169 25 24 39 49 48
85 15 67 50 135 84 166 15 14 52 57 81 95 47 62 155 176 309 326 53 51 88 69
135 69 28 0 239 129 347 212 24 18 56 40 73 49 16 9 55 35 85 58 59 45 59 45
17 90 -7 7 -33 44 -57 82 -55 84 -78 101 -235 179 -69 34 -147 73 -175 87
-139 72 -193 99 -220 110 -16 7 -77 37 -135 68 -201 107 -304 145 -414 157
-71 7 -130 21 -209 49 -78 28 -138 42 -206 49 -122 12 -508 17 -626 8z m-2380
-6490 c15 -18 42 -40 59 -48 41 -20 46 -53 12 -75 -32 -21 -60 -13 -51 15 7
23 -49 90 -76 90 -22 0 -33 16 -25 35 10 26 53 17 81 -17z m-253 8 c31 -13 88
-73 88 -92 0 -4 7 -15 15 -24 8 -8 15 -35 17 -59 3 -39 0 -46 -27 -62 -16 -10
-37 -23 -47 -28 -12 -8 -17 -7 -22 4 -3 9 8 25 29 42 37 30 45 62 20 83 -8 7
-15 19 -15 27 0 20 -64 83 -84 83 -9 0 -16 8 -16 20 0 24 -1 24 42 6z m157
-61 c52 -66 59 -91 41 -139 -16 -42 -33 -32 -25 14 6 37 3 44 -45 105 -46 59
-55 85 -30 85 4 0 31 -29 59 -65z m-3949 -1677 c-1 -11 -61 -55 -152 -111 -16
-9 -34 -15 -39 -12 -17 11 -9 34 13 41 12 3 49 26 82 50 59 44 96 56 96 32z"/>
</g>
</svg>
