<?xml version="1.0" standalone="no"?>
<!DOCTYPE svg PUBLIC "-//W3C//DTD SVG 20010904//EN"
 "http://www.w3.org/TR/2001/REC-SVG-20010904/DTD/svg10.dtd">
<svg version="1.0" xmlns="http://www.w3.org/2000/svg"
 width="1278.000000pt" height="1536.000000pt" viewBox="0 0 1278.000000 1536.000000"
 preserveAspectRatio="xMidYMid meet">
<metadata>
Created by potrace 1.16, written by Peter Selinger 2001-2019
</metadata>
<g transform="translate(0.000000,1536.000000) scale(0.100000,-0.100000)"
fill="#000000" stroke="none">
<path d="M2271 15098 c-99 -14 -127 -30 -153 -85 -13 -26 -29 -54 -35 -61 -7
-7 -13 -16 -14 -20 -5 -40 -9 -111 -8 -127 7 -67 0 -118 -18 -143 -17 -23 -29
-27 -77 -30 -52 -3 -67 2 -179 56 -150 72 -193 88 -278 102 -60 9 -73 8 -129
-13 -54 -21 -65 -30 -88 -70 l-25 -46 23 -72 c41 -130 11 -244 -84 -323 -28
-23 -96 -88 -153 -145 l-104 -104 -67 -6 c-62 -6 -68 -8 -89 -41 -50 -78 -90
-125 -135 -159 -47 -34 -47 -35 -31 -60 15 -23 15 -25 -7 -43 -12 -10 -33 -18
-46 -18 -32 0 -105 -30 -99 -40 3 -5 27 -12 53 -16 61 -9 82 -20 82 -44 0 -38
-40 -45 -155 -28 -15 2 -20 -3 -20 -22 0 -19 9 -30 35 -43 20 -10 34 -23 32
-32 -5 -25 17 -53 71 -93 73 -53 92 -61 176 -72 85 -12 91 -15 91 -41 0 -21
-35 -39 -75 -39 -12 0 -25 -7 -29 -15 -7 -18 23 -35 61 -35 62 0 70 -45 15
-88 -30 -24 -41 -43 -58 -100 -18 -63 -19 -75 -8 -109 8 -21 14 -56 14 -78 0
-45 22 -85 47 -85 29 0 140 -60 185 -100 25 -21 59 -65 76 -98 24 -45 41 -64
69 -77 21 -10 70 -40 109 -67 69 -49 73 -50 175 -59 57 -6 145 -17 195 -25 57
-9 166 -14 300 -14 280 0 384 -19 491 -86 42 -27 67 -57 139 -164 48 -72 116
-161 151 -197 35 -36 81 -90 101 -121 20 -31 57 -71 82 -88 119 -86 149 -125
192 -244 16 -47 23 -87 23 -145 0 -91 -12 -125 -85 -245 -25 -41 -53 -91 -62
-110 -9 -19 -29 -62 -44 -95 -14 -33 -41 -82 -58 -110 -31 -49 -81 -149 -126
-250 -12 -27 -41 -77 -65 -110 -47 -67 -160 -249 -190 -308 -11 -21 -34 -55
-50 -75 -17 -21 -43 -57 -59 -82 -16 -25 -61 -77 -100 -115 -126 -125 -406
-439 -481 -540 -17 -22 -50 -65 -74 -95 -25 -30 -57 -82 -72 -115 -39 -86 -78
-135 -147 -186 -42 -30 -69 -60 -87 -93 -14 -27 -41 -74 -59 -105 -18 -31 -46
-78 -61 -105 -15 -26 -57 -87 -92 -134 -59 -77 -134 -213 -223 -406 -20 -43
-36 -97 -42 -145 -7 -57 -22 -102 -59 -180 -49 -103 -59 -147 -38 -168 6 -6
11 -34 11 -63 -1 -90 -32 -109 -214 -130 -100 -12 -154 -7 -200 16 -15 8 -36
14 -46 14 -11 0 -39 16 -63 35 -24 19 -52 35 -63 35 -15 0 -17 -5 -11 -32 19
-93 18 -113 -9 -145 -28 -33 -33 -65 -14 -80 18 -13 100 -43 120 -43 9 0 19 9
23 20 10 30 54 60 91 60 18 0 55 -11 82 -25 28 -14 55 -25 62 -25 7 0 24 -7
38 -15 38 -20 118 -45 148 -45 14 0 38 -7 54 -15 35 -18 48 -70 33 -128 -7
-26 -7 -51 -1 -73 5 -19 8 -85 6 -147 -3 -112 11 -195 57 -337 9 -25 15 -56
15 -70 0 -27 16 -77 50 -154 15 -36 22 -79 26 -160 5 -104 27 -247 41 -269 3
-6 10 -152 14 -326 8 -308 21 -432 50 -467 5 -6 7 -18 4 -26 -3 -8 3 -38 15
-67 13 -34 20 -75 20 -119 0 -48 8 -91 30 -152 16 -47 29 -95 30 -107 0 -23
12 -81 35 -168 64 -241 115 -487 115 -558 1 -83 26 -246 49 -317 11 -36 21
-78 21 -95 0 -16 11 -48 25 -70 13 -22 25 -55 25 -73 0 -19 6 -46 14 -60 22
-43 36 -96 36 -133 0 -20 6 -55 14 -80 8 -24 20 -81 26 -127 6 -46 18 -101 26
-124 8 -22 14 -60 14 -84 0 -23 4 -45 10 -49 9 -6 102 -153 146 -231 13 -23
50 -84 83 -135 33 -52 78 -128 101 -169 80 -150 150 -240 242 -315 48 -38 95
-79 106 -90 41 -44 272 -335 295 -372 14 -22 51 -70 82 -107 53 -62 86 -105
250 -322 137 -182 187 -235 255 -269 27 -14 64 -37 82 -53 96 -81 138 -102
158 -77 14 16 12 49 -12 225 -9 66 -13 234 -13 550 0 421 1 460 19 515 11 33
23 65 27 70 9 13 35 137 44 215 10 83 23 129 53 188 27 53 101 132 157 167 17
11 55 43 85 71 173 162 251 222 354 270 175 81 232 104 321 128 55 15 115 34
133 42 l32 14 0 159 c0 88 -4 162 -8 165 -14 8 -33 109 -33 168 0 29 -2 170
-5 313 -5 239 -4 269 17 375 12 63 25 144 29 180 4 36 13 88 19 115 7 28 17
70 23 95 5 25 16 63 23 85 7 22 18 58 23 80 29 108 77 273 88 300 7 17 42 74
77 127 42 62 71 119 81 155 27 99 47 155 83 228 19 38 48 105 63 147 30 81 70
146 115 188 15 14 52 70 82 125 55 97 221 350 271 410 68 83 176 149 327 199
44 15 91 33 105 40 14 8 81 43 150 78 69 35 152 82 185 104 33 23 123 73 200
112 77 39 158 86 180 105 86 73 222 137 292 137 17 0 35 5 38 10 10 16 -75
110 -104 116 -61 12 -134 59 -189 122 -31 35 -87 97 -124 137 -81 88 -114 157
-148 304 -7 30 -23 75 -36 100 -37 76 -66 178 -59 210 14 66 95 87 170 43 31
-19 51 -22 148 -22 131 0 145 -6 182 -80 14 -27 36 -61 51 -77 14 -15 30 -38
35 -50 4 -12 28 -50 52 -85 24 -35 52 -81 63 -103 10 -22 38 -64 61 -93 44
-54 83 -128 83 -157 0 -9 11 -33 25 -53 14 -20 25 -42 25 -50 0 -7 10 -29 23
-50 23 -37 77 -148 77 -158 0 -3 25 -31 55 -62 30 -31 64 -75 76 -97 31 -60
69 -167 69 -196 0 -14 12 -44 28 -65 33 -47 52 -88 52 -114 0 -21 38 -95 74
-145 20 -28 77 -123 123 -205 29 -51 92 -214 115 -294 14 -52 30 -81 63 -118
25 -28 61 -77 81 -111 20 -34 57 -93 81 -130 24 -37 58 -98 74 -135 67 -148
114 -236 164 -312 97 -144 236 -372 256 -417 10 -24 34 -76 53 -116 19 -40 46
-110 60 -158 l25 -85 71 -45 c105 -66 194 -123 200 -129 3 -3 26 -21 52 -40
27 -20 67 -66 95 -108 63 -99 123 -150 224 -192 63 -25 97 -47 138 -88 30 -30
85 -69 122 -87 37 -19 100 -61 140 -93 41 -33 133 -99 204 -147 72 -48 150
-104 175 -124 25 -21 81 -63 125 -94 44 -30 100 -74 125 -97 25 -22 85 -61
134 -86 48 -24 102 -55 120 -68 17 -13 58 -38 91 -56 33 -18 74 -41 90 -50
106 -59 298 -150 318 -150 7 0 17 -4 23 -8 13 -13 197 -87 284 -116 41 -13
100 -26 130 -28 l55 -3 3 76 3 76 -69 139 c-38 76 -77 164 -87 194 -10 30 -27
77 -37 104 -55 138 -64 276 -27 414 11 42 24 109 29 147 45 373 53 402 155
580 29 50 71 128 95 175 38 78 41 90 36 138 -3 29 -1 73 5 98 12 45 11 46 -23
82 -74 79 -118 149 -173 276 -14 32 -25 65 -25 73 0 18 -90 211 -147 313 -16
30 -65 143 -93 215 -11 30 -41 107 -50 130 -4 11 -17 43 -29 72 -11 28 -34 93
-51 145 -17 51 -48 129 -70 173 -21 44 -56 123 -77 175 -38 95 -38 95 -39 245
0 132 -3 157 -23 205 -23 56 -36 96 -70 210 -10 36 -28 88 -39 115 -36 93 -45
189 -27 290 9 50 20 151 26 225 8 119 26 201 49 235 4 6 10 24 13 40 2 17 12
71 22 120 21 114 35 223 44 350 9 108 25 177 97 403 29 89 19 103 -82 117 -29
5 -103 34 -183 74 -157 78 -242 150 -350 296 -70 94 -131 189 -131 204 0 5
-29 40 -65 79 -77 83 -115 160 -115 233 0 40 -6 58 -25 81 -36 43 -35 111 2
150 26 27 31 28 119 28 51 0 95 4 98 9 4 5 25 12 49 16 41 6 71 16 112 38 83
43 137 67 154 67 38 0 232 94 263 127 12 13 25 23 29 23 15 0 148 87 199 130
50 43 184 202 209 247 6 12 11 52 11 90 0 66 11 112 39 163 8 14 23 40 33 59
17 31 18 44 9 156 -5 68 -14 131 -20 142 -24 44 -41 92 -52 153 -11 62 -18 85
-49 155 -43 96 -51 198 -21 268 39 91 90 98 217 31 75 -39 91 -44 111 -35 38
17 53 13 64 -18 8 -22 19 -31 49 -39 22 -5 42 -7 45 -4 3 3 3 31 -1 62 -5 45
-3 60 11 73 25 26 34 21 56 -30 l21 -48 24 28 c28 32 30 60 9 101 -14 26 -14
31 1 54 l17 26 23 -28 c20 -23 24 -38 24 -96 0 -60 -3 -72 -24 -92 -28 -27
-45 -88 -24 -88 24 0 87 50 104 82 32 61 34 86 13 123 -25 42 -23 100 4 100
14 0 26 -20 48 -75 35 -89 36 -116 8 -146 -29 -31 -19 -57 18 -48 65 15 92 58
71 113 -8 21 -5 29 12 43 12 10 30 18 39 18 21 0 51 49 51 83 0 14 4 37 9 50
20 52 -6 106 -89 187 -42 41 -92 84 -112 94 -24 13 -39 30 -45 50 -13 48 -66
69 -170 68 -68 0 -93 -4 -136 -25 -108 -52 -164 -76 -229 -99 -56 -19 -71 -21
-88 -10 -11 6 -32 12 -47 12 -79 0 -198 52 -290 127 -83 66 -106 94 -185 222
-39 62 -98 147 -132 188 -74 89 -154 196 -155 204 -3 29 -88 126 -146 170 -38
28 -97 77 -130 109 -33 31 -94 84 -135 117 -41 34 -105 92 -142 130 -37 38
-79 76 -95 84 -15 7 -64 35 -108 60 -44 25 -99 53 -123 62 -99 39 -223 104
-315 165 -155 101 -200 118 -507 187 -71 15 -110 28 -282 92 -176 64 -430 192
-509 256 -33 26 -66 47 -73 47 -8 0 -18 5 -21 10 -3 6 -15 10 -26 10 -11 0
-59 13 -107 29 -48 16 -112 35 -142 41 -30 7 -77 18 -105 25 -91 23 -170 37
-450 75 -118 17 -222 39 -290 63 -47 16 -96 22 -220 27 -88 4 -232 15 -320 24
-139 15 -235 16 -720 12 -779 -8 -1353 -30 -1405 -53 -8 -4 -217 -10 -465 -14
-247 -4 -581 -11 -740 -15 -248 -5 -297 -4 -335 9 -70 24 -102 43 -140 82 -19
20 -63 57 -98 82 -40 28 -77 65 -98 99 l-35 54 -57 -1 c-31 -1 -86 -6 -121
-11z m10033 -3062 c14 -34 5 -66 -18 -66 -21 0 -50 79 -36 95 16 20 39 7 54
-29z m-1522 -1110 c85 -39 97 -51 131 -126 38 -85 40 -97 26 -182 -12 -73 -16
-82 -55 -120 -24 -23 -49 -45 -58 -50 -8 -4 -17 -25 -21 -46 -10 -59 -37 -104
-80 -137 -23 -16 -48 -43 -56 -60 -9 -16 -35 -43 -58 -60 l-43 -30 -166 0
c-151 0 -170 2 -194 20 -35 25 -42 46 -40 118 1 46 6 64 27 88 22 26 25 40 25
102 0 57 7 86 29 139 53 124 174 272 256 313 22 11 53 30 68 43 44 34 117 30
209 -12z m-4183 -1742 c30 -25 31 -28 31 -113 0 -80 2 -89 25 -111 21 -20 25
-33 25 -82 0 -41 7 -73 25 -110 22 -46 25 -64 25 -169 0 -84 4 -127 16 -155
22 -53 16 -173 -11 -209 -30 -40 -116 -67 -195 -62 -57 4 -68 9 -92 36 -15 17
-28 41 -28 54 0 12 -9 39 -20 60 -29 54 -28 251 1 313 11 23 19 59 19 80 -3
105 13 393 22 419 26 73 101 96 157 49z"/>
</g>
</svg>
