<?xml version="1.0" standalone="no"?>
<!DOCTYPE svg PUBLIC "-//W3C//DTD SVG 20010904//EN"
 "http://www.w3.org/TR/2001/REC-SVG-20010904/DTD/svg10.dtd">
<svg version="1.0" xmlns="http://www.w3.org/2000/svg"
 width="1536.000000pt" height="1182.000000pt" viewBox="0 0 1536.000000 1182.000000"
 preserveAspectRatio="xMidYMid meet">
<metadata>
Created by potrace 1.16, written by Peter Selinger 2001-2019
</metadata>
<g transform="translate(0.000000,1182.000000) scale(0.100000,-0.100000)"
fill="#000000" stroke="none">
<path d="M12952 11768 c-9 -4 -28 -7 -42 -7 -14 -1 -42 -10 -63 -21 -20 -11
-54 -20 -76 -20 -39 0 -92 -19 -231 -85 -26 -12 -110 -36 -195 -55 -95 -21
-130 -31 -162 -45 -17 -8 -42 -15 -56 -15 -13 0 -30 -7 -37 -15 -7 -8 -25 -15
-39 -15 -15 0 -36 -7 -47 -15 -10 -8 -30 -15 -44 -15 -14 0 -38 -7 -54 -15
-15 -8 -36 -15 -46 -15 -19 0 -110 -39 -132 -57 -7 -6 -24 -13 -38 -16 -42 -8
-214 -70 -229 -81 -8 -6 -27 -11 -43 -12 -16 -1 -37 -9 -47 -18 -10 -9 -27
-16 -38 -16 -11 0 -26 -7 -33 -15 -7 -8 -24 -15 -39 -15 -49 0 -210 -62 -224
-86 -4 -8 -19 -14 -33 -14 -13 0 -27 -6 -30 -14 -3 -8 -19 -18 -35 -21 -16 -4
-29 -11 -29 -16 0 -5 -12 -12 -27 -15 -16 -4 -35 -12 -43 -19 -8 -6 -48 -22
-87 -35 -40 -12 -73 -26 -73 -31 0 -5 -6 -9 -13 -9 -7 0 -28 -8 -47 -19 -131
-70 -154 -81 -163 -81 -10 0 -80 -34 -257 -125 -47 -25 -93 -44 -103 -45 -9 0
-25 -4 -35 -9 -9 -5 -57 -28 -107 -51 -49 -23 -94 -48 -98 -56 -5 -8 -23 -14
-44 -14 -23 0 -47 -9 -72 -28 -50 -38 -97 -57 -226 -88 -127 -30 -162 -46
-177 -79 -23 -51 -160 -82 -203 -45 -38 32 -116 80 -130 80 -8 0 -33 -10 -55
-21 -34 -18 -41 -26 -38 -48 2 -21 8 -25 27 -23 15 1 34 -9 55 -29 17 -17 43
-37 57 -44 14 -8 38 -29 52 -48 26 -35 26 -36 11 -81 -9 -25 -26 -54 -38 -64
-21 -16 -41 -46 -65 -98 -5 -12 -22 -34 -36 -50 -57 -60 -95 -112 -95 -127 0
-8 -23 -34 -50 -57 -28 -23 -53 -52 -56 -64 -3 -12 -18 -27 -35 -33 -21 -8
-29 -18 -29 -36 0 -16 -7 -28 -18 -31 -20 -7 -39 -37 -44 -71 -2 -13 -13 -22
-33 -25 -24 -4 -31 -11 -33 -33 -2 -16 -10 -31 -18 -34 -8 -3 -14 -15 -14 -28
0 -15 -19 -40 -55 -73 -31 -29 -55 -59 -55 -70 0 -12 -9 -22 -22 -26 -24 -6
-67 -66 -93 -129 -8 -20 -24 -38 -35 -42 -16 -5 -18 -10 -10 -26 9 -16 7 -21
-17 -30 -34 -13 -72 -57 -73 -84 0 -27 -11 -41 -37 -49 -12 -4 -26 -20 -31
-35 -6 -16 -26 -41 -45 -55 -35 -27 -117 -152 -117 -178 0 -7 -23 -34 -52 -61
-50 -44 -52 -48 -34 -61 21 -17 14 -36 -14 -36 -24 0 -73 -45 -67 -62 2 -7
-17 -39 -42 -70 -25 -32 -56 -71 -69 -87 l-23 -30 22 -12 c22 -11 22 -12 -13
-43 -20 -17 -38 -42 -40 -56 -2 -15 -11 -26 -23 -28 -28 -5 -45 -30 -45 -69 0
-28 -4 -33 -24 -33 -29 0 -116 -91 -148 -154 -19 -37 -47 -78 -111 -160 -28
-37 -63 -99 -72 -127 -26 -81 -151 -231 -245 -294 -25 -16 -51 -35 -58 -42 -6
-6 -21 -14 -32 -18 -10 -3 -22 -15 -25 -26 -4 -13 -15 -19 -34 -19 -16 0 -40
-9 -54 -20 -14 -11 -34 -20 -45 -20 -11 0 -46 -8 -78 -19 -60 -18 -210 -35
-319 -34 -85 0 -215 17 -223 29 -7 11 -60 37 -152 74 -30 12 -98 46 -150 76
-52 29 -110 58 -128 65 -17 6 -32 15 -32 20 0 5 -9 9 -20 9 -11 0 -28 9 -37
20 -10 11 -21 20 -26 20 -5 0 -20 9 -34 20 -14 11 -33 20 -42 21 -9 0 -45 33
-81 74 -36 40 -72 74 -81 74 -24 2 -39 22 -29 40 7 14 -1 21 -38 40 -96 47
-130 66 -246 143 -66 43 -125 78 -132 78 -6 0 -15 -7 -18 -15 -4 -12 -20 -15
-70 -14 -56 2 -70 -2 -113 -29 -106 -68 -336 -172 -378 -172 -22 0 -147 -69
-185 -101 -18 -16 -41 -29 -50 -29 -10 0 -20 -7 -24 -15 -3 -8 -16 -15 -28
-15 -13 0 -36 -7 -53 -16 -60 -31 -146 -54 -204 -54 l-59 0 -71 -68 c-39 -37
-71 -71 -71 -76 0 -5 8 -14 17 -21 15 -11 13 -16 -21 -45 -36 -32 -37 -36 -32
-79 19 -160 8 -209 -59 -254 -18 -12 -67 -54 -111 -93 -43 -40 -94 -85 -111
-100 -32 -28 -33 -30 -20 -65 7 -20 18 -43 24 -50 5 -8 13 -30 17 -50 4 -21
13 -42 21 -49 8 -7 15 -27 15 -45 0 -52 28 -104 81 -155 30 -29 47 -53 44 -61
-3 -9 7 -24 26 -38 36 -26 156 -138 206 -191 18 -19 43 -55 55 -80 11 -25 33
-58 47 -73 17 -18 26 -41 28 -68 2 -22 10 -50 18 -62 8 -12 15 -38 15 -58 0
-20 7 -58 15 -85 17 -52 29 -260 16 -268 -4 -3 -7 -52 -5 -109 l3 -105 -35 -5
c-20 -3 -56 -16 -81 -28 -26 -13 -78 -25 -126 -30 -74 -7 -151 -29 -234 -65
-17 -8 -38 -14 -46 -14 -9 0 -18 -4 -22 -10 -3 -5 -20 -14 -38 -19 -18 -5 -63
-21 -102 -35 -38 -14 -90 -28 -115 -32 -53 -8 -132 -37 -169 -63 -19 -13 -38
-16 -69 -13 -41 4 -58 0 -147 -38 -74 -31 -80 -33 -107 -37 -15 -1 -54 -12
-85 -24 -32 -12 -71 -24 -88 -26 -16 -3 -35 -10 -42 -15 -11 -8 -153 -63 -198
-75 -11 -3 -25 -10 -31 -15 -6 -4 -54 -11 -105 -14 -76 -4 -98 -9 -116 -26
-16 -15 -29 -19 -47 -14 -24 6 -26 10 -26 70 0 64 -25 141 -58 179 -24 27 -80
22 -114 -10 -34 -32 -36 -58 -5 -74 12 -6 32 -20 44 -31 22 -20 22 -20 3 -67
-13 -34 -15 -52 -8 -65 17 -30 -28 -112 -79 -147 -33 -23 -44 -37 -48 -67 -11
-63 -26 -105 -59 -162 -18 -30 -42 -75 -55 -100 -13 -25 -40 -65 -60 -90 -36
-45 -87 -116 -106 -148 -5 -9 -28 -38 -51 -64 -23 -26 -61 -80 -84 -120 -24
-40 -72 -110 -107 -156 -35 -46 -63 -89 -63 -96 0 -31 -58 -123 -131 -206 -31
-36 -70 -95 -87 -131 -32 -67 -101 -166 -146 -208 -14 -14 -26 -32 -26 -42 0
-10 -6 -24 -14 -31 -7 -8 -26 -39 -41 -69 -48 -97 -80 -154 -113 -203 -18 -26
-32 -54 -32 -62 0 -8 -13 -27 -30 -41 -17 -14 -30 -35 -30 -48 0 -12 -7 -28
-16 -36 -21 -17 -43 -61 -61 -123 -8 -28 -33 -85 -54 -127 -21 -41 -39 -82
-39 -90 0 -8 -7 -23 -15 -33 -8 -11 -15 -32 -15 -46 0 -16 -10 -35 -25 -48
-29 -25 -41 -64 -27 -88 5 -10 6 -25 2 -33 -13 -24 -28 -505 -19 -601 4 -47 8
-163 8 -257 1 -153 4 -184 27 -270 15 -54 30 -116 33 -138 8 -40 13 -60 49
-170 16 -50 23 -61 43 -63 16 -2 32 6 45 20 24 26 124 195 124 209 0 18 207
217 265 255 33 21 88 60 121 85 34 25 96 61 139 78 70 29 87 33 185 33 130 1
203 -21 293 -89 60 -45 94 -51 82 -13 -8 24 11 60 31 60 8 0 17 8 20 18 15 45
82 182 108 222 16 25 79 93 138 152 96 93 113 106 143 106 25 0 46 10 77 36
52 45 158 96 197 96 32 0 61 22 61 46 0 11 9 15 28 14 49 -4 59 0 112 35 29
19 65 35 80 35 15 0 33 7 40 15 8 10 30 15 64 15 28 0 77 9 109 20 31 11 65
20 75 20 10 0 24 6 30 12 8 8 42 13 85 14 45 1 84 7 104 17 28 15 73 17 334
17 271 0 304 2 321 17 12 11 22 13 26 7 16 -23 86 -54 122 -54 26 0 42 -6 49
-17 7 -14 26 -17 98 -18 150 -3 282 -50 389 -141 58 -50 65 -53 117 -53 75 0
86 14 64 77 -25 68 -21 118 14 177 16 28 32 57 35 65 3 8 10 22 15 30 12 20
16 30 23 60 7 31 77 110 98 110 15 0 58 51 58 70 0 12 156 170 168 170 13 0
85 72 112 112 24 36 51 51 160 93 25 10 74 31 110 47 35 17 87 33 115 37 27 4
60 13 72 19 12 7 31 12 43 12 21 0 90 27 142 55 14 9 52 15 86 15 39 0 64 5
71 14 7 9 42 17 87 21 41 4 77 11 80 16 5 9 301 13 689 9 198 -2 230 -4 315
-27 52 -14 115 -28 140 -33 82 -15 184 -47 252 -79 37 -17 72 -31 78 -31 50 0
220 -76 268 -120 26 -24 32 -36 32 -70 0 -27 -7 -51 -20 -67 -11 -14 -20 -32
-20 -40 0 -8 -34 -48 -75 -89 -61 -60 -75 -80 -75 -105 0 -37 34 -89 59 -89
27 0 33 12 15 31 -14 15 -13 19 15 39 17 12 31 28 31 36 0 7 13 28 29 46 27
30 29 31 35 11 5 -14 -3 -40 -24 -78 -19 -35 -31 -73 -33 -103 -2 -45 -1 -48
36 -66 28 -13 42 -15 50 -7 8 8 6 14 -8 24 -15 11 -17 23 -13 62 3 26 10 50
16 54 5 3 12 16 16 29 4 12 11 22 16 22 5 0 16 12 24 28 l15 27 2 -35 c2 -53
-2 -74 -17 -91 -41 -46 9 -129 78 -129 48 0 58 18 20 32 -31 12 -46 45 -31 69
4 7 3 21 -2 30 -14 26 -11 59 6 65 10 4 15 20 15 48 0 42 14 76 26 64 3 -4 8
-58 10 -119 4 -99 7 -116 26 -136 15 -16 33 -23 59 -23 45 0 54 17 28 56 -10
16 -19 39 -19 50 0 12 -7 24 -15 28 -11 4 -15 21 -15 61 0 31 -7 69 -14 84 -8
15 -12 38 -9 50 8 32 45 24 54 -13 5 -16 19 -41 33 -55 13 -14 28 -39 32 -54
11 -48 46 -77 91 -77 52 0 74 18 76 60 2 30 -2 35 -22 38 -29 4 -141 112 -141
135 0 9 -4 19 -10 22 -5 3 -21 29 -36 58 -20 40 -25 62 -21 95 6 51 22 71 83
101 44 22 47 23 88 7 55 -21 241 -23 253 -2 4 7 33 30 63 52 30 21 68 48 83
61 28 23 81 31 91 15 3 -5 40 -19 83 -31 43 -12 92 -29 108 -37 33 -16 166
-44 205 -44 14 0 34 7 44 15 23 18 67 20 83 4 8 -8 17 -8 31 0 11 6 45 11 74
11 30 0 62 6 73 14 11 7 49 17 85 21 71 7 158 29 205 50 17 7 59 22 95 34 36
11 101 40 145 65 44 25 87 46 95 46 9 0 25 7 36 15 10 8 27 15 36 15 9 0 29 7
45 15 48 25 215 76 283 87 36 5 112 8 170 5 110 -5 163 -24 246 -85 27 -21 37
-22 96 -16 62 6 66 8 55 26 -12 18 -123 106 -182 143 -38 24 -135 121 -160
160 -56 87 -58 96 -59 321 -1 165 -4 215 -15 228 -11 14 -12 21 -1 40 9 18 9
29 1 44 -6 11 -11 31 -11 43 0 12 -14 45 -32 73 -17 28 -35 67 -39 86 -4 19
-16 58 -27 85 -11 28 -34 84 -50 125 -20 49 -47 92 -76 124 -25 27 -46 58 -46
70 -1 11 -7 32 -15 46 -10 17 -14 58 -15 134 l0 109 -76 83 c-65 72 -81 84
-108 84 -38 0 -76 24 -76 48 0 9 14 33 30 52 l29 35 147 -3 c107 -3 154 -8
168 -18 11 -8 30 -14 41 -14 12 0 30 -7 41 -15 10 -8 27 -15 37 -15 9 0 33
-16 52 -36 38 -39 68 -42 73 -6 8 54 -116 132 -228 144 -19 2 -25 9 -25 28 0
22 4 25 35 22 37 -3 95 -26 105 -42 3 -6 19 -10 35 -10 17 0 38 -9 49 -21 19
-21 41 -19 41 3 0 7 -10 26 -22 44 -22 33 -56 49 -90 45 -13 -2 -18 5 -18 23
0 26 23 36 35 16 3 -5 13 -10 22 -10 9 0 38 -16 65 -35 49 -36 68 -38 68 -7 0
18 -55 82 -71 82 -5 0 -9 9 -9 20 0 21 24 28 35 10 8 -14 62 -13 71 1 4 6 -18
35 -50 66 -31 30 -56 60 -56 66 -1 7 -8 0 -16 -15 -8 -16 -23 -28 -35 -28 -11
0 -32 -6 -47 -14 -41 -20 -93 -28 -109 -15 -24 20 29 59 81 59 82 0 103 69 31
103 -60 29 -61 28 -216 -102 -20 -17 -43 -31 -51 -31 -8 0 -23 -7 -34 -15 -29
-22 -166 -21 -186 3 -47 55 -58 91 -58 191 0 75 4 101 15 111 8 7 15 25 15 39
0 15 7 36 15 47 8 10 15 27 15 37 0 10 9 35 20 57 11 22 20 48 20 60 0 24 44
99 72 121 13 10 20 28 20 52 0 21 4 40 9 43 5 3 25 29 43 57 19 29 50 69 69
89 20 21 39 48 43 60 4 12 49 65 100 116 51 52 94 103 96 115 2 14 11 23 27
25 14 2 61 41 115 96 50 51 102 99 116 106 14 7 48 33 76 57 28 23 59 43 69
43 9 0 37 14 62 30 24 17 50 30 57 30 8 0 19 7 26 15 7 8 20 15 30 15 9 0 29
9 43 20 14 11 32 20 40 20 8 0 20 7 27 15 7 8 22 15 35 15 12 0 25 3 29 7 8 8
128 42 176 50 19 3 42 11 50 18 24 21 90 23 105 2 9 -12 26 -17 62 -17 l50 0
7 61 c3 34 6 75 6 91 0 17 7 45 16 64 16 33 15 37 -1 74 -17 39 -17 41 4 103
11 35 21 77 21 93 1 16 7 40 15 54 8 14 14 51 15 83 0 32 6 70 14 85 7 15 16
65 18 112 6 108 34 196 164 520 44 108 73 168 85 175 5 4 9 15 9 26 0 10 9 24
20 31 11 7 20 22 20 34 0 12 7 27 15 34 8 7 15 22 15 34 1 14 15 30 46 48 39
24 43 30 34 47 -20 38 -11 60 41 101 28 22 55 40 60 40 5 0 12 18 15 40 4 24
17 50 35 67 16 15 29 36 29 46 0 10 29 47 65 81 36 34 65 70 65 80 0 28 136
167 192 196 20 11 70 53 111 95 41 41 84 75 94 75 11 0 34 16 53 35 19 19 41
35 50 35 9 0 40 27 70 61 30 33 75 70 99 82 25 12 58 34 75 50 17 15 38 27 48
27 9 0 22 9 28 20 6 11 20 20 32 20 11 0 37 14 57 31 69 58 131 99 151 99 11
0 20 4 20 9 0 10 57 45 91 56 13 5 38 19 56 32 17 13 48 27 70 30 21 3 45 11
53 18 8 7 26 15 40 18 74 17 101 27 126 46 32 25 38 26 58 5 21 -21 41 -13 41
17 0 23 3 24 70 27 40 2 76 9 85 16 8 8 37 14 64 15 27 0 54 5 59 10 5 5 9 33
8 60 0 43 -6 56 -31 81 -24 23 -30 38 -30 71 0 22 -8 54 -17 71 -17 28 -17 30
0 39 14 8 17 24 17 83 0 53 4 77 15 86 8 7 15 29 15 49 0 20 6 45 14 56 7 11
16 37 19 58 3 21 20 55 36 76 17 22 31 44 31 51 0 7 14 29 30 50 17 21 30 45
30 54 0 8 13 22 29 31 16 8 32 23 35 32 3 10 28 30 55 46 33 18 51 35 53 50 2
14 11 23 27 25 15 3 27 14 35 33 6 17 20 32 33 35 12 3 27 12 34 20 6 8 19 14
29 14 10 0 23 7 30 15 7 8 20 15 30 15 9 0 30 12 45 26 16 15 44 33 62 40 18
8 33 19 33 24 0 6 6 10 14 10 8 0 35 16 61 35 25 20 54 34 63 33 13 -2 18 5
20 30 3 28 0 32 -22 32 -14 0 -31 9 -39 20 -12 17 -26 19 -138 19 -87 0 -137
5 -168 15 -31 12 -82 16 -176 16 -99 0 -140 4 -163 15 -17 9 -69 18 -119 20
-48 3 -114 9 -146 13 -44 7 -60 6 -68 -5 -15 -17 -49 -17 -74 1 -11 7 -58 16
-105 20 -47 3 -102 11 -123 16 -30 9 -42 8 -59 -5 -27 -18 -101 -20 -131 -2
-17 9 -114 12 -390 12 -202 0 -375 -3 -385 -7z m-2392 -6737 c0 -12 -26 -21
-60 -21 -29 0 -45 12 -33 24 10 9 93 7 93 -3z"/>
</g>
</svg>
