<?xml version="1.0" standalone="no"?>
<!DOCTYPE svg PUBLIC "-//W3C//DTD SVG 20010904//EN"
 "http://www.w3.org/TR/2001/REC-SVG-20010904/DTD/svg10.dtd">
<svg version="1.0" xmlns="http://www.w3.org/2000/svg"
 width="2207.000000pt" height="2257.000000pt" viewBox="0 0 2207.000000 2257.000000"
 preserveAspectRatio="xMidYMid meet">
<metadata>
Created by potrace 1.16, written by Peter Selinger 2001-2019
</metadata>
<g transform="translate(0.000000,2257.000000) scale(0.100000,-0.100000)"
fill="#000000" stroke="none">
<path d="M15802 22541 c-146 -39 -458 -144 -525 -177 -29 -15 -85 -50 -126
-78 -83 -57 -442 -397 -600 -568 -415 -451 -1327 -1487 -1386 -1576 -18 -26
-110 -175 -205 -332 -418 -688 -666 -1104 -810 -1358 -207 -366 -199 -360
-461 -361 l-127 -1 -58 43 c-70 52 -78 61 -93 109 -11 34 -10 42 16 90 15 28
40 60 54 71 36 26 129 47 212 47 l68 0 -33 41 c-40 51 -161 147 -195 155 -33
9 -170 -32 -211 -63 -44 -33 -87 -93 -108 -151 -40 -110 -63 -149 -126 -212
-44 -45 -76 -89 -103 -142 l-38 -77 27 -45 c46 -79 90 -97 315 -130 75 -11
142 -14 245 -9 131 5 145 4 192 -16 l51 -22 6 -104 c4 -58 4 -144 1 -192 -8
-112 1 -156 86 -418 37 -115 127 -399 200 -630 l132 -420 653 -1300 c359 -715
662 -1327 674 -1360 30 -81 79 -170 313 -573 109 -188 261 -465 336 -615 76
-149 183 -355 239 -457 l100 -185 69 -345 c66 -331 69 -351 68 -485 0 -126 -3
-151 -32 -250 -17 -60 -41 -170 -52 -244 -13 -89 -26 -141 -37 -153 -29 -32
-199 -104 -361 -152 -64 -19 -260 -89 -435 -155 -197 -74 -350 -126 -402 -136
-45 -8 -136 -34 -201 -56 -68 -24 -145 -43 -179 -46 -122 -8 -123 -9 -209 -97
-69 -71 -193 -166 -216 -166 -4 0 -13 13 -20 30 -19 46 -84 99 -225 184 -179
107 -453 342 -1505 1286 -117 106 -293 247 -480 387 -375 280 -598 451 -680
522 -122 107 -498 403 -1313 1035 -331 256 -368 282 -481 335 l-122 58 -100
-8 c-54 -4 -147 -8 -205 -9 l-106 0 -73 73 c-86 86 -118 147 -127 244 -7 79
-12 92 -73 169 -101 129 -260 264 -332 284 -28 8 -68 7 -148 -4 -127 -16 -198
-46 -267 -112 -52 -49 -55 -79 -13 -119 l29 -28 48 50 c37 39 57 52 88 57 73
11 93 -1 119 -74 42 -120 95 -210 189 -319 130 -153 188 -229 180 -234 -5 -3
-37 -13 -73 -23 -56 -16 -107 -19 -365 -19 -290 -1 -306 -2 -477 -33 -98 -17
-258 -49 -357 -71 -98 -22 -393 -76 -655 -120 l-476 -80 -532 -146 c-919 -253
-1609 -446 -1713 -480 -126 -41 -437 -174 -1194 -511 l-598 -265 -74 -72 c-66
-65 -77 -81 -108 -160 l-33 -88 75 -113 c103 -155 108 -166 108 -245 0 -79
-20 -167 -62 -266 -31 -72 -68 -305 -288 -1800 -107 -729 -109 -762 -50 -861
39 -64 84 -95 175 -118 34 -9 142 -43 240 -75 99 -33 258 -80 354 -105 96 -26
191 -51 210 -56 78 -21 545 -288 715 -408 86 -61 482 -453 611 -605 41 -49
182 -227 314 -397 132 -169 269 -343 305 -385 92 -109 115 -152 126 -235 5
-39 13 -79 19 -90 27 -51 147 -74 242 -46 47 14 68 28 133 94 43 42 119 127
170 187 108 128 121 141 195 188 96 60 532 275 624 307 369 127 900 179 1691
166 701 -13 822 -19 1065 -61 393 -67 722 -151 908 -232 59 -26 310 -148 557
-271 248 -123 519 -255 603 -293 244 -111 406 -206 589 -348 93 -71 174 -157
285 -301 91 -118 114 -140 141 -140 13 0 110 42 216 94 106 52 216 100 243
106 28 6 125 18 217 26 274 27 833 8 1083 -36 178 -31 499 -132 743 -233 600
-248 1073 -462 1651 -748 329 -162 309 -149 794 -509 211 -157 321 -247 475
-390 110 -102 265 -244 345 -316 80 -72 187 -177 239 -234 l95 -102 -13 -60
c-6 -32 -30 -109 -52 -169 -40 -114 -49 -181 -28 -222 19 -37 102 -117 122
-117 49 0 76 46 78 135 l1 40 9 -40 c5 -22 19 -69 30 -105 49 -152 65 -163
190 -131 130 33 149 64 74 126 -59 48 -77 83 -69 135 4 22 9 40 13 40 3 0 16
-23 28 -50 45 -104 175 -137 246 -62 l27 28 -49 51 c-52 54 -72 106 -54 145 8
19 11 17 28 -22 34 -74 143 -111 221 -74 19 9 34 18 34 20 0 3 -20 30 -45 62
-45 57 -63 99 -22 51 21 -24 704 -403 945 -523 260 -130 1077 -503 1437 -656
132 -56 312 -137 400 -179 184 -89 207 -106 481 -367 110 -104 193 -176 210
-180 35 -9 71 11 100 53 20 29 22 49 26 215 5 181 6 185 56 378 28 107 87 326
132 485 85 306 94 346 164 786 l45 276 -44 629 c-24 346 -55 811 -69 1034 -34
541 -38 578 -91 818 -53 239 -54 242 -190 672 -161 506 -195 619 -195 645 0
15 10 31 26 41 23 16 40 16 176 6 184 -14 171 -7 457 -227 159 -121 345 -181
385 -124 22 32 12 51 -128 222 -27 33 -44 57 -37 53 7 -5 60 -12 119 -17 158
-12 183 -29 169 -115 -3 -18 -2 -34 3 -34 15 0 111 92 125 121 20 37 19 99 -1
127 -23 33 -53 45 -223 93 -84 24 -149 45 -145 46 5 2 55 11 110 21 l102 18
38 -28 c75 -53 109 -33 134 77 13 60 2 80 -70 119 l-53 29 -171 -5 c-94 -3
-184 -2 -201 2 -28 5 -24 8 45 32 41 15 102 36 134 48 74 27 118 21 153 -21
50 -59 116 -76 134 -36 19 42 -24 154 -73 190 -52 39 -220 47 -439 23 -139
-16 -195 -35 -340 -116 -80 -45 -98 -51 -238 -75 l-151 -26 -57 44 c-123 96
-117 85 -288 527 -281 726 -298 774 -516 1450 -252 778 -390 1245 -438 1476
-32 156 -90 1141 -76 1314 3 47 26 287 50 535 51 519 36 463 196 715 51 79 98
164 105 188 17 57 10 89 -62 272 -92 237 -146 446 -196 760 -34 217 -32 509 5
753 55 359 135 762 178 897 12 36 98 223 191 415 94 193 208 429 254 526 46
97 105 214 130 260 121 219 627 915 745 1025 85 79 308 226 627 412 212 123
237 143 285 214 96 146 110 271 58 543 -73 388 -81 477 -81 937 0 453 16 914
35 1031 18 107 99 402 150 547 123 349 154 462 141 514 -3 14 -21 31 -43 42
-33 17 -63 19 -243 19 -114 0 -249 -6 -305 -13 -73 -10 -318 -15 -905 -19
-772 -5 -825 -4 -1300 21 -272 15 -623 33 -780 41 -377 20 -565 45 -1003 131
-418 82 -452 92 -738 214 -329 141 -518 231 -561 268 -59 52 -97 65 -188 69
-69 3 -106 -2 -198 -26z"/>
</g>
</svg>
