<?xml version="1.0" standalone="no"?>
<!DOCTYPE svg PUBLIC "-//W3C//DTD SVG 20010904//EN"
 "http://www.w3.org/TR/2001/REC-SVG-20010904/DTD/svg10.dtd">
<svg version="1.0" xmlns="http://www.w3.org/2000/svg"
 width="1536.000000pt" height="620.000000pt" viewBox="0 0 1536.000000 620.000000"
 preserveAspectRatio="xMidYMid meet">
<metadata>
Created by potrace 1.16, written by Peter Selinger 2001-2019
</metadata>
<g transform="translate(0.000000,620.000000) scale(0.100000,-0.100000)"
fill="#000000" stroke="none">
<path d="M1545 6175 c-278 -53 -656 -165 -935 -278 -158 -63 -258 -113 -337
-169 -100 -71 -262 -208 -268 -228 -10 -32 12 -57 88 -101 315 -182 398 -242
552 -401 333 -342 454 -520 554 -811 28 -81 66 -181 86 -223 32 -70 116 -196
148 -223 8 -6 52 -22 98 -35 123 -36 525 -180 664 -238 322 -135 655 -327 860
-499 285 -239 445 -431 710 -854 48 -77 99 -153 113 -168 25 -26 30 -27 82
-21 66 8 79 14 150 69 106 82 193 112 394 135 133 16 377 13 472 -5 234 -44
468 -132 781 -291 122 -62 283 -136 358 -164 136 -50 401 -133 468 -145 21 -4
37 -10 37 -14 0 -4 -15 -29 -32 -55 -70 -102 -78 -125 -78 -208 0 -211 83
-339 174 -267 31 24 34 54 7 69 -19 10 -19 11 5 35 20 20 24 33 22 72 -2 41 3
56 27 88 l30 39 3 -31 c2 -17 -13 -110 -32 -207 -39 -191 -43 -238 -23 -254 7
-6 37 -20 68 -31 110 -42 244 -144 524 -402 178 -164 293 -281 328 -332 23
-34 51 -34 74 0 58 87 469 472 647 608 84 64 125 88 246 144 48 22 49 46 5
263 -20 99 -35 194 -33 211 l3 31 30 -39 c24 -32 29 -47 27 -88 -2 -40 2 -52
24 -72 25 -23 25 -24 5 -35 -29 -15 -26 -44 5 -69 91 -72 174 56 174 267 0 83
-8 106 -77 208 -18 26 -33 51 -33 55 0 4 17 10 38 14 66 12 358 103 485 151
67 25 208 90 312 144 335 173 584 266 833 310 79 14 332 14 448 0 201 -23 288
-53 394 -135 71 -55 84 -61 150 -69 52 -6 57 -5 81 21 15 15 78 109 140 208
201 319 297 445 479 625 395 393 832 632 1625 890 88 29 170 56 182 61 32 12
127 143 167 230 19 41 57 142 86 224 88 254 176 396 402 650 221 249 364 370
578 490 170 96 193 110 207 132 8 12 12 31 8 42 -6 21 -166 157 -268 229 -208
146 -715 327 -1247 444 -98 21 -125 23 -400 21 -162 0 -457 -10 -655 -22 -198
-11 -409 -23 -469 -27 -98 -5 -127 -12 -270 -61 -180 -62 -441 -174 -836 -361
-407 -191 -534 -257 -792 -411 l-37 -22 6 55 c7 65 -5 86 -47 86 -34 0 -62
-31 -86 -98 -22 -61 -43 -78 -110 -92 -39 -8 -64 -21 -87 -44 -29 -29 -343
-451 -458 -616 -109 -156 -332 -537 -442 -757 -26 -50 -51 -94 -56 -97 -5 -4
-12 12 -15 36 -20 179 -38 282 -56 338 -23 68 -125 296 -142 318 -20 23 -65
13 -115 -27 -70 -56 -284 -278 -394 -411 -53 -63 -183 -230 -289 -370 -107
-140 -208 -273 -225 -294 l-33 -39 -152 -1 -152 -1 -48 60 c-26 33 -127 166
-225 295 -98 129 -221 287 -274 350 -110 132 -347 379 -405 421 -41 30 -86 38
-104 17 -17 -21 -118 -248 -142 -318 -18 -56 -35 -159 -56 -338 -3 -24 -10
-40 -15 -36 -5 3 -30 47 -56 97 -110 220 -323 584 -439 752 -102 149 -431 591
-461 621 -23 23 -48 36 -87 44 -67 14 -88 31 -110 92 -24 67 -52 98 -86 98
-42 0 -54 -21 -47 -85 3 -31 3 -54 -1 -51 -4 2 -74 43 -157 91 -330 194 -1184
591 -1508 701 l-158 53 -217 11 c-119 6 -280 15 -357 20 -218 15 -605 30 -765
29 -107 0 -176 -7 -265 -24z"/>
</g>
</svg>
