<?xml version="1.0" encoding="UTF-8"?>
<svg width="1200pt" height="1200pt" version="1.1" viewBox="0 0 1200 1200" xmlns="http://www.w3.org/2000/svg">
 <path d="m930 30h-660c-132 0-240 108-240 240v660c0 132 108 240 240 240h660c132 0 240-108 240-240v-660c0-132-108-240-240-240zm132 900c0 72-58.801 132-132 132h-660c-72 0-132-58.801-132-132v-660c0-72 58.801-132 132-132h660c72 0 132 58.801 132 132z"/>
 <path d="m507.6 458.4c0-56.398-45.602-102-102-102-56.398 0-102 45.602-102 102 0 56.398 45.602 102 102 102 56.398 0 102-45.598 102-102z"/>
 <path d="m888 368.4c-13.199-21.602-42-28.801-63.602-16.801l-111.6 66c-14.398 8.3984-22.801 24-22.801 39.602 0 16.801 8.3984 31.199 22.801 39.602l111.6 66c7.1992 4.8008 15.602 6 24 6 15.602 0 31.199-8.3984 39.602-22.801 13.199-21.602 6-50.398-16.801-63.602l-43.199-24 43.199-26.398c21.602-12 28.801-40.801 16.801-63.602z"/>
 <path d="m816 694.8c-26.398-13.199-58.801-2.3984-72 25.199-26.398 55.199-81.602 88.801-142.8 88.801s-116.4-33.602-142.8-88.801c-13.199-26.398-45.602-38.398-72-25.199-26.398 13.199-38.398 45.602-25.199 72 44.398 91.199 139.2 150 240 150s194.4-58.801 238.8-148.8c13.199-27.602 2.3984-60-24-73.199z"/>
</svg>
