<?xml version="1.0" encoding="UTF-8"?>
<svg width="1200pt" height="1200pt" version="1.1" viewBox="0 0 1200 1200" xmlns="http://www.w3.org/2000/svg">
 <path d="m600 30c-314.4 0-570 255.6-570 570s255.6 570 570 570 570-255.6 570-570-255.6-570-570-570zm0 1057.2c-268.8 0-487.2-218.4-487.2-487.2s218.4-487.2 487.2-487.2 487.2 218.4 487.2 487.2-218.4 487.2-487.2 487.2z"/>
 <path d="m354 705.6c0 135.6 110.4 246 246 246s244.8-110.4 244.8-246v-40.801h-490.8zm403.2 42c-18 69.602-81.602 121.2-157.2 121.2-75.602 0-139.2-51.602-157.2-121.2z"/>
 <path d="m376.8 591.6 158.4-133.2-158.4-132-52.801 63.602 81.602 68.398-81.602 69.602z"/>
 <path d="m823.2 326.4-158.4 132 158.4 133.2 52.801-63.602-81.602-69.602 81.602-68.398z"/>
</svg>
