<?xml version="1.0" encoding="UTF-8"?>
<svg width="1200pt" height="1200pt" version="1.1" viewBox="0 0 1200 1200" xmlns="http://www.w3.org/2000/svg">
 <path d="m936 30h-672c-129.6 0-234 104.4-234 234v672c0 128.4 104.4 234 234 234h672c128.4 0 234-104.4 234-234v-672c0-129.6-104.4-234-234-234zm145.2 906c0 80.398-64.801 145.2-145.2 145.2h-672c-80.398 0-145.2-64.801-145.2-145.2v-672c0-80.398 64.801-145.2 145.2-145.2h672c80.398 0 145.2 64.801 145.2 145.2z"/>
 <path d="m482.4 412.8c0 43.738-35.457 79.199-79.199 79.199-43.738 0-79.199-35.461-79.199-79.199 0-43.742 35.461-79.199 79.199-79.199 43.742 0 79.199 35.457 79.199 79.199z"/>
 <path d="m876 412.8c0 43.738-35.461 79.199-79.199 79.199-43.742 0-79.199-35.461-79.199-79.199 0-43.742 35.457-79.199 79.199-79.199 43.738 0 79.199 35.457 79.199 79.199z"/>
 <path d="m741.6 625.2h-283.2c-36 0-70.801 18-90 49.199-19.199 30-22.801 68.398-8.3984 100.8 42 94.801 136.8 157.2 240 157.2 104.4 0 198-61.199 240-157.2 14.398-32.398 10.801-70.801-8.3984-100.8-19.203-30-54-49.199-90-49.199zm18 115.2c-27.602 63.602-90 104.4-159.6 104.4s-132-40.801-159.6-104.4c-3.6016-7.1992 0-14.398 1.1992-16.801 1.1992-2.3984 7.1992-8.3984 16.801-8.3984h283.2c9.6016 0 14.398 6 16.801 8.3984 1.2031 2.4023 4.8008 8.4023 1.2031 16.801z"/>
</svg>
