<?xml version="1.0" encoding="UTF-8"?>
<svg width="1200pt" height="1200pt" version="1.1" viewBox="0 0 1200 1200" xmlns="http://www.w3.org/2000/svg">
 <path d="m930 30h-660c-132 0-240 108-240 240v660c0 132 108 240 240 240h660c132 0 240-108 240-240v-660c0-132-108-240-240-240zm132 900c0 72-58.801 132-132 132h-660c-72 0-132-58.801-132-132v-660c0-72 58.801-132 132-132h660c72 0 132 58.801 132 132z"/>
 <path d="m739.2 703.2h-278.4c-24 0-45.602 12-58.801 32.398-13.199 19.199-14.398 44.398-6 64.801 36 80.398 115.2 133.2 202.8 133.2 87.602 0 168-51.602 202.8-133.2 9.6016-21.602 7.1992-45.602-6-64.801-10.801-20.398-32.402-32.398-56.402-32.398z"/>
 <path d="m500.4 496.8c10.801-9.6016 18-22.801 18-38.398 0-14.398-6-28.801-18-38.398l-102-85.199c-20.398-18-52.801-14.398-69.602 6-18 20.398-14.398 52.801 6 69.602l56.398 48-56.398 48c-20.398 18-24 49.199-6 69.602 9.6016 12 24 18 38.398 18 10.801 0 22.801-3.6016 31.199-12z"/>
 <path d="m871.2 340.8c-18-20.398-49.199-24-69.602-6l-102 85.199c-10.801 9.6016-18 22.801-18 38.398 0 14.398 6 28.801 18 38.398l102 85.199c9.6016 7.1992 20.398 12 31.199 12 14.398 0 28.801-6 38.398-18 18-20.398 14.398-52.801-6-69.602l-56.398-48 56.398-48c21.602-16.793 24-47.996 6-69.594z"/>
</svg>
