<?xml version="1.0" encoding="UTF-8"?>
<svg width="1200pt" height="1200pt" version="1.1" viewBox="0 0 1200 1200" xmlns="http://www.w3.org/2000/svg">
 <path d="m816 675.6c-30-14.398-67.199-2.3984-81.602 27.602-25.199 51.602-76.801 84-134.4 84-57.602 0-109.2-32.398-134.4-84-14.398-30-51.602-43.199-81.602-27.602-30 14.398-43.199 51.602-27.602 81.602 45.602 92.398 141.6 152.4 244.8 152.4s199.2-60 244.8-152.4c13.199-30.004 0-67.203-30-81.602z"/>
 <path d="m890.4 362.4c-26.398-7.1992-52.801 8.3984-60 33.602-6 22.801-26.398 38.398-50.398 38.398-22.801 0-44.398-15.602-50.398-38.398-7.1992-26.398-34.801-40.801-60-33.602-26.398 7.1992-40.801 34.801-33.602 60 18 64.801 76.801 109.2 144 109.2s126-44.398 144-109.2c7.1992-26.398-7.1992-52.797-33.602-60z"/>
 <path d="m564 422.4c7.1992-26.398-8.3984-52.801-33.602-60-26.398-7.1992-52.801 8.3984-60 33.602-6 22.801-26.398 38.398-50.398 38.398-22.801 0-44.398-15.602-50.398-38.398-7.1992-26.398-34.801-40.801-60-33.602-26.398 7.1992-40.801 34.801-33.602 60 18 64.801 78 109.2 144 109.2 67.199 0.003906 126-44.398 144-109.2z"/>
 <path d="m925.2 30h-650.4c-134.4 0-244.8 109.2-244.8 244.8v651.6c0 134.4 109.2 244.8 244.8 244.8h651.6c134.4 0 244.8-109.2 244.8-244.8l-0.003906-651.6c-1.1992-135.6-110.4-244.8-246-244.8zm122.4 895.2c0 67.199-55.199 122.4-122.4 122.4l-650.4 0.003906c-67.199 0-122.4-55.199-122.4-122.4l-0.003906-650.4c0-67.199 55.199-122.4 122.4-122.4h651.6c67.199 0 122.4 55.199 122.4 122.4l0.003906 650.4z"/>
</svg>
