<?xml version="1.0" encoding="UTF-8"?>
<svg width="1200pt" height="1200pt" version="1.1" viewBox="0 0 1200 1200" xmlns="http://www.w3.org/2000/svg">
 <path d="m302.4 483.6c4.8008 1.1992 8.3984 1.1992 13.199 1.1992 20.398 0 39.602-13.199 45.602-34.801 7.1992-24 28.801-40.801 55.199-40.801 25.199 0 48 16.801 54 40.801 7.1992 25.199 33.602 39.602 57.602 32.398 25.199-7.1992 39.602-33.602 32.398-57.602-18-64.801-78-110.4-145.2-110.4s-127.2 45.602-145.2 110.4c-7.1992 25.203 7.1992 51.602 32.398 58.805z"/>
 <path d="m784.8 315.6c-67.199 0-127.2 45.602-145.2 110.4-7.1992 25.199 7.1992 51.602 32.398 57.602 25.199 7.1992 51.602-7.1992 57.602-32.398 7.1992-24 28.801-40.801 54-40.801 25.199 0 48 16.801 55.199 40.801 6 20.398 25.199 34.801 45.602 34.801 3.6016 0 8.3984 0 13.199-1.1992 25.199-7.1992 39.602-33.602 32.398-57.602-18-66.004-78-111.6-145.2-111.6z"/>
 <path d="m856.8 607.2h-513.6c-37.199 0-68.398 28.801-69.602 67.199-1.1992 46.801 16.801 123.6 76.801 184.8 40.801 43.199 117.6 93.602 249.6 93.602s208.8-50.398 249.6-93.602c58.801-61.199 78-138 76.801-184.8-1.2031-38.398-31.203-67.199-69.602-67.199zm-424.8 218.4c45.602-33.602 104.4-54 168-54s122.4 20.398 168 54c-43.199 31.199-99.602 48-168 48-69.602 0-126-15.602-168-48z"/>
 <path d="m934.8 30h-669.6c-129.6 0-235.2 105.6-235.2 235.2v669.6c0 129.6 105.6 235.2 235.2 235.2h669.6c129.6 0 235.2-105.6 235.2-235.2v-669.6c0-129.6-105.6-235.2-235.2-235.2zm141.6 904.8c0 78-63.602 141.6-141.6 141.6l-669.6-0.003906c-78 0-141.6-63.602-141.6-141.6l0.003906-669.6c0-78 63.602-141.6 141.6-141.6h669.6c78 0 141.6 63.602 141.6 141.6z"/>
</svg>
