<?xml version="1.0" encoding="UTF-8"?>
<svg width="1200pt" height="1200pt" version="1.1" viewBox="0 0 1200 1200" xmlns="http://www.w3.org/2000/svg">
 <path d="m801.6 699.6c-20.398-9.6016-45.602-1.1992-55.199 19.199-27.602 56.398-82.801 91.199-146.4 91.199-63.602 0-118.8-34.801-146.4-91.199-9.6016-20.398-34.801-28.801-55.199-19.199-20.398 9.6016-28.801 34.801-19.199 55.199 40.801 84 126 136.8 219.6 136.8 92.398 0 178.8-54 219.6-136.8 11.988-20.402 3.5898-44.402-16.809-55.199z"/>
 <path d="m600 30c-314.4 0-570 255.6-570 570s255.6 570 570 570 570-255.6 570-570-255.6-570-570-570zm0 1057.2c-268.8 0-487.2-218.4-487.2-487.2s218.4-487.2 487.2-487.2 487.2 218.4 487.2 487.2-218.4 487.2-487.2 487.2z"/>
 <path d="m488.4 465.6c0 40.426-32.77 73.199-73.199 73.199-40.426 0-73.199-32.773-73.199-73.199 0-40.43 32.773-73.203 73.199-73.203 40.43 0 73.199 32.773 73.199 73.203z"/>
 <path d="m858 465.6c0 40.426-32.773 73.199-73.199 73.199-40.43 0-73.199-32.773-73.199-73.199 0-40.43 32.77-73.203 73.199-73.203 40.426 0 73.199 32.773 73.199 73.203z"/>
</svg>
