<?xml version="1.0" encoding="UTF-8"?>
<svg width="1200pt" height="1200pt" version="1.1" viewBox="0 0 1200 1200" xmlns="http://www.w3.org/2000/svg">
 <path d="m936 30h-672c-129.6 0-234 104.4-234 234v672c0 128.4 104.4 234 234 234h672c128.4 0 234-104.4 234-234v-672c0-129.6-104.4-234-234-234zm145.2 906c0 80.398-64.801 145.2-145.2 145.2h-672c-80.398 0-145.2-64.801-145.2-145.2v-672c0-80.398 64.801-145.2 145.2-145.2h672c80.398 0 145.2 64.801 145.2 145.2z"/>
 <path d="m814.8 706.8c-21.602-10.801-48-1.1992-58.801 20.398-28.801 60-88.801 97.199-156 97.199s-127.2-37.199-156-97.199c-10.801-21.602-37.199-31.199-58.801-20.398-21.602 10.801-31.199 37.199-20.398 58.801 43.199 88.797 135.6 146.4 235.2 146.4s192-57.602 235.2-146.4c10.801-21.602 1.1992-48-20.398-58.801z"/>
 <path d="m482.4 456c0 43.742-35.457 79.199-79.199 79.199-43.738 0-79.199-35.457-79.199-79.199s35.461-79.199 79.199-79.199c43.742 0 79.199 35.457 79.199 79.199z"/>
 <path d="m876 456c0 43.742-35.461 79.199-79.199 79.199-43.742 0-79.199-35.457-79.199-79.199s35.457-79.199 79.199-79.199c43.738 0 79.199 35.457 79.199 79.199z"/>
</svg>
