<?xml version="1.0" encoding="UTF-8"?>
<svg width="1200pt" height="1200pt" version="1.1" viewBox="0 0 1200 1200" xmlns="http://www.w3.org/2000/svg">
 <path d="m600 786c-66 0-124.8-46.801-138-111.6l-111.6 22.801c24 117.6 129.6 202.8 249.6 202.8s225.6-85.199 249.6-202.8l-111.6-22.801c-13.199 64.801-72 111.6-138 111.6z"/>
 <path d="m600 30c-314.4 0-570 255.6-570 570s255.6 570 570 570 570-255.6 570-570-255.6-570-570-570zm0 1026c-250.8 0-456-204-456-456s204-456 456-456 456 204 456 456-205.2 456-456 456z"/>
 <path d="m432 498 66 79.199 69.602-58.801-135.6-163.2-136.8 163.2 69.602 58.801z"/>
 <path d="m632.4 518.4 69.602 58.801 66-79.199 67.199 79.199 69.602-58.801-136.8-163.2z"/>
</svg>
