<?xml version="1.0" encoding="UTF-8"?>
<svg width="1200pt" height="1200pt" version="1.1" viewBox="0 0 1200 1200" xmlns="http://www.w3.org/2000/svg">
 <path d="m818.4 710.4c-26.398-13.199-57.602-2.3984-69.602 24-27.602 57.602-85.199 92.398-148.8 92.398-63.602 0-121.2-36-148.8-92.398-13.199-26.398-44.398-36-69.602-24-26.398 13.199-36 44.398-24 69.602 44.398 91.199 140.4 151.2 242.4 151.2 102.01 0 198.01-58.801 242.41-151.2 13.203-25.199 2.4023-56.398-24-69.602z"/>
 <path d="m972 333.6c-36-10.801-170.4-48-326.4 8.3984-4.8008 1.1992-9.6016 2.3984-14.398 2.3984h-63.602c-4.8008 0-9.6016-1.1992-14.398-2.3984-156-56.398-290.4-18-326.4-8.3984-4.8008 1.1992-7.1992 6-7.1992 10.801v42c0 4.8008 2.3984 8.3984 7.1992 10.801 2.3984 1.1992 4.8008 1.1992 6 2.3984 4.8008 1.1992 7.1992 6 7.1992 10.801 2.3984 146.4 51.602 182.4 152.4 182.4 103.2 0 148.8-39.602 160.8-87.602 8.3984-32.398 13.199-66 15.602-85.199 1.1992-8.3984 7.1992-14.398 15.602-14.398h28.801c8.3984 0 14.398 6 15.602 14.398 2.3984 18 7.1992 52.801 15.602 85.199 12 48 57.602 87.602 160.8 87.602 100.8 0 151.2-36 152.4-182.4 0-4.8008 3.6016-8.3984 7.1992-10.801 2.3984-1.1992 4.8008-1.1992 6-2.3984 4.8008-1.1992 7.1992-6 7.1992-10.801v-42c2.3906-4.8008-1.207-9.6016-6.0078-10.801z"/>
 <path d="m936 30h-672c-129.6 0-234 104.4-234 234v672c0 128.4 104.4 234 234 234h672c128.4 0 234-104.4 234-234v-672c0-129.6-104.4-234-234-234zm145.2 906c0 80.398-64.801 145.2-145.2 145.2h-672c-80.398 0-145.2-64.801-145.2-145.2v-672c0-80.398 64.801-145.2 145.2-145.2h672c80.398 0 145.2 64.801 145.2 145.2z"/>
</svg>
