<?xml version="1.0" encoding="UTF-8"?>
<svg width="1200pt" height="1200pt" version="1.1" viewBox="0 0 1200 1200" xmlns="http://www.w3.org/2000/svg">
 <path d="m404.4 519.6v22.801c0 6 4.8008 10.801 10.801 10.801h27.602c6 0 10.801-4.8008 10.801-10.801v-22.801c20.398-3.6016 37.199-12 49.199-25.199 13.199-14.398 20.398-32.398 20.398-54 0-6 0-10.801-1.1992-16.801-1.1992-4.8008-2.3984-9.6016-3.6016-14.398-1.1992-4.8008-3.6016-8.3984-7.1992-12-2.3984-3.6016-6-7.1992-8.3984-9.6016-2.3984-2.3984-6-6-10.801-8.3984-3.6016-2.3984-8.3984-4.8008-12-7.1992-3.6016-2.3984-8.3984-3.6016-14.398-6-4.8008-2.3984-10.801-3.6016-14.398-4.8008-4.8008-1.1992-9.6016-3.6016-16.801-4.8008-13.199-4.8008-22.801-8.3984-28.801-12-4.8008-3.6016-7.1992-7.1992-7.1992-12 0-4.8008 1.1992-8.3984 6-10.801 4.8008-3.6016 10.801-4.8008 19.199-4.8008 16.801 0 33.602 6 50.398 16.801 4.8008 3.6016 12 2.3984 15.602-2.3984l22.801-28.801c2.3984-2.3984 2.3984-6 2.3984-8.3984 0-3.6016-2.3984-6-4.8008-7.1992-7.1992-6-16.801-10.801-26.398-15.602-10.801-4.8008-20.398-8.3984-31.199-10.801v-27.602c0-6-4.8008-10.801-10.801-10.801h-27.602c-6 0-10.801 4.8008-10.801 10.801v25.199c-20.398 3.6016-37.199 12-49.199 25.199-13.199 14.398-20.398 32.398-20.398 52.801 0 4.8008 0 9.6016 1.1992 14.398 1.1992 4.8008 2.3984 8.3984 3.6016 13.199 1.1992 3.6016 3.6016 7.1992 4.8008 10.801 2.3984 3.6016 4.8008 7.1992 7.1992 9.6016 2.3984 2.3984 6 4.8008 8.3984 7.1992 2.3984 2.3984 6 4.8008 10.801 7.1992 3.6016 2.3984 7.1992 3.6016 10.801 6 3.6016 1.1992 7.1992 3.6016 12 4.8008 4.8008 1.1992 8.3984 2.3984 12 3.6016 3.6016 1.1992 8.3984 2.3984 13.199 3.6016 4.8008 1.1992 9.6016 3.6016 13.199 4.8008 3.6016 1.1992 7.1992 2.3984 10.801 4.8008 2.3984 1.1992 4.8008 2.3984 7.1992 4.8008 1.1992 1.1992 3.6016 2.3984 4.8008 4.8008 1.1992 1.1992 2.3984 2.3984 2.3984 4.8008 0 1.1992 1.1992 3.6016 1.1992 6 0 6-2.3984 9.6016-6 13.199-10.801 8.3984-31.199 7.1992-51.602-1.1992-9.6016-3.6016-19.199-9.6016-26.398-16.801-2.3984-2.3984-6-3.6016-8.3984-2.3984-3.6016 0-6 1.1992-7.1992 3.6016l-24 25.191c-3.6016 4.8008-3.6016 12 1.1992 15.602 19.199 19.199 42 31.199 69.598 36z"/>
 <path d="m748.8 519.6v22.801c0 6 4.8008 10.801 10.801 10.801h27.602c6 0 10.801-4.8008 10.801-10.801v-22.801c20.398-3.6016 37.199-12 49.199-25.199 13.199-14.398 20.398-32.398 20.398-54 0-6 0-10.801-1.1992-16.801-1.1992-4.8008-2.3984-9.6016-3.6016-14.398-1.1992-4.8008-3.6016-8.3984-7.1992-12-2.3984-3.6016-6-7.1992-8.3984-9.6016-2.3984-2.3984-6-6-10.801-8.3984-3.6016-2.3984-8.3984-4.8008-12-7.1992-3.6016-2.3984-8.3984-3.6016-14.398-6-4.8008-2.3984-10.801-3.6016-14.398-4.8008-4.8008-1.1992-9.6016-3.6016-16.801-4.8008-13.199-4.8008-22.801-8.3984-28.801-12-4.8008-3.6016-7.1992-7.1992-7.1992-12 0-4.8008 1.1992-8.3984 6-10.801 4.8008-3.6016 10.801-4.8008 19.199-4.8008 16.801 0 33.602 6 50.398 16.801 4.8008 3.6016 12 2.3984 15.602-2.3984l22.801-28.801c2.3984-2.3984 2.3984-6 2.3984-8.3984 0-3.6016-2.3984-6-4.8008-7.1992-7.1992-6-16.801-10.801-26.398-15.602-10.801-4.8008-20.398-8.3984-31.199-10.801v-27.602c0-6-4.8008-10.801-10.801-10.801h-27.602c-6 0-10.801 4.8008-10.801 10.801v25.199c-20.398 3.6016-37.199 12-49.199 25.199-13.199 14.398-20.398 32.398-20.398 52.801 0 4.8008 0 9.6016 1.1992 14.398 1.1992 4.8008 2.3984 8.3984 3.6016 13.199 1.1992 3.6016 3.6016 7.1992 4.8008 10.801 2.3984 3.6016 4.8008 7.1992 7.1992 9.6016 2.3984 2.3984 6 4.8008 8.3984 7.1992 2.3984 2.3984 6 4.8008 10.801 7.1992 3.6016 2.3984 7.1992 3.6016 10.801 6 3.6016 1.1992 7.1992 3.6016 12 4.8008 4.8008 1.1992 8.3984 2.3984 12 3.6016 3.6016 1.1992 8.3984 2.3984 13.199 3.6016 4.8008 1.1992 9.6016 3.6016 13.199 4.8008 3.6016 1.1992 7.1992 2.3984 10.801 4.8008 2.3984 1.1992 4.8008 2.3984 7.1992 4.8008 1.1992 1.1992 3.6016 2.3984 4.8008 4.8008 1.1992 1.1992 2.3984 2.3984 2.3984 4.8008 0 1.1992 1.1992 3.6016 1.1992 6 0 6-2.3984 9.6016-6 13.199-10.801 8.3984-31.199 7.1992-51.602-1.1992-9.6016-3.6016-19.199-9.6016-26.398-16.801-2.3984-2.3984-6-3.6016-8.3984-2.3984-3.6016 0-6 1.1992-7.1992 3.6016l-24.004 25.191c-3.6016 4.8008-3.6016 12 1.1992 15.602 20.402 19.199 43.199 31.199 69.602 36z"/>
 <path d="m820.8 646.8h-441.6c-36 0-64.801 30-66 67.199-1.1992 56.398 21.602 140.4 79.199 199.2 51.602 52.801 123.6 80.402 207.6 80.402s156-27.602 207.6-80.398c57.602-58.801 81.602-142.8 79.199-199.2-1.1992-37.203-30-67.203-66-67.203zm-220.8 268.8c-63.602 0-114-19.199-150-56.398-1.1992-1.1992-1.1992-1.1992-2.3984-2.3984 43.199-27.602 96-43.199 152.4-43.199s109.2 15.602 152.4 43.199c-1.1992 1.1992-1.1992 1.1992-2.3984 2.3984-36 37.195-86.398 56.398-150 56.398z"/>
 <path d="m936 30h-672c-129.6 0-234 104.4-234 234v672c0 128.4 104.4 234 234 234h672c128.4 0 234-104.4 234-234v-672c0-129.6-104.4-234-234-234zm145.2 906c0 80.398-64.801 145.2-145.2 145.2h-672c-80.398 0-145.2-64.801-145.2-145.2v-672c0-80.398 64.801-145.2 145.2-145.2h672c80.398 0 145.2 64.801 145.2 145.2z"/>
</svg>
