<?xml version="1.0" encoding="UTF-8"?>
<svg width="1200pt" height="1200pt" version="1.1" viewBox="0 0 1200 1200" xmlns="http://www.w3.org/2000/svg">
 <path d="m614.4 784.8c-44.398 6-90-9.6016-121.2-43.199l-82.801 79.199c48 51.602 116.4 79.199 186 79.199 10.801 0 22.801-1.1992 33.602-2.3984 118.8-15.602 212.4-114 220.8-234l-114-8.3984c-4.8008 65.996-56.402 121.2-122.4 129.6z"/>
 <path d="m600 30c-314.4 0-570 255.6-570 570s255.6 570 570 570 570-255.6 570-570-255.6-570-570-570zm0 1026c-250.8 0-456-204-456-456s204-456 456-456 456 204 456 456-205.2 456-456 456z"/>
 <path d="m514.8 469.2c0 51.695-41.906 93.602-93.602 93.602-51.691 0-93.598-41.906-93.598-93.602 0-51.691 41.906-93.598 93.598-93.598 51.695 0 93.602 41.906 93.602 93.598z"/>
 <path d="m828 354-193.2 115.2 193.2 115.2 44.398-74.398-69.598-40.801 69.598-40.801z"/>
</svg>
