<?xml version="1.0" encoding="UTF-8"?>
<svg width="1200pt" height="1200pt" version="1.1" viewBox="0 0 1200 1200" xmlns="http://www.w3.org/2000/svg">
 <path d="m932.4 30h-664.8c-130.8 0-237.6 106.8-237.6 237.6v666c0 130.8 106.8 237.6 237.6 237.6h666c130.8 0 237.6-106.8 237.6-237.6l-0.003906-666c-1.1992-130.8-108-237.6-238.8-237.6zm138 902.4c0 75.602-61.199 136.8-136.8 136.8h-666c-75.602 0-136.8-61.199-136.8-136.8v-664.8c0-75.602 61.199-136.8 136.8-136.8h666c75.602 0 136.8 61.199 136.8 136.8z"/>
 <path d="m406.8 440.4 36-43.199 36 43.199c9.6016 12 24 18 38.398 18 10.801 0 22.801-3.6016 32.398-12 21.602-18 24-49.199 6-70.801l-74.398-87.598c-19.199-22.801-57.602-22.801-76.801 0l-74.398 88.801c-18 21.602-14.398 52.801 6 70.801s52.801 13.199 70.801-7.2031z"/>
 <path d="m721.2 440.4 36-43.199 36 43.199c9.6016 12 24 18 38.398 18 10.801 0 22.801-3.6016 32.398-12 21.602-18 24-49.199 6-70.801l-74.395-87.598c-19.199-22.801-57.602-22.801-76.801 0l-74.398 88.801c-18 21.602-14.398 52.801 6 70.801 20.398 18 53.996 13.199 70.797-7.2031z"/>
 <path d="m902.4 574.8h-604.8c-22.801 0-40.801 18-40.801 40.801 0 91.199 36 177.6 100.8 242.4 64.801 64.801 151.2 100.8 242.4 100.8s177.6-36 242.4-100.8c64.801-64.801 100.8-151.2 100.8-242.4 0-21.602-18-40.801-40.801-40.801zm-68.398 158.4h-468c-12-24-20.398-49.199-24-75.602h516c-3.6016 26.402-12 51.602-24 75.602z"/>
</svg>
