<?xml version="1.0" encoding="UTF-8" standalone="no"?>
<svg
   width="1059.6743"
   height="1293.931"
   viewBox="0 0 1059.6743 1293.931"
   version="1.1"
   id="svg4"
   xmlns="http://www.w3.org/2000/svg"
   xmlns:svg="http://www.w3.org/2000/svg">
  <defs
     id="defs8" />
  <path
     d="m 870.262,1.4650165 c -26.971,3.53 -50.332,8.8560005 -69.797,15.9120005 -39.037,14.15 -72.32,30.193 -98.203,47.336 -28.113,18.619 -63.896,46.039003 -95.982,73.548003 -8.26,7.081 -21.736,18.342 -29.947,25.023 -8.211,6.681 -19.236,15.694 -24.5,20.029 -19.311,15.903 -50.488,43.706 -74.104,66.084 -5.244,4.969 -17.59,16.224 -27.437,25.011 -23.629,21.085 -101.193,97.252 -144.438,141.835 -14.527,14.975 -15.301,15.614 -14.638,12.083 1.267,-6.757 6.293,-17.901 13.523,-29.988 10.294,-17.208 17.375,-32.275 21.34,-45.407 5.083,-16.831 5.866,-23.449 4.701,-39.744 -1.281,-17.931 -2.023,-21.704 -7.914,-40.256 -2.707,-8.525 -5.657,-18.075 -6.556,-21.223 -1.828,-6.407 -4.313,-8.777 -9.198,-8.777 -2.305,0 -3.812,0.772 -5.368,2.75 -1.943,2.47 -2.111,3.612 -1.654,11.25 0.28,4.675 1.271,11.425 2.202,15 1.183,4.544 1.841,12.294 2.187,25.756 0.524,20.363 -0.154,25.738 -4.948,39.244 -3.515,9.902 -39.615,81.671 -46.132,91.714 -6.369,9.814 -8.523,12.1 -20.91,22.185 -7.366,5.997 -9.931,8.971 -17.657,20.466 -6.627,9.859 -9.375,15.882 -12.129,26.577 -3.949,15.333 -7.412,18.301 -21.798,18.678 -10.832,0.283 -18.229,1.771 -22.946,4.616 -1.816,1.096 -3.409,1.828 -3.54,1.628 -3.696,-5.662 -10.729,-14.037 -16.86,-20.08 -10.002,-9.857 -11.979,-10.474 -27.192,-8.492 l -11.105,1.448 -3.886,-4.12 c -2.137,-2.266 -6.532,-6.933 -9.767,-10.371 -3.234,-3.438 -8.348,-7.889 -11.364,-9.892 -3.016,-2.002 -5.483,-3.744 -5.483,-3.872 0,-0.127 2.058,-9.176 4.574,-20.108 11.157,-48.489 13.782,-69.943 11.585,-94.67 -1.771,-19.933 -3.25,-23.31 -9.86,-22.519 -5.101,0.611 -6.221,3.84 -7.317,21.089 -0.659,10.385 -2.188,21.748 -4.472,33.241 -4.024,20.256 -13.493,62.778 -14.123,63.42 -0.236,0.24 -2.332,-1.363 -4.658,-3.562 -10.009,-9.467 -18.205,-12.096 -23.168,-7.433 -1.297,1.218 -2.577,3.36 -2.845,4.76 -1.105,5.784 1.168,9.461 13.642,22.068 6.678,6.75 12.065,12.606 11.971,13.014 -1.2,5.205 -3.329,37.897 -3.329,51.128 0,20.281 1.254,32.89 4.572,45.97 l 2.427,9.567 -3.25,2.516 c -1.787,1.384 -5.049,4.132 -7.249,6.107 -2.2,1.974 -6.475,5.215 -9.5,7.202 -4.974,3.266 -14.027,13.042 -19.853,21.437 -1.226,1.767 -3.507,6.311 -5.069,10.099 -2.423,5.875 -2.84,8.253 -2.84,16.189 0,7.936 0.417,10.314 2.84,16.189 1.562,3.788 3.843,8.332 5.069,10.099 5.826,8.395 14.879,18.171 19.853,21.437 3.025,1.987 7.3,5.228 9.5,7.202 2.2,1.975 5.462,4.723 7.249,6.107 l 3.25,2.516 -2.427,9.567 c -3.318,13.08 -4.572,25.689 -4.572,45.97 0,13.231 2.129,45.923 3.329,51.128 0.094,0.408 -5.293,6.264 -11.971,13.014 -12.474,12.607 -14.747,16.284 -13.642,22.068 0.268,1.4 1.548,3.542 2.845,4.76 4.963,4.663 13.159,2.034 23.168,-7.433 2.326,-2.199 4.422,-3.802 4.658,-3.562 0.63,0.642 10.099,43.164 14.123,63.42 2.284,11.493 3.813,22.856 4.472,33.241 1.096,17.249 2.216,20.478 7.317,21.089 6.61,0.791 8.089,-2.586 9.86,-22.519 2.197,-24.727 -0.428,-46.181 -11.585,-94.67 -2.516,-10.932 -4.574,-19.981 -4.574,-20.108 0,-0.128 2.467,-1.87 5.483,-3.872 3.016,-2.003 8.13,-6.454 11.364,-9.892 3.235,-3.438 7.63,-8.105 9.767,-10.371 l 3.886,-4.12 11.105,1.448 c 15.213,1.982 17.19,1.365 27.192,-8.492 6.131,-6.043 13.164,-14.418 16.86,-20.08 0.131,-0.2 1.724,0.532 3.54,1.628 4.717,2.845 12.114,4.333 22.946,4.616 14.386,0.377 17.849,3.345 21.798,18.678 2.754,10.695 5.502,16.718 12.129,26.577 7.726,11.495 10.291,14.469 17.657,20.466 12.387,10.085 14.541,12.371 20.91,22.185 6.517,10.043 42.617,81.812 46.132,91.714 4.794,13.506 5.472,18.881 4.948,39.244 -0.346,13.46198 -1.004,21.21198 -2.187,25.75598 -0.931,3.575 -1.922,10.325 -2.202,15 -0.457,7.638 -0.289,8.78 1.654,11.25 1.556,1.978 3.063,2.75 5.368,2.75 4.885,0 7.37,-2.37 9.198,-8.777 0.899,-3.148 3.849,-12.698 6.556,-21.223 5.891,-18.552 6.633,-22.32498 7.914,-40.25598 1.165,-16.295 0.382,-22.913 -4.701,-39.744 -3.965,-13.132 -11.046,-28.199 -21.34,-45.407 -7.23,-12.087 -12.256,-23.231 -13.523,-29.988 -0.663,-3.531 0.111,-2.892 14.638,12.083 43.245,44.583 120.809,120.75 144.438,141.83498 9.847,8.787 22.193,20.042 27.437,25.011 23.616,22.378 54.793,50.181 74.104,66.084 5.264,4.335 16.289,13.348 24.5,20.029 8.211,6.681 21.687,17.942 29.947,25.023 32.086,27.509 67.869,54.929 95.982,73.548 25.883,17.143 59.166,33.186 98.203,47.336 30.862,11.187 67.729,17.446 102.759,17.446 23.016,-10e-4 36.671,-1.786 53.313,-6.97 15.063,-4.692 17.425,-7.146 21.233,-22.062 1.817,-7.116 2.169,-11.589 2.317,-29.43 0.166,-19.906 0.03,-21.603 -2.526,-31.538 -3.592,-13.962 -5.284,-25.136 -7.799,-51.5 -3.678,-38.553 -6.109,-48.725 -19.9,-83.27 -7.232,-18.116 -16.452,-35.105 -37.936,-69.90698 -11.201,-18.143 -26.743,-39.302 -37.476,-51.019 -5.311,-5.799 -8.643,-15.541 -8.654,-25.304 -0.01,-4.125 -0.745,-10.875 -1.646,-15 -3.028,-13.869 -8.369,-33.042 -10.248,-36.786 -1.025,-2.043 -3.123,-7.539 -4.662,-12.214 -3.849,-11.693 -7.428,-19.422 -15.658,-33.813 -12.469,-21.803 -24.903,-36.605 -44.014,-52.396 l -9.903,-8.184 2.779,-1.456 c 1.946,-1.02 6.833,-1.534 16.299,-1.716 17.209,-0.33 36.041,-3.95 59.781,-11.492 5.094,-1.619 10.388,-2.943 11.764,-2.943 1.375,0 3.283,-0.425 4.238,-0.944 0.955,-0.52 8.486,-2.073 16.736,-3.451 22.284,-3.724 30.684,-6.473 52,-17.016 17.125,-8.471 20.233,-9.659 31.5,-12.044 33.243,-7.038 61.52,-25.699 78.77,-51.984 5.512,-8.397 6.843,-12.479 5.831,-17.872 -0.932,-4.972 -10.035,-18.141 -18.984,-27.465 -17.769,-18.514 -39.14,-30.164 -65.617,-35.769 -11.267,-2.385 -14.375,-3.573 -31.5,-12.044 -21.316,-10.543 -29.716,-13.292 -52,-17.016 -8.25,-1.378 -15.781,-2.931 -16.736,-3.451 -0.955,-0.519 -2.863,-0.944 -4.238,-0.944 -1.376,0 -6.67,-1.324 -11.764,-2.943 -23.74,-7.542 -42.572,-11.162 -59.781,-11.492 -9.466,-0.182 -14.353,-0.696 -16.299,-1.716 l -2.779,-1.456 9.903,-8.184 c 19.111,-15.791 31.545,-30.593 44.014,-52.396 8.23,-14.391 11.809,-22.12 15.658,-33.813 1.539,-4.675 3.637,-10.171 4.662,-12.214 1.879,-3.744 7.22,-22.917 10.248,-36.786 1.017,-4.658 1.633,-12.062 1.625,-19.538 l -0.013,-12.037 5.042,-4.963 c 10.386,-10.222 28.55,-34.421 41.122,-54.785 21.484,-34.802 30.704,-51.791 37.936,-69.907 13.791,-34.545 16.222,-44.717 19.9,-83.27 2.515,-26.364 4.207,-37.538 7.799,-51.500003 2.556,-9.935 2.692,-11.632 2.526,-31.538 -0.148,-17.841 -0.5,-22.314 -2.317,-29.43 -2.577,-10.093 -3.991,-12.998 -7.947,-16.328 -3.941,-3.3150005 -20.556,-8.4430005 -35.061,-10.8190005 -13.792,-2.25999996 -48.475,-2.44899996 -64.5,-0.351 M 63.385,497.02402 c -1.555,10.074 -1.595,27.542 -0.105,46.629 0.892,11.428 1.825,21.795 2.073,23.037 l 0.452,2.26 3.948,-2.014 c 6.907,-3.524 14.907,-5.11 24.427,-4.842 8.192,0.231 8.993,0.082 9.845,-1.827 0.784,-1.756 0.124,-2.829 -4.255,-6.925 -6.695,-6.263 -7.597,-8.153 -10.069,-21.112 -1.133,-5.939 -2.92,-12.599 -3.972,-14.799 -1.053,-2.2 -6.392,-8.458 -11.865,-13.907 l -9.953,-9.907 -0.526,3.407 m 1.968,230.148 c -0.248,1.242 -1.181,11.609 -2.073,23.037 -1.49,19.087 -1.45,36.555 0.105,46.629 l 0.526,3.407 9.953,-9.907 c 5.473,-5.449 10.812,-11.707 11.865,-13.907 1.052,-2.2 2.839,-8.86 3.972,-14.799 2.472,-12.959 3.374,-14.849 10.069,-21.112 4.379,-4.096 5.039,-5.169 4.255,-6.925 -0.852,-1.909 -1.653,-2.058 -9.845,-1.827 -9.52,0.268 -17.52,-1.318 -24.427,-4.842 l -3.948,-2.014 -0.452,2.26"
     stroke="none"
     fill="#000000"
     fill-rule="evenodd"
     id="path2" />
</svg>
