<?xml version="1.0" standalone="no"?>
<!DOCTYPE svg PUBLIC "-//W3C//DTD SVG 20010904//EN"
 "http://www.w3.org/TR/2001/REC-SVG-20010904/DTD/svg10.dtd">
<svg version="1.0" xmlns="http://www.w3.org/2000/svg"
 width="1462.000000pt" height="1250.000000pt" viewBox="0 0 1462.000000 1250.000000"
 preserveAspectRatio="xMidYMid meet">
<metadata>
Created by potrace 1.16, written by Peter Selinger 2001-2019
</metadata>
<g transform="translate(0.000000,1250.000000) scale(0.100000,-0.100000)"
fill="#000000" stroke="none">
<path d="M2255 12480 c-3 -5 1 -10 9 -10 9 0 16 5 16 10 0 6 -4 10 -9 10 -6 0
-13 -4 -16 -10z"/>
<path d="M2323 12483 c9 -2 23 -2 30 0 6 3 -1 5 -18 5 -16 0 -22 -2 -12 -5z"/>
<path d="M2053 12453 c9 -2 25 -2 35 0 9 3 1 5 -18 5 -19 0 -27 -2 -17 -5z"/>
<path d="M2189 12456 c-5 -6 -174 -29 -204 -28 -11 0 -36 -4 -55 -9 -19 -5
-74 -18 -121 -29 -92 -21 -223 -62 -275 -86 -17 -7 -55 -19 -85 -25 -62 -13
-259 -97 -259 -110 0 -5 -4 -9 -10 -9 -18 0 -85 -52 -103 -81 -11 -16 -19 -46
-19 -67 0 -25 -6 -43 -21 -57 -32 -29 -32 -61 -2 -69 34 -9 32 -39 -2 -65 -16
-11 -23 -21 -16 -21 15 0 11 -60 -6 -104 -6 -16 -9 -31 -6 -34 2 -3 -1 -12 -7
-20 -22 -26 -19 -54 8 -80 25 -25 25 -27 7 -42 -13 -11 -18 -29 -18 -64 0 -41
4 -51 23 -59 12 -6 22 -14 22 -19 0 -4 7 -8 16 -8 12 0 15 -6 11 -20 -7 -27
10 -150 23 -165 5 -6 11 -21 13 -33 2 -12 6 -25 10 -28 4 -4 7 -18 7 -30 0
-13 5 -26 12 -30 7 -5 5 -11 -8 -21 -18 -13 -17 -14 3 -28 25 -18 47 -72 32
-81 -6 -3 -6 -10 -1 -17 5 -7 12 -42 15 -79 5 -57 4 -69 -11 -77 -14 -9 -12
-10 11 -11 16 0 30 -6 32 -15 3 -8 8 -23 12 -32 4 -10 7 -23 8 -29 0 -6 5 -22
12 -35 21 -45 33 -112 21 -126 -8 -10 -7 -13 3 -13 8 0 20 -10 27 -21 12 -19
11 -24 -13 -49 -26 -27 -31 -64 -10 -65 6 -1 21 -5 33 -9 18 -6 22 -13 18 -31
-3 -13 0 -27 8 -34 23 -19 28 -59 11 -85 -14 -21 -14 -24 0 -29 18 -7 20 -49
3 -76 -15 -24 -4 -49 27 -61 21 -8 24 -14 19 -40 -4 -18 -2 -30 4 -30 6 0 22
-25 37 -55 32 -68 35 -183 5 -210 -15 -14 -16 -21 -7 -46 9 -22 9 -34 -1 -47
-24 -33 -25 -45 -7 -58 13 -10 18 -31 21 -91 3 -43 4 -89 4 -103 -5 -126 1
-181 22 -202 17 -17 19 -24 10 -39 -7 -10 -9 -25 -6 -34 3 -8 1 -15 -5 -15 -6
0 -11 -7 -11 -15 0 -8 6 -15 13 -15 6 0 13 -14 14 -32 1 -17 9 -38 17 -46 13
-13 13 -18 -2 -39 -12 -20 -13 -29 -4 -44 16 -24 15 -29 -3 -29 -24 0 -17 -17
10 -24 24 -6 35 -26 14 -26 -6 0 -8 -8 -4 -19 4 -13 -1 -24 -17 -35 l-23 -16
33 -12 c34 -13 43 -28 15 -28 -15 0 -15 -1 1 -13 12 -9 20 -30 22 -58 10 -112
11 -194 4 -214 -5 -13 -3 -27 6 -40 8 -10 14 -33 14 -51 0 -23 7 -36 25 -48
14 -9 25 -24 25 -32 0 -9 9 -29 21 -46 12 -16 19 -32 15 -35 -3 -3 2 -20 11
-37 9 -17 18 -37 19 -44 1 -8 10 -22 20 -33 11 -12 19 -40 21 -71 2 -29 8 -57
13 -62 6 -6 10 -16 10 -24 0 -8 9 -27 21 -43 11 -16 18 -33 14 -38 -3 -5 -1
-13 5 -16 6 -4 9 -19 7 -34 -3 -15 1 -35 9 -45 7 -11 11 -23 8 -28 -3 -4 2
-11 11 -15 27 -10 65 -49 65 -67 0 -9 4 -16 10 -16 5 0 9 -3 9 -7 -4 -23 3
-33 21 -33 11 0 20 -7 20 -15 0 -8 3 -15 8 -15 4 0 27 -18 51 -40 25 -22 63
-46 85 -52 23 -7 53 -21 67 -33 15 -12 40 -27 58 -34 19 -8 31 -21 31 -32 0
-11 5 -19 10 -19 10 0 31 -16 78 -60 15 -14 43 -32 62 -40 19 -7 46 -24 59
-37 13 -13 28 -23 32 -23 5 0 9 -6 9 -14 0 -7 13 -16 30 -19 16 -4 38 -15 48
-25 14 -14 36 -19 88 -21 68 -2 87 -9 133 -50 13 -11 30 -21 37 -21 7 0 29 -8
47 -17 24 -13 34 -25 34 -41 0 -13 9 -30 19 -37 18 -15 18 -16 -5 -35 -13 -11
-30 -20 -37 -20 -14 0 -90 -31 -129 -53 -11 -6 -58 -32 -105 -58 -47 -26 -113
-62 -147 -80 -68 -37 -103 -63 -166 -124 -62 -59 -119 -175 -88 -175 6 0 13
-20 16 -44 4 -25 15 -52 25 -61 17 -15 19 -15 28 1 6 12 15 15 28 10 17 -7 17
-9 -9 -30 -21 -17 -29 -33 -31 -62 -1 -21 -7 -51 -14 -66 -20 -49 -23 -131 -4
-151 15 -17 14 -19 -13 -41 -19 -15 -26 -28 -22 -40 6 -16 1 -25 -56 -89 -61
-70 -98 -208 -64 -241 9 -10 18 -12 22 -7 8 14 35 2 35 -15 0 -10 7 -13 25 -8
27 7 33 -4 13 -24 -9 -9 -7 -12 9 -12 12 0 25 5 28 10 5 8 12 7 22 -1 13 -11
11 -15 -9 -31 -13 -9 -29 -18 -37 -18 -11 0 -11 -4 3 -19 9 -10 14 -25 10 -35
-4 -11 2 -24 16 -36 29 -25 50 -66 50 -95 0 -13 5 -25 12 -27 6 -2 13 -11 15
-19 1 -7 9 -43 16 -79 8 -36 19 -75 26 -88 9 -16 9 -27 1 -43 -8 -14 -8 -24
-1 -33 6 -7 12 -36 13 -65 1 -29 6 -54 9 -57 4 -2 5 -22 3 -45 -3 -23 0 -47 7
-55 6 -8 9 -23 6 -33 -6 -25 16 -44 71 -61 23 -7 42 -17 42 -21 0 -4 9 -11 20
-14 11 -3 20 -12 20 -18 1 -7 24 -25 53 -42 34 -20 57 -42 68 -65 9 -19 30
-42 45 -51 16 -8 29 -24 29 -34 0 -22 50 -75 71 -75 8 0 14 -4 14 -10 0 -5 8
-10 18 -10 29 0 85 -47 104 -88 9 -22 24 -45 33 -52 8 -7 15 -19 15 -27 0 -8
6 -20 13 -28 13 -14 76 -90 93 -114 7 -8 10 -21 7 -28 -3 -7 2 -13 11 -13 9 0
19 -7 22 -15 4 -8 13 -15 20 -15 8 0 17 -7 20 -15 4 -8 13 -15 21 -15 8 0 27
-9 42 -19 15 -11 46 -21 69 -22 30 -2 42 -7 42 -19 0 -15 38 -46 53 -42 4 1 7
-5 7 -13 0 -8 5 -15 10 -15 6 0 10 -8 10 -19 0 -27 21 -40 55 -35 109 18 193
8 182 -20 -4 -10 8 -20 39 -32 48 -18 49 -24 19 -84 -18 -35 -28 -247 -12
-253 9 -3 7 -13 -5 -34 -15 -26 -16 -39 -7 -79 5 -27 10 -56 11 -64 0 -8 6
-21 12 -29 6 -8 12 -58 13 -114 1 -58 6 -103 12 -106 13 -8 15 -52 7 -141 -4
-36 -8 -85 -9 -110 -8 -104 -30 -214 -49 -234 -4 -6 -8 -27 -8 -48 0 -35 -4
-50 -36 -125 -8 -17 -14 -36 -14 -42 0 -7 -10 -31 -22 -54 -12 -23 -21 -45
-20 -50 1 -4 -8 -24 -21 -45 -13 -20 -27 -49 -30 -63 -4 -14 -26 -55 -49 -91
-24 -37 -65 -103 -93 -148 -69 -113 -96 -144 -263 -313 -90 -91 -178 -169
-227 -202 -44 -29 -114 -81 -155 -114 -41 -33 -80 -61 -86 -61 -6 0 -19 -10
-30 -21 -10 -12 -50 -43 -89 -70 -38 -26 -108 -76 -155 -110 -47 -34 -150
-107 -230 -161 -169 -115 -287 -206 -387 -301 l-72 -68 -42 11 c-23 7 -90 20
-148 30 -58 10 -110 19 -116 20 -23 5 -56 -1 -51 -9 3 -4 -6 -6 -19 -3 -17 3
-27 -1 -31 -12 -3 -9 -17 -16 -31 -16 -25 0 -82 -52 -64 -58 6 -2 9 -8 5 -13
-3 -5 2 -16 10 -25 9 -8 16 -31 16 -50 0 -39 11 -42 67 -19 45 19 77 11 70
-17 -3 -11 0 -21 9 -25 8 -3 13 -11 11 -17 -7 -18 23 -49 66 -68 57 -27 72
-25 172 18 70 30 91 38 105 40 31 5 123 44 178 75 88 50 180 99 187 99 4 0 4
-9 0 -19 -3 -11 -1 -22 5 -26 15 -9 40 13 34 30 -3 7 2 19 12 26 9 8 39 36 67
62 30 29 55 46 64 43 8 -3 19 -6 24 -6 6 0 7 -4 4 -10 -8 -13 -2 -13 43 5 22
9 43 15 48 14 5 -1 11 0 14 1 19 7 50 5 47 -4 -2 -6 20 -16 52 -22 52 -11 58
-10 93 12 21 13 45 24 54 24 17 0 197 56 231 72 11 6 26 8 31 4 5 -3 15 0 21
8 7 8 26 17 44 20 18 4 57 24 87 46 30 22 71 47 90 56 19 10 43 24 52 32 10 8
24 12 32 9 8 -3 31 10 52 29 22 19 64 51 94 71 71 46 107 79 136 124 12 20 60
80 106 132 46 52 129 153 185 223 264 331 335 418 440 539 62 72 117 135 123
140 22 21 60 70 60 78 0 5 4 6 9 2 5 -3 12 4 16 15 4 11 11 18 16 15 5 -4 13
5 18 18 5 13 21 37 35 52 14 15 26 34 26 43 0 8 13 31 28 51 45 58 92 136 92
153 0 9 7 18 15 22 8 3 15 12 15 19 0 8 13 32 28 53 16 21 41 66 56 99 15 33
40 74 56 90 16 17 36 46 44 66 8 20 26 50 39 65 13 16 32 43 41 59 9 17 25 44
36 60 11 17 25 41 32 55 7 14 27 46 45 71 18 25 46 72 63 105 17 32 38 73 48
89 9 17 19 39 20 50 2 11 12 36 22 55 10 19 25 52 34 72 9 20 22 43 30 50 7 7
26 51 42 98 19 55 35 85 44 85 10 0 19 17 25 49 7 30 19 55 34 67 19 16 23 26
18 54 -4 21 -2 35 5 35 5 0 7 7 4 16 -5 13 -1 15 19 12 22 -5 24 -2 19 18 -3
13 1 32 10 45 12 18 13 26 4 37 -10 11 -8 13 12 10 21 -2 26 2 28 25 4 31 9
33 40 11 31 -21 35 -15 23 37 -6 26 -6 49 -1 58 7 11 9 12 10 3 0 -24 20 -1
20 23 0 25 28 77 133 248 36 59 64 107 61 107 -3 0 2 10 10 22 9 12 16 33 16
45 0 25 15 31 23 11 3 -7 3 4 1 25 -2 22 0 36 5 32 5 -3 11 5 13 17 2 13 9 22
16 20 7 -1 18 10 25 25 16 36 26 46 62 58 17 6 34 20 40 33 5 12 15 22 22 22
6 0 20 11 31 25 11 14 23 25 26 25 4 0 43 24 87 54 79 53 179 158 193 204 4
12 14 22 21 22 19 0 114 118 174 214 44 72 48 85 46 133 -1 29 1 50 6 47 9 -5
2 162 -7 177 -3 5 2 19 10 31 9 12 16 31 16 41 0 9 7 20 15 23 8 3 17 14 20
24 3 10 19 35 35 55 17 21 30 46 30 57 0 11 5 16 10 13 13 -8 28 32 24 65 -2
20 7 37 35 66 20 22 36 44 34 50 -2 5 10 24 27 40 32 33 50 72 50 108 0 25
111 146 135 146 3 0 5 -8 5 -17 0 -10 9 -32 19 -50 11 -17 20 -40 20 -50 2
-54 13 -118 23 -124 6 -4 7 -12 3 -18 -4 -7 -1 -18 5 -26 7 -8 10 -15 7 -15
-9 0 14 -63 31 -82 8 -10 19 -15 25 -11 6 4 8 -2 5 -15 -4 -13 3 -33 19 -54
14 -18 29 -43 34 -55 5 -13 13 -23 18 -23 5 0 7 -9 4 -19 -3 -10 1 -29 7 -41
7 -14 8 -25 3 -29 -13 -8 -13 -41 0 -41 5 0 6 -8 2 -17 -4 -10 -9 -24 -12 -30
-3 -8 2 -13 12 -13 12 0 15 -5 11 -16 -4 -10 1 -25 10 -35 9 -10 13 -23 8 -30
-4 -7 -3 -10 4 -5 18 11 33 -29 22 -59 -11 -30 -10 -44 8 -63 14 -16 6 -36
-11 -25 -7 4 0 -9 15 -29 20 -26 24 -38 15 -47 -8 -8 -7 -18 6 -40 9 -15 14
-30 12 -33 -11 -10 27 -175 51 -225 14 -29 24 -58 22 -65 -4 -19 34 -66 50
-60 7 2 12 -6 12 -22 0 -14 9 -43 20 -63 11 -21 23 -52 26 -70 3 -18 10 -36
15 -39 5 -3 9 -14 9 -25 0 -22 46 -140 58 -148 4 -4 25 -28 46 -54 22 -26 56
-61 77 -78 l38 -30 37 41 c21 23 49 47 64 55 68 35 160 161 160 220 0 12 4 25
9 31 12 11 18 165 8 182 -11 16 15 16 32 0 6 -7 0 9 -14 36 -22 41 -25 58 -21
105 2 31 5 58 7 61 1 3 1 26 0 53 -2 41 1 47 19 47 17 0 19 3 10 19 -14 27
-13 34 6 27 12 -5 15 -2 9 11 -4 10 -9 36 -13 57 -4 32 -2 37 9 31 12 -8 12
-6 0 8 -15 19 -7 52 11 41 6 -4 4 3 -5 17 -20 27 -23 49 -5 31 7 -7 17 -12 23
-12 5 0 -1 9 -14 19 -24 19 -22 41 5 41 16 0 19 16 4 25 -8 5 -8 11 0 20 9 11
7 12 -8 8 -16 -4 -19 1 -20 31 -1 25 3 36 13 36 15 0 16 45 1 68 -3 6 -1 12 6
14 7 3 13 15 13 29 0 17 5 24 18 23 13 -1 17 6 17 37 0 21 -5 50 -12 63 -9 21
-8 29 4 43 9 10 18 27 20 38 2 12 10 19 21 17 9 -2 17 2 17 7 0 6 13 8 32 4
21 -4 29 -3 24 5 -4 6 -4 22 0 36 4 17 11 23 25 21 23 -5 24 12 4 39 -8 11
-15 26 -15 33 0 14 25 18 33 6 5 -10 -1 12 -9 32 -5 11 -2 14 12 8 17 -6 17
-5 1 17 -9 14 -17 28 -17 32 0 13 48 9 53 -4 2 -7 8 -10 12 -6 5 5 0 18 -11
30 -17 19 -17 21 -1 15 9 -4 17 -2 17 3 0 5 7 7 15 4 13 -5 14 -2 5 22 -8 20
-8 30 -1 32 6 2 11 13 11 24 0 17 2 18 15 8 9 -7 18 -10 21 -7 7 7 54 -41 54
-54 0 -5 5 -9 10 -9 6 0 10 10 10 23 0 21 1 21 25 -7 14 -16 25 -37 25 -46 0
-10 7 -23 16 -31 11 -9 14 -22 10 -45 -5 -25 -1 -38 17 -60 42 -51 94 -138
107 -176 13 -42 24 -47 39 -20 9 15 13 14 39 -14 15 -17 35 -33 43 -36 11 -4
12 -8 2 -19 -15 -15 -17 -43 -3 -34 6 3 10 -3 10 -14 0 -13 5 -18 13 -15 20 7
40 -22 33 -49 -3 -14 1 -32 9 -43 14 -18 14 -18 15 4 0 39 34 24 38 -17 3 -25
0 -32 -10 -28 -18 6 -11 -63 8 -78 7 -5 14 -19 16 -29 1 -11 11 -20 21 -22 29
-4 33 -12 36 -75 1 -21 38 -32 45 -13 3 8 13 14 21 14 12 0 15 -6 10 -21 -5
-14 -2 -25 6 -30 12 -8 11 -11 -1 -19 -9 -6 -11 -13 -5 -17 6 -5 11 -23 12
-42 1 -18 7 -39 14 -47 6 -7 8 -18 5 -23 -8 -13 29 -33 57 -31 42 4 48 0 48
-32 0 -18 1 -49 4 -68 2 -19 4 -39 4 -44 1 -4 8 -5 16 -2 17 6 36 -29 28 -51
-2 -6 12 -17 32 -24 32 -12 36 -17 33 -41 -3 -16 -1 -28 4 -28 4 0 8 7 8 15 0
8 4 15 9 15 14 0 20 -37 11 -74 -6 -26 -4 -38 8 -50 13 -12 14 -18 4 -28 -7
-7 -12 -17 -12 -23 0 -5 4 -4 9 4 12 19 34 3 28 -20 -4 -15 0 -19 19 -19 28 0
30 -6 8 -27 -12 -12 -12 -18 -3 -23 6 -4 9 -12 5 -18 -3 -6 -1 -14 5 -17 6 -4
8 -18 5 -31 -5 -17 -2 -23 6 -22 7 2 13 -4 14 -12 2 -42 17 -70 36 -70 17 0
19 -5 15 -26 -3 -20 0 -28 14 -31 11 -3 19 -14 19 -24 0 -10 4 -20 9 -24 6 -3
8 -20 6 -37 -4 -31 29 -103 60 -128 8 -7 12 -16 9 -21 -3 -5 2 -9 10 -9 15 0
20 -11 17 -37 -1 -7 2 -13 7 -13 18 0 44 -68 33 -88 -12 -22 4 -53 24 -46 16
6 16 5 19 -38 0 -15 7 -33 14 -40 6 -6 12 -22 12 -33 0 -26 20 -69 65 -136 17
-26 38 -68 46 -91 7 -24 21 -52 31 -62 10 -11 18 -26 18 -33 0 -7 5 -13 10
-13 6 0 10 -6 10 -12 0 -7 7 -26 15 -42 9 -16 17 -37 18 -46 2 -9 13 -29 25
-45 12 -15 23 -32 23 -36 4 -29 36 -94 52 -108 8 -6 17 -24 20 -40 3 -16 12
-35 19 -42 42 -45 72 -104 82 -163 3 -15 13 -39 23 -53 24 -34 30 -45 37 -63
4 -8 15 -28 26 -45 10 -16 24 -48 30 -69 9 -29 14 -36 20 -25 7 11 17 5 45
-26 33 -38 40 -59 35 -114 -1 -15 2 -21 10 -16 18 11 60 -35 60 -66 0 -15 -4
-31 -10 -34 -6 -4 -2 -15 10 -27 11 -12 20 -27 20 -34 0 -7 6 -17 13 -21 6 -4
18 -20 26 -36 8 -15 19 -26 25 -24 6 2 23 -16 39 -40 16 -24 33 -43 38 -43 5
0 9 -5 9 -12 0 -6 10 -22 22 -35 12 -12 22 -31 23 -42 0 -10 9 -26 18 -35 9
-10 17 -23 17 -30 0 -8 6 -19 14 -26 8 -6 16 -24 18 -38 2 -15 5 -25 8 -22 15
14 66 -42 132 -148 18 -28 36 -52 40 -52 17 0 89 -85 503 -595 87 -107 427
-447 505 -505 55 -41 122 -67 199 -76 40 -5 89 -25 100 -41 3 -5 26 -19 51
-31 67 -33 110 -59 134 -80 38 -35 160 -118 191 -130 17 -6 48 -14 70 -18 36
-6 67 -16 130 -40 25 -9 49 -14 99 -18 39 -3 62 -25 53 -50 -3 -8 7 -28 22
-46 20 -24 36 -33 66 -36 32 -3 48 -13 88 -54 26 -27 51 -50 55 -50 5 0 14 -6
20 -12 17 -18 98 -25 157 -15 17 3 35 1 40 -4 6 -4 59 -11 118 -15 70 -5 111
-12 118 -20 13 -16 39 -19 39 -4 0 5 18 27 41 50 49 48 80 51 114 13 14 -16
34 -38 45 -50 22 -26 62 -30 80 -8 7 8 19 15 26 15 10 0 13 10 10 33 -3 17 -5
32 -6 32 -1 0 -4 12 -6 27 -2 20 3 29 17 33 10 4 19 11 19 16 0 15 29 10 58
-9 104 -71 130 -84 133 -64 7 47 6 69 -6 93 -8 15 -15 44 -15 63 0 26 -6 38
-22 47 -12 6 -36 26 -54 43 -41 40 -121 69 -199 72 -96 5 -139 12 -150 27 -5
7 -18 16 -27 20 -10 3 -62 35 -117 71 -83 55 -327 186 -345 186 -3 0 -41 17
-83 37 -43 20 -81 36 -85 35 -3 -1 -12 5 -18 13 -7 8 -17 15 -22 15 -5 0 -50
22 -99 50 -49 27 -131 73 -181 101 -51 28 -102 59 -113 69 -11 9 -42 30 -70
46 -27 15 -73 45 -101 66 -28 21 -54 38 -58 38 -4 0 -17 9 -29 21 -12 11 -49
40 -82 64 -33 24 -71 54 -85 67 -14 12 -45 38 -70 57 -62 47 -179 166 -220
224 -19 27 -45 58 -57 70 -13 11 -23 24 -23 29 0 4 -29 51 -65 103 -36 52 -65
98 -65 103 0 5 -7 15 -15 22 -8 7 -15 20 -15 28 0 9 -10 27 -23 41 -13 15 -31
46 -41 71 -10 25 -26 64 -37 88 -10 23 -21 61 -25 85 -3 23 -13 60 -21 82 -18
46 -21 298 -4 319 5 6 6 17 2 24 -4 7 1 43 10 81 10 38 16 85 14 105 -2 20 1
38 6 41 4 3 6 12 3 19 -3 7 4 24 15 37 18 22 18 25 4 42 -15 16 -15 19 5 40
15 16 22 36 22 64 0 28 5 43 16 47 8 3 15 16 14 28 -1 13 -1 25 0 28 1 3 3 33
4 67 1 58 4 64 39 94 20 17 37 38 37 45 0 8 16 31 35 53 19 21 35 46 35 56 0
9 15 31 34 49 112 106 141 129 165 135 14 4 27 13 27 19 1 7 2 17 3 22 0 6 10
10 22 10 11 0 47 14 81 30 33 17 71 30 84 30 41 0 72 27 79 69 3 21 19 51 34
68 15 17 36 43 48 58 15 21 29 28 54 29 40 2 59 12 59 31 0 17 39 59 63 68 10
4 17 17 17 32 0 18 5 25 18 25 24 0 46 26 63 73 10 29 18 37 31 34 12 -4 18 1
18 12 0 10 13 33 30 51 16 18 30 37 30 40 0 4 14 5 30 2 23 -3 36 1 50 18 11
13 20 27 20 31 0 14 76 86 97 93 12 4 25 17 29 29 3 12 12 29 19 37 7 8 16 38
20 65 4 28 14 58 22 67 9 10 12 25 8 37 -13 43 -15 71 -4 71 6 0 8 7 5 15 -3
9 5 33 19 54 13 21 21 41 18 44 -3 3 5 23 18 43 13 21 24 47 24 57 1 11 9 25
18 32 10 7 17 17 17 24 0 6 5 11 11 11 7 0 9 10 5 25 -5 18 -2 25 8 25 10 0
13 6 10 15 -4 8 -1 15 4 15 6 0 23 14 39 31 15 17 39 43 53 57 14 15 34 37 44
49 21 25 38 101 25 109 -4 2 -6 11 -3 19 3 8 -6 26 -21 41 -14 14 -24 28 -21
31 2 3 -22 39 -55 80 -32 41 -60 84 -61 96 -1 23 -3 42 -13 123 -5 42 -3 53
11 58 13 5 14 9 4 21 -10 12 -10 15 0 15 9 0 7 7 -5 20 -17 19 -17 20 -1 20 9
0 15 4 12 9 -3 5 3 11 13 14 14 3 18 11 14 26 -3 13 -1 21 7 21 10 0 9 4 -1
16 -11 13 -10 18 8 32 24 20 36 49 23 57 -6 4 -10 18 -10 33 -1 68 -158 205
-350 308 -30 16 -57 32 -60 35 -3 4 -63 35 -135 70 -71 34 -141 71 -155 80
-39 26 -122 69 -134 69 -15 0 -72 47 -66 54 3 3 53 6 110 8 58 1 112 5 120 9
8 4 41 15 74 26 32 10 68 26 79 36 11 9 25 17 30 17 6 0 7 3 4 7 -11 10 26 32
55 33 21 0 26 4 21 17 -5 11 -3 14 6 9 8 -6 26 6 50 33 26 28 45 41 64 41 19
0 25 4 21 15 -5 11 1 15 24 15 25 0 29 3 25 20 -5 17 0 20 26 20 17 0 31 5 31
10 0 6 7 10 16 10 14 0 14 3 4 15 -10 13 -9 15 8 15 12 0 24 4 27 10 3 5 13
10 22 10 19 0 63 45 63 65 0 8 10 21 22 29 12 9 19 16 14 16 -5 0 -3 7 4 15 7
8 21 15 31 15 11 0 19 5 19 10 0 6 7 10 15 10 9 0 25 9 37 20 13 12 36 20 55
20 26 0 33 4 33 20 0 15 7 20 25 20 14 0 25 5 25 10 0 6 -7 10 -15 10 -27 0
-16 19 13 22 19 2 28 9 30 26 2 12 8 22 13 22 6 0 8 9 4 19 -5 15 0 21 24 26
21 4 28 11 24 21 -3 8 2 23 12 34 14 15 15 23 6 33 -9 11 -8 17 3 26 10 8 13
23 9 44 -3 24 1 38 16 54 12 12 20 26 19 30 -1 4 5 22 15 39 9 17 13 34 10 37
-3 4 2 9 11 13 9 3 16 14 16 24 0 21 29 80 39 80 5 0 11 17 14 39 2 21 12 52
20 67 46 87 67 138 62 154 -3 10 -1 21 5 25 5 3 8 17 6 31 -3 13 1 30 8 36 17
18 27 47 32 95 2 23 8 52 13 65 4 13 7 48 5 78 -2 29 1 59 6 65 5 6 5 17 0 25
-6 10 -4 20 7 32 20 23 19 63 -4 148 -6 19 -7 44 -3 55 4 11 4 27 0 35 -9 18
3 113 20 155 7 17 14 57 16 90 2 33 6 78 9 100 3 22 6 88 6 147 -1 64 3 110
10 113 7 5 7 11 -1 20 -11 13 4 63 24 77 6 4 5 17 -4 35 -7 15 -13 42 -13 58
2 73 7 116 15 121 5 3 6 14 3 24 -3 10 -1 21 5 25 5 3 10 33 10 65 0 32 4 61
9 64 5 3 12 34 16 68 8 71 40 172 61 189 8 6 14 27 14 45 0 27 5 37 25 46 32
15 32 30 0 22 -20 -5 -25 -2 -25 12 1 25 31 61 56 66 12 2 18 11 17 23 -2 11
-5 38 -8 60 -4 32 -1 46 15 63 12 12 25 22 29 22 5 0 7 37 5 83 -4 85 21 191
52 228 8 9 11 18 8 21 -10 11 -6 138 5 152 7 8 16 43 22 78 7 49 15 68 36 85
24 20 26 24 14 46 -9 16 -13 73 -14 172 -2 128 -4 148 -20 160 -10 7 -15 19
-11 29 3 9 1 16 -5 16 -32 0 2 89 38 101 6 2 13 18 17 35 5 27 2 34 -25 53
-17 12 -31 31 -31 41 0 13 -15 27 -42 41 -24 12 -56 36 -73 54 -16 18 -46 37
-65 43 -73 22 -138 41 -210 62 -41 12 -96 30 -122 41 -26 10 -55 19 -66 19
-10 0 -22 3 -26 7 -18 18 -243 66 -411 87 -197 26 -541 14 -720 -24 -172 -38
-336 -92 -500 -165 -90 -40 -227 -108 -280 -138 -33 -19 -87 -49 -120 -67
-211 -115 -493 -306 -664 -450 -205 -172 -508 -464 -687 -660 -32 -36 -88 -96
-124 -135 -36 -38 -92 -101 -125 -139 -33 -37 -78 -89 -101 -115 -81 -91 -247
-294 -319 -390 -16 -22 -75 -96 -130 -163 -55 -68 -113 -141 -130 -162 -16
-22 -59 -76 -95 -120 -36 -45 -134 -171 -218 -281 -83 -110 -200 -263 -259
-341 -60 -77 -134 -178 -165 -225 -32 -46 -78 -106 -102 -134 -67 -75 -253
-334 -277 -385 -11 -25 -36 -61 -54 -80 -37 -39 -138 -177 -147 -202 -8 -20
-95 -16 -140 7 -17 8 -41 15 -53 15 -13 0 -28 7 -35 15 -7 8 -16 12 -21 9 -18
-11 -77 8 -82 27 -3 12 -11 17 -20 13 -11 -4 -15 2 -16 18 0 13 -2 39 -4 58
-1 19 0 42 4 50 4 8 10 35 13 60 10 63 13 80 26 125 6 22 12 47 12 55 0 8 5
20 10 27 5 7 7 21 3 33 -3 11 -3 20 2 20 4 0 14 10 22 21 11 19 11 21 -3 16
-22 -9 -20 6 4 28 15 13 17 21 9 31 -8 10 -5 16 10 26 27 16 27 28 1 21 -28
-7 -17 20 16 37 26 14 34 33 9 24 -26 -10 -16 10 14 31 21 13 27 23 20 31 -7
8 -2 18 15 30 18 13 26 30 28 54 1 19 10 45 21 57 10 12 16 27 12 33 -4 6 -1
18 7 27 13 16 38 93 41 129 1 11 8 28 16 37 12 15 11 17 -8 17 -11 0 -21 5
-21 10 0 6 6 10 14 10 19 0 30 31 14 42 -10 6 -9 11 5 19 11 7 16 17 12 29 -3
10 -1 21 5 25 6 3 8 11 4 16 -3 5 0 16 6 24 7 8 9 15 5 15 -4 0 -2 7 5 15 6 8
9 19 6 24 -4 5 -1 13 5 17 8 4 7 9 -2 15 -10 6 -11 11 -3 17 6 4 8 18 5 30 -6
23 -7 23 -23 5 -22 -24 -98 -173 -98 -193 0 -8 -7 -28 -16 -45 -94 -173 -144
-306 -144 -379 0 -14 -4 -26 -9 -26 -8 0 -12 -24 -27 -139 -2 -18 -9 -41 -14
-51 -6 -10 -10 -33 -10 -50 0 -17 -6 -59 -14 -93 -13 -57 -41 -215 -53 -297
-6 -40 -19 -52 -50 -45 -12 3 -24 1 -27 -4 -3 -5 -16 -8 -29 -8 -27 0 -60 36
-62 70 -1 12 -7 98 -14 190 -6 93 -15 176 -20 185 -4 10 -6 23 -4 30 3 7 2 20
-2 30 -4 9 -8 31 -10 47 -3 34 -23 122 -33 145 -3 8 -6 24 -7 35 -3 39 -40
118 -75 160 -14 17 -86 89 -160 162 -103 100 -137 128 -143 117 -10 -18 1 -74
15 -74 6 0 8 -7 4 -15 -4 -10 1 -15 14 -15 22 0 28 -19 8 -21 -7 0 -1 -5 15
-11 31 -11 35 -24 10 -31 -11 -3 -7 -5 10 -6 30 -1 38 -27 10 -34 -11 -3 -7
-5 10 -6 32 -1 37 -21 5 -21 -28 0 -12 -17 21 -22 35 -4 38 -26 4 -31 -23 -3
-22 -4 10 -6 41 -1 55 -30 15 -32 -18 -1 -17 -3 6 -8 35 -7 47 -31 17 -31 -34
0 -24 -18 12 -22 l32 -4 -30 -14 -30 -13 33 -6 c36 -7 44 -24 12 -29 -24 -4
-25 -11 -6 -37 13 -18 18 -18 48 -7 48 17 57 15 29 -8 -13 -11 -19 -20 -15
-20 5 0 0 -7 -10 -15 -27 -20 -1 -19 29 1 25 16 34 7 14 -13 -15 -15 -2 -34
18 -26 28 11 9 -21 -22 -36 -26 -12 -27 -15 -12 -26 10 -7 15 -19 11 -29 -5
-13 0 -16 25 -16 17 0 31 -4 31 -10 0 -5 -4 -10 -9 -10 -7 0 -8 -37 -1 -50 2
-3 4 -12 4 -20 1 -8 9 -14 18 -12 17 3 21 -6 34 -68 3 -19 12 -39 18 -43 8 -6
8 -10 -1 -13 -7 -3 -9 -12 -6 -21 5 -12 3 -14 -8 -8 -8 5 -6 -1 5 -13 14 -16
16 -25 8 -35 -8 -9 -8 -17 -1 -24 11 -11 15 -155 5 -172 -5 -7 -1 -9 8 -5 21
8 20 -6 0 -21 -9 -6 -16 -23 -16 -38 0 -28 -28 -48 -28 -19 -1 16 -1 16 -11
-1 -16 -27 -73 -47 -108 -37 -23 6 -33 4 -45 -8 -8 -10 -32 -25 -53 -36 -21
-10 -45 -22 -53 -26 -12 -6 -23 8 -50 61 -19 38 -39 69 -44 70 -11 0 -243 308
-274 364 -9 16 -27 41 -39 54 -13 14 -23 30 -23 34 0 5 -47 68 -105 142 -58
73 -105 136 -105 139 0 5 -54 80 -165 226 -35 47 -132 175 -215 285 -222 295
-366 483 -419 545 -26 30 -60 73 -76 95 -17 22 -52 67 -78 100 -27 33 -56 69
-64 80 -9 11 -39 47 -68 80 -28 33 -64 78 -81 100 -16 22 -71 88 -121 147 -51
59 -93 111 -93 114 0 3 -24 29 -53 57 -29 29 -181 189 -339 357 -333 355 -528
540 -697 660 -34 25 -78 58 -97 73 -65 55 -345 244 -444 300 -310 176 -477
254 -716 332 -152 50 -216 65 -359 85 -120 16 -444 28 -456 16z"/>
<path d="M1760 12400 c-13 -8 -13 -10 2 -10 9 0 20 5 23 10 8 13 -5 13 -25 0z"/>
<path d="M2195 5460 c3 -5 8 -10 11 -10 2 0 4 5 4 10 0 6 -5 10 -11 10 -5 0
-7 -4 -4 -10z"/>
<path d="M9175 5390 c-3 -5 -1 -10 4 -10 6 0 11 5 11 10 0 6 -2 10 -4 10 -3 0
-8 -4 -11 -10z"/>
<path d="M2735 390 c-3 -5 -1 -10 4 -10 6 0 11 5 11 10 0 6 -2 10 -4 10 -3 0
-8 -4 -11 -10z"/>
<path d="M2470 360 c0 -5 5 -10 11 -10 5 0 7 5 4 10 -3 6 -8 10 -11 10 -2 0
-4 -4 -4 -10z"/>
<path d="M2518 343 c7 -3 16 -2 19 1 4 3 -2 6 -13 5 -11 0 -14 -3 -6 -6z"/>
</g>
</svg>
