<?xml version="1.0" encoding="UTF-8" standalone="no"?>
<svg
   width="1652"
   height="1322.6549"
   viewBox="0 0 1652 1322.6549"
   version="1.1"
   id="svg4"
   xmlns="http://www.w3.org/2000/svg"
   xmlns:svg="http://www.w3.org/2000/svg">
  <defs
     id="defs8" />
  <path
     d="m 726.189,1.3652279 c -0.549,0.981 -0.557,3.239 -0.022,5.623 0.727,3.2340001 0.589,4.2090001 -0.731,5.1740001 -2.789,2.04 -1.424,5.91 2.564,7.271 3.243,1.105 3.303,1.197 0.821,1.25 -2.821,0.059 -5.821,2.347 -5.821,4.439 0,0.682 0.881,2.185 1.958,3.341 1.694,1.819 1.761,2.264 0.5,3.311 -2.265,1.88 -1.765,5.717 0.978,7.515 1.692,1.109 4.287,1.521 8.493,1.349 3.331,-0.135 6.287,-0.016 6.569,0.266 0.282,0.282 -2.729,1.124 -6.69,1.871 -10.008,1.889 -13.246,5.445 -8.706,9.559 1.745,1.58 4.159,1.99 14.171,2.405 13.258,0.549 17.378,2.469 5.472,2.549 -8.785,0.059 -14.256,1.776 -16.48,5.17 -1.611,2.458 -1.576,2.617 1.091,4.911 2.153,1.852 4.001,2.394 8.45,2.479 3.132,0.059 8.394,0.422 11.694,0.807 l 6,0.698 -8.391,0.835 c -8.795,0.874 -12.109,2.625 -12.109,6.396 0,4.772 10.276,7.741 21,6.067 10.371,-1.619 20,-0.163 20,3.024 0,0.381 -2.587,0.51 -5.75,0.288 -8.292,-0.582 -23.157,1.254 -24.99,3.087 -2.206,2.206 -0.88,6.211 2.477,7.481 2.306,0.872 17.472,2.062002 33.488,2.627002 3.644,0.129 6.763,1.926 5.513,3.176 -0.346,0.346 -3.623,0.108 -7.282,-0.529 -8.609,-1.499 -20.184,-0.195 -22.966,2.587 -1.907,1.907 -1.917,5.748 -0.019,7.323 1.559,1.294 32.083,5.285 36.819,4.814 1.642,-0.163 3.18,0.338 3.735,1.216 1.543,2.44 1.114,3.139 -1.175,1.914 -3.29,-1.761 -22.136,-2.458 -25.769,-0.954 -5.124,2.123 -5.158,6.909 -0.067,9.541 3.897,2.015 25.499,4.036 28.505,2.666 1.829,-0.833 2.435,-0.735 2.897,0.469 0.321,0.837 0.584,1.641 0.584,1.788 0,0.146 -4.443,0.052 -9.872,-0.21 -8.981,-0.432 -10.058,-0.29 -11.926,1.578 -1.268,1.268 -1.852,2.823 -1.528,4.063 1.055,4.035 3.99,5.366 15.302,6.942 10.62,1.48 14.699,3.197 7.595,3.197 -3.469,0 -6.571,2.084 -6.571,4.416 0,2.423 3.746,4.648 8.839,5.251 l 5.113,0.606 -2.828,3.613 c -1.555,1.988 -3.457,4.904 -4.226,6.481 -1.212,2.485 -2.796,3.291 -11.898,6.051 -5.775,1.751 -11.551,3.76 -12.836,4.464 -1.284,0.704 -2.534,1.081 -2.777,0.838 -0.243,-0.242 -2.248,-5.548 -4.455,-11.79 -3.65,-10.318 -9.97,-25.585 -13.219,-31.93 -0.707,-1.379 -2.801,-2.996 -4.672,-3.607 -1.992,-0.65 -3.74,-2.051 -4.238,-3.395 -0.465,-1.259 -2.411,-4.421 -4.325,-7.027 -1.913,-2.607 -3.48,-5.354 -3.482,-6.105 -0.008,-2.953 -6.893,-12.113 -19.12,-25.439002 -2.56,-2.791 -5.572,-6.871 -6.692,-9.067 -2.985,-5.85 -4.749,-7.064 -7.131,-4.908 -1.198,1.085 -2.667,1.488 -3.944,1.083 -2.8,-0.889 -6.109,1.093 -6.109,3.659 0,1.239 1.876,3.846 4.5,6.256 2.475,2.272 4.5,4.575 4.5,5.118 0,0.542 1.237,2.342 2.75,4 1.513,1.657002 5.068,5.920002 7.901,9.473002 2.833,3.552 6.321,7.55 7.75,8.883 1.43,1.334 2.599,3.183 2.599,4.111 0,1.63 1.908,4.783 8.292,13.706 2.852,3.987 2.935,4.351 1.371,6.079 -2.653,2.932 -1.97,6.995 2.972,17.68 4.839,10.461 10.732,24.51 11.788,28.102 l 0.618,2.103 -8.77,-1.86 c -4.824,-1.022 -10.796,-2.515 -13.271,-3.317 -11.825,-3.831 -44.96,-11.626 -55.122,-12.968 -6.258,-0.827 -18.353,-2.421 -26.878,-3.543 -8.525,-1.123 -22.025,-2.951 -30,-4.064 -20.395,-2.845 -34.588,-4.733 -41,-5.455 -3.025,-0.34 -18.325,-3.051 -34,-6.025 -27.34,-5.186 -61.171,-10.18 -84.5,-12.472 -6.05,-0.595 -17.3,-1.734 -25,-2.532 -30.617,-3.175 -79.173,-4.519 -109,-3.019 -50.987,2.564 -85.216,7.89 -125.638,19.549 -39.412,11.368 -62.678,21.438 -90.862,39.327 -22.691,14.402 -38.719,25.24 -45.839,30.993 -14.79,11.952 -32.362,30.572 -52.796,55.943 C 1.969,290.42523 0,295.89823 0,308.80823 v 8.438 l 6.055,8.496 c 8.715,12.228 18.672,21.212 33.129,29.891 6.774,4.067 13.891,8.616 15.816,10.109 9.644,7.48 29.655,16.062 51.291,21.998 21.506,5.9 30.362,9.343 52.721,20.498 35.175,17.549 52.233,28.824 86.988,57.501 7.425,6.126 25.2,20.279 39.5,31.451 14.3,11.171 32.093,26.114 39.539,33.206 15.087,14.367 23.415,20.599 35.618,26.651 5.285,2.621 7.954,4.471 7.418,5.143 -2.12,2.661 -11.608,26.797 -13.719,34.902 -2.666,10.23 -2.939,16.883 -0.992,24.147 1.815,6.775 8.035,18.908 12.815,25 4.436,5.653 17.064,17.188 23.821,21.758 2.475,1.674 7.65,5.608 11.5,8.741 9.482,7.717 20.725,14.614 34.5,21.164 20.37,9.686 60.26,34.422 86.438,53.601 10.406,7.624 26.852,15.128 37.062,16.91 10.812,1.888 40.56,1.261 55,-1.158 13.016,-2.181 34,-1.982 44,0.418 12.743,3.057 22.596,7.337 32.481,14.108 10.771,7.377 15.009,12.041 27.028,29.751 17.864,26.323 25.525,49.492 29,87.707 0.6,6.6 1.782,15.79 2.626,20.422 1.033,5.663 1.527,14.507 1.508,27 -0.032,21.805 -1.484,30.415 -8.644,51.26 -2.516,7.32497 -7.035,20.81697 -10.042,29.98297 -3.008,9.166 -7.439,21.316 -9.848,27 -2.409,5.684 -4.69,11.46 -5.068,12.835 -0.379,1.375 -1.972,5.65 -3.542,9.5 -1.569,3.85 -4.869,12.4 -7.334,19 -2.464,6.6 -7.02,18.075 -10.123,25.5 -14.431,34.532 -17.63,49.132 -16.771,76.54 0.488,15.567 -0.47,33.33 -3.351,62.182 -0.781,7.821 -1.416,17.271 -1.412,21 0.016,13.897 6.066,30.425 12.786,34.93 6.285,4.213 30.436,8.062 33.682,5.368 2.488,-2.065 1.765,-6.713 -2.41,-15.501 -3.487,-7.338 -3.856,-8.817 -3.25,-12.999 0.623,-4.295 1.088,-4.943 5.184,-7.213 9.107,-5.047 18.809,-16.689 23.084,-27.699 1.525,-3.926 4.38,-13.525 6.346,-21.331 1.966,-7.806 4.122,-15.449 4.792,-16.985 1.875,-4.301 11.246,-18.689 18.034,-27.69 3.361,-4.456 9.648,-13.5 13.972,-20.098 7.18,-10.956 8.302,-13.385 12.934,-28 2.79,-8.802 7.057,-22.2 9.482,-29.773 7.319,-22.855 11.844,-47.659 13.269,-72.731 0.547,-9.625 1.233,-35.455 1.524,-57.39897 0.291,-21.945 0.761,-40.133 1.046,-40.417 0.284,-0.285 0.75,-0.285 1.034,0 0.285,0.284 0.755,18.472 1.046,40.417 0.291,21.94397 0.977,47.77397 1.524,57.39897 1.458,25.652 5.958,49.944 13.76,74.275 2.685,8.374 6.957,21.767 9.494,29.762 4.117,12.974 5.457,15.824 12.462,26.5 4.317,6.58 10.881,16.013 14.588,20.963 14.638,19.546 17.174,24.516 22.017,43.147 5.383,20.707 8.117,27.601 13.909,35.071 5.816,7.5 10.125,11.509 15.683,14.589 4.096,2.27 4.561,2.918 5.184,7.213 0.606,4.182 0.237,5.661 -3.25,12.999 -4.175,8.788 -4.898,13.436 -2.41,15.501 3.246,2.694 27.397,-1.155 33.682,-5.368 6.72,-4.505 12.77,-21.033 12.786,-34.93 0,-3.729 -0.631,-13.179 -1.412,-21 -2.881,-28.852 -3.839,-46.615 -3.351,-62.182 0.859,-27.408 -2.34,-42.008 -16.771,-76.54 -3.103,-7.425 -7.659,-18.9 -10.123,-25.5 -2.465,-6.6 -5.765,-15.15 -7.334,-19 -1.57,-3.85 -3.163,-8.125 -3.542,-9.5 -0.378,-1.375 -2.659,-7.151 -5.068,-12.835 -2.409,-5.684 -6.84,-17.834 -9.848,-27 -3.007,-9.166 -7.526,-22.658 -10.042,-29.98297 -7.16,-20.845 -8.612,-29.455 -8.644,-51.26 -0.019,-12.493 0.475,-21.337 1.508,-27 0.844,-4.632 2.026,-13.822 2.626,-20.422 3.475,-38.215 11.136,-61.384 29,-87.707 12.019,-17.71 16.257,-22.374 27.028,-29.751 9.885,-6.771 19.738,-11.051 32.481,-14.108 10,-2.4 30.984,-2.599 44,-0.418 14.44,2.419 44.188,3.046 55,1.158 10.21,-1.782 26.656,-9.286 37.062,-16.91 26.178,-19.179 66.068,-43.915 86.438,-53.601 13.775,-6.55 25.018,-13.447 34.5,-21.164 3.85,-3.133 9.025,-7.067 11.5,-8.741 6.757,-4.57 19.385,-16.105 23.821,-21.758 4.78,-6.092 11,-18.225 12.815,-25 1.947,-7.264 1.674,-13.917 -0.992,-24.147 -2.111,-8.105 -11.599,-32.241 -13.719,-34.902 -0.536,-0.672 2.133,-2.522 7.418,-5.143 12.203,-6.052 20.531,-12.284 35.618,-26.651 7.446,-7.092 25.239,-22.035 39.539,-33.206 14.3,-11.172 32.075,-25.325 39.5,-31.451 34.755,-28.677 51.813,-39.952 86.988,-57.501 22.359,-11.155 31.215,-14.598 52.721,-20.498 21.636,-5.936 41.647,-14.518 51.291,-21.998 1.925,-1.493 9.042,-6.042 15.816,-10.109 14.457,-8.679 24.414,-17.663 33.129,-29.891 l 6.055,-8.496 v -8.438 c 0,-12.91 -1.969,-18.383 -10.365,-28.807 -20.434,-25.371 -38.006,-43.991 -52.796,-55.943 -7.12,-5.753 -23.148,-16.591 -45.839,-30.993 -28.184,-17.889 -51.45,-27.959 -90.862,-39.327 -40.422,-11.659 -74.651,-16.985 -125.638,-19.549 -29.827,-1.5 -78.383,-0.156 -109,3.019 -7.7,0.798 -18.95,1.937 -25,2.532 -23.329,2.292 -57.16,7.286 -84.5,12.472 -15.675,2.974 -30.975,5.685 -34,6.025 -6.412,0.722 -20.605,2.61 -41,5.455 -7.975,1.113 -21.475,2.941 -30,4.064 -8.525,1.122 -20.62,2.716 -26.878,3.543 -10.162,1.342 -43.297,9.137 -55.122,12.968 -2.475,0.802 -8.447,2.295 -13.271,3.317 l -8.77,1.86 0.618,-2.103 c 1.056,-3.592 6.949,-17.641 11.788,-28.102 4.942,-10.685 5.625,-14.748 2.972,-17.68 -1.564,-1.728 -1.481,-2.092 1.371,-6.079 6.384,-8.923 8.292,-12.076 8.292,-13.706 0,-0.928 1.169,-2.777 2.599,-4.111 1.429,-1.333 4.917,-5.331 7.75,-8.883 2.833,-3.553 6.388,-7.816 7.901,-9.473002 1.513,-1.658 2.75,-3.458 2.75,-4 0,-0.543 2.025,-2.846 4.5,-5.118 2.624,-2.41 4.5,-5.017 4.5,-6.256 0,-2.566 -3.309,-4.548 -6.109,-3.659 -1.277,0.405 -2.746,0.002 -3.944,-1.083 -2.382,-2.156 -4.146,-0.942 -7.131,4.908 -1.12,2.196 -4.132,6.276 -6.692,9.067 -12.227,13.326002 -19.112,22.486002 -19.12,25.439002 0,0.751 -1.569,3.498 -3.482,6.105 -1.914,2.606 -3.86,5.768 -4.325,7.027 -0.498,1.344 -2.246,2.745 -4.238,3.395 -1.871,0.611 -3.965,2.228 -4.672,3.607 -3.249,6.345 -9.569,21.612 -13.219,31.93 -2.207,6.242 -4.212,11.548 -4.455,11.79 -0.243,0.243 -1.493,-0.134 -2.777,-0.838 -1.285,-0.704 -7.061,-2.713 -12.836,-4.464 -9.102,-2.76 -10.686,-3.566 -11.898,-6.051 -0.769,-1.577 -2.671,-4.493 -4.226,-6.481 l -2.828,-3.613 5.113,-0.606 c 5.093,-0.603 8.839,-2.828 8.839,-5.251 0,-2.332 -3.102,-4.416 -6.571,-4.416 -7.104,0 -3.025,-1.717 7.595,-3.197 11.312,-1.576 14.247,-2.907 15.302,-6.942 0.324,-1.24 -0.26,-2.795 -1.528,-4.063 -1.868,-1.868 -2.945,-2.01 -11.926,-1.578 -5.429,0.262 -9.872,0.356 -9.872,0.21 0,-0.147 0.263,-0.951 0.584,-1.788 0.462,-1.204 1.068,-1.302 2.897,-0.469 3.026,1.379 24.62,-0.657 28.555,-2.692 5.067,-2.62 4.989,-7.4 -0.156,-9.531 -3.595,-1.489 -22.464,-0.778 -25.73,0.97 -2.289,1.225 -2.718,0.526 -1.175,-1.914 0.555,-0.878 2.093,-1.379 3.735,-1.216 4.736,0.471 35.26,-3.52 36.819,-4.814 1.898,-1.575 1.888,-5.416 -0.019,-7.323 -2.782,-2.782 -14.357,-4.086 -22.966,-2.587 -3.659,0.637 -6.936,0.875 -7.282,0.529 -1.25,-1.25 1.869,-3.047 5.513,-3.176 16.016,-0.565 31.182,-1.755002 33.488,-2.627002 3.357,-1.27 4.683,-5.275 2.477,-7.481 -1.833,-1.833 -16.698,-3.669 -24.99,-3.087 -3.162,0.222 -5.75,0.093 -5.75,-0.288 0,-3.187 9.629,-4.643 20,-3.024 10.724,1.674 21,-1.295 21,-6.067 0,-3.771 -3.314,-5.522 -12.109,-6.396 l -8.391,-0.835 6,-0.698 c 3.3,-0.385 8.562,-0.748 11.694,-0.807 4.449,-0.085 6.297,-0.627 8.45,-2.479 2.667,-2.294 2.702,-2.453 1.091,-4.911 -2.224,-3.394 -7.695,-5.111 -16.48,-5.17 -11.906,-0.08 -7.786,-2 5.472,-2.549 10.012,-0.415 12.426,-0.825 14.171,-2.405 4.54,-4.114 1.302,-7.67 -8.706,-9.559 -3.961,-0.747 -6.972,-1.589 -6.69,-1.871 0.282,-0.282 3.238,-0.401 6.569,-0.266 4.206,0.172 6.801,-0.24 8.493,-1.349 2.743,-1.798 3.243,-5.635 0.978,-7.515 -1.261,-1.047 -1.194,-1.492 0.5,-3.311 1.077,-1.156 1.958,-2.659 1.958,-3.341 0,-2.092 -3,-4.38 -5.821,-4.439 -2.482,-0.053 -2.422,-0.145 0.821,-1.25 3.988,-1.361 5.353,-5.231 2.564,-7.271 -1.33,-0.972 -1.459,-1.934 -0.709,-5.2710001 0.662,-2.947 0.568,-4.558 -0.336,-5.795 -1.161,-1.58800002 -1.431,-1.53500002 -3.674,0.715 -1.418,1.422 -3.309,2.299 -4.565,2.117 -3.107,-0.45 -4.627,3.012 -3.785,8.6230001 0.609,4.065 0.512,4.438 -0.86,3.3 -0.851,-0.706 -2.017,-0.994 -2.591,-0.639 -1.271,0.786 -1.342,4.508 -0.122,6.435 0.914,1.444 -0.59,6.092 -1.971,6.092 -0.401,0 -1.009,-1.497 -1.352,-3.326 -0.344,-1.83 -1.285,-4.192 -2.093,-5.25 -1.272,-1.667 -1.602,-1.723 -2.472,-0.424 -1.407,2.103 -1.199,9.791 0.385,14.23 1.039,2.911 1.069,4.088 0.136,5.364 -1.031,1.41 -1.439,0.998 -2.959,-2.981 -1.893,-4.957 -5.909,-7.307 -7.688,-4.498 -1.443,2.278 -1.034,12.74 0.622,15.944 1.16,2.242 1.269,3.448 0.45,4.978 -1.137,2.124 -2.98,1.803 -2.98,-0.519 0,-2.099 -4.966,-7.518 -6.889,-7.518 -4.507,0 -5.219,4.774 -2.096,14.044 1.881,5.583 1.906,6.147 0.385,8.469 -0.897,1.368 -1.794,2.487 -1.995,2.487 -0.2,0 -1.267,-1.77 -2.371,-3.934 -2.276,-4.461 -5.465,-7.066 -8.65,-7.066 -4.17,0 -4.075,5.999 0.25,15.857 l 2.35,5.356 -2.122,2.98 -2.122,2.981 -1.483,-3.064 c -3.731,-7.703 -10.302,-10.753 -12.231,-5.678 -1.094,2.876 -0.259,6.201 3.335,13.294 3.055,6.029 3.091,6.274 1.269,8.766 -1.3,1.777002 -1.534,1.687 -4.562,-1.761 -3.971,-4.523 -6.445,-5.369 -9.617,-3.291 -3.819,2.502 -2.828,7.233002 3.203,15.290002 2.297,3.069 2.339,3.382 0.854,6.254 l -1.563,3.023 -3.076,-3.504 c -4.515,-5.141 -10.869,-4.556 -10.869,1.001 0,2.366 4.646,10.066 7.705,12.771 1.365,1.206 1.853,2.587 1.524,4.309 l -0.485,2.534 -2.991,-3.059 c -3.194,-3.267 -4.745,-3.669 -7.819,-2.024 -3.583,1.918 -1.807,7.903 3.977,13.402 3.549,3.374 3.979,4.98 1.089,4.063 -2.9,-0.92 -6.006,0.349 -6.947,2.838 -0.976,2.582 0.196,5.112 3.81,8.222 1.45,1.248 2.335,2.573 1.965,2.943 -0.875,0.878 -14.781,0.878 -15.656,0 -0.37,-0.37 0.515,-1.695 1.965,-2.943 3.614,-3.11 4.786,-5.64 3.81,-8.222 -0.941,-2.489 -4.047,-3.758 -6.947,-2.838 -2.89,0.917 -2.46,-0.689 1.089,-4.063 5.784,-5.499 7.56,-11.484 3.977,-13.402 -3.074,-1.645 -4.625,-1.243 -7.819,2.024 l -2.991,3.059 -0.485,-2.534 c -0.329,-1.722 0.159,-3.103 1.524,-4.309 3.059,-2.705 7.705,-10.405 7.705,-12.771 0,-5.557 -6.354,-6.142 -10.869,-1.001 l -3.076,3.504 -1.563,-3.023 c -1.485,-2.872 -1.443,-3.185 0.854,-6.254 6.031,-8.057 7.022,-12.788002 3.203,-15.290002 -3.172,-2.078 -5.646,-1.232 -9.617,3.291 -3.028,3.448 -3.262,3.538002 -4.562,1.761 -1.822,-2.492 -1.786,-2.737 1.269,-8.766 3.594,-7.093 4.429,-10.418 3.335,-13.294 -1.929,-5.075 -8.5,-2.025 -12.231,5.678 l -1.483,3.064 -2.122,-2.981 -2.122,-2.98 2.35,-5.356 c 4.325,-9.858 4.42,-15.857 0.25,-15.857 -3.185,0 -6.374,2.605 -8.65,7.066 -1.104,2.164 -2.171,3.934 -2.371,3.934 -0.201,0 -1.098,-1.119 -1.995,-2.487 -1.521,-2.322 -1.496,-2.886 0.385,-8.469 3.123,-9.27 2.411,-14.044 -2.096,-14.044 -1.923,0 -6.889,5.419 -6.889,7.518 0,2.322 -1.843,2.643 -2.98,0.519 -0.819,-1.53 -0.71,-2.736 0.45,-4.978 1.656,-3.204 2.065,-13.666 0.622,-15.944 -1.779,-2.809 -5.795,-0.459 -7.688,4.498 -1.52,3.979 -1.928,4.391 -2.959,2.981 -0.933,-1.276 -0.903,-2.453 0.136,-5.364 1.584,-4.439 1.792,-12.127 0.385,-14.23 -0.87,-1.299 -1.2,-1.243 -2.472,0.424 -0.808,1.058 -1.749,3.42 -2.093,5.25 -0.343,1.829 -0.951,3.326 -1.352,3.326 -1.381,0 -2.885,-4.648 -1.971,-6.092 1.22,-1.927 1.149,-5.649 -0.122,-6.435 -0.574,-0.355 -1.74,-0.067 -2.591,0.639 -1.372,1.138 -1.469,0.765 -0.86,-3.3 0.879,-5.8610001 -0.697,-9.2000001 -4.043,-8.5600001 -1.367,0.261 -2.57,-0.09 -2.855,-0.835 -0.272,-0.707 -1.395,-1.769 -2.497,-2.35800002 -1.579,-0.845 -2.197,-0.725 -2.921,0.56700002"
     stroke="none"
     fill="#000000"
     fill-rule="evenodd"
     id="path2" />
</svg>
