<?xml version="1.0" standalone="no"?>
<!DOCTYPE svg PUBLIC "-//W3C//DTD SVG 20010904//EN"
 "http://www.w3.org/TR/2001/REC-SVG-20010904/DTD/svg10.dtd">
<svg version="1.0" xmlns="http://www.w3.org/2000/svg"
 width="1187.000000pt" height="605.000000pt" viewBox="0 0 1187.000000 605.000000"
 preserveAspectRatio="xMidYMid meet">
<metadata>
Created by potrace 1.16, written by Peter Selinger 2001-2019
</metadata>
<g transform="translate(0.000000,605.000000) scale(0.100000,-0.100000)"
fill="#000000" stroke="none">
<path d="M10695 6039 c-178 -8 -368 -37 -490 -75 -44 -14 -138 -36 -210 -49
-76 -14 -169 -39 -225 -61 -52 -20 -122 -44 -155 -54 -33 -10 -96 -32 -140
-50 -109 -43 -208 -76 -285 -95 -36 -9 -97 -34 -137 -56 -39 -21 -95 -48 -123
-59 -28 -11 -75 -35 -103 -53 -29 -19 -64 -37 -80 -41 -15 -3 -73 -36 -129
-72 -56 -36 -136 -80 -177 -96 -42 -17 -109 -46 -149 -64 -40 -19 -76 -34 -80
-34 -4 0 -25 -13 -48 -28 -295 -197 -297 -198 -382 -230 -28 -11 -81 -40 -119
-65 -37 -24 -99 -61 -138 -81 -83 -44 -218 -128 -335 -209 -46 -33 -105 -70
-131 -83 -26 -13 -60 -40 -75 -59 -14 -19 -52 -49 -83 -66 -32 -16 -78 -47
-104 -68 -26 -22 -83 -60 -127 -86 -49 -29 -86 -58 -95 -75 -14 -27 -70 -80
-84 -80 -4 0 -13 11 -19 25 -8 17 -20 25 -37 25 -23 0 -25 2 -14 21 24 46 -8
243 -50 299 -27 38 -65 38 -92 1 -13 -17 -31 -31 -42 -31 -17 0 -18 2 -6 16
22 26 17 148 -9 232 l-23 74 26 34 c14 19 58 60 98 91 77 62 255 183 268 183
5 0 41 15 81 34 191 89 484 147 906 177 163 11 358 9 393 -6 17 -6 15 -55 -2
-55 -11 0 -42 -60 -35 -67 9 -9 86 79 93 105 8 31 -1 37 -75 56 -50 13 -118
16 -314 16 -240 0 -300 -4 -538 -36 -341 -46 -528 -117 -723 -275 -18 -14 -54
-38 -80 -53 -26 -15 -73 -52 -102 -82 -30 -30 -55 -48 -55 -41 0 8 -11 19 -25
25 -20 9 -25 19 -25 50 0 21 -5 43 -11 49 -8 8 -6 21 6 47 10 20 14 43 11 52
-7 18 -26 10 -26 -12 0 -22 -14 -17 -55 21 -21 19 -54 40 -73 46 -32 11 -37 9
-53 -12 l-19 -24 -6 23 c-4 12 -13 22 -20 22 -33 0 -86 -31 -102 -60 -19 -33
-32 -39 -32 -14 0 9 -7 14 -17 12 -19 -4 -19 -12 -7 -85 8 -53 -2 -113 -21
-113 -7 0 -22 -11 -32 -25 l-18 -24 -133 90 c-185 125 -285 172 -481 225 -31
9 -90 25 -131 36 -65 18 -111 22 -357 25 -263 4 -287 3 -364 -17 -45 -11 -121
-25 -168 -30 -77 -7 -197 -23 -288 -36 -18 -3 -33 -9 -33 -14 0 -17 -15 -11
-80 31 -35 22 -100 54 -144 70 -44 17 -114 49 -156 71 -117 63 -390 200 -471
235 -177 76 -389 162 -454 183 -38 13 -83 30 -100 38 -28 14 -130 47 -380 120
-120 35 -274 72 -300 72 -11 0 -49 6 -85 14 -147 33 -340 48 -535 43 -366 -9
-461 -27 -720 -137 -88 -37 -96 -43 -167 -123 -76 -84 -74 -76 -35 -142 76
-128 133 -211 186 -272 71 -81 100 -118 109 -144 22 -57 381 -462 460 -519 19
-14 89 -78 154 -142 108 -106 206 -181 349 -267 49 -28 61 -45 68 -89 6 -35
10 -38 66 -59 33 -12 74 -22 91 -22 34 -1 54 -17 54 -42 0 -18 61 -86 98 -109
19 -12 25 -25 27 -62 4 -65 86 -198 122 -198 8 0 24 -6 36 -14 55 -35 116 -39
237 -17 63 12 158 26 210 31 52 5 115 14 140 20 25 6 79 14 120 19 41 6 99 15
128 21 58 12 335 8 417 -7 l50 -8 -34 -13 c-19 -6 -43 -12 -54 -12 -11 0 -28
-6 -36 -14 -23 -20 -159 -74 -206 -82 -64 -10 -173 -62 -270 -127 -116 -77
-137 -97 -175 -168 -17 -32 -44 -72 -60 -88 -47 -46 -38 -124 15 -133 13 -2
31 -24 50 -62 17 -32 41 -66 55 -74 14 -9 44 -31 67 -49 23 -18 48 -33 57 -33
8 0 29 -20 47 -45 34 -47 34 -48 119 -65 59 -12 86 -29 114 -73 16 -24 24 -27
76 -27 64 0 125 -22 195 -69 43 -29 113 -43 274 -54 41 -3 59 -10 72 -26 14
-18 28 -21 86 -21 90 -1 349 -26 393 -39 19 -5 57 -17 84 -25 58 -19 158 -21
189 -5 12 7 55 16 97 20 41 5 138 15 215 24 77 8 165 15 195 15 77 0 157 41
247 127 61 57 82 87 134 188 67 131 119 203 200 280 29 28 48 43 42 35 -19
-25 -10 -89 15 -115 16 -17 23 -37 25 -76 2 -45 6 -55 25 -65 25 -12 44 -46
91 -167 17 -43 38 -88 46 -100 8 -12 15 -28 15 -35 0 -8 9 -25 20 -39 15 -19
20 -41 20 -85 0 -57 33 -146 60 -163 5 -3 7 -17 4 -29 -3 -14 3 -44 16 -73 16
-39 19 -55 11 -76 -8 -19 -7 -40 4 -74 26 -90 48 -188 52 -238 3 -38 15 -66
50 -119 l46 -70 -9 -85 c-13 -137 -9 -212 16 -269 17 -40 21 -61 15 -94 -4
-24 -8 -79 -9 -123 -1 -60 -6 -87 -20 -108 -13 -19 -16 -35 -12 -55 4 -15 11
-47 15 -72 4 -25 13 -56 20 -69 8 -15 11 -40 7 -70 -3 -25 -7 -53 -7 -61 -4
-38 25 -169 46 -211 12 -25 26 -66 30 -90 8 -47 37 -112 64 -143 20 -23 84
-56 109 -56 28 0 107 64 120 97 15 38 38 127 63 248 12 55 26 109 32 120 6 11
10 49 8 84 -1 44 3 71 14 88 13 20 15 50 12 186 -3 89 -8 178 -12 198 -5 27
-1 50 18 95 27 62 28 114 11 310 -5 49 -1 76 19 135 21 63 25 94 26 213 1 77
4 143 7 148 17 27 34 202 28 293 -5 88 2 180 22 308 4 27 1 51 -12 78 l-17 40
32 30 c26 24 32 36 30 63 -2 19 2 40 8 48 7 8 8 19 3 28 -6 10 -4 20 7 32 10
11 13 26 9 43 -4 14 -2 25 4 25 5 0 10 7 10 15 0 8 5 15 10 15 6 0 10 10 10
23 1 20 1 21 11 4 10 -17 11 -17 23 -1 12 15 17 11 55 -39 23 -30 52 -62 65
-70 23 -16 72 -81 157 -210 28 -42 62 -85 76 -95 14 -9 37 -28 51 -40 40 -38
111 -64 172 -65 40 0 58 -4 67 -17 10 -14 38 -18 186 -24 96 -4 194 -13 219
-20 51 -16 170 -6 248 20 113 38 153 44 314 44 161 0 165 0 219 29 47 25 68
29 158 33 87 3 114 9 162 31 33 15 80 33 105 39 125 29 160 43 218 83 35 24
79 47 97 50 49 11 96 42 157 104 30 31 80 79 111 108 56 52 129 142 129 160 0
16 -75 158 -107 202 -52 73 -339 238 -468 270 -27 7 -100 32 -162 57 -62 24
-127 44 -145 44 -40 1 -91 26 -68 33 8 3 47 8 87 11 40 2 80 9 90 15 39 20
184 31 427 31 192 0 263 -3 293 -14 75 -27 246 -56 325 -56 64 0 88 5 128 25
27 14 57 25 66 25 21 0 97 77 119 119 13 25 13 38 3 75 -12 47 -2 76 27 76 19
0 75 67 75 89 0 29 19 38 98 45 88 8 109 18 127 59 17 40 55 77 122 116 116
67 289 208 439 356 72 72 160 154 195 184 58 48 179 184 179 200 0 4 19 30 43
59 60 73 119 151 142 188 11 17 40 47 64 65 29 22 48 45 53 66 5 20 18 37 36
45 21 10 28 21 30 50 2 21 13 47 28 63 13 14 24 30 24 34 0 5 7 14 15 21 26
22 17 46 -42 107 -49 49 -188 143 -213 143 -4 0 -13 7 -20 15 -14 16 -235 88
-325 105 -224 42 -255 43 -560 29z m-5935 -973 c251 -41 533 -147 670 -252 47
-36 102 -77 122 -92 37 -27 37 -27 38 -101 0 -57 -5 -86 -22 -119 -18 -39 -20
-49 -9 -78 16 -43 8 -54 -32 -47 -21 3 -37 0 -43 -9 -19 -24 -62 -112 -68
-140 -5 -21 -13 -27 -39 -30 -30 -3 -32 -5 -31 -43 0 -22 4 -61 9 -87 5 -32 4
-48 -3 -48 -5 0 -34 25 -63 55 -29 30 -84 76 -122 102 -38 27 -88 62 -111 78
-94 66 -228 152 -322 206 -16 10 -89 53 -163 98 -74 45 -136 81 -137 81 -2 0
-36 20 -77 43 -40 24 -106 56 -145 71 -40 15 -75 32 -78 37 -5 9 -63 38 -349
175 l-90 43 50 0 c28 1 88 7 135 16 47 8 139 20 205 26 66 6 149 17 185 24 83
15 377 10 490 -9z"/>
</g>
</svg>
