<?xml version="1.0" encoding="UTF-8" standalone="no"?>
<svg
   width="1482.8817"
   height="1317.748"
   viewBox="0 0 1482.8817 1317.748"
   version="1.1"
   id="svg4"
   xmlns="http://www.w3.org/2000/svg"
   xmlns:svg="http://www.w3.org/2000/svg">
  <defs
     id="defs8" />
  <path
     d="m 366.09923,0.44209769 c -6.469,2.31200001 -5.392,14.10300031 3.454,37.80600031 4.982,13.346 8.03,18.863 17.962,32.5 4.606,6.325 11.395,15.871 15.087,21.214 4.864,7.038 10.608,13.380002 20.855,23.022002 17.708,16.663 32.182,29.234 40.821,35.455 37.457,26.971 51.77,39.271 75.14,64.574 11.754,12.726 29.108,28.515 42.931,39.06 4.812,3.671 12.644,9.655 17.402,13.298 4.759,3.643 15.59,12.388 24.068,19.434 20.421,16.969 38.99,30.886 54.28,40.68 13.048,8.357 15.606,11.392 10.651,12.636 -6.739,1.691 -18.731,21.303 -20.635,33.748 -1.084,7.082 -0.439,15.496 1.362,17.77 0.871,1.101 -0.693,3.086 -7.483,9.5 -13.925,13.153 -19.499,20.841 -18.55,25.586 0.882,4.409 -1.87,11.484 -7.212,18.54 -6.434,8.5 -13.599,22.505 -15.051,29.421 -0.853,4.062 -3.56,9.171 -10.709,20.206 -8.223,12.696 -10.782,15.811 -18.22,22.185 -11.058,9.476 -17.251,15.073 -47.768,43.171 -28.401,26.149 -46.602,42.559 -92.885,83.746 -8.8,7.832 -33.229,31.442 -54.287,52.468 -21.057,21.026 -44.007,43.307 -51,49.514 -22.273,19.773 -53.366,46.061 -74.213,62.746 -5.775,4.623 -14.325,11.829 -19,16.015 -4.675,4.186 -11.65,10.21 -15.5,13.387 -29.161,24.061 -78.666,77.744 -112.621,122.124 -3.787,4.95 -9.835,12.6 -13.44,17 -13.236,16.157 -36.779,52.049 -55.428,84.5 -9.192,15.996 -28.739,55.761 -33.673,68.5 -4.301,11.108 -7.845,22.277 -13.6420003,43 -7.92499996,28.326 -8.91999996,34.312 -8.78399996,52.826 0.195,26.463 4.98499996,39.19 19.79000026,52.574 9.865,8.919 10.994,9.064 27.893,3.586 15.761,-5.108 24.382,-7.016 35.905,-7.946 21.885,-1.766 42.26,-5.869 57,-11.478 8.99,-3.42 13.285,-4.431 23.5,-5.532 16.984,-1.831 35.671,-5.91 45.964,-10.033 4.695,-1.881 11.461,-4.521 15.036,-5.868 3.575,-1.347 10.775,-4.22 16,-6.385 5.225,-2.165 14.45,-5.391 20.5,-7.169 14.666,-4.311 26.265,-9.456 34.896,-15.478 20.831,-14.535 24.5,-16.799 29.604,-18.268 8.289,-2.385 20.826,-7.679 37.5,-15.834 15.064,-7.368 25.701,-14.48 43.876,-29.337 4.816,-3.937 9.455,-7.158 10.308,-7.158 2.807,0 19.544,-8.071 28.797,-13.886 11.526,-7.244 19.808,-13.643 29.966,-23.152 4.429,-4.146 11.428,-10.077 15.553,-13.181 8.904,-6.699 22.95,-20.395 27.093,-26.417 4.751,-6.905 7.611,-13.317 9.751,-21.864 2.386,-9.527 7.408,-36.64 9.622,-51.946 1.741,-12.04 6.954,-35.602 8.526,-38.539 1.272,-2.376 6.018,-4.797 13.008,-6.634 3.025,-0.795 6.288,-1.687 7.25,-1.981 1.357,-0.415 1.75,0.053 1.75,2.078 0,1.454 1.109,3.722 2.5,5.113 2.866,2.866 3.4,8.417 1,10.409 -0.825,0.685 -1.5,2.324 -1.5,3.644 0,1.319 -1.215,4.235 -2.7,6.479 -3.969,5.998 -3.674,10.351 0.977,14.371 3.447,2.979 3.616,3.392 2.7,6.586 -1.889,6.588 -1.255,10.858 2.075,13.968 2.889,2.699 2.976,3.001 1.64,5.652 -3.611,7.164 -2.733,12.703 2.316,14.609 1.957,0.739 2.829,1.656 2.527,2.659 -2.648,8.79 -2.503,14.697 0.403,16.494 0.584,0.361 1.062,2.403 1.062,4.538 0,2.135 0.348,4.097 0.773,4.36 0.425,0.262 0.607,4.676 0.404,9.809 -0.528,13.352 -0.423,15.985 0.68,17.088 0.538,0.538 0.739,2.457 0.446,4.264 -0.429,2.641 -0.118,3.508 1.582,4.417 1.518,0.813 2.115,2.094 2.115,4.54 0,2.327 0.665,3.875 2.096,4.876 l 2.095,1.468 -2.08,2.839 c -2.58,3.521 -1.868,7.111 1.582,7.977 1.747,0.438 2.145,0.924 1.38,1.689 -1.461,1.461 -1.355,5.991 0.177,7.523 0.688,0.687 1.278,2.991 1.312,5.12 0.075,4.771 1.45,6.496 7.702,9.664 3.95,2.002 4.667,2.744 3.736,3.866 -1.678,2.021 -0.826,5.788 1.578,6.981 1.143,0.568 2.862,1.816 3.82,2.774 0.958,0.958 2.948,2.016 4.422,2.35 1.474,0.335 4.536,1.473 6.805,2.53 3.283,1.53 4.474,2.836 5.833,6.395 1.994,5.22 4.744,7.47 9.13,7.47 1.728,0 4.286,0.9 5.685,2 1.398,1.1 2.986,2 3.528,2 1.329,0 2.198,2.494 2.205,6.332 0.008,4.885 1.934,10.828 4.692,14.482 1.395,1.848 2.265,4.06 1.967,5 -0.293,0.927 -1.744,4.836 -3.222,8.686 -2.488,6.477 -2.716,8.344 -3.053,25 -0.349,17.234 -0.256,18.298 2.171,25 1.395,3.85 3.218,9.122 4.052,11.716 0.835,2.594 2.775,5.774 4.311,7.067 1.632,1.373 3.533,4.608 4.572,7.784 3.484,10.644 7.802,16.933 11.626,16.933 0.96,0 3.013,1.874 4.562,4.164 2.97,4.392 11.121,9.654 15.132,9.77 1.273,0.036 3.223,-0.42 4.333,-1.014 1.576,-0.843 2.427,-0.709 3.887,0.613 1.029,0.931 3.251,1.801 4.938,1.933 1.687,0.133 3.358,0.533 3.713,0.888 0.356,0.355 2.077,0.646 3.825,0.646 3.572,0 5.998,-2.161 7.018,-6.25 0.555,-2.221 1.253,-2.75 3.626,-2.75 1.902,0 3.814,-0.944 5.418,-2.674 1.897,-2.047 2.753,-2.399 3.652,-1.5 0.646,0.646 2.794,1.174 4.774,1.174 1.98,0 4.128,-0.528 4.774,-1.174 0.899,-0.899 1.755,-0.547 3.652,1.5 1.604,1.73 3.516,2.674 5.418,2.674 2.373,0 3.071,0.529 3.626,2.75 1.02,4.089 3.446,6.25 7.018,6.25 1.748,0 3.469,-0.291 3.825,-0.646 0.355,-0.355 2.026,-0.755 3.713,-0.888 1.687,-0.132 3.909,-1.002 4.938,-1.933 1.46,-1.322 2.311,-1.456 3.887,-0.613 1.11,0.594 3.06,1.05 4.333,1.014 4.011,-0.116 12.162,-5.378 15.132,-9.77 1.549,-2.29 3.602,-4.164 4.562,-4.164 3.824,0 8.142,-6.289 11.626,-16.933 1.039,-3.176 2.94,-6.411 4.572,-7.784 1.536,-1.293 3.477,-4.473 4.312,-7.067 0.835,-2.594 2.68,-7.991 4.099,-11.995 2.479,-6.993 2.565,-7.973 2.18,-25 -0.407,-18.063 -0.682,-19.595 -5.717,-31.823 -1.17,-2.843 -1.051,-3.399 1.414,-6.631 2.403,-3.15 3.122,-5.541 5.226,-17.368 0.502,-2.824 7.298,-7.399 10.991,-7.399 4.22,0 6.99,-2.309 8.961,-7.47 1.359,-3.559 2.55,-4.865 5.833,-6.395 2.269,-1.057 5.331,-2.195 6.805,-2.53 1.474,-0.334 3.464,-1.392 4.422,-2.35 0.958,-0.958 2.677,-2.206 3.82,-2.774 2.404,-1.193 3.256,-4.96 1.578,-6.981 -0.931,-1.122 -0.214,-1.864 3.736,-3.866 6.252,-3.168 7.627,-4.893 7.702,-9.664 0.034,-2.129 0.625,-4.433 1.312,-5.12 1.532,-1.532 1.638,-6.062 0.177,-7.523 -0.765,-0.765 -0.367,-1.251 1.38,-1.689 3.45,-0.866 4.162,-4.456 1.582,-7.977 l -2.08,-2.839 2.095,-1.468 c 1.431,-1.001 2.096,-2.549 2.096,-4.876 0,-2.446 0.597,-3.727 2.115,-4.54 1.7,-0.909 2.011,-1.776 1.582,-4.417 -0.293,-1.807 -0.092,-3.726 0.446,-4.264 1.103,-1.103 1.208,-3.736 0.68,-17.088 -0.203,-5.133 -0.021,-9.547 0.404,-9.809 0.425,-0.263 0.773,-2.225 0.773,-4.36 0,-2.135 0.478,-4.177 1.062,-4.538 2.906,-1.797 3.051,-7.704 0.403,-16.494 -0.302,-1.003 0.57,-1.92 2.527,-2.659 5.049,-1.906 5.927,-7.445 2.316,-14.609 -1.336,-2.651 -1.249,-2.953 1.64,-5.652 3.33,-3.11 3.964,-7.38 2.075,-13.968 -0.916,-3.194 -0.747,-3.607 2.7,-6.586 4.651,-4.02 4.946,-8.373 0.977,-14.371 -1.485,-2.244 -2.7,-5.16 -2.7,-6.479 0,-1.32 -0.675,-2.959 -1.5,-3.644 -2.4,-1.992 -1.866,-7.543 1,-10.409 1.391,-1.391 2.5,-3.659 2.5,-5.113 0,-2.025 0.393,-2.493 1.75,-2.078 0.963,0.294 4.225,1.186 7.25,1.981 6.896,1.813 11.733,4.252 12.954,6.532 1.55,2.897 6.74,25.793 8.519,37.587 2.734,18.116 7.549,44.468 9.684,53 2.139,8.546 4.998,14.957 9.75,21.864 4.143,6.022 18.189,19.718 27.093,26.417 4.125,3.104 11.12397,9.035 15.55297,13.181 10.158,9.509 18.44,15.908 29.966,23.152 9.253,5.815 25.99,13.886 28.797,13.886 0.853,0 5.492,3.221 10.308,7.158 18.175,14.857 28.812,21.969 43.876,29.337 16.674,8.155 29.211,13.449 37.5,15.834 5.104,1.469 8.773,3.733 29.604,18.268 8.631,6.022 20.23,11.167 34.896,15.478 6.05,1.778 15.275,5.004 20.5,7.169 5.225,2.165 12.425,5.038 16,6.385 3.575,1.347 10.341,3.987 15.036,5.868 10.293,4.123 28.98,8.202 45.964,10.033 10.215,1.101 14.51,2.112 23.5,5.532 14.74,5.609 35.115,9.712 57,11.478 11.523,0.93 20.144,2.838 35.905,7.946 16.899,5.478 18.028,5.333 27.893,-3.586 13.33,-12.051 18.562,-24.049 20.235,-46.4 1.167,-15.589 -1.688,-33.208 -10.099,-62.322 -9.831,-34.034 -12.5,-40.979 -27.729,-72.178 -20.219,-41.423 -52.307,-93.653 -73.721,-120 -3.353,-4.125 -9.394,-11.775 -13.425,-17 -35.896,-46.528 -83.79,-98.474 -113.059,-122.624 -3.85,-3.177 -10.825,-9.201 -15.5,-13.387 -4.675,-4.186 -13.225,-11.392 -19,-16.015 -20.847,-16.685 -51.94,-42.973 -74.213,-62.746 -6.993,-6.207 -29.943,-28.488 -51,-49.514 -21.058,-21.026 -45.487,-44.636 -54.287,-52.468 -46.28297,-41.187 -64.48397,-57.597 -92.88497,-83.746 -30.517,-28.098 -36.71,-33.695 -47.768,-43.171 -7.438,-6.374 -9.997,-9.489 -18.22,-22.185 -7.112,-10.977 -9.864,-16.165 -10.724,-20.206 -1.55,-7.292 -7.896,-19.808 -14.573,-28.741 -5.788,-7.745 -8.575,-14.724 -7.675,-19.22 0.943,-4.719 -4.584,-12.373 -18.4,-25.477 -8.4,-7.968 -8.428,-8.011 -6.975,-10.775 1.955,-3.72 1.513,-16.822 -0.803,-23.795 -3.621,-10.902 -13.988,-25.267 -19.173,-26.569 -4.906,-1.231 -2.312,-4.292 10.696,-12.624 15.29,-9.794 33.859,-23.711 54.28,-40.68 8.478,-7.046 19.309,-15.791 24.068,-19.434 4.758,-3.643 12.59,-9.627 17.402,-13.298 13.823,-10.545 31.177,-26.334 42.931,-39.06 23.37,-25.303 37.683,-37.603 75.13997,-64.574 8.639,-6.221 23.113,-18.792 40.821,-35.455 10.247,-9.642 15.991,-15.984002 20.855,-23.022002 3.692,-5.343 10.481,-14.889 15.087,-21.214 9.932,-13.637 12.98,-19.154 17.962,-32.5 5.446,-14.594 7.454,-22.285 7.454,-28.5560003 0,-6.193 -1.257,-8.536 -5.071,-9.45300001 -5.277,-1.26899999 -26.08,18.92400031 -43.974,42.68300031 -8.522,11.315 -25.378,31.758 -41.568,50.414 -4.338,4.999 -11.712,13.507002 -16.387,18.906002 -50.18197,57.961 -102.12097,110.53 -157.37797,159.289 -16.081,14.19 -39.342,32.18 -58.302,45.089 l -9.18,6.251 -3.406,-3.717 c -1.874,-2.044 -4.342,-3.785 -5.487,-3.869 -1.144,-0.085 -2.787,-0.74 -3.651,-1.457 -0.863,-0.717 -2.603,-1.044 -3.865,-0.727 -1.619,0.406 -2.656,-0.003 -3.521,-1.389 -2.842,-4.55 -6.936,-1.622 -9.84,7.036 -1.014,3.025 -1.923,5.648 -2.02,5.83 -0.097,0.181 -1.333,-0.428 -2.746,-1.354 -1.903,-1.247 -3.288,-1.456 -5.337,-0.808 -3.236,1.024 -11.761,0.971 -15.066,-0.093 -1.517,-0.489 -3.162,-0.176 -4.837,0.922 -1.396,0.915 -2.617,1.514 -2.714,1.333 -0.097,-0.182 -1.006,-2.805 -2.02,-5.83 -2.904,-8.658 -6.998,-11.586 -9.84,-7.036 -0.865,1.386 -1.902,1.795 -3.521,1.389 -1.262,-0.317 -3.002,0.01 -3.865,0.727 -0.864,0.717 -2.507,1.372 -3.651,1.457 -1.145,0.084 -3.613,1.825 -5.487,3.869 l -3.406,3.717 -9.18,-6.251 c -18.96,-12.909 -42.221,-30.899 -58.302,-45.089 -55.257,-48.759 -107.196,-101.328 -157.378,-159.289 -4.675,-5.399 -12.049,-13.907002 -16.387,-18.906002 -16.19,-18.656 -33.046,-39.099 -41.568,-50.414 -11.44,-15.19 -23.608,-28.548 -33.397,-36.6640003 -7.735,-6.41300001 -8.671,-6.88000001 -11.648,-5.81600001"
     stroke="none"
     fill="#000000"
     fill-rule="evenodd"
     id="path2" />
</svg>
