<?xml version="1.0" encoding="UTF-8" standalone="no"?>
<svg
   width="1819.9294"
   height="1211.3678"
   viewBox="0 0 1819.9294 1211.3678"
   version="1.1"
   id="svg4"
   xmlns="http://www.w3.org/2000/svg"
   xmlns:svg="http://www.w3.org/2000/svg">
  <defs
     id="defs8" />
  <path
     d="m 598.42373,1.7604367 c -11.257,5.113 -14.752,19.4620003 -7.835,32.1700003 7.108,13.06 27.789,30.42 49.876,41.868 18.177,9.421 30.206,17.549 45,30.406003 13.374,11.623 113.527,111.981 134.536,134.813 12.531,13.618 27.233,32.796 36.529,47.651 2.164,3.458 5.836,9.308 8.16,13 2.324,3.692 4.23,7.837 4.235,9.212 0.005,1.375 -0.884,6.731 -1.976,11.902 -1.091,5.171 -1.987,11.696 -1.992,14.5 -0.007,4.913 -0.155,5.182 -4.083,7.426 -11.445,6.537 -15.179,13.182 -20.424,36.347 -4.024,17.77 -4.419,26.647 -1.59,35.736 1.042,3.349 1.724,6.089 1.515,6.089 -0.209,0 -6.574,-4.209 -14.145,-9.354 -7.571,-5.145 -18.715,-12.075 -24.765,-15.4 -18.213,-10.011 -55.276,-28.524 -67,-33.467 -15.123,-6.376 -38.543,-13.472 -51.881,-15.719 -6.116,-1.03 -13.825,-2.575 -17.131,-3.432 -8.285,-2.149 -41.149,-7.409 -57.488,-9.202 -40.33,-4.425 -108.49,-6.62 -139.5,-4.492 -9.35,0.642 -28.25,1.8 -42,2.574 -26.569,1.496 -33.563,2.181 -87,8.518 -47.55,5.639 -69.86,9.134 -109,17.072 -39.732,8.058 -57.475,12.346 -76.672,18.527 -14.548,4.685 -41.301,14.902 -53.328,20.367 -3.850001,1.749 -13.300001,5.658 -21.000001,8.685 -7.7,3.028 -23.675,10.473 -35.5,16.544 -19.897,10.216 -21.961,11.533 -27.681,17.659 -9.8780005,10.58 -12.8680005,17.34 -15.2360005,34.442 -2.42,17.479 -0.52399997,49.571 4.411,74.678 2.99,15.212 3.987,21.682 5.9360005,38.5 2.187,18.866 8.126,48.165 12.568,62 2.119,6.6 5.287,16.725 7.039,22.5 4.707,15.511 15.477,43.941 21.424,56.549 7.318,15.518 26.813,46.925 37.833,60.951 20.000001,25.457 47.637001,50.326 66.706001,60.024 3.575,1.818 10.284,5.594 14.91,8.391 4.625,2.797 8.796,5.085 9.269,5.085 0.474,0 2.727,1.178 5.008,2.618 5.528,3.49 20.902,9.832 28.785,11.875 3.492,0.905 9.314,2.768 12.938,4.14 3.625,1.372 15.59,4.527 26.59,7.011 l 20,4.515 19.5,-0.573 c 18.749,-0.551 32.787,-1.719 34.672,-2.883 0.493,-0.305 1.684,3.125 2.647,7.622 0.963,4.496 2.417,10.875 3.231,14.175 0.814,3.3 3.035,13.516 4.935,22.702 6.573,31.771 10.721,45.525 21.498,71.29796 9.906,23.688 13.099,29.729 33.834,64 20.33,33.601 51.517,65.253 84.531,85.791 11.407,7.097 44.835,23.089 53.734,25.707 4.08,1.2 12.593,4.338 18.918,6.972 35.224,14.672 86.841,23.611 121.569,21.055 8.212,-0.605 17.091,-1.533 19.73,-2.062 2.64,-0.53 6.915,-0.965 9.5,-0.968 2.586,0 10.699,-0.887 18.03,-1.965 10.672,-1.57 15.657,-2.896 25,-6.65 20.536,-8.249 31.412,-14.494 52.375,-30.073 2.363,-1.756 8.332,-6.031 13.264,-9.5 4.933,-3.469 10.783,-8.129 13,-10.356 8.96,-8.997 23.532,-25.561 23.532,-26.748 0,-0.696 2.734,-3.952 6.075,-7.234 7.634,-7.5 10.426,-12.192 12.451,-20.924 0.881,-3.801 2.762,-9.641 4.18,-12.978 2.239,-5.268 2.682,-8.173 3.366,-22.067 0.751,-15.254 1.509,-20.142 3.744,-24.136 0.806,-1.44 1.125,-0.828 1.656,3.176 1.147,8.66 1.514,9.86 4.734,15.468 1.734,3.02 3.263,6.477 3.399,7.681 0.396,3.533 4.402,8.097 8.568,9.764 5.277,2.111 22.377,2.111 27.654,0 4.173,-1.67 8.179,-6.241 8.557,-9.764 0.129,-1.204 1.418,-4.214 2.864,-6.689 3.465,-5.932 4.737,-9.443 4.822,-13.315 0.039,-1.752 0.443,-4.085 0.898,-5.185 0.732,-1.771 1.022,-1.547 2.529,1.956 1.233,2.866 1.911,8.514 2.463,20.5 0.668,14.525 1.075,17.284 3.336,22.611 1.417,3.337 3.297,9.177 4.178,12.978 2.025,8.732 4.817,13.424 12.451,20.924 3.341,3.282 6.075,6.538 6.075,7.234 0,1.187 14.572,17.751 23.532,26.748 2.217,2.227 8.06697,6.887 12.99997,10.356 4.932,3.469 10.901,7.744 13.264,9.5 20.963,15.579 31.839,21.824 52.375,30.073 9.343,3.754 14.328,5.08 25,6.65 7.331,1.078 15.444,1.963 18.03,1.965 2.585,0 6.86,0.438 9.5,0.968 10.408,2.088 34.39,3.187 45.73,2.096 28.748,-2.766 34.18,-3.551 50.069,-7.231 21.809,-5.052 31.297,-7.942 45.5,-13.858 6.325,-2.634 14.838,-5.772 18.918,-6.972 8.899,-2.618 42.327,-18.61 53.734,-25.707 33.014,-20.538 64.201,-52.19 84.531,-85.791 20.735,-34.271 23.928,-40.312 33.834,-64 10.777,-25.77296 14.925,-39.52696 21.498,-71.29796 1.9,-9.186 4.121,-19.402 4.935,-22.702 0.814,-3.3 2.268,-9.679 3.231,-14.175 0.963,-4.497 2.154,-7.927 2.647,-7.622 1.885,1.164 15.923,2.332 34.672,2.883 l 19.5,0.573 20,-4.515 c 11,-2.484 22.965,-5.639 26.59,-7.011 3.624,-1.372 9.446,-3.235 12.938,-4.14 7.883,-2.043 23.257,-8.385 28.785,-11.875 2.281,-1.44 4.534,-2.618 5.008,-2.618 0.473,0 4.644,-2.288 9.269,-5.085 4.626,-2.797 11.335,-6.573 14.91,-8.391 19.069,-9.698 46.706,-34.567 66.706,-60.024 11.02,-14.026 30.515,-45.433 37.833,-60.951 5.947,-12.608 16.717,-41.038 21.424,-56.549 1.752,-5.775 4.92,-15.9 7.039,-22.5 4.442,-13.835 10.381,-43.134 12.568,-62 1.949,-16.818 2.946,-23.288 5.936,-38.5 4.935,-25.107 6.831,-57.199 4.411,-74.678 -2.368,-17.102 -5.358,-23.862 -15.236,-34.442 -5.72,-6.126 -7.784,-7.443 -27.681,-17.659 -11.825,-6.071 -27.8,-13.516 -35.5,-16.544 -7.7,-3.027 -17.15,-6.936 -21,-8.685 -12.027,-5.465 -38.78,-15.682 -53.328,-20.367 -19.197,-6.181 -36.94,-10.469 -76.672,-18.527 -39.14,-7.938 -61.45,-11.433 -109,-17.072 -53.437,-6.337 -60.431,-7.022 -87,-8.518 -13.75,-0.774 -32.65,-1.932 -42,-2.574 -31.01,-2.128 -99.17,0.067 -139.5,4.492 -16.339,1.793 -49.203,7.053 -57.488,9.202 -3.306,0.857 -11.015,2.402 -17.131,3.432 -13.338,2.247 -36.758,9.343 -51.881,15.719 -11.724,4.943 -48.787,23.456 -67,33.467 -6.05,3.325 -17.194,10.255 -24.76497,15.4 -7.571,5.145 -13.936,9.354 -14.145,9.354 -0.209,0 0.473,-2.74 1.515,-6.089 2.829,-9.089 2.434,-17.966 -1.59,-35.736 -5.245,-23.165 -8.979,-29.81 -20.424,-36.347 -3.928,-2.244 -4.076,-2.513 -4.083,-7.426 -0.01,-2.804 -0.901,-9.329 -1.992,-14.5 -1.092,-5.171 -1.981,-10.527 -1.976,-11.902 0.01,-1.375 1.911,-5.52 4.235,-9.212 2.324,-3.692 5.996,-9.542 8.16,-13 9.296,-14.855 23.998,-34.033 36.529,-47.651 21.00897,-22.832 121.16197,-123.19 134.53597,-134.813 14.794,-12.857003 26.823,-20.985003 45,-30.406003 22.087,-11.448 42.768,-28.808 49.876,-41.868 6.917,-12.708 3.422,-27.0570003 -7.835,-32.1700003 -6.009,-2.73000002 -10.342,-2.34900002 -18.157,1.593 -9.039,4.561 -30.414,22.4440003 -42.384,35.4610003 -32.872,35.745 -36.815,39.522 -64.5,61.783003 -12.958,10.419 -76.196,73.132 -93.259,92.485 -23.83897,27.039 -41.45297,50.413 -53.00797,70.346 -2.247,3.876 -4.949,8.114 -6.004,9.417 l -1.918,2.37 -1.791,-3.032 c -2.289,-3.875 -6.412,-6.303 -10.702,-6.303 -4.554,0 -7.532,2.303 -8.765,6.779 -1.434,5.208 -10.446,28.194 -11.053,28.194 -0.607,0 -9.619,-22.986 -11.053,-28.194 -1.233,-4.476 -4.211,-6.779 -8.765,-6.779 -4.29,0 -8.413,2.428 -10.702,6.303 l -1.791,3.032 -1.918,-2.37 c -1.055,-1.303 -3.757,-5.541 -6.004,-9.417 -11.555,-19.933 -29.169,-43.307 -53.008,-70.346 -17.063,-19.353 -80.301,-82.066 -93.259,-92.485 -27.685,-22.261003 -31.628,-26.038003 -64.5,-61.783003 -11.97,-13.017 -33.345,-30.9000003 -42.384,-35.4610003 -7.815,-3.94200002 -12.148,-4.32300002 -18.157,-1.593"
     stroke="none"
     fill="#000000"
     fill-rule="evenodd"
     id="path2" />
</svg>
