<?xml version="1.0" encoding="UTF-8" standalone="no"?>
<svg
   width="1343.3116"
   height="1373.3572"
   viewBox="0 0 1343.3116 1373.3572"
   version="1.1"
   id="svg4"
   xmlns="http://www.w3.org/2000/svg"
   xmlns:svg="http://www.w3.org/2000/svg">
  <defs
     id="defs8" />
  <path
     d="m 345.66384,0.25725581 c -6.584,1.63899999 -5.601,9.32499999 3.522,27.53400019 15.128,30.195 38.978,55.34 85.97,90.639004 7.7,5.784 16.025,11.935 18.5,13.669 2.475,1.735 8.55,6.108 13.5,9.719 4.95,3.612 17.55,12.237 28,19.169 34.611,22.956 56.542,39.025 71.966,52.727 25.933,23.039 52.722,55.93 59.546,73.108 2.719,6.845 2.901,7.908 1.6,9.346 -2.484,2.745 -5.557,10.951 -7.591,20.27 -1.067,4.889 -3.759,14.328 -5.981,20.974 -2.222,6.647 -4.04,12.675 -4.04,13.397 0,2.626 -10.564,10.69 -28,21.373 -5.83,3.572 -13.333,13.222 -13.333,17.147 0,2.372 -1.711,4.567 -9.113,11.691 -5.012,4.824 -11.932,11.178 -15.378,14.119 -4.224,3.606 -6.458,6.31 -6.855,8.299 -0.426,2.129 -1.661,3.496 -4.441,4.914 -2.118,1.081 -4.618,3.136 -5.556,4.567 -1.547,2.361 -1.563,2.846 -0.176,5.237 1.445,2.489 1.337,3.023 -1.945,9.635 -4.986,10.046 -10.655,18.075 -17.895,25.348 -6.713,6.744 -8.21,9.876 -6.507,13.616 0.908,1.991 0.219,3.764 -4.917,12.654 -3.285,5.686 -9.404,15.073 -13.598,20.86 -4.194,5.787 -10.315,14.347 -13.602,19.022 -3.287,4.675 -11.198,15.053 -17.58,23.061 -6.382,8.009 -16.408,20.609 -22.28,28 -5.872,7.392 -16.373,20.414 -23.336,28.939 -19.209,23.519 -28.633,36.278 -45.794,62 -17.594,26.369 -28.707,41.003 -62.694,82.551 -49.204,60.152 -72.195,90.37 -109.522,143.949 -9.962,14.3 -21.725,31.175 -26.14,37.5 -8.794,12.597 -19.2,29.794 -24.926,41.192 -2.019,4.02 -7.732,14.05804 -12.694,22.30804 -13.197,21.939 -25.521997,42.946 -30.216997,51.5 -2.264,4.125 -7.507,13.575 -11.651,21 -21.411,38.363 -44.728,89.301 -55.616,121.5 -2.232,6.6 -5.197,15.024 -6.59,18.721 -3.252,8.631 -10.5220003,36.179 -14.4560003,54.779 -5.42999997,25.677 -6.39799997,36.228 -5.59699997,61.048 0.88399997,27.391 0.87199997,27.359 11.49300027,30.424 4.215,1.216 10.701,2.214 14.958,2.301 4.134,0.084 10.545,0.856 14.247,1.714 8.101,1.879 29.769,2.117 47.211,0.52 33.530997,-3.072 69.964997,-13.05 112.999997,-30.947 28.383,-11.804 44.082,-19.624 67.233,-33.491 21.594,-12.934 70.737,-44.724 86.82,-56.163 37.193,-26.453 77.571,-62.93 113.234,-102.294 14.349,-15.838 16.277,-19.704 20.784,-41.684 1.908,-9.311 5.231,-23.903 7.383,-32.428 2.152,-8.525 5.072,-21.783 6.489,-29.463 1.416,-7.68 4.547,-21.405 6.957,-30.5 2.41,-9.095 5.164,-19.91204 6.118,-24.03704 2.266,-9.785 3.988,-12.462 13.798,-21.436 l 8.184,-7.488 0.531,10.744 c 0.579,11.721 2.677,17.403 6.638,17.982 1.892,0.277 2.109,1.14 2.541,10.10604 0.35,7.278 1.028,10.952 2.631,14.263 1.224,2.528 2.159,6.395 2.159,8.925 0,13.284 5.247,42.237 8.288,45.735 0.798,0.918 1.753,4.819 2.123,8.669 1.217,12.675 3.649,18.5 7.725,18.5 1.098,0 1.999,0.896 2.259,2.25 0.239,1.237 0.952,4.95 1.586,8.25 2.843,14.809 8.569,28.098 12.536,29.094 2.877,0.722 3.069,1.352 4.467,14.657 1.532,14.574 5.57,23.749 10.453,23.749 1.638,0 2.415,0.976 3.382,4.25 2.151,7.282 5.428,12.215 8.342,12.555 2.779,0.325 3.942,3.147 5.425,13.154 0.513,3.466 1.601,5.373 4.887,8.567 3.825,3.717 4.296,4.716 4.95,10.492 0.397,3.511 1.194,7.306 1.772,8.433 1.573,3.072 6.003,7.549 7.469,7.549 0.709,0 1.982,1.056 2.827,2.346 0.845,1.29 2.63,2.844 3.967,3.453 1.851,0.843 2.929,2.784 4.528,8.154 1.154,3.876 2.776,7.61 3.603,8.297 3.856,3.203 6.411,6.382 6.411,7.978 0,0.961 1.683,4.247 3.74,7.301 5.879,8.73 10.641,8.73 16.52,0 2.057,-3.054 3.74,-6.34 3.74,-7.301 0,-1.596 2.555,-4.775 6.411,-7.978 0.827,-0.687 2.449,-4.421 3.603,-8.297 1.599,-5.37 2.677,-7.311 4.528,-8.154 1.337,-0.609 3.122,-2.163 3.967,-3.453 0.845,-1.29 2.118,-2.346 2.827,-2.346 1.466,0 5.896,-4.477 7.469,-7.549 0.578,-1.127 1.375,-4.922 1.772,-8.433 0.654,-5.776 1.125,-6.775 4.95,-10.492 3.286,-3.194 4.374,-5.101 4.887,-8.567 1.483,-10.007 2.646,-12.829 5.425,-13.154 2.907,-0.34 6.19,-5.271 8.328,-12.508 0.986,-3.336 1.761,-4.265 3.755,-4.5 2.879,-0.34 6.522,-5.16 8.074,-10.679 0.559,-1.99 1.473,-7.893 2.031,-13.118 1.392,-13.046 1.59,-13.687 4.456,-14.406 2.863,-0.719 6.043,-6.376 9.33,-16.594 1.714,-5.329 5.187,-20.366 5.187,-22.458 0,-0.298 0.83,-0.542 1.845,-0.542 4.084,0 6.494,-5.735 7.774,-18.5 0.416,-4.151 1.432,-8.018 2.495,-9.5 0.987,-1.375 2.461,-5.443 3.277,-9.041 1.938,-8.548 4.609,-29.032 4.609,-35.352 0,-3.054 0.834,-6.698 2.159,-9.436 1.603,-3.311 2.281,-6.985 2.631,-14.263 0.432,-8.96604 0.649,-9.82904 2.541,-10.10604 3.961,-0.579 6.059,-6.261 6.638,-17.982 l 0.531,-10.744 8.184,7.488 c 9.81,8.974 11.532,11.651 13.798,21.436 0.954,4.125 3.708,14.94204 6.118,24.03704 2.41,9.095 5.541,22.82 6.957,30.5 1.417,7.68 4.337,20.938 6.489,29.463 2.152,8.525 5.475,23.117 7.383,32.428 4.507,21.98 6.435,25.846 20.784,41.684 35.663,39.364 76.041,75.841 113.234,102.294 16.08296,11.439 65.22596,43.229 86.81996,56.163 23.151,13.867 38.85,21.687 67.233,33.491 43.035,17.897 79.469,27.875 113,30.947 17.442,1.597 39.11,1.359 47.211,-0.52 3.702,-0.858 10.113,-1.63 14.247,-1.714 4.257,-0.087 10.743,-1.085 14.958,-2.301 10.621,-3.065 10.609,-3.033 11.493,-30.424 0.801,-24.82 -0.167,-35.371 -5.597,-61.048 -3.934,-18.6 -11.204,-46.148 -14.456,-54.779 -1.393,-3.697 -4.358,-12.121 -6.59,-18.721 -10.888,-32.199 -34.205,-83.137 -55.616,-121.5 -4.144,-7.425 -9.387,-16.875 -11.651,-21 -4.695,-8.554 -17.02,-29.561 -30.217,-51.5 -4.962,-8.25 -10.675,-18.28804 -12.694,-22.30804 -5.726,-11.398 -16.132,-28.595 -24.926,-41.192 -4.415,-6.325 -16.178,-23.2 -26.14,-37.5 -37.327,-53.579 -60.318,-83.797 -109.522,-143.949 -33.987,-41.548 -45.1,-56.182 -62.69396,-82.551 -17.161,-25.722 -26.585,-38.481 -45.794,-62 -6.963,-8.525 -17.464,-21.547 -23.336,-28.939 -5.872,-7.391 -15.898,-19.991 -22.28,-28 -6.382,-8.008 -14.293,-18.386 -17.58,-23.061 -3.287,-4.675 -9.408,-13.235 -13.602,-19.022 -4.194,-5.787 -10.313,-15.174 -13.598,-20.86 -5.136,-8.89 -5.825,-10.663 -4.917,-12.654 1.703,-3.74 0.206,-6.872 -6.507,-13.616 -7.24,-7.273 -12.909,-15.302 -17.895,-25.348 -3.282,-6.612 -3.39,-7.146 -1.945,-9.635 1.387,-2.391 1.371,-2.876 -0.176,-5.237 -0.938,-1.431 -3.438,-3.486 -5.556,-4.567 -2.78,-1.418 -4.015,-2.785 -4.441,-4.914 -0.397,-1.989 -2.631,-4.693 -6.855,-8.299 -3.446,-2.941 -10.366,-9.295 -15.378,-14.119 -7.402,-7.124 -9.113,-9.319 -9.113,-11.691 0,-3.925 -7.503,-13.575 -13.333,-17.147 -17.436,-10.683 -28,-18.747 -28,-21.373 0,-0.722 -1.818,-6.75 -4.04,-13.397 -2.222,-6.646 -4.914,-16.085 -5.981,-20.974 -2.034,-9.319 -5.107,-17.525 -7.591,-20.27 -1.301,-1.438 -1.119,-2.501 1.6,-9.346 6.824,-17.178 33.613,-50.069 59.546,-73.108 15.424,-13.702 37.355,-29.771 71.966,-52.727 10.45,-6.932 23.05,-15.557 28,-19.169 4.95,-3.611 11.025,-7.984 13.5,-9.719 2.475,-1.734 10.8,-7.885 18.5,-13.669 46.992,-35.299004 70.842,-60.444004 85.97,-90.639004 9.22996,-18.4210002 10.11096,-25.7730002 3.307,-27.58600019 -6.534,-1.74300001 -19.14,8.74999999 -37.307,31.05000019 -7.614,9.348 -14.023,16.816 -14.242,16.597 -0.219,-0.219 -1.71,0.06 -3.313,0.618 -2.45,0.854 -2.915,1.56 -2.915,4.419 0,3.107 -0.258,3.402 -2.977,3.402 -3.651,0 -6.545,3.784 -5.643,7.378 0.762,3.034 -1.644,5.178 -5.372,4.787 -3.753,-0.394 -6.113,2.208 -5.829,6.427 0.271,4.024 -1.52,6.467 -3.379,4.608 -2.158,-2.158 -6.609,-1.421 -8.458,1.401 -1.368,2.088 -1.493,3.161 -0.631,5.443 0.899,2.384 0.763,3.122 -0.843,4.575 -1.468,1.329 -2.19,1.459 -3.092,0.557 -1.645,-1.645 -5.29,-1.466 -6.784,0.334 -0.765,0.922 -1.05,3.021 -0.732,5.395 0.664,4.946004 -1.352,7.391004 -4.963,6.018004 -1.553,-0.591 -3.125,-0.55 -4.362,0.112 -1.999,1.07 -2.126,1.423 -2.32,6.465 -0.104,2.704 -0.411,2.974 -3.115,2.737 -4,-0.351 -5.553,0.828 -6.434,4.884 -0.485,2.229 -1.216,3.243 -2.15,2.98 -7.13,-2.011 -10.495,-0.055 -9.582,5.572 0.711,4.382 -2.134,6.31 -4.863,3.295 -1.09,-1.205 -3.069,-1.968 -5.103,-1.968 -4.685,0 -6.829,3.44 -5.921,9.498 0.719,4.79 0.21,5.314 -2.888,2.97 -2.587,-1.957 -6.987,-1.863 -8.687,0.186 -0.821,0.99 -1.289,3.565 -1.165,6.413 0.254,5.843 -1.512,7.911 -4.21,4.929 -1.8,-1.988 -6.005,-2.628 -8.097,-1.231 -2.196,1.466 -3.576,5.485 -2.978,8.673 0.452,2.409 0.137,3.651 -1.244,4.901 -1.747,1.58 -1.914,1.537 -2.969,-0.779 -0.615,-1.35 -2.208,-3.169 -3.541,-4.042 -1.994,-1.306 -2.89,-1.374 -5.069,-0.381 -3.189,1.453 -4.055,4.366 -3.204,10.78 0.496,3.744 0.284,5.104 -0.957,6.134 -1.371,1.138 -1.944,0.877 -4.089,-1.864 -1.766,-2.257 -3.328,-3.187 -5.35,-3.187 -5.345,0 -7.215,4.275 -5.098,11.655 1.266,4.412 -0.561,6.047 -3.121,2.792 -4.293,-5.457 -10.539,-1.14 -9.504,6.571 0.449,3.348 0.108,4.43 -2.161,6.859 -2.672,2.86 -2.712,2.868 -5.015,1.003 -6,-4.859 -11.593,1.053 -9.199,9.723 1.381,5.002 0.098,6.195 -3.667,3.412 -3.729,-2.757 -7.223,-2.308 -9.173,1.177 -1.273,2.275 -1.313,3.417 -0.257,7.365 0.959,3.585 0.976,5.003 0.075,6.088 -0.996,1.201 -1.461,1.108 -3.065,-0.615 -2.553,-2.74 -5.423,-2.556 -7.409,0.474 -1.397,2.133 -1.467,3.193 -0.471,7.148 1.481,5.881 0.275,7.444 -3.47,4.499 -5.094,-4.008 -8.868,1.219 -6.526,9.037 1.402,4.68 0.671,6.127 -1.518,3.002 -2.245,-3.205 -7.103,-2.979 -8.644,0.402 -0.956,2.099 -0.857,3.502 0.522,7.384 2.229,6.277 2.248,6.217 -1.713,5.474 -2.944,-0.552 -3.652,-0.278 -5.138,1.991 -1.363,2.079 -1.594,3.878 -1.104,8.57 0.542,5.182 0.379,6.067 -1.28,6.955 -1.058,0.567 -2.048,0.624 -2.232,0.129 -0.426,-1.144 -6.115,-8.062 -11.718,-14.25 -3.223,-3.56 -5.118,-4.845 -7.143,-4.845 -1.527,0 -3.013,-0.669 -3.332,-1.5 -0.769,-2.004 -5.528,-1.91 -7.809,0.155 -1.702,1.54 -1.956,1.54 -3.658,0 -2.281,-2.065 -7.04,-2.159 -7.809,-0.155 -0.319,0.831 -1.805,1.5 -3.332,1.5 -2.025,0 -3.92,1.285 -7.143,4.845 -5.603,6.188 -11.292,13.106 -11.718,14.25 -0.184,0.495 -1.174,0.438 -2.232,-0.129 -1.659,-0.888 -1.822,-1.773 -1.28,-6.955 0.49,-4.692 0.259,-6.491 -1.104,-8.57 -1.486,-2.269 -2.194,-2.543 -5.138,-1.991 -3.961,0.743 -3.942,0.803 -1.713,-5.474 1.379,-3.882 1.478,-5.285 0.522,-7.384 -1.541,-3.381 -6.399,-3.607 -8.644,-0.402 -2.189,3.125 -2.92,1.678 -1.518,-3.002 2.342,-7.818 -1.432,-13.045 -6.526,-9.037 -3.745,2.945 -4.951,1.382 -3.47,-4.499 0.996,-3.955 0.926,-5.015 -0.471,-7.148 -1.986,-3.03 -4.856,-3.214 -7.409,-0.474 -1.604,1.723 -2.069,1.816 -3.065,0.615 -0.901,-1.085 -0.884,-2.503 0.075,-6.088 1.056,-3.948 1.016,-5.09 -0.257,-7.365 -1.95,-3.485 -5.444,-3.934 -9.173,-1.177 -3.765,2.783 -5.048,1.59 -3.667,-3.412 2.394,-8.67 -3.199,-14.582 -9.199,-9.723 -2.303,1.865 -2.343,1.857 -5.015,-1.003 -2.269,-2.429 -2.61,-3.511 -2.161,-6.859 1.035,-7.711 -5.211,-12.028 -9.504,-6.571 -2.56,3.255 -4.387,1.62 -3.121,-2.792 2.117,-7.38 0.247,-11.655 -5.098,-11.655 -2.022,0 -3.584,0.93 -5.35,3.187 -2.145,2.741 -2.718,3.002 -4.089,1.864 -1.241,-1.03 -1.453,-2.39 -0.957,-6.134 0.851,-6.414 -0.015,-9.327 -3.204,-10.78 -2.179,-0.993 -3.075,-0.925 -5.069,0.381 -1.333,0.873 -2.926,2.692 -3.541,4.042 -1.055,2.316 -1.222,2.359 -2.969,0.779 -1.381,-1.25 -1.696,-2.492 -1.244,-4.901 0.598,-3.188 -0.782,-7.207 -2.978,-8.673 -2.092,-1.397 -6.297,-0.757 -8.097,1.231 -2.698,2.982 -4.464,0.914 -4.21,-4.929 0.124,-2.848 -0.344,-5.423 -1.165,-6.413 -1.7,-2.049 -6.1,-2.143 -8.687,-0.186 -3.098,2.344 -3.607,1.82 -2.888,-2.97 0.908,-6.058 -1.236,-9.498 -5.921,-9.498 -2.034,0 -4.013,0.763 -5.103,1.968 -2.729,3.015 -5.574,1.087 -4.863,-3.295 0.913,-5.627 -2.452,-7.583 -9.582,-5.572 -0.934,0.263 -1.665,-0.751 -2.15,-2.98 -0.881,-4.056 -2.434,-5.235 -6.434,-4.884 -2.704,0.237 -3.011,-0.033 -3.115,-2.737 -0.194,-5.042 -0.321,-5.395 -2.32,-6.465 -1.237,-0.662 -2.809,-0.703 -4.362,-0.112 -3.611,1.373 -5.627,-1.072 -4.963,-6.018004 0.318,-2.374 0.033,-4.473 -0.732,-5.395 -1.494,-1.8 -5.139,-1.979 -6.784,-0.334 -0.902,0.902 -1.624,0.772 -3.092,-0.557 -1.606,-1.453 -1.742,-2.191 -0.843,-4.575 0.862,-2.282 0.737,-3.355 -0.631,-5.443 -1.849,-2.822 -6.3,-3.559 -8.458,-1.401 -1.859,1.859 -3.65,-0.584 -3.379,-4.608 0.284,-4.219 -2.076,-6.821 -5.829,-6.427 -3.728,0.391 -6.134,-1.753 -5.372,-4.787 0.902,-3.594 -1.992,-7.378 -5.643,-7.378 -2.719,0 -2.977,-0.295 -2.977,-3.402 0,-2.859 -0.465,-3.565 -2.915,-4.419 -1.603,-0.558 -3.094,-0.837 -3.313,-0.618 -0.219,0.219 -6.67,-7.301 -14.335,-16.711 -9.654,-11.85 -16.368,-19.054 -21.846,-23.4370002 -8.609,-6.88899999 -11.765,-8.39699999 -15.583,-7.44699999"
     stroke="none"
     fill="#000000"
     fill-rule="evenodd"
     id="path2" />
</svg>
