<?xml version="1.0" standalone="no"?>
<!DOCTYPE svg PUBLIC "-//W3C//DTD SVG 20010904//EN"
 "http://www.w3.org/TR/2001/REC-SVG-20010904/DTD/svg10.dtd">
<svg version="1.0" xmlns="http://www.w3.org/2000/svg"
 width="480.000000pt" height="333.000000pt" viewBox="0 0 480.000000 333.000000"
 preserveAspectRatio="xMidYMid meet">
<metadata>
Created by potrace 1.16, written by Peter Selinger 2001-2019
</metadata>
<g transform="translate(0.000000,333.000000) scale(0.100000,-0.100000)"
fill="#000000" stroke="none">
<path d="M1246 3321 c-3 -5 9 -14 27 -21 17 -7 83 -37 145 -67 63 -29 115 -53
118 -53 11 0 304 -167 335 -191 19 -15 86 -59 148 -97 105 -64 251 -184 272
-225 7 -12 6 -22 -6 -33 -8 -8 -15 -12 -15 -7 0 4 -11 -9 -25 -30 -15 -22 -28
-58 -32 -88 -6 -49 -7 -50 -22 -32 -9 11 -42 41 -73 67 -32 27 -56 52 -53 56
2 4 -7 6 -22 4 -15 -1 -36 4 -47 12 -11 8 -17 14 -12 14 4 0 -6 12 -23 26 -17
14 -28 31 -24 36 3 6 1 8 -4 5 -6 -4 -49 56 -99 138 -49 79 -95 144 -102 145
-19 0 -33 -43 -18 -55 19 -15 158 -235 164 -259 3 -12 25 -41 48 -64 42 -43
43 -44 25 -64 -15 -15 -17 -26 -11 -49 6 -19 5 -29 -2 -29 -6 0 -1 -8 10 -19
12 -10 22 -23 22 -30 0 -6 10 -21 21 -32 l22 -22 -28 7 c-16 4 -40 15 -54 25
-37 26 -160 86 -204 100 -21 7 -57 23 -80 36 -23 13 -79 38 -124 55 -46 17
-83 36 -83 41 0 6 -4 8 -10 4 -5 -3 -35 7 -67 23 -32 16 -83 35 -113 43 -30 7
-60 16 -66 21 -16 11 -269 117 -324 135 -25 8 -61 21 -80 28 -19 8 -55 19 -80
26 -25 6 -49 14 -55 17 -5 3 -16 7 -25 8 -8 1 -35 7 -60 12 -25 6 -72 15 -105
22 -33 6 -81 16 -107 21 -66 15 -132 2 -212 -42 -62 -34 -71 -42 -88 -86 -28
-74 -45 -328 -23 -363 4 -7 7 -39 6 -72 -1 -34 4 -67 10 -74 6 -8 9 -14 5 -14
-4 0 0 -12 7 -27 8 -16 17 -44 21 -63 3 -19 22 -55 41 -79 20 -25 38 -55 41
-67 3 -13 22 -35 41 -50 19 -14 39 -39 45 -55 5 -16 14 -29 19 -29 5 0 9 -7 9
-15 0 -8 9 -19 20 -25 11 -6 20 -17 20 -25 0 -9 10 -15 24 -15 13 0 26 -6 29
-14 4 -9 30 -17 74 -21 37 -4 83 -14 102 -21 35 -15 46 -14 186 13 100 19 155
22 155 9 0 -6 4 -5 9 2 7 11 9 11 14 -1 4 -10 -7 -18 -36 -26 -90 -26 -244
-113 -284 -160 -12 -14 -22 -35 -23 -46 0 -10 -6 -37 -14 -60 -8 -22 -22 -67
-31 -100 -17 -64 -17 -64 25 -207 14 -47 57 -124 78 -141 35 -26 104 -119 114
-153 5 -20 24 -52 42 -72 18 -20 41 -51 49 -69 9 -17 31 -42 49 -54 18 -12 41
-30 50 -38 30 -28 42 -37 89 -64 25 -15 52 -27 60 -27 8 0 55 -20 104 -45 50
-25 101 -45 115 -45 14 0 52 -13 83 -30 32 -16 69 -30 83 -30 14 0 44 -10 67
-22 70 -36 239 -20 276 27 9 12 22 20 30 17 8 -3 11 0 8 5 -4 6 3 8 16 6 21
-4 77 37 77 57 0 5 6 15 13 22 27 27 57 109 72 199 9 51 18 96 20 99 2 3 6 39
9 80 3 41 10 111 15 154 5 44 7 93 5 110 -6 39 17 168 31 173 11 3 45 -126 45
-170 0 -15 -9 -45 -20 -67 -23 -45 -25 -78 -8 -149 9 -39 9 -60 -1 -91 -11
-37 -10 -44 10 -77 20 -32 21 -40 11 -80 -17 -60 -15 -118 3 -133 12 -10 15
-31 13 -90 -3 -67 0 -82 17 -102 25 -28 55 -92 55 -116 0 -10 4 -22 9 -28 5
-5 11 -51 13 -102 3 -82 6 -96 25 -112 15 -12 20 -24 16 -39 -5 -22 23 -55 39
-45 3 2 33 6 64 9 48 4 62 10 80 32 12 15 37 32 55 39 l34 11 -3 110 c-4 114
-1 130 42 248 14 39 26 91 26 116 0 37 4 48 19 52 12 3 22 18 26 38 4 19 15
39 23 45 14 10 12 17 -11 57 -32 54 -34 73 -8 80 12 3 23 19 30 43 17 60 13
90 -15 123 l-26 31 26 11 c14 7 26 17 27 23 2 24 29 -104 38 -179 12 -104 39
-226 54 -243 6 -8 12 -21 14 -30 1 -9 9 -22 17 -28 9 -6 16 -16 16 -22 0 -5
14 -24 30 -42 17 -18 30 -36 30 -41 0 -5 9 -9 20 -9 11 0 20 -4 20 -8 0 -5 19
-9 42 -10 26 -1 45 -8 51 -17 7 -13 24 -15 105 -10 135 8 170 14 183 33 7 12
12 14 15 5 4 -10 10 -10 27 -1 12 7 25 11 29 10 4 -1 41 12 82 28 41 17 85 30
98 30 13 0 28 4 33 9 6 5 28 14 49 21 22 7 81 37 131 66 116 68 200 155 252
262 21 42 53 91 71 109 17 17 32 34 32 38 0 3 14 20 30 38 17 18 38 44 48 60
9 15 20 27 24 27 4 0 8 8 8 18 0 10 4 22 8 28 5 5 17 41 27 79 19 72 20 136 3
168 -5 10 -11 28 -13 40 -10 54 -53 141 -81 166 -72 62 -100 82 -124 87 -14 3
-45 14 -70 24 -25 10 -91 26 -147 36 -57 10 -103 21 -103 25 0 3 -11 4 -25 1
-14 -2 -25 0 -25 6 0 6 51 9 143 8 134 -2 147 -5 232 -36 120 -45 204 -46 285
-3 130 68 177 107 187 156 3 17 12 27 24 27 18 0 53 41 79 93 8 16 27 41 43
57 24 24 54 102 59 158 1 6 5 12 10 12 5 0 6 5 3 10 -3 6 -3 10 2 10 4 0 9 12
9 28 2 39 5 194 4 212 -1 8 2 34 6 57 4 25 2 48 -4 55 -13 17 -17 49 -7 71 4
9 4 34 -1 55 -4 20 -8 40 -8 44 -4 34 -160 118 -219 118 -70 0 -397 -74 -452
-103 -17 -8 -39 -17 -50 -19 -11 -1 -23 -7 -27 -13 -5 -6 -8 -4 -8 4 0 11 -6
8 -20 -7 -12 -12 -28 -23 -38 -24 -9 0 -21 -2 -27 -3 -9 -1 -93 -44 -155 -78
-62 -35 -113 -58 -225 -102 -66 -25 -168 -66 -226 -91 -59 -24 -110 -44 -113
-44 -9 0 -101 -43 -295 -137 -84 -41 -156 -71 -160 -67 -3 4 0 9 8 12 7 2 23
14 35 26 11 11 27 19 34 18 8 -2 11 1 7 7 -3 6 3 24 14 40 12 16 21 37 21 46
0 9 5 25 10 36 8 13 7 25 -2 42 -7 12 -11 25 -10 29 1 4 -6 5 -16 1 -15 -5 52
77 71 85 4 2 5 7 2 12 -3 4 10 22 29 38 19 17 32 32 30 35 -3 3 13 31 35 63
23 33 41 63 41 67 0 5 9 20 20 34 23 29 13 53 -20 50 -11 -1 -17 -3 -15 -5 14
-15 -123 -209 -196 -279 -24 -22 -67 -51 -96 -63 -49 -21 -120 -90 -136 -132
-13 -35 -30 -20 -24 21 7 53 -45 166 -67 144 -3 -4 -6 -1 -6 6 0 7 -4 9 -10 6
-21 -13 -9 16 22 51 44 50 158 135 171 127 6 -3 7 -1 3 5 -4 7 -2 12 4 12 13
0 163 85 206 117 17 13 34 23 37 23 6 0 275 159 347 205 77 50 177 105 208
116 31 11 38 19 26 31 -6 7 -86 -28 -128 -56 -15 -9 -46 -27 -69 -40 -23 -12
-107 -60 -187 -106 -208 -119 -210 -120 -210 -114 0 2 -9 -3 -20 -13 -10 -10
-45 -31 -77 -48 -32 -16 -60 -33 -63 -36 -3 -3 -32 -21 -65 -39 -33 -19 -81
-48 -106 -66 -26 -18 -50 -30 -54 -26 -4 4 -5 2 -3 -3 2 -6 -12 -26 -31 -44
l-35 -34 -18 24 c-15 17 -28 22 -55 21 -44 -3 -73 -18 -73 -36 0 -8 -6 -13
-14 -12 -22 3 -46 27 -39 40 3 6 3 8 -1 5 -4 -4 -30 15 -59 42 -29 27 -90 72
-136 101 -45 29 -120 77 -165 107 -44 30 -103 66 -131 81 -27 15 -49 33 -48
39 2 6 -4 8 -14 4 -9 -4 -14 -2 -11 3 4 5 -4 10 -16 10 -13 1 -40 13 -62 26
-21 13 -68 37 -104 52 -36 16 -92 41 -125 57 -57 27 -161 69 -170 69 -2 0 -6
-4 -9 -9z"/>
<path d="M2407 2759 c7 -7 15 -10 18 -7 3 3 -2 9 -12 12 -14 6 -15 5 -6 -5z"/>
</g>
</svg>
