<?xml version="1.0" encoding="UTF-8"?>
<svg width="1200pt" height="1200pt" version="1.1" viewBox="0 0 1200 1200" xmlns="http://www.w3.org/2000/svg">
 <path d="m1020 582h-102v-402c0-9.9609-8.0391-18-18-18h-120c-9.9609 0-18 8.0391-18 18v42h-111v-126.36c0-29.52-24-53.641-53.641-53.641s-53.641 24-53.641 53.641v126.36h-105.72v-42c0-9.9609-8.0391-18-18-18h-120c-9.9609 0-18 8.0391-18 18v402h-90.84c-9.9609 0-18 8.0391-18 18v120c0 9.9609 8.0391 18 18 18h30.84v402c0 9.9609 8.0391 18 18 18h120c9.9609 0 18-8.0391 18-18v-34.922h323.04c30.719 0 55.922-24.961 56.039-55.801l0.23828-311.28h64.559v402c0 9.9609 8.0391 18 18 18h120c9.9609 0 18-8.0391 18-18l0.003906-402h42c9.9609 0 18-8.0391 18-18v-120c0-9.9609-8.0391-18-18-18zm-18 120h-244.56v-61.441c0-12.48 10.199-22.559 22.559-22.559h222zm-60 420h-84v-384h84zm-684 0v-384h84v259.56c-15.961 10.441-26.52 28.441-26.52 48.84 0 15.719 6.1211 30.48 17.16 41.398 2.8789 2.8789 6 5.3984 9.2383 7.5586v26.52h-84zm-48.84-504h192.12c-2.8789 6.9609-4.5586 14.52-4.5586 22.559v61.441h-187.56v-84zm237.48-360h315.48v46.559h-315.48zm150.84-180c9.7188 0 17.641 7.9219 17.641 17.641v126.36h-35.281v-126.36c0-9.7188 7.9219-17.641 17.641-17.641zm-219.48 909.96v-249.96h18.719v249.96zm504-405.96h-84v-384h84zm-320.28-84h128.28c6.6016 0 12 5.3984 12 12s-5.3984 12-12 12h-180c-6.6016 0-12-5.3984-12-12s5.3984-12 12-12zm18-36v-121.44h35.281v121.44zm-36-121.44v121.44h-33.719c-26.52 0-48 21.48-48 48s21.48 48 48 48h180c26.52 0 48-21.48 48-48s-21.48-48-48-48h-39v-121.44h111v241.44h-324v-241.44zm-225.72-142.56h84v384h-84zm40.078 864.36c-4.1992-4.1992-6.6016-9.8398-6.6016-15.961 0-12.48 10.078-22.559 22.559-22.559h270.72c-2.8789 6.9609-4.5586 14.52-4.5586 22.559 0 8.0391 1.5586 15.602 4.5586 22.559l-270.59 0.003907c-6 0-11.641-2.3984-15.961-6.6016zm363-13.32c0 11.039-9.1211 19.922-20.039 19.922h-2.1602c-12.48 0-22.68-10.078-22.68-22.559 0-12.48 10.199-22.559 22.68-22.559 9.9609 0 18-8.0391 18-18s-8.0391-18-18-18h-266.16v-347.4c0-12.48 10.078-22.559 22.559-22.559h270.72c-2.8789 6.9609-4.5586 14.52-4.5586 22.559v359.76l-0.35938 48.719z"/>
</svg>
