<?xml version="1.0" encoding="UTF-8"?>
<svg width="1200pt" height="1200pt" version="1.1" viewBox="0 0 1200 1200" xmlns="http://www.w3.org/2000/svg">
 <path d="m1118.9 882.34c-15.375-44.848-58.016-76.086-106.45-76.086s-91.07 31.238-106.45 76.086c-35.344 6.0391-62.305 36.863-62.305 73.914 0 41.363 33.637 75 75 75 15.148 0 29.586-4.4609 41.852-12.789 32.062 16.801 71.793 16.762 103.78 0 12.281 8.3281 26.699 12.789 41.867 12.789 41.363 0 75-33.637 75-75 0-37.051-26.961-67.875-62.305-73.914zm-12.695 111.41c-10.125 0-19.633-4.0117-26.758-11.324-3.6367-3.7305-8.5117-5.6641-13.426-5.6641-3.7305 0-7.5 1.125-10.742 3.3945-25.387 17.758-60.207 17.793-85.668 0-7.5-5.2305-17.738-4.293-24.133 2.2695-7.1406 7.3125-16.648 11.324-26.773 11.324-20.68 0-37.5-16.82-37.5-37.5 0-20.418 16.387-37.086 36.711-37.5 0.99219 0.13281 2.0234 0.16797 2.6641 0.1875 8.9062 0 16.633-6.2812 18.375-15.055 7.0117-34.84 37.93-60.133 73.5-60.133s66.488 25.293 73.5 60.133c1.8008 8.9609 9.5625 14.945 18.938 15.055 0.99219-0.039062 1.9492-0.13281 1.3125-0.1875 20.68 0 37.5 16.82 37.5 37.5s-16.82 37.5-37.5 37.5z"/>
 <path d="m293.95 882.34c-15.375-44.848-58.016-76.086-106.45-76.086s-91.07 31.238-106.45 76.086c-35.344 6.0391-62.305 36.863-62.305 73.914 0 41.363 33.637 75 75 75 15.148 0 29.586-4.4609 41.852-12.789 32.043 16.781 71.773 16.801 103.78 0 12.281 8.3281 26.719 12.789 41.867 12.789 41.363 0 75-33.637 75-75 0-37.051-26.961-67.875-62.305-73.914zm-12.695 111.41c-10.125 0-19.633-4.0117-26.773-11.324-3.6367-3.7109-8.4922-5.6445-13.406-5.6445-3.7305 0-7.4805 1.125-10.742 3.3945-25.406 17.758-60.227 17.773-85.668-0.019531-7.5195-5.2305-17.758-4.293-24.133 2.2695-7.1445 7.3125-16.652 11.324-26.777 11.324-20.68 0-37.5-16.82-37.5-37.5 0-20.418 16.387-37.086 36.711-37.5 0.73047 0.09375 1.6328 0.16797 2.1172 0.1875 9.6562 0.039062 17.117-6.1133 18.918-15.055 7.0156-34.84 37.934-60.133 73.504-60.133s66.488 25.293 73.5 60.133c1.8008 8.9609 9.8984 14.945 18.938 15.055 0.99219-0.039062 1.9492-0.13281 1.3125-0.1875 20.68 0 37.5 16.82 37.5 37.5s-16.82 37.5-37.5 37.5z"/>
 <path d="m819.34 1032.9-30.992-72.32c35.023-42.844 55.406-97.105 55.406-154.37 0-85.461-44.305-160.67-111.07-204.21l67.801-156.47 275.16-146.76c12.355 10.574 24.469 21.543 36.113 33.168 3.543 3.5664 8.3242 5.5156 13.254 5.5156 1.2383 0 2.5117-0.13281 3.7695-0.39453 6.168-1.2578 11.305-5.5508 13.648-11.398l37.5-93.75c2.7734-6.957 1.1641-14.906-4.1641-20.211-124.46-124.46-289.93-193-465.93-193h-219.64c-176 0-341.47 68.531-465.94 192.99-5.3047 5.3086-6.9375 13.258-4.1602 20.215l37.5 93.75c2.3438 5.8516 7.4609 10.145 13.648 11.398 6.2422 1.2188 12.562-0.67578 17.023-5.1016 11.625-11.625 23.738-22.594 36.113-33.168l275.16 146.76 67.801 156.47c-66.77 43.52-111.07 118.73-111.07 204.19 0 57.262 20.383 111.52 55.426 154.37l-30.992 72.32c-24.715 5.9453-43.184 28.07-43.184 54.562v37.5c0 31.012 25.238 56.25 56.25 56.25s56.25-25.238 56.25-56.25h300c0 31.012 25.238 56.25 56.25 56.25s56.25-25.238 56.25-56.25v-37.5c0-26.492-18.469-48.617-43.164-54.562zm-13.086-226.69c0 41.551-12.695 81.227-34.969 114.56l-58.781-137.14v-14.926c0-21.695-12.469-40.352-30.508-49.727l35.551-82.031c53.531 37.297 88.707 99.207 88.707 169.26zm-350.68 147.07 31.93-74.492v100.29c-11.57-7.5547-22.219-16.238-31.93-25.801zm88.18-203.32h112.5c10.352 0 18.75 8.3984 18.75 18.75v168.75h-150v-168.75c0-10.352 8.3984-18.75 18.75-18.75zm100.18-37.5h-87.863l-40.781-94.086c25.879-11.719 54.508-18.414 84.715-18.414s58.836 6.6953 84.711 18.414zm-118.93 262.5h150v18.75c0 10.352-8.3984 18.75-18.75 18.75h-112.5c-10.352 0-18.75-8.3984-18.75-18.75zm187.5-96.168 31.93 74.492c-9.7109 9.5625-20.363 18.242-31.93 25.801zm217.86-713.93 47.887-47.887c25.48 12.227 50.137 26.176 73.836 41.867l-44.906 44.906c-24.766-14.66-50.414-27.656-76.816-38.887zm-105.92 225.38 84.055-193.99c47.961 19.688 93.414 45.469 135.39 76.93zm-30.188-24.695-39.375-210.04c40.555 5.3438 80.156 14.625 118.41 27.656zm323.66-79.609c-24.676-22.707-50.867-43.199-78.227-61.648l43.406-43.406c19.914 15.02 39.133 31.18 57.355 48.711zm-176.4-185.27-49.332 49.332c-69.691-24.582-143.75-37.539-219.86-37.539h-53.57v-56.25h91.07c80.68 0 159.02 15.281 231.69 44.457zm-360.26-44.457v56.25h-53.57c-71.023 0-140.3 11.27-205.91 32.758l-49.648-49.648c68.812-25.746 142.37-39.359 218.06-39.359zm-376.65 140.59-45.301-45.297c24.168-15.262 49.273-28.82 75.188-40.539l48.375 48.375c-26.852 10.742-53.008 23.211-78.262 37.461zm240.52-41.266-39.375 210.04-79.031-182.38c38.25-13.031 77.852-22.312 118.41-27.656zm-363.04 130.41-22.539-56.344c21.488-20.68 44.25-39.617 68.043-56.773l44.043 44.043c-31.496 20.285-61.496 43.273-89.547 69.074zm74.008-12.734c42-31.461 87.43-57.242 135.39-76.93l84.055 193.99zm276.26 153.79 51.637-275.34c14.477-1.0117 29.027-1.6875 43.688-1.6875h144.66c14.664 0 29.195 0.67578 43.688 1.6875l51.617 275.34-68.023 156.99c-30.469-13.723-64.125-21.523-99.617-21.523s-69.148 7.8008-99.617 21.508zm-38.605 379.22c0-70.051 35.176-131.96 88.707-169.26l35.551 82.031c-18.039 9.375-30.508 28.031-30.508 49.727v14.926l-58.781 137.14c-22.273-33.336-34.969-73.012-34.969-114.56zm18.75 318.75c0 10.352-8.3984 18.75-18.75 18.75s-18.75-8.3984-18.75-18.75v-37.5c0-10.352 8.3984-18.75 18.75-18.75s18.75 8.3984 18.75 18.75zm37.5-37.5c0-21.73-12.523-40.406-30.602-49.762l20.477-47.758c17.363 15.188 37.012 28.031 58.555 37.93l0.33594-0.73047c10.258 13.766 26.535 22.82 44.984 22.82h112.5c18.449 0 34.727-9.0547 44.98-22.82l0.33594 0.73047c21.562-9.8984 41.211-22.742 58.555-37.93l20.477 47.758c-18.09 9.3555-30.598 28.031-30.598 49.762zm375 37.5c0 10.352-8.3984 18.75-18.75 18.75s-18.75-8.3984-18.75-18.75v-37.5c0-10.352 8.3984-18.75 18.75-18.75s18.75 8.3984 18.75 18.75z"/>
</svg>
