<?xml version="1.0" encoding="UTF-8"?>
<svg width="1200pt" height="1200pt" version="1.1" viewBox="0 0 1200 1200" xmlns="http://www.w3.org/2000/svg">
 <path d="m837.89 668.06c23.25-52.5 65.672-64.406 97.312-52.875 31.688 11.531 56.531 47.906 40.547 103.03-1.5938 5.4375-3.375 10.969-5.3438 16.406-5.5312 15.141-12.562 29.578-20.625 43.172-9.4688 1.875-19.641 2.8125-30.562 2.8125h-13.547c-30.797 0-61.781-12.984-87.797-36.281 2.1094-20.391 6.4219-40.641 13.594-60.328 1.9688-5.4375 4.125-10.781 6.4688-16.031zm-311.81-61.031c0-5.8125 0.1875-11.531 0.5625-17.25 3.8438-57.328 39.656-82.969 73.359-82.969s69.469 25.688 73.359 82.969c0.375 5.7188 0.5625 11.438 0.5625 17.297 0 33.328-6.8906 66.234-19.5 96-18.047-0.60938-34.969-7.7812-48.047-20.906-21.844-21.844-48.844-36.656-78.188-43.641-1.2656-10.406-2.1562-20.906-2.1562-31.453zm-312.66 90.375c-1.9688-5.4375-3.75-10.875-5.3438-16.359-15.938-55.219 8.8594-91.5 40.547-103.08 31.688-11.438 74.062 0.375 97.312 52.875 2.2969 5.2031 4.4531 10.547 6.4688 16.031 5.1094 14.062 8.7656 28.594 11.297 43.172-16.406 12.75-39.328 17.859-62.438 12.609-11.906-2.7188-24.281-4.0781-36.703-4.0781-16.453 0-32.391 2.625-47.625 7.1719-1.125-2.8125-2.4375-5.4844-3.4688-8.3906zm908.63 174.47c0 2.625-2.2031 4.7812-4.875 4.7812h-1034.3c-2.7188 0-4.875-2.1562-4.875-4.875v-50.25c0-2.7188 2.2031-4.875 4.875-4.875l245.95 6.5625-171.52-32.625c1.2656-1.4531 2.7188-2.625 3.9375-4.2188 24.562-32.953 62.156-51.844 103.22-51.844 9.75 0 19.406 1.0781 28.734 3.1875 38.719 8.8125 78.328-2.0156 103.36-28.219 24.469-25.641 57.516-39.75 93-39.75 34.5 0 66.984 13.406 91.359 37.781 25.781 25.781 61.406 36.562 97.688 29.438 39.562-7.875 82.406 4.0781 112.36 31.922 33.141 30.75 73.875 47.719 114.66 47.719h13.547c27.609 0 52.219-5.1094 73.219-15.141 40.312-19.312 89.438-16.969 127.97 6.4219 0.9375 0.5625 1.6406 2.1562 1.6406 3.75v60.188zm-89.297-342.66c-17.766-1.4531-31.453 7.9219-43.688 14.625-3.6094 2.625-7.2188 4.5469-10.547 6.7031 10.078-33.609 17.531-67.922 22.547-102.7-5.5312-20.625-34.781 37.219-57.375 90.234-6.2344-19.688-8.1562-41.531-26.859-58.078-2.625-2.3906-7.2188 0-6.7031 3.6094 1.9219 20.859-3.6094 43.219 0.23438 65.766 2.1562 8.3906 3.375 17.062 4.0781 25.922 11.297 0.23438 22.547 2.1562 33.141 6 10.078 3.8438 20.156 9.375 29.062 16.547 4.7812-5.0625 10.312-10.078 16.547-14.859 17.062-13.922 26.391-32.625 41.062-47.062 3.1406-1.6875 2.3906-6.4688-1.4531-6.7031zm-349.69-146.39c-18.703 20.391-35.531 37.219-60 47.062-1.2188 0.46875-2.8594 1.4531-4.5469 2.1562-0.23438-4.3125-0.46875-8.8594-0.9375-13.219-3.6094-26.859-2.8594-72.938-16.312-95.297-2.625-0.70312-5.2969 0.9375-5.7656 3.375-7.2188 34.312-12 68.859-14.156 103.45-11.766-18-21.844-40.078-43.453-48.703-3.6094-1.2188-5.7656 3.375-3.6094 6 8.8594 20.625 10.078 47.062 21.844 68.391 4.5469 6.9375 8.1562 13.688 11.062 20.391 10.781-3.8438 22.078-5.5312 32.859-5.5312 9.1406 0 18.469 1.2188 27.844 3.8438 1.9219-5.2969 5.0625-9.1406 10.547-12.469 28.078-14.859 48.703-44.859 52.312-75.844 0.70312-4.0781-5.0625-6.9375-7.6875-3.6094zm-408.71 84.938c-15.375 7.2188-26.391 18.938-33.844 33.375-13.922-32.391-30.234-63.609-49.219-93.844-17.531-12.703-2.3906 51.844 14.625 107.3-14.859-6-31.219-7.9219-48-3.8438-2.8594 0.9375-3.8438 5.0625-1.2188 6.9375 19.219 15.609 35.766 28.781 49.922 43.453 9.1406-7.6875 19.219-13.219 29.531-17.062 11.062-3.8438 22.312-6 33.844-6.2344 1.4531-20.156 6-40.547 10.781-64.781 0.70312-3.6094-3.1406-6.7031-6.4688-5.2969z"/>
</svg>
