<?xml version="1.0" encoding="UTF-8"?>
<svg width="1200pt" height="1200pt" version="1.1" viewBox="0 0 1200 1200" xmlns="http://www.w3.org/2000/svg">
 <path d="m928.56 384.48c-10.797-5.2812-21.117-9.1211-31.438-11.039-4.3203-13.203-9.8398-25.922-15.84-39.121-13.68-30-30-60-25.441-94.078 3.3594-25.199 23.762-28.559 43.199-28.559 37.68 0 22.801 62.16-5.0391 50.879-2.8789-1.1992-5.0391 2.3984-2.3984 4.0781 58.32 36.719 83.762-80.879 12.48-97.68-39.84-9.6016-69.359 5.5195-91.441 38.641-31.68 48-3.8398 122.16 14.879 168.24 1.1992 3.1211 2.3984 6.2383 3.6016 9.3594-17.039 11.281-30.961 28.801-40.801 51.359-1.6797 3.6016 2.3984 6.4805 5.2812 4.0781 11.039-9.3594 27.84-16.078 45.359-19.441 1.9219 14.641 0.48047 29.52-6.9609 44.398-16.32 32.645-74.398-32.152-84.238-42.715-11.039-11.52-23.039-25.441-36-39.602-19.684-44.398-54.48-68.637-105.12-71.277h-8.8789c-2.8789-0.23828-6-0.23828-8.8789 0-50.398 2.6406-85.199 26.879-104.88 71.281-12.961 13.922-24.961 28.078-36 39.602-9.8438 10.559-67.926 75.355-84.484 42.477-7.6797-14.879-8.8789-29.52-6.9609-44.16 17.762 3.3594 34.32 10.078 45.359 19.441 3.1211 2.6406 6.9609-0.23828 5.5195-4.0781-9.8398-22.559-23.762-40.078-40.801-51.359 1.1992-3.1211 2.3984-6.2383 3.8398-9.3594 18.719-46.078 46.559-120.24 14.879-168.24-21.84-33.121-51.602-48-91.199-38.641-71.281 16.801-45.602 134.4 12.48 97.68 2.6406-1.6797 0.48047-5.2812-2.3984-4.0781-28.078 11.512-42.957-50.645-5.2773-50.645 19.199 0 39.84 3.1211 43.199 28.559 4.5586 33.84-12 64.078-25.441 94.078-6.2383 12.961-11.758 25.68-16.32 38.883-10.078 1.918-20.637 5.7578-31.199 11.039-57.598 29.52-70.078 121.68-46.32 174.72 33.602 74.879 104.4 107.76 183.84 78.961 6.7188-2.3984 13.441-5.2812 19.922-8.3984-3.1211 12.719-6 24.957-9.3594 36.238-9.1211 31.441-20.398 76.801-52.078 93.602-46.562 24.477-137.76 9.1172-85.922-63.121 0.95703-1.4414-0.72266-3.3594-2.1602-2.8789-43.441 13.918-57.121 72.238-26.641 107.28 37.441 42.723 103.68 53.043 154.8 29.52 55.68-25.199 82.797-80.16 99.117-136.08 0.71875 37.922 6.4805 74.641 21.359 110.64 3.1211 7.4414 6.7188 14.641 10.801 21.359-17.039 10.32-35.52 19.199-50.16 27.602-47.277 27.598-83.52 72.957-70.797 130.08 7.6797 35.52 42.961 58.559 76.559 46.078 3.6016-1.4414 2.8789-6.2383-0.23828-7.4414-47.281-20.875-28.801-70.078 2.8789-94.078 22.32-17.039 55.441-25.922 81.602-35.281 7.4375-2.6367 14.637-5.7578 21.598-9.5977 6.9609 3.8398 14.16 6.9609 21.359 9.6016 26.16 9.3594 59.52 18.238 81.84 35.281 31.68 24 50.16 73.199 2.8789 94.078-3.1211 1.1992-3.6016 6 0 7.4414 33.121 12.477 68.402-10.32 76.082-46.082 12.719-57.121-23.52-102.48-71.039-130.08-14.641-8.4023-32.883-17.043-49.922-27.602 4.082-6.7188 7.6797-13.922 10.801-21.359 14.879-36 20.641-72.961 21.359-110.64 16.32 55.918 43.441 110.88 99.121 136.08 51.121 23.281 117.6 13.199 155.04-29.762 30.48-35.039 16.801-93.359-26.641-107.28-1.918-0.23438-3.5977 1.6836-2.3984 3.125 51.84 72.238-39.359 87.602-85.922 63.121-31.68-16.559-43.199-62.16-52.078-93.602-3.3594-11.281-6.2422-23.52-9.3594-36.238 6.4805 2.8789 13.199 5.7578 19.918 8.1602 79.441 29.039 150.24-3.8438 183.84-78.723 23.762-53.039 11.043-145.2-46.32-174.72zm-384.24 63.359c10.559 0 19.199 8.6406 19.199 19.441 0 10.559-8.6406 19.199-19.199 19.199-10.559 0-19.199-8.6406-19.199-19.199 0-10.801 8.6406-19.441 19.199-19.441zm110.88 38.641c-10.559 0-19.199-8.6406-19.199-19.199s8.6406-19.441 19.199-19.441c10.559 0 19.441 8.6406 19.441 19.441 0 10.559-8.6406 19.199-19.441 19.199zm-335.52 87.359c-50.641-21.121-74.879-101.76-29.281-140.88-0.23828 7.9219 0 15.84 0.96094 24 7.9219 63.84 54.961 96.961 106.32 94.32-24.961 16.797-56.398 31.438-78 22.559zm560.4 0c-21.602 9.1211-53.039-5.5195-78-22.559 51.359 2.6406 98.398-30.48 106.08-94.32 0.96094-8.1602 1.1992-16.078 0.96094-24 45.844 39.117 21.602 119.76-29.039 140.88z"/>
</svg>
