<?xml version="1.0" encoding="UTF-8"?>
<svg width="1200pt" height="1200pt" version="1.1" viewBox="0 0 1200 1200" xmlns="http://www.w3.org/2000/svg">
 <path d="m225.38 261.82c209.81-232.41 548-269.55 754.75-82.906 206.76 186.65 204.29 526.87-5.5195 759.28-209.81 232.41-548 269.55-754.75 82.906-206.76-186.65-204.29-526.87 5.5195-759.28zm199.22 629.75c17.578-12.395 53.34 2.293 82.246 16.609 6.2031 3.0703 29.832 50.184 14.914 87.395-14.914 37.211-82.969 45.469-101.52 21.445-18.539-24.035-50.148-87.023 4.3555-125.45zm128.7 26.566c0 15.91 7.2344 25.188 7.2344 34.488 0 9.3008-7.2344 20.363-7.2344 30.996 0 10.645 13.43 37.969 58.309 37.969 44.879 0 73.262-42.504 73.262-59.977 0-17.473-27.289-97.379-73.262-97.379-24.289 0-58.309 37.992-58.309 53.902zm-189.39-24.926c17.594 20.664 15.539 76.766 10.523 81.77-5.0039 5.0156-11.566 20.027-29.723 20.027-18.168 0-55.586 4.1055-74.473-28.391-18.898-32.496-2.9141-93 11.941-99.984 14.867-6.9844 57.168-2.2695 81.73 26.578zm336.8-26.652c-4.2734 8.6875-4.2734 28.547 0 35.016 4.2734 6.4805 8.375 20.988 8.375 20.988s10.668 44.051 73.02 44.051 68.258-60.035 68.258-69.875c0-9.8281 0.30078-22.02-5.9023-30.18-10.754-14.148-31.355-25.477-44.207-25.477-12.852 0-32.051-1.9688-46.211 2.9141-14.172 4.8945-49.055 13.871-53.328 22.559zm-476.68 24.805c14.902 2.293 27.602-8.5195 32.914-29.832 5.3164-21.324 18.48-24.492 14.578-58.414-2.8086-24.457-12.18-71.891-57.973-61.906-45.781 9.9961-35.016 57.445-35.016 70.598 0 11.316 3.9961 73.199 45.492 79.559zm294.18-22.609c6.7695 0.097656 58.246-29.578 59.375-59.09 1.1172-29.496-7.332-91.32-29.148-90.973-21.816 0.34766-61.645 16.152-73.355 26.52-11.723 10.367-29.137 33.277-29.137 59.473 0 26.195 4.9219 63.059 72.266 64.066zm-132.86-19.609c31.465-13.535 55.094-82.766 12.133-122.89-12.133-11.34-19.668-23.305-39.492-13.691-17.23 8.375-38.605 15.422-47.641 32.426-3.8164 7.1641-17.605 62.195-3.8164 83.09 13.789 20.891 44.363 35.891 78.816 21.07zm432.98-63.875c-0.20312 13.777-3.2656 31.32 22.008 36.637 25.273 5.3164 42.18 23.578 57.973 26.258 15.781 2.6758 90.023 0.94922 90.023-41.629 0-18.324-12.59-18.324-13.246-42.551-0.66016-24.238-37.141-41.629-52.078-41.762-14.941-0.14453-49.535 4.9922-64.824 22.117-15.289 17.125-39.324 4.9219-39.852 40.934zm-200.82-87.828c17.531-10.391 72.035-2.3281 86.438 13.992 14.398 16.32 52.285 52.129 44.676 72.324-7.6094 20.195-31.031 35.605-47.398 40.211-16.355 4.5977-50.352 7.8594-66.254-4.6094-15.887-12.457-48.574-103.5-17.461-121.92zm147.79-94.703c15.48-5.1484 46.957 3.3359 65.426 12.312 18.457 8.9883 50.496 36.312 46.848 63-3.6836 26.93-28.164 47.52-40.992 52.715-12.828 5.1953-48.887 6.0469-60.086 0-11.195-6.0352-48.07-40.078-48.07-55.895 0-15.816 25.297-68.281 36.875-72.133zm-527.09 80.34c8.5664-15.012 1.8945-83.688-11.531-94.57-13.43-10.883-30.348-15.277-39.805-10.164-9.4453 5.1133-33.035 35.41-33.035 75.359 0 39.961 7.9336 67.285 28.129 71.664 20.184 4.3789 45.191-22.945 56.242-42.289zm239.39 29.305c29.484-8.9648 65.555-28.668 68.746-66.637 3.5742-42.637-45.996-74.52-88.934-46.402-7.7383 5.0742-51.383 28.957-44.496 91.066 1.6797 15.191 16.297 25.836 27.035 28.055 3.2266 0.67188 13.703-0.10938 26.902-3.2031 3.3594-0.63672 6.9375-1.5859 10.738-2.8789zm-198.14-21.672c23.617 26.23 90.469-7.4648 97.945-60.996 3.7422-26.867-19.031-41.004-35.52-51.371-18.875-11.879-23.219-11.879-34.379-7.2461-5.2578 2.1719-4.8477 11.699-22.691 17.617-13.906 4.6094-21.973 31.105-21.984 44.316-0.035157 26.449-0.035157 39.168 16.633 57.684zm665.9-164.12c35.555-13.105 85.691 10.477 97.969 45.984 12.289 35.496-17.207 77.074-62.41 91.754-45.203 14.676-58.344 4.8945-65.605-3.1914-7.2461-8.0742-34.598-47.363-34.285-63.359 0.3125-16.008 26.52-57.238 64.332-71.184zm-313.74 8.6875c11.039-6.2656 54.574-17.879 78.887 13.465s2.9297 91.355-18.145 99.625c-21.07 8.2695-39.73 20.773-85.766-27.121-10.656-11.09 13.969-79.703 25.02-85.969zm-80.398-20.641c18.266-3.9375 42.539-4.1992 47.879 20.34 5.3398 24.539-14.508 66.434-27.805 67.812-13.297 1.3672-67.68-22.176-67.68-56.062 0-18.828 37.043-29.82 47.605-32.09zm289.5 63.504c17.27-5.6289 68.016-66.695 55.668-87.238-12.359-20.531-46.922-16.02-59.449-25.668-12.527-9.6367-39.059-21.012-54.793-16.906-15.73 4.1172-46.68 46.859-44.785 69.289 1.9062 22.43 25.477 52.992 52.402 55.414 26.93 2.4258 21.469 14.734 50.953 5.1133zm-502.33-73.246c0 29.039 17.09 73.453 68.004 73.453 50.914 0 63.07-41.699 63.07-73.453 0-31.754-21.996-53.016-33.312-57.984-11.328-4.957-48.516-6.2266-66 4.3789-15.719 9.5391-31.766 24.551-31.766 53.605zm-87.445-100.55c24.18 0 49.57 30.527 49.57 57.348 0 61.234-28.441 99.023-38.688 100.96-10.262 1.9336-18.18 3.3359-25.262-1.9336-7.0781-5.2695-34.414-37.789-34.414-99.023 0-22.871 17.555-57.348 48.793-57.348zm229.87-30.07c27.793-31.789 78.18-31.105 109.29 0 14.016 14.004 2.1133 106.77-63.48 120.21-37.703 7.7383-82.586-78.168-45.805-120.21zm242.62-29.629c12.371 3.4805 37.789 43.68 34.441 61.414-5.0039 26.605-47.844 78-65.508 82.777-17.09 4.6211-65.543 0.49219-69.422-49.992-3.8633-50.473 48.781-108.76 100.49-94.199zm225.34 10.5c36.48-4.8945 78.059 14.93 78.059 47.23 0 32.305-5.6992 66.996-68.914 71.676-49.848 3.6836-26.988-12.18-63.227-21.926-44.328-11.914-52.223-16.129-49.668-35.809 2.543-19.68 44.93-53.293 103.75-61.176zm-576.95-88.801c21.66-1.7891 50.102 24.781 52.895 51.637 2.7852 26.855 6.4062 71.605-27.203 83.879-33.613 12.266-56.762 18.348-79.273-16.414-22.5-34.766-4.5703-77.543 7.7891-92.809 12.359-15.254 20.102-24.156 45.793-26.293zm433.51 93.469c29.316 16.477 90.984-12.109 99.312-30.961 8.3398-18.863 6.0859-78.613-61.559-100.97-63.719-21.047-81.266 38.375-84.91 58.031-4.3438 23.449 15.527 56.125 47.16 73.895zm-226.15-59.832c-15.602 16.465-39.637 20.242-62.914 20.242-23.281 0-37.547 5.2812-59.062-16.234-21.527-21.527-17.652-74.258 29.594-99.91 16.906-9.1797 25.02-21.047 57.023-8.9648 12.18 4.6094 41.953 15.012 46.727 31.055 4.7773 16.043 4.2227 57.336-11.363 73.812zm132.7-130.05c18.086-4.957 51.012 26.258 45.996 56.438-5.0039 30.18-73.008 94.859-113.22 88.188-19.754-3.2891-24.504-43.738-21.91-63.602 3.8047-29.113 13.297-60.238 89.137-81.023z" fill-rule="evenodd"/>
</svg>
