<?xml version="1.0" encoding="UTF-8"?>
<svg width="1200pt" height="1200pt" version="1.1" viewBox="0 0 1200 1200" xmlns="http://www.w3.org/2000/svg">
 <path d="m525.62 1038s0.67188 0.046875 1.9805 0.16797c0.64844 0.046875 1.4648 0.12109 2.4258 0.20312 0.48047 0.035156 0.99609 0.085937 1.5469 0.13281 0.52734 0.035157 0.22656-0.085937 0.38281-0.097656 0.097656-0.058594 0.20312-0.058594 0.34766 0.058594 0.44531-0.058594 1.1289-0.21484 1.7773-0.22656 1.3203-0.21484 2.832-0.68359 4.7266-1.4414 3.6836-1.8242 9.2539-5.7461 15.156-13.812 5.9531-7.8008 11.941-19.141 17.27-32.594 5.3047-13.512 10.031-29.195 13.906-46.262 1.9336-8.5312 3.6719-17.426 5.1602-26.531 0.74219-4.5469 1.4297-9.168 2.0039-13.754l0.22656-1.7383c0.035156-0.39453-0.16797 2.7969-0.070312 1.332l0.011718-0.23828 0.070313-1.4062 0.20312-3.7422 0.42188-7.5586c0.22656-4.9922 0.67188-10.297 0.74219-15.156-0.32422-4.3086-0.64844-8.6641-0.98437-13.031 0-8.5312-2.375-18.312-3.9102-27.828-1.6914-9.5898-5.0273-19.152-7.5-28.848-3.6133-9.5625-6.5625-19.285-10.703-28.883-7.9062-19.246-16.883-38.34-26.328-57.336l-3.4922-7.0938-1.4648-2.9766-1.8828-3.4805c-2.7461-5.125-4.3906-7.5234-7.2617-11.902-5.3281-8.0039-11.449-15.949-17.605-23.902-12.254-15.961-25.043-31.727-35.172-49.379-5.1016-8.7344-9.5391-18.07-12.336-28.199-0.71875-2.5078-1.4766-4.957-1.8125-7.6445l-0.625-3.9258-0.43359-2.918-0.10938-1.4023v-0.39453c-0.023438-2.1367-0.046875-4.2461-0.085938-6.3242 0.25391-2.832 0.50391-5.6406 0.75781-8.4102 3.3125-19.621 11.242-33.898 18.539-45.938 7.4414-11.977 14.891-21.434 21.254-28.969 12.805-14.988 21.191-22.559 21.191-22.559l0.44531-0.40625c4.6328-4.1875 11.785-3.8281 15.973 0.80469 4.043 4.4766 3.8164 11.316-0.35938 15.539 0 0-7.3203 7.3672-18.336 21.781-5.4492 7.2109-11.773 16.223-17.652 26.977-5.8555 10.609-11.473 23.543-12.781 36.18-0.011719 1.2734-0.097656 2.543-0.23828 3.8281l0.42188 6.1914 0.023437 0.39453 0.011719 0.19141c0.011719 0.28906-0.12109-1.7266-0.046875-0.80469l0.14453 0.58984 0.26562 1.1875 0.51563 2.3867c0.22656 1.5859 0.88672 3.2539 1.4766 4.9062 2.1953 6.6367 5.8789 13.621 10.547 20.652 9.1211 14.172 21.805 28.402 35.102 43.836 6.6602 7.7383 13.586 15.742 20.328 24.742 3.1445 4.1172 7.5 10.344 9.8984 14.426l2.0742 3.3711 2.2812 4.0195 3.9258 6.9961c10.523 18.574 21.047 38.074 30.684 58.332 4.957 10.02 8.9766 20.785 13.477 31.164 3.5273 10.945 7.7891 21.562 10.465 32.785 2.5312 11.34 5.7461 22.031 6.6953 34.402 0.66016 6.0117 1.3086 11.988 1.957 17.914 0.20312 5.4102 0.046875 10.332 0.085937 15.457v7.5703l-0.011719 3.7578v1.4062l-0.10937 2.0273-0.14453 1.9805c-0.38281 5.3047-0.86328 10.488-1.4141 15.602-1.1172 10.223-2.4961 20.172-4.1523 29.844-3.3125 19.367-7.7031 37.703-13.309 54.707-5.7344 16.992-12.625 32.734-21.793 46.512-8.9023 13.754-20.867 25.535-33.742 32.855-6.5156 3.5742-12.961 6.0586-18.77 7.5586-2.9531 0.66016-5.5938 1.2461-8.2305 1.6797-2.9648 0.3125-5.6758 0.51563-8.1133 0.625-1.1289 0.035157-2.1836 0.070313-3.1797 0.10938-0.55078-0.023438-1.0781-0.035157-1.5586-0.046876-0.96094-0.023437-1.7773-0.046874-2.4375-0.070312-1.3086-0.035156-1.9805-0.058594-1.9805-0.058594-16.57-0.42188-29.652-14.207-29.219-30.77 0.43359-16.57 14.207-29.664 30.781-29.23 0.51172 0.023438 1.1719 0.058594 1.6758 0.10547z"/>
 <path d="m906 899.48s-0.011719 1.1172-0.011719 3.2656c-0.20312 2.4844 0.58984 3.6367-1.2461 14.016-1.6328 9.8984-4.957 16.621-9.3242 24.742-4.6211 7.6562-10.633 15.348-18.035 22.344-15 13.754-34.285 26.797-61.199 33.805-13.441 3.2539-28.934 5.9883-48.168 1.1758-4.8711-1.7148-9.7695-3.2266-14.555-5.8086-2.3867-1.4766-4.7773-3.0352-7.1172-4.6797l-3.457-2.5195-0.43359-0.3125-2.5195-2.4375-0.39453-0.43359-0.79297-0.88672-3.2266-3.5742c-1.2227-1.4766-1.7148-1.5234-4.1172-5.2305-3.6484-5.8086-8.0273-12.887-8.8086-18.84-0.71875-3.1211-1.3086-6.2773-1.7539-9.4453-0.28906-3.1094 0.046875-6.0859 0.20312-9.1562 0.17969-6.4453 1.9219-11.387 3.5625-16.68 1.6328-5.3867 4.1055-9.1445 6.3008-13.754 2.375-4.1055 4.9805-7.6914 7.5586-11.543 10.656-14.125 22.668-25.223 35.004-35.797 12.422-10.633 25.078-19.883 36.781-29.797 11.711-9.9961 26.965-21.324 40.273-30.852 27.371-19.609 55.414-38.52 80.172-60.434 12.289-10.969 23.531-22.727 33.035-35.328 8.9023-12.816 16.273-26.363 19.836-40.777 1.043-3.5742 1.1289-7.2969 1.8008-10.945l0.86328-5.4961-0.15625-5.6055-0.13281-10.465c-0.66016-4.3555-1.3086-9.1797-2.1836-11.676-3.1328-13.262-11.34-27.59-20.508-42.035-9.1094-14.566-19.738-30.457-25.922-49.547-6.4336-18.898-6.4688-40.273-1.9805-58.285 4.2227-18.086 11.016-33.527 15.758-47.902 4.8008-14.363 7.3438-27.562 5.2305-39.66-0.70703-2.9883-1.0547-6.0352-2.3281-8.8789l-1.5352-4.3555-2.1602-3.8164c-1.8125-3.2148-3.625-6.4062-5.3984-9.5625l-5.6406-6.7812c-1.6094-2.3047-3.8516-4.5859-6.3125-6.8047-2.3516-2.2422-4.6797-4.4766-6.9727-6.6836-5.2578-4.043-9.9844-8.2578-15.371-12.012-20.746-15.254-43.055-28.727-58.262-46.367-15.77-18.742-23.316-35.965-31.547-48.742-3.7812-6.7188-7.7539-11.688-10.945-16.5-3.7188-4.043-6.6133-7.8828-9.3711-10.391-5.7344-4.6914-8.7852-7.1992-8.7852-7.1992l-1.2734-1.0312c-3.4219-2.7969-3.9258-7.8477-1.1289-11.27 2.7344-3.3359 7.5977-3.8867 11.004-1.332 0 0 3.9492 2.9648 11.352 8.5195 3.4922 2.9648 7.0664 7.2109 11.641 11.941 3.7188 5.0742 8.5938 10.883 12.707 17.594 8.9141 13.066 18 30.312 30.781 44.316 13.754 14.965 34.379 26.387 57.109 41.699 5.6875 3.6602 11.387 8.2422 17.258 12.48 2.8086 2.4844 5.6523 4.9805 8.5078 7.5 2.8672 2.4258 5.7461 5.1016 8.4961 8.5312 2.7461 3.2656 5.5312 6.5508 8.3281 9.875 1.9219 3.1211 3.8633 6.2773 5.8203 9.4453l1.4531 2.375 0.73047 1.1992 0.35937 0.60156 0.19141 0.30078 0.71875 1.3672 2.5195 6.1445c1.8711 4.043 2.7852 8.5078 3.9102 12.949 3.9258 18.086 0.50391 36.816-4.2109 52.859-4.7539 16.246-10.535 31.246-13.246 45.816-2.9023 14.398-2.1719 28.234 2.8555 41.723 4.8945 13.535 14.062 26.699 24.098 41.293 9.8984 14.699 20.93 30.695 27 51.816 1.8242 5.9648 2.3867 9.9492 3.2539 14.316l0.16797 0.81641c0.27734 1.957 0.097656 0.80469 0.16797 1.3672l0.035156 0.48047 0.13281 1.9219 0.23828 3.8281 0.44531 7.6914 0.38281 7.7148-0.76953 7.7266c-0.66016 5.125-0.81641 10.391-2.0039 15.406-4.2109 20.449-13.402 38.914-24.098 55.488-11.184 16.176-23.953 30.434-37.285 43.285-26.746 25.559-55.285 46.273-81.277 66.516-13.355 10.441-24.191 18.996-36.516 30.266-12.371 11.27-24.707 21.07-35.113 30.742-10.5 9.6484-19.906 19.441-26.195 28.609-1.2461 2.2188-2.7969 4.4531-3.875 6.4922-0.57422 1.8594-2.1016 4.043-2.1836 5.3984-0.23828 1.3789-0.9375 2.9414-0.51562 3.3945 0.085937 0.3125-0.21484 0.74219-0.10938 0.96094 0.25391 0.13281 0.35938 0.23828 0.34766 0.37109-0.011719 0.070312-0.058594 0.15625-0.12109 0.25391 0.035156-0.097656 0.097656-0.32422 0.058594-0.48047-0.058594-0.32422-0.32422-0.60156-0.74219-0.69531-1.1641-0.61328 1.0078 1.3789 1.8828 2.3398l3.3594 3.4453 0.82812 0.85156 0.40625 0.43359c-0.94922-0.92578 2.4375 2.3633-2.0898-2.0273h0.070312l0.50391 0.097656c0.28906 0.097656 0.52734 0.25391 0.74219 0.49219 0.68359 0.30078 1.8477 0.3125 2.6172 0.83984 4.5703 1.0781 12.742 0.12109 19.992-2.207 15.098-4.332 27.816-13.789 35.195-21.254 3.7422-3.8516 6.0586-7.3672 7.6094-10.117 1.1992-2.5312 2.0391-5.3398 1.5586-3.7422 0.60156 2.3164 0.45703-3.0117 0.32422-4.8125-0.070312-2.1602-0.12109-3.2539-0.12109-3.2539v-0.10937c-0.57422-16.559 12.383-30.457 28.957-31.031 16.559-0.57422 30.445 12.383 31.02 28.957 0.019531 0.35547 0.03125 0.82422 0.03125 1.1602z"/>
 <path d="m451.73 969.7s-1.3789 1.6445-3.9609 4.7031c-2.9766 3.1562-8.3984 8.1719-13.344 11.16-4.2969 2.4102-9.5039 5.2305-14.723 6.793-21.707 7.332-47.578 7.4766-77.172 0.33594-7.4141-1.8828-15.086-4.3555-23.09-7.8359-4.0195-1.8477-8.0742-3.6953-12.324-6.3477-2.0898-1.2109-4.1875-2.4609-6.4219-4.2227l-3.2656-2.4727-1.6211-1.2617-1.8711-1.6445-0.23828-0.25391-0.48047-0.50391c-2.5195-2.6758-5.0742-5.375-7.668-8.125-2.9766-3.5742-6.1445-7.8008-9.1328-11.809-3.3594-4.2969-4.9336-7.5977-7.4141-11.461-2.3398-3.7422-4.5703-7.5234-6.4922-11.328-8.3398-15.215-15.18-30.973-21.863-46.691l-4.9336-11.711-2.8203-6.7578-2.1953-6c-1.4531-3.457-3.0117-9.4922-4.3906-14.449-1.3086-5.125-1.9453-9.7422-2.8438-14.617-4.9805-38.734 2.2578-73.992 6.9727-105.29 2.4258-15.492 4.6797-30.949 5.1016-43.812 0-1.7773 0.10938-3.7812 0.035156-5.3398l-0.35937-4.0195c0.011718-2.5938-0.9375-5.6055-1.3203-8.3633-1.4883-5.5078-3.2656-10.801-5.9531-15.742-5.0898-9.9258-12.012-18.758-18.434-26.832-6.4688-8.0508-12.336-15.48-16.836-21.875-4.5469-6.3828-7.8477-11.746-9.9102-15.504-2.0625-3.7578-3.168-5.7461-3.168-5.7461-2.5547-4.6445-0.86328-10.477 3.7812-13.02 4.4141-2.4375 9.8984-1.0195 12.625 3.1211l0.38281 0.58984s1.0938 1.668 3.1328 4.7891c2.0391 3.1211 5.2578 7.5703 9.8047 13.055 4.5352 5.5078 10.43 11.941 17.605 19.621 7.0781 7.7266 15.625 16.812 23.27 29.195 3.8984 6.0859 7.1055 13.262 9.7422 20.93 0.98438 3.9961 2.375 7.6914 2.9141 12.254l0.98438 6.6836 0.37109 5.5938c0.66016 16.512-0.625 31.934-1.8711 48.254-2.6523 32.062-6.0859 65.508 0.15625 94.668 0.96094 3.457 1.7773 7.2852 2.8438 10.355 1.2734 3.168 1.6445 5.4727 3.7695 9.7578l2.6406 5.8086 0.16797 0.35938 0.085938 0.17969c-0.78125-1.7891-0.16797-0.38281-0.3125-0.74219l0.35938 0.71875 0.73047 1.4297 1.4531 2.8438 5.7617 11.258c7.5977 14.734 15.098 28.871 23.148 41.23 1.9336 3.2266 3.9844 6.1445 6.0469 8.9141 1.9805 2.6055 4.1758 6.1914 5.8555 7.7656 1.7266 2.0391 3.4336 4.0547 5.125 6.0586 2.7852 2.5312 5.5312 5.0508 8.2578 7.5234l0.50391 0.45703 0.25391 0.23828c-2.9023-2.6055-0.75781-0.70703-1.3906-1.2617l0.085938 0.035157 0.60156 0.32422 1.1641 0.69531c0.625 0.49219 1.6797 0.97266 2.7461 1.4414 1.8711 1.0312 4.332 1.8711 6.6602 2.7461 4.8242 1.668 10.008 2.9297 15.109 3.8047 10.234 1.7539 20.004 2.0273 27.938 1.3789 8.0391-0.53906 13.969-2.4102 17.207-3.9102 1.957-0.68359 2.4102-1.4648 3.2148-1.8359-0.13281-0.22656-1.9453 1.332-1.8008 2.0039 2.3398-3.2539 3.5898-4.9922 3.5898-4.9922l0.097656-0.14453c9.6953-13.453 28.465-16.5 41.914-6.8047 13.453 9.6953 16.5 28.453 6.8164 41.902-0.45703 0.57422-0.94922 1.1992-1.4062 1.75z"/>
 <path d="m356.88 202.7s0.66016 1.0195 1.9336 3.0117c0.63672 0.99609 1.4414 2.2305 2.375 3.6953 0.48047 0.73047 0.98438 1.5234 1.5234 2.375 0.51562 1.1875 1.0781 2.4492 1.6797 3.7812 1.0664 2.7344 2.6172 5.8438 3.457 9.2773 0.53906 3.4453 1.5469 7.2227 1.6562 11.34 0 8.2188-1.3438 18.07-5.9648 26.914-8.5078 18.348-24.672 34.117-43.32 49.801-18.742 15.707-41.102 31.066-63.312 48.863-10.969 8.9023-22.129 18.574-30.359 29.27-3.9961 5.3047-7.2617 10.906-8.0039 15.77-0.9375 4.9219-0.67188 8.9414 2.4102 13.727 5.2188 9.7188 18.672 19.332 32.977 26.844l2.6523 1.5 0.66016 0.38281c-0.011719 0 0.50391 0.27734 0.058593 0.035156l0.37109 0.17969 1.4883 0.73047 5.9648 2.9414c3.8984 1.7773 7.3555 3.3594 11.363 5.0039 7.8711 3.3008 16.066 6.2773 24.434 9.168 33.613 11.496 70.262 19.922 107.95 32.641 18.805 6.4688 38.09 14.051 56.773 26.039 9.2656 6.1211 18.383 13.535 26.195 22.98 7.8125 9.3711 14.016 20.941 17.242 33.133 1.7891 6.0703 2.5781 12.289 3.0117 18.359l0.19141 4.5469 0.070313 2.2812 0.011719 0.5625c-0.058594 1.0195 0.14453-1.4883-0.12109 2.4375l-0.097656 0.91016-0.74219 7.2734c-0.13281 8.6172-3.8516 21.852-7.5117 33.527-8.3516 20.965-20.074 39.098-32.676 55.402-25.668 32.051-54.086 58.031-79.703 83.543-25.57 25.273-48.77 50.172-63.742 75.336-2.1836 3.0703-3.4062 6.2891-4.9688 9.4062-1.3906 2.8438-2.7617 5.6875-4.1289 8.5078-3.4453 8.9766-3.9258 11.844-4.8477 17.426-0.71875 9.9102 1.1289 14.508 6.6367 20.797 5.832 6.1914 15.781 12.168 26.207 17.051 10.559 4.9219 21.758 9.0469 32.52 12.816 22.523 7.5703 42.168 14.172 58.332 19.609 16.621 5.7734 29.879 11.051 38.891 15 9 4.0664 13.812 6.2539 13.812 6.2539 15.109 6.8164 21.805 24.602 14.988 39.707-6.8281 15.098-24.602 21.805-39.707 14.977-0.25391-0.12109-0.49219-0.22656-0.73047-0.33594l-1.2461-0.625s-4.0195-1.9688-11.543-5.6641c-7.6328-3.6367-19.129-8.6758-34.547-14.605-15.996-5.9414-35.41-13.164-57.684-21.445-11.508-4.4648-23.953-9.4336-37.355-16.199-13.285-7.0078-28.152-15.254-42.121-30.805-6.8281-7.8477-13.02-18.059-16.273-29.543-3.3359-11.473-3.5625-23.473-1.9922-34.234 1.4648-10.031 5.7969-22.535 8.5078-28.621l0.28906-0.70703c-0.046875 0.085938 0.81641-2.0039 0.55078-1.3086l0.20312-0.39453 0.80469-1.5703 1.6445-3.1797 3.3125-6.3477c2.2578-4.2109 4.3555-8.6641 7.1055-12.395 20.508-31.883 47.27-57.91 74.305-83.172 27.012-25.129 55.211-49.609 78.434-76.859 11.293-13.703 20.988-28.105 27.625-43.078 1.8945-6.8984 5.0898-12.047 5.8555-23.051l0.97266-7.2461 0.12109-0.91016c-0.26562 3.6133-0.070312 0.80469-0.14453 1.5234v-0.34766l-0.011719-1.3789-0.011719-2.7617c-0.15625-3.625-0.43359-7.1875-1.3438-10.477-2.9141-13.309-12.277-24.781-25.98-34.414-13.754-9.5039-30.445-17.004-47.688-23.484-34.668-12.996-71.52-22.754-106.73-36.012-8.8086-3.3477-17.543-6.8516-26.125-10.766-4.2461-1.8945-8.8438-4.1758-12.973-6.2383l-5.8672-3.1211-1.4648-0.78125-1.7891-1.0312-3.0352-1.8477c-15.949-9.6133-32.664-20.004-43.645-40.078-5.7344-9.5625-7.2734-23.281-4.3086-34.008 2.6289-11.172 8.3633-19.414 13.957-26.484 11.543-13.922 24.121-23.746 36.059-32.93 24.047-18 46.414-32.34 64.57-46.621 18.07-14.062 32.387-28.008 38.566-40.715 3.6133-6.2656 4.1523-12.012 4.5234-16.906 0.035156-2.4727-0.63672-4.7148-0.75781-6.8281-0.39453-2.0156-1.2617-3.5156-1.6562-5.0898-0.25391-0.78125-0.48047-1.5117-0.69531-2.207-0.51562-0.86328-0.99609-1.668-1.4531-2.4102-0.89844-1.5-1.6562-2.7461-2.2578-3.7695-1.2109-2.0273-1.8359-3.0703-1.8359-3.0703-2.8672-4.7891-1.3086-11.004 3.4805-13.871 4.7031-2.8086 10.754-1.3789 13.703 3.1914z"/>
 <path d="m475.09 258.64s-0.19141 2.3047-0.53906 6.6484c0.023437 3.9258-1.6445 11.594-4.043 20.566-1.4648 4.0938-2.9883 8.7227-4.8945 13.609-2.1836 4.6562-4.332 9.9102-7.0547 15.156-5.4961 10.477-12.109 22.008-20.137 33.793-15.758 23.867-36.395 49.621-58.008 76.738-10.703 13.523-21.973 27.551-31.211 41.566-5.1836 7.7383-9.8281 15.254-14.242 22.633-4.3203 7.6211-8.6289 15.301-12.266 23.09-7.3555 15.492-13.02 31.43-14.773 46.008-0.10938 3.3359-0.80469 7.6914-0.60156 10.066 0.28906 4.2617 0.14453 9.6016 0.79297 12.91 0.82812 6.7812 2.2188 15.012 3.8164 23.172 6.5273 32.723 15.91 66.035 14.746 99.48 0.17969 8.1367-1.5234 16.691-2.6875 24.504-2.3164 7.9922-3.793 15.707-7.4883 22.598-1.668 3.457-3.2773 6.8047-4.8359 10.055-1.9336 3.0234-3.9844 5.832-5.9023 8.5781-1.9688 2.7109-3.8398 5.3516-5.7344 7.7539-2.125 2.1133-4.1523 4.1289-6.0703 6.0352-7.6445 8.0625-14.496 12.277-19.105 15.434-4.6328 3.1094-7.1055 4.7656-7.1055 4.7656-13.754 9.2266-32.375 5.5547-41.605-8.1953-9.2266-13.754-5.5547-32.375 8.1953-41.617 0.35938-0.25391 0.73047-0.48047 1.0938-0.70703l3.6836-2.2305s1.4141-0.85156 4.0781-2.4609c2.6992-1.5703 7.0078-3.6719 10.738-7.3203 1.0547-0.82812 2.1836-1.7148 3.3477-2.6406 0.88672-1.0938 1.8125-2.2422 2.7852-3.4336 1.0195-1.1758 2.0742-2.3867 3.1797-3.6484 0.80469-1.4883 1.6445-3.0117 2.5078-4.6094 2.2305-2.8555 2.9766-7.1758 4.7539-11.148 0.81641-4.6562 2.4727-9.168 2.6523-14.977 1.3789-11.004 0.63672-24.551-0.98438-39.445-1.5703-14.953-4.3672-31.234-6.707-49.273-1.0938-9.0234-2.1602-18.289-2.5664-29.363-0.37109-5.5781 0.10938-9.2773 0.12109-14.051 0.17969-6.6602 1.3438-11.281 2.0742-17.027 4.2227-21.469 12.887-40.234 22.57-57.574 4.8477-8.7109 10.188-16.859 15.562-24.961 5.6523-8.1133 11.258-15.875 16.738-22.945 12.012-15.684 24.301-28.836 36.07-41.809 23.566-25.691 45.227-49.246 61.668-70.777 8.3984-10.656 15.18-20.844 20.844-30.012 2.8086-4.5859 4.957-9.0234 7.2344-13.055 1.8242-4.1406 3.4922-7.9336 5.0039-11.363 2.125-6.5898 3.9844-11.219 4.3555-16.043 0.64844-4.2969 0.99609-6.5898 0.99609-6.5898l0.011719-0.070312c0.78125-5.207 5.6406-8.7852 10.836-8.0039 4.9961 0.74609 8.4883 5.2461 8.1055 10.191z"/>
 <path d="m480.98 1045.6s-0.875 0.13281-2.5781 0.37109c-0.43359 0.070312-0.89844 0.14453-1.4414 0.21484l-0.50391 0.070312-1.9805 0.12109c-1.3555 0.058594-2.8086 0.058594-4.332-0.023438-5.7969-0.070312-14.555-2.5312-17.328-4.5703-2.0742-1.1289-4.2344-2.4102-6.3945-3.8867-2.0391-1.4414-3.2383-2.7461-4.957-4.3086-3.5508-3.2539-5.7969-6.3359-8.1719-9.7188-4.6094-6.7422-7.8711-13.754-10.609-21.301-5.207-15.457-9.4219-31.789-8.6055-55.523 0.035157-2.832 0.60156-6.5391 1.1523-10.043 0.17969-1.5703 0.86328-4.0195 1.5-6.2031l1.0312-3.3125 0.27734-0.81641 0.14453-0.40625 1.3672-3.0469 0.42187-0.74219 1.7148-3.0352c0.34766-0.60156 0.42188-0.81641 1.0078-1.7383l2.1133-3.0352c2.8203-3.9375 6.5898-8.3867 8.7227-10.094 10.129-9.5391 20.23-15.719 30.527-21.516 20.484-11.305 42.516-20.426 64.008-30.238 11.352-5.0156 18.695-9.3477 31.262-16.727 11.688-6.6133 22.738-12.66 33.887-19.262 11.051-6.5508 22.02-13.391 32.051-20.891 9.9727-7.4297 19.402-15.719 25.355-23.902 3.1914-4.1055 4.5352-7.8125 5.4609-10.727-0.046876-0.64844-0.011719-1.2461 0.13281-1.8945l0.12109-0.48047 0.070312-0.25391c-0.25391-1.8711 0.40625 2.4375 0.3125 1.8477l-0.058594-0.3125-0.91406-5.2344c-0.16797-0.58984-0.23828 0.070312-0.25391 0.035156-0.023438 0.26562 0.45703 0.42188-0.14453-0.25391-0.92578-1.8828-4.1992-4.9062-9.3008-7.957-5.0273-3.1094-11.594-6.2539-18.695-10.559-6.9961-4.3203-15.445-10.105-21.719-19.957-3.1797-4.7148-5.2695-10.621-6.2539-16.008l-0.5625-4.1172-0.23828-2.0625-0.046875-0.51562c-0.023437-0.73047-0.011718 0.89844-0.058594-1.7539l0.023438-0.67188 0.23828-5.3047c2.2188-22.836 14.914-35.785 21.574-46.078 7.1055-10.523 8.4727-15.816 5.7109-25.633l-0.10938-0.44531c-0.35937-0.91016 0.45703 1.0195 0.3125 0.70703l-0.13281-0.28906-0.50391-1.1875-1.0078-2.3633-2.0039-4.7148c-1.2852-3.3828-2.7461-5.8555-4.1758-8.2812l-4.2969-7.5859-5.2305-7.9805c-14.172-21.266-30.91-40.738-45.91-60.816l-5.2695-7.0195-5.5664-7.043c-3.707-3.9727-6.8867-7.7383-11.062-11.664-7.8008-7.7891-16.141-15.012-24.059-22.02-16.02-13.957-31.066-26.953-43.586-39.648-12.59-12.59-22.559-25.164-29.039-36.887-3.6133-5.5781-5.3984-11.605-7.5352-16.355-1.2461-5.2305-2.5195-9.625-3.0117-13.285-0.37109-7.4531-0.5625-11.426-0.5625-11.426-0.19141-3.6836 2.6406-6.8047 6.3242-6.9961 3.5391-0.17969 6.5898 2.4609 6.9609 5.9531l0.14453 1.3672s0.32422 3.1211 0.9375 8.9648c0.52734 2.8906 1.8242 6.3828 2.9531 10.5 2.1133 3.9102 3.625 8.6641 7.0938 13.402 6.0586 9.7578 15.551 20.699 28.078 31.992 12.434 11.398 27.637 23.242 44.496 36.48 8.4102 6.7188 17.258 13.598 26.172 21.625 4.4141 3.7188 9.1445 8.5938 13.691 13.152l5.9141 6.7422 6.0352 7.2344c15.191 18.359 33.191 37.176 49.824 59.496l6.2266 8.5195c2.0742 3 4.1172 6.4688 6.168 9.7305 2.1133 3.3477 4.1406 6.7188 5.4258 9.6719l3.3867 6.9141 0.5625 1.1523 0.14453 0.28906 0.51562 1.2969 0.26562 0.79297c3.1328 8.1016 4.7539 18.254 3.0977 28.164-1.5977 9.9492-6.0586 18.336-10.078 24.938-4.0938 6.6719-7.9062 12.133-10.402 17.074-2.5664 4.7383-3.6953 9.7695-3.8984 12.254l0.035156 5.3164v0.67187c-0.023437-2.4375 0.023438-0.60156 0.023438-1.1055l0.046875 0.14453 0.16797 0.57422 0.23828 1.1523c0.40625 1.4766 0.76953 2.4727 1.7148 3.5273 1.5117 2.125 5.0156 4.8242 10.246 7.6211 5.1953 2.832 11.641 5.5195 18.973 9.457 7.1406 3.9492 15.926 9.2266 22.945 19.176 1.7148 2.0742 3.4453 5.5547 4.8359 9.0703 0.64844 1.5977 1.4648 3.8164 1.7539 4.9336l0.58984 2.5938 0.58984 2.5781 0.085938 0.32422c-0.035156-0.37109 0.625 4.1758 0.33594 2.5078l0.035157 1.0781 0.023437 2.1719c0.011719 2.8789-0.070313 5.7852-0.25391 8.6758-1.7539 10.906-5.9297 20.398-10.848 27.742-9.8398 14.988-21.406 25.465-32.832 35.09-11.496 9.5391-23.195 17.664-34.703 25.297-11.426 7.5977-23.039 14.746-33.383 21.312-5.5312 3.5898-11.004 7.1289-16.414 10.645-6.1914 3.707-12.012 6.8516-17.652 9.8164-22.441 11.617-42.684 21.359-59.074 31.586-8.0625 4.9805-15.07 10.32-18.828 14.426-1.5977 1.4648-0.58984 0.97266-0.76953 0.69531-0.011718-0.085937-0.046874-0.16797-0.097656-0.26562-0.097656 0.035157-0.48047 0.91016-0.70703 1.332l-1.5469 3.1094-0.38281 0.76953c-1.1523 2.543 1.4414-3.2266 1.1992-2.6523h0.070313l0.12109-0.023437c0.046876 0.011718-0.023437-0.30078 0 0.37109 0.011719 0.92578-0.19141 1.5859-0.085937 3.0977 0.070313 11.016 3.6602 24.539 7.0664 32.305 3.0352 8.6875 8.2188 10.668 2.6289 6.9102 0 0-5.6641-2.5195-9.0234-1.9336-0.89844 0.046874-1.7539 0.16797-2.543 0.33594l-1.1289 0.27734c-0.058594 0.035156 0.21484-0.035157 0.30078-0.046875 0.51562-0.10938 0.99609-0.20312 1.4141-0.28906 1.6914-0.33594 2.5547-0.51562 2.5547-0.51562 16.246-3.2539 32.074 7.2617 35.34 23.508 3.2656 16.246-7.2461 32.074-23.496 35.34-0.46875 0.097657-0.9375 0.17969-1.4141 0.25391z"/>
 <path d="m617.2 974.48c3.3242 1.043 7.1172 2.3398 10.094 3.168 0.53906-0.74219 0.33594-0.74219 1.0938-0.53906 1.9062-0.35938 3.7422-0.50391 5.7344-0.66016 2.2305-0.69531 4.4531-1.2969 6.7305-1.8359 9.5156-3.3008 20.051-9.3359 30.191-16.488 10.234-7.1172 20.09-15.875 29.508-24.984 9.4219-9.1328 18.422-19.055 26.316-29.195 3.8984-4.9336 7.7031-10.414 10.332-14.52 3.6367-6.168 7.6445-12.719 10.344-17.93 5.9883-10.969 11.242-22.836 12.684-31.055 0.97266-4.3086 0.60156-6.8516 0.19141-8.8672-0.097656-1.9336-1.7891-3.875-3.7422-6.7695-5.0508-5.8086-15.156-12.84-26.293-18.961-10.895-5.9023-25.801-13.355-38.699-21.035-13.223-7.668-26.195-16.078-38.93-25.379-12.73-9.3242-25.246-19.523-36.973-32.387-11.41-12.863-23.496-28.152-28.715-51.145l-1.5859-8.6641c-0.13281-3.0703-0.058593-6.2383 0.023438-9.3477 0.17969-3.1328 0.15625-6.2891 0.73047-9.3242 0.73047-3.0117 1.5469-6.0234 2.4492-9.0117l1.4023-4.4648 0.74219-2.207 0.19141-0.55078c-1.3906 2.7227 2.0039-4.0078 1.6797-3.3477l0.085938-0.15625 0.33594-0.58984 2.7227-4.6914 0.68359-1.1758 1.7031-2.3164c1.2734-1.668 2.6289-3.3008 4.0312-4.8828 2.7109-3.0234 6.168-6.6367 8.4727-8.0273 10.43-8.1367 20.988-11.688 30.648-14.363 4.8359-1.2227 9.3594-1.8945 13.992-2.6875 4.3438-0.42188 8.8672-0.99609 13.066-1.1875 16.934-0.89844 32.41 0.097656 47.207 1.1289 14.641 1.043 29.039 2.3867 40.559 2.293l-27.562 19.57v-0.023438c1.6328-4.4531 3.6602-9.1094 5.0898-13.391 0.89844-3.9375 2.8789-8.6406 2.9141-11.746 1.5234-7.7266 0.69531-10.934-1.3438-15.238-0.58984-2.1602-3.2383-4.4766-5.4609-6.9961-0.86328-1.3438-3.1797-2.3984-4.6797-3.6719l-2.5312-1.8594-1.3086-0.97266-0.63672-0.48047-0.15625-0.12109-0.085938-0.058594c-0.37109-0.20312 3.0859 1.5352 1.5586 0.76953l-0.48047-0.23828c-1.0781-0.52734-2.9648-1.5469-3.3711-1.6797-0.011719 0.13281 0.25391 0.14453 0.14453 0-1.332-0.38281-2.9023-0.81641-4.9453-1.1172-4.0312-0.61328-9.1445-0.92578-14.746-1.1758-11.387-0.74219-24.996-0.33594-41.258-6.3828-3.9375-1.3906-8.125-3.6133-11.93-6.1211l-2.8672-2.0391-1.4023-1.043-1.7656-1.4414-0.37109-0.37109-3.0469-3-1.6211-1.6328-2.2578-2.5938-4.2969-5.3164c-1.9922-3.2539-4.332-6.4688-5.8555-9.8047-6.7422-13.309-9.8281-26.688-11.438-39.254-1.6211-12.602-1.957-24.758-2.0391-36.336l-0.13281-16.824c-0.046874-6.3945-0.19141-11.281 0.10938-18.121 0.21484-6.4219 0.73047-12.695 2.0625-19.586 1.2734-6.7305 3.5156-14.195 7.7656-20.953 4.0547-6.7695 9.6133-12.277 14.711-16.211 5.1836-4.1758 10.117-7.3672 14.902-10.57 9.5273-6.3008 18.613-12.348 27.348-19.105 17.953-13.848 35.832-27.383 50.102-43.523 7.0664-8.0508 13.164-16.812 17.09-26.375 3.9492-9.5273 5.543-19.906 4.1875-30.301-0.40625-3.0977 1.7656-5.9297 4.8594-6.3359 2.9023-0.38281 5.6055 1.5703 6.2539 4.3789 2.7344 12.059 1.9688 25.117-1.7773 37.008-3.6953 11.953-9.9258 22.738-17.016 32.461-14.363 19.453-31.859 35.148-48.613 50.676-8.6406 7.9922-17.93 15.457-26.809 22.535-8.9141 7.1172-16.934 13.703-19.488 19.906-3.1562 5.8438-3.4062 15.73-2.9766 25.766 0.15625 4.5586 0.85156 11.039 1.3438 16.02l1.6914 17.293c1.0664 11.16 2.375 21.77 4.5703 31.633 2.1133 9.8633 5.4258 18.719 9.6953 25.379 0.97266 1.8008 2.3047 3 3.3359 4.5703 0.48047 0.39453 0.88672 0.75781 1.2461 1.1758l0.53906 0.64844c0.25391 0.28906 1.0195 0.86328 1.5 1.2734l3.2891 2.7227 0.42187 0.33594c-2.1484-1.8125-0.57422-0.49219-1.0312-0.89844l0.046876 0.011719 0.097656 0.035157 0.34766 0.15625 0.68359 0.34766c1.0195 0.42188 1.9453 0.89844 3.4453 1.1875 5.3867 1.5586 15.109 1.3555 26.34 0.78125 5.7734-0.23828 12.07-0.51562 19.379-0.13281 3.6484 0.17969 7.6914 0.69531 11.93 1.5 2.6289 0.60156 5.6055 1.5 8.3281 2.4258l4.4414 1.7383 0.49219 0.20312 1.9453 0.98438 0.27734 0.16797 1.1758 0.67188 2.3281 1.3555 4.668 2.7461c3.1094 2.0508 6.1797 3.2891 9.2773 6.0977 6.1914 5.1719 12.395 10.152 17.484 18.059 2.7344 3.5742 5.1602 7.3555 6.7422 11.797 1.6328 4.2617 3.8164 8.7227 4.5117 13.008 0.76953 4.3086 1.4141 8.6758 1.9219 13.055 0.38281 4.2852-0.058594 7.9805-0.15625 12.012-0.070313 8.3633-1.9688 14.555-3.1562 21.793-1.5469 6.6953-3.5156 12.742-5.3164 19.152v0.023438l-6.5273 19.465-21.047 0.12109c-17.398 0.085938-31.812-1.4883-46.008-2.4375-14.027-1.0195-27.48-1.7383-39.434-1.0781-11.988 0.30078-22.008 3.6602-24.277 5.6758-0.89844 0.38281 0.43359-0.16797 0.5625-0.67188 0.16797-0.27734 0.26562-0.61328 0.30078-0.96094-0.011719-0.058594 0.12109-0.61328-0.085938-0.28906l-0.68359 1.1758-2.7227 4.6914-0.33594 0.58984-0.085937 0.15625c-0.38281 0.74219 2.9648-5.8672 1.5469-3.0586v0.10938l-0.011718 0.39453-0.12109 0.74219c-0.13281 0.48047-0.32422 0.9375-0.61328 1.3906-0.13281 0.48047 0.16797 0.99609 0.097656 1.4648 0.011719 0.48047-0.14453 0.9375-0.25391 1.4648 0.25391 0.66016 0.44531 1.2969 0.57422 1.957 0.97266 5.4102 6.4062 14.508 14.23 22.883 7.7148 8.5547 17.652 16.836 28.246 24.562 10.598 7.7383 21.875 15.109 33.684 21.938 11.965 7.1055 22.969 12.504 37.5 20.352 13.945 7.9922 28.715 16.633 42.91 32.543 6.7422 8.4727 13.609 18.77 16.297 31.211 2.9531 11.988 2.6641 24.254 0.625 34.066-4.0312 20.258-11.543 34.789-19.141 49.223-4.0195 7.5703-7.6094 13.32-11.305 19.621-5.0898 8.125-9.6602 14.438-14.676 20.879-9.8867 12.648-20.363 24.18-31.68 35.184-11.352 10.957-23.172 21.492-36.648 30.938-13.477 9.4336-28.055 18.266-45.887 24.492l-14.207 3.8164c-5.1836 0.79297-10.535 1.3203-15.805 1.7773-6.4336-0.011718-13.848-0.91016-20.496-2.1719l-10.586-3.3242c-15.805-4.957-24.602-21.793-19.633-37.609s21.805-24.602 37.609-19.645z"/>
 <path d="m788.9 314.91s1.7539 1.5586 5.0039 4.4883c3.2891 2.7109 8.0039 7.4023 13.934 13.945 5.7227 6.4805 12.254 14.316 18.926 24 6.8516 9.5508 13.777 20.809 20.746 33.434 6.9492 12.637 13.715 26.734 19.922 42.098 6.2539 15.348 11.723 32.051 16.246 49.812 4.1523 17.867 7.3203 36.84 7.6211 56.965l-0.49219 15.301-2.207 15.684-0.15625 0.98438-0.035156 0.25391-0.48047 1.6914-0.12109 0.42188-0.50391 1.668-0.99609 3.3477-1.9922 6.707c-0.45703 2.0742-1.6328 4.7148-2.9141 7.4414l-3.7422 7.9688c-10.273 19.812-22.332 34.477-31.945 49.02-2.2188 3.5391-4.7539 7.0781-6.6836 10.547l-5.375 10.199c-1.2109 3.3125-2.3984 6.625-3.5898 9.8984l-0.45703 1.2109-0.23828 0.61328-0.058594 0.15625c0.13281-0.43359-0.35938 1.1875 0.26562-0.9375l-0.097656 0.39453-0.74219 3.2383-1.5 6.4219c-2.8672 15.805-2.1836 21.887 3.4688 33.203 1.7031 3.0703 3.3711 6.0859 5.0273 9.0586 1.9453 3.3242 3.8516 6.6016 5.7461 9.8164 3.8398 6.875 7.8359 13.332 11.387 21.277 3.6016 8.1367 6.2773 15.18 8.4375 23.398 0.96094 4.3086 2.0039 8.0742 2.3867 13.188 0.19141 2.5312 0.55078 4.4883 0.32422 7.7266l-0.26562 4.4141-0.20312 2.1719-0.058594 0.53906-0.58984 2.7109-0.12109 0.51562c-0.61328 2.7852-1.2109 5.4727-1.7773 8.0742-1.5703 4.7891-4.0547 10.43-6.5391 14.891-5.2422 8.1602-11.578 13.98-15.191 16.969-7.3555 6.0977-6.3945 6.1445-7.5352 7.7773-0.55078 1.4766-1.0781 2.1016-1.0781 2.1016l-5.5664 6.5508c-10.535 12.383-29.102 13.883-41.484 3.3477-11.039-9.3828-13.414-25.176-6.3359-37.246 0 0 1.9453-3.3359 6.0352-9.2773 1.9219-3 5.3164-6.2539 8.9648-10.055 3.5039-3.0859 8.0508-6.6602 10.633-8.3984 2.8789-2.0156 3.0469-2.5078 3.5273-2.4258-0.30078 0.070312-0.45703 1.1172 0.13281 1.0664 0.75781-2.543 1.5703-5.1836 2.3867-7.9062l0.15625-0.50391 0.046875-0.13281c0.49219-2.1836-0.63672 2.7969-0.51562 2.3047h-0.023438l-0.035156 0.023437c0 0.011719 0.011719 0.035156 0.070313 0.058594 0.21484 0.30078 0.046874-0.70703 0.097656-1.1992 0.20312-0.9375-0.25391-3.2656-0.46875-5.2188-0.67188-4.2344-2.3398-9.9258-4.0195-14.762-1.6914-5.0625-4.8711-11.328-7.9062-17.891-1.6797-3.4336-3.3711-6.9375-5.1133-10.488-1.8125-4.0078-3.6719-8.0742-5.543-12.203-1.7656-4.6797-3.6602-9.7578-5.0391-15.133-0.9375-5.7461-2.5781-11.617-2.2305-17.438-0.085937-5.8672 0.058594-11.746 1.3203-17.426l1.6211-8.5938c0.58984-2.832 1.2852-4.3555 1.9336-6.625l1.9688-6.2891 0.99609-3.1797 0.13281-0.38281c0.67187-2.2578 0.25391-0.75781 0.42187-1.3203l0.097657-0.23828 0.40625-0.9375 0.81641-1.8594c2.2188-4.9453 4.4141-9.9961 6.8281-14.832 2.7617-4.3906 5.5547-8.8086 8.3398-13.262 2.8672-4.2734 5.9648-7.9805 8.9531-12.012 12.012-15.121 24.539-28.945 32.484-41.785l2.7344-4.4531c0.96094-1.3789 1.9453-2.8789 2.7227-5.3281l4.3672-11.484 2.6055-11.734 1.332-12.312c1.043-16.68-0.38281-33.77-2.9023-50.258-2.8789-16.465-6.7422-32.363-11.484-47.172-4.7031-14.809-10.043-28.598-15.684-40.992-5.6406-12.383-11.352-23.52-17.09-32.941-5.5312-9.5273-11.184-17.438-15.793-23.578-2.375-3-4.5-5.6641-6.3477-7.9922-2.0156-2.3164-4.0078-4.2461-5.4844-5.8438-3.0234-3.168-4.6445-4.8594-4.6445-4.8594-2.7227-2.8086-2.6406-7.2852 0.17969-9.9961 2.6875-2.5898 6.9219-2.6016 9.6445-0.19141z"/>
 <path d="m916.22 977.45-0.26562 2.2578-0.035156 0.25391 0.14453-0.94922c0.070313-0.64844 0.12109-1.2852 0.12109-1.9453 0.011719-1.3086-0.13281-2.6289-0.38281-3.875-0.25391-1.2461-0.55078-2.7227-1.0664-4.0312-0.51562-1.4023-1.1523-2.4492-1.9453-3.9102-0.81641-1.4531-1.8477-2.832-3.0234-4.0547-1.2852-1.2617-2.2578-2.1602-3.3125-2.9883-1.0938-0.82812-2.2812-1.5469-3.5156-2.1133-1.0664-0.49219-1.5117-0.74219-2.3516-1.0547-0.74219-0.26562-1.5234-0.46875-2.3047-0.61328l-1.0664-0.25391c-0.625-0.13281-1.6094-0.070313-1.4766-0.14453-0.13281-0.023438-0.25391-0.011719-0.37109 0.035156l-8.3281 1.7891c14.16-5.1953 26.41-12.227 34.402-21.336 8.0273-9.0352 12.324-20.207 12.695-33.516 0.34766-13.246-3.4336-28.043-10.379-41.676-7.043-13.848-16.332-25.883-28.57-36.637-13.945-12.227-28.668-25.703-42.383-39.145-13.883-13.547-27.324-27.852-39.984-43.094-25.199-30.238-48.098-65.113-58.812-106.25-2.7734-10.164-4.3438-20.797-5.1953-31.414-0.13281-5.6523-0.61328-10.043-0.37109-16.703 0.14453-3.7578 1.0664-11.734 2.125-16.512 4.2344-20.664 10.789-38.016 13.129-53.941 1.1992-7.8359 1.1172-14.844-0.50391-19.895-0.44531-1.2344-0.71875-2.5781-1.4531-3.5898l-0.83984-1.6914-0.046875-0.10938c-0.16797-0.23828 1.3086 1.7266 0.625 0.80469l-0.26562-0.34766-0.55078-0.69531-1.0781-1.3906c-1.4648-1.9336-3.0234-3.9258-3.6953-4.2617-0.83984-0.76953-1.5352-1.6914-3.0352-2.6641-9.9609-8.1484-27.203-11.062-46.633-15.648-9.707-2.4258-20.293-5.5938-30.445-11.461-2.5781-1.2852-4.957-3.2031-7.3789-4.8711l-1.8008-1.3086-0.99609-0.80469-0.32422-0.28906-0.66016-0.58984-2.6289-2.3516c-1.5469-1.2461-3.9844-3.8867-6.1211-6.2539-2.293-2.3633-3.875-4.957-5.6758-7.4883-7.1992-10.32-9.7422-24.781-8.0625-36.648 1.7656-11.902 6.0469-21.852 10.367-30.793 8.6758-17.594 18.695-33.434 20.316-47.531 0.51562-6.8047-0.625-12.73-4.8477-18.504-4.0664-5.7734-10.453-11.039-17.566-15.66l-0.26563-0.17969c-5.207-3.3711-6.6836-10.32-3.3008-15.516 3.2891-5.0625 9.9961-6.5898 15.156-3.5273 8.832 5.2578 17.723 11.531 24.984 20.855 7.5352 9.0703 11.387 22.535 10.559 34.441-2.3047 23.82-13.656 40.621-20.398 57.012-3.5625 8.0742-6.1914 15.887-6.875 22.691-0.33594 6.7305 0.71875 11.965 4.5352 17.074 3.0977 4.4766 10.043 10.535 15.926 13.477 6.3125 3.3125 13.992 5.4609 22.586 7.1992 8.6055 1.7656 18.07 3.1211 28.246 5.5938 10.117 2.4727 21.312 6.3008 31.488 13.512 4.7266 3 11.496 9.8516 13.512 12.562 4.1641 4.6797 7.8945 11.23 10.078 17.426 4.5859 12.781 4.4141 25.141 3.3242 35.879-2.4375 21.48-8.6523 39.863-11.09 56.23-0.64844 4.4648-0.86328 5.8555-0.98438 11.496 0.035156 2.7461 0.625 7.7383 0.83984 11.473 1.0195 8.0508 2.4844 16.094 5.0273 23.953 9.6133 31.656 29.844 60.875 53.797 87.168 11.941 13.223 24.828 25.859 38.398 38.027 13.691 12.324 27.203 23.734 42.059 35.711 16.656 13.367 31.738 30.84 42.457 50.195 10.848 19.43 18.348 41.723 18.996 66.168 0.85156 24.254-7.2461 50.93-23.508 70.691-16.094 19.992-37.332 32.426-58.078 40.934l-3.7695 1.5469-4.5586 0.25391h-0.023437l-4.9219 0.097656c-1.4023 0.058594-3.8867-0.19141-6.0234-0.48047l-3.3242-0.5625c-1.5-0.37109-3-0.80469-4.4766-1.3203-1.5469-0.5625-2.7461-0.96094-4.4883-1.8242-1.8594-0.98438-3.6953-2.1133-5.4102-3.3477s-3.3242-2.543-5.0273-4.4766c-1.6445-1.8008-3.1562-3.793-4.4414-5.8438-1.2734-2.0391-2.0039-3.8984-2.8203-5.9883-0.74219-2.0273-1.4297-4.1992-1.7539-6.2031-0.32422-2.0156-0.52734-4.0781-0.57422-6.1562l0.023438-3.0859 0.13281-1.8359 0.27734-2.2578 0.046875-0.42188c2.0039-16.441 16.957-28.164 33.395-26.16 16.387 1.9844 28.098 16.938 26.094 33.379z"/>
 <path d="m563.16 226.78s-4.8945 6.6484-13.477 18.277c-4.5586 5.8203-8.5664 12.875-14.004 20.902-2.7969 3.9258-4.9062 8.5664-7.5859 13.188-2.7227 4.6445-5.2695 9.5898-7.2852 14.844-1.1289 2.6055-2.2695 5.2578-3.4336 7.957-0.78125 2.7227-1.5703 5.4961-2.3867 8.3047-2.0742 5.6172-2.1602 11.34-3.0586 17.148-0.26563 11.543 2.3633 23.207 8.1367 35.305 5.6758 12.098 14.762 24.492 23.953 37.117 9.8867 12.793 19.934 25.789 29.977 38.797 5.125 6.5508 10.176 13.246 15.145 20.016l7.8008 10.586 6.9258 10.094c4.4648 6.625 9.6719 15.277 13.656 22.906 4.1992 7.7539 7.7539 15.887 10.98 24.121 6.1797 16.609 9.8867 34.164 10.621 51.121 0.92578 17.004-1.4414 33.059-4.9219 47.016-3.3008 14.172-8.1953 26.074-12.562 36.48-4.6211 10.199-8.9648 18.828-12.828 25.621-3.6953 6.9961-6.9844 12-9.0859 15.613-2.1484 3.5508-3.2891 5.4375-3.2891 5.4375-8.5781 14.195-27.035 18.742-41.23 10.164-14.195-8.5781-18.742-27.035-10.164-41.23 0.35938-0.60156 0.73047-1.1758 1.1172-1.7266l0.61328-0.86328s1.1055-1.5703 3.1797-4.5c2.0039-2.9531 5.293-7.2227 8.7344-12.781 3.7188-5.5195 7.7266-12.301 12.023-20.137 3.9727-7.8477 8.4258-16.754 11.438-26.566 3.2383-9.8047 5.6406-20.473 5.832-31.871 0.33594-11.398-1.1992-23.605-4.8594-36.348-1.9805-6.3477-4.2227-12.828-7.1641-19.32-1.2617-3.3594-2.9531-6.3359-4.4766-9.5039-1.5859-3.1445-2.9414-6.1914-5.1953-9.8398l-6.168-10.559-6.1445-9.6836c-4.2852-6.8164-8.6992-13.645-13.262-20.449-9.1797-13.836-18.348-27.672-27.383-41.281-8.8672-14.316-17.953-28.477-24.383-44.965-6.5156-16.32-9.4805-34.691-7.5703-51.516 1.6094-8.1367 2.7734-16.273 5.7617-23.113 1.3086-3.5156 2.5078-7.0312 3.875-10.332 1.5977-3.1094 3.168-6.168 4.7031-9.1562 2.9297-6.1211 6.2148-11.496 9.5508-16.379 3.3242-4.9219 6.0977-9.8633 9.4336-13.945 6.4219-8.2188 11.82-16.008 16.586-21.238 9.3828-10.992 14.746-17.258 14.746-17.258 3.9102-4.6094 10.812-5.1719 15.422-1.2617 4.3711 3.7188 5.043 10.234 1.707 14.809z"/>
 <path d="m591.89 1023.9s-2.0039 1.6914-5.7617 4.8594c-1.0312 1.1172-6.3008 4.7656-11.352 7.8711-5.543 3.6953-10.621 5.207-17.016 7.9062-12.672 4.1172-28.344 6.1094-44.555 4.4883-16.246-1.5234-32.988-6.1797-49.609-13.246-16.668-7.0781-33.215-16.559-49.547-28.98l-2.543-1.9453-1.2852-1.1172-2.5781-2.2422-5.2188-4.5117-5.2812-4.5586-6.1211-6.2891c-8.4727-8.4492-15.504-17.617-21.758-28.105-12.816-21.023-17.988-48.602-15.492-72.625 2.3867-24.109 9.3008-45.227 15.277-65.305 6.2539-20.281 11.508-38.605 15.121-58.477 3.793-19.922 6.5742-38.832 7.8945-57.613 1.1641-18.602 0.68359-36.406-1.5469-52.945-2.0508-16.586-6.2891-31.754-11.629-45.203-5.0156-13.609-11.891-25.152-18.168-35.258-6.6719-9.875-13.02-18.227-18.863-24.66-5.4492-6.7422-10.656-11.328-13.871-14.723-3.3008-3.3242-5.0625-5.1016-5.0625-5.1016l-0.69531-0.69531c-5.3047-5.3398-5.2812-13.98 0.058594-19.285 5.1719-5.1367 13.453-5.2578 18.793-0.42188 0 0 2.0273 1.8477 5.832 5.3047 3.7305 3.5508 9.6133 8.293 16.117 15.516 6.8281 6.8516 14.484 15.887 22.645 26.82 7.7773 11.184 16.367 24.227 23.074 39.863 7.0195 15.445 12.863 33.133 16.199 52.211 3.5273 19.043 5.0273 39.359 4.7383 60.07-0.40625 20.531-2.5312 42.023-5.4844 62.832-2.7109 20.965-7.9219 43.344-13.094 63.406-5.1016 20.293-10.008 39.758-10.754 56.93-0.5625 17.148 3.1445 31.105 11.305 43.488 4.1289 6.1562 9.2656 12.227 14.461 16.848l3.7812 3.7695 5.4961 4.2969 5.4375 4.2461 2.6875 2.1016 1.332 1.0547c0.27734 0.22656-1.8008-1.4297-0.85156-0.69531l0.15625 0.10938 0.30078 0.20312 0.61328 0.40625c12.816 8.7852 26.438 15.742 38.988 20.281 12.562 4.6445 24.133 7.0078 33.383 7.3555 9.3125 0.40625 16.008-1.1992 20.734-2.8906 1.8711-1.2227 4.7891-2.0742 4.9805-2.7227 0.88672-0.81641 1.0547-0.011718 3.457-2.4844 3.6016-3.3477 5.5078-5.1484 5.5078-5.1484 12.133-11.293 31.117-10.621 42.422 1.5 11.293 12.133 10.621 31.129-1.5 42.422-0.32422 0.30078-0.67188 0.61328-1.0078 0.89844z"/>
 <path d="m326.05 356.41s0.53906 0.86328 1.5703 2.543c0.51562 0.83984 1.1641 1.8711 1.9336 3.1094 0.79297 1.1289 1.668 2.6406 2.4258 5.0898 4.1406 9.5039 4.9688 21.562 3.4219 36.84-3.5039 30.301-19.043 69.434-42.887 112.85-3.0703 5.3867-6.2148 10.895-9.4062 16.5l-2.4961 4.1875-2.8438 4.4023c-1.7773 2.6992-3.5625 5.4258-5.3633 8.1719-7.2734 10.98-14.387 22.414-23.328 33.805-8.5547 11.543-17.398 23.387-26.844 34.68-9.2773 11.605-18.926 23.219-28.871 34.812l-7.4531 8.7969-1.8711 2.2188-0.9375 1.1055c1.2734-1.5352 0.23828-0.25391 0.46875-0.52734l-0.21484 0.28906-0.43359 0.58984-3.4336 4.668c-2.1953 3.0859-4.8359 6.3125-6.6719 9.3125l-4.3086 8.4727c-5.5547 11.844-9.7695 25.68-10.586 39.875-2.9023 28.453 4.2227 58.727 14.531 87.348 11.062 28.609 25.777 56.258 43.246 81.227l3.2539 4.6914 0.80469 1.1758 0.40625 0.58984c0.49219 0.68359-0.44531-0.61328-0.25391-0.35938l0.22656 0.28906 1.8359 2.3516 7.3438 9.3945c4.9805 5.8086 9 10.211 14.148 15.215 9.9961 9.9609 21.301 18.18 32.832 25.738 23.473 14.688 49.488 24.996 75.395 34.691 25.883 9.6484 51.625 19.188 74.941 30.238 5.5547 2.6406 11.004 5.2305 16.332 7.7539 4.957 2.2578 9.7812 4.5117 14.461 6.4336 9.3359 3.8867 17.867 6.8984 25.199 8.4727 14.652 3.0469 24.098 0.98438 33.133-2.7109 8.9141-3.7305 16.32-9.625 21.266-13.246 4.9688-4.1641 7.6094-6.3711 7.6094-6.3711l1.2344-1.0312c12.707-10.656 31.633-8.9766 42.289 3.7305 10.645 12.707 8.9883 31.633-3.7188 42.277-0.3125 0.26562-0.73047 0.58984-1.0547 0.83984 0 0-3.7188 2.832-10.691 8.1719-7.5234 4.9805-18.07 12.984-35.773 19.668-8.9023 3.0586-19.344 6.1562-31.262 6.6953-11.785 0.68359-24.406-0.71875-36.348-3.8633-11.941-3.1914-23.125-7.8594-34.078-13.008-5.4961-2.5547-10.883-5.3516-16.43-8.207-5.1133-2.6992-10.332-5.4609-15.672-8.293-20.328-10.766-43.777-20.723-69.805-31.738-25.895-11.062-54.59-23.664-82.141-42.602-13.547-9.6953-26.953-20.473-38.688-33.203-5.8555-6.1328-12.133-13.789-17.113-20.27l-6.9258-9.7188-1.7383-2.4375-0.89844-1.2852-0.42187-0.67188-0.83984-1.3203-3.3477-5.3164c-17.977-28.344-32.762-59.195-43.715-91.766-10.129-32.711-17.125-67.801-12.109-103.23 1.9922-17.723 7.6094-34.703 16.152-50.746l7.1641-11.988c2.4375-3.4922 4.8828-6.1914 7.3086-9.3008l3.6367-4.5117 1.5859-1.9336 0.98438-1.0547 1.957-2.1133 7.7539-8.3984c10.402-11.102 20.41-22.129 29.953-33.035 9.875-10.801 18.684-21.613 27.266-32.148 8.832-10.188 16.633-21.527 24.348-32.148 1.9336-2.6641 3.8398-5.3047 5.7344-7.9219l2.543-3.5898 2.5781-3.9258c3.3242-5.2695 6.5898-10.453 9.7812-15.516 24.949-40.871 41.258-78 45.371-104.33 2.1016-12.852 1.1289-23.699-0.68359-28.367-0.085937-1.3086-0.78125-2.7617-1.6211-4.0664-0.70703-1.2734-1.3086-2.3398-1.7891-3.2031-0.96094-1.7148-1.4531-2.6055-1.4531-2.6055-1.9219-3.3828-0.74219-7.6797 2.6406-9.6016 3.2852-1.9062 7.4609-0.79297 9.4531 2.375z"/>
 <path d="m641.75 948.7s-2.7734 2.7969-7.9805 8.0508c-2.5547 2.6172-3.8047 4.5859-6.4922 7.4883-2.207 3.1797-4.9062 6.8164-6.8047 10.645-1.8477 3.7695-3.3594 7.668-3.4336 10.777-0.25391 3.2148 0.035156 5.8438 2.1016 9.6719 3.8516 7.7383 17.93 18.383 36.66 24.926 18.672 6.793 41.773 10.727 65.363 10.129 11.762-0.30078 23.688-1.9453 34.391-5.1953 2.7461-0.74219 5.2188-1.7539 7.7031-2.7461l0.94922-0.35938 0.23828-0.085937c1.1055-0.55078-1.2461 0.66016-0.875 0.46875l0.60156-0.3125 2.3984-1.2461 4.8125-2.4961c3.4336-1.7266 4.8594-3.0703 7.4531-4.5586 2.1367-1.1992 5.4102-3.7305 8.0898-5.5312 11.508-8.0508 23.879-18.145 40.246-26.773 3.8398-2.2695 8.5664-4.0664 13.188-5.8555l3.4688-1.3203 0.86328-0.32422 1.6914-0.49219 0.34766-0.097657 1.3906-0.32422 5.6055-1.3555c1.5859-0.46875 4.3438-0.88672 6.9102-1.2734l7.7266-1.1055 12.527-0.85156c15.77-0.52734 26.219-2.1367 33.312-7.1992 3.0117-2.2578 6.7695-4.668 9.1914-6.8047 1.7266-1.9805 3.5156-3.8516 5.4258-5.6875 1.9062-1.7148 4.0938-5.1133 6.168-7.5703 2.1602-2.5664 4.2109-5.3867 6.0977-8.5195 8.0273-11.711 14.988-25.402 22.297-39.18 7.0078-13.859 15.469-28.777 23.23-41.773 16.031-27.059 31.656-52.477 42.984-78.098 5.2812-12.84 10.414-25.246 12.504-37.969 0.60156-3.3594 1.7383-7.2109 1.8828-10.129l0.76953-8.9023c0.9375-5.7461 0.21484-12.238 0.26562-18.289-1.1289-24.527-8.3867-47.305-19.523-65.387-5.9141-8.9023-11.578-16.992-19.008-24.098-6.7812-6.7188-14.652-13.309-21.91-19.379-14.797-12.18-28.262-23.844-37.98-35.508-9.8281-11.555-15.613-23.016-18.254-31.129-1.668-3.9492-2.0625-7.2734-2.7109-9.3828-0.51562-2.1484-0.78125-3.2656-0.78125-3.2656-1.4766-6.0859 2.2695-12.215 8.3516-13.691 5.8906-1.4297 11.82 2.0273 13.535 7.7773l0.42188 1.4297s0.23828 0.79297 0.69531 2.3398c0.57422 1.5117 0.82813 3.9258 2.2188 6.7422 2.1484 5.832 6.5391 14.027 14.941 23.258 8.3281 9.3008 20.617 19.32 35.941 30.996 7.7031 5.9883 15.828 12.191 24.695 20.328 8.4609 7.5117 16.559 17.699 23.953 28.234 14.473 21.695 24.254 48.961 26.746 78.539 0.25391 7.4766 1.2969 14.746 0.48047 22.859-0.25391 3.9844-0.51562 7.9922-0.76953 12.035-0.23828 4.1172-1.0938 7.1406-1.6094 10.789-2.0898 15.527-7.5469 30.504-12.984 45.145-11.594 28.98-27.18 56.34-41.773 83.258-7.6328 13.98-14.184 26.555-20.844 40.992-6.9102 14.207-13.668 29.027-22.906 43.766-2.0898 3.6953-4.5117 7.3555-7.2461 10.98-2.832 3.707-4.7891 7.1172-8.4102 11.016-3.5391 3.8633-7.2109 7.6797-10.922 11.363-3.4453 3.0977-6.3125 5.0156-9.4922 7.5703-9.6133 7.2852-19.105 10.789-29.242 13.586-9.7422 2.2422-19.008 3.0586-26.473 3.6953l-10.621 1.1055-3.7422 0.68359c-1.2461 0.20312-2.3047 0.23828-4.4141 0.91016l-5.543 1.5586-1.3789 0.38281-0.34766 0.10938c-1.2734 0.37109 1.332-0.40625 0.99609-0.27734l-0.45703 0.21484-1.8477 0.85156c-2.4609 1.1406-4.9062 1.9805-7.5586 3.7422-10.414 5.9141-21.359 15.109-33.66 24.562-3.3477 2.4609-5.7969 4.5977-9.8867 7.2852-3.6133 2.3867-8.0039 5.5312-11.027 7.1641l-4.7266 2.6875-2.3516 1.332-0.58984 0.33594-1.8828 0.91016-1.5352 0.69531c-4.1289 1.8711-8.2422 3.6602-12.312 4.957-16.355 5.6406-32.242 8.1953-47.52 9.2031-30.602 1.8359-59.09-1.8008-85.246-10.078-13.066-4.2227-25.586-9.6836-37.211-17.125-11.555-7.4141-22.477-17.062-30.445-29.746-8.0742-12.551-11.891-28.211-11.27-41.543 0.023437-6.8633 1.4531-12.719 2.6992-18.457 1.6797-5.2188 3.3242-10.43 5.375-14.652 3.9727-8.7344 8.3398-15.203 12.133-20.902 4.1523-5.3516 8.3398-10.738 10.871-13.488 5.0039-5.4492 7.6797-8.3516 7.6797-8.3516l0.070312-0.070313c11.219-12.191 30.203-12.984 42.395-1.7656 12.203 11.23 12.984 30.203 1.7656 42.395-0.28906 0.21875-0.60156 0.54297-0.82031 0.78125z"/>
</svg>
