<?xml version="1.0" encoding="UTF-8"?>
<svg width="1200pt" height="1200pt" version="1.1" viewBox="0 0 1200 1200" xmlns="http://www.w3.org/2000/svg">
 <defs>
  <clipPath id="b">
   <path d="m222.14 401h318.86v335h-318.86z"/>
  </clipPath>
  <clipPath id="a">
   <path d="m616 522h361.86v275h-361.86z"/>
  </clipPath>
 </defs>
 <path d="m638.41 310.44c-1.0352 0.089844-2.0273 0.44922-2.8789 1.0469-3.0586 0.72266-5.9688 1.6289-9.2383 3.3125-4.2305 2.1719-8.8438 4.8828-13.336 7.7578-8.9883 5.75-17.676 12.078-21.27 14.469-64.574 43.023-96.953 110.11-104.6 182-7.6484 71.891 9.0898 148.79 42.711 212.95 0.5625 1.082 1.4453 1.9648 2.5312 2.5273 11.77 5.9648 23.969 8.4102 36.785 5.668 12.816-2.7461 25.992-10.352 41.145-23.273l-0.003906-0.003907c0.58984-0.53906 1.0625-1.1914 1.3945-1.918 7.2344-14.617 7.3125-28.344 7.1484-40.445-0.16016-12.102-0.43359-22.484 4.5312-32.688 23.633-48.555 53.008-77.73 68.602-115.93 15.59-38.203 15.836-84.555-18.219-163.96-2.4453-5.6992-5.625-16.973-10.199-27.371-4.5547-10.359-10.473-20.965-21.531-23.797-1.5781-0.44531-2.7188-0.40234-3.5742-0.35547zm0.69531 11.941c4.293 1.1641 9.5273 7.7422 13.598 16.996 4.1055 9.3359 7.0977 20.055 10.199 27.285 33.406 77.898 32.512 119.57 18.129 154.81-14.383 35.238-43.855 64.934-68.34 115.23-6.4062 13.164-5.8281 26.055-5.6641 38.004 0.15625 11.594-0.3125 22.379-5.7539 33.996-13.59 11.34-24.945 17.805-34.605 19.875-9.4258 2.0234-17.824 0.089844-27.195-4.3555-31.84-61.73-47.984-135.55-40.707-203.97 7.3594-69.195 38.07-132.48 99.457-173.38 4.125-2.75 12.469-8.8633 21.094-14.383 4.3125-2.7578 8.6953-5.3438 12.379-7.2344 3.5938-1.8477 6.6641-2.7773 7.4102-2.875z"/>
 <path d="m631.95 682.29c-3.5508 0.91406-5.6875 2.7227-7.0586 4.2695-0.039062 0.042969-0.050781 0.042969-0.089843 0.089844-0.03125 0.035156-0.14453 0.042968-0.17578 0.089844-21.008 21.977-37.254 34.488-50.559 39.66-13.371 5.1953-23.809 3.9141-36.348-2.4414l0.003906 0.003906c-0.41406-0.22656-0.85547-0.40234-1.3086-0.52344-23.984-5.918-40.105-16.801-62.762-28.328-1.4805-0.76562-3.2109-0.87109-4.7734-0.28906-1.5586 0.58203-2.8008 1.793-3.418 3.3398-4.4805 11.023-9.5586 23.254-11.246 35.824-1.6875 12.574 0.48438 25.926 10.371 37.047 10.523 11.832 21.629 19.016 26.238 31.293 3.4961 9.3125 2.4648 20.27 3.4883 32.512 1.5117 18.133 9.9141 32.328 20.66 43.758 10.746 11.43 23.824 20.379 35.477 29.113 0.019531 0.015624 2.6445 2.6172 5.4062 5.5781 2.7578 2.9648 6.1406 6.6367 9.5898 10.199s6.9023 6.9375 10.199 9.5898c1.6484 1.3242 3.207 2.5078 4.9688 3.4023 1.7617 0.89453 3.9141 1.9688 7.1484 1.043 5.0938-1.4531 8.4609-5.3125 10.895-9.4141 2.4375-4.1016 4.1289-8.8516 5.5781-13.598 2.9023-9.4922 4.9922-19.762 6.1875-22.75 12.898-32.227 33.125-66.223 38.789-103.03 0.25391-1.6562 0.25-2.6719 0.4375-5.4922 0.1875-2.8164 0.37109-6.6367 0.60938-11.156 0.48438-9.043 1.0234-20.82 1.3086-32.688 0.28125-11.867 0.32031-23.781-0.17578-33.211-0.24609-4.7148-0.60156-8.7656-1.2188-12.117-0.30859-1.6719-0.64062-3.2344-1.2188-4.707-0.57812-1.4688-1.1836-3.1367-3.6602-4.6211-4.7266-2.8281-9.6523-3.3906-13.336-2.4414zm2.9648 11.508c0.57812-0.13281 1.8477 0.17969 3.3125 0.78516 0.12891 0.45703 0.20703 0.78906 0.34766 1.5703 0.45312 2.4414 0.8125 6.2031 1.0469 10.633 0.46484 8.8633 0.45312 20.633 0.17578 32.34-0.28125 11.703-0.82812 23.387-1.3086 32.34-0.24219 4.4766-0.51563 8.2305-0.69922 10.984-0.18359 2.7539-0.39844 5.3203-0.26172 4.4453-5.1797 33.641-24.703 67.055-38.094 100.5-2.4062 6.0117-3.8398 15.168-6.4492 23.711-1.3047 4.2695-2.9102 8.168-4.5312 10.895-1.3398 2.2539-2.3672 2.9336-3.2266 3.4023-0.60156-0.35547-1.2422-0.72656-2.1797-1.4805-2.5469-2.0469-5.8594-5.3125-9.1523-8.7188-3.293-3.4062-6.6016-7-9.4141-10.023-2.8125-3.0195-4.6602-5.1484-6.9727-6.8867-11.895-8.9141-24.336-17.625-33.906-27.805-9.5742-10.184-16.262-21.527-17.52-36.609-0.89844-10.754 0.54687-23.043-4.1836-35.652-6.1719-16.449-19.383-24.789-28.504-35.043-7.4336-8.3555-8.8047-17.223-7.4102-27.633 1.1445-8.543 5.0039-17.883 8.6289-27.023 18.816 9.9609 35.16 20.137 58.055 25.977 14.465 7.2422 29.598 9.125 45.676 2.8789 16.199-6.2969 33.391-19.965 55.09-42.711l-0.003906-0.003907c0.058594-0.054687 0.11719-0.11719 0.17188-0.17578-0.13281 0.13281 0.5625-0.50391 1.3086-0.69531z"/>
 <path d="m361.47 641.59c-16.535 0.089843-31.828 3.8555-41.406 14.906-32.93 37.996-52.543 107.71-57.703 130.93-1.3555 6.0898-0.48438 11.965 0 17.258 0.48438 5.2969 0.53906 9.8711-0.4375 12.465-1.3125 3.4961-4.6602 7.4766-8.3672 12.027-3.707 4.5547-7.8633 9.8203-8.8906 16.996-1.7891 12.516 3.7969 24.5 10.023 35.562 6.2266 11.066 13.453 21.562 16.648 29.551 1.0664 2.668 2.2812 10.941 3.7461 18.566 0.73437 3.8125 1.5625 7.5664 2.875 10.984 1.3125 3.4141 2.9922 6.9453 7.0586 8.9766 7.0156 3.5078 14.574 3.0039 21.355 1.7461 6.7812-1.2578 13.168-3.4023 17.871-4.4453l0.007812 0.003906c0.26172-0.039063 0.52734-0.10156 0.78125-0.17578 12.41-4.625 20.703-8.9453 26.672-13.422 5.9688-4.4805 9.5039-9.3359 11.77-13.945 4.5273-9.2227 4.4648-15.891 14.82-26.238 1.1016-1.1016 6.457-3.2773 14.035-4.4453 7.5781-1.168 17.27-1.875 27.543-2.6172 20.551-1.4805 43.266-2.9375 59.012-11.68 11.547-6.4102 20.711-14.5 28.328-23.273v-0.003906c1.3398-1.5234 1.8008-3.6328 1.2227-5.5781-1.1719-3.7305-2.0039-7.6523-2.3516-11.855-0.89844-10.754 0.55078-23.043-4.1836-35.652-6.1719-16.449-19.383-24.789-28.504-35.043-7.4375-8.3633-8.8906-17.219-7.4961-27.633 1.3906-10.41 5.9766-21.914 10.461-32.949l-0.003906 0.003906c1.1602-2.8438-0.050781-6.1016-2.7891-7.4961-2.8242-1.4414-5.7109-2.8945-8.8047-4.3555-31.336-14.785-66.641-31.023-99.719-48.031-0.19531-0.12891-0.39844-0.25-0.60938-0.35547-0.058594-0.03125-0.11719-0.042969-0.17578-0.089843-0.85938-0.45703-1.8164-0.69531-2.7891-0.69531zm-0.78516 12.027c33.066 16.961 68.09 33.262 99.023 47.855 1.4141 0.66797 2.7383 1.3359 4.0977 2.0039-3.8867 9.6641-8.1562 19.797-9.5898 30.508-1.6836 12.574 0.48047 25.922 10.371 37.047 10.523 11.832 21.629 19.016 26.238 31.293 3.4961 9.3125 2.4648 20.27 3.4883 32.512 0.30859 3.6992 1.1641 7.0234 2.0039 10.371-6.5312 7.1914-13.812 13.887-23.188 19.09-11.688 6.4883-33.668 8.7227-54.129 10.199-10.23 0.73828-20.105 1.4062-28.504 2.7031-8.3984 1.2969-15.516 2.7031-20.57 7.7578-12.285 12.277-13.695 22.648-16.996 29.375-1.6523 3.3594-3.6602 6.2969-8.2812 9.7617-4.5664 3.4258-11.914 7.2695-23.449 11.594-5.5625 1.2734-11.43 3.2539-16.91 4.2695-5.6445 1.0469-10.512 1.0156-13.945-0.69531 0.55078 0.26953-0.46094-0.49609-1.3086-2.6992-0.84766-2.2109-1.6758-5.457-2.3516-8.9766-1.3555-7.0469-1.9844-14.727-4.3594-20.66-4.0625-10.152-11.508-20.57-17.348-30.945-5.8398-10.375-9.7344-20.328-8.6289-28.066 0.46875-3.2656 2.8828-6.9688 6.3633-11.246 3.4805-4.2773 7.8789-9.0117 10.285-15.43 2.2852-6.082 1.6367-12.105 1.1328-17.609-0.50391-5.5039-0.87109-10.551-0.17578-13.684 4.8281-21.711 25.453-91.586 55.09-125.78 6.1055-7.043 17.445-10.289 31.641-10.547z"/>
 <path d="m547.84 576.3c-1.5625 0.14844-3 0.91016-4 2.1211-0.99609 1.2109-1.4727 2.7656-1.3203 4.3281 4.543 51.203 9.3594 104.5 12.641 152.98v-0.003907c0.10547 1.5781 0.83594 3.0469 2.0352 4.0781 1.1953 1.0312 2.7539 1.5391 4.3281 1.4141 3.2461-0.21875 5.7031-3.0273 5.4922-6.2734-3.293-48.68-8.1836-102.06-12.727-153.24v-0.003906c-0.12891-1.5781-0.88281-3.0352-2.0938-4.0547-1.2109-1.0156-2.7812-1.5-4.3555-1.3477z"/>
 <path d="m520.55 567.41c-3.2461 0.17578-5.7422 2.9453-5.5781 6.1914 1.9688 47.02 7.4336 121.88 32.773 164.48 0.79688 1.3555 2.0977 2.3398 3.6172 2.7305 1.5234 0.39453 3.1406 0.16406 4.4883-0.63672 1.3438-0.80859 2.3086-2.1172 2.6836-3.6406 0.375-1.5195 0.13281-3.125-0.67578-4.4688-22.508-37.84-29.168-112.47-31.117-158.99h-0.003906c-0.058594-1.5742-0.75-3.0586-1.9102-4.125-1.1641-1.0625-2.7031-1.6172-4.2773-1.5391z"/>
 <path d="m579.65 558.08c-0.37891-0.007812-0.75781 0.023438-1.1328 0.089844-3.1836 0.4375-5.4297 3.3438-5.0547 6.5352 7.0273 54.211 2.6211 122.18-10.461 167.97-0.85547 3.1016 0.92578 6.3203 4.0117 7.2344 3.1289 0.91406 6.4062-0.88281 7.3203-4.0117 13.727-48.039 18.074-116.62 10.809-172.68-0.35938-2.8086-2.6641-4.9648-5.4922-5.1406z"/>
 <path d="m404.27 247.5c-6.8047-0.042968-13.719 4.3711-17.086 11.941-5.9961 13.48-23.461 39.496-39.574 66.945s-31.324 56.312-32.34 79.934l-0.17578 5.7539 5.7539 0.44531c13.191 0.86719 26.789 3.418 39.227 5.4922 27.895 4.6445 67.543 25.039 91.699 42.363 25.949 18.609 32.227 38.176 35.043 62.848l11.77-0.089843c4.4961-46.359 19.391-90.297 46.809-126.65l2.0938-2.7891-1.4805-3.2266c-23.523-51.285-56.676-97.426-87.602-112.88-6.5078-3.2539-15.797-10.531-25.191-17.086-9.3906-6.5508-18.734-12.891-28.941-12.988zm-0.089844 11.77c4.3828 0.042968 13.254 4.6328 22.227 10.895 8.9766 6.2617 18.219 13.688 26.762 17.957 24.84 12.414 58.238 56.945 81.066 106-23.145 32.176-34.25 70.398-40.621 109.66-4.8828-19.152-13.27-37.445-34.953-52.996-25.484-18.277-65.207-39.215-96.668-44.457-9.9258-1.6562-21.348-3.3906-32.773-4.6211 2.3906-18.633 13.828-44.234 28.59-69.387 15.855-27.012 33.098-52.148 40.184-68.078 2.0547-4.6172 3.2656-4.9961 6.1875-4.9688z"/>
 <g clip-path="url(#b)">
  <path d="m268.12 413.91c-15.754 12.836-20.242 30.668-21.793 45.852-0.77344 7.5898-0.85156 14.68-1.2188 20.309-0.37109 5.6328-1.3398 9.7812-2.0938 10.984-8.3359 13.332-18.359 24.758-20.66 43.148-1.2617 10.078 3.3203 19.875 10.199 29.199 6.8789 9.3242 16.297 18.406 26.586 26.934 20.582 17.059 44.535 31.805 57.008 39.137 43.875 25.793 98.152 50.574 143.57 72 26.406 12.457 44.598 26.234 73.918 33.473 4.918 1.1836 8.9492-3.9648 6.625-8.457-18.488-35.281-31.719-74.691-38.355-114.8-0.039063-0.26953-0.097657-0.52734-0.17578-0.78516-6.6875-21.484-7.1914-45.07-3.3984-85.336v-0.089844c0.082031-0.87891 0.19531-1.5938 0.26172-2.2656 0.019531-0.44531-0.011719-0.875-0.089844-1.3086-2.957-26.148-11.25-50.629-39.836-71.129-25.484-18.277-65.207-39.215-96.668-44.457-13.742-2.2891-29.852-5.3984-47.738-5.2031-17.887 0.17969-33.539 2.5156-46.141 12.789zm46.547-1.8281h0.089844 0.089844c14.938 0.26953 30.852 3.5312 45.238 5.9258 27.895 4.6445 67.543 25.039 91.699 42.363 25.91 18.582 32.152 38.168 34.953 62.762-0.035156 0.44922-0.13672 0.91406-0.17578 1.3086-3.8281 40.668-3.4766 66.066 3.8359 89.695 6.0781 36.406 19.195 71.312 34.867 104.16-20.613-7.1758-37.281-16.594-60.492-27.543-45.516-21.477-99.645-46.168-142.69-71.477-12.188-7.1641-35.664-21.688-55.352-38.004-9.8438-8.1602-18.711-16.852-24.668-24.93-5.957-8.0781-8.6914-15.289-8.0195-20.66 1.8438-14.742 10.086-24.094 19.004-38.355 3.0547-4.8828 3.4336-10.363 3.8359-16.473s0.51172-12.934 1.2188-19.875c1.4141-13.879 5.0352-27.742 17.52-37.918 10.586-8.625 24.102-11.281 39.051-10.984z"/>
 </g>
 <g clip-path="url(#a)">
  <path d="m702.56 522.43c-3.1992 0.042968-6.4023 0.35547-9.5898 0.78516-4.1328 0.58984-7.8984 1.4336-11.418 2.4414-1.6406 0.45703-3.0078 1.5977-3.7461 3.1367-11.066 23.445-28.426 45.191-45.938 73.395-0.84375 1.3398-1.1172 2.9609-0.75781 4.5 0.36328 1.5391 1.3242 2.8711 2.6758 3.6953 2.7695 1.6992 6.3945 0.84375 8.1055-1.918 16.477-26.535 33.055-47.875 44.891-71.914 2.4922-0.65234 4.9922-1.2578 7.7578-1.6562 2.8516-0.40234 5.6523-0.65625 8.2812-0.69531 18.898-0.40234 36.316 7.0312 55.699 14.297 35.457 13.289 68.047 20.379 91.613 48.641 13.238 15.879 23.395 36.469 35.305 56.137 11.906 19.668 25.781 38.629 47.156 50.207 14.094 7.6328 24.07 26.863 29.113 44.805 2.5234 8.9727 3.8438 17.543 4.1836 23.711 0.14844 2.6602 0.066406 4.5625-0.089844 6.0156-13.055 4.5547-28.566 3.3906-45.328 0.52344-17.5-2.9961-35.773-7.1836-53.258-4.2695-14.227 2.3711-26.5 6.4961-38.355 8.7148-11.855 2.2227-23.242 2.7422-36.699-1.7461-12.371-4.1211-25.062-12.906-38.266-21.441-13.203-8.5352-26.949-16.875-42.449-19.09-2.8906-0.40234-3.9609 0.17969-5.7539 0.69531-1.793 0.53516-3.8555 1.3438-6.1875 2.2656-4.668 1.8438-10.465 4.3516-16.91 7.2344-12.891 5.7695-28.285 12.883-40.621 17.871l0.003906-0.007812c-3 1.2383-4.4414 4.6641-3.2266 7.6719 1.2383 3 4.6641 4.4414 7.6719 3.2266 12.781-5.1641 28.184-12.234 40.969-17.957 6.3906-2.8594 12.16-5.3594 16.473-7.0586 2.1562-0.85156 3.9102-1.5469 5.1445-1.918 1.2344-0.35547 2.4453-0.13281 0.78516-0.35547 12.23 1.7461 24.695 8.9688 37.656 17.348 12.961 8.3789 26.324 17.844 41.055 22.75 15.648 5.2148 29.586 4.6055 42.539 2.1797 12.953-2.4297 25.016-6.5391 38.094-8.7148 14.215-2.3711 31.477 1.2148 49.336 4.2695 17.859 3.0586 36.531 5.6406 53.695-1.2188 2.5664-1.0273 3.5781-2.9102 4.1836-4.2695 0.60547-1.3594 0.92578-2.6602 1.1328-4.0078 0.41406-2.6992 0.46094-5.793 0.26172-9.4141-0.39844-7.2422-1.8672-16.449-4.6211-26.238-5.5039-19.574-15.863-41.66-34.867-51.953-18.496-10.016-31.176-26.879-42.711-45.938-11.539-19.059-21.832-40.207-36.348-57.617-26.355-31.609-62.133-39.215-96.582-52.125-18.984-7.1133-37.922-15.457-59.973-14.992zm-79.41 168.23s-0.52344 0.089844-0.52344 0.089844c-0.003906 0-2.1758 0.69531-2.1797 0.69531-0.011718 0.003906-0.56641 0.35547-0.69922 0.44531-0.52344 0.40234-0.66797 0.44531-0.95703 0.69531h0.003907c-0.125 0.14453-0.24219 0.29297-0.34766 0.44531-0.015624 0.019532 0.015626 0.089844 0 0.089844-0.058593 0.042969-0.14453 0.13281-0.17578 0.17969-0.023437 0.019531-0.082031 0.089843-0.089843 0.089843-0.16016 0.17969-0.38672 0.35547-0.52344 0.52344-0.10547 0.13281-0.16797 0.13281-0.4375 0.52344-0.066406 0.089844-0.25781 0.44531-0.26172 0.44531-0.003906 0.003906-0.52344 1.2188-0.52344 1.2188s2.4844 0.80469 4.0977 1.3086c0.61328-0.17969 0.74609-0.22266 1.2188-0.35547 0.070312 0.17969 0.26172 0.78516 0.26172 0.78516s0.13281-0.6875 0.17578-0.96094c0.3125-0.089843 1.0469-0.26953 1.0469-0.26953s-0.66797-0.35547-0.95703-0.52344c0.26953-1.7188 0.69922-4.0078 0.69922-4.0078l1.1328 0.26953 2.9648 2.4414s0.19141 0.35547 0.34766 0.69531c0.61719-0.17969 1.5703-0.44531 1.5703-0.44531l-0.4375-1.043s-2.2656-2.4414-2.2656-2.4414l-1.1328-0.52344s-2.0039-0.35547-2.0039-0.35547zm-1.1328 7.1484c0-0.003906 5.1406 2.9688 5.1445 2.9648s-0.20703 0.35547-0.26172 0.44531c-0.070313 0.089844-0.14844 0.13281-0.17578 0.17969l-0.089844 0.089844c-0.17969 0.13281-0.61719 0.35547-0.60937 0.35547 0.003906-0.003906-0.86328 0.3125-1.1328 0.44531 0.0625 0.089843 0.34766 0.52344 0.34766 0.52344 0.003907-0.003906 0.34375-0.26953 0.34766-0.26953 0.011718-0.007813 0.27344-0.17969 0.34766-0.26953 0.15234-0.13281 0.25781-0.17969 0.34766-0.26953 0.17969-0.17969 0.35547-0.35547 0.52344-0.52344 0.33594-0.3125 0.36719-0.22266 1.1328-1.2188 0.097656-0.13281 0.43359-0.6875 0.4375-0.69531 0.003906-0.003906 0.52344-1.3047 0.52344-1.3086 0 0-2.6836-0.75-4.2695-1.2188-1.2852 0.40234-2.6133 0.78516-2.6133 0.78516zm-2.0938-5.4922s0.57031 1.4844 1.1328 2.9648c-1.4219-0.82031-2.875-1.6602-2.875-1.6562-0.003907 0.007813 0.22266-0.35547 0.34766-0.52344 0.023437-0.035157 0.074218-0.089844 0.089844-0.089844 0.10156-0.089844 0.26172-0.17969 0.26172-0.17969-0.003906 0.003906 1.0469-0.52344 1.0469-0.52344zm-2.0039 6.8008c-0.58984 0.17969-1.4805 0.52344-1.4805 0.52344l0.60938 1.3086 2.875 2.4414 1.2188 0.26953s0.17578-0.91797 0.26172-1.4805l-1.1328-0.44531s-2.2656-2.4414-2.2656-2.4414-0.070312-0.13281-0.089844-0.17969z"/>
 </g>
</svg>
