<?xml version="1.0" encoding="UTF-8"?>
<svg width="1200pt" height="1200pt" version="1.1" viewBox="0 0 1200 1200" xmlns="http://www.w3.org/2000/svg">
 <path d="m805.78 566.9c84.328-1.3594 162.71 13.922 223.87 41.438 287.63-310.74-532.03-762.19-615.56-315.37 90.328 63.75 169.55 186.05 207.19 299.63 0.5625 0.375 0.9375 0.5625 1.5 0.9375 48.188-15.562 104.06-24.375 166.31-26.25 45.844-24.469 30.047-64.734 9.9375-101.62-75.938-15.375-153.37-31.688-216.37-75.75-68.438-47.625-114.75-138.56-83.25-215.81 15.938 63.938 61.875 111 115.88 142.31 10.312-49.688-7.6875-105.38-27.188-130.69 21.375 14.062 39.75 32.812 52.875 54.75 5.4375-7.6875 11.062-14.25 15.75-19.5-13.5-28.5 11.812-49.312 36.75-61.5-5.625 11.812-26.062 39.375-5.4375 42.938 14.625 7.5 15.938 19.125 11.062 28.125-12.656 15.328-35.906 33.938-43.688 64.688-3.9375 15.938-3.1875 30-1.3125 40.688 43.781 18.562 90.047 30.141 136.31 42.188 1.875-8.8125 4.6875-17.25 8.25-25.312-16.875-24.562-20.438-55.5-11.438-80.812-2.625 24 5.8125 47.438 20.625 63.562 7.125-11.438 15.938-21.375 25.688-29.438-15 25.688-18.75 54.75-13.312 80.062 88.781 23.25 186.94 66.141 226.31 152.44-58.125-29.812-135.94-49.875-212.26-65.812 2.8125 18 2.625 36.375-0.375 53.812 11.625 12.562 12.562 36.562 12.562 36.562l-17.812-15.938c-5.4375 7.875-13.875 14.438-22.875 19.688z"/>
 <path d="m802.78 604.36c-220.87 2.9531-349.5 93.281-352.97 247.82-15.469 328.45 718.87 321.19 712.4-8.8594-1.9219-145.78-146.39-241.78-359.48-238.97zm115.59 276.74c11.531 14.156 20.625 30 26.766 46.641 16.406 4.9219 29.438 25.219 29.438 25.219l-23.578-4.6875c-2.3438 31.406-40.734 68.203-40.734 68.203 33.141-56.25 45.234-81.328-25.922-123.89-73.219 24.984-148.31 49.828-225.05 43.5-83.016-6.8438-168.79-62.156-180.47-144.66 45.891 47.25 109.36 64.734 171.66 64.688-15.938-48.141-59.625-87.328-89.109-99.234 25.453 1.3125 50.672 8.2969 73.219 20.719 0.84375-9.4688 2.25-17.906 3.7969-24.891-26.062-17.719-14.531-48.469 0.75-71.578 1.125 12.984-2.625 47.203 16.875 39.938 19.734-0.98438 26.391 12.516 22.688 25.969-4.6406 13.359-11.484 45.281-4.125 70.594 4.5938 15.703 12.375 27.516 19.359 35.766 47.859-6.0938 93.328-19.406 138.98-32.109-2.8125-8.5781-4.6406-17.344-5.5781-26.062-26.906-12.656-45.609-37.688-50.531-64.031 9.8906 22.125 28.922 38.062 49.734 44.578 0.51562-13.453 3.0469-26.484 7.5-38.344 0 29.719 11.297 56.812 28.828 75.797 88.453-24.422 194.68-36.891 272.26 17.859-65.344 3.5156-142.6 25.359-216.66 50.062z"/>
 <path d="m382.03 646.6c23.25 24.422 45.75 49.359 64.5 77.438 29.062-50.625 76.688-90.375 139.87-117.19-58.828-181.55-236.44-411.28-438.19-302.81-51.938 27.188-86.062 67.875-101.81 121.13-54.188 182.34 152.81 555.84 382.31 523.5-18.375-45.328-20.859-103.83-9.75-152.81-21.75-23.062-45.562-45.75-69.375-67.688-6.9375 16.875-16.312 32.438-27.938 45.938 3.5625 16.688-7.875 37.875-7.875 37.875l-7.3125-22.875c-28.688 13.125-79.312-2.625-79.312-2.625 65.344 1.6875 92.859 0.23438 95.812-82.688-57.375-51.938-115.31-105.75-147-175.87-34.125-75.938-27.188-177.94 39.375-228-19.125 63.188-3.75 127.13 26.438 181.69 34.312-37.312 47.625-94.5 43.688-126 11.25 22.875 17.25 48.188 17.25 74.062 8.8125-3.9375 16.875-6.75 23.625-8.8125 3-31.312 35.438-36.188 63.188-33.938-10.875 7.3125-42.75 20.625-26.812 34.125 8.8125 13.875 3.75 24.562-4.875 29.812-11.484 4.875-21.188 4.5-37.125 11.812-24 8.1562-49.031 33.703-55.5 55.5 28.5 39 62.062 72.375 95.25 106.12 6.1875-6.5625 12.938-12.375 20.062-17.438-1.875-29.625 11.062-58.125 31.688-75.188-14.625 19.312-19.312 43.688-15 65.062 12-6 24.75-10.125 37.125-12-25.875 14.438-44.25 37.312-52.312 61.875z"/>
</svg>
