<?xml version="1.0" encoding="UTF-8"?>
<svg width="1200pt" height="1200pt" version="1.1" viewBox="0 0 1200 1200" xmlns="http://www.w3.org/2000/svg">
 <path d="m1125.6 700.8v0c-1.1992-9.6016-4.8008-16.801-13.199-20.398-6-2.3984-12-1.1992-18 1.1992-25.199 12-45.602 40.801-57.602 66-15.602 34.801-33.602 64.801-61.199 92.398-26.398 26.398-61.199 44.398-85.199 74.398-12 14.398-24 30-34.801 46.801-10.801 15.602-20.398 36-32.398 50.398-16.801 18-56.398 39.602-80.398 22.801-26.398-19.199-7.1992-62.398 12-79.199 20.398-18 36-37.199 49.199-57.602 3.6016-6 9.6016-18 18-34.801 6-12 10.801-24 18-34.801 9.6016-18 21.602-33.602 34.801-46.801 31.199-32.398 69.602-58.801 112.8-76.801 31.199-13.199 56.398-33.602 75.602-61.199 10.801-15.602 21.602-34.801 30-57.602 7.1992-19.199 13.199-40.801 16.801-63.602 2.3984-12 0-20.398-6-26.398-6-4.8008-13.199-7.1992-22.801-4.8008-12 3.6016-20.398 10.801-26.398 22.801-3.6016 8.3984-12 28.801-24 62.398-12 31.199-27.602 58.801-54 79.199-28.801 21.602-61.199 32.398-93.602 44.398-27.602 10.801-50.398 27.602-70.801 50.398-19.199 21.602-34.801 46.801-46.801 73.199-6 15.602-19.199 54-42 49.199-18-4.8008-16.801-31.199-16.801-44.398-1.1992-22.801 1.1992-46.801 6-68.398 9.6016-48 32.398-88.801 64.801-120 27.602-26.398 60-45.602 96-57.602 14.398-4.8008 28.801-9.6016 43.199-14.398 37.199-14.398 69.602-34.801 98.398-62.398 25.199-24 42-52.801 52.801-86.398 2.3984-8.3984 4.8008-16.801 4.8008-26.398 0-10.801-2.3984-18-8.3984-21.602-15.602-10.801-28.801-9.6016-39.602 6-3.6016 3.6016-6 10.801-8.3984 19.199-9.6016 32.398-26.398 62.398-50.398 86.398-12 12-26.398 21.602-40.801 28.801-14.398 8.3984-38.398 20.398-55.199 16.801-42-7.1992 31.199-75.602 40.801-87.602 22.801-27.602 38.398-58.801 46.801-92.398 4.8008-18 8.3984-36 9.6016-56.398 2.3984-19.199 1.1992-38.398 0-57.602-2.3984-19.199-9.6016-42-30-46.801-10.801-2.3984-24 1.1992-32.398 9.6016-15.602 16.801-8.3984 38.398-3.6016 57.602 6 25.199 2.3984 48-1.1992 73.199-4.8008 25.199-10.801 48-20.398 64.801-6 12-20.398 32.398-34.801 37.199-3.6016 1.1992-8.3984 1.1992-12-2.3984-4.8125-7.1953-6.0117-13.195-6.0117-19.195-3.6016-38.398-8.3984-78-8.3984-116.4 0-25.199 1.1992-50.398 6-75.602 3.6016-18 7.1992-36 9.6016-55.199 1.1992-7.1992 2.3984-13.199 2.3984-18 1.1992-12 1.1992-24-6-33.602-4.8008-7.1992-13.199-12-22.801-13.199-14.398-2.3984-28.801 6-37.199 16.801-16.801 21.602-13.199 51.602-16.801 76.801-2.3984 18-4.8008 31.199-7.1992 39.602-4.8008 16.801-13.199 33.602-24 46.801-8.3984 9.6016-25.199 30-40.801 24-16.801-7.1992-10.801-32.398-8.3984-45.602 2.3984-24 8.3984-57.602-1.1992-80.398-2.3984-7.1992-8.3984-13.199-14.398-15.602-8.3984-3.6016-19.199 0-26.398 7.1992-10.801 9.6016-14.398 25.199-13.199 39.602 1.1992 10.801 2.3984 22.801 4.8008 36 2.3984 13.199 3.6016 26.398 3.6016 36 0 21.602-1.1992 39.602-3.6016 55.199-1.1992 7.1992-3.6016 25.199-9.6016 54-3.6016 18-6 32.398-6 44.398-1.1992 15.602-2.3984 30-2.3984 44.398 0 27.602-1.1992 51.602-2.3984 73.199-1.1992 20.398-4.8008 36-10.801 48-24 56.398-46.801 112.8-69.602 169.2-3.6016 9.6016-10.801 24-22.801 22.801-7.1992-1.1992-13.199-6-16.801-13.199-12-24-13.199-60-13.199-86.398-1.1992-31.199 2.3984-63.602 9.6016-94.801 6-27.602 13.199-62.398 20.398-102 9.6016-49.199 21.602-106.8 36-172.8 8.3984-37.199 16.801-74.398 24-111.6 4.8008-21.602 15.602-64.801-6-80.398-9.6016-7.1992-22.801-7.1992-32.398-1.1992-13.199 8.3984-15.602 21.602-12 36 3.6016 20.398-1.1992 43.199-3.6016 63.602-1.1992 12-24 100.8-45.602 66-3.6016-4.8008-6-12-7.1992-21.602-3.6016-18-4.8008-34.801-3.6016-50.398 1.1992-15.602 2.3984-45.602 6-87.602 1.1992-18-3.6016-31.199-16.801-38.398-12-7.1992-27.602-6-37.199 2.3984-8.3984 7.1992-13.199 16.801-14.398 27.602-7.1992 33.602-4.8008 69.602 0 103.2 6 40.801 15.602 80.398 39.602 115.2 16.801 24 26.398 50.398 30 80.398 3.6016 26.398-3.6016 51.602-3.6016 76.801 0 8.3984 0 15.602-3.6016 22.801-4.8008 9.6016-18 19.199-25.199 7.1992-3.6016-6-7.1992-14.398-9.6016-27.602-9.6016-44.398-28.801-84-56.398-118.8-18-21.602-24-50.398-27.602-78-2.3984-24-2.3984-54-32.398-58.801-10.801-1.1992-20.398 0-27.602 7.1992-18 14.398-13.199 40.801-8.3984 60 8.3984 36 26.398 69.602 48 99.602 14.398 21.602 26.398 46.801 36 75.602 9.6016 28.801 18 55.199 22.801 79.199 3.6016 18 6 27.602 6 27.602 6 28.801 13.199 56.398 20.398 85.199 12 45.602 26.398 91.199 43.199 135.6 7.1992 19.199 14.398 39.602 19.199 60 6 22.801 18 54 10.801 76.801-2.3984 8.3984-8.3984 15.602-15.602 16.801-28.801 4.8008-56.398-49.199-64.801-69.602-9.6016-26.398-15.602-54-20.398-81.602-4.8008-26.398-6-54-18-78-9.6016-19.199-27.602-50.398-54-93.602-13.199-21.602-20.398-43.199-21.602-64.801-1.1992-32.398-7.1992-64.801-15.602-96-8.3984-28.801-18-66-38.398-88.801-7.1992-7.1992-15.602-13.199-26.398-13.199-19.199 0-27.602 18-27.602 34.801 0 10.801 2.3984 21.602 8.3984 32.398 13.199 24 24 58.801 27.602 86.398 1.1992 4.8008 0 10.801-2.3984 14.398-4.8008 7.1992-13.199 4.8008-19.199 1.1992-9.6016-6-16.801-14.398-19.199-26.398-1.1992-4.8008-2.3984-9.6016-3.6016-13.199-4.8008-15.602-15.602-22.801-32.398-21.602-21.602 1.1992-25.199 24-18 40.801 1.1953 13.207 13.195 26.406 25.195 36.008 9.6016 7.1992 21.602 15.602 36 24 50.398 28.801 78 84 106.8 132 12 19.199 21.602 39.602 28.801 61.199 3.6016 10.801 8.3984 24 3.6016 34.801-14.398 38.398-49.199 3.6016-66-10.801-18-16.801-33.602-36-45.602-56.398-15.602-24-25.199-51.602-31.199-79.199-4.8008-20.398-3.6016-56.398-31.199-60-14.402-2.4023-25.203 3.5977-28.805 14.398-2.3984 6-2.3984 15.602-2.3984 28.801 4.8008 62.398 30 116.4 75.602 160.8 40.801 39.602 93.602 66 133.2 106.8 19.199 20.398 32.398 45.602 49.199 69.602 16.801 22.801 34.801 44.398 57.602 62.398 28.801 24 63.602 40.801 100.8 46.801 79.199 13.199 157.2 14.398 235.2 3.6016 34.801-4.8008 58.801-9.6016 73.199-14.398 72-25.199 93.602-98.398 135.6-153.6 19.199-25.199 42-49.199 69.602-70.801 40.801-32.398 69.602-75.602 86.398-128.4 3.5977-13.207 8.3984-26.406 7.1992-39.605zm-729.6-426c-1.1992 0-1.1992 0 0 0-1.1992 0-1.1992 0 0 0zm-1.1992 0m253.2 454.8c-7.1992 21.602-12 42-13.199 62.398-1.1992 21.602-1.1992 42 0 63.602 3.6016 38.398 1.1992 75.602-8.3984 112.8-3.6016 18-12 31.199-21.602 40.801-6 6-13.199 8.3984-21.602 7.1992-6-1.1992-12-4.8008-16.801-10.801-8.3984-10.801-13.199-22.801-14.398-38.398-2.3984-27.602-1.1992-52.801 2.3984-76.801 7.1992-45.602 21.602-88.801 40.801-129.6 13.199-27.602 26.398-55.199 39.602-81.602 13.199-26.398 22.801-54 28.801-82.801 3.6016-15.602 4.8008-33.602 6-54 0-18 1.1992-37.199 1.1992-55.199s2.3984-36 6-54c4.8008-22.801 10.801-39.602 16.801-51.602 9.6016-19.199 25.199-32.398 46.801-42 8.3984-3.6016 15.602-2.3984 20.398 2.3984 1.1992 1.1992 1.1992 2.3984 1.1992 3.6016 4.8008 31.199 6 67.199 6 108 0 39.602-9.6016 75.602-30 109.2-7.1992 12-14.398 24-22.801 34.801-28.801 40.801-51.598 85.203-67.199 132z"/>
</svg>
