<?xml version="1.0" encoding="UTF-8"?>
<svg width="1200pt" height="1200pt" version="1.1" viewBox="0 0 1200 1200" xmlns="http://www.w3.org/2000/svg">
 <path d="m372.61 432.11c49.586 4.25 82.172 42.504 85.008 90.672 0 2.832 0 4.25 1.418 5.668-32.586 24.086-80.754 0-107.68-22.668-22.668-18.418-42.504-39.668-70.84-46.754 24.086-22.668 62.336-29.754 92.09-26.918zm73.672-111.93c4.25-48.172 18.418-94.922 46.754-134.59 28.336-42.504 70.84-66.59 117.59-83.59 49.586-17 102.01-28.336 150.18-48.172-2.832 55.254 9.918 110.51 7.082 165.76-2.832 43.918-14.168 87.84-42.504 123.26-28.336 34.004-69.422 56.672-110.51 73.672-35.418 12.75-75.09 31.168-102.01 59.504 0-69.422 28.336-138.84 68.004-195.51 1.418-1.418 1.418-1.418 2.832-2.832 11.336-7.082 1.418-25.5-9.918-17-65.172 41.086-97.758 116.18-107.68 191.26-21.25-39.668-22.668-86.422-19.836-131.76zm136.01 354.19c-7.082 0-14.168 1.418-21.25 1.418-1.418 0-2.832 1.418-4.25 1.418-59.504-46.754-76.504-128.93-73.672-199.77 2.832-43.918 14.168-90.672 36.836-130.34-25.5 60.922-35.418 126.09-21.25 192.68 12.75 52.422 41.086 102.01 83.59 134.59zm114.76 79.34c-12.75 1.418-24.086 7.082-32.586 21.25-15.586 28.336 9.918 63.754 29.754 82.172 22.668 22.668 56.672 39.668 89.258 34.004 18.418-2.832 39.668-17 43.918-34.004 9.918 7.082 19.836 12.75 31.168 19.836 24.086 15.586 45.336 36.836 58.086 62.336 22.668 45.336 12.75 99.172-17 137.43-72.254 93.508-219.6 85.008-315.94 42.504-53.836-22.668-102.01-60.922-131.76-111.93-29.754-51.004-41.086-116.18-31.168-172.84 2.832-18.418 7.082-35.418 15.586-52.422 0 0 1.418-1.418 2.832-2.832 21.25-43.918 63.754-72.254 110.51-82.172 4.25 2.832 7.082 1.418 9.918-1.418 15.586-1.418 32.586-1.418 49.586 1.418 29.754 4.25 53.836 22.668 75.09 43.918l12.75 12.75zm106.26 87.84 1.418 1.418c11.336 19.836-21.25 28.336-35.418 28.336-22.668 0-43.918-14.168-60.922-28.336-12.75-11.336-31.168-32.586-26.918-52.422 2.832-21.25 26.918-19.836 41.086-11.336 1.418 1.418 2.832 1.418 4.25 1.418 12.75 11.336 25.5 21.25 38.254 31.168 12.75 11.336 25.5 19.836 38.254 29.754zm-542.62-364.11c41.086-1.418 66.59 39.668 97.758 59.504 32.586 21.25 75.09 31.168 107.68 11.336 8.5 49.586 28.336 97.758 65.172 133.18-17 4.25-32.586 11.336-46.754 19.836-1.418 0-2.832 0-4.25 1.418-104.84 66.59-100.59 218.18-45.336 315.94 56.672 100.59 178.51 150.18 290.44 150.18 55.254 1.418 113.34-11.336 157.26-46.754 39.668-29.754 65.172-75.09 66.59-126.09 1.418-53.836-29.754-99.172-70.84-130.34-31.168-22.668-63.754-41.086-94.922-63.754-28.336-22.668-55.254-46.754-80.754-72.254-18.418-18.418-39.668-35.418-63.754-45.336-1.418-1.418-2.832-1.418-4.25-2.832-59.504-25.5-99.172-82.172-114.76-143.09-2.832-11.336-5.668-22.668-7.082-35.418 2.832 0 4.25-1.418 5.668-2.832 29.754-39.668 83.59-55.254 127.51-75.09 39.668-17 75.09-42.504 102.01-77.922 26.918-36.836 36.836-79.34 39.668-123.26 4.25-62.336-12.75-121.84-4.25-184.18 0-7.082-5.668-11.336-11.336-9.918-2.832 0-5.668 0-7.082 1.418-56.672 24.086-117.59 35.418-175.68 56.672-48.172 18.418-89.258 49.586-119.01 93.508-26.918 41.086-39.668 89.258-43.918 138.84-2.832 38.254-2.832 79.34 9.918 116.18-15.586-12.75-34.004-21.25-56.672-24.086-45.336-5.668-102.01 8.5-128.93 49.586-1.418 4.25-1.418 7.082 0 9.918 1.418 2.832 4.25 5.668 9.918 5.668z"/>
</svg>
