<?xml version="1.0" encoding="UTF-8"?>
<svg width="1200pt" height="1200pt" version="1.1" viewBox="0 0 1200 1200" xmlns="http://www.w3.org/2000/svg">
 <path d="m109.38 379.22c13.758-3.3047 24.168 0.77734 33.352 4.3711 8.375 3.2773 15.59 6.1328 25.961 4.1836 15.836-2.9336 36.285-19.211 47.121-29.102-1.2188-3.082-2.2539-6.1133-3.0312-8.9375-3.8086-13.855 2.9531-28.551 16.082-34.938 8.7969-4.2812 17.211-8.5703 25.34-12.852-7.5977-9.5469-35.961-42.199-71.484-46.105-19.633-2.1367-38.785 4.9805-56.961 21.219-47.711 42.672-44.887 90.035-38.074 116.2 4.9453-6.1406 11.945-11.711 21.695-14.043z"/>
 <path d="m348.97 945.01c-9.8594-7.6758-21.039-16.387-31.785-32.23-7.2344-10.668-12.852-23.699-17.203-36.727l-7.2344 71.102-5.5195 135.04 81.555 2.4688-0.73828-121.98c-5.5352-7.0625-11.844-12.043-19.074-17.672z"/>
 <path d="m286.42 1101.9-2.125 52.07 41.363-19.219c2.7852-1.2695 6.0039-1.1992 8.7109 0.20703l34.828 18.246-0.29687-48.812z"/>
 <path d="m367.3 212.48c5.9141-23.992 0.26562-41.324-6.75-58.832-12.184 13.039-21.691 28.715-28.629 47.777-1.5859 4.3594-5.9727 7.0859-10.598 6.3789-4.5977-0.62891-8.1172-4.3984-8.4648-9.0234-1.4648-20.027-5.5586-28.363-15.164-34.543-1.4961 48.574-14.793 84.32-40.879 111.06 8.1367 8.1992 13.324 14.957 14.938 17.145 55.18-30.875 90.676-60.211 95.547-79.961z"/>
 <path d="m267.76 362.8c-0.38281 0.20703-0.95312 0.51172-1.2578 2.5-0.039062 0.27734-0.097656 0.5625-0.16797 0.82812-0.5 2.1055-11.898 51.578 32.969 65.031 25.902 7.7852 57.109-0.25781 78.73-8.375 6.0039-2.2539 6.6641-7.7656 6.7227-9.3984 0.058594-1.6914-0.20703-7.4102-6.2305-10.207-6.0625-2.793-12.184-5.668-18.285-8.5312-34.133-16.039-80.918-37.977-92.48-31.848z"/>
 <path d="m386.4 217.19c-10.441 42.328-97.781 90.422-148.92 115.32-4.6172 2.2422-7.0156 7.293-5.7188 12.016 3.0508 11.082 7.4492 17.844 14.438 21.789 0.27734-1.5664 0.58203-3.082 0.92578-4.4883 1.6055-9.3789 7.0547-14.094 11.387-16.395 14.988-7.9531 39.57-0.35547 75.867 15.676 14.043-3.3477 81.602-22.633 101.45-87.793 15.145-49.738-4.0859-84.004-22.676-117.15-7.4297-13.258-14.445-25.949-19.219-39.219-0.039062-0.089843-0.12891-0.14844-0.16797-0.23437-0.11719-0.27734-0.089844-0.57031-0.17578-0.84766-1.1133-3.1992-2.2344-6.3867-3.0508-9.6758-4.5977-18.578-7.0078-41.918-8.2773-60.125-8.582 14.742-17.32 34.57-16.789 53.594 0.41406 14.969 5.6289 27.723 11.141 41.223 8.3633 20.48 17.832 43.668 9.7812 76.309z"/>
 <path d="m257.47 537.07c3.8398-5.8867 7.8125-11.957 15.598-8.4141 2.2734 1.0352 3.9844 2.875 4.9297 5.0391l12.559 24.781c9.4297-21.199 10.383-41 3.1484-61.25-1.082-3.0195-0.62109-6.3555 1.2188-8.9844 1.8398-2.6172 4.8438-4.1719 8.0391-4.1719h14.484c-2.293-15.008-8.207-25.727-17.793-32.742-1.9961-0.45312-4.1055-0.72656-6.0312-1.3008-35.801-10.746-47.121-38.852-48.547-62.844-8.0508-2.6875-14.055-6.8008-18.648-11.602-11.699 10.332-33.934 27.812-54.145 31.57-15.883 2.9219-27.445-1.5664-36.727-5.1953-8.0508-3.1484-13.848-5.4141-21.59-3.5625-13.824 3.2812-17.93 21.449-17.977 21.633-0.30469 1.8516-9.5469 55.355-32.379 80.895-10.125 11.316-24.484 19.023-37.141 25.812-13.012 6.9883-26.473 14.203-26.473 21.535 0 24.535 16.082 87.676 41.43 95.605 22.328 6.9766 91.551-9.2227 133.03-25.066 0.089843-0.050782 0.13672-0.12891 0.22656-0.17578 0.27734-0.13672 0.57031-0.11719 0.85547-0.22656 9.6953-3.7383 17.824-7.4609 23.352-10.824 13.891-8.4727 33.602-32.191 58.578-70.512zm-205.45 16.168-11.285 16.082c-1.9102 2.7266-4.9609 4.1914-8.0586 4.1914-1.9492 0-3.918-0.58203-5.6406-1.793-4.4492-3.1211-5.5312-9.25-2.4023-13.707l11.277-16.082c3.1211-4.4492 9.25-5.5391 13.707-2.4023 4.4492 3.1328 5.5234 9.2617 2.4023 13.711zm98.992-68.918c-11.84 0-21.434-9.5938-21.434-21.434 0-11.84 9.5938-21.434 21.434-21.434 11.84 0 21.434 9.5938 21.434 21.434 0 11.84-9.5938 21.434-21.434 21.434z"/>
 <path d="m544.51 993.38c-1.6719 0.67969-3.5117 0.92578-5.3438 0.62891-3.5625-0.60937-6.5039-3.0898-7.6758-6.5039l-9.6836-28.184c-3.1875 9.9297-7.8438 19.023-13.945 27.219-1.8398 2.4688-4.7227 3.9375-7.793 3.9648-3.3281-0.13672-5.9922-1.3789-7.8711-3.8203-5.2852-6.8203-10.156-13.875-14.605-21.141-1.5469 13.168-5.1094 25.785-10.531 37.84l4.0156 77.668 78.406-3.4844z"/>
 <path d="m1036.5 1151.1 42.141-27.309c3.3047-2.1445 7.5781-2.1172 10.855 0.097656l40.664 27.379 0.46094-56.086-92.074 1.4258z"/>
 <path d="m923.11 958.45c-2.5195 2.7656-6.3984 3.8672-10.02 2.8359-3.6016-1.0352-6.3086-4.0352-6.957-7.7344l-6.7227-37.789c-3.3555 12.746-7.793 24.387-13.336 35.004l-7.7344 121.68 84.691 2.6172 10.914-140.05c-6.6328-11.012-12.281-22.605-16.73-35.043-6.7969 21.402-18.191 40.965-34.105 58.484z"/>
 <path d="m1163.6 464.21c-41.992-81.25-136.06-82.902-137.01-82.91-5.2266-0.039062-9.5078-4.1523-9.7617-9.3594-0.25781-5.2148 3.6016-9.7227 8.7969-10.266 10.293-1.082 17.949-4.7227 23.391-11.27-45.25-2.5703-175.7-12.086-230.46-38.488-30.805-14.852-52.914-46.422-76.316-79.832-27.949-39.914-56.852-81.168-102.37-96.148-52.402-17.25-110.65 3.3555-111.23 3.5508-3.6328 1.3008-7.668 0.375-10.363-2.3633-2.6953-2.7461-3.543-6.8086-2.1641-10.41l10.195-26.629c-37.043 1.7617-76.938 5.9648-110.5 18.285 4.0625 9.1914 9.1406 18.492 14.555 28.137 19.652 35.035 41.934 74.742 24.336 132.51-17.281 56.734-63.809 82.98-93.492 94.309 2.4492 1.1523 4.9023 2.293 7.4414 3.4844 6.0625 2.8438 12.145 5.707 18.176 8.4844 11.348 5.2461 18.109 16.277 17.645 28.805-0.46094 12.379-7.9219 22.762-19.484 27.102-20.852 7.8125-39.945 11.887-57.285 12.559 6.1719 10.727 9.7344 23.934 10.461 39.668 0.11719 2.6758-0.85547 5.3047-2.7148 7.2422-1.8516 1.9492-4.4297 3.0508-7.1133 3.0508h-12.273c5.7266 26.582 0 53.27-17.332 81.191-1.8711 3.0195-5.2656 4.9219-8.7891 4.6445-3.5508-0.15625-6.75-2.2148-8.3555-5.3828l-13.727-27.062c-16.789 25.094-39.02 55.277-58.684 67.266-3.9648 2.4219-9.7422 5.1953-16.66 8.1289l12.812 26.051c6.7422 13.699 8.2383 29.562 4.2109 44.66-10.785 40.398-8.6914 81.043 6.4766 123.55l9.5352-33.5c-2.9414-26.137-1.0352-49.57 8.2383-69.008 2.332-4.9023 8.2266-6.9883 13.117-4.6445 4.9102 2.332 6.9883 8.207 4.6562 13.117-18.688 39.188-0.16797 104.38 25.703 172.42l14.141-138.89c0.55078-5.4023 5.3945-9.2305 10.785-8.7969 5.4141 0.5625 9.3477 5.3828 8.7969 10.797l-4.6445 45.625c0.89453 7.4883 7.7148 59.145 27.16 87.832 9.0039 13.285 18.453 20.648 27.594 27.762 7.5469 5.8867 15.254 11.879 22.27 20.746 2.2344-18.375 1.4453-41.059-2.3242-68.562-0.72656-5.3125 2.9219-10.227 8.2188-11.051 5.332-0.89453 10.285 2.7148 11.219 8 0.089844 0.5 9.1719 51.055 24.594 73.148 6.0117 8.6094 11.742 12.008 17.824 15.598 4.2305 2.5078 8.7188 5.168 12.773 9.4062 5.0859-20.352 4.2305-42.238-2.5273-66.32-1.457-5.207 1.5547-10.617 6.7617-12.113 5.2148-1.4648 10.637 1.4844 12.152 6.6719 6.0703 20.586 15.215 40.004 27.27 57.906 6.4961-13.422 9.0234-29.16 7.7461-47.691-0.34375-4.9297 3.0195-9.3398 7.8633-10.332 4.8633-0.92578 9.6523 1.7812 11.27 6.4453l17.723 51.605c28.992-45.574 40.793-106.39 37.004-189.31-0.24609-5.4336 3.957-10.039 9.3867-10.285 5.2266-0.41406 10.039 3.9453 10.273 9.3789 2.2539 49.266-1.1523 91.926-10.254 128.61 6.1523 24.789 18.02 44.453 36.125 59.5-4.6367-26.789-6.4766-53.684-5.5898-80.57 0-0.25781 0.019532-0.5 0.039063-0.75781 0.91406-25.922 4.3594-51.832 10.41-77.578 1.2383-5.2852 6.5547-8.5234 11.84-7.3203 5.293 1.25 8.5703 6.543 7.332 11.84-5.6602 24.062-8.8164 48.262-9.7539 72.48 10.922 28.441 26.75 54.961 47.348 79.035 9.3594-55.719 10.965-99.691 5.1172-137.21-0.83594-5.375 2.8438-10.41 8.207-11.25 5.3242-0.83594 10.402 2.8438 11.238 8.207 3.8594 24.73 4.5547 52.059 2.2734 83.07 2.8945 21.305 9.1602 39.719 19.094 55.801 7.7344-21.168 12.723-47.305 15.176-79.281 0.39453-5.0859 4.5859-9.0234 9.6836-9.0938h0.12891c5.0391 0 9.2695 3.8086 9.793 8.8281 3.2383 31.355 9.4688 57.738 18.926 79.949 16.719-56.637 17.645-117.6 2.7344-181.59-1.2305-5.2852 2.0586-10.578 7.3516-11.809 5.3125-1.2305 10.59 2.0469 11.82 7.3516 10.195 43.773 13.09 86.207 9.1836 127.04 17.469 18.363 29.719 39.867 36.434 64.215 31.293-38.461 39.621-98.766 26.266-187.56-0.80859-5.375 2.8945-10.383 8.2656-11.199 5.3555-0.72656 10.383 2.8945 11.199 8.2773 4.1523 27.633 6.2305 52.711 6.2891 75.5l14.465 81.367c16.711-24.535 24.348-52.363 23.293-84.516-0.17578-5.293 3.8789-9.7734 9.1523-10.145 5.2461-0.28516 9.9102 3.5039 10.473 8.7891 3.582 33.824 13.168 62.52 29.188 87.203 9.4766-28.039 15.707-62.117 19.379-105.47 0.45313-5.3125 5.168-9.3203 10.383-8.9961 5.332 0.30469 9.4297 4.8125 9.2617 10.145-1.1719 35.637 1.3008 72.844 7.5586 113.26 32.199-35.676 46.785-80.844 44.48-137.46-0.19531-4.832 3.1406-9.082 7.8711-10.047 4.7344-0.96484 9.457 1.6523 11.168 6.1719 14.516 38.508 21.207 78.297 20.008 118.68 19.645-29.66 28.273-62.52 26.285-99.641-0.27734-5.207 3.543-9.7227 8.7305-10.312 5.2266-0.51172 9.9102 2.9805 10.797 8.1094 3.5742 20.734 13.848 37.465 30.004 49.066 0.90625-68.168 1.8242-325.72-36.164-399.21z"/>
 <path d="m1107.2 956.61c-3.8789-1.8398-6.1211-5.9648-5.5391-10.215 3.9453-29.266 3.5039-58.309-1.2891-86.828-8 41.059-27.102 75.855-56.891 104.04l-4.2422 113.3 91.504-1.418 1.1328-136.83c-4.125 5.332-8.4531 10.609-13.246 15.754-2.9375 3.1445-7.5625 4.0312-11.43 2.1992z"/>
 <path d="m472.07 1100.7 2.6562 51.449 35.469-22.488c3.2266-2.0469 7.3516-2.0391 10.578 0.019532l32.988 21.117-3.1484-53.586z"/>
 <path d="m873.38 1150.4 36.973-24.723c3.4141-2.293 7.8828-2.2031 11.219 0.19531l35.496 25.566 4.418-56.742-84.406-2.6094z"/>
</svg>
