<?xml version="1.0" encoding="UTF-8"?>
<svg width="1200pt" height="1200pt" version="1.1" viewBox="0 0 1200 1200" xmlns="http://www.w3.org/2000/svg">
 <g>
  <path d="m1086.2 832.4c-23.203-213.89-388.55-425.68-404.11-434.58l-0.14062-0.09375c-3.375-1.8281-82.734-44.719-111.28-49.031l0.046875 0.046875c-9.5156-2.0156-19.219 2.1094-24.328 10.359-32.344 49.688 50.25 278.16 166.74 461.26 81.234 127.64 179.63 179.29 252.94 179.29v-0.046875c14.812 0.14062 29.578-2.2031 43.641-6.9844 57.516-20.156 85.406-78.562 76.5-160.22zm-508.78-383.76c181.97 358.5 369.84 525.98 369.84 525.98-238.13-113.11-369.79-525.98-369.79-525.98zm202.69 243.61c62.812 94.266 133.64 182.86 211.74 264.84-134.29-66.891-211.74-264.84-211.74-264.84zm28.219-148.92s225.47 108.28 247.26 363c0 0-38.25-165.14-247.26-363z"/>
  <path d="m420.94 204.19c-8.0625-5.4375-18.609-5.2031-26.438 0.5625-24.234 15.656-78.938 87.375-81.281 90.422l-0.09375 0.09375c-10.5 14.531-256.4 357.84-189.61 562.36 24.047 73.688 69.422 115.03 125.53 115.03 3.3281 0 6.75-0.14062 10.125-0.46875 77.719-6.7031 173.26-96.891 199.45-279.05 30.938-214.78 12.234-456.98-37.688-488.95zm-239.11 708.24c-84.891-241.18 76.125-432.56 76.125-432.56-109.17 266.29-76.125 432.56-76.125 432.56zm163.08-308.44s10.828 212.26-84.094 328.45c37.453-106.83 65.625-216.74 84.094-328.45zm-36.234 326.11s102.38-229.92 120.74-631.55c0 0 49.781 430.5-120.74 631.55z"/>
 </g>
</svg>
