<?xml version="1.0" encoding="UTF-8"?>
<svg width="1200pt" height="1200pt" version="1.1" viewBox="0 0 1200 1200" xmlns="http://www.w3.org/2000/svg">
 <g>
  <path d="m859.55 534.61c-10.145-15.047-14.664-32.867-12.711-50.164l34.961-310.45c0.44922-3.9766-0.82422-7.9609-3.4883-10.941-2.6719-2.9805-6.4766-4.6875-10.492-4.6875h-535.66c-4.0039 0-7.8203 1.707-10.492 4.6875-2.6641 2.9805-3.9375 6.9648-3.4883 10.941l34.969 310.43c1.9414 17.305-2.5781 35.129-12.723 50.176-34.379 50.961-57.355 106.73-68.289 165.74-29.477 159.3 40.379 287.32 71.773 334.96 2.5977 3.9453 7.0117 6.3281 11.738 6.3281l206.75-0.003906c7.0117 0 12.957-5.1641 13.922-12.113l23.672-169.3 23.664 169.3c0.97656 6.9453 6.9102 12.113 13.922 12.113h206.76c4.7266 0 9.1406-2.3711 11.738-6.3281 31.398-47.645 101.23-175.64 71.758-334.96-10.91-58.988-33.887-114.75-68.285-165.74zm-22.875 478.9h-186.86l-29.652-212.16c19.734 24.758 42.133 40.641 66.992 47.258 8.9727 2.3906 18.242 3.582 27.824 3.582 32.852 0 69.188-14.023 108.41-41.906 6.3281-4.5 7.8086-13.285 3.3203-19.613-4.4922-6.3203-13.273-7.8086-19.613-3.3203-43.52 30.93-81.449 42.383-112.71 34.078-31.473-8.3828-58.93-37.539-81.629-86.672-2.2969-4.9766-7.2852-8.1641-12.77-8.1641s-10.461 3.1875-12.77 8.1641c-22.695 49.133-50.176 78.301-81.648 86.672-31.266 8.3047-69.195-3.1406-112.71-34.078-6.3281-4.5-15.113-3.0078-19.613 3.3203s-3.0195 15.113 3.3203 19.613c50.664 36.008 96.496 48.91 136.24 38.324 24.863-6.6172 47.27-22.492 67.012-47.258l-29.664 212.16h-186.84c-31.031-49.078-89.926-165.34-63.523-308.04 10.219-55.199 31.734-107.39 63.945-155.14 13.867-20.578 20.035-45.094 17.363-69.039l-33.215-294.8h504.19l-33.207 294.82c-2.6914 23.934 3.4766 48.441 17.352 69.039 32.23 47.766 53.746 99.965 63.945 155.13 26.414 142.72-32.469 258.96-63.492 308.04z"/>
  <path d="m1074.3 364.12c-3.3008-7.0312-11.664-10.051-18.711-6.75l-46.461 21.824 18.488-36.789c2.6914-5.3516 1.6875-11.832-2.4922-16.125-4.1914-4.293-10.633-5.4648-16.059-2.9141-19.414 9.1211-59.062 27.75-78.461 36.844-7.0312 3.3008-10.07 11.672-6.7695 18.703 3.2891 7.0312 11.672 10.051 18.703 6.7695 10.238-4.8008 26.117-12.254 41.691-19.566l-18.477 36.777c-2.6914 5.3516-1.6875 11.832 2.4922 16.125 2.7109 2.7734 6.3672 4.2461 10.078 4.2461 2.0234 0 4.0703-0.42969 5.9805-1.3398l83.258-39.113c7.0312-3.2891 10.051-11.672 6.7383-18.691z"/>
  <path d="m1027.8 537.54c-18.066-11.523-55.012-35.082-73.059-46.621-6.5547-4.1914-15.242-2.2773-19.426 4.2734-4.1797 6.543-2.2695 15.234 4.2734 19.414 9.5352 6.0938 24.32 15.523 38.82 24.777l-40.949 4.0391c-5.9609 0.58984-10.902 4.8945-12.301 10.727-1.3867 5.832 1.0586 11.906 6.1133 15.133l77.539 49.473c2.3438 1.4922 4.9609 2.2031 7.5547 2.2031 4.6406 0 9.1875-2.2969 11.867-6.4961 4.1719-6.543 2.2578-15.242-4.293-19.426l-43.285-27.617 40.961-4.0391c5.9609-0.58984 10.902-4.8945 12.301-10.727 1.3906-5.8203-1.0664-11.887-6.1172-15.113z"/>
  <path d="m221.69 423.26c3.7109 0 7.3672-1.4727 10.078-4.2578 4.1797-4.293 5.1836-10.762 2.4922-16.125l-18.488-36.77c15.57 7.3125 31.445 14.766 41.68 19.555 7.0234 3.2812 15.402 0.25391 18.703-6.7695 3.3008-7.0312 0.26172-15.402-6.7695-18.703-19.398-9.0859-59.043-27.723-78.461-36.844-5.4297-2.5508-11.879-1.3789-16.059 2.9141-4.1797 4.293-5.1836 10.762-2.4922 16.125l18.488 36.777-46.461-21.824c-7.0312-3.3086-15.402-0.28125-18.711 6.7422-3.3086 7.0234-0.28125 15.402 6.7422 18.711l83.27 39.113c1.9297 0.92578 3.9727 1.3555 5.9883 1.3555z"/>
  <path d="m274.83 554.16c-1.3984-5.832-6.3281-10.133-12.301-10.727l-40.949-4.0391c14.504-9.2539 29.289-18.684 38.82-24.777 6.543-4.1797 8.457-12.883 4.2734-19.414-4.1797-6.5547-12.883-8.4766-19.426-4.2734-18.047 11.531-54.992 35.102-73.059 46.621-5.0625 3.2266-7.5078 9.2891-6.1211 15.121 1.3984 5.832 6.3281 10.145 12.301 10.727l40.961 4.0391-43.285 27.617c-6.543 4.1797-8.4648 12.883-4.293 19.426 2.6797 4.1992 7.2266 6.4961 11.867 6.4961 2.5859 0 5.2109-0.71094 7.5547-2.2031l77.539-49.473c5.0586-3.2344 7.5039-9.3086 6.1172-15.141z"/>
  <path d="m724.51 257.08h-105.36c-7.7734 0-14.062 6.2891-14.062 14.062v99.422l-84.488-46.781c-4.8086-2.6523-10.727-2.2891-15.148 0.97656-4.4258 3.2539-6.543 8.793-5.4375 14.176l52.68 254.79c1.3125 6.3477 6.7969 10.977 13.285 11.203 0.16797 0 0.32812 0.007813 0.49609 0.007813 6.2812 0 11.82-4.1719 13.539-10.258l29.43-104.79 71.961 26.109c3.9297 1.4258 8.2891 1.0312 11.906-1.0859 3.6094-2.1094 6.0859-5.7188 6.7695-9.8438l38.305-231.63c0.67578-4.0781-0.47656-8.2422-3.1484-11.391-2.668-3.1445-6.5977-4.9609-10.723-4.9609zm-49.422 226.7-70.293-25.5c-3.6836-1.332-7.7422-1.0781-11.223 0.71094-3.4766 1.7891-6.0547 4.9414-7.1172 8.7109l-17.906 63.777-34.789-168.24 78.582 43.508c4.3398 2.3984 9.6641 2.3359 13.949-0.1875 4.293-2.5312 6.918-7.1328 6.918-12.113v-109.22h74.719z"/>
 </g>
</svg>
