<?xml version="1.0" encoding="UTF-8"?>
<svg width="1200pt" height="1200pt" version="1.1" viewBox="0 0 1200 1200" xmlns="http://www.w3.org/2000/svg">
 <path d="m951.27 529.73c-59.781-150-182.12-300-265.52-391.46-46.574-51.074-125.67-51.02-172.17 0.125-83.164 91.473-205.1 241.41-264.85 391.34-51.602 129.48-38.156 285.08 35.102 401.04-75.848-346.86 156.95-629.85 159.53-632.93 4.4414-5.2734 12.305-5.957 17.602-1.5234 5.2969 4.4336 5.9844 12.316 1.5391 17.602-2.6445 3.1484-254.05 309.05-138.83 669.47 55.328 60.781 131.97 103.32 228.63 113.87-57.078-42.699-125.06-118.27-141.14-230.78-0.97656-6.8359 3.7852-13.172 10.621-14.148 6.7148-0.97656 13.137 3.7734 14.137 10.609 18.484 129.48 110.46 206.06 165.56 237.02 55.758-0.12891 105.54-10.504 149.39-28.582 39.973-80.305 159.84-357.77 38.102-587.75-3.2461-6.1016-0.90234-13.66 5.1758-16.895 6.1016-3.2344 13.672-0.91406 16.922 5.1992 116.34 219.78 26.461 472.5-23.898 582.04 178.44-98.992 238.14-338.5 164.11-524.24zm-563.77 245.27c-6.9023 0-12.5-5.5977-12.5-12.5s5.5977-12.5 12.5-12.5 12.5 5.5938 12.5 12.5-5.5977 12.5-12.5 12.5zm96.41-316.65c-61.156 127.32-48.145 227.14-47.996 228.14 0.95313 6.8242-3.8086 13.148-10.621 14.113-0.60938 0.085938-1.1992 0.12109-1.7812 0.12109-6.1016 0-11.449-4.4922-12.352-10.719-0.60938-4.3438-14.426-107.87 50.246-242.47 3.0039-6.25 10.449-8.8242 16.676-5.8594 6.2266 2.9883 8.8359 10.461 5.8359 16.676zm128.59 541.65c-6.9023 0-12.5-5.5977-12.5-12.5s5.5977-12.5 12.5-12.5 12.5 5.5938 12.5 12.5-5.5977 12.5-12.5 12.5zm-12.5-375c-13.809 0-25-11.195-25-25s11.191-25 25-25 25 11.191 25 25-11.191 25-25 25zm60.109 307.35c-2.4414 3.3711-6.25 5.1523-10.109 5.1523-2.5391 0-5.1016-0.78125-7.3242-2.3906-5.5898-4.0391-6.8359-11.852-2.7812-17.445 1.9258-2.6992 191.87-274.01-50.66-686.33-3.5156-5.9453-1.5117-13.609 4.4219-17.113 5.9336-3.4883 13.598-1.5508 17.113 4.4414 251.25 427.12 51.391 710.88 49.34 713.68zm77.391-557.35c-6.9023 0-12.5-5.5977-12.5-12.5s5.5977-12.5 12.5-12.5 12.5 5.5938 12.5 12.5-5.5977 12.5-12.5 12.5z"/>
</svg>
