<?xml version="1.0" encoding="UTF-8"?>
<svg width="1200pt" height="1200pt" version="1.1" viewBox="0 0 1200 1200" xmlns="http://www.w3.org/2000/svg">
 <defs>
  <clipPath id="b">
   <path d="m222.14 381h365.86v257h-365.86z"/>
  </clipPath>
  <clipPath id="a">
   <path d="m614 354h363.86v328h-363.86z"/>
  </clipPath>
 </defs>
 <g clip-path="url(#b)">
  <path d="m339.22 381.64c-0.50391 0.054687-1.0039 0.17188-1.4805 0.35156-35.066 0.70703-56.254 13.445-69.645 34.691-13.621 21.613-20.523 50.691-32.078 85.336-8.7305 26.184-16.699 54.324-12.902 79.059 1.9023 12.367 6.9805 23.996 16.473 33.211 9.4961 9.2148 23.156 15.91 41.664 19.613 66.465 13.289 142.32-19.785 205.97-19.785 24.664 0 62.988 9.9062 88.297 15.777l0.007812-0.003906c1.7539 0.40625 3.5938-0.011719 5.0039-1.1328s2.2305-2.8203 2.2305-4.6211c0-0.97656 0.13281-2 0.26953-2.9648h-0.003906c0.003906-0.11328 0.003906-0.23047 0-0.34766 0.003906-0.058593 0.003906-0.11719 0-0.17187 0.011719-0.058594 0.089844-0.11719 0.089844-0.17578v-0.089844c0.042968-0.20703 0.13281-0.40625 0.17969-0.60937 0.070313-0.40234 0.10156-0.8125 0.089844-1.2188l0.17969 0.089843c0.042969-0.22266 0.13281-0.47656 0.17969-0.69922h-0.09375c0.13672-0.22266 0.25391-0.45703 0.35938-0.69922 0.042969-0.17969 0.089844-0.43359 0.17969-0.60938 0.011719-0.03125 0.089844-0.054688 0.089844-0.089844h-0.003906v-0.085937l0.089844-0.089844c0.042968-0.14453 0.089844-0.29297 0.17969-0.4375 0.03125-0.058594 0.058594-0.11719 0.089844-0.17578 0.070313-0.19922 0.12891-0.40234 0.17578-0.60937h0.089844v-0.089844c0.042969-0.089844 0.13281-0.16797 0.17969-0.26172 0.042968-0.089844 0.13281-0.16797 0.17969-0.26172 0.011719-0.023437-0.011719-0.066406 0-0.089844 0.089844-0.18359 0.22266-0.34375 0.35547-0.52344 0.03125-0.058594 0.058594-0.11719 0.089844-0.17578s0.058593-0.11719 0.089843-0.17578c0.09375-0.14062 0.18359-0.28516 0.26562-0.4375 0.011719-0.019531-0.011718-0.066406 0-0.089843v0.003906c0.16016-0.16797 0.30859-0.33984 0.44531-0.52344 0.13281-0.1875 0.22266-0.34375 0.35547-0.52344h0.003906c1.6289-2.6016 0.99219-6.0156-1.4609-7.8594-2.457-1.8398-5.9141-1.4922-7.9531 0.79688-0.089843 0.11719-0.17969 0.22656-0.26953 0.34766-0.13281 0.17578-0.22266 0.34766-0.35547 0.52344-0.22266 0.33203-0.48047 0.62109-0.69531 0.95703v0.003906c-0.097657 0.16797-0.1875 0.34375-0.26953 0.52344-0.03125 0.027343-0.058594 0.058593-0.089844 0.089843-0.089844 0.125-0.17969 0.22266-0.26953 0.34766h0.003907c-0.03125 0.054687-0.0625 0.11328-0.089844 0.17188-0.17969 0.31641-0.35547 0.63281-0.52344 0.95703v0.003906c-0.0625 0.11328-0.12109 0.22656-0.17578 0.34766-0.03125 0.054687-0.0625 0.11328-0.089844 0.17187-0.0625 0.085938-0.12109 0.17578-0.17969 0.26563-0.042969 0.10547-0.13281 0.23828-0.17969 0.34766v0.089844c-0.13281 0.30469-0.3125 0.5625-0.44531 0.87109-0.027344 0.0625-0.042969 0.11328-0.089844 0.17578-0.042969 0.13672-0.13281 0.29297-0.17969 0.4375-0.089844 0.17578-0.17969 0.34766-0.26953 0.52344l0.003907-0.003906v0.089844c-0.03125 0.085937-0.0625 0.17578-0.089844 0.26172-0.089844 0.24219-0.17969 0.45312-0.26953 0.69922h0.003906c-0.078125 0.25781-0.14062 0.51953-0.17969 0.78516-4.7344-0.65625-9.6016-1.2266-13.422-2.3516-5.2852-1.5625-9.0391-3.7148-11.504-7.2344-0.62109-0.88672-2.4297-8.6953-2.3516-16.125 0.089843-7.4297 1.6523-15.5 2.4414-17.086-0.40234 0.78516-1.1562 0.67188 0.44531 0.60938 2.6367-0.10156 8.7109 1.3516 14.645 3.5742h-0.003907c2.1133 0.77734 4.4883 0.28516 6.1172-1.2695 1.6289-1.5586 2.2344-3.9062 1.5547-6.0547-4.0508-12.711-7.1211-26.543-10.199-41.492v0.003906c-0.13672-0.71094-0.40234-1.3906-0.78516-2.0078-1.6211-2.5273-3.3086-5.1406-5.0547-7.7578h0.089844c-25.758-38.625-50.27-65.742-85.508-95.098-26.922-22.43-61.402-32.52-94.922-37.309-12.832-1.832-24.172-2.6602-34.344-2.6133h-0.003906c-0.17578-0.035156-0.34766-0.066406-0.52344-0.089844h-0.089844-0.089844zm0.089844 11.855h0.089844c9.5781-0.070313 20.609 0.72656 33.211 2.5273 32.324 4.6172 64.555 14.332 88.996 34.691 34.57 28.801 57.98 54.688 83.242 92.57 1.4844 2.2266 2.9492 4.5508 4.4453 6.8867 2.3086 11.172 4.9141 21.551 7.7578 31.816-3.0625-0.72266-6.2188-2.1172-9.1523-2.0039-3.6992 0.14453-8.4023 1.6445-10.547 5.9258-2.9062 5.8438-3.6602 13.719-3.75 22.227-0.089844 8.5117 0.089843 16.586 4.5312 22.926 0.089843 0.15234 0.3125 0.11719 0.44531 0.26172-18.09-3.8906-35.715-9.0664-51.34-9.0664-67.566 0-142.72 32.227-203.62 20.047-16.922-3.3828-28.242-9.2852-35.738-16.562-7.4961-7.2773-11.477-16.09-13.074-26.5-3.1992-20.812 3.8789-47.723 12.465-73.48 11.723-35.16 18.816-63.84 30.77-82.809 11.941-18.945 27.785-29.172 61.277-29.461z"/>
 </g>
 <path d="m511.03 612.89c-50.719 0.83984-101.41 13.684-150.19 47.242-28.941 19.68-51.762 59.828-64.676 100.41-6.457 20.293-10.336 40.691-10.895 58.926-0.55859 18.23 2.0391 34.398 9.8477 46.109 14.453 21.676 37.688 33.328 61.715 41.664 24.023 8.3359 49.223 13.57 68.688 21.355 11.691 4.6758 23.336 15.43 36.957 22.402 6.8125 3.4844 14.367 6.0352 22.664 5.5781s16.996-3.957 25.887-11.07c24.367-19.488 31.559-51.48 33.734-83.68 2.1719-32.199-0.53125-65.496 2.0039-88.301 4.6758-42.074 23.82-88.887 46.723-124.39l-0.003906 0.003907c0.86328-1.3164 1.1602-2.9219 0.83203-4.457-0.32812-1.5391-1.2539-2.8828-2.5742-3.7344-5.5469-3.6406-8.9766-9.9766-8.9766-16.824v-0.26172h-0.003906c0.050781-2.9375-2.0664-5.4648-4.9688-5.9297-21.781-3.4102-43.672-5.2461-65.547-4.9688-0.40234-0.070312-0.8125-0.10156-1.2188-0.085937zm0.17969 11.766c20.754-0.34375 41.703 1.6055 62.672 4.793 1.25 6.25 4.1211 11.668 8.6289 16.125-23.121 36.594-42.656 83.039-47.504 126.65-2.7656 24.895 0.089844 57.863-2.0039 88.82s-9.0273 59.02-29.289 75.223c-7.4648 5.9727-13.602 8.1484-19.176 8.4531-5.5742 0.30859-10.945-1.2656-16.648-4.1836-11.406-5.8359-23.215-17.047-37.918-22.926-20.996-8.3945-46.285-13.543-69.297-21.531s-43.41-18.617-55.699-37.047c-5.6094-8.4102-8.3594-22.422-7.8438-39.223 0.51172-16.805 4.1953-36.285 10.371-55.699 12.359-38.832 34.957-77.219 59.969-94.227v0.007812h0.089844c46.805-32.199 94.781-44.43 143.65-45.238z"/>
 <path d="m626.35 624.05c-2.6289 0.16016-4.8359 2.0469-5.4023 4.6211-2.0469 9.1367-9.8477 15.426-18.828 15.43-2.7188 0-5.4453-0.59766-7.9336-1.7422v-0.003907c-1.4336-0.65625-3.0664-0.71094-4.5391-0.15234-1.4727 0.55469-2.6641 1.6797-3.3047 3.1172-19.828 44.219-35.535 94.844-27.195 144.87 2.4375 14.625 12.484 24.492 22.488 32.949 10.004 8.457 20.195 15.965 25.625 25.016 12.855 21.422 26.316 52.242 45.414 76.617 19.098 24.379 45.297 42.605 81.152 36.086 14.234-2.5859 34.461-12.023 57.008-25.801 22.547-13.777 47.066-31.953 67.902-52.125 20.836-20.172 38.086-42.258 45.938-64.676 7.8477-22.418 5.4336-45.91-13.16-64.504-43.965-43.949-99.496-41.375-152.63-54.652-15.121-3.7773-34.074-18.277-53.086-34.082s-38.09-32.73-56.832-40.531h-0.003906c-0.82422-0.34375-1.7188-0.49219-2.6133-0.4375zm-0.44531 12.465c15.371 6.8477 33.691 22.098 52.301 37.57 19.148 15.918 38.441 31.664 57.879 36.523 55.242 13.809 106.79 11.27 147.05 51.516 15.625 15.621 17.211 32.684 10.371 52.211-6.8398 19.531-23.004 40.727-43.059 60.145-20.059 19.418-43.875 37.203-65.723 50.555s-42.043 22.242-52.996 24.23c-31.211 5.6719-52.078-9.0781-69.82-31.727-17.742-22.648-31.008-52.938-44.543-75.484-7.1758-11.957-18.559-19.941-28.066-27.98-9.5078-8.0391-16.863-15.582-18.566-25.801-7.4766-44.855 6.4609-91.605 24.93-133.8 2.1641 0.47656 4.2227 1.3945 6.4492 1.3945 11.41 0 18.375-9.6914 23.797-19.352z"/>
 <g clip-path="url(#a)">
  <path d="m832.76 354.88c-18.891-0.23047-33.574 4.6953-44.977 13.25-11.422 8.5703-19.508 20.383-26.324 33.473-13.633 26.18-22.941 57.703-42.625 82.809-13.703 17.477-66.18 78.566-102.42 118.37l-0.003906-0.003906c-2.0664 2.2266-2.1055 5.6602-0.089844 7.9336 3.2656 3.6641 5.1406 8.418 5.1445 13.422 0 1.5117-0.17969 3.0625-0.52344 4.5312v0.003907c-0.03125 0.11328-0.0625 0.23047-0.089844 0.34766v0.085937c-0.070312 0.20313-0.12891 0.40625-0.17578 0.61328-0.13281 0.42578-0.26953 0.89062-0.44531 1.3086l-0.003907-0.003907c-0.16406 0.53906-0.25781 1.0977-0.26562 1.6562-0.40234 0.35938-0.75391 0.76953-1.043 1.2227-0.22266 0.37109-0.40234 0.77734-0.61328 1.1328l0.35547 0.17578v-0.003906c-0.53125 0.35938-1 0.80078-1.3906 1.3086-0.13281 0.16016-0.22266 0.28125-0.35547 0.4375-1.7578 2.5391-1.2578 6.0039 1.1406 7.9453 2.3984 1.9414 5.8906 1.7109 8.0117-0.53516 0.22266-0.25 0.40234-0.44141 0.61328-0.69922h-0.003907c0.56641-0.80078 0.92578-1.7266 1.043-2.7031l0.61328 0.34766c0.35547-0.56641 0.63672-1.1523 0.96094-1.7422 0.13672-0.25 0.25391-0.51172 0.35547-0.78516 8.832 4.543 18.238 10.574 28.328 18.652v0.003906c0.64063 0.52344 1.3828 0.91016 2.1797 1.1328 57.059 14.574 117.1 29.523 170.23 20.309 9.3242-1.6172 21.789-6.8867 36.262-14.645 14.473-7.7578 30.668-18.059 46.199-29.637 31.059-23.16 59.879-50.793 64.504-77.84 2.125-12.422-2.5742-29.477-10.723-49.945-8.1445-20.469-20.164-43.777-34.344-65.984-14.18-22.207-30.434-43.227-47.332-59.012-16.898-15.785-34.504-26.699-52.125-26.934h-0.089843zm-0.089843 11.766c12.602 0.16797 28.363 9.0117 44.191 23.797s31.711 35.152 45.5 56.746c13.789 21.59 25.492 44.363 33.297 63.98 7.8047 19.617 11.312 36.57 10.109 43.582-3.3633 19.676-29.887 48-59.969 70.43-15.043 11.215-30.82 21.141-44.715 28.59s-26.176 12.383-32.688 13.512c-49.328 8.5508-107.93-5.6289-164.74-20.137-10.328-8.2031-20.555-15.113-30.77-20.047 0.089844-0.99219 0.35547-1.9648 0.35547-2.9648 0-5.8555-3.0625-10.918-6.0156-15.863 36.32-40.02 86.75-98.445 100.94-116.54 21.488-27.402 31.031-60.035 43.844-84.637 6.4062-12.301 13.492-22.535 22.836-29.551 9.3477-7.0117 20.973-11.121 37.832-10.895z"/>
 </g>
 <path d="m547.9 559.98c-3.6992 0.14453-8.4062 1.6445-10.547 5.9258-2.9258 5.8516-3.6602 13.715-3.75 22.227-0.089843 8.5117 0.17969 16.676 4.6211 23.012 4.4609 6.3047 11.094 9.793 17.781 11.766 6.7266 1.9883 13.77 2.6875 20.309 3.5742v0.003906c1.5625 0.23047 3.1523-0.17578 4.4141-1.125 1.2617-0.95312 2.0898-2.3672 2.3008-3.9336 0.59375-4.4375 2.5625-8.5039 5.6641-11.594v0.003906c1.7969-1.7891 2.2539-4.5273 1.1328-6.8008-4.957-10.105-4.8867-17.746-2.7891-24.145 0.89453-2.7383-0.32031-5.7227-2.875-7.0586-4.6055-2.4297-10.98-5.3711-17.434-7.7578-6.4531-2.3867-12.801-4.332-18.828-4.0977zm0 11.156c-0.40234 0.78906-1.1562 0.67188 0.44531 0.60938h0.089844c2.5938-0.10156 8.4023 1.25 14.207 3.3984 4.9922 1.8477 9.7852 4.1719 13.773 6.1875-1.1797 7.0234-0.9375 14.684 2.4414 23.188-2.2734 2.8242-3.5078 6.1719-4.707 9.5898-5.2656-0.71094-10.52-1.2852-14.73-2.5273-5.2852-1.5625-9.1289-3.7148-11.594-7.2344-0.625-0.88672-2.4297-8.6992-2.3516-16.125 0.089844-7.4258 1.6523-15.504 2.4414-17.086z"/>
 <path d="m607.78 545.86c-0.875 0.011719-1.7383 0.22266-2.5273 0.60938-1.0039 0.20703-2.0273 0.24219-2.9648 0.69922v-0.089844c-7.75 3.7734-17.301 10.426-23.273 20.746-5.9688 10.32-7.6133 24.57 0.17969 40.445l0.003907-0.003906c0.83594 1.7227 2.457 2.9297 4.3438 3.2383 1.8867 0.3125 3.8086-0.30859 5.1562-1.668 3.625-3.6055 8.4258-5.5781 13.422-5.5781 5.7812 0 11.297 2.668 14.992 7.3203 1.2383 1.5312 3.1562 2.3398 5.1133 2.168 1.9609-0.17578 3.7031-1.3164 4.6523-3.0391 8-14.492 7.4297-30.219 3.2266-42.363-2.1016-6.0742-5.0938-11.344-8.7148-15.34-2.3789-2.625-5.6797-3.4609-8.8047-4.707h-0.003907c-0.98047-1.375-2.5039-2.2617-4.1836-2.4414v0.26172c-0.17969-0.007813-0.26953-0.25781-0.44531-0.26172h-0.003906-0.085938-0.089843zm-0.35547 11.855c0.13281-0.058594 0.17969 0 0.35547 0 0.47656 0.003906 2.5859 0.69141 4.8828 3.2266 2.2969 2.5352 4.6367 6.5117 6.2773 11.246 2.7305 7.8867 1.3594 17.898-2.0039 27.371-4.7969-2.9531-9.0703-7.1445-14.82-7.1484-4.6211 0-8.2734 3.1797-12.379 5.1445-2.9141-9.4023-3.9023-17.809-0.44531-23.797 4.2617-7.3672 11.922-13.016 18.129-16.039z"/>
 <path d="m551.39 614.63c-0.55859-0.019531-1.1172 0.039063-1.6562 0.17188v0.089843c-0.58594 0.14844-1.1445 0.38281-1.6562 0.69922-1.2344 0.78125-2.1328 1.9922-2.5273 3.3984-3.7812 3.4023-7.25 7.1562-9.9375 13.422-0.26953 0.63672-1.0586 2.6016-1.8281 4.707-0.40234 1.0547-0.75391 2.0352-1.043 3.0508-0.13281 0.50781-0.3125 1.0469-0.44531 1.7422-0.042969 0.34766-0.13281 0.67188-0.089844 1.3945 0.015625 0.36328 0.26953 1.4531 0.26953 1.4805 0.003906 0.011719 0.44531 1.2109 0.44531 1.2188 0.003906 0.011719 1.125 1.3867 1.1328 1.3945l-0.003906 0.007812c0.19531 0.1875 0.39844 0.35938 0.61328 0.51953 7.8242 5.8828 17.781 7.875 27.543 7.8438s19.398-2.0977 27.195-5.4023c1.9609-0.82031 3.3281-2.6328 3.582-4.7422 0.25-2.1133-0.65234-4.1953-2.3633-5.457-0.042969-0.042969-0.13281-0.042969-0.17969-0.089844-0.17969-0.14453-0.35547-0.28906-0.52344-0.4375l0.003907 0.003907c-0.03125-0.03125-0.058594-0.0625-0.089844-0.089844-0.089844-0.0625-0.17969-0.11328-0.26953-0.17578-0.042969-0.050781-0.13281-0.12109-0.17969-0.17578-0.027344-0.027343-0.042968-0.058593-0.089844-0.089843l0.003907 0.003906-0.089844-0.089844c-0.13281-0.12891-0.3125-0.30469-0.44531-0.4375-0.13281-0.13672-0.22266-0.20703-0.35547-0.34766h-0.089844l-0.44531-0.52344c-0.042969-0.054687-0.042969-0.12109-0.089844-0.17578-0.058594-0.085937-0.11719-0.17578-0.17969-0.26172-0.089844-0.12109-0.26953-0.13672-0.35547-0.26172v-0.089844c-0.089844-0.13672-0.22266-0.29297-0.35547-0.4375-0.13281-0.19922-0.26953-0.40234-0.44531-0.60938h-0.003906c-0.058594-0.0625-0.11719-0.11719-0.17969-0.17578l-0.089843-0.17578c-0.035157-0.042968-0.042969-0.13281-0.089844-0.17578-0.089844-0.17578-0.26953-0.34766-0.35547-0.52344v0.003906l-0.089844-0.089844-0.17969-0.26172c0.003906-0.03125 0.003906-0.058593 0-0.089843-0.035156-0.050782-0.042969-0.125-0.089844-0.17578-0.089843-0.16406-0.17969-0.26953-0.26953-0.4375h0.003906c-0.027344-0.058594-0.058594-0.11328-0.089844-0.17188-0.089843-0.17969-0.17969-0.34375-0.26953-0.52344l-0.089843-0.089844c-0.027344-0.058594-0.042969-0.11719-0.089844-0.17578l0.003906 0.003906v-0.089844c-0.019531-0.035156-0.089844-0.050781-0.089844-0.089843l-0.089844-0.17578c-0.023437-0.054687-0.042968-0.12109-0.089843-0.17578v0.003906-0.089843c-0.089844-0.17578-0.089844-0.34766-0.17969-0.52344h0.003907l-0.089844-0.089844c-0.089844-0.19922-0.089844-0.40625-0.17969-0.60938l-0.089844-0.089843c-0.042968-0.13672-0.042968-0.29297-0.089843-0.4375l-0.089844-0.089844h0.003906v-0.17188c-0.035156-0.10547-0.042969-0.15234-0.089843-0.26172v-0.003906c-0.027344-0.085938-0.058594-0.17578-0.089844-0.26172-0.035156-0.10156-0.042969-0.24609-0.089844-0.34766l-0.089844-0.089844c-0.035156-0.11719-0.042968-0.23047-0.089844-0.34766-0.007812-0.023438 0.007813-0.0625 0-0.089844l-0.089843-0.17578c-0.027344-0.11719-0.042969-0.23047-0.089844-0.34766v-0.17578c-0.015625-0.089844-0.089844-0.16797-0.089844-0.26172h0.003907v-0.26172c-0.023438-0.125-0.042969-0.22266-0.089844-0.34766v-0.089843c-0.003906-0.03125 0.003906-0.054688 0-0.089844l-0.089844-0.26172c-0.003906-0.027344 0.003906-0.058594 0-0.089844-0.007812-0.10156 0.007812-0.25 0-0.34766-0.011719-0.16016 0.011719-0.36328 0-0.52344-0.027344-0.03125-0.058594-0.058594-0.089844-0.089844-0.007812-0.12109 0.007813-0.22656 0-0.34766v-0.089844c-0.003906-0.058594 0.003906-0.11719 0-0.17578v-0.17578 0.003907c0.003906-0.11719 0.003906-0.23047 0-0.34766-0.007812-0.19922 0.003906-0.32031 0-0.52344v-0.26172c0.042969-2.9688-2.1211-5.5039-5.0547-5.9297-8.3477-1.3047-16.629-2.2227-24.93-3.0508-0.33984-0.089844-0.69141-0.14844-1.043-0.17188-0.11719-0.035156-0.23828-0.066406-0.35937-0.089843zm2.0938 12.203c5.9531 0.61719 11.848 1.3242 17.781 2.1797 0.015625 0.09375 0.089843 0.16406 0.089843 0.26172 0.035157 0.19922 0.042969 0.41016 0.089844 0.60938 0.023438 0.14453 0.042969 0.29297 0.089844 0.4375h-0.003906v0.17578c0.011718 0.0625-0.011719 0.11328 0 0.17578 0.089844 0.32422 0.17969 0.63672 0.26953 0.95703 0.027344 0.058594 0.058594 0.11719 0.089844 0.17188 0.035156 0.12891 0.042969 0.30859 0.089843 0.4375 0.042969 0.21875 0.089844 0.48047 0.17969 0.69922h-0.003906l0.089844 0.089844c0.089843 0.21484 0.089843 0.39844 0.17969 0.60938 0.035156 0.11328 0.042969 0.23828 0.089844 0.34766 0.089843 0.28125 0.17969 0.59375 0.26953 0.87109h-0.003906c0.03125 0.03125 0.058594 0.0625 0.089844 0.089844 0.13281 0.38281 0.26953 0.75391 0.44531 1.1328 0.089844 0.23828 0.17969 0.46094 0.26953 0.69922 0.089844 0.17578 0.089844 0.34766 0.17969 0.52344h-0.003907c0.03125 0.058593 0.058594 0.11328 0.089844 0.17187 0.089844 0.15234 0.17969 0.28125 0.26953 0.4375 0.042968 0.11719 0.13281 0.23047 0.17969 0.34766-0.003906 0.058593-0.003906 0.11719 0 0.17578 0.17969 0.34766 0.40234 0.62109 0.61328 0.95703 0.13281 0.23047 0.22266 0.46875 0.35547 0.69922 0.035156 0.070312 0.042969 0.10156 0.089844 0.17578l-0.003907-0.003906c0.10938 0.18359 0.23047 0.35547 0.35938 0.52344 0.089843 0.10547 0.089843 0.24219 0.17969 0.34766 0.019531 0.03125 0.089844 0.054687 0.089844 0.089843-4.5859 1.1211-8.875 2.7734-13.773 2.7891-6.5742 0.023437-11.945-2.0156-16.648-4.4453 0.40234-1.0586 0.90625-2.3984 0.96094-2.5273 2.5703-6 4.8789-8.4883 7.0586-10.199z"/>
 <path d="m636.63 589.09c-0.84766 0.023438-1.6797 0.23438-2.4414 0.60938-0.058594 0.027344-0.11719 0.058594-0.17969 0.089844-2.3555 0.43359-4.75 0.78906-6.8008 1.6562h0.003906c-0.80859 0.35938-1.5234 0.89453-2.0938 1.5664-2.9102 3.2305-6.0547 6.8398-8.7148 9.7617v0.003906c-1.8789 2.0547-2.0625 5.1406-0.44922 7.4062l0.089844 0.089844c0.10938 0.18359 0.23047 0.35547 0.35938 0.52344 0.17969 0.19141 0.35547 0.32422 0.52344 0.52344 0.17969 0.19531 0.26953 0.40625 0.44531 0.60938 0.023438 0.03125 0.042969 0.054687 0.089844 0.089844h-0.003906c0.058593 0.089843 0.11719 0.17578 0.17969 0.26562l0.089844 0.089844c0.015625 0.019532-0.015625 0.066406 0 0.089844v-0.003906c0.027343 0.058594 0.058593 0.11719 0.089843 0.17578 0.13281 0.1875 0.3125 0.41406 0.44531 0.60938 0.13281 0.17969 0.22266 0.42969 0.35547 0.60938 0.019531 0.035156 0.042968 0.054687 0.089844 0.089844 0.019531 0.035156 0.089843 0.054687 0.089843 0.089843 0.042969 0.11719 0.13281 0.23047 0.17969 0.34766 0.027343 0.089843 0.058593 0.17578 0.089843 0.26172 0.089844 0.19531 0.26953 0.41016 0.35547 0.60937v0.003907c0.078125 0.20703 0.16797 0.41016 0.26953 0.60938 0.015626 0.035156 0.089844 0.054687 0.089844 0.089844v0.089843c0.042969 0.13672 0.13281 0.29297 0.17969 0.4375l-0.003906-0.003906c0.027343 0.089844 0.058593 0.17969 0.089843 0.26562 0.023438 0.058594 0.042969 0.11719 0.089844 0.17578 0.011719 0.039063 0.089844 0.13672 0.089844 0.17578 0.03125 0.085938 0.042969 0.17969 0.089843 0.26172 0.089844 0.20703 0.089844 0.40234 0.17969 0.60938 0.089844 0.24609 0.17969 0.53516 0.26953 0.78516h-0.089843c0.042968 0.25 0.13281 0.44531 0.17969 0.69922l-0.003906-0.003906c0.027343 0.058594 0.058593 0.11719 0.089843 0.17188 0.042969 0.21094 0.042969 0.40234 0.089844 0.60938 0.007813 0.039063 0.089844 0.13281 0.089844 0.17578 0.027344 0.14844 0.042969 0.28516 0.089844 0.4375h-0.003906v0.26562c0.023437 0.13672 0.042968 0.21094 0.089843 0.34766 0.023438 0.15625 0.042969 0.36719 0.089844 0.52344 0.003906 0.058594-0.003906 0.11719 0 0.17578v-0.003906 0.089844c0.007813 0.089844-0.007813 0.17578 0 0.26172 0.011719 0.22266-0.003906 0.38281 0 0.60938v0.003906c-0.003906 0.085937-0.003906 0.17578 0 0.26172 0.003906 0.042969 0.089844 0.12891 0.089844 0.17578 0.003906 0.16016 0 0.36328 0 0.52344v0.089844c-0.003907 0.77344-0.089844 1.5859-0.17969 2.3516-0.089843 0.69141-0.17969 1.3281-0.35547 2.0039-0.003906 0.03125-0.003906 0.058594 0 0.089844v0.089843c-0.61328 2.7852 0.85156 5.6094 3.4844 6.7109 3.2461 1.3516 6.832 3.3359 10.547 5.5781 2.3047 1.3633 5.2383 1.0078 7.1484-0.87109 2.3984-2.3828 4.1602-5.4844 5.8398-9.8516 1.7617-4.4961 4.4922-11.555 5.5781-18.742 0.54297-3.5938 0.67969-7.1953-0.26953-10.895-0.94141-3.6992-3.457-7.5703-7.4102-9.5898-2.0078-1.0234-4.1406-1.0859-6.2773-1.3086l0.003906 0.003907c-0.8125-0.40234-1.707-0.60938-2.6172-0.60938h-0.17969-0.089844zm0.44531 11.766h0.089844 0.089843c1.3242-0.042969 2.3203 0.14844 3.2266 0.60938 0.77734 0.39844 0.96875 0.66797 1.3086 2.0039 0.35547 1.3359 0.40234 3.6211 0 6.2773-0.80469 5.3086-3.2539 11.844-4.9688 16.211-0.5 1.293-0.71094 1.2656-1.1328 2.0938-0.87109-0.47266-1.7344-0.95313-2.6172-1.3945 0.089843-0.82812 0.089843-1.6094 0.089843-2.4414v-0.085938-0.17578-0.089843c-0.003906-0.33984 0.015626-0.62109 0-0.95703v-0.089844-0.089843c-0.003906-0.066407 0.003907-0.10547 0-0.17578-0.011718-0.32031-0.042968-0.64063-0.089843-0.95703v-0.17188c-0.007813-0.10547 0.011719-0.15625 0-0.26172v-0.089843c-0.015625-0.16797-0.089844-0.35156-0.089844-0.52344v-0.003906c0.003906-0.054687 0.003906-0.11328 0-0.17188-0.035156-0.25-0.042969-0.53906-0.089844-0.78516-0.023437-0.15234-0.042969-0.28516-0.089843-0.4375-0.042969-0.33984-0.13281-0.71094-0.17969-1.0469h0.003906c-0.03125-0.027344-0.058594-0.058594-0.089844-0.089844-0.011718-0.0625 0.011719-0.11328 0-0.17578-0.042968-0.30078-0.089843-0.57422-0.17969-0.87109v-0.089844c-0.089844-0.36719-0.17969-0.68359-0.26953-1.0469l0.003906 0.003907v-0.089844c-0.089844-0.39844-0.22266-0.74219-0.35547-1.1328-0.015625-0.058593 0.015625-0.11719 0-0.17578l-0.003906 0.003906c-0.027344-0.03125-0.058594-0.0625-0.085937-0.089844-0.089844-0.28906-0.17969-0.58203-0.26953-0.87109-0.054687-0.14844-0.11328-0.29688-0.17969-0.4375-0.03125-0.085938-0.042969-0.17578-0.089844-0.26172v-0.089844c-0.011719-0.039062-0.089844-0.050781-0.089844-0.089844h0.003907c-0.054688-0.17969-0.11328-0.35156-0.17969-0.52344-0.042969-0.15625-0.089844-0.28125-0.17969-0.4375-0.097656-0.26953-0.21875-0.53516-0.35547-0.78516-0.13281-0.30859-0.26953-0.57031-0.44531-0.87109-0.042969-0.09375-0.13281-0.16797-0.17969-0.26172v-0.089844c-0.011719-0.023437 0.011718-0.0625 0-0.089843-0.082032-0.17969-0.17188-0.35547-0.26953-0.52344-0.054687-0.089843-0.11719-0.17969-0.17578-0.26562l-0.089843-0.26172c-0.035157-0.058594-0.13281-0.11719-0.17969-0.17578-0.089844-0.14453-0.089844-0.29297-0.17969-0.4375-0.054687-0.089844-0.11328-0.17578-0.17578-0.26172l-0.089843-0.17578c-0.089844-0.12109-0.17969-0.23047-0.26953-0.34766 1.5352-1.7148 3.0352-3.3828 4.5312-5.0547 1.6172-0.59766 3.1719-1.1602 4.1875-1.2188z"/>
 <path d="m602.12 592.41c-17.203 0-31.117 14.344-31.117 31.727 0 17.387 13.914 31.73 31.117 31.727 13.984 0 21.34-12.918 25.277-25.801v0.003906c3.2422-0.035156 5.8516-2.6836 5.8398-5.9297-0.035156-3.1758-2.5781-5.7578-5.7539-5.8398-3.8945-12.953-11.332-25.887-25.367-25.887zm0 11.855c10.672 0 19.352 8.7227 19.352 19.875 0 11.152-8.6797 19.961-19.352 19.961-10.672 0-19.352-8.8086-19.352-19.961 0-11.152 8.6797-19.875 19.352-19.875z"/>
 <path d="m602.12 592.41c-17.203 0-31.117 14.344-31.117 31.727 0 17.387 13.914 31.73 31.117 31.727 13.984 0 21.34-12.918 25.277-25.801v0.003906c3.2422-0.035156 5.8516-2.6836 5.8398-5.9297-0.035156-3.1758-2.5781-5.7578-5.7539-5.8398-3.8945-12.953-11.332-25.887-25.367-25.887zm0 11.855c10.672 0 19.352 8.7227 19.352 19.875 0 11.152-8.6797 19.961-19.352 19.961-10.672 0-19.352-8.8086-19.352-19.961 0-11.152 8.6797-19.875 19.352-19.875z"/>
 <path d="m626.52 624.13c-2.6719 0.074219-4.9609 1.9336-5.5781 4.5352-0.042968 0.23828-0.13281 0.46094-0.17969 0.69922v-0.003907c-0.035156 0.11719-0.0625 0.23047-0.089844 0.34766v0.089843c-0.027343 0.089844-0.042969 0.17578-0.089843 0.26172-0.042969 0.14453-0.13281 0.29297-0.17969 0.4375v0.089844c-0.035156 0.10547-0.13281 0.24219-0.17969 0.34766h0.003907c-0.035157 0.14453-0.066407 0.29297-0.089844 0.4375-0.015625 0.035156-0.089844 0.054688-0.089844 0.089844-0.03125 0.058594-0.058593 0.11719-0.089843 0.17578-0.089844 0.22656-0.17969 0.47656-0.26953 0.69922l-0.089844 0.17578c-0.089843 0.15625-0.089843 0.28125-0.17969 0.4375l0.003906-0.003906c-0.09375 0.14062-0.18359 0.28906-0.26562 0.4375v0.089843l-0.089844 0.089844c-0.0625 0.085938-0.12109 0.17188-0.17969 0.26172v0.089844c-0.089844 0.1875-0.22266 0.33984-0.35547 0.52344h0.089844c-0.089844 0.14844-0.26953 0.28906-0.35547 0.4375h-0.003906v0.089844c-0.019531 0.03125-0.089844 0.054688-0.089844 0.089844l-0.089843 0.089844c-0.027344 0.042968 0.027343 0.12891 0 0.17578-0.089844 0.125-0.17969 0.22656-0.26953 0.34766l0.003906-0.003906c-0.0625 0.054687-0.12109 0.11328-0.17969 0.17188-0.13281 0.16797-0.22266 0.35547-0.35547 0.52344-0.13281 0.20703-0.26953 0.41016-0.44531 0.60938l-0.003906 0.003906c-0.058594 0.027344-0.11719 0.054688-0.17578 0.085938v0.089844c-0.089844 0.12109-0.22266 0.22656-0.35547 0.34766-0.3125 0.37109-0.69531 0.78906-1.043 1.1328-0.17969 0.16406-0.35547 0.36328-0.52344 0.52344-0.089843 0.070312-0.17969 0.10156-0.26953 0.17578-0.09375 0.085938-0.18359 0.17188-0.26953 0.26172-0.089844 0.0625-0.089844 0.11328-0.17969 0.17578h0.003907c-0.0625 0.054688-0.12109 0.11328-0.17969 0.17188-0.042969 0.042969-0.13281 0.042969-0.17969 0.089844-0.03125 0.03125-0.058593 0.058594-0.089843 0.089844-0.17969 0.14844-0.40234 0.30078-0.61328 0.4375h0.003906c-0.03125 0.03125-0.0625 0.058594-0.089844 0.089844-0.17969 0.11719-0.35547 0.24219-0.52344 0.34766-0.089843 0.054687-0.17969 0.11328-0.26562 0.17578l-0.089844 0.089844c-0.089844 0.050781-0.17969 0.039062-0.26953 0.089843l-0.52344 0.34766c-0.035156 0.019531-0.042969 0.066406-0.089844 0.089843l0.003907-0.003906h-0.089844c-0.17969 0.09375-0.35547 0.17578-0.52344 0.26172v0.003906l-0.089844 0.089844h-0.089843c-0.17969 0.09375-0.40234 0.17578-0.61328 0.26172-0.089844 0.03125-0.17969 0.14453-0.26953 0.17578l0.003906-0.003906h-0.085937c-0.13281 0.0625-0.22266 0.11719-0.35547 0.17578-0.13281 0.058594-0.3125 0.12109-0.44531 0.17578-0.089844 0.03125-0.17969 0.058594-0.26953 0.089844-0.22266 0.082031-0.40234 0.19141-0.61328 0.26172h-0.089843c-0.23828 0.074218-0.46875 0.16016-0.69531 0.26172-0.042969 0.015626-0.089844-0.015624-0.17969 0-0.40234 0.10156-0.82422 0.18359-1.2227 0.26172-0.13281 0.023438-0.22266 0.066407-0.35547 0.089844-0.13281 0.019531-0.22266 0.070313-0.35547 0.089844h-0.003906-0.17578c-0.035156 0.003906-0.042968-0.003907-0.089844 0-0.089843 0.027343-0.17969 0.058593-0.26953 0.089843-0.089843 0.011719-0.17969-0.007812-0.26953 0-0.089844 0.011719-0.26953-0.011718-0.35547 0-0.13281 0.011719-0.22266 0.074219-0.35547 0.089844-0.46875 0.035156-0.92187 0-1.3984 0-0.49219 0-0.99219 0.039063-1.4805 0-0.49609-0.039062-0.99219-0.097656-1.4805-0.17578-0.73047-0.11719-1.4648-0.32031-2.1797-0.52344-0.47656-0.13281-0.92969-0.26172-1.3906-0.4375-0.40234-0.14844-0.75-0.34766-1.1328-0.52344l-0.003906 0.003906c-1.75-0.8125-3.7891-0.71875-5.457 0.25781-1.668 0.97266-2.7539 2.6992-2.9102 4.6211-0.51172 5.6641-0.35547 10.965-0.17969 14.383 0.22266 4.4648 1.1289 8.2383 3.2266 11.332 2.1172 3.1133 5.5781 5.1562 8.8906 5.7539 6.625 1.1914 12.57-1.457 18.129-4.3594 20.398-10.641 22.832-29.543 16.211-42.797 0.027344-0.11719 0.042969-0.23047 0.089844-0.34766h-0.17969c-0.77734-1.5 0.089843-3.6641-0.96094-4.9688h0.007813c-1.0977-1.3906-2.7656-2.2148-4.5391-2.2422zm-11.766 29.027c-2.2344 4 2.3359 7.4531-4.0977 10.809-4.6094 2.4023-9.0859 3.4883-10.547 3.2266-0.73047-0.12891-0.80078-0.16406-1.2188-0.78516-0.40234-0.61719-1.0703-2.2031-1.2188-5.3164v-0.089844c-0.089843-1.2344 0.089844-3.5977 0.089844-5.4023 0.64844 0.09375 1.2617 0.21094 1.918 0.26172h0.089844c0.80078 0.0625 1.5547 0.089844 2.3516 0.089844 0.76953 0 1.5039-0.027344 2.2656-0.089844 0.22266-0.015625 0.40234-0.066406 0.61328-0.089843 0.17969-0.015626 0.35547-0.066407 0.52344-0.089844v0.089844c0.26953-0.03125 0.58984-0.13281 0.87109-0.17578h-0.003907 0.089844c0.089844-0.015625 0.13281 0.019532 0.26953 0l0.44531-0.089844 0.089843-0.089843c0.17969-0.035157 0.40234-0.050781 0.61328-0.089844l-0.003906 0.003906h0.26953l0.089843-0.089843h0.089844c0.52344-0.11328 1.0547-0.21094 1.5664-0.34766 0.13281-0.035156 0.3125-0.050781 0.44531-0.089843 0.35547-0.10156 0.68359-0.23047 1.043-0.34766 0.089844-0.027343 0.17969-0.058593 0.26562-0.089843 0.17969-0.050782 0.35156-0.10938 0.52344-0.17578 0.13281-0.039062 0.22266-0.042968 0.35547-0.089844 0.03125-0.027343 0.0625-0.058593 0.089844-0.085937l0.26953-0.089844c0.058594-0.03125 0.11719-0.058593 0.17969-0.089843h0.089843c0.17969-0.070313 0.35547-0.1875 0.52344-0.26172l-0.003907-0.003907c0.03125 0.003907 0.058594 0.003907 0.089844 0 0.13281-0.050781 0.22266-0.125 0.35547-0.17578 0.089844-0.035156 0.17969-0.050781 0.26953-0.089843 0.13281-0.0625 0.26953-0.10547 0.44531-0.17578z"/>
 <path d="m664.7 237.82c-18.531 0.52344-38.246 4.2695-51.43 4.2695-32.801 0-79.426-5.7773-115.14 2.6133-17.859 4.1953-33.5 12.297-42.188 27.281s-9.7656 35.734-1.3906 63.633c9.0352 30.105 27.785 54.41 45.5 78.625 17.715 24.215 34.379 48.262 41.055 77.578 6.6641 29.262 10.684 55.805 18.305 79.758 0.55078 1.7305 1.8711 3.1133 3.5742 3.7461 5.793 2.1641 11.473 4.875 15.602 7.0586 1.543 0.8125 3.3633 0.90234 4.9766 0.25 1.6133-0.65625 2.8555-1.9922 3.3945-3.6484 3.2773-10.055 12.898-17.574 20.484-21.27 0.13281-0.054688 0.17969 0 0.35547 0 0.40234 0.003906 1.9609 0.41016 3.832 2.1797 1.8789 1.7656 3.9766 4.625 5.6641 8.1953 3.3789 7.1406 5.1641 17.016 3.0508 26.672h0.003906c-0.57812 2.7266 0.82422 5.4883 3.3711 6.6211 2.543 1.1367 5.5352 0.33984 7.1758-1.9141 52.953-73.348 93.246-213.62 101.72-278.41 1.5898-12.152 2.2422-27.031-2.4414-41.492-4.6836-14.457-15.113-28.316-34.168-37.047-8.7344-4-18.914-4.5977-29.289-4.4453-0.58984-0.17969-1.207-0.26953-1.8281-0.26172zm0.17969 11.766h0.17969c10.25-0.28906 19.5 0.65625 26.062 3.6602 16.352 7.4922 24.062 18.156 27.895 29.984 3.8281 11.828 3.3945 25.039 1.918 36.348-7.625 58.285-45.473 182.74-91.609 255.92-0.90234-4.0469 0.22266-9.0547-1.3906-12.465-2.2188-4.6875-4.9414-8.707-8.1953-11.766-3.25-3.0586-7.1289-5.3477-11.77-5.4023-1.8984-0.023437-3.9062 0.44922-5.6641 1.3086-7.7969 3.8047-16.035 12.734-21.879 23.098-3.0977-1.5469-6.5-3.0781-10.285-4.6211-6.8203-22.199-10.945-47.574-17.52-76.445-7.3125-32.098-25.246-57.504-43.059-81.848s-35.43-47.684-43.672-75.137c-7.832-26.105-6.2617-43.051 0.26953-54.305 6.5234-11.25 18.586-17.922 34.691-21.703 32.207-7.5664 78.344-2.2656 112.45-2.2656 15.25 0 34.562-3.8555 51.602-4.3594z"/>
</svg>
