<?xml version="1.0" encoding="UTF-8"?>
<svg width="1200pt" height="1200pt" version="1.1" viewBox="0 0 1200 1200" xmlns="http://www.w3.org/2000/svg">
 <path d="m963.94 517.45c-8.8594-124.55-69.234-154.78-174.24-221.63-0.375-0.14062-31.688-17.625-38.062-81.469-0.14062-1.3125-0.23438-2.1562-0.23438-3 40.781-59.297 75.234-93 75.844-93.609l-8.2969-8.625c-0.60938 0.60938-36 35.156-77.859 96.141l-0.23438 0.23438c-0.23438 0.23438-0.46875 0.60938-0.60938 0.9375-0.23438 0.23438-0.375 0.60938-0.46875 0.84375-14.859 21.703-30.375 46.781-45.469 74.766-22.219 8.625-42.844 17.156-62.062 25.781-12.844 4.2188-26.625 8.3906-41.062 12.844-120.94 37.078-286.55 87.844-311.39 239.06-32.062 195-79.219 233.29-78.141 235.92 0.9375 2.2969 111.38-22.547 187.55-92.531-0.46875 5.1562-0.9375 10.219-1.2188 15.469-7.0781 132.71 90 322.08 131.29 370.22 1.2188 1.4531 2.8594 2.0625 4.5469 2.0625 1.2188 0 2.5312-0.375 3.4688-1.2188 0.14062-0.14062 17.766-12.703 95.062-54.609 198.71-107.58 270.42-253.97 213.19-435.05-2.0625-6.375-4.5469-13.453-7.5469-20.859 16.922 19.688 34.078 37.453 49.219 52.922 11.766 12.141 22.922 23.531 31.547 33.469 47.766 55.078 88.547 125.86 89.297 125.53 3-1.125-23.062-118.12-34.125-273.61zm-219.32-134.06c-1.2188 28.547 3.7031 55.312 12.609 80.531-26.391-29.859-59.062-57-98.391-74.297 23.391-64.078 53.391-118.69 81.703-162 0.23438 1.5469 0.375 3.1406 0.46875 4.6875 2.3906 32.531 5.8594 95.531 3.6094 151.08zm-60.375-82.312c-13.547 26.766-26.391 55.781-37.688 87.141-15.234 5.2969-87.609 32.859-151.92 95.625 12.234-32.625 27.703-64.688 52.078-90.141 33.469-34.781 103.69-74.531 136.55-92.156 0.28125-0.09375 0.60938-0.23438 0.98438-0.46875zm-453.37 480.71c16.547-24.844 44.625-84.234 66.938-220.08 21.469-130.55 156.47-183.47 269.39-219.14-155.39 84-183.14 160.78-201 210.47-2.0625 5.625-3.9375 10.922-5.8594 15.703-32.156 79.922-65.531 136.31-65.531 136.31s6.7031-3.9375 15.234-15.609c15.609-21.469 40.078-63.469 61.312-116.16 2.0625-4.9219 3.9375-10.312 6-16.219 18.703-51.844 48.375-133.92 233.06-223.22-24.938 16.219-49.547 34.219-66.141 51.469-32.297 33.469-49.688 77.297-63.609 119.53v0.14062c-38.859 44.297-71.859 102.94-82.922 179.29-56.109 56.719-131.95 86.25-166.87 97.5zm575.29-169.78c42.141 179.29-24.609 314.16-204.24 412.22-53.297 29.062-75.844 43.078-84.375 48.609-35.156-54.609-107.3-236.53-95.766-362.29 21.375-230.76 217.45-302.53 238.55-309.61 52.688 27.844 90.234 78.938 114.47 127.45 1.0781 2.1562 2.0625 4.3125 3.1406 6.4688 14.062 28.781 23.297 56.297 28.219 77.156zm119.39 60.375c-8.8594-10.219-20.156-21.703-32.062-33.938-27.375-27.938-59.531-61.078-85.078-99.469-3.7031-6.2344-7.5469-12.469-11.625-18.703-20.766-36.141-34.453-76.547-32.531-121.55 1.3125-30.844 0.70312-63.844-0.375-92.859 11.391 31.688 25.922 59.531 35.062 73.688 91.781 141.24 120.47 230.86 123 230.86 0.60938 0-13.781-50.156-18.469-62.766-1.2188-3.375-8.1562-36.703-94.547-174.61-7.5469-12-20.156-35.531-30.609-62.766 6.9375 7.4531 12.469 10.547 12.938 10.688 104.3 66.469 159 106.69 167.53 225.71 6.8438 96.375 19.922 170.29 29.062 213.24-14.906-24.891-36.609-57.891-62.297-87.516z"/>
</svg>
