<?xml version="1.0" encoding="UTF-8"?>
<svg width="1200pt" height="1200pt" version="1.1" viewBox="0 0 1200 1200" xmlns="http://www.w3.org/2000/svg">
 <defs>
  <clipPath id="b">
   <path d="m283 222.14h634v577.86h-634z"/>
  </clipPath>
  <clipPath id="a">
   <path d="m552 785h41v192.86h-41z"/>
  </clipPath>
 </defs>
 <g clip-path="url(#b)">
  <path d="m459.28 222.15c-27.691-0.13281-52.547 1.3828-72.961 5.668-20.414 4.2812-36.723 11.254-46.547 23.012-31.605 37.82-48.02 70.504-53.695 99.371-5.6797 28.871-0.3125 53.723 10.984 74.789 22.578 42.137 67.773 69.859 95.973 93.008 10.562 8.6719 26.262 33.387 38.441 60.758 12.18 27.371 21.336 57.863 21.879 77.754 0.019532 0.75391-0.57031 1.9727-3.6602 4.0078-3.0898 2.0352-7.8555 4.0664-12.465 6.0156-4.6094 1.9492-8.9141 3.5312-12.551 6.7109-1.8203 1.5938-3.9336 4.3086-3.75 7.8438 0.17969 3.5391 2.3984 6.0273 4.707 7.8438 14.359 11.293 28.508 16.5 44.02 30.945 9.4766 8.8242 18.945 24.441 27.895 39.227 8.9492 14.785 16.887 28.793 27.809 35.391 13.934 8.4219 31.859 5.2852 44.719-0.35547 9.7266-4.2656 18.242-12.273 26.238-24.234 6.4531-9.6523 10.211-23.914 13.336-40.707s5.3867-35.992 7.582-54.566c2.1953-18.574 4.293-36.543 7.0625-50.559 1.3828-7.0078 2.9414-13.047 4.6211-17.52 1.6797-4.4727 3.6445-7.2539 4.6211-8.0195 61.812-48.594 140.73-77.988 205.8-151.5 10.934-12.348 35.031-41.793 53.434-73.57 9.1992-15.887 17.059-32.344 20.922-47.855 3.8594-15.512 3.8594-30.535-4.0117-42.363-5.3477-8.0391-14.957-13-26.586-17.086-11.629-4.082-25.562-7.1016-40.012-9.4141-28.898-4.6289-60.027-6.4844-77.668-7.8438-89.348-6.8828-212.89-26.125-305.09-26.672h-0.007813c-0.34375-0.0625-0.69141-0.089844-1.043-0.089844zm-0.089844 11.77c90.676 0.40234 214.85 19.789 305.35 26.762 17.859 1.375 48.625 3.2578 76.707 7.7578 14.043 2.25 27.387 5.1914 37.918 8.8906 10.535 3.6992 17.969 8.4219 20.66 12.465 5.2539 7.8984 5.7812 19.266 2.3516 33.035-3.4258 13.773-10.746 29.406-19.613 44.719-17.734 30.621-41.656 59.824-52.129 71.652-62.953 71.117-140.36 99.871-204.15 150.02-4.0156 3.1562-6.3203 7.6992-8.3672 13.164-2.0469 5.4609-3.6875 11.977-5.1445 19.352-2.9102 14.75-5.125 32.941-7.3203 51.516-2.1992 18.578-4.3945 37.578-7.4102 53.785-3.0117 16.207-7.0586 29.695-11.508 36.352-7.1836 10.746-14.18 16.852-21.27 19.961-10.348 4.5352-25.324 6.1836-33.82 1.043-5.9453-3.5938-14.887-16.66-23.797-31.383-8.9102-14.719-18.332-30.984-29.898-41.754-16.359-15.234-30.652-21.016-42.973-30.246 1.6953-0.97266 3.625-2.1211 7.0625-3.5742 4.5703-1.9375 9.8477-4.0703 14.383-7.0625s9.1602-7.625 8.9766-14.207c-0.63281-23.039-10.344-53.922-22.926-82.199-12.582-28.277-27.551-53.453-41.754-65.117-29.332-24.082-72.648-51.277-93.098-89.438-10.223-19.078-15.016-40.676-9.8516-66.945 5.168-26.27 20.504-57.344 51.254-94.141 7.0586-8.4492 20.836-14.914 39.922-18.914 19.086-4.0039 43.23-5.625 70.434-5.4922z"/>
 </g>
 <path d="m902.97 277.94c-1.5742-0.15234-3.1445 0.33594-4.3594 1.3516-1.2109 1.0156-1.9648 2.4766-2.0938 4.0547-5.2812 65.418-71.031 124.96-147.75 175.73-76.723 50.777-163.06 92.5-207.72 126.05v-0.003906l-0.089844 0.089844c-15.523 12.199-73.156 60.699-87.777 72.438-0.13281 0.089844-0.17969 0.22266-0.35547 0.35547 0.027344 0.03125 0.40234 0.55469 0.61328 0.78516h-0.003906c-0.36328-0.1875-0.74219-0.33594-1.1367-0.44531-2.9141 3.1016-13.121 7.0898-20.922 10.809h0.003906-0.089844c-0.80859 0.40234-1.5781 0.80078-2.3516 1.2188-1.4102 0.76172-2.8125 1.6211-4.1875 2.7891-0.089844 0.085938-0.17969 0.17578-0.26562 0.26953l-0.089844 0.089844c-0.81641 0.72656-1.4961 1.4766-2.0039 2.2656h0.089843c-0.042968 0.089844-0.26953 0.64453-0.44531 0.87109-0.03125 0.042969-0.042969 0.13281-0.089844 0.17969h-0.003906c-0.027344 0.027344-0.058594 0.058594-0.085938 0.085937-0.011718 0.015625-0.089843 0.089844-0.089843 0.089844 0.003906-0.003906-0.042969 0.13281-0.089844 0.17969-0.17969 0.3125-0.17969 0.26953-0.35547 0.78516-0.070312 0.19922-0.13281 0.40625-0.17969 0.61328-0.35547 1.3906-0.35547 2.5586-0.17969 3.6602 0.03125 0.027344 0.058594 0.058594 0.089844 0.085938 0.027344 0.35547 0.085937 0.70312 0.17969 1.0469 0.3125 0.875 0.83203 1.9102 1.4805 2.7891 0.69141 0.94531 1.6367 1.9727 2.7891 2.875 1.1641 0.90234 2.6289 1.3359 4.0977 1.2188 21.145-1.5117 45.652-13.727 71.48-27.547 25.828-13.82 52.805-29.488 76.535-38.617 16.547-6.3672 38.387-15.91 55.004-25.016h-0.003906c0.27734-0.15234 0.53906-0.32812 0.78516-0.52344 10.125-7.9609 20.734-15.348 31.641-22.578 21.789-14.438 44.863-27.973 68.168-42.711 5.625-3.5625 11.262-7.2383 16.91-10.984 3.5352-2.3438 7.1094-4.7148 10.637-7.1484l0.26953-0.17969 0.089844-0.089844c0.042969-0.042969 0.3125-0.17969 0.26953-0.17969l-0.003906 0.003907c0.17969-0.078125 0.35156-0.16797 0.52344-0.26562 8.5469-5.9258 17.031-12.211 25.453-18.828 1.1523-0.90234 2.2812-1.7852 3.3125-2.6172 2.9531-2.3672 5.8711-4.7578 8.8047-7.2344 1.3906-1.1719 2.7539-2.3242 4.0977-3.4844h-0.003906v-0.089843c2.7656-2.4023 5.5547-4.8242 8.2812-7.3203 1.293-1.1875 2.5234-2.3438 3.832-3.5742v-0.003906h0.089844c2.8242-2.6562 5.5312-5.4414 8.2812-8.1953 1.3242-1.3242 2.7266-2.6719 4.1875-4.1875 0.54297-0.5625 1.0859-1.0625 1.5703-1.5703 3.1445-3.2969 6.293-6.6719 9.4141-10.199 8.1992-9.2617 23.801-28.129 38.879-50.383 2.5156-3.7148 5.0547-7.5547 7.4961-11.418s4.8438-7.793 7.1484-11.77c4.6016-7.9453 8.8008-16.02 12.379-24.059 8.0352-18.059 12.98-35.867 10.199-51.516-0.3125-1.7539-0.69531-3.4727-1.2188-5.1445-1.043-3.3516-2.5625-6.5469-4.5312-9.5-0.80859-1.2148-1.668-2.3125-2.6172-3.3125v0.003906c-0.058594-0.0625-0.12109-0.12109-0.17969-0.17969l-0.17969-0.17969c-0.97656-0.99609-2.2695-1.6133-3.6602-1.7422zm-0.44531 17.957c0.042968 0.17969 0.22266 0.26953 0.26953 0.44531 0.35547 1.1836 0.73047 2.3867 0.96094 3.6602 2.0742 11.566-1.8438 27.703-9.4141 44.719-3.3633 7.5625-7.4219 15.27-11.855 22.926-2.2148 3.8242-4.5156 7.6602-6.8867 11.418-2.3711 3.7539-4.7891 7.4609-7.2344 11.07-14.688 21.684-30.066 40.293-37.918 49.164-2.9922 3.3789-6.0703 6.6211-9.1523 9.8516-0.53125 0.55859-1.0078 1.0781-1.4805 1.5703-1.2656 1.3125-2.5859 2.5859-4.0078 4.0078-2.6953 2.6992-5.4062 5.3945-8.1055 7.9336-1.2578 1.1797-2.5547 2.3086-3.832 3.4844-2.6602 2.4336-5.3438 4.8242-8.0195 7.1484-1.3516 1.168-2.6094 2.2891-3.9219 3.4023-2.8477 2.4062-5.7461 4.75-8.6289 7.0625l-0.011719-0.003907v0.089844c-1.1055 0.89453-2.1367 1.7461-3.1367 2.5273-8.1367 6.3906-16.379 12.379-24.668 18.133-0.019531 0.011719-0.089844-0.011718-0.089844 0-0.003906 0.003907-0.089844 0.13281-0.17969 0.17969-0.035157 0.023438-0.042969 0.042969-0.089844 0.089844-0.17969 0.089844-0.48047 0.22266-0.44531 0.17969v-0.007812c-0.0625 0.089843-0.12109 0.17578-0.17969 0.26953h-0.089844c-3.5781 2.4727-7.2148 4.8555-10.809 7.2344-5.5508 3.6836-11.066 7.2734-16.648 10.809-23.086 14.605-46.188 28.211-68.34 42.887-10.801 7.1562-21.418 14.582-31.641 22.578-15.82 8.6719-37.504 18.211-53.609 24.406-25.133 9.668-52.285 25.551-77.844 39.227-12.68 6.7852-21.824 8.3203-33.125 12.988 16.531-13.359 71.195-59.297 85.688-70.695 42.535-31.945 129.57-74.32 207.2-125.7 73.137-48.406 134.95-105.98 147.23-173.03zm-445.96 366.46c0.44531 1.7461 1.6641 3.1914 3.3086 3.9258-1.1172 0.44531-2.2188 0.89844-3.3125 1.3086v-5.2305zm-24.234 19.789h0.089844c0.003906-0.015625-0.089844 0.13281-0.089844 0.089844v-0.089844z"/>
 <path d="m400.96 512.16c-2.2188 0.26563-4.0977 1.7617-4.8555 3.8633-0.75781 2.1055-0.26172 4.457 1.2812 6.0742 11.199 11.828 25.41 36.082 36.438 61.977 11.023 25.898 19.016 53.82 19.527 72.438 0.003907 0.40234-0.089843 0.79297-1.043 1.8281l-0.003906 0.003906c-1.9883 2.0859-2.1836 5.3008-0.45703 7.6094 1.7266 2.3086 4.8672 3.0352 7.4297 1.7148 0.79297-0.40234 0.875-0.48047 0.26953-0.17969v0.003906c0.37109-0.19531 0.72266-0.42969 1.043-0.69922 15.172-12.18 72.883-60.691 87.605-72.262 1.1367-0.89453 2.543-1.9141 3.9219-2.9648 1.3203-1.0156 2.1484-2.543 2.2812-4.2031 0.12891-1.6602-0.44531-3.3008-1.582-4.5117-27.676-29.125-72.406-41.879-106.96-50.121-12.754-3.043-30.91-11.48-40.359-19.266-0.55078-0.42578-1.168-0.75-1.832-0.96094v-0.089843c-0.86719-0.29688-1.7891-0.38672-2.6992-0.26562zm-2.9648 10.461c0.50391 0.40234 1.3906 0.55078 1.918 0.96094l-0.089843 0.089843zm18.305 8.8047c9.2109 4.7852 17.926 10.707 26.762 12.812 31.82 7.5898 69.648 21.207 94.578 43.672-15.715 12.543-54.422 45.055-74.27 61.367-1.7969-20.676-8.375-45.469-18.742-69.824-8.3555-19.629-18.484-34.02-28.328-48.031z"/>
 <path d="m296.27 330.85c-2.8477-0.28516-5.4961 1.5156-6.2734 4.2734-0.027344 0.089844-0.089844 0.26953-0.089844 0.35547-2.2773 7.3203-3.9023 14.488-4.8828 21.355-0.49609 3.5-0.86328 6.9062-1.043 10.285-0.17969 3.418-0.17969 6.7383-0.089844 9.9375 0.089844 3.2773 0.40234 6.4453 0.78516 9.5v0.003906 0.17969c0.003907 0.03125-0.003906 0.042968 0 0.089843 1.8359 14.414 6.7227 27.426 13.25 39.312 0-0.007812 0.13281 0.22266 0.17969 0.35547 0.027343 0.089844 0.058593 0.17969 0.089843 0.26953 0.039063 0.089844 0.042969 0.089844 0.089844 0.17969 0.015625 0.035156-0.015625 0.042969 0 0.089843 0.042969 0.089844 0.042969 0.17969 0.089844 0.26953l-0.003906-0.003906c0.03125 0.03125 0.0625 0.058593 0.089844 0.089843 0.042968 0.089844 0.17969 0.26953 0.17969 0.26953 0.003906 0.003907 0.17969 0.26953 0.17969 0.26953 1.0938 1.8711 2.2266 3.5195 3.1367 4.9688 2.0352 3.2344 4.0898 6.5742 6.5391 9.8516l-0.003906-0.007812h0.089843c1.3594 1.8125 2.6367 3.4023 3.832 4.8828 2.3125 2.8555 4.6992 5.8477 7.3203 8.7188 1.6602 1.8125 3.3203 3.4648 4.8828 5.0547h0.003906 0.089844l0.26953 0.26953c2.1484 2.1992 4.3516 4.4805 6.7109 6.7109l0.089844 0.089844h-0.003906c0.03125 0.058594 0.058594 0.11719 0.089844 0.17578 1.4297 1.3438 2.8125 2.5078 4.0977 3.6602 0.40234 0.40234 0.13281 0.042968 0.17969 0.089844 0.027344 0.027343 0.042969 0.042968 0.089844 0.089843-0.042969-0.089843 0.22266 0.13281 0.089844 0 0.054687 0.089844 0.11328 0.17969 0.17578 0.26562 3.0508 2.7344 6.1836 5.3867 9.3281 8.0195-0.042969-0.042969 0.011719 0.011718 0.17969 0.17969 0.089844 0.089844 0.17969 0.17969 0.26953 0.26953h-0.003906c0.03125 0.027344 0.058593 0.058594 0.089843 0.089844 0.03125 0.027344 0.058594 0.058594 0.089844 0.085938 6.5312 5.4492 13.039 10.516 19.438 15.43 4.1289 3.1758 8.4375 6.5898 12.465 9.6758 1.4102 1.0781 2.8242 2.1836 4.1875 3.2266 3.1758 2.4492 6.2383 4.875 9.1523 7.2344 0.03125 0.03125 0.058594 0.0625 0.089844 0.089844 0.40234 0.3125 0.99219 0.71484 1.3906 1.043 0.71094 0.58203 1.668 1.6055 2.7891 2.7031 0.55078 0.55078 0.89453 0.80469 0.96094 0.87109l0.089844 0.089844c0.52734 0.52734 0.48828 0.50781 0.26953 0.26953 0.058594 0.0625 0.11719 0.12109 0.17578 0.17969l0.17969 0.17969c0.14453 0.125 0.29297 0.24219 0.44531 0.35547 11.727 9.6641 30.184 18.066 45.066 21.617 29.812 7.1133 66.344 17.883 91.266 37.742v0.003906c1.6406 1.3008 3.8477 1.6406 5.8008 0.88672 1.9531-0.75 3.3594-2.4805 3.7031-4.5469 0.35547-2.125 0.54297-4.0156 0.78516-5.6641v-0.003906c0.26172-1.6836-0.21484-3.3984-1.3086-4.707-26.504-31.016-76.477-60.883-103.82-74.355-43.426-21.402-87.855-38.309-120.38-89.523-2.1641-3.4102-7.1328-14.98-10.895-27.98-3.7617-13-6.6641-27.949-6.5391-39.227l-0.003906 0.003907c0.023437-1.5625-0.57031-3.0664-1.6562-4.1875l-0.17969-0.089844h0.003906c-0.95703-0.97656-2.2188-1.5938-3.5781-1.7461zm-0.52344 41.84c0.57422 2.2344 0.50781 4.5547 1.1328 6.7109 3.9648 13.699 8.3672 24.992 12.203 31.031 34.516 54.348 82.422 72.723 125.18 93.793 20.941 10.32 54.102 34.508 80.02 57.094-22.898-11.551-46.84-23.355-68.43-28.504-12.668-3.0234-30.598-11.352-40.098-19.09-0.042969-0.039062-0.042969-0.042968-0.089844-0.089843-0.042968-0.035157-0.13281-0.042969-0.17969-0.089844-0.03125-0.023437-0.22266-0.3125-0.17969-0.26953l-0.089843-0.089844c-0.56641-0.57031-0.88281-0.80078-0.96094-0.87109-1.0703-1.0547-2.25-2.3281-3.6602-3.4844v0.089844c-0.49219-0.40234-1.0586-0.91016-1.5664-1.3086h-0.089844c-2.9766-2.4102-6.0156-4.8359-9.2383-7.3242-1.3828-1.0625-2.8711-2.1562-4.2695-3.2266-3.9219-3.0039-8.168-6.4336-12.379-9.6758-6.332-4.8594-12.824-9.8672-19.176-15.168-0.042969-0.042969-0.042969-0.13281-0.089844-0.17969l-0.089844-0.089843c-3.1367-2.6172-6.2344-5.332-9.3281-8.1055 0.042969 0.042969-0.17969-0.089844-0.089843 0l0.011718 0.011719c-0.058594-0.058594-0.11719-0.11719-0.17969-0.17578-1.4219-1.2852-2.7852-2.5117-4.0078-3.6602l-0.17969-0.089843-0.089844-0.089844h0.003906c-0.027343-0.058594-0.058593-0.12109-0.089843-0.17969-2.1484-2.0312-4.2578-4.2031-6.4492-6.4492h-0.089844l-0.17969-0.17969v-0.089844c-1.6172-1.6484-3.2148-3.1758-4.6211-4.707-2.3281-2.543-4.5117-5.2773-6.8008-8.1055-1.3398-1.6562-2.6094-3.1328-3.6602-4.5312-2.1055-2.8164-4.1016-5.8828-6.1016-9.0664-1.2031-1.918-2.2969-3.5703-3.1367-5.0547l0.089844 0.26953 0.26953 0.69531c0 0.003906-0.13281-0.26953-0.26953-0.52344-0.03125-0.042969 0.035156-0.089844 0-0.17969-0.089844-0.13281-0.13281-0.13281-0.17969-0.26953-0.042969-0.13281-0.13281-0.22266-0.17969-0.35547-6.1094-10.973-10.371-22.812-12.027-35.828 0-0.007812 0.003906-0.042968 0-0.089844l0.003906 0.003907c-0.03125-0.0625-0.058594-0.12109-0.089844-0.17969v-0.26953c-0.023437-0.14844-0.054687-0.29688-0.089843-0.44531-0.3125-2.5664-0.44531-5.0938-0.52344-7.6719-0.039062-1.3398-0.003906-2.6719 0-4.0078z"/>
 <path d="m566.76 389.52c-2.5977 0.039063-4.8633 1.7734-5.5781 4.2695-2.8789 1.9297-6.3438 2.8555-8.1953 6.2773-3.1094 5.75-5.3047 13.398-6.3633 22.84-4.418 39.434-6.7227 100.85-13.684 147.93v-0.003906c-0.003906 0.058594-0.003906 0.12109 0 0.17969-0.26953 2.0117-0.44531 3.8438-0.69531 5.3164h-0.003907c-0.33203 1.8672 0.25391 3.7812 1.5703 5.1445 0.042968 0.042969 1.7617 1.5117 3.6602 3.3125v-0.003906c0.058594 0.0625 0.11719 0.12109 0.17969 0.17969 2.4609 2.1406 4.8008 4.0938 6.625 6.0156 2.0664 2.1211 5.3828 2.3789 7.7578 0.60938 4.1133-3.0938 8.7539-6.3711 13.512-9.6758 2.2148-1.5273 4.5977-3.0469 6.9727-4.6211v0.003906-0.089843c2.3477-1.5664 4.5742-3.0742 6.7109-4.4453 1.6211-1 2.6602-2.7227 2.7891-4.6211 2.8516-47.23 1.3086-126.89 1.3086-138.6 0.26953-12.301-0.85156-21.34-3.2266-27.98-1.1875-3.3203-2.7305-6.0859-4.8828-8.2812-2.1523-2.1953-5.25-3.7656-8.457-3.75zm0 12.027c0.46484 0.47266 1.3867 1.7891 2.1797 4.0078 1.5898 4.4414 2.8477 12.398 2.6172 23.797h-0.003907v0.089844c0 12.336 1.1719 88.66-1.3906 135.2-1.4141 0.94531-2.8242 1.8828-4.1875 2.7891-2.3672 1.5664-4.793 3.168-7.1484 4.793-3.4648 2.4062-6.6602 4.7188-9.8516 7.0625-1.1328-1.0039-2.3477-2.1367-3.4023-3.0508l-0.17969-0.17969c-0.64844-0.61328-0.67578-0.54297-1.1328-0.96094 0.089844-0.83594 0.22266-1.8086 0.35547-2.5312h0.003907c0.078124-0.42969 0.10937-0.86719 0.089843-1.3047 6.9766-47.973 9.3164-108.87 13.598-147.05 0.92969-8.2773 2.9531-14.598 5.0547-18.48 2.0273-3.75 3.7617-4.1523 3.4023-4.1875z"/>
 <g clip-path="url(#a)">
  <path d="m557.95 785.96c-2.7461 0.39062-4.8477 2.6406-5.0547 5.4062-3.6289 44.457 6.4531 130.48 28.242 182.88 0.60938 1.4492 1.7695 2.5938 3.2266 3.1836 1.457 0.58594 3.0859 0.57031 4.5312-0.042969 2.9648-1.2734 4.3633-4.6875 3.1367-7.6719-20.48-49.254-30.742-136.06-27.371-177.39 0.26563-3.25-2.1562-6.0977-5.4062-6.3633-0.43359-0.046876-0.87109-0.046876-1.3047 0z"/>
 </g>
 <path d="m566.17 534.12c0 1.5664-0.62109 3.0664-1.7305 4.1758-1.1055 1.1055-2.6094 1.7266-4.1758 1.7266-3.2578 0-5.9023-2.6406-5.9023-5.9023 0-3.2617 2.6445-5.9062 5.9023-5.9062 1.5664 0 3.0703 0.625 4.1758 1.7305 1.1094 1.1094 1.7305 2.6094 1.7305 4.1758"/>
 <path d="m567.28 510.5c0 3.2578-2.6445 5.9023-5.9023 5.9023-3.2617 0-5.9062-2.6445-5.9062-5.9023 0-1.5664 0.62109-3.0703 1.7305-4.1758 1.1055-1.1094 2.6094-1.7305 4.1758-1.7305 1.5625 0 3.0664 0.62109 4.1719 1.7305 1.1094 1.1055 1.7305 2.6094 1.7305 4.1758"/>
 <path d="m564.05 557.73c-0.003906 3.2617-2.6445 5.9023-5.9062 5.9023s-5.9023-2.6406-5.9023-5.9023 2.6406-5.9023 5.9023-5.9062c3.2617 0.003906 5.9023 2.6445 5.9062 5.9062"/>
 <path d="m568.29 486.88c0 3.2578-2.6445 5.9023-5.9062 5.9023-1.5664 0-3.0664-0.62109-4.1719-1.7305-1.1094-1.1055-1.7305-2.6094-1.7305-4.1719 0-1.5664 0.62109-3.0703 1.7305-4.1758 1.1055-1.1094 2.6055-1.7305 4.1719-1.7305 1.5664 0 3.0703 0.62109 4.1758 1.7305 1.1094 1.1055 1.7305 2.6094 1.7305 4.1758"/>
 <path d="m569.12 463.26c0 1.5664-0.625 3.0703-1.7305 4.1758-1.1094 1.1094-2.6094 1.7305-4.1758 1.7305s-3.0664-0.62109-4.1758-1.7305c-1.1055-1.1055-1.7266-2.6094-1.7266-4.1758 0-3.2578 2.6406-5.9023 5.9023-5.9023 1.5664 0 3.0664 0.62109 4.1758 1.7305 1.1055 1.1055 1.7305 2.6094 1.7305 4.1719"/>
 <path d="m569.77 439.64c0 3.2617-2.6445 5.9062-5.9062 5.9062-1.5664 0-3.0664-0.62109-4.1758-1.7305-1.1055-1.1055-1.7266-2.6094-1.7266-4.1758 0-1.5664 0.62109-3.0664 1.7266-4.1719 1.1094-1.1094 2.6094-1.7305 4.1758-1.7305 3.2617 0 5.9062 2.6445 5.9062 5.9023"/>
</svg>
