<?xml version="1.0" encoding="UTF-8"?>
<svg width="1200pt" height="1200pt" version="1.1" viewBox="0 0 1200 1200" xmlns="http://www.w3.org/2000/svg">
 <defs>
  <clipPath id="e">
   <path d="m519 596h230v381.86h-230z"/>
  </clipPath>
  <clipPath id="d">
   <path d="m222.14 575h345.86v270h-345.86z"/>
  </clipPath>
  <clipPath id="c">
   <path d="m222.14 358h335.86v249h-335.86z"/>
  </clipPath>
  <clipPath id="b">
   <path d="m580 488h397.86v227h-397.86z"/>
  </clipPath>
  <clipPath id="a">
   <path d="m506 222.14h225v348.86h-225z"/>
  </clipPath>
 </defs>
 <g clip-path="url(#e)">
  <path d="m592.31 596.36c-1.5664 0.003907-3.0664 0.62891-4.1719 1.7422-0.45703 0.45703-0.83984 0.98828-1.1289 1.5703-3.9336 7.8672-9.8164 10.57-17.035 10.723-0.11719-0.003907-0.23438-0.003907-0.34766 0-2.1953 0.19531-4.4883 0.097656-6.7812-0.34766v-0.003906c-1.707-0.33594-3.4766 0.097656-4.8359 1.1914-1.3594 1.0898-2.1641 2.7305-2.2031 4.4766-0.78906 26.613-4.1992 51.902-10.344 75.223-5.8984 22.387-14.293 42.879-25.293 60.926h-0.003907c-0.6875 1.1523-0.96094 2.5078-0.78125 3.8359 9.3789 76.094 68.652 121.44 120.56 176.51 2.8672 3.043 14.301 14.453 26.078 25.191 5.8867 5.3672 11.758 10.461 16.688 14.207 2.4648 1.875 4.6641 3.3984 6.7812 4.5312 1.0586 0.56641 2.0664 1.0586 3.3906 1.3945 1.3242 0.33984 3.3906 0.74609 5.8242-0.69922 8.5039-5.0469 14.023-15.461 19.73-28.766 5.707-13.301 10.941-29.629 15.387-46.371 8.8906-33.484 14.742-67.758 14.691-83.242-0.17969-41-1.5312-87.551-19.906-126.65-18.742-39.863-53.555-61.711-89.535-80.188-12.152-6.2383-32.883-11.086-44.156-14.645-0.25781-0.10547-0.51562-0.19141-0.78516-0.26172-0.58594-0.21094-1.2031-0.33203-1.8242-0.34766zm5.2148 8.6289-1.043 1.4805-0.69531-0.4375c0.40234-0.67969 1.375-0.32031 1.7383-1.0469zm-5.4766 3.4883c12.277 3.8477 32.547 9.0156 41.637 13.684 35.383 18.168 67.277 38.359 84.316 74.613 16.91 35.984 18.598 80.938 18.773 121.68 0.039062 12.094-5.6484 47.445-14.344 80.191-4.3477 16.371-9.4336 32.262-14.777 44.715-4.9414 11.52-10.332 18.754-13.82 21.531-1.1133-0.68359-2.3086-1.418-4-2.7031-4.3945-3.3398-10.156-8.3555-15.906-13.598-11.5-10.484-23.352-22.336-25.469-24.582-52.453-55.641-107.85-98.902-117-168.84 10.902-18.492 19.59-38.887 25.469-61.188 5.9219-22.473 8.7773-46.848 9.9102-71.996 1.1836 0.023437 2.3867 0.27344 3.5625 0.17578 8.4453-0.22656 15.605-6.4375 21.645-13.684z"/>
 </g>
 <g clip-path="url(#d)">
  <path d="m389.96 575.96c-0.92969-0.039063-1.8516 0.14062-2.6953 0.52344-34.469 15.523-63.77 44.176-88.227 88.211-1.1133 2.0039-2.1367 4.5859-3.7383 8.543-1.5977 3.957-3.582 9.0625-5.9102 14.906-4.6523 11.688-10.676 26.41-17.383 41.316-6.707 14.906-14.105 29.953-21.559 42.012-7.4531 12.059-15.332 21.074-20.688 23.883-2.7422 1.4414-5.1719 3.3164-6.3438 6.5391-1.1758 3.2227-0.13281 6.7461 1.3906 8.8906 3.0469 4.2891 7.4648 6.4531 12.258 8.7148 9.582 4.5273 20.91 7.7656 23.555 8.4531 35.141 9.1484 70.785 17.195 107.87 16.91 103.88-0.80469 165.46-63.629 188.45-150.88 6.4102-24.324 9.8789-50.523 10.691-77.926l-0.003906 0.003906c0.10156-2.9141-1.9297-5.4648-4.7812-6.0156-7.9609-1.5312-15.961-6.9375-20.168-13.77-1.1133-1.8008-3.1055-2.8633-5.2148-2.7891-44.59 1.0156-88.699 3.9688-130.56-10.199-4.8125-1.6289-9.6094-3.9219-14.344-6.625h0.003906c-0.80469-0.42969-1.6992-0.67187-2.6094-0.69922zm0.60938 12.727c4.082 2.1406 8.1445 4.3594 12.516 5.8398 44.258 14.98 89.609 11.672 133.43 10.633 4.9453 6.168 11.555 10.359 18.949 12.988-0.92969 25.672-4.0508 50.219-9.9961 72.781-22.047 83.672-77.883 141.31-177.15 142.08-35.32 0.27344-69.855-7.4805-104.74-16.562-1.7188-0.44531-13.379-3.8047-21.559-7.6719-3.25-1.5352-4.8828-2.918-5.9961-3.8359 9.043-5.1172 16.766-14.797 24.426-27.195 7.9062-12.793 15.508-28.234 22.34-43.406 6.8281-15.172 12.883-30.098 17.559-41.84 2.3359-5.8711 4.3477-10.949 5.9102-14.816 1.5625-3.8711 2.793-6.7812 3.043-7.2344 23.156-41.691 50.188-67.266 81.273-81.762z"/>
 </g>
 <g clip-path="url(#c)">
  <path d="m377.7 358.32c-0.73438 0.003906-1.3555 0.50781-2.0859 0.52344v-0.089844c-0.11719 0.054688-0.23438 0.11328-0.34766 0.17578-34.922 0.76562-68.113 11.48-99.699 24.582-2.875 1.1914-15.289 5.5391-26.773 10.285-5.7422 2.3711-11.355 4.8477-15.906 7.4102-2.2773 1.2812-4.3359 2.5547-6.0859 4.0078-1.7461 1.4531-3.4492 2.9375-4.2578 6.1016-1.2227 4.7734 0.52344 9.8125 3.3047 12.898 2.7812 3.0859 6.1836 5.043 9.6484 6.7969 6.9297 3.5117 14.328 6.6719 16.949 9.4141 19.891 20.809 38.969 43.645 56.672 66.508 23.176 29.926 53.547 73.922 93.965 87.602 44.691 15.125 90.516 11.727 134.73 10.723v-0.003906c2.0977-0.058594 4.0039-1.2344 5.0039-3.0859 1.0039-1.8477 0.94922-4.0898-0.13672-5.8906-2.3984-3.8945-3.5625-8.0977-3.1289-12.727 0.13672-1.5547 0.51172-3.1328 1.043-4.707 0.35547-1.1016 0.81641-2.2773 1.3906-3.3984v-0.089844c0.16016-0.32422 0.48828-0.76562 0.87109-1.3945h-0.003907v-0.089843c1.0664-1.7852 2.2734-3.4297 3.8242-5.1445 2.3359-2.5781 4.7461-4.3867 7.3008-5.6641h0.003907c1.4375-0.70312 2.5273-1.9688 3.0195-3.4961s0.34375-3.1914-0.41406-4.6094c-9.5664-17.547-24.816-45.078-29.73-61.793-6.2812-21.375-9.3398-44.879-8.8672-68.422 0.050781-1.7188-0.64844-3.3711-1.9102-4.5352-36.906-33.848-83.477-57.789-122.82-61.277-4.7461-0.42578-9.4961-0.51562-14.168-0.52344v0.003906c-0.40234-0.074219-0.8125-0.10156-1.2188-0.089844h-0.17188zm0.089843 11.766c4.7773-0.03125 9.6172 0.18359 14.43 0.60938 34.91 3.0938 79.395 25.883 114.48 57.617-0.097656 23.395 2.5664 46.82 8.8672 68.25 5.3359 18.152 18.984 42.16 28.512 59.531-2.0742 1.5039-4.3203 2.6602-6.1719 4.707-2.1406 2.3633-3.7539 4.7578-5.1289 7.0586-0.37891 0.62891-0.85547 1.3477-1.3047 2.2656-0.85156 1.6719-1.5508 3.3906-2.0859 5.0547-0.82812 2.4727-1.3516 4.9414-1.5664 7.3203-0.34375 3.7812 1.5977 6.957 2.5195 10.461-42.109 1.1055-83.855 3.7188-123.43-9.6758-34.645-11.727-65.039-53.316-88.488-83.59-17.875-23.082-37.176-46.25-57.457-67.465-5.8984-6.1719-14.203-8.7461-20.164-11.766-2.9805-1.5117-5.3125-3.0469-6.2578-4.0977-0.94531-1.0508-0.91797-0.87891-0.60937-2.0938-0.33203 1.3008-0.42188 0.80078 0.4375 0.089844 0.85937-0.71484 2.3633-1.8086 4.2578-2.875 3.793-2.1367 9.0898-4.5195 14.602-6.7969 11.023-4.5547 22.527-8.4023 26.859-10.199 31.898-13.23 64.293-24.191 97.699-24.406z"/>
 </g>
 <g clip-path="url(#b)">
  <path d="m715.91 488.71c-0.75 0.035156-1.4883 0.21094-2.1719 0.52344-0.14844 0.050781-0.29297 0.10938-0.4375 0.17578-48.332 1.6562-94.555 22.805-131.77 71.562v-0.003906c-1.7578 2.3164-1.5742 5.5703 0.43359 7.6719 4.3281 4.457 7.2656 10.848 11.734 24.93 3.0234 9.5273 11.152 15.16 19.035 19.262 7.8828 4.1016 16.23 6.9062 20.949 9.3281 35.383 18.172 67.277 38.363 84.316 74.613 1.0117 2.1484 1.9531 4.3945 2.8672 6.625v-0.003906c0.67187 1.6914 2.082 2.9805 3.8242 3.4883 60.176 17.012 114.89 2.4102 176.28-30.77 2.6055-1.4102 7.4961-4.6133 14.516-9.2383s15.688-10.434 24.164-16.125c8.4766-5.6914 16.742-11.316 22.949-15.516 3.1055-2.1016 5.7266-3.8086 7.5625-5.0547 1.8359-1.2461 2.3516-1.6914 3.043-2.1797 3.0898-2.1797 5.2305-6.7422 4.5195-10.461-0.71094-3.7148-2.8086-6.1758-5.2148-8.6289-4.8125-4.9023-11.848-9.5273-19.906-14.383-16.117-9.707-36.348-20.145-44.242-26.41-58.93-46.758-126.03-79.273-190.1-78.883-0.71094-0.32031-1.4766-0.5-2.2578-0.52344h-0.089844zm0.089844 11.855h0.089844c60.551-1.1406 126.66 30.609 184.97 76.879 10.281 8.1602 29.949 17.848 45.461 27.195 7.7539 4.6719 14.449 9.293 17.645 12.551 1.1172 1.1367 1.168 1.4492 1.3906 1.832-0.42188 0.28906-0.73047 0.44531-2 1.3086-1.832 1.2422-4.4648 3.0469-7.5625 5.1445-6.1992 4.1953-14.488 9.7461-22.949 15.43s-17.109 11.445-24.078 16.039c-6.9648 4.5898-12.699 8.2031-13.648 8.7148-59.254 32.027-109.31 44.883-165.07 29.898-0.55078-1.2617-1.0625-2.5-1.6523-3.7461-18.734-39.867-53.551-61.629-89.531-80.105-6.1836-3.1758-14.102-5.8086-20.863-9.3281-6.7578-3.5156-11.695-7.6875-13.211-12.465-3.7266-11.738-7.4414-17.793-11.82-23.797 35.621-45.266 77.66-64.676 122.82-65.547z"/>
 </g>
 <g clip-path="url(#a)">
  <path d="m713.83 222.17c-7.6328-0.25-17.602 1.6719-29.207 4.6211-11.602 2.9453-24.609 7.0156-37.117 11.246-12.508 4.2266-24.477 8.6328-33.988 12.379-9.5117 3.7422-16.027 6.4453-19.559 8.543-25.926 15.387-47.52 41.242-62.062 66.418-28.98 50.176-32.355 116.7-16.34 171.19 5.7422 19.535 21.199 46.66 30.684 64.066l0.003907-0.007812c1.5273 2.793 4.9844 3.875 7.8242 2.4414 9.5977-4.8047 20.891-1.6797 27.988 5.6641 1.1914 1.2188 2.8516 1.8594 4.5508 1.7578 1.6992-0.097656 3.2734-0.92969 4.3125-2.2773 32.48-42.527 70.633-62.453 111.52-66.68l0.003906-0.003906c1.9141-0.21484 3.6016-1.3555 4.5195-3.0508 7.6602-13.652 13.086-28.16 16.777-43.496v0.003906c0.17188-0.74219 0.20312-1.5117 0.085938-2.2656 9.707-42.148 7.3047-90.035 3.4766-145.74-0.45312-6.4766 1.0664-23.137 1.9141-39.051 0.42188-7.957 0.59766-15.836 0.26172-22.75-0.33984-6.9141-0.85547-12.684-3.7383-17.605-1.3984-2.3906-3.6289-3.75-5.6484-4.4453-2.0234-0.69531-4.0781-0.88672-6.2578-0.95703zm-0.34766 11.855c1.1211 0.035156 1.6875 0.14844 2.1719 0.26172 0.6875 1.4844 1.8008 5.6719 2.0859 11.504 0.30078 6.1836 0.066407 13.758-0.34766 21.531-0.82422 15.547-2.4688 31.246-1.8242 40.445 3.8828 56.469 6.3477 104.41-3.3047 144.52-3.3203 13.809-8.2656 26.57-14.863 38.699-41.688 5.3281-81.043 26.426-113.78 68.164-8.0625-5.6406-17.562-7.5078-27.555-5.3164-9.5898-17.582-24.383-44.258-29.207-60.668-15.141-51.508-11.676-115.31 15.211-161.86 13.738-23.785 34.512-48.273 57.891-62.148 1.2539-0.74609 8.5898-4.0938 17.906-7.7578 9.3164-3.6641 21.156-8.043 33.465-12.203s25.094-8.0625 36.246-10.895c11.156-2.832 20.887-4.4375 25.902-4.2695z"/>
 </g>
 <path d="m543.11 603.42c-1.7539 0.085937-3.3789 0.94922-4.4336 2.3555-26.793 34.938-32.039 41.016-74.145 55.785-3.0664 1.0625-4.6992 4.4141-3.6523 7.4961 1.0625 3.0742 4.4062 4.7109 7.4766 3.6602 42.914-15.051 52.699-24.688 79.621-59.793 1.9844-2.5781 1.5195-6.2812-1.043-8.2812-1.0938-0.84375-2.4492-1.2773-3.8242-1.2227z"/>
 <path d="m591.53 439.29c-3.2344-0.10547-5.9492 2.4219-6.082 5.668-2.3555 58.113-9.6641 80.145-20.773 108.34h-0.003906c-1.1953 3.0312 0.28125 6.4648 3.3047 7.668 3.0234 1.2031 6.4453-0.28125 7.6484-3.3086 11.246-28.543 19.164-53.164 21.559-112.18v-0.003906c0.074218-1.5703-0.48047-3.1094-1.543-4.2734-1.0625-1.1602-2.5391-1.8516-4.1094-1.9141z"/>
 <path d="m593.7 575.53c-1.5586 0.19141-2.9766 1-3.9414 2.2422-0.96094 1.2422-1.3906 2.8203-1.1875 4.3828 0.19141 1.5625 0.99609 2.9844 2.2344 3.9492 1.2422 0.96484 2.8125 1.3945 4.3711 1.1914 37.984-4.6094 49.305-8.8867 98.395-0.089844 1.5469 0.28516 3.1406-0.0625 4.4297-0.96094 1.2891-0.90234 2.168-2.2812 2.4375-3.832 0.53516-3.1953-1.5977-6.2305-4.7812-6.7969-50.094-8.9805-64.539-4.6289-101.96-0.089844z"/>
 <path d="m582.31 606.04c-0.80078-0.015624-1.6016 0.13281-2.3438 0.4375-3.0234 1.2031-4.5 4.6367-3.3047 7.668 20.844 52.121 29.562 56.613 66.148 99.715v0.003906c1.0117 1.207 2.4609 1.9609 4.0273 2.0898 1.5664 0.13281 3.1211-0.37109 4.3164-1.3945 1.207-1.0117 1.957-2.4648 2.0859-4.0391 0.13281-1.5703-0.37109-3.1289-1.3906-4.3281-36.941-43.523-43.711-45.082-64.238-96.406-0.85938-2.1992-2.9453-3.6719-5.3008-3.7461z"/>
 <path d="m464.27 506.76c-2.2422 0.046876-4.2617 1.3633-5.2148 3.3984-1.3672 2.9609-0.082032 6.4727 2.8672 7.8477 39.484 18.367 46.738 20.105 76.059 50.816 1.082 1.1328 2.5703 1.7891 4.1367 1.8203 1.5664 0.035156 3.0781-0.55859 4.207-1.6484 1.1328-1.0859 1.7852-2.5781 1.8164-4.1484 0.035157-1.5664-0.55859-3.0859-1.6406-4.2188-29.891-31.316-40.344-35.07-79.621-53.344-0.82031-0.37109-1.7109-0.55078-2.6094-0.52344z"/>
 <path d="m582.66 554.18c-13.211-7.8789-31.977-7.4961-44.766 6.625-9.543 10.535-12.062 22.582-9.3008 32.773 2.7617 10.195 10.137 18.316 19.035 23.359 8.9023 5.043 19.578 7.1602 29.465 4.0977 9.7812-3.0312 18.039-11.793 21.383-25.277 5.7148-17.32-2.6875-33.746-15.82-41.578zm-6.0859 10.109c9.1602 5.4609 14.898 15.777 10.777 27.891l0.003907 0.003907c-0.035157 0.17187-0.066407 0.34766-0.089844 0.52344-2.5391 10.664-7.6445 15.137-13.648 16.996-6 1.8594-13.609 0.66406-20.164-3.0508-6.5586-3.7148-11.727-9.7656-13.473-16.211-1.7461-6.4453-0.71875-13.52 6.6914-21.703 9.1562-10.113 20.742-9.9062 29.902-4.4453z"/>
 <path d="m453.15 657.55c-8.5273 3.875-15.332 9.3867-17.73 16.91-1.1992 3.7617-0.31641 9.168 3.2148 12.117s7.9844 3.7031 13.559 3.5742c6.1172-0.14453 12.09-2.5938 16.516-6.9727 2.2109-2.1914 4.0078-4.9609 4.6953-8.3672 0.67578-3.3516 0.023437-7.1562-1.8242-10.461 0.12891 0.24219-1.3438-3.2734-4.4336-5.6641-3.0898-2.3906-8.7383-3.5234-13.996-1.1328zm6.7812 10.547c0.35156 0.27344 0.58984 0.60547 1.3047 1.918h-0.003906c0.03125 0.03125 0.058593 0.0625 0.089843 0.089844 0.69531 1.207 0.64453 1.7422 0.52344 2.3516-0.125 0.60938-0.47266 1.4414-1.3906 2.3516-1.8398 1.8203-5.6758 3.418-8.5195 3.4883-3.4023 0.082031-4.4102-0.42578-4.8672-0.60938 0.76172-1.7344 4.9258-6.5859 10.953-9.3281 2.1328-0.96875 1.5586-0.53516 1.9141-0.26172z"/>
 <path d="m658.58 705.21c-3.4023-0.68359-7.207 0-10.547 1.918 0.10938-0.070312-3.1406 1.3203-5.4922 4.3594-2.3945 3.0938-3.5234 8.7734-1.1328 14.035 3.8789 8.5312 9.3086 15.383 16.824 17.781 3.7578 1.1992 9.168 0.30859 12.117-3.2266 2.9492-3.5312 3.7031-8.0195 3.5742-13.598-0.14453-6.125-2.5078-12.047-6.8867-16.473-2.1914-2.2109-5.0547-4.1094-8.457-4.793zm-2.3555 11.594c0.61719 0.125 1.4453 0.5625 2.3555 1.4805 1.8203 1.8398 3.4219 5.6211 3.4883 8.4531 0.078125 3.3867-0.42188 4.332-0.60938 4.793-1.7852-0.82031-6.6094-4.9219-9.3281-10.895-0.96875-2.1289-0.53516-1.5664-0.26172-1.918 0.27344-0.35156 0.60937-0.59766 1.918-1.3086v0.003907c0.027344-0.027344 0.058594-0.058594 0.085938-0.089844 1.2109-0.69531 1.7383-0.64844 2.3555-0.52344z"/>
 <path d="m699.46 565.93c-2.8945 1.1484-5.7109 3.0625-7.6719 5.9258-1.9609 2.8633-2.8984 6.6367-2.4414 10.461-0.023437-0.16016 0.03125 3.4258 1.918 6.8008 1.9102 3.4141 6.6875 6.6797 12.465 6.5391 9.3672-0.23047 17.777-2.6523 22.926-8.6289 2.5742-2.9883 3.9258-8.2812 1.832-12.379-2.0938-4.0977-5.9766-6.4805-11.156-8.543-5.6914-2.2656-12.082-2.4727-17.871-0.17578zm4.3594 10.984c2.4062-0.95703 6.5195-0.875 9.1523 0.17578 3.168 1.2617 3.8438 2.0977 4.1836 2.4414-1.4297 1.3164-7.1055 4.1953-13.688 4.3594-2.3359 0.058593-1.6992-0.13672-1.918-0.52344s-0.29297-0.79688-0.4375-2.2656l0.003907-0.003906v-0.17578c-0.16406-1.3867 0.082031-1.8359 0.4375-2.3516 0.35547-0.51953 1.0625-1.1797 2.2656-1.6562z"/>
 <path d="m588.14 408.94c-4.3438 1.5195-7.2773 4.9961-10.023 9.8516-3.0156 5.332-4.0195 11.738-2.5273 17.781 0.74609 3.0234 2.2227 6.0352 4.793 8.3672 2.5703 2.332 6.1719 3.6836 10.023 3.75-0.16016 0 3.3789 0.45312 6.9727-0.95703 3.6406-1.4336 7.5508-5.6797 8.1953-11.426 1.043-9.3086-0.18359-17.969-5.4062-23.883-2.6094-2.9531-7.6836-5.0039-12.027-3.4844zm3.2266 11.941c1.1133 1.6289 3.1719 7.6094 2.4414 14.121-0.26172 2.3242-0.28516 1.582-0.69922 1.7422-0.41406 0.16406-0.87891 0.23438-2.3555 0.17578h-0.085937c-1.3945-0.023437-1.8867-0.36328-2.3555-0.78516-0.46484-0.42188-0.91016-1.1836-1.2188-2.4414-0.62109-2.5117-0.089844-6.5977 1.3086-9.0664 1.6445-2.9062 2.543-3.4297 2.9648-3.75z"/>
 <path d="m458 494.62c-5.7852-2.2969-12.176-2.1758-17.871 0.085938-5.1836 2.0625-9.0625 4.5312-11.156 8.6289s-0.74219 9.3906 1.832 12.379c5.1484 5.9766 13.559 8.3125 22.926 8.543 5.7773 0.14062 10.555-3.125 12.465-6.5391 1.8594-3.3203 1.8516-6.7539 1.8281-6.7109 0.46094-3.8242-0.39062-7.6836-2.3516-10.547-1.9609-2.8633-4.7773-4.6914-7.6719-5.8398zm-4.3594 10.98c1.2031 0.47656 1.9102 1.0508 2.2656 1.5703 0.35547 0.51953 0.60156 0.96875 0.4375 2.3516v0.003906 0.17188c-0.14062 1.4688-0.21875 1.8789-0.4375 2.2656s0.41797 0.58203-1.918 0.52344c-6.582-0.16406-12.258-3.043-13.688-4.3594 0.33984-0.34375 1.0156-1.1797 4.1836-2.4414 2.6328-1.0469 6.75-1.043 9.1523-0.085937z"/>
</svg>
