<?xml version="1.0" encoding="UTF-8"?>
<svg width="1200pt" height="1200pt" version="1.1" viewBox="0 0 1200 1200" xmlns="http://www.w3.org/2000/svg">
 <path d="m1072.5 173.76c-68.922-23.828-125.14-11.535-160.18 2.9609-117.69 52.934-142.5 157-90.887 280.77 17.965 40.32 15.227 75.281-8 103.99-19.25-13.57-43.664-20.66-67.297-24.691l0.003907-0.003906c-4.332-24.109-11.234-47.691-20.594-70.332-13.055-31.727-33.574-68.051-65.457-98.23 6.0859-3.0625 23.566-13.129 19.246-23.918-1.3828-3.0234-4.3203-5.0352-7.6406-5.2383-14.777-1.6094-28.484-8.4922-38.602-19.387-24.98-31.555-47.164-66.918-85.973-103.12 6.7188-5.3711 16.262-9.1211 28.359-11.039 34.859-5.5039 61.859-21.445 76.02-44.879 13.477-22.32 14.828-49.789 4.0039-81.652-1.3086-3.8594-5.0508-6.3555-9.1172-6.0898-4.0664 0.26953-7.4453 3.2383-8.2344 7.2383-0.11328 0.60156-12.402 60.109-56.398 55.574-8.1055-0.83203-16.707-1.5078-25.492-1.793-37.535-1.2227-78.422 4.832-98.934 37.48-19.184 2.3008-37.957 7.2461-55.785 14.695-9.0391 3.5938-18.52 5.9609-28.188 7.043-14.641 1.5195-55.621 5.793-69.574 7.2422-7.5391 0.76953-14.734 3.5508-20.828 8.0547s-10.863 10.566-13.812 17.547c-11.664 27.848-33.438 50.246-60.945 62.688-19.086 13.234 18.023 32.266 38.176 26.672l-0.003907 0.003906c-1.0664 3.2148-2.4023 6.3359-3.9961 9.3242-1.3203 2.5938-1.3164 5.6641 0.011718 8.2539 1.3281 2.5859 3.8203 4.3789 6.6953 4.8164 1.3203 0.19141 31.398 4.0156 55.34-31.883 6.4531 0.98047 17.23 2.4766 27.926 3.3594 9.3555 0.82422 18.332 4.0898 26.035 9.4648 12.344 8.5234 31.629 17.598 54.926 14.16 11.609 9.6133 33.926 47.152 21.91 85.812-7.1992-6-15.676-13.285-23.68-20.707-40.387-36.289-94.246-10.773-141.73 23.586-21.332-17.492-62.594-49.492-97.508-29.379h0.003906c-30.527 15.918-56.875 38.809-76.902 66.809-10.793 15.758-30.629 28.367-47.859 27.719-19 0.875-7.4727 31.77 23.281 41.039-22.008 27.562-41.852 59.871-38.109 96.719-0.078126 1.9766-1.168 13.277-15.621 18.375v0.007812c-3.3594 1.1836-5.7031 4.2344-5.9805 7.7812-0.27734 3.5508 1.5625 6.9297 4.6914 8.6211 12.293 5.8789 26.031 8.0352 39.535 6.207-8.2148 22.914-10.348 47.562-6.1953 71.547 3.3594 13.566 20.273 5.2422 28.801 1.6406-10.699 65.816 33.078 76.598 36.48 130.48 3.5195 19.145 31.371 2.7344 38.27-14.77 11.609 16.543 27.34 29.766 45.637 38.355 5.5391 23.984 20.809 41.453 23.305 66.758 4.1797 28.375 5.7695 57.074 4.75 85.738-0.35937 5.9336-3.6172 11.312-8.707 14.383-11.066 6.8672-29.73 23.555-30.395 58.141h-0.003906c-0.03125 2.4102 0.90234 4.7344 2.5938 6.457 1.6875 1.7227 3.9922 2.6992 6.4062 2.7148h52.559c15.387 0.023438 30.152-6.0898 41.016-16.984 10.867-10.895 16.941-25.676 16.875-41.062-1.3594-38.594 9.1602-95.734 42.34-131.11 17.172-1.0234 29.66-18.027 43.02-26.262 31.555 24.719 57.191 49.543 76.188 73.781 9.9648 9.5859 16.465-1.9648 27.742-15.301v-0.003906c3.6953 4.0547 6.7734 8.6328 9.1328 13.586 1.4766 3.0352 4.5195 4.9961 7.8945 5.0898s6.5195-1.6953 8.1641-4.6445c0.75781-1.4023 18.457-34.926 32-127.96h0.003907c4.2852-2.3164 8.7383-4.3086 13.324-5.957 0.80078 37.281 19.418 65.027 52.441 78.293 20.074 35.281 41.223 89.844-8.793 118.8-16.125 9.168-42.633 30.652-39.02 71.531 0.41016 4.6484 4.3008 8.2109 8.9648 8.2109 32.848-0.16406 63.082 5.2383 82.652-28.258h-0.003906c7.793-13.867 18.656-25.77 31.75-34.797 11.352-7.875 18.965-20.066 21.062-33.723 2.4922-16.445 8.0039-39.574 20.125-59.379 28.445 12.48 56.668 12.141 75 9.75 2.5664-0.35547 4.8555-1.7891 6.293-3.9414 1.4414-2.1523 1.8867-4.8203 1.2344-7.3242l-2.2422-8.3281c1.4102 0.19141 2.9102 0.32813 4.4453 0.43359 6.9609 8.8398 10.762 19.754 10.801 31.008v46.992c-0.027344 3.2891-0.96094 6.5078-2.7031 9.3008-1.7422 2.793-4.2227 5.0469-7.168 6.5156-14.867 7.6406-39.805 25.953-39.805 62.734v0.003906c0 4.9688 4.0273 9 9 9 37.82 0.42578 70.543 3.6523 93.949-32.281 17.09-29.453 46.078-40.707 37.441-79.199-5.4883-22.613-10.492-56.977-3.1562-92.23 1.9766-9.1523 1.0664-18.691-2.6016-27.305s-9.9141-15.879-17.883-20.793c-16.047-9.6914-37.25-26.375-48.906-51.312 25.637-45.062 40.18-68.398 40.109-122.36 81.84-67.852 88.32-182.8 21.035-284.88-35.648-71.074 23.195-161.26 103.44-151.63h-0.003906c8.3672 0.78125 16.668 2.1758 24.832 4.168 17.848 3.9375 30.211 23.5 25.305 41.137-55.027-1.4219-135.68 6.7383-133.08 63.184-0.03125 27.254 21.551 50.371 47.121 60.277h-0.003906c1.2812 14.59 6.3594 28.586 14.727 40.605-2.4414 10.508-4.9062 35.801 19.621 57.359h0.003907c3.7305 3.2812 9.418 2.918 12.699-0.81641 3.2852-3.7305 2.918-9.418-0.8125-12.703-8.1484-6.6992-13.418-16.266-14.727-26.73 9.4961 7.1953 20.945 11.363 32.848 11.953 11.582-0.17188 11.945-17.375 0.33594-18-19.074-0.71875-32.43-17.52-32.938-18.16-24.09-32.711-11.414-61.168-4.6289-72.152 10.93 4.543 56.488 18.828 55.852-0.59375-0.12109-2.3867-1.1875-4.625-2.9648-6.2227-1.7773-1.5938-4.1172-2.418-6.5039-2.2812-37.875 1.4414-59.059-25.633-102.29-8.4414-7.8945-51.023 85.809-49.891 120.41-49.012 8.1641 0.76953 16.25 2.2266 24.168 4.3555 7.3516 1.9648 15.18 1.0078 21.844-2.6719 6.6602-3.6797 11.641-9.7969 13.891-17.07 0 0 11.395-33.047-37.062-56.344-48.453-23.293-108.14-8.6914-108.14-8.6914-69.578 12.375-120.41 83.004-96.633 158.84 7.5664 17.48 12.602 35.945 14.957 54.848-0.33203 60.211-38.16 69.438-53.23 62.992 3.5391-20.539 1.3008-45.32-11.73-74.582-82.258-172.76 59.039-314.82 228.52-259.47 1.043 0.39453 104.45 40.262 104.45 130.12 0 88.375-94.711 104.48-98.715 105.12v-0.003907c-15.785 2.0195-31.746 2.25-47.582 0.6875-11.793-1.0664-13.559 16.543-1.8281 17.906 78.262 10.43 166.91-35.887 166.12-123.71 0.015624-102.42-111.39-145.18-116.34-147.02zm-427.92-59.312c1.2617 20.836-6.2383 39.086-21.262 51.84h0.003906c-3.4219-1.6328-6.3125-4.2031-8.3281-7.4102-2.0195-3.2109-3.0859-6.9258-3.0742-10.719 14.684-7.2109 25.383-20.207 32.66-33.723zm-82.066 37.781c9.9414 0.28125 21.914 2.6914 31.898 1.1992 1.168 8.5234 5.1602 16.414 11.336 22.406-12.203 2.9844-25.309 2.4844-38.375 1.5391-4.9531-7.3789-6.7031-16.449-4.8594-25.145zm424.54 238.34v-0.003906c-3.8516 7.4336-6.5352 15.418-7.9531 23.668-9.4688-4.3945-17.562-11.281-23.422-19.922 9.9258-4.0742 20.773-5.3672 31.375-3.7461zm-442.72-238.73c-1.1055 8.2188-0.24219 16.578 2.5195 24.395-15.055 0.45313-24.109 6.2617-29.258 11.539-9.6875-8.4492-14.668-21.141-16.469-29.02 11.57-4.3672 25.887-6.6445 43.207-6.9141zm-79.094 46.254c2.8867-12.102 9.8086-22.855 19.621-30.5 3.9102 12.574 11.441 26.848 23.762 36.27-14.438 30.629-37.891 13.523-37.891 13.523-2.5586-2.4297-4.418-5.5-5.3828-8.8945-0.96875-3.3945-1.0039-6.9844-0.10938-10.398zm-151.07 19.293c-4.2969 13.965-17.984 21.137-31.199 21.676 5.9766-16.191 14.215-21.008 31.199-21.676zm114.06 74.07 2.4297 14.008c-22.453 18.285-46.418 8.6641-62.051-1.5938h-0.003907c-10.301-7.168-22.297-11.508-34.801-12.594-15.707-1.2852-32.184-4.0781-32.348-4.1094-3.6914-0.62891-7.3828 1.0898-9.2773 4.3203-9.3906 16-19.824 23.07-27.758 26.16 2.8672-13.781 1.4414-20.668-5.6836-23.762-2.2852-0.74609-4.7773-0.54688-6.918 0.55469-6.5781 3.7461-14.352 4.8047-21.691 2.9492 16.945-10.184 31.445-23.965 42.48-40.367 26.691 2.6562 55.316-10.969 60.734-41.629l41.961-4.3633c23.809-2.0469 53.5-17.977 73.328-20.211l0.003906-0.003906c-2.4961 7.0938-2.7852 14.781-0.83203 22.043 1.957 7.2617 6.0664 13.762 11.789 18.645 17.133 14.289 64.16 31.117 77.117-0.015625 28.535 26.992 51.57 58.348 67.199 79.633 13.465 19.977 27.965 35.348 47.07 41.418v-0.003906c-2.9922 1.1953-6.1914 1.7852-9.4141 1.7422-8.5781-1.0859-13.379 10.754-6.4805 15.961 8.9102 7.2305 17.223 15.164 24.859 23.723 1.5664 2.457 25.172 40.336 13.043 73.297-7.5977 14.281-22.461-3.1523-29.867-14.77h0.003906c-1.6211-2.7383-4.6797-4.293-7.8477-3.9844-3.168 0.30859-5.8711 2.4258-6.9297 5.4258-3.0195 8.5078-4.5508 17.477-4.5273 26.504 0.078125 2.8672-1.3438 5.5703-3.7539 7.125-2.4102 1.5547-5.457 1.7383-8.0391 0.48438-16.738-7.9453-30.543-20.973-39.438-37.223-1.4141-2.8047-4.3164-4.5469-7.457-4.4766-3.1367 0.070312-5.957 1.9414-7.2461 4.8047-3.4414 7.6484-6.1836 15.59-8.1953 23.727-6.8047 26.754-35.965 26.598-58.801 20.16-8.0781-9.418-17.957-17.129-29.059-22.68 13.723-7.3398 22.594-15.723 7.375-27.379 21.633-47.055-13.188-79.09-5.0547-109.68 0.86719-1.7812 2.4883-3.082 4.4141-3.5391 1.9297-0.45703 3.9609-0.019531 5.5352 1.1836l3.5625 2.7344c1.9336 1.4805 4.543 1.7266 6.7188 0.64062 2.1797-1.0859 3.5508-3.3164 3.5352-5.75 0-23.711-8.668-49.031-8.668-49.031v0.015625c-3.2734-10.867-8.0977-21.199-14.332-30.68-6.5664-9.7422-21.469 0.14844-14.977 9.9844 5.6484 8.1562 9.7617 17.277 12.129 26.914l-22.461-6.5078 0.003906-0.003906c-2.9844-0.83203-6.1836-0.089844-8.4922 1.9766-2.3047 2.0664-3.3945 5.168-2.8906 8.2227zm-168.48 540.24c-3.2344-4.0781-6.2891-8.332-9.0273-12.371v0.003906c-2.1719-3.1914-6.1055-4.6914-9.8516-3.7578-3.7422 0.93359-6.5117 4.1016-6.9336 7.9414-0.69922 6.5352-0.85938 13.117-0.47656 19.68 0.18359 3.1211-1.2227 6.1289-3.7461 7.9805-2.5195 1.8555-5.8086 2.3047-8.7344 1.1953-47.074-17.902-67.301-52.918-67.301-52.918-2.0508-11.641-19.441-8.9062-17.777 2.8125l3.8164 24.109c0.41406 15.719-4.1992 24.109-8.8281 28.547h-0.003907c-3.4219-17.742-10.617-34.539-21.094-49.258-27.078-38.992-10.574-80.16-7.957-86.098l9.3906-12.719c6.9609-9.4922-7.4414-20.137-14.48-10.691l-9.6172 13.023h0.003906c-5.832 6.6953-13.184 11.895-21.438 15.168-3.6758-41.785 13.68-67.629 13.852-67.875 5.3359-7.1289-3.1211-17.301-11.102-13.355h0.003906c-8.4648 3.9062-17.801 5.5391-27.086 4.7422 5.875-6.6602 9.1836-15.191 9.3359-24.07-6.4531-44.203 40.395-92.242 56.656-111.45 7.6523-8.918-5.8672-20.641-13.613-11.773l-9.9141 11.461c-7.918-0.65234-15.434-3.7773-21.48-8.9297 19.371-5.1914 36.266-17.102 47.668-33.602 25.66-34.504 73.062-76.375 102.56-63.098 25.504 10.195 50.676 33.297 50.914 33.52l10.32 9.5195c3.1328 2.9023 7.2852 4.4531 11.551 4.3164 4.2695-0.14062 8.3125-1.957 11.25-5.0547 26.824-30 73.789-22.305 107.68-7.2656 3.1875 1.6523 5.3047 4.8203 5.6133 8.3984 0.30469 3.5781-1.2461 7.0625-4.1094 9.2305l-18.738 14.258 0.003906-0.003907c-3.0508 2.3086-4.5273 6.1523-3.8047 9.9102 0.72266 3.7578 3.5156 6.7773 7.2031 7.793 32.211 7.7461 77.762 45.383 67.633 104.44-0.24219 1.1914-0.96875 2.2266-2 2.8672s-2.2812 0.82422-3.457 0.51562l-11.645-3.1211c-4.0078-1.0625-8.2539 0.44531-10.699 3.793-2.4414 3.3477-2.5781 7.8555-0.33984 11.344 16.141 25.727 27.273 54.27 32.809 84.129 0.35156 1.8281-0.48047 3.6758-2.0781 4.625-1.6016 0.94531-3.625 0.78125-5.0547-0.40625l-9.1211-7.6367c-2.4922-2.0742-5.832-2.8164-8.9727-2.0039-3.1367 0.81641-5.6953 3.0898-6.8672 6.1133-5.9492 15.176-13.23 29.793-21.758 43.68-34.246 49.219-108.13 41.625-133.68 90.836v0.003907c-1.4375 2.7969-4.1992 4.6719-7.332 4.9805-3.1289 0.30469-6.2031-1-8.1562-3.4688zm607.77-90.047c-11.461 60.379-100.34 139.44-40.969 201.82h-0.003906c-6.6094 0.33594-13.211-0.84375-19.297-3.4453-3.1719-1.5352-6.9453-1.0898-9.6758 1.1367-2.7266 2.2305-3.9141 5.8398-3.043 9.2539l3.543 13.168c-77.695 6.9961-130.73-67.348-124.84-128.79 0.15234-1.6133 3.1367-55.695 31.594-99.055 6.3711-9.9336-8.2969-19.715-15-9.9453-4.8008 7.2852-9.0625 14.91-12.746 22.82-19.555 57.977-68.621 62.445-97.891 59.312-24.676-0.9375-22.5-14.117-22.5-14.117-0.48047 1.1562-0.89453 2.3047-1.2891 3.4531-0.76562-5.9531-1.9219-12.668-3.625-20.777-2.6172-11.5-18.051-8.1602-17.617 3.6992 2.8086 76.391-22.684 180.12-22.684 180.12l-9.3594-15.395v-0.003907c-1.0469-1.7266-2.8672-2.832-4.8789-2.9648-2.0156-0.13281-3.9648 0.72656-5.2305 2.2969-5.7266 7.0078-11.086 14.309-16.059 21.871-21.383-27.645-43.492-50.176-66.82-64.078 3.2891-1.5391 6.6641-2.8867 10.109-4.0352 11.25-3.5703 6.2773-20.422-5.1406-17.25-19.457 6.625-37.219 17.434-52.047 31.668-4.332 4.2031-9.9492 6.8398-15.953 7.4883-6 0.64844-12.051-0.72656-17.184-3.9102-4.3867-2.375-7.4766-8.2695-13.172-7.5977v0.003907c-7.9453 0.75391-15.738 2.6797-23.121 5.7188-3.5469 1.2188-6.0469-0.76953-5.9141-3.9062 13.77-93.344 130.16-122.82 196.26-49.324 7.5898 8.9297 21.336-2.6719 13.703-11.668v-0.003906c-15.145-17.359-34.477-30.559-56.16-38.348 7.0391-7.7891 13.977-15.914 20.809-24.379 2.918 7.7969 12.105 34.508 25.559 23.637 11.645-12.668 20.469-27.656 25.895-43.984 7.832-22.711 12.652-57.703-5.0938-100.35v0.003906c13.586-0.11719 26.664-5.1758 36.785-14.238 2.1133-1.9219 3.1914-4.7305 2.9062-7.5742s-1.8945-5.3828-4.3477-6.8477c-13.363-9.1875-23.027-22.828-27.262-38.48-2.2109-16.336 0.76953-28.824-3.0977-55.25h-0.003906c20.207 6.3984 41.086 10.43 62.223 12.016 4.8438 0.36328 9.0977-3.1914 9.5977-8.0234l1.7266-16.27c13.156 13.051 37.047 26.805 79.328 26.805 17.773 1.1484 14.746-9.0273 13.441-22.012v-0.003906c17.254 11.527 37.574 17.598 58.32 17.434 112.75 15.32 147.46 117.2 130.21 188.3z"/>
 <path d="m300.1 756.39c2.6523 0.94141 5.5938 0.58594 7.9453-0.95703 17.344-11.051 28.488-29.605 30.098-50.105 9.5625-6.0938 15.164-16.805 14.715-28.133 0.39062-3.5625 1.5469-19.078-4.7266-41.625l19.277-5.5859c4.5898-1.332 7.3398-6.0195 6.2617-10.676 0.51172-0.30078-18.758-70.801-65.473-81.75-1.1719 0.17578-26.363 4.1289-44.879 15.801-21.215-12.238-44.703-17.34-49.867-15.137-45.91 20.305-59.902 78.613-60.48 81.086h-0.003906c-1.0781 4.6562 1.6719 9.3438 6.2617 10.676l19.273 5.5859c-6.2773 22.559-5.1133 38.082-4.7227 41.629-0.44141 11.352 5.1953 22.078 14.793 28.156 1.6211 20.484 12.766 39.02 30.094 50.059 2.3477 1.5508 5.2891 1.9062 7.9414 0.96875 2.6562-0.9375 4.7188-3.0625 5.5742-5.7422l12.082-37.754c6.9492-1.7461 13.445-4.9531 19.059-9.4023 5.6328 4.4688 12.156 7.6797 19.129 9.4219l12.074 37.734c0.85547 2.6836 2.9219 4.8125 5.5742 5.75zm-45.777-68.977c-3.0703 3.3125-12.027 10.516-31.309 9.5391-45.484-2.9258-37.922-33.527 2.0391-46.906 7.3672 8.9648 17.355 19.551 29.281 23.434zm-8.7188-59.734c9.0156-12.613 5.8516-30.789-9.0508-37.07l-12.859-5.4922c-10.953-4.4492-17.871 11.723-7.0625 16.559l12.863 5.4883h-0.003906c1.3984 0.59766 2.4805 1.7578 2.9844 3.1953 0.5 1.4336 0.375 3.0156-0.34375 4.3555l-9.2227 17.203c-10.156 2.7422-19.742 7.2773-28.305 13.391 0.5625-6 6.2227-13.59 3.2148-19.977h-0.003906c-1.1328-2.1875-3.1133-3.8125-5.4805-4.4961l-19.367-5.6094c5.0586-14.879 18.48-46.078 45.359-59.406 7.1367 1.3867 27.359 6 39.395 15.582v-0.003906c3.2812 2.6172 7.9375 2.6172 11.215 0 12.043-9.6016 32.262-14.199 39.391-15.582 26.879 13.324 40.305 44.535 45.359 59.406l-19.367 5.6094 0.003907 0.003906c-2.3672 0.6875-4.3477 2.3086-5.4844 4.4922-3.0078 6.3945 2.6406 13.984 3.2148 19.98-13.68-12.559-55.746-22-86.449-17.625zm26.719 59.762v-13.973c11.922-3.8867 21.902-14.469 29.281-23.434 16.078 5.1367 25.359 13.242 30.676 20.492 11.188 18.164-14.145 26.043-28.637 26.398-19.387 1.0664-28.336-6.2461-31.32-9.4727z"/>
 <path d="m399.88 226.2-10.672 2.0312c-10.586 1.957-8.9727 17.934 1.6797 17.844 0.89453 0.13281 11.23-2.0273 12.363-2.1953 11.582-2.4102 8.2812-19.691-3.3711-17.68z"/>
 <path d="m291.93 583.37-15.684 5.6094c-9.4336 3.2383-6.793 17.645 3.0273 17.477 1.9453 0.37891 16.609-5.5742 18.719-6.1328 11.07-4.1641 5.1367-20.762-6.0625-16.953z"/>
 <path d="m1054.4 347.22-12.031 2.7773c-10.32 2.3008-8.4219 17.887 2.0195 17.773 1.1523 0.1875 12.68-2.7656 14.062-3.0078 11.477-2.8438 7.5312-20.016-4.0508-17.543z"/>
 <path d="m719.82 687.12c-12.91 0.22266-12.91 19.426 0 19.645 12.898-0.23047 12.898-19.434 0-19.645z"/>
</svg>
