<?xml version="1.0" encoding="UTF-8"?>
<svg width="1200pt" height="1200pt" version="1.1" viewBox="0 0 1200 1200" xmlns="http://www.w3.org/2000/svg">
 <path d="m530.45 561.78c-8.668-8.668-8.668-22.668 0-31.332 38.445-38.445 100.89-38.445 139.11 0 8.668 8.668 8.668 22.668 0 31.332-4.4453 4.4453-10 6.4453-15.777 6.4453s-11.332-2.2227-15.777-6.4453c-21.109-21.109-55.332-21.109-76.445 0-8.4453 8.668-22.445 8.668-31.109 0zm31.332-355.55c21.109-21.109 55.332-21.109 76.445 0 4.4453 4.4453 10 6.4453 15.777 6.4453s11.332-2.2227 15.777-6.4453c8.668-8.668 8.668-22.668 0-31.332-38.445-38.445-100.89-38.445-139.11 0-8.668 8.668-8.668 22.668 0 31.332 8.6641 8.668 22.441 8.668 31.109 0zm-289.33 164.67c12.223 0 22.223-10 22.223-22.223 0-29.777 24.223-54 54-54 12.223 0 22.223-10 22.223-22.223 0-12.223-10-22.223-22.223-22.223-54.223 0-98.445 44.223-98.445 98.445 0 12.223 9.7773 22.223 22.223 22.223zm-169.55 370.44c-78-78-78-204.89 0-282.89 16.891-16.891 36.668-30.445 58-40.223-8.2227-22-12.445-45.332-12.445-69.777 0-110.22 89.777-200 200-200 24.223 0 47.555 4.2227 69.777 12.445 9.7773-21.332 23.332-41.109 40.223-58 78-78 204.89-78 282.89 0 16.891 16.891 30.445 36.668 40.223 58 22-8.2227 45.332-12.445 69.777-12.445 110.22 0 200 89.777 200 200 0 24.223-4.2227 47.555-12.445 69.777 21.332 9.7773 41.109 23.332 58 40.223 78 78 78 204.89 0 282.89-16.891 16.891-36.668 30.445-58 40.223 8.2227 22 12.445 45.332 12.445 69.777 0 110.22-89.777 200-200 200-24.223 0-47.555-4.2227-69.777-12.445-9.7773 21.332-23.332 41.109-40.223 58-38.891 39.113-90.227 58.668-141.34 58.668-51.332 0-102.45-19.555-141.55-58.445-16.891-16.891-30.445-36.668-40.223-58-22 8.2227-45.332 12.445-69.777 12.445-110.22 0-200-89.777-200-200 0-24.223 4.2227-47.555 12.445-69.777-21.336-9.7773-41.113-23.332-58-40.445zm245.55 265.78c25.555 0 49.555-6 71.777-17.555 51.777-26.891 84-79.777 84-138 0-16.223-2.4453-32-7.1094-46.891-7.7773-24-20.668-45.332-38.445-63.109-13.777-13.777-29.555-24.445-47.332-32.223-7.5547 11.555-15.777 22.668-25.555 32.223-38 38-88.891 58.445-141.11 58.445-13.777 0-27.555-2-41.332-4.8906-6.8906 17.777-10.668 36.668-10.668 56.223 0.21875 86 69.996 155.78 155.77 155.78zm96-407.11c0 41.555 16.223 80.668 45.555 110s68.445 45.555 110 45.555 80.668-16.223 110-45.555 45.555-68.445 45.555-110-16.223-80.668-45.555-110-68.445-45.555-110-45.555-80.668 16.223-110 45.555-45.555 68.445-45.555 110zm303.78 402.67c17.555-55.777 2.8906-116-38.223-157.11-11.109-11.109-24-20.668-38.445-28-38.668-20.445-87.109-22.668-127.55-6.8906 2.668 13.332 4.668 26.891 4.668 40.891 0 68.223-34.445 130.45-90.668 167.11 7.5547 17.332 18.445 33.332 32.223 47.109 60.668 60.668 159.33 60.668 220 0 17.555-18 30.668-39.777 38-63.109zm258.89-151.11c0-25.555-5.7773-49.555-17.555-71.777-26.891-51.777-79.777-83.777-138-83.777-16.223 0-32 2.4453-46.891 7.1094-24.223 7.7773-45.332 20.668-63.109 38.445-13.777 13.777-24.445 29.555-32.223 47.332 11.555 7.5547 22.668 15.777 32.223 25.555 48.223 48.223 67.777 116.45 53.777 182.45 17.777 6.8906 36.445 10.445 56.223 10.445 85.777-0.22266 155.55-70 155.55-155.78zm58.445-361.55c-17.777-17.777-39.555-30.891-62.891-38.223-55.777-17.555-116-2.8906-157.11 38.223-11.109 11.109-20.668 24-28 38.445-11.555 21.777-17.555 46.445-17.555 71.555 0 19.332 3.7773 38.445 10.668 56 13.332-2.668 26.891-4.668 40.891-4.668 68.223 0 130.45 34.445 167.11 90.668 17.332-7.5547 33.332-18.445 47.109-32.223 60.445-60.445 60.445-159.11-0.22266-219.78zm-214-297.11c-25.555 0-49.555 6-71.777 17.555-51.777 26.891-84 79.777-84 138 0 16.223 2.4453 32 7.1094 46.891 7.7773 24 20.668 45.332 38.445 63.109 13.777 13.777 29.555 24.445 47.332 32.223 7.5547-11.555 15.777-22.668 25.555-32.223 48.223-48.223 116.45-67.555 182.45-53.777 6.8906-17.777 10.445-36.445 10.445-56.223 0-85.777-69.777-155.55-155.55-155.55zm-399.78 4.4414c-17.555 55.777-2.8906 116 38.223 157.11 11.109 11.109 24 20.668 38.445 28 38.668 20.445 87.109 22.668 127.55 6.8906-2.668-13.332-4.668-26.891-4.668-40.891 0-68.223 34.445-130.45 90.668-167.11-7.5547-17.332-18.445-33.332-32.223-47.109-60.668-60.668-159.33-60.668-220 0-17.555 18-30.668 39.777-38 63.109zm-258.89 151.11c0 25.555 5.7773 49.555 17.555 71.777 26.891 51.777 79.777 83.777 138 83.777 16.223 0 32-2.4453 46.891-7.1094 24.223-7.7773 45.332-20.668 63.109-38.445 13.777-13.777 24.445-29.555 32.223-47.332-11.555-7.5547-22.668-15.777-32.223-25.555-48.223-48.223-67.777-116.45-53.777-182.45-17.777-6.8906-36.445-10.445-56.223-10.445-85.777 0.22266-155.55 70-155.55 155.78zm-58.445 361.55c17.777 17.777 39.555 30.891 62.891 38.223 55.777 17.555 116 2.8906 157.11-38.223 11.109-11.109 20.668-24 28-38.445 11.555-21.777 17.555-46.445 17.555-71.555 0-19.332-3.7773-38.445-10.668-56-13.332 2.668-26.891 4.668-40.891 4.668-68.223 0-130.45-34.445-167.11-90.668-17.332 7.5547-33.332 18.445-47.109 32.223-60.445 60.445-60.445 159.11 0.22266 219.78zm56-34c5.7773 0 11.332-2.2227 15.777-6.4453 8.668-8.668 8.668-22.668 0-31.332-21.109-21.109-21.109-55.332 0-76.445 8.668-8.668 8.668-22.668 0-31.332-8.668-8.668-22.668-8.668-31.332 0-38.445 38.445-38.445 100.89 0 139.11 4.2188 4.4453 10 6.4453 15.555 6.4453zm158 229.33c-29.777 0-54-24.223-54-54 0-12.223-10-22.223-22.223-22.223s-22.223 10-22.223 22.223c0 54.223 44.223 98.445 98.445 98.445 12.223 0 22.223-10 22.223-22.223 0-12.223-9.7773-22.223-22.223-22.223zm289.78 88.445c-21.109 21.109-55.332 21.109-76.445 0-8.668-8.668-22.668-8.668-31.332 0-8.668 8.668-8.668 22.668 0 31.332 19.109 19.109 44.445 28.891 69.555 28.891s50.445-9.5547 69.555-28.891c8.668-8.668 8.668-22.668 0-31.332-8.6641-8.668-22.664-8.668-31.332 0zm289.33-164.67c-12.223 0-22.223 10-22.223 22.223 0 29.777-24.223 54-54 54-12.223 0-22.223 10-22.223 22.223 0 12.223 10 22.223 22.223 22.223 54.223 0 98.445-44.223 98.445-98.445 0-12.223-9.7773-22.223-22.223-22.223zm66.223-267.33c21.109 21.109 21.109 55.332 0 76.445-8.668 8.668-8.668 22.668 0 31.332 4.4453 4.4453 10 6.4453 15.777 6.4453 5.7773 0 11.332-2.2227 15.777-6.4453 38.445-38.445 38.445-100.89 0-139.11-8.668-8.668-22.668-8.668-31.332 0-8.8906 8.6641-8.8906 22.664-0.22266 31.332zm-142.22-267.11c29.777 0 54 24.223 54 54 0 12.223 10 22.223 22.223 22.223s22.223-10 22.223-22.223c0-54.223-44.223-98.445-98.445-98.445-12.223 0-22.223 10-22.223 22.223 0 12.223 9.7773 22.223 22.223 22.223z"/>
</svg>
