<?xml version="1.0" encoding="UTF-8"?>
<svg width="1200pt" height="1200pt" version="1.1" viewBox="0 0 1200 1200" xmlns="http://www.w3.org/2000/svg">
 <path d="m980.34 392.56c-0.054688-45.836-18.285-89.777-50.695-122.19s-76.352-50.641-122.18-50.695h-174.64c0.44531-15.371 5.2695-30.293 13.91-43.016 11.516-15.363 30.391-23.938 57.738-26.27 12.305-1.0352 23.121-8.5586 28.375-19.734 5.2539-11.176 4.1484-24.305-2.9023-34.441-7.0508-10.137-18.973-15.742-31.277-14.707-47.508 4.0195-83.605 22.082-107.27 53.688-17.625 24.695-27.352 54.148-27.902 84.48h-170.95c-45.832 0.054687-89.773 18.285-122.18 50.695s-50.641 76.352-50.695 122.19c0.082032 25.582 9.6875 50.219 26.945 69.109-17.652 43.992-26.797 90.941-26.945 138.34 0 204.01 163.32 518.64 380.34 518.64 217.01 0.003906 380.34-314.62 380.34-518.64-0.14844-47.402-9.293-94.352-26.945-138.34 17.258-18.891 26.863-43.527 26.945-69.109zm-587.79-103.73h414.91c27.5 0.03125 53.867 10.969 73.312 30.414 19.445 19.449 30.383 45.812 30.414 73.316-0.054688 6.2695-1.832 12.406-5.1328 17.738-3.3047 5.332-8.0078 9.6562-13.598 12.5-1.5117 0.80469-3.0781 1.5-4.6914 2.082-3.5625 1.375-7.3359 2.1367-11.152 2.2539h-553.22c-3.8164-0.11719-7.5898-0.87891-11.152-2.2539-1.6133-0.58203-3.1797-1.2773-4.6914-2.082-5.5898-2.8438-10.293-7.168-13.598-12.5-3.3008-5.332-5.0781-11.469-5.1328-17.738 0.03125-27.504 10.969-53.867 30.414-73.316 19.445-19.445 45.812-30.383 73.312-30.414zm207.46 760.67c-168.76 0-311.18-276.1-311.18-449.48v-0.003906c-0.019531-35.816 6.2422-71.359 18.504-105.01 5.3164 0.84766 10.691 1.2773 16.07 1.2852h553.22c5.3828-0.007812 10.754-0.4375 16.07-1.2852 12.262 33.652 18.523 69.195 18.504 105.01 0 173.39-142.43 449.49-311.18 449.49z"/>
</svg>
