<?xml version="1.0" encoding="UTF-8"?>
<svg width="1200pt" height="1200pt" version="1.1" viewBox="0 0 1200 1200" xmlns="http://www.w3.org/2000/svg">
 <path d="m653.55 381.72c0-4.6445 3.7578-8.3984 8.3984-8.3984 4.6445 0 8.3984 3.7578 8.3984 8.3984 0 4.6445-3.7578 8.3984-8.3984 8.3984-4.6406 0.003906-8.3984-3.7539-8.3984-8.3984zm-445.51 178.25c4.6445 0 8.3984-3.7578 8.3984-8.3984 0-4.6445-3.7578-8.3984-8.3984-8.3984-4.6445 0-8.3984 3.7578-8.3984 8.3984 0 4.6406 3.7656 8.3984 8.3984 8.3984zm493.46-222.76c4.6445 0 8.3984-3.7578 8.3984-8.3984 0-4.6445-3.7578-8.3984-8.3984-8.3984-4.6445 0-8.3984 3.7578-8.3984 8.3984 0 4.6445 3.7539 8.3984 8.3984 8.3984zm-520.75 201.34c4.6445 0 8.3984-3.7578 8.3984-8.3984 0-4.6445-3.7578-8.3984-8.3984-8.3984-4.6445 0-8.3984 3.7578-8.3984 8.3984-0.003906 4.6445 3.7539 8.3984 8.3984 8.3984zm-16.309-39.082c4.6445 0 8.3984-3.7578 8.3984-8.3984 0-4.6445-3.7578-8.3984-8.3984-8.3984-4.6445 0-8.3984 3.7578-8.3984 8.3984-0.003906 4.6406 3.7656 8.3984 8.3984 8.3984zm45.48-4.4414c0-4.6445-3.7578-8.3984-8.3984-8.3984-4.6445 0-8.3984 3.7578-8.3984 8.3984 0 4.6445 3.7578 8.3984 8.3984 8.3984 4.6406 0.003906 8.3984-3.7539 8.3984-8.3984zm-37.719-39.887c0-4.6445-3.7578-8.3984-8.3984-8.3984-4.6445 0-8.3984 3.7578-8.3984 8.3984 0 4.6445 3.7578 8.3984 8.3984 8.3984 4.6445 0 8.3984-3.7539 8.3984-8.3984zm538.24-148.62c4.6445 0 8.3984-3.7578 8.3984-8.3984 0-4.6445-3.7578-8.3984-8.3984-8.3984-4.6445 0-8.3984 3.7578-8.3984 8.3984-0.003906 4.6445 3.7656 8.3984 8.3984 8.3984zm62.758-15.18c4.6445 0 8.3984-3.7578 8.3984-8.3984 0-4.6445-3.7578-8.3984-8.3984-8.3984-4.6445 0-8.3984 3.7578-8.3984 8.3984s3.7656 8.3984 8.3984 8.3984zm-104.27 59.855c4.6445 0 8.3984-3.7578 8.3984-8.3984 0-4.6445-3.7578-8.3984-8.3984-8.3984-4.6445 0-8.3984 3.7578-8.3984 8.3984-0.003907 4.6445 3.7656 8.3984 8.3984 8.3984zm73.535-30.695c4.6445 0 8.3984-3.7578 8.3984-8.3984 0-4.6445-3.7578-8.3984-8.3984-8.3984-4.6445 0-8.3984 3.7578-8.3984 8.3984-0.003906 4.6406 3.7656 8.3984 8.3984 8.3984zm-28.609 357.55c0.46875 2.9648 3.0117 5.0742 5.9297 5.0742 0.30078 0 0.625-0.023438 0.9375-0.070313 24.973-3.9102 48.73-10.836 72.613-21.18 18.012-7.7773 35.641-17.844 52.379-29.914 2.6875-1.9336 3.2891-5.6875 1.3555-8.375-1.9336-2.6758-5.6758-3.3008-8.375-1.3438-16.031 11.555-32.891 21.191-50.125 28.633-22.957 9.9258-45.742 16.586-69.707 20.328-3.2773 0.51172-5.5117 3.5859-5.0078 6.8477zm-21.312 208.78c0.96094 8.6875-35.855 79.535-99.926 93.91-20.855 4.668-38.074 5.1602-51.66 3.8047 13.391 11.676 27.145 27.816 32.641 47.844 7.6094 27.695 2.4844 51.551-1.6328 70.715-2.9766 13.859-5.5312 25.824-2.3867 34.945 0.64844 1.8828 0.32422 3.9727-0.88672 5.5664-1.1406 1.5117-2.9141 2.3867-4.7891 2.3867-0.10937 0-0.22656 0-0.33594-0.011719-80.508-4.4766-130.92-39.602-148.71-102.23-18.359 43.078-71.328 82.008-139.41 82.008-2.2578 0-4.3086-1.2617-5.3398-3.2656-44.566-86.977-4.6211-153.6 16.402-179.91-37.391 2.8086-129-0.19141-165.2-89.809-0.94922-2.3281-0.33594-5.0039 1.5352-6.707 56.137-50.82 110.39-56.449 144.14-53.113-6.1445-9.8984-11.594-21.348-15.516-34.223-4.9336-16.223-8.4492-37.801-5.2305-62.785-51.527-30.215-87.336-72.133-112.43-131.83-20.688-49.262-27.254-90.133-31.176-114.55-1.1758-7.3203-2.1133-13.223-3.1562-17.508-1.3086-5.3867-5.1836-11.508-9.2891-17.977-9.1445-14.41-20.508-32.352-8.8672-53.113 12.66-22.477 33.059-21.816 49.465-21.277 7.5469 0.27734 14.676 0.50391 20.41-1.3203 3.3008-1.0547 8.1484-3.9375 14.27-7.5859 23.605-14.039 67.547-40.188 154.38-41.461 83.242-0.94922 163.97 38.629 222.66 109.15 31.465-72.719 92.977-130.33 172.22-155.61 51.984-16.586 94.57-19.57 120.01-21.359 7.6094-0.52734 13.738-0.94922 18.203-1.6211 5.6758-0.85156 12.168-4.2227 19.043-7.7773 15.277-7.9219 34.262-17.734 55.055-4.2734 22.559 14.629 20.965 35.172 19.68 51.672-0.58984 7.6094-1.1523 14.773 0.46875 20.746 0.94922 3.5039 3.7422 8.7109 7.2852 15.301 13.5 25.129 38.605 71.879 36.109 159.72-3.6133 127.08-95.363 211.48-180.02 248.07-58.633 25.332-106.09 27.312-131.58 28.379-5.0508 0.21484-9.2148 0.37109-12.371 0.70703-7.4141 0.76953-16.836 4.2969-26.797 8.0273-14.074 5.2695-29.363 11.004-43.871 11.004-8.1836 0-16.117-1.8242-23.461-6.5742-21.816-14.148-24.156-44.219-26.039-68.363-0.57422-7.4023-1.1172-14.41-2.1602-20.074-1.4648-7.9805-3.9258-17.867-6.7578-29.328-7.6797-31.008-18.215-73.465-18.203-116.65 0-34.766 6.4922-68.219 18.168-99.289-55.922-69.961-133.63-109.87-214.19-109.87-1.1055 0-2.1836 0.011719-3.2891 0.023438-83.617 1.2344-125.77 26.305-148.41 39.77-7.0547 4.2109-12.156 7.2344-16.777 8.7109-7.7031 2.4375-16.223 2.1484-24.434 1.8828-15.84-0.50391-29.531-0.94922-38.617 15.168-8.125 14.496-0.023438 27.266 8.543 40.801 4.6445 7.3203 9.0352 14.258 10.812 21.562 1.0938 4.5117 2.1016 10.727 3.3477 18.445 3.8398 23.879 10.262 63.863 30.383 111.8 23.387 55.621 56.496 95.004 103.56 123.68 3.1445-14.605 8.6641-30.18 17.566-46.414 1.5469-2.8438 5.0625-3.9258 7.9688-2.4727 14.664 7.4141 29.148 13.367 43.164 19.117 36.395 14.941 68.27 28.43 83.484 60.191 0.37109-0.91016 0.64844-1.8359 1.043-2.7461 14.496-33.445 44.027-58.152 87.793-73.441 2.6406-0.9375 5.5781 0.097656 7.0664 2.4727 32.785 52.309 59.688 128.81 15.469 207.72 18.383-7.1758 41.004-10.332 73.273-1.9219 30.348 7.9062 67.488 22.379 87.445 30.156 6.8867 2.6875 13.402 5.2188 14.734 5.5547 0.023438 0 0.035157 0.011719 0.046875 0.011719 0.097656 0.011719 0.16797 0.035157 0.26562 0.058594 2.8516 0.16406 4.4922 2.4414 4.8164 5.3711zm-161.21-376.37c0 41.723 10.32 83.352 17.855 113.76 2.8906 11.652 5.3867 21.719 6.9102 30.059 1.1523 6.2656 1.7148 13.57 2.3164 21.289 1.7656 22.656 3.7578 48.312 20.605 59.23 15.254 9.8867 36.266 2.0391 56.594-5.5938 10.715-4.0078 20.82-7.7891 29.773-8.7227 3.3477-0.34766 7.7539-0.53906 13.105-0.75781 24.719-1.0312 70.727-2.9531 127.32-27.406 81.266-35.137 169.33-115.96 172.79-237.41 2.4102-84.625-21.719-129.55-34.68-153.68-4.0547-7.5586-6.9961-13.02-8.293-17.844-2.1602-7.9688-1.5-16.523-0.85156-24.805 1.2461-16.055 2.3281-29.93-14.242-40.668-14.965-9.707-28.586-2.6406-43.008 4.8477-7.7891 4.0312-15.145 7.8477-22.777 8.9883-4.6914 0.70703-11.137 1.1758-19.141 1.7383-24.91 1.7539-66.613 4.6797-117.21 20.82-111.89 35.688-187.06 138.62-187.06 256.15zm141.41 392.1c-39.254 21.613-78 28.465-111.31 28.465-56.902 0-97.969-19.957-98.652-20.293-2.9648-1.4766-4.1641-5.0742-2.6875-8.0391 1.4766-2.9766 5.0898-4.1875 8.0391-2.6992 1.0312 0.51562 101.93 49.309 204.64-11.281-1.3789-0.52734-2.7227-1.0547-4.4297-1.7148-19.727-7.6797-56.449-21.984-86.113-29.734-41.363-10.738-64.234-0.91016-82.344 9.4336-1.2617 1.7773-2.3281 3.5508-3.6602 5.3398-1.1758 1.5703-2.9766 2.3867-4.8008 2.3867-1.2461 0-2.5195-0.39453-3.6016-1.2109-2.6523-1.9922-3.1797-5.7461-1.1875-8.3984 58.559-77.773 36.422-155.72 4.7891-210.06-29.027 53.074-40.992 168.78-41.125 169.99-0.3125 3.0977-2.9141 5.3984-5.9648 5.3984-0.20312 0-0.40625-0.011719-0.60156-0.035156-3.3008-0.32422-5.6992-3.2656-5.375-6.5625 0.49219-4.9453 11.531-111.45 39.504-168.61-31.871 14.16-53.809 34.453-65.16 60.574-21.469 49.441 1.9922 103.78 2.2305 104.32 1.332 3.0352-0.035156 6.5742-3.0586 7.9062-3.0586 1.332-6.5742-0.035156-7.9062-3.0586-0.92578-2.0898-19.777-45.648-9.1445-92.723-9.875-37.609-41.82-50.879-82.234-67.477-11.113-4.5469-22.559-9.3477-34.199-14.82 4.9219 36.145 30.348 158.32 152.43 221.14 2.6523 0.60156 3.8281 1.9922 4.4883 4.6562 1.2344 4.9336-1.4414 6.9492-16.234 18.145-17.172 12.973-45.383 34.402-60.527 55.945 3.6016 3.7695 5.8555 8.8555 5.8555 14.473 0 11.578-9.4219 21-21 21s-21-9.4219-21-21 9.4219-21 21-21c1.6094 0 3.1562 0.21484 4.6562 0.5625 16.117-23.461 45.816-45.984 63.781-59.555 0.14453-0.10938 0.27734-0.21484 0.42188-0.3125-0.63672 0.070312-1.2617 0.14453-1.8945 0.21484-23.148 2.543-65.914 7.2617-107.69 3.0859-3.3945 7.0312-10.535 11.93-18.852 11.93-11.578 0-21-9.4219-21-21 0-11.578 9.4219-21 21-21 10.609 0 19.32 7.9453 20.711 18.18 40.02 3.8984 81.238-0.55078 103.93-3.0586-103.87-62.293-132.74-166.92-140.46-211.25-15.59 38.676-11.832 72.086-5.0273 94.441 9.9961 32.797 30.047 55.57 45.492 63.574 2.9414 1.5352 4.0938 5.1602 2.5664 8.1016-1.0664 2.0508-3.168 3.2383-5.3281 3.2383-0.9375 0-1.8711-0.21484-2.7461-0.67188-8.2812-4.2969-17.641-12.266-26.41-23.113-29.125-5.1719-84.227-5.1602-142.45 45.793 43.559 99.73 165.11 76.957 166.34 76.738 2.6406-0.52734 5.293 0.78125 6.5156 3.1797 1.2109 2.4102 0.67188 5.3281-1.3086 7.1523-3.1914 2.9023-76.789 71.832-26.484 174.53 72.445-1.5977 125.46-49.992 130.41-95.555-1.3555-10.176-2.1016-20.855-2.0273-32.184 0.011719-3.3008 2.6992-5.9648 6-5.9648h0.035156c3.3125 0.023438 5.9883 2.7227 5.9648 6.0352-0.48047 85.598 40.992 134.52 123.23 145.81-16.152-13.043-40.453-35.809-61.934-69.227-42.301-65.844-49.094-125.62-49.355-128.14-0.34766-3.2891 2.0273-6.2539 5.3281-6.6016 3.3242-0.34766 6.2539 2.0391 6.6016 5.3164 0.058593 0.58984 6.8398 59.605 47.52 122.91 23.195 36.109 50.555 59.785 65.305 71.027 0.15625-8.207 1.9688-16.992 4.0312-26.605 4.0312-18.828 8.6172-40.164 1.7891-65.016-8.543-31.117-41.688-52.586-53.746-59.508-3.1562-1.5-4.8711-2.6406-5.1602-2.832-2.6055-1.7656-3.3945-5.2578-1.8125-7.9688 1.5859-2.7227 5.0039-3.7422 7.8242-2.375 0.34766 0.17969 2.0391 1.0195 4.668 2.4961 9.2539 4.2617 34.812 12.926 76.188 3.6367 41.957-9.4258 69.953-45.258 82.723-66.477zm-388.95-33.621c-4.9688 0-9 4.043-9 9 0 4.957 4.0312 9 9 9s9-4.043 9-9c0-4.957-4.0312-9-9-9zm59.578 86.086c-4.9688 0-9 4.043-9 9s4.0312 9 9 9 9-4.043 9-9-4.0312-9-9-9zm-19.078 53.75c-2.9766-1.5234-6.5742-0.32422-8.0625 2.6172-0.50391 0.98438-12.324 24.348-13.535 46.523-0.19141 3.3008 2.3516 6.1445 5.6641 6.3125 0.10938 0.011719 0.22656 0.011719 0.33594 0.011719 3.168 0 5.8086-2.4727 5.9883-5.6758 1.0781-19.598 12.145-41.508 12.254-41.723 1.4844-2.9453 0.30859-6.5664-2.6445-8.0664zm130.98-819.49c-0.3125-55.309 19.094-102.25 27.371-122.28 1.4297-3.4688 2.5195-6.0859 3.0703-7.7539 1.2109-3.625 4.6445-5.7109 8.4375-5.1484 16.703 2.3633 69.469 77.652 72.012 140.64 2.6289 64.777-28.211 123.73-34.535 135.1 1.9453 6.9609 4.043 13.945 6.4219 20.902 1.0664 3.1445-0.60156 6.5508-3.7305 7.6211-0.64844 0.22656-1.2969 0.32422-1.9453 0.32422-2.4961 0-4.8242-1.5703-5.6758-4.0547-2.6172-7.6562-4.9062-15.301-7.0195-22.906-25.395-23.762-64.059-81.734-64.406-142.44zm12-0.074219c0.25391 44.398 23.844 90.133 46.379 118.22-12.301-55.812-12.527-102.82-12.527-105.31 0-3.3125 2.6875-6 6-6s6 2.6875 6 6c0 0.625 0.23828 51.961 13.969 110.15 10.5-22.105 29.074-68.473 27.098-117.05-2.3164-57.168-44.797-115.49-58.957-127.29-0.44531 1.1055-0.94922 2.3164-1.5 3.6484-8.0078 19.359-26.75 64.73-26.461 117.62zm110.93 90.074c-0.17969-2.6172-3.875-64.727 34.43-108.88 30.742-35.438 66.191-34.98 67.645-35.051 2.9414 0.058594 5.3984 2.2578 5.8086 5.1719 0.27734 1.957 6.4336 48.254-20.074 79.152-25.32 29.52-76.391 62.844-78.551 64.246-0.99609 0.64844-2.125 0.97266-3.2656 0.97266-0.92578 0-1.8359-0.21484-2.6875-0.63672-1.9102-0.96094-3.1602-2.8477-3.3047-4.9805zm11.977-11.703c15.996-11.051 48.793-34.824 66.719-55.727 18.047-21.047 18.469-51.684 17.773-64.117-10.043 1.2969-32.496 6.875-52.98 30.504-25.953 29.941-30.766 70.25-31.512 89.34zm533.36 412.81c-0.58984 8.1836-49.871 58.176-131.68 68.773-13.285 1.7266-25.738 2.4609-37.297 2.4609-66.672 0-104.1-24.492-105.93-25.715-1.7891-1.1992-2.7969-3.2656-2.6406-5.4102 0.71875-9.8867 55.523-57.91 133.51-68.184 72.395-9.5391 132.41 13.703 141.59 22.367 1.3125 1.2461 2.5703 3.8945 2.4375 5.707zm-14.254 0.73438c-14.426-7.6914-65.281-25.188-128.21-16.895-64.523 8.4844-107.52 42.648-120 54.961 15.336 7.9336 60.742 26.988 129.24 18.07 66.109-8.5703 107.92-44.09 118.97-56.137zm-34.211 206.46c0.99609 1.5859 2.9297 5.8555-0.97266 11.461-8.6992 12.504-43.789 28.344-99.035 28.344-21.227 0-45.434-2.3281-72.266-8.1016-17.617-3.7812-34.223-9.1562-49.945-15.383 26.723 44.375 30.613 125.86 30.781 129.82 0.085938 1.9453-0.78125 3.8164-2.3398 5.0156-1.0547 0.81641-2.3516 1.2461-3.6602 1.2461-0.60156 0-1.1992-0.097656-1.7891-0.26562-1.7656-0.55078-174.94-56.941-171.45-243.04-17.52-3.4805-28.02-5.1719-28.355-5.2305-3.2656-0.51562-5.5078-3.6016-4.9922-6.8633 0.51562-3.2656 3.5898-5.4844 6.8633-4.9922 0.34766 0.058594 11.93 1.9219 31.223 5.7969 9.2383-3.5273 96.109-35.027 198.98-10.164 88.984 21.492 160.52 102.25 166.95 112.36zm-253.96 1.9336c-50.23-25.969-86.988-59.773-104.75-80.23 3.5508 146.73 121.48 203.03 154.68 215.98-2.0742-26.352-10.621-103.26-39.887-129.66-2.4609-2.2188-6.2539-3.8633-10.031-5.9766-0.050782-0.035156 0.019531-0.074219-0.015625-0.10938zm242.88 3.1797c-9.9609-13.152-77.52-86.207-158.69-105.79-73.5-17.785-139.91-5.1836-172.12 3.5625 43.812 9.625 108.47 26.004 174.78 50.496 3.1094 1.1523 4.7031 4.5977 3.5508 7.7031-0.89844 2.4258-3.1914 3.9258-5.6289 3.9258-0.69531 0-1.3906-0.12109-2.0742-0.37109-68.773-25.402-135.61-41.941-178.95-51.266 23.891 27.781 90.984 87.395 180.45 106.61 94.309 20.246 151.73-4.6445 158.68-14.867z"/>
</svg>
