<?xml version="1.0" encoding="UTF-8"?>
<svg width="1200pt" height="1200pt" version="1.1" viewBox="0 0 1200 1200" xmlns="http://www.w3.org/2000/svg">
 <path d="m412.5 661.36v-455.11c0-31.031-25.219-56.25-56.25-56.25h-225c-31.031 0-56.25 25.219-56.25 56.25v525c0 45.094 17.531 87.469 49.406 119.34l300 300c31.875 31.875 74.25 49.406 119.34 49.406 45.047 0 87.469-17.531 119.34-49.406 65.812-65.812 65.812-172.87 0-238.64zm-300-455.11c0-10.312 8.4375-18.75 18.75-18.75h225c10.312 0 18.75 8.4375 18.75 18.75v48.469l-5.4844-5.4844c-7.3125-7.3125-19.219-7.3125-26.531 0l-24.234 24.234-24.234-24.234c-7.3125-7.3125-19.219-7.3125-26.531 0l-24.234 24.234-24.234-24.234c-7.3125-7.3125-19.219-7.3125-26.531 0l-24.234 24.234-24.234-24.234c-7.3125-7.3125-19.219-7.3125-26.531 0l-5.4844 5.4844zm0 101.53 18.75-18.75 24.234 24.234c7.3125 7.3125 19.219 7.3125 26.531 0l24.234-24.234 24.234 24.234c7.3125 7.3125 19.219 7.3125 26.531 0l24.234-24.234 24.234 24.234c7.3125 7.3125 19.219 7.3125 26.531 0l24.234-24.234 18.75 18.75v40.688l-5.4844-5.4844c-7.3125-7.3125-19.219-7.3125-26.531 0l-24.234 24.234-24.234-24.234c-7.3125-7.3125-19.219-7.3125-26.531 0l-24.234 24.234-24.234-24.234c-7.3125-7.3125-19.219-7.3125-26.531 0l-24.234 24.234-24.234-24.234c-7.3125-7.3125-19.219-7.3125-26.531 0l-5.4844 5.4844zm0 93.75 18.75-18.75 24.234 24.234c7.3125 7.3125 19.219 7.3125 26.531 0l24.234-24.234 24.234 24.234c7.3125 7.3125 19.219 7.3125 26.531 0l24.234-24.234 24.234 24.234c7.3125 7.3125 19.219 7.3125 26.531 0l24.234-24.234 18.75 18.75v59.438l-5.4844-5.4844c-7.3125-7.3125-19.219-7.3125-26.531 0l-24.234 24.234-24.234-24.234c-7.3125-7.3125-19.219-7.3125-26.531 0l-24.234 24.234-24.234-24.234c-7.3125-7.3125-19.219-7.3125-26.531 0l-24.234 24.234-24.234-24.234c-7.3125-7.3125-19.219-7.3125-26.531 0l-5.4844 5.4844zm0 112.5 18.75-18.75 24.234 24.234c7.3125 7.3125 19.219 7.3125 26.531 0l24.234-24.234 24.234 24.234c7.3125 7.3125 19.219 7.3125 26.531 0l24.234-24.234 24.234 24.234c7.3125 7.3125 19.219 7.3125 26.531 0l24.234-24.234 18.75 18.75v40.688l-5.4844-5.4844c-7.3125-7.3125-19.219-7.3125-26.531 0l-24.234 24.234-24.234-24.234c-7.3125-7.3125-19.219-7.3125-26.531 0l-24.234 24.234-24.234-24.234c-7.3125-7.3125-19.219-7.3125-26.531 0l-24.234 24.234-24.234-24.234c-7.3125-7.3125-19.219-7.3125-26.531 0l-5.4844 5.4844zm70.406 342-31.969-31.969c-24.797-24.797-38.438-57.75-38.438-92.812v-54.656c53.156 8.9531 93.75 55.266 93.75 110.91 0 25.219-8.1562 49.031-23.297 68.531zm26.625 26.625c21.891-26.672 34.219-60.422 34.219-95.156 0-76.359-57.375-139.5-131.26-148.78v-30.938l18.75-18.75 24.234 24.234c7.3125 7.3125 19.219 7.3125 26.531 0l24.234-24.234 24.234 24.234c7.3125 7.3125 19.219 7.3125 26.531 0l24.234-24.234 24.234 24.234c7.3125 7.3125 19.219 7.3125 26.531 0l24.234-24.234 18.75 18.75v61.359c0 4.9688 1.9688 9.75 5.4844 13.266l233.44 233.44-185.63 185.63-218.72-218.72zm427.03 241.4c-24.797 24.797-57.75 38.438-92.812 38.438-33.188 0-64.547-12.281-88.828-34.688l185.44-185.44c47.344 51.422 46.078 131.76-3.75 181.64z"/>
 <path d="m1075.6 761.9-250.6-250.6v-455.06c0-31.031-25.219-56.25-56.25-56.25h-225c-31.031 0-56.25 25.219-56.25 56.25v525c0 45.094 17.531 87.469 49.406 119.34l300 300c31.875 31.875 74.25 49.406 119.34 49.406 45.047 0 87.469-17.531 119.34-49.406 65.812-65.812 65.812-172.87 0-238.64zm-550.6-705.66c0-10.312 8.4375-18.75 18.75-18.75h225c10.312 0 18.75 8.4375 18.75 18.75v48.469l-5.4844-5.4844c-7.3125-7.3125-19.219-7.3125-26.531 0l-24.234 24.234-24.234-24.234c-7.3125-7.3125-19.219-7.3125-26.531 0l-24.234 24.234-24.234-24.234c-7.3125-7.3125-19.219-7.3125-26.531 0l-24.234 24.234-24.234-24.234c-7.3125-7.3125-19.219-7.3125-26.531 0l-5.4844 5.4844zm0 101.53 18.75-18.75 24.234 24.234c7.3125 7.3125 19.219 7.3125 26.531 0l24.234-24.234 24.234 24.234c7.3125 7.3125 19.219 7.3125 26.531 0l24.234-24.234 24.234 24.234c7.3125 7.3125 19.219 7.3125 26.531 0l24.234-24.234 18.75 18.75v40.688l-5.4844-5.4844c-7.3125-7.3125-19.219-7.3125-26.531 0l-24.234 24.234-24.234-24.234c-7.3125-7.3125-19.219-7.3125-26.531 0l-24.234 24.234-24.234-24.234c-7.3125-7.3125-19.219-7.3125-26.531 0l-24.234 24.234-24.234-24.234c-7.3125-7.3125-19.219-7.3125-26.531 0l-5.4844 5.4844zm0 93.75 18.75-18.75 24.234 24.234c7.3125 7.3125 19.219 7.3125 26.531 0l24.234-24.234 24.234 24.234c7.3125 7.3125 19.219 7.3125 26.531 0l24.234-24.234 24.234 24.234c7.3125 7.3125 19.219 7.3125 26.531 0l24.234-24.234 18.75 18.75v59.438l-5.4844-5.4844c-7.3125-7.3125-19.219-7.3125-26.531 0l-24.234 24.234-24.234-24.234c-7.3125-7.3125-19.219-7.3125-26.531 0l-24.234 24.234-24.234-24.234c-7.3125-7.3125-19.219-7.3125-26.531 0l-24.234 24.234-24.234-24.234c-7.3125-7.3125-19.219-7.3125-26.531 0l-5.4844 5.4844zm0 112.5 18.75-18.75 24.234 24.234c7.3125 7.3125 19.219 7.3125 26.531 0l24.234-24.234 24.234 24.234c7.3125 7.3125 19.219 7.3125 26.531 0l24.234-24.234 24.234 24.234c7.3125 7.3125 19.219 7.3125 26.531 0l24.234-24.234 18.75 18.75v40.688l-5.4844-5.4844c-7.3125-7.3125-19.219-7.3125-26.531 0l-24.234 24.234-24.234-24.234c-7.3125-7.3125-19.219-7.3125-26.531 0l-24.234 24.234-24.234-24.234c-7.3125-7.3125-19.219-7.3125-26.531 0l-24.234 24.234-24.234-24.234c-7.3125-7.3125-19.219-7.3125-26.531 0l-5.4844 5.4844zm70.406 342-31.969-31.969c-24.797-24.797-38.438-57.75-38.438-92.812v-54.656c53.156 8.9531 93.75 55.266 93.75 110.91 0 25.219-8.1562 49.031-23.297 68.531zm26.672 26.625c21.891-26.672 34.219-60.422 34.219-95.156 0-76.359-57.375-139.5-131.26-148.78v-30.938l18.75-18.75 24.234 24.234c7.3125 7.3125 19.219 7.3125 26.531 0l24.234-24.234 24.234 24.234c7.3125 7.3125 19.219 7.3125 26.531 0l24.234-24.234 24.234 24.234c7.3125 7.3125 19.219 7.3125 26.531 0l24.234-24.234 18.75 18.75v61.359c0 4.9688 1.9688 9.75 5.4844 13.266l233.44 233.44-185.63 185.63-218.72-218.72zm426.98 241.4c-24.797 24.797-57.75 38.438-92.812 38.438-33.188 0-64.547-12.281-88.828-34.688l185.44-185.44c47.344 51.422 46.078 131.76-3.75 181.64z"/>
</svg>
