<?xml version="1.0" encoding="UTF-8"?>
<svg width="1200pt" height="1200pt" version="1.1" viewBox="0 0 1200 1200" xmlns="http://www.w3.org/2000/svg">
 <path d="m797.05 313.28c52.375 62.441 141.19 168.33 206.61 246 20.84 24.773 41.613 58.148 63.613 93.48 7.1484 11.508 14.602 23.32 22.094 35.094-1.3594-3.7852-2.7188-7.4922-4.2656-10.746-9.4922-20.16-28.465-287.09-41.508-322.69-13.055-35.586-72.375-132.87-119.8-274.05-5.2812-15.668-28.48 0-36.785 10.68-8.3086 10.68-81.879 72.375-104.4 65.254-22.535-7.1211-42.707-18.973-35.602 0 6.5039 17.355 47.625 118.84 50.039 156.98z"/>
 <path d="m790.81 1047.5c-19.012-3.4141-33.066-13.055-41.934-28.652-18.785-33.254-7.625-85.625 0.30859-113.05-28.934 14.586-98.188 55.359-116.77 59.281 12.266 46.188 44.32 110.4 127.62 158.15 4.4141-3.4805 10.535-6.4414 18.945-8.3594 25.508-5.8008 61.105-38.719 81.547-61.238-3.2148 0.1875-6.5469 0.28125-10.066 0.28125-15.492-0.003906-34.586-1.8711-59.652-6.4062z"/>
 <path d="m1148 818.29s-32.027-11.867-35.574-33.215c-3.5859-21.359-16.613-26.105-14.238-40.332 0.41406-2.3984 0.49219-5.4258 0.44141-8.7344-16.691-23.84-32.492-49.133-47.453-73.188-21.613-34.719-41.973-67.559-61.973-91.281-62.215-73.801-145.57-173.2-198.65-236.52-2.4648-1.1055-6.293-4.5859-12.68-11.426-17.832-18.996-227.82-271.69-249.18-287.12-21.359-15.426-113.89 27.281-151.85 97.281-5.8945 10.895-17.801 37.961 0 53.387 17.785 15.426 110.33 124.57 121.01 143.56 10.68 18.973 43.895 61.691-10.68 10.68-54.586-51.012-189.83-198.12-204.07-198.12-14.199 0-90.148 60.508-113.88 116.27-8.375 19.68-21.359 27.281 0 41.52 21.375 14.238 163.69 145.91 177.95 167.27 14.227 21.359 43.895 51.012-5.9336 16.613-49.828-34.398-143.54-126.95-163.71-130.51-20.172-3.5586-90.16 65.254-93.707 87.785-3.5742 22.535 11.867 39.16 32.027 58.133 20.172 18.988 136.43 132.87 151.87 151.85 2.6523 3.2812 6.2812 6.5195 10.133 9.5352-1.2812-0.69141-2.332-1.2812-3.7461-2.0117-55.762-29.668-135.41-137.32-190.79-86.973-13.828 12.574-52.895 72.359-17.293 96.105 35.586 23.707 118.62 115.08 147.09 128.11 28.492 13.055 252.68 214.72 274.05 237.27 21.359 22.535 211.16 124.59 244.4 130.49 33.188 5.9336 32.012-2.375 23.707-15.387-1.8398-2.8945-2.8125-5.8398-3.1875-8.8125-114.88-65.453-139.65-163.19-144.76-209.25-2.7734-9.7617-5.2812-21.039-7.5469-33.441-20.078-109.17 36.895-163.61 60.602-174.4 60.281-27.293 163.83 29.172 172.39 33.945 51.441 22.066 142.44 64.16 217.23 114.55 27.707 1.5156 106.01-23.789 98-53.617zm-675.17-671.88c-8.293 0-15.012-6.7344-15.012-15.027 0-8.3086 6.7188-15.027 15.012-15.027 8.3203 0 15.055 6.7344 15.055 15.027-0.003906 8.3047-6.7344 15.027-15.055 15.027zm-218.04 114.51c-8.3086 0.69141-15.574-5.4414-16.254-13.719-0.70703-8.2656 5.4531-15.535 13.734-16.227 8.2656-0.69141 15.535 5.4531 16.215 13.719 0.70703 8.2656-5.4258 15.543-13.695 16.227zm49.32 50.613c-8.293 0.69141-15.559-5.4531-16.254-13.719-0.69141-8.2656 5.4531-15.535 13.746-16.227 8.2383-0.69141 15.52 5.4531 16.227 13.719 0.68359 8.2656-5.4492 15.531-13.719 16.227zm-179.01 358.02c-8.0781 2.0117-16.238-2.8789-18.238-10.934-2.0273-8.0547 2.8672-16.199 10.961-18.227 8.0391-1.9727 16.199 2.9219 18.199 10.934 2.0234 8.043-2.9102 16.215-10.922 18.227zm56.801 42.027c-8.0664 2.0273-16.238-2.8672-18.266-10.934-1.9883-8.0547 2.8945-16.199 10.973-18.199 8.0273-2 16.172 2.8945 18.199 10.922 2.0117 8.0508-2.8672 16.238-10.906 18.211zm-4.7461-248.07c-8.3086 0.69141-15.574-5.4414-16.266-13.719-0.70703-8.2656 5.4531-15.535 13.734-16.227 8.2656-0.69141 15.547 5.4531 16.227 13.719 0.70312 8.2656-5.457 15.547-13.695 16.227zm49.293 50.629c-8.293 0.69141-15.559-5.4531-16.266-13.734-0.67969-8.2656 5.4531-15.535 13.762-16.227 8.2539-0.69141 15.52 5.4531 16.215 13.719 0.6875 8.2656-5.4336 15.535-13.711 16.242zm51.934 51.184c-8.293 0.69141-15.559-5.4531-16.254-13.734-0.70703-8.2656 5.4414-15.535 13.734-16.227 8.2539-0.69141 15.52 5.4531 16.199 13.719 0.73047 8.2852-5.4023 15.551-13.68 16.242zm291.73-340.61c8.332 0 15.055 6.7188 15.055 15.027 0 8.293-6.7188 15.027-15.055 15.027-8.2812 0-15.012-6.7344-15.012-15.027 0-8.3047 6.7344-15.027 15.012-15.027zm-62.48-40.32c0-8.3086 6.7461-15.039 15.027-15.039 8.332 0 15.055 6.7344 15.055 15.039 0 8.293-6.7188 15.012-15.055 15.012-8.2773 0.003906-15.027-6.7188-15.027-15.012zm-100.04 197.02c8.2656-0.67969 15.535 5.4531 16.238 13.719 0.70703 8.2812-5.4531 15.547-13.707 16.238-8.3086 0.69141-15.559-5.4531-16.254-13.719-0.71484-8.2539 5.4297-15.531 13.723-16.238zm-51.559-18.68c-8.293 0.69141-15.559-5.4531-16.266-13.719-0.67969-8.2656 5.4531-15.535 13.762-16.227 8.2539-0.69141 15.52 5.4531 16.199 13.719 0.70312 8.2656-5.4414 15.531-13.695 16.227zm162 423.55c-23.734 22.52-30.238 26.172-72.215 3.5469-90.32-48.613-90.32-112.68-73.707-139.33 16.602-26.652 48.625-23.852 86.215 7.668 76.32 64.035 59.707 128.12 59.707 128.12zm65.254-138.8c-46.281 18.961-96.094-56.945-117.46-90.188-21.359-33.215 4.7344-77.121 53.387-84.227 48.641-7.1211 99.668 93.719 99.668 93.719 7.1172 27.281 10.676 61.695-35.59 80.695zm31.746-338.15c-8.2812 0-15.012-6.7344-15.012-15.027 0-8.3086 6.7344-15.039 15.012-15.039 8.3203 0 15.055 6.7344 15.055 15.039-0.003906 8.2969-6.7344 15.027-15.055 15.027zm150.95 230.16c-41.52 8.3086-73.586-45.078-103.21-78.309-29.691-33.227-7.1211-81.867 24.906-92.535 32.012-10.68 78.309 40.332 78.309 40.332 80.68 73.566 41.52 122.21 0 130.51zm100.88 115.41c-8.3086 0.70703-15.602-5.4258-16.293-13.719-0.71875-8.2656 5.4531-15.535 13.707-16.215 8.2812-0.70703 15.547 5.4414 16.254 13.691 0.70703 8.2812-5.4531 15.551-13.668 16.242zm43.082-73.227c-0.71875-8.2656 5.4258-15.535 13.734-16.227 8.2539-0.69141 15.52 5.4531 16.238 13.719 0.69141 8.2812-5.4531 15.547-13.719 16.238-8.2812 0.69531-15.547-5.4492-16.254-13.73zm23.84 136.16c-8.3086 0.70703-15.602-5.4141-16.281-13.691-0.71875-8.2812 5.4414-15.547 13.719-16.238 8.2656-0.70703 15.535 5.4531 16.227 13.719 0.71094 8.25-5.4375 15.531-13.664 16.211zm49.746 71.535c-8.3086 0.70703-15.602-5.4258-16.293-13.707-0.71875-8.2656 5.4531-15.535 13.707-16.227 8.2812-0.71875 15.547 5.4414 16.254 13.707 0.70703 8.25-5.4531 15.52-13.668 16.227zm0-119.41c-8.2812 0.69141-15.547-5.4531-16.293-13.734-0.67969-8.2539 5.4531-15.535 13.762-16.227 8.2266-0.70703 15.492 5.4531 16.199 13.719 0.70703 8.2539-5.4258 15.52-13.668 16.242zm48.68 75.227c-8.293 0.70703-15.574-5.4414-16.266-13.691-0.70703-8.2539 5.4414-15.574 13.719-16.254 8.2812-0.69141 15.547 5.4414 16.227 13.707 0.72266 8.2656-5.4258 15.531-13.68 16.238z"/>
 <path d="m845.31 783.55c-2.8945 28.574-40.281 64.48-49.707 81.012-12.734 22.426-16.922 20.188-23.012 30.535-2.375 6.4805-27.812 78.055-7.2148 114.45 5.9883 10.602 15.387 16.922 28.719 19.309 42.121 7.6016 84.188 3.2383 84.188 3.2383s13.641-5 25.266-19.227c20.16-7.1055 109.15-102.03 119.8-118.64 3.5352-5.4141 4.5352-10.027 5.2812-13.707-62.32-40.598-133.91-75.094-183.32-96.973zm-18.547 216.24c-18.652 0-33.785-15.133-33.785-33.785 0-18.668 15.133-33.812 33.785-33.812 18.668 0 33.812 15.148 33.812 33.812 0 18.668-15.148 33.785-33.812 33.785z"/>
</svg>
