<?xml version="1.0" encoding="UTF-8"?>
<svg width="1200pt" height="1200pt" version="1.1" viewBox="0 0 1200 1200" xmlns="http://www.w3.org/2000/svg">
 <path d="m1125 679.97c0-0.09375-0.046875-0.23438-0.046875-0.32812v-1.7812l-5.625-65.953h-0.046875c-0.98438-10.5-6.4688-20.016-15-26.156-14.578-11.344-31.875-4.875-48.656-1.875-43.875 6.9375-88.641 6.2812-132.32-2.0156l169.13-169.13v-0.046875c14.109-14.062 14.109-36.938 0-51.047l-25.547-25.547c-14.109-14.062-36.938-14.062-51.047 0l-169.5 169.45c-21.234 1.125-40.781 11.859-53.203 29.109-56.672-33.797-107.25-76.969-149.58-127.6-10.922-11.953-26.578-18.328-42.75-17.531-16.125 0.84375-31.078 8.8594-40.688 21.844-114.23 156.98-245.29 159.79-247.74 159.84l-122.02 8.2969h-0.046875c-33.281 2.0156-63.984 18.656-83.812 45.516-22.828 30.797-33.938 68.672-31.312 106.88-0.09375 44.859 36.422 66.328 73.031 87.141 91.172 53.203 210.37 61.031 317.16 52.359 83.016-7.3125 255.52-29.766 337.87-23.953l0.046875 0.046875c80.062 3.1875 160.26 0.89062 240-6.9375 46.359-4.3125 81.797-43.266 81.703-89.859 0.046875-0.32812-0.1875-70.453 0-70.734zm-83.625-318.32 25.547 25.547-153.74 153.71c-5.9531-10.734-14.812-19.547-25.5-25.594zm-164.72 190.13c13.734 14.156 13.547 36.75-0.375 50.672-13.969 13.969-36.562 14.156-50.719 0.42188-13.734-14.156-13.594-36.75 0.375-50.719s36.516-14.109 50.719-0.375zm-684.28 63.844 121.22-8.25c6.0469 0 150.05-2.0156 275.81-174.79l-0.046875-0.046875c3.0469-4.2188 7.875-6.8438 13.125-7.0781 5.3906-0.28125 10.594 1.8281 14.25 5.8125 45.891 54.938 101.06 101.39 163.03 137.26-3.8438 33.188 15.609 64.688 47.062 76.078 31.406 11.438 66.562-0.23438 84.938-28.172 56.625 11.531 115.08 11.109 171.56-1.2188l4.0781 47.109c-78.469 1.4062-232.5 8.8125-331.22 43.547-55.641 20.438-113.34 34.734-172.13 42.656-135.19 16.547-372.37 29.578-468-62.25 8.625-36.188 40.031-70.078 76.266-70.641zm847.45 189c-78.094 7.6406-156.56 9.9375-234.94 6.7969-40.547-2.0156-81.188-1.125-121.6 2.625l-221.44 21.516c-99.422 7.7812-211.36 1.5469-296.21-48.094-24.469-15.984-53.016-25.172-54.375-55.5 66.422 42.984 178.18 67.172 291.19 64.734 133.45-2.5781 234.47-10.125 365.68-56.719 94.266-33.188 244.5-40.219 320.72-41.531v52.266c0.046875 27.984-21.234 51.328-49.031 53.906z"/>
</svg>
