<?xml version="1.0" encoding="UTF-8"?>
<svg width="1200pt" height="1200pt" version="1.1" viewBox="0 0 1200 1200" xmlns="http://www.w3.org/2000/svg">
 <path d="m926.06 1106.3c57.094 0 108.84-23.156 146.26-60.609 37.406-37.453 60.609-89.156 60.609-146.26 0-57.141-23.156-108.84-60.609-146.26-37.453-37.453-89.156-60.609-146.26-60.609-57.141 0-108.84 23.156-146.26 60.609-6.4219 6.4219-12.469 13.312-18 20.578l-0.1875 0.23438c-26.578 34.828-42.375 78.281-42.375 125.48 0 57.141 23.156 108.84 60.609 146.26 37.453 37.406 89.156 60.609 146.26 60.609zm-452.58-376.55h253.03c4.5938-5.3438 9.3281-10.547 14.344-15.516 47.391-47.391 112.88-76.734 185.21-76.734 72.332 0 137.81 29.344 185.21 76.734 7.6875 7.6875 14.906 15.891 21.609 24.469v-226.03l-283.82-283.82c-21.141-21.141-31.688-48.844-31.688-76.594 0-27.703 10.547-55.5 31.688-76.594l0.09375 0.046875 4.0781-4.0781 1.4062-1.5469c21.141-21.094 48.891-31.688 76.594-31.688s55.453 10.547 76.594 31.688l148.45 148.45-0.09375 0.09375 0.09375 0.09375c10.406 10.406 18.281 22.125 23.672 35.062 5.3438 12.984 8.0625 26.812 8.0625 41.438v604.31c0 72.328-29.344 137.81-76.734 185.21-47.391 47.391-112.88 76.734-185.21 76.734-72.332 0-137.86-29.344-185.21-76.734-47.391-47.391-76.734-112.88-76.734-185.21 0-41.062 9.4688-79.969 26.297-114.61h-180.84c16.875 34.594 26.297 73.5 26.297 114.61 0 72.328-29.344 137.81-76.734 185.21-47.391 47.391-112.88 76.734-185.21 76.734-72.332 0-137.81-29.344-185.21-76.734-47.391-47.391-76.734-112.88-76.734-185.21v-604.31c0-14.625 2.7188-28.453 8.0625-41.438 5.3438-12.938 13.266-24.656 23.672-35.062l0.09375-0.09375-0.09375-0.09375 148.45-148.45c21.141-21.094 48.844-31.688 76.594-31.688 27.703 0 55.5 10.547 76.594 31.688l1.4062 1.5469 4.0781 4.0781 0.046875-0.046875c21.141 21.094 31.688 48.844 31.688 76.594 0 27.703-10.547 55.453-31.688 76.594l-283.82 283.82v226.03c6.7031-8.625 13.922-16.781 21.609-24.469 47.391-47.391 112.88-76.734 185.21-76.734 72.328 0 137.86 29.344 185.21 76.734 5.0156 4.9688 9.75 10.172 14.344 15.516zm-406.4-434.58v139.6l244.87-244.87c10.312-10.312 15.516-23.953 15.516-37.641 0-13.641-5.2031-27.281-15.516-37.641l0.09375-0.09375-4.125-4.0781-1.5-1.4062c-10.312-10.312-24-15.516-37.641-15.516s-27.281 5.2031-37.641 15.516l-148.45 148.45-0.09375-0.09375c-5.2969 5.3438-9.2344 11.062-11.719 17.156-2.5312 6.0938-3.7969 12.938-3.7969 20.578zm60.609 750.56c37.453 37.406 89.156 60.609 146.26 60.609 57.141 0 108.84-23.156 146.26-60.609 37.406-37.453 60.609-89.156 60.609-146.26 0-47.156-15.797-90.656-42.375-125.48l-0.1875-0.23438c-5.5312-7.2188-11.578-14.109-18-20.578-37.453-37.453-89.156-60.609-146.26-60.609-57.094 0-108.84 23.156-146.26 60.609-37.406 37.406-60.609 89.156-60.609 146.26 0 57.141 23.156 108.84 60.609 146.26zm1005.2-610.97v-139.6c0-7.6406-1.2656-14.484-3.7969-20.578s-6.4219-11.812-11.719-17.156l-0.09375 0.09375-148.45-148.45c-10.312-10.312-23.953-15.516-37.641-15.516-13.641 0-27.281 5.2031-37.641 15.516l-1.5 1.4062-4.125 4.0781 0.09375 0.09375c-10.312 10.312-15.516 24-15.516 37.641 0 13.641 5.2031 27.281 15.516 37.641l244.87 244.87z"/>
</svg>
