<?xml version="1.0" encoding="UTF-8"?>
<svg width="1200pt" height="1200pt" version="1.1" viewBox="0 0 1200 1200" xmlns="http://www.w3.org/2000/svg">
 <path d="m1109.4 458.21c-9.7969-7.125-22.406-9.1875-33.938-5.5312-186.1 59.484-259.6-19.312-282.56-55.922-10.594-16.641-32.156-22.406-49.688-13.312-27.891 11.109-336.24 184.87-359.34 178.26l-167.44 21.562c-59.766 7.8281-109.59 49.5-127.92 106.92l-12.656 39.984c0.046875 1.9219-0.75 3.7031-0.89062 5.6719l0.046875 46.969c0 21 17.016 38.016 38.062 38.016h626.11c21 0 38.016-17.016 38.016-38.016v-28.219h43.359c23.531 8.0625 43.125 24.797 54.844 46.781 6.7031 12.047 19.406 19.5 33.141 19.453h178.4c21.047 0 38.062-17.016 38.062-38.016v-293.95c-0.046875-12.094-5.8125-23.484-15.609-30.656zm-348.28-41.531c27.375 44.672 115.69 138.37 326.39 72.188v228.19l-206.11 0.046874-20.438-25.875c-39.188-49.453-98.812-78.375-161.9-78.562-61.312 0.23438-117.8-33.094-147.24-86.812zm-372.42 182.21c38.812-2.7188 95.484-38.859 129.94-55.734h-0.046875c17.625 32.484 43.688 59.578 75.469 78.422s68.062 28.734 105 28.594c52.828 0.1875 102.56 24.938 134.58 66.938h-495.14c-11.906-38.859-32.625-74.391-60.469-103.92zm-264.42 102.61c13.875-43.5 51.656-75.094 96.938-81l7.2656-0.9375c32.391 25.031 56.859 58.875 70.406 97.547h-179.53zm614.86 81.844-626.63-0.51563v-28.219h627zm169.03-0.14063h0.046875c-5.8125-10.312-12.797-19.922-20.766-28.594h199.82l-0.32812 28.781z"/>
 <path d="m725.02 512.95c10.219-0.23438 18.375-8.5312 18.375-18.75s-8.1562-18.562-18.375-18.75c-10.219 0.1875-18.375 8.5312-18.375 18.75s8.1562 18.516 18.375 18.75z"/>
 <path d="m651.56 542.34c10.219-0.23438 18.375-8.5312 18.375-18.75s-8.1562-18.562-18.375-18.75c-10.219 0.1875-18.375 8.5312-18.375 18.75s8.1562 18.516 18.375 18.75z"/>
</svg>
