<?xml version="1.0" encoding="UTF-8"?>
<svg width="1200pt" height="1200pt" version="1.1" viewBox="0 0 1200 1200" xmlns="http://www.w3.org/2000/svg">
 <path d="m86.805 759.27 18.512 58.68c0.95703 3.0469 2.8594 5.707 5.4336 7.5938 2.5742 1.8906 5.6836 2.9062 8.875 2.9062h65.055c3.1953 0.003906 6.3086-1.0117 8.8828-2.9023 2.5781-1.8867 4.4844-4.5508 5.4414-7.5977l17.191-54.781h28.5l18 54.961c0.98438 3.0039 2.8945 5.6172 5.4531 7.4688 2.5586 1.8555 5.6367 2.8516 8.7969 2.8516h65.055c3.2305 0.003906 6.3789-1.0391 8.9688-2.9688 2.5938-1.9297 4.4922-4.6445 5.418-7.7422l16.637-55.949c36.93-0.64453 64.184-1.3359 71.773-1.5 13.23 2.8047 79.828 16.5 170.37 26.039l15.195 56.145-0.003906 0.003906c0.86328 3.1758 2.75 5.9844 5.3633 7.9844 2.6172 2 5.8203 3.082 9.1133 3.0859h55.199c3.207 0 6.332-1.0312 8.9141-2.9375 2.582-1.9023 4.4844-4.5859 5.4258-7.6562l14.82-48.148c8.7812 0.35156 17.648 0.63672 26.609 0.85547l13.5 47.055c0.90625 3.125 2.8008 5.8711 5.3984 7.8242 2.6016 1.9531 5.7656 3.0078 9.0156 3.0078h55.336c3.3125 0 6.5273-1.0938 9.1523-3.1133 2.625-2.0195 4.5039-4.8477 5.3516-8.0469l12.84-48.586c5.7617-0.34375 11.535-0.69141 17.309-1.1406l13.621 40.906c0.99609 2.9844 2.9062 5.582 5.457 7.4219 2.5508 1.8438 5.6172 2.8359 8.7656 2.8359 0.67969 0 1.3633-0.042969 2.0391-0.13281l53.52-7.2891v-0.003906c2.8438-0.38672 5.5195-1.582 7.7031-3.4414 2.1875-1.8594 3.793-4.3086 4.6289-7.0586l14.879-48.27c4.125-0.83984 8.2031-1.7383 12.301-2.6406l12.238 35.82c1.0117 2.957 2.9219 5.5234 5.4648 7.3398 2.5391 1.8203 5.5859 2.7969 8.7109 2.8008 1.0781 0 2.1523-0.10938 3.2109-0.32812l53.82-11.699c2.6953-0.58984 5.1797-1.9102 7.1758-3.8164 1.9961-1.9102 3.4258-4.332 4.1328-7l15.676-59.07c9-4.1094 17.863-8.3984 26.398-13.066 16.785-10.848 28.68-27.812 33.152-47.293 2.6445-18.078-2.7812-36.406-14.836-50.129-13.48-16.59-32.145-28.164-52.996-32.867-222.5-58.918-437.93-141.91-642.45-247.5-3.5117-1.8242-7.6016-2.1914-11.383-1.0117-3.7773 1.1758-6.9375 3.8008-8.793 7.2969-0.71875 1.3789-74.113 137.34-184.14 149.48-62.113 6.7969-125.34-27-188.22-100.43-2.4258-2.832-5.8242-4.6562-9.5234-5.1211-3.6992-0.46484-7.4414 0.46484-10.492 2.6133-3.0508 2.1445-5.1953 5.3477-6.0078 8.9883-5.6562 25.605-54.512 252.42 0.43359 325.75 9.1992 12.695 23.109 21.172 38.609 23.52zm86.863 39.164h-43.047l-11.656-36.93c19.664 0.75 42.09 1.2148 65.852 1.5zm157.18 0h-43.016l-11.625-35.43c22.738-0.16406 44.91-0.42188 65.398-0.71875zm358.14 25.066h-32.641l-9.2539-34.125c16.5 1.5 33.586 2.7891 51.211 3.8398zm138.61 0h-32.504l-7.9336-27.496h3c14.863 0 29.879-0.25391 45-0.76562zm126.07-15.586-31.711 4.3203-7.5-22.5c15.68-1.6602 31.238-3.7148 46.68-6.1641zm121.14-26.414-31.801 6.9297-7.0508-20.625c15.84-4.2617 31.336-9 46.336-14.52zm-1003.6-336.24c63.449 66 128.77 95.699 194.28 88.5 105.36-11.699 177.29-115.32 199.82-152.36 23.852 12.219 47.496 23.926 70.934 35.113l-31.875 23.191c-3.957 3.2734-5.9648 8.3398-5.3203 13.434 0.64062 5.0977 3.8438 9.5078 8.4922 11.695 4.6445 2.1875 10.086 1.8438 14.422-0.90625l45.137-32.836c21.141 9.8398 41.996 19.273 62.566 28.305l-37.5 26.594-0.003906 0.003906c-4.3711 3.1055-6.75 8.3086-6.2461 13.645 0.50391 5.3359 3.8164 10 8.6914 12.23 4.875 2.2344 10.57 1.6953 14.941-1.4102l52.246-37.125c19.48 8.3086 38.613 16.266 57.406 23.863l-35.609 26.113-0.003906 0.003906c-3.207 2.3672-5.3398 5.9102-5.9336 9.8516s0.40234 7.957 2.7695 11.164c2.3672 3.207 5.9102 5.3398 9.8516 5.9336s7.957-0.40234 11.164-2.7695l50.762-37.23c19.621 7.6992 38.691 14.977 57.211 21.824l-33.949 27.406c-4.1758 3.3594-6.2461 8.6953-5.4219 13.992 0.82031 5.2969 4.4062 9.7539 9.4023 11.691 5 1.9375 10.652 1.0625 14.828-2.2969l48-38.656c140.76 50.625 241.08 76.172 259.32 80.672v-0.003906c14.348 3.1914 27.234 11.047 36.645 22.336 6.625 7.0938 9.8516 16.703 8.8516 26.355-2.9844 10.816-9.6562 20.25-18.855 26.672-230.52 126-674.46 31.352-678.91 30.375-1.0469-0.22266-2.1133-0.33594-3.1797-0.33203h-0.40625c-2.4883 0-250.16 6.5547-351.82 0-8.8203-0.51172-16.891-5.125-21.809-12.465-34.637-46.441-15.961-193-0.88672-272.58z"/>
</svg>
