<?xml version="1.0" encoding="UTF-8"?>
<svg width="1200pt" height="1200pt" version="1.1" viewBox="0 0 1200 1200" xmlns="http://www.w3.org/2000/svg">
 <path d="m848.36 620.49c-12.914 0-24.918 3.9727-34.875 10.762-17.902-31.004-51.02-52.156-89.309-52.156-34.234 0-62.09 27.859-62.09 62.09 0 34.234 27.859 62.09 62.09 62.09h20.695v-41.395h-20.695c-11.402 0-20.695-9.2734-20.695-20.695 0-11.426 9.293-20.695 20.695-20.695 34.234 0 62.09 27.859 62.09 62.09 0 20.863-8.4648 41.27-23.199 56.027l-47.457 47.457h-32.824l-37.98-50.625-33.758 50.625h-22.145l-33.758-50.625-37.938 50.625h-32.824l-47.457-47.457c-14.734-14.758-23.199-35.164-23.199-56.023 0-34.234 27.859-62.09 62.09-62.09 11.402 0 20.695 9.2734 20.695 20.695 0 11.426-9.293 20.695-20.695 20.695h-20.695v41.395h20.695c34.234 0 62.09-27.859 62.09-62.09 0-34.234-27.859-62.09-62.09-62.09-38.289 0-71.426 21.152-89.309 52.156-9.9531-6.7695-21.957-10.766-34.875-10.766-57.062 0-103.48 46.422-103.48 103.48s46.422 103.48 103.48 103.48h237.72l72.73 45.473v-45.473h186.27c57.062 0 103.48-46.422 103.48-103.48 0-57.059-46.422-103.48-103.48-103.48zm-558.82 103.48c0-34.234 27.859-62.09 62.09-62.09 11.402 0 20.695 9.2734 20.695 20.695 0 11.426-9.293 20.695-20.695 20.695l-20.695 0.003906v41.395h20.695c12.129 0 23.348-3.6211 32.906-9.6445 5.8359 12.086 13.535 23.285 23.117 32.848l18.191 18.191-74.215-0.003906c-34.23 0-62.09-27.836-62.09-62.09zm558.82 62.09h-74.219l18.191-18.191c9.5625-9.5625 17.281-20.758 23.117-32.848 9.5625 6.0234 20.801 9.6445 32.906 9.6445h20.695v-41.395h-20.695c-11.402 0-20.695-9.2734-20.695-20.695 0-11.426 9.293-20.695 20.695-20.695 34.234 0 62.09 27.859 62.09 62.09 0.003906 34.234-27.855 62.09-62.086 62.09z"/>
 <path d="m662.09 921.71-124.18-77.613v34.004l124.18 77.613z"/>
 <path d="m600 993.03c-57.062 0-103.48 46.422-103.48 103.48s46.422 103.48 103.48 103.48 103.48-46.422 103.48-103.48-46.422-103.48-103.48-103.48zm0 165.57c-34.234 0-62.09-27.859-62.09-62.09 0-34.234 27.859-62.09 62.09-62.09 34.234 0 62.09 27.859 62.09 62.09 0 34.234-27.855 62.09-62.09 62.09z"/>
 <path d="m620.7 1096.5c0 11.43-9.2656 20.695-20.695 20.695s-20.695-9.2656-20.695-20.695 9.2656-20.695 20.695-20.695 20.695 9.2656 20.695 20.695"/>
 <path d="m537.91 965.82c13.082-6.25 27.215-10.555 42.098-12.625l-42.098-26.305z"/>
 <path d="m578.68 635.12 0.62109-0.82812v-303.56h41.395v303.56l0.62109 0.82812c2.5859-43.672 32.164-79.785 72.398-92.309l-90.035-540.1c-0.60156-3.6211-6.7695-3.6211-7.3672 0l-90.012 540.08c40.234 12.543 69.789 48.66 72.379 92.328zm0.62109-428.57h41.395v82.789h-41.395z"/>
 <path d="m600 728.07 18.48-27.73-18.48-24.652-18.48 24.652z"/>
</svg>
