<?xml version="1.0" standalone="no"?>
<!DOCTYPE svg PUBLIC "-//W3C//DTD SVG 20010904//EN"
 "http://www.w3.org/TR/2001/REC-SVG-20010904/DTD/svg10.dtd">
<svg version="1.0" xmlns="http://www.w3.org/2000/svg"
 width="1536.000000pt" height="1009.000000pt" viewBox="0 0 1536.000000 1009.000000"
 preserveAspectRatio="xMidYMid meet">
<metadata>
Created by potrace 1.16, written by Peter Selinger 2001-2019
</metadata>
<g transform="translate(0.000000,1009.000000) scale(0.100000,-0.100000)"
fill="#000000" stroke="none">
<path d="M8240 10084 c-47 -2 -247 -11 -445 -20 -198 -8 -524 -19 -725 -24
-408 -10 -433 -13 -637 -85 -256 -90 -573 -282 -896 -540 -125 -100 -266 -175
-330 -175 -107 0 -374 -64 -587 -140 -105 -38 -116 -39 -337 -55 -125 -9 -244
-20 -263 -25 -19 -5 -177 -34 -350 -65 -462 -81 -473 -83 -620 -120 -241 -60
-656 -204 -632 -219 6 -3 57 -10 114 -15 57 -5 158 -21 225 -35 121 -25 299
-50 465 -64 l87 -7 -182 -99 c-600 -327 -1462 -849 -2197 -1331 -161 -106
-199 -136 -291 -232 -123 -128 -198 -236 -339 -493 -56 -102 -122 -217 -146
-257 -58 -94 -101 -188 -127 -282 -20 -73 -21 -100 -25 -684 -4 -695 -5 -685
72 -762 50 -50 85 -62 276 -96 188 -34 542 -38 825 -10 116 12 266 25 335 31
69 5 223 21 342 34 469 54 605 87 898 218 85 38 225 94 310 124 123 44 260
108 655 309 275 139 601 308 725 374 322 174 620 323 620 311 0 -16 -49 -109
-82 -158 -17 -24 -65 -81 -107 -125 -42 -45 -120 -138 -173 -208 -120 -154
-279 -311 -374 -367 -55 -33 -100 -74 -197 -180 -256 -279 -456 -541 -674
-881 -79 -123 -93 -152 -93 -187 0 -60 -35 -105 -195 -249 -168 -151 -206
-191 -301 -316 -148 -196 -257 -377 -430 -714 -118 -232 -136 -285 -114 -349
6 -19 27 -49 46 -65 20 -18 34 -40 34 -53 0 -17 -89 -112 -337 -359 -327 -325
-425 -416 -525 -488 -27 -19 -48 -39 -48 -44 0 -6 -11 -25 -25 -43 -45 -59
-28 -66 57 -23 21 11 58 22 83 26 l45 6 0 -46 c0 -75 13 -97 57 -97 21 0 65 7
98 14 38 9 65 11 77 5 48 -26 88 8 88 75 l0 39 59 -56 c55 -52 63 -57 105 -57
25 0 46 4 46 8 0 4 -27 34 -59 66 -67 66 -86 103 -76 143 3 15 49 70 101 123
52 53 94 101 94 107 0 19 37 43 66 43 51 0 126 46 230 141 54 50 110 96 124
103 46 24 96 28 133 10 l35 -17 93 49 c92 48 143 92 252 216 21 23 102 111
179 193 204 217 612 690 691 802 19 26 73 125 120 219 95 188 139 246 218 288
77 41 86 51 128 141 21 44 61 120 89 168 29 48 63 115 77 148 14 32 98 207
188 387 89 180 177 368 196 417 46 123 120 278 295 620 151 292 200 376 264
447 l35 39 56 -54 c53 -50 114 -99 217 -173 80 -59 284 -70 411 -22 50 18 75
38 173 138 63 65 133 127 155 138 23 11 74 23 119 27 107 10 195 55 295 150
97 93 293 233 337 241 75 14 110 -48 101 -178 -5 -73 -10 -88 -80 -226 -87
-172 -157 -328 -268 -600 -89 -220 -105 -290 -89 -400 21 -147 58 -213 205
-357 62 -60 124 -132 140 -158 32 -55 52 -145 95 -419 37 -235 92 -483 132
-596 43 -123 89 -207 169 -307 65 -81 69 -89 69 -136 0 -39 -6 -60 -29 -92
-47 -69 -59 -99 -85 -213 -79 -343 -46 -633 109 -959 54 -115 131 -218 188
-254 18 -11 52 -23 75 -27 67 -11 85 -75 36 -121 l-27 -25 6 -176 c6 -190 15
-254 52 -374 28 -89 22 -126 -23 -149 -44 -22 -82 -61 -82 -86 l0 -22 33 19
c39 23 138 35 182 22 17 -4 34 -17 39 -28 5 -12 19 -25 30 -30 15 -6 24 -24
31 -62 6 -30 21 -65 33 -79 21 -23 26 -24 85 -18 34 4 73 12 86 16 21 9 23 14
18 53 -4 24 -18 61 -32 81 -17 26 -25 51 -25 81 0 39 3 44 23 44 12 0 54 -12
92 -25 87 -31 95 -31 95 -1 0 26 -28 52 -110 98 -79 46 -100 76 -126 185 -29
121 -54 283 -54 354 0 30 12 122 26 204 36 205 44 493 19 685 -27 213 -121
574 -201 768 -23 55 -34 98 -34 131 0 48 1 50 36 61 56 19 69 58 68 210 -1
145 -19 256 -74 465 -86 329 -158 494 -272 622 -29 33 -55 77 -73 124 -16 41
-36 85 -45 99 -9 14 -26 49 -38 77 -26 65 -183 312 -198 312 -22 1 -64 43 -64
63 0 11 15 38 34 61 18 23 43 60 54 83 22 44 42 162 42 252 0 32 11 92 25 137
14 44 25 94 25 111 0 17 11 66 24 110 12 43 26 111 29 150 4 38 16 97 27 129
11 32 20 68 20 79 0 43 12 48 71 28 30 -11 92 -22 139 -25 47 -3 153 -17 235
-31 328 -54 523 -58 720 -16 201 43 363 37 387 -15 5 -11 29 -33 53 -47 31
-19 49 -40 64 -72 31 -72 67 -112 169 -188 52 -40 115 -89 139 -110 71 -61
118 -81 206 -86 62 -4 89 0 135 16 144 53 252 63 377 37 83 -18 111 -37 142
-95 l23 -43 -25 -41 c-129 -208 -151 -341 -99 -575 65 -292 183 -465 384 -565
95 -47 160 -86 176 -107 6 -8 25 -51 43 -95 44 -111 93 -154 175 -154 31 0 66
-24 66 -46 0 -6 13 -22 28 -37 l28 -27 54 55 54 55 181 0 181 0 27 -62 c15
-35 27 -69 27 -75 0 -7 3 -13 8 -13 11 0 138 131 151 157 24 47 5 119 -37 140
-9 4 -170 10 -357 13 l-340 5 -5 151 c-4 110 -9 156 -19 170 -38 49 -97 104
-113 104 -9 0 -29 11 -44 23 -27 23 -28 27 -40 203 -7 98 -19 247 -28 329 -8
83 -18 203 -21 267 -4 73 -12 121 -19 127 -7 6 -52 21 -100 34 l-88 23 -29 68
c-16 37 -29 74 -29 81 0 7 -9 15 -19 18 -11 2 -35 27 -55 54 -19 27 -52 58
-73 70 -94 53 -249 83 -426 83 -169 0 -279 39 -471 164 -77 50 -86 59 -104
108 -11 29 -23 87 -27 128 l-7 75 34 31 c24 24 45 33 80 37 70 7 146 48 242
132 47 41 93 75 103 75 12 0 26 -17 41 -51 17 -36 32 -53 52 -60 22 -8 32 -22
45 -62 84 -258 314 -482 618 -603 47 -18 71 -34 77 -49 5 -12 19 -25 32 -28
31 -8 145 -138 216 -245 54 -82 55 -86 63 -179 9 -106 26 -145 79 -180 58 -40
79 -33 187 66 115 106 184 150 250 159 44 7 51 12 93 69 25 34 77 115 115 179
40 67 103 152 148 201 82 91 137 174 320 489 196 336 199 340 305 338 37 0 88
-4 114 -9 55 -9 131 7 197 42 69 35 137 40 195 14 71 -31 121 -75 157 -139 19
-32 104 -131 198 -230 401 -422 875 -962 918 -1047 66 -130 165 -261 213 -281
14 -6 31 -18 39 -27 15 -19 51 -23 51 -6 0 6 12 25 26 42 25 29 26 36 22 113
l-4 81 -92 145 c-50 80 -94 152 -98 161 -3 8 -38 42 -78 75 -94 77 -285 291
-510 572 -244 306 -331 404 -493 559 -249 240 -292 261 -548 261 -146 0 -171
2 -205 20 -21 11 -41 23 -43 27 -3 5 13 60 34 123 21 63 39 116 39 118 0 2 33
38 73 80 40 42 163 178 273 302 242 271 247 276 321 309 l58 26 415 -1 c447 0
526 -7 690 -58 339 -107 504 -114 486 -23 -6 34 -56 87 -81 87 -8 0 -30 11
-50 24 -41 28 -51 30 -295 51 -373 32 -1220 49 -1235 25 -4 -6 -30 -22 -58
-36 -33 -17 -97 -71 -177 -150 -132 -130 -171 -154 -252 -154 -52 0 -105 26
-122 59 -10 19 -15 102 -19 301 -8 375 -19 422 -170 767 -75 170 -160 274
-260 321 -73 34 -347 130 -492 173 -263 78 -413 61 -589 -65 -75 -54 -266
-263 -323 -354 -56 -90 -92 -132 -112 -132 -46 0 -86 82 -218 445 -60 166
-232 403 -401 550 -311 274 -749 453 -1232 505 -101 11 -853 21 -1030 14z"/>
</g>
</svg>
