<?xml version="1.0" standalone="no"?>
<!DOCTYPE svg PUBLIC "-//W3C//DTD SVG 20010904//EN"
 "http://www.w3.org/TR/2001/REC-SVG-20010904/DTD/svg10.dtd">
<svg version="1.0" xmlns="http://www.w3.org/2000/svg"
 width="1536.000000pt" height="1484.000000pt" viewBox="0 0 1536.000000 1484.000000"
 preserveAspectRatio="xMidYMid meet">
<metadata>
Created by potrace 1.16, written by Peter Selinger 2001-2019
</metadata>
<g transform="translate(0.000000,1484.000000) scale(0.100000,-0.100000)"
fill="#000000" stroke="none">
<path d="M5286 14700 c45 -127 46 -134 31 -160 l-16 -27 135 -144 136 -143
166 -96 c92 -52 193 -112 225 -133 31 -20 59 -37 62 -37 2 0 5 12 7 26 3 25 4
24 63 -30 56 -52 58 -55 27 -45 -18 6 -35 10 -36 8 -2 -2 -13 -19 -24 -38 -18
-30 -19 -36 -6 -68 16 -38 12 -53 -15 -53 -26 0 -30 -8 -21 -41 7 -23 5 -29
-6 -29 -11 0 -7 -10 13 -37 l28 -36 -29 7 c-15 4 -41 10 -57 13 l-29 6 0 -62
c0 -50 4 -63 20 -73 19 -12 19 -13 -2 -35 -16 -17 -19 -30 -15 -57 5 -34 4
-36 -30 -42 l-36 -7 26 -19 c29 -21 27 -38 -4 -38 -25 0 -25 -3 17 -78 l35
-65 -31 7 c-30 6 -31 4 -26 -22 3 -15 8 -46 11 -69 4 -27 12 -43 21 -43 10 0
14 -12 14 -37 0 -21 3 -62 6 -90 l7 -53 -62 0 c-58 0 -61 -1 -61 -25 l0 -25
115 0 c63 0 115 -4 115 -9 0 -5 -52 -22 -116 -37 -105 -26 -138 -43 -120 -61
3 -3 49 -16 102 -27 52 -12 96 -25 97 -30 1 -6 -12 -13 -29 -18 -33 -8 -67
-38 -45 -38 7 0 9 -5 6 -10 -4 -6 -10 -8 -15 -5 -4 3 -10 -2 -14 -10 -3 -8
-15 -15 -26 -15 -11 0 -20 -4 -20 -10 0 -6 33 -10 80 -10 44 0 80 -4 80 -9 0
-5 -38 -11 -85 -12 -64 -3 -89 -8 -102 -21 -21 -22 -26 -22 127 -3 63 7 116
12 118 10 1 -1 -3 -14 -9 -29 -11 -23 -18 -26 -63 -26 -28 0 -59 -7 -69 -14
-18 -14 -17 -15 3 -21 17 -5 21 -13 17 -31 -5 -30 -3 -30 138 -4 127 23 118
22 111 11 -3 -5 -46 -19 -95 -31 l-88 -22 -12 -40 c-7 -22 -10 -42 -7 -45 3
-3 19 0 37 6 55 19 53 13 -17 -44 l-67 -55 69 5 c60 5 72 3 94 -14 14 -11 20
-21 13 -21 -6 0 -15 5 -18 10 -11 18 -41 11 -65 -15 l-23 -25 32 -45 c18 -25
29 -45 26 -45 -4 0 -25 13 -48 28 -70 47 -72 48 -47 6 l24 -39 -48 43 c-53 49
-66 49 -42 3 42 -81 39 -85 -21 -33 -63 55 -73 54 -73 -12 l0 -38 -55 47 c-30
25 -55 43 -55 39 0 -4 19 -36 41 -72 l42 -66 -39 31 c-22 17 -50 43 -64 58
-59 64 -138 74 -193 25 -33 -29 -36 -30 -73 -16 -72 25 -185 39 -267 32 -100
-8 -172 -24 -380 -81 -176 -48 -307 -75 -368 -75 l-36 0 13 -57 c18 -77 19
-73 -24 -73 -59 0 -139 -28 -175 -60 l-32 -29 33 -1 c42 0 41 -11 -5 -46 l-38
-29 85 -5 c92 -6 91 -9 -16 -39 -63 -19 -72 -24 -87 -57 -17 -35 -17 -36 3
-41 23 -6 25 -16 10 -44 -10 -18 -7 -19 50 -19 33 0 60 -3 60 -8 0 -6 -265
-169 -385 -236 -23 -14 -38 -37 -65 -104 -47 -117 -146 -288 -270 -466 l-102
-146 62 -100 c34 -55 65 -100 69 -100 11 0 171 165 171 176 0 7 -15 17 -32 25
-18 7 -35 14 -37 15 -7 5 125 160 218 256 51 54 133 125 181 158 106 72 156
127 235 255 127 207 226 241 389 135 169 -110 159 -111 252 15 72 96 87 110
182 172 73 47 126 91 181 150 l77 84 22 -70 c22 -66 24 -70 46 -61 20 7 25 4
35 -16 15 -34 15 -34 -16 -34 -27 -1 -27 -2 20 -43 26 -23 47 -45 47 -48 0 -4
-19 -4 -43 -2 -34 4 -46 1 -61 -16 -19 -21 -19 -21 7 -21 15 0 27 -3 27 -6 0
-3 -16 -34 -36 -69 l-35 -64 40 -12 c23 -7 41 -16 41 -20 0 -4 -18 -23 -40
-42 -35 -30 -39 -38 -34 -66 7 -34 21 -41 31 -14 5 13 8 12 15 -8 5 -13 5 -25
1 -27 -4 -1 -26 -11 -48 -21 l-40 -19 33 -1 c42 -1 40 -12 -5 -50 l-38 -30 93
-1 c90 0 113 -10 55 -25 -108 -26 -134 -37 -148 -65 -20 -39 -19 -50 6 -50 15
0 19 -4 15 -15 -3 -8 -9 -22 -12 -30 -5 -12 5 -15 56 -15 35 0 59 -4 55 -9 -3
-5 -35 -19 -71 -31 l-66 -22 41 -42 c23 -23 41 -45 41 -48 0 -4 -17 -8 -37
-10 l-38 -3 68 -38 c63 -37 85 -53 52 -41 -8 4 -27 -2 -43 -12 l-27 -18 29 -6
29 -5 -69 -67 c-197 -190 -472 -388 -819 -588 -88 -51 -238 -139 -332 -196
-95 -57 -176 -104 -179 -104 -4 0 -12 7 -18 15 -9 12 -45 7 -258 -38 -135 -29
-249 -55 -252 -58 -4 -3 3 -27 14 -53 11 -26 20 -49 20 -50 0 -1 -35 4 -77 11
-57 10 -92 10 -132 3 -124 -23 -166 -10 -230 72 -60 76 -136 130 -296 211
-123 62 -147 71 -195 71 -72 -1 -132 -18 -170 -50 -49 -42 -41 -58 26 -49 50
6 56 5 51 -9 -5 -14 3 -16 54 -16 54 0 60 -2 54 -17 -5 -10 -10 -45 -13 -79
-4 -59 -3 -61 32 -94 l36 -34 -22 -23 c-20 -22 -21 -23 -2 -23 10 1 55 9 99
20 44 10 82 16 85 14 3 -3 25 -55 50 -117 l45 -112 50 -6 c56 -7 109 -31 123
-55 9 -16 35 -14 165 12 25 5 27 3 27 -24 l0 -30 -127 -4 -128 -3 -395 -201
c-217 -111 -462 -238 -545 -284 -834 -463 -1405 -921 -1905 -1530 -85 -104
-124 -162 -170 -252 -71 -142 -78 -173 -56 -244 35 -112 139 -212 301 -290
114 -55 219 -82 354 -90 131 -8 260 5 551 56 308 54 333 57 515 70 362 25 468
59 729 230 77 50 163 101 193 111 29 11 57 28 62 37 9 15 17 14 98 -13 l88
-30 346 -3 c391 -4 343 -10 634 88 297 100 435 180 540 310 83 103 501 521
605 604 117 93 126 96 88 36 -26 -42 -30 -57 -26 -94 5 -40 2 -48 -24 -73 -58
-54 -131 -183 -114 -200 3 -4 17 4 31 17 l25 23 0 -61 c0 -52 -3 -62 -20 -67
-23 -7 -24 -11 -9 -55 14 -39 -3 -77 -55 -124 l-31 -28 27 6 27 6 -24 -42
c-29 -50 -32 -66 -8 -47 20 16 20 19 -26 -86 -26 -56 -40 -74 -71 -93 -56 -32
-108 -80 -126 -115 -17 -32 -13 -31 43 11 18 13 33 21 33 17 0 -4 -16 -33 -35
-65 -41 -67 -43 -77 -14 -82 20 -3 15 -12 -44 -83 -36 -44 -62 -81 -57 -83 5
-2 22 4 39 12 46 25 47 20 2 -29 -22 -24 -41 -54 -41 -65 0 -12 -4 -19 -10
-15 -6 4 -40 -79 -40 -101 0 -1 9 0 20 3 11 3 20 3 20 1 0 -2 -13 -44 -30 -92
-16 -48 -27 -93 -23 -101 3 -8 -2 -18 -11 -21 -29 -11 -19 -42 15 -46 l30 -3
-45 -53 c-25 -30 -46 -55 -46 -56 0 -2 11 -1 25 2 27 5 31 -7 19 -67 -4 -21
-12 -31 -25 -31 -31 0 -30 -17 1 -30 37 -15 37 -24 4 -62 -40 -48 -72 -120
-99 -220 -14 -50 -24 -93 -22 -94 1 -1 24 -11 50 -23 29 -12 47 -26 45 -33 -3
-9 15 -17 56 -25 112 -23 146 -70 146 -198 0 -44 -5 -107 -11 -140 -6 -33 -10
-145 -10 -249 1 -134 -3 -206 -14 -253 -21 -90 -19 -114 15 -195 29 -68 30
-75 30 -225 l0 -156 -43 -42 c-53 -53 -146 -85 -248 -85 -81 0 -113 12 -204
74 -134 91 -198 67 -197 -74 1 -187 78 -242 317 -224 61 4 151 8 200 9 65 0
99 5 122 18 19 10 54 17 88 17 53 0 57 2 115 55 l61 56 70 -3 71 -3 42 46 c73
82 203 445 210 587 2 40 9 79 15 85 6 6 11 35 11 64 0 29 6 70 14 90 8 21 17
70 20 110 5 79 22 121 62 152 27 21 134 65 141 57 2 -2 -16 -45 -41 -95 -25
-50 -46 -94 -46 -98 0 -4 17 9 38 28 44 42 78 68 70 54 -3 -5 -13 -35 -22 -65
l-16 -55 50 50 c27 27 50 43 50 35 -1 -8 -20 -141 -44 -295 -24 -154 -42 -281
-40 -283 1 -2 12 2 24 8 12 6 24 9 27 7 2 -3 -2 -46 -10 -96 -14 -92 -12 -100
24 -80 17 9 16 3 -10 -49 l-30 -59 25 -25 25 -25 -36 -27 c-40 -31 -38 -46 6
-46 22 0 32 7 42 26 l12 27 6 -24 c13 -45 9 -96 -11 -154 -14 -40 -17 -62 -10
-69 13 -13 13 -55 -1 -95 -6 -18 -9 -35 -6 -38 3 -3 30 15 60 41 l54 46 17
-62 c14 -51 16 -85 10 -207 -5 -119 -4 -162 10 -231 18 -88 46 -162 72 -191
21 -23 94 -282 83 -293 -15 -16 -10 -29 6 -16 17 14 16 17 43 -90 16 -66 21
-75 41 -74 22 1 23 -2 16 -51 -6 -52 -6 -52 38 -91 62 -55 109 -151 101 -204
-7 -40 -7 -40 20 -31 30 12 30 11 14 -24 -10 -22 -9 -28 10 -41 18 -12 22 -25
22 -64 l0 -49 35 15 c39 16 40 15 24 -20 -11 -24 -7 -30 85 -117 80 -76 96
-96 96 -121 0 -27 3 -30 24 -24 13 3 31 8 39 12 15 5 27 -32 27 -88 0 -29 0
-29 48 -22 46 6 48 5 64 -28 9 -21 29 -40 47 -48 20 -8 35 -24 43 -47 10 -28
35 -51 113 -106 83 -58 204 -148 238 -178 5 -3 13 -53 17 -110 10 -117 40
-616 40 -667 0 -26 4 -33 17 -30 12 2 26 30 45 88 28 84 28 87 22 266 -3 100
-2 243 2 318 l7 137 204 137 c113 75 214 142 225 149 30 17 173 160 220 221
45 57 55 63 60 30 4 -29 25 -34 33 -8 4 12 27 64 51 116 43 94 44 95 67 79 24
-15 24 -15 61 72 45 104 99 176 126 168 15 -5 28 21 86 179 61 166 71 185 92
188 21 2 30 15 52 73 15 39 31 69 37 68 17 -4 109 335 173 638 33 157 60 288
60 292 0 4 9 2 20 -5 10 -7 21 -10 24 -7 3 2 1 30 -3 62 -6 43 -5 57 5 57 19
0 62 57 74 98 6 20 13 65 17 99 5 58 7 62 28 57 21 -5 23 0 37 83 11 67 17 87
29 84 7 -2 22 -6 32 -8 14 -5 17 1 17 35 0 22 -7 59 -15 82 -18 50 -14 57 20
42 35 -16 35 -16 35 19 0 18 -11 45 -27 66 -27 35 -27 36 -5 24 13 -7 26 -11
28 -8 2 2 -2 44 -10 92 -9 58 -11 99 -5 119 17 59 59 286 59 320 0 19 6 41 14
48 23 24 29 103 10 135 -14 21 -7 17 29 -16 26 -25 49 -42 52 -40 3 3 -6 39
-20 79 -31 91 -31 92 1 79 15 -5 29 -7 32 -5 2 3 -3 26 -12 52 -20 59 -20 57
4 51 11 -3 20 -4 20 -4 0 1 -7 24 -15 51 l-15 50 30 -29 30 -29 0 37 c0 40 2
42 31 27 26 -15 24 -8 -16 62 -20 33 -34 63 -31 65 2 3 34 -12 70 -32 36 -20
66 -34 66 -30 0 4 -13 23 -30 42 -34 38 -37 58 -16 108 17 40 17 40 56 20 17
-9 30 -13 30 -10 0 2 -19 35 -41 72 -47 77 -58 99 -33 66 23 -32 35 -29 32 9
-3 28 1 34 20 36 25 4 28 25 7 62 -25 44 -18 52 22 25 21 -14 39 -21 41 -17 1
5 -4 48 -11 95 -14 84 -9 107 12 70 14 -24 13 -16 -4 41 -8 27 -13 51 -11 53
2 3 16 -12 31 -31 36 -47 50 -46 26 1 -10 21 -26 55 -34 75 l-15 37 39 -14
c21 -8 39 -11 39 -7 0 4 -23 45 -50 91 -28 46 -49 85 -48 87 2 1 25 -10 51
-27 54 -33 59 -35 51 -14 -4 8 -1 15 6 15 6 0 -4 22 -24 49 -52 70 -45 92 20
71 49 -17 53 -6 13 36 l-34 37 28 -7 27 -6 -31 55 c-22 39 -26 53 -15 49 25
-9 19 4 -19 49 -19 22 -34 42 -32 43 2 2 24 -3 50 -11 l47 -14 -15 28 c-26 51
-69 94 -113 113 -24 11 -42 22 -39 24 3 3 33 -2 68 -10 35 -8 65 -13 66 -12 1
1 -2 19 -8 40 -9 33 -18 41 -77 68 -37 17 -62 32 -55 35 13 5 114 -44 124 -59
4 -7 13 -7 25 0 16 9 11 14 -39 38 -31 16 -57 32 -57 37 0 5 30 5 68 2 l67 -7
-35 37 -35 37 33 -7 c46 -9 40 9 -8 24 -55 16 -60 31 -11 31 42 0 59 19 19 21
-13 0 -32 5 -43 10 -14 7 -3 8 38 5 31 -3 57 -1 57 3 0 4 -25 19 -56 34 -30
15 -53 31 -50 35 2 4 -17 20 -44 35 -39 22 -51 35 -63 72 -16 45 -16 45 8 45
18 0 36 -17 74 -72 37 -52 48 -74 38 -80 -7 -5 1 -8 21 -8 38 0 39 -3 -30 93
-26 37 -46 67 -44 67 2 0 23 -7 46 -15 71 -25 68 -17 -10 31 -41 25 -82 52
-90 60 -12 12 -12 14 3 14 9 0 66 -12 127 -26 60 -14 116 -24 122 -21 7 3 -40
30 -105 61 -65 31 -116 60 -113 65 3 4 48 14 101 21 116 15 129 35 18 28 -43
-3 -69 -3 -58 0 11 2 26 9 33 14 6 6 38 23 70 39 l57 28 -90 -5 c-49 -2 -127
-7 -172 -9 -46 -3 -83 -1 -83 3 0 9 164 21 280 22 l55 1 -40 34 -40 35 17 30
17 30 -75 0 c-86 0 -92 15 -9 22 30 3 58 7 61 10 3 4 -4 28 -15 54 -17 37 -19
49 -9 56 7 4 16 8 20 8 4 0 18 4 32 10 l25 9 -21 61 -22 60 21 22 22 21 5 -24
c16 -71 49 -352 77 -644 l31 -330 -17 -127 c-18 -127 -18 -127 4 -163 26 -44
26 -41 1 -48 -18 -5 -19 -8 -9 -30 8 -18 8 -30 -1 -47 -11 -21 -10 -22 6 -17
13 5 10 0 -8 -16 -25 -21 -26 -23 -11 -51 15 -29 15 -30 -13 -53 l-29 -23 29
0 c18 0 26 -4 23 -12 -3 -7 -21 -53 -40 -103 l-35 -90 29 -130 c23 -106 49
-319 49 -408 0 -14 5 -17 21 -12 19 6 20 4 13 -27 -12 -51 -6 -113 16 -194 12
-41 25 -100 30 -132 8 -46 16 -62 41 -84 l32 -27 -7 -80 c-7 -80 -7 -81 15
-79 21 3 24 -2 31 -57 13 -101 38 -203 54 -216 26 -22 64 -106 64 -143 0 -25
-7 -40 -22 -51 -22 -16 -19 -16 51 -13 l74 3 28 -130 c22 -99 28 -143 23 -186
-8 -74 17 -197 63 -314 91 -229 163 -314 223 -260 15 13 22 10 74 -34 67 -57
84 -64 186 -81 180 -28 222 -32 335 -28 193 8 235 41 243 194 4 73 2 84 -17
103 -29 29 -58 26 -121 -13 -124 -78 -129 -80 -220 -81 -75 0 -92 4 -145 30
-89 45 -100 69 -100 225 1 109 4 131 24 175 39 85 42 103 26 173 -10 40 -14
101 -13 158 3 90 -5 122 -22 95 -23 -37 -71 26 -76 101 -2 31 -15 74 -30 103
l-25 50 33 -32 c40 -39 44 -40 51 -12 5 17 9 19 26 10 11 -6 22 -11 26 -11 3
0 -32 45 -79 99 -48 55 -86 102 -86 106 0 3 24 -9 53 -28 28 -18 59 -37 67
-42 34 -20 -14 26 -106 101 -91 76 -113 101 -76 90 99 -29 134 -37 145 -33 6
3 2 6 -11 6 -24 1 -24 3 -6 56 4 10 -189 155 -206 155 -5 0 -14 9 -20 20 -8
15 -8 18 3 14 11 -4 13 2 9 23 l-5 27 26 -17 c14 -9 29 -17 32 -17 4 0 -27 41
-68 91 -72 88 -87 119 -87 180 0 30 -3 29 123 60 47 11 48 13 41 42 l-6 30 47
-27 c27 -14 50 -24 53 -21 3 3 0 29 -7 59 -14 65 -62 140 -107 169 -19 12 -34
26 -34 30 0 5 28 -12 63 -38 34 -25 70 -50 80 -56 9 -5 -36 66 -101 158 -149
211 -146 207 -83 153 95 -81 196 -161 215 -172 15 -8 13 -1 -10 41 -16 27 -39
56 -52 63 -43 22 -105 102 -180 227 -110 186 -83 181 41 -6 59 -89 112 -165
117 -168 5 -3 -24 52 -64 122 -41 70 -72 130 -70 132 2 2 34 -23 71 -55 37
-33 77 -66 87 -74 18 -14 19 -14 9 5 -6 11 -31 42 -55 70 l-43 50 43 -33 c23
-19 42 -31 42 -27 0 4 -27 37 -60 73 -33 37 -58 72 -56 79 3 6 -31 27 -81 49
-47 21 -81 40 -75 42 6 2 33 -8 61 -23 28 -14 51 -21 51 -15 0 6 -19 36 -41
66 -23 30 -40 57 -37 59 3 3 49 -43 103 -102 54 -60 108 -117 119 -128 19 -20
19 -20 4 5 -8 14 -34 57 -58 95 -23 39 -62 91 -86 117 -42 45 -59 72 -31 51
50 -40 167 -123 173 -123 3 0 -58 68 -136 150 -78 83 -140 150 -136 150 3 0
63 -47 133 -104 73 -60 130 -100 134 -94 4 5 56 -31 121 -85 361 -296 629
-430 943 -468 104 -13 239 -7 308 15 98 30 158 94 173 184 4 23 10 42 14 42 5
0 23 -26 40 -58 67 -118 260 -286 445 -387 39 -21 108 -60 155 -86 74 -42 107
-54 245 -85 110 -25 210 -55 320 -99 241 -95 233 -94 605 -80 215 7 229 7 315
-15 116 -29 142 -28 342 15 326 70 536 126 596 158 63 33 107 91 107 141 0 32
-85 254 -149 391 -26 55 -78 145 -116 200 -37 54 -77 119 -88 144 -11 24 -32
55 -47 68 -16 13 -60 69 -98 126 -164 238 -479 578 -732 787 -383 317 -1193
857 -1855 1235 -170 97 -328 190 -350 205 -45 31 -115 104 -115 120 0 12 -12
15 103 -19 l97 -29 0 29 c0 33 1 33 89 15 l64 -14 29 28 c20 20 46 33 86 40
l58 12 34 95 c19 52 37 96 40 98 4 2 41 -5 84 -16 78 -20 100 -19 78 3 -20 20
-14 32 27 57 l39 24 -24 62 -23 63 50 6 c35 5 49 11 49 22 0 14 9 15 58 10
l57 -6 -38 34 c-83 75 -180 68 -357 -25 -123 -64 -204 -127 -242 -190 l-31
-49 -168 0 -167 0 14 47 c10 33 11 49 3 53 -6 4 -43 10 -82 14 -40 3 -128 18
-197 31 -69 14 -183 30 -255 35 -155 11 -184 18 -258 68 -187 124 -849 653
-991 791 -48 47 -108 113 -133 146 -44 59 -45 60 -21 66 21 6 20 7 -7 8 -36 2
-48 9 -64 38 -17 32 -15 33 30 18 46 -16 43 -22 23 53 -6 21 -4 22 55 22 45 0
61 4 61 14 0 17 -31 26 -89 26 -57 0 -49 8 19 17 l55 8 -48 30 c-26 17 -47 33
-47 37 0 4 19 8 43 10 l42 3 -62 35 c-35 19 -63 39 -63 44 0 5 23 6 53 2 36
-5 47 -3 37 4 -8 5 -37 10 -65 11 -84 1 -95 12 -31 32 61 20 61 19 46 48 -10
17 -7 19 35 19 25 0 45 3 45 8 0 4 -16 17 -35 29 -61 40 -88 102 -47 112 33 8
31 25 -4 32 -29 5 -31 10 -19 40 5 14 -6 19 -59 30 -36 7 -66 17 -66 21 0 5
23 42 50 83 49 73 51 87 8 64 -11 -6 -22 -9 -24 -6 -4 4 131 107 141 107 3 0
0 -11 -7 -25 -13 -29 -8 -37 57 -84 l46 -33 -15 37 c-22 52 -20 61 8 29 l23
-28 12 22 c15 27 25 28 63 1 19 -14 32 -18 37 -11 4 6 71 -16 180 -59 l173
-69 122 6 121 7 150 -142 c83 -78 151 -147 153 -154 1 -7 -9 -39 -23 -70 -14
-32 -25 -60 -25 -62 0 -11 149 -4 205 10 33 8 78 14 100 15 46 0 68 -19 163
-141 73 -94 172 -184 226 -204 47 -18 50 -23 60 -90 14 -90 15 -92 59 -111 67
-29 68 -31 41 -71 -16 -24 -24 -50 -24 -77 0 -51 34 -129 54 -124 8 2 66 66
130 143 l116 140 -47 7 c-60 9 -86 29 -151 114 -74 98 -98 152 -127 294 -36
175 -108 320 -174 355 -16 8 -31 26 -35 39 -4 16 -23 35 -54 53 -26 15 -69 44
-97 64 -68 50 -108 69 -145 69 -16 0 -30 2 -30 5 0 2 10 25 22 50 l22 45 -40
34 c-21 20 -55 38 -74 41 -56 10 -60 13 -60 42 0 15 -5 35 -11 43 -9 13 -10
12 -5 -2 7 -24 -1 -23 -70 8 -76 33 -101 57 -130 124 -29 64 -50 90 -75 90
-12 0 -21 11 -27 33 -7 30 -14 34 -107 65 -123 41 -244 59 -449 68 -144 6
-158 9 -172 28 -13 19 -27 22 -137 27 -67 3 -147 1 -177 -4 -38 -6 -77 -5
-125 3 -107 18 -105 17 -95 49 l8 28 -67 7 c-36 3 -90 6 -118 6 -29 0 -53 4
-53 9 0 19 79 79 114 85 20 4 34 11 31 16 -3 4 -40 27 -83 50 -85 46 -232 148
-232 162 0 10 -5 11 60 -7 30 -8 56 -12 59 -10 2 3 -10 23 -28 45 -17 22 -28
40 -24 40 4 0 42 -9 83 -20 86 -23 93 -23 85 -11 -3 5 -28 17 -55 26 -89 30
-73 39 54 31 102 -7 116 -6 116 8 0 12 -11 16 -47 16 -48 0 -111 24 -148 55
-19 16 -19 16 11 11 28 -4 164 31 181 47 3 4 -21 7 -55 7 -33 0 -63 3 -65 8
-3 4 -8 26 -12 48 -6 42 -6 42 32 54 56 18 59 25 30 68 l-25 39 26 -5 c24 -5
25 -3 14 11 -11 13 -10 16 6 21 18 6 18 11 6 89 -6 46 -15 132 -19 193 l-6
109 -102 217 -102 217 -40 3 -40 3 -14 77 c-12 74 -14 77 -35 67 -11 -6 1 11
27 36 48 47 49 47 63 26 24 -34 53 -26 103 28 35 37 73 62 161 104 147 70 189
102 241 179 24 35 76 95 117 133 l73 70 9 70 c5 39 22 99 38 135 52 116 48
129 -26 91 -52 -27 -77 -52 -164 -167 -85 -112 -111 -137 -194 -185 -31 -17
-73 -49 -93 -70 -29 -32 -43 -39 -73 -39 -56 0 -136 -34 -229 -97 -46 -31
-122 -78 -169 -105 -47 -27 -91 -57 -97 -65 -12 -15 -17 -12 -47 23 -42 49
-135 93 -212 101 -51 5 -56 8 -61 35 -4 22 -10 27 -22 22 -45 -18 -49 -16 -78
35 l-29 50 -21 -20 -20 -21 -7 44 c-8 47 -30 88 -47 88 -7 0 -9 -11 -5 -30 3
-16 4 -30 1 -30 -2 0 -18 25 -35 55 -28 49 -34 54 -59 49 -20 -4 -30 -1 -34
10 -4 9 -27 25 -52 36 -25 11 -67 36 -93 56 -68 52 -235 130 -319 148 -94 21
-394 39 -503 31 -179 -14 -268 -46 -360 -130 -41 -38 -91 -70 -153 -99 -62
-29 -103 -55 -126 -81 -38 -44 -87 -145 -121 -252 -23 -70 -24 -71 -62 -77
-37 -6 -48 0 -215 110 -132 86 -199 124 -267 148 -51 19 -143 65 -209 106
-100 61 -144 98 -292 242 l-175 171 46 -133z m3928 -2397 c90 -50 84 -62 -9
-16 -41 21 -75 41 -75 45 0 14 16 9 84 -29z m-2989 -2 c-6 -5 -21 -12 -35 -15
l-25 -7 25 15 c28 17 50 21 35 7z m2891 -42 c19 -22 19 -22 -3 -10 -13 6 -23
16 -23 21 0 15 5 12 26 -11z m187 -58 c4 -4 -2 -20 -13 -34 -16 -20 -31 -27
-55 -27 -32 0 -34 2 -25 24 7 20 5 27 -13 39 -19 13 -16 14 38 9 33 -2 64 -7
68 -11z m-3067 -49 c-25 -25 -28 -25 -37 -10 -15 27 -12 33 23 38 45 8 47 4
14 -28z m2829 0 c-3 -3 -11 0 -18 7 -9 10 -8 11 6 5 10 -3 15 -9 12 -12z
m-2875 -117 c0 -8 -7 -15 -15 -15 -8 0 -15 7 -15 15 0 8 7 15 15 15 8 0 15 -7
15 -15z m3264 -20 c-18 -27 -65 -59 -104 -70 -14 -4 5 15 45 44 38 28 71 51
72 51 2 0 -4 -11 -13 -25z m-104 5 c-8 -5 -24 -9 -35 -9 l-20 0 20 9 c11 5 27
9 35 9 13 1 13 0 0 -9z m-3095 -11 c11 -17 -1 -21 -15 -4 -8 9 -8 15 -2 15 6
0 14 -5 17 -11z m-185 -196 c0 -10 -6 -10 -27 -1 -75 32 -115 83 -98 125 5 15
17 6 65 -47 33 -36 59 -71 60 -77z m3680 -250 c6 -5 -33 -35 -82 -63 l-38 -21
0 29 c0 31 22 57 55 65 19 4 55 -1 65 -10z m38 -75 l47 -12 -40 -12 c-62 -19
-75 -17 -75 11 0 29 4 29 68 13z m-4238 -192 c0 -2 -7 -9 -15 -16 -12 -10 -15
-10 -15 4 0 9 7 16 15 16 8 0 15 -2 15 -4z m4270 -276 c0 -5 -4 -10 -10 -10
-5 0 -10 5 -10 10 0 6 5 10 10 10 6 0 10 -4 10 -10z m-6180 -1776 c0 -8 -4
-12 -10 -9 -5 3 -10 10 -10 16 0 5 5 9 10 9 6 0 10 -7 10 -16z m5930 -220 c0
-14 -3 -14 -15 -4 -8 7 -15 14 -15 16 0 2 7 4 15 4 8 0 15 -7 15 -16z m-5990
-54 c0 -18 -6 -20 -72 -19 l-73 1 60 18 c78 24 85 24 85 0z m5764 -1 c31 -12
53 -25 51 -29 -3 -5 18 -11 45 -15 43 -6 53 -12 66 -37 13 -26 20 -29 45 -24
31 6 32 5 43 -46 8 -37 -8 -36 -24 2 -7 17 -17 30 -22 30 -5 0 3 -22 19 -49
15 -27 31 -47 36 -44 6 4 7 -17 3 -50 -7 -55 -7 -55 22 -62 27 -5 31 -13 45
-67 l15 -60 -29 4 c-26 4 -28 2 -23 -19 5 -20 2 -23 -20 -23 -19 0 -26 5 -26
20 0 13 -7 20 -19 20 -16 0 -17 5 -11 40 6 34 5 40 -9 40 -10 0 -22 -5 -27
-10 -7 -7 -21 -7 -42 1 -26 9 -32 16 -32 39 0 16 -4 32 -10 35 -5 3 -10 1 -10
-5 0 -20 -49 -60 -75 -60 -30 0 -31 9 -5 59 17 34 18 40 4 45 -32 12 -50 5
-70 -30 l-21 -37 -31 56 c-18 31 -44 63 -59 71 -20 11 -23 15 -10 16 9 0 17 6
17 13 0 6 8 2 18 -10 14 -18 31 -22 107 -28 84 -6 89 -5 70 10 -50 41 -98 57
-152 53 -44 -4 -56 -2 -64 13 -5 10 -9 22 -9 27 0 5 61 -8 135 -28 96 -27 143
-36 162 -31 l28 8 -35 15 c-19 8 -63 26 -97 39 -68 26 -68 26 -54 62 8 20 15
24 38 21 21 -3 18 0 -14 13 -24 9 -43 21 -43 25 0 12 13 10 74 -13z m-2894
-362 c0 -2 -9 -12 -19 -21 -19 -17 -19 -17 -14 3 3 12 12 21 19 21 8 0 14 -2
14 -3z m-307 -37 c-6 -24 0 -25 33 -4 35 23 39 12 9 -24 -30 -36 -32 -46 -6
-32 44 23 31 7 -28 -34 -78 -55 -77 -54 -45 -48 19 3 25 1 20 -7 -4 -6 -14
-11 -23 -11 -11 0 -14 -6 -9 -22 3 -13 6 -28 6 -34 0 -6 19 -17 43 -25 l42
-14 -75 -5 c-76 -6 -77 -12 -5 -30 34 -8 29 -9 -32 -4 -59 4 -73 2 -73 -9 0
-16 48 -27 118 -27 23 0 42 -4 42 -10 0 -6 -34 -10 -81 -10 l-81 0 23 -21 c37
-32 -2 -9 -59 36 -45 34 -52 44 -47 67 3 21 1 26 -10 23 -8 -3 -22 -7 -30 -10
-12 -3 -8 -16 21 -61 20 -30 34 -57 32 -59 -2 -3 -25 2 -51 10 -46 14 -46 14
-67 -15 -25 -35 -25 -36 0 -43 16 -4 20 -14 20 -45 0 -35 -4 -43 -35 -62 -46
-28 -44 -32 7 -14 52 18 60 11 17 -15 -43 -26 -115 -27 -187 -2 l-53 18 33
-28 33 -27 -32 -34 c-18 -19 -33 -37 -33 -41 0 -4 15 -13 33 -20 31 -13 33
-17 29 -56 -2 -22 -7 -41 -11 -41 -3 0 -18 18 -32 40 -23 36 -157 145 -167
136 -2 -2 17 -45 42 -95 25 -50 46 -93 46 -97 0 -3 -22 13 -49 35 -38 32 -48
37 -44 21 5 -18 2 -18 -56 7 -59 26 -61 26 -81 8 -20 -18 -20 -18 -6 16 103
245 169 375 226 447 35 42 67 89 72 105 7 20 17 27 35 27 21 0 25 4 21 24 -5
24 -3 24 76 31 115 9 264 41 354 74 42 16 78 30 79 30 0 1 -1 -8 -4 -19z m161
-89 c-21 -33 -33 -41 -57 -41 -17 0 -28 2 -26 4 20 20 105 84 107 81 2 -2 -9
-22 -24 -44z m23 -27 c-3 -3 -12 -4 -19 -1 -8 3 -5 6 6 6 11 1 17 -2 13 -5z
m-49 -61 c-10 -2 -26 -2 -35 0 -10 3 -2 5 17 5 19 0 27 -2 18 -5z m3392 -8 c0
-2 -5 -16 -12 -30 -12 -27 -34 -36 -24 -9 3 9 6 22 6 30 0 8 7 14 15 14 8 0
15 -2 15 -5z m63 -19 c-21 -28 -28 -26 -18 3 3 12 13 21 21 21 12 0 12 -4 -3
-24z m-3496 -172 c-3 -3 -12 -4 -19 -1 -8 3 -5 6 6 6 11 1 17 -2 13 -5z m-334
-111 c-7 -2 -19 -2 -25 0 -7 3 -2 5 12 5 14 0 19 -2 13 -5z m-70 -110 c-7 -2
-21 -2 -30 0 -10 3 -4 5 12 5 17 0 24 -2 18 -5z m-72 -88 c-1 -6 -13 -13 -27
-17 -20 -5 -24 -4 -20 8 3 9 6 20 6 24 0 5 9 6 21 2 11 -5 20 -12 20 -17z
m-86 5 c3 -5 -1 -10 -9 -10 -8 0 -18 5 -21 10 -3 6 1 10 9 10 8 0 18 -4 21
-10z m122 -56 c-3 -3 -12 -4 -19 -1 -8 3 -5 6 6 6 11 1 17 -2 13 -5z m-467
-43 c0 -5 -11 -12 -25 -15 -25 -6 -35 -26 -13 -26 6 0 9 -2 6 -5 -3 -4 -18 -3
-33 1 l-28 7 44 23 c52 27 49 26 49 15z m-60 -126 l25 -14 -25 -1 c-14 0 -36
3 -49 7 -23 6 -23 7 -5 14 26 10 26 10 54 -6z m4360 -275 c0 -5 -17 -9 -37 -9
l-38 2 35 7 c19 4 36 8 38 9 1 0 2 -3 2 -9z m60 -50 c0 -5 -12 -10 -27 -10
-22 0 -25 2 -13 10 20 13 40 13 40 0z m-3992 -51 c79 -18 80 -19 59 -34 -17
-12 -16 -14 12 -20 58 -13 31 -23 -76 -30 -149 -8 -147 -8 -151 -25 -2 -12 19
-19 99 -33 57 -9 105 -20 108 -23 15 -15 -72 -74 -141 -96 -40 -12 -65 -24
-56 -26 9 -2 40 4 69 12 60 18 107 20 129 6 12 -8 5 -20 -42 -65 -42 -41 -50
-53 -33 -49 18 4 28 -1 47 -26 12 -17 22 -35 21 -38 -1 -4 -24 -12 -50 -18
-26 -6 -38 -12 -25 -13 41 -2 22 -19 -35 -32 -77 -16 -95 -34 -25 -25 56 7 73
-7 21 -18 -32 -6 -31 -26 2 -26 33 0 25 -50 -13 -83 -31 -27 -32 -28 -8 -22
14 3 4 -6 -22 -20 -54 -29 -61 -45 -21 -45 l27 0 -40 -42 c-22 -24 -49 -54
-59 -67 l-20 -24 35 6 c19 3 51 9 70 13 l35 7 -50 -53 c-48 -50 -49 -52 -30
-65 64 -44 62 -40 26 -70 -22 -19 -29 -30 -21 -35 9 -6 9 -13 1 -29 -14 -25
-12 -25 57 -7 28 8 52 10 52 6 0 -5 -15 -11 -32 -15 -101 -21 -108 -24 -108
-56 0 -24 3 -30 16 -25 62 24 67 19 20 -24 -25 -24 -44 -45 -42 -47 3 -3 21 0
41 7 45 15 51 10 26 -22 l-20 -25 24 5 c34 6 32 -2 -15 -58 -22 -26 -40 -51
-40 -54 0 -3 14 -6 30 -6 17 0 30 -4 30 -9 0 -5 -15 -46 -34 -90 l-34 -81 31
0 c28 0 36 7 61 53 45 80 42 39 -3 -57 -23 -47 -41 -88 -41 -91 0 -4 -27 -69
-60 -147 -33 -77 -60 -142 -60 -145 0 -2 14 -2 30 2 36 8 37 3 6 -38 -13 -18
-29 -52 -36 -77 -6 -25 -13 -53 -16 -62 -5 -16 -2 -16 28 -4 82 34 86 31 34
-23 -49 -49 -49 -51 -26 -59 l23 -9 -30 -21 c-28 -20 -30 -25 -26 -69 4 -39 1
-53 -17 -75 -12 -16 -24 -28 -28 -28 -4 0 -8 42 -9 93 -4 121 -23 231 -82 462
-82 319 -118 588 -108 800 6 120 25 219 92 500 28 119 37 178 41 285 3 74 10
152 15 173 9 32 13 37 30 32 33 -11 64 2 121 51 85 74 123 85 216 63z m-548
-53 c0 -3 -4 -8 -10 -11 -5 -3 -10 -1 -10 4 0 6 5 11 10 11 6 0 10 -2 10 -4z
m4333 -33 c-7 -2 -21 -2 -30 0 -10 3 -4 5 12 5 17 0 24 -2 18 -5z m-17 -154
c19 -22 19 -22 -3 -10 -13 6 -23 16 -23 21 0 15 5 12 26 -11z m-3596 -49 c0
-5 -5 -10 -11 -10 -5 0 -7 5 -4 10 3 6 8 10 11 10 2 0 4 -4 4 -10z m-60 -40
c0 -5 -4 -10 -10 -10 -5 0 -10 5 -10 10 0 6 5 10 10 10 6 0 10 -4 10 -10z
m3670 -26 c0 -14 -3 -14 -15 -4 -8 7 -15 14 -15 16 0 2 7 4 15 4 8 0 15 -7 15
-16z m-3670 -24 c0 -5 -14 -7 -32 -3 -46 8 -48 13 -5 13 21 0 37 -4 37 -10z
m47 -42 c-3 -13 -13 -62 -23 -110 -10 -49 -22 -88 -27 -88 -5 0 -6 12 -3 26 7
25 25 157 26 182 0 6 7 12 16 12 12 0 15 -6 11 -22z m4684 -263 c50 -59 72
-91 54 -78 -35 25 -115 107 -139 143 -16 25 -23 62 -8 45 5 -6 47 -55 93 -110z
m-4741 15 c0 -5 -5 -10 -11 -10 -5 0 -7 5 -4 10 3 6 8 10 11 10 2 0 4 -4 4
-10z m4595 -140 c3 -5 1 -10 -4 -10 -6 0 -11 5 -11 10 0 6 2 10 4 10 3 0 8 -4
11 -10z m-5603 -140 c2 -20 -5 -29 -36 -48 -21 -12 -40 -21 -42 -20 -1 2 12
27 29 55 32 54 43 57 49 13z m4725 -2 c-3 -8 -6 -5 -6 6 -1 11 2 17 5 13 3 -3
4 -12 1 -19z m908 -28 c3 -5 1 -10 -4 -10 -6 0 -11 5 -11 10 0 6 2 10 4 10 3
0 8 -4 11 -10z m36 -37 c13 -15 12 -15 -8 -4 -24 12 -29 21 -14 21 5 0 15 -7
22 -17z m-851 -122 c0 -5 -9 -7 -20 -4 -11 3 -20 7 -20 9 0 2 9 4 20 4 11 0
20 -4 20 -9z m840 -76 c0 -8 -7 -15 -15 -15 -8 0 -15 7 -15 15 0 8 7 15 15 15
8 0 15 -7 15 -15z m-5767 -67 c-54 -78 -59 -80 -24 -10 17 34 38 62 46 62 10
0 4 -16 -22 -52z m5767 -60 c0 -12 -1 -19 -3 -17 -1 2 -9 12 -16 22 -12 14
-11 17 3 17 10 0 16 -8 16 -22z m-5747 -54 c-23 -51 -22 -49 -35 -36 -8 8 -14
8 -22 -3 -6 -7 -20 -15 -31 -17 -16 -2 -20 3 -20 26 0 25 6 30 60 51 33 12 61
21 63 20 2 -1 -5 -20 -15 -41z m927 31 c0 -2 -10 -10 -22 -16 -21 -11 -22 -11
-9 4 13 16 31 23 31 12z m-960 -95 c0 -5 -2 -10 -4 -10 -3 0 -8 5 -11 10 -3 6
-1 10 4 10 6 0 11 -4 11 -10z m5 -101 c11 -17 -1 -21 -15 -4 -8 9 -8 15 -2 15
6 0 14 -5 17 -11z m-15 -63 c0 -24 -44 -86 -53 -76 -2 3 2 26 10 53 15 51 43
66 43 23z m4680 -591 c0 -8 -7 -15 -15 -15 -8 0 -15 7 -15 15 0 8 7 15 15 15
8 0 15 -7 15 -15z m1378 -164 c2 -6 -10 -6 -35 1 -37 9 -93 52 -93 70 0 11
124 -58 128 -71z m-5198 -42 l-22 -30 36 15 c20 8 36 12 36 9 0 -24 -77 -140
-128 -193 l-63 -65 5 65 c9 119 40 180 108 213 47 24 52 21 28 -14z m5140
-161 c0 -12 -1 -19 -3 -17 -1 2 -9 12 -16 22 -12 14 -11 17 3 17 10 0 16 -8
16 -22z"/>
<path d="M9250 12170 c0 -5 5 -10 11 -10 5 0 7 5 4 10 -3 6 -8 10 -11 10 -2 0
-4 -4 -4 -10z"/>
<path d="M9494 8731 c4 -6 16 -16 28 -22 15 -8 18 -8 14 0 -4 6 -16 16 -28 22
-15 8 -18 8 -14 0z"/>
<path d="M5979 8427 c19 -20 37 -35 39 -33 7 8 -7 24 -41 47 l-32 22 34 -36z"/>
<path d="M6036 8385 c-8 -22 -3 -28 19 -23 14 3 14 5 2 22 -13 18 -14 18 -21
1z"/>
<path d="M5750 8325 c0 -19 5 -25 23 -25 41 0 51 15 23 33 -35 23 -46 21 -46
-8z"/>
<path d="M5562 8313 c-16 -36 -7 -89 10 -59 5 9 8 33 6 54 l-3 37 -13 -32z"/>
<path d="M5504 8215 c-8 -20 8 -38 29 -33 13 2 13 6 -4 27 -16 20 -20 21 -25
6z"/>
<path d="M5720 8170 c20 -13 33 -13 25 0 -3 6 -14 10 -23 10 -15 0 -15 -2 -2
-10z"/>
<path d="M5505 8004 c22 -20 54 -46 70 -57 l30 -22 -22 35 c-24 39 -77 80
-102 80 -10 -1 -2 -13 24 -36z"/>
<path d="M5690 7250 c8 -5 20 -10 25 -10 6 0 3 5 -5 10 -8 5 -19 10 -25 10 -5
0 -3 -5 5 -10z"/>
<path d="M5628 7073 c7 -3 16 -2 19 1 4 3 -2 6 -13 5 -11 0 -14 -3 -6 -6z"/>
<path d="M4826 6874 c-3 -9 -6 -23 -6 -32 0 -13 3 -12 15 4 16 21 19 44 6 44
-5 0 -12 -7 -15 -16z"/>
<path d="M4825 6758 c-27 -15 -75 -59 -86 -81 -6 -9 22 6 61 34 38 28 70 53
70 55 0 8 -25 3 -45 -8z"/>
<path d="M4525 5979 c-11 -17 1 -21 15 -4 8 9 8 15 2 15 -6 0 -14 -5 -17 -11z"/>
<path d="M10505 5250 c3 -5 11 -10 16 -10 6 0 7 5 4 10 -3 6 -11 10 -16 10 -6
0 -7 -4 -4 -10z"/>
<path d="M9360 4920 c0 -5 5 -10 11 -10 5 0 7 5 4 10 -3 6 -8 10 -11 10 -2 0
-4 -4 -4 -10z"/>
<path d="M4607 4323 c-3 -27 -4 -49 -3 -51 2 -1 15 14 29 35 24 34 25 37 9 49
-26 20 -29 18 -35 -33z"/>
<path d="M10894 4208 c3 -13 6 -33 6 -45 0 -13 5 -23 10 -23 6 0 10 20 10 45
0 35 -4 45 -16 45 -12 0 -15 -6 -10 -22z"/>
</g>
</svg>
