<?xml version="1.0" standalone="no"?>
<!DOCTYPE svg PUBLIC "-//W3C//DTD SVG 20010904//EN"
 "http://www.w3.org/TR/2001/REC-SVG-20010904/DTD/svg10.dtd">
<svg version="1.0" xmlns="http://www.w3.org/2000/svg"
 width="888.000000pt" height="584.000000pt" viewBox="0 0 888.000000 584.000000"
 preserveAspectRatio="xMidYMid meet">
<metadata>
Created by potrace 1.16, written by Peter Selinger 2001-2019
</metadata>
<g transform="translate(0.000000,584.000000) scale(0.100000,-0.100000)"
fill="#000000" stroke="none">
<path d="M6880 5819 c-258 -7 -371 -15 -625 -44 -549 -64 -1197 -144 -1320
-165 -156 -26 -514 -27 -995 -4 -444 22 -604 13 -804 -47 -188 -57 -323 -131
-433 -240 -129 -128 -240 -302 -292 -461 -24 -73 -40 -93 -68 -84 -10 3 -58
60 -107 126 -64 87 -101 128 -133 147 -47 27 -143 52 -205 53 -42 0 -209 -56
-323 -109 -75 -35 -83 -42 -131 -112 -86 -126 -119 -246 -128 -470 -5 -125
-16 -176 -39 -191 -7 -4 -30 -8 -52 -8 -37 0 -46 6 -130 92 l-90 93 -276 3
c-275 3 -276 3 -485 -32 -213 -36 -234 -44 -234 -85 1 -52 39 -54 192 -14 138
36 124 34 584 59 l131 7 74 -78 c41 -42 86 -96 101 -118 14 -23 67 -79 116
-124 88 -80 89 -83 106 -154 24 -97 19 -102 -94 -89 -100 11 -168 -2 -233 -47
-68 -47 -235 -218 -394 -403 -82 -96 -191 -220 -242 -275 -118 -128 -173 -218
-179 -291 -5 -58 7 -84 39 -84 13 0 37 29 75 87 58 90 132 185 239 308 34 39
89 105 124 148 35 43 108 126 163 185 55 59 118 131 140 160 21 29 58 66 81
83 37 27 48 30 86 25 25 -3 56 -13 69 -22 17 -11 46 -16 97 -15 96 1 108 -9
191 -167 90 -170 165 -285 229 -352 29 -30 64 -73 79 -95 46 -73 72 -93 140
-109 16 -4 41 -19 55 -34 78 -80 131 -101 165 -63 13 14 15 29 10 72 -6 52 -4
58 33 116 22 34 56 77 75 95 19 18 37 39 39 45 2 7 18 14 34 16 38 5 58 15
168 89 102 69 159 138 218 266 21 45 44 82 52 82 7 0 26 -14 43 -31 48 -52
105 -89 136 -89 56 0 68 -14 68 -81 0 -59 -1 -61 -50 -108 -28 -27 -76 -62
-108 -79 -49 -25 -72 -31 -162 -37 -140 -9 -194 -21 -260 -57 -65 -36 -66 -38
-75 -97 -4 -25 -17 -66 -30 -91 -30 -59 -65 -304 -65 -455 l0 -110 -49 -32
-49 -32 -13 -101 -12 -102 -66 6 c-221 18 -227 18 -284 2 -83 -24 -99 -63 -47
-116 16 -17 30 -35 30 -40 0 -6 8 -10 19 -10 13 0 20 11 27 43 8 39 12 42 44
45 19 2 71 1 116 -3 l81 -7 12 -34 c15 -42 39 -44 52 -4 8 22 17 30 34 30 34
0 55 10 55 26 0 7 9 18 20 24 10 6 25 29 31 51 14 44 29 55 116 83 166 55 266
364 187 581 -49 137 -48 140 78 157 79 11 88 10 130 -10 45 -22 119 -27 180
-13 42 9 176 120 210 173 17 25 40 49 52 52 12 3 42 25 68 50 40 38 53 45 105
50 32 4 122 3 201 -3 131 -9 157 -8 320 15 97 14 187 27 199 30 18 5 23 0 33
-33 6 -21 15 -72 20 -114 5 -43 16 -92 26 -110 12 -23 20 -70 25 -146 6 -94
11 -121 33 -163 14 -27 26 -54 26 -60 0 -6 -19 -34 -43 -63 -61 -75 -105 -155
-113 -207 -5 -30 -17 -54 -38 -75 -62 -61 -122 -204 -185 -435 -13 -49 -21
-114 -23 -186 -3 -120 1 -133 53 -160 32 -16 31 -26 -16 -129 -35 -77 -83
-283 -95 -406 -6 -63 -6 -149 1 -245 20 -269 21 -357 9 -434 -16 -94 -17 -95
-70 -124 -79 -42 -84 -82 -5 -47 41 18 47 19 52 4 4 -9 1 -36 -6 -61 -14 -55
-7 -64 49 -60 l43 3 16 65 c18 72 9 67 104 53 52 -7 50 19 -3 40 -47 18 -48
25 -25 141 18 99 18 226 -1 272 -14 33 -14 38 2 55 9 10 32 22 51 25 40 7 70
48 127 169 66 138 86 270 67 435 -13 118 -24 158 -56 204 -32 46 -31 51 4 92
44 50 77 110 105 194 28 86 74 336 83 455 5 68 10 86 34 116 16 20 29 44 29
52 0 8 25 34 56 57 71 55 86 86 92 184 5 86 -9 169 -40 231 -11 21 -28 62 -38
90 -20 56 -99 218 -136 280 -27 45 -32 119 -10 148 32 42 94 11 190 -98 80
-88 114 -111 183 -118 65 -7 103 -27 171 -87 78 -70 165 -111 238 -113 99 -3
128 8 210 80 l75 66 40 -39 c25 -24 62 -83 98 -154 31 -63 88 -176 126 -250
37 -74 96 -198 130 -276 34 -77 91 -187 127 -245 36 -57 74 -125 85 -150 32
-73 108 -169 166 -210 48 -34 58 -48 85 -114 17 -42 54 -108 83 -148 153 -210
471 -563 569 -629 25 -17 59 -44 77 -61 28 -26 36 -29 75 -23 42 6 44 5 97
-49 53 -53 120 -95 154 -95 9 0 23 -10 31 -21 8 -12 37 -39 63 -60 26 -22 54
-44 61 -49 21 -18 13 -45 -23 -83 -19 -20 -35 -41 -35 -47 0 -18 36 -11 74 15
48 32 54 32 64 -7 9 -37 26 -44 67 -28 25 10 27 13 21 50 -8 52 9 60 64 31 87
-45 87 -4 1 49 -26 16 -53 41 -59 54 -6 14 -40 48 -76 76 -36 28 -74 66 -86
85 -23 37 -162 160 -209 185 -16 8 -40 28 -52 44 l-23 29 27 23 c48 41 39 89
-47 267 -105 214 -190 333 -357 501 -79 78 -139 146 -139 157 0 10 -34 71 -76
136 -42 65 -97 149 -121 187 -46 70 -177 220 -277 316 -32 30 -124 141 -206
245 -81 105 -178 221 -215 258 -37 38 -65 70 -63 73 9 9 164 -64 283 -133 318
-185 746 -395 873 -427 52 -14 113 -38 207 -82 17 -7 79 -27 138 -44 100 -28
132 -32 400 -46 377 -20 643 -21 726 -5 69 13 142 56 162 94 16 29 22 683 7
747 -6 25 -23 73 -38 106 -41 91 -196 351 -245 409 -97 117 -98 130 -12 140
155 17 351 84 464 158 75 49 150 129 163 174 11 35 10 44 -9 82 -37 71 -88
118 -270 245 -195 136 -307 204 -486 294 -120 61 -405 195 -479 226 -32 13
-37 18 -26 31 9 11 32 15 80 15 75 0 387 49 515 81 44 11 124 36 177 56 146
53 334 183 354 245 9 30 -35 69 -144 126 -333 173 -661 208 -1702 181z"/>
</g>
</svg>
