<?xml version="1.0" standalone="no"?>
<!DOCTYPE svg PUBLIC "-//W3C//DTD SVG 20010904//EN"
 "http://www.w3.org/TR/2001/REC-SVG-20010904/DTD/svg10.dtd">
<svg version="1.0" xmlns="http://www.w3.org/2000/svg"
 width="1816.000000pt" height="1397.000000pt" viewBox="0 0 1816.000000 1397.000000"
 preserveAspectRatio="xMidYMid meet">
<metadata>
Created by potrace 1.16, written by Peter Selinger 2001-2019
</metadata>
<g transform="translate(0.000000,1397.000000) scale(0.100000,-0.100000)"
fill="#000000" stroke="none">
<path d="M18017 13952 c-37 -9 -69 -25 -87 -43 -16 -16 -42 -32 -59 -35 -17
-4 -31 -13 -31 -20 0 -8 -4 -14 -8 -14 -5 0 -42 -31 -84 -70 -42 -38 -96 -79
-120 -91 -85 -40 -88 -43 -88 -71 0 -17 -5 -28 -14 -28 -7 0 -25 -9 -39 -20
-14 -11 -32 -20 -40 -20 -8 0 -17 -12 -20 -27 -3 -16 -14 -36 -24 -45 -31 -30
-90 -78 -96 -78 -10 0 -97 -93 -97 -105 0 -14 -42 -35 -70 -35 -11 0 -20 -4
-20 -9 0 -5 -9 -13 -20 -16 -11 -3 -20 -13 -20 -22 0 -18 -149 -163 -167 -163
-7 0 -18 -9 -25 -20 -8 -12 -24 -20 -40 -20 -23 0 -28 -4 -28 -24 0 -30 -20
-47 -48 -39 -18 4 -22 1 -22 -19 0 -17 -13 -35 -39 -56 -22 -18 -42 -40 -46
-50 -3 -11 -21 -28 -40 -38 -22 -11 -35 -26 -35 -38 0 -11 -30 -51 -68 -90
-37 -39 -82 -88 -99 -108 -18 -21 -36 -38 -41 -38 -5 0 -17 -16 -28 -36 -10
-19 -34 -44 -51 -55 -44 -27 -73 -66 -73 -98 0 -20 -9 -30 -39 -43 -20 -10
-43 -18 -49 -18 -6 0 -19 -11 -28 -25 -10 -15 -26 -25 -39 -25 -26 0 -65 -42
-65 -70 0 -10 -7 -21 -15 -24 -9 -3 -22 -21 -31 -41 -9 -22 -23 -37 -39 -41
-14 -3 -25 -12 -25 -20 0 -8 -5 -14 -10 -14 -6 0 -25 -21 -44 -48 -37 -50 -90
-79 -126 -67 -28 9 -50 -37 -31 -66 10 -18 8 -25 -24 -57 -19 -20 -35 -39 -35
-43 0 -4 -16 -16 -35 -28 -25 -15 -35 -27 -35 -46 0 -15 -6 -25 -14 -25 -9 0
-16 -17 -21 -46 -3 -25 -15 -54 -26 -65 -12 -12 -19 -33 -19 -59 0 -22 -5 -40
-10 -40 -14 0 -59 -101 -53 -117 3 -7 -1 -13 -9 -13 -27 0 -60 -50 -55 -84 6
-41 -7 -73 -33 -81 -11 -3 -27 -20 -35 -36 -9 -17 -24 -29 -35 -29 -10 0 -23
-6 -27 -14 -10 -16 -98 -56 -124 -56 -22 0 -23 -4 -9 -31 8 -15 6 -22 -11 -36
-76 -62 -72 -56 -61 -95 8 -30 7 -38 -5 -42 -22 -9 -23 -8 -23 15 0 17 -5 20
-32 17 -31 -3 -33 -1 -36 29 -2 18 1 48 6 67 10 34 9 36 -58 100 -37 36 -73
66 -79 66 -14 0 -14 57 -1 65 19 12 -11 37 -37 30 -17 -4 -23 -1 -23 12 0 9
-8 25 -17 36 -11 12 -18 35 -18 61 0 38 -2 41 -30 44 -33 4 -45 16 -45 48 0
15 8 24 25 28 31 8 34 46 5 64 -24 15 -60 1 -60 -23 0 -8 -6 -15 -14 -15 -11
0 -11 8 2 44 9 25 20 42 24 40 12 -7 118 45 122 59 2 7 8 31 13 55 l10 42 -38
0 c-21 0 -40 -4 -43 -9 -3 -5 -27 -8 -53 -7 -44 1 -48 3 -48 26 0 20 -6 26
-30 28 -16 2 -46 16 -65 31 l-36 29 -39 -21 c-22 -11 -43 -25 -47 -31 -14 -20
-8 -59 9 -71 14 -10 15 -16 5 -27 -6 -8 -9 -18 -5 -21 8 -8 -39 -47 -49 -40
-5 2 -8 12 -8 22 0 10 -9 26 -19 35 -16 14 -17 22 -8 46 8 21 7 39 -1 68 -22
73 -91 63 -92 -13 0 -24 -7 -34 -37 -50 -31 -16 -42 -31 -58 -76 -11 -31 -25
-62 -31 -70 -6 -8 -14 -22 -17 -31 -4 -10 -11 -18 -16 -18 -15 0 -18 57 -5 82
8 13 13 45 14 71 0 44 2 47 19 37 27 -14 51 -2 51 25 0 25 -24 55 -43 55 -19
0 -76 -44 -86 -67 -6 -13 -15 -23 -21 -23 -16 0 -24 30 -11 43 6 6 11 21 11
33 0 16 -8 23 -31 28 -36 7 -48 2 -58 -27 -5 -14 -3 -30 6 -44 8 -12 13 -28
10 -35 -6 -18 11 -48 28 -48 8 0 15 -4 15 -10 0 -15 -17 -12 -45 6 -14 9 -25
25 -25 36 0 17 -5 20 -27 15 -16 -3 -37 -9 -47 -13 -15 -6 -18 -4 -13 9 6 16
-10 87 -20 87 -3 0 -22 -10 -41 -22 -25 -15 -37 -18 -40 -10 -2 7 -14 12 -27
12 -12 0 -28 7 -35 15 -15 18 -30 20 -30 3 0 -6 -7 -19 -16 -29 -15 -16 -18
-16 -57 2 -23 10 -50 19 -59 19 -11 0 -18 8 -18 20 0 11 -4 20 -9 20 -5 0 -8
11 -8 25 0 14 -6 32 -13 40 -16 20 -70 20 -70 0 0 -8 -6 -12 -14 -9 -22 9 -38
-32 -31 -77 6 -35 5 -39 -14 -39 -26 0 -43 -29 -30 -52 6 -11 5 -19 -2 -23 -7
-5 -8 -24 -4 -55 4 -30 3 -50 -4 -55 -7 -4 -11 3 -11 18 0 49 -57 60 -81 16
-13 -25 -29 -16 -29 16 0 30 -31 51 -87 58 -41 5 -42 4 -80 -50 l-37 -54 -20
38 c-10 21 -22 52 -26 68 l-6 30 -22 -35 c-12 -19 -22 -48 -23 -65 0 -28 -1
-29 -9 -7 -25 62 -75 26 -67 -48 2 -25 1 -56 -3 -70 -6 -17 -8 -3 -9 46 -2
150 -17 188 -63 163 -17 -9 -19 -18 -15 -52 3 -23 7 -86 10 -139 4 -95 3 -99
-23 -128 -32 -36 -40 -37 -40 -7 0 30 -29 57 -60 57 -22 0 -23 2 -17 69 6 73
16 101 49 138 20 21 20 21 -1 28 -29 9 -59 -2 -66 -26 -4 -10 -10 -19 -14 -19
-27 0 -80 36 -106 71 -16 23 -42 55 -57 71 -20 21 -28 40 -28 68 0 38 -17 63
-41 58 -8 -2 -14 7 -14 24 -1 15 -4 30 -8 34 -11 11 -58 -26 -71 -56 -11 -28
-12 -28 -24 -10 -8 14 -23 20 -47 20 -31 0 -36 -3 -41 -30 -4 -19 -13 -30 -23
-30 -9 0 -31 -9 -50 -21 l-35 -21 17 26 c23 34 22 36 -11 36 -31 0 -55 -21
-66 -56 -5 -15 -18 -24 -44 -29 -35 -7 -36 -8 -14 -18 12 -5 22 -16 22 -24 0
-22 -26 -77 -43 -92 -14 -11 -18 -10 -28 13 -14 29 -31 33 -53 11 -21 -22 -36
-18 -36 8 -1 19 -8 14 -49 -33 -27 -30 -53 -52 -57 -47 -4 4 -2 7 4 7 7 0 12
16 12 40 0 39 -1 40 -34 40 -26 0 -36 5 -41 20 -8 24 -28 26 -45 5 -7 -9 -21
-13 -31 -10 -9 3 -20 1 -24 -5 -3 -5 -21 -10 -40 -10 -20 0 -35 -6 -39 -15 -6
-17 -86 -22 -86 -5 0 6 -4 10 -9 10 -5 0 -23 14 -39 30 -35 34 -57 39 -49 11
4 -16 1 -18 -17 -12 -16 7 -20 15 -18 40 4 36 -12 61 -39 61 -28 0 -31 -15
-18 -80 6 -33 9 -63 6 -67 -4 -3 -18 2 -33 11 -26 18 -26 18 -17 -6 8 -24 9
-105 1 -114 -3 -3 -18 1 -32 8 -22 9 -26 17 -22 35 3 13 9 34 12 47 5 19 -1
27 -30 45 -36 23 -44 35 -27 46 5 3 11 -2 13 -10 3 -13 8 -12 36 5 24 15 32
27 32 49 0 26 -4 29 -40 35 -30 5 -40 11 -40 25 0 10 -9 29 -19 42 -25 31 -51
17 -64 -32 -5 -19 -17 -43 -27 -54 -11 -12 -20 -39 -22 -63 -5 -68 -18 -48
-18 28 l0 70 -30 0 c-25 0 -33 -6 -47 -36 -15 -30 -21 -34 -43 -28 -58 15 -84
8 -131 -36 l-43 -40 -16 41 c-9 22 -22 44 -30 49 -7 4 -10 15 -7 24 6 15 -16
46 -34 46 -5 0 -17 -9 -26 -20 -10 -11 -28 -20 -40 -20 -34 0 -102 -30 -113
-50 -7 -14 -17 -16 -52 -10 -24 4 -51 11 -60 14 -12 6 -25 -3 -47 -35 -17 -23
-31 -48 -31 -56 0 -7 -3 -13 -6 -13 -11 0 -43 45 -44 61 0 21 -37 31 -61 18
-11 -5 -21 -20 -24 -32 -4 -13 -19 -28 -35 -34 -24 -9 -31 -7 -54 16 l-26 26
0 -24 c0 -23 -1 -23 -19 -7 -20 18 -21 18 -46 -31 l-15 -28 -6 32 c-6 29 -10
31 -60 38 -29 3 -57 4 -62 1 -4 -2 -18 -25 -30 -50 -21 -40 -26 -45 -50 -40
-15 3 -47 -1 -71 -9 -24 -9 -49 -13 -56 -11 -7 3 -30 -4 -51 -15 -21 -12 -46
-21 -54 -21 -9 0 -21 -5 -27 -11 -9 -9 -20 -6 -46 10 -19 11 -46 21 -61 21
-23 0 -26 -4 -28 -37 l-1 -38 -4 35 c-4 34 -25 60 -47 60 -6 0 -19 -17 -29
-37 -17 -34 -17 -38 -2 -49 12 -9 13 -14 4 -19 -8 -5 -9 -25 -5 -64 5 -44 4
-53 -6 -43 -15 15 -64 16 -73 2 -5 -8 -11 -8 -20 0 -7 6 -24 8 -37 5 -16 -4
-33 1 -50 14 -32 26 -38 26 -38 2 0 -14 -6 -17 -25 -13 -20 3 -25 0 -25 -17 0
-28 -8 -27 -43 7 l-30 27 6 -37 c4 -27 1 -40 -13 -53 -16 -14 -18 -14 -23 0
-9 23 -41 18 -65 -10 -24 -27 -69 -34 -90 -13 -9 9 -12 9 -12 -3 0 -10 -16
-20 -42 -26 -24 -6 -53 -14 -65 -18 -18 -6 -23 -3 -23 10 0 14 -6 16 -32 11
-17 -3 -33 -8 -36 -11 -2 -2 2 -27 9 -54 10 -40 10 -54 1 -63 -16 -16 -15 -23
4 -43 15 -14 15 -19 0 -55 -9 -22 -16 -49 -16 -60 0 -25 -15 -26 -32 -2 -7 10
-26 27 -42 40 -36 28 -58 17 -75 -37 -12 -41 -12 -41 -62 -41 -42 0 -51 -3
-60 -24 -8 -17 -8 -29 0 -44 8 -15 7 -27 -4 -49 -24 -45 -20 -56 20 -51 41 5
42 2 10 -34 -15 -18 -30 -26 -40 -22 -19 8 -44 -12 -58 -46 -8 -20 -11 -22
-14 -7 -4 13 -15 17 -54 17 -45 0 -49 -2 -49 -24 0 -29 -26 -35 -123 -29 -55
3 -72 0 -91 -14 -17 -14 -21 -24 -15 -38 4 -11 8 -34 8 -50 1 -31 23 -57 72
-85 138 -77 153 -90 105 -90 -14 0 -28 -5 -32 -11 -4 -7 -29 -9 -75 -4 -68 7
-69 7 -69 -17 0 -14 3 -28 7 -31 3 -4 8 -22 10 -40 3 -28 -1 -36 -22 -45 -34
-16 -41 -38 -20 -62 16 -18 17 -20 2 -20 -10 0 -17 5 -17 11 0 5 -13 15 -30
20 -18 7 -30 18 -30 28 0 15 -10 17 -64 17 -59 0 -63 -1 -58 -20 3 -12 9 -26
14 -32 15 -20 -32 -42 -67 -32 -16 5 -57 11 -90 14 -33 3 -77 9 -98 14 -35 8
-39 6 -48 -18 -5 -14 -7 -38 -4 -53 7 -31 8 -30 -89 -49 -82 -17 -165 -17
-203 -1 -41 17 -63 9 -63 -24 0 -29 -3 -30 -35 -9 -13 9 -29 13 -35 9 -6 -4
-10 4 -10 20 0 25 -2 26 -48 23 -47 -3 -47 -2 -71 43 -22 41 -27 45 -60 45
-47 -1 -96 -38 -88 -66 4 -15 0 -20 -13 -20 -20 0 -73 -43 -65 -52 3 -3 -6
-13 -20 -22 -14 -9 -25 -22 -25 -29 -1 -6 -20 -25 -43 -41 -31 -22 -52 -29
-78 -27 -29 2 -40 -3 -53 -21 -9 -12 -16 -30 -16 -40 0 -11 -7 -18 -18 -18
-20 0 -118 -33 -129 -43 -3 -4 -18 -7 -32 -7 -14 0 -37 -6 -51 -13 -27 -14
-105 -35 -130 -35 -8 1 -34 -4 -57 -11 -23 -6 -45 -10 -50 -9 -15 4 -73 -13
-73 -22 0 -4 -21 -10 -48 -14 -26 -3 -67 -17 -92 -30 -25 -13 -63 -27 -85 -30
-22 -4 -53 -14 -70 -21 -40 -18 -117 -35 -154 -35 -17 0 -39 -8 -49 -18 -10
-10 -53 -26 -97 -37 -44 -11 -82 -22 -85 -26 -3 -4 -29 -12 -59 -18 -30 -6
-74 -20 -99 -31 -24 -11 -55 -20 -68 -20 -13 0 -24 -6 -24 -13 0 -7 -25 -17
-63 -24 -80 -16 -199 -55 -307 -103 -47 -20 -105 -44 -130 -52 -87 -30 -115
-41 -130 -49 -35 -19 -108 -51 -142 -62 -21 -7 -38 -18 -38 -24 0 -7 -6 -13
-13 -13 -6 0 -53 -16 -102 -35 -111 -44 -372 -122 -565 -170 -164 -41 -328
-56 -379 -36 -53 23 -181 -15 -181 -53 0 -6 -28 -20 -62 -31 -45 -14 -74 -32
-111 -68 -27 -26 -47 -50 -44 -53 3 -3 -47 -45 -111 -94 -64 -48 -139 -113
-167 -145 -89 -101 -141 -149 -212 -195 l-69 -45 -1 -57 c-3 -74 9 -84 93 -79
35 1 64 -1 64 -6 0 -22 -44 -76 -87 -107 -26 -19 -97 -61 -157 -92 -59 -31
-153 -92 -209 -135 -55 -43 -170 -126 -256 -185 -367 -252 -380 -263 -572
-454 -102 -102 -257 -255 -345 -340 -160 -154 -275 -300 -274 -346 1 -42 45
-109 82 -126 88 -42 158 -49 453 -49 164 0 255 8 360 31 28 7 71 14 98 17 26
3 47 8 47 13 0 4 37 13 82 20 46 6 90 14 98 18 8 3 29 6 45 7 57 3 230 35 270
49 22 8 57 15 77 16 20 0 43 6 51 14 20 21 85 36 167 40 40 2 75 8 79 14 3 5
23 13 43 17 21 4 42 13 49 21 6 8 22 14 36 14 23 0 23 -1 9 -22 -22 -31 -20
-41 7 -34 16 4 26 -1 35 -14 14 -22 48 -27 55 -7 3 8 14 3 31 -15 15 -16 33
-28 41 -28 27 0 16 -18 -14 -25 -29 -6 -46 -28 -35 -46 3 -5 1 -9 -5 -9 -5 0
-13 5 -16 10 -13 20 -27 -3 -22 -35 4 -25 1 -38 -13 -50 -22 -20 -51 -104 -75
-220 -15 -67 -19 -76 -26 -56 -7 18 -14 22 -33 17 -17 -4 -25 -2 -28 9 -3 14
-5 14 -25 0 -27 -19 -29 -46 -7 -80 12 -18 13 -25 4 -25 -9 0 -11 -10 -6 -30
5 -27 3 -30 -19 -30 -29 0 -30 -7 -10 -34 22 -30 18 -46 -11 -46 -26 0 -26 -1
-19 -55 6 -54 6 -55 -18 -55 -37 0 -144 -85 -169 -134 -12 -22 -22 -61 -22
-86 -1 -37 -6 -49 -35 -75 -111 -100 -129 -122 -160 -204 -41 -106 -50 -166
-26 -175 14 -5 15 -9 5 -21 -7 -8 -10 -22 -6 -30 12 -31 -75 -243 -135 -332
-34 -49 -35 -53 -10 -53 24 0 33 -23 26 -64 -3 -17 -7 -49 -9 -71 -2 -22 -10
-55 -17 -73 -12 -29 -12 -37 4 -63 21 -38 21 -53 0 -70 -9 -8 -22 -29 -30 -47
-9 -21 -20 -32 -33 -32 -29 0 -25 -11 16 -45 l37 -31 -18 -59 c-11 -39 -15
-75 -11 -104 5 -38 3 -47 -24 -78 -36 -40 -37 -55 -7 -68 16 -8 22 -18 20 -40
-3 -49 6 -73 27 -80 26 -8 26 -37 -1 -91 l-20 -43 36 -33 c31 -29 36 -39 37
-81 0 -33 -5 -54 -17 -67 -15 -17 -16 -25 -7 -45 6 -13 22 -27 36 -31 17 -4
33 -24 56 -71 37 -75 143 -192 238 -263 33 -25 66 -55 73 -68 7 -13 22 -22 36
-22 19 0 23 -5 23 -29 0 -28 2 -30 40 -29 28 0 48 -7 70 -26 38 -31 54 -32 80
-6 11 11 25 20 30 20 6 0 21 12 34 27 l23 27 14 -29 c19 -40 62 -54 97 -34 25
14 30 14 57 -3 34 -20 67 -23 97 -7 15 8 19 8 13 -1 -6 -10 5 -10 118 2 9 1
17 6 17 10 0 4 6 8 14 8 8 0 16 6 19 14 4 9 15 12 33 8 24 -4 26 -2 21 17 -3
15 1 24 14 31 15 8 19 7 19 -5 0 -8 5 -15 10 -15 6 0 10 7 10 15 0 8 4 15 10
15 5 0 7 6 4 14 -8 20 64 56 111 56 26 0 45 -9 74 -35 21 -19 43 -35 49 -35 6
0 25 18 43 40 18 22 40 42 49 45 10 3 23 19 30 34 8 21 17 27 31 24 14 -4 19
0 19 14 0 21 31 63 47 63 13 0 33 -69 22 -76 -13 -7 -11 -64 2 -64 5 0 3 -10
-5 -22 -21 -30 -20 -38 4 -38 17 0 18 -3 9 -19 -7 -10 -9 -26 -6 -35 11 -28
42 -18 67 23 22 34 27 37 48 28 17 -8 31 -6 57 6 19 9 35 21 35 26 0 12 92 21
112 10 14 -8 18 -6 18 10 0 33 99 73 126 51 7 -7 18 -9 24 -5 6 4 22 -3 35
-15 l24 -23 11 27 c5 15 10 43 10 62 0 19 5 36 12 38 113 27 366 135 374 158
7 24 20 23 95 -11 35 -16 79 -32 96 -36 31 -6 33 -5 33 22 0 37 -23 69 -55 77
-42 11 -31 36 16 36 35 0 40 -2 30 -14 -10 -12 -8 -17 8 -25 27 -15 61 -14 95
4 33 18 66 20 66 4 0 -19 -28 -39 -54 -39 -30 0 -39 -13 -38 -51 1 -27 -2 -29
-41 -29 -24 0 -66 -11 -95 -25 -30 -14 -60 -25 -68 -25 -24 0 -29 -31 -9 -46
18 -13 18 -14 -4 -14 -18 0 -21 -4 -16 -20 7 -21 -9 -28 -20 -10 -10 16 -33
-6 -40 -40 -3 -16 -13 -34 -21 -41 -52 -43 34 -88 113 -58 24 9 21 4 -16 -28
-25 -21 -64 -50 -87 -65 -44 -27 -68 -60 -61 -81 2 -6 -4 -18 -14 -27 -11 -9
-19 -32 -21 -59 -2 -42 -1 -45 27 -53 27 -7 45 -5 100 9 16 4 12 -3 -16 -33
-19 -22 -41 -47 -49 -57 -12 -17 -11 -18 13 -12 21 6 27 3 27 -8 0 -30 -23
-67 -41 -67 -44 0 -50 -89 -6 -91 20 -1 20 -2 -5 -12 -23 -9 -28 -17 -28 -44
0 -26 4 -33 20 -33 11 0 20 -7 20 -15 0 -8 9 -20 20 -27 18 -12 17 -13 -13
-23 -30 -9 -32 -13 -33 -57 -1 -66 6 -73 52 -61 22 6 48 14 59 19 12 5 2 -13
-29 -52 -27 -32 -57 -62 -67 -66 -28 -11 -25 -62 6 -86 30 -24 97 -23 123 2
24 21 32 20 32 -4 0 -10 9 -24 19 -30 28 -15 61 -12 61 4 0 8 5 18 11 22 8 4
9 -1 4 -16 -4 -12 -2 -32 3 -44 19 -40 42 -120 42 -148 0 -17 -8 -33 -20 -40
-11 -7 -20 -17 -20 -21 0 -5 -9 -20 -20 -35 -16 -20 -18 -27 -8 -34 10 -8 10
-11 1 -15 -18 -7 -16 -78 2 -93 11 -9 12 -17 4 -32 -6 -11 -8 -26 -5 -33 3 -8
-1 -26 -8 -40 -13 -24 -12 -29 11 -53 l25 -27 -28 -6 c-16 -4 -43 -7 -60 -8
-30 -1 -74 -36 -74 -59 0 -7 9 -17 20 -24 11 -7 20 -19 20 -27 0 -8 5 -29 12
-47 17 -47 -11 -116 -58 -143 -19 -11 -34 -25 -34 -31 0 -5 -9 -10 -20 -10
-10 0 -35 -14 -53 -30 -19 -17 -40 -30 -46 -30 -5 0 -8 -7 -5 -15 4 -9 0 -15
-8 -15 -9 0 -36 -16 -61 -35 -25 -19 -49 -35 -52 -35 -3 0 -27 -16 -52 -35
-25 -19 -52 -35 -59 -35 -7 0 -26 -13 -42 -29 -23 -23 -30 -42 -34 -81 -5 -44
-2 -54 21 -79 16 -18 40 -31 64 -34 43 -7 111 -50 86 -55 -18 -3 -39 -43 -39
-73 0 -31 24 -33 77 -7 35 18 51 33 58 56 11 33 52 82 68 82 6 0 34 24 64 54
73 75 134 115 215 141 69 22 97 44 98 79 0 25 22 88 35 102 6 6 16 9 23 6 7
-2 22 4 33 14 10 9 20 13 20 8 1 -5 5 9 9 31 10 50 69 189 101 235 13 19 41
52 62 73 21 20 44 55 52 76 7 21 27 59 44 82 17 24 39 55 49 68 9 14 37 51 61
84 30 40 40 62 33 69 -7 7 -4 21 10 44 18 31 24 34 69 34 47 0 52 3 109 60 33
33 60 66 60 73 0 19 104 77 139 77 9 0 22 15 30 33 8 17 27 47 43 65 15 18 28
39 28 46 0 7 9 21 20 31 11 10 20 26 20 37 0 13 8 18 30 18 18 0 33 6 36 15 4
10 14 13 30 9 21 -5 24 -3 24 19 0 16 15 42 40 69 40 42 43 57 25 100 -5 13 2
26 27 48 18 16 45 41 59 55 15 14 32 25 38 25 6 0 11 13 11 29 0 17 5 33 10
36 6 3 10 15 10 26 0 10 5 19 10 19 6 0 10 15 10 33 0 41 59 141 86 145 25 4
94 143 94 190 0 18 5 32 11 32 7 0 10 15 7 42 -4 35 0 49 23 78 14 19 34 52
43 73 9 22 24 41 35 44 14 3 21 17 26 49 5 34 10 44 25 44 12 0 17 5 14 13 -3
8 -1 24 4 38 5 13 6 33 2 44 -5 13 -2 26 7 37 18 21 38 164 29 212 -4 20 -18
49 -31 65 -19 22 -22 30 -11 34 17 7 29 77 15 93 -21 25 0 59 46 73 41 12 43
15 50 59 7 49 46 98 70 88 14 -5 95 48 95 62 0 10 58 42 76 42 8 0 14 7 14 15
0 19 31 55 46 55 18 0 22 20 17 78 -3 47 -2 52 16 52 19 0 43 29 40 47 -4 18
17 50 54 83 22 20 59 74 85 125 41 78 54 93 94 115 44 24 45 25 25 41 l-21 16
22 30 c12 17 22 38 22 46 0 8 7 20 15 27 8 7 15 18 15 24 0 7 11 23 25 36 21
20 25 32 24 72 -2 32 -7 48 -15 48 -11 0 -10 8 4 34 9 18 23 31 30 29 8 -4 12
5 12 26 0 23 7 35 28 47 15 9 39 25 54 35 17 12 51 20 90 23 75 5 132 28 211
87 44 33 68 44 100 45 23 1 43 7 45 13 2 6 12 11 22 11 11 0 24 9 30 20 14 26
36 16 44 -20 3 -16 15 -34 27 -40 18 -10 23 -8 37 12 10 12 17 37 18 54 1 37
42 97 62 89 7 -3 20 -5 28 -5 8 0 14 -6 14 -14 0 -35 57 -27 66 10 5 18 14 24
42 26 21 2 49 -2 64 -10 24 -11 30 -10 48 8 11 11 23 37 26 59 6 38 7 38 25
20 23 -23 35 -24 42 -5 3 8 18 16 34 18 21 2 29 9 31 28 3 29 70 64 93 49 11
-7 10 -9 -4 -9 -15 0 -18 -7 -15 -32 3 -31 6 -33 56 -41 44 -7 58 -5 86 11 28
17 35 17 51 6 35 -26 55 -18 55 21 0 45 17 45 26 1 5 -30 10 -35 38 -38 26 -2
33 -9 42 -38 10 -31 16 -35 46 -35 26 0 42 -8 66 -35 l33 -35 -4 40 c-2 22 0
51 5 65 9 23 10 23 19 7 10 -16 12 -16 40 8 35 28 57 32 65 10 11 -27 41 -16
59 20 11 25 29 42 58 54 78 35 92 42 132 66 22 14 50 29 61 34 12 5 24 17 27
25 4 10 19 16 40 16 19 0 40 7 47 15 11 13 15 13 33 0 29 -20 107 -20 107 0 0
12 8 14 40 9 34 -6 47 -2 80 21 22 15 40 31 40 35 0 4 33 23 74 43 93 46 165
116 284 275 51 67 95 122 97 122 8 0 -7 -65 -27 -117 -20 -53 -18 -73 8 -73
22 0 12 -23 -14 -35 -28 -13 -29 -53 -2 -88 11 -14 20 -32 20 -40 0 -9 5 -19
10 -22 15 -9 12 -68 -5 -92 -13 -19 -13 -23 1 -37 11 -12 20 -13 34 -6 25 13
30 13 30 -5 0 -21 9 -19 30 7 l18 23 16 -39 c9 -21 16 -48 16 -60 0 -11 7 -34
15 -50 9 -17 13 -37 8 -50 -4 -12 -6 -27 -4 -34 1 -8 -3 -20 -10 -28 -16 -19
-14 -72 3 -93 17 -20 33 -55 48 -103 6 -21 22 -46 36 -57 35 -28 31 -47 -11
-47 -26 0 -44 -8 -68 -32 -18 -18 -36 -32 -39 -32 -3 0 -9 17 -13 38 -13 75
-69 106 -101 57 -10 -15 -26 -25 -41 -25 -29 0 -57 -29 -131 -140 -79 -118
-101 -171 -91 -223 4 -23 3 -49 -2 -59 -14 -26 -12 -28 34 -28 l42 0 -32 -26
c-18 -14 -33 -33 -33 -42 1 -18 23 -52 34 -52 4 0 16 -9 28 -20 13 -12 37 -20
57 -21 32 -1 33 -2 11 -8 -21 -6 -24 -12 -21 -36 4 -41 10 -48 35 -43 20 4 18
-1 -17 -54 -22 -33 -37 -61 -34 -64 2 -2 46 -6 96 -7 86 -2 92 -3 89 -22 -2
-16 -12 -21 -52 -23 l-48 -3 7 -32 c3 -18 9 -52 12 -75 4 -37 10 -45 34 -54
26 -9 42 -38 21 -38 -5 0 -9 -20 -11 -44 -2 -38 1 -45 21 -52 21 -6 48 -27 48
-38 0 -2 -15 -6 -32 -8 -28 -2 -33 -7 -33 -28 0 -14 -7 -28 -17 -32 -27 -11
-24 -69 5 -96 13 -12 29 -22 36 -22 9 0 11 -9 6 -28 -4 -20 0 -36 15 -55 l22
-27 -26 -31 c-32 -38 -37 -108 -8 -110 33 -2 57 3 78 16 17 11 22 11 30 -2 8
-13 14 -12 42 12 18 15 32 33 32 41 0 8 6 11 15 8 8 -4 26 1 40 10 25 16 25
16 25 -16 1 -57 54 -243 69 -243 25 0 52 50 60 109 5 37 14 62 24 68 25 14 32
11 37 -14 5 -17 16 -25 50 -31 48 -10 75 -11 100 -6 10 3 16 -5 18 -23 4 -32
18 -35 50 -12 21 14 25 14 40 1 23 -21 73 -41 95 -38 13 2 17 -5 17 -33 0 -45
24 -48 70 -9 l32 27 -7 -52 c-8 -62 0 -65 51 -17 25 24 40 32 45 24 4 -7 14
-9 23 -6 9 4 16 2 16 -3 0 -6 -7 -10 -15 -10 -9 0 -12 -6 -8 -15 3 -9 -2 -24
-12 -35 -20 -22 -12 -65 11 -56 16 6 29 -10 14 -19 -16 -10 -12 -29 10 -53 11
-12 20 -30 20 -41 0 -42 50 -37 78 7 9 15 24 28 32 28 8 1 23 5 33 9 12 5 17
2 17 -8 0 -9 -9 -19 -20 -22 -29 -9 -25 -22 9 -28 17 -4 30 -14 34 -26 4 -16
13 -21 41 -21 l36 0 2 -67 c1 -63 3 -89 7 -119 0 -7 17 -14 37 -16 27 -3 38 0
45 14 6 12 17 17 28 13 9 -3 26 2 37 10 10 8 29 15 42 15 22 0 22 1 6 25 -16
25 -12 85 6 85 15 0 23 -21 11 -33 -18 -18 -13 -30 32 -80 54 -58 71 -61 65
-9 -3 20 -2 46 3 57 4 11 8 14 8 8 2 -36 101 4 101 41 0 8 5 18 10 21 6 4 10
-10 10 -34 0 -41 17 -91 31 -91 19 0 41 54 47 117 7 68 7 68 39 71 28 3 33 0
38 -25 4 -15 11 -41 17 -58 5 -16 12 -41 14 -54 3 -13 18 -40 34 -60 29 -34
29 -36 10 -43 -26 -10 -29 -75 -4 -85 26 -10 49 11 49 44 0 22 5 29 19 29 18
-1 22 3 47 57 7 15 20 27 31 27 19 0 24 -15 9 -25 -5 -3 -15 -29 -21 -58 -11
-49 -14 -52 -44 -52 -24 0 -32 -5 -34 -21 -2 -11 3 -26 11 -33 10 -8 13 -25 9
-56 -4 -37 -2 -45 12 -45 9 0 22 -15 30 -34 8 -19 24 -39 35 -46 12 -6 21 -17
21 -24 0 -22 24 -38 37 -25 6 6 16 8 22 5 17 -11 -138 -135 -176 -142 -41 -8
-44 -12 -48 -78 -3 -56 6 -83 24 -72 6 4 11 0 11 -8 0 -9 7 -16 15 -16 8 0 15
-4 15 -10 0 -12 57 -13 64 -1 9 14 59 11 84 -5 17 -11 27 -12 43 -4 16 9 20
20 18 54 -3 49 2 60 40 79 l28 14 -7 -36 c-4 -20 -11 -44 -15 -53 -5 -13 -1
-19 18 -23 26 -7 29 -34 9 -72 -7 -12 -7 -24 0 -37 5 -10 12 -43 14 -73 4 -61
7 -69 32 -82 22 -12 86 10 118 40 l24 22 0 -27 c0 -17 6 -29 18 -32 9 -3 31
-12 47 -22 17 -9 66 -19 110 -24 44 -4 87 -9 95 -11 49 -12 70 -20 70 -29 0
-14 43 -5 48 10 2 6 -4 12 -13 12 -20 0 -14 24 7 28 9 2 24 -5 34 -15 10 -11
32 -18 53 -18 35 0 36 -1 33 -36 -4 -43 8 -54 55 -51 18 2 33 -2 33 -7 0 -6 9
-15 21 -21 15 -9 24 -8 36 2 10 8 38 11 84 9 40 -1 69 1 69 7 0 5 10 12 21 15
16 4 30 -2 50 -24 15 -16 32 -29 37 -29 6 0 14 -31 18 -69 5 -58 10 -70 27
-75 30 -7 60 12 54 35 -3 12 -1 17 6 12 6 -4 24 -6 40 -5 22 2 30 -3 34 -18 8
-32 56 -26 87 11 17 20 26 25 26 15 0 -17 32 -28 70 -24 22 3 25 -2 31 -37 12
-64 14 -72 29 -91 8 -9 15 -33 15 -53 0 -42 25 -53 56 -25 10 9 22 15 25 12 5
-5 10 -40 13 -82 1 -16 8 -18 57 -14 31 3 59 10 63 17 5 8 13 6 26 -9 10 -11
23 -20 30 -20 7 0 20 -9 30 -20 13 -15 31 -21 59 -20 75 0 76 0 76 -42 0 -29
4 -38 17 -38 9 0 24 -7 32 -15 9 -8 35 -17 57 -21 36 -5 42 -4 47 15 7 27 35
18 43 -15 5 -19 13 -24 40 -24 19 0 34 5 34 11 0 7 11 9 33 4 78 -17 148 -17
182 0 19 9 35 22 35 30 0 25 58 18 84 -10 43 -46 54 -35 53 55 0 44 4 85 9 90
6 6 8 24 6 40 -5 32 -58 80 -144 131 -36 21 -46 34 -51 60 -3 19 -8 41 -12 50
-4 11 0 18 14 22 26 6 35 29 27 62 -8 31 -36 33 -61 5 -18 -20 -18 -20 -52 1
-29 18 -44 20 -89 15 -44 -5 -56 -3 -60 9 -7 17 -35 20 -51 4 -8 -8 -13 -8
-17 0 -4 6 -16 11 -27 11 -11 0 -27 7 -35 15 -9 8 -24 15 -35 15 -12 0 -19 7
-19 20 0 15 -7 20 -26 20 -44 0 -64 17 -64 54 0 33 -1 34 -51 41 -36 5 -54 4
-59 -5 -6 -9 -12 -9 -27 1 -15 9 -22 27 -26 68 -3 31 -13 71 -22 88 -9 19 -14
42 -10 53 9 30 -4 60 -26 60 -25 0 -26 -45 -1 -59 16 -10 16 -10 0 -11 -27 0
-60 72 -48 105 17 45 13 65 -15 65 -20 0 -25 -5 -25 -27 l0 -26 -25 23 c-14
13 -25 34 -25 48 0 15 -7 26 -18 29 -39 10 -45 93 -8 93 8 0 17 7 20 16 9 23
7 66 -3 60 -4 -3 -6 6 -3 19 4 21 0 25 -19 25 -21 0 -106 36 -119 51 -10 10
-96 39 -119 39 -20 0 -22 3 -16 23 4 12 8 38 9 57 1 19 9 43 18 52 25 25 12
48 -27 48 -27 0 -34 -5 -39 -25 -6 -22 -9 -24 -26 -15 -15 8 -19 17 -14 35 6
23 4 25 -33 25 -34 0 -43 5 -78 50 -32 40 -67 71 -133 115 -1 1 2 14 7 29 8
20 7 26 -3 26 -8 0 -24 16 -36 35 -24 39 -48 55 -80 55 -29 0 -100 23 -100 33
0 14 -64 69 -98 83 -18 8 -35 21 -39 30 -7 18 -55 44 -83 44 -13 0 -20 7 -20
19 0 14 -5 18 -19 14 -11 -3 -27 3 -39 15 -17 17 -22 18 -43 6 -37 -21 -46
-17 -45 20 1 22 5 31 11 25 13 -13 45 -11 51 4 3 8 0 26 -5 40 -8 20 -18 27
-36 27 -14 0 -25 5 -25 10 0 6 11 10 25 10 19 0 25 5 25 21 0 29 -18 59 -35
59 -8 0 -15 7 -15 15 0 17 -42 87 -74 123 -15 17 -17 25 -8 34 7 7 12 29 12
51 0 48 -40 92 -93 102 -30 6 -37 12 -37 31 0 15 -6 24 -15 24 -8 0 -24 9 -34
19 -11 11 -37 23 -58 27 -22 4 -50 19 -67 36 -16 16 -37 27 -46 26 -9 -2 -31
12 -49 30 -20 19 -43 32 -58 32 -20 0 -23 3 -14 14 23 28 -18 65 -50 45 -17
-10 -29 -2 -29 21 0 10 -9 22 -20 25 -14 4 -20 15 -20 35 0 33 -23 60 -50 60
-11 0 -41 23 -68 50 -27 28 -57 50 -66 50 -10 0 -26 5 -37 10 -16 9 -19 7 -19
-12 0 -23 0 -23 -23 3 -12 15 -43 40 -68 57 -48 32 -66 57 -49 67 6 4 10 14
10 24 0 19 -69 55 -91 46 -17 -6 -79 50 -79 71 0 17 -2 17 -34 2 -21 -9 -29
-8 -44 5 -10 10 -26 17 -35 17 -12 0 -17 8 -17 25 0 22 -3 24 -20 15 -15 -8
-28 -6 -57 10 -21 11 -43 20 -50 20 -7 0 -13 5 -13 10 0 6 -10 14 -22 19 -13
5 -47 30 -76 55 -30 25 -57 46 -62 46 -7 0 -19 74 -25 165 -5 69 -16 94 -43
97 -17 2 -35 16 -53 43 -29 42 -29 55 0 55 9 0 22 5 29 12 13 13 17 78 4 78
-5 0 -15 11 -22 25 -11 20 -10 28 4 50 9 14 24 25 33 25 9 0 25 8 35 17 16 14
23 15 38 5 11 -7 22 -12 24 -12 13 0 46 72 46 98 0 26 6 35 38 51 33 17 40 17
57 5 24 -18 35 -18 35 0 0 22 16 28 43 15 22 -10 30 -8 61 17 37 30 50 74 21
74 -18 0 -20 21 -3 38 18 18 24 15 47 -20 19 -30 21 -31 21 -10 0 26 20 36 95
47 65 9 105 33 105 62 0 15 6 23 16 23 13 0 15 7 10 31 -8 41 9 72 32 59 37
-21 93 -39 106 -34 17 7 66 -51 66 -79 0 -33 11 -42 49 -42 25 0 36 5 42 20 8
20 9 18 13 -26 1 -16 113 -119 130 -119 4 0 5 -11 2 -25 -6 -23 -3 -25 24 -25
28 0 30 3 30 38 l1 37 66 -70 c36 -38 77 -87 91 -107 13 -21 30 -38 37 -38 28
0 99 -66 141 -131 40 -61 49 -70 69 -65 13 3 27 2 30 -4 3 -5 15 -10 25 -10
11 0 41 -22 68 -49 27 -27 66 -54 88 -61 49 -16 148 -116 164 -166 7 -21 10
-56 6 -81 -5 -40 -4 -44 12 -38 24 7 99 -59 158 -138 23 -33 63 -81 88 -107
29 -31 46 -58 46 -73 0 -19 10 -30 41 -46 54 -28 108 -86 97 -103 -13 -21 -9
-28 16 -28 59 0 211 -208 231 -315 7 -36 8 -38 16 -17 8 22 10 22 34 6 15 -10
25 -26 25 -40 0 -16 6 -24 18 -25 9 -1 24 -2 33 -3 20 -1 73 -47 89 -75 10
-20 9 -26 -10 -46 -22 -24 -22 -24 -6 -97 43 -192 147 -309 286 -322 25 -2 70
-13 101 -24 40 -14 61 -17 73 -10 12 7 37 6 77 -1 33 -7 63 -10 68 -7 5 3 66
1 136 -4 l128 -10 54 31 c45 26 60 30 93 24 36 -6 40 -5 40 14 0 12 6 21 14
21 8 0 22 8 32 17 24 24 78 43 149 53 33 5 82 16 109 25 28 10 62 14 78 11 17
-3 41 0 56 8 47 24 113 29 177 12 33 -8 86 -18 119 -22 57 -7 58 -7 51 16 -6
20 -5 22 19 18 18 -4 26 -1 26 9 0 22 -80 96 -114 108 -23 7 -32 18 -36 40 -4
24 -10 30 -30 30 -16 0 -41 16 -69 43 -46 44 -75 53 -85 27 -4 -10 -19 -15
-49 -15 -41 0 -45 2 -53 33 -14 47 -62 61 -157 46 -40 -6 -96 -20 -125 -31
-66 -25 -159 -109 -209 -189 -35 -57 -37 -59 -57 -44 -55 41 -83 55 -107 55
-25 0 -44 -22 -36 -38 2 -4 -24 -26 -58 -48 -54 -37 -64 -40 -80 -28 -17 12
-17 14 -2 14 13 0 17 9 17 35 0 25 -4 35 -15 35 -12 0 -13 4 -5 19 15 28 12
41 -7 41 -14 0 -23 20 -42 100 -16 70 -32 111 -52 138 -16 20 -42 55 -59 76
-18 23 -30 51 -30 69 0 29 -1 29 -19 13 -23 -21 -34 -8 -15 19 11 15 17 16 26
7 7 -7 20 -12 29 -12 9 0 20 -10 23 -22 11 -43 55 -80 94 -83 20 -2 50 -6 65
-10 23 -6 29 -4 33 12 3 10 14 25 26 32 16 10 23 10 37 -3 10 -9 25 -16 34
-16 14 0 17 11 17 61 0 59 1 61 24 55 19 -5 25 -1 29 16 3 12 1 31 -6 42 -19
33 -16 76 5 76 12 0 19 12 24 47 6 40 4 49 -13 63 -11 9 -24 27 -28 41 -4 13
-18 43 -31 65 -22 40 -23 42 -5 58 9 9 23 16 29 16 7 0 12 16 12 41 0 40 -1
41 -29 37 -32 -5 -56 21 -46 51 9 28 -12 70 -40 81 -18 7 -25 17 -25 35 0 30
20 33 45 5 23 -25 51 -26 58 -1 5 22 -18 81 -33 81 -5 0 -10 7 -10 15 0 8 -13
30 -30 48 -40 46 -38 57 10 57 22 0 40 2 40 5 0 11 -37 84 -63 123 -35 52 -30
82 14 82 31 0 32 2 31 78 -1 47 -15 72 -41 73 -10 0 -11 2 -4 6 9 3 10 10 3
23 -8 16 -6 19 18 22 23 3 27 8 30 41 2 28 0 37 -10 35 -7 -2 -26 7 -42 20
l-29 22 42 0 c46 0 45 -1 29 35 -7 16 -23 28 -39 32 -19 3 -30 14 -35 32 -18
62 -20 117 -3 137 9 11 8 19 -5 39 -9 13 -16 40 -16 60 0 28 -5 38 -25 47 -15
7 -25 19 -25 33 0 12 -6 30 -14 40 -10 15 -11 25 -4 39 11 21 8 25 -53 69 -16
12 -20 20 -11 23 15 7 16 46 0 62 -9 9 -8 12 6 12 24 0 -62 99 -86 100 -11 0
-18 10 -20 28 -2 20 -13 32 -39 44 -26 13 -41 31 -58 68 -20 45 -21 53 -9 80
7 17 20 30 29 30 23 0 31 40 13 68 -8 12 -12 27 -9 32 4 6 -7 27 -23 48 -24
30 -28 41 -20 62 5 14 7 32 5 41 -2 9 0 24 5 33 6 12 5 16 -6 16 -32 0 -76 35
-76 61 0 19 -8 29 -35 42 -19 9 -35 24 -35 32 0 9 -12 18 -30 22 -30 6 -31 7
-24 49 4 31 2 49 -7 60 -8 9 -14 24 -14 33 0 21 -39 26 -58 7 -10 -11 -25 -14
-46 -10 -25 5 -28 9 -19 24 9 14 1 29 -41 83 -65 85 -77 109 -62 133 10 18 10
17 11 -3 0 -20 5 -23 35 -23 l35 0 -1 48 c-2 53 5 72 26 72 17 0 45 71 45 114
0 30 2 33 25 28 19 -3 25 0 25 13 0 14 9 16 58 13 56 -3 57 -2 72 29 20 42 25
41 25 -4 0 -35 2 -38 33 -41 31 -3 32 -2 32 35 l1 38 14 -34 c23 -51 19 -78
-12 -93 -35 -17 -38 -30 -15 -58 22 -27 52 -22 52 9 0 19 5 20 45 14 38 -5 45
-3 45 11 0 9 5 16 10 16 6 0 10 6 10 13 0 7 9 18 20 25 11 7 20 18 20 25 0 24
18 41 32 30 24 -19 59 -22 99 -8 47 17 64 1 28 -26 l-24 -18 28 -10 c37 -14
52 -14 65 2 7 8 25 11 45 9 33 -4 35 -6 44 -60 4 -32 6 -75 2 -97 -4 -22 -3
-51 3 -64 7 -21 3 -30 -27 -61 -42 -43 -43 -50 -10 -50 18 0 25 -5 25 -20 0
-20 33 -60 49 -60 5 0 17 7 25 16 15 14 16 12 16 -21 0 -26 7 -43 25 -59 14
-13 25 -31 25 -39 0 -9 14 -23 30 -32 17 -9 30 -18 30 -20 0 -3 -12 -24 -26
-47 -19 -30 -23 -43 -14 -48 20 -13 3 -58 -28 -72 -24 -12 -27 -19 -28 -63 -1
-28 -5 -85 -9 -127 -7 -71 -6 -78 10 -78 16 0 16 -2 1 -25 -21 -31 -21 -75 -1
-75 8 0 15 -4 15 -10 0 -5 -5 -10 -10 -10 -9 0 -50 -80 -50 -95 0 -2 12 -16
28 -31 18 -18 23 -28 14 -31 -25 -10 -42 -61 -41 -130 0 -37 -3 -83 -7 -102
-6 -30 -5 -33 14 -27 15 5 22 2 27 -14 11 -35 -3 -60 -35 -60 -21 0 -29 -5
-28 -17 0 -10 0 -22 -2 -28 -5 -21 1 -35 15 -35 21 0 19 -39 -5 -75 -23 -35
-26 -75 -6 -75 7 0 19 -7 26 -15 7 -8 25 -15 41 -15 24 0 29 -4 29 -24 0 -13
-9 -35 -20 -49 -21 -27 -29 -127 -10 -127 6 0 10 -13 10 -29 0 -16 7 -36 15
-45 8 -8 15 -22 15 -31 0 -8 11 -20 24 -27 22 -10 25 -16 24 -69 -1 -44 4 -65
17 -79 10 -11 15 -28 12 -40 -4 -15 0 -20 16 -20 11 0 36 -5 54 -12 l33 -12 0
-111 c0 -60 5 -127 11 -147 12 -47 -7 -96 -75 -192 -87 -121 -104 -196 -46
-196 15 0 39 9 53 20 14 11 34 20 44 20 11 0 28 7 39 15 28 21 60 18 77 -8 8
-13 44 -36 80 -53 40 -17 70 -38 76 -51 16 -34 58 -29 151 19 l81 42 -6 47
c-5 36 -2 55 14 87 13 26 21 64 23 112 3 68 1 73 -24 93 -20 17 -25 28 -21 49
4 20 -1 30 -20 42 -13 9 -27 30 -30 46 -4 16 -23 73 -43 127 -26 69 -39 123
-44 183 -4 47 -16 101 -25 121 -17 36 -17 37 4 60 51 55 36 151 -36 215 -36
32 -44 44 -36 58 8 15 14 12 46 -19 34 -33 41 -36 77 -30 44 7 46 11 25 39
-21 28 -19 42 3 23 10 -10 22 -17 25 -17 4 0 7 28 7 62 0 34 12 156 26 272 14
116 23 230 21 253 -3 26 1 49 9 60 12 17 14 17 34 -4 27 -30 40 -29 40 2 0 15
-12 35 -30 52 -59 52 -68 103 -18 103 22 0 24 43 3 80 -8 14 -14 46 -15 72 0
26 -4 50 -10 53 -17 10 -11 25 10 25 27 0 26 37 -2 67 -21 22 -21 24 -3 37 18
13 18 15 -3 56 -11 23 -18 48 -15 56 6 17 -14 43 -41 53 -12 5 -20 18 -21 37
-2 16 -6 46 -10 67 -6 31 -3 44 20 79 15 23 30 61 33 85 2 24 9 46 13 49 15 9
10 41 -6 48 -12 4 -13 9 -4 23 8 14 6 28 -10 63 -11 24 -17 48 -15 52 10 16
43 8 54 -13 7 -12 18 -18 26 -15 9 3 16 -3 20 -19 14 -56 84 -31 88 31 1 16 7
38 13 48 6 12 8 30 3 47 -6 20 -4 31 6 40 11 9 15 6 20 -19 10 -50 69 -67 106
-30 19 19 21 19 13 2 -5 -10 -8 -32 -7 -47 1 -20 -5 -31 -23 -39 -27 -12 -24
-28 6 -28 12 0 19 -7 19 -20 0 -27 33 -26 60 2 22 24 24 32 21 94 -3 48 15 67
35 39 12 -16 12 -21 -1 -35 -19 -21 -19 -30 0 -30 8 0 15 -8 15 -18 0 -26 20
-42 53 -42 26 0 29 3 25 25 -4 20 -1 25 16 25 29 0 43 11 55 42 8 21 15 25 33
21 13 -3 31 -14 41 -24 10 -11 21 -19 25 -19 18 0 50 31 67 67 17 36 22 39 58
38 32 -1 42 -6 48 -23 6 -17 5 -24 -6 -28 -20 -8 -20 -63 0 -70 8 -4 15 -16
15 -28 0 -19 2 -18 19 8 16 23 28 30 63 33 24 3 47 9 52 14 14 12 57 11 111
-3 36 -10 52 -10 78 0 17 7 49 15 70 17 59 7 116 61 158 150 24 51 27 206 5
228 -8 7 -12 24 -9 38 3 16 -1 30 -11 38 -24 20 -22 103 3 118 17 11 18 17 9
47 -10 33 -13 34 -75 41 -50 5 -63 10 -59 21 6 17 1 17 -25 4 -16 -9 -19 -7
-20 12 -1 45 -42 101 -91 125 -27 13 -48 30 -48 38 0 7 -3 20 -6 29 -4 12 0
16 15 16 44 0 51 80 11 120 -11 11 -20 29 -20 39 0 11 -12 29 -27 40 -25 21
-26 26 -27 121 -1 103 -5 111 -41 86 -18 -12 -25 -10 -57 10 -41 26 -45 35
-24 56 25 26 29 72 7 92 -11 10 -17 24 -14 32 4 10 -4 14 -28 14 -22 0 -29 3
-21 8 23 15 -3 60 -40 70 -31 8 -33 11 -43 73 -10 60 -13 65 -47 81 -47 22
-53 33 -34 60 27 39 -10 117 -74 155 -17 9 -30 24 -30 33 0 9 -7 25 -15 36 -8
10 -15 38 -15 61 0 40 -3 44 -41 63 -31 16 -39 26 -37 42 2 18 -4 23 -36 30
-22 5 -50 21 -67 39 -16 17 -29 33 -29 35 0 16 -70 100 -110 130 -44 33 -50
42 -45 65 4 17 1 30 -9 39 -10 8 -14 21 -10 36 4 14 1 31 -7 41 -8 8 -12 26
-11 39 3 18 -3 25 -22 30 -14 3 -37 3 -50 0 -33 -8 -83 38 -65 60 6 7 15 46
20 86 9 78 35 141 69 165 12 8 20 25 20 42 0 15 9 45 19 67 16 32 17 40 5 42
-20 5 -19 96 2 127 12 19 14 37 9 75 -7 53 -17 60 -53 34 -22 -15 -22 -15 -22
44 0 58 0 59 67 133 36 41 74 77 83 81 10 3 20 13 23 22 4 9 15 16 24 16 10 0
30 12 44 28 49 51 77 72 98 72 11 0 25 9 30 19 21 38 112 101 147 101 18 0 35
4 38 9 3 5 25 18 48 30 24 12 61 35 83 52 189 143 481 304 648 358 69 22 93
35 107 57 23 34 14 56 -30 74 -35 14 -36 18 -14 48 15 21 14 22 -14 22 -15 0
-37 -7 -48 -15 -10 -8 -33 -15 -50 -15 -98 -1 -488 -192 -766 -376 -70 -46
-136 -84 -147 -84 -11 0 -28 -11 -37 -24 -9 -15 -21 -23 -30 -19 -8 3 -26 -5
-40 -17 -13 -13 -24 -18 -24 -12 0 7 -10 12 -22 12 -20 0 -19 2 10 20 25 15
32 26 32 51 0 21 10 42 33 66 94 105 123 125 189 137 28 5 40 14 50 36 7 17
21 33 30 36 10 3 18 9 18 14 0 18 94 143 111 147 10 3 21 13 24 22 3 9 23 36
46 60 22 24 49 61 59 82 11 20 40 52 64 69 24 18 46 40 49 49 2 9 22 25 43 36
22 11 70 49 107 85 37 36 77 69 87 74 11 5 20 15 20 23 0 13 141 154 162 162
20 7 88 81 88 95 0 8 29 35 65 61 36 25 115 95 175 156 61 60 113 109 117 109
18 0 103 68 127 102 15 21 33 38 39 38 7 0 25 16 40 35 15 19 34 35 41 35 7 0
25 12 39 28 46 46 66 62 82 62 8 0 15 9 15 20 0 11 4 20 10 20 5 0 27 16 49
35 21 19 42 35 46 35 4 0 45 38 91 85 47 47 95 87 109 91 13 3 27 15 30 26 4
10 18 23 32 29 26 10 26 10 10 139 -5 37 -17 60 -33 60 -8 0 -14 7 -14 15 0
17 -6 17 -83 -3z m-5977 -2287 c0 -14 -4 -25 -10 -25 -5 0 -10 11 -10 25 0 14
5 25 10 25 6 0 10 -11 10 -25z m-119 -92 c13 -16 12 -17 -3 -4 -17 13 -22 21
-14 21 2 0 10 -8 17 -17z m-771 -13 c0 -5 -4 -10 -10 -10 -5 0 -10 5 -10 10 0
6 5 10 10 10 6 0 10 -4 10 -10z m-1292 -87 c3 -28 1 -29 -28 -25 -18 3 -35 13
-42 26 -9 17 -8 19 3 9 20 -20 39 -15 39 8 0 32 25 17 28 -18z m3366 -8 c-4
-8 -8 -15 -10 -15 -2 0 -4 7 -4 15 0 8 4 15 10 15 5 0 7 -7 4 -15z m-544 -517
c0 -5 -4 -8 -10 -8 -5 0 -10 10 -10 23 0 18 2 19 10 7 5 -8 10 -18 10 -22z
m-4995 -788 c3 -5 -1 -10 -10 -10 -9 0 -13 5 -10 10 3 6 8 10 10 10 2 0 7 -4
10 -10z m8463 -2602 l-3 -23 -13 23 c-10 18 -10 26 0 45 l13 22 3 -22 c2 -13
2 -33 0 -45z m-690 -21 c2 -10 1 -26 -3 -35 -5 -13 -9 -11 -25 13 -10 16 -16
33 -13 37 8 15 38 4 41 -15z m-1738 -1304 c-1 -5 -7 -19 -15 -33 l-14 -25 -1
33 c0 22 5 32 15 32 8 0 15 -3 15 -7z m-327 -93 c4 -16 13 -20 39 -18 18 1 40
5 50 10 11 5 18 3 22 -7 9 -23 63 -19 69 5 3 13 14 20 29 20 12 0 39 2 58 4
25 2 40 -2 53 -17 21 -25 21 -27 1 -78 -17 -40 -16 -41 7 -64 13 -13 29 -30
36 -38 15 -18 12 -67 -4 -67 -17 0 -17 -45 0 -59 10 -7 13 -33 12 -80 l-2 -69
49 2 c27 1 52 -2 54 -6 3 -4 -5 -8 -18 -8 -38 0 -46 -15 -35 -65 7 -30 16 -45
29 -49 24 -6 48 2 48 16 0 5 10 22 22 36 13 17 19 20 15 9 -8 -22 8 -57 26
-57 7 0 25 -14 40 -31 16 -19 33 -29 42 -25 9 3 15 0 15 -8 0 -29 -12 -44 -30
-39 -28 7 -43 -28 -24 -55 8 -12 22 -22 30 -22 16 0 18 -28 4 -65 -9 -24 -6
-31 25 -62 20 -20 41 -33 49 -30 8 3 16 -2 19 -11 3 -9 8 -25 12 -35 5 -13 3
-16 -8 -11 -25 9 -87 -43 -87 -73 0 -23 3 -25 30 -19 22 4 30 2 30 -9 0 -8 5
-15 10 -15 16 0 11 -36 -9 -72 -11 -18 -27 -50 -36 -71 -16 -38 -15 -38 4 -32
20 6 20 5 6 -29 -18 -42 -18 -56 -5 -92 l11 -27 27 25 c30 28 82 63 82 55 0
-3 -13 -31 -30 -62 -47 -90 -37 -162 22 -153 15 2 26 -4 33 -17 12 -23 65 -34
65 -13 0 10 3 9 10 -2 6 -8 7 -27 4 -42 -3 -15 1 -39 9 -55 13 -24 13 -31 1
-47 -10 -14 -11 -24 -3 -39 6 -11 7 -22 3 -26 -17 -12 -33 -73 -25 -90 5 -9
10 -36 12 -61 4 -40 2 -45 -18 -48 -19 -3 -23 -10 -23 -42 0 -32 -19 -70 -36
-70 -2 0 -13 18 -24 39 -11 22 -33 49 -49 61 -25 17 -29 26 -25 49 5 22 0 32
-20 48 -14 12 -26 29 -26 38 0 9 -9 19 -20 22 -11 3 -20 12 -20 19 0 8 -4 14
-9 14 -5 0 -19 16 -31 35 -12 19 -28 35 -36 35 -8 0 -17 7 -20 15 -3 8 -65 63
-137 124 -137 113 -188 163 -226 219 -17 24 -28 31 -41 27 -20 -6 -31 3 -93
78 -28 35 -58 56 -120 85 -45 22 -88 46 -94 54 -13 15 -17 43 -15 106 2 38 4
42 27 42 27 0 26 -3 27 130 0 48 -27 114 -87 210 -18 30 -44 76 -56 103 -12
26 -27 51 -33 55 -18 11 -43 54 -70 121 -14 34 -35 75 -48 91 -46 58 -62 85
-63 105 0 26 24 36 50 20 26 -17 61 -4 70 25 5 16 13 20 27 17 13 -4 29 3 45
17 15 14 33 22 44 19 13 -4 19 0 19 11 0 9 6 16 14 16 8 0 16 6 19 13 3 8 12
5 30 -11 19 -18 31 -22 49 -16 12 4 27 7 32 6 5 -2 6 6 3 18 -4 16 3 25 31 40
47 24 49 24 55 0z m-5743 -960 c0 -5 -5 -10 -11 -10 -5 0 -7 5 -4 10 3 6 8 10
11 10 2 0 4 -4 4 -10z m6549 -141 c-24 -15 -45 -11 -24 5 11 8 24 12 28 9 5
-3 3 -9 -4 -14z m351 -84 c7 -9 8 -15 2 -15 -5 0 -12 7 -16 15 -3 8 -4 15 -2
15 2 0 9 -7 16 -15z m-4358 -967 c-6 -6 -7 0 -4 19 5 21 7 23 10 9 2 -10 0
-22 -6 -28z m2559 -795 c12 -15 12 -16 -4 -10 -10 4 -26 7 -35 7 -15 0 -15 2
-2 10 21 13 25 13 41 -7z m-8377 -37 c2 -14 -2 -26 -8 -26 -6 0 -16 -8 -23
-19 -6 -10 -20 -20 -30 -23 -15 -4 -18 2 -20 37 -2 38 1 43 30 57 36 18 47 12
51 -26z m7193 -226 c12 0 27 -49 18 -58 -3 -3 -5 0 -5 5 0 6 -22 17 -50 24
-27 7 -50 17 -50 21 0 5 5 6 10 3 6 -3 10 2 10 13 0 30 12 34 35 12 12 -11 26
-20 32 -20z m-8355 -67 c27 -25 22 -36 -28 -59 l-46 -21 -10 23 c-6 13 -20 27
-31 30 -21 7 -21 7 2 25 29 23 88 25 113 2z m10693 -582 c3 -5 1 -12 -5 -16
-5 -3 -10 1 -10 9 0 18 6 21 15 7z"/>
<path d="M13080 11665 c-30 -36 33 -91 65 -58 18 17 6 46 -25 63 -24 13 -25
13 -40 -5z"/>
<path d="M12558 11645 c-9 -21 -9 -29 4 -42 33 -33 74 13 43 47 -24 26 -33 25
-47 -5z"/>
<path d="M14398 7519 c-27 -15 -22 -48 8 -59 33 -13 34 -13 34 5 0 8 4 15 9
15 5 0 12 8 15 17 11 29 -31 43 -66 22z"/>
<path d="M8112 5260 l-33 -40 44 0 c50 0 70 16 65 52 -5 39 -40 34 -76 -12z"/>
</g>
</svg>
