<?xml version="1.0" standalone="no"?>
<!DOCTYPE svg PUBLIC "-//W3C//DTD SVG 20010904//EN"
 "http://www.w3.org/TR/2001/REC-SVG-20010904/DTD/svg10.dtd">
<svg version="1.0" xmlns="http://www.w3.org/2000/svg"
 width="1536.000000pt" height="680.000000pt" viewBox="0 0 1536.000000 680.000000"
 preserveAspectRatio="xMidYMid meet">
<metadata>
Created by potrace 1.16, written by Peter Selinger 2001-2019
</metadata>
<g transform="translate(0.000000,680.000000) scale(0.100000,-0.100000)"
fill="#000000" stroke="none">
<path d="M4895 6360 c-393 -61 -787 -219 -1140 -455 -299 -199 -378 -298 -422
-530 -25 -131 -10 -419 33 -615 3 -14 -24 26 -60 88 -35 62 -83 138 -106 167
-63 82 -158 166 -225 200 -54 27 -69 30 -155 30 -87 0 -101 -3 -164 -33 -95
-45 -193 -126 -284 -237 -123 -148 -210 -310 -307 -570 -36 -97 -37 -103 -32
-198 4 -72 2 -97 -6 -94 -19 6 -275 299 -292 334 -14 28 -23 33 -88 47 -221
47 -463 46 -1017 -4 -167 -16 -205 -36 -156 -85 43 -43 86 -42 405 15 134 24
246 25 431 5 74 -8 174 -15 221 -15 l87 0 75 -152 c125 -256 241 -409 328
-434 18 -5 34 -15 36 -21 7 -19 -164 53 -244 103 -83 52 -169 89 -230 99 -47
7 -83 0 -83 -18 0 -8 -49 -24 -123 -41 -267 -62 -434 -124 -972 -361 -292
-128 -332 -150 -372 -203 -74 -98 -28 -107 134 -27 230 113 601 255 993 379
80 26 199 73 265 105 l119 58 44 -48 c101 -113 269 -192 409 -193 l72 -1 6
-45 c42 -313 101 -555 174 -705 124 -254 253 -303 497 -190 325 150 644 535
775 934 l32 99 76 -65 c42 -36 107 -83 144 -105 52 -31 66 -45 61 -57 -17 -40
-34 -119 -34 -161 0 -156 114 -287 332 -382 l98 -43 -59 -52 c-73 -66 -155
-167 -180 -224 l-20 -44 -103 3 c-217 7 -824 -42 -938 -74 -30 -9 -80 -17
-110 -19 -69 -4 -114 -23 -215 -90 -133 -87 -259 -201 -492 -443 -269 -281
-323 -363 -323 -493 0 -43 5 -55 30 -81 l30 -30 -109 -111 c-255 -261 -438
-508 -456 -618 l-6 -35 -64 0 c-52 1 -69 -3 -92 -22 -74 -59 -65 -57 -273 -64
-107 -3 -210 -11 -229 -17 -38 -12 -73 -39 -66 -52 3 -4 -12 -22 -34 -40 -83
-66 -117 -154 -70 -180 65 -34 206 8 224 69 12 43 35 42 114 -9 l64 -41 -47
53 c-44 49 -56 85 -28 83 6 -1 44 -2 83 -2 76 -2 76 -2 54 -54 -19 -47 74 -27
165 34 46 30 75 42 112 46 49 5 51 7 89 65 21 33 39 63 39 66 0 4 16 15 35 26
82 43 575 580 682 741 33 49 40 54 106 74 194 59 405 218 534 401 90 129 190
364 208 492 4 26 10 47 13 47 2 0 36 -21 74 -46 105 -68 437 -241 530 -275
205 -75 348 -34 547 157 92 87 145 161 162 227 12 44 13 45 61 50 98 12 182
77 233 182 21 42 31 78 61 201 1 7 33 5 101 -7 111 -19 450 -59 507 -59 31 0
37 -3 32 -16 -13 -33 -56 -234 -76 -354 -29 -172 -37 -404 -17 -490 15 -61 14
-67 -3 -95 -72 -117 -145 -299 -178 -440 -51 -221 -68 -849 -26 -959 5 -12 0
-16 -17 -16 -13 0 -43 -9 -66 -19 -49 -23 -82 -78 -87 -144 -2 -23 -9 -55 -15
-71 -12 -29 -6 -86 8 -86 4 0 13 18 20 39 6 21 20 49 30 62 l19 23 22 -46 c12
-26 28 -49 36 -52 8 -3 40 0 71 6 45 8 64 18 85 42 25 29 27 30 46 13 10 -9
32 -50 48 -90 l29 -72 3 50 c5 70 -15 204 -34 233 -9 13 -25 27 -35 29 -10 3
-19 10 -19 16 0 6 -7 19 -16 28 -15 17 -14 25 24 111 66 152 160 460 228 743
24 101 25 123 21 270 -3 102 -11 187 -22 235 -11 48 -14 75 -7 78 6 2 36 21
67 44 84 60 176 182 250 333 70 142 185 455 193 523 4 39 7 42 34 42 21 0 48
-17 101 -63 143 -124 235 -164 396 -174 124 -7 229 9 309 48 83 41 105 74 99
151 -4 48 -2 57 13 61 11 3 26 -4 37 -16 69 -78 307 -93 501 -32 88 28 202 98
265 163 l38 39 202 -102 c111 -56 258 -122 327 -147 l125 -46 293 -419 c381
-546 370 -530 407 -553 41 -25 45 -25 91 6 21 15 40 22 41 17 9 -25 134 -242
203 -353 158 -252 339 -486 517 -670 167 -173 262 -241 356 -253 22 -3 50 -16
65 -30 57 -53 136 -73 176 -44 26 19 106 -19 106 -50 0 -12 9 -27 20 -33 28
-15 155 -22 230 -13 63 8 64 9 71 42 11 52 39 74 104 79 89 7 112 -27 80 -117
l-15 -42 41 35 c34 29 45 33 65 26 35 -14 71 7 86 47 17 48 46 43 99 -14 24
-27 52 -59 61 -73 l17 -25 -6 35 c-21 121 -73 186 -202 254 -117 62 -159 60
-368 -15 l-112 -40 -71 33 c-43 21 -70 39 -70 49 0 30 -37 64 -101 94 -35 16
-65 30 -66 30 -1 0 9 42 23 94 44 172 24 289 -82 477 -132 232 -461 603 -728
821 -29 24 -37 36 -31 50 31 76 22 163 -30 292 -19 47 -33 86 -32 87 2 2 70
-17 152 -42 83 -25 238 -67 345 -94 107 -27 303 -81 435 -120 324 -97 434
-122 530 -124 63 -1 87 3 115 19 32 18 53 20 225 19 116 0 313 -11 505 -28
340 -29 595 -36 675 -18 31 8 260 16 610 22 821 15 883 22 1110 135 118 59
182 84 300 116 176 48 250 77 387 155 210 118 390 278 458 406 29 53 35 73 35
128 0 57 -5 75 -44 150 -23 46 -69 123 -101 170 -113 164 -352 411 -530 548
-124 95 -178 150 -210 212 -49 97 -143 168 -450 341 -196 110 -271 146 -490
234 -321 129 -391 171 -455 271 -39 60 -77 88 -235 172 -154 81 -223 108 -535
202 -474 144 -589 192 -701 291 -49 43 -87 67 -147 90 -202 77 -528 140 -908
174 -162 14 -228 29 -272 60 -29 21 -267 95 -442 139 -779 193 -1452 195
-1852 5 -240 -114 -384 -292 -453 -559 -41 -159 -103 -282 -188 -372 -57 -60
-139 -128 -156 -128 -2 0 -31 37 -62 83 -374 533 -643 821 -934 999 -194 119
-412 206 -625 249 -158 32 -498 37 -670 9z"/>
</g>
</svg>
