<?xml version="1.0" standalone="no"?>
<!DOCTYPE svg PUBLIC "-//W3C//DTD SVG 20010904//EN"
 "http://www.w3.org/TR/2001/REC-SVG-20010904/DTD/svg10.dtd">
<svg version="1.0" xmlns="http://www.w3.org/2000/svg"
 width="1536.000000pt" height="1199.000000pt" viewBox="0 0 1536.000000 1199.000000"
 preserveAspectRatio="xMidYMid meet">
<metadata>
Created by potrace 1.16, written by Peter Selinger 2001-2019
</metadata>
<g transform="translate(0.000000,1199.000000) scale(0.100000,-0.100000)"
fill="#000000" stroke="none">
<path d="M5506 11889 c-32 -55 -62 -97 -66 -92 -4 4 -18 44 -30 88 -13 44 -26
83 -30 87 -3 5 -28 -63 -54 -150 -27 -86 -50 -158 -51 -160 -1 -2 -19 43 -40
100 -20 57 -40 106 -44 110 -3 4 -28 -27 -54 -70 l-48 -77 7 99 7 99 -103
-112 -103 -112 -30 48 c-16 26 -31 49 -32 51 -2 2 -35 -20 -74 -48 l-71 -52
-39 34 c-22 18 -69 60 -105 92 -37 32 -68 57 -70 55 -2 -2 -16 -44 -33 -93
l-29 -88 -58 68 c-32 38 -61 70 -65 71 -3 1 -28 -30 -55 -69 l-49 -71 -23 51
c-13 29 -27 52 -33 52 -6 0 -32 -27 -58 -59 -26 -33 -51 -60 -54 -60 -4 -1
-51 35 -105 78 -55 44 -102 76 -105 73 -3 -4 -14 -43 -23 -87 -9 -43 -18 -81
-20 -83 -2 -2 -41 15 -85 38 l-82 41 -10 -31 c-6 -16 -13 -30 -15 -30 -2 0
-25 9 -53 19 l-49 20 -19 -52 -20 -52 -85 -3 -86 -3 -17 -47 c-10 -26 -19 -48
-21 -50 -1 -2 -53 11 -114 28 -62 17 -114 29 -117 27 -2 -3 -12 -33 -22 -68
l-18 -64 -84 -5 -84 -5 -8 -80 c-4 -44 -10 -95 -13 -113 l-5 -33 -45 36 c-24
20 -48 33 -54 30 -5 -3 -10 -23 -11 -43 0 -20 -4 -57 -7 -82 l-8 -45 -38 68
c-21 37 -41 67 -44 67 -4 -1 -33 -36 -65 -80 l-58 -79 -104 -3 -104 -3 69
-129 c39 -72 70 -131 70 -132 0 -1 -33 17 -74 42 -62 37 -136 66 -136 53 0 -2
9 -38 20 -79 11 -41 20 -81 20 -89 0 -7 -36 19 -80 59 l-80 72 0 -126 0 -127
-100 81 c-55 45 -100 78 -100 75 0 -3 16 -37 35 -75 19 -38 35 -72 35 -74 0
-3 -21 4 -46 14 -25 11 -48 20 -51 20 -2 0 5 -17 18 -37 12 -21 31 -53 42 -72
l20 -34 -69 47 c-38 25 -75 46 -83 46 -15 0 -16 5 34 -134 19 -54 34 -100 32
-102 -1 -2 -42 19 -90 46 -48 27 -87 46 -87 43 0 -3 18 -40 41 -82 l41 -76
-61 65 c-33 36 -60 62 -61 59 0 -4 11 -37 25 -73 l25 -67 -57 41 c-72 51 -78
39 -28 -59 19 -39 32 -71 28 -71 -4 0 -29 21 -56 48 l-49 47 7 -78 7 -79 -62
32 -62 31 6 -40 c3 -23 9 -59 12 -81 3 -22 3 -40 -1 -40 -4 0 -43 20 -88 45
-44 25 -82 43 -84 41 -3 -3 11 -48 31 -102 20 -53 34 -99 31 -102 -2 -2 -50
25 -107 61 -56 36 -104 64 -106 63 -2 -2 6 -38 16 -80 l20 -76 -41 7 -40 6 47
-66 c26 -37 45 -67 42 -67 -4 0 -30 12 -58 26 l-51 26 24 -32 c56 -75 55 -73
34 -67 -11 3 -38 8 -60 12 l-40 6 60 -61 60 -62 -59 8 c-65 7 -64 11 -14 -63
15 -23 28 -44 28 -47 0 -2 -38 8 -85 24 -47 16 -85 26 -85 22 0 -3 24 -30 52
-59 l53 -53 -35 6 c-19 3 -41 8 -48 10 -14 4 -12 0 28 -61 44 -66 45 -68 24
-62 -11 3 -44 9 -74 13 l-54 6 37 -45 c20 -25 37 -47 37 -50 0 -3 -57 15 -127
40 -203 70 -364 103 -510 103 l-123 0 -55 -74 c-72 -97 -75 -134 -14 -161 l40
-19 -40 -40 -40 -40 52 -55 53 -56 22 -135 c16 -93 32 -293 52 -642 22 -371
38 -567 60 -725 17 -120 35 -281 41 -358 10 -127 19 -171 104 -485 51 -190
112 -415 135 -500 23 -85 66 -233 95 -328 l54 -172 56 -52 c31 -28 67 -72 80
-97 35 -66 54 -86 105 -105 31 -12 58 -16 87 -11 79 12 95 78 42 165 -24 39
-32 65 -35 112 -2 33 -21 129 -43 212 -22 83 -58 257 -81 386 -22 129 -45 264
-51 300 -7 36 -49 167 -95 291 l-83 226 -26 324 c-61 780 -52 704 -111 920
l-54 195 0 160 c0 144 14 341 24 352 14 13 183 -131 259 -220 48 -57 65 -70
112 -84 30 -10 55 -20 55 -23 0 -3 -21 -18 -48 -33 l-47 -27 33 -7 c45 -9 47
-19 12 -44 -16 -12 -30 -25 -30 -29 0 -4 55 -15 122 -25 114 -16 255 -52 245
-62 -3 -3 -82 -18 -177 -34 -95 -16 -174 -31 -177 -34 -2 -2 3 -18 11 -35 21
-41 21 -41 -21 -41 l-37 0 53 -54 53 -54 -76 -18 c-42 -10 -76 -21 -76 -24 0
-4 43 -24 96 -45 l97 -38 -104 -53 -104 -52 80 -6 c44 -4 98 -10 120 -14 l40
-7 -62 -25 c-34 -13 -60 -27 -58 -31 3 -3 32 -10 66 -13 l62 -7 -53 -54 -54
-54 113 -3 114 -3 -86 -75 c-47 -41 -85 -76 -83 -77 1 -2 68 19 149 46 81 27
147 48 147 45 0 -2 -21 -36 -46 -75 -25 -39 -43 -73 -40 -76 3 -3 35 2 72 11
37 9 68 16 69 14 2 -2 -67 -59 -152 -128 -84 -69 -149 -126 -144 -128 5 -2 58
8 117 23 59 14 108 24 110 22 2 -2 -37 -43 -86 -92 -50 -49 -90 -93 -90 -97 0
-4 30 3 67 17 36 14 68 24 70 22 2 -2 -10 -21 -27 -42 -16 -21 -30 -39 -30
-42 0 -2 23 8 51 23 28 14 52 24 54 22 2 -2 -18 -41 -45 -88 -26 -47 -47 -86
-45 -88 1 -1 32 11 69 28 38 16 70 30 72 30 2 0 4 -26 4 -57 l1 -58 33 58 c18
32 39 64 45 70 12 12 152 49 159 42 3 -2 -12 -45 -32 -95 -20 -49 -36 -93 -36
-96 0 -3 29 10 64 30 35 20 67 36 70 36 3 0 6 -46 6 -102 0 -98 2 -106 31
-152 l31 -49 33 38 32 39 21 -46 c11 -25 23 -56 27 -67 3 -12 9 -21 13 -21 4
0 34 46 67 102 42 72 66 127 82 186 18 72 28 91 64 128 24 24 45 42 47 39 2
-2 -17 -59 -43 -127 -44 -112 -50 -139 -69 -303 -20 -166 -21 -194 -10 -370 7
-109 21 -231 33 -287 33 -157 236 -925 307 -1163 63 -209 70 -226 142 -345 55
-90 101 -151 167 -220 144 -149 414 -476 520 -628 l96 -138 121 -60 c111 -54
136 -72 293 -209 l172 -150 114 -37 c63 -20 157 -48 210 -63 l96 -25 103 20
102 20 57 -43 c45 -34 75 -47 139 -62 45 -10 83 -16 85 -14 1 2 19 23 40 47
l37 42 0 99 0 98 79 69 c44 38 80 72 80 77 1 4 -122 7 -271 7 -185 1 -343 7
-488 20 -118 10 -216 19 -217 19 -1 1 -143 128 -316 283 -297 267 -323 289
-478 383 l-164 101 -2 54 c-2 30 3 79 10 109 12 52 13 54 63 73 l52 20 -21 63
-20 63 20 54 c18 48 19 58 7 103 -8 28 -30 125 -49 216 -19 92 -44 192 -55
224 -21 62 -89 193 -170 327 l-50 83 0 105 0 105 -61 145 -61 145 -115 85
c-63 47 -119 90 -124 97 -8 8 15 46 79 130 92 122 232 277 232 257 0 -7 -16
-55 -35 -108 -19 -53 -35 -99 -35 -101 0 -2 48 23 108 56 59 32 108 54 110 49
2 -5 -4 -44 -12 -86 -9 -42 -16 -82 -16 -90 0 -9 22 4 55 31 31 24 69 52 85
60 61 32 59 38 62 -222 l3 -238 59 107 c33 60 61 106 63 105 2 -2 -1 -78 -7
-168 -5 -90 -10 -175 -10 -189 0 -19 14 -4 62 69 l62 93 32 -113 31 -114 59
118 c32 64 61 117 65 117 3 0 19 -43 34 -95 16 -52 31 -92 35 -90 3 2 35 49
69 104 35 56 66 101 70 101 4 0 19 -52 35 -115 15 -63 31 -113 36 -110 4 2 31
41 61 86 64 97 60 102 84 -116 17 -144 21 -160 107 -405 50 -140 119 -338 154
-440 36 -102 86 -228 112 -279 51 -103 106 -168 503 -601 l188 -205 80 -28
c44 -16 119 -53 166 -83 56 -35 152 -79 268 -124 183 -71 237 -99 379 -196 91
-62 99 -65 298 -104 102 -20 215 -52 328 -92 l173 -61 59 18 c33 10 60 21 60
24 0 3 -68 56 -151 116 l-151 110 128 7 c71 5 165 10 210 14 l80 6 75 64 c40
35 75 68 77 74 3 7 -76 10 -229 10 l-233 0 -236 75 c-129 42 -394 135 -588
208 l-354 131 -115 158 -116 157 -145 93 -145 93 -94 125 -94 125 38 8 c21 5
44 10 51 13 8 2 -13 36 -58 93 -38 49 -70 91 -70 94 0 3 19 8 43 12 23 4 45 9
49 11 4 3 -5 35 -19 72 -39 101 -39 97 6 128 l40 29 -52 53 -51 52 32 32 32
32 -52 53 -51 52 29 6 c71 16 71 17 7 71 l-61 49 -31 116 c-25 95 -31 136 -31
219 l0 103 -70 92 c-38 50 -70 95 -70 98 0 4 26 46 57 93 37 55 59 80 64 72 3
-7 12 -51 19 -98 20 -133 21 -133 66 -54 l39 69 19 -107 c11 -60 23 -108 27
-108 4 0 35 32 69 70 34 38 66 70 70 70 4 0 11 -38 15 -85 4 -47 9 -85 12 -85
3 0 22 13 43 30 l38 30 46 -133 c26 -73 51 -138 55 -145 5 -9 26 9 66 57 32
39 60 70 61 68 1 -1 10 -45 18 -97 28 -162 20 -154 80 -86 l52 59 20 -134 20
-134 58 98 c32 53 62 97 65 97 4 0 17 -53 30 -117 31 -159 35 -169 50 -118 6
22 19 88 28 147 10 60 21 108 25 108 3 0 21 -18 38 -40 17 -22 35 -40 39 -40
4 0 20 39 35 87 l29 87 32 -38 32 -39 21 54 c11 30 28 78 38 107 10 28 22 52
25 52 3 0 19 -34 34 -76 26 -71 29 -75 42 -58 8 10 45 62 83 114 38 52 88 114
112 137 l43 42 72 -133 72 -133 32 -189 c31 -184 33 -192 91 -309 57 -114 66
-127 188 -250 110 -112 138 -147 200 -254 l73 -125 43 -215 43 -216 -20 -153
-21 -154 51 -143 c39 -110 51 -157 51 -202 0 -32 11 -119 23 -193 l23 -135 86
-135 c157 -250 140 -197 164 -505 l22 -270 -54 -195 c-30 -107 -105 -340 -168
-517 -110 -311 -119 -331 -261 -597 -80 -152 -159 -304 -174 -339 -39 -86
-226 -297 -390 -440 -30 -27 -46 -47 -37 -47 22 0 274 56 337 74 29 9 58 16
64 16 8 0 3 -50 -16 -167 -16 -93 -29 -175 -29 -183 0 -8 50 35 111 95 101
100 116 120 166 220 31 61 130 249 220 418 137 257 192 374 330 700 90 216
213 505 273 642 l109 250 -21 83 -21 82 41 53 41 52 -61 62 c-34 34 -60 64
-57 66 2 2 50 36 107 76 56 39 102 76 102 82 0 24 -36 92 -102 192 l-72 108
21 157 21 157 -33 167 c-18 92 -36 214 -40 272 l-7 105 36 17 c20 10 36 22 36
27 0 5 -22 36 -50 69 -40 48 -50 67 -50 96 0 21 -5 44 -10 52 -6 10 -3 21 10
35 l20 21 -90 29 c-50 16 -90 33 -90 37 0 13 29 68 61 115 l29 42 -26 20 c-15
12 -30 21 -35 21 -6 0 -145 165 -190 225 -5 6 7 53 24 105 l33 94 56 18 55 19
-5 88 c-4 82 -3 90 22 129 14 23 31 42 36 42 6 0 27 -33 47 -74 l37 -75 49 45
c46 41 77 55 77 36 0 -5 -9 -59 -20 -122 -12 -62 -18 -115 -16 -118 3 -2 23 3
46 12 22 9 43 16 45 16 3 0 5 -50 5 -111 l0 -112 60 7 61 7 -7 -105 c-6 -86
-4 -107 7 -111 8 -3 54 8 102 24 l87 30 0 -59 c0 -77 25 -106 145 -168 l90
-47 6 -110 c4 -60 14 -143 23 -183 9 -40 16 -104 16 -141 l0 -67 54 -27 c30
-15 58 -33 64 -40 5 -6 27 -78 48 -159 l39 -148 52 0 53 0 0 -86 0 -86 53 42
52 42 6 -164 c6 -152 9 -174 51 -328 l45 -165 45 2 44 2 19 -90 19 -90 43 48
42 48 1 -122 0 -123 70 50 c39 28 74 49 78 46 5 -3 19 -27 32 -55 13 -28 27
-51 30 -51 4 0 33 34 64 75 31 41 58 75 61 75 2 0 34 -43 70 -95 36 -52 70
-97 75 -100 5 -3 36 8 70 25 l60 30 60 -30 c33 -16 61 -30 63 -30 2 0 30 36
62 80 l59 81 45 -3 45 -3 20 99 21 99 62 21 c78 27 233 158 262 223 30 65 51
74 218 86 82 6 151 16 155 21 4 6 22 54 39 106 18 52 58 147 89 210 50 98 65
121 109 154 l51 38 0 87 0 86 78 78 c42 42 83 77 90 77 7 0 27 -7 43 -16 17
-8 32 -14 34 -12 2 2 13 58 25 126 17 101 83 319 103 339 3 2 17 -3 31 -12 32
-21 33 -19 7 106 -10 52 -22 164 -26 249 -3 85 -8 167 -11 182 -5 27 -4 28 40
28 l46 0 0 90 c0 50 4 90 9 90 5 0 25 -7 44 -15 20 -8 39 -15 42 -15 3 0 5 65
5 144 0 161 -31 480 -61 624 -10 52 -19 96 -19 99 0 3 11 -2 25 -11 13 -9 27
-16 30 -16 14 0 3 304 -15 420 -11 69 -20 128 -20 131 0 4 21 2 46 -3 25 -6
48 -8 51 -5 4 4 -37 212 -53 269 -4 13 3 17 36 20 l41 3 -46 62 c-25 35 -45
66 -45 69 0 3 21 3 46 -1 25 -3 44 -3 41 2 -3 4 -30 50 -61 101 l-56 92 -11
118 -11 117 -84 85 c-73 74 -88 95 -114 163 -16 43 -30 80 -30 83 0 2 23 18
50 35 l50 31 -32 40 c-73 90 -71 86 -48 98 20 10 19 12 -20 70 -22 32 -40 61
-40 63 0 3 23 13 50 23 l50 18 -62 63 -62 63 27 28 c15 15 27 31 27 34 0 3
-61 27 -135 54 -74 26 -135 51 -135 55 0 4 34 28 76 54 41 26 74 48 72 50 -2
1 -42 20 -90 41 -49 20 -88 43 -88 49 0 7 7 29 15 48 8 20 15 39 15 42 0 3
-40 5 -90 5 -49 0 -90 2 -90 5 0 2 9 27 20 55 11 27 29 73 40 101 l20 50 -71
31 -71 32 7 103 7 104 -100 -71 c-55 -38 -103 -70 -106 -70 -3 0 -6 15 -7 33
0 17 -3 50 -7 71 l-7 39 -73 -62 c-48 -42 -74 -58 -77 -49 -3 7 -16 51 -30 97
-14 46 -27 87 -30 89 -3 3 -50 -3 -105 -13 -55 -10 -102 -16 -104 -14 -11 12
-97 192 -93 196 3 2 62 -9 133 -26 l128 -29 246 49 c169 35 380 67 680 105
l435 55 100 76 c55 42 113 88 129 101 16 13 192 105 390 204 l361 181 340 84
340 84 230 114 c127 62 328 171 447 242 206 123 230 140 495 363 153 129 369
312 481 408 l202 173 0 62 0 62 -105 53 -105 52 -619 0 -620 0 -579 -95 c-318
-52 -1040 -182 -1603 -289 -563 -107 -1296 -245 -1629 -305 -651 -118 -2322
-411 -2342 -411 -7 1 50 33 127 73 159 81 308 191 329 241 7 17 21 54 31 83
18 51 18 53 0 87 l-19 35 98 106 c54 58 96 108 94 111 -3 3 -51 -7 -106 -21
-55 -14 -107 -25 -114 -25 -9 0 -12 12 -10 45 3 38 1 45 -14 45 -11 0 -82 -36
-159 -79 -77 -43 -141 -77 -142 -76 -2 1 10 41 26 88 17 48 26 87 21 87 -4 0
-56 -20 -116 -45 -59 -25 -111 -45 -115 -45 -5 0 -9 36 -11 79 l-3 79 -139
-90 c-95 -61 -141 -86 -146 -78 -4 7 -11 70 -15 141 -4 71 -10 129 -14 129 -4
0 -51 -18 -104 -39 -54 -22 -98 -39 -98 -38 -1 1 -11 58 -23 126 l-21 125 -71
-61 c-69 -60 -72 -61 -81 -40 -14 29 -131 177 -141 177 -4 0 -47 -36 -97 -80
l-90 -79 -12 61 c-13 67 -36 108 -58 108 -18 0 -66 -40 -167 -139 -53 -51 -79
-70 -82 -60 -3 8 -17 54 -32 104 l-27 90 -56 -63 c-31 -34 -63 -62 -70 -62 -7
0 -44 30 -81 66 l-68 66 -25 -44 c-14 -24 -36 -64 -48 -90 -13 -27 -26 -48
-29 -48 -3 0 -28 38 -54 85 -26 47 -50 85 -53 85 -3 0 -30 -20 -59 -45 -50
-43 -74 -55 -74 -36 0 5 -17 45 -37 90 l-38 81 -59 -101z m2170 -6111 c-3 -13
-14 -97 -23 -187 -13 -127 -14 -170 -5 -194 18 -47 -1 -21 -52 71 -25 46 -68
114 -95 152 -37 51 -47 71 -38 78 25 20 189 102 204 102 11 0 14 -6 9 -22z"/>
</g>
</svg>
