<?xml version="1.0" encoding="UTF-8"?>
<svg width="1200pt" height="1200pt" version="1.1" viewBox="0 0 1200 1200" xmlns="http://www.w3.org/2000/svg">
 <path d="m602.84 244.34c-6.0547 0.0625-11.832 2.543-16.047 6.8906-4.2148 4.3477-6.5156 10.199-6.3906 16.254v7.5547h-131.54c-0.78906-0.039063-1.5742-0.039063-2.3633 0-4.7383 0.50391-9.2031 2.4883-12.75 5.668l-68.016 60.457c-4.8008 4.3008-7.543 10.441-7.543 16.887 0 6.4453 2.7422 12.586 7.543 16.887l68.016 60.457c4.1367 3.7656 9.5195 5.8672 15.113 5.9023h131.54v24.09h-57.621c-6.0117 0-11.777 2.3906-16.031 6.6406-4.25 4.25-6.6406 10.02-6.6406 16.031v120.91c0 6.0117 2.3906 11.777 6.6406 16.031 4.2539 4.25 10.02 6.6406 16.031 6.6406h57.621v24.324h-131.54c-0.78906-0.042968-1.5742-0.042968-2.3633 0-4.7383 0.5-9.2031 2.4844-12.75 5.668l-68.016 60.457c-4.8789 4.3047-7.6758 10.496-7.6758 17.004 0 6.5039 2.7969 12.699 7.6758 17.004l68.016 60.457c4.1719 3.6797 9.5508 5.6953 15.113 5.668h131.54v110.29c-0.082032 6.0703 2.2656 11.918 6.5273 16.238 4.2617 4.3242 10.078 6.7578 16.145 6.7578 6.0703 0 11.887-2.4336 16.148-6.7578 4.2578-4.3203 6.6094-10.168 6.5234-16.238v-110.29h51.484c6.0117-0.003907 11.777-2.3906 16.031-6.6406 4.25-4.2539 6.6406-10.02 6.6406-16.031v-120.91c0-6.0156-2.3906-11.781-6.6406-16.031-4.2539-4.2539-10.02-6.6406-16.031-6.6406h-51.484v-24.324h125.4c5.5625 0.027343 10.941-1.9883 15.113-5.668l68.016-60.457c4.8008-4.3008 7.543-10.441 7.543-16.887 0-6.4453-2.7422-12.586-7.543-16.887l-68.016-60.457c-4.1367-3.7656-9.5195-5.8672-15.113-5.9023h-125.4v-24.09h51.484c6.0117 0 11.777-2.3867 16.031-6.6406 4.25-4.25 6.6406-10.016 6.6406-16.031v-120.91c0-6.0117-2.3906-11.777-6.6406-16.031-4.2539-4.25-10.02-6.6367-16.031-6.6406h-51.484v-7.5547c0.12891-6.1367-2.2344-12.062-6.5547-16.422-4.3164-4.3633-10.215-6.7891-16.352-6.7227zm-145.71 76.043h197.43v75.57h-197.2l-42.508-37.785zm88.324 190.35h197.2l42.508 37.785-42.273 37.785h-197.43zm-88.09 190.58h197.2v75.57h-197.2l-42.273-37.785z"/>
</svg>
