<?xml version="1.0" encoding="UTF-8"?>
<svg width="1200pt" height="1200pt" version="1.1" viewBox="0 0 1200 1200" xmlns="http://www.w3.org/2000/svg">
 <g>
  <path d="m755.27 25.781h-649.22c-21.281-0.023438-41.699 8.4102-56.758 23.449-15.055 15.039-23.516 35.449-23.516 56.73v162.23c0 21.266 8.4492 41.66 23.484 56.695s35.43 23.484 56.695 23.484h649.22c21.266 0 41.66-8.4492 56.695-23.484s23.484-35.43 23.484-56.695v-162.23c0-21.25-8.4336-41.629-23.449-56.664-15.02-15.031-35.387-23.492-56.637-23.516zm-55.312 240.38h-538.69c-7.7656 0-14.062-6.2969-14.062-14.062s6.2969-14.062 14.062-14.062h538.69c7.7656 0 14.062 6.2969 14.062 14.062s-6.2969 14.062-14.062 14.062zm0-130.01h-538.69c-7.7656 0-14.062-6.2969-14.062-14.062 0-7.7656 6.2969-14.062 14.062-14.062h538.69c7.7656 0 14.062 6.2969 14.062 14.062 0 7.7656-6.2969 14.062-14.062 14.062z"/>
  <path d="m755.27 438.7h-649.22c-21.281-0.023437-41.699 8.4102-56.758 23.449-15.055 15.039-23.516 35.449-23.516 56.73v162.23c0 21.266 8.4492 41.66 23.484 56.695s35.43 23.484 56.695 23.484h649.22c21.266 0 41.66-8.4492 56.695-23.484s23.484-35.43 23.484-56.695v-162.23c0-21.25-8.4336-41.629-23.449-56.664-15.02-15.031-35.387-23.492-56.637-23.516zm-55.312 240.38h-538.69c-7.7656 0-14.062-6.2969-14.062-14.062s6.2969-14.062 14.062-14.062h538.69c7.7656 0 14.062 6.2969 14.062 14.062s-6.2969 14.062-14.062 14.062zm0-130.03h-538.69c-7.7656 0-14.062-6.2969-14.062-14.062s6.2969-14.062 14.062-14.062h538.69c7.7656 0 14.062 6.2969 14.062 14.062s-6.2969 14.062-14.062 14.062z"/>
  <path d="m755.27 851.62h-649.22c-21.281-0.023438-41.699 8.4102-56.758 23.449-15.055 15.039-23.516 35.449-23.516 56.73v162.21c-0.007812 21.27 8.4375 41.668 23.477 56.711 15.035 15.043 35.434 23.492 56.703 23.492h649.22c21.266 0 41.66-8.4492 56.695-23.484s23.484-35.43 23.484-56.695v-162.23c0-21.25-8.4336-41.629-23.449-56.664-15.02-15.031-35.387-23.492-56.637-23.516zm-55.312 240.35h-538.69c-7.7656 0-14.062-6.2969-14.062-14.062 0-7.7656 6.2969-14.062 14.062-14.062h538.69c7.7656 0 14.062 6.2969 14.062 14.062 0 7.7656-6.2969 14.062-14.062 14.062zm0-130.01h-538.69c-7.7656 0-14.062-6.2969-14.062-14.062s6.2969-14.062 14.062-14.062h538.69c7.7656 0 14.062 6.2969 14.062 14.062s-6.2969 14.062-14.062 14.062z"/>
  <path d="m1122.7 99.586h-93.445v-6.8438c-0.0625-9.1445-4.9648-17.57-12.887-22.145-7.918-4.5742-17.668-4.6133-25.621-0.097656l-101.25 58.406c-7.918 4.6211-12.785 13.098-12.785 22.266s4.8672 17.645 12.785 22.266l101.25 58.594c7.9531 4.5156 17.703 4.4766 25.621-0.097656 7.9219-4.5742 12.824-13 12.887-22.145v-6.9609h41.883v823.48h-160.1c-18.422 0-35.445 9.8281-44.656 25.781-9.207 15.953-9.207 35.609 0 51.562 9.2109 15.953 26.234 25.781 44.656 25.781h211.66c13.676 0 26.789-5.4336 36.461-15.102 9.668-9.6719 15.102-22.785 15.102-36.461v-926.67c0.011719-13.684-5.4141-26.809-15.086-36.492-9.6719-9.6797-22.793-15.117-36.477-15.117z"/>
 </g>
</svg>
