<?xml version="1.0" encoding="UTF-8"?>
<svg width="1200pt" height="1200pt" version="1.1" viewBox="0 0 1200 1200" xmlns="http://www.w3.org/2000/svg">
 <path d="m51.512 1175h356.85l68.449-68.449-68.148-68.148c-7.3125-7.3125-7.3125-19.199 0-26.512s19.199-7.3125 26.512 0l68.148 68.148 59.727-59.727-104.32-104.31c-7.3125-7.3125-7.3125-19.199 0-26.512 7.3242-7.3242 19.199-7.3242 26.523 0l104.31 104.31 59.727-59.711s-68.148-68.148-68.148-68.148c-7.3242-7.3242-7.3242-19.199 0-26.523 7.3125-7.3125 19.199-7.3125 26.512 0l68.148 68.148 59.711-59.711-104.31-104.32c-7.3242-7.3125-7.3242-19.199 0-26.512 7.3125-7.3125 19.199-7.3125 26.512 0l104.32 104.32 62.699-62.711c-4.1484-0.41406-8.1875-2.2109-11.363-5.3867l-59.773-59.773c-7.3125-7.3125-7.3125-19.199 0-26.512 7.3242-7.3242 19.199-7.3242 26.523 0l59.773 59.773c3.1758 3.1758 4.9609 7.2109 5.3867 11.363l62.699-62.711-104.32-104.31c-7.3125-7.3242-7.3125-19.199 0-26.523 7.3242-7.3125 19.199-7.3125 26.523 0l104.31 104.32 77.812-77.801-178.43-178.43-782.38 782.36z" fill-rule="evenodd"/>
 <path d="m628.94 187.69-78.727 78.738c2.1016 0.89844 4.0742 2.2109 5.7891 3.9375l104.32 104.31c7.3125 7.3242 7.3125 19.199 0 26.523-7.3242 7.3125-19.199 7.3125-26.523 0l-104.31-104.32c-1.7266-1.7109-3.0391-3.6875-3.9375-5.7891l-147.81 147.8c2.1133 0.91406 4.0742 2.2266 5.7891 3.9375l104.32 104.32c7.3125 7.3125 7.3125 19.199 0 26.512-7.3125 7.3242-19.199 7.3242-26.512 0l-104.32-104.31c-1.7109-1.7266-3.0234-3.6875-3.9375-5.8008l-147.8 147.81c2.1016 0.89844 4.0742 2.2266 5.7891 3.9375l104.31 104.31c7.3242 7.3242 7.3242 19.199 0 26.523-7.3125 7.3125-19.188 7.3125-26.512 0l-104.31-104.32c-1.7266-1.7109-3.0391-3.6875-3.9375-5.7891l-155.61 155.61v356.85l782.36-782.38-178.43-178.43z" fill-rule="evenodd"/>
 <path d="m655.46 161.18 383.36 383.36 125.04-125.04c7.1367-7.125 11.137-16.801 11.137-26.875 0-10.086-4-19.75-11.137-26.887l-329.6-329.6c-7.1367-7.1367-16.801-11.137-26.887-11.137-10.074 0-19.75 4-26.875 11.137z" fill-rule="evenodd"/>
</svg>
