<?xml version="1.0" encoding="UTF-8"?>
<svg width="1200pt" height="1200pt" version="1.1" viewBox="0 0 1200 1200" xmlns="http://www.w3.org/2000/svg">
 <path d="m421.62 1188.3s618.02-618.04 755.5-755.5c10.648-10.648 16.625-25.086 16.625-40.137 0-15.062-5.9766-29.5-16.625-40.137l-329.61-329.61c-10.637-10.648-25.074-16.625-40.137-16.625-15.051 0-29.488 5.9766-40.137 16.625-137.46 137.48-755.5 755.5-755.5 755.5-7.3125 7.3125-7.3125 19.199 0 26.512 7.3242 7.3242 19.199 7.3242 26.523 0 0 0 618.02-618.02 755.5-755.5 3.6133-3.6133 8.5117-5.6367 13.613-5.6367 5.1133 0 10.012 2.0234 13.625 5.6367l329.61 329.61c3.6133 3.6133 5.6367 8.5117 5.6367 13.625 0 5.1016-2.0234 10-5.6367 13.613-137.48 137.48-755.5 755.5-755.5 755.5-7.3242 7.3242-7.3242 19.199 0 26.523 7.3125 7.3125 19.199 7.3125 26.512 0z" fill-rule="evenodd"/>
 <path d="m38.262 1188.3 804.77-804.79c7.3125-7.3125 7.3125-19.199 0-26.512s-19.199-7.3125-26.512 0l-804.79 804.77c-7.3125 7.3242-7.3125 19.199 0 26.523 7.3242 7.3125 19.199 7.3125 26.523 0z" fill-rule="evenodd"/>
 <path d="m803.66 571.06 104.32 104.31c7.3125 7.3242 19.199 7.3242 26.512 0 7.3242-7.3125 7.3242-19.199 0-26.512l-104.31-104.32c-7.3242-7.3125-19.199-7.3125-26.523 0-7.3125 7.3242-7.3125 19.199 0 26.523z" fill-rule="evenodd"/>
 <path d="m529.49 296.88 104.31 104.32c7.3242 7.3125 19.199 7.3125 26.523 0 7.3125-7.3242 7.3125-19.199 0-26.523l-104.32-104.31c-7.3125-7.3242-19.199-7.3242-26.512 0-7.3242 7.3125-7.3242 19.199 0 26.512z" fill-rule="evenodd"/>
 <path d="m631.2 743.52 104.31 104.32c7.3242 7.3125 19.199 7.3125 26.523 0 7.3125-7.3125 7.3125-19.199 0-26.512l-104.32-104.32c-7.3125-7.3125-19.199-7.3125-26.512 0-7.3242 7.3125-7.3242 19.199 0 26.512z" fill-rule="evenodd"/>
 <path d="m357.01 469.35 104.32 104.31c7.3125 7.3242 19.199 7.3242 26.512 0 7.3125-7.3125 7.3125-19.199 0-26.512l-104.32-104.32c-7.3125-7.3125-19.188-7.3125-26.512 0-7.3125 7.3242-7.3125 19.199 0 26.523z" fill-rule="evenodd"/>
 <path d="m458.73 916 104.32 104.31c7.3125 7.3242 19.199 7.3242 26.512 0 7.3242-7.3125 7.3242-19.188 0-26.512l-104.31-104.31c-7.3242-7.3242-19.199-7.3242-26.523 0-7.3125 7.3125-7.3125 19.199 0 26.512z" fill-rule="evenodd"/>
 <path d="m184.55 641.81 104.31 104.32c7.3242 7.3125 19.199 7.3125 26.512 0 7.3242-7.3242 7.3242-19.199 0-26.523l-104.31-104.31c-7.3125-7.3242-19.199-7.3242-26.512 0-7.3242 7.3125-7.3242 19.199 0 26.512z" fill-rule="evenodd"/>
 <path d="m753.6 693.46 59.773 59.773c7.3242 7.3242 19.199 7.3242 26.523 0 7.3125-7.3125 7.3125-19.199 0-26.512l-59.773-59.773c-7.3242-7.3242-19.199-7.3242-26.523 0-7.3125 7.3125-7.3125 19.199 0 26.512z" fill-rule="evenodd"/>
 <path d="m581.14 865.94 68.148 68.148c7.3125 7.3125 19.199 7.3125 26.512 0 7.3125-7.3242 7.3125-19.199 0-26.523l-68.148-68.148c-7.3125-7.3125-19.199-7.3125-26.512 0-7.3242 7.3242-7.3242 19.199 0 26.523z" fill-rule="evenodd"/>
 <path d="m408.66 1038.4 68.148 68.148c7.3125 7.3242 19.199 7.3242 26.512 0 7.3242-7.3125 7.3242-19.199 0-26.512l-68.148-68.148c-7.3125-7.3125-19.199-7.3125-26.512 0s-7.3125 19.199 0 26.512z" fill-rule="evenodd"/>
 <path d="m1038.8 544.54-383.36-383.36c-7.3242-7.3125-19.199-7.3125-26.523 0-7.3125 7.3125-7.3125 19.199 0 26.512l383.38 383.38c7.3125 7.3125 19.199 7.3125 26.512 0 7.3125-7.3242 7.3125-19.199 0-26.523z" fill-rule="evenodd"/>
</svg>
