<?xml version="1.0" encoding="UTF-8"?>
<svg width="1200pt" height="1200pt" version="1.1" viewBox="0 0 1200 1200" xmlns="http://www.w3.org/2000/svg">
 <path d="m996.43 235.71v-21.43c-70.164-1.6602-139.25 17.484-198.55 55.016-55.793 35.656-120.97 53.809-187.16 52.129v10.715l-0.23047-10.715c-101.51 2.1562-152.03 74.57-200.88 144.64-48.047 68.867-93.41 133.93-184.61 133.93v21.43c89.816 0 135.21 90.801 183.27 186.93 48.863 97.727 99.398 198.78 202.44 198.78h385.71v-21.43h-385.71c-89.816 0-135.21-90.801-183.27-186.93-28.676-57.352-58.012-115.68-98.117-154.23 29.695 16.234 57.082 36.375 81.43 59.883 48.891 43.473 99.461 88.422 199.96 88.422 64.422-1.5391 128.55 9.1602 188.98 31.539 62.949 23.129 129.68 34.238 196.73 32.75v-21.43c-64.75 1.5664-129.21-9.168-189.95-31.641-22.309-7.7773-45.004-14.395-67.996-19.824 25.039-3.8203 46.266-8.4375 66.93-13.043 62.512-15.156 126.7-22.281 191.02-21.207v-21.43c-65.879-1.1016-131.63 6.1953-195.66 21.723-62.18 15.18-126.05 22.285-190.05 21.137-92.355 0-137.72-40.324-185.74-83.004-29.324-28.883-63.41-52.484-100.76-69.77 35.961-2.2109 63.574-5.4336 90.367-8.6328 64.949-8.5625 130.48-11.918 195.96-10.023l0.16797-10.715v10.715h385.71v-21.43h-385.55c-66.453-1.8398-132.94 1.5586-198.86 10.172-28.227 3.3711-57.168 6.793-96.324 8.9688 46.961-27.129 79.629-73.695 111.5-119.39 47.859-68.66 93.09-133.5 183.67-135.47 66.141-1.6484 131.27 16.504 187.02 52.125 59.305 37.535 128.39 56.676 198.55 55.02v-21.43c-66.523 1.7305-132.05-16.484-188.13-52.305-22.066-12.867-45.082-24.035-68.84-33.41h256.97v-21.426h-256.97c23.758-9.375 46.773-20.543 68.84-33.41 56.082-35.82 121.61-54.035 188.13-52.305z"/>
 <path d="m257.14 610.71c0 17.75-14.391 32.141-32.145 32.141s-32.145-14.391-32.145-32.141c0-17.754 14.391-32.145 32.145-32.145s32.145 14.391 32.145 32.145z"/>
 <path d="m1028.6 225c0 17.754-14.391 32.145-32.141 32.145-17.754 0-32.145-14.391-32.145-32.145s14.391-32.145 32.145-32.145c17.75 0 32.141 14.391 32.141 32.145z"/>
 <path d="m1028.6 332.14c0 17.75-14.391 32.141-32.141 32.141-17.754 0-32.145-14.391-32.145-32.141 0-17.754 14.391-32.145 32.145-32.145 17.75 0 32.141 14.391 32.141 32.145z"/>
 <path d="m1028.6 439.29c0 17.754-14.391 32.145-32.141 32.145-17.754 0-32.145-14.391-32.145-32.145 0-17.75 14.391-32.141 32.145-32.141 17.75 0 32.141 14.391 32.141 32.141z"/>
 <path d="m1028.6 589.29c0 17.754-14.391 32.145-32.141 32.145-17.754 0-32.145-14.391-32.145-32.145 0-17.75 14.391-32.141 32.145-32.141 17.75 0 32.141 14.391 32.141 32.141z"/>
 <path d="m642.86 589.29c0 17.754-14.391 32.145-32.141 32.145-17.754 0-32.145-14.391-32.145-32.145 0-17.75 14.391-32.141 32.145-32.141 17.75 0 32.141 14.391 32.141 32.141z"/>
 <path d="m642.86 782.14c0 17.75-14.391 32.141-32.141 32.141-17.754 0-32.145-14.391-32.145-32.141 0-17.754 14.391-32.145 32.145-32.145 17.75 0 32.141 14.391 32.141 32.145z"/>
 <path d="m642.86 996.43c0 17.75-14.391 32.141-32.141 32.141-17.754 0-32.145-14.391-32.145-32.141 0-17.754 14.391-32.145 32.145-32.145 17.75 0 32.141 14.391 32.141 32.145z"/>
 <path d="m642.86 332.14c0 17.75-14.391 32.141-32.141 32.141-17.754 0-32.145-14.391-32.145-32.141 0-17.754 14.391-32.145 32.145-32.145 17.75 0 32.141 14.391 32.141 32.145z"/>
 <path d="m1028.6 739.29c0 17.754-14.391 32.145-32.141 32.145-17.754 0-32.145-14.391-32.145-32.145 0-17.75 14.391-32.141 32.145-32.141 17.75 0 32.141 14.391 32.141 32.141z"/>
 <path d="m1028.6 846.43c0 17.75-14.391 32.141-32.141 32.141-17.754 0-32.145-14.391-32.145-32.141 0-17.754 14.391-32.145 32.145-32.145 17.75 0 32.141 14.391 32.141 32.145z"/>
 <path d="m1028.6 996.43c0 17.75-14.391 32.141-32.141 32.141-17.754 0-32.145-14.391-32.145-32.141 0-17.754 14.391-32.145 32.145-32.145 17.75 0 32.141 14.391 32.141 32.145z"/>
</svg>
