<?xml version="1.0" encoding="UTF-8"?>
<svg width="1200pt" height="1200pt" version="1.1" viewBox="0 0 1200 1200" xmlns="http://www.w3.org/2000/svg">
 <path d="m979.2 637.2c-12 0-22.801 2.3984-33.602 6l-73.199-116.4c19.199-20.398 31.199-48 31.199-78 0-63.602-51.602-114-114-114-12 0-22.801 2.3984-33.602 6l-73.199-116.4c19.199-20.398 31.199-48 31.199-78 0-63.602-51.602-114-114-114-62.398 0-114 51.602-114 114 0 30 12 57.602 31.199 78l-73.195 115.2c-10.801-3.6016-21.602-6-33.602-6-63.602 0-114 51.602-114 114 0 30 12 57.602 31.199 78l-73.199 116.4c-10.801-3.6016-21.602-6-33.602-6-63.602 0-114 51.602-114 114s51.602 114 114 114c25.199 0 49.199-8.3984 68.398-22.801l206.4 165.6c-6 14.398-9.6016 30-9.6016 46.801 0 63.602 51.602 114 114 114 62.398 0 114-51.602 114-114 0-40.801-21.602-76.801-54-97.199l55.199-177.6h152.4c13.199 49.199 57.602 85.199 110.4 85.199 63.602 0 114-51.602 114-114 0.011719-62.398-49.188-112.8-112.79-112.8zm-133.2-189.6c0 31.199-25.199 56.398-56.398 56.398-31.199 0-56.398-25.199-56.398-56.398 0-31.199 25.199-56.398 56.398-56.398 31.199-0.003906 56.398 26.398 56.398 56.398zm-166.8-28.801h-158.4c-4.8008-19.199-14.398-36-27.602-49.199l73.199-116.4c10.801 3.6016 21.602 6 33.602 6s22.801-2.3984 33.602-6l73.199 116.4c-13.199 14.398-22.801 31.199-27.602 49.199zm-213.6 303.6h-134.4c-4.8008-19.199-14.398-36-27.602-49.199l73.199-116.4c10.801 3.6016 21.602 6 33.602 6h4.8008zm66 241.2-206.4-165.6c2.3984-6 4.8008-12 6-16.801h152.4l55.199 177.6c-2.3984 1.1992-4.7969 3.5977-7.1953 4.8008zm68.398-876c31.199 0 56.398 25.199 56.398 56.398s-25.199 56.398-56.398 56.398-56.398-25.199-56.398-56.398 25.199-56.398 56.398-56.398zm-189.6 303.6c31.199 0 56.398 25.199 56.398 56.398 0.003906 31.203-25.195 56.402-56.398 56.402-31.199 0-56.398-25.199-56.398-56.398 0-31.203 25.199-56.402 56.398-56.402zm-189.6 417.6c-31.199 0-56.398-25.199-56.398-56.398 0-31.199 25.199-56.398 56.398-56.398s56.398 25.199 56.398 56.398c0 31.199-25.199 56.398-56.398 56.398zm379.2 303.6c-31.199 0-56.398-25.199-56.398-56.398s25.199-56.398 56.398-56.398 56.398 25.199 56.398 56.398-25.199 56.398-56.398 56.398zm0-171.6h-4.8008l-50.398-160.8h110.4l-50.398 160.8c0 1.1992-2.4023 0-4.8008 0zm73.199-218.4h-146.4l-55.199-177.6c24-15.602 42-39.602 49.199-67.199h158.4c7.1992 28.801 25.199 52.801 49.199 67.199zm111.6-159.6h4.8008c12 0 22.801-2.3984 33.602-6l73.199 116.4c-13.199 13.199-22.801 30-27.602 49.199h-134.4zm194.4 246c-31.199 0-56.398-25.199-56.398-56.398 0-31.203 25.199-56.402 56.398-56.402s56.398 25.199 56.398 56.398c0.003906 31.203-25.199 56.402-56.398 56.402z"/>
</svg>
