<?xml version="1.0" encoding="UTF-8"?>
<svg width="1200pt" height="1200pt" version="1.1" viewBox="0 0 1200 1200" xmlns="http://www.w3.org/2000/svg">
 <path d="m340.24 576.43c-6.2656-0.027344-12.281 2.4414-16.73 6.8555-4.4453 4.4141-6.957 10.414-6.9766 16.68-0.027344 6.293 2.4648 12.34 6.9141 16.789 4.4531 4.4531 10.5 6.9414 16.793 6.918h519.51c6.2969 0.023438 12.34-2.4648 16.793-6.918 4.4492-4.4492 6.9414-10.496 6.9141-16.789-0.019531-6.2656-2.5312-12.266-6.9766-16.68-4.4453-4.4141-10.465-6.8828-16.73-6.8555z"/>
 <path d="m387.48 316.68c-38.84 0-70.953 31.938-70.953 70.777v425.02c0 38.844 32.113 70.953 70.953 70.953h425.02c38.844 0 70.953-32.109 70.953-70.953v-425.02c0-38.84-32.109-70.777-70.953-70.777zm0 47.242h425.02c13.492 0 23.711 10.043 23.711 23.535v425.02c0 13.492-10.215 23.707-23.711 23.707h-425.02c-13.492 0-23.707-10.215-23.707-23.707v-425.02c0-13.492 10.219-23.535 23.707-23.535z"/>
 <path d="m340.24 706.31c-6.2656-0.023438-12.281 2.4414-16.73 6.8555-4.4453 4.4141-6.957 10.414-6.9766 16.68-0.027344 6.2969 2.4648 12.34 6.9141 16.793 4.4531 4.4492 10.5 6.9414 16.793 6.9141h519.51c6.2969 0.027344 12.34-2.4648 16.793-6.9141 4.4492-4.4531 6.9414-10.496 6.9141-16.793-0.019531-6.2656-2.5312-12.266-6.9766-16.68-4.4453-4.4141-10.465-6.8789-16.73-6.8555z"/>
 <path d="m670.77 481.95v377.78h47.242v-377.78z"/>
 <path d="m481.97 481.95v377.78h47.242v-377.78z"/>
 <path d="m340.24 446.55c-6.2656-0.023438-12.281 2.4414-16.73 6.8555-4.4453 4.4141-6.957 10.414-6.9766 16.68-0.027344 6.2969 2.4648 12.34 6.9141 16.793 4.4531 4.4531 10.496 6.9414 16.793 6.918h519.51c6.2969 0.023438 12.34-2.4688 16.793-6.918 4.4492-4.4531 6.9414-10.496 6.9141-16.793-0.019531-6.2656-2.5312-12.266-6.9766-16.68-4.4453-4.4141-10.465-6.8789-16.73-6.8555z"/>
</svg>
