<?xml version="1.0" encoding="UTF-8"?>
<svg width="1200pt" height="1200pt" version="1.1" viewBox="0 0 1200 1200" xmlns="http://www.w3.org/2000/svg">
 <g>
  <path d="m1163.5 999.18h-1127.1c-20.102 0-36.457-16.656-36.457-37.129v-724.1c0-20.473 16.355-37.117 36.457-37.117h1127.1c20.102 0 36.457 16.656 36.457 37.117v724.11c-0.003906 20.469-16.359 37.125-36.461 37.125zm-1115.5-48h1104v-702.36h-1104z"/>
  <path d="m1176 461.57h-1152c-13.246 0-24-10.754-24-24v-103.78c0-13.246 10.754-24 24-24h1152c13.246 0 24 10.754 24 24v103.78c0 13.262-10.754 24-24 24zm-1128-48h1104v-55.777l-1104 0.003907z"/>
  <path d="m1176 677.45h-1152c-13.246 0-24-10.754-24-24v-103.79c0-13.246 10.754-24 24-24h1152c13.246 0 24 10.754 24 24v103.79c0 13.258-10.754 24-24 24zm-1128-48h1104v-55.789h-1104z"/>
  <path d="m1176 893.33h-1152c-13.246 0-24-10.754-24-24v-103.79c0-13.246 10.754-24 24-24h1152c13.246 0 24 10.754 24 24v103.79c0 13.262-10.754 24-24 24zm-1128-48h1104v-55.789h-1104z"/>
  <path d="m341.27 999.18h-189.61c-13.246 0-24-10.754-24-24v-641.39c0-13.246 10.754-24 24-24h189.61c13.246 0 24 10.754 24 24v641.39c0 13.25-10.754 24-24 24zm-165.61-48h141.61v-593.39h-141.61z"/>
  <path d="m755.05 998.15h-189.61c-13.246 0-24-10.754-24-24v-641.4c0-13.246 10.754-24 24-24h189.61c13.246 0 24 10.754 24 24v641.39c-0.003907 13.262-10.754 24.016-24.004 24.016zm-165.61-48h141.61l-0.003907-593.4h-141.61z"/>
  <path d="m1176 999.18h-196.77c-13.246 0-24-10.754-24-24v-641.39c0-13.246 10.754-24 24-24h196.77c13.246 0 24 10.754 24 24v641.39c0 13.25-10.754 24-24 24zm-172.77-48h148.77v-593.39h-148.77z"/>
 </g>
</svg>
