<?xml version="1.0" encoding="UTF-8"?>
<svg width="1200pt" height="1200pt" version="1.1" viewBox="0 0 1200 1200" xmlns="http://www.w3.org/2000/svg">
 <g fill-rule="evenodd">
  <path d="m1026.8 107.73c0-5.5352-4.4648-10-10-10h-835.2c-5.5352 0-10 4.4648-10 10v944.4c0 5.5352 4.4648 10 10 10h835.2c5.5352 0 10-4.4648 10-10zm-20 103.07v831.33h-815.2v-831.33z"/>
  <path d="m344 107.73v944.4c0 3.668 2.9336 6.668 6.668 6.668 3.668 0 6.668-3 6.668-6.668v-944.4c0-3.668-3-6.668-6.668-6.668-3.7344 0-6.668 3-6.668 6.668z"/>
  <path d="m513 107.73v944.4c0 3.668 3 6.668 6.668 6.668s6.668-3 6.668-6.668v-944.4c0-3.668-3-6.668-6.668-6.668s-6.668 3-6.668 6.668z"/>
  <path d="m682.07 107.73v944.4c0 3.668 3 6.668 6.668 6.668s6.668-3 6.668-6.668v-944.4c0-3.668-3-6.668-6.668-6.668s-6.668 3-6.668 6.668z"/>
  <path d="m851.07 107.73v944.4c0 3.668 3 6.668 6.668 6.668 3.7344 0 6.668-3 6.668-6.668v-944.4c0-3.668-2.9336-6.668-6.668-6.668-3.668 0-6.668 3-6.668 6.668z"/>
  <path d="m321.87 999.07c0-2.7344-2.1992-5-5-5h-95.332c-2.8008 0-5.0664 2.2656-5.0664 5v10.066c0 2.7344 2.2656 5 5.0664 5h95.332c2.8008 0 5-2.2656 5-5zm0-50.199c0-2.7344-2.1992-5-5-5h-95.332c-2.8008 0-5.0664 2.2656-5.0664 5v10.066c0 2.8008 2.2656 5 5.0664 5h95.332c2.8008 0 5-2.1992 5-5zm0-50.133c0-2.8008-2.1992-5.0664-5-5.0664h-95.332c-2.8008 0-5.0664 2.2656-5.0664 5.0664v10c0 2.8008 2.2656 5 5.0664 5h95.332c2.8008 0 5-2.1992 5-5zm0-50.199c0-2.8008-2.1992-5.0664-5-5.0664h-95.332c-2.8008 0-5.0664 2.2656-5.0664 5.0664v10c0 2.8008 2.2656 5.0664 5.0664 5.0664h95.332c2.8008 0 5-2.2656 5-5.0664zm0-50.199c0-2.8008-2.1992-5.0664-5-5.0664h-95.332c-2.8008 0-5.0664 2.2656-5.0664 5.0664v10c0 2.8008 2.2656 5.0664 5.0664 5.0664h95.332c2.8008 0 5-2.2656 5-5.0664zm0-50.199c0-2.8008-2.1992-5-5-5h-95.332c-2.8008 0-5.0664 2.1992-5.0664 5v10c0 2.8008 2.2656 5.0664 5.0664 5.0664h95.332c2.8008 0 5-2.2656 5-5.0664zm0-50.199c0-2.8008-2.1992-5-5-5h-95.332c-2.8008 0-5.0664 2.1992-5.0664 5v10.066c0 2.7344 2.2656 5 5.0664 5h95.332c2.8008 0 5-2.2656 5-5zm0-50.199c0-2.7344-2.1992-5-5-5h-95.332c-2.8008 0-5.0664 2.2656-5.0664 5v10.066c0 2.7344 2.2656 5 5.0664 5h95.332c2.8008 0 5-2.2656 5-5zm0-50.199c0-2.7344-2.1992-5-5-5h-95.332c-2.8008 0-5.0664 2.2656-5.0664 5v10.066c0 2.7344 2.2656 5 5.0664 5h95.332c2.8008 0 5-2.2656 5-5zm0-50.199c0-2.7344-2.1992-5-5-5h-95.332c-2.8008 0-5.0664 2.2656-5.0664 5v10.066c0 2.8008 2.2656 5 5.0664 5h95.332c2.8008 0 5-2.1992 5-5zm0-50.199c0-2.7344-2.1992-5-5-5h-95.332c-2.8008 0-5.0664 2.2656-5.0664 5v10.066c0 2.8008 2.2656 5 5.0664 5h95.332c2.8008 0 5-2.1992 5-5zm0-50.133c0-2.8008-2.1992-5.0664-5-5.0664h-95.332c-2.8008 0-5.0664 2.2656-5.0664 5.0664v10c0 2.8008 2.2656 5 5.0664 5h95.332c2.8008 0 5-2.1992 5-5zm0-50.199c0-2.8008-2.1992-5.0664-5-5.0664h-95.332c-2.8008 0-5.0664 2.2656-5.0664 5.0664v10c0 2.8008 2.2656 5.0664 5.0664 5.0664h95.332c2.8008 0 5-2.2656 5-5.0664zm0-50.199c0-2.8008-2.1992-5-5-5h-95.332c-2.8008 0-5.0664 2.1992-5.0664 5v10c0 2.8008 2.2656 5.0664 5.0664 5.0664h95.332c2.8008 0 5-2.2656 5-5.0664zm0-50.199c0-2.8008-2.1992-5-5-5h-95.332c-2.8008 0-5.0664 2.1992-5.0664 5v10.066c0 2.7344 2.2656 5 5.0664 5h95.332c2.8008 0 5-2.2656 5-5zm0-50.199c0-2.7344-2.1992-5-5-5h-95.332c-2.8008 0-5.0664 2.2656-5.0664 5v10.066c0 2.7344 2.2656 5 5.0664 5h95.332c2.8008 0 5-2.2656 5-5z"/>
  <path d="m487.27 999.07c0-2.7344-2.1992-5-5-5h-95.332c-2.8008 0-5.0664 2.2656-5.0664 5v10.066c0 2.7344 2.2656 5 5.0664 5h95.332c2.8008 0 5-2.2656 5-5zm0-50.199c0-2.7344-2.1992-5-5-5h-95.332c-2.8008 0-5.0664 2.2656-5.0664 5v10.066c0 2.8008 2.2656 5 5.0664 5h95.332c2.8008 0 5-2.1992 5-5zm0-50.133c0-2.8008-2.1992-5.0664-5-5.0664h-95.332c-2.8008 0-5.0664 2.2656-5.0664 5.0664v10c0 2.8008 2.2656 5 5.0664 5h95.332c2.8008 0 5-2.1992 5-5zm0-50.199c0-2.8008-2.1992-5.0664-5-5.0664h-95.332c-2.8008 0-5.0664 2.2656-5.0664 5.0664v10c0 2.8008 2.2656 5.0664 5.0664 5.0664h95.332c2.8008 0 5-2.2656 5-5.0664zm0-50.199c0-2.8008-2.1992-5.0664-5-5.0664h-95.332c-2.8008 0-5.0664 2.2656-5.0664 5.0664v10c0 2.8008 2.2656 5.0664 5.0664 5.0664h95.332c2.8008 0 5-2.2656 5-5.0664zm0-50.199c0-2.8008-2.1992-5-5-5h-95.332c-2.8008 0-5.0664 2.1992-5.0664 5v10c0 2.8008 2.2656 5.0664 5.0664 5.0664h95.332c2.8008 0 5-2.2656 5-5.0664zm0-50.199c0-2.8008-2.1992-5-5-5h-95.332c-2.8008 0-5.0664 2.1992-5.0664 5v10.066c0 2.7344 2.2656 5 5.0664 5h95.332c2.8008 0 5-2.2656 5-5zm0-50.199c0-2.7344-2.1992-5-5-5h-95.332c-2.8008 0-5.0664 2.2656-5.0664 5v10.066c0 2.7344 2.2656 5 5.0664 5h95.332c2.8008 0 5-2.2656 5-5zm0-50.199c0-2.7344-2.1992-5-5-5h-95.332c-2.8008 0-5.0664 2.2656-5.0664 5v10.066c0 2.7344 2.2656 5 5.0664 5h95.332c2.8008 0 5-2.2656 5-5zm0-50.199c0-2.7344-2.1992-5-5-5h-95.332c-2.8008 0-5.0664 2.2656-5.0664 5v10.066c0 2.8008 2.2656 5 5.0664 5h95.332c2.8008 0 5-2.1992 5-5zm0-50.199c0-2.7344-2.1992-5-5-5h-95.332c-2.8008 0-5.0664 2.2656-5.0664 5v10.066c0 2.8008 2.2656 5 5.0664 5h95.332c2.8008 0 5-2.1992 5-5zm0-50.133c0-2.8008-2.1992-5.0664-5-5.0664h-95.332c-2.8008 0-5.0664 2.2656-5.0664 5.0664v10c0 2.8008 2.2656 5 5.0664 5h95.332c2.8008 0 5-2.1992 5-5zm0-50.199c0-2.8008-2.1992-5.0664-5-5.0664h-95.332c-2.8008 0-5.0664 2.2656-5.0664 5.0664v10c0 2.8008 2.2656 5.0664 5.0664 5.0664h95.332c2.8008 0 5-2.2656 5-5.0664zm0-50.199c0-2.8008-2.1992-5-5-5h-95.332c-2.8008 0-5.0664 2.1992-5.0664 5v10c0 2.8008 2.2656 5.0664 5.0664 5.0664h95.332c2.8008 0 5-2.2656 5-5.0664zm0-50.199c0-2.8008-2.1992-5-5-5h-95.332c-2.8008 0-5.0664 2.1992-5.0664 5v10.066c0 2.7344 2.2656 5 5.0664 5h95.332c2.8008 0 5-2.2656 5-5zm0-50.199c0-2.7344-2.1992-5-5-5h-95.332c-2.8008 0-5.0664 2.2656-5.0664 5v10.066c0 2.7344 2.2656 5 5.0664 5h95.332c2.8008 0 5-2.2656 5-5z"/>
  <path d="m652.73 999.07c0-2.7344-2.2656-5-5.0664-5h-95.332c-2.8008 0-5.0664 2.2656-5.0664 5v10.066c0 2.7344 2.2656 5 5.0664 5h95.332c2.8008 0 5.0664-2.2656 5.0664-5zm0-50.199c0-2.7344-2.2656-5-5.0664-5h-95.332c-2.8008 0-5.0664 2.2656-5.0664 5v10.066c0 2.8008 2.2656 5 5.0664 5h95.332c2.8008 0 5.0664-2.1992 5.0664-5zm0-50.133c0-2.8008-2.2656-5.0664-5.0664-5.0664h-95.332c-2.8008 0-5.0664 2.2656-5.0664 5.0664v10c0 2.8008 2.2656 5 5.0664 5h95.332c2.8008 0 5.0664-2.1992 5.0664-5zm0-50.199c0-2.8008-2.2656-5.0664-5.0664-5.0664h-95.332c-2.8008 0-5.0664 2.2656-5.0664 5.0664v10c0 2.8008 2.2656 5.0664 5.0664 5.0664h95.332c2.8008 0 5.0664-2.2656 5.0664-5.0664zm0-50.199c0-2.8008-2.2656-5.0664-5.0664-5.0664h-95.332c-2.8008 0-5.0664 2.2656-5.0664 5.0664v10c0 2.8008 2.2656 5.0664 5.0664 5.0664h95.332c2.8008 0 5.0664-2.2656 5.0664-5.0664zm0-50.199c0-2.8008-2.2656-5-5.0664-5h-95.332c-2.8008 0-5.0664 2.1992-5.0664 5v10c0 2.8008 2.2656 5.0664 5.0664 5.0664h95.332c2.8008 0 5.0664-2.2656 5.0664-5.0664zm0-50.199c0-2.8008-2.2656-5-5.0664-5h-95.332c-2.8008 0-5.0664 2.1992-5.0664 5v10.066c0 2.7344 2.2656 5 5.0664 5h95.332c2.8008 0 5.0664-2.2656 5.0664-5zm0-50.199c0-2.7344-2.2656-5-5.0664-5h-95.332c-2.8008 0-5.0664 2.2656-5.0664 5v10.066c0 2.7344 2.2656 5 5.0664 5h95.332c2.8008 0 5.0664-2.2656 5.0664-5zm0-50.199c0-2.7344-2.2656-5-5.0664-5h-95.332c-2.8008 0-5.0664 2.2656-5.0664 5v10.066c0 2.7344 2.2656 5 5.0664 5h95.332c2.8008 0 5.0664-2.2656 5.0664-5zm0-50.199c0-2.7344-2.2656-5-5.0664-5h-95.332c-2.8008 0-5.0664 2.2656-5.0664 5v10.066c0 2.8008 2.2656 5 5.0664 5h95.332c2.8008 0 5.0664-2.1992 5.0664-5zm0-50.199c0-2.7344-2.2656-5-5.0664-5h-95.332c-2.8008 0-5.0664 2.2656-5.0664 5v10.066c0 2.8008 2.2656 5 5.0664 5h95.332c2.8008 0 5.0664-2.1992 5.0664-5zm0-50.133c0-2.8008-2.2656-5.0664-5.0664-5.0664h-95.332c-2.8008 0-5.0664 2.2656-5.0664 5.0664v10c0 2.8008 2.2656 5 5.0664 5h95.332c2.8008 0 5.0664-2.1992 5.0664-5zm0-50.199c0-2.8008-2.2656-5.0664-5.0664-5.0664h-95.332c-2.8008 0-5.0664 2.2656-5.0664 5.0664v10c0 2.8008 2.2656 5.0664 5.0664 5.0664h95.332c2.8008 0 5.0664-2.2656 5.0664-5.0664zm0-50.199c0-2.8008-2.2656-5-5.0664-5h-95.332c-2.8008 0-5.0664 2.1992-5.0664 5v10c0 2.8008 2.2656 5.0664 5.0664 5.0664h95.332c2.8008 0 5.0664-2.2656 5.0664-5.0664zm0-50.199c0-2.8008-2.2656-5-5.0664-5h-95.332c-2.8008 0-5.0664 2.1992-5.0664 5v10.066c0 2.7344 2.2656 5 5.0664 5h95.332c2.8008 0 5.0664-2.2656 5.0664-5zm0-50.199c0-2.7344-2.2656-5-5.0664-5h-95.332c-2.8008 0-5.0664 2.2656-5.0664 5v10.066c0 2.7344 2.2656 5 5.0664 5h95.332c2.8008 0 5.0664-2.2656 5.0664-5z"/>
  <path d="m818.13 999.07c0-2.7344-2.2656-5-5.0664-5h-95.332c-2.8008 0-5 2.2656-5 5v10.066c0 2.7344 2.1992 5 5 5h95.332c2.8008 0 5.0664-2.2656 5.0664-5zm0-50.199c0-2.7344-2.2656-5-5.0664-5h-95.332c-2.8008 0-5 2.2656-5 5v10.066c0 2.8008 2.1992 5 5 5h95.332c2.8008 0 5.0664-2.1992 5.0664-5zm0-50.133c0-2.8008-2.2656-5.0664-5.0664-5.0664h-95.332c-2.8008 0-5 2.2656-5 5.0664v10c0 2.8008 2.1992 5 5 5h95.332c2.8008 0 5.0664-2.1992 5.0664-5zm0-50.199c0-2.8008-2.2656-5.0664-5.0664-5.0664h-95.332c-2.8008 0-5 2.2656-5 5.0664v10c0 2.8008 2.1992 5.0664 5 5.0664h95.332c2.8008 0 5.0664-2.2656 5.0664-5.0664zm0-50.199c0-2.8008-2.2656-5.0664-5.0664-5.0664h-95.332c-2.8008 0-5 2.2656-5 5.0664v10c0 2.8008 2.1992 5.0664 5 5.0664h95.332c2.8008 0 5.0664-2.2656 5.0664-5.0664zm0-50.199c0-2.8008-2.2656-5-5.0664-5h-95.332c-2.8008 0-5 2.1992-5 5v10c0 2.8008 2.1992 5.0664 5 5.0664h95.332c2.8008 0 5.0664-2.2656 5.0664-5.0664zm0-50.199c0-2.8008-2.2656-5-5.0664-5h-95.332c-2.8008 0-5 2.1992-5 5v10.066c0 2.7344 2.1992 5 5 5h95.332c2.8008 0 5.0664-2.2656 5.0664-5zm0-50.199c0-2.7344-2.2656-5-5.0664-5h-95.332c-2.8008 0-5 2.2656-5 5v10.066c0 2.7344 2.1992 5 5 5h95.332c2.8008 0 5.0664-2.2656 5.0664-5zm0-50.199c0-2.7344-2.2656-5-5.0664-5h-95.332c-2.8008 0-5 2.2656-5 5v10.066c0 2.7344 2.1992 5 5 5h95.332c2.8008 0 5.0664-2.2656 5.0664-5zm0-50.199c0-2.7344-2.2656-5-5.0664-5h-95.332c-2.8008 0-5 2.2656-5 5v10.066c0 2.8008 2.1992 5 5 5h95.332c2.8008 0 5.0664-2.1992 5.0664-5zm0-50.199c0-2.7344-2.2656-5-5.0664-5h-95.332c-2.8008 0-5 2.2656-5 5v10.066c0 2.8008 2.1992 5 5 5h95.332c2.8008 0 5.0664-2.1992 5.0664-5zm0-50.133c0-2.8008-2.2656-5.0664-5.0664-5.0664h-95.332c-2.8008 0-5 2.2656-5 5.0664v10c0 2.8008 2.1992 5 5 5h95.332c2.8008 0 5.0664-2.1992 5.0664-5zm0-50.199c0-2.8008-2.2656-5.0664-5.0664-5.0664h-95.332c-2.8008 0-5 2.2656-5 5.0664v10c0 2.8008 2.1992 5.0664 5 5.0664h95.332c2.8008 0 5.0664-2.2656 5.0664-5.0664zm0-50.199c0-2.8008-2.2656-5-5.0664-5h-95.332c-2.8008 0-5 2.1992-5 5v10c0 2.8008 2.1992 5.0664 5 5.0664h95.332c2.8008 0 5.0664-2.2656 5.0664-5.0664zm0-50.199c0-2.8008-2.2656-5-5.0664-5h-95.332c-2.8008 0-5 2.1992-5 5v10.066c0 2.7344 2.1992 5 5 5h95.332c2.8008 0 5.0664-2.2656 5.0664-5zm0-50.199c0-2.7344-2.2656-5-5.0664-5h-95.332c-2.8008 0-5 2.2656-5 5v10.066c0 2.7344 2.1992 5 5 5h95.332c2.8008 0 5.0664-2.2656 5.0664-5z"/>
  <path d="m983.54 999.07c0-2.7344-2.2656-5-5.0664-5h-95.332c-2.8008 0-5 2.2656-5 5v10.066c0 2.7344 2.1992 5 5 5h95.332c2.8008 0 5.0664-2.2656 5.0664-5zm0-50.199c0-2.7344-2.2656-5-5.0664-5h-95.332c-2.8008 0-5 2.2656-5 5v10.066c0 2.8008 2.1992 5 5 5h95.332c2.8008 0 5.0664-2.1992 5.0664-5zm0-50.133c0-2.8008-2.2656-5.0664-5.0664-5.0664h-95.332c-2.8008 0-5 2.2656-5 5.0664v10c0 2.8008 2.1992 5 5 5h95.332c2.8008 0 5.0664-2.1992 5.0664-5zm0-50.199c0-2.8008-2.2656-5.0664-5.0664-5.0664h-95.332c-2.8008 0-5 2.2656-5 5.0664v10c0 2.8008 2.1992 5.0664 5 5.0664h95.332c2.8008 0 5.0664-2.2656 5.0664-5.0664zm0-50.199c0-2.8008-2.2656-5.0664-5.0664-5.0664h-95.332c-2.8008 0-5 2.2656-5 5.0664v10c0 2.8008 2.1992 5.0664 5 5.0664h95.332c2.8008 0 5.0664-2.2656 5.0664-5.0664zm0-50.199c0-2.8008-2.2656-5-5.0664-5h-95.332c-2.8008 0-5 2.1992-5 5v10c0 2.8008 2.1992 5.0664 5 5.0664h95.332c2.8008 0 5.0664-2.2656 5.0664-5.0664zm0-50.199c0-2.8008-2.2656-5-5.0664-5h-95.332c-2.8008 0-5 2.1992-5 5v10.066c0 2.7344 2.1992 5 5 5h95.332c2.8008 0 5.0664-2.2656 5.0664-5zm0-50.199c0-2.7344-2.2656-5-5.0664-5h-95.332c-2.8008 0-5 2.2656-5 5v10.066c0 2.7344 2.1992 5 5 5h95.332c2.8008 0 5.0664-2.2656 5.0664-5zm0-50.199c0-2.7344-2.2656-5-5.0664-5h-95.332c-2.8008 0-5 2.2656-5 5v10.066c0 2.7344 2.1992 5 5 5h95.332c2.8008 0 5.0664-2.2656 5.0664-5zm0-50.199c0-2.7344-2.2656-5-5.0664-5h-95.332c-2.8008 0-5 2.2656-5 5v10.066c0 2.8008 2.1992 5 5 5h95.332c2.8008 0 5.0664-2.1992 5.0664-5zm0-50.199c0-2.7344-2.2656-5-5.0664-5h-95.332c-2.8008 0-5 2.2656-5 5v10.066c0 2.8008 2.1992 5 5 5h95.332c2.8008 0 5.0664-2.1992 5.0664-5zm0-50.133c0-2.8008-2.2656-5.0664-5.0664-5.0664h-95.332c-2.8008 0-5 2.2656-5 5.0664v10c0 2.8008 2.1992 5 5 5h95.332c2.8008 0 5.0664-2.1992 5.0664-5zm0-50.199c0-2.8008-2.2656-5.0664-5.0664-5.0664h-95.332c-2.8008 0-5 2.2656-5 5.0664v10c0 2.8008 2.1992 5.0664 5 5.0664h95.332c2.8008 0 5.0664-2.2656 5.0664-5.0664zm0-50.199c0-2.8008-2.2656-5-5.0664-5h-95.332c-2.8008 0-5 2.1992-5 5v10c0 2.8008 2.1992 5.0664 5 5.0664h95.332c2.8008 0 5.0664-2.2656 5.0664-5.0664zm0-50.199c0-2.8008-2.2656-5-5.0664-5h-95.332c-2.8008 0-5 2.1992-5 5v10.066c0 2.7344 2.1992 5 5 5h95.332c2.8008 0 5.0664-2.2656 5.0664-5zm0-50.199c0-2.7344-2.2656-5-5.0664-5h-95.332c-2.8008 0-5 2.2656-5 5v10.066c0 2.7344 2.1992 5 5 5h95.332c2.8008 0 5.0664-2.2656 5.0664-5z"/>
 </g>
</svg>
