<?xml version="1.0" encoding="UTF-8"?>
<svg width="1200pt" height="1200pt" version="1.1" viewBox="0 0 1200 1200" xmlns="http://www.w3.org/2000/svg">
 <defs>
  <clipPath id="a">
   <path d="m222.14 222.14h755.71v755.71h-755.71z"/>
  </clipPath>
 </defs>
 <g clip-path="url(#a)">
  <path d="m558.59 224.39c-96.445 11.219-186 59.051-247.61 132.66-95.855 114.36-115.73 272.02-51.57 406.06 37.988 78.93 98.613 139.55 177.34 177.34 134.24 64.363 291.9 44.484 406.26-51.371 84.832-70.859 134.83-178.33 134.83-288.95 0-110.62-49.996-218.09-134.83-288.95-78.73-66.137-184.43-98.219-284.42-86.801zm65.938 143.88c19.484 5.5117 38.578 10.824 42.516 12.008l7.2812 1.9688-5.9062 16.926c-6.1016 17.91-16.336 53.734-23.027 80.309-2.3633 8.8555-4.7227 17.52-5.3125 19.094-1.1797 2.7539 9.6445 3.1484 111.01 3.1484h112.39l-4.9219 14.172c-4.332 12.398-12.992 44.285-47.238 171.83-3.9375 13.977-10.434 38.777-14.762 55.113-4.1328 16.141-8.4648 31.492-9.6445 34.051l-1.9688 4.332h-251.95v-144.28c0-120.07 0.39453-145.85 2.7539-153.13 1.5742-4.7227 7.875-26.77 13.977-49.012 6.1016-22.242 13.777-49.797 17.125-61.41l5.9062-20.863 8.2656 2.7539c4.332 1.7695 24.012 7.4805 43.5 12.992zm-154.51 270.25v166.32h-98.414v-332.64h98.414z"/>
 </g>
</svg>
