<?xml version="1.0" encoding="UTF-8"?>
<svg width="1200pt" height="1200pt" version="1.1" viewBox="0 0 1200 1200" xmlns="http://www.w3.org/2000/svg">
 <path d="m387.56 800.63v-345h-312.56v662.44h662.44v-298.69h-331.13c-4.9688 0-9.75-1.9688-13.266-5.4844s-5.4844-8.2969-5.4844-13.266z"/>
 <path d="m1106.3 81.938h-699.94c-4.9688-0.046875-9.7969 1.9219-13.312 5.4375-3.5156 3.5156-5.4844 8.3438-5.4375 13.312v317.44c8.25 0.046875 349.45-0.046875 368.63 0 4.9688 0 9.75 1.9688 13.266 5.4844s5.4844 8.2969 5.4844 13.266v382.5h331.31c10.359-0.046875 18.703-8.3906 18.75-18.75v-699.94c0-4.9688-1.9688-9.75-5.4844-13.266-3.5156-3.5156-8.2969-5.4844-13.266-5.4844z"/>
 <path d="m552.74 781.87 184.69-163.5v-69.75l-263.06 233.26z"/>
 <path d="m425.06 528.56 84.75-72.938h-84.75z"/>
 <path d="m425.06 644.44 218.06-188.81h-75.938l-142.13 122.63z"/>
 <path d="m425.06 694.31v81.188l312.37-276.94v-42.938h-36.938z"/>
 <path d="m737.44 781.87v-113.25l-127.87 113.25z"/>
</svg>
