<?xml version="1.0" encoding="UTF-8"?>
<svg width="1200pt" height="1200pt" version="1.1" viewBox="0 0 1200 1200" xmlns="http://www.w3.org/2000/svg">
 <path d="m1027.5 172.5h-855c-37.219 0-67.5 30.281-67.5 67.5v720c0 37.219 30.281 67.5 67.5 67.5h855c37.219 0 67.5-30.281 67.5-67.5v-720c0-37.219-30.281-67.5-67.5-67.5zm22.5 67.5v112.5h-540v-135h517.5c12.422 0 22.5 10.078 22.5 22.5zm-585 315v112.5h-315v-112.5zm-315-45v-112.5h315v112.5zm315 202.5v112.5h-315v-112.5zm45 0h540v112.5h-540zm0-45v-112.5h540v112.5zm0-157.5v-112.5h540v112.5zm-337.5-292.5h292.5v135h-315v-112.5c0-12.422 10.078-22.5 22.5-22.5zm-22.5 742.5v-90h315v112.5h-292.5c-12.422 0-22.5-10.078-22.5-22.5zm877.5 22.5h-517.5v-112.5h540v90c0 12.422-10.078 22.5-22.5 22.5z"/>
 <path d="m240 307.5h135c12.422 0 22.5-10.078 22.5-22.5s-10.078-22.5-22.5-22.5h-135c-12.422 0-22.5 10.078-22.5 22.5s10.078 22.5 22.5 22.5z"/>
 <path d="m667.5 307.5h225c12.422 0 22.5-10.078 22.5-22.5s-10.078-22.5-22.5-22.5h-225c-12.422 0-22.5 10.078-22.5 22.5s10.078 22.5 22.5 22.5z"/>
</svg>
