<?xml version="1.0" encoding="UTF-8"?>
<svg width="1200pt" height="1200pt" version="1.1" viewBox="0 0 1200 1200" xmlns="http://www.w3.org/2000/svg">
 <g>
  <path d="m878.69 268.71-10.254 62.73c-2.3086 14.172 3.6992 28.418 15.418 36.695 11.719 8.2773 27.246 9.1562 39.734 2.1602l51.414-28.418 51.418 28.418c5.6406 3.1484 11.902 4.6875 18.129 4.6875h0.73438c20.727 0 37.5-16.773 37.5-37.5 0-4.6875-0.84375-9.1562-2.418-13.293l-9.0469-55.48 43.031-44.094c9.8164-10.035 13.184-24.758 8.7148-38.086s-16.004-23.035-29.883-25.16l-57.973-8.8984-26.258-55.922c-6.1914-13.145-19.41-21.566-33.949-21.566s-27.758 8.4219-33.949 21.57l-26.254 55.918-57.973 8.8984c-13.879 2.125-25.414 11.828-29.883 25.16-4.4688 13.328-1.0977 28.051 8.7148 38.086z"/>
  <path d="m1093.2 536.39-57.973-8.8984-26.258-55.922c-6.1875-13.148-19.406-21.57-33.945-21.57s-27.758 8.4219-33.949 21.57l-26.258 55.922-57.973 8.8984c-13.879 2.125-25.414 11.828-29.883 25.16-4.4688 13.328-1.0977 28.051 8.7148 38.086l43.031 44.094-10.254 62.73c-2.3086 14.172 3.6992 28.418 15.418 36.695 11.719 8.2383 27.246 9.1562 39.734 2.1602l51.418-28.422 51.418 28.418c5.6367 3.1484 11.898 4.6875 18.125 4.6875 0.29297 0.035156 0.55078 0.035156 0.73438 0 20.727 0 37.5-16.773 37.5-37.5 0-4.6875-0.84375-9.1562-2.418-13.293l-9.0469-55.48 43.031-44.094c9.8164-10.035 13.184-24.758 8.7148-38.086s-16.004-23.035-29.883-25.156z"/>
  <path d="m1093.2 911.38-57.973-8.8984-26.258-55.922c-6.1875-13.145-19.406-21.566-33.945-21.566s-27.758 8.4219-33.949 21.57l-26.258 55.922-57.973 8.8984c-13.879 2.125-25.414 11.828-29.883 25.16-4.4688 13.328-1.0977 28.051 8.7148 38.086l43.031 44.094-10.254 62.73c-2.3086 14.172 3.6992 28.418 15.418 36.695 11.719 8.2773 27.246 9.1562 39.734 2.1602l51.418-28.422 51.418 28.418c5.6406 3.1484 11.902 4.6875 18.129 4.6875 0.29297 0 0.55078 0.035156 0.73438 0 20.727 0 37.5-16.773 37.5-37.5 0-4.6875-0.84375-9.1562-2.418-13.293l-9.0469-55.48 43.031-44.094c9.8164-10.035 13.184-24.758 8.7148-38.086-4.4727-13.332-16.008-23.035-29.887-25.16z"/>
  <path d="m600 225v337.5h-187.5v-337.5c0-7.3984-2.1992-14.648-6.3008-20.801l-68.699-103.05v585.1h-37.5v-610.21c-12.121 0-24.242 5.2188-31.203 15.656l-75 112.5c-4.0977 6.1523-6.2969 13.402-6.2969 20.801v103.64l-33.547 67.09c-5.2734 10.547-5.2734 23 0 33.547l29.117 58.227-29.113 58.227c-5.2734 10.547-5.2734 23 0 33.547l33.543 67.09v58.961c-69.066 39.914-112.5 113.85-112.5 194.68 0 124.07 100.93 225 225 225s225-100.93 225-225c0-80.824-43.434-154.76-112.5-194.68v-67.82h187.5v337.5c0 20.727 16.773 37.5 37.5 37.5h150v-75h-112.5v-300h112.5v-75h-112.5v-300h112.5v-75h-150c-20.727 0-37.5 16.773-37.5 37.5zm-300 787.5c-62.133 0-112.5-50.367-112.5-112.5s50.367-112.5 112.5-112.5 112.5 50.367 112.5 112.5-50.367 112.5-112.5 112.5z"/>
 </g>
</svg>
