<?xml version="1.0" encoding="UTF-8"?>
<svg width="1200pt" height="1200pt" version="1.1" viewBox="0 0 1200 1200" xmlns="http://www.w3.org/2000/svg">
 <g>
  <path d="m1173.1 663.09c12.656-18.188 26.906-38.906 26.906-63.094 0-24.094-14.25-44.812-26.906-63.094-8.6484-10.594-15.172-22.75-19.219-35.812-0.67969-14.23 1.3867-28.457 6.0938-41.906 5.9062-22.219 11.906-45.188 4.0312-67.219-8.0625-22.5-28.406-36.844-46.406-49.594-11.82-7.0469-22.164-16.309-30.469-27.281-5.3164-13.043-8.1133-26.977-8.25-41.062-1.9688-21.938-4.125-46.781-19.125-64.875-15.094-18.281-39-24.75-60.094-30.469-13.559-2.5703-26.488-7.7617-38.062-15.281-9.3242-10.301-16.582-22.301-21.375-35.344-9.1875-20.062-19.594-42.844-40.031-54.844-20.25-11.906-44.906-9.75-66.562-7.7812-13.668 2.2773-27.648 1.8633-41.156-1.2188-12.062-6.3633-22.762-15.027-31.5-25.5-15.562-15.75-33.188-33.656-56.719-37.781-22.781-4.0312-44.062 6-64.688 15.656-12.172 7.043-25.617 11.598-39.562 13.406-13.945-1.8086-27.391-6.3633-39.562-13.406-20.625-9.6562-41.812-19.688-64.688-15.656-23.531 4.125-41.156 22.031-56.719 37.781-8.7617 10.473-19.457 19.16-31.5 25.594-13.508 3.0938-27.5 3.4766-41.156 1.125-21.656-1.9688-46.312-4.125-66.562 7.7812-20.344 12-30.844 34.781-40.031 54.844-4.793 13.043-12.051 25.043-21.375 35.344-11.555 7.5586-24.488 12.754-38.062 15.281-21.094 5.7188-44.906 12.188-60.094 30.469-15 18.094-17.156 42.938-19.031 64.875-0.16406 14.09-2.9961 28.023-8.3438 41.062-8.3047 10.973-18.648 20.234-30.469 27.281-18 12.75-38.344 27.094-46.406 49.594-7.875 22.031-1.7812 45 4.0312 67.219 4.707 13.449 6.7734 27.676 6.0938 41.906-4.0469 13.062-10.57 25.219-19.219 35.812-12.656 18.281-26.906 39-26.906 63.094 0 24.188 14.25 44.906 26.906 63.094 8.668 10.613 15.195 22.805 19.219 35.906 0.6875 14.199-1.3828 28.398-6.0938 41.812-5.8125 22.219-11.906 45.188-4.0312 67.219 8.0625 22.5 28.5 36.938 46.406 49.688 11.812 7.0156 22.16 16.246 30.469 27.188 5.3828 13.027 8.2148 26.969 8.3438 41.062 1.875 21.938 4.0312 46.781 19.031 64.875 15.188 18.281 39.094 24.75 60.188 30.469 13.551 2.6055 26.473 7.793 38.062 15.281 9.2617 10.332 16.48 22.324 21.281 35.344 9.1875 20.062 19.688 42.844 40.031 54.844 20.344 11.906 44.906 9.75 66.562 7.7812 13.66-2.3047 27.641-1.9219 41.156 1.125 12.059 6.4531 22.777 15.137 31.594 25.594 15.469 15.75 33.094 33.656 56.625 37.781 22.781 4.0312 44.719-6.2812 64.688-15.75 12.191-6.9766 25.633-11.5 39.562-13.312 13.93 1.8125 27.371 6.3359 39.562 13.312 20.625 9.75 41.812 19.781 64.688 15.75 23.531-4.125 41.156-22.031 56.625-37.781 8.8164-10.457 19.535-19.141 31.594-25.594 13.516-3.0469 27.496-3.4297 41.156-1.125 21.656 1.9688 46.312 4.125 66.562-7.7812 20.344-12 30.844-34.781 40.031-54.844 4.8008-13.02 12.02-25.012 21.281-35.344 11.578-7.4922 24.508-12.652 38.062-15.188 21.094-5.7188 45-12.281 60.188-30.469 15-18.188 17.156-43.031 19.031-64.969 0.16406-14.062 2.9922-27.965 8.3438-40.969 8.2773-10.996 18.629-20.266 30.469-27.281 18-12.75 38.344-27.188 46.406-49.688 7.875-22.031 1.7812-45-4.0312-67.219-4.7109-13.414-6.7812-27.613-6.0938-41.812 4.0234-13.102 10.551-25.293 19.219-35.906zm-99.75-131.06c0.66797 4.918-0.62891 9.9023-3.6133 13.871-2.9844 3.9648-7.4141 6.5938-12.324 7.3164-4.8984 0.54688-9.8203-0.79688-13.758-3.7617-3.9414-2.9609-6.5977-7.3164-7.4297-12.176-0.9375-6.6328 1.7344-13.262 7.0078-17.387 5.2734-4.1289 12.352-5.1289 18.562-2.625 6.2109 2.5039 10.617 8.1289 11.555 14.762zm-14.438-66.75c1.3828 4.7852 0.81641 9.9258-1.5703 14.297-2.3867 4.3711-6.4062 7.6211-11.18 9.0469-4.7695 1.2578-9.8438 0.63672-14.168-1.7383-4.3242-2.3711-7.5781-6.3125-9.082-11.012-1.8633-6.4219-0.16797-13.352 4.4492-18.188 4.6172-4.8359 11.461-6.8477 17.961-5.2852 6.5 1.5664 11.68 6.4727 13.59 12.879zm-23.906-63.938c2.0742 4.5117 2.2734 9.6641 0.55078 14.324-1.7227 4.6602-5.2266 8.4453-9.7383 10.52s-9.6641 2.2734-14.324 0.55078c-4.6602-1.7227-8.4453-5.2266-10.52-9.7383s-2.2734-9.6641-0.55078-14.324c1.7227-4.6602 5.2266-8.4453 9.7383-10.52s9.6641-2.2734 14.324-0.55078c4.6602 1.7227 8.4414 5.2266 10.52 9.7383zm-58.594-65.438c4.1719-2.7031 9.25-3.6289 14.109-2.5703 4.8555 1.0547 9.0898 4.0039 11.766 8.1953 2.6953 4.1797 3.6211 9.2617 2.5664 14.125-1.0508 4.8633-3.9961 9.1094-8.1797 11.801-4.1836 2.6953-9.2656 3.6133-14.129 2.5547-4.8594-1.0547-9.1016-4.0039-11.793-8.1875-2.6875-4.1875-3.6016-9.2695-2.5391-14.133 1.0586-4.8594 4.0117-9.1016 8.1992-11.785zm-38.906 264.09c0 89.512-35.559 175.36-98.852 238.65-63.293 63.293-149.14 98.852-238.65 98.852s-175.36-35.559-238.65-98.852c-63.293-63.293-98.852-149.14-98.852-238.65s35.559-175.36 98.852-238.65c63.293-63.293 149.14-98.852 238.65-98.852 89.48 0.10156 175.27 35.695 238.54 98.965 63.27 63.27 98.863 149.05 98.965 238.54zm-2.5312-314.91c3.7422-3.2852 8.6445-4.9336 13.609-4.582 4.9688 0.35156 9.5859 2.6758 12.828 6.457 3.0352 3.6758 4.5703 8.3594 4.3086 13.121-0.26562 4.7578-2.3125 9.2461-5.7305 12.562-3.4219 3.3203-7.9688 5.2305-12.734 5.3477-5.125-0.003906-10.023-2.1016-13.559-5.8125-3.5352-3.707-5.3984-8.7031-5.1562-13.82 0.23828-5.1172 2.5664-9.9141 6.4336-13.273zm-48.188-44.531c4.1875-4.8203 10.539-7.1758 16.852-6.2539 6.3164 0.92188 11.73 4.9961 14.367 10.809 2.6328 5.8164 2.1289 12.57-1.3438 17.926-3.4727 5.3594-9.4297 8.5781-15.812 8.5508-4.7148-0.22656-9.1797-2.1836-12.539-5.5039-3.3594-3.3164-5.3711-7.7578-5.6523-12.473-0.28125-4.7109 1.1914-9.3594 4.1289-13.055zm-54.094-37.219c2.6992-4.1758 6.9453-7.1133 11.805-8.1562 4.8633-1.0469 9.9414-0.12109 14.117 2.5781s7.1133 6.9453 8.1562 11.805c1.0469 4.8633 0.12109 9.9414-2.5781 14.117-2.7422 4.1094-6.9727 6.9922-11.801 8.0391-4.8281 1.0508-9.875 0.18359-14.074-2.4141-4.1914-2.6992-7.1367-6.9492-8.1914-11.82-1.0547-4.8711-0.13281-9.957 2.5664-14.148zm-58.781-29.062c2.0508-4.5352 5.8281-8.0664 10.492-9.8086 4.6641-1.7422 9.8281-1.5547 14.352 0.52734 4.5 2.0898 8 5.8672 9.7344 10.52 1.7383 4.6484 1.5742 9.793-0.45312 14.324-2.1406 4.4805-5.9375 7.9531-10.59 9.6836-4.6562 1.7344-9.8008 1.5898-14.348-0.40234-4.5078-2.082-8.0039-5.8672-9.7266-10.523-1.7227-4.6562-1.5273-9.8047 0.53906-14.32zm-62.438-20.438c1.3906-4.7812 4.625-8.8125 8.9883-11.207s9.5-2.957 14.277-1.5664c4.7773 1.3945 8.8086 4.6289 11.203 8.9922s2.9531 9.5 1.5586 14.281c-1.3945 4.7773-4.6328 8.8047-8.9961 11.195-4.3672 2.3945-9.5039 2.9531-14.281 1.5547-4.7734-1.3945-8.7969-4.625-11.191-8.9844-2.3906-4.3594-2.9492-9.4922-1.5586-14.266zm-64.594-11.25c0.69922-4.9258 3.332-9.375 7.3125-12.359s8.9883-4.2656 13.914-3.5586c4.9258 0.70703 9.3672 3.3438 12.348 7.3281 2.9805 3.9883 4.2539 8.9922 3.5391 13.918-0.71484 4.9258-3.3555 9.3633-7.3477 12.34-3.9883 2.9727-8.9961 4.2422-13.922 3.5195-4.8984-0.73047-9.3125-3.3672-12.281-7.3359-2.9648-3.9648-4.2461-8.9453-3.5625-13.852zm-46.875-20.719h0.09375c6.7109 0.015625 12.902 3.6094 16.246 9.4258 3.3477 5.8164 3.3359 12.977-0.023438 18.781-3.3594 5.8086-9.5586 9.3867-16.27 9.3867s-12.91-3.5781-16.27-9.3867c-3.3594-5.8047-3.3711-12.965-0.023438-18.781 3.3438-5.8164 9.5352-9.4102 16.246-9.4258zm-67.969 4.7812c4.9219-0.69531 9.9219 0.58984 13.895 3.582 3.9766 2.9883 6.5977 7.4336 7.2969 12.355 0.69531 4.9258-0.59375 9.9219-3.582 13.898-2.9883 3.9727-7.4336 6.5938-12.359 7.293-4.9219 0.69531-9.9219-0.59375-13.895-3.582-3.9727-2.9883-6.5977-7.4375-7.293-12.359-0.66797-4.918 0.62891-9.9023 3.6133-13.871 2.9844-3.9648 7.4141-6.5938 12.324-7.3164zm-66.75 14.438c4.7734-1.4219 9.918-0.88672 14.301 1.4883 4.3789 2.375 7.6328 6.3945 9.0469 11.172 1.4141 4.7773 0.87109 9.9219-1.5117 14.297-2.3828 4.375-6.4062 7.625-11.188 9.0312-4.7773 1.4062-9.9219 0.85156-14.293-1.5352-4.3711-2.3906-7.6133-6.4219-9.0117-11.203-1.3945-4.7617-0.84766-9.8828 1.5234-14.238 2.375-4.3594 6.375-7.5977 11.133-9.0117zm-63.938 23.906c4.5117-2.0742 9.6641-2.2734 14.324-0.55078 4.6602 1.7227 8.4414 5.2266 10.52 9.7383 2.5664 5.8047 2.0547 12.508-1.3555 17.855-3.4102 5.3516-9.2695 8.6445-15.613 8.7695-5.7461-0.003906-11.172-2.6367-14.73-7.1484-3.5586-4.5117-4.8516-10.406-3.5156-15.992 1.3359-5.5898 5.1562-10.258 10.371-12.672zm-59.812 32.719c4.1719-2.6953 9.25-3.6211 14.105-2.5625 4.8555 1.0547 9.0938 4 11.77 8.1875 3.6172 5.625 3.957 12.758 0.89453 18.703-3.0664 5.9453-9.0703 9.8047-15.75 10.125-6.6836 0.32031-13.027-2.9531-16.645-8.5781-2.7031-4.1719-3.6289-9.25-2.5703-14.109 1.0547-4.8555 4.0039-9.0898 8.1953-11.766zm-54.562 40.875c3.7422-3.2852 8.6445-4.9336 13.609-4.582 4.9688 0.35156 9.5859 2.6758 12.828 6.457 3.0664 3.668 4.6289 8.3594 4.375 13.133-0.25391 4.7734-2.3047 9.2734-5.7461 12.594-3.4375 3.3203-8.0039 5.2188-12.785 5.3047-5.125-0.003906-10.023-2.1016-13.559-5.8125-3.5352-3.707-5.3984-8.7031-5.1602-13.82 0.24219-5.1172 2.5703-9.9141 6.4375-13.273zm-48.281 48.188c3.2578-3.7539 7.8711-6.0625 12.832-6.4141 4.957-0.35156 9.8516 1.2812 13.605 4.5391s6.0625 7.8711 6.4141 12.832c0.35156 4.957-1.2812 9.8516-4.5391 13.605-3.5352 4.1367-8.7148 6.5039-14.156 6.4688-4.7617-0.125-9.3047-2.0352-12.723-5.3555-3.418-3.3164-5.4648-7.8008-5.7305-12.559-0.26562-4.7578 1.2695-9.4375 4.2969-13.117zm-40.875 54.656c3.6289-5.6016 9.9648-8.8477 16.629-8.5234 6.668 0.32813 12.656 4.1758 15.719 10.105 3.0664 5.9297 2.7422 13.043-0.84766 18.668-2.7578 4.1172-7.0039 7.0078-11.848 8.0547-4.8438 1.0508-9.9062 0.17969-14.121-2.4297-4.1602-2.7031-7.0742-6.9453-8.1133-11.793-1.0352-4.8516-0.10938-9.9141 2.582-14.082zm-32.812 59.812c2.8125-6.0703 8.6445-10.184 15.305-10.797 6.6602-0.61719 13.145 2.3594 17.023 7.8086 3.8789 5.4531 4.5625 12.555 1.7969 18.645-2.1484 4.4453-5.9375 7.8867-10.57 9.6016-4.6328 1.7109-9.7461 1.5625-14.273-0.41406-4.5352-2.0508-8.0664-5.8281-9.8086-10.492-1.7422-4.6641-1.5547-9.8281 0.52734-14.352zm-23.906 64.031c1.3906-4.7734 4.625-8.8008 8.9844-11.191s9.4922-2.9492 14.266-1.5586 8.8008 4.625 11.191 8.9844 2.9492 9.4922 1.5586 14.266-4.625 8.8008-8.9844 11.191-9.4922 2.9492-14.266 1.5586c-4.7578-1.4141-8.7656-4.6523-11.152-9.0039-2.3867-4.3555-2.9609-9.4727-1.5977-14.246zm-14.438 66.656c0.69531-4.9258 3.3164-9.375 7.293-12.363 3.9766-2.9922 8.9766-4.2812 13.902-3.5859 4.9258 0.69531 9.3711 3.3203 12.363 7.2969 2.9883 3.9727 4.2773 8.9727 3.5781 13.898-0.69531 4.9258-3.3203 9.375-7.2969 12.363-3.9766 2.9883-8.9766 4.2773-13.902 3.5781-4.9102-0.72266-9.3398-3.3516-12.324-7.3164-2.9844-3.9688-4.2812-8.9531-3.6133-13.871zm13.969 49.312c4.9727 0 9.7422 1.9766 13.258 5.4922 3.5156 3.5156 5.4922 8.2852 5.4922 13.258s-1.9766 9.7422-5.4922 13.258c-3.5156 3.5156-8.2852 5.4922-13.258 5.4922s-9.7422-1.9766-13.258-5.4922c-3.5156-3.5156-5.4922-8.2852-5.4922-13.258s1.9727-9.7422 5.4922-13.258c3.5156-3.5195 8.2852-5.4922 13.258-5.4922zm-13.969 86.719c-0.69531-4.9219 0.59375-9.9219 3.582-13.895 2.9883-3.9727 7.4336-6.5977 12.355-7.293s9.9219 0.59375 13.895 3.582c3.9727 2.9883 6.5977 7.4336 7.293 12.355s-0.59375 9.9219-3.582 13.895c-2.9883 3.9727-7.4336 6.5977-12.355 7.293-4.8984 0.54688-9.8203-0.79688-13.758-3.7617-3.9414-2.9609-6.5977-7.3164-7.4297-12.176zm14.438 66.75c-1.4219-4.7734-0.88672-9.918 1.4883-14.297s6.3945-7.6328 11.172-9.0469 9.918-0.87109 14.293 1.5117c4.375 2.3828 7.625 6.4062 9.0312 11.184 1.4062 4.7812 0.85547 9.9219-1.5352 14.293-2.3906 4.3711-6.418 7.6133-11.199 9.0117-4.7617 1.3242-9.8516 0.74609-14.191-1.6172-4.3398-2.3633-7.5898-6.3203-9.0586-11.039zm23.906 63.938c-2.0781-4.5117-2.2734-9.6641-0.55078-14.324 1.7227-4.6602 5.2266-8.4453 9.7383-10.52 4.5117-2.0781 9.6641-2.2734 14.324-0.55078 4.6602 1.7227 8.4453 5.2266 10.52 9.7383 2.0781 4.5117 2.2734 9.6641 0.55078 14.324-1.7227 4.6602-5.2266 8.4453-9.7383 10.52-4.5312 1.9414-9.6328 2.0703-14.254 0.36328-4.6211-1.7109-8.4141-5.1289-10.59-9.5508zm58.594 65.438c-4.1992 2.6055-9.2461 3.4727-14.074 2.4219-4.8281-1.0469-9.0625-3.9336-11.801-8.0469-2.6953-4.1836-3.6211-9.2617-2.5664-14.125 1.0508-4.8633 3.9961-9.1094 8.1797-11.801 4.1836-2.6953 9.2656-3.6133 14.129-2.5547 4.8594 1.0547 9.1016 4.0039 11.793 8.1875 2.6875 4.1875 3.6016 9.2695 2.5391 14.133-1.0586 4.8594-4.0117 9.1016-8.1992 11.785zm41.438 50.812c-3.7773 3.2031-8.6602 4.7969-13.602 4.4453-4.9375-0.34766-9.5469-2.6172-12.836-6.3203-3.2578-3.7539-4.8906-8.6484-4.5391-13.605 0.35156-4.9609 2.6602-9.5742 6.4141-12.832s8.6484-4.8906 13.605-4.5391c4.9609 0.35156 9.5742 2.6602 12.832 6.4141s4.8906 8.6484 4.5391 13.605c-0.35156 4.9609-2.6602 9.5742-6.4141 12.832zm48.188 44.531c-4.4062 5.0586-11.172 7.3828-17.754 6.0938-6.582-1.2852-11.98-5.9844-14.156-12.328-2.1797-6.3398-0.80859-13.363 3.5977-18.422 4.4062-5.0547 11.172-7.375 17.754-6.0898 6.5781 1.2852 11.973 5.9844 14.152 12.324 2.1797 6.3438 0.80859 13.363-3.5938 18.422zm54.094 37.219c-2.7578 4.0938-6.9922 6.9609-11.82 7.9922-4.8281 1.0312-9.8672 0.14844-14.055-2.4609-4.1719-2.6992-7.1016-6.9414-8.1406-11.801-1.0391-4.8555-0.10938-9.9258 2.5898-14.098 2.6992-4.168 6.9453-7.0977 11.805-8.1328 4.8594-1.0391 9.9297-0.10547 14.098 2.5977 4.168 2.6992 7.0938 6.9492 8.1289 11.805 1.0352 4.8594 0.097656 9.9297-2.6055 14.098zm58.781 29.062c-2.0586 4.5234-5.8281 8.0391-10.484 9.7773-4.6523 1.7383-9.8086 1.5547-14.328-0.51172-4.5156-2.0664-8.0273-5.8438-9.7578-10.504-1.7305-4.6562-1.5352-9.8086 0.53906-14.324 2.0586-4.5234 5.8281-8.0391 10.484-9.7773 4.6523-1.7383 9.8086-1.5547 14.328 0.51172 4.5156 2.0664 8.0273 5.8438 9.7578 10.504 1.7305 4.6562 1.5352 9.8086-0.53906 14.324zm62.438 20.438c-1.457 4.7305-4.6992 8.7109-9.0391 11.09-4.3398 2.3828-9.4375 2.9766-14.211 1.6602-4.7734-1.3906-8.8008-4.625-11.191-8.9844s-2.9492-9.4922-1.5586-14.266 4.625-8.8008 8.9844-11.191 9.4922-2.9492 14.266-1.5586 8.8008 4.625 11.191 8.9844 2.9492 9.4922 1.5586 14.266zm64.594 11.25c-0.69141 4.9375-3.3203 9.3984-7.3086 12.391-3.9844 2.9961-9 4.2812-13.938 3.5703-4.9336-0.71094-9.3828-3.3594-12.363-7.3555-2.9805-3.9961-4.2461-9.0156-3.5156-13.949 0.97656-6.6133 5.3984-12.203 11.605-14.68 6.2109-2.4766 13.266-1.4609 18.523 2.668 5.2578 4.125 7.9219 10.738 6.9961 17.355zm46.875 20.719c-4.9727 0-9.7422-1.9766-13.258-5.4922-3.5156-3.5156-5.4922-8.2852-5.4922-13.258s1.9766-9.7422 5.4922-13.258c3.5156-3.5156 8.2852-5.4922 13.258-5.4922s9.7422 1.9766 13.258 5.4922c3.5156 3.5156 5.4922 8.2852 5.4922 13.258s-1.9727 9.7422-5.4922 13.258c-3.5156 3.5195-8.2852 5.4922-13.258 5.4922zm65.344-4.5938c-4.8203 0-9.457-1.8555-12.945-5.1836-3.4844-3.3281-5.5586-7.8711-5.7852-12.688-0.22656-4.8125 1.4141-9.5312 4.5742-13.172 3.1602-3.6367 7.6016-5.9219 12.402-6.3711 4.7969-0.45313 9.5859 0.96094 13.371 3.9492 3.7812 2.9883 6.2695 7.3164 6.9453 12.09 0.75781 5.375-0.85156 10.816-4.4102 14.918-3.5625 4.0977-8.7227 6.4531-14.152 6.457zm69.375-14.625c-4.7695 1.2461-9.8359 0.61719-14.16-1.7539-4.3242-2.3711-7.5742-6.3047-9.0898-10.996-1.375-4.7617-0.80859-9.8711 1.582-14.215 2.3906-4.3398 6.4062-7.5547 11.164-8.9414 4.7578-1.3828 9.8711-0.82031 14.219 1.5625 4.3438 2.3828 7.5664 6.3906 8.957 11.148 1.3906 4.7539 0.83984 9.8711-1.5391 14.219-2.375 4.3477-6.3789 7.5781-11.133 8.9766zm63.938-23.906c-4.5273 1.9648-9.6367 2.1055-14.266 0.39453-4.6289-1.7148-8.418-5.1445-10.578-9.582-2.0742-4.5117-2.2734-9.6641-0.55078-14.324 1.7227-4.6602 5.2266-8.4453 9.7383-10.52s9.6641-2.2734 14.324-0.55078c4.6602 1.7227 8.4453 5.2266 10.52 9.7383s2.2734 9.6641 0.55078 14.324c-1.7227 4.6602-5.2266 8.4453-9.7383 10.52zm59.812-32.719c-4.207 2.582-9.2461 3.4375-14.066 2.3906-4.8242-1.0508-9.0547-3.9219-11.809-8.0156-2.6836-4.1758-3.6016-9.25-2.5469-14.102 1.0547-4.8516 3.9961-9.0898 8.1719-11.773s9.25-3.6016 14.102-2.5469c4.8516 1.0547 9.0898 3.9961 11.773 8.1719s3.6016 9.25 2.5469 14.102c-1.0547 4.8516-3.9961 9.0898-8.1719 11.773zm54.562-40.875c-3.7891 3.1758-8.6641 4.7578-13.598 4.4062-4.9336-0.34766-9.5352-2.6016-12.84-6.2812-3.2578-3.7539-4.8906-8.6484-4.5391-13.605 0.35156-4.9609 2.6602-9.5742 6.4141-12.832s8.6484-4.8906 13.605-4.5391c4.9609 0.35156 9.5742 2.6602 12.832 6.4141s4.8906 8.6484 4.5391 13.605c-0.35156 4.9609-2.6602 9.5742-6.4141 12.832zm48.281-48.188c-3.293 3.6992-7.8984 5.9648-12.836 6.3164-4.9414 0.35156-9.8203-1.2422-13.602-4.4414-5.0234-4.4023-7.332-11.141-6.0625-17.699 1.2734-6.5586 5.9297-11.945 12.238-14.148 6.3047-2.207 13.305-0.89453 18.387 3.4414 3.7422 3.2852 6.0352 7.9141 6.3867 12.879 0.35156 4.9688-1.2695 9.875-4.5117 13.652zm40.875-54.656c-2.6992 4.1719-6.9414 7.1016-11.801 8.1406-4.8555 1.043-9.9258 0.10938-14.098-2.5898-4.1719-2.6992-7.0977-6.9453-8.1328-11.805-1.0391-4.8555-0.10547-9.9297 2.5977-14.098 2.6992-4.168 6.9492-7.0938 11.805-8.1289 4.8594-1.0352 9.9297-0.097656 14.098 2.6055 4.1367 2.7227 7.0352 6.9609 8.0703 11.805 1.0352 4.8398 0.12109 9.8945-2.5391 14.07zm32.812-59.812c-2.1484 4.4453-5.9375 7.8867-10.57 9.5977-4.6328 1.7148-9.7461 1.5664-14.273-0.41016-4.5039-2.0781-8-5.8594-9.7148-10.512-1.7188-4.6523-1.5156-9.7969 0.55859-14.305 2.0742-4.5039 5.8516-8 10.504-9.7227 4.6523-1.7188 9.7969-1.5234 14.305 0.54687 4.5078 2.0742 8.0078 5.8477 9.7305 10.5 1.7227 4.6523 1.5273 9.7969-0.53906 14.305zm23.906-64.031c-1.4766 4.7383-4.7383 8.7148-9.0938 11.094s-9.4648 2.9727-14.25 1.6562c-4.7656-1.4102-8.7773-4.6562-11.152-9.0234-2.3789-4.3672-2.9219-9.4961-1.5195-14.266 1.4023-4.7695 4.6445-8.7852 9.0039-11.168 4.3633-2.3828 9.4961-2.9375 14.266-1.543 4.7695 1.3984 8.793 4.6289 11.184 8.9883 2.3867 4.3594 2.9492 9.4883 1.5625 14.262zm14.438-66.656c-0.77344 4.9062-3.4297 9.3164-7.4023 12.293-3.9766 2.9766-8.9531 4.2812-13.879 3.6445-4.918-0.71875-9.3477-3.3594-12.316-7.3398-2.9727-3.9805-4.2422-8.9805-3.5352-13.898 0.71094-4.918 3.3438-9.3516 7.3203-12.328 3.9766-2.9805 8.9727-4.2578 13.891-3.5547 4.9219 0.69922 9.3594 3.3242 12.344 7.2969 2.9844 3.9727 4.2734 8.9688 3.5781 13.887zm-13.969-49.312c-4.9727 0-9.7422-1.9766-13.258-5.4922-3.5156-3.5156-5.4922-8.2852-5.4922-13.258s1.9766-9.7422 5.4922-13.258c3.5156-3.5156 8.2852-5.4922 13.258-5.4922s9.7422 1.9766 13.258 5.4922c3.5156 3.5156 5.4922 8.2852 5.4922 13.258 0.015625 4.9766-1.9531 9.7578-5.4727 13.277-3.5195 3.5195-8.3008 5.4883-13.277 5.4727z"/>
  <path d="m600 778.12c-14.918 0-29.227 5.9258-39.773 16.477-10.551 10.547-16.477 24.855-16.477 39.773s5.9258 29.227 16.477 39.773c10.547 10.551 24.855 16.477 39.773 16.477s29.227-5.9258 39.773-16.477c10.551-10.547 16.477-24.855 16.477-39.773-0.011719-14.914-5.9414-29.215-16.488-39.762s-24.848-16.477-39.762-16.488z"/>
  <path d="m608.34 309.38h-16.688c-16.078 0.003906-31.43 6.6953-42.375 18.469-10.445 11.328-15.797 26.438-14.812 41.812l18.188 326.81c0.078125 0.27344 0.10938 0.55859 0.09375 0.84375 1.3867 15.906 10.68 30.051 24.734 37.629 14.055 7.582 30.977 7.582 45.031 0 14.055-7.5781 23.348-21.723 24.734-37.629-0.015625-0.28516 0.015625-0.57031 0.09375-0.84375l18.188-326.81c0.98438-15.375-4.3672-30.484-14.812-41.812-10.945-11.773-26.297-18.465-42.375-18.469z"/>
 </g>
</svg>
