<?xml version="1.0" encoding="UTF-8"?>
<svg width="1200pt" height="1200pt" version="1.1" viewBox="0 0 1200 1200" xmlns="http://www.w3.org/2000/svg">
 <path d="m996.43 485c-16.199-3.8633-32.578-5.832-48.684-5.832-65.844 0-117.84 32.52-129.38 80.914-2.8555 11.977-2.9414 24.121-0.74219 36.07l-30.906 0.003906c60.758-100.23 72.91-230.05-31.355-318.04-95.688-80.746-238-91.68-331.07-25.43-94.691 67.402-133.27 165.9-109.41 274.21-23.184-7.7539-49.668-12.156-78.07-12.156-93.227 0-166.25 46.859-166.25 106.69 0 59.809 73.02 106.69 166.25 106.69 87.562 0 157.27-41.363 165.41-95.977h429.61c20.914 34.441 61.164 63.301 111.54 75.324 16.199 3.8633 32.566 5.8086 48.672 5.8086 65.855 0 117.85-32.508 129.38-80.902 14.602-61.344-41.461-127.46-124.99-147.38zm-551.27-202.98c91.262-64.98 215.96-36.312 286.97 23.605 94.129 79.414 74.062 201.59 11.629 290.52h-345.45c-6.8164-18.613-20.965-35.172-40.547-48.434-34.992-106.28-4.1055-200.54 87.395-265.69zm-208.38 410.11c-70.609 0-130.25-32.363-130.25-70.691 0-38.328 59.641-70.691 130.25-70.691 70.598 0 130.23 32.375 130.23 70.691 0 38.316-59.641 70.691-130.23 70.691zm849.6-68.09c-7.5977 31.859-45.516 53.258-94.367 53.258-13.285 0-26.844-1.6211-40.297-4.8242-63.156-15.086-108.18-62.723-98.316-104.03 7.6094-31.859 45.527-53.27 94.355-53.27 13.285 0 26.855 1.6328 40.32 4.8477 63.145 15.047 108.16 62.688 98.305 104.02zm-593.38-216.53c0-13.367 13.402-24.168 29.914-24.168 16.523 0 29.93 10.801 29.93 24.168 0 13.355-13.402 24.18-29.93 24.18-16.496 0.011719-29.914-10.824-29.914-24.18zm150.54 0c0-13.367 13.402-24.168 29.902-24.168 16.523 0 29.941 10.801 29.941 24.168 0 13.355-13.414 24.18-29.941 24.18-16.496 0.011719-29.902-10.824-29.902-24.18zm467.26 443.75c0 3.3008-2.6992 6-6 6h-18.121l-13.645 24.613c0.046876 0.5625 0.21484 1.0938 0.21484 1.668 0 10.738-8.1953 19.754-19.465 22.98l15.48 13.812c2.4609 2.207 2.6875 6 0.46875 8.4609-1.1875 1.332-2.8086 2.0156-4.4648 2.0156-1.4297 0-2.8438-0.51562-3.9961-1.5234l-25.547-22.777c-6.9102-2.0039-12.613-6.1914-15.984-11.652-2.0742 4.4766-6.2539 8.0273-11.508 9.7695l7.2461 24.098c0.96094 3.1914-0.83984 6.5156-4.0195 7.4766-0.57422 0.17969-1.1523 0.25391-1.7266 0.25391-2.5938 0-4.9688-1.6797-5.7461-4.2734l-8.1016-26.977c-2.8789-0.64844-5.4961-1.8125-7.7539-3.3945-4.9453 6.1797-13.234 10.234-22.633 10.234-1.5117 0-2.9648-0.17969-4.4141-0.35938l-12.457 16.754c-1.1875 1.5859-2.9883 2.3984-4.8008 2.3984-1.2461 0-2.5078-0.37109-3.5898-1.1758-2.6641-1.9922-3.2266-5.7461-1.2461-8.4102l10.285-13.812c-4.5234-2.8438-7.9219-6.8516-9.7422-11.508l-16.777 4.4414c-0.52734 0.14453-1.043 0.20313-1.5352 0.20313-2.6758 0-5.1016-1.7656-5.7969-4.4648-0.83984-3.2031 1.0664-6.4922 4.2461-7.332l18.961-5.0156c2.6289-10.621 13.645-18.613 26.844-18.613 9.4062 0 17.699 4.0547 22.633 10.223 3.5039-2.4844 7.9336-4.0312 12.816-4.0312 6.6016 0 12.395 2.7461 16.078 6.9375 2.3164-8.8438 10.285-15.805 20.496-18.121l2.6641-22.992c0.30078-2.6523 2.3164-4.7539 4.9453-5.2305l17.641-3.0234c3.3008-0.53906 6.3594 1.6445 6.9258 4.8945 0.5625 3.2539-1.6445 6.3711-4.8828 6.9375l-13.211 2.2578-1.9219 16.668c6.9102 1.0312 12.887 4.2227 17.148 8.6992l11.062-19.957c1.0547-1.9062 3.0703-3.1094 5.2578-3.1094h21.66c3.3359-0.042969 6.0117 2.6445 6.0117 5.957zm-201.95 10.836c0 3.3125-2.6992 6-6 6h-15.145l-12.07 21.77v0.046875c0 8.9531-6.6016 16.559-15.816 19.57l12.926 11.555c2.4844 2.207 2.6992 6 0.49219 8.4727-1.1992 1.3203-2.8203 2.0039-4.4766 2.0039-1.4297 0-2.8438-0.50391-3.9961-1.5234l-22.738-20.27c-0.13281-0.13281-0.17969-0.26562-0.28906-0.39453-5.2812-1.8594-9.5625-5.3164-12.238-9.6133-1.6797 3.6367-4.9688 6.5625-9.1445 8.1367l6.2539 20.832c0.96094 3.168-0.82812 6.5156-4.0195 7.4531-0.57422 0.19141-1.1523 0.25391-1.7266 0.25391-2.5781 0-4.9688-1.6914-5.7461-4.2617l-7.1289-23.762c-2.125-0.58984-4.043-1.5-5.7344-2.6992-4.2461 5.3164-11.398 8.8203-19.535 8.8203-0.96094 0-1.8828-0.15625-2.8203-0.25391l-11.039 14.832c-1.1992 1.5977-2.9883 2.4258-4.8125 2.4258-1.2461 0-2.5078-0.38281-3.5742-1.1875-2.6641-1.9922-3.2266-5.7461-1.2461-8.3867l8.8555-11.914c-3.3008-2.2578-5.9023-5.2188-7.4297-8.6875l-14.555 3.8633c-0.51562 0.14453-1.0312 0.20312-1.5352 0.20312-2.6641 0-5.0898-1.7656-5.7852-4.4648-0.83984-3.2148 1.0664-6.4922 4.2461-7.332l16.895-4.4766c2.6758-8.6758 11.809-15.109 22.801-15.109 8.1133 0 15.254 3.4922 19.523 8.7969 3.0117-2.1367 6.8281-3.4688 11.062-3.4688 5.6758 0 10.68 2.3398 13.836 5.9531 1.8125-6.8867 7.6094-12.469 15.203-14.953l2.2305-20.484c0.27734-2.6523 2.2812-4.7773 4.9062-5.2578l15.18-2.7227c3.1914-0.53906 6.3828 1.5859 6.9609 4.8477 0.58984 3.2539-1.5859 6.3594-4.8359 6.9609l-10.754 1.9219-1.4766 13.598c5.9531 0.74219 11.172 3.2539 14.941 6.9375l9.4062-16.992c1.0547-1.8945 3.0703-3.0977 5.2578-3.0977h18.684c3.332 0.058594 6.0078 2.7227 6.0078 6.0586zm-194.76 0c0 3.3125-2.6875 6-6 6h-15.133l-12.07 21.781v0.046875c0 8.9648-6.6016 16.559-15.828 19.57l12.938 11.543c2.4727 2.207 2.6875 6 0.48047 8.4727-1.1875 1.3203-2.8203 2.0039-4.4766 2.0039-1.4141 0-2.8438-0.50391-3.9961-1.5234l-22.727-20.27c-0.14453-0.12109-0.20312-0.26562-0.30078-0.39453-5.293-1.8711-9.5625-5.3164-12.238-9.6133-1.6914 3.6367-4.957 6.5625-9.1445 8.1367l6.2539 20.832c0.96094 3.168-0.83984 6.5156-4.0195 7.4531-0.57422 0.19141-1.1641 0.25391-1.7383 0.25391-2.5781 0-4.9688-1.6914-5.7461-4.2617l-7.1523-23.762c-2.1133-0.58984-4.0312-1.5-5.7109-2.6992-4.2617 5.3164-11.41 8.8203-19.523 8.8203-0.97266 0-1.8945-0.15625-2.832-0.25391l-11.051 14.844c-1.1758 1.5859-2.9883 2.4102-4.8125 2.4102-1.2461 0-2.4961-0.38281-3.5898-1.1875-2.6641-1.9922-3.2148-5.7461-1.2344-8.3984l8.8555-11.902c-3.3125-2.2578-5.9023-5.2422-7.4297-8.6875l-14.543 3.8633c-0.51562 0.14453-1.0312 0.20312-1.5352 0.20312-2.6641 0-5.0898-1.7656-5.7969-4.4648-0.85156-3.2148 1.0547-6.4922 4.2617-7.332l16.895-4.4766c2.6758-8.6758 11.809-15.109 22.801-15.109 8.1133 0 15.254 3.5039 19.512 8.7969 3.0117-2.1367 6.8398-3.4688 11.062-3.4688 5.6758 0 10.68 2.3633 13.848 5.9531 1.7773-6.8164 7.4766-12.359 14.977-14.879l3.0352-20.93c0.32422-2.3398 2.0391-4.2617 4.3086-4.9219l15.602-4.3555c3.2031-0.91016 6.5039 0.98438 7.3789 4.1758 0.88672 3.1914-0.97266 6.4922-4.1641 7.3789l-11.82 3.3008-2.0508 14.16c5.9883 0.71875 11.258 3.2539 15.047 6.9609l9.4062-16.992c1.0547-1.9219 3.0703-3.1094 5.2578-3.1094h18.672c3.3828 0.03125 6.0742 2.6953 6.0742 6.0312zm-196.63 12.141-0.88672 23.977c-0.15625 0-11.809-0.44531-29.375-0.19141l-0.32422-24c18.355-0.26172 30.586 0.21484 30.586 0.21484zm-250.73 165.36 1.4297 23.953c-3.0469 0.20312-6.1914 0.3125-9.4219 0.42188-2.1719 0.070313-4.2969 0.10938-6.457 0.10938-13.691 0-28.598-1.2852-44.281-3.8398l3.8398-23.699c16.68 2.7227 32.09 3.9102 46.152 3.4453 2.9688-0.10547 5.8945-0.24609 8.7383-0.39062zm-130.45-23.605c17.305 6.5625 35.855 12.203 53.652 16.246l-5.3516 23.387c-18.816-4.3086-38.484-10.246-56.797-17.23zm185-2.6875 23.461 5.0156c-4.8594 22.824-21.926 36.695-52.176 42.348l-4.4297-23.578c25.762-4.8242 31.211-14.738 33.145-23.785zm11.879-63.719c6.2891 15.949 10.211 29.555 11.941 41.578l-23.746 3.4336c-1.4531-10.02-4.9922-22.199-10.512-36.203-2.3867-6.0469-3.6016-11.988-3.6016-17.699 0-1.668 0.097656-3.3477 0.30078-5.0391l23.809 3.0469c-0.085937 0.63672-0.14453 1.2617-0.12109 1.9219 0.007813 2.7422 0.64453 5.7188 1.9297 8.9609zm47.93-65.367 5.0742 23.461c-28.129 6.0977-41.363 13.754-47.531 19.129l-15.758-18.098c12.207-10.656 31.25-18.672 58.215-24.492zm82.305-9.4922 1.0664 23.977c-20.699 0.89844-39.66 2.6289-56.34 5.0625l-3.4805-23.746c17.488-2.5781 37.25-4.3555 58.754-5.293zm-372.56 119.39c5.5195 3.8281 14.219 8.5312 24.492 13.199l-9.9492 21.84c-11.711-5.3164-21.457-10.621-28.211-15.301z"/>
</svg>
