<?xml version="1.0" encoding="UTF-8"?>
<svg width="1200pt" height="1200pt" version="1.1" viewBox="0 0 1200 1200" xmlns="http://www.w3.org/2000/svg">
 <g>
  <path d="m553.75 350c0 27.613-22.387 50-50 50s-50-22.387-50-50 22.387-50 50-50 50 22.387 50 50"/>
  <path d="m903.75 125h-600c-59.645 0.09375-116.82 23.828-159 66.004-42.176 42.176-65.91 99.352-66.004 159v500c0.09375 59.645 23.828 116.82 66.004 159 42.176 42.176 99.352 65.91 159 66.004h600c59.645-0.09375 116.82-23.828 159-66.004 42.176-42.176 65.91-99.352 66.004-159v-500c-0.09375-59.645-23.828-116.82-66.004-159-42.176-42.176-99.352-65.91-159-66.004zm29.25 750h-332.75c-7.332 28.809-27.148 52.836-54.039 65.512-26.887 12.68-58.035 12.68-84.922 0-26.891-12.676-46.707-36.703-54.039-65.512h-103.5c-8.9297 0-17.184-4.7656-21.652-12.5-4.4648-7.7344-4.4648-17.266 0-25 4.4688-7.7344 12.723-12.5 21.652-12.5h103.5c7.332-28.809 27.148-52.836 54.039-65.512 26.887-12.68 58.035-12.68 84.922 0 26.891 12.676 46.707 36.703 54.039 65.512h332.75c8.9297 0 17.184 4.7656 21.652 12.5 4.4648 7.7344 4.4648 17.266 0 25-4.4688 7.7344-12.723 12.5-21.652 12.5zm0-250h-132.75c-7.332 28.809-27.148 52.836-54.039 65.512-26.887 12.68-58.035 12.68-84.922 0-26.891-12.676-46.707-36.703-54.039-65.512h-303.5c-8.9297 0-17.184-4.7656-21.652-12.5-4.4648-7.7344-4.4648-17.266 0-25 4.4688-7.7344 12.723-12.5 21.652-12.5h303.5c7.332-28.809 27.148-52.836 54.039-65.512 26.887-12.68 58.035-12.68 84.922 0 26.891 12.676 46.707 36.703 54.039 65.512h132.75c8.9297 0 17.184 4.7656 21.652 12.5 4.4648 7.7344 4.4648 17.266 0 25-4.4688 7.7344-12.723 12.5-21.652 12.5zm0-250h-332.75c-7.332 28.809-27.148 52.836-54.039 65.512-26.887 12.68-58.035 12.68-84.922 0-26.891-12.676-46.707-36.703-54.039-65.512h-103.5c-8.9297 0-17.184-4.7656-21.652-12.5-4.4648-7.7344-4.4648-17.266 0-25 4.4688-7.7344 12.723-12.5 21.652-12.5h103.5c7.332-28.809 27.148-52.836 54.039-65.512 26.887-12.68 58.035-12.68 84.922 0 26.891 12.676 46.707 36.703 54.039 65.512h332.75c8.9297 0 17.184 4.7656 21.652 12.5 4.4648 7.7344 4.4648 17.266 0 25-4.4688 7.7344-12.723 12.5-21.652 12.5z"/>
  <path d="m753.75 600c0 27.613-22.387 50-50 50s-50-22.387-50-50 22.387-50 50-50 50 22.387 50 50"/>
  <path d="m553.75 850c0 27.613-22.387 50-50 50s-50-22.387-50-50 22.387-50 50-50 50 22.387 50 50"/>
 </g>
</svg>
