<?xml version="1.0" encoding="UTF-8"?>
<svg width="1200pt" height="1200pt" version="1.1" viewBox="0 0 1200 1200" xmlns="http://www.w3.org/2000/svg">
 <g fill-rule="evenodd">
  <path d="m200.02 50.016c0-13.828 11.156-25.031 24.984-25.031h699.98c69.047 0 125.02 55.969 125.02 125.02v900c0 69.047-55.969 125.02-125.02 125.02h-699.98c-13.828 0-24.984-11.203-24.984-25.031zm49.969 24.984v1050h675c41.438 0 75-33.562 75-75v-900c0-41.438-33.562-75-75-75z"/>
  <path d="m549.98 249.98c0-13.781 11.203-24.984 25.031-24.984h300c13.781 0 24.984 11.203 24.984 24.984v200.02c0 13.828-11.203 24.984-24.984 24.984h-300c-13.828 0-25.031-11.156-25.031-24.984zm50.016 25.031v150h249.98v-150z"/>
  <path d="m200.02 50.016c0-13.828 11.156-25.031 24.984-25.031h200.02c13.781 0 24.984 11.203 24.984 25.031v1100c0 13.828-11.203 25.031-24.984 25.031h-200.02c-13.828 0-24.984-11.203-24.984-25.031zm49.969 24.984v1050h150v-1050z"/>
  <path d="m150 200.02c0-13.828 11.203-25.031 24.984-25.031h100.03c13.781 0 24.984 11.203 24.984 25.031 0 13.781-11.203 24.984-24.984 24.984h-100.03c-13.781 0-24.984-11.203-24.984-24.984z"/>
  <path d="m150 750c0-13.828 11.203-24.984 24.984-24.984h100.03c13.781 0 24.984 11.156 24.984 24.984s-11.203 24.984-24.984 24.984h-100.03c-13.781 0-24.984-11.156-24.984-24.984z"/>
  <path d="m150 399.98c0-13.781 11.203-24.984 24.984-24.984h100.03c13.781 0 24.984 11.203 24.984 24.984 0 13.828-11.203 25.031-24.984 25.031h-100.03c-13.781 0-24.984-11.203-24.984-25.031z"/>
  <path d="m150 950.02c0-13.828 11.203-25.031 24.984-25.031h100.03c13.781 0 24.984 11.203 24.984 25.031 0 13.781-11.203 24.984-24.984 24.984h-100.03c-13.781 0-24.984-11.203-24.984-24.984z"/>
  <path d="m650.02 350.02c0-13.828 11.156-25.031 24.984-25.031h99.984c13.828 0 25.031 11.203 25.031 25.031 0 13.781-11.203 24.984-25.031 24.984h-99.984c-13.828 0-24.984-11.203-24.984-24.984z"/>
 </g>
</svg>
