<?xml version="1.0" encoding="UTF-8"?>
<svg width="1200pt" height="1200pt" version="1.1" viewBox="0 0 1200 1200" xmlns="http://www.w3.org/2000/svg">
 <path d="m825 1125h-637.5c-62.156 0-112.5-50.344-112.5-112.5v-825c0-62.156 50.344-112.5 112.5-112.5h562.5c62.156 0 112.5 50.344 112.5 112.5v900c0 20.719-16.781 37.5-37.5 37.5zm-562.78-226.6 37.5 0.23438c20.719 0.14062 37.641-16.547 37.781-37.219 0.14062-20.719-16.547-37.641-37.219-37.781l-37.5-0.23438c-20.719-0.1875-37.641 16.5-37.781 37.172-0.14062 20.719 16.5 37.641 37.219 37.828zm0-560.9 37.5 0.28125c20.719 0.14062 37.641-16.547 37.781-37.266 0.14062-20.672-16.547-37.594-37.219-37.734l-37.5-0.28125c-20.719-0.14062-37.641 16.547-37.781 37.219-0.14062 20.719 16.5 37.641 37.219 37.781zm187.5 372.84 225 1.6406c20.719 0.14062 37.641-16.547 37.781-37.266 0.14062-20.672-16.5-37.594-37.219-37.734l-225-1.6406c-20.719-0.1875-37.641 16.5-37.781 37.219-0.1875 20.719 16.547 37.594 37.219 37.781zm0-373.92 225 1.5938c20.719 0.14062 37.641-16.5 37.781-37.172 0.14062-20.719-16.5-37.688-37.219-37.828l-225-1.5938c-20.719-0.14062-37.641 16.547-37.781 37.219-0.1875 20.719 16.547 37.641 37.219 37.781zm0 560.86 225 1.6406c20.719 0.14063 37.641-16.547 37.781-37.266 0.14062-20.672-16.5-37.594-37.219-37.734l-225-1.6406c-20.719-0.14063-37.641 16.547-37.781 37.266-0.1875 20.672 16.547 37.594 37.219 37.734zm-187.5-372.79 37.5 0.23438c20.719 0.1875 37.641-16.5 37.781-37.219s-16.547-37.594-37.219-37.781l-37.5-0.23438c-20.719-0.14062-37.641 16.5-37.781 37.172-0.14062 20.719 16.5 37.688 37.219 37.828zm0 186.94 37.5 0.23438c20.719 0.1875 37.641-16.5 37.781-37.172 0.14062-20.719-16.547-37.641-37.219-37.828l-37.5-0.23438c-20.719-0.14062-37.641 16.547-37.781 37.219-0.14062 20.719 16.5 37.641 37.219 37.781zm187.5-188.02 225 1.5938c20.719 0.14062 37.641-16.547 37.781-37.219 0.14062-20.719-16.5-37.641-37.219-37.781l-225-1.5938c-20.719-0.1875-37.641 16.5-37.781 37.172-0.1875 20.719 16.547 37.641 37.219 37.828zm487.78 39.094h75c62.109 0 112.5 50.344 112.5 112.5v286.78c0 90.141-73.078 163.22-163.22 163.22h-11.062c-4.4531 0-8.8594-0.1875-13.219-0.51562z" fill-rule="evenodd"/>
</svg>
