<?xml version="1.0" encoding="UTF-8"?>
<svg width="1200pt" height="1200pt" version="1.1" viewBox="0 0 1200 1200" xmlns="http://www.w3.org/2000/svg">
 <path d="m86.859 64.641 1048.5 1048.5c9.8906 9.9375 2.9062 26.859-11.109 26.859h-1064.3v-1064.3c0-14.016 16.922-21 26.859-11.109zm4.5938 217.87h47.531v31.453h-47.531v77.812h71.484v31.453h-71.484v77.812h47.531v31.453h-47.531v77.812h71.484v31.453h-71.484v77.812h47.531v31.453h-47.531v77.812h71.484v31.453h-71.484v77.812h47.531v31.453l-47.531 0.046875v138.94h138.94v-47.531h31.453v47.531h77.812v-71.484h31.453v71.484h77.812v-47.531h31.453v47.531h77.812v-71.484h31.453v71.484h77.812v-47.531h31.453v47.531h77.812v-71.484h31.453v71.484h77.812v-47.531h31.453v47.531h168.79l-994.78-994.82zm170.39 242.53v413.11h413.11zm-31.453 428.86v15.75h520.45l-520.45-520.5z" fill-rule="evenodd"/>
</svg>
