<?xml version="1.0" encoding="UTF-8"?>
<svg width="1200pt" height="1200pt" version="1.1" viewBox="0 0 1200 1200" xmlns="http://www.w3.org/2000/svg">
 <g>
  <path d="m777.43 268.51h-354.87l-140.4 155.71v351.56l140.4 155.69h354.86l140.39-155.69 0.003906-351.56zm55.449 494.89c0 16.066-14.449 29.148-32.219 29.148h-401.34c-17.762 0-32.219-13.078-32.219-29.148v-326.8c0-16.066 14.449-29.148 32.219-29.148h401.34c17.762 0 32.219 13.078 32.219 29.148z"/>
  <path d="m269.21 538.44h-16.223c-14.941 0-27.086-12.145-27.086-27.07v-49.02c0-14.941 12.156-27.086 27.086-27.086h16.223c14.93 0 27.07 12.156 27.07 27.086v49.02c0.003906 14.926-12.141 27.07-27.07 27.07zm-16.223-79.188c-1.7031 0-3.0859 1.3789-3.0859 3.0859v49.02c0 1.6914 1.3789 3.0703 3.0859 3.0703h16.223c1.6914 0 3.0703-1.3789 3.0703-3.0703v-49.02c0-1.7031-1.3789-3.0859-3.0703-3.0859z"/>
  <path d="m269.21 764.75h-16.223c-14.941 0-27.086-12.156-27.086-27.098v-49.02c0-14.941 12.156-27.098 27.086-27.098h16.223c14.93 0 27.07 12.156 27.07 27.098v49.02c0.003906 14.945-12.141 27.098-27.07 27.098zm-16.223-79.211c-1.7031 0-3.0859 1.3789-3.0859 3.0977v49.02c0 1.7148 1.3789 3.0977 3.0859 3.0977h16.223c1.6914 0 3.0703-1.3789 3.0703-3.0977v-49.02c0-1.7148-1.3789-3.0977-3.0703-3.0977z"/>
  <path d="m947.02 651.6h-16.211c-14.941 0-27.098-12.156-27.098-27.086v-49.031c0-14.941 12.156-27.086 27.098-27.086h16.211c14.941 0 27.098 12.156 27.098 27.086v49.031c0 14.93-12.156 27.086-27.098 27.086zm-16.211-79.203c-1.7148 0-3.0977 1.3789-3.0977 3.0859v49.031c0 1.7031 1.3789 3.0859 3.0977 3.0859h16.211c1.7148 0 3.0977-1.3789 3.0977-3.0859v-49.031c0-1.7031-1.3789-3.0859-3.0977-3.0859z"/>
  <path d="m454.99 189.74c-12.191 32.711-23.426 56.137-23.426 56.137h336.85s-11.219-23.426-23.398-56.137z"/>
  <path d="m736.14 164.47c-5.9023-17.855-11.461-37.094-15.445-56.137h-241.39c-3.9727 19.043-9.5273 38.27-15.445 56.137z"/>
  <path d="m454.99 1010.3c-12.191-32.711-23.426-56.137-23.426-56.137h336.85s-11.219 23.426-23.398 56.137z"/>
  <path d="m736.14 1035.5c-5.9023 17.844-11.461 37.094-15.445 56.137h-241.39c-3.9727-19.043-9.5273-38.281-15.445-56.137z"/>
  <path d="m754.33 764.65h-308.66c-31.801 0-57.672-27.348-57.672-60.961v-207.37c0-33.613 25.871-60.973 57.672-60.973h308.68c31.789 0 57.672 27.348 57.672 60.973v207.37c-0.011719 33.602-25.883 60.961-57.684 60.961zm-308.66-305.3c-18.562 0-33.672 16.586-33.672 36.973v207.37c0 20.375 15.109 36.961 33.672 36.961h308.68c18.562 0 33.672-16.586 33.672-36.961v-207.37c0-20.387-15.109-36.973-33.672-36.973z"/>
 </g>
</svg>
