<?xml version="1.0" encoding="UTF-8"?>
<svg width="1200pt" height="1200pt" version="1.1" viewBox="0 0 1200 1200" xmlns="http://www.w3.org/2000/svg">
 <g>
  <path d="m1162.5 0h-356.25c-9.9453 0-19.484 3.9492-26.516 10.984-7.0352 7.0312-10.984 16.57-10.984 26.516v168.75h133.31c26.797 0.023438 52.488 10.68 71.434 29.629 18.949 18.945 29.605 44.637 29.629 71.434v123.94h159.38c9.9453 0 19.484-3.9492 26.516-10.984 7.0352-7.0312 10.984-16.57 10.984-26.516v-356.25c0-9.9453-3.9492-19.484-10.984-26.516-7.0312-7.0352-16.57-10.984-26.516-10.984zm-37.5 187.5c0 6.6992-3.5742 12.887-9.375 16.238-5.8008 3.3477-12.949 3.3477-18.75 0-5.8008-3.3516-9.375-9.5391-9.375-16.238v-75h-75c-6.6992 0-12.887-3.5742-16.238-9.375-3.3477-5.8008-3.3477-12.949 0-18.75 3.3516-5.8008 9.5391-9.375 16.238-9.375h93.75c4.9727 0 9.7422 1.9766 13.258 5.4922 3.5156 3.5156 5.4922 8.2852 5.4922 13.258z"/>
  <path d="m37.5 431.25h159.38v-123.94c0.023438-26.797 10.68-52.488 29.629-71.434 18.945-18.949 44.637-29.605 71.434-29.629h133.31v-168.75c0-9.9453-3.9492-19.484-10.984-26.516-7.0312-7.0352-16.57-10.984-26.516-10.984h-356.25c-9.9453 0-19.484 3.9492-26.516 10.984-7.0352 7.0312-10.984 16.57-10.984 26.516v356.25c0 9.9453 3.9492 19.484 10.984 26.516 7.0312 7.0352 16.57 10.984 26.516 10.984zm37.5-337.5c0-4.9727 1.9766-9.7422 5.4922-13.258 3.5156-3.5156 8.2852-5.4922 13.258-5.4922h93.75c6.6992 0 12.887 3.5742 16.238 9.375 3.3477 5.8008 3.3477 12.949 0 18.75-3.3516 5.8008-9.5391 9.375-16.238 9.375h-75v75c0 6.6992-3.5742 12.887-9.375 16.238-5.8008 3.3477-12.949 3.3477-18.75 0-5.8008-3.3516-9.375-9.5391-9.375-16.238z"/>
  <path d="m196.88 892.69v-123.94h-159.38c-9.9453 0-19.484 3.9492-26.516 10.984-7.0352 7.0312-10.984 16.57-10.984 26.516v356.25c0 9.9453 3.9492 19.484 10.984 26.516 7.0312 7.0352 16.57 10.984 26.516 10.984h356.25c9.9453 0 19.484-3.9492 26.516-10.984 7.0352-7.0312 10.984-16.57 10.984-26.516v-168.75h-133.31c-26.797-0.023438-52.488-10.68-71.434-29.629-18.949-18.945-29.605-44.637-29.629-71.434zm-9.375 232.31h-93.75c-4.9727 0-9.7422-1.9766-13.258-5.4922-3.5156-3.5156-5.4922-8.2852-5.4922-13.258v-93.75c0-6.6992 3.5742-12.887 9.375-16.238 5.8008-3.3477 12.949-3.3477 18.75 0 5.8008 3.3516 9.375 9.5391 9.375 16.238v75h75c6.6992 0 12.887 3.5742 16.238 9.375 3.3477 5.8008 3.3477 12.949 0 18.75-3.3516 5.8008-9.5391 9.375-16.238 9.375z"/>
  <path d="m1162.5 768.75h-159.38v123.94c-0.023438 26.797-10.68 52.488-29.629 71.434-18.945 18.949-44.637 29.605-71.434 29.629h-133.31v168.75c0 9.9453 3.9492 19.484 10.984 26.516 7.0312 7.0352 16.57 10.984 26.516 10.984h356.25c9.9453 0 19.484-3.9492 26.516-10.984 7.0352-7.0312 10.984-16.57 10.984-26.516v-356.25c0-9.9453-3.9492-19.484-10.984-26.516-7.0312-7.0352-16.57-10.984-26.516-10.984zm-37.5 337.5c0 4.9727-1.9766 9.7422-5.4922 13.258-3.5156 3.5156-8.2852 5.4922-13.258 5.4922h-93.75c-6.6992 0-12.887-3.5742-16.238-9.375-3.3477-5.8008-3.3477-12.949 0-18.75 3.3516-5.8008 9.5391-9.375 16.238-9.375h75v-75c0-6.6992 3.5742-12.887 9.375-16.238 5.8008-3.3477 12.949-3.3477 18.75 0 5.8008 3.3516 9.375 9.5391 9.375 16.238z"/>
  <path d="m234.38 307.31v585.38c0 16.859 6.6953 33.023 18.617 44.945 11.922 11.922 28.086 18.617 44.945 18.617h604.12c16.859 0 33.023-6.6953 44.945-18.617 11.922-11.922 18.617-28.086 18.617-44.945v-585.38c0-16.859-6.6953-33.023-18.617-44.945-11.922-11.922-28.086-18.617-44.945-18.617h-604.12c-16.859 0-33.023 6.6953-44.945 18.617-11.922 11.922-18.617 28.086-18.617 44.945zm693.75 309.38-302.16 302.06h-53.062l355.22-355.22zm0-106.03-408.19 408.09h-53.062l461.25-461.25zm0-106.03-514.31 514.12h-53.062l567.38-567.38zm-26.062-123.38c5.6055 0.035156 11.051 1.8828 15.527 5.2578 4.4766 3.3789 7.7422 8.1094 9.3164 13.492l-618.75 618.75h-9.375c-5.6055-0.035156-11.051-1.8828-15.527-5.2578-4.4766-3.3789-7.7422-8.1094-9.3164-13.492l618.75-618.75zm-62.812 0-567.38 567.38v-53.062l514.31-514.31zm-106.12 0-461.25 461.25v-53.062l408.19-408.19zm-106.03 0-355.22 355.22v-53.062l302.16-302.16z"/>
 </g>
</svg>
