<?xml version="1.0" encoding="UTF-8"?>
<svg width="1200pt" height="1200pt" version="1.1" viewBox="0 0 1200 1200" xmlns="http://www.w3.org/2000/svg">
 <path d="m276.14 590.95c36.797-7.7812 713.16-152.26 727.4-155.26 4.875-1.0781 9.1875-4.0312 11.859-8.25 2.7188-4.2656 3.6094-9.375 2.4844-14.297-23.391-110.95-90.234-207.98-185.63-269.34-318.61-205.92-729.42 76.734-650.53 447.89 0.98438 4.9219 3.9375 9.2344 8.1094 11.953 4.1719 2.7656 9.2812 3.75 14.203 2.7188zm100.55-312.42 165.89 183.71-236.58-76.641-0.046875 0.046875c16.078-40.125 40.125-76.547 70.734-107.11zm446.16-0.046875-180 162.37 75.141-231.56c39.234 15.75 74.906 39.281 104.86 69.188zm-291.32 219.61-244.4 52.172h0.046875c-6.7031-43.031-4.3125-87 6.8906-129.1zm135.98-29.016 179.95-162.32h0.046875c26.531 32.906 46.031 70.922 57.281 111.7zm-60.375-39.703-51.141-239.68c14.625-2.2031 29.391-3.3281 44.203-3.4688 27.75 0.046875 55.406 3.8438 82.219 11.25zm-87.984-232.5 51.328 240.32-165.79-183.61c33.891-26.531 72.844-45.844 114.47-56.719zm-246.61 93.516c110.34-178.22 365.76-232.69 539.34-115.12 81.562 52.594 140.29 133.97 164.63 227.86l-35.109 7.5c-95.109-338.11-563.9-350.81-677.58-18.938-17.766 53.578-22.312 110.67-13.266 166.4l-35.109 7.5c-16.172-95.672 4.2188-193.87 57.094-275.21z"/>
 <path d="m655.22 700.45c5.3438-26.344 16.172-51.234 31.734-73.172 3.9375-5.7188 4.3594-13.172 1.1719-19.312-3.2344-6.1875-9.5625-10.078-16.5-10.172h-149.21c-7.1719 0-13.734 4.125-16.875 10.594-3.0938 6.4688-2.25 14.156 2.2031 19.828 16.641 22.172 27.797 47.953 32.625 75.234 3.7969 28.594-11.812 49.172-29.906 72.984-18.938 24.891-40.406 53.156-39.844 93.656 0.89062 65.719 60.984 144.56 134.16 144 73.125-0.5625 131.76-79.406 131.58-144.32-0.14062-42.703-24.797-72.188-46.594-98.203-19.922-23.719-37.078-44.203-34.547-71.109zm-50.766 276.19c-50.25 0.375-95.672-59.531-96.375-107.02-0.375-27.609 14.719-47.484 32.203-70.5 43.641-49.688 49.641-103.22 16.125-163.82h82.219c-35.578 62.484-23.203 111.98 22.359 160.36 19.406 23.203 37.734 45.094 37.828 74.25 0.14062 46.734-44.297 106.36-94.359 106.73z"/>
 <path d="m851.44 891.94c-10.312 19.594-61.641 119.11-61.641 154.78h-0.046875c0.42188 42.984 35.344 77.578 78.281 77.578s77.859-34.594 78.281-77.578c0-35.672-51.375-135.19-61.688-154.78-3.5625-5.7188-9.8438-9.2344-16.594-9.2344s-13.031 3.5156-16.594 9.2344zm16.594 195.56c-22.5-0.046875-40.734-18.281-40.781-40.781 0-15.188 20.438-62.766 40.781-104.48 20.297 41.672 40.781 89.297 40.781 104.48-0.046875 22.5-18.281 40.734-40.781 40.781z"/>
 <path d="m301.6 843.32c-11.344 21.609-67.969 131.26-67.969 170.26 0.42188 46.453 38.156 83.859 84.562 83.859s84.141-37.406 84.562-83.859c0-39-56.625-148.64-67.969-170.26-3.5625-5.7188-9.8438-9.2344-16.594-9.2344s-13.031 3.5156-16.594 9.2344zm16.594 217.36c-25.969-0.046876-47.062-21.094-47.062-47.109 0-17.531 23.953-72.891 47.062-120.05 23.109 47.156 47.062 102.52 47.062 120.05 0 26.016-21.094 47.062-47.062 47.109z"/>
 <path d="m849.66 766.78c15.422-0.23438 27.75-12.75 27.75-28.125 0-15.422-12.328-27.938-27.75-28.172-15.375 0.23438-27.75 12.75-27.75 28.172 0 15.375 12.375 27.891 27.75 28.125zm0-37.5c5.1094 0.09375 9.1875 4.2656 9.1875 9.375 0 5.0625-4.0781 9.2344-9.1875 9.3281-5.0625-0.09375-9.1406-4.2656-9.1406-9.3281 0-5.1094 4.0781-9.2812 9.1406-9.375z"/>
 <path d="m377.72 701.06c-15.422 0.23438-27.75 12.797-27.75 28.172s12.328 27.938 27.75 28.125c15.375-0.1875 27.75-12.75 27.703-28.125 0-15.375-12.328-27.938-27.703-28.172zm0 37.5c-5.1094-0.09375-9.1875-4.2656-9.1875-9.3281 0-5.1094 4.0781-9.2344 9.1875-9.375 5.0625 0.14062 9.1406 4.2656 9.1406 9.375 0 5.0625-4.0781 9.2344-9.1406 9.3281z"/>
 <path d="m678.05 544.4c0.23438 15.375 12.75 27.703 28.125 27.703 15.422 0 27.938-12.328 28.172-27.703-0.23438-15.422-12.797-27.75-28.172-27.75s-27.891 12.328-28.125 27.75zm37.5 0c-0.14062 5.0625-4.2656 9.1406-9.375 9.1406-5.0625 0-9.2344-4.0781-9.3281-9.1406 0.09375-5.1094 4.2656-9.1875 9.3281-9.1875 5.1094 0 9.2344 4.0781 9.375 9.1875z"/>
 <path d="m850.31 512.11c-0.23438-15.422-12.797-27.75-28.172-27.75s-27.938 12.328-28.172 27.75c0.23438 15.375 12.797 27.703 28.172 27.703s27.938-12.328 28.172-27.703zm-28.172 9.375v-0.046875c-5.1094-0.09375-9.1406-4.2656-9.1406-9.3281 0-5.1094 4.0312-9.2344 9.1406-9.375 5.1094 0.09375 9.1875 4.2656 9.1875 9.375s-4.0781 9.2344-9.1875 9.3281z"/>
 <path d="m635.26 1039.4c-15.422 0.23438-27.75 12.75-27.75 28.125 0 15.422 12.328 27.938 27.75 28.172 15.375-0.23438 27.75-12.75 27.75-28.172 0-15.375-12.375-27.891-27.75-28.125zm0 37.5c-5.1094-0.09375-9.1875-4.2656-9.1875-9.375 0-5.0625 4.0781-9.2344 9.1875-9.3281 5.0625 0.09375 9.1406 4.2656 9.1406 9.3281 0 5.1094-4.0781 9.2812-9.1406 9.375z"/>
 <path d="m999.61 863.11c-15.375 0.23438-27.75 12.797-27.75 28.172s12.375 27.938 27.75 28.125c15.422-0.1875 27.75-12.75 27.75-28.125 0-15.422-12.328-27.938-27.75-28.172zm0 37.5c-5.0625-0.09375-9.1406-4.2188-9.1406-9.3281s4.0781-9.2344 9.1406-9.375c5.1094 0.14062 9.1875 4.2656 9.1875 9.375s-4.0781 9.2344-9.1875 9.3281z"/>
</svg>
