<?xml version="1.0" encoding="UTF-8"?>
<svg width="1200pt" height="1200pt" version="1.1" viewBox="0 0 1200 1200" xmlns="http://www.w3.org/2000/svg">
 <path d="m980.4 970.8h-123.6c-13.199 0-22.801-10.801-22.801-22.801v-356.4l-43.199 18v338.4c0 13.199-10.801 22.801-22.801 22.801h-123.6c-13.199 0-22.801-10.801-22.801-22.801l0.003906-265.2-43.199 18-0.003906 247.2c0 13.199-10.801 22.801-22.801 22.801h-123.6c-13.199 0-22.801-10.801-22.801-22.801v-175.2l-43.199 19.199v156c0 13.199-10.801 22.801-22.801 22.801h-123.6c-13.199 0-22.801-10.801-22.801-22.801v-84l-56.398 24c-2.3984 1.1992-6 2.3984-9.6016 2.3984-9.6016 0-18-6-21.602-14.398l-48-112.8c-2.3984-6-2.3984-12 0-18 2.3984-6 7.1992-9.6016 12-12l122.4-51.602 0.003906-429.6c0-13.199 10.801-22.801 22.801-22.801h123.6c13.199 0 22.801 10.801 22.801 22.801v355.2l43.199-18-0.003906-337.2c0-13.199 9.6016-22.801 22.801-22.801h123.6c13.199 0 22.801 9.6016 22.801 22.801v265.2l43.199-19.199-0.003906-246c0-13.199 10.801-22.801 22.801-22.801h124.8c13.199 0 22.801 10.801 22.801 22.801v174l43.199-19.199v-154.8c0-13.199 10.801-22.801 22.801-22.801h123.6c13.199 0 22.801 10.801 22.801 22.801v84l56.398-24c2.3984-1.1992 6-2.3984 9.6016-2.3984 9.6016 0 18 6 21.602 14.398l48 112.8c2.3984 6 2.3984 12 0 18-2.3984 6-7.1992 9.6016-12 12l-122.4 51.602-0.007812 429.6c-1.1992 12-10.797 22.801-24 22.801zm-123.6-412.8v390s0 1.1992 1.1992 1.1992h123.6s1.1992 0 1.1992-1.1992v-442.8l135.6-57.602v-1.1992l-48-112.8h-1.1992l-87.602 37.199v-118.8s0-1.1992-1.1992-1.1992h-123.6s-1.1992 0-1.1992 1.1992v170.4l-87.602 37.199v-207.6s0-1.1992-1.1992-1.1992h-122.4s-1.1992 0-1.1992 1.1992v261.6l-87.602 37.199 0.003906-298.8s0-1.1992-1.1992-1.1992h-122.4s-1.1992 0-1.1992 1.1992v351.6l-87.602 37.199v-388.8s0-1.1992-1.1992-1.1992h-122.4s-1.1992 0-1.1992 1.1992v442.8l-135.6 57.598 48 114h1.1992l87.602-37.199v118.8s0 1.1992 1.1992 1.1992h123.6s1.1992 0 1.1992-1.1992v-170.4l87.602-37.199-0.003906 207.6s0 1.1992 1.1992 1.1992h123.6s1.1992 0 1.1992-1.1992v-261.6l87.602-37.199v298.8s0 1.1992 1.1992 1.1992h120s1.1992 0 1.1992-1.1992v-351.6z"/>
</svg>
