<?xml version="1.0" encoding="UTF-8"?>
<svg width="1200pt" height="1200pt" version="1.1" viewBox="0 0 1200 1200" xmlns="http://www.w3.org/2000/svg">
 <path d="m200.02 875.02h-75c-13.781 0-24.984 11.203-24.984 24.984s11.203 24.984 24.984 24.984h75v150c0 13.781 11.203 24.984 24.984 24.984s24.984-11.203 24.984-24.984v-150h825c13.781 0 24.984-11.203 24.984-24.984s-11.203-24.984-24.984-24.984h-50.016v-525c0-13.781-11.203-24.984-24.984-24.984h-174.98c-13.781 0-24.984 11.203-24.984 24.984v525h-24.984v-600c0-13.781-11.203-24.984-24.984-24.984h-174.98c-13.781 0-24.984 11.203-24.984 24.984v600h-24.984v-425.02c0-13.781-11.203-24.984-24.984-24.984h-174.98c-13.781 0-24.984 11.203-24.984 24.984v425.02h-50.016v-750c0-13.781-11.203-24.984-24.984-24.984s-24.984 11.203-24.984 24.984v750zm774.98 0h-125.02v-500.02h125.02zm-249.98 0h-125.02v-575.02h125.02zm-249.98-399.98v399.98h-125.02v-399.98z" fill-rule="evenodd"/>
</svg>
