<?xml version="1.0" encoding="UTF-8"?>
<svg width="1200pt" height="1200pt" version="1.1" viewBox="0 0 1200 1200" xmlns="http://www.w3.org/2000/svg">
 <path d="m215.36 84.27h-131.09v131.09h131.09zm18.727 0v131.09h131.09v-131.09h-131.09zm149.81 0v131.09h131.09v-131.09h-131.09zm149.81 0v131.09h131.09v-131.09h-131.09zm149.81 0v131.09h131.09v-131.09h-131.09zm131.09 280.9v-131.09h-131.09v131.09zm0 149.81v-131.09h-131.09v131.09zm0 149.81v-131.09h-131.09v131.09zm0 149.81v-131.09h-131.09v131.09zm0 149.81v-131.09h-131.09v131.09zm-131.09 149.81h131.09v-131.09h-131.09zm-149.81 0h131.09v-131.09h-131.09zm-149.81 0h131.09v-131.09h-131.09zm-149.81 0h131.09v-131.09h-131.09zm-149.81-131.09v131.09h131.09v-131.09zm0-149.81v131.09h131.09v-131.09zm0-149.81v131.09h131.09v-131.09zm0-149.81v131.09h131.09v-131.09zm0-149.81v131.09h131.09v-131.09zm0-149.81v131.09h131.09v-131.09zm280.9 0h-131.09v131.09h131.09zm149.81 0h-131.09v131.09h131.09zm149.81 0h-131.09v131.09h131.09zm0 280.9v-131.09h-131.09v131.09zm0 149.81v-131.09h-131.09v131.09zm0 149.81v-131.09h-131.09v131.09zm0 149.81v-131.09h-131.09v131.09zm-280.9 0h131.09v-131.09h-131.09zm-149.81 0h131.09v-131.09h-131.09zm0-280.9v131.09h131.09v-131.09zm0-149.81v131.09h131.09v-131.09zm0-149.81v131.09h131.09v-131.09zm280.9 0h-131.09v131.09h131.09zm0 280.9v-131.09h-131.09v131.09zm0 149.81v-131.09h-131.09v131.09zm599.25-599.25v-131.09h-131.09v131.09zm0 149.81v-131.09h-131.09v131.09zm0 149.81v-131.09h-131.09v131.09zm0 149.81v-131.09h-131.09v131.09zm0 149.81v-131.09h-131.09v131.09zm0 149.81v-131.09h-131.09v131.09zm-131.09 18.727v131.09h131.09v-131.09z" fill-rule="evenodd"/>
</svg>
