<?xml version="1.0" encoding="UTF-8"?>
<svg width="1200pt" height="1200pt" version="1.1" viewBox="0 0 1200 1200" xmlns="http://www.w3.org/2000/svg">
 <g>
  <path d="m1160.8 177.67h-1121.6c-21.656 0-39.215 17.559-39.215 39.211v766.24c0 21.668 17.559 39.215 39.215 39.215h1121.6c21.652 0 39.215-17.547 39.215-39.215l-0.007812-166.08v-600.16c-0.011719-21.652-17.57-39.211-39.227-39.211zm-572.56 228.82v181.73h-270.57v-181.73zm-270.57-23.547v-181.73h270.57v181.73zm270.57 228.83v181.75h-270.57v-181.75zm0 205.27v181.75h-270.57v-181.75zm294.12-205.27v181.75h-270.57v-181.75zm-270.57-23.547v-181.73h270.57v181.73zm270.57 228.81v181.75h-270.57v-181.75zm0-434.09h-270.57v-181.73h270.57zm-858.81-166.07c0-8.625 7-15.625 15.625-15.668h254.96v181.73h-270.59zm0 189.61h270.59v181.73h-270.59zm0 205.28h270.59v181.75h-270.59zm0 371.33v-166.07h270.59v181.75h-254.96c-8.625-0.039062-15.625-7.0391-15.625-15.68zm1152.9 0c0 8.625-6.9883 15.641-15.625 15.68h-254.95v-181.75h270.57zm0-189.59h-270.57v-181.75h270.57zm0-205.29h-270.57v-181.73h270.57zm0-205.28h-270.57v-181.73h254.95c8.625 0.039062 15.625 7.0391 15.625 15.668z"/>
  <path d="m237.51 241.61h-157.35c-6.4922 0-11.773 5.2812-11.773 11.773v77.398c0 6.4922 5.2812 11.773 11.773 11.773h157.35c6.4922 0 11.773-5.2812 11.773-11.773v-77.398c-0.015625-6.5078-5.2812-11.773-11.773-11.773z"/>
  <path d="m237.51 446.89h-157.35c-6.4922 0-11.773 5.2539-11.773 11.762v77.398c0 6.4922 5.2812 11.762 11.773 11.762h157.35c6.4922 0 11.773-5.2656 11.773-11.762v-77.398c-0.015625-6.5078-5.2812-11.762-11.773-11.762z"/>
  <path d="m237.51 652.17h-157.35c-6.4922 0-11.773 5.2656-11.773 11.773v77.398c0 6.4922 5.2812 11.773 11.773 11.773h157.35c6.4922 0 11.773-5.2812 11.773-11.773v-77.398c-0.015625-6.5039-5.2812-11.773-11.773-11.773z"/>
  <path d="m237.51 857.45h-157.35c-6.4922 0-11.773 5.2656-11.773 11.773v77.398c0 6.4922 5.2812 11.773 11.773 11.773h157.35c6.4922 0 11.773-5.2812 11.773-11.773v-77.398c-0.015625-6.5195-5.2812-11.773-11.773-11.773z"/>
  <path d="m531.61 241.61h-157.35c-6.4922 0-11.773 5.2812-11.773 11.773v77.398c0 6.4922 5.2812 11.773 11.773 11.773h157.35c6.4922 0 11.773-5.2812 11.773-11.773v-77.398c0-6.5078-5.2812-11.773-11.773-11.773z"/>
  <path d="m668.39 342.55h157.35c6.4922 0 11.773-5.2812 11.773-11.773v-77.398c0-6.4922-5.2812-11.773-11.773-11.773h-157.35c-6.4922 0-11.773 5.2812-11.773 11.773v77.398c0 6.4922 5.2812 11.773 11.773 11.773z"/>
  <path d="m1119.8 241.61h-157.33c-6.4922 0-11.773 5.2812-11.773 11.773v77.398c0 6.4922 5.2812 11.773 11.773 11.773h157.35c6.4922 0 11.773-5.2812 11.773-11.773v-77.398c-0.015625-6.5078-5.2812-11.773-11.789-11.773z"/>
 </g>
</svg>
