<?xml version="1.0" encoding="UTF-8"?>
<svg width="1200pt" height="1200pt" version="1.1" viewBox="0 0 1200 1200" xmlns="http://www.w3.org/2000/svg">
 <path d="m683.88 321.15c-10.363 0-18.75 8.3945-18.75 18.75v39.789l-60.078-60.078c-7.3242-7.3242-19.188-7.3242-26.516 0-7.3242 7.3242-7.3242 19.188 0 26.516l60.078 60.078h-39.789c-10.363 0-18.75 8.3945-18.75 18.75s8.3867 18.75 18.75 18.75h85.051c2.4414 0 4.8711-0.49609 7.1641-1.4453 4.5898-1.9023 8.2422-5.5547 10.141-10.145 0.94922-2.2891 1.4453-4.7188 1.4453-7.1602v-85.051c0-10.355-8.3867-18.75-18.75-18.75z"/>
 <path d="m683.87 772.12c-2.293-0.94922-4.7227-1.4453-7.1641-1.4453h-71.777c-10.363 0-18.75 8.3945-18.75 18.75s8.3867 18.75 18.75 18.75h26.516l-45.703 45.703c-7.3242 7.3242-7.3242 19.188 0 26.516 3.6641 3.6641 8.4609 5.4922 13.258 5.4922s9.5938-1.832 13.258-5.4922l45.703-45.703v26.516c0 10.355 8.3867 18.75 18.75 18.75s18.75-8.3945 18.75-18.75v-71.777c0-2.4414-0.49609-4.8711-1.4453-7.1602-1.8984-4.5898-5.5508-8.2422-10.141-10.145z"/>
 <path d="m456.81 346.62h-298.96c-10.363 0-18.75 8.3945-18.75 18.75v469.26c0 10.355 8.3867 18.75 18.75 18.75h109.7c0.007812 0 0.019531-0.003906 0.027343-0.003906 0.007813 0 0.019531 0.003906 0.027344 0.003906h189.22c27.027 0 49.016-21.992 49.016-49.027v-287.47c0-0.0625 0.035156-0.11719 0.035156-0.18359v-121.03c0-27.043-22.008-49.055-49.07-49.055zm-280.21 188.84h72.199v121.46h-72.199zm109.75 0.035156h181.99v121.45h-181.99zm182.02-139.82v102.28h-291.78v-113.84h280.21c6.4805 0 11.57 5.0703 11.57 11.555zm-219.58 420.21h-72.199v-121.46h72.199zm219.54-11.527c0 6.3555-5.1641 11.527-11.516 11.527h-170.47v-121.45h181.99z"/>
 <path d="m1042.1 400.55h-230.24c-23.219 0-42.098 18.887-42.098 42.098v93.199c0 0.03125 0.019531 0.058594 0.019531 0.089844v221.44c0 23.199 18.859 42.07 42.059 42.07h145.73c0.007812 0 0.011718-0.003907 0.019531-0.003907s0.011719 0.003907 0.019531 0.003907h84.484c10.363 0 18.75-8.3945 18.75-18.75v-361.39c0-10.355-8.3867-18.75-18.75-18.75zm-234.81 154.08h131.54v84.906h-131.54zm169.08-0.035156h46.984v84.926h-46.984zm-169.1-111.95c0-2.6172 1.9766-4.5977 4.5977-4.5977h211.49v79.047h-216.08v-74.449zm131.56 319.3h-126.98c-2.5078 0-4.5586-2.0508-4.5586-4.5703v-80.336h131.54zm37.535-84.926h46.984v84.926h-46.984z"/>
</svg>
