<?xml version="1.0" encoding="UTF-8"?>
<svg width="1200pt" height="1200pt" version="1.1" viewBox="0 0 1200 1200" xmlns="http://www.w3.org/2000/svg">
 <g>
  <path d="m1004.7 1125c-0.46875-21.469-304.03-225.52-338.39-421.88-34.312-196.45 74.297-181.69 39.984-378.14-21.375-122.2-139.83-223.03-230.34-249.98h-91.031c14.625 67.266 125.25 133.97 107.44 235.12-34.453 195.7-123.42 140.11-157.88 335.77s77.156 469.83 74.953 479.11zm-311.02-192.05c9.2344-4.7344 20.531-1.125 25.266 8.0625 0.1875 0.32812 8.4844 16.219 22.641 35.953 14.109 19.688 34.078 43.125 57.422 58.547 8.625 5.7188 11.016 17.344 5.3438 25.969-3.6094 5.4844-9.6094 8.4375-15.703 8.4375-3.5156 0-7.125-0.98438-10.312-3.0938-54.984-36.281-91.219-105.7-92.719-108.61-4.7344-9.2344-1.125-20.531 8.0625-25.266zm-121.64-446.06c5.2031-8.9531 16.688-11.953 25.641-6.7031s11.906 16.734 6.7031 25.641c-16.031 27.328-43.172 128.02-15.094 214.92 3.1875 9.8438-2.25 20.391-12.094 23.578-1.9219 0.60938-3.8438 0.9375-5.7656 0.9375-7.9219 0-15.281-5.0625-17.812-13.031-31.5-97.5-3.5625-207.94 18.422-245.34zm-130.08 348.28c10.359-0.5625 19.172 7.3594 19.734 17.719 0 0.51562 1.5469 25.078 9.9375 60.047 8.3906 34.922 23.625 80.203 51.188 122.06 5.6719 8.6719 3.2812 20.297-5.3906 25.969-3.1406 2.1094-6.75 3.0938-10.266 3.0938-6.0938 0-12.094-2.9531-15.703-8.4375-60.797-92.484-66.984-196.36-67.219-200.72-0.5625-10.359 7.3594-19.172 17.719-19.734z"/>
  <path d="m376.27 374.06c0 49.688-33.516 77.953-71.766 84.844v-145.69c0-10.359-8.3906-18.75-18.75-18.75s-18.75 8.3906-18.75 18.75v145.69c-38.203-6.8906-71.719-35.156-71.719-84.844 0-115.45 40.5-209.02 90.469-209.02 50.016 0 90.516 93.562 90.516 209.02z"/>
  <path d="m304.5 458.91v119.39c0 10.359-8.3906 18.75-18.75 18.75s-18.75-8.3906-18.75-18.75v-119.39c12.375 2.25 25.172 2.25 37.5 0z"/>
  <path d="m946.78 665.2c0 58.781-40.594 91.734-86.016 98.766v-169.17c0-10.359-8.3906-18.75-18.75-18.75s-18.75 8.3906-18.75 18.75v169.17c-45.422-7.0312-86.016-39.984-86.016-98.766 0-133.64 46.875-241.97 104.77-241.97 57.844 0 104.77 108.33 104.77 241.97z"/>
  <path d="m860.77 763.97v137.72c0 10.359-8.3906 18.75-18.75 18.75s-18.75-8.3906-18.75-18.75v-137.72c12.375 1.9219 25.125 1.9219 37.5 0z"/>
 </g>
</svg>
