<?xml version="1.0" encoding="UTF-8"?>
<svg width="1200pt" height="1200pt" version="1.1" viewBox="0 0 1200 1200" xmlns="http://www.w3.org/2000/svg">
 <path d="m370.78 1140-0.89062-0.046875h-0.046875c-12.469 0.09375-24.188-4.3125-33.328-11.719-9.2344-7.5-15.938-18.188-18.375-30.562l-0.09375-0.28125v-0.046875c-0.1875-0.84375-0.32812-1.7344-0.32812-2.6719v-101.06c-21.797-28.781-37.969-61.125-47.906-95.25-9.8438-33.891-13.641-69.609-10.734-105.33l-28.641-35.484-29.766-36.328c-1.1719-1.2188-2.1094-2.6719-2.7188-4.3594-4.7344-13.266-5.4844-27.328-2.625-40.547 2.9062-13.219 9.4688-25.734 19.312-35.812 9.8438-10.031 22.219-16.875 35.344-20.062 3.4219-0.84375 6.9375-1.4531 10.5-1.7344l-22.031-28.828-0.1875-0.23438-0.14062-0.23438h-0.046875l-1.125-1.875-0.14062-0.28125-0.09375-0.28125-0.09375-0.23438v-0.046875l-0.09375-0.23438-0.09375-0.28125c-5.1094-13.406-5.6719-27.844-2.0625-41.156 3.6562-13.453 11.578-25.734 23.109-34.781 11.531-9 25.406-13.734 39.328-14.016 13.781-0.28125 27.703 3.7031 39.516 12.047l0.23438 0.1875 0.09375 0.09375 0.28125 0.1875 0.09375 0.09375 0.14062 0.09375 0.09375 0.09375 0.14062 0.09375 0.09375 0.09375 0.14062 0.09375 0.5625 0.5625 0.14062 0.09375 0.09375 0.09375 0.09375 0.14062 0.32812 0.32812 0.09375 0.14062 0.1875 0.1875 0.09375 0.14062 0.09375 0.09375 0.1875 0.23438 32.484 41.203 30.844 38.625c3.8438 0.23438 7.5469-0.14062 10.969-1.125 5.8125-1.6406 11.016-4.9688 15.047-9.375 4.0312-4.3594 6.8438-9.8438 8.0156-15.75 0.9375-4.7812 0.79688-9.8906-0.70312-15.047l-0.1875-0.89062-0.09375-0.5625v-0.046875c-17.484-86.016-32.859-164.26-45.984-234.71-13.078-70.031-23.953-132.28-32.625-186.74l-0.09375-0.5625v-0.09375l-0.046875-0.23438v-0.09375l-0.046875-0.1875v-2.2031c0.79688-16.828 7.8281-32.016 18.844-43.266 11.109-11.344 26.344-18.703 43.266-19.688 16.875-0.98438 32.859 4.5 45.234 14.438 12.281 9.7969 21.094 24.047 23.906 40.641l34.219 147.79 45.375 194.53c0.84375-23.016 1.4531-47.156 2.0156-71.812 1.4531-69.281 1.8281-143.02 1.5469-207.74v-1.8281l0.046875-0.23437v-0.09375l0.14062-0.89063c3-16.406 11.719-30.562 23.766-40.641 12.094-10.078 27.609-16.078 44.25-16.078s32.156 6 44.25 16.078c12 9.9844 20.672 24.094 23.719 40.359l0.046875 0.23438v0.046874l0.14062 0.84375v0.046876l0.046875 0.28125v1.5c0.32812 96.234 0.51562 183 0.51562 261.24l-0.46875 255.14c9.6562-4.1719 19.594-9.2812 29.625-16.078 15.469-10.453 31.219-24.984 46.406-46.312l0.09375-0.14062 0.375-0.46875c21.188-30.562 42.609-57.094 64.266-79.594 21.797-22.688 43.875-41.344 66.188-55.922 11.344-8.9062 25.172-12.844 38.625-11.953 13.641 0.89062 27 6.75 37.125 17.297s15.422 24.141 15.75 37.781c0.32812 13.359-4.0781 26.859-13.266 37.734l-0.14062 0.1875-0.046875 0.046875-0.9375 1.1719c-57.75 57.609-85.641 120.1-114.09 183.89-28.734 64.453-58.078 130.22-118.69 194.95l-0.14062 0.1875-0.51562 0.51562-0.46875 0.42188-0.1875 0.1875-0.23438 0.1875c-21.141 18.234-36.047 38.578-44.672 60.891-8.5781 22.266-11.016 46.828-7.3125 73.641l0.046875 0.28125v0.1875l0.046875 0.32812v1.5938l-0.046875 0.84375v0.046875l-0.046875 0.23438v0.09375l-0.046875 0.23438v0.09375l-0.046875 0.23438v0.09375l-0.046875 0.1875-0.046875 0.28125v0.09375c-2.3906 12.562-9.0938 23.344-18.422 30.891-9.1406 7.4531-20.859 11.812-33.328 11.719h-0.046875l-0.89062 0.046875h-281.9zm221.02-71.109c-6.6094 0-12-5.3906-12-12s5.3906-12 12-12h43.641c6.6094 0 12 5.3906 12 12s-5.3906 12-12 12zm-199.87 0c-6.6094 0-12-5.3906-12-12s5.3906-12 12-12h149.9c6.6094 0 12 5.3906 12 12s-5.3906 12-12 12zm-11.062-945.56c8.5781 53.812 19.406 115.73 32.438 185.63 13.031 69.938 28.359 148.08 45.938 234.28 2.4844 8.8594 2.7188 17.672 1.125 25.875-2.0156 10.359-6.9844 19.828-13.922 27.422-6.8906 7.5469-15.891 13.266-26.016 16.172l29.766 36.797 47.203 57.703 0.1875 0.23438c0.9375 1.0781 1.6875 2.2969 2.2031 3.7031l0.046875 0.046875 0.42188 1.4531 0.046875 0.1875 0.046875 0.14062c2.8125 13.547 1.7344 27.375-2.7656 39.984-4.4062 12.328-12.141 23.484-22.641 32.109l-0.65625 0.5625c-10.547 8.4844-23.016 13.688-35.906 15.516l-1.0781 0.1875c-2.0625 0.23438-4.0781 0.42188-6.1406 0.51562l28.453 36.984c0.51562 0.65625 0.89062 1.3594 1.2656 2.0625l0.5625 1.6875 0.09375 0.23438v0.046875l0.09375 0.23438v0.046875l0.09375 0.23438v0.046875l0.046875 0.23438v0.046875l0.09375 0.60938 0.046875 0.1875 0.046875 0.28125 0.046875 0.14062c1.9219 13.219 0 26.438-5.1094 38.156-5.2031 11.953-13.781 22.5-24.984 30.094l-0.84375 0.51562c-11.016 7.2188-23.672 11.109-36.375 11.438-13.031 0.375-26.156-2.8594-37.828-9.75l-0.46875-0.32812h-0.046875l-0.42188-0.32812-0.046875-0.046875-0.1875-0.14062-0.046875-0.046875-0.1875-0.14062-1.125-1.0312-0.046875-0.046875-0.75-0.89062-0.375-0.46875-46.969-59.766-24.141-30.281c0.46875 23.766 4.0781 47.25 10.688 69.844 9.375 32.25 24.797 62.766 45.75 89.766 1.9688 2.1562 3.1875 5.0156 3.1875 8.1562v104.06c1.4062 6.4688 4.9688 12.094 9.8438 16.031 4.9219 3.9844 11.156 6.3281 17.859 6.375l1.3125-0.09375h281.9l1.3125 0.09375c6.7031-0.046875 12.938-2.3906 17.859-6.375 4.6875-3.8438 8.2031-9.1875 9.7031-15.422-3.9844-30.234-0.98438-58.219 8.9531-83.953 10.031-26.016 27.094-49.406 51.188-70.266 57.797-61.828 86.25-125.68 114.14-188.16 29.344-65.719 58.031-130.18 118.78-190.82 5.3438-6.3281 7.875-14.156 7.6875-21.891-0.1875-7.875-3.2344-15.703-9.0938-21.75-5.8125-6.0938-13.547-9.4688-21.375-9.9844-7.875-0.51562-15.938 1.8281-22.5 7.0312l-0.046875 0.046875-0.1875 0.14062-0.046875 0.046875-0.1875 0.14062-0.09375 0.046875-0.1875 0.14062-0.046875 0.046875-0.1875 0.14062-0.046875 0.046875-0.23438 0.1875-0.09375 0.046875c-20.859 13.641-41.578 31.172-62.156 52.547-20.766 21.609-41.438 47.156-61.828 76.594l-0.375 0.46875-0.09375 0.09375-0.09375 0.14062-0.09375 0.09375c-17.156 24-34.922 40.453-52.5 52.312-17.438 11.812-34.688 19.125-50.859 24.938h-0.046875l-0.28125 0.14062-0.28125 0.09375-14.062 4.9219c-34.969 11.906-62.344 21.234-69.422 76.078-0.84375 6.5625-6.7969 11.203-13.359 10.359s-11.203-6.7969-10.359-13.359c8.9531-69.75 42.562-81.188 85.453-95.766l6.2812-2.1562c0.23438-78.609 0.375-167.02 0.375-264.14 0-99.188-0.14062-186.37-0.375-260.53-2.1094-10.359-7.6875-19.266-15.328-25.641-7.875-6.5156-18-10.406-28.969-10.406s-21.141 3.8906-28.969 10.406c-7.6406 6.375-13.219 15.281-15.328 25.594 0.32812 64.922-0.09375 138.71-1.5469 207.89-1.2188 58.641-3.2344 113.91-6.1406 157.69v0.60938l-0.046875 0.23438v0.046875l-0.046875 0.23438v0.046875l-0.046875 0.28125v0.046875l-0.14062 0.84375-0.1875 0.5625v0.046875l-0.09375 0.23438v0.046875l-0.09375 0.23438v0.046875l-0.09375 0.23438v0.046875l-0.09375 0.23438v0.046875l-0.09375 0.23438v0.046875l-0.09375 0.23438v0.046875l-0.09375 0.23438-0.046875 0.046875-0.09375 0.1875-0.046875 0.046875-0.375 0.75-0.046875 0.046875-0.28125 0.5625-0.14062 0.1875-0.046875 0.09375-0.09375 0.14062-0.046875 0.09375-0.14062 0.1875-0.046875 0.046875-0.14062 0.1875-0.1875 0.1875-0.046875 0.09375-1.125 1.125-0.1875 0.14062-0.046875 0.046875-0.375 0.32812-0.09375 0.046875-0.1875 0.14062-0.046875 0.046875-0.1875 0.14062-0.046875 0.046875-0.1875 0.14062h-0.046875l-0.46875 0.28125h-0.046875l-0.23438 0.14062h-0.046875l-0.23438 0.14062h-0.046875l-0.23438 0.14062h-0.046875l-0.51562 0.23438-0.84375 0.28125-0.23438 0.09375h-0.046875l-0.23438 0.09375h-0.046875l-0.23438 0.046875-0.046875 0.046875-0.23438 0.046875-0.09375 0.046875-0.23438 0.046875-0.09375 0.046875-0.23438 0.046875-0.09375 0.046875-0.1875 0.046875h-0.09375l-0.1875 0.046875h-0.28125l-0.09375 0.046875h-2.0625l-0.23438-0.046875h-0.046875l-0.23438-0.046875h-0.046875l-0.28125-0.046875h-0.046875l-0.84375-0.14062-0.5625-0.1875h-0.046875l-0.23438-0.09375h-0.046875l-0.23438-0.09375h-0.046875l-0.23438-0.09375h-0.046875l-0.23438-0.09375h-0.046875l-0.23438-0.09375h-0.046875l-0.23438-0.09375h-0.046875l-0.23438-0.09375-0.046875-0.046875-0.1875-0.09375-0.046875-0.046875-0.75-0.375-0.046875-0.046875-0.1875-0.14062-0.375-0.1875-0.1875-0.14062-0.09375-0.046875-0.14062-0.09375-0.09375-0.046875-0.1875-0.14062-0.046875-0.046875-0.1875-0.14062-0.1875-0.1875-0.09375-0.046875-1.125-1.125-0.14062-0.1875-0.046875-0.046875-0.32812-0.375-0.046875-0.09375-0.14062-0.1875-0.046875-0.046875-0.14062-0.1875-0.046875-0.046875-0.14062-0.1875v-0.046875l-0.28125-0.46875v-0.046875l-0.14062-0.23438v-0.046875l-0.14062-0.23438v-0.046875l-0.14062-0.23438v-0.046875l-0.23438-0.51562-0.28125-0.84375-0.09375-0.23438v-0.046875l-0.09375-0.23438v-0.046875l-0.046875-0.23438-0.046875-0.046875-0.046875-0.23438-0.046875-0.09375-0.046875-0.23438-64.734-277.69-34.125-147.56-0.51562-1.5469-0.046875-0.28125v-0.046874c-1.7812-10.453-7.4062-19.453-15.234-25.688-7.875-6.3281-18.094-9.8438-28.875-9.1875s-20.531 5.3438-27.609 12.562c-6.8438 6.9844-11.297 16.359-12 26.719zm-122.53 452.9 37.875 49.547 0.375 0.46875c37.828 49.453 75.75 98.859 113.67 148.22 7.7812 3 16.078 3.9375 24.188 2.9531l0.79688-0.09375c8.6719-1.2188 17.062-4.7812 24.141-10.453l0.5625-0.42188c7.0312-5.7656 12.188-13.312 15.188-21.609 2.7188-7.6406 3.5625-16.031 2.2969-24.375l-45.75-55.922-44.016-54.469-0.375-0.46875-0.09375-0.14062-0.09375-0.09375-0.1875-0.23438-0.046875-0.046875-33.656-42.094-31.734-40.266c-7.3594-4.8281-15.797-7.125-24.188-6.9375-8.8594 0.1875-17.766 3.1875-25.125 8.9531s-12.422 13.641-14.766 22.219c-2.2031 8.0625-1.9688 16.875 0.9375 25.172zm135.52 216.19c-0.51562-0.5625-0.9375-1.125-1.3594-1.7344-37.594-48.891-75.188-97.875-112.64-146.86-8.0625-2.0625-16.406-2.0625-24.188-0.1875-8.8594 2.1562-17.156 6.75-23.812 13.547-6.6562 6.8438-11.062 15.234-13.031 24.141-1.8281 8.3906-1.5 17.25 1.1719 25.688l29.016 35.438 31.734 39.281 44.297 55.594 45.938 58.406c7.2656 3.8906 15.281 5.7188 23.203 5.4375 8.2969-0.23438 16.547-2.7656 23.766-7.4531l0.70312-0.51562c7.4062-4.9688 13.031-11.953 16.453-19.781 3.0469-7.0312 4.3594-14.812 3.6562-22.641z"/>
</svg>
