<?xml version="1.0" encoding="UTF-8"?>
<svg width="1200pt" height="1200pt" version="1.1" viewBox="0 0 1200 1200" xmlns="http://www.w3.org/2000/svg">
 <path d="m673.4 404.58c2.2031 0.84375 4.3594 1.6875 6.4688 2.5781 2.1562 0.89062 4.3125 1.8281 6.4219 2.8125l44.672-26.156c7.3125-4.3125 16.406-2.9062 22.172 2.8125l0.046875-0.046875 60.234 60.281c6.4219 6.4219 7.0781 16.406 1.9688 23.578l-25.359 43.312c0.98438 2.1562 1.9219 4.2656 2.8125 6.4219 0.89062 2.1094 1.7344 4.3125 2.5781 6.5156l50.062 13.078c8.25 2.1562 13.688 9.5625 13.688 17.672h0.046875v85.219c0 9.0469-6.5625 16.547-15.188 18.047l-48.656 12.703c-0.84375 2.2031-1.6875 4.3594-2.5781 6.4688-0.89062 2.1562-1.8281 4.3125-2.8125 6.4219l26.156 44.672c4.3125 7.3125 2.9062 16.406-2.8125 22.172l0.046875 0.046875-60.234 60.234c-6.4219 6.4219-16.406 7.0781-23.578 1.9688l-43.312-25.359c-2.1562 0.98438-4.2656 1.9219-6.4219 2.8125-2.1094 0.89062-4.3125 1.7344-6.5156 2.5781l-13.078 50.062c-2.1562 8.25-9.5625 13.688-17.672 13.688v0.046875h-85.219c-9.0469 0-16.547-6.5625-18.047-15.188l-12.703-48.656c-2.2031-0.84375-4.3594-1.6875-6.4688-2.5781-2.1562-0.89062-4.3125-1.8281-6.4219-2.8125l-44.672 26.156c-7.3125 4.3125-16.406 2.9062-22.172-2.8125l-0.046875 0.046875-60.281-60.234c-6.4219-6.4219-7.0781-16.406-1.9688-23.578l25.359-43.312c-0.98438-2.1562-1.9219-4.2656-2.8125-6.4219-0.89062-2.1094-1.7344-4.3125-2.5781-6.5156l-50.062-13.078c-8.25-2.1562-13.688-9.5625-13.688-17.672h-0.046875v-85.219c0-9.0469 6.5625-16.547 15.188-18.047l48.656-12.703c0.84375-2.2031 1.6875-4.4062 2.5781-6.5156 0.89062-2.1562 1.8281-4.2656 2.8125-6.4219l-26.156-44.672c-4.3125-7.3125-2.9062-16.406 2.8125-22.172l-0.046875-0.046875 60.281-60.281c6.4219-6.4219 16.406-7.0781 23.578-1.9688l43.312 25.359c2.1562-0.98438 4.2656-1.875 6.4219-2.8125 2.1094-0.89062 4.2656-1.7344 6.5156-2.5781l13.078-50.062c2.1562-8.25 9.5625-13.688 17.672-13.688v-0.046875h85.219c9.0469 0 16.547 6.5625 18.047 15.188zm38.672-294.61h142.92c10.125 0 18.328 8.2031 18.328 18.328v142.92c0 10.125-8.2031 18.328-18.328 18.328l-142.92 0.046875c-10.125 0-18.328-8.2031-18.328-18.328v-142.97c0-10.125 8.2031-18.328 18.328-18.328zm124.64 36.656h-106.27v106.27h106.27zm104.77 184.26h142.97c10.125 0 18.328 8.2031 18.328 18.328v142.92c0 10.125-8.2031 18.328-18.328 18.328l-142.97 0.046874c-10.125 0-18.328-8.2031-18.328-18.328v-142.92c0-10.125 8.2031-18.375 18.328-18.375zm124.64 36.703h-106.27v106.27h106.27zm-59.109-335.9h142.92c10.125 0 18.328 8.2031 18.328 18.328v142.92c0 10.125-8.2031 18.328-18.328 18.328l-142.92 0.046875c-10.125 0-18.328-8.2031-18.328-18.328v-142.97c0-10.125 8.2031-18.328 18.328-18.328zm124.64 36.656h-106.27v106.27h106.27zm-908.02 296.72c24.797 0 47.25 10.078 63.516 26.297 16.266 16.266 26.297 38.719 26.297 63.516s-10.078 47.25-26.297 63.516c-16.266 16.266-38.719 26.297-63.516 26.297-24.797 0-47.25-10.078-63.516-26.297-16.266-16.266-26.297-38.719-26.297-63.516s10.078-47.25 26.297-63.516c16.266-16.219 38.719-26.297 63.516-26.297zm37.594 52.219c-9.6094-9.6094-22.922-15.562-37.594-15.562-14.672 0-27.938 5.9531-37.594 15.562-9.6094 9.6094-15.562 22.922-15.562 37.594s5.9531 27.938 15.562 37.594c9.6094 9.6094 22.875 15.562 37.594 15.562 14.672 0 27.938-5.9531 37.594-15.562 9.6094-9.6094 15.562-22.875 15.562-37.594 0-14.672-5.9531-27.984-15.562-37.594zm-139.74-252.56c24.797 0 47.25 10.078 63.516 26.297 16.266 16.266 26.297 38.719 26.297 63.469 0 24.797-10.078 47.25-26.297 63.516-16.266 16.266-38.719 26.297-63.516 26.297s-47.25-10.078-63.469-26.297c-16.266-16.266-26.297-38.719-26.297-63.516s10.078-47.25 26.297-63.469c16.219-16.266 38.672-26.297 63.469-26.297zm37.594 52.219c-9.6094-9.6094-22.922-15.562-37.594-15.562s-27.938 5.9531-37.594 15.562c-9.6094 9.6094-15.562 22.875-15.562 37.594 0 14.672 5.9531 27.938 15.562 37.594 9.6094 9.6094 22.875 15.562 37.594 15.562 14.672 0 27.938-5.9531 37.594-15.562 9.6094-9.6094 15.562-22.875 15.562-37.594 0-14.672-5.9531-27.984-15.562-37.594zm773.63 401.39c-10.125 0-18.328-8.2031-18.328-18.328s8.2031-18.328 18.328-18.328h217.26c10.125 0 18.328 8.2031 18.328 18.328s-8.2031 18.328-18.328 18.328zm-665.44-36.656c10.125 0 18.328 8.2031 18.328 18.328s-8.2031 18.328-18.328 18.328h-217.26c-10.125 0-18.328-8.2031-18.328-18.328s8.2031-18.328 18.328-18.328zm101.16-549.98c24.797 0 47.25 10.078 63.469 26.297 16.266 16.266 26.297 38.719 26.297 63.516s-10.078 47.25-26.297 63.516c-16.266 16.266-38.719 26.297-63.469 26.297-24.797 0-47.25-10.078-63.516-26.297-16.266-16.266-26.297-38.719-26.297-63.516s10.078-47.25 26.297-63.516c16.266-16.219 38.719-26.297 63.516-26.297zm37.594 52.219c-9.6094-9.6094-22.875-15.562-37.594-15.562-14.672 0-27.938 5.9531-37.594 15.562-9.6094 9.6094-15.562 22.875-15.562 37.594 0 14.672 5.9531 27.938 15.562 37.594 9.6094 9.6094 22.922 15.562 37.594 15.562 14.672 0 27.938-5.9531 37.594-15.562 9.6094-9.6094 15.562-22.922 15.562-37.594s-5.9531-27.938-15.562-37.594zm212.29 183.37c0 10.125-8.2031 18.328-18.328 18.328s-18.328-8.2031-18.328-18.328v-217.26c0-10.125 8.2031-18.328 18.328-18.328s18.328 8.2031 18.328 18.328zm187.6 585.52c-1.5469-2.7656-3.8438-5.1562-6.7969-6.8438-8.7188-5.0625-19.922-2.1094-24.984 6.6562-23.578 40.781-47.062 81.562-70.594 122.34-2.1094 3-3.375 6.6562-3.375 10.594 0 10.125 8.2031 18.328 18.328 18.328h142.92v-0.09375c3.0938 0 6.2344-0.79688 9.0938-2.4375 8.7656-5.0156 11.766-16.172 6.75-24.938-23.766-41.156-47.531-82.359-71.344-123.61zm-15.938 45.562c13.266 22.969 26.578 45.891 39.797 68.859h-79.641c13.312-22.969 26.578-45.891 39.844-68.859zm304.45-167.02c23.812 41.203 47.578 82.453 71.344 123.66 5.0156 8.7656 2.0156 19.875-6.75 24.938-2.8594 1.6406-6 2.4375-9.0938 2.4375v0.09375l-142.92-0.046875c-10.125 0-18.328-8.2031-18.328-18.328 0-3.7969 1.1719-7.3125 3.1406-10.266l70.828-122.72c5.0625-8.7188 16.266-11.719 24.984-6.6562 2.9531 1.7344 5.25 4.125 6.7969 6.8906zm-15.938 45.516-39.75 68.859h79.594c-13.266-22.922-26.578-45.891-39.844-68.859zm-94.5 240.42 71.391 123.61c5.0156 8.7656 2.0156 19.875-6.75 24.938-2.8594 1.6406-6 2.4375-9.0938 2.4375v0.09375l-142.92-0.046875c-10.125 0-18.328-8.2031-18.328-18.328 0-3.9375 1.2656-7.6406 3.375-10.594l70.594-122.29c5.0156-8.7656 16.172-11.766 24.938-6.75 2.9531 1.7344 5.25 4.125 6.7969 6.9375zm-15.938 45.422-39.797 68.953h79.641zm-835.5-63.281 71.156 51.703c6.7969 4.9219 9.1875 13.641 6.4688 21.094l-27.094 83.391c-2.5312 7.7344-9.7031 12.656-17.391 12.656v0.046876h-88.359c-8.5781 0-15.75-5.8594-17.766-13.781l-26.953-82.875c-2.5312-7.7344 0.42188-15.938 6.6562-20.484l71.484-51.938c6.6562-4.875 15.516-4.5469 21.797 0.1875zm-11.062 37.219-49.969 36.281 19.078 58.688h61.781l19.078-58.688zm292.6-143.34 71.156 51.703c6.7969 4.9219 9.1875 13.641 6.4688 21.094l-27.094 83.391c-2.5312 7.7344-9.7031 12.656-17.391 12.656v0.046875h-88.359c-8.5781 0-15.75-5.8594-17.766-13.781l-26.906-82.875c-2.5312-7.7344 0.42188-15.938 6.6562-20.484l71.484-51.938c6.6094-4.875 15.469-4.5469 21.75 0.1875zm-11.062 37.219-49.969 36.281 19.078 58.688h61.781l19.078-58.688zm178.64 2.2031c0-10.125 8.2031-18.328 18.328-18.328s18.328 8.2031 18.328 18.328v217.26c0 10.125-8.2031 18.328-18.328 18.328s-18.328-8.2031-18.328-18.328zm18.328-469.92c-37.875 0-72.188 15.375-97.031 40.172-24.844 24.844-40.172 59.156-40.172 97.031s15.375 72.188 40.172 97.031c24.844 24.844 59.156 40.172 97.031 40.172s72.188-15.375 97.031-40.172c24.844-24.844 40.172-59.156 40.172-97.031s-15.375-72.188-40.172-97.031c-24.844-24.844-59.156-40.172-97.031-40.172zm71.109 66.094c-18.188-18.188-43.312-29.438-71.109-29.438-27.75 0-52.922 11.25-71.109 29.438s-29.438 43.359-29.438 71.109 11.25 52.922 29.438 71.109 43.312 29.438 71.109 29.438c27.75 0 52.922-11.25 71.109-29.438s29.438-43.312 29.438-71.109c0-27.75-11.25-52.922-29.438-71.109zm-491.16 146.02 71.156 51.703c6.7969 4.9219 9.1875 13.641 6.4688 21.094l-27.094 83.391c-2.5312 7.7344-9.7031 12.656-17.391 12.656v0.046875h-88.359c-8.5781 0-15.75-5.8594-17.766-13.781l-26.906-82.922c-2.5312-7.7344 0.42188-15.938 6.6562-20.484l71.484-51.938c6.6562-4.8281 15.516-4.5 21.75 0.23438zm-11.062 37.219-49.969 36.281 19.078 58.688h61.781l19.078-58.688zm496.92-271.22c-4.5-1.875-8.9062-3.5156-13.219-4.875-5.7656-1.875-10.453-6.5156-12.094-12.797l-11.953-45.797h-57.047l-11.859 45.422c-1.4062 6.0469-5.8594 11.203-12.188 13.219-4.3125 1.4062-8.7656 3.0469-13.266 4.875-4.4531 1.8281-8.7656 3.8438-12.844 5.9531v-0.046876c-5.3906 2.7656-12 2.8125-17.625-0.46875l-40.875-23.953-40.359 40.312 23.438 40.078c3.5156 5.3438 4.125 12.375 0.98438 18.469-2.1094 4.125-4.125 8.3906-5.9531 12.844-1.875 4.5-3.5156 8.9062-4.875 13.266-1.8281 5.7656-6.5156 10.453-12.797 12.094l-45.797 11.953v57.047l45.422 11.859c6.0469 1.4062 11.203 5.8594 13.219 12.188 1.4062 4.3125 3.0469 8.7656 4.875 13.266 1.8281 4.4531 3.8438 8.7656 5.9531 12.844h-0.046875c2.7656 5.3906 2.8125 12-0.46875 17.625l-23.953 40.875 40.359 40.359 40.078-23.438c5.3438-3.5156 12.375-4.125 18.469-0.98437 4.125 2.1094 8.3906 4.125 12.891 5.9531 4.5 1.875 8.9062 3.4688 13.266 4.875 5.7656 1.875 10.453 6.5156 12.094 12.797l11.953 45.797h57.047l11.859-45.422c1.4062-6.0469 5.8594-11.203 12.188-13.219 4.3125-1.4062 8.7656-3.0469 13.266-4.875 4.4531-1.8281 8.7656-3.8438 12.844-5.9531v0.046876c5.3906-2.7656 12-2.8125 17.625 0.46875l40.875 23.953 40.312-40.359-23.438-40.078c-3.5156-5.3438-4.125-12.375-0.98438-18.469 2.1094-4.125 4.125-8.3906 5.9531-12.891 1.875-4.5 3.5156-8.9062 4.875-13.266 1.8281-5.7656 6.5156-10.453 12.797-12.094l45.797-11.953v-57.047l-45.422-11.859c-6.0469-1.4062-11.203-5.8594-13.219-12.188-1.4062-4.3125-3.0469-8.7656-4.875-13.266-1.8281-4.4531-3.8438-8.7656-5.9531-12.844h0.046875c-2.7656-5.3906-2.8125-12 0.46875-17.625l23.953-40.875-40.312-40.312-40.078 23.438c-5.3438 3.5156-12.375 4.125-18.469 0.98438-4.1719-2.0625-8.4375-4.0312-12.938-5.9062z" fill-rule="evenodd"/>
</svg>
