<?xml version="1.0" encoding="UTF-8"?>
<svg width="1200pt" height="1200pt" version="1.1" viewBox="0 0 1200 1200" xmlns="http://www.w3.org/2000/svg">
 <path d="m712.5 337.5h-225c-20.625 0-37.5 16.875-37.5 37.5v75c0 20.625 16.875 37.5 37.5 37.5h225c20.625 0 37.5-16.875 37.5-37.5v-75c0-20.625-16.875-37.5-37.5-37.5zm-225 112.5v-75h225v75z"/>
 <path d="m131.26 450c0 20.625 16.875 37.5 37.5 37.5h225c20.625 0 37.5-16.875 37.5-37.5v-75c0-20.625-16.875-37.5-37.5-37.5h-225c-20.625 0-37.5 16.875-37.5 37.5zm37.5-75h225v75h-225z"/>
 <path d="m1068.7 375c0-20.625-16.875-37.5-37.5-37.5h-225c-20.625 0-37.5 16.875-37.5 37.5v75c0 20.625 16.875 37.5 37.5 37.5h225c20.625 0 37.5-16.875 37.5-37.5zm-262.5 75v-75h225v75z"/>
 <path d="m750 562.5c0-20.625-16.875-37.5-37.5-37.5h-225c-20.625 0-37.5 16.875-37.5 37.5v75c0 20.625 16.875 37.5 37.5 37.5h225c20.625 0 37.5-16.875 37.5-37.5zm-262.5 75v-75h225v75z"/>
 <path d="m131.26 637.5c0 20.625 16.875 37.5 37.5 37.5h225c20.625 0 37.5-16.875 37.5-37.5v-75c0-20.625-16.875-37.5-37.5-37.5h-225c-20.625 0-37.5 16.875-37.5 37.5zm37.5-75h225v75h-225z"/>
 <path d="m1068.7 562.5c0-20.625-16.875-37.5-37.5-37.5h-225c-20.625 0-37.5 16.875-37.5 37.5v75c0 20.625 16.875 37.5 37.5 37.5h225c20.625 0 37.5-16.875 37.5-37.5zm-262.5 75v-75h225v75z"/>
 <path d="m712.5 712.5h-225c-20.625 0-37.5 16.875-37.5 37.5v75c0 20.625 16.875 37.5 37.5 37.5h225c20.625 0 37.5-16.875 37.5-37.5v-75c0-20.625-16.875-37.5-37.5-37.5zm-225 112.5v-75h225v75z"/>
 <path d="m131.26 825c0 20.625 16.875 37.5 37.5 37.5h225c20.625 0 37.5-16.875 37.5-37.5v-75c0-20.625-16.875-37.5-37.5-37.5h-225c-20.625 0-37.5 16.875-37.5 37.5zm37.5-75h225v75h-225z"/>
 <path d="m1068.7 750c0-20.625-16.875-37.5-37.5-37.5h-225c-20.625 0-37.5 16.875-37.5 37.5v75c0 20.625 16.875 37.5 37.5 37.5h225c20.625 0 37.5-16.875 37.5-37.5zm-262.5 75v-75h225v75z"/>
</svg>
