<?xml version="1.0" encoding="UTF-8"?>
<svg width="1200pt" height="1200pt" version="1.1" viewBox="0 0 1200 1200" xmlns="http://www.w3.org/2000/svg">
 <g>
  <path d="m359.62 195.02h-143.81v-69.719c0-13.246-10.754-24-24-24s-24 10.754-24 24v69.719h-143.81c-13.246 0-24 10.754-24 24v123.96c0 13.246 10.754 24 24 24h143.81v707.71c0 13.273 10.754 24 24 24s24-10.727 24-24v-707.71h143.81c13.246 0 24-10.754 24-24v-123.96c0-13.246-10.73-24-24-24zm-24 123.96h-287.62v-75.961h143.76 0.046875 0.046875 143.76z"/>
  <path d="m767.81 833.02h-143.81v-707.71c0-13.246-10.727-24-24-24-13.246 0-24 10.754-24 24v707.71h-143.81c-13.246 0-24 10.727-24 24v123.96c0 13.273 10.754 24 24 24h143.81v69.719c0 13.273 10.754 24 24 24 13.273 0 24-10.727 24-24v-69.719h143.81c13.273 0 24-10.727 24-24v-123.96c0-13.273-10.73-24-24-24zm-24 123.96h-287.62v-75.961h287.62z"/>
  <path d="m1176 195.02h-143.81v-69.719c0-13.246-10.727-24-24-24-13.273 0-24 10.754-24 24v69.719h-143.81c-13.273 0-24 10.754-24 24v123.96c0 13.246 10.727 24 24 24h143.81v707.71c0 13.273 10.727 24 24 24 13.273 0 24-10.727 24-24v-707.71h143.81c13.273 0 24-10.754 24-24v-123.96c0-13.246-10.727-24-24-24zm-24 123.96h-287.62v-75.961h143.76 0.046875 0.046875 143.76z"/>
 </g>
</svg>
