<?xml version="1.0" encoding="UTF-8"?>
<svg width="1200pt" height="1200pt" version="1.1" viewBox="0 0 1200 1200" xmlns="http://www.w3.org/2000/svg">
 <path d="m1170 599.95c-0.09375-6.8438-4.0312-13.125-10.219-16.125l-199.4-97.125 199.55-97.781v-0.046875c6.1875-3 10.078-9.2812 10.078-16.172 0-6.8438-3.8906-13.125-10.078-16.172l-551.95-270.56c-5.0156-2.4375-10.922-2.4375-15.938 0l-551.95 270.61c-6.1875 3-10.078 9.2812-10.078 16.172 0 6.8438 3.8906 13.125 10.078 16.172l199.55 97.781-199.4 97.125c-6.2344 3-10.172 9.2812-10.219 16.172 0 6.8438 3.8906 13.172 10.078 16.172l199.55 97.781-199.4 97.172c-6.2344 3-10.219 9.2812-10.219 16.172 0.046875 6.8438 3.9375 13.125 10.078 16.172l551.95 270.61c5.0156 2.3906 10.922 2.3906 15.938 0l551.95-270.61c6.1406-3.0469 10.031-9.3281 10.078-16.172 0-6.8906-3.9844-13.172-10.219-16.172l-199.4-97.125 199.55-97.828c6.1406-3.0469 10.031-9.3281 10.078-16.219zm-570-477.74 511.18 250.6-511.18 250.4-511.18-250.4zm319.92 612.1 191.02 93.047-510.94 250.5-510.94-250.5 191.02-93.047 312.05 152.48c4.9688 2.3906 10.781 2.3906 15.75 0zm-319.92 116.25-511.08-250.45 191.16-93.047 311.95 152.39c5.0156 2.4844 10.922 2.4844 15.938 0l311.95-152.39 191.11 93.047z"/>
</svg>
