<?xml version="1.0" encoding="UTF-8"?>
<svg width="1200pt" height="1200pt" version="1.1" viewBox="0 0 1200 1200" xmlns="http://www.w3.org/2000/svg">
 <path d="m789.9 510c-20.863-44.117-56.379-79.637-100.5-100.5-3.4219-29.492-21.168-55.398-47.434-69.242s-57.664-13.844-83.93 0-44.012 39.75-47.434 69.242c-44.121 20.863-79.637 56.383-100.5 100.5-29.492 3.4219-55.398 21.168-69.242 47.434s-13.844 57.668 0 83.934c13.844 26.262 39.75 44.012 69.242 47.434 20.863 44.117 56.379 79.637 100.5 100.5 3.4219 29.492 21.168 55.398 47.434 69.242s57.664 13.844 83.93 0 44.012-39.75 47.434-69.242c44.121-20.863 79.637-56.383 100.5-100.5 29.492-3.4219 55.398-21.172 69.242-47.434 13.844-26.266 13.844-57.668 0-83.934s-39.75-44.012-69.242-47.434zm-369.9 120c-7.957 0-15.586-3.1602-21.215-8.7852-5.625-5.6289-8.7852-13.258-8.7852-21.215s3.1602-15.586 8.7852-21.215c5.6289-5.625 13.258-8.7852 21.215-8.7852s15.586 3.1602 21.215 8.7852c5.625 5.6289 8.7852 13.258 8.7852 21.215s-3.1602 15.586-8.7852 21.215c-5.6289 5.625-13.258 8.7852-21.215 8.7852zm180-240c7.957 0 15.586 3.1602 21.215 8.7852 5.625 5.6289 8.7852 13.258 8.7852 21.215s-3.1602 15.586-8.7852 21.215c-5.6289 5.625-13.258 8.7852-21.215 8.7852s-15.586-3.1602-21.215-8.7852c-5.625-5.6289-8.7852-13.258-8.7852-21.215s3.1602-15.586 8.7852-21.215c5.6289-5.625 13.258-8.7852 21.215-8.7852zm0 420c-7.957 0-15.586-3.1602-21.215-8.7852-5.625-5.6289-8.7852-13.258-8.7852-21.215s3.1602-15.586 8.7852-21.215c5.6289-5.625 13.258-8.7852 21.215-8.7852s15.586 3.1602 21.215 8.7852c5.625 5.6289 8.7852 13.258 8.7852 21.215s-3.1602 15.586-8.7852 21.215c-5.6289 5.625-13.258 8.7852-21.215 8.7852zm129.9-135c-13.328 22.676-32.223 41.57-54.898 54.898-16.676-25.137-44.836-40.25-75-40.25s-58.324 15.113-75 40.25c-22.676-13.328-41.57-32.223-54.898-54.898 25.137-16.676 40.25-44.836 40.25-75s-15.113-58.324-40.25-75c13.328-22.676 32.223-41.57 54.898-54.898 16.676 25.137 44.836 40.25 75 40.25s58.324-15.113 75-40.25c22.676 13.328 41.57 32.223 54.898 54.898-25.137 16.676-40.25 44.836-40.25 75s15.113 58.324 40.25 75zm50.102-45c-7.957 0-15.586-3.1602-21.215-8.7852-5.625-5.6289-8.7852-13.258-8.7852-21.215s3.1602-15.586 8.7852-21.215c5.6289-5.625 13.258-8.7852 21.215-8.7852s15.586 3.1602 21.215 8.7852c5.625 5.6289 8.7852 13.258 8.7852 21.215s-3.1602 15.586-8.7852 21.215c-5.6289 5.625-13.258 8.7852-21.215 8.7852z"/>
 <path d="m870 45h-540c-23.871 0-46.762 9.4805-63.641 26.359s-26.359 39.77-26.359 63.641v930c0 23.871 9.4805 46.762 26.359 63.641s39.77 26.359 63.641 26.359h540c23.871 0 46.762-9.4805 63.641-26.359s26.359-39.77 26.359-63.641v-930c0-23.871-9.4805-46.762-26.359-63.641s-39.77-26.359-63.641-26.359zm30 1020c0 7.957-3.1602 15.586-8.7852 21.215-5.6289 5.625-13.258 8.7852-21.215 8.7852h-540c-7.957 0-15.586-3.1602-21.215-8.7852-5.625-5.6289-8.7852-13.258-8.7852-21.215v-930c0-7.957 3.1602-15.586 8.7852-21.215 5.6289-5.625 13.258-8.7852 21.215-8.7852h540c7.957 0 15.586 3.1602 21.215 8.7852 5.625 5.6289 8.7852 13.258 8.7852 21.215z"/>
</svg>
