<?xml version="1.0" encoding="UTF-8"?>
<svg width="1200pt" height="1200pt" version="1.1" viewBox="0 0 1200 1200" xmlns="http://www.w3.org/2000/svg">
 <g>
  <path d="m491.93 859.92h-90.168c-14.594 0-26.473-11.855-26.473-26.449v-369.71c0-14.578 11.867-26.449 26.473-26.449h90.156c14.578 0 26.449 11.867 26.449 26.449v369.71c-0.003907 14.59-11.871 26.449-26.438 26.449zm-90.168-404.61c-4.668 0-8.4727 3.793-8.4727 8.4492v369.71c0 4.668 3.793 8.4492 8.4727 8.4492h90.156c4.6562 0 8.4492-3.7812 8.4492-8.4492l-0.003907-369.71c0-4.6562-3.7812-8.4492-8.4492-8.4492z"/>
  <path d="m812.41 859.92h-90.156c-14.594 0-26.449-11.855-26.449-26.449l0.003906-301.25c0-14.578 11.855-26.438 26.449-26.438h90.156c14.594 0 26.449 11.855 26.449 26.438v301.25c-0.003906 14.594-11.859 26.453-26.453 26.453zm-90.152-336.14c-4.668 0-8.4492 3.7812-8.4492 8.4375v301.25c0 4.668 3.7812 8.4492 8.4492 8.4492h90.156c4.668 0 8.4492-3.7812 8.4492-8.4492l-0.003906-301.24c0-4.6562-3.7812-8.4375-8.4492-8.4375l-90.152 0.003906z"/>
  <path d="m331.68 859.92h-90.156c-14.578 0-26.449-11.855-26.449-26.449v-148.15c0-14.594 11.867-26.449 26.449-26.449h90.156c14.578 0 26.449 11.855 26.449 26.449v148.15c0 14.59-11.867 26.449-26.449 26.449zm-90.156-183.05c-4.6562 0-8.4492 3.7812-8.4492 8.4492v148.15c0 4.668 3.7812 8.4492 8.4492 8.4492h90.156c4.6562 0 8.4492-3.7812 8.4492-8.4492v-148.15c0-4.668-3.7812-8.4492-8.4492-8.4492z"/>
  <path d="m171.42 859.92h-90.168c-14.578 0-26.449-11.855-26.449-26.449v-73.176c0-14.578 11.867-26.438 26.449-26.438h90.156c14.594 0 26.473 11.855 26.473 26.438v73.176c-0.003906 14.59-11.871 26.449-26.461 26.449zm-90.168-108.06c-4.6562 0-8.4492 3.7812-8.4492 8.4375v73.176c0 4.668 3.7812 8.4492 8.4492 8.4492h90.156c4.668 0 8.4727-3.7812 8.4727-8.4492v-73.176c0-4.6562-3.793-8.4375-8.4727-8.4375z"/>
  <path d="m652.18 859.92h-90.168c-14.594 0-26.473-11.855-26.473-26.449v-466.95c0-14.578 11.867-26.449 26.473-26.449h90.168c14.594 0 26.449 11.867 26.449 26.449v466.95c0 14.59-11.867 26.449-26.449 26.449zm-90.168-501.84c-4.668 0-8.4727 3.793-8.4727 8.4492v466.95c0 4.668 3.793 8.4492 8.4727 8.4492h90.168c4.668 0 8.4492-3.7812 8.4492-8.4492v-466.95c0-4.6562-3.7812-8.4492-8.4492-8.4492z"/>
  <path d="m966.55 859.92h-85.043c-14.039 0-25.453-11.41-25.453-25.453v-218.81c0-14.027 11.41-25.453 25.453-25.453h85.043c14.039 0 25.465 11.426 25.465 25.453v218.81c0 14.039-11.422 25.453-25.465 25.453zm-85.043-251.71c-4.1172 0-7.4531 3.3359-7.4531 7.4531v218.81c0 4.1172 3.3359 7.4531 7.4531 7.4531h85.043c4.1172 0 7.4648-3.3359 7.4648-7.4531v-218.81c0-4.1172-3.3477-7.4531-7.4648-7.4531z"/>
  <path d="m1119.7 859.92h-85.066c-14.027 0-25.441-11.41-25.441-25.453v-154.56c0-14.039 11.41-25.465 25.441-25.465h85.066c14.039 0 25.453 11.426 25.453 25.465v154.56c0 14.039-11.422 25.453-25.453 25.453zm-85.066-187.48c-4.1055 0-7.4414 3.3477-7.4414 7.4648v154.56c0 4.1172 3.3359 7.4531 7.4414 7.4531h85.066c4.1172 0 7.4531-3.3359 7.4531-7.4531v-154.56c0-4.1172-3.3359-7.4648-7.4531-7.4648z"/>
 </g>
</svg>
