<?xml version="1.0" encoding="UTF-8"?>
<svg width="1200pt" height="1200pt" version="1.1" viewBox="0 0 1200 1200" xmlns="http://www.w3.org/2000/svg">
 <g>
  <path d="m952.02 926.77h-668.08c-5.9219 0-10.73-4.7969-10.73-10.73v-668.02c0-5.9336 4.8047-10.73 10.73-10.73 5.9219 0 10.73 4.7969 10.73 10.73v657.29h657.35c5.9336 0 10.73 4.7969 10.73 10.73 0 5.9336-4.8047 10.73-10.73 10.73z"/>
  <path d="m472.37 549.7h-188.43c-5.9219 0-10.73-4.7969-10.73-10.73v-188.52c0-5.9336 4.8047-10.73 10.73-10.73h188.43c5.9336 0 10.73 4.7969 10.73 10.73v188.52c0 5.9336-4.7969 10.73-10.73 10.73zm-177.71-21.457h166.98v-167.06h-166.98z"/>
  <path d="m660.83 549.7h-188.46c-5.9336 0-10.73-4.7969-10.73-10.73v-188.52c0-5.9336 4.7969-10.73 10.73-10.73h188.45c5.9336 0 10.73 4.7969 10.73 10.73v188.52c0.011719 5.9336-4.7852 10.73-10.719 10.73zm-177.73-21.457h166.99v-167.06h-166.99z"/>
  <path d="m849.26 549.7h-188.43c-5.9336 0-10.73-4.7969-10.73-10.73v-188.52c0-5.9336 4.7969-10.73 10.73-10.73h188.43c5.9336 0 10.73 4.7969 10.73 10.73v188.52c0 5.9336-4.7969 10.73-10.73 10.73zm-177.71-21.457h166.98v-167.06h-166.98z"/>
  <path d="m472.37 738.24h-188.43c-5.9219 0-10.73-4.7969-10.73-10.73v-188.54c0-5.9336 4.8047-10.73 10.73-10.73h188.43c5.9336 0 10.73 4.7969 10.73 10.73v188.54c0 5.9219-4.7969 10.73-10.73 10.73zm-177.71-21.457h166.98v-167.09h-166.98z"/>
  <path d="m660.83 738.24h-188.46c-5.9336 0-10.73-4.7969-10.73-10.73v-188.54c0-5.9336 4.7969-10.73 10.73-10.73h188.45c5.9336 0 10.73 4.7969 10.73 10.73v188.54c0.011719 5.9219-4.7852 10.73-10.719 10.73zm-177.73-21.457h166.99v-167.09h-166.99z"/>
  <path d="m849.26 738.24h-188.43c-5.9336 0-10.73-4.7969-10.73-10.73v-188.54c0-5.9336 4.7969-10.73 10.73-10.73h188.43c5.9336 0 10.73 4.7969 10.73 10.73v188.54c0 5.9219-4.7969 10.73-10.73 10.73zm-177.71-21.457h166.98v-167.09h-166.98z"/>
  <path d="m472.37 926.77h-188.43c-5.9219 0-10.73-4.7969-10.73-10.73v-188.53c0-5.9336 4.8047-10.73 10.73-10.73h188.43c5.9336 0 10.73 4.7969 10.73 10.73v188.53c0 5.9336-4.7969 10.73-10.73 10.73zm-177.71-21.457h166.98v-167.07h-166.98z"/>
  <path d="m660.83 926.77h-188.46c-5.9336 0-10.73-4.7969-10.73-10.73v-188.53c0-5.9336 4.7969-10.73 10.73-10.73h188.45c5.9336 0 10.73 4.7969 10.73 10.73v188.53c0.011719 5.9336-4.7852 10.73-10.719 10.73zm-177.73-21.457h166.99v-167.07h-166.99z"/>
  <path d="m849.26 926.77h-188.43c-5.9336 0-10.73-4.7969-10.73-10.73v-188.53c0-5.9336 4.7969-10.73 10.73-10.73h188.43c5.9336 0 10.73 4.7969 10.73 10.73v188.53c0 5.9336-4.7969 10.73-10.73 10.73zm-177.71-21.457h166.98v-167.07h-166.98z"/>
  <path d="m916.07 962.7c-2.7461 0-5.4922-1.0508-7.5859-3.1445-4.1953-4.1953-4.1953-10.977 0-15.172l28.355-28.355-28.355-28.355c-4.1953-4.1953-4.1953-10.977 0-15.172 4.1953-4.1953 10.977-4.1953 15.172 0l35.941 35.941c4.1953 4.1953 4.1953 10.977 0 15.172l-35.941 35.941c-2.0938 2.1016-4.8398 3.1445-7.5859 3.1445z"/>
  <path d="m319.88 294.71c-2.7461 0-5.4922-1.0508-7.5859-3.1445l-28.355-28.367-28.355 28.367c-4.1953 4.1953-10.977 4.1953-15.172 0-4.1953-4.1953-4.1953-10.977 0-15.172l35.941-35.953c4.0234-4.0234 11.148-4.0234 15.172 0l35.941 35.953c4.1953 4.1953 4.1953 10.977 0 15.172-2.0938 2.0938-4.8398 3.1445-7.5859 3.1445z"/>
 </g>
</svg>
