<?xml version="1.0" encoding="UTF-8"?>
<svg width="1200pt" height="1200pt" version="1.1" viewBox="0 0 1200 1200" xmlns="http://www.w3.org/2000/svg">
 <path d="m137.16 35.344c-56.109 0-101.86 45.609-101.86 101.77v925.78c0 56.109 45.75 101.77 101.86 101.77h925.69c56.109 0 101.86-45.609 101.86-101.77v-925.78c0-56.109-45.75-101.77-101.86-101.77zm0 35.203h262.74v245.9h-329.29v-179.34c0-37.172 29.391-66.562 66.562-66.562zm298.03 0h627.61c37.172 0 66.609 29.391 66.609 66.562v179.34h-694.22zm-272.48 105.38c-9.7031 0-17.578 7.875-17.578 17.578-0.046875 4.6875 1.8281 9.1875 5.1094 12.516s7.7812 5.2031 12.469 5.2031h145.13c4.6875-0.046875 9.1406-1.9219 12.469-5.25 3.2812-3.2812 5.1094-7.7812 5.1094-12.469-0.046874-9.7031-7.9219-17.531-17.578-17.578zm429.05 0h0.046875c-9.7031 0.046875-17.578 7.875-17.578 17.578-0.046875 4.6875 1.8281 9.1875 5.1094 12.469 3.2812 3.3281 7.7812 5.2031 12.469 5.25h381.05c4.6875-0.046875 9.1406-1.9219 12.469-5.25 3.2812-3.2812 5.1094-7.7812 5.1094-12.469-0.046875-9.7031-7.875-17.531-17.578-17.578zm-521.16 175.87h329.29v167.9h-329.29zm364.6 0h694.22v167.9l-694.22-0.046874zm-364.6 203.21h329.29v167.9h-329.29zm364.6 0h694.22v167.9h-694.22zm-364.6 203.21h329.29v167.86h-329.29zm364.6 0h694.22v167.86l-694.22 0.046875zm-364.6 203.21h329.29v167.9h-262.74c-37.172 0-66.562-29.297-66.562-66.469zm364.6 0h694.22v101.48c0 37.172-29.438 66.469-66.609 66.469h-627.61z"/>
</svg>
