<?xml version="1.0" encoding="UTF-8"?>
<svg width="1200pt" height="1200pt" version="1.1" viewBox="0 0 1200 1200" xmlns="http://www.w3.org/2000/svg">
 <path d="m817.55 553.74c0.46875-0.5625 0.9375-1.0781 1.4531-1.5938 0.46875-0.46875 0.9375-0.9375 1.4531-1.3125l146.11-146.9-170.68-170.68-147.14 145.97c-0.42188 0.46875-0.84375 0.9375-1.3125 1.4062-0.51562 0.51562-1.0312 1.0312-1.5938 1.4531l-264.98 262.97c-0.42188 0.46875-0.84375 0.9375-1.3125 1.4062-0.51562 0.51562-1.0312 1.0312-1.5938 1.4531l-210.71 209.06-19.312 194.21 194.26-19.312 209.29-210.47c0.46875-0.5625 0.9375-1.0781 1.4531-1.5469 0.46875-0.46875 0.9375-0.89062 1.4062-1.3125l263.26-264.71zm187.87-188.95 115.73-116.39-169.6-169.6-116.53 115.64 170.39 170.39zm20.906 56.859c-0.46875 0.5625-0.9375 1.0781-1.4531 1.5938-0.46875 0.46875-0.98438 0.9375-1.4531 1.3125l-146.11 146.9 302.16 302.16c10.781 10.781 10.781 28.172 0 38.953l-266.81 266.81c-10.781 10.781-28.172 10.781-38.953 0l-301.31-301.31-198.24 199.31c-4.3594 4.3594-10.172 7.3125-16.781 7.9688l-237 23.625c-1.9219 0.23438-3.8438 0.23438-5.8125 0.046875-15.094-1.4531-26.156-14.953-24.656-30.047l23.625-237.14c0.5625-6.2344 3.1875-12.281 7.9688-17.016l199.55-197.95-300.61-300.61c-10.781-10.781-10.781-28.172 0-38.953l266.81-266.81c10.781-10.781 28.172-10.781 38.953 0l301.78 301.78 302.76-300.37 1.3125-1.4062c10.781-10.781 28.172-10.781 38.953 0l208.31 208.31-0.09375 0.09375c10.688 10.688 10.734 28.031 0.09375 38.766l-153.14 153.98zm-415.13 417.47 281.95 281.95 56.297-56.297-282.1-282.1-56.156 56.484zm95.016-95.531 282.19 282.19 132.66-132.66-282.61-282.61-132.28 133.03zm-345.98-155.48 56.531-56.109-281.48-281.48-56.297 56.297 281.26 281.26zm95.672-94.875 133.18-132.14-282.19-282.19-132.66 132.66z"/>
</svg>
