<?xml version="1.0" encoding="UTF-8"?>
<svg width="1200pt" height="1200pt" version="1.1" viewBox="0 0 1200 1200" xmlns="http://www.w3.org/2000/svg">
 <path d="m1109.2 37.594c29.719 1.5 53.344 26.062 53.344 56.156v1012.5l-0.09375 2.9062c-1.5 29.719-26.062 53.344-56.156 53.344l-2.9062-0.09375c-28.734-1.4531-51.797-24.516-53.25-53.25l-0.09375-2.9062v-150h-37.5v18.75l-0.09375 2.9062c-1.4531 28.734-24.516 51.797-53.25 53.25l-2.9062 0.09375c-30.094 0-54.656-23.625-56.156-53.344l-0.09375-2.9062v-18.75h-37.5v18.75l-0.09375 2.9062c-1.4531 28.734-24.516 51.797-53.25 53.25l-2.9062 0.09375c-14.438 0-27.562-5.4844-37.5-14.391-9.2812 8.2969-21.328 13.641-34.594 14.297l-2.9062 0.09375c-14.438 0-27.562-5.4844-37.5-14.391-9.2812 8.2969-21.328 13.641-34.594 14.297l-2.9062 0.09375c-30.094 0-54.656-23.625-56.156-53.344l-0.09375-2.9062v-18.75h-75v18.75l-0.09375 2.9062c-1.4531 28.734-24.516 51.797-53.25 53.25l-2.9062 0.09375c-14.438 0-27.562-5.4844-37.5-14.391-9.2812 8.2969-21.328 13.641-34.594 14.297l-2.9062 0.09375c-14.438 0-27.562-5.4844-37.5-14.391-9.2812 8.2969-21.328 13.641-34.594 14.297l-2.9062 0.09375c-14.438 0-27.562-5.4844-37.5-14.391-9.2812 8.2969-21.328 13.641-34.594 14.297l-2.9062 0.09375c-30.094 0-54.656-23.625-56.156-53.344l-0.09375-2.9062v-18.75h-37.5v150l-0.09375 2.9062c-1.5 29.719-26.062 53.344-56.156 53.344l-2.9062-0.09375c-28.734-1.4531-51.797-24.516-53.25-53.25l-0.09375-2.9062v-1012.5c0-31.078 25.172-56.25 56.25-56.25l2.9062 0.09375c29.719 1.5 53.344 26.062 53.344 56.156v37.5h37.5v-18.75c0-31.078 25.172-56.25 56.25-56.25l2.9062 0.09375c13.266 0.65625 25.312 5.9531 34.594 14.297 9.9844-8.9531 23.109-14.391 37.5-14.391l2.9062 0.09375c13.266 0.65625 25.312 5.9531 34.594 14.297 9.9844-8.9531 23.109-14.391 37.5-14.391l2.9062 0.09375c13.266 0.65625 25.312 5.9531 34.594 14.297 9.9844-8.9531 23.109-14.391 37.5-14.391l2.9062 0.09375c29.719 1.5 53.344 26.062 53.344 56.156v18.75h56.25v-18.75c0-31.078 25.172-56.25 56.25-56.25l2.9062 0.09375c29.719 1.5 53.344 26.062 53.344 56.156v18.75h56.25v-18.75c0-31.078 25.172-56.25 56.25-56.25l2.9062 0.09375c13.266 0.65625 25.312 5.9531 34.594 14.297 9.9844-8.9531 23.109-14.391 37.5-14.391l2.9062 0.09375c13.266 0.65625 25.312 5.9531 34.594 14.297 9.9844-8.9531 23.109-14.391 37.5-14.391l2.9062 0.09375c29.719 1.5 53.344 26.062 53.344 56.156v18.75h37.5v-37.5c0-31.078 25.172-56.25 56.25-56.25zm-1015.4 37.406c-10.359 0-18.75 8.3906-18.75 18.75v1012.5c0 10.359 8.3906 18.75 18.75 18.75 10.359 0 18.75-8.3906 18.75-18.75v-1012.5c0-10.359-8.3906-18.75-18.75-18.75zm1012.5 0c-10.359 0-18.75 8.3906-18.75 18.75v1012.5c0 10.359 8.3906 18.75 18.75 18.75 10.359 0 18.75-8.3906 18.75-18.75v-1012.5c0-10.359-8.3906-18.75-18.75-18.75zm-862.5 806.26c-10.359 0-18.75 8.3906-18.75 18.75v75c0 10.359 8.3906 18.75 18.75 18.75 10.359 0 18.75-8.3906 18.75-18.75v-75c0-10.359-8.3906-18.75-18.75-18.75zm75 0c-10.359 0-18.75 8.3906-18.75 18.75v75c0 10.359 8.3906 18.75 18.75 18.75 10.359 0 18.75-8.3906 18.75-18.75v-75c0-10.359-8.3906-18.75-18.75-18.75zm75 0c-10.359 0-18.75 8.3906-18.75 18.75v75c0 10.359 8.3906 18.75 18.75 18.75 10.359 0 18.75-8.3906 18.75-18.75v-75c0-10.359-8.3906-18.75-18.75-18.75zm75 0c-10.359 0-18.75 8.3906-18.75 18.75v75c0 10.359 8.3906 18.75 18.75 18.75 10.359 0 18.75-8.3906 18.75-18.75v-75c0-10.359-8.3906-18.75-18.75-18.75zm187.5 0c-10.359 0-18.75 8.3906-18.75 18.75v75c0 10.359 8.3906 18.75 18.75 18.75 10.359 0 18.75-8.3906 18.75-18.75v-75c0-10.359-8.3906-18.75-18.75-18.75zm75 0c-10.359 0-18.75 8.3906-18.75 18.75v75c0 10.359 8.3906 18.75 18.75 18.75 10.359 0 18.75-8.3906 18.75-18.75v-75c0-10.359-8.3906-18.75-18.75-18.75zm75 0c-10.359 0-18.75 8.3906-18.75 18.75v75c0 10.359 8.3906 18.75 18.75 18.75 10.359 0 18.75-8.3906 18.75-18.75v-75c0-10.359-8.3906-18.75-18.75-18.75zm150 0c-10.359 0-18.75 8.3906-18.75 18.75v75c0 10.359 8.3906 18.75 18.75 18.75 10.359 0 18.75-8.3906 18.75-18.75v-75c0-10.359-8.3906-18.75-18.75-18.75zm-806.26 37.5h37.5v-18.75c0-30.094 23.625-54.656 53.344-56.156l2.9062-0.09375c14.391 0 27.516 5.4844 37.453 14.391 9.2812-8.3438 21.375-13.641 34.641-14.297l2.9062-0.09375c14.391 0 27.516 5.4844 37.453 14.391 9.2812-8.3438 21.375-13.641 34.641-14.297l2.9062-0.09375c14.391 0 27.516 5.4844 37.453 14.391 9.2812-8.3438 21.375-13.641 34.641-14.297l2.9062-0.09375c31.078 0 56.25 25.172 56.25 56.25v18.75h75v-18.75c0-30.094 23.625-54.656 53.344-56.156l2.9062-0.09375c14.391 0 27.516 5.4844 37.453 14.391 9.2812-8.3438 21.375-13.641 34.641-14.297l2.9062-0.09375c14.391 0 27.516 5.4844 37.453 14.391 9.2812-8.3438 21.375-13.641 34.641-14.297l2.9062-0.09375c31.078 0 56.25 25.172 56.25 56.25v18.75h37.5v-18.75c0-30.094 23.625-54.656 53.344-56.156l2.9062-0.09375c31.078 0 56.25 25.172 56.25 56.25v18.75h37.5v-225h-37.5v18.75l-0.09375 2.9062c-1.4531 28.734-24.516 51.797-53.25 53.25l-2.9062 0.09375c-14.438 0-27.562-5.4844-37.5-14.391-9.2812 8.2969-21.328 13.641-34.594 14.297l-2.9062 0.09375c-14.438 0-27.562-5.4844-37.5-14.391-9.2812 8.2969-21.328 13.641-34.594 14.297l-2.9062 0.09375c-14.438 0-27.562-5.4844-37.5-14.391-9.2812 8.2969-21.328 13.641-34.594 14.297l-2.9062 0.09375c-30.094 0-54.656-23.625-56.156-53.344l-0.09375-2.9062v-18.75h-56.25v18.75l-0.09375 2.9062c-1.4531 28.734-24.516 51.797-53.25 53.25l-2.9062 0.09375c-30.094 0-54.656-23.625-56.156-53.344l-0.09375-2.9062v-18.75h-56.25v18.75l-0.09375 2.9062c-1.4531 28.734-24.516 51.797-53.25 53.25l-2.9062 0.09375c-14.438 0-27.562-5.4844-37.5-14.391-9.2812 8.2969-21.328 13.641-34.594 14.297l-2.9062 0.09375c-14.438 0-27.562-5.4844-37.5-14.391-9.2812 8.2969-21.328 13.641-34.594 14.297l-2.9062 0.09375c-30.094 0-54.656-23.625-56.156-53.344l-0.09375-2.9062v-18.75h-37.5zm93.75-300c-10.359 0-18.75 8.3906-18.75 18.75v75c0 10.359 8.3906 18.75 18.75 18.75s18.75-8.3906 18.75-18.75v-75c0-10.359-8.3906-18.75-18.75-18.75zm75 0c-10.359 0-18.75 8.3906-18.75 18.75v75c0 10.359 8.3906 18.75 18.75 18.75s18.75-8.3906 18.75-18.75v-75c0-10.359-8.3906-18.75-18.75-18.75zm75 0c-10.359 0-18.75 8.3906-18.75 18.75v75c0 10.359 8.3906 18.75 18.75 18.75s18.75-8.3906 18.75-18.75v-75c0-10.359-8.3906-18.75-18.75-18.75zm168.74 0c-10.359 0-18.75 8.3906-18.75 18.75v75c0 10.359 8.3906 18.75 18.75 18.75 10.359 0 18.75-8.3906 18.75-18.75v-75c0-10.359-8.3906-18.75-18.75-18.75zm168.74 0c-10.359 0-18.75 8.3906-18.75 18.75v75c0 10.359 8.3906 18.75 18.75 18.75s18.75-8.3906 18.75-18.75v-75c0-10.359-8.3906-18.75-18.75-18.75zm75 0c-10.359 0-18.75 8.3906-18.75 18.75v75c0 10.359 8.3906 18.75 18.75 18.75s18.75-8.3906 18.75-18.75v-75c0-10.359-8.3906-18.75-18.75-18.75zm75 0c-10.359 0-18.75 8.3906-18.75 18.75v75c0 10.359 8.3906 18.75 18.75 18.75s18.75-8.3906 18.75-18.75v-75c0-10.359-8.3906-18.75-18.75-18.75zm75 0c-10.359 0-18.75 8.3906-18.75 18.75v75c0 10.359 8.3906 18.75 18.75 18.75s18.75-8.3906 18.75-18.75v-75c0-10.359-8.3906-18.75-18.75-18.75zm-806.26 37.5h37.5v-18.75c0-30.094 23.625-54.656 53.344-56.156l2.9062-0.09375c14.391 0 27.516 5.4844 37.453 14.391 9.2812-8.3438 21.375-13.641 34.641-14.297l2.9062-0.09375c14.391 0 27.516 5.4844 37.453 14.391 9.2812-8.3438 21.375-13.641 34.641-14.297l2.9062-0.09375c31.078 0 56.25 25.172 56.25 56.25v18.75h56.25v-18.75c0-30.094 23.625-54.656 53.344-56.156l2.9062-0.09375c31.078 0 56.25 25.172 56.25 56.25v18.75h56.25v-18.75c0-30.094 23.625-54.656 53.344-56.156l2.9062-0.09375c14.391 0 27.516 5.4844 37.453 14.391 9.2812-8.3438 21.375-13.641 34.641-14.297l2.9062-0.09375c14.391 0 27.516 5.4844 37.453 14.391 9.2812-8.3438 21.375-13.641 34.641-14.297l2.9062-0.09375c14.391 0 27.516 5.4844 37.453 14.391 9.2812-8.3438 21.375-13.641 34.641-14.297l2.9062-0.09375c31.078 0 56.25 25.172 56.25 56.25v18.75h37.5v-225h-37.5v18.75l-0.09375 2.9062c-1.5 29.719-26.062 53.344-56.156 53.344l-2.9062-0.09375c-13.266-0.65625-25.312-5.9531-34.594-14.297-9.9375 8.9062-23.062 14.391-37.5 14.391l-2.9062-0.09375c-13.266-0.65625-25.312-5.9531-34.594-14.297-9.9375 8.9062-23.062 14.391-37.5 14.391l-2.9062-0.09375c-13.266-0.65625-25.312-5.9531-34.594-14.297-9.9375 8.9062-23.062 14.391-37.5 14.391l-2.9062-0.09375c-28.734-1.4531-51.797-24.516-53.25-53.25l-0.09375-2.9062v-18.75h-75v18.75l-0.09375 2.9062c-1.5 29.719-26.062 53.344-56.156 53.344l-2.9062-0.09375c-13.266-0.65625-25.312-5.9531-34.594-14.297-9.9375 8.9062-23.062 14.391-37.5 14.391l-2.9062-0.09375c-13.266-0.65625-25.312-5.9531-34.594-14.297-9.9375 8.9062-23.062 14.391-37.5 14.391l-2.9062-0.09375c-28.734-1.4531-51.797-24.516-53.25-53.25l-0.09375-2.9062v-18.75h-37.5v18.75l-0.09375 2.9062c-1.5 29.719-26.062 53.344-56.156 53.344l-2.9062-0.09375c-28.734-1.4531-51.797-24.516-53.25-53.25l-0.09375-2.9062v-18.75h-37.5zm93.75-300c-10.359 0-18.75 8.3906-18.75 18.75v75c0 10.359 8.3906 18.75 18.75 18.75 10.359 0 18.75-8.3906 18.75-18.75v-75c0-10.359-8.3906-18.75-18.75-18.75zm150 0c-10.359 0-18.75 8.3906-18.75 18.75v75c0 10.359 8.3906 18.75 18.75 18.75 10.359 0 18.75-8.3906 18.75-18.75v-75c0-10.359-8.3906-18.75-18.75-18.75zm75 0c-10.359 0-18.75 8.3906-18.75 18.75v75c0 10.359 8.3906 18.75 18.75 18.75 10.359 0 18.75-8.3906 18.75-18.75v-75c0-10.359-8.3906-18.75-18.75-18.75zm75 0c-10.359 0-18.75 8.3906-18.75 18.75v75c0 10.359 8.3906 18.75 18.75 18.75 10.359 0 18.75-8.3906 18.75-18.75v-75c0-10.359-8.3906-18.75-18.75-18.75zm187.5 0c-10.359 0-18.75 8.3906-18.75 18.75v75c0 10.359 8.3906 18.75 18.75 18.75 10.359 0 18.75-8.3906 18.75-18.75v-75c0-10.359-8.3906-18.75-18.75-18.75zm75 0c-10.359 0-18.75 8.3906-18.75 18.75v75c0 10.359 8.3906 18.75 18.75 18.75 10.359 0 18.75-8.3906 18.75-18.75v-75c0-10.359-8.3906-18.75-18.75-18.75zm75 0c-10.359 0-18.75 8.3906-18.75 18.75v75c0 10.359 8.3906 18.75 18.75 18.75 10.359 0 18.75-8.3906 18.75-18.75v-75c0-10.359-8.3906-18.75-18.75-18.75zm75 0c-10.359 0-18.75 8.3906-18.75 18.75v75c0 10.359 8.3906 18.75 18.75 18.75 10.359 0 18.75-8.3906 18.75-18.75v-75c0-10.359-8.3906-18.75-18.75-18.75zm-806.26 37.5h37.5v-18.75c0-31.078 25.172-56.25 56.25-56.25l2.9062 0.09375c29.719 1.5 53.344 26.062 53.344 56.156v18.75h37.5v-18.75c0-31.078 25.172-56.25 56.25-56.25l2.9062 0.09375c13.266 0.65625 25.312 5.9531 34.594 14.297 9.9844-8.9531 23.109-14.391 37.5-14.391l2.9062 0.09375c13.266 0.65625 25.312 5.9531 34.594 14.297 9.9844-8.9531 23.109-14.391 37.5-14.391l2.9062 0.09375c29.719 1.5 53.344 26.062 53.344 56.156v18.75h75v-18.75c0-31.078 25.172-56.25 56.25-56.25l2.9062 0.09375c13.266 0.65625 25.312 5.9531 34.594 14.297 9.9844-8.9531 23.109-14.391 37.5-14.391l2.9062 0.09375c13.266 0.65625 25.312 5.9531 34.594 14.297 9.9844-8.9531 23.109-14.391 37.5-14.391l2.9062 0.09375c13.266 0.65625 25.312 5.9531 34.594 14.297 9.9844-8.9531 23.109-14.391 37.5-14.391l2.9062 0.09375c29.719 1.5 53.344 26.062 53.344 56.156v18.75h37.5v-225h-37.5v18.75l-0.09375 2.9062c-1.5 29.719-26.062 53.344-56.156 53.344l-2.9062-0.09375c-13.266-0.65625-25.312-5.9531-34.594-14.297-9.9375 8.9062-23.062 14.391-37.5 14.391l-2.9062-0.09375c-13.266-0.65625-25.312-5.9531-34.594-14.297-9.9375 8.9062-23.062 14.391-37.5 14.391l-2.9062-0.09375c-28.734-1.4531-51.797-24.516-53.25-53.25l-0.09375-2.9062v-18.75h-56.25v18.75l-0.09375 2.9062c-1.5 29.719-26.062 53.344-56.156 53.344l-2.9062-0.09375c-28.734-1.4531-51.797-24.516-53.25-53.25l-0.09375-2.9062v-18.75h-56.25v18.75l-0.09375 2.9062c-1.5 29.719-26.062 53.344-56.156 53.344l-2.9062-0.09375c-13.266-0.65625-25.312-5.9531-34.594-14.297-9.9375 8.9062-23.062 14.391-37.5 14.391l-2.9062-0.09375c-13.266-0.65625-25.312-5.9531-34.594-14.297-9.9375 8.9062-23.062 14.391-37.5 14.391l-2.9062-0.09375c-13.266-0.65625-25.312-5.9531-34.594-14.297-9.9375 8.9062-23.062 14.391-37.5 14.391l-2.9062-0.09375c-28.734-1.4531-51.797-24.516-53.25-53.25l-0.09375-2.9062v-18.75h-37.5zm93.75-300c-10.359 0-18.75 8.3906-18.75 18.75v75c0 10.359 8.3906 18.75 18.75 18.75s18.75-8.3906 18.75-18.75v-75c0-10.359-8.3906-18.75-18.75-18.75zm75 0c-10.359 0-18.75 8.3906-18.75 18.75v75c0 10.359 8.3906 18.75 18.75 18.75s18.75-8.3906 18.75-18.75v-75c0-10.359-8.3906-18.75-18.75-18.75zm75 0c-10.359 0-18.75 8.3906-18.75 18.75v75c0 10.359 8.3906 18.75 18.75 18.75s18.75-8.3906 18.75-18.75v-75c0-10.359-8.3906-18.75-18.75-18.75zm75 0c-10.359 0-18.75 8.3906-18.75 18.75v75c0 10.359 8.3906 18.75 18.75 18.75s18.75-8.3906 18.75-18.75v-75c0-10.359-8.3906-18.75-18.75-18.75zm168.74 0c-10.359 0-18.75 8.3906-18.75 18.75v75c0 10.359 8.3906 18.75 18.75 18.75 10.359 0 18.75-8.3906 18.75-18.75v-75c0-10.359-8.3906-18.75-18.75-18.75zm168.74 0c-10.359 0-18.75 8.3906-18.75 18.75v75c0 10.359 8.3906 18.75 18.75 18.75s18.75-8.3906 18.75-18.75v-75c0-10.359-8.3906-18.75-18.75-18.75zm75 0c-10.359 0-18.75 8.3906-18.75 18.75v75c0 10.359 8.3906 18.75 18.75 18.75s18.75-8.3906 18.75-18.75v-75c0-10.359-8.3906-18.75-18.75-18.75zm75 0c-10.359 0-18.75 8.3906-18.75 18.75v75c0 10.359 8.3906 18.75 18.75 18.75s18.75-8.3906 18.75-18.75v-75c0-10.359-8.3906-18.75-18.75-18.75z" fill-rule="evenodd"/>
</svg>
