<?xml version="1.0" encoding="UTF-8"?>
<svg width="1200pt" height="1200pt" version="1.1" viewBox="0 0 1200 1200" xmlns="http://www.w3.org/2000/svg">
 <g fill-rule="evenodd">
  <path d="m873.73 926.69v78.719c0 23.859-23.348 43.379-51.867 43.379h-697.31c-28.52 0-51.891-19.52-51.891-43.379v-886.09c0-23.859 23.344-43.379 51.887-43.379h697.32c28.52 0 51.863 19.52 51.863 43.379l0.003907 506.47c-68.527-42.992-160.06-34.672-219.69 24.957-69.297 69.297-69.301 181.68-0.003906 250.98 59.637 59.637 151.16 67.961 219.7 24.957zm-711.96-15.078c-5.1992 0-9.4141 4.2148-9.4141 9.418 0 5.1992 4.2148 9.4141 9.4141 9.4141h404.9c5.1992 0 9.418-4.2148 9.418-9.4141 0-5.1992-4.2148-9.418-9.418-9.418zm0-97.277c-5.1992 0-9.4141 4.2148-9.4141 9.418 0 5.1992 4.2148 9.418 9.4141 9.418h404.9c5.1992 0 9.418-4.2148 9.418-9.418 0-5.1992-4.2148-9.418-9.418-9.418zm0-97.277c-5.1992 0-9.4141 4.2148-9.4141 9.4141s4.2148 9.418 9.4141 9.418h404.9c5.1992 0 9.418-4.2148 9.418-9.418 0-5.1992-4.2148-9.4141-9.418-9.4141zm0-97.254c-5.1992 0-9.4141 4.2148-9.4141 9.418 0 5.1992 4.2148 9.418 9.4141 9.418h404.9c5.1992 0 9.418-4.2148 9.418-9.418 0-5.1992-4.2148-9.418-9.418-9.418zm569.61-117.38h61.09v-384.35h-61.09zm-100.64 0h61.059v-296.32h-61.059zm-100.66 0h61.059v-228.46h-61.059zm-206.08-206.98h140.48c0-35.949-13.734-71.895-41.148-99.312-27.438-27.441-63.387-41.148-99.336-41.148l0.003906 140.46zm110.89 29.598c0 35.949-13.734 71.898-41.152 99.336-54.852 54.852-143.79 54.855-198.65 0-54.875-54.855-54.879-143.79 0-198.65 27.414-27.441 63.363-41.148 99.312-41.148l0.003906 140.46z"/>
  <path d="m667.35 664.07c61.965-61.941 162.41-61.941 224.34 0 61.945 61.965 61.941 162.41 0 224.35-61.938 61.965-162.38 61.965-224.35 0-61.941-61.941-61.941-162.38 0.003906-224.35zm40.586 40.59c39.547-39.531 103.64-39.531 143.17 0 39.531 39.547 39.531 103.64 0 143.18-39.527 39.547-103.63 39.547-143.18 0-39.531-39.531-39.531-103.63 0-143.18z"/>
  <path d="m867.18 908.5 41.594 41.59 44.602-44.609-41.594-41.59z"/>
  <path d="m1114.1 1110.8c17.68-17.68 17.68-46.613-0.003907-64.293l-150.88-150.86-64.293 64.27 150.88 150.88c17.676 17.68 46.609 17.68 64.293 0z"/>
 </g>
</svg>
