<?xml version="1.0" encoding="UTF-8"?>
<svg width="1200pt" height="1200pt" version="1.1" viewBox="0 0 1200 1200" xmlns="http://www.w3.org/2000/svg">
 <path d="m240.84 957.42-85.734 49.5c-7.9688 4.5938-18.141 1.8281-22.734-6.0938h-0.046875c-122.21-211.22-87.047-479.02 85.828-651.89 210.89-210.89 552.79-210.89 763.69 0 172.92 172.92 208.08 440.53 85.781 651.84-4.6406 7.9688-14.859 10.688-22.828 6.0938l-86.578-49.969c-7.9688-4.6406-10.688-14.859-6.0938-22.828 154.64-267.1-36.516-609.79-352.13-609.79-315.61 0-506.76 342.71-352.13 609.79 4.8281 8.3438 1.5469 19.078-7.0312 23.344zm166.13 51.797h386.06c22.031 0 22.031-33.469 0-33.469h-386.06c-22.031-0.046875-22.031 33.469 0 33.469zm149.9-170.39 25.875-44.812c64.594 17.719 111.14-62.672 63.375-109.78l123.28-213.52c10.922-18.984-17.953-35.672-28.922-16.594l-123.24 213.42c-64.594-17.719-111.14 62.672-63.375 109.78l-25.922 44.859c-10.922 19.031 18 35.672 28.922 16.641zm59.156-135.89c-36.656-21.141-68.672 34.5-32.109 55.688 36.609 21.188 68.719-34.406 32.109-55.688zm-462.89 266.63 57.75-33.328c-30.703-58.078-48.047-122.26-50.531-188.68l-66.609-0.046874c2.5312 78.328 22.922 153.89 59.391 222.05zm88.688-596.9c-27.281 27.281-51.469 57.656-71.953 90.562l57.656 33.281c35.156-55.781 82.406-103.03 138.19-138.19l-33.281-57.656c-32.906 20.531-63.328 44.672-90.609 72zm-88.641 119.44c-35.625 66.516-56.812 141.89-59.391 221.95h66.562c2.5312-67.969 20.531-132 50.484-188.72zm430.08-267.52c-80.109 2.625-155.48 23.812-221.95 59.391l33.281 57.656c56.672-30 120.71-47.953 188.72-50.484zm374.9 148.08c-27.281-27.281-57.656-51.469-90.562-71.953l-33.281 57.656c55.781 35.156 103.03 82.406 138.19 138.19l57.656-33.281c-20.531-32.953-44.719-63.375-72-90.609zm-119.44-88.688c-66.516-35.625-141.89-56.812-221.95-59.391v66.562c67.969 2.5312 132 20.531 188.72 50.484zm267.52 430.08c-2.625-80.109-23.812-155.48-59.391-221.95l-57.656 33.281c30 56.672 47.953 120.71 50.484 188.72zm-16.922 147.94c9.7969-36.656 15.609-74.953 16.922-114.47h-66.562c-2.4844 66.422-19.828 130.6-50.531 188.63l57.656 33.281c18.047-33.656 32.391-69.656 42.516-107.44z" fill-rule="evenodd"/>
</svg>
