<?xml version="1.0" encoding="UTF-8"?>
<svg width="1200pt" height="1200pt" version="1.1" viewBox="0 0 1200 1200" xmlns="http://www.w3.org/2000/svg">
 <path d="m228.42 186.42c-35.344 0-64.641 28.688-64.641 63.984v636.32-0.046875c0 4.875 1.9219 9.5625 5.3906 13.031 3.4219 3.4688 8.1094 5.3906 13.031 5.3906h92.484-0.046875c10.172 0 18.422-8.25 18.422-18.422v-636.32l-0.09375 2.0156c4.1719-37.406-29.109-66-64.547-66zm0 36.844c15.797 0 29.344 12.375 27.938 25.078-0.09375 0.65625-0.14062 1.3594-0.14062 2.0156v617.9h-55.641v-617.9c0-15.188 11.953-27.141 27.797-27.141z"/>
 <path d="m971.53 186.42c-35.344 0-64.641 28.688-64.641 63.984v636.32-0.046875c0 4.875 1.9219 9.5625 5.3906 13.031s8.1562 5.3906 13.031 5.3906h92.484c10.172 0 18.422-8.25 18.422-18.422v-636.32l-0.09375 2.0156c4.1719-37.406-29.109-66-64.547-66zm0 36.844c15.797 0 29.344 12.375 27.938 25.078-0.046875 0.65625-0.09375 1.3594-0.09375 2.0156v617.9h-55.641v-617.9c0-15.188 11.953-27.141 27.797-27.141z"/>
 <path d="m182.21 868.26c-7.4062 0-14.109 4.4531-16.969 11.297l-45.656 108.47h-0.046875c-2.3906 5.6719-1.7812 12.188 1.6406 17.297 3.4219 5.1562 9.1875 8.25 15.328 8.25h927c6.1406 0 11.906-3.0938 15.328-8.25 3.4219-5.1094 4.0312-11.625 1.6406-17.297l-45.656-108.47h-0.046875c-2.8594-6.8438-9.5625-11.297-16.969-11.297zm12.234 36.844h811.18l30.141 71.625h-871.5z"/>
 <path d="m278.39 527.34c-10.172 0-18.375 8.25-18.375 18.422s8.2031 18.422 18.375 18.422h52.734c4.875 0 9.5625-1.9688 13.031-5.3906 3.4688-3.4688 5.3906-8.1562 5.3906-13.031s-1.9219-9.5625-5.3906-13.031-8.1562-5.3906-13.031-5.3906zm297.32 0h0.046874c-4.875 0-9.5625 1.9219-13.031 5.3906s-5.3906 8.1562-5.3906 13.031 1.9219 9.5625 5.3906 13.031c3.4688 3.4219 8.1562 5.3906 13.031 5.3906h145.64c4.875 0 9.5625-1.9688 12.984-5.3906 3.4688-3.4688 5.4375-8.1562 5.4375-13.031s-1.9688-9.5625-5.4375-13.031c-3.4219-3.4688-8.1094-5.3906-12.984-5.3906zm265.64 0h0.046875c-4.875 0-9.5625 1.9219-13.031 5.3906s-5.3906 8.1562-5.3906 13.031 1.9219 9.5625 5.3906 13.031c3.4688 3.4219 8.1562 5.3906 13.031 5.3906h80.438c4.875 0 9.5625-1.9688 13.031-5.3906 3.4219-3.4688 5.3906-8.1562 5.3906-13.031s-1.9688-9.5625-5.3906-13.031c-3.4688-3.4688-8.1562-5.3906-13.031-5.3906z"/>
 <path d="m278.39 357.19c-10.172 0-18.375 8.25-18.375 18.422s8.2031 18.422 18.375 18.422h119.25c4.9219 0 9.6094-1.9219 13.031-5.3906 3.4688-3.4688 5.3906-8.1094 5.3906-13.031 0-4.875-1.9219-9.5625-5.3906-13.031-3.4219-3.4219-8.1094-5.3906-13.031-5.3906zm246.14 0c-4.875 0-9.5625 1.9688-13.031 5.3906-3.4219 3.4688-5.3906 8.1562-5.3906 13.031 0 4.9219 1.9688 9.5625 5.3906 13.031 3.4688 3.4688 8.1562 5.3906 13.031 5.3906h58.828c4.875 0 9.5625-1.9219 13.031-5.3906s5.3906-8.1094 5.3906-13.031c0-4.875-1.9219-9.5625-5.3906-13.031-3.4688-3.4219-8.1562-5.3906-13.031-5.3906zm299.63 0h0.046875c-10.172 0-18.422 8.25-18.422 18.422s8.25 18.422 18.422 18.422h97.641c4.875 0 9.5625-1.9219 13.031-5.3906 3.4219-3.4688 5.3906-8.1094 5.3906-13.031 0-4.875-1.9688-9.5625-5.3906-13.031-3.4688-3.4219-8.1562-5.3906-13.031-5.3906z"/>
 <path d="m278.39 697.45c-10.172 0-18.375 8.25-18.375 18.422s8.2031 18.422 18.375 18.422h71.812c4.9219 0 9.6094-1.9219 13.031-5.3906 3.4688-3.4688 5.3906-8.1562 5.3906-13.031s-1.9219-9.5625-5.3906-13.031c-3.4219-3.4219-8.1094-5.3906-13.031-5.3906zm192.1 0c-4.875 0-9.5625 1.9688-13.031 5.3906-3.4688 3.4688-5.3906 8.1562-5.3906 13.031s1.9219 9.5625 5.3906 13.031 8.1562 5.3906 13.031 5.3906h60.797c4.875 0 9.5625-1.9219 13.031-5.3906s5.3906-8.1562 5.3906-13.031-1.9219-9.5625-5.3906-13.031c-3.4688-3.4219-8.1562-5.3906-13.031-5.3906zm183.79 0c-10.172 0-18.422 8.25-18.422 18.422s8.25 18.422 18.422 18.422h87.469c4.875 0 9.5625-1.9219 13.031-5.3906 3.4219-3.4688 5.3906-8.1562 5.3906-13.031s-1.9688-9.5625-5.3906-13.031c-3.4688-3.4219-8.1562-5.3906-13.031-5.3906zm208.74 0c-4.875 0-9.5625 1.9688-13.031 5.3906-3.4688 3.4688-5.3906 8.1562-5.3906 13.031s1.9219 9.5625 5.3906 13.031 8.1562 5.3906 13.031 5.3906h58.828c4.875 0 9.5625-1.9219 13.031-5.3906 3.4219-3.4688 5.3906-8.1562 5.3906-13.031s-1.9688-9.5625-5.3906-13.031c-3.4688-3.4219-8.1562-5.3906-13.031-5.3906z"/>
 <path d="m390 469.6c-41.859 0-76.219 34.312-76.219 76.172s34.359 76.172 76.219 76.172 76.172-34.312 76.172-76.172-34.312-76.172-76.172-76.172zm0 36.844c21.938 0 39.328 17.391 39.328 39.328s-17.391 39.328-39.328 39.328-39.375-17.391-39.375-39.328 17.391-39.328 39.375-39.328z"/>
 <path d="m510.32 469.6c-41.859 0-76.172 34.312-76.172 76.172s34.359 76.172 76.172 76.172c41.859 0 76.172-34.312 76.172-76.172s-34.312-76.172-76.172-76.172zm0 36.844c21.938 0 39.328 17.391 39.328 39.328s-17.391 39.328-39.328 39.328-39.375-17.391-39.375-39.328 17.438-39.328 39.375-39.328z"/>
 <path d="m781.36 469.6c-41.859 0-76.172 34.312-76.172 76.172s34.359 76.172 76.172 76.172c41.859 0 76.172-34.312 76.172-76.172s-34.312-76.172-76.172-76.172zm0 36.844c21.938 0 39.328 17.391 39.328 39.328s-17.391 39.328-39.328 39.328-39.375-17.391-39.375-39.328 17.438-39.328 39.375-39.328z"/>
 <path d="m801.14 639.71c-41.859 0-76.172 34.312-76.172 76.172s34.359 76.172 76.172 76.172c41.859 0 76.172-34.312 76.172-76.172s-34.312-76.172-76.172-76.172zm0 36.844c21.938 0 39.328 17.391 39.328 39.328s-17.391 39.328-39.328 39.328-39.375-17.391-39.375-39.328 17.438-39.328 39.375-39.328z"/>
 <path d="m642.32 299.44c-41.859 0-76.172 34.312-76.172 76.172s34.359 76.172 76.172 76.172c41.859 0 76.172-34.312 76.172-76.172s-34.312-76.172-76.172-76.172zm0 36.844c21.938 0 39.328 17.391 39.328 39.328s-17.391 39.328-39.328 39.328-39.375-17.391-39.375-39.328 17.438-39.328 39.375-39.328z"/>
 <path d="m764.16 299.44c-41.859 0-76.172 34.312-76.172 76.172s34.312 76.172 76.172 76.172 76.172-34.312 76.172-76.172-34.312-76.172-76.172-76.172zm0 36.844c21.938 0 39.328 17.391 39.328 39.328s-17.391 39.328-39.328 39.328-39.375-17.391-39.375-39.328 17.391-39.328 39.375-39.328z"/>
 <path d="m462.66 299.44c-41.859 0-76.172 34.312-76.172 76.172s34.359 76.172 76.172 76.172c41.859 0 76.172-34.312 76.172-76.172s-34.312-76.172-76.172-76.172zm0 36.844c21.938 0 39.328 17.391 39.328 39.328s-17.391 39.328-39.328 39.328-39.375-17.391-39.375-39.328 17.438-39.328 39.375-39.328z"/>
 <path d="m587.95 639.71c-41.859 0-76.172 34.312-76.172 76.172s34.312 76.172 76.172 76.172 76.172-34.312 76.172-76.172-34.312-76.172-76.172-76.172zm0 36.844c21.938 0 39.328 17.391 39.328 39.328s-17.391 39.328-39.328 39.328-39.375-17.391-39.375-39.328 17.438-39.328 39.375-39.328z"/>
 <path d="m411.32 639.71c-41.859 0-76.219 34.312-76.219 76.172s34.359 76.172 76.219 76.172 76.172-34.312 76.172-76.172-34.312-76.172-76.172-76.172zm0 36.844c21.938 0 39.328 17.391 39.328 39.328s-17.391 39.328-39.328 39.328-39.375-17.391-39.375-39.328 17.438-39.328 39.375-39.328z"/>
</svg>
