<?xml version="1.0" encoding="UTF-8"?>
<svg width="1200pt" height="1200pt" version="1.1" viewBox="0 0 1200 1200" xmlns="http://www.w3.org/2000/svg">
 <path d="m1062.5 137.53c-15.422-15.422-36.75-25.031-60.188-25.031h-804.56c-23.438 0-44.766 9.5625-60.188 25.031-15.422 15.422-25.031 36.75-25.031 60.188v804.61c0 23.438 9.5625 44.766 25.031 60.188 15.422 15.422 36.75 25.031 60.188 25.031h804.61c23.438 0 44.766-9.5625 60.188-25.031 15.422-15.422 25.031-36.75 25.031-60.188l-0.046875-804.61c0-23.438-9.5625-44.766-25.031-60.188zm-28.734 28.734c8.1094 8.1094 13.125 19.219 13.125 31.453v70.547h-115.12v-115.12h70.547c12.234 0 23.391 5.0156 31.453 13.125zm-413.44 257.72v-115.12h115.12v115.12zm115.12 40.641v115.12h-115.12v-115.12zm-155.72-40.641h-115.12v-115.12h115.12zm0 40.641v115.12h-115.12v-115.12zm-155.72 115.12h-115.12v-115.12h115.12zm0 40.641v115.12h-115.12v-115.12zm40.641 0h115.12v115.12h-115.12zm115.12 155.72v115.12h-115.12v-115.12zm40.641 0h115.12v115.12h-115.12zm0-40.641v-115.12h115.12v115.12zm155.72-115.12h115.12v115.12h-115.12zm0-40.641v-115.12h115.12v115.12zm0-155.72v-115.12h115.12v115.12zm0-155.72v-115.12h115.12v115.12zm-40.641 0h-115.12v-115.12h115.12zm-155.72 0h-115.12v-115.12h115.12zm-155.72 0h-115.12v-115.12h115.12zm0 40.641v115.12h-115.12v-115.12zm-155.72 115.12h-115.12v-115.12h115.12zm0 40.641v115.12h-115.12v-115.12zm0 155.72v115.12h-115.12v-115.12zm0 155.72v115.12h-115.12v-115.12zm40.641 0h115.12v115.12h-115.12zm115.12 155.72v115.12h-115.12v-115.12zm40.641 0h115.12v115.12h-115.12zm155.72 0h115.12v115.12h-115.12zm155.72 0h115.12v115.12h-115.12zm0-40.641v-115.12h115.12v115.12zm155.72-115.12h115.12v115.12h-115.12zm0-40.641v-115.12h115.12v115.12zm0-155.72v-115.12h115.12v115.12zm0-155.72v-115.12h115.12v115.12zm-765.66-257.76c8.1094-8.1094 19.219-13.125 31.453-13.125h70.547v115.12h-115.12v-70.547c0-12.234 5.0156-23.391 13.125-31.453zm0 867.52c-8.1094-8.1094-13.125-19.219-13.125-31.453v-70.547h115.12v115.12h-70.547c-12.234 0-23.391-5.0156-31.453-13.125zm867.52 0c-8.1094 8.1094-19.219 13.125-31.453 13.125h-70.547v-115.12h115.12v70.547c0 12.234-5.0156 23.391-13.125 31.453z"/>
</svg>
