<?xml version="1.0" encoding="UTF-8"?>
<svg width="1200pt" height="1200pt" version="1.1" viewBox="0 0 1200 1200" xmlns="http://www.w3.org/2000/svg">
 <path d="m935.11 519.24c-5.9531-4.5938-7.0781-13.219-2.4844-19.172 4.5938-6 13.219-7.0781 19.172-2.4844l109.88 84.562c1.7344 1.3125 3.1875 2.8125 4.4531 4.4062 3.1406 4.0781 4.6875 8.7188 4.6875 13.406 0 4.7344-1.5469 9.375-4.6875 13.406-1.2188 1.5938-2.7188 3.0938-4.4531 4.4062l-356.02 274.03c-2.4844 1.9219-5.4375 2.8594-8.3438 2.8594v0.046875h-637.4c-6.5156 0-12.328-2.9062-16.453-7.6406-3.6562-4.1719-5.9062-9.8438-5.9062-16.031h-0.046876 0.046876v-542.11h-0.046876 0.046876c0-6.1406 2.2969-11.859 5.9062-16.031 4.0781-4.6875 9.8906-7.5938 16.406-7.5938v-0.046875 0.046875h637.4c3.1406 0 6.0469 1.0781 8.3438 2.8594l176.72 135.98c6 4.5938 7.0781 13.219 2.4844 19.172s-13.219 7.0781-19.172 2.4844l-173.02-133.13h-627.74v534.61h627.84l347.29-267.28zm-737.16-65.812h-27.469v293.16h27.422zm326.44 33.797h27.422v-33.797h-27.422zm-43.312-33.797h-27.469v293.16h27.422zm-98.25 33.797h27.422v-33.797h-27.422zm-43.312-33.797h-27.422v293.16h27.422zm-98.25 33.797h27.422v-33.797h-27.422zm381.37-33.797h-27.422v293.16h27.422zm-70.781 58.078h-27.422v235.08h27.422zm-141.56 0h-27.422v235.08h27.422zm-141.56 0h-27.422v235.08h27.422zm582.84 109.73-0.14062-2.0625-0.09375-1.5469h0.046874c0-0.51562-0.046874-1.0312-0.09375-1.5469-1.2188-38.812 13.219-74.484 37.641-100.92 24.562-26.531 59.203-43.781 98.156-45.422v0.046875c0.51562 0 1.0312-0.046875 1.5469-0.09375 38.812-1.2656 74.484 13.219 100.92 37.641 26.672 24.656 43.922 59.531 45.469 98.719v0.09375c1.5 39.188-12.984 75.234-37.594 101.86-24.656 26.672-59.531 43.922-98.719 45.469h-0.14063c-10.969 0.42188-21.75-0.42188-32.203-2.4375-10.781-2.0625-21.094-5.2969-30.797-9.6094-6.8906-3.0938-15 0-18.047 6.8906-3.0938 6.8906 0 15 6.8906 18.047 11.719 5.2031 24.047 9.0938 36.797 11.531 12.328 2.3438 25.172 3.375 38.344 2.8594h0.1875c46.688-1.8281 88.266-22.406 117.66-54.234 29.391-31.781 46.641-74.719 44.906-121.26v-0.28125c-1.8281-46.688-22.406-88.266-54.234-117.66-31.547-29.203-74.156-46.406-120.37-44.953h-0.65625v0.046874h-0.51562c-46.688 1.8281-88.266 22.406-117.66 54.234-29.203 31.547-46.453 74.156-44.953 120.37v0.65625h0.046875l0.14062 2.9531 0.14062 2.4844c0.51562 7.5469 7.0312 13.266 14.578 12.75 7.5-0.5625 13.219-7.0781 12.75-14.625zm24-47.812c2.0156 3.7969 3.5625 7.7812 4.5938 12 0.98438 4.0312 1.5469 8.3438 1.5469 12.844 0 14.625-5.9531 27.891-15.516 37.5-9.6094 9.6094-22.828 15.516-37.5 15.516-14.625 0-27.891-5.9531-37.5-15.516-9.6094-9.6094-15.516-22.828-15.516-37.5 0-12.328 4.1719-23.672 11.156-32.625 7.1719-9.1875 17.297-15.938 28.922-18.844 7.3594-1.8281 11.812-9.2344 10.031-16.547-1.8281-7.3594-9.2344-11.812-16.547-10.031-17.719 4.4062-33.094 14.672-43.969 28.594-10.688 13.688-17.062 30.844-17.062 49.453 0 22.219 9 42.328 23.578 56.859 14.531 14.578 34.688 23.578 56.906 23.578s42.328-9 56.859-23.578c14.578-14.531 23.578-34.641 23.578-56.859 0-6.6094-0.84375-13.078-2.3906-19.359-1.5938-6.4219-3.9375-12.516-6.9844-18.234-3.5156-6.7031-11.812-9.2344-18.469-5.7188s-9.2344 11.766-5.7188 18.469z" fill-rule="evenodd"/>
</svg>
