<?xml version="1.0" encoding="UTF-8"?>
<svg width="1200pt" height="1200pt" version="1.1" viewBox="0 0 1200 1200" xmlns="http://www.w3.org/2000/svg">
 <g>
  <path d="m60 600 258.38 258.38 258.38-258.38-258.38-258.38zm48 0 160.31-160.31 24.562 24.562-117.94 117.94 274.12 0.375v34.875h-273.75l117.75 117.75-24.938 24.938z"/>
  <path d="m341.62 318.38 258.38 258.38 258.38-258.38-258.38-258.38zm98.062-50.062 160.31-160.31 160.12 160.12-24.938 24.938-117.75-117.75v273.75h-34.875l-0.375-274.12-117.94 117.94z"/>
  <path d="m341.62 881.62 258.38 258.38 258.38-258.38-258.38-258.38zm240.94-130.69h34.875l0.375 274.12 117.94-117.94 24.562 24.562-160.31 160.31-160.12-160.12 24.938-24.938 117.75 117.75z"/>
  <path d="m623.25 600 258.38 258.38 258.38-258.38-258.38-258.38zm127.69-17.438h273.75l-117.75-117.75 24.938-24.938 160.12 160.12-160.31 160.31-24.562-24.562 117.94-117.94-274.12-0.375z"/>
 </g>
</svg>
