<?xml version="1.0" encoding="UTF-8"?>
<svg width="1200pt" height="1200pt" version="1.1" viewBox="0 0 1200 1200" xmlns="http://www.w3.org/2000/svg">
 <path d="m865.74 853.55c8.6055 0 15.586 6.9805 15.586 15.582 0 8.6055-6.9805 15.586-15.586 15.586h-465.64c-21.641 0-42.383-8.5898-57.684-23.891-15.293-15.293-23.891-36.043-23.891-57.672v-465.64c0-8.6055 6.9883-15.594 15.586-15.594 8.6055 0 15.594 6.9883 15.594 15.594v465.64c0 13.363 5.3047 26.18 14.754 35.629 9.4492 9.4531 22.277 14.766 35.641 14.766zm-408.61-163.18c12.473 0 22.598 10.125 22.598 22.598 0 12.465-10.125 22.59-22.598 22.59-12.473 0-22.594-10.125-22.594-22.59 0-12.473 10.121-22.598 22.594-22.598zm165.4-77.277c12.465 0 22.598 10.133 22.598 22.598 0 12.473-10.133 22.594-22.598 22.594-12.473 0-22.598-10.121-22.598-22.594 0-12.465 10.125-22.598 22.598-22.598zm85.469-190.72c12.469 0 22.598 10.129 22.598 22.594 0 12.473-10.129 22.598-22.598 22.598-12.473 0-22.594-10.125-22.594-22.598 0-12.465 10.121-22.594 22.594-22.594zm-179.07 77.828c12.473 0 22.598 10.133 22.598 22.598 0 12.473-10.125 22.598-22.598 22.598-12.473 0-22.594-10.125-22.594-22.598 0-12.465 10.121-22.598 22.594-22.598zm244.99 190.17c12.465 0 22.598 10.125 22.598 22.598 0 12.465-10.133 22.59-22.598 22.59-12.473 0-22.598-10.125-22.598-22.59 0-12.473 10.125-22.598 22.598-22.598z" fill-rule="evenodd"/>
</svg>
