<?xml version="1.0" encoding="UTF-8"?>
<svg width="1200pt" height="1200pt" version="1.1" viewBox="0 0 1200 1200" xmlns="http://www.w3.org/2000/svg">
 <path d="m978 492h-756c-9.9375 0-18 8.0625-18 18 0.09375 34.219 13.969 66.938 38.531 90.75l250.31 241.64 35.297 317.58c0.98438 9.1406 8.6719 16.031 17.859 16.031h108c9.1875 0 16.875-6.8906 17.906-16.031l35.297-317.58 250.26-241.64c24.562-23.812 38.438-56.531 38.531-90.75 0-9.9375-8.0625-18-18-18zm-340.13 648h-75.75l-32.016-288h139.78zm294.61-565.22-62.062 60c-150.84 145.69-390.05 145.69-540.89 0l-62.062-60c-13.078-12.656-22.031-28.969-25.688-46.781h716.34c-3.6562 17.812-12.562 34.125-25.641 46.781zm-512.95-220.18 171.47 99c5.5781 3.2344 12.422 3.2344 18 0l171.47-99c5.5781-3.2344 9-9.1875 9-15.609v-198c0-6.4219-3.4219-12.375-9-15.609l-171.47-99c-5.5781-3.2344-12.422-3.2344-18 0l-171.47 99c-5.5781 3.2344-9 9.1875-9 15.609v198c0 6.4219 3.4219 12.375 9 15.609zm333.94-26.016-135.47 78.188v-156.37l135.47-78.234zm-153.47-265.82 135.47 78.234-135.47 78.234-135.47-78.234z"/>
</svg>
