<?xml version="1.0" encoding="UTF-8"?>
<svg width="1200pt" height="1200pt" version="1.1" viewBox="0 0 1200 1200" xmlns="http://www.w3.org/2000/svg">
 <path d="m979.69 267.19v-154.69c0-13.688 5.4375-26.812 15.188-36.562 9.75-9.5625 22.688-15 36.375-15s26.812 5.4375 36.562 15c9.75 9.75 15.188 22.875 15.188 36.562v923.44h4.6875c28.5 0 51.562 23.062 51.562 51.562v37.5c0 7.6875-6.375 14.062-14.062 14.062h-1050.2c-7.6875 0-14.062-6.375-14.062-14.062v-37.5c0-28.5 23.062-51.562 51.562-51.562h4.6875v-923.44c0-13.688 5.4375-26.812 15-36.562 9.75-9.5625 22.875-15 36.562-15s26.812 5.4375 36.375 15c9.75 9.75 15 22.875 15 36.562v154.69h121.87v-4.6875c0-13.688 5.4375-26.812 15.188-36.562 9.75-9.5625 22.688-15 36.375-15s26.812 5.4375 36.562 15l1.125 1.125 0.9375-1.125c9.75-9.5625 22.688-15 36.562-15s26.812 5.4375 36.375 15l0.9375 1.125 1.125-1.125c9.75-9.5625 22.875-15 36.562-15s26.812 5.4375 36.562 15c9.5625 9.75 15 22.875 15 36.562v4.6875h159.37v-4.6875c0-13.688 5.4375-26.812 15-36.562 9.75-9.5625 22.875-15 36.562-15s26.812 5.4375 36.562 15c9.5625 9.75 15 22.875 15 36.562v4.6875zm-787.5 768.74v-923.44c0-6.1875-2.4375-12.188-6.9375-16.5s-10.312-6.9375-16.5-6.9375-12.188 2.4375-16.5 6.9375-6.9375 10.312-6.9375 16.5v923.44zm28.125-140.63v140.63h759.37v-140.63h-46.875v4.6875c0 13.688-5.4375 26.812-15 36.562-9.75 9.5625-22.875 15-36.562 15s-26.812-5.4375-36.562-15l-1.125-1.125-0.9375 1.125c-9.75 9.5625-22.875 15-36.562 15s-26.812-5.4375-36.562-15l-1.125-1.125-0.9375 1.125c-9.75 9.5625-22.688 15-36.375 15s-26.812-5.4375-36.562-15c-9.5625-9.75-15.188-22.875-15.188-36.562v-4.6875h-159.37v4.6875c0 13.688-5.4375 26.812-15.188 36.562-9.75 9.5625-22.688 15-36.375 15s-26.812-5.4375-36.562-15c-9.75-9.75-15.188-22.875-15.188-36.562v-4.6875h-196.87zm787.5-14.062v154.69h46.875v-923.44c0-6.1875-2.4375-12.188-6.9375-16.5-4.3125-4.3125-10.312-6.9375-16.688-6.9375s-12.188 2.4375-16.5 6.9375-6.9375 10.312-6.9375 16.5v768.74zm-665.63-585.94h-121.87v46.875h121.87zm225 79.688v-112.5c0-6.1875-2.4375-12.188-6.9375-16.5-4.3125-4.3125-10.312-6.9375-16.5-6.9375s-12.188 2.4375-16.688 6.9375c-4.3125 4.5-6.75 10.312-6.75 16.5v112.5c0 6.1875 2.4375 12.188 6.75 16.5 4.5 4.3125 10.312 6.9375 16.688 6.9375s12.188-2.4375 16.5-6.9375c4.5-4.5 6.9375-10.312 6.9375-16.5zm28.125-4.6875v4.6875c0 13.688-5.4375 26.812-15 36.562-9.75 9.5625-22.875 15-36.562 15s-26.812-5.4375-36.562-15l-1.125-1.125-0.9375 1.125c-9.75 9.5625-22.688 15-36.375 15s-26.812-5.4375-36.562-15l-0.9375-1.125-1.125 1.125c-9.75 9.5625-22.688 15-36.562 15s-26.812-5.4375-36.375-15c-9.75-9.75-15.188-22.875-15.188-36.562v-4.6875h-121.87v159.37h46.875v-4.6875c0-13.688 5.4375-26.812 15-36.562 9.75-9.5625 22.688-15 36.375-15s26.812 5.4375 36.562 15c9.75 9.75 15.188 22.875 15.188 36.562v4.6875h234.37v-4.6875c0-13.688 5.4375-26.812 15.188-36.562 9.75-9.5625 22.688-15 36.562-15s26.812 5.4375 36.375 15l1.125 1.125 0.9375-1.125c9.75-9.5625 22.688-15 36.562-15s26.812 5.4375 36.375 15l0.9375 1.125 1.125-1.125c9.75-9.5625 22.875-15 36.562-15s26.812 5.4375 36.562 15c9.5625 9.75 15 22.875 15 36.562v4.6875h121.87v-159.37h-121.87v4.6875c0 13.688-5.4375 26.812-15 36.562-9.75 9.5625-22.875 15-36.562 15s-26.812-5.4375-36.562-15c-9.5625-9.75-15-22.875-15-36.562v-4.6875zm-225-107.81v112.5c0 6.1875 2.4375 12.188 6.9375 16.5 4.3125 4.3125 10.312 6.9375 16.5 6.9375s12.188-2.4375 16.688-6.9375c4.3125-4.5 6.75-10.312 6.75-16.5v-112.5c0-6.1875-2.4375-12.188-6.75-16.5-4.5-4.3125-10.312-6.9375-16.688-6.9375s-12.188 2.4375-16.5 6.9375-6.9375 10.312-6.9375 16.5zm384.37 32.812h-159.37v46.875h159.37zm75 79.688v-112.5c0-6.1875-2.4375-12.188-6.9375-16.5-4.3125-4.3125-10.312-6.9375-16.5-6.9375s-12.188 2.4375-16.688 6.9375c-4.3125 4.5-6.75 10.312-6.75 16.5v112.5c0 6.1875 2.4375 12.188 6.75 16.5 4.5 4.3125 10.312 6.9375 16.688 6.9375s12.188-2.4375 16.5-6.9375c4.5-4.5 6.9375-10.312 6.9375-16.5zm150-79.688h-121.87v46.875h121.87zm-759.37 525v46.875h196.87v-46.875zm759.37 46.875v-46.875h-46.875v46.875zm-759.37-234.37v159.37h196.87v-4.6875c0-13.688 5.4375-26.812 15.188-36.562 9.75-9.5625 22.688-15 36.562-15s26.812 5.4375 36.375 15c9.75 9.75 15.188 22.875 15.188 36.562v4.6875h159.37v-4.6875c0-13.688 5.4375-26.812 15.188-36.562 9.75-9.5625 22.688-15 36.562-15s26.812 5.4375 36.375 15l0.9375 1.125 1.125-1.125c9.75-9.5625 22.875-15 36.562-15s26.812 5.4375 36.562 15l0.9375 1.125 1.125-1.125c9.75-9.5625 22.875-15 36.562-15s26.812 5.4375 36.562 15c9.5625 9.75 15 22.875 15 36.562v4.6875h46.875v-159.37h-121.87v4.6875c0 13.688-5.4375 26.812-15 36.562-9.75 9.5625-22.875 15-36.562 15s-26.812-5.4375-36.562-15l-1.125-1.125-0.9375 1.125c-9.75 9.5625-22.688 15-36.375 15s-26.812-5.4375-36.562-15l-0.9375-1.125-1.125 1.125c-9.75 9.5625-22.688 15-36.375 15s-26.812-5.4375-36.562-15c-9.75-9.75-15.188-22.875-15.188-36.562v-4.6875h-234.37v4.6875c0 13.688-5.4375 26.812-15.188 36.562-9.75 9.5625-22.688 15-36.562 15s-26.812-5.4375-36.375-15c-9.75-9.75-15-22.875-15-36.562v-4.6875zm0-75v46.875h46.875v-46.875zm487.5 229.69v112.5c0 6.1875 2.4375 12.188 6.9375 16.5s10.312 6.9375 16.5 6.9375 12.188-2.4375 16.5-6.9375 6.9375-10.312 6.9375-16.5v-112.5c0-6.1875-2.4375-12.188-6.9375-16.5s-10.312-6.9375-16.5-6.9375-12.188 2.4375-16.5 6.9375-6.9375 10.312-6.9375 16.5zm196.87 112.5v-112.5c0-6.1875-2.4375-12.188-6.9375-16.5s-10.312-6.9375-16.5-6.9375-12.188 2.4375-16.5 6.9375-6.9375 10.312-6.9375 16.5v112.5c0 6.1875 2.4375 12.188 6.9375 16.5 4.3125 4.3125 10.312 6.9375 16.5 6.9375s12.188-2.4375 16.5-6.9375 6.9375-10.312 6.9375-16.5zm-384.37-32.812h159.37v-46.875h-159.37zm-75-79.688v112.5c0 6.1875 2.4375 12.188 6.9375 16.5s10.312 6.9375 16.5 6.9375 12.188-2.4375 16.5-6.9375 6.9375-10.312 6.9375-16.5v-112.5c0-6.1875-2.4375-12.188-6.9375-16.5s-10.312-6.9375-16.5-6.9375-12.188 2.4375-16.5 6.9375-6.9375 10.312-6.9375 16.5zm534.37-182.81v-46.875h-121.87v46.875zm-637.5 32.812v-112.5c0-6.1875-2.4375-12.188-6.75-16.5s-10.312-6.9375-16.688-6.9375-12.188 2.4375-16.5 6.9375-6.9375 10.312-6.9375 16.5v112.5c0 6.1875 2.4375 12.188 6.9375 16.5 4.3125 4.3125 10.312 6.9375 16.5 6.9375s12.188-2.4375 16.688-6.9375c4.3125-4.5 6.75-10.312 6.75-16.5zm262.5-79.688h-234.37v46.875h234.37zm225 79.688v-112.5c0-6.1875-2.4375-12.188-6.9375-16.5-4.3125-4.3125-10.312-6.9375-16.5-6.9375s-12.188 2.4375-16.688 6.9375c-4.3125 4.5-6.75 10.312-6.75 16.5v112.5c0 6.1875 2.4375 12.188 6.75 16.5 4.5 4.3125 10.312 6.9375 16.688 6.9375s12.188-2.4375 16.5-6.9375c4.5-4.5 6.9375-10.312 6.9375-16.5zm-196.87-112.5v112.5c0 6.1875 2.4375 12.188 6.9375 16.5 4.3125 4.3125 10.312 6.9375 16.5 6.9375s12.188-2.4375 16.5-6.9375 6.75-10.312 6.75-16.5v-112.5c0-6.1875-2.4375-12.188-6.75-16.5-4.5-4.3125-10.312-6.9375-16.5-6.9375s-12.188 2.4375-16.5 6.9375-6.9375 10.312-6.9375 16.5zm173.44 239.06c-6.1875 0-12.188 2.4375-16.688 6.9375-4.3125 4.5-6.75 10.312-6.75 16.5v112.5c0 6.1875 2.4375 12.188 6.75 16.5 4.5 4.3125 10.312 6.9375 16.688 6.9375s12.188-2.4375 16.5-6.9375c4.5-4.5 6.9375-10.312 6.9375-16.5v-112.5c0-6.1875-2.4375-12.188-6.9375-16.5-4.3125-4.3125-10.312-6.9375-16.5-6.9375zm-337.5-525c-6.1875 0-12.188 2.4375-16.5 6.9375s-6.9375 10.312-6.9375 16.5v112.5c0 6.1875 2.4375 12.188 6.9375 16.5s10.312 6.9375 16.5 6.9375 12.188-2.4375 16.5-6.9375 6.9375-10.312 6.9375-16.5v-112.5c0-6.1875-2.4375-12.188-6.9375-16.5s-10.312-6.9375-16.5-6.9375zm262.5 262.5c-6.1875 0-12.188 2.4375-16.5 6.9375s-6.9375 10.312-6.9375 16.5v112.5c0 6.1875 2.4375 12.188 6.9375 16.5s10.312 6.9375 16.5 6.9375 12.188-2.4375 16.5-6.9375 6.9375-10.312 6.9375-16.5v-112.5c0-6.1875-2.4375-12.188-6.9375-16.5s-10.312-6.9375-16.5-6.9375zm356.26 562.5h-975c-12.938 0-23.438 10.5-23.438 23.438v23.438h1021.9v-23.438c0-12.938-10.5-23.438-23.438-23.438z" fill-rule="evenodd"/>
</svg>
