<?xml version="1.0" encoding="UTF-8"?>
<svg width="1200pt" height="1200pt" version="1.1" viewBox="0 0 1200 1200" xmlns="http://www.w3.org/2000/svg">
 <path d="m468 384h264v96h-264zm312 96h264v-96h-264zm-624 0h264v-96h-264zm312 144h264v-96h-264zm312 0h264v-96h-264zm-624 0h264v-96h-264zm624 144h264v-96h-264zm-312 0h264v-96h-264zm-312 0h264v-96h-264zm624 144h264v-96h-264zm-312 0h264v-96h-264zm-312 0h264v-96h-264zm624 144h264v-96h-264zm-312 0h264v-96h-264zm-312 0h264v-96h-264zm0-912v192h888v-192z"/>
</svg>
