<?xml version="1.0" encoding="UTF-8"?>
<svg width="1200pt" height="1200pt" version="1.1" viewBox="0 0 1200 1200" xmlns="http://www.w3.org/2000/svg">
 <path d="m387.37 522.84h15.75c-0.79688-3.9375-1.2188-7.9688-1.2188-12.141v-175.87c0-16.547 6.75-31.594 17.625-42.469s25.922-17.625 42.469-17.625h276c16.547 0 31.594 6.75 42.469 17.625s17.625 25.922 17.625 42.469v175.87c0 4.125-0.42188 8.2031-1.2188 12.141h15.75c16.547 0 31.594 6.75 42.469 17.625s17.625 25.922 17.625 42.469v282.19c0 16.547-6.75 31.594-17.625 42.469s-25.922 17.625-42.469 17.625h-425.26c-16.547 0-31.594-6.75-42.469-17.625s-17.625-25.922-17.625-42.469v-282.19c0-16.547 6.75-31.594 17.625-42.469s25.922-17.625 42.469-17.625zm74.625 0h276c3.3281 0 6.375-1.3594 8.5781-3.5625s3.5625-5.25 3.5625-8.5781v-175.87c0-3.3281-1.3594-6.375-3.5625-8.5781s-5.25-3.5625-8.5781-3.5625h-77.531c0.79688 3.9375 1.2188 7.9688 1.2188 12.141v2.2031c0 16.547-6.75 31.594-17.625 42.469s-25.922 17.625-42.469 17.625h-3.1875c-16.547 0-31.594-6.75-42.469-17.625s-17.625-25.922-17.625-42.469v-2.2031c0-4.125 0.42188-8.2031 1.2188-12.141h-77.531c-3.3281 0-6.375 1.3594-8.5781 3.5625s-3.5625 5.25-3.5625 8.5781v175.87c0 3.3281 1.3594 6.375 3.5625 8.5781s5.25 3.5625 8.5781 3.5625zm350.63 48h-135.98c0.79688 3.9375 1.2188 7.9688 1.2188 12.141v34.078c0 16.547-6.75 31.594-17.625 42.469s-25.922 17.625-42.469 17.625h-35.531c-16.547 0-31.594-6.75-42.469-17.625s-17.625-25.922-17.625-42.469v-34.078c0-4.125 0.42188-8.2031 1.2188-12.141h-135.98c-3.3281 0-6.375 1.3594-8.5781 3.5625s-3.5625 5.25-3.5625 8.5781v282.19c0 3.3281 1.3594 6.375 3.5625 8.5781s5.25 3.5625 8.5781 3.5625h425.26c3.3281 0 6.375-1.3594 8.5781-3.5625 2.2031-2.2031 3.5625-5.25 3.5625-8.5781v-282.19c0-3.3281-1.3594-6.375-3.5625-8.5781-2.2031-2.2031-5.25-3.5625-8.5781-3.5625zm-194.86 0h-35.531c-3.3281 0-6.375 1.3594-8.5781 3.5625s-3.5625 5.25-3.5625 8.5781v34.078c0 3.3281 1.3594 6.375 3.5625 8.5781s5.25 3.5625 8.5781 3.5625h35.531c3.3281 0 6.375-1.3594 8.5781-3.5625s3.5625-5.25 3.5625-8.5781v-34.078c0-3.3281-1.3594-6.375-3.5625-8.5781s-5.25-3.5625-8.5781-3.5625zm-16.172-248.11h-3.1875c-3.3281 0-6.375 1.3594-8.5781 3.5625-2.2031 2.2031-3.5625 5.25-3.5625 8.5781v2.2031c0 3.3281 1.3594 6.375 3.5625 8.5781 2.2031 2.2031 5.25 3.5625 8.5781 3.5625h3.1875c3.3281 0 6.375-1.3594 8.5781-3.5625 2.2031-2.2031 3.5625-5.25 3.5625-8.5781v-2.2031c0-3.3281-1.3594-6.375-3.5625-8.5781-2.2031-2.2031-5.25-3.5625-8.5781-3.5625zm-506.95 195.89c17.391-108.8 69-206.16 143.48-280.55 74.391-74.438 171.79-126.1 280.55-143.48 3.4219-15.938 11.391-30.188 22.547-41.344 15.047-15.047 35.859-24.375 58.875-24.375 22.969 0 43.781 9.3281 58.828 24.375 11.109 11.109 19.125 25.359 22.547 41.344 108.8 17.391 206.16 69 280.55 143.48 74.438 74.391 126.1 171.74 143.48 280.55 15.938 3.4219 30.188 11.391 41.344 22.547 15.047 15.047 24.375 35.859 24.375 58.828s-9.3281 43.828-24.375 58.875c-11.109 11.109-25.359 19.125-41.344 22.547-17.391 108.8-69 206.16-143.48 280.55-74.391 74.438-171.74 126.1-280.55 143.48-3.4219 15.938-11.391 30.188-22.547 41.344-15.047 15.047-35.859 24.375-58.828 24.375s-43.828-9.3281-58.875-24.375c-11.109-11.109-19.125-25.359-22.547-41.344-108.8-17.391-206.16-69-280.55-143.48-74.438-74.391-126.1-171.74-143.48-280.55-15.938-3.4219-30.188-11.391-41.344-22.547-15.047-15.047-24.375-35.859-24.375-58.875 0-22.969 9.3281-43.781 24.375-58.828 11.109-11.109 25.359-19.125 41.344-22.547zm177.37-246.66c-66.656 66.656-113.16 153.52-129.42 250.5 10.734 4.2188 20.391 10.641 28.453 18.656 15.047 15.047 24.375 35.859 24.375 58.875 0 22.125-8.7188 42.281-22.875 57.234l-1.4531 1.6406c-8.0156 8.0156-17.672 14.391-28.453 18.656 16.312 96.984 62.766 183.84 129.42 250.55 66.656 66.656 153.52 113.16 250.55 129.42 4.2188-10.734 10.641-20.391 18.656-28.453 15.141-15.047 35.953-24.375 58.875-24.375 22.969 0 43.828 9.3281 58.875 24.375 8.0156 8.0156 14.391 17.672 18.656 28.453 96.984-16.312 183.84-62.766 250.5-129.42 66.656-66.656 113.16-153.56 129.42-250.55-10.734-4.2188-20.391-10.641-28.453-18.656-15.047-15.047-24.375-35.859-24.375-58.875 0-22.969 9.3281-43.828 24.375-58.875 8.0156-8.0156 17.672-14.391 28.453-18.656-16.266-96.984-62.766-183.84-129.42-250.5-66.656-66.656-153.52-113.16-250.5-129.42-4.2188 10.734-10.641 20.391-18.656 28.453-15.047 15.047-35.859 24.375-58.875 24.375-22.969 0-43.828-9.3281-58.875-24.375-8.0156-8.0156-14.391-17.672-18.656-28.453-96.984 16.266-183.84 62.766-250.55 129.42zm327.98-124.6c9.7031 0 18.562-3.9375 24.891-10.312 6.375-6.375 10.312-15.188 10.312-24.891s-3.9375-18.562-10.312-24.891c-6.375-6.375-15.188-10.312-24.891-10.312s-18.562 3.9375-24.891 10.312c-6.375 6.375-10.312 15.188-10.312 24.891s3.9375 18.562 10.312 24.891c6.375 6.375 15.188 10.312 24.891 10.312zm452.58 452.58c0 9.7031 3.9375 18.562 10.312 24.891 6.375 6.375 15.188 10.312 24.891 10.312s18.562-3.9375 24.891-10.312c6.375-6.375 10.312-15.188 10.312-24.891s-3.9375-18.562-10.312-24.891c-6.375-6.375-15.188-10.312-24.891-10.312s-18.562 3.9375-24.891 10.312c-6.375 6.375-10.312 15.188-10.312 24.891zm-452.58 452.58c-9.7969 0-18.609 3.9375-24.891 10.219-6.375 6.4688-10.312 15.281-10.312 25.031 0 9.7031 3.9375 18.562 10.312 24.891 6.375 6.375 15.188 10.312 24.891 10.312s18.562-3.9375 24.891-10.312c6.375-6.375 10.312-15.188 10.312-24.891s-3.9375-18.562-10.312-24.891c-6.375-6.375-15.188-10.312-24.891-10.312zm-452.58-452.58c0-9.7031-3.9375-18.562-10.312-24.891-6.375-6.375-15.188-10.312-24.891-10.312s-18.562 3.9375-24.891 10.312c-6.375 6.375-10.312 15.188-10.312 24.891s3.9375 18.562 10.312 24.891c6.375 6.375 15.188 10.312 24.891 10.312s18.562-3.9375 24.891-10.312l1.0312-0.98438c5.7656-6.2344 9.2812-14.672 9.2812-23.953z"/>
</svg>
