<?xml version="1.0" encoding="UTF-8"?>
<svg width="1200pt" height="1200pt" version="1.1" viewBox="0 0 1200 1200" xmlns="http://www.w3.org/2000/svg">
 <path d="m972 60h-744c-92.625 0-168 75.375-168 168v744c0 92.625 75.375 168 168 168h744c92.625 0 168-75.375 168-168v-744c0-92.625-75.375-168-168-168zm-744 96h744c39.703 0 72 32.297 72 72v120h-888v-120c0-39.703 32.297-72 72-72zm744 888h-744c-39.703 0-72-32.297-72-72v-528h888v528c0 39.703-32.297 72-72 72zm-660-744h-96v-96h96zm144 0h-96v-96h96zm222.74 356.02-66 207.28c-6.5156 20.438-25.406 33.469-45.75 33.469-4.8281 0-9.75-0.75-14.578-2.25-25.266-8.0625-39.234-35.062-31.172-60.281l66-207.28c8.0625-25.266 35.062-39.188 60.281-31.172 25.266 8.0625 39.234 35.062 31.172 60.281zm232.82 55.734c16.594 18.281 16.594 46.219 0 64.5l-97.922 108c-9.4688 10.453-22.5 15.75-35.578 15.75-11.484 0-23.062-4.125-32.25-12.422-19.641-17.812-21.141-48.188-3.3281-67.781l68.719-75.75-68.719-75.75c-17.812-19.641-16.312-49.969 3.3281-67.781s50.016-16.312 67.781 3.3281l97.922 108zm-454.08-43.5-68.719 75.75 68.719 75.75c17.812 19.641 16.312 49.969-3.3281 67.781-9.1875 8.3438-20.719 12.422-32.25 12.422-13.078 0-26.109-5.2969-35.578-15.75l-97.922-108c-16.594-18.281-16.594-46.219 0-64.5l97.922-108c17.812-19.641 48.188-21.141 67.781-3.3281 19.641 17.812 21.141 48.188 3.3281 67.781z"/>
</svg>
