<?xml version="1.0" encoding="UTF-8"?>
<svg width="1200pt" height="1200pt" version="1.1" viewBox="0 0 1200 1200" xmlns="http://www.w3.org/2000/svg">
 <path d="m877.88 271.5v89.25c-127.17 0.77734-217.07 24.133-284.62 62.625-42.703 24.336-75.012 53.371-102.38 82.5-29.469-29.805-65.211-59.469-111.75-83.625-75.078-38.969-175.18-62.445-319.12-61.875l0.375 125.25c130.36-0.51562 208.28 20.066 261.38 47.625 35.719 18.539 61.621 40.777 86.25 66.75-24.629 25.961-50.531 48.211-86.25 66.75-53.094 27.559-131.02 48.141-261.38 47.625l-0.375 125.25c143.95 0.57031 244.05-22.906 319.12-61.875 46.539-24.156 82.281-53.82 111.75-83.625 27.363 29.129 59.672 58.164 102.38 82.5 67.551 38.492 157.46 61.848 284.62 62.625v89.25l262.12-151.5-262.12-151.5v88.5c-111.57-0.74219-177-20.055-222.75-46.125-32.156-18.324-56.266-40.988-80.625-67.875 24.359-26.898 48.469-49.551 80.625-67.875 45.75-26.07 111.18-45.387 222.75-46.125v88.5l262.12-151.5z" fill-rule="evenodd"/>
</svg>
