<?xml version="1.0" encoding="UTF-8"?>
<svg width="1200pt" height="1200pt" version="1.1" viewBox="0 0 1200 1200" xmlns="http://www.w3.org/2000/svg">
 <path d="m600 560.52c-27.758 0-54.379-11.031-74.004-30.66-19.625-19.633-30.648-46.262-30.637-74.02 0.011719-27.758 11.051-54.375 30.691-73.992 19.641-19.621 46.27-30.629 74.031-30.609 27.758 0.023438 54.371 11.074 73.98 30.723 19.609 19.645 30.609 46.281 30.578 74.039-0.0625 27.723-11.113 54.289-30.727 73.879-19.613 19.59-46.191 30.609-73.914 30.641zm0-185.16c-21.387 0-41.898 8.4961-57.02 23.621-15.125 15.121-23.621 35.633-23.621 57.02s8.4961 41.898 23.621 57.02c15.121 15.125 35.633 23.621 57.02 23.621s41.898-8.4961 57.02-23.621c15.125-15.121 23.621-35.633 23.621-57.02-0.03125-21.379-8.5391-41.871-23.656-56.984-15.113-15.117-35.605-23.625-56.984-23.656z"/>
 <path d="m813.36 809.28h-426.72v-108.72c0-28.641 11.379-56.113 31.633-76.367 20.254-20.254 47.723-31.633 76.367-31.633h210.72c28.645 0 56.113 11.379 76.367 31.633 20.254 20.254 31.633 47.727 31.633 76.367zm-402.72-24h378.72v-84.723c0-22.277-8.8477-43.641-24.602-59.395-15.754-15.754-37.121-24.605-59.398-24.605h-210.72c-22.277 0-43.645 8.8516-59.398 24.605-15.754 15.754-24.602 37.117-24.602 59.395z"/>
 <path d="m600 1054.3c-122.53 0-240.04-48.676-326.68-135.32s-135.32-204.15-135.32-326.68 48.676-240.04 135.32-326.68 204.15-135.32 326.68-135.32 240.04 48.676 326.68 135.32 135.32 204.15 135.32 326.68c-0.12891 122.49-48.844 239.93-135.46 326.54s-204.05 135.33-326.54 135.46zm0-900c-116.16 0-227.57 46.145-309.71 128.29-82.145 82.145-128.29 193.55-128.29 309.71 0 116.16 46.145 227.57 128.29 309.71 82.141 82.141 193.55 128.29 309.71 128.29s227.57-46.148 309.71-128.29c82.145-82.141 128.29-193.55 128.29-309.71-0.12891-116.12-46.312-227.46-128.43-309.57-82.113-82.113-193.45-128.3-309.57-128.43z"/>
</svg>
