<?xml version="1.0" encoding="UTF-8"?>
<svg width="1200pt" height="1200pt" version="1.1" viewBox="0 0 1200 1200" xmlns="http://www.w3.org/2000/svg">
 <path d="m602.62 1078.8h-2.8984l-2.8984-0.019531-2.8789-0.019531-5.7578-0.078125-2.8789-0.058594-5.7188-0.15625-5.7188-0.20312-2.8984-0.12109c-5.6211-0.21875-9.6797 5.1797-7.9414 10.52 1.0781 3.1797 3.9219 5.3203 7.2617 5.4609l2.9609 0.12109 5.8438 0.20312 2.9219 0.078125 2.9414 0.078125 5.8828 0.11719 2.9414 0.039063 5.9023 0.039062h5.9219l5.9023-0.039062 2.9414-0.039063 5.8828-0.11719 2.9414-0.078125 2.9219-0.078125 5.8438-0.20312 2.9609-0.12109c6.0586-0.28125 9.6211-6.8594 6.5391-12.102-1.5195-2.5391-4.2383-4-7.1992-3.8789l-2.8984 0.12109-5.7188 0.20312-5.7188 0.15625-2.8789 0.058594-5.7578 0.078125-2.8789 0.019531-2.8984 0.019531zm258.7-611.06c0.019532 5.7383 5.8203 9.5781 11.121 7.3789 2.9805-1.2812 4.8789-4.1406 4.8789-7.3789v-1.0781l-0.039062-2.1562-0.039062-1.0586-0.11719-2.1172-0.15625-2.1172-0.10156-1.0586-0.24219-2.1172-0.28125-2.1172-0.16016-1.0586-0.16016-1.0391-0.12109-0.73828c-0.62109-3.4609-3.3789-6.0781-6.8789-6.5391-5.3789-0.66016-9.8008 4.0195-8.8789 9.3398l0.10156 0.57812 0.28125 1.7578 0.24219 1.7578 0.20312 1.7578 0.15625 1.7578 0.11719 1.7578 0.078125 1.7969 0.039062 1.7969v0.89844zm-19-54.039c3.3203 4.4414 9.9805 4.3008 13.078-0.32031 1.8789-2.8398 1.7812-6.4609-0.21875-9.1992l-0.37891-0.53906-1.3594-1.7969-1.3984-1.7969-0.71875-0.89844-1.4375-1.7578-1.4766-1.7578-1.5234-1.7578-2.3438-2.5781-1.6016-1.7188-1.6406-1.6797-2.5195-2.5195-0.85938-0.83984-0.85938-0.82031-2.6367-2.4609-0.89844-0.82031-1.1211-1c-4.1406-3.6211-10.578-2.1211-12.68 2.9805-1.2812 3.1797-0.46094 6.7812 2.1211 9.0391l0.96094 0.85937 0.82031 0.73828 2.4023 2.2148 1.5625 1.5234 2.2852 2.2852 1.4766 1.5234 0.71875 0.76172 0.71875 0.78125 2.0977 2.3438 1.3594 1.5625 1.9805 2.3438 1.2812 1.6016 1.2422 1.6016 1.2031 1.6016 0.37891 0.53906zm-58.359-48.641c5.0195 2.7383 11.16-0.44141 11.82-6.1211 0.33984-3.2383-1.2383-6.3008-4.1016-7.8789l-1.2188-0.67969-3.5977-1.9219-2.4375-1.2812-1.2188-0.62109-3.7148-1.8633-3.7852-1.8047-2.5625-1.2031-1.2812-0.57812-3.9023-1.7344-1.3008-0.55859-3.9609-1.6758-0.67969-0.28125c-4.5195-1.8398-9.5781 0.69922-10.801 5.4219-0.98047 3.8789 1.0195 7.8398 4.6992 9.3789l1.8789 0.78125 1.2617 0.53906 3.7148 1.6172 1.2188 0.53906 3.6562 1.6758 2.3984 1.1172 1.1992 0.57812 3.5391 1.7344 1.1602 0.57812 2.3203 1.2031 3.4219 1.8047 1.1211 0.60156 1.1602 0.64062zm-72.48-28.238c5.5781 1.4219 10.762-3.2617 9.9219-8.9609-0.5-3.1797-2.8008-5.6992-5.8984-6.5195l-1.1016-0.28125-1.5-0.37891-4.5586-1.1367-1.5195-0.35938-4.6172-1.0781-1.5391-0.33984-3.1172-0.67969-4.6758-0.96094-1.5781-0.32031-6.3125-1.2031-1.3008-0.23828c-5.4609-0.94141-10.199 3.7383-9.2812 9.2188 0.57812 3.3398 3.1406 5.9219 6.4805 6.5391l1.2383 0.21875 1.5391 0.28125 1.5195 0.28125 4.5586 0.90234 1.5 0.30078 6 1.2812 5.9219 1.3594 5.8438 1.4375 1.4414 0.37891 1.1016 0.28125zm-77.398-12.422c5.7617 0.35938 10-5.2617 8.0391-10.699-1.1016-3-3.8008-5.0391-7-5.2617l-1.3594-0.10156-3.3984-0.20312-3.4375-0.20312-5.1562-0.23438-3.4375-0.11719-1.7383-0.058593-5.2148-0.11719-5.2148-0.058594h-7.0469l-5.2148 0.058594-5.2148 0.11719-1.7383 0.058593-3.4375 0.11719-5.1562 0.23438-3.4375 0.20312-3.3984 0.20312-1.3594 0.10156c-5.7383 0.39844-9.1797 6.4219-6.6406 11.578 1.4609 2.8789 4.4414 4.6016 7.6797 4.3984l1.3594-0.10156 1.6406-0.10156 3.3203-0.20312 4.9805-0.23438 3.3203-0.11719 3.3594-0.11719 5.0391-0.11719 3.3594-0.039062 1.6992-0.019531h6.7969l1.6992 0.019531 3.3594 0.039062 5.0391 0.11719 3.3594 0.11719 3.3203 0.11719 4.9805 0.23438 3.3203 0.20312 1.6406 0.10156 1.3594 0.10156zm288.92 160.34c-2.0195 5.7188 2.7617 11.5 8.7617 10.602 2.9219-0.46094 5.3008-2.4414 6.3008-5.2188 2.3398-6.5586 4.2383-13.18 5.7812-19.961 1.1211-5.1602-2.8789-9.9414-8.1797-9.7383-3.6211 0.17969-6.6406 2.7188-7.4414 6.2617-1.3789 6.1406-3.1211 12.141-5.2188 18.059zm8.1016-63.281c0.55859 5.8203 6.9414 9.1016 12.02 6.1406 2.6797-1.6016 4.1992-4.5391 3.9219-7.6602l-0.019531-0.26172-0.32031-3-0.17969-1.5-0.39844-3-0.21875-1.5-0.47656-3-0.26172-1.4805-0.5625-2.9609-0.30078-1.4805-0.64062-2.9609-0.33984-1.4609-0.71875-2.9219-0.37891-1.4609-0.79688-2.9219-0.42188-1.4414-0.5-1.6406c-1.8594-5.7812-9.1406-7.5-13.379-3.1602-2.0391 2.1406-2.7617 5.1406-1.8789 7.9609l0.42188 1.3594 0.75781 2.6406 0.35938 1.3203 0.67969 2.6406 0.32031 1.3203 0.60156 2.6406 0.5625 2.6797 0.26172 1.3398 0.47656 2.6797 0.4375 2.6797 0.19922 1.3398 0.35938 2.7188 0.16016 1.3594 0.28125 2.7188 0.019532 0.26172zm-25.32-71.078c2.9414 4.5195 9.3203 4.9414 12.84 0.83984 2.2812-2.7188 2.5391-6.5195 0.62109-9.5l-0.94141-1.4414-0.85938-1.3008-1.7578-2.6016-0.89844-1.3008-0.89844-1.2812-1.8438-2.5625-0.94141-1.2812-1.9219-2.5234-1.9609-2.5234-2-2.4766-2.0391-2.4766-2.0781-2.4375-1.0586-1.2188-0.87891-1c-3.7383-4.1992-10.48-3.3789-13.102 1.6211-1.5195 2.9609-1.0781 6.4805 1.1211 8.9805l0.80078 0.92187 1.9609 2.2812 1.9219 2.2812 1.8828 2.3203 1.8438 2.3203 0.89844 1.1602 0.89844 1.1797 0.87891 1.1797 1.7188 2.3594 1.6797 2.3594 1.6406 2.3984 1.6016 2.3984 0.85938 1.3398zm-52.52-56.16c4.6406 3.5586 11.34 1.1602 12.68-4.5195 0.69922-3.0781-0.42187-6.1992-2.8984-8.1406l-0.62109-0.48047-1.3594-1.0391-2.7578-2.0781-1.3984-1.0391-1.3984-1.0195-2.8438-2.0391-1.4219-1-2.8828-2-2.9219-1.9609-2.9609-1.9609-1.4805-0.96094-3-1.9219-1.9414-1.1992c-5.1406-3.1406-11.762 0.26172-12.18 6.2812-0.17969 2.9805 1.2383 5.7812 3.8008 7.3398l1.8008 1.1211 1.4414 0.89844 2.8438 1.8438 2.7969 1.8438 4.1367 2.8242 2.7188 1.9219 2.6797 1.9219 3.9609 2.9414 1.3008 0.98047 1.3008 1 0.62109 0.48047zm-67.059-39.66c3.2383 1.4414 6.9805 0.60156 9.3008-2.0586 3.5195-4.0781 2.1211-10.34-2.7812-12.559l-1.7617-0.78125-3.4766-1.5234-1.7383-0.73828-3.5234-1.4766-1.7617-0.71875-1.7812-0.71875-3.5625-1.3984-1.8008-0.69922-3.6016-1.3594-1.8203-0.67969-3.6406-1.3203-1.8203-0.64062c-5.3984-1.8789-10.98 2.3008-10.641 8.0195 0.21875 3.2383 2.2812 5.9805 5.3203 7.0586l1.7383 0.62109 3.5234 1.2812 1.7383 0.64062 3.4766 1.3203 1.7188 0.66016 3.4375 1.3594 1.6992 0.67969 3.3984 1.3984 1.6797 0.69922 3.3594 1.4375 1.6602 0.71875 1.6992 0.76172zm-74.32-24.762c5.2383 1.1797 10.141-2.9609 9.7812-8.3398-0.26172-3.5195-2.7383-6.4414-6.1797-7.2383l-0.98047-0.21875-1.9805-0.46094-6-1.3242-4.0391-0.84375-4.0391-0.79688-2.0391-0.39844-4.0781-0.75781-2.0391-0.35938-2.0586-0.35938-2.0586-0.33984-2.6406-0.44141c-5.8984-0.92188-10.699 4.6797-8.8594 10.379 0.94141 2.8594 3.3594 4.9414 6.3594 5.4219l2.5 0.42188 3.9609 0.67969 3.9609 0.71875 1.9609 0.35938 3.9219 0.75781 1.9609 0.39844 3.8828 0.79688 3.8828 0.84375 3.8438 0.88281 0.98047 0.21875zm-77.738-11.32c5.8008 0.33984 10-5.3984 7.9609-10.84-1.1406-2.9609-3.8398-4.9414-7-5.1406l-1.7617-0.10156-2.1602-0.12109-2.1797-0.12109-4.3594-0.20312-4.3594-0.15625-6.5977-0.17578-4.3984-0.078125-2.1992-0.019531-2.2188-0.019532h-4.4375l-2.2188 0.019532-2.1992 0.019531-4.3984 0.078125-6.5977 0.17578-4.3594 0.15625-4.3594 0.20312-2.1797 0.12109-2.1602 0.12109-1.7617 0.10156c-5.9609 0.37891-9.4414 6.8789-6.4219 12.039 1.5391 2.6016 4.3594 4.1016 7.3789 3.9219l1.7617-0.10156 4.2031-0.24219 2.1016-0.10156 2.1211-0.10156 4.2422-0.15625 4.2422-0.11719 2.1211-0.039063 4.2812-0.078124 4.2812-0.039063h4.2812l4.2812 0.039063 4.2812 0.078124 2.1211 0.039063 4.2422 0.11719 4.2422 0.15625 2.1211 0.10156 2.1016 0.10156 4.2031 0.24219 1.7617 0.10156zm300.36 356.18c-5.0195 3-5.2188 10.18-0.39844 13.48 2.6016 1.7383 5.8984 1.8398 8.6016 0.26172l1.9805-1.1992 3.9219-2.3984c0.96094-0.60156 1.9219-1.2188 2.8984-1.8203 0.96094-0.62109 1.8984-1.2188 2.8594-1.8398l1.8789-1.2383 1.6016-1.0781c4.8789-3.3008 4.6406-10.539-0.44141-13.539-2.6797-1.5391-5.9414-1.4414-8.5195 0.28125-3.1992 2.1406-6.4219 4.2188-9.6797 6.2617l-1.8594 1.1406c-0.94141 0.57812-1.8789 1.1406-2.8398 1.6992zm50.559-38.301c-4.0586 4-2.8008 10.762 2.4219 13.059 3 1.2812 6.4414 0.66016 8.7812-1.6211 0.66016-0.64062 1.3008-1.2812 1.9609-1.9219l2.1406-2.1406 2.0977-2.1562 0.67969-0.71875 1.3594-1.4414 1.3398-1.4609 1.3203-1.4609 1.3203-1.4766 1.3008-1.4805 1.2812-1.4805 0.64063-0.73828 0.62109-0.73828 1.2383-1.5 2.4375-3 1.1992-1.5 1.1406-1.4805c3.5195-4.5781 1.1992-11.219-4.3984-12.641-3.1211-0.76172-6.3008 0.35937-8.2812 2.8789-0.89844 1.1602-1.8008 2.3203-2.7188 3.4609l-1.1406 1.3984-1.1406 1.3789c-0.57812 0.69922-1.1602 1.3789-1.7617 2.0781l-1.1797 1.3789c-0.60156 0.67969-1.1992 1.3789-1.8203 2.0586-0.82031 0.92188-1.6406 1.8203-2.4805 2.7188-0.64062 0.67969-1.2617 1.3594-1.8984 2.0195-1.5 1.5781-3.0195 3.1406-4.5586 4.6797-0.62109 0.62109-1.2383 1.2188-1.8594 1.8398zm44.262-62.441c-2.4219 5.4609 1.7188 11.5 7.6797 11.262 3.0391-0.16016 5.6797-1.9414 6.9414-4.7188 0.67969-1.5 1.3203-3 1.9609-4.5195 0.69922-1.6797 1.3789-3.3398 2.0391-5.0391 0.32031-0.83984 0.66016-1.6797 0.98047-2.5391 0.32031-0.83984 0.62109-1.6992 0.94141-2.5391 0.5-1.4219 1-2.8398 1.4805-4.2617l0.55859-1.6992 0.55859-1.7188 0.53906-1.7188c0.26172-0.85938 0.51953-1.7188 0.78125-2.5781 0.46094-1.5586 0.89844-3.1211 1.3203-4.6797 1.3398-5.1016-2.4414-10.039-7.6992-10.078-3.6406 0-6.8008 2.3984-7.7617 5.9219-2.3594 8.7188-5.3008 17.18-8.8203 25.5-0.5 1.1406-0.98047 2.2812-1.5 3.4219zm17.461-74.559c-0.28125 6.0586 5.9805 10.199 11.461 7.6016 2.6602-1.3008 4.3789-3.8594 4.5195-6.8203 0.21875-4.4609 0.33984-8.8984 0.33984-13.379v-1.8594l-0.019531-1.8594-0.039063-1.8398-0.058593-1.8398-0.078126-1.8398-0.10156-1.8398-0.12109-1.8398-0.14062-1.8398-0.16016-1.8203-0.17969-1.8203-0.16016-1.4805c-0.66016-5.6797-6.8398-8.8203-11.84-6.0781-2.8398 1.6016-4.4219 4.6602-4.0586 7.8984l0.14062 1.3203 0.16016 1.6602 0.28125 3.3203 0.12109 1.6602 0.10156 1.6797 0.078125 1.6797 0.058594 1.6797 0.039062 1.6797 0.019532 1.6797v1.6797c0 4.1992-0.10156 8.3984-0.32031 12.602zm-12.039-74.84c2.2188 5.2812 9.0391 6.6211 13.078 2.5586 2.2617-2.3203 2.9219-5.6797 1.6992-8.6797l-0.57812-1.4219-0.71875-1.7188-0.73828-1.6992-1.5234-3.3984-0.78125-1.6992-0.80078-1.6797-0.82031-1.6797-0.83984-1.6797-0.85937-1.6797-0.85938-1.6602-0.87891-1.6602-0.89844-1.6602-0.92188-1.6602-1.8828-3.2812-0.96094-1.6406-0.85938-1.4414c-3.1016-5.0781-10.379-5.1602-13.602-0.14062-1.6406 2.6016-1.6602 5.8008-0.078125 8.4414l0.80078 1.3203 0.89844 1.5195 0.87891 1.5195 0.85938 1.5195 1.6797 3.0781 0.82031 1.5391 0.80078 1.5391 1.5625 3.0781 0.76172 1.5586 0.73828 1.5586 0.71875 1.5586 1.3984 3.1172 0.67969 1.5586 0.66016 1.5781 0.57812 1.4219zm-41.699-64.461c4.0195 4.3203 11.121 3 13.32-2.5 1.1211-2.8789 0.51953-6.0781-1.5586-8.3789l-1.0586-1.1602-1.3789-1.4805-1.3984-1.4805-1.3984-1.4609-1.4219-1.4609-2.8828-2.9219-1.4609-1.4414-2.9609-2.8828-1.5-1.4219-3.0391-2.8438-1.5391-1.3984-1.5586-1.3984-1.8398-1.6211c-4.5781-3.9805-11.719-1.6406-13.059 4.2812-0.64062 2.8984 0.32031 5.8203 2.5391 7.7812l1.6797 1.5 1.4805 1.3398 2.9219 2.6797 1.4414 1.3398 2.8438 2.7188 1.3984 1.3594 1.3789 1.3594 1.3789 1.3789 1.3594 1.3789 2.6797 2.7578 1.3203 1.3984 1.3008 1.3984 1.0586 1.1602zm-59.5-50.301c2.8398 1.8789 6.4805 1.7812 9.1992-0.23828 4.4414-3.3398 4.2617-10-0.33984-13.078l-0.42188-0.28125-1.8594-1.2383-1.8789-1.2188-3.7969-2.4375-3.8438-2.3984-1.9414-1.1992-1.9414-1.1797-1.9609-1.1797-1.9805-1.1797-1.9805-1.1602-2-1.1602-2-1.1406-2.2188-1.2617c-2.9805-1.6406-6.6406-1.2617-9.1992 1-4.1211 3.6797-3.3984 10.301 1.4219 12.98l2.0781 1.1797 1.9414 1.1016 3.8438 2.2422 1.8984 1.1211 3.7578 2.2812 1.8594 1.1406 1.8594 1.1602 3.6797 2.3203 1.8203 1.1797 3.6016 2.3594 0.42187 0.28125zm-69.02-37.379c5.1602 2.2383 10.941-1.3789 11.18-7 0.14062-3.3203-1.7617-6.3398-4.8008-7.6602l-0.96094-0.42188-2.2383-0.98047-4.5234-1.9219-4.5625-1.8828-2.3008-0.94141-2.3008-0.92187-2.3203-0.92188-2.3203-0.89844-4.6797-1.7969-2.3594-0.87891-1.5586-0.57812c-5.3008-1.9219-10.82 2-10.762 7.6406 0.058593 3.3203 2.1211 6.2188 5.2383 7.3789l1.5 0.55859 4.5625 1.7188 4.5234 1.7578 2.2383 0.87891 2.2383 0.89844 2.2188 0.89844 2.2188 0.92187 4.3984 1.8438 4.3594 1.8828 0.96094 0.42188zm-74.301-26.32c5.8594 1.6016 11.281-3.5586 9.9414-9.5-0.67969-2.8789-2.8203-5.1211-5.6602-5.9219l-1.0391-0.30078-2.5391-0.69922-5.0781-1.3594-2.5586-0.67969-2.5586-0.66016-2.5781-0.66016-5.1562-1.2812-5.2031-1.2422-2.6211-0.60156-2.0586-0.46094c-5.3789-1.1992-10.301 3.1992-9.7188 8.6797 0.39844 3.4219 2.8398 6.1602 6.1992 6.9219l2 0.46094 7.6172 1.8047 5.0391 1.2422 5 1.2812 2.5 0.66016 2.4805 0.66016 2.4805 0.67969 2.4609 0.67969 1.0391 0.30078zm-77.238-16.559c6 0.89844 10.762-4.8984 8.7188-10.621-1.0195-2.7812-3.3984-4.7383-6.3203-5.1992l-1.2188-0.17969-2.7617-0.42188-5.5234-0.79688-5.5625-0.75781-5.5625-0.71875-5.6016-0.67969-2.8008-0.32031-3.0781-0.33984c-5.6016-0.55859-10 4.6211-8.5586 10.059 0.87891 3.1992 3.5781 5.5 6.8984 5.8594l2.9609 0.32031 5.4766 0.64062 2.7383 0.33984 2.7188 0.33984 5.4375 0.71875 5.3984 0.75781 2.6992 0.39844 2.6797 0.39844 1.2188 0.17969zm-78.719-7.6211c5.6211 0.21875 9.6797-5.1797 7.9414-10.52-1.0781-3.1797-3.9219-5.3203-7.2617-5.4609l-2.9609-0.12109-5.8438-0.20312-2.9219-0.078125-2.9414-0.078125-5.8828-0.11719-2.9414-0.039062-5.9023-0.039063h-5.9219l-5.9023 0.039063-2.9414 0.039062-5.8828 0.11719-2.9414 0.078125-2.9219 0.078125-5.8438 0.20312-2.9609 0.12109c-6.0586 0.28125-9.6211 6.8594-6.5391 12.102 1.5195 2.5391 4.2383 4 7.1992 3.8789l2.8984-0.12109 5.7188-0.20312 5.7188-0.15625 2.8789-0.058594 5.7578-0.078125 2.8789-0.019531 2.8984-0.019532h5.7969l2.8984 0.019532 2.8789 0.019531 5.7578 0.078125 2.8789 0.058594 5.7188 0.15625 5.7188 0.20312 2.8984 0.12109zm366.14 486.96c-4.9219-1.3789-9.8008 2.0586-10.18 7.1602-0.23828 3.8008 2.1406 7.1797 5.8008 8.2383l1.6016 0.46094 2.1602 0.62109 2.1406 0.64063 2.1172 0.64062 2.1016 0.66016c1.0391 0.33984 2.0781 0.67969 3.1016 1.0195l3.0586 1.0195 2.0195 0.69922c1.3203 0.48047 2.6602 0.94141 3.9805 1.4414 2.4219 0.89844 4.8398 1.8203 7.2383 2.7812 5.5195 2.1992 11.398-2.1211 10.961-8.0391-0.26172-3.0391-2.1602-5.6602-4.9805-6.8008l-1.5195-0.60156-2.0391-0.80078c-1.0195-0.39844-2.0586-0.78125-3.0781-1.1797l-2.0781-0.76172-2.1016-0.76172-1.0586-0.37891-2.1211-0.73828-2.1406-0.73828-2.1602-0.71875-1.0781-0.35938-1.1016-0.35938-1.1016-0.33984-2.2188-0.69922-4.4844-1.3594c-0.92188-0.26172-1.8594-0.53906-2.7812-0.80078zm75.121 32.859c-4.9219-3.0781-11.32-0.12109-12.18 5.6211-0.44141 3.1602 0.96094 6.1992 3.6602 7.9219 8.7812 5.5195 17.141 11.52 25.18 18.059 4.4609 3.6211 11.141 1.5391 12.762-4 0.85938-3.1016-0.14062-6.3594-2.6406-8.3984-8.5391-6.9609-17.441-13.359-26.781-19.219zm62.102 53.602c-3.6602-4.1602-10.219-3.5-13 1.3203-1.6797 2.9805-1.3008 6.6211 0.94141 9.1992 6.8984 7.8984 13.359 16.102 19.621 24.5 3.3984 4.5391 10.281 4.2188 13.238-0.62109 1.6992-2.8203 1.5391-6.3008-0.42188-8.9609-6.5195-8.7188-13.219-17.238-20.379-25.441zm-141.6-117.7c-5.4609 1.5586-7.6016 8.1406-4.1211 12.621 2.0195 2.5586 5.3398 3.6602 8.4805 2.7617l1.4805-0.42188 1.1406-0.32031 2.2617-0.66016 3.3633-1.0195 2.2031-0.67969 2.2031-0.71875 4.3125-1.4375 2.1211-0.73828 2.1172-0.75781 3.1172-1.1367 2.0586-0.78125 1.0195-0.39844 2.0391-0.80078 1.6602-0.66016c5.4219-2.1992 6.7383-9.2383 2.4805-13.262-2.3008-2.1211-5.5391-2.7383-8.4609-1.5781l-1.5391 0.62109c-2.6016 1.0195-5.1992 2-7.8203 2.9414-1 0.35938-2 0.71875-3 1.0586l-2.0195 0.69922c-1.3594 0.46094-2.7383 0.92188-4.1211 1.3594-1.0391 0.33984-2.0781 0.66016-3.1406 1-1.0586 0.32031-2.1211 0.66016-3.1797 0.98047l-2.1406 0.64062c-0.83984 0.23828-1.6797 0.48047-2.5 0.71875zm70.98-31.02c-5.0586 3.1992-4.9609 10.559 0.17969 13.641 2.6016 1.5391 5.7812 1.5 8.3594-0.10156 9.2812-5.8203 18.32-12.281 26.801-19.219 4.0781-3.3789 3.8594-9.6211-0.44141-12.699-2.9609-2.1016-6.9219-1.9609-9.7188 0.33984l0.019532-0.019531c-8.0391 6.5391-16.398 12.559-25.18 18.059zm58.559-50.578c-3.6016 4.1797-2.0781 10.578 3.0391 12.68 3.1992 1.2812 6.7617 0.42188 9.0391-2.1602 7.1602-8.1992 13.879-16.719 20.379-25.441 3.5195-4.7383 0.92188-11.48-4.8789-12.641-3.0391-0.57812-6.0781 0.57812-7.9414 3.0586-6.2617 8.3789-12.738 16.621-19.621 24.5zm-248.26 236.26c-0.019531-5.7383-5.8203-9.5781-11.121-7.3789-2.9805 1.2812-4.8789 4.1406-4.8789 7.3789v0.89844l-0.039062 1.7969-0.078126 1.7969-0.11719 1.7578-0.15625 1.7578-0.20312 1.7578-0.24219 1.7578-0.28125 1.7578-0.10156 0.57812c-0.98047 5.6406 4.0391 10.461 9.6602 9.1992 3.1406-0.71875 5.5195-3.2188 6.1016-6.3984l0.12109-0.73828 0.16016-1.0391 0.16016-1.0586 0.28125-2.1172 0.24219-2.1172 0.10156-1.0586 0.15625-2.1172 0.11719-2.1172 0.039063-1.0586 0.039063-2.1562v-1.0781zm-22.141 63.539c3.2383-4.3984 1.2383-10.621-3.9414-12.359-3.3203-1.0586-6.8398 0.058594-8.9219 2.8398l-0.37891 0.53906-1.2031 1.6016-1.2422 1.6016-1.2812 1.6016-1.9805 2.3438-1.3594 1.5625-2.0977 2.3438-0.71875 0.78125-0.71875 0.76172-1.4766 1.5234-2.2852 2.2852-1.5625 1.5234-2.4023 2.2148-0.82031 0.73828-0.96094 0.85938c-4.2812 3.7812-3.3594 10.66 1.7617 13.199 2.9219 1.4219 6.3594 0.96094 8.8008-1.1797l1.1211-1 0.89844-0.82031 2.6367-2.4609 0.85938-0.82031 0.85937-0.83984 2.5195-2.5195 1.6406-1.6797 1.6016-1.7188 2.3438-2.5781 1.5234-1.7578 1.4766-1.7578 1.4375-1.7578 0.71875-0.89844 1.3984-1.7969 1.3594-1.7969 0.37891-0.53906zm-63.5 53.121c5.1602-2.8789 5.5781-10.059 0.78125-13.52-2.5195-1.7812-5.7812-1.9805-8.5-0.48047l-1.1602 0.64062-1.1211 0.60156-3.4219 1.8047-2.3203 1.2031-1.1602 0.57812-3.5391 1.7344-1.1992 0.57812-2.3984 1.1172-3.6562 1.6758-1.2188 0.53906-3.7148 1.6172-1.2617 0.53906-1.8789 0.78125c-5.4219 2.2383-6.6797 9.3398-2.3398 13.32 2.3203 2.0781 5.5391 2.6602 8.4219 1.4805l0.67969-0.28125 3.9609-1.6758 1.3008-0.55859 3.9023-1.7344 1.2812-0.57812 2.5625-1.2031 3.7852-1.8047 3.7148-1.8633 1.2188-0.62109 2.4375-1.2812 3.5977-1.9219 1.2188-0.67969zm-76.199 29.719c5.8594-1.5391 7.9805-8.7188 3.8594-13.199-2.0391-2.1602-4.9805-3.0195-7.8594-2.3008l-1.1016 0.28125-1.4414 0.37891-5.8438 1.4375-5.9219 1.3594-6 1.2812-1.5 0.30078-4.5586 0.90234-1.5195 0.28125-1.5391 0.28125-1.2383 0.21875c-5.9219 1.0586-8.6016 8.0195-4.9219 12.781 1.8398 2.3594 4.7617 3.4805 7.7188 2.9609l1.3008-0.23828 6.3125-1.2031 1.5781-0.32031 4.6758-0.96094 3.1172-0.67969 1.5391-0.33984 4.6172-1.0781 1.5195-0.35937 4.5586-1.1367 1.5-0.37891 1.1016-0.28125zm-80.359 12.898c5.7383-0.39844 9.1797-6.4219 6.6406-11.578-1.4609-2.8789-4.4414-4.6016-7.6797-4.3984l-1.3594 0.10156-1.6406 0.10156-3.3203 0.20312-4.9805 0.23438-3.3203 0.11719-3.3594 0.11719-5.0391 0.11719-3.3594 0.039062-1.6992 0.019532h-6.7969l-1.6992-0.019532-3.3594-0.039062-5.0391-0.11719-3.3594-0.11719-3.3203-0.11719-4.9805-0.23438-3.3203-0.20312-1.6406-0.10156-1.3594-0.10156c-5.7617-0.35938-10 5.2617-8.0391 10.699 1.1016 3 3.8008 5.0391 7 5.2617l1.3594 0.10156 3.3984 0.20312 3.4375 0.20312 5.1562 0.23438 3.4375 0.11719 1.7383 0.058593 5.2148 0.11719 5.2148 0.058594h7.0469l5.2148-0.058594 5.2148-0.11719 1.7383-0.058593 3.4375-0.11719 5.1562-0.23438 3.4375-0.20312 3.3984-0.20312 1.3594-0.10156zm298.36-193.28c-1.6602-3.7617-5.8008-5.6406-9.7188-4.4219-4.5586 1.4609-6.8398 6.4609-4.9219 10.84 4.0391 9.2617 7.1992 18.738 9.3984 28.602 1.1797 5.1797 6.8594 7.8203 11.559 5.3398 3.1797-1.7188 4.8203-5.2617 4.0586-8.8008-2.4219-10.859-5.9219-21.379-10.379-31.559zm13.559 81.762c0.51953-5.6211-4.7617-10-10.18-8.4414-3.1797 0.94141-5.4219 3.6406-5.7383 6.9414l-0.019531 0.26172-0.28125 2.7188-0.16016 1.3594-0.35938 2.7188-0.19922 1.3398-0.4375 2.6797-0.47656 2.6797-0.26172 1.3398-0.5625 2.6797-0.60156 2.6406-0.32031 1.3203-0.67969 2.6406-0.35938 1.3203-0.75781 2.6406-0.42188 1.3594c-1.7188 5.5391 2.7617 10.98 8.5195 10.359 3.1797-0.37891 5.7617-2.5 6.7383-5.5391l0.5-1.6406 0.42188-1.4414 0.79688-2.9219 0.37891-1.4609 0.71875-2.9219 0.33984-1.4609 0.64062-2.9609 0.30078-1.4805 0.5625-2.9609 0.26172-1.4805 0.47656-3 0.21875-1.5 0.39844-3 0.17969-1.5 0.32031-3 0.019531-0.26172zm-27.781 78.219c2.8984-4.5391 0.64062-10.539-4.5391-12.02-3.4219-0.96094-6.9805 0.39844-8.8984 3.3789l-0.85938 1.3398-1.6016 2.3984-1.6406 2.3984-1.6797 2.3594-1.7188 2.3594-0.87891 1.1797-0.89844 1.1797-0.89844 1.1602-1.8438 2.3203-1.8828 2.3203-1.9219 2.2812-1.9609 2.2812-0.80078 0.92187c-3.8008 4.3008-1.9805 11.039 3.4414 12.879 3.0781 1.0195 6.3789 0.14062 8.5391-2.2812l0.87891-1 1.0586-1.2188 2.0781-2.4375 2.0391-2.4766 2-2.4766 1.9609-2.5234 1.9219-2.5234 0.94141-1.2812 1.8438-2.5625 0.89844-1.2812 0.89844-1.3008 1.7578-2.6016 0.85938-1.3008 0.94141-1.4414zm-56.199 60.16c4.3789-3.4219 4.0781-10.059-0.57812-13.078-2.8789-1.8203-6.5-1.6602-9.1992 0.42188l-0.62109 0.48047-1.3008 1-1.3008 0.98047-3.9609 2.9414-2.6797 1.9219-2.7188 1.9219-4.1367 2.8242-2.7969 1.8438-2.8438 1.8438-1.4414 0.89844-1.8008 1.1211c-4.9414 3.0586-5.1016 10.16-0.30078 13.441 2.6406 1.7617 5.9805 1.8398 8.6797 0.17969l1.9414-1.1992 3-1.9219 1.4805-0.96094 2.9609-1.9609 2.9219-1.9609 2.8828-2 1.4219-1 2.8438-2.0391 1.3984-1.0195 1.3984-1.0391 2.7578-2.0781 1.3594-1.0391 0.62109-0.48047zm-70.32 41.602c5.1406-2.3008 6.3594-9 2.3789-12.98-2.3789-2.3203-5.8594-2.9805-8.8984-1.6211l-1.6992 0.76172-1.6602 0.71875-3.3594 1.4375-1.6797 0.69922-3.3984 1.3984-1.6992 0.67969-3.4375 1.3594-1.7188 0.66016-3.4766 1.3203-1.7383 0.64062-3.5234 1.2812-1.7383 0.62109c-5.0781 1.8008-6.9609 7.9414-3.7812 12.301 2.1211 2.8398 5.7617 3.9609 9.1016 2.8008l1.8203-0.64062 3.6406-1.3203 1.8203-0.67969 3.6016-1.3594 1.8008-0.69922 3.5625-1.3984 1.7812-0.71875 1.7617-0.71875 3.5234-1.4766 1.7383-0.73828 3.4766-1.5234 1.7617-0.78125zm-77.238 25.738c5.7383-1.3398 8.1211-8.1797 4.4414-12.801-1.9609-2.4219-5.0195-3.4805-8.0391-2.8008l-0.98047 0.21875-3.8438 0.88281-3.8828 0.84375-3.8828 0.79687-1.9609 0.39844-3.9219 0.75781-1.9609 0.35938-3.9609 0.71875-3.9609 0.67969-2.5 0.42188c-5.7383 0.92188-8.6016 7.4219-5.4414 12.301 1.7383 2.6406 4.8203 4 7.9414 3.5l2.6406-0.44141 2.0586-0.33984 2.0586-0.35938 2.0391-0.35938 4.0781-0.75781 2.0391-0.39844 4.0391-0.79688 4.0391-0.84375 6-1.3242 1.9805-0.46094 0.98047-0.21875zm-80.398 11.699c5.9609-0.37891 9.4414-6.8789 6.4219-12.039-1.5391-2.6016-4.3594-4.1016-7.3789-3.9219l-1.7617 0.10156-4.2031 0.24219-2.1016 0.10156-2.1211 0.10156-4.2422 0.15625-4.2422 0.11719-2.1211 0.039063-4.2812 0.078125-4.2812 0.039062h-4.2812l-4.2812-0.039062-4.2812-0.078125-2.1211-0.039063-4.2422-0.11719-4.2422-0.15625-2.1211-0.10156-2.1016-0.10156-4.2031-0.24219-1.7617-0.10156c-5.8008-0.33984-10 5.3984-7.9609 10.84 1.1406 2.9609 3.8398 4.9414 7 5.1406l1.7617 0.10156 2.1602 0.12109 2.1797 0.12109 4.3594 0.20312 4.3594 0.15625 6.5977 0.17578 4.3984 0.078125 2.1992 0.019531 2.2188 0.019531h4.4375l2.2188-0.019531 2.1992-0.019531 4.3984-0.078125 6.5977-0.17578 4.3594-0.15625 4.3594-0.20312 2.1797-0.12109 2.1602-0.12109 1.7617-0.10156zm307.62-385.9c-4.8203-2.8398-10.941-0.058594-11.98 5.4414-0.57812 3.3008 0.89844 6.5781 3.7812 8.3203 0.94141 0.55859 1.8984 1.1406 2.8398 1.6992l1.8594 1.1406c3.2617 2.0391 6.4805 4.1016 9.6797 6.2617 4.8984 3.2812 11.52 0.35938 12.398-5.4805 0.44141-3.0586-0.87891-6.0586-3.4414-7.8008l-1.6016-1.0781-1.8789-1.2383c-0.94141-0.62109-1.8984-1.2383-2.8594-1.8398-0.96094-0.62109-1.9219-1.2188-2.8984-1.8203l-3.9219-2.3984-1.9805-1.1992zm53.559 40.602c-3.9805-3.8594-10.539-2.6602-12.879 2.3789-1.3984 3.1016-0.73828 6.6602 1.6797 9.0586 0.62109 0.62109 1.2383 1.2188 1.8594 1.8398 1.5391 1.5391 3.0586 3.1016 4.5586 4.6797 0.64062 0.67969 1.2617 1.3398 1.8984 2.0195 0.83984 0.89844 1.6602 1.8008 2.4805 2.7188 0.60156 0.67969 1.2188 1.3594 1.8203 2.0586l1.1797 1.3789c0.57812 0.67969 1.1797 1.3789 1.7617 2.0781l1.1406 1.3789 1.1406 1.3984c0.92188 1.1406 1.8203 2.3008 2.7188 3.4609 3.4805 4.4805 10.32 4.0586 13.219-0.82031 1.6602-2.8398 1.4414-6.3398-0.55859-8.9414l-1.1406-1.4805-1.1992-1.5-2.4375-3-1.2383-1.5-0.62109-0.73828-0.64062-0.73828-1.2812-1.4805-1.3008-1.4805-1.3203-1.4766-1.3203-1.4609-1.3398-1.4609-1.3594-1.4414-0.67969-0.71875-2.0977-2.1562-2.1406-2.1406c-0.66016-0.64062-1.3008-1.2812-1.9609-1.9219zm47.66 67.34c-2.4219-5.3789-9.5781-6.3984-13.422-1.8984-1.9805 2.3789-2.4609 5.6016-1.1992 8.4414 0.51953 1.1406 1 2.2812 1.5 3.4219 3.5195 8.3203 6.4609 16.781 8.8203 25.5 1.5 5.4805 8.0195 7.7188 12.559 4.3008 2.6016-2 3.7188-5.2812 2.8789-8.4414-0.42187-1.5586-0.85937-3.1211-1.3203-4.6797-0.26172-0.85938-0.51953-1.7188-0.78125-2.5781l-0.53906-1.7188-0.55859-1.7188-0.55859-1.6992c-0.48047-1.4219-0.98047-2.8398-1.4805-4.2617-0.30078-0.83984-0.62109-1.6992-0.94141-2.5391-0.32031-0.83984-0.64062-1.6797-0.98047-2.5391-0.66016-1.6797-1.3398-3.3594-2.0391-5.0391-0.64062-1.5195-1.3008-3.0195-1.9609-4.5195zm18.84 80.32c-0.16016-3.3789-2.3984-6.2383-5.6211-7.2383-5.3203-1.6406-10.621 2.4805-10.359 8.0391 0.21875 4.1992 0.32031 8.3789 0.32031 12.602v1.6797l-0.019531 1.6797-0.039062 1.6797-0.058594 1.6797-0.078125 1.6797-0.10156 1.6797-0.12109 1.6602-0.28125 3.3203-0.16016 1.6602-0.14062 1.3203c-0.53906 4.8008 3.2188 8.9805 8.0586 8.9219 4.0195-0.039063 7.3789-3.0781 7.8398-7.0781l0.16016-1.4805 0.17969-1.8203 0.16016-1.8203 0.14062-1.8398 0.12109-1.8398 0.10156-1.8398 0.078125-1.8398 0.058594-1.8398 0.039062-1.8398 0.019531-1.8594v-1.8594c0-4.4609-0.12109-8.9219-0.33984-13.379zm-13.238 81.762c2.1602-5.2617-1.6602-11.02-7.3398-11.059-3.2812 0-6.1602 1.9219-7.4414 4.9414l-0.57812 1.4219-0.66016 1.5781-0.67969 1.5586-1.3984 3.1172-0.71875 1.5586-0.73828 1.5586-0.76172 1.5586-1.5625 3.0781-0.80078 1.5391-0.82031 1.5391-1.6797 3.0781-0.85938 1.5195-0.87891 1.5195-0.89844 1.5195-0.80078 1.3203c-2.7812 4.6211-0.33984 10.539 4.8789 11.898 3.4414 0.85938 6.9609-0.57812 8.8203-3.6211l0.85937-1.4414 0.96094-1.6406 1.8828-3.2812 0.92188-1.6602 0.89844-1.6602 0.87891-1.6602 0.85938-1.6602 0.85938-1.6797 0.83984-1.6797 0.82031-1.6797 0.80078-1.6797 0.78125-1.6992 1.5234-3.3984 0.73828-1.6992 0.71875-1.7188 0.57812-1.4219zm-44.719 69.199c3.6406-3.9609 2.4609-10.262-2.3984-12.641-3.1992-1.5195-6.9414-0.82031-9.3594 1.7812l-1.0586 1.1602-1.3008 1.3984-1.3203 1.3984-2.6797 2.7578-1.3594 1.3789-1.3789 1.3789-1.3789 1.3594-1.3984 1.3594-2.8438 2.7188-1.4414 1.3398-2.9219 2.6797-1.4805 1.3398-1.6797 1.5c-4.1992 3.6992-3.4609 10.379 1.4414 13.059 2.9609 1.5781 6.5391 1.1992 9.0781-1l1.8398-1.6211 1.5586-1.3984 1.5391-1.3984 3.0391-2.8438 1.5-1.4219 2.9609-2.8828 1.4609-1.4414 2.8828-2.9219 1.4219-1.4609 1.3984-1.4609 1.3984-1.4805 1.3789-1.4805 1.0586-1.1602zm-62.379 52.762c4.8984-3.2812 4.7188-10.52-0.33984-13.539-2.6602-1.5586-5.9414-1.4805-8.5195 0.21875l-0.42188 0.28125-3.6016 2.3594-1.8203 1.1797-3.6797 2.3203-1.8594 1.1602-1.8594 1.1406-3.7578 2.2812-1.8984 1.1211-3.8438 2.2422-1.9414 1.1016-2.0781 1.1797c-3.0781 1.7188-4.6602 5.2188-3.9414 8.6797 1.1602 5.2617 7 7.9219 11.719 5.3008l2.2188-1.2617 2-1.1406 2-1.1602 1.9805-1.1602 1.9805-1.1797 1.9609-1.1797 1.9414-1.1797 1.9414-1.1992 3.8438-2.3984 3.7969-2.4375 1.8789-1.2188 1.8594-1.2383 0.42188-0.28125zm-71.48 38.738c4.6211-2.0195 6.2383-7.6992 3.3984-11.859-2.1797-3.1602-6.2617-4.3398-9.8008-2.8008l-0.96094 0.42188-4.3594 1.8828-4.3984 1.8438-2.2188 0.92188-2.2188 0.89844-2.2383 0.89844-2.2383 0.87891-4.5234 1.7578-4.5625 1.7188-1.5 0.55859c-5.3203 1.9609-6.9609 8.6406-3.1797 12.859 2.2188 2.4414 5.6016 3.2812 8.6992 2.1602l1.5586-0.57812 2.3594-0.87891 4.6797-1.7969 2.3203-0.89844 2.3203-0.92188 2.3008-0.92188 2.3008-0.94141 4.5625-1.8828 4.5234-1.9219 2.2383-0.98047 0.96094-0.42188zm-76.398 27.078c5.4609-1.5391 7.6406-8.0391 4.2188-12.559-2.0195-2.6016-5.3203-3.7188-8.5-2.8398l-1.0391 0.30078-2.4609 0.67969-2.4805 0.67969-2.4805 0.66016-2.5 0.66016-5 1.2812-5.0391 1.2422-7.6172 1.8047-2 0.46094c-5.6406 1.3008-8.0781 7.8594-4.6797 12.539 1.9219 2.5781 5.0781 3.7617 8.1992 3.0586l2.0586-0.46094 2.6211-0.60156 5.2031-1.2422 5.1562-1.2812 2.5781-0.66016 2.5586-0.66016 2.5586-0.67969 5.0781-1.3594 2.5391-0.69922 1.0391-0.30078zm-79.121 16.961c3.9805-0.62109 6.8398-4.0195 6.8008-8.0391-0.10156-4.8594-4.3984-8.5-9.1992-7.7812l-1.2188 0.17969-2.6797 0.39844-2.6992 0.39844-5.3984 0.75781-5.4375 0.71875-2.7188 0.33984-2.7383 0.33984-5.4766 0.64062-2.9609 0.32031c-5.4414 0.60156-8.6992 6.2617-6.4609 11.238 1.4414 3.1602 4.6602 5.0195 8.1211 4.6602l3.0781-0.33984 2.8008-0.32031 5.6016-0.67969 5.5625-0.71875 5.5625-0.75781 5.5234-0.79688 2.7617-0.42188 1.2188-0.17969zm4.8984-478.06c-4.4219 0-8-3.5781-8-8s3.5781-8 8-8h93.141c4.4219 0 8 3.5781 8 8s-3.5781 8-8 8zm-110.44 72.898 265.04-0.058593v-0.039063c13.34 0 21.602-3.3789 26.301-9.6797 5.1016-6.8398 6.9219-17.641 6.9219-31.66h0.039062l0.058594-41-0.058594-41h-0.039062c0-14.02-1.8203-24.82-6.9219-31.66-4.6992-6.3008-12.961-9.6797-26.301-9.6797v-0.039063l-265.04-0.058594v164.9zm265.04 15.879-272.34 0.058593c-0.23828 0.019531-0.46094 0.039063-0.69922 0.039063s-0.48047-0.019532-0.69922-0.039063l-272.34-0.058593v0.039062c-18.898 0-31.262-5.6406-39.102-16.18-7.4414-10-10.121-23.879-10.121-41.16h0.039063l-0.058594-41 0.058594-41h-0.039063c0-17.301 2.6602-31.16 10.121-41.16 7.8594-10.539 20.199-16.18 39.102-16.18v0.039063l272.56-0.058594c0.16016 0 0.32031-0.019531 0.48047-0.019531 0.16016 0 0.32031 0 0.48047 0.019531l272.56 0.058594v-0.039063c18.898 0 31.262 5.6406 39.102 16.18 7.4414 10 10.121 23.879 10.121 41.16h-0.039062l0.058593 41-0.058593 41h0.039062c0 17.301-2.6602 31.16-10.121 41.16-7.8594 10.539-20.199 16.18-39.102 16.18zm-281.04-180.76-265.04 0.058593v0.039063c-13.34 0-21.602 3.3789-26.301 9.6797-5.1016 6.8398-6.9219 17.641-6.9219 31.66h-0.039062l-0.058594 41 0.058594 41h0.039062c0 14.02 1.8203 24.82 6.9219 31.66 4.6992 6.3008 12.961 9.6797 26.301 9.6797v0.039063l265.04 0.058594v-164.9zm-210.28 92c-4.4219 0-8-3.5781-8-8s3.5781-8 8-8h38.559v-38.559c0-4.4219 3.5781-8 8-8s8 3.5781 8 8v38.559h38.559c4.4219 0 8 3.5781 8 8s-3.5781 8-8 8h-38.559v38.559c0 4.4219-3.5781 8-8 8s-8-3.5781-8-8v-38.559zm-55.66-140.52c0.019531 5.7383 5.8203 9.5781 11.121 7.3789 2.9805-1.2812 4.8789-4.1406 4.8789-7.3789v-0.89844l0.039063-1.7969 0.078124-1.7969 0.11719-1.7578 0.15625-1.7578 0.20312-1.7578 0.24219-1.7578 0.28125-1.7578 0.10156-0.57813c0.98047-5.6406-4.0391-10.461-9.6602-9.1992-3.1406 0.71875-5.5195 3.2188-6.1016 6.3984l-0.12109 0.73828-0.16016 1.0391-0.16016 1.0586-0.28125 2.1172-0.24219 2.1172-0.10156 1.0586-0.15625 2.1172-0.11719 2.1172-0.039062 1.0586-0.039062 2.1562v1.0781zm22.141-63.539c-3.2383 4.3984-1.2383 10.621 3.9414 12.359 3.3203 1.0586 6.8398-0.058594 8.9219-2.8398l0.37891-0.53906 1.2031-1.6016 1.2422-1.6016 1.2812-1.6016 1.9805-2.3438 1.3594-1.5625 2.0977-2.3438 0.71875-0.78125 0.71875-0.76172 1.4766-1.5234 2.2852-2.2852 1.5625-1.5234 2.4023-2.2148 0.82031-0.73828 0.96094-0.85938c4.2812-3.7812 3.3594-10.66-1.7617-13.199-2.9219-1.4219-6.3594-0.96094-8.8008 1.1797l-1.1211 1-0.89844 0.82031-2.6367 2.4609-0.85937 0.82031-0.85938 0.83984-2.5195 2.5195-1.6406 1.6797-1.6016 1.7188-2.3438 2.5781-1.5234 1.7578-1.4766 1.7578-1.4375 1.7578-0.71875 0.89844-1.3984 1.7969-1.3594 1.7969-0.37891 0.53906zm63.5-53.121c-5.1602 2.8789-5.5781 10.059-0.78125 13.52 2.5195 1.7812 5.7812 1.9805 8.5 0.48047l1.1602-0.64062 1.1211-0.60156 3.4219-1.8047 2.3203-1.2031 1.1602-0.57812 3.5391-1.7344 1.1992-0.57812 2.3984-1.1172 3.6562-1.6758 1.2188-0.53906 3.7148-1.6172 1.2617-0.53906 1.8789-0.78125c5.4219-2.2383 6.6797-9.3398 2.3398-13.32-2.3203-2.0781-5.5391-2.6602-8.4219-1.4805l-0.67969 0.28125-3.9609 1.6758-1.3008 0.55859-3.9023 1.7344-1.2812 0.57812-2.5625 1.2031-3.7852 1.8047-3.7148 1.8633-1.2188 0.62109-2.4375 1.2812-3.5977 1.9219-1.2188 0.67969zm76.199-29.719c-5.8594 1.5391-7.9805 8.7188-3.8594 13.199 2.0391 2.1602 4.9805 3.0195 7.8594 2.3008l1.1016-0.28125 1.4414-0.37891 5.8438-1.4375 5.9219-1.3594 6-1.2812 1.5-0.30078 4.5586-0.90234 1.5195-0.28125 1.5391-0.28125 1.2383-0.21875c5.9219-1.0586 8.6016-8.0195 4.9219-12.781-1.8398-2.3594-4.7617-3.4805-7.7188-2.9609l-1.3008 0.23828-6.3125 1.2031-1.5781 0.32031-4.6758 0.96094-3.1172 0.67969-1.5391 0.33984-4.6172 1.0781-1.5195 0.35938-4.5586 1.1367-1.5 0.37891-1.1016 0.28125zm-222.6 168.78c1.9609 5.3789 8.6992 7.0781 12.941 3.1992 2.3789-2.1992 3.1992-5.5195 2.1211-8.5781-2.1016-5.9414-3.8398-11.922-5.2188-18.059-1.2188-5.4219-7.3789-7.9609-12.078-5.0195-2.8594 1.8398-4.2617 5.1797-3.5391 8.5 1.5195 6.7812 3.4414 13.422 5.7812 19.961zm-8.9609-70.16c-0.51953 5.6211 4.7617 10 10.18 8.4414 3.1797-0.94141 5.4219-3.6406 5.7383-6.9414l0.019531-0.26172 0.28125-2.7188 0.16016-1.3594 0.35938-2.7188 0.19922-1.3398 0.4375-2.6797 0.47656-2.6797 0.26172-1.3398 0.5625-2.6797 0.60156-2.6406 0.32031-1.3203 0.67969-2.6406 0.35938-1.3203 0.75781-2.6406 0.42188-1.3594c1.7188-5.5391-2.7617-10.98-8.5195-10.359-3.1797 0.37891-5.7617 2.5-6.7383 5.5391l-0.5 1.6406-0.42187 1.4414-0.79688 2.9219-0.37891 1.4609-0.71875 2.9219-0.33984 1.4609-0.64062 2.9609-0.30078 1.4805-0.5625 2.9609-0.26172 1.4805-0.47656 3-0.21875 1.5-0.39844 3-0.17969 1.5-0.32031 3-0.019532 0.26172zm27.781-78.219c-2.8984 4.5391-0.64062 10.539 4.5391 12.02 3.4219 0.96094 6.9805-0.39844 8.8984-3.3789l0.85938-1.3398 1.6016-2.3984 1.6406-2.3984 1.6797-2.3594 1.7188-2.3594 0.87891-1.1797 0.89844-1.1797 0.89844-1.1602 1.8438-2.3203 1.8828-2.3203 1.9219-2.2812 1.9609-2.2812 0.80078-0.92188c3.8008-4.3008 1.9805-11.039-3.4414-12.879-3.0781-1.0195-6.3789-0.14062-8.5391 2.2812l-0.87891 1-1.0586 1.2188-2.0781 2.4375-2.0391 2.4766-2 2.4766-1.9609 2.5234-1.9219 2.5234-0.94141 1.2812-1.8438 2.5625-0.89844 1.2812-0.89844 1.3008-1.7578 2.6016-0.85938 1.3008-0.94141 1.4414zm56.199-60.16c-4.3789 3.4219-4.0781 10.059 0.57812 13.078 2.8789 1.8203 6.5 1.6602 9.1992-0.42188l0.62109-0.48047 1.3008-1 1.3008-0.98047 3.9609-2.9414 2.6797-1.9219 2.7188-1.9219 4.1367-2.8242 2.7969-1.8438 2.8438-1.8438 1.4414-0.89844 1.8008-1.1211c4.9414-3.0586 5.1016-10.16 0.30078-13.441-2.6406-1.7617-5.9805-1.8398-8.6797-0.17969l-1.9414 1.1992-3 1.9219-1.4805 0.96094-2.9609 1.9609-2.9219 1.9609-2.8828 2-1.4219 1-2.8438 2.0391-1.3984 1.0195-1.3984 1.0391-2.7578 2.0781-1.3594 1.0391-0.62109 0.48047zm70.32-41.602c-5.1406 2.3008-6.3594 9-2.3789 12.98 2.3789 2.3203 5.8594 2.9805 8.8984 1.6211l1.6992-0.76172 1.6602-0.71875 3.3594-1.4375 1.6797-0.69922 3.3984-1.3984 1.6992-0.67969 3.4375-1.3594 1.7188-0.66016 3.4766-1.3203 1.7383-0.64062 3.5234-1.2812 1.7383-0.62109c5.0781-1.8008 6.9609-7.9414 3.7812-12.301-2.1211-2.8398-5.7617-3.9609-9.1016-2.8008l-1.8203 0.64062-3.6406 1.3203-1.8203 0.67969-3.6016 1.3594-1.8008 0.69922-3.5625 1.3984-1.7812 0.71875-1.7617 0.71875-3.5234 1.4766-1.7383 0.73828-3.4766 1.5234-1.7617 0.78125zm77.238-25.738c-5.7383 1.3398-8.1211 8.1797-4.4414 12.801 1.9609 2.4219 5.0195 3.4805 8.0391 2.8008l0.98047-0.21875 3.8438-0.88281 3.8828-0.84375 3.8828-0.79688 1.9609-0.39844 3.9219-0.75781 1.9609-0.35938 3.9609-0.71875 3.9609-0.67969 2.5-0.42188c5.7383-0.92187 8.6016-7.4219 5.4414-12.301-1.7383-2.6406-4.8203-4-7.9414-3.5l-2.6406 0.44141-2.0586 0.33984-2.0586 0.35938-2.0391 0.35938-4.0781 0.75781-2.0391 0.39844-4.0391 0.79688-4.0391 0.84375-6 1.3242-1.9805 0.46094-0.98047 0.21875zm-227.22 374.18c4.8203 2.8398 10.941 0.058594 11.98-5.4414 0.57812-3.3008-0.89844-6.5781-3.7812-8.3203-0.94141-0.55859-1.8984-1.1406-2.8398-1.6992l-1.8594-1.1406c-3.2617-2.0391-6.4805-4.1016-9.6797-6.2617-4.8984-3.2812-11.52-0.35938-12.398 5.4805-0.44141 3.0586 0.87891 6.0586 3.4414 7.8008l1.6016 1.0781 1.8789 1.2383c0.94141 0.62109 1.8984 1.2383 2.8594 1.8398 0.96094 0.62109 1.9219 1.2188 2.8984 1.8203l3.9219 2.3984 1.9805 1.1992zm-53.559-40.602c3.9805 3.8594 10.539 2.6602 12.879-2.3789 1.3984-3.1016 0.73828-6.6602-1.6797-9.0586-0.62109-0.62109-1.2383-1.2188-1.8594-1.8398-1.5391-1.5391-3.0586-3.1016-4.5586-4.6797-0.64063-0.67969-1.2617-1.3398-1.8984-2.0195-0.83984-0.89844-1.6602-1.8008-2.4805-2.7188-0.60156-0.67969-1.2188-1.3594-1.8203-2.0586l-1.1797-1.3789c-0.57812-0.67969-1.1797-1.3789-1.7617-2.0781l-1.1406-1.3789-1.1406-1.3984c-0.92187-1.1406-1.8203-2.3008-2.7188-3.4609-3.4805-4.4805-10.32-4.0586-13.219 0.82031-1.6602 2.8398-1.4414 6.3398 0.55859 8.9414l1.1406 1.4805 1.1992 1.5 2.4375 3 1.2383 1.5 0.62109 0.73828 0.64062 0.73828 1.2812 1.4805 1.3008 1.4805 1.3203 1.4766 1.3203 1.4609 1.3398 1.4609 1.3594 1.4414 0.67969 0.71875 2.0977 2.1562 2.1406 2.1406c0.66016 0.64062 1.3008 1.2812 1.9609 1.9219zm-47.66-67.34c2.4219 5.3789 9.5781 6.3984 13.422 1.8984 1.9805-2.3789 2.4609-5.6016 1.1992-8.4414-0.51953-1.1406-1-2.2812-1.5-3.4219-3.5195-8.3203-6.4609-16.781-8.8203-25.5-1.5-5.4805-8.0195-7.7188-12.559-4.3008-2.6016 2-3.7188 5.2812-2.8789 8.4414 0.42188 1.5586 0.85938 3.1211 1.3203 4.6797 0.26172 0.85938 0.51953 1.7188 0.78125 2.5781l0.53906 1.7188 0.55859 1.7188 0.55859 1.6992c0.48047 1.4219 0.98047 2.8398 1.4805 4.2617 0.30078 0.83984 0.62109 1.6992 0.94141 2.5391s0.64062 1.6797 0.98047 2.5391c0.66016 1.6797 1.3398 3.3594 2.0391 5.0391 0.64062 1.5195 1.3008 3.0195 1.9609 4.5195zm-18.84-80.32c0.16016 3.3789 2.3984 6.2383 5.6211 7.2383 5.3203 1.6406 10.621-2.4805 10.359-8.0391-0.21875-4.1992-0.32031-8.3789-0.32031-12.602v-1.6797l0.019531-1.6797 0.039063-1.6797 0.058593-1.6797 0.078125-1.6797 0.10156-1.6797 0.12109-1.6602 0.28125-3.3203 0.16016-1.6602 0.14062-1.3203c0.53906-4.8008-3.2188-8.9805-8.0586-8.9219-4.0195 0.039063-7.3789 3.0781-7.8398 7.0781l-0.16016 1.4805-0.17969 1.8203-0.16016 1.8203-0.14062 1.8398-0.12109 1.8398-0.10156 1.8398-0.078125 1.8398-0.058594 1.8398-0.039062 1.8398-0.019532 1.8594v1.8594c0 4.4609 0.12109 8.9219 0.33984 13.379zm13.238-81.762c-2.1602 5.2617 1.6602 11.02 7.3398 11.059 3.2812 0 6.1602-1.9219 7.4414-4.9414l0.57812-1.4219 0.66016-1.5781 0.67969-1.5586 1.3984-3.1172 0.71875-1.5586 0.73828-1.5586 0.76172-1.5586 1.5625-3.0781 0.80078-1.5391 0.82031-1.5391 1.6797-3.0781 0.85938-1.5195 0.87891-1.5195 0.89844-1.5195 0.80078-1.3203c2.7812-4.6211 0.33984-10.539-4.8789-11.898-3.4414-0.85938-6.9609 0.57812-8.8203 3.6211l-0.85938 1.4414-0.96094 1.6406-1.8828 3.2812-0.92187 1.6602-0.89844 1.6602-0.87891 1.6602-0.85938 1.6602-0.85938 1.6797-0.83984 1.6797-0.82031 1.6797-0.80078 1.6797-0.78125 1.6992-1.5234 3.3984-0.73828 1.6992-0.71875 1.7188-0.57813 1.4219zm44.719-69.199c-3.6406 3.9609-2.4609 10.262 2.3984 12.641 3.1992 1.5195 6.9414 0.82031 9.3594-1.7812l1.0586-1.1602 1.3008-1.3984 1.3203-1.3984 2.6797-2.7578 1.3594-1.3789 1.3789-1.3789 1.3789-1.3594 1.3984-1.3594 2.8438-2.7188 1.4414-1.3398 2.9219-2.6797 1.4805-1.3398 1.6797-1.5c4.1992-3.6992 3.4609-10.379-1.4414-13.059-2.9609-1.5781-6.5391-1.1992-9.0781 1l-1.8398 1.6211-1.5586 1.3984-1.5391 1.3984-3.0391 2.8438-1.5 1.4219-2.9609 2.8828-1.4609 1.4414-2.8828 2.9219-1.4219 1.4609-1.3984 1.4609-1.3984 1.4805-1.3789 1.4805-1.0586 1.1602zm62.379-52.762c-4.8984 3.2812-4.7188 10.52 0.33984 13.539 2.6602 1.5586 5.9414 1.4805 8.5195-0.21875l0.42188-0.28125 3.6016-2.3594 1.8203-1.1797 3.6797-2.3203 1.8594-1.1602 1.8594-1.1406 3.7578-2.2812 1.8984-1.1211 3.8438-2.2422 1.9414-1.1016 2.0781-1.1797c3.0781-1.7188 4.6602-5.2188 3.9414-8.6797-1.1602-5.2617-7-7.9219-11.719-5.3008l-2.2188 1.2617-2 1.1406-2 1.1602-1.9805 1.1602-1.9805 1.1797-1.9609 1.1797-1.9414 1.1797-1.9414 1.1992-3.8438 2.3984-3.7969 2.4375-1.8789 1.2188-1.8594 1.2383-0.42188 0.28125zm71.48-38.738c-4.6211 2.0195-6.2383 7.6992-3.3984 11.859 2.1797 3.1602 6.2617 4.3398 9.8008 2.8008l0.96094-0.42187 4.3594-1.8828 4.3984-1.8438 2.2188-0.92188 2.2188-0.89844 2.2383-0.89844 2.2383-0.87891 4.5234-1.7578 4.5625-1.7188 1.5-0.55859c5.3203-1.9609 6.9609-8.6406 3.1797-12.859-2.2188-2.4414-5.6016-3.2812-8.6992-2.1602l-1.5586 0.57812-2.3594 0.87891-4.6797 1.7969-2.3203 0.89844-2.3203 0.92188-2.3008 0.92188-2.3008 0.94141-4.5625 1.8828-4.5234 1.9219-2.2383 0.98047-0.96094 0.42187zm76.398-27.078c-5.4609 1.5391-7.6406 8.0391-4.2188 12.559 2.0195 2.6016 5.3203 3.7188 8.5 2.8398l1.0391-0.30078 2.4609-0.67969 2.4805-0.67969 2.4805-0.66016 2.5-0.66016 5-1.2812 5.0391-1.2422 7.6172-1.8047 2-0.46094c5.6406-1.3008 8.0781-7.8594 4.6797-12.539-1.9219-2.5781-5.0781-3.7617-8.1992-3.0586l-2.0586 0.46094-2.6211 0.60156-5.2031 1.2422-5.1562 1.2812-2.5781 0.66016-2.5586 0.66016-2.5586 0.67969-5.0781 1.3594-2.5391 0.69922-1.0391 0.30078zm79.121-16.961c-3.9805 0.62109-6.8398 4.0195-6.8008 8.0391 0.10156 4.8594 4.3984 8.5 9.1992 7.7812l1.2188-0.17969 2.6797-0.39844 2.6992-0.39844 5.3984-0.75781 5.4375-0.71875 2.7188-0.33984 2.7383-0.33984 5.4766-0.64062 2.9609-0.32031c5.4414-0.60156 8.6992-6.2617 6.4609-11.238-1.4414-3.1602-4.6602-5.0195-8.1211-4.6602l-3.0781 0.33984-2.8008 0.32031-5.6016 0.67969-5.5625 0.71875-5.5625 0.75781-5.5234 0.79688-2.7617 0.42188-1.2188 0.17969zm-280.62 510.54c5.4219-1.5781 7.5781-8.0586 4.1602-12.559-2.0195-2.6211-5.3594-3.7188-8.5586-2.8203l-2.0195 0.57812-1.1211 0.32031-1.1016 0.32031c-1.1016 0.32031-2.1992 0.66016-3.2812 1l-2.1602 0.67969-1.0781 0.33984-2.1406 0.69922-2.1211 0.69922-2.1016 0.71875c-1.0391 0.35938-2.0781 0.71875-3.1211 1.1016l-2.0586 0.73828-2.0391 0.76172-1.0195 0.37891-2.0195 0.76172-2 0.78125-1.6992 0.67969c-5.4219 2.1992-6.7383 9.2383-2.4805 13.262 2.3008 2.1211 5.5391 2.7383 8.4609 1.5781 7.3398-2.9414 14.762-5.5391 22.32-7.8789 2.3984-0.73828 4.7812-1.4414 7.1797-2.1211zm-70.98 31.02c3.4805-2.1797 4.7188-6.6406 2.9219-10.32-2.1211-4.2617-7.3984-5.7383-11.441-3.2188-9.3398 5.8398-18.238 12.262-26.781 19.219-2.7383 2.2617-3.6797 6-2.3203 9.2812 2.1016 4.9414 8.2812 6.5 12.441 3.1211 8.0195-6.5391 16.422-12.559 25.18-18.059zm-58.559 50.578c3.4219-3.9609 2.2383-9.9805-2.3984-12.379-3.3008-1.6602-7.2188-0.89844-9.6602 1.8789-7.1602 8.1992-13.879 16.719-20.379 25.441-3.5195 4.7383-0.92188 11.48 4.8789 12.641 3.0391 0.57812 6.0781-0.57812 7.9414-3.0586 6.2617-8.3984 12.738-16.602 19.621-24.5zm125.16-112.82c5.6797 1.6016 11.059-3.2188 10.078-9.0391-0.53906-3.0586-2.6992-5.4805-5.6797-6.3398l-0.98047-0.28125c-3.1406-0.89844-6.2617-1.8398-9.3594-2.8398-1.0195-0.32031-2.0195-0.66016-3.0391-1-1-0.33984-2-0.67969-3-1.0195-3.5781-1.2383-7.1211-2.5391-10.66-3.8984-0.82031-0.32031-1.6406-0.64062-2.4609-0.98047-4.5781-1.8398-9.6797 0.83984-10.781 5.6602-0.85937 3.8398 1.1602 7.7188 4.8203 9.1992l1.6406 0.64062c1 0.39844 2 0.78125 3 1.1602l2.0195 0.76172c1.3594 0.5 2.7188 1 4.1016 1.5l2.0781 0.73828c1.3984 0.48047 2.8008 0.96094 4.1992 1.4414l2.1211 0.69922 2.1562 0.67969 2.1602 0.67969 2.1797 0.66016 3.3047 0.96094 2.0781 0.60156zm-75.121-32.859c5 3.1406 11.5 0 12.219-5.8594 0.33984-3.0781-1.0586-6.0195-3.6797-7.6797-8.7812-5.5-17.16-11.52-25.18-18.059-4.5781-3.7188-11.422-1.4219-12.84 4.3203-0.71875 3 0.32031 6.1211 2.7188 8.0781 8.5391 6.9609 17.461 13.359 26.781 19.219zm-62.102-53.602c3.6992 4.1992 10.422 3.4609 13.078-1.4805 1.5586-2.9609 1.1602-6.5-1.0195-9.0195-6.8984-7.8789-13.359-16.102-19.621-24.5-3.3984-4.5391-10.281-4.2188-13.238 0.62109-1.6992 2.8203-1.5391 6.3008 0.42187 8.9609 6.5 8.6992 13.238 17.262 20.379 25.441zm276.32 225.74c-0.019531-5.7383-5.8203-9.5781-11.121-7.3789-2.9805 1.2812-4.8789 4.1406-4.8789 7.3789v1.0781l0.039063 2.1562 0.039062 1.0586 0.11719 2.1172 0.15625 2.1172 0.10156 1.0586 0.24219 2.1172 0.28125 2.1172 0.16016 1.0586 0.16016 1.0391 0.12109 0.73828c0.62109 3.4609 3.3789 6.0781 6.8789 6.5391 5.3789 0.66016 9.8008-4.0195 8.8789-9.3398l-0.10156-0.57812-0.28125-1.7578-0.24219-1.7578-0.20312-1.7578-0.15625-1.7578-0.11719-1.7578-0.078125-1.7969-0.039063-1.7969v-0.89844zm19 54.039c-3.3203-4.4414-9.9805-4.3008-13.078 0.32031-1.8789 2.8398-1.7812 6.4609 0.21875 9.1992l0.37891 0.53906 1.3594 1.7969 1.3984 1.7969 0.71875 0.89844 1.4375 1.7578 1.4766 1.7578 1.5234 1.7578 2.3438 2.5781 1.6016 1.7188 1.6406 1.6797 2.5195 2.5195 0.85938 0.83984 0.85938 0.82031 2.6367 2.4609 0.89844 0.82031 1.1211 1c4.1406 3.6211 10.578 2.1211 12.68-2.9805 1.2812-3.1797 0.46094-6.7812-2.1211-9.0391l-0.96094-0.85938-0.82031-0.73828-2.4023-2.2148-1.5625-1.5234-2.2852-2.2852-1.4766-1.5234-0.71875-0.76172-0.71875-0.78125-2.0977-2.3438-1.3594-1.5625-1.9805-2.3438-1.2812-1.6016-1.2422-1.6016-1.2031-1.6016-0.37891-0.53906zm58.359 48.641c-5.0195-2.7383-11.16 0.44141-11.82 6.1211-0.33984 3.2383 1.2383 6.3008 4.1016 7.8789l1.2188 0.67969 3.5977 1.9219 2.4375 1.2812 1.2188 0.62109 3.7148 1.8633 3.7852 1.8047 2.5625 1.2031 1.2812 0.57812 3.9023 1.7344 1.3008 0.55859 3.9609 1.6758 0.67969 0.28125c4.5195 1.8398 9.5781-0.69922 10.801-5.4219 0.98047-3.8789-1.0195-7.8398-4.6992-9.3789l-1.8789-0.78125-1.2617-0.53906-3.7148-1.6172-1.2188-0.53906-3.6562-1.6758-2.3984-1.1172-1.1992-0.57812-3.5391-1.7344-1.1602-0.57812-2.3203-1.2031-3.4219-1.8047-1.1211-0.60156-1.1602-0.64062zm72.48 28.238c-5.5781-1.4219-10.762 3.2617-9.9219 8.9609 0.5 3.1797 2.8008 5.6992 5.8984 6.5195l1.1016 0.28125 1.5 0.37891 4.5586 1.1367 1.5195 0.35938 4.6172 1.0781 1.5391 0.33984 3.1172 0.67969 4.6758 0.96094 1.5781 0.32031 6.3125 1.2031 1.3008 0.23828c5.4609 0.94141 10.199-3.7383 9.2812-9.2188-0.57812-3.3398-3.1406-5.9219-6.4805-6.5391l-1.2383-0.21875-1.5391-0.28125-1.5195-0.28125-4.5586-0.90234-1.5-0.30078-6-1.2812-5.9219-1.3594-5.8438-1.4375-1.4414-0.37891-1.1016-0.28125zm-207.34-158.46c2.2812-5.2617-1.4805-11.121-7.2188-11.219-3.2383-0.019531-6.1211 1.8203-7.4414 4.7812-4.4609 10.18-7.9609 20.719-10.379 31.559-1 4.6016 2.0781 9 6.7383 9.6602 4.1406 0.53906 7.9609-2.1211 8.8789-6.1992 2.1992-9.8594 5.3594-19.34 9.3984-28.602zm-12.281 73.82c-0.55859-5.8203-6.9414-9.1016-12.02-6.1406-2.6797 1.6016-4.1992 4.5391-3.9219 7.6602l0.019531 0.26172 0.32031 3 0.17969 1.5 0.39844 3 0.21875 1.5 0.47656 3 0.26172 1.4805 0.5625 2.9609 0.30078 1.4805 0.64062 2.9609 0.33984 1.4609 0.71875 2.9219 0.37891 1.4609 0.79688 2.9219 0.42188 1.4414 0.5 1.6406c1.8594 5.7812 9.1406 7.5 13.379 3.1602 2.0391-2.1406 2.7617-5.1406 1.8789-7.9609l-0.42188-1.3594-0.75781-2.6406-0.35938-1.3203-0.67969-2.6406-0.32031-1.3203-0.60156-2.6406-0.5625-2.6797-0.26172-1.3398-0.47656-2.6797-0.4375-2.6797-0.19922-1.3398-0.35938-2.7188-0.16016-1.3594-0.28125-2.7188-0.019532-0.26172zm25.32 71.078c-2.9414-4.5195-9.3203-4.9414-12.84-0.83984-2.2812 2.7188-2.5391 6.5195-0.62109 9.5l0.94141 1.4414 0.85938 1.3008 1.7578 2.6016 0.89844 1.3008 0.89844 1.2812 1.8438 2.5625 0.94141 1.2812 1.9219 2.5234 1.9609 2.5234 2 2.4766 2.0391 2.4766 2.0781 2.4375 1.0586 1.2188 0.87891 1c3.7383 4.1992 10.48 3.3789 13.102-1.6211 1.5195-2.9609 1.0781-6.4805-1.1211-8.9805l-0.80078-0.92188-1.9609-2.2812-1.9219-2.2812-1.8828-2.3203-1.8438-2.3203-0.89844-1.1602-0.89844-1.1797-0.87891-1.1797-1.7188-2.3594-1.6797-2.3594-1.6406-2.3984-1.6016-2.3984-0.85938-1.3398zm52.52 56.16c-4.6406-3.5586-11.34-1.1602-12.68 4.5195-0.69922 3.0781 0.42187 6.1992 2.8984 8.1406l0.62109 0.48047 1.3594 1.0391 2.7578 2.0781 1.3984 1.0391 1.3984 1.0195 2.8438 2.0391 1.4219 1 2.8828 2 2.9219 1.9609 2.9609 1.9609 1.4805 0.96094 3 1.9219 1.9414 1.1992c5.1406 3.1406 11.762-0.26172 12.18-6.2812 0.17969-2.9805-1.2383-5.7812-3.8008-7.3398l-1.8008-1.1211-1.4414-0.89844-2.8438-1.8438-2.7969-1.8438-4.1367-2.8242-2.7188-1.9219-2.6797-1.9219-3.9609-2.9414-1.3008-0.98047-1.3008-1-0.62109-0.48047zm67.059 39.66c-3.2383-1.4414-6.9805-0.60156-9.3008 2.0586-3.5195 4.0781-2.1211 10.34 2.7812 12.559l1.7617 0.78125 3.4766 1.5234 1.7383 0.73828 3.5234 1.4766 1.7617 0.71875 1.7812 0.71875 3.5625 1.3984 1.8008 0.69922 3.6016 1.3594 1.8203 0.67969 3.6406 1.3203 1.8203 0.64062c5.3984 1.8789 10.98-2.3008 10.641-8.0195-0.21875-3.2383-2.2812-5.9805-5.3203-7.0586l-1.7383-0.62109-3.5234-1.2812-1.7383-0.64062-3.4766-1.3203-1.7188-0.66016-3.4375-1.3594-1.6992-0.67969-3.3984-1.3984-1.6797-0.69922-3.3594-1.4375-1.6602-0.71875-1.6992-0.76172zm74.32 24.762c-5.2383-1.1797-10.141 2.9609-9.7812 8.3398 0.26172 3.5195 2.7383 6.4414 6.1797 7.2383l0.98047 0.21875 1.9805 0.46094 6 1.3242 4.0391 0.84375 4.0391 0.79688 2.0391 0.39844 4.0781 0.75781 2.0391 0.35938 2.0586 0.35938 2.0586 0.33984 2.6406 0.44141c5.8984 0.92188 10.699-4.6797 8.8594-10.379-0.94141-2.8594-3.3594-4.9414-6.3594-5.4219l-2.5-0.42188-3.9609-0.67969-3.9609-0.71875-1.9609-0.35938-3.9219-0.75781-1.9609-0.39844-3.8828-0.79688-3.8828-0.84375-3.8438-0.88281-0.98047-0.21875zm-222.62-344.86c5.0195-3 5.2188-10.18 0.39844-13.48-2.6016-1.7383-5.8984-1.8398-8.6016-0.26172l-1.9805 1.1992-3.9219 2.3984c-0.96094 0.60156-1.9219 1.2188-2.8984 1.8203-0.96094 0.62109-1.8984 1.2188-2.8594 1.8398l-1.8789 1.2383-1.6016 1.0781c-4.8789 3.3008-4.6406 10.539 0.44141 13.539 2.6797 1.5391 5.9414 1.4414 8.5195-0.28125 3.1992-2.1406 6.4219-4.2188 9.6797-6.2617l1.8594-1.1406c0.94141-0.57812 1.8789-1.1406 2.8398-1.6992zm-50.559 38.301c4.0586-4 2.8008-10.762-2.4219-13.059-3-1.2812-6.4414-0.66016-8.7812 1.6211-0.66016 0.64062-1.3008 1.2812-1.9609 1.9219l-2.1406 2.1406-2.0977 2.1562-0.67969 0.71875-1.3594 1.4414-1.3398 1.4609-1.3203 1.4609-1.3203 1.4766-1.3008 1.4805-1.2812 1.4805-0.64063 0.73828-0.62109 0.73828-1.2383 1.5-2.4375 3-1.1992 1.5-1.1406 1.4805c-3.5195 4.5781-1.1992 11.219 4.3984 12.641 3.1211 0.76172 6.3008-0.35938 8.2812-2.8789 0.89844-1.1602 1.8008-2.3203 2.7188-3.4609l1.1406-1.3984 1.1406-1.3789c0.57812-0.69922 1.1602-1.3789 1.7617-2.0781l1.1797-1.3789c0.60156-0.67969 1.1992-1.3789 1.8203-2.0586 0.82031-0.92188 1.6406-1.8203 2.4805-2.7188 0.64062-0.67969 1.2617-1.3594 1.8984-2.0195 1.5-1.5781 3.0195-3.1406 4.5586-4.6797 0.62109-0.62109 1.2383-1.2188 1.8594-1.8398zm-44.262 62.441c2.4219-5.4609-1.7188-11.5-7.6797-11.262-3.0391 0.16016-5.6797 1.9414-6.9414 4.7188-0.67969 1.5-1.3203 3-1.9609 4.5195-0.69922 1.6797-1.3789 3.3398-2.0391 5.0391-0.32031 0.83984-0.66016 1.6797-0.98047 2.5391-0.32031 0.83984-0.62109 1.6992-0.94141 2.5391-0.5 1.4219-1 2.8398-1.4805 4.2617l-0.55859 1.6992-0.55859 1.7188-0.53906 1.7188c-0.26172 0.85938-0.51953 1.7188-0.78125 2.5781-0.46094 1.5586-0.89844 3.1211-1.3203 4.6797-1.3398 5.1016 2.4414 10.039 7.6992 10.078 3.6406 0 6.8008-2.3984 7.7617-5.9219 2.3594-8.7188 5.3008-17.18 8.8203-25.5 0.5-1.1406 0.98047-2.2812 1.5-3.4219zm-17.461 74.559c0.28125-6.0586-5.9805-10.199-11.461-7.6016-2.6602 1.3008-4.3789 3.8594-4.5195 6.8203-0.21875 4.4609-0.33984 8.8984-0.33984 13.379v1.8594l0.019531 1.8594 0.039063 1.8398 0.058593 1.8398 0.078126 1.8398 0.10156 1.8398 0.12109 1.8398 0.14062 1.8398 0.16016 1.8203 0.17969 1.8203 0.16016 1.4805c0.66016 5.6797 6.8398 8.8203 11.84 6.0781 2.8398-1.6016 4.4219-4.6602 4.0586-7.8984l-0.14062-1.3203-0.16016-1.6602-0.28125-3.3203-0.12109-1.6602-0.10156-1.6797-0.078125-1.6797-0.058594-1.6797-0.039062-1.6797-0.019532-1.6797v-1.6797c0-4.1992 0.10156-8.3984 0.32031-12.602zm12.039 74.84c-2.2188-5.2812-9.0391-6.6211-13.078-2.5586-2.2617 2.3203-2.9219 5.6797-1.6992 8.6797l0.57812 1.4219 0.71875 1.7188 0.73828 1.6992 1.5234 3.3984 0.78125 1.6992 0.80078 1.6797 0.82031 1.6797 0.83984 1.6797 0.85937 1.6797 0.85938 1.6602 0.87891 1.6602 0.89844 1.6602 0.92188 1.6602 1.8828 3.2812 0.96094 1.6406 0.85938 1.4414c3.1016 5.0781 10.379 5.1602 13.602 0.14062 1.6406-2.6016 1.6602-5.8008 0.078125-8.4414l-0.80078-1.3203-0.89844-1.5195-0.87891-1.5195-0.85938-1.5195-1.6797-3.0781-0.82031-1.5391-0.80078-1.5391-1.5625-3.0781-0.76172-1.5586-0.73828-1.5586-0.71875-1.5586-1.3984-3.1172-0.67969-1.5586-0.66016-1.5781-0.57812-1.4219zm41.699 64.461c-4.0195-4.3203-11.121-3-13.32 2.5-1.1211 2.8789-0.51953 6.0781 1.5586 8.3789l1.0586 1.1602 1.3789 1.4805 1.3984 1.4805 1.3984 1.4609 1.4219 1.4609 2.8828 2.9219 1.4609 1.4414 2.9609 2.8828 1.5 1.4219 3.0391 2.8438 1.5391 1.3984 1.5586 1.3984 1.8398 1.6211c4.5781 3.9805 11.719 1.6406 13.059-4.2812 0.64062-2.8984-0.32031-5.8203-2.5391-7.7812l-1.6797-1.5-1.4805-1.3398-2.9219-2.6797-1.4414-1.3398-2.8438-2.7188-1.3984-1.3594-1.3789-1.3594-1.3789-1.3789-1.3594-1.3789-2.6797-2.7578-1.3203-1.3984-1.3008-1.3984-1.0586-1.1602zm59.5 50.301c-2.8398-1.8789-6.4805-1.7812-9.1992 0.23828-4.4414 3.3398-4.2617 10 0.33984 13.078l0.42188 0.28125 1.8594 1.2383 1.8789 1.2188 3.7969 2.4375 3.8438 2.3984 1.9414 1.1992 1.9414 1.1797 1.9609 1.1797 1.9805 1.1797 1.9805 1.1602 2 1.1602 2 1.1406 2.2188 1.2617c2.9805 1.6406 6.6406 1.2617 9.1992-1 4.1211-3.6797 3.3984-10.301-1.4219-12.98l-2.0781-1.1797-1.9414-1.1016-3.8438-2.2422-1.8984-1.1211-3.7578-2.2812-1.8594-1.1406-1.8594-1.1602-3.6797-2.3203-1.8203-1.1797-3.6016-2.3594-0.42187-0.28125zm69.02 37.379c-5.1602-2.2383-10.941 1.3789-11.18 7-0.14062 3.3203 1.7617 6.3398 4.8008 7.6602l0.96094 0.42188 2.2383 0.98047 4.5234 1.9219 4.5625 1.8828 2.3008 0.94141 2.3008 0.92188 2.3203 0.92187 2.3203 0.89844 4.6797 1.7969 2.3594 0.87891 1.5586 0.57812c5.3008 1.9219 10.82-2 10.762-7.6406-0.058593-3.3203-2.1211-6.2188-5.2383-7.3789l-1.5-0.55859-4.5625-1.7188-4.5234-1.7578-2.2383-0.87891-2.2383-0.89844-2.2188-0.89844-2.2188-0.92188-4.3984-1.8438-4.3594-1.8828-0.96094-0.42188zm74.301 26.32c-5.8594-1.6016-11.281 3.5586-9.9414 9.5 0.67969 2.8789 2.8203 5.1211 5.6602 5.9219l1.0391 0.30078 2.5391 0.69922 5.0781 1.3594 2.5586 0.67969 2.5586 0.66016 2.5781 0.66016 5.1562 1.2812 5.2031 1.2422 2.6211 0.60156 2.0586 0.46094c5.3789 1.1992 10.301-3.1992 9.7188-8.6797-0.39844-3.4219-2.8398-6.1602-6.1992-6.9219l-2-0.46094-7.6172-1.8047-5.0391-1.2422-5-1.2812-2.5-0.66016-2.4805-0.66016-2.4805-0.67969-2.4609-0.67969-1.0391-0.30078zm77.238 16.559c-6-0.89844-10.762 4.8984-8.7188 10.621 1.0195 2.7812 3.3984 4.7383 6.3203 5.1992l1.2188 0.17969 2.7617 0.42188 5.5234 0.79688 5.5625 0.75781 5.5625 0.71875 5.6016 0.67969 2.8008 0.32031 3.0781 0.33984c5.6016 0.55859 10-4.6211 8.5586-10.059-0.87891-3.1992-3.5781-5.5-6.8984-5.8594l-2.9609-0.32031-5.4766-0.64062-2.7383-0.33984-2.7188-0.33984-5.4375-0.71875-5.3984-0.75781-2.6992-0.39844-2.6797-0.39844-1.2188-0.17969z"/>
</svg>
