<?xml version="1.0" encoding="UTF-8"?>
<svg width="1200pt" height="1200pt" version="1.1" viewBox="0 0 1200 1200" xmlns="http://www.w3.org/2000/svg">
 <path d="m873.07 164.06c-7.6406-7.6328-17.996-11.918-28.789-11.918-10.793 0-21.156 4.2852-28.789 11.918-7.6328 7.6328-11.918 17.984-11.93 28.781v122.14l-284.99-0.003906c-14.551 0-27.988 7.7617-35.266 20.363-7.2695 12.594-7.2695 28.117 0 40.707 7.2773 12.602 20.711 20.363 35.266 20.363h325.71c10.793 0 21.156-4.293 28.789-11.93 7.6328-7.6328 11.93-17.996 11.93-28.789v-64.574l186.72 186.72-186.72 186.72v-64.574c0-10.793-4.293-21.156-11.93-28.789-7.6328-7.6328-17.996-11.93-28.789-11.93l-447.86 0.003907v-122.14c-0.007812-10.793-4.293-21.148-11.93-28.781-7.6328-7.6328-17.996-11.918-28.789-11.918s-21.148 4.2852-28.789 11.918l-285.01 285.01 0.007813-0.007813c-7.6328 7.6406-11.918 17.996-11.918 28.789s4.2852 21.148 11.918 28.789l285.01 285.01-0.007813-0.007812c7.6328 7.6328 17.996 11.93 28.789 11.93 5.3516 0.015625 10.648-1.0312 15.59-3.0938 7.4375-3.0859 13.793-8.2969 18.266-14.996 4.4727-6.6953 6.8594-14.57 6.8594-22.621v-122.15h285.01-0.007812c14.551 0 27.988-7.7617 35.266-20.363 7.2656-12.594 7.2656-28.117 0-40.707-7.2773-12.602-20.711-20.363-35.266-20.363h-325.71c-10.793 0-21.156 4.293-28.789 11.93-7.6328 7.6328-11.93 17.996-11.93 28.789v64.574l-186.71-186.72 186.72-186.72v64.574c0 10.793 4.293 21.156 11.93 28.789 7.6328 7.6328 17.996 11.93 28.789 11.93h447.86v122.14c0.007813 10.797 4.293 21.148 11.93 28.781 7.6328 7.6328 17.996 11.918 28.789 11.918s21.148-4.2852 28.789-11.918l285.01-285.01-0.007812 0.007813c7.625-7.6445 11.91-17.996 11.91-28.789 0-10.793-4.2852-21.148-11.918-28.789z"/>
</svg>
