<?xml version="1.0" encoding="UTF-8"?>
<svg width="1200pt" height="1200pt" version="1.1" viewBox="0 0 1200 1200" xmlns="http://www.w3.org/2000/svg">
 <path d="m1133.3 566.68h-105.98c-13.688-38.672-50.344-66.656-93.984-66.656h-200.02c-27 0-52.312 10.688-70.312 29.016-11.016 10.688-18.656 23.672-23.672 37.688l-572.72-0.046875c-18.328 0-33.328 15-33.328 33.328s15 33.328 33.328 33.328h572.68c13.688 38.672 50.344 66.656 93.984 66.656h200.02c27 0 52.312-10.688 70.312-29.016 11.016-10.688 18.656-23.672 23.672-37.688h105.98c18.328 0 33.328-15 33.328-33.328s-15-33.328-33.328-33.328zm-177 57c-6 6.3281-14.344 9.6562-23.016 9.6562h-200.02c-18.328 0-33.328-15-33.328-33.328 0-9 3.3281-17.016 10.312-23.672 6-6.3281 14.344-9.6562 23.016-9.6562h200.02c18.328 0 33.328 15 33.328 33.328 0 9-3.3281 17.016-10.312 23.672zm-889.69-290.34h105.98c13.688 38.672 50.344 66.656 93.984 66.656h200.02c27 0 52.312-10.688 70.312-29.016 11.016-10.688 18.656-23.672 23.672-37.688h572.68c18.328 0 33.328-15 33.328-33.328 0-18.328-15-33.328-33.328-33.328h-572.68c-13.688-38.672-50.344-66.656-93.984-66.656h-200.02c-27 0-52.312 10.688-70.312 29.016-11.016 10.688-18.656 23.672-23.672 37.688h-105.98c-18.328 0-33.328 15-33.328 33.328 0 18.328 15 33.328 33.328 33.328zm177-57c6-6.3281 14.344-9.6562 23.016-9.6562h200.02c18.328 0 33.328 15 33.328 33.328 0 9-3.3281 17.016-10.312 23.672-6 6.3281-14.344 9.6562-23.016 9.6562h-200.02c-18.328 0-33.328-15-33.328-33.328 0-9 3.3281-17.016 10.312-23.672zm889.69 623.68h-472.69c-13.688-38.672-50.344-66.656-93.984-66.656h-200.02c-27 0-52.312 10.688-70.312 29.016-11.016 10.688-18.656 23.672-23.672 37.688l-206.02-0.046875c-18.328 0-33.328 15-33.328 33.328s15 33.328 33.328 33.328h206.02c13.688 38.672 50.344 66.656 93.984 66.656h200.02c27 0 52.312-10.688 70.312-29.016 11.016-10.688 18.656-23.672 23.672-37.688h472.69c18.328 0 33.328-15 33.328-33.328s-15-33.328-33.328-33.328zm-543.66 57c-6 6.3281-14.344 9.6562-23.016 9.6562h-200.02c-18.328 0-33.328-15-33.328-33.328 0-9 3.3281-17.016 10.312-23.672 6-6.3281 14.344-9.6562 23.016-9.6562h200.02c18.328 0 33.328 15 33.328 33.328 0 9-3.3281 17.016-10.312 23.672z"/>
</svg>
