<?xml version="1.0" encoding="UTF-8"?>
<svg width="1200pt" height="1200pt" version="1.1" viewBox="0 0 1200 1200" xmlns="http://www.w3.org/2000/svg">
 <path d="m761.11 696.9c14.148-11.844 25.234-26.184 33.254-42.996 8.0234-16.824 12.031-34.785 12.031-53.902 0-22.547-5.7344-43.477-17.195-62.773-11.473-19.297-26.855-34.691-46.164-46.152-19.297-11.473-40.234-17.195-62.773-17.195h-160.52c-35.172 0-67.656-8.7852-97.465-26.375-29.809-17.578-53.52-41.281-71.102-71.102-17.578-29.82-26.363-62.293-26.363-97.465 0-34.777 8.6055-67.078 25.801-96.887 17.195-29.82 40.703-53.605 70.512-71.387 29.812-17.773 62.68-26.664 98.617-26.664h344v68.797h-344c-22.559 0-43.477 5.7344-62.773 17.207s-34.691 26.855-46.152 46.152c-11.473 19.297-17.207 40.234-17.207 62.773 0 22.559 5.7344 43.488 17.207 62.773 11.461 19.309 26.844 34.691 46.152 46.152 19.309 11.461 40.223 17.207 62.773 17.207h160.54c35.543 0 68.23 8.6992 98.039 26.09 29.809 17.398 53.41 40.992 70.801 70.801 17.387 29.809 26.09 62.496 26.09 98.039 0 29.438-6.2148 57.145-18.637 83.137-12.422 26.004-29.52 48.168-51.301 66.504zm-424.85 350.3h344c22.547 0 43.477-5.7344 62.773-17.207s34.691-26.855 46.164-46.152c11.461-19.309 17.195-40.234 17.195-62.773 0-22.559-5.7344-43.488-17.195-62.785-11.473-19.297-26.855-34.691-46.164-46.152-19.297-11.473-40.234-17.195-62.773-17.195l-160.53 0.003906c-35.172 0-67.656-8.7852-97.465-26.375-29.809-17.578-53.52-41.281-71.102-71.09-17.574-29.809-26.371-62.305-26.371-97.477 0-29.426 6.2148-57.133 18.637-83.137 12.406-25.992 29.531-48.156 51.312-66.504l44.148 52.754c-14.148 11.855-25.234 26.184-33.254 42.996-8.0273 16.824-12.035 34.777-12.035 53.891 0 22.559 5.7344 43.488 17.207 62.785 11.461 19.309 26.844 34.691 46.152 46.152s40.223 17.195 62.773 17.195h160.54c35.543 0 68.23 8.6992 98.039 26.09 29.809 17.398 53.41 40.992 70.801 70.812 17.387 29.809 26.09 62.496 26.09 98.039s-8.7852 68.23-26.363 98.039c-17.594 29.809-41.281 53.41-71.102 70.801-29.82 17.387-62.305 26.086-97.477 26.086h-344z"/>
</svg>
