<?xml version="1.0" encoding="UTF-8"?>
<svg width="1200pt" height="1200pt" version="1.1" viewBox="0 0 1200 1200" xmlns="http://www.w3.org/2000/svg">
 <path d="m1081.5 308.34c-1.5469-3.0938-3.6562-5.9062-6.1875-8.2969-0.28125-0.23438-0.375-0.60938-0.65625-0.89062l-307.4-267.94c-6.9375-6-14.812-10.781-23.25-14.297l-0.84375-0.42188c-10.266-4.2188-21.281-6.4688-32.438-6.5156h-405.79c-50.391 0.046875-98.672 20.109-134.29 55.734-35.621 35.625-55.641 83.906-55.688 134.29v799.97c0.046875 50.391 20.062 98.672 55.688 134.29 35.625 35.621 83.906 55.688 134.29 55.734h590.06c50.391-0.09375 98.672-20.109 134.29-55.734s55.641-83.906 55.734-134.29v-678.05c-0.046875-4.1719-0.9375-8.25-2.6719-12-0.23438-0.5625-0.5625-1.0781-0.84375-1.5938zm-319.78-202.4 213.32 186.05h-163.31c-27.609 0-50.016-22.359-50.016-49.969zm263.29 894.05c-0.09375 71.766-58.266 129.94-130.03 130.03h-590.06c-71.766-0.09375-129.89-58.266-129.98-130.03v-799.97c0.09375-71.766 58.219-129.94 129.98-130.03h396.79v172.03c0.046875 60.703 49.266 109.92 110.02 109.97h213.28z"/>
 <path d="m302.76 252.32h274.45c16.547 0 30-13.453 30-30 0-16.594-13.453-30-30-30h-274.45c-16.594 0-30 13.406-30 30 0 16.547 13.406 30 30 30z"/>
 <path d="m302.76 441.14h274.45c16.547 0 30-13.406 30-30 0-16.547-13.453-30-30-30h-274.45c-16.594 0-30 13.453-30 30 0 16.594 13.406 30 30 30z"/>
 <path d="m272.76 600c0 16.547 13.406 30 30 30h594.42c16.594 0 30-13.453 30-30s-13.406-30-30-30h-594.42c-16.594 0-30 13.453-30 30z"/>
 <path d="m897.19 758.86h-594.42c-16.594 0-30 13.453-30 30 0 16.594 13.406 30 30 30h594.42c16.594 0 30-13.406 30-30 0-16.547-13.406-30-30-30z"/>
 <path d="m897.19 947.68h-594.42c-16.594 0-30 13.453-30 30 0 16.594 13.406 30 30 30h594.42c16.594 0 30-13.406 30-30 0-16.547-13.406-30-30-30z"/>
</svg>
