<?xml version="1.0" encoding="UTF-8"?>
<svg width="1200pt" height="1200pt" version="1.1" viewBox="0 0 1200 1200" xmlns="http://www.w3.org/2000/svg">
 <path d="m589.61 762.56c39.93 0 79.824-15.172 110.17-45.504 60.832-60.832 60.648-159.99-0.39063-221.04-10.859-10.859-23.094-19.973-36.453-27.184l-0.69922-343.64c-0.011719-4.2227-1.543-8.3008-4.3359-11.484l-56.816-64.848c-3.3203-3.7852-8.1055-5.9648-13.152-5.9648-5.0312 0-9.832 2.1797-13.152 5.9648l-56.547 64.617c-6.2344 7.125-5.668 17.914 1.2852 24.344l28.973 26.805-28.812 26.633c-3.5742 3.3047-5.6094 7.9609-5.6094 12.832 0 4.875 2.0312 9.5273 5.6094 12.832l28.973 26.805-28.812 26.633c-3.5742 3.3047-5.6094 7.9609-5.6094 12.832 0 4.875 2.0312 9.5273 5.6094 12.832l28.973 26.805-28.812 26.633c-3.5859 3.3203-5.6211 7.9844-5.6094 12.871l0.21875 106.27c-13.309 7.1641-25.48 16.211-36.281 27.023-60.832 60.832-60.648 159.99 0.39063 221.04 30.602 30.598 70.766 45.902 110.89 45.891zm-86.574-242.23c10.52-10.52 22.691-18.895 36.172-24.906 4.4805-1.9961 7.9219-5.793 9.4766-10.445 0.60156-1.7891 0.90625-3.6719 0.89453-5.5586l-0.21875-109.51 37.055-34.262c3.5742-3.3047 5.6094-7.9609 5.6094-12.832 0-4.875-2.0312-9.5273-5.6094-12.832l-28.973-26.805 28.812-26.633c3.5742-3.3047 5.6094-7.9609 5.6094-12.832 0-4.875-2.0312-9.5273-5.6094-12.832l-28.973-26.805 28.812-26.633c3.5742-3.3047 5.6094-7.9609 5.6094-12.832 0-4.875-2.0312-9.5273-5.6094-12.832l-30.367-28.09 32.203-36.797 39.344 44.902 0.69922 347.93c0.011719 6.8711 4.0547 13.102 10.324 15.918 13.531 6.0742 25.762 14.512 36.344 25.09 47.426 47.426 47.598 124.41 0.39062 171.61-47.203 47.203-124.19 47.031-171.61-0.39062-47.402-47.438-47.574-124.42-0.38281-171.62zm86.008 156.93c39.234 0 71.145-31.812 71.145-70.934 0-39.121-31.922-70.934-71.145-70.934-39.234 0-71.145 31.812-71.145 70.934 0.003907 39.121 31.914 70.934 71.145 70.934zm0-106.9c19.961 0 36.195 16.141 36.195 35.977s-16.238 35.977-36.195 35.977c-19.961 0-36.195-16.141-36.195-35.977 0.011719-19.836 16.238-35.977 36.195-35.977zm372.44 190.37c-20.156-5.3984-41.156-2.6562-59.129 7.7148l-196.62 113.51c-4.7266-32.203-27.957-60.207-61.309-69.281l-225.33-61.336c-0.75781-0.20703-1.5195-0.35547-2.2891-0.46484-34.629-4.5781-66.219 3.8555-93.93 25.078l-57.551 44.082-1.6523-6.1484c-4.3945-16.406-21.305-26.168-37.715-21.785l-53.609 14.363c-7.9336 2.1289-14.57 7.2227-18.688 14.352-4.1133 7.125-5.2148 15.43-3.0859 23.363l77.73 290.08c3.6875 13.738 16.164 22.824 29.754 22.824 2.6328 0 5.3008-0.34375 7.9609-1.0547l53.609-14.363c7.9336-2.1289 14.57-7.2227 18.688-14.352 4.1133-7.125 5.2148-15.43 3.0859-23.363l-2.582-9.6602c30.918-22.789 59.449-29.168 93.895-21.27l129.06 29.582c11.363 2.6094 22.434 3.9062 33.184 3.9062 22.309 0 43.273-5.5977 62.582-16.75l322.76-186.34c37.211-21.488 50.008-69.246 28.531-106.47-10.387-17.949-27.199-30.816-47.355-36.219zm-700.49 360.48-75.574-282.05 45.574-12.207 75.574 282.05zm701.83-248.03-322.75 186.33c-21.023 12.148-44.082 15.098-70.48 9.0508l-129.06-29.582c-40.629-9.3203-75.77-3.332-111.3 19.492l-54.098-201.89 69.023-52.859c20.07-15.367 41.988-21.367 66.969-18.32l224.16 61.004c26.289 7.1523 41.852 34.371 34.703 60.648-7.1523 26.289-34.359 41.852-60.648 34.703l-120.37-32.754c-9.3203-2.5352-18.918 2.9648-21.453 12.27-2.5352 9.3203 2.9648 18.918 12.27 21.453l120.37 32.754c7.3828 2.0078 14.816 2.9766 22.141 2.9766 34.055 0 65.547-20.816 78.402-53.191l219.18-126.54c9.8828-5.707 21.453-7.2109 32.598-4.2227 11.145 2.9883 20.414 10.078 26.117 19.961 11.82 20.527 4.7695 46.867-15.766 58.719zm-95.473-452.94h53.965c7.6758 27.809 33.184 48.293 63.402 48.293 36.27 0 65.781-29.512 65.781-65.781 0-36.27-29.512-65.781-65.781-65.781-30.219 0-55.727 20.484-63.402 48.305h-53.965v-189.38h53.965c7.6758 27.809 33.184 48.293 63.402 48.293 36.27 0 65.781-29.512 65.781-65.781-0.003907-36.266-29.512-65.766-65.781-65.766-30.219 0-55.727 20.484-63.402 48.305h-71.449c-9.6484 0-17.473 7.8242-17.473 17.473v206.87h-96.98c-9.6484 0-17.473 7.8242-17.473 17.473 0 9.6484 7.8242 17.473 17.473 17.473h96.98v206.87c0 9.6484 7.8242 17.473 17.473 17.473h71.449c7.6758 27.809 33.184 48.293 63.402 48.293 36.27 0 65.781-29.512 65.781-65.781s-29.512-65.781-65.781-65.781c-30.219 0-55.727 20.484-63.402 48.305h-53.965zm117.37-48.297c16.996 0 30.82 13.824 30.82 30.82 0 16.996-13.824 30.82-30.82 30.82-16.996 0-30.82-13.824-30.82-30.82 0-16.992 13.824-30.82 30.82-30.82zm0-224.35c16.996 0 30.82 13.824 30.82 30.82s-13.824 30.82-30.82 30.82c-16.996 0-30.82-13.824-30.82-30.82s13.824-30.82 30.82-30.82zm0 448.69c16.996 0 30.82 13.824 30.82 30.82s-13.824 30.82-30.82 30.82c-16.996 0-30.82-13.824-30.82-30.82s13.824-30.82 30.82-30.82z"/>
</svg>
