<?xml version="1.0" encoding="UTF-8"?>
<svg width="1200pt" height="1200pt" version="1.1" viewBox="0 0 1200 1200" xmlns="http://www.w3.org/2000/svg">
 <path d="m673.47 122.45h146.94v244.9h-146.94z" fill-rule="evenodd"/>
 <path d="m977.48 0h-965.24v1200h1175.5v-989.73zm-720.34 48.98h636.73v391.84h-636.73zm-48.98 587.75h759.18v514.29h-759.18z" fill-rule="evenodd"/>
 <path d="m330.61 783.67h171.43c13.543 0 24.492-10.945 24.492-24.488 0-13.543-10.949-24.488-24.492-24.488h-171.43c-13.543 0-24.492 10.945-24.492 24.488 0 13.543 10.949 24.488 24.492 24.488" fill-rule="evenodd"/>
 <path d="m330.61 881.63h244.9c13.543 0 24.488-10.945 24.488-24.488s-10.945-24.492-24.488-24.492h-244.9c-13.543 0-24.492 10.949-24.492 24.492s10.949 24.488 24.492 24.488" fill-rule="evenodd"/>
 <path d="m648.98 881.63c6.6133 0 12.734-2.6953 17.387-7.1016 4.4102-4.6523 7.1016-11.02 7.1016-17.387 0-6.3672-2.6914-12.762-7.1016-17.391-9.0625-9.0586-25.469-9.0586-34.531 0-4.6758 4.6289-7.3477 10.754-7.3477 17.391 0 6.6094 2.6719 12.734 7.1055 17.387 4.625 4.4062 10.75 7.1016 17.387 7.1016" fill-rule="evenodd"/>
</svg>
