<?xml version="1.0" encoding="UTF-8"?>
<svg width="1200pt" height="1200pt" version="1.1" viewBox="0 0 1200 1200" xmlns="http://www.w3.org/2000/svg">
 <path d="m1096.1 93.207h-411.14c-6.2812-17.254-22.789-29.621-42.172-29.621h-419.27c-19.383 0-35.902 12.367-42.172 29.621h-77.449c-37.164 0-67.383 30.234-67.383 67.383v685.32c0 37.164 30.234 67.383 67.383 67.383h349.76l-57.133 116.19h-75.516c-29.473 0-53.461 23.988-53.461 53.461 0 29.484 23.988 53.461 53.461 53.461h557.96c29.473 0 53.461-23.988 53.461-53.461 0-29.484-23.988-53.461-53.461-53.461h-75.516l-57.133-116.19h349.78c37.164 0 67.383-30.234 67.383-67.383l-0.003906-685.32c0.011719-37.164-30.219-67.387-67.383-67.387zm-303.16 517.95c-52.492 0-95.203-42.086-95.203-93.832 0-51.734 42.711-93.832 95.203-93.832 52.492 0 95.203 42.098 95.203 93.832 0.003907 51.746-42.707 93.832-95.203 93.832zm0 33.145c18.246 0 35.609-3.8086 51.344-10.641 72.246 6.5859 128.46 67.848 128.46 140.68v38.816l-359.61 0.003906v-38.816c0-72.844 56.215-134.09 128.46-140.68 15.734 6.8281 33.086 10.637 51.34 10.637zm90-36.562c23.645-23.043 38.34-55.055 38.34-90.418 0-70.016-57.574-126.98-128.35-126.98-70.777 0-128.35 56.965-128.35 126.98 0 35.352 14.695 67.371 38.34 90.418-71.375 22.199-122.95 89.094-122.95 166.62v38.816h-443.35v-619.85h41.977v190.92c0 24.758 20.145 44.914 44.914 44.914h268.55l85.055 103.93c5.7539 7.0156 13.691 10.875 21.832 10.875 2.3984 0 4.8242-0.33203 7.2109-1.0273 11.633-3.3555 19.457-13.75 19.457-25.859v-87.918h17.168c24.77 0 44.914-20.145 44.914-44.914v-190.93h375.69l-0.003907 619.86h-57.488v-38.816c0-77.535-51.574-144.43-122.95-166.63zm-671.2-499.23c0-6.4883 5.2773-11.766 11.766-11.766h419.27c6.4883 0 11.766 5.2773 11.766 11.766v275.74c0 6.4883-5.2773 11.766-11.766 11.766h-33.734c-9.1602 0-16.566 7.4219-16.566 16.566v86.914l-79.727-97.422c-3.1484-3.8438-7.8594-6.0742-12.82-6.0742l-276.41 0.003906c-6.4883 0-11.766-5.2773-11.766-11.766zm687.56 974.45c0 11.203-9.1094 20.312-20.312 20.312l-557.98 0.003906c-11.203 0-20.312-9.1094-20.312-20.312s9.1094-20.312 20.312-20.312h557.96c11.215-0.003906 20.324 9.1055 20.324 20.309zm-132.77-53.461h-333.06l57.133-116.19h218.8zm363.82-183.57c0 18.883-15.355 34.238-34.238 34.238h-992.21c-18.883 0-34.238-15.355-34.238-34.238v-685.32c0-18.883 15.355-34.238 34.238-34.238h74.707v33.82h-58.555c-9.1602 0-16.566 7.4219-16.566 16.566v653.01c0 9.1602 7.4219 16.566 16.566 16.566h959.9c9.1602 0 16.566-7.4219 16.566-16.566v-653.01c0-9.1602-7.4219-16.566-16.566-16.566h-392.25v-33.82h408.42c18.883 0 34.238 15.355 34.238 34.238zm-878.19-681.89c0-9.1602 7.4219-16.566 16.566-16.566h328.82c9.1602 0 16.566 7.4219 16.566 16.566 0 9.1602-7.4219 16.566-16.566 16.566h-328.82c-9.1484 0-16.566-7.418-16.566-16.566zm0 164.7c0-9.1602 7.4219-16.566 16.566-16.566h328.82c9.1602 0 16.566 7.4219 16.566 16.566 0 9.1484-7.4219 16.566-16.566 16.566h-328.82c-9.1484 0.011719-16.566-7.4062-16.566-16.566zm0-82.348c0-9.1602 7.4219-16.566 16.566-16.566h328.82c9.1602 0 16.566 7.4219 16.566 16.566 0 9.1602-7.4219 16.566-16.566 16.566h-328.82c-9.1484 0-16.566-7.418-16.566-16.566z"/>
</svg>
