<?xml version="1.0" encoding="UTF-8"?>
<svg width="1200pt" height="1200pt" version="1.1" viewBox="0 0 1200 1200" xmlns="http://www.w3.org/2000/svg">
 <path d="m297.6 517.2c-70.801 0-129.6 57.602-129.6 129.6s57.602 129.6 129.6 129.6c24 0 45.602-6 64.801-18 38.398-22.801 64.801-63.602 64.801-111.6-0.003906-72-57.602-129.6-129.6-129.6zm62.398 198-45.602-79.199c-4.8008-8.3984-16.801-12-25.199-7.1992-8.3984 4.8008-12 16.801-6 25.199l45.602 79.199c-9.6016 3.6016-19.199 4.8008-30 4.8008-51.602 0-92.398-42-92.398-92.398 0-51.602 42-92.398 92.398-92.398 51.602 0 93.602 42 93.602 92.398-1.2031 28.797-13.203 52.797-32.402 69.598z"/>
 <path d="m586.8 517.2c-70.801 0-129.6 57.602-129.6 129.6s57.602 129.6 129.6 129.6 129.6-57.602 129.6-129.6c-0.003906-72-58.801-129.6-129.6-129.6zm0 222c-51.602 0-92.398-42-92.398-92.398 0-19.199 6-37.199 15.602-51.602l64.801 64.801c3.6016 3.6016 8.3984 4.8008 13.199 4.8008 4.8008 0 9.6016-2.3984 13.199-4.8008 7.1992-7.1992 7.1992-19.199 0-26.398l-64.801-64.801c14.398-9.6016 32.398-15.602 51.602-15.602 51.602 0 93.602 42 93.602 92.398-2.4062 51.602-44.406 93.602-94.805 93.602z"/>
 <path d="m874.8 517.2c-70.801 0-129.6 57.602-129.6 129.6s57.602 129.6 129.6 129.6 129.6-57.602 129.6-129.6c-0.003906-72-58.801-129.6-129.6-129.6zm0 222c-51.602 0-92.398-42-92.398-92.398 0-45.602 32.398-82.801 74.398-91.199v91.199c0 9.6016 8.3984 18 18 18 10.801 0 18-8.3984 18-18v-91.199c43.199 8.3984 74.398 45.602 74.398 91.199 0 50.398-40.801 92.398-92.398 92.398z"/>
 <path d="m948 896.4c-9.6016 0-18-8.3984-18-18 0-9.6016 8.3984-18 18-18h55.199 4.8008c10.801-1.1992 19.199 7.1992 19.199 16.801 1.1992 9.6016-7.1992 19.199-16.801 19.199h-7.1992zm-91.199 0h-55.199c-9.6016 0-18-8.3984-18-18 0-9.6016 8.3984-18 18-18h55.199c9.6016 0 18 8.3984 18 18 0 9.6016-7.1992 18-18 18zm-146.4 0h-55.199c-9.6016 0-18-8.3984-18-18 0-9.6016 8.3984-18 18-18h55.199c9.6016 0 18 8.3984 18 18 0 9.6016-7.1992 18-18 18zm-146.4 0h-55.199c-9.6016 0-18-8.3984-18-18 0-9.6016 8.3984-18 18-18h55.199c9.6016 0 18 8.3984 18 18 0 9.6016-7.1992 18-18 18zm-146.4 0h-55.199c-9.6016 0-18-8.3984-18-18 0-9.6016 8.3984-18 18-18h55.199c9.6016 0 18 8.3984 18 18 0 9.6016-7.2031 18-18 18zm-146.4 0h-55.199c-9.6016 0-18-8.3984-18-18 0-9.6016 8.3984-18 18-18h55.199c9.6016 0 18 8.3984 18 18 0 9.6016-7.1992 18-18 18zm-144-10.797c-3.6016 0-6-1.1992-8.3984-2.3984-19.199-10.801-34.801-28.801-43.199-49.199-3.6016-9.6016 1.1992-20.398 9.6016-24 9.6016-3.6016 20.398 1.1992 24 9.6016 4.8008 13.199 15.602 24 27.602 31.199 8.3984 4.8008 12 15.602 7.1992 25.199-4.8047 7.1953-10.805 9.5977-16.805 9.5977zm951.6-40.801c-2.3984 0-4.8008 0-7.1992-1.1992-9.6016-3.6016-14.398-14.398-10.801-24 2.3984-7.1992 4.8008-15.602 4.8008-22.801v-24c0-9.6016 8.3984-18 18-18 9.6016 0 18 8.3984 18 18v24c0 12-2.3984 25.199-7.1992 36-1.2031 7.1992-7.2031 12-15.602 12zm-993.6-90c-9.6016 0-18-8.3984-18-18v-55.199c0-9.6016 8.3984-18 18-18 9.6016 0 18 8.3984 18 18v55.199c0 9.5977-8.3984 18-18 18zm999.6-55.199c-9.6016 0-18-8.3984-18-18v-55.199c0-9.6016 8.3984-18 18-18 9.6016 0 18 8.3984 18 18v55.199c0 9.5977-7.1992 18-18 18zm-999.6-91.203c-9.6016 0-18-8.3984-18-18v-55.199c0-9.6016 8.3984-18 18-18 9.6016 0 18 8.3984 18 18v55.199c0 9.6016-8.3984 18-18 18zm999.6-55.199c-9.6016 0-18-8.3984-18-18v-38.398c0-4.8008 0-8.3984-1.1992-13.199-2.3984-9.6016 4.8008-19.199 14.398-21.602 9.6016-2.3984 19.199 4.8008 21.602 14.398 1.1992 6 2.3984 13.199 2.3984 20.398v38.398c-1.1992 9.6055-8.3984 18.004-19.199 18.004zm-984-87.598c-3.6016 0-7.1992-1.1992-10.801-3.6016-8.3984-6-9.6016-18-3.6016-25.199 13.199-18 32.398-31.199 54-37.199 9.6016-2.3984 19.199 3.6016 22.801 13.199 2.3984 9.6016-3.6016 19.199-13.199 22.801-13.199 3.6016-26.398 12-34.801 24-2.3984 3.5977-8.3984 6-14.398 6zm922.8-30h-4.8008c-4.8008-1.1992-10.801-2.3984-15.602-2.3984h-34.801c-9.6016 0-18-8.3984-18-18s8.3984-18 18-18h34.801c8.3984 0 16.801 1.1992 24 3.6016 9.6016 2.3984 15.602 12 13.199 22.801-1.1992 5.9961-8.3984 11.996-16.797 11.996zm-146.4-2.4023h-55.199c-9.6016 0-18-8.3984-18-18 0-9.6016 8.3984-18 18-18h55.199c9.6016 0 18 8.3984 18 18 0 9.6016-8.3984 18-18 18zm-146.4 0h-55.199c-9.6016 0-18-8.3984-18-18 0-9.6016 8.3984-18 18-18h55.199c9.6016 0 18 8.3984 18 18 0 9.6016-8.4023 18-18 18zm-146.4 0h-55.199c-9.6016 0-18-8.3984-18-18 0-9.6016 8.3984-18 18-18h55.199c9.6016 0 18 8.3984 18 18 0 9.6016-8.3984 18-18 18zm-146.4 0h-55.199c-9.6016 0-18-8.3984-18-18 0-9.6016 8.3984-18 18-18h55.199c9.6016 0 18 8.3984 18 18 0 9.6016-7.1992 18-18 18zm-146.4 0h-55.199c-9.6016 0-18-8.3984-18-18 0-9.6016 8.3984-18 18-18h55.199c9.6016 0 18 8.3984 18 18 0 9.6016-7.2031 18-18 18z"/>
</svg>
