<?xml version="1.0" encoding="UTF-8"?>
<svg width="1200pt" height="1200pt" version="1.1" viewBox="0 0 1200 1200" xmlns="http://www.w3.org/2000/svg">
 <g>
  <path d="m589.82 409.01c-0.1875 0.20703-0.39453 0.33594-0.58203 0.54297-0.84375 0.88281-1.7812 1.668-2.7188 2.457-0.5625 0.44922-1.0859 0.95703-1.668 1.3672-1.0312 0.73047-2.1758 1.332-3.3203 1.9141-0.54297 0.28125-1.0703 0.63672-1.6328 0.88281-1.4805 0.65625-3.0547 1.1055-4.6484 1.5-0.26172 0.054688-0.48828 0.16797-0.75 0.22656-1.8555 0.39453-3.7891 0.60156-5.7578 0.60156l-512.49-0.003906v60.523h95.082c15.543 0 28.125 12.582 28.125 28.125 0 15.543-12.582 28.125-28.125 28.125h-95.082v88.105h244.03c15.543 0 28.125 12.602 28.125 28.125 0 15.523-12.582 28.125-28.125 28.125l-244.03 0.003906v88.051h320.34c15.543 0 28.125 12.617 28.125 28.125 0 15.523-12.582 28.125-28.125 28.125l-320.34-0.003906v88.105h126.34c15.543 0 28.125 12.602 28.125 28.125 0 15.523-12.582 28.125-28.125 28.125l-126.34 0.003906v50.945c0 8.8516 7.1797 16.012 16.012 16.012h1055.5c8.832 0 16.012-7.1797 16.012-16.012v-238.91h-190.57l-39.414 68.195c-5.0234 8.6992-14.289 14.062-24.355 14.062l-179.91-0.003906c-10.031 0-19.332-5.3633-24.355-14.062l-59.176-102.54c-5.043-8.7188-5.043-19.426 0-28.125 5.0234-8.7188 14.324-14.062 24.355-14.062h110.42l20.699-25.164-20.699-25.164h-110.42c-10.031 0-19.332-5.3438-24.355-14.062-5.043-8.6797-5.043-19.406 0-28.125l59.176-102.52c5.0234-8.6992 14.324-14.062 24.355-14.062h179.93c10.07 0 19.332 5.3633 24.355 14.062l39.395 68.176h190.57v-254.04h-477.73zm-335.52 126.26c-15.543 0-28.125-12.582-28.125-28.125 0-15.543 12.582-28.125 28.125-28.125h244.55c15.543 0 28.125 12.582 28.125 28.125 0 15.523-12.582 28.125-28.125 28.125zm281.34 433.07h-248.25c-15.543 0-28.125-12.602-28.125-28.125s12.582-28.125 28.125-28.125h248.25c15.543 0 28.125 12.602 28.125 28.125s-12.578 28.125-28.125 28.125zm0-288.71h-126.9c-15.543 0-28.125-12.602-28.125-28.125 0-15.523 12.582-28.125 28.125-28.125h126.9c15.543 0 28.125 12.602 28.125 28.125 0 15.523-12.578 28.125-28.125 28.125z"/>
  <path d="m912.56 619.12-39.375-68.195h-147.43l-26.719 46.273h74.945c8.418 0 16.367 3.7695 21.711 10.258l43.875 53.289c8.5312 10.367 8.5312 25.352 0 35.738l-43.875 53.25c-5.3438 6.5234-13.293 10.273-21.711 10.273h-74.945l26.719 46.293h147.43l39.395-68.195c5.043-8.6992 14.305-14.062 24.375-14.062l206.79 0.003906v-90.863h-206.83c-10.031 0-19.332-5.3984-24.355-14.062z"/>
  <path d="m1127.7 164.74h-1055.5c-8.832 0-16.012 7.1797-16.012 16.012v181.5h499.86l76.18-86.137c0.1875-0.20703 0.41406-0.35547 0.60156-0.5625 0.67578-0.71094 1.4062-1.3516 2.1367-1.9883 0.69531-0.60156 1.3516-1.1992 2.082-1.7266 0.65625-0.48828 1.4258-0.88281 2.1172-1.293 0.88281-0.50781 1.7266-1.0117 2.6055-1.4062 0.73047-0.33594 1.5-0.5625 2.2695-0.82422 0.95703-0.33594 1.9141-0.67578 2.9062-0.89844 0.75-0.1875 1.5391-0.26172 2.3047-0.375 1.0859-0.14844 2.1172-0.30078 3.207-0.32031 0.30078 0 0.50781-0.074219 0.80469-0.074219h490.43v-85.895c0-8.832-7.1797-16.012-16.012-16.012zm-959.85 99.301h-33.113c-15.523 0-28.125-12.582-28.125-28.125 0-15.543 12.582-28.125 28.125-28.125h33.113c15.543 0 28.125 12.582 28.125 28.125 0 15.543-12.582 28.125-28.125 28.125zm165.51 0.015626h-33.113c-15.543 0-28.125-12.582-28.125-28.125 0-15.543 12.582-28.125 28.125-28.125h33.113c15.543 0 28.125 12.582 28.125 28.125 0 15.547-12.582 28.125-28.125 28.125zm165.49 0h-33.094c-15.543 0-28.125-12.582-28.125-28.125 0-15.543 12.582-28.125 28.125-28.125h33.094c15.543 0 28.125 12.582 28.125 28.125 0 15.547-12.582 28.125-28.125 28.125z"/>
 </g>
</svg>
