<?xml version="1.0" encoding="UTF-8"?>
<svg width="1200pt" height="1200pt" version="1.1" viewBox="0 0 1200 1200" xmlns="http://www.w3.org/2000/svg">
 <path d="m208.98 14.941h497.38c36.648 0 69.914 14.941 93.996 39.059 24.086 24.086 39.059 57.383 39.059 93.996v98.426h151.6c36.648 0 69.914 14.941 93.996 39.059 24.086 24.086 39.059 57.383 39.059 93.996v672.56c0 36.613-14.941 69.914-39.059 93.996-24.086 24.086-57.383 39.059-93.996 39.059h-497.38c-36.648 0-69.914-14.941-93.996-39.059-24.086-24.121-39.059-57.383-39.059-93.996v-98.426h-151.6c-36.648 0-69.914-14.977-93.996-39.059-24.086-24.086-39.059-57.383-39.059-93.996v-672.56c0-36.648 14.941-69.914 39.059-93.996 24.086-24.086 57.383-39.059 93.996-39.059zm630.44 309.93v495.69c0 36.613-14.941 69.914-39.059 93.996-24.086 24.086-57.383 39.059-93.996 39.059h-267.34v98.426c0 14.977 6.1562 28.621 16.055 38.555 9.9375 9.8984 23.582 16.055 38.555 16.055h497.38c14.977 0 28.621-6.1562 38.555-16.055 9.9375-9.9375 16.055-23.582 16.055-38.555v-672.56c0-14.977-6.1562-28.621-16.055-38.555-9.9375-9.8984-23.582-16.055-38.555-16.055zm-133.06-231.48h-497.38c-14.977 0-28.621 6.1562-38.555 16.055-9.9375 9.9375-16.055 23.582-16.055 38.555v672.56c0 14.977 6.1562 28.621 16.055 38.52 9.9375 9.9375 23.582 16.094 38.555 16.094h497.34c14.977 0 28.621-6.1562 38.555-16.094 9.8984-9.8984 16.055-23.543 16.055-38.52v-672.56c0-14.977-6.1562-28.621-16.055-38.555-9.9375-9.9375-23.582-16.055-38.555-16.055z"/>
</svg>
