<?xml version="1.0" encoding="UTF-8"?>
<svg width="1200pt" height="1200pt" version="1.1" viewBox="0 0 1200 1200" xmlns="http://www.w3.org/2000/svg">
 <path d="m502.87 225.84h329.53v-23.203c0-37.172-15.234-71.016-39.75-95.531s-58.312-39.75-95.531-39.75h-357.1c-37.172 0-70.969 15.234-95.484 39.75-24.516 24.516-39.75 58.312-39.75 95.531v581.11c0 37.172 15.234 71.016 39.75 95.531 18.281 18.281 41.766 31.406 67.922 36.891v-499.97c0-52.359 21.375-99.984 55.875-134.48s82.078-55.875 134.48-55.875zm384.61 2.0156c41.391 6.0938 78.609 25.547 106.92 53.906 34.453 34.5 55.875 82.078 55.875 134.48v581.11c0 52.359-21.375 99.984-55.922 134.48-34.5 34.5-82.078 55.922-134.44 55.922h-357.1c-52.359 0-99.984-21.375-134.48-55.922-34.5-34.5-55.875-82.078-55.875-134.48v-25.219c-41.391-6.0938-78.609-25.547-106.92-53.906-34.453-34.5-55.875-82.078-55.875-134.48v-581.11c0-52.359 21.375-99.984 55.922-134.48 34.5-34.5 82.078-55.922 134.44-55.922h357.1c52.359 0 99.984 21.375 134.48 55.922 34.5 34.5 55.875 82.078 55.875 134.48zm-336.52 292.92c-15.188 0-27.562-12.328-27.562-27.562s12.328-27.562 27.562-27.562h260.81c15.188 0 27.562 12.328 27.562 27.562 0 15.188-12.328 27.562-27.562 27.562zm0 213.56c-15.188 0-27.562-12.328-27.562-27.562s12.328-27.562 27.562-27.562h260.81c15.188 0 27.562 12.328 27.562 27.562 0 15.188-12.328 27.562-27.562 27.562zm0 213.56c-15.188 0-27.562-12.328-27.562-27.562 0-15.188 12.328-27.562 27.562-27.562h260.81c15.188 0 27.562 12.328 27.562 27.562s-12.328 27.562-27.562 27.562zm444.19-506.11c-41.391-6.0938-78.609-25.547-106.92-53.906-28.312-28.312-47.812-65.484-53.906-106.88h-331.55c-37.172 0-71.016 15.234-95.531 39.75-24.516 24.516-39.75 58.312-39.75 95.531v581.11c0 37.172 15.234 71.016 39.75 95.531s58.312 39.75 95.531 39.75h357.1c37.172 0 70.969-15.234 95.484-39.75 24.516-24.516 39.75-58.312 39.75-95.531v-555.61zm-104.06-157.13c5.9062 24.703 18.656 46.828 36.094 64.266s39.562 30.188 64.266 36.094c-5.9062-24.703-18.656-46.828-36.094-64.266s-39.562-30.188-64.266-36.094z"/>
</svg>
