<?xml version="1.0" encoding="UTF-8"?>
<svg width="1200pt" height="1200pt" version="1.1" viewBox="0 0 1200 1200" xmlns="http://www.w3.org/2000/svg">
 <path d="m399.98 150c-27.328 0-50.016 22.688-50.016 50.016v150h-99.984c-24.375 0-47.016 13.125-59.109 34.312l-75.188 131.58c-10.266 18-15.656 38.344-15.656 59.062v275.02c0 27.328 22.688 50.016 50.016 50.016h200.02v99.984c0 27.328 22.688 50.016 50.016 50.016h399.98c27.328 0 50.016-22.688 50.016-50.016l-0.09375-99.984h200.02c27.328 0 50.016-22.688 50.016-50.016v-274.97c0-21.469-6.7031-42.375-19.172-59.859l-96-134.34c-13.781-19.312-36.094-30.797-59.859-30.797h-75v-150c0-27.328-22.688-50.016-50.016-50.016zm0 50.016h399.98v150h-399.98zm-150 200.02h675c7.6406 0 14.766 3.6562 19.172 9.8438l91.266 127.69h-874.5l73.359-128.44c3.2344-5.6719 9.1875-9.1406 15.703-9.1406zm-99.984 187.5h900v262.45h-200.02v-99.984h50.016c6.6094 0 12.984-2.625 17.672-7.3125s7.3125-11.062 7.3125-17.672c0-6.6562-2.625-12.984-7.3125-17.672s-11.062-7.3594-17.672-7.3594h-600c-6.6094 0-12.984 2.6719-17.672 7.3594s-7.3125 11.016-7.3125 17.672c0 6.6094 2.625 12.984 7.3125 17.672s11.062 7.3125 17.672 7.3125h50.016v99.984h-200.02zm249.98 162.47h400.03v249.98h-400.03zm75 99.984c-6.6094 0-12.984 2.6719-17.672 7.3594s-7.3125 11.016-7.3125 17.672c0 6.6094 2.625 12.984 7.3125 17.672s11.062 7.3125 17.672 7.3125h250.03c6.6094 0 12.984-2.625 17.672-7.3125s7.3125-11.062 7.3125-17.672c0-6.6562-2.625-12.984-7.3125-17.672s-11.062-7.3594-17.672-7.3594z"/>
</svg>
