<?xml version="1.0" encoding="UTF-8"?>
<svg width="1200pt" height="1200pt" version="1.1" viewBox="0 0 1200 1200" xmlns="http://www.w3.org/2000/svg">
 <path d="m315.21 245.76c-38.117 0-69.559 31.441-69.559 69.559v569.37c0 38.117 31.441 69.559 69.559 69.559h569.55c38.117 0 69.371-31.441 69.371-69.559v-569.37c0-38.117-31.258-69.559-69.371-69.559zm225.78 94.465h295.11c8.4258 0.023438 16.203 4.5352 20.41 11.84s4.207 16.293 0 23.598c-4.207 7.3008-11.984 11.812-20.41 11.84h-295.11c-85.449 0-153.6 67.918-153.6 153.37 0 85.449 68.148 153.6 153.6 153.6h295.11v-0.003906c8.4258 0.027343 16.203 4.5391 20.41 11.844 4.207 7.3008 4.207 16.293 0 23.594-4.207 7.3047-11.984 11.816-20.41 11.844h-295.11c-110.8 0-200.83-90.074-200.83-200.88 0-110.8 90.031-200.64 200.83-200.64zm-177.12 472.27h472.23c6.3516-0.13672 12.492 2.2891 17.035 6.7305 4.543 4.4453 7.1016 10.531 7.1016 16.887s-2.5586 12.441-7.1016 16.887c-4.543 4.4414-10.684 6.8672-17.035 6.7305h-472.23c-8.3125-0.18359-15.918-4.7227-20.023-11.957-4.1055-7.2305-4.1055-16.09 0-23.32 4.1055-7.2344 11.711-11.773 20.023-11.957z"/>
</svg>
