<?xml version="1.0" encoding="UTF-8"?>
<svg width="1200pt" height="1200pt" version="1.1" viewBox="0 0 1200 1200" xmlns="http://www.w3.org/2000/svg">
 <path d="m1032.5 180.56h-864.94c-45.469 0-83.156 37.031-83.156 83.062v664.03c0 50.625 41.156 91.781 91.781 91.781h847.69c50.625 0 91.781-41.156 91.781-91.781v-663.94c0-46.312-37.781-83.156-83.156-83.156zm55.031 747c0 35.062-28.594 63.656-63.656 63.656h-847.69c-35.062 0-63.656-28.594-63.656-63.656v-534h975v534.09zm0-663.84v101.72h-585.28l74.344-156.75h455.81c29.719 0 55.125 24.094 55.125 55.031zm-616.41 101.72h-358.59v-101.72c0-30.75 25.219-55.031 55.125-55.031h377.81z"/>
 <path d="m630.47 301.12h386.91c18.562 0 18.562-28.125 0-28.125h-386.91c-18.562 0-18.562 28.125 0 28.125z"/>
 <path d="m320.72 490.88v78.562c0 25.594 20.812 46.406 46.406 46.406h394.22c25.594 0 46.406-20.812 46.406-46.406v-25.219h36.844v106.69l-282.47 43.312c-6.8438 1.0312-11.906 6.9375-11.906 13.875v32.156h-40.5c-7.7812 0-14.062 6.2812-14.062 14.062v125.06c0 36.281 29.531 65.906 65.906 65.906h16.5c36.281 0 65.906-29.531 65.906-65.906v-125.06c0-7.7812-6.2812-14.062-14.062-14.062h-51.562v-20.062l282.47-43.312c6.8438-1.0312 11.906-6.9375 11.906-13.875v-132.84c0-7.7812-6.2812-14.062-14.062-14.062h-50.906v-25.219c0-25.594-20.812-46.406-46.406-46.406h-394.22c-25.594 0-46.406 20.812-46.406 46.406zm295.03 388.5c0 20.812-16.969 37.781-37.781 37.781h-16.5c-20.812 0-37.781-16.969-37.781-37.781v-111h92.062zm163.88-388.5v78.562c0 10.125-8.25 18.281-18.281 18.281h-394.22c-10.125 0-18.281-8.25-18.281-18.281v-78.562c0-10.125 8.25-18.281 18.281-18.281h394.22c10.125 0 18.281 8.25 18.281 18.281z"/>
</svg>
