<?xml version="1.0" encoding="UTF-8"?>
<svg width="1200pt" height="1200pt" version="1.1" viewBox="0 0 1200 1200" xmlns="http://www.w3.org/2000/svg">
 <path d="m377.68 429 29.297 29.297 60.891-60.891c8.7656-8.7656 20.25-13.125 31.688-13.125 11.391 0 22.875 4.4062 31.594 13.078l1.2656 1.3125c7.9219 8.5781 11.906 19.453 11.906 30.375-0.09375 11.484-4.4062 23.016-13.078 31.594l-60.891 60.891 63.047 63.047 60.891-60.891c8.7188-8.7188 20.203-13.078 31.688-13.078 11.438 0 22.969 4.3594 31.688 13.078s13.078 20.203 13.078 31.688-4.4062 22.969-13.078 31.688l-60.891 60.891 29.297 29.297c7.0312 7.0312 7.0312 18.422 0 25.453l-98.203 98.156c-37.641 37.641-87.281 56.484-136.92 56.484-28.125 0-56.25-6.0938-82.266-18.234l-15.422 15.422c-8.8594 8.9062-20.531 13.359-32.156 13.359-9.7031 0-19.453-3.1406-27.562-9.375-4.125 11.766-5.625 24.281-4.4531 36.562 1.7812 19.031 9.9844 37.594 24.516 52.172 16.5 16.594 38.391 24.844 60.281 24.844 21.844 0 43.734-8.2969 60.281-24.844l27.469-27.469c23.531-23.531 54.703-35.344 85.734-35.344 31.078 0 62.156 11.812 85.734 35.391 23.578 23.672 35.391 54.703 35.391 85.734s-11.812 62.156-35.391 85.734l-61.359 61.359c-7.0312 7.0312-18.422 7.0312-25.453 0s-7.0312-18.422 0-25.453l61.359-61.359c16.547-16.547 24.844-38.391 24.844-60.281s-8.2969-43.734-24.797-60.281c-16.594-16.547-38.484-24.797-60.328-24.797s-43.734 8.2969-60.281 24.797l-27.469 27.375c-23.578 23.672-54.703 35.438-85.734 35.438-30.984 0-62.109-11.812-85.688-35.438-20.719-20.578-32.297-47.109-34.828-74.344-2.1094-22.734 2.1094-45.938 12.703-66.703l-6.9844-7.0312c-8.1094-8.7188-12.141-19.828-12.141-30.844 0-11.625 4.4062-23.25 13.266-32.156l15.469-15.469c-12.094-25.969-18.188-54.094-18.188-82.219 0-49.594 18.844-99.234 56.484-136.87l98.156-98.156c7.0312-7.0312 18.422-7.0312 25.453 0zm410.29-140.81c7.0312-7.0312 18.422-7.0312 25.453 0s7.0312 18.422 0 25.453l-80.766 80.766c-7.0312 7.0312-18.422 7.0312-25.453 0s-7.0312-18.422 0-25.453zm-46.594-46.594c7.0312-7.0312 18.422-7.0312 25.453 0s7.0312 18.422 0 25.453l-80.766 80.766c-7.0312 7.0312-18.422 7.0312-25.453 0s-7.0312-18.422 0-25.453zm-312.52 405.66c7.0312-7.0312 18.422-7.0312 25.453 0s7.0312 18.422 0 25.453l-80.766 80.766c-7.0312 7.0312-18.422 7.0312-25.453 0s-7.0312-18.422 0-25.453zm-46.594-46.594c7.0312-7.0312 18.422-7.0312 25.453 0s7.0312 18.422 0 25.453l-80.766 80.766c-7.0312 7.0312-18.422 7.0312-25.453 0s-7.0312-18.422 0-25.453zm493.55-419.72-0.89062-0.84375-0.84375-0.84375-14.109-14.062c-1.6875-1.4531-3.9375-2.1562-6.1406-2.1562-2.3906 0-4.875 0.9375-6.6562 2.7188l-8.9062 8.9062c7.9219 5.8125 15.516 12.281 22.688 19.406 7.1719 7.1719 13.641 14.766 19.453 22.688l8.9062-8.9062c1.7812-1.7812 2.7188-4.2656 2.7188-6.6562 0-2.4844-0.89062-4.9219-2.6719-6.6562l-13.594-13.547zm11.812-39 94.688-94.688c7.0312-7.0312 18.422-7.0312 25.453 0s7.0312 18.422 0 25.453l-94.641 94.641 1.6406 1.6406c8.8594 8.9062 13.266 20.578 13.266 32.156 0 11.625-4.4062 23.25-13.266 32.156l-15.469 15.469c12.094 25.969 18.188 54.094 18.188 82.172 0 49.125-18.562 98.297-55.5 135.84l-99.188 99.234c-7.0312 7.0312-18.422 7.0312-25.453 0l-248.34-248.34c-7.0312-7.0312-7.0312-18.422 0-25.453l98.203-98.203c37.734-37.641 87.328-56.484 136.92-56.484 28.125 0 56.25 6.0938 82.219 18.188l15.469-15.469c8.8594-8.8594 20.531-13.266 32.156-13.266 11.062 0 22.172 4.0312 30.844 12.141l2.8594 2.8594zm-360.47 163.03 222.94 222.89 86.344-86.25c30.047-30.516 45.094-70.594 45.094-110.62 0-26.391-6.5625-52.828-19.641-76.453l-0.046875-0.09375-0.14062-0.23438-0.09375-0.14062-0.23438-0.375c-6.8906-12.281-15.469-23.766-25.875-34.125-10.359-10.359-21.891-19.031-34.125-25.875l-0.375-0.23438-0.14062-0.09375-0.23438-0.14062c-23.672-13.125-50.109-19.641-76.547-19.641-40.406 0-80.859 15.328-111.47 45.938l-85.406 85.5zm-250.4 515.44c-7.9688-5.8125-15.516-12.281-22.688-19.453s-13.641-14.719-19.453-22.688l-8.9062 8.9062c-1.7812 1.7812-2.7188 4.2656-2.7188 6.6562 0 2.2031 0.70312 4.4062 2.1562 6.1406l29.344 29.297c1.7812 1.8281 4.2188 2.7188 6.6562 2.7188 2.3906 0 4.875-0.9375 6.6562-2.7188l8.9062-8.9062zm155.72-336.66 12.422 12.422 60.891-60.891c1.7344-1.7344 2.625-3.9844 2.625-6.1875-0.09375-2.0625-0.75-4.125-2.1094-5.7188l-0.51563-0.46875c-1.6406-1.7344-3.9375-2.5781-6.2812-2.5781-2.25 0-4.5469 0.84375-6.1875 2.5781l-60.891 60.891zm126.37 126.37 12.469 12.422 60.891-60.891c1.6406-1.6406 2.5312-3.9375 2.5312-6.2344 0-2.25-0.84375-4.5469-2.5312-6.2344s-3.9375-2.5312-6.2344-2.5312c-2.25 0-4.5469 0.84375-6.2344 2.5312l-60.891 60.891zm29.016 79.922-29.625-29.625-36.891-36.938-156.42-156.42-85.453 85.453c-30.609 30.609-45.938 71.016-45.938 111.42 0 26.438 6.5625 52.875 19.641 76.547l0.14062 0.23438 0.09375 0.14062c6.8906 12.375 15.609 24 26.062 34.5 30.656 30.656 71.062 45.984 111.47 45.984s80.812-15.328 111.47-45.938l85.453-85.453z"/>
</svg>
