<?xml version="1.0" encoding="UTF-8"?>
<svg width="1200pt" height="1200pt" version="1.1" viewBox="0 0 1200 1200" xmlns="http://www.w3.org/2000/svg">
 <path d="m1121.6 151.69h-1084.1v896.63h1125v-896.63zm-20.438 170.21v665.02l-1002.3 0.046876v-665.06m0-20.438v-88.406h1002.3v88.406zm102.52-31.266h-19.172v-20.438h19.172zm81.562 0h-19.125v-20.438h19.125zm-41.391 0h-19.125v-20.438h19.172zm600.94 175.03-158.72 91.641 0.046875 183.28 158.72 91.641 158.72-91.641v-183.28zm9.375 27.047 121.26 70.031-121.22 70.125zm-18.75 138.89-121.13-68.953 121.13-69.938zm-8.2969 16.875-122.34 70.781 0.09375-140.39zm8.2969 16.875v139.82l-120.94-69.844zm18.75-1.4531 123.19 70.125-123.19 71.156zm10.641-15.516 120-69.422v137.76zm-482.26-49.969h18.75v112.31h-18.75zm54.281 30.984h18.75v81.328h-18.75zm53.719 0h18.75v81.328h-18.75zm48.516-61.172h18.75v142.45h-18.75zm-363.89 30.891h18.75v112.31h-18.75zm54.281 30.984h18.75v81.328h-18.75zm53.719 0h18.75v81.328h-18.75zm48.516-61.172h18.75v142.45h-18.75z"/>
</svg>
