<?xml version="1.0" encoding="UTF-8"?>
<svg width="1200pt" height="1200pt" version="1.1" viewBox="0 0 1200 1200" xmlns="http://www.w3.org/2000/svg">
 <path d="m1120.7 771.47h-24c-4.6875-127.92-44.156-150.1-68.297-151.78-37.688-2.5312-72.938 42.844-82.219 105.47-27.094 184.45-76.172 248.16-113.02 246.14-24-1.2188-46.922-30-53.766-63 43.875-7.2188 79.359-39.562 90.609-82.594 0.75-2.7656 0.75-5.7188 0-8.4844l-43.219-157.22c0.046875-0.65625 0.046875-1.3594 0-2.0625v-403.31c-0.375-46.219-37.734-83.578-84-84h-602.48c-46.5 0.09375-84.234 37.547-84.609 84v403.92c-0.046875 0.75-0.046875 1.4531 0 2.1562l-43.219 156c-0.70312 2.8125-0.70312 5.7656 0 8.5312 12.891 49.219 57.141 83.672 108 84h626.39c7.6875 45.938 40.547 91.453 84 93.703h3.375c39.938 0 108-37.547 143.29-273.71 7.2188-48.938 32.156-78 48-78h0.70312c12 0.84375 35.156 27.375 38.625 120h-8.8594c-37.125 0-67.266 30.094-67.312 67.219v124.18c0.046875 37.125 30.188 67.219 67.312 67.219h64.688c37.078-0.046874 67.125-30.141 67.172-67.219v-123.94c-0.046875-37.078-30.094-67.125-67.172-67.219zm-980.39-569.16h602.02c28.969 0 52.453 23.484 52.453 52.453v387.71h-707.06v-387.84c0.046874-13.875 5.625-27.234 15.469-37.031s23.203-15.328 37.125-15.281zm-54.984 472.31h711.98l36 130.78-266.16 0.046875-18.469-56.766h-0.046875c-2.1094-6.6562-8.25-11.156-15.234-11.156h-184.31c-6.9375 0-13.125 4.5-15.234 11.156l-18.469 56.766h-266.16zm448.08 130.78-184.18 0.046875 12-36h160.55zm-481.45 32.203h778.69c-14.297 24.703-40.688 39.891-69.234 39.938h-640.18c-28.547-0.046875-54.938-15.234-69.281-39.938zm1104 125.06v-0.046875c-0.046874 19.359-15.703 34.969-35.016 35.062h-64.922c-19.359 0-35.109-15.656-35.156-35.062v-123.94c0.28125-19.219 15.938-34.688 35.156-34.688h64.688c19.312 0.046875 34.969 15.703 35.016 35.062zm-51.938-101.91v93.609c0 8.8594-7.2188 16.078-16.078 16.078-8.8594 0-16.078-7.2188-16.078-16.078v-93.609c0-8.9062 7.2188-16.078 16.078-16.078 8.8594 0 16.078 7.1719 16.078 16.078zm-866.39-258.98h407.26c37.594-0.046875 68.016-30.469 68.062-68.016v-222.71c-0.046875-37.594-30.469-68.016-68.062-68.062h-407.26c-37.547 0.046875-67.922 30.516-67.922 68.062v222.71c0 37.547 30.375 67.969 67.922 68.016zm-36-290.76v0.046876c0-19.922 16.125-36 36-36h407.26c19.922 0 36 16.078 36 36v222.71c0 19.875-16.078 36-36 36h-407.26c-19.875 0-36-16.125-36-36zm169.31 197.29c4.9688 2.8594 11.109 2.8594 16.078 0l124.69-72c4.9688-2.8594 8.0156-8.1562 8.0156-13.922 0-5.7188-3.0469-11.016-8.0156-13.922l-124.78-72h-0.046875c-4.9688-2.8125-11.016-2.7656-15.984 0.09375-4.9219 2.8594-7.9688 8.1094-8.0156 13.828v144c0 5.7656 3.0938 11.062 8.0625 13.922zm24-130.22 76.453 44.156-76.453 44.156z"/>
</svg>
