<?xml version="1.0" encoding="UTF-8"?>
<svg width="1200pt" height="1200pt" version="1.1" viewBox="0 0 1200 1200" xmlns="http://www.w3.org/2000/svg">
 <path d="m600 393.28c-138.74 0-251.72 112.97-251.72 251.72s112.97 251.72 251.72 251.72 251.72-112.97 251.72-251.72-112.97-251.72-251.72-251.72zm128.9 262.5c-65.625 29.531-88.828 52.734-118.36 118.36-1.875 4.2188-6.0938 6.7969-10.781 6.7969s-8.9062-2.8125-10.781-6.7969c-29.531-65.625-52.734-88.828-118.36-118.36-4.2188-1.875-6.7969-6.0938-6.7969-10.781s2.8125-8.9062 6.7969-10.781c65.625-29.531 88.828-52.734 118.36-118.36 1.875-4.2188 6.0938-6.7969 10.781-6.7969s8.9062 2.8125 10.781 6.7969c29.531 65.625 52.734 88.828 118.36 118.36 4.2188 1.875 6.7969 6.0938 6.7969 10.781s-2.5781 8.9062-6.7969 10.781zm300-184.45 42.188-47.578c6.3281-7.2656 5.8594-18.281-1.4062-24.844-7.2656-6.3281-18.281-5.8594-24.844 1.4062l-42.188 47.578c-37.969-32.109-86.016-65.625-144.14-93.047l27.656-63.047c3.9844-8.9062-0.23437-19.219-9.1406-23.203s-19.219 0.23438-23.203 9.1406l-27.656 63.047c-60.234-24.141-129.84-41.25-208.6-43.359v-72.422c0-9.6094-7.9688-17.578-17.578-17.578s-17.578 7.9688-17.578 17.578v72.656c-78.75 2.1094-148.36 19.219-208.6 43.359l-27.656-63.047c-3.9844-8.9062-14.297-12.891-23.203-9.1406-8.9062 3.9844-12.891 14.297-9.1406 23.203l27.656 63.047c-58.125 27.422-106.17 60.938-144.14 93.047l-42.188-47.578c-6.3281-7.2656-17.578-7.9688-24.844-1.4062-7.2656 6.3281-7.9688 17.578-1.4062 24.844l42.188 47.578c-78.984 73.828-128.68 154.22-128.68 173.68 0 20.625 55.078 108.75 141.56 185.39 83.438 74.062 223.13 162.19 416.02 162.19 192.66 0 332.58-88.125 416.02-162.19 86.484-76.641 141.56-165 141.56-185.39 0-19.688-49.688-100.08-128.68-173.9zm-42.891 338.68c-77.812 67.266-207.89 147.42-386.02 147.42-177.89 0-308.21-80.156-386.02-147.42-83.203-71.953-128.44-147.19-135.71-165 7.5-17.812 52.5-93.047 135.71-165 77.812-67.266 207.89-147.42 386.02-147.42 177.89 0 308.21 80.156 386.02 147.42 83.203 71.953 128.44 147.19 135.71 165-7.5 17.812-52.5 93.047-135.71 165z"/>
</svg>
