<?xml version="1.0" encoding="UTF-8"?>
<svg width="1200pt" height="1200pt" version="1.1" viewBox="0 0 1200 1200" xmlns="http://www.w3.org/2000/svg">
 <path d="m61.875 270.94h233.44v29.062c0 42.188 34.688 76.875 76.875 76.875h131.25c42.188 0 76.875-34.688 76.875-76.875v-29.062h556.88c20.625 0 36.562-16.875 36.562-36.562s-16.875-36.562-36.562-36.562h-556.88v-29.062c0-42.188-34.688-76.875-76.875-76.875h-131.25c-42.188 0-76.875 34.688-76.875 76.875v28.125h-233.44c-20.625 0-36.562 16.875-36.562 36.562s16.875 37.5 36.562 37.5zm286.88-103.12c0-13.125 10.312-23.438 22.5-23.438h131.25c13.125 0 23.438 10.312 23.438 23.438v132.19c0 12.188-10.312 22.5-23.438 22.5h-131.25c-12.188 0-22.5-10.312-22.5-22.5z"/>
 <path d="m1138.1 563.44h-233.44v-29.062c0-42.188-34.688-76.875-76.875-76.875h-131.25c-42.188 0-76.875 34.688-76.875 76.875v29.062h-557.81c-20.625 0-36.562 16.875-36.562 36.562 0 20.625 16.875 36.562 36.562 36.562h556.88v29.062c0 42.188 34.688 76.875 76.875 76.875h131.25c42.188 0 76.875-34.688 76.875-76.875v-29.062h233.44c20.625 0 36.562-16.875 36.562-36.562 0.9375-20.625-15.938-36.562-35.625-36.562zm-286.88 102.19c0 12.188-10.312 22.5-22.5 22.5h-131.25c-13.125 0-23.438-10.312-23.438-22.5v-131.25c0-13.125 10.312-23.438 23.438-23.438h131.25c12.188 0 22.5 10.312 22.5 23.438z"/>
 <path d="m1138.1 929.06h-450v-29.062c0-42.188-34.688-76.875-76.875-76.875h-131.25c-42.188 0-76.875 34.688-76.875 76.875v29.062h-341.25c-20.625 0-36.562 16.875-36.562 36.562s16.875 36.562 36.562 36.562h341.25v29.062c0 42.188 34.688 76.875 76.875 76.875h131.25c42.188 0 76.875-34.688 76.875-76.875v-28.125h450c20.625 0 36.562-16.875 36.562-36.562s-16.875-37.5-36.562-37.5zm-503.44 103.12c0 13.125-10.312 22.5-23.438 22.5h-131.25c-12.188 0-22.5-10.312-22.5-22.5v-132.19c0-13.125 10.312-22.5 22.5-22.5h131.25c13.125 0 23.438 10.312 23.438 22.5z"/>
</svg>
