<?xml version="1.0" encoding="UTF-8"?>
<svg width="1200pt" height="1200pt" version="1.1" viewBox="0 0 1200 1200" xmlns="http://www.w3.org/2000/svg">
 <path d="m384 384c-13.266 0-24 10.734-24 24s10.734 24 24 24h240c13.266 0 24-10.734 24-24s-10.734-24-24-24z"/>
 <path d="m384 480c-13.266 0-24 10.734-24 24s10.734 24 24 24h336c13.266 0 24-10.734 24-24s-10.734-24-24-24z"/>
 <path d="m384 576c-13.266 0-24 10.734-24 24s10.734 24 24 24h336c13.266 0 24-10.734 24-24s-10.734-24-24-24z"/>
 <path d="m384 672c-13.266 0-24 10.734-24 24s10.734 24 24 24h336c13.266 0 24-10.734 24-24s-10.734-24-24-24z"/>
 <path d="m612 768c-13.266 0-24 10.734-24 24s10.734 24 24 24h108c13.266 0 24-10.734 24-24s-10.734-24-24-24z"/>
 <path d="m372 120c-6.375 0-12.469 2.5312-16.969 7.0312l-144 144c-4.5 4.5-7.0312 10.594-7.0312 16.969v600c0 53.016 42.984 96 96 96 0 53.016 42.984 96 96 96h504c53.016 0 96-42.984 96-96v-672c0-53.016-42.984-96-96-96 0-53.016-42.984-96-96-96zm528 144v624c0 53.016-42.984 96-96 96h-456c0 26.531 21.469 48 48 48h504c26.531 0 48-21.469 48-48v-672c0-26.531-21.469-48-48-48zm-504-96h408c26.531 0 48 21.469 48 48v672c0 26.531-21.469 48-48 48h-504c-26.531 0-48-21.469-48-48v-576h48c53.016 0 96-42.984 96-96zm-96 96h-14.062l62.062-62.062v14.062c0 26.531-21.469 48-48 48z" fill-rule="evenodd"/>
</svg>
