<?xml version="1.0" encoding="UTF-8"?>
<svg width="1200pt" height="1200pt" version="1.1" viewBox="0 0 1200 1200" xmlns="http://www.w3.org/2000/svg">
 <path d="m583.87 142.36v-58.125c0-8.9062 7.2188-16.125 16.125-16.125s16.125 7.2188 16.125 16.125v58.172c0 8.9062-7.2188 16.125-16.125 16.125-8.9062-0.046875-16.125-7.2188-16.125-16.172zm0 134.76v-58.172c0-8.9062 7.2188-16.125 16.125-16.125s16.125 7.2188 16.125 16.125v58.172c0 8.9062-7.2188 16.125-16.125 16.125s-16.125-7.2188-16.125-16.125zm0 134.72v-58.172c0-8.9062 7.2188-16.125 16.125-16.125s16.125 7.2188 16.125 16.125v58.172c0 8.9062-7.2188 16.125-16.125 16.125s-16.125-7.2188-16.125-16.125zm448.87 525.32c3.6094-46.922-11.203-92.391-41.766-128.16-48.562-56.766-128.02-76.734-197.63-49.688-6.375 2.4844-13.641 0.65625-18.094-4.5469l-520.97-608.68-22.219 51.094c-12.469 28.688-7.7344 60 12.562 83.719l458.48 535.64c4.4531 5.2031 5.1094 12.656 1.6875 18.609-37.5 64.594-30 146.11 18.562 202.87 30.562 35.719 73.266 57.422 120.14 61.031 46.922 3.6562 92.438-11.203 128.16-41.766 35.766-30.562 57.469-73.266 61.078-120.14zm-535.87-120.61c-4.4531 5.2031-5.1094 12.656-1.6875 18.609 37.5 64.594 30 146.11-18.562 202.87-30.609 35.719-73.266 57.422-120.19 61.031-46.922 3.6562-92.391-11.203-128.16-41.766-35.766-30.562-57.422-73.266-61.078-120.14-3.6562-46.922 11.203-92.391 41.766-128.16 48.562-56.766 128.02-76.734 197.63-49.688 6.375 2.4844 13.641 0.65625 18.094-4.5469l91.547-106.97 62.531 73.031zm448.82-670.45 22.219 51.094c12.469 28.688 7.7344 60-12.562 83.719l-271.64 317.34-62.531-73.031zm69.75 641.95c-54.938-64.219-143.26-88.594-222.89-62.625l-87.609-102.38 274.87-321.19c28.547-33.328 35.109-77.297 17.672-117.52l-32.484-74.719c-4.7344-10.922-19.266-13.078-27.047-4.0781l-337.97 394.92-338.02-394.92c-7.7344-9-22.266-6.8438-27 4.0781l-32.484 74.719c-17.484 40.266-10.875 84.188 17.625 117.52l274.92 321.19-87.609 102.38c-79.641-25.969-167.95-1.5469-222.89 62.625-36.188 42.281-53.719 96.094-49.453 151.6 8.9062 115.08 109.5 200.53 223.82 191.58 55.5-4.3125 105.98-30 142.18-72.234 54.938-64.219 65.438-155.21 27.469-229.87l71.438-83.484 71.438 83.484c-37.969 74.672-27.469 165.66 27.469 229.87 74.953 87.609 206.44 97.547 293.76 22.828 42.281-36.188 67.922-86.672 72.234-142.13 4.3125-55.5-13.266-109.36-49.453-151.64zm-98.016 205.87c-38.859 33.234-97.453 28.688-130.69-10.125s-28.688-97.453 10.125-130.69c38.859-33.234 97.453-28.688 130.69 10.125 33.281 38.859 28.734 97.453-10.125 130.69zm-141.47-165.28c52.312-44.766 131.34-38.672 176.11 13.688 44.766 52.312 38.672 131.34-13.688 176.11-52.359 44.812-131.21 38.859-176.11-13.688-44.766-52.312-38.625-131.34 13.688-176.11zm-362.76 155.16c-33.234 38.812-91.875 43.359-130.69 10.125-38.859-33.234-43.406-91.828-10.125-130.69 33.328-38.953 91.875-43.359 130.69-10.125 38.816 33.234 43.359 91.828 10.125 130.69zm10.828-155.16c52.312 44.766 58.453 123.79 13.688 176.11-44.906 52.453-123.94 58.312-176.11 13.688-52.312-44.766-58.453-123.79-13.688-176.11 44.766-52.359 123.79-58.5 176.11-13.688z" fill-rule="evenodd"/>
</svg>
