<?xml version="1.0" encoding="UTF-8"?>
<svg width="1200pt" height="1200pt" version="1.1" viewBox="0 0 1200 1200" xmlns="http://www.w3.org/2000/svg">
 <path d="m165.61 577.45c4.4531 1.5469 7.6875 5.5312 8.0625 10.219 2.5312 26.859 7.6875 53.062 15.375 77.531 1.4531 4.5469 0 9.4688-3.4688 12.609l-65.391 57.703 96.938 144.61 78.234-38.625c4.2188-2.1562 9.375-1.4531 12.938 1.5469 19.781 16.453 41.859 31.078 65.859 43.688 4.2188 2.1562 6.7031 6.6094 6.375 11.391l-5.5312 87.234 170.86 33.703 28.078-82.781c1.5469-4.4531 5.5312-7.6875 10.219-8.0625 19.312-1.7812 38.156-5.0625 56.391-9.4688l-6.6094-24.609c-1.5469-5.7656 1.4531-11.859 6.9375-14.156l40.312-16.781c0.60938-9.7031 1.9219-19.547 3.9375-29.391l-34.781-26.625c-4.7812-3.7031-6.1406-10.312-3.1406-15.469l51.141-88.781c3-5.1562 9.375-7.4531 15-5.1562l40.453 16.688c7.5469-6.7031 15.375-12.703 23.531-18.141l-5.7656-43.312c-0.84375-6 3-11.625 8.7656-13.219l98.859-26.625c5.7656-1.5469 11.859 1.4531 14.156 6.9375l16.781 40.312c9.7031 0.60938 19.547 1.9219 29.391 3.9375l26.625-34.688c3.7031-4.7812 10.312-6.1406 15.469-3.1406l17.766 10.219 15.938-80.766-82.781-28.078c-4.4531-1.5469-7.6875-5.5312-8.0625-10.219-2.5312-26.859-7.6875-53.062-15.375-77.531-1.4531-4.5469 0-9.4688 3.4688-12.609l65.391-57.703-96.938-144.61-78.234 38.625c-4.2188 2.1562-9.375 1.5469-12.938-1.5469-19.781-16.453-41.859-31.078-65.859-43.688-4.2188-2.1562-6.7031-6.6094-6.375-11.391l5.5312-87.234-170.86-33.703-28.078 82.781c-1.5469 4.4531-5.5312 7.6875-10.219 8.0625-26.859 2.5312-53.062 7.6875-77.531 15.375-4.5469 1.4531-9.4688 0-12.609-3.4688l-57.703-65.391-144.71 96.938 38.625 78.234c2.0625 4.2188 1.4531 9.375-1.5469 12.938-16.453 19.781-31.078 41.859-43.688 65.859-2.1562 4.2188-6.7031 6.6094-11.391 6.375l-87.234-5.5312-33.703 170.86 82.781 28.078zm226.92-55.828c8.2969-41.859 32.297-78 67.781-101.77 35.391-23.766 78-32.297 119.86-24s78 32.297 101.77 67.781c23.766 35.391 32.297 78 24 119.86s-32.297 78-67.688 101.77c-26.625 17.859-57.234 27.141-88.688 27.141-10.312 0-20.766-0.9375-31.219-3-41.859-8.2969-78-32.297-101.77-67.781-23.766-35.391-32.297-78-24-119.86z"/>
 <path d="m522.94 685.69c35.531 6.9375 71.766-0.23438 101.86-20.391 30.141-20.156 50.531-50.859 57.609-86.531 6.9375-35.531-0.23438-71.766-20.391-101.86-20.156-30.141-50.859-50.531-86.531-57.609-8.8594-1.7812-17.766-2.625-26.531-2.625-26.625 0-52.688 7.9219-75.375 23.062-30.141 20.156-50.531 50.859-57.609 86.531-7.0781 35.625 0.23438 71.766 20.391 101.86 20.156 30.141 50.859 50.531 86.531 57.609z"/>
 <path d="m979.22 652.31-24.844 32.531c-2.8594 3.7031-7.6875 5.5312-12.375 4.3125-13.453-3.2344-26.859-5.0625-39.938-5.2969-4.7812 0-9-3-10.781-7.4531l-15.703-37.688-78.609 21.234 5.2969 40.453c0.60938 4.6875-1.5469 9.375-5.625 11.766-11.156 6.8438-21.844 15.141-31.781 24.609-3.4688 3.2344-8.5312 4.2188-12.844 2.3906l-37.781-15.609-40.547 70.547 32.531 24.844c3.7031 2.8594 5.5312 7.6875 4.3125 12.375-3.2344 13.453-5.0625 26.859-5.2969 39.938 0 4.7812-3 9-7.3125 10.781l-37.688 15.703 21.234 78.609 40.453-5.2969c4.6875-0.60938 9.375 1.5469 11.766 5.625 6.8438 11.156 15.141 21.844 24.609 31.781 3.2344 3.4688 4.2188 8.5312 2.3906 12.844l-15.609 37.781 70.547 40.547 24.844-32.531c2.2969-3 5.8594-4.6875 9.4688-4.6875 0.9375 0 1.7812 0 2.7656 0.375 13.453 3.2344 26.859 5.0625 39.938 5.2969 4.7812 0 9 3 10.781 7.4531l15.703 37.688 78.609-21.234-5.2969-40.453c-0.60938-4.6875 1.5469-9.375 5.625-11.766 11.156-6.8438 21.844-15.141 31.781-24.609 3.4688-3.2344 8.5312-4.2188 12.844-2.3906l37.781 15.609 40.547-70.547-32.391-24.844c-3.7031-2.8594-5.5312-7.6875-4.3125-12.375 3.2344-13.453 5.0625-26.859 5.2969-39.938 0-4.7812 3-9 7.3125-10.781l37.688-15.703-21.234-78.609-40.453 5.2969c-4.6875 0.60938-9.375-1.5469-11.766-5.625-6.8438-11.156-15.141-21.844-24.609-31.781-3.2344-3.4688-4.2188-8.5312-2.3906-12.844l15.609-37.781zm-4.3594 268.45c-16.547 28.781-46.688 44.859-77.766 44.859-15.141 0-30.469-3.8438-44.531-11.859-42.703-24.609-57.609-79.453-32.859-122.29 11.859-20.766 31.219-35.531 54.234-41.766 23.062-6.2344 47.156-3.1406 67.922 8.8594s35.531 31.219 41.766 54.234c6.2344 23.062 3.1406 47.156-8.8594 67.922z"/>
 <path d="m930 819.37c-10.078-5.7656-21.234-8.7656-32.531-8.7656-5.7656 0-11.531 0.70312-17.156 2.2969-16.922 4.5469-30.938 15.375-39.703 30.609-18 31.312-7.2188 71.391 24.141 89.531 31.312 18 71.391 7.2188 89.531-24.141 8.7656-15.141 11.062-32.859 6.4688-49.688-4.5469-16.922-15.375-30.938-30.609-39.703z"/>
</svg>
