<?xml version="1.0" encoding="UTF-8"?>
<svg width="1200pt" height="1200pt" version="1.1" viewBox="0 0 1200 1200" xmlns="http://www.w3.org/2000/svg">
 <path d="m937.5 262.5v187.5h187.5z"/>
 <path d="m900 450v-187.5h-412.5c-20.711 0-37.5 16.789-37.5 37.5v787.5c0 20.711 16.789 37.5 37.5 37.5h600c20.711 0 37.5-16.789 37.5-37.5v-600h-187.5c-20.711 0-37.5-16.789-37.5-37.5zm-225 562.5c0 20.711-16.789 37.5-37.5 37.5h-75c-20.711 0-37.5-16.789-37.5-37.5v-75c0-20.711 16.789-37.5 37.5-37.5h75c20.711 0 37.5 16.789 37.5 37.5zm0-187.5c0 20.711-16.789 37.5-37.5 37.5h-75c-20.711 0-37.5-16.789-37.5-37.5v-75c0-20.711 16.789-37.5 37.5-37.5h75c20.711 0 37.5 16.789 37.5 37.5zm0-187.5c0 20.711-16.789 37.5-37.5 37.5h-75c-20.711 0-37.5-16.789-37.5-37.5v-75c0-20.711 16.789-37.5 37.5-37.5h75c20.711 0 37.5 16.789 37.5 37.5zm187.5 375c0 20.711-16.789 37.5-37.5 37.5h-75c-20.711 0-37.5-16.789-37.5-37.5v-75c0-20.711 16.789-37.5 37.5-37.5h75c20.711 0 37.5 16.789 37.5 37.5zm0-187.5c0 20.711-16.789 37.5-37.5 37.5h-75c-20.711 0-37.5-16.789-37.5-37.5v-75c0-20.711 16.789-37.5 37.5-37.5h75c20.711 0 37.5 16.789 37.5 37.5zm0-187.5c0 20.711-16.789 37.5-37.5 37.5h-75c-20.711 0-37.5-16.789-37.5-37.5v-75c0-20.711 16.789-37.5 37.5-37.5h75c20.711 0 37.5 16.789 37.5 37.5zm187.5 375c0 20.711-16.789 37.5-37.5 37.5h-75c-20.711 0-37.5-16.789-37.5-37.5v-75c0-20.711 16.789-37.5 37.5-37.5h75c20.711 0 37.5 16.789 37.5 37.5zm0-187.5c0 20.711-16.789 37.5-37.5 37.5h-75c-20.711 0-37.5-16.789-37.5-37.5v-75c0-20.711 16.789-37.5 37.5-37.5h75c20.711 0 37.5 16.789 37.5 37.5zm0-262.5v75c0 20.711-16.789 37.5-37.5 37.5h-75c-20.711 0-37.5-16.789-37.5-37.5v-75c0-20.711 16.789-37.5 37.5-37.5h75c20.711 0 37.5 16.789 37.5 37.5z"/>
 <path d="m525 225v-150h-412.5c-20.711 0-37.5 16.789-37.5 37.5v787.5c0 20.711 16.789 37.5 37.5 37.5h300v-75h-37.5c-20.711 0-37.5-16.789-37.5-37.5v-75c0-20.711 16.789-37.5 37.5-37.5h37.5v-37.5h-37.5c-20.711 0-37.5-16.789-37.5-37.5v-75c0-20.711 16.789-37.5 37.5-37.5h37.5v-37.5h-37.5c-20.711 0-37.5-16.789-37.5-37.5v-75c0-20.711 16.789-37.5 37.5-37.5h37.5v-37.5c0-41.344 33.656-75 75-75zm-225 600c0 20.711-16.789 37.5-37.5 37.5h-75c-20.711 0-37.5-16.789-37.5-37.5v-75c0-20.711 16.789-37.5 37.5-37.5h75c20.711 0 37.5 16.789 37.5 37.5zm0-187.5c0 20.711-16.789 37.5-37.5 37.5h-75c-20.711 0-37.5-16.789-37.5-37.5v-75c0-20.711 16.789-37.5 37.5-37.5h75c20.711 0 37.5 16.789 37.5 37.5zm0-187.5c0 20.711-16.789 37.5-37.5 37.5h-75c-20.711 0-37.5-16.789-37.5-37.5v-75c0-20.711 16.789-37.5 37.5-37.5h75c20.711 0 37.5 16.789 37.5 37.5z"/>
 <path d="m562.5 75v150h150z"/>
 <path d="m562.5 562.5h75v75h-75z"/>
 <path d="m750 562.5h75v75h-75z"/>
 <path d="m937.5 562.5h75v75h-75z"/>
 <path d="m562.5 750h75v75h-75z"/>
 <path d="m750 750h75v75h-75z"/>
 <path d="m937.5 750h75v75h-75z"/>
 <path d="m562.5 937.5h75v75h-75z"/>
 <path d="m187.5 375h75v75h-75z"/>
 <path d="m187.5 562.5h75v75h-75z"/>
 <path d="m187.5 750h75v75h-75z"/>
 <path d="m375 375h37.5v75h-37.5z"/>
 <path d="m375 562.5h37.5v75h-37.5z"/>
 <path d="m375 750h37.5v75h-37.5z"/>
 <path d="m750 937.5h75v75h-75z"/>
 <path d="m937.5 937.5h75v75h-75z"/>
</svg>
