<?xml version="1.0" encoding="UTF-8"?>
<svg width="1200pt" height="1200pt" version="1.1" viewBox="0 0 1200 1200" xmlns="http://www.w3.org/2000/svg">
 <path d="m328.71 598.93c2.7266-3.1992 6.7188-5.0352 10.922-5.0312 0.42188 0 0.83984 0 1.2617 0.058594l181.54-0.19141v0.003907c6.7617 0.027343 13.238 2.7305 18.016 7.5156 4.7773 4.7852 7.4688 11.27 7.4844 18.031v136.68h56.398c7.9062 0 14.316 6.4102 14.316 14.316h0.058593v36.191h3.3867c3.8164 0 7.4805 1.5156 10.18 4.2188 2.7031 2.6992 4.2188 6.3633 4.2188 10.18v275.43c-0.023438 11.578-4.6328 22.676-12.824 30.863-8.1875 8.1836-19.289 12.789-30.867 12.805h-476.4c-11.574-0.019531-22.672-4.625-30.859-12.809-8.1875-8.1875-12.797-19.281-12.82-30.859v-375.7c0-3.8203 1.5195-7.4844 4.2188-10.184s6.3633-4.2188 10.184-4.2188h113.38c3.8906-0.003906 7.6172 1.5742 10.32 4.3711l42.109 36.875 0.070313-66.07v-0.003906c-0.17578-3.9922 1.332-7.8789 4.1523-10.715l71.578-71.785zm490.8-533.72-71.566 71.785v-0.003906c-2.8281 2.8359-4.3359 6.7266-4.1523 10.727l-0.085937 66.059-42.098-36.863h0.003907c-2.7031-2.8008-6.4297-4.3789-10.32-4.3789h-113.4c-3.8164 0-7.4805 1.5195-10.18 4.2188-2.7031 2.6992-4.2188 6.3633-4.2188 10.184v375.67c0.023437 11.578 4.6367 22.68 12.828 30.863 8.1914 8.1875 19.293 12.789 30.875 12.805h476.4c11.574-0.019532 22.672-4.625 30.859-12.812 8.1875-8.1836 12.797-19.281 12.82-30.855v-275.46c0-3.8203-1.5195-7.4805-4.2188-10.184-2.6992-2.6992-6.3633-4.2188-10.184-4.2188h-3.3945v-36.152c0-7.9102-6.4062-14.324-14.316-14.328h-56.398v-136.71c-0.007812-6.7734-2.7031-13.27-7.4922-18.062-4.7891-4.7891-11.281-7.4883-18.059-7.4961l-181.55 0.23828h-1.2617c-4.1953 0.003907-8.1836 1.8359-10.918 5.0195zm-166.71 496.45v-260.14h445.71v261.09c-0.023437 3.9492-1.6016 7.7305-4.3906 10.527-2.793 2.793-6.5742 4.375-10.523 4.3984h-433.77c1.9375-5.0703 2.9297-10.449 2.9297-15.875zm192-472.8 165.24-0.16797v184.08l-237.79 0.003907v-36.086l0.085937-75.215h41.797c8.1445 0.027344 15.961-3.1953 21.719-8.9531 5.7578-5.7578 8.9805-13.574 8.9531-21.719v-42zm-52.176 43.906 23.375-23.492v21.602-0.003906c-0.003906 0.49219-0.20312 0.96484-0.55078 1.3086-0.34375 0.36328-0.8125 0.58203-1.3086 0.61328zm-630.62 962.62c0.007812 5.4258-0.98438 10.801-2.9297 15.863h433.73c3.9492-0.019532 7.7305-1.5977 10.527-4.3906 2.793-2.793 4.375-6.5742 4.3984-10.523v-261.13h-445.73zm192-472.8v42.004c-0.003906 8.1094-3.2305 15.883-8.9688 21.613s-13.52 8.9453-21.633 8.9375h-41.797l-0.13281 111.36h237.79v-184.08l-165.25 0.17188zm-52.164 43.906h21.602v0.003907c0.49609-0.027344 0.96094-0.25 1.293-0.625 0.35547-0.33594 0.5625-0.80469 0.56641-1.2969v-21.602l-23.426 23.496zm132.43-397.08 12.961 3.793h-0.003907c-65.16 28.48-120.61 75.344-159.54 134.85-38.938 59.508-59.68 129.07-59.684 200.19 0 7.9102 6.4102 14.316 14.316 14.316s14.316-6.4062 14.316-14.316c0.03125-67.91 20.574-134.23 58.93-190.28 38.355-56.047 92.742-99.203 156.04-123.82l-8.2695 28.344c-1.9688 7.5156 2.4141 15.23 9.875 17.391 7.4648 2.1602 15.289-2.0195 17.641-9.4219l15.984-54.828c1.0586-3.6484 0.62109-7.5664-1.2109-10.891-1.832-3.3281-4.9102-5.7891-8.5586-6.8477l-54.828-15.984c-7.5938-2.1992-15.535 2.1758-17.734 9.7695s2.1719 15.535 9.7695 17.734zm318 678.07v0.003906c7.4414 2.3281 11.656 10.176 9.4844 17.664-2.1719 7.4883-9.9336 11.867-17.465 9.8516l-54.145-15.793c-3.9258-0.94922-7.2734-3.5078-9.2227-7.0469-1.9492-3.543-2.3203-7.7383-1.0273-11.562l15.793-54.145c1.0586-3.6484 3.5195-6.7266 6.8438-8.5586 3.3281-1.832 7.2461-2.2656 10.895-1.2109 7.5938 2.1992 11.965 10.141 9.7656 17.738l-8.2305 28.379c55.051-21.32 103.55-56.707 140.65-102.63 37.102-45.918 61.512-100.77 70.789-159.07 0.58203-3.7539 2.6289-7.1211 5.6953-9.3633 3.0625-2.2422 6.8906-3.1758 10.645-2.5977 7.8125 1.2109 13.168 8.5273 11.957 16.34-9.6328 60.719-34.402 118.04-72.02 166.67-37.617 48.629-86.871 87.004-143.22 111.59z" fill-rule="evenodd"/>
</svg>
