<?xml version="1.0" encoding="UTF-8"?>
<svg width="1200pt" height="1200pt" version="1.1" viewBox="0 0 1200 1200" xmlns="http://www.w3.org/2000/svg">
 <path d="m937.5 0h-75c-10.359 0-18.75 8.3906-18.75 18.75s8.3906 18.75 18.75 18.75h56.25v56.25c0 10.359 8.3906 18.75 18.75 18.75s18.75-8.3906 18.75-18.75v-75c0-10.359-8.3906-18.75-18.75-18.75z"/>
 <path d="m262.5 112.5c10.359 0 18.75-8.3906 18.75-18.75v-56.25h56.25c10.359 0 18.75-8.3906 18.75-18.75s-8.3906-18.75-18.75-18.75h-75c-10.359 0-18.75 8.3906-18.75 18.75v75c0 10.359 8.3906 18.75 18.75 18.75z"/>
 <path d="m356.26 693.74c0-10.359-8.3906-18.75-18.75-18.75h-56.25v-56.25c0-10.359-8.3906-18.75-18.75-18.75-10.359 0-18.75 8.3906-18.75 18.75v75c0 10.359 8.3906 18.75 18.75 18.75h75c10.359 0 18.75-8.3906 18.75-18.75z"/>
 <path d="m937.5 600c-10.359 0-18.75 8.3906-18.75 18.75v56.25h-56.25c-10.359 0-18.75 8.3906-18.75 18.75s8.3906 18.75 18.75 18.75h75c10.359 0 18.75-8.3906 18.75-18.75v-75c0-10.359-8.3906-18.75-18.75-18.75z"/>
 <path d="m882 748.69c-17.672-0.14062-34.312 5.7656-47.625 16.406-13.125-10.5-29.578-16.406-46.875-16.406s-33.75 5.9062-46.875 16.453c-13.125-10.5-29.578-16.453-46.875-16.453-6.375 0-12.656 0.84375-18.75 2.3438v-104.3c131.26-33.797 225-153.56 225-290.53 0-165.42-134.58-300-300-300s-300 134.58-300 300c0 136.97 93.75 256.74 225 290.53v240.71c-5.7656-6.2344-12-12.844-18.516-19.406-54.75-55.406-79.875-61.828-93.984-61.828-60.938 0-84.188 20.203-88.266 24.234-6.0938 6.0938-7.2656 15.656-2.7188 23.062l162.37 265.69c30.469 49.781 85.594 80.766 144 80.766h159.66c93.047 0 168.74-75.703 168.74-168.74v-206.26c0-41.625-33.281-75.891-74.25-76.266zm-357.05-261.19v40.594c-67.312-29.438-112.5-96.891-112.5-171.84 0-103.41 84.094-187.5 187.5-187.5 103.36 0 187.5 84.094 187.5 187.5 0 75-45.188 142.4-112.5 171.84v-39.375c0-20.438-8.4375-40.406-23.062-54.797-14.484-14.203-33.469-21.844-53.344-21.469-40.547 0.75-73.547 34.406-73.547 75zm-187.5-131.26c0-144.74 117.75-262.5 262.5-262.5s262.5 117.75 262.5 262.5c0 116.53-77.578 218.9-187.5 251.63v-39.516c88.969-31.5 150-116.72 150-212.16 0-124.03-100.97-225-225-225-124.08 0-225 100.97-225 225 0 95.438 61.031 180.66 150 212.16v39.516c-109.92-32.719-187.5-135.1-187.5-251.63zm581.26 675c0 72.375-58.875 131.26-131.26 131.26h-159.66c-45.375 0-88.312-24.094-111.98-62.812l-152.16-248.95c9.75-3.4688 25.406-6.9844 48.75-6.9844 1.7812 0 18.562 1.4062 67.125 50.484 26.859 27.141 49.312 54.797 49.594 55.078 4.9688 6.1875 13.312 8.5312 20.812 5.8594 7.5-2.625 12.469-9.75 12.469-17.672v-450c0-20.297 16.5-37.125 36.75-37.5 9.75-0.1875 19.125 3.6562 26.391 10.734 7.5 7.4062 11.812 17.625 11.812 28.031v293.02c0 7.4062 4.3125 14.109 11.109 17.109 6.75 3 14.625 1.7812 20.156-3.1406 6.8906-6.1875 15.75-9.5625 24.984-9.5625 12.562 0 24.281 6.2812 31.266 16.781 3.4688 5.25 9.3281 8.3438 15.609 8.3438s12.141-3.1406 15.609-8.3438c6.9844-10.5 18.656-16.781 31.266-16.781 12.562 0 24.281 6.2812 31.266 16.781 3.4688 5.25 9.3281 8.3438 15.609 8.3438s12.141-3.1406 15.609-8.3438c7.0781-10.641 18.984-16.875 31.641-16.781 20.438 0.1875 37.125 17.625 37.125 38.812v206.26z"/>
</svg>
