<?xml version="1.0" encoding="UTF-8"?>
<svg width="1200pt" height="1200pt" version="1.1" viewBox="0 0 1200 1200" xmlns="http://www.w3.org/2000/svg">
 <path d="m1142.6 810.38-168.75-447.38c-1.3398-3.5898-3.75-6.6797-6.8984-8.8594-3.1523-2.1797-6.8945-3.3398-10.727-3.3281h-61.688v-124.12c0.51172-5.5586-1.4805-11.059-5.4375-15l-150-150c-3.5391-3.5078-8.3281-5.4648-13.312-5.4375h-344.62c-19.891 0-38.969 7.9023-53.031 21.969-14.066 14.062-21.969 33.141-21.969 53.031v219.56h-62.438c-3.832-0.011719-7.5742 1.1484-10.727 3.3281-3.1484 2.1797-5.5586 5.2695-6.8984 8.8594l-168.75 447.38c-0.57031 2.1484-0.94531 4.3477-1.125 6.5625v233.06c0 24.863 9.8789 48.711 27.457 66.293 17.582 17.578 41.43 27.457 66.293 27.457h900c24.863 0 48.711-9.8789 66.293-27.457 17.578-17.582 27.457-41.43 27.457-66.293v-233.06c-0.17969-2.2148-0.55469-4.4141-1.125-6.5625zm-696-542.44h153.38c6.6992 0 12.887 3.5742 16.238 9.375 3.3477 5.8008 3.3477 12.949 0 18.75-3.3516 5.8008-9.5391 9.375-16.238 9.375h-153.38c-6.6992 0-12.887-3.5742-16.238-9.375-3.3477-5.8008-3.3477-12.949 0-18.75 3.3516-5.8008 9.5391-9.375 16.238-9.375zm0 85.688h314.81c6.6992 0 12.887 3.5742 16.238 9.375 3.3477 5.8008 3.3477 12.949 0 18.75-3.3516 5.8008-9.5391 9.375-16.238 9.375h-314.81c-6.6992 0-12.887-3.5742-16.238-9.375-3.3477-5.8008-3.3477-12.949 0-18.75 3.3516-5.8008 9.5391-9.375 16.238-9.375zm0 85.688h314.81c6.6992 0 12.887 3.5742 16.238 9.375 3.3477 5.8008 3.3477 12.949 0 18.75-3.3516 5.8008-9.5391 9.375-16.238 9.375h-314.81c-6.6992 0-12.887-3.5742-16.238-9.375-3.3477-5.8008-3.3477-12.949 0-18.75 3.3516-5.8008 9.5391-9.375 16.238-9.375zm0 85.688h314.81c6.6992 0 12.887 3.5742 16.238 9.375 3.3477 5.8008 3.3477 12.949 0 18.75-3.3516 5.8008-9.5391 9.375-16.238 9.375h-314.81c-6.6992 0-12.887-3.5742-16.238-9.375-3.3477-5.8008-3.3477-12.949 0-18.75 3.3516-5.8008 9.5391-9.375 16.238-9.375zm0 85.688h314.81c6.6992 0 12.887 3.5742 16.238 9.375 3.3477 5.8008 3.3477 12.949 0 18.75-3.3516 5.8008-9.5391 9.375-16.238 9.375h-314.81c-6.6992 0-12.887-3.5742-16.238-9.375-3.3477-5.8008-3.3477-12.949 0-18.75 3.3516-5.8008 9.5391-9.375 16.238-9.375zm-189.94-222.38h48.75v294c0 19.891 7.9023 38.969 21.969 53.031 14.062 14.066 33.141 21.969 53.031 21.969h438.38c19.891 0 38.969-7.9023 53.031-21.969 14.066-14.062 21.969-33.141 21.969-53.031v-294h48.75l154.5 409.88h-359.06c-4.9727 0-9.7422 1.9766-13.258 5.4922-3.5156 3.5156-5.4922 8.2852-5.4922 13.258 0 42.605-22.73 81.973-59.625 103.27-36.895 21.301-82.355 21.301-119.25 0-36.895-21.301-59.625-60.668-59.625-103.27 0-4.9727-1.9766-9.7422-5.4922-13.258-3.5156-3.5156-8.2852-5.4922-13.258-5.4922h-359.81z"/>
</svg>
