<?xml version="1.0" encoding="UTF-8"?>
<svg width="1200pt" height="1200pt" version="1.1" viewBox="0 0 1200 1200" xmlns="http://www.w3.org/2000/svg">
 <path d="m884.81 1154.3h-569.63c-70.312 0-127.5-57.188-127.5-127.5v-868.13c0-62.25 50.625-113.06 113.06-113.06h598.5c62.25 0 113.06 50.625 113.06 113.06v244.87c0 34.875-28.312 63.188-63.375 63.188-14.25 0-25.688 11.625-25.688 25.688v209.44c0 5.0625 1.5 9.9375 4.125 14.062l65.438 100.12c12.562 19.312 19.312 41.812 19.312 64.875v145.69c0 70.312-57.188 127.5-127.5 127.5zm-584.06-1071c-41.625 0-75.562 33.938-75.562 75.562v868.13c0 49.5 40.312 90 90 90h569.63c49.5 0 90-40.312 90-90v-145.69c0-15.75-4.5-31.125-13.312-44.438l-65.438-100.12c-6.75-10.312-10.312-22.312-10.312-34.688v-209.44c0-34.875 28.312-63.188 63.188-63.188 14.25 0 25.875-11.625 25.875-25.688v-244.87c0-41.625-33.938-75.562-75.562-75.562z"/>
 <path d="m294.94 263.26c-10.312 0-18.75-8.4375-18.75-18.75v-100.12c0-10.312 8.4375-18.75 18.75-18.75s18.75 8.4375 18.75 18.75v100.12c0 10.312-8.4375 18.75-18.75 18.75z"/>
 <path d="m383.26 263.26c-10.312 0-18.75-8.4375-18.75-18.75v-100.12c0-10.312 8.4375-18.75 18.75-18.75s18.75 8.4375 18.75 18.75v100.12c0 10.312-8.4375 18.75-18.75 18.75z"/>
 <path d="m471.74 263.26c-10.312 0-18.75-8.4375-18.75-18.75v-100.12c0-10.312 8.4375-18.75 18.75-18.75s18.75 8.4375 18.75 18.75v100.12c0 10.312-8.4375 18.75-18.75 18.75z"/>
 <path d="m560.06 263.26c-10.312 0-18.75-8.4375-18.75-18.75v-100.12c0-10.312 8.4375-18.75 18.75-18.75s18.75 8.4375 18.75 18.75v100.12c0 10.312-8.4375 18.75-18.75 18.75z"/>
 <path d="m642.56 263.26c-10.312 0-18.75-8.4375-18.75-18.75v-100.12c0-10.312 8.4375-18.75 18.75-18.75s18.75 8.4375 18.75 18.75v100.12c0 10.312-8.4375 18.75-18.75 18.75z"/>
 <path d="m730.87 263.26c-10.312 0-18.75-8.4375-18.75-18.75v-100.12c0-10.312 8.4375-18.75 18.75-18.75s18.75 8.4375 18.75 18.75v100.12c0 10.312-8.4375 18.75-18.75 18.75z"/>
 <path d="m819.37 263.26c-10.312 0-18.75-8.4375-18.75-18.75v-100.12c0-10.312 8.4375-18.75 18.75-18.75s18.75 8.4375 18.75 18.75v100.12c0 10.312-8.4375 18.75-18.75 18.75z"/>
 <path d="m907.69 263.26c-10.312 0-18.75-8.4375-18.75-18.75v-100.12c0-10.312 8.4375-18.75 18.75-18.75s18.75 8.4375 18.75 18.75v100.12c0 10.312-8.4375 18.75-18.75 18.75z"/>
 <path d="m425.63 1154.3c-10.312 0-18.75-8.4375-18.75-18.75v-334.69h-65.812c-10.312 0-18.75-8.4375-18.75-18.75v-167.63c0-10.312 8.4375-18.75 18.75-18.75s18.75 8.4375 18.75 18.75v148.87h65.812c10.312 0 18.75 8.4375 18.75 18.75v353.44c0 10.312-8.4375 18.75-18.75 18.75z"/>
 <path d="m341.06 633.37c-37.125 0-67.312-30.188-67.312-67.312s30.188-67.312 67.312-67.312 67.312 30.188 67.312 67.312-30.188 67.312-67.312 67.312zm0-97.312c-16.5 0-29.812 13.312-29.812 29.812s13.312 29.812 29.812 29.812 29.812-13.312 29.812-29.812-13.312-29.812-29.812-29.812z"/>
 <path d="m482.81 498c-37.125 0-67.312-30.188-67.312-67.312s30.188-67.312 67.312-67.312 67.312 30.188 67.312 67.312-30.188 67.312-67.312 67.312zm0-97.312c-16.5 0-29.812 13.312-29.812 29.812s13.312 29.812 29.812 29.812 29.812-13.312 29.812-29.812-13.312-29.812-29.812-29.812z"/>
 <path d="m760.5 523.31c-37.125 0-67.312-30.188-67.312-67.312s30.188-67.312 67.312-67.312 67.312 30.188 67.312 67.312-30.188 67.312-67.312 67.312zm0-97.125c-16.5 0-29.812 13.312-29.812 29.812s13.312 29.812 29.812 29.812 29.812-13.312 29.812-29.812-13.312-29.812-29.812-29.812z"/>
 <path d="m809.06 1000.7c-37.125 0-67.312-30.188-67.312-67.312s30.188-67.312 67.312-67.312 67.312 30.188 67.312 67.312-30.188 67.312-67.312 67.312zm0-97.312c-16.5 0-29.812 13.312-29.812 29.812s13.312 29.812 29.812 29.812 29.812-13.312 29.812-29.812-13.312-29.812-29.812-29.812z"/>
 <path d="m560.06 1154.3c-10.312 0-18.75-8.4375-18.75-18.75v-471.37h-58.5c-10.312 0-18.75-8.4375-18.75-18.75v-166.31c0-10.312 8.4375-18.75 18.75-18.75s18.75 8.4375 18.75 18.75v147.56h58.5c10.312 0 18.75 8.4375 18.75 18.75v490.13c0 10.312-8.4375 18.75-18.75 18.75z"/>
 <path d="m654.37 1154.3c-10.312 0-18.75-8.4375-18.75-18.75v-370.5c0-10.312 8.4375-18.75 18.75-18.75h87.188v-241.87c0-10.312 8.4375-18.75 18.75-18.75s18.75 8.4375 18.75 18.75v260.63c0 10.312-8.4375 18.75-18.75 18.75h-87.188v351.74c0 10.312-8.4375 18.75-18.75 18.75z"/>
 <path d="m808.87 1154.3c-10.312 0-18.75-8.4375-18.75-18.75v-153.74c0-10.312 8.4375-18.75 18.75-18.75s18.75 8.4375 18.75 18.75v153.74c0 10.312-8.4375 18.75-18.75 18.75z"/>
</svg>
