<?xml version="1.0" encoding="UTF-8"?>
<svg width="1200pt" height="1200pt" version="1.1" viewBox="0 0 1200 1200" xmlns="http://www.w3.org/2000/svg">
 <path d="m669.94 452.06h-62.484l-30.141-30.188c-12.75-12.75-30.047-19.922-48.141-19.875h-59.109c-37.594 0.046875-68.016 30.469-68.062 68.062v279.94c0.046875 26.484 21.516 47.953 48 48h270c43.078-0.046875 77.953-34.922 78-78v-120c-0.046875-36.141-24.844-67.5-60-75.891v-4.1719c-0.09375-37.5-30.516-67.875-68.062-67.875zm-207.94 147.94v150c0 6.6094-5.3906 12-12 12s-12-5.3906-12-12v-279.94c0-17.719 14.344-32.062 32.062-32.062h59.109c8.5312-0.046875 16.688 3.3281 22.734 9.375l35.391 35.391c3.3281 3.375 7.9219 5.2969 12.703 5.2969h69.938c17.672-0.046875 32.016 14.25 32.062 31.875v2.0625h-162c-43.078 0.046875-77.953 34.922-78 78zm300 0v120c-0.046875 23.203-18.797 41.953-42 42h-223.55c1.0312-3.9375 1.5469-7.9688 1.5469-12v-150c0.046875-23.203 18.797-41.953 42-42h180c23.203 0.046875 41.953 18.797 42 42z"/>
 <path d="m600 942c-66.375 0.1875-131.39-19.172-186.84-55.688-25.312-16.312-48.281-36.047-68.203-58.688-0.14062-0.14062-0.32812-0.1875-0.46875-0.375v0.046875c-0.98438-0.9375-2.0156-1.7344-3.1875-2.4375-0.75-0.60938-1.5938-1.1719-2.4844-1.6406-2.2031-0.65625-4.5-1.1719-6.7969-1.5938-0.1875 0-0.375-0.14062-0.5625-0.14062l-0.046875 0.046875c-0.84375 0.09375-1.7344 0.28125-2.5781 0.51562-2.5781 0.09375-5.0156 1.0312-7.0312 2.6719-0.79688 0.375-1.5469 0.79688-2.25 1.2656-0.14062 0.14062-0.1875 0.32812-0.375 0.46875-0.84375 0.9375-1.6406 1.9688-2.2969 3.0469-1.4531 1.5-2.3438 3.4219-2.5312 5.5312-0.42188 1.2656-0.70312 2.5781-0.79688 3.9375 0 0.1875-0.09375 0.375-0.09375 0.5625v72h-0.046875c0 9.9375 8.0625 18 18 18 9.9844 0 18-8.0625 18-18v-28.688c13.828 12.328 28.594 23.578 44.156 33.656 88.312 57.562 196.69 75.656 298.87 49.875 102.23-25.781 189.05-93.094 239.48-185.68s59.953-202.03 26.203-301.87c-3.2344-9.4219-13.406-14.438-22.828-11.25-9.375 3.1406-14.438 13.312-11.344 22.734 35.344 104.39 18.188 219.42-46.078 308.95-64.219 89.578-167.68 142.69-277.87 142.74z"/>
 <path d="m868.6 270.47c-9.9844 0-18 8.0625-18 18v28.688c-13.828-12.328-28.594-23.578-44.156-33.656-88.312-57.562-196.69-75.656-298.87-49.875-102.23 25.781-189.05 93.094-239.48 185.68s-59.953 202.03-26.203 301.87c3.2344 9.4219 13.406 14.438 22.828 11.25 9.375-3.1406 14.438-13.312 11.344-22.734-30.938-90.422-22.547-189.66 23.062-273.61 45.609-83.953 124.31-144.94 216.98-168.24 92.672-23.25 190.87-6.6094 270.74 45.844 25.312 16.312 48.281 36.047 68.203 58.688 0.14062 0.14062 0.32812 0.1875 0.46875 0.375v-0.046876c0.9375 0.9375 2.0156 1.7344 3.1406 2.3906 1.5469 1.4531 3.5156 2.3438 5.625 2.5312 1.2188 0.375 2.4375 0.60937 3.7031 0.75 0.1875 0 0.375 0.14062 0.5625 0.14062l0.046875-0.046874c0.89062-0.09375 1.7344-0.28125 2.625-0.51563 2.5312-0.09375 5.0156-1.0312 6.9844-2.6719 0.79688-0.375 1.5469-0.79688 2.25-1.2656 0.14062-0.14062 0.1875-0.32812 0.375-0.46875 0.84375-0.9375 1.6406-1.9688 2.2969-3.0469 1.4531-1.5 2.3438-3.4219 2.5312-5.5312 0.42188-1.2656 0.70312-2.5781 0.79688-3.9375 0-0.1875 0.09375-0.375 0.09375-0.5625v-72h0.046875c-0.046875-9.9375-8.0625-18-18-18z"/>
</svg>
