<?xml version="1.0" encoding="UTF-8"?>
<svg width="1200pt" height="1200pt" version="1.1" viewBox="0 0 1200 1200" xmlns="http://www.w3.org/2000/svg">
 <path d="m600.54 410.36c-7.7695-1.6211-15.688-2.4414-23.625-2.4375-20.477-0.44141-40.609 5.3164-57.758 16.516-17.148 11.195-30.516 27.316-38.348 46.242-17.859 39.312-29.32 53.898-87.742 63.387-110.22 3.7656-157.88 86.75-156.83 167.38 1.1406 87.41 60.234 176.32 170.98 177.13l-0.003906 0.003907c44.828-0.67578 87.715-18.402 119.94-49.578 32.223-31.172 51.355-73.449 53.512-118.23 1.5-66.598 12.043-80.062 52.93-104.55v-0.003906c32.125-19.516 51.848-54.277 52.121-91.867 0.39844-24.605-7.9414-48.559-23.535-67.598s-37.434-31.934-61.637-36.395zm-65.016 298.79c-14.617 76.895-65.008 126.57-128.38 126.57-33.988-0.21094-66.527-13.789-90.586-37.797-24.059-24.008-37.703-56.516-37.988-90.504-2.1133-39.824 13.43-78.555 42.48-105.88 24.203-20.77 56.645-29.188 87.891-22.812 57.297 9.7852 94.535 28.07 113.85 55.871v0.003906c14.359 22.02 18.969 49 12.734 74.539zm43.043-130.57c-17.047 0-33.398-6.7734-45.457-18.828-12.055-12.055-18.828-28.406-18.828-45.457 0-17.051 6.7734-33.402 18.828-45.457 12.059-12.055 28.41-18.828 45.457-18.828 17.051 0 33.402 6.7734 45.457 18.828 12.059 12.055 18.828 28.406 18.828 45.457-0.015625 17.043-6.7969 33.387-18.848 45.438-12.051 12.051-28.391 18.828-45.438 18.848z"/>
 <path d="m405.34 599.84c-5.6484-0.97656-11.367-1.4727-17.098-1.4883-19.504-0.28516-38.43 6.6172-53.176 19.391-24.215 23.113-37.043 55.707-35.07 89.125 0.16797 28.391 11.504 55.57 31.551 75.672 20.051 20.098 47.203 31.5 75.594 31.742 63.836 0 97.297-56.375 107.33-109.14h-0.003906c5.1719-19.887 1.8047-41.027-9.2891-58.32-15.855-22.844-48.52-38.211-99.84-46.98zm1.8008 171.59c-17.051 0-33.402-6.7734-45.457-18.828-12.059-12.059-18.832-28.41-18.832-45.457 0-17.051 6.7734-33.402 18.832-45.457 12.055-12.059 28.406-18.832 45.457-18.832 17.047 0 33.398 6.7734 45.457 18.832 12.055 12.055 18.828 28.406 18.828 45.457-0.019532 17.043-6.7969 33.383-18.852 45.434-12.051 12.055-28.391 18.832-45.434 18.852z"/>
 <path d="m835.71 707.14c-28.418 0-55.668 11.285-75.762 31.379s-31.383 47.348-31.383 75.762c0 28.418 11.289 55.668 31.383 75.762s47.344 31.383 75.762 31.383c28.414 0 55.668-11.289 75.762-31.383s31.379-47.344 31.379-75.762c-0.03125-28.406-11.332-55.637-31.418-75.723s-47.316-31.387-75.723-31.418zm0 171.43v-0.003907c-17.051 0-33.402-6.7734-45.457-18.828-12.055-12.055-18.828-28.406-18.828-45.457 0-17.051 6.7734-33.402 18.828-45.457 12.055-12.055 28.406-18.828 45.457-18.828 17.051 0 33.402 6.7734 45.457 18.828s18.828 28.406 18.828 45.457c-0.019531 17.043-6.7969 33.387-18.848 45.438-12.055 12.051-28.395 18.828-45.438 18.848z"/>
 <path d="m992.25 1003h-30.855l25.625 25.605h-815.59v-815.59l25.605 25.625v-30.855l-36.32-36.32-36.32 36.32v30.855l25.605-25.625v837.02h837.02l-25.625 25.605h30.855l36.32-36.32z"/>
 <path d="m450 707.14c0 23.668-19.188 42.855-42.855 42.855-23.672 0-42.859-19.188-42.859-42.855 0-23.672 19.188-42.859 42.859-42.859 23.668 0 42.855 19.188 42.855 42.859z"/>
 <path d="m621.43 514.29c0 23.668-19.188 42.859-42.859 42.859-23.668 0-42.855-19.191-42.855-42.859 0-23.668 19.188-42.855 42.855-42.855 23.672 0 42.859 19.188 42.859 42.855z"/>
 <path d="m878.57 814.29c0 23.668-19.188 42.859-42.855 42.859-23.668 0-42.859-19.191-42.859-42.859 0-23.668 19.191-42.855 42.859-42.855 23.668 0 42.855 19.188 42.855 42.855z"/>
</svg>
