<?xml version="1.0" encoding="UTF-8"?>
<svg width="1200pt" height="1200pt" version="1.1" viewBox="0 0 1200 1200" xmlns="http://www.w3.org/2000/svg">
 <path d="m228.1 469.87-130.13 130.13 130.13 130.13v-65.25c0-8.6719 7.0312-15.75 15.75-15.75h134.29c24.984 0 9.1875 42.797 69.562 103.12 60.281 60.281 103.12 44.578 103.08 69.562h0.046875v134.34c0 8.6719-7.0312 15.75-15.75 15.75h-65.25l130.18 130.13 130.13-130.13h-65.25c-8.6719 0-15.75-7.0312-15.75-15.75l0.046876-134.29c0-24.562 30.375-4.0312 103.17-69.516l-0.046874-0.046875c60.281-60.281 44.578-103.12 69.562-103.08v-0.046875h134.29c8.6719 0 15.75 7.0312 15.75 15.75v65.25l130.13-130.18-130.13-130.13v65.25c0 8.6719-7.0312 15.75-15.75 15.75l-134.29-0.046875c-24.562 0-4.0312-30.375-69.516-103.17l-0.046874 0.046875c-60.281-60.281-103.08-44.578-103.08-69.562h-0.046874v-134.29c0-8.6719 7.0312-15.75 15.75-15.75h65.25l-130.18-130.13-130.13 130.13h65.25c8.6719 0 15.75 7.0312 15.75 15.75v134.29c0 24.562-34.312 5.625-103.92 70.312-24 22.312-44.625 59.812-53.719 91.031-1.9688 6.8438-8.25 11.297-15.047 11.297v0.046875h-134.34c-8.6719 0-15.75-7.0312-15.75-15.75zm447.56 54.469c67.219 67.219 19.406 182.68-75.656 182.68s-142.87-115.45-75.656-182.68c41.766-41.812 109.5-41.812 151.31 0zm-0.09375 75.656c0 41.766-33.844 75.562-75.562 75.562-67.172 0-100.88-81.562-53.438-129 47.484-47.484 129-13.641 129 53.438zm-610.92-11.109 167.81-167.81c10.125-10.359 27.141-3.0938 27.141 10.875v87.469h107.11c24.609-71.438 81.188-128.06 152.68-152.68v-107.2h-87.469c-13.875 0-21.047-16.922-11.109-26.812l168.1-168.1c6.1406-6.1406 16.078-6.1406 22.219 0l167.81 167.81c10.359 10.125 3.0938 27.141-10.828 27.141h-87.469v107.16c35.25 12.141 67.266 32.062 93.938 58.734l-0.046875 0.046875c26.766 26.812 46.641 58.594 58.781 93.891h107.16v-87.469c0-13.875 16.922-21.047 26.859-11.109l168.1 168.1c6.1406 6.1406 6.1406 16.078 0 22.219l-167.86 167.76c-10.125 10.359-27.094 3.0938-27.094-10.875v-87.469h-107.16c-12.141 35.25-32.062 67.266-58.734 93.938l-0.046875-0.046875c-26.812 26.766-58.594 46.641-93.891 58.781v107.11h87.469c13.875 0 21.047 16.922 11.109 26.812l-168.1 168.19c-6.1406 6.1406-16.078 6.1406-22.219 0l-167.81-167.81c-10.359-10.125-3.0938-27.094 10.828-27.094h87.469v-107.16c-71.578-24.656-128.02-81.094-152.68-152.68h-107.16v87.469c0 13.875-16.922 21.047-26.812 11.109l-168.1-168.1c-6.1406-6.1406-6.1406-16.078 0-22.219z" fill-rule="evenodd"/>
</svg>
