<?xml version="1.0" encoding="UTF-8"?>
<svg width="1200pt" height="1200pt" version="1.1" viewBox="0 0 1200 1200" xmlns="http://www.w3.org/2000/svg">
 <path d="m712.87 290.81c75.375-61.125 99.562-161.26 100.69-166.13 2.25-10.125-3.9375-20.25-14.062-22.5-232.13-54.188-301.13 51.938-321.56 119.81 0 0.1875-2.25 8.25-4.5 19.312-66.375-80.812-166.13-98.062-167.44-98.25-10.312-1.6875-19.875 5.25-21.562 15.562-1.6875 10.125 5.25 19.875 15.375 21.562 5.625 0.9375 114 20.438 166.31 117.38-168.74 57-285 216.74-285 396.56 0 230.81 187.87 418.69 418.69 418.69 230.82 0 418.69-187.87 418.69-418.69 0-190.69-126.19-353.44-306-403.13zm-160.31-122.81c44.812-42.562 118.31-53.812 219-33.562-11.812 34.875-43.875 110.25-109.69 145.5-40.875 21.938-88.875 24.938-143.26 9.5625 29.062-38.438 103.31-118.88 207.94-109.31 10.312 0.75 19.5-6.75 20.438-17.062s-6.75-19.5-17.062-20.438c-100.31-9-174.74 49.312-217.13 95.25 6.1875-23.25 18-49.125 39.938-69.938zm-24.75 197.44c-2.0625-12.938-4.875-25.312-8.25-36.75 12.938 3.1875 25.688 5.625 37.875 6.9375-2.8125 1.5-5.625 3.375-7.5 6.375-6.5625 10.312-14.25 17.812-22.312 23.438zm72.188 709.69c-210.19 0-381.19-171-381.19-381.19 0-164.81 107.06-311.06 262.31-362.06 4.6875 14.25 8.25 30 10.5 46.875-21.375 2.625-39-2.4375-40.688-3-9.9375-3.1875-20.438 2.25-23.625 12.188s2.25 20.438 12 23.625c9.9375 3.1875 23.625 5.625 38.812 5.625 33.938 0 75.938-12 103.5-55.125 5.4375-8.625 3-19.688-5.25-25.5 2.0625 0 4.125 0.375 6.1875 0.375 30 0 58.125-6.375 84.375-18.188 182.26 32.438 314.06 189.19 314.06 375.19 0 210.19-171 381.19-381.19 381.19z"/>
 <path d="m295.13 566.44c6 0 11.812-2.8125 15.375-8.0625l7.3125-10.5c6-8.4375 3.9375-20.25-4.6875-26.062-8.4375-6-20.25-3.9375-26.062 4.6875l-7.3125 10.5c-6 8.4375-3.9375 20.25 4.6875 26.062 3.1875 2.25 7.125 3.375 10.688 3.375z"/>
 <path d="m355.13 591.74 8.0625-13.125c5.4375-8.8125 2.625-20.438-6.1875-25.875s-20.438-2.625-25.875 6.1875l-8.0625 13.125c-5.4375 8.8125-2.625 20.438 6.1875 25.875 3 1.875 6.375 2.8125 9.75 2.8125 6.375 0 12.562-3.1875 15.938-9z"/>
 <path d="m424.69 523.13c-9.1875-4.6875-20.438-0.9375-25.125 8.25l-4.125 8.0625c-4.6875 9.1875-0.9375 20.438 8.25 25.125 2.8125 1.3125 5.625 2.0625 8.4375 2.0625 6.9375 0 13.5-3.75 16.688-10.312l4.125-8.0625c4.6875-9.1875 0.9375-20.438-8.25-25.125z"/>
 <path d="m294.56 631.5c1.875-10.125-5.0625-19.875-15.188-21.75-10.312-1.6875-19.875 5.0625-21.75 15.188l-2.8125 15.75c-1.875 10.125 5.0625 19.875 15.188 21.75 1.125 0.1875 2.25 0.375 3.375 0.375 9 0 16.875-6.375 18.375-15.562z"/>
 <path d="m371.06 627.74c-10.125-2.625-20.25 3.5625-22.875 13.5l-2.625 10.312c-2.625 9.9375 3.375 20.25 13.5 22.875 1.5 0.375 3.1875 0.5625 4.6875 0.5625 8.4375 0 15.938-5.625 18.188-14.062l2.625-10.312c2.625-9.9375-3.375-20.25-13.5-22.875z"/>
 <path d="m318.74 698.81c-9.9375-3.1875-20.438 2.4375-23.438 12.188l-2.8125 9.1875c-3.1875 9.9375 2.4375 20.438 12.188 23.438 1.875 0.5625 3.75 0.9375 5.625 0.9375 7.875 0 15.375-5.0625 17.812-13.125l2.8125-9.1875c3.1875-9.9375-2.4375-20.438-12.188-23.438z"/>
 <path d="m789.74 429.56c3.75 4.125 8.8125 6.1875 14.062 6.1875 4.5 0 9-1.5 12.562-4.6875 7.6875-6.9375 8.4375-18.75 1.5-26.438l-8.625-9.5625c-6.9375-7.6875-18.75-8.4375-26.438-1.5s-8.4375 18.75-1.5 26.438l8.625 9.5625z"/>
 <path d="m769.13 432.56c-6.375-8.0625-18.188-9.5625-26.25-3.1875s-9.5625 18.188-3.1875 26.25l9.5625 12.188c3.75 4.6875 9.1875 7.125 14.812 7.125 4.125 0 8.25-1.3125 11.625-3.9375 8.0625-6.375 9.5625-18.188 3.1875-26.25l-9.5625-12.188z"/>
 <path d="m698.06 413.26c-5.8125-8.625-17.438-10.875-26.062-5.25-8.625 5.8125-10.875 17.438-5.25 26.062l5.0625 7.5c3.5625 5.4375 9.5625 8.4375 15.562 8.4375 3.5625 0 7.125-0.9375 10.312-3.1875 8.625-5.8125 10.875-17.438 5.25-26.062l-5.0625-7.5z"/>
 <path d="m850.13 489.37c-3-9.9375-13.5-15.562-23.438-12.562s-15.562 13.5-12.562 23.438l4.6875 15.375c2.4375 8.0625 9.9375 13.312 18 13.312 1.875 0 3.5625-0.1875 5.4375-0.75 9.9375-3 15.562-13.5 12.562-23.438z"/>
 <path d="m762.19 516.37c-3.75-9.5625-14.625-14.438-24.188-10.688s-14.438 14.625-10.688 24.188l3.9375 9.9375c2.8125 7.5 9.9375 12 17.438 12 2.25 0 4.5-0.375 6.75-1.3125 9.5625-3.75 14.438-14.625 10.688-24.188z"/>
 <path d="m823.13 579.37c-4.3125-9.375-15.375-13.688-24.75-9.375s-13.688 15.375-9.375 24.75l3.9375 8.8125c3.1875 6.9375 9.9375 11.062 17.062 11.062 2.625 0 5.25-0.5625 7.6875-1.6875 9.375-4.3125 13.688-15.375 9.375-24.75z"/>
</svg>
