<?xml version="1.0" encoding="UTF-8"?>
<svg width="1200pt" height="1200pt" version="1.1" viewBox="0 0 1200 1200" xmlns="http://www.w3.org/2000/svg">
 <path d="m492.01 661.91c4.4766-7.5586-19.246-12.359-23.773-20.797-28.234 14.16-87.059 68.41-106.96 11.879-67.367 19.766-108.62 65.688-172.33 89.148-9.168-0.74219-16.777-3.0234-23.746-5.9648-10.344 1.5586-13.715 10.066-17.832 17.855-7.2461-2.6641-12.875-6.9375-23.762-5.9648-16.883-39.434 31.234-78.301 56.461-103.98-1.2344-86.809 106.59-132.5 148.55-187.18 25.176 6.9258 40.355-0.15625 44.578 20.785 22.547-4.1992 22.414-31.055 53.473-26.734 19.957 53.137-46.727 61.727-68.328 92.09 32.398-4.2734 66.109-48.758 95.074-56.461 13.957 0.91016 7.9453 21.793 14.844 29.734-7.4023 3.4688-13.164 8.6172-17.809 14.844 36.527-9 52.754-38.375 92.09-44.578 4.0664 7.8477 3.5391 20.281 5.9531 29.734-47.387 43.703-109.07 73.152-148.55 124.79 42-7.6094 84.758-55.754 118.82-71.316 28.32-30.109 47.328-69.539 89.16-86.172 26.363 38.543-11.051 54.168-35.676 77.258-4.1523 3.8984-2.0898 10.547-5.9297 14.844-16.297 18.254-43.691 25.727-50.52 41.617 64.414-41.555 115.38-96.59 178.27-139.64 10.668 10.285 14.734 8.8789 26.734 17.809 4.2227 21.012 3.2656 39.109-8.9023 50.52 39.457-21.961 88.117-60.469 142.62-77.258 8.2188 6.6367 5.3633 24.348 8.9023 35.664-68.438 37.512-126.32 85.609-190.14 127.74 95.34-11.605 139.62-100.02 216.89-139.62 8.3516 0.53906 12.66 5.1602 11.891 14.855 20.242 2.543 29.207-11.195 50.496-14.855 32.074 26.605 1.8008 45.48-14.855 65.363-25.957 31.008-60.227 87.492-80.23 112.91 66.949-29.148 111.52-106.39 172.32-151.52 13.094 0.75781 7.3789 20.34 14.855 26.734 12.254-3.6133 13.273-18.434 29.734-17.832 13.105 2.7344 9.168 22.512 26.723 20.797-4.3906 13.234 2.125 15.359 2.9766 29.734-20.699 15.938-46.199 27.086-65.352 44.543 5.6641 7.4297 12.887-3.6836 20.785 2.9766-6.2383 14.566-20.809 20.773-35.664 26.746-2.2578-8.6289-14.676-7.1055-17.82-14.855-33.145 10.523-61.859 62.605-98.051 41.594-19.414 6.2891-29.711 31.715-50.508 32.699-34.355 1.6328-45.203-38.258-23.762-68.328 0.91016-6.8516-8.5781-3.3242-8.9141-8.9297-26.594 8.1484-60.371 42.434-86.16 5.9531-24.121 17.242-81.07 45.086-98.051 2.9766-13.094 11.426-42.805 17.52-53.473 0-10.246 5.9141-55.43 57.66-83.219 50.484-8.5898-2.2109-29.469-32.832-11.891-32.68zm-240.67 8.918c-9.4688 2.5312-9.1797-4.6914-14.844-5.9531-13.547 15.191-34.859 22.57-44.566 41.578 21.574-10.078 46.848-16.52 59.41-35.625zm558.59-68.34c-10.957 3.9258-19.824 9.875-26.734 17.82 11.84-3.0117 26.062-3.625 26.734-17.82zm172.32 17.809c-5.9023-6.8047-21.793 12.312-17.82 14.855 3.0391-7.8711 13.754-8.0508 17.82-14.855z" fill-rule="evenodd"/>
</svg>
