<?xml version="1.0" encoding="UTF-8"?>
<svg width="1200pt" height="1200pt" version="1.1" viewBox="0 0 1200 1200" xmlns="http://www.w3.org/2000/svg">
 <path d="m1128 1022.7c-4-50.668-54.668-109.33-152-178.67-65.332-45.332-124-93.332-170.67-130.67-36-28-65.332-52-89.332-69.332 105.33-141.33 93.332-342.67-33.332-468-68-68-157.33-105.33-253.33-105.33s-185.33 37.332-253.33 105.33-105.33 157.33-105.33 253.33 37.332 185.33 105.33 253.33 157.33 105.33 253.33 105.33c77.332 0 153.33-25.332 214.67-72 17.332 24 41.332 54.668 69.332 89.332 37.332 46.668 85.332 105.33 130.67 170.67 72 102.67 133.33 152 185.33 152 24 0 46.668-10.668 66.668-30.668 25.328-22.66 34.664-46.66 31.996-74.66zm-512-406.67c-49.332 49.332-116 77.332-186.67 77.332s-137.33-28-186.67-77.332c-102.67-102.67-102.67-270.67 0-373.33 49.332-49.332 116-77.332 186.67-77.332s137.33 28 186.67 77.332c104 102.66 104 270.66 0 373.33z"/>
</svg>
