<?xml version="1.0" encoding="UTF-8"?>
<svg width="1200pt" height="1200pt" version="1.1" viewBox="0 0 1200 1200" xmlns="http://www.w3.org/2000/svg">
 <path d="m306.14 1036.5c4.7812 2.25 6.7969 7.9219 4.5938 12.656-2.25 4.7812-7.9219 6.7969-12.656 4.5938-0.51562-0.23438-51.328-23.766-82.594-15.656-29.906 7.7344-45.188 43.453-45.328 43.828-1.5469 3.6562-5.0625 5.8594-8.8125 5.8594-1.2188 0-2.4844-0.23438-3.6562-0.75-4.8281-2.0156-7.125-7.5938-5.1094-12.422 0.75-1.8281 18.984-44.766 58.172-54.938 37.828-9.8438 93.047 15.75 95.391 16.828zm-85.406-147.52c-100.45 13.875-159.66 100.88-181.13 139.08-6.4219-11.531-14.391-21.375-23.953-29.438-4.0312-3.375-10.031-2.8594-13.406 1.125-3.375 4.0312-2.8594 10.031 1.125 13.406 22.781 19.219 35.062 51.422 36.516 95.719 0.1875 5.1562 4.4062 9.2344 9.5156 9.2344h0.32812c5.25-0.1875 9.375-4.5938 9.2344-9.8438-0.70312-21.797-3.8906-41.156-9.5156-57.891 10.031-20.203 68.062-127.87 173.9-142.5 104.95-14.484 196.26 48.797 214.87 62.766 0.09375 20.156 3.375 41.109 9.8906 62.672 1.2656 4.125 5.0156 6.7969 9.0938 6.7969 0.89062 0 1.8281-0.14062 2.7656-0.42188 5.0156-1.5 7.875-6.8438 6.375-11.859-12.047-39.984-12.094-77.297-0.14062-110.91 1.7812-4.9688-0.84375-10.406-5.7656-12.188-4.9688-1.7812-10.406 0.79688-12.188 5.7656-4.3125 12.094-7.2188 24.609-8.7656 37.5-32.953-22.781-118.73-72.844-218.76-59.016zm438.66 8.3438c-41.719-45.516-65.625-107.02-65.625-168.71 0-3 1.4062-5.7656 3.75-7.5938 2.3906-1.7812 5.4375-2.3906 8.3438-1.5938 73.078 20.484 150.94 30.844 231.37 30.844 80.438 0 158.29-10.406 231.37-30.844 2.8594-0.79688 5.9531-0.23438 8.3438 1.5938 2.3906 1.7812 3.75 4.5938 3.75 7.5938 0 61.688-23.906 123.19-65.625 168.71-45.375 49.547-108.56 76.828-177.84 76.828-69.281 0-132.42-27.281-177.84-76.828zm376.69-63.281c-35.016 7.5-114.05 22.078-198.89 22.078s-163.82-14.578-198.89-22.078c34.828 68.484 103.92 121.03 198.89 121.03 94.969 0.046875 164.06-52.547 198.89-121.03zm-422.9-92.906c1.3594 24.188 6.6094 48.328 15.516 71.203 20.906 4.9219 110.77 24.703 208.55 24.703 97.875 0 187.69-19.781 208.55-24.703 8.8594-22.922 14.156-47.062 15.516-71.203-71.109 18.703-146.44 28.172-224.06 28.172-77.625 0.046875-152.95-9.4219-224.06-28.172zm321.66 264.37c-0.42188 0.23438-43.312 22.828-97.594 22.828s-97.172-22.594-97.594-22.828c-4.6406-2.4844-10.406-0.75-12.891 3.8906s-0.75 10.406 3.8906 12.891c1.9219 1.0312 47.344 25.078 106.59 25.078s104.72-24.094 106.59-25.078c4.6406-2.4844 6.375-8.25 3.8906-12.891-2.4844-4.5938-8.25-6.3281-12.891-3.8906zm-394.31-675.61c-110.53 12.703-215.34 48.234-311.63 105.61-16.266 9.7031-34.125 14.344-51.797 14.344-31.078 0-61.453-14.438-81.141-41.297l-1.125-1.5469c-22.922-31.266-25.781-73.594-7.2656-107.81 32.906-60.703 104.06-166.78 211.18-194.76 97.5-25.5 199.92 3.5156 268.74 32.344 38.344 16.078 63.234 54.75 61.922 96.281-1.6406 49.547-39.797 91.172-88.875 96.844zm-162.24-216.24c-21.656 0-43.5 2.0625-65.156 6.8906l66.234 225.32c35.578-11.719 71.906-20.953 108.98-27.562l-52.594-200.06c-18.75-2.9062-38.016-4.5938-57.469-4.5938zm-83.578 11.719c-42.094 13.078-78.188 39.375-108 69.422l68.109 204.28c34.547-18.328 70.125-34.031 106.55-47.016zm-56.906 282.98-65.953-197.76c-30.141 33.938-52.781 70.547-67.5 97.688-15.047 27.75-12.703 62.109 5.8594 87.469l1.125 1.5469c25.031 34.172 71.391 43.547 107.81 21.844 6.1875-3.7031 12.422-7.2656 18.656-10.781zm372.52-175.92c1.0781-33.656-19.078-65.062-50.203-78.094-29.344-12.281-65.016-24.609-103.73-32.438l50.766 193.26c10.359-1.5938 20.719-3 31.172-4.2188 39.75-4.5938 70.734-38.344 72-78.516zm-314.81 322.92c3.2812 0 6.4688-1.6875 8.25-4.7344 0.32812-0.5625 34.266-58.219 82.547-72.141 49.266-14.156 121.97 5.4844 122.68 5.6719 5.0625 1.4062 10.312-1.5938 11.719-6.6562s-1.5938-10.312-6.6562-11.719c-3.1875-0.89062-78.516-21.281-132.98-5.625-55.547 15.984-92.203 78.234-93.75 80.859-2.625 4.5469-1.0781 10.359 3.4688 13.031 1.4531 0.89062 3.0938 1.3125 4.7344 1.3125zm901.92-279.71c-5.6719 6.0469-139.78 148.64-216.52 161.29-8.0156 1.3125-16.078 1.9688-24.047 1.9688-72.422 0-139.08-52.031-152.63-104.81-14.812-57.562 47.578-238.08 50.25-245.76 1.5469-4.4062 6-7.0312 10.594-6.2812 123.28 20.812 235.08 81.469 332.21 180.37 3.5625 3.7031 3.6562 9.5156 0.14062 13.219zm-375.66 19.125c20.812-1.4531 65.859-1.4062 108.42 19.688 45.422 22.5 69.609 71.719 78.234 92.906 33.094-16.359 72.094-47.531 104.86-76.781-103.83-28.219-195.74-70.969-273.61-127.26-8.3906 32.672-15.516 65.766-17.906 91.453zm169.08 120.05c-7.6875-18.656-29.625-63.656-69.094-83.25-39.797-19.734-83.297-18.938-100.83-17.578 0.14062 5.9531 0.65625 11.156 1.7344 15.375 12.797 49.688 84.844 100.36 155.11 88.781 4.1719-0.65625 8.5312-1.8281 13.078-3.3281zm186.32-145.55c-91.781-91.266-192.47-145.97-307.36-166.97-6.7969 20.062-16.125 49.688-24.844 81.281 80.109 59.203 175.97 103.5 285.1 131.76 21.234-19.734 38.344-37.031 47.109-46.078zm-401.34 158.76c-4.5938 2.5781-6.2344 8.3906-3.6562 12.984 24.562 43.828 66.938 68.484 126.05 73.312 0.28125 0 0.51562 0.046875 0.79688 0.046875 4.9219 0 9.0938-3.75 9.4688-8.7656 0.42188-5.25-3.4688-9.8438-8.7188-10.266-53.109-4.3594-89.391-25.172-110.95-63.609-2.5781-4.6406-8.3906-6.2812-12.984-3.7031z"/>
</svg>
