<?xml version="1.0" encoding="UTF-8"?>
<svg width="1200pt" height="1200pt" version="1.1" viewBox="0 0 1200 1200" xmlns="http://www.w3.org/2000/svg">
 <path d="m1068 445.2c20.398-20.398 36-58.801 36-87.602v-134.4c0-27.602-26.398-49.199-58.801-48l-100.8 7.1992c-26.398 1.1992-68.398 13.199-92.398 25.199l-220.8 110.4c-19.199 9.6016-54 9.6016-73.199 0l-220.8-110.4c-24-12-64.801-22.801-92.398-25.199l-91.199-6c-32.398-2.3984-58.801 19.199-58.801 48v135.6c0 28.801 15.602 67.199 34.801 88.801l37.199 39.602c1.1992 7.1992 1.1992 13.199 2.3984 20.398-8.3984 2.3984-30 14.398-30 14.398-24 13.199-43.199 48-43.199 78v274.8c0 30 20.398 64.801 46.801 78l102 54c20.398 10.801 51.602 18 78 18 6 0 10.801 0 15.602-1.1992l212.4-28.801c22.801-3.6016 64.801-3.6016 88.801 0l212.4 27.602c4.8008 1.1992 10.801 1.1992 16.801 1.1992 26.398 0 57.602-7.1992 76.801-16.801l110.4-55.199c26.398-13.199 48-46.801 48-76.801v-274.8c0-30-20.398-64.801-46.801-79.199 0 0-20.398-10.801-24-12 2.3984-10.801 3.6016-22.801 4.8008-34.801zm-867.6 85.199c-1.1992-1.1992-3.6016-9.6016-4.8008-12 0-1.1992-1.1992-3.6016-1.1992-4.8008-1.1992-3.6016-3.6016-15.602-3.6016-16.801-1.1992-6-2.3984-27.602-2.3984-31.199v-12c0-6 1.1992-9.6016 1.1992-12 1.1992 1.1992 13.199 16.801 18 25.199 0 8.3984 2.3984 50.398 2.3984 50.398s1.1992 26.398 2.3984 28.801c0 2.3984 0 6 1.1992 9.6016-1.1992-2.3984-3.6016-6-4.8008-8.3984-2.3945-6-7.1914-15.598-8.3945-16.801zm16.801 100.8c-1.1992 4.8008-1.1992 8.4023-2.3984 13.199l-6 6c0-1.1992-1.1992-2.3984-1.1992-3.6016-2.3984-9.6016-4.8008-28.801-4.8008-40.801 0-6 1.1992-13.199 2.3984-21.602 4.8008 4.8008 9.6016 8.3984 15.602 9.6016 1.1992 3.6016 2.3984 6 3.6016 9.6016zm66 51.602c0 2.3984 0 6-1.1992 8.3984-8.3984 7.1992-18 16.801-24 21.602-6 6-14.398 12-19.199 14.398l-1.1992-1.1992c-2.3984-7.1992-6-20.398-7.1992-30-1.1992-4.8008 1.1992-21.602 4.8008-40.801 1.1992-6 2.3984-12 3.6016-18l1.1992-7.1992c2.3984 2.3984 3.6016 3.6016 6 4.8008 6 4.8008 12 8.3984 18 9.6016 3.6016 1.1992 7.1992 1.1992 12 1.1992 3.6016 0 7.1992 0 12-1.1992-1.2031 14.398-3.6055 27.598-4.8047 38.398zm16.801-72c0 3.6016 1.1992 7.1992 1.1992 9.6016-1.1992 0-18 3.6016-24 3.6016h-6c-3.6016-1.1992-12-7.1992-18-14.398-1.1992-2.3984-2.3984-3.6016-3.6016-6 0 0-3.6016-8.3984-6-14.398 0 0-2.3984-8.3984-3.6016-13.199-1.1992-4.8008-3.6016-21.602-3.6016-24 0-3.6016-2.3984-36-2.3984-36l-1.1992-26.398c-1.1992-9.6016-1.1992-19.199-1.1992-27.602 0-14.398 1.1992-24 1.1992-26.398 0 0 2.3984 0 3.6016 1.1992 6 3.6016 22.801 22.801 37.199 45.602l20.398 31.199c2.3984 3.6016 12 21.602 13.199 25.199v1.1992s-3.6016 20.398-4.8008 24c0 2.3984-1.1992 9.6016-1.1992 12 0 2.3984-1.1992 18-1.1992 21.602-1.1953 4.7891 0.003906 9.5898 0.003906 13.191zm67.199 160.8c-8.3984 18-22.801 33.602-27.602 36-4.8008 2.3984-18 3.6016-19.199 3.6016-2.3984-1.1992-8.3984-8.3984-12-18-3.6016-10.801-7.1992-28.801-7.1992-40.801 0-9.6016 1.1992-30 2.3984-50.398 0-6 1.1992-12 1.1992-16.801 0-1.1992 3.6016-25.199 6-36 2.3984 3.6016 3.6016 7.1992 6 9.6016 2.3984 3.6016 4.8008 6 8.3984 8.3984 9.6016 7.1992 26.398 14.398 43.199 18-1.1992 6 0 13.199 1.1992 20.398l7.1992 25.199c1.1992 3.6016 1.1992 6 2.3984 9.6016-1.1914 9.5977-7.1914 20.398-11.992 31.199zm7.1992-108c-13.199-2.3984-27.602-8.3984-33.602-13.199-1.1992-1.1992-18-34.801-18-34.801 0-2.3984-1.1992-14.398-1.1992-14.398 0-2.3984 1.1992-28.801 2.3984-32.398 0-3.6016 13.199-58.801 13.199-58.801 3.6016-16.801 8.3984-28.801 12-34.801 4.8008 2.3984 12 6 19.199 10.801 8.3984 6 26.398 26.398 37.199 48 4.8008 8.3984 7.1992 19.199 9.6016 31.199 1.1992 4.8008 1.1992 8.3984 2.3984 13.199 0 1.1992-1.1992 28.801-1.1992 28.801l-2.3984 20.398c0 3.6016-3.6016 28.801-4.8008 32.398-1.1992 3.6016-2.3984 6-2.3984 8.3984h-6c-2.3984-3.5977-25.195-4.7969-26.398-4.7969zm108 99.598c-1.1992 10.801-6 28.801-9.6016 38.398-2.3984 4.8008-12 10.801-24 9.6016-10.801-1.1992-24-9.6016-27.602-19.199-3.6016-9.6016-10.801-30-16.801-50.398-1.1992-6-12-42-12-42-1.1992-3.6016-1.1992-8.3984-1.1992-12h1.1992 6c2.3984 0 15.602-1.1992 16.801-2.3984 2.3984-1.1992 3.6016-2.3984 6-4.8008 2.3984 3.6016 4.8008 7.1992 9.6016 8.3984 9.6016 4.8008 31.199 9.6016 51.602 13.199 1.2031 25.199 1.2031 51.602 0 61.199zm-7.1992-85.199c-15.602-3.6016-28.801-6-32.398-8.3984-1.1992-1.1992-1.1992-2.3984-2.3984-4.8008-1.1992-2.3984-3.6016-33.602-3.6016-38.398 0 0 4.8008-51.602 6-55.199 2.3984-22.801 6-49.199 7.1992-60 1.1992-9.6016 12-22.801 22.801-27.602 6-3.6016 15.602-4.8008 26.398-4.8008 7.1992 0 15.602 1.1992 20.398 2.3984 14.398 4.8008 37.199 24 49.199 42 10.801 18 20.398 49.199 21.602 73.199v45.602c-1.1992 12-2.3984 22.801-4.8008 30-1.1992 6-3.6016 9.6016-4.8008 10.801-2.3984 1.1992-12 4.8008-30 4.8008-7.1992 0-13.199 0-20.398-1.1992 0-0.003906-50.398-7.2031-55.199-8.4023zm116.4 66c-1.1992 18-4.8008 39.602-10.801 50.398-4.8008 9.6016-16.801 18-27.602 18h-1.1992c-7.1992 0-22.801-15.602-28.801-37.199l-15.602-54c-1.1992-4.8008-1.1992-9.6016 0-13.199 0 0 34.801 3.6016 43.199 3.6016 9.6016 0 26.398-1.1992 37.199-6 1.1992 6 2.3984 13.199 2.3984 21.602 0.003907 4.7969 0.003907 14.398 1.207 16.797zm104.4-22.801-15.602 54c-6 22.801-21.602 37.199-28.801 37.199h-1.1992c-10.801 0-22.801-8.3984-26.398-16.801-4.8008-10.801-9.6016-32.398-10.801-50.398v-16.801c0-8.3984 1.1992-16.801 2.3984-21.602 12 4.8008 27.602 6 37.199 6 8.3984 0 15.602 0 22.801-1.1992l19.199-2.3984c2.4023 2.4023 2.4023 6 1.2031 12zm-3.6016-37.199s-32.398 3.6016-38.398 3.6016c-18 0-28.801-3.6016-30-4.8008s-2.3984-4.8008-4.8008-10.801c-2.3984-7.1992-3.6016-18-4.8008-30v-45.602c1.1992-22.801 10.801-55.199 21.602-73.199 12-18 34.801-38.398 49.199-42 6-2.3984 13.199-2.3984 20.398-2.3984 10.801 0 20.398 2.3984 26.398 4.8008 10.801 4.8008 20.398 19.199 22.801 27.602 1.1992 10.801 4.8008 33.602 7.1992 55.199 0 3.6016 3.6016 38.398 3.6016 38.398l2.3984 21.602c0 4.8008-2.3984 36-2.3984 38.398-1.1992 2.3984-1.1992 3.6016-2.3984 3.6016-4.8008 2.3984-18 6-33.602 8.3984-4.8008 1.1992-9.6016 2.3984-14.398 2.3984-2.3984 2.4023-22.801 4.8008-22.801 4.8008zm117.6 15.602-12 38.398-10.801 36c-7.1992 22.801-22.801 38.398-31.199 38.398-10.801 1.1992-21.602-4.8008-24-9.6016-3.6016-9.6016-8.3984-27.602-9.6016-38.398-1.1992-9.6016-1.1992-36 0-60 20.398-3.6016 42-8.3984 51.602-13.199 3.6016-2.3984 6-4.8008 9.6016-8.3984 1.1992 2.3984 3.6016 3.6016 6 4.8008 1.1992 1.1992 14.398 2.3984 16.801 2.3984h6c-1.2031 2.3984-1.2031 6-2.4023 9.6016zm-4.8008-34.801h-6c-1.1992-1.1992-7.1992-36-8.3984-40.801l-3.6016-34.801s1.1992-16.801 1.1992-20.398c1.1992-4.8008 1.1992-8.3984 2.3984-13.199 2.3984-9.6016 4.8008-19.199 8.3984-25.199 10.801-20.398 28.801-42 37.199-48 7.1992-4.8008 14.398-8.3984 19.199-10.801 2.3984 6 7.1992 18 12 34.801 0 0 9.6016 43.199 10.801 44.398 0 1.1992 4.8008 32.398 4.8008 33.602v1.1992 12 1.1992c1.1992 14.398-12 40.801-14.398 43.199-1.1992 2.3984-3.6016 4.8008-4.8008 6-4.8008 4.8008-36 13.199-37.199 13.199h-1.1992c-2.3984 3.6016-17.996 3.6016-20.398 3.6016zm81.602 129.6c-6 8.3984-15.602 13.199-20.398 13.199h-1.1992c-6-2.3984-19.199-18-27.602-36-6-13.199-12-26.398-15.602-34.801l9.6016-31.199c2.3984-7.1992 2.3984-13.199 2.3984-20.398 16.801-2.3984 34.801-9.6016 44.398-18 2.3984-2.3984 6-4.8008 8.3984-8.3984 2.3984-3.6016 4.8008-6 6-9.6016 2.3984 10.801 4.8008 22.801 6 32.398 0 1.1992 1.1992 14.398 1.1992 20.398 1.1992 20.398 2.3984 40.801 2.3984 50.398 0.003907 9.6055-5.9961 28.805-15.594 42.004zm87.598-98.398c-1.1992 9.6016-4.8008 22.801-7.1992 30 0 1.1992-1.1992 1.1992-1.1992 1.1992-4.8008-2.3984-13.199-8.3984-19.199-14.398-6-4.8008-15.602-13.199-24-21.602 0-2.3984 0-6-1.1992-8.3984-1.1992-12-3.6016-24-6-37.199 3.6016 0 8.3984 1.1992 12 1.1992 4.8008 0 8.3984 0 12-1.1992 6-1.1992 12-4.8008 18-9.6016 2.3984-1.1992 3.6016-3.6016 6-4.8008l1.1992 7.1992c1.1992 6 2.3984 12 3.6016 18 4.7969 18 5.9961 33.602 5.9961 39.602zm-2.3984-183.6s-3.6016 45.602-4.8008 49.199c-1.1992 4.8008-1.1992 9.6016-2.3984 13.199-1.1992 4.8008-2.3984 8.3984-3.6016 12 0 0-8.3984 19.199-9.6016 21.602-6 8.3984-14.398 14.398-18 14.398h-6c-6 0-21.602-3.6016-24-3.6016 0-2.3984 1.1992-6 1.1992-9.6016v-27.602c0-3.6016-2.3984-20.398-2.3984-24-1.1992-4.8008-4.8008-21.602-4.8008-21.602 0-1.1992 12-22.801 13.199-25.199l20.398-31.199c14.398-22.801 31.199-42 37.199-45.602 2.3984-1.1992 3.6016-1.1992 3.6016-2.3984 1.1992 2.3984 1.1992 13.199 2.3984 27.602 0.003907 9.6055-2.3945 52.805-2.3945 52.805zm26.398 134.4c0 1.1992-1.1992 2.3984-1.1992 3.6016-2.3984-1.1992-3.6016-3.6016-6-6-1.1992-4.8008-2.3984-8.3984-3.6016-13.199l-7.1992-27.602c1.1992-2.3984 2.3984-6 3.6016-9.6016 6-2.3984 12-6 15.602-9.6016 1.1992 8.3984 2.3984 15.602 2.3984 21.602 0 12-2.3984 31.199-3.6016 40.801zm16.801-164.4c-1.1992 7.1992-1.1992 13.199-2.3984 19.199 0 0-4.8008 20.398-6 22.801-1.1992 1.1992-8.3984 15.602-9.6016 19.199-1.1992 3.6016-3.6016 6-4.8008 8.3984 0-3.6016 1.1992-13.199 1.1992-14.398l1.1992-18s2.3984-48 2.3984-54c3.6016-8.3984 16.801-25.199 18-25.199 1.1992 2.3984 1.1992 6 1.1992 12 0.003907 0 0.003907 25.203-1.1953 30z"/>
</svg>
