<?xml version="1.0" encoding="UTF-8"?>
<svg width="1200pt" height="1200pt" version="1.1" viewBox="0 0 1200 1200" xmlns="http://www.w3.org/2000/svg">
 <path d="m600 500.52c88.199-66.359 202.68-87.961 308.88-58.922 15.602-179.64-126.36-337.08-308.88-336.96-182.52 0.12109-324.6 156.72-308.64 336.96 106.08-29.039 220.44-7.4414 308.64 58.922zm354.36-42.961c232.8 99.359 289.56 403.44 112.32 580.68-125.04 125.04-325.56 139.08-466.68 33-141.12 106.08-341.64 92.039-466.68-33-177.24-177.36-120.36-481.44 112.56-580.8-25.559-210.24 138.6-399.48 354.12-399.72 215.4-0.12109 379.92 189.12 354.36 399.84zm-9.1211 47.398c-27.84 106.32-103.32 194.52-205.2 237.84 13.199 110.64-24.602 217.92-103.44 296.88 122.16 85.801 291 71.039 396.84-34.68 150.96-151.08 106.92-408.84-88.199-500.04zm-250.8 253.8c-61.441 17.039-127.44 16.922-188.88 0-8.1602 94.922 26.281 184.32 94.441 250.92 68.16-66.719 102.6-155.88 94.441-250.92zm-234.36-15.961c-101.16-43.32-177.12-130.44-205.2-237.96-195.12 91.078-239.28 349.08-88.32 500.16 105.84 105.72 274.68 120.48 396.84 34.68-78.84-78.84-116.64-186.36-103.32-296.88zm-161.04-254.52c23.762 92.641 83.281 166.56 169.92 207.24 16.441-62.762 48.719-117.72 94.441-163.44-76.68-53.879-174.48-69.84-264.36-43.801zm214.2 223.92c57.719 16.801 115.8 16.199 173.52-0.12109-14.281-58.32-43.922-108.12-86.762-150-42.84 41.879-72.48 91.68-86.762 150.12zm217.8-16.68c85.32-39.719 147.84-116.28 170.16-207.12-89.879-26.16-187.8-10.32-264.6 43.68 45.719 45.719 78 100.68 94.441 163.44z"/>
</svg>
