<?xml version="1.0" encoding="UTF-8"?>
<svg width="1200pt" height="1200pt" version="1.1" viewBox="0 0 1200 1200" xmlns="http://www.w3.org/2000/svg">
 <path d="m828.24 234c-11.344 0-21.984 3.2344-31.031 8.7188v-39.75c0-33.141-26.953-60.094-60.094-60.094-12.703 0-24.469 3.9844-34.172 10.734-7.9688-23.859-30.469-41.109-56.953-41.109-33.141 0-60.094 26.953-60.094 60.094v9.4219c-9.0938-5.4844-19.688-8.7188-31.031-8.7188-33.141 0-60.094 26.953-60.094 60.094v353.95l-59.625-115.31c-16.219-31.312-55.125-44.203-86.812-28.781-31.781 15.516-45.562 54.234-30.703 86.297l177.14 383.02v160.5c0 8.0156 6.5156 14.531 14.531 14.531 8.0156 0 14.531-6.5156 14.531-14.531v-57h289.87v57c0 8.0156 6.5156 14.531 14.531 14.531s14.531-6.5156 14.531-14.531v-161.76l34.359-125.9c7.4531-27.281 11.203-55.453 11.203-83.719v-407.63c0-33.141-26.953-60.094-60.094-60.094zm-304.36 307.36v-51h335.44v189.52l-335.44-138.56zm304.36-278.29c17.109 0 31.031 13.922 31.031 31.031v167.26h-62.062v-167.26c0-17.109 13.922-31.031 31.031-31.031zm-91.125-91.125c17.109 0 31.031 13.922 31.031 31.031v258.37h-62.062v-258.37c0-17.109 13.922-31.031 31.031-31.031zm-122.16 0.65625c0-17.109 13.922-31.031 31.031-31.031s31.031 13.922 31.031 31.031v288.71h-62.062zm-60.094 29.719c17.109 0 31.031 13.922 31.031 31.031v228h-62.062v-228c0-17.109 13.922-31.031 31.031-31.031zm-193.78 267c17.625-8.5781 39.281-1.4062 48.281 15.984l83.156 160.82-52.125 79.594-96.422-208.45c-8.25-17.859-0.60938-39.375 17.062-48zm93.703 287.53 57.797-88.312 275.11 226.26h-269.11zm69.047 230.16v-63.141h289.87v63.141zm296.26-103.12-296.26-243.71v-67.359l335.11 138.42c-0.75 22.453-3.9375 44.812-9.8906 66.516l-28.969 106.17z"/>
</svg>
