<?xml version="1.0" encoding="UTF-8"?>
<svg width="1200pt" height="1200pt" version="1.1" viewBox="0 0 1200 1200" xmlns="http://www.w3.org/2000/svg">
 <g>
  <path d="m1181.3 637.5h-618.74v-131.26c0-47.062-30.656-90.562-86.344-122.34-52.359-29.906-121.6-46.406-194.9-46.406-73.359 0-142.55 16.5-194.9 46.406-55.688 31.781-86.344 75.281-86.344 122.34v168.74c0 74.531 42 130.13 121.45 160.78 62.391 24.094 132.56 26.719 159.79 26.719h900c10.359 0 18.75-8.3906 18.75-18.75v-187.5c0-10.359-8.3906-18.75-18.75-18.75zm-656.26 0h-65.812c5.8594-2.8125 11.531-5.7656 16.969-8.9062 19.406-11.109 35.719-23.578 48.844-37.125zm-243.74-262.5c132.1 0 243.74 60.094 243.74 131.26 0 71.164-111.66 131.26-243.74 131.26-132.09 0-243.74-60.094-243.74-131.26 0-71.164 111.66-131.26 243.74-131.26zm-56.25 446.72v-34.219c0-10.359-8.3906-18.75-18.75-18.75-10.359 0-18.75 8.3906-18.75 18.75v28.312c-17.344-3.5156-35.344-8.3438-52.5-15-8.1094-3.1406-15.656-6.4688-22.781-10.125 0.1875-1.0312 0.28125-2.1094 0.28125-3.1875v-37.5c0-10.359-8.3906-18.75-18.75-18.75-10.359 0-18.75 8.3906-18.75 18.75v15.188c-25.125-23.438-37.5-53.297-37.5-90.188v-83.531c13.078 13.594 29.438 26.062 48.844 37.125 52.359 29.906 121.6 46.406 194.9 46.406h806.26v21.938c-21.844 7.7344-37.5 28.594-37.5 53.062s15.656 45.281 37.5 53.062v21.938h-75v-18.75c0-10.359-8.3906-18.75-18.75-18.75s-18.75 8.3906-18.75 18.75v18.75h-75v-18.75c0-10.359-8.3906-18.75-18.75-18.75s-18.75 8.3906-18.75 18.75v18.75h-75v-18.75c0-10.359-8.3906-18.75-18.75-18.75s-18.75 8.3906-18.75 18.75v18.75h-75v-18.75c0-10.359-8.3906-18.75-18.75-18.75s-18.75 8.3906-18.75 18.75v18.75h-75v-18.75c0-10.359-8.3906-18.75-18.75-18.75s-18.75 8.3906-18.75 18.75v18.75h-75v-18.75c0-10.359-8.3906-18.75-18.75-18.75s-18.75 8.3906-18.75 18.75v18.75h-75v-18.75c0-10.359-8.3906-18.75-18.75-18.75s-18.75 8.3906-18.75 18.75v18.75h-18.75c-11.719 0-32.109-0.51562-56.25-3.2812zm937.5 3.2812h-37.5v-37.5c0-10.359-8.3906-18.75-18.75-18.75-10.359 0-18.75-8.4375-18.75-18.75 0-10.359 8.4375-18.75 18.75-18.75 10.359 0 18.75-8.3906 18.75-18.75v-37.5h37.5z"/>
  <path d="m281.26 600c106.88 0 187.5-40.312 187.5-93.75s-80.625-93.75-187.5-93.75c-106.92 0-187.5 40.312-187.5 93.75s80.625 93.75 187.5 93.75zm0-150c91.594 0 150 33.281 150 56.25 0 22.922-58.406 56.25-150 56.25-91.547 0-150-33.281-150-56.25 0-22.922 58.406-56.25 150-56.25z"/>
 </g>
</svg>
