<?xml version="1.0" encoding="UTF-8"?>
<svg width="1200pt" height="1200pt" version="1.1" viewBox="0 0 1200 1200" xmlns="http://www.w3.org/2000/svg">
 <path d="m650.76 586.74-562.5-562.5c-3.5195-3.5117-8.2852-5.4883-13.258-5.4883s-9.7422 1.9766-13.258 5.4922c-3.5156 3.5156-5.4922 8.2812-5.4922 13.254v1125c0 3.707 1.0977 7.332 3.1562 10.418 2.0586 3.082 4.9883 5.4883 8.4141 6.9062 2.2734 0.94922 4.7148 1.4336 7.1797 1.4258 4.9727 0 9.7422-1.9766 13.258-5.4922l562.5-562.5c3.5117-3.5195 5.4883-8.2852 5.4883-13.258s-1.9766-9.7383-5.4883-13.258zm-69.508 42.996-42.992-42.992-26.512 26.512 42.992 42.992-29.738 29.738-24.242-24.242-26.512 26.512 24.242 24.242-29.738 29.738-42.992-42.992-26.512 26.512 42.992 42.992-29.738 29.738-24.242-24.242-26.512 26.512 24.242 24.242-29.738 29.738-42.992-42.992-26.512 26.512 42.992 42.992-29.738 29.738-24.242-24.242-26.512 26.512 24.242 24.242-29.738 29.738-42.992-42.992-26.516 26.512 42.996 42.992-29.738 29.738-24.242-24.246-26.516 26.516 24.246 24.242-67.238 67.238v-1034.5l67.238 67.238-24.246 24.242 26.512 26.512 24.246-24.242 29.738 29.738-42.996 42.992 26.512 26.512 42.996-42.992 29.738 29.738-24.242 24.242 26.512 26.512 24.242-24.242 29.738 29.738-42.992 42.992 26.512 26.512 42.992-42.992 29.738 29.738-24.242 24.242 26.512 26.512 24.242-24.242 29.738 29.738-42.992 42.992 26.512 26.512 42.992-42.992 29.738 29.738-24.242 24.242 26.512 26.512 24.242-24.242 85.988 85.988z"/>
 <path d="m200.76 305.49c-3.5195-3.5117-8.2852-5.4883-13.258-5.4883s-9.7422 1.9766-13.258 5.4922c-3.5156 3.5156-5.4922 8.2812-5.4922 13.254v562.5c0 3.707 1.0977 7.332 3.1562 10.418 2.0586 3.082 4.9883 5.4883 8.4141 6.9062 2.2734 0.94922 4.7148 1.4336 7.1797 1.4258 4.9727 0 9.7422-1.9766 13.258-5.4922l281.25-281.25c3.5117-3.5195 5.4883-8.2852 5.4883-13.258s-1.9766-9.7383-5.4883-13.258zm5.4922 530.5v-471.98l235.99 235.99z"/>
 <path d="m1138.3 455.49-112.5-112.5c-3.5195-3.5117-8.2852-5.4883-13.258-5.4883s-9.7383 1.9766-13.258 5.4883l-600 600c-3.5156 3.5156-5.4922 8.2852-5.4922 13.258v112.5c0 4.9727 1.9766 9.7422 5.4922 13.258 3.5156 3.5156 8.2852 5.4922 13.258 5.4922h112.5c4.9727 0 9.7422-1.9766 13.258-5.4922l600-600c3.5117-3.5195 5.4883-8.2852 5.4883-13.258s-1.9766-9.7383-5.4883-13.258zm-621.02 482.01h-59.477l423.49-423.49 29.738 29.738zm-85.988 37.5h75v75h-75zm112.5 48.488v-59.477l393.75-393.75 29.738 29.738zm450-450-85.988-85.988 29.738-29.738 85.988 85.988zm56.25-56.25-85.988-85.988 48.488-48.488 85.988 85.988z"/>
</svg>
