<?xml version="1.0" encoding="UTF-8"?>
<svg width="1200pt" height="1200pt" version="1.1" viewBox="0 0 1200 1200" xmlns="http://www.w3.org/2000/svg">
 <path d="m216.67 866.67c4.418 0 8.6602-1.7578 11.785-4.8828s4.8789-7.3633 4.8789-11.785v-16.668c0.015625-13.254 5.2891-25.965 14.66-35.34 9.375-9.3711 22.086-14.645 35.34-14.66h300v66.668c0 5.9531 3.1797 11.457 8.3359 14.434 5.1562 2.9766 11.508 2.9766 16.664 0 5.1562-2.9766 8.3359-8.4805 8.3359-14.434v-66.668h300c13.254 0.015625 25.965 5.2891 35.34 14.66 9.3711 9.375 14.645 22.086 14.66 35.34v16.668c0 5.9531 3.1758 11.457 8.332 14.434 5.1562 2.9766 11.512 2.9766 16.668 0 5.1562-2.9766 8.332-8.4805 8.332-14.434v-16.668c-0.027344-22.094-8.8125-43.273-24.438-58.895-15.621-15.625-36.801-24.41-58.895-24.438h-300v-100c0-5.9531-3.1797-11.457-8.3359-14.434-5.1562-2.9766-11.508-2.9766-16.664 0-5.1562 2.9766-8.3359 8.4805-8.3359 14.434v100h-300c-22.094 0.027344-43.273 8.8125-58.895 24.438-15.625 15.621-24.41 36.801-24.438 58.895v16.668c0 4.4219 1.7578 8.6602 4.8828 11.785s7.3633 4.8828 11.785 4.8828z"/>
 <path d="m333.33 616.67h533.34c22.094-0.027344 43.273-8.8164 58.895-24.438 15.625-15.621 24.41-36.805 24.438-58.898v-316.66c-0.027344-22.094-8.8125-43.277-24.438-58.898-15.621-15.621-36.801-24.41-58.895-24.438h-228.64c-10.422 0.019531-20.59-3.2383-29.059-9.3164l-81.895-58.488c-14.117-10.129-31.062-15.559-48.438-15.527h-145.3c-22.094 0.027344-43.273 8.8125-58.895 24.438-15.625 15.621-24.41 36.801-24.438 58.895v400c0.027344 22.094 8.8125 43.277 24.438 58.898 15.621 15.621 36.801 24.41 58.895 24.438zm-50-483.34c0.015625-13.254 5.2891-25.965 14.66-35.34 9.375-9.3711 22.086-14.645 35.34-14.66h145.3c10.426-0.019531 20.594 3.2422 29.062 9.3203l81.895 58.488h-0.003906c14.121 10.125 31.062 15.559 48.438 15.527h228.64c13.254 0.011719 25.965 5.2852 35.34 14.66 9.3711 9.3711 14.645 22.082 14.66 35.34v316.66c-0.015625 13.258-5.2891 25.969-14.66 35.34-9.375 9.375-22.086 14.648-35.34 14.66h-533.34c-13.254-0.011719-25.965-5.2852-35.34-14.66-9.3711-9.3711-14.645-22.082-14.66-35.34z"/>
 <path d="m650 233.33c4.4219 0 8.6602-1.7539 11.785-4.8789s4.8828-7.3672 4.8828-11.785v-16.668c0-5.9531-3.1797-11.457-8.3359-14.434-5.1562-2.9766-11.508-2.9766-16.664 0-5.1562 2.9766-8.3359 8.4805-8.3359 14.434v16.668c0 4.418 1.7578 8.6602 4.8828 11.785s7.3633 4.8789 11.785 4.8789z"/>
 <path d="m700 233.33c4.4219 0 8.6602-1.7539 11.785-4.8789s4.8828-7.3672 4.8828-11.785v-16.668c0-5.9531-3.1797-11.457-8.3359-14.434-5.1562-2.9766-11.508-2.9766-16.664 0-5.1562 2.9766-8.3359 8.4805-8.3359 14.434v16.668c0 4.418 1.7578 8.6602 4.8828 11.785s7.3633 4.8789 11.785 4.8789z"/>
 <path d="m750 233.33c4.4219 0 8.6602-1.7539 11.785-4.8789s4.8828-7.3672 4.8828-11.785v-16.668c0-5.9531-3.1797-11.457-8.3359-14.434-5.1562-2.9766-11.508-2.9766-16.664 0-5.1562 2.9766-8.3359 8.4805-8.3359 14.434v16.668c0 4.418 1.7578 8.6602 4.8828 11.785s7.3633 4.8789 11.785 4.8789z"/>
 <path d="m800 233.33c4.4219 0 8.6602-1.7539 11.785-4.8789s4.8828-7.3672 4.8828-11.785v-16.668c0-5.9531-3.1797-11.457-8.3359-14.434-5.1562-2.9766-11.508-2.9766-16.664 0-5.1562 2.9766-8.3359 8.4805-8.3359 14.434v16.668c0 4.418 1.7578 8.6602 4.8828 11.785s7.3633 4.8789 11.785 4.8789z"/>
 <path d="m850 233.33c4.4219 0 8.6602-1.7539 11.785-4.8789s4.8828-7.3672 4.8828-11.785v-16.668c0-5.9531-3.1797-11.457-8.3359-14.434-5.1562-2.9766-11.508-2.9766-16.664 0-5.1562 2.9766-8.3359 8.4805-8.3359 14.434v16.668c0 4.418 1.7578 8.6602 4.8828 11.785s7.3633 4.8789 11.785 4.8789z"/>
 <path d="m333.33 933.33h-102.86c-4.4258 0.011719-8.6719-1.7461-11.793-4.8828l-30.469-30.469c-9.3555-9.4102-22.09-14.684-35.359-14.648h-52.855c-13.258 0.015625-25.965 5.2891-35.34 14.66-9.375 9.375-14.645 22.086-14.66 35.34v166.67c0.015625 13.258 5.2852 25.965 14.66 35.34s22.082 14.645 35.34 14.66h233.33c13.258-0.015625 25.969-5.2852 35.34-14.66 9.375-9.375 14.648-22.082 14.66-35.34v-116.67c-0.011719-13.254-5.2852-25.965-14.66-35.34-9.3711-9.3711-22.082-14.645-35.34-14.66zm16.668 166.67c-0.003906 4.418-1.7617 8.6562-4.8867 11.777-3.125 3.125-7.3633 4.8828-11.781 4.8906h-233.33c-4.418-0.007813-8.6562-1.7656-11.777-4.8906-3.125-3.1211-4.8828-7.3594-4.8906-11.777v-166.67c0.007813-4.418 1.7656-8.6523 4.8906-11.777 3.1211-3.125 7.3594-4.8828 11.777-4.8867h52.855c4.4258-0.011719 8.6719 1.7461 11.793 4.8828l30.469 30.469c9.3555 9.4102 22.09 14.684 35.359 14.648h102.86c4.418 0.003906 8.6562 1.7617 11.781 4.8867s4.8828 7.3594 4.8867 11.777z"/>
 <path d="m716.67 933.33h-102.86c-4.4219 0.011719-8.668-1.7461-11.789-4.8828l-30.469-30.469c-9.3555-9.4102-22.09-14.684-35.359-14.648h-52.859c-13.254 0.015625-25.965 5.2891-35.34 14.66-9.3711 9.375-14.645 22.086-14.66 35.34v166.67c0.015625 13.258 5.2891 25.965 14.66 35.34 9.375 9.375 22.086 14.645 35.34 14.66h233.34c13.254-0.015625 25.965-5.2852 35.34-14.66 9.3711-9.375 14.645-22.082 14.66-35.34v-116.67c-0.015625-13.254-5.2891-25.965-14.66-35.34-9.375-9.3711-22.086-14.645-35.34-14.66zm16.668 166.67h-0.003907c-0.003906 4.418-1.7617 8.6562-4.8867 11.777-3.125 3.125-7.3594 4.8828-11.777 4.8906h-233.34c-4.418-0.007813-8.6523-1.7656-11.777-4.8906-3.125-3.1211-4.8828-7.3594-4.8867-11.777v-166.67c0.003906-4.418 1.7617-8.6523 4.8867-11.777s7.3594-4.8828 11.777-4.8867h52.859c4.4219-0.011719 8.668 1.7461 11.789 4.8828l30.469 30.469c9.3555 9.4102 22.09 14.684 35.359 14.648h102.86c4.418 0.003906 8.6523 1.7617 11.777 4.8867s4.8828 7.3594 4.8867 11.777z"/>
 <path d="m1100 933.33h-102.86c-4.4258 0.011719-8.6719-1.7461-11.793-4.8828l-30.469-30.469c-9.3555-9.4102-22.09-14.684-35.359-14.648h-52.855c-13.258 0.015625-25.969 5.2891-35.34 14.66-9.375 9.375-14.648 22.086-14.66 35.34v166.67c0.011719 13.258 5.2852 25.965 14.66 35.34 9.3711 9.375 22.082 14.645 35.34 14.66h233.33c13.258-0.015625 25.965-5.2852 35.34-14.66s14.645-22.082 14.66-35.34v-116.67c-0.015625-13.254-5.2852-25.965-14.66-35.34-9.375-9.3711-22.082-14.645-35.34-14.66zm16.668 166.67c-0.007813 4.418-1.7656 8.6562-4.8906 11.777-3.1211 3.125-7.3594 4.8828-11.777 4.8906h-233.33c-4.418-0.007813-8.6562-1.7656-11.781-4.8906-3.125-3.1211-4.8828-7.3594-4.8867-11.777v-166.67c0.003906-4.418 1.7617-8.6523 4.8867-11.777s7.3633-4.8828 11.781-4.8867h52.855c4.4258-0.011719 8.6719 1.7461 11.793 4.8828l30.469 30.469c9.3555 9.4102 22.09 14.684 35.359 14.648h102.86c4.418 0.003906 8.6562 1.7617 11.777 4.8867 3.125 3.125 4.8828 7.3594 4.8906 11.777z"/>
</svg>
