<?xml version="1.0" encoding="UTF-8"?>
<svg width="1200pt" height="1200pt" version="1.1" viewBox="0 0 1200 1200" xmlns="http://www.w3.org/2000/svg">
 <path d="m1100 829.36c10.125-24.938 15.328-51.562 15.375-78.469 0-9.9375-8.0625-18-18-18h-410.68l-29.203-66.891-16.312-37.453-53.156-122.02c-2.8594-6.5625-9.3281-10.828-16.5-10.828h-34.922v-48h22.875-0.046875c9.9844 0 18-8.0625 18-18s-8.0156-18-18-18h-186.74c-9.9375 0-18 8.0625-18 18s8.0625 18 18 18h19.922v48h-37.031c-9.1875 0-16.875 6.9375-17.906 16.078l-22.781 209.34v-0.046876c-58.266-7.9219-115.97-19.781-172.64-35.484-5.4375-1.5469-11.25-0.46875-15.75 2.9531-4.5 3.4219-7.125 8.7188-7.125 14.344v144c0.046875 62.953 51.047 113.95 114 114h672c41.344-0.046874 81.797-12.281 116.25-35.203 34.453-22.922 61.359-55.453 77.391-93.609 0.42188-0.89062 0.75-1.7812 0.98438-2.7188zm-494.68-193.03 8.2031 18.797h-126.79l6.75-46.453h99.797zm-176.72-188.63h72v48h-72zm-78 277.55 21.141-193.55h188.02l17.859 40.969h-99.703c-8.9062 0-16.5 6.5625-17.812 15.422l-12 82.453c-0.75 5.1562 0.79688 10.406 4.2188 14.344 3.4219 3.9375 8.3906 6.2344 13.594 6.2344h163.26l18.188 41.766h-157.97c-12.75 0-25.547-0.28125-38.297-0.65625-6.75-0.1875-13.547-0.51562-20.391-0.84375-5.25-0.23437-10.453-0.51562-15.703-0.79687-9.2344-0.5625-18.469-1.2188-27.75-1.875-1.4531-0.09375-2.9062-0.23438-4.4062-0.375-10.641-0.89063-21.422-1.9219-32.203-3.0938zm99 43.031c13.359 0.42187 26.625 0.60937 39.797 0.60937h589.03c-1.4062 12.797-4.2188 25.359-8.3906 37.5h-914.68v-80.016c96.188 24.891 194.9 38.953 294.28 41.906zm455.76 156.61h-672c-43.078-0.046875-77.953-34.922-78-78v-4.5h897.84c-31.688 51.234-87.609 82.453-147.84 82.5z"/>
</svg>
