<?xml version="1.0" encoding="UTF-8"?>
<svg width="1200pt" height="1200pt" version="1.1" viewBox="0 0 1200 1200" xmlns="http://www.w3.org/2000/svg">
 <path d="m375 675h150v412.5c0 13.398 7.1484 25.777 18.75 32.477 11.602 6.6992 25.898 6.6992 37.5 0 11.602-6.6992 18.75-19.078 18.75-32.477v-937.5h187.5v937.5c0 13.398 7.1484 25.777 18.75 32.477 11.602 6.6992 25.898 6.6992 37.5 0 11.602-6.6992 18.75-19.078 18.75-32.477v-937.5h225c13.398 0 25.777-7.1484 32.477-18.75 6.6992-11.602 6.6992-25.898 0-37.5-6.6992-11.602-19.078-18.75-32.477-18.75h-712.5c-79.566 0-155.87 31.605-212.13 87.867-56.262 56.262-87.867 132.57-87.867 212.13s31.605 155.87 87.867 212.13c56.262 56.262 132.57 87.867 212.13 87.867zm0-525h150v450h-150c-59.672 0-116.9-23.707-159.1-65.902-42.195-42.195-65.902-99.426-65.902-159.1s23.707-116.9 65.902-159.1c42.195-42.195 99.426-65.902 159.1-65.902z"/>
</svg>
