<?xml version="1.0" encoding="UTF-8"?>
<svg width="1200pt" height="1200pt" version="1.1" viewBox="0 0 1200 1200" xmlns="http://www.w3.org/2000/svg">
 <path d="m727.49 267.5c-5.2891 0.22656-10.094 2.9883-12.742 7.3242l-92.281 151.01h-234.13c-0.47266-0.023438-0.94531-0.023438-1.4141 0-3.7578 0.35547-7.2422 2.1016-9.7773 4.9023-2.5312 2.7969-3.9297 6.4453-3.9141 10.223v205.36c-49.203 24.969-83.074 76.062-83.074 134.94 0 83.352 67.805 151.25 151.05 151.25 80.719 0 146.88-63.812 150.81-143.68h128.63-0.003906c4.0078 0 7.8477-1.5938 10.68-4.4297 2.832-2.8359 4.4258-6.6836 4.4258-10.695v-204.66h158.6c5.5273-0.015625 10.629-2.8086 13.398-7.3359 2.7695-4.5234 2.7891-10.098 0.054688-14.641l-166.16-272.25c-1.4219-2.332-3.4961-4.2461-5.9961-5.5391-2.4961-1.2891-5.3203-1.9102-8.1641-1.7852zm0.70703 43.957 139.25 228.29h-131.7v-98.785c0-4.0117-1.5938-7.8594-4.4258-10.695-2.832-2.8359-6.6719-4.4297-10.68-4.4297h-62.309zm-324.75 144.63h200.61l-55.465 90.984c-2.7344 4.543-2.7148 10.117 0.054688 14.641 2.7695 4.5273 7.8711 7.3203 13.398 7.3359h143.5v189.53h-114.94c-11.004-72.605-73.879-128.56-149.4-128.56-13.047 0-25.676 1.8281-37.762 4.9609v-178.9zm236.48 0h65.613v83.66h-116.59l50.98-83.66zm-198.72 204.18c59.125 0 108.11 42.273 118.71 98.312h-156.48v-92.168c11.863-3.8789 24.578-6.1445 37.762-6.1445zm-67.973 20.797v92.637c0 4.0117 1.5938 7.8594 4.4258 10.695 2.832 2.8359 6.6758 4.4297 10.68 4.4297h173.23c-3.9336 63.406-56.023 113.43-120.37 113.43-66.918 0-120.84-53.992-120.84-121 0-41.758 20.883-78.465 52.867-100.2z"/>
</svg>
