<?xml version="1.0" encoding="UTF-8"?>
<svg width="1200pt" height="1200pt" version="1.1" viewBox="0 0 1200 1200" xmlns="http://www.w3.org/2000/svg">
 <path d="m591.37 890.9c15.188 0 27.562 12.328 27.562 27.562 0 15.188-12.328 27.562-27.562 27.562h-413.16c-45.656 0-87.141-18.703-117.23-48.75-30.047-30.047-48.75-71.531-48.75-117.23v-360.14c0-45.656 18.703-87.141 48.75-117.23 30.047-30.047 71.531-48.703 117.23-48.703h413.16c15.188 0 27.562 12.328 27.562 27.562 0 15.188-12.328 27.562-27.562 27.562h-413.16c-30.469 0-58.125 12.469-78.281 32.578-20.109 20.109-32.578 47.812-32.578 78.281v360.14c0 30.469 12.469 58.125 32.578 78.281 20.109 20.109 47.812 32.578 78.281 32.578h413.16zm110.48 196.31c-15.188 0-27.562-12.328-27.562-27.562 0-15.188 12.328-27.562 27.562-27.562h75.516v-864.28h-75.516c-15.188 0-27.562-12.328-27.562-27.562s12.328-27.562 27.562-27.562h206.16c15.188 0 27.562 12.328 27.562 27.562 0 15.188-12.328 27.562-27.562 27.562h-75.516v86.156h189.32c45.656 0 87.141 18.656 117.23 48.703 30.047 30.047 48.75 71.578 48.75 117.23v360.14c0 45.656-18.703 87.141-48.75 117.23-30.047 30.047-71.531 48.75-117.23 48.75h-189.32v86.109h75.516c15.188 0 27.562 12.328 27.562 27.562s-12.328 27.562-27.562 27.562h-206.16zm130.6-778.13v581.81h189.32c30.469 0 58.125-12.469 78.281-32.578 20.109-20.109 32.578-47.812 32.578-78.281v-360.14c0-30.469-12.469-58.172-32.578-78.281s-47.812-32.578-78.281-32.578h-189.32zm-585.89 332.11c-15.188 0-27.562-12.328-27.562-27.562 0-15.188 12.328-27.562 27.562-27.562h58.875l88.781-181.97c2.5781-5.3438 6.9375-9.9375 12.75-12.75 13.688-6.6562 30.141-0.98437 36.797 12.703l88.828 182.02h58.875c15.188 0 27.562 12.328 27.562 27.562 0 15.188-12.328 27.562-27.562 27.562h-31.969l56.719 116.3c6.6562 13.688 0.98438 30.141-12.703 36.797s-30.141 0.98438-36.797-12.703l-68.484-140.34h-158.34l-68.484 140.34c-6.6562 13.688-23.156 19.312-36.797 12.703-13.688-6.6562-19.312-23.156-12.703-36.797l56.719-116.3zm120.1-55.125h104.58l-52.266-107.16z"/>
</svg>
