<?xml version="1.0" encoding="UTF-8"?>
<svg width="1200pt" height="1200pt" version="1.1" viewBox="0 0 1200 1200" xmlns="http://www.w3.org/2000/svg">
 <path d="m337.5 900c-7.5938 0-14.438 4.5469-17.344 11.578-2.8594 6.9844-1.2656 15.047 4.0781 20.438 5.3906 5.3438 13.453 6.9375 20.438 4.0781 7.0312-2.9062 11.578-9.75 11.578-17.344 0-4.9688-1.9688-9.75-5.4844-13.266s-8.2969-5.4844-13.266-5.4844zm0 0c-7.5938 0-14.438 4.5469-17.344 11.578-2.8594 6.9844-1.2656 15.047 4.0781 20.438 5.3906 5.3438 13.453 6.9375 20.438 4.0781 7.0312-2.9062 11.578-9.75 11.578-17.344 0-4.9688-1.9688-9.75-5.4844-13.266s-8.2969-5.4844-13.266-5.4844zm0 0c-7.5938 0-14.438 4.5469-17.344 11.578-2.8594 6.9844-1.2656 15.047 4.0781 20.438 5.3906 5.3438 13.453 6.9375 20.438 4.0781 7.0312-2.9062 11.578-9.75 11.578-17.344 0-4.9688-1.9688-9.75-5.4844-13.266s-8.2969-5.4844-13.266-5.4844zm0-168.74c-7.5938 0-14.438 4.5469-17.344 11.578-2.8594 6.9844-1.2656 15.047 4.0781 20.438 5.3906 5.3438 13.453 6.9375 20.438 4.0781 7.0312-2.9062 11.578-9.75 11.578-17.344 0-4.9688-1.9688-9.75-5.4844-13.266-3.5156-3.5156-8.2969-5.4844-13.266-5.4844zm0-168.74c-7.5938 0-14.438 4.5469-17.344 11.578-2.8594 6.9844-1.2656 15.047 4.0781 20.438 5.3906 5.3438 13.453 6.9375 20.438 4.0781 7.0312-2.9062 11.578-9.75 11.578-17.344 0-4.9688-1.9688-9.75-5.4844-13.266s-8.2969-5.4844-13.266-5.4844zm0 0c-7.5938 0-14.438 4.5469-17.344 11.578-2.8594 6.9844-1.2656 15.047 4.0781 20.438 5.3906 5.3438 13.453 6.9375 20.438 4.0781 7.0312-2.9062 11.578-9.75 11.578-17.344 0-4.9688-1.9688-9.75-5.4844-13.266s-8.2969-5.4844-13.266-5.4844zm0 168.74c-7.5938 0-14.438 4.5469-17.344 11.578-2.8594 6.9844-1.2656 15.047 4.0781 20.438 5.3906 5.3438 13.453 6.9375 20.438 4.0781 7.0312-2.9062 11.578-9.75 11.578-17.344 0-4.9688-1.9688-9.75-5.4844-13.266-3.5156-3.5156-8.2969-5.4844-13.266-5.4844zm0 168.74c-7.5938 0-14.438 4.5469-17.344 11.578-2.8594 6.9844-1.2656 15.047 4.0781 20.438 5.3906 5.3438 13.453 6.9375 20.438 4.0781 7.0312-2.9062 11.578-9.75 11.578-17.344 0-4.9688-1.9688-9.75-5.4844-13.266s-8.2969-5.4844-13.266-5.4844zm0 0c-7.5938 0-14.438 4.5469-17.344 11.578-2.8594 6.9844-1.2656 15.047 4.0781 20.438 5.3906 5.3438 13.453 6.9375 20.438 4.0781 7.0312-2.9062 11.578-9.75 11.578-17.344 0-4.9688-1.9688-9.75-5.4844-13.266s-8.2969-5.4844-13.266-5.4844zm0-168.74c-7.5938 0-14.438 4.5469-17.344 11.578-2.8594 6.9844-1.2656 15.047 4.0781 20.438 5.3906 5.3438 13.453 6.9375 20.438 4.0781 7.0312-2.9062 11.578-9.75 11.578-17.344 0-4.9688-1.9688-9.75-5.4844-13.266-3.5156-3.5156-8.2969-5.4844-13.266-5.4844zm0-168.74c-7.5938 0-14.438 4.5469-17.344 11.578-2.8594 6.9844-1.2656 15.047 4.0781 20.438 5.3906 5.3438 13.453 6.9375 20.438 4.0781 7.0312-2.9062 11.578-9.75 11.578-17.344 0-4.9688-1.9688-9.75-5.4844-13.266s-8.2969-5.4844-13.266-5.4844zm0-168.74c-7.5938 0-14.438 4.5469-17.344 11.578-2.8594 6.9844-1.2656 15.047 4.0781 20.438 5.3906 5.3438 13.453 6.9375 20.438 4.0781 7.0312-2.9062 11.578-9.75 11.578-17.344 0-4.9688-1.9688-9.75-5.4844-13.266-3.5156-3.5156-8.2969-5.4844-13.266-5.4844zm468.74-326.63v195.37c0 4.9688 1.9688 9.75 5.4844 13.266 3.5156 3.5156 8.2969 5.4844 13.266 5.4844h195.37zm-468.74 326.63c-7.5938 0-14.438 4.5469-17.344 11.578-2.8594 6.9844-1.2656 15.047 4.0781 20.438 5.3906 5.3438 13.453 6.9375 20.438 4.0781 7.0312-2.9062 11.578-9.75 11.578-17.344 0-4.9688-1.9688-9.75-5.4844-13.266-3.5156-3.5156-8.2969-5.4844-13.266-5.4844zm0 168.74c-7.5938 0-14.438 4.5469-17.344 11.578-2.8594 6.9844-1.2656 15.047 4.0781 20.438 5.3906 5.3438 13.453 6.9375 20.438 4.0781 7.0312-2.9062 11.578-9.75 11.578-17.344 0-4.9688-1.9688-9.75-5.4844-13.266s-8.2969-5.4844-13.266-5.4844zm0 168.74c-7.5938 0-14.438 4.5469-17.344 11.578-2.8594 6.9844-1.2656 15.047 4.0781 20.438 5.3906 5.3438 13.453 6.9375 20.438 4.0781 7.0312-2.9062 11.578-9.75 11.578-17.344 0-4.9688-1.9688-9.75-5.4844-13.266-3.5156-3.5156-8.2969-5.4844-13.266-5.4844zm0 168.74c-7.5938 0-14.438 4.5469-17.344 11.578-2.8594 6.9844-1.2656 15.047 4.0781 20.438 5.3906 5.3438 13.453 6.9375 20.438 4.0781 7.0312-2.9062 11.578-9.75 11.578-17.344 0-4.9688-1.9688-9.75-5.4844-13.266s-8.2969-5.4844-13.266-5.4844zm487.5-581.26c-31.078 0-56.25-25.172-56.25-56.25v-206.26h-543.74c-31.078 0-56.25 25.172-56.25 56.25v975c0 31.078 25.172 56.25 56.25 56.25h750c31.078 0 56.25-25.172 56.25-56.25v-768.74zm-487.5 656.26c-22.734 0-43.266-13.688-51.984-34.734-8.6719-21-3.8906-45.188 12.188-61.312 16.125-16.078 40.312-20.859 61.312-12.188 21.047 8.7188 34.734 29.25 34.734 51.984 0 31.078-25.172 56.25-56.25 56.25zm0-168.74c-22.734 0-43.266-13.688-51.984-34.734-8.6719-21-3.8906-45.188 12.188-61.312 16.125-16.078 40.312-20.859 61.312-12.188 21.047 8.7188 34.734 29.25 34.734 51.984 0 31.078-25.172 56.25-56.25 56.25zm0-168.74c-22.734 0-43.266-13.688-51.984-34.734-8.6719-21-3.8906-45.188 12.188-61.312 16.125-16.078 40.312-20.859 61.312-12.188 21.047 8.7188 34.734 29.25 34.734 51.984 0 31.078-25.172 56.25-56.25 56.25zm0-168.74c-22.734 0-43.266-13.688-51.984-34.734-8.6719-21-3.8906-45.188 12.188-61.312 16.125-16.078 40.312-20.859 61.312-12.188 21.047 8.7188 34.734 29.25 34.734 51.984 0 31.078-25.172 56.25-56.25 56.25zm562.5 468.74h-446.44c-10.359 0-18.75-8.3906-18.75-18.75s8.3906-18.75 18.75-18.75h446.44c10.359 0 18.75 8.3906 18.75 18.75s-8.3906 18.75-18.75 18.75zm0-168.74h-446.44c-10.359 0-18.75-8.3906-18.75-18.75 0-10.359 8.3906-18.75 18.75-18.75h446.44c10.359 0 18.75 8.3906 18.75 18.75 0 10.359-8.3906 18.75-18.75 18.75zm0-168.74h-446.44c-10.359 0-18.75-8.3906-18.75-18.75s8.3906-18.75 18.75-18.75h446.44c10.359 0 18.75 8.3906 18.75 18.75s-8.3906 18.75-18.75 18.75zm0-168.74h-446.44c-10.359 0-18.75-8.3906-18.75-18.75 0-10.359 8.3906-18.75 18.75-18.75h446.44c10.359 0 18.75 8.3906 18.75 18.75 0 10.359-8.3906 18.75-18.75 18.75zm-562.5-37.5c-7.5938 0-14.438 4.5469-17.344 11.578-2.8594 6.9844-1.2656 15.047 4.0781 20.438 5.3906 5.3438 13.453 6.9375 20.438 4.0781 7.0312-2.9062 11.578-9.75 11.578-17.344 0-4.9688-1.9688-9.75-5.4844-13.266-3.5156-3.5156-8.2969-5.4844-13.266-5.4844zm0 168.74c-7.5938 0-14.438 4.5469-17.344 11.578-2.8594 6.9844-1.2656 15.047 4.0781 20.438 5.3906 5.3438 13.453 6.9375 20.438 4.0781 7.0312-2.9062 11.578-9.75 11.578-17.344 0-4.9688-1.9688-9.75-5.4844-13.266s-8.2969-5.4844-13.266-5.4844zm0 168.74c-7.5938 0-14.438 4.5469-17.344 11.578-2.8594 6.9844-1.2656 15.047 4.0781 20.438 5.3906 5.3438 13.453 6.9375 20.438 4.0781 7.0312-2.9062 11.578-9.75 11.578-17.344 0-4.9688-1.9688-9.75-5.4844-13.266-3.5156-3.5156-8.2969-5.4844-13.266-5.4844zm0 168.74c-7.5938 0-14.438 4.5469-17.344 11.578-2.8594 6.9844-1.2656 15.047 4.0781 20.438 5.3906 5.3438 13.453 6.9375 20.438 4.0781 7.0312-2.9062 11.578-9.75 11.578-17.344 0-4.9688-1.9688-9.75-5.4844-13.266s-8.2969-5.4844-13.266-5.4844zm0 0c-7.5938 0-14.438 4.5469-17.344 11.578-2.8594 6.9844-1.2656 15.047 4.0781 20.438 5.3906 5.3438 13.453 6.9375 20.438 4.0781 7.0312-2.9062 11.578-9.75 11.578-17.344 0-4.9688-1.9688-9.75-5.4844-13.266s-8.2969-5.4844-13.266-5.4844zm0-168.74c-7.5938 0-14.438 4.5469-17.344 11.578-2.8594 6.9844-1.2656 15.047 4.0781 20.438 5.3906 5.3438 13.453 6.9375 20.438 4.0781 7.0312-2.9062 11.578-9.75 11.578-17.344 0-4.9688-1.9688-9.75-5.4844-13.266-3.5156-3.5156-8.2969-5.4844-13.266-5.4844zm0-168.74c-7.5938 0-14.438 4.5469-17.344 11.578-2.8594 6.9844-1.2656 15.047 4.0781 20.438 5.3906 5.3438 13.453 6.9375 20.438 4.0781 7.0312-2.9062 11.578-9.75 11.578-17.344 0-4.9688-1.9688-9.75-5.4844-13.266s-8.2969-5.4844-13.266-5.4844zm0-168.74c-7.5938 0-14.438 4.5469-17.344 11.578-2.8594 6.9844-1.2656 15.047 4.0781 20.438 5.3906 5.3438 13.453 6.9375 20.438 4.0781 7.0312-2.9062 11.578-9.75 11.578-17.344 0-4.9688-1.9688-9.75-5.4844-13.266-3.5156-3.5156-8.2969-5.4844-13.266-5.4844zm0 0c-7.5938 0-14.438 4.5469-17.344 11.578-2.8594 6.9844-1.2656 15.047 4.0781 20.438 5.3906 5.3438 13.453 6.9375 20.438 4.0781 7.0312-2.9062 11.578-9.75 11.578-17.344 0-4.9688-1.9688-9.75-5.4844-13.266-3.5156-3.5156-8.2969-5.4844-13.266-5.4844zm0 168.74c-7.5938 0-14.438 4.5469-17.344 11.578-2.8594 6.9844-1.2656 15.047 4.0781 20.438 5.3906 5.3438 13.453 6.9375 20.438 4.0781 7.0312-2.9062 11.578-9.75 11.578-17.344 0-4.9688-1.9688-9.75-5.4844-13.266s-8.2969-5.4844-13.266-5.4844zm0 168.74c-7.5938 0-14.438 4.5469-17.344 11.578-2.8594 6.9844-1.2656 15.047 4.0781 20.438 5.3906 5.3438 13.453 6.9375 20.438 4.0781 7.0312-2.9062 11.578-9.75 11.578-17.344 0-4.9688-1.9688-9.75-5.4844-13.266-3.5156-3.5156-8.2969-5.4844-13.266-5.4844zm0 168.74c-7.5938 0-14.438 4.5469-17.344 11.578-2.8594 6.9844-1.2656 15.047 4.0781 20.438 5.3906 5.3438 13.453 6.9375 20.438 4.0781 7.0312-2.9062 11.578-9.75 11.578-17.344 0-4.9688-1.9688-9.75-5.4844-13.266s-8.2969-5.4844-13.266-5.4844zm0 0c-7.5938 0-14.438 4.5469-17.344 11.578-2.8594 6.9844-1.2656 15.047 4.0781 20.438 5.3906 5.3438 13.453 6.9375 20.438 4.0781 7.0312-2.9062 11.578-9.75 11.578-17.344 0-4.9688-1.9688-9.75-5.4844-13.266s-8.2969-5.4844-13.266-5.4844zm0-168.74c-7.5938 0-14.438 4.5469-17.344 11.578-2.8594 6.9844-1.2656 15.047 4.0781 20.438 5.3906 5.3438 13.453 6.9375 20.438 4.0781 7.0312-2.9062 11.578-9.75 11.578-17.344 0-4.9688-1.9688-9.75-5.4844-13.266-3.5156-3.5156-8.2969-5.4844-13.266-5.4844zm0 0c-7.5938 0-14.438 4.5469-17.344 11.578-2.8594 6.9844-1.2656 15.047 4.0781 20.438 5.3906 5.3438 13.453 6.9375 20.438 4.0781 7.0312-2.9062 11.578-9.75 11.578-17.344 0-4.9688-1.9688-9.75-5.4844-13.266-3.5156-3.5156-8.2969-5.4844-13.266-5.4844zm0 168.74c-7.5938 0-14.438 4.5469-17.344 11.578-2.8594 6.9844-1.2656 15.047 4.0781 20.438 5.3906 5.3438 13.453 6.9375 20.438 4.0781 7.0312-2.9062 11.578-9.75 11.578-17.344 0-4.9688-1.9688-9.75-5.4844-13.266s-8.2969-5.4844-13.266-5.4844z"/>
</svg>
