<?xml version="1.0" encoding="UTF-8"?>
<svg width="1200pt" height="1200pt" version="1.1" viewBox="0 0 1200 1200" xmlns="http://www.w3.org/2000/svg">
 <path d="m1018.9 339.12c-5.3125-7.8945-12.055-14.727-19.871-20.148l-1.0195-0.43359v-0.003907c-2.0742-1.3516-4.2422-2.5508-6.4961-3.582l-4.75-2.0352 0.003906 0.003906c-2.4297-0.90625-4.7656-2.0391-6.9805-3.3906l-1.0195-0.43359c-2.9062-1.6445-9.9375-5.8594-20.547-12.008l-1.2109-0.91797c-3.2461-1.7891-15.703-8.3281-36.883-19.801l-0.67578-0.28906c-9.8867-5.0352-17.398-9.0508-24.188-11.957l-0.33594-0.14453v-0.003906c-14.855-6.3594-30.086-11.809-45.605-16.312-7.0742-2.2227-14.148-4.4492-21.371-6.3359l-0.67969-0.28906c-23.988-5.8477-39.785-10.203-47.344-12.238v-0.003907c-18.77-5.4805-39.035-0.54688-53.188 12.949-14.148 13.492-20.039 33.5-15.461 52.508 4.582 19.012 18.941 34.137 37.688 39.703 8.5781 2.4648 25.879 7.0625 50.883 13.352 5.7188 1.6445 11.777 3.4336 17.492 5.0781l0.33984 0.14453c8.3828 2.5195 16.617 5.5117 24.668 8.957-132.46 28.41-257.22 85.09-365.75 166.16-110.88 78.98-216.63 199.76-317.26 362.33-10.242 16.676-10.824 37.539-1.5312 54.758 9.2969 17.219 27.059 28.18 46.613 28.77 19.559 0.58984 37.949-9.2812 48.262-25.91 93.109-150.01 189.06-260.39 287.86-331.16l0.96484-0.38672h0.003906c93.633-70.043 200.89-119.7 314.88-145.79-32.922 45.992-62.871 94.039-89.672 143.85-6.7148 12.895-8.0273 27.934-3.6484 41.797 4.3789 13.863 14.094 25.414 26.996 32.113 12.906 6.6953 27.945 7.9844 41.801 3.5859 13.855-4.4023 25.395-14.133 32.07-27.047 34.504-62.594 73.371-122.68 116.31-179.82l1.2109-1.8906c10.418-14.441 21.688-28.246 33.75-41.344l1.2109-1.8906c3.2422-3.8281 5.4258-6.1055 6.8281-7.5117h0.003906c10.91-6.6211 19.066-16.957 22.965-29.109 3.9023-12.152 3.2852-25.305-1.7344-37.039s-14.105-21.262-25.586-26.832z"/>
 <path d="m849.37 247.54-0.10156-0.035156 0.13281 0.035156z"/>
</svg>
