<?xml version="1.0" encoding="UTF-8"?>
<svg width="1200pt" height="1200pt" version="1.1" viewBox="0 0 1200 1200" xmlns="http://www.w3.org/2000/svg">
 <path d="m795.78 600c0 122.45-34.367 241.66-99.395 344.73-62.113 98.473-149.49 178.29-252.87 231.27v-61.297c184.85-105.68 298.34-299.88 298.34-514.7s-113.5-409.02-298.34-514.7v-61.297c103.38 52.98 190.75 132.79 252.86 231.27 65.027 103.08 99.398 222.29 99.398 344.73zm-320.81 232.15-31.453-85.355v-165.14c-5.2578-20.219-22.176-36.191-43.68-38.207-29.879-2.8086-55.094 20.711-55.094 50.027v229.7c0 9.9258-8.0391 17.977-17.977 17.977s-17.977-8.0391-17.977-17.977l0.003906-227.61c0-46.68 36.227-86.484 82.859-88.246 19.262-0.73047 37.152 4.9688 51.84 15.023v-310.19c-0.13281-24.996-23.016-44.496-48-44.496-19.98 0-37.621 13.055-43.453 32.172l-115.2 380.72v305.5h-211.14v215.64h266.51c79.43 0 135.31-49.727 159.68-81.406 38.281-49.754 46.082-126.45 23.078-188.14zm680.59-396.48c-8.5078-5.2305-19.645-2.5781-24.875 5.9141l-45.48 73.859c-39.816-14.664-85.754 0.17969-108.85 37.703-5.3047 8.6172-8.9297 17.773-11.102 27.121l-86.762-2.4609c-10.105-0.32422-18.301 7.5859-18.59 17.555-0.28906 9.9844 7.5859 18.301 17.555 18.59l86.809 2.4609c4.3086 24.793 18.73 47.699 41.844 61.934 23.113 14.23 50.062 16.801 74.148 9.4922l41.27 76.402c3.2773 6.0469 9.4922 9.4922 15.926 9.4922 2.9023 0 5.8438-0.69531 8.5781-2.1719 8.7852-4.7383 12.059-15.707 7.3203-24.504l-41.242-76.367c7.3672-6.1445 13.906-13.5 19.223-22.117 23.102-37.523 15.695-85.223-15.324-114.18l45.48-73.859c5.2227-8.4961 2.5703-19.633-5.9258-24.863zm-34.102-398.06c-8.6992-12.203-25.633-15.035-37.824-6.3477l-92.102 65.629c-8.4102-7.3672-18.012-13.668-28.715-18.551-50.688-23.141-109.19-7.3008-141.9 34.902l-102.9-46.957c-13.621-6.2266-29.711-0.21484-35.93 13.414-6.2148 13.621-0.21484 29.711 13.414 35.93l102.9 46.957c-10.43 52.367 15.949 106.93 66.637 130.05 10.703 4.8828 21.742 8.0039 32.832 9.5273l10.789 112.57c1.3438 14.027 13.152 24.539 26.965 24.539 0.86328 0 1.7383-0.035156 2.6172-0.12109 14.902-1.4297 25.836-14.676 24.406-29.578l-10.789-112.61c29.629-10.094 55.211-31.859 69.227-62.578s13.703-64.309 1.8945-93.301l92.125-65.652c12.195-8.707 15.039-25.637 6.3516-37.828zm-29.352 248.41c-24.961 0-45.203 20.23-45.203 45.203s20.23 45.203 45.203 45.203 45.203-20.23 45.203-45.203c0-24.969-20.246-45.203-45.203-45.203zm-181.36 469.75c-22.332 0-40.43 18.109-40.43 40.43 0 22.332 18.109 40.43 40.43 40.43 22.32 0 40.43-18.109 40.43-40.43-0.003906-22.324-18.098-40.43-40.43-40.43z"/>
</svg>
