<?xml version="1.0" encoding="UTF-8"?>
<svg width="1200pt" height="1200pt" version="1.1" viewBox="0 0 1200 1200" xmlns="http://www.w3.org/2000/svg">
 <path d="m72 158.4 42-7.1992h1.1992 1.1992l28.801 28.801h1.1992c1.1992 0 2.3984 0 2.3984-2.3984l2.3984-40.801c0-1.1992 1.1992-1.1992 1.1992-2.3984l30-12c2.3984-1.1992 2.3984-3.6016 0-3.6016l-32.398-16.801-1.1992-1.1992-9.6016-36c0-1.1992-1.1992-1.1992-1.1992-1.1992-1.1992 0-1.1992 0-2.3984 1.1992l-24 27.602s-1.1992 1.1992-2.3984 1.1992l-36-3.6016s-1.1992 2.3984 0 3.6016l18 24c0 1.1992 1.1992 1.1992 0 2.3984l-20.398 34.801v2.3984s0 1.1992 1.1992 1.1992z" fill="#d6d6db"/>
 <path d="m420 495.6c-1.1992 0-1.1992-1.1992-1.1992-2.3984l8.3984-31.199c0-2.3984-1.1992-3.6016-3.6016-2.3984l-32.398 15.602h-2.3984l-33.602-14.398h-2.3984c-1.1992 0-1.1992 1.1992-1.1992 2.3984l7.1992 36v2.3984l-22.801 26.395c-1.1992 1.1992 0 3.6016 1.1992 3.6016h30c1.1992 0 1.1992 0 2.3984 1.1992l14.398 37.199c0 1.1992 1.1992 1.1992 1.1992 1.1992h1.1992l1.1992-1.1992 19.199-37.199 1.1992-1.1992h1.1992l39.602-6h1.1992c1.1992-1.1992 1.1992-2.3984 0-3.6016z" fill="#d6d6db"/>
 <path d="m610.8 1071.6c-1.1992 0-1.1992-1.1992-1.1992-2.3984l8.3984-31.199c0-2.3984-1.1992-3.6016-3.6016-2.3984l-32.398 15.602h-2.3984l-33.602-14.398h-2.3984c-1.1992 0-1.1992 1.1992-1.1992 2.3984l7.1992 36v2.3984l-24 26.398c-1.1992 1.1992 0 3.6016 1.1992 3.6016h30c1.1992 0 1.1992 0 2.3984 1.1992l14.398 37.199c0 1.1992 1.1992 1.1992 1.1992 1.1992h1.1992l1.1992-1.1992 19.199-37.199 1.1992-1.1992h1.1992l39.602-6h1.1992c1.1992-1.1992 1.1992-2.3984 0-3.6016z" fill="#d6d6db"/>
 <path d="m534 339.6v2.3984l-30 27.602-1.1992 1.1992s0 1.1992 1.1992 1.1992h1.1992l42 4.8008h1.1992l1.1992 1.1992 19.199 36s0 1.1992 1.1992 1.1992c1.1992 1.1992 2.3984 0 3.6016-1.1992l14.398-38.398c0-1.1992 1.1992-1.1992 2.3984-1.1992l32.398-2.3984c2.3984 0 2.3984-2.3984 1.1992-3.6016l-26.398-25.199-1.1992-1.1992 1.1992-37.199c0-1.1992 0-1.1992-1.1992-2.3984h-2.3984l-31.199 19.199h-2.3984l-33.602-13.199c-2.3984-1.1992-3.6016 1.1992-2.3984 2.3984z" fill="#d6d6db"/>
 <path d="m517.2 115.2-32.398-16.801-1.1992-1.1992-9.6016-36c0-1.1992-1.1992-1.1992-1.1992-1.1992-1.1992 0-1.1992 0-2.3984 1.1992l-24 27.602s-1.1992 1.1992-2.3984 1.1992l-36-3.6016c-2.3984 0-3.6016 2.3984-2.3984 3.6016l18 24c0 1.1992 1.1992 1.1992 0 2.3984l-20.398 34.801v2.3984l1.1992 1.1992h1.1992l42-7.1992h1.1992 1.1992l28.801 28.801h1.1992c1.1992 0 2.3984 0 2.3984-2.3984l2.3984-40.801c0-1.1992 1.1992-1.1992 1.1992-2.3984l30-12c3.6016 0 3.6016-2.4023 1.1992-3.6016z" fill="#d6d6db"/>
 <path d="m795.6 354 42-7.1992h1.1992 1.1992l28.801 28.801h1.1992c1.1992 0 2.3984 0 2.3984-2.3984l2.3984-40.801c0-1.1992 1.1992-1.1992 1.1992-2.3984l30-12c2.3984-1.1992 2.3984-3.6016 0-3.6016l-32.398-16.801-1.1992-1.1992-9.6016-36c0-1.1992-1.1992-1.1992-1.1992-1.1992-1.1992 0-1.1992 0-2.3984 1.1992l-24 27.602s-1.1992 1.1992-2.3984 1.1992l-36-3.6016c-2.3984 0-3.6016 2.3984-2.3984 3.6016l18 24c0 1.1992 1.1992 1.1992 0 2.3984l-20.398 34.801v2.3984c2.3945 1.1992 2.3945 1.1992 3.5977 1.1992z" fill="#d6d6db"/>
 <path d="m1153.2 277.2-32.398-16.801-1.1992-1.1992-9.6016-36c0-1.1992-1.1992-1.1992-1.1992-1.1992-1.1992 0-1.1992 0-2.3984 1.1992l-24 27.602s-1.1992 1.1992-2.3984 1.1992l-36-3.6016c-2.3984 0-3.6016 2.3984-2.3984 3.6016l18 24c0 1.1992 1.1992 1.1992 0 2.3984l-19.207 33.602v2.3984l1.1992 1.1992h1.1992l42-7.1992h1.1992 1.1992l28.801 28.801h1.1992c1.1992 0 2.3984 0 2.3984-2.3984l2.3984-40.801c0-1.1992 1.1992-1.1992 1.1992-2.3984l30-12c2.4102 1.1992 2.4102-1.2031 0.007813-2.4023z" fill="#d6d6db"/>
 <path d="m705.6 537.6c1.1992 0 1.1992 0 0 0l34.801 22.801h1.1992c1.1992 0 2.3984-1.1992 2.3984-2.3984l-6-40.801c0-1.1992 0-1.1992 1.1992-2.3984l27.602-18c1.1992-1.1992 1.1992-3.6016-1.1992-3.6016l-33.602-10.805c-1.1992 0-1.1992 0-1.1992-1.1992l-15.602-32.398c0-1.1992-1.1992-1.1992-2.3984-1.1992s-1.1992 0-2.3984 1.1992l-18 32.398c0 1.1992-1.1992 1.1992-1.1992 1.1992l-36 3.6016c-2.3984 0-2.3984 2.3984-1.1992 3.6016l22.801 19.199c1.1992 1.1992 1.1992 1.1992 1.1992 2.3984l-13.199 38.398v2.3984l1.1992 1.1992h1.1992z" fill="#d6d6db"/>
 <path d="m188.4 1056-34.801-9.6016c-1.1992 0-1.1992 0-1.1992-1.1992l-15.602-32.398c0-1.1992-1.1992-1.1992-2.3984-1.1992-1.1992 0-1.1992 0-2.3984 1.1992l-19.199 31.199c0 1.1992-1.1992 1.1992-1.1992 1.1992l-36 3.6016c-2.3984 0-2.3984 2.3984-1.1992 3.6016l22.801 19.199c1.1992 1.1992 1.1992 1.1992 1.1992 2.3984l-14.402 39.602v2.3984l1.1992 1.1992h1.1992l39.602-15.602h1.1992 1.1992l33.602 21.602h1.1992c1.1992 0 2.3984-1.1992 2.3984-2.3984l-4.7969-40.801c0-1.1992 0-1.1992 1.1992-2.3984l27.602-18c1.1992 0 0-2.4023-1.2031-3.6016z" fill="#d6d6db"/>
 <path d="m991.2 123.6c1.1992 1.1992 1.1992 1.1992 1.1992 2.3984l-13.199 38.398v2.3984l1.1992 1.1992h1.1992l39.602-15.602h1.1992 1.1992l33.602 21.602h1.1992c1.1992 0 2.3984-1.1992 2.3984-2.3984l-6-40.801c0-1.1992 0-1.1992 1.1992-2.3984l27.602-18c1.1992-1.1992 1.1992-3.6016-1.1992-3.6016l-34.801-9.6016c-1.1992 0-1.1992 0-1.1992-1.1992l-15.602-32.398c0-1.1992-1.1992-1.1992-2.3984-1.1992-1.1992 0-1.1992 0-2.3984 1.1992l-18 32.398c-1.1992 0.003906-2.3984 0.003906-2.3984 0.003906l-36 3.6016c-2.3984 0-2.3984 2.3984-1.1992 3.6016z" fill="#d6d6db"/>
 <path d="m309.6 324c1.1992 0 1.1992 0 0 0l39.602 13.199h1.1992c1.1992 0 2.3984-1.1992 1.1992-3.6016l-15.602-38.398v-2.3984l21.602-24c1.1992-1.1992 0-3.6016-1.1992-3.6016h-36c-1.1992 0-1.1992 0-1.1992-1.1992l-24-27.602c0-1.1992-1.1992-1.1992-2.3984-1.1992-1.1992 0-1.1992 1.1992-1.1992 1.1992l-9.6016 36c0 1.1992-1.1992 1.1992-1.1992 1.1992l-33.602 13.199c-2.3984 1.1992-2.3984 3.6016 0 3.6016l27.602 13.199c1.1992 0 1.1992 1.1992 1.1992 2.3984l-3.6016 39.602c0 1.1992 0 1.1992 1.1992 2.3984h1.1992 1.1992z" fill="#d6d6db"/>
 <path d="m680.4 127.2 27.602 13.199c1.1992 0 1.1992 1.1992 1.1992 2.3984l-3.6016 39.602c0 1.1992 0 1.1992 1.1992 2.3984h1.1992 1.1992l33.602-25.199h1.1992 1.1992l38.398 13.199h1.1992c1.1992 0 2.3984-1.1992 1.1992-3.6016l-15.594-37.195v-2.3984l21.602-24c1.1992-1.1992 0-3.6016-1.1992-3.6016h-36c-1.1992 0-1.1992 0-1.1992-1.1992l-24-27.602c0-1.1992-1.1992-1.1992-2.3984-1.1992s-1.1992 1.1992-1.1992 1.1992l-9.6016 36c0 1.1992-1.1992 1.1992-1.1992 1.1992l-33.602 13.199c-2.4023 0.003906-2.4023 2.4023-1.2031 3.6016z" fill="#d6d6db"/>
 <path d="m1096.8 452.4c1.1992-1.1992 0-3.6016-1.1992-3.6016h-36c-1.1992 0-1.1992 0-1.1992-1.1992l-24-27.602c0-1.1992-1.1992-1.1992-2.3984-1.1992-1.1992 0-1.1992 1.1992-1.1992 1.1992l-10.805 36.004c0 1.1992-1.1992 1.1992-1.1992 1.1992l-33.602 13.199c-2.3984 1.1992-2.3984 3.6016 0 3.6016l27.602 13.199c1.1992 0 1.1992 1.1992 1.1992 2.3984l-3.6016 39.602c0 1.1992 0 1.1992 1.1992 2.3984h1.1992 1.1992l33.602-25.199h1.1992 1.1992l38.398 13.199h1.1992c1.1992 0 2.3984-1.1992 1.1992-3.6016l-15.602-38.398v-2.3984z" fill="#d6d6db"/>
 <path d="m99.602 412.8-3.6016 39.598c0 1.1992 0 1.1992 1.1992 2.3984h1.1992 1.1992l33.602-25.199h1.1992 1.1992l38.398 13.199h1.1992c1.1992 0 2.3984-1.1992 1.1992-3.6016l-15.602-38.398v-2.3984l21.602-24c1.1992-1.1992 0-3.6016-1.1992-3.6016h-36c-1.1992 0-1.1992 0-1.1992-1.1992l-24-27.602c0-1.1992-1.1992-1.1992-2.3984-1.1992-1.1992 0-1.1992 1.1992-1.1992 1.1992l-9.6016 36c0 1.1992-1.1992 1.1992-1.1992 1.1992l-33.602 13.199c-2.3984 1.1992-2.3984 3.6016 0 3.6016l27.602 13.199c-1.1992 1.2031 0.003906 2.4062 0.003906 3.6055z" fill="#d6d6db"/>
 <path d="m220.8 615.6-32.398-16.801-1.1992-1.1992-9.6016-36c0-1.1992-1.1992-1.1992-1.1992-1.1992-1.1992 0-1.1992 0-2.3984 1.1992l-24 27.602s-1.1992 1.1992-2.3984 1.1992l-36-3.6016c-2.3984 0-3.6016 2.3984-2.3984 3.6016l18 24c0 1.1992 1.1992 1.1992 0 2.3984l-20.398 34.801v2.3984s1.1992 1.1992 1.1992 1.1992h1.1992l42-7.1992h1.1992 1.1992l28.801 28.801h1.1992c1.1992 0 2.3984 0 2.3984-2.3984l2.3984-40.801c0-1.1992 1.1992-1.1992 1.1992-2.3984l30-12c2.3984-1.2031 2.3984-3.6016 1.1992-3.6016z" fill="#d6d6db"/>
 <path d="m360 1018.8c-1.1992 0-1.1992-1.1992-1.1992-2.3984l8.3984-31.199c0-2.3984-1.1992-3.6016-3.6016-2.3984l-32.398 15.602h-2.3984l-33.602-14.398h-2.3984c-1.1992 0-1.1992 1.1992-1.1992 2.3984l7.1992 36v2.3984l-24 26.398c-1.1992 1.1992 0 3.6016 1.1992 3.6016h30c1.1992 0 1.1992 0 2.3984 1.1992l14.398 37.199c0 1.1992 1.1992 1.1992 1.1992 1.1992h1.1992l1.1992-1.1992 19.199-37.199 1.1992-1.1992h1.1992l39.602-6h1.1992c1.1992-1.1992 1.1992-2.3984 0-3.6016z" fill="#d6d6db"/>
 <path d="m534 912s1.1992 1.1992 0 0l20.398 36s0 1.1992 1.1992 1.1992c1.1992 1.1992 2.3984 0 3.6016-1.1992l14.398-38.398c0-1.1992 1.1992-1.1992 2.3984-1.1992l32.398-2.3984c2.3984 0 2.3984-2.3984 1.1992-3.6016l-27.594-26.402-1.1992-1.1992 1.1992-37.199c0-1.1992 0-1.1992-1.1992-2.3984h-2.3984l-31.199 19.199h-2.3984l-33.602-13.199c-2.3984-1.1992-3.6016 1.1992-2.3984 2.3984l10.801 27.602v2.3984l-30 27.602-1.1992 1.1992s0 1.1992 1.1992 1.1992h1.1992z" fill="#d6d6db"/>
 <path d="m590.4 644.4-1.1992-1.1992-9.6016-36c0-1.1992-1.1992-1.1992-1.1992-1.1992-1.1992 0-1.1992 0-2.3984 1.1992l-24 27.602s-1.1992 1.1992-2.3984 1.1992l-36-3.6016c-2.3984 0-3.6016 2.3984-2.3984 3.6016l18 24c0 1.1992 1.1992 1.1992 0 2.3984l-19.203 33.602v2.3984l1.1992 1.1992h1.1992l42-7.1992h1.1992 1.1992l28.801 28.801h1.1992c1.1992 0 2.3984 0 2.3984-2.3984l2.3984-40.801c0-1.1992 1.1992-1.1992 1.1992-2.3984l30-12c2.3984-1.1992 2.3984-3.6016 0-3.6016z" fill="#d6d6db"/>
 <path d="m939.6 615.6-32.398-16.801-1.1992-1.1992-9.6016-36c0-1.1992-1.1992-1.1992-1.1992-1.1992-1.1992 0-1.1992 0-2.3984 1.1992l-24 27.602s-1.1992 1.1992-2.3984 1.1992l-36-3.6016c-2.3984 0-3.6016 2.3984-2.3984 3.6016l18 24c0 1.1992 1.1992 1.1992 0 2.3984l-20.398 34.801v2.3984l1.1992 1.1992h1.1992l42-7.1992h1.1992 1.1992l28.801 28.801h1.1992c1.1992 0 2.3984 0 2.3984-2.3984l2.3984-40.801c0-1.1992 1.1992-1.1992 1.1992-2.3984l30-12c3.5977-1.2031 3.5977-3.6016 1.1992-3.6016z" fill="#d6d6db"/>
 <path d="m866.4 1017.6-36-9.6016c-1.1992 0-1.1992 0-1.1992-1.1992l-15.602-32.398c0-1.1992-1.1992-1.1992-2.3984-1.1992s-1.1992 0-2.3984 1.1992l-18 32.398c0 1.1992-1.1992 1.1992-1.1992 1.1992l-36 3.6016c-2.3984 0-2.3984 2.3984-1.1992 3.6016l22.801 19.199c1.1992 1.1992 1.1992 1.1992 1.1992 2.3984l-13.199 38.398v2.3984l1.1992 1.1992h1.1992l39.602-15.602h1.1992 1.1992l33.602 21.602h1.1992c1.1992 0 2.3984-1.1992 2.3984-2.3984l-6-40.801c0-1.1992 0-1.1992 1.1992-2.3984l27.602-18c0-1.1992 0-3.5977-1.2031-3.5977z" fill="#d6d6db"/>
 <path d="m1131.6 687.6-34.801-9.6016c-1.1992 0-1.1992 0-1.1992-1.1992l-15.602-32.398c0-1.1992-1.1992-1.1992-2.3984-1.1992-1.1992 0-1.1992 0-2.3984 1.1992l-19.203 31.199c0 1.1992-1.1992 1.1992-1.1992 1.1992l-36 3.6016c-2.3984 0-2.3984 2.3984-1.1992 3.6016l22.801 19.199c1.1992 1.1992 1.1992 1.1992 1.1992 2.3984l-14.402 38.398v2.3984l1.1992 1.1992h1.1992l39.602-15.602h1.1992 1.1992l33.602 21.602h1.1992c1.1992 0 2.3984-1.1992 2.3984-2.3984l-6-40.801c0-1.1992 0-1.1992 1.1992-2.3984l27.602-18c2.4023 0 1.2031-2.3984 0.003906-2.3984z" fill="#d6d6db"/>
 <path d="m763.2 830.4c1.1992 0 1.1992 0 0 0l39.602 13.199h1.1992c1.1992 0 2.3984-1.1992 1.1992-3.6016l-15.602-38.398v-2.3984l21.602-24c1.1992-1.1992 0-3.6016-1.1992-3.6016h-36c-1.1992 0-1.1992 0-1.1992-1.1992l-24-27.602c0-1.1992-1.1992-1.1992-2.3984-1.1992-1.1992 0-1.1992 1.1992-1.1992 1.1992l-9.6016 36c0 1.1992-1.1992 1.1992-1.1992 1.1992l-33.602 13.199c-2.3984 1.1992-2.3984 3.6016 0 3.6016l27.602 13.199c1.1992 0 1.1992 1.1992 1.1992 2.3984l-3.6016 39.602c0 1.1992 0 1.1992 1.1992 2.3984h1.1992 1.1992z" fill="#d6d6db"/>
 <path d="m985.2 925.2c1.1992 1.1992 2.3984 1.1992 3.6016 0l21.602-34.801c0-1.1992 1.1992-1.1992 2.3984-1.1992l32.398 3.6016c2.3984 0 3.6016-2.3984 2.3984-3.6016l-21.602-30v-2.3984l8.3984-36c0-1.1992 0-1.1992-1.1992-2.3984 0 0-1.1992-1.1992-2.3984 0l-34.801 13.199h-2.3984l-30-19.199c-1.1992-1.1992-3.6016 0-3.6016 2.3984l6 30c0 1.1992 0 2.3984-1.1992 2.3984l-34.801 20.398c-1.1992 0-1.1992 1.1992-1.1992 1.1992s0 1.1992 1.1992 1.1992h1.1992l39.602 13.199h1.1992l1.1992 1.1992 12.004 40.805c-1.1992 0-1.1992 0 0 0z" fill="#d6d6db"/>
 <path d="m1095.6 1046.4h-36c-1.1992 0-1.1992 0-1.1992-1.1992l-24-27.602c0-1.1992-1.1992-1.1992-2.3984-1.1992-1.1992 0-1.1992 1.1992-1.1992 1.1992l-9.6016 36c0 1.1992-1.1992 1.1992-1.1992 1.1992l-34.805 13.203c-2.3984 1.1992-2.3984 3.6016 0 3.6016l27.602 13.199c1.1992 0 1.1992 1.1992 1.1992 2.3984l-4.8008 40.801c0 1.1992 0 1.1992 1.1992 2.3984h1.1992 1.1992l33.602-25.199h1.1992 1.1992l38.398 13.199h1.1992c1.1992 0 2.3984-1.1992 1.1992-3.6016l-15.602-38.398v-2.3984l21.602-24c2.4062-1.1992 1.207-3.6016 0.007812-3.6016z" fill="#d6d6db"/>
 <path d="m193.2 829.2h-36c-1.1992 0-1.1992 0-1.1992-1.1992l-24-27.602c0-1.1992-1.1992-1.1992-2.3984-1.1992-1.1992 0-1.1992 1.1992-1.1992 1.1992l-9.6016 36c0 1.1992-1.1992 1.1992-1.1992 1.1992l-33.602 13.199c-2.3984 1.1992-2.3984 3.6016 0 3.6016l27.602 13.199c1.1992 0 1.1992 1.1992 1.1992 2.3984l-4.8008 40.805v2.3984h1.1992 1.1992l33.602-25.199h1.1992 1.1992l38.398 13.199h1.1992c1.1992 0 2.3984-1.1992 1.1992-3.6016l-15.602-38.398v-2.3984l21.602-24c3.6055-1.1992 2.4062-3.6016 0.003907-3.6016z" fill="#d6d6db"/>
 <path d="m403.2 751.2h-36c-1.1992 0-1.1992 0-1.1992-1.1992l-24-27.602c0-1.1992-1.1992-1.1992-2.3984-1.1992-1.1992 0-1.1992 1.1992-1.1992 1.1992l-9.6016 36c0 1.1992-1.1992 1.1992-1.1992 1.1992l-33.602 13.199c-2.3984 1.1992-2.3984 3.6016 0 3.6016l27.602 13.199c1.1992 0 1.1992 1.1992 1.1992 2.3984l-3.6016 39.602c0 1.1992 0 1.1992 1.1992 2.3984h1.1992 1.1992l33.602-25.199h1.1992 1.1992l38.398 13.199h1.1992c1.1992 0 2.3984-1.1992 1.1992-3.6016l-15.602-38.398v-2.3984l21.602-24c1.207 0.003906 0.007812-2.3984-2.3945-2.3984z" fill="#d6d6db"/>
</svg>
