<?xml version="1.0" encoding="UTF-8"?>
<svg width="1200pt" height="1200pt" version="1.1" viewBox="0 0 1200 1200" xmlns="http://www.w3.org/2000/svg">
 <g>
  <path d="m1020.9 989.71c-2.0469 0-4.0938-0.78516-5.668-2.3594-304.72-313.38-805.56-808.39-856.71-808.39h-1.1016c-4.0938 0-7.5547-3.1484-7.8711-7.2422-0.31641-4.4062 2.9922-8.0273 7.2422-8.3438h0.78516c75.395 0 787.62 729.7 868.84 813.12 2.9922 3.1484 2.9922 8.0273 0 11.176-1.5742 1.418-3.4609 2.2031-5.5078 2.2031z"/>
  <path d="m556.4 1200h-0.47266c-4.4062-0.31641-7.5547-4.0938-7.3984-8.3438 28.488-437.72 60.754-1144.6 25.969-1178-3.1484-2.9922-3.3047-8.0273-0.15625-11.176 2.9922-3.1484 8.0273-3.3047 11.176-0.15625 51.469 49.422-13.695 1073.8-21.25 1190.4-0.31641 4.0938-3.7773 7.3984-7.8711 7.3984z"/>
  <path d="m1184.4 667.68h-1.418c-431.58-79.168-1130-192.81-1167.1-162.28-3.3047 2.832-8.3438 2.3594-11.02-1.1016-2.832-3.3047-2.3594-8.3438 1.1016-11.02 55.246-45.488 1065 137.72 1179.9 158.66 4.25 0.78516 7.082 4.8789 6.2969 9.1289-0.62891 3.7773-3.9336 6.4531-7.7109 6.4531z"/>
  <path d="m152.36 990.19c-4.25 0-7.7109-3.1484-7.8711-7.3984-3.4609-68.469 786.36-741.97 876.39-818.47 3.3047-2.832 8.3438-2.3594 11.176 0.94531 2.832 3.3047 2.3594 8.3438-0.94531 11.02-337.14 286.62-871.51 758.82-870.88 805.88 0 4.25-3.3047 8.0273-7.5547 8.1836h-0.31641z"/>
  <path d="m652.26 495.02c-12.121 0-22.824-3.7773-31.793-11.488-17.629-14.953-25.184-41.555-28.332-61.855-7.082 8.9727-15.898 15.898-26.441 20.617-42.34 19.359-97.586-1.7305-99.789-2.6758-4.0938-1.5742-5.9805-6.1367-4.4062-10.23 1.5742-4.0938 6.1367-5.9805 10.23-4.4062 0.47266 0.15625 51.312 19.676 87.672 2.9922 14.637-6.7695 25.184-18.73 31.164-35.73l15.266-43.758v46.273s0.15625 55.562 25.027 76.496c8.0273 6.7695 17.785 9.1289 29.75 7.082 4.25-0.62891 8.3438 2.2031 9.1289 6.4531s-2.2031 8.3438-6.4531 9.1289c-3.7773 0.62891-7.2422 0.94531-10.703 0.94531z"/>
  <path d="m701.52 584.26h-1.2578c-14.324-2.3594-24.711-9.4453-30.535-21.09-18.574-36.359 16.055-106.09 17.473-109.08 1.8906-3.9336 6.6094-5.5078 10.547-3.4609 3.9336 2.0469 5.5078 6.6094 3.4609 10.547-9.1289 18.102-29.906 70.516-17.629 94.754 3.6211 7.082 9.7578 11.176 19.047 12.75 4.25 0.62891 7.2422 4.7227 6.4531 8.9727-0.62891 3.7773-3.9336 6.6094-7.7109 6.6094z"/>
  <path d="m582.53 729.85h-0.47266c-4.4062-0.15625-7.7109-3.9336-7.3984-8.1836 2.0469-41.555 14.797-68.781 37.777-80.902 22.98-12.121 50.684-6.1367 69.883 1.1016-9.918-19.676-19.832-47.062-9.1289-63.117 7.2422-10.703 21.406-14.164 42.34-10.074 4.25 0.78516 7.082 4.8789 6.2969 9.2852-0.78516 4.25-5.0352 6.9258-9.2852 6.2969-7.8711-1.5742-21.879-3.1484-26.285 3.4609-7.8711 11.648 8.1836 46.746 22.035 67.84l19.203 29.117-29.75-18.102s-47.062-28.176-77.754-11.805c-17.785 9.4453-27.543 32.109-29.434 67.68-0.15625 4.25-3.6211 7.5547-7.8711 7.5547z"/>
  <path d="m577.02 753.78c-4.4062 0-7.8711-3.4609-7.8711-7.8711 0-0.47266-0.31641-52.727-30.852-74.766-16.211-11.805-38.879-13.062-67.207-3.7773-4.0938 1.418-8.5-0.94531-9.918-5.0352-1.418-4.0938 0.94531-8.5 5.0352-9.918 33.367-10.859 60.754-8.8125 81.375 6.1367 36.988 26.914 37.305 84.996 37.305 87.512 0 4.4062-3.4609 7.8711-7.8711 7.8711z"/>
  <path d="m468.57 667.68c-1.5742 0-3.3047-0.47266-4.7227-1.5742-3.4609-2.6758-4.0938-7.5547-1.5742-11.02 1.7305-2.3594 42.184-57.449 0.15625-108.92-2.6758-3.3047-2.2031-8.3438 1.1016-11.02 3.3047-2.832 8.3438-2.2031 11.02 1.1016 49.895 61.227 0.62891 127.65 0.15625 128.28-1.5742 2.0469-3.9336 3.1484-6.2969 3.1484z"/>
  <path d="m439.77 541.13c-3.9336 0-7.3984-2.9922-7.8711-7.082-0.47266-4.25 2.6758-8.1836 6.9258-8.6562 40.137-4.25 42.496-71.93 42.496-72.559 0-4.4062 3.7773-7.5547 8.0273-7.7109 4.4062 0 7.7109 3.7773 7.7109 8.0273 0 3.3047-2.6758 82.16-56.504 87.828h-0.78516z"/>
  <path d="m765.27 402.78c-112.07 0-166.37-106.09-168.73-110.65-1.8906-3.9336-0.31641-8.6562 3.4609-10.547 3.9336-1.8906 8.6562-0.31641 10.547 3.4609 0.47266 0.94531 52.414 101.99 154.57 101.99h0.62891c4.4062 0 7.8711 3.4609 7.8711 7.8711 0 4.5664-3.7773 7.8711-8.5 7.8711z"/>
  <path d="m906.45 283.32c-206.5 0-310.39-165.27-311.49-167-2.2031-3.6211-1.1016-8.5 2.5195-10.859 3.7773-2.3594 8.5-1.1016 10.859 2.5195 0.94531 1.5742 100.73 159.45 298.11 159.45h1.1016c4.4062 0 7.8711 3.4609 7.8711 7.8711 0 4.7227-4.25 7.8711-8.9727 7.8711z"/>
  <path d="m1018.7 178.18c-294.34 0-443.08-163.38-444.49-165.11-2.832-3.3047-2.6758-8.1836 0.62891-11.176 3.3047-2.9922 8.1836-2.6758 11.176 0.62891 1.418 1.5742 145.91 159.92 432.84 159.92h1.5742c4.4062 0 7.8711 3.4609 7.8711 7.8711 0 4.8789-4.5664 7.8711-9.4453 7.8711z"/>
  <path d="m581.43 808.87c-1.5742 0-3.1484-0.47266-4.5664-1.418-3.6211-2.5195-4.4062-7.3984-1.8906-11.02 65.164-91.605 183.53-73.977 188.56-73.031 4.25 0.62891 7.2422 4.7227 6.6094 8.9727-0.62891 4.25-4.5664 7.2422-8.9727 6.6094-1.1016-0.15625-113.8-16.84-173.29 66.738-1.5742 2.2031-3.9336 3.3047-6.4531 3.3047z"/>
  <path d="m571.04 989.71c-1.5742 0-3.1484-0.47266-4.5664-1.418-3.4609-2.5195-4.4062-7.3984-1.8906-11.02 119.31-167.31 301.42-164.48 302.99-164.48 4.4062 0 7.7109 3.7773 7.7109 8.0273 0 4.4062-3.4609 7.8711-8.0273 7.7109-1.8906 0-175.5-2.3594-289.77 157.87-1.5742 2.2031-3.9336 3.3047-6.4531 3.3047z"/>
  <path d="m558.13 1188.5c-1.5742 0-3.1484-0.47266-4.5664-1.418-3.6211-2.5195-4.4062-7.3984-1.8906-11.02 168.57-236.73 467.31-202.57 470.15-202.1 4.25 0.47266 7.3984 4.4062 6.7695 8.8125-0.47266 4.25-4.4062 7.5547-8.8125 6.7695-2.9922-0.31641-292.45-33.367-455.51 195.64-1.5742 2.2031-3.9336 3.3047-6.4531 3.3047z"/>
  <path d="m571.04 829.48c-2.5195 0-5.0352-1.2578-6.6094-3.6211-0.62891-0.94531-63.43-96.012-165.43-84.523-4.4062 0.47266-8.1836-2.6758-8.6562-6.9258s2.6758-8.1836 6.9258-8.6562c111.75-12.75 177.54 87.355 180.38 91.605 2.3594 3.6211 1.2578 8.5-2.3594 10.859-1.2578 0.78516-2.832 1.2578-4.25 1.2578z"/>
  <path d="m571.04 989.71c-2.832 0-5.5078-1.418-6.9258-4.0938-0.94531-1.8906-101.68-184.63-258.61-166.68-4.4062 0.47266-8.1836-2.6758-8.6562-6.9258-0.47266-4.25 2.6758-8.1836 6.9258-8.6562 167.31-19.047 270.09 166.84 274.34 174.87 2.0469 3.7773 0.62891 8.6562-3.1484 10.703-1.2578 0.62891-2.5195 0.94531-3.7773 0.94531z"/>
  <path d="m556.4 1200c-2.6758 0-5.1953-1.2578-6.6094-3.7773-1.418-2.3594-150.32-235.78-390.98-208.39-4.4062 0.47266-8.1836-2.6758-8.6562-6.9258s2.6758-8.1836 6.9258-8.6562c250.58-28.176 404.51 213.27 406.09 215.79 2.3594 3.6211 1.1016 8.5-2.5195 10.859-1.2578 0.78516-2.6758 1.2578-4.0938 1.2578z"/>
  <path d="m396.33 724.82c-0.94531 0-1.7305 0-2.6758-0.47266-4.0938-1.418-6.2969-5.9805-4.7227-10.074 0.31641-1.1016 37.305-108.92-33.996-182.58-2.9922-3.1484-2.9922-8.1836 0.15625-11.176 3.1484-2.9922 8.1836-2.9922 11.176 0.15625 78.227 80.746 39.191 193.91 37.461 198.79-1.1016 3.3047-4.25 5.1953-7.3984 5.1953z"/>
  <path d="m309.13 812.17s-1.2578 0-1.7305-0.15625c-4.25-0.94531-6.9258-5.1953-5.8242-9.4453 0.31641-1.5742 35.414-161.49-89.875-291.34-2.9922-3.1484-2.9922-8.1836 0.15625-11.176 3.1484-2.9922 8.1836-2.9922 11.176 0.15625 131.43 136.15 94.281 304.09 93.965 305.82-0.78516 3.6211-4.0938 6.1367-7.7109 6.1367z"/>
  <path d="m152.36 990.35s-1.2578 0-1.8906-0.15625c-4.25-1.1016-6.7695-5.3516-5.8242-9.4453 0.62891-2.6758 61.387-263.17-139.61-471.09-2.9922-3.1484-2.9922-8.1836 0.15625-11.176 3.1484-2.9922 8.1836-2.9922 11.176 0.15625 207.14 214.38 144.18 483.21 143.55 485.89-0.94531 3.6211-4.0938 5.9805-7.7109 5.9805z"/>
  <path d="m347.38 522.72c-2.0469 0-4.25-0.78516-5.8242-2.5195-2.9922-3.1484-2.6758-8.1836 0.47266-11.176 0.62891-0.62891 63.59-59.969 44.543-145.28-0.94531-4.25 1.7305-8.5 5.9805-9.4453 4.25-0.94531 8.5 1.7305 9.4453 5.9805 21.09 94.438-46.273 157.71-49.266 160.23-1.5742 1.418-3.4609 2.0469-5.3516 2.0469z"/>
  <path d="m223.19 513.59c-2.0469 0-3.9336-0.78516-5.5078-2.3594-3.1484-2.9922-3.1484-8.0273 0-11.176 0.94531-0.94531 89.559-92.551 59.34-228.38-0.94531-4.25 1.7305-8.5 5.9805-9.4453 4.25-0.94531 8.5 1.7305 9.4453 5.9805 32.266 144.49-59.496 238.93-63.43 242.86-1.5742 1.5742-3.6211 2.3594-5.5078 2.3594z"/>
  <path d="m10.859 507.45c-2.3594 0-4.7227-1.1016-6.2969-3.1484-2.5195-3.4609-1.8906-8.3438 1.5742-11.02 1.7305-1.2578 178.64-135.36 138.51-313.85-0.94531-4.25 1.7305-8.5 5.9805-9.4453s8.5 1.7305 9.4453 5.9805c42.34 188.57-142.6 328.5-144.49 329.91-1.418 1.1016-2.9922 1.5742-4.7227 1.5742z"/>
  <path d="m425.13 373.03c-15.266 0-25.34-1.2578-26.914-1.418-4.25-0.62891-7.2422-4.5664-6.7695-8.8125 0.62891-4.25 4.7227-7.3984 8.8125-6.7695 1.2578 0.15625 129.07 16.211 190.77-77.754 2.3594-3.6211 7.2422-4.5664 10.859-2.2031 3.6211 2.3594 4.5664 7.2422 2.2031 10.859-49.582 75.707-135.52 86.098-179.12 86.098z"/>
  <path d="m295.59 269.78c-7.082 0-11.176-0.31641-11.488-0.31641-4.4062-0.31641-7.5547-4.0938-7.2422-8.5 0.31641-4.4062 4.25-7.7109 8.5-7.2422 1.8906 0 193.6 12.277 297.48-145.91 2.3594-3.6211 7.2422-4.5664 10.859-2.2031 3.6211 2.3594 4.5664 7.2422 2.2031 10.859-93.965 142.92-255.77 153.3-300.16 153.3z"/>
  <path d="m231.06 175.81c-41.867 0-69.414-4.25-70.355-4.4062-4.25-0.62891-7.2422-4.7227-6.4531-8.9727 0.62891-4.25 4.7227-7.2422 8.9727-6.4531 2.832 0.47266 282.06 43.129 410.18-152.36 2.3594-3.6211 7.2422-4.7227 10.859-2.2031 3.6211 2.3594 4.7227 7.2422 2.2031 10.859-92.863 141.66-260.65 163.7-355.56 163.7z"/>
  <path d="m754.72 715.84c-3.9336 0-7.3984-2.9922-7.8711-7.082-7.7109-80.746 37.461-125.13 39.348-127.02 3.1484-2.9922 8.0273-2.9922 11.176 0.15625 2.9922 3.1484 2.9922 8.0273-0.15625 11.176-0.47266 0.47266-41.711 41.395-34.629 114.11 0.47266 4.4062-2.832 8.1836-7.082 8.6562h-0.78516z"/>
  <path d="m867.42 828.54c-3.9336 0-7.3984-2.9922-7.8711-7.082-12.434-131.11 47.535-201.94 50.051-204.93 2.832-3.3047 7.8711-3.6211 11.02-0.78516 3.1484 2.832 3.6211 7.8711 0.78516 11.176-0.62891 0.62891-58.238 69.098-46.273 192.97 0.47266 4.4062-2.832 8.1836-7.082 8.6562h-0.78516z"/>
  <path d="m1027.5 986.57c-3.9336 0-7.3984-2.9922-7.8711-7.082-19.676-202.57 163.38-322.35 165.27-323.45 3.6211-2.3594 8.5-1.2578 10.859 2.3594 2.3594 3.6211 1.2578 8.5-2.3594 10.859-1.7305 1.1016-176.76 116-158.18 308.81 0.47266 4.25-2.6758 8.1836-7.082 8.6562h-0.78516z"/>
  <path d="m1189.1 661.54c-1.8906 0-3.6211-0.62891-5.1953-1.8906-224.29-193.91-166.37-487.93-165.74-490.92 0.94531-4.25 5.1953-6.9258 9.2852-6.1367 4.25 0.94531 6.9258 5.0352 6.1367 9.2852-0.62891 2.832-56.664 288.04 160.55 475.81 3.3047 2.832 3.6211 7.8711 0.78516 11.176-1.5742 1.7305-3.7773 2.6758-5.9805 2.6758z"/>
  <path d="m788.72 593.07s-1.2578 0-1.8906-0.15625c-13.062-3.1484-22.98-11.176-29.75-23.609-29.75-54.773 14.48-184.63 16.371-190.14 1.418-4.0938 5.9805-6.2969 10.074-4.8789s6.2969 5.8242 4.8789 10.074c-0.47266 1.2578-43.914 128.75-17.473 177.39 4.5664 8.5 11.176 13.695 19.676 15.898 4.25 1.1016 6.7695 5.3516 5.8242 9.4453-0.94531 3.6211-4.0938 5.9805-7.7109 5.9805z"/>
  <path d="m915.58 619.68c-0.78516 0-1.7305 0-2.5195-0.47266-91.449-31.164-22.824-318.41-14.637-351 1.1016-4.25 5.1953-6.7695 9.6016-5.668 4.25 1.1016 6.7695 5.3516 5.668 9.6016-21.09 84.836-61.543 309.76 4.5664 332.27 4.0938 1.418 6.2969 5.8242 4.8789 9.918-1.1016 3.3047-4.25 5.3516-7.3984 5.3516z"/>
 </g>
</svg>
