<?xml version="1.0" encoding="UTF-8"?>
<svg width="1200pt" height="1200pt" version="1.1" viewBox="0 0 1200 1200" xmlns="http://www.w3.org/2000/svg">
 <g>
  <path d="m1192.4 115.48c-1.0625-27.234-12.625-53-32.262-71.898s-45.824-29.461-73.078-29.48c-328.07 0.1875-656.17-0.60547-984.24 0.43359-25.598 1.9648-49.543 13.395-67.176 32.055-17.629 18.664-27.672 43.223-28.18 68.891 0 323.97 0.007813 647.96 0.019531 971.94 0.85156 26.445 11.977 51.516 31.012 69.898 19.031 18.379 44.477 28.617 70.938 28.543 326.51 0.20703 653.02 0.20703 979.52 0 27.137-0.27344 53.105-11.094 72.406-30.176 19.297-19.082 30.418-44.922 31-72.055 0.17188-322.72 0.18359-645.44 0.039063-968.15zm-154.2 532.42c-10.742 108.01-61.309 208.16-141.85 280.93-44.184 39.457-95.832 69.656-151.89 88.812-56.055 19.156-115.38 26.883-174.47 22.719-71.32-5.1641-140.4-27.133-201.61-64.113-95.391-59.02-164.89-151.98-194.5-260.18-28.84-106.61-17.695-220.09 31.336-319.05 48.484-98.5 132.24-175.16 234.64-214.76 102.4-39.602 215.95-39.238 318.09 1.0156 107.7 42.758 194.5 125.8 241.96 231.52 32.688 73.094 45.879 153.41 38.293 233.11z"/>
  <path d="m833.35 280.1c-23.527-19.824-50.418-35.262-79.402-45.586-66.516-21.559-136.53-30.266-206.3-25.652-32.332 2.1289-64.258 8.3672-95.012 18.566-25.758 10.156-50.332 23.09-73.285 38.574-50.352 30.027-91.715 73.02-119.77 124.5-2.0703 4.082-2.7109 8.7422-1.8164 13.23 0.89063 4.4883 3.2656 8.5508 6.7422 11.531 11.164 8.4766 25.848 10.77 39.066 6.0977 8.0039-3.2109 14.945-8.6133 20.023-15.586 5.082-6.9727 8.0938-15.234 8.6992-23.84 0.25781-5.8633 2.543-11.453 6.4648-15.82s9.2344-7.2383 15.039-8.125c13.73 1.3945 27.605-0.24219 40.637-4.793 16.75-6.582 30.727-18.723 39.578-34.391 6.4023-14.398-7.2578-29.387-0.054687-43.613v0.003906c4.8672-8.2539 12.676-14.359 21.859-17.086 9.1875-2.7266 19.062-1.875 27.645 2.3828 7.1406 5.2539 15.266 9.0156 23.891 11.062 9.0469-0.88672 17.637-4.3906 24.727-10.078 13.914-8.7031 30.801-11.285 46.68-7.1406 16.258 5.9492 24.422 22.375 36.945 33.191 7.4062 7.4141 16.766 12.574 26.984 14.883 10.223 2.3125 20.887 1.6758 30.762-1.8281 18.605-6.5938 28.25-27.227 47.801-31.961 16.523-5.1641 34.539-1.5586 47.801 9.5664 6.918 10.184 10.59 22.227 10.535 34.539 1.5312 10.668 6.1992 20.641 13.418 28.648 7.2148 8.0078 16.652 13.684 27.105 16.309 14 3.0898 27.738-5.6445 41.699-1.8359 11.176 3.6289 20.074 12.172 24.156 23.188 5.1758 17.875 9.1836 36.07 11.992 54.469 5.6094 18.055 30.027 23.852 31.297 43.938 1.6484 17.77-17.297 29.633-15.004 47.27 1.2891 10.27 11.82 14.344 19.723 18.738v-0.003906c10.234 6.2852 17.18 16.758 18.984 28.629 3.6016 18.965-9 37.23-3.2383 56.117 7.8281 18.977 8.168 40.219 0.94531 59.434-10.285 13.871-26.496 22.102-43.766 22.223-12.289 1.2812-23.773 6.7344-32.531 15.453-8.7617 8.7188-14.27 20.176-15.609 32.461-0.85156 14.285 10.668 24.84 13.453 38.156 1.0742 9.0547-1.1406 18.188-6.2383 25.746-5.0977 7.5547-12.742 13.031-21.535 15.426-12.371 4.1484-26.316-4.0547-37.797 3.7891-19.73 14.109-31.734 36.625-32.457 60.871 0.37891 11.234 6.4805 25.461 19.285 26.371l0.003906 0.003906c8.4922-2.5898 16.367-6.875 23.152-12.602 63.277-41.789 113.57-100.48 145.18-169.41 18.312-37.039 27.922-77.773 28.098-119.09 0.17969-70.828-13.879-140.97-41.34-206.26-27.48-54.859-66.836-102.91-115.21-140.65z"/>
  <path d="m557.46 326.86c-20.965 3.6602-38.41 18.188-45.801 38.148-7.3867 19.961-3.6133 42.344 9.918 58.777 13.527 16.43 34.77 24.434 55.777 21.012 14.168-2.4844 27-9.8906 36.238-20.914 9.2383-11.02 14.285-24.953 14.254-39.332-0.53125-17.438-8.582-33.793-22.074-44.852-13.492-11.059-31.109-15.742-48.312-12.84z"/>
  <path d="m729.75 383.43c-20.25 3.3281-37.426 16.707-45.605 35.527-8.1758 18.824-6.2383 40.508 5.1484 57.582 11.387 17.07 30.66 27.195 51.18 26.875 16.84-0.1875 32.836-7.3945 44.133-19.887 11.297-12.488 16.867-29.129 15.367-45.902-1.5-16.773-9.9336-32.16-23.266-42.449-13.332-10.289-30.352-14.547-46.957-11.746z"/>
  <path d="m453.9 478.71c8.793-15.926 9.9062-34.977 3.0312-51.816-6.875-16.844-21.004-29.668-38.43-34.891s-36.277-2.2812-51.285 8.0039c-15.004 10.285-24.551 26.805-25.969 44.941-1.7148 18.531 5.2734 36.812 18.91 49.48 13.637 12.664 32.383 18.281 50.738 15.203s34.246-14.5 43.004-30.922z"/>
  <path d="m646.83 902.79c-16.898 3.3906-27.434 18.02-39.672 28.723h-0.003906c-7.1602 6-16.148 9.3867-25.488 9.6094-9.3359 0.21875-18.473-2.7422-25.91-8.3945-13.414-9.9297-24.344-26.469-42.664-26.941-20.707-0.73828-35.961 15.629-55.094 20.176h-0.003906c-22.816 1.0195-45.031-7.4727-61.348-23.453-10.918-10.402-15.695-25.703-12.637-40.469 1.2188-5.8086 0.66016-11.848-1.6055-17.332-2.2617-5.4844-6.125-10.16-11.086-13.418-11.027-7.0664-25.16-1.0039-36.586-6.9141-6.0078-3.5039-10.98-8.543-14.406-14.598-3.4258-6.0547-5.1797-12.91-5.0898-19.867 1.4805-9.2188-0.070313-18.672-4.4141-26.941-9.8789-9.4727-22.035-16.234-35.297-19.625-6.1953-3.0117-11.418-7.6992-15.078-13.535-3.6562-5.8359-5.6016-12.582-5.6094-19.469 0.27734-17.93 4.9688-35.512 13.66-51.191 5.6016-9.2109 7.7969-20.094 6.1953-30.75-4.6836-9.9102-10.992-18.965-18.664-26.789-6.3164-9.2852-8.0938-20.934-4.8281-31.68 5.7227-15.84 20.688-26.371 25.746-42.59 10.688-28.891-22.695-56.043-49.41-51.305-9.0938 5.3047-10.516 17.031-13.414 26.238-21.922 82.512-14.582 170.07 20.766 247.77 27.91 54.637 64.238 104.54 107.65 147.89 22.273 22.992 48.727 41.531 77.945 54.621 52.234 22.32 107.8 35.848 164.45 40.031 42.188 3.9883 84.734-1.2656 124.68-15.402 6.5-1.9062 11.984-6.3164 15.238-12.258 3.2578-5.9414 4.0273-12.934 2.1328-19.441-6.3555-15.293-17.816-27.91-32.434-35.695-14.621-7.7891-31.484-10.266-47.723-7.0078z"/>
  <path d="m483.38 541.68c-1.0859 9.875 1.4609 19.812 7.1602 27.953 5.6992 8.1367 14.164 13.926 23.816 16.285 10.727 2.5234 22.016 0.57031 31.27-5.4023 9.2578-5.9766 15.684-15.461 17.801-26.273 2.1172-10.812-0.25781-22.02-6.5781-31.043-6.3203-9.0234-16.039-15.09-26.922-16.797-10.883-1.707-21.992 1.0859-30.773 7.7422-8.7812 6.6523-14.473 16.594-15.773 27.535z"/>
  <path d="m796.59 633.36c9.207 9.3984 21.266 15.488 34.293 17.316 13.031 1.832 26.297-0.69922 37.738-7.1992 17.055-9.2383 28.633-26.109 31.109-45.348 2.4766-19.238-4.4453-38.496-18.602-51.754-14.16-13.258-33.828-18.902-52.863-15.168-14.426 2.8086-27.34 10.758-36.352 22.371-9.0078 11.609-13.5 26.098-12.641 40.77s7.0117 28.535 17.316 39.012z"/>
  <path d="m657.85 541.02c-13.559 2.0312-25.164 10.789-30.836 23.273-5.6719 12.48-4.6328 26.988 2.7578 38.535 7.3906 11.547 20.125 18.566 33.836 18.645s26.527-6.793 34.051-18.254c4.8828-7.2344 7.25-15.871 6.7305-24.582-0.51562-8.7148-3.8867-17.012-9.5938-23.617-9.0703-10.73-23.039-16.023-36.945-14z"/>
  <path d="m314.54 652.16c-4.5898 10.633-6.0508 22.352-4.2109 33.785 1.8398 11.434 6.9023 22.105 14.594 30.762 7.7734 8.9375 18.027 15.359 29.465 18.445 11.434 3.0898 23.527 2.7031 34.742-1.1094 13.574-4.6953 25.082-13.984 32.535-26.258 7.4531-12.277 10.387-26.773 8.293-40.98-2.5508-15.5-11.039-29.395-23.668-38.738-12.629-9.3398-28.402-13.395-43.969-11.297-20.977 2.7383-39.051 16.121-47.781 35.391z"/>
  <path d="m536.62 633.91c-12.031 2.3086-22.438 9.8047-28.43 20.492s-6.9648 23.473-2.6602 34.945c4.0938 10.242 12.164 18.391 22.371 22.574 10.203 4.1836 21.672 4.0508 31.777-0.37109 12.156-5.4375 20.898-16.461 23.43-29.539 2.5273-13.074-1.4805-26.562-10.734-36.137-9.2539-9.5781-22.598-14.043-35.754-11.965z"/>
  <path d="m686.16 711.3c-19.059 4.8086-34.555 18.648-41.484 37.043-6.9297 18.398-4.4102 39.02 6.7422 55.207 11.152 16.191 29.523 25.891 49.18 25.973 17.488 0.42969 34.297-6.7734 46.051-19.727 11.754-12.953 17.293-30.379 15.172-47.742-2.1211-17.363-11.688-32.945-26.215-42.691-14.527-9.7422-32.574-12.688-49.445-8.0625z"/>
  <path d="m472.6 776.02c-6.6328 11.352-9.3867 24.559-7.8359 37.617 1.5469 13.055 7.3125 25.25 16.418 34.738 8.1758 8.5547 18.703 14.492 30.254 17.062 11.551 2.5703 23.605 1.6562 34.637-2.625 18.023-7.0898 31.52-22.438 36.25-41.215 4.7344-18.781 0.11719-38.691-12.398-53.473-12.512-14.781-31.387-22.621-50.691-21.055-19.305 1.5625-36.668 12.344-46.633 28.949z"/>
 </g>
</svg>
