<?xml version="1.0" encoding="UTF-8"?>
<svg width="1200pt" height="1200pt" version="1.1" viewBox="0 0 1200 1200" xmlns="http://www.w3.org/2000/svg">
 <path d="m817.03 201.14h-434.06c-47.672 0.046875-93.375 19.031-127.08 52.734s-52.688 79.406-52.734 127.13v434.02c0.046875 47.672 19.031 93.375 52.734 127.13 33.703 33.703 79.406 52.641 127.08 52.688h434.06c47.672-0.046875 93.375-18.984 127.08-52.688 33.703-33.75 52.688-79.453 52.734-127.13v-434.06 0.046874c-0.046875-47.672-19.031-93.422-52.734-127.13-33.703-33.703-79.406-52.688-127.08-52.734zm130.5 613.87c0 72.094-58.453 130.5-130.5 130.5h-434.06c-72.047 0-130.5-58.406-130.5-130.5v-434.06 0.046875c0-34.641 13.734-67.828 38.25-92.297 24.469-24.469 57.656-38.25 92.25-38.25h434.06c34.594 0 67.781 13.781 92.25 38.25 24.516 24.469 38.25 57.656 38.25 92.297z"/>
 <path d="m903.05 367.18c7.6406 46.969-24.281 91.266-71.25 98.859-46.969 7.6406-91.266-24.281-98.859-71.25-7.6406-46.969 24.281-91.266 71.25-98.859 46.969-7.6406 91.219 24.281 98.859 71.25"/>
 <path d="m686.16 598.5c0 47.578-38.578 86.156-86.156 86.156s-86.156-38.578-86.156-86.156c0-47.625 38.578-86.203 86.156-86.203s86.156 38.578 86.156 86.203"/>
 <path d="m469.22 815.48c0 47.625-38.578 86.203-86.156 86.203s-86.203-38.578-86.203-86.203c0-47.578 38.625-86.156 86.203-86.156s86.156 38.578 86.156 86.156"/>
</svg>
