<?xml version="1.0" encoding="UTF-8"?>
<svg width="1200pt" height="1200pt" version="1.1" viewBox="0 0 1200 1200" xmlns="http://www.w3.org/2000/svg">
 <g>
  <path d="m895.2 789.6c10.801-12 30-13.199 43.199-3.6016 12 10.801 13.199 30 2.3984 42-135.6 158.4-205.2 18-247.2-112.8-190.8 306-454.8 145.2-441.6-130.8 12-258 314.4-469.2 457.2-24 36-75.602 66-153.6 98.398-230.4 7.1992-15.602 24-22.801 39.602-16.801 15.602 7.1992 22.801 24 16.801 39.602-40.801 97.199-80.398 196.8-129.6 290.4 27.602 91.199 55.199 268.8 160.8 146.4zm-225.6-152.4c-124.8-414-346.8-292.8-357.6-50.398-12 252 198 342 357.6 50.398z"/>
  <path d="m13.199 586.8 280.8-506.4 8.3984-14.398h595.2l8.3984 14.398 280.8 506.4 7.1992 13.199-7.1992 13.199-280.8 506.4-8.3984 14.398h-595.2l-8.3984-14.398-280.8-506.4-7.1992-13.199zm190.8-226.8-133.2 240 133.2 240 132 237.6h528l132-237.6 133.2-240-133.2-240-132-237.6h-528z"/>
 </g>
</svg>
