<?xml version="1.0" encoding="UTF-8"?>
<svg width="1200pt" height="1200pt" version="1.1" viewBox="0 0 1200 1200" xmlns="http://www.w3.org/2000/svg">
 <path d="m1065 99.984h-930c-19.312 0-35.016 15.703-35.016 35.016v930c0 19.312 15.703 35.016 35.016 35.016h930c19.312 0 35.016-15.703 35.016-35.016v-930c0-19.312-15.703-35.016-35.016-35.016zm-837.52 825c-37.406 0-71.109-22.5-85.453-57.094-14.297-34.547-6.375-74.344 20.062-100.78 26.438-26.484 66.234-34.406 100.78-20.062 34.594 14.297 57.141 48.047 57.141 85.453 0 24.516-9.75 48.047-27.094 65.391s-40.875 27.094-65.438 27.094zm0-232.5c-37.406 0-71.109-22.5-85.453-57.094-14.297-34.547-6.375-74.344 20.062-100.78 26.438-26.484 66.234-34.406 100.78-20.062 34.594 14.297 57.141 48.047 57.141 85.453 0 51.094-41.438 92.484-92.531 92.484zm0-232.5c-37.406 0-71.109-22.5-85.453-57.094-14.297-34.547-6.375-74.344 20.062-100.78 26.438-26.484 66.234-34.406 100.78-20.062 34.594 14.297 57.141 48.047 57.141 85.453 0 51.094-41.438 92.484-92.531 92.484zm200.02 453.52c-32.766 0-62.297-19.734-74.812-50.016-12.562-30.234-5.625-65.109 17.531-88.266s58.031-30.094 88.266-17.531c30.281 12.516 50.016 42.047 50.016 74.812 0.14062 21.891-8.625 42.891-24.281 58.172s-36.844 23.531-58.734 22.828zm0-232.5c-32.953 0.79688-63.094-18.375-76.266-48.609-13.172-30.188-6.7031-65.344 16.266-88.922 23.016-23.578 57.984-30.891 88.5-18.469s50.484 42.047 50.484 75c0 44.719-36.234 81-81 81zm-2.0156-231c-32.766 0-62.297-19.734-74.812-50.016-12.562-30.234-5.625-65.109 17.531-88.266 23.203-23.156 58.031-30.094 88.312-17.531 30.234 12.516 49.969 42.047 49.969 74.812 0 44.719-36.234 81-81 81zm200.02 453.52c-28.125 0-53.438-16.969-64.219-42.938-10.734-25.969-4.7812-55.828 15.094-75.703s49.734-25.828 75.703-15.094c25.969 10.781 42.938 36.094 42.938 64.219-1.9219 38.016-33.984 67.406-72 66zm0-232.5c-28.172 0.98438-54.188-15.141-65.812-40.828s-6.5625-55.828 12.797-76.359c19.359-20.484 49.172-27.281 75.469-17.156 26.344 10.125 43.922 35.156 44.531 63.328 0 38.391-31.078 69.516-69.469 69.516zm0-232.5c-28.125 0-53.438-16.969-64.219-42.938-10.734-25.969-4.7812-55.828 15.094-75.703s49.734-25.828 75.703-15.094c25.969 10.781 42.938 36.094 42.938 64.219-0.42188 18.609-8.25 36.281-21.797 49.078-13.5 12.797-31.594 19.594-50.203 18.938zm200.02 453.52v-0.046875c-23.484 0-44.625-14.109-53.578-35.766-9-21.703-4.0312-46.641 12.562-63.234s41.531-21.562 63.188-12.562c21.703 8.9531 35.812 30.141 35.812 53.578-0.375 15.938-7.2656 31.031-19.078 41.719s-27.516 16.031-43.406 14.766zm0-232.5v-0.046875c-23.672 1.8281-46.031-10.922-56.531-32.156-10.453-21.281-6.9375-46.781 8.9062-64.453 15.844-17.625 40.875-23.812 63.094-15.656 22.266 8.1562 37.312 29.062 38.016 52.781 0 32.016-25.969 57.984-57.984 57.984zm0-232.5v-0.046875c-23.484 0-44.625-14.109-53.578-35.766-9-21.703-4.0312-46.641 12.562-63.234s41.531-21.562 63.188-12.562c21.703 8.9531 35.812 30.141 35.812 53.578-0.375 15.938-7.2656 31.031-19.078 41.719s-27.516 16.031-43.406 14.766zm200.02 453.52-0.046875-0.046875c-13.078 1.3594-26.156-2.9062-35.953-11.719-9.75-8.8125-15.328-21.375-15.328-34.547s5.5781-25.688 15.328-34.547c9.7969-8.8125 22.875-13.031 35.953-11.672 23.719 2.4375 41.719 22.406 41.719 46.219s-18 43.781-41.719 46.266zm0-232.5-0.046875-0.046875c-19.031 2.8594-37.875-6.2812-47.391-23.016-9.5156-16.781-7.6875-37.641 4.5469-52.5s32.391-20.672 50.625-14.578c18.281 6.1406 30.891 22.875 31.734 42.094 0 25.5-20.531 46.219-45.984 46.5zm0-233.02-0.046875-0.046875c-18.891 0.23438-36-11.016-43.359-28.453-7.3125-17.438-3.375-37.547 9.9844-50.906s33.516-17.297 50.906-9.9844c17.438 7.3125 28.688 24.469 28.5 43.359-0.46875 13.078-6.4219 25.406-16.406 33.844-10.031 8.4844-23.109 12.375-36.094 10.641z"/>
</svg>
