<?xml version="1.0" encoding="UTF-8"?>
<svg width="1200pt" height="1200pt" version="1.1" viewBox="0 0 1200 1200" xmlns="http://www.w3.org/2000/svg">
 <path d="m0 22.5v1155h1200v-1155zm1143.7 1098.7h-1087.5v-1042.5h1087.5z"/>
 <path d="m124.22 142.6h116.95v56.25h-116.95z"/>
 <path d="m491.21 198.84h65.297v-56.25h-229.69v56.25z"/>
 <path d="m168.79 744.89c0 53.391 36.797 98.25 86.344 110.81v155.58h56.25v-155.58c49.547-12.562 86.344-57.422 86.344-110.81s-36.797-98.25-86.344-110.81l-0.046875-268.22h-56.25v268.22c-49.5 12.562-86.297 57.422-86.297 110.81zm172.64 0c0 32.109-26.109 58.219-58.219 58.219s-58.219-26.109-58.219-58.219c0-32.062 26.109-58.219 58.219-58.219s58.219 26.109 58.219 58.219z"/>
 <path d="m485.53 572.21c0 53.391 36.797 98.25 86.344 110.81v328.26h56.25l0.046875-328.26c49.5-12.609 86.297-57.422 86.297-110.81s-36.797-98.203-86.297-110.81v-95.578h-56.25v95.531c-49.547 12.656-86.391 57.469-86.391 110.86zm172.69 0c0 32.109-26.109 58.219-58.172 58.219-32.109 0-58.219-26.109-58.219-58.219 0-32.062 26.156-58.219 58.219-58.219 32.062 0.046875 58.172 26.109 58.172 58.219z"/>
 <path d="m888.61 855.71v155.58h56.25v-155.58c49.547-12.562 86.344-57.422 86.344-110.81s-36.797-98.25-86.344-110.81v-268.22h-56.25v268.22c-49.5 12.562-86.344 57.422-86.344 110.81 0.046875 53.391 36.844 98.203 86.344 110.81zm28.125-169.03c32.109 0 58.219 26.109 58.219 58.219 0 32.062-26.156 58.219-58.219 58.219s-58.219-26.109-58.219-58.219c0.046875-32.109 26.156-58.219 58.219-58.219z"/>
</svg>
