<?xml version="1.0" encoding="UTF-8"?>
<svg width="1200pt" height="1200pt" version="1.1" viewBox="0 0 1200 1200" xmlns="http://www.w3.org/2000/svg">
 <defs>
  <clipPath id="c">
   <path d="m222.14 602h359.86v281h-359.86z"/>
  </clipPath>
  <clipPath id="b">
   <path d="m569 468h408.86v327h-408.86z"/>
  </clipPath>
  <clipPath id="a">
   <path d="m569 468h408.86v327h-408.86z"/>
  </clipPath>
 </defs>
 <path d="m377.83 301.27c-22.836 2.75-44.812 10.949-64.242 23.273-38.859 24.652-67.77 65.938-72.785 113.93-5.0195 47.992 14.176 102.25 69.734 151.85 31.617 28.227 80.285 32.438 129.53 31.816 49.246-0.62109 99.766-6.2344 134.76-0.60937v-0.003907c1.9414 0.32031 3.9141-0.35156 5.2617-1.7852 1.3438-1.4336 1.8906-3.4453 1.4492-5.3633-11.238-47.402-10.867-109.08-25.016-158.38-23.172-80.742-64.07-126.41-109.48-145.31-22.707-9.4492-46.379-12.164-69.211-9.4141zm1.3086 11.68c20.957-2.5391 42.613-0.007812 63.371 8.6289 41.516 17.277 80.199 59.375 102.68 137.73 12.785 44.547 13.484 102.2 23.711 150.54-37.031-4.4961-83.363-0.13672-129.01 0.4375-48.422 0.60938-94.047-4.2461-121.51-28.766-53.398-47.668-70.5-97.809-65.898-141.82 4.6016-44.012 31.324-82.34 67.379-105.21 18.027-11.438 38.32-18.992 59.273-21.531z"/>
 <g clip-path="url(#c)">
  <path d="m346.54 602.61c-0.47266 0-0.9375 0.058593-1.3945 0.17188-8.2812 0.035156-16.523 0.58594-24.145 2.9648-56.715 17.719-91.449 66.953-97.805 118.72-6.3555 51.77 15.945 106.65 72.176 134.76 22.355 11.176 74.539 23.23 99.457 23.012 62.781-0.55078 101.75-27.945 126.66-67.469 24.91-39.52 36.586-90.73 48.117-140.69 4.4414-19.25 12.117-38.992 12.117-58.402 0.003906-2.9023-2.1016-5.3789-4.9688-5.8398-29.699-4.7734-67.109-2.1211-105.3-0.52344-38.191 1.5977-77.121 2.1836-108.7-5.8398h0.003906c-0.34375-0.089843-0.69141-0.14844-1.0469-0.17578-4.957-0.3125-10.012-0.66797-15.168-0.69922zm-0.089844 11.855c4.668 0.027343 9.4844 0.30078 14.469 0.60937l-1.043-0.17578c33.91 8.6172 73.707 7.8828 112.1 6.2773 36.082-1.5117 69.816-3.0508 96.668 0.34766-1.2344 15.031-6.3516 31.77-10.547 49.949-11.527 49.953-23.223 100.02-46.547 137.03-23.324 37.008-57.41 61.367-116.89 61.891-20.465 0.17969-75.613-12.531-93.969-21.703-51.891-25.941-71.645-75.305-65.812-122.82 5.832-47.516 37.52-92.598 89.609-108.87 6.2695-1.957 13.859-2.5703 21.965-2.5273z"/>
 </g>
 <path d="m575.79 609.75c-1.5742 0.015625-3.0781 0.66016-4.1758 1.7891-1.0938 1.1328-1.6953 2.6523-1.6641 4.2266l-0.089844-0.089843c0 16.148-7.082 35.484-11.77 55.789-14.762 63.953-29.98 127.79-69.125 164.84v-0.003907c-0.875 0.81641-1.4844 1.8828-1.7422 3.0508-0.86719 4.2109-1.7344 8.4727-2.5273 12.812-9.4453 51.941 11.531 87.473 46.113 105.12 34.578 17.652 81.789 18.73 126.74 7.1484 44.953-11.586 87.871-36.004 113.41-71.477 25.535-35.473 32.785-82.363 6.3633-135.2-15.324-30.641-52.176-56.773-91.438-80.98-39.262-24.203-81.211-46.223-106.43-65.727l-0.003907 0.003906c-1.0352-0.83594-2.3242-1.2969-3.6562-1.3086zm4.0078 15.34c26.801 19.41 63.855 39.582 99.895 61.801 38.777 23.906 74.043 50.027 87.082 76.098 24.824 49.641 17.938 90.652-5.4062 123.08-23.344 32.43-63.977 55.914-106.78 66.945-42.805 11.031-87.555 9.457-118.38-6.2773-30.82-15.73-48.68-44.332-39.922-92.484 0.72266-3.9648 1.5312-7.9336 2.3516-11.941 41.262-40.73 56.438-105.33 70.957-168.23 3.7266-16.148 8.3711-32.629 10.199-48.988z"/>
 <g clip-path="url(#b)">
  <path d="m849.84 468.02c-2.8906 0.050781-5.7695 0.1875-8.6289 0.4375-51.262 4.6602-102.74 46.445-142.52 69.648-40.516 23.629-90.836 46.031-126.48 72.871h-0.003906c-1.4727 1.1172-2.3398 2.8594-2.3398 4.707 0 1.8516 0.86719 3.5938 2.3398 4.707 26.789 20.715 68.699 42.602 107.48 66.508s74.043 50.027 87.082 76.098c3.1055 6.2109 5.7148 12.359 7.8438 18.305l0.003907 0.003906c0.64453 1.7773 2.1016 3.1406 3.9219 3.6602 62.918 18.703 111.08 8.3594 144-18.391 32.926-26.754 50.359-69.074 54.395-113.23s-5.2227-90.453-26.672-125.96c-20.863-34.531-54.332-58.008-97.191-58.488l-0.003906-0.003906c-0.96875-0.59766-2.0898-0.89844-3.2266-0.87109zm0.17969 11.77c40.195-0.8125 70.27 20.82 90.133 53.695s28.832 76.953 25.016 118.72-20.285 81.039-50.035 105.21c-29.285 23.797-72.062 33.25-130.84 16.477-2.0391-5.3242-4.2383-10.664-6.9727-16.125-15.324-30.641-52.176-56.773-91.438-80.98-36.398-22.441-73.121-42.5-98.676-60.93 33.555-23.562 78.645-44.945 117.41-67.555 41.16-24.004 92.199-63.945 137.64-68.078 2.6953-0.23047 5.2578-0.39453 7.7578-0.4375z"/>
 </g>
 <path d="m691.11 227.96c-8.4375 0.13281-16.207 0.48047-22.75 0.87109-57.691 3.4336-94.961 33.422-113.84 76.184-18.879 42.766-20.273 97.895-9.5 153.77h-0.003906c0.050781 0.17578 0.10938 0.35156 0.17969 0.52344 13.398 46.688 13.074 108.14 24.844 157.77h-0.003906c0.46875 1.9414 1.8867 3.5156 3.7656 4.1836 1.8828 0.67188 3.9766 0.33984 5.5625-0.87109 33.867-25.504 83.898-47.965 125.26-72.09v0.089844c3.6758-2.1445 7.4531-4.5859 11.156-6.8867h0.089844c25.473-16.094 63.695-43.215 89.871-73.746 26.312-30.691 39.684-73.988 36-115.93-3.6836-41.945-24.793-82.801-67.469-107.21-25.109-14.367-55.594-16.309-80.543-16.125-0.82031-0.37109-1.7148-0.55078-2.6133-0.52344zm0.17969 11.77c24.484-0.34375 54.469 2.1914 77.145 15.168 39.234 22.449 58.141 59.246 61.539 97.977 3.4023 38.73-9.1992 79.121-33.211 107.13-24.707 28.816-62.363 55.836-87.254 71.566-3.6992 2.293-7.3945 4.5508-10.809 6.5391-37.945 22.129-83.43 43.621-118.46 68.254-9.582-46.141-10.328-103.12-23.621-149.84l-0.089844-0.52344c-10.344-54.059-8.5742-106.82 8.8047-146.18 17.438-39.492 49.703-65.91 103.73-69.125 6.4727-0.38672 14.051-0.82812 22.227-0.95703z"/>
 <path d="m377.83 301.27c-22.836 2.75-44.812 10.949-64.242 23.273-38.859 24.652-67.77 65.938-72.785 113.93-5.0195 47.992 14.176 102.25 69.734 151.85 31.617 28.227 80.285 32.438 129.53 31.816 49.246-0.62109 99.766-6.2344 134.76-0.60937v-0.003907c1.9414 0.32031 3.9141-0.35156 5.2617-1.7852 1.3438-1.4336 1.8906-3.4453 1.4492-5.3633-11.238-47.402-10.867-109.08-25.016-158.38-23.172-80.742-64.07-126.41-109.48-145.31-22.707-9.4492-46.379-12.164-69.211-9.4141zm1.3086 11.68c20.957-2.5391 42.613-0.007812 63.371 8.6289 41.516 17.277 80.199 59.375 102.68 137.73 12.785 44.547 13.484 102.2 23.711 150.54-37.031-4.4961-83.363-0.13672-129.01 0.4375-48.422 0.60938-94.047-4.2461-121.51-28.766-53.398-47.668-70.5-97.809-65.898-141.82 4.6016-44.012 31.324-82.34 67.379-105.21 18.027-11.438 38.32-18.992 59.273-21.531z"/>
 <g clip-path="url(#a)">
  <path d="m849.84 468.02c-2.8906 0.050781-5.7695 0.1875-8.6289 0.4375-51.262 4.6602-102.74 46.445-142.52 69.648-40.516 23.629-90.836 46.031-126.48 72.871h-0.003906c-1.4727 1.1172-2.3398 2.8594-2.3398 4.707 0 1.8516 0.86719 3.5938 2.3398 4.707 26.789 20.715 68.699 42.602 107.48 66.508s74.043 50.027 87.082 76.098c3.1055 6.2109 5.7148 12.359 7.8438 18.305l0.003907 0.003906c0.64453 1.7773 2.1016 3.1406 3.9219 3.6602 62.918 18.703 111.08 8.3594 144-18.391 32.926-26.754 50.359-69.074 54.395-113.23s-5.2227-90.453-26.672-125.96c-20.863-34.531-54.332-58.008-97.191-58.488l-0.003906-0.003906c-0.96875-0.59766-2.0898-0.89844-3.2266-0.87109zm0.17969 11.77c40.195-0.8125 70.27 20.82 90.133 53.695s28.832 76.953 25.016 118.72-20.285 81.039-50.035 105.21c-29.285 23.797-72.062 33.25-130.84 16.477-2.0391-5.3242-4.2383-10.664-6.9727-16.125-15.324-30.641-52.176-56.773-91.438-80.98-36.398-22.441-73.121-42.5-98.676-60.93 33.555-23.562 78.645-44.945 117.41-67.555 41.16-24.004 92.199-63.945 137.64-68.078 2.6953-0.23047 5.2578-0.39453 7.7578-0.4375z"/>
 </g>
 <path d="m575.61 609.75c-1.3125 0.054688-2.5703 0.54688-3.5742 1.3984-33.348 27.227-87.789 98.363-119.33 138.34v-0.003906c-2.0156 2.5547-1.5859 6.2578 0.96094 8.2812 2.5508 2.0195 6.2539 1.5898 8.2812-0.95703 31.645-40.098 87.289-111.77 117.59-136.5 1.2344-0.98828 2.0195-2.4297 2.1836-4.0039s-0.30859-3.1445-1.3164-4.3672c-1.168-1.4375-2.9414-2.2422-4.793-2.1758z"/>
 <path d="m575.96 609.75c-0.37891-0.003906-0.76172 0.023438-1.1328 0.089844-42.906 6.9492-84.168 34.949-113.75 53.086h-0.003907c-2.7617 1.7148-3.6172 5.3359-1.918 8.1055 0.80859 1.3438 2.1172 2.3086 3.6406 2.6836 1.5195 0.375 3.125 0.13281 4.4648-0.67578 29.969-18.371 70.414-45.188 109.48-51.516v-0.003907c1.5508-0.25 2.9375-1.1055 3.8555-2.3828 0.91406-1.2773 1.2852-2.8633 1.0273-4.4141-0.44922-2.8047-2.8281-4.8906-5.668-4.9688z"/>
 <path d="m576.05 609.75c-0.35156 0-0.69922 0.03125-1.043 0.089844-23.758 3.3789-62.828 10.301-98.938 17.609-36.105 7.3086-68.406 14.535-81.676 20.309-2.9805 1.3047-4.3477 4.7734-3.0508 7.7578 0.60938 1.4492 1.7695 2.5938 3.2266 3.1836 1.4531 0.58594 3.0859 0.57031 4.5312-0.042969 9.7617-4.25 43.426-12.434 79.324-19.699 35.895-7.2656 74.91-14.117 98.238-17.434l-0.003906-0.003907c3.1875-0.48047 5.3984-3.4297 4.9688-6.6211-0.36328-2.8438-2.7188-5.0117-5.5781-5.1445z"/>
 <path d="m575.44 609.84c-2.2266 0.14062-4.1797 1.5234-5.0547 3.5742-16.91 39.973-28.23 89.078-55.004 123.25-2.0156 2.5547-1.5898 6.2578 0.95703 8.2812 2.5781 1.9961 6.2852 1.5273 8.2812-1.0469 29.105-37.16 40.398-87.43 56.66-125.87 0.61719-1.4414 0.63281-3.0742 0.042968-4.5312-0.58984-1.4531-1.7344-2.6172-3.1797-3.2266-0.85547-0.35547-1.7773-0.50391-2.6992-0.4375z"/>
 <path d="m420.54 516.13c-2.2539-0.070312-4.3477 1.1484-5.4023 3.1367-0.75391 1.375-0.92969 2.9961-0.48828 4.5 0.44141 1.5039 1.4609 2.7695 2.8398 3.5195 44.863 24.438 124.97 67.137 154.46 92.836 2.4375 2.1211 6.1289 1.8867 8.2812-0.52344 1.0469-1.1758 1.5781-2.7227 1.4805-4.293-0.097657-1.5703-0.82031-3.0391-2.0039-4.0742-32.453-28.281-111.83-69.957-156.55-94.316-0.79688-0.46094-1.6914-0.73047-2.6133-0.78516z"/>
 <path d="m505 508.55c-1.2617 0.11328-2.4531 0.63281-3.3984 1.4805-2.4414 2.125-2.7109 5.8203-0.61328 8.2812 23.156 26.445 56.398 61.848 69.211 99.285 1.0625 3.0781 4.418 4.7148 7.4961 3.6602 3.0781-1.0625 4.7188-4.4141 3.6602-7.4961-14.074-41.117-48.617-77.102-71.477-103.21-1.2227-1.3984-3.0312-2.1406-4.8828-2.0039z"/>
 <path d="m509.1 439.6c-1.293-0.09375-2.5781 0.24609-3.6602 0.95703-1.3203 0.85156-2.25 2.1953-2.5781 3.7344-0.32422 1.5391-0.027343 3.1445 0.83594 4.4609 5.832 8.9062 19.57 40.723 32.777 74.879 13.207 34.152 26.535 71.449 33.734 93.879l-0.003907-0.003907c0.98828 3.1055 4.3047 4.8203 7.4102 3.8359 1.5078-0.47266 2.7656-1.5352 3.4883-2.9453 0.71875-1.4062 0.84375-3.0469 0.34375-4.5508-7.3281-22.844-20.711-60.137-33.996-94.488-13.285-34.355-25.895-64.949-33.82-77.055v-0.003907c-1-1.5625-2.6797-2.5625-4.5312-2.7031z"/>
 <path d="m428.3 567.65c-2.2539-0.070313-4.3477 1.1484-5.4023 3.1406-1.5117 2.8398-0.46484 6.3711 2.3516 7.9297 41.551 22.438 108.2 33.062 149.23 42.711v0.003906c3.1484 0.72266 6.2969-1.2188 7.0625-4.3594 0.37109-1.5273 0.12109-3.1406-0.69531-4.4805-0.82031-1.3438-2.1367-2.3008-3.668-2.668-41.863-9.8438-108.08-20.957-146.27-41.578h0.003906c-0.80859-0.43359-1.7031-0.67188-2.6172-0.69922z"/>
 <path d="m626.08 457.47c-2.2461 0.37109-4.0742 2-4.707 4.1836-14.785 49.109-31.535 116.87-50.73 151.15h-0.003906c-1.5781 2.8438-0.56641 6.4297 2.2695 8.0195 2.8398 1.582 6.4258 0.57031 8.0195-2.2656 20.949-37.402 37.16-104.95 51.777-153.5v0.003907c0.46875-1.5039 0.31641-3.1328-0.41797-4.5234-0.73828-1.3906-2-2.4297-3.5039-2.8867-0.87891-0.26953-1.8047-0.32812-2.707-0.17578z"/>
 <path d="m634.89 515.96c-2.2266-0.15625-4.3516 0.95703-5.4922 2.8789-19.648 33.609-34.98 61.02-58.402 93.355-0.93359 1.2695-1.3164 2.8594-1.0703 4.4141 0.24219 1.5547 1.1016 2.9453 2.3789 3.8672 1.2695 0.93359 2.8555 1.3164 4.4102 1.0703 1.5547-0.24219 2.9492-1.1016 3.8711-2.3789 23.844-32.922 39.426-60.809 59.012-94.316v0.003906c0.80078-1.3516 1.0312-2.9688 0.63672-4.4883-0.39062-1.5234-1.375-2.8242-2.7305-3.6211-0.79688-0.46094-1.6953-0.73047-2.6133-0.78516z"/>
 <path d="m690.5 496.87c-1.7305 0.039062-3.3555 0.83594-4.4453 2.1758-18.488 23.234-78.863 88.355-113.58 111.75h-0.003906c-2.6914 1.832-3.3945 5.4961-1.5703 8.1953 1.832 2.6914 5.4961 3.3945 8.1953 1.5703 37.746-25.438 96.68-89.574 116.2-114.1v-0.003907c2.0156-2.5508 1.5859-6.2539-0.96094-8.2812-1.082-0.875-2.4414-1.3359-3.832-1.3047z"/>
 <path d="m588.95 473.77c-2.7344 0.24609-4.9336 2.3398-5.3203 5.0547-7.3281 51.559-11.672 95.191-13.684 136.59-0.16016 3.2461 2.332 6.0117 5.5781 6.1875 1.5742 0.078125 3.1133-0.47656 4.2773-1.543 1.1602-1.0625 1.8516-2.5469 1.9141-4.1211 1.9922-40.977 6.3086-84.172 13.598-135.46 0.23047-1.5625-0.17578-3.1484-1.125-4.4102-0.95312-1.2617-2.3672-2.0898-3.9336-2.3008-0.43359-0.046875-0.87109-0.046875-1.3047 0z"/>
 <path d="m575.18 609.84c-0.35156 0.027344-0.70312 0.085937-1.043 0.17188-1.5234 0.44141-2.8047 1.4727-3.5586 2.8672-0.75391 1.3906-0.91797 3.0312-0.44922 4.543 12.324 41.059 49.699 99.648 74.441 143.91 1.5898 2.8359 5.1758 3.8477 8.0195 2.2656 2.832-1.5898 3.8477-5.1758 2.2656-8.0195-25.023-44.77-62.102-103.93-73.395-141.56v0.003907c-0.8125-2.7227-3.4492-4.4805-6.2773-4.1836z"/>
 <path d="m575.87 609.75c-0.37891-0.003906-0.75781 0.023438-1.1328 0.089844-1.5508 0.26953-2.9336 1.1523-3.832 2.4453-0.90234 1.293-1.2461 2.8906-0.96094 4.4414 7.0898 40.023 16.293 70.629 26.762 108v0.003907c0.41797 1.5156 1.4297 2.8047 2.8047 3.5742 1.375 0.76953 3 0.95703 4.5156 0.51953 3.1211-0.875 4.9492-4.1055 4.0977-7.2344-10.5-37.488-19.535-67.641-26.5-106.96v0.003907c-0.49219-2.8008-2.9102-4.8516-5.7539-4.8828z"/>
 <path d="m575.44 609.75c-2.7109 0.19141-4.9414 2.207-5.4062 4.8828-7.9844 44.938-2.4102 137.63 1.6562 168.76 0.19141 1.5625 0.99609 2.9883 2.2422 3.9531 1.2422 0.96484 2.8203 1.3945 4.3828 1.1914 3.2227-0.44141 5.4844-3.4023 5.0547-6.625-3.8438-29.391-9.043-124.1-1.7461-165.18h0.003906c0.28516-1.5508-0.0625-3.1523-0.96094-4.4453-0.90234-1.293-2.2812-2.1719-3.8359-2.4414-0.45703-0.085938-0.92578-0.11719-1.3906-0.089844z"/>
 <path d="m575.18 609.84c-1.2734 0.14062-2.4688 0.69141-3.4023 1.5703-2.3359 2.2227-2.4531 5.9102-0.26563 8.2773 28.691 30.582 69.883 63.973 101.2 104.25h-0.003907c2 2.5742 5.707 3.043 8.2812 1.0469 2.5742-2 3.043-5.707 1.0469-8.2812-32.449-41.73-74.16-75.469-101.9-105.04-1.2773-1.3594-3.1172-2.0391-4.9688-1.8281z"/>
 <path d="m754.39 578.55c-0.35156-0.003906-0.69922 0.027344-1.0469 0.089844-49.895 10.973-138.44 31.18-177.56 31.117-1.5703-0.007812-3.082 0.61719-4.1953 1.7305-1.1133 1.1133-1.7383 2.625-1.7305 4.1953-0.007813 1.5742 0.61719 3.0859 1.7305 4.1992 1.1133 1.1133 2.625 1.7344 4.1953 1.7305 43.051 0.066406 130.35-20.531 180.09-31.469 3.1367-0.72656 5.1133-3.8242 4.4453-6.9727-0.61328-2.7617-3.0977-4.6992-5.9258-4.6211z"/>
 <path d="m576.05 609.75c-2.75-0.10547-5.207 1.7031-5.9258 4.3594-0.85156 3.1289 0.97656 6.3594 4.0977 7.2344 61.492 16.828 99.246 20.637 134.24 16.91v0.003906c3.2148-0.35547 5.5469-3.2305 5.2305-6.4531-0.14844-1.5586-0.91406-3-2.125-3.9961-1.207-0.99609-2.7656-1.4727-4.3281-1.3203-33.285 3.543-69.137 0.14844-129.88-16.477-0.42578-0.13672-0.86328-0.22266-1.3086-0.26172z"/>
 <path d="m574.91 609.84c-1.7422 0.25781-3.2773 1.2812-4.1875 2.7891-0.80859 1.3398-1.0508 2.9492-0.67578 4.4688 0.375 1.5195 1.3398 2.8281 2.6797 3.6367 42.449 25.73 146.62 59.398 171.46 66.422 3.1289 0.85156 6.3555-0.97656 7.2344-4.0977 0.85938-3.0977-0.92188-6.3164-4.0078-7.2344-23.504-6.6484-129.69-41.629-168.58-65.203v0.003906c-1.1758-0.71094-2.5625-0.98828-3.9219-0.78516z"/>
 <path d="m717.17 563.38c-0.34766 0-0.69922 0.027344-1.043 0.089844-44.5 9.957-104.3 26.602-143.04 46.984-1.4062 0.71875-2.4648 1.9727-2.9414 3.4805-0.47266 1.5078-0.32422 3.1406 0.41406 4.5391 0.73438 1.3906 1.9961 2.4297 3.5 2.8906 1.5078 0.45703 3.1328 0.29297 4.5195-0.45312 36.617-19.262 96.223-36.105 140.17-45.938 3.1328-0.72266 5.1094-3.8242 4.4453-6.9727-0.62109-2.793-3.1562-4.7422-6.0156-4.6211z"/>
 <path d="m450.75 463.64c-2.7656 2.9727-2.8438 6.8398-2.2305 9.9492s1.9531 6.1797 3.793 9.3594c3.6797 6.3594 9.457 13.316 16.766 20.113s14.734 12.113 21.34 15.324c3.3047 1.6055 6.4023 2.6562 9.5469 3.0469 3.1445 0.38672 6.9961 0.027344 9.7617-2.9453 2.7656-2.9727 2.9023-6.9023 2.2891-10.012-0.61328-3.1094-1.8906-6.1211-3.7305-9.3008-3.6797-6.3594-9.5195-13.379-16.832-20.176-7.3086-6.7969-14.668-12.055-21.277-15.266-3.3047-1.6055-6.4648-2.7188-9.6094-3.1055-3.1445-0.38672-7.0586 0.035156-9.8203 3.0078zm10.02 9.1953c1.1914 0.30469 2.3242 0.60937 4.1875 1.5117 5.0977 2.4766 11.84 7.1992 18.434 13.332 6.5938 6.1328 11.797 12.512 14.633 17.418 1.043 1.8008 1.4883 2.9609 1.8789 4.1289-1.1953-0.30078-2.4219-0.59375-4.3125-1.5117-5.0977-2.4766-11.836-7.1992-18.434-13.332-6.5938-6.1328-11.797-12.512-14.633-17.418-1.043-1.8047-1.3633-2.9609-1.7539-4.1289z"/>
 <path d="m397.83 702.31c1.8672 3.6016 5.5234 5.0586 8.6562 5.5273 3.1328 0.46875 6.4375 0.16797 10.051-0.49219 7.2266-1.3203 15.766-4.3398 24.629-8.9297 8.8633-4.5898 16.328-9.8672 21.578-15.008 2.625-2.5703 4.6992-5.0547 6.125-7.8867 1.4258-2.8281 2.3438-6.6562 0.47656-10.262-1.8672-3.6016-5.5234-5.0586-8.6562-5.5273-3.1328-0.46875-6.3633-0.20703-9.9766 0.45312-7.2266 1.3203-15.801 4.457-24.664 9.0508s-16.293 9.75-21.539 14.891c-2.625 2.5703-4.7773 5.0938-6.1992 7.9258-1.4258 2.8281-2.3438 6.6562-0.47656 10.262zm12.152-6.2969c0.69141-1.0117 1.3086-1.9688 2.7539-3.3945 4.0469-3.9648 10.727-8.7969 18.723-12.938 7.9961-4.1406 15.797-6.8125 21.367-7.832 2.0117-0.36719 3.2109-0.35938 4.4414-0.33594-0.6875 1.0156-1.332 2.0781-2.7969 3.5078-4.0469 3.9648-10.766 8.7188-18.762 12.863-7.9961 4.1406-15.754 6.8906-21.328 7.9102-2.0078 0.36719-3.1797 0.23828-4.3984 0.21875z"/>
 <path d="m701.95 632.79c0.1875 4 2.8828 6.6719 5.4453 8.2773 2.5625 1.6016 5.4844 2.625 8.8828 3.4141 6.7969 1.5703 15.434 2.0938 24.93 1.4453 9.5-0.64844 18.031-2.3398 24.641-4.8242 3.3047-1.2422 6.1992-2.6641 8.5977-4.6055 2.3984-1.9414 4.7422-4.957 4.5547-8.957s-2.8008-6.6797-5.3594-8.2812c-2.5625-1.6016-5.5703-2.6211-8.9688-3.4062-6.7969-1.5703-15.434-2.0938-24.93-1.4453-9.5 0.64844-18.031 2.3398-24.641 4.8242-3.3047 1.2422-6.1133 2.6562-8.5117 4.5977-2.3984 1.9414-4.8281 4.9609-4.6406 8.9648zm14.09-0.96094c0.9375-0.52344 1.5156-0.96094 2.9844-1.5156 5.043-1.8945 12.73-3.5781 21.27-4.1602 8.5352-0.58203 16.332 0.042969 21.52 1.2422 1.4883 0.34375 2.1289 0.71094 3.1055 1.0977-0.93359 0.51953-1.5352 0.96875-2.9844 1.5156-5.043 1.8945-12.73 3.5781-21.27 4.1602-8.5352 0.58203-16.332-0.042969-21.52-1.2422-1.5078-0.34766-2.125-0.70703-3.1055-1.0977z"/>
 <path d="m614.74 785.91c3.8086-0.82031 5.9727-3.8398 7.0859-6.4336 1.1133-2.5898 1.5977-5.3711 1.8789-8.5195 0.56641-6.293 0.078125-14.074-1.5547-22.398-1.6328-8.3281-4.1016-15.59-6.9922-21.137-1.4453-2.7734-2.9414-5.1289-4.9336-7.0469-2-1.918-5.1406-3.8828-8.9492-3.0625-3.8086 0.82422-5.8711 3.9102-6.9844 6.5-1.1133 2.5898-1.6836 5.3906-1.9648 8.5391-0.56641 6.293-0.011719 13.969 1.6211 22.297 1.6328 8.3281 4.0312 15.695 6.9258 21.242 1.4453 2.7734 3.0234 5.1133 5.0234 7.0312s5.0391 3.8164 8.8477 2.9922zm-2.9219-14.883c-0.20703-0.36719-0.30469-0.39063-0.51562-0.77734-2.1445-4.1172-4.4062-10.672-5.8594-18.082-1.4531-7.4102-1.832-14.285-1.4102-18.953 0.042969-0.46484 0.125-0.52734 0.17969-0.92969 0.20703 0.36719 0.30469 0.39062 0.51562 0.77734 2.1445 4.1172 4.3867 10.586 5.8438 17.996 1.4531 7.4102 1.8477 14.371 1.4258 19.039-0.042969 0.46484-0.125 0.52734-0.17969 0.92969z"/>
 <path d="m660.38 462.84c-3.5156-1.5039-7.0195-0.39453-9.5 1.0508-2.4805 1.4453-4.5703 3.4453-6.6641 5.8711-4.1875 4.8438-8.3125 11.582-11.75 19.434-3.4375 7.8477-5.5586 15.352-6.2656 21.688-0.35547 3.168-0.40234 6.043 0.22656 8.8203 0.62891 2.7773 2.2109 6.0664 5.7227 7.5703 3.5156 1.5039 7.0195 0.39453 9.5-1.0508 2.4805-1.4453 4.5703-3.4453 6.6641-5.8711 4.1914-4.8438 8.2773-11.504 11.715-19.352s5.5938-15.43 6.3008-21.766c0.35547-3.168 0.40234-6.043-0.22656-8.8203-0.62891-2.7773-2.2109-6.0664-5.7227-7.5703zm-5.8438 13.332c-0.019531 0.71094 0.12109 1.0078 0.023438 1.9062-0.52344 4.6484-2.3867 11.309-5.4297 18.25-3.043 6.9414-6.6797 12.844-9.7539 16.398-0.59375 0.6875-0.89844 0.79297-1.4219 1.2891 0.019531-0.71094-0.12109-1.0078-0.023437-1.9062 0.51953-4.6523 2.3867-11.309 5.4297-18.25 3.043-6.9414 6.6797-12.844 9.7539-16.398 0.59375-0.6875 0.89844-0.79297 1.4219-1.2891z"/>
</svg>
