<?xml version="1.0" encoding="UTF-8"?>
<svg width="1200pt" height="1200pt" version="1.1" viewBox="0 0 1200 1200" xmlns="http://www.w3.org/2000/svg">
 <g>
  <path d="m406.8 553.2c46.801 0 85.199-38.398 85.199-85.199s-38.398-85.199-85.199-85.199-85.199 37.199-85.199 84 38.398 86.398 85.199 86.398zm0-121.2c19.199 0 34.801 15.602 34.801 34.801s-15.602 34.801-34.801 34.801-34.801-15.602-34.801-34.801 15.602-34.801 34.801-34.801z"/>
  <path d="m793.2 646.8c-24 0-44.398 9.6016-60 25.199-15.602-15.602-37.199-25.199-60-25.199-46.801 0-85.199 38.398-85.199 85.199s38.398 85.199 85.199 85.199c24 0 44.398-9.6016 60-25.199 15.602 15.602 37.199 25.199 60 25.199 46.801 0 85.199-38.398 85.199-85.199s-38.398-85.199-85.199-85.199zm-120 121.2c-19.199 0-34.801-15.602-34.801-34.801s15.602-34.801 34.801-34.801 34.801 15.602 34.801 34.801-15.602 34.801-34.801 34.801zm120 0c-19.199 0-34.801-15.602-34.801-34.801s15.602-34.801 34.801-34.801 34.801 15.602 34.801 34.801-15.602 34.801-34.801 34.801z"/>
  <path d="m751.2 388.8c-9.6016-9.6016-25.199-9.6016-36 0l-386.4 386.4c-9.6016 9.6016-9.6016 25.199 0 36 4.8008 4.8008 12 7.1992 18 7.1992s13.199-2.3984 18-7.1992l386.4-386.4c9.6016-9.6016 9.6016-26.402 0-36z"/>
 </g>
</svg>
