<?xml version="1.0" encoding="UTF-8"?>
<svg width="1200pt" height="1200pt" version="1.1" viewBox="0 0 1200 1200" xmlns="http://www.w3.org/2000/svg">
 <path d="m1140 1002h-942v-942c0-9.9375-8.0625-18-18-18h-120c-9.9375 0-18 8.0625-18 18v1074.8c0 9.9375 8.0625 18 18 18h1080c9.9375 0 18-8.0625 18-18v-114.84c0-9.9375-8.0625-18-18-18zm-18 114.84h-1044v-1038.8h84v942c0 9.9375 8.0625 18 18 18h942z"/>
 <path d="m540 286.69c-76.453-64.312-99-142.22-102-153.94v-72.75c0-9.9375-8.0625-18-18-18s-18 8.0625-18 18v72.844c-3.1406 11.859-25.547 89.625-102 153.84-101.39 85.219-65.156 150.24-2.7656 232.78 18.375 24.375 14.531 46.453 9 76.922-10.078 56.391-22.547 126.47 95.859 236.39v67.219c0 9.9375 8.0625 18 18 18s18-8.0625 18-18v-67.219c118.45-109.92 105.94-180 95.859-236.39-5.5312-30.469-9.375-52.547 9-76.922 62.391-82.547 98.625-147.61-2.7656-232.78zm-25.922 211.08c-27.844 36.938-21.703 71.531-15.703 105 8.2969 45.938 17.391 97.312-60.375 179.53v-560.68c17.391 29.062 42.609 62.062 78.844 92.625 75.938 63.844 59.531 101.06-2.7656 183.61zm-188.16 0c-62.391-82.547-78.703-119.77-2.7656-183.61 36.375-30.609 61.453-63.469 78.844-92.531v560.63c-77.766-82.219-68.625-133.55-60.375-179.53 6-33.469 12.234-68.062-15.703-105z"/>
 <path d="m822.94 534.24c-49.688-37.312-65.531-81.844-68.391-90.844v-83.391c0-9.9375-8.0625-18-18-18s-18 8.0625-18 18v83.391c-2.8594 9.1406-18.703 53.625-68.297 90.844-44.766 33.609-36.609 69.469-28.781 104.16 5.625 24.938 12 53.297 5.2969 91.312-15.141 85.781 21.703 123.47 91.781 156v41.766c0 9.9375 8.0625 18 18 18s18-8.0625 18-18v-41.766c70.078-32.531 107.06-70.312 91.781-156-6.7031-38.062-0.375-66.375 5.2969-91.312 7.7812-34.688 15.938-70.547-28.781-104.16zm-166.31 96.234c-7.6875-33.844-10.781-47.859 15.234-67.453 19.781-14.859 35.062-30.703 46.688-45.703v328.31c-53.062-27.844-66-55.453-56.391-109.69 8.0625-45.141 0.46875-78.609-5.625-105.47zm98.062-113.16c11.625 15 26.859 30.844 46.688 45.703 26.062 19.547 22.922 33.609 15.234 67.453-6.1406 26.859-13.688 60.375-5.625 105.47 9.6094 54.141-3.375 81.844-56.391 109.69v-328.31z"/>
 <path d="m1031.9 210.37v-41.391c0-9.9375-8.0625-18-18-18s-18 8.0625-18 18v41.391c-41.859 19.547-159.84 88.312-117.14 226.31 37.219 120.47 92.391 172.45 117.14 190.69v63.469c0 9.9375 8.0625 18 18 18s18-8.0625 18-18v-63.469c23.766-17.391 79.688-69.141 117.14-190.78 42.609-138.14-75.375-206.76-117.14-226.31zm82.781 215.76c-25.547 83.062-59.156 129.37-82.781 153.71v-329.29c43.781 23.859 112.78 78.375 82.781 175.55zm-118.78-175.55v329.16c-23.859-24.609-57.234-70.922-82.781-153.61-30-97.078 39-151.69 82.781-175.55z"/>
</svg>
