<?xml version="1.0" encoding="UTF-8"?>
<svg width="1200pt" height="1200pt" version="1.1" viewBox="0 0 1200 1200" xmlns="http://www.w3.org/2000/svg">
 <defs>
  <clipPath id="b">
   <path d="m222.14 531h379.86v166h-379.86z"/>
  </clipPath>
  <clipPath id="a">
   <path d="m589 418h388.86v235h-388.86z"/>
  </clipPath>
 </defs>
 <path d="m595.56 617.59c-37.922 1.7578-90.027-1.5117-123.25 27.98-20.41 18.121-29.855 43.363-32.426 69.383-2.5664 26.02 1.6484 53.039 8.8047 75.922 3.8281 12.238 6.543 41.004 10.371 67.898 1.9141 13.449 4.1914 26.555 7.2344 37.48s6.3672 19.969 13.336 25.191c16.738 12.539 32.016 16.691 45.5 14.035 13.484-2.6602 24.312-11.723 33.559-22.836 18.492-22.227 32.133-54.129 46.895-71.824 8.1172-9.7305 20.078-17.262 32.512-25.191s25.434-16.316 34.777-28.766c27.781-36.996 28.629-75.004 12.203-105.38-16.426-30.375-49.223-53.238-87.688-63.715h0.003906c-0.59766-0.15625-1.2148-0.21484-1.832-0.17969zm-0.87109 11.855c35.656 9.8281 65.621 31.082 80.016 57.703 14.457 26.738 14.266 58.57-11.332 92.656-7.6836 10.234-19.289 18.012-31.641 25.887s-25.426 15.809-35.215 27.543c-16.797 20.137-30.219 51.863-46.895 71.91-8.3398 10.023-17.109 16.84-26.758 18.742-9.6484 1.9023-21.125-0.66797-36.172-11.941-2.4141-1.8086-6.2812-8.832-9.0664-18.828-2.7852-9.9961-5.0039-22.766-6.8867-36-3.7656-26.465-5.9961-54.348-10.809-69.73-6.7539-21.586-10.645-47.254-8.2812-71.211 2.3672-23.961 10.805-46 28.504-61.711 27.809-24.688 75.859-23.312 114.54-25.016z"/>
 <path d="m766.14 614.88c-0.91016 0-1.8047 0.21094-2.6172 0.61328-36.699 18.074-84.199 28.262-120.02 23.445-2.7617-0.43359-5.4492 1.1289-6.4414 3.7422-0.98828 2.6133-0.011719 5.5625 2.3438 7.0664 34.012 23.086 52.922 57.742 41.488 96.402h0.003907c-0.875 3.0508 0.81641 6.2461 3.832 7.2344 48.914 15.781 115.95 28.074 177.73 79.32 9.6172 7.9805 18.758 16.355 27.805 21.703 4.5234 2.6719 9.0977 4.6289 14.035 5.0547 4.9375 0.44531 10.227-1.1484 14.293-4.793 0.12109-0.085937 0.24219-0.17188 0.35547-0.26562 10.914-11.355 11.605-28.879 10.023-45.152-1.5781-16.273-5.9258-31.996-7.9336-40.008-18.504-73.93-79.312-132.65-153.23-154.11h0.003907c-0.53516-0.16797-1.0938-0.25781-1.6562-0.26953zm2.6133 11.156-2.6133 0.61328h-0.35547c0.91797-0.44531 2.0586-0.17969 2.9648-0.61328zm-3.75 0.69531c69.773 20.461 127.19 76.148 144.52 145.39 2.0859 8.3281 6.2188 23.344 7.6719 38.266 1.4375 14.812-0.3125 28.711-6.7109 35.562-1.7461 1.4844-3.0273 2.0117-5.1406 1.8281-2.2227-0.17969-5.3984-1.4062-9.0664-3.5742-7.3359-4.3359-16.477-12.402-26.324-20.57-62.969-52.227-130.68-65.422-178.16-80.363 8.2109-37.543-8.9023-70.949-38.352-94.836 35.945 2.1328 77.027-5.3789 111.57-21.703z"/>
 <g clip-path="url(#b)">
  <path d="m408.51 531.29c-59.93-0.58203-119.39 27.328-167.62 96.141-5.8125 8.2969-11.848 20.531-15.516 32.688-1.8359 6.0781-3.1133 12.105-3.2266 17.781-0.089844 5.6758 0.80859 11.27 4.4453 15.688 2.6562 3.2266 7.1641 3.7539 10.371 3.2266 3.207-0.52734 6.2773-1.75 9.7617-3.3125 6.9727-3.1289 15.562-7.7695 25.977-12.203 20.828-8.8633 48.461-16.844 81.758-9.4141 29.367 6.5508 62.707 17.152 96.316 21.879l0.003906 0.003906c2.8398 0.40625 5.5586-1.2852 6.4531-4.0078 4.6445-13.555 11.973-25.578 22.926-35.301 28.145-24.988 77.109-23.301 116.02-25.102l-0.003906-0.003906c2.4414-0.10938 4.5664-1.7109 5.3359-4.0312 0.77344-2.3203 0.039063-4.875-1.8516-6.4258-16.199-13.512-34.383-18.707-51.164-23.273s-32.082-8.5391-44.539-18.48c-10.055-8.0234-20.016-19.453-29.461-33.211l-0.003907 0.003906c-0.76172-1.0898-1.8633-1.8867-3.1367-2.2695-20.695-6.4414-41.789-10.168-62.844-10.371zm-0.089843 11.855c19.328 0.17969 38.824 3.6953 58.137 9.5898 9.4023 13.348 19.305 25.121 29.984 33.645 14.91 11.898 32.254 16.129 48.898 20.656 9.4531 2.5703 17.707 7.9141 26.496 11.855-34.23 0.98438-72.598 2.6719-99.629 26.672-11.164 9.9102-17.918 22.52-23.184 35.648-31.191-4.7578-63.062-14.348-92.133-20.832-36.426-8.1289-66.941 0.76172-88.906 10.109-10.984 4.6758-19.895 9.4844-26.148 12.289-2.9258 1.3125-5.1875 2.0078-6.4492 2.2656-0.82031-1.3828-1.5547-3.4414-1.4805-6.9727 0.089844-4.0703 0.99609-9.1836 2.6133-14.555 3.2461-10.742 9.0977-22.457 13.945-29.375 46.492-66.34 101.6-91.543 157.86-91z"/>
 </g>
 <g clip-path="url(#a)">
  <path d="m807.46 418.85c-0.6875 0.03125-1.3672 0.18359-2.0039 0.44531-60.777-0.03125-122.63 20.793-168.57 80.453-5.4023 7.0156-10.27 14.551-14.645 22.312l0.003906 0.003906c-0.33594 0.56641-0.57031 1.1836-0.69922 1.8281-4.6172 26.215-13.699 55.414-27.371 88.297h0.003906c-0.03125 0.089844-0.0625 0.17969-0.089844 0.26953-1.1484 3.1562-2.3242 6.0117-3.4844 8.2812-0.83594 1.5938-0.89844 3.4844-0.16797 5.1289 0.73047 1.6484 2.1719 2.8711 3.9141 3.3242 16.668 4.5391 32.047 11.605 45.238 20.57 0.75781 0.51172 1.6211 0.83984 2.5273 0.96094 55.633 7.4023 130.47-16.746 168.23-52.387 24.91-23.512 63.168-42.004 96.23-55.871 16.527-6.9336 31.75-12.754 43.496-17.695 5.8711-2.4688 10.828-4.6523 14.816-6.8008 3.9883-2.1484 7.0312-3.7656 9.3281-7.4102 4.1953-6.6562 4.6211-14.641 2.0938-21.965-2.5312-7.3242-7.6406-14.324-14.555-20.918-13.836-13.191-35.23-25.09-60.668-33.121-28.855-9.1133-60.09-14.832-91.609-15.34h-0.003906c-0.089844-0.03125-0.17969-0.0625-0.26953-0.089844-0.53516-0.16797-1.0938-0.25781-1.6562-0.26953h-0.089843zm0 11.766c30.762 0.26953 61.586 6.1523 90.129 15.168 24.012 7.582 43.98 19 55.957 30.422 5.9883 5.7109 9.9492 11.449 11.594 16.211 1.6406 4.7617 1.3789 8.2852-0.87109 11.855 0.3125-0.51953-1.6055 1.4141-4.9688 3.2266-3.3633 1.8086-8.1406 3.957-13.859 6.3633-11.438 4.8086-26.758 10.672-43.496 17.695-33.477 14.043-72.695 32.637-99.715 58.137-33.801 31.902-107.48 55.949-158.2 49.336-12.07-7.9336-25.957-13.871-40.531-18.48 0.5625-1.3828 1.2188-2.6523 1.7461-4.0977l-0.17969 0.26953c13.684-32.914 22.836-62.273 27.719-89.254 4.0781-7.1992 8.5-14.094 13.422-20.484 44.184-57.367 102.52-76.867 161.25-76.355z"/>
 </g>
 <path d="m401.54 265.18c-4.6211 0.83984-9.2539 3.1719-11.504 7.6719v-0.003907c-0.10938 0.25781-0.19922 0.51953-0.26953 0.78516-5.0938 14.801-4.8672 37.176-1.3086 64.328 3.5586 27.148 10.75 58.805 20.656 90.648 19.816 63.688 50.125 128 87.426 157.77 14.91 11.898 32.25 16.129 48.898 20.656 16.648 4.5273 32.621 9.2344 46.633 20.918l0.003906 0.007813c1.4297 1.207 3.3477 1.668 5.168 1.2383 1.8242-0.42969 3.332-1.6992 4.0703-3.418 31.34-72.547 42.168-129.15 32.078-177.38-10.09-48.23-41.148-87.125-91.086-124.12-21.141-15.664-54.719-33.98-84.723-46.195-15.004-6.1094-29.039-10.699-40.531-12.551-5.7461-0.92188-10.895-1.1875-15.516-0.35547zm2.1797 11.594c2.4805-0.44922 6.4609-0.35547 11.418 0.44531 9.9141 1.5977 23.492 5.8594 38.004 11.766 29.02 11.816 62.262 30.098 82.109 44.801 48.652 36.043 77.191 72.316 86.555 117.06 9.0859 43.43-0.80469 96.324-29.547 164.65-14.273-9.6289-29.406-15.969-43.758-19.875-16.785-4.5664-32.082-8.5391-44.539-18.48-33.113-26.422-64.141-89.5-83.59-152.01-9.7266-31.258-16.688-62.43-20.133-88.734-3.418-26.07-2.9648-47.406 0.69531-58.398 0.22266-0.35547 0.58984-0.82031 2.7891-1.2188z"/>
 <path d="m716.02 263.79c-5.4766-0.26953-10.27 2.1211-14.207 5.2305-3.9648 3.1289-7.2891 7.1445-10.461 11.242-6.3438 8.1992-12.336 17.199-15.863 20.133-21.098 17.559-57.551 45.934-76.094 92.742v0.003906c-0.28516 0.69141-0.4375 1.4297-0.44531 2.1758-0.019531 1.1758 0.31641 2.3281 0.95703 3.3125 23.176 35.434 30.523 74.746 21.617 125.34-0.53516 2.8555 1.0859 5.6719 3.8164 6.6484 2.7344 0.97656 5.7734-0.17578 7.168-2.7227 4.1484-7.375 8.6523-14.383 13.684-20.918 32.641-42.383 73.016-63.945 115.58-72.258v-0.003906c1.1211-0.22656 2.1484-0.77344 2.9648-1.5703l0.089844-0.089843c0.15625-0.14063 0.30469-0.28906 0.44531-0.44531 18.648-23.023 21.805-63.277 13.598-98.93-4.1016-17.828-11.262-34.52-21.617-47.328-10.355-12.809-24.266-21.73-41.055-22.574v-0.003906h-0.17578zm-0.44531 11.766h0.089844c12.992 0.67969 23.617 7.3203 32.426 18.219 8.8242 10.918 15.469 26.059 19.262 42.535 7.5195 32.668 3.0195 69.941-11.242 88.121-43.723 9.293-85.793 31.879-119.24 75.309-1.2617 1.6406-2.1953 3.5391-3.4023 5.2305 3.5312-41.098-2.668-77.305-22.051-108.69 17.41-42.32 50.555-69.258 71.648-86.816 6.6133-5.5039 11.805-14.469 17.605-21.965 2.9023-3.75 5.8008-7.0586 8.4531-9.1523 2.6562-2.0938 4.7773-2.875 6.4492-2.7891z"/>
 <path d="m540.3 566.16c-1.293-0.089844-2.5781 0.24609-3.6602 0.95703-2.6914 1.832-3.3945 5.5-1.5703 8.1953 13.957 20.91 39.914 39.484 57.18 52.82 2.5742 1.9961 6.2812 1.5312 8.2812-1.043 1.9961-2.5742 1.5273-6.2812-1.043-8.2812-17.531-13.539-42.754-32.207-54.652-50.031-1.0234-1.5312-2.6992-2.4961-4.5312-2.6172z"/>
 <path d="m663.38 607.21c-0.34766-0.003906-0.69922 0.027344-1.043 0.085937-23.938 5.1758-44.805 7.25-67.203 10.285-3.2227 0.44141-5.4805 3.4023-5.0547 6.625 0.4375 3.2227 3.3984 5.4844 6.625 5.0586 22.125-3 43.469-5.0312 68.164-10.371l-0.003906-0.003907c3.1758-0.72266 5.1641-3.8828 4.4453-7.0586-0.61328-2.7617-3.0977-4.6992-5.9258-4.6211z"/>
 <path d="m669.48 536.7c-1.7539 0.21484-3.3203 1.2031-4.2695 2.6992-25.895 40.52-43.184 57.691-72.781 79.32v-0.003906c-2.6055 1.9141-3.1875 5.5664-1.3086 8.1953 0.92187 1.2773 2.3125 2.1328 3.8672 2.3789 1.5547 0.24609 3.1445-0.14062 4.4141-1.0703 30.258-22.113 49.359-41.168 75.746-82.457 0.85938-1.3164 1.1602-2.9219 0.83203-4.4609-0.32812-1.5391-1.2539-2.8828-2.5781-3.7344-1.1641-0.73828-2.5547-1.0469-3.9219-0.87109z"/>
 <path d="m582.05 503.57c-3.2461 0.082031-5.8164 2.7695-5.7539 6.0156 1.043 49.43 5.2266 74.832 13.773 115.05h-0.003907c0.32813 1.543 1.2617 2.8906 2.5859 3.7383 1.3281 0.85156 2.9375 1.1406 4.4766 0.79688 3.168-0.6875 5.1914-3.8008 4.5312-6.9727-8.5-40.016-12.562-64.023-13.598-112.88-0.082031-3.2461-2.7695-5.8125-6.0117-5.7539z"/>
 <path d="m517.59 524.62c-2.9375 1.3828-4.8125 4.0664-5.7344 6.6445-0.92187 2.5781-1.125 5.2617-1.0078 8.082 0.23438 5.6367 1.9648 11.941 4.9883 18.363 3.0234 6.4219 6.7852 11.77 10.984 15.543 2.1016 1.8867 4.2656 3.3633 6.8438 4.2969 2.5742 0.93359 5.8438 1.2031 8.7812-0.17578 2.9375-1.3828 4.8125-4.0664 5.7344-6.6445s1.1641-5.1875 1.0469-8.0039c-0.20312-4.9297-2.0273-10.465-4.3828-16.047v-0.003906c-0.007813-0.09375-0.019532-0.1875-0.03125-0.27734-0.070313-0.71094-0.26562-1.4023-0.57812-2.043-0.29297-0.64844-0.70312-1.2422-1.207-1.7461-2.8359-5.4844-6.0469-10.445-9.7773-13.801-2.1016-1.8867-4.3047-3.4414-6.8789-4.375-2.5781-0.93359-5.8438-1.2031-8.7812 0.17578zm5.3125 11.277c0.61719 0.30469 1.3672 0.71094 2.418 1.6562 2.6016 2.3359 5.8125 6.6094 8.2656 11.816 2.4531 5.2031 3.6641 10.32 3.8086 13.812 0.058594 1.4062-0.10547 2.2422-0.26562 2.9141-0.61719-0.30469-1.3672-0.71094-2.418-1.6562-2.6016-2.3359-5.7734-6.5312-8.2266-11.734-2.4531-5.207-3.7031-10.398-3.8477-13.891-0.058593-1.4062 0.10547-2.2422 0.26563-2.9141z"/>
 <path d="m581.87 457.03c-3.2461 0.019531-6.0781 1.668-7.9961 3.6211-1.9219 1.9531-3.2383 4.3047-4.3203 6.9102-2.1602 5.2148-3.2422 11.664-3.1992 18.758 0.042969 7.0977 1.1992 13.531 3.4219 18.719 1.1133 2.5938 2.4531 4.8438 4.4023 6.7734 1.9453 1.9258 4.793 3.5469 8.0391 3.5273 3.2461-0.019532 6.0781-1.668 7.9961-3.6211 1.9219-1.9531 3.2383-4.2188 4.3203-6.8242 1.8906-4.5586 2.5625-10.348 2.7812-16.402v0.003907c0.03125-0.089844 0.0625-0.17969 0.089844-0.26953 0.23828-0.67188 0.35547-1.3828 0.34375-2.0938-0.007813-0.68359-0.12891-1.3633-0.36719-2.0039-0.26172-6.207-1.0742-12.086-3.0625-16.719-1.1133-2.5938-2.4531-4.9336-4.4023-6.8594-1.9453-1.9297-4.793-3.5469-8.0391-3.5273zm0.074218 12.551c0.44922 0.53906 0.94531 1.1406 1.4961 2.4336 1.375 3.2109 2.4922 8.4414 2.5273 14.191 0.035156 5.7539-1.0195 10.906-2.3555 14.137-0.54297 1.3008-1.043 1.9922-1.4648 2.5352-0.44922-0.53906-0.94141-1.2266-1.4961-2.5156-1.375-3.2109-2.4922-8.3555-2.5234-14.105-0.035156-5.7539 1.0195-10.996 2.3555-14.223 0.53516-1.293 1.043-1.9023 1.4688-2.4492z"/>
 <path d="m696.29 497.09c-2.8203-1.6133-6.0195-1.5664-8.6641-0.84375-2.6445 0.72266-5 1.9727-7.2422 3.6875-4.4922 3.4219-8.6719 8.4492-12.207 14.605s-5.8125 12.371-6.5039 17.973c-0.34766 2.7969-0.23828 5.4609 0.46875 8.1055 0.71094 2.6445 2.2852 5.4258 5.1016 7.043 2.8203 1.6133 6.0977 1.6094 8.7383 0.88672 2.6445-0.72266 4.9219-2.0195 7.168-3.7266 4.1367-3.1523 8.0078-7.9766 11.363-13.48 0.066407-0.10938 0.1875-0.14453 0.25-0.25781l0.003907-0.007812c0.26953-0.27344 0.50781-0.57031 0.71875-0.89453 0.25-0.46875 0.43359-0.97266 0.55078-1.4922 3.0352-5.6406 5.1992-11.316 5.832-16.449 0.34375-2.8008 0.3125-5.4219-0.39844-8.0625-0.71094-2.6406-2.3594-5.4727-5.1797-7.0859zm-6.25 10.883c0.11328 0.69531 0.23828 1.4922 0.070313 2.8516-0.42578 3.4688-2.0469 8.4688-4.9141 13.457-2.8672 4.9922-6.4141 8.9883-9.1953 11.105-1.0898 0.83203-1.8555 1.1172-2.5 1.3789-0.11328-0.69922-0.23438-1.5078-0.070313-2.8516 0.42578-3.4688 2.168-8.5 5.0352-13.488 2.8672-4.9922 6.293-8.957 9.0742-11.074 1.0781-0.82422 1.8555-1.1172 2.5-1.3789z"/>
 <path d="m705.16 602.07c-0.72266-2.8867-2.7344-5.0078-4.7891-6.2148-2.0586-1.2031-4.2305-1.8125-6.5547-2.1406-4.6523-0.66016-9.9609-0.16016-15.57 1.3242-5.6094 1.4844-10.496 3.6836-14.258 6.5742-1.8828 1.4453-3.582 3.0781-4.8203 5.1523-1.2344 2.0781-2 4.9336-1.2773 7.8203 0.72266 2.8867 2.7344 5.0078 4.7891 6.2148 2.0586 1.2031 4.3164 1.7891 6.6406 2.1211 4.2031 0.59375 9.0781 0.046875 14.094-1.1211 0.125-0.027343 0.23438 0.03125 0.35938-0.003906 0.38281 0 0.76172-0.039063 1.1367-0.11719 0.51172-0.15234 1-0.375 1.4531-0.66016 4.8984-1.4805 9.4023-3.4023 12.785-5.9961 1.8828-1.4453 3.5-3.0547 4.7344-5.1328 1.2344-2.0781 2-4.9336 1.2773-7.8203zm-12.977 3.4375c-0.078125 0.0625-0.066406 0.0625-0.14844 0.13281-2.0508 1.5781-5.6914 3.3984-10.004 4.543-4.3125 1.1406-8.4414 1.3711-10.977 1.0156-0.10156-0.015625-0.09375-0.023438-0.19141-0.042969 0.078125-0.0625 0.066407-0.0625 0.14844-0.13281 2.0508-1.5781 5.7773-3.4219 10.09-4.5625 4.3125-1.1406 8.3555-1.3477 10.895-0.99219 0.10156 0.015625 0.09375 0.023438 0.19141 0.042969z"/>
 <path d="m596 617.5c-2.2422-0.023438-4.3008 1.2266-5.3164 3.2266-27.984 53.742-53.926 91.277-62.844 189.93h-0.003906c-0.15234 1.5586 0.32422 3.1172 1.3203 4.3281 1 1.207 2.4375 1.9727 3.9961 2.1211 1.5781 0.15234 3.1445-0.33594 4.3594-1.3516 1.2109-1.0156 1.9648-2.4766 2.0938-4.0547 8.7617-96.91 33.211-131.08 61.539-185.48h-0.003906c0.74219-1.3945 0.89062-3.0312 0.41406-4.5352-0.47266-1.5078-1.5312-2.7617-2.9375-3.4805-0.80859-0.43359-1.7031-0.67188-2.6172-0.69922z"/>
 <path d="m466.04 596.05c-44.734-2.1484-86.359 1.0156-114.36 11.594-3.0547 1.1328-4.6172 4.5273-3.4844 7.582 1.1328 3.0586 4.5234 4.6172 7.582 3.4883 25.02-9.4492 65.859-13 109.65-10.895 43.793 2.1016 90.762 9.6797 128.74 21.27l-0.003906-0.003906c3.1055 0.92188 6.3711-0.82812 7.3242-3.9219 0.46875-1.5039 0.31641-3.1289-0.41797-4.5234-0.73828-1.3906-2-2.4297-3.5039-2.8867-39.203-11.965-86.797-19.555-131.53-21.703z"/>
 <path d="m476.67 375.01c-1.7578 0.082032-3.3867 0.94531-4.4453 2.3516-1.9961 2.5781-1.5273 6.2852 1.043 8.2812 38.332 29.172 58.441 82.715 73.219 132.49 7.3867 24.887 13.504 48.73 20.309 68.16 6.8086 19.43 13.895 34.816 26.062 42.188v0.003907c1.3398 0.80859 2.9492 1.0508 4.4688 0.67578s2.8281-1.3398 3.6367-2.6797c0.80859-1.3398 1.0547-2.9492 0.67969-4.4688-0.37891-1.5195-1.3398-2.8281-2.6836-3.6367-7.1289-4.3203-14.559-17.344-21.094-36-6.5352-18.652-12.582-42.484-20.047-67.641-14.934-50.309-35.18-106.38-77.402-138.5v0.003907c-1.0703-0.82422-2.3945-1.2539-3.7461-1.2188z"/>
 <path d="m703.21 335.18c-2.2383 0.09375-4.2266 1.4414-5.1445 3.4844-25.25 55.648-76.219 117.46-76.617 186.27-0.003907 1.5742 0.61719 3.0859 1.7305 4.1992 1.1133 1.1133 2.625 1.7344 4.1992 1.7266 1.5742 0.007812 3.0859-0.61328 4.1953-1.7266 1.1133-1.1133 1.7383-2.625 1.7305-4.1992 0.35547-62.887 49.184-123.42 75.484-181.39 0.66016-1.4219 0.72656-3.0469 0.1875-4.5195-0.53906-1.4727-1.6406-2.668-3.0625-3.3242-0.84766-0.38672-1.7734-0.56641-2.7031-0.52344z"/>
 <path d="m827.59 488.84c-0.38281 0.023438-0.76172 0.082031-1.1328 0.17969-43.215 9.6367-93.602 36.32-137.46 63.457-43.855 27.133-81.004 54.836-96.578 66.246v-0.003906c-2.6055 1.9141-3.1875 5.5664-1.3086 8.1953 0.92187 1.2773 2.3125 2.1328 3.8672 2.3789 1.5547 0.24219 3.1445-0.14062 4.4141-1.0742 15.672-11.48 52.535-38.816 95.879-65.633 43.344-26.82 93.246-53.02 133.8-62.059 3.1758-0.72656 5.1641-3.8867 4.4453-7.0625-0.61328-2.7617-3.1016-4.6992-5.9258-4.6211z"/>
 <path d="m642.28 639.03c-2.2422 0.26562-4.1367 1.7891-4.8789 3.9219-1.0586 3.082 0.58203 6.4375 3.6602 7.4961 67.254 23.156 146.12 45.461 195.25 100.15 1.0469 1.1758 2.5195 1.8828 4.0898 1.9648 1.5703 0.085938 3.1094-0.46094 4.2773-1.5195 1.1758-1.0469 1.8828-2.5195 1.9648-4.0898 0.085937-1.5703-0.46094-3.1094-1.5195-4.2773-52.219-58.137-133.49-80.398-200.21-103.38-0.83984-0.28516-1.7344-0.375-2.6133-0.26953z"/>
</svg>
