<?xml version="1.0" encoding="UTF-8"?>
<svg width="1200pt" height="1200pt" version="1.1" viewBox="0 0 1200 1200" xmlns="http://www.w3.org/2000/svg">
 <g>
  <path d="m751.3 1113h-302.59l55.973-172.25h190.64c18.652 57.422 37.309 114.84 55.973 172.25zm-225.34-142.96-36.938 113.69h221.96l-36.938-113.69h-148.09z"/>
  <path d="m1002.2 910.29 21.766 15.812-244.79 177.86-55.973-172.27 154.23-112.05c41.598 30.215 83.18 60.426 124.77 90.641zm-244.57 32.602 36.949 113.69 179.57-130.48-96.711-70.266c-39.934 29.016-79.867 58.039-119.81 87.055z"/>
  <path d="m1041.1 902.41-146.53-106.45 58.906-181.32h181.13c-31.164 95.93-62.34 191.86-93.504 287.77zm-66.344-258.49-45.766 140.84 96.711 70.266 68.602-211.11h-119.55z"/>
  <path d="m1134.7 585.36h-181.13l-58.906-181.32 146.53-106.45c31.164 95.918 62.34 191.84 93.504 287.77zm-205.62-170.12 45.766 140.84h119.55l-68.602-211.11c-32.234 23.418-64.469 46.836-96.711 70.266z"/>
  <path d="m1023.9 273.9-146.53 106.45-154.23-112.05 55.973-172.27c81.602 59.289 163.2 118.57 244.79 177.86zm-266.34-16.789 119.81 87.055 96.711-70.266-179.57-130.48c-12.32 37.902-24.629 75.801-36.949 113.69z"/>
  <path d="m695.32 259.25h-190.64l-55.973-172.25h302.59c-18.664 57.41-37.32 114.83-55.973 172.25zm-206.3-142.98 36.938 113.69h148.09l36.938-113.69h-221.96z"/>
  <path d="m476.83 268.3-154.23 112.05-35.465-25.758-111.07-80.695 244.79-177.86c18.652 57.422 37.32 114.84 55.973 172.27zm-250.94 5.5977 78.465 57.008 18.25 13.258 119.8-87.055-36.938-113.69c-59.859 43.496-119.71 86.98-179.57 130.48z"/>
  <path d="m269.93 378.29 35.453 25.758-58.906 181.32h-181.13l93.504-287.77c37.023 26.898 74.043 53.797 111.08 80.695zm-164.28 177.79h119.55l45.766-140.84-18.25-13.258-78.465-57.008c-22.871 70.359-45.73 140.73-68.602 211.11z"/>
  <path d="m305.38 795.96-35.453 25.758-111.08 80.695-93.504-287.77h181.13c19.641 60.441 39.266 120.88 58.906 181.32zm-199.73-152.03 68.602 211.11 78.465-57.008 18.25-13.258-45.766-140.84h-119.55z"/>
  <path d="m476.83 931.7-55.973 172.27-244.79-177.86 111.07-80.695 35.465-25.758c51.41 37.355 102.82 74.695 154.23 112.05zm-172.48-62.602-78.465 57.008 179.57 130.48 36.938-113.69-119.8-87.055c-6.082 4.418-12.168 8.8398-18.25 13.258z"/>
 </g>
</svg>
