<?xml version="1.0" encoding="UTF-8"?>
<svg width="1200pt" height="1200pt" version="1.1" viewBox="0 0 1200 1200" xmlns="http://www.w3.org/2000/svg">
 <path d="m597.41 928.28c-0.19922-0.53516-0.44922-42.984-0.55078-94.328l-0.17969-93.355-1.6602-0.23438c-1.3125-0.1875-1.6602 0.125-1.668 1.4766 0 0.94141-0.33203 8.8516-0.72656 17.578-0.39453 8.7266-1.2227 27.988-1.832 42.805-0.61328 14.816-1.4297 33.578-1.8164 41.695-0.38672 8.1172-1.0938 23.562-1.5742 34.316-0.69531 15.586-1.1016 19.82-2 20.848-1.3945 1.5938-2.6445 1.6406-3.8828 0.14844-0.93359-1.125-0.29297-20.859 2.2578-69.336 0.73047-13.895 2.6523-57.188 3.4414-77.566l0.46094-11.883-3.9102-0.51953c-2.1484-0.28516-4.1406-0.25-4.4258 0.074219-0.28516 0.32812-1.7461 8.8945-3.25 19.043-1.5039 10.148-4.5547 30.738-6.7773 45.758s-4.8789 33.449-5.8984 40.961c-2.125 15.637-2.5195 16.973-5 16.973-4.1211 0-4.4648 3.7148 6.1875-66.422 2.4336-16.031 5.3828-35.461 6.5469-43.172 1.9648-12.996 2.0039-16.707 0.16016-14.723-0.35938 0.38672-2.3398 8.3398-4.4062 17.676-5.5977 25.312-18.262 81.348-20.762 91.883-1.8047 7.6055-10.41 46.586-12.168 55.113-0.58984 2.8711-1.9727 4.1172-4.2227 3.7969-1.0859-0.15234-1.7852-0.82031-1.9297-1.8477-0.21484-1.5078 3.7344-20 11.395-53.375 1.8164-7.9141 6.2539-27.344 9.8594-43.172 3.6055-15.832 8.7422-38.379 11.414-50.109 2.6719-11.73 4.7695-21.383 4.6602-21.453-0.60938-0.39062-6.4414-1.8711-7.3711-1.8711-0.74609 0-2.1094 3-4.2695 9.4102-1.7422 5.1758-8.7969 25.352-15.676 44.832-6.8789 19.484-14.645 41.551-17.262 49.035-2.6172 7.4883-5.1328 14.062-5.5859 14.609-1.0742 1.293-3.5391 0.91016-4.5547-0.70703-0.95312-1.5195-0.82812-1.9102 13.535-41.906 13.965-38.898 27.488-77.59 27.195-77.82-0.12891-0.10156-1.2695-0.53516-2.5352-0.96094l-2.3008-0.77344-13.883 32.586c-7.6367 17.922-19.594 45.535-26.57 61.367-6.9766 15.832-14.32 32.602-16.32 37.27-3.418 7.9805-3.7617 8.4883-5.7344 8.4883-4.3555 0-4.1055-1.332 3.457-18.555 26.145-59.555 45.902-104.96 52.695-121.09 0.97656-2.3164 0.94141-2.4102-1.3008-3.5664-1.2656-0.65234-2.5547-0.91406-2.8633-0.57422-0.30859 0.33984-7.125 13.234-15.145 28.66-17.176 33.039-28.602 54.648-50.922 96.309-9.0234 16.844-17.273 32.348-18.332 34.445-1.0664 2.1172-2.6055 4.0352-3.4531 4.3047-1.8281 0.58203-3.668-0.76172-3.668-2.6758 0-0.76172 8.25-16.742 18.336-35.52 10.086-18.773 23.496-43.934 29.801-55.906 14.699-27.91 34.605-65.895 36.621-69.871l1.5625-3.082-7.1875-4.4219-22.879 34.074c-12.582 18.742-28.926 43.043-36.316 54-7.3906 10.961-15.48 22.992-17.977 26.742-4.543 6.8203-5.8867 8.0039-8.0977 7.1562-2.8828-1.1055-2.1562-3.1836 4.5742-13.059 3.6602-5.3711 16.223-23.973 27.914-41.332s26.07-38.617 31.957-47.242c16.309-23.891 15.949-23.273 14.484-24.734-0.86719-0.86719-1.5352-1.0156-2.2695-0.50391-0.92969 0.64844-91.66 113.9-98.898 123.44-2.2852 3.0156-3.3633 3.8516-4.9688 3.8516-2.4609 0-3.5508-2.7773-1.9609-4.9961 2.3398-3.2656 50.738-63.797 84.941-106.23 8.8281-10.953 16.051-20.285 16.051-20.742 0-0.45313-0.70312-1.2031-1.5625-1.6641-1.2109-0.64844-1.7695-0.60938-2.4805 0.16016-0.50391 0.54688-11.125 12.785-23.602 27.195-44.152 50.996-70.152 80.844-72.773 83.543-2.8867 2.9688-5.4062 3.1602-6.2578 0.47266-0.57422-1.8086 0.19922-2.9258 8.6406-12.492 9.4609-10.719 30.75-35.039 63.25-72.254 26.449-30.285 27.34-31.402 26.047-32.695-1.293-1.293-1.5508-1.1172-7.5547 5.1406-16.504 17.207-23.766 24.84-39.285 41.316-14.488 15.379-17.926 18.703-19.336 18.703-0.73047 0-2.5742-2.4688-2.5742-3.4453 0-0.62109 3.0703-4.332 6.8281-8.25 3.7539-3.918 13.797-14.43 22.316-23.359 24.109-25.266 33.172-34.641 33.762-34.918 0.30078-0.14062-0.32031-1.3906-1.3789-2.7812l-1.9258-2.5234-2.6797 2.3242c-3.9297 3.4062-65.555 59.992-103.04 94.621-22.328 20.625-32.977 29.992-34.098 29.992-2.1211 0-3.2578-2.0078-2.2734-4.0117 0.41406-0.83594 7.7656-7.9062 16.344-15.703 8.5781-7.8008 21.902-20.043 29.613-27.207 38.273-35.555 46.469-43.086 75.645-69.527 8.7266-7.9102 15.953-14.598 16.062-14.863 0.10547-0.26562-0.26953-1.1133-0.83203-1.8828-1.2578-1.7227 0.12109-2.7734-81.84 62.582-25.594 20.406-37.262 29.281-38.512 29.281-2.2031 0-3.1758-2.4375-1.7695-4.4219 1.1641-1.6406 57.957-47.012 91.723-73.273 13.008-10.117 24.121-18.844 24.695-19.391 0.82812-0.78906 0.85938-1.2148 0.14062-2.0781-0.76562-0.92188-4.7852 1.6133-26.504 16.695-32.52 22.582-73.68 51.379-89.57 62.664-6.7695 4.8047-12.984 8.7383-13.812 8.7383-1.6953 0-3.2383-2.2969-2.6211-3.9023 0.40625-1.0625 55.395-39.793 102.91-72.488 14.004-9.6367 25.578-17.621 25.719-17.746 0.42969-0.37891-2.3789-4.7539-3.0508-4.7539-0.95703 0-103.06 51.355-130.65 65.715-14.051 7.3125-24.863 12.508-25.754 12.375-0.84375-0.125-1.8984-0.80469-2.3398-1.5117-0.62891-1.0039-0.48828-1.5938 0.66406-2.7344 2.0234-2.0039 45.512-24.41 101.84-52.469 60.07-29.922 54.414-26.836 53.359-29.148-0.47266-1.0352-1.2109-1.7383-1.6484-1.5625-0.43359 0.17578-9.0703 3.5273-19.191 7.4453-10.121 3.918-35.164 13.805-55.656 21.965l-37.254 14.84-1.375-1.6992c-1.1758-1.4492-1.2344-1.9141-0.40625-3.1602 0.90625-1.3672 52.355-22.062 96.004-38.617 13.902-5.2734 17.02-6.8867 15.746-8.1602-0.52344-0.52344-51.598 15.48-125.48 39.328-18.203 5.875-33.98 10.578-35.055 10.453-1.5039-0.17578-2.0117-0.6875-2.1875-2.207-0.15234-1.3203 0.21484-2.2148 1.1055-2.6914 1.5977-0.85156 82.742-26.863 112.04-35.918 40.062-12.379 46.473-14.609 46.684-16.238 0.44531-3.4922-0.042969-3.4336-28.984 3.3711-43.926 10.328-98.52 23.465-105.42 25.363-5.5703 1.5312-6.4531 1.6055-7.8008 0.66016-0.83594-0.58594-1.5234-1.4805-1.5234-1.9922 0-2.4336 2.3203-3.4375 14.762-6.4062 7.1016-1.6953 16.07-3.832 19.926-4.7539 22.672-5.418 57.918-13.715 77.121-18.152 12.176-2.8125 23.887-5.6211 26.023-6.2383 3.6758-1.0625 3.8594-1.2305 3.4102-3.1289-0.25781-1.1055-0.67969-2.2344-0.92969-2.5117s-15.238 1.7734-33.301 4.5586c-29.855 4.6055-51.445 7.8633-114.76 17.316-30.734 4.5898-28.742 4.3906-30.152 2.9844-0.66797-0.66797-1.2148-1.5-1.2148-1.8477 0-0.91797 2.1758-2.9531 3.1602-2.9531 0.94141 0 28.809-4.0586 50.715-7.3867 7.9141-1.2031 27.676-4.1719 43.91-6.5938 81.168-12.125 80.383-11.992 80.617-13.324 0.58984-3.3672 0.67969-3.3672-33.879-0.51562-17.992 1.4844-43.777 3.6055-57.293 4.7148-17.828 1.4648-24.922 1.8008-25.828 1.2305-1.5195-0.95703-2.0352-3.0938-1-4.1289 0.41797-0.41797 10.824-1.5391 23.133-2.4922 46.703-3.6211 87.434-6.9258 90.457-7.332l3.1367-0.42188v-9.5l-96.043-0.1875c-90.551-0.17578-96.09-0.26172-96.859-1.4805-0.59375-0.94141-0.59375-1.6406 0-2.582 0.76562-1.2148 6.4141-1.3125 96.676-1.6602l95.859-0.36719 0.42969-11.289-8.332-0.46484c-14.445-0.80859-60.711-3.3398-102.43-5.6094-35.367-1.9219-40.332-2.3359-41.145-3.4375-1.2109-1.6445-1.1719-1.9922 0.39844-3.4141 1.168-1.0586 2.5547-1.1172 11.992-0.49609 5.8672 0.38281 23.125 1.375 38.344 2.2031 31.805 1.7266 60.852 3.3789 77.859 4.4297 18.336 1.1328 23.812 1.0078 24.238-0.55469 1.1992-4.3672 1.2578-6.8281 0.16406-6.8281-1.8242 0-61.648-6.7773-117.02-13.254-9.9453-1.1641-27.047-3.1602-38.008-4.4414-10.961-1.2773-20.672-2.6289-21.586-3-1.9727-0.80078-2.3047-4.1953-0.47656-4.8945 1.3711-0.52734 12.836 0.60547 31.66 3.125 13.137 1.7578 33.969 4.2109 71.957 8.4688 10.758 1.207 27.859 3.1797 38.008 4.3867 22.883 2.7227 37.598 4.3555 37.766 4.1875 0.070313-0.070313 0.23828-1.0977 0.36719-2.2812l0.23828-2.1562-22.141-5.3789c-12.176-2.9609-28.449-6.8828-36.164-8.7227-25.816-6.1523-90.027-21.777-90.957-22.137-1.293-0.49609-1.1523-3.7188 0.21094-4.8516 1.1875-0.98438 2.6641-0.64062 112.44 26.316 20.457 5.0234 37.672 9.1328 38.254 9.1328 0.58203 0 0.92578-0.39453 0.76563-0.875-0.33594-1.0039-0.45313-1.043-40.422-13.535-35.707-11.16-54-16.953-87.484-27.703-13.816-4.4375-25.5-8.0664-25.961-8.0664-1.3125 0-3.1602-2.1719-3.1602-3.7148 0-3.7891 1.4844-3.4727 35.988 7.6992 18.156 5.8789 45.301 14.562 60.32 19.293 15.02 4.7305 35.098 11.062 44.621 14.066 9.5234 3.0039 17.574 5.4609 17.887 5.4609 0.91797 0 2.8984-5.3672 2.2305-6.0352-0.33594-0.33594-16.863-8.5352-36.734-18.219-19.867-9.6875-50.57-24.676-68.227-33.309-17.656-8.6328-37.25-18.188-43.543-21.23-6.293-3.043-11.684-5.9023-11.98-6.3555-1.0391-1.582-0.55469-3.4453 1.0977-4.1953 1.6641-0.75781 12.926 4.6406 143.99 68.992 15.988 7.8516 20.316 9.3945 19.508 6.9688-0.15234-0.46094-4.9141-3.3867-10.578-6.5039-5.6641-3.1172-23.75-13.078-40.188-22.137-16.438-9.0586-35.203-19.391-41.695-22.953-31.383-17.23-42-23.316-42.734-24.5-0.9375-1.5156 0.13672-3.7383 1.9844-4.1016 0.63672-0.125 18.367 9.3008 39.402 20.945 21.035 11.645 46.051 25.492 55.59 30.766 9.5391 5.2773 22.645 12.57 29.125 16.215l11.781 6.6211 1.6836-2.1055c0.92578-1.1562 1.6758-2.2695 1.6641-2.4727 0-0.20312-3.3164-2.4844-7.3438-5.0703-4.0273-2.5859-26.352-17.387-49.605-32.895-32.43-21.625-42.34-28.578-42.523-29.844-0.26953-1.8398 1.0156-3.7812 2.5078-3.7812 0.53906 0 6.3906 3.6953 13.008 8.2109 32.16 21.941 85.277 57.043 86.754 57.328 1.0781 0.20703 1.6484-0.035156 1.625-0.69141-0.027344-0.55469-12.332-10.141-27.363-21.305-30.328-22.523-42.043-31.34-72.512-54.559-11.414-8.6992-22.484-17.125-24.605-18.727-2.1211-1.6016-4.0547-3.5508-4.3047-4.332-0.54688-1.7266 0.83594-3.5625 2.6836-3.5625 0.74609 0 8.0938 5.2148 16.332 11.594 8.2344 6.375 36.395 27.668 62.574 47.32 26.18 19.652 48.285 36.352 49.125 37.117 1.5 1.3672 1.5547 1.3555 3.5508-0.72656l2.0273-2.1133-13.883-12.059c-48.484-42.121-72.176-62.895-100.9-88.48-12.547-11.176-23.922-21.258-25.277-22.402-2.5469-2.1523-3.1797-4.6562-1.5781-6.2578 0.48828-0.48828 1.2969-0.88672 1.8008-0.88672s9.2305 7.4609 19.398 16.582c14.531 13.039 72.336 63.836 118.75 104.36l5.4102 4.7227 3.1094-3.1094-27.262-26.805c-14.992-14.742-36.309-35.578-47.371-46.305-14.617-14.172-20.109-19.957-20.109-21.164 0-1.9023 2.4609-3.543 4.0078-2.6719 1.4453 0.81641 78.773 76.465 87.164 85.27 3.7695 3.957 7.1758 7.1953 7.5664 7.1953 0.39063 0 1.0859-0.44922 1.5391-1 0.64844-0.78125-0.10156-2.0234-3.4648-5.7188-2.3633-2.5977-17.875-19.996-34.473-38.668s-38.172-42.914-47.945-53.875c-27.656-31.016-39.488-44.566-39.488-45.23 0-1.5 2.0469-3.2266 3.543-2.9922 1.0078 0.16016 6.2656 5.5547 13.98 14.359 6.8008 7.7578 26.977 30.523 44.836 50.594 30.824 34.637 63.547 71.543 67.07 75.641 1.4102 1.6406 1.7422 1.7422 2.543 0.77734 0.77344-0.93359-3.4805-6.3906-26.938-34.578-42.594-51.176-72.008-87.152-72.359-88.496-0.34766-1.332 1.5781-3.6484 3.0312-3.6484 1.3008 0 2.9375 1.8672 19.406 22.141 15.402 18.957 29.77 36.449 49.711 60.516 6.5586 7.9141 16.266 19.703 21.57 26.199 12.684 15.523 11.367 14.215 12.82 12.762 1.3594-1.3594 2.5898 0.47656-20.676-30.844-13.34-17.957-34.594-47.191-46.684-64.207-20.82-29.305-22.5-31.82-22.273-33.352 0.27734-1.8516 2.1875-3.2109 3.6953-2.6289 0.59766 0.23047 5.1211 6.2422 10.051 13.367 12.734 18.387 24.555 34.863 49.84 69.477 12.156 16.641 24.297 33.312 26.977 37.047 2.6797 3.7344 5.2969 6.8047 5.8164 6.8281 2.8711 0.11328 0.92578-3.5234-13.688-25.617-31.133-47.074-48.297-74.406-47.996-76.426 0.27734-1.8281 2.2188-3.0938 3.8125-2.4844 0.66797 0.25781 2.125 1.9961 3.2383 3.8633 3.8086 6.3945 25.734 41.281 31.375 49.914 7.6719 11.746 30.191 45.934 30.449 46.23 0.11328 0.13281 1.1875-0.26563 2.3828-0.88281l2.1719-1.125-24.066-48.191c-31.805-63.695-54.883-111.55-54.566-113.16 0.37109-1.8828 2.5742-3.0938 3.9883-2.1914 0.63281 0.40234 7.4648 13.852 15.176 29.887 18.289 38.016 64.621 131.36 65.199 131.36 1.1094 0 6.293-3.0586 6.293-3.7109 0-0.40234-1.5273-4.2969-3.3984-8.6562-1.8672-4.3594-7.043-16.895-11.492-27.852-7.5508-18.586-10.211-25.246-21.941-54.902-2.4727-6.25-4.4922-12.133-4.4922-13.074 0-0.98047 0.65625-2.0625 1.5391-2.5352 2.3203-1.2422 3.8281 0.58984 6.5977 8.0039 7.8945 21.145 37.961 95.777 39.105 97.059 0.80859 0.91016 5.8984-0.25781 5.8984-1.3516 0-0.52344-3.1094-11.363-6.9102-24.086-25.762-86.27-33.191-112.24-32.449-113.43 0.99609-1.5898 3.4648-1.9375 4.543-0.64062 0.74219 0.89844 8.7773 27.875 30.367 102 3.3086 11.367 7.0508 23.938 8.3086 27.938l2.2891 7.2734 2.5508-0.41406c1.4023-0.22656 2.7109-0.57031 2.9023-0.76562 0.35547-0.35547-14.395-61.344-33.105-136.88-9.7852-39.496-10.242-41.668-9.0469-42.988 2.8906-3.1953 4.2422-1.5078 6.6562 8.3125 1.0312 4.2031 5.9688 24.242 10.969 44.539s10.66 43.375 12.574 51.293c11.348 46.902 18.164 74.188 18.633 74.586 0.29297 0.25 2.5273 0.25781 4.9648 0.019532l4.4297-0.43359-0.19531-7.75c-0.10938-4.2617-0.52734-22.195-0.92578-39.852-0.40234-17.656-1.082-44.875-1.5156-60.488-0.73828-26.762-0.71094-28.441 0.51562-29.336 1.6562-1.2109 2.1445-1.1953 3.4648 0.12891 1.2148 1.2148 1.4883 7.5039 2.7031 61.652 1.8516 82.609 1.5508 75.277 3.0703 75.277 0.75391 0 1.4531-0.082031 1.5469-0.18359 0.09375-0.10156 0.34375-44.355 0.55469-98.34l0.37891-98.152 1.7461-0.24609c0.96094-0.13672 2.0703 0.078124 2.4648 0.47266 0.46094 0.46094 0.68359 35.855 0.62109 98.586l-0.097656 97.867h1.875c1.8594 0 1.875-0.058594 1.8789-6.0898 0-3.3477 0.48828-16.715 1.0859-29.703 0.59766-12.988 1.4453-35.406 1.8828-49.816 1.7578-57.961 2.7773-80.469 3.6914-81.574 0.49609-0.59766 1.4805-1.082 2.1953-1.082 2.7891 0 2.957 1.3359 2.2109 17.773-0.39453 8.6953-1.3945 34.57-2.2227 57.504-0.82812 22.934-1.9727 53.316-2.543 67.516-0.57031 14.199-0.89844 25.953-0.73047 26.121 0.16797 0.16797 1.9336 0.46094 3.9297 0.65234l3.625 0.34766 0.45312-3.5898c0.25-1.9766 1.9492-15.879 3.7734-30.898 1.8242-15.02 4.3047-35.109 5.5117-44.648 5.2227-41.285 7.418-58.93 9.2266-74.168 2.4961-21.02 2.4453-20.73 3.7422-21.805 0.84375-0.69922 1.543-0.72266 2.9336-0.089843 1.0039 0.45703 1.8242 1.1758 1.8242 1.5977s-2.1719 17.945-4.8281 38.945c-10.645 84.152-16.566 132.01-16.57 133.93-0.003906 1.1289 0.40625 2.0352 0.91797 2.0391 0.50781 0.003907 1.6289 0.19922 2.4883 0.42969 1.2031 0.32422 1.6641 0.023438 1.9961-1.3008 1.1094-4.4453 20.051-104.6 23.355-123.49 5.6211-32.141 5.4219-31.363 8.1406-31.363 0.71094 0 1.7266 0.51953 2.2539 1.1562 0.79688 0.96094 0.56641 3.3125-1.3477 13.836-5.1719 28.406-12.988 70.098-19.668 104.92-3.8945 20.289-6.9766 37.191-6.8516 37.566 0.19922 0.59766 6.5039 2.8477 6.8789 2.4492 0.078125-0.082031 4.1133-12.441 8.9648-27.457 4.8516-15.02 14.82-45.57 22.152-67.895 7.3281-22.324 15.68-47.941 18.555-56.922 2.875-8.9844 5.7109-16.73 6.2969-17.219 1.332-1.1055 3.3359-0.75781 4.2773 0.73828 0.80078 1.2695-2.0039 10.121-34.23 108.04-10.945 33.258-19.801 61.152-19.684 61.992 0.125 0.875 0.84766 1.6055 1.6953 1.7148 1.5664 0.20312 1.2617 0.88281 38.859-86.535 6.8086-15.832 12.738-29.383 13.18-30.121 0.52734-0.88281 1.4766-1.2578 2.793-1.1055 4.3281 0.5 4.8242-0.80078-30.086 78.828-7.3828 16.844-14.551 33.203-15.926 36.355l-2.4961 5.7266 2.375 0.99609c1.3047 0.54688 2.6094 0.86719 2.8945 0.70703 0.28516-0.16016 2.918-4.6797 5.8477-10.043 6.168-11.289 42.996-77.598 51.531-92.781 1.9414-3.4492 6.9102-12.473 11.047-20.047 4.1367-7.5781 7.9141-13.926 8.3984-14.109 1.625-0.61719 4.1992 0.85547 4.1992 2.4023 0 1.6758-7.4062 15.172-59.93 109.18-8.4844 15.188-15.492 27.855-15.57 28.156-0.15234 0.57031 5.0703 4.3867 5.9766 4.3711 0.63281-0.011719 44.207-68.098 86.301-134.84 10.488-16.629 17.891-27.645 18.758-27.922 1.6953-0.53906 3.5781 0.80859 3.5781 2.5586 0 0.67969-3.8672 7.3633-8.5938 14.855-36.484 57.812-64.754 102.16-85.016 133.37-5.3398 8.2266-9.7109 15.246-9.7109 15.605 0 0.60938 2.2539 1.8164 2.5703 1.3789 0.082032-0.10938 3.7969-5.1836 8.2578-11.273 4.4609-6.0898 13.535-18.543 20.164-27.676 6.6289-9.1328 17.871-24.574 24.984-34.316 30.117-41.246 27.246-37.66 29.562-36.922 2.3672 0.75 2.6719 3.1992 0.72656 5.8281-3.0273 4.0898-17.398 23.773-36.707 50.285-10.348 14.207-24.246 33.117-30.883 42.023-9.5039 12.75-11.84 16.324-10.98 16.805 0.60156 0.33594 1.6328 1.1523 2.293 1.8125 1.4922 1.4922-1.3398 4.4453 28.43-29.648 20.887-23.918 29.777-33.988 39.586-44.832 1.375-1.5234 2.9648-2.7656 3.5273-2.7656 1.3047 0 3.3438 2.0156 3.3438 3.3086 0 0.54297-5.5625 7.2578-12.363 14.918-43.051 48.504-55.93 63.188-56.117 63.988-0.11719 0.49609 0.45312 1.5039 1.2656 2.2383 1.4531 1.3125 1.9883 0.83594 30.84-27.352 16.148-15.777 39.324-38.512 51.5-50.516 27.012-26.633 38.648-37.867 39.57-38.203 1.1758-0.42969 2.8633 1.4492 2.8633 3.1836 0 1.8125-20.48 22.324-82.848 82.977-19.785 19.242-35.973 35.379-35.973 35.863s0.63672 1.457 1.4141 2.1602c1.3633 1.2344 2.2812 0.57031 26.016-18.848 26.336-21.543 68.926-57.086 93.605-78.117 24.586-20.949 23.59-20.199 25.527-19.316 2.4922 1.1328 2.2422 3.5195-0.62109 5.9883-11.195 9.6445-27.301 23.266-72.508 61.309-15.043 12.66-41.883 34.594-55.5 45.355-6.1641 4.8711-11.215 9.1875-11.223 9.5938 0 0.40625 0.4375 1.3359 0.99219 2.0664 0.93359 1.2305 2.6797 0.19531 23.777-14.145 27.488-18.68 44.297-30.188 51.414-35.199 19.223-13.531 29.414-20.254 30.703-20.254 1.7734 0 3.3242 2.5312 2.4766 4.043-0.32812 0.58984-2.918 2.6758-5.75 4.6328-30.625 21.184-56.312 38.77-75.371 51.598l-22.984 15.473 1.1992 1.9805c0.66016 1.0898 1.4336 1.9805 1.7188 1.9805s6.1016-3.0938 12.93-6.8789c6.8281-3.7812 16.895-9.3242 22.375-12.312 32.508-17.738 77.133-42.891 106.04-59.762 5.3945-3.1484 7.7344-3.4297 8.6523-1.0352 0.78516 2.043-0.80469 3.5508-8.1641 7.7734-3.9922 2.2891-12.41 7.1289-18.699 10.758-27.688 15.961-58.992 33.395-98.867 55.059-11.555 6.2773-21.098 11.699-21.207 12.043-1.2422 3.9492 3.2656 1.875 87.969-40.469 42.051-21.023 77.082-39 79.105-40.602 1.3164-1.0391 4.7656-0.39453 5.6797 1.0625 0.62891 1.0039 0.48437 1.5977-0.66406 2.7422-2.7891 2.7812-66.398 35.188-132.41 67.457-19.66 9.6094-35.852 17.582-35.988 17.715-0.13281 0.13281 0.25781 1.4531 0.87891 2.9258l1.1211 2.6836 3.8711-1.5469c2.1289-0.85156 5.5312-2.1328 7.5586-2.8516 3.8945-1.375 116.09-43.445 129.78-48.664 4.4805-1.707 8.6094-2.8633 9.3711-2.6211 1.8164 0.57813 2.5977 3.2031 1.3281 4.4688-0.98047 0.98047-95.812 36.656-143.34 53.926-5.168 1.8789-7.2383 3.332-6.2109 4.3594 0.30469 0.30469 26.25-7.25 56.301-16.398 6.0898-1.8516 14.891-4.4609 19.559-5.793 4.668-1.3359 15.922-4.6328 25.008-7.332s17.188-4.8047 18.004-4.6836c0.81641 0.12109 1.8516 0.80469 2.2969 1.5156 1.6445 2.6211-0.35547 3.6992-14.375 7.75-16.859 4.8711-67.344 19.637-85.176 24.914-7.3047 2.1641-14.699 4.3047-16.426 4.7578-2.9141 0.76562-3.1094 0.97266-2.6758 2.8281 0.25781 1.1016 0.83984 2.3594 1.2969 2.8008 0.59766 0.57812 6.293 0.125 20.387-1.6172 10.758-1.3281 26.863-3.2812 35.793-4.3398 24.191-2.8672 73.246-8.8164 103.29-12.531 28.258-3.4922 28.742-3.4883 28.301 0.25391-0.26953 2.3047-1.1328 2.543-14.613 4.0977-9.6211 1.1094-50.152 5.918-93.727 11.125-11.566 1.3828-32.492 3.8516-46.496 5.4883-14.004 1.6367-26.883 3.168-28.621 3.4023l-3.1602 0.42578 0.4375 2.7188c1.0625 6.6289 0.57422 6.1719 6.0938 5.6914 2.7266-0.23828 16.414-1.0977 30.418-1.9102 43.93-2.5469 84.602-5.0625 102.03-6.3086 17.758-1.2734 19-1.1406 19 1.9922 0 2.8008 2.9531 2.5234-82.289 7.6914-25.48 1.543-69.758 4.043-71.77 4.0469-1.5312 0.003906-1.6602 0.33594-1.6523 4.2461 0 2.332 0.21094 4.9883 0.45312 5.9023l0.44531 1.6562 99.648 0.1875c93.984 0.17578 99.695 0.26172 100.46 1.4805 0.59375 0.94141 0.59375 1.6406 0 2.582-0.76953 1.2188-6.4805 1.3008-100.46 1.4805l-99.648 0.1875-0.44531 1.6562c-0.24609 0.91016-0.44922 3.1914-0.45312 5.0625v3.4062l7.9336 0.49609c7.5664 0.47266 52.648 3.5859 86.531 5.9766 16.508 1.1641 55.012 3.3242 59.266 3.3242 3.5039 0 5.2773 1.5 4.6641 3.9453-0.45312 1.8086-0.78906 1.9609-4.3516 1.9609-8.5586 0.003906-122.02-7.6367-149.35-10.055l-5.2695-0.46484-0.51953 2.3633c-0.28516 1.2969-0.39844 2.4805-0.25391 2.625 0.30078 0.30078 49.84 7.4414 86.961 12.535 13.598 1.8672 34.023 4.6875 45.387 6.2656 11.367 1.582 26.145 3.5781 32.84 4.4375 15.305 1.9609 15.809 2.1055 16.094 4.582 0.35547 3.0664-1.4219 3.5156-9.4531 2.375-6.7109-0.95312-43.652-6.0898-84.5-11.746-29.41-4.0742-79.965-11.367-84.441-12.184-2.1992-0.40234-4.0703-0.64844-4.1562-0.54687-0.085938 0.10156-0.37891 1.2188-0.65234 2.4883-0.42578 1.9961-0.26562 2.3555 1.207 2.6914 0.93359 0.21484 11.496 2.7227 23.469 5.5742 11.973 2.8516 31.234 7.3945 42.805 10.098 42.551 9.9414 57.875 13.723 58.852 14.535 1.2539 1.0391 0.92578 3.5273-0.58594 4.4766-0.81641 0.51172-8.3945-1.0273-26.199-5.3086-13.777-3.3125-33.688-8.0391-44.242-10.5-10.555-2.4609-27.656-6.5742-38.008-9.1445-10.352-2.5703-19.043-4.4453-19.32-4.1641-0.27734 0.27734-0.69922 1.3359-0.94141 2.3516-0.48828 2.0391-5.2109 0.38281 53.844 18.883 8.5234 2.6719 29.613 9.3555 46.863 14.859 17.25 5.5 36.68 11.629 43.172 13.617 13.461 4.1211 15.387 4.9492 15.738 6.7617 0.31641 1.6484-1.1406 3.4453-2.7969 3.4453-0.69922 0-9.543-2.6758-19.652-5.9453-24.918-8.0586-62.512-20.059-98.086-31.305-16.234-5.1328-32.012-10.145-35.059-11.133-6.4102-2.082-6.6406-2.1133-6.6406-0.85938 0 0.51563 2.5742 1.8867 5.7188 3.0469 6 2.2109 23.301 8.6172 56.641 20.984 10.961 4.0625 31.883 11.922 46.492 17.461 14.613 5.5391 29.391 11.137 32.84 12.438 5.8594 2.2148 6.2734 2.5078 6.2734 4.4805 0 4.3711-0.75391 4.1992-28.848-6.5664-30.641-11.738-103.53-39.168-114.23-42.984-5.9297-2.1172-7.4023-2.4102-7.9219-1.5859-1.2344 1.9492-0.60938 2.5273 5.7969 5.3672 19.277 8.5508 75.203 34.383 102.03 47.133 45.918 21.82 52.348 25.051 52.812 26.512 0.53906 1.6992-0.84375 3.5469-2.6562 3.5469-0.72656 0-12.227-5.2656-25.555-11.699-30.168-14.562-55.68-26.531-100.62-47.203l-35.055-16.125-1.3828 2.1211c-0.76172 1.168-1.2578 2.2383-1.1055 2.3867 0.15234 0.14453 11.566 7.2188 25.367 15.719s31.25 19.281 38.773 23.957c7.5234 4.6797 14.738 9.0508 16.031 9.7188 3.0312 1.5664 4.1875 3.6484 3.1289 5.6289-0.43359 0.8125-1.4531 1.4766-2.2617 1.4766-1.1523 0-61.109-36.746-80.199-49.148-4.4453-2.8906-4.332-2.8555-4.8828-1.4258-0.47656 1.2383 3.5781 4.2227 42.695 31.395 21.367 14.844 54.863 38.453 76.016 53.574 2.4336 1.7422 5.1758 3.6953 6.0898 4.3438 2.0859 1.4805 2.1758 4.4727 0.17188 5.5469-0.82031 0.4375-1.8984 0.55859-2.3984 0.26172-0.5-0.29297-10.539-7.3945-22.309-15.781-11.77-8.3867-36.512-25.879-54.98-38.871-18.469-12.992-36.988-26.035-41.152-28.984-6.2734-4.4375-7.7617-5.2031-8.6719-4.4492-0.60156 0.5-1.0977 1.1406-1.0977 1.4258 0 0.28516 2.2422 2.2969 4.9805 4.4766 15.152 12.055 71.586 59.211 108.67 90.812 6.293 5.3594 15.984 13.559 21.539 18.215s10.285 8.9531 10.516 9.5469c0.60547 1.582-0.88672 3.9258-2.5039 3.9258-0.76953 0-9.9727-7.2617-20.453-16.141-10.48-8.875-24.039-20.355-30.125-25.508-6.0898-5.1523-14.891-12.617-19.559-16.582-4.668-3.9688-23.891-20.059-42.715-35.758-31.184-26.004-34.316-28.426-35.215-27.238-0.54297 0.71484-1 1.5195-1.0117 1.7852 0 0.26562 7.3672 7.2344 16.398 15.488 33.145 30.289 80.801 75.617 81.363 77.387 0.72656 2.2852-0.38672 3.7891-2.625 3.5469-1.5664-0.16797-7.6758-5.6016-25.184-22.387-29.812-28.586-34.266-32.789-56.145-52.965l-18.246-16.828-3.2812 3.0625 10.324 10.5c51.926 52.816 74.125 76.387 74.125 78.711 0 1.707-2.3203 3.2031-3.9805 2.5664-0.625-0.23828-7.5391-7.2969-15.363-15.68-16.047-17.191-28.844-30.5-52.867-54.973-13.68-13.938-16.707-16.684-17.496-15.867-0.78906 0.8125 3.0859 5.6094 22.266 27.555 29.145 33.344 57.258 66.875 58.203 69.418 0.58984 1.5859 0.46094 2.1328-0.69531 2.9766-0.77734 0.57031-1.8242 1.0352-2.3242 1.0352s-8.9805-9.7148-18.852-21.586c-15.152-18.227-49.812-58.621-60.801-70.848-3.1641-3.5234-4.293-4.1328-5.1367-2.7695-0.25 0.40625 9.7891 13.605 22.305 29.336 30.637 38.5 42.375 53.598 74.188 95.445 2.332 3.0703 4.2422 6.1016 4.2422 6.7305 0 1.7461-1.9844 3.0312-3.8633 2.5039-1.0703-0.30078-8.0195-8.8555-19.383-23.859-25.637-33.859-77.047-99.648-82.016-104.96-0.88672-0.94922-1.1406-0.94922-2.0625 0-0.91406 0.94141 1 3.9492 14.793 23.223 18.832 26.316 27.25 38.344 45.457 64.945 7.5 10.961 21.34 31.051 30.754 44.648 18.027 26.039 19.105 28.133 14.73 28.641-2.3281 0.26953-1.7344 1.0039-16.25-20.152-63.832-93.031-94.664-136.9-96.207-136.9-0.49609 0-1.25 0.42578-1.6836 0.94141-0.58203 0.69922 0.9375 3.875 5.9141 12.363 10.125 17.266 36.836 64.031 46.637 81.648 9.0078 16.199 9.8945 18.828 6.4961 19.309-2.4141 0.34375-3.3516-0.67578-7.2578-7.8789-8.4531-15.59-23.121-41.711-37.773-67.27-8.7266-15.223-16.668-29.082-17.652-30.805-2.1602-3.7852-2.5859-4.0898-4.1133-2.9336-1.0547 0.79688-0.39844 2.3906 5.8438 14.184 25.824 48.77 65.457 127.48 65.102 129.29-0.3125 1.5938-2.3477 2.7773-3.8047 2.2188-0.65625-0.25-9.2109-16.496-19.012-36.094-9.8008-19.602-24.461-48.426-32.578-64.051-8.1172-15.629-16.293-31.402-18.172-35.055s-3.4961-6.7773-3.5977-6.9453c-0.39062-0.65234-6.0938 1.6992-6.0938 2.5117 0 0.74219 14.52 38.785 50.246 131.64 4.4297 11.516 8.0547 21.52 8.0547 22.234 0 2.082-1.9766 3.3008-3.8945 2.4023-1.2734-0.59375-3.0664-4.5234-8.0547-17.637-9.1758-24.125-35.551-93.18-44.227-115.78-4.0547-10.562-7.6602-19.68-8.0156-20.254-0.51172-0.83203-1.0234-0.875-2.4805-0.21094l-1.8359 0.83594 2.4609 7.6094c2.1484 6.6406 19.441 62.918 31.023 100.96 2.1641 7.1016 5.7773 18.895 8.0391 26.199 2.2578 7.3047 4.1055 13.797 4.1055 14.43 0 2.5586-3.4414 3.8867-5.0469 1.9492-0.44141-0.53125-3.8203-10.91-7.5039-23.062-28.809-94.969-36.465-120.16-37.719-124.12-0.55469-1.7422-1.1992-2.3945-2.3633-2.3867-2.8281 0.019531-3.7109 1.0781-3.1602 3.7891 0.43359 2.1211 15.57 82.441 20.703 109.85 10.828 57.812 10.91 58.316 9.9961 59.418-2.3984 2.8906-5.3711 0.23047-6.1992-5.543-0.26172-1.8281-3.9414-21.918-8.1758-44.648-4.2344-22.73-10.871-58.43-14.742-79.336-3.8711-20.902-7.2227-38.797-7.4453-39.762-0.375-1.6289-0.65234-1.7227-3.8125-1.2891-1.875 0.25781-3.5547 0.61328-3.7344 0.79297-0.17969 0.17969 0.39062 10.555 1.2617 23.059 0.87109 12.504 2.5664 37.016 3.7695 54.469s2.7109 38.445 3.3516 46.652c0.64062 8.2031 0.95703 15.578 0.69922 16.383-0.60938 1.9219-3.207 2.7305-4.5312 1.4062-0.75391-0.75391-1.4102-6.7852-2.4844-22.77-0.80469-11.961-1.8008-26.66-2.2188-32.664-0.41406-6.0078-1.7461-25.602-2.9609-43.543-1.2109-17.941-2.418-34.883-2.6797-37.641l-0.47656-5.0195-5.3359 0.44531-0.73438 188.19-2.0352 0.23438c-1.1875 0.13672-2.1875-0.16797-2.4023-0.73828zm12.289-202.85c56.867-5.7617 102.11-46.41 114.45-102.83 1.418-6.4844 1.6328-9.6367 1.6172-24.066 0-14.41-0.23438-17.617-1.6719-24.266-7.1562-33.062-24.453-59.938-50.668-78.719-8.7227-6.25-24.598-14.27-34.734-17.543-14.16-4.5781-21.191-5.7344-37.59-6.1758-13.012-0.35156-15.891-0.20703-24.309 1.2227-11.668 1.9844-19.977 4.3359-29.195 8.2578-39.426 16.777-67.527 50.508-75.926 91.129-5.6992 27.57-2.3477 55.031 9.8203 80.418 23.539 49.113 74.582 78.008 128.21 72.574zm-24.828-4.9023c-1.625-0.14453-6.5508-0.93359-10.949-1.7539-72.012-13.434-116.54-88.305-93.797-157.73 13.98-42.68 49.688-73.438 94.973-81.812 10.789-1.9961 33.109-1.8164 44.086 0.35156 15.977 3.1562 28.07 7.6562 40.961 15.242 21.223 12.488 37.039 29.895 47.625 52.418 23.699 50.41 9.9375 110.11-33.605 145.75-25.082 20.531-57.125 30.414-89.297 27.539zm22.617-4.6953c40-4.082 74.871-27.66 93.949-63.527 8.8047-16.547 12.945-33.664 12.949-53.516 0-18.086-3.5352-34.223-10.965-50-15.125-32.117-44.719-55.625-79.863-63.438-28.031-6.2305-54.957-3.1523-79.832 9.125-32.297 15.941-54.969 45.113-62.695 80.672-2.2344 10.289-2.4336 35.84-0.34766 45.508 3.4844 16.168 11.121 33.723 20.23 46.5 6.3477 8.8984 18.566 21.098 27.539 27.484 12.605 8.9766 28.562 15.93 43.566 18.984 13.922 2.8359 23.48 3.4297 35.465 2.207zm-28.152-15.035c-19.902-3.5625-37.172-11.754-52.004-24.668-15.195-13.227-26.16-31.641-31.488-52.871-2.9609-11.789-3.6719-27.66-1.7891-39.852 1.3828-8.9648 5.6562-22.723 9.3086-29.988 14.23-28.301 39.742-47.84 71.656-54.879 8.6875-1.9141 28.324-2.3164 37.598-0.76562 45.234 7.5625 79.125 40.316 86.695 83.789 1.8789 10.781 1.1523 31.051-1.457 40.828-7.0078 26.238-21.879 47.613-43.09 61.949-9.8633 6.6641-24.754 12.973-37.051 15.691-7.5273 1.6641-30.777 2.1328-38.375 0.77344zm18.82-4.8477c0.26562-0.42969-0.46875-0.73828-1.7578-0.73828-1.2188 0-2.418 0.33203-2.6719 0.73828-0.26562 0.42969 0.46875 0.73828 1.7578 0.73828 1.2188 0 2.418-0.33203 2.6719-0.73828zm10.699-0.38672c0-0.67188-3.7812-1.8555-4.5039-1.4102-1.2344 0.76172 0.11328 1.8008 2.332 1.8008 1.1953 0 2.1719-0.17578 2.1719-0.38672zm-20.949-2.9414c5.6016-2.4766 11.312-3.5625 17.969-3.418 5.6523 0.125 6.1328-0.48828 1.5781-2.0078-3.5664-1.1914-7.8789-1.0391-10.625 0.38281-1.2969 0.67188-3.6172 1.1719-5.1562 1.1094-1.8906-0.074219-4.457 0.72656-7.9336 2.4766-2.8281 1.4219-5.1406 2.75-5.1406 2.9492 0 1.0312 5.6523 0.125 9.3086-1.4922zm36.133-1.0078c-0.45703-0.73828-6.2305-2.3047-8.5-2.3047-2.4609 0-1.7383 1.1523 1.25 1.9922 3.5 0.98047 7.7773 1.1641 7.25 0.3125zm-48.641-2.4219c2.332-1.043 5.2266-1.625 8.3633-1.6914 3.9297-0.082032 5.8633-0.61328 10.699-2.9453 3.2461-1.5664 7.332-3.0078 9.0781-3.207 2.7539-0.3125 3.4727-0.078125 5.3984 1.7695 1.9375 1.8555 2.7188 2.1094 6.0508 1.9609 2.1055-0.09375 5.1523 0.28906 6.7773 0.84766 4.2422 1.4609 12.711 2.8789 14.066 2.3594 2.168-0.83203 0.3125-1.8086-6.457-3.3984-3.7227-0.875-7.9727-2.2031-9.4414-2.9531s-4.8125-1.7617-7.4297-2.2461c-2.6172-0.48438-6.043-1.4102-7.6172-2.0586-2.7617-1.1328-2.9023-1.1172-4.1758 0.45703-0.96875 1.1953-2.1172 1.6289-4.3047 1.6289-1.6406 0-5.2422 0.85547-8 1.8984-5.2422 1.9844-7.3633 2.668-18.301 5.9141-5.1602 1.5312-6.3125 2.1055-5.1641 2.5625 2.6836 1.0742 6.8398 0.71875 10.457-0.89844zm-15.305-4.2852c2.25-1.1484 3.3398-1.3047 5.2578-0.75391 2.957 0.84766 4.6289 0.46484 11.961-2.7383 4.5195-1.9727 6.2812-2.3984 8.3438-2.0117 2.0547 0.38672 3.5938 0.019531 7.1875-1.707 10.531-5.0625 9.9141-4.9336 13.82-2.9062 2.0938 1.0859 4.2148 1.6641 5.3242 1.4531 1.0156-0.19531 2.8086 0.14453 3.9844 0.75391 1.1758 0.60937 4.0898 1.4688 6.4727 1.9062 2.3828 0.44141 6.0898 1.6055 8.2344 2.5859 2.1445 0.98047 5.7344 2.1953 7.9727 2.6992 3.5664 0.79688 4.3086 0.75781 5.957-0.32031 1.0352-0.67969 1.8828-1.4766 1.8828-1.7734 0-0.92188-16.133-6.5391-26.043-9.0625-1.9453-0.49609-3.4141-1.2695-3.2656-1.7188 0.53125-1.6172 4.1836-1.2344 9.3945 0.98438 4.0469 1.7227 6.4141 2.2578 9.9805 2.2578 3.1328 0 6.3633 0.60938 9.7891 1.8438 5.7422 2.0703 8.2578 2.3242 8.2578 0.83594 0-0.61328-2.3789-1.7695-6.0898-2.957-3.3477-1.0703-7.418-2.582-9.0391-3.3555-5.0469-2.4062-14.559-5.7969-19.41-6.918-5.1406-1.1875-5.7031-1.5039-4.9336-2.7539 1.0898-1.7617 7.0898-0.003906 16.695 4.8906 5.7695 2.9375 6.8789 3.25 11.637 3.25 3.9102 0 6.4297 0.47266 9.8008 1.8438 4.9375 2.0078 6.8828 2.2773 7.6367 1.0586 0.68359-1.1094-1-2.207-11.312-7.3867-9.1602-4.6016-11.699-6.9102-11.086-10.094 0.16797-0.86719 1.3516-0.070313 4.2891 2.8828 3.0352 3.0469 5.4688 4.6602 9.6523 6.3789 8.4375 3.4727 12.117 4.3281 13.535 3.1484 0.64062-0.53125 1.1641-1.1992 1.1641-1.4844s-2.293-1.5938-5.0898-2.9062c-4.832-2.2656-8.1367-4.8164-7.3125-5.6406 0.57422-0.57422 9.4609 1.8477 12.559 3.4219 3.4375 1.7461 3.625 1.7305 5.207-0.44531l1.3047-1.793-5.3633-3.6445c-4.9531-3.3633-11.148-8.9648-9.9219-8.9648 0.28906 0 2.0977 0.81641 4.0195 1.8125 1.9219 0.99609 5.9844 2.8281 9.0273 4.0664l5.5352 2.2539 1.2578-1.5234c1.2031-1.4609 1.1523-1.6602-1.293-4.8633-1.4023-1.8359-2.5469-3.6445-2.5469-4.0195 0-1.2578 4.2109-0.69531 6.1367 0.81641 1.8906 1.4883 1.9141 1.4883 2.6836 0.046874 1.1719-2.1875 0.99219-2.9141-1.7227-7.0078-2.6484-3.9922-5.1172-9.3125-4.5781-9.8516 0.17969-0.17969 2.5156 1.8672 5.1914 4.543l4.8672 4.8672 0.72266-1.8945c1.1914-3.1406 0.86328-4.6055-2.5312-11.277-3.7773-7.418-4.3125-8.9922-3.4961-10.289 0.97656-1.5547 2.8555-0.24219 3.2656 2.2852 0.39062 2.3945 4.918 10.801 5.832 10.828 1.1719 0.035156 0.86328-3.5977-0.63281-7.3672-2.2344-5.6406-2.7852-8.1172-1.8008-8.1172 0.44531 0 1.5625 1.1602 2.4805 2.5742 0.91797 1.4141 1.8711 2.5781 2.1211 2.582 0.25 0.003907 0.66016-1.5117 0.91797-3.3711 0.48438-3.5469-0.11719-5.4102-2.6562-8.1953-0.82812-0.91016-1.6367-3.1094-1.8555-5.043-0.33594-2.9883-0.69922-3.5781-2.8242-4.5898-3.1562-1.5039-4.5547-4.6523-3.293-7.418 0.5-1.0977 1.3594-4.4883 1.9062-7.5312 1.0859-6.043 1.3164-5.2344-3.2852-11.535-1.3906-1.9062-1.5391-2.582-0.84766-3.875 1.3789-2.5742 2.6797-1.7969 4.125 2.4531 0.75 2.2109 1.6172 3.8633 1.9219 3.6719 1.2812-0.79297 1.5312-6.8359 0.37109-8.9258-0.63672-1.1484-1.6797-3.4023-2.3164-5.0078l-1.1562-2.9219-2.418 4.0273c-2.6445 4.4062-4.9102 5.6797-4.9102 2.7617 0-1.6523 1.4375-4.9531 3.6562-8.4141 0.55078-0.85938 0.77734-2.1562 0.5-2.8789-0.42969-1.1211-0.89062-0.86719-3.125 1.7461-1.4414 1.6836-3.1367 3.0625-3.7656 3.0625-1.9883 0-0.61328-5.1562 2.0352-7.6328 1.5781-1.4727 2.0547-2.3789 1.5273-2.9023-0.52344-0.52344-1.6289 0.078125-3.543 1.9375-1.5273 1.4844-3.2031 2.6992-3.7227 2.6992-1.668 0-1.0078-3.3398 1.25-6.3242 3.9414-5.2109 2.082-5.5938-3.332-0.6875-2.0117 1.8242-3.8828 3.3203-4.1523 3.3203s-2.4297 1.6602-4.7969 3.6875c-2.3672 2.0273-4.5859 3.6875-4.9258 3.6914-0.34375 0.003906 0.54297-1.5703 1.9727-3.5 1.4297-1.9297 2.9062-3.5039 3.2852-3.5039s1.6484-1.1641 2.8203-2.582c1.1719-1.4219 2.6328-2.9727 3.2422-3.4453 1.6328-1.2695 0.76562-1.7109-5.5-2.8008-3.1094-0.53906-5.8281-1.1562-6.0391-1.3672-0.21094-0.21094 1.4336-1.5469 3.6562-2.9688 5.0234-3.2148 5.3633-3.7617 3.4922-5.6328-1.957-1.957-3.125-1.8945-6.7031 0.36328l-2.957 1.8672 0.4375-1.7383c0.26953-1.0742 0.027344-2.0742-0.63281-2.625-1.4102-1.168-5.6719-1.293-7.6719-0.22266-2.2734 1.2148-3.1641 1.0586-3.1641-0.56641 0-1.6992-3.3008-2.6367-6.6719-1.8984-4.1641 0.91406-5.9648-2.4336-2.3672-4.3984 1.1172-0.60938 3.0078-1.9883 4.2031-3.0586 2.0547-1.8438 2.1016-2.0039 0.82422-2.9375-1.9258-1.4062-4.9102 0.28906-7.7383 4.3984-1.9688 2.8633-5.4258 4.9297-6.4766 3.875-0.64844-0.64453 1.4297-3.7969 4.8008-7.2773 1.8555-1.918 3.2305-3.6172 3.0508-3.7695-0.17969-0.15625-1.2109-0.49609-2.293-0.75391-1.7461-0.41797-2.5977 0.20703-7.6172 5.6172-3.7539 4.0469-6.375 6.2422-7.8125 6.5469-1.1914 0.25391-2.1641 0.17969-2.1641-0.16406s2.4922-3.3633 5.5352-6.7109c5.5117-6.0625 6.2773-7.2344 4.7109-7.2344-1.0742 0-7.1523 4.4805-9.5078 7.0156-2.5938 2.7852-5.8594 4.3945-6.8711 3.3867-0.94141-0.94141 1.668-3.9102 7.0547-8.0234 1.9297-1.4727 3.5039-2.9414 3.5039-3.2656 0-1.4258-4.2773-0.47266-5.9609 1.332-0.98438 1.0547-3.0352 2.9102-4.5547 4.1211-2.7461 2.1836-2.793 2.1914-5.9023 1.0664-1.7266-0.625-5.1289-1.5-7.5664-1.9492-2.4375-0.44531-6.1562-1.332-8.2656-1.9688-3.8867-1.1719-9.0781-0.86719-9.0781 0.53125 0 0.38672 1.4336 0.70313 3.1836 0.70313 3.1172 0 6.4102 1.9336 6.4102 3.7656 0 0.90234-5.1562 0.29688-11.145-1.3125-8.0703-2.168-10.941 0.44141-3.4258 3.1094 2.3398 0.82812 4.9961 2.2578 5.9023 3.1719l1.6523 1.6641-3.3203-0.48438c-1.8281-0.26562-5.6719-1.2773-8.543-2.2461-5.9766-2.0156-9.0117-2.2109-11.059-0.71094-1.332 0.97656-0.98828 1.2617 5.0117 4.1445 4.7539 2.2812 7.9492 3.2812 12.176 3.8008 6.7188 0.82812 12.535 2.3984 14.535 3.9258 2.5156 1.9219 0.53125 2.1523-4.1992 0.48828-2.5312-0.89062-5.7656-1.6211-7.1836-1.625-1.4219-0.003906-4.9062-0.85938-7.75-1.9023-16.574-6.0781-18.031-6.2461-22.398-2.5273l-2.4727 2.1016 2.6133 1.2383c1.4375 0.68359 3.1367 2.043 3.7812 3.0195 1.1328 1.7305 1.1094 1.7812-0.81641 1.7812-1.0898 0-3.7773-0.56641-5.9688-1.2578-2.8516-0.89844-4.332-1.043-5.1875-0.5-1.9297 1.2188-1.8594 2.2852 0.1875 2.7969 1.6953 0.42578 1.8555 0.74609 1.457 2.8828-0.3125 1.668 0.13281 3.9531 1.457 7.4727 1.0508 2.7852 1.7461 5.2266 1.5508 5.4219-0.19531 0.19531-1.168-0.17578-2.1602-0.82813-1.6953-1.1094-4.8828-7.9688-4.8828-10.508 0-2.6641-4.625-1.7109-5.5273 1.1367-0.25391 0.80078 0.10156 3.4766 0.79687 5.9453 0.97266 3.4648 1.0586 4.6875 0.38281 5.3633-1.0859 1.0859-1.8398 0.023438-3.1641-4.4609-1.0117-3.4219-1.4219-3.7109-2.8359-2.0078-1.2773 1.5391-0.50391 18.773 1.1719 26.047 0.96484 4.1836 1.0469 5.6016 0.36328 6.2734-1.1484 1.1328-2.8555-1.0664-3.2812-4.2422-0.17188-1.25-0.79688-6.0312-1.3945-10.629-0.59766-4.5977-1.4258-8.6992-1.8438-9.1133-0.51172-0.51172-1.3398 0.27344-2.5938 2.457-1.5703 2.7422-1.8945 4.4492-2.2383 11.695-0.38672 8.1836-0.042969 11.934 2.1406 23.422 1.0312 5.4258 0.80078 7.8594-0.69922 7.3633-0.45703-0.15234-0.91016-2.0742-1.0117-4.2734-0.57422-12.793-3.1094-26.199-4.6406-24.516-2.9414 3.2422-6.6055 23.707-6.6133 36.934 0 7.6484 0.10547 8.3008 1.3906 8.3008 1.5508 0 1.9297-1.4062 2.6875-9.9648 0.33594-3.7969 0.15234-6.0195-0.70703-8.3945-1.3203-3.6602-1.5352-8.6289-0.41016-9.3281 1.2109-0.75 2.918 4.3672 3.3945 10.156 0.44922 5.4688-1.0664 13.504-3.75 19.93-1.2031 2.8828-0.78516 6.8984 1.332 12.73l1.0703 2.9531 1.2422-2.8906c1.0586-2.457 1.1094-3.3672 0.35156-6.0781-0.84766-3.0312-0.76172-3.4531 1.7852-8.6016 1.4727-2.9805 2.6758-5.9727 2.6758-6.6523 0-0.67969 0.33594-1.2383 0.74609-1.2383 1.0859 0 0.089844 7.6445-1.6719 12.84-1.5273 4.5078-2.2266 14.559-1.4844 21.293 0.78516 7.1055 2.7539 2.6055 3.4727-7.9336 0.54688-8.0664 2.0586-14.875 3.6562-16.473 1.0898-1.0898 1.1836-0.96875 1.1836 1.4648 0 1.457-0.5 4.0586-1.1055 5.7852-1.2969 3.6758-1.4141 8.0938-0.31641 12.043 0.49609 1.7852 0.52734 3.1367 0.082031 3.6914-1 1.2461-1.7891 13.203-0.95703 14.465 0.98828 1.4961 2.8945-5.3047 3.8086-13.59 0.75391-6.8398 2.4453-14.91 3.3047-15.758 0.26953-0.26562 0.3125 5.293 0.097656 12.352-0.23047 7.5469-0.71484 13.156-1.1758 13.617-0.88281 0.88281-1.0938 10.832-0.23047 10.801 0.30469-0.011718 1.4961-2.1328 2.6523-4.7188 1.9883-4.457 2.0352-4.793 0.89453-6.5352-1.1641-1.7734-1.0977-2 1.9609-6.8086l3.1641-4.9727 0.22266 3.3906c0.17578 2.6602-0.17969 3.9883-1.6602 6.1641-1.957 2.8789-2.207 4.332-1.418 8.2617 0.39063 1.9453 0.71875 2.25 2.0312 1.8594 0.85938-0.25781 2.9062-1.7617 4.543-3.3398 3.6484-3.5195 4.7734-3.6289 4.7578-0.47266-0.027344 3.5508-0.73828 4.1875-5.9492 5.25l-4.7422 0.96875-0.51172 3.5781c-0.80859 5.6641 0.16797 6.3516 3.6562 2.5742l2.9453-3.1914 2.5 3.8203 3.4141-2.1641c3.6836-2.3359 6.8125-2.8398 6.8125-1.0938 0 1.1406-4.3906 4.8359-5.7461 4.8359-1.3867 0-1.6484 1.2109-0.82422 3.7891 0.4375 1.3672 0.91797 2.8906 1.0664 3.3867 0.19531 0.64062 1.4062 0.375 4.1797-0.91406 2.1484-1 4.8008-1.8203 5.8906-1.8242 1.0938-0.003906 2.1875-0.33594 2.4375-0.73437 0.25-0.40234 2.2617-1.2539 4.4727-1.8984 2.2109-0.64453 4.0195-1.418 4.0195-1.7266 0-0.30469 2.4922-0.62109 5.5352-0.69922 4.543-0.11719 5.5352 0.058593 5.5352 0.98828 0 1.332-4.1719 4.0547-6.2266 4.0586-0.78516 0-2.1836-0.70312-3.1016-1.5703l-1.6758-1.5742-1.7969 2.1367c-2.0234 2.4023-8.3438 5.5312-14.691 7.2695-2.332 0.64063-4.2305 1.4023-4.2109 1.6953 0.039063 0.64453 4.9609 3.8555 5.918 3.8555 0.375 0 2.7578-0.78906 5.3008-1.75 2.543-0.96484 7.0547-2.1289 10.035-2.5898 3.2461-0.50391 7.5273-1.8672 10.699-3.4102 2.9062-1.4141 6.7812-2.8633 8.6094-3.2227 1.8281-0.35938 3.9844-0.91016 4.7969-1.2227 1.0469-0.40625 0.73047 0.21875-1.0859 2.1445-2.6172 2.7695-7.7969 4.8867-11.957 4.8867-2.4297 0-12.418 4.2656-13.598 5.8086-0.44531 0.58203-1.1992 0.82031-1.6758 0.52344-1.0039-0.62109-6 0.86328-6 1.7812 0 0.67578 1.2891 1.3281 2.7969 1.4219 0.52344 0.03125 2.2305-0.59375 3.793-1.3906zm31.051-14.77c0-0.64062 3.7344-2.9727 4.7617-2.9727 0.96484 0 0.29688 2.8359-0.76172 3.2422-1.7812 0.68359-4 0.53516-4-0.26953zm16.562-0.34375c-1.375-1.0195-1.3828-1.1133-0.11328-2.3984 1.2734-1.2891 1.4141-1.2812 4.0273 0.23047 1.4883 0.85938 2.832 1.9414 2.9844 2.3984 0.41016 1.2305-5.1797 1.043-6.8984-0.23047zm-6.9688-2.9453c0-0.75391 0.66797-1.1602 1.9062-1.1602 2.3125 0 2.0586 1.7344-0.30469 2.082-1.0625 0.15625-1.6016-0.15234-1.6016-0.92188zm-22.879-1.8711c0-1.6914 2.0547-2.9766 4.75-2.9766 2.6016 0 2.4375 1.8945-0.28516 3.3008-2.9609 1.5312-4.4648 1.4219-4.4648-0.32422zm11.07-4.0859c0-0.60938 0.14062-1.1055 0.30859-1.1055 0.17188 0 0.83203-0.20312 1.4766-0.44922 0.83594-0.32031 1.168-0.007812 1.168 1.1055 0 1.0625-0.46875 1.5547-1.4766 1.5547-0.82031 0-1.4766-0.49219-1.4766-1.1055zm-37.145-0.12109c-0.26953-0.26953-0.49219-1.1094-0.49219-1.8633 0-1.3789 2.0977-2.5234 6.0898-3.3242 1.6875-0.33984 2.0312-0.15234 2.0312 1.1055 0 2.7656-5.8242 5.8828-7.625 4.082zm12.449-6.1094c-0.71094-1.1523 0.22656-2.2539 1.918-2.2539 1.0156 0 1.4102 0.40625 1.2383 1.2812-0.28125 1.4688-2.4375 2.1328-3.1562 0.97266zm-17.762-6.1289c-0.66797-1.7266 0.082032-3.5039 1.4805-3.5039 1.418 0 1.4531 1.4961 0.074219 3.3633-0.98047 1.3359-1.0898 1.3438-1.5547 0.14062zm108.24-5.2344c-0.45313-0.54297-0.60547-1.207-0.34375-1.4688 0.55469-0.55469 2.4609 0.85156 2.4609 1.8125 0 0.97266-1.1875 0.78125-2.1172-0.34375zm-115.47-3.9297c-0.26953-0.26953-0.49219-1.4336-0.49219-2.582 0-1.5352 0.35938-2.0898 1.3516-2.0898 2.0898 0 2.375 0.73828 1.1797 3.0469-1.1797 2.2852-1.2969 2.375-2.043 1.6289zm130.06-1.8242c-1.5977-2.2422-1.6055-2.3516-0.27734-3.3203 1.8789-1.375 2.2344-1.2891 4 0.95703 1.4453 1.8359 1.4648 2.043 0.30859 3.3203-1.668 1.8438-2.1133 1.7383-4.0312-0.95703zm-136.11-14.152c-0.30469-0.75-0.17969-1.7031 0.27734-2.1641 1.2461-1.2461 1.9219-0.050781 1.043 1.8398-0.71094 1.5312-0.82031 1.5586-1.3203 0.32812zm140.66-0.97266c-1.6602-2.1133-1.8438-3.0586-0.88281-4.5742 0.84766-1.3359 3.7812 2.3672 3.7812 4.7734 0 2.2812-1.0039 2.2109-2.8984-0.19922zm-150.61-4.6641c0-0.86328 0.65625-2.8555 1.4609-4.4258 1.2148-2.3828 1.3242-3.25 0.64453-5.1992-0.67578-1.9375-0.60547-2.5508 0.41406-3.5664 1.0781-1.0781 1.3125-1.0938 1.9297-0.12109 1.2969 2.0508 0.80078 7.7383-0.96875 11.086-1.9023 3.5977-3.4727 4.6055-3.4727 2.2266zm153.78-8.5586c-1.8281-2.7891-0.21484-4.0078 1.8438-1.3906 0.86328 1.0977 1.5703 2.2852 1.5703 2.6367 0 1.3633-2.2422 0.54688-3.4141-1.2461zm8.2031-2.3594c-1.0703-2.5938-1.668-6.0898-1.0391-6.0898 0.69531 0 3.6289 5.3477 3.6289 6.6133 0 1.2695-2.0156 0.86328-2.5898-0.52344zm-166.39-8.4453c0.027344-2.8438 0.13281-3.0391 1.0273-1.8555 1.0156 1.3398 0.79297 3.8945-0.40234 4.6328-0.35547 0.21875-0.63672-1.0312-0.625-2.7773zm154.96 1.5742c0-0.83594 0.33203-1.3125 0.73828-1.0625s0.73828 0.93359 0.73828 1.5195c0 0.58594-0.33203 1.0625-0.73828 1.0625s-0.73828-0.68359-0.73828-1.5195zm5.1953-3.9805c-0.91016-1.0938-0.41406-4.0938 0.67188-4.0938 0.60156 0 1.4844 2.4922 1.5039 4.2422 0 1.2422-1.082 1.168-2.1758-0.14844zm-154.98-8.4727c-1.125-2.1016-0.94141-3.3477 0.71094-4.8438 1.457-1.3203 1.4766-1.2891 1.4766 2.4688 0 3.9297-0.85938 4.8633-2.1875 2.375zm156.59-4.6133c-1.0664-1.0664-1.207-5.7656-0.17188-5.7656 1.1055 0 3.1211 3.4609 2.8438 4.8828-0.31641 1.625-1.5273 2.0234-2.6719 0.88281zm-9.2578-1.0898c-0.76562-0.76563-0.57812-3.1992 0.24609-3.1992 0.40625 0 0.73828 0.83203 0.73828 1.8438 0 1.9336-0.17188 2.168-0.98438 1.3516zm-138.5-6.8867c0-0.8125 0.29688-1.4766 0.66016-1.4766 0.82812 0 1.6016 1.918 1.0117 2.5117-0.88672 0.88672-1.6719 0.40234-1.6719-1.0352zm143.92 0.37891c-1.082-1.3047-0.35547-5.0469 0.90234-4.625 0.46875 0.15625 1.1094 1.2305 1.418 2.3867 0.85156 3.1914-0.46875 4.4688-2.3203 2.2383zm-144.96-8.6797c-1.1602-9.3203-0.95312-10.129 1.7227-6.7266 2.2578 2.8711 2.0117 9.8633-0.34766 9.8633-0.60156 0-1.1328-1.2109-1.375-3.1367zm140.8 2.0781c-0.54297-1.4141 0.13281-3.3672 1.168-3.3672 0.98047 0 0.99609 3.457 0.027343 4.0625-0.41016 0.25391-0.94141-0.058594-1.1875-0.69531zm-5.1094-7.8398c-0.69531-1.125 0.92578-4.6367 2.6328-5.7031 1.2695-0.79297 1.4531-0.71484 1.4531 0.60938 0 1.8594-2 5.875-2.9258 5.875-0.37109 0-0.89453-0.35156-1.1602-0.78125zm-9.1992-1.3633c0-0.96484 0.71484-1.9023 1.8438-2.4141 1.0938-0.5 1.8555-1.4688 1.8672-2.3828 0.042969-2.6992 4.4375-6.5977 5.5-4.8789 0.67578 1.0938-0.61328 2.9336-5.125 7.2969-3.4336 3.3203-4.0898 3.7031-4.0898 2.3828zm-117.74-4.0703c-1.3828-2.1133-1.0781-3.082 0.75391-2.3789 1.5273 0.58594 2.2539 2.5938 1.2891 3.5586-0.53125 0.53125-1.1602 0.16797-2.043-1.1797zm108.15-10.438c0-1.5156 1.7969-3.2734 3.3477-3.2734 2.1641 0 2.3125 0.80078 0.46875 2.4688-1.2812 1.1602-3.8164 1.6953-3.8164 0.80469zm-90.031-9.3906c-2.1406-1.082-2.9297-3.4766-1.1445-3.4766 0.65234 0 2.3789 0.5 3.8359 1.1055 2.2305 0.93359 2.5039 1.2812 1.7305 2.2148-1.1133 1.3398-2.0156 1.3711-4.4219 0.15625zm84.863-1.0977c0-2.1523 5.6719-6.0508 6.9492-4.7773 1.25 1.25 0.23438 3.2969-2.1289 4.2812-2.8164 1.1758-4.8203 1.3828-4.8203 0.49609zm-9.5938-2.2305c0-2 1.4922-3.1016 4.207-3.1016 2.9414 0 3.0859 0.85547 0.49219 2.8984-2.4219 1.9062-4.6992 2.0039-4.6992 0.19922zm-9.9727-0.91797c-0.62891-1.9766 1.582-4.5391 3.6602-4.2422 2.1484 0.30859 1.8828 1.5391-0.82422 3.8164-2.3047 1.9414-2.3516 1.9492-2.8359 0.42188zm-9.2148-3.8945c0-0.92188 1.5117-2.5078 4.7266-4.9609 1.3672-1.043 1.3711-1.0039 0.19922 1.2578-2.0195 3.9062-4.9297 6.0938-4.9297 3.7031zm-10.57-0.24609c-0.66406-0.66406 0.92188-2.4648 2.1758-2.4648s1.3086 0.89062 0.13281 2.0664c-1 1-1.6016 1.1055-2.3047 0.39844zm-7.0234-5.5938c-1.5469-1.5469-0.97656-3.457 1.1719-3.9375 1.1172-0.25 2.6094-0.60938 3.3203-0.80078 1.8438-0.5 1.625 1.4062-0.36719 3.1992-2.4609 2.2148-3.1797 2.4844-4.125 1.5391zm-14.121-2.0078c-0.92969-0.58984-0.90234-0.75781 0.18359-1.1758 1.5156-0.58203 3.4844 0.054687 3.4844 1.125 0 0.94531-2.2109 0.97656-3.668 0.050781zm3.2305-3.832c-0.75391-1.2227 1.8047-2.8398 4.4922-2.8398 2.4102 0 4.0664 1.1133 4.0664 2.7305 0 1.2344-7.8008 1.3359-8.5547 0.10938zm-47.949 155c0.67188-1.6758 1.0898-3.1719 0.92969-3.332-0.375-0.375-5.6797 1.8438-5.6797 2.3711 0 0.65234 2.5391 3.9531 3.0547 3.9805 0.25781 0.015625 1.0195-1.3477 1.6914-3.0195zm156.53-76.996c-0.375-4.4844-0.80859-6.3047-1.5039-6.3047-0.53906 0-1.1484 0.41406-1.3516 0.92188-0.20312 0.50781-0.39844-0.074219-0.43359-1.293-0.074219-2.6094-3.1016-6.7578-4.3594-5.9805-1.2734 0.78906-1.0156 4.0859 0.59766 7.6406 1.3672 3.0117 2.918 4.1484 3.0195 2.2148 0.027344-0.50781 0.52344 0.83984 1.1016 2.9922 1.1836 4.3906 2.4609 7.1133 3.0586 6.5156 0.21875-0.21875 0.16016-3.2383-0.125-6.707zm-2.375-14.703c0.45313-1.1758-0.77344-7.1875-1.6445-8.0664-0.32422-0.32812-1.0234 0.45703-1.5586 1.7422-0.84375 2.0391-0.79688 2.6562 0.37891 4.8398 1.4492 2.6914 2.207 3.0898 2.8242 1.4844zm-23.109-45.34c0-0.32812-0.96094-1.3086-2.1328-2.1758-2.0391-1.5078-2.1875-1.5195-3.3203-0.26562-2.0078 2.2188-1.4297 3.0391 2.1328 3.0391 1.8281 0 3.3203-0.26953 3.3203-0.59766zm-16.605-14.551c-2.3711-1.9453-4.375-2.4102-3.8789-0.89844 0.35938 1.0859 3.4023 2.7539 4.9844 2.7305 0.69141-0.011719 0.28125-0.69531-1.1055-1.832zm-7.6992-1.5156c1.2031-1.4453 0.11328-3.5234-2.0156-3.8438-1.7109-0.25781-5.418 2.4531-5.418 3.9609 0 1.5234 6.1484 1.4297 7.4297-0.11719zm-39.344-12.668c0.1875-0.57422-0.39844-0.92188-1.543-0.92188-2.3555 0-4.1797 0.69922-4.1797 1.5977 0 1.0391 5.3672 0.40234 5.7227-0.67578zm-7.5703-0.18359c-0.25-0.40625-1.7461-0.73828-3.3203-0.73828s-3.0703 0.33203-3.3203 0.73828c-0.28125 0.45703 0.99219 0.73828 3.3203 0.73828 2.332 0 3.6016-0.28125 3.3203-0.73828z"/>
</svg>
