<?xml version="1.0" encoding="UTF-8"?>
<svg width="1200pt" height="1200pt" version="1.1" viewBox="0 0 1200 1200" xmlns="http://www.w3.org/2000/svg">
 <path d="m1106.3 800.63-256.69-219.37c3.2344-3.7969 4.8281-8.6719 4.4531-13.641s-2.7188-9.5625-6.5156-12.797l-85.5-73.312c-3.7969-3.2344-8.6719-4.8281-13.641-4.4531s-9.5625 2.7188-12.797 6.5156l-12.188 14.25-28.5-24.375c-3.7969-3.2344-8.6719-4.8281-13.641-4.4531s-9.5625 2.7188-12.797 6.5156l-18.75 22.5c-7.875-16.5-10.734-34.969-8.25-53.062 3.6094-25.969 18.141-49.172 39.938-63.75l39.938-27.188c17.672-11.906 32.062-28.031 42-46.875 9.9844-18.891 15.188-39.938 15.188-61.312-0.28125-91.547-74.062-165.84-165.56-166.87l-369.19-2.8125h-1.3125c-44.531-0.23438-87.281 17.344-118.73 48.844s-48.984 74.25-48.703 118.78v30.562c0.1875 57.984 30.328 111.75 79.688 142.13l82.125 50.438c21.141 13.031 36.234 33.938 42 58.125h-35.062c-10.359 0-18.75 8.3906-18.75 18.75v37.5h-18.75c-10.359 0-18.75 8.3906-18.75 18.75v112.5c0 4.9688 1.9688 9.75 5.4844 13.266s8.2969 5.4844 13.266 5.4844v337.5c0 31.078 25.172 56.25 56.25 56.25h75c31.078 0 56.25-25.172 56.25-56.25v-337.5c4.9688 0 9.75-1.9688 13.266-5.4844s5.4844-8.2969 5.4844-13.266v-112.5c0-4.9688-1.9688-9.75-5.4844-13.266s-8.2969-5.4844-13.266-5.4844h-18.75v-37.5c0-4.9688-1.9688-9.75-5.4844-13.266s-8.2969-5.4844-13.266-5.4844h-39.188c-5.8125-37.781-28.031-71.109-60.75-90.938l-82.125-50.438c-38.203-23.625-61.547-65.297-61.688-110.25v-29.625c-0.046875-34.266 13.547-67.172 37.781-91.406s57.141-37.828 91.406-37.781l369.56 2.4375c71.016 0.70312 128.26 58.359 128.44 129.37 0.046875 15.234-3.6562 30.188-10.688 43.688-7.1719 13.406-17.438 24.844-30 33.375l-39 26.25c-30.656 20.484-51.141 53.109-56.25 89.625-4.5 30.844 2.1562 62.297 18.75 88.688l-27.75 32.438c-3.2344 3.7969-4.8281 8.6719-4.4531 13.641s2.7188 9.5625 6.5156 12.797l28.5 24.562-12.375 14.062c-3.1875 3.7969-4.7344 8.7188-4.3125 13.688 0.375 4.9219 2.6719 9.5156 6.375 12.75l85.5 73.312c3.7969 3.2344 8.6719 4.8281 13.641 4.4531s9.5625-2.7188 12.797-6.5156l256.69 219.74c10.172 8.7188 23.156 13.5 36.562 13.5h4.5c14.438-1.1719 27.891-7.9219 37.5-18.75l48.938-56.25c10.312-11.25 15.656-26.203 14.719-41.438-0.89062-15.234-7.9688-29.438-19.594-39.375zm-881.26-181.87h150v75h-150zm131.26 337.5h-112.5v-112.5h112.5zm-18.75 131.26h-75c-10.359 0-18.75-8.3906-18.75-18.75v-75h112.5v75c0 4.9688-1.9688 9.75-5.4844 13.266-3.5156 3.5156-8.2969 5.4844-13.266 5.4844zm18.75-281.26h-112.5v-75h112.5zm-18.75-225h-75v-18.75h75zm347.26-67.5 14.25 12.188-48.75 56.25-14.25-12.188zm152.63 255 73.125-85.5 85.312 73.312-73.125 85.5zm-85.5-74.062 36.562-42.562 37.5-42.75 56.25 48.75-73.125 85.5zm-97.688-58.875 97.688-114 56.25 48.938-97.688 113.81zm429.19 219.56-48.938 56.25c-3.2344 3.7969-7.7812 6.1406-12.75 6.5625-4.9688 0.375-9.8906-1.2188-13.688-4.5l-56.25-48.75 73.125-85.5 56.25 48.75c4.0312 3.2344 6.5625 7.9688 6.9844 13.125 0.42188 5.1094-1.2656 10.219-4.7344 14.062z"/>
</svg>
