<?xml version="1.0" encoding="UTF-8"?>
<svg width="1200pt" height="1200pt" version="1.1" viewBox="0 0 1200 1200" xmlns="http://www.w3.org/2000/svg">
 <path d="m1103.1 95.297h-1006.1c-20.25 0.09375-36.656 16.453-36.938 36.703v936c0.046875 20.391 16.547 36.938 36.938 37.078h1006.1c20.391-0.14062 36.891-16.688 36.938-37.078v-936c-0.046875-20.391-16.547-36.938-36.938-37.078zm-58.219 168c8.3906 0 15.234 6.7969 15.234 15.234v732c0 8.3906-6.8438 15.234-15.234 15.234h-889.69c-8.3906 0-15.234-6.8438-15.234-15.234v-732c0-8.4375 6.8438-15.234 15.234-15.234zm-889.69-35.297h889.69c27.656 0.046875 50.016 22.5 50.016 50.156v732c0 27.656-22.359 50.109-50.016 50.156h-889.69c-27.656-0.046875-50.016-22.5-50.016-50.156v-732c0-27.656 22.359-50.109 50.016-50.156zm678.47 319.22c3.3281 7.8281 6.1406 15.844 8.5312 24 1.5 5.6719 5.8125 10.172 11.391 12l51.844 20.062v82.547l-52.781 20.531v-0.046875c-5.0156 1.9219-8.9062 6.0469-10.453 11.156-4.875 16.172-11.344 31.781-19.312 46.688-2.3906 4.7812-2.3906 10.453 0 15.234l22.922 51.844-58.453 58.453-51.844-22.922c-5.1094-2.25-10.969-1.9688-15.844 0.84375-14.672 7.875-30.094 14.25-46.078 19.078-5.8125 1.6406-10.359 6.1875-12 12l-20.062 51.844h-82.781l-20.531-52.781 0.046875-0.046875c-1.9219-5.0156-6.0469-8.8594-11.156-10.406-16.359-5.3438-32.109-12.281-47.062-20.766-4.8281-2.3438-10.406-2.3438-15.234 0l-51.844 22.922-58.078-59.062 22.922-51.844c2.25-5.1094 1.9688-10.969-0.84375-15.844-7.875-14.672-14.25-30.094-19.078-46.078-1.5-5.6719-5.8125-10.172-11.391-12l-51.844-20.062v-82.172l53.391-20.531c5.0156-1.875 8.9062-6 10.453-11.156 4.875-16.125 11.391-31.781 19.312-46.641 2.5781-4.7344 2.8125-10.359 0.60938-15.281l-22.922-51.844 58.453-58.453 51.844 22.922-0.046875 0.046875c5.1094 2.25 11.016 1.9219 15.844-0.84375 14.719-7.875 30.141-14.297 46.078-19.078 5.8594-1.6406 10.406-6.1875 12-12l20.062-51.844h82.547l20.531 52.781c1.875 5.0156 6 8.9062 11.156 10.453 15.984 5.1094 31.406 11.766 46.078 19.922 4.7812 2.3906 10.453 2.3906 15.234 0l51.844-22.922 58.453 58.453-23.297 52.406c-2.25 5.1094-1.9688 11.016 0.84375 15.844 3.9375 7.2656 7.5 14.672 10.547 22.312zm24-31.781v-0.046875c6 12.141 11.203 24.656 15.516 37.453l56.156 21.703c6.7031 2.5781 11.156 9 11.156 16.219v106.31c0.046875 7.5938-4.7812 14.391-12 16.781l-54.844 21.141c-4.3125 12.797-9.4688 25.312-15.469 37.453l24 55.078c2.8594 6.5625 1.4531 14.25-3.6094 19.312l-75.234 75.234c-5.2969 5.3438-13.453 6.6562-20.156 3.2344l-54.234-24h-0.046875c-12.094 6.0469-24.562 11.25-37.406 15.469l-21.703 56.156h-0.046875c-2.5312 6.75-9 11.203-16.172 11.203h-106.69c-7.5938 0.046875-14.391-4.7812-16.781-12l-21.141-54.844c-12.844-4.2656-25.359-9.4688-37.453-15.516l-55.078 24c-6.5625 2.9062-14.25 1.5-19.312-3.5625l-75.234-75.234v-0.046875c-5.3906-5.25-6.7031-13.453-3.2344-20.156l24-54.234c-6-12.094-11.156-24.609-15.469-37.406l-56.156-21.703-0.046875-0.046875c-6.7031-2.5312-11.156-9-11.156-16.172v-106.69c-0.046875-7.6406 4.7812-14.391 12-16.828l54.844-21.141v0.046875c4.3125-12.844 9.5156-25.312 15.516-37.453l-24-55.078c-2.9062-6.5625-1.5-14.25 3.5625-19.312l75.234-75.234c5.2969-5.3906 13.453-6.7031 20.203-3.2344l54.234 24c12.094-6 24.609-11.203 37.406-15.516l21.703-56.156h0.046875c2.5312-6.7031 9-11.156 16.172-11.156h106.36c7.5938-0.046875 14.391 4.7812 16.781 12l21.141 54.844h-0.046875c12.844 4.3125 25.359 9.4688 37.453 15.469l55.078-24c6.5625-2.8594 14.25-1.4531 19.312 3.6094l75.234 75.234h0.046875c5.3438 5.2969 6.6562 13.453 3.2344 20.156l-24 54.234zm-142.69 13.266c46.547 46.5 60.469 116.44 35.297 177.24-25.172 60.75-84.469 100.36-150.24 100.36s-125.06-39.609-150.24-100.36c-25.172-60.797-11.25-130.74 35.297-177.24 63.469-63.469 166.4-63.469 229.87 0zm-114.94-82.406c52.359 0 102.56 20.766 139.6 57.797 37.031 37.031 57.797 87.234 57.797 139.6 0 52.363-20.766 102.56-57.797 139.6-37.031 36.984-87.234 57.797-139.6 57.797-52.363 0-102.56-20.812-139.6-57.797-37.031-37.031-57.797-87.234-57.797-139.6-0.046875-52.359 20.766-102.61 57.75-139.64 37.031-37.031 87.281-57.797 139.64-57.75zm49.453 152.86c-4.0781-3.0469-6.6562-7.7344-6.9844-12.797-0.32813-5.0625 1.5469-10.031 5.2031-13.594s8.6719-5.3438 13.734-4.875 9.7031 3.0938 12.656 7.2656l56.766 56.766h-0.046874c3.3281 3.2812 5.1562 7.7344 5.1562 12.375s-1.8281 9.0938-5.1562 12.328l-56.719 56.156c-2.9531 4.1719-7.5938 6.8438-12.656 7.3125s-10.078-1.3125-13.734-4.875-5.5312-8.5312-5.2031-13.641c0.32812-5.0625 2.9062-9.75 6.9844-12.797l44.531-44.531-44.531-44.531zm-123.47-24h-0.046874c2.9531-4.1719 7.5938-6.7969 12.656-7.2656s10.078 1.3125 13.734 4.875 5.5312 8.5312 5.2031 13.594c-0.32813 5.0625-2.9062 9.75-6.9844 12.797l-44.531 44.531 44.531 44.531c4.0781 3 6.6562 7.6875 6.9844 12.797 0.32812 5.0625-1.5469 10.031-5.2031 13.594s-8.6719 5.3438-13.734 4.875-9.7031-3.1406-12.656-7.2656l-56.719-56.156c-3.3281-3.2812-5.1562-7.7344-5.1562-12.375s1.8281-9.0938 5.1562-12.375l56.766-56.766zm76.078 128.53c-2.625 9.0938-12.094 14.438-21.281 12-9.0938-2.7188-14.391-12.188-12-21.375l29.531-109.78c2.7188-9 12.094-14.25 21.188-11.812s14.578 11.625 12.422 20.812z" fill-rule="evenodd"/>
</svg>
