<?xml version="1.0" encoding="UTF-8"?>
<svg width="1200pt" height="1200pt" version="1.1" viewBox="0 0 1200 1200" xmlns="http://www.w3.org/2000/svg">
 <path d="m0 0v1200h1200v-1200zm787.5 165c20.805 1.1602 39.551 12.93 49.633 31.164 10.082 18.234 10.082 40.375 0 58.609-10.082 18.234-28.828 30.004-49.633 31.164-20.805-1.1602-39.551-12.93-49.633-31.164-10.082-18.234-10.082-40.375 0-58.609 10.082-18.234 28.828-30.004 49.633-31.164zm-525 810c0-53.59 28.59-103.11 75-129.9 46.41-26.797 103.59-26.797 150 0 46.41 26.793 75 76.312 75 129.9-7.3125 199.12-292.69 199.31-300 0zm0-375c0-53.59 28.59-103.11 75-129.9 46.41-26.797 103.59-26.797 150 0 46.41 26.793 75 76.312 75 129.9-7.3125 199.12-292.69 199.31-300 0zm0-375c0-53.59 28.59-103.11 75-129.9 46.41-26.797 103.59-26.797 150 0 46.41 26.793 75 76.312 75 129.9-7.3125 199.12-292.69 199.31-300 0zm525 810.94c-20.805-1.1602-39.551-12.93-49.633-31.164-10.082-18.234-10.082-40.375 0-58.609 10.082-18.234 28.828-30.004 49.633-31.164 20.805 1.1602 39.551 12.93 49.633 31.164 10.082 18.234 10.082 40.375 0 58.609-10.082 18.234-28.828 30.004-49.633 31.164zm-150-435.94c0-53.59 28.59-103.11 75-129.9 46.41-26.797 103.59-26.797 150 0 46.41 26.793 75 76.312 75 129.9-7.3125 199.12-292.69 199.31-300 0z"/>
</svg>
