<?xml version="1.0" encoding="UTF-8"?>
<svg width="1200pt" height="1200pt" version="1.1" viewBox="0 0 1200 1200" xmlns="http://www.w3.org/2000/svg">
 <path d="m1141 661.08c-0.63672-1.7266-1.4023-3.6836-21.203-6.5039-40.094-5.7734-94.883-13.297-128.41-17.137-15.301-1.9062-43.094-5.4609-57.289-7.8008l-17.27-2.6641c-8.5664-1.3203-16.789-2.5781-21.816-3.3125-6.3711-0.80469-21.047-3.0703-35.242-5.2695l-14.398-2.2188c-15.77-2.4609-76.512-11.352-123.07-18.047 54.938 7.2109 182.73 20.988 259.34 26.125 29.352 2.0391 72.707 6.5391 103.09 10.703 9.4805 1.2461 16.078 1.8594 20.172 1.8594 4.6914 0 6.707-0.73047 7.6797-2.8086 0.57422-1.2461 0.74219-3.1914-1.7539-5.4727-4.4531-3.9492-114.34-14.605-142.56-16.367-40.188-2.4375-96.301-7.0938-110.95-8.9297 2.7109-3.0859 8.3164-7.9336 12.66-9.8047 3.3242-1.4531 11.016-4.1406 17.172-5.832 9.793-2.6172 12.613-2.7617 30.203-1.5977 11.688 0.98438 38.762 2.6758 58.98 3.8398 20.641 1.1641 50.676 3.168 65.699 4.5703l0.97266 0.085938c62.184 5.4102 62.219 5.3867 64.754 2.8789 1.9922-2.0039 1.8945-3.793 1.4648-4.957-1.2969-3.5156-5.0156-4.668-36.121-7.0312-15.984-1.1406-37.738-2.8555-46.609-3.8281-8.6172-0.78125-29.605-2.1602-46.789-3.0703l-8.1367-0.39453c-20.914-1.0312-35.207-1.7383-44.316-2.2695 18.996-4.6797 60.73-12.73 157.67-30.551 42.973-7.9453 51.059-9.9961 53.496-12.098 2.4844-2.0039 3.3008-3.9844 2.4102-5.9141-1.3672-2.9531-4.1992-3.8164-25.656 0.19141l-19.98 3.9258-42.84-1.6797c-83.219-3.2656-133.52-5.4727-152.83-6.6953 5.2305-1.8125 12.215-4.0664 19.141-6.2773 16.656-5.3633 42.254-12.887 57.863-17.258 31.234-8.5312 102.85-29.438 107.95-31.5 3.5742-1.5117 5.5312-4.1641 5.0039-6.7188-0.33594-1.7539-1.9688-3.6133-5.6875-3.6133h-0.011718c-2.1484 0.21484-16.391 4.0547-29.316 7.9062-15.047 4.3789-45.996 13.273-69.574 19.895-64.078 18.059-166.82 49.645-205.89 62.797l-29.844 7.957c34.922-11.113 74.016-23.543 87.539-27.996 56.484-18.504 107.93-35.363 117.05-38.258 9.3242-3.0586 27.742-9.5039 41.258-14.566 13.234-4.8594 35.734-12.312 50.148-16.609 32.062-9.3594 36.637-11.172 37.57-14.844 0.21484-0.83984 0.33594-2.4844-1.2617-4.0664-2.4844-2.4961-6.4453-1.8477-14.258 0.15625-17.352 4.8945-56.195 17.762-80.281 27.023-12.637 4.9336-37.043 13.078-53.34 18.133-29.363 9.0586-62.473 19.727-122.15 39.336-13.031 4.3086-22.738 7.2109-27.445 8.4492 0.046876-0.55078 0.13281-1.2109 0.25391-1.9805 2.2305-11.664 41.699-44.594 57.84-48.277 5.1367-1.1289 18.395-4.4141 28.934-7.3789 7.4648-2.0742 19.355-5.2695 30.672-8.3047l15.191-4.0781c13.895-3.6953 40.367-11.328 59.004-17.004 50.074-15.289 120.6-35.496 123.66-35.82 2.293 0 4.8477-1.7383 6.2773-3.3711 2.3398-2.7852 1.8945-4.8008 1.1172-6-1.7031-2.6055-4.3555-3.707-26.723 2.7344-10.367 2.9648-44.977 13.164-77.016 22.969-30.457 9.3125-77.074 22.609-103.92 29.652-13.812 3.6133-26.867 7.0781-36.109 9.5625 32.578-21.719 119.75-77.941 161.46-103.56 15.336-9.5156 16.633-11.914 15.805-14.785-0.37109-1.2969-1.5-2.8438-4.8359-2.8438-3.5391 0-10.633 3.8633-53.773 31.066-7.3086 4.6562-14.242 9.0117-19.836 12.516 3.3242-3.8984 7.4648-8.6172 12.371-14.137 7.2734-8.2812 19.715-22.895 28.812-33.707 11.316-13.477 14.496-16.922 14.965-17.305 1.6562-0.82813 2.6641-2.6992 2.7109-4.9922 0.035156-1.9336-0.69531-4.6094-2.8203-5.7734-2.5078-1.4648-3.2656-1.9453-33.91 32.785-13.355 15.133-32.184 36.984-41.281 48.742-8.8789 11.438-12.227 14.426-25.57 22.871-8.4492 5.3867-23.461 15.191-34.598 22.512l-24.863 16.285c2.6641-3.9258 6.2539-9.0859 10.586-15.301l2.0039-2.8906c9.5273-13.754 24.852-36.133 33.996-49.766 15.277-22.848 57.422-83.438 62.629-90.254 1.0195-0.99609 11.281-6.7695 27.852-15.059 0.26562-0.13281 27-13.309 28.801-15.109 1.5352-1.5469 1.3906-3.2031 1.2617-3.8281-0.21484-1.0781-0.98438-2.5781-3.5625-3.6016-2.5625-0.80078-13.328 3.3398-61.809 26.742-30.133 14.555-64.992 31.078-76.129 36.086l-4.2734 1.957 2.2695-2.3047c7.7656-7.7656 12.625-12.156 13.871-13.043 5.2305-1.332 29.484-13.066 43.668-20.039 42.023-20.711 42.023-21.793 42.023-23.965 0-2.3164-1.1289-3.4922-2.0508-4.0547-3.5156-2.207-8.6758-0.16797-42.371 16.68l-20.867 10.391 15.469-15.551c27.48-27.66 29.941-30.887 26.293-34.512-2.375-2.3633-4.5469-1.3672-12.289 5.5547-8.125 7.2734-23.363 22.141-56.195 54.875-20.723 20.723-38.258 38.027-49.465 48.961 3.6953-6.0703 8.1953-13.246 12.613-19.945 5.5078-8.3633 29.258-42.516 65.137-93.719 10.02-14.363 11.137-18.805 9.6836-21.613-0.33594-0.67188-1.4141-2.2305-3.875-2.2305-1.6328 0-2.8086 0-18.539 22.246-7.5 10.969-22.488 32.762-33.035 47.879-20.195 29.039-32.867 48.07-54.227 81.504-10.703 16.871-15.047 22.262-24.504 30.371-12.672 10.754-34.262 22.414-44.543 24.086l3.4922-4.9219c4.1172-5.7969 13.754-19.105 21.227-29.328 7.6562-10.414 25.715-35.039 39.938-54.625l21.758-29.652c6.707-9.1328 12.371-16.871 15.445-21 0.51562-0.70703 51.613-70.824 51.973-75.383 0.23828-2.5938-0.91016-4.7383-3.0234-5.5938-2.4727-0.99609-5.4727 0.12109-7.5703 2.7344-1.4531 1.6328-7.7539 10.547-17.941 24.973l-1.4883 2.1016c-9.2148 13.043-21.816 30.91-28.633 40.152-6.6133 9.0117-19.391 27.035-28.945 40.559-8.7461 12.191-25.969 35.82-38.52 52.738-20.375 27.203-65.594 88.727-90.73 126.65l-14.891 15.613c39.613-54.73 101.39-146.63 144.2-213.05 9.7188-15.254 27.805-42.805 40.355-61.766l10.105-15.18c18.59-27.91 18.59-27.91 14.773-30.828-2.4258-2.3984-5.4258-2.1133-8.9414 0.88672-2.8789 2.4102-28.68 42.336-41.914 63.109-33.445 52.5-60.516 93.91-73.57 113.17 3.5508-12.371 9.5742-32.09 17.461-57.109 6.5742-21.109 15.457-49.559 19.906-63.504 6.6719-21.672 8.3984-25.598 15.434-35.016 4.2617-5.6055 15.781-21.422 26.207-36.023 9.9258-13.895 19.715-27.191 21.445-29.34 2.6172-3.1094 5.4102-7.5352 3.8164-10.969-0.37109-0.80469-1.5703-2.6875-4.5859-2.6875-3.9258 0-3.9258 0-61.633 80.027-26.316 36.422-62.531 85.391-79.727 108.13 4.2969-13.117 10.738-32.578 16.906-51.266 8.8672-26.746 53.09-160.31 53.09-164.2 0-2.7109-2.2578-4.8359-5.1367-4.8359-4.6211 0-4.7031 0-42.938 117.59l-10.766 32.977c-0.53906-6.1445-1.1758-15.422-1.5977-22.992-1.6445-37.344-5.4961-101.14-6.3477-105.01-0.78125-3.6133-4.1523-6.2383-7.043-5.7227-2.4375 0.25391-4.0664 2.207-4.0664 4.8359 0 1.0664 0.74219 12.168 2.3047 35.074 2.4492 36.492 5.1953 94.488 5.6406 114.59l0.023438 1.8359c0.16797 10.754 0.16797 10.754-17.641 66.719l-3.2031 10.043c-3.0859 9.5391-7.1641 22.848-9.5039 31.02-0.70703-9.2656-1.9062-26.125-2.8672-43.285-1.3672-21.926-3.5039-47.398-4.7539-56.809-1.1875-9.0586-3.6016-33.73-5.4961-56.172l-3.3359-38.891 3.1211-15.301c1.6211-7.5586 6.8516-31.609 11.629-52.922 8.6523-38.652 7.9922-39.742 7.2852-40.906-1.3438-2.2305-3.3359-2.8438-4.6094-2.6641-2.3516 0.13281-4.4531 1.957-5.9297 5.2188-1.9219 4.7266-9.793 39.66-21.59 95.832-6.8398 32.605-45.539 189.8-58.262 241.46-2.3984 9.7578-3.8633 15.684-3.9102 15.973l-3.4688 8.6172c27.18-113.4 36.035-155.15 38.629-170.03 2.7227-14.988 8.8672-47.746 13.766-71.867 16.117-80.855 16.117-84.562 16.117-85.957 0-3.4336-2.1953-5.2188-4.3789-5.4727-2.6406-0.28906-5.9531 1.668-6.8867 5.5547-0.60156 2.5664-5.0391 25.859-6.9102 35.746-1.4023 6.9961-3.1797 16.066-5.0742 25.703l-0.55078 2.8438c-2.7109 13.789-5.5938 28.414-7.8242 39.527l-5.1016 24.961-4.5703-13.812c-4.2344-12.852-12.887-37.273-19.309-54.434l-2.7227-7.2461c-13.535-36.098-13.535-36.098-10.355-44.074l0.82812-2.125c3.6602-9.8398 4.7383-13.066 3.0469-15.516-1.2852-1.8242-3.4688-1.8242-4.1758-1.8242-2.1719 0-4.5469 1.2344-9.8516 16.066-7.5 21.07-19.824 53.52-26.352 69.602 0.39453-12.926 0.76953-33.625 0.96094-53.113 0.34766-57.359-0.035157-61.512-3.0352-64.234-1.8633-1.4336-3.5195-1.8672-5.0195-1.3047-1.1406 0.43359-1.9453 1.3789-2.1836 2.6055-0.14453 0.73047-0.25391 4.6328-0.51562 52.441-0.42188 74.652-4.5469 112.19-13.859 123.52-2.4492-12.504-15.984-86.293-16.895-92.496-0.46875-3.9258-2.3398-14.293-3.9961-22.801-0.63672-3.6602-1.2461-7.0781-1.7539-9.8516-0.5625-3.1914-1.0664-5.9414-1.1055-6.1562 0-2.2578-1.9805-3.6133-5.293-3.6133s-5.293 1.3438-5.293 3.6133c0 2.7734 17.016 99.109 22.848 129.98 2.7969 15.098 20.508 105.32 32.449 166.11l-5.1484-20.594c-8.0898-43.285-18.434-96.672-38.891-182.7-6.1211-26.184-13.008-55.402-15.301-65.074-5.5195-24.492-5.6758-25.199-10.273-25.199h-0.14453c-1.5859-0.22656-3.1445 0.40625-4.1172 1.6328-2.0508 2.6406-1.5586 5.5547 5.8203 34.68 8.1016 32.09 9.3477 37.02 27.359 119.26 6.2148 27.602 10.609 49.402 12.023 57.637-1.9688-0.97266-4.9062-2.8438-8.5078-6.0859-11.496-10.031-24.719-32.688-41.594-71.305l-6.2773-14.449 4.9805-54.938c2.9141-32.449 5.2188-56.531 5.3633-57.793 0-2.3164-1.1406-4.332-2.8906-5.207-1.1055-0.63672-2.3867-0.67188-3.5156-0.10938-3 1.5586-3.793 3.6602-8.5938 54.445-1.6914 18.227-3.3242 33.742-4.2734 41.641-2.8789-6.1094-7.4883-16.945-13.332-30.684l-6.875-16.379c-7.5-17.891-15.266-36.406-18.562-44.652-8.4961-21.48-11.039-21.48-12.73-21.48-1.3555 0-2.5547 0.52734-3.3594 1.4766-1.5352 1.8125-1.2461 4.4766-0.81641 7.0547 0.63672 3.8164 7.9922 21.469 12.77 32.41 6.5742 14.676 15.215 34.801 19.246 44.891l7.2227 17.676-3.1445 33.707c-1.7031 19.285-4.0195 41.879-4.8828 49.777l-0.39453 3.2656-2.3984-6.2656c-18.109-47.426-50.41-126.25-54.492-130.15-2.0508-2.1484-3.9375-2.6523-5.6055-1.5469-2.7969 1.8242-3.7422 2.4492 10.465 37.043 11.867 28.812 32.902 81.562 41.531 103.87-9.7422-8.7617-27.012-24.758-42.816-40.008l-13.309-12.742-0.28906-38.52c-0.43359-41.652-1.3203-42.035-4.6211-43.414l-1.6094-0.27734-1.1172 0.82812c-2.1953 1.6328-2.9414 2.1953-2.9414 58.5 0 22.379-0.28906 39.121-0.64844 48.406l-9.8398-23.027c-21.023-49.176-27.371-64.008-31.008-73.297-5.6172-14.039-8.0625-18.098-11.375-18.828-0.85156-0.20312-2.5312-0.28906-4.2344 1.2969-2.4492 2.4375-3.5508 3.5391 30.887 83.629 7.1172 16.5 12.707 29.746 13.332 31.43 0.35938 0.80469 1.4766 3.5039 4.8242 12.539 0.023437 0.070312 0.058594 0.14453 0.085937 0.21484-1.8711-1.5-4.1289-3.3711-6.6719-5.4727l-0.35938-0.30078c-6.1797-4.9805-20.941-16.164-32.242-24.422-28.691-20.879-31.824-23.617-41.93-36.59-10.645-13.871-14.352-17.52-18.012-17.746-1.4297 0.035156-2.8555 0.49219-3.9258 1.5469-3.4062 3.4062 0.32422 8.3633 6.8633 16.117 14.605 17.473 61.441 77.113 92.785 118.16 17.605 23.039 39.469 51.086 48.695 62.785 7.1523 8.9531 41.844 53.594 69.562 89.461-4.1875-4.8945-8.5664-10.02-13.055-15.277-46.586-54.504-110.39-129.14-125.24-145.39-7.5-8.207-26.16-29.387-41.711-47.82-28.117-32.711-29.387-32.711-30.73-32.711-1.3203 0-3.2539 0.71875-4.2734 1.957-4.3672 4.1523-1.4766 7.4141 14.555 25.488l6.457 7.4883c7.0938 8.2188 14.426 16.715 18.145 21.254 4.8359 5.7461 15.516 17.797 23.809 26.879 26.711 28.824 66.434 75.73 99 116.9 6.7578 8.5078 13.164 16.586 14.375 18.816-4.6328 2.5781-14.664 1.5234-27.602-2.9023-17.113-5.7461-45.949-21.371-50.594-27.422-1.957-2.5547-8.375-10.332-14.617-17.699-6.0586-7.3438-18.863-23.207-28.246-35.113-18.742-24.023-33.145-41.258-73.391-87.805-14.762-17.027-26.785-31.262-28.402-33.445-3.0352-3.6836-5.543-5.3398-8.125-5.125-1.2344 0.097656-2.9883 0.70703-4.3672 3.0977-0.91016 1.8242-1.6914 3.3945 24.445 33.59 31.98 36.602 50.652 58.957 76.871 92.004 10.969 13.848 24.707 30.949 29.746 36.805l0.875 1.0312c0.79297 0.92578 1.5352 1.8125 2.2578 2.6523l-3.5898-1.9922c-25.465-14.113-25.465-14.113-45.492-38.398l-4.7148-5.7227c-61.223-73.703-65.555-73.703-67.188-73.703l-0.61328 0.12891c-2.0898 0.70703-3.7305 2.8906-3.7305 4.9805 0 4.6211 29.809 37.309 33.203 41.016 5.5781 6.2383 17.387 19.934 25.801 29.914l9.2031 10.906c-11.773-6.8984-31.465-18.816-58.766-35.594-25.453-15.348-27.695-14.914-28.871-14.773-4.2852 0.79297-5.0742 3.3945-5.2188 4.4766-0.21484 1.5586 0.22656 4.5586 5.5664 7.1641 2.4492 1.1406 29.867 17.281 62.914 37.176l58.176 34.945 20.34 23.965c22.871 26.785 50.832 60.875 61.836 74.785-9.0234-2.6406-25.859-7.9805-50.219-15.949-16.031-5.1602-36.301-11.605-41.734-13.031-7.6562-2.1016-7.8594-2.832-8.2812-4.3789-1.7383-7.3555-22.727-25.922-37.105-36.77-8.4961-6.1797-17.891-14.988-23.953-22.441-5.4492-6.5039-20.746-22.922-34.117-36.59-20.449-20.93-23.988-23.723-27.191-23.723-1.2227-0.19141-2.2422 0.44531-2.8086 1.1055-0.82813 0.74219-1.2969 1.7656-1.332 2.9141-0.085937 3.2031 2.0742 6.2383 22.176 26.652 4.7266 4.7891 9.8516 10.02 14.508 14.82-8.1367-5.2578-17.074-11.184-21.758-14.281l-0.58984-0.38281c-46.188-30.695-47.711-30.023-48.91-29.594-2.8438 0.88672-3.6484 2.5781-3.8281 3.8398-0.49219 3.5156 2.0625 6.3008 19.922 17.902 38.34 24.84 60.898 40.129 100.59 68.184 11.965 8.3867 23.328 19.008 28.586 25.129-18.73-5.5312-75.156-23.953-109.26-35.93l-1.6562-0.57422c-57.168-20.051-57.191-20.074-60.203-17.062-1.0078 1.0078-1.5703 2.2695-1.5703 3.5625 0 1.2969 0.55078 2.5664 1.5703 3.5742 2.8203 2.8203 91.523 32.965 118.07 41.734 13.848 4.5703 54.086 17.09 100.68 31.57 57.289 17.82 121.36 37.754 160.04 50.23l-2.8555-0.3125c-3.4062-1.0312-340.09-103.97-345.11-105.93-2.2422-0.9375-4.5352-0.33594-5.8789 0.67187l-0.33203 0.26953c-2.0039 2.0039-1.8594 3.9844-1.6094 4.9805 1.1289 4.3906 7.1055 7.3789 42.227 17.461 55.598 15.793 79.57 23.219 145.41 44.34 10.512 3.3477 36.949 11.594 58.945 18.371 21.422 6.6016 53.664 16.68 71.879 22.477 85.031 27.191 94.152 40.512 94.117 44.988-0.023437 2.9883-4.9805 6.2031-13.609 8.8086-8.9648 2.7461-43.598 7.5-66.156 9.0469-7.0195 0.42188-13.391 0.73047-14.258 0.13281-1.6914-5.4961-13.824-13.285-24.098-17.363-8.5938-3.3711-35.496-11.473-58.633-17.258-7.3789-1.9336-14.004-4.4023-15.562-5.5195-7.1523-5.0273-80.641-46.5-122.84-69.336-14.844-8.0039-87.504-46.922-97.598-46.922-0.28906 0-0.52734 0.035156-0.71875 0.097656-3.3945 1.3555-3.8984 3.5391-3.8984 4.7266 0.011719 3.6602 4.4648 5.8789 8.3281 7.4141 10.883 4.3906 54.121 26.09 82.621 41.473 6.9961 3.8047 15.602 8.4727 24.086 13.055 9.9102 5.3516 19.645 10.621 26.426 14.328 21.984 11.832 42.684 23.566 55.344 31.094-28.309-5.3516-90.266-16.871-139.59-25.703-62.125-11.281-64.68-10.262-65.473-9.9258-2.6289 0.97266-3.8633 2.4727-3.6836 4.4414 0.37109 4.0781 2.7969 5.5547 59.137 15.395 18.719 3.2383 30.254 5.4492 37.246 6.8867-1.6094 0.27734-3.2656 0.55078-4.9219 0.81641-7.6914 1.2344-29.09 5.3633-47.699 9.2031l-32.762 6.5898-20.508-6.5039c-23.125-7.3555-24.445-6.0234-25.836-4.6094-1.7656 1.7539-1.8125 3.4336-1.5352 4.5234 0.80469 3.2891 4.7148 4.9453 18.695 9.3359 7.6211 2.3398 32.723 10.453 56.543 18.336 17.652 5.8438 35.664 11.641 46.332 14.988l-48.742-0.3125c-67.379-0.49219-69.516-0.28906-71.977 2.1367-0.73047 0.73047-1.1172 1.668-1.1172 2.6992 0 5.4492 6.2266 5.4492 9.5742 5.4492 2.7227 0 14.941 0.19141 29.016 0.40625l12.551 0.19141c22.715 0.38281 64.801 0.78125 113.53 1.2461 79.164 0.75781 168.85 1.5977 213.88 2.7227 0.5625 0.37109 1.0781 0.70703 1.5586 1.0078-35.891 0.17969-234.84 1.1875-286.56 1.7383-50.797 0.45703-53.398 0.61328-55.645 3.3125-0.76953 0.9375-1.0547 2.125-0.82812 3.4453 0.96094 5.1133 1.9453 5.1016 52.859 4.4414 16.379-0.19141 30.395-0.15625 39.238 0-15.828 8.1367-50.746 24.191-65.484 29.352-20.844 7.0312-20.844 9.2773-20.844 11.258 0 1.8359 0.625 3.2031 1.8594 4.0547 2.6758 1.8125 5.8203 1.0078 25.883-6.6016 27.012-10.066 66.254-28.332 73.656-34.273l4.9922-3.9492h20.23c12.035 0 33.492 0.49219 46.871 1.0664l17.82 0.63672c-18.66 15.133-38.449 26.531-110.14 63.781-65.879 34.273-65.879 35.773-65.879 38.762 0 1.2969 0.57422 2.4961 1.5703 3.2656 1.8711 1.4141 4.7031 1.2852 11.281-0.50391 1.3086-0.30078 14.125-2.1367 137.98-8.4961 2.7617-0.16797 5.4961-0.30078 7.9922-0.38281-4.9922 3.3008-12.047 7.9219-19.906 12.949l-26.219 17.125-34.211 0.88672c-54.84 1.6562-61.008 2.5781-63.539 5.7734-0.75781 0.94922-1.043 2.1367-0.80469 3.3125 1.1875 5.9023 4.1523 5.7344 53.449 2.7109 12.023-0.71875 21.996-1.1641 28.246-1.3555-5.6406 4.2227-17.113 12.289-40.199 27.684-49.848 33.434-50.387 35.594-50.641 36.602-0.78125 2.9414 0.69531 4.3555 1.3672 4.8242 0.69531 0.49219 1.4648 0.73047 2.3633 0.73047 3.7695 0 11.484-4.1875 49.5-30.145 82.199-55.922 248.68-166.5 250.07-167.47 0.63672-0.25391 1.668-0.50391 2.832-0.76953-37.477 25.5-242.4 165.04-256.55 174.56-9.8516 6.4922-13.129 9.2031-13.055 12.539 0.023437 1.1641 0.51562 2.832 2.6523 4.0938 2.0391 1.3438 2.7734 1.7773 41.352-24.266 23.461-15.828 51.59-35.375 75.266-52.297l6.8164-4.8828c31.859-22.824 31.859-22.824 47.977-23.988l3.6836-0.26562c22.547-1.8594 53.891-3.0234 67.309-3.0234h1.6445c-5.0742 6.4219-16.883 20.398-34.43 40.273l-13.234 14.977-8.3516 0.39453c-11.941 0.48047-21.863 4.5-40.824 16.523-10.703 6.8398-14.195 8.1719-33.949 12.938-11.93 2.7461-30.324 7.2969-41.219 10.105-10.105 2.6055-25.871 6.7305-35.258 9.2031-30.504 7.9062-30.504 7.9062-30.504 12.516 0 3.8984 1.9453 5.293 3.7578 5.293 1.2852 0 33.637-8.5664 33.961-8.6523 24.023-6.2539 47.039-11.941 61.5-15.348-1.1641 0.73047-2.4375 1.5117-3.8281 2.375-8.1719 4.9336-28.906 18.086-48.973 30.805l-11.062 7.0195c-44.148 28.211-45.469 30.84-44.387 34.547 0.3125 1.043 1.3203 2.8086 4.6914 2.8086 2.0391 0 15.406-7.9336 39.719-23.578l23.879-15.383c3.0703-1.9805 5.8906-3.793 8.3281-5.3633-3.7422 4.2344-8.2578 9.4219-12.84 14.746-17.34 20.172-19.391 23.93-17.891 27.203 0.40625 0.88672 1.5 2.375 4.2461 2.375 1.5977 0 2.5547 0 23.258-24.48 30.406-36.023 35.93-41.016 65.688-59.363 24.816-15.406 39.059-22.691 49.402-25.141-11.16 12.742-69.324 74.352-94.895 100.22-25.297 25.871-26.965 28.598-24.973 32.27 0.58984 1.1055 1.6211 1.8359 2.832 2.0039 3.0117 0.48047 5.9414-1.6211 25.5-21.504 30.562-30.887 97.43-101.8 114.71-121.31 2.9141-3.3125 5.8203-6.5898 8.4258-9.5156-1.1289 2.5195-2.4258 5.3867-3.9102 8.5938-2.4609 5.375-5.4375 11.855-8.5078 18.516l-2.5664 5.6172c-4.2969 9.3477-8.543 18.59-11.578 25.297l-10.285 22.98-27.059 24.059c-0.94922 0.83984-95.102 85.992-95.102 90.828 0 3.0469 1.6445 4.1875 2.6172 4.5859 3.2383 1.3672 7.1406-0.55078 22.043-15.145 24.203-23.461 66.516-62.09 84.984-78-1.2109 2.6172-2.5938 5.5312-4.0781 8.6289-39.77 84.098-39.77 84.758-39.77 86.195 0 2.3281 2.2422 4.2227 4.9922 4.2227 2.8555 0 4.4297 0 48.301-93.539l9.9727-21.562 17.688-14.555c10.188-8.4727 24.371-19.453 31.621-24.504 9.5898-6.7422 22.188-13.934 29.461-17.543-10.262 19.129-44.762 77.062-66.277 110.47-10.922 16.859-45.156 73.223-45.156 78.133 0 3.6367 2.4844 4.5 3.2539 4.6797 3.7422 0.80469 7.9805-3.7812 10.211-8.3516 1.8477-3.5508 19.883-33.059 39.504-64.367 34.273-55.129 57.18-95.555 81.434-138.37l7.4023-13.055c5.6758-9.9961 37.98-60.695 60.66-96.156-2.8438 5.2578-5.3047 9.6836-6.7578 11.953-9.6016 14.832-55.656 90.348-66.203 109.61-9.457 17.426-24.121 43.754-32.711 58.691-17.652 30.84-36.422 65.941-52.848 98.82-6.3125 12.48-15.602 29.855-20.281 37.969-11.09 19.367-23.496 43.285-19.621 47.148 1.2617 1.3203 2.5938 1.9062 4.0195 1.6445 3-0.42188 4.7539-2.9766 12.457-18.238 34.297-66.695 63.551-122.36 72.516-138.06 1.0938 5.4102 2.3867 15.77 2.9023 30.457l0.73047 20.438-12.266 17.676c-45.625 64.367-43.332 66.672-40.945 69.086 0.48047 0.51562 1.5117 1.5117 3.3477 1.5117 2.8438-0.22656 2.8438-0.22656 21.828-28.598l4.9336-7.3906c9.3711-13.934 17.375-25.715 21.301-31.402v11.207l-20.281 29.52c-22.285 32.449-21.215 33.504-19.031 35.676 0.44531 0.44531 1.8125 1.7773 3.8164 1.5234 3.5508-0.35938 5.8203-3.5742 22.488-28.668 4.2344-6.457 7.9688-11.902 10.738-15.84-0.68359 10.355-2.1836 28.008-3.8164 41.832-1.5977 13.105 0.30078 15.863 2.5664 16.883 0.85156 0.40625 3.0703 1.043 5.3047-1.4414 2.1602-1.9219 2.6992-4.043 6.8047-59.867l0.875-12.828 21-32.398c11.699-18.086 31.008-46.234 43.055-62.746 11.785-16.379 26.93-37.5 33.516-46.691 3.457-4.8945 6.6016-9.2539 8.9414-12.434 0.070313 4.8945 0 13.414-0.45703 28.223l-0.89844 36.648-13.777 21.758c-6.1211 9.8164-15.07 24.215-22.055 35.723-9.0117 14.711-21.359 34.668-27.516 44.34-0.37109 0.58984-37.5 59.879-37.5 63.719 0 1.5586 0.99609 3.2891 2.8438 4.7148 1.5117 0.89844 3.0117 0.46875 4.957-1.5117 2.4492-2.4727 6.0117-7.668 10.934-15.898 5.6875-9.5273 12.793-21 15.828-25.57 3.0977-4.6445 16.297-26.09 28.691-46.789 13.512-22.465 27.434-45.109 32.363-52.668l3.3945-5.125-0.3125 4.6562c-0.89844 14.016-1.2461 15.492-4.5859 19.777-5.7227 7.4648-23.461 36.898-46.285 76.848-10.176 17.914-20.531 35.617-23.004 39.48-4.0312 6.2539-4.9062 9.7578-3.0117 12.098 0.89844 1.0938 2.6641 2.1602 5.9766 0.89844 0.98438-0.37109 3.0234-1.1523 20.062-31.5 12.215-21.984 37.188-64.715 47.879-82.262-0.89844 19.453-5.9297 71.711-14.004 152.29-0.79297 8.3164-0.20312 11.809 2.2422 13.32 1.0078 0.68359 2.207 1.0547 3.3477 1.0547 0.99609 0 1.9453-0.28906 2.9766-1.0664 3.5039-3.8398 18.91-190.66 19.906-208.7 0.27734-4.668 0.74219-12.254 1.2344-18.48 2.3164 5.9766 5.7734 14.762 10.586 26.902l0.73047 1.8359c22.441 56.797 22.441 56.797 20.305 63.828-3.9375 13.188-19.105 93.238-19.105 100.77 0 4.9062 2.6992 5.6992 3.8398 5.8086 3.5742 0.38281 6.0703-3.8984 6.9609-8.2695 0.75781-2.9023 3.2891-17.09 6.7812-36.793 7.332-41.473 14.281-69.59 20.125-81.445l0.25391 13.668c0.3125 14.316-0.33594 45.254-1.0664 67.906-1.5469 42.574-0.99609 46.273 2.7617 47.93 1.7539 0.78125 3.5625 0.21484 5.4102-1.6445 4.3438-4.3438 5.2695-211.01 4.7031-331.84l5.8203 95.879c0.12109 14.52 0.67188 27.828 1.8125 43.117 1.4023 20.363 2.7461 64.691 3.3594 110.32 0.39453 35.305 1.1406 77.855 2.4844 80.23 1.4297 2.1484 4.1172 3.168 7.1523 1.5469 1.5703-1.1172 2.9414-2.0898 2.9414-31.199l0.015626-26.914 41.508-81.383 0.40625 5.125c0.67188 9.8516 1.7266 49.008 2.2812 71.461 1.1172 58.777 1.3203 58.777 6.3594 58.777 0.52734 0 1.9453 0 3.1094-1.1992 2.6406-2.6992 2.6406-2.6992 0.80469-104.38-0.78125-42.574-0.92578-74.484 0.78125-89.293 10.332 27.898 42.312 120.88 56.258 165.24 4.1289 12.973 6.0117 16.523 9.1562 17.293 0.91016 0.25391 2.6758 0.34766 4.3789-1.4023 1.5859-1.5703 2.7344-2.7109-33.086-110.63-21.742-65.449-56.785-161.87-81.324-227.1l20.293 46.32c9.8164 30.77 24.109 70.273 40.246 111.23 5.3516 13.547 15.758 41.988 23.207 63.383 17.953 51.938 23.762 67.535 32.688 87.91 4.3906 9.7305 7.8945 18.551 8.2578 19.957 1.0078 3.4336 3.8164 4.9688 6.1562 4.9688 0.25391 0 0.50391-0.011719 0.78125-0.046875 2.7461-0.39453 4.5977-2.6992 4.5977-5.7461 0-3.4336-9.9375-26.496-10.031-26.723-5.0391-11.832-15.828-40.586-24.539-65.438-6.9844-20.281-13.598-39.012-16.129-45.742 3.9844 2.2695 9.5742 5.5312 16.055 9.3594 8.1836 4.8125 19.738 11.508 29.844 17.375l12.59 7.2852c11.52 6.5391 32.496 19.008 46.738 27.793l25.691 15.539 11.102 18.047c6.3711 10.402 12.527 20.953 13.789 23.328 1.5234 3.0586 3.9609 6.7188 6.8047 6.7188 2.8906 0 4.1523-1.7773 4.5586-2.543 1.6328-3.0586 0.046875-8.1133-4.8477-15.469-3.1445-4.5703-11.891-18.742-20.855-33.359l-14.449-24.121-1.5-47.09c-0.73047-25.164-1.3906-55.812-1.0664-66.406l0.26562-10.727 22.512 26.293v47.543c0 86.172 2.543 88.055 4.7383 89.664l1.5586 0.89844 1.4141-0.53906c2.9141-1.1055 3.6133-1.3672 3.168-59.125-0.15625-30.793 0.17969-59.148 0.73047-63.168l0.19141-1.2461 17.484 21.047c43.055 52.176 46.645 53.82 50.578 52.414 0.78125-0.27734 2.6055-1.2617 2.6055-4.2969 0-0.74219 0-2.9883-14.184-19.246-7.4414-8.6758-22.789-27.18-33.457-40.176-10.754-13.152-26.617-32.125-34.789-41.375-1.8477-2.1367-3.5391-4.1172-5.0625-5.9023 12.133 6.4688 42.168 21.238 87.793 43.152 27.07 12.996 27.07 12.996 48.07 39.254 7.7031 9.5898 10.586 10.922 13.246 10.02 0.79297-0.27734 2.6523-1.2734 2.6523-4.4023 0-3.6602-40.691-51.707-60.742-75.18 4.5703 2.4258 9.9727 5.3398 15.469 8.3398 67.055 36.48 69.18 36.48 71.039 36.48 3.3477 0 4.4414-1.5586 4.7656-2.8789 0.75781-3.1094-0.070313-5.2188-26.93-19.297l-3.2539-1.7148c-14.039-7.4414-35.27-18.66-49.801-26.566l-28.332-15.289-9.2383-12.48c-16.129-21.73-25.598-37.262-28.176-46.188l2.2578 1.3203c59.543 33.574 118.91 67.812 135.12 77.953 20.242 12.828 23.172 13.801 26.113 12.18 1.0078-0.55078 2.207-1.7539 2.207-4.3086 0-8.0508-150.73-90.984-152.26-91.812-44.496-24.516-59.219-32.074-104.98-53.941-27.023-12.926-99.887-59.242-136.44-82.766 45.215 22.246 143.23 70.441 166.01 81.145 66.527 31.344 109.95 54.336 178.62 94.57 17.23 10.02 26.891 15.098 28.754 15.098 3.4336 0 4.5703-1.5703 4.9336-2.8906 0.96094-3.5391-1.4023-6.3711-31.727-24.121-71.148-41.473-88.668-50.438-177.98-93.742-18.695-9.1797-43.859-21.719-57.91-29.027l-22.621-11.82 0.75781-0.625c6.4453-5.1836 16.727-7.6094 32.34-7.6094 8.6641 0.16797 16.848 1.1523 19.066 1.9688 2.207 0.81641 15.574 8.6641 31.5 19.117l0.79297 0.52734c78.457 51.742 99.539 65.652 148.98 98.605l2.3867 1.5977c25.727 17.148 52.332 34.883 53.762 36.035 2.6406 1.7656 5.6875 1.3672 7.6562-0.875 0.91016-0.82812 2.125-2.1602 2.0391-4.0547-0.10938-2.1133-1.7148-3.4922-3.3711-4.7266-6.3945-4.6094-177.35-117.76-201.01-133.04-4.5703-2.9531-8.8672-5.8203-12.48-8.3164 3.8633 0.82812 8.2578 1.8242 12.625 2.8906l22.402 5.0625 75.742 51.254c20.688 13.922 41.102 27.73 57.504 38.809l8.1367 5.5078c12.828 8.6875 22.199 15.023 25.691 17.34 12.926 8.7461 17.398 10.969 20.316 8.0508 1.8594-1.8711 2.4258-4.8477 1.3203-6.6719-0.50391-1.0195-0.98438-2.0039-85.332-58.223-29.723-19.715-55.402-37.008-69.742-46.754 37.043 10.066 134.47 38.773 191.55 56.844 13.523 4.3555 16.715 5.3867 19.262 3.5625 1.8008-1.3086 1.8008-3.4453 1.8008-4.5859 0-4.2109-2.3281-5.5078-37.633-16.02-18.383-5.4609-44.855-13.633-57.59-17.566l-3.9961-1.2344c-14.004-4.5117-35.891-11.305-48.266-14.855l-21.758-6.4688-44.762-29.594c-16.211-10.715-32.746-21.539-44.004-28.922l-12.602-8.2578c-6.2891-4.1289-18.684-12.254-27.434-17.93-1.8125-1.1641-3.5508-2.3047-5.1602-3.3828 8.4297 1.3594 21.785 3.4492 37.77 6.0391l45.422 7.1992 6.5156 6.3828c9.6602 9.3359 39.312 26.914 81.359 48.254 9.2656 4.6914 93.289 45.973 101.98 45.973 0.55078 0 0.99609-0.12109 1.2461-0.30078 2.7969-1.6211 2.9531-4.043 2.8789-5.0039-0.20312-2.8203-2.7109-5.4727-6.6836-7.043-1.5977-0.70703-8.3047-3.6719-17.449-7.7031l-22.789-10.043c-25.234-11.258-43.055-19.969-53.305-25.391 2.7852 0.43359 5.7734 0.91016 8.7617 1.4141 8.2422 1.3672 96.469 13.43 100.38 9.8633 1.1875-1.1875 1.5859-2.6992 1.0938-4.1406-1.1289-3.2539-4.3086-4.7383-35.578-8.6055-14.93-1.8594-44.891-5.9766-66.805-9.168l-39.516-5.7344-19.094-10.883c-10.188-5.8438-18.156-11.148-22.957-14.785 3.875 0.55078 8.9141 1.3086 14.16 2.1367 10.992 1.5859 31.523 4.4883 45.504 6.1328 19.441 2.2812 84.121 11.363 91.441 12.395 67.008 9.3477 67.645 8.7969 68.914 7.5703 1.3711-1.3906 1.6211-3.6602 0.69922-6.1211zm-478.21 282.6c-1.7773 7.2617-6.9375 18.215-23.449 51.109l-17.387 34.68c1.3438-6.1445 6.168-16.309 22.754-50.051 7.7266-15.578 13.934-27.758 18.082-35.738zm6-48.301c-1.5586 3.6602-3.1211 10.488-3.7305 15-0.73047 5.6406-4.0781 13.57-12.383 29.281-6.707 12.781-17.004 33.266-22.848 46.02-3.5898 7.6328-7.0938 14.977-9.6016 20.125-0.3125-5.8672-0.53906-14.207-0.75781-22.465-0.57422-17.988-2.1016-50.16-3.5273-70.789-1.9805-30.445-2.1016-42.504-0.75781-75.863 1.6445-38.664 4.5234-61.727 6.3242-67.523 0.86328 0.96094 2.3867 2.9766 4.8008 7.1406 5.2305 8.5547 25.297 59.027 37.668 94.754 6.7227 19.27 6.7344 19.305 4.8125 24.32zm150.07-413.29c0.16797-0.25391 0.33594-0.51562 0.50391-0.78125 4.2969-6.2773 22.152-34.105 36.938-57.312 16.789-26.375 39-60.012 49.211-74.879l2.9141-4.2461c9.6836-14.113 18.047-26.305 19.465-28.547 1.6328-2.4961 6.8398-5.8555 15.469-9.9609l0.085938-0.035156c1.4531-0.69531 2.8555-1.3672 4.1758-2.0039-12.168 16.645-35.074 49.824-62.809 90.996-22.117 32.652-43.98 64.906-47.195 69.359-3.1562 4.1836-11.859 11.926-18.758 17.41zm-110.86-6.793c21.613-32.41 31.477-47.207 33.492-47.41 5.9883 1.5469 23.125-4.8125 33.191-10.043 13.285-6.9492 28.488-19.738 58.078-48.875 15.828-15.672 24.719-23.387 28.836-25.043 6.9258-2.7344 39.434-17.484 49.957-22.691-0.9375 1.3203-1.9922 2.7969-3.1328 4.3555-7.5703 10.246-83.039 124.66-104.16 157.61-6.4336 10.129-15.191 22.344-19.98 27.852-8.2812 10.02-11.09 15.613-13.02 25.98-0.875 2.0039-16.992 6.9961-47.797 16.367-40.535 12.324-58.766 15.266-62.93 10.141-0.26172-0.33203-5.8633-8.8047 47.465-88.242zm-69.492 140.11c1.2969-3.6484 6.7578-6.3594 15.781-7.8477 11.617-1.957 26.566-1.9453 45.719 0.023437 42.359 4.3555 90.707 12.07 94.738 14.074 6.2266 3.1211 87.469 57.277 118.5 78.863-2.4961-0.66016-5.4375-1.4648-8.7969-2.4258-21.492-5.9648-29.977-8.0039-60.457-14.566-23.258-5.0273-42.492-7.5703-57.18-7.5703-7.3672 0-13.703 0.64844-18.805 1.9219-5.2188 1.2227-12.457 4.9688-16.477 7.9219-4.7266 3.7422-5.7852 3.7578-6.0117 3.707-1.2461-0.69531-16.645-9-39.227-21.145-44.484-23.699-53.641-29.387-61.262-38.039-5.5039-6.3008-7.7617-11.449-6.5234-14.918zm-17.426 47.066c0.91016-1.6094 0.89844-1.6211 5.5547-0.875 3.3711 0.42188 9.0469 2.1953 12.145 3.8164 3.4922 1.8242 18.445 11.508 31.379 20.328 13.234 8.8672 32.688 21.504 42.684 27.469l15.852 9.4336 1.4141 6.6953c3.2266 14.664 13.211 28.656 48.562 68.051 11.004 12.422 26.617 30.121 35.305 40.5l15.383 18.023 1.6445 57.84c0.79297 27.781 1.7031 53.902 2.1367 63.324-3.0234-4.5-7.5117-11.426-13.738-21.023l-8.2812-12.793c-12.996-20.184-30.047-45.625-38.016-56.723-36.602-50.965-72.203-80.426-100.23-82.945l-8.0039-0.74219-20.641-61.633c-23.203-69.387-24.93-75.266-23.145-78.746zm50.918 151.68c0.61328 0.011718 4.2109 0.85156 9.1328 2.4492 21.121 7.3906 49.129 31.621 73.105 63.238 10.559 13.836 36.852 52.453 48.145 69.949-7.6445-4.3789-20.219-11.746-37.332-21.996-24.898-15-51.695-30.602-58.523-34.094-10.066-4.8828-11.41-6.4688-12.938-10.117v-0.011719c-2.5312-5.8086-21.562-57.504-25.559-68.605 1.1719-0.34375 2.6953-0.67969 3.9688-0.8125zm31.234 89.941c8.0625 4.1055 33.684 19.234 78.301 46.246l34.871 21.047 8.6523 13.934c4.1758 6.7188 7.6211 12.301 10.176 16.512-5.1133-3.0469-12-7.1641-19.402-11.629-13.598-8.0898-40.523-23.977-58.945-34.598l-5.5312-3.2031c-39.684-22.906-39.684-22.906-45.227-36.996l-4.7148-12.203c0.53516 0.26562 1.1484 0.55469 1.8203 0.89062zm84.984-112.68c-28.586-32.113-36.637-42.266-43.164-54.562-0.97266-1.8359-2.6641-5.0391-3.6719-7.1406 4.3789 1.5469 14.16 6.4922 23.039 10.969 14.016 7.1641 36.18 18.121 50.879 25.297 12.215 5.7344 32.809 16.078 46.727 23.207l22.656 11.676 0.83984 5.7109c0.70703 4.3438 2.6875 10.703 4.4297 14.195 8.293 16.285 32.82 49.055 66.035 88.32-4.0195-1.8711-8.9141-4.2344-13.715-6.5391-12.457-6.0352-35.258-17.051-47.902-22.969-11.461-5.4961-28.57-14.195-37.777-19.488-14.809-8.3047-17.039-10.164-29.82-24.926zm-116.39-375.8c-4.1875 18.781-5.2812 45.973-2.1953 54.898l1.7539 4.8828-10.188 13.105c-24.926 32.699-48.828 59.496-56.82 63.719-1.668 0.86328-3.2539 1.0938-4.4766 0.625-1.3086-0.49219-2.0156-1.6797-2.3867-2.5781-0.27734-0.74219-1.0312-6.0859-1.6211-15.574-0.76953-14.914 2.7734-43.766 12.66-102.95 6.707-41.438 8.8438-50.965 32.688-145.56 5.1836-20.844 13.5-54.516 17.555-71.785 0.035156 0.40625 0.070313 0.81641 0.10938 1.2344 0.50391 6.0859 2.0039 23.398 3.625 41.902l1.1289 12.91c2.1016 22.223 4.8477 54.793 6.1211 72.625l2.3867 29.867c0.53906 6.8398 1.0078 12.613 1.2734 16.055 1.0391 11.727 0.77344 16.203-1.6133 26.621zm44.086-1.3828c-11.09 15.59-23.902 33.289-29.172 40.309-2.207 2.8906-4.7891 6.2891-6.6133 8.4492-0.27734-3.3945-0.44531-10.344 0.058594-19.031v-0.023437c0.89844-20.172 3.3828-32.219 15.648-75.805 6.9102-24.492 7.0938-24.719 16.777-37.234 11.578-14.93 45.926-60.938 62.641-84.086 0.98438-1.3672 1.957-2.7109 2.9023-4.0078-1.6445 5.6406-3.6484 12.277-5.7461 18.973-7.9922 25.715-16.969 55.246-34.754 115.87-2.3242 7.9805-6.3828 14.82-21.742 36.586zm-15.742 180.75 0.32422 0.011719c0.35938 0.058594 0.74219 0.13281 1.1406 0.19141-0.50391-0.070312-0.98438-0.14453-1.4648-0.20312zm51.168-14.461c-0.625-2.7344 1.9688-5.8555 4.2461-8.0039 7.0547-6.625 19.031-11.508 55.727-22.727 19.223-5.7227 39.336-11.93 45.203-13.789h0.011719c6.6953-2.1953 10.754-2.9648 15.504-2.9648 1.4766 0 3.0234 0.070312 4.7266 0.20312 5.7109 0.46875 31.883 1.7656 55.176 2.9141 24.48 1.2109 65.676 3.0469 91.367 4.1289 8.4844 0.35937 15.91 0.68359 22.164 0.98437-6.8281 1.2734-14.723 2.7344-23.027 4.2461-74.016 13.547-102.54 20.074-138.7 31.777-22.727 7.4023-33.289 13.512-37.68 21.77-1.8125 3.4062-2.1367 3.3359-3.6719 3.0352-1.8945-0.26563-12.926-1.6445-24.695-2.9141-29.762-3.5039-37.945-4.9688-51.48-9.2148-11.91-3.7227-14.43-7.5117-14.875-9.4453zm-432.79 139.09c-3.625 2.4961-8.8438 5.9883-13.715 9.168l-13.488 8.8438h-15.48c-16.297 0-80.207 3.3008-115.89 5.9883-2.2578 0.16797-4.3789 0.32422-6.3359 0.45703 1.957-1.0664 4.1523-2.2578 6.5742-3.5391l17.207-9.0469 20.34-1.6328c21.395-1.6562 80.699-6.7188 105.72-9.0234l9.9844-0.79297c1.875-0.16016 3.5898-0.30469 5.0898-0.42188zm-51.781-6.6836c-11.879 0.97266-26.82 2.207-39.492 3.3008-9.3477 0.81641-17.605 1.5234-23.902 2.0508 3.875-2.1602 8.4727-4.668 13.344-7.2852 35.953-19.188 51.59-28.164 66.938-38.41 6.2539-4.1289 20.578-14.074 23.566-20.16 6.3594-0.96094 37.586-0.73047 55.488 1.668 5.7852 0.74219 23.375 3 25.668 7.3672 0.19141 0.35938 0.69531 1.332-0.67188 3.9844-1.5469 2.5781-29.375 26.258-47.398 38.953-4.4297 3.168-4.5 3.2266-57.938 7.2344zm127.97 69.801c6.0234-13.129 10.633-20.688 18.238-29.953 14.941-18.07 28.234-38.172 32.305-48.852 2.3398-5.9414 3.8398-14.148 4.332-23.699l0.80469-12.406 21.625-11.293c36.996-19.465 52.367-24.395 63.168-20.363 1.4531 0.55078 2.8438 1.8945 3.0117 2.2188 1.1758 3.6016-14.594 37.234-57.828 102.09-17.496 26.09-36.238 56.23-41.785 67.164-2.1719 4.2344-3.1328 5.0391-6.7578 5.7617-14.617 2.7109-36.539 16.332-67.031 41.676-1.7539 1.5-3.3945 2.8906-4.9219 4.1523 2.8086-6.3711 6.6367-14.941 10.812-24.168 5.3516-11.543 11.449-24.863 16.465-35.844 3.1133-6.7969 5.7891-12.652 7.5625-16.48zm38.629-105.8c1.4414-0.79297 4.3906-2.4102 6.0586-3.1094 0.035156 1.8008-0.25391 5.1133-0.38281 6.5898-1.0078 12.539-6.3477 25.668-16.297 40.141-7.2461 10.379-7.2461 10.379-13.477 11.293-4.0664 0.44531-14.219 1.0547-22.656 1.0547h-0.023437c-8.125 0.14453-24.48 0.88672-36.707 1.8477-4.9922 0.32422-9.5039 0.58984-13.094 0.75781 15.555-10.758 57.133-36.281 96.578-58.574zm3.4688-367.41 1.9219-19.188c2.0273-20.941 3.5742-37.57 4.5859-49.43 0.69531-7.2969 1.4297-14.016 2.0742-19.078 0.38281 0.88672 0.79297 1.8359 1.1992 2.8203 3.793 9.0469 3.8867 9.8047 3.1328 27-0.91016 18.445-4.8008 57.613-6.8633 73.523-0.43359-1.0664-0.91016-2.2812-1.4141-3.625zm43.605 179.65 0.37109-0.68359c6-11.508 5.125-26.594-3.5625-62.074l-4.4766-18.301 3.9258-35.746c2.3633-21.887 5.5078-55.199 6.6367-71.172 0.91016 1.4883 1.9453 3.2266 3.0977 5.1953l0.10937 0.17969c5.3867 9.0703 17.27 22.738 23.566 25.895 2.8438 1.5117 6.9375 2.6523 9.5508 2.6523l0.82812-0.046875c1.1523 0.96094 3.457 12.07 7.1055 30.156l1.3203 6.5039c15 74.531 23.293 143.45 19.297 160.3-2.4492 10.609-6.8633 17.914-8.125 18.551-2.3984 0.97266-13.586-5.5312-27.551-21.527l-4.8125-5.4961c-25.551-29.211-28.324-32.488-27.281-34.383zm-8.793-174.79c-3.8281 39.805-6.0117 59.629-7.2461 69.445-1.4023-3.6953-3.0234-8.207-4.6797-13.078l-8.0508-22.934 3.7695-36.828v-0.011719c1.9922-20.676 4.1289-43.176 4.7383-50.207 0.12109-1.332 0.22656-2.5078 0.32422-3.5625 1.6445 3.1445 3.457 6.7578 5.1836 10.297l8.7852 17.305zm-107.48 20.762c2.4375-9.6133 2.2305-20.688-0.60156-32.016-1.2969-5.6055-2.0625-16.969-2.2188-32.82v-17.785c5.543 4.9922 23.578 22.176 30.887 29.125 11.293 10.754 30.047 28.285 32.316 29.531 4.0195 2.2695 18.852 46.754 24.445 63.492 19.5 58.332 25.777 87.07 22.379 102.54-0.17969 0.99609-0.37109 1.8359-0.55078 2.543-4.3555-5.3398-13.234-16.789-24.086-31.32-24.035-32.195-32.711-43.379-71.34-92.016l-12.551-15.996zm145.43 402.71 7.6914-12.984c18.613-31.223 28.355-44.496 38.652-52.621 6.5625-5.3984 6.5742-5.375 9.1914-3.9727 3.0234 1.6797 10.547 11.207 14.988 63.445 1.9922 20.797 3.0234 30.238 3.5391 34.488 1.2969 11.426 2.6289 110.1 2.293 144.93l-13.715-31.703c-30.469-69.887-39.133-91.117-40.32-98.676-2.6055-18.84-11.773-37.367-20.914-42.191zm96.145-415.08c-5.9883 28.402-16.738 74.062-20.914 88.836-3.3945 11.867-6.6836 22.645-9.5898 24.07-0.86328 0.42188-2.2812 0.16797-4.5859-0.75781-4.9062-2.0625-8.2578-7.7539-11.914-20.293-2.6055-8.6758-12.828-63.059-26.688-141.93l-3.4219-19.957 3.2773-3.5156c5.6992-6.1797 8.6172-12.059 12.012-24.215 2.2188-8.2422 13.738-38.137 19.152-50.785 2.4258 6.7188 6.8398 19.488 13.055 38.258 7.9688 23.746 18.684 57.07 23.387 72.758l8.3398 27.422zm8.8438-44.449c-0.85156 4.6445-1.5859 8.3398-2.1602 11.195-1.0781-3.793-2.4102-8.5781-3.9609-14.23-3.8164-13.297-13.969-45.434-22.992-72.047l-15.863-46.535 3.4219-8.7461c1.3555-3.4062 2.8438-7.1172 3.9844-9.9258 1.9688 4.4766 4.957 12.445 8.3164 21.457 5.7461 15.875 15.695 44.328 22.164 63.434l11.23 33.684zm-89.039 549.84c-3.1094 3.7188-13.934 19.223-14.027 19.355l-5.2812 7.4297c-8.125 11.449-19.777 27.863-28.992 40.766-11.566 16.273-29.473 42.215-39.828 58.223l-2.6875 4.0547c-4.8008 7.2344-9.3477 14.062-12.602 18.926-0.17969-6.1562-0.33594-15.684-0.33594-27.91 0-35.316-0.097656-38.785-3.5039-46.117l-2.6875-5.6289 11.461-19.895c6.5898-11.387 18.961-33.66 27.574-49.656 16.859-31.309 43.164-72.348 49.297-79.02 1.0312 0.73047 2.6992 2.1016 4.4648 4.0312l0.14453 0.16797c6.1562 6.7305 9.6484 16.391 12.875 35.664 2.9297 17.359 4.4648 36.129 4.1289 39.609zm13.68 4.3906c4.6328 10.547 16.43 37.777 26.605 61.488l2.7461 6.3594c11.484 26.543 15.887 36.684 16.598 37.691 0.37109 0.81641 1.2227 6.5625 1.2227 13.98 0 10.402-0.53906 11.902-2.1133 13.559l-0.011719 0.011719c-1.8125 1.9922-5.3867 7.6094-7.8008 12.77l-1.6289 3.2305c-3.3477-8.0898-17.293-43.859-28.246-72.254l-8.8438-23.23-1.1055-59.617zm-199.81-378.83c-7.7148-9.1328-13.367-15.816-17.426-20.664 3.168 1.8359 6.6719 3.8633 9.9961 5.7734l0.38281 0.22656c29.113 16.789 38.27 21.289 54.406 26.723 18.371 6.1211 28.609 6.9609 37.801 3.1094l3.1797-1.3906 8.0391 9.3359c14.711 16.969 35.41 45.191 38.16 52.02 1.3555 3.6016 1.7773 6.8867 1.6562 7.4766-0.011718 0.023437-1.8711 3.3008-19.727 1.957-15.086-1.1641-56.484-14.242-60.168-17.578-1.8828-1.7383-9.1797-10.309-15.613-18.348l-0.011719-0.011719c-6.6953-8.1836-21.336-25.766-32.473-38.891zm13.957-126.5c-3.4336-3.8164-9.6367-12.109-13.273-16.969-10.789-14.219-29.426-38.375-41.641-54.012 4.4141 3.2148 9.7695 7.1875 16.02 11.867l4.4766 3.3711c30.023 22.559 30.023 22.559 32.137 31.871l0.35938 1.5586c2.0039 9.043 2.6797 17.227 1.9219 22.312zm61.199 295.08c-10.512 0.51562-38.258 0.38281-93.84 0.10938l-101.91-0.45703-22.98-7.0664c-3.3945-1.043-6.4922-1.9805-9.2891-2.8203-5.1133-1.5352-10.332-3.1211-13.559-4.3203 4.6562-1.4141 13.766-3.3945 23.953-5.5938l13.199-2.8789c51.156-11.316 67.969-14.531 71.965-13.895 0.83984 0.15625 4.5 0.92578 9.707 2.0273 5.0898 1.0781 11.652 2.4844 18.516 3.9258l0.98438 0.20312c50.016 10.676 89.914 22.629 103.26 30.766zm-278.47-26.797c-2.9297-0.99609-5.2188-1.8477-6.9844-2.5195 5.9648-1.3438 15.254-3.2656 26.328-5.3281 8.1484-1.5977 17.34-3.3711 25.895-5.0156 10.379-2.0039 19.824-3.8281 25.355-4.9336 11.82-2.3164 18.84-3.1562 19.727-3.0117 0.49219 0.058594 2.2695 0.39453 4.8828 0.88672l2.2852 0.42188c3.707 0.70703 8.3984 1.5859 13.285 2.4727l3.0703 0.58984c-15.793 3.3359-31.176 6.6719-43.703 9.457l-14.555 3.2266c-40.645 9.0586-40.621 9.0469-51.324 5.2422l-0.25391-0.085937c-1.1992-0.44141-2.5312-0.91016-4.0078-1.4023z"/>
</svg>
