<?xml version="1.0" encoding="UTF-8"?>
<svg width="1200pt" height="1200pt" version="1.1" viewBox="0 0 1200 1200" xmlns="http://www.w3.org/2000/svg">
 <path d="m600 267.36c-183.41 0-332.64 149.21-332.64 332.64 0 183.43 149.23 332.64 332.64 332.64s332.64-149.21 332.64-332.64c0-183.43-149.23-332.64-332.64-332.64zm0 627.77c-162.75 0-295.14-132.39-295.14-295.14s132.41-295.14 295.14-295.14 295.14 132.39 295.14 295.14-132.41 295.14-295.14 295.14z"/>
 <path d="m714.05 399.45c-19.387 0-37.125 6.6367-51.582 17.477-20.082-6.918-41.008-10.613-62.477-10.613-106.8 0-193.71 86.887-193.71 193.71 0 106.82 86.906 193.71 193.71 193.71 106.8 0 193.71-86.887 193.71-193.71 0-21.488-3.7109-42.414-10.633-62.457 10.82-14.457 17.477-32.195 17.477-51.582 0-47.699-38.793-86.512-86.492-86.512zm-114.05 356.76c-86.137 0-156.21-70.07-156.21-156.21s70.07-156.21 156.21-156.21c12.43 0 24.617 1.6328 36.523 4.5195-5.5859 11.418-8.9805 24.094-8.9805 37.648 0 47.699 38.812 86.512 86.512 86.512 13.555 0 26.211-3.4141 37.633-8.9805 2.8867 11.887 4.5195 24.074 4.5195 36.523 0 86.137-70.07 156.21-156.21 156.21zm114.05-221.25c-27.02 0-49.012-21.977-49.012-49.012 0-27.039 21.992-49.012 49.012-49.012 27.02 0 48.992 21.977 48.992 49.012 0 27.039-21.977 49.012-48.992 49.012z"/>
 <path d="m1021.7 699.11c-9.6016-3.8047-20.531 0.80469-24.375 10.461l-9.9766 24.992c-3.8438 9.6172 0.84375 20.531 10.461 24.355 2.2891 0.89844 4.6328 1.3516 6.957 1.3516 7.4258 0 14.477-4.4609 17.418-11.812l9.9766-24.992c3.8438-9.6172-0.84375-20.531-10.461-24.355z"/>
 <path d="m1093.3 329.51c-0.26172-0.54297-0.73047-0.88281-1.0117-1.3867-96.02-173.14-280.63-290.64-492.23-290.64s-394.45 116.42-490.84 288.21c-0.32031 0.39453-0.46875 0.89844-0.75 1.3125-45.113 80.906-70.93 173.98-70.93 273 0 310.16 252.34 562.5 562.5 562.5 171.54 0 325.27-77.27 428.53-198.73 0.95703-0.84375 1.6875-1.8008 2.4375-2.8125 82.012-97.762 131.53-223.67 131.53-360.96 0-97.707-25.086-189.66-69.074-269.79-0.09375-0.22656-0.054687-0.46875-0.16797-0.67578zm-72.375 583.97-16.969-39.488 22.742-47.906c1.6484-3.4883 2.1953-7.4062 1.5391-11.211l-4.9297-28.801c-1.7422-10.199-11.27-17.023-21.637-15.32-10.199 1.7422-17.062 11.438-15.301 21.637l3.918 22.949-16.836 35.457-33.055-10.387c-4.2383-1.3125-8.832-1.125-12.918 0.61719l-36.113 15.281c-9.543 4.0312-13.988 15.039-9.957 24.582 4.0312 9.5234 15.074 13.988 24.582 9.957l29.758-12.582 33.824 10.633 24.637 57.336c-78.508 89.25-186.7 151.71-309.04 171.73l7.7812-12.148c5.5703-8.7188 3.0195-20.305-5.6992-25.895-8.7578-5.5859-20.324-3.0547-25.914 5.6992l-24.242 37.895c-12.242 0.86328-24.562 1.4453-37.031 1.4453-18.676 0-37.125-1.0117-55.293-2.9258l-10.164-31.93c-3.1484-9.8633-13.742-15.281-23.551-12.188-9.8633 3.1328-15.32 13.688-12.188 23.551l4.5938 14.418c-135.47-25.312-252.71-102.77-330.15-210.73l21.637-21.508 49.332-6.7891c0.86328-0.11328 1.707-0.30078 2.5312-0.52344l33.336-9.375c9.9766-2.8125 15.789-13.164 12.977-23.117-2.793-9.9766-13.238-15.75-23.117-12.977l-32.102 9.0195-26.887 3.6953 9.4883-38.305c0.88281-3.582 0.69531-7.3516-0.54297-10.82l-13.707-38.344 12.77-31.387c3.8984-9.6016-0.73047-20.531-10.312-24.43-9.6367-3.918-20.551 0.71094-24.449 10.312l-15.449 38.023c-1.7266 4.2734-1.8359 9.0391-0.28125 13.367l14.23 39.77-13.52 54.543-17.156 17.062c-48.824-79.688-77.008-173.32-77.008-273.41 0-86.586 21.207-168.28 58.48-240.36l30.242 8.3984c1.6484 0.44922 3.3359 0.69531 5.0234 0.69531 2.1016 0 4.2383-0.35547 6.2422-1.0703l35.418-12.508c9.7695-3.4492 14.887-14.156 11.438-23.926-3.4688-9.7695-14.117-14.867-23.926-11.438l-29.852 10.539-15.676-4.3516c88.594-144.19 244.82-242.48 424.18-250.39l-4.5 20.57-45.863 34.727c-2.4375 1.8359-4.3672 4.2383-5.6641 6.9922l-20.832 44.438c-4.3867 9.375-0.375 20.531 9 24.938 2.5859 1.1992 5.2891 1.7812 7.9492 1.7812 7.0508 0 13.801-3.9922 16.988-10.801l18.883-40.238 35.531-26.906 39.488 34.387v35.906c0 10.352 8.3828 18.75 18.75 18.75s18.75-8.3984 18.75-18.75v-44.438c0-5.418-2.3438-10.574-6.4297-14.137l-49.031-42.711 5.418-24.711c184.24 5.2109 345.04 105.66 434.64 253.89l-34.668 16.258c-9.375 4.3867-13.406 15.562-9 24.938 3.1875 6.8047 9.9375 10.781 16.988 10.781 2.6641 0 5.3633-0.5625 7.9492-1.7812l36.918-17.305c36.488 71.457 57.207 152.25 57.207 237.84 0 117.41-38.758 225.94-104.12 313.48z"/>
</svg>
