<?xml version="1.0" encoding="UTF-8"?>
<svg width="1200pt" height="1200pt" version="1.1" viewBox="0 0 1200 1200" xmlns="http://www.w3.org/2000/svg">
 <path d="m600 286.5c-213.37 0-412.5 112.5-519.74 294.37-7.125 11.625-7.125 26.25 0 37.875 103.88 175.87 293.63 287.26 499.13 294 12.469 0.79688 25.031 1.0781 37.5 0.375 207-5.625 398.63-117.38 502.87-294.37 7.125-11.625 7.125-26.25 0-37.875-107.25-181.87-306.37-294.37-519.74-294.37zm-273 476.26c-67.875-40.125-126.37-95.625-170.26-162.74 44.25-67.875 103.5-123.74 172.13-164.26-30.375 48-48 104.25-48 165 0 59.25 16.875 114.75 46.125 162zm271.87-12c-84 0-152.26-67.125-152.26-150 0-20.625 16.875-37.5 37.5-37.5 21 0 37.5 16.875 37.5 37.5 0 41.625 34.875 75 77.25 75 42.75 0 77.25-33.375 77.25-75 0-41.25-34.5-75-77.25-75-20.625 0-37.5-16.5-37.5-37.5 0-20.625 16.875-37.5 37.5-37.5 84 0 152.26 67.5 152.26 150 0 82.875-68.25 150-152.26 150zm270.74 14.25c30.375-47.625 47.625-103.88 47.625-164.26 0-61.5-18-118.5-49.125-166.87 69.75 40.5 130.5 97.125 175.13 166.13-44.625 68.25-104.25 124.5-173.63 165z"/>
</svg>
