<?xml version="1.0" encoding="UTF-8"?>
<svg width="1200pt" height="1200pt" version="1.1" viewBox="0 0 1200 1200" xmlns="http://www.w3.org/2000/svg">
 <path d="m547.97 758.72c3.75 1.1719 7.2188 3.2812 11.438 5.0625 2.4375 1.0312 5.0625 1.8281 7.7344 2.9062 22.734 9.4688 48.516 28.547 64.641 50.438 12.281 16.688 18.75 35.297 7.6406 52.594-8.7188 14.391-29.672 29.578-49.453 46.219-22.688 19.078-43.875 39.891-51.422 61.125-7.9688 22.453-3.9844 46.453 26.812 70.5 5.625 4.4062 11.344 8.3906 17.25 12.188 5.7656 3.7031 11.719 7.2188 17.859 10.594 10.453 5.5312 21.047 15.328 33.469 18.562 2.7188 0.70312 23.484 5.3438 26.344-5.625 2.4844-9.4688-11.859-18.516-13.641-19.922-9.75-7.6875-21.703-13.594-31.594-19.312-5.5312-3.0938-10.875-6.2344-16.125-9.6094-5.1094-3.2812-10.125-6.7969-15-10.641-10.641-8.3438-16.594-16.078-18.141-24.047-1.7812-9.2812 2.7656-18 9.2344-26.719 12.703-17.109 33.609-33.281 51.891-48.703 16.266-13.688 30.609-27 37.969-39.234 16.219-28.594 8.4844-58.875-13.078-83.953-20.25-23.531-52.031-42.328-78.938-50.484-3.1406-0.9375-6.1875-2.0156-9.1875-2.4375-5.3438-0.75-10.125-0.51562-14.672 0-2.9062-0.28125-5.4844 1.8281-5.7656 4.7344s1.8281 5.4844 4.7344 5.7656zm-241.97 0c3.75 1.1719 7.2188 3.2812 11.438 5.0625 2.4375 1.0312 5.0625 1.8281 7.7344 2.9062 22.734 9.4688 48.516 28.547 64.641 50.438 12.281 16.688 18.75 35.297 7.6406 52.594-8.7188 14.391-29.672 29.578-49.453 46.219-22.688 19.078-43.875 39.891-51.422 61.125-7.9688 22.453-3.9844 46.453 26.812 70.5 5.625 4.4062 11.344 8.3906 17.25 12.188 5.7656 3.7031 11.719 7.2188 17.859 10.594 10.453 5.5312 21.047 15.328 33.469 18.562 2.7188 0.70312 23.484 5.3438 26.344-5.625 2.4844-9.4688-11.859-18.516-13.641-19.922-9.75-7.6875-21.703-13.594-31.594-19.312-5.5312-3.0938-10.875-6.2344-16.125-9.6094-5.1094-3.2812-10.078-6.7969-15-10.641-10.641-8.3438-16.594-16.078-18.141-24.047-1.7812-9.2812 2.7656-18 9.2344-26.719 12.703-17.109 33.609-33.281 51.891-48.703 16.266-13.688 30.609-27 37.969-39.234 16.219-28.594 8.4844-58.875-13.078-83.953-20.25-23.531-52.031-42.328-78.938-50.484-3.1406-0.9375-6.1875-2.0156-9.1875-2.4375-5.3438-0.75-10.125-0.51562-14.672 0-2.9062-0.28125-5.4844 1.8281-5.7656 4.7344s1.8281 5.4844 4.7344 5.7656zm475.03 0c3.75 1.1719 7.2188 3.2812 11.438 5.0625 2.4375 1.0312 5.0625 1.8281 7.7344 2.9062 22.734 9.4688 48.516 28.547 64.641 50.438 12.281 16.688 18.75 35.297 7.6406 52.594-8.7188 14.391-29.672 29.578-49.453 46.219-22.688 19.078-43.875 39.891-51.422 61.125-7.9688 22.453-3.9844 46.453 26.812 70.5 5.625 4.4062 11.344 8.3906 17.25 12.188 5.7656 3.7031 11.719 7.2188 17.859 10.594 10.453 5.5312 21.047 15.328 33.469 18.562 2.7188 0.70312 23.484 5.3438 26.344-5.625 2.4844-9.4688-11.859-18.516-13.641-19.922-9.75-7.6875-21.703-13.594-31.594-19.312-5.5312-3.0938-10.875-6.2344-16.125-9.6094-5.1094-3.2812-10.078-6.7969-15-10.641-10.641-8.3438-16.594-16.078-18.141-24.047-1.7812-9.2812 2.7656-18 9.2344-26.719 12.703-17.109 33.609-33.281 51.891-48.703 16.266-13.688 30.609-27 37.969-39.234 16.219-28.594 8.4844-58.875-13.078-83.953-20.25-23.531-52.031-42.328-78.938-50.484-3.1406-0.9375-6.1875-2.0156-9.1875-2.4375-5.3438-0.75-10.125-0.51562-14.672 0-2.9062-0.28125-5.4844 1.8281-5.7656 4.7344s1.8281 5.4844 4.7344 5.7656zm-312.98-489.74c-3.4219 2.8594-7.125 6.1406-11.156 9.8438-26.719 24.703-65.859 66.469-104.67 108.47-38.906 42.141-77.062 84.797-100.41 112.03-8.3438 9.75-16.734 16.922-20.109 22.312-0.51562 0-1.0312 0.046875-1.5 0.09375-0.84375-0.70312-17.297 0.28125-18.047 3.1406-0.32812 1.2188-1.6406 9.2344-2.2031 10.875-1.8281 5.3906-2.3438 11.344-3.3281 17.391-1.4531 9.0938-2.25 18.562-2.9062 27.844-1.875 24.797 0.23438 48.562 11.156 66.188 1.5 2.3906 6.2812 7.9688 17.016 10.078 8.1562 1.5938 25.5 3 49.734 3.9844 96.328 4.0312 307.64 3.4219 472.26-0.89062 90.844-2.3906 167.53-5.9062 203.29-10.172 12.891-1.5469 21.469-3.6094 25.219-5.2969 10.266-4.6875 12.328-12.516 12.562-17.25 0.60937-12.469 2.2031-56.531 0.9375-83.016-0.51563-10.641-1.6406-18.984-3-22.969-1.5469-4.5938-3.8438-7.4531-5.7188-9.1406-1.3125-1.1719-6.9844-4.9688-17.859-5.6719-14.391-15.516-29.531-30.984-45.281-46.406-49.172-48.141-102.47-96.938-151.18-146.34-6.3281-6.4219-12.562-12.844-18.938-19.031-8.9062-8.625-18.141-16.5-26.719-25.031 2.0625-2.8125 4.9219-8.3906 5.5312-16.969 1.0312-14.531 0.75-46.031-0.9375-74.156-1.3125-22.172-3.6562-42.281-6.5625-51.328-2.6719-8.3438-7.5-12.234-10.594-13.641s-9.7969-2.9531-19.453-3.6562c-26.531-1.9219-82.031-1.3594-132.19 0.60938-21.188 0.84375-41.391 1.6406-57.984 2.9531-6.1875 0.46875-38.438-0.5625-43.359 4.5938-0.84375 0.89062-0.9375 2.2969-1.1719 3.8438-1.6406 11.062-0.5625 31.031-0.65625 52.547-0.14062 36.375 1.5469 77.203 7.6406 93.234 0.09375 0.28125 0.28125 0.65625 0.46875 1.0312zm492.47 271.92c-10.172-0.5625-25.734-0.98438-45.562-1.2188-117.19-1.2188-378.1 5.5312-545.81 4.125-54.656-0.46875-99.422-2.0625-126.24-3.8438 0.5625 4.9219-0.046875 10.078-0.375 15.281-0.46875 7.8281-1.6875 15.844-2.25 23.859-1.125 15.281-1.7812 30.375 3.0469 42.281 10.547 1.3594 29.531 2.3438 54.656 3.1406 139.03 4.4531 459.14 0.89062 603.84-7.5 25.219-1.4531 44.859-3 56.953-4.6875 1.125-19.734 2.625-52.734 1.7344-71.438zm-245.76-264.52c-7.125 2.0625-17.297 4.0781-29.719 5.25-34.031 3.2812-88.312 3.9375-132.05 3.3281-29.344-0.42188-54.141-1.7344-65.531-3.75-0.98438-0.1875-1.9219-0.375-2.8125-0.60938-3.4688 3.8438-7.5 8.3906-12.141 13.5-24.234 26.719-61.969 69.094-99 111.98-37.266 43.219-74.109 86.625-97.219 113.91l-0.65625 0.79688c36.797-1.0312 88.031-2.7656 146.29-4.4531 158.06-4.5469 367.4-8.5781 477.89-9.8906 9.2812-0.09375 17.859-0.1875 25.641-0.23438-2.4844-2.625-5.0156-5.2031-7.5469-7.8281-47.484-49.125-100.73-98.484-148.08-150.32-10.359-11.344-20.625-22.594-29.859-34.547-9.2812-12.094-17.016-24.797-25.172-37.172zm-219.52-138.71c0.1875 30.609-1.875 82.969 2.7188 108.75 2.8125 0.70312 6.3281 1.6406 9.9375 1.9219 38.344 2.7656 116.95 1.5938 165.52-0.375 10.312-0.42187 21.188-3.75 27.938-4.3594 0.46875-2.5781 0.9375-5.3438 0.98438-8.0625 0.5625-27.375-0.70312-71.812-4.3594-93.094-0.14062-0.84375-0.46875-1.7344-0.75-2.5312-8.625-1.1719-25.734-1.125-46.641-1.3125-32.438-0.23438-73.125 1.125-108.14 0.98437-9.5625-0.046874-18.75-0.28125-27.188-0.70312-7.2656-0.375-14.016-0.75-20.062-1.2188z" fill-rule="evenodd"/>
</svg>
