<?xml version="1.0" encoding="UTF-8"?>
<svg width="1200pt" height="1200pt" version="1.1" viewBox="0 0 1200 1200" xmlns="http://www.w3.org/2000/svg">
 <path d="m1052.4 618.14h-139.69v-384.61c0-6.6094-5.3906-12-12-12h-206.63c-4.7812 0-9.2344 2.8594-11.062 7.4531-1.7812 4.5469-0.84375 9.6094 2.625 13.078l61.078 61.078-61.219 62.766c-3.375 3.4688-4.3125 8.625-2.5312 13.078s6.2344 7.3125 11.062 7.3125h194.53v231.94h-137.72c-6.6094 0-12 5.3906-12 12v103.22h-114.23c4.9219-7.5469 7.4531-16.453 6.6094-25.781l-14.625-138.94c-4.5469-41.156-34.922-71.062-72.234-71.062h-50.156l-0.046875-104.06h46.453c39.234 0 72.375-33.141 72.375-72.375v-82.219c0-27.844-22.547-50.391-50.391-50.391-27.234 0-48.609 22.078-48.609 50.391v57.469l-78.375 0.046875c18.938-17.297 31.078-42.375 31.078-70.219 0-50.062-42.375-92.391-92.391-92.391-51.938 0-94.219 41.531-94.219 92.391 0 27.938 12.234 52.922 31.688 70.219h-89.062c-41.297 0-72.375 31.078-72.375 72.375v82.219c0 18.844 8.3906 30.375 15.375 36.703 8.8594 7.9219 20.625 12.375 33.141 12.375 24.141 0 48.609-16.781 48.609-48.938v-57.656h30.844v121.45c0 25.922 13.219 49.453 33.234 64.453l-12.703 60.609h-110.86c-28.781 0-52.219 24.234-52.219 54 0 29.297 23.859 54 52.219 54h135.24c40.781 0 71.859-30.375 81.234-79.312l12.844-72.375h88.781l11.766 113.86c1.2188 9.1406 4.0781 16.688 8.1562 23.062h-76.688c-6.6094 0-12 5.3906-12 12v117.7h-289.69c-6.6094 0-12 5.3906-12 12v179.16c0 6.6094 5.3906 12 12 12h904.78c6.6094 0 12-5.3906 12-12v-424.08c0-6.6094-5.3906-12-12-12zm-329.76-255.84 49.547-50.859c4.5469-4.6875 4.5469-12.234-0.14062-16.922l-48.938-48.938h165.61v116.72zm-196.69-41.906c6.6094 0 12-5.3906 12-12v-69.469c0-14.766 10.781-26.391 24.609-26.391 12.703 0 26.391 10.547 26.391 26.391v82.219c0 26.156-22.078 48.375-48.375 48.375h-46.453v-13.547c0-13.453-4.4531-25.688-11.625-35.531zm-222-94.172c0-37.688 31.547-68.391 70.219-68.391 37.078 0 68.391 31.312 68.391 68.391 0 38.766-30.703 70.219-68.391 70.219-39.375-0.046874-70.219-30.891-70.219-70.219zm76.828 438.24c-2.625 14.062-14.766 59.766-57.703 59.766h-135.28c-14.766 0-28.219-14.297-28.219-30 0-16.781 12.375-30 28.219-30h120.61c5.625 0 10.547-3.9375 11.766-9.4688l13.219-63.141c8.8594 3.2344 18.234 5.0625 28.078 5.0625h31.312zm160.78 43.078-12.844-124.31c-0.60937-6.1406-5.7656-10.781-11.859-10.781l-155.39-0.046875c-10.312 0-20.062-3-28.547-7.6875-1.3125-1.2188-3-2.2969-4.7812-2.7656-15.469-10.453-25.781-27.844-25.781-47.062l-0.046875-133.26c0-6.6094-5.3906-12-12-12h-54.844c-6.6094 0-12 5.3906-12 12v69.469c0 17.297-12.375 24.938-24.609 24.938s-24.609-7.6875-24.609-24.938v-82.219c0-27.938 20.297-48.375 48.375-48.375h212.02c19.922 0 35.531 15.609 35.531 35.531v153.61c0 6.6094 5.3906 12 12 12h62.156c28.219 0 45.609 24.938 48.375 49.547l14.625 138.71c1.0781 12.703-12.375 21.234-26.297 23.531h-14.297c-10.172-1.6406-22.781-7.4062-25.172-25.875zm-381.94 179.53h277.55v155.16h-277.55zm301.55-12v-117.7h103.92c3 0.375 6 0.60938 8.8594 0.60938 2.3906 0 4.9219-0.14062 7.2188-0.375 0.46875 0 0.84375-0.23438 1.3125-0.23438h156.24v284.86h-277.55zm579.24 167.16h-277.55v-400.13l277.55 0.046875z"/>
</svg>
