<?xml version="1.0" encoding="UTF-8"?>
<svg width="1200pt" height="1200pt" version="1.1" viewBox="0 0 1200 1200" xmlns="http://www.w3.org/2000/svg">
 <g>
  <path d="m854.4 208.8c-28.801-19.199-16.801-62.398 16.801-60 12 0 28.801 2.3984 48 9.6016 16.801 7.1992 33.602-14.402 21.602-28.801-86.402-115.2-307.2-50.402-436.8 14.398-31.199 7.1992-55.199-33.602-28.801-55.199 9.6016-9.6016 21.602-16.801 40.801-26.398 16.801-9.6016 12-33.602-4.8008-36-146.4-21.602-256.8 182.4-302.4 319.2-16.801 28.797-62.402 14.398-60-16.801 0-12 4.8008-28.801 9.6016-45.602 7.1992-19.199-14.402-36-28.801-24-115.2 84-50.402 307.2 14.398 436.8 7.1992 33.602-33.602 55.199-55.199 28.801-7.1992-9.6016-16.801-21.602-26.398-40.801-9.6016-16.801-33.602-12-36 4.8008-21.602 141.6 184.8 252 319.2 297.6 28.801 19.199 14.398 62.398-19.199 60-12 0-28.801-2.3984-45.602-9.6016-16.801-4.8008-33.602 14.398-21.602 31.199 84 115.2 307.2 48 436.8-14.398 31.199-7.1992 55.199 33.602 28.801 55.199-9.6016 9.6016-21.602 16.801-40.801 26.398-16.801 9.6016-12 33.602 4.8008 36 141.6 21.602 252-182.4 297.6-319.2 19.199-26.398 62.398-14.398 60 19.199 0 12-4.8008 28.801-9.6016 48-4.8008 16.801 14.398 33.602 28.801 21.602 115.2-84 48-307.2-16.801-436.8-7.1992-33.602 33.602-55.199 55.199-28.801 7.1992 9.6016 16.801 21.602 26.398 38.398 9.6016 16.801 33.602 12 36-4.8008 28.801-144-175.2-254.4-312-300zm110.4 333.6c-2.3984 12-16.801 14.398-24 4.8008-26.398-50.398-48-40.801-57.602-31.199 16.801 48 108 232.8 16.801 302.4-9.6016 7.1992-21.602-2.3984-19.199-14.398 16.801-55.199-4.8008-62.398-19.199-62.398-21.602 40.801-86.398 242.4-201.6 225.6-12-2.3984-14.398-16.801-2.3984-24 50.398-26.398 40.801-48 31.199-57.602-7.1992 2.3984-16.801 4.8008-24 7.1992-84 40.801-223.2 84-278.4 9.6016-7.1992-9.6016 2.3984-24 14.398-19.199 55.199 16.801 62.398-4.8008 62.398-19.199-45.602-24-242.4-88.801-225.6-201.6 2.3984-12 16.801-14.398 24-2.3984 26.398 50.398 48 40.801 57.602 31.199-2.3984-7.1992-4.8008-16.801-7.1992-24-40.801-84-84-223.2-9.6016-278.4 9.6016-7.1992 21.602 2.3984 19.199 14.398-16.801 55.199 4.8008 62.398 19.199 62.398 21.602-38.398 88.801-242.4 201.6-225.6 12 2.3984 14.398 16.801 4.8008 24-50.398 26.398-40.801 48-31.199 57.602 7.1992-2.3984 16.801-4.8008 24-7.1992 81.602-40.801 223.2-84 278.4-9.6016 7.1992 9.6016-2.3984 24-14.398 19.199-55.199-16.801-62.398 4.8008-62.398 19.199 43.199 19.199 242.4 84 223.2 199.2z"/>
  <path d="m676.8 482.4c-2.3984-2.3984-7.1992-4.8008-9.6016-7.1992 0-7.1992 4.8008-16.801 28.801-9.6016 4.8008 2.3984 9.6016-4.8008 7.1992-9.6016-26.398-33.602-91.199-14.398-132 4.8008-4.8008 0-7.1992 2.3984-12 2.3984-4.8008-4.8008-9.6016-14.398 14.398-26.398 4.8008-2.3984 4.8008-9.6016-2.3984-12-43.199-7.1992-76.801 55.199-88.801 96-2.3984 2.3984-4.8008 7.1992-7.1992 9.6016-7.1992 0-16.801-4.8008-9.6016-28.801 7.1992-24-62.398 7.1992-4.8008 124.8 0 4.8008 2.3984 7.1992 2.3984 12-4.8008 4.8008-14.398 9.6016-26.398-14.398-2.3984-4.8008-9.6016-4.8008-12 2.3984-7.1992 52.801 86.398 84 105.6 96 0 7.1992-4.8008 16.801-28.801 9.6016-4.8008-2.3984-9.6016 4.8008-7.1992 9.6016 26.398 33.602 91.199 14.398 132-4.8008 4.8008 0 7.1992-2.3984 12-2.3984 4.8008 4.8008 9.6016 14.398-14.398 26.398-4.8008 2.3984-4.8008 9.6016 2.3984 12 43.199 7.1992 76.801-55.199 88.801-96 2.3984-2.3984 4.8008-7.1992 7.1992-9.6016 7.1992 0 16.801 4.8008 9.6016 28.801-2.3984 4.8008 4.8008 9.6016 9.6016 7.1992 43.199-31.199-2.3984-122.4-7.1992-141.6 4.8008-4.8008 14.398-9.6016 26.398 14.398 2.3984 4.8008 9.6016 4.8008 12-2.3984 4.8008-43.199-55.199-76.797-96-91.199z"/>
 </g>
</svg>
