<?xml version="1.0" encoding="UTF-8"?>
<svg width="1200pt" height="1200pt" version="1.1" viewBox="0 0 1200 1200" xmlns="http://www.w3.org/2000/svg">
 <path d="m600 19.199c-322.8 0-585.6 261.6-585.6 585.6s262.8 584.4 585.6 584.4 585.6-261.6 585.6-585.6c0-324-262.8-584.4-585.6-584.4zm265.2 956.4c0 14.398-12 26.398-26.398 26.398-14.398 0-26.398-12-26.398-26.398l-0.003906-631.2-189.6 378c-8.3984 18-38.398 18-46.801 0l-188.4-378v631.2c0 14.398-12 26.398-26.398 26.398s-26.398-12-26.398-26.398v-744c0-13.199 8.3984-22.801 20.398-25.199 13.199-3.6016 24 2.3984 30 14.398l216 429.6 216-429.6c4.8008-12 16.801-16.801 30-14.398 12 2.3984 20.398 13.199 20.398 25.199v744z"/>
</svg>
