<?xml version="1.0" encoding="UTF-8"?>
<svg width="1200pt" height="1200pt" version="1.1" viewBox="0 0 1200 1200" xmlns="http://www.w3.org/2000/svg">
 <path d="m792 228v-144h-384v144h-360v72h36v816h1032v-816h35.988v-72zm-336-96h288v96h-288zm612.01 936h-936.01v-768h936.01z" fill-rule="evenodd"/>
 <path d="m222.18 857.11 65.93 38.051 58.414-33.695 7.5234-4.3555v-76.238l-36.945-21.336-28.992-16.738-65.93 38.051z" fill-rule="evenodd"/>
 <path d="m432 915.88-30.984-17.891-34.957-20.172-52.535 30.312-13.402 7.7383v76.262l65.938 38.051 65.941-38.051z" fill-rule="evenodd"/>
 <path d="m389.99 1044h108.02l-54.012-31.211z" fill-rule="evenodd"/>
 <path d="m288.11 472.81-65.93 38.039v76.273l65.93 38.039 55.305-31.906 10.633-6.1445v-76.238l-36.945-21.336z" fill-rule="evenodd"/>
 <path d="m318.24 635.41-18.117 10.465v76.227l65.938 38.074 43.848-25.309 22.094-12.766v-76.215l-35.688-20.625-30.254-17.449z" fill-rule="evenodd"/>
 <path d="m587.88 915.86-65.938-38.051-65.941 38.062v76.25l65.941 38.051 65.938-38.051z" fill-rule="evenodd"/>
 <path d="m744 915.97-66-38.125-65.879 38.016v76.262l65.938 38.051 65.941-38.051z" fill-rule="evenodd"/>
 <path d="m444 472.81-30.254 17.461-35.688 20.613v76.215l65.941 38.074 47.688-27.516 18.254-10.547v-76.238l-30.254-17.473z" fill-rule="evenodd"/>
 <path d="m701.99 1044h108.14l-54.074-31.246z" fill-rule="evenodd"/>
 <path d="m545.87 1044h108.27l-54.133-31.273z" fill-rule="evenodd"/>
 <path d="m612.12 645.86v76.262l65.879 38.016 32.879-18.984 33.121-19.152v-76.031l-66-38.125z" fill-rule="evenodd"/>
 <path d="m689.89 780.97v76.031l66 38.137 65.883-38.016v-76.273l-65.883-38.004z" fill-rule="evenodd"/>
 <path d="m768.12 645.86v76.262l65.855 38.004 32.867-18.984 33.156-19.164v-75.984l-66.012-38.137z" fill-rule="evenodd"/>
 <path d="m845.86 856.98 66.012 38.137 65.867-38.004v-76.262l-65.855-37.992-66.023 38.137z" fill-rule="evenodd"/>
 <path d="m977.73 510.85-65.855-37.992-66.023 38.148v75.973l66.012 38.137 65.867-37.992z" fill-rule="evenodd"/>
 <path d="m233.87 1044h108.27l-54.133-31.273z" fill-rule="evenodd"/>
 <path d="m689.89 510.97v76.031l66 38.137 65.883-38.016v-76.262l-65.883-38.016z" fill-rule="evenodd"/>
 <path d="m486.25 628.4-30.254 17.473v76.227l36 20.781 29.941 17.293 65.938-38.051v-76.262l-65.938-38.051z" fill-rule="evenodd"/>
 <path d="m534.01 510.85v76.273l65.953 38.039 65.926-38.039v-76.273l-65.926-38.039z" fill-rule="evenodd"/>
 <path d="m900 915.98-66.012-38.125-65.867 38.004v76.262l65.938 38.051 65.941-38.051z" fill-rule="evenodd"/>
 <path d="m444 742.81-30.254 17.449-35.688 20.625v76.215l34.512 19.93 31.43 18.145 50.879-29.375 15.062-8.6875v-76.238l-30.254-17.473z" fill-rule="evenodd"/>
 <path d="m534.01 780.85v76.262l65.953 38.051 65.926-38.051v-76.262l-65.926-38.051z" fill-rule="evenodd"/>
 <path d="m924.25 915.86v76.262l65.926 38.051 53.82-31.055v-90.254l-53.82-31.055z" fill-rule="evenodd"/>
 <path d="m275.88 452.14v-76.273l-65.938-38.051-53.941 31.129v90.105l53.941 31.129z" fill-rule="evenodd"/>
 <path d="m186.02 323.99h-30.023v17.352l8.9883-5.1719z" fill-rule="evenodd"/>
 <path d="m321.1 336.17 21.047-12.18h-108.28l54.133 31.273z" fill-rule="evenodd"/>
 <path d="m456 452.11 36 20.781 29.941 17.281 65.938-38.039v-76.273l-65.938-38.051-65.941 38.051z" fill-rule="evenodd"/>
 <path d="m300.12 452.1 40.812 23.578 25.125 14.496 43.848-25.309 22.094-12.754v-76.25l-65.941-38.051-65.938 38.051z" fill-rule="evenodd"/>
 <path d="m857.99 1044h108.27l-54.133-31.273z" fill-rule="evenodd"/>
 <path d="m156 1026.7v17.34h30.012z" fill-rule="evenodd"/>
 <path d="m198.18 586.97v-75.949l-42.18-24.359v124.68l8.9883-5.1836z" fill-rule="evenodd"/>
 <path d="m275.88 992.12v-76.262l-65.938-38.051-53.941 31.129v90.105l53.941 31.129z" fill-rule="evenodd"/>
 <path d="m275.88 722.12v-76.262l-65.938-38.051-53.941 31.129v90.105l53.941 31.129z" fill-rule="evenodd"/>
 <path d="m198.18 856.97v-75.949l-42.18-24.359v124.68l8.9883-5.1836z" fill-rule="evenodd"/>
 <path d="m476.99 336.17 21.035-12.18h-108.04l54.012 31.211z" fill-rule="evenodd"/>
 <path d="m1044 323.99h-29.891l29.891 17.27z" fill-rule="evenodd"/>
 <path d="m924.25 645.86v76.262l65.926 38.051 53.82-31.055v-90.254l-53.82-31.055z" fill-rule="evenodd"/>
 <path d="m1001.7 586.84 42.254 24.422v-124.53l-42.254 24.41z" fill-rule="evenodd"/>
 <path d="m1001.7 856.84 42.254 24.422v-124.53l-42.254 24.41z" fill-rule="evenodd"/>
 <path d="m1044 1044v-17.27l-29.891 17.27z" fill-rule="evenodd"/>
 <path d="m945.23 336.17 21.039-12.18h-108.28l54.145 31.273z" fill-rule="evenodd"/>
 <path d="m789.11 336.17 21.035-12.18h-108.16l54.07 31.246z" fill-rule="evenodd"/>
 <path d="m924.25 452.14 65.926 38.039 53.82-31.055v-90.254l-53.82-31.055-65.926 38.051z" fill-rule="evenodd"/>
 <path d="m612.12 452.14 65.879 38.004 32.879-18.984 33.121-19.141v-76.152l-65.941-38.051-65.938 38.051z" fill-rule="evenodd"/>
 <path d="m768.12 452.14 65.855 37.992 32.867-18.973 33.156-19.176v-76.117l-65.941-38.051-65.938 38.051z" fill-rule="evenodd"/>
 <path d="m633.11 336.17 21.047-12.18h-108.29l54.133 31.273z" fill-rule="evenodd"/>
</svg>
