<?xml version="1.0" encoding="UTF-8"?>
<svg width="1200pt" height="1200pt" version="1.1" viewBox="0 0 1200 1200" xmlns="http://www.w3.org/2000/svg">
 <path d="m552.09 37.129c7.5156-5.3242 16.062-7.9414 24.465-7.6719 9.7656 0.31641 19.215 4.4961 26.555 12.812 0.44531 0.50781 0.5625 0.63281 0.60547 0.68359 2.5312 2.9961 4.4336 5.293 6.3789 7.6484 11.621 14.055 24.645 29.805 39.871 39.461 8.2695 5.2461 18.312 8.0352 28.051 7.3867 8.4805-0.5625 16.727-3.793 23.266-10.371 2.8828-2.8984 7.5664-2.9102 10.465-0.027344 2.8984 2.8828 2.9102 7.5664 0.027344 10.465-9.2891 9.3477-20.918 13.926-32.832 14.719-7.9922 0.53125-16.113-0.66797-23.707-3.2969-42.688 20.414-68.195-10.336-90.75-37.539-5.2539-6.3359-10.332-12.461-15.168-17.301-0.59375-0.59375-1.0742-1.0625-1.4414-1.3945-5.7734-5.2734-13.973-10.137-22.531-11.84-7.6992-1.5352-15.691-0.30859-22.094 6.0859-0.42578 0.42578-0.72266 0.73047-0.88672 0.91016-2.7539 3.0117-7.4258 3.2188-10.438 0.46484-3.0117-2.7539-3.2188-7.4258-0.46484-10.438 0.57422-0.62891 1.0234-1.1055 1.3516-1.4297 10.496-10.488 23.266-12.566 35.43-10.145 8.6719 1.7266 17.027 5.8711 23.848 10.812zm114.28 1100.7c-4.0977 0-7.4219-3.3242-7.4219-7.4219 0-4.0977 3.3242-7.4219 7.4219-7.4219 39.355 0 69.559 5.2812 94.215 13.129 24.762 7.8828 43.637 18.223 60.531 28.406 27.641 16.652 62.945 24.434 95.035 19.531 27.551-4.207 52.652-17.875 68.121-43.484 0.71094-1.1797 1.4141-2.457 2.1016-3.8164-8.8594-0.90234-17.074-2.9766-24.434-5.9375-11.422-4.5938-20.852-11.34-27.531-19.191-4.9102-5.7734-8.457-12.293-10.633-19.035-2.8281-8.7578-3.3125-17.902-1.4414-26.297 1.9297-8.668 6.3398-16.527 13.25-22.402 3.9336-3.3438 8.6719-6.0234 14.215-7.8125 1.7891-0.57812 3.6055-1.0391 5.4258-1.3789 10.062-1.8828 20.945-0.3125 30.477 5.3242 9.3789 5.5469 17.387 14.977 21.863 28.84 0.91016 2.8242 1.6719 5.8125 2.2617 8.9648 2.1367 11.426 1.5977 23.961-0.54688 35.672-0.48828 2.6758-1.0664 5.3164-1.7109 7.8945 5.9883-1.1875 11.844-3.3398 17.328-6.3477 8.543-4.6836 16.133-11.43 21.855-19.828 9.0781-13.32 11.867-28.68 10.672-44.223-1.5273-19.871-9.5156-40.055-19.352-56.938-26.5-45.473-39.242-98.598-43.082-154.84-3.8047-55.734 1.1602-114.61 10.117-172.11 0.625-4.0352 4.4023-6.8008 8.4375-6.1758s6.8008 4.4023 6.1758 8.4375c-8.793 56.457-13.672 114.23-9.9414 168.86 3.6953 54.121 15.859 105.07 41.109 148.4 10.812 18.555 19.605 40.926 21.324 63.258 1.4336 18.648-2.0312 37.25-13.223 53.676-7.0664 10.367-16.43 18.691-26.957 24.465-9.168 5.0273-19.258 8.1328-29.535 8.9844-1.7109 4.1992-3.5859 7.9922-5.5273 11.207-18 29.797-46.949 45.66-78.617 50.5-35.465 5.418-74.43-3.1484-104.89-21.504-16.199-9.7617-34.207-19.648-57.344-27.012-23.242-7.3984-51.949-12.375-89.75-12.375zm325.61-15.477c1.0898-3.6602 2.0273-7.5352 2.7578-11.523 1.8438-10.074 2.3281-20.738 0.54688-30.277-0.48047-2.5742-1.0859-4.9609-1.7969-7.168-3.25-10.066-8.8398-16.781-15.312-20.609-6.3203-3.7383-13.539-4.7773-20.215-3.5273-1.25 0.23438-2.4609 0.53906-3.625 0.91797-3.5898 1.1602-6.6445 2.8828-9.1719 5.0312-4.3477 3.6953-7.1367 8.7109-8.3789 14.285-1.3008 5.8438-0.93359 12.309 1.0938 18.586 1.5859 4.9141 4.2031 9.7031 7.8477 13.992 5.1602 6.0703 12.602 11.344 21.73 15.016 7.25 2.918 15.52 4.8086 24.523 5.2812zm-467.82 3.8359c4.082 0.14453 7.2773 3.5703 7.1328 7.6523-0.14453 4.082-3.5703 7.2773-7.6523 7.1328-72.949-2.7578-104.91 16.504-136.78 35.707l-0.89062 0.53906c-30.461 18.355-69.43 26.918-104.89 21.504-31.668-4.8359-60.617-20.699-78.617-50.5-1.9414-3.2148-3.8125-7.0078-5.5273-11.207-10.277-0.85156-20.367-3.957-29.535-8.9844-10.531-5.7734-19.891-14.098-26.957-24.465-11.195-16.426-14.66-35.023-13.223-53.676 1.7188-22.328 10.512-44.699 21.324-63.258 25.27-43.359 38.133-92.812 42.129-146.43 4.0273-54.027-0.94531-112.29-11.324-172.83-0.6875-4.0352 2.0234-7.8633 6.0586-8.5508s7.8633 2.0234 8.5508 6.0586c10.57 61.641 15.621 121.09 11.496 176.42-4.1562 55.742-17.617 107.31-44.102 152.75-9.8359 16.883-17.824 37.066-19.352 56.938-1.1953 15.543 1.5938 30.902 10.672 44.223 5.7227 8.3984 13.312 15.145 21.855 19.828 5.4844 3.0078 11.34 5.1602 17.328 6.3477-0.64844-2.5781-1.2227-5.2188-1.7109-7.8945-2.1445-11.711-2.6836-24.246-0.54688-35.672 0.58984-3.1562 1.3516-6.1445 2.2617-8.9648 4.4766-13.867 12.484-23.293 21.863-28.84 9.5312-5.6367 20.414-7.207 30.477-5.3242 1.8203 0.33984 3.6328 0.80078 5.4258 1.3789 5.543 1.7891 10.281 4.4688 14.215 7.8125 6.9102 5.875 11.32 13.734 13.25 22.402 1.8711 8.3945 1.3867 17.543-1.4414 26.297-2.1758 6.7422-5.7227 13.262-10.633 19.035-6.6758 7.8516-16.109 14.598-27.531 19.191-7.3594 2.957-15.574 5.0312-24.434 5.9375 0.6875 1.3633 1.3867 2.6367 2.1016 3.8164 15.469 25.609 40.57 39.277 68.121 43.484 32.09 4.9023 67.398-2.8789 95.035-19.531l0.89062-0.53906c33.73-20.328 67.57-40.723 144.95-37.793zm-319.46-15.359c0.73047 3.9844 1.668 7.8594 2.7578 11.523 9.0039-0.47266 17.273-2.3633 24.523-5.2812 9.1289-3.6719 16.57-8.9453 21.73-15.016 3.6445-4.2891 6.2617-9.0781 7.8477-13.992 2.0273-6.2773 2.3945-12.742 1.0938-18.586-1.2422-5.5742-4.0312-10.59-8.3789-14.285-2.5234-2.1445-5.582-3.8711-9.1719-5.0312-1.1641-0.375-2.3789-0.68359-3.625-0.91797-6.6758-1.25-13.895-0.21094-20.215 3.5273-6.4688 3.8281-12.062 10.539-15.312 20.609-0.71094 2.207-1.3164 4.5938-1.7969 7.168-1.7852 9.5391-1.2969 20.207 0.54688 30.277zm509.2-3.8359c1.168 3.9219-1.0625 8.0508-4.9883 9.2188-3.9219 1.168-8.0508-1.0625-9.2188-4.9883-0.80078-2.6953-2.3086-5.0898-4.3242-7.1367-3.7383-3.793-9.1914-6.4531-15.309-7.7422-6.3516-1.3359-13.305-1.168-19.773 0.76172-5.1016 1.5195-9.8711 4.125-13.738 7.9375-2.9141 2.8672-7.5977 2.8281-10.465-0.085937-2.8672-2.9141-2.8281-7.5977 0.085938-10.465 5.7031-5.6172 12.594-9.418 19.883-11.59 8.8594-2.6367 18.359-2.875 27.023-1.0508 8.8945 1.8711 17.016 5.9414 22.848 11.859 3.6875 3.7422 6.4648 8.1953 7.9766 13.281zm-16.828 45.754c2.7539-3.0117 7.4258-3.2188 10.438-0.46484 3.0117 2.7539 3.2188 7.4258 0.46484 10.438-0.57422 0.62891-1.0234 1.1055-1.3516 1.4297-10.496 10.488-23.266 12.566-35.43 10.145-8.6719-1.7266-17.027-5.8711-23.848-10.812-7.5156 5.3242-16.062 7.9414-24.465 7.6719-9.7656-0.31641-19.215-4.4961-26.555-12.812-0.44531-0.50781-0.5625-0.63281-0.60547-0.68359-2.5312-2.9961-4.4336-5.293-6.3789-7.6484-11.621-14.055-24.645-29.805-39.871-39.461-8.2695-5.2461-18.312-8.0352-28.051-7.3867-8.4805 0.5625-16.727 3.793-23.266 10.371-2.8828 2.8984-7.5664 2.9102-10.465 0.027343-2.8984-2.8828-2.9102-7.5664-0.027344-10.465 9.2891-9.3477 20.918-13.926 32.832-14.719 7.9922-0.53125 16.113 0.66797 23.707 3.2969 42.688-20.414 68.195 10.336 90.75 37.539 5.2539 6.3359 10.332 12.461 15.168 17.301 0.59375 0.59375 1.0742 1.0625 1.4414 1.3945 5.7734 5.2734 13.973 10.137 22.531 11.84 7.6992 1.5352 15.691 0.30859 22.094-6.0859 0.42578-0.42578 0.72266-0.73047 0.88672-0.91016zm-61.082 0.40625c-4.1836-4.5195-8.2656-9.4414-12.457-14.496-16.715-20.156-35.344-42.617-61.492-37.512 15.082 10.816 27.52 25.855 38.727 39.41 2.3555 2.8477 4.6641 5.6406 6.2617 7.5312 0.36719 0.4375 0.25781 0.32031 0.375 0.45312 4.4883 5.0859 10.156 7.6367 15.945 7.8281 4.2188 0.13672 8.5625-0.95703 12.645-3.2109zm-144.63 10.785c-2.7852-2.9922-2.6172-7.6797 0.375-10.465 2.9922-2.7852 7.6797-2.6172 10.465 0.375 3.0117 3.2266 7.0586 5.5273 11.586 6.9141 5.8008 1.7773 12.332 2.043 18.547 0.83203 6.043-1.1758 11.676-3.7461 15.875-7.668 2.8125-2.6289 4.9844-5.8906 6.1758-9.7734 1.1992-3.9062 5.3398-6.1016 9.2461-4.8984 3.9062 1.1992 6.1016 5.3398 4.8984 9.2461-1.9922 6.5-5.5898 11.93-10.234 16.266-6.2969 5.8828-14.512 9.6914-23.18 11.379-8.4961 1.6523-17.535 1.2578-25.68-1.2383-6.9141-2.1211-13.215-5.7617-18.078-10.973zm41.707-1101.1c4.0977 0 7.4219 3.3242 7.4219 7.4219 0 4.0977-3.3242 7.4219-7.4219 7.4219-39.355 0-69.559-5.2812-94.215-13.129-24.762-7.8828-43.637-18.223-60.531-28.406-27.641-16.652-62.945-24.434-95.035-19.531-27.551 4.207-52.652 17.875-68.121 43.484-0.71094 1.1797-1.4141 2.457-2.1016 3.8164 8.8594 0.90234 17.074 2.9766 24.434 5.9375 11.422 4.5938 20.852 11.34 27.531 19.191 4.9102 5.7734 8.457 12.293 10.633 19.035 2.8281 8.7578 3.3125 17.902 1.4414 26.297-1.9297 8.668-6.3398 16.527-13.25 22.402-3.9336 3.3438-8.6719 6.0234-14.215 7.8125-1.7891 0.57812-3.6055 1.0391-5.4258 1.3789-10.062 1.8828-20.945 0.3125-30.477-5.3242-9.3789-5.5469-17.387-14.977-21.863-28.84-0.91016-2.8242-1.6719-5.8125-2.2617-8.9648-2.1367-11.426-1.5977-23.961 0.54688-35.672 0.48828-2.6758 1.0664-5.3164 1.7109-7.8945-5.9883 1.1875-11.844 3.3398-17.328 6.3477-8.543 4.6836-16.133 11.43-21.855 19.828-9.0781 13.32-11.867 28.68-10.672 44.223 1.5273 19.871 9.5156 40.055 19.352 56.938 26.5 45.473 39.242 98.598 43.082 154.84 3.8047 55.734-1.1602 114.61-10.117 172.11-0.625 4.0352-4.4023 6.8008-8.4375 6.1758-4.0352-0.625-6.8008-4.4023-6.1758-8.4375 8.793-56.457 13.672-114.23 9.9414-168.86-3.6953-54.121-15.859-105.07-41.109-148.4-10.812-18.555-19.605-40.926-21.324-63.258-1.4336-18.648 2.0312-37.25 13.223-53.676 7.0664-10.367 16.43-18.691 26.957-24.465 9.168-5.0273 19.258-8.1328 29.535-8.9844 1.7109-4.1992 3.5859-7.9922 5.5273-11.207 18-29.797 46.949-45.66 78.617-50.5 35.465-5.418 74.43 3.1484 104.89 21.504 16.199 9.7617 34.207 19.648 57.344 27.012 23.242 7.3984 51.949 12.375 89.75 12.375zm-325.61 15.477c-1.0898 3.6602-2.0273 7.5352-2.7578 11.523-1.8438 10.074-2.3281 20.738-0.54688 30.277 0.48047 2.5742 1.0859 4.9609 1.7969 7.168 3.25 10.066 8.8398 16.781 15.312 20.609 6.3203 3.7383 13.539 4.7773 20.215 3.5273 1.25-0.23438 2.4609-0.53906 3.625-0.91797 3.5898-1.1602 6.6445-2.8828 9.1719-5.0312 4.3477-3.6953 7.1367-8.7109 8.3789-14.285 1.3008-5.8438 0.93359-12.309-1.0938-18.586-1.5859-4.9141-4.2031-9.7031-7.8477-13.992-5.1602-6.0703-12.602-11.344-21.73-15.016-7.25-2.918-15.52-4.8086-24.523-5.2812zm824.69 632c-3.8594 1.3438-8.0781-0.69141-9.4219-4.5508s0.69141-8.0781 4.5508-9.4219c4.4688-1.5586 7.9844-3.8867 10.66-6.7383 4.043-4.3125 6.2539-9.9922 6.9531-16.133 0.74609-6.5352-0.19922-13.527-2.4727-20.023-2.3711-6.7891-6.1523-12.961-10.93-17.438-2.9766-2.8008-3.1211-7.4883-0.32031-10.465 2.8008-2.9766 7.4883-3.1211 10.465-0.32031 6.5117 6.1055 11.617 14.371 14.758 23.352 2.9883 8.5508 4.2227 17.824 3.2266 26.578-1.043 9.1445-4.5 17.773-10.898 24.598-4.2344 4.5156-9.7109 8.168-16.57 10.566zm-41.883-19.883c3.0273 2.7539 3.2461 7.4414 0.49219 10.465-2.7539 3.0273-7.4414 3.2461-10.465 0.49219-0.38281-0.35156-0.83984-0.79297-1.3672-1.3203-10.035-10.047-12.023-22.258-9.707-33.887 1.6914-8.5 5.8164-16.672 10.703-23.27-0.21484-0.19531-0.42188-0.39062-0.62891-0.58594-5.4492-5.2188-7.8633-11.156-7.8438-17.547 0.019531-5.9023 2.1953-11.859 5.9961-17.719 2.2109-3.4102 4.9805-6.8086 8.1875-10.156 4.5625-4.7617 9.5898-9.4336 14.758-14.234 17.641-16.395 37.039-34.422 37.422-56.332 0.089844-5.0938-1.0312-9.9688-3.1953-14.254-2.125-4.2031-5.25-7.832-9.2266-10.527-3.3789-2.2891-4.2617-6.8828-1.9727-10.262 2.2891-3.3789 6.8828-4.2617 10.262-1.9727 6.1289 4.1562 10.926 9.6992 14.152 16.094 3.2266 6.3828 4.8906 13.621 4.7617 21.152-0.125 7.1523-1.6172 13.793-4.0938 20.023 18.797 40.262-10.254 64.352-35.965 85.672-5.9922 4.9688-11.785 9.7734-16.348 14.328-0.56641 0.5625-1.0039 1.0156-1.3086 1.3516-4.9492 5.4141-9.5078 13.109-11.109 21.133-1.4297 7.168-0.29297 14.605 5.6484 20.551 0.18359 0.1875 0.46875 0.45313 0.84766 0.79688zm-0.27734-58.371c4.1094-3.7617 8.5469-7.4414 13.094-11.215 18.738-15.535 39.586-32.828 35.531-56.879-7.9648 10.805-18.293 20.402-28.133 29.551-5.0547 4.6953-9.9727 9.2656-14.176 13.656-2.5859 2.6992-4.7695 5.3633-6.4492 7.9531-2.293 3.5391-3.6094 6.8164-3.6172 9.6562-0.007812 2.3555 1.0156 4.668 3.3203 6.8789 0.14062 0.13281 0.28516 0.26953 0.43359 0.40234zm-10.852-136.3c2.9922-2.7852 7.6797-2.6172 10.465 0.375 2.7852 2.9922 2.6172 7.6797-0.375 10.465-3 2.8008-5.1406 6.5703-6.4336 10.789-1.6641 5.4258-1.9102 11.543-0.77734 17.363 1.0977 5.6484 3.5 10.91 7.1602 14.828 2.4414 2.6133 5.4727 4.6328 9.0742 5.7344 3.9062 1.1992 6.1016 5.3398 4.8984 9.2461-1.1992 3.9062-5.3398 6.1016-9.2461 4.8984-6.2227-1.9062-11.418-5.3516-15.57-9.793-5.6211-6.0156-9.2578-13.859-10.867-22.137-1.5781-8.1016-1.1992-16.727 1.1836-24.496 2.0273-6.6094 5.5117-12.629 10.492-17.285zm-808.5 200.58c3.8594 1.3438 5.8945 5.5625 4.5508 9.4219s-5.5625 5.8945-9.4219 4.5508c-6.8633-2.3984-12.34-6.0508-16.57-10.566-6.3984-6.8242-9.8555-15.453-10.898-24.598-0.99609-8.75 0.23828-18.027 3.2266-26.578 3.1367-8.9844 8.2422-17.246 14.758-23.352 2.9766-2.8008 7.6641-2.6602 10.465 0.32031 2.8008 2.9766 2.6602 7.6641-0.32031 10.465-4.7773 4.4766-8.5586 10.652-10.93 17.438-2.2695 6.5-3.2148 13.492-2.4727 20.023 0.69922 6.1406 2.9102 11.82 6.9531 16.133 2.6719 2.8516 6.1914 5.1797 10.66 6.7383zm46.984 5.0469c-3.0273 2.7539-7.7109 2.5312-10.465-0.49219-2.7539-3.0273-2.5312-7.7109 0.49219-10.465 0.37891-0.34766 0.66016-0.61328 0.84766-0.79688 5.9414-5.9453 7.0781-13.383 5.6484-20.551-1.5977-8.0234-6.1602-15.719-11.109-21.133-0.30469-0.33594-0.74219-0.78516-1.3086-1.3516-4.5625-4.5586-10.355-9.3594-16.348-14.328-25.711-21.32-54.766-45.41-35.965-85.672-2.4766-6.2305-3.9688-12.871-4.0938-20.023-0.13281-7.5352 1.5352-14.77 4.7617-21.152 3.2305-6.3906 8.0234-11.938 14.152-16.094 3.3789-2.2891 7.9727-1.4062 10.262 1.9727 2.2891 3.3789 1.4062 7.9727-1.9727 10.262-3.9766 2.6953-7.1016 6.3242-9.2266 10.527-2.1641 4.2852-3.2812 9.1602-3.1953 14.254 0.37891 21.906 19.781 39.938 37.422 56.332 5.168 4.8008 10.191 9.4727 14.758 14.234 3.207 3.3477 5.9766 6.7461 8.1875 10.156 3.8008 5.8594 5.9766 11.816 5.9961 17.719 0.019531 6.3906-2.3945 12.324-7.8438 17.547-0.20313 0.19531-0.41406 0.39062-0.62891 0.58594 4.8867 6.5977 9.0117 14.773 10.703 23.27 2.3164 11.629 0.32812 23.844-9.707 33.887-0.52734 0.52734-0.98438 0.96875-1.3672 1.3203zm-58.32-137.43c-4.0547 24.055 16.793 41.344 35.531 56.879 4.5508 3.7734 8.9883 7.4531 13.094 11.215 0.14844-0.13281 0.29297-0.26562 0.43359-0.40234 2.3047-2.207 3.3281-4.5234 3.3203-6.8789-0.007812-2.8398-1.3203-6.1211-3.6172-9.6562-1.6797-2.5898-3.8633-5.2539-6.4492-7.9531-4.207-4.3906-9.1211-8.957-14.176-13.656-9.8398-9.1445-20.168-18.746-28.133-29.551zm50.699-57.359c-2.9922-2.7852-3.1641-7.4727-0.375-10.465 2.7852-2.9922 7.4727-3.1641 10.465-0.375 4.9844 4.6523 8.4688 10.676 10.492 17.285 2.3828 7.7695 2.7578 16.395 1.1836 24.496-1.6094 8.2734-5.25 16.117-10.867 22.137-4.1484 4.4453-9.3477 7.8867-15.57 9.793-3.9062 1.1992-8.0469-0.99219-9.2461-4.8984s0.99219-8.0469 4.8984-9.2461c3.6055-1.1055 6.6328-3.1211 9.0742-5.7344 3.6602-3.918 6.0586-9.1836 7.1602-14.828 1.1328-5.8203 0.88672-11.938-0.77734-17.363-1.293-4.2188-3.4336-7.9883-6.4336-10.789zm465.29-432.13c-4.082-0.14453-7.2773-3.5703-7.1328-7.6523 0.14453-4.082 3.5703-7.2773 7.6523-7.1328 72.949 2.7578 104.91-16.504 136.78-35.707l0.89062-0.53906c30.461-18.355 69.43-26.918 104.89-21.504 31.668 4.8359 60.617 20.699 78.617 50.5 1.9414 3.2148 3.8125 7.0078 5.5273 11.207 10.277 0.85156 20.367 3.957 29.535 8.9844 10.531 5.7734 19.891 14.098 26.957 24.465 11.195 16.426 14.66 35.023 13.223 53.676-1.7188 22.328-10.512 44.699-21.324 63.258-25.27 43.359-38.133 92.812-42.129 146.43-4.0273 54.027 0.94531 112.29 11.324 172.83 0.6875 4.0352-2.0234 7.8633-6.0586 8.5508s-7.8633-2.0234-8.5508-6.0586c-10.57-61.641-15.621-121.09-11.496-176.42 4.1562-55.742 17.617-107.31 44.102-152.75 9.8359-16.883 17.824-37.066 19.352-56.938 1.1953-15.543-1.5938-30.902-10.672-44.223-5.7227-8.3984-13.312-15.145-21.855-19.828-5.4844-3.0078-11.34-5.1602-17.328-6.3477 0.64844 2.5781 1.2227 5.2188 1.7109 7.8945 2.1445 11.711 2.6836 24.246 0.54688 35.672-0.58984 3.1562-1.3516 6.1445-2.2617 8.9648-4.4766 13.867-12.484 23.293-21.863 28.84-9.5312 5.6367-20.414 7.207-30.477 5.3242-1.8203-0.33984-3.6328-0.80078-5.4258-1.3789-5.543-1.7891-10.281-4.4688-14.215-7.8125-6.9102-5.875-11.32-13.734-13.25-22.402-1.8711-8.3945-1.3867-17.543 1.4414-26.297 2.1758-6.7422 5.7227-13.262 10.633-19.035 6.6758-7.8516 16.109-14.598 27.531-19.191 7.3594-2.957 15.574-5.0312 24.434-5.9375-0.6875-1.3633-1.3867-2.6367-2.1016-3.8164-15.469-25.609-40.57-39.277-68.121-43.484-32.09-4.9023-67.398 2.8789-95.035 19.531l-0.89062 0.53906c-33.73 20.328-67.57 40.723-144.95 37.793zm319.46 15.359c-0.73047-3.9844-1.668-7.8594-2.7578-11.523-9.0039 0.47266-17.273 2.3633-24.523 5.2812-9.1289 3.6719-16.57 8.9453-21.73 15.016-3.6445 4.2891-6.2617 9.0781-7.8477 13.992-2.0273 6.2773-2.3945 12.742-1.0938 18.586 1.2422 5.5742 4.0312 10.59 8.3789 14.285 2.5234 2.1445 5.582 3.8711 9.1719 5.0312 1.1641 0.375 2.3789 0.68359 3.625 0.91797 6.6758 1.25 13.895 0.21094 20.215-3.5273 6.4688-3.8281 12.062-10.539 15.312-20.609 0.71094-2.207 1.3164-4.5938 1.7969-7.168 1.7852-9.5391 1.2969-20.207-0.54688-30.277zm-509.2 3.8359c-1.168-3.9219 1.0625-8.0508 4.9883-9.2188 3.9219-1.168 8.0508 1.0625 9.2188 4.9883 0.80078 2.6953 2.3086 5.0898 4.3242 7.1367 3.7383 3.793 9.1914 6.4531 15.309 7.7422 6.3516 1.3359 13.305 1.168 19.773-0.76172 5.1016-1.5195 9.8711-4.125 13.738-7.9375 2.9141-2.8672 7.5977-2.8281 10.465 0.085938 2.8672 2.9141 2.8281 7.5977-0.085938 10.465-5.7031 5.6172-12.594 9.418-19.883 11.59-8.8594 2.6367-18.359 2.875-27.023 1.0508-8.8945-1.8711-17.016-5.9414-22.848-11.859-3.6875-3.7422-6.4648-8.1953-7.9766-13.281zm151.86 5.8477c-15.082-10.816-27.52-25.855-38.727-39.41-2.3555-2.8477-4.6641-5.6406-6.2617-7.5312-0.36719-0.4375-0.25781-0.32031-0.375-0.45312-4.4883-5.0859-10.156-7.6367-15.945-7.8281-4.2188-0.13672-8.5625 0.95703-12.645 3.2109 4.1836 4.5195 8.2656 9.4414 12.457 14.496 16.715 20.156 35.344 42.617 61.492 37.512zm70.684-62.793c2.7852 2.9922 2.6172 7.6797-0.375 10.465-2.9922 2.7852-7.6797 2.6172-10.465-0.375-3.0117-3.2266-7.0586-5.5273-11.586-6.9141-5.8008-1.7773-12.332-2.043-18.547-0.83203-6.043 1.1758-11.676 3.7461-15.875 7.668-2.8125 2.6289-4.9844 5.8906-6.1758 9.7734-1.1992 3.9062-5.3398 6.1016-9.2461 4.8984-3.9062-1.1992-6.1016-5.3398-4.8984-9.2461 1.9922-6.5 5.5898-11.93 10.234-16.266 6.2969-5.8828 14.512-9.6914 23.18-11.379 8.4961-1.6523 17.535-1.2578 25.68 1.2383 6.9141 2.1211 13.215 5.7617 18.078 10.973z"/>
</svg>
