<?xml version="1.0" encoding="UTF-8"?>
<svg width="1200pt" height="1200pt" version="1.1" viewBox="0 0 1200 1200" xmlns="http://www.w3.org/2000/svg">
 <path d="m600 48c-304.78 0-552 247.22-552 552s247.22 552 552 552 552-247.22 552-552-247.22-552-552-552zm0 1056c-278.39 0-504-225.61-504-504s225.61-504 504-504 504 225.61 504 504-225.61 504-504 504z"/>
 <path d="m903.61 292.78c-9.6094-9.6094-25.219-9.6094-33.609 0-9.6094 9.6094-9.6094 25.219 0 33.609 73.219 73.219 114 170.39 114 273.61 0 99.609-38.391 194.39-106.78 266.39-9.6094 9.6094-8.3906 25.219 1.2188 33.609 4.7812 4.7812 10.781 7.2188 16.781 7.2188s12-2.3906 16.781-7.2188c78-80.391 120-187.22 120-298.78 0-117.61-45.609-226.82-128.39-308.44z"/>
 <path d="m818.39 376.78c-9.6094-9.6094-25.219-9.6094-33.609 0-9.6094 9.6094-9.6094 25.219 0 33.609 50.438 50.391 79.219 117.61 79.219 189.61 0 68.391-26.391 132-73.219 181.22-9.6094 9.6094-8.3906 25.219 1.2188 33.609 4.7812 4.7812 10.781 7.2188 16.781 7.2188s13.219-2.3906 16.781-7.2188c56.438-57.609 86.438-134.44 86.438-214.82 0-85.219-33.609-164.39-93.609-223.22z"/>
 <path d="m216 600c0-103.22 40.781-200.39 114-272.39 9.6094-9.6094 9.6094-24 0-33.609s-24-9.6094-33.609 0c-82.781 80.391-128.39 189.61-128.39 306 0 111.61 43.219 218.39 120 298.78 4.7812 4.7812 10.781 7.2188 16.781 7.2188s12-2.3906 16.781-7.2188c9.6094-9.6094 9.6094-24 1.2188-33.609-68.391-70.781-106.78-165.56-106.78-265.18z"/>
 <path d="m336 600c0-72 28.781-139.22 79.219-188.39 9.6094-9.6094 9.6094-24 0-33.609s-24-9.6094-33.609 0c-60 57.609-93.609 136.78-93.609 222 0 80.391 30 157.22 86.391 214.78 4.7812 4.7812 10.781 7.2188 16.781 7.2188s12-2.3906 16.781-7.2188c9.6094-9.6094 9.6094-24 1.2188-33.609-46.781-49.172-73.172-112.78-73.172-181.18z"/>
 <path d="m600 408c-105.61 0-192 86.391-192 192s86.391 192 192 192 192-86.391 192-192-86.391-192-192-192zm0 336c-79.219 0-144-64.781-144-144s64.781-144 144-144 144 64.781 144 144-64.781 144-144 144z"/>
 <path d="m600 502.78c-52.781 0-97.219 43.219-97.219 97.219s43.219 97.219 97.219 97.219 97.219-43.219 97.219-97.219-44.438-97.219-97.219-97.219zm0 146.44c-26.391 0-49.219-21.609-49.219-49.219s21.609-49.219 49.219-49.219 49.219 21.609 49.219 49.219-22.828 49.219-49.219 49.219z"/>
</svg>
