<?xml version="1.0" encoding="UTF-8"?>
<svg width="1200pt" height="1200pt" version="1.1" viewBox="0 0 1200 1200" xmlns="http://www.w3.org/2000/svg">
 <path d="m159.38 590.62h225v-393.75h-225c-19.891 0-38.969 7.9023-53.031 21.969-14.066 14.062-21.969 33.141-21.969 53.031v243.75c0 19.891 7.9023 38.969 21.969 53.031 14.062 14.066 33.141 21.969 53.031 21.969zm84.375-271.88c19.891 0 38.969 7.9023 53.031 21.969 14.066 14.062 21.969 33.141 21.969 53.031s-7.9023 38.969-21.969 53.031c-14.062 14.066-33.141 21.969-53.031 21.969s-38.969-7.9023-53.031-21.969c-14.066-14.062-21.969-33.141-21.969-53.031s7.9023-38.969 21.969-53.031c14.062-14.066 33.141-21.969 53.031-21.969z"/>
 <path d="m1040.6 196.88h-600v393.75h600c19.891 0 38.969-7.9023 53.031-21.969 14.066-14.062 21.969-33.141 21.969-53.031v-243.75c0-19.891-7.9023-38.969-21.969-53.031-14.062-14.066-33.141-21.969-53.031-21.969zm-190.46 284.45c-3.3359 6.6719-9.1836 11.742-16.258 14.102-7.0703 2.3594-14.793 1.8125-21.465-1.5195l-7.3984-3.6992h0.003907c-4.8906 4.2031-11.098 6.5625-17.543 6.6641-7.457-0.003906-14.609-2.9648-19.887-8.2383-5.2734-5.2773-8.2344-12.43-8.2383-19.887v-1.375l-18.75-9.375v10.75c0 10.047-5.3594 19.332-14.062 24.355-8.7031 5.0273-19.422 5.0273-28.125 0-8.7031-5.0234-14.062-14.309-14.062-24.355v-38.867l-18.75-9.375v48.242c0 10.047-5.3594 19.332-14.062 24.355-8.7031 5.0273-19.422 5.0273-28.125 0-8.7031-5.0234-14.062-14.309-14.062-24.355v-76.363l-18.75-9.375v85.738c0 10.047-5.3594 19.332-14.062 24.355-8.7031 5.0273-19.422 5.0273-28.125 0-8.7031-5.0234-14.062-14.309-14.062-24.355v-113.86l-21.953-10.977c-6.6875-3.332-11.773-9.1797-14.141-16.266-2.3672-7.082-1.8203-14.816 1.5195-21.496 3.3398-6.6797 9.1992-11.754 16.285-14.109 7.0859-2.3594 14.82-1.7969 21.492 1.5508l7.3789 3.6914c4.8945-4.1953 11.098-6.5508 17.543-6.6562 7.457 0.003906 14.609 2.9648 19.887 8.2383 5.2734 5.2773 8.2344 12.43 8.2383 19.887v1.3633l18.75 9.375v-10.738c0-10.047 5.3594-19.332 14.062-24.355 8.7031-5.0273 19.422-5.0273 28.125 0 8.7031 5.0234 14.062 14.309 14.062 24.355v38.867l18.75 9.375v-48.242c0-10.047 5.3594-19.332 14.062-24.355 8.7031-5.0273 19.422-5.0273 28.125 0 8.7031 5.0234 14.062 14.309 14.062 24.355v76.375l18.75 9.375v-85.75c0-10.047 5.3594-19.332 14.062-24.355 8.7031-5.0273 19.422-5.0273 28.125 0 8.7031 5.0234 14.062 14.309 14.062 24.355v113.88l21.938 10.969v-0.003906c6.6797 3.332 11.758 9.1797 14.121 16.258 2.3633 7.0781 1.8164 14.809-1.5234 21.48zm115.46-12.578c0 10.047-5.3594 19.332-14.062 24.355-8.7031 5.0273-19.422 5.0273-28.125 0-8.7031-5.0234-14.062-14.309-14.062-24.355v-150c0-10.047 5.3594-19.332 14.062-24.355 8.7031-5.0273 19.422-5.0273 28.125 0 8.7031 5.0234 14.062 14.309 14.062 24.355zm75 0c0 10.047-5.3594 19.332-14.062 24.355-8.7031 5.0273-19.422 5.0273-28.125 0-8.7031-5.0234-14.062-14.309-14.062-24.355v-150c0-10.047 5.3594-19.332 14.062-24.355 8.7031-5.0273 19.422-5.0273 28.125 0 8.7031 5.0234 14.062 14.309 14.062 24.355z"/>
 <path d="m159.38 1040.6h225v-393.75h-225c-19.891 0-38.969 7.9023-53.031 21.969-14.066 14.062-21.969 33.141-21.969 53.031v243.75c0 19.891 7.9023 38.969 21.969 53.031 14.062 14.066 33.141 21.969 53.031 21.969zm84.375-271.88c19.891 0 38.969 7.9023 53.031 21.969 14.066 14.062 21.969 33.141 21.969 53.031s-7.9023 38.969-21.969 53.031c-14.062 14.066-33.141 21.969-53.031 21.969s-38.969-7.9023-53.031-21.969c-14.066-14.062-21.969-33.141-21.969-53.031s7.9023-38.969 21.969-53.031c14.062-14.066 33.141-21.969 53.031-21.969z"/>
 <path d="m1040.6 646.88h-600v393.75h600c19.891 0 38.969-7.9023 53.031-21.969 14.066-14.062 21.969-33.141 21.969-53.031v-243.75c0-19.891-7.9023-38.969-21.969-53.031-14.062-14.066-33.141-21.969-53.031-21.969zm-190.46 284.45c-3.3359 6.6719-9.1836 11.742-16.258 14.102-7.0703 2.3594-14.793 1.8125-21.465-1.5195l-7.3984-3.6992h0.003907c-4.8906 4.2031-11.098 6.5586-17.543 6.6641-7.457-0.003906-14.609-2.9648-19.887-8.2383-5.2734-5.2773-8.2344-12.43-8.2383-19.887v-1.375l-18.75-9.375v10.75c0 10.047-5.3594 19.332-14.062 24.355-8.7031 5.0273-19.422 5.0273-28.125 0-8.7031-5.0234-14.062-14.309-14.062-24.355v-38.867l-18.75-9.375v48.242c0 10.047-5.3594 19.332-14.062 24.355-8.7031 5.0273-19.422 5.0273-28.125 0-8.7031-5.0234-14.062-14.309-14.062-24.355v-76.363l-18.75-9.375v85.738c0 10.047-5.3594 19.332-14.062 24.355-8.7031 5.0273-19.422 5.0273-28.125 0-8.7031-5.0234-14.062-14.309-14.062-24.355v-113.86l-21.953-10.977c-8.9727-4.5039-14.863-13.449-15.461-23.469-0.59375-10.023 4.1953-19.602 12.57-25.137 8.3711-5.5352 19.062-6.1875 28.047-1.7148l7.3789 3.6914c4.8945-4.1953 11.098-6.5508 17.543-6.6562 7.457 0.003906 14.609 2.9648 19.887 8.2383 5.2734 5.2773 8.2344 12.43 8.2383 19.887v1.3633l18.75 9.375v-10.738c0-10.047 5.3594-19.332 14.062-24.355 8.7031-5.0273 19.422-5.0273 28.125 0 8.7031 5.0234 14.062 14.309 14.062 24.355v38.867l18.75 9.375v-48.242c0-10.047 5.3594-19.332 14.062-24.355 8.7031-5.0273 19.422-5.0273 28.125 0 8.7031 5.0234 14.062 14.309 14.062 24.355v76.375l18.75 9.375v-85.75c0-10.047 5.3594-19.332 14.062-24.355 8.7031-5.0273 19.422-5.0273 28.125 0 8.7031 5.0234 14.062 14.309 14.062 24.355v113.88l21.938 10.969v-0.003906c6.6797 3.332 11.758 9.1797 14.121 16.258 2.3633 7.0781 1.8164 14.809-1.5234 21.48z"/>
</svg>
