<?xml version="1.0" encoding="UTF-8"?>
<svg width="1200pt" height="1200pt" version="1.1" viewBox="0 0 1200 1200" xmlns="http://www.w3.org/2000/svg">
 <path d="m549.37 630.24c5.5312-3.6094 7.2188-11.062 3.6094-16.547l-30.938-47.766c-3.6094-5.5312-11.062-7.2188-16.547-3.6094-5.5312 3.6094-7.2188 11.062-3.6094 16.547l30.938 47.766c2.3906 3.6094 6.2344 5.5312 10.078 5.5312 2.1562 0 4.3125-0.46875 6.4688-1.9219z"/>
 <path d="m529.22 546.94c-5.5312 3.6094-7.2188 11.062-3.6094 16.547l30.938 47.766c2.3906 3.6094 6.2344 5.5312 10.078 5.5312 2.1562 0 4.5469-0.70312 6.4688-1.9219 5.5312-3.6094 7.2188-11.062 3.6094-16.547l-30.938-47.766c-3.6094-5.7656-11.062-7.1719-16.547-3.6094z"/>
 <path d="m575.29 577.45c1.4531 0 3.1406-0.46875 4.5469-0.9375 1.4531-0.70312 2.625-1.4531 3.8438-2.625 0.9375-1.2188 1.9219-2.3906 2.625-3.8438 0.46875-1.4531 0.9375-3.1406 0.9375-4.5469 0-3.1406-1.4531-6.2344-3.6094-8.625-1.2188-0.9375-2.3906-1.9219-3.8438-2.3906-3.1406-1.4531-6.2344-1.4531-9.375 0-1.4531 0.46875-2.625 1.4531-3.8438 2.3906-1.2188 1.2188-1.9219 2.625-2.625 4.0781-0.46875 1.4531-0.9375 2.8594-0.9375 4.5469 0 3.1406 1.4531 6.2344 3.6094 8.3906 1.2188 1.2188 2.3906 1.9219 3.8438 2.625 1.6875 0.42188 3.1406 0.9375 4.8281 0.9375z"/>
 <path d="m875.29 371.29c3.375-25.688 17.297-98.625 66.703-130.55 5.5312-3.6094 7.2188-11.062 3.6094-16.547-3.6094-5.5312-11.062-7.2188-16.547-3.6094-55.688 36-72.234 111.38-76.781 143.53-31.219-8.8594-106.55-24.703-162.24 11.297-55.691 36-72.234 111.38-76.781 143.53-31.219-8.8594-106.55-24.703-162.24 11.297-5.5312 3.6094-7.2188 11.062-3.6094 16.547 3.6094 5.5312 11.062 7.2188 16.547 3.6094 49.453-31.922 121.69-14.625 146.63-7.2188-3.375 25.688-17.297 98.625-66.703 130.55-5.5312 3.6094-7.2188 11.062-3.6094 16.547 2.3906 3.6094 6.2344 5.5312 10.078 5.5312 2.1562 0 4.5469-0.70312 6.4688-1.9219 55.688-36 72.234-111.38 76.781-143.53 16.312 4.5469 44.625 11.297 76.078 11.297 28.547 0 59.766-5.5312 86.156-22.547 55.688-36 72.234-111.38 76.781-143.53 16.312 4.5469 44.625 11.297 76.078 11.297 28.547 0 59.766-5.5312 86.156-22.547 5.5312-3.6094 7.2188-11.062 3.6094-16.547-3.6094-5.5312-11.062-7.2188-16.547-3.6094-49.453 31.594-121.69 14.531-146.63 7.125zm-92.906 147.32c-36.938 24-86.859 20.156-120 13.688-11.062-2.1562-20.156-4.5469-26.391-6.4688 3.375-25.688 17.297-98.625 66.703-130.55 49.453-31.922 121.69-14.625 146.39-7.2188-3.3281 25.688-17.25 98.625-66.703 130.55z"/>
 <path d="m935.76 283.69c-5.5312 3.6094-7.2188 11.062-3.6094 16.547l30.938 47.766c2.3906 3.6094 6.2344 5.5312 10.078 5.5312 2.1562 0 4.5469-0.70312 6.4688-1.9219 5.5312-3.6094 7.2188-11.062 3.6094-16.547l-30.938-47.766c-3.375-5.5312-10.781-7.2188-16.547-3.6094z"/>
 <path d="m949.45 369.14c2.1562 0 4.5469-0.70312 6.4688-1.9219 5.5312-3.6094 7.2188-11.062 3.6094-16.547l-30.938-47.766c-3.6094-5.5312-11.062-7.2188-16.547-3.6094-5.5312 3.6094-7.2188 11.062-3.6094 16.547l30.938 47.766c2.1562 3.6094 6.2344 5.5312 10.078 5.5312z"/>
 <path d="m785.06 395.53c-3.6094-5.5312-11.062-7.2188-16.547-3.6094-5.5312 3.6094-7.2188 11.062-3.6094 16.547l30.938 47.766c2.3906 3.6094 6.2344 5.5312 10.078 5.5312 2.1562 0 4.5469-0.70312 6.4688-1.9219 5.5312-3.6094 7.2188-11.062 3.6094-16.547z"/>
 <path d="m761.06 411.14c-3.6094-5.5312-11.062-7.2188-16.547-3.6094-5.5312 3.6094-7.2188 11.062-3.6094 16.547l30.938 47.766c2.3906 3.6094 6.2344 5.5312 10.078 5.5312 2.1562 0 4.5469-0.70312 6.4688-1.9219 5.5312-3.6094 7.2188-11.062 3.6094-16.547z"/>
 <path d="m737.29 426.47c-3.6094-5.5312-11.062-7.2188-16.547-3.6094-5.5312 3.6094-7.2188 11.062-3.6094 16.547l30.938 47.766c2.3906 3.6094 6.2344 5.5312 10.078 5.5312 2.1562 0 4.5469-0.70312 6.4688-1.9219 5.5312-3.6094 7.2188-11.062 3.6094-16.547z"/>
 <path d="m713.29 442.08c-3.6094-5.5312-11.062-7.2188-16.547-3.6094-5.5312 3.6094-7.2188 11.062-3.6094 16.547l30.938 47.766c2.3906 3.6094 6.2344 5.5312 10.078 5.5312 2.1562 0 4.5469-0.70312 6.4688-1.9219 5.5312-3.6094 7.2188-11.062 3.6094-16.547z"/>
 <path d="m689.29 457.45c-3.6094-5.5312-11.062-7.2188-16.547-3.6094-5.5312 3.6094-7.2188 11.062-3.6094 16.547l30.938 47.766c2.3906 3.6094 6.2344 5.5312 10.078 5.5312 2.1562 0 4.5469-0.70312 6.4688-1.9219 5.5312-3.6094 7.2188-11.062 3.6094-16.547z"/>
 <path d="m805.92 419.06c2.1562 2.1562 5.2969 3.6094 8.3906 3.6094 1.6875 0 3.1406-0.46875 4.5469-0.9375 1.4531-0.70312 2.8594-1.4531 4.0781-2.625 0.9375-0.9375 1.9219-2.3906 2.3906-3.8438 0.70312-1.4531 0.9375-3.1406 0.9375-4.5469 0-3.1406-1.2188-6.2344-3.375-8.625-4.7812-4.3125-12.703-4.3125-17.062 0-2.3906 2.3906-3.6094 5.5312-3.6094 8.625 0 1.4531 0.23438 3.1406 0.9375 4.5469 0.84375 1.3594 1.5469 2.8125 2.7656 3.7969z"/>
 <path d="m905.53 337.69c-1.6875 0.46875-2.8594 1.4531-4.0781 2.3906-0.9375 1.2188-1.9219 2.625-2.3906 4.0781-0.70312 1.4531-0.9375 2.8594-0.9375 4.5469 0 3.1406 1.2188 6.2344 3.375 8.3906 2.3906 2.3906 5.5312 3.6094 8.625 3.6094 3.1406 0 6.2344-1.2188 8.3906-3.6094 1.2188-1.2188 1.9219-2.3906 2.625-3.8438 0.46875-1.4531 0.9375-3.1406 0.9375-4.5469 0-1.6875-0.46875-3.1406-0.9375-4.5469-0.70312-1.4531-1.4531-2.8594-2.625-4.0781-3.375-3.375-8.6719-4.3125-12.984-2.3906z"/>
 <path d="m675.37 492.47c-2.8594-1.2188-6.2344-1.2188-9.1406 0-1.4531 0.46875-2.8594 1.4531-3.8438 2.3906-2.3906 2.3906-3.6094 5.2969-3.6094 8.625 0 1.4531 0.23438 3.1406 0.9375 4.5469 0.46875 1.4531 1.4531 2.625 2.625 3.8438 2.1562 2.1562 5.2969 3.6094 8.3906 3.6094 1.6875 0 3.1406-0.46875 4.5469-0.9375 1.4531-0.70312 2.8594-1.4531 3.8438-2.625 2.3906-2.1562 3.6094-5.2969 3.6094-8.3906 0-3.1406-1.2188-6.2344-3.6094-8.625-0.89062-0.98438-2.3438-1.9688-3.75-2.4375z"/>
 <path d="m721.69 83.062c-96.938 3.1406-186.94 43.922-253.45 114.7-66.469 70.781-101.3 163.22-98.156 260.39 3.1406 96.938 43.922 186.94 114.7 253.45 70.078 65.531 159.37 98.156 248.39 98.156 96.938 0 193.92-38.625 265.22-114.7 137.06-146.16 129.61-376.55-16.547-513.61-70.781-66.75-163.22-101.53-260.16-98.391zm259.45 595.4c-127.92 136.55-343.22 143.53-479.76 15.609-66.234-61.922-104.16-145.92-107.06-236.63-2.8594-90.703 29.531-176.86 91.688-243.14 62.156-66.234 145.92-104.16 236.63-107.06 3.8438 0 7.4531-0.23438 11.297-0.23438 86.391 0 168.47 32.391 231.84 91.688 136.31 127.92 143.29 343.22 15.375 479.76z"/>
 <path d="m719.76 25.219c-112.55 3.5625-216.71 50.859-293.76 132.94-144.47 154.08-150 388.78-22.312 549.61l-332.39 321.1c-17.062 16.312-26.156 38.156-26.156 61.688 0.23438 23.531 9.7969 45.375 26.859 61.453 15.844 14.859 36.469 23.062 58.078 23.062 1.6875 0 3.375 0 5.0625-0.23437 23.531-1.4531 44.625-12 59.766-30l298.78-352.55c72 49.922 155.76 75.141 239.53 75.141 112.55 0 224.86-44.625 307.69-132.94 77.062-82.078 117.38-189.37 113.77-301.92-3.6094-112.55-50.859-216.94-132.94-293.76-82.125-76.875-189.42-117.42-301.97-113.58zm-543.14 1104.2c-10.781 12.938-26.156 20.391-42.938 21.609-16.547 0.9375-32.906-4.8281-45.375-16.594-12.234-11.531-19.219-27.375-19.219-44.156s6.4688-32.625 18.703-44.156l10.312-9.8438 87.844 82.312zm24.75-29.297-85.922-80.625 228.47-220.55 63.141 59.062zm221.02-260.39-61.219-57.375 57.844-55.922c8.3906 9.375 17.062 18.703 26.391 27.375 9.375 8.8594 19.219 16.781 29.062 24.703zm600.98-121.69c-149.76 159.84-401.76 168-561.84 18.234-159.84-149.76-168-401.76-18.234-561.84 72.469-77.531 170.86-121.92 276.94-125.53 4.3125-0.23437 8.8594-0.23437 13.219-0.23437 101.3 0 197.29 37.922 271.45 107.53 77.531 72.469 121.92 170.86 125.53 276.94 3.5625 106.36-34.359 207.37-107.06 284.9z"/>
 <path d="m323.06 866.63-129.37 138.24c-4.5469 4.7812-4.3125 12.469 0.46875 17.062 2.3906 2.1562 5.2969 3.375 8.1562 3.375 3.1406 0 6.4688-1.2188 8.625-3.8438l129.37-138.24c4.5469-4.7812 4.3125-12.469-0.46875-17.062-4.5469-4.5469-12.234-4.3125-16.781 0.46875z"/>
 <path d="m551.29 468.94c19.922 0 36-16.078 36-36s-16.078-36-36-36-36 16.078-36 36 16.078 36 36 36zm0-47.719c6.4688 0 12 5.2969 12 12s-5.2969 12-12 12-12-5.2969-12-12c0-6.75 5.25-12 12-12z"/>
 <path d="m750.94 289.22c19.922 0 36-16.078 36-36s-16.078-36-36-36-36 16.078-36 36 16.359 36 36 36zm0-48c6.4688 0 12 5.2969 12 12s-5.2969 12-12 12-12-5.2969-12-12c0-6.75 5.5312-12 12-12z"/>
 <path d="m710.16 608.16c-19.922 0-36 16.078-36 36s16.078 36 36 36 36-16.078 36-36-16.078-36-36-36zm0 48c-6.4688 0-12-5.2969-12-12s5.2969-12 12-12 12 5.2969 12 12-5.2969 12-12 12z"/>
 <path d="m910.08 460.55c-19.922 0-36 16.078-36 36s16.078 36 36 36 36-16.078 36-36-16.312-36-36-36zm0 47.766c-6.4688 0-12-5.2969-12-12s5.2969-12 12-12 12 5.2969 12 12c0 6.75-5.5312 12-12 12z"/>
 <path d="m862.08 608.16c-19.922 0-36 16.078-36 36s16.078 36 36 36 36-16.078 36-36-16.078-36-36-36zm0 48c-6.4688 0-12-5.2969-12-12s5.2969-12 12-12 12 5.2969 12 12-5.2969 12-12 12z"/>
 <path d="m600 289.22c19.922 0 36-16.078 36-36s-16.078-36-36-36-36 16.078-36 36 16.078 36 36 36zm0-48c6.4688 0 12 5.2969 12 12s-5.2969 12-12 12-12-5.2969-12-12c0-6.75 5.5312-12 12-12z"/>
</svg>
