<?xml version="1.0" encoding="UTF-8"?>
<svg width="1200pt" height="1200pt" version="1.1" viewBox="0 0 1200 1200" xmlns="http://www.w3.org/2000/svg">
 <path d="m1031.7 300h-150.94c-20.438 0-37.031 16.594-37.031 37.031v694.22h-75v-862.97c0-20.438-16.594-37.031-37.031-37.031h-150.94c-20.438 0-37.031 16.594-37.031 37.031v862.97h-75v-412.97c0-20.438-16.594-37.031-37.031-37.031h-150.94c-20.438 0-37.031 16.594-37.031 37.031v412.97h-75v-881.26c0-10.312-8.4375-18.75-18.75-18.75s-18.75 8.4375-18.75 18.75v900c0 10.312 8.4375 18.75 18.75 18.75h900c10.312 0 18.75-8.4375 18.75-18.75v-712.97c0-20.438-16.594-37.031-37.031-37.031zm-750.47 731.26-0.46875-412.5 150.47-0.46875v412.97zm300 0-0.46875-862.5 150.47-0.46875v862.97zm300 0-0.46875-693.74 150.47-0.46875v694.22z"/>
</svg>
