<?xml version="1.0" encoding="UTF-8"?>
<svg width="1200pt" height="1200pt" version="1.1" viewBox="0 0 1200 1200" xmlns="http://www.w3.org/2000/svg">
 <path d="m526.68 624.24h141.05l70.488-122.13-70.488-122.14h-141.05l-70.488 122.14z"/>
 <path d="m189.24 820.01h141.05l70.488-122.14-70.488-122.14h-141.05l-70.484 122.14z"/>
 <path d="m703.32 709.89h-210.57l-106.95 185.23 105.29 182.35h212.23l106.11-183.77zm-21.719 329.88h-168.77l-84.359-146.09 84.359-146.18h168.77l84.312 146.18z"/>
 <path d="m667.73 771.5h-141.05l-70.488 122.18 70.488 122.09h141.05l70.488-122.09z"/>
 <path d="m492.77 685.89h210.55l106.11-183.79-106.11-183.77h-212.23l-105.27 182.33zm20.062-329.93h168.77l84.312 146.14-84.312 146.13h-168.77l-84.359-146.14z"/>
 <path d="m1046.4 122.52h-212.21l-106.11 183.79 106.11 183.77h212.21l106.11-183.77zm-21.719 329.95h-168.79l-84.312-146.14 84.312-146.14h168.79l84.312 146.14z"/>
 <path d="m1010.8 184.2h-141.05l-70.465 122.14 70.465 122.14h141.05l70.484-122.14z"/>
 <path d="m153.65 881.64h210.57l106.08-183.74-106.11-183.82h-210.53l-106.11 183.79zm21.742-329.91h168.77l84.336 146.14-84.336 146.14h-168.77l-84.336-146.14z"/>
</svg>
