<?xml version="1.0" encoding="UTF-8"?>
<svg width="1200pt" height="1200pt" version="1.1" viewBox="0 0 1200 1200" xmlns="http://www.w3.org/2000/svg">
 <path d="m193.65 98.719c0.015624-4.9688 1.9961-9.7305 5.5078-13.242 3.5156-3.5117 8.2773-5.4922 13.242-5.5078 128.18 4.2852 127.51 189.54-0.003907 193.31h0.003907c-6.6133-0.12891-12.668-3.7305-15.938-9.4805-3.2656-5.75-3.2656-12.793 0.003906-18.543 3.2695-5.7461 9.3242-9.3477 15.938-9.4766 21.133 0 40.664-11.277 51.23-29.578 10.566-18.305 10.566-40.855 0-59.156-10.57-18.305-30.098-29.578-51.234-29.578-4.9648-0.015625-9.7266-1.9961-13.242-5.5078-3.5117-3.5117-5.4922-8.2734-5.5078-13.242zm206.25 18.75c21.004 0.19922 40.324 11.516 50.77 29.738 10.445 18.223 10.445 40.617 0 58.836-10.445 18.223-29.77 29.539-50.77 29.738-6.6992 0-12.887 3.5742-16.238 9.375-3.3477 5.8008-3.3477 12.949 0 18.75 3.3516 5.8008 9.543 9.375 16.238 9.375 34.535 0 66.441-18.422 83.707-48.328s17.266-66.75 0-96.656-49.172-48.328-83.707-48.328c-6.6953 0-12.887 3.5742-16.238 9.375-3.3477 5.8008-3.3477 12.949 0 18.75 3.3516 5.8008 9.543 9.375 16.238 9.375zm187.5 0c21.004 0.19922 40.324 11.516 50.77 29.738 10.445 18.223 10.445 40.617 0 58.836-10.445 18.223-29.77 29.539-50.77 29.738-6.6992 0-12.887 3.5742-16.238 9.375-3.3477 5.8008-3.3477 12.949 0 18.75 3.3516 5.8008 9.543 9.375 16.238 9.375 34.535 0 66.441-18.422 83.707-48.328s17.266-66.75 0-96.656-49.172-48.328-83.707-48.328c-6.6953 0-12.887 3.5742-16.238 9.375-3.3477 5.8008-3.3477 12.949 0 18.75 3.3516 5.8008 9.543 9.375 16.238 9.375zm150 0c21.004 0.19922 40.324 11.516 50.77 29.738 10.445 18.223 10.445 40.617 0 58.836-10.445 18.223-29.77 29.539-50.77 29.738-6.6992 0-12.887 3.5742-16.238 9.375-3.3477 5.8008-3.3477 12.949 0 18.75 3.3516 5.8008 9.543 9.375 16.238 9.375 34.535 0 66.441-18.422 83.707-48.328s17.266-66.75 0-96.656-49.172-48.328-83.707-48.328c-6.6953 0-12.887 3.5742-16.238 9.375-3.3477 5.8008-3.3477 12.949 0 18.75 3.3516 5.8008 9.543 9.375 16.238 9.375zm241.2 877.89c0 5.8828 1.3867 11.688 4.043 16.938l49.934 98.625c1.043 2.0625 3.1562 3.3594 5.4648 3.3594s4.4219-1.2969 5.4648-3.3594l49.93-98.629 0.003906 0.003906c2.6562-5.25 4.043-11.055 4.043-16.938v-406.69h-118.88zm59.441-557.34c-15.766 0-30.883 6.2617-42.031 17.41-11.148 11.145-17.41 26.266-17.41 42.027v49.793h118.88v-49.789c0-15.766-6.2617-30.887-17.41-42.031-11.148-11.148-26.266-17.41-42.031-17.41zm-112.57-244.81v889.31c-0.027344 9.9375-3.9883 19.457-11.016 26.484-7.0273 7.0273-16.547 10.988-26.484 11.016h-747.94c-9.9453 0.003906-19.488-3.9492-26.52-10.98-7.0312-7.0352-10.984-16.574-10.98-26.52v-889.31c-0.003907-9.9453 3.9453-19.488 10.98-26.52 7.0312-7.0352 16.574-10.984 26.52-10.98h107.06c4.8555 8.2383 6.6523 17.926 5.0742 27.355-1.5781 9.4297-6.4297 18.004-13.699 24.215-7.2734 6.2109-16.5 9.6602-26.062 9.7422-13.258 0.20312-25.426 7.3984-31.996 18.914-6.5703 11.52-6.5703 25.652 0.003906 37.168 6.5703 11.52 18.734 18.711 31.996 18.918 34.238-0.074219 66.68-15.324 88.582-41.641 21.898-26.316 31.004-60.992 24.852-94.672h108.75c4.8555 8.2383 6.6523 17.922 5.0742 27.355-1.5781 9.4297-6.4297 18.004-13.699 24.215-7.2734 6.207-16.5 9.6562-26.062 9.7383-13.258 0.20703-25.422 7.3984-31.996 18.918-6.5703 11.52-6.5664 25.648 0.003906 37.168s18.734 18.711 31.996 18.914c34.238-0.070313 66.68-15.32 88.582-41.637 21.902-26.32 31.004-60.992 24.852-94.676h108.75c4.8555 8.2383 6.6523 17.926 5.0742 27.355-1.5781 9.4336-6.4297 18.008-13.699 24.215-7.2734 6.2109-16.5 9.6602-26.062 9.7422-13.258 0.20703-25.422 7.3984-31.992 18.918-6.5703 11.516-6.5703 25.648 0 37.168 6.5703 11.516 18.738 18.707 31.996 18.914 34.238-0.070313 66.684-15.32 88.582-41.641 21.902-26.316 31.004-60.992 24.852-94.672h71.25c4.8555 8.2383 6.6523 17.922 5.0742 27.355-1.5781 9.4297-6.4258 18.004-13.699 24.215-7.2734 6.2109-16.5 9.6602-26.062 9.7383-13.258 0.20703-25.422 7.3984-31.992 18.918-6.5703 11.52-6.5703 25.652 0 37.168 6.5703 11.52 18.738 18.711 31.996 18.914 34.238-0.070313 66.684-15.32 88.582-41.637 21.902-26.316 31.004-60.992 24.855-94.676h37.125c9.9375 0.03125 19.457 3.9922 26.484 11.02 7.0273 7.0273 10.984 16.551 11.012 26.488zm-462.56 619.31c-3.3281-3.6875-7.9883-5.8945-12.945-6.1406-4.9609-0.24609-9.8164 1.4922-13.492 4.8281l-138.94 126.94-46.875-58.875c-4.2383-5.0977-10.844-7.5898-17.391-6.5586-6.5508 1.0273-12.074 5.4258-14.543 11.578-2.4688 6.1484-1.5234 13.148 2.4961 18.418l59.438 74.625c3.3008 3.9922 8.0859 6.4648 13.25 6.8555 5.1641 0.38672 10.262-1.3438 14.125-4.793l153.75-140.44c3.7031-3.3281 5.9062-8.0078 6.1211-12.98 0.21094-4.9766-1.5898-9.8242-4.9961-13.457zm-179.81-150.19-49.125 49.125c-4.6953 4.7695-6.5078 11.672-4.7617 18.129 1.75 6.4609 6.7969 11.508 13.254 13.258 6.4609 1.7461 13.363-0.066407 18.133-4.7617l49.125-49.125 49.125 49.125c4.7617 4.6914 11.66 6.4961 18.109 4.7344 6.4492-1.7617 11.473-6.8242 13.188-13.285 1.7188-6.4609-0.13281-13.344-4.8594-18.074l-49.125-49.125 49.125-49.125c4.7227-4.7227 6.5664-11.605 4.8398-18.059-1.7305-6.4492-6.7695-11.488-13.219-13.219-6.4531-1.7266-13.336 0.11719-18.059 4.8398l-49.125 49.125-49.125-49.125c-3.5391-3.5117-8.3242-5.4844-13.312-5.4844-4.9883 0-9.7734 1.9727-13.312 5.4844-3.5117 3.5039-5.4844 8.2578-5.4844 13.219s1.9727 9.7148 5.4844 13.219zm179.81-337.31c-3.3281-3.6875-7.9883-5.8945-12.945-6.1406-4.9609-0.24609-9.8164 1.4922-13.492 4.8281l-138.94 126.94-46.875-58.875c-4.2383-5.0977-10.844-7.5898-17.391-6.5586-6.5508 1.0273-12.074 5.4258-14.543 11.578-2.4688 6.1484-1.5234 13.148 2.4961 18.418l59.438 74.625c3.3008 3.9922 8.0859 6.4648 13.25 6.8555 5.1641 0.38672 10.262-1.3438 14.125-4.793l153.75-140.44c3.7031-3.3281 5.9062-8.0078 6.1211-12.98 0.21094-4.9766-1.5898-9.8242-4.9961-13.457zm181.31 631.12c0.015624-4.9766-1.9531-9.7578-5.4727-13.277-3.5195-3.5195-8.3008-5.4922-13.277-5.4727h-131.25c-6.6992 0-12.891 3.5742-16.238 9.375s-3.3477 12.949 0 18.75 9.5391 9.375 16.238 9.375h131.25c4.9883 0.050781 9.7852-1.9102 13.312-5.4375 3.5273-3.5273 5.4883-8.3242 5.4375-13.312zm168.75-75c0.015624-4.9766-1.9531-9.7578-5.4727-13.277-3.5195-3.5195-8.3008-5.4922-13.277-5.4727h-300c-6.6992 0-12.891 3.5742-16.238 9.375s-3.3477 12.949 0 18.75 9.5391 9.375 16.238 9.375h300c4.9883 0.050781 9.7852-1.9102 13.312-5.4375 3.5273-3.5273 5.4883-8.3242 5.4375-13.312zm-318.75-168.75h131.25c6.6172-0.11719 12.684-3.7188 15.961-9.4727 3.2734-5.75 3.2734-12.805 0-18.559-3.2773-5.75-9.3438-9.3516-15.961-9.4688h-131.25c-6.6328 0.097656-12.723 3.6914-16.012 9.4531-3.2891 5.7617-3.2891 12.832 0 18.594 3.2891 5.7617 9.3789 9.3555 16.012 9.4531zm318.75-93.75c0.015624-4.9766-1.9531-9.7578-5.4727-13.277-3.5195-3.5195-8.3008-5.4922-13.277-5.4727h-300c-6.6992 0-12.891 3.5742-16.238 9.375s-3.3477 12.949 0 18.75 9.5391 9.375 16.238 9.375h300c4.9883 0.050781 9.7852-1.9102 13.312-5.4375 3.5273-3.5273 5.4883-8.3242 5.4375-13.312zm-318.75-131.25h131.25c6.6172-0.11719 12.684-3.7188 15.961-9.4727 3.2734-5.75 3.2734-12.805 0-18.559-3.2773-5.75-9.3438-9.3516-15.961-9.4688h-131.25c-6.6328 0.097656-12.723 3.6914-16.012 9.4531-3.2891 5.7617-3.2891 12.832 0 18.594 3.2891 5.7617 9.3789 9.3555 16.012 9.4531zm318.75-93.75c0.015624-4.9766-1.9531-9.7578-5.4727-13.277-3.5195-3.5195-8.3008-5.4922-13.277-5.4727h-300c-6.6992 0-12.891 3.5742-16.238 9.375s-3.3477 12.949 0 18.75 9.5391 9.375 16.238 9.375h300c4.9883 0.050781 9.7852-1.9102 13.312-5.4375 3.5273-3.5273 5.4883-8.3242 5.4375-13.312z"/>
</svg>
