<?xml version="1.0" encoding="UTF-8"?>
<svg width="1200pt" height="1200pt" version="1.1" viewBox="0 0 1200 1200" xmlns="http://www.w3.org/2000/svg">
 <path d="m249 200.39c44.664 0 86.496-18.312 117-50.43 30.504 32.117 72.336 50.43 117 50.43s86.496-18.312 117-50.43c30.504 32.117 72.336 50.43 117 50.43s86.496-18.312 117-50.43c30.504 32.117 72.336 50.43 117 50.43 49.371 0 95.43-22.203 126.38-60.902 4.1367-5.1797 3.293-12.734-1.8828-16.867-5.1836-4.1406-12.727-3.2969-16.867 1.8828-26.355 32.977-65.582 51.891-107.62 51.891s-81.27-18.914-107.62-51.891c-0.28906-0.36328-0.70312-0.53906-1.0234-0.85937-0.32031-0.32031-0.49609-0.73438-0.85547-1.0234-0.28906-0.23047-0.64062-0.28516-0.94531-0.48438-0.69141-0.45703-1.3906-0.80469-2.1484-1.1055-0.71875-0.28906-1.4141-0.53125-2.1602-0.67188-0.73047-0.14062-1.4375-0.17578-2.1836-0.17969-0.80859-0.003906-1.5781 0.035156-2.3672 0.19141-0.70312 0.13672-1.3555 0.37109-2.0312 0.63672-0.78125 0.30859-1.5078 0.66016-2.2188 1.1367-0.29688 0.19531-0.64844 0.25-0.92969 0.47656-0.35938 0.28906-0.53516 0.69922-0.85547 1.0195-0.32422 0.32031-0.73438 0.49609-1.0273 0.85938-26.355 32.977-65.582 51.891-107.62 51.891-42.043 0-81.27-18.914-107.62-51.891-0.28906-0.35938-0.69922-0.53516-1.0195-0.85156-0.32031-0.32422-0.49609-0.73828-0.86328-1.0273-0.29297-0.23438-0.65234-0.29297-0.96094-0.49609-0.67969-0.44922-1.3672-0.78906-2.1133-1.0859-0.73047-0.29297-1.4336-0.53906-2.1914-0.68359-0.73047-0.14062-1.4336-0.17188-2.1758-0.17578-0.80469-0.003906-1.5703 0.035156-2.3594 0.19141-0.70703 0.14062-1.3633 0.37109-2.0469 0.64062-0.77734 0.30469-1.4961 0.66016-2.2031 1.1289-0.29687 0.19531-0.64844 0.25391-0.93359 0.48047-0.35938 0.28906-0.53516 0.69922-0.85547 1.0195-0.32422 0.32031-0.73438 0.49609-1.0273 0.85938-26.355 32.977-65.582 51.891-107.62 51.891-42.043 0-81.27-18.914-107.62-51.891-0.28906-0.35938-0.69922-0.53516-1.0195-0.85156-0.32031-0.32422-0.49609-0.73828-0.85938-1.0273-0.29297-0.23438-0.65234-0.29297-0.95703-0.49219-0.67969-0.44922-1.3672-0.78906-2.1133-1.0898-0.73047-0.29297-1.4336-0.53906-2.1914-0.68359-0.73047-0.14062-1.4336-0.17578-2.1758-0.17578-0.80469-0.003906-1.5703 0.035156-2.3594 0.19141-0.71094 0.14062-1.3711 0.375-2.0547 0.64453-0.77344 0.30469-1.4883 0.65625-2.1953 1.125-0.30078 0.19922-0.65234 0.25391-0.9375 0.48047-0.36328 0.28906-0.53516 0.70312-0.85547 1.0234-0.32031 0.32031-0.73438 0.49609-1.0234 0.85937-26.355 32.977-65.582 51.891-107.62 51.891s-81.27-18.914-107.62-51.891c-4.1406-5.1797-11.695-6-16.867-1.8828-5.1719 4.1367-6.0156 11.691-1.8828 16.867 30.934 38.703 76.992 60.902 126.36 60.902z"/>
 <path d="m249 326.05c44.664 0 86.496-18.309 117-50.426 30.504 32.117 72.336 50.426 117 50.426s86.496-18.309 117-50.426c30.504 32.117 72.336 50.426 117 50.426s86.496-18.309 117-50.426c30.504 32.117 72.336 50.426 117 50.426 49.371 0 95.43-22.195 126.38-60.895 4.1367-5.1797 3.293-12.727-1.8828-16.867-5.1836-4.125-12.727-3.3086-16.867 1.8828-26.359 32.977-65.59 51.887-107.62 51.887s-81.266-18.91-107.62-51.887c-0.28906-0.36328-0.70312-0.53906-1.0273-0.85938-0.32031-0.32031-0.49219-0.73438-0.85547-1.0234-0.28906-0.23047-0.64063-0.28516-0.94141-0.48437-0.69922-0.46094-1.4062-0.80859-2.1719-1.1133-0.70703-0.28125-1.3906-0.51953-2.125-0.66406-0.74609-0.14453-1.4648-0.17969-2.2227-0.18359-0.80078-0.003906-1.5586 0.035156-2.3438 0.19141-0.70312 0.13672-1.3555 0.36719-2.0312 0.63281-0.78906 0.30859-1.5156 0.66406-2.2305 1.1406-0.29688 0.19531-0.64062 0.25-0.92188 0.47266-0.35938 0.28906-0.53125 0.69922-0.85156 1.0156-0.32031 0.32812-0.73438 0.50391-1.0273 0.87109-26.359 32.977-65.59 51.887-107.62 51.887s-81.266-18.91-107.62-51.887c-0.28906-0.35938-0.69922-0.53516-1.0195-0.85156-0.32031-0.32422-0.49609-0.73438-0.85938-1.0273-0.29297-0.23437-0.65234-0.28906-0.95703-0.49219-0.6875-0.45312-1.3828-0.79688-2.1367-1.0977-0.71875-0.28906-1.4062-0.52734-2.1523-0.67188-0.74219-0.14453-1.457-0.17969-2.2148-0.17969-0.79688-0.003906-1.5547 0.039063-2.3359 0.19141-0.70703 0.13672-1.3633 0.36719-2.0469 0.63672-0.78125 0.30859-1.5078 0.66406-2.2188 1.1367-0.29688 0.19531-0.64453 0.25-0.92578 0.47656-0.35937 0.28906-0.53125 0.69922-0.85156 1.0156-0.32422 0.32422-0.73828 0.5-1.0312 0.86328-26.359 32.977-65.59 51.887-107.62 51.887s-81.266-18.91-107.62-51.887c-0.28906-0.36328-0.69922-0.53516-1.0234-0.85547-0.32031-0.32422-0.49609-0.73438-0.85937-1.0273-0.29297-0.23047-0.64844-0.28906-0.95313-0.49219-0.6875-0.45312-1.3828-0.79688-2.1367-1.0977-0.71875-0.28906-1.4102-0.52734-2.1562-0.67187-0.74219-0.14453-1.457-0.17969-2.2109-0.17969-0.79688-0.003906-1.5508 0.035156-2.3359 0.19141-0.71094 0.14062-1.3711 0.37109-2.0547 0.64062-0.77734 0.30469-1.5 0.66016-2.207 1.1328-0.29688 0.19531-0.64844 0.25391-0.93359 0.47656-0.35938 0.28906-0.53516 0.69922-0.85156 1.0195-0.32422 0.32031-0.73828 0.49609-1.0273 0.86328-26.359 32.977-65.59 51.887-107.62 51.887s-81.266-18.91-107.62-51.887c-4.1406-5.1797-11.695-6-16.867-1.8828-5.1719 4.1406-6.0156 11.691-1.8828 16.867 30.945 38.703 77.004 60.898 126.38 60.898z"/>
 <path d="m249 451.71c44.664 0 86.496-18.312 117-50.43 30.504 32.117 72.336 50.43 117 50.43s86.496-18.312 117-50.43c30.504 32.117 72.336 50.43 117 50.43s86.496-18.312 117-50.43c30.504 32.117 72.336 50.43 117 50.43 49.371 0 95.43-22.203 126.38-60.902 4.1367-5.1797 3.293-12.727-1.8828-16.867-5.1836-4.1328-12.727-3.2969-16.867 1.8828-26.355 32.977-65.582 51.891-107.62 51.891s-81.27-18.914-107.62-51.891c-0.28906-0.36328-0.70312-0.53906-1.0273-0.85938-0.32031-0.32031-0.49219-0.73438-0.85547-1.0234-0.28906-0.23047-0.64063-0.28516-0.94141-0.48438-0.69922-0.46094-1.4023-0.80859-2.168-1.1133-0.70703-0.28125-1.3906-0.51953-2.125-0.66406-0.74609-0.14453-1.4688-0.17969-2.2305-0.17969-0.79297-0.003906-1.5469 0.035156-2.3242 0.19141-0.71484 0.14062-1.375 0.37109-2.0586 0.64453-0.77734 0.30469-1.4961 0.65625-2.2031 1.1289-0.29688 0.19531-0.64844 0.25-0.93359 0.47656-0.35937 0.28906-0.53516 0.69922-0.85156 1.0195-0.32422 0.32031-0.73828 0.49609-1.0273 0.85937-26.355 32.977-65.582 51.891-107.62 51.891-42.043 0-81.27-18.914-107.62-51.891-0.28906-0.35937-0.69922-0.53516-1.0195-0.85156-0.32031-0.32422-0.49609-0.73438-0.85938-1.0273-0.29297-0.23438-0.65234-0.28906-0.95703-0.49219-0.6875-0.45312-1.3789-0.79688-2.1328-1.0938-0.71875-0.28906-1.4102-0.53125-2.1562-0.67188-0.74219-0.14453-1.4609-0.17969-2.2227-0.17969-0.79297 0-1.543 0.039063-2.3164 0.19141-0.71875 0.14063-1.3828 0.375-2.0742 0.64844-0.77344 0.30469-1.4844 0.65625-2.1875 1.1211-0.30078 0.19922-0.65234 0.25391-0.9375 0.48047-0.35938 0.28906-0.53516 0.69922-0.85547 1.0195-0.32422 0.32031-0.73438 0.49609-1.0273 0.85938-26.355 32.977-65.582 51.891-107.62 51.891-42.043 0-81.27-18.914-107.62-51.891-0.28906-0.36328-0.69922-0.53516-1.0234-0.85547-0.32031-0.32422-0.49609-0.73438-0.85938-1.0273-0.29297-0.23438-0.64844-0.28906-0.95312-0.49219-0.6875-0.45312-1.3828-0.79688-2.1328-1.0977-0.71875-0.28906-1.4102-0.53125-2.1562-0.67187-0.74219-0.14453-1.4609-0.17969-2.2227-0.17969-0.78906-0.003906-1.5391 0.035156-2.3164 0.1875-0.72266 0.14062-1.3906 0.375-2.0859 0.65234-0.76953 0.30469-1.4805 0.65234-2.1797 1.1172-0.30078 0.19922-0.65625 0.25391-0.94141 0.48438-0.36328 0.28906-0.53516 0.70312-0.85547 1.0234-0.32422 0.32031-0.73438 0.49609-1.0234 0.85938-26.355 32.977-65.582 51.891-107.62 51.891-42.043 0-81.27-18.914-107.62-51.891-4.1406-5.1797-11.695-6-16.867-1.8828-5.1719 4.1406-6.0156 11.691-1.8828 16.867 30.938 38.703 76.996 60.902 126.37 60.902z"/>
 <path d="m249 577.37c44.656 0 86.496-18.312 117-50.43 30.504 32.117 72.344 50.43 117 50.43s86.496-18.312 117-50.43c30.504 32.117 72.344 50.43 117 50.43s86.496-18.312 117-50.43c30.504 32.117 72.344 50.43 117 50.43 49.363 0 95.43-22.203 126.38-60.902 4.1367-5.1797 3.293-12.727-1.8828-16.867-5.1836-4.125-12.727-3.3086-16.867 1.8828-26.359 32.977-65.59 51.891-107.62 51.891s-81.266-18.914-107.62-51.891c-0.28906-0.36328-0.70312-0.53906-1.0273-0.85938-0.32031-0.32031-0.49219-0.73438-0.85547-1.0234-0.28906-0.23047-0.64063-0.28516-0.94141-0.48437-0.69922-0.46094-1.4062-0.80859-2.1719-1.1133-0.70703-0.28125-1.3906-0.51953-2.125-0.66406-0.74609-0.14453-1.4648-0.17969-2.2227-0.18359-0.80078-0.003906-1.5586 0.035156-2.3438 0.19141-0.70312 0.13672-1.3555 0.36719-2.0312 0.63281-0.78906 0.30859-1.5156 0.66406-2.2305 1.1406-0.29688 0.19531-0.64062 0.25-0.92188 0.47266-0.35938 0.28906-0.53125 0.69922-0.85156 1.0156-0.32031 0.32812-0.73438 0.50391-1.0273 0.87109-26.359 32.977-65.59 51.891-107.62 51.891s-81.266-18.914-107.62-51.891c-0.28906-0.35938-0.69922-0.53516-1.0195-0.85156-0.32031-0.32422-0.49609-0.73438-0.85938-1.0273-0.29297-0.23437-0.65234-0.28906-0.95703-0.49219-0.6875-0.45312-1.3828-0.79688-2.1367-1.0977-0.71875-0.28906-1.4062-0.52734-2.1523-0.67188-0.74219-0.14453-1.457-0.17969-2.2148-0.17969-0.79688-0.003906-1.5547 0.039063-2.3359 0.19141-0.70703 0.13672-1.3633 0.36719-2.0469 0.63672-0.78125 0.30859-1.5078 0.66406-2.2188 1.1367-0.29688 0.19531-0.64453 0.25-0.92578 0.47656-0.35937 0.28906-0.53125 0.69922-0.85156 1.0156-0.32422 0.32422-0.73828 0.5-1.0312 0.86328-26.359 32.977-65.59 51.891-107.62 51.891s-81.266-18.914-107.62-51.891c-0.28906-0.36328-0.69922-0.53516-1.0234-0.85547-0.32031-0.32422-0.49609-0.73438-0.85937-1.0273-0.29297-0.23047-0.64844-0.28906-0.95313-0.49219-0.6875-0.45312-1.3828-0.79688-2.1367-1.0977-0.71875-0.28906-1.4102-0.52734-2.1562-0.67187-0.74219-0.14453-1.457-0.17969-2.2109-0.17969-0.79688-0.003906-1.5508 0.035156-2.3359 0.19141-0.71094 0.14062-1.3711 0.37109-2.0547 0.64062-0.77734 0.30469-1.5 0.66016-2.207 1.1328-0.29688 0.19531-0.64844 0.25391-0.93359 0.47656-0.35938 0.28906-0.53516 0.69922-0.85156 1.0195-0.32422 0.32031-0.73828 0.49609-1.0273 0.86328-26.359 32.977-65.59 51.891-107.62 51.891s-81.266-18.914-107.62-51.891c-4.1406-5.1797-11.695-6-16.867-1.8828-5.1719 4.1406-6.0156 11.691-1.8828 16.867 30.945 38.707 77.012 60.906 126.38 60.906z"/>
 <path d="m249 703.02c44.664 0 86.496-18.312 117-50.43 30.504 32.117 72.336 50.43 117 50.43s86.496-18.312 117-50.43c30.504 32.117 72.336 50.43 117 50.43s86.496-18.312 117-50.43c30.504 32.117 72.336 50.43 117 50.43 49.371 0 95.43-22.203 126.38-60.902 4.1367-5.1797 3.293-12.734-1.8828-16.867-5.1836-4.1406-12.727-3.2969-16.867 1.8828-26.355 32.977-65.582 51.891-107.62 51.891s-81.27-18.914-107.62-51.891c-0.28906-0.36328-0.70312-0.53906-1.0234-0.85938-0.32031-0.32031-0.49609-0.73438-0.85547-1.0234-0.28906-0.23047-0.64062-0.28516-0.94531-0.48438-0.69141-0.45703-1.3906-0.80469-2.1484-1.1055-0.71875-0.28906-1.4141-0.53125-2.1602-0.67187-0.73047-0.14063-1.4375-0.17578-2.1836-0.17969-0.80859-0.003906-1.5781 0.035156-2.3672 0.19141-0.70312 0.13672-1.3555 0.37109-2.0312 0.63672-0.78125 0.30859-1.5078 0.66016-2.2188 1.1367-0.29688 0.19531-0.64844 0.25-0.92969 0.47656-0.35938 0.28906-0.53516 0.69922-0.85547 1.0195-0.32422 0.32031-0.73438 0.49609-1.0273 0.85937-26.355 32.977-65.582 51.891-107.62 51.891-42.043 0-81.27-18.914-107.62-51.891-0.28906-0.35937-0.69922-0.53516-1.0195-0.85156-0.32031-0.32422-0.49609-0.73828-0.86328-1.0273-0.29297-0.23438-0.65234-0.29297-0.96094-0.49609-0.67969-0.44922-1.3672-0.78906-2.1133-1.0859-0.73047-0.29297-1.4336-0.53906-2.1914-0.68359-0.73047-0.14062-1.4336-0.17188-2.1758-0.17578-0.80469-0.003906-1.5703 0.035156-2.3594 0.19141-0.70703 0.14062-1.3633 0.37109-2.0469 0.64062-0.77734 0.30469-1.4961 0.66016-2.2031 1.1289-0.29687 0.19531-0.64844 0.25391-0.93359 0.48047-0.35938 0.28906-0.53516 0.69922-0.85547 1.0195-0.32422 0.32031-0.73438 0.49609-1.0273 0.85937-26.355 32.977-65.582 51.891-107.62 51.891-42.043 0-81.27-18.914-107.62-51.891-0.28906-0.35937-0.69922-0.53516-1.0195-0.85156-0.32031-0.32422-0.49609-0.73828-0.85938-1.0273-0.29297-0.23438-0.65234-0.29297-0.95703-0.49219-0.67969-0.44922-1.3672-0.78906-2.1133-1.0898-0.73047-0.29297-1.4336-0.53906-2.1914-0.68359-0.73047-0.14062-1.4336-0.17578-2.1758-0.17578-0.80469-0.003906-1.5703 0.035156-2.3594 0.19141-0.71094 0.14062-1.3711 0.375-2.0547 0.64453-0.77344 0.30469-1.4883 0.65625-2.1953 1.125-0.30078 0.19922-0.65234 0.25391-0.9375 0.48047-0.36328 0.28906-0.53516 0.70312-0.85547 1.0234-0.32031 0.32031-0.73438 0.49609-1.0234 0.85938-26.355 32.977-65.582 51.891-107.62 51.891s-81.27-18.914-107.62-51.891c-4.1406-5.1797-11.695-6-16.867-1.8828-5.1719 4.1367-6.0156 11.691-1.8828 16.867 30.934 38.703 76.992 60.902 126.36 60.902z"/>
 <path d="m249 828.68c44.664 0 86.496-18.312 117-50.43 30.504 32.117 72.336 50.43 117 50.43s86.496-18.312 117-50.43c30.504 32.117 72.336 50.43 117 50.43s86.496-18.312 117-50.43c30.504 32.117 72.336 50.43 117 50.43 49.371 0 95.43-22.203 126.38-60.902 4.1367-5.1797 3.293-12.734-1.8828-16.867-5.1836-4.1367-12.727-3.3086-16.867 1.8828-26.355 32.977-65.582 51.891-107.62 51.891s-81.27-18.914-107.62-51.891c-0.28906-0.36328-0.70312-0.53906-1.0234-0.85938-0.32031-0.32031-0.49609-0.73438-0.85547-1.0234-0.28906-0.23047-0.64062-0.28516-0.94531-0.48437-0.69141-0.45703-1.3945-0.80469-2.1523-1.1055-0.71875-0.28906-1.4102-0.53125-2.1602-0.67188-0.73047-0.14062-1.4336-0.17578-2.1758-0.17969-0.81641-0.003906-1.5898 0.035156-2.3867 0.19531-0.69141 0.13672-1.3359 0.36328-2.0039 0.625-0.79297 0.30859-1.5234 0.66797-2.2461 1.1484-0.29297 0.19531-0.64062 0.25-0.92188 0.47266-0.35938 0.28906-0.53125 0.69922-0.85156 1.0156-0.32422 0.32422-0.73828 0.5-1.0312 0.86328-26.355 32.977-65.582 51.891-107.62 51.891-42.043 0-81.27-18.914-107.62-51.891-0.28906-0.35938-0.69922-0.53516-1.0195-0.85156-0.32031-0.32422-0.49609-0.73828-0.86328-1.0273-0.29297-0.23437-0.65234-0.29297-0.96094-0.49609-0.67969-0.44922-1.3711-0.78906-2.1172-1.0898-0.72656-0.29297-1.4297-0.53906-2.1875-0.68359-0.72656-0.14062-1.4297-0.17578-2.168-0.17969-0.8125-0.003906-1.5859 0.035156-2.3789 0.19531-0.69922 0.13672-1.3438 0.36719-2.0156 0.62891-0.78906 0.30859-1.5156 0.66797-2.2344 1.1445-0.29688 0.19531-0.64062 0.25-0.92188 0.47266-0.35938 0.28906-0.53516 0.69922-0.85156 1.0156-0.32422 0.32422-0.73828 0.5-1.0312 0.86328-26.355 32.977-65.582 51.891-107.62 51.891-42.043 0-81.27-18.914-107.62-51.891-0.28906-0.35938-0.69922-0.53516-1.0195-0.85156-0.32031-0.32422-0.49609-0.73828-0.85937-1.0273-0.29297-0.23438-0.65234-0.28906-0.95703-0.49219-0.68359-0.44922-1.3711-0.79297-2.1172-1.0898-0.72656-0.29297-1.4336-0.53906-2.1914-0.68359-0.72656-0.13672-1.4258-0.17578-2.168-0.17969-0.8125-0.003907-1.582 0.035156-2.3789 0.19531-0.69922 0.13672-1.3516 0.36719-2.0273 0.63281-0.78516 0.30859-1.5078 0.66406-2.2227 1.1406-0.29688 0.19531-0.64453 0.25-0.92969 0.47656-0.35938 0.28906-0.53516 0.69922-0.85156 1.0195-0.32422 0.32031-0.73828 0.49609-1.0273 0.86328-26.355 32.977-65.582 51.891-107.62 51.891-42.043 0-81.27-18.914-107.62-51.891-4.1406-5.1797-11.695-6-16.867-1.8828-5.1719 4.1367-6.0156 11.691-1.8828 16.867 30.949 38.711 77.008 60.91 126.38 60.91z"/>
 <path d="m249 954.34c44.664 0 86.496-18.309 117-50.426 30.504 32.117 72.336 50.426 117 50.426s86.496-18.309 117-50.426c30.504 32.117 72.336 50.426 117 50.426s86.496-18.309 117-50.426c30.504 32.117 72.336 50.426 117 50.426 49.371 0 95.43-22.195 126.38-60.895 4.1367-5.1797 3.293-12.727-1.8828-16.867-5.1836-4.1367-12.727-3.3047-16.867 1.8828-26.359 32.977-65.59 51.887-107.62 51.887s-81.266-18.91-107.62-51.887c-0.29297-0.36719-0.70703-0.54297-1.0273-0.86328-0.31641-0.32031-0.49219-0.73047-0.85156-1.0195-0.28516-0.22656-0.63672-0.28125-0.93359-0.48047-0.70312-0.46484-1.4141-0.81641-2.1875-1.1211-0.69922-0.27734-1.375-0.51562-2.1016-0.65625-0.75781-0.14844-1.4883-0.18359-2.2578-0.18359-0.78516 0-1.5312 0.035156-2.3008 0.1875-0.71875 0.14062-1.3828 0.375-2.0742 0.64844-0.77734 0.30469-1.4922 0.66016-2.1992 1.1289-0.29688 0.19531-0.64453 0.25-0.92969 0.47656-0.35938 0.28906-0.53516 0.69922-0.85156 1.0156-0.32422 0.32422-0.73828 0.5-1.0312 0.86328-26.359 32.977-65.59 51.887-107.62 51.887s-81.266-18.91-107.62-51.887c-0.28906-0.36328-0.70312-0.53516-1.0234-0.85547-0.32031-0.32031-0.49609-0.73437-0.85938-1.0234-0.28906-0.23047-0.64844-0.28906-0.95312-0.48828-0.69141-0.45703-1.3906-0.80469-2.1484-1.1055-0.71094-0.28516-1.3945-0.52344-2.1328-0.66797-0.75391-0.14453-1.4805-0.18359-2.2461-0.18359-0.78516 0-1.5273 0.035157-2.293 0.1875-0.72266 0.14063-1.3906 0.37891-2.0898 0.65234-0.76953 0.30469-1.4844 0.65625-2.1875 1.125-0.29687 0.19922-0.64844 0.25391-0.93359 0.48047-0.35938 0.28906-0.53516 0.69922-0.85156 1.0156-0.32422 0.32422-0.73828 0.49609-1.0273 0.86328-26.359 32.977-65.59 51.887-107.62 51.887-42.035 0-81.266-18.91-107.62-51.887-0.28906-0.36328-0.70312-0.53906-1.0234-0.85938-0.32031-0.32031-0.49609-0.73438-0.85547-1.0234-0.28906-0.23047-0.64453-0.28906-0.94922-0.48828-0.69141-0.46094-1.3945-0.80469-2.1523-1.1094-0.71094-0.28516-1.3945-0.52344-2.1328-0.66797-0.75391-0.14453-1.4805-0.18359-2.2461-0.18359-0.78125 0-1.5234 0.035156-2.293 0.1875-0.72656 0.14062-1.3984 0.37891-2.0977 0.65625-0.76562 0.30469-1.4766 0.65234-2.1758 1.1172-0.30078 0.19922-0.65234 0.25391-0.94141 0.48437-0.35938 0.28906-0.53516 0.69922-0.85156 1.0195-0.32422 0.32031-0.73828 0.49609-1.0273 0.85938-26.359 32.977-65.59 51.887-107.62 51.887-42.035 0-81.266-18.91-107.62-51.887-4.1406-5.1836-11.695-6.0117-16.867-1.8828-5.1719 4.1406-6.0156 11.691-1.8828 16.867 30.934 38.711 76.992 60.906 126.36 60.906z"/>
 <path d="m249 1080c44.664 0 86.496-18.312 117-50.43 30.504 32.117 72.336 50.43 117 50.43s86.496-18.312 117-50.43c30.504 32.117 72.336 50.43 117 50.43s86.496-18.312 117-50.43c30.504 32.117 72.336 50.43 117 50.43 49.371 0 95.43-22.203 126.38-60.902 4.1367-5.1797 3.293-12.727-1.8828-16.867-5.1836-4.125-12.727-3.3086-16.867 1.8828-26.355 32.973-65.582 51.887-107.62 51.887s-81.27-18.914-107.62-51.891c-0.28906-0.36328-0.70312-0.53906-1.0273-0.85938-0.32031-0.32031-0.49219-0.73438-0.85547-1.0234-0.28516-0.22656-0.63672-0.28125-0.9375-0.48047-0.69922-0.46094-1.4062-0.80859-2.1719-1.1133-0.70703-0.28125-1.3906-0.51953-2.125-0.66406-0.74609-0.14453-1.4648-0.17969-2.2227-0.18359-0.80078-0.003906-1.5586 0.035156-2.3438 0.19141-0.70312 0.13672-1.3555 0.36719-2.0312 0.63281-0.78906 0.30859-1.5156 0.66406-2.2305 1.1406-0.29688 0.19531-0.64063 0.25-0.92188 0.47266-0.35937 0.28906-0.53125 0.69922-0.85156 1.0156-0.32422 0.32422-0.73828 0.5-1.0312 0.86328-26.355 32.984-65.582 51.898-107.62 51.898s-81.27-18.914-107.62-51.891c-0.28906-0.35938-0.69922-0.53516-1.0195-0.85156-0.32031-0.32422-0.49609-0.73437-0.85938-1.0273-0.29297-0.23438-0.65234-0.28906-0.95703-0.49219-0.6875-0.45312-1.3828-0.79688-2.1367-1.0977-0.71875-0.28906-1.4062-0.52734-2.1523-0.67188-0.74219-0.14453-1.457-0.17969-2.2148-0.17969-0.79688-0.003906-1.5547 0.039063-2.3359 0.19141-0.70703 0.13672-1.3633 0.36719-2.0469 0.63672-0.78125 0.30859-1.5078 0.66406-2.2188 1.1367-0.29688 0.19531-0.64453 0.25-0.92578 0.47656-0.35937 0.28906-0.53125 0.69922-0.85156 1.0156-0.32422 0.32422-0.73828 0.5-1.0312 0.86328-26.355 32.977-65.582 51.891-107.62 51.891s-81.27-18.914-107.62-51.891c-0.28906-0.36328-0.69922-0.53516-1.0234-0.85547-0.32031-0.32422-0.49609-0.73438-0.85937-1.0273-0.29297-0.23047-0.64844-0.28906-0.95313-0.49219-0.6875-0.45312-1.3828-0.79688-2.1367-1.0977-0.71875-0.28906-1.4102-0.52734-2.1562-0.67188-0.74219-0.14453-1.457-0.17969-2.2109-0.17969-0.79688-0.003906-1.5508 0.035156-2.3359 0.19141-0.71094 0.14063-1.3711 0.37109-2.0547 0.64063-0.77734 0.30469-1.5 0.66016-2.207 1.1328-0.29688 0.19531-0.64844 0.25391-0.93359 0.47656-0.35938 0.28906-0.53516 0.69922-0.85156 1.0195-0.32422 0.32031-0.73828 0.49609-1.0273 0.86328-26.355 32.977-65.582 51.891-107.62 51.891s-81.27-18.914-107.62-51.891c-4.1406-5.1797-11.695-6-16.867-1.8828-5.1719 4.1406-6.0156 11.691-1.8828 16.867 30.945 38.703 77.004 60.906 126.38 60.906z"/>
</svg>
