<?xml version="1.0" encoding="UTF-8"?>
<svg width="1200pt" height="1200pt" version="1.1" viewBox="0 0 1200 1200" xmlns="http://www.w3.org/2000/svg">
 <path d="m919.31 495.32-127.97 74.672 127.78 223.4h22.547c7.4062 0 14.812-0.46875 22.172-1.4062l1.9219-0.1875h0.46875c1.8281-0.28125 3.6562-0.5625 5.9062-0.89063h0.046876c5.7188-0.9375 11.391-2.2031 16.969-3.7969 3.0938-0.89063 6.0938-1.875 8.9062-2.9062 2.8594-1.0312 5.625-2.2031 8.2969-3.4219 1.0312-0.46875 2.0156-0.9375 3.0469-1.4062 2.5312-1.2188 4.9688-2.3906 7.2656-3.7969 0.75-0.42188 1.5-0.89063 2.2031-1.3125 4.125-2.625 8.1094-5.5312 11.812-8.7188 4.875-3.9375 9.375-8.2969 13.453-13.031 14.391-17.859 22.688-39.844 23.672-62.766l-120.47-210.74zm42.234 437.16c-9.6562 13.219-21.422 24.703-34.781 34.125-3.2812 2.2969-6.6562 4.4531-10.078 6.4688-0.65625 0.375-1.3594 0.75-2.0625 1.125h-0.046875c-4.6406 2.6719-9.4688 5.0625-14.391 7.2188l-1.5469 0.70312c-5.1562 2.1094-10.406 3.9375-15.75 5.4844-1.0312 0.28125-2.0625 0.60938-3.0938 0.89062v-0.046875c-5.3906 1.4531-10.875 2.5781-16.406 3.375-0.9375 0.14062-1.9219 0.23438-2.9062 0.32812v0.046875c-5.9062 0.75-11.859 1.125-17.859 1.1719h-90.469v74.625l-163.92-165.61 163.92-165.61v74.625h189.52c8.1094-0.046876 16.219-0.5625 24.281-1.5469 1.0312-0.14062 2.1562-0.1875 3.1875-0.32812 1.8281-0.28125 3.6094-0.5625 5.4844-0.79688v-0.046874c6.5625-1.0312 13.078-2.4844 19.453-4.3125 3.5156-1.0312 6.8438-2.1094 10.031-3.2812 4.3594-1.5938 8.3906-3.3281 12.234-5.1562 1.2656-0.60938 2.3906-1.2188 3.6094-1.875 1.875-0.98438 3.8906-1.9219 5.625-2.9531 0.89062-0.51562 1.7812-1.0312 2.625-1.5938l0.046875 0.09375c4.7812-3 9.3281-6.375 13.641-10.031 5.7188-4.5938 11.016-9.75 15.844-15.328zm-421.22 34.172v-149.21h-255.56l-11.25 19.688v0.046875c-3.7031 6.4688-6.9844 13.219-9.8906 20.109l-0.79688 1.7812-0.23437 0.42188c-0.65625 1.7812-1.3594 3.4688-2.2031 5.625-2.0625 5.4375-3.7969 11.062-5.2031 16.688-0.79688 3.1875-1.4062 6.2344-1.9688 9.2344-0.51563 3-0.89063 6-1.2188 8.9531-0.14063 1.125-0.23438 2.25-0.28125 3.3281-0.23438 2.8125-0.375 5.5781-0.375 8.25v2.6719c0.14062 4.9688 0.65625 9.8906 1.5469 14.719 0.9375 6.2344 2.4375 12.375 4.4531 18.281 8.0156 21.469 22.734 39.703 42 52.078h240.94v-32.672zm-396-181.64c-6.4688-15.047-10.5-31.125-11.812-47.484-0.32812-4.0312-0.46875-8.0156-0.51562-12.047v-2.3906c0.046874-5.3906 0.375-10.781 1.0312-16.172 0.09375-0.5625 0.09375-1.125 0.1875-1.6875h-0.046876c0.75-5.5781 1.8281-11.109 3.1875-16.547 0.23438-1.0312 0.51563-2.1094 0.79688-3.1406 1.4531-5.3906 3.2344-10.734 5.2969-15.938 0.375-0.89062 0.79688-1.8281 1.2188-2.7188h-0.046874c2.2969-5.5781 4.9688-11.016 7.9219-16.266l45.234-79.125-63.984-37.312 223.92-60.609 60 226.13-63.984-37.312-94.734 165.74c-4.0312 7.125-7.6406 14.438-10.781 21.984-0.42188 0.98437-0.9375 1.9688-1.3125 2.9531-0.65625 1.7344-1.3594 3.4688-2.0625 5.2031v0.046874c-2.3906 6.2812-4.3594 12.656-6 19.172-0.89063 3.6094-1.5938 7.0312-2.2031 10.406-0.79687 4.6406-1.3594 9.0469-1.7344 13.266-0.14063 1.4062-0.14063 2.7188-0.1875 4.0781-0.09375 2.1562-0.28125 4.3594-0.28125 6.375v3.1875c0.14062 5.6719 0.75 11.344 1.7812 16.922 1.0781 7.3125 2.8125 14.531 5.2031 21.516zm181.26-385.4 128.02 74.578 127.69-223.5-11.297-19.688c-3.75-6.4688-7.8281-12.703-12.328-18.703l-1.125-1.5938-0.28125-0.42188c-1.2188-1.4531-2.2969-2.9062-3.7031-4.7344v0.046875c-3.6562-4.5469-7.5469-8.8594-11.719-12.938-2.3438-2.25-4.6406-4.3594-6.9375-6.3281-2.2969-1.9688-4.6875-3.7969-7.0781-5.5312-0.89062-0.65625-1.8281-1.3125-2.7188-1.9219-2.2969-1.5938-4.5938-3.1406-6.8906-4.4531l-2.25-1.2656v-0.046875c-4.3125-2.3438-8.8125-4.3594-13.406-6-5.8125-2.3438-11.812-4.0781-17.906-5.2969-22.453-3.6562-45.516 0.09375-65.672 10.688l-120.37 210.74zm353.76-255.52c16.172 1.8281 31.922 6.375 46.641 13.359 3.6094 1.6875 7.125 3.6094 10.594 5.5781 0.70312 0.375 1.3125 0.84375 2.0156 1.2188 4.5938 2.7188 9.0469 5.7188 13.359 8.9531 0.46875 0.32812 0.9375 0.65625 1.3594 0.98438 4.4062 3.4688 8.625 7.1719 12.609 11.062 0.75 0.75 1.5469 1.5 2.2969 2.25v0.046875c3.8906 3.9844 7.5938 8.2031 11.062 12.609 0.60938 0.75 1.2188 1.5938 1.7344 2.3906v0.046875c3.6094 4.7812 6.9375 9.7969 9.9844 15l45.234 79.125 63.984-37.312-60 226.13-223.92-60.562 63.984-37.359-94.688-165.61c-4.0781-7.0781-8.5781-13.875-13.5-20.391-0.65625-0.84375-1.2188-1.7812-1.875-2.625-1.2188-1.4531-2.2969-2.9062-3.4219-4.4062-4.2188-5.25-8.7188-10.219-13.5-14.953-2.625-2.5781-5.25-4.9219-7.8281-7.2188-3.6094-3.0469-7.0781-5.7188-10.547-8.1562-1.2188-0.79688-2.25-1.4531-3.4219-2.2031-1.7812-1.2188-3.6094-2.3906-5.3438-3.4688-0.89062-0.51562-1.7812-1.0312-2.6719-1.5l0.046875 0.046875c-4.9688-2.6719-10.125-5.0156-15.422-6.9375-6.8438-2.7188-13.875-4.7812-21.047-6.1875h192.28z" fill-rule="evenodd"/>
</svg>
