<?xml version="1.0" encoding="UTF-8"?>
<svg width="1200pt" height="1200pt" version="1.1" viewBox="0 0 1200 1200" xmlns="http://www.w3.org/2000/svg">
 <path d="m1148.4 418.8-19.199 73.199c-12 9.6016-31.199 24-55.199 37.199-21.602 12-42 21.602-60 27.602l21.602-82.801c25.199-7.1992 49.199-18 74.398-32.398 14.398-7.2031 27.602-15.602 38.398-22.801m-121.2 58.801-21.602 82.801 21.602-82.801m-25.199 91.199-25.199 94.801c-40.801 13.199-75.602 14.398-100.8 12-3.6016 0-7.1992-1.1992-12-1.1992l25.199-96c4.8008 1.1992 8.3984 1.1992 13.199 1.1992 7.1992 0 13.199 1.1992 20.398 1.1992 30.004 0 56.402-4.8008 79.203-12m-87.602 4.8008c-3.6016 0-7.1992 0-9.6016-1.1992 3.6016 1.1992 7.2031 1.1992 9.6016 1.1992m-6-87.602-22.801 85.199c-34.801-6-67.199-19.199-98.398-40.801l22.801-82.801c31.199 19.203 63.602 32.402 98.398 38.402m-105.6-44.398-21.602 82.801 21.602-82.801m-24 91.199-25.199 94.801c-30-21.602-58.801-51.602-85.199-87.602l25.199-93.602c26.398 36 55.199 64.801 85.199 86.402m-68.402-181.2-21.602 78c-26.398-37.199-55.199-68.398-84-93.602l21.602-81.602c25.199 24 50.398 52.801 74.398 86.398 3.6016 2.4023 7.2031 7.2031 9.6016 10.805m-88.797-104.4-21.602 81.602 21.602-81.602m-24 91.199-25.199 94.801c-30-26.398-61.199-45.602-93.602-58.801l25.199-96c32.398 13.203 62.398 33.602 93.602 60m-75.602-154.8-22.801 85.199c-22.801-8.3984-45.602-14.398-69.602-16.801-12-1.1992-24-1.1992-34.801-1.1992l22.801-84c12-1.1992 24 0 37.199 1.1992 22.805 1.1992 44.402 7.1992 67.203 15.602m-112.8-16.801-22.801 84zm-25.199 92.398-25.199 94.801c-44.398 2.3984-80.398 16.801-106.8 27.602l25.199-93.602c25.199-10.801 62.402-26.398 106.8-28.801m-134.4 132c1.1992 0 2.3984-1.1992 2.3984-1.1992-1.1992 0-1.1992 1.1992-2.3984 1.1992zm3.5977-1.1992c6-2.3984 12-4.8008 19.199-8.3984-7.1992 2.3984-13.199 6-19.199 8.3984m-31.199 104.4c25.199-12 62.398-26.398 106.8-28.801l-25.199 94.801c-44.398 2.3984-80.398 15.602-106.8 27.602zm-24 100.8c1.1992-1.1992 3.6016-1.1992 4.8008-2.3984-1.1992 1.1992-3.6016 1.1992-4.8008 2.3984m6-2.3984c3.6016-1.1992 8.3984-3.6016 12-4.8008-3.6016 1.1992-8.3984 3.6016-12 4.8008m13.199-6c1.1992-1.1992 3.6016-1.1992 4.8008-2.3984-1.1992 1.1992-2.3984 2.3984-4.8008 2.3984m8.4023-2.4023c1.1992-1.1992 3.6016-1.1992 4.8008-2.3984-2.4023 1.1992-3.6016 2.3984-4.8008 2.3984m7.1992-2.3984c2.3984 0 3.6016-1.1992 6-1.1992-2.4023 0-4.8008 0-6 1.1992m7.1992-2.3984c2.3984-1.1992 4.8008-1.1992 7.1992-2.3984-2.3984 1.1953-4.8008 1.1953-7.1992 2.3984m7.1992-2.4023c2.3984-1.1992 6-1.1992 8.3984-2.3984-3.5977 1.1992-5.9961 2.3984-8.3984 2.3984m9.6016-2.3984c2.3984 0 4.8008-1.1992 7.1992-1.1992-2.3984 0-4.8008 1.1992-7.1992 1.1992m8.3984-2.4023c2.3984 0 3.6016-1.1992 6-1.1992-1.1992 1.1992-3.5977 1.1992-6 1.1992m-70.801 24c1.1992 0 1.1992-1.1992 2.3984-1.1992-1.1953 1.1992-1.1953 1.1992-2.3984 1.1992zm80.402-25.199c2.3984 0 3.6016-1.1992 6-1.1992-2.4023 0-3.6016 1.1992-6 1.1992m8.3984-1.1992c2.3984 0 4.8008-1.1992 7.1992-1.1992-2.3984 0-4.7969 0-7.1992 1.1992m18-2.3984c-3.6016 0-6 0-9.6016 1.1992 3.6016-1.1992 7.2031-1.1992 9.6016-1.1992l-21.602 81.602zm-14.398 84 22.801-84c12 0 24 0 36 1.1992 22.801 2.3984 45.602 7.1992 68.398 16.801l-22.801 85.199c-34.801-13.199-67.199-18-97.199-18-2.3984-1.1992-4.8008-1.1992-7.1992-1.1992m129.6-74.402c-16.801-6-34.801-10.801-51.602-14.398 16.805 3.5977 34.805 7.1992 51.602 14.398l25.199-96zm98.402 69.602c-30-26.398-61.199-45.602-93.602-60 32.402 14.398 63.602 33.598 93.602 60l-22.801 84zm-16.801 90 22.801-84c27.602 25.199 55.199 56.398 81.602 93.602 0 1.1992 1.1992 1.1992 1.1992 2.3984l-21.602 81.602c-27.602-39.602-56.398-69.602-84-93.602m109.2 1.1992 25.199-93.602c0-1.1992-1.1992-1.1992-1.1992-2.3984-26.398-37.199-54-68.398-81.602-93.602 27.602 25.199 55.199 56.398 81.602 93.602 0 1.1992 1.1992 1.1992 1.1992 2.3984l-25.199 93.602m2.4023 18c18 24 37.199 45.602 56.398 62.398-19.199-18-38.398-38.398-56.398-62.398m86.398 85.199c-8.3984-6-18-13.199-26.398-20.398 8.3984 7.1992 16.797 14.398 26.398 20.398l-22.801 85.199zm-16.801 90 22.801-85.199c31.199 20.398 63.602 34.801 98.398 40.801l-22.797 85.199c-33.602-6-67.203-19.199-98.402-40.801m123.6-51.598 25.199-96h-2.3984 2.3984l-25.199 96m6 8.3984c4.8008 0 8.3984 1.1992 13.199 1.1992h1.1992-1.1992c-4.8008 0-9.6016-1.1992-13.199-1.1992m55.199-206.4c4.8008 1.1992 8.3984 1.1992 13.199 1.1992h1.1992-1.1992c-4.8008 0-9.5977 0-13.199-1.1992zm-3.6016 97.199c-3.6016 0-7.1992 0-10.801-1.1992 3.6016 1.1992 7.2031 1.1992 10.801 1.1992m-51.598 0h-1.1992c-1.1992 0-2.3984 0-2.3984-1.1992 1.1953 1.1992 2.3984 1.1992 3.5977 1.1992m-79.199-36 1.1992 1.1992-1.1992-1.1992zm-64.801-193.2c20.398 26.398 40.801 49.199 63.602 68.398-21.602-19.199-43.203-42-63.602-68.398zm-61.199-206.4c27.602 25.199 55.199 56.398 81.602 93.602 0 1.1992 1.1992 1.1992 1.1992 2.3984l-25.199 93.602 25.199-93.602c0-1.1992-1.1992-1.1992-1.1992-2.3984-26.402-37.199-54.004-68.402-81.602-93.602m33.598 309.6c26.398 36 55.199 64.801 86.398 86.398l-25.199 94.801c-30-21.602-58.801-51.602-85.199-87.602zm-61.199-206.4c27.602 25.199 55.199 56.398 81.602 93.602 0 1.1992 1.1992 1.1992 1.1992 2.3984l-25.199 93.602c-26.398-37.199-55.199-68.398-84-93.602zm-68.398-50.398c21.602 12 42 26.398 62.398 44.398l-25.199 94.801 25.199-94.801c-20.398-16.797-42-32.398-62.398-44.398m34.797 147.6-26.398 94.797c-30-26.398-61.199-45.602-93.602-58.801l25.199-96c33.602 14.402 63.602 33.602 94.801 60.004m-70.797-172.8 25.199-96-25.199 96c-18-7.1992-36-12-54-14.398 18 3.5977 36 8.3984 54 14.398m-79.203-112.8c12 0 24 0 36 1.1992 4.8008 0 9.6016 1.1992 15.602 2.3984-4.8008-1.1992-9.6016-1.1992-15.602-2.3984-12-1.1992-24-1.1992-36-1.1992m-27.598 103.2c12 0 24 0 36 1.1992 22.801 2.3984 45.602 7.1992 68.398 16.801l-25.199 96c-22.801-8.3984-45.602-14.398-69.602-16.801-12-1.1992-24-1.1992-34.801-1.1992zm-27.602 103.2c12 0 24 0 36 1.1992 4.8008 0 9.6016 1.1992 14.398 2.3984-4.8008-1.1992-9.6016-1.1992-14.398-2.3984-12-1.1992-24-2.3984-36-1.1992zm19.199-103.2c-3.6016 0-6 0-9.6016 1.1992 3.6016 0 7.2031 0 9.6016-1.1992l-25.199 94.801zm394.8 274.8c-7.1992-4.8008-14.398-10.801-21.602-16.801 7.2031 6 14.402 10.801 21.602 16.801l-25.199 94.801zm33.602-98.398c1.1992 0 1.1992 1.1992 2.3984 1.1992-1.1992-1.1992-1.1992-1.1992-2.3984-1.1992m70.801 142.8-25.199 96c-34.801-6-67.199-19.199-98.398-40.801l25.199-94.801c31.195 20.402 64.797 33.602 98.398 39.602m7.1992-106.8c-1.1992 0-2.3984 0-3.6016-1.1992 1.1992 0 3.6016 1.1992 4.8008 1.1992h-1.1992m20.398 3.5977c-1.1992 0-2.3984 0-3.6016-1.1992 1.2031 1.1992 2.4023 1.1992 3.6016 1.1992l-25.199 96zm-61.199 304.8c-3.6016 0-7.1992-1.1992-12-1.1992l25.199-96c4.8008 1.1992 8.3984 1.1992 13.199 1.1992 7.1992 0 13.199 1.1992 20.398 1.1992 27.602 0 54-4.8008 78-12l-25.199 94.801c-40.797 12-74.398 13.199-99.598 12m97.199-3.6016c-1.1992 0-1.1992 0-2.3984 1.1992-18 4.8008-36 8.3984-54 9.6016 20.398-2.3984 39.598-6 56.398-10.801l-21.598 81.602zm-13.199 78 21.602-81.602c26.398-8.3984 49.199-19.199 67.199-30 19.199-10.801 36-22.801 48-32.398l-19.199 72c-8.3984 7.1992-32.398 27.602-67.199 48-13.203 9.6016-31.203 18-50.402 24m116.4-213.6c2.3984-1.1992 4.8008-2.3984 6-3.6016-1.1992 1.1992-3.5977 2.4023-6 3.6016m-66 30c9.6016-3.6016 18-6 26.398-9.6016-9.5977 3.6016-17.996 6-26.398 9.6016zm18-100.8c-1.1992 0-1.1992 0-2.3984 1.1992-14.398 4.8008-30 7.1992-44.398 9.6016 16.797-2.4023 32.398-6 46.797-10.801l-25.199 94.801zm37.203-105.6c19.199-6 37.199-14.398 51.602-21.602-16.805 8.4023-34.805 16.805-51.602 21.602m66-30c-1.1992 0-1.1992 1.1992-2.3984 1.1992 1.1953 0.003906 2.3984-1.1992 2.3984-1.1992 2.3984-1.1992 4.8008-2.3984 7.1992-3.6016-2.4023 1.2031-4.8008 2.4023-7.1992 3.6016m-58.801 199.2c-21.602 12-42 21.602-61.199 27.602l25.199-93.602c26.398-8.3984 49.199-19.199 67.199-30 19.199-10.801 36-22.801 48-32.398l-24 90c-12 10.797-31.199 25.195-55.199 38.398m73.199-207.6c3.6016-2.3984 8.3984-4.8008 12-7.1992-3.6016 2.3984-7.1992 4.8008-12 7.1992m9.6016 67.199m19.199-87.598c1.1992-1.1992 2.3984-2.3984 4.8008-3.6016-1.2031 2.3984-2.4023 3.6016-4.8008 3.6016m61.199-141.6c-6-3.6016-13.199-2.3984-18 2.3984 0 0-27.602 26.398-69.602 50.398-38.398 21.602-98.398 46.801-164.4 40.801-75.602-7.1992-145.2-52.801-204-135.6-171.6-240-342-192-420-158.4l1.1992-4.8008c3.6016-12-3.6016-24-15.602-26.398-12-3.6016-24 3.6016-26.398 15.602l-252 940.8c-3.6016 12 3.6016 24 15.602 26.398 1.1992-1.1992 3.5977-1.1992 6-1.1992 9.6016 0 18-6 20.398-15.602l103.2-385.2c30-14.398 87.602-40.801 158.4-33.602 88.801 8.3984 171.6 67.199 247.2 172.8 64.801 91.199 140.4 140.4 225.6 147.6 7.1992 1.1992 14.398 1.1992 22.801 1.1992 51.602 0 106.8-15.602 159.6-45.602 45.602-25.199 73.199-52.801 74.398-54 2.3984-2.3984 3.6016-3.6016 3.6016-7.1992l138-513.6c1.1992-6-1.1992-13.199-6-16.801"/>
</svg>
