<?xml version="1.0" encoding="UTF-8"?>
<svg width="1200pt" height="1200pt" version="1.1" viewBox="0 0 1200 1200" xmlns="http://www.w3.org/2000/svg">
 <path d="m853.6 507.66-42.094-317.9c-2.1094-16.5-9.2812-31.781-20.672-43.969l-3.8438-4.2188c-14.906-15.844-35.766-25.125-57.281-25.406l-148.03-2.2969h-1.3125c-25.406 0-49.5 12.234-64.641 32.906l-1.9688 2.6719c-7.9688 11.062-13.125 24-14.812 37.5l-36.891 303.37-253.31 175.03c-46.453 32.156-61.969 94.219-36 144.37l39.375 76.078c19.828 38.344 58.5 60.891 99.609 60.891 11.906 0 24-1.875 35.906-5.8594l214.74-71.953 75.328 135.47c14.719 49.312 69.844 81.703 134.48 81.703 12.188 0 24.75-1.1719 37.406-3.5625 0.65625-0.14062 1.2656-0.32812 1.875-0.42188 0.375-0.09375 0.79688-0.09375 1.1719-0.1875 8.0156-1.5469 15.797-3.7031 23.25-6.375 69.328-23.203 114.52-81 103.64-138.1-2.4844-13.125-7.875-25.312-15.562-36.328 78.797-48 103.36-102.61 109.73-140.81 0.5625-3.2344 1.2656-6.6562 1.9688-10.219 3.9375-18.844 8.8125-42.328-6.7031-58.5zm-70.641 417.74c8.1094-1.5469 16.219-2.2969 24.094-2.2969 16.781 0 32.812 3.4688 46.5 10.172 19.031 9.3281 31.312 23.906 34.594 41.016 3.2344 17.109-2.8125 35.156-17.109 50.812-11.25 12.375-26.484 22.031-43.922 28.172-0.65625 0.1875-1.3125 0.375-1.9688 0.60938-4.6406 1.5469-9.4219 2.7656-14.297 3.7969-1.3125 0.28125-2.5781 0.60938-3.8906 0.89062-24.891 4.5-49.453 1.6406-69.328-8.0625-19.031-9.3281-31.312-23.906-34.594-41.016-3.2344-17.109 2.8125-35.156 17.109-50.859 15.188-16.594 37.453-28.406 62.812-33.234zm129.94 54.234c-0.1875-3.2812-0.5625-6.5625-1.1719-9.8438-4.6875-24.703-21.609-45.328-47.625-58.078-24.844-12.188-55.266-15.703-85.641-9.8906-30.422 5.7656-57.422 20.25-76.031 40.688-19.5 21.375-27.656 46.781-22.922 71.484 1.4531 7.6406 4.2188 14.812 7.9219 21.562-12.328-9.8438-21.469-22.031-26.062-36.141 0-0.09375-0.09375-0.23438-0.09375-0.32812-0.84375-2.6719-1.6406-5.3906-2.1562-8.2031-4.5938-24.047 3.9844-49.359 24.094-71.25 21-22.875 51.844-39.141 86.766-45.75 11.25-2.1562 22.5-3.1875 33.469-3.1875 23.109 0 45.141 4.6875 64.078 13.875 26.719 12.984 43.969 33.375 48.562 57.375 2.3906 12.703 1.125 25.453-3.1875 37.688zm99.422-234.32c-0.79688 3.8438-1.5938 7.5469-2.1562 11.109-4.9219 29.438-22.734 70.312-76.219 109.36l-38.109-181.03c-1.3594-6.4688-7.7344-10.641-14.203-9.2812s-10.641 7.7344-9.2812 14.203l40.125 190.55c-1.5 0.9375-3.0938 1.8281-4.6406 2.7188-8.5312-7.6406-18.469-14.391-29.859-19.922-32.531-15.75-72.469-20.25-112.45-12.656s-75.516 26.484-99.984 53.109c-14.297 15.562-23.766 32.766-28.359 50.484l-123.1-221.44c-3.1875-5.7656-10.547-7.875-16.312-4.6406-5.8125 3.2344-7.875 10.5-4.6875 16.312l57.469 103.41-206.53 69.234-28.406-54.188c-3.0938-5.8594-10.312-8.1562-16.219-5.0625-5.8594 3.0938-8.1562 10.312-5.0625 16.219l25.406 48.516c-35.25 3.1875-69.469-14.812-86.344-47.484l-39.375-76.078c-16.547-31.969-11.672-70.078 10.219-96.891l68.812 132.98c2.1562 4.125 6.3281 6.4688 10.688 6.4688 1.875 0 3.75-0.42188 5.5312-1.3594 5.9062-3.0469 8.1562-10.312 5.1562-16.172l-71.062-137.29c-0.28125-0.51562-0.75-0.84375-1.0781-1.3125 0.046875-0.046875 0.09375-0.046875 0.09375-0.09375l262.22-181.13 36.562-300.71h65.062c6.6562 0 12-5.3906 12-12s-5.3438-12-12-12h-60.938c1.8281-5.5781 4.4531-10.922 7.875-15.75l1.9219-2.625c10.781-14.719 27.844-23.391 46.172-23.062l148.13 2.2969c15.047 0.1875 29.719 6.7031 39.984 17.672l3.7969 4.1719c4.7344 5.1094 8.2969 10.969 10.828 17.25l-152.11 0.046875c-6.6562 0-12 5.3906-12 12s5.3438 12 12 12h157.22l41.719 315.28 180.94 189.71c6.7969 7.125 3.4688 23.016 0.5625 37.078z"/>
</svg>
