<?xml version="1.0" encoding="UTF-8"?>
<svg width="1200pt" height="1200pt" version="1.1" viewBox="0 0 1200 1200" xmlns="http://www.w3.org/2000/svg">
 <path d="m1143.3 586.69-133.31-99.984c-3-2.0156-6.3281-3.3281-9.9844-3.3281h-383.34v-99.984h150c9.3281 0 16.688-7.3125 16.688-16.688v-200.02c0-9.3281-7.3125-16.688-16.688-16.688h-150v-83.344c0-9.3281-7.3125-16.688-16.688-16.688-9.3281 0-16.688 7.3125-16.688 16.688v83.344h-383.29c-3.6562 0-6.9844 1.3125-9.9844 3.3281l-133.36 99.984c-4.3125 3-6.6562 8.0156-6.6562 13.312 0 5.3438 2.3438 10.312 6.6562 13.312l133.31 99.984c3 2.0156 6.3281 3.3281 9.9844 3.3281h383.34v99.984h-150c-9.3281 0-16.688 7.3125-16.688 16.688v200.02c0 9.3281 7.3125 16.688 16.688 16.688h150v233.34h-150c-8.0156 0-14.672 5.6719-16.312 13.312l-30.656 153.32h-53.016c-9.3281 0-16.688 7.3125-16.688 16.688 0 9.3281 7.3125 16.688 16.688 16.688h533.34c9.3281 0 16.688-7.3125 16.688-16.688 0-9.3281-7.3125-16.688-16.688-16.688h-53.016l-30.656-153.32c-1.6875-7.6875-8.3438-13.312-16.312-13.312h-150v-233.34h383.34c3.6562 0 6.9844-1.3125 9.9844-3.3281l133.31-99.984c4.3125-3 6.6562-8.0156 6.6562-13.312 0-5.3438-2.3438-10.312-6.6562-13.312zm-1049-320.02 111-83.344h544.31v166.69h-543.94l-111-83.344zm685.36 849.98h-359.34l26.672-133.31h306zm214.64-433.31h-544.31v-166.69h544.31l111 83.344z"/>
</svg>
