<?xml version="1.0" encoding="UTF-8"?>
<svg width="1200pt" height="1200pt" version="1.1" viewBox="0 0 1200 1200" xmlns="http://www.w3.org/2000/svg">
 <path d="m934.45 266.11h-668.81v667.82h668.76zm-726.19 0v696.61c0 15.844 12.844 28.688 28.688 28.688v0.09375h697.45v112.88h-838.36v-838.26zm783.52 694.08v-722.9c0-15.844-12.844-28.688-28.688-28.688v-0.09375h-826.64l112.36-112.88h855.32v855.19l-112.36 112.83zm-943.36-744.71 166.64-167.39c5.2969-6.1875 13.125-10.078 21.891-10.078h895.87v0.14062c15.844 0 28.688 12.844 28.688 28.688v894.61c0.32812 7.7344-2.4375 15.609-8.3438 21.516l-168.19 168.94c-5.2969 6.1875-13.125 10.078-21.891 10.078h-895.82c-15.891 0-28.781-12.891-28.781-28.781l-0.046875-895.92c0-8.7188 3.8906-16.547 9.9844-21.797z" fill-rule="evenodd"/>
</svg>
