<?xml version="1.0" encoding="UTF-8"?>
<svg width="1200pt" height="1200pt" version="1.1" viewBox="0 0 1200 1200" xmlns="http://www.w3.org/2000/svg">
 <path d="m109.03 829.26c1.9219-1.7344 68.906-52.359 151.6-114.47 29.578-22.219 55.781-42.234 58.266-44.484 4.2656-3.9375 27.938-44.391 68.484-117l13.969-24.984 28.172-15.891c15.469-8.7188 29.344-16.734 30.75-17.766 2.5312-1.875 29.859-42.656 67.594-100.92 10.219-15.797 19.453-29.578 20.484-30.703 1.7812-1.8281 3.0938-1.3125 19.5 7.7812 14.625 8.1562 17.859 9.5156 19.312 8.2969 0.98438-0.79688 12.562-10.125 25.734-20.672 13.172-10.594 27.422-21.984 31.594-25.359 4.2188-3.375 8.1562-6.1406 8.8594-6.0938 0.65625 0 13.312 15.656 28.172 34.781 20.953 27 52.078 66.75 55.266 70.547 0.23438 0.28125 4.6406-0.9375 9.8438-2.625 5.2031-1.7344 10.078-3.0938 10.828-3.0469s3.3281 3.0469 5.7188 6.75c4.5469 7.0312 63.281 87.562 72.609 99.562 3.6562 4.7344 11.391 11.531 23.438 20.625 9.8906 7.5 19.922 15.234 22.359 17.156 5.3906 4.4062 8.2031 8.0156 125.81 164.02 36.891 48.938 45.094 59.109 52.266 65.062 15.938 13.125 34.312 29.062 34.734 30.047 0.23438 0.5625-221.76 0.98438-493.31 0.98438-415.18 0-493.45-0.23438-492-1.5938zm707.06-74.531c-12.469-26.156-14.297-30.516-12.797-30.516 0.32812 0 14.672 8.0625 31.922 17.953 37.922 21.703 46.688 26.578 47.906 26.578 1.6406 0-9.7969-11.109-53.484-51.891-57.75-53.906-65.297-61.688-89.719-92.25-23.953-29.953-16.828-24.281-66.75-53.344-21.703-12.656-88.453-47.906-89.156-47.062-0.51562 0.5625 56.953 91.5 62.484 98.906 5.1094 6.8438 16.875 19.125 18.328 19.125 0.28125 0-1.0312-5.9062-2.8594-13.125s-3.1875-13.312-3-13.5 3.3281 3.1875 6.9844 7.5469c7.125 8.4844 10.781 15.141 51.75 94.406 14.203 27.422 25.875 49.781 26.016 49.641s-12.047-36.844-27.047-81.609c-29.016-86.531-29.438-87.844-27.891-87.844 1.4531 0 38.25 49.406 79.875 107.25 11.156 15.469 20.766 28.641 21.422 29.297 1.4062 1.3594-3.75-7.875-9.1406-16.453-4.5469-7.2656-6.6562-11.109-6-11.109 0.98438 0 19.734 26.062 36.516 50.672 9.5625 14.016 17.484 25.5 17.625 25.5 0.1875 0-5.7188-12.609-13.078-28.078zm138.71 4.4062c-13.547-22.969-17.625-30.328-17.062-30.844 0.23438-0.23438 2.9062 1.0781 5.9531 2.9531 8.6719 5.3906 46.641 24.891 47.297 24.281 0.32812-0.32812-11.719-11.578-26.719-25.078-41.016-36.844-44.062-39.422-45.703-38.766-0.84375 0.32812-13.125 7.5-27.281 15.938-14.203 8.4375-26.484 15.75-27.328 16.266-1.0781 0.60938 1.9688 2.7656 9.375 6.6094l10.922 5.7188 11.719-6.9375c15.984-9.4688 27.562-15.844 27.562-15.141 0 0.32812-3.1875 8.5781-7.0312 18.422-3.8906 9.7969-6.8438 18.047-6.6094 18.281s4.4062-0.46875 9.3281-1.5469l8.9062-1.9688 11.344 9.2344c6.2344 5.1094 14.297 11.672 17.953 14.672 3.6094 3 6.7969 5.25 6.9844 5.0625 0.23438-0.1875-4.0312-7.9219-9.4688-17.156zm-626.68-49.781c15.141-10.922 45.094-32.625 66.516-48.188s38.953-27.844 38.953-27.281c0 1.3125-17.297 39.375-23.438 51.609-2.6719 5.2969-4.6406 9.7969-4.4062 10.031s5.7656-7.3125 12.281-16.828 18.562-26.766 26.766-38.344 24.938-35.578 37.172-53.297c39.562-57.234 39.891-57.656 40.781-56.016 1.1719 2.1562 28.5 166.4 30.516 183.32 0.14062 1.1719 1.4531-7.125 13.406-85.125 4.9219-31.922 9.1406-58.781 9.4688-59.766 0.375-1.1719 11.203 9.0938 32.156 30.469l31.594 32.203-22.453-31.641c-19.219-27.094-41.953-58.594-66.047-91.406-3.3281-4.5-10.688-14.672-16.453-22.594l-10.406-14.391-5.3438 5.1094c-4.9688 4.7812-60.469 53.062-103.69 90.234-21.281 18.328-24.188 21.047-18.281 17.391 14.062-8.7188 55.312-31.969 55.828-31.5 1.1719 1.1719-87.375 101.11-141.1 159.24-11.109 12.047-20.203 22.219-20.203 22.641s1.9688-0.75 4.4062-2.6719c2.4375-1.875 16.781-12.375 31.922-23.344zm544.22-5.3906c-2.3438-4.0781-22.734-33.422-37.547-54.188l-16.781-23.438v-13.688l17.297 14.953c9.5156 8.2031 18.562 16.031 20.156 17.391l2.8594 2.4375-2.1094-3.375c-1.1719-1.875-10.875-15.328-21.516-29.859-10.688-14.578-27.75-37.969-38.016-51.938-10.219-14.016-18.984-25.688-19.5-26.016s-12.141 10.688-25.875 24.469l-24.984 25.031 6.7031 9.5156c3.6562 5.2031 7.0312 9.4688 7.5 9.4219 0.42188-0.046875 5.5312-5.6719 11.344-12.469 12.891-15.141 26.531-29.859 27.094-29.25 0.46875 0.46875-8.7656 28.125-14.062 42.141-1.6406 4.3594-2.8125 7.9219-2.625 7.9219s7.125-7.9219 15.422-17.625c9.9844-11.719 15.328-17.109 15.891-16.125 0.46875 0.84375 3.4688 14.672 6.75 30.797l5.9062 29.297 33.188 33.094c18.234 18.188 33.328 33.094 33.516 33.094s0-0.65625-0.46875-1.4531zm55.453-51.562c-8.0156-10.781-46.688-65.625-50.297-71.344-3.5625-5.625-6.5156-8.1094-19.828-16.875-19.125-12.609-19.125-12.562-30.094-26.344-4.875-6.1406-16.547-20.344-25.969-31.641-14.484-17.391-30.75-40.219-42.234-59.109-2.7188-4.5-2.8125-4.5469-3.5625-1.7344-0.42188 1.5469-2.0156 10.359-3.5625 19.547s-3.0469 16.688-3.4219 16.688c-0.5625 0-6.0938-9.5156-36.75-62.531-3.75-6.5156-7.2656-12.281-7.7812-12.844-0.89062-0.9375 1.6875 15.234 3.0469 19.172 1.5 4.3125-4.1719-3.7969-28.031-40.453-13.875-21.281-25.922-39.609-26.766-40.734-1.3594-1.8281-2.9062 1.2188-13.172 25.781-6.375 15.328-16.266 38.391-21.984 51.281l-10.359 23.438 4.4062 9.6562c2.4375 5.2969 4.6875 9.6562 5.0156 9.6562s2.7656-4.3594 5.4375-9.6562c11.438-23.016 36.656-68.016 37.219-66.469 1.5469 4.4062 28.031 126.98 32.391 149.95 1.4062 7.4062 2.7188 13.641 2.8594 13.828 0.1875 0.1875 3.9375-14.438 8.3906-32.484 4.4062-18.094 8.3438-32.859 8.7656-32.859s9.3281 13.734 19.875 30.469l19.125 30.516 13.828-13.781c12.984-12.984 13.969-13.688 16.359-12.234 1.4062 0.89062 14.156 10.359 28.406 21.094s30.703 22.641 36.609 26.484l10.734 6.9844 6.2812 12.797c5.8594 11.953 7.0312 13.453 18 23.625 15.469 14.297 48.797 43.922 49.453 43.922 0.28125 0-0.79688-1.7344-2.3438-3.7969zm-304.69-148.13c-22.688-45.328-66.516-127.08-68.156-127.13-2.3438-0.046875-67.406 95.438-66 96.844 0.375 0.375 8.8594-6.1406 43.266-33.234l16.875-13.266 1.7812 46.5 4.9688 4.4531c2.7188 2.4375 6.5156 5.5781 8.3906 6.9375l3.4219 2.4844-1.5-49.031 2.9531 3.5156c3.5625 4.2188 62.531 84.188 65.531 88.828 1.1719 1.7812 2.3438 3.0469 2.625 2.7656s-6.0469-13.594-14.062-29.625z"/>
</svg>
