<?xml version="1.0" encoding="UTF-8"?>
<svg width="1200pt" height="1200pt" version="1.1" viewBox="0 0 1200 1200" xmlns="http://www.w3.org/2000/svg">
 <g>
  <path d="m812.57 637.69c23.664-14.719 51.59-21.051 79.289-17.977 25.461 1.668 49.062 12.473 74.145 16.273 33.742 6.3086 68.34 6.5625 102.17 0.75781 31.41-5.6172 59.316-23.441 77.621-49.578 17.805-24.125 29.785-52.039 35.008-81.562 3.2734-19.043 0.47266-38.633-8-55.996-2.2227-4.6758-5.6836-8.6523-10.008-11.496-4.3281-2.8438-9.3477-4.4492-14.523-4.6406-6.8438 0.03125-13.375 2.875-18.062 7.8633-6.0352 8.668-12.766 16.832-20.129 24.41-13.332 10.676-29.586 17.059-46.621 18.305-11.262 1.7969-22.059 5.7969-31.773 11.766-14.316 12.664-27.75 26.293-40.203 40.789-14.582 12.594-31.66 21.969-50.113 27.508-31.176 8.9336-63.82 11.535-96.012 7.6562-15.445-1.9219-30.992-2.9102-46.555-2.957-8.3633 0.65625-16.664 1.9609-24.824 3.9023-0.82031-3.7891-1.9727-7.5039-3.4414-11.094 12.383-14.656 26.508-27.75 42.062-38.984 13.5-8.2734 28.242-14.328 43.664-17.926 16.906-3.2227 32.816-10.379 46.449-20.883 10.004-12.379 17.469-26.605 21.969-41.875 12.48-26.777 33.355-48.754 59.453-62.602 11.645-4.8438 22.59-11.219 32.547-18.957 7.4883-9.25 18.215-15.305 30.004-16.93 4.1797 2.1328 2.6836 7.4648 1.8594 11.098-5.5 16.465-17.605 29.895-33.41 37.074-15.691 6.6445-29.75 16.625-41.203 29.242-7.4258 8.0781-11.426 18.727-11.145 29.695 0.41406 3.7461 1.9805 7.2734 4.4883 10.09 2.5039 2.8164 5.8242 4.7852 9.4961 5.6328 9.5391 1.7539 19.387 0.29688 28.008-4.1445 17.121-8.457 34.82-15.684 52.969-21.625 14.73-3.3672 28.562-9.8633 40.566-19.043 13.434-13.266 22.52-30.297 26.062-48.84 5.9219-23.926 4.2305-49.102-4.8359-72.016-8.8242-22.383-25.129-41.023-46.137-52.746-21.277-12-46.281-15.582-70.07-10.047-28.699 7.1719-54.105 23.891-72.047 47.41-16.637 23.293-29.891 48.824-39.363 75.832-8.9766 22.227-19.711 43.703-32.102 64.223-12.629 18.105-28.168 33.996-45.984 47.031-23.293 14.949-44.051 33.52-61.484 55.02-6.5195-10.602-14.262-20.402-23.066-29.195 3.5156-8.6914 8.1211-16.898 13.711-24.43 11.012-13.02 23.504-24.711 37.227-34.836 39.684-37.992 71.531-83.402 93.742-133.65 14.773-29.129 27.871-59.074 39.223-89.699 5.8125-14.289 8.8398-29.559 8.9297-44.984 0.11328-12.855-4.9648-25.215-14.09-34.27-5.7422-5.3906-13.289-8.4453-21.16-8.5664-23.043 3.3945-42.98 17.809-53.434 38.621-10.145 15.902-17.434 33.457-21.539 51.867-7.6562 33.305-10.992 67.453-19.27 100.64-6.6367 32.426-19.559 63.234-38.035 90.695-10.578 14.52-24.754 25.805-36.266 39.516-7.5195 8.6641-13.977 18.199-19.23 28.402-6.4062-4.4297-13.141-8.3633-20.148-11.766 1.7852-14.547 6.1289-28.656 12.836-41.684 12.285-19.758 27.066-37.848 43.973-53.832 11.633-11.227 20.871-24.691 27.164-39.582 4.668-17.574 6.7852-35.723 6.293-53.898 0.58203-34.836 5.1641-69.484 13.66-103.27 4.0273-16.875 9.0664-33.477 14.105-50.078h0.003906c3.3984-10.086 5.5195-20.559 6.3125-31.172 0.76953-12.086-4.8945-23.68-14.898-30.5-9.3594-5.4883-20.824-6.0039-30.641-1.3789-16.918 8.2383-30.176 22.461-37.211 39.914-4.6719 10.762-8.0938 22.02-10.199 33.562-2.8828 21.668-3.4688 43.582-1.7539 65.371 4.0977 29.836 2.5508 60.176-4.5586 89.441-7.5625 20.539-17.316 40.199-29.094 58.645-13.172 21.852-20.715 46.633-21.949 72.117-0.33594 11.113-1.543 22.18-3.6133 33.102-6.9805-1.5352-14.066-2.5469-21.195-3.0312 4.4414-12.941 6.4375-26.598 5.8828-40.27-2.3906-14.02-11.562-25.719-14.363-39.637-5.5312-23.719-2.2344-48.641 9.2734-70.105 15.504-27.316 27.918-56.277 37.004-86.344 5.4023-23.672 6.8164-48.082 4.1797-72.219-3.3047-33.191-18.031-64.203-41.664-87.738-17.285-17.57-40.164-28.555-64.688-31.051-10.484-0.44531-20.973 0.79297-31.066 3.6641-22.445 6.0312-40.574 22.559-48.652 44.352-5.5156 16.977-7.2656 34.953-5.125 52.676 2.543 22.109 12.438 42.723 28.094 58.543 5.1641 6.1445 12.77 9.7188 20.797 9.7773 8.0312 0.054688 15.684-3.4102 20.938-9.4844 13.078-12.961 19.758-31.039 18.25-49.391-1.8594-7.2617-3.0078-14.688-3.4219-22.176 1.082-5.5039 6.2617-11.75 12.457-9.7031h-0.003906c6.168 3.4102 11.152 8.6172 14.277 14.934 5.5234 11.676 7.5781 24.695 5.918 37.504-6.5312 43.871-16.016 87.254-28.383 129.85-8.1992 35.492-6.6836 72.539 4.3867 107.24 7.3906 22.531 20.246 42.879 37.418 59.234-8.0508-0.17188-16.086 0.94531-24.117 0.82422h-0.003907c-16.094-6.7227-30.867-16.25-43.625-28.145-18.684-18.066-31.949-40.996-38.297-66.199-6.1055-20.746-5.5586-42.629-10.203-63.652h0.003907c-7.9844-43.473-24.641-84.891-48.98-121.78-13.25-17.84-30.168-32.633-49.613-43.391-16.629-9.8242-35.73-14.668-55.035-13.949-29.195 3.2227-57.254 13.125-82.008 28.938-23.402 12.582-40.184 34.711-45.984 60.641-2.2812 15.727 0.76172 31.766 8.6367 45.57 6.125 13.594 15.684 25.363 27.73 34.148 20.871 11.531 43.586 19.359 67.129 23.137 10.199 3.3281 21.02 4.3203 31.652 2.9102 4.1328-1.957 7.4492-5.3008 9.375-9.4492 1.9219-4.1484 2.332-8.8398 1.1562-13.262-3.3672-14.43-10.75-27.609-21.301-38.02-5.9062-5.8828-10.426-13.012-13.227-20.867-1.5234-3.8047-0.46094-8.1602 2.6484-10.836 8.1055-0.23047 16 2.6211 22.09 7.9805 11.332 9.3711 21.074 20.516 28.848 32.996 13.867 20.422 25.238 42.391 38.727 63.051 14.828 23.621 34.148 43.938 49.77 66.973 18.41 24.402 29.047 53.781 30.52 84.312-0.38672 9.3477-1.6016 18.637-3.6289 27.77 0 7.9141-7.2617 12.766-10.27 19.543h-0.003906c-9.0234-8.3789-16.906-17.902-23.449-28.336-12.887-22.555-21.125-47.617-35.953-69.07-8.8555-11.703-19.465-21.965-31.449-30.434-25.645-19.297-52.871-36.402-81.387-51.129-23.344-13.211-47.547-24.844-72.445-34.816-26.84-11.148-55.871-16.031-84.879-14.281-14.074 1.5781-27.496 6.7695-38.969 15.07-8.2656 5.9805-14.129 14.719-16.531 24.637-2.2422 9.582 0.69531 19.641 7.7422 26.508 10.082 10.27 25.219 8.207 38.121 10.992l0.003906 0.003907c20.332 4.5156 39.305 13.789 55.359 27.059 8.5156 6.8203 18.109 12.168 28.383 15.828 9.4609 2.4023 19.285 3.0195 28.973 1.8242 16.637-1.9727 33.488-1.1484 49.855 2.4414 14.629 4.3945 28.188 11.781 39.809 21.695 22.715 18.422 44.164 38.355 64.203 59.66 11.633 13.566 23.953 26.527 36.918 38.828 6.0078 5.7891 12.91 10.574 20.438 14.176-3.9688 10.379-7.0742 21.07-9.2891 31.961-14.121 0.027344-28.145-2.3047-41.496-6.8984-11.09-4.5391-21.695-10.188-31.652-16.859-18.598-10.84-39.051-18.121-60.316-21.469-35.863-4.2109-71.996-5.7344-108.09-4.5586-19.277-0.17969-38.371-3.7734-56.395-10.613-9.2148-4.5469-19.387-6.8008-29.66-6.5742-9.0273 2.0898-18.504 0.97266-26.801-3.1641 4.6797-11.074 14.816-18.895 26.715-20.609 14.871-2.2969 30.09-0.35156 43.906 5.6094 17.195 6.5156 36.027 7.3594 53.742 2.4062 9.1641-2.7773 16.461-9.7422 19.664-18.77 1.0859-6.2969-0.67188-12.754-4.8008-17.633-8.2969-9.0156-18.762-15.762-30.398-19.594-13.625-5.6953-26.785-12.453-39.859-19.32-12.59-7.9922-27.105-12.438-42.012-12.867-27.859 2.043-54.129 13.758-74.266 33.117-24.664 21.883-38.297 53.613-37.195 86.566 0.89453 33.355 18.852 63.918 47.551 80.941 20.59 12.031 44.516 17.082 68.211 14.402 28.762-4.8516 57.07-12.07 84.641-21.594 43.352-14.02 89.25-18.359 134.46-12.711 19.621 4.2188 38.848 10.094 57.477 17.562 14.309 4.3984 29.336 5.9883 44.246 4.6797 0.27344 12.473 1.6719 24.891 4.1836 37.109-16.062 3.8242-32.828 3.5234-48.738-0.87891-16.789-5.2227-34.195-8.2031-51.766-8.8594-21.387-1.7188-42.898 1.1094-63.117 8.293-14.109 7.0312-26.02 17.801-34.426 31.137-16.98 23.539-37.738 44.105-61.434 60.867-11.297 8.5508-24.805 13.691-38.93 14.812-6.5039 0.30859-12.707-2.7773-16.379-8.1562-1.2656-6.6328 2.4727-13.203 8.8281-15.5 8.8281-3.5156 17.461-7.5156 25.855-11.973 15.516-8.8945 27.918-22.348 35.523-38.535 2.3008-4.6641 2.9961-9.957 1.9844-15.059-1.0156-5.1016-3.6836-9.7266-7.5938-13.156-8.3945-4.6758-18.039-6.6289-27.594-5.5898-17.68 0.27734-35.301 2.1133-52.656 5.4883-27.555 4.5898-51.977 20.391-67.457 43.645-14.363 26.227-13.742 58.102 1.6367 83.746 11.121 19.508 28.863 34.395 50.008 41.957 28.984 9.0117 59.996 9.1562 89.062 0.41406 29.609-9.4062 56.281-26.309 77.43-49.066 21.969-21.109 38.207-47.91 62.859-66.215h0.003906c19.066-13.828 42.707-19.824 66.059-16.754 20.32 3.4648 41.211-0.41797 58.922-10.961 2.1523 5.1445 4.3008 10.305 6.5547 15.414-21.176 12.73-46.637 16.258-66.887 30.727-20.691 16.441-39.23 35.43-55.172 56.512-15.469 16.309-34.078 29.316-54.707 38.242-13.16 6.0195-27.027 10.289-40.273 16.121h0.003906c-26.602 10.332-50.609 26.375-70.328 47-10.23 11.145-18.34 24.062-23.93 38.121-6.4219 15.855-8.3008 33.184-5.4375 50.043 0.80859 5.832 3.1523 11.34 6.7852 15.969 3.6289 4.6328 8.4258 8.2148 13.895 10.391 6.8125 2.1016 14.188 1.3281 20.418-2.1328 9.6016-5.4883 14.363-15.93 21.605-23.828h0.003907c17.078-17.762 36.535-33.07 57.82-45.484 34.641-19.555 67.875-41.496 99.469-65.668 21.656-18.52 39.367-41.207 52.074-66.715 5.2969-12.734 14.344-23.551 25.941-31.016 9.918-3.5391 20.676-3.9766 30.848-1.2578 14.004 2.0469 28.145 3.25 42.043 6.0391 5.8281 1.4883 11.395 3.8477 16.516 7-7.5273 10.266-16.625 19.273-26.957 26.703-13.641 7.8867-26.863 16.469-39.617 25.719-30.961 24.477-54.18 57.391-66.855 94.773-6.9766 24.441-10.5 49.738-10.457 75.16-0.86328 18.395-2.7891 36.723-5.7656 54.895-2.0117 12.801-5.0938 25.41-7.7266 38.09h0.003906c-2.4375 8.9844-2.4336 18.457 0.015625 27.438 1.8633 5.8828 5.6328 10.977 10.715 14.473 5.082 3.5 11.184 5.2031 17.344 4.8477 14.141-1.6211 27.203-8.3516 36.73-18.926 18.004-19.797 30.566-43.926 36.453-70.031 3.6953-16.164 5.8203-32.648 6.3477-49.219-1.7344-30.027-0.18359-60.148 4.6289-89.836 7.8125-31.402 25.477-59.473 50.406-80.098 13.781-10.93 25.344-24.398 34.062-39.672 5.3164 0.89453 10.648 1.7188 16 2.4766 4.8164 16.938 4.2891 34.949-1.5156 51.574-4.25 10.809-11.176 20.355-20.129 27.75-10.754 8.1875-19.637 18.582-26.043 30.484-6 15.012-10.797 30.473-14.348 46.242-8.7539 25.586-14.859 51.996-18.219 78.828-2.0156 25.344 2.7852 50.762 13.898 73.629 17.105 32.113 45.668 56.613 80.012 68.625 27.422 11.586 58.316 11.824 85.914 0.67188 25.504-12.848 44.191-36.117 51.23-63.793 4.6367-26.93 3.7812-54.52-2.5117-81.109-1.4961-8.5156-3.0977-17.016-5.1445-25.41-2.3398-6.7695-3.0117-14.008-1.9609-21.094 4.8398-20.797 7.1445-42.109 6.8672-63.461-1.7969-27.418-9.0664-54.195-21.387-78.758-10.371-22.309-25.762-41.914-44.969-57.285 22.031-8.4609 42.121-21.297 59.059-37.727 2.2031 1.3242 4.3164 2.7852 6.5195 4.1992v-0.003907c-1.582 10.59-1.9922 21.32-1.2188 32 2.2148 18.707 9.1094 36.559 20.039 51.902 18.281 24.422 39.848 46.207 64.086 64.734 19.43 16.051 37.789 33.355 54.965 51.797 13.539 13.262 23.371 29.832 28.523 48.066 2.2344 9.2969 0.44531 19.102-4.9219 27.012-1.8789 1.7852-4.4102 2.7188-7 2.5742-2.5898-0.14062-5.0078-1.3477-6.6758-3.332-7.2266-6.0391-5.918-16.395-9.6836-24.273h-0.003906c-7.0781-16.727-21.012-29.598-38.242-35.336-5.6211-1.793-11.688-1.6172-17.199 0.49219-5.5117 2.1094-10.141 6.0312-13.129 11.121-6.3711 13.406-9.2656 28.203-8.4141 43.023-0.46484 26.449 9.1133 52.09 26.805 71.754 12.91 13.844 30.992 21.707 49.922 21.711 29.211 0.28516 56.664-13.93 73.289-37.949 13.73-20.656 20.914-44.973 20.609-69.777-0.93359-26.113-6.6133-51.84-16.758-75.918-5.3281-14.5-11.902-28.508-19.645-41.875-12.828-21.918-30.012-40.977-50.492-55.996-20.883-16.703-45.883-27.852-65.113-46.637h-0.003906c-10.43-13.402-20.035-27.426-28.762-41.992-8.3516-10.535-18.734-19.281-30.535-25.719 2.7539-5.5898 5.7812-11.012 8.5312-16.586 10.492 5.4375 19.336 13.488 29.641 19.234 12.988 4.5195 26.68 6.6914 40.43 6.418 21.207 3.918 40.562 14.637 55.137 30.535 17.762 22.656 33.039 47.156 45.57 73.078 16.469 24.969 39.004 45.355 65.496 59.25 24.457 13.859 53.691 16.547 80.27 7.3789 19.383-7.875 35.516-22.098 45.762-40.344 13.574-22.707 22-48.117 24.684-74.438 2.957-24.387-3.8047-48.957-18.82-68.398-10.965-13.301-24.297-24.461-39.324-32.91-9.7422-5.2812-20.859-7.4766-31.879-6.2969-15.473 1.2539-29.969 8.0508-40.824 19.148-6.2227 7.1562-8.4844 16.934-6.0352 26.098 4.2305 15.184 14.098 28.18 27.594 36.332 11.059 6.3086 18.855 17.09 21.383 29.574-1.5078 2.457-3.6992 4.4219-6.3047 5.6523-2.6055 1.2305-5.5156 1.6758-8.3711 1.2773-15.492-1.7227-30.043-8.3125-41.562-18.82-21.281-16.41-40.359-35.492-61.691-51.852v0.003906c-24.133-21.207-52.98-36.348-84.141-44.164-29.789-6.5547-60.621-6.7617-90.492-0.60156 0.53516-3.0117 0.12109-6.5391 2.4258-8.8789 7.6914-10.121 17.074-18.84 27.734-25.77zm-121.03 252.94c2.5352 29.801-5.1328 59.578-21.746 84.449-10.945 14.762-19.527 31.133-25.441 48.531-3.6992 13.969-0.82422 29.691-9.375 42.234-3.1641 4.8672-9.2734 11.629-15.516 7.5352h-0.003906c-11.355-8.5859-18.059-21.977-18.133-36.215 0.09375-23.926 4.3789-47.652 12.664-70.102 12.672-33.254 22.789-67.426 30.262-102.22 1.8594-12.566 1.9727-25.332 0.34375-37.934-3.2539-11.793-5.6406-23.812-7.1406-35.953 4.6172-0.59766 9.1914-1.4883 13.691-2.6641 1.7305 13.594 6.8086 26.543 14.781 37.691 13.691 19.133 22.484 41.328 25.613 64.648zm31.809-266.34c-7.4922 4.1094-15.66 6.8438-24.117 8.0664-5.9688 1.7188-10.562-3.0977-15.688-5.1445h-0.003906c2.5742 5.293 5.8242 10.227 9.668 14.676 7.5352 8.0352 21.504 3.957 28.129 13.246 2.5039 3.5664 2.9453 8.1914 1.1641 12.168-1.7812 3.9805-5.5234 6.7305-9.8516 7.2383-8.0352 0.98828-16.188 0.007813-23.758-2.8555-5.1953-2.3398-6.5898-9.4102-12.523-10.426-1.1953 4.5117-0.73047 9.3047 1.3047 13.504 5.5234 7.9297 15 11.355 22.141 17.445 8.0156 9.0156-3.0781 24.582-14.277 21.055-6.4688-2.9766-9.9766-9.5469-15.02-14.211-5.9883-6.1602-14.555-11.75-13.984-21.469-3.2109 5.7461-4.7773 12.266-4.5234 18.84 3.7852 9.4961 14.125 16.551 13.23 27.645h-0.003907c-2.0508 4.3906-6.2617 7.3789-11.082 7.8672-4.8242 0.48828-9.5469-1.6016-12.434-5.4922-4.1758-6.5898-7.3711-13.754-9.4805-21.262-2.0625-5.7812 0.53516-11.664 0.32812-17.531-4.4258 2.0234-7.7734 5.8398-9.2031 10.492-3.3555 12.867 6.1914 26.062 0.65234 38.656-2.793 4.168-7.7891 6.293-12.73 5.4141-4.9414-0.87891-8.8945-4.5977-10.082-9.4727-0.56641-14.07 4.9219-27.699 5.5898-41.598-3.4219-3.75-9.4453-0.42969-10.547 3.8203-2.8555 11.301-2.5273 24.789-11.715 33.34h0.003906c-3.2305 2.7773-7.6484 3.7383-11.742 2.5469s-7.3047-4.3711-8.5391-8.4492c2.6719-8.5391 6.2812-16.754 10.766-24.496 2.168-4.1797 5.4883-10.77 0.13672-13.988h0.003906c-5.8711 6.5781-13.184 11.707-21.367 14.984-3.3008 2.1758-7.4531 2.6133-11.133 1.1719-2.8633-1.9688-5.0078-4.8125-6.1094-8.1055-1.1016-3.293-1.1016-6.8555 0.003906-10.148 3.0117-6.0547 7.1562-11.457 10.613-17.238 2.0625-2.8828 4.8047-5.2109 7.9844-6.7773-3.0469-3.207-7.5703-4.5469-11.871-3.5273-7.6562 2.8047-14.434 9.7031-23.156 8.1875-3.3164-1.582-5.918-4.3594-7.2852-7.7695-1.3672-3.4141-1.4023-7.2188-0.09375-10.652 3.9922-5.0352 8.7656-9.3984 14.141-12.922 5.7969-4.6602 13.781-2.9922 20.594-4.5938 1.4805-3.1641-3.0781-5.4375-4.8672-7.5703-9.0664-9.1016-22.863 1.9453-32.688-5.332h-0.003907c-2.6094-3.0195-3.7578-7.0352-3.1445-10.98 0.60938-3.9453 2.9258-7.4219 6.3281-9.5078 9.0195-5.0859 19.957-5.4141 29.262-0.87891 3.8281 2.375 7.8398 4.4453 11.992 6.1953 1.3438-3.2891 2.1797-6.7656 2.4766-10.305-9.7891-5.9336-20.254-10.676-31.172-14.125-4.6445-2.1172-7.7109-6.6523-7.9492-11.75 0.66406-5.3203 3.7344-10.039 8.3281-12.801 3.8516-1.2812 8.0898-0.47266 11.199 2.1328 10.133 6.5039 20.266 13.059 29.934 20.266 2.0117-6.4492 1.9141-13.371-0.27344-19.766-5.918-4.1992-15.086-7.293-15.895-15.57l-0.003907 0.003906c-0.50391-4.2109 1.2461-8.375 4.6055-10.957 3.3633-2.5859 7.8359-3.207 11.773-1.6367 4.6211 2.4023 8.7227 5.6992 12.059 9.7031 5.6094 6.3125 14.246 11.184 14.16 20.73 3.4922-6.6406 8.6719-15.516 3.4766-22.605-3.4922-5.5586-9.5312-10.562-9.1523-17.652h-0.003907c2.8672-6.8047 10.516-10.227 17.496-7.8281 5.0352 2.8477 8.9609 7.3086 11.148 12.664 2.918 9.8984 3.5703 20.328 1.9102 30.516 3.3203-0.34375 8.1367 0.75781 9.4609-3.3711 1.6758-11.785 1.8203-23.738 0.42969-35.559 1.9141-4.7812 6.5586-7.8984 11.707-7.8633 5.1484 0.039063 9.7461 3.2266 11.586 8.0352 2.7852 12.832-5.2305 24.203-8.293 36.109-1.4102 5.1797 3.1641 9.1367 7.3477 11.164 3.1797-9.4648 7.0742-18.68 11.648-27.559 1.2188-3.5195 3.7891-6.4062 7.1367-8.0352 9.2539-4.2852 21.676 7.3789 16.293 16.652-3.0508 5.2578-6.5312 10.254-10.406 14.934-0.71094 4.7148-1.7344 9.375-3.0625 13.953 8.3281-1.2617 16.477-3.5391 24.254-6.7773 7.3125-3.9414 15.723 3.9219 15.277 11.422-1.293 11.48-7.9844 21.652-18.012 27.387 0.91016 2.2891 2.2695 5.4688 5.3164 5.2461 7.707-0.6875 14.16-7.3477 22.141-5.9023v0.003906c4.6719 2.2109 7.8125 6.7461 8.2344 11.898 0.42188 5.1523-1.9375 10.137-6.1875 13.082z"/>
  <path d="m335.43 968.68c-15.309-6.3711-32.629-5.8125-47.496 1.5312-21.988 9.1523-38.98 27.312-46.656 49.855-4.0078 12.395-4.1719 25.711-0.47656 38.199 3.6992 12.488 11.082 23.566 21.188 31.785 13.848 9.918 31.676 12.43 47.723 6.7266 21.402-7.8711 37.914-25.27 44.66-47.051 5.3555-17.434 5.707-36.02 1.0156-53.641-2.4688-11.551-9.7188-21.512-19.957-27.406z"/>
 </g>
</svg>
