<?xml version="1.0" encoding="UTF-8"?>
<svg width="1200pt" height="1200pt" version="1.1" viewBox="0 0 1200 1200" xmlns="http://www.w3.org/2000/svg">
 <path d="m1029.3 383.34c6.75-3.4688 9.5625-11.812 6.1875-18.656-19.5-39.938-43.781-76.969-72.094-110.06-7.5-8.8125-13.406-2.7188-41.812-2.7188-96.375 0-179.44-60.562-193.31-140.91-0.9375-5.4375-4.9688-9.8438-10.312-11.25-78.375-20.438-157.59-20.438-235.88 0-5.3438 1.4062-9.375 5.8125-10.312 11.25-14.438 83.906-108.66 153.38-222.66 138.84-4.6875-0.65625-9.375 1.2188-12.469 4.7812-28.406 33.094-52.594 70.125-72.094 110.06-3.375 6.8438-0.65625 15.188 6.1875 18.656 201.47 104.06 217.78 361.41 27.375 484.41-6.4688 4.2188-8.3438 12.844-4.2188 19.406 35.25 55.312 79.5 102.19 131.34 139.31 3.75 2.625 8.4375 3.375 12.75 1.875 93.281-32.344 203.25-0.1875 249.94 80.344 5.4375 9.375 18.938 9.375 24.375 0 46.688-80.531 156.66-112.69 249.94-80.344 4.3125 1.5 9.0938 0.84375 12.75-1.875 51.844-37.125 96.094-84 131.34-139.31 4.125-6.5625 2.25-15.188-4.2188-19.406-190.5-123-174.09-380.34 27.375-484.41zm-54.375 500.06c-30.656 45.281-67.875 84.281-110.72 115.97-95.531-30-206.25-1.2188-264.28 76.688-58.125-78-168.94-106.59-264.28-76.688-42.844-31.688-80.062-70.594-110.72-115.97 192.47-135.66 175.69-402.28-29.156-518.44 16.125-30.938 35.344-59.906 57.281-86.344 117.66 12.375 222.75-59.156 244.5-153.75 68.156-16.406 136.59-16.406 204.75 0 21.844 94.969 127.31 166.12 244.5 153.75 21.938 26.438 41.156 55.406 57.281 86.344-205.03 116.25-221.44 382.88-29.156 518.44z"/>
</svg>
