<?xml version="1.0" encoding="UTF-8"?>
<svg width="1200pt" height="1200pt" version="1.1" viewBox="0 0 1200 1200" xmlns="http://www.w3.org/2000/svg">
 <path d="m1051.1 486.61h-337.69v-337.69c0-15.938-12.938-28.922-28.922-28.922h-168.94c-15.938 0-28.922 12.938-28.922 28.922v337.69h-337.69c-15.938 0-28.922 12.938-28.922 28.922v168.84c0 15.938 12.938 28.922 28.922 28.922h337.69v337.69c0 15.938 12.938 28.922 28.922 28.922h168.84c15.938 0 28.922-12.938 28.922-28.922v-337.6h337.69c15.938 0 28.922-12.938 28.922-28.922l-0.046875-168.94c0.14062-15.984-12.797-28.922-28.781-28.922z"/>
</svg>
