<?xml version="1.0" encoding="UTF-8"?>
<svg width="1200pt" height="1200pt" version="1.1" viewBox="0 0 1200 1200" xmlns="http://www.w3.org/2000/svg">
 <path d="m266.86 583.78c43.078-32.391 45.141-103.45-15.703-113.53-7.0781-1.3125-10.922 8.8594-4.6875 12.609 42.703 29.766 0.84375 69.703-37.219 66.844-31.781-9.8438-46.219-58.781-40.781-89.625 8.5312-41.859 64.219-76.781 105.38-61.922 75.844 36.609 70.547 129.37 116.62 197.16 51.375 86.156 135.47 114.84 231 114.61 8.5312 1.3125 10.547-11.297 2.625-13.219-41.391-9.2344-81.469-16.781-117.14-38.531-38.531-22.547-65.531-58.453-83.766-98.297-15-35.859-20.156-66.469-33.234-104.77-16.078-45.609-45.938-93.938-93.844-113.3-65.391-27.375-140.63 9.2344-175.92 66.141-59.156 93 36.469 259.78 146.53 176.06z"/>
 <path d="m773.86 810.24c-46.922-22.312-100.55-24.375-151.45-18.469-45.703 5.3906-92.391 19.688-132 44.391-40.078 27.375-88.078 52.547-132.47 58.312-70.219 14.391-138.24-43.547-132.71-114.38 2.625-54.609 47.391-114.14 102.84-91.219 20.531 9.7031 33.844 44.766 23.297 64.547-11.297 7.6875-28.312 3-42.375-0.60938-2.5312-0.9375-5.5312-0.46875-7.5469 1.5469-2.625 2.7656-2.5312 7.0781 0.23438 9.6094 9.8438 9.375 20.625 17.062 35.297 21.844 16.547 5.7656 39.844 0.70312 51.469-14.297 32.062-42.938 21.703-102.84-15.938-138.37-32.766-30.469-81.141-36.234-122.39-25.922-105.14 32.391-151.22 162.71-108.47 259.31 55.219 127.31 199.78 151.31 311.53 85.078 44.391-22.078 75.375-60.609 118.31-84.234 59.625-32.062 129.47-52.078 198.47-44.531 2.7656 0.375 5.625-1.0781 6.8438-3.7031 1.6875-3.375 0.23438-7.4531-3.1406-9.1406z"/>
 <path d="m961.92 678.71c-66.703-27-136.31-36.844-203.06-48-116.77-19.312-262.08-40.922-236.06-193.69 8.7656-47.766 31.922-116.39 77.391-135.94 42.141-18.609 100.78 11.391 122.63 50.531 17.391 25.922 13.078 64.688-8.1562 85.453-18.844 16.781-57 14.391-72.141-8.0625-7.0781-11.766-9.4688-30.375 3.2344-39.703 4.9219-3.1406 12.703-5.3906 20.156-6 2.5312 0 5.1562-0.84375 6.6094-3.2344 6.4688-12.469-22.922-18.703-32.391-18.375-39.844 0.46875-62.297 48.469-54.469 84 14.391 78.938 123.37 106.22 182.76 56.859 57.844-47.391 65.531-133.55 27.703-194.16-76.688-124.78-255.94-133.92-317.76 8.2969-52.547 106.55-54.844 256.78 62.766 320.76 128.06 66.938 274.08 36.938 407.63 77.391 63 17.391 116.3 59.062 135.84 123.47 2.7656 8.0625 14.156 4.5469 13.078-3.2344-9.4688-72.375-69.141-131.39-135.84-156.37z"/>
</svg>
