<?xml version="1.0" encoding="UTF-8"?>
<svg width="1200pt" height="1200pt" version="1.1" viewBox="0 0 1200 1200" xmlns="http://www.w3.org/2000/svg">
 <path d="m144.84 51.469c-51.469 0-93.422 41.906-93.422 93.375v910.22c0 51.469 41.953 93.516 93.422 93.516l910.36-0.046875c51.469 0 93.375-42.047 93.375-93.516v-910.22c0-51.469-41.906-93.375-93.375-93.375zm0 34.266h910.36c33.047 0 59.109 26.016 59.109 59.109v179.58l-1028.6-0.046875v-179.58c0-33.047 26.016-59.109 59.109-59.109zm-59.109 272.95h231.42v229.03h-231.42zm265.74 0h231.42v229.03h-231.42zm265.74 0h231.32v229.03h-231.32zm265.6 0h231.47v229.03h-231.42zm-797.06 263.34h231.42v228.89h-231.42zm265.74 0h231.42v228.89h-231.42zm265.74 0h231.32v228.89h-231.32zm265.6 0h231.47v228.89h-231.42zm-797.06 263.21h231.42v229.03h-172.31c-33.047 0-59.109-26.156-59.109-59.25zm265.74 0h231.42v229.03h-231.42zm265.74 0h231.32v229.03h-231.32zm265.6 0h231.47v169.82c0 33.047-26.016 59.25-59.109 59.25l-172.31-0.046875z"/>
</svg>
