<?xml version="1.0" encoding="UTF-8"?>
<svg width="1200pt" height="1200pt" version="1.1" viewBox="0 0 1200 1200" xmlns="http://www.w3.org/2000/svg">
 <path d="m600 960v40c220.93 0 400-179.09 400-400h-40c0 198.48-161.48 360-360 360zm0-100v40c165.69 0 300-134.32 300-300h-40c0 143.36-116.61 260-260 260zm0 200v40c276.17-0.011719 500-223.88 500.01-500h-40.012c0 253.61-206.33 459.97-460 460zm0 100v40c331.39-0.011719 600-268.64 600-600h-40c0 308.76-251.23 559.99-560 560zm0-400.03v40.012c110.46 0.015625 200-89.543 200-199.98h-39.988c-0.011719 88.227-71.785 159.97-160.01 159.97zm-600-159.97v0.49219-0.49219h39.988c0-308.8 251.23-560 560.01-560v-40c-331.39-0.011719-600 268.61-600 600zm100 0h40c0-253.64 206.36-460 459.99-460h0.011719v-40.012l-0.027344 0.011719c-276.12 0-499.97 223.85-499.97 500zm200 0h40c0.011719-143.39 116.64-260.04 260-260.04v-39.961c-165.69 0-300 134.28-300 300zm-100 0h40c0-198.52 161.49-360 360-360v-40c-220.91 0-400 179.07-400 400zm200.01 0h39.988c0-88.227 71.773-160 160-160v-40c-110.46 0-200 89.535-199.99 200z"/>
</svg>
