<?xml version="1.0" encoding="UTF-8"?>
<svg width="1200pt" height="1200pt" version="1.1" viewBox="0 0 1200 1200" xmlns="http://www.w3.org/2000/svg">
 <path d="m860.72 937.4c77.438-76.312 136.5-169.26 172.74-271.74 2.0625-5.9062 3.0469-12.047 2.9062-18.281v-422.68l-436.36-131.26-436.36 131.26v422.68c-0.14062 6.2344 0.84375 12.375 2.9062 18.281 36.234 102.47 95.297 195.42 172.74 271.74 77.297 78 169.22 138.89 260.72 169.13 91.594-30.188 183.42-91.219 260.72-169.13zm203.81-261.52c-37.922 107.3-99.656 204.61-180.66 284.53-82.172 82.875-180.61 147.52-278.95 178.78-3.2812 1.0312-6.75 1.0312-10.031-0.046874-98.297-31.266-196.69-95.906-278.76-178.74-81-79.922-142.78-177.24-180.66-284.53-1.5-4.5938-2.625-9.3281-3.4219-14.109-0.79688-4.7344-1.1719-9.5625-1.1719-14.391v-434.81c0-7.5469 5.1562-14.156 12.516-15.891l451.92-135.94c3.1406-0.98438 6.5156-0.98438 9.6094 0l452.48 136.18c6.8906 2.0625 11.625 8.3906 11.672 15.609v434.86c0 4.8281-0.42188 9.6562-1.2188 14.391-0.75 4.7812-1.875 9.5156-3.4219 14.109zm-459.84-528 368.53 110.81c7.3125 1.7812 12.516 8.3438 12.516 15.891v371.34c0 1.7812-0.28125 3.5156-0.84375 5.2031-32.203 89.578-83.203 171.24-149.58 239.53-63.984 69.281-142.26 123.79-229.45 159.79-3.75 1.4531-7.9688 1.4531-11.719 0-87.188-36-165.47-90.516-229.45-159.79-66-67.969-116.77-149.16-149.02-238.22-0.89062-2.0625-1.3594-4.2656-1.3594-6.5156v-371.34c0.046875-7.1719 4.7812-13.547 11.719-15.562l369.1-111.05h-0.046874c3.1406-0.98437 6.4688-1.0312 9.6094-0.09375zm348.24 138.89v356.63c-30.75 84-78.891 160.6-141.24 224.76-59.297 64.125-131.39 115.12-211.69 149.53-80.297-34.406-152.39-85.406-211.69-149.53-62.344-64.172-110.48-140.76-141.24-224.76v-356.63l352.92-106.22z" fill-rule="evenodd"/>
</svg>
