<?xml version="1.0" encoding="UTF-8"?>
<svg width="1200pt" height="1200pt" version="1.1" viewBox="0 0 1200 1200" xmlns="http://www.w3.org/2000/svg">
 <path d="m237.66 1080c-31.453 0-61.031-12.234-83.25-34.453-45.75-46.125-45.703-120.74 0-166.45l279.1-279.1-279.05-279.1c-45.891-45.891-45.891-120.61 0-166.5 22.172-22.172 51.75-34.406 83.203-34.406 31.5 0 61.031 12.234 83.25 34.453l279.1 279.1 279.1-279.1c45.703-45.75 120.32-45.797 166.36-0.14062 46.031 46.031 46.031 120.71 0.14062 166.6l-279.1 279.1 279.1 279.1c45.703 45.75 45.75 120.37 0.14062 166.36-46.219 45.891-120.89 45.844-166.6 0.14062l-279.1-279.1-279.14 279.05c-22.172 22.219-51.75 34.453-83.25 34.453zm0-869.48c-7.3125 0-14.109 2.8125-19.266 7.9219-10.594 10.594-10.594 27.891 0 38.484l311.06 311.06c8.4844 8.4844 13.266 20.016 13.266 32.016s-4.7812 23.531-13.266 32.016l-311.02 311.06c-10.547 10.547-10.5 27.891 0.14062 38.625 5.0156 5.0156 11.812 7.8281 19.125 7.8281s14.109-2.8125 19.219-7.9219l311.11-311.11c17.672-17.672 46.312-17.672 63.984 0l311.11 311.11c10.547 10.547 27.891 10.547 38.625-0.14062 10.406-10.5 10.453-27.797-0.14062-38.391l-311.11-311.06c-8.4844-8.4844-13.266-20.016-13.266-32.016s4.7812-23.531 13.266-32.016l311.11-311.06c10.594-10.594 10.594-27.891 0-38.484-10.594-10.5-27.938-10.547-38.484 0l-311.11 311.06c-17.672 17.672-46.312 17.672-63.984 0l-311.11-311.11c-5.1094-5.0625-11.953-7.875-19.266-7.875z"/>
</svg>
