<?xml version="1.0" encoding="UTF-8"?>
<svg width="1200pt" height="1200pt" version="1.1" viewBox="0 0 1200 1200" xmlns="http://www.w3.org/2000/svg">
 <path d="m1114.8 1137.6h-1029.6c-13.199 0-22.801-10.801-22.801-22.801v-1029.6c0-13.199 10.801-22.801 22.801-22.801s22.801 10.801 22.801 22.801v1006.8h1006.8c13.199 0 22.801 10.801 22.801 22.801s-10.801 22.801-22.801 22.801z"/>
 <path d="m175.2 693.6c-6 0-12-2.3984-16.801-7.1992-8.3984-9.6016-8.3984-24 1.1992-32.398l369.6-344.4c8.3984-7.1992 20.398-8.3984 28.801-1.1992l417.6 315.6 121.2-140.4c8.3984-9.6016 22.801-10.801 32.398-2.3984 9.6016 8.3984 10.801 22.801 2.3984 32.398l-135.6 156c-8.3984 9.6016-21.602 10.801-31.199 3.6016l-417.6-316.81-356.4 331.2c-4.8008 3.5977-9.6016 6-15.602 6z"/>
 <path d="m883.2 495.6 250.8-398.4c7.1992-10.801 3.6016-25.199-7.1992-31.199-10.801-7.1992-25.199-3.6016-31.199 7.1992l-249.6 394.8z"/>
 <path d="m772.8 584.4-110.4 174-198-175.2c-4.8008-4.8008-12-6-18-6-7.1992 1.1992-12 4.8008-15.602 10.801l-274.8 433.2c-7.1992 10.801-3.6016 25.199 7.1992 31.199 3.6016 2.3984 8.3984 3.6016 12 3.6016 7.1992 0 15.602-3.6016 19.199-10.801l259.2-411.6 198 175.2c4.8008 4.8008 12 6 18 6 7.1992-1.1992 12-4.8008 15.602-10.801l123.6-192z"/>
</svg>
