<?xml version="1.0" encoding="UTF-8"?>
<svg width="1200pt" height="1200pt" version="1.1" viewBox="0 0 1200 1200" xmlns="http://www.w3.org/2000/svg">
 <path d="m1034.5 299.64h-335.52v-206.52c0-25.797-23.398-46.797-52.199-46.797h-101.16c-28.801 0-52.199 21-52.199 46.797v206.52h-327.96c-30.48 0-55.32 24.84-55.32 55.32v553.08c0 30.48 24.84 55.316 55.32 55.316h290.04l-10.68 103.44h-42.359c-18.602 0-33.719 15.117-33.719 33.723v41.16c0 6.6016 5.3984 12 12 12h438.36c6.7188 0 12-5.3984 12-12v-41.16c0-18.602-15-33.723-33.602-33.723h-42.359l-10.68-103.44h290.04c30.48 0 55.32-24.836 55.32-55.316v-553.08c0-30.48-24.84-55.324-55.32-55.324zm-651.48 162 204.72 209.16c2.2812 2.4023 5.3984 3.6016 8.6406 3.6016 3.2422 0 6.2422-1.1992 8.5195-3.6016l204.48-209.16c3.3594-3.3594 4.3203-8.5195 2.5195-12.957-1.918-4.4414-6.2383-7.4414-11.156-7.4414h-101.76v-55.68h312.6v450.6h-823.32v-450.6h305.16v55.68h-101.76c-4.918 0-9.2422 3-11.039 7.4414-1.9258 4.4375-0.96484 9.5977 2.3945 12.957zm134.4-8.3984v-360.12c0-12.598 12.719-22.797 28.199-22.797h101.16c15.602 0 28.199 10.199 28.199 22.797v360.12c0 6.7227 5.3984 12 12 12h85.32l-175.92 180.12-176.16-180.12h85.199c6.5977 0 12-5.2773 12-12zm289.68 647.28v29.16h-414.36v-29.16c0-5.2812 4.4414-9.7227 9.7188-9.7227h395.04c5.2812 0.003906 9.6016 4.4414 9.6016 9.7227zm-76.199-33.719h-261.96l10.68-103.44h240.72zm334.92-158.76c0 17.277-14.039 31.316-31.32 31.316h-869.04c-17.281 0-31.32-14.039-31.32-31.316v-553.08c0-17.277 14.039-31.32 31.32-31.32l327.96-0.003906v37.922h-317.16c-6.6016 0-12 5.2773-12 12v474.6c0 6.7227 5.3984 12 12 12h847.32c6.7188 0 12-5.2773 12-12v-474.6c0-6.7227-5.2812-12-12-12h-324.6v-37.922h335.52c17.281 0 31.32 14.043 31.32 31.32z"/>
 <path d="m599.99 875.51c-13.418 0-24.188 10.926-24.188 24.348 0 13.418 10.766 24.188 24.188 24.188s24.188-10.77 24.188-24.188c0-13.422-10.77-24.348-24.188-24.348z"/>
</svg>
