<?xml version="1.0" encoding="UTF-8"?>
<svg width="1200pt" height="1200pt" version="1.1" viewBox="0 0 1200 1200" xmlns="http://www.w3.org/2000/svg">
 <path d="m1128 180h-1032v-108c0-8.5742-4.5742-16.496-12-20.785-7.4258-4.2852-16.574-4.2852-24 0-7.4258 4.2891-12 12.211-12 20.785v1056c0 8.5742 4.5742 16.496 12 20.785 7.4258 4.2852 16.574 4.2852 24 0 7.4258-4.2891 12-12.211 12-20.785v-372h1032c6.3633 0 12.469-2.5273 16.969-7.0312 4.5039-4.5 7.0312-10.605 7.0312-16.969v-528c0-6.3633-2.5273-12.469-7.0312-16.969-4.5-4.5039-10.605-7.0312-16.969-7.0312zm-24 528h-1008v-480h1008z"/>
</svg>
