<?xml version="1.0" encoding="UTF-8"?>
<svg width="1200pt" height="1200pt" version="1.1" viewBox="0 0 1200 1200" xmlns="http://www.w3.org/2000/svg">
 <path d="m600 19.199c-322.8 0-585.6 261.6-585.6 585.6s262.8 584.4 585.6 584.4 585.6-261.6 585.6-585.6c0-324-262.8-584.4-585.6-584.4zm271.2 972c-4.8008 6-13.199 9.6016-20.398 9.6016-6 0-13.199-2.3984-16.801-6l-434.4-362.4v342c0 14.398-13.199 26.398-26.398 26.398-14.398 0-26.398-12-26.398-26.398v-744c0-14.398 12-26.398 26.398-26.398s26.398 12 26.398 26.398v292.8l435.6-314.4c12-8.3984 28.801-6 37.199 4.8008 8.3984 13.199 4.8008 28.801-6 37.199l-451.2 326.4 452.4 376.8c10.801 9.6016 13.203 25.199 3.6016 37.199z"/>
</svg>
