<?xml version="1.0" encoding="UTF-8"?>
<svg width="1200pt" height="1200pt" version="1.1" viewBox="0 0 1200 1200" xmlns="http://www.w3.org/2000/svg">
 <path d="m600.05 33.375c-39.422 0-75.234 15.797-102.09 42.094-27.141 27.094-43.406 63.328-43.406 103.22 0 19.406 3.9844 37.922 11.203 55.125 22.781-10.078 46.828-17.672 71.906-22.453-5.0156-9.75-7.8281-20.859-7.8281-32.625 0-19.453 7.8281-37.172 20.484-49.734 12.609-12.656 30.234-20.344 49.688-20.344 19.5 0 37.172 7.7344 49.688 20.25 12.797 12.75 20.531 30.422 20.531 49.875 0 11.766-2.8594 22.922-7.8281 32.672 25.125 4.8281 49.219 12.516 72 22.688 7.1719-17.156 11.203-35.812 11.203-55.406 0-39.375-15.844-75.141-42.141-101.95-27.234-27.234-63.516-43.453-103.36-43.453zm-0.5625 194.63c-47.953 0-93.469 10.969-134.11 30.609h0.046875c-0.09375 0.09375-0.23438 0.1875-0.32812 0.28125-103.64 50.25-175.5 156.52-175.5 278.86 0 150.98 7.7812 270.66-50.531 368.63h721.78c-56.156-96.375-51.141-218.11-51.141-368.63 0-156.32-117.33-286.4-268.45-306.79h-0.28125c-13.547-1.8281-27.328-2.8594-41.344-2.8594zm-390.56 701.06v96.188l782.16 0.046875v-96.234zm263.11 118.88c6 66.375 59.859 118.73 127.87 118.73 68.062 0 121.97-52.359 127.97-118.73z"/>
</svg>
