<?xml version="1.0" encoding="UTF-8"?>
<svg width="1200pt" height="1200pt" version="1.1" viewBox="0 0 1200 1200" xmlns="http://www.w3.org/2000/svg">
 <path d="m1167.9 244.52c-1.4336-4.4453-4.5781-8.1367-8.7383-10.262s-8.9922-2.5039-13.434-1.0586c-75.172 24.672-145.38 62.473-207.35 111.66-7.6328 6.1016-12.523 14.988-13.594 24.703l-4.2891 39.844c-0.035156 0.37109-0.21875 0.71094-0.51562 0.9375-0.29297 0.24609-0.67969 0.34766-1.0547 0.28125l-27.75-3.8906c-11.895-1.6328-23.836 2.6562-31.969 11.484-11.172 12.094-21.953 24.594-32.344 37.5-4.7695-41.668-12.875-82.887-24.234-123.26-3.4297-12.246-12.641-22.035-24.656-26.203l-29.484-10.148c-0.92187-0.31641-1.6758-0.99609-2.0781-1.8828-0.40234-0.88672-0.42188-1.9023-0.054688-2.8047l15.867-41.648c3.6562-9.6797 3.3086-20.414-0.96094-29.836-36.484-79.887-86.867-152.66-148.8-214.92-3.293-3.3164-7.7734-5.1836-12.445-5.1836s-9.1523 1.8672-12.445 5.1836c-67.898 68.289-121.86 149.13-158.88 238.03-28.543 67.91-47.238 139.55-55.523 212.74-10.383-12.938-21.094-25.523-32.344-37.5-8.1406-8.8203-20.078-13.105-31.969-11.484l-27.75 3.8906c-0.375 0.066407-0.76172-0.035156-1.0547-0.28125-0.28906-0.22266-0.47656-0.55078-0.51562-0.91406l-4.2891-39.844c-1.0703-9.7148-5.9609-18.602-13.594-24.703-61.969-49.215-132.17-87.051-207.35-111.75-4.4414-1.4453-9.2734-1.0664-13.434 1.0586s-7.3047 5.8164-8.7383 10.262c-26.578 82.527-36.855 169.44-30.258 255.89 6.7578 91.02 31.176 179.85 71.883 261.54 4.9922 9.9414 14.715 16.641 25.781 17.766l22.125 2.1094-9.5391 20.273c-4.7773 10.059-3.9961 21.875 2.0625 31.219 84.797 131.25 210.4 230.16 354.26 278.91l39.844 78.094c1.4727 2.8867 3.7109 5.3125 6.4766 7.0039 2.7617 1.6914 5.9414 2.5859 9.1797 2.582 2.7734 0.003906 5.5039-0.65234 7.9688-1.9219 4.1562-2.1172 7.3008-5.7969 8.7422-10.23 1.4414-4.4375 1.0625-9.2617-1.0547-13.418l-39.844-78.094c8.6367-27.883 15.426-56.305 20.32-85.078 19.148 25.605 39.953 49.93 62.273 72.82v98.438c0 6.2812 3.3516 12.082 8.7891 15.223s12.141 3.1406 17.578 0 8.7891-8.9414 8.7891-15.223v-98.438c22.316-22.84 43.117-47.109 62.273-72.656 4.9062 28.75 11.695 57.148 20.32 85.008l-39.844 78.094c-2.1133 4.1602-2.4883 8.9922-1.0352 13.43 1.4492 4.4336 4.6055 8.1133 8.7695 10.219 2.4648 1.2695 5.1953 1.9258 7.9688 1.9219 3.2383 0.003906 6.418-0.89062 9.1797-2.582 2.7656-1.6914 5.0039-4.1172 6.4766-7.0039l39.844-78.094c143.86-48.844 269.53-147.66 354.26-278.91 6.0586-9.3438 6.8398-21.16 2.0625-31.219l-9.5391-20.273 22.125-2.1094c11.066-1.125 20.789-7.8242 25.781-17.766 40.707-81.688 65.125-170.52 71.883-261.54 6.6562-86.473-3.5742-173.42-30.117-255.98zm-691.64 805.48-327.07-641.86c-2.8711-5.5977-8.5117-9.2383-14.797-9.5508-6.2812-0.30859-12.254 2.7539-15.668 8.0391-3.4102 5.2891-3.7422 11.992-0.87109 17.59l327.09 641.95c-121.27-49.594-226.71-137.25-300.26-250.55l10.57-22.5c4.4688-9.5156 4.0312-20.613-1.1758-29.75-5.2109-9.1328-14.535-15.164-25.004-16.164l-24.562-2.3438c-38.258-77.203-61.211-161.08-67.594-247.01-5.7695-75.938 2.168-152.3 23.438-225.42 64.879 23.363 125.52 57.141 179.53 100.01 0.25391 0.23047 0.41406 0.54688 0.44531 0.89063l4.2891 39.844c1.0547 9.8203 6.043 18.797 13.832 24.875 7.7852 6.0781 17.703 8.7383 27.488 7.375l27.75-3.8906c0.48828-0.0625 0.97656 0.13281 1.2891 0.51563 19.359 20.973 37.363 43.16 53.906 66.422-0.46875 9.7969-0.79687 19.617-0.91406 29.484-0.078125 11.727 5.8711 22.672 15.75 28.992l23.25 14.789-21.914 17.016c-9.2852 7.1406-14.199 18.586-12.984 30.234 12.23 121.04 52.867 237.48 118.59 339.84-3.0391 27.34-7.8555 54.449-14.414 81.164zm200.72-95.719c-0.28125 0.39844-0.53906 0.79688-0.79688 1.2188-17.75 26.922-37.324 52.59-58.594 76.828v-807.14c0-6.2812-3.3516-12.082-8.7891-15.223s-12.141-3.1406-17.578 0-8.7891 8.9414-8.7891 15.223v807.16c-97.758-111.52-159.56-254.09-175.31-406.22l22.734-17.648c8.7383-6.7812 13.629-17.391 13.109-28.438s-6.3789-21.152-15.711-27.086l-24.117-15.328c0.14062-10.383 0.51562-20.742 1.0547-31.055 0.25781-1.4766 0.32812-2.9805 0.21094-4.4766 4.7812-84.441 23.949-167.45 56.672-245.44 33-79.102 80.074-151.56 138.94-213.87 53.336 56.469 97.02 121.33 129.3 191.98 0.35156 0.84766 0.35156 1.8008 0 2.6484l-15.867 41.672c-3.7383 9.7695-3.3516 20.641 1.0625 30.121 4.418 9.4844 12.492 16.773 22.375 20.199l29.531 10.148c1.1523 0.38672 2.0352 1.332 2.3438 2.5078 14.699 52.297 23.688 106.03 26.812 160.27-0.09375 1.4688 0 2.9414 0.28125 4.3828 0.70312 13.484 1.0547 26.992 1.0547 40.523 0.33984 98.371-18.785 195.84-56.273 286.78-17.371 42.023-38.688 82.305-63.656 120.3zm486.12-456.42c-6.3828 85.926-29.336 169.8-67.594 247.01l-24.562 2.3438c-10.469 1-19.793 7.0312-25.004 16.164-5.207 9.1367-5.6445 20.234-1.1758 29.75l10.57 22.5c-73.547 113.3-178.99 200.95-300.26 250.43l327.09-641.84c2.8516-5.5977 2.5-12.293-0.92188-17.559-3.4219-5.2695-9.3945-8.3125-15.668-7.9805-6.2734 0.32812-11.895 3.9805-14.746 9.5781l-327.07 641.74c-6.5547-26.672-11.363-53.746-14.391-81.047 24.848-38.496 46.148-79.172 63.633-121.52 39.27-95.195 59.336-197.21 59.039-300.19 0-12.969-0.3125-25.906-0.9375-38.812 16.547-23.242 34.555-45.41 53.906-66.375 0.31641-0.37891 0.80078-0.57422 1.2891-0.51563l27.773 3.8906c9.7969 1.3828 19.738-1.2695 27.543-7.3555 7.8047-6.0859 12.801-15.078 13.848-24.918l4.2891-39.844c0.03125-0.34375 0.19141-0.66016 0.44531-0.89062 54.016-42.867 114.65-76.645 179.53-100.01 21.246 73.137 29.164 149.5 23.367 225.45z"/>
</svg>
