<?xml version="1.0" encoding="UTF-8"?>
<svg width="1200pt" height="1200pt" version="1.1" viewBox="0 0 1200 1200" xmlns="http://www.w3.org/2000/svg">
 <path d="m328.45 892.55h543.1c9.9375 0 18-8.0625 18-18s-8.0625-18-18-18h-543.1c-9.9375 0-18 8.0625-18 18s8.0625 18 18 18z"/>
 <path d="m562.31 772.55h351.14c9.9375 0 18-8.0625 18-18s-8.0625-18-18-18h-351.14c-9.9375 0-18 8.0625-18 18s8.0625 18 18 18z"/>
 <path d="m1140 589.69h-417.94v-101.16l70.922-13.547-0.046875-0.046875c53.438-10.172 95.812-51 108-104.02l47.062-202.92c9.4219-29.812-7.0781-61.641-36.891-71.109-29.812-9.4219-61.688 7.0781-71.109 36.891l-72 173.76c-5.3438 12.891-17.531 21.656-31.453 22.594l-166.69 10.078h-0.70312c-56.016 1.7344-109.12 25.219-148.18 65.438-39 40.219-60.891 94.031-60.984 150.05v33.938l-300 0.046875c-9.9375 0-18 8.0625-18 18v533.76c0 9.9375 8.0625 18 18 18h1080c9.9375 0 18-8.0625 18-18v-533.76c0-9.9375-8.0625-18-18-18zm-744-33.984c0-47.016 18.375-92.203 51.281-125.86 32.859-33.609 77.625-53.062 124.64-54.141h3.7031c1.3594 0.14062 2.7188 0.14062 4.0781 0l159.52-9.7031c27.656-1.7812 51.891-19.125 62.484-44.766l72-173.53c4.1719-9.6562 14.953-14.625 25.031-11.578 10.031 3.0938 16.172 13.266 14.203 23.578l-47.156 203.16c-8.9062 39.188-40.219 69.281-79.641 76.688l-85.594 16.453c-8.4375 1.6406-14.484 9.0469-14.484 17.625v116.16h-197.76l6-51.938c1.125-9.9375-6.0469-18.938-15.984-20.062s-18.891 6.0469-20.016 15.984l-18.375 161.29c-1.6875 11.625-12.188 19.969-23.953 18.984-11.766-0.98438-20.719-10.922-20.438-22.734zm726 567.74h-1044v-497.76h282v65.625c0.1875 30.375 23.625 55.5 53.906 57.797s57.281-19.031 62.016-49.031l8.625-74.391h637.45z"/>
 <path d="m434.06 179.29c0 57.141 34.406 108.61 87.188 130.5 52.781 21.844 113.58 9.75 153.94-30.703 40.406-40.406 52.453-101.16 30.562-153.94-21.938-52.781-73.453-87.188-130.6-87.094-77.906 0.09375-141.05 63.281-141.1 141.24zm246.37 0h-0.046875c0 42.562-25.641 80.906-64.969 97.219-39.328 16.266-84.562 7.2656-114.66-22.828-30.141-30.094-39.141-75.375-22.828-114.7 16.266-39.281 54.656-64.922 97.219-64.922 58.078 0.046875 105.19 47.109 105.23 105.23z"/>
 <path d="m913.45 976.55h-626.9c-9.9375 0-18 8.0625-18 18s8.0625 18 18 18h626.9c9.9375 0 18-8.0625 18-18s-8.0625-18-18-18z"/>
</svg>
