<?xml version="1.0" encoding="UTF-8"?>
<svg width="1200pt" height="1200pt" version="1.1" viewBox="0 0 1200 1200" xmlns="http://www.w3.org/2000/svg">
 <g>
  <path d="m1003.6 749.06c6.5039-17.566 4.2461-24.023 2.7109-25.969l-0.21484-0.097656c-29.785-13.535-48.047-36.336-44.496-55.945 0 0 0.625-4.1758 1.5586-10.441 0.71875-6.2383 2.7109-14.496 3.168-22.895 0.88672-16.867 1.75-33.715 1.75-33.715s-0.91016-18.266-1.8477-36.527c-2.6875-18.047-5.3984-36.098-5.3984-36.098-4.9453-19.297 14.641-42.793 43.391-56.566l0.19141-0.097656c1.1758-1.8477 3.4336-8.3516-3.0469-25.945l-0.79297-2.207c-25.727 11.328-46.512 28.246-59.902 44.52-13.223 16.414-21.574 33-17.496 47.832 0 0 2.4258 16.152 4.8242 32.305 0.79297 16.395 1.582 32.785 1.582 32.785s-0.74219 15.121-1.5352 30.238c-0.38281 7.5586-2.2305 14.93-2.8555 20.52-0.79297 5.5664-1.3672 9.3359-1.3672 9.3359-2.5664 15.238 3.9375 31.078 18.742 47.688 13.441 15.984 34.344 32.543 60.266 43.488z"/>
  <path d="m970.78 762.55c2.6641-4.9688 4.0312-9.5273 5.207-12.602 1.1289-3.1211 1.7773-4.8711 1.7773-4.8711-12.191-7.5117-22.754-15.961-31.609-24.504-0.98438 2.0625-1.8477 4.1289-2.6406 6.3125 0 0-2.5664 6.9375-6.5039 17.375-5.2305 9.8164-10.609 23.734-18.359 36.48-7.8711 12.551-14.953 25.68-22.223 34.246-6.6719 8.9297-11.113 14.902-11.113 14.902-1.3672 1.8008-2.543 3.7695-4.0312 5.4961 12.191 3.457 24.383 7.8008 37.078 14.449 0-0.023438 18.984-23.617 33.695-50.113 7.9453-12.953 13.465-27.137 18.723-37.172z"/>
  <path d="m1016.3 674.57c-17.398-3-30.887 2.6406-43.414 11.352 5.5195 12.48 19.633 25.078 38.281 32.496 4.8008 3.5508 8.7852 12.504 0.625 33.648 0 0-2.8789 8.4492-7.8477 20.809-6.0977 11.879-12.793 28.512-21.961 43.727-9.3359 15.191-18.07 30.742-26.617 41.062-8.0156 10.68-13.344 17.809-13.344 17.809-14.496 17.398-24.359 18.504-29.496 16.488-16.129-12.406-33.098-16.871-47.473-16.055-1.8242 14.398 1.1758 29.902 12.527 43.078 12.168 14.09 28.727 18.215 46.871 14.566 17.664-3.8398 35.617-16.512 49.176-32.566 0 0 5.8086-7.7773 14.543-19.465 9.3125-11.328 18.938-28.273 29.09-44.855 9.9609-16.68 17.398-34.777 24-47.785 5.4492-13.512 8.5938-22.754 8.5938-22.754 7.9688-19.535 8.4258-41.762 2.832-58.922-4.9492-17.102-18.195-29.465-36.387-32.633z"/>
  <path d="m947.14 934.01c3.4062 16.992-2.2812 32.594-14.352 43.848 0 0-4.6328 4.1758-11.594 10.465-7.5117 5.6172-17.496 13.176-27.434 20.664-9.793 7.8008-20.52 14.207-28.559 19.031-8.0156 4.8711-13.367 8.1133-13.367 8.1133s-4.9453 2.9297-12.406 7.3672c-7.7773 3.7695-18.191 8.7852-28.535 13.824-10.273 5.3047-20.953 9.625-29.207 12.383-8.1133 3-13.535 4.9688-13.535 4.9688-15.383 6.168-32.352 1.6797-45.359-8.9023-9.5742 5.8555-20.473 11.762-32.09 13.922 10.391 15.121 24 25.129 39.887 30.938 15.793 5.8086 33.742 6.9375 50.398 0.33594 0 0 5.832-2.1602 14.566-5.3984 8.8555-3 20.375-7.6328 31.465-13.344 11.184-5.4258 22.367-10.848 30.695-14.879 8.0391-4.7266 13.391-7.9219 13.391-7.9219s5.7344-3.5039 14.375-8.7109c8.6641-5.207 20.207-12.145 30.742-20.496 10.703-8.1133 21.48-16.223 29.496-22.297 7.5117-6.7188 12.504-11.23 12.504-11.23 27.48-23.352 31.586-62.688 16.703-93.863-8.418 8.3672-17.922 15.711-27.785 21.184z"/>
  <path d="m439.11 1077.3s-5.8789-2.1602-14.711-5.3984c-8.7617-3.3359-20.711-7.1523-31.801-12.961-11.281-5.4727-22.512-10.871-30.961-14.953-8.207-4.5117-13.488-7.8945-13.488-7.8945s-4.9453-3-12.336-7.5117c-7.3203-4.5859-17.496-10.129-26.496-17.375-9.2383-6.9102-18.457-13.801-25.367-18.984-3.5039-2.4961-6.2656-4.8477-8.0625-6.5742-1.8711-1.6797-2.9531-2.6641-2.9531-2.6641-12.215-11.09-17.594-27.191-15.098-43.535-9.8398-5.4258-19.344-12.719-27.742-21.098-7.2734 15.984-9.7422 33.406-7.1289 50.258 2.7109 16.68 11.855 31.559 24.984 43.633 0 0 1.1523 1.0312 3.168 2.832 1.9922 1.8711 4.9219 4.3906 8.6875 7.1289 7.4648 5.5664 17.375 13.008 27.289 20.473 9.7422 7.7266 20.641 13.727 28.512 18.695 7.9688 4.8008 13.297 8.0156 13.297 8.0156s5.6641 3.625 14.496 8.4961c9.0703 4.4141 21.215 10.297 33.312 16.152 12 6.2148 24.84 10.391 34.273 13.969 9.5039 3.457 15.84 5.7617 15.84 5.7617 16.633 6.5742 34.871 4.2461 50.426-1.1523 15.625-5.4492 29.352-16.871 39.406-31.777-11.641-2.0625-22.727-6.9375-32.281-13.273-12.699 10.121-29.883 15.906-45.266 9.7383z"/>
  <path d="m710.45 955.68c3.5039-4.1758 7.5352-7.3672 12.359-9.1445 0 0 3.9609-1.4414 9.8633-3.5742 6.0469-1.8945 13.824-5.0391 21.289-9.0234 7.5859-3.6016 15.191-7.2734 20.879-9.9844 5.3984-3.2891 9-5.4961 9-5.4961s3.8633-2.375 9.7188-5.9023c5.9023-3.5039 13.824-8.0625 20.855-13.922 7.3203-5.4727 14.617-10.895 20.113-15 5.0625-4.6328 8.4492-7.7266 8.4492-7.7266 7.4141-7.0078 18.91-8.3984 31.223-6.9102 12.238 1.4883 26.398 6.8633 39.504 16.152l0.19141 0.12109c2.0625-0.023437 9.5039-0.71875 21.434-15.215l1.4141-1.8711c-22.488-16.512-47.258-25.777-68.711-29.809-10.633-1.8711-20.352-2.1836-28.535-0.52734-8.5938 1.2227-16.176 3.9609-21.84 9.2656 0 0-3 2.7852-7.5117 6.9609-4.9219 3.625-11.496 8.543-18.047 13.441-6.3125 5.3047-13.441 9.3594-18.672 12.48-5.2578 3.1914-8.7109 5.3281-8.7109 5.3281s-3.2383 1.9688-8.0625 4.9219c-5.0625 2.4258-11.902 5.6406-18.672 8.8789-13.246 7.3672-28.105 10.727-27.863 11.305-14.184 6.2383-25.008 18.742-31.945 39.984-6.9375 20.711-11.113 45.938-7.5117 74.113l2.3047-0.35938c18.602-2.4258 22.727-9.168 23.762-10.895l-0.046874-0.21484c-1.6562-16.055 0.48047-31.152 5.0625-42.742 2.1055-5.9023 5.082-10.82 8.707-14.637z"/>
  <path d="m743.52 997.75c-6-16.441-17.953-26.137-31.391-31.586-8.0898 10.824-12.023 29.184-9.168 48.961-0.86328 5.207-6.3359 14.664-28.824 17.52 0 0-8.7617 1.3438-21.984 3.3594-13.199 2.1602-31.078 1.9922-48.84 3.2148-17.785-0.23828-35.566-1.5352-48.887-2.207-13.223-1.9922-22.031-3.3828-22.031-3.3828-22.488-3-28.297-11.113-29.113-16.871 2.5664-19.871-1.6328-38.305-9.8398-49.176-13.656 6.7422-25.129 15.574-30.938 32.426-6.0469 17.281-1.7773 35.137 10.801 47.711 12.359 13.008 31.895 23.688 52.895 26.09 0 0 9.6016 1.4648 24.047 3.6016 14.52 0.76953 33.961 2.1602 53.375 2.4258 19.391-1.2461 38.879-1.1992 53.328-3.5039 14.473-2.207 24.047-3.6484 24.047-3.6484 21-2.3047 40.223-14.352 52.512-26.734 12.172-13.52 16.371-30.898 10.012-48.199z"/>
  <path d="m561.53 1003.1c11.352 0.40625 26.449 1.6094 41.543 1.7773 15.07-0.96094 30.266-1.1992 41.496-2.4258 11.207-1.7266 18.625-2.9023 18.625-2.9023 0.45703-14.207 2.4961-27.504 5.4961-39.359-2.3047 0.16797-4.5352 0.35938-6.8164 0.67188 0 0-7.3438 1.1289-18.359 2.8086-10.969 1.8711-25.969 1.5117-40.824 2.7109-14.855-0.3125-29.711-1.4141-40.871-1.8242-11.016-1.7031-18.359-2.9023-18.359-2.9023-2.2578-0.33594-4.5117-0.50391-6.8164-0.64844 3.2148 11.879 5.4727 25.246 6.1211 39.48 0.09375 0.070313 7.5352 1.5117 18.766 2.6133z"/>
  <path d="m509.79 1014.8c0.9375 2.2305 5.4258 7.6094 23.977 10.297l2.3281 0.38281c3.0469-27.984-1.2969-54.215-8.7617-73.703-7.2734-21.266-18.098-34.246-32.543-39.602 0 0-3.8164-1.4414-9.5273-3.5273-5.7109-2.207-13.633-4.3906-20.762-8.4258-7.3672-3.5039-14.734-7.0312-20.258-9.6719-5.375-2.9531-8.7617-5.2578-8.7617-5.2578s-3.2383-1.9688-8.0391-4.9219c-4.7539-3-11.594-6.3828-17.375-11.305-6.0469-4.5117-12.098-9.0234-16.633-12.434-4.7266-3.1914-7.0781-6.2891-7.2227-6.0977-11.449-10.441-29.711-11.473-50.426-8.0625-21 3.9844-46.152 14.062-68.473 31.031l1.5117 1.7539c12.602 13.848 19.488 14.977 21.695 14.832l0.16797-0.12109c13.055-9.5273 26.785-14.832 39.238-16.727 12.742-2.1133 23.762-0.40625 31.273 6.5039 0.14453-0.14453 2.8086 3.2383 8.0625 6.793 5.0625 3.7695 11.809 8.8086 18.551 13.871 6.5039 5.4492 14.062 9.2383 19.391 12.625 5.3984 3.3125 8.9766 5.4727 8.9766 5.4727s3.8164 2.5195 9.793 5.8555c6.1914 2.9297 14.398 6.8867 22.609 10.824 8.0391 4.4141 16.824 6.9609 23.207 9.4336 6.4062 2.375 10.68 3.9375 10.68 3.9375 18.793 6.5742 29.93 33.359 27.312 66.047z"/>
  <path d="m195.77 729.21-0.19141 0.12109c-1.1523 1.8242-3.3828 8.3516 3.0469 25.922l0.79297 2.207c25.754-11.328 46.535-28.273 59.93-44.496 13.199-16.441 21.574-33 17.496-47.832 0 0-2.3984-16.152-4.8242-32.328-0.79688-16.395-1.6367-32.809-1.6367-32.809s0.79297-15.121 1.5586-30.238c0.35938-7.5586 2.2305-14.902 2.8555-20.52 0.83984-5.5938 1.3672-9.3125 1.3672-9.3125 2.5664-15.191-3.9375-31.078-18.742-47.688-13.441-15.984-34.344-32.543-60.238-43.465l-0.79297 2.1836c-6.4805 17.594-4.2227 24.023-2.7109 25.969l0.19141 0.097656c29.809 13.586 48.047 36.359 44.496 55.969 0 0-0.625 4.1523-1.5586 10.414-0.71875 6.2656-2.7109 14.496-3.1445 22.945-0.86328 16.773-1.7539 33.645-1.7539 33.645s0.9375 18.289 1.8711 36.504c2.6641 18.047 5.3984 36.098 5.3984 36.098 4.9258 19.32-14.66 42.812-43.41 56.613z"/>
  <path d="m251.14 804.96c7.6328 13.031 15.602 25.848 22.871 34.609 6.7695 9.0977 11.305 15.145 11.305 15.145 12.312-6.5508 25.129-11.688 37.199-15.289-1.3906-1.7773-2.832-3.5273-4.3906-5.2578 0 0-1.3203-1.3438-3.168-4.0078-1.9453-2.5938-4.7031-6.3359-8.0391-10.801-3.3359-4.4883-7.2227-9.6484-11.398-15.289-3.5742-5.9531-7.4414-12.312-11.258-18.648-8.4727-12.336-13.586-26.398-18.84-36.215-5.2578-9.8164-6.6484-17.305-7.0078-17.137-0.76953-2.1602-1.6562-4.2461-2.6406-6.3125-8.8086 8.7344-19.367 17.398-31.441 25.078 0.023437 0 2.3281 7.2227 7.5586 17.305 5.1836 10.105 10.754 24.242 19.25 36.82z"/>
  <path d="m137.09 733.63c-15.336-5.8555-27.551-18.238-31.176-34.391 0 0-3.6719-24.672-7.3672-49.441-1.25-24.891-2.5234-49.801-2.5234-49.801s1.1523-22.992 2.2812-46.008c2.3281-22.922 6.3828-45.672 6.4062-45.672 2.2812-16.367 15.457-28.703 30.504-34.824-1.0547-11.473 0.33594-23.449 4.1289-34.656-35.953 2.6875-65.426 27.215-72.434 62.52 0 0-4.3906 24.504-6.8867 49.152-1.2227 24.746-2.4492 49.488-2.4492 49.488s1.3438 26.809 2.6875 53.566c3.4805 26.664 7.9453 53.258 7.9453 53.258 3.8867 17.426 13.656 32.398 26.207 43.152 12.625 10.777 30.047 16.754 47.496 18.238-3.2852-11.422-6.0469-22.992-4.8203-34.582z"/>
  <path d="m230.9 906.77c27.648 32.879 73.199 45.574 96.266 16.559 11.16-13.344 14.016-28.969 12.145-43.512-14.16-0.83984-31.895 4.7773-47.398 16.992-5.3281 2.1836-14.543 0.67188-29.785-16.055 0 0-1.5117-1.6094-3.793-4.8008-2.3281-3.1211-5.6641-7.5586-9.6719-12.91-3.9609-5.3984-8.5938-11.617-13.559-18.336-4.3438-7.1758-8.9531-14.734-13.559-22.367-9.9609-14.855-16.414-31.586-22.535-43.465-3.0977-5.9297-5.1602-11.113-6.3594-14.809-1.3711-3.5547-2.1406-5.668-2.1406-5.668-7.6562-21.312-5.0156-29.902-0.070313-33.574 18.551-7.7031 32.566-20.594 38.16-33.215-12.215-8.5664-27.098-13.754-43.922-10.559-18.574 3.5039-30.434 15.793-35.617 33.145-2.6641 8.6172-3.9844 18.504-3.5508 28.68 1.0312 9.9844 3.5039 20.352 7.1523 30.238 0 0 0.83984 2.2812 2.3281 6.3125 1.3438 4.0312 3.6016 9.6719 6.9375 16.176 6.6484 12.984 13.824 31.246 24.602 47.496 5.0625 8.3516 10.129 16.586 14.879 24.434 5.4258 7.3438 10.488 14.16 14.785 20.062 4.3906 5.8086 8.0156 10.656 10.586 14.062 2.4648 3.3359 4.1211 5.1133 4.1211 5.1133z"/>
  <path d="m183.67 525.41c17.398 3.0234 30.938-2.6406 43.441-11.328-5.5938-12.48-19.656-25.078-38.305-32.52-4.8008-3.5508-8.7852-12.504-0.625-33.648 0 0 2.8789-8.4492 7.8477-20.832 6.1211-11.855 12.816-28.465 21.961-43.727 9.3359-15.168 18.07-30.742 26.617-41.039 8.0156-10.703 13.367-17.832 13.367-17.832 14.496-17.375 24.312-18.48 29.496-16.488 16.129 12.383 33.098 16.895 47.473 16.055 1.8008-14.375-1.2227-29.902-12.551-43.055-12.168-14.09-28.754-18.215-46.871-14.566-17.664 3.8398-35.617 16.488-49.176 32.566 0 0-5.8086 7.7773-14.566 19.465-9.2891 11.305-18.938 28.246-29.062 44.855-9.9844 16.68-17.398 34.801-24 47.809-5.4492 13.512-8.6172 22.754-8.5938 22.754-7.9922 19.586-8.4258 41.785-2.832 58.945 4.9375 17.082 18.211 29.445 36.379 32.586z"/>
  <path d="m229.2 437.4c-2.6641 5.0156-4.0078 9.5508-5.207 12.648-1.1289 3.0977-1.7539 4.8711-1.7539 4.8711 12.145 7.5117 22.754 15.961 31.609 24.527 0.96094-2.0625 1.8711-4.1523 2.6641-6.2891 0 0 2.5664-6.9609 6.457-17.375 5.2578-9.8398 10.656-23.734 18.359-36.457 7.8711-12.602 14.953-25.703 22.223-34.223 6.6719-8.9531 11.113-14.902 11.113-14.902 1.3672-1.8477 2.5664-3.793 4.0312-5.5195-12.191-3.457-24.406-7.8242-37.078-14.426 0 0-18.984 23.617-33.695 50.09-7.9453 12.887-13.441 27.047-18.723 37.055z"/>
  <path d="m252.84 265.99c-3.4062-16.992 2.2812-32.594 14.375-43.848 0 0 4.6328-4.1758 11.566-10.465 7.5117-5.6406 17.473-13.152 27.434-20.664 9.793-7.8008 20.52-14.207 28.559-19.031 8.0156-4.8477 13.367-8.0898 13.367-8.0898s4.9453-2.9531 12.406-7.3672c7.7773-3.7695 18.168-8.8086 28.535-13.824 10.273-5.3047 20.953-9.625 29.207-12.383 8.1133-2.9766 13.535-4.9688 13.535-4.9688 15.383-6.1445 32.352-1.6797 45.383 8.9531 9.5508-5.8789 20.426-11.809 32.039-13.945-10.367-15.098-23.977-25.105-39.863-30.938-15.816-5.832-33.742-6.9375-50.398-0.3125 0 0-5.832 2.1367-14.566 5.3516-8.8555 3-20.375 7.6562-31.465 13.344-11.16 5.4258-22.344 10.848-30.719 14.93-7.9922 4.7266-13.344 7.8945-13.344 7.8945s-5.7617 3.4805-14.398 8.7109c-8.6641 5.1836-20.184 12.145-30.742 20.496-10.727 8.0898-21.457 16.199-29.496 22.273-7.5117 6.7422-12.504 11.23-12.504 11.23-27.48 23.352-31.559 62.711-16.703 93.863 8.4492-8.3945 17.93-15.762 27.793-21.211z"/>
  <path d="m489.53 244.27c-3.4805 4.1992-7.5352 7.4141-12.336 9.1445 0 0-3.9375 1.4414-9.8867 3.6016-6 1.9219-13.824 5.0391-21.266 9.0234-7.5859 3.625-15.191 7.2734-20.879 9.9844-5.3984 3.2891-9 5.4727-9 5.4727s-3.8867 2.375-9.7422 5.9531c-5.8555 3.4805-13.777 8.0391-20.855 13.895-7.3203 5.4727-14.617 10.945-20.113 15.023-5.0625 4.6328-8.4258 7.7266-8.4258 7.7266-7.4141 7.0078-18.91 8.375-31.199 6.9102-12.238-1.4883-26.398-6.8633-39.504-16.152l-0.19141-0.097657c-2.0625 0-9.5039 0.74219-21.406 15.191l-1.3906 1.8711c22.465 16.512 47.207 25.824 68.688 29.832 10.656 1.8711 20.328 2.1367 28.535 0.52734 8.6406-1.2227 16.199-3.9609 21.863-9.2383 0 0 3-2.7852 7.5117-6.9609 4.9219-3.6719 11.496-8.543 18.047-13.441 6.3125-5.2812 13.414-9.3359 18.695-12.434 5.2305-3.1914 8.7109-5.3281 8.7109-5.3281s3.2148-1.9688 8.0391-4.9219c5.0898-2.4258 11.902-5.6641 18.695-8.9023 13.246-7.3438 28.105-10.727 27.863-11.305 14.184-6.1914 24.984-18.742 31.969-39.984 6.9102-20.711 11.09-45.938 7.5352-74.113l-2.3242 0.37109c-18.602 2.4258-22.727 9.168-23.762 10.922l0.023437 0.21484c1.6797 16.031-0.45703 31.129-5.0625 42.719-2.2305 5.8086-5.207 10.727-8.832 14.496z"/>
  <path d="m456.46 202.22c6 16.414 17.93 26.113 31.367 31.609 8.0898-10.824 12.047-29.16 9.1914-48.984 0.83984-5.1836 6.2891-14.664 28.777-17.52 0 0 8.8086-1.3438 22.031-3.3594 13.176-2.1602 31.078-1.9922 48.816-3.2148 17.809 0.23828 35.566 1.5352 48.938 2.1836 13.199 2.0156 21.984 3.3594 21.984 3.3594 22.512 3 28.32 11.113 29.113 16.922-2.5195 19.871 1.6328 38.305 9.8398 49.176 13.656-6.7695 25.129-15.602 30.984-32.398 6.0469-17.281 1.7266-35.137-10.824-47.734-12.336-13.008-31.895-23.688-52.871-26.062 0 0-9.625-1.4414-24.047-3.625-14.543-0.79297-33.984-2.1602-53.398-2.3984-19.391 1.2227-38.879 1.1992-53.305 3.5039-14.449 2.1836-24.047 3.6484-24.047 3.6484-21.055 2.2734-40.281 14.344-52.566 26.75-12.145 13.488-16.344 30.867-9.9844 48.145z"/>
  <path d="m760.89 122.69s5.8555 2.1367 14.688 5.3516c8.7617 3.3359 20.711 7.1523 31.777 12.984 11.305 5.4492 22.512 10.895 30.984 14.977 8.207 4.5117 13.488 7.8945 13.488 7.8945s4.9453 3 12.336 7.4883c7.3438 4.6094 17.496 10.129 26.496 17.375 9.2148 6.9102 18.457 13.824 25.367 19.008 3.5039 2.5195 6.2891 4.8711 8.0898 6.6016 1.8711 1.6797 2.9297 2.6406 2.9297 2.6406 12.238 11.09 17.566 27.191 15.098 43.559 9.8398 5.3984 19.367 12.742 27.77 21.07 7.2461-15.984 9.7188-33.359 7.1055-50.23-2.7109-16.703-11.855-31.586-24.984-43.633 0 0-1.1523-1.0312-3.168-2.8555-1.9688-1.8711-4.9219-4.3906-8.6875-7.1055-7.4414-5.5664-17.375-13.008-27.289-20.449-9.7188-7.7266-20.617-13.754-28.512-18.695-7.9688-4.8242-13.297-8.0391-13.297-8.0391s-5.6406-3.6719-14.543-8.5195c-9.0469-4.3906-21.191-10.273-33.312-16.129-11.977-6.2148-24.816-10.391-34.273-13.969-9.5039-3.457-15.816-5.7617-15.816-5.7617-16.633-6.625-34.871-4.2461-50.449 1.1289-15.625 5.4258-29.352 16.895-39.434 31.801 11.641 2.0391 22.727 6.9375 32.305 13.273 12.742-10.172 29.949-15.957 45.332-9.7656z"/>
  <path d="m705.21 287.93s3.8164 1.4141 9.5508 3.5273c5.6875 2.1836 13.559 4.3906 20.734 8.3984 7.3906 3.5273 14.711 7.0312 20.281 9.6719 5.3516 2.9766 8.7344 5.2578 8.7344 5.2578s3.1914 1.9688 8.0156 4.9219c4.7773 3.0469 11.594 6.4062 17.398 11.328 6.0469 4.5117 12.121 9.0234 16.633 12.406 4.7266 3.168 7.0781 6.2656 7.2227 6.0977 11.449 10.414 29.711 11.449 50.426 8.0625 21-3.9844 46.152-14.09 68.496-31.055l-1.5352-1.7773c-12.602-13.848-19.512-14.977-21.695-14.832l-0.14453 0.12109c-13.078 9.5273-26.809 14.832-39.266 16.727-12.719 2.1133-23.734 0.40625-31.273-6.5039-0.16797 0.16797-2.8086-3.2148-8.0391-6.793-5.1133-3.793-11.832-8.832-18.574-13.871-6.5039-5.4492-14.039-9.2656-19.391-12.648-5.3984-3.2891-8.9766-5.4727-8.9766-5.4727s-3.8164-2.5195-9.793-5.832c-6.168-2.9766-14.426-6.9102-22.609-10.848-8.0156-4.4414-16.824-6.9844-23.207-9.4336-6.4336-2.3516-10.68-3.9375-10.68-3.9375-18.793-6.6016-29.902-33.336-27.289-66.023l0.003906-0.19141c-0.98438-2.2305-5.4492-7.6094-24-10.273l-2.3047-0.35938c-3.0703 27.961 1.2734 54.191 8.7109 73.68 7.25 21.289 18.125 34.25 32.57 39.652z"/>
  <path d="m556.39 236.3c10.969-1.8711 25.969-1.5117 40.777-2.7109 14.879 0.28906 29.762 1.3906 40.922 1.8242 10.992 1.7266 18.359 2.8789 18.359 2.8789 2.2578 0.35938 4.5117 0.55078 6.7695 0.69531-3.1914-11.879-5.4492-25.223-6.0977-39.48 0 0-7.4414-1.4648-18.672-2.5664-11.352-0.38672-26.449-1.6328-41.57-1.8008-15.098 0.98438-30.238 1.1992-41.496 2.4258-11.207 1.7266-18.648 2.8789-18.648 2.8789-0.48047 14.207-2.4961 27.527-5.5195 39.359 2.2812-0.12109 4.5352-0.33594 6.793-0.67188 0 0 7.3672-1.1289 18.383-2.832z"/>
  <path d="m969.07 293.23c-27.625-32.879-73.176-45.602-96.266-16.586-11.16 13.344-14.016 28.992-12.145 43.512 14.184 0.83984 31.871-4.7773 47.426-16.992 5.3281-2.1836 14.496-0.71875 29.762 16.055 0 0 1.5117 1.6094 3.7695 4.8008 2.375 3.1211 5.6641 7.5586 9.6953 12.91 3.9375 5.375 8.5664 11.641 13.535 18.336 4.3438 7.1289 8.9531 14.734 13.586 22.344 9.9375 14.855 16.391 31.586 22.512 43.441 3.0703 5.9531 5.1367 11.113 6.3594 14.832 1.3672 3.6484 2.1133 5.7344 2.1133 5.7344 7.6562 21.312 5.0156 29.93 0.046875 33.625-18.504 7.7031-32.543 20.594-38.113 33.191 12.191 8.5938 27.047 13.777 43.922 10.586 18.527-3.5039 30.383-15.793 35.594-33.121 2.6406-8.6172 3.9844-18.504 3.5273-28.703-1.0312-9.9844-3.5039-20.352-7.1758-30.215 0 0-0.83984-2.2812-2.3047-6.2891-1.3672-4.0312-3.6016-9.6953-6.9375-16.199-6.6484-12.984-13.848-31.199-24.602-47.473-5.0625-8.3047-10.129-16.609-14.902-24.406-5.4258-7.3438-10.465-14.184-14.762-20.039-4.4141-5.832-8.0156-10.703-10.559-14.09-2.4258-3.4766-4.082-5.2539-4.082-5.2539z"/>
  <path d="m1139.7 546.38c-3.5039-26.664-7.9453-53.207-7.9453-53.207-3.8867-17.426-13.656-32.398-26.23-43.152-12.602-10.777-30.047-16.754-47.496-18.215 3.2891 11.398 6.0234 22.992 4.8242 34.535 15.312 5.8789 27.504 18.238 31.152 34.367 0 0 3.6719 24.719 7.3906 49.441 1.2734 24.91 2.5469 49.848 2.5469 49.848s-1.1523 22.992-2.3047 46.008c-2.3516 22.895-6.3828 45.625-6.3828 45.625-2.3047 16.391-15.504 28.727-30.504 34.824 1.0547 11.496-0.33594 23.473-4.1289 34.656 35.953-2.6875 65.426-27.238 72.457-62.496 0 0 4.4414-24.504 6.8633-49.176 1.2227-24.699 2.4961-49.441 2.4961-49.441s-1.3945-26.809-2.7383-53.617z"/>
  <path d="m877.51 360.53c1.4141 1.8008 2.8086 3.5508 4.4141 5.2578-0.023437 0 1.2969 1.3438 3.1445 4.0078 1.9453 2.6172 4.7031 6.3359 8.0391 10.824 3.3594 4.4883 7.2461 9.6719 11.426 15.266 3.5508 5.9531 7.4414 12.312 11.281 18.672 8.4727 12.312 13.559 26.375 18.816 36.191 5.2812 9.8398 6.6484 17.281 6.9844 17.137 0.79297 2.1367 1.6797 4.2227 2.6406 6.2891 8.8086-8.7344 19.391-17.375 31.441-25.078 0 0-2.3047-7.2227-7.5117-17.281-5.1836-10.055-10.703-24.215-19.223-36.77-7.6562-13.031-15.625-25.871-22.895-34.633-6.7695-9.0703-11.305-15.145-11.305-15.145-12.367 6.5977-25.23 11.711-37.254 15.262z"/>
 </g>
</svg>
