<?xml version="1.0" encoding="UTF-8"?>
<svg width="1200pt" height="1200pt" version="1.1" viewBox="0 0 1200 1200" xmlns="http://www.w3.org/2000/svg">
 <g>
  <path d="m1195.7 850.5c-5.25-36.656-28.125-133.78-39.281-155.62-3.9492-15.828-6.8906-31.895-8.8125-48.094-2.625-17.062-5.25-34.781-8.3438-50.438-8.9492-45.246-15.211-90.98-18.75-136.97 0-2.5312 0.65625-9.375 1.4062-16.312 4.0312-36.656 12.281-112.5-12-178.12-22.766-65.266-69.758-119.27-131.25-150.84-16.875-8.4375-57.469-25.219-100.41-43.031s-100.12-41.344-110.72-47.719l-17.531-17.812c-4.793-4.3594-11.5-5.9336-17.73-4.168-6.2344 1.7695-11.113 6.6328-12.902 12.859-1.793 6.2266-0.24219 12.938 4.1016 17.746l18.75 18.75c6.6562 6.75 26.156 15.562 122.53 55.406 40.406 16.781 82.312 34.031 97.969 41.906 52.828 27.441 93.102 74.125 112.5 130.41 21.188 56.25 13.594 126.75 9.9375 160.59-1.0312 9.375-1.6875 15.75-1.6875 20.344 3.2852 48.434 9.5469 96.617 18.75 144.28 3 14.812 5.625 32.062 8.0625 48.656 4.875 32.531 7.6875 49.875 12.375 59.156 7.6875 15.469 30.375 107.16 35.719 144.28 9.375 63.281 0 322.22 0 324.84-0.17578 4.957 1.6172 9.7852 4.9922 13.422 3.3711 3.6367 8.0508 5.7891 13.008 5.9844h0.75c4.8594 0.003906 9.5352-1.8828 13.031-5.2578 3.5-3.375 5.5469-7.9766 5.7188-12.836 0.375-10.781 9.2812-264.94-0.1875-331.41z"/>
  <path d="m1045.7 963c-2.25-15.562-4.9688-33.75-7.875-52.875-9.375-59.25-20.062-132.84-20.062-160.12 0-23.062-19.875-88.875-47.906-179.44-12.375-39.75-26.344-84.375-27.094-92.438 0-6.6992-3.5742-12.887-9.375-16.238-5.8008-3.3477-12.949-3.3477-18.75 0-5.8008 3.3516-9.375 9.5391-9.375 16.238 0 9.375 6.375 31.312 24.469 89.625-29.719 69.75-43.219 210.38-43.219 247.88 0 10.875 1.9688 27.469 4.2188 46.875 2.6602 18.652 4.3828 37.426 5.1562 56.25 0 79.5 1.2188 156.84 10.312 184.03 7.5195 26.828 13.531 54.059 18 81.562 0.73828 4.418 3.0352 8.4297 6.4766 11.301 3.4375 2.8711 7.793 4.418 12.273 4.3555 1.0273 0.09375 2.0664 0.09375 3.0938 0 4.9141-0.80469 9.3047-3.5312 12.203-7.5742 2.9023-4.043 4.0781-9.0781 3.2656-13.988-4.7891-29.418-11.301-58.531-19.5-87.188-8.3438-25.219-8.3438-132-8.3438-172.22-0.76953-20.426-2.6172-40.801-5.5312-61.031-2.0625-16.594-4.0312-33.75-4.0312-42.375 2.4844-62.488 10.832-124.61 24.938-185.53 15.562 51.281 31.312 105.56 31.312 119.91 0 30.094 10.875 102.09 20.438 165.75 2.9062 18.75 5.625 37.031 7.875 52.5 9.375 65.625 45.656 211.41 46.875 217.59 1.0234 4.0469 3.3672 7.6367 6.6602 10.203 3.2969 2.5625 7.3516 3.957 11.527 3.9531 1.5469 0 3.0898-0.19141 4.5938-0.5625 4.8438-1.1953 9.0078-4.2695 11.578-8.5469 2.5664-4.2734 3.3281-9.3984 2.1094-14.234-0.1875-1.4062-37.219-149.81-46.312-213.66z"/>
  <path d="m476.81 31.969c4.7227-4.7891 6.5312-11.734 4.7461-18.219-1.7891-6.4844-6.8984-11.523-13.406-13.219-6.5117-1.6953-13.43 0.21094-18.152 5l-17.812 17.812c-10.312 6.375-68.531 30.469-111.28 48.094s-83.531 34.594-100.41 43.031c-61.492 31.57-108.48 85.578-131.25 150.84-23.625 64.781-15.562 141.09-11.531 177.75 0.75 7.0312 1.4062 13.781 1.4062 16.312-3.5391 45.988-9.8008 91.723-18.75 136.97-3.0938 15.656-5.7188 33.375-8.3438 50.438-1.9375 16.16-4.8477 32.191-8.7188 48-10.594 21.938-33.938 119.06-39 155.72-9.375 66.469-0.5625 320.62 0 331.41 0.17188 4.8594 2.2188 9.4609 5.7188 12.836 3.4961 3.375 8.1719 5.2617 13.031 5.2578h0.75c4.957-0.19531 9.6367-2.3477 13.008-5.9844 3.375-3.6367 5.168-8.4648 4.9922-13.422 0-2.625-9.375-261.56 0-324.84 5.3438-37.5 28.125-128.81 35.719-144.28 4.6875-9.375 7.5-26.625 12.375-59.156 2.4375-16.594 5.0625-33.844 8.0625-48.656 9.2031-47.664 15.465-95.848 18.75-144.28 0-4.5938-0.65625-10.875-1.6875-20.344-3.6562-33.844-11.25-104.06 9.9375-160.59 19.398-56.281 59.672-102.96 112.5-130.41 15.656-7.4062 57.656-25.125 98.062-41.906 96.375-39.844 115.88-48.656 122.53-55.406z"/>
  <path d="m294.75 478.12c0-4.9727-1.9766-9.7422-5.4922-13.258-3.5156-3.5156-8.2852-5.4922-13.258-5.4922s-9.7422 1.9766-13.258 5.4922c-3.5156 3.5156-5.4922 8.2852-5.4922 13.258-0.84375 8.3438-14.812 53.438-27.188 93.188-28.125 90.562-47.906 156.38-47.906 179.44 0 27.281-11.062 100.88-20.062 160.12-2.9062 18.75-5.625 37.5-7.875 52.875-9.375 63.844-46.125 212.25-46.875 213.66-0.96875 4.8477 0.011719 9.8789 2.7344 14.004 2.7188 4.1289 6.9609 7.0117 11.797 8.0273 1.5039 0.37109 3.0469 0.5625 4.5938 0.5625 4.1758 0.003906 8.2305-1.3906 11.527-3.9531 3.293-2.5664 5.6367-6.1562 6.6602-10.203 1.5-6.1875 37.5-151.78 46.875-217.59 2.25-15.469 4.9688-33.469 7.875-52.5 9.375-63.656 20.438-135.66 20.438-165.75 0-14.344 15.75-68.625 31.312-119.91 14.074 60.93 22.391 123.05 24.844 185.53 0 8.625-1.9688 25.781-4.0312 42.375-2.8438 20.141-4.625 40.422-5.3438 60.75 0 40.219 0 147-8.3438 172.22-8.1992 28.656-14.711 57.77-19.5 87.188-0.8125 4.9102 0.36328 9.9453 3.2656 13.988 2.8984 4.043 7.2891 6.7695 12.203 7.5742 1.0273 0.09375 2.0664 0.09375 3.0938 0 4.4805 0.0625 8.8359-1.4844 12.273-4.3555 3.4414-2.8711 5.7383-6.8828 6.4766-11.301 4.4688-27.504 10.48-54.734 18-81.562 9.375-27.188 10.312-104.53 10.312-184.03 0.72266-18.727 2.3789-37.406 4.9688-55.969 2.25-19.312 4.2188-35.906 4.2188-46.875 0-37.5-13.031-178.12-43.219-247.88 18-58.312 24.375-80.25 24.375-89.625z"/>
  <path d="m739.41 828.84c-3.5195 3.5156-5.5 8.2891-5.5 13.266s1.9805 9.75 5.5 13.266c36.898 36.918 57.625 86.977 57.625 139.17s-20.727 102.25-57.625 139.17c-3.4961 3.5156-5.457 8.2734-5.4531 13.23s1.9688 9.7109 5.4688 13.223 8.2461 5.4961 13.203 5.5156c4.9961 0.003906 9.7891-1.9883 13.312-5.5312 43.91-43.949 68.574-103.53 68.574-165.66s-24.664-121.71-68.574-165.66c-3.5156-3.5195-8.2891-5.5-13.266-5.5s-9.75 1.9805-13.266 5.5z"/>
  <path d="m461.06 855.28c3.8086-3.4414 6.043-8.293 6.1797-13.422 0.13281-5.1328-1.8398-10.094-5.4648-13.73-3.6211-3.6367-8.5781-5.625-13.707-5.5078-5.1328 0.11719-9.9922 2.332-13.445 6.1289-43.938 43.953-68.621 103.55-68.621 165.7s24.684 121.75 68.621 165.7c4.7383 4.7383 11.648 6.5898 18.121 4.8555s11.531-6.793 13.266-13.266-0.11719-13.383-4.8555-18.121c-36.91-36.906-57.652-86.957-57.672-139.15-0.015625-52.195 20.695-102.26 57.578-139.19z"/>
  <path d="m738 1063.2c18.102-36.527 20.992-78.738 8.043-117.39-12.949-38.652-40.684-70.605-77.137-88.855-6.0117-2.9805-13.156-2.5273-18.746 1.1875-5.5859 3.7188-8.7695 10.133-8.3438 16.828 0.42578 6.6992 4.3906 12.66 10.402 15.641 27.578 13.82 48.559 38.008 58.344 67.262 9.7891 29.258 7.5859 61.199-6.125 88.832-2.1523 4.375-2.5117 9.418-1.0078 14.059 1.5078 4.6367 4.7578 8.5039 9.0703 10.785 2.6211 1.3047 5.5117 1.9805 8.4375 1.9688 3.5273 0.058594 6.9961-0.875 10.016-2.6992s5.4609-4.4648 7.0469-7.6133z"/>
  <path d="m548.25 1098.7c-27.578-13.82-48.555-38.012-58.324-67.273-9.7734-29.262-7.543-61.203 6.1992-88.82 2.9961-5.9961 2.5703-13.133-1.125-18.727-3.6914-5.5938-10.09-8.793-16.781-8.3906-6.6914 0.39844-12.66 4.3398-15.656 10.336-18.184 36.504-21.133 78.734-8.1914 117.41 12.938 38.676 40.703 70.633 77.191 88.844 2.5938 1.293 5.4492 1.9648 8.3438 1.9688 5.6758-0.007812 11.039-2.582 14.594-7.0039s4.918-10.219 3.7031-15.758c-1.2148-5.543-4.875-10.238-9.9531-12.77z"/>
  <path d="m633.75 927.38c-17.801-8.8789-38.402-10.32-57.27-4.0078-18.863 6.3125-34.449 19.859-43.324 37.664-8.8789 17.801-10.32 38.402-4.0078 57.27 6.3125 18.863 19.859 34.449 37.664 43.324 10.328 5.1836 21.727 7.8789 33.281 7.875 24.148 0.042969 46.84-11.547 60.965-31.133 14.125-19.59 17.953-44.781 10.285-67.68-6.1953-18.906-19.746-34.52-37.594-43.312zm0 83.812c-5.9805 11.992-17.898 19.883-31.273 20.699-13.375 0.81641-26.168-5.5625-33.562-16.734-7.3945-11.172-8.2695-25.441-2.2891-37.434 3.1016-6.2031 7.8672-11.422 13.758-15.078 5.8906-3.6602 12.684-5.6094 19.617-5.6406 12.977 0.007812 25.027 6.7227 31.859 17.754s7.4766 24.812 1.7031 36.434z"/>
 </g>
</svg>
