<?xml version="1.0" encoding="UTF-8"?>
<svg width="1200pt" height="1200pt" version="1.1" viewBox="0 0 1200 1200" xmlns="http://www.w3.org/2000/svg">
 <defs>
  <clipPath id="c">
   <path d="m222.14 508h362.86v302h-362.86z"/>
  </clipPath>
  <clipPath id="b">
   <path d="m222.14 508h362.86v302h-362.86z"/>
  </clipPath>
  <clipPath id="a">
   <path d="m572 513h405.86v292h-405.86z"/>
  </clipPath>
 </defs>
 <g clip-path="url(#c)">
  <path d="m349.71 509.22c-7.8984 1.125-13.242 5.875-17.348 9.5898-4.1055 3.7148-7.0938 6.3359-10.723 7.0586-6.4336 1.2852-14.562-2.5391-24.059-6.2773-4.75-1.8711-9.9102-3.6367-15.516-3.832-5.6055-0.17969-11.645 1.4805-16.996 5.7539-9.375 7.4844-13.281 18.426-15.168 29.027-1.8867 10.602-1.9414 21.289-2.9648 29.461-1.3203 10.535-8.2773 20.117-14.906 31.207-6.6289 11.086-12.664 24.434-8.543 40.883 2.2305 8.8945 8.0078 15.355 13.598 20.922s11.117 10.473 14.121 15.34c6.8281 11.07 8.1445 26.977 11.07 43.062 2.9258 16.082 8.2188 33.051 25.016 42.625 7.6172 4.3438 16.055 5.1562 23.449 6.0156 7.3945 0.85547 13.648 1.8984 17.086 4.1836 4 2.6602 7.5781 7.6758 12.203 12.902 4.625 5.2266 11.062 10.746 20.398 11.594 27.156 2.4648 61.812-6.3086 94.578-20.398s63.402-33.48 81.59-54.219c8.4648-9.6484 14.129-22.078 20.57-32.164 6.4414-10.086 13.105-17.359 22.664-19.266l0.003906-0.003906c2.0352-0.42578 3.6992-1.8867 4.3789-3.8555 0.67969-1.9648 0.27344-4.1445-1.0664-5.7344-28.074-32.512-63.613-55.141-92.574-84.031-17.902-17.859-37.684-39.746-60.668-56.312-22.988-16.566-49.617-27.895-80.195-23.535zm1.6562 11.68c26.828-3.8242 50.07 5.8906 71.652 21.445 21.582 15.555 41.062 36.922 59.273 55.09 28.824 28.754 61.656 50.906 87.777 79.672-8.9375 4.6953-17.527 10.168-22.84 18.48-7.0352 11.012-12.738 22.941-19.527 30.684-16.219 18.492-45.758 37.684-77.32 51.254-31.559 13.57-65.262 21.582-88.91 19.438-5.4688-0.49609-8.7148-3.2344-12.641-7.6719-3.9258-4.4336-7.8594-10.508-14.469-14.906-6.8828-4.5781-14.914-5.2422-22.316-6.1016-7.4023-0.85547-14.219-1.8555-18.914-4.5312-12.609-7.1875-16.418-19.262-19.176-34.43-2.7578-15.172-3.7539-32.609-12.727-47.156-4.3711-7.0859-10.586-12.352-15.777-17.52-5.1914-5.1719-9.1992-10.055-10.547-15.43-3.1367-12.52 1.0469-21.645 7.2344-31.992 6.1875-10.348 14.66-21.254 16.477-35.738 1.1602-9.2617 1.2305-19.602 2.875-28.852 1.6445-9.25 4.6836-16.918 10.895-21.879 3.3047-2.6367 6.0273-3.2539 9.3281-3.1367 3.3008 0.13281 7.1836 1.2617 11.508 2.9648 8.6406 3.4023 18.828 9.2539 30.684 6.8867 7.5352-1.5039 12.406-6.3359 16.387-9.9375 3.9805-3.6016 7.0039-6.0469 11.07-6.625z"/>
 </g>
 <path d="m507.57 288.25c-12.367-0.44531-22.699 3.3125-31.379 7.2344-8.6836 3.9219-15.941 7.9023-21.703 8.9766-7.1445 1.3359-15.605 0.3125-24.668-0.089844-9.0664-0.40234-19.055-0.089844-28.242 5.4062-6.7383 4.0352-10.516 10-13.512 15.34-2.9961 5.3438-5.418 10.133-8.8047 13.512-4.4961 4.4844-8.4609 4.9922-14.383 5.8398-5.9219 0.84375-13.848 2.0078-20.57 8.7148-6.6484 6.6328-8.0156 15.898-8.6289 24.406-0.61328 8.5078-0.38672 16.859-1.3086 21.445-4.5625 22.762-13.141 32.746-17.957 46.637-4.8164 13.887-4.0742 30.277 10.023 60.758 2.4922 5.3906 7.0781 10.242 12.902 15.602h-0.003906c1.9375 1.7812 4.8164 2.0625 7.0625 0.69922 1.6367-0.97656 3.1523-1.5703 4.9688-1.8281 26.828-3.8242 50.07 5.8906 71.652 21.445 21.582 15.555 41.062 36.922 59.273 55.09 30.16 30.086 65.273 52.527 91.875 83.332v-0.003906c1.8242 2.0586 4.8242 2.5898 7.2422 1.2773 2.4141-1.3125 3.6055-4.1172 2.8711-6.7695-1.207-4.2344-0.79297-13.141 1.3945-24.496 2.1875-11.352 5.918-25.273 10.285-40.535 8.7383-30.52 19.98-66.59 26.062-100.59 5.043-28.199 6.3086-56.977 5.4922-80.891-0.81641-23.914-3.3125-42.312-7.582-52.301-6.4141-15-16.949-23.797-27.809-30.336-10.855-6.5391-22.055-11.266-31.816-18.566-3.6523-2.7305-6.918-9.832-12.465-17.871-5.5508-8.0391-14.238-16.523-29.203-19.961-3.3086-0.75781-6.4844-1.1211-9.5898-1.3086h-0.089844l0.003906 0.007813c-0.42969-0.10938-0.86719-0.16797-1.3086-0.17969h-0.089844zm-0.52344 11.77v-0.003906h0.089844c2.7773 0.089844 5.6992 0.50781 8.8047 1.2188 11.988 2.7539 17.477 8.4102 22.141 15.168 4.6641 6.7578 7.6602 15.043 15.168 20.66 11.234 8.4062 22.953 13.262 32.773 19.176 9.8242 5.918 17.727 12.477 23.012 24.844 2.6289 6.1484 5.9219 24.961 6.7109 48.117 0.79297 23.156-0.54297 51.281-5.4062 78.453-5.8945 32.945-16.918 68.656-25.715 99.371-4.3984 15.355-8.2266 29.441-10.547 41.492-1.2227 6.3398-0.38672 10.586-0.60938 15.777-26.391-27.414-56.969-49.359-82.898-75.227-17.902-17.859-37.684-39.746-60.668-56.312-22.988-16.566-49.617-27.895-80.195-23.535-1.75 0.26953-3.0156 1.0938-4.5312 1.6562-3.6562-3.7031-7.1602-7.4727-8.0195-9.3281-13.535-29.258-13.453-40.895-9.5898-52.039 3.8633-11.145 13.32-23.242 18.305-48.117 1.4258-7.1172 1.0195-15.32 1.5703-22.926 0.55078-7.6055 2.1445-13.918 5.1445-16.91 4.0898-4.0781 7.9336-4.5469 13.945-5.4023 6.0117-0.85547 14.117-2.1914 21.094-9.1523 5.2031-5.1914 7.9648-11.207 10.723-16.125 2.7578-4.918 5.3555-8.6055 9.3281-10.984 6.0938-3.6445 13.223-4.125 21.617-3.75 8.3984 0.35547 17.727 1.7148 27.371-0.089844 8.6914-1.625 16.254-6.1172 24.32-9.7617 8.0391-3.6328 16.344-6.5898 26.062-6.2773z"/>
 <path d="m578.36 671.01c-0.29297 0.007813-0.58203 0.035157-0.87109 0.089844-14.191 2.8359-23.215 13.57-30.246 24.582-7.0352 11.012-12.738 22.855-19.527 30.598-15.789 18-44.25 36.633-74.879 50.121v-0.003907c-1.7188 0.75-2.9805 2.2695-3.3984 4.0977-3.1055 13.582-0.88281 25.492 4.5312 35.129 5.418 9.6367 13.758 17.059 22.664 23.359 17.809 12.605 38.488 21.734 45.504 29.898 3.3594 3.9102 5.6211 8.918 8.9766 14.207 3.3555 5.293 8.3047 10.926 16.387 13.859 16.629 6.0312 32.566 4.7891 47.418 2.9648 14.855-1.8242 28.773-4.1602 42.449-2.0039 23.578 3.7148 49.297 19.758 82.027 11.594 13.375-3.332 21.996-7.3477 27.809-12.551 5.8086-5.2031 8.3516-11.504 9.7617-17.086 2.8203-11.164 1.9922-19.695 16.91-30.855 20.195-15.109 31.785-33.676 33.387-55.18 1.6016-21.5-6.3555-45.207-22.84-71.914-8.793-14.25-20.938-29.812-38.094-37.133-9.8555-4.207-20.609-3.8438-30.422-3.0508s-18.984 1.9648-24.668 1.043c-25.367-4.0977-49.039-3.4844-68.34-3.6602-19.301-0.17969-33.918-1.7227-40.707-6.8867h0.003906c-1.0938-0.83984-2.4531-1.2734-3.8359-1.2188zm1.3086 11.508c11.273 6.5117 25.43 8.207 43.148 8.3672 19.617 0.17969 42.562-0.3125 66.598 3.5742 8.6992 1.4062 18.145-0.22266 27.457-0.96094 9.3164-0.75391 18.246-0.72266 24.844 2.0938 13.301 5.6758 24.383 19.199 32.602 32.512 15.723 25.48 22.516 46.941 21.184 64.855-1.3359 17.914-10.391 32.949-28.68 46.637-17.762 13.289-19.016 28.133-21.355 37.395-1.168 4.6328-2.3828 7.8281-6.1016 11.156s-10.43 6.8633-22.75 9.9375c-27.641 6.8945-50.383-7.5977-77.406-11.855-16.164-2.543-31.336 0.22266-45.762 2.0039-14.43 1.7773-28.02 2.6055-41.93-2.4414-5.2656-1.9102-7.6562-4.6953-10.375-8.9805-2.7148-4.2852-5.2734-10.074-10.023-15.602-10.82-12.594-31.418-20.391-47.68-31.902-8.1328-5.7578-15.043-12.172-19.176-19.527-3.8633-6.875-4.9961-14.914-3.1367-24.93 30.172-13.789 58.555-31.426 75.488-50.73 8.4648-9.6484 14.129-22.078 20.57-32.164 6.4414-10.086 13.105-17.355 22.664-19.266z"/>
 <path d="m761.23 354.67c-21.551 0.35547-35.176 10.539-68.777 6.1875-28.234-3.6562-55.684 12.871-77.406 32.512l0.003907 0.003906c-1.4727 1.3125-2.1914 3.2773-1.918 5.2305 3.6992 24.957 4.5352 68.098-2.7891 109.05-5.8945 32.945-16.918 68.656-25.715 99.371-4.3984 15.355-8.2266 29.441-10.547 41.492-2.3203 12.051-3.4375 21.887-1.1328 29.984v0.003906c0.79297 2.9023 3.6484 4.7461 6.625 4.2695 32.848-5.3867 50.273-23.914 62.938-42.711 12.664-18.801 21.488-37.457 37.832-47.418 15.465-9.4258 21.062-18.75 24.32-26.414 3.2578-7.6641 4.1797-12.602 13.074-19.438 19.273-14.816 50.891-21.148 83.508-21.531 26.465-0.3125 53.5 3.1133 75.051 8.1055h-0.003906c1.7539 0.40625 3.5977-0.011719 5.0078-1.1328 1.4062-1.1211 2.2305-2.8203 2.2305-4.6211-0.125-15.184 76.609-84.098-17.695-128.92-7.5195-3.5742-16.672-5.3203-25.277-7.2344-8.6055-1.9141-16.73-4.0117-21.094-6.625-11.996-7.1797-15.973-12.613-21.531-17.871-5.5586-5.2578-12.855-9.5625-27.109-11.594-2.9883-0.44531-5.7266-0.52344-8.457-0.52344h-0.17578v0.003906c-0.3125-0.085937-0.63672-0.14844-0.95703-0.17969zm0.17578 11.855c2.5234-0.039063 5.0703 0.13281 7.7578 0.52344 12.766 1.8203 16.062 4.1953 20.66 8.543s10.328 11.395 23.621 19.352c7.0312 4.207 15.867 6.082 24.582 8.0195s17.27 3.8867 22.664 6.4492c83.754 39.809 21.117 75.945 14.035 112.01-21.805-4.7539-47.559-8.3203-73.656-8.0195-33.992 0.40234-67.684 6.4453-90.48 23.973-11.039 8.4844-13.941 17.449-16.824 24.234-2.8828 6.7852-5.8047 12.504-19.613 20.922-20.164 12.293-29.441 33.148-41.406 50.906-10.41 15.457-25.711 26.383-47.941 32.773-0.007813-4.668-0.50781-8.2773 0.87109-15.43 2.1875-11.352 5.918-25.273 10.285-40.535 8.7383-30.52 19.98-66.59 26.062-100.59 7.3008-40.824 6.2461-81.523 2.7031-108.35 20.137-17.773 44.141-31.613 66.16-28.766 36.293 4.6992 53.016-5.7344 70.52-6.0156z"/>
 <path d="m666.05 470.43c-2.1133 0.49609-3.2188 1.4648-4.0977 2.3516-1.7617 1.7773-2.8594 3.6562-4.0977 6.0156-2.4766 4.7148-5.0703 11.207-7.8438 18.48-5.5508 14.547-11.652 32.336-16.301 42.887-18.348 40.422-24.742 51.031-45.414 84.465-0.03125 0.085938-0.0625 0.17578-0.089844 0.26563-0.13672 0.22266-2.8359 3.9766-5.7539 8.2812-2.9141 4.3086-6.3438 9.6836-9.2383 15.34-2.8984 5.6562-5.3945 11.496-5.8398 17.52-0.44531 6.0273 2.3516 13.148 8.7188 16.215 3.0352 1.4648 6.5117 2.1406 10.547 2.2656 4.043 0.13281 5.9648-1.8789 7.8438-3.6602 1.8789-1.7812 3.6211-3.9844 5.5781-6.7109 3.9141-5.457 8.3828-12.902 13.25-21.879 9.7305-17.953 20.973-41.875 31.293-66.336 10.32-24.461 19.695-49.469 25.539-69.562 2.9219-10.047 5.0078-18.785 5.8398-25.977 0.41406-3.5938 0.52344-6.8164 0.17578-9.7617-0.18359-1.5312-1.25-2.8906-1.832-4.3594l0.003906 0.003906c-0.050781-1.5117-0.67188-2.9453-1.7461-4.0078-1.4258-1.4141-4.4258-2.3242-6.5391-1.8281zm-4.1836 29.289c-0.95312 4.4023-1.4844 8.0391-3.0508 13.426-5.6289 19.359-14.824 44.004-25.016 68.164-10.195 24.16-21.402 47.844-30.859 65.289-4.7266 8.7227-9.0664 15.922-12.465 20.66-1.6992 2.3711-3.2188 4.1406-4.1836 5.0547-0.96484 0.91406-1.4766 0.26953 0.69922 0.35547-2.8867-0.089844-4.7148-0.54297-5.7539-1.043-2.1953-1.0586-2.3242-1.5586-2.0938-4.707 0.23047-3.1523 1.9961-8.0391 4.5312-12.988 2.5352-4.9492 5.7578-10.012 8.543-14.121s4.8477-6.7969 6.1875-9.1523c20.574-33.273 27.676-45.062 46.113-85.688 5.0703-11.508 11.129-29.262 16.562-43.496 0.27734-0.73047 0.50781-1.0312 0.78516-1.7461z"/>
 <path d="m683.66 417.96c-2.7383-0.007812-5.1172 1.8711-5.7539 4.5312-4.0312 16.887-12.562 33.777-15.34 53.172-0.33594 2.332 0.75 4.6406 2.7578 5.8711 2.0078 1.2305 4.5547 1.1484 6.4805-0.20312 6.9375-4.7852 13.516-7.1914 20.398-10.984 6.8789-3.793 13.781-9.2617 19.352-19.266v0.003906c1.582-2.8438 0.56641-6.4297-2.2656-8.0234-2.8438-1.5781-6.4297-0.56641-8.0195 2.2695-4.5312 8.1406-8.9453 11.543-14.73 14.73-2.3281 1.2852-5.8359 3.2695-8.6289 4.6211 3.5391-12.754 8.1328-25.262 11.508-39.398l-0.003906-0.003906c0.375-1.5234 0.125-3.1367-0.69531-4.4805-0.81641-1.3398-2.1367-2.3008-3.6641-2.6641-0.45703-0.11719-0.92578-0.17578-1.3945-0.17969z"/>
 <path d="m646.96 421.7c-0.38281 0.054687-0.76562 0.14453-1.1328 0.26953-3.1016 0.98828-4.8203 4.3047-3.8359 7.4102 1.7656 5.5508 5.207 16.848 9.1523 27.371 1.9727 5.2617 4.0938 10.309 6.2773 14.559 2.1797 4.25 3.832 7.7148 8.0195 10.199v-0.003907c1.3398 0.80859 2.9492 1.0547 4.4688 0.67578 1.5195-0.375 2.8281-1.3398 3.6367-2.6797 0.80469-1.3516 1.0352-2.9648 0.64062-4.4883-0.39062-1.5195-1.375-2.8242-2.7305-3.6172 0.61328 0.35547-1.6602-1.9375-3.4883-5.4922-1.8242-3.5508-3.8711-8.3164-5.7539-13.336-3.7617-10.035-7.0703-21.039-8.8906-26.762-0.85156-2.7227-3.5312-4.4492-6.3633-4.0977z"/>
 <path d="m683.66 403.75c-3.9414 0-7.6172 1.0586-10.633 3.1367-3.0195 2.0781-5.5781 5.6641-5.5781 9.9375 0 4.2773 2.5586 7.7695 5.5781 9.8516 3.0195 2.0781 6.6914 3.1367 10.633 3.1367s7.6172-1.0586 10.633-3.1367c3.0195-2.0781 5.5781-5.5742 5.5781-9.8516 0-4.2773-2.5586-7.8594-5.5781-9.9375-3.0195-2.0781-6.6914-3.1367-10.633-3.1367zm0 11.855c1.7461 0 3.2148 0.55859 3.9219 1.043 0.70703 0.48828 0.4375 0.53125 0.4375 0.17969 0-0.35547 0.27344-0.40234-0.4375 0.089843-0.70703 0.48828-2.1797 1.043-3.9219 1.043-1.7461 0-3.2148-0.55859-3.9219-1.043-0.70703-0.48828-0.52344-0.44531-0.52344-0.089843s-0.18359 0.3125 0.52344-0.17969c0.70703-0.48828 2.1797-1.043 3.9219-1.043z"/>
 <path d="m706.41 428.07c-3.9414 0-7.6172 1.0586-10.633 3.1367-3.0195 2.0781-5.5781 5.5742-5.5781 9.8516 0 4.2773 2.5586 7.8594 5.5781 9.9375 3.0195 2.0781 6.6914 3.1367 10.633 3.1367s7.6172-1.0586 10.633-3.1367c3.0195-2.0781 5.5781-5.6641 5.5781-9.9375 0-4.2773-2.5586-7.7695-5.5781-9.8516-3.0195-2.0781-6.6914-3.1367-10.633-3.1367zm0 11.855c1.7461 0 3.2148 0.55859 3.9219 1.043 0.70703 0.48828 0.52344 0.44531 0.52344 0.089844 0-0.35547 0.18359-0.3125-0.52344 0.17969-0.70703 0.48828-2.1797 1.043-3.9219 1.043-1.7461 0-3.2148-0.55859-3.9219-1.043-0.70703-0.48828-0.4375-0.53125-0.4375-0.17969 0 0.35547-0.27344 0.40234 0.4375-0.089844 0.70703-0.48828 2.1797-1.043 3.9219-1.043z"/>
 <path d="m647.66 407.5c-3.9414 0-7.6172 1.0586-10.633 3.1367-3.0195 2.0781-5.5781 5.5742-5.5781 9.8516s2.5586 7.7695 5.5781 9.8516c3.0195 2.0781 6.6914 3.1367 10.633 3.1367s7.6172-1.0586 10.633-3.1367c3.0195-2.0781 5.5781-5.5742 5.5781-9.8516s-2.5586-7.7695-5.5781-9.8516c-3.0195-2.0781-6.6914-3.1367-10.633-3.1367zm0 11.77c1.7461 0 3.2148 0.55859 3.9219 1.043 0.70703 0.48828 0.4375 0.53125 0.4375 0.17969 0-0.35547 0.27344-0.3125-0.4375 0.17969-0.70703 0.48828-2.1797 1.043-3.9219 1.043-1.7461 0-3.2148-0.55859-3.9219-1.043-0.70703-0.48828-0.4375-0.53125-0.4375-0.17969 0 0.35547-0.27344 0.3125 0.4375-0.17969 0.70703-0.48828 2.1797-1.043 3.9219-1.043z"/>
 <g clip-path="url(#b)">
  <path d="m349.71 509.22c-7.8984 1.125-13.242 5.875-17.348 9.5898-4.1055 3.7148-7.0938 6.3359-10.723 7.0586-6.4336 1.2852-14.562-2.5391-24.059-6.2773-4.75-1.8711-9.9102-3.6367-15.516-3.832-5.6055-0.17969-11.645 1.4805-16.996 5.7539-9.375 7.4844-13.281 18.426-15.168 29.027-1.8867 10.602-1.9414 21.289-2.9648 29.461-1.3203 10.535-8.2773 20.117-14.906 31.207-6.6289 11.086-12.664 24.434-8.543 40.883 2.2305 8.8945 8.0078 15.355 13.598 20.922s11.117 10.473 14.121 15.34c6.8281 11.07 8.1445 26.977 11.07 43.062 2.9258 16.082 8.2188 33.051 25.016 42.625 7.6172 4.3438 16.055 5.1562 23.449 6.0156 7.3945 0.85547 13.648 1.8984 17.086 4.1836 4 2.6602 7.5781 7.6758 12.203 12.902 4.625 5.2266 11.062 10.746 20.398 11.594 27.156 2.4648 61.812-6.3086 94.578-20.398s63.402-33.48 81.59-54.219c8.4648-9.6484 14.129-22.078 20.57-32.164 6.4414-10.086 13.105-17.359 22.664-19.266l0.003906-0.003906c2.0352-0.42578 3.6992-1.8867 4.3789-3.8555 0.67969-1.9648 0.27344-4.1445-1.0664-5.7344-28.074-32.512-63.613-55.141-92.574-84.031-17.902-17.859-37.684-39.746-60.668-56.312-22.988-16.566-49.617-27.895-80.195-23.535zm1.6562 11.68c26.828-3.8242 50.07 5.8906 71.652 21.445 21.582 15.555 41.062 36.922 59.273 55.09 28.824 28.754 61.656 50.906 87.777 79.672-8.9375 4.6953-17.527 10.168-22.84 18.48-7.0352 11.012-12.738 22.941-19.527 30.684-16.219 18.492-45.758 37.684-77.32 51.254-31.559 13.57-65.262 21.582-88.91 19.438-5.4688-0.49609-8.7148-3.2344-12.641-7.6719-3.9258-4.4336-7.8594-10.508-14.469-14.906-6.8828-4.5781-14.914-5.2422-22.316-6.1016-7.4023-0.85547-14.219-1.8555-18.914-4.5312-12.609-7.1875-16.418-19.262-19.176-34.43-2.7578-15.172-3.7539-32.609-12.727-47.156-4.3711-7.0859-10.586-12.352-15.777-17.52-5.1914-5.1719-9.1992-10.055-10.547-15.43-3.1367-12.52 1.0469-21.645 7.2344-31.992 6.1875-10.348 14.66-21.254 16.477-35.738 1.1602-9.2617 1.2305-19.602 2.875-28.852 1.6445-9.25 4.6836-16.918 10.895-21.879 3.3047-2.6367 6.0273-3.2539 9.3281-3.1367 3.3008 0.13281 7.1836 1.2617 11.508 2.9648 8.6406 3.4023 18.828 9.2539 30.684 6.8867 7.5352-1.5039 12.406-6.3359 16.387-9.9375 3.9805-3.6016 7.0039-6.0469 11.07-6.625z"/>
 </g>
 <g clip-path="url(#a)">
  <path d="m801.07 513.41c-0.91016 0.027344-1.8086 0.26562-2.6133 0.69531-32.98 0.71875-65.727 6.2539-87.867 23.273-11.039 8.4844-13.941 17.449-16.824 24.234s-5.8047 12.504-19.613 20.922c-20.164 12.293-29.441 33.145-41.406 50.906-11.965 17.758-25.703 32.836-55.09 37.656h0.003906c-2.3398 0.375-4.2266 2.1094-4.7969 4.4062-0.57031 2.3008 0.28906 4.7148 2.1797 6.1406 1.1133 0.84766 3.4141 0.17969 4.6211 0.87109l-0.089843 0.26953c0.13281-0.023438 0.125-0.13281 0.26172-0.17969 11.262 6.4297 25.328 8.1211 42.973 8.2812 19.617 0.17969 42.562-0.3125 66.598 3.5742 8.6992 1.4062 18.145-0.22266 27.457-0.96094 9.3164-0.75391 18.246-0.72266 24.844 2.0938 13.301 5.6758 24.383 19.199 32.602 32.512 16.68 27.027 23.273 49.488 20.832 68.078h0.003906c-0.37891 2.9141 1.4414 5.6641 4.2695 6.4531 15.656 4.4062 27.645-0.17969 38.18-6.4492 10.535-6.2852 20.504-13.953 36-18.48 9.0039-2.6328 20.52-4.3086 31.469-6.5391 10.945-2.2305 21.398-4.8398 29.027-11.07 15.297-12.496 25.031-34.598 31.73-54.133 6.6992-19.535 10.094-36.883 10.375-38.266 3.5078-17.504 1.2383-31.598-4.6211-43.758s-14.914-22.367-24.754-33.82c-8.5195-9.9141-8.7227-18.535-10.809-28.68-2.0859-10.145-7.3672-21.457-24.059-29.027-23.148-10.496-67.176-19.512-110.88-19.004zm0.17578 11.855c41.934-0.49219 85.637 8.7148 105.82 17.871 14.02 6.3555 15.527 11.883 17.348 20.746 1.8203 8.8633 2.6562 21.375 13.426 33.91 9.8789 11.5 18.207 21.141 23.102 31.293 4.8906 10.152 6.7578 20.82 3.6602 36.262-0.36719 1.8359-3.5352 18.117-9.9375 36.785-6.4023 18.668-16.324 39.383-27.98 48.902-4.4141 3.6055-13.516 6.4102-23.973 8.543-10.457 2.1328-22.168 3.8008-32.426 6.8008-17.633 5.1523-29.07 13.867-38.703 19.613-8.9062 5.3125-16.012 7.2227-26.762 4.8828 0.89844-20.863-4.5-43.191-20.398-68.949-8.793-14.25-20.938-29.898-38.094-37.223-9.8555-4.2031-20.609-3.7578-30.422-2.9648s-18.988 1.9648-24.668 1.043c-25.367-4.0977-49.039-3.4844-68.34-3.6602-14.383-0.13281-22.465-2.5703-30.336-5.1445 21.371-8.1367 39.898-18.988 49.949-33.91 12.664-18.801 21.488-37.457 37.832-47.418 15.465-9.4297 21.062-18.75 24.32-26.414 3.2578-7.6641 4.1797-12.602 13.074-19.438 19.273-14.816 50.891-21.137 83.508-21.531z"/>
 </g>
 <path d="m364.97 585.58c-1.5742-0.15234-3.1445 0.33594-4.3594 1.3516-1.2109 1.0156-1.9648 2.4766-2.0938 4.0508-0.26172 3.25 2.1562 6.0977 5.4062 6.3633 71.672 6.3359 151.87 32.914 204.67 80.543v0.003906c1.168 1.0547 2.707 1.6016 4.2773 1.5156 1.5703-0.082031 3.043-0.78906 4.0898-1.9648 1.0586-1.1641 1.6055-2.7031 1.5234-4.2734s-0.78906-3.0469-1.9609-4.0938c-55.574-50.129-137.8-76.988-211.56-83.508z"/>
 <path d="m378.13 644.68c-3.2461-0.21094-6.0547 2.2461-6.2734 5.4922-0.21484 3.25 2.2422 6.0586 5.4922 6.2773 13.078 0.875 25.98 0.52344 38.617 0.52344 34.48 0 64.398-1.1211 97.105 5.7539 19.516 4.0977 44.613 11.25 63.195 19.613v-0.003906c2.9609 1.3047 6.4219-0.015626 7.7578-2.9609 0.65234-1.4336 0.70703-3.0664 0.15234-4.543-0.55859-1.4727-1.6797-2.6602-3.1172-3.3047-19.895-8.9531-45.348-16.156-65.551-20.398-34.371-7.2227-65.336-5.9258-99.547-5.9258-12.855 0-25.5 0.3125-37.832-0.52344z"/>
 <path d="m567.11 669.35c-5.4102 0.3125-11.516 1.3828-18.219 3.0508-13.406 3.332-29.152 8.875-44.891 14.82-15.738 5.9414-31.402 12.316-44.367 17.348-12.969 5.0273-23.914 8.7148-27.285 9.1523h-0.003906c-3.2188 0.4375-5.4805 3.3984-5.0547 6.6211 0.44141 3.2227 3.4023 5.4844 6.625 5.0586 6.9297-0.90625 16.875-4.7656 29.984-9.8516 13.109-5.082 28.727-11.387 44.281-17.258 15.555-5.8711 31.047-11.266 43.586-14.383 6.2695-1.5586 11.797-2.543 16.039-2.7891 4.2422-0.26953 7.1172 0.44531 7.8438 0.87109l0.003906-0.003907c1.3398 0.8125 2.9453 1.0547 4.4648 0.67969 1.5234-0.375 2.832-1.3398 3.6406-2.6836 0.80078-1.3477 1.0312-2.9648 0.63672-4.4883-0.39063-1.5195-1.375-2.8203-2.7305-3.6172-4.2852-2.5547-9.1484-2.8438-14.559-2.5273z"/>
 <path d="m578.62 671.01c-3.2422 0.035157-5.8516 2.6797-5.8398 5.9258 0.28516 47.723 1.582 95.336-7.582 140.95-0.31641 1.5352-0.007812 3.1367 0.85938 4.4453 0.86719 1.3086 2.2188 2.2188 3.7578 2.5273 1.5391 0.31641 3.1406 0.003906 4.4492-0.86328 1.3086-0.86719 2.2148-2.2188 2.5273-3.7578 9.5234-47.383 8.043-95.859 7.7578-143.39-0.035156-3.2461-2.6836-5.8555-5.9297-5.8398z"/>
 <path d="m581.32 670.48c-3.2461 0.035156-5.8516 2.6797-5.8398 5.9258 0.023437 3.1406 0.98438 3.832 1.7422 5.0547 0.75781 1.2188 1.6719 2.4961 2.7891 3.9219 2.2344 2.8594 5.2422 6.4062 8.8906 10.633 7.2969 8.4531 17.078 19.547 27.109 32.164 20.062 25.234 41.094 56.77 46.113 83.16v0.003906c0.60547 3.1992 3.6875 5.3047 6.8867 4.707 3.1992-0.60547 5.3047-3.6836 4.707-6.8867-5.7969-30.48-27.977-62.527-48.465-88.301-10.242-12.887-20.125-24.117-27.371-32.512-3.6211-4.1953-6.5859-7.6992-8.543-10.199-0.97656-1.25-1.7305-2.293-2.0938-2.875-0.36328-0.58594-0.019532-1.25 0 1.043-0.035156-3.2461-2.6797-5.8516-5.9258-5.8398z"/>
 <path d="m577.92 671.09c-1.7422 0.19531-3.3086 1.1523-4.2734 2.6133-0.85156 1.3281-1.1367 2.9414-0.79297 4.4805s1.2891 2.8789 2.625 3.7148c44.168 28.512 89.004 33.082 146.01 83.246 1.1758 1.0469 2.7227 1.582 4.293 1.4844 1.5703-0.10156 3.0391-0.82031 4.0742-2.0078 2.1211-2.4375 1.8906-6.1289-0.52344-8.2812-59.031-51.949-105.99-57.594-147.49-84.379-1.1641-0.73828-2.5547-1.0469-3.9219-0.86719z"/>
 <path d="m451.53 397.21c-1.2734 0.046874-2.4961 0.50781-3.4883 1.3086-2.5195 2.0469-2.9062 5.75-0.87109 8.2773 43.641 53.23 94.898 121.08 106.17 188.55 3.4531 20.676 7.6016 51.723 10.461 72.613 0.4375 3.2227 3.3984 5.4805 6.625 5.0547 1.5625-0.21094 2.9805-1.0391 3.9297-2.3008 0.94922-1.2617 1.3555-2.8477 1.125-4.4102-2.8555-20.863-7.0312-51.914-10.547-72.961-12.008-71.867-64.75-140.45-108.61-193.95-1.168-1.4375-2.9414-2.2461-4.793-2.1797z"/>
 <path d="m436.97 470.52c-1.7734 0.035157-3.4375 0.86719-4.5312 2.2656-2.0195 2.5547-1.5898 6.2578 0.95703 8.2812 51.746 41.066 92.035 89.715 112.8 151.85 1.7578 5.2617 5.3594 12.578 9.0664 19.789 3.707 7.207 7.5234 14.086 9.2383 17.258 1.5625 2.8164 5.0898 3.8633 7.9336 2.3516 1.3906-0.73438 2.4297-1.9961 2.8906-3.5 0.45703-1.5078 0.29688-3.1328-0.44922-4.5195-1.7539-3.2461-5.4453-9.9609-9.0664-16.996-3.6211-7.0391-7.2656-14.57-8.457-18.133-21.629-64.738-63.668-115.3-116.63-157.34h0.003906c-1.0625-0.85547-2.3867-1.3164-3.75-1.3047z"/>
 <path d="m557 380.82c-0.35547 0.058594-0.70703 0.14844-1.0469 0.26953-1.5156 0.40234-2.8047 1.3945-3.5898 2.75-0.78516 1.3555-1 2.9727-0.59375 4.4844 25.992 96.512 17.535 206.68 12.027 278.33h0.003906c-0.26562 3.25 2.1523 6.1016 5.4023 6.3672 3.25 0.26172 6.0977-2.1562 6.3633-5.4062 5.5078-71.633 14.367-183.12-12.379-282.43-0.73438-2.7578-3.3398-4.5938-6.1875-4.3594z"/>
 <path d="m815.63 636.23c-79.305-17.582-160.04 27.523-231.61 34.168-3.0625 0.31641-5.3672 2.9297-5.2969 6.0078 0.070313 3.0742 2.4883 5.582 5.5586 5.7617 95.754 4.9297 158.8-11.008 247.12 28.156h0.003906c2.9609 1.3047 6.418-0.015624 7.7578-2.9648 0.65234-1.4336 0.70703-3.0664 0.15234-4.5391-0.55859-1.4727-1.6797-2.6641-3.1172-3.3047-73.254-32.48-132.95-29.012-201.18-28.68 59.977-14.371 120.67-35.828 178.09-23.102l-0.003907 0.003906c3.1797 0.71875 6.3359-1.2695 7.0625-4.4453 0.34375-1.5391 0.058594-3.1523-0.79297-4.4766-0.85156-1.3281-2.1992-2.2578-3.7383-2.5859z"/>
 <path d="m768.64 572.5c-0.35156 0.03125-0.70312 0.089844-1.0469 0.17969-25.938 7.9609-43.242 19.512-59.188 31.73-15.945 12.215-30.633 24.992-52.215 36.871-12.543 6.9023-45.707 21.887-58.664 25.453-2.6641 0.73047-5.5391 0.98047-8.9766 2.0938-3.4414 1.1094-7.2656 3.5703-10.023 7.6719-1.8281 2.6953-1.125 6.3633 1.5703 8.1914 1.3047 0.87109 2.9023 1.1836 4.4375 0.875 1.5391-0.3125 2.8906-1.2227 3.7539-2.5273 1.4141-2.1016 2.168-2.3984 3.9219-2.9648s4.6758-0.87891 8.457-1.918c15.809-4.3516 47.484-18.906 61.281-26.5 22.758-12.527 38.086-26.027 53.609-37.918 15.523-11.891 31.195-22.254 55.527-29.723l-0.003906-0.003906c3.1055-0.98828 4.8203-4.3047 3.8359-7.4102-0.84766-2.6875-3.4727-4.4023-6.2773-4.0938z"/>
 <path d="m742.23 448.03c-1.2852 0.074218-2.5078 0.5625-3.4883 1.3945-36.699 30.512-59.027 71.324-80.891 111.75s-43.266 80.449-77.145 110.62c-1.1875 1.0352-1.9062 2.5039-2.0078 4.0742-0.097656 1.5703 0.4375 3.1172 1.4844 4.293 1.0352 1.1836 2.5039 1.9062 4.0742 2.0039 1.5703 0.097656 3.1172-0.43359 4.293-1.4805 35.898-31.965 57.836-73.465 79.672-113.84 21.836-40.375 43.5-79.656 78.016-108.35v0.003906c2.4922-2.0781 2.8438-5.7773 0.78516-8.2812-1.168-1.4414-2.9414-2.2461-4.793-2.1797z"/>
</svg>
