<?xml version="1.0" encoding="UTF-8"?>
<svg width="1200pt" height="1200pt" version="1.1" viewBox="0 0 1200 1200" xmlns="http://www.w3.org/2000/svg">
 <g>
  <path d="m674.55 92.727c0 41.172-33.375 74.547-74.547 74.547s-74.547-33.375-74.547-74.547c0-41.168 33.375-74.543 74.547-74.543s74.547 33.375 74.547 74.543"/>
  <path d="m674.55 1107.3c0 41.168-33.375 74.543-74.547 74.543s-74.547-33.375-74.547-74.543c0-41.172 33.375-74.547 74.547-74.547s74.547 33.375 74.547 74.547"/>
  <path d="m1032.7 241.82c0 41.172-33.375 74.547-74.543 74.547-41.172 0-74.547-33.375-74.547-74.547 0-41.168 33.375-74.543 74.547-74.543 41.168 0 74.543 33.375 74.543 74.543"/>
  <path d="m316.36 958.18c0 41.168-33.375 74.543-74.547 74.543-41.168 0-74.543-33.375-74.543-74.543 0-41.172 33.375-74.547 74.543-74.547 41.172 0 74.547 33.375 74.547 74.547"/>
  <path d="m1181.8 600c0 41.172-33.375 74.547-74.543 74.547-41.172 0-74.547-33.375-74.547-74.547s33.375-74.547 74.547-74.547c41.168 0 74.543 33.375 74.543 74.547"/>
  <path d="m167.27 600c0 41.172-33.375 74.547-74.547 74.547-41.168 0-74.543-33.375-74.543-74.547s33.375-74.547 74.543-74.547c41.172 0 74.547 33.375 74.547 74.547"/>
  <path d="m1032.7 958.18c0 41.168-33.375 74.543-74.543 74.543-41.172 0-74.547-33.375-74.547-74.543 0-41.172 33.375-74.547 74.547-74.547 41.168 0 74.543 33.375 74.543 74.547"/>
  <path d="m847.27 947.27c1.8164-23.637 12.727-49.09 32.727-67.273 18.184-18.184 41.816-29.09 67.273-32.727 14.547-27.273 21.816-58.184 21.816-87.273-96.363 9.0898-281.82-100-367.27-158.18 101.82 18.184 310.91 72.727 372.73 147.27 20-21.816 36.363-49.09 47.273-78.184-16.363-18.184-25.453-43.637-25.453-69.09 0-27.273 9.0898-50.91 25.453-70.91-9.0898-29.09-25.453-56.363-47.273-78.184-61.816 74.551-270.91 127.28-372.73 147.28 85.453-58.184 270.91-169.09 367.27-158.18-1.8164-30.91-9.0898-60-21.816-87.273-25.453-1.8164-49.09-14.547-67.273-32.727-18.184-18.184-29.09-41.816-32.727-67.273-27.273-14.547-58.184-21.816-89.09-23.637 9.0898 96.363-100 281.82-158.18 367.27 20-101.82 72.727-310.91 147.27-372.73-21.816-20-49.09-36.363-78.184-45.453-18.184 16.363-43.637 25.453-69.09 25.453-27.273 0-50.91-9.0898-69.09-25.453-29.09 9.0898-56.363 25.453-78.184 45.453 74.547 60 127.27 269.09 147.27 370.91-58.184-85.453-169.09-270.91-158.18-367.27-30.91 1.8164-60 9.0898-87.273 23.637-1.8164 23.637-12.727 49.09-32.727 67.273-18.184 18.184-41.816 29.09-67.273 32.727-14.547 27.273-21.816 58.184-21.816 87.273 96.363-9.0898 281.82 100 367.27 158.18-101.82-20-310.91-72.727-372.73-147.27-20 21.816-36.363 49.09-45.453 78.184 14.547 18.184 25.453 43.637 25.453 69.09 0 27.273-9.0898 50.91-25.453 69.09 9.0898 29.09 25.453 56.363 45.453 78.184 61.816-74.547 270.91-129.09 372.73-147.27-85.453 58.184-270.91 169.09-367.27 158.18 1.8164 30.91 9.0898 60 21.816 87.273 25.453 1.8164 49.09 14.547 67.273 32.727 18.184 18.184 29.09 41.816 32.727 67.273 27.273 14.547 58.184 21.816 87.273 23.637-9.0898-96.363 100-281.82 158.18-367.27-20 101.82-72.727 310.91-147.27 372.73 21.816 20 49.09 36.363 78.184 45.453 18.184-16.363 43.637-25.453 69.09-25.453 27.273 0 50.91 9.0898 69.09 25.453 29.09-9.0898 56.363-25.453 78.184-45.453-74.547-61.816-127.27-269.09-147.27-372.73 58.184 85.453 169.09 270.91 158.18 367.27 32.727 1.8125 61.816-7.2773 89.09-20.004z"/>
  <path d="m316.36 241.82c0 41.172-33.375 74.547-74.547 74.547-41.168 0-74.543-33.375-74.543-74.547 0-41.168 33.375-74.543 74.543-74.543 41.172 0 74.547 33.375 74.547 74.543"/>
 </g>
</svg>
