<?xml version="1.0" encoding="UTF-8"?>
<svg width="1200pt" height="1200pt" version="1.1" viewBox="0 0 1200 1200" xmlns="http://www.w3.org/2000/svg">
 <path d="m133.03 327.19c-25.875 0-46.922 21.047-46.922 46.875v623.11c0 25.875 21.047 46.875 46.922 46.875h933.98c25.828 0 46.875-21.047 46.875-46.875v-623.11c0-25.875-21.047-46.875-46.875-46.875zm933.98 741.56h-933.98c-39.469 0-71.578-32.109-71.578-71.578v-623.11c0-39.469 32.109-71.578 71.578-71.578h933.98c39.422 0 71.531 32.109 71.531 71.578v623.11c0 39.469-32.109 71.578-71.531 71.578z" fill-rule="evenodd"/>
 <path d="m204.52 527.63c-12.375 0-22.453 10.078-22.453 22.406v375.71c0 12.375 10.078 22.406 22.453 22.406h790.78c12.375 0 22.406-10.078 22.406-22.406v-375.71c0-12.375-10.031-22.406-22.406-22.406zm790.78 445.22h-790.78c-25.969 0-47.062-21.141-47.062-47.062v-375.71c0-25.969 21.094-47.062 47.062-47.062h790.78c25.969 0 47.062 21.141 47.062 47.109v375.71c0 25.969-21.094 47.109-47.062 47.109z" fill-rule="evenodd"/>
 <path d="m385.13 635.34c-56.484 0-102.47 45.984-102.47 102.47s45.938 102.47 102.47 102.47h429.79c56.484 0 102.47-45.938 102.47-102.47 0-56.484-45.984-102.47-102.47-102.47zm429.74 229.6h-429.74c-70.078 0-127.13-57.047-127.13-127.13 0-70.082 57-127.13 127.13-127.13h429.79c70.078 0 127.13 57.047 127.13 127.13 0 70.082-57.047 127.13-127.13 127.13z" fill-rule="evenodd"/>
 <path d="m392.95 695.29c-23.438 0-42.516 19.078-42.516 42.516s19.078 42.469 42.516 42.469 42.469-19.078 42.469-42.469c0-23.438-19.078-42.469-42.469-42.516zm0 109.64c-37.031 0-67.172-30.141-67.172-67.172s30.141-67.172 67.172-67.172 67.125 30.141 67.125 67.172-30.141 67.172-67.125 67.172z" fill-rule="evenodd"/>
 <path d="m807.05 695.29c-23.438 0-42.469 19.078-42.469 42.516s19.078 42.469 42.469 42.469c23.438 0 42.516-19.078 42.516-42.469 0-23.438-19.078-42.469-42.516-42.516zm0 109.64c-37.031 0-67.125-30.141-67.125-67.172s30.141-67.172 67.125-67.172c37.031 0 67.172 30.141 67.172 67.172s-30.141 67.172-67.172 67.172z" fill-rule="evenodd"/>
 <path d="m544.82 769.97h110.44v-64.406h-110.44zm111.98 24.656h-113.58c-12.75 0-23.109-10.359-23.109-23.109v-67.547c0-12.75 10.359-23.109 23.109-23.109h113.58c12.75 0 23.109 10.359 23.109 23.109v67.547c0 12.75-10.359 23.109-23.109 23.109z" fill-rule="evenodd"/>
 <path d="m784.31 440.53h-368.81c-14.578 0-27.984-7.875-35.016-20.531l-54.844-99.422c-3.2812-5.9531-1.125-13.453 4.8281-16.734 6-3.2812 13.453-1.125 16.781 4.8281l54.797 99.375c2.6719 4.8281 7.8281 7.8281 13.453 7.8281h368.81c5.625 0 10.781-3 13.453-7.875l55.078-99.141c3.2812-5.9531 10.828-8.1094 16.781-4.7812s8.1094 10.828 4.7812 16.781l-55.078 99.141c-7.0312 12.656-20.484 20.531-35.016 20.531z" fill-rule="evenodd"/>
 <path d="m467.86 440.53c-6.7969 0-12.328-5.5312-12.328-12.328v-40.641c0-6.7969 5.5312-12.328 12.328-12.328s12.328 5.5312 12.328 12.328v40.641c0 6.7969-5.5312 12.328-12.328 12.328z" fill-rule="evenodd"/>
 <path d="m555.94 440.53c-6.7969 0-12.328-5.5312-12.328-12.328v-40.641c0-6.7969 5.5312-12.328 12.328-12.328s12.328 5.5312 12.328 12.328v40.641c0 6.7969-5.5312 12.328-12.328 12.328z" fill-rule="evenodd"/>
 <path d="m644.06 440.53c-6.7969 0-12.328-5.5312-12.328-12.328v-40.641c0-6.7969 5.5312-12.328 12.328-12.328s12.328 5.5312 12.328 12.328v40.641c0 6.7969-5.5312 12.328-12.328 12.328z" fill-rule="evenodd"/>
 <path d="m732.19 440.53c-6.8438 0-12.328-5.5312-12.328-12.328v-40.641c0-6.7969 5.4844-12.328 12.328-12.328 6.7969 0 12.328 5.5312 12.328 12.328v40.641c0 6.7969-5.5312 12.328-12.328 12.328z" fill-rule="evenodd"/>
 <path d="m205.22 376.4c-10.875 0-19.734 8.8594-19.734 19.734s8.8594 19.734 19.734 19.734 19.734-8.8594 19.734-19.734-8.8594-19.734-19.734-19.734zm0 64.125c-24.469 0-44.391-19.922-44.391-44.391s19.922-44.391 44.391-44.391 44.391 19.922 44.391 44.391-19.922 44.391-44.391 44.391z" fill-rule="evenodd"/>
 <path d="m994.78 376.4c-10.875 0-19.734 8.8594-19.734 19.734s8.8594 19.734 19.734 19.734 19.734-8.8594 19.734-19.734-8.8594-19.734-19.734-19.734zm0 64.125c-24.469 0-44.391-19.922-44.391-44.391s19.922-44.391 44.391-44.391c24.516 0 44.391 19.922 44.391 44.391s-19.922 44.391-44.391 44.391z" fill-rule="evenodd"/>
 <path d="m406.64 327.19c-6.7969 0-12.328-5.5312-12.328-12.328v-105c0-43.359 35.297-78.656 78.656-78.656h254.06c43.359 0 78.656 35.297 78.656 78.656v104.77c0 6.7969-5.5312 12.328-12.328 12.328s-12.328-5.5312-12.328-12.328v-104.77c0-29.766-24.234-54-54-54h-254.06c-29.766 0-54 24.234-54 54v105c0 6.7969-5.5312 12.328-12.328 12.328z" fill-rule="evenodd"/>
 <path d="m467.86 327.19c-6.7969 0-12.328-5.5312-12.328-12.328v-91.781c0-16.922 13.781-30.703 30.656-30.703h227.63c16.922 0 30.703 13.781 30.703 30.703v91.547c0 6.7969-5.5312 12.328-12.328 12.328-6.8438 0-12.328-5.5312-12.328-12.328v-91.547c0-3.3281-2.7188-6-6.0469-6h-227.63c-3.3281 0-6 2.7188-6 6.0469v91.781c0 6.7969-5.5312 12.328-12.328 12.328z" fill-rule="evenodd"/>
</svg>
