<?xml version="1.0" encoding="UTF-8"?>
<svg width="1200pt" height="1200pt" version="1.1" viewBox="0 0 1200 1200" xmlns="http://www.w3.org/2000/svg">
 <g>
  <path d="m490.92 779.58c-9.7969-9.75-25.641-9.75-35.438 0-9.2344 9.4219-9.5156 24.375-0.65625 34.172 8.8125 9.75 23.766 10.922 34.031 2.6719 1.8281 12.656-2.3906 25.453-11.438 34.547l-55.078 55.078c-27.656 24.188-22.453 86.953 18.188 92.672 10.078-0.14062 19.078-6.2812 22.922-15.609 3.8438-9.2812 1.8281-19.969-5.2031-27.234-9.2812-9.0469-23.953-9.5625-33.75-1.0781-2.3438-12.938 1.9219-26.156 11.344-35.25l55.078-55.078c23.391-23.484 23.391-61.453 0-84.891zm-54.609 189.84c5.3906-5.5781 14.016 3.0469 8.4375 8.4375-5.3906 5.5312-13.969-3.0469-8.4375-8.4375zm41.109-167.9c-5.3906 5.5312-13.969-3.0469-8.4375-8.4375 5.3906-5.5312 14.016 3.0469 8.4375 8.4375z"/>
  <path d="m427.5 726.52c-6-40.312-67.875-44.297-92.25-17.719l-55.078 55.078 0.046875 0.046875c-9.2344 9.1875-22.359 13.359-35.203 11.25 3.8906-4.4062 6.0938-10.031 6.1875-15.938-0.28125-13.641-11.438-24.562-25.078-24.562s-24.797 10.922-25.078 24.562c5.7188 40.5 68.109 45.844 92.672 18.188l55.078-55.078c9.1406-8.8125 21.75-12.891 34.312-11.156-4.9219 6.3281-6.5156 14.672-4.2188 22.312 2.2969 7.6875 8.1094 13.828 15.703 16.406 7.5938 2.625 15.938 1.4531 22.5-3.1875 6.5156-4.6875 10.406-12.188 10.406-20.203zm-205.64 28.5c5.3906-5.4844 14.016 3.0469 8.4375 8.4375-5.3906 5.4375-13.969-3.0469-8.4375-8.4375zm184.78-24.234c-5.3906 5.4844-14.016-3.0938-8.4375-8.4375 5.3906-5.5781 14.016 3.0469 8.4375 8.4375z"/>
  <path d="m296.02 832.97c-1.875-1.9219-4.5469-2.9531-7.2188-2.8125-2.7188 0.14062-5.2031 1.4062-6.9375 3.5156l-38.906 47.25c-3.9375 4.7812-5.3438 11.203-3.7031 17.25l-19.453 19.453 0.046875-0.046875c-12.328 12.703-15.891 31.547-9.1406 47.859 6.75 16.359 22.594 27.094 40.266 27.375 20.297 1.9219 37.594-19.266 50.625-32.297 6 1.5938 12.422 0.23438 17.25-3.75l47.25-38.906c2.0625-1.7344 3.3281-4.2188 3.4688-6.8906 0.14062-2.7188-0.89062-5.3438-2.7656-7.2188zm10.547 109.03c-3.75-3.7031-9.75-3.7031-13.5 0l-24.422 24.422c-4.6875 4.6875-11.016 7.3594-17.672 7.3594-6.6094 0-12.984-2.625-17.672-7.3125s-7.3125-11.062-7.3125-17.672c0-6.6562 2.625-13.031 7.3594-17.672l24.422-24.422h-0.046875c3.75-3.7969 3.75-9.8906 0-13.641l32.203-39.141 55.875 55.875z"/>
  <path d="m1088.8 221.68-22.172-22.172 17.016-19.734c0.75-0.84375 1.3125-1.7812 1.7344-2.8594 18.281-4.3594 32.766-18.281 37.875-36.328 5.1094-18.094 0.046875-37.547-13.266-50.812-13.266-13.312-32.719-18.375-50.812-13.266-18.047 5.1094-31.969 19.594-36.328 37.875-7.875 5.8594-15.422 12.094-22.641 18.703l-22.641-22.594c2.7656-9-0.9375-18.703-8.9531-23.578-8.0156-4.8281-18.375-3.6094-24.984 3.0469-6.6562 6.6094-7.9219 16.922-3.0938 24.984s14.531 11.766 23.484 9l21.656 21.656-29.484 25.453-19.594-19.594c2.8125-8.9531-0.89062-18.703-8.9062-23.531-8.0156-4.875-18.375-3.6562-25.031 2.9531-6.6562 6.6562-7.9219 16.969-3.0938 24.984 4.8281 8.0625 14.531 11.812 23.484 9.0938l18.656 18.656-13.219 11.438-0.046875-0.046875c-9.375 8.1562-12.516 21.422-7.7344 32.906l-199.74 188.39c-30.562-38.719-76.688-61.922-125.95-63.328-49.312-1.4062-96.703 19.078-129.37 56.016l-82.219 94.5v-0.046875c-8.4844 9.7969-9.4219 24.047-2.2969 34.875l10.781 16.547c13.172 19.922 9.7969 46.5-7.9688 62.484l-48.094 43.172c-20.578 17.203-50.906 15.891-69.891-3.0469-10.828-7.6406-25.453-6.8438-35.391 1.875l-86.156 74.953c-42.188 37.078-67.172 89.859-69.094 145.97-1.9219 56.062 19.359 110.44 58.875 150.32l35.484 35.531 0.046875-0.046875c39.797 39.422 94.031 60.703 150 58.828 55.969-1.8281 108.7-26.625 145.82-68.578l75.375-86.016c8.7656-9.9375 9.6562-24.562 2.0625-35.484-19.594-19.031-21.234-49.969-3.75-70.969l43.078-48.047c15.984-17.766 42.609-21.188 62.578-7.9688l17.625 11.531c10.922 6.9375 25.078 5.9062 34.875-2.5312l94.219-82.781c34.266-29.812 54.469-72.609 55.781-117.98 0.98437-53.203-22.594-103.83-63.938-137.29l188.34-199.74c11.531 4.7812 24.75 1.6406 32.953-7.7812l11.438-13.266 18.141 18.141v0.046875c-2.7656 9 0.9375 18.703 9 23.531s18.375 3.5625 24.984-3.0938c6.6562-6.6562 7.875-16.969 3.0469-25.031-4.875-8.0156-14.578-11.719-23.531-8.9531l-19.125-19.125 25.453-29.484 21.188 21.188h-0.046875c-2.7656 8.9531 0.9375 18.656 9 23.484 8.0625 4.875 18.375 3.6094 24.984-3.0469 6.6562-6.6562 7.875-16.969 3.0469-25.031-4.875-8.0156-14.578-11.719-23.531-8.9531zm-499.45 435.14c-6.1406 6.375-14.531 9.9844-23.344 10.078s-17.297-3.375-23.531-9.6094c-6.2344-6.2344-9.7031-14.719-9.6094-23.531s3.7031-17.25 10.078-23.344l389.63-367.45c2.1094 1.4062 22.969 23.484 24.188 24.188zm196.64-148.5h-0.046875c28.172 28.453 43.359 67.219 42.047 107.2-1.3125 39.984-19.031 77.672-48.984 104.2l-94.219 82.781c-3.375 2.8594-8.2031 3.1875-11.953 0.79688l-17.484-11.438c-27.797-18.422-64.922-13.688-87.188 11.156l-43.125 48.047c-23.672 27.422-22.734 68.344 2.25 94.641 2.5781 3.7031 2.25 8.6719-0.70312 12l-75.375 86.016-0.046875 0.046876c-33.469 38.156-81.281 60.797-132.05 62.484-50.766 1.6406-99.984-17.766-135.89-53.672l-35.531-35.484c-36-36-55.453-85.312-53.719-136.22 1.7812-50.859 24.562-98.719 62.953-132.14l86.203-75c3.375-2.9531 8.3438-3.1406 11.953-0.51562 26.25 24.281 66.562 24.938 93.562 1.5l48.141-43.172c24.75-22.312 29.484-59.344 11.109-87.141l-10.828-16.547h0.046875c-2.4844-3.6562-2.1562-8.5312 0.70312-11.859l82.219-94.5c29.203-32.766 71.484-50.859 115.36-49.312 43.875 1.5 84.797 22.5 111.66 57.188l-177.19 167.11-0.046875 0.046875c-10.031 9.6562-15.75 22.922-15.844 36.891-0.14062 13.922 5.3438 27.328 15.188 37.172s23.25 15.328 37.172 15.188 27.234-5.8594 36.891-15.844l167.11-177.24zm204.28-249.52c-1.7812 2.0156-4.3125 3.2344-7.0312 3.3281s-5.3438-0.89062-7.2656-2.8125l-35.578-35.531h0.046875c-1.9219-1.9219-2.9531-4.5469-2.8594-7.2656s1.3125-5.25 3.375-7.0312l21.375-18.469c0.09375-0.32813 44.016-37.828 44.203-38.109l19.359-16.688c3 1.875 6.7969 1.9219 9.8438 0.1875 3.0938-1.7812 4.9688-5.0625 4.875-8.625-0.46875-11.062 4.6875-21.562 13.734-27.984 9-6.4219 20.625-7.875 30.938-3.8438s17.859 12.984 20.109 23.859c2.2969 10.828-1.0781 22.031-8.9062 29.859-6.4688 6.5156-15.375 9.9375-24.562 9.4688-3.8906-0.09375-7.5 2.1562-9.0938 5.7188-1.3125 2.9531-1.0312 6.3281 0.70312 9-0.1875 0.14062-16.641 19.359-16.781 19.453-12.469 14.344-44.438 51.609-56.484 65.484z"/>
 </g>
</svg>
