<?xml version="1.0" encoding="UTF-8"?>
<svg width="1200pt" height="1200pt" version="1.1" viewBox="0 0 1200 1200" xmlns="http://www.w3.org/2000/svg">
 <path d="m628.92 801.79-46.359-15.469c-1.0781-0.375-2.2031-1.4531-2.5312-2.7188-3.9844-12.562-9.0938-24.75-15.094-36.375-0.5625-1.2656-0.75-2.5312-0.1875-3.6562l21.797-43.641c4.9219-9.9844 3.0938-21.984-4.9219-30l-51.609-51.75c-8.0156-7.8281-20.016-9.7969-30-4.9219l-43.641 21.797c-1.0781 0.5625-2.3438 0.5625-3.6562-0.1875-11.625-5.8125-23.812-10.922-36.375-15.094-1.2656-0.375-2.3438-1.2656-2.7188-2.5312l-15.469-46.359c-3.4688-10.547-13.453-17.625-24.562-17.625h-73.266c-11.109 0-21.094 7.0781-24.562 17.625l-15.469 46.359c-0.375 1.0781-1.4531 2.2031-2.7188 2.5312-12.562 3.9844-24.75 9.0938-36.375 15.094-1.2656 0.5625-2.5312 0.75-3.6562 0.1875l-43.641-21.797c-10.078-4.9219-22.078-2.9062-30.094 4.9219l-51.797 51.797c-7.8281 7.8281-9.7969 20.016-4.9219 30l21.984 43.641c0.5625 1.0781 0.5625 2.3438-0.1875 3.6562-5.8125 11.625-10.922 23.812-15.094 36.375-0.375 1.2656-1.2656 2.3438-2.5312 2.7188l-46.359 15.422c-10.547 3.4688-17.625 13.453-17.625 24.562v73.266c0 11.109 7.0781 21.094 17.625 24.562l46.359 15.469c1.2656 0.375 2.2031 1.4531 2.5312 2.7188 3.9844 12.562 9.0938 24.75 15.094 36.375 0.5625 1.2656 0.75 2.5312 0.1875 3.6562l-21.797 43.641c-4.9219 9.9844-3.0938 21.984 4.9219 30l51.797 51.797c7.8281 7.8281 20.016 9.7969 30 4.9219l43.641-21.797c1.0781-0.5625 2.3438-0.5625 3.6562 0.1875 11.625 5.8125 23.812 10.922 36.375 15.094 1.2656 0.375 2.3438 1.2656 2.7188 2.5312l15.469 46.359c3.4688 10.547 13.453 17.812 24.562 17.812h73.266c11.109 0 21.094-7.0781 24.562-17.625l15.469-46.359c0.375-1.0781 1.4531-2.2031 2.7188-2.5312 12.562-3.9844 24.75-9.0938 36.375-15.094 1.2656-0.5625 2.5312-0.75 3.6562-0.1875l43.641 21.797c9.9844 5.1094 21.984 3.0938 30-4.9219l51.703-51.844c7.8281-7.8281 9.7969-20.016 4.9219-30l-21.797-43.641c-0.5625-1.0781-0.5625-2.5312 0.1875-3.6562 5.8125-11.625 10.922-23.812 15.094-36.375 0.375-1.2656 1.2656-2.3438 2.5312-2.7188l46.359-15.469c10.547-3.4688 17.625-13.453 17.625-24.562v-73.266c-0.1875-11.25-7.2656-21.047-17.812-24.703zm-292.03 219.66c-87.281 0-158.34-71.109-158.34-158.34 0-87.281 71.109-158.34 158.34-158.34 87.281 0 158.34 71.109 158.34 158.34 0.046875 87.234-71.062 158.34-158.34 158.34z"/>
 <path d="m727.64 494.02 43.266-43.266c7.0781-7.0781 8.9062-18 4.3594-27.094l-18.188-36.562c-0.375-0.5625 0-1.2656 0.1875-1.4531 4.9219-9.7969 9.2812-20.016 12.75-30.562 0.1875-0.5625 0.5625-0.89062 0.89062-1.0781l38.719-12.891c9.6562-3.2812 15.984-12.188 15.984-22.359v-61.266c0-10.172-6.375-19.078-15.984-22.359l-38.719-12.891c-0.375-0.1875-0.75-0.5625-0.89062-1.0781-3.4688-10.547-7.6406-20.719-12.75-30.562-0.1875-0.1875-0.375-0.89062-0.1875-1.4531l18.188-36.562c4.5469-9.0938 2.7188-20.016-4.3594-27.094l-43.266-43.266c-7.0781-7.0781-18-8.9062-27.094-4.3594l-36.562 18.188c-0.5625 0.375-1.2656 0-1.4531-0.1875-9.7969-4.9219-20.203-9.2812-30.562-12.75-0.5625-0.1875-0.89062-0.5625-1.0781-0.89062l-12.891-38.719c-3.4688-9.8438-12.375-16.219-22.547-16.219h-61.266c-10.172 0-19.078 6.375-22.172 15.984l-12.891 38.719c-0.1875 0.375-0.5625 0.75-1.0781 0.89062-10.547 3.4688-20.906 7.6406-30.562 12.75-0.1875 0.1875-0.89062 0.375-1.4531 0.1875l-36.562-18.188c-9.0938-4.5469-20.016-2.7188-27.094 4.3594l-43.266 43.266c-7.0781 7.0781-8.9062 18-4.3594 27.094l18.188 36.562c0.375 0.5625 0 1.2656-0.1875 1.4531-4.9219 9.7969-9.2812 20.203-12.75 30.562 0 0.1875-0.375 0.89062-0.89062 1.0781l-38.719 12.891c-9.6562 3.2812-15.984 12.188-15.984 22.359v61.266c0 10.172 6.375 19.078 15.984 22.359l38.719 12.891c0.5625 0.1875 0.89062 0.89062 0.89062 1.0781 3.4688 10.547 7.6406 20.906 12.75 30.562 0.1875 0.1875 0.375 0.89062 0.1875 1.4531l-18.188 36.562c-4.5469 9.0938-2.7188 20.016 4.3594 27.094l43.266 43.266c7.0781 7.0781 18 8.9062 27.094 4.3594l36.562-18.188c0.5625-0.375 1.2656 0 1.4531 0.1875 9.7969 4.9219 20.016 9.2812 30.562 12.75 0.1875 0 0.89062 0.375 1.0781 0.89062l12.891 38.719c3.2812 9.6562 12.188 15.984 22.359 15.984h61.266c10.172 0 19.078-6.375 22.359-15.984l12.891-38.719c0.1875-0.375 0.5625-0.75 1.0781-0.89062 10.547-3.4688 20.906-7.6406 30.562-12.75 0.1875-0.1875 0.89062-0.375 1.4531-0.1875l36.562 18.188c8.9062 4.9688 19.828 3.1406 27.094-4.125zm-162.74-71.672c-74.016 0-134.21-60.188-134.21-134.21s60.188-134.21 134.21-134.21c74.02 0 134.21 60.188 134.21 134.21 0 74.062-60.188 134.21-134.21 134.21z"/>
 <path d="m1156.9 667.64-37.641-12.562c-0.5625-0.1875-0.75-0.75-0.75-0.89062-3.2812-10.359-7.4531-20.344-12.375-29.812-0.1875-0.375-0.1875-0.89062-0.1875-1.2656l17.812-35.625c4.5469-8.9062 2.7188-19.641-4.3594-26.719l-42.188-42.188c-7.0781-7.0781-17.812-8.7188-26.719-4.3594l-35.625 17.812c-0.5625 0.1875-0.89062 0-1.0781-0.1875-9.6562-4.9219-19.641-8.9062-29.812-12.375-0.375-0.1875-0.75-0.375-0.89062-0.75l-12.562-37.641c-3.0938-9.4688-12-15.797-21.984-15.797h-59.484c-9.9844 0-18.75 6.375-21.984 15.797l-12.562 37.828c-0.1875 0.375-0.375 0.5625-0.89062 0.75-10.359 3.2812-20.344 7.4531-29.812 12.375-0.1875 0.1875-0.75 0.375-1.2656 0.1875l-35.438-17.812c-8.9062-4.3594-19.641-2.7188-26.719 4.3594l-42.188 42.188c-7.0781 7.0781-8.7188 17.812-4.3594 26.719l17.812 35.625c0.1875 0.375 0 0.89062 0 1.0781-4.7344 9.4688-8.9062 19.453-12.375 29.812-0.1875 0.375-0.375 0.75-0.75 0.89062l-37.828 12.562c-9.4688 3.0938-15.797 12-15.797 21.984v59.625c0 9.9844 6.375 18.75 15.797 21.984l37.641 12.562c0.375 0.1875 0.5625 0.375 0.75 0.89062 3.2812 10.172 7.4531 20.203 12.375 29.812 0.1875 0.1875 0.375 0.75 0 1.0781l-17.812 35.625c-4.5469 8.9062-2.7188 19.641 4.3594 26.719l42.188 42.188c7.0781 7.0781 17.812 8.7188 26.719 4.3594l35.438-17.812c0.5625-0.1875 0.89062 0 1.2656 0 9.4688 4.9219 19.641 8.9062 29.812 12.375 0.1875 0 0.75 0.375 0.89062 0.75l12.562 37.641c3.0938 9.4688 12 15.797 21.984 15.797h59.625c9.9844 0 18.75-6.375 21.984-15.797l12.562-37.641c0.1875-0.375 0.375-0.5625 0.89062-0.75 10.172-3.2812 20.344-7.4531 29.812-12.375 0.1875-0.1875 0.75-0.375 1.0781-0.1875l35.438 17.812c8.9062 4.3594 19.641 2.7188 26.719-4.3594l42.188-42.188c7.0781-7.0781 8.7188-17.812 4.3594-26.719l-17.812-35.625c-0.1875-0.375 0-0.89062 0-1.0781 4.9219-9.4688 9.0938-19.641 12.375-29.812 0.1875-0.375 0.375-0.75 0.75-0.89062l37.828-12.562c9.4688-3.0938 15.797-12 15.797-21.984v-59.625c0.23438-9.7969-6.1406-18.703-15.562-21.797zm-238.03 167.81c-64.172 0-116.2-52.172-116.2-116.2 0-64.172 52.172-116.2 116.2-116.2 64.172 0 116.2 52.172 116.2 116.2 0 64.219-52.172 116.2-116.2 116.2z"/>
</svg>
