<?xml version="1.0" encoding="UTF-8"?>
<svg width="1200pt" height="1200pt" version="1.1" viewBox="0 0 1200 1200" xmlns="http://www.w3.org/2000/svg">
 <path d="m331.74 567.47c58.453 0 114.47-21.562 157.82-60.656 13.688-12.328 29.297-18.375 47.766-18.375h84.609c29.812 0 54.094-24.234 54.094-54.094v-60.844c0-16.266 13.219-29.484 29.484-29.484h94.734c16.266 0 29.484 13.219 29.484 29.484v60.844c0 29.812 24.281 54.094 54.094 54.094h40.172c25.172 0 47.203-8.7188 65.578-25.922l97.406-91.312c11.156-10.5 17.062-24.141 17.062-39.469s-5.9062-28.969-17.062-39.422l-97.406-91.312c-18.328-17.203-40.406-25.922-65.578-25.922l-386.72-0.046875c-18.422 0-34.031-6-47.719-18.375-43.359-39.141-99.422-60.656-157.82-60.656-129.98 0-235.74 105.75-235.74 235.74s105.75 235.74 235.74 235.74zm0-446.9c52.312 0 102.56 19.312 141.37 54.328 18.141 16.359 39.75 24.703 64.219 24.703h386.63c18.984 0 34.922 6.3281 48.75 19.266l97.406 91.359c6.2812 5.8594 9.3281 12.891 9.3281 21.516 0 8.5781-3.0469 15.656-9.3281 21.516l-97.406 91.312c-13.828 12.984-29.766 19.266-48.75 19.266h-40.172c-16.266 0-29.484-13.219-29.484-29.484v-60.844c0-29.812-24.234-54.094-54.094-54.094h-94.734c-29.812 0-54.094 24.281-54.094 54.094v60.844c0 16.266-13.219 29.484-29.484 29.484h-84.609c-24.469 0-46.031 8.2969-64.219 24.703-38.812 35.016-89.016 54.328-141.37 54.328-116.44 0-211.13-94.734-211.13-211.13 0-116.44 94.734-211.18 211.18-211.18zm0 332.72c67.031 0 121.6-54.562 121.6-121.6 0-67.031-54.516-121.6-121.6-121.6-67.031 0-121.6 54.516-121.6 121.6 0 67.078 54.562 121.6 121.6 121.6zm0-218.53c53.484 0 96.984 43.5 96.984 96.984 0 53.484-43.5 96.984-96.984 96.984s-96.984-43.5-96.984-96.984c0-53.484 43.5-96.984 96.984-96.984zm657.79 502.74c-18.328-17.203-40.406-25.922-65.578-25.922h-386.68c-18.422 0-34.031-6-47.719-18.375-43.359-39.141-99.422-60.656-157.82-60.656-129.98 0-235.74 105.75-235.74 235.74s105.75 235.74 235.74 235.74c58.453 0 114.47-21.562 157.82-60.656 13.688-12.328 29.297-18.375 47.766-18.375h84.609c29.812 0 54.094-24.234 54.094-54.094v-60.844c0-16.266 13.219-29.484 29.484-29.484h94.734c16.266 0 29.484 13.219 29.484 29.484v60.844c0 29.812 24.281 54.094 54.094 54.094h40.172c25.172 0 47.203-8.7188 65.578-25.922l97.406-91.312c11.156-10.5 17.062-24.141 17.062-39.422 0-15.328-5.9062-28.969-17.062-39.422zm80.578 152.29-97.406 91.312c-13.828 12.984-29.766 19.266-48.75 19.266h-40.172c-16.266 0-29.484-13.219-29.484-29.484v-60.844c0-29.812-24.234-54.094-54.094-54.094h-94.734c-29.812 0-54.094 24.234-54.094 54.094v60.844c0 16.266-13.219 29.484-29.484 29.484h-84.609c-24.469 0-46.031 8.2969-64.219 24.703-38.812 35.016-89.016 54.328-141.37 54.328-116.44 0-211.13-94.734-211.13-211.13 0-116.44 94.734-211.13 211.13-211.13 52.312 0 102.56 19.312 141.37 54.328 18.141 16.359 39.75 24.703 64.219 24.703h386.63c18.984 0 34.922 6.3281 48.75 19.266l97.406 91.359c6.2812 5.8594 9.3281 12.891 9.3281 21.516 0.046875 8.5781-3 15.609-9.2812 21.469zm-738.37-143.06c-67.031 0-121.6 54.562-121.6 121.6 0 67.031 54.562 121.6 121.6 121.6 67.031 0 121.6-54.516 121.6-121.6-0.046876-67.078-54.562-121.6-121.6-121.6zm0 218.53c-53.484 0-96.984-43.5-96.984-96.984 0-53.484 43.5-96.984 96.984-96.984s96.984 43.5 96.984 96.984c0 53.484-43.5 96.984-96.984 96.984z"/>
</svg>
