<?xml version="1.0" encoding="UTF-8"?>
<svg width="1200pt" height="1200pt" version="1.1" viewBox="0 0 1200 1200" xmlns="http://www.w3.org/2000/svg">
 <path d="m496.26 971.95v-743.86c0-15.188 12.328-27.562 27.562-27.562 15.188 0 27.562 12.328 27.562 27.562v743.86c0 15.188-12.328 27.562-27.562 27.562-15.188 0-27.562-12.328-27.562-27.562zm152.39 0v-743.86c0-15.188 12.328-27.562 27.562-27.562 15.188 0 27.562 12.328 27.562 27.562v743.86c0 15.188-12.328 27.562-27.562 27.562-15.188 0-27.562-12.328-27.562-27.562zm538.87-596.72c0-99.797-40.781-190.5-106.55-256.18-65.719-65.719-156.42-106.55-256.18-106.55h-449.63c-99.797 0-190.5 40.781-256.18 106.55-65.719 65.719-106.55 156.37-106.55 256.18v449.63c0 99.75 40.781 190.5 106.55 256.18 65.719 65.719 156.37 106.55 256.18 106.55h449.63c99.75 0 190.5-40.781 256.18-106.55 65.719-65.719 106.55-156.42 106.55-256.18zm-843.66-51.656c0-15.188 12.328-27.562 27.562-27.562 15.188 0 27.562 12.328 27.562 27.562v552.94c0 15.188-12.328 27.562-27.562 27.562-15.188 0-27.562-12.328-27.562-27.562zm457.22 552.94v-552.94c0-15.188 12.328-27.562 27.562-27.562 15.188 0 27.562 12.328 27.562 27.562v552.94c0 15.188-12.328 27.562-27.562 27.562s-27.562-12.328-27.562-27.562zm-582.05-450.79c15.188 0 27.562 12.328 27.562 27.562v293.53c0 15.188-12.328 27.562-27.562 27.562-15.188 0-27.562-12.328-27.562-27.562v-293.53c0-15.188 12.328-27.562 27.562-27.562zm762 348.61c-15.188 0-27.562-12.328-27.562-27.562v-293.53c0-15.188 12.328-27.562 27.562-27.562 15.188 0 27.562 12.328 27.562 27.562v293.53c0 15.188-12.328 27.562-27.562 27.562z" fill-rule="evenodd"/>
</svg>
