<?xml version="1.0" encoding="UTF-8"?>
<svg width="1200pt" height="1200pt" version="1.1" viewBox="0 0 1200 1200" xmlns="http://www.w3.org/2000/svg">
 <path d="m1114 235.99c-14.652-14.648-38.383-14.648-53.031 0l-456.48 456.43c-25.93 25.93-71.051 25.93-96.977 0-26.734-26.734-26.734-70.238 0-96.973l456.47-456.43c14.648-14.648 14.648-38.379 0-53.027-14.652-14.648-38.383-14.648-53.031 0l-456.47 456.43c-46.73 46.762-53.863 117.76-22.547 172.57l-94.5 94.492-10.988-10.988c-14.652-14.648-38.383-14.648-53.031 0l-171.98 171.97c-35.27 35.305-35.27 92.727 0 128.05 17.102 17.086 39.844 26.496 64.016 26.496 24.207 0 46.953-9.4102 64.02-26.516l171.98-171.97c14.648-14.648 14.648-38.379 0-53.027l-10.992-10.984 94.477-94.469c21.477 12.34 45.633 19.469 71.062 19.469 38.344 0 74.418-14.941 101.52-42.059l456.48-456.43c14.648-14.648 14.648-38.379 0-53.027z"/>
</svg>
