<?xml version="1.0" encoding="UTF-8"?>
<svg width="1200pt" height="1200pt" version="1.1" viewBox="0 0 1200 1200" xmlns="http://www.w3.org/2000/svg">
 <path d="m1123.3 964.18c-106.92 185.44-352.6 235.18-523.4 106.92-170.39 127.87-416.72 78.141-523.4-106.88-106.41-184.69-27.938-423 169.08-506.86-25.875-212.39 141.32-399.84 354.42-399.89 213.66-0.14062 379.78 188.48 354.24 399.98 197.21 83.953 275.68 321.74 169.03 506.72zm-559.97 75.375c-78.094-77.344-116.77-186.74-103.36-296.76-102.33-43.688-176.63-130.78-205.36-238.03-164.72 76.594-227.76 279.1-137.39 435.89 90.609 157.13 297.89 202.6 446.16 98.859zm73.031 0.09375c148.74 103.97 355.5 58.688 446.29-99 90.469-157.18 27.562-359.02-137.48-435.79-27.938 106.45-103.83 194.68-205.36 237.89 13.359 109.59-25.219 219.52-103.5 296.9zm-345.24-598.18c106.78-29.344 220.5-7.4531 308.86 58.828 88.875-66.375 201.61-87.891 308.63-58.734 15.797-180.28-127.26-337.18-308.72-337.08-180.94 0.1875-324.74 156-308.76 336.94zm345.37 90.281 4.3594 4.3594 6.7969-11.812c-3.7969 2.3906-7.5 4.875-11.156 7.4062zm15.516 16.312c4.0312 4.5 7.875 9.0469 11.625 13.734l37.359-64.688c-8.9062 3.5156-17.672 7.4062-26.344 11.812l-22.594 39.141zm21.938 27.188c3.6562 5.0625 7.2188 10.219 10.594 15.422l62.109-107.58c-7.6875 1.7344-15.422 3.75-23.016 6.0938zm19.922 30.562c3.3281 5.7188 6.5156 11.531 9.5156 17.391l84.562-146.39c-6.9844 0.60938-14.016 1.4531-21 2.4844l-73.031 126.52zm17.672 34.547c2.9062 6.5156 5.5781 13.125 8.1094 19.781l106.36-184.22c-6.4688-0.23438-12.938-0.32812-19.406-0.14062l-95.016 164.58zm14.812 39.422c1.5938 5.1094 3.0469 10.266 4.4062 15.469l8.625-4.1719 122.21-211.69c-6.0469-0.9375-12.141-1.7344-18.234-2.2969l-117.05 202.69zm-94.125 293.29c15.75-20.812 28.922-43.547 39-67.594zm58.219-132.19c2.5312-13.922 4.0781-27.891 4.6406-41.859l-111.8 193.64c3.9375 4.4062 7.9688 8.6719 12.141 12.797l95.016-164.53zm4.4062-72.797-0.70312-9.5625c-5.1562 1.4531-10.359 2.7188-15.562 3.8906l-117.09 202.82c3.5625 5.0156 7.2656 9.9375 11.062 14.672zm-8.4375-56.203c-14.859-58.078-43.172-108.61-86.625-150.19-43.547 41.625-71.766 92.062-86.719 150.24 57.75 16.875 115.59 16.125 173.34-0.09375zm-123.19-180.1c-3.4688-2.4375-7.0312-4.7812-10.641-7.125l-95.25 164.95c3.8438 1.9688 7.6406 3.8906 11.531 5.6719 16.5-62.25 48.516-118.27 94.359-163.5zm-24.047-15.234c-4.9219-2.8125-9.8906-5.4844-14.906-8.0156l-95.016 164.58c4.6875 3.0938 9.4688 6.0469 14.391 8.9062l95.578-165.52zm-29.109-14.719c-5.25-2.2969-10.5-4.4531-15.797-6.4688l-91.406 158.34c4.3594 3.5625 8.9062 7.0781 13.5 10.453zm-30.891-11.672c-5.5781-1.7344-11.156-3.3281-16.734-4.7812l-84.188 145.82c4.0312 4.125 8.2031 8.1562 12.516 12.094zm-32.719-8.4375c-5.9062-1.2188-11.859-2.2031-17.766-3.0469l-73.125 126.61c3.7031 4.7344 7.5469 9.375 11.531 13.875l79.406-137.48zm-34.781-4.9688c-6.3281-0.51562-12.609-0.89062-18.938-0.98438l-57.703 99.891c3.2812 5.3906 6.7031 10.688 10.359 15.891zm-37.078-0.89062c-6.7969 0.23438-13.594 0.70312-20.344 1.4062l-37.125 64.312c2.8125 6.1875 5.7656 12.328 8.9531 18.328zm-39.938 4.0312c-7.4531 1.2656-14.812 2.7656-22.125 4.5l-10.078 17.484c2.1094 7.2188 4.5 14.344 7.125 21.422zm323.48 286.6c-7.0312 1.1719-14.062 2.1562-21.188 2.9062l-95.062 164.63c3.1875 5.7188 6.3281 11.25 9.8438 16.781zm-40.125 4.4062c-6.6094 0.32812-13.219 0.46875-19.828 0.46875l-73.078 126.56c2.5312 6.5156 5.3438 12.984 8.3438 19.406zm-37.594-0.046876c-6.2344-0.32812-12.422-0.79687-18.656-1.4531l-49.734 86.109c1.7344 7.6875 3.8438 15.375 6.2344 22.969zm-35.484-3.6562c-5.9062-0.9375-11.812-1.9688-17.672-3.1875l-22.688 39.281c0.51562 9.5625 1.5 19.172 2.9531 28.734l37.406-64.781zm-33.656-6.8906-6-1.5938c-0.375 4.5-0.70312 9-0.89062 13.5l6.8906-11.953zm254.86-84.422c11.812-7.5 23.156-15.844 33.938-24.984l94.875-164.34c-5.7188-1.5-11.344-2.8594-17.156-4.0781zm80.297-73.922c15.75-20.812 28.922-43.547 39-67.594z"/>
</svg>
