<?xml version="1.0" encoding="UTF-8"?>
<svg width="1200pt" height="1200pt" version="1.1" viewBox="0 0 1200 1200" xmlns="http://www.w3.org/2000/svg">
 <g>
  <path d="m600 1137.7c-294.52 0-534.14-239.63-534.14-534.14 0-294.56 239.63-534.19 534.14-534.19s534.14 239.63 534.14 534.14-239.63 534.14-534.14 534.14zm0-1049.5c-284.16 0-515.34 231.19-515.34 515.29 0 284.16 231.19 515.34 515.29 515.34 284.16 0 515.34-231.19 515.34-515.34 0-284.16-231.19-515.29-515.34-515.29z"/>
  <path d="m597.42 1076.6c-43.547 0-86.812-5.9062-129.61-17.766-12-3.3281-22.125-11.672-27.75-22.875-5.7188-11.391-6.4219-24.703-1.875-36.609l161.16-420.42 183.1 410.72c5.2031 11.672 5.2031 25.078 0 36.797-5.1562 11.578-15 20.484-27 24.375-52.781 17.156-105.61 25.734-158.06 25.734zm3.2344-448.45-144.89 377.95c-2.6719 6.9375-2.25 14.766 1.0781 21.375 3.3281 6.5625 9 11.25 15.984 13.172 90.609 25.125 183.74 22.547 276.79-7.7344 7.0312-2.2969 12.562-7.3125 15.609-14.109 3.0469-6.8438 3.0469-14.672 0-21.469l-164.58-369.24z"/>
  <path d="m807.05 1024.5c-4.6875 0-9.375-0.75-13.922-2.25-12.094-3.9844-22.031-12.938-27.234-24.562l-183.74-411.05 420.05 160.5c11.953 4.5469 21.469 14.062 26.062 25.969 4.5469 11.812 3.8906 25.078-1.8281 36.328-46.031 90.609-112.5 161.02-197.53 209.26-6.7031 3.7969-14.25 5.7188-21.844 5.7188zm-189.19-404.02 165.19 369.56c3.0469 6.7969 8.8125 12 15.891 14.344 6.9844 2.2969 14.297 1.5938 20.625-2.0156 81.797-46.406 145.74-114.14 190.03-201.42 3.3281-6.6094 3.7031-14.062 1.0312-21-2.6719-6.9844-8.25-12.516-15.234-15.188l-377.63-144.28z"/>
  <path d="m1012.3 767.48c-5.4375 0-10.922-0.98438-16.125-2.9531l-420.74-160.26 410.34-183.98c11.672-5.25 25.078-5.25 36.797-0.09375 11.578 5.1094 20.484 14.953 24.422 26.953 31.641 96.562 34.5 193.36 8.5781 287.63-3.2812 12-11.625 22.172-22.781 27.797-6.4219 3.2344-13.453 4.875-20.484 4.875zm-387.71-164.63 378.28 144.1c6.9375 2.6719 14.766 2.25 21.375-1.125 6.5625-3.3281 11.25-9 13.172-16.031 24.938-90.656 22.125-183.79-8.3438-276.79-2.2969-7.0312-7.3125-12.562-14.156-15.562s-14.672-3-21.469 0.046875z"/>
  <path d="m583.13 621.47 159.61-420.42c4.5469-11.953 14.016-21.469 25.922-26.109 11.812-4.5938 25.031-3.9375 36.328 1.7344 90.703 45.844 161.26 112.12 209.68 197.11 6.1875 10.828 7.5 23.859 3.6094 35.812-3.9375 12.094-12.891 22.031-24.469 27.281l-410.63 184.64zm201.79-430.78c-3.1875 0-6.375 0.60938-9.4688 1.7812-6.9844 2.7188-12.469 8.25-15.141 15.234l-143.48 377.9 369.19-165.98c6.7969-3.0469 12-8.8594 14.297-15.938 2.2969-6.9844 1.5469-14.297-2.0625-20.625-46.594-81.703-114.47-145.5-201.79-189.61-3.6562-1.8281-7.5938-2.7656-11.578-2.7656z"/>
  <path d="m600.74 628.13-184.87-409.92c-5.25-11.672-5.3438-25.078-0.1875-36.797 5.1094-11.625 14.906-20.531 26.859-24.469 96.516-31.828 193.26-34.922 287.63-9.1875 12 3.2812 22.172 11.578 27.844 22.734 5.7656 11.344 6.5156 24.703 2.0156 36.609l-159.37 421.08zm1.875-478.82c-51.141 0-102.66 8.4844-154.13 25.453-7.0312 2.2969-12.562 7.3594-15.562 14.156-3 6.8438-3 14.672 0.09375 21.469l166.18 368.53 143.26-378.61c2.625-6.9375 2.2031-14.766-1.1719-21.375-3.3281-6.5625-9.0469-11.203-16.031-13.125-40.453-11.062-81.422-16.547-122.63-16.547z"/>
  <path d="m617.95 620.39-420.74-158.72c-11.953-4.5-21.516-13.969-26.156-25.875-4.5938-11.812-3.9844-25.031 1.6406-36.328 45.609-90.797 111.8-161.48 196.64-210.1 10.828-6.1875 23.859-7.5469 35.766-3.6562 12.141 3.9375 22.078 12.844 27.328 24.422zm-428.44-212.48c-3.3281 6.6094-3.6562 14.062-0.9375 21 2.7188 6.9844 8.2969 12.469 15.281 15.094l378.24 142.69-166.78-368.81c-3.0469-6.7969-8.9062-11.953-15.984-14.25-6.9844-2.2969-14.297-1.5469-20.625 2.1094-81.609 46.734-145.22 114.8-189.19 202.22z"/>
  <path d="m196.36 792.52c-6.1875 0-12.328-1.2656-18.141-3.7969-11.625-5.0625-20.578-14.859-24.562-26.812-32.062-96.422-35.344-193.18-9.8438-287.58 3.2344-12 11.531-22.219 22.688-27.938 11.344-5.8125 24.656-6.5625 36.609-2.0625l421.45 158.44-409.55 185.72c-5.9062 2.6719-12.281 4.0312-18.656 4.0312zm-9.1406-332.29c-4.1719 0-8.2969 0.98438-12.094 2.9062-6.5625 3.3281-11.203 9.0469-13.078 16.078-24.562 90.75-21.328 183.89 9.5156 276.74 2.3438 7.0312 7.3594 12.516 14.203 15.516s14.672 2.9531 21.469-0.14062l368.16-166.97-378.89-142.45c-3-1.125-6.1406-1.6875-9.2812-1.6875z"/>
  <path d="m411.19 1033.2c-6.8438 0-13.688-1.5938-19.922-4.6875-89.625-44.812-154.74-106.27-204.94-193.4-6.2344-10.781-7.5938-23.812-3.75-35.766 3.8906-12.141 12.797-22.125 24.375-27.375l410.29-186.61-163.87 418.64c-4.4531 11.859-13.828 21.422-25.781 26.109-5.2969 2.0625-10.875 3.0938-16.406 3.0938zm-11.484-21.516c6.6094 3.3281 14.109 3.6094 21 0.89062 6.9375-2.7188 12.469-8.2969 15.094-15.328l147-375.56-368.02 167.39c-6.75 3.0938-11.953 8.9062-14.25 15.984-2.25 6.9844-1.5 14.344 2.1562 20.625 48.234 83.812 110.86 142.92 197.06 186z"/>
 </g>
</svg>
