<?xml version="1.0" encoding="UTF-8"?>
<svg width="1200pt" height="1200pt" version="1.1" viewBox="0 0 1200 1200" xmlns="http://www.w3.org/2000/svg">
 <g>
  <path d="m496.09 387.9c-10.352 0-18.75 8.3828-18.75 18.75v19.633h-42.582c-10.352 0-18.75 8.3828-18.75 18.75s8.3984 18.75 18.75 18.75h42.582v55.031h-42.582c-10.352 0-18.75 8.3828-18.75 18.75s8.3984 18.75 18.75 18.75h42.582v55.086h-42.582c-10.352 0-18.75 8.3828-18.75 18.75 0 10.367 8.3984 18.75 18.75 18.75h42.582v55.086h-42.582c-10.352 0-18.75 8.3828-18.75 18.75s8.3984 18.75 18.75 18.75h42.582v18.469c0 10.367 8.3984 18.75 18.75 18.75 10.352 0 18.75-8.3828 18.75-18.75v-353.3c0-10.367-8.3984-18.75-18.75-18.75z"/>
  <path d="m527.06 1008.5c0 17.105-13.867 30.973-30.977 30.973-17.105 0-30.973-13.867-30.973-30.973 0-17.109 13.867-30.977 30.973-30.977 17.109 0 30.977 13.867 30.977 30.977"/>
  <path d="m890.49 226.78h-85.707v-24.301c0-33.844-27.523-61.352-61.332-61.352h-46.762l0.003906-75.785c0-25.688-20.906-46.594-46.594-46.594h-307.93c-25.707 0-46.594 20.906-46.594 46.594v75.77h-46.762c-33.824 0-61.352 27.523-61.352 61.352v124.73c0 1.1797 0.44922 2.1953 0.67578 3.3359 0 0.30078-0.26172 0.5625-0.1875 0.88281l116.81 506.71c-51.449 10.668-90.242 56.344-90.242 110.91v213.47c0 10.367 8.3984 18.75 18.75 18.75h525.62c10.352 0 18.75-8.3828 18.75-18.75v-213.47c0-54.562-38.758-100.24-90.168-110.91l18.844-81.695h175.89c82.82 0 130.33-43.18 130.33-118.46v-279.9c0.015626-84.676-43.332-131.29-122.05-131.29zm-89.531 119.18h64.574c17.418 0 23.945 0 24.039 30.074l0.76953 246.41c0.019531 6.0547-1.125 10.836-3.0938 12.805-1.6484 1.668-5.082 2.0078-7.6875 2.0078h-145.78zm-571.2 0h532.71l-112.93 489.8h-306.83zm121.71 725.57h-34.668c-10.352 0-18.75-8.3828-18.75-18.75 0-10.367 8.3984-18.75 18.75-18.75h34.668c10.352 0 18.75 8.3828 18.75 18.75 0 10.371-8.3984 18.75-18.75 18.75zm0-92.512h-34.668c-10.352 0-18.75-8.3828-18.75-18.75 0-10.367 8.3984-18.75 18.75-18.75h34.668c10.352 0 18.75 8.3828 18.75 18.75 0 10.371-8.3984 18.75-18.75 18.75zm144.62 97.969c-37.762 0-68.477-30.73-68.477-68.477 0-37.742 30.73-68.477 68.477-68.477 37.742 0 68.477 30.73 68.477 68.477s-30.711 68.477-68.477 68.477zm179.33-5.457h-34.648c-10.352 0-18.75-8.3828-18.75-18.75 0-10.367 8.3984-18.75 18.75-18.75h34.648c10.352 0 18.75 8.3828 18.75 18.75 0 10.371-8.3828 18.75-18.75 18.75zm18.75-111.26c0 10.367-8.3984 18.75-18.75 18.75h-34.648c-10.352 0-18.75-8.3828-18.75-18.75 0-10.367 8.3984-18.75 18.75-18.75h34.648c10.367 0 18.75 8.3828 18.75 18.75zm280.89-322.31c0 54.488-30.375 80.961-92.832 80.961h-167.25l10.18-44.176h154.43c17.57 0 28.312-7.0859 34.258-13.031 6.4297-6.4688 14.082-18.543 14.023-39.414l-0.76953-246.39c-0.14844-46.648-19.145-67.461-61.539-67.461h-60.75v-44.176h85.707c56.906 0 84.562 30.676 84.562 93.789l0.003907 279.9z"/>
 </g>
</svg>
