<?xml version="1.0" encoding="UTF-8"?>
<svg width="1200pt" height="1200pt" version="1.1" viewBox="0 0 1200 1200" xmlns="http://www.w3.org/2000/svg">
 <path d="m210.32 200.02c-29.25 0-57.328 11.625-78 32.297-20.672 20.719-32.344 48.797-32.344 78.047v139.64c0 40.734 27.984 76.547 67.5 86.438l32.531 8.1094v130.45c0 41.109 33.844 75 75 75h525v75c0 14.109-10.922 24.984-25.031 24.984h-649.97c-13.828 0-25.031 11.203-25.031 25.031 0 68.719 56.297 124.97 125.02 124.97h750c68.719 0 125.02-56.25 125.02-125.02v-300c0-70.312-45.891-132.71-113.02-153.71l-656.81-205.26c-34.078-10.641-69.516-15.984-105.19-15.984zm739.69 349.97c27.328 0 50.016 22.688 50.016 50.016s-22.688 50.016-50.016 50.016-50.016-22.688-50.016-50.016 22.688-50.016 50.016-50.016zm-700.03 7.0312 520.4 130.08c5.9531 1.5 5.5312 9.0938 10.078 12.891h-505.45c-14.109 0-25.031-10.875-25.031-24.984z"/>
 <path d="m324.98 624.98c-13.781 0-24.984 11.203-24.984 25.031 0 6.6094 2.625 12.984 7.3125 17.672s11.062 7.3125 17.672 7.3125h50.016c6.6094 0 12.984-2.625 17.672-7.3125s7.3125-11.062 7.3125-17.672c0-6.6562-2.625-12.984-7.3125-17.672s-11.062-7.3594-17.672-7.3594z"/>
</svg>
