<?xml version="1.0" encoding="UTF-8"?>
<svg width="1200pt" height="1200pt" version="1.1" viewBox="0 0 1200 1200" xmlns="http://www.w3.org/2000/svg">
 <g>
  <path d="m785.06 566.63c-6.9375 0-13.453-2.9531-18-8.1562-4.4531-5.0625-6.5625-11.766-5.7656-18.469l24-185.53-521.29 247.69 522.94 244.31-25.312-185.26c-0.46875-4.0781 0.046875-8.2031 1.5938-12 1.0312-2.3906 2.3906-4.6406 4.0781-6.6094 4.5469-5.2031 11.109-8.1562 18-8.1562l241.45-0.84375v-67.312z"/>
  <path d="m1116 498.24c0-12.375-10.031-22.453-22.453-22.453l-233.53 0.84375 30.375-233.39c1.0312-8.1094-2.4375-16.172-9.0469-21-6.6094-4.7812-15.328-5.625-22.734-2.1562l-762.61 362.39c-7.8281 3.7031-12.844 11.625-12.844 20.297s5.0156 16.547 12.844 20.297l764.39 356.86c7.5469 3.5625 16.453 2.625 23.109-2.4375 6.6562-5.0156 9.9375-13.312 8.5781-21.562l-31.453-232.55 233.53-0.84375c5.9531 0 11.672-2.3906 15.891-6.5625 4.1719-4.2188 6.5625-9.9375 6.5625-15.891zm-43.078 168c-1.125 2.9062-2.8594 5.5312-5.0625 7.6875-4.4531 4.5-10.547 7.0312-16.922 7.0781l-238.08 0.84375 27.141 201.71c1.1719 8.6719-2.4844 17.297-9.5625 22.5-7.0312 5.2031-16.312 6.1406-24.281 2.4844l-608.86-284.53c-8.3906-3.9375-13.781-12.328-13.828-21.609 0-9.2812 5.2969-17.719 13.688-21.703l607.45-288.74c7.9219-3.75 17.25-2.8594 24.375 2.2969 7.0781 5.1562 10.781 13.734 9.7031 22.453l-26.391 201.94 237.94-0.84375c6.3281 0 12.422 2.5312 16.922 6.9844s7.0781 10.547 7.0781 16.922v115.22-0.046875c0.1875 3.1875-0.32812 6.3281-1.4531 9.2812z"/>
 </g>
</svg>
