<?xml version="1.0" encoding="UTF-8"?>
<svg width="1200pt" height="1200pt" version="1.1" viewBox="0 0 1200 1200" xmlns="http://www.w3.org/2000/svg">
 <g>
  <path d="m274.8 451.2c-26.398-25.199-46.801-45.602-46.801-87.602v-146.4c0-14.398-9.6016-25.199-24-25.199s-24 12-24 25.199v146.4c0 42-24 62.398-50.398 87.602-30 28.801-69.602 64.801-69.602 139.2 0 81.602 39.602 118.8 70.801 147.6 26.398 25.199 49.199 45.602 49.199 91.199v144c0 14.398 9.6016 25.199 24 25.199s24-12 24-25.199v-144c0-45.602 20.398-66 46.801-91.199 31.199-30 68.398-67.199 68.398-147.6 0-74.398-38.398-110.4-68.398-139.2zm-80.402 207.6c-32.398 0-57.602-26.398-57.602-57.602 0-31.199 26.398-57.602 57.602-57.602 31.199 0 57.602 26.398 57.602 57.602 0 31.199-25.199 57.602-57.602 57.602z"/>
  <path d="m670.8 672c-28.801-24-46.801-38.398-46.801-69.602v-122.4c0-14.398-9.6016-25.199-24-25.199s-24 12-24 25.199v122.4c0 31.199-16.801 45.602-46.801 69.602-31.199 25.199-70.801 56.398-70.801 121.2 0 72 39.602 103.2 70.801 128.4 26.398 21.602 45.602 37.199 45.602 73.199v118.8c0 14.398 9.6016 25.199 24 25.199 14.398 0 24-12 24-25.199v-118.8c0-36 20.398-51.602 46.801-73.199 31.199-25.199 70.801-57.602 70.801-128.4 1.1992-66-38.402-96-69.602-121.2zm-63.602 181.2c-32.398 0-57.602-26.398-57.602-57.602 0-32.398 26.398-57.602 57.602-57.602 32.398 0 57.602 26.398 57.602 57.602s-25.199 57.602-57.602 57.602z"/>
  <path d="m1071.6 363.6c-27.602-30-51.602-54-51.602-105.6v-171.6c0-14.398-9.6016-25.199-24-25.199s-24 12-24 25.199v171.6c0 51.602-20.398 75.602-48 105.6-31.199 34.801-66 73.199-66 157.2 0 91.199 34.801 132 67.199 166.8 27.602 30 48 54 48 110.4v168c0 14.398 9.6016 25.199 24 25.199 14.398 0 24-12 24-25.199v-168c0-56.398 24-80.398 51.602-110.4 31.199-36 67.199-75.602 67.199-166.8-1.1992-84-36-123.6-68.398-157.2zm-64.801 218.4c-32.398 0-57.602-26.398-57.602-57.602 0-31.199 26.398-57.602 57.602-57.602 32.398 0 57.602 26.398 57.602 57.602-0.003906 31.203-25.203 57.602-57.602 57.602z"/>
 </g>
</svg>
