<?xml version="1.0" encoding="UTF-8"?>
<svg width="1200pt" height="1200pt" version="1.1" viewBox="0 0 1200 1200" xmlns="http://www.w3.org/2000/svg">
 <path d="m1050 234.38h-900c-17.398 0.019531-34.078 6.9414-46.379 19.246-12.305 12.301-19.227 28.98-19.246 46.379v600c0.019531 17.398 6.9414 34.078 19.246 46.379 12.301 12.305 28.98 19.227 46.379 19.246h900c17.398-0.019531 34.078-6.9414 46.379-19.246 12.305-12.301 19.227-28.98 19.246-46.379v-600c-0.019531-17.398-6.9414-34.078-19.246-46.379-12.301-12.305-28.98-19.227-46.379-19.246zm9.375 65.625v271.88h-618.75v-281.25h609.38c5.1719 0.011719 9.3633 4.2031 9.375 9.375zm-918.75 0c0.011719-5.1719 4.2031-9.3633 9.375-9.375h234.38v281.25h-243.75zm0 600v-271.88h243.75v281.25h-234.38c-5.1719-0.011719-9.3633-4.2031-9.375-9.375zm918.75 0c-0.011719 5.1719-4.2031 9.3633-9.375 9.375h-609.38v-281.25h618.75z"/>
 <path d="m262.5 328.12c-27.352 0-53.582 10.863-72.922 30.203s-30.203 45.57-30.203 72.922 10.863 53.582 30.203 72.922 45.57 30.203 72.922 30.203 53.582-10.863 72.922-30.203 30.203-45.57 30.203-72.922c-0.027344-27.344-10.902-53.555-30.234-72.891-19.336-19.332-45.547-30.207-72.891-30.234zm0 150c-12.434 0-24.355-4.9375-33.145-13.73-8.793-8.7891-13.73-20.711-13.73-33.145s4.9375-24.355 13.73-33.145c8.7891-8.793 20.711-13.73 33.145-13.73s24.355 4.9375 33.145 13.73c8.793 8.7891 13.73 20.711 13.73 33.145-0.011719 12.43-4.9531 24.344-13.742 33.133-8.7891 8.7891-20.703 13.73-33.133 13.742z"/>
 <path d="m900 534.38c7.457-0.003906 14.609-2.9648 19.887-8.2383 5.2734-5.2773 8.2344-12.43 8.2383-19.887v-150c0-10.047-5.3594-19.332-14.062-24.355-8.7031-5.0273-19.422-5.0273-28.125 0-8.7031 5.0234-14.062 14.309-14.062 24.355v150c0.003906 7.457 2.9648 14.609 8.2383 19.887 5.2773 5.2734 12.43 8.2344 19.887 8.2383z"/>
 <path d="m975 534.38c7.457-0.003906 14.609-2.9648 19.887-8.2383 5.2734-5.2773 8.2344-12.43 8.2383-19.887v-150c0-10.047-5.3594-19.332-14.062-24.355-8.7031-5.0273-19.422-5.0273-28.125 0-8.7031 5.0234-14.062 14.309-14.062 24.355v150c0.003906 7.457 2.9648 14.609 8.2383 19.887 5.2773 5.2734 12.43 8.2344 19.887 8.2383z"/>
 <path d="m474.92 381.41 21.953 10.977v113.86c0 10.047 5.3594 19.332 14.062 24.355 8.7031 5.0273 19.422 5.0273 28.125 0 8.7031-5.0234 14.062-14.309 14.062-24.355v-85.738l18.75 9.375v76.363c0 10.047 5.3594 19.332 14.062 24.355 8.7031 5.0273 19.422 5.0273 28.125 0 8.7031-5.0234 14.062-14.309 14.062-24.355v-48.242l18.75 9.375v38.867c0 10.047 5.3594 19.332 14.062 24.355 8.7031 5.0273 19.422 5.0273 28.125 0 8.7031-5.0234 14.062-14.309 14.062-24.355v-10.75l18.75 9.375v1.375c0.003906 7.457 2.9648 14.609 8.2383 19.887 5.2773 5.2734 12.43 8.2344 19.887 8.2383 6.4453-0.10547 12.652-2.4609 17.543-6.6641l7.3984 3.6992h-0.003906c6.6758 3.332 14.398 3.875 21.473 1.5117 7.0742-2.3594 12.918-7.4375 16.25-14.109 3.332-6.6719 3.875-14.395 1.5156-21.469-2.3633-7.0742-7.4414-12.922-14.113-16.254l-21.938-10.969v-113.87c0-10.047-5.3633-19.332-14.062-24.355-8.7031-5.0273-19.426-5.0273-28.125 0-8.7031 5.0234-14.062 14.309-14.062 24.355v85.75l-18.75-9.375v-76.375c0-10.047-5.3633-19.332-14.062-24.355-8.7031-5.0273-19.426-5.0273-28.125 0-8.7031 5.0234-14.062 14.309-14.062 24.355v48.242l-18.75-9.375v-38.867c0-10.047-5.3633-19.332-14.062-24.355-8.7031-5.0273-19.426-5.0273-28.125 0-8.7031 5.0234-14.062 14.309-14.062 24.355v10.738l-18.75-9.375v-1.3633c-0.003906-7.457-2.9688-14.609-8.2422-19.883-5.2734-5.2773-12.426-8.2383-19.883-8.2422-6.4453 0.10547-12.648 2.4609-17.543 6.6562l-7.3789-3.6914c-6.6719-3.3477-14.406-3.9102-21.492-1.5508-7.0859 2.3555-12.945 7.4297-16.285 14.109-3.3398 6.6797-3.8867 14.414-1.5195 21.496 2.3672 7.0859 7.4531 12.934 14.141 16.266z"/>
 <path d="m262.5 665.62c-27.352 0-53.582 10.863-72.922 30.203s-30.203 45.57-30.203 72.922 10.863 53.582 30.203 72.922 45.57 30.203 72.922 30.203 53.582-10.863 72.922-30.203 30.203-45.57 30.203-72.922c-0.027344-27.344-10.902-53.555-30.234-72.891-19.336-19.332-45.547-30.207-72.891-30.234zm0 150c-12.434 0-24.355-4.9375-33.145-13.73-8.793-8.7891-13.73-20.711-13.73-33.145s4.9375-24.355 13.73-33.145c8.7891-8.793 20.711-13.73 33.145-13.73s24.355 4.9375 33.145 13.73c8.793 8.7891 13.73 20.711 13.73 33.145-0.011719 12.43-4.9531 24.344-13.742 33.133-8.7891 8.7891-20.703 13.73-33.133 13.742z"/>
 <path d="m474.92 718.91 21.953 10.977v113.86c0 10.047 5.3594 19.332 14.062 24.355 8.7031 5.0273 19.422 5.0273 28.125 0 8.7031-5.0234 14.062-14.309 14.062-24.355v-85.738l18.75 9.375v76.363c0 10.047 5.3594 19.332 14.062 24.355 8.7031 5.0273 19.422 5.0273 28.125 0 8.7031-5.0234 14.062-14.309 14.062-24.355v-48.242l18.75 9.375v38.867c0 10.047 5.3594 19.332 14.062 24.355 8.7031 5.0273 19.422 5.0273 28.125 0 8.7031-5.0234 14.062-14.309 14.062-24.355v-10.75l18.75 9.375v1.375c0.003906 7.457 2.9648 14.609 8.2383 19.887 5.2773 5.2734 12.43 8.2344 19.887 8.2383 6.4453-0.10547 12.652-2.4609 17.543-6.6641l7.3984 3.6992h-0.003906c6.6758 3.332 14.398 3.875 21.473 1.5117 7.0742-2.3594 12.918-7.4375 16.25-14.109 3.332-6.6719 3.875-14.395 1.5156-21.469-2.3633-7.0742-7.4414-12.922-14.113-16.254l-21.938-10.969v-113.87c0-10.047-5.3633-19.332-14.062-24.355-8.7031-5.0273-19.426-5.0273-28.125 0-8.7031 5.0234-14.062 14.309-14.062 24.355v85.75l-18.75-9.375v-76.375c0-10.047-5.3633-19.332-14.062-24.355-8.7031-5.0273-19.426-5.0273-28.125 0-8.7031 5.0234-14.062 14.309-14.062 24.355v48.242l-18.75-9.375v-38.867c0-10.047-5.3633-19.332-14.062-24.355-8.7031-5.0273-19.426-5.0273-28.125 0-8.7031 5.0234-14.062 14.309-14.062 24.355v10.738l-18.75-9.375v-1.3633c-0.003906-7.457-2.9688-14.609-8.2422-19.887-5.2734-5.2734-12.426-8.2344-19.883-8.2383-6.4453 0.10547-12.652 2.4609-17.543 6.6562l-7.3789-3.6914c-8.9844-4.4727-19.676-3.8203-28.051 1.7148-8.375 5.5352-13.164 15.113-12.566 25.137 0.59766 10.02 6.4883 18.965 15.457 23.469z"/>
</svg>
