<?xml version="1.0" encoding="UTF-8"?>
<svg width="1200pt" height="1200pt" version="1.1" viewBox="0 0 1200 1200" xmlns="http://www.w3.org/2000/svg">
 <path d="m600 72c-4.7734 0-9.3516 1.8945-12.727 5.2734-3.3789 3.375-5.2734 7.9531-5.2734 12.727v366.72c0 6.4336 3.4297 12.375 9 15.59s12.43 3.2148 18 0 9-9.1562 9-15.59v-366.72c0-4.7734-1.8945-9.3516-5.2734-12.727-3.375-3.3789-7.9531-5.2734-12.727-5.2734z"/>
 <path d="m442.44 114.6c-1.3242-4.8242-4.5977-8.8789-9.0312-11.191-4.4336-2.3164-9.6289-2.6797-14.344-1.0078s-8.5195 5.2266-10.504 9.8164c-1.9844 4.5938-1.9727 9.8008 0.039062 14.383l125.52 345c1.207 3.5195 3.4883 6.5703 6.5234 8.7266 3.0391 2.1523 6.6719 3.2969 10.395 3.2734 2.0859-0.007812 4.1562-0.375 6.1211-1.082 4.4844-1.625 8.1445-4.9648 10.168-9.2852 2.0273-4.3203 2.2539-9.2656 0.63281-13.754z"/>
 <path d="m494.16 501.84c3.4141 4.0977 8.4688 6.4727 13.801 6.4805 4.3984 0.10547 8.6797-1.4336 12-4.3203 3.6797-3.0391 5.9961-7.4297 6.4219-12.184 0.42969-4.7578-1.0625-9.4883-4.1445-13.137l-236.28-280.92c-4.1367-4.9336-10.59-7.2812-16.93-6.1641-6.3398 1.1172-11.598 5.5312-13.801 11.582-2.1992 6.0469-1.0078 12.809 3.1289 17.742z"/>
 <path d="m149.28 360.6 317.64 183.36c2.7305 1.5859 5.8398 2.4141 9 2.3984 5.3242 0.007813 10.379-2.3477 13.805-6.4258 3.4219-4.0781 4.8672-9.4648 3.9375-14.707-0.92578-5.2461-4.1289-9.8086-8.7422-12.465l-317.64-183.36c-5.5742-3.2148-12.441-3.2109-18.012 0.007812-5.5703 3.2188-9 9.1641-9 15.598 0.003907 6.4375 3.4375 12.379 9.0117 15.598z"/>
 <path d="m94.559 529.2 361.44 63.602c1.0781 0.11719 2.1641 0.11719 3.2383 0 6.4336 0.53516 12.66-2.4023 16.34-7.7031 3.6797-5.3008 4.25-12.16 1.5-18-2.75-5.8359-8.4062-9.7617-14.84-10.297l-361.32-63.121c-6.4336-1.1367-12.98 1.2461-17.18 6.2461-4.1992 5-5.4141 11.863-3.1797 18 2.2305 6.1367 7.5664 10.617 13.996 11.754z"/>
 <path d="m476.64 621.72c-0.82031-4.6562-3.4531-8.8008-7.3203-11.52-3.8711-2.7227-8.6602-3.8008-13.32-3l-361.44 63.602c-6.4297 0.55469-12.074 4.5039-14.809 10.352-2.7305 5.8477-2.1367 12.707 1.5625 18 3.6953 5.2891 9.9375 8.2031 16.367 7.6484h3.2383l361.08-64.199c4.7305-0.78906 8.9453-3.4453 11.695-7.3711 2.7539-3.9297 3.8164-8.7969 2.9453-13.512z"/>
 <path d="m492 662.64c-2.3867-4.1406-6.3164-7.1602-10.934-8.3984-4.6133-1.2383-9.5312-0.59375-13.668 1.7969l-318.12 183.96c-4.6289 2.6641-7.8359 7.2461-8.7539 12.504-0.91797 5.2617 0.54688 10.66 4 14.734 3.4492 4.0742 8.5312 6.4023 13.871 6.3633 3.125 0.027344 6.1992-0.80078 8.8828-2.4023l317.64-183.96c4.2422-2.2773 7.3906-6.1758 8.7227-10.805 1.332-4.6328 0.73828-9.6055-1.6445-13.793z"/>
 <path d="m519.48 696c-3.6328-3.0938-8.3555-4.6055-13.109-4.1992-4.7578 0.40234-9.1523 2.6953-12.211 6.3594l-235.8 280.92c-2.9805 3.5195-4.5 8.0469-4.2422 12.652 0.25781 4.6016 2.2734 8.9336 5.6328 12.094 3.3555 3.1602 7.7969 4.9141 12.41 4.8945 5.3398 0.027344 10.406-2.3555 13.801-6.4805l235.8-280.92c3.0781-3.6484 4.5703-8.3789 4.1406-13.137-0.42578-4.7539-2.7383-9.1445-6.4219-12.184z"/>
 <path d="m557.16 717.72c-4.4688-1.6602-9.418-1.4648-13.746 0.53906-4.3242 2.0078-7.6719 5.6562-9.293 10.141l-125.52 344.64c-1.9453 5.5-1.1055 11.605 2.2578 16.371 3.3633 4.7695 8.8242 7.6133 14.66 7.6289 3.7188 0.007813 7.3477-1.1445 10.379-3.293 3.0312-2.1523 5.3203-5.1953 6.543-8.707l125.52-344.28c1.6211-4.4883 1.3945-9.4375-0.63281-13.758-2.0234-4.3203-5.6836-7.6602-10.168-9.2852z"/>
 <path d="m600 725.28c-4.7734 0-9.3516 1.8945-12.727 5.2695-3.3789 3.375-5.2734 7.957-5.2734 12.73v366.72c0 6.4297 3.4297 12.375 9 15.59s12.43 3.2148 18 0 9-9.1602 9-15.59v-366.72c0-4.7734-1.8945-9.3555-5.2734-12.73-3.375-3.375-7.9531-5.2695-12.727-5.2695z"/>
 <path d="m665.88 728.4c-2.457-5.6016-7.5977-9.5742-13.641-10.539s-12.16 1.2031-16.246 5.7617c-4.082 4.5586-5.5742 10.879-3.9531 16.777l125.52 345c1.2227 3.5117 3.5117 6.5547 6.543 8.707 3.0312 2.1484 6.6602 3.3008 10.379 3.293 5.8359-0.015626 11.297-2.8594 14.66-7.625 3.3633-4.7695 4.2031-10.871 2.2578-16.375z"/>
 <path d="m705.84 698.16c-4.1367-4.9297-10.59-7.2773-16.93-6.1602-6.3359 1.1172-11.598 5.5312-13.797 11.578-2.2031 6.0469-1.0117 12.812 3.125 17.742l235.8 280.92c3.3945 4.125 8.4609 6.5078 13.801 6.4805 4.6133 0.019531 9.0547-1.7344 12.41-4.8945 3.3594-3.1602 5.375-7.4922 5.6328-12.094 0.25781-4.6055-1.2617-9.1328-4.2422-12.652z"/>
 <path d="m1050.7 840-317.64-183.96c-5.5703-3.2148-12.438-3.2109-18.008 0.007813-5.5703 3.2188-9.0039 9.1641-9 15.598 0 6.4375 3.4375 12.379 9.0078 15.594l317.64 183.36c2.6836 1.5977 5.7578 2.4258 8.8828 2.3984 5.3398 0.042969 10.422-2.2891 13.871-6.3633 3.4531-4.0742 4.918-9.4727 4-14.73-0.91797-5.2617-4.125-9.8438-8.7539-12.508z"/>
 <path d="m1105.4 670.8-361.44-63.602c-4.8164-1.125-9.8828-0.21875-14.008 2.5078-4.1289 2.7227-6.9531 7.0273-7.8125 11.898-0.85938 4.8672 0.32422 9.8789 3.2734 13.848 2.9453 3.9727 7.3984 6.5586 12.309 7.1484l361.08 63.719h3.2383c6.4336 0.55859 12.672-2.3594 16.371-7.6484 3.6992-5.293 4.293-12.152 1.5586-18-2.7305-5.8477-8.3789-9.793-14.809-10.352z"/>
 <path d="m723.36 578.28c0.73047 4.1523 2.8984 7.918 6.1211 10.637 3.2266 2.7188 7.3008 4.2227 11.52 4.2422 1.0781 0.11719 2.1641 0.11719 3.2383 0l361.2-63.602h0.003906c6.4297-1.1328 11.766-5.6172 13.996-11.754 2.2344-6.1367 1.0195-12.996-3.1797-18-4.1992-5-10.746-7.3789-17.18-6.2461l-361.08 63.84c-4.7305 0.78906-8.9453 3.4453-11.695 7.3711-2.7539 3.9297-3.8164 8.7969-2.9453 13.512z"/>
 <path d="m708 537.36c1.582 2.7383 3.8555 5.0117 6.5938 6.5938 2.7383 1.5781 5.8438 2.4102 9.0078 2.4062 3.1602 0.015625 6.2656-0.8125 9-2.3984l318.12-183.36c5.5742-3.2188 9.0078-9.1602 9.0117-15.598 0-6.4336-3.4297-12.379-9-15.598-5.5703-3.2188-12.438-3.2227-18.012-0.007812l-317.64 183.36c-4.2422 2.2773-7.3906 6.1758-8.7227 10.805-1.332 4.6328-0.73828 9.6055 1.6445 13.793z"/>
 <path d="m680.52 504c3.3203 2.8867 7.6016 4.4258 12 4.3203 5.332-0.007812 10.387-2.3828 13.801-6.4805l235.32-280.92c4.1367-4.9336 5.3281-11.695 3.1289-17.742-2.2031-6.0508-7.4609-10.465-13.801-11.582-6.3398-1.1172-12.793 1.2305-16.93 6.1641l-235.8 280.92c-3.0781 3.6484-4.5703 8.3789-4.1406 13.137 0.42578 4.7539 2.7383 9.1445 6.4219 12.184z"/>
 <path d="m642.84 482.28c1.9648 0.70703 4.0352 1.0703 6.1211 1.0781 3.7227 0.027344 7.3555-1.1211 10.395-3.2734 3.0352-2.1523 5.3164-5.2031 6.5234-8.7266l126.12-344.4c2.0117-4.582 2.0234-9.7891 0.039062-14.379-1.9844-4.5938-5.793-8.1484-10.504-9.8203-4.7148-1.6719-9.9141-1.3086-14.348 1.0078-4.4336 2.3125-7.7031 6.3672-9.0273 11.191l-126.12 344.28c-1.6211 4.4883-1.3945 9.4375 0.63281 13.758 2.0234 4.3203 5.6836 7.6602 10.168 9.2852z"/>
</svg>
