<?xml version="1.0" encoding="UTF-8"?>
<svg width="1200pt" height="1200pt" version="1.1" viewBox="0 0 1200 1200" xmlns="http://www.w3.org/2000/svg">
 <path d="m172.64 86.672c-0.23438 0-0.46875 0.23438-0.46875 0.46875v1025.6c0 0.23438 0.23438 0.46875 0.46875 0.46875h854.68c0.23438 0 0.51563-0.23438 0.51563-0.46875v-1025.6c0-0.23438-0.28125-0.46875-0.51563-0.46875zm854.68 1050h-854.68c-13.172 0-23.906-10.734-23.906-23.906v-1025.6c0-13.219 10.734-23.906 23.906-23.906h854.68c13.219 0 23.953 10.734 23.953 23.953v1025.6c0 13.172-10.734 23.906-23.953 23.906z" fill-rule="evenodd"/>
 <path d="m233.21 926.48h733.55v-778.78h-733.55zm745.31 23.438h-757.03c-6.4688 0-11.719-5.25-11.719-11.719v-802.22c0-6.4688 5.25-11.719 11.719-11.719h757.03c6.4688 0 11.719 5.25 11.719 11.719v802.18c0 6.4688-5.25 11.719-11.719 11.719z" fill-rule="evenodd"/>
 <path d="m473.81 949.92c-6.4688 0-11.719-5.25-11.719-11.719v-802.22c0-6.4688 5.25-11.719 11.719-11.719 6.5156 0 11.719 5.25 11.719 11.719v802.18c0 6.4688-5.2031 11.719-11.719 11.719z" fill-rule="evenodd"/>
 <path d="m726.19 949.92c-6.4688 0-11.719-5.25-11.719-11.719v-802.22c0-6.4688 5.25-11.719 11.719-11.719s11.719 5.25 11.719 11.719v802.18c0 6.4688-5.25 11.719-11.719 11.719z" fill-rule="evenodd"/>
 <path d="m347.68 1095.2c-6.5156 0-11.719-5.25-11.719-11.719v-77.484l-7.1719 6.375c-4.8281 4.3125-12.188 3.9375-16.547-0.89062s-3.9375-12.234 0.89062-16.547l26.672-24c3.4219-3.0938 8.3906-3.8438 12.609-1.9688s6.9375 6.0938 6.9375 10.688v103.78c0 6.4688-5.2031 11.719-11.672 11.719z" fill-rule="evenodd"/>
 <path d="m374.34 1095.2h-53.344c-6.4688 0-11.719-5.25-11.719-11.719s5.25-11.719 11.719-11.719h53.344c6.5156 0 11.719 5.25 11.719 11.719s-5.2031 11.719-11.719 11.719z" fill-rule="evenodd"/>
 <path d="m632.02 1095.2h-63.938c-6.5156 0-11.719-5.25-11.719-11.719 0-3.4688 1.5-6.6562 3.9375-8.8125 1.3125-1.2188 35.578-32.719 52.547-50.953 0.84375-0.89062 1.5938-1.6875 2.3438-2.4844 4.5938-4.8281 5.1094-5.3438 5.1094-9.5625 0-11.203-9.0938-20.297-20.297-20.297s-20.297 9.0938-20.297 20.297c0 6.4688-5.2031 11.719-11.719 11.719-6.4688 0-11.719-5.25-11.719-11.719 0-24.094 19.641-43.734 43.734-43.734 24.141 0 43.734 19.641 43.734 43.734 0 13.641-5.9062 19.781-11.578 25.734-0.70312 0.70312-1.4062 1.4531-2.1094 2.25-8.8594 9.5156-22.172 22.406-32.297 32.062h34.312c6.4688 0 11.719 5.25 11.719 11.719s-5.25 11.719-11.719 11.719z" fill-rule="evenodd"/>
 <path d="m850.82 1095.2c-13.922 0-26.672-7.6406-33.234-19.922-3.0938-5.6719-0.89062-12.797 4.7812-15.844 5.7188-3.0469 12.797-0.89062 15.891 4.8281 2.4844 4.6406 7.3125 7.5 12.562 7.5 7.8281 0 14.203-6.375 14.203-14.203 0-7.875-6.375-14.25-14.203-14.25-6.4688 0-11.719-5.25-11.719-11.719s5.2031-11.719 11.719-11.719c7.8281 0 14.203-6.375 14.203-14.25 0-7.8281-6.375-14.25-14.203-14.25-5.25 0-10.078 2.9062-12.562 7.5469-3.0469 5.7188-10.172 7.875-15.891 4.8281-5.6719-3.0469-7.875-10.172-4.7812-15.891 6.5625-12.281 19.266-19.922 33.234-19.922 20.766 0 37.641 16.875 37.641 37.688 0 10.078-3.9375 19.172-10.359 25.969 6.4219 6.75 10.359 15.891 10.359 25.969 0 20.766-16.875 37.641-37.641 37.641z" fill-rule="evenodd"/>
 <path d="m307.87 838.13c-6.4688 0-11.719-5.25-11.719-11.719 0-10.641-2.7188-21.656-5.5781-33.375-3.0938-12.516-6.2344-25.5-6.2344-38.953 0-13.5 3.1875-26.438 6.2344-38.953 2.9062-11.672 5.5781-22.734 5.5781-33.375s-2.7188-21.703-5.5781-33.375c-3.0938-12.516-6.2344-25.5-6.2344-38.953s3.1875-26.438 6.2344-38.953c2.9062-11.719 5.5781-22.734 5.5781-33.375s-2.7188-21.703-5.5781-33.375c-3.0938-12.516-6.2344-25.5-6.2344-38.953 0-13.5 3.1875-26.438 6.2344-38.953 2.9062-11.719 5.5781-22.734 5.5781-33.375s-2.7188-21.656-5.5781-33.375c-3.0938-12.516-6.2344-25.453-6.2344-38.953s3.1875-26.438 6.2344-38.953c2.9062-11.672 5.5781-22.734 5.5781-33.375 0-6.4688 5.25-11.719 11.719-11.719s11.719 5.25 11.719 11.719c0 13.453-3.1875 26.438-6.2344 38.953-2.8594 11.672-5.5781 22.734-5.5781 33.375s2.7188 21.656 5.5781 33.375c3.0469 12.516 6.2344 25.5 6.2344 38.953s-3.1875 26.438-6.2344 38.953c-2.8594 11.672-5.5781 22.734-5.5781 33.375s2.7188 21.703 5.5781 33.328c3.0469 12.562 6.2344 25.5 6.2344 38.953s-3.1875 26.438-6.2344 38.953c-2.8594 11.672-5.5781 22.734-5.5781 33.328 0 10.641 2.7188 21.703 5.5781 33.375 3.0469 12.516 6.2344 25.5 6.2344 38.953s-3.1875 26.438-6.2344 38.953c-2.8594 11.672-5.5781 22.734-5.5781 33.375s2.7188 21.656 5.5781 33.375c3.0469 12.516 6.2344 25.5 6.2344 38.953 0 6.4688-5.25 11.719-11.719 11.719z" fill-rule="evenodd"/>
 <path d="m399.32 838.13c-6.4688 0-11.719-5.25-11.719-11.719 0-10.641-2.7188-21.656-5.5781-33.375-3.0469-12.516-6.2344-25.5-6.2344-38.953 0-13.5 3.1875-26.438 6.2344-38.953 2.9062-11.672 5.5781-22.734 5.5781-33.375s-2.7188-21.703-5.5781-33.375c-3.0469-12.516-6.2344-25.5-6.2344-38.953s3.1875-26.438 6.2344-38.953c2.9062-11.719 5.5781-22.734 5.5781-33.375s-2.7188-21.703-5.5781-33.375c-3.0469-12.516-6.2344-25.5-6.2344-38.953 0-13.5 3.1875-26.438 6.2344-38.953 2.9062-11.719 5.5781-22.734 5.5781-33.375s-2.7188-21.656-5.5781-33.375c-3.0469-12.516-6.2344-25.453-6.2344-38.953s3.1875-26.438 6.2344-38.953c2.9062-11.672 5.5781-22.734 5.5781-33.375 0-6.4688 5.25-11.719 11.719-11.719s11.719 5.25 11.719 11.719c0 13.453-3.1875 26.438-6.2344 38.953-2.8594 11.672-5.5781 22.734-5.5781 33.375s2.7188 21.656 5.5781 33.375c3.0938 12.516 6.2344 25.5 6.2344 38.953s-3.1875 26.438-6.2344 38.953c-2.8594 11.672-5.5781 22.734-5.5781 33.375s2.7188 21.703 5.5781 33.328c3.0938 12.562 6.2344 25.5 6.2344 38.953s-3.1875 26.438-6.2344 38.953c-2.8594 11.672-5.5781 22.734-5.5781 33.328 0 10.641 2.7188 21.703 5.5781 33.375 3.0938 12.516 6.2344 25.5 6.2344 38.953s-3.1875 26.438-6.2344 38.953c-2.8594 11.672-5.5781 22.734-5.5781 33.375s2.7188 21.656 5.5781 33.375c3.0938 12.516 6.2344 25.5 6.2344 38.953 0 6.4688-5.25 11.719-11.719 11.719z" fill-rule="evenodd"/>
 <path d="m560.16 838.13c-6.4688 0-11.719-5.25-11.719-11.719 0-10.641-2.7188-21.656-5.5781-33.375-3.0938-12.562-6.2344-25.5-6.2344-38.953 0-13.5 3.1875-26.438 6.2344-38.953 2.8594-11.672 5.5781-22.734 5.5781-33.375s-2.7188-21.703-5.5781-33.375c-3.0938-12.516-6.2344-25.5-6.2344-38.953s3.1875-26.438 6.2344-38.953c2.8594-11.719 5.5781-22.734 5.5781-33.375s-2.7188-21.703-5.5781-33.375c-3.0938-12.516-6.2344-25.5-6.2344-38.953 0-13.5 3.1875-26.438 6.2344-38.953 2.8594-11.719 5.5781-22.734 5.5781-33.375s-2.7188-21.656-5.5781-33.375c-3.0938-12.516-6.2344-25.453-6.2344-38.953s3.1875-26.438 6.2344-38.953c2.8594-11.672 5.5781-22.734 5.5781-33.375 0-6.4688 5.25-11.719 11.719-11.719 6.5156 0 11.719 5.25 11.719 11.719 0 13.453-3.1875 26.438-6.2344 38.953-2.8594 11.672-5.5781 22.734-5.5781 33.375s2.7188 21.656 5.5781 33.375c3.0938 12.516 6.2344 25.453 6.2344 38.953 0 13.453-3.1875 26.438-6.2344 38.953-2.8594 11.672-5.5781 22.734-5.5781 33.375s2.7188 21.703 5.5781 33.328c3.0938 12.562 6.2344 25.5 6.2344 38.953s-3.1875 26.438-6.2344 38.953c-2.8594 11.672-5.5781 22.734-5.5781 33.328 0 10.641 2.7188 21.703 5.5781 33.375 3.0938 12.516 6.2344 25.5 6.2344 38.953s-3.1875 26.438-6.2344 38.953c-2.8594 11.672-5.5781 22.734-5.5781 33.375s2.7188 21.656 5.5781 33.375c3.0938 12.516 6.2344 25.5 6.2344 38.953 0 6.4688-5.2031 11.719-11.719 11.719z" fill-rule="evenodd"/>
 <path d="m651.66 838.13c-6.4688 0-11.719-5.25-11.719-11.719 0-10.641-2.7188-21.656-5.5781-33.375-3.0938-12.562-6.2344-25.5-6.2344-38.953 0-13.5 3.1875-26.438 6.2344-38.953 2.9062-11.672 5.5781-22.734 5.5781-33.375s-2.7188-21.703-5.5781-33.375c-3.0938-12.516-6.2344-25.5-6.2344-38.953s3.1875-26.438 6.2344-38.953c2.9062-11.719 5.5781-22.734 5.5781-33.375s-2.7188-21.703-5.5781-33.375c-3.0938-12.516-6.2344-25.5-6.2344-38.953 0-13.5 3.1875-26.438 6.2344-38.953 2.9062-11.719 5.5781-22.734 5.5781-33.375s-2.7188-21.656-5.5781-33.375c-3.0938-12.516-6.2344-25.453-6.2344-38.953s3.1875-26.438 6.2344-38.953c2.9062-11.672 5.5781-22.734 5.5781-33.375 0-6.4688 5.25-11.719 11.719-11.719s11.719 5.25 11.719 11.719c0 13.453-3.1875 26.438-6.2344 38.953-2.8594 11.672-5.5781 22.734-5.5781 33.375s2.7188 21.656 5.5781 33.375c3.0469 12.516 6.2344 25.453 6.2344 38.953 0 13.453-3.1875 26.438-6.2344 38.953-2.8594 11.672-5.5781 22.734-5.5781 33.375s2.7188 21.703 5.5781 33.328c3.0469 12.562 6.2344 25.5 6.2344 38.953s-3.1875 26.438-6.2344 38.953c-2.8594 11.672-5.5781 22.734-5.5781 33.328 0 10.641 2.7188 21.703 5.5781 33.375 3.0469 12.516 6.2344 25.5 6.2344 38.953s-3.1875 26.438-6.2344 38.953c-2.8594 11.672-5.5781 22.734-5.5781 33.375s2.7188 21.656 5.5781 33.375c3.0469 12.516 6.2344 25.5 6.2344 38.953 0 6.4688-5.25 11.719-11.719 11.719z" fill-rule="evenodd"/>
 <path d="m812.53 838.13c-6.4688 0-11.719-5.25-11.719-11.719 0-10.641-2.7188-21.656-5.5781-33.375-3.0938-12.516-6.2344-25.5-6.2344-38.953 0-13.5 3.1875-26.438 6.2344-38.953 2.8594-11.672 5.5781-22.734 5.5781-33.375s-2.7188-21.703-5.5781-33.375c-3.0938-12.516-6.2344-25.5-6.2344-38.953s3.1875-26.438 6.2344-38.953c2.8594-11.719 5.5781-22.734 5.5781-33.375s-2.7188-21.703-5.5781-33.375c-3.0938-12.516-6.2344-25.5-6.2344-38.953 0-13.5 3.1875-26.438 6.2344-38.953 2.8594-11.719 5.5781-22.734 5.5781-33.375s-2.7188-21.656-5.5781-33.375c-3.0938-12.516-6.2344-25.453-6.2344-38.953s3.1875-26.438 6.2344-38.953c2.8594-11.672 5.5781-22.734 5.5781-33.375 0-6.4688 5.25-11.719 11.719-11.719s11.719 5.25 11.719 11.719c0 13.453-3.1875 26.438-6.2344 38.953-2.8594 11.672-5.5781 22.734-5.5781 33.375s2.7188 21.656 5.5781 33.375c3.0938 12.516 6.2344 25.453 6.2344 38.953 0 13.453-3.1875 26.438-6.2344 38.953-2.8594 11.672-5.5781 22.734-5.5781 33.375s2.7188 21.703 5.5781 33.328c3.0938 12.562 6.2344 25.5 6.2344 38.953s-3.1875 26.438-6.2344 38.953c-2.8594 11.672-5.5781 22.734-5.5781 33.328 0 10.641 2.7188 21.703 5.5781 33.375 3.0938 12.516 6.2344 25.5 6.2344 38.953s-3.1875 26.438-6.2344 38.953c-2.8594 11.672-5.5781 22.734-5.5781 33.375s2.7188 21.656 5.5781 33.375c3.0938 12.516 6.2344 25.5 6.2344 38.953 0 6.4688-5.25 11.719-11.719 11.719z" fill-rule="evenodd"/>
 <path d="m903.98 838.13c-6.4688 0-11.719-5.25-11.719-11.719 0-10.641-2.6719-21.656-5.5781-33.375-3.0938-12.516-6.2344-25.5-6.2344-38.953 0-13.5 3.1875-26.438 6.2344-38.953 2.8594-11.672 5.5781-22.734 5.5781-33.375s-2.6719-21.703-5.5781-33.375c-3.0938-12.516-6.2344-25.5-6.2344-38.953s3.1875-26.438 6.2344-38.953c2.8594-11.719 5.5781-22.734 5.5781-33.375s-2.6719-21.703-5.5781-33.375c-3.0938-12.516-6.2344-25.5-6.2344-38.953 0-13.5 3.1875-26.438 6.2344-38.953 2.8594-11.719 5.5781-22.734 5.5781-33.375s-2.6719-21.656-5.5781-33.375c-3.0938-12.516-6.2344-25.453-6.2344-38.953s3.1875-26.438 6.2344-38.953c2.8594-11.672 5.5781-22.734 5.5781-33.375 0-6.4688 5.25-11.719 11.719-11.719 6.5156 0 11.719 5.25 11.719 11.719 0 13.453-3.1875 26.438-6.2344 38.953-2.8594 11.672-5.5781 22.734-5.5781 33.375s2.7188 21.656 5.5781 33.375c3.0938 12.516 6.2344 25.5 6.2344 38.953s-3.1875 26.438-6.2344 38.953c-2.8594 11.672-5.5781 22.734-5.5781 33.375s2.7188 21.703 5.5781 33.328c3.0938 12.562 6.2344 25.5 6.2344 38.953s-3.1875 26.438-6.2344 38.953c-2.8594 11.672-5.5781 22.734-5.5781 33.328 0 10.641 2.7188 21.703 5.5781 33.375 3.0938 12.516 6.2344 25.5 6.2344 38.953s-3.1875 26.438-6.2344 38.953c-2.8594 11.672-5.5781 22.734-5.5781 33.375s2.7188 21.656 5.5781 33.375c3.0938 12.516 6.2344 25.5 6.2344 38.953 0 6.4688-5.2031 11.719-11.719 11.719z" fill-rule="evenodd"/>
</svg>
