<?xml version="1.0" encoding="UTF-8"?>
<svg width="1200pt" height="1200pt" version="1.1" viewBox="0 0 1200 1200" xmlns="http://www.w3.org/2000/svg">
 <path d="m216.05 1046.5h456.14l21.281-10.641c32.812-19.688 51.094-41.953 54.469-66.188 7.5-54.328-39.609-89.719-81.188-120.89-0.79688-0.5625-1.6406-1.3594-2.2969-2.0625-25.734-28.125-35.906-52.547-31.172-74.719 9.375-44.016 72.422-55.922 90.234-69.141-1.2656-3.375-6.8438-12.75-31.266-29.297-0.65625-0.42188-1.2188-0.89062-1.8281-1.4062-21.609-19.969-32.156-40.359-31.312-60.703 0.84375-20.391 18.469-41.344 39.141-61.172-28.078 6.9375-55.969 16.781-65.438 33.797-10.547 18.891-5.25 29.344 1.5 42.516 5.8594 11.484 13.828 27.141 4.0312 45.094-7.2188 13.266-22.406 22.781-46.312 29.156-0.70312 0.1875-1.4531 0.32812-2.1562 0.42188-33 3.8438-52.688 13.453-58.547 28.547-4.5469 11.672-1.875 28.359 7.9219 49.5 16.969 31.922 21.609 60.75 13.734 85.641-7.7344 24.422-27.328 44.766-58.219 60.469-3.5156 1.7344-182.21 57.047-202.97 63.656-36.703 11.719-61.688 30.656-75.75 57.422zm-25.547-197.86 52.172-90.328c5.9062-10.312-1.5-23.203-13.406-23.203h-13.688l46.312-80.203c5.9531-10.312-1.5-23.203-13.406-23.203h-16.594l37.172-64.406 37.172 64.406h-16.594c-11.906 0-19.312 12.891-13.406 23.203l46.312 80.203h-13.734c-11.859 0-19.359 12.891-13.406 23.203l52.125 90.328zm272.29-486.24v-69.375l-40.125-29.25c-6.9375-5.0156-8.4375-14.719-3.4219-21.609 5.0156-6.9375 14.719-8.4375 21.609-3.4219l21.891 15.984 0.046875-51.703c0-8.5781 6.9375-15.469 15.469-15.469s15.469 6.9375 15.469 15.469v108.8l34.688-26.906c6.75-5.25 16.453-3.9844 21.703 2.7656s4.0312 16.453-2.7188 21.703l-53.672 41.672v11.344c11.344 12.516 27.141 19.547 44.203 19.547 32.906 0 59.719-26.812 59.719-59.766 0-20.484-10.312-39.328-27.609-50.391-4.875-3.1406-7.6406-8.7188-7.0781-14.484 1.9219-22.125-10.031-42.844-30.281-51.891-4.9219-2.2031-8.3438-6.7969-9.0469-12.188-2.9062-22.734-22.453-39.844-45.375-39.844-22.969 0-42.469 17.109-45.375 39.844-0.65625 5.3906-4.125 9.9844-9.0469 12.188-20.062 8.9531-32.438 30-30.281 51.891 0.51562 5.7656-2.2031 11.344-7.0781 14.484-17.297 11.062-27.609 29.906-27.609 50.391 0 32.953 26.766 59.766 59.719 59.766 17.016 0 32.859-7.0781 44.203-19.547zm413.72 33.797v-69.375l-40.125-29.203c-6.8906-5.0625-8.4375-14.719-3.4219-21.609 5.0625-6.8906 14.719-8.4375 21.609-3.375l21.891 15.938v-51.703c0-8.5312 6.9375-15.469 15.469-15.469s15.469 6.9375 15.469 15.469v108.84l34.688-26.906c6.75-5.25 16.5-4.0312 21.703 2.7188 5.25 6.75 3.9844 16.5-2.7188 21.75l-53.672 41.672v11.391c11.344 12.469 27.141 19.547 44.203 19.547 32.953 0 59.766-26.812 59.766-59.766 0-20.484-10.359-39.281-27.609-50.391-4.875-3.0938-7.6406-8.7188-7.0781-14.484 2.0625-21.984-10.172-42.938-30.281-51.891-4.9219-2.2031-8.3438-6.7969-9.0469-12.141-2.9062-22.734-22.453-39.844-45.375-39.844-22.969 0-42.469 17.109-45.422 39.844-0.65625 5.3438-4.125 9.9844-9.0469 12.141-20.156 9-32.297 29.859-30.281 51.938 0.51562 5.7656-2.2031 11.344-7.0781 14.484-17.297 11.062-27.609 29.859-27.609 50.391 0 32.953 26.812 59.766 59.766 59.766 17.062-0.1875 32.906-7.2656 44.203-19.734zm14.203 526.74h157.18l-52.172-90.328c-5.9531-10.312 1.5-23.203 13.406-23.203h13.688l-46.312-80.25c-5.9531-10.312 1.5-23.203 13.406-23.203h16.547l-37.172-64.406-37.172 64.406h16.594c11.906 0 19.312 12.938 13.406 23.203l-46.359 80.25h13.734c11.859 0 19.312 12.938 13.406 23.203zm219.98 139.03c0 8.5312-6.9375 15.469-15.469 15.469h-990.47c-8.5312 0-15.469-6.9375-15.469-15.469s6.9375-15.469 15.469-15.469h77.391c12.75-33 36.703-58.266 71.438-75.469v-91.453h-89.859c-11.906 0-19.359-12.891-13.406-23.203l52.172-90.328h-13.734c-11.859 0-19.359-12.891-13.406-23.203l46.359-80.25h-16.547c-11.953 0-19.359-12.938-13.406-23.203l63.984-110.81c5.9531-10.312 20.859-10.266 26.812 0l63.984 110.81c5.9062 10.266-1.5 23.203-13.406 23.203h-16.594l46.312 80.25c5.9531 10.312-1.5469 23.203-13.406 23.203h-13.734l52.172 90.328c5.9531 10.312-1.5 23.203-13.406 23.203h-89.906v79.172l197.34-61.641c22.547-11.672 36.516-25.641 41.578-41.578 5.2969-16.781 1.3594-37.641-11.719-62.156-0.14062-0.23438-0.23438-0.51562-0.375-0.75-13.641-29.25-16.641-54.234-8.8594-74.156 10.266-26.391 38.062-42.516 82.641-47.953 19.641-5.3438 24.75-11.391 26.062-13.781 6.0938-11.156-32.812-38.859-5.3906-87.844 15.844-28.359 53.016-41.203 89.344-49.781-143.63-47.672-368.06-88.734-548.06 29.156-7.125 4.6875-16.734 2.6719-21.422-4.4531-4.6875-7.1719-2.6719-16.781 4.4531-21.469 89.109-58.359 196.5-85.781 319.08-81.562 4.5 0.1875 9.0469 0.42188 13.594 0.65625v-40.031c-59.578 33.281-134.86-9.5625-134.86-79.266 0-28.078 12.75-54.047 34.453-71.203 0.51562-29.109 16.406-55.641 41.344-69.984 8.25-33.891 38.906-58.547 74.531-58.547s66.328 24.609 74.578 58.547c24.938 14.344 40.828 40.922 41.344 69.984 21.75 17.156 34.5 43.125 34.5 71.203 0 69.703-75.328 112.55-134.9 79.266v42.328c82.172 7.8281 170.53 29.203 258.42 62.812 44.344-10.312 85.828-14.297 124.4-12v-59.391c-59.719 33.328-134.9-9.6562-134.9-79.312 0-28.031 12.75-54.047 34.5-71.156 0.51562-29.109 16.359-55.688 41.344-70.031 8.25-33.891 38.906-58.547 74.578-58.547 35.625 0 66.281 24.609 74.531 58.547 24.938 14.344 40.828 40.922 41.344 70.031 21.75 17.109 34.453 43.125 34.453 71.156 0 69.609-75.141 112.59-134.9 79.312v62.719c37.266 5.8125 71.438 18.047 102.33 36.656 13.406 8.0625 7.5938 28.734-8.0156 28.734-2.7188 0-5.4844-0.70312-8.0156-2.2031-62.766-37.875-141.79-45.984-235.03-24.234-4.9219 4.7344-10.734 9.8906-16.875 15.375-17.953 15.984-51.281 45.703-51.891 60.422-0.42187 10.641 6.5156 22.688 20.578 35.953 20.953 14.297 47.625 35.906 43.828 60.375-2.5312 16.547-19.781 24.047-41.578 33.516-20.484 8.9062-45.984 19.969-49.359 35.906-2.3906 11.156 5.4844 27.188 22.781 46.359 43.641 32.719 102.19 77.344 92.297 149.11-3.7031 26.953-19.219 51.281-46.125 72.609h221.34l-0.046875-92.578h-89.906c-11.906 0-19.359-12.891-13.406-23.203l52.172-90.328h-13.734c-11.859 0-19.312-12.938-13.406-23.25l46.312-80.203h-16.547c-11.859 0-19.359-12.891-13.406-23.203l63.984-110.81c5.9062-10.266 20.859-10.312 26.812 0l63.984 110.81c5.9531 10.312-1.5469 23.203-13.406 23.203h-16.547l46.312 80.203c5.9062 10.312-1.5 23.25-13.406 23.25h-13.688l52.125 90.328c5.9531 10.312-1.5469 23.203-13.406 23.203h-89.906v92.578h110.48c8.5781 0.046874 15.469 6.9844 15.469 15.516zm-616.03-78.188c8.5781 0 15.469 6.9375 15.469 15.469s-6.8906 15.469-15.469 15.469h-116.58c-8.5781 0-15.469-6.9375-15.469-15.469s6.9375-15.469 15.469-15.469zm140.53 0c8.5781 0 15.469 6.9375 15.469 15.469s-6.9375 15.469-15.469 15.469h-59.672c-8.5312 0-15.469-6.9375-15.469-15.469s6.9375-15.469 15.469-15.469zm52.172-40.172h-116.58c-8.5312 0-15.469-6.9375-15.469-15.469s6.9375-15.469 15.469-15.469h116.58c8.5312 0 15.469 6.9375 15.469 15.469s-6.9375 15.469-15.469 15.469zm-104.39-94.781c0-8.5781 6.9375-15.469 15.469-15.469h18.094c8.5312 0 15.469 6.8906 15.469 15.469 0 8.5312-6.9375 15.469-15.469 15.469h-18.094c-8.5312 0-15.469-6.9375-15.469-15.469zm-25.406-79.031c0-8.5312 6.9375-15.469 15.469-15.469h20.578c8.5312 0 15.469 6.9375 15.469 15.469s-6.9375 15.469-15.469 15.469h-20.578c-8.5312 0-15.469-6.9375-15.469-15.469z" fill-rule="evenodd"/>
</svg>
