<?xml version="1.0" encoding="UTF-8"?>
<svg width="1200pt" height="1200pt" version="1.1" viewBox="0 0 1200 1200" xmlns="http://www.w3.org/2000/svg">
 <path d="m469.08 1051.9h261.94c48.609 0 88.219-39.609 88.219-88.219v-86.391h57.375c80.766 0 146.39-65.625 146.39-146.39v-232.78c0-80.766-65.625-146.39-146.39-146.39h-57.375v-115.55c0-48.609-39.609-88.219-88.219-88.219h-261.94c-48.609 0-88.219 39.609-88.219 88.219v115.55h-57.375c-80.766 0-146.39 65.625-146.39 146.39v232.78c0 80.766 65.625 146.39 146.39 146.39h57.375v86.391c0 48.609 39.609 88.219 88.219 88.219zm290.06-88.219c0 15.609-12.609 28.219-28.219 28.219h-261.94c-15.609 0-28.219-12.609-28.219-28.219v-290.16h318.37zm-318.28-727.4c0-15.609 12.609-28.219 28.219-28.219h261.94c15.609 0 28.219 12.609 28.219 28.219v115.55h-318.37zm-117.33 581.02c-47.625 0-86.391-38.766-86.391-86.391v-232.78c0-47.625 38.766-86.391 86.391-86.391h552.94c47.625 0 86.391 38.766 86.391 86.391v232.78c0 47.625-38.766 86.391-86.391 86.391h-57.375v-173.76c0-16.547-13.453-30-30-30h-378.37c-16.547 0-30 13.453-30 30v173.76h-57.375z"/>
</svg>
