<?xml version="1.0" encoding="UTF-8"?>
<svg width="1200pt" height="1200pt" version="1.1" viewBox="0 0 1200 1200" xmlns="http://www.w3.org/2000/svg">
 <path d="m600 1162.5c-77.254-0.13281-153.66-16.129-224.48-46.988-70.824-30.863-134.55-75.938-187.25-132.43-3.8906-4.1797-5.6602-9.9062-4.8164-15.551 0.84766-5.6484 4.2227-10.602 9.1641-13.457l221.76-127.99c3.1445-1.8125 6.7461-2.6758 10.371-2.4844 3.625 0.19531 7.1133 1.4336 10.047 3.5742 110.2 72.102 220.4 72.102 330.6 0 2.9336-2.1406 6.4219-3.3789 10.047-3.5742 3.625-0.19141 7.2266 0.67188 10.371 2.4844l221.66 127.99c4.9414 2.8555 8.3164 7.8086 9.1641 13.457 0.84375 5.6445-0.92578 11.371-4.8164 15.551-52.703 56.504-116.45 101.59-187.29 132.45-70.84 30.859-147.26 46.848-224.53 46.969zm-367.76-188.01c98.105 96.457 230.18 150.51 367.76 150.51s269.66-54.051 367.76-150.51l-190.44-109.95c-118.21 72.273-236.42 72.273-354.62 0zm633.5-494.68c-3.4219 0-6.7773-0.9375-9.707-2.707-2.9297-1.7734-5.3164-4.3125-6.9023-7.3438-27.773-52.473-71.352-94.875-124.56-121.2-53.211-26.328-113.36-35.25-171.92-25.496-3.5742 0.60547-7.2461 0.16406-10.574-1.2734s-6.168-3.8086-8.1758-6.8281l-142.03-213.17c-3.1602-4.7539-3.9844-10.688-2.2344-16.121 1.7461-5.4336 5.875-9.7773 11.215-11.797 300-113.61 646.88 58.406 738.19 365.62 1.6289 5.4727 0.67188 11.391-2.5938 16.07-3.2656 4.6836-8.4883 7.625-14.188 7.9844 0 0-256.12 16.258-256.52 16.258zm10.707-38.23 219.38-14.023v-0.003906c-46.52-128.98-141.11-234.99-263.99-295.84-122.88-60.852-264.52-71.832-395.31-30.652l121.88 183.17c62.707-8.9766 126.66 1.2539 183.44 29.344 56.777 28.094 103.71 72.73 134.61 128.03zm-737.55 480.43c-60.504-86.578-95.402-188.45-100.7-293.94-5.2969-105.49 19.227-210.34 70.754-302.55 51.531-92.203 127.99-168.03 220.61-218.8 4.1133-2.2656 8.9297-2.8984 13.492-1.7812 4.5625 1.1172 8.5391 3.9062 11.145 7.8164l136.16 204.49c3.0352 4.5625 3.9219 10.223 2.4297 15.492-1.4922 5.2734-5.2148 9.625-10.191 11.922-51.484 24.496-94.402 63.922-123.18 113.14-28.773 49.223-42.07 105.96-38.16 162.84 3.9102 56.883 24.848 111.27 60.086 156.09 3.4844 4.2656 4.918 9.8477 3.918 15.266-1 5.4141-4.332 10.117-9.1094 12.859l-212.52 122.64c-4.082 2.2656-8.8555 2.9609-13.414 1.9492-4.5625-1.0117-8.5938-3.6602-11.336-7.4453zm193.8-773.89c-81.504 48.203-148.45 117.56-193.75 200.72-45.297 83.156-67.25 177.02-63.539 271.64 3.7109 94.617 32.949 186.47 84.617 265.83l179.06-103.39c-33.68-49.332-52.977-107.05-55.738-166.72-2.7656-59.664 11.117-118.92 40.09-171.15 28.977-52.23 71.902-95.379 123.98-124.62zm703.65 779.38-212.53-122.72c-4.7812-2.7422-8.1094-7.4453-9.1094-12.863-1.0039-5.4141 0.42969-10.996 3.9141-15.262 26.523-32.988 45.293-71.512 54.934-112.73 9.6367-41.215 9.8945-84.066 0.75391-125.39-1.1953-5.3516 0.011719-10.953 3.3008-15.34 3.2852-4.3867 8.3281-7.1094 13.801-7.4609l245.08-15.656h-0.003906c4.6914-0.30078 9.3242 1.168 12.98 4.1211s6.0703 7.168 6.7656 11.816c4.1602 27.801 6.2539 55.871 6.2617 83.98 0.19922 115.22-35.219 227.69-101.4 322.01-2.7305 3.7969-6.7656 6.457-11.328 7.4688-4.5664 1.0117-9.3438 0.3125-13.422-1.9727zm-175.45-144.6 179.06 103.39c66.426-103.01 95.195-225.82 81.43-347.62l-206.46 13.125h0.003906c12.281 81.113-7.0586 163.85-54.02 231.11z"/>
</svg>
