<?xml version="1.0" encoding="UTF-8"?>
<svg width="1200pt" height="1200pt" version="1.1" viewBox="0 0 1200 1200" xmlns="http://www.w3.org/2000/svg">
 <path d="m1160 965.72c15.188 0 27.562 12.328 27.562 27.562 0 15.188-12.328 27.562-27.562 27.562h-1119.8c-15.188 0-27.562-12.328-27.562-27.562v-717.42c0-15.234 12.328-27.562 27.562-27.562 15.188 0 27.562 12.328 27.562 27.562v689.86h100.92v-453.37c0-15.188 12.328-27.562 27.562-27.562h117.8v-162.71c0-15.188 12.328-27.562 27.562-27.562h117.8v-87.891c0-15.188 12.328-27.562 27.562-27.562h145.31c15.188 0 27.562 12.328 27.562 27.562v235.31h117.8c15.188 0 27.562 12.328 27.562 27.562v160.55h90.234v-423.42c0-15.188 12.328-27.562 27.562-27.562h145.31c15.188 0 27.562 12.328 27.562 27.562v759h64.359zm-936.42 0h90.234v-425.81h-90.234zm145.31 0h90.234v-616.03h-90.234v616.08zm145.31 0h90.234v-731.44h-90.234v731.48zm145.31 0h90.234v-468.56h-90.234zm145.31 0h90.234v-280.5h-90.234zm145.31 0h90.234v-731.44h-90.234z"/>
</svg>
