<?xml version="1.0" encoding="UTF-8"?>
<svg width="1200pt" height="1200pt" version="1.1" viewBox="0 0 1200 1200" xmlns="http://www.w3.org/2000/svg">
 <path d="m70.668 600c0 19.516-15.82 35.332-35.336 35.332-19.512 0-35.332-15.816-35.332-35.332s15.82-35.332 35.332-35.332c19.516 0 35.336 15.816 35.336 35.332"/>
 <path d="m211.67 600c0 19.516-15.82 35.332-35.336 35.332-19.512 0-35.332-15.816-35.332-35.332s15.82-35.332 35.332-35.332c19.516 0 35.336 15.816 35.336 35.332"/>
 <path d="m353 600c0 19.516-15.82 35.332-35.332 35.332-19.516 0-35.336-15.816-35.336-35.332s15.82-35.332 35.336-35.332c19.512 0 35.332 15.816 35.332 35.332"/>
 <path d="m494 600c0 19.516-15.82 35.332-35.332 35.332-19.516 0-35.336-15.816-35.336-35.332s15.82-35.332 35.336-35.332c19.512 0 35.332 15.816 35.332 35.332"/>
 <path d="m635.33 600c0 19.516-15.816 35.332-35.332 35.332s-35.332-15.816-35.332-35.332 15.816-35.332 35.332-35.332 35.332 15.816 35.332 35.332"/>
 <path d="m776.67 600c0 19.516-15.82 35.332-35.336 35.332-19.512 0-35.332-15.816-35.332-35.332s15.82-35.332 35.332-35.332c19.516 0 35.336 15.816 35.336 35.332"/>
 <path d="m917.67 600c0 19.516-15.82 35.332-35.336 35.332-19.512 0-35.332-15.816-35.332-35.332s15.82-35.332 35.332-35.332c19.516 0 35.336 15.816 35.336 35.332"/>
 <path d="m1059 600c0 19.516-15.82 35.332-35.332 35.332-19.516 0-35.336-15.816-35.336-35.332s15.82-35.332 35.336-35.332c19.512 0 35.332 15.816 35.332 35.332"/>
 <path d="m1200 600c0 19.516-15.82 35.332-35.332 35.332-19.516 0-35.336-15.816-35.336-35.332s15.82-35.332 35.336-35.332c19.512 0 35.332 15.816 35.332 35.332"/>
</svg>
