<?xml version="1.0" encoding="UTF-8"?>
<svg width="1200pt" height="1200pt" version="1.1" viewBox="0 0 1200 1200" xmlns="http://www.w3.org/2000/svg">
 <path d="m600 621c-11.578 0-21-9.4219-21-21s9.4219-21 21-21 21 9.4219 21 21-9.4219 21-21 21zm0-36c-8.2695 0-15 6.7305-15 15s6.7305 15 15 15 15-6.7305 15-15-6.7305-15-15-15z"/>
 <path d="m600 657c-31.43 0-57-25.57-57-57s25.57-57 57-57 57 25.57 57 57-25.57 57-57 57zm0-108c-28.117 0-51 22.883-51 51 0 28.129 22.883 51 51 51 28.129 0 51-22.871 51-51 0-28.117-22.871-51-51-51z"/>
 <path d="m600 693c-51.277 0-93-41.723-93-93s41.723-93 93-93 93 41.723 93 93-41.723 93-93 93zm0-180c-47.977 0-87 39.023-87 87s39.023 87 87 87 87-39.023 87-87-39.023-87-87-87z"/>
 <path d="m600 729c-71.137 0-129-57.863-129-129s57.863-129 129-129 129 57.863 129 129-57.863 129-129 129zm0-252c-67.824 0-123 55.176-123 123s55.176 123 123 123 123-55.176 123-123-55.176-123-123-123z"/>
 <path d="m600 765c-90.984 0-165-74.016-165-165s74.016-165 165-165 165 74.016 165 165-74.016 165-165 165zm0-324c-87.672 0-159 71.328-159 159s71.328 159 159 159 159-71.328 159-159-71.328-159-159-159z"/>
 <path d="m600 801c-110.83 0-201-90.168-201-201s90.168-201 201-201 201 90.168 201 201-90.168 201-201 201zm0-396c-107.52 0-195 87.48-195 195s87.48 195 195 195 195-87.48 195-195-87.48-195-195-195z"/>
 <path d="m600 837c-130.68 0-237-106.31-237-237 0-130.68 106.32-237 237-237 130.69 0 237 106.32 237 237 0 130.69-106.31 237-237 237zm0-468c-127.37 0-231 103.63-231 231s103.63 231 231 231 231-103.63 231-231-103.63-231-231-231z"/>
 <path d="m600 873c-150.53 0-273-122.47-273-273s122.47-273 273-273 273 122.47 273 273-122.47 273-273 273zm0-540c-147.23 0-267 119.77-267 267s119.77 267 267 267 267-119.77 267-267-119.77-267-267-267z"/>
 <path d="m600 909c-170.39 0-309-138.62-309-309 0-170.39 138.61-309 309-309 170.38 0 309 138.61 309 309 0 170.38-138.62 309-309 309zm0-612c-167.07 0-303 135.93-303 303s135.93 303 303 303 303-135.93 303-303-135.93-303-303-303z"/>
 <path d="m600 945c-190.23 0-345-154.77-345-345s154.77-345 345-345 345 154.77 345 345-154.77 345-345 345zm0-684c-186.93 0-339 152.07-339 339s152.07 339 339 339 339-152.07 339-339-152.07-339-339-339z"/>
 <path d="m600 981c-210.09 0-381-170.91-381-381s170.91-381 381-381 381 170.91 381 381-170.91 381-381 381zm0-756c-206.77 0-375 168.23-375 375s168.23 375 375 375 375-168.23 375-375-168.23-375-375-375z"/>
 <path d="m600 1017c-229.93 0-417-187.07-417-417s187.07-417 417-417 417 187.07 417 417-187.07 417-417 417zm0-828c-226.63 0-411 184.37-411 411s184.37 411 411 411 411-184.37 411-411-184.37-411-411-411z"/>
 <path d="m600 1053c-249.78 0-453-203.22-453-453s203.22-453 453-453 453 203.22 453 453-203.22 453-453 453zm0-900c-246.48 0-447 200.52-447 447s200.52 447 447 447 447-200.52 447-447-200.52-447-447-447z"/>
 <path d="m600 1089c-269.64 0-489-219.36-489-489s219.36-489 489-489 489 219.36 489 489-219.36 489-489 489zm0-972c-266.33 0-483 216.67-483 483s216.67 483 483 483 483-216.67 483-483-216.67-483-483-483z"/>
 <path d="m600 1125c-289.49 0-525-235.51-525-525s235.51-525 525-525 525 235.51 525 525-235.51 525-525 525zm0-1044c-286.18 0-519 232.82-519 519s232.82 519 519 519 519-232.82 519-519-232.82-519-519-519z"/>
</svg>
