<?xml version="1.0" encoding="UTF-8"?>
<svg width="1200pt" height="1200pt" version="1.1" viewBox="0 0 1200 1200" xmlns="http://www.w3.org/2000/svg">
 <path d="m1162.5 935.72v59.953c0 20.531-9.8906 39.047-25.875 52.359-15.281 12.703-36.141 20.625-58.922 20.625h-955.4c-22.781 0-43.641-7.9219-58.922-20.625-15.984-13.266-25.875-31.828-25.875-52.312v-791.44c0-20.531 9.8906-39.047 25.875-52.359 15.281-12.703 36.141-20.625 58.922-20.625h955.4c22.781 0 43.641 7.9219 58.922 20.625 15.984 13.312 25.875 31.875 25.875 52.359zm-209.29-727.26c-15.141 0-27.422 12.281-27.422 27.422 0 15.141 12.281 27.422 27.422 27.422s27.422-12.281 27.422-27.422c0-15.141-12.281-27.422-27.422-27.422zm-42.703 508.87c-13.266 0-25.266 5.3906-33.984 14.109s-14.109 20.766-14.109 33.984v148.82c0 13.266 5.3906 25.266 14.109 33.984s20.766 14.109 33.984 14.109h62.953c13.266 0 25.266-5.3906 33.984-14.109s14.109-20.766 14.109-33.984l0.046875-148.78c0-13.266-5.3906-25.266-14.109-33.984s-20.766-14.109-33.984-14.109zm62.953 27.562h-62.953c-5.625 0-10.781 2.2969-14.531 6.0469s-6.0469 8.8594-6.0469 14.531v148.82c0 5.6719 2.2969 10.781 6.0469 14.531s8.8594 6.0469 14.531 6.0469h62.953c5.625 0 10.781-2.2969 14.531-6.0469s6.0469-8.8594 6.0469-14.531v-148.82c0-5.625-2.2969-10.781-6.0469-14.531-3.75-3.7031-8.8594-6.0469-14.531-6.0469zm-242.48 33.797h28.594l-0.046875 156.19h-21.047c-7.5938 0-13.781 6.1406-13.781 13.781 0 7.5938 6.1875 13.781 13.781 13.781h69.656c7.5938 0 13.781-6.1875 13.781-13.781s-6.1406-13.781-13.781-13.781h-21.047v-203.76c0-7.5938-6.1406-13.781-13.781-13.781-7.5938 0-13.781 6.1406-13.781 13.781v20.016h-28.594c-7.5938 0-13.781 6.1875-13.781 13.781 0.046875 7.6406 6.1875 13.781 13.828 13.781zm-165.32-61.359c-13.266 0-25.266 5.3906-33.984 14.109s-14.109 20.766-14.109 33.984v148.82c0 13.266 5.3906 25.266 14.109 33.984s20.766 14.109 33.984 14.109h62.953c13.266 0 25.266-5.3906 33.984-14.109s14.109-20.766 14.109-33.984l0.046876-148.78c0-13.266-5.3906-25.266-14.109-33.984s-20.766-14.109-33.984-14.109zm62.953 27.562h-62.953c-5.625 0-10.781 2.2969-14.531 6.0469s-6.0469 8.8594-6.0469 14.531v148.82c0 5.6719 2.3438 10.781 6.0469 14.531 3.75 3.75 8.8594 6.0469 14.531 6.0469h62.953c5.625 0 10.781-2.2969 14.531-6.0469s6.0469-8.8594 6.0469-14.531v-148.82c0-5.625-2.2969-10.781-6.0469-14.531-3.75-3.7031-8.9062-6.0469-14.531-6.0469zm-262.64-27.562c-13.266 0-25.266 5.3906-33.984 14.109s-14.109 20.766-14.109 33.984v148.82c0 13.266 5.3906 25.266 14.109 33.984s20.766 14.109 33.984 14.109h62.953c13.266 0 25.266-5.3906 33.984-14.109s14.109-20.766 14.109-33.984l0.046875-148.78c0-13.266-5.3906-25.266-14.109-33.984s-20.766-14.109-33.984-14.109zm62.953 27.562h-62.953c-5.625 0-10.781 2.2969-14.531 6.0469s-6.0469 8.8594-6.0469 14.531v148.82c0 5.6719 2.3438 10.781 6.0469 14.531 3.75 3.75 8.8594 6.0469 14.531 6.0469h62.953c5.6719 0 10.781-2.2969 14.531-6.0469s6.0469-8.8594 6.0469-14.531v-148.82c0-5.625-2.2969-10.781-6.0469-14.531-3.75-3.7031-8.9062-6.0469-14.531-6.0469zm-242.53 33.797h28.594v156.19h-21.047c-7.5938 0-13.781 6.1406-13.781 13.781 0 7.5938 6.1406 13.781 13.781 13.781h69.656c7.5938 0 13.781-6.1875 13.781-13.781s-6.1406-13.781-13.781-13.781h-21.047v-203.76c0-7.5938-6.1406-13.781-13.781-13.781-7.5938 0-13.781 6.1406-13.781 13.781v20.016h-28.594c-7.5938 0-13.781 6.1875-13.781 13.781 0 7.6406 6.1875 13.781 13.781 13.781zm769.03-298.08h28.594v156.19h-21.047c-7.5938 0-13.781 6.1406-13.781 13.781 0 7.5938 6.1406 13.781 13.781 13.781h69.656c7.5938 0 13.781-6.1406 13.781-13.781 0-7.5938-6.1406-13.781-13.781-13.781h-21.047v-203.76c0-7.5938-6.1406-13.781-13.781-13.781-7.5938 0-13.781 6.1406-13.781 13.781v20.016h-28.594c-7.5938 0-13.781 6.1406-13.781 13.781s6.1875 13.781 13.781 13.781zm-135.79 0h28.594v156.19h-21.047c-7.5938 0-13.781 6.1406-13.781 13.781 0 7.5938 6.1406 13.781 13.781 13.781h69.656c7.5938 0 13.781-6.1406 13.781-13.781 0-7.5938-6.1406-13.781-13.781-13.781h-21.047l-0.046876-169.97v-33.797c0-7.5938-6.1406-13.781-13.781-13.781-7.5938 0-13.781 6.1406-13.781 13.781v20.016h-28.594c-7.5938 0-13.781 6.1406-13.781 13.781 0.046876 7.6406 6.1875 13.781 13.828 13.781zm-155.95-61.359c-13.266 0-25.266 5.3906-33.984 14.109s-14.109 20.766-14.109 33.984v148.82c0 13.266 5.3906 25.266 14.109 33.984s20.766 14.109 33.984 14.109h62.953c13.266 0 25.266-5.3906 33.984-14.109s14.109-20.766 14.109-33.984l0.046874-148.78c0-13.266-5.3906-25.266-14.109-33.984s-20.766-14.109-33.984-14.109zm62.953 27.562h-62.953c-5.625 0-10.781 2.2969-14.531 6.0469s-6.0469 8.8594-6.0469 14.531v148.82c0 5.6719 2.2969 10.781 6.0469 14.531s8.8594 6.0469 14.531 6.0469h62.953c5.625 0 10.781-2.2969 14.531-6.0469s6.0469-8.8594 6.0469-14.531v-148.82c0-5.625-2.2969-10.781-6.0469-14.531-3.75-3.7031-8.8594-6.0469-14.531-6.0469zm-233.11 33.797h28.594v156.19h-21.047c-7.5938 0-13.781 6.1406-13.781 13.781 0 7.5938 6.1406 13.781 13.781 13.781h69.656c7.5938 0 13.781-6.1406 13.781-13.781 0-7.5938-6.1406-13.781-13.781-13.781h-21.047v-203.76c0-7.5938-6.1406-13.781-13.781-13.781-7.5938 0-13.781 6.1406-13.781 13.781v20.016h-28.594c-7.5938 0-13.781 6.1406-13.781 13.781s6.1875 13.781 13.781 13.781zm-135.79 0h28.594v156.19h-21.047c-7.5938 0-13.781 6.1406-13.781 13.781 0 7.5938 6.1875 13.781 13.781 13.781h69.656c7.5938 0 13.781-6.1406 13.781-13.781 0-7.5938-6.1406-13.781-13.781-13.781h-21.047v-203.76c0-7.5938-6.1406-13.781-13.781-13.781-7.5938 0-13.781 6.1406-13.781 13.781v20.016h-28.594c-7.5938 0-13.781 6.1406-13.781 13.781s6.1875 13.781 13.781 13.781zm-155.95-61.359c-13.266 0-25.266 5.3906-33.984 14.109s-14.109 20.766-14.109 33.984v148.82c0 13.266 5.3906 25.266 14.109 33.984s20.766 14.109 33.984 14.109h62.953c13.266 0 25.266-5.3906 33.984-14.109s14.109-20.766 14.109-33.984l0.046874-148.78c0-13.266-5.3906-25.266-14.109-33.984s-20.766-14.109-33.984-14.109zm62.953 27.562h-62.953c-5.6719 0-10.781 2.2969-14.531 6.0469s-6.0469 8.8594-6.0469 14.531v148.82c0 5.6719 2.2969 10.781 6.0469 14.531s8.8594 6.0469 14.531 6.0469h62.953c5.6719 0 10.781-2.2969 14.531-6.0469s6.0469-8.8594 6.0469-14.531v-148.82c0-5.625-2.2969-10.781-6.0469-14.531-3.75-3.7031-8.8594-6.0469-14.531-6.0469zm32.766-197.16h64.547c7.5938 0 13.781-6.1875 13.781-13.781s-6.1875-13.781-13.781-13.781h-64.547c-7.5938 0-13.781 6.1406-13.781 13.781 0 7.5938 6.1875 13.781 13.781 13.781zm-136.13 0h64.547c7.5938 0 13.781-6.1875 13.781-13.781s-6.1406-13.781-13.781-13.781h-64.547c-7.5938 0-13.781 6.1406-13.781 13.781 0 7.5938 6.1406 13.781 13.781 13.781zm-96.281 61.312h1069.9v-106.64c0-12.047-6.0938-23.109-15.844-31.266-10.5-8.7188-25.125-14.156-41.391-14.156l-955.4-0.046875c-16.266 0-30.891 5.4375-41.391 14.156-9.7969 8.1562-15.844 19.219-15.844 31.266zm1069.9 27.516h-1069.9v657.19c0 12.047 6.0938 23.109 15.844 31.266 10.5 8.7188 25.125 14.156 41.391 14.156h955.4c16.266 0 30.891-5.4375 41.391-14.156 9.7969-8.1562 15.844-19.219 15.844-31.266z" fill-rule="evenodd"/>
</svg>
