<?xml version="1.0" encoding="UTF-8"?>
<svg width="1200pt" height="1200pt" version="1.1" viewBox="0 0 1200 1200" xmlns="http://www.w3.org/2000/svg">
 <g>
  <path d="m1029.8 390.84c-0.23438-2.7656-1.7812-5.8125-4.2656-7.0781l-210.05-134.48v-99.188c0-4.2656-2.8594-7.9688-6.9375-9.0469 0 0-417.66-112.12-419.68-112.64-5.8125-1.5469-11.812 3.0938-11.812 9.0469v100.69s-204.52 226.82-204.52 226.82c-1.3594 1.5-2.4375 4.2656-2.4375 6.2812v619.74c0 36.656 24.797 68.766 60.281 78l375.24 98.578c10.969 2.9062 22.219 4.3125 33.469 4.3125 11.297 0 22.594-1.4531 33.609-4.3594l296.76-78.188c35.484-9.2344 60.328-41.297 60.328-78l0.046876-619.64c0-0.28125 0-0.5625-0.046876-0.84375zm-221.21-123.71 188.76 120.84-335.72 87.281 146.95-208.08zm-412.78-217.45 400.92 107.62v84.891l-400.92-107.62zm234 1103.1c-6.5156-0.5625-13.031-1.6875-19.406-3.3281l-375.24-98.578c-27.234-7.0781-46.312-31.688-46.312-59.859v-27.516l440.95 119.3zm0-89.391-440.95-119.3v-560.68l440.95 114.61zm5.4844-583.31-438.47-114 192.71-213.74 401.16 107.67zm375.79 531.32c0 28.125-19.031 52.734-46.312 59.859l-296.81 78.188c-6.375 1.6875-12.891 2.7656-19.406 3.3281v-69.984l362.53-98.062zm0-46.078-362.53 98.062v-565.31l362.53-94.219v561.52z"/>
  <path d="m495.56 262.87c-23.625-5.7188-46.734-8.1562-64.875-6.75-27.328 2.0625-35.344 11.953-37.266 19.922l-11.156 46.031c-2.0625 8.5312 0.23438 21.938 23.109 37.219 8.7656 5.8594 19.594 11.156 31.547 15.797 0.14062 0.046875 0.23438 0.14062 0.375 0.1875h0.14062c8.9062 3.4219 18.328 6.4688 28.312 8.9062 0.14062 0.046875 0.23438 0.14062 0.42188 0.1875 0.42188 0.09375 0.79688 0.09375 1.2188 0.14062 9.4688 2.25 18.938 3.7969 28.266 4.8281 0.14062 0.046875 0.23438 0.14062 0.32812 0.14062 0.65625 0.1875 1.3594 0.23438 2.0156 0.23438 0.23438 0 0.375-0.1875 0.5625-0.1875 6.0938 0.60938 12.234 1.2188 17.953 1.2188 27.047 0 48.656-6.8906 52.641-23.297l11.156-46.031v-0.046875c5.9531-24.609-39.75-47.578-84.75-58.547zm-89.203 75.844c-6-5.4844-8.3438-10.078-7.7344-12.703l6-24.656c2.4844 2.25 5.5781 4.5938 9.0938 6.9844zm27.047 16.594c-4.3594-1.9688-8.3906-4.0312-12.188-6.2344l7.7344-31.922c3.8906 1.9219 8.0625 3.75 12.375 5.5312zm28.594 10.266c-4.3594-1.2188-8.625-2.5312-12.75-3.9844l8.0156-33.047c4.125 1.3594 8.4375 2.625 12.75 3.7969l-8.0625 33.234zm29.531 6.3281c-4.1719-0.60938-8.5781-1.4531-13.125-2.3438l8.1094-33.375c4.3594 0.9375 8.7188 1.7812 13.125 2.4844l-8.0625 33.281zm30.703 1.6875c-4.1719 0.23438-8.7188 0.1875-13.688-0.046875l7.9688-32.953c4.5469 0.375 9.1406 0.89062 13.5 0.98438zm30.469-10.125c-0.65625 2.7656-5.1094 5.5781-12.516 7.5938l7.3125-30.141c3.9844-0.46875 7.7344-1.125 11.156-2.0625zm-70.594-45.281c-21.938-5.3438-41.766-13.078-55.875-21.75-13.406-8.25-16.875-14.625-16.406-16.453 0.42188-1.7812 6.4219-5.8594 22.125-7.0312 3-0.23438 6.0938-0.32812 9.375-0.32812 14.812 0 32.297 2.2969 50.25 6.6562 50.016 12.141 73.688 32.531 72.328 38.156-1.4062 5.6719-31.734 12.891-81.75 0.75z"/>
 </g>
</svg>
