<?xml version="1.0" encoding="UTF-8"?>
<svg width="1200pt" height="1200pt" version="1.1" viewBox="0 0 1200 1200" xmlns="http://www.w3.org/2000/svg">
 <path d="m1056.9 195.56c-79.781-1.5-80.766 52.688-152.44 54.75-71.719-2.0625-72.562-56.25-152.44-54.75-79.781-1.5469-80.531 52.641-152.26 54.75-71.672-2.0156-72.422-56.25-152.26-54.75-79.781-1.5-80.578 52.734-152.26 54.75-64.172-0.60938-69.375-46.875-133.5-53.812v-102.75c-0.1875-10.219-8.5312-18.422-18.75-18.422s-18.562 8.2031-18.75 18.422v1012.5c0.046876 10.359 8.3906 18.703 18.75 18.75h913.87c10.359-0.046875 18.703-8.3906 18.75-18.75v-891.94c-0.046875-10.359-8.3906-18.703-18.75-18.75zm-662.63 248.44c-0.046875 10.359-8.3906 18.703-18.75 18.75h-87.188c-10.359 0-18.75-8.3906-18.75-18.75s8.3906-18.75 18.75-18.75h87.188c10.359 0.046875 18.703 8.3906 18.75 18.75zm-105.94 369.37c-10.266-0.14062-18.469-8.4844-18.469-18.75s8.2031-18.609 18.469-18.75h87.188c10.266 0.14062 18.469 8.4844 18.469 18.75s-8.2031 18.609-18.469 18.75zm62.438 71.062c-0.046875 10.359-8.3906 18.703-18.75 18.75h-37.875c-10.359 0-18.75-8.3906-18.75-18.75s8.3906-18.75 18.75-18.75h37.875c4.9688 0 9.75 1.9688 13.266 5.4844s5.4844 8.2969 5.4844 13.266zm-75.375-182.81c0.046875-10.359 8.3906-18.703 18.75-18.75h37.875c10.359 0 18.75 8.3906 18.75 18.75s-8.3906 18.75-18.75 18.75h-37.875c-10.359-0.046875-18.703-8.3906-18.75-18.75zm100.12-63.562h-87.188c-10.266-0.14062-18.469-8.4844-18.469-18.75s8.2031-18.609 18.469-18.75h87.188c10.266 0.14062 18.469 8.4844 18.469 18.75s-8.2031 18.609-18.469 18.75zm-100.12-102c0.046875-10.359 8.3906-18.703 18.75-18.75h37.875c10.359 0 18.75 8.3906 18.75 18.75s-8.3906 18.75-18.75 18.75h-37.875c-10.359-0.046875-18.703-8.3906-18.75-18.75zm12.938 414.94h87.188c10.266 0.14062 18.469 8.4844 18.469 18.75s-8.2031 18.609-18.469 18.75h-87.188c-10.266-0.14062-18.469-8.4844-18.469-18.75s8.2031-18.609 18.469-18.75zm374.44-420.94 96.375-96.562c3.4688-5.1562 9.3281-8.25 15.562-8.25 3.5625 1.3594 12.047 2.625 14.062 6.375l98.062 98.438c7.0312 7.4062 6.8906 19.078-0.375 26.25-7.2188 7.2188-18.891 7.2656-26.25 0.1875l-66.75-66.938c0.1875 116.25 0.23438 292.36 0 410.06l66.938-67.125c7.3594-7.0312 18.984-6.9375 26.203 0.23438s7.4062 18.797 0.42188 26.203l-98.812 99.188c-3.75 3.6094-8.7656 5.5312-13.969 5.3438-5.2031-0.14062-10.125-2.4375-13.594-6.2812l-97.875-98.25c-6.9844-7.4062-6.7969-19.031 0.42188-26.203s18.844-7.2656 26.203-0.23438l66.562 66.938c0.23438-117.94 0.1875-293.68 0-410.06l-66.75 67.125c-7.3594 7.0312-18.984 6.8906-26.156-0.28125s-7.3125-18.797-0.28125-26.156z"/>
</svg>
