<?xml version="1.0" encoding="UTF-8"?>
<svg width="1200pt" height="1200pt" version="1.1" viewBox="0 0 1200 1200" xmlns="http://www.w3.org/2000/svg">
 <path d="m1050 75h-900c-20.625 0-37.5 16.875-37.5 37.5v712.5c0 20.625 16.875 37.5 37.5 37.5h316.13l-42.938 150h353.63l-42.938-150h316.13c20.625 0 37.5-16.875 37.5-37.5v-712.5c0-20.625-16.875-37.5-37.5-37.5zm-37.5 712.5h-825v-637.5h825z"/>
 <path d="m300.19 252.37v1.5l6.75 52.688c1.125 9.375 9.375 16.312 18.562 16.312h2.4375c10.312-1.3125 17.625-10.688 16.312-21l-0.9375-7.6875 490.69 379.13-7.5 0.9375c-10.312 1.3125-17.625 10.688-16.312 21 1.125 9.5625 9.1875 16.5 18.562 16.5h2.25l52.688-6.5625c1.3125 0 2.4375-0.75 3.5625-1.125 0.9375-0.375 1.875-0.375 2.8125-0.9375 2.4375-1.3125 4.5-2.8125 6.1875-5.0625 0.375-0.375 0.375-0.9375 0.5625-1.3125 1.125-1.6875 2.0625-3.375 2.625-5.25 0.5625-2.0625 0.5625-4.125 0.375-6.1875v-1.125l-6.5625-52.5c-1.3125-10.312-10.688-17.625-21-16.312s-17.625 10.688-16.312 21l0.9375 7.875-490.87-379.87 7.6875-0.9375c10.312-1.3125 17.625-10.688 16.312-21s-10.688-17.438-21-16.312l-52.688 6.75c-1.3125 0-2.625 0.75-3.75 1.3125-0.9375 0.375-2.0625 0.5625-3 0.9375-2.0625 1.125-4.125 2.8125-5.625 4.875s-2.625 4.3125-3.1875 6.5625c-0.5625 1.875-0.5625 3.75-0.375 5.8125z"/>
 <path d="m356.26 1050h487.5c10.359 0 18.75 10.359 18.75 18.75v37.5c0 10.359-8.3906 18.75-18.75 18.75h-487.5c-10.359 0-18.75-10.359-18.75-18.75v-37.5c0-10.359 8.3906-18.75 18.75-18.75z"/>
</svg>
