<?xml version="1.0" encoding="UTF-8"?>
<svg width="1200pt" height="1200pt" version="1.1" viewBox="0 0 1200 1200" xmlns="http://www.w3.org/2000/svg">
 <path d="m984 414h-196.8v-196.8c0-103.2-84-186-186-186-103.2 0-186 84-186 186v196.8h-199.2c-103.2 0-186 84-186 186 0 49.199 19.199 96 54 132s81.602 54 132 54h196.8v196.8c0 49.199 19.199 96 54 132 34.801 34.801 81.602 54 132 54 103.2 0 186-84 186-186v-196.8h199.2c103.2 0 186-84 186-186 0-103.2-84-186-186-186zm0 258h-254.4c-31.199 0-57.602 25.199-57.602 57.602v254.4c0 39.602-32.398 72-72 72-19.199 0-37.199-7.1992-50.398-21.602-13.203-13.199-21.602-31.199-21.602-50.398v-254.4c0-15.602-6-30-16.801-40.801s-25.199-16.801-40.801-16.801h-254.4c-19.199 0-37.199-7.1992-50.398-21.602-13.199-13.199-20.398-31.199-20.398-50.398 0-39.602 32.398-72 72-72h254.4c31.199 0 57.602-25.199 57.602-57.602l-0.003906-254.4c0-39.602 32.398-72 72-72 39.602 0 72 32.398 72 72v254.4c0 31.199 25.199 57.602 57.602 57.602h253.2c39.602 0 72 32.398 72 72-1.1992 39.602-32.398 72-72 72z"/>
</svg>
