<?xml version="1.0" encoding="UTF-8"?>
<svg width="1200pt" height="1200pt" version="1.1" viewBox="0 0 1200 1200" xmlns="http://www.w3.org/2000/svg">
 <path d="m367.55 1079.5h464.86v-261.71h-464.86zm473.16-574.64h106.83v96h-106.83zm-569.16 408.19h-58.266c-30.797 0-58.922-12.656-79.312-33l-0.1875-0.1875c-20.344-20.391-33-48.469-33-79.312v-306.05c0-30.844 12.656-58.922 33-79.312l0.1875-0.1875c20.391-20.344 48.469-33 79.312-33h58.266v-357.71h491.39l33.938 14.062 131.58 131.53v212.06h58.219c30.844 0 58.922 12.656 79.312 33l0.1875 0.1875c20.344 20.391 33 48.469 33 79.312v306.05c0 30.844-12.656 58.922-33 79.312l-0.1875 0.1875c-20.391 20.344-48.469 33-79.312 33h-58.219v262.4h-656.9v-262.4zm656.9-96h58.219c4.5938 0 8.7656-1.8281 11.719-4.7812 2.9531-3 4.7812-7.125 4.7812-11.719v-306.05c0-4.5938-1.8281-8.7656-4.7812-11.719-3-2.9531-7.125-4.7812-11.719-4.7812h-773.39c-4.5938 0-8.7656 1.8281-11.719 4.7812-2.9531 3-4.7812 7.125-4.7812 11.719v306.05c0 4.5938 1.8281 8.7656 4.7812 11.719 3 2.9531 7.125 4.7812 11.719 4.7812h58.266v-95.25h656.9zm-560.9-435h464.86v-172.31l-89.344-89.344h-375.52v261.71z"/>
</svg>
