<?xml version="1.0" encoding="UTF-8"?>
<svg width="1200pt" height="1200pt" version="1.1" viewBox="0 0 1200 1200" xmlns="http://www.w3.org/2000/svg">
 <g>
  <path d="m487.5 750v150c0 22.5 15 37.5 37.5 37.5h150c22.5 0 37.5-15 37.5-37.5v-150c0-22.5-15-37.5-37.5-37.5h-150c-22.5 0-37.5 15-37.5 37.5zm75 37.5h75v75h-75z"/>
  <path d="m1012.5 337.5c-22.5 0-37.5 15-37.5 37.5s-15 37.5-37.5 37.5h-675c-22.5 0-37.5-15-37.5-37.5s-15-37.5-37.5-37.5-37.5 15-37.5 37.5c0 63.75 48.75 112.5 112.5 112.5h300v41.25c-146.25 18.75-262.5 146.25-262.5 296.25 0 165 135 300 300 300s300-135 300-300c0-153.75-116.25-277.5-262.5-296.25v-41.25h300c63.75 0 112.5-48.75 112.5-112.5 0-22.5-15-37.5-37.5-37.5zm-187.5 487.5c0 123.75-101.25 225-225 225s-225-101.25-225-225 101.25-225 225-225 225 101.25 225 225z"/>
  <path d="m600 300h225c22.5 0 37.5-15 37.5-37.5v-150c0-22.5-15-37.5-37.5-37.5h-225c-22.5 0-37.5 15-37.5 37.5v150c0 22.5 15 37.5 37.5 37.5zm37.5-150h150v75h-150z"/>
  <path d="m375 300h112.5c22.5 0 37.5-15 37.5-37.5v-150c0-22.5-15-37.5-37.5-37.5h-112.5c-22.5 0-37.5 15-37.5 37.5v150c0 22.5 15 37.5 37.5 37.5zm37.5-150h37.5v75h-37.5z"/>
  <path d="m300 262.5v-150c0-22.5-15-37.5-37.5-37.5h-150c-22.5 0-37.5 15-37.5 37.5v150c0 22.5 15 37.5 37.5 37.5h150c22.5 0 37.5-15 37.5-37.5zm-75-37.5h-75v-75h75z"/>
  <path d="m1087.5 75h-150c-22.5 0-37.5 15-37.5 37.5v150c0 22.5 15 37.5 37.5 37.5h150c22.5 0 37.5-15 37.5-37.5v-150c0-22.5-15-37.5-37.5-37.5zm-37.5 150h-75v-75h75z"/>
 </g>
</svg>
