<?xml version="1.0" encoding="UTF-8"?>
<svg width="1200pt" height="1200pt" version="1.1" viewBox="0 0 1200 1200" xmlns="http://www.w3.org/2000/svg">
 <path d="m262.23 31.578c42.441 0 80.844 17.18 108.63 44.969 25.895 25.895 42.57 61.012 44.715 100.04 80.211 37.012 159.66 74.273 214.61 118.74 6.5703-10.359 13.895-20.086 21.98-29.18 33.473-37.895 79.453-64.672 132-73.895 0-2.3984-0.125-4.6719-0.125-7.0742 0-42.441 17.18-80.844 44.969-108.63 27.789-27.789 66.191-44.969 108.63-44.969 42.441 0 80.844 17.18 108.63 44.969 27.789 27.789 44.969 66.191 44.969 108.63 0 42.441-17.18 80.844-44.969 108.63-27.789 27.789-66.191 44.969-108.63 44.969-42.441 0-80.844-17.18-108.63-44.969-20.336-20.336-34.863-46.23-41.305-75.156-45.98 8.2109-86.273 31.832-115.58 65.051-8.0859 9.0938-15.285 18.949-21.602 29.43 34.359 33.223 54.695 70.484 52.043 114.57-2.0195 34.738-18.695 72.379-41.051 111.03 3.7891 5.1797 7.957 10.105 12.254 14.777 28.672 31.578 67.199 54.191 111.29 62.777-0.50391-5.4297-0.88281-10.863-0.88281-16.422 0-42.441 17.18-80.844 44.969-108.63 27.789-27.789 66.191-44.969 108.63-44.969s80.844 17.18 108.63 44.969c27.789 27.789 44.969 66.191 44.969 108.63s-17.18 80.844-44.969 108.63c-27.789 27.789-66.191 44.969-108.63 44.969s-80.844-17.18-108.63-44.969c-17.684-17.684-31.199-39.789-38.527-64.422-54.191-7.957-101.81-34.484-136.55-72.883-2.3984-2.6523-4.8008-5.4297-7.1992-8.3359-10.738 17.305-22.23 34.738-33.727 52.043-14.148 21.348-28.293 42.695-40.801 63.535 30.695 40.043 48.883 90.191 48.883 144.12 0 28.926-5.1797 56.715-14.777 82.359 41.18 29.051 90.191 50.652 123.54 65.305 0.50391 0.125 0.88281 0.37891 1.3906 0.63281l54.062 23.746c4.4219-34.484 20.336-65.43 43.707-88.801 27.789-27.789 66.191-44.969 108.63-44.969s80.844 17.18 108.63 44.969c27.789 27.789 44.969 66.191 44.969 108.63s-17.18 80.844-44.969 108.63c-27.789 27.789-66.191 44.969-108.63 44.969s-80.844-17.18-108.63-44.969c-25.895-25.895-42.57-60.883-44.715-99.914l-64.422-28.293c-33.473-14.652-81.727-36-124.29-65.18-9.8516 19.453-22.359 37.391-37.012 53.305-37.77 40.926-89.938 68.715-148.93 75.031-7.3281 24.883-20.844 47.117-38.652 65.051-27.789 27.789-66.191 44.969-108.63 44.969-42.441 0-80.844-17.18-108.63-44.969-27.789-27.789-44.969-66.191-44.969-108.63s17.18-80.844 44.969-108.63c27.789-27.789 66.191-44.969 108.63-44.969 42.441 0 80.844 17.18 108.63 44.969 27.789 27.789 44.969 66.191 44.969 108.63 0 5.4297-0.25391 10.863-0.88281 16.168 49.012-7.1992 92.211-31.074 123.91-65.559 14.02-15.285 25.77-32.465 34.863-51.41-42.57-34.105-74.527-77.43-70.738-131.62 2.2734-31.578 16.801-65.684 36.758-101.05-0.37891-0.37891-0.63281-0.75781-1.0117-1.1367-31.707-34.359-74.906-58.23-123.79-65.559-3.5352 36.504-19.832 69.348-44.336 93.852-27.789 27.789-66.191 44.969-108.63 44.969-42.441 0-80.844-17.18-108.63-44.969-27.789-27.789-44.969-66.191-44.969-108.63 0-42.441 17.18-80.844 44.969-108.63 27.789-27.789 66.191-44.969 108.63-44.969 42.441 0 80.844 17.18 108.63 44.969 25.137 25.137 41.684 58.988 44.59 96.633 54.316 7.1992 102.57 32.59 138.7 69.602 11.621-18.82 24.254-38.02 36.883-57.094 13.516-20.336 26.906-40.801 39.031-60.758-22.105-35.117-34.988-76.547-35.242-120.63-0.25391-35.746 7.832-69.727 22.359-100.17-49.895-41.684-125.3-77.809-202.61-113.56-4.5469 34.359-20.336 65.18-43.707 88.422-27.789 27.789-66.191 44.969-108.63 44.969-42.441 0-80.844-17.18-108.63-44.969-27.789-27.789-44.969-66.191-44.969-108.63s17.18-80.844 44.969-108.63c27.789-27.789 66.191-44.969 108.63-44.969zm295.58 672.51c-15.535 28.801-26.398 56.086-28.168 80.336-2.9062 40.801 20.969 75.285 54.57 103.83 6.6953-20.59 10.359-42.57 10.359-65.305 0-43.957-13.516-84.883-36.758-118.86zm87.539-190.74c17.051-31.199 29.051-60.883 30.695-87.156 1.8945-32.59-12.633-61.516-38.273-88.168-10.738 24.883-16.547 52.293-16.422 80.969 0.25391 33.98 8.8438 66.191 24 94.359zm382.23 411.54c-22.988-22.988-54.695-37.262-89.809-37.262-35.117 0-66.82 14.273-89.809 37.262-22.988 22.988-37.137 54.695-37.137 89.809 0 35.117 14.273 66.82 37.137 89.809 22.863 22.988 54.695 37.262 89.809 37.262 35.117 0 66.82-14.273 89.809-37.262s37.262-54.695 37.262-89.809c0-35.117-14.273-66.82-37.262-89.809zm0-414.69c-22.988-22.988-54.695-37.262-89.809-37.262-35.117 0-66.82 14.273-89.809 37.262-22.988 22.988-37.137 54.695-37.137 89.809 0 35.117 14.273 66.82 37.137 89.809 22.988 22.988 54.695 37.262 89.809 37.262 35.117 0 66.82-14.273 89.809-37.262 22.988-22.988 37.262-54.695 37.262-89.809 0-35.117-14.273-66.82-37.262-89.809zm0-414.82c-22.988-22.988-54.695-37.262-89.809-37.262-35.117 0-66.82 14.273-89.809 37.262-22.988 22.988-37.137 54.695-37.137 89.809 0 35.117 14.273 66.82 37.137 89.809 22.988 22.988 54.695 37.262 89.809 37.262 35.117 0 66.82-14.273 89.809-37.262s37.262-54.695 37.262-89.809c0-35.117-14.273-66.82-37.262-89.809zm-675.54 829.52c-22.988-22.988-54.695-37.262-89.809-37.262-35.117 0-66.82 14.273-89.809 37.262-22.988 22.988-37.262 54.695-37.262 89.809 0 35.117 14.273 66.82 37.262 89.809s54.695 37.262 89.809 37.262c35.117 0 66.82-14.273 89.809-37.262s37.262-54.695 37.262-89.809c0-35.117-14.273-66.82-37.262-89.809zm0-414.69c-22.988-22.988-54.695-37.262-89.809-37.262-35.117 0-66.82 14.273-89.809 37.262-22.988 22.988-37.262 54.695-37.262 89.809 0 35.117 14.273 66.82 37.262 89.809 22.988 22.988 54.695 37.262 89.809 37.262 35.117 0 66.82-14.273 89.809-37.262 22.988-22.988 37.262-54.695 37.262-89.809 0-35.117-14.273-66.82-37.262-89.809zm0-414.82c-22.988-22.988-54.695-37.262-89.809-37.262-35.117 0-66.82 14.273-89.809 37.262-22.988 22.988-37.262 54.695-37.262 89.809 0 35.117 14.273 66.82 37.262 89.809s54.695 37.262 89.809 37.262c35.117 0 66.82-14.273 89.809-37.262s37.262-54.695 37.262-89.809c0-35.117-14.273-66.82-37.262-89.809z" fill-rule="evenodd"/>
</svg>
