<?xml version="1.0" encoding="UTF-8"?>
<svg width="1200pt" height="1200pt" version="1.1" viewBox="0 0 1200 1200" xmlns="http://www.w3.org/2000/svg">
 <g>
  <path d="m134.85 1162.5c3.8828 0 7.7656-0.22656 11.625-0.67578 23.668-3.2578 45.445-14.715 61.535-32.379l539.48-572.18c17.758-18.844 44.008-27.148 69.375-21.957 37.684 7.9375 76.875 4.6211 112.69-9.5273 35.82-14.152 66.691-38.516 88.777-70.066l128.12-183c6.1055-8.7148 8.9414-19.305 8.0078-29.906-0.93359-10.602-5.5742-20.535-13.105-28.051l-3.0195-3.0195c-8.4961-8.4727-20.008-13.234-32.008-13.234s-23.508 4.7617-32.004 13.234l-112.5 112.5c-3.0352 3.0352-7.9531 3.0352-10.988 0-3.0352-3.0312-3.0352-7.9531 0-10.984l112.5-112.5c11.434-11.438 15.898-28.102 11.715-43.723-4.1875-15.621-16.387-27.82-32.008-32.008-15.617-4.1836-32.285 0.28125-43.719 11.715l-112.5 112.5c-1.2148 1.8555-3.2812 2.9727-5.4961 2.9727-2.2148 0-4.2812-1.1172-5.4922-2.9727-1.4609-1.4531-2.2773-3.4297-2.2773-5.4922s0.81641-4.0391 2.2773-5.4922l112.5-112.5c8.4727-8.4961 13.234-20.008 13.234-32.008s-4.7617-23.512-13.234-32.008l-3.0195-3.0195v0.003906c-7.5195-7.5391-17.457-12.184-28.062-13.113-10.605-0.92969-21.199 1.9141-29.914 8.0312l-182.96 128.1c-31.566 22.078-55.949 52.945-70.113 88.762-14.168 35.82-17.5 75.012-9.5742 112.71 5.168 25.367-3.1367 51.602-21.957 69.375l-572.19 539.4c-17.656 16.09-29.102 37.871-32.344 61.535-3.3203 27.645 5.3555 55.387 23.828 76.219 18.477 20.828 44.984 32.754 72.828 32.758zm-59.422-104.64c2.2344-14.902 9.6094-28.551 20.852-38.586l572.18-539.48c28.262-26.719 40.723-66.141 32.941-104.25-6.4453-30.508-3.7773-62.238 7.6719-91.242 11.449-29.004 31.172-54 56.719-71.883l182.96-128.04c3.0898-2.1641 7.2852-1.8008 9.957 0.86328l3.0195 3.0195c3.0273 3.0352 3.0273 7.9492 0 10.984l-112.5 112.5c-8.4766 8.4961-13.234 20.008-13.234 32.008s4.7578 23.512 13.234 32.008c8.6211 8.2305 20.082 12.824 32.004 12.824s23.383-4.5938 32.008-12.824l112.5-112.5c3.0352-3.0352 7.9531-3.0352 10.988 0 3.0312 3.0312 3.0312 7.9531 0 10.984l-112.5 112.5c-11.438 11.438-15.902 28.102-11.715 43.723 4.1836 15.621 16.383 27.82 32.004 32.008 15.621 4.1836 32.289-0.28125 43.723-11.715l112.5-112.5c1.2109-1.8555 3.2773-2.9727 5.4922-2.9727 2.2148 0 4.2812 1.1172 5.4961 2.9727l3.0195 3.0195-0.003906-0.003906c2.668 2.6641 3.0312 6.8594 0.86328 9.9375l-128.1 183h0.003906c-17.883 25.547-42.879 45.27-71.883 56.719-29.004 11.449-60.734 14.117-91.242 7.6719-38.109-7.7383-77.512 4.7148-104.25 32.941l-539.4 572.18c-10.039 11.246-23.695 18.629-38.605 20.867-18.277 2.1875-36.547-4.1406-49.559-17.16-13.016-13.02-19.332-31.293-17.137-49.57z"/>
  <path d="m426.99 366.82c19.188 5.6445 39.105 8.3984 59.102 8.1758 23.898-0.50391 47.719-2.8672 71.25-7.0703 16.27-4.1289 33.184-5.0977 49.82-2.8477 4.5 3.5781 10.398 4.8906 15.992 3.5586 5.5977-1.3281 10.273-5.1523 12.688-10.371s2.2969-11.258-0.3125-16.383c-2.5312-4.9883-62.812-122.7-128.06-152.81-94.742-43.762-196.88-3.6172-201.13-1.875-4.7227 1.9062-8.4727 5.6523-10.379 10.375-1.9062 4.7266-1.8086 10.023 0.27344 14.676 6.0195 13.613 61.332 133.39 130.76 154.57zm64.707-143.7c26.855 16.316 49.625 38.559 66.562 65.023-27.613-13.094-55.945-24.613-84.863-34.5-4.7266-1.7344-9.9531-1.4961-14.5 0.66406-4.5508 2.1562-8.0391 6.0547-9.6836 10.816-1.6445 4.7578-1.3047 9.9805 0.94141 14.484 2.2461 4.5078 6.2109 7.9219 11 9.4727 33.203 11.277 65.547 24.953 96.77 40.914l-6.3945 0.95703c-37.391 8.4453-76.195 8.4453-113.59 0-38.023-11.605-77.98-75.711-98.344-115.07 50.059-14.855 103.68-12.305 152.1 7.2383z"/>
  <path d="m418.71 580.93c9.4805 0.10156 18.91-1.4141 27.879-4.4805 36.938-15.832 70.148-39.223 97.5-68.66 10.113-10.84 21.52-20.398 33.957-28.465 4.1133 0.25 8.1953-0.84766 11.629-3.125 3.4297-2.2773 6.0312-5.6094 7.4023-9.4922 1.3438-3.9062 1.3594-8.1484 0.042969-12.066-1.3164-3.9141-3.8867-7.2852-7.3164-9.5898-9.375-6.3359-93.75-61.48-154.48-49.594-86.738 17.211-148.01 102.07-150.56 105.68-2.8008 3.9688-3.9492 8.875-3.207 13.676 0.74609 4.8047 3.3281 9.1289 7.1992 12.066 8.1758 6.3359 72.805 54.055 129.96 54.055zm23.887-148.69c22.465-1.875 45.023 2.2812 65.344 12.039-25.348 4.7734-50.391 11.031-75 18.75-6.3984 1.9883-11.246 7.2422-12.723 13.777-1.4766 6.5352 0.64844 13.359 5.5703 17.906 4.918 4.543 11.891 6.1172 18.289 4.1289 24.383-7.6914 49.227-13.84 74.383-18.414h-0.09375c-23.688 25.617-52.293 46.199-84.113 60.508-29.363 10.312-78.449-14.887-106.88-33 19.949-22.82 63.094-65.438 115.22-75.695z"/>
 </g>
</svg>
