<?xml version="1.0" encoding="UTF-8"?>
<svg width="1200pt" height="1200pt" version="1.1" viewBox="0 0 1200 1200" xmlns="http://www.w3.org/2000/svg">
 <path d="m237.6 474c-28.801 0-55.199 10.801-76.801 30-21.602 20.398-33.602 48-34.801 78s9.6016 57.602 30 80.398c21.602 22.801 50.398 34.801 81.602 34.801 28.801 0 55.199-10.801 76.801-30 21.602-20.398 33.602-48 34.801-78s-9.6016-57.602-30-80.398c-21.602-22.801-51.602-34.801-81.602-34.801zm60 175.2c-16.801 15.602-37.199 24-60 24-24 0-46.801-9.6016-63.602-27.602-15.602-16.801-24-39.602-24-62.398 0-22.801 10.801-45.602 27.602-61.199 16.801-15.602 37.199-24 60-24 24 0 46.801 9.6016 63.602 27.602 15.602 16.801 24 39.602 24 62.398-0.003906 22.801-10.805 44.398-27.602 61.199zm544.8-296.4c62.398 0 111.6-49.199 112.8-110.4 0-30-10.801-57.602-32.398-79.199-20.398-21.602-49.199-33.602-79.199-33.602-61.199 0-110.4 49.199-111.6 110.4 0 62.398 49.199 112.8 110.4 112.8zm-85.199-105.6 93.602-93.602c10.801 1.1992 20.398 3.6016 30 7.1992l-116.4 116.4c-3.6016-8.3945-7.2031-19.195-7.2031-29.996zm174-6-88.801 88.801v-1.1992c-10.801 0-21.602-2.3984-31.199-6l114-114c4.8008 10.801 6 21.598 6 32.398zm-55.199 81.602 50.398-50.398c-9.5977 23.996-27.598 41.996-50.398 50.398zm40.801-129.6-121.2 121.2c-8.3984-6-15.602-12-21.602-20.398l122.4-122.4c3.6016 2.3984 7.1992 6 10.801 8.3984 3.6016 4.8008 6 8.3984 9.6016 13.199zm-94.801-36-62.398 62.398c8.3984-29.996 31.199-53.996 62.398-62.398zm16.801 663.6c-61.199 0-110.4 49.199-111.6 110.4 0 30 10.801 57.602 32.398 79.199 20.398 21.602 49.199 33.602 78 33.602h1.1992c61.199 0 110.4-49.199 111.6-110.4 1.2031-62.402-48-112.8-111.6-112.8zm0 211.2m-254.4-453.6c2.3984 1.1992 3.6016 3.6016 3.6016 7.1992 0 2.3984-1.1992 4.8008-3.6016 7.1992l-64.801 43.199c-1.1992 0.003906-2.3984 0.003906-4.7969 0.003906-1.1992 0-2.3984 0-3.6016-1.1992-2.3984-1.1992-4.8008-3.6016-4.8008-7.1992v-19.199l-121.2-0.003906c-3.6016 0-6-2.3984-6-6v-37.199c0-3.6016 2.3984-6 6-6h121.2v-19.199c0-2.3984 1.1992-6 4.8008-7.1992 2.3984-1.1992 6-1.1992 8.3984 0zm100.8 33.602h-76.801v-48h76.801c36 0 69.602-13.199 94.801-38.398 21.602-20.398 34.801-48 38.398-76.801h-16.801c-2.3984 0-4.8008-1.1992-4.8008-3.6016-1.1992-2.3984-1.1992-4.8008 0-6l42-63.602c1.1992-1.1992 2.3984-2.3984 4.8008-2.3984 2.3984 0 3.6016 1.1992 4.8008 2.3984l42 63.602c1.1992 2.3984 1.1992 4.8008 0 6-1.1992 1.1992-3.6016 3.6016-4.8008 3.6016h-20.398c-3.6016 42-22.801 81.602-54 111.6-10.801 10.801-24 20.398-37.199 27.602 13.199 7.1992 26.398 16.801 37.199 27.602 28.801 28.801 46.801 64.801 52.801 105.6h16.801c2.3984 0 4.8008 1.1992 4.8008 3.6016 1.1992 2.3984 1.1992 4.8008 0 6l-42 63.602c-1.1992 1.1992-2.3984 2.3984-4.8008 2.3984-2.3984 0-3.6016-1.1992-4.8008-2.3984l-42-63.602c-1.1992-2.3984-1.1992-4.8008 0-6 1.1992-1.1992 3.6016-3.6016 4.8008-3.6016h19.199c-4.8008-26.398-18-51.602-37.199-70.801-24-25.207-57.602-39.605-93.602-38.406z"/>
</svg>
