<?xml version="1.0" encoding="UTF-8"?>
<svg width="1200pt" height="1200pt" version="1.1" viewBox="0 0 1200 1200" xmlns="http://www.w3.org/2000/svg">
 <path d="m75 1012.5c0 61.875 50.625 112.5 112.5 112.5h825c61.875 0 112.5-50.625 112.5-112.5v-637.5h-1050zm626.63-214.13 48.375 48.375 48.375-48.375c14.625-14.625 38.625-14.625 53.25 0s14.625 38.625 0 53.25l-48.375 48.375 48.375 48.375c14.625 14.625 14.625 38.625 0 53.25-7.5 7.125-16.875 10.875-26.625 10.875s-19.125-3.75-26.625-10.875l-48.375-48.375-48.375 48.375c-7.5 7.125-16.875 10.875-26.625 10.875s-19.125-3.75-26.625-10.875c-14.625-14.625-14.625-38.625 0-53.25l48.375-48.375-48.375-48.375c-14.625-14.625-14.625-38.625 0-53.25s38.625-14.625 53.25 0zm-364.13 101.62c0-20.625 16.875-37.5 37.5-37.5s37.5 16.875 37.5 37.5v18.75c0 10.5 8.25 18.75 18.75 18.75s18.75-8.25 18.75-18.75v-168.74h-37.5c-20.625 0-37.5-16.875-37.5-37.5s16.875-37.5 37.5-37.5h37.5v-93.75c0-51.75 42-93.75 93.75-93.75s93.75 42 93.75 93.75c0 20.625-16.875 37.5-37.5 37.5s-37.5-16.875-37.5-37.5c0-10.5-8.25-18.75-18.75-18.75s-18.75 8.25-18.75 18.75v93.75h37.5c20.625 0 37.5 16.875 37.5 37.5s-16.875 37.5-37.5 37.5h-37.5v168.74c0 51.75-42 93.75-93.75 93.75s-93.75-42-93.75-93.75zm675-825h-825c-61.875 0-112.5 50.625-112.5 112.5v112.5h1050v-112.5c0-61.875-50.625-112.5-112.5-112.5zm-262.5 150c-20.625 0-37.5-16.875-37.5-37.5s16.875-37.5 37.5-37.5 37.5 16.875 37.5 37.5-16.875 37.5-37.5 37.5zm112.5 0c-20.625 0-37.5-16.875-37.5-37.5s16.875-37.5 37.5-37.5 37.5 16.875 37.5 37.5-16.875 37.5-37.5 37.5zm112.5 0c-20.625 0-37.5-16.875-37.5-37.5s16.875-37.5 37.5-37.5 37.5 16.875 37.5 37.5-16.875 37.5-37.5 37.5z"/>
</svg>
