<?xml version="1.0" encoding="UTF-8"?>
<svg width="1200pt" height="1200pt" version="1.1" viewBox="0 0 1200 1200" xmlns="http://www.w3.org/2000/svg">
 <defs>
  <clipPath id="b">
   <path d="m623 410h354.86v139h-354.86z"/>
  </clipPath>
  <clipPath id="a">
   <path d="m222.14 450h363.86v139h-363.86z"/>
  </clipPath>
 </defs>
 <path d="m612.71 504.8c-2.7266-0.042969-5.3164 0.042968-7.7578 0.17969l0.26953 5.4023c-0.5625-3.043-3.3789-5.1328-6.4492-4.7969h-0.089844c0.042969-0.007813-0.3125-0.007813-0.44531 0-0.13281 0.007812-0.17969 0.042968-0.52344 0.089844-0.042969 0.007812-0.027344-0.007813-0.089844 0-3.25 0.41016-5.5508 3.375-5.1445 6.625 0.41016 3.25 3.375 5.5508 6.625 5.1445h0.089844c-0.13281 0.015625 0.17969 0.003906 0.96094-0.089844 0.042969-0.007813 0.027344 0.007813 0.089844 0 2.8047-0.40625 4.9258-2.7461 5.0547-5.5781l0.26953 4.9688c2.4688-0.13281 4.7773-0.22266 6.9727-0.17969h0.089844-0.003907c0.9375 0.011719 1.8633-0.19531 2.7031-0.61328-3.7812 48.551-11.84 99.973-4.2695 149.14 3.7383 24.289 12.859 44.773 17.695 65.113h-0.003907c0.23438 0.97656 0.71484 1.875 1.3945 2.6172 3.8906 4.2617 7.8828 8.4961 12.203 12.812 4.5859 4.5859 5.8242 12.93 7.0625 22.836 1.2344 9.9062 2.6523 21.707 12.289 29.199 4.9805 3.875 12.73 6.6875 21.094 9.7617s16.836 5.7578 21.094 6.9727c32.125 9.1758 63.035-5.3906 83.594-29.551 20.555-24.16 31.609-58.156 24.754-90.129-7.5078-35.023-27.871-58.332-49.945-78.273-22.074-19.941-45.84-36.914-62.234-59.445-7.1211-9.7852-13.812-20.516-20.309-31.555l-0.007812 0.003907c-0.53125-0.875-1.2812-1.5977-2.1758-2.0938-19.094-10.93-37.578-16.738-55.699-18.219-1.7656-0.125-3.4922 0.54687-4.707 1.832-1.0742-1.3203-2.6602-2.1133-4.3594-2.1797h-0.089844zm14.297 14.121c14.102 1.9453 28.41 5.7188 43.672 14.297 6.2773 10.59 12.734 20.992 19.785 30.684 17.902 24.605 42.52 41.969 63.891 61.277 21.375 19.309 39.461 40.164 46.285 72 5.9336 27.68-3.8008 58.465-22.141 80.02-18.336 21.551-44.324 33.617-71.387 25.887-3.7969-1.0859-12.191-3.7617-20.223-6.7109-8.0312-2.9492-16.246-6.7578-17.867-8.0195-5.207-4.0469-6.7188-11.559-7.9336-21.27-1.2148-9.7109-1.9375-21.379-10.375-29.812-3.8125-3.8086-7.3867-7.5938-10.895-11.418-5.2266-21.176-13.723-40.766-17.086-62.586-7.082-46 0.40234-95.883 4.2695-144.35zm-55.785 92.047c-2.5898-0.070312-4.9219 1.5547-5.7539 4.0039-1.0977 3.293-1.9805 6.4844-2.7891 9.6758-0.65234 3.0898 1.2383 6.1445 4.293 6.9375 3.0547 0.79297 6.1953-0.95703 7.125-3.9727 0.007813-0.027344-0.007812-0.042969 0-0.089844 0.75391-2.9883 1.6328-5.8594 2.6172-8.8047 0.58594-1.7773 0.29688-3.7344-0.78906-5.2656-1.082-1.5273-2.8281-2.4531-4.7031-2.4922z"/>
 <path d="m615.16 504.89c-2.8594-0.12109-5.3945 1.8242-6.0156 4.6211-8.4062 37.688-26.441 70.09-43.32 104.69v-0.003907c-0.13672 0.25391-0.25781 0.51563-0.35547 0.78516-8.5898 25.758-7.1719 48.582-19.961 69.035-7.7578 12.406-16.164 16.152-27.109 18.391-10.941 2.2422-24.332 2.1406-38.703 6.4492-8.6445 2.5938-17.359 8.668-26.238 13.684l0.003906 0.003907c-1.25 0.6875-2.2109 1.8008-2.6992 3.1367-5.9258 16.504-7.125 29.902-4.0078 40.969 3.1133 11.062 10.664 19.133 20.309 24.668 19.293 11.07 46.945 13.809 74.875 17.434 20.016 2.5977 39.695 12.422 58.227 12.988 9.2656 0.26953 18.715-2.3906 25.977-10.023 7.2617-7.6289 12.328-19.383 15.863-37.047 4.2617-21.309 0.66406-40.074-4.5312-57.879-5.1953-17.805-11.859-34.855-14.73-53.52-7.4453-48.363 0.88672-100.97 4.5312-151.75 0.26172-3.25-2.1562-6.0977-5.4062-6.3633-2.3984-0.17969-4.6484-0.17969-6.7109-0.26953zm-0.089844 20.66c-3.9531 45.77-11.09 93.547-4.0117 139.55 3.125 20.297 10.094 37.914 15.078 55 4.9883 17.09 8.0273 33.445 4.2695 52.211-3.2969 16.469-7.918 26.148-12.812 31.293-4.8945 5.1445-10.012 6.5781-17.086 6.3633-14.148-0.44531-34.418-9.9688-57.008-12.902-28.074-3.6445-54.945-7.0156-70.516-15.953-7.7852-4.4688-12.699-9.8672-14.906-17.695-2.0859-7.4023-0.97266-18.066 3.6602-31.902 8.2539-4.7461 16.367-9.8359 21.355-11.332 12.344-3.6992 25.031-3.6914 37.656-6.2773s25.371-8.5742 34.777-23.621c14.988-23.965 13.445-48.461 21.18-71.648 14.488-29.637 28.676-59.914 38.352-93.094z"/>
 <g clip-path="url(#b)">
  <path d="m740.15 413.37c-41.027 8.2773-66.18 49.723-92.57 73.219-0.76172 0.68359-1.332 1.5547-1.6562 2.5273-2.4766 7.2656-6.0625 13.078-10.199 18.219-1.5938-0.3125-3.2031-0.69922-4.793-0.96094-0.042969-0.011719-0.13281-0.089844-0.17969-0.089844-0.51953-0.070312-1.0469-0.070312-1.5703 0-2.9102 0.33203-5.1367 2.7539-5.2266 5.6836-0.089843 2.9336 1.9844 5.4844 4.8711 5.9961 0.13281 0.019531 0.22266 0.089843 0.35547 0.089843 0.089844 0.007813 0.13281-0.007812 0.17969 0 2.5234 0.40234 5.0312 0.875 7.582 1.4805 0.089844 0.03125 0.17969 0.0625 0.26953 0.089844 11.16 2.6758 22.605 7.2148 34.52 14.035l-0.003906-0.003906c0.36328 0.1875 0.74219 0.33984 1.1367 0.44922 68.785 21.43 116.15 15.887 158.03 1.5703 41.879-14.316 78.176-36.703 127.44-49.598 4.957-1.2969 8.918-2.7891 12.117-4.707 3.1992-1.918 5.8789-4.4727 6.9727-8.1055 1.0938-3.6328 0.03125-7.4922-1.8281-10.285-1.8594-2.793-4.4688-5.0312-7.582-7.2344-12.465-8.8125-34.949-17.047-62.234-24.492-54.574-14.895-126.47-25.766-165.61-17.867zm2.3516 11.594c34.066-6.8711 106.86 3.1328 160.21 17.695 26.68 7.2812 48.902 15.883 58.488 22.664 2.3984 1.6953 3.9375 3.2891 4.5312 4.1875 0.59766 0.89844 0.35547 0.61328 0.44531 0.35547 0.089843-0.26953-0.13281 0.35547-1.8281 1.3906-1.7148 1.0273-4.7031 2.2812-8.9766 3.4023-51.109 13.379-88.066 36.102-128.31 49.859-40.242 13.758-83.82 19.156-150.62-1.6562l1.1328 0.52344c-10.449-5.9805-20.566-9.4414-30.684-12.465 3.4492-4.9883 6.8516-10.062 9.0664-16.039 28.281-25.387 52.613-63.059 86.555-69.906z"/>
 </g>
 <path d="m448.67 244.79c-1.6172 0.13281-3.2695 0.44531-4.9688 1.3906-1.5117 0.85156-2.793 2.6094-3.5742 4.4453-22.559 30.688-32.996 59.199-32.773 85.508 0.22266 26.68 10.859 50.727 27.633 72.434 33.539 43.418 91.668 78.289 146.79 110.53h-0.003907c1.2852 0.76562 2.8125 1.0156 4.2734 0.69922 8.9102-2.0742 17.723-3.2539 26.586-3.2266 0.53906 0 1.1836 0.042969 1.918 0.089844v-0.003906c0.089844 0.003906 0.17969 0.003906 0.26953 0 1.8828 0.042968 3.7695 0.13281 5.6641 0.26953 0.35547 0.023437 0.45703 0.089844 0.44531 0.089844 2.5742 0.22266 5.2773 0.52734 8.0195 0.96094v-0.003906c0.03125 0.003906 0.058594 0.003906 0.089844 0 0.058594 0.003906 0.11719 0.003906 0.17969 0-0.66406-0.089844-0.48828-0.003906 0.44531 0.089844h-0.44531c2.5938 0.44531 5.2461 0.94922 7.8438 1.5703 0.058594 0.003906 0.11719 0.003906 0.17969 0-0.22266-0.042968-0.44922-0.17969-0.44531-0.17969l-0.003907 0.003906c2.1953 0.73438 4.6133 0.12109 6.1914-1.5664 20.402-22.426 23.523-60.531 18.219-98.148-5.3047-37.617-19.273-75.059-37.656-97.016-26.547-31.707-59.184-35.801-92.223-49.77-5.8828-2.4922-22.262-9.8633-38.961-16.387-8.3516-3.2617-16.82-6.3359-24.32-8.543-6.3867-1.8789-11.523-2.7383-16.473-2.7891l-0.003906-0.003906c-0.87891-0.37109-1.8359-0.52344-2.7891-0.44531zm1.3086 11.766c1.9922-0.13281 7.8555 0.76953 14.73 2.7891 6.957 2.043 15.195 5.0039 23.359 8.1953 16.328 6.3789 32.285 13.535 38.613 16.211 34.727 14.684 63.977 18.125 87.777 46.547 15.949 19.051 29.996 55.227 35.039 91 4.8828 34.609 0.13281 67.543-14.73 85.77-1.2148-0.22266-2.4531-0.5-3.6602-0.69531-0.089844-0.03125-0.17969-0.058594-0.26953-0.085938-0.015625-0.003906 0.015625 0.011719-0.089844 0h-0.17969c-2.8516-0.44531-5.7539-0.80859-8.7148-1.043v-0.003907h-0.085938c-0.46094-0.03125-0.59766-0.089843-0.52344-0.089843-1.9805-0.13281-3.9531-0.22266-5.9258-0.26953h-0.089843c-0.042969-0.003906-0.13281 0.003906-0.17969 0-0.72266-0.042968-1.4609-0.089844-2.3516-0.089844-8.8867-0.03125-17.66 1.3047-26.324 3.1367-54.551-31.934-111.02-66.312-142.08-106.52-15.672-20.285-24.902-41.742-25.105-65.375-0.17969-23.605 8.668-49.809 30.77-79.496z"/>
 <path d="m650.29 289.24c-4.2305-0.023438-8.6406 0.97266-13.25 2.875-0.52734 0.1875-1.0273 0.45312-1.4805 0.78516-10.445 8.3008-18.828 16.594-25.625 24.844l-0.003907-0.003906c-1.9141 2.3047-1.7969 5.6797 0.26953 7.8477 1.4453 1.5117 2.8867 3.0586 4.2695 4.707 13.484 16.105 25.66 44.535 32.078 74.527 6.418 29.988 7.1133 61.652-0.61328 84.289-0.82422 2.5273 0.14062 5.293 2.3594 6.7578s5.1406 1.2656 7.1445-0.48438c16.324-14.535 31.18-33.547 47.504-48.203 0.92578-0.82812 1.5664-1.9258 1.8281-3.1367 5.3516-25.074 1.4961-54.48-10.461-90.652v-0.089843c-3.4141-10.93-7.1562-26.09-13.336-39.051-3.0977-6.4922-6.8047-12.441-11.766-17.086-4.9648-4.6406-11.496-7.8867-18.914-7.9336zm-0.089844 11.855c4.2695 0.023438 7.5586 1.5898 10.895 4.707 3.3398 3.1211 6.4375 7.9062 9.1523 13.598 5.4258 11.383 9.2188 26.074 12.812 37.57v-0.003906 0.089844c11.457 34.637 14.383 61.461 9.9375 83.418-12.973 11.988-24.328 24.68-35.738 36.262 4.4727-23.207 6.4023-48.594 0.87109-74.441-6.7266-31.445-19.062-61.02-34.605-79.582-0.26953-0.35547-0.58594-0.62891-0.87109-0.96094 5.5-6.2305 11.621-12.492 19.613-18.914 3.0117-1.1406 5.707-1.7539 7.9336-1.7461zm-41.141 208.68c-0.78516 3.4961-1.6367 7.0156-2.6172 10.461v-0.003906c-0.64453 3.0391 1.1719 6.0547 4.1602 6.9062 2.9844 0.84766 6.1211-0.75781 7.1719-3.6797 0.007813-0.027343-0.007812-0.042969 0-0.089843 0.98438-3.5586 1.9375-7.1953 2.7891-10.984z"/>
 <g clip-path="url(#a)">
  <path d="m399.51 450.67c-17.852 0.089844-35.477 2.5703-52.387 7.8438-28.898 9.0156-63.621 39.195-89.52 67.203-12.949 14.004-23.484 27.453-29.637 37.828-3.0742 5.1875-5.2656 9.3672-5.7539 13.945-0.22266 2.2891 0.089843 5.1797 2.1797 7.582 2.1094 2.4062 5.2734 3.0898 7.7578 2.9648 87.809 1.8984 183.68 0.042969 270.56-27.633 17.27-5.5039 34.453-14.965 47.332-26.848 0.54297-0.50391 0.78125-0.76172 1.1328-1.1328 10.02-4.7578 19.934-8.7305 29.723-11.418v0.007813c2.4297-0.68359 4.1562-2.8398 4.2969-5.3594 0.13672-2.5234-1.3438-4.8516-3.6836-5.7969-9.8672-4.0078-19.453-8.0234-28.418-13.25-44.246-25.797-98.918-45.57-151.93-45.676-0.53516-0.16797-1.0938-0.25781-1.6523-0.26562zm-0.17969 11.855h0.003906c0.085938 0.003906 0.17578 0.003906 0.26562 0 50.488-0.3125 104.25 19.027 147.57 44.281 5.6133 3.2773 11.359 5.4766 17.086 8.0195-6.3047 2.3125-12.613 4.2148-18.914 7.2344-0.61328 0.28125-1.1719 0.66406-1.6562 1.1328-0.82422 0.8125-1.3164 1.3438-1.6562 1.6562-11.301 10.43-27.227 19.328-42.887 24.32-83.77 26.707-177.31 28.812-264.02 27.02 0.56641-1.6797 1.0156-3.3438 2.9648-6.625 5.3789-9.0703 15.594-22.242 28.156-35.824 25.121-27.168 60.367-56.488 84.375-63.98 15.578-4.8594 31.996-7.125 48.727-7.2344z"/>
 </g>
 <path d="m612.71 504.8c-2.7266-0.042969-5.3164 0.042968-7.7578 0.17969l0.26953 5.4023c-0.5625-3.043-3.3789-5.1328-6.4492-4.7969h-0.089844c0.042969-0.007813-0.3125-0.007813-0.44531 0-0.13281 0.007812-0.17969 0.042968-0.52344 0.089844-0.042969 0.007812-0.027344-0.007813-0.089844 0-3.25 0.41016-5.5508 3.375-5.1445 6.625 0.41016 3.25 3.375 5.5508 6.625 5.1445h0.089844c-0.13281 0.015625 0.17969 0.003906 0.96094-0.089844 0.042969-0.007813 0.027344 0.007813 0.089844 0 2.8047-0.40625 4.9258-2.7461 5.0547-5.5781l0.26953 4.9688c2.4688-0.13281 4.7773-0.22266 6.9727-0.17969h0.089844-0.003907c0.9375 0.011719 1.8633-0.19531 2.7031-0.61328-3.7812 48.551-11.84 99.973-4.2695 149.14 0.53906 3.5078 1.1914 6.8906 1.918 10.199 0.25 1.1289 0.82422 2.1602 1.6523 2.9648 6.1562 5.9922 12.418 12.227 20.309 16.91 7.8945 4.6836 17.527 7.582 29.027 6.625 14.141-1.1797 26.91-11.172 40.27-21.008 13.359-9.8359 27.121-19.762 40.098-23.012 12.762-3.1992 26.812-2.3711 41.316-0.96094 2.3008 0.20312 4.5078-0.94922 5.6523-2.957 1.1445-2.0039 1.0117-4.4922-0.33594-6.3711-26.477-36.582-66.832-57.383-90.914-90.477-7.1211-9.7852-13.812-20.516-20.309-31.555-0.53125-0.875-1.2812-1.5938-2.1758-2.0898-18.285-10.465-35.961-15.668-53.344-17.434-0.035157-0.003906-0.042969-0.089844-0.089844-0.089844h-0.003906c-0.625-0.32422-1.3047-0.53125-2.0039-0.61328-0.089843-0.007813-0.17969-0.089844-0.26953-0.089844h0.003907c-0.92578-0.0625-1.8516 0.089844-2.707 0.44922-0.75781 0.31641-1.4375 0.79297-2.0039 1.3906-1.0703-1.3203-2.6602-2.1133-4.3594-2.1758h-0.089844zm14.297 14.121c14.102 1.9453 28.41 5.7188 43.672 14.297 6.2773 10.59 12.734 20.992 19.785 30.684 23.688 32.551 57.449 53.367 81.938 81.586-10.273-0.54297-20.57-1.8164-30.945 0.78516-16.379 4.1055-30.941 15.199-44.281 25.016-13.336 9.8164-25.578 18.027-34.168 18.742-9.1133 0.75781-15.723-1.2617-21.965-4.9688-5.7891-3.4336-11.242-8.6172-16.91-14.121-0.53516-2.5391-1-5.1055-1.3906-7.6719-7.082-46 0.40234-95.883 4.2695-144.35zm-55.785 92.047c-2.5898-0.070312-4.9219 1.5547-5.7539 4.0039-1.0977 3.293-1.9805 6.4844-2.7891 9.6758-0.65234 3.0898 1.2383 6.1445 4.293 6.9375 3.0547 0.79297 6.1953-0.95703 7.125-3.9727 0.007813-0.027344-0.007812-0.042969 0-0.089844 0.75391-2.9883 1.6328-5.8594 2.6172-8.8047 0.58594-1.7773 0.29688-3.7344-0.78906-5.2656-1.082-1.5273-2.8281-2.4531-4.7031-2.4922z"/>
 <path d="m615.16 504.89c-2.8867-0.11328-5.4297 1.8789-6.0156 4.707-8.4141 37.652-26.453 70.027-43.32 104.6-0.13672 0.25391-0.25781 0.51563-0.35547 0.78516-1.7227 5.1641-2.9336 10.191-4.0078 15.078v0.003906c-0.42578 1.9375 0.15234 3.9609 1.5391 5.3828 1.3867 1.4219 3.3945 2.0508 5.3477 1.6758 7.2227-1.4062 15.336-1.4414 20.57 0.52344 9.6719 3.6289 14.082 10.102 22.227 18.305 1.7734 1.75 4.4492 2.1992 6.6953 1.125 2.2461-1.0742 3.5781-3.4414 3.3281-5.9219-4.5742-44.969 2.7617-93.07 6.1016-139.64v0.003906c0.26562-3.25-2.1523-6.0977-5.4023-6.3633-2.3984-0.17969-4.6484-0.17969-6.7109-0.26953zm-0.35547 21.18c-3.2305 37.383-7.0273 75.953-4.793 114.01-4.8359-4.957-8.7031-10.402-16.996-13.512-5.8125-2.1797-12.059-1.1328-18.219-0.69531 0.62109-2.4023 1.1289-4.8672 1.918-7.2344 14.406-29.465 28.398-59.633 38.09-92.57z"/>
 <path d="m598.95 630.15c-2.7461-0.058594-5.1641 1.7852-5.8398 4.4453-22.77 87.105-29.738 102.87-46.199 193.33-0.28516 1.5508 0.058594 3.1484 0.96094 4.4414 0.89844 1.293 2.2812 2.1758 3.832 2.4453 3.1992 0.53906 6.2344-1.6016 6.8008-4.7969 16.398-90.133 23.191-105.12 46.023-192.46 0.78516-3.1523-1.125-6.3438-4.2734-7.1484-0.42188-0.13672-0.86328-0.22656-1.3047-0.26562z"/>
 <path d="m681.23 683.58c-0.37891-0.003906-0.75781 0.023437-1.1328 0.089844-3.1562 0.60547-5.25 3.6289-4.707 6.8008 11.688 65.387 27.578 148.48 63.891 211.9h0.003906c1.6211 2.8047 5.1992 3.7734 8.0195 2.1797 1.3672-0.78125 2.3711-2.0781 2.7773-3.6016 0.41016-1.5234 0.19531-3.1445-0.60156-4.5078-34.832-60.832-50.832-142.82-62.496-208.06-0.53125-2.7656-2.9375-4.7734-5.7539-4.793z"/>
 <path d="m606.7 637.47c-3.2188 0.35547-5.5508 3.2305-5.2305 6.4492 8.4492 84.922 5.9258 157.52 5.9258 243.89 0.035156 3.2461 2.6836 5.8516 5.9258 5.8398 3.2148-0.035157 5.8086-2.6289 5.8438-5.8398 0-86.141 2.6094-159.21-5.9258-245.02h-0.003907c-0.14844-1.5781-0.92188-3.0273-2.1523-4.0273-1.2305-1-2.8086-1.4648-4.3828-1.2891z"/>
 <path d="m576.89 624.31c-2.75 0.34375-4.8867 2.5547-5.1406 5.3164-7.3828 76.48-61.562 168.37-107.65 240.75h-0.003906c-0.85156 1.3281-1.1367 2.9414-0.79297 4.4805 0.34375 1.5391 1.2891 2.875 2.625 3.7148 1.3242 0.85156 2.9375 1.1367 4.4766 0.79297s2.8789-1.2891 3.7148-2.625c46.25-72.637 101.57-164.98 109.39-245.98 0.15234-1.5625-0.32422-3.1172-1.3203-4.3281-1-1.2109-2.4375-1.9727-3.9961-2.1211-0.4375-0.050782-0.875-0.050782-1.3086 0z"/>
 <path d="m490.25 637.47c-1.7461 0.0625-3.3711 0.89062-4.4453 2.2656-42.672 54.512-113.44 95.879-171.02 129.96-1.3398 0.80859-2.3047 2.1172-2.6836 3.6406-0.375 1.5195-0.12891 3.125 0.67969 4.4648 1.6797 2.7422 5.2461 3.6328 8.0195 2.0039 57.516-34.047 129.48-75.57 174.24-132.75v0.003906c0.99609-1.2344 1.457-2.8125 1.2773-4.3867-0.18359-1.5742-0.98828-3.0078-2.2344-3.9844-1.0977-0.83984-2.4531-1.2734-3.8359-1.2148z"/>
 <path d="m322.85 771.65c-3.5742-5.8203-10.488-6.9141-16.898-6.2031-6.4141 0.71094-13.449 3.3359-20.32 7.5508s-12.328 9.25-15.867 14.641c-3.5391 5.3906-5.6992 12.043-2.125 17.867 3.5742 5.8203 10.531 6.9922 16.945 6.2773 6.4141-0.71094 13.375-3.2891 20.246-7.5039s12.402-9.293 15.941-14.684c3.5391-5.3906 5.6523-12.121 2.0781-17.941zm-10.031 6.1523c0.019532 0.035157 0.30469 1.8398-1.9648 5.293-2.2734 3.457-6.6289 7.6445-12.223 11.078-5.5938 3.4297-11.23 5.3711-15.344 5.8281-4.1133 0.46094-5.5938-0.61328-5.6133-0.64844-0.019531-0.035156-0.26172-1.7617 2.0117-5.2227 2.2734-3.457 6.5117-7.6719 12.105-11.102 5.5938-3.4297 11.352-5.3398 15.461-5.8008 4.1133-0.46094 5.5469 0.53906 5.5703 0.57422z"/>
 <path d="m472.62 868.83c-5.4688-4.0898-12.301-2.5508-17.996 0.47656-5.6953 3.0312-11.215 8-16.043 14.453-4.8281 6.4531-8.0898 13.219-9.3906 19.535-1.2969 6.3164-0.84375 13.297 4.625 17.387s12.371 2.6055 18.066-0.42578c5.6953-3.0312 11.266-8.0703 16.098-14.52 4.8281-6.4531 8.0391-13.148 9.3398-19.465 1.2969-6.3164 0.77734-13.352-4.6953-17.441zm-7.0508 9.4219c0.035156 0.023438 1.0156 1.5273 0.17969 5.5781-0.83594 4.0508-3.3398 9.5547-7.2695 14.809-3.9297 5.25-8.5039 9.2109-12.16 11.152-3.6523 1.9453-5.3711 1.4258-5.4023 1.4023-0.035156-0.023437-0.94531-1.4727-0.11328-5.5273 0.83594-4.0508 3.2695-9.6055 7.2031-14.859 3.9297-5.25 8.5742-9.1562 12.227-11.102 3.6523-1.9453 5.3008-1.4805 5.3359-1.4531z"/>
 <path d="m742.27 893.89c-6.3867 2.4258-8.7461 9.0117-9.2383 15.441-0.49219 6.4297 0.75 13.75 3.6133 21.285 2.8633 7.5312 6.8281 13.914 11.469 18.395 4.6406 4.4805 10.781 7.8398 17.164 5.418 6.3867-2.4258 8.7461-9.0117 9.2383-15.441 0.49219-6.4297-0.69922-13.863-3.5625-21.398-2.8633-7.5352-6.8789-13.801-11.52-18.285-4.6406-4.4805-10.781-7.8398-17.164-5.418zm4.1797 11c0.039063-0.015625 1.832-0.039063 4.8086 2.8398 2.9766 2.875 6.2812 7.9414 8.6133 14.074 2.332 6.1289 3.2227 12.113 2.9062 16.238-0.31641 4.125-1.6719 5.293-1.7109 5.3086s-1.832 0.039063-4.8086-2.8359c-2.9766-2.875-6.2812-7.9414-8.6133-14.074-2.332-6.1289-3.2227-12.113-2.9062-16.238s1.668-5.2969 1.7109-5.3125z"/>
 <path d="m613.19 881.86c-6.8281 0.097656-11.301 5.4844-13.961 11.359-2.6602 5.875-3.9961 13.27-3.8828 21.324 0.11328 8.0586 1.6602 15.324 4.4883 21.121s7.4492 11.051 14.277 10.953c6.8281-0.097656 11.387-5.4844 14.047-11.359s4-13.18 3.8828-21.238c-0.11328-8.0586-1.6602-15.41-4.4883-21.207s-7.5391-11.051-14.367-10.953zm0.16797 11.852c0.042969 0 1.7344 0.58984 3.5469 4.3086s3.1914 9.6094 3.2852 16.168-1.1133 12.488-2.8203 16.254c-1.7031 3.7695-3.3789 4.4102-3.4219 4.4102-0.042968 0-1.6484-0.59375-3.4609-4.3125s-3.2734-9.6094-3.3672-16.168c-0.09375-6.5586 1.1992-12.488 2.9062-16.258 1.7031-3.7695 3.293-4.4062 3.3398-4.4102z"/>
 <path d="m554.16 823.26c-6.6289-1.6367-12.32 2.4375-16.387 7.4453-4.0664 5.0078-7.2969 11.715-9.2305 19.539-1.9336 7.8242-2.2227 15.348-0.95703 21.672s4.4023 12.578 11.031 14.215c6.6289 1.6367 12.32-2.4375 16.387-7.4453 4.0664-5.0078 7.2344-11.82 9.168-19.645 1.9336-7.8242 2.2852-15.242 1.0195-21.566-1.2656-6.3242-4.4023-12.578-11.031-14.215zm-2.8242 11.422c0.042968 0.011718 1.4414 0.99219 2.2539 5.0469 0.80859 4.0547 0.73047 10.125-0.84375 16.492-1.5742 6.3672-4.332 11.773-6.9375 14.988-2.6055 3.2148-4.3047 3.4297-4.3477 3.418-0.042969-0.011718-1.5273-1.0117-2.3359-5.0703-0.80859-4.0547-0.64844-10.105 0.92578-16.473 1.5742-6.3672 4.2461-11.797 6.8555-15.008 2.6055-3.2148 4.3867-3.4062 4.4297-3.3984z"/>
 <path d="m566.61 497.13c-2.2266-0.17969-4.3516 0.95313-5.4922 2.8789-0.019531 0.035156-0.042969 0.042969-0.089843 0.089843-0.03125 0.089844-0.042969 0.17969-0.089844 0.26953-1.0117 1.6797-2.0234 3.332-2.9648 4.793-1.9375 3-0.78906 7.0195 2.4414 8.543 1.0703 0.5 2.1523 0.91016 3.2266 1.3906-6.0977 2.2578-12.211 4.0508-22.539 12.098-10.328 8.0469-26.199 16.895-41.789 21.898-0.03125 0.027344-0.042969 0.042969-0.089844 0.089844-0.042969 0.027344-0.13281 0.042968-0.17969 0.089844h-0.17969-0.089844c-36.793 14.414-81.285 23.895-103.99 56.309-0.17969 0.17969-0.3125 0.40234-0.44531 0.61328-19.734 37.812-27.742 72.293-21.793 98.062 2.9766 12.883 9.8203 23.648 20.398 30.422 10.574 6.7734 24.434 9.4023 41.23 7.7578 9.6133-0.94141 18.691-5.8984 27.195-10.809 8.5039-4.9102 16.574-9.8828 21.703-11.418 12.34-3.6992 25.031-3.6953 37.656-6.2773 12.625-2.5859 25.371-8.5664 34.777-23.621 14.988-23.965 13.445-48.457 21.18-71.648 16.594-33.941 35.125-67.117 43.934-106.6 0.03125-0.042969 0.042968-0.13281 0.089843-0.17969 0-0.003906 0.089844-0.96094 0.089844-1.2188-0.035156-3.1758-2.5742-5.7578-5.7539-5.8398-0.46094-0.011719-1.293-0.089844-2.3516-0.089844h-0.089844c-9.0039-0.023437-17.898 1.2539-26.672 3.1367-5.5859-3.2695-11.223-6.5234-16.824-9.8477-0.76172-0.48047-1.6289-0.77734-2.5273-0.87109zm39.312 20.223c-9.0586 34.18-24.48 64.836-40.098 96.84-0.13281 0.22266-0.26953 0.45703-0.35547 0.69531-8.5898 25.758-7.1719 48.672-19.961 69.121-7.7578 12.414-16.168 16.152-27.109 18.391-10.941 2.2422-24.332 2.1406-38.703 6.4492-7.9883 2.3984-16.02 7.7266-24.23 12.465-8.2109 4.7383-16.457 8.7461-22.402 9.3281-14.941 1.4648-25.934-0.93359-33.734-5.9258-7.8008-4.9961-12.82-12.648-15.254-23.188-4.8438-20.977 1.9102-53.324 20.66-89.434 19.039-26.887 60.168-37.004 97.973-51.777 0.089844-0.023437 0.17969 0.015626 0.26953 0 0.089844-0.023437 0.35547-0.089843 0.35547-0.089843 0.13281-0.042969 0.22266-0.13281 0.35547-0.17969 0.13281-0.089843 0.22266-0.17969 0.35547-0.26953 0.22266-0.13281 0.44531-0.22266 0.52344-0.26953 0.03125-0.027344 0.042969-0.042969 0.089844-0.089844 0.089844-0.042969 0.17969-0.13281 0.26953-0.17969 16.477-5.5938 32.848-14.363 44.578-22.984 11.73-8.6211 21.641-12.594 32.438-15.367 10.797-2.7695 17.395-3.1641 24.012-3.5742z"/>
 <path d="m612.71 504.8c-1.3086-0.003907-2.5586 0.042968-3.832 0.089843-1.3125 0.042969-2.6328-0.003906-3.9219 0.089844-0.027344 0-0.042969-0.003906-0.089844 0v-0.003906c-1.1055 0.085937-2.1641 0.47656-3.0547 1.1328-0.95312-0.44141-2.0039-0.62109-3.0508-0.51953h-0.089844c0.042969-0.007812-0.3125-0.007812-0.44531 0-0.13281 0.007812-0.17969 0.042969-0.52344 0.089844-0.042969 0.007812-0.027343-0.007813-0.089843 0-3.25 0.40625-5.5508 3.375-5.1406 6.6211 0.40625 3.25 3.375 5.5547 6.625 5.1445h0.089844c-0.13281 0.015625 0.17969 0.003906 0.96094-0.089844 0.042968-0.007813 0.027344 0.007813 0.089844 0h-0.003907c0.94922-0.15625 1.8477-0.54688 2.6133-1.1328 0.84766 0.38281 1.7734 0.5625 2.7031 0.52344h0.089843c1.1562-0.042969 2.2617-0.042969 3.4023-0.089844 1.1602-0.035156 2.3398-0.089844 3.4844-0.089844h0.089844-0.003906c3.0664-0.20703 5.457-2.7305 5.5039-5.8008 0.046875-3.0703-2.2695-5.6641-5.3242-5.9648h-0.089844zm41.316 8.2812v-0.003907c-2.6797 0.30469-4.8125 2.3867-5.1797 5.0586-0.37109 2.6719 1.1133 5.2539 3.6094 6.2734v0.089844c1.0078 0.40234 2.0547 0.71875 3.0508 1.1328h0.003906c1.1328 0.45703 2.3828 0.55078 3.5742 0.26953 0.55078 1.0391 1.4023 1.8867 2.4414 2.4414 0.035156 0.019532 0.042969 0.089844 0.089844 0.089844 0.72266 0.35547 1.5039 0.71875 2.3516 1.1328 1.5352 0.73047 3.3164 0.76563 4.8789 0.089844 0.12891 0.64453 0.36328 1.2617 0.69531 1.8281 6.6055 11.219 13.465 22.184 20.918 32.426 29.777 40.918 77.273 62.328 99.719 104.69h0.003906c1.1328 2.0742 3.3945 3.2695 5.7461 3.043 2.3555-0.22656 4.3438-1.8359 5.0625-4.0898 0.99219-3.168 1.8867-6.1953 2.6172-8.7148 8.9453-31.078 4.1719-52.812-9.3281-68.164-13.496-15.352-34.211-24.332-56.484-34.258-15.004-6.6875-31.91-17.16-46.371-28.676h-0.003907c-0.61328-0.51563-1.3242-0.90234-2.0938-1.1328-4.2344-1.1562-8.5-2.375-12.902-3.75h0.003906c-0.59375-0.18359-1.2109-0.27344-1.8281-0.26562-0.8125 0.007812-1.6133 0.1875-2.3555 0.51953-0.31641-1.7891-1.4414-3.3359-3.0508-4.1836-0.75391-0.35547-1.5859-0.72656-2.4414-1.1328-0.035156-0.019531-0.042968-0.089844-0.089843-0.089844v-0.003906c-1.2031-0.54297-2.5508-0.66797-3.832-0.35547-0.61328-1.1562-1.5977-2.0781-2.7891-2.6133-1.1016-0.46094-2.2305-0.89844-3.3125-1.3086-0.023437-0.007812-0.042969 0.007813-0.089844 0-0.83203-0.31641-1.7266-0.4375-2.6133-0.35938zm35.129 27.02c14.023 10.617 29.34 20.645 43.844 27.109 22.266 9.9258 41.445 18.758 52.387 31.207 10.625 12.086 14.051 28.309 6.7109 55.523-26.09-39.184-67.094-62.633-92.047-96.93-3.8164-5.2461-7.293-11.238-10.895-16.91zm-117.93 70.867c-2.5898-0.070312-4.9219 1.5547-5.7539 4.0039-1.0977 3.293-1.9805 6.4805-2.7891 9.6758-0.52734 3.0469 1.3789 5.9805 4.375 6.7383 2.9961 0.75391 6.0664-0.92578 7.043-3.8594 0.75391-2.9883 1.6328-5.957 2.6172-8.8906 0.55469-1.7695 0.24609-3.6953-0.83594-5.2031-1.0781-1.5078-2.8047-2.4219-4.6562-2.4648z"/>
 <path d="m425.31 598.59c-0.80469-0.015625-1.6055 0.13672-2.3516 0.44531-7.8477 0.042969-16.125 1.125-25.277 4.3594-1.418 0.47656-2.6016 1.4766-3.3125 2.7891-19.734 37.812-27.742 72.293-21.793 98.062 2.9766 12.883 9.8203 23.648 20.398 30.422 10.574 6.7734 24.434 9.4023 41.23 7.7578 9.6133-0.94141 18.691-5.8984 27.195-10.809 8.5039-4.9102 16.578-9.8828 21.703-11.418 12.34-3.6992 25.031-3.6953 37.656-6.2773 12.625-2.5859 25.371-8.5664 34.777-23.621 5.7773-9.2344 9.0234-18.684 11.332-27.98h0.003906c0.51562-2.0742-0.12891-4.2617-1.6836-5.7266-1.5547-1.4609-3.7773-1.9727-5.8125-1.3359-9.9062 3.1406-22.223 4.4219-38.789-0.35547-14.758-4.2461-27.453-17.109-41.754-29.984s-30.73-25.707-53.52-26.324zm-0.34766 11.766c18.523 0.50391 32.168 10.883 46.023 23.359s27.387 27.078 46.285 32.512c14.445 4.1641 24.984 2.0703 35.301 0.17969-1.8984 5.9922-3.5273 11.957-7.0625 17.605-7.7578 12.414-16.168 16.152-27.109 18.391-10.941 2.2422-24.332 2.1406-38.703 6.4492-7.9883 2.3984-16.02 7.7266-24.23 12.465-8.2109 4.7383-16.457 8.832-22.402 9.4141-14.941 1.4648-25.934-1.0156-33.734-6.0156-7.8008-4.9961-12.82-12.648-15.254-23.188-4.7422-20.527 2.3867-52.344 20.223-87.516 7.5938-2.375 14.605-3.8398 20.66-3.6602z"/>
</svg>
