<?xml version="1.0" encoding="UTF-8"?>
<svg width="1200pt" height="1200pt" version="1.1" viewBox="0 0 1200 1200" xmlns="http://www.w3.org/2000/svg">
 <path d="m985.2 178.8c-4.8008-18-15.602-32.398-30-40.801l-163.2-98.398c-31.199-18-73.199-8.3984-92.398 22.801l-460.8 763.2c-1.1992 3.6016-2.3984 6-3.6016 9.6016l-22.801 309.6c-1.1992 8.3984 3.6016 16.801 10.801 20.398 4.8008 3.6016 10.801 3.6016 16.801 2.3984 2.3984 0 4.8008-1.1992 6-2.3984l262.8-165.6c2.3984-2.3984 6-4.8008 7.1992-7.1992l460.8-764.4c10.801-13.203 13.199-31.203 8.3984-49.203zm-337.2 55.199 42 25.199-358.8 594-42-25.199zm80.398 48 42 25.199-358.8 595.2-42-25.199zm-410.4 787.2-51.602-31.199 12-164.4 178.8 108zm172.8-118.8-42-25.199 357.6-594 42 25.199zm381.6-632.4-201.6-122.4 27.602-45.602 201.6 121.2zm67.203-111.6-15.602 26.398-202.8-121.2 15.602-26.398c7.1992-10.805 21.598-14.402 31.199-7.2031l163.2 98.398c10.801 6 14.402 19.203 8.4023 30z"/>
</svg>
