<?xml version="1.0" encoding="UTF-8"?>
<svg width="1200pt" height="1200pt" version="1.1" viewBox="0 0 1200 1200" xmlns="http://www.w3.org/2000/svg">
 <path d="m943.31 403.82-17.109-17.109 7.0781-7.0781c29.719-29.719 29.719-78.047 0-107.72l-66.141-66.141c-29.672-29.719-78.047-29.719-107.72 0l-7.0781 7.0781-17.109-17.109c-12-12-27.328-19.172-43.828-21.328v-16.219c0-25.219-20.484-45.703-45.703-45.703h-91.406c-25.219 0-45.703 20.484-45.703 45.703v16.219c-16.547 2.1562-31.875 9.3281-43.828 21.328l-17.109 17.109-7.0781-7.0781c-29.672-29.719-78.047-29.719-107.72 0l-66.141 66.141c-29.719 29.719-29.719 78.047 0 107.72l7.0781 7.0781-17.109 17.109c-14.391 14.391-22.312 33.516-22.312 53.859v142.36c0 153.14 94.688 284.48 228.52 338.86v11.531c0 42 34.172 76.172 76.172 76.172v45.703c0 8.3906 6.8438 15.234 15.234 15.234s15.234-6.8438 15.234-15.234v-45.703h60.938v45.703c0 8.3906 6.8438 15.234 15.234 15.234s15.234-6.8438 15.234-15.234v-45.703c42 0 76.172-34.172 76.172-76.172v-11.531c133.82-54.375 228.52-185.72 228.52-338.86v-142.36c0-20.344-7.9219-39.469-22.312-53.859zm-162.37-176.53c15-15 37.828-17.203 55.312-6.9844l-18.516 18.516c-5.9531 5.9531-5.9531 15.609 0 21.562 2.9531 2.9531 6.8906 4.4531 10.781 4.4531s7.7812-1.5 10.781-4.4531l19.688-19.688 39.375 39.375-19.688 19.688c-5.9531 5.9531-5.9531 15.609 0 21.562 2.9531 2.9531 6.8906 4.4531 10.781 4.4531s7.7812-1.5 10.781-4.4531l18.516-18.516c10.219 17.484 8.0156 40.312-6.9844 55.312l-7.0781 7.0781-130.78-130.78 7.0781-7.0781zm-241.87-69.094c0-8.3906 6.8438-15.234 15.234-15.234h91.406c8.3906 0 15.234 6.8438 15.234 15.234v15.234h-121.87zm-250.82 199.92c-15-15-17.203-37.828-6.9844-55.312l18.516 18.516c2.9531 2.9531 6.8906 4.4531 10.781 4.4531 3.8906 0 7.7812-1.5 10.781-4.4531 5.9531-5.9531 5.9531-15.609 0-21.562l-19.688-19.688 39.375-39.375 19.688 19.688c2.9531 2.9531 6.8906 4.4531 10.781 4.4531 3.8906 0 7.7812-1.5 10.781-4.4531 5.9531-5.9531 5.9531-15.609 0-21.562l-18.516-18.516c7.0781-4.125 15-6.375 22.969-6.375 11.719 0 23.391 4.4531 32.344 13.359l7.0781 7.0781-130.78 130.78-7.0781-7.0781zm418.4 592.26c0 25.219-20.484 45.703-45.703 45.703h-121.87c-25.219 0-45.703-20.484-45.703-45.703v-0.65625c33.75 10.312 69.562 15.891 106.64 15.891 37.078 0 72.891-5.5781 106.64-15.891zm228.52-350.39c0 184.82-150.32 335.16-335.16 335.16s-335.16-150.32-335.16-335.16v-142.36c0-12.047 4.875-23.812 13.359-32.297l208.08-208.08c8.5312-8.4844 20.297-13.359 32.297-13.359h162.79c12.047 0 23.812 4.875 32.297 13.359l208.03 208.03c8.4844 8.5312 13.359 20.297 13.359 32.297v142.36zm-113.72-209.26c53.672 56.766 83.25 131.11 83.25 209.26 0 168-136.69 304.69-304.69 304.69s-304.69-136.69-304.69-304.69 136.69-304.69 304.69-304.69c63.656 0 124.64 19.406 176.34 56.156 6.8438 4.875 8.4844 14.391 3.6094 21.234s-14.391 8.4844-21.234 3.6094c-46.547-33.047-101.39-50.531-158.68-50.531-151.22 0-274.22 123-274.22 274.22s123 274.22 274.22 274.22c151.22 0 274.22-123 274.22-274.22 0-70.359-26.578-137.26-74.906-188.34-5.7656-6.0938-5.5312-15.75 0.60938-21.516 6.0938-5.7656 15.75-5.5312 21.516 0.60938zm7.0781 239.72v-121.87c0-25.219-20.484-45.703-45.703-45.703h-365.63c-25.219 0-45.703 20.484-45.703 45.703v121.87c0 25.219 20.484 45.703 45.703 45.703h365.63c25.219 0 45.703-20.484 45.703-45.703zm-426.56 0v-121.87c0-8.3906 6.8438-15.234 15.234-15.234h365.63c8.3906 0 15.234 6.8438 15.234 15.234v121.87c0 8.3906-6.8438 15.234-15.234 15.234h-365.63c-8.3906 0-15.234-6.8438-15.234-15.234zm137.11-106.64h-60.938c-8.3906 0-15.234 6.8438-15.234 15.234v60.938c0 8.3906 6.8438 15.234 15.234 15.234h60.938c8.3906 0 15.234-6.8438 15.234-15.234v-60.938c0-8.3906-6.8438-15.234-15.234-15.234zm-15.234 60.938h-30.469v-30.469h30.469zm91.406-45.703c0 8.3906-6.8438 15.234-15.234 15.234-8.3906 0-15.234-6.8438-15.234-15.234 0-8.3906 6.8438-15.234 15.234-15.234 8.3906 0 15.234 6.8438 15.234 15.234zm0 60.938c0 8.3906-6.8438 15.234-15.234 15.234-8.3906 0-15.234-6.8438-15.234-15.234 0-8.3906 6.8438-15.234 15.234-15.234 8.3906 0 15.234 6.8438 15.234 15.234zm60.938-60.938v60.938c0 8.3906-6.8438 15.234-15.234 15.234-8.3906 0-15.234-6.8438-15.234-15.234v-60.938c0-8.3906 6.8438-15.234 15.234-15.234 8.3906 0 15.234 6.8438 15.234 15.234zm60.938 0v60.938c0 8.3906-6.8438 15.234-15.234 15.234-8.3906 0-15.234-6.8438-15.234-15.234v-60.938c0-8.3906 6.8438-15.234 15.234-15.234 8.3906 0 15.234 6.8438 15.234 15.234zm-213.28 167.58c8.3906 0 15.234 6.8438 15.234 15.234 0 8.3906-6.8438 15.234-15.234 15.234h-30.469c-8.3906 0-15.234-6.8438-15.234-15.234 0-8.3906 6.8438-15.234 15.234-15.234zm91.406 0c8.3906 0 15.234 6.8438 15.234 15.234 0 8.3906-6.8438 15.234-15.234 15.234h-30.469c-8.3906 0-15.234-6.8438-15.234-15.234 0-8.3906 6.8438-15.234 15.234-15.234zm91.406 0c8.3906 0 15.234 6.8438 15.234 15.234 0 8.3906-6.8438 15.234-15.234 15.234h-30.469c-8.3906 0-15.234-6.8438-15.234-15.234 0-8.3906 6.8438-15.234 15.234-15.234zm-167.58-457.03c0-8.3906 6.8438-15.234 15.234-15.234h91.406c8.3906 0 15.234 6.8438 15.234 15.234 0 8.3906-6.8438 15.234-15.234 15.234h-91.406c-8.3906 0-15.234-6.8438-15.234-15.234z"/>
</svg>
