<?xml version="1.0" encoding="UTF-8"?>
<svg width="1200pt" height="1200pt" version="1.1" viewBox="0 0 1200 1200" xmlns="http://www.w3.org/2000/svg">
 <path d="m567.1 134.44c4.3594 0 8.8125 2.8125 13.406 8.3906 9.6562 12.375 14.625 27.797 14.906 46.266v0.5625c0.046875 0.51562 0.09375 1.0312 0.09375 1.5469h-0.046875c-0.1875 1.4062-0.09375 2.7656 0.23438 4.0781h-0.046875c0.09375 8.3438-0.46875 19.5-1.7812 33.516v0.09375c-0.375 4.4062-1.2188 11.766-2.625 21.984-3.2812 20.156-5.5781 36.234-6.9375 48.188h-0.046875c-3.7031 0.28125-7.3125 0.79688-10.875 1.5938-7.4062-27.281-15.609-50.953-24.703-71.062l-0.046875 0.046875c-0.89062-3.7969-1.9219-11.812-3.0469-24.047l-0.046875-0.1875c-1.3125-14.344-1.875-22.922-1.6406-25.734l0.046875-0.89062c0-11.625 2.1562-21.328 6.4219-29.062l0.1875-0.42188c4.4062-8.9062 9.2344-13.781 14.484-14.625l0.1875-0.046875c0.60938-0.09375 1.2656-0.1875 1.875-0.1875zm91.031 10.031c7.875 0 13.031 4.5 15.609 13.5 0.51562 1.9219 0.98438 4.0312 1.3594 6.3281l0.046875 0.23438c1.4062 7.2188 1.7344 13.406 1.0781 18.562-1.7344 9.8438-4.6406 20.859-8.7188 33l-0.14062 0.5625c-1.1719 4.2188-6.2812 15.938-15.281 35.109-13.969 25.688-23.297 43.5-28.031 53.531-5.625-2.3438-11.531-4.125-17.672-5.2031h-0.046875c1.3125-11.484 3.5625-26.766 6.6562-45.938l0.046875-0.32812c1.4531-10.547 2.3438-18.234 2.7656-23.016 1.3594-15.234 1.9688-27.469 1.8281-36.75h-0.046875c10.312-28.594 21.281-44.719 32.859-48.375 2.8125-0.79688 5.3906-1.2188 7.6875-1.2188zm-195.89 23.812c11.484 0 24.188 8.0156 38.062 24l0.046874 0.046875c9.8906 11.344 19.078 26.25 27.609 44.719h-0.046876c0.1875 0.70312 0.375 1.3594 0.60938 1.875 0.46875 1.2656 1.0312 2.3906 1.6406 3.375 0.14063 0.1875 0.28125 0.375 0.42188 0.51562l-0.046876 0.046875c7.9688 18.422 15.328 40.125 22.031 65.156h-0.046874c-7.3125 3.7031-14.016 8.4375-19.969 14.016v0.046875c-33.75-30.984-60.281-63.891-79.594-98.719-12.797-25.547-13.922-42.703-3.4688-51.516l-0.046876 0.046875c4.0781-2.4375 8.3438-3.6094 12.797-3.6094zm294.56 29.297c4.7812 0 8.1094 0.98438 9.9375 2.9531l0.75 0.75c3.9844 3.5625 5.3906 9.375 4.2656 17.391l-0.046874 0.32812c-0.75 6.8438-3.1875 13.359-7.3594 19.5-9.375 13.922-19.125 25.453-29.156 34.5l-0.14062 0.09375c-13.453 12.516-24.141 21.516-32.062 27.047l-45.797 29.625c-4.125-5.0156-8.8125-9.5156-13.969-13.453h-0.046874c3.9375-8.625 13.453-26.859 28.547-54.609l0.28125-0.60938c1.3594-2.8594 2.6719-5.625 3.8438-8.2031h-0.046874c0.09375-0.14062 0.1875-0.28125 0.32812-0.42188 22.969-30.234 46.219-48.141 69.797-53.672h-0.046876c4.2188-0.79688 7.875-1.2188 10.922-1.2188zm-364.69 47.578c3.9844 0 8.5312 0.65625 13.594 2.0156l0.1875 0.046875c19.078 4.5938 41.156 19.406 66.234 44.344 0.79688 0.79688 1.7344 1.4531 2.7188 1.9688h-0.046875c13.078 15.656 27.656 30.844 43.828 45.562h-0.046875c-2.3438 3.7031-4.3594 7.5938-6.0938 11.672-22.266-6.3281-42.562-11.578-60.938-15.656h-0.046875c-23.016-10.031-46.078-25.875-69.188-47.484h-0.046875c-9.9375-11.25-12.891-22.125-8.8125-32.625h-0.046875c3.6094-6.5625 9.7969-9.8438 18.703-9.8438zm398.68 41.109c9.8906 0 18.422 1.5 25.5 4.4531h-0.046874c10.359 6.7031 11.578 16.547 3.6562 29.484-0.89063 1.4531-1.875 2.9062-2.9531 4.4062v0.046875c-6.2812 8.625-18.891 15.703-37.922 21.234-9.2812 2.3438-19.594 4.4531-30.984 6.2812h-0.046874c-13.359 1.3125-38.156 4.1719-74.391 8.7188-1.2188-4.3125-2.7656-8.5312-4.6406-12.516h-0.046876l46.359-30 0.28125-0.1875c7.7344-5.3906 17.578-13.547 29.531-24.422h-0.046876c17.625-5.0156 32.859-7.5 45.75-7.5zm-406.64 61.969c8.8594 0 24.094 1.5938 45.703 4.7812l-0.046875 0.046875c4.9219 0.9375 9.9844 2.0156 15.234 3.1406h-0.046875c0.70312 0.23438 1.3594 0.375 2.0625 0.42188l-0.046875 0.046875c17.906 3.9844 37.781 9.0469 59.578 15.281h-0.046875c-0.60938 4.0781-0.89062 8.2031-0.89062 12.422 0 2.1094 0.046875 4.2188 0.1875 6.2812h-0.046875c-12.703 3.4219-31.547 6-56.484 7.7344-0.70312-0.14062-1.4531-0.23438-2.2031-0.23438-0.98438 0-1.9688 0.14062-2.9531 0.42188-0.28125 0.046875-0.5625 0.14062-0.79688 0.1875l-0.046875 0.046875c-1.5 0.046875-3.0469 0.14062-4.5938 0.23438-12.609 0.65625-23.531 0.9375-32.859 0.9375-13.828 0-24.047-0.70312-30.562-2.1094l-0.60938-0.09375c-24.328-3.8438-37.031-12.516-38.016-26.156v-0.09375c-1.0312-12.328 12.609-19.969 40.922-22.828l0.70312-0.09375c1.4531-0.23438 3.4219-0.375 5.8594-0.375zm381.19 23.25c33.375 4.9688 56.672 14.672 69.891 29.156h-0.046874c6.6094 8.9062 4.7812 17.438-5.5781 25.547-1.1719 0.89062-2.4375 1.8281-3.7969 2.7188h-0.046876c-8.2031 3.8438-19.172 5.7656-32.906 5.7656-6.4219 0-13.5-0.42188-21.141-1.2656h-0.046876c-14.484-2.5312-25.688-4.9219-33.703-7.2188h-0.046876c-0.1875-0.09375-0.375-0.14062-0.5625-0.23438-0.84375-0.375-1.6875-0.60938-2.5781-0.75h-0.046876c-0.09375-0.046875-0.1875-0.046875-0.28125-0.09375-16.5-5.4844-36.609-11.719-60.375-18.75l-0.046874 0.046875c1.875-7.0312 2.8594-14.391 2.8594-22.031v-1.7344h-0.046874c36.094-4.5 60.703-7.3594 73.688-8.625l0.70312-0.046875c4.875-0.79688 9.5156-1.6406 14.062-2.4844zm-174.1-50.719c35.156 0 63.656 28.5 63.656 63.609 0 35.156-28.5 63.656-63.656 63.656-35.109 0-63.609-28.5-63.609-63.656 0-35.109 28.5-63.609 63.609-63.609zm-81 91.453c1.1719 3.375 2.5312 6.6562 4.0781 9.7969l-0.046875 0.046875-46.266 33.516h-0.046875c-0.70312 0.32812-1.3125 0.75-1.9688 1.2656-4.0781 2.8594-22.875 11.109-56.438 24.656v0.046875c-10.781 4.0781-19.125 6.6094-25.031 7.6406-6.75 1.0781-12.422 1.5938-17.016 1.5938-8.2969 0-13.172-1.7344-14.625-5.1562-3.75-9.1406 2.5781-21 18.891-35.531h-0.046875c11.391-7.875 19.688-12.656 24.938-14.391l0.89062-0.32812c4.2656-1.875 20.766-6.7969 49.5-14.766h-0.046875c27.281-1.7812 48.375-4.5938 63.188-8.3906zm155.44 14.625c24.469 7.1719 45.094 13.594 61.828 19.125l0.09375 0.046875c0.89062 0.28125 1.875 0.60938 2.9062 0.89062l-0.046875 0.046875c39.141 16.781 64.359 34.359 75.656 52.641 3.6562 6.0469 4.125 11.812 1.4062 17.297l-0.046875 0.046875c-3.7969 5.9062-9.0469 9.2812-15.656 10.031-18.375-0.89062-37.312-8.2031-56.859-21.891l-0.23438-0.14062c-6.4219-4.2656-13.875-9.9844-22.266-17.156h-0.046875l-53.344-51h-0.046875c2.4375-3.1406 4.6406-6.4688 6.6094-9.9375zm-139.22 13.547c2.3438 2.6719 4.8281 5.2031 7.4531 7.5938h-0.046875c-13.594 22.406-24.984 43.031-34.219 61.875l-0.046875 0.046875c-0.32812 0.32812-0.60938 0.70312-0.89062 1.0781-27.047 39.328-50.156 61.875-69.328 67.641h-0.046875c-4.1719 1.0312-7.7344 1.5469-10.594 1.5469-3.6094 0-6.1875-0.84375-7.6875-2.4844l-0.89062-0.84375c-4.7812-4.2656-6.1875-11.766-4.2656-22.594l0.14062-1.0781c0.98438-12.797 12.047-28.641 33.281-47.578l0.1875-0.1875c5.8594-5.4844 11.906-10.547 18.094-15.094l68.812-49.922zm117 11.906 50.859 48.609h-0.046875c0.09375 0.14062 0.1875 0.28125 0.32812 0.42188 22.453 29.391 34.594 57.703 36.422 84.938h-0.046875c-0.23438 11.578-4.1719 17.344-11.812 17.344h-0.046875c-2.8594 0-6.1875-0.51562-9.9844-1.5-10.922-2.8125-24.656-16.078-41.156-39.703h-0.046875c-19.219-35.016-33.609-68.109-43.172-99.141h-0.046875c6.7031-2.8594 12.984-6.5625 18.703-10.969zm-91.453 8.25c5.0625 2.5781 10.406 4.7344 15.984 6.2812h-0.046875c-0.09375 51.234-6.7969 93.094-20.016 125.53l-0.046875 0.09375c-10.828 27.281-22.688 40.922-35.625 40.922-1.125 0-2.25-0.09375-3.375-0.32812l-0.046875 0.046875c-5.0156-1.3594-8.4844-4.5-10.359-9.4688-4.6406-13.547-6.0938-25.031-4.4062-34.359 5.7188-31.5 25.031-74.438 57.938-128.72zm51.562 8.625c9.3281 30.469 23.062 62.672 41.156 96.562h-0.046875c5.0625 21.422 5.3906 39.656 1.0781 54.797h-0.046875c-7.125 16.172-15.938 25.312-26.438 27.375-10.219-1.4062-19.781-9.7969-28.734-25.172l-0.046875 0.046875c-6.4688-14.25-9.75-34.641-9.8438-61.172 0-0.1875-0.046875-0.42188-0.046875-0.60938h-0.046875c6-26.484 9.1406-56.812 9.375-90.984h1.3125c4.1719 0 8.25-0.28125 12.281-0.84375zm231.37 197.53c-2.4844 26.438-5.7656 51.234-14.906 73.312-10.641 25.688-29.625 48.469-49.406 65.016-19.5 16.359-39.375 26.203-61.031 31.969-16.875 4.5-34.875 6.5156-53.766 8.0156l2.25-2.5781 12.141-13.172 12.469-12.844 12.75-12.375 13.031-12.047 13.359-11.719 13.641-11.297 13.922-10.969 14.344-10.688c4.875-3.6562 5.9062-10.547 2.25-15.422-2.1562-2.8594-5.4375-4.4062-8.8125-4.4062-2.2969 0-4.5938 0.70312-6.5625 2.1562l-14.484 10.781c-0.046875 0.046875-0.14062 0.14062-0.23438 0.1875l-14.156 11.156c-0.09375 0.046875-0.14062 0.09375-0.23438 0.1875l-13.875 11.484c-0.046875 0.09375-0.14062 0.14062-0.23438 0.1875l-13.547 11.906c-0.09375 0.046875-0.14062 0.14062-0.23438 0.1875l-13.219 12.234-0.23438 0.23438-12.891 12.562-0.23438 0.23438-10.266 10.547c5.3438-18.469 12.094-36.141 22.547-53.016 17.719-28.594 46.312-55.172 75.891-70.312 25.359-12.938 51.797-17.766 79.688-21.516zm-453.24 28.031c13.641 0 26.766 0.89062 39.562 3.6094 23.062 4.9219 45.281 16.078 64.594 33.797 19.453 17.719 36.094 42.188 47.062 70.031 4.6406 11.906 8.2969 24.422 11.344 37.406l-1.0781-1.4531c-0.09375-0.14062-0.1875-0.23438-0.28125-0.375l-10.969-13.922c-0.09375-0.14062-0.23438-0.28125-0.32813-0.375l-11.578-13.453c-0.14063-0.14062-0.23438-0.23438-0.32813-0.375l-12.188-12.891c-0.09375-0.14062-0.23437-0.23438-0.32812-0.375l-12.75-12.375c-0.09375-0.09375-0.23438-0.1875-0.375-0.32812l-13.266-11.766c-0.09375-0.14062-0.23437-0.23438-0.32812-0.32812l-13.781-11.203c-0.14063-0.09375-0.28125-0.1875-0.375-0.28125l-14.297-10.594c-1.9688-1.4531-4.2656-2.1562-6.5156-2.1562-3.375 0-6.7031 1.5-8.8594 4.4062-3.6094 4.875-2.5781 11.766 2.2969 15.422l14.062 10.406 13.359 10.922 12.938 11.484 12.375 12 11.859 12.562 11.25 13.078 10.734 13.594 10.078 14.016 8.3906 12.797c-23.812-6.75-46.172-13.875-65.297-23.625-24.469-12.562-43.922-29.578-61.547-50.062-17.672-20.625-33.094-44.203-42.609-64.781-7.3125-15.797-11.25-29.953-14.484-44.25h-0.046874c7.3594-0.32812 14.625-0.5625 21.703-0.5625zm185.86-582.32c-2.0625 0-4.1719 0.1875-6.3281 0.60938-12.609 2.1562-22.734 11.016-30.375 26.531h-0.046875c-5.9062 10.969-8.8594 24-8.9062 39.234-0.046875 1.2656-0.046875 3 0 5.1562-1.6406-2.1094-3.2812-4.125-4.9688-6.0469-18.562-21.422-36.609-32.109-54.188-32.109-8.4844 0-16.875 2.4844-25.172 7.5469l-1.0312 0.70312c-20.578 16.031-21.656 42.422-3.2812 79.172l0.23438 0.375c0.1875 0.375 0.375 0.75 0.60938 1.0781-7.875-4.0312-15.469-6.9844-22.828-8.8125l-0.046875 0.046875c-7.3594-1.9688-14.109-2.9062-20.25-2.9062-16.969 0-29.297 7.2656-37.078 21.797l-0.42188 0.9375c-8.1094 19.266-3.9844 38.156 12.469 56.672l0.70312 0.70312c9.2812 8.7188 18.656 16.641 28.031 23.672-4.2188-0.28125-7.9219-0.42188-11.109-0.42188-3.4688 0-6.3281 0.1875-8.5781 0.51562h-0.046875c-42.375 4.3594-62.438 19.875-60.234 46.5 1.9219 25.125 20.719 40.5 56.391 46.125 1.875 0.42188 3.9844 0.75 6.2812 1.0312l-0.046875 0.046875c-5.3438 2.9531-11.484 6.8438-18.516 11.719l-0.98438 0.75c-24.609 21.703-33.047 42-25.359 60.891l0.046875 0.046875c5.1094 12.375 17.25 18.562 36.422 18.562 5.7656 0 12.141-0.51562 19.172-1.6406l0.14062-0.046875c5.3438-0.89062 11.953-2.7188 19.875-5.4375l0.046875 0.046875c-14.953 16.5-22.969 31.828-24.094 45.938l-0.046875 0.046875c-3.0469 18.281 0.75 32.203 11.391 41.719l-0.046875 0.046875c5.7656 5.9531 13.594 8.9062 23.438 8.9062 4.9219 0 10.359-0.75 16.359-2.25l0.46875-0.14062c12.234-3.6562 25.266-12.047 39.047-25.125h0.046875c-0.9375 3.7031-1.6875 7.2656-2.3438 10.734-2.3906 13.125-0.65625 28.266 5.25 45.469l0.09375 0.1875c4.5 12.375 13.125 20.203 25.781 23.438l0.51562 0.14062c3.0469 0.60938 6.0469 0.89062 8.9531 0.89062 20.016 0 36.891-14.625 50.625-43.969h0.046875c1.8281 7.6406 4.0781 14.484 6.8906 20.531l0.42188 0.89062c6.4688 11.25 13.5 19.969 21.188 26.109h-0.046875l3.1406 28.266 2.4375 31.453 1.4531 31.5 0.375 31.5-0.60938 31.547-1.6875 31.5-2.6719 31.406-3.7031 31.453-1.3125 8.625c0-0.09375-0.046875-0.14062-0.09375-0.23438l-7.6875-16.031c-0.046875-0.14062-0.14062-0.28125-0.23438-0.42188l-5.4844-10.266-0.046875 0.046875c-5.25-31.969-10.828-65.203-22.641-95.25-12.047-30.703-30.516-58.031-52.641-78.234-22.172-20.25-47.906-33.281-74.812-39.047-14.672-3.1406-29.625-4.0781-44.391-4.0781-12.047 0-24 0.60938-35.578 1.2188-3.2344 0.1875-6.1875 1.7344-8.1562 4.3125-1.9688 2.5312-2.7188 5.8594-2.0156 9 3.9844 18.75 8.25 38.625 18.797 61.5 10.5 22.641 27.094 47.953 45.891 69.891 18.938 22.031 40.594 41.156 68.25 55.266 27.141 13.875 59.719 22.734 90.891 31.172h-0.046875l2.4844 4.6406 7.5 15.562 6.75 15.938 6.1875 16.359c0.046875 0.1875 0.09375 0.32812 0.1875 0.46875h-0.046875l-2.25 12.047-6.75 30.938-7.7812 30.703-8.7656 30.422-9.8438 30.281c-1.875 5.7656 1.3125 12 7.0781 13.875 1.125 0.32812 2.25 0.51562 3.375 0.51562 4.6406 0 8.9531-2.9531 10.5-7.5938l9.8438-30.469c0.046875-0.14062 0.09375-0.23438 0.09375-0.32812l8.9062-30.797c0.046875-0.09375 0.046875-0.23438 0.09375-0.32812l7.875-31.078c0-0.09375 0.046875-0.23438 0.046875-0.32812l6.8906-31.312c0-0.09375 0.046875-0.23438 0.046875-0.32812l5.8125-31.5c0.046875-0.14062 0.046875-0.23438 0.09375-0.375l4.7812-31.641c0-0.14062 0-0.23438 0.046875-0.375l1.5938-13.734 9.5625-12.891 11.062-14.109 1.4531-1.7344h0.046875c0.84375 0.1875 1.6875 0.32812 2.625 0.32812 0.23438 0 0.51562-0.046875 0.75-0.046875 24.891-1.6875 51.047-3.4688 75.422-9.9375 24.75-6.6094 47.531-17.953 69.562-36.375 21.75-18.234 43.266-43.734 55.594-73.453 12.234-29.578 15-62.578 17.719-93.469 0.28125-3.3281-0.9375-6.6094-3.3281-8.9062-2.0625-1.9688-4.8281-3.0938-7.6406-3.0938-0.46875 0-0.9375 0.046875-1.4062 0.09375-32.484 4.1719-67.125 8.4844-100.5 25.547-33.281 17.016-64.828 46.359-84.609 78.328-19.875 32.062-27.609 66.422-34.969 98.766-0.046875 0.32812-0.14062 0.60938-0.1875 0.9375l-6.9844 8.3906 0.70312-8.5781c0.046875-0.09375 0.046875-0.23438 0.046875-0.375l1.6875-31.828v-0.375l0.60938-31.875v-0.375l-0.375-31.875v-0.32812l-1.4531-31.875c0-0.14062 0-0.23438-0.046875-0.375l-2.4375-31.781c-0.046875-0.14062-0.046875-0.23438-0.046875-0.375l-1.7344-15.422h0.046875c1.0781 0.14062 2.1562 0.28125 3.1875 0.375 0.32812 0 0.60938 0.046875 0.9375 0.046875 0.51562 0 1.0312-0.046875 1.5469-0.14062 19.359-2.7656 34.406-16.641 45.188-41.578l0.42188-1.2656c2.3906-8.1094 3.7031-16.781 3.9375-26.062h0.046875c11.672 12.281 22.594 19.781 32.859 22.406 5.5781 1.4531 10.688 2.2031 15.375 2.2031h0.28125c22.359 0 33.609-13.312 33.75-40.031l-0.046875-0.79688c-1.125-16.734-5.4844-33.656-13.031-50.766h0.046875c17.344 9.3281 34.594 14.297 51.703 15l1.4062-0.046875c14.672-1.3125 25.875-8.4375 33.656-21.375l0.42188-0.75c6.4219-12.797 5.6719-25.734-2.3438-38.719v-0.046875c-6.7031-10.875-17.016-21.375-30.891-31.453l-0.046875 0.046875c17.25-0.1875 31.359-2.9531 42.375-8.3906l1.2188-0.70312c2.0156-1.3125 3.8906-2.6719 5.6719-4.0781v0.046875c22.125-17.344 25.078-36.328 8.9062-57.047l-0.51562-0.60938c-10.453-11.484-25.219-20.484-44.25-27.047h-0.046875c12.375-5.8594 21.562-13.031 27.609-21.422l0.046875-0.046875c1.3594-1.9219 2.625-3.8438 3.75-5.6719 15.75-25.781 11.859-45.891-11.672-60.234-0.42188-0.23438-0.89062-0.46875-1.3594-0.70312-9.8906-4.2656-21.469-6.4219-34.781-6.4219-6 0-12.328 0.42188-19.031 1.3125 3.6562-4.6406 7.2656-9.6094 10.828-14.859 6.0938-9.0469 9.7031-18.703 10.922-29.062v0.046875c2.1562-15.469-1.4062-27.562-10.781-36.328l-0.046875 0.046875c-6.0938-6.5156-14.906-9.7969-26.344-9.7969-4.4531 0-9.3281 0.51562-14.578 1.4531l-0.42188 0.09375c-15.891 3.6562-31.406 11.578-46.5 23.672 1.2656-5.0156 2.2969-9.8906 3.0938-14.531l0.046875-0.46875c0.98438-7.4062 0.5625-15.797-1.1719-25.219h-0.046875c-0.51562-3.0938-1.125-6-1.9219-8.7656-5.6719-19.969-17.062-29.953-34.125-29.953-4.9688 0-10.406 0.84375-16.312 2.5312l-0.1875 0.09375c-12.094 3.6562-22.969 13.594-32.625 29.859-3.2812-9.2812-7.9219-17.766-13.969-25.453l-0.1875-0.1875c-9-10.922-18.984-16.406-29.906-16.406z"/>
</svg>
