<?xml version="1.0" encoding="UTF-8"?>
<svg width="1200pt" height="1200pt" version="1.1" viewBox="0 0 1200 1200" xmlns="http://www.w3.org/2000/svg">
 <g fill-rule="evenodd">
  <path d="m544.62 1056.3c10.77 1.25 20.625-6.4805 21.898-17.297 1.2773-10.801-6.4805-20.637-17.297-21.914-101.89-12.254-195.59-61.469-263.89-138.57-67.961-76.746-105.41-175.64-105.41-278.46 0.003906-102.82 37.441-201.72 105.41-278.46 48.281-54.504 110.05-95.695 178.65-119.12 4.8438-1.6562 10.191 0.078125 13.156 4.2578 2.9648 4.1797 2.8164 9.8164-0.33984 13.844l-29.195 37.07c-6.6992 8.5469-5.2344 20.973 3.3203 27.695 8.5547 6.7188 20.984 5.2344 27.707-3.3203l82.715-105.04c0.14453-0.16406 0.26172-0.32812 0.40625-0.48828 1.4961-1.6875 2.6758-3.6172 3.5156-5.7422 4.0508-10.117-0.89063-21.645-11.012-25.691l-125.88-50.168c-4.8672-1.9258-10.195-1.8477-15.012 0.23438-4.8164 2.0781-8.5508 5.9141-10.48 10.793-1.9258 4.875-1.8555 10.215 0.23828 15.031 2.0703 4.8164 5.9023 8.5352 10.77 10.473l33.758 13.484c4.4766 1.7891 7.3672 6.1602 7.2695 10.977-0.09375 4.8164-3.1797 9.0664-7.7109 10.668-73.312 25.863-139.47 70.477-191.32 129.01-74.473 84.094-115.5 192.24-115.5 304.5 0.003906 112.27 41.031 220.41 115.5 304.5 74.809 84.453 177.35 138.34 288.73 151.74zm2.3125 23.273c-1.6641 0-3.3516-0.09375-5.0625-0.28906 0.003906-0.027343 0-0.023437-0.023438-0.023437-116.99-14.07-224.71-70.668-303.25-159.37-78.25-88.332-121.33-201.92-121.33-319.84 0.003906-117.92 43.078-231.51 121.33-319.84 47.824-54.004 107.26-96.723 173.23-124.73l-6.4805-2.582c-10.578-4.2031-18.938-12.297-23.469-22.785-4.5273-10.488-4.6992-22.117-0.48438-32.734 4.2188-10.621 12.312-18.965 22.793-23.496 10.48-4.5312 22.117-4.707 32.742-0.49219l125.91 50.176c21.977 8.7812 32.695 33.797 23.926 55.762-1.8008 4.4727-4.2891 8.5664-7.4219 12.18l-82.512 104.8c-14.605 18.57-41.613 21.801-60.188 7.2031-18.574-14.609-21.805-41.605-7.2031-60.184l2.3398-2.9609c-48.934 22.914-93.027 55.793-129.12 96.547-64.23 72.516-99.598 165.96-99.598 263.13 0.003906 97.168 35.367 190.62 99.598 263.13 64.551 72.855 153.09 119.36 249.31 130.94 23.441 2.7695 40.281 24.129 37.512 47.602-2.5508 21.781-21.129 37.852-42.547 37.848z"/>
  <path d="m736.88 910.52c-5.8281 0-11.637 2.5859-15.516 7.5312l-83.816 106.38c-6.75 8.5586-5.2539 21.016 3.2969 27.762 2 1.5664 4.2148 2.7227 6.625 3.4219 0.33984 0.11719 0.67578 0.24219 1.0117 0.35938l123.14 49.219c10.047 3.9766 21.488-0.96094 25.488-11.031 1.9297-4.8672 1.8555-10.215-0.23828-15.035-2.0664-4.8203-5.9023-8.5273-10.77-10.48l-33.75-13.469c-4.4844-1.7852-7.3789-6.168-7.2812-10.984 0.097656-4.8203 3.1797-9.0625 7.7109-10.664 73.316-25.867 139.47-70.477 191.32-129 74.477-84.098 115.5-192.24 115.5-304.5s-41.031-220.41-115.5-304.5c-74.805-84.453-177.35-138.34-288.7-151.75-5.25-0.62109-10.41 0.84375-14.551 4.1055-4.1445 3.2656-6.7461 7.9531-7.375 13.188-1.2734 10.809 6.4805 20.645 17.301 21.926 101.89 12.258 195.59 61.465 263.86 138.57 67.988 76.746 105.43 175.64 105.43 278.46s-37.441 201.72-105.43 278.46c-48.254 54.504-110.03 95.695-178.62 119.12-4.8398 1.6562-10.215-0.074219-13.156-4.2578-2.9609-4.1836-2.8438-9.8164 0.33594-13.84l29.203-37.074c6.6992-8.543 5.2266-20.973-3.3242-27.695-3.6133-2.832-7.9023-4.2109-12.188-4.2109zm41.926 219.17c-5.2539 0-10.582-0.96094-15.738-3.0078l-122.7-49.055c-5.0352-1.5391-9.6641-3.9961-13.832-7.2734-18.574-14.625-21.805-41.652-7.1562-60.238l83.793-106.37c7.0859-8.9922 17.227-14.695 28.598-16.055 11.398-1.3555 22.598 1.7852 31.586 8.8594 18.578 14.605 21.805 41.602 7.2031 60.184l-2.3359 2.9609c48.934-22.918 93.023-55.793 129.11-96.551 64.234-72.516 99.602-165.96 99.602-263.13 0.003906-97.172-35.367-190.61-99.602-263.13-64.547-72.859-153.09-119.36-249.31-130.94-23.438-2.7734-40.281-24.129-37.512-47.602 1.332-11.379 7.0352-21.543 16.023-28.633 8.9883-7.0938 20.191-10.254 31.586-8.9141 0 0 0 0.003906 0.023438 0.003906 117 14.078 224.71 70.676 303.26 159.38 78.258 88.332 121.33 201.92 121.33 319.84s-43.078 231.51-121.33 319.84c-47.82 54-107.26 96.723-173.23 124.72l6.4844 2.6016c10.578 4.1914 18.934 12.289 23.465 22.77 4.5312 10.504 4.6992 22.117 0.48438 32.742-6.6484 16.77-22.77 27.008-39.797 27.008z"/>
  <path d="m600.02 350.74c-137.45 0-249.29 111.82-249.29 249.27 0.003907 137.45 111.84 249.27 249.29 249.27 137.43-0.003906 249.27-111.82 249.27-249.27 0.003906-137.45-111.84-249.27-249.27-249.27zm0 521.67c-150.22 0-272.42-122.2-272.42-272.4 0.003906-150.2 122.2-272.4 272.42-272.4 150.2 0 272.39 122.2 272.39 272.4 0 150.2-122.2 272.4-272.39 272.4z"/>
  <path d="m600.02 414.61c-102.25 0-185.42 83.176-185.42 185.41 0.003906 102.23 83.168 185.4 185.42 185.4 102.23 0 185.39-83.172 185.39-185.4s-83.168-185.4-185.39-185.41zm0 393.94c-114.99 0-208.55-93.547-208.55-208.53s93.551-208.53 208.55-208.53c114.97 0 208.52 93.547 208.52 208.53 0.003906 114.98-93.551 208.54-208.52 208.53z"/>
 </g>
</svg>
