<?xml version="1.0" encoding="UTF-8"?>
<svg width="1200pt" height="1200pt" version="1.1" viewBox="0 0 1200 1200" xmlns="http://www.w3.org/2000/svg">
 <path d="m1052.3 230.29h-904.69c-6.6562 0-12 5.3906-12 12v715.4c0 6.6094 5.3438 12 12 12h904.69c6.6562 0 12-5.3906 12-12v-715.4c0-6.6094-5.3438-12-12-12zm-12 182.44h-637.08v-158.44h637.08zm-661.08-158.44v158.44h-219.61v-158.44h219.66zm-219.61 182.44h219.66v508.97h-219.66zm243.61 508.97v-508.97h637.08v508.97z"/>
 <path d="m220.6 343.64h97.781c6.6562 0 12-5.3906 12-12s-5.3438-12-12-12h-97.781c-6.6562 0-12 5.3906-12 12s5.3438 12 12 12z"/>
 <path d="m477.66 343.64h97.781c6.6562 0 12-5.3906 12-12s-5.3438-12-12-12h-97.781c-6.6562 0-12 5.3906-12 12s5.3438 12 12 12z"/>
 <path d="m673.22 343.64h97.781c6.6562 0 12-5.3906 12-12s-5.3438-12-12-12h-97.781c-6.6562 0-12 5.3906-12 12s5.3438 12 12 12z"/>
 <path d="m868.78 343.64h97.781c6.6562 0 12-5.3906 12-12s-5.3438-12-12-12h-97.781c-6.6562 0-12 5.3906-12 12s5.3438 12 12 12z"/>
 <path d="m220.6 523.18h97.781c6.6562 0 12-5.3906 12-12s-5.3438-12-12-12h-97.781c-6.6562 0-12 5.3906-12 12s5.3438 12 12 12z"/>
 <path d="m575.39 499.18h-97.781c-6.6562 0-12 5.3906-12 12s5.3438 12 12 12h97.781c6.6562 0 12-5.3906 12-12s-5.3438-12-12-12z"/>
 <path d="m771 499.18h-97.781c-6.6562 0-12 5.3906-12 12s5.3438 12 12 12h97.781c6.6562 0 12-5.3906 12-12s-5.3438-12-12-12z"/>
 <path d="m966.56 499.18h-97.781c-6.6562 0-12 5.3906-12 12s5.3438 12 12 12h97.781c6.6562 0 12-5.3906 12-12s-5.3438-12-12-12z"/>
 <path d="m318.37 619.26h-97.781c-6.6562 0-12 5.3906-12 12s5.3438 12 12 12h97.781c6.6562 0 12-5.3906 12-12s-5.3438-12-12-12z"/>
 <path d="m575.39 619.26h-97.781c-6.6562 0-12 5.3906-12 12s5.3438 12 12 12h97.781c6.6562 0 12-5.3906 12-12s-5.3438-12-12-12z"/>
 <path d="m771 619.26h-97.781c-6.6562 0-12 5.3906-12 12s5.3438 12 12 12h97.781c6.6562 0 12-5.3906 12-12s-5.3438-12-12-12z"/>
 <path d="m966.56 619.26h-97.781c-6.6562 0-12 5.3906-12 12s5.3438 12 12 12h97.781c6.6562 0 12-5.3906 12-12s-5.3438-12-12-12z"/>
 <path d="m318.37 739.36h-97.781c-6.6562 0-12 5.3906-12 12s5.3438 12 12 12h97.781c6.6562 0 12-5.3906 12-12s-5.3438-12-12-12z"/>
 <path d="m575.39 739.36h-97.781c-6.6562 0-12 5.3906-12 12s5.3438 12 12 12h97.781c6.6562 0 12-5.3906 12-12s-5.3438-12-12-12z"/>
 <path d="m771 739.36h-97.781c-6.6562 0-12 5.3906-12 12s5.3438 12 12 12h97.781c6.6562 0 12-5.3906 12-12s-5.3438-12-12-12z"/>
 <path d="m966.56 739.36h-97.781c-6.6562 0-12 5.3906-12 12s5.3438 12 12 12h97.781c6.6562 0 12-5.3906 12-12s-5.3438-12-12-12z"/>
 <path d="m318.37 859.45h-97.781c-6.6562 0-12 5.3906-12 12s5.3438 12 12 12h97.781c6.6562 0 12-5.3906 12-12s-5.3438-12-12-12z"/>
 <path d="m575.39 859.45h-97.781c-6.6562 0-12 5.3906-12 12s5.3438 12 12 12h97.781c6.6562 0 12-5.3906 12-12s-5.3438-12-12-12z"/>
 <path d="m771 859.45h-97.781c-6.6562 0-12 5.3906-12 12s5.3438 12 12 12h97.781c6.6562 0 12-5.3906 12-12s-5.3438-12-12-12z"/>
 <path d="m966.56 859.45h-97.781c-6.6562 0-12 5.3906-12 12s5.3438 12 12 12h97.781c6.6562 0 12-5.3906 12-12s-5.3438-12-12-12z"/>
</svg>
