<?xml version="1.0" encoding="UTF-8"?>
<svg width="1200pt" height="1200pt" version="1.1" viewBox="0 0 1200 1200" xmlns="http://www.w3.org/2000/svg">
 <path d="m878.7 434.69c-91.055 0-165.32 74.258-165.32 165.31s74.27 165.31 165.32 165.31c91.059 0 165.3-74.258 165.3-165.31s-74.242-165.31-165.3-165.31z" fill-rule="evenodd"/>
 <path d="m484.98 495.55c-57.527 0-104.46 46.906-104.46 104.46 0 57.527 46.934 104.45 104.46 104.45 57.539 0 104.46-46.922 104.46-104.45 0-57.551-46.934-104.46-104.46-104.46z" fill-rule="evenodd"/>
 <path d="m217.6 538.39c-33.938 0-61.598 27.684-61.598 61.609s27.672 61.609 61.609 61.609 61.621-27.684 61.621-61.609c-0.003907-33.926-27.699-61.609-61.633-61.609z" fill-rule="evenodd"/>
</svg>
