<?xml version="1.0" encoding="UTF-8"?>
<svg width="1200pt" height="1200pt" version="1.1" viewBox="0 0 1200 1200" xmlns="http://www.w3.org/2000/svg">
 <path d="m144.84 805.41h910.31c33.375 0 60.469-27.094 60.469-60.469v-120.84c0-1.2188-0.1875-2.4375-0.46875-3.5625 0-0.28125-0.1875-0.5625-0.28125-0.75-0.375-1.2188-0.84375-2.3438-1.5938-3.375s-1.6875-2.0625-2.625-2.9062l-0.28125-0.28125-307.5-242.91v-271.31c0-7.7812-6.2812-14.062-14.062-14.062h-377.53c-7.7812 0-14.062 6.2812-14.062 14.062v271.12l-307.5 242.81-0.28125 0.28125c-1.0312 0.84375-1.9688 1.7812-2.625 2.9062-0.65625 1.0312-1.2188 2.25-1.5938 3.375 0 0.28125-0.1875 0.5625-0.28125 0.84375-0.28125 1.125-0.46875 2.3438-0.46875 3.5625v120.84c0 33.375 27.094 60.469 60.469 60.469zm280.5-692.34h349.41v249.84h-349.41zm-9.1875 277.97h367.69l277.22 219h-922.12zm671.34 353.91c0 17.812-14.531 32.344-32.344 32.344h-910.31c-17.812 0-32.344-14.531-32.344-32.344v-106.78h975z"/>
 <path d="m718.97 453.56h-237.94c-7.7812 0-14.062 6.2812-14.062 14.062s6.2812 14.062 14.062 14.062h237.94c7.7812 0 14.062-6.2812 14.062-14.062s-6.2812-14.062-14.062-14.062z"/>
 <path d="m718.97 505.97h-237.94c-7.7812 0-14.062 6.2812-14.062 14.062s6.2812 14.062 14.062 14.062h237.94c7.7812 0 14.062-6.2812 14.062-14.062s-6.2812-14.062-14.062-14.062z"/>
 <path d="m725.16 758.62c22.125 0 39.469-14.812 39.469-33.656v-34.594c0-18.844-17.344-33.656-39.469-33.656s-39.469 14.812-39.469 33.656v34.594c0 18.844 17.344 33.656 39.469 33.656zm-11.344-68.344c0-1.875 4.4062-5.5312 11.344-5.5312s11.344 3.6562 11.344 5.5312v34.594c0 1.875-4.4062 5.5312-11.344 5.5312s-11.344-3.6562-11.344-5.5312z"/>
 <path d="m852.56 758.62c22.125 0 39.469-14.812 39.469-33.656v-34.594c0-18.844-17.344-33.656-39.469-33.656s-39.469 14.812-39.469 33.656v34.594c0 18.844 17.344 33.656 39.469 33.656zm-11.344-68.344c0-1.875 4.4062-5.5312 11.344-5.5312s11.344 3.6562 11.344 5.5312v34.594c0 1.875-4.4062 5.5312-11.344 5.5312s-11.344-3.6562-11.344-5.5312z"/>
 <path d="m980.06 758.62c22.125 0 39.469-14.812 39.469-33.656v-34.594c0-18.844-17.344-33.656-39.469-33.656s-39.469 15.094-39.469 33.656v34.594c0 18.844 17.344 33.656 39.469 33.656zm-11.344-68.344c0-1.875 4.4062-5.5312 11.344-5.5312s11.344 3.6562 11.344 5.5312v34.594c0 1.875-4.4062 5.5312-11.344 5.5312s-11.344-3.6562-11.344-5.5312z"/>
 <path d="m342.38 970.41c6.2812-11.719 14.062-27.844 14.062-55.5 0-7.7812-6.2812-14.062-14.062-14.062s-14.062 6.2812-14.062 14.062c0 22.219-6.2812 33.938-11.812 44.344-5.3438 10.031-10.5 19.594-10.5 39s5.0625 28.875 10.5 39c5.5312 10.312 11.812 22.031 11.812 44.25 0 7.7812 6.2812 14.062 14.062 14.062s14.062-6.2812 14.062-14.062c0-27.75-7.7812-43.781-14.062-55.5-0.375-0.65625-0.75-1.4062-1.125-2.0625-4.7812-8.9062-7.125-13.312-7.125-25.688s2.3438-16.781 7.125-25.688c0.375-0.65625 0.75-1.4062 1.0312-2.0625z"/>
 <path d="m521.53 970.41c6.2812-11.719 14.062-27.844 14.062-55.5 0-7.7812-6.2812-14.062-14.062-14.062s-14.062 6.2812-14.062 14.062c0 22.312-6.2812 33.938-11.812 44.344-5.3438 10.031-10.5 19.594-10.5 39s5.0625 28.875 10.5 39c5.5312 10.312 11.812 22.031 11.812 44.25 0 7.7812 6.2812 14.062 14.062 14.062s14.062-6.2812 14.062-14.062c0-27.75-7.7812-43.781-14.062-55.5-0.375-0.65625-0.75-1.4062-1.125-2.0625-4.7812-8.9062-7.125-13.312-7.125-25.688s2.3438-16.781 7.125-25.688c0.375-0.65625 0.75-1.4062 1.0312-2.0625z"/>
 <path d="m700.78 970.41c6.2812-11.719 14.062-27.844 14.062-55.5 0-7.7812-6.2812-14.062-14.062-14.062s-14.062 6.2812-14.062 14.062c0 22.312-6.2812 33.938-11.812 44.344-5.3438 10.031-10.5 19.594-10.5 39s5.0625 28.875 10.5 39c5.5312 10.312 11.812 22.031 11.812 44.25 0 7.7812 6.2812 14.062 14.062 14.062s14.062-6.2812 14.062-14.062c0-27.75-7.7812-43.781-14.062-55.5-0.375-0.65625-0.75-1.4062-1.125-2.0625-4.7812-8.9062-7.125-13.312-7.125-25.688s2.3438-16.781 7.125-25.688c0.375-0.65625 0.75-1.4062 1.0312-2.0625z"/>
 <path d="m879.94 970.41c6.2812-11.719 14.062-27.75 14.062-55.5 0-7.7812-6.2812-14.062-14.062-14.062s-14.062 6.2812-14.062 14.062c0 22.312-6.2812 33.938-11.812 44.344-5.3438 10.031-10.406 19.5-10.406 38.906s5.0625 28.875 10.5 39c5.5312 10.312 11.812 22.031 11.812 44.25 0 7.7812 6.2812 14.062 14.062 14.062s14.062-6.2812 14.062-14.062c0-27.75-7.7812-43.781-14.062-55.5-0.375-0.65625-0.75-1.4062-1.125-2.0625-4.7812-8.9062-7.125-13.312-7.125-25.688s2.3438-16.781 7.125-25.688c0.375-0.65625 0.75-1.4062 1.125-2.0625z"/>
</svg>
