<?xml version="1.0" encoding="UTF-8"?>
<svg width="1200pt" height="1200pt" version="1.1" viewBox="0 0 1200 1200" xmlns="http://www.w3.org/2000/svg">
 <path d="m1083.7 461.26-209.32-303.16c-3.5781-5.1875-9.4141-8.2188-15.84-8.0938-6.3047 0.13672-12.121 3.4375-15.473 8.7773l-49.398 78.695-141.03-192.32c-3.6172-4.9375-9.3984-7.8008-15.539-7.6562-6.1211 0.13672-11.785 3.2539-15.184 8.3477l-112.55 168.83c-24.57-49.395-75.535-83.434-134.34-83.434-82.711 0-150 67.289-150 150 0 38.328 14.508 73.285 38.254 99.824-16.461 16.688-28.719 40.766-34.516 69.059l-74.617-0.13281c-74.645 0-135.37 60.727-135.37 135.37v558.38c0 10.355 8.3945 18.75 18.75 18.75h1106.2c10.355 0 18.75-8.3945 18.75-18.75v-561.66c0-53.883-32.445-100.3-78.816-120.83zm-224.01-258.43 170.66 247.17h-14.715c-19.957 0-38.938 5.2383-55.484 14.508l-142.63-194.5zm21.574 397.17c-10.355 0-18.75 8.3945-18.75 18.75v69.414c-21.602-13.199-37.5-48.242-37.5-88.164 0-50.816 25.758-93.75 56.25-93.75s56.25 42.934 56.25 93.75c0 39.922-15.898 74.965-37.5 88.164v-69.414c0-10.355-8.3945-18.75-18.75-18.75zm-18.75 128.72v45.219c-15.102-36.359-51.93-66.238-107.64-87.023l-4.5273-1.6719c-13.188-4.8477-25.641-9.4297-34.047-17.133-10.957-10.07-15.84-27.559-12.438-44.582 0.57812-2.9102 1.4141-5.8672 2.4531-8.8359l16.762-8.3828c20.477-10.238 42.484-17.441 65.051-21.418-0.39062 4.9531-0.60938 9.9883-0.60938 15.109 0 64.582 31.711 116.88 75 128.72zm-224.27-639.77 92.781 126.52-9.1602 21.367-19.715-9.8594c-8.4648-4.2344-18.742-1.5-23.984 6.3711l-22.801 34.199-40.352-53.801c-5.9727-7.9609-17.125-9.8711-25.402-4.3516l-35.82 23.879-3.9219-11.766zm-114.73 172.09 2.457 7.3789c1.8477 5.5469 6.1758 9.9102 11.703 11.809 5.5195 1.8945 11.621 1.1094 16.484-2.1367l41.492-27.66 45.609 60.812c3.5469 4.7305 9.1094 7.5 14.996 7.5 0.17188 0 0.34766-0.003906 0.52344-0.007812 6.0859-0.16797 11.703-3.2773 15.082-8.3438l28.32-42.477 22.695 11.348c4.625 2.3125 9.9883 2.6094 14.832 0.83594 4.8477-1.7773 8.75-5.4727 10.785-10.219l8.2773-19.305 174.07 237.37c-0.015626 0.015625-0.03125 0.03125-0.042969 0.046875-14.297-12.234-31.223-19.25-49.543-19.25-38.703 0-71.207 31.27-85.676 77.121-31 3.8438-61.367 12.941-89.289 26.898l-21.547 10.773c-40.949 20.477-89.129 19.137-128.88-3.5781-41.465-23.691-88.625-36.215-136.38-36.215h-15.734c5.6172-16.969 8.7461-36 8.7461-56.25 0-17.723-2.4102-34.504-6.7695-49.797zm-261 20.203c0-62.031 50.465-112.5 112.5-112.5 52.246 0 96.266 35.805 108.86 84.164l-93.125 139.69c-2.0273 0.28906-4.0703 0.51953-6.1289 0.69531-16.809-23.02-39.941-37.047-65.855-37.047-8.2031 0-16.129 1.4023-23.66 4.0508-20.121-20.332-32.59-48.25-32.59-79.051zm56.25 112.5c30.492 0 56.25 42.934 56.25 93.75 0 39.922-15.898 74.965-37.5 88.164v-69.414c0-10.355-8.3945-18.75-18.75-18.75s-18.75 8.3945-18.75 18.75v69.414c-21.602-13.199-37.5-48.238-37.5-88.164 0-50.816 25.758-93.75 56.25-93.75zm-262.5 731.25v-539.63c0-53.965 43.906-97.871 97.871-97.871l70.879 0.050781c0.015625 64.559 31.723 116.83 75 128.67v96.281c0 10.355 8.3945 18.75 18.75 18.75s18.75-8.3945 18.75-18.75v-96.281c18.434-5.043 34.766-17.43 47.445-34.969h34.543c7.9492 0 15.879 0.41406 23.762 1.207-5.8984 4.6016-11.547 9.543-16.863 14.902-7.457 7.5664-13.746 15.098-19.223 23.023-10.578 15.289-15.762 29.527-15.848 43.508-0.14453 20.238 10.434 40.234 29.793 56.305 24.559 20.383 55.273 29.57 84.977 38.457 32.523 9.7305 63.238 18.918 79.758 41.562 17.562 24.062 12.945 56.684 2.7773 79.18-12.785 28.23-35.797 51.848-60.258 75.551-67.211 65.129-149.29 136.12-249.12 170.05h-222.99zm314.78 0c71.105-39.25 131.59-92.891 183.43-143.12 26.078-25.273 52.832-52.809 68.324-87.02 18.539-40.996 15.992-85.734-6.6484-116.75-23.961-32.844-62.262-44.301-99.305-55.383-27.301-8.168-53.094-15.883-71.77-31.383-10.387-8.6211-16.305-18.527-16.246-27.203 0.039062-6.207 3.043-13.543 9.1914-22.43 4.2383-6.1289 9.1719-12.027 15.051-17.992 12.414-12.523 26.949-22.473 43.258-29.668 14.16 4.8398 27.883 11.004 40.945 18.469 2.1055 1.2031 4.2344 2.3398 6.375 3.4492-9.793 8.9492-19.273 21.906-18.594 38.266 1.4102 33.922 44.684 51.23 58.906 56.918 2.2812 0.91406 4.6367 1.3477 6.957 1.3438 7.4414 0 14.484-4.4609 17.418-11.793 3.8477-9.6172-0.82812-20.527-10.445-24.371-33.969-13.59-35.359-23.555-35.363-23.652-0.17578-3.8516 8.9492-12.531 18.094-17.199 2.1016-1.0625 3.9062-2.4766 5.4023-4.1211 26.125 5.8047 53.281 5.5039 79.387-0.96484-1.1055 25.148 8.0898 49.293 25.543 65.336 13.879 12.715 31.188 19.082 46.457 24.699l4.375 1.6133c35.602 13.281 79.984 37.223 89.242 75.848 4.7695 19.887 3.7188 46.398-35.938 105.21-24.441 36.238-54.852 81.336-48.477 131.61 3.4062 26.816 16.336 51.336 39.523 74.961 5.2656 5.3633 10.883 10.473 16.668 15.324zm753.97 0h-257.91c-40.812-25.875-78.27-55.406-83.301-95.008-4.6055-36.273 20.348-73.27 42.363-105.91 18.426-27.324 35.273-56.129 41.57-86.113 3.4141 3.5586 8.207 5.7852 13.527 5.7852 10.355 0 18.75-8.3945 18.75-18.75v-96.281c43.289-11.844 75-64.141 75-128.72 0-31.426-7.5273-59.922-20.223-82.285 14.141-18.5 36.402-30.215 60.848-30.215h14.793c52.152 0 94.582 42.43 94.582 94.586z"/>
 <path d="m375 112.5c10.355 0 18.75-8.3945 18.75-18.75v-37.5c0-10.355-8.3945-18.75-18.75-18.75s-18.75 8.3945-18.75 18.75v37.5c0 10.355 8.3945 18.75 18.75 18.75z"/>
 <path d="m265.01 128.25c3.4727 6.0156 9.7734 9.3789 16.258 9.3789 3.1797 0 6.4023-0.8125 9.3555-2.5156 8.9688-5.1758 12.043-16.645 6.8633-25.613l-18.75-32.477c-5.1758-8.9688-16.641-12.043-25.613-6.8633-8.9688 5.1758-12.043 16.645-6.8633 25.613z"/>
 <path d="m459.38 135.11c2.9531 1.707 6.1758 2.5156 9.3555 2.5156 6.4805 0 12.781-3.3633 16.258-9.3789l18.75-32.477c5.1797-8.9688 2.1055-20.434-6.8633-25.613s-20.438-2.1055-25.613 6.8633l-18.75 32.477c-5.1797 8.9648-2.1055 20.434 6.8633 25.613z"/>
 <path d="m170.77 184.99 32.477 18.75c2.9531 1.707 6.1758 2.5156 9.3555 2.5156 6.4805 0 12.781-3.3633 16.258-9.3789 5.1797-8.9688 2.1055-20.434-6.8633-25.613l-32.477-18.75c-8.9688-5.1797-20.434-2.1055-25.613 6.8633s-2.1055 20.434 6.8633 25.613z"/>
 <path d="m150 300h37.5c10.355 0 18.75-8.3945 18.75-18.75s-8.3945-18.75-18.75-18.75h-37.5c-10.355 0-18.75 8.3945-18.75 18.75s8.3945 18.75 18.75 18.75z"/>
 <path d="m170.77 377.51c-8.9688 5.1758-12.043 16.645-6.8633 25.613 3.4727 6.0156 9.7734 9.3789 16.258 9.3789 3.1797 0 6.4023-0.8125 9.3555-2.5156l32.477-18.75c8.9688-5.1758 12.043-16.645 6.8633-25.613-5.1758-8.9648-16.641-12.043-25.613-6.8633z"/>
 <path d="m975 225c0 10.355 8.3945 18.75 18.75 18.75s18.75-8.3945 18.75-18.75c0-10.34 8.4102-18.75 18.75-18.75s18.75 8.4102 18.75 18.75c0 10.355 8.3945 18.75 18.75 18.75s18.75-8.3945 18.75-18.75c0-10.34 8.4102-18.75 18.75-18.75s18.75 8.4102 18.75 18.75c0 10.355 8.3945 18.75 18.75 18.75s18.75-8.3945 18.75-18.75c0-31.016-25.234-56.25-56.25-56.25-14.395 0-27.543 5.4336-37.5 14.359-9.957-8.9258-23.105-14.359-37.5-14.359-31.016 0-56.25 25.234-56.25 56.25z"/>
 <path d="m881.25 112.5c10.355 0 18.75-8.3945 18.75-18.75 0-10.34 8.4102-18.75 18.75-18.75s18.75 8.4102 18.75 18.75c0 10.355 8.3945 18.75 18.75 18.75s18.75-8.3945 18.75-18.75c0-10.34 8.4102-18.75 18.75-18.75s18.75 8.4102 18.75 18.75c0 10.355 8.3945 18.75 18.75 18.75s18.75-8.3945 18.75-18.75c0-31.016-25.234-56.25-56.25-56.25-14.395 0-27.543 5.4336-37.5 14.359-9.957-8.9258-23.105-14.359-37.5-14.359-31.016 0-56.25 25.234-56.25 56.25 0 10.355 8.3945 18.75 18.75 18.75z"/>
 <path d="m281.25 843.75c0-73.598-41.18-131.25-93.75-131.25s-93.75 57.652-93.75 131.25c0 64.582 31.711 116.88 75 128.72v96.281c0 10.355 8.3945 18.75 18.75 18.75s18.75-8.3945 18.75-18.75v-96.281c43.289-11.844 75-64.137 75-128.72zm-150 0c0-50.816 25.758-93.75 56.25-93.75s56.25 42.934 56.25 93.75c0 39.922-15.898 74.965-37.5 88.164v-69.414c0-10.355-8.3945-18.75-18.75-18.75s-18.75 8.3945-18.75 18.75v69.414c-21.602-13.199-37.5-48.242-37.5-88.164z"/>
 <path d="m1012.5 712.5c-52.57 0-93.75 57.652-93.75 131.25 0 64.582 31.711 116.88 75 128.72v96.281c0 10.355 8.3945 18.75 18.75 18.75s18.75-8.3945 18.75-18.75v-96.281c43.289-11.844 75-64.141 75-128.72 0-73.598-41.18-131.25-93.75-131.25zm18.75 219.41v-69.414c0-10.355-8.3945-18.75-18.75-18.75s-18.75 8.3945-18.75 18.75v69.414c-21.602-13.199-37.5-48.242-37.5-88.164 0-50.816 25.758-93.75 56.25-93.75s56.25 42.934 56.25 93.75c0 39.922-15.898 74.965-37.5 88.164z"/>
 <path d="m106.53 617.77c11.277 3.8203 43.473 19.098 43.473 38.477 0 10.355 8.3945 18.75 18.75 18.75s18.75-8.3945 18.75-18.75c0-65.023 18.453-74.297 20.363-75.066 9.5977-0.82031 17.137-8.8711 17.137-18.684 0-10.355-8.3945-18.75-18.75-18.75-3.0703 0-19.109 0.90625-33.391 18.754-7.7852 9.7344-13.605 22.785-17.422 39.035-1.4141-1.0312-2.8789-2.0586-4.4141-3.0781-15.965-10.645-31.926-16.027-32.594-16.25-9.8008-3.2656-20.387 2.0234-23.68 11.82-3.293 9.8008 1.9844 20.422 11.777 23.742z"/>
 <path d="m337.5 862.5c0.085938 0 8.9336 0.36719 17.723 6.2266 13.125 8.7461 19.777 25.578 19.777 50.023v0.13672 0.015625 0.003906 0.027344 0.011718c0 0.007813 0 0.011719 0.003906 0.019532v0.050781 0.007813 0.085937s0 0.003906 0.003906 0.003906c0.19141 10.188 8.5117 18.387 18.746 18.387 10.34 0 18.727-8.3711 18.75-18.707v-0.015625c0.066406-22.348 8.0078-82.934 43.43-94.742 9.8242-3.2734 15.133-13.895 11.859-23.715-3.2734-9.8242-13.883-15.133-23.719-11.859-29.168 9.7227-46.023 34.121-55.762 59.215-21.746-22.27-50.348-22.676-50.812-22.676-10.355 0-18.75 8.3945-18.75 18.75s8.3945 18.75 18.75 18.75z"/>
 <path d="m562.5 412.5c4.8008 0 9.5977-1.832 13.258-5.4922 7.3203-7.3203 7.3203-19.191 0-26.516l-37.5-37.5c-7.3242-7.3203-19.191-7.3203-26.516 0l-37.5 37.5c-7.3203 7.3203-7.3203 19.191 0 26.516 7.3242 7.3203 19.191 7.3203 26.516 0l24.242-24.242 24.242 24.242c3.6602 3.6602 8.457 5.4922 13.258 5.4922z"/>
 <path d="m637.5 506.25c4.8008 0 9.5977-1.832 13.258-5.4922 7.3203-7.3203 7.3203-19.191 0-26.516l-37.5-37.5c-7.3242-7.3203-19.191-7.3203-26.516 0l-37.5 37.5c-7.3203 7.3203-7.3203 19.191 0 26.516 7.3242 7.3203 19.191 7.3203 26.516 0l24.242-24.242 24.242 24.242c3.6602 3.6602 8.457 5.4922 13.258 5.4922z"/>
 <path d="m744.51 407.01 24.242-24.242 24.242 24.242c3.6602 3.6602 8.457 5.4922 13.258 5.4922s9.5977-1.832 13.258-5.4922c7.3203-7.3203 7.3203-19.191 0-26.516l-37.5-37.5c-7.3242-7.3203-19.191-7.3203-26.516 0l-37.5 37.5c-7.3203 7.3203-7.3203 19.191 0 26.516 7.3242 7.3242 19.191 7.3242 26.516 0z"/>
 <path d="m627.1 996.9c-2.4648 1.6445-60.629 40.738-81.371 82.215-4.6328 9.2617-0.875 20.523 8.3828 25.156 2.6914 1.3438 5.5508 1.9844 8.3711 1.9844 6.8789 0 13.5-3.8008 16.785-10.367 13.504-27.004 54.109-58.078 68.629-67.785 8.6172-5.7461 10.945-17.383 5.1992-26-5.7344-8.6172-17.379-10.949-25.996-5.2031z"/>
 <path d="m658.9 731.44c-10.223-1.4453-19.617 5.6055-21.141 15.805-1.5195 10.199 5.5352 19.719 15.723 21.301 0.32422 0.050781 32.539 5.3398 43.957 31.301 12.168 27.664-0.98828 71.668-38.043 127.25-5.7461 8.6172-3.418 20.258 5.1992 26 3.1953 2.1328 6.8086 3.1523 10.383 3.1523 6.0625 0 12.008-2.9336 15.617-8.3516 45.324-67.988 59.109-123.04 40.965-163.62-20.051-44.844-70.523-52.535-72.66-52.84z"/>
 <path d="m1054.1 562.5c-6.7422 8.4297-12.008 19.34-15.773 32.664-8.9922-7.625-16.672-11.551-17.445-11.938-9.2695-4.6328-20.582-0.90625-25.211 8.3594-4.6328 9.2617-0.92969 20.5 8.332 25.129 0.26953 0.13672 27.238 14.363 27.238 39.531 0 10.355 8.3945 18.75 18.75 18.75s18.75-8.3945 18.75-18.75c0-65.023 18.453-74.297 20.363-75.066 9.6016-0.81641 17.137-8.8672 17.137-18.684 0-10.355-8.3945-18.75-18.75-18.75-3.0703 0-19.109 0.90625-33.391 18.754z"/>
</svg>
