<?xml version="1.0" encoding="UTF-8"?>
<svg width="1200pt" height="1200pt" version="1.1" viewBox="0 0 1200 1200" xmlns="http://www.w3.org/2000/svg">
 <path d="m219.37 1116h201.71v-52.688h-201.71c-22.547 0-43.219-9.375-58.219-24.375l-0.14062-0.14062c-15-15-24.375-35.625-24.375-58.219v-201.71h-52.688v201.71c0 37.219 15.234 71.062 39.703 95.625 24.609 24.469 58.453 39.703 95.625 39.703zm380.63-667.78c25.547 0 48.844 10.312 65.531 27.141 16.781 16.781 27.234 39.938 27.234 65.531 0 25.688-10.453 48.844-27.234 65.625-16.688 16.781-39.938 27.141-65.531 27.141-25.688 0-48.844-10.312-65.625-27.141-16.688-16.781-27.141-39.938-27.141-65.625 0-25.547 10.453-48.703 27.141-65.531 16.781-16.781 39.938-27.141 65.625-27.141zm31.688 61.078c-8.1562-8.1562-19.312-13.219-31.688-13.219s-23.531 5.0625-31.688 13.219c-8.0625 8.0625-13.078 19.312-13.078 31.547 0 12.375 5.0625 23.625 13.078 31.688 8.1562 8.1562 19.312 13.078 31.688 13.078s23.531-4.9219 31.688-13.078c8.0625-8.0625 13.078-19.312 13.078-31.688 0-12.234-5.0625-23.531-13.078-31.547zm476.53-435c-23.297 32.766-46.219 79.219-62.766 129.71-14.531 44.391-23.859 91.688-23.859 135v33.234h18c11.156 0 21.703 2.7656 30.938 7.9219 9.4688 5.2969 17.391 12.938 23.062 22.547 5.625 9.8438 8.5312 20.859 8.0625 31.781-0.46875 11.062-4.2188 21.703-11.531 31.078l-124.55 157.92c-3.1406 3.7031-6.4688 7.0781-10.078 9.9375v267.14c0 18.609-7.6875 35.625-19.922 47.859s-29.156 19.781-47.766 19.781h-575.53c-17.766 0-33.938-6.9375-46.078-18.234l-1.6875-1.5469c-12.234-12.234-19.922-29.297-19.922-47.859v-417.71c0-12.844 2.3906-25.078 7.0781-36.375 4.7812-11.391 11.625-21.609 20.625-30.609l156.47-156.47c8.7656-8.625 18.469-15.375 29.156-20.062l1.4531-0.60937c11.391-4.7812 23.531-7.0781 36.375-7.0781h341.06c14.297-30.234 33.938-58.688 57-84 52.688-57.844 123.94-100.22 191.16-110.86 13.078-2.1562 25.312 6.8438 27.375 19.781 1.0781 6.4688-0.60938 12.703-4.0781 17.625zm-200.76 572.29c-6.9375-0.9375-13.453-3-19.312-6l-1.5469-0.84375c-7.9219-4.3125-14.859-10.453-20.625-17.766l-124.69-158.16c-6.4688-8.8594-9.7031-18.938-10.219-29.156-0.375-11.062 2.3906-21.938 8.1562-31.922 5.625-9.6094 13.547-17.297 22.922-22.547 9.375-5.1562 19.922-7.9219 31.078-7.9219h18v-33.234c0-19.922 2.7656-39.844 7.9219-59.297h-323.39c-6.6094 0-12.609 1.0781-18 3.2344l-0.9375 0.46875c-5.0625 2.1562-9.7031 5.5312-14.062 9.8438l-156.47 156.47c-4.6875 4.7812-8.1562 9.8438-10.312 15-2.2969 5.3906-3.375 11.391-3.375 18.141v417.71c0 5.3906 2.2969 10.312 5.7656 13.922l0.9375 0.9375c3.375 3 7.9219 4.7812 12.938 4.7812h67.219v-157.31c0-21.234 8.625-40.453 22.547-54.234 13.781-13.922 33-22.547 54.141-22.547h287.63c21.141 0 40.453 8.625 54.234 22.547 13.922 13.922 22.453 33.141 22.453 54.234v157.31h67.312c5.3906 0 10.312-2.1562 13.922-5.7656 3.4688-3.6094 5.7656-8.5312 5.7656-13.922v-254.06zm92.531-457.31c10.219-31.312 22.781-61.312 36.469-88.078-38.625 17.156-76.453 44.859-107.3 78.703-41.625 45.703-69.938 102.47-69.938 159.14v57.234c0 13.312-10.781 24-24 24h-42c-3.1406 0-5.7656 0.60938-7.7812 1.7812-1.9219 1.0781-3.6094 2.625-4.7812 4.6875-1.2188 2.1562-1.7812 4.2188-1.6875 6 0 0.84375 0.23438 1.7812 0.84375 2.625l123.71 156.94c1.5469 2.1562 3.4688 3.8438 5.5312 5.0625l0.84375 0.375c1.7812 0.9375 4.0781 1.5469 6.4688 1.5469 2.625 0 4.7812-0.60938 6.6094-1.5469 2.0625-0.9375 3.9375-2.5312 5.625-4.4531l123.84-157.22c0.9375-1.0781 1.4531-2.2969 1.4531-3.375 0.14062-1.7812-0.60938-3.8438-1.7812-6-1.2188-2.0625-2.8594-3.6094-4.6875-4.6875-2.1562-1.2188-4.7812-1.7812-7.7812-1.7812h-42c-13.219 0-24-10.688-24-24v-57.234c0-48.469 10.312-100.92 26.391-149.76zm-227.39 731.06v-157.31c0-8.0625-3.2344-15.234-8.3906-20.391-5.2969-5.1562-12.469-8.3906-20.391-8.3906h-287.63c-7.7812 0-15 3.2344-20.156 8.5312-5.2969 5.1562-8.5312 12.375-8.5312 20.297v157.31h345.14zm-327.47 243.71h-225.71c-50.531 0-96.375-20.625-129.47-53.859-33.234-33.141-53.859-78.938-53.859-129.47v-225.71c0-13.219 10.781-24 24-24h100.69c13.312 0 24 10.781 24 24v225.71c0 9.4688 3.9375 18.141 10.219 24.375 6.375 6.375 15 10.312 24.469 10.312h225.71c13.219 0 24 10.688 24 24v100.69c0 13.219-10.781 24-24 24zm333.84-48h201.71c37.219 0 71.062-15.234 95.625-39.703 24.469-24.609 39.703-58.453 39.703-95.625v-201.71h-52.688v201.71c0 22.547-9.375 43.219-24.375 58.219l-0.14062 0.14063c-15 15-35.625 24.375-58.219 24.375h-201.71v52.688zm201.71 48h-225.71c-13.219 0-24-10.781-24-24v-100.69c0-13.312 10.781-24 24-24h225.71c9.4688 0 18.141-3.9375 24.375-10.219 6.375-6.375 10.312-15 10.312-24.469v-225.71c0-13.219 10.688-24 24-24h100.69c13.219 0 24 10.781 24 24v225.71c0 50.531-20.625 96.375-53.859 129.47-33.141 33.234-78.938 53.859-129.47 53.859zm-559.55-1080h-201.71c-37.219 0-71.062 15.234-95.625 39.703-24.469 24.609-39.703 58.453-39.703 95.625v201.71h52.688v-201.71c0-22.547 9.375-43.219 24.375-58.219l0.14062-0.14062c15-15 35.625-24.375 58.219-24.375h201.71v-52.688zm-201.71-48h225.71c13.219 0 24 10.781 24 24v100.69c0 13.312-10.781 24-24 24h-225.71c-9.4688 0-18.141 3.9375-24.375 10.219-6.375 6.375-10.312 15-10.312 24.469v225.71c0 13.219-10.688 24-24 24h-100.69c-13.219 0-24-10.781-24-24v-225.71c0-50.531 20.625-96.375 53.859-129.47 33.141-33.234 78.938-53.859 129.47-53.859z"/>
</svg>
