<?xml version="1.0" encoding="UTF-8"?>
<svg width="1200pt" height="1200pt" version="1.1" viewBox="0 0 1200 1200" xmlns="http://www.w3.org/2000/svg">
 <path d="m412.5 225c0-103.55 83.949-187.5 187.5-187.5s187.5 83.945 187.5 187.5c0 103.55-83.949 187.5-187.5 187.5s-187.5-83.949-187.5-187.5zm187.5-150c-82.844 0-150 67.156-150 150s67.156 150 150 150 150-67.156 150-150-67.156-150-150-150z" fill-rule="evenodd"/>
 <path d="m93.75 896.8v87.07c0 24.656 16.055 46.438 39.609 53.73l412.5 127.76c19.977 6.1875 40.113 0.71875 54.141-11.801 14.027 12.52 34.164 17.992 54.141 11.801l412.5-127.76c23.555-7.293 39.609-29.074 39.609-53.73v-87.07c21.848-7.7227 37.5-28.559 37.5-53.051v-93.75c0-24.492-15.652-45.328-37.5-53.051v-124.72c0-36.219-33.73-63-69.004-54.785l-154.36 35.934c-15.676-16.035-40.301-33.309-74.395-47.953-48.137-20.676-116.34-36.676-208.49-36.676-92.172 0-161.82 16.004-211.75 36.57-34.785 14.328-60.516 31.098-77.473 46.586l-148.02-34.457c-35.273-8.2148-69.004 18.566-69.004 54.785v124.72c-21.848 7.7188-37.5 28.555-37.5 53.047v93.75c0 24.492 15.652 45.328 37.5 53.051zm60.5-342.83c-11.758-2.7344-23 6.1914-23 18.266v124.72c21.848 7.7188 37.5 28.555 37.5 53.047v93.75c0 24.492-15.652 45.328-37.5 53.051v87.07c0 8.2188 5.3516 15.477 13.203 17.91l412.5 127.76c12.062 3.7383 24.297-5.2812 24.297-17.91v-443.37c0-8.7188-6.0078-16.285-14.5-18.262zm914.5 18.266v124.72c-21.848 7.7188-37.5 28.555-37.5 53.047v93.75c0 24.492 15.652 45.328 37.5 53.051v87.07c0 8.2188-5.3516 15.477-13.203 17.91l-412.5 127.76c-12.062 3.7383-24.297-5.2812-24.297-17.91v-443.37c0-8.7188 6.0078-16.285 14.5-18.262l412.5-96.027c11.758-2.7344 23 6.1914 23 18.266zm-231.29-8.2812c-11.039-7.8555-25.453-16.203-43.77-24.07-42.801-18.383-105.85-33.633-193.7-33.633-87.828 0-152.55 15.246-197.47 33.742-18.09 7.4531-32.809 15.359-44.488 22.918l217.21 50.566c9.4531 2.1992 17.879 6.7109 24.742 12.855 6.8633-6.1406 15.289-10.652 24.746-12.855zm250.04 167.3c-10.355 0-18.75 8.3945-18.75 18.75v93.75c0 10.355 8.3945 18.75 18.75 18.75s18.75-8.3945 18.75-18.75v-93.75c0-10.355-8.3945-18.75-18.75-18.75zm-993.75 18.75c0-10.355 8.3945-18.75 18.75-18.75s18.75 8.3945 18.75 18.75v93.75c0 10.355-8.3945 18.75-18.75 18.75s-18.75-8.3945-18.75-18.75z" fill-rule="evenodd"/>
</svg>
