<?xml version="1.0" encoding="UTF-8"?>
<svg width="1200pt" height="1200pt" version="1.1" viewBox="0 0 1200 1200" xmlns="http://www.w3.org/2000/svg">
 <path d="m811.2 488.4c15.602-15.602 15.602-40.801 0-56.398l-43.199-43.199c-15.602-15.602-40.801-15.602-56.398 0l-82.801 82.801c-15.602 15.602-40.801 15.602-56.398 0l-82.801-82.801c-15.602-15.602-40.801-15.602-56.398 0l-44.402 43.199c-15.602 15.602-15.602 40.801 0 56.398l82.801 82.801c15.602 15.602 15.602 40.801 0 56.398l-82.801 82.801c-15.602 15.602-15.602 40.801 0 56.398l42 42c15.602 15.602 40.801 15.602 56.398 0l82.801-82.801c15.602-15.602 40.801-15.602 56.398 0l82.801 82.801c15.602 15.602 40.801 15.602 56.398 0l42-42c15.602-15.602 15.602-40.801 0-56.398l-82.801-82.801c-15.602-15.602-15.602-40.801 0-56.398z"/>
 <path d="m600 30c-314.4 0-570 255.6-570 570s255.6 570 570 570 570-255.6 570-570-255.6-570-570-570zm0 999.6c-237.6 0-429.6-192-429.6-429.6s192-429.6 429.6-429.6 429.6 192 429.6 429.6-192 429.6-429.6 429.6z"/>
</svg>
