<?xml version="1.0" encoding="UTF-8"?>
<svg width="1200pt" height="1200pt" version="1.1" viewBox="0 0 1200 1200" xmlns="http://www.w3.org/2000/svg">
 <path d="m587.09 217.05v-68.582c0-7.125 5.7812-12.906 12.906-12.906s12.906 5.7812 12.906 12.906v68.582c0 7.125-5.7812 12.906-12.906 12.906s-12.906-5.7812-12.906-12.906zm-174.18 53.598c2.3867 4.1406 6.7344 6.4531 11.191 6.4531 2.1914 0 4.4062-0.5625 6.4414-1.7266 6.1719-3.5625 8.2891-11.461 4.7266-17.633l-34.285-59.398c-3.5625-6.1719-11.449-8.2891-17.633-4.7266-6.1719 3.5625-8.2891 11.461-4.7266 17.633zm356.56 4.7266c2.0312 1.1758 4.25 1.7266 6.4414 1.7266 4.457 0 8.8047-2.3125 11.191-6.4531l34.285-59.398c3.5625-6.1719 1.4453-14.07-4.7266-17.633-6.1836-3.5625-14.07-1.4453-17.633 4.7266l-34.285 59.398c-3.5625 6.1719-1.4453 14.07 4.7266 17.633zm170.99 613.36c-11.043 11.043-16.102 24.551-15.023 40.125l1.0664 15.355h27.453c7.125 0 12.906 5.7812 12.906 12.906v94.395c0 7.125-5.7812 12.906-12.906 12.906h-296.6c-7.125 0-12.906-5.7812-12.906-12.906v-94.395c0-7.125 5.7812-12.906 12.906-12.906h26.742l1.3477-112.08c0.41797-34.945 12.832-64.859 36.906-88.934l45.195-45.195c16.285-16.285 34.223-26.645 56.473-32.609l18.527-4.9609 107.61-107.61c10.973-10.973 25.617-17.02 41.215-17.02 10.961 0 21.453 2.9883 30.527 8.5586l-4.9336-128.13c-1.0391-27.098 19.945-43.395 41.23-45.488 21.613-2.1289 45.688 9.918 50.008 37.055l31.996 200.93c7.1133 44.645-5.793 86.031-36.32 116.57l-163.41 163.41zm-270.2 81.305v68.582h270.79v-68.582zm415.36-262.97c24.883-24.883 34.934-57.477 29.082-94.262l-31.996-200.93c-2.0312-12.785-13.113-16.309-21.98-15.43-8.582 0.84375-18.441 6.2812-17.965 18.809l6.7695 175.75v0.050781c0.83203 16.492-5.3125 32.598-16.934 44.215l-93.82 93.82c-2.5234 2.5234-5.8281 3.7852-9.1211 3.7852s-6.6133-1.2617-9.1211-3.7852c-5.043-5.043-5.043-13.211 0-18.258l93.82-93.82c6.4883-6.4883 9.918-15.527 9.4023-24.797-0.44141-8.0078-3.7852-15.516-9.4023-21.133-6.0977-6.0977-14.254-9.4531-22.973-9.4531s-16.859 3.3555-22.973 9.4531l-110.06 110.04c-1.6055 1.6055-3.6016 2.7539-5.7812 3.3438l-21.871 5.8516c-17.926 4.8008-31.777 12.797-44.902 25.922l-45.207 45.195c-19.406 19.406-28.996 42.625-29.34 70.984l-1.3477 111.77h190.71l-0.94141-13.578c-1.5938-23.031 6.1953-43.848 22.52-60.172l163.41-163.41zm-530.02 250.07v94.395c0 7.125-5.7812 12.906-12.906 12.906h-296.61c-7.125 0-12.906-5.7812-12.906-12.906v-94.395c0-7.125 5.7812-12.906 12.906-12.906h27.453l1.0664-15.355c1.0781-15.586-3.9805-29.082-15.023-40.125l-163.41-163.41c-30.527-30.539-43.434-71.926-36.32-116.57l32.008-200.93c4.3242-27.133 28.434-39.195 50.008-37.055 21.281 2.0938 42.27 18.391 41.23 45.488l-4.9336 128.13c9.0742-5.582 19.555-8.5586 30.527-8.5586 15.602 0 30.246 6.0508 41.215 17.02l107.61 107.61 18.527 4.9609c22.25 5.9648 40.188 16.324 56.473 32.609l45.195 45.195c24.062 24.062 36.477 53.988 36.895 88.934l1.3477 112.08h26.742c7.125 0 12.906 5.7812 12.906 12.906zm-277.76-86.645c16.324 16.324 24.109 37.125 22.52 60.172l-0.94141 13.578h190.71l-1.3359-111.77c-0.34375-28.359-9.9414-51.586-29.34-70.984l-45.195-45.195c-13.125-13.125-26.977-21.121-44.902-25.922l-21.871-5.8516c-2.1914-0.58594-4.1875-1.7383-5.7812-3.3438l-110.04-110.04c-6.0977-6.0977-14.254-9.4531-22.973-9.4531s-16.859 3.3555-22.973 9.4531c-5.6211 5.6211-8.9648 13.125-9.4023 21.133-0.51562 9.2578 2.9023 18.281 9.3789 24.77l93.844 93.844c5.043 5.043 5.043 13.211 0 18.258-2.5234 2.5234-5.8281 3.7852-9.1211 3.7852s-6.6133-1.2617-9.1211-3.7852l-93.82-93.82c-11.621-11.609-17.766-27.711-16.934-44.215v-0.050781l6.7695-175.75c0.47656-12.527-9.3789-17.949-17.965-18.809-8.8789-0.88281-19.945 2.6445-21.98 15.43l-32.008 200.93c-5.8516 36.785 4.1992 69.367 29.082 94.25l163.41 163.41zm251.95 99.562h-270.79v68.582h270.79zm245.25-367.42c-37.262 66.023-102.28 131.04-165.88 194.64-2.5234 2.5234-5.8281 3.7852-9.1211 3.7852-3.293 0-6.6133-1.2617-9.1211-3.7852-63.602-63.602-128.62-128.62-165.88-194.64-9.5625 9.7109-19.262 19.422-28.738 28.898-2.5469 2.5469-5.9141 3.832-9.2695 3.832-3.293 0-6.5859-1.2383-9.0742-3.7344-77.449-77.449-157.54-157.54-157.54-239.77 0-49.508 40.273-89.793 89.793-89.793 37.676 0 59.582 17.008 76.887 44.145 17.301-27.133 39.207-44.145 76.887-44.145 49.508 0 89.793 40.273 89.793 89.793 0 2.4258-0.085937 4.875-0.21875 7.3477 19.383 10.078 33.883 26.512 46.52 47.414 12.637-20.914 27.133-37.336 46.531-47.414-0.13281-2.4609-0.21875-4.9102-0.21875-7.3477 0-49.508 40.273-89.793 89.793-89.793 37.676 0 59.582 17.008 76.887 44.145 17.301-27.133 39.207-44.145 76.887-44.145 49.508 0 89.793 40.273 89.793 89.793 0 82.223-80.094 162.32-157.54 239.77-2.5234 2.5234-5.8281 3.7852-9.1211 3.7852s-6.6133-1.2617-9.1211-3.7852c-9.5156-9.5039-19.238-19.25-28.836-28.996zm-102.84-212.33c7.5664-1.5078 15.746-2.2891 24.648-2.2891 60.488 0 109.71 49.211 109.71 109.71 0 27.012-7.0273 53.902-19.141 80.645 8.4375 8.6328 17.059 17.312 25.594 25.875 70.762-70.887 140.85-143.79 140.85-212.39 0-35.277-28.703-63.969-63.98-63.969-30.332 0-46.211 12.281-65.34 50.523-2.1797 4.3711-6.6602 7.1406-11.547 7.1406s-9.3555-2.7656-11.547-7.1406c-19.125-38.254-34.996-50.523-65.34-50.523-34.75 0-63.098 27.855-63.93 62.426zm-259.53 188.07c-12.121-26.73-19.141-53.633-19.141-80.645 0-60.488 49.211-109.71 109.71-109.71 8.9023 0 17.082 0.78516 24.648 2.2891-0.83203-34.555-29.18-62.426-63.93-62.426-30.332 0-46.211 12.281-65.34 50.523-2.1797 4.3711-6.6602 7.1406-11.547 7.1406s-9.3555-2.7656-11.547-7.1406c-19.125-38.254-34.996-50.523-65.34-50.523-35.277 0-63.969 28.703-63.969 63.969 0 68.598 70.09 141.5 140.85 212.39 8.5703-8.582 17.191-17.266 25.594-25.875zm368.08-80.645c0-46.262-37.641-83.902-83.902-83.902-39.27 0-60.785 16.52-85.262 65.461-2.1797 4.3711-6.6602 7.1406-11.547 7.1406-4.8867 0-9.3555-2.7656-11.547-7.1406-24.477-48.941-45.992-65.461-85.262-65.461-46.262 0-83.902 37.641-83.902 83.902 0 88.48 90.32 181.68 180.7 272.16 90.379-90.477 180.7-183.69 180.7-272.16z"/>
</svg>
