<?xml version="1.0" encoding="UTF-8"?>
<svg width="1200pt" height="1200pt" version="1.1" viewBox="0 0 1200 1200" xmlns="http://www.w3.org/2000/svg">
 <path d="m1134.3 866.81h-306.71v283.6c21.656-8.9531 42.516-18.656 62.672-29.859v-180.61h200.02c16.406-23.156 30.609-47.766 44.016-73.125z"/>
 <path d="m109.69 939.94h197.76v179.11c20.906 11.953 43.266 22.406 65.672 32.109v-283.6h-307.45c12.703 25.359 27.609 50.016 44.016 73.125z"/>
 <path d="m2.25 557.86c-0.75 12.703-1.5 24.609-1.5 37.312v28.359h426.84c-2.25-10.453-3-21.656-3-32.812 0-11.203 1.5-22.406 3-32.812z"/>
 <path d="m476.86 716.06h-464.16c4.5 22.406 10.453 44.766 17.906 66.422h426.84v395.53c22.406 5.2031 44.766 9.7031 67.922 12.703v-439.55c-17.906-8.9531-35.062-20.156-48.516-34.312z"/>
 <path d="m33.562 401.11c-7.4531 20.906-13.453 42.516-18.656 64.922h461.95c14.156-14.156 30.609-25.359 48.516-34.312v-430.6c-23.156 3-46.266 6.7031-67.922 12.703v387.32z"/>
 <path d="m1169.4 782.48c6.7031-21.656 12.703-43.266 17.906-66.422h-461.21c-13.453 13.453-29.109 24.609-47.016 32.812v440.29c21.656-3 43.266-6.7031 64.172-11.953v-395.53h426.14z"/>
 <path d="m1198.5 624.28v-28.359c0-12.703 0-25.359-1.5-37.312h-423.14c2.25 10.453 3 21.656 3 32.812 0 11.203-1.5 22.406-3 32.812h423.89z"/>
 <path d="m726.14 466.03h458.95c-5.2031-22.406-11.203-44.016-18.656-64.922h-423.14v-387.28c-20.906-5.2031-42.516-8.9531-64.172-11.953v430.6c17.156 8.2031 33.562 19.406 47.016 32.812z"/>
 <path d="m1088.8 248.9h-197.76v-177.66c-20.156-11.203-41.062-21.656-62.672-29.859v275.39h302.26c-12.703-23.859-26.109-46.266-41.812-67.922z"/>
 <path d="m70.172 316.78h303l-0.046875-276.1c-22.406 8.9531-44.766 20.156-65.672 32.109v176.11l-195.52-0.046875c-15.656 21.656-29.109 44.016-41.812 67.922z"/>
 <path d="m693.28 595.87c0 51.562-41.766 93.281-93.281 93.281s-93.281-41.719-93.281-93.281c0-51.516 41.766-93.281 93.281-93.281s93.281 41.766 93.281 93.281"/>
 <path d="m131.34 67.547c0 36.281-29.391 65.672-65.672 65.672s-65.672-29.391-65.672-65.672 29.391-65.672 65.672-65.672 65.672 29.391 65.672 65.672"/>
 <path d="m1200 67.547c0 36.281-29.391 65.672-65.672 65.672s-65.672-29.391-65.672-65.672 29.391-65.672 65.672-65.672 65.672 29.391 65.672 65.672"/>
 <path d="m131.34 1133.2c0 36.281-29.391 65.672-65.672 65.672s-65.672-29.391-65.672-65.672 29.391-65.672 65.672-65.672 65.672 29.391 65.672 65.672"/>
 <path d="m1200 1133.2c0 36.281-29.391 65.672-65.672 65.672s-65.672-29.391-65.672-65.672 29.391-65.672 65.672-65.672 65.672 29.391 65.672 65.672"/>
</svg>
