<?xml version="1.0" encoding="UTF-8"?>
<svg width="1200pt" height="1200pt" version="1.1" viewBox="0 0 1200 1200" xmlns="http://www.w3.org/2000/svg">
 <path d="m818.88 368.64c-57.121-108-137.76-192.48-196.8-210.24v-0.003906c-14.273-5.1211-29.883-5.1211-44.156 0-59.039 17.762-139.68 102.24-196.8 210.24-24.961 46.559-233.28 459.84 47.039 659.04v0.003907c30.363 17.449 66.199 22.766 100.32 14.879 13.922-1.4414 27.359-4.3203 39.359-6.7188 9.0391-1.9219 18.172-3.3633 27.359-4.3203 3.168-0.64062 6.4336-0.64062 9.6016 0 9.1875 0.95703 18.32 2.3984 27.359 4.3203 12 2.3984 25.441 5.2812 39.359 6.7188 11.422 1.9141 22.98 2.875 34.559 2.8828 23.246 1.1562 46.262-5.0586 65.762-17.762 280.32-199.2 72-612.48 47.039-659.04zm-370.08 629.76c-254.88-181.44-59.039-569.28-36-612.48 28.09-54.066 64.176-103.59 107.04-146.88-73.004 128.22-114.16 272.09-120 419.52-13.922 125.6 22.496 251.6 101.28 350.4-18.137 2.5586-36.598-1.168-52.32-10.562zm151.2-3.3594c-5.4688 0.066407-10.926 0.54688-16.32 1.4414-30.039-107.3-44.586-218.34-43.199-329.76 4.793-141.41 24.75-281.89 59.52-419.04 34.77 137.15 54.727 277.63 59.52 419.04 1.3867 111.42-13.16 222.46-43.199 329.76-5.3945-0.89453-10.852-1.375-16.32-1.4414zm151.2 3.3594c-15.723 9.3945-34.184 13.121-52.32 10.562 78.785-98.805 115.2-224.8 101.28-350.4-5.8398-147.43-46.996-291.3-120-419.52 42.863 43.297 78.949 92.816 107.04 146.88 23.039 43.199 218.88 431.04-36 612.48z"/>
</svg>
