<?xml version="1.0" encoding="UTF-8"?>
<svg width="1200pt" height="1200pt" version="1.1" viewBox="0 0 1200 1200" xmlns="http://www.w3.org/2000/svg">
 <path d="m431.25 712.5h-300c-10.312 0-18.75 8.4375-18.75 18.75v112.5c0 10.312 8.4375 18.75 18.75 18.75h150v150c0 30.938 25.312 56.25 56.25 56.25h581.25c30.938 0 56.25-25.312 56.25-56.25v-825c0-30.938-25.312-56.25-56.25-56.25h-479.81c-9.9375 0-19.5 3.9375-26.438 11.062l-120.19 120.19c-7.125 7.125-11.062 16.5-11.062 26.438v48.562h-150c-10.312 0-18.75 8.4375-18.75 18.75v112.5c0 10.312 8.4375 18.75 18.75 18.75h300c10.312 0 18.75-8.4375 18.75-18.75v-37.5h56.25v150h-56.25v-37.5c0-10.312-8.4375-18.75-18.75-18.75h-300c-10.312 0-18.75 8.4375-18.75 18.75v112.5c0 10.312 8.4375 18.75 18.75 18.75h300c10.312 0 18.75-8.4375 18.75-18.75v-37.5h56.25v150h-56.25v-37.5c0-10.312-8.4375-18.75-18.75-18.75zm-18.75-75h-262.5v-75h262.5zm-262.5 112.5h262.5v75h-262.5zm737.06 122.44c-26.625-6.5625-51.938-17.062-75.188-30.938-16.125-9.75-36.562-7.5-49.688 5.625l-2.625 2.625c-1.5 1.6875-2.8125 1.6875-4.6875 0l-48.375-48.375s-0.9375-1.6875-0.9375-2.25 0-1.5 1.125-2.4375l2.4375-2.4375c13.125-13.125 15.375-33.562 5.625-49.5-14.062-23.438-24.562-48.75-31.125-75.562-4.875-18.562-21.188-31.5-39.938-31.5h-3c-1.875 0-3.375-1.5-3.375-3.375v-68.25c0-1.875 1.5-3.375 3.375-3.375h3c18.75 0 35.062-12.938 39.938-31.688 6.5625-26.625 17.062-51.938 30.938-75.188 9.75-16.125 7.5-36.562-5.625-49.688l-2.625-2.625s-0.9375-1.6875-0.9375-2.25 0-1.5 1.125-2.4375l48.375-48.375c1.5-1.6875 2.8125-1.6875 4.6875 0l2.4375 2.4375c13.125 13.125 33.562 15.375 49.5 5.625 23.438-14.062 48.75-24.562 75.562-31.125 18.562-4.875 31.5-21.188 31.5-39.938v-3c0-1.875 1.5-3.375 3.375-3.375h15.375v75.938c-125.62 9.5625-225 114.75-225 242.81s99.375 233.25 225 242.81v75.938h-15.375c-1.875 0-3.375-1.5-3.375-3.375v-3c0-18.75-12.938-35.062-31.688-39.938zm50.438-477.75v410.62c-105-9.5625-187.5-97.875-187.5-205.31s82.5-195.75 187.5-205.31zm-525-199.5v67.312h-67.312zm0 254.81h-262.5v-75h262.5zm112.5-56.25h-75v-37.5c0-10.312-8.4375-18.75-18.75-18.75h-112.5v-37.5h112.5c10.312 0 18.75-8.4375 18.75-18.75v-112.5h468.75c10.312 0 18.75 8.4375 18.75 18.75v56.25h-15.375c-22.5 0-40.875 18.375-40.875 40.875v3c0 2.0625-1.875 3.1875-3.1875 3.5625-30.188 7.5-58.875 19.312-85.688 35.438-0.375 0.1875-2.25 1.3125-3.5625 0l-2.25-2.25c-15.375-15.75-42.75-15.562-57.938 0l-48 48c-7.875 7.6875-12.188 18-12.188 29.062s4.3125 21.375 12.188 28.875l2.4375 2.4375c1.3125 1.3125 0.375 3.1875 0 3.75-15.938 26.625-27.75 55.5-35.25 85.312-0.375 1.5-1.6875 3.375-3.5625 3.375h-3c-22.5 0-40.875 18.375-40.875 40.875v15.375h-56.25v-168.75c0-10.312-8.4375-18.75-18.75-18.75zm0 412.5c10.312 0 18.75-8.4375 18.75-18.75v-168.75h56.25v15.375c0 22.5 18.375 40.875 40.875 40.875h3c2.0625 0 3.1875 1.875 3.5625 3.1875 7.5 30.188 19.312 58.875 35.438 85.688 0.1875 0.375 1.3125 2.25 0 3.5625l-2.25 2.25c-7.875 7.6875-12.188 18-12.188 29.062s4.3125 21.375 12.188 28.875l48 48c15.375 15.75 42.75 15.562 57.938 0l2.4375-2.4375c1.3125-1.3125 3.1875-0.375 3.75 0 26.625 15.938 55.5 27.75 85.312 35.25 1.5 0.375 3.375 1.6875 3.375 3.5625v3c0 22.5 18.375 40.875 40.875 40.875h15.375v56.25c0 10.312-8.4375 18.75-18.75 18.75h-581.25c-10.312 0-18.75-8.4375-18.75-18.75v-150h112.5c10.312 0 18.75-8.4375 18.75-18.75v-37.5h75z"/>
</svg>
