<?xml version="1.0" encoding="UTF-8"?>
<svg width="1200pt" height="1200pt" version="1.1" viewBox="0 0 1200 1200" xmlns="http://www.w3.org/2000/svg">
 <path d="m195.94 21.984c-21.375 0-38.859 17.484-38.859 38.859v9.5156h-129.74c-2.4375 0-4.7344 0.9375-6.4688 2.625-1.6875 1.6875-2.6719 4.0312-2.6719 6.4219 0 2.4375 0.9375 4.7344 2.6719 6.4688 1.6875 1.7344 4.0312 2.6719 6.4688 2.6719h129.79v177.56h-129.79c-2.4375 0-4.7344 0.9375-6.4688 2.625-1.6875 1.6875-2.6719 4.0312-2.6719 6.4219 0 2.4375 0.9375 4.7812 2.6719 6.4688 1.6875 1.7344 4.0312 2.6719 6.4688 2.6719h129.79v9.5156c0 21.375 17.484 38.859 38.859 38.859h117.7c21.375 0 38.859-17.484 38.859-38.859v-9.5156h514.74c55.734 0 100.64 44.953 100.64 100.64v7.4062c0 55.734-44.953 100.73-100.64 100.73h-532.55c-174.71 0-316.55 141.79-316.55 316.5v3.6094c0 174.71 141.89 316.45 316.55 316.45h512.76v9.5156c0 21.375 17.484 38.859 38.859 38.859h117.75c21.375 0 38.859-17.484 38.859-38.859v-9.5156h129.79c4.9688 0 9.0469-4.0781 9.0469-9.0469 0.046875-5.0156-4.0312-9.0938-9.0469-9.1406h-129.79v-177.56h129.79c4.9688 0 9.0469-4.0781 9.0469-9.0469 0.046875-5.0156-4.0312-9.0938-9.0469-9.1406h-129.79v-9.5156c0-21.375-17.484-38.859-38.859-38.859h-117.75c-21.375 0-38.859 17.484-38.859 38.859v9.5156h-514.64c-55.734 0-100.73-44.953-100.73-100.69v-7.3594c0-55.734 45-100.69 100.73-100.69h532.5c174.71 0 316.45-141.84 316.45-316.55v-3.6094c0-174.71-141.79-316.45-316.45-316.45h-512.86v-9.5156c0-21.375-17.484-38.859-38.859-38.859zm0 18.188h117.7c11.625 0 20.672 9.0469 20.672 20.672v233.02c0 11.625-9.0469 20.672-20.672 20.672h-117.7c-11.625 0-20.672-9.0469-20.672-20.672v-233.02c0-11.625 9.0469-20.672 20.672-20.672zm156.56 48.375h512.81c164.86 0 298.31 133.4 298.31 298.31v3.6094c0 164.86-133.45 298.36-298.31 298.36h-532.45c-65.531 0-118.92 53.297-118.92 118.88v7.3594c0 65.531 53.391 118.88 118.92 118.88h514.64v177.56l-512.76-0.046876c-164.86 0-298.36-133.4-298.36-298.31v-3.6094c0-164.86 133.5-298.31 298.36-298.31h532.5c65.531 0 118.88-53.391 118.88-118.92v-7.4062c0-65.531-53.297-118.83-118.88-118.83l-514.74 0.046875zm533.81 796.97h117.75c11.625 0 20.672 9.0469 20.672 20.672v233.02c0 11.625-9.0469 20.672-20.672 20.672h-117.75c-11.625 0-20.672-9.0469-20.672-20.672l0.046875-18.328c0-0.09375 0.046875-0.1875 0.046875-0.28125 0-0.28125 0-0.5625-0.046875-0.79688v-194.72c0-0.046875 0.046875-0.14062 0.046875-0.23438 0-0.28125 0-0.5625-0.046875-0.79688v-17.859c0-11.625 9.0469-20.672 20.672-20.672z"/>
</svg>
