<?xml version="1.0" encoding="UTF-8"?>
<svg width="1200pt" height="1200pt" version="1.1" viewBox="0 0 1200 1200" xmlns="http://www.w3.org/2000/svg">
 <path d="m862.5 590.63c-5.1562 0-9.375 4.2188-9.375 9.375 0 139.6-113.53 253.13-253.13 253.13-106.88 0-201.94-67.594-237.94-166.78l33.844 15.938c4.6875 2.1562 10.219 0.1875 12.469-4.5 2.1562-4.6875 0.1875-10.219-4.5-12.469l-53.062-24.938c-0.84375-0.375-1.7812-0.46875-2.625-0.65625-0.1875 0-0.28125-0.09375-0.375-0.09375-0.84375-0.09375-1.6875 0-2.5312 0.1875-0.375 0.09375-0.75 0-1.0312 0.09375-0.09375 0-0.1875 0.09375-0.28125 0.09375h-0.28125c-0.375 0.09375-0.65625 0.375-0.9375 0.5625-2.1562 1.0312-3.6562 2.625-4.5938 4.6875l-24.656 52.594c-2.1562 4.6875-0.1875 10.219 4.5 12.469 1.3125 0.65625 2.625 0.9375 3.9375 0.9375 3.5625 0 6.9375-1.9688 8.5312-5.4375l14.719-31.312c39.188 105.56 140.63 177.37 254.81 177.37 149.9 0 271.87-121.97 271.87-271.87 0-5.1562-4.2188-9.375-9.375-9.375z"/>
 <path d="m1070.8 544.03-94.5-21.844c-3-14.531-6.8438-28.969-11.531-43.031l70.875-66.094c3.1875-3 3.9375-7.7812 1.6875-11.531l-46.875-81.188c-2.1562-3.75-6.6562-5.625-10.875-4.3125l-92.812 28.406c-9.8438-11.062-20.438-21.562-31.406-31.406l28.406-92.812c1.3125-4.2188-0.46875-8.625-4.3125-10.875l-81.188-46.875c-3.75-2.1562-8.5312-1.5-11.531 1.6875l-66.094 70.875c-14.062-4.6875-28.5-8.5312-43.031-11.531l-21.75-94.5c-0.84375-4.125-4.5938-7.125-9-7.125h-93.75c-4.4062 0-8.1562 3-9.0938 7.3125l-21.844 94.406c-14.531 3-28.969 6.8438-43.031 11.531l-66.094-70.875c-3-3.1875-7.7812-3.9375-11.531-1.6875l-81.188 46.875c-3.75 2.1562-5.5312 6.6562-4.3125 10.875l28.406 92.812c-11.062 9.8438-21.562 20.344-31.406 31.406l-92.812-28.406c-4.125-1.3125-8.7188 0.46875-10.875 4.3125l-46.875 81.188c-2.1562 3.75-1.5 8.5312 1.6875 11.531l70.875 66.094c-4.6875 14.062-8.5312 28.5-11.531 43.031l-94.5 21.844c-4.125 0.84375-7.125 4.5938-7.125 9v93.75c0 4.4062 3 8.1562 7.3125 9.0938l94.5 21.844c3 14.531 6.8438 28.969 11.531 43.031l-70.875 66.094c-3.1875 3-3.9375 7.7812-1.6875 11.531l46.875 81.188c2.1562 3.75 6.6562 5.5312 10.875 4.3125l92.812-28.406c9.8438 11.062 20.438 21.562 31.406 31.406l-28.406 92.812c-1.3125 4.2188 0.46875 8.625 4.3125 10.875l81.188 46.875c3.75 2.1562 8.625 1.5 11.531-1.6875l66.094-70.875c14.062 4.6875 28.5 8.5312 43.031 11.531l21.75 94.5c0.9375 4.2188 4.7812 7.3125 9.0938 7.3125h93.75c4.4062 0 8.1562-3 9.0938-7.3125l21.75-94.5c14.531-3 28.969-6.8438 43.031-11.531l66.094 70.875c3 3.1875 7.7812 3.9375 11.531 1.6875l81.188-46.875c3.75-2.1562 5.5312-6.6562 4.3125-10.875l-28.406-92.812c11.062-9.8438 21.562-20.344 31.406-31.406l92.812 28.406c4.125 1.3125 8.7188-0.46875 10.875-4.3125l46.875-81.188c2.1562-3.75 1.5-8.5312-1.6875-11.531l-70.875-66.094c4.6875-14.062 8.5312-28.5 11.531-43.031l94.5-21.844c4.2188-0.9375 7.3125-4.7812 7.3125-9.0938v-93.75c-0.1875-4.4062-3.1875-8.1562-7.5-9.0938zm-11.438 95.344-93.094 21.469c-3.6562 0.84375-6.375 3.75-7.125 7.4062-3.375 17.719-8.0625 35.25-13.969 52.219-1.2188 3.4688-0.28125 7.4062 2.4375 9.9375l69.844 65.156-39.375 68.25-91.5-27.938c-3.5625-1.125-7.4062 0-9.8438 2.8125-11.719 13.594-24.562 26.438-38.156 38.156-2.8125 2.4375-3.9375 6.2812-2.8125 9.8438l27.938 91.406-68.25 39.469-65.156-69.844c-2.5312-2.7188-6.4688-3.6562-9.9375-2.4375-16.969 5.9062-34.5 10.594-52.125 13.969-3.6562 0.65625-6.5625 3.4688-7.4062 7.125l-21.469 93h-78.75l-21.469-93.094c-0.84375-3.6562-3.75-6.375-7.4062-7.125-17.719-3.375-35.25-8.0625-52.125-13.969-3.4688-1.2188-7.4062-0.28125-9.9375 2.4375l-65.156 69.844-68.25-39.469 27.938-91.406c1.125-3.5625 0-7.4062-2.8125-9.8438-13.594-11.719-26.344-24.562-38.156-38.156-2.4375-2.8125-6.2812-3.9375-9.8438-2.8125l-91.5 27.938-39.375-68.25 69.844-65.156c2.7188-2.5312 3.6562-6.4688 2.4375-9.9375-5.9062-16.969-10.594-34.5-13.969-52.219-0.65625-3.6562-3.4688-6.5625-7.125-7.4062l-93.094-21.375v-78.75l93.094-21.469c3.6562-0.84375 6.375-3.75 7.125-7.4062 3.375-17.719 8.0625-35.25 13.969-52.219 1.2188-3.4688 0.28125-7.4062-2.4375-9.9375l-69.844-65.156 39.375-68.25 91.5 27.938c3.5625 1.125 7.4062 0 9.8438-2.8125 11.719-13.594 24.562-26.438 38.156-38.156 2.8125-2.4375 3.9375-6.2812 2.8125-9.8438l-27.938-91.406 68.25-39.469 65.156 69.844c2.5312 2.7188 6.4688 3.6562 9.9375 2.4375 16.969-5.9062 34.5-10.594 52.125-13.969 3.6562-0.65625 6.5625-3.4688 7.4062-7.125l21.469-93h78.844l21.469 93.094c0.84375 3.6562 3.75 6.375 7.4062 7.125 17.719 3.375 35.25 8.0625 52.125 13.969 3.4688 1.2188 7.4062 0.28125 9.9375-2.4375l65.156-69.844 68.25 39.469-27.938 91.406c-1.125 3.5625 0 7.4062 2.8125 9.8438 13.594 11.719 26.344 24.562 38.156 38.156 2.4375 2.8125 6.2812 3.9375 9.8438 2.8125l91.5-27.938 39.375 68.25-69.844 65.156c-2.7188 2.5312-3.6562 6.4688-2.4375 9.9375 5.9062 16.969 10.594 34.5 13.969 52.219 0.65625 3.6562 3.4688 6.5625 7.125 7.4062l93 21.375z"/>
 <path d="m882 469.6c-4.6875-2.1562-10.312-0.1875-12.469 4.5l-14.719 31.312c-39.188-105.47-140.63-177.28-254.81-177.28-149.9 0-271.87 121.97-271.87 271.87 0 5.1562 4.2188 9.375 9.375 9.375s9.375-4.2188 9.375-9.375c0-139.6 113.53-253.13 253.13-253.13 106.88 0 201.94 67.594 237.94 166.78l-33.844-15.938c-4.6875-2.1562-10.312-0.1875-12.469 4.5s-0.1875 10.219 4.5 12.469l53.062 24.938c0.65625 0.28125 1.3125 0.28125 2.0625 0.46875 0.46875 0.09375 0.84375 0.28125 1.3125 0.28125 0.1875 0 0.46875 0.1875 0.65625 0.1875 0.65625 0 1.2188-0.1875 1.875-0.375 0.28125-0.09375 0.5625 0 0.75-0.09375 0.09375 0 0.1875-0.09375 0.28125-0.09375h0.28125c0.28125-0.09375 0.5625-0.375 0.84375-0.46875 2.1562-1.0312 3.75-2.7188 4.6875-4.7812l24.656-52.594c2.1562-4.7812 0.09375-10.312-4.5938-12.562z"/>
</svg>
