<?xml version="1.0" encoding="UTF-8"?>
<svg width="1200pt" height="1200pt" version="1.1" viewBox="0 0 1200 1200" xmlns="http://www.w3.org/2000/svg">
 <g>
  <path d="m900 391.8v-111.8c0-154.4-134.6-280-300-280s-300 125.6-300 280v111.8c-97.801 84.398-160 209.2-160 348.2 0 253.6 206.4 460 460 460s460-206.4 460-460c0-139-62.199-263.8-160-348.2zm-560-31.199v-80.602c0-134.6 114.2-240 260-240s260 105.4 260 240v80.602c-1.6016-1.1992-3.3984-2.1992-5.1992-3.1992-6.3984-4.3984-13-8.3984-19.801-12.398-3.1992-1.8008-6.3984-3.6016-9.6016-5.3984-1.8008-1-3.6016-2.1992-5.6016-3.1992l0.003906-56.406c0-112.2-96.602-200-220-200-123.4 0-219.8 87.801-219.8 200v56.199c-1.8008 1-3.6016 2.1992-5.6016 3.1992-3.1992 1.8008-6.3984 3.6016-9.6016 5.3984-6.6016 4-13.199 8.1992-19.801 12.398-1.5977 1.2031-3.3945 2.2031-4.9961 3.4062zm228-79.402c-1.8008 0.19922-3.6016 0.19922-5.3984 0.39844-44.801 3.6016-88.398 13.602-130 30-1 0.39844-2 0.80078-3 1.1992-1.8008 0.80078-3.6016 1.3984-5.3984 2.1992-1 0.39844-2.1992 0.80078-3.1992 1.1992-0.39844 0.19922-0.60156 0.19922-1 0.39844l-0.003906-36.594c0-89.801 79-160 180-160s180 70.199 180 160v36.602c-0.39844-0.19922-0.60156-0.19922-1-0.39844-1-0.39844-2.1992-0.80078-3.1992-1.1992-1.8008-0.80078-3.6016-1.3984-5.3984-2.1992-1-0.39844-2-0.80078-3-1.1992-41.801-16.398-85.199-26.398-130-30-1.8008-0.19922-3.6016-0.19922-5.3984-0.39844-10.605-0.80859-21.203-1.207-32.004-1.207s-21.398 0.39844-32 1.1992zm32 878.8c-231.6 0-420-188.4-420-420 0-144.6 73.398-272.4 185-348 0.80078-0.39844 1.6016-1 2.1992-1.3984 9.8008-6.3984 19.801-12.602 30-18.199 3.8008-2 7.6016-4 11.398-5.8008 7.3984-3.8008 14.801-7.3984 22.199-10.801 5.1992-2.1992 10.602-4.3984 15.801-6.3984 6.3984-2.6016 13-5 19.602-7.1992 6-2 12-3.8008 18-5.6016 6.3984-1.8008 13-3.6016 19.602-5 6-1.3984 12-2.8008 18-4 7.6016-1.3984 15.398-2.6016 23-3.6016 5.1992-0.60156 10.199-1.6016 15.398-2 13.199-1.1992 26.402-2 39.801-2s26.602 0.80078 39.602 2c5.1992 0.39844 10.199 1.3984 15.398 2 7.8008 1 15.398 2 23 3.6016 6 1.1992 12 2.6016 18 4 6.6016 1.6016 13.199 3.1992 19.602 5 6 1.8008 12 3.6016 18 5.6016 6.6016 2.1992 13.199 4.6016 19.602 7.1992 5.3984 2 10.602 4.1992 15.801 6.3984 7.6016 3.3984 15 7 22.199 10.801 3.8008 2 7.6016 3.8008 11.398 5.8008 10.199 5.6016 20.199 11.801 30 18.199 0.80078 0.39844 1.6016 1 2.1992 1.3984 111.8 75.602 185.2 203.4 185.2 348 0 231.6-188.4 420-420 420z"/>
  <path d="m600 520c-121.4 0-220 98.602-220 220s98.602 220 220 220 220-98.602 220-220-98.602-220-220-220zm0 400c-99.199 0-180-80.801-180-180s80.801-180 180-180 180 80.801 180 180-80.801 180-180 180z"/>
  <path d="m600 460c11 0 20-9 20-20v-80c0-11-9-20-20-20s-20 9-20 20v80c0 11 9 20 20 20z"/>
  <path d="m600 1020c-11 0-20 9-20 20v80c0 11 9 20 20 20s20-9 20-20v-80c0-11-9-20-20-20z"/>
  <path d="m980 720h-80c-11 0-20 9-20 20s9 20 20 20h80c11 0 20-9 20-20s-9-20-20-20z"/>
  <path d="m300 760c11 0 20-9 20-20s-9-20-20-20h-80c-11 0-20 9-20 20s9 20 20 20z"/>
  <path d="m798 542c4 4 9 5.8008 14.199 5.8008s10.199-2 14.199-5.8008l56.602-56.602c7.8008-7.8008 7.8008-20.398 0-28.199s-20.398-7.8008-28.199 0l-56.602 56.602c-8 7.8008-8 20.398-0.19922 28.199z"/>
  <path d="m402 938c-7.8008-7.8008-20.398-7.8008-28.199 0l-56.602 56.602c-7.8008 7.8008-7.8008 20.398 0 28.199 4 4 9 5.8008 14.199 5.8008 5.1992 0 10.199-2 14.199-5.8008l56.602-56.602c7.6016-7.8008 7.6016-20.398-0.19922-28.199z"/>
  <path d="m826.2 938c-7.8008-7.8008-20.398-7.8008-28.199 0s-7.8008 20.398 0 28.199l56.602 56.602c4 4 9 5.8008 14.199 5.8008s10.199-2 14.199-5.8008c7.8008-7.8008 7.8008-20.398 0-28.199z"/>
  <path d="m373.8 542c4 4 9 5.8008 14.199 5.8008s10.199-2 14.199-5.8008c7.8008-7.8008 7.8008-20.398 0-28.199l-56.602-56.602c-7.8008-7.8008-20.398-7.8008-28.199 0-7.8008 7.8008-7.8008 20.398 0 28.199z"/>
  <path d="m740 497.6c3.1992 1.8008 6.6016 2.6016 10 2.6016 7 0 13.602-3.6016 17.398-10l40-69.199c5.6016-9.6016 2.1992-21.801-7.3984-27.398-9.6016-5.6016-21.801-2.1992-27.398 7.3984l-40 69.199c-5.4023 9.5977-2.2031 21.797 7.3984 27.398z"/>
  <path d="m460 982.4c-9.6016-5.6016-21.801-2.1992-27.398 7.3984l-40 69.199c-5.6016 9.6016-2.1992 21.801 7.3984 27.398 3.1992 1.8008 6.6016 2.6016 10 2.6016 7 0 13.602-3.6016 17.398-10l40-69.199c5.4023-9.5977 2.2031-21.797-7.3984-27.398z"/>
  <path d="m939 912.6-69.199-40c-9.6016-5.6016-21.801-2.1992-27.398 7.3984-5.6016 9.6016-2.1992 21.801 7.3984 27.398l69.199 40c3.1992 1.8008 6.6016 2.6016 10 2.6016 7 0 13.602-3.6016 17.398-10 5.6016-9.6016 2.2031-21.801-7.3984-27.398z"/>
  <path d="m261 567.4 69.199 40c3.1992 1.8008 6.6016 2.6016 10 2.6016 7 0 13.602-3.6016 17.398-10 5.6016-9.6016 2.1992-21.801-7.3984-27.398l-69.199-40c-9.6016-5.4023-21.801-2.2031-27.398 7.3984-5.6016 9.6016-2.2031 21.801 7.3984 27.398z"/>
  <path d="m672.4 469.6c1.8008 0.39844 3.3984 0.60156 5.1992 0.60156 8.8008 0 17-5.8008 19.398-14.801l20.801-77.199c2.8008-10.602-3.3984-21.602-14.199-24.398-10.801-2.8008-21.602 3.3984-24.398 14.199l-20.801 77.199c-3 10.598 3.4023 21.398 14 24.398z"/>
  <path d="m527.6 1010.4c-10.801-2.8008-21.602 3.3984-24.398 14.199l-20.801 77.199c-2.8008 10.602 3.3984 21.602 14.199 24.398 1.8008 0.39844 3.3984 0.60156 5.1992 0.60156 8.8008 0 17-5.8008 19.398-14.801l20.801-77.199c2.6016-10.598-3.8008-21.398-14.398-24.398z"/>
  <path d="m972.2 819-77.199-20.801c-10.602-2.8008-21.602 3.3984-24.398 14.199-2.8008 10.602 3.3984 21.602 14.199 24.398l77.199 20.801c1.8008 0.39844 3.3984 0.60156 5.1992 0.60156 8.8008 0 17-5.8008 19.398-14.801 2.6016-10.598-3.5977-21.598-14.398-24.398z"/>
  <path d="m227.8 661 77.199 20.801c1.8008 0.39844 3.3984 0.60156 5.1992 0.60156 8.8008 0 17-5.8008 19.398-14.801 2.8008-10.602-3.3984-21.602-14.199-24.398l-77.199-20.801c-10.602-2.8008-21.602 3.3984-24.398 14.199-3 10.598 3.1992 21.598 14 24.398z"/>
  <path d="m503 455.4c2.3984 9 10.398 14.801 19.398 14.801 1.8008 0 3.3984-0.19922 5.1992-0.60156 10.602-2.8008 17-13.801 14.199-24.398l-20.801-77.199c-2.8008-10.602-13.801-17-24.398-14.199-10.602 2.8008-17 13.801-14.199 24.398z"/>
  <path d="m697 1024.6c-2.8008-10.602-13.801-17-24.398-14.199-10.602 2.8008-17 13.801-14.199 24.398l20.801 77.199c2.3984 9 10.398 14.801 19.398 14.801 1.8008 0 3.3984-0.19922 5.1992-0.60156 10.602-2.8008 17-13.801 14.199-24.398z"/>
  <path d="m870.4 667.6c2.3984 9 10.398 14.801 19.398 14.801 1.8008 0 3.3984-0.19922 5.1992-0.60156l77.199-20.801c10.602-2.8008 17-13.801 14.199-24.398-2.8008-10.602-13.801-17-24.398-14.199l-77.199 20.801c-10.797 2.5977-17.195 13.598-14.398 24.398z"/>
  <path d="m329.6 812.4c-2.8008-10.602-13.801-17-24.398-14.199l-77.199 20.801c-10.602 2.8008-17 13.801-14.199 24.398 2.3984 9 10.398 14.801 19.398 14.801 1.8008 0 3.3984-0.19922 5.1992-0.60156l77.199-20.801c10.398-2.5977 16.797-13.598 14-24.398z"/>
  <path d="m432.6 490.2c3.8008 6.3984 10.398 10 17.398 10 3.3984 0 6.8008-0.80078 10-2.6016 9.6016-5.6016 12.801-17.801 7.3984-27.398l-40-69.199c-5.6016-9.6016-17.801-12.801-27.398-7.3984-9.6016 5.6016-12.801 17.801-7.3984 27.398z"/>
  <path d="m767.4 989.8c-5.6016-9.6016-17.801-12.801-27.398-7.3984-9.6016 5.6016-12.801 17.801-7.3984 27.398l40 69.199c3.8008 6.3984 10.398 10 17.398 10 3.3984 0 6.8008-0.80078 10-2.6016 9.6016-5.6016 12.801-17.801 7.3984-27.398z"/>
  <path d="m842.4 600c3.8008 6.3984 10.398 10 17.398 10 3.3984 0 6.8008-0.80078 10-2.6016l69.199-40c9.6016-5.6016 12.801-17.801 7.3984-27.398-5.6016-9.6016-17.801-12.801-27.398-7.3984l-69.199 40c-9.5977 5.5977-12.797 17.797-7.3984 27.398z"/>
  <path d="m357.6 880c-5.6016-9.6016-17.801-12.801-27.398-7.3984l-69.199 40c-9.6055 5.5977-13.004 17.797-7.4023 27.398 3.8008 6.3984 10.398 10 17.398 10 3.3984 0 6.8008-0.80078 10-2.6016l69.199-40c9.6016-5.5977 12.801-17.797 7.4023-27.398z"/>
  <path d="m665.8 645.8-60 60c-7.8008 7.8008-7.8008 20.398 0 28.199 4 4 9 6 14.199 6s10.199-2 14.199-5.8008l60-60c7.8008-7.8008 7.8008-20.398 0-28.199s-20.598-8-28.398-0.19922z"/>
 </g>
</svg>
