<?xml version="1.0" encoding="UTF-8"?>
<svg width="1200pt" height="1200pt" version="1.1" viewBox="0 0 1200 1200" xmlns="http://www.w3.org/2000/svg">
 <path d="m457.2 141.6h-36c-26.398 0-48 19.199-51.602 45.602l-4.8008 42c-1.1992 6 2.3984 10.801 8.3984 12 7.1992 1.1992 15.602 2.3984 24 3.6016l6 99.602c0 8.3984 7.1992 14.398 14.398 14.398h45.602c8.3984 0 14.398-6 14.398-14.398l6-99.602c8.3984-1.1992 15.602-2.3984 24-3.6016 6-1.1992 8.3984-6 8.3984-12l-4.8008-42c-5.9922-26.402-27.59-45.602-53.992-45.602z"/>
 <path d="m488.4 79.199c0 27.172-22.027 49.199-49.199 49.199s-49.199-22.027-49.199-49.199 22.027-49.199 49.199-49.199 49.199 22.027 49.199 49.199z"/>
 <path d="m780 141.6h-36c-26.398 0-48 19.199-51.602 45.602l-4.8008 42c-1.1992 6 2.3984 10.801 8.3984 12 7.1992 1.1992 15.602 2.3984 24 3.6016l6 99.602c0 8.3984 7.1992 14.398 14.398 14.398h45.602c8.3984 0 14.398-6 14.398-14.398l6-99.602c8.3984-1.1992 15.602-2.3984 24-3.6016 6-1.1992 8.3984-6 8.3984-12l-4.8008-42c-5.9922-26.402-27.594-45.602-53.992-45.602z"/>
 <path d="m810 79.199c0 27.172-22.027 49.199-49.199 49.199s-49.199-22.027-49.199-49.199 22.027-49.199 49.199-49.199 49.199 22.027 49.199 49.199z"/>
 <path d="m295.2 344.4h-36c-26.398 0-48 19.199-51.602 45.602l-4.8008 42c-1.1992 6 2.3984 10.801 8.3984 12 7.1992 1.1992 15.602 2.3984 24 3.6016l6 99.602c0 8.3984 7.1992 14.398 14.398 14.398h44.406c8.3984 0 14.398-6 14.398-14.398l6-99.602c8.3984-1.1992 15.602-2.3984 24-3.6016 6-1.1992 8.3984-6 8.3984-12l-4.7969-42c-3.6016-26.398-26.398-45.602-52.801-45.602z"/>
 <path d="m326.4 282c0 27.172-22.027 49.199-49.199 49.199s-49.199-22.027-49.199-49.199 22.027-49.199 49.199-49.199 49.199 22.027 49.199 49.199z"/>
 <path d="m618 344.4h-36c-26.398 0-48 19.199-51.602 45.602l-4.8008 42c-1.1992 6 2.3984 10.801 8.3984 12 7.1992 1.1992 15.602 2.3984 24 3.6016l6 99.602c0 8.3984 7.1992 14.398 14.398 14.398h45.602c8.3984 0 14.398-6 14.398-14.398l6-99.602c8.3984-1.1992 15.602-2.3984 24-3.6016 6-1.1992 8.3984-6 8.3984-12l-4.8008-42c-4.793-26.398-27.594-45.602-53.992-45.602z"/>
 <path d="m649.2 282c0 27.172-22.027 49.199-49.199 49.199s-49.199-22.027-49.199-49.199 22.027-49.199 49.199-49.199 49.199 22.027 49.199 49.199z"/>
 <path d="m940.8 344.4h-36c-26.398 0-48 19.199-51.602 45.602l-4.8008 42c-1.1992 6 2.3984 10.801 8.3984 12 7.1992 1.1992 15.602 2.3984 24 3.6016l6 99.602c0 8.3984 7.1992 14.398 14.398 14.398h45.602c8.3984 0 14.398-6 14.398-14.398l6-99.602c8.3984-1.1992 15.602-2.3984 24-3.6016 6-1.1992 8.3984-6 8.3984-12l-4.8008-42c-4.793-26.398-27.594-45.602-53.992-45.602z"/>
 <path d="m972 282c0 27.172-22.027 49.199-49.199 49.199s-49.199-22.027-49.199-49.199 22.027-49.199 49.199-49.199 49.199 22.027 49.199 49.199z"/>
 <path d="m134.4 547.2h-36c-26.398 0-48 19.199-51.602 45.602l-5.9961 43.199c-1.1992 6 2.3984 10.801 8.3984 12 7.1992 1.1992 15.602 2.3984 24 3.6016l6 99.602c0 8.3984 7.1992 14.398 14.398 14.398h45.602c8.3984 0 14.398-6 14.398-14.398l6-99.602c8.3984-1.1992 15.602-2.3984 24-3.6016 6-1.1992 8.3984-6 8.3984-12l-4.8008-42c-3.5938-27.602-26.395-46.801-52.797-46.801z"/>
 <path d="m165.6 484.8c0 27.172-22.027 49.199-49.203 49.199-27.172 0-49.199-22.027-49.199-49.199s22.027-49.199 49.199-49.199c27.176 0 49.203 22.027 49.203 49.199z"/>
 <path d="m457.2 547.2h-36c-26.398 0-48 19.199-51.602 45.602l-5.9961 43.199c-1.1992 6 2.3984 10.801 8.3984 12 7.1992 1.1992 15.602 2.3984 24 3.6016l6 99.602c0 8.3984 7.1992 14.398 14.398 14.398h45.602c8.3984 0 14.398-6 14.398-14.398l6-99.602c8.3984-1.1992 15.602-2.3984 24-3.6016 6-1.1992 8.3984-6 8.3984-12l-4.8008-42c-4.7969-27.602-26.395-46.801-52.797-46.801z"/>
 <path d="m488.4 484.8c0 27.172-22.027 49.199-49.199 49.199s-49.199-22.027-49.199-49.199 22.027-49.199 49.199-49.199 49.199 22.027 49.199 49.199z"/>
 <path d="m780 547.2h-36c-26.398 0-48 19.199-51.602 45.602l-6 43.199c-1.1992 6 2.3984 10.801 8.3984 12 7.1992 1.1992 15.602 2.3984 24 3.6016l6 99.602c0 8.3984 7.1992 14.398 14.398 14.398h45.602c8.3984 0 14.398-6 14.398-14.398l6-99.602c8.3984-1.1992 15.602-2.3984 24-3.6016 6-1.1992 8.3984-6 8.3984-12l-4.8008-42c-4.793-27.602-26.395-46.801-52.793-46.801z"/>
 <path d="m810 484.8c0 27.172-22.027 49.199-49.199 49.199s-49.199-22.027-49.199-49.199 22.027-49.199 49.199-49.199 49.199 22.027 49.199 49.199z"/>
 <path d="m1153.2 592.8c-3.6016-26.398-25.199-45.602-51.602-45.602h-36c-26.398 0-48 19.199-51.602 45.602l-4.7969 43.199c-1.1992 6 2.3984 10.801 8.3984 12 7.1992 1.1992 15.602 2.3984 24 3.6016l6 99.602c0 8.3984 7.1992 14.398 14.398 14.398h45.602c8.3984 0 14.398-6 14.398-14.398l6-99.602c8.3984-1.1992 15.602-2.3984 24-3.6016 6-1.1992 8.3984-6 8.3984-12z"/>
 <path d="m1132.8 484.8c0 27.172-22.027 49.199-49.199 49.199-27.176 0-49.203-22.027-49.203-49.199s22.027-49.199 49.203-49.199c27.172 0 49.199 22.027 49.199 49.199z"/>
 <path d="m295.2 750h-36c-26.398 0-48 19.199-51.602 45.602l-4.8008 42c-1.1992 6 2.3984 10.801 8.3984 12 7.1992 1.1992 15.602 2.3984 24 3.6016l6 99.602c0 8.3984 7.1992 14.398 14.398 14.398l44.406-0.003906c8.3984 0 14.398-6 14.398-14.398l6-99.602c8.3984-1.1992 15.602-2.3984 24-3.6016 6-1.1992 8.3984-6 8.3984-12l-4.7969-41.996c-3.6016-26.402-26.398-45.602-52.801-45.602z"/>
 <path d="m326.4 687.6c0 27.172-22.027 49.199-49.199 49.199s-49.199-22.027-49.199-49.199c0-27.176 22.027-49.203 49.199-49.203s49.199 22.027 49.199 49.203z"/>
 <path d="m618 750h-36c-26.398 0-48 19.199-51.602 45.602l-4.8008 42c-1.1992 6 2.3984 10.801 8.3984 12 7.1992 1.1992 15.602 2.3984 24 3.6016l6 99.602c0 8.3984 7.1992 14.398 14.398 14.398h45.602c8.3984 0 14.398-6 14.398-14.398l6-99.602c8.3984-1.1992 15.602-2.3984 24-3.6016 6-1.1992 8.3984-6 8.3984-12l-4.8008-42c-4.793-26.402-27.594-45.602-53.992-45.602z"/>
 <path d="m649.2 687.6c0 27.172-22.027 49.199-49.199 49.199s-49.199-22.027-49.199-49.199c0-27.176 22.027-49.203 49.199-49.203s49.199 22.027 49.199 49.203z"/>
 <path d="m940.8 750h-36c-26.398 0-48 19.199-51.602 45.602l-4.8008 42c-1.1992 6 2.3984 10.801 8.3984 12 7.1992 1.1992 15.602 2.3984 24 3.6016l6 99.602c0 8.3984 7.1992 14.398 14.398 14.398h45.602c8.3984 0 14.398-6 14.398-14.398l6-99.602c8.3984-1.1992 15.602-2.3984 24-3.6016 6-1.1992 8.3984-6 8.3984-12l-4.8008-42c-4.793-26.402-27.594-45.602-53.992-45.602z"/>
 <path d="m972 687.6c0 27.172-22.027 49.199-49.199 49.199s-49.199-22.027-49.199-49.199c0-27.176 22.027-49.203 49.199-49.203s49.199 22.027 49.199 49.203z"/>
 <path d="m457.2 952.8h-36c-26.398 0-48 19.199-51.602 45.602l-4.8008 42c-1.1992 6 2.3984 10.801 8.3984 12 7.1992 1.1992 15.602 2.3984 24 3.6016l6 99.602c0 8.3984 7.1992 14.398 14.398 14.398h45.602c8.3984 0 14.398-6 14.398-14.398l6-99.602c8.3984-1.1992 15.602-2.3984 24-3.6016 6-1.1992 8.3984-6 8.3984-12l-4.8008-42c-5.9922-26.402-27.59-45.602-53.992-45.602z"/>
 <path d="m488.4 890.4c0 27.176-22.027 49.203-49.199 49.203s-49.199-22.027-49.199-49.203c0-27.172 22.027-49.199 49.199-49.199s49.199 22.027 49.199 49.199z"/>
 <path d="m780 952.8h-36c-26.398 0-48 19.199-51.602 45.602l-4.8008 42c-1.1992 6 2.3984 10.801 8.3984 12 7.1992 1.1992 15.602 2.3984 24 3.6016l6 99.602c0 8.3984 7.1992 14.398 14.398 14.398h45.602c8.3984 0 14.398-6 14.398-14.398l6-99.602c8.3984-1.1992 15.602-2.3984 24-3.6016 6-1.1992 8.3984-6 8.3984-12l-4.8008-42c-5.9922-26.402-27.594-45.602-53.992-45.602z"/>
 <path d="m810 890.4c0 27.176-22.027 49.203-49.199 49.203s-49.199-22.027-49.199-49.203c0-27.172 22.027-49.199 49.199-49.199s49.199 22.027 49.199 49.199z"/>
</svg>
