<?xml version="1.0" encoding="UTF-8"?>
<svg width="1200pt" height="1200pt" version="1.1" viewBox="0 0 1200 1200" xmlns="http://www.w3.org/2000/svg">
 <path d="m1089.6 375.6c-10.801-33.602-27.602-64.801-43.199-96-8.3984-15.602-16.801-30-25.199-45.602-8.3984-14.398-16.801-33.602-28.801-45.602-4.8008-4.8008-12-6-16.801-3.6016-3.6016-1.1992-8.3984-2.3984-13.199 0-62.398 25.199-122.4 60-181.2 94.801-58.801 34.801-117.6 72-174 111.6-111.6 76.801-219.6 160.8-324 247.2-60 49.199-117.6 102-176.4 153.6-1.1992 0-1.1992 1.1992-1.1992 2.3984-4.8008 3.6016-7.1992 9.6016-4.8008 15.602 7.1992 20.398 19.199 38.398 30 57.602 9.6016 18 20.398 36 30 54 19.199 33.602 39.602 69.602 72 92.398 6 4.8008 15.602 2.3984 21.602-3.6016 2.3984 0 4.8008 0 7.1992-1.1992 28.801-15.602 55.199-38.398 80.398-58.801 26.398-20.398 52.801-40.801 80.398-61.199 52.801-40.801 106.8-80.398 160.8-120 109.2-80.398 218.4-159.6 330-236.4 61.199-43.199 127.2-82.801 184.8-129.6 8.3984-9.5977 2.3984-22.801-8.3984-27.598zm-182.4 109.2c-55.199 37.199-110.4 75.602-165.6 115.2-109.2 78-216 158.4-321.6 242.4-30 22.801-58.801 46.801-87.602 70.801-27.602 22.801-57.602 44.398-82.801 72-10.801-13.199-21.602-25.199-31.199-39.602-10.801-15.602-20.398-31.199-30-46.801-9.6016-16.801-19.199-33.602-28.801-50.398-9.6016-15.602-18-32.398-28.801-46.801 19.199-15.602 39.602-31.199 58.801-46.801 10.801 13.199 24 26.398 36 39.602 12 13.199 22.801 27.602 36 40.801 4.8008 4.8008 13.199 6 19.199 1.1992 6-4.8008 7.1992-12 3.6016-19.199-9.6016-16.801-21.602-31.199-34.801-45.602-10.801-13.199-22.801-25.199-34.801-37.199 20.398-16.801 40.801-32.398 62.398-49.199 4.8008 4.8008 8.3984 9.6016 13.199 13.199 2.3984 2.3984 4.8008 4.8008 7.1992 7.1992 2.3984 2.3984 3.6016 3.6016 6 6 1.1992 1.1992 3.6016 2.3984 4.8008 3.6016 1.1992 0 2.3984 1.1992 3.6016 1.1992 1.1992 0 3.6016 1.1992 4.8008 0 2.3984 0 6-1.1992 7.1992-3.6016 1.1992-1.1992 2.3984-3.6016 3.6016-6 1.1992-2.3984 0-7.1992-1.1992-10.801l-2.3984-4.8008c-1.1992-2.3984-3.6016-4.8008-6-6-2.3984-2.3984-4.8008-4.8008-8.3984-7.1992-3.6016-3.6016-7.1992-7.1992-10.801-10.801 18-14.398 36-27.602 54-40.801l1.1992 1.1992c3.6016 4.8008 8.3984 9.6016 13.199 14.398 2.3984 2.3984 7.1992 4.8008 10.801 4.8008h4.8008c2.3984 0 3.6016-1.1992 6-2.3984 1.1992-1.1992 2.3984-1.1992 2.3984-2.3984 1.1992-1.1992 2.3984-3.6016 2.3984-6v-4.8008c0-2.3984-1.1992-6-2.3984-8.3984-2.3984-3.6016-4.8008-6-7.1992-8.3984-1.1992-2.3984-3.6016-3.6016-4.8008-6l-1.1992-1.1992c18-13.199 34.801-27.602 51.602-40.801 3.6016 4.8008 7.1992 8.3984 12 13.199 4.8008 6 10.801 12 15.602 18s9.6016 12 14.398 18c4.8008 6 10.801 12 16.801 16.801 6 6 14.398 6 20.398 1.1992 6-4.8008 7.1992-13.199 3.6016-20.398-4.8008-8.3984-8.3984-15.602-14.398-22.801-4.8008-6-10.801-12-15.602-18-4.8008-6-10.801-10.801-16.801-16.801-3.6016-3.6016-7.1992-6-10.801-9.6016 21.602-16.801 44.398-32.398 67.199-49.199l10.801 12c2.3984 2.3984 4.8008 4.8008 7.1992 7.1992 3.6016 3.6016 7.1992 6 12 8.3984 1.1992 0 2.3984 1.1992 3.6016 1.1992 2.3984 1.1992 4.8008 1.1992 6 0 3.6016 0 7.1992-2.3984 9.6016-4.8008 2.3984-2.3984 3.6016-4.8008 3.6016-7.1992 1.1992-2.3984 1.1992-4.8008 0-6 0-2.3984-1.1992-3.6016-2.3984-6-2.3984-3.6016-4.8008-8.3984-8.3984-12-2.3984-2.3984-4.8008-4.8008-8.3984-7.1992l-6.0078-2.3945c22.801-16.801 46.801-32.398 69.602-48 1.1992 2.3984 3.6016 4.8008 6 7.1992 1.1992 2.3984 3.6016 4.8008 4.8008 6 2.3984 2.3984 4.8008 3.6016 7.1992 4.8008 1.1992 1.1992 2.3984 1.1992 3.6016 2.3984 2.3984 1.1992 4.8008 2.3984 7.1992 2.3984h7.1992c1.1992-1.1992 2.3984-1.1992 4.8008-2.3984 2.3984-1.1992 3.6016-2.3984 4.8008-4.8008 1.1992-1.1992 2.3984-2.3984 2.3984-3.6016 1.1992-2.3984 1.1992-4.8008 1.1992-7.1992 0-1.1992 0-3.6016-1.1992-4.8008-1.1992-3.6016-2.3984-6-4.8008-8.3984l-1.1992-1.1992c1.1992 1.1992 2.3984 2.3984 2.3984 3.6016-2.3984-3.6016-4.8008-7.1992-8.3984-9.6016-1.1992-1.1992-2.3984-3.6016-3.6016-4.8008l-1.1992-1.1992c18-12 36-24 54-34.801 1.1992 2.3984 3.6016 4.8008 4.8008 7.1992 4.8008 7.1992 10.801 14.398 15.602 21.602 4.8008 7.1992 9.6016 14.398 14.398 21.602 3.6016 3.6016 6 8.3984 9.6016 12 2.3984 3.6016 6 7.1992 9.6016 9.6016 4.8008 4.8008 12 6 18 2.3984 4.8008-3.6016 9.6016-10.801 7.1992-16.801-1.1992-4.8008-3.6016-8.3984-4.8008-13.199-2.3984-4.8008-4.8008-8.3984-7.1992-13.199-4.8008-7.1992-9.6016-14.398-15.602-21.602-6-7.1992-10.801-14.398-16.801-21.602-1.1992-2.3984-3.6016-3.6016-4.8008-6 13.199-8.3984 27.602-16.801 40.801-25.199 12-7.1992 22.801-13.199 34.801-19.199v1.1992c2.3984 3.6016 4.8008 8.3984 7.1992 12 3.6016 4.8008 7.1992 9.6016 12 13.199 2.3984 2.3984 4.8008 4.8008 8.3984 6 2.3984 1.1992 4.8008 2.3984 7.1992 3.6016 3.6016 1.1992 6 2.3984 9.6016 1.1992 3.6016 0 6-1.1992 8.3984-3.6016 1.1992-2.3984 3.6016-3.6016 3.6016-7.1992 1.1992-3.6016 0-8.3984-1.1992-12-1.1992-2.3984-3.6016-4.8008-4.8008-7.1992-2.3984-3.6016-4.8008-6-8.3984-9.6016-3.6016-3.6016-7.1992-8.3984-10.801-12-1.1992-1.1992-1.1992-2.3984-2.3984-3.6016 22.801-12 45.602-24 68.398-36 1.1992 2.3984 1.1992 3.6016 2.3984 6 1.1992 1.1992 2.3984 3.6016 3.6016 4.8008 2.3984 3.6016 6 8.3984 9.6016 12 3.6016 3.6016 8.3984 6 13.199 8.3984 3.6016 2.3984 9.6016 3.6016 14.398 2.3984 3.6016-1.1992 7.1992-3.6016 9.6016-6 2.3984-3.6016 3.6016-7.1992 3.6016-10.801 0-4.8008-1.1992-9.6016-4.8008-13.199-3.6016-2.3984-6-6-8.3984-8.3984-2.3984-2.3984-6-6-8.3984-8.3984-1.1992-1.1992-1.1992-2.3984-2.3984-2.3984 0 0 0 1.1992 1.1992 1.1992 0 0 0-1.1992-1.1992-1.1992 10.801-6 22.801-12 33.602-18 1.1992 2.3984 2.3984 4.8008 3.6016 7.1992 3.6016 7.1992 7.1992 14.398 10.801 21.602 8.3984 15.602 15.602 30 24 45.602 14.398 30 28.801 60 45.602 88.801-51.613 26.398-100.82 62.398-150.02 96z"/>
</svg>
