<?xml version="1.0" encoding="UTF-8"?>
<svg width="1200pt" height="1200pt" version="1.1" viewBox="0 0 1200 1200" xmlns="http://www.w3.org/2000/svg">
 <path d="m1152.1 564.48c-5.7852-2.8906-110.09-53.906-308.39-80.25v-427.98c0-4.9727-1.9766-9.7422-5.4922-13.258-3.5156-3.5156-8.2852-5.4922-13.258-5.4922h-450c-4.9727 0-9.7422 1.9766-13.258 5.4922-3.5156 3.5156-5.4922 8.2852-5.4922 13.258v427.98c-198.28 26.348-302.6 77.359-308.39 80.25-3.1133 1.5586-5.7344 3.9492-7.5625 6.9141-1.832 2.9609-2.8008 6.375-2.8008 9.8555v93.75c0 6.4961 3.3633 12.527 8.8828 15.945 5.5234 3.4141 12.422 3.7305 18.234 0.83203 1.0352-0.51172 60.199-29.297 173.1-54.5l35.254 79.312-0.003906 0.003906c4.4219 9.9414 11.633 18.387 20.758 24.316 9.1211 5.9258 19.77 9.0859 30.648 9.0898h551.25c10.879-0.003906 21.523-3.1641 30.645-9.0938 9.125-5.9258 16.332-14.371 20.758-24.312l35.25-79.316c112.9 25.195 172.06 53.98 173.08 54.488v0.003906c5.8125 2.9102 12.719 2.5977 18.246-0.81641 5.5312-3.418 8.8945-9.4531 8.8945-15.953v-93.75c0-3.4805-0.96875-6.8945-2.8008-9.8555-1.8281-2.9648-4.4492-5.3555-7.5625-6.9141zm-758.39-489.48h412.5v404.68c-68.5-7.4062-137.35-11.055-206.25-10.934-68.898-0.12109-137.75 3.5273-206.25 10.934zm499.01 626.37c-1.4727 3.3125-3.8789 6.1289-6.918 8.1055-3.043 1.9766-6.5898 3.0273-10.219 3.0273h-551.25c-3.625 0-7.1758-1.0508-10.215-3.0273-3.043-1.9766-5.4453-4.793-6.918-8.1094l-31.961-71.902c84.207-16.336 192.88-29.461 324.72-29.461s240.51 13.125 324.72 29.461zm232.24-54.961c-64.273-25.715-241.14-83.906-525-83.906s-460.73 58.191-525 83.906v-53.047c43.68-18.699 224.08-87.109 525-87.109s481.32 68.41 525 87.109z"/>
 <path d="m543.75 656.25c0 10.355-8.3945 18.75-18.75 18.75s-18.75-8.3945-18.75-18.75 8.3945-18.75 18.75-18.75 18.75 8.3945 18.75 18.75z"/>
 <path d="m618.75 656.25c0 10.355-8.3945 18.75-18.75 18.75s-18.75-8.3945-18.75-18.75 8.3945-18.75 18.75-18.75 18.75 8.3945 18.75 18.75z"/>
 <path d="m693.75 656.25c0 10.355-8.3945 18.75-18.75 18.75s-18.75-8.3945-18.75-18.75 8.3945-18.75 18.75-18.75 18.75 8.3945 18.75 18.75z"/>
 <path d="m614.79 906.41c-7.875-15.848-7.875-34.465 0-50.309l20.727-41.461c2.2695-4.4531 2.668-9.6289 1.1055-14.375-1.5586-4.75-4.9531-8.6758-9.4219-10.914-4.4727-2.2344-9.6484-2.5938-14.387-0.99219-4.7344 1.5977-8.6367 5.0195-10.836 9.5078l-20.73 41.461c-13.129 26.41-13.129 57.445 0 83.852l18.75 37.5c4.707 9.3359 6.7031 19.801 5.7656 30.211-0.9375 10.414-4.7773 20.352-11.078 28.695l-28.438 37.918c-4.0195 5.3594-4.875 12.457-2.2422 18.617 2.6289 6.1602 8.3477 10.445 15 11.25 6.6484 0.80078 13.223-2.0078 17.242-7.3672l28.438-37.918c10.504-13.906 16.898-30.473 18.461-47.824 1.5664-17.352-1.7617-34.797-9.6055-50.355z"/>
 <path d="m464.79 981.41c-7.875-15.848-7.875-34.465 0-50.309l20.727-41.461c2.9336-5.9844 2.4727-13.074-1.2148-18.625-3.6836-5.5547-10.039-8.7305-16.695-8.3516-6.6523 0.38281-12.602 4.2656-15.629 10.203l-20.73 41.461c-13.129 26.41-13.129 57.445 0 83.852l18.75 37.5c4.707 9.3359 6.7031 19.801 5.7656 30.211-0.9375 10.414-4.7773 20.352-11.078 28.695l-28.438 37.918c-4.0195 5.3594-4.875 12.457-2.2422 18.617 2.6289 6.1602 8.3477 10.445 15 11.25 6.6484 0.80078 13.223-2.0078 17.242-7.3672l28.438-37.918c10.504-13.906 16.898-30.473 18.461-47.824 1.5664-17.352-1.7617-34.797-9.6055-50.355z"/>
 <path d="m764.79 981.41c-7.875-15.848-7.875-34.465 0-50.309l20.727-41.461c2.2695-4.4531 2.668-9.6289 1.1055-14.375-1.5586-4.75-4.9531-8.6758-9.4219-10.914-4.4727-2.2344-9.6484-2.5938-14.387-0.99219-4.7344 1.5977-8.6367 5.0195-10.836 9.5078l-20.73 41.461c-13.129 26.41-13.129 57.445 0 83.852l18.75 37.5c4.707 9.3359 6.7031 19.801 5.7656 30.211-0.9375 10.414-4.7773 20.352-11.078 28.695l-28.438 37.918c-4.0195 5.3594-4.875 12.457-2.2422 18.617 2.6289 6.1602 8.3477 10.445 15 11.25 6.6484 0.80078 13.223-2.0078 17.242-7.3672l28.438-37.918c10.504-13.906 16.898-30.473 18.461-47.824 1.5664-17.352-1.7617-34.797-9.6055-50.355z"/>
</svg>
