<?xml version="1.0" encoding="UTF-8"?>
<svg width="1200pt" height="1200pt" version="1.1" viewBox="0 0 1200 1200" xmlns="http://www.w3.org/2000/svg">
 <path d="m1051 672.16c10.418 13.645 15.422 30.676 13.906 49.555-3.5625 44.371-42.316 79.832-93.742 79.832h-232.78c-53.695 0-87.715-29.051-89.82-70.047-0.625-12.145 1.75-23.891 6.5156-34.25h-143.71-183.09c-51.137 0-87.551-27.078-97.672-65.93-3.4375-13.18-3.2734-26.246 0-37.707h-20.082-80.367c-56.422 0-94.719-44.938-94.191-98.992 0.55859-55.879 41.883-98.621 107.15-98.621h950.53c47.363 0 81.027 30.992 82.281 70.672 1.2852 40.738-31.875 71.863-82.281 71.863h-6.5391c9.7461 12.723 16.59 27.848 19.504 44.07 7.5078 41.809-13.281 77.203-55.609 89.555zm-64.934-33.293c4.2773 0.015624 8.1797 0.027343 11.871 0.039062 14.059 0.035156 24.531 0.011719 25.41-0.050781 36.266-2.5234 51.062-22.07 46.121-49.582-5.043-28.082-28.875-50.738-56.422-50.738-25.156 0-25.156-37.734 0-37.734h80.598c29.867 0 45.152-14.348 44.566-32.938-0.59766-18.875-17.168-34.129-44.566-34.129h-950.53c-44.195 0-69.059 25.719-69.41 61.258-0.33594 34.227 22.383 60.887 56.453 60.887h80.367 69.074c25.156 0 25.156 37.734 0 37.734-10.582 0-16.836 11.477-12.48 28.195 5.7188 21.941 26.918 37.707 61.16 37.707h389.98c24.516 0 24.516 37.734 0.007813 37.734h-6.1562c-15.047 0-26.773 14.641-25.867 32.312 1.0273 20.008 17.707 34.25 52.137 34.25h232.78c31.824 0 54.145-20.422 56.129-45.117 1.9414-24.188-16.672-42.125-56.039-42.152h-0.089844c-25.156 0-25.156-37.734 0-37.734h0.089844c8.8633 0.035156 13.801 0.054687 14.812 0.058594z"/>
</svg>
