<?xml version="1.0" encoding="UTF-8"?>
<svg width="1200pt" height="1200pt" version="1.1" viewBox="0 0 1200 1200" xmlns="http://www.w3.org/2000/svg">
 <path d="m1050 1033.6h-843.74c-6.4688 0-11.719-5.25-11.719-11.719v-843.74c0-4.7344 2.8594-9 7.2188-10.828 4.4062-1.8281 9.4219-0.79688 12.797 2.5312l843.74 843.74c3.3281 3.375 4.3594 8.3906 2.5312 12.797-1.8281 4.3594-6.0938 7.2188-10.828 7.2188zm-832.03-23.438h803.72l-803.72-803.72z"/>
 <path d="m709.03 885.61h-329.68c-6.4688 0-11.719-5.25-11.719-11.719v-329.68c0-4.7344 2.8594-9 7.2188-10.828 4.4062-1.8281 9.4219-0.79688 12.797 2.5312l329.68 329.68c3.3281 3.375 4.3594 8.3906 2.5312 12.797-1.8281 4.3594-6.0938 7.2188-10.828 7.2188zm-317.95-23.438h289.64l-289.64-289.64z"/>
 <path d="m932.68 1030.8c-6.4688 0-11.719-5.25-11.719-11.719v-30.75 0.046875c0-6.4688 5.25-11.719 11.719-11.719s11.719 5.25 11.719 11.719v30.75-0.046875c0 6.4688-5.25 11.719-11.719 11.719z"/>
 <path d="m846.05 1030.8c-6.4688 0-11.719-5.25-11.719-11.719v-53.062c0-6.4688 5.25-11.719 11.719-11.719s11.719 5.25 11.719 11.719v53.062c0 6.4688-5.25 11.719-11.719 11.719z"/>
 <path d="m759.42 1030.8c-6.4688 0-11.719-5.25-11.719-11.719v-30.75 0.046875c0-6.4688 5.25-11.719 11.719-11.719s11.719 5.25 11.719 11.719v30.75-0.046875c0 6.4688-5.25 11.719-11.719 11.719z"/>
 <path d="m672.84 1030.8c-6.5156 0-11.719-5.25-11.719-11.719v-53.062c0-6.4688 5.2031-11.719 11.719-11.719 6.4688 0 11.719 5.25 11.719 11.719v53.062c0 6.4688-5.25 11.719-11.719 11.719z"/>
 <path d="m586.22 1030.8c-6.4688 0-11.719-5.25-11.719-11.719v-30.75 0.046875c0-6.4688 5.25-11.719 11.719-11.719s11.719 5.25 11.719 11.719v30.75-0.046875c0 6.4688-5.25 11.719-11.719 11.719z"/>
 <path d="m499.6 1030.8c-6.4688 0-11.719-5.25-11.719-11.719v-53.062c0-6.4688 5.25-11.719 11.719-11.719s11.719 5.25 11.719 11.719v53.062c0 6.4688-5.25 11.719-11.719 11.719z"/>
 <path d="m413.02 1030.8c-6.5156 0-11.719-5.25-11.719-11.719v-30.75 0.046875c0-6.4688 5.2031-11.719 11.719-11.719 6.4688 0 11.719 5.25 11.719 11.719v30.75-0.046875c0 6.4688-5.25 11.719-11.719 11.719z"/>
 <path d="m326.39 1030.8c-6.4688 0-11.719-5.25-11.719-11.719v-53.062c0-6.4688 5.25-11.719 11.719-11.719s11.719 5.25 11.719 11.719v53.062c0 6.4688-5.25 11.719-11.719 11.719z"/>
 <path d="m237 941.39h-30.75c-6.4688 0-11.719-5.25-11.719-11.719s5.25-11.719 11.719-11.719h30.75c6.4688 0 11.719 5.25 11.719 11.719s-5.25 11.719-11.719 11.719z"/>
 <path d="m259.31 854.76h-53.062c-6.4688 0-11.719-5.25-11.719-11.719s5.25-11.719 11.719-11.719h53.062c6.4688 0 11.719 5.25 11.719 11.719s-5.25 11.719-11.719 11.719z"/>
 <path d="m237 768.19h-30.75c-6.4688 0-11.719-5.25-11.719-11.719s5.25-11.719 11.719-11.719h30.75c6.4688 0 11.719 5.25 11.719 11.719s-5.25 11.719-11.719 11.719z"/>
 <path d="m259.31 681.56h-53.062c-6.4688 0-11.719-5.25-11.719-11.719s5.25-11.719 11.719-11.719h53.062c6.4688 0 11.719 5.25 11.719 11.719s-5.25 11.719-11.719 11.719z"/>
 <path d="m237 594.94h-30.75c-6.4688 0-11.719-5.25-11.719-11.719s5.25-11.719 11.719-11.719h30.75c6.4688 0 11.719 5.25 11.719 11.719s-5.25 11.719-11.719 11.719z"/>
 <path d="m259.31 508.36h-53.062c-6.4688 0-11.719-5.25-11.719-11.719s5.25-11.719 11.719-11.719h53.062c6.4688 0 11.719 5.25 11.719 11.719s-5.25 11.719-11.719 11.719z"/>
 <path d="m237 421.74h-30.75c-6.4688 0-11.719-5.25-11.719-11.719s5.25-11.719 11.719-11.719h30.75c6.4688 0 11.719 5.25 11.719 11.719s-5.25 11.719-11.719 11.719z"/>
 <path d="m259.31 335.11h-53.062c-6.4688 0-11.719-5.25-11.719-11.719s5.25-11.719 11.719-11.719h53.062c6.4688 0 11.719 5.25 11.719 11.719s-5.25 11.719-11.719 11.719z"/>
</svg>
