<?xml version="1.0" encoding="UTF-8"?>
<svg width="1200pt" height="1200pt" version="1.1" viewBox="0 0 1200 1200" xmlns="http://www.w3.org/2000/svg">
 <path d="m1059.5 166-25.453-25.453-432 432-432-432-25.453 25.453 432 432-432 432.01 25.453 25.453 432-432 432 432 25.453-25.453-432-432.01z"/>
 <path d="m411.46 598-241.45-241.45-25.453 25.453 216 216-216 216.01 25.453 25.453z"/>
 <path d="m519.46 598-349.45-349.45-25.453 25.453 324 324-324 324.01 25.453 25.453z"/>
 <path d="m170 731.46 133.45-133.46-133.45-133.45-25.453 25.453 108 108-108 108.01z"/>
 <path d="m792.55 598 241.45 241.46 25.453-25.453-216-216.01 216-216-25.453-25.453z"/>
 <path d="m684.55 598 349.45 349.46 25.453-25.453-324-324.01 324-324-25.453-25.453z"/>
 <path d="m1034 464.54-133.45 133.45 133.45 133.46 25.453-25.453-108-108.01 108-108z"/>
 <path d="m360.55 1030 25.453 25.453 216-216 216 216 25.453-25.453-241.45-241.45z"/>
 <path d="m252.55 1030 25.453 25.453 324-324 324 324 25.453-25.453-349.45-349.45z"/>
 <path d="m468.55 1030 25.453 25.453 108-108 108 108 25.453-25.453-133.45-133.45z"/>
 <path d="m843.46 166-25.453-25.453-216 216-216-216-25.453 25.453 241.45 241.46z"/>
 <path d="m951.46 166-25.453-25.453-324 324-324-324-25.453 25.453 349.45 349.46z"/>
 <path d="m735.46 166-25.453-25.453-108 108-108-108-25.453 25.453 133.45 133.46z"/>
</svg>
