<?xml version="1.0" encoding="UTF-8"?>
<svg width="1200pt" height="1200pt" version="1.1" viewBox="0 0 1200 1200" xmlns="http://www.w3.org/2000/svg">
 <path d="m202.92 654.94s15.938 290.16 280.69 396.61c74.625 30 158.29 30 232.92 0 264.61-106.45 280.69-396.61 280.69-396.61-44.625 126.71-180.47 149.53-180.47 149.53 133.92-102.84 130.55-332.39 130.55-332.39-11.766 47.531-171.37 153.37-173.76 154.92 156.24-167.06 36-392.06 36-392.06 4.5469 186.84-133.55 298.31-135.61 300 72.938-215.06-33.234-363-73.688-409.22-40.453 46.219-146.63 194.16-73.688 409.22-2.1562-1.6875-140.16-113.16-135.61-300 0 0-120.24 225 36 392.06-2.5312-1.6875-162.14-107.39-173.76-154.92 0 0-3.375 229.55 130.55 332.39 0 0-135.84-22.781-180.47-149.53zm311.16 256.22c-53.062-40.781-51.703-131.76-51.703-131.76 4.6875 18.844 67.922 60.844 68.859 61.453-61.922-66.234-14.297-155.39-14.297-155.39-1.7812 74.062 52.922 118.22 53.766 118.92-28.922-85.312 13.219-143.86 29.297-162.24 16.078 18.234 58.078 76.922 29.156 162.24 0.84375-0.70312 55.547-44.859 53.766-118.92 0 0 47.625 89.156-14.297 155.39 0.9375-0.60937 64.312-42.609 68.859-61.453 0 0 1.3125 90.938-51.703 131.76 0 0 53.859-9 71.531-59.297 0 0-6.375 115.08-111.23 157.22-29.625 11.859-62.766 11.859-92.297 0-104.86-42.234-111.23-157.22-111.23-157.22 17.625 50.297 71.531 59.297 71.531 59.297z"/>
</svg>
