<?xml version="1.0" encoding="UTF-8"?>
<svg width="1200pt" height="1200pt" version="1.1" viewBox="0 0 1200 1200" xmlns="http://www.w3.org/2000/svg">
 <defs>
  <clipPath id="a">
   <path d="m222.14 437h755.71v322h-755.71z"/>
  </clipPath>
 </defs>
 <g clip-path="url(#a)">
  <path d="m953.09 595.73h-88.371c-3.5352 0-6.4023-2.8672-6.4023-6.4023 0-3.5391 2.8672-6.4062 6.4023-6.4062h86.633l-13.176-9.8047c-2.8359-2.1094-3.4258-6.1211-1.3164-8.9609 2.1133-2.8359 6.125-3.4258 8.9609-1.3125l29.445 21.906c1.625 1.207 2.582 3.1133 2.582 5.1367v0.17578c0 2.0234-0.95703 3.9297-2.582 5.1367l-29.445 21.906c-2.8359 2.1094-6.8477 1.5195-8.9609-1.3164-2.1094-2.8398-1.5195-6.8516 1.3164-8.9609zm-496.89-74.492c0 45.68-36.699 82.793-82.219 83.469-0.15625 0.007813-0.3125 0.011719-0.47656 0.011719h-144.95c-3.5391 0-6.4062-2.8672-6.4062-6.4023 0-3.5391 2.8672-6.4062 6.4062-6.4062h143.9c0.085937-0.003906 0.17578-0.003906 0.26562-0.003906 39.027 0 70.672-31.641 70.672-70.668 0-39.031-31.645-70.672-70.672-70.672-39.035 0-70.672 31.641-70.672 70.672 0 12.781 3.3906 25.051 9.7344 35.816 1.9258 3.2656 4.1094 6.3711 6.5312 9.2891 2.2617 2.7227 1.8867 6.7578-0.83594 9.0195-2.7227 2.2578-6.7578 1.8828-9.0195-0.83594-2.8594-3.4453-5.4375-7.1133-7.7109-10.973-7.4961-12.719-11.508-27.234-11.508-42.316 0-46.105 37.371-83.48 83.48-83.48 46.102 0 83.48 37.375 83.48 83.48zm-95.074 3.0039c1.668 1.668 4.3711 1.668 6.0391 0l26.387-26.387c3.2773-3.2773 8.5898-3.2773 11.863 0 3.2773 3.2734 3.2773 8.5859 0 11.859l-35.23 35.234c-3.3359 3.332-8.7422 3.332-12.078 0l-16.09-16.094c-3.2773-3.2734-3.2773-8.5859 0-11.859 3.2734-3.2773 8.5859-3.2773 11.859 0zm295.74 150.7c0 46.102-37.375 83.48-83.477 83.48-46.109 0-83.484-37.375-83.484-83.48 0-15.086 4.0117-29.598 11.508-42.32 2.2734-3.8555 4.8555-7.5234 7.7148-10.969 2.2578-2.7227 6.2969-3.0977 9.0195-0.83594 2.7188 2.2578 3.0938 6.2969 0.83594 9.0195-2.4219 2.9141-4.6094 6.0234-6.5352 9.2891-6.3398 10.766-9.7344 23.035-9.7344 35.816 0 39.031 31.641 70.672 70.676 70.672 39.027 0 70.668-31.645 70.668-70.672 0-39.027-31.641-70.668-70.668-70.668-0.089844 0-0.17969-0.003906-0.26953-0.007813h-114.02c-3.5352 0-6.4023-2.8672-6.4023-6.4023 0-3.5391 2.8672-6.4062 6.4023-6.4062h115.07c0.16016 0 0.32031 0.007812 0.47656 0.015624 45.52 0.67188 82.215 37.785 82.215 83.469zm-95.07 3.3672c1.6641 1.668 4.3672 1.668 6.0352 0l26.391-26.391c3.2734-3.2734 8.5859-3.2734 11.863 0 3.2734 3.2773 3.2734 8.5859 0 11.863l-35.234 35.23c-3.3359 3.3359-8.7422 3.3359-12.074 0l-16.094-16.09c-3.2734-3.2773-3.2734-8.5859 0-11.863 3.2773-3.2734 8.5859-3.2734 11.863 0zm300.01-157.07c0 45.68-36.699 82.793-82.219 83.469-0.15625 0.007813-0.3125 0.011719-0.47656 0.011719h-115.07c-3.5391 0-6.4062-2.8672-6.4062-6.4023 0-3.5391 2.8672-6.4062 6.4062-6.4062h114.02c0.085938-0.003906 0.17578-0.003906 0.26562-0.003906 39.027 0 70.672-31.641 70.672-70.668 0-39.031-31.645-70.672-70.672-70.672-39.035 0-70.672 31.641-70.672 70.672 0 12.781 3.3906 25.051 9.7344 35.816 1.9258 3.2656 4.1094 6.3711 6.5312 9.2891 2.2617 2.7227 1.8867 6.7578-0.83594 9.0195-2.7227 2.2578-6.7578 1.8828-9.0195-0.83594-2.8594-3.4453-5.4375-7.1133-7.7109-10.973-7.4961-12.719-11.508-27.234-11.508-42.316 0-46.105 37.371-83.48 83.48-83.48 46.102 0 83.48 37.375 83.48 83.48zm-95.074 3.0039c1.668 1.668 4.3711 1.668 6.0391 0l26.387-26.387c3.2773-3.2773 8.5898-3.2773 11.863 0 3.2773 3.2734 3.2773 8.5859 0 11.859l-35.23 35.234c-3.3359 3.332-8.7422 3.332-12.078 0l-16.09-16.094c-3.2773-3.2734-3.2773-8.5859 0-11.859 3.2734-3.2773 8.5859-3.2773 11.859 0z"/>
 </g>
</svg>
