<?xml version="1.0" encoding="UTF-8"?>
<svg width="1200pt" height="1200pt" version="1.1" viewBox="0 0 1200 1200" xmlns="http://www.w3.org/2000/svg">
 <path d="m1032 186h-864c-79.5 0.09375-143.9 64.5-144 144v540c0.09375 79.5 64.5 143.9 144 144h864c79.5-0.09375 143.9-64.5 144-144v-540c-0.09375-79.5-64.5-143.9-144-144zm-681.1 756 64.781-80.953c13.641-17.109 34.312-27.094 56.203-27.047h256.18c21.891-0.046875 42.609 9.8906 56.25 27.047l64.781 80.953zm-110.91-180v-360h720v360zm864 108c-0.046875 39.75-32.25 71.953-72 72h-90.703l-86.391-108h141.1c19.875 0 36-16.125 36-36v-432c0-19.875-16.125-36-36-36h-792c-19.875 0-36 16.125-36 36v432c0 19.875 16.125 36 36 36h141.1l-86.391 108h-90.703c-39.75-0.046875-71.953-32.25-72-72v-540c0.046875-39.75 32.25-71.953 72-72h864c39.75 0.046875 71.953 32.25 72 72zm-324-396h-360c-59.672 0-108 48.328-108 108s48.328 108 108 108h360c59.672 0 108-48.328 108-108s-48.328-108-108-108zm-360 144c-19.875 0-36-16.125-36-36s16.125-36 36-36 36 16.125 36 36-16.125 36-36 36zm258.19 0h-156.37c8.25-23.297 8.25-48.703 0-72h156.37c-8.25 23.297-8.25 48.703 0 72zm101.81 0c-19.875 0-36-16.125-36-36s16.125-36 36-36 36 16.125 36 36-16.125 36-36 36z"/>
</svg>
