<?xml version="1.0" encoding="UTF-8"?>
<svg width="1200pt" height="1200pt" version="1.1" viewBox="0 0 1200 1200" xmlns="http://www.w3.org/2000/svg">
 <path d="m280.66 60.035c0.21484 0.023438 0.43359 0.046875 0.64844 0.097656 1.7031 0.33594 3.2656 1.3789 4.2344 2.832 0.61328 0.91016 0.98438 1.9688 1.0938 3.0469 0.023438 0.21484 0.023438 0.43359 0.035157 0.66016v213.32c-0.011719 0.21484-0.011719 0.44531-0.035157 0.66016-0.25391 2.5938-2.1484 4.957-4.6914 5.7227-0.42188 0.13281-0.85156 0.21484-1.2852 0.25391-0.21484 0.023438-0.44531 0.023438-0.66016 0.035157h-213.32c-0.22656-0.011719-0.44531-0.011719-0.66016-0.035157-2.5938-0.25391-4.957-2.1484-5.7227-4.6914-0.13281-0.42188-0.21484-0.85156-0.25391-1.2852-0.023437-0.21484-0.023437-0.44531-0.035156-0.66016v-213.32c0.011719-0.22656 0.011719-0.44531 0.035156-0.66016 0.22656-2.375 1.8359-4.5703 4.0781-5.5078 0.60156-0.25391 1.2461-0.40625 1.8945-0.46875 0.21484-0.023437 0.43359-0.023437 0.66016-0.035156h213.32c0.21484 0.011719 0.44531 0.023438 0.66016 0.035156zm-207.32 13.297v200h200v-200z" fill-rule="evenodd"/>
 <path d="m707.32 60.035c0.21484 0.023438 0.43359 0.046875 0.64844 0.097656 2.3516 0.46875 4.3789 2.2812 5.0898 4.5977 0.12109 0.42188 0.20312 0.85156 0.25391 1.2852 0.023437 0.21484 0.023437 0.43359 0.023437 0.66016v213.32c0 0.21484 0 0.44531-0.023437 0.66016-0.19141 1.9453-1.2969 3.793-2.9297 4.8828-0.91016 0.61328-1.9688 0.98438-3.0586 1.0938-0.21484 0.023437-0.43359 0.023437-0.64844 0.035156h-213.34c-0.21484-0.011719-0.43359-0.011719-0.64844-0.035156-2.3867-0.22656-4.5859-1.8359-5.5078-4.0781-0.25391-0.60156-0.40625-1.2461-0.48047-1.8945-0.023438-0.21484-0.023438-0.44531-0.023438-0.66016v-213.32c0-0.22656 0-0.44531 0.023438-0.66016 0.26562-2.5938 2.1602-4.957 4.7031-5.7227 0.42188-0.13281 0.83984-0.21484 1.2852-0.25391 0.21484-0.023438 0.43359-0.023438 0.64844-0.035157h213.34c0.21484 0.011719 0.43359 0.023438 0.64844 0.035157zm-207.31 13.297v200h199.99v-200z" fill-rule="evenodd"/>
 <path d="m280.66 486.7c0.21484 0.035157 0.43359 0.058594 0.64844 0.097657 2.3398 0.46875 4.3672 2.2812 5.0742 4.6094 0.13281 0.42188 0.21484 0.83984 0.25391 1.2852 0.023438 0.21484 0.023438 0.43359 0.035157 0.64844v213.34c-0.011719 0.21484-0.011719 0.43359-0.035157 0.64844-0.16797 1.7383-1.0547 3.3945-2.3984 4.5-1.0195 0.83984-2.2812 1.3555-3.5742 1.4883-0.21484 0.023437-0.44531 0.023437-0.66016 0.023437h-213.32c-0.22656 0-0.44531 0-0.66016-0.023437-2.5938-0.26562-4.957-2.1602-5.7227-4.7031-0.13281-0.42188-0.21484-0.83984-0.25391-1.2852-0.023437-0.21484-0.023437-0.43359-0.035156-0.64844v-213.34c0.011719-0.21484 0.011719-0.43359 0.035156-0.64844 0.22656-2.3867 1.8359-4.5859 4.0781-5.5078 0.60156-0.25391 1.2461-0.40625 1.8945-0.48047 0.21484-0.023438 0.43359-0.023438 0.66016-0.023438h213.32c0.21484 0 0.44531 0.011719 0.66016 0.023438zm-207.32 13.309v199.99h200v-199.99z" fill-rule="evenodd"/>
 <path d="m707.32 486.7c0.21484 0.035157 0.43359 0.058594 0.64844 0.097657 2.3516 0.46875 4.3789 2.2812 5.0898 4.6094 0.12109 0.42188 0.20312 0.83984 0.25391 1.2852 0.023437 0.21484 0.023437 0.43359 0.023437 0.64844v213.34c0 0.21484 0 0.43359-0.023437 0.64844-0.26562 2.6055-2.1602 4.957-4.7031 5.7344-0.42188 0.12109-0.83984 0.20312-1.2852 0.25391-0.21484 0.023437-0.43359 0.023437-0.64844 0.023437h-213.34c-0.21484 0-0.43359 0-0.64844-0.023437-2.3867-0.23828-4.5859-1.8477-5.5078-4.0938-0.25391-0.60156-0.40625-1.2344-0.48047-1.8945-0.023438-0.21484-0.023438-0.43359-0.023438-0.64844v-213.34c0-0.21484 0-0.43359 0.023438-0.64844 0.26562-2.6055 2.1602-4.957 4.7031-5.7344 0.42188-0.12109 0.83984-0.20312 1.2852-0.25391 0.21484-0.023438 0.43359-0.023438 0.64844-0.023438h213.34c0.21484 0 0.43359 0.011719 0.64844 0.023438zm-207.31 13.309v199.99h199.99v-199.99z" fill-rule="evenodd"/>
 <path d="m280.66 273.36c0.21484 0.035156 0.43359 0.058594 0.64844 0.097656 1.7031 0.34766 3.2656 1.3906 4.2344 2.8438 0.61328 0.89844 0.98438 1.957 1.0938 3.0469 0.023438 0.21484 0.023438 0.43359 0.035157 0.64844v213.34c-0.011719 0.21484-0.011719 0.43359-0.035157 0.66016-0.16797 1.7266-1.0547 3.3828-2.3984 4.5-1.0195 0.82812-2.2812 1.3438-3.5742 1.4766-0.21484 0.023438-0.44531 0.023438-0.66016 0.035156h-213.32c-0.22656-0.011718-0.44531-0.011718-0.66016-0.035156-1.9453-0.19141-3.793-1.2852-4.8828-2.9297-0.61328-0.91016-0.98437-1.9688-1.0938-3.0469-0.023437-0.22656-0.023437-0.44531-0.035156-0.66016v-213.34c0.011719-0.21484 0.011719-0.43359 0.035156-0.64844 0.22656-2.3867 1.8359-4.5859 4.0781-5.5078 0.60156-0.25391 1.2461-0.40625 1.8945-0.48047 0.21484-0.011719 0.43359-0.011719 0.66016-0.023437h213.32c0.21484 0.011718 0.44531 0.023437 0.66016 0.023437zm-207.32 13.309v200h200v-200z" fill-rule="evenodd"/>
 <path d="m707.32 273.36c0.21484 0.035156 0.43359 0.058594 0.64844 0.097656 2.3516 0.46875 4.3789 2.293 5.0898 4.6094 0.12109 0.42188 0.20312 0.85156 0.25391 1.2852 0.023437 0.21484 0.023437 0.43359 0.023437 0.64844v213.34c0 0.21484 0 0.43359-0.023437 0.66016-0.26562 2.5938-2.1602 4.9453-4.7031 5.7227-0.42188 0.12109-0.83984 0.20312-1.2852 0.25391-0.21484 0.023438-0.43359 0.023438-0.64844 0.035156h-213.34c-0.21484-0.011718-0.43359-0.011718-0.64844-0.035156-2.3867-0.23828-4.5859-1.8477-5.5078-4.0781-0.25391-0.61328-0.40625-1.2461-0.48047-1.8945-0.023438-0.22656-0.023438-0.44531-0.023438-0.66016v-213.34c0-0.21484 0-0.43359 0.023438-0.64844 0.26562-2.5938 2.1602-4.957 4.7031-5.7227 0.42188-0.13281 0.83984-0.21484 1.2852-0.26562 0.21484-0.011719 0.43359-0.011719 0.64844-0.023438h213.34c0.21484 0.011719 0.43359 0.023438 0.64844 0.023438zm-207.31 13.309v200h199.99v-200z" fill-rule="evenodd"/>
 <path d="m280.66 700.03c0.21484 0.035156 0.43359 0.046875 0.64844 0.097656 2.3398 0.46875 4.3672 2.2812 5.0742 4.6094 0.13281 0.40625 0.21484 0.83984 0.25391 1.2734 0.023438 0.22656 0.023438 0.44531 0.035157 0.66016v213.34c-0.011719 0.21484-0.011719 0.43359-0.035157 0.64844-0.16797 1.7383-1.0547 3.3945-2.3984 4.5-1.0195 0.82812-2.2812 1.3555-3.5742 1.4883-0.21484 0.011719-0.44531 0.011719-0.66016 0.023438h-213.32c-0.22656-0.011719-0.44531-0.011719-0.66016-0.023438-2.5938-0.26562-4.957-2.1602-5.7227-4.7031-0.13281-0.42188-0.21484-0.85156-0.25391-1.2852-0.023437-0.21484-0.023437-0.43359-0.035156-0.64844v-213.34c0.011719-0.21484 0.011719-0.43359 0.035156-0.66016 0.22656-2.375 1.8359-4.5703 4.0781-5.4961 0.60156-0.25391 1.2461-0.42188 1.8945-0.48047 0.21484-0.023437 0.43359-0.023437 0.66016-0.035156h213.32c0.21484 0.011719 0.44531 0.023438 0.66016 0.035156zm-207.32 13.297v200h200v-200z" fill-rule="evenodd"/>
 <path d="m707.32 700.03c0.21484 0.035156 0.43359 0.046875 0.64844 0.097656 2.3516 0.46875 4.3789 2.2812 5.0898 4.6094 0.12109 0.40625 0.20312 0.83984 0.25391 1.2734 0.023437 0.22656 0.023437 0.44531 0.023437 0.66016v213.34c0 0.21484 0 0.43359-0.023437 0.64844-0.26562 2.5938-2.1602 4.957-4.7031 5.7227-0.42188 0.13281-0.83984 0.21484-1.2852 0.26562-0.21484 0.011719-0.43359 0.011719-0.64844 0.023438h-213.34c-0.21484-0.011719-0.43359-0.011719-0.64844-0.023438-2.3867-0.23828-4.5859-1.8477-5.5078-4.0938-0.25391-0.60156-0.40625-1.2461-0.48047-1.8945-0.023438-0.21484-0.023438-0.43359-0.023438-0.64844v-213.34c0-0.21484 0-0.43359 0.023438-0.66016 0.26562-2.5938 2.1602-4.9453 4.7031-5.7227 0.42188-0.12109 0.83984-0.20312 1.2852-0.25391 0.21484-0.023437 0.43359-0.023437 0.64844-0.035156h213.34c0.21484 0.011719 0.43359 0.023438 0.64844 0.035156zm-207.31 13.297v200h199.99v-200z" fill-rule="evenodd"/>
 <path d="m280.66 913.37c0.21484 0.023437 0.43359 0.046874 0.64844 0.097656 2.3398 0.46875 4.3672 2.2812 5.0742 4.5977 0.13281 0.42188 0.21484 0.85156 0.25391 1.2852 0.023438 0.21484 0.023438 0.44531 0.035157 0.66016v213.32c-0.011719 0.22656-0.011719 0.44531-0.035157 0.66016-0.25391 2.5938-2.1484 4.957-4.6914 5.7227-0.42188 0.13281-0.85156 0.21484-1.2852 0.25391-0.21484 0.023438-0.44531 0.023438-0.66016 0.035156h-213.32c-0.22656-0.011718-0.44531-0.011718-0.66016-0.035156-2.5938-0.25391-4.957-2.1484-5.7227-4.6914-0.13281-0.42188-0.21484-0.85156-0.25391-1.2852-0.023437-0.21484-0.023437-0.43359-0.035156-0.66016v-213.32c0.011719-0.21484 0.011719-0.44531 0.035156-0.66016 0.22656-2.375 1.8359-4.5703 4.0781-5.5078 0.60156-0.23828 1.2461-0.40625 1.8945-0.46875 0.21484-0.023438 0.43359-0.023438 0.66016-0.035156h213.32c0.21484 0.011718 0.44531 0.023437 0.66016 0.035156zm-207.32 13.297v200h200v-200z" fill-rule="evenodd"/>
 <path d="m707.32 913.37c0.21484 0.023437 0.43359 0.046874 0.64844 0.097656 2.3516 0.46875 4.3789 2.2812 5.0898 4.5977 0.12109 0.42188 0.20312 0.85156 0.25391 1.2852 0.023437 0.21484 0.023437 0.44531 0.023437 0.66016v213.32c0 0.22656 0 0.44531-0.023437 0.66016-0.26562 2.5938-2.1602 4.957-4.7031 5.7227-0.42188 0.13281-0.83984 0.21484-1.2852 0.25391-0.21484 0.023438-0.43359 0.023438-0.64844 0.035156h-213.34c-0.21484-0.011718-0.43359-0.011718-0.64844-0.035156-2.3867-0.22656-4.5859-1.8359-5.5078-4.0781-0.25391-0.60156-0.40625-1.2461-0.48047-1.8945-0.023438-0.21484-0.023438-0.43359-0.023438-0.66016v-213.32c0-0.21484 0-0.44531 0.023438-0.66016 0.26562-2.5938 2.1602-4.957 4.7031-5.7227 0.42188-0.13281 0.83984-0.21484 1.2852-0.25391 0.21484-0.023438 0.43359-0.023438 0.64844-0.035156h213.34c0.21484 0.011718 0.43359 0.023437 0.64844 0.035156zm-207.31 13.297v200h199.99v-200z" fill-rule="evenodd"/>
 <path d="m493.99 60.035c0.21484 0.023438 0.43359 0.046875 0.63672 0.097656 2.3516 0.46875 4.3789 2.2812 5.0898 4.5977 0.12109 0.42188 0.20312 0.85156 0.25391 1.2852 0.023438 0.21484 0.023438 0.43359 0.035156 0.66016v213.32c-0.011718 0.21484-0.011718 0.44531-0.035156 0.66016-0.25391 2.5938-2.1484 4.957-4.7031 5.7227-0.40625 0.13281-0.83984 0.21484-1.2734 0.25391-0.22656 0.023437-0.44531 0.023437-0.66016 0.035156h-213.34c-0.21484-0.011719-0.43359-0.011719-0.64844-0.035156-2.5938-0.25391-4.957-2.1484-5.7227-4.6914-0.13281-0.42187-0.21484-0.85156-0.26562-1.2852-0.011719-0.21484-0.011719-0.44531-0.023437-0.66016v-213.32c0.011718-0.22656 0.011718-0.44531 0.023437-0.66016 0.23828-2.375 1.8477-4.5703 4.0938-5.5078 0.60156-0.25391 1.2461-0.40625 1.8945-0.46875 0.21484-0.023437 0.43359-0.023437 0.64844-0.035156h213.34c0.21484 0.011719 0.43359 0.023438 0.66016 0.035156zm-207.32 13.297v200h200v-200z" fill-rule="evenodd"/>
 <path d="m920.65 60.035c0.21484 0.023438 0.43359 0.046875 0.64844 0.097656 2.3516 0.46875 4.3789 2.2812 5.0742 4.5977 0.13281 0.42188 0.21484 0.85156 0.26562 1.2852 0.011719 0.21484 0.011719 0.43359 0.023437 0.66016v213.32c-0.011718 0.21484-0.011718 0.44531-0.023437 0.66016-0.26562 2.5938-2.1602 4.957-4.7031 5.7227-0.42188 0.13281-0.85156 0.21484-1.2852 0.25391-0.21484 0.023437-0.43359 0.023437-0.64844 0.035156h-213.34c-0.21484-0.011719-0.43359-0.011719-0.66016-0.035156-2.375-0.22656-4.5703-1.8359-5.4961-4.0781-0.25391-0.60156-0.42188-1.2461-0.48047-1.8945-0.023438-0.21484-0.023438-0.44531-0.035156-0.66016v-213.32c0.011718-0.22656 0.011718-0.44531 0.035156-0.66016 0.23828-2.375 1.8477-4.5703 4.0781-5.5078 0.61328-0.25391 1.2461-0.40625 1.8945-0.46875 0.22656-0.023438 0.44531-0.023438 0.66016-0.035157h213.34c0.21484 0.011719 0.43359 0.023438 0.64844 0.035157zm-207.32 13.297v200h200v-200z" fill-rule="evenodd"/>
 <path d="m1134 60.035c0.21484 0.023438 0.43359 0.046875 0.64844 0.097656 2.3398 0.46875 4.3672 2.2812 5.0742 4.5977 0.13281 0.42188 0.21484 0.85156 0.25391 1.2852 0.023437 0.21484 0.023437 0.43359 0.035156 0.66016v213.32c-0.011719 0.21484-0.011719 0.44531-0.035156 0.66016-0.25391 2.5938-2.1484 4.957-4.6914 5.7227-0.42188 0.13281-0.85156 0.21484-1.2852 0.25391-0.21484 0.023437-0.43359 0.023437-0.66016 0.035156h-213.32c-0.21484-0.011719-0.44531-0.011719-0.66016-0.035156-2.3867-0.22656-4.5703-1.8359-5.5078-4.0781-0.23828-0.60156-0.40625-1.2461-0.46875-1.8945-0.023438-0.21484-0.023438-0.44531-0.035157-0.66016v-213.32c0.011719-0.22656 0.011719-0.44531 0.035157-0.66016 0.25391-2.5938 2.1484-4.957 4.6914-5.7227 0.42188-0.13281 0.85156-0.21484 1.2852-0.25391 0.21484-0.023438 0.44531-0.023438 0.66016-0.035157h213.32c0.22656 0.011719 0.44531 0.023438 0.66016 0.035157zm-207.32 13.297v200h200v-200z" fill-rule="evenodd"/>
 <path d="m493.99 486.7c0.21484 0.035157 0.43359 0.058594 0.63672 0.097657 2.3516 0.46875 4.3789 2.2812 5.0898 4.6094 0.12109 0.42188 0.20312 0.83984 0.25391 1.2852 0.023438 0.21484 0.023438 0.43359 0.035156 0.64844v213.34c-0.011718 0.21484-0.011718 0.43359-0.035156 0.64844-0.25391 2.6055-2.1484 4.957-4.7031 5.7344-0.40625 0.12109-0.83984 0.20312-1.2734 0.25391-0.22656 0.023437-0.44531 0.023437-0.66016 0.023437h-213.34c-0.21484 0-0.43359 0-0.64844-0.023437-2.5938-0.26562-4.957-2.1602-5.7227-4.7031-0.13281-0.42188-0.21484-0.83984-0.26562-1.2852-0.011719-0.21484-0.011719-0.43359-0.023437-0.64844v-213.34c0.011718-0.21484 0.011718-0.43359 0.023437-0.64844 0.23828-2.3867 1.8477-4.5859 4.0938-5.5078 0.60156-0.25391 1.2461-0.40625 1.8945-0.48047 0.21484-0.023438 0.43359-0.023438 0.64844-0.023438h213.34c0.21484 0 0.43359 0.011719 0.66016 0.023438zm-207.32 13.309v199.99h200v-199.99z" fill-rule="evenodd"/>
 <path d="m920.65 486.7c0.21484 0.035157 0.43359 0.058594 0.64844 0.097657 2.3516 0.46875 4.3789 2.2812 5.0742 4.6094 0.13281 0.42188 0.21484 0.83984 0.26562 1.2852 0.011719 0.21484 0.011719 0.43359 0.023437 0.64844v213.34c-0.011718 0.21484-0.011718 0.43359-0.023437 0.64844-0.26562 2.6055-2.1602 4.957-4.7031 5.7344-0.42188 0.12109-0.85156 0.20312-1.2852 0.25391-0.21484 0.023437-0.43359 0.023437-0.64844 0.023437h-213.34c-0.21484 0-0.43359 0-0.66016-0.023437-2.5938-0.26562-4.9453-2.1602-5.7227-4.7031-0.12109-0.42188-0.20312-0.83984-0.25391-1.2852-0.023438-0.21484-0.023438-0.43359-0.035156-0.64844v-213.34c0.011718-0.21484 0.011718-0.43359 0.035156-0.64844 0.25391-2.6055 2.1484-4.957 4.7031-5.7344 0.40625-0.12109 0.83984-0.20312 1.2734-0.25391 0.22656-0.023438 0.44531-0.023438 0.66016-0.023438h213.34c0.21484 0 0.43359 0.011719 0.64844 0.023438zm-207.32 13.309v199.99h200v-199.99z" fill-rule="evenodd"/>
 <path d="m1134 486.7c0.21484 0.035157 0.43359 0.058594 0.64844 0.097657 2.3398 0.46875 4.3672 2.2812 5.0742 4.6094 0.13281 0.42188 0.21484 0.83984 0.25391 1.2852 0.023437 0.21484 0.023437 0.43359 0.035156 0.64844v213.34c-0.011719 0.21484-0.011719 0.43359-0.035156 0.64844-0.25391 2.6055-2.1484 4.957-4.6914 5.7344-0.42188 0.12109-0.85156 0.20312-1.2852 0.25391-0.21484 0.023437-0.43359 0.023437-0.66016 0.023437h-213.32c-0.21484 0-0.44531 0-0.66016-0.023437-1.9453-0.19141-3.793-1.2969-4.8828-2.9297-0.61328-0.91016-0.98438-1.9688-1.0938-3.0586-0.023438-0.21484-0.023438-0.43359-0.035157-0.64844v-213.34c0.011719-0.21484 0.011719-0.43359 0.035157-0.64844 0.19141-1.957 1.2852-3.793 2.9297-4.8945 0.91016-0.60156 1.9688-0.98438 3.0469-1.0938 0.21484-0.023438 0.44531-0.023438 0.66016-0.023438h213.32c0.22656 0 0.44531 0.011719 0.66016 0.023438zm-207.32 13.309v199.99h200v-199.99z" fill-rule="evenodd"/>
 <path d="m493.99 273.36c0.21484 0.035156 0.43359 0.058594 0.63672 0.097656 2.3516 0.46875 4.3789 2.293 5.0898 4.6094 0.12109 0.42188 0.20312 0.85156 0.25391 1.2852 0.023438 0.21484 0.023438 0.43359 0.035156 0.64844v213.34c-0.011718 0.21484-0.011718 0.43359-0.035156 0.66016-0.25391 2.5938-2.1484 4.9453-4.7031 5.7227-0.40625 0.12109-0.83984 0.20312-1.2734 0.25391-0.22656 0.023438-0.44531 0.023438-0.66016 0.035156h-213.34c-0.21484-0.011718-0.43359-0.011718-0.64844-0.035156-1.957-0.19141-3.793-1.2852-4.8945-2.9297-0.60156-0.91016-0.98438-1.9688-1.0938-3.0469-0.011719-0.22656-0.011719-0.44531-0.023437-0.66016v-213.34c0.011718-0.21484 0.011718-0.43359 0.023437-0.64844 0.23828-2.3867 1.8477-4.5859 4.0938-5.5078 0.60156-0.25391 1.2461-0.40625 1.8945-0.48047 0.21484-0.011719 0.43359-0.011719 0.64844-0.023437h213.34c0.21484 0.011718 0.43359 0.023437 0.66016 0.023437zm-207.32 13.309v200h200v-200z" fill-rule="evenodd"/>
 <path d="m920.65 273.36c0.21484 0.035156 0.43359 0.058594 0.64844 0.097656 2.3516 0.46875 4.3789 2.293 5.0742 4.6094 0.13281 0.42188 0.21484 0.85156 0.26562 1.2852 0.011719 0.21484 0.011719 0.43359 0.023437 0.64844v213.34c-0.011718 0.21484-0.011718 0.43359-0.023437 0.66016-0.26562 2.5938-2.1602 4.9453-4.7031 5.7227-0.42188 0.12109-0.85156 0.20312-1.2852 0.25391-0.21484 0.023438-0.43359 0.023438-0.64844 0.035156h-213.34c-0.21484-0.011718-0.43359-0.011718-0.66016-0.035156-2.5938-0.25391-4.9453-2.1484-5.7227-4.7031-0.12109-0.40625-0.20312-0.83984-0.25391-1.2734-0.023438-0.22656-0.023438-0.44531-0.035156-0.66016v-213.34c0.011718-0.21484 0.011718-0.43359 0.035156-0.64844 0.16797-1.7383 1.0547-3.3945 2.3984-4.5 1.0195-0.82812 2.2812-1.3555 3.5742-1.4883 0.22656-0.011719 0.44531-0.011719 0.66016-0.023437h213.34c0.21484 0.011718 0.43359 0.023437 0.64844 0.023437zm-207.32 13.309v200h200v-200z" fill-rule="evenodd"/>
 <path d="m1134 273.36c0.21484 0.035156 0.43359 0.058594 0.64844 0.097656 2.3398 0.46875 4.3672 2.293 5.0742 4.6094 0.13281 0.42188 0.21484 0.85156 0.25391 1.2852 0.023437 0.21484 0.023437 0.43359 0.035156 0.64844v213.34c-0.011719 0.21484-0.011719 0.43359-0.035156 0.66016-0.25391 2.5938-2.1484 4.9453-4.6914 5.7227-0.42188 0.12109-0.85156 0.20312-1.2852 0.25391-0.21484 0.023438-0.43359 0.023438-0.66016 0.035156h-213.32c-0.21484-0.011718-0.44531-0.011718-0.66016-0.035156-1.9453-0.19141-3.793-1.2852-4.8828-2.9297-0.61328-0.91016-0.98438-1.9688-1.0938-3.0469-0.023438-0.22656-0.023438-0.44531-0.035157-0.66016v-213.34c0.011719-0.21484 0.011719-0.43359 0.035157-0.64844 0.25391-2.5938 2.1484-4.957 4.6914-5.7227 0.42188-0.13281 0.85156-0.21484 1.2852-0.26562 0.21484-0.011719 0.44531-0.011719 0.66016-0.023437h213.32c0.22656 0.011718 0.44531 0.023437 0.66016 0.023437zm-207.32 13.309v200h200v-200z" fill-rule="evenodd"/>
 <path d="m493.99 700.03c0.21484 0.035156 0.43359 0.046875 0.63672 0.097656 2.3516 0.46875 4.3789 2.2812 5.0898 4.6094 0.12109 0.40625 0.20312 0.83984 0.25391 1.2734 0.023438 0.22656 0.023438 0.44531 0.035156 0.66016v213.34c-0.011718 0.21484-0.011718 0.43359-0.035156 0.64844-0.25391 2.5938-2.1484 4.957-4.7031 5.7227-0.40625 0.13281-0.83984 0.21484-1.2734 0.26562-0.22656 0.011719-0.44531 0.011719-0.66016 0.023438h-213.34c-0.21484-0.011719-0.43359-0.011719-0.64844-0.023438-2.5938-0.26562-4.957-2.1602-5.7227-4.7031-0.13281-0.42188-0.21484-0.85156-0.26562-1.2852-0.011719-0.21484-0.011719-0.43359-0.023437-0.64844v-213.34c0.011718-0.21484 0.011718-0.43359 0.023437-0.66016 0.23828-2.375 1.8477-4.5703 4.0938-5.4961 0.60156-0.25391 1.2461-0.42188 1.8945-0.48047 0.21484-0.023437 0.43359-0.023437 0.64844-0.035156h213.34c0.21484 0.011719 0.43359 0.023438 0.66016 0.035156zm-207.32 13.297v200h200v-200z" fill-rule="evenodd"/>
 <path d="m920.65 700.03c0.21484 0.035156 0.43359 0.046875 0.64844 0.097656 2.3516 0.46875 4.3789 2.2812 5.0742 4.6094 0.13281 0.40625 0.21484 0.83984 0.26562 1.2734 0.011719 0.22656 0.011719 0.44531 0.023437 0.66016v213.34c-0.011718 0.21484-0.011718 0.43359-0.023437 0.64844-0.26562 2.5938-2.1602 4.957-4.7031 5.7227-0.42188 0.13281-0.85156 0.21484-1.2852 0.26562-0.21484 0.011719-0.43359 0.011719-0.64844 0.023438h-213.34c-0.21484-0.011719-0.43359-0.011719-0.66016-0.023438-2.5938-0.26562-4.9453-2.1602-5.7227-4.7031-0.12109-0.42188-0.20312-0.85156-0.25391-1.2852-0.023438-0.21484-0.023438-0.43359-0.035156-0.64844v-213.34c0.011718-0.21484 0.011718-0.43359 0.035156-0.66016 0.25391-2.5938 2.1484-4.9453 4.7031-5.7227 0.40625-0.12109 0.83984-0.20312 1.2734-0.25391 0.22656-0.023437 0.44531-0.023437 0.66016-0.035156h213.34c0.21484 0.011719 0.43359 0.023438 0.64844 0.035156zm-207.32 13.297v200h200v-200z" fill-rule="evenodd"/>
 <path d="m1134 700.03c0.21484 0.035156 0.43359 0.046875 0.64844 0.097656 2.3398 0.46875 4.3672 2.2812 5.0742 4.6094 0.13281 0.40625 0.21484 0.83984 0.25391 1.2734 0.023437 0.22656 0.023437 0.44531 0.035156 0.66016v213.34c-0.011719 0.21484-0.011719 0.43359-0.035156 0.64844-0.25391 2.5938-2.1484 4.957-4.6914 5.7227-0.42188 0.13281-0.85156 0.21484-1.2852 0.26562-0.21484 0.011719-0.43359 0.011719-0.66016 0.023438h-213.32c-0.21484-0.011719-0.44531-0.011719-0.66016-0.023438-1.7383-0.17969-3.3828-1.0547-4.5-2.4102-0.82812-1.0078-1.3555-2.2695-1.4766-3.5742-0.023438-0.21484-0.023438-0.43359-0.035157-0.64844v-213.34c0.011719-0.21484 0.011719-0.43359 0.035157-0.66016 0.19141-1.9453 1.2852-3.793 2.9297-4.8828 0.91016-0.61328 1.9688-0.98437 3.0469-1.0938 0.21484-0.023437 0.44531-0.023437 0.66016-0.035156h213.32c0.22656 0.011719 0.44531 0.023438 0.66016 0.035156zm-207.32 13.297v200h200v-200z" fill-rule="evenodd"/>
 <path d="m493.99 913.37c0.21484 0.023437 0.43359 0.046874 0.63672 0.097656 2.3516 0.46875 4.3789 2.2812 5.0898 4.5977 0.12109 0.42188 0.20312 0.85156 0.25391 1.2852 0.023438 0.21484 0.023438 0.44531 0.035156 0.66016v213.32c-0.011718 0.22656-0.011718 0.44531-0.035156 0.66016-0.25391 2.5938-2.1484 4.957-4.7031 5.7227-0.40625 0.13281-0.83984 0.21484-1.2734 0.25391-0.22656 0.023438-0.44531 0.023438-0.66016 0.035156h-213.34c-0.21484-0.011718-0.43359-0.011718-0.64844-0.035156-2.5938-0.25391-4.957-2.1484-5.7227-4.6914-0.13281-0.42188-0.21484-0.85156-0.26562-1.2852-0.011719-0.21484-0.011719-0.43359-0.023437-0.66016v-213.32c0.011718-0.21484 0.011718-0.44531 0.023437-0.66016 0.23828-2.375 1.8477-4.5703 4.0938-5.5078 0.60156-0.23828 1.2461-0.40625 1.8945-0.46875 0.21484-0.023438 0.43359-0.023438 0.64844-0.035156h213.34c0.21484 0.011718 0.43359 0.023437 0.66016 0.035156zm-207.32 13.297v200h200v-200z" fill-rule="evenodd"/>
 <path d="m920.65 913.37c0.21484 0.023437 0.43359 0.046874 0.64844 0.097656 2.3516 0.46875 4.3789 2.2812 5.0742 4.5977 0.13281 0.42188 0.21484 0.85156 0.26562 1.2852 0.011719 0.21484 0.011719 0.44531 0.023437 0.66016v213.32c-0.011718 0.22656-0.011718 0.44531-0.023437 0.66016-0.26562 2.5938-2.1602 4.957-4.7031 5.7227-0.42188 0.13281-0.85156 0.21484-1.2852 0.25391-0.21484 0.023438-0.43359 0.023438-0.64844 0.035156h-213.34c-0.21484-0.011718-0.43359-0.011718-0.66016-0.035156-2.5938-0.25391-4.9453-2.1484-5.7227-4.6914-0.12109-0.42188-0.20312-0.85156-0.25391-1.2852-0.023438-0.21484-0.023438-0.43359-0.035156-0.66016v-213.32c0.011718-0.21484 0.011718-0.44531 0.035156-0.66016 0.25391-2.5938 2.1484-4.957 4.7031-5.7227 0.40625-0.13281 0.83984-0.21484 1.2734-0.25391 0.22656-0.023438 0.44531-0.023438 0.66016-0.035156h213.34c0.21484 0.011718 0.43359 0.023437 0.64844 0.035156zm-207.32 13.297v200h200v-200z" fill-rule="evenodd"/>
 <path d="m1134 913.37c0.21484 0.023437 0.43359 0.046874 0.64844 0.097656 2.3398 0.46875 4.3672 2.2812 5.0742 4.5977 0.13281 0.42188 0.21484 0.85156 0.25391 1.2852 0.023437 0.21484 0.023437 0.44531 0.035156 0.66016v213.32c-0.011719 0.22656-0.011719 0.44531-0.035156 0.66016-0.25391 2.5938-2.1484 4.957-4.6914 5.7227-0.42188 0.13281-0.85156 0.21484-1.2852 0.25391-0.21484 0.023438-0.43359 0.023438-0.66016 0.035156h-213.32c-0.21484-0.011718-0.44531-0.011718-0.66016-0.035156-2.5938-0.25391-4.957-2.1484-5.7227-4.6914-0.13281-0.42188-0.21484-0.85156-0.25391-1.2852-0.023438-0.21484-0.023438-0.43359-0.035157-0.66016v-213.32c0.011719-0.21484 0.011719-0.44531 0.035157-0.66016 0.19141-1.9453 1.2852-3.793 2.9297-4.8828 0.91016-0.61328 1.9688-0.98438 3.0469-1.0938 0.21484-0.023438 0.44531-0.023438 0.66016-0.035156h213.32c0.22656 0.011718 0.44531 0.023437 0.66016 0.035156zm-207.32 13.297v200h200v-200z" fill-rule="evenodd"/>
</svg>
