<?xml version="1.0" encoding="UTF-8"?>
<svg width="1200pt" height="1200pt" version="1.1" viewBox="0 0 1200 1200" xmlns="http://www.w3.org/2000/svg">
 <path d="m626.58 912.1 407.16-407.16c10.547-10.547 16.406-24.609 16.406-39.562s-5.8125-28.969-16.406-39.516l-244.97-244.97c-21.141-21.141-57.984-21.141-79.078 0l-543.42 543.42c-21.797 21.797-21.797 57.281 0 79.078l226.55 226.55c1.7344 1.7344 3.7969 3.0938 6.0938 4.0312s4.7344 1.4531 7.1719 1.4531h540.89c10.359 0 18.75-8.3906 18.75-18.75s-8.3906-18.75-18.75-18.75l-406.31 0.09375zm386.06-446.72c0 4.9219-1.9219 9.5625-5.3906 13.031l-393.94 393.94-122.26-122.26 406.97-406.97 109.22 109.22c3.4688 3.4688 5.3906 8.1094 5.3906 13.031zm-276.37-258c6.9375-6.9375 19.078-6.9375 26.062 0l109.22 109.22-406.97 406.97-122.26-122.26zm-322.45 790.64-221.06-221.06c-7.1719-7.1719-7.1719-18.844 0-26.062l123.1-123.1 271.03 271.03-99.188 99.188z"/>
</svg>
