<?xml version="1.0" encoding="UTF-8"?>
<svg width="1200pt" height="1200pt" version="1.1" viewBox="0 0 1200 1200" xmlns="http://www.w3.org/2000/svg">
 <path d="m600 575c-49.727 0-97.418-19.754-132.58-54.918-35.164-35.164-54.918-82.855-54.918-132.58s19.754-97.418 54.918-132.58c35.164-35.164 82.855-54.918 132.58-54.918s97.418 19.754 132.58 54.918c35.164 35.164 54.918 82.855 54.918 132.58 0 32.914-8.6641 65.246-25.121 93.75-16.457 28.504-40.125 52.172-68.629 68.629-28.504 16.457-60.836 25.121-93.75 25.121zm0-325c-36.469 0-71.441 14.488-97.227 40.273-25.785 25.785-40.273 60.758-40.273 97.227s14.488 71.441 40.273 97.227c25.785 25.785 60.758 40.273 97.227 40.273s71.441-14.488 97.227-40.273c25.785-25.785 40.273-60.758 40.273-97.227-0.066406-36.445-14.574-71.383-40.348-97.152-25.77-25.773-60.707-40.281-97.152-40.348zm-237.5 750c-49.727 0-97.418-19.754-132.58-54.918-35.164-35.164-54.918-82.855-54.918-132.58s19.754-97.418 54.918-132.58c35.164-35.164 82.855-54.918 132.58-54.918s97.418 19.754 132.58 54.918c35.164 35.164 54.918 82.855 54.918 132.58 0 32.914-8.6641 65.246-25.121 93.75-16.457 28.504-40.125 52.172-68.629 68.629-28.504 16.457-60.836 25.121-93.75 25.121zm0-325c-36.469 0-71.441 14.488-97.227 40.273-25.785 25.785-40.273 60.758-40.273 97.227s14.488 71.441 40.273 97.227c25.785 25.785 60.758 40.273 97.227 40.273s71.441-14.488 97.227-40.273c25.785-25.785 40.273-60.758 40.273-97.227-0.066406-36.445-14.574-71.383-40.348-97.152-25.77-25.773-60.707-40.281-97.152-40.348zm475 325c-49.727 0-97.418-19.754-132.58-54.918-35.164-35.164-54.918-82.855-54.918-132.58s19.754-97.418 54.918-132.58c35.164-35.164 82.855-54.918 132.58-54.918s97.418 19.754 132.58 54.918c35.164 35.164 54.918 82.855 54.918 132.58 0 32.914-8.6641 65.246-25.121 93.75-16.457 28.504-40.125 52.172-68.629 68.629-28.504 16.457-60.836 25.121-93.75 25.121zm0-325c-36.469 0-71.441 14.488-97.227 40.273-25.785 25.785-40.273 60.758-40.273 97.227s14.488 71.441 40.273 97.227c25.785 25.785 60.758 40.273 97.227 40.273s71.441-14.488 97.227-40.273c25.785-25.785 40.273-60.758 40.273-97.227-0.066406-36.445-14.574-71.383-40.348-97.152-25.77-25.773-60.707-40.281-97.152-40.348z"/>
</svg>
