<?xml version="1.0" encoding="UTF-8"?>
<svg width="1200pt" height="1200pt" version="1.1" viewBox="0 0 1200 1200" xmlns="http://www.w3.org/2000/svg">
 <path d="m501.6 1164c-33.602-6-56.398-38.398-50.398-72s38.398-56.398 72-50.398 56.398 38.398 50.398 72c-4.8008 30-31.199 51.602-61.199 51.602-3.6016-0.003906-7.2031-0.003906-10.801-1.2031zm126-50.398c-6-33.602 16.801-66 50.398-72 33.602-6 66 16.801 72 50.398 6 33.602-16.801 66-50.398 72-3.6016 1.1992-7.1992 1.1992-10.801 1.1992-28.801 0-55.199-21.598-61.199-51.598zm-313.2-16.801c-30-16.801-39.602-55.199-22.801-84 16.801-30 55.199-39.602 84-22.801 30 16.801 39.602 55.199 22.801 84-10.801 19.199-32.398 31.199-54 31.199-9.5977 0-20.398-3.5977-30-8.3984zm487.2-22.801c-16.801-30-7.1992-67.199 22.801-84s67.199-7.1992 84 22.801c16.801 30 7.1992 67.199-22.801 84-9.6016 6-20.398 8.3984-31.199 8.3984-20.402-1.1992-40.801-12-52.801-31.199zm-639.6-105.6c-21.602-26.398-19.199-64.801 7.1992-87.602 26.398-21.602 64.801-19.199 87.602 7.1992 21.602 26.398 19.199 64.801-7.1992 87.602-12 9.6016-26.398 14.398-39.602 14.398-18 1.2031-36-7.1953-48-21.598zm789.6 7.2031c-26.398-21.602-30-61.199-7.1992-87.602 21.602-26.398 61.199-30 87.602-7.1992 26.398 21.602 30 61.199 7.1992 87.602-12 14.398-30 21.602-48 21.602-14.402-0.003906-27.602-4.8047-39.602-14.402zm-889.2-178.8c-12-32.398 4.8008-67.199 37.199-79.199 32.398-12 67.199 4.8008 79.199 37.199 12 32.398-4.8008 67.199-37.199 79.199-7.1992 2.3984-14.398 3.6016-21.602 3.6016-25.195 0-49.195-15.602-57.598-40.801zm996 36c-32.398-12-49.199-46.801-37.199-79.199 12-32.398 46.801-49.199 79.199-37.199 32.398 12 49.199 46.801 37.199 79.199-9.6016 25.199-32.398 40.801-57.602 40.801-7.1953-0.003906-14.395-1.2031-21.598-3.6016zm-1030.8-231.6c0-33.602 27.602-62.398 61.199-62.398 33.602 0 62.398 27.602 62.398 61.199 0 34.801-27.602 62.398-61.199 62.398-34.801 1.2031-62.398-26.398-62.398-61.199zm1021.2-1.1992v-2.3984c0-34.801 27.602-62.398 61.199-62.398 34.801 0 62.398 27.602 62.398 61.199v1.1992 1.1992c0 33.602-27.602 62.398-62.398 62.398-33.602 1.1992-61.199-26.398-61.199-61.199zm-897.6 1.1992m1021.2-3.5977m-1074-112.8c-32.398-12-49.199-46.801-37.199-79.199 12-32.398 46.801-49.199 79.199-37.199 32.398 12 49.199 46.801 37.199 79.199-9.6016 25.199-32.398 40.801-57.602 40.801-7.1953-0.003906-14.395-1.2031-21.598-3.6016zm922.8-39.602c-12-32.398 4.8008-67.199 36-79.199 32.398-12 67.199 4.8008 79.199 37.199 12 32.398-4.8008 67.199-36 79.199-7.1992 2.3984-14.398 3.6016-21.602 3.6016-23.996-1.1992-47.996-15.602-57.598-40.801zm-853.2-124.8c-26.398-21.602-30-61.199-8.3984-87.602 21.602-26.398 61.199-30 87.602-8.3984 26.398 21.602 30 61.199 8.3984 87.602-12 14.398-30 21.602-48 21.602-13.203 1.1992-27.602-3.6016-39.602-13.203zm775.2-9.5977c-21.602-26.398-19.199-64.801 7.1992-87.602 26.398-21.602 64.801-19.199 87.602 7.1992 21.602 26.398 19.199 64.801-7.1992 87.602-12 9.6016-26.398 14.398-39.602 14.398-18 0-36-7.1992-48-21.598zm-652.8-121.2c-16.801-30-7.1992-67.199 22.801-84 30-16.801 67.199-7.1992 85.199 22.801 16.801 30 7.1992 67.199-22.801 85.199-9.6016 6-20.398 8.3984-31.199 8.3984-22.797-1.1992-43.199-13.199-54-32.398zm532.8 20.398c-30-16.801-39.602-55.199-22.801-84 16.801-30 55.199-39.602 84-22.801 30 16.801 39.602 55.199 22.801 84-12 20.398-32.398 31.199-54 31.199-9.5977 0-20.398-2.3984-30-8.3984zm-374.4-102c-6-33.602 16.801-66 50.398-72 33.602-6 66 16.801 72 50.398 6 33.602-16.801 66-50.398 72-3.6016 1.1992-7.1992 1.1992-10.801 1.1992-30 0.003906-55.199-21.598-61.199-51.598zm228 49.199c-33.602-6-56.398-38.398-50.398-72 6-33.602 38.398-56.398 72-50.398 33.602 6 56.398 38.398 50.398 72-4.8008 30-31.199 51.602-61.199 51.602-3.6016-0.003906-7.2031-0.003906-10.801-1.2031z"/>
 <path d="m544.8 902.4c0-30 25.199-55.199 55.199-55.199s55.199 24 55.199 55.199c0 30-24 55.199-55.199 55.199-30-1.1992-55.199-25.199-55.199-55.199zm-122.4 7.2031c-26.398-15.602-36-49.199-20.398-75.602 15.602-26.398 49.199-36 75.602-20.398 26.398 15.602 34.801 49.199 20.398 75.602-9.6016 18-28.801 27.602-48 27.602-9.6016-0.003907-19.199-2.4062-27.602-7.2031zm280.8-20.402c-15.602-26.398-6-60 20.398-75.602 26.398-15.602 60-6 75.602 20.398 15.602 26.398 6 60-20.398 75.602-8.3984 4.8008-18 7.1992-27.602 7.1992-19.199 0.003906-37.199-9.5977-48-27.598zm-411.6-110.4c-15.602-26.398-6-60 20.398-75.602 26.398-15.602 60-6 75.602 20.398 15.602 26.398 6 60-20.398 75.602-8.3984 4.8008-18 7.1992-27.602 7.1992-20.402 0-38.402-9.5977-48-27.598zm542.4 19.199c-26.398-15.602-34.801-49.199-20.398-75.602 15.602-26.398 49.199-34.801 75.602-20.398 26.398 15.602 34.801 49.199 20.398 75.602-9.6016 18-28.801 27.602-48 27.602-9.6016 1.1953-19.203-1.2031-27.602-7.2031zm-590.4-196.8c0-30 24-55.199 55.199-55.199 30 0 55.199 24 55.199 55.199 0 30-24 55.199-55.199 55.199-31.199-1.1992-55.199-25.199-55.199-55.199zm603.6-1.1992v0c0-31.199 24-56.398 55.199-56.398 30 0 55.199 24 55.199 55.199v1.1992 1.1992c0 30-25.199 55.199-55.199 55.199-31.199-1.1992-55.199-26.398-55.199-56.398zm-536.4-103.2c-26.398-15.602-34.801-49.199-20.398-75.602 15.602-26.398 49.199-34.801 75.602-20.398 26.398 15.602 36 49.199 20.398 75.602-9.6016 18-28.801 27.602-48 27.602-9.6016 1.1953-19.203-1.2031-27.602-7.2031zm502.8-21.602c-15.602-26.398-6-60 19.199-75.602 26.398-15.602 60-6 75.602 19.199 15.602 26.398 6 60-19.199 75.602-8.3984 4.8008-18 7.1992-27.602 7.1992-19.203 1.2031-38.402-8.3984-48-26.398zm-412.8-108c-15.602-26.398-6-60 20.398-75.602 26.398-15.602 60-6 75.602 20.398 15.602 26.398 6 60-20.398 75.602-8.3984 4.8008-18 7.1992-27.602 7.1992-19.199-1.1953-38.402-10.797-48-27.598zm321.6 18c-26.398-15.602-34.801-49.199-20.398-75.602 15.602-26.398 49.199-34.801 75.602-20.398 26.398 15.602 36 49.199 20.398 75.602-9.6016 18-28.801 27.602-48 27.602-9.6016 1.1992-19.199-2.4023-27.602-7.2031zm-178.8-86.398c0-30 24-55.199 55.199-55.199 30 0 55.199 24 55.199 55.199 0 30-24 55.199-55.199 55.199-30-1.1992-55.199-25.199-55.199-55.199z"/>
 <path d="m704.4 600c0 57.66-46.738 104.4-104.4 104.4s-104.4-46.738-104.4-104.4 46.738-104.4 104.4-104.4 104.4 46.738 104.4 104.4z"/>
</svg>
