<?xml version="1.0" encoding="UTF-8"?>
<svg width="1200pt" height="1200pt" version="1.1" viewBox="0 0 1200 1200" xmlns="http://www.w3.org/2000/svg">
 <path d="m600 299.6c-320.4 0-580 300.4-580 300.4s259.6 300.4 580 300.4 580-300.4 580-300.4-259.6-300.4-580-300.4zm-370.4 400.4c-51.199-36.398-92.398-72.801-120.4-100 60-57.602 180.4-159.6 327.6-208.4-62 48.398-101.6 124-101.6 208.4s39.602 159.6 100.8 208c-81.203-27.199-152.8-70-206.4-108zm516.4-122c-0.39844 14-3.1992 29.199-9.1992 42.801-6 13.602-14 26-24 36.801-10.398 10.398-22.398 19.199-35.602 25.602-13.199 6.3984-27.602 10.398-42 11.602-7.1992 0.39844-14.398 0.39844-21.602-0.39844-2 0-3.6016-0.39844-5.6016-0.39844l-5.6016-1.1992c-3.6016-0.39844-7.1992-1.6016-10.801-2.8008-28.801-8.8008-51.602-31.602-61.602-58.398-5.1992-13.602-6.8008-28-5.6016-42 0.80078-6.8008 2-14 4.8008-20.801 2.8008-6.3984 5.6016-13.199 10-18.398 4.3984-5.6016 9.1992-10.398 14.801-14.398 2.8008-2 5.6016-4 8.3984-5.6016 3.1992-1.6016 6-3.1992 9.1992-4 12.398-4.8008 26-5.6016 38.398-2.8008 1.1992 0.39844 2 1.6016 1.6016 2.8008-0.39844 0.80078-1.1992 1.6016-2 1.6016-12 0.80078-23.199 4-32.398 10-2.3984 1.1992-4.3984 3.1992-6.8008 4.8008-2 2-4 3.6016-5.6016 5.6016-3.6016 4-6.3984 8.3984-8.8008 12.801-2.3984 4.3984-4 9.6016-4.8008 14.398-0.80078 4.8008-1.1992 10-0.80078 15.199 0.80078 10.398 3.1992 20 8 28.801 9.6016 17.199 26 30 44 34 2.3984 0.39844 4.3984 1.1992 6.8008 1.1992l3.6016 0.39844h3.6016c4.8008 0.39844 9.6016-0.39844 14.398-0.80078 9.6016-1.1992 18.801-4.8008 27.199-9.1992 8.3984-4.3984 16-10.398 22.398-17.602 6.3984-7.1992 11.602-15.199 15.199-23.602 3.6016-8.8008 5.6016-17.602 6.3984-27.602 0.80078-10 0-20-1.6016-30l-1.6016-7.1992-2.3984-7.1992c-0.80078-2.3984-1.6016-4.8008-2.8008-7.1992-1.1992-2.3984-2-4.8008-3.1992-6.8008l-3.6016-6.8008c-1.1992-2-2.8008-4.3984-4.3984-6.3984-0.80078-1.1992-1.6016-2-2-3.1992l-2.3984-2.8008c-1.6016-2-3.1992-4-5.1992-6-7.1992-7.6016-15.199-13.602-24.398-19.199-9.1992-5.1992-18.801-8.8008-28.801-11.602-41.602-9.1992-88.801 1.6016-122.4 30.398-16.801 14-30.801 32-40.398 52l-3.1992 7.6016c-0.80078 2.8008-2.3984 5.1992-2.8008 8l-3.5977 12-0.80078 4c-0.80078 5.6016-2.3984 11.199-2.3984 16.801l-0.80078 8.3984-0.39844 4.3984v4.3984c-1.1992 46 16.398 92 47.199 127.2 30.801 35.199 74.801 59.199 122.4 66 1.1992 0 2 1.1992 2 2.3984 0 1.1992-1.1992 2-2.3984 2-24.398-2-48.801-8-71.199-18.398-22.398-10.398-43.199-25.199-60.398-42.801-34.801-35.602-57.199-84.801-59.199-136 0-1.6016-0.39844-3.1992-0.39844-4.8008v-4.8008l0.39844-9.6016c0-6.3984 1.1992-12.801 2-19.199l0.80078-4.8008 3.5977-14.402c0.80078-3.1992 2-6.3984 2.8008-9.1992l3.1992-9.1992c9.6016-24.398 25.199-46.398 44.398-64 4.8008-4.8008 10-8.3984 15.199-12.398 2.3984-2 5.6016-3.6016 8.3984-5.6016l8.3984-5.1992 8.8008-4.3984c2.8008-1.6016 6-3.1992 9.1992-4 6.3984-2.3984 12.398-5.1992 18.801-6.3984l9.6016-2.8008c3.1992-0.80078 6.3984-1.1992 10-2 3.1992-0.39844 6.3984-1.1992 10-1.6016l10-0.80078c13.199-0.80078 26.801 0 40.398 2.3984 13.602 2.8008 26.801 7.1992 38.801 13.602 12 6.3984 24 14.398 34 24 10 9.6016 19.199 20.398 26.398 32.398 2 2.8008 3.1992 6 5.1992 9.1992 1.6016 3.1992 3.1992 6.3984 4.3984 9.6016l4 10 2.8008 10c2.4141 13.203 4.4141 27.602 3.6133 41.602zm17.199 230.4c62-48.398 101.6-124 101.6-208.4s-39.602-159.6-100.8-208c81.199 27.199 152.8 70 206.4 108 51.199 36.398 92.398 72.801 120.4 100-59.996 57.602-180.4 159.6-327.6 208.4z"/>
</svg>
