<?xml version="1.0" encoding="UTF-8"?>
<svg width="1200pt" height="1200pt" version="1.1" viewBox="0 0 1200 1200" xmlns="http://www.w3.org/2000/svg">
 <g>
  <path d="m467.06 902.81 14.812-34.5c-35.062-15-66.75-36.562-93.938-63.75-56.625-56.625-87.938-132-87.938-212.06s31.125-155.44 87.938-212.06c46.5-46.5 107.25-76.125 172.12-84.938v42c0 7.125 3.9375 13.5 10.312 16.688 2.625 1.3125 5.4375 2.0625 8.4375 2.0625 3.9375 0 7.875-1.3125 11.25-3.75l84.938-63.75c4.6875-3.5625 7.5-9.1875 7.5-15s-2.8125-11.438-7.5-15l-84.938-63.75c-5.625-4.3125-13.312-4.875-19.688-1.6875s-10.312 9.75-10.312 16.688v47.438c-74.812 9-145.31 42.938-198.56 96.375-63.75 63.75-98.812 148.5-98.812 238.69s35.062 174.94 98.812 238.69c30.562 30.562 66.188 54.75 105.75 71.625zm130.31-655.31 35.062 26.25-35.062 26.25z"/>
  <path d="m609.94 990c3.375 2.4375 7.3125 3.75 11.25 3.75 2.8125 0 5.8125-0.75 8.4375-2.0625 6.375-3.1875 10.312-9.75 10.312-16.688v-47.625c74.812-9 145.12-42.562 198.56-96.188 63.75-63.75 98.812-148.5 98.812-238.69s-35.062-174.94-98.812-238.69c-29.438-29.438-63.375-52.688-100.88-69.562l-15.375 34.312c33.375 15 63.562 35.812 89.625 61.875 56.625 56.625 87.938 132 87.938 212.06s-31.125 155.44-87.938 212.06c-46.5 46.5-107.25 76.125-172.12 84.938v-42c0-7.125-3.9375-13.5-10.312-16.688s-13.875-2.4375-19.688 1.6875l-84.938 63.75c-4.6875 3.5625-7.5 9.1875-7.5 15s2.8125 11.438 7.5 15l84.938 63.75zm-7.5-105v52.5l-35.062-26.25z"/>
  <path d="m505.12 726.38c1.5-0.75 3.375-0.9375 4.5-0.1875 7.5 5.0625 15.375 9.375 23.438 13.125 1.125 0.5625 1.5 1.875 1.5 2.8125v20.438c0 8.4375 5.625 15.938 13.875 18.188 17.062 4.5 34.312 6.9375 51.375 6.9375h2.4375c15.938 0 32.438-2.4375 48.938-6.9375 8.25-2.25 13.875-9.5625 13.875-18.188v-20.25c0-1.125 0.5625-2.4375 1.5-2.8125 8.25-3.75 16.125-8.0625 23.625-13.125 0.9375-0.75 3-0.5625 4.5 0.1875l18.188 10.125c7.125 3.9375 16.125 3 22.125-2.8125 24.938-23.812 42.938-53.812 51.75-86.625 2.25-8.25-1.5-17.062-9-21.188l-20.25-11.438c0.5625-4.875 0.75-9.75 0.75-14.625s-0.1875-9.5625-0.75-14.625l20.25-11.25c7.5-4.125 11.25-12.938 9-21.188-8.8125-33-26.625-63-51.562-86.812-6-5.625-14.812-6.75-22.125-2.8125l-18.375 10.125c-1.5 0.9375-3.375 0.9375-4.5 0.1875-7.5-5.0625-15.375-9.375-23.438-13.125-1.125-0.5625-1.5-1.875-1.5-2.8125v-20.438c0-8.4375-5.625-15.938-13.875-18.188-17.812-4.6875-35.812-7.125-53.812-6.75-15.938 0-32.438 2.4375-48.938 6.9375-8.25 2.25-13.875 9.5625-13.875 18.188v20.25c0 1.125-0.5625 2.4375-1.5 2.8125-8.25 3.75-16.125 8.0625-23.625 13.125-1.125 0.75-3 0.5625-4.5-0.1875l-18.188-10.125c-7.125-3.9375-16.125-2.8125-22.125 2.8125-24.938 23.812-42.938 53.812-51.75 86.625-2.25 8.25 1.5 17.062 9 21.188l20.25 11.25c-0.5625 4.875-0.75 9.75-0.75 14.625s0.1875 9.5625 0.75 14.625l-20.25 11.25c-7.5 4.125-11.25 12.938-9 21.188 8.8125 33 26.625 63 51.562 86.812 6 5.625 14.812 6.75 22.125 2.8125zm-51.375-75.188 18.188-10.125c7.125-3.9375 10.875-12 9.375-19.875-1.5-7.3125-2.0625-14.25-2.0625-21s0.75-13.688 2.0625-21c1.5-7.875-2.25-15.938-9.375-19.875l-18.188-10.125c6.1875-16.688 15.562-32.062 27.375-45.562l5.625 3.1875c13.875 7.6875 30.938 7.125 43.688-1.3125 5.625-3.9375 11.812-7.125 18-9.9375 14.438-6.375 23.625-21 23.625-37.125v-5.4375c8.625-1.5 17.25-2.4375 25.875-2.4375 10.125-0.375 19.875 0.75 29.812 2.4375v5.4375c0 16.125 9.1875 30.562 23.625 37.125 6.1875 2.8125 12.188 6.1875 18 9.9375 12.75 8.625 30 9.1875 43.688 1.3125l5.625-3.1875c11.812 13.5 21.188 28.875 27.375 45.75l-18.188 10.125c-7.125 3.9375-10.875 12-9.375 19.875 1.5 7.5 2.0625 14.438 2.0625 21.188s-0.75 13.688-2.0625 21.188c-1.5 7.875 2.25 15.938 9.375 19.875l18.188 10.125c-6.1875 16.688-15.562 32.062-27.375 45.562l-5.625-3.1875c-13.875-7.6875-31.125-7.3125-43.688 1.3125-5.625 3.9375-11.812 7.125-18 9.9375-14.25 6.5625-23.625 21-23.625 37.125v5.4375c-8.625 1.5-17.25 2.4375-25.875 2.4375-10.125 0-19.875-0.75-29.812-2.4375v-5.4375c0-15.938-9.1875-30.562-23.625-37.125-6.1875-2.8125-12.188-6.1875-18-9.9375-12.75-8.625-29.812-9.1875-43.688-1.3125l-5.625 3.1875c-11.812-13.5-21.188-28.875-27.375-45.75z"/>
  <path d="m600 675c41.438 0 75-33.562 75-75s-33.562-75-75-75-75 33.562-75 75 33.562 75 75 75zm0-112.5c20.625 0 37.5 16.875 37.5 37.5s-16.875 37.5-37.5 37.5-37.5-16.875-37.5-37.5 16.875-37.5 37.5-37.5z"/>
  <path d="m950.44 965.25-25.875-27c-8.0625 7.6875-16.312 15.188-24.938 22.312l24 28.875c9.1875-7.6875 18.188-15.75 27-24.188z"/>
  <path d="m276.56 210.56c-9.1875 7.6875-18.188 15.75-27 24.188l25.875 27c8.0625-7.6875 16.312-15.188 24.938-22.312l-24-28.875z"/>
  <path d="m131.25 187.5c0 6.9375 3.75 13.312 9.9375 16.5 2.8125 1.5 5.8125 2.25 8.8125 2.25 3.5625 0 7.3125-1.125 10.312-3.1875l112.5-75c5.25-3.5625 8.4375-9.375 8.4375-15.562s-3.1875-12.188-8.4375-15.562l-112.5-75c-5.8125-3.9375-13.125-4.125-19.312-0.9375s-9.9375 9.5625-9.9375 16.5v56.25h-112.31v37.5h112.5zm37.5-114.94 60 39.938-60 39.938z"/>
  <path d="m1172.8 1071.9-112.5-75c-5.8125-3.75-13.125-4.125-19.312-0.9375s-9.9375 9.5625-9.9375 16.5v56.25h-431.25c-258.56 0-468.75-210.19-468.75-468.75 0-112.69 40.5-221.44 114-306.56l-28.312-24.562c-79.5 91.875-123.19 209.44-123.19 330.94 0 279.19 227.06 506.25 506.25 506.25h431.25v56.25c0 6.9375 3.75 13.312 9.9375 16.5 2.8125 1.5 5.8125 2.25 8.8125 2.25 3.5625 0 7.3125-1.125 10.312-3.1875l112.5-75c5.25-3.5625 8.4375-9.375 8.4375-15.562s-3.1875-12.188-8.4375-15.562zm-104.06 55.5v-79.875l60 39.938z"/>
  <path d="m983.06 930.94c79.5-91.875 123.19-209.44 123.19-330.94 0-279.19-227.06-506.25-506.25-506.25h-281.25v37.5h281.25c258.56 0 468.75 210.19 468.75 468.75 0 112.69-40.5 221.44-114 306.56l28.312 24.562z"/>
 </g>
</svg>
