<?xml version="1.0" encoding="UTF-8"?>
<svg width="1200pt" height="1200pt" version="1.1" viewBox="0 0 1200 1200" xmlns="http://www.w3.org/2000/svg">
 <path d="m265.79 1107.3c3.6133 3.8125 3.4648 9.8398-0.34375 13.457-1.8438 1.7539-4.207 2.6289-6.5664 2.6289-2.5078 0-5.0078-0.98438-6.8789-2.9414-0.72266-0.75391-17.809-18.84-28.695-47.258-14.613-38.145-11.066-76.684 10.262-111.46 2.7539-4.4805 8.6172-5.8906 13.098-3.1367 4.4844 2.75 5.8906 8.6133 3.1367 13.098-43.711 71.281 13.527 133.02 15.988 135.61zm283.72-549.7c0.32031-5.25-3.6758-9.7656-8.9297-10.086-5.2422-0.28906-9.7656 3.6797-10.086 8.9297-5.2539 86.285 21.383 139.29 44.656 168.55 1.8828 2.3672 4.6562 3.5977 7.4609 3.5977 2.0781 0 4.168-0.67578 5.9219-2.0703 4.1172-3.2734 4.8008-9.2656 1.5273-13.383-21.195-26.664-45.441-75.289-40.551-155.54zm-65.348 193.89c-1.2344 0.69922-124.43 68.906-196.84-15.426-3.4258-3.9922-9.4375-4.4492-13.43-1.0195-3.9922 3.4258-4.4492 9.4375-1.0195 13.43 27.762 32.332 65.32 48.957 109.86 48.957 10.516 0 21.426-0.92578 32.684-2.793 43.559-7.2188 76.738-25.777 78.133-26.566 4.5781-2.5898 6.1914-8.3984 3.6016-12.98-2.5938-4.5781-8.4062-6.1953-12.984-3.6016zm80.148 236.12c-22.066-1.5156-46.168-5.2734-57.609-21.637-10.348-14.801-10.434-40.129-0.25391-75.277 1.4609-5.0508-1.4492-10.332-6.5-11.797-5.0469-1.4609-10.332 1.4453-11.797 6.5-12.027 41.527-11.062 71.457 2.9414 91.488 16.039 22.941 45.352 27.898 71.914 29.727 0.22266 0.015625 0.44141 0.019532 0.66016 0.019532 4.9609 0 9.1484-3.8438 9.4922-8.8711 0.35938-5.2461-3.5977-9.793-8.8477-10.152zm-481.43-449.26c39.699-24.938 99.477-29.137 128.25-29.613-0.09375-0.21094-0.20312-0.41016-0.29688-0.625-9.6602-22.301-13.801-43.578-13.797-63.473-15.82 4.043-32.227 6.0156-48.352 6.0156-45.133 0-88.031-15.199-109.65-42.043-49.812-61.844-43.566-203.36 39.359-300.19 19.852-23.18 49.766-28.965 84.234-16.285 34.203 12.582 69.109 42.07 95.758 80.898 26.266 38.27 41.941 82.207 44.949 125.18 25.543-9.9492 51.492-12.391 74.172-6.9688-2.8828-79.871 28.023-132.97 86.027-146.59 78.598-18.441 180.71 41.406 214.25 125.57 0.82031 2.0625 1.5703 4.1016 2.2695 6.1172 7.6133-13.199 21.062-24.504 38.469-31.961-7.1055-8.3164-12.461-16.91-14.75-25.461-5.1445-19.215-1.7109-38.5 9.6602-54.309 11.496-15.977 29.84-26.594 47.875-27.707 18.91-1.1875 44.395 13.891 65.473 29.578-12.848-37.695-15.535-82.848-9.0508-115.12 4.9492-24.621 14.766-41.27 28.395-48.141 7.0391-3.5508 18.793-5.9961 34.824 2.5195 27.691 14.711 57.066 55.902 73.73 99.059 46.223-43.418 86.781-30.359 102.87-22.113 34.43 17.648 55.035 60.047 46.91 96.52-8.4727 38.031-51.953 63.395-89.082 78.461 64.832 8.2656 112.88 38.742 129.34 70.168 9.0469 17.273 8.1133 34.645-2.5586 47.664-11.363 13.863-38.449 20.062-69.453 20.062-0.11719 0-0.23828-0.007813-0.35547-0.007813 9.9727 12.949 13.82 30.633 10.809 51.98-1.8125 12.84-6.082 26.809-12.344 40.953 20.816-4.9805 52.34-9.1992 76.25 2.2539 14.262 6.832 24.035 18.172 29.051 33.711 4.168 12.918 2.6562 25.902-4.5039 38.598-8.0156 14.219-23.008 27.105-41.188 38.5 18.75 6.3906 43.68 18.41 58.133 39.762 10.496 15.504 13.797 33.414 9.8125 53.23-4.8555 24.125-16.953 40.312-35.965 48.102-7.1367 2.9258-14.969 4.4414-23.211 4.8711 29.035 44.633 28.82 84.707 17.715 108.8-5.6406 12.234-14.273 21.402-24.875 26.844 12.137 81.926-30.805 117.07-46.684 127.05-0.48438 40.957-28.363 67.484-77.406 73.137-6.3398 0.73047-12.984 1.082-19.824 1.082-67.707 0.003906-154.88-34.492-162.65-77.516-1.5391-8.5312-0.30469-20.773 12.164-33.621-2.8867 0.40625-5.832 0.61719-8.8281 0.61719-2.0391 0-4.1016-0.09375-6.1914-0.28516-21.027-1.9102-36.766-10.613-46.277-24.965-8.8047 8.6914-21.02 16.512-34.773 16.512-2.7812 0-5.6289-0.34375-8.5156-1.0391-17.633 56.504-75.078 109.33-171.04 119.87-7.1016 0.78125-13.906 1.1484-20.395 1.1484-52.801 0.003906-85.707-24.25-105.19-47.691-5.7031 33.07-18.484 68.301-36.809 96.949-27.426 42.883-62.707 65.547-102.02 65.547-40.203 0-76.781-16.555-105.77-47.875-39.586-42.766-61.145-108.61-56.258-171.83 3.2891-42.559 42.328-74.633 104.43-85.793 55.062-9.8945 119.88-1.8945 160.07 25.395 1.4609-25.422 8.3164-48.816 19.84-67.918-9.5469 0.95312-19.254 1.4961-29.102 1.4961-14.332 0-28.891-1.0195-43.441-3.082-40.383-5.7305-77.152-19.363-103.53-38.395-18.383-13.258-31.492-28.824-39.023-45.996-19.336 8.0156-40.816 12.07-62.93 12.074-23.98 0-48.684-4.7227-72.164-14.211-33.676-13.602-58.312-34.723-65.914-56.508-13.902-39.895 9.9844-125.55 79.09-168.97zm465.92 215.8c-46.316-16.73-83.895-62.957-93.055-121.81-0.32812-2.1094-0.60156-4.2188-0.85156-6.3281-48.996-13.844-143.67-9.7852-198.06 29.219-26.852 19.254-40.469 44.496-40.477 75.023-0.015625 56.832 67.133 91.797 133.69 101.24 80.945 11.488 172.85-11.699 198.75-77.344zm174.84-325.16c-10.258 21.344-6.0273 36.859 12.926 47.422 12.883 7.1797 27.227 5.7148 42.637-4.3633 33.211-21.719 59.426-75.766 56.793-103.14-0.94141-9.8242-5.1133-11.523-6.4844-12.082-2.1484-0.875-4.6914-1.293-7.5508-1.293-26.531-0.003907-80.258 35.875-98.32 73.457zm112.31-176.82c-14.598 26.34-24.691 62.445 10.137 84.863 13.559 8.7305 27.863 8.5664 43.723-0.5 42.438-24.25 80.109-105.01 78.336-149.91-0.33594-8.5039-2.2773-19.367-9.6133-22.824-24.109-11.367-91.574 32.426-122.58 88.375zm88.418 81c-7.9609 8.0938-16.383 14.914-25.105 19.902-10.988 6.2773-21.969 9.418-32.641 9.418-4.2969 0-8.5391-0.53516-12.715-1.5508 0.46094 1.9648 0.83984 3.9922 1.0469 6.1484 1.1953 12.441-1.6562 27.438-7.332 42.777 9.6602-10.176 20.984-18.273 33.516-20.312 9.5469-1.5508 23.68 0.24609 36.754 17.633 8.5234 11.332 15.301 28.316 19.648 47.973 6.3516-19.863 15.562-38.684 27.676-53.535 6.9844-8.5664 14.559-15.281 22.582-20.152-32.66-11.434-54.445-28.168-63.43-48.301zm55.602 80.496c-31.059 38.086-41.68 111.82-28.273 143.23 5.2344 12.258 11.672 12.773 13.789 12.941 29.699 2.4453 90.797-68.254 98.809-124.96 4.2305-29.961-6.9727-47.23-34.25-52.785-3.1562-0.64453-6.2695-0.96484-9.3281-0.96484-14.852 0.003906-28.52 7.5586-40.746 22.547zm-37.828 209.75c-5.1211-3.168-9.7539-4.7539-13.844-4.7539-2.582 0-4.9531 0.63281-7.0938 1.8984-13.371 7.8984-23.656 35.879-26.203 71.277-2.6875 37.332 3.5977 76.066 16.406 101.09 14.867 29.031 36.355 37.637 63.875 25.594 18.883-8.2695 29.367-25.328 31.164-50.699 3.7422-53.059-32.84-124.95-64.305-144.4zm49.23 309.34c3.8555-16.941 15.637-53.328 48.984-79.891-10.203-10.852-20.125-24.02-29.535-39.309-6.9805 9.7656-16.312 17.324-27.906 22.398-10.516 4.6055-20.668 6.8672-30.246 6.8711-14.957 0.003906-28.539-5.5156-40.004-16.27 2.1445 36.91-5.5586 81-25.441 111.77-2.2305 3.4531-4.582 6.6328-7.0273 9.5938 32.051-12.117 73.758-18.418 111.18-15.16zm-123.43-179.04c3.4258-0.10938 7.4062 0.30859 11.574 1.8242-0.79687-4.2461-1.4922-8.5664-2.0625-12.969-5.7891-9.1094-36.273-54.066-75.578-57.617-10.496 15.34-22.723 29.332-35.422 40.305-0.44141 21.398 21.754 56.988 36.871 77.926 19.035-28.051 42.707-48.797 64.617-49.469zm-106.18 18.723c-5.7695-11.301-10.613-23.133-12.91-34.18-5.3008 3.2305-10.578 5.8281-15.754 7.6484-6.043 2.1289-11.363 2.9961-16.027 2.9961-10.02 0-16.996-4.0078-21.52-8.1328-7.2891-6.6445-12.387-17.176-15.113-30.73-18.484 26.277-45.23 44.688-76.867 49.613-5.5938 0.87109-11.176 1.2969-16.711 1.2969-6.5938 0-13.121-0.63672-19.543-1.8008-4.2148 11.355-10.07 21.871-17.512 31.426 52.637-0.19141 97.434 11.004 130.54 32.797 5.8789 3.8672 11.324 8.0703 16.383 12.535 9.7695-15.711 30.996-44.379 65.039-63.469zm-1.9023-222.18c-20.453 6.8555-39.875 33.613-52.113 71.66-0.19922 19.867-3.8516 38.887-10.406 56.145-0.98828 23.266 3.1055 41.402 11.047 48.637 4.0586 3.6953 10.242 4.1133 18.387 1.2461 31.184-10.984 76.801-65.602 86.656-113.51-11.051-10.93-17.969-26.871-20.023-47.176-0.38281-3.793-0.58594-7.7305-0.63672-11.773-11.496-7.0664-22.305-8.7852-32.91-5.2266zm116.14 140.21c1.0859-15.078 4.8555-45.785 17.734-67.488-9.1328 5.1328-19.316 8.0195-30.426 8.4648-1.3008 0.050781-2.5898 0.078125-3.8633 0.078125-10.945 0-20.723-1.9492-29.203-5.6914-3.7031 13.668-9.7734 27.855-17.449 41.539 26.461 5.6797 48.125 24.547 62.551 40.863 0.03125-5.9062 0.23047-11.836 0.65625-17.766zm26.664-271.84c-5.9023-7.8516-12.105-11.316-18.469-10.277-15.328 2.4961-35.086 24.812-50.34 56.855-16.09 33.797-24.328 72.164-21.496 100.12 3.2852 32.449 20.168 48.273 50.184 47.078 20.598-0.83203 36.57-12.902 47.473-35.887 22.793-48.051 14.875-128.32-7.3516-157.89zm-204.56 144.37c2.1758 6.2773 4 12.734 5.4609 19.344 13.621-26.016 31.086-43.727 50.234-50.145 12.988-4.3555 26.621-3.4922 40.066 2.4102 2.332-20.871 8.2891-43.457 17.328-65.254-6.8398 7.375-14.113 13.766-21.57 18.641-12.223 7.9922-24.465 12.004-36.297 12.004-8.6016 0-16.977-2.1445-24.977-6.3984-23.977 24.559-29.312 61-30.246 69.398zm-57.047-52.781c-19.789-17.25-42.922-26.355-66.336-26.355-4.6367 0-9.2852 0.35547-13.918 1.0781-28.043 4.3633-52.469 21.582-68.773 48.48-16.625 27.426-22.828 61.516-17.461 95.992 10.984 70.547 67.516 120.53 126.07 111.42 58.531-9.1133 97.211-73.922 86.23-144.47-5.3633-34.484-21.633-65.074-45.809-86.148zm-226.75 453.11c-16.406-35.516-73.195-53.734-128.9-53.734-14.32 0-28.559 1.2031-42.031 3.625-53.027 9.5273-86.23 35.141-88.805 68.512-4.4219 57.223 15.691 119.02 51.242 157.42 25.297 27.328 57.039 41.77 91.797 41.77 41.055 0 69.414-30.867 85.977-56.762 34.898-54.574 45.004-129.92 30.723-160.83zm305.18-45.137c-2.7539-31.633-20.375-59.656-49.621-78.91-33.828-22.266-81.93-32.277-139.22-29.047-13.23 11.039-29.191 20.246-47.777 27.34-11.5 4.3906-23.773 7.832-36.535 10.41-18.527 20.887-28.625 53.391-27.398 88.191 5.168 5.8203 9.4531 12.199 12.668 19.16 6.4336 13.926 8.9375 32.715 8.0039 53.664 24.934 41.965 67.551 61.871 120.34 56.07 110.86-12.172 164.94-84.762 159.54-146.88zm48.656 11.016c-1.6914-7.0469-2.4961-14.789-2.2422-23.266 0.78125-25.988 11.285-57.59 26.668-85.258-4.9922-6.5703-13.34-18.074-21.516-31.609-33.43 18.801-53.422 48.762-60.543 60.926 16.098 19.102 25.805 41.844 27.953 66.543 0.82812 9.5078 0.4375 19.23-1.0859 28.969 13.766 3.207 25.859-9.9648 30.766-16.305zm103.07-1.2188c26.414-40.871 28.832-114.59 12.215-144.04-6.4648-11.453-12.82-11.273-14.91-11.195-29.547 0.90234-81.883 77.07-83.582 133.75-0.89844 29.914 11.992 45.664 39.406 48.152 18.555 1.6875 34.34-7.2852 46.871-26.672zm195.01 77.219c-0.97266-19.094-11.789-33.508-32.148-42.844-17.016-7.8047-39.141-11.223-62.277-11.223-43.949 0-91.562 12.332-114.83 30.375-6.6953 5.1914-14.34 13.23-12.754 22.027 5.5508 30.754 93.176 68.762 161.54 60.891 41.883-4.832 62.227-24.758 60.465-59.227zm47.34-116.62c-1.2266 0.125-2.4648 0.21094-3.7188 0.25391-0.66406 0.023437-1.332 0.035156-2 0.035156-17.594 0-35.801-7.8984-53.496-22.719-29.105 22.133-40.16 53.859-43.969 69.195 11.387 2.1484 22.098 5.3203 31.637 9.6992 21.367 9.8008 35.16 24.723 40.633 43.633 14.883-12.383 38.684-41.859 30.914-100.1zm1.2109-142.59c-35.363-5.6406-73.449-24.59-97.293-38.191 6.1523 20.516 9.3359 41.711 7.9492 61.359-0.61719 8.7109-2.1484 16.719-4.5117 24.027 27.602 49 60.438 77.535 88.277 76.617 13.441-0.46094 24.242-8.082 30.406-21.457 9.3984-20.391 8.3242-59.188-24.828-102.36zm-7.9219-131.26c-41.285 20.777-89.48 34.953-112.07 40.992 4.3086 7.3516 8.3477 15.16 11.984 23.301 29.961 19.723 108.48 62.371 148.41 45.988 12.922-5.2969 20.938-16.496 24.504-34.23 2.9844-14.832 0.72266-27.523-6.9102-38.797-16.883-24.945-54.438-34.766-65.922-37.254zm-48.055-103.03c-6.168 10.441-13.285 20.691-21.188 30.359-11.742 14.359-41.562 46.883-70.629 46.883-1.0078 0-2.0156-0.039063-3.0234-0.11719-8.9766-0.71484-21.273-5.4297-29.344-23.492-2.0586 6.7422-4.5 13.242-7.4023 19.363-2.9375 6.1875-6.25 11.754-9.8789 16.75 8.3828-2.9844 20.113-3.3203 34.816 5.7734 10.621 6.5664 21.582 17.707 31.699 31.695 45.227-11.441 148.36-44.758 171.16-85.223 4.5-7.9844 5.4688-15.633 2.9648-23.387-3.3945-10.516-9.6562-17.832-19.148-22.383-23.977-11.484-63.266-2.0117-80.031 3.7773zm-94.664-236.65c-7.1094 14.578-15.582 28.625-25.047 41.047 3.6172 26.301 37.129 41.426 57.352 48.219 54.039 18.152 118.26 14.625 130.98-0.89453 5.8398-7.1211 5.9766-16.121 0.41016-26.746-15.305-29.242-75.918-66.961-163.7-61.625zm-2.6758-150.15c2.082 7.2695 3.7344 14.484 4.8984 21.531 0.09375 0.042969 0.19141 0.078125 0.28906 0.125 8.8203 4.1562 19.543 14.352 20.527 39.309 0.74219 18.773-4.1484 42.305-13.051 66.008 39.211-11.48 103.06-37.871 111.73-76.805 6.332-28.414-9.9258-61.547-37.004-75.426-27.617-14.156-58.504-5.1641-87.391 25.258zm-101.82 66.586c9.3438-9.0312 19.387-17.371 29.742-24.555 13.582-9.4297 36.102-22.645 56.973-23.879-10.648-51.359-47.5-106.22-74.348-120.49-7.0898-3.7656-12.914-4.5508-17.309-2.332-7.9805 4.0234-14.648 16.742-18.297 34.887-7.9883 39.754-0.26953 101.05 23.238 136.37zm-137.47 22.512c6.5039 24.297 53.504 54.887 82.125 70.863 1.8516-13.113 6.8281-27.199 14.992-41.93 6.8086-12.285 15.727-24.684 26.004-36.402-24.492-22.398-63.547-51.777-82.809-50.609-12.285 0.75781-25.469 8.5391-33.59 19.824-5.6367 7.8398-11.383 20.84-6.7227 38.254zm-30.066 87.742c0.22656 22.605 27.855 43.266 74.152 55.66 17.402-11.371 35.641-19.184 51.195-20.578-7.1641-8.8984-11.605-19.102-13.254-30.352-12.984-6.7891-46.078-25.09-71.016-47.293-24.594 8.1758-41.25 25.199-41.078 42.562zm-175.06 91.176c-21.176 0-39.469-1.1719-51.164-2.1602 2.8516 16.867 1.5547 34.23-4.0938 51.691-18.453 57.035-83.672 108.16-146.9 117.34 6.5352 10.312 14.773 25.777 20.41 45.039 43.363-7.7383 87.691-6.0273 118.38 1.2266-0.12891-29.723 7.4023-58.328 22.062-82.508 19.27-31.785 48.438-52.18 82.129-57.426 33.688-5.2539 67.68 5.3164 95.699 29.742 12.285 10.711 22.758 23.543 31.148 37.918 4.6992-15.855 13.145-35.352 28.137-51.52-15.543-15.652-18.031-37.281-6.3867-61.512 8.1016-16.863 23.145-34.441 40.699-49.152-36.527-11.945-55.305-27.602-64.777-41.648-2.1797 6.2539-5.332 12.125-9.5234 17.57-29.062 37.758-101.78 45.398-155.82 45.398zm-120.12-94.68c5.2344 2.6094 10.184 5.7344 14.773 9.3984 23.996 19.16 40.445 40.699 48.934 63.523 48.914 5.0508 164.36 7.3438 197.16-35.273 11.375-14.781 12.133-33.953 2.3086-58.605-29.82-74.824-123.23-130.26-192.21-114.07-50.719 11.906-75.793 59.781-70.965 135.03zm-124.06 38.934c-41.012 31.363-74.125 89.309-46.352 158.94 13.078 2.5469 57.93 8.918 89.414-15.488 21.613-16.754 33.336-45.129 34.844-84.34 0.20313-5.2578 4.668-9.3398 9.8828-9.1484 5.2578 0.20312 9.3516 4.625 9.1484 9.8828-1.7344 45.102-15.938 78.297-42.211 98.664-22.914 17.758-50.5 22.242-72.5 22.242-6.2188 0-11.98-0.35938-17.074-0.87891 17.148 21.895 42.531 26.004 62.492 25.039 60.027-2.8828 125.58-51.195 143.15-105.5 13.297-41.098-1.8672-80.535-43.852-114.05-31.051-24.797-83.254-18.773-126.95 14.645zm-11.57-15.129c7.5938-5.8086 15.445-10.863 23.426-15.188-2.9688-90.766-67.992-174.52-128.66-196.84-18.711-6.8828-44.867-10.598-63.191 10.797-75.805 88.512-83.203 220.97-38.988 275.86 25.562 31.734 90.613 43.914 144.62 27.832 6.3633-43.766 32.695-79.434 62.797-102.46zm-168.27 232.44c-64.934 40.797-81.113 118.22-71.223 146.57 5.7305 16.43 26.828 33.719 55.059 45.121 41.137 16.617 86.188 17.09 122.18 1.6016-1.1406-5.7109-1.7227-11.559-1.7227-17.523 0.007813-36.492 16.758-67.785 48.426-90.496 20.32-14.57 45.023-24.594 70.867-30.973-7.1758-23.586-18.766-40.766-23.867-47.59-30.09-0.59766-54.328-12.176-70.438-33.395-18.242-0.23828-87.875 0.67578-129.28 26.688zm-22.828 142.89c0.23437 0.015625 0.46875 0.027344 0.69922 0.027344 4.9258 0 9.1016-3.8164 9.4922-8.8086 0.25781-3.2852 7.668-80.609 127.8-97.719 5.207-0.74219 8.8281-5.5625 8.0859-10.773-0.74219-5.2109-5.5625-8.832-10.773-8.0859-70.422 10.031-105.79 40.328-123.06 63.98-19.148 26.223-20.984 50.246-21.051 51.254-0.35156 5.2344 3.5859 9.7461 8.8125 10.125zm81.004-331.63c-1.1719-0.29688-28.895-7.582-44.441-38.18-16.918-33.289-13.199-80.633 11.059-140.71 1.9688-4.8789-0.38672-10.43-5.2656-12.398-4.875-1.9727-10.43 0.38672-12.398 5.2656-26.516 65.676-29.93 118.47-10.148 156.91 19.703 38.305 55.184 47.254 56.684 47.613 0.75 0.17969 1.5 0.26953 2.2383 0.26953 4.2773 0 8.1484-2.9102 9.2227-7.2539 1.25-5.082-1.8672-10.234-6.9492-11.516zm449.94-15.285c0.47266 0.070312 0.94141 0.10156 1.4023 0.10156 4.6445 0 8.7109-3.4023 9.4102-8.1328 0.76953-5.2031-2.8281-10.047-8.0312-10.812-44.074-6.5078-104.63-24.402-142.85-72.672-3.2656-4.125-9.2539-4.8203-13.379-1.5547s-4.8203 9.2539-1.5547 13.379c42.086 53.16 107.52 72.68 155 79.691z"/>
</svg>
