<?xml version="1.0" encoding="UTF-8"?>
<svg width="1200pt" height="1200pt" version="1.1" viewBox="0 0 1200 1200" xmlns="http://www.w3.org/2000/svg">
 <g>
  <path d="m847.48 1137.1h-509.07c-11.137 0-20.773-3.9961-28.668-11.879-7.8945-7.8828-11.879-17.531-11.879-28.691v-541.72c0-22.367 18.191-40.57 40.547-40.57h509.06c22.367 0 40.57 18.203 40.57 40.57v50.855l-57.203 23.027c-23.617 9.5156-38.281 31.246-38.281 56.711v270.42c0 25.465 14.676 47.195 38.281 56.711l57.203 23.027v60.961c0.003906 22.367-18.199 40.574-40.566 40.574zm-509.07-610.86c-15.742 0-28.547 12.816-28.547 28.57v541.71c0 7.9688 2.7461 14.566 8.3633 20.207 5.6406 5.6289 12.238 8.3633 20.184 8.3633h509.06c15.758 0 28.57-12.816 28.57-28.57v-52.848l-49.68-20.004c-28.246-11.375-45.805-37.367-45.805-67.836l0.003906-270.43c0-30.469 17.555-56.461 45.805-67.836l49.68-20.004v-42.758c0-15.758-12.816-28.57-28.57-28.57z"/>
  <path d="m861.56 913.08h-81v-90.098h81c22.367 0 40.57 18.191 40.57 40.547v8.9766c0.003907 22.371-18.199 40.574-40.57 40.574zm-69-12h69c15.758 0 28.57-12.816 28.57-28.57v-8.9766c0-15.742-12.816-28.547-28.57-28.547h-69z"/>
  <path d="m861.56 819.07h-81v-90.121h81c22.367 0 40.57 18.203 40.57 40.57v8.9766c0 11.16-3.9961 20.797-11.879 28.691-7.8828 7.9023-17.531 11.883-28.691 11.883zm-69-12h69c7.9688 0 14.566-2.7461 20.207-8.3633 5.6289-5.6406 8.3633-12.238 8.3633-20.207v-8.9766c0-15.758-12.816-28.57-28.57-28.57h-69z"/>
  <path d="m861.56 725.02h-81v-39.59c0-18.18 6.457-35.398 18.203-48.516l1.7773-1.9922h61.02c22.367 0 40.57 18.191 40.57 40.547v9c0.003907 22.359-18.199 40.551-40.57 40.551zm-69-12h69c15.758 0 28.57-12.805 28.57-28.547v-9c0-15.742-12.816-28.547-28.57-28.547h-55.586c-8.7852 10.727-13.414 23.988-13.414 38.508z"/>
  <path d="m861.56 1007.1h-60.383l-1.7891-1.9453c-12.133-13.246-18.816-30.77-18.816-49.332v-38.832h81c22.367 0 40.57 18.203 40.57 40.57v8.9766c-0.007812 22.359-18.211 40.562-40.582 40.562zm-55.031-12h55.031c15.758 0 28.57-12.816 28.57-28.57v-8.9766c0-15.758-12.816-28.57-28.57-28.57h-69v26.832c0 14.875 4.8125 28.402 13.969 39.285z"/>
  <path d="m840.56 526.26h-78.324c-3.3125 0-6-2.6875-6-6v-208.48c0-89.832-73.078-162.91-162.91-162.91s-162.91 73.078-162.91 162.91v208.48c0 3.3125-2.6875 6-6 6h-78.348c-3.3125 0-6-2.6875-6-6l-0.003906-208.48c0-139.66 113.62-253.26 253.26-253.26s253.25 113.62 253.25 253.26v208.48c-0.011719 3.3242-2.6992 6-6.0117 6zm-72.324-12h66.324v-202.48c0-133.03-108.23-241.26-241.25-241.26-133.03 0-241.26 108.24-241.26 241.26v202.48h66.348v-202.48c0-96.445 78.469-174.91 174.91-174.91 96.449-0.003906 174.93 78.465 174.93 174.91z"/>
 </g>
</svg>
