<?xml version="1.0" encoding="UTF-8"?>
<svg width="1200pt" height="1200pt" version="1.1" viewBox="0 0 1200 1200" xmlns="http://www.w3.org/2000/svg">
 <path d="m560.02 1120c11.016 0 19.969-8.9531 19.969-19.969 0-11.062-8.9531-20.016-19.969-20.016-127.31 0-249.42-50.578-339.42-140.58-90-90.047-140.58-212.11-140.58-339.42s50.578-249.37 140.58-339.42c90-90 212.11-140.58 339.42-140.58 127.26 0 249.37 50.578 339.37 140.58 90.047 90.047 140.63 212.11 140.63 339.42 0 5.2969-2.1094 10.406-5.8594 14.156s-8.8594 5.8594-14.156 5.8594h-51.75l91.734 114.56 91.734-114.56h-51.703c-11.062 0-20.016-8.9531-20.016-20.016 0-137.9-54.797-270.19-152.29-367.69-97.547-97.547-229.78-152.29-367.69-152.29-137.9 0-270.19 54.75-367.74 152.29-97.5 97.5-152.29 229.78-152.29 367.69s54.797 270.19 152.29 367.69c97.547 97.547 229.82 152.29 367.74 152.29z"/>
</svg>
