<?xml version="1.0" encoding="UTF-8"?>
<svg width="1200pt" height="1200pt" version="1.1" viewBox="0 0 1200 1200" xmlns="http://www.w3.org/2000/svg">
 <path d="m574.31 325.69h-445.69v240l445.69 2.8125z"/>
 <path d="m128.62 0h205.69v274.31h-205.69z"/>
 <path d="m625.69 0v568.69l445.69 2.4375v-571.12z"/>
 <path d="m385.69 0h188.62v274.31h-188.62z"/>
 <path d="m128.62 1200h942.94v-577.5l-942.94-5.4375zm328.5-148.31 99.188-251.44c3.5625-10.125 12.938-16.875 23.625-17.062 10.312 0 19.688 6.1875 23.625 15.75l107.62 253.31c5.625 13.312-0.75 28.5-14.062 33.938-13.312 5.625-28.5-0.75-33.938-14.062l-25.688-60.938h-109.5l-22.5 59.062c-5.25 13.312-20.25 20.062-33.562 15s-19.875-20.062-14.812-33.562z"/>
 <path d="m581.06 876.94-32.625 83.062h66.75z"/>
</svg>
