<?xml version="1.0" encoding="UTF-8"?>
<svg width="1200pt" height="1200pt" version="1.1" viewBox="0 0 1200 1200" xmlns="http://www.w3.org/2000/svg">
 <path d="m1167.3 685.79c-0.28125-29.914-19.191-53.621-19.473-83.539-0.14062-29.914 18.484-66.039 18.203-95.953-9.4531-28.363-34.855-45.016-44.309-73.379s-2.9648-68.578-12.277-96.941c-17.781-24.129-47.129-32.031-64.77-56.02-17.781-24.129-23.988-64.348-41.629-88.336-24.27-17.355-54.609-15.945-79.023-33.301-24.27-17.355-42.617-53.762-67.027-71.121-28.504-9.0312-56.867 1.8359-85.371-7.3359-28.504-9.0312-57.148-37.957-85.652-46.988-29.914 0.28125-53.621 19.191-83.539 19.473-29.914 0.14063-66.039-18.484-95.953-18.203-28.363 9.4531-45.016 34.855-73.379 44.309s-68.578 2.9648-96.941 12.418c-24.129 17.781-32.031 47.129-56.02 64.77-24.129 17.781-64.348 23.988-88.336 41.77-17.355 24.27-15.945 54.609-33.301 79.023-17.355 24.27-53.762 42.617-71.121 67.027-9.0312 28.504 1.6914 56.867-7.3359 85.371-9.0312 28.504-37.957 57.148-46.988 85.652 0.14062 29.914 19.191 53.621 19.473 83.539 0.14062 29.914-18.484 66.039-18.203 95.953 9.4531 28.363 34.855 45.016 44.309 73.379s2.9648 68.578 12.418 96.941c17.781 24.129 47.129 32.031 64.77 56.16 17.781 24.129 23.988 64.348 41.629 88.336 24.27 17.355 54.609 15.945 79.023 33.301 24.27 17.355 42.617 53.762 67.027 71.121 28.504 9.0312 56.867-1.6914 85.371 7.3359 28.504 9.0312 57.148 37.957 85.652 46.988 29.914-0.28125 53.621-19.191 83.539-19.473 29.914-0.14062 66.039 18.484 95.953 18.203 28.363-9.4531 45.016-34.855 73.379-44.309s68.578-2.9648 96.941-12.418c24.129-17.781 32.031-47.129 56.16-64.77 24.129-17.781 64.348-23.988 88.336-41.629 17.355-24.27 15.945-54.609 33.301-79.023 17.355-24.27 53.762-42.617 71.121-67.027 9.0312-28.504-1.6914-56.867 7.3359-85.371 8.75-28.781 37.676-57.426 46.707-85.934zm-49.672 82.41c-12.84 25.258-44.309 47.695-57.289 72.953-12.84 25.258-7.1953 53.48-20.039 78.738-20.039 20.039-56.867 31.609-77.047 51.645-20.039 20.039-23.281 48.684-43.461 68.719-25.258 12.84-63.922 12.418-89.18 25.398-25.258 12.84-37.254 39.086-62.512 51.93-28.082 4.375-64.629-7.9023-92.711-3.5273-28.082 4.375-47.555 25.684-75.492 30.055-28.082-4.375-58.984-27.516-87.066-31.891-28.082-4.5156-53.059 9.7383-81.137 5.2227-25.258-12.84-47.695-44.449-72.953-57.289s-53.48-7.1953-78.879-20.039c-20.039-20.039-31.609-56.867-51.645-77.047-20.039-20.039-48.684-23.426-68.719-43.461-12.84-25.258-12.418-63.922-25.398-89.18-12.84-25.258-39.086-37.254-51.93-62.512-4.375-28.082 7.9023-64.629 3.5273-92.711-4.5156-28.082-25.684-47.555-30.055-75.492 4.5156-28.082 27.516-58.984 31.891-87.066 4.375-28.082-9.7383-53.059-5.2227-81.137 12.84-25.258 44.449-47.695 57.289-72.953 12.84-25.258 7.1953-53.48 20.039-78.879 20.039-20.039 56.867-31.609 77.047-51.645 20.039-20.039 23.426-48.684 43.461-68.719 25.258-12.84 63.922-12.418 89.18-25.398 25.258-12.84 37.254-39.086 62.512-51.93 28.082-4.375 64.629 7.9023 92.711 3.5273s47.555-25.684 75.492-30.055c28.082 4.375 58.984 27.516 87.066 31.891 28.082 4.5156 53.059-9.7383 81.137-5.2227 25.258 12.84 47.695 44.449 72.953 57.289 25.258 12.84 53.48 7.1953 78.879 20.039 20.039 20.039 31.609 56.867 51.645 77.047 20.039 20.039 48.684 23.426 68.719 43.461 12.84 25.258 12.418 63.922 25.398 89.18 12.84 25.258 39.086 37.254 51.93 62.512 4.5156 28.082-7.9023 64.629-3.5273 92.711 4.375 28.082 25.684 47.555 30.055 75.492-4.375 28.082-27.516 58.984-31.891 87.066-4.3711 28.078 9.7383 53.195 5.2227 81.277z"/>
</svg>
