<?xml version="1.0" encoding="UTF-8"?>
<svg width="1200pt" height="1200pt" version="1.1" viewBox="0 0 1200 1200" xmlns="http://www.w3.org/2000/svg">
 <path d="m1158 392.4-249.6-243.6c-6-6-14.398-9.6016-22.801-10.801l-267.6-33.602c-4.8008-1.1992-10.801 0-15.602 1.1992l-301.2 86.402c-6 2.3984-12 4.8008-16.801 9.6016l-186 189.6c-6 6-9.6016 13.199-10.801 20.398l-57.598 327.6c-2.3984 12 1.1992 22.801 8.3984 32.398l128.4 152.4c3.6016 4.8008 8.3984 8.3984 14.398 10.801l354 158.4c4.8008 2.3984 10.801 3.6016 15.602 3.6016 3.6016 0 7.1992 0 10.801-1.1992l320.4-92.398c7.1992-2.3984 14.398-7.1992 19.199-13.199l195.6-241.2c3.6016-4.8008 7.1992-10.801 8.3984-16.801l62.398-302.4c4.8047-14.402 0.007812-27.602-9.5938-37.203zm-109.2 229.2-140.4-216 8.3984-140.4 171.6 168zm-517.2-212.4 277.2 38.398-117.6 243.6-138 39.602-199.2-91.199zm58.797 393.6 111.6-32.398 108 170.4-219.6 63.602zm174-80.402 108-225.6 146.4 224.4-142.8 176.41zm-147.6-538.8 223.2 27.598-8.3984 160.8-302.4-42-124.8-85.199zm-298.8 97.199 140.4 94.801-163.2 213.6-118.8-165.6zm-206.4 453.6 37.199-216 114 159.6c3.6016 6 9.6016 9.6016 15.602 13.199l234 108-0.003906 196.8-290.4-130.8z"/>
</svg>
