<?xml version="1.0" encoding="UTF-8"?>
<svg width="1200pt" height="1200pt" version="1.1" viewBox="0 0 1200 1200" xmlns="http://www.w3.org/2000/svg">
 <path d="m372 312v22.266c0 35.062-11.109 69.234-31.688 97.594-8.25 11.391-16.969 23.438-25.172 34.688-25.312 34.875-38.906 76.875-38.906 119.95v428.68c0 62.297 50.531 112.83 112.83 112.83h421.87c62.297 0 112.83-50.531 112.83-112.83v-428.68c0-43.078-13.641-85.078-38.906-119.95-8.1562-11.25-16.922-23.297-25.172-34.688-20.578-28.359-31.688-62.531-31.688-97.594v-22.266h48c13.266 0 24-10.734 24-24v-192c0-13.266-10.734-24-24-24h-552c-13.266 0-24 10.734-24 24v192c0 13.266 10.734 24 24 24zm503.76 624v79.172c0 35.812-29.016 64.828-64.828 64.828h-421.87c-35.812 0-64.828-29.016-64.828-64.828v-79.172zm0-324v276h-551.53v-276zm-1.6406-48h-548.26c3.6094-24.891 13.219-48.703 28.172-69.281 8.1562-11.25 16.922-23.297 25.172-34.688 26.531-36.562 40.828-80.625 40.828-125.76v-22.266h360v22.266c0 45.188 14.297 89.203 40.828 125.76 8.25 11.391 16.969 23.391 25.172 34.688 14.906 20.578 24.516 44.344 28.172 69.281zm-70.125-300h48v-144h-504v144z" fill-rule="evenodd"/>
</svg>
