<?xml version="1.0" encoding="UTF-8"?>
<svg width="1200pt" height="1200pt" version="1.1" viewBox="0 0 1200 1200" xmlns="http://www.w3.org/2000/svg">
 <path d="m1005 105h-810c-23.859 0.027344-46.738 9.5195-63.609 26.391s-26.363 39.75-26.391 63.609v345c0 10.719 5.7188 20.621 15 25.98s20.719 5.3594 30 0 15-15.262 15-25.98v-345c0-7.957 3.1602-15.586 8.7852-21.215 5.6289-5.625 13.258-8.7852 21.215-8.7852h810c7.957 0 15.586 3.1602 21.215 8.7852 5.625 5.6289 8.7852 13.258 8.7852 21.215v810c0 7.957-3.1602 15.586-8.7852 21.215-5.6289 5.625-13.258 8.7852-21.215 8.7852h-345c-10.719 0-20.621 5.7188-25.98 15s-5.3594 20.719 0 30 15.262 15 25.98 15h345c23.859-0.027344 46.738-9.5195 63.609-26.391s26.363-39.75 26.391-63.609v-810c-0.027344-23.859-9.5195-46.738-26.391-63.609s-39.75-26.363-63.609-26.391z"/>
 <path d="m510 600h-315c-23.859 0.027344-46.738 9.5195-63.609 26.391s-26.363 39.75-26.391 63.609v315c0.027344 23.859 9.5195 46.738 26.391 63.609s39.75 26.363 63.609 26.391h315c23.859-0.027344 46.738-9.5195 63.609-26.391s26.363-39.75 26.391-63.609v-315c-0.027344-23.859-9.5195-46.738-26.391-63.609s-39.75-26.363-63.609-26.391zm30 405c0 7.957-3.1602 15.586-8.7852 21.215-5.6289 5.625-13.258 8.7852-21.215 8.7852h-315c-7.957 0-15.586-3.1602-21.215-8.7852-5.625-5.6289-8.7852-13.258-8.7852-21.215v-315c0-7.957 3.1602-15.586 8.7852-21.215 5.6289-5.625 13.258-8.7852 21.215-8.7852h315c7.957 0 15.586 3.1602 21.215 8.7852 5.625 5.6289 8.7852 13.258 8.7852 21.215z"/>
 <path d="m915 327.42v47.578c0 10.719 5.7188 20.621 15 25.98s20.719 5.3594 30 0 15-15.262 15-25.98v-120c0-1.9727-0.19531-3.9453-0.58594-5.8789-0.17969-0.89844-0.51172-1.7266-0.76562-2.5938v-0.003906c-0.44531-2.1328-1.2812-4.168-2.4727-6-0.40625-0.73438-0.73438-1.5-1.2148-2.2188-2.2031-3.293-5.0312-6.125-8.3242-8.3242-0.70312-0.46484-1.5-0.78125-2.1914-1.1836-1.8008-1.1836-3.8047-2.0195-5.9102-2.4766-0.88672-0.26953-1.7383-0.61328-2.6719-0.79687-1.8984-0.35938-3.8242-0.53516-5.7578-0.52344h-120.11c-10.719 0-20.621 5.7188-25.98 15s-5.3594 20.719 0 30 15.262 15 25.98 15h47.578l-263.8 263.79c-5.7852 5.5898-9.0859 13.273-9.1562 21.32-0.070313 8.0469 3.0977 15.781 8.7852 21.473 5.6914 5.6914 13.43 8.8555 21.477 8.7852 8.043-0.070313 15.727-3.3711 21.316-9.1562z"/>
</svg>
