<?xml version="1.0" encoding="UTF-8"?>
<svg width="1200pt" height="1200pt" version="1.1" viewBox="0 0 1200 1200" xmlns="http://www.w3.org/2000/svg">
 <path d="m861.61 788.11c-53.484 62.016-114.42 120.05-174.52 177.74l92.203 92.484c52.547-49.266 82.359-118.08 82.312-190.08zm-563.16-369.37c6.0469 57.844 23.766 113.91 52.078 164.72 56.766 105.66 160.45 205.97 243.61 289.08 166.36-159.89 309.79-295.6 309.79-498.1v-0.046874c0.046875-108.05-57.328-208.03-150.66-262.55-93.281-54.516-208.55-55.359-302.68-2.25-94.125 53.156-152.9 152.26-154.45 260.34-0.23438 16.266 0.5625 32.578 2.2969 48.797zm122.76 320.63v0.046875c-30.562-34.688-58.266-71.766-82.922-110.86v113.91c55.219 66.984 114.23 130.74 176.86 190.92l178.4 179.02-0.046875-0.046875c21.516-8.25 41.812-19.359 60.422-32.953l-194.9-195.37c-46.922-46.922-94.5-94.406-137.86-144.61zm178.74-701.86c89.344 0 175.03 35.484 238.22 98.672 63.191 63.188 98.672 148.87 98.719 238.22 0.1875 65.531-14.25 130.31-42.234 189.56v304.31c-0.14062 105.19-56.297 202.31-147.42 254.9-91.125 52.547-203.34 52.547-294.47 0-91.125-52.594-147.28-149.72-147.42-254.9v-301.08c-27.844-60.469-42.234-126.24-42.234-192.79 0-89.344 35.484-175.03 98.672-238.22 63.141-63.141 148.82-98.672 238.18-98.672zm57.938 1085.6-166.13-166.6c-53.109-53.203-106.03-106.12-153.47-162.19v73.922c0.23438 79.5 36.516 154.55 98.625 204.14 62.156 49.547 143.44 68.203 220.97 50.719zm-119.02-646.31c-1.6875-4.0312-1.7344-8.5781-0.046875-12.656 1.6875-4.0312 4.875-7.2188 8.9062-8.9062s8.5781-1.6875 12.656 0c4.0312 1.6875 7.2188 4.9219 8.8594 8.9531 5.25 12.328 17.344 20.344 30.75 20.344s25.5-8.0156 30.75-20.344c1.6406-4.0312 4.8281-7.2656 8.8594-8.9531 4.0781-1.6875 8.625-1.6875 12.656 0s7.2188 4.875 8.9062 8.9062c1.6875 4.0781 1.6406 8.625-0.046875 12.656-7.5938 18.234-22.969 32.109-41.859 37.828-18.891 5.7656-39.375 2.7656-55.875-8.1094-10.875-7.3125-19.453-17.625-24.516-29.719zm154.26-94.172c-1.6406 4.0312-4.875 7.2188-8.9062 8.9062-4.0312 1.6406-8.5781 1.6406-12.609-0.046874-4.0312-1.6406-7.2188-4.875-8.8594-8.9062-1.6875-4.0312-1.6406-8.5781 0.046875-12.609 10.312-24.609 34.406-40.641 61.125-40.641 26.672 0 50.766 16.031 61.078 40.641 3.5156 8.3906-0.46875 18.047-8.8594 21.516s-18.047-0.46875-21.516-8.8594c-5.25-12.328-17.344-20.344-30.75-20.344s-25.5 8.0156-30.75 20.344zm-247.78 0c-3.4688 8.3906-13.125 12.328-21.516 8.8594s-12.375-13.125-8.8594-21.516c10.312-24.656 34.406-40.688 61.078-40.688 26.719 0 50.812 16.031 61.125 40.688 3.4688 8.3906-0.46875 18.047-8.8594 21.516s-18.047-0.46875-21.516-8.8594c-5.25-12.328-17.344-20.344-30.75-20.344-13.359 0-25.453 8.0156-30.703 20.344zm104.91-177.71c-1.0781-4.2656-0.375-8.7188 1.875-12.469s5.9062-6.4219 10.172-7.5c4.2188-1.0312 8.7188-0.32812 12.469 1.9219 3.7031 2.2969 6.4219 5.9531 7.4531 10.172 11.109 45.234 71.625 20.859 44.531-27.328-8.0625-13.266-18.844-24.703-31.641-33.469-80.812 1.875-155.02 45.094-196.4 114.52-41.438 69.422-44.25 155.26-7.5 227.21 36.75 72 107.95 120.05 188.48 127.18 80.484 7.1719 159-27.609 207.89-91.969 48.844-64.406 61.172-149.39 32.625-225-28.547-75.609-93.938-131.26-173.16-147.28 42 55.453 9.9844 112.55-39.188 112.88v-0.046875c-28.453-0.32812-52.594-20.812-57.609-48.797zm49.688-101.67c71.344 0 139.74 28.359 190.13 78.75 50.438 50.438 78.797 118.83 78.797 190.13 0 71.344-28.359 139.74-78.797 190.18-50.391 50.391-118.78 78.75-190.13 78.75-71.297 0-139.69-28.359-190.13-78.75-50.438-50.438-78.75-118.83-78.75-190.18 0-71.297 28.312-139.69 78.75-190.13s118.83-78.75 190.13-78.75zm63.984 839.29 7.9688-7.7344c67.406-61.875 130.78-128.06 189.71-198.1v-112.64c-70.453 99.891-152.48 191.06-244.31 271.69z"/>
</svg>
