<?xml version="1.0" encoding="UTF-8"?>
<svg width="1200pt" height="1200pt" version="1.1" viewBox="0 0 1200 1200" xmlns="http://www.w3.org/2000/svg">
 <g>
  <path d="m133.68 1085.8c-7.5352-7.4141-14.441-15.441-20.641-24-5.7852-7.6562-11.078-15.672-15.84-24-8.9141-14.863-16.312-30.582-22.078-46.922-10.676-30.133-16.113-61.871-16.082-93.84-0.13281-31.684 5.2266-63.148 15.84-93 5.8281-16.277 13.223-31.953 22.082-46.801 4.8477-8.3047 10.176-16.316 15.961-24 6.2422-8.5586 13.184-16.59 20.758-24 7.6094 7.4102 14.594 15.438 20.879 24 5.7031 7.7148 10.992 15.723 15.84 24 8.7422 14.844 15.98 30.52 21.602 46.801 10.703 30.164 16.105 61.953 15.961 93.961 0.023437 31.996-5.3711 63.766-15.961 93.961-5.8711 16.297-13.266 32.004-22.078 46.918-4.8516 8.2773-10.137 16.289-15.844 24-6.1719 8.1758-12.996 15.84-20.398 22.922z"/>
  <path d="m1120.4 320.88c-5.9375-2.0977-11.988-3.8594-18.121-5.2773-11.27-2.5664-22.766-4.0156-34.32-4.3203-42.812-0.92578-84.668 12.742-118.68 38.758-6.3281 4.8516-12.305 10.145-17.879 15.84 11.438-22.539 18.195-47.164 19.867-72.387 1.668-25.219-1.7812-50.52-10.148-74.371-3.8047-10.895-8.75-21.352-14.762-31.199-3.1562-5.4375-6.6836-10.648-10.559-15.602-4.1211-5.6055-8.7422-10.824-13.801-15.602-5.1406 4.7656-9.8398 9.9883-14.039 15.602-3.875 4.9531-7.4023 10.164-10.559 15.602-6.0078 9.8477-10.957 20.305-14.762 31.199-7.1094 20.031-10.684 41.145-10.559 62.398-0.023438 21.258 3.5898 42.359 10.68 62.402 2.7109 7.5781 5.957 14.957 9.7188 22.078-5.5547-5.8008-11.578-11.137-18-15.961-34.012-26.016-75.867-39.684-118.68-38.758-11.555 0.30469-23.051 1.7539-34.32 4.3203-6.1328 1.418-12.184 3.1797-18.121 5.2773-6.5742 2.2383-12.953 5.0078-19.078 8.2812 3.0195 6.2773 6.5508 12.301 10.559 18 3.7148 5.1836 7.7227 10.152 12 14.879 7.5234 8.832 15.93 16.871 25.082 24 34.121 25.863 75.996 39.398 118.8 38.402 8.043-0.17578 16.062-0.9375 24-2.2812-7.1641 3.4922-14.062 7.5039-20.641 12-17.551 12.043-32.898 27.023-45.359 44.281l-2.6406 3.9609-90.121 89.398c-2.7617-6-5.7617-12-9.2383-18-3.1875-5.418-6.7148-10.629-10.562-15.602-4.1523-5.5781-8.7695-10.797-13.801-15.598-4.5664 4.4141-8.8164 9.1445-12.719 14.16-3.6172-7.5742-7.9141-14.805-12.84-21.602-9.0039-12.477-20.086-23.316-32.762-32.039-4.7695-3.2969-9.7812-6.2266-15-8.7617 5.7148 0.96484 11.488 1.5273 17.281 1.6797 30.973 0.76172 61.281-9.0586 85.922-27.84 6.5977-5.0977 12.703-10.805 18.238-17.039 2.9766-3.4297 5.7422-7.0352 8.2812-10.801 2.9141-3.9141 5.5234-8.043 7.8008-12.359-4.4219-2.4219-9.0391-4.4688-13.801-6.1211-12.219-4.1914-25.008-6.5-37.922-6.8398-15.344-0.40234-30.648 1.8281-45.238 6.6016-14.633 4.7695-28.348 11.992-40.562 21.359-4.6836 3.6328-9.0586 7.6445-13.078 12 2.6719-5.1992 4.9961-10.574 6.9609-16.078 5.1523-14.488 7.793-29.746 7.8008-45.121 0.085937-15.375-2.5156-30.645-7.6836-45.121-2.8125-7.8906-6.3906-15.484-10.68-22.68-2.2812-3.7188-4.6797-7.4414-7.5586-11.281-3.0859-3.9961-6.4531-7.7656-10.078-11.277-3.5898 3.5117-6.9219 7.2812-9.9609 11.277-2.7773 3.6094-5.3398 7.375-7.6797 11.281-4.2891 7.1953-7.8672 14.789-10.68 22.68-5.0742 14.5-7.6289 29.758-7.5625 45.121-0.085937 15.371 2.5117 30.641 7.6797 45.121 1.957 5.5273 4.3242 10.902 7.082 16.078-4.0195-4.3555-8.3945-8.3672-13.082-12-12.199-9.5312-25.91-16.953-40.559-21.961-14.637-4.7617-29.977-6.9922-45.359-6.5977-8.3242 0.1875-16.609 1.2305-24.719 3.1172-4.4336 0.97656-8.8008 2.2188-13.082 3.7227-4.1211 1.3281-8.1328 2.9727-12 4.918-2.0391-3-4.0781-6-6.4805-9.1211-4.1836-5.5508-8.7969-10.77-13.801-15.598-5 4.8281-9.6133 10.047-13.797 15.598-3.8203 4.9922-7.3477 10.203-10.562 15.602-5.7617 9.9375-10.508 20.43-14.16 31.32-7.1094 20.07-10.684 41.227-10.559 62.52-0.011719 21.258 3.5977 42.359 10.68 62.402 2.6914 7.5312 5.8984 14.867 9.6016 21.957-5.5781-5.7305-11.555-11.066-17.883-15.957-16.906-12.93-35.898-22.875-56.16-29.402-20.184-6.6953-41.379-9.8242-62.641-9.2383-11.512 0.3125-22.969 1.7617-34.199 4.3203-5.8789 1.4414-12 3-18.121 5.1602h0.003907c-6.5586 2.3281-12.934 5.1367-19.082 8.3984 3.0195 6.2773 6.5547 12.301 10.559 18 3.7461 5.1602 7.7539 10.125 12 14.879 7.5586 8.8008 15.957 16.84 25.082 24 16.883 12.938 35.887 22.844 56.16 29.281 20.207 6.5898 41.391 9.6758 62.641 9.1211 8.043-0.16016 16.066-0.92188 24-2.2812-7.0352 3.5898-13.844 7.5977-20.402 12-35.195 24.359-61.086 59.938-73.438 100.92-3.2148 11.055-5.3867 22.383-6.4805 33.844-0.36719 6.2734-0.36719 12.562 0 18.84 0.125 6.9609 0.80469 13.902 2.0391 20.758 6.9141-0.89453 13.738-2.3789 20.398-4.4414 5.9922-1.8477 11.879-4.0117 17.641-6.4766 10.609-4.5 20.738-10.047 30.242-16.562 34.711-24.723 60.043-60.457 71.879-101.4 2.2812-7.8711 4.0039-15.891 5.1602-24 1.1562 8.1094 2.8789 16.129 5.1602 24 6.0469 20.387 15.543 39.582 28.078 56.758 12.496 17.312 27.93 32.301 45.602 44.281 3.6016 2.5195 7.5586 4.8008 12 7.0781l-327.36 326.28c-1.3867 1.3359-2.168 3.1758-2.168 5.1016 0 1.9219 0.78125 3.7656 2.168 5.0977 1.3125 1.3828 3.1328 2.1602 5.0391 2.1602 1.9375-0.007813 3.793-0.78516 5.1602-2.1602l329.76-329.64c1.8008 0.83984 3.3594 1.8008 5.2812 2.6406l-0.003906-0.003907c5.7656 2.4688 11.652 4.6328 17.641 6.4805 6.6602 2.0625 13.484 3.5469 20.402 4.4414 1.2305-6.8555 1.9141-13.797 2.0391-20.762 0.36719-6.2734 0.36719-12.562 0-18.84-0.60156-5.6406-1.3203-11.039-2.3984-16.32l2.0391-2.0391c5.0391 2.1602 10.199 4.0781 15.359 5.7617 20.25 6.5781 41.473 9.6641 62.758 9.1172 8.0469-0.15625 16.07-0.91797 24-2.2773-7.0547 3.5469-13.871 7.5547-20.398 12-17.52 12.035-32.859 26.969-45.359 44.16-12.586 17.145-22.086 36.352-28.082 56.758-3.2695 11.039-5.4414 22.375-6.4805 33.84 0 5.3984-0.71875 10.801 0 16.441-5.0391 0-10.078-0.60156-15.121-0.60156h0.003906c-31.973-0.050782-63.715 5.3867-93.84 16.082-25.316 8.8867-49.082 21.684-70.441 37.918-8.5898 6.2109-16.617 13.156-24 20.762 7.4141 7.5352 15.441 14.438 24 20.641 21.359 16.234 45.125 29.031 70.441 37.918 60.789 21.285 127.01 21.285 187.8 0 25.312-8.8672 49.047-21.711 70.32-38.039 8.5859-6.2148 16.617-13.16 24-20.758-7.3516-7.6719-15.387-14.66-24-20.883-7.7109-5.7031-15.723-10.992-24-15.84-14.895-8.8789-30.605-16.312-46.918-22.199-9.4805-3.2383-18.84-5.8789-28.199-8.1602 6.8281-3.3164 13.406-7.125 19.68-11.398 17.516-12.047 32.82-27.027 45.238-44.281 12.516-17.234 22.008-36.469 28.082-56.879 2.2734-7.8711 3.9961-15.891 5.1602-24 1.1016 8.1172 2.8281 16.145 5.1602 24 12.129 41.09 37.961 76.789 73.199 101.16 9.5312 6.4648 19.656 12.008 30.238 16.559 5.7969 2.4844 11.727 4.6484 17.762 6.4805 6.6758 2.0039 13.496 3.4883 20.398 4.4414 1.2344-6.8555 1.9141-13.797 2.0391-20.762v-18.84c-2.7773-26.922-11.375-52.918-25.195-76.184-13.82-23.27-32.531-43.258-54.844-58.578-6.4531-4.4961-13.23-8.5078-20.281-12 7.9336 1.3633 15.957 2.125 24 2.2812 21.25 0.55469 42.434-2.5312 62.641-9.1211 5.1602-1.6797 10.32-3.6016 15.359-5.7617v0.003907c0.19531 4.0234 0.63672 8.0312 1.3203 12 4.2891-0.875 8.5-2.0781 12.602-3.6016 4.3672-1.2617 8.6523-2.7852 12.84-4.5586 7.6953-3.2734 15.051-7.293 21.961-12 25.367-17.73 43.977-43.535 52.801-73.199 1.6836-5.543 2.9688-11.195 3.8398-16.922 0.84375 5.7188 2.0859 11.375 3.7188 16.922 4.3555 14.742 11.215 28.625 20.281 41.039 8.9375 12.535 20.027 23.383 32.758 32.039 6.8555 4.7305 14.172 8.7539 21.84 12 4.1953 1.7539 8.4805 3.2773 12.84 4.5586 4.8125 1.5234 9.7539 2.6055 14.762 3.2422 0.80859-4.9648 1.2891-9.9727 1.4375-15 0.25-4.5156 0.25-9.043 0-13.559-0.75781-8.332-2.3281-16.574-4.6797-24.602-8.9766-29.852-27.906-55.727-53.637-73.32-4.707-3.2695-9.6406-6.1953-14.762-8.7617 5.6367 0.92188 11.332 1.4414 17.039 1.5625 30.949 0.73047 61.234-9.043 85.922-27.723 6.6016-4.957 12.711-10.543 18.238-16.68 3.0195-3.4219 5.8242-7.0312 8.4023-10.797 2.9492-4.0781 5.5195-8.4141 7.6797-12.961-4.4648-2.3867-9.1211-4.3945-13.922-6-8.6758-3.125-17.703-5.1797-26.879-6.1211v-3.7188c-3.0508-32.805-15.047-64.145-34.68-90.602-12.465-17.254-27.809-32.234-45.359-44.277-6.582-4.5-13.477-8.5078-20.641-12 7.9336 1.3398 15.953 2.1016 24 2.2773 42.801 1 84.68-12.535 118.8-38.398 9.1523-7.1289 17.555-15.172 25.078-24 4.2812-4.7305 8.2852-9.6953 12-14.879 4.0078-5.7031 7.5391-11.723 10.559-18-6.3633-3.2305-12.984-5.918-19.797-8.043zm-315.24 192h-0.003906c0.67188-7.4805 2.0781-14.875 4.1992-22.078 3.9727-13.508 10.266-26.219 18.602-37.562 8.1836-11.238 18.203-21.016 29.641-28.918 2.2812-1.5586 4.6797-3.1211 7.1992-4.5586 6.1445-1.3242 12.199-3.0469 18.121-5.1602 4.0781-1.4375 8.0859-3.0781 12-4.9219-0.88672 1.2656-1.3477 2.7773-1.3203 4.3203-0.019531 3.7188 2.5938 6.9375 6.2383 7.6797h2.7617v10.441c0 2.2812 0 4.5586-0.83984 6.7188 0 2.0391-0.71875 4.0781-1.1992 6.1211-0.57812 3.0039-1.3398 5.9688-2.2812 8.8789-7.9961 26.836-24.934 50.125-48 66-6.1875 4.2383-12.781 7.8555-19.68 10.801-3.9102 1.6484-7.918 3.0508-12 4.1992-4.2969 1.3906-8.7188 2.3555-13.199 2.8789-0.82812-4.4336-1.2695-8.9297-1.3203-13.438 0.125-4.0195 0.48828-8.0273 1.0781-12zm86.039 83.039-0.003907 0.003906c1.9453 5.4766 4.2695 10.809 6.9609 15.957-4.0508-4.3203-8.4258-8.332-13.078-12-12.203-9.3516-25.926-16.535-40.562-21.238-4.293-1.3984-8.6602-2.5625-13.078-3.4805 31.227-24.086 54.105-57.375 65.398-95.16 2.2734-7.8711 4-15.891 5.1602-24 0.96484 6.5156 2.3281 12.969 4.082 19.32-1.5586 2.2812-3 4.5586-4.4414 6.8398-4.25 7.1562-7.7852 14.711-10.559 22.559-5.168 14.48-7.7695 29.75-7.6797 45.121-0.011718 15.492 2.625 30.875 7.7969 45.48zm-439.68-173.04c3-1.0781 5.7617-1.8008 8.5195-2.5195 15.168-3.3984 30.973-2.6133 45.723 2.2812 9.5586 3.1133 18.527 7.8203 26.52 13.918 1.832 1.3477 3.5586 2.832 5.1602 4.4414 1.3164 1.0781 2.5234 2.2812 3.5977 3.6016 1.0898 0.90625 2.0938 1.9102 3 3 1.1836 1.2734 2.2656 2.6406 3.2422 4.0781-3.1133 0-5.6406 2.5273-5.6406 5.6406 0 3.1133 2.5273 5.6406 5.6406 5.6406 2.2422 0.03125 4.2812-1.2969 5.1602-3.3594 0.17578-0.66797 0.17578-1.375 0-2.043-0.050781-2.8906-2.2812-5.2734-5.1602-5.5195l-1.0781-1.5586h-0.003907c-2.5742-3.7695-5.3789-7.375-8.3984-10.801-0.83984-1.9219-1.5586-3.7188-2.1602-5.5195-6.6406-19.078-6.6406-39.84 0-58.922 2-5.3008 4.4922-10.402 7.4414-15.238 1.5586-2.3984 3.1211-4.8008 5.0391-7.3203 1.9531-2.6133 4.1211-5.0625 6.4805-7.3203 2.3633 2.2891 4.5664 4.7344 6.5977 7.3203 1.8008 2.5195 3.4805 4.9219 4.9219 7.3203 2.8047 4.6758 5.1367 9.6211 6.9609 14.762 6.8008 19.051 6.8008 39.867 0 58.918-0.6875 2.1016-1.5273 4.1484-2.5195 6.1211-2.8984 3.3047-5.5859 6.793-8.043 10.438-0.40234 0.53516-0.76172 1.0938-1.0781 1.6836-1.4336 0.03125-2.793 0.62891-3.7852 1.6641-0.98828 1.0352-1.5273 2.4219-1.4961 3.8555 0 2.2695 1.3633 4.3164 3.457 5.1953 2.0898 0.88281 4.5078 0.42188 6.1289-1.168s2.1328-3.9961 1.3008-6.1055c-0.83594-2.1094-2.8555-3.5156-5.125-3.5625l3.2383-4.0781 3.1211-3.2383v-0.003906c1.3516-1.4883 2.793-2.8906 4.3203-4.1992l4.4414-3.7188-0.003906-0.003906c16.062-12.281 35.832-18.715 56.043-18.238 5.3984 0.058594 10.781 0.62109 16.078 1.6797 2.8828 0.6875 5.7266 1.5312 8.5195 2.5195 3.0859 1.0664 6.0938 2.3516 9 3.8398-1.4336 2.9531-3.0781 5.8008-4.918 8.5195-1.8008 2.5195-3.6016 4.8008-5.5195 7.0781v0.003907c-3.6367 4.0898-7.6562 7.8281-12 11.16-16.102 12.402-35.961 18.922-56.281 18.48-2.0391 0.11719-4.082 0.11719-6.1211 0-4.1484-1.7969-8.3945-3.3594-12.719-4.6797-4.1133-1.3125-8.3281-2.2734-12.602-2.8828 2.4766 0.44531 4.9219 1.0469 7.3203 1.8008 2.8516 0.85547 5.6562 1.8555 8.4023 3l3.9609 1.9219h-0.003907c1.6172 0.60547 3.1484 1.4102 4.5625 2.3984l5.1602 3.2383c8.2891 5.6953 15.551 12.758 21.48 20.883 5.8984 8.1133 10.398 17.16 13.32 26.758 1.8008 5.1797 3.0898 10.527 3.8398 15.961 0.17969 2.957 0.17969 5.9219 0 8.8789 0.011719 3.2656-0.3125 6.5234-0.96094 9.7227-3.2422-0.46094-6.4531-1.1406-9.6016-2.043-2.8086-0.85156-5.5742-1.8555-8.2773-3-5.0273-2.125-9.8164-4.7812-14.281-7.918-8.2812-5.6641-15.508-12.73-21.359-20.879-5.9219-8.1055-10.426-17.152-13.32-26.762-0.625-1.9141-1.0664-3.8828-1.3203-5.8789 0.24609-4.5195 0.24609-9.043 0-13.562 0.11719-1.3945 0.11719-2.8008 0-4.1992 2.5625-0.42188 4.4141-2.6836 4.3203-5.2812 0.019531-1.3438-0.5-2.6367-1.4414-3.5977-0.50781-0.63672-1.168-1.1289-1.918-1.4414-0.58984-0.17578-1.2148-0.17578-1.8008 0-0.71094-0.17578-1.4531-0.17578-2.1602 0-0.82812 0.35156-1.5352 0.9375-2.0391 1.6797-0.80078 0.88672-1.2305 2.0469-1.2031 3.2422-0.085937 2.6992 1.8828 5.0312 4.5625 5.3984 0.59766 0.32031 1.3203 0.32031 1.918 0v7.6797c-0.082031 1.4531-0.28125 2.8984-0.59766 4.3203-0.15625 1.8594-0.43359 3.7031-0.83984 5.5195 0 2.0391-0.96094 4.0781-1.5586 6.1211h-0.003906c-2.9023 9.582-7.3633 18.625-13.199 26.762-3.0469 4.25-6.418 8.2617-10.078 12-14.902-0.25391-29.777 1.3594-44.281 4.7969v-1.5586c0.50781-5.4492 1.5508-10.836 3.1211-16.078 2.8281-9.6133 7.293-18.668 13.199-26.762 5.9258-8.125 13.191-15.184 21.48-20.879 1.6992-1.1758 3.4609-2.2578 5.2773-3.2422 4.3203-1.0781 8.6406-2.1602 13.078-3.7188h0.003906c3.1133-1.0977 6.1602-2.3789 9.1211-3.8398-1.4492 0.64453-2.9297 1.207-4.4414 1.6797-2.793 0.98828-5.6367 1.832-8.5195 2.5195l-4.3203 0.71875c-1.8125 0.44922-3.6602 0.73047-5.5195 0.83984-2.1172 0.12109-4.2422 0.12109-6.3594 0-20.188 0.4375-39.93-5.9453-56.043-18.117-4.2891-3.3945-8.3008-7.1289-12-11.16-1.8008-2.2812-3.7188-4.5586-5.3984-7.0781v-0.003906c-1.9219-2.6875-3.6094-5.5391-5.0391-8.5195 2.8359-1.3555 5.7656-2.5195 8.7578-3.4805zm181.56 309.12c-5.6211-5.7344-11.637-11.066-18-15.961-8.168-6.3242-16.883-11.906-26.043-16.68l25.68-25.801h0.003907c1.6953 12.266 4.6289 24.328 8.7578 36 2.6172 7.7188 5.8281 15.219 9.6016 22.441zm-64.199-190.68-3.4805-1.3203c-7.4062-1.6016-14.898-2.7656-22.441-3.4805 5.8359-11.773 9.8789-24.352 12-37.32 0.8125 5.668 1.9766 11.277 3.4805 16.801 2.5781 8.7852 6.0742 17.273 10.441 25.32zm-151.8-93.121c24.699 18.758 55.035 28.574 86.039 27.84 5.793-0.15234 11.566-0.71484 17.281-1.6797-5.2148 2.5352-10.23 5.4648-15 8.7617-23.961 16.445-41.973 40.18-51.363 67.68-14.867 6.1484-28.863 14.215-41.637 24-6.3672 4.8906-12.383 10.223-18 15.961 3.7383-7.0898 6.9844-14.43 9.7188-21.961 14.16-40.438 14.16-84.484 0-124.92-1.5586-4.1992-3.3594-8.3984-5.2812-12.719 5.5039 6.2695 11.613 11.977 18.242 17.039zm43.559 314.76c-4.4648-0.64063-8.875-1.6055-13.199-2.8828-4.1992-1.1992-7.9219-2.7617-12-4.1992-6.9258-2.9375-13.523-6.5977-19.68-10.918-11.449-7.7969-21.441-17.547-29.52-28.801-8.1797-11.211-14.352-23.758-18.242-37.082-0.82031-2.5586-1.5-5.1641-2.0391-7.7969 0.56641-6.2227 0.76953-12.477 0.60156-18.723v-5.6406 0.003906c3.4102-0.92578 5.7734-4.0273 5.7578-7.5625-0.035156-2.9414-1.6992-5.6211-4.3203-6.9609-0.83594-0.37891-1.7266-0.62109-2.6406-0.71875h-0.59766c-1.0391 0.042968-2.0586 0.28516-3 0.71875-3.1016 1.6992-4.6719 5.2734-3.8281 8.707 0.84375 3.4336 3.8906 5.8672 7.4258 5.9336h1.3203v10.559c0 3.4805 0 4.5586-0.83984 6.8398 0 2.1602-0.71875 4.1992-1.1992 6.2383-0.60156 3.1211-1.4414 5.8789-2.2812 8.7617v0.003906c-3.8867 13.32-10.059 25.867-18.238 37.078-8.0781 11.254-18.07 21.004-29.52 28.801-6.1562 4.3242-12.754 7.9844-19.68 10.918-3.7188 1.4414-7.4414 3-12 4.1992v0.003906c-4.3242 1.2734-8.7383 2.2383-13.199 2.8789-0.82812-4.4727-1.2695-9.0117-1.3203-13.559-0.23828-4-0.23828-8.0039 0-12 0.66016-7.4844 2.0664-14.879 4.1992-22.082 3.9609-13.316 10.168-25.855 18.359-37.078 8.1875-11.203 18.207-20.941 29.641-28.801 2.2812-1.5586 4.6797-3.1211 7.1992-4.5586l6.3594-3.4805 6-2.7617c3.9141-1.6328 7.9219-3.0352 12-4.1992l4.6797-1.3203c-4.0781 0.58984-8.0938 1.5547-12 2.8789-6.0312 1.793-11.961 3.9141-17.758 6.3594h-8.5195c-13.84 0.30078-27.633-1.7266-40.801-6-13.211-4.1953-25.594-10.652-36.602-19.078-5.9688-4.6172-11.473-9.8008-16.438-15.48-2.7383-3.0664-5.2656-6.3125-7.5625-9.7188-2.6602-3.7734-4.9492-7.793-6.8398-12 3.8398-2.1406 7.8555-3.9453 12-5.4023 3.9258-1.3711 7.9336-2.4922 12-3.3594 7.3164-1.7539 14.801-2.7188 22.32-2.8789 27.938-0.66016 55.254 8.2734 77.398 25.32 2.3984 1.8008 4.8008 3.8398 7.0781 5.8789 2.2812 2.0391 3 2.7617 4.4414 4.1992 1.4414 1.4414 3.2383 3.4805 4.9219 5.2812l4.5586 5.5195c-0.91016-0.17969-1.8477-0.17969-2.7578 0-2.707 1.2578-4.4375 3.9727-4.4414 6.9609 0.066406 4.2812 3.5195 7.7344 7.8008 7.8008 3.1094-0.011719 5.9258-1.8438 7.1992-4.6836 0.125-0.91406 0.125-1.8438 0-2.7578 0.019532-3.9766-3-7.3086-6.957-7.6797l-1.4414-2.1602c-3.7148-5.1836-7.7227-10.152-12-14.879-1.0781-2.5195-2.0391-4.9219-2.8789-7.4414-4.6641-13.098-7.0586-26.898-7.082-40.801-0.03125-13.859 2.3242-27.617 6.9609-40.68 2.5039-7.1055 5.7188-13.941 9.5977-20.398 2.1016-3.5195 4.3828-6.9258 6.8438-10.203 2.7266-3.5898 5.7344-6.9609 9-10.078 3.3281 3.0859 6.3828 6.457 9.1172 10.078 2.457 3.2773 4.7422 6.6836 6.8398 10.203 3.8789 6.457 7.0977 13.293 9.6016 20.398 4.6523 13.051 6.9688 26.824 6.8398 40.68 0.078126 13.902-2.2773 27.711-6.9609 40.801-0.96094 2.7617-2.1602 5.3984-3.3594 8.2812-0.83984 1.9219-1.8008 3.8398-2.8789 5.8789-1.0781 2.0391-2.0391 3.9609-3.2383 6l-3.3594 5.0391h-0.003907c-0.875-0.125-1.7656-0.125-2.6406 0-4.1172 0.25391-7.3281 3.6719-7.3203 7.8008-0.035156 1.6016 0.47266 3.1641 1.4414 4.4414 1.5547 1.5664 3.6992 2.3984 5.9062 2.293 2.2031-0.10156 4.2617-1.1367 5.6602-2.8438 1.3984-1.707 2.0117-3.9258 1.6836-6.1094-0.33203-2.1836-1.5703-4.125-3.4102-5.3398v-0.72266c3.7695-5 7.2539-10.207 10.441-15.598 2.0391-1.9219 4.1992-3.6016 6.3594-5.2812 10.816-8.4375 22.988-14.969 36-19.32 5.3867-1.7109 10.879-3.0742 16.438-4.0781 0 3.1211-0.96094 6.3594-1.3203 9.6016l0.003907-0.003906c-0.24609 4.5586-0.24609 9.125 0 13.68 0.035156 5.0352 0.51562 10.055 1.4375 15 5.0078-0.63281 9.9492-1.7188 14.762-3.2383 4.3633-1.3242 8.6484-2.8867 12.84-4.6797 7.668-3.2461 14.988-7.2656 21.84-12 5.2422-3.6367 10.215-7.6484 14.879-12 2.3789 0.99609 4.7031 2.1172 6.9609 3.3594-1.8906 4.2109-4.1797 8.2266-6.8398 12-2.2969 3.4062-4.8242 6.6562-7.5625 9.7188-4.9648 5.6797-10.469 10.863-16.438 15.48-10.824 8.3672-23 14.82-36 19.082-13.168 4.2695-26.961 6.2969-40.801 6h-8.1602c-5.9492-2.5469-12.039-4.75-18.238-6.6016-5.5352-1.8906-11.242-3.2188-17.043-3.9609 3.332 0.57422 6.6211 1.375 9.8398 2.4023 4.082 1.1641 8.0859 2.5664 12 4.1992l6 2.7617c2.1602 1.0781 4.1992 2.1602 6.1211 3.3594 2.5195 1.4414 4.8008 3 7.0781 4.5586h0.003906c11.43 7.8594 21.453 17.598 29.637 28.801 2.0391 2.7617 3.8398 5.6406 5.6406 8.5195h-0.60156 0.003906c-6.5781 2.2812-12.957 5.0898-19.082 8.3984 3.0234 6.2812 6.5547 12.301 10.562 18 3.7422 5.1602 7.7461 10.129 12 14.883 4.8008 5.2812 9.7188 10.078 14.641 14.641l-0.003907-0.003906c0.125 2.2383 0.125 4.4844 0 6.7227-0.12109 4.5938-0.64453 9.1719-1.5586 13.68zm1.5586-81.359h-1.4414 0.003906c-8.3867-8.5977-17.59-16.355-27.48-23.16-6.5234-4.4531-13.34-8.4648-20.398-12 7.9297 1.3516 15.953 2.1133 24 2.2773 21.246 0.55469 42.43-2.5273 62.637-9.1172 20.273-6.4375 39.277-16.344 56.16-29.281 9.125-7.1602 17.527-15.199 25.082-24 3.8398-4.5586 7.5586-9.1211 11.16-14.281 6.0664 6.4727 12.781 12.305 20.039 17.402 2.8555 1.9648 5.8203 3.7656 8.8789 5.3984-5.2461 17.234-7.9531 35.145-8.0391 53.16v7.3203l-37.922 37.922c-5.3984-2.2812-10.68-4.3203-16.199-6.1211-20.184-6.6875-41.383-9.8125-62.641-9.2422-11.371 0.12891-22.707 1.375-33.84 3.7227zm348 52.078c-2.332 3.3789-4.8594 6.625-7.5586 9.7188-4.9648 5.6445-10.473 10.789-16.441 15.363-10.973 8.5039-23.363 15.004-36.598 19.199-13.164 4.2812-26.965 6.2695-40.801 5.8789-2.7578 0.17969-5.5234 0.17969-8.2812 0-5.7539-2.4453-11.645-4.5703-17.637-6.3594-4.3867-1.4727-8.8789-2.5938-13.441-3.3594l6.2383 1.6797c4.0781 1.3203 7.8008 2.7617 12 4.1992l6 2.8789 6.2383 3.3594c2.5195 1.4414 4.8008 3 7.0781 4.5586l0.003906 0.003906c23.027 15.809 39.965 39.008 48 65.758 2.1211 7.2461 3.5312 14.684 4.1992 22.203v12c-0.050781 4.5469-0.49219 9.0859-1.3164 13.559-4.5039-0.65625-8.9531-1.6172-13.32-2.8789-4.0781-1.3203-7.8008-2.7617-12-4.1992v-0.003907c-6.9062-2.9805-13.496-6.6406-19.68-10.918-11.234-7.9492-21.02-17.773-28.922-29.039-8.168-11.238-14.375-23.773-18.359-37.082-0.71875-2.5195-1.3203-5.0391-1.9219-7.5586 0.058594-0.23828 0.058594-0.48438 0-0.71875 0.37109-6.2773 0.37109-12.566 0-18.844v-5.5195c3.4141-0.92188 5.7773-4.0234 5.7617-7.5586 0.027343-2.9961-1.7109-5.7227-4.4414-6.9609h3.7188l-3.9609-0.71875h0.003906c-0.83594-0.38281-1.7266-0.625-2.6406-0.71875-2.5195-0.03125-4.8789 1.2383-6.2383 3.3594-0.77734 1.2656-1.1914 2.7148-1.2031 4.1992-0.003906 3.7578 2.668 6.9844 6.3594 7.6797h2.7617c0.18359 3.5195 0.18359 7.043 0 10.559 0 2.1602 0 4.3203-0.83984 6.4805s-0.71875 4.5586-1.0781 6.7188c-0.71875 3-1.4414 5.8789-2.2812 8.7617-7.9609 26.82-24.91 50.086-48 65.879-6.1875 4.2812-12.777 7.9375-19.68 10.922-3.7188 1.4414-7.4414 2.8789-12 4.1992-4.3633 1.2891-8.8164 2.25-13.32 2.8789-0.76953-4.4805-1.2109-9.0117-1.3203-13.559-0.23828-3.9961-0.23828-8.0039 0-12 0.67188-7.5195 2.0781-14.953 4.1992-22.199 4.0391-13.086 10.289-25.383 18.48-36.359 8.1445-11.199 18.125-20.938 29.52-28.801 2.3984-1.6797 4.9219-3.1211 7.4414-4.5586 5.8789-1.4414 12-3 18.121-5.1602h-0.003906c4.0859-1.4297 8.0898-3.0742 12-4.9219l-5.8789 2.0391c-3.9375 1.3359-7.9414 2.457-12 3.3594l-6.1211 1.0781c-2.5195 0-4.9219 0.83984-7.4414 1.0781l0.003906 0.003906c-2.918 0.17969-5.8438 0.17969-8.7617 0-27.949 0.76953-55.316-8.0859-77.52-25.078-1.5586-1.1992-3.1211-2.6406-4.6797-3.9609l-10.32-10.078-0.48047-0.12109c-2.7344-3.0664-5.2617-6.3125-7.5586-9.7188-2.6719-3.7852-5-7.8008-6.9609-12 3.8516-2.1133 7.8672-3.918 12-5.4023 3.9219-1.3867 7.9297-2.5078 12-3.3594 7.3164-1.7539 14.801-2.7188 22.32-2.8789l22.32 1.5586c6.2578 1.0391 12.434 2.5234 18.48 4.4414 12.984 4.3516 25.152 10.84 36 19.199l6.7188 5.6406c1.5586 1.4414 3.1211 2.8789 4.6797 4.5586 1.6797 1.5586 3.1211 3.2383 4.8008 5.0391l4.5586 5.5195v0.003906c-0.94922 0.011719-1.8867 0.21484-2.7578 0.59766-2.7266 1.2383-4.4688 3.9648-4.4414 6.9609 0 4.3086 3.4922 7.8008 7.8008 7.8008 3.293 0.59766 6.5938-1.0039 8.1602-3.9609 0.125-0.91406 0.125-1.8438 0-2.7617-0.03125-3.9102-2.957-7.1953-6.8398-7.6797 0-0.83984-1.0781-1.5586-1.5586-2.2812v0.003906c-3.7148-5.1445-7.7227-10.074-12-14.762v-0.60156c-1.0781-2.3984-2.0391-4.9219-2.8789-7.3203l-0.003906 0.003906c-4.5742-13.078-6.9297-26.828-6.957-40.68-0.24609-13.582 1.8633-27.102 6.2383-39.961 2.4492-7.9922 5.875-15.648 10.199-22.801 4.5547-7.8984 10.078-15.191 16.441-21.719 3.4688 3.8086 6.7109 7.8164 9.7188 12 2.5898 3.6094 4.9531 7.3789 7.082 11.277 3.6016 6.375 6.5781 13.09 8.8789 20.043 4.5977 13.066 6.9102 26.828 6.8398 40.68-0.078125 13.852-2.5977 27.582-7.4414 40.559-1.0039 2.9414-2.1641 5.8242-3.4805 8.6406-0.83984 1.9219-1.8008 3.9609-2.7617 5.8789-0.96094 1.9219-2.0391 3.8398-3.2383 5.7617l-3.2383 5.1602c-0.85938-0.73438-1.8906-1.2305-3-1.4414-4.168 0.19141-7.4453 3.6289-7.4414 7.8008-0.035156 1.5977 0.47266 3.1641 1.4414 4.4375 1.582 1.3867 3.6602 2.0703 5.7539 1.9023 2.0977-0.16797 4.0391-1.1719 5.3828-2.793 1.3398-1.6172 1.9727-3.7109 1.7539-5.8008-0.22266-2.0938-1.2773-4.0039-2.9297-5.3086v-0.71875c3.7383-5.0195 7.2227-10.227 10.438-15.598 2.0391-1.9219 4.0781-3.6016 6.2383-5.2812h0.003906c10.855-8.3438 23.02-14.832 36-19.199 13.195-4.3203 27.035-6.3516 40.918-6 7.5234 0.16016 15.004 1.125 22.32 2.8789 4.0742 0.84766 8.082 1.9688 12 3.3594 4.1445 1.4609 8.1602 3.2656 12 5.3984-1.5117 4.3359-3.3594 8.5508-5.5195 12.602zm17.762-56.398c-21.258-0.57422-42.453 2.5508-62.641 9.2383-20.211 6.5547-39.16 16.496-56.039 29.402-6.207 4.9453-12.059 10.32-17.52 16.078 3.75-7.0664 6.957-14.41 9.5977-21.961 7.1289-20.074 10.781-41.215 10.801-62.52 0.0625-20.789-3.3867-41.438-10.199-61.078l61.922-61.922c-1.1992 3.4805-2.5195 6.8398-3.6016 10.441-3.2266 11.09-5.3945 22.461-6.4805 33.961v13.078l-5.6406 2.7617c1.7461 3.7188 3.793 7.293 6.1211 10.68 0.24609 4.3867 0.76563 8.7539 1.5586 13.078l7.1992-1.3203 1.0781 1.3203h0.003906c5.5039 6.3008 11.613 12.051 18.238 17.16 24.688 18.68 54.973 28.449 85.922 27.719 5.8359-0.097657 11.652-0.66016 17.398-1.6797-5.4414 2.3555-10.699 5.125-15.719 8.2812-7.8594 5.3906-15.102 11.629-21.602 18.602-6.7656-0.86719-13.578-1.3086-20.398-1.3203zm182.28-79.801c5.7617 2.4258 11.652 4.5508 17.641 6.3594l2.7617 0.71875h-0.003906c-1.4219 2.7461-3.0234 5.3906-4.8008 7.9219-1.6445 2.4727-3.4453 4.8398-5.3984 7.0781-3.6328 4.0977-7.6523 7.8359-12 11.16-16.145 12.199-35.934 18.582-56.16 18.121-1.918 0.17969-3.8438 0.17969-5.7617 0-4.1914-1.7539-8.4766-3.2773-12.84-4.5586-3.1797-1.0273-6.4258-1.8281-9.7188-2.4023l4.4414 1.1992c2.8555 0.83594 5.6602 1.8398 8.3984 3l3.9609 1.9219c1.5898 0.65625 3.1172 1.4609 4.5586 2.3984l5.6406 3.4805c8.2812 5.668 15.508 12.73 21.359 20.883 5.9453 8.0859 10.449 17.141 13.32 26.758 1.5273 5.207 2.5312 10.555 3 15.961 0.18359 2.957 0.18359 5.9219 0 8.8789-0.039063 3.3008-0.35938 6.5938-0.96094 9.8398-3.2578-0.42578-6.4727-1.1484-9.5977-2.1602-2.8555-0.83594-5.6602-1.8359-8.4023-3-4.9844-2.1602-9.7656-4.7695-14.277-7.8008-8.2852-5.707-15.512-12.812-21.363-21-5.9258-8.0781-10.395-17.137-13.199-26.758-0.60547-1.9258-1.0859-3.8906-1.4375-5.8789 0.30469-4.5547 0.30469-9.125 0-13.68 0.11328-1.3594 0.11328-2.7227 0-4.082 2.6016-0.46875 4.4805-2.7539 4.4375-5.3984 0.042969-1.2539-0.43359-2.4688-1.3203-3.3633-0.50391-0.74219-1.2109-1.3242-2.0391-1.6797-0.63281-0.12109-1.2852-0.12109-1.918 0-3.1172 0-5.6406 2.5273-5.6406 5.6406-0.042969 2.6445 1.8359 4.9297 4.4375 5.4023 0.30859 0.11719 0.65234 0.11719 0.96094 0 0.26562 0.12891 0.57422 0.12891 0.83984 0 0.18359 2.5938 0.18359 5.2031 0 7.7969v4.4414 0s0 3.2383-0.83984 4.6797c-0.43359 2.1914-0.99219 4.3555-1.6797 6.4805-2.8047 9.6211-7.2695 18.68-13.199 26.762-5.8477 8.1836-13.078 15.289-21.359 21 2.5195-3.1211 5.1602-6.3594 7.5586-9.9609 3.9648-5.7305 7.4922-11.746 10.559-18-6.1523-3.3359-12.574-6.1445-19.199-8.4023-5.9453-2.0352-11.992-3.7539-18.117-5.1602h-1.3203c1.4414-2.2812 2.7617-4.8008 4.3203-6.9609v0.003906c5.8516-8.1484 13.078-15.215 21.359-20.883 1.7383-1.2148 3.5391-2.3359 5.3984-3.3594 4.3906-0.97656 8.7188-2.2188 12.961-3.7188 2.9453-0.99609 5.8281-2.1562 8.6406-3.4805l-3.9609 1.4414c-2.7891 0.96484-5.6367 1.7656-8.5195 2.3984-1.418 0.35547-2.8633 0.59766-4.3203 0.71875-1.7695 0.45703-3.5781 0.73828-5.4023 0.83984-2.1172 0.11719-4.2383 0.11719-6.3594 0-20.227 0.46484-40.016-5.9219-56.16-18.117-4.3789-3.293-8.3984-7.0312-12-11.16-1.9922-2.2383-3.8359-4.6016-5.5195-7.082-1.9219-2.6445-3.6094-5.457-5.0391-8.3984 2.8594-1.7148 5.8711-3.1602 9-4.3203 2.793-0.98828 5.6367-1.832 8.5195-2.5195 5.3242-1.1953 10.746-1.8789 16.199-2.0391 10.023-0.24609 20.012 1.2578 29.52 4.4375 9.5781 2.9922 18.523 7.7109 26.402 13.922 1.8008 1.3359 3.5234 2.7812 5.1602 4.3203 1.3945 1.1562 2.6836 2.4414 3.8398 3.8398 0.98047 0.85937 1.9023 1.7812 2.7578 2.7578 1.1992 1.3203 2.2812 2.6406 3.3594 4.0781l0.003907 0.003906c-0.62891-0.17969-1.293-0.17969-1.9219 0-2 0.87109-3.2773 2.8594-3.2383 5.0391 0 3.1133 2.5234 5.6406 5.6367 5.6406 2.3281 0.066406 4.4219-1.3945 5.1602-3.6016 0.17969-0.66797 0.17969-1.3711 0-2.0391 0.011718-2.8711-2.1797-5.2695-5.0391-5.5195l-0.35938-0.83984c-2.7617-3.8398-5.5195-7.3203-8.3984-10.68-0.92578-1.8281-1.7266-3.7109-2.4023-5.6406-3.3008-9.4922-5.0039-19.469-5.0391-29.52-0.17578-10.078 1.4062-20.109 4.6797-29.641 1.7734-5.1602 4.1055-10.109 6.9609-14.762 1.4688-2.5859 3.1133-5.0703 4.918-7.4375 1.9648-2.6445 4.1758-5.0938 6.6016-7.3203 2.3594 2.2578 4.5234 4.7031 6.4805 7.3203 1.9219 2.5195 3.4805 4.9219 5.0391 7.4414v-0.003907c2.7695 4.6797 5.0586 9.625 6.8398 14.762 3.3672 9.4336 5.0742 19.383 5.0391 29.398 0.027344 10.059-1.6797 20.043-5.0391 29.523-0.71875 2.0391-1.6797 4.1992-2.6406 6.2383-0.67969 1.6562-1.4805 3.2617-2.3984 4.8008-0.50391 1.207-1.1055 2.3711-1.8008 3.4805l-2.2812 3.8398c-0.625-0.17969-1.293-0.17969-1.918 0-1.4336 0.03125-2.793 0.62891-3.7852 1.6641-0.98828 1.0352-1.5273 2.4219-1.4961 3.8555-0.03125 1.1367 0.35547 2.2461 1.082 3.1211 0.94141 1.5352 2.6367 2.4492 4.4375 2.3984 3.1172 0 5.6406-2.5273 5.6406-5.6406 0.03125-2.082-1.1367-3.9961-3-4.918 2.7266-3.6211 5.25-7.3867 7.5586-11.281 1.5195-1.4414 3.0781-2.7617 4.6797-3.9609h0.003907c7.8242-6.3633 16.727-11.281 26.277-14.52 9.5469-3.1914 19.578-4.6914 29.641-4.4414 4.0273 0.14062 8.0391 0.58203 12 1.3203zm-62.281-2.1602c4.0156-11.621 6.4375-23.73 7.1992-36 7.9062 7.8359 16.504 14.941 25.68 21.238l2.7617 1.6797c-10.742 4.5703-20.828 10.543-30 17.762-4.6562 3.668-9.0273 7.6758-13.082 12 2.9414-5.3438 5.4297-10.922 7.4414-16.68zm28.32-142.08v-0.003907c8.1914 11.18 14.398 23.684 18.359 36.961 2.1211 7.2031 3.5312 14.602 4.1992 22.082 0.23047 3.9961 0.23047 8.0039 0 12-0.050781 4.5078-0.49219 9.0039-1.3203 13.438-4.5898-0.38281-9.1328-1.2266-13.559-2.5195-4.082-1.1484-8.0898-2.5508-12-4.1992-6.8984-2.9453-13.492-6.5625-19.68-10.801l-1.3203-0.96094c-2.8867-12.98-7.8281-25.418-14.641-36.84-2.3242-3.9141-4.8906-7.6797-7.6797-11.277-2.9805-4.0469-6.3125-7.8242-9.9609-11.281-3.0977 2.875-5.9453 6.0078-8.5195 9.3594-2.2188-4.8633-4.1055-9.875-5.6406-15-0.80469-2.4844-1.4844-5.0078-2.0391-7.5586 0.058594-0.19531 0.058594-0.40625 0-0.60156 0.36719-6.2734 0.36719-12.562 0-18.84v-5.5195c3.4609-0.87891 5.8789-3.9922 5.8789-7.5586-0.035157-2.9453-1.6992-5.625-4.3203-6.9609 3.3008 0.47656 6.5547 1.2383 9.7227 2.2812 4.0859 1.1406 8.0938 2.543 12 4.1992l6.1211 2.8789c2.0391 1.0781 3.9609 2.0391 5.8789 3.2383 2.5195 1.4414 4.8008 3 7.0781 4.5586v0.003906c11.98 7.7383 22.5 17.531 31.082 28.918zm73.922-85.441c-2.3984 3.4805-4.9219 6.6016-7.5586 9.7188h-0.003906c-4.9375 5.6719-10.445 10.82-16.441 15.359-10.797 8.4102-22.98 14.867-36 19.082-13.148 4.3398-26.953 6.3672-40.797 6-2.7578 0.17578-5.5234 0.17578-8.2812 0-5.7969-2.4883-11.727-4.6523-17.762-6.4805-5.6953-1.7656-11.512-3.1289-17.398-4.082-0.87109-0.17969-1.7695-0.17969-2.6406 0-2.4492 0.007812-4.7383 1.2188-6.1211 3.2422l-6.1211 2.2812h0.003906c-3.9219 1.3828-7.9297 2.5078-12 3.3594l-6.6016 1.3203c-2.2617 0.4375-4.543 0.75781-6.8398 0.95703-2.918 0.17969-5.8438 0.17969-8.7578 0-13.848 0.37109-27.648-1.6602-40.801-6-13.23-4.1484-25.621-10.609-36.602-19.078-5.9961-4.5391-11.504-9.6875-16.441-15.359-2.6406-3.1211-5.1602-6.2383-7.5586-9.7188v-0.003906c-2.6055-3.8047-4.8945-7.8164-6.8398-12 3.8438-2.1328 7.8555-3.9375 12-5.3984 3.918-1.4297 7.9258-2.5898 12-3.4805 7.332-1.6562 14.809-2.582 22.32-2.7578 13.887-0.41016 27.734 1.6172 40.922 6 12.996 4.3164 25.168 10.809 36 19.199 2.3984 1.8008 4.8008 3.8398 7.0781 5.8789l4.6797 4.4414 4.6797 5.0391c1.6133 1.8008 3.1367 3.6836 4.5625 5.6406-0.87891-0.125-1.7656-0.125-2.6406 0-3.3398 1.543-5.1484 5.2109-4.3359 8.7969 0.80859 3.5898 4.0156 6.125 7.6953 6.082 3.1562 0.03125 6.0156-1.8711 7.1992-4.8008 0.125-0.91406 0.125-1.8438 0-2.7578-0.03125-3.9141-2.957-7.1992-6.8398-7.6797 0-0.83984-1.0781-1.5586-1.5586-2.2812-3.7461-5.1602-7.75-10.125-12-14.879-1.0781-2.5195-2.1602-5.0391-3-7.5586v-0.003906c-9.2031-26.379-9.2031-55.098 0-81.48 2.5039-7.0664 5.7188-13.859 9.5977-20.277 2.043-3.5547 4.3281-6.9609 6.8398-10.199 2.7344-3.6641 5.7852-7.0781 9.1211-10.203 3.2656 3.1562 6.2734 6.5664 9 10.203 2.5117 3.2383 4.7969 6.6445 6.8398 10.199 3.8789 6.418 7.0938 13.211 9.6016 20.277 9.3633 26.355 9.3633 55.129 0 81.48-0.92578 2.7812-2.0078 5.5039-3.2422 8.1602-0.83984 1.9219-1.8008 3.8398-2.7617 5.7617-1.0781 2.1602-2.2812 4.0781-3.4805 6.2383l-3.3594 5.0391h0.003906c-0.87891-0.12109-1.7656-0.12109-2.6406 0-4.1211 0.25391-7.3281 3.6758-7.3203 7.8008-0.035156 1.6016 0.47266 3.168 1.4375 4.4414 1.3945 2.0742 3.7461 3.293 6.2422 3.2383 4.3086 0 7.8008-3.4922 7.8008-7.7969 0.023437-2.8984-1.6055-5.5547-4.1992-6.8398v-0.84375c3.793-4.9805 7.2773-10.191 10.438-15.598 2.0391-1.9219 4.1992-3.6016 6.3594-5.2812 10.816-8.4062 22.992-14.902 36-19.199 13.141-4.3867 26.953-6.418 40.801-6 7.5117 0.17969 14.992 1.1016 22.32 2.7617 4.0703 0.91016 8.0742 2.0703 12 3.4766 4.1445 1.457 8.1602 3.2656 12 5.4023-2.0234 3.8945-4.3516 7.6289-6.9609 11.16z"/>
 </g>
</svg>
