<?xml version="1.0" encoding="UTF-8"?>
<svg width="1200pt" height="1200pt" version="1.1" viewBox="0 0 1200 1200" xmlns="http://www.w3.org/2000/svg">
 <path d="m1107.3 1014.6v-29.297l-1014.6 0.046875v29.297h1014.6zm-191.29-62.016h117.09v-407.72h-117.09zm-149.81 0h117.09v-649.69h-117.09v649.74zm-149.81 0h117.09v-767.21h-117.09v767.26zm-149.81 0h117.09v-542.48h-117.09zm-149.81 0h117.09l0.046875-620.81h-117.09v620.86zm-149.81 0h117.09v-407.72h-117.09zm973.03 16.359v62.016c0 9.0469-7.3125 16.359-16.359 16.359l-1047.2 0.046875c-9.0469 0-16.359-7.3125-16.359-16.359v-62.016c0-9.0469 7.3125-16.359 16.359-16.359h57.844v-424.08c0-9.0469 7.3125-16.359 16.359-16.359h133.45v-196.74c0-9.0469 7.3125-16.359 16.359-16.359h149.81c9.0469 0 16.359 7.3125 16.359 16.359v61.969h117.09v-208.4c0-9.0469 7.3125-16.359 16.359-16.359h149.81c9.0469 0 16.359 7.3125 16.359 16.359v101.16h133.45c9.0469 0 16.359 7.3125 16.359 16.359v225.66h133.45c9.0469 0 16.359 7.3125 16.359 16.359v424.08h57.844c9.0469 0 16.359 7.3125 16.359 16.359z" fill-rule="evenodd"/>
</svg>
