<?xml version="1.0" encoding="UTF-8"?>
<svg width="1200pt" height="1200pt" version="1.1" viewBox="0 0 1200 1200" xmlns="http://www.w3.org/2000/svg">
 <g>
  <path d="m180 290.62c-11.25 0-18.75-7.5-18.75-18.75v-168.75c0-52.5 41.25-93.75 93.75-93.75h172.5c11.25 0 18.75 7.5 18.75 18.75s-7.5 18.75-18.75 18.75h-172.5c-30 0-56.25 24.375-56.25 56.25v168.75c0 11.25-7.5 18.75-18.75 18.75z"/>
  <path d="m429.38 290.62c-11.25 0-18.75-7.5-18.75-18.75v-243.75c0-11.25 7.5-18.75 18.75-18.75s18.75 7.5 18.75 18.75v243.75c0 11.25-9.375 18.75-18.75 18.75z"/>
  <path d="m429.38 290.62h-249.38c-11.25 0-18.75-7.5-18.75-18.75s7.5-18.75 18.75-18.75h247.5c11.25 0 18.75 7.5 18.75 18.75s-7.5 18.75-16.875 18.75z"/>
  <path d="m723.75 290.62c-11.25 0-18.75-7.5-18.75-18.75v-225h-228.75c-11.25 0-18.75-7.5-18.75-18.75s7.5-18.75 18.75-18.75h247.5c11.25 0 18.75 7.5 18.75 18.75v243.75c0 11.25-7.5 18.75-18.75 18.75z"/>
  <path d="m476.25 290.62c-11.25 0-18.75-7.5-18.75-18.75v-243.75c0-11.25 7.5-18.75 18.75-18.75s18.75 7.5 18.75 18.75v243.75c0 11.25-9.375 18.75-18.75 18.75z"/>
  <path d="m723.75 290.62h-247.5c-11.25 0-18.75-7.5-18.75-18.75s7.5-18.75 18.75-18.75h247.5c11.25 0 18.75 7.5 18.75 18.75s-7.5 18.75-18.75 18.75z"/>
  <path d="m1020 292.5c-11.25 0-18.75-7.5-18.75-18.75v-168.75c0-30-24.375-56.25-56.25-56.25h-172.5c-11.25 0-18.75-7.5-18.75-18.75s7.5-18.75 18.75-18.75h172.5c52.5 0 93.75 41.25 93.75 93.75v168.75c0 9.375-9.375 18.75-18.75 18.75z"/>
  <path d="m770.62 292.5c-11.25 0-18.75-7.5-18.75-18.75v-243.75c0-11.25 7.5-18.75 18.75-18.75s18.75 7.5 18.75 18.75v243.75c0 9.375-7.5 18.75-18.75 18.75z"/>
  <path d="m1020 292.5h-249.38c-11.25 0-18.75-7.5-18.75-18.75s7.5-18.75 18.75-18.75h247.5c11.25 0 18.75 7.5 18.75 18.75s-7.5 18.75-16.875 18.75z"/>
  <path d="m429.38 590.62h-249.38c-11.25 0-18.75-7.5-18.75-18.75v-253.12c0-11.25 7.5-18.75 18.75-18.75s18.75 7.5 18.75 18.75v234.38h228.75c11.25 0 18.75 7.5 18.75 18.75s-7.5 18.75-16.875 18.75z"/>
  <path d="m429.38 590.62c-11.25 0-18.75-7.5-18.75-18.75v-253.12c0-11.25 7.5-18.75 18.75-18.75s18.75 7.5 18.75 18.75v253.12c0 11.25-9.375 18.75-18.75 18.75z"/>
  <path d="m429.38 337.5h-249.38c-11.25 0-18.75-7.5-18.75-18.75s7.5-18.75 18.75-18.75h247.5c11.25 0 18.75 7.5 18.75 18.75s-7.5 18.75-16.875 18.75z"/>
  <path d="m723.75 590.62h-247.5c-11.25 0-18.75-7.5-18.75-18.75s7.5-18.75 18.75-18.75h228.75v-234.38c0-11.25 7.5-18.75 18.75-18.75s18.75 7.5 18.75 18.75v253.12c0 11.25-7.5 18.75-18.75 18.75z"/>
  <path d="m476.25 590.62c-11.25 0-18.75-7.5-18.75-18.75v-253.12c0-11.25 7.5-18.75 18.75-18.75s18.75 7.5 18.75 18.75v253.12c0 11.25-9.375 18.75-18.75 18.75z"/>
  <path d="m723.75 337.5h-247.5c-11.25 0-18.75-7.5-18.75-18.75s7.5-18.75 18.75-18.75h247.5c11.25 0 18.75 7.5 18.75 18.75s-7.5 18.75-18.75 18.75z"/>
  <path d="m1020 592.5h-249.38c-11.25 0-18.75-7.5-18.75-18.75s7.5-18.75 18.75-18.75h228.75v-234.38c0-11.25 7.5-18.75 18.75-18.75s18.75 7.5 18.75 18.75v253.12c1.875 9.375-7.5 18.75-16.875 18.75z"/>
  <path d="m770.62 592.5c-11.25 0-18.75-7.5-18.75-18.75v-253.12c0-11.25 7.5-18.75 18.75-18.75s18.75 7.5 18.75 18.75v253.12c0 9.375-7.5 18.75-18.75 18.75z"/>
  <path d="m1020 339.38h-249.38c-11.25 0-18.75-7.5-18.75-18.75s7.5-18.75 18.75-18.75h247.5c11.25 0 18.75 7.5 18.75 18.75s-7.5 18.75-16.875 18.75z"/>
  <path d="m429.38 890.62h-172.5c-52.5 0-93.75-41.25-93.75-93.75v-178.12c0-11.25 7.5-18.75 18.75-18.75s18.75 7.5 18.75 18.75v178.12c0 30 24.375 56.25 56.25 56.25h172.5c11.25 0 18.75 7.5 18.75 18.75s-9.375 18.75-18.75 18.75z"/>
  <path d="m429.38 890.62c-11.25 0-18.75-7.5-18.75-18.75v-253.12c0-11.25 7.5-18.75 18.75-18.75s18.75 7.5 18.75 18.75v253.12c0 11.25-9.375 18.75-18.75 18.75z"/>
  <path d="m429.38 637.5h-249.38c-11.25 0-18.75-7.5-18.75-18.75s7.5-18.75 18.75-18.75h247.5c11.25 0 18.75 7.5 18.75 18.75s-7.5 18.75-16.875 18.75z"/>
  <path d="m723.75 890.62h-247.5c-11.25 0-18.75-7.5-18.75-18.75s7.5-18.75 18.75-18.75h228.75v-234.38c0-11.25 7.5-18.75 18.75-18.75s18.75 7.5 18.75 18.75v253.12c0 11.25-7.5 18.75-18.75 18.75z"/>
  <path d="m476.25 890.62c-11.25 0-18.75-7.5-18.75-18.75v-253.12c0-11.25 7.5-18.75 18.75-18.75s18.75 7.5 18.75 18.75v253.12c0 11.25-9.375 18.75-18.75 18.75z"/>
  <path d="m723.75 637.5h-247.5c-11.25 0-18.75-7.5-18.75-18.75s7.5-18.75 18.75-18.75h247.5c11.25 0 18.75 7.5 18.75 18.75s-7.5 18.75-18.75 18.75z"/>
  <path d="m723.75 1190.6h-247.5c-11.25 0-18.75-7.5-18.75-18.75s7.5-18.75 18.75-18.75h228.75v-234.38c0-11.25 7.5-18.75 18.75-18.75s18.75 7.5 18.75 18.75v253.12c0 11.25-7.5 18.75-18.75 18.75z"/>
  <path d="m476.25 1190.6c-11.25 0-18.75-7.5-18.75-18.75v-253.12c0-11.25 7.5-18.75 18.75-18.75s18.75 7.5 18.75 18.75v253.12c0 11.25-9.375 18.75-18.75 18.75z"/>
  <path d="m723.75 937.5h-247.5c-11.25 0-18.75-7.5-18.75-18.75s7.5-18.75 18.75-18.75h247.5c11.25 0 18.75 7.5 18.75 18.75s-7.5 18.75-18.75 18.75z"/>
  <path d="m945 892.5h-172.5c-11.25 0-18.75-7.5-18.75-18.75s7.5-18.75 18.75-18.75h172.5c30 0 56.25-24.375 56.25-56.25v-178.12c0-11.25 7.5-18.75 18.75-18.75s18.75 7.5 18.75 18.75v178.12c0 50.625-43.125 93.75-93.75 93.75z"/>
  <path d="m770.62 892.5c-11.25 0-18.75-7.5-18.75-18.75v-253.12c0-11.25 7.5-18.75 18.75-18.75s18.75 7.5 18.75 18.75v253.12c0 9.375-7.5 18.75-18.75 18.75z"/>
  <path d="m1020 639.38h-249.38c-11.25 0-18.75-7.5-18.75-18.75s7.5-18.75 18.75-18.75h247.5c11.25 0 18.75 7.5 18.75 18.75s-7.5 18.75-16.875 18.75z"/>
 </g>
</svg>
