<?xml version="1.0" encoding="UTF-8"?>
<svg width="1200pt" height="1200pt" version="1.1" viewBox="0 0 1200 1200" xmlns="http://www.w3.org/2000/svg">
 <path d="m1140 575.72v48.516c0 4.3125-4.4062 7.2188-8.3906 5.4844l-27.797-12.047c-1.5-0.65625-3.2344-0.65625-4.7812 0l-33.797 14.625c-1.5 0.65625-3.2344 0.65625-4.7812 0l-33.797-14.625c-1.5-0.65625-3.2344-0.65625-4.7812 0l-33.797 14.625c-1.5 0.65625-3.2344 0.65625-4.7812 0l-33.797-14.625c-1.5-0.65625-3.2344-0.65625-4.7812 0l-33.797 14.625c-1.5 0.65625-3.2344 0.65625-4.7812 0l-33.797-14.625c-1.5-0.65625-3.2344-0.65625-4.7812 0l-33.797 14.625c-1.5 0.65625-3.2344 0.65625-4.7812 0l-33.797-14.625c-1.5-0.65625-3.2344-0.65625-4.7812 0l-33.797 14.625c-1.5 0.65625-3.2344 0.65625-4.7812 0l-33.797-14.625c-1.5-0.65625-3.2344-0.65625-4.7812 0l-33.797 14.625c-1.5 0.65625-3.2344 0.65625-4.7812 0l-33.797-14.625c-1.5-0.65625-3.2344-0.65625-4.7812 0l-33.797 14.625c-1.5 0.65625-3.2344 0.65625-4.7812 0l-33.797-14.625c-1.5-0.65625-3.2344-0.65625-4.7812 0l-33.797 14.625c-1.5 0.65625-3.2344 0.65625-4.7812 0l-33.797-14.625c-1.5-0.65625-3.2344-0.65625-4.7812 0l-33.797 14.625c-1.5 0.65625-3.2344 0.65625-4.7812 0l-33.797-14.625c-1.5-0.65625-3.2344-0.65625-4.7812 0l-33.797 14.625c-1.5 0.65625-3.2344 0.65625-4.7812 0l-33.797-14.625c-1.5-0.65625-3.2344-0.65625-4.7812 0l-33.797 14.625c-1.5 0.65625-3.2344 0.65625-4.7812 0l-33.797-14.625c-1.5-0.65625-3.2344-0.65625-4.7812 0l-33.797 14.625c-1.5 0.65625-3.2344 0.65625-4.7812 0l-33.797-14.625c-1.5-0.65625-3.2344-0.65625-4.7812 0l-33.797 14.625c-1.5 0.65625-3.2344 0.65625-4.7812 0l-33.797-14.625c-1.5-0.65625-3.2344-0.65625-4.7812 0l-27.797 12.047c-3.9844 1.7344-8.3906-1.1719-8.3906-5.4844v-48.516c0-4.3125 4.4062-7.2188 8.3906-5.4844l27.797 12.047c1.5 0.65625 3.2344 0.65625 4.7812 0l33.797-14.625c1.5-0.65625 3.2344-0.65625 4.7812 0l33.797 14.625c1.5 0.65625 3.2344 0.65625 4.7812 0l33.797-14.625c1.5-0.65625 3.2344-0.65625 4.7812 0l33.797 14.625c1.5 0.65625 3.2344 0.65625 4.7812 0l33.797-14.625c1.5-0.65625 3.2344-0.65625 4.7812 0l33.797 14.625c1.5 0.65625 3.2344 0.65625 4.7812 0l33.797-14.625c1.5-0.65625 3.2344-0.65625 4.7812 0l33.797 14.625c1.5 0.65625 3.2344 0.65625 4.7812 0l33.797-14.625c1.5-0.65625 3.2344-0.65625 4.7812 0l33.797 14.625c1.5 0.65625 3.2344 0.65625 4.7812 0l33.797-14.625c1.5-0.65625 3.2344-0.65625 4.7812 0l33.797 14.625c1.5 0.65625 3.2344 0.65625 4.7812 0l33.797-14.625c1.5-0.65625 3.2344-0.65625 4.7812 0l33.797 14.625c1.5 0.65625 3.2344 0.65625 4.7812 0l33.797-14.625c1.5-0.65625 3.2344-0.65625 4.7812 0l33.797 14.625c1.5 0.65625 3.2344 0.65625 4.7812 0l33.797-14.625c1.5-0.65625 3.2344-0.65625 4.7812 0l33.797 14.625c1.5 0.65625 3.2344 0.65625 4.7812 0l33.797-14.625c1.5-0.65625 3.2344-0.65625 4.7812 0l33.797 14.625c1.5 0.65625 3.2344 0.65625 4.7812 0l33.797-14.625c1.5-0.65625 3.2344-0.65625 4.7812 0l33.797 14.625c1.5 0.65625 3.2344 0.65625 4.7812 0l33.797-14.625c1.5-0.65625 3.2344-0.65625 4.7812 0l33.797 14.625c1.5 0.65625 3.2344 0.65625 4.7812 0l33.797-14.625c1.5-0.65625 3.2344-0.65625 4.7812 0l33.797 14.625c1.5 0.65625 3.2344 0.65625 4.7812 0l27.797-12.047c3.9844-1.7344 8.3906 1.1719 8.3906 5.4844z"/>
</svg>
