<?xml version="1.0" encoding="UTF-8"?>
<svg width="1200pt" height="1200pt" version="1.1" viewBox="0 0 1200 1200" xmlns="http://www.w3.org/2000/svg">
 <defs>
  <clipPath id="a">
   <path d="m222.14 222.14h755.71v755.71h-755.71z"/>
  </clipPath>
 </defs>
 <g clip-path="url(#a)">
  <path d="m222.62 600v-377.86h37.742v717.98h717.03v37.742h-754.77zm216.52 264.75c-14.766-6.8164-14.34-28.215 0.69141-34.496 6.6172-2.7656 15.172-1.2812 20.414 3.5391 7.4414 6.8398 7.4414 20.902 0 27.742-5.4375 5-14.309 6.3516-21.105 3.2148zm86.797-41.512c-14.766-6.8164-14.34-28.215 0.69141-34.496 6.6172-2.7656 15.172-1.2812 20.414 3.5391 7.4414 6.8398 7.4414 20.902 0 27.742-5.4375 5-14.309 6.3516-21.105 3.2148zm215.11 0c-14.766-6.8164-14.34-28.215 0.69141-34.496 6.6172-2.7656 15.172-1.2812 20.414 3.5391 7.4414 6.8398 7.4414 20.902 0 27.742-5.4375 5-14.309 6.3516-21.105 3.2148zm-116.99-18.652c-14.461-7.625-14.617-27.02-0.27344-34.375 6.8594-3.5195 16.914-1.6953 22.098 4.0078 8.7031 9.5781 6.0273 24.223-5.5117 30.137-4.2969 2.2031-12.348 2.3164-16.312 0.22656zm-292.47-19.086c-14.766-6.8164-14.34-28.215 0.69141-34.496 6.6172-2.7656 15.172-1.2812 20.414 3.5391 7.4414 6.8398 7.4414 20.902 0 27.742-5.4375 5-14.309 6.3516-21.105 3.2148zm209.45-54.723c-14.766-6.8164-14.34-28.215 0.69141-34.496 6.6172-2.7656 15.172-1.2812 20.414 3.5391 7.4414 6.8398 7.4414 20.902 0 27.742-5.4375 5-14.309 6.3516-21.105 3.2148zm179.26-13.207c-14.766-6.8164-14.34-28.215 0.69141-34.496 6.6172-2.7656 15.172-1.2812 20.414 3.5391 7.4414 6.8398 7.4414 20.902 0 27.742-5.4375 5-14.309 6.3516-21.105 3.2148zm-381.16-35.852c-14.766-6.8164-14.34-28.215 0.69141-34.496 6.6172-2.7656 15.172-1.2812 20.414 3.5391 7.4414 6.8398 7.4414 20.902 0 27.742-5.4375 5-14.309 6.3516-21.105 3.2148zm284.93-16.98c-14.766-6.8164-14.34-28.215 0.69141-34.496 6.6172-2.7656 15.172-1.2812 20.414 3.5391 7.4414 6.8398 7.4414 20.902 0 27.742-5.4375 5-14.309 6.3516-21.105 3.2148zm-118.88-35.852c-14.766-6.8164-14.34-28.215 0.69141-34.496 6.6172-2.7656 15.172-1.2812 20.414 3.5391 7.4414 6.8398 7.4414 20.902 0 27.742-5.4375 5-14.309 6.3516-21.105 3.2148zm284.93 0c-14.766-6.8164-14.34-28.215 0.69141-34.496 6.6172-2.7656 15.172-1.2812 20.414 3.5391 7.4414 6.8398 7.4414 20.902 0 27.742-5.4375 5-14.309 6.3516-21.105 3.2148zm109.44-66.043c-14.766-6.8164-14.34-28.215 0.69141-34.496 6.6172-2.7656 15.172-1.2812 20.414 3.5391 7.4414 6.8398 7.4414 20.902 0 27.742-5.4375 5-14.309 6.3516-21.105 3.2148zm-158.5-3.7734c-14.766-6.8164-14.34-28.215 0.69141-34.496 6.6172-2.7656 15.172-1.2812 20.414 3.5391 7.4414 6.8398 7.4414 20.902 0 27.742-5.4375 5-14.309 6.3516-21.105 3.2148zm-383.05-15.094c-14.766-6.8164-14.34-28.215 0.69141-34.496 6.6172-2.7656 15.172-1.2812 20.414 3.5391 7.4414 6.8398 7.4414 20.902 0 27.742-5.4375 5-14.309 6.3516-21.105 3.2148zm160.39-1.8867c-14.766-6.8164-14.34-28.215 0.69141-34.496 6.6172-2.7656 15.172-1.2812 20.414 3.5391 7.4414 6.8398 7.4414 20.902 0 27.742-5.4375 5-14.309 6.3516-21.105 3.2148zm105.67-35.852c-14.766-6.8164-14.34-28.215 0.69141-34.496 6.6172-2.7656 15.172-1.2812 20.414 3.5391 7.4414 6.8398 7.4414 20.902 0 27.742-5.4375 5-14.309 6.3516-21.105 3.2148zm217-18.871c-14.766-6.8164-14.34-28.215 0.69141-34.496 6.6172-2.7656 15.172-1.2812 20.414 3.5391 7.4414 6.8398 7.4414 20.902 0 27.742-5.4375 5-14.309 6.3516-21.105 3.2148zm-347.2-56.609c-14.766-6.8164-14.34-28.215 0.69141-34.496 6.6172-2.7656 15.172-1.2812 20.414 3.5391 7.4414 6.8398 7.4414 20.902 0 27.742-5.4375 5-14.309 6.3516-21.105 3.2148zm130.2-12.051c-7.0078-3.6953-10.852-9.8242-10.852-17.312 0-10.656 8.2109-18.859 18.871-18.859 16.613 0 25.062 19.547 13.805 31.934-4.9883 5.4922-15.555 7.543-21.824 4.2383zm279.27-6.8203c-14.766-6.8164-14.34-28.215 0.69141-34.496 6.6172-2.7656 15.172-1.2812 20.414 3.5391 7.4414 6.8398 7.4414 20.902 0 27.742-5.4375 5-14.309 6.3516-21.105 3.2148zm-135.86-45.285c-14.766-6.8164-14.34-28.215 0.69141-34.496 6.6172-2.7656 15.172-1.2812 20.414 3.5391 7.4414 6.8398 7.4414 20.902 0 27.742-5.4375 5-14.309 6.3516-21.105 3.2148zm94.348-24.531c-14.766-6.8164-14.34-28.215 0.69141-34.496 6.6172-2.7656 15.172-1.2812 20.414 3.5391 7.4414 6.8398 7.4414 20.902 0 27.742-5.4375 5-14.309 6.3516-21.105 3.2148z"/>
 </g>
</svg>
