<?xml version="1.0" encoding="UTF-8"?>
<svg width="1200pt" height="1200pt" version="1.1" viewBox="0 0 1200 1200" xmlns="http://www.w3.org/2000/svg">
 <path d="m561.48 578.45 16.969-16.969 59.992 59.992-16.969 16.969z"/>
 <path d="m433.51 578.5 16.969-16.969 59.992 59.992-16.969 16.969z"/>
 <path d="m305.49 578.36 16.969-16.969 59.992 59.992-16.969 16.969z"/>
 <path d="m817.48 578.54 16.969-16.969 59.992 59.992-16.969 16.969z"/>
 <path d="m689.46 578.39 16.969-16.969 59.992 59.992-16.969 16.969z"/>
 <path d="m646.31 706.39 59.992-59.992 16.969 16.969-59.992 59.992z"/>
 <path d="m774.41 706.34 59.992-59.992 16.969 16.969-59.992 59.992z"/>
 <path d="m902.3 706.36 59.992-59.992 16.969 16.969-59.992 59.992z"/>
 <path d="m262.34 706.36 59.992-59.992 16.969 16.969-59.992 59.992z"/>
 <path d="m390.32 706.3 59.992-59.992 16.969 16.969-59.992 59.992z"/>
 <path d="m518.33 706.33 59.992-59.992 16.969 16.969-59.992 59.992z"/>
 <path d="m561.5 920.1 16.969-16.969 59.992 59.992-16.969 16.969z"/>
 <path d="m433.52 920.16 16.969-16.969 59.992 59.992-16.969 16.969z"/>
 <path d="m305.51 920.02 16.969-16.969 59.992 59.992-16.969 16.969z"/>
 <path d="m817.49 920.07 16.969-16.969 59.992 59.992-16.969 16.969z"/>
 <path d="m689.48 920.05 16.969-16.969 59.992 59.992-16.969 16.969z"/>
 <path d="m561.48 749.32 16.969-16.969 59.992 59.992-16.969 16.969z"/>
 <path d="m433.5 749.38 16.969-16.969 59.992 59.992-16.969 16.969z"/>
 <path d="m305.61 749.23 16.969-16.969 59.992 59.992-16.969 16.969z"/>
 <path d="m817.46 749.29 16.969-16.969 59.992 59.992-16.969 16.969z"/>
 <path d="m689.57 749.26 16.969-16.969 59.992 59.992-16.969 16.969z"/>
 <path d="m646.33 877.06 59.992-59.992 16.969 16.969-59.992 59.992z"/>
 <path d="m774.31 877.12 59.992-59.992 16.969 16.969-59.992 59.992z"/>
 <path d="m902.32 877.15 59.992-59.992 16.969 16.969-59.992 59.992z"/>
 <path d="m262.36 877.15 59.992-59.992 16.969 16.969-59.992 59.992z"/>
 <path d="m390.34 877.09 59.992-59.992 16.969 16.969-59.992 59.992z"/>
 <path d="m518.23 877.12 59.992-59.992 16.969 16.969-59.992 59.992z"/>
 <path d="m561.46 407.66 16.969-16.969 59.992 59.992-16.969 16.969z"/>
 <path d="m433.48 407.72 16.969-16.969 59.992 59.992-16.969 16.969z"/>
 <path d="m305.59 407.69 16.969-16.969 59.992 59.992-16.969 16.969z"/>
 <path d="m817.45 407.75 16.969-16.969 59.992 59.992-16.969 16.969z"/>
 <path d="m689.56 407.61 16.969-16.969 59.992 59.992-16.969 16.969z"/>
 <path d="m646.32 535.52 59.992-59.992 16.969 16.969-59.992 59.992z"/>
 <path d="m774.29 535.46 59.992-59.992 16.969 16.969-59.992 59.992z"/>
 <path d="m902.31 535.49 59.992-59.992 16.969 16.969-59.992 59.992z"/>
 <path d="m262.23 535.49 59.992-59.992 16.969 16.969-59.992 59.992z"/>
 <path d="m390.32 535.43 59.992-59.992 16.969 16.969-59.992 59.992z"/>
 <path d="m518.22 535.46 59.992-59.992 16.969 16.969-59.992 59.992z"/>
 <path d="m561.55 236.88 16.969-16.969 59.992 59.992-16.969 16.969z"/>
 <path d="m433.46 236.93 16.969-16.969 59.992 59.992-16.969 16.969z"/>
 <path d="m305.56 236.91 16.969-16.969 59.992 59.992-16.969 16.969z"/>
 <path d="m945.48 236.84 16.969-16.969 30.039 30.039-16.969 16.969z"/>
 <path d="m945.47 407.71 16.969-16.969 30.039 30.039-16.969 16.969z"/>
 <path d="m945.5 578.5 16.969-16.969 30.039 30.039-16.969 16.969z"/>
 <path d="m945.61 749.37 16.969-16.969 30.039 30.039-16.969 16.969z"/>
 <path d="m945.52 920.15 16.969-16.969 30.039 30.039-16.969 16.969z"/>
 <path d="m207.52 950.09 16.969-16.969 30.039 30.039-16.969 16.969z"/>
 <path d="m207.5 779.3 16.969-16.969 30.039 30.039-16.969 16.969z"/>
 <path d="m207.51 608.43 16.969-16.969 30.039 30.039-16.969 16.969z"/>
 <path d="m207.48 437.65 16.969-16.969 30.039 30.039-16.969 16.969z"/>
 <path d="m207.49 266.78 16.969-16.969 30.039 30.039-16.969 16.969z"/>
 <path d="m817.54 236.96 16.969-16.969 59.992 59.992-16.969 16.969z"/>
 <path d="m689.53 236.82 16.969-16.969 59.992 59.992-16.969 16.969z"/>
 <path d="m646.29 364.74 59.992-59.992 16.969 16.969-59.992 59.992z"/>
 <path d="m774.39 364.68 59.992-59.992 16.969 16.969-59.992 59.992z"/>
 <path d="m902.28 364.71 59.992-59.992 16.969 16.969-59.992 59.992z"/>
 <path d="m262.32 364.71 59.992-59.992 16.969 16.969-59.992 59.992z"/>
 <path d="m390.3 364.65 59.992-59.992 16.969 16.969-59.992 59.992z"/>
 <path d="m518.31 364.79 59.992-59.992 16.969 16.969-59.992 59.992z"/>
</svg>
