<?xml version="1.0" encoding="UTF-8"?>
<svg width="1200pt" height="1200pt" version="1.1" viewBox="0 0 1200 1200" xmlns="http://www.w3.org/2000/svg">
 <path d="m537.45 570.3c-0.12109-0.33594-0.3125-0.61328-0.44531-0.9375-0.30078-0.71875-0.63672-1.4141-1.0078-2.1133-0.33594-0.63672-0.69531-1.2461-1.0938-1.8359-0.40625-0.61328-0.85156-1.1875-1.3086-1.7539-0.45703-0.5625-0.9375-1.1055-1.4531-1.6328-0.50391-0.51562-1.0547-0.97266-1.6211-1.4414-0.57422-0.46875-1.1406-0.91016-1.7539-1.3086-0.58984-0.39453-1.1992-0.75781-1.8242-1.0938-0.69531-0.38281-1.4023-0.71875-2.1367-1.0312-0.32422-0.13281-0.58984-0.32422-0.92578-0.43359l-249.91-89.883c-9.2266-3.3125-19.129-0.17969-24.996 6.9961-0.39453 0.32422-0.85156 0.5625-1.2227 0.94922l-192.62 192.62c-6.168 6.168-8.2188 15.336-5.2695 23.555l89.902 249.9c0.16797 0.46875 0.45703 0.82812 0.64844 1.2852 0.38281 0.875 0.80469 1.7266 1.3086 2.5312 0.46875 0.80469 0.98438 1.5586 1.5469 2.2812 0.57422 0.75781 1.1875 1.4297 1.8594 2.1133 0.66016 0.66016 1.3438 1.2617 2.0742 1.8242 0.74219 0.57422 1.5 1.0938 2.3047 1.5703 0.81641 0.49219 1.6445 0.91016 2.5195 1.2969 0.45703 0.19141 0.83984 0.49219 1.2969 0.64844l249.91 89.914c2.4961 0.88672 5.0625 1.3203 7.6211 1.3203 5.8789 0 11.641-2.293 15.938-6.6133l192.62-192.61c0.35938-0.37109 0.60156-0.83984 0.94922-1.2461 7.1758-5.8555 10.309-15.758 6.9844-24.984zm-166.29 152.71-71.617-199.09 199.09 71.629 71.617 199.09zm-116.68-191.27 73.043 203.04-157.41 157.42-73.047-203.04zm150.55 465.35-203.06-73.031 157.4-157.4 203.06 73.043z"/>
 <path d="m1150.2 509.05-89.891-249.91c-0.17969-0.46875-0.46875-0.85156-0.67188-1.2969-0.38281-0.875-0.80469-1.7031-1.2852-2.5195-0.48047-0.80469-0.99609-1.5586-1.5586-2.3047-0.58984-0.74219-1.1875-1.4141-1.8477-2.0742-0.67188-0.67187-1.3438-1.2734-2.1133-1.8594-0.73047-0.5625-1.4766-1.0664-2.2695-1.5469-0.81641-0.49219-1.668-0.91016-2.543-1.2969-0.45703-0.19141-0.81641-0.49219-1.2852-0.66016l-249.9-89.891c-8.207-2.9414-17.387-0.89844-23.555 5.2695l-192.64 192.59c-0.35938 0.37109-0.60156 0.83984-0.94922 1.2344-7.1758 5.8672-10.309 15.77-6.9961 24.984l89.891 249.91c0.15625 0.42188 0.34766 0.78125 0.53906 1.1875 0.19141 0.45703 0.37109 0.88672 0.58984 1.3086 0.43359 0.875 0.9375 1.7031 1.4766 2.4961 0.20312 0.30078 0.37109 0.61328 0.58984 0.89844 0.79297 1.0781 1.6914 2.0625 2.6523 2.9648 0.16797 0.15625 0.37109 0.28906 0.55078 0.44531 0.82812 0.71875 1.7148 1.3789 2.6289 1.9805 0.35938 0.22656 0.74219 0.43359 1.1406 0.67188 0.86328 0.50391 1.7773 0.92578 2.7344 1.3086 0.23828 0.097657 0.44531 0.22656 0.69531 0.3125l249.93 89.902c2.5195 0.89844 5.0898 1.3438 7.6211 1.3438 6.793 0 13.246-3.1094 17.52-8.3984 0.33594-0.30078 0.74219-0.5625 1.0781-0.88672l192.62-192.61c6.1289-6.1641 8.1836-15.344 5.2422-23.555zm-448.8 95.414-71.629-199.09 199.11 71.617 71.617 199.09zm93.613-401.57 203.06 73.043-157.43 157.41-203.05-73.043zm150.54 465.36-73.043-203.06 157.4-157.39 73.043 203.05z"/>
</svg>
