<?xml version="1.0" encoding="UTF-8"?>
<svg width="1200pt" height="1200pt" version="1.1" viewBox="0 0 1200 1200" xmlns="http://www.w3.org/2000/svg">
 <path d="m416.02 290.63h-120.37l187.5-191.39v124.13c-0.09375 37.078-30.094 67.125-67.125 67.266zm-276.52 515.63v-257.11c0-34.547 27.984-62.531 62.484-62.531h557.9c16.547 0 32.438 6.6094 44.156 18.328 11.766 11.719 18.328 27.609 18.328 44.203v257.11c0 16.594-6.5625 32.484-18.328 44.203-11.719 11.719-27.609 18.281-44.156 18.281h-557.9c-34.5 0-62.484-27.984-62.484-62.484zm417.14-190.13c0 6.6094 2.625 12.984 7.3125 17.672s11.062 7.3125 17.672 7.3125h18.375v118.27c0 13.828 11.203 24.984 24.984 24.984 13.828 0 25.031-11.156 25.031-24.984v-118.27h18.141-0.046875c13.828 0 25.031-11.156 25.031-24.984s-11.203-24.984-25.031-24.984h-86.484c-13.828 0-24.984 11.156-24.984 24.984zm-296.11 0h-0.046875c0 6.6094 2.6719 12.984 7.3594 17.672s11.016 7.3125 17.672 7.3125h18.141v118.27h-0.046875c0 13.828 11.203 24.984 25.031 24.984 13.781 0 24.984-11.156 24.984-24.984v-118.27h18c13.312 0.046875 24.328-10.406 24.984-23.719 0.375 4.5 1.9219 8.8125 4.5 12.469l40.266 57.656-40.359 57.469c-4.4062 5.3906-6.375 12.328-5.4375 19.219s4.6875 13.078 10.359 17.062 12.75 5.4844 19.547 4.0312c6.7969-1.4062 12.703-5.625 16.266-11.531l30.234-42.75 30.234 42.75h0.046875c8.1094 10.781 23.297 13.172 34.312 5.3906 11.062-7.7812 13.922-22.875 6.5625-34.172l-40.5-57.469 40.5-57.234v-0.046875c7.9688-11.25 5.25-26.906-6-34.875-11.297-7.9688-26.906-5.25-34.875 6l-30.234 42.75-30.234-42.75h-0.046875c-6.1875-8.5781-17.203-12.328-27.375-9.3281s-17.344 12.094-17.859 22.734c-0.60938-13.359-11.625-23.906-25.031-23.906h-85.969c-6.7031 0-13.078 2.6719-17.766 7.4062-4.7344 4.7812-7.3125 11.203-7.2656 17.859zm612.52-66.984-0.046875 257.11c0 62.109-50.391 112.5-112.5 112.5h-477.52c8.7656 42 45.75 72.094 88.641 72.141h477.61c24.094 0 47.156-9.6094 64.125-26.672 17.016-17.016 26.484-40.172 26.391-64.219v-721.13c-0.046875-49.922-40.547-90.375-90.516-90.375h-315.84v134.86c-0.14063 64.781-52.641 117.19-117.38 117.28h-134.9v96h478.78c29.812 0 58.453 11.859 79.547 32.953s32.953 49.688 32.953 79.547zm117.38-337.5-0.046875 688.36c0.046875 37.406-14.766 73.312-41.297 99.797-26.484 26.438-62.391 41.203-99.844 41.062h-445.13c9.3281 41.297 45.938 70.641 88.266 70.641h477.61c49.969 0 90.469-40.453 90.516-90.375v-721.13c0.046875-42.469-29.344-79.266-70.734-88.641z"/>
</svg>
