<?xml version="1.0" encoding="UTF-8"?>
<svg width="1200pt" height="1200pt" version="1.1" viewBox="0 0 1200 1200" xmlns="http://www.w3.org/2000/svg">
 <g>
  <path d="m1062.6 567.24c0-1.3203-0.60156-2.6406-0.96094-3.9609l-1.0781-1.1992-1.0781-0.96094-3.6016-2.0391c-6.8398-2.3984-13.68-4.5586-20.281-7.5586-6.0391-3-11.75-6.6172-17.043-10.801-5.6914-4.7656-11.797-9.0234-18.238-12.719l-1.3203-0.60156-4.1992-1.3203h-7.8008c-2.6797-0.089844-5.3086-0.78516-7.6797-2.0391-0.80078 0.58984-1.5273 1.2734-2.1602 2.0391-3.9453 5.0234-6.3984 11.055-7.082 17.402-0.98047 11.766-7.1914 22.469-16.918 29.16-12.215 10.238-28.715 13.746-44.039 9.3594-6.2578-2.2656-12.922-3.207-19.562-2.7617-16.922 2.2812-33.719 4.1992-50.398 7.1992v0.003906c-19.656 5.2578-40.348 5.2578-60 0-6.9922-2.5352-14.41-3.6758-21.84-3.3633-23.297 1.4844-46.254 6.3359-68.16 14.402-4.6953 2.25-9.9375 3.1055-15.105 2.4688-5.168-0.64062-10.047-2.7461-14.055-6.0703-5.207-3.0273-7.3633-9.4414-5.0391-15 4.832-10.27 14.641-17.309 25.918-18.598 22.059-5.3594 43.289-13.676 63.121-24.723 8.1523-5.8555 15.426-12.844 21.602-20.758 10.613-9.1719 22.812-16.328 36-21.121 4.4102-1.6797 8.0625-4.9062 10.273-9.0781 2.207-4.1758 2.8203-9.0078 1.7266-13.602-0.98437-4.1484-2.4336-8.1758-4.3203-12-2.7578-5.7188-3.0352-12.32-0.76172-18.25 2.2695-5.9297 6.8867-10.656 12.762-13.07 3.3281-1.9805 7.3047-2.5625 11.059-1.6172 3.7578 0.94141 6.9844 3.3359 8.9805 6.6562 7.2695 10.871 15.59 21 24.84 30.242 4.7656 4.1172 7.0312 10.426 5.9727 16.633-1.0547 6.207-5.2773 11.414-11.133 13.727-7.2461 3.4062-14.191 7.4219-20.762 12-13.016 11.266-28.391 19.465-45 24-4.8203 1.3828-9.3398 3.6602-13.316 6.7188-4.5156 2.8359-6.6172 8.3125-5.1602 13.441 1.4102 5.043 5.9258 8.5859 11.16 8.7578 7.1758 0.67969 14.414-0.34766 21.117-3 22.633-9.6211 46.441-16.195 70.801-19.559 22.355-2.3633 44.375-7.2344 65.641-14.52 6.6289-1.8672 12.324-6.1484 15.961-12 4.6797-8.7617 0.83984-16.801-9.1211-17.039-5.3164-0.23828-10.609-0.83984-15.84-1.8008-4.0352-0.45703-7.5703-2.9258-9.3867-6.5586-1.8164-3.6328-1.6719-7.9375 0.38672-11.441 1.8906-4.2695 4.9883-7.8984 8.9102-10.434 3.9219-2.5352 8.5-3.875 13.168-3.8477 7.4766 0.1875 14.934 0.87109 22.32 2.0391 6.0469-0.30469 11.781-2.7578 16.18-6.9141 4.3984-4.1562 7.1719-9.7461 7.8203-15.766-0.30859-5.625-2.8516-10.895-7.0664-14.637-4.2148-3.7422-9.75-5.6406-15.371-5.2812-7.5352-0.003907-14.547-3.8516-18.602-10.199-3.2383-4.8008-4.1992-10.32-7.4414-14.879v-0.003906c-2.5781-5.0391-8.332-7.5898-13.797-6.1172-4.9414 1.0195-8.9336 4.6523-10.41 9.4805-1.4727 4.8242-0.19922 10.07 3.3281 13.68 9.4805 12.359 9.4805 22.559-2.5195 33.238-3.4805 3-6.4805 6.4805-9.7188 9.7188-3.582 4.8359-9.4492 7.4219-15.438 6.8047-5.9844-0.61328-11.199-4.3398-13.723-9.8047-6.3125-10.301-13.371-20.129-21.121-29.398-2.457-2.9258-3.8828-6.582-4.0547-10.398-0.17578-3.8164 0.91406-7.5859 3.0938-10.723 6.6523-8.7109 16.41-14.516 27.242-16.199 13.148-2.3789 25.16-8.9922 34.199-18.84 4.1758-5.6094 9.3398-10.406 15.238-14.16 13.801-8.1602 27.359-16.559 40.559-25.441 3.6016-3.3594 7.3203-6.7188 10.801-10.199 3.4805-3.4805 4.4414-4.5586 6.6016-6.9609l3.6016-4.0781c2.0625-2.7734 3.9062-5.7031 5.5195-8.7617v-1.4414 0.003906c0.51172-1.2148 0.95312-2.457 1.3203-3.7227v-2.1602-3.8398c0.058594-0.83594 0.058594-1.6797 0-2.5195v-2.0391c-0.10938-0.22656-0.10938-0.49219 0-0.71875v-0.71875l-0.12109-2.4023h-0.96094l-3.7188-1.0781h-3.8398c-2.5586-0.17969-5.125-0.17969-7.6797 0h-3.6016c-0.60156 0.83984-1.3203 1.4414-1.9219 2.2812l0.003906-0.003906c-4.9805 8.2383-12.23 14.863-20.883 19.082-3.793 1.5234-8.0508 1.3906-11.742-0.36328s-6.4844-4.9727-7.6953-8.8789c-1.5078-4.2773-1.7227-8.9023-0.61328-13.301 1.1133-4.3984 3.4961-8.3672 6.8516-11.418 4.6719-5.2344 9.9023-9.9453 15.602-14.039-0.29297-1.5078-0.29297-3.0547 0-4.5625 0.60547-2.0078 1.0859-4.0508 1.4375-6.1172-0.17188-1.0352-0.17188-2.0898 0-3.1211h-2.8789c-1.5586-0.12109-3.1211-0.12109-4.6797 0h-1.6797c-3.3203 0.57422-6.6055 1.3359-9.8398 2.2812-2.1602 0.60156-4.1992 1.4414-6.2383 2.1602-2.0547 2.207-4.3477 4.1797-6.8438 5.8789-6.2344 4.4883-11.094 10.629-14.02 17.734-2.9258 7.1055-3.8047 14.887-2.5391 22.465 1.9023 7.1172 1.7891 14.625-0.33203 21.684-2.1172 7.0547-6.1562 13.383-11.668 18.277-11.16 9-22.559 17.641-33.719 26.641-9.9492 6.9102-19.051 14.965-27.121 24-5.5898 7.8984-12.391 14.867-20.16 20.641-18.945 11.68-33.953 28.777-43.078 49.078-6.2188 14.527-16.41 27.004-29.402 36-28.559 19.199-57.84 37.078-86.762 55.801h0.003906c-9.0234 4.707-17.145 10.961-24 18.48-4.8984 7.9297-11.348 14.785-18.961 20.16-16.801 9.4805-39 12-53.879-3.8398-17.246-16.789-28.324-38.898-31.441-62.762-0.85938-13.816-7.6367-26.59-18.602-35.039-22.199-16.199-33.238-39.602-44.039-63.359-11.562-27.543-27.801-52.875-48-74.883-4.0781-4.1992-7.9219-8.3984-12-12.84-10.453-12.555-19.211-26.434-26.039-41.277-1.7109-5.2891-4.1758-10.301-7.3203-14.883-2.5586-2.875-5.8711-4.9727-9.5625-6.0547-3.6914-1.082-7.6133-1.1055-11.316-0.0625-3.7305 1.3672-6.9727 3.8047-9.3203 7.0039-2.3477 3.2031-3.6992 7.0273-3.8789 10.996 0.64844 17.797 5.8086 35.141 15 50.398 12 17.879 27 34.078 40.68 51 4.4414 5.5195 9 10.922 13.559 16.32 10.051 11.445 19.426 23.465 28.078 36 14.738 24.75 33.426 46.926 55.32 65.641 3.8828 2.9102 7.0781 6.6367 9.3633 10.918 2.0977 2.9219 3.2266 6.4258 3.2266 10.02 0 3.5977-1.1289 7.1016-3.2266 10.023-2.2422 2.5-5.2656 4.1719-8.5781 4.7383s-6.7188-0.003906-9.6641-1.6211c-2.5234-0.78906-4.9102-1.9648-7.0781-3.4805-14.855-11.406-27.676-25.238-37.922-40.918-9.1289-13.961-19.109-27.344-29.879-40.082-7.8359-9.2305-16.559-17.672-26.039-25.199-19.953-15.684-37.676-34.012-52.684-54.48-6.8594-10.902-17.359-19.023-29.637-22.918-19.574-5.9219-37.246-16.887-51.242-31.801-6.3594-6.1211-12-13.199-18-19.441-3.1914-3.3789-7.4883-5.5039-12.109-5.9883-4.625-0.48437-9.2695 0.70313-13.09 3.3516-5.0195 3.7734-7.707 9.8906-7.0977 16.141 0.61328 6.25 4.4414 11.73 10.098 14.457 25.441 14.281 49.68 30.238 73.68 46.801 17.562 11.16 31.719 26.938 40.922 45.602 2.9844 6.9141 7.7461 12.918 13.797 17.398 15.48 10.68 31.199 20.879 46.801 31.32 10.695 6.75 19.297 16.352 24.84 27.719 1.4297 3.0547 2.5938 6.2266 3.4805 9.4805 1.2617 5.418 3.4531 10.574 6.4805 15.238 9.5391 11.215 21.527 20.082 35.039 25.922 18.961 9.9219 38.758 18.156 59.16 24.602 10.246 3.0391 19.621 8.4688 27.359 15.84 4.9258 4.3672 7.2539 10.965 6.1562 17.457-1.1016 6.4922-5.4648 11.957-11.555 14.461-8.4883 4.6328-18.75 4.6328-27.238 0-4.4609-2.6758-9.6719-3.8281-14.844-3.2852-5.1719 0.53906-10.027 2.7461-13.84 6.2852-13.75 9.4805-29.609 15.453-46.199 17.402l-24 4.8008v-0.003906c-19.695 3.6406-38.797 9.9805-56.758 18.84-7.4141 4.3125-15.543 7.2383-24 8.6406-15.527 1.7148-30.566 6.4414-44.281 13.922-6.2148 3.6953-13.672 4.6914-20.641 2.7578-13.562-4.7461-28.629-1.9609-39.598 7.3203-6.8789 6.0781-16.391 8.207-25.203 5.6406-9.4492-3.0117-19.387-4.1914-29.277-3.4805-17.762 2.6406-35.398 5.7617-53.16 8.7617-13.078 3.3008-25.781 7.9258-37.922 13.801-1.2188 1.0547-2.3789 2.1797-3.4805 3.3594l-1.1992 1.4414 0.48047-0.003906c-1.0781 1.4414-2.0391 3-3 4.5586-0.96094 1.5586-1.5586 2.7617-2.2812 4.0781v1.2031c-0.98047 2.6641-1.7812 5.3906-2.3984 8.1602-0.12109 1.2773-0.12109 2.5625 0 3.8398 0.16406 0.74609 0.40234 1.4688 0.71875 2.1602-0.0625 0.27734-0.0625 0.56641 0 0.83984 9.7344 0.29687 19.43-1.293 28.562-4.6797 21.121-9.6289 44.254-14.035 67.438-12.84 13.941 1.2734 27.988-0.69922 41.039-5.7578 8.582-3.9414 18.527-3.5391 26.762 1.0781 4.9805 3.1328 10.852 4.5352 16.707 3.9922 5.8594-0.54297 11.371-3 15.691-6.9922 2.7617-2.1602 4.9219-5.0391 7.5586-7.3203h0.003906c4.8398-4.5781 11.023-7.4805 17.641-8.2773 15.141-0.18359 30.012-4.0547 43.32-11.281 10.34-6.1562 22.312-9 34.316-8.1602 10.598 2.4297 21.668 1.8047 31.922-1.8008 3.6016-2.1602 7.4414-4.1992 11.16-6.1211 12-5.6406 23.16-10.441 34.801-15.602 11.641-5.1602 21.719-15.121 35.16-17.762v0.003906c5.2305-1.375 10.777 0.46094 14.16 4.6797 3.7695 3.9609 4.6797 9.8477 2.2773 14.762-5.543 9.9922-14.68 17.5-25.559 21-15.719 8.1602-31.922 15.359-48 24-4.582 2.4375-8.1133 6.4688-9.9258 11.332-1.8125 4.8672-1.7852 10.227 0.085937 15.066 1.6055 3.957 4.4219 7.3047 8.0391 9.5664 3.6211 2.2617 7.8633 3.3242 12.121 3.0352 4.793 0.25391 9.5625-0.80859 13.793-3.0703 4.2305-2.2656 7.7578-5.6445 10.207-9.7695 9.2109-15.418 22.609-27.902 38.641-36 13.918-5.8164 24.43-17.652 28.559-32.16 2.5703-9.9062 8.457-18.629 16.68-24.719 11.816-8.6328 24.074-16.641 36.723-24 13.477-7.2812 29.203-9.2109 44.039-5.4023 9.1094 2.7422 18.043 6.0312 26.758 9.8398 10.746 5.1406 22.797 6.8984 34.562 5.0391 11.5-3.3164 23.43-4.8906 35.398-4.6797 18.961 1.8281 37.797 4.793 56.398 8.8828 14.812 4.3984 30.68 3.6367 45-2.1602 16.508-7.5898 35.16-9.1172 52.684-4.3203 13.723 4.2539 28.672 1.1719 39.598-8.1602 3.9141-4.0234 9.0742-6.6055 14.641-7.3203 9.3203 0.10547 18.473-2.5039 26.336-7.5117 7.8633-5.0078 14.098-12.195 17.945-20.688 2.5547-4.1328 6.7422-6.9922 11.523-7.8594 4.7812-0.87109 9.707 0.32812 13.555 3.2969 2.8672 1.8242 5.5234 3.957 7.9219 6.3633 6.3633 1.3359 12.621 3.1406 18.719 5.3984 3.918 1.4883 7.9258 2.7305 12 3.7188h6l3.2383-0.83984h1.6836l1.3203-1.4414 2.0391-3.7188s0.60156-1.5586 0.83984-2.2812v0.003907c0.48438-1.3672 0.84766-2.7734 1.0781-4.2031 0.03125-0.39844 0.03125-0.80078 0-1.1992v-4.9219z"/>
  <path d="m636.6 519c4.8125 2.1367 10.426 1.293 14.398-2.1602 4.4492-3.8672 8.2188-8.4492 11.16-13.559 8.1094-14.828 21.395-26.148 37.32-31.801 25.164-8.7617 46.695-25.648 61.199-48 22.312-31.492 46.73-61.441 73.082-89.641 16.32-17.879 33.48-34.922 50.52-52.078 6.4727-6.7305 11.137-14.984 13.559-24 0.83984-3.2578 0.68359-6.6914-0.45312-9.8594-1.1328-3.1641-3.1914-5.918-5.9062-7.9023-4.9258-3.5938-11.672-3.3438-16.32 0.60156-4.7891 2.6133-8.8984 6.3086-12 10.797-7.6016 11.645-16.633 22.285-26.879 31.68-15.02 12.918-28.875 27.133-41.402 42.48-22.32 26.879-40.559 56.879-60.961 85.32h0.003906c-6.7305 11.246-14.789 21.641-24 30.961-2.5547 2.6758-5.9375 4.4062-9.5977 4.9062-3.6641 0.5-7.3867-0.25391-10.562-2.1445-6.2383-5.0391-4.6797-11.281-1.9219-17.879v-0.003906c4.9062-9.0586 10.566-17.688 16.922-25.797 13.559-21 24-43.801 36-65.52v-0.003906c10.574-21.922 27.238-40.336 48-53.039 10.578-5.7539 19.984-13.449 27.719-22.68 10.734-12.996 22.152-25.41 34.199-37.199 4.5156-4.4766 8.5391-9.4258 12-14.762 2.2656-4.4688 5.2656-8.5273 8.8789-12 1.4414-4.6797 3.3594-9.3594 5.2812-14.039 0.60156-1.4414 1.0781-2.7617 1.5586-4.1992v-2.6406-2.8789c0-0.23828 0-3.7188-0.96094-5.5195l-3.1211-1.0781-13.68-4.4414h0.003906c-11.203 1.3398-21.312 7.3555-27.84 16.559-8.5469 11.512-15.379 24.207-20.281 37.68-6.5703 21.148-21.723 38.562-41.758 48-5.4414 3.0586-12.082 3.0586-17.523 0-4.1758-2.8555-7.1953-7.1094-8.5156-11.992-1.3164-4.8828-0.85156-10.078 1.3164-14.648 3.3633-6.6641 7.3828-12.977 12-18.84 13.441-19.441 22.559-41.281 36-60.719 5.7656-9.2227 6.75-20.652 2.6406-30.723-2.1602-6.9609-11.16-14.039-16.441-12.961v0.003906c-3.4102 0.64844-6.5664 2.2539-9.0977 4.6367-2.5312 2.3789-4.3281 5.4336-5.1797 8.8008-1.0781 3.6016-2.1602 7.0781-3.3594 10.559v0.003906c-1.4023 4.6758-4.8672 8.457-9.4023 10.258-4.5391 1.8008-9.6523 1.4258-13.879-1.0195-3.4805-1.6406-6.4062-4.2656-8.4102-7.5508-2.0039-3.2812-3.0039-7.082-2.8711-10.93-0.68359-1.8867-1.0508-3.8711-1.0781-5.8789-0.019532-4.4961 1.75-8.8125 4.918-12l0.12109-2.1602c0.035156-0.23828 0.035156-0.48047 0-0.71875 0.5-1.4023 0.86328-2.8477 1.0781-4.3203 0.30078-2.6719 0.30078-5.3711 0-8.0391-0.11719-3.0273-0.48047-6.0352-1.0781-9l-1.3203-1.9219-0.83984-1.4414-2.1602-1.1992h-3l-2.6406 0.71875-2.0391 0.36328-1.5586 1.5586c-2.3164 1.9961-4.5195 4.1211-6.6016 6.3594-1.9219 2.0391-3.7188 4.1992-5.3984 6.3594-1.3633 4.9219-3.0859 9.7344-5.1602 14.402-4 8.6133-7.2148 17.566-9.6016 26.758-2.0938 5.4492-1.2266 11.594 2.2852 16.254 3.5156 4.6602 9.1797 7.1797 14.996 6.668h10.559c4.2891-0.55078 8.625 0.58203 12.094 3.168 3.4648 2.582 5.793 6.4102 6.4961 10.676 0.69922 4.2695-0.28906 8.6406-2.75 12.195-6.75 10.391-11.738 21.824-14.758 33.84-4.1016 14.719-1.6992 30.488 6.5977 43.32 2.918 3.7305 4.6016 8.2773 4.8164 13.008 0.21484 4.7305-1.0508 9.4102-3.6172 13.391-5.5273 7.7539-10.348 15.988-14.398 24.602-11.281 30.238-25.922 59.039-38.52 88.68-11.047 30.246-24.699 59.477-40.801 87.359-2.9492 4.8164-4.2578 10.461-3.7188 16.082-0.65234 4.7266 1.5625 9.3945 5.6406 11.879z"/>
  <path d="m267.96 894.36c3.7266-0.875 7.2617-2.4219 10.438-4.5586 5.0742-7.5 10.906-14.457 17.402-20.762h0.83984l1.5586-2.6406c2.1094-2.7383 3.1719-6.1406 2.9961-9.5938-0.17578-3.457-1.5781-6.7344-3.957-9.2461-2.0625-3.3086-5.3242-5.6914-9.1016-6.6523-3.7773-0.96094-7.7852-0.42578-11.176 1.4922-10.801 5.0391-21.84 9.1211-33 13.32-4.375 1.418-8.2266 4.1016-11.066 7.7109-2.8438 3.6133-4.5469 7.9883-4.8945 12.57-0.20312 3.3672 0.71094 6.7109 2.5977 9.5078 1.8867 2.7969 4.6445 4.8984 7.8438 5.9727 5.8438 3.1758 12.426 4.75 19.078 4.5586 3.5156-0.3125 7.0039-0.87109 10.441-1.6797z"/>
  <path d="m910.44 1003.6c1.8047-3.3789 3.0625-7.0234 3.7188-10.797-2.0703-8.8164-3.1953-17.828-3.3594-26.883-0.054687-0.31641-0.054687-0.64062 0-0.95703 0-0.96094 0-1.9219-0.96094-2.8789v-0.003907c-0.57422-3.3906-2.3398-6.4609-4.9805-8.6641-2.6406-2.1992-5.9805-3.3828-9.418-3.3359-3.8281-0.75781-7.8008-0.007812-11.09 2.0938-3.2891 2.1016-5.6367 5.3945-6.5508 9.1875-3.6016 11.281-8.1602 22.199-12 33.238-1.9805 4.1406-2.6719 8.7773-1.9883 13.312 0.6875 4.5352 2.7148 8.7578 5.8281 12.129 2.3594 2.4102 5.4414 3.9844 8.7773 4.4844 3.3359 0.49609 6.7422-0.10938 9.7031-1.7227 6.2617-2.1016 11.852-5.8281 16.199-10.801 2.25-2.6445 4.293-5.4492 6.1211-8.4023z"/>
  <path d="m329.76 802.8c-6.6016 0-15.48 7.8008-19.441 12-2.3789 2.7656-3.8398 6.2031-4.1836 9.8359-0.34375 3.6289 0.44531 7.2812 2.2617 10.441 1.6836 3.3477 4.5117 5.9727 7.9727 7.4062 3.457 1.4336 7.3164 1.5703 10.867 0.39453 8.1875-2.9023 15.383-8.0625 20.762-14.879 3.0938-4.3047 3.4219-10.008 0.83984-14.641-1.7969-3.4336-4.5625-6.2656-7.9531-8.1445-3.3945-1.875-7.2617-2.7148-11.125-2.4141z"/>
  <path d="m389.4 711.84c-8.3984-3.6016-14.398 1.4414-20.641 4.8008h0.003907c-6.625 4.3242-13.66 7.9805-21 10.918-35.406 8.418-68.305 25.117-96 48.723-2.7734 2.3633-6.1992 3.8281-9.8242 4.1914-3.6211 0.36328-7.2734-0.38672-10.457-2.1523-6.2891-3.5938-11.859-8.3125-16.441-13.922-3.1055-3.4453-7.0977-5.9766-11.539-7.3086-4.4453-1.332-9.1719-1.418-13.66-0.25-11.109 2.75-22.516 4.1211-33.961 4.082-6.9609 0-13.801-1.5586-20.762-1.8008h0.003906c-1.3594-0.12109-2.7227-0.12109-4.082 0-6.7188 1.5586-14.641 3.1211-15.719 11.16-1.0781 8.0391 4.4414 12 12 15.121v-0.003906c16.043 5.625 33.168 7.4727 50.039 5.4023 13.559-1.3203 28.078-4.6797 38.762 8.5195 2.8828 4.1211 5.2188 8.5977 6.957 13.32 1.6445 4.0781 4.543 7.5234 8.2812 9.8398 4.7617 1.9844 10.121 1.9844 14.879 0 8.7422-3.9102 16.836-9.1289 24-15.48 13.559-9.1211 27.121-18.359 41.039-27.121h0.003906c7.6992-6.5625 15.973-12.426 24.719-17.52 4.25-2.6406 9.4805-3.1719 14.172-1.4336 4.6953 1.7344 8.3203 5.543 9.8281 10.312 1.4414 3.3594 2.2812 6.9609 3.7188 10.32 1.5 5.1445 5.7539 9.0195 11.016 10.031 5.2617 1.0117 10.645-1.0078 13.945-5.2305 3.6758-3.3164 6.0391-7.8438 6.6562-12.754 0.61719-4.9141-0.55469-9.8828-3.2969-14.004-2.293-3.4805-3.4258-7.5938-3.2305-11.758 0.19141-4.1602 1.7031-8.1562 4.3125-11.402 2.1211-3.082 3.6289-6.5469 4.4375-10.203 1.2109-2.9883 0.99219-6.3633-0.59766-9.1719-1.5898-2.8047-4.375-4.7305-7.5625-5.2266z"/>
  <path d="m336 202.32c-3.8477-0.058593-7.5781 1.3047-10.48 3.8281-2.8984 2.5273-4.7656 6.0352-5.2383 9.8516 0.21484 4.3828 2.1523 8.5039 5.3867 11.469s7.5078 4.5352 11.891 4.3711c3.4648 0.48828 6.9648-0.55469 9.5938-2.8594 2.6289-2.3086 4.1211-5.6445 4.0859-9.1406 0.089844-4.293-1.418-8.4609-4.2383-11.703-2.8164-3.2383-6.7383-5.3125-11-5.8164z"/>
  <path d="m960 898.32c-3.8477-0.058593-7.5781 1.3047-10.48 3.8281-2.8984 2.5273-4.7656 6.0352-5.2383 9.8516 0.21484 4.3828 2.1523 8.5039 5.3867 11.469s7.5078 4.5352 11.891 4.3711c3.4648 0.48828 6.9648-0.55469 9.5938-2.8594 2.6289-2.3086 4.1211-5.6445 4.0859-9.1406 0.089844-4.293-1.418-8.4609-4.2383-11.703-2.8164-3.2383-6.7383-5.3125-11-5.8164z"/>
  <path d="m265.08 278.4c11.562 7.043 21.93 15.871 30.723 26.16 4.4648 5.8594 9.9531 10.859 16.199 14.762 4.0938 3.7969 10.426 3.7969 14.52 0 4.168-3.5547 5.4062-9.4766 3-14.398-10.441-25.582-29.387-46.773-53.641-60-11.879-6.9609-23.879 1.0781-23.879 16.199 1.582 7.4141 6.3711 13.742 13.078 17.277z"/>
  <path d="m139.08 561.6c0.55859 6.3984 3.7383 12.281 8.7812 16.258 5.0469 3.9766 11.508 5.6914 17.859 4.7422 12 0 24-6.8398 24-19.199v-0.003906c-1.4336-6.9297-5.2617-13.133-10.812-17.52-5.5547-4.3867-12.473-6.6836-19.547-6.4805-10.078-2.2773-19.918 7.8008-20.281 22.203z"/>
  <path d="m241.2 583.56c3.0977-0.45312 5.9766-1.8477 8.2539-3.9922 2.2734-2.1484 3.8359-4.9414 4.4688-8.0078 1.5586-7.0781-3.8398-12-8.7617-14.879-3.7422-3.1914-8.7109-4.5547-13.559-3.7188h-4.8008c-3.375-0.13672-6.6914 0.91797-9.3672 2.9805-2.6797 2.0625-4.543 5-5.2734 8.2969-2.0234 6.3203 0.82031 13.172 6.7188 16.203 6.6992 4.0547 14.77 5.1836 22.32 3.1172z"/>
  <path d="m901.2 918c2.9961-0.41797 5.8008-1.7148 8.0625-3.7188 2.2656-2.0078 3.8828-4.6367 4.6602-7.5625 1.5586-7.0781-3.8398-12-8.7617-15-3.7656-3.1484-8.7148-4.5039-13.559-3.7188h-4.8008c-3.3711-0.11328-6.6758 0.95312-9.3477 3.0117-2.6719 2.0547-4.543 4.9805-5.293 8.2695-2.0234 6.3164 0.82031 13.168 6.7188 16.199 6.7656 3.9102 14.855 4.8203 22.32 2.5195z"/>
  <path d="m392.28 202.44c-0.14062 3.8047 0.30469 7.6094 1.3203 11.277 5.8008 6.957 10.832 14.52 15 22.562v0.96094l2.1602 2.2812v-0.003907c2.0195 2.7812 4.9648 4.75 8.3047 5.5664 3.3398 0.8125 6.8594 0.41406 9.9336-1.125 3.7656-1.0469 6.9844-3.4961 8.9922-6.8438 2.0117-3.3516 2.6562-7.3438 1.8086-11.156-1.8008-12-2.6406-24-3.4805-35.281-0.16016-4.5742-1.668-8.9961-4.3359-12.711-2.6719-3.7188-6.3828-6.5586-10.664-8.168-3.1719-1.0977-6.6172-1.1406-9.8164-0.125-3.1992 1.0156-5.9844 3.0391-7.9453 5.7656-4.5273 4.6328-7.8281 10.324-9.5977 16.559-0.76953 3.4414-1.3281 6.9297-1.6797 10.441z"/>
  <path d="m438.48 274.92c-2.543 1.6875-4.5195 4.0977-5.6758 6.9219-1.1523 2.8242-1.4336 5.9297-0.80469 8.918 1.8008 6.9609 8.5195 8.5195 14.52 9.4805v-0.003907c4.7656 1.1484 9.793 0.18359 13.801-2.6367l4.3203-2.1602c3.0625-1.3906 5.543-3.8047 7.0117-6.8281 1.4688-3.0273 1.832-6.4688 1.0273-9.7344-0.77734-6.7383-6.418-11.863-13.199-12-7.8047-0.30469-15.395 2.6016-21 8.043z"/>
  <path d="m134.28 656.04c12.512-2.8438 25.328-4.1328 38.16-3.8398 8.2695 0.19922 16.539-0.32422 24.719-1.5586 19.801-2.2812 39.719-3.7188 60-5.8789 20.02-1.7695 39.828-5.4258 59.16-10.922 32.039-10.078 62.52-24 94.68-33.719 2.7188-0.8125 5.4844-1.4531 8.2812-1.9219 9.0156-1.4961 18.219-1.4961 27.238 0 9.1445 3.0977 19.113 2.668 27.961-1.1992 4.5938-1.8086 7.7305-6.1094 8.0391-11.039-0.027343-5.2539-3.1953-9.9766-8.0391-12-4.8086-2.1758-9.8359-3.8281-15-4.9219-12.371-1.4062-24.117-6.1797-33.961-13.801-2.2188-1.7617-4.3047-3.6875-6.2383-5.7578-7.4414-7.4414-13.68-16.078-21.719-22.922h-0.003906c-7.3047-6.6641-13.719-14.246-19.078-22.559-6.9414-11.945-15.777-22.684-26.16-31.801-10.074-6.7812-20.715-12.684-31.801-17.641-7.5977-3.5352-13.039-10.496-14.641-18.719-2.6602-14.406-10.68-27.266-22.438-36-15.238-12-31.559-21.48-46.922-32.641-7.5273-6.6797-16.023-12.18-25.199-16.32-4.9805-1.8086-10.477-1.5625-15.273 0.69141-4.7969 2.25-8.5 6.3203-10.285 11.309-1.9766 4.3359-2.0039 9.3086-0.078125 13.664 1.9258 4.3555 5.6211 7.6797 10.156 9.1367 17.762 7.5586 35.398 15.359 52.559 24 17.16 8.6406 25.68 15.238 20.398 36h0.003906c-1.4805 4.168-1.1094 8.7734 1.0234 12.648 2.1328 3.875 5.8203 6.6523 10.137 7.6328 12 4.4414 24.719 9.2383 36.602 14.879h-0.003906c10.926 3.3711 20.996 9.0586 29.52 16.68 4.4961 3.9414 6.0352 10.277 3.8438 15.84-2.2344 5.3711-7.7969 8.5703-13.562 7.8008-4.7617-0.10547-9.4883-0.87109-14.039-2.2812-6.4805-1.9219-11.398-6.7188-17.641-9-19.441-7.3203-38.762-15.359-58.078-23.039-17.133-8.1758-35.66-13.023-54.602-14.281-10.801 0-16.32 4.3203-21 16.078v0.003906c-1.918 3.9688-2.4961 8.4531-1.6523 12.777 0.83984 4.3281 3.0625 8.2656 6.332 11.223 8.1445 6.4805 18.273 9.957 28.68 9.8398 14.832 0.48438 29.527 2.9883 43.68 7.4414 30.977 12.254 64.148 17.973 97.441 16.797h18.602-0.003906c6.9336-0.14062 13.824 1.082 20.281 3.6016 4.6562 1.582 8.6016 4.7695 11.129 8.9883 2.5273 4.2188 3.4727 9.1992 2.6719 14.051-1.6797 6-12 12-21.719 12-16.512 0.18359-32.945-2.207-48.723-7.0781-4.918-2.2188-10.531-2.3359-15.539-0.32031-5.0039 2.0156-8.9727 5.9883-10.98 11-2.7461 6.3711-7.4766 11.68-13.488 15.141-6.0117 3.4609-12.984 4.8828-19.871 4.0586-22.078-0.71875-44.16 0-66.238 0.60156-20.395 2.4219-41.043 1.6523-61.203-2.2812-9.1016-3.4062-19.277-2.3398-27.477 2.8789-4.4219 2.6367-7.6992 6.832-9.1875 11.762-1.4844 4.9297-1.0781 10.234 1.1445 14.879 1.8125 6.2344 5.7383 11.645 11.102 15.301s11.836 5.332 18.301 4.7383z"/>
  <path d="m530.76 714.6c-4.9219-3-12.719 0-19.078 6.1211l-0.003906-0.003906c-1.4766 1.5508-2.8047 3.2383-3.9609 5.043-7.1992 12-14.641 24-22.32 36-2.9609 5.3164-7.6914 9.4258-13.367 11.617-5.6797 2.1953-11.945 2.3281-17.711 0.38281-4.3477-1.7109-9.0156-2.4492-13.68-2.1602-4.2266-0.33984-8.4648 0.48828-12.25 2.3945-3.7891 1.9023-6.9805 4.8086-9.2305 8.4023v0.60156c-3.1211 4.1992-5.8789 8.8789-9 13.199-4.4414 6.2383-10.801 10.922-15.359 16.68-6.9609 8.7617-14.879 16.801-21.48 25.801-16.199 22.199-36 41.281-53.398 62.52-9.5898 11.133-18.602 22.746-27 34.801-1.1992 3.6016-2.2812 7.3203-3.1211 10.922-0.59375 2.1719-1.0742 4.375-1.4414 6.5977 0 1.0781 0 2.1602-0.60156 3.2383v0l0.003907 0.003907c-0.48047 4.3828-0.72266 8.7891-0.72266 13.199v6.1211 1.8008 2.3984 0.96094h6.4805 4.6797l8.6406-1.9219 9.7188-2.0391c11.465-12.551 21.414-26.406 29.641-41.281 8.4375-15.547 18.449-30.184 29.879-43.68 13.68-21.48 29.281-41.762 42.719-63.48l4.1992-6.8398c3.8398-6.6016 8.1602-13.078 12-19.441h0.003906c1.9844-3.1211 4.832-5.6016 8.1953-7.1367 3.3672-1.5312 7.1055-2.0547 10.766-1.5 5.2773 0.375 9.9062 3.6602 12 8.5195 1.207 5.9648-0.19141 12.164-3.8398 17.039-10.91 16.141-20.965 32.844-30.121 50.039-4.3203 7.9219-8.5195 15.719-12.961 24-5.2969 9.5352-11.273 18.68-17.879 27.359-7.25 7.207-13.07 15.715-17.16 25.082-0.87891 3.1211-0.84766 6.4258 0.089844 9.5273 0.93359 3.1055 2.7344 5.875 5.1914 7.9922 2.3203 2.043 5.2305 3.3047 8.3086 3.6055 3.0781 0.30078 6.1758-0.37109 8.8516-1.9258 4.0391-1.582 7.5078-4.3398 9.957-7.9219l2.3984-3.6016 0.003906 0.003906c14.715-20.906 27.91-42.844 39.48-65.641 6.1211-12 12-25.078 18-37.68 3.1211-6.3594 6.1211-12.719 9.1211-19.078l4.3203-9.3594c5.7617-12 11.039-24 17.762-36l-0.003906-0.003906c10.273-16.023 19.258-32.836 26.879-50.277 1.4961-3.4766 1.9492-7.3086 1.3125-11.035-0.64062-3.7266-2.3477-7.1875-4.9102-9.9648z"/>
  <path d="m378.12 999.24c-0.76953-3.0391-2.4023-5.7891-4.7031-7.918-2.3008-2.1328-5.168-3.5469-8.2578-4.082-3.4102-0.42188-6.8672 0.18359-9.9258 1.7461s-5.5781 4.0039-7.2344 7.0156c-0.83984 1.0781-1.3203 2.3984-2.0391 3.4805v0.71875c-5.6172 10.332-7.7227 22.207-6 33.84 0.09375 4.4453 1.9336 8.6758 5.125 11.773 3.1875 3.1016 7.4688 4.8203 11.914 4.7891 3.4375-0.32422 6.6641-1.8086 9.1484-4.207 2.4883-2.3984 4.0859-5.5703 4.5312-8.9961 1.3242-8.0977 3.1289-16.113 5.3984-24 2.2422-4.3594 2.9609-9.3438 2.043-14.16z"/>
  <path d="m788.4 1016.5v12c0.94922 2.0508 1.5547 4.2383 1.8008 6.4805v0.96094c0 1.3203 0.60156 2.7617 0.96094 4.0781 0.97266 2.1641 1.7383 4.4141 2.2812 6.7227 0.039063 0.35547 0.039063 0.71875 0 1.0781 0.44531 0.96094 0.96875 1.8828 1.5586 2.7617 0 1.1992 1.4414 2.3984 2.1602 3.6016 0.71875 1.1992 3.1211 3.6016 1.0781 1.6797-2.0391-1.9219 0.96094 1.0781 1.3203 1.4414l2.7617 3v-0.003907c1.8555 1.3594 3.582 2.8867 5.1602 4.5586h0.83984l2.5195 1.5586 3.3594 1.9219 2.2812 1.0781h0.83984v0.003906c1.2031 0.46875 2.4492 0.83203 3.7188 1.0781h1.1992c6.8398-3.3594 13.441-6.8398 20.039-10.441h0.003906c3.0078-5.8633 3.2734-12.762 0.71875-18.84-3.4141-5.7891-7.9414-10.848-13.32-14.879-6.7344-6.707-9.4258-16.469-7.0781-25.68 1.1992-7.3203 2.8789-14.52 4.3203-21.84 3.4844-21.883 9.1953-43.355 17.039-64.078 6.0078-15.555 9.2188-32.051 9.4805-48.723 1.0781-9.2383-8.0391-17.52-18.84-24-5.2031-3.3828-11.742-3.9688-17.461-1.5664s-9.8789 7.4844-11.102 13.566c-2.6484 9.0352-3.2227 18.555-1.6797 27.84 2.7305 18.953 2.6094 38.207-0.35938 57.121-4.0781 26.039-14.52 50.879-15.602 77.52z"/>
  <path d="m1021.1 836.64c0.054687-0.71875 0.054687-1.4414 0-2.1602 0.019531-0.28125 0.019531-0.5625 0-0.83984 0.050781-0.27734 0.050781-0.5625 0-0.83984v-1.1992-0.71875l-1.0781-1.6836h-0.96094l-2.3984-1.3203h-0.71875c-1.0781 0-2.1602-0.83984-3.1211-1.0781-2.6992-0.90625-5.4688-1.5898-8.2812-2.0391h-1.9219c-2.0391 0-1.4414 0 0 0h-2.8789c-6.2383-0.71875-12-0.96094-18.84-1.0781-6.8398-0.12109-15.602 0-24 0l-8.3984 3.3594v-0.003907c-9.1797 3.9844-19.484 4.5391-29.039 1.5625-7.2188-2.9531-13.938-7-19.922-12-15.586-10.992-29.949-23.625-42.84-37.68-4.2812-5.8125-10.043-10.371-16.68-13.203-17.613-4.4336-34.363-11.773-49.559-21.719-3.5547-3.293-8.4102-4.793-13.203-4.0781-3.4375 1.1133-6.3711 3.4062-8.2852 6.4727-1.9141 3.0664-2.6875 6.707-2.1797 10.285 0.50391 3.5781 2.2578 6.8672 4.9453 9.2812 9.1055 8.9648 19.551 16.453 30.961 22.199 9.1211 5.5195 18.359 10.801 27.48 16.199 19.406 10.785 37.113 24.371 52.559 40.32 6.0586 6.8398 14.875 10.586 24 10.199h30.84c17.16-0.60156 36 2.8789 52.922-5.1602 9.4766-4.5234 19.359-8.1367 29.52-10.797z"/>
  <path d="m634.44 706.08c-0.98047 13.656-0.45703 27.379 1.5586 40.922 1.6602 12.617 6.7695 24.535 14.762 34.441 11.844 11.254 21.629 24.492 28.918 39.117 1.8008 4.5586 4.5586 8.8789 6.7188 13.441 16.23 36.105 29.746 73.367 40.441 111.48 1.332 6.2266 3.8594 12.133 7.4414 17.398 2.6562 3.6914 6.3828 6.4766 10.676 7.9766 4.293 1.5039 8.9453 1.6523 13.324 0.42578 7.3203-1.5586 10.68-8.0391 12-15.602 3.1562-15.461 0.09375-31.539-8.5195-44.758-4.8281-6.6992-10.035-13.109-15.602-19.203-2.5898-3.0273-4.332-6.6875-5.0508-10.609-0.71484-3.918-0.38281-7.9609 0.96875-11.711 2.2852-3.293 5.6016-5.7305 9.4297-6.9258 3.8242-1.1953 7.9414-1.082 11.691 0.32812 4.7305 1.082 9.6836-0.35156 13.102-3.793 3.418-3.4414 4.8164-8.4062 3.6992-13.129-3.2461-11.445-5.0195-23.262-5.2812-35.16 0.11328-4.1836-1.2969-8.2656-3.9688-11.484-2.668-3.2227-6.418-5.3672-10.551-6.0352-7.5586-1.3203-12 4.4414-15.48 10.199-3.4805 5.7617-2.2812 12.84-9 15.719v0.003906c-5.3281 1.1445-10.883 0.60547-15.891-1.543-5.0117-2.1484-9.2266-5.8047-12.066-10.457-10.102-16.457-21.246-32.25-33.363-47.281-7.1641-8.1758-12.742-17.617-16.438-27.84-2.2812-8.0391 0-17.879 5.8789-20.039 3.2305-1.3828 6.8203-1.6875 10.234-0.86328 3.418 0.82031 6.4766 2.7227 8.7266 5.4219 3.6016 3.9609 6.7188 8.1602 9.9609 12 6.5781 12.223 14.637 23.59 24 33.84 4.9219 4.1992 9.9609 8.6406 17.641 5.1602h-0.003906c6.1523-2.6914 10.586-8.2344 11.855-14.828 1.2695-6.5938-0.78516-13.387-5.4922-18.172-11.109-10.168-23.164-19.25-36-27.121-17.422-10.352-31.66-25.297-41.16-43.199-4.2031-10.492-13.094-18.402-24-21.359-4.1016-1.3203-8.5859-0.57812-12.043 1.9961-3.4531 2.5742-5.4492 6.6562-5.3594 10.965 0.14062 6.6758 2.0898 13.188 5.6406 18.84 5.0156 9.6836 7.2969 20.555 6.6016 31.438z"/>
  <path d="m709.8 678.84c15.109 6.1875 29.379 14.254 42.48 24 10.965 8.8789 24.938 13.18 39 12 8.5781 0.37109 16.883 3.1133 24 7.9219 9 5.0391 16.68 13.559 28.68 13.078 5.6602 0.85547 11.141-2.4102 13.078-7.8008 2.2891-5.2656 1.043-11.402-3.1172-15.359-5.375-5.0977-11.809-8.9492-18.844-11.281-12-6-23.281-13.68-36-18.961-25.922-11.039-53.398-18.48-78.48-31.441l0.003906 0.003906c-4.1172-2.5586-9.0352-3.5-13.801-2.6406-4.8008 1.0781-9.9609 2.3984-12 8.0391-1.543 4.9062 0.019531 10.258 3.9609 13.562 2.9844 3.7305 6.7539 6.7617 11.039 8.8789z"/>
  <path d="m558 1015.2c-5.3164-0.39453-10.566 1.4102-14.512 4.9961-3.9492 3.582-6.25 8.6328-6.3672 13.965 0.24609 6.4102 3.0508 12.453 7.7852 16.785 4.7344 4.3281 11.008 6.582 17.414 6.2539 4.8281 0.28516 9.5312-1.5859 12.844-5.1094 3.3125-3.5195 4.8945-8.3281 4.3164-13.129 0.85547-6.125-1.043-12.312-5.1914-16.898-4.1445-4.5859-10.109-7.1016-16.289-6.8633z"/>
  <path d="m939.36 787.44 3.4805-0.60156c17.91-6.4258 36.918-9.2422 55.922-8.2812h16.32c16.68-2.8789 31.68-12 48-14.52h-0.003906c7.332-0.99219 14.59-2.4766 21.723-4.4375 3.2812-0.83594 6.2109-2.6914 8.3711-5.3008 2.1562-2.6133 3.4258-5.8398 3.6289-9.2227 0.21094-3.3516-0.6875-6.6836-2.5508-9.4766-1.8633-2.7969-4.5938-4.9062-7.7695-6-5.5859-2.4961-11.645-3.7656-17.762-3.7227-10.109 0.42188-20.145-1.8984-29.039-6.7188l-11.16-5.2812c-6.8398-1.9219-13.559-3.9609-20.398-5.6406-4.6797-1.3203-9.3594-2.1602-14.039-3.1211h-10.801v0.003906c-2.3711 1.8867-4.1914 4.3711-5.2812 7.1992-2.0273 5.2461 0.125 11.184 5.0391 13.918 5.3125 3.5586 11.609 5.3633 18 5.1602 7.4492-0.84375 14.988-0.23438 22.199 1.8008 5.3984 2.1602 10.559 5.8789 10.559 12 0 6.1211-5.2812 9.4805-10.559 12-8.3945 2.6445-17.402 2.6445-25.797 0-12-1.8008-23.16-5.8789-34.922-7.0781-18.996-1.3398-37.832-4.3945-56.281-9.1211-3.5469-0.71875-7.2266-0.375-10.578 0.99219-3.3516 1.3672-6.2266 3.6914-8.2617 6.6875-3.6406 4.2969-4.3047 10.379-1.6797 15.359 4.5039 8.043 11.07 14.742 19.02 19.402 7.9531 4.6641 17.004 7.1211 26.223 7.1172 2.6406-2.3984 5.0391-2.6367 8.3984-3.1172z"/>
  <path d="m606.96 1045c0 24-1.8008 40.559 7.6797 55.199 5.1602 8.1602 12 15.961 21.84 15.121 8.1836-1.082 15.238-6.2969 18.676-13.805 3.4375-7.5078 2.7734-16.254-1.7578-23.156-5.3867-8.457-9.6602-17.57-12.719-27.121-3.3398-13.879-5.8672-27.945-7.5586-42.121-3.1719-12.109-4.8633-24.559-5.043-37.078 0.71875-9.1211 7.3203-19.199 15.121-19.801 7.8008-0.60156 14.52 3.2383 16.922 15.84 2.3984 12.602 3.2383 23.16 5.0391 34.559 1.8008 11.398 4.5586 21.719 5.2812 33v0.003906c-0.26172 7.4258 1.1719 14.812 4.1992 21.598 3 5.5195 6.1211 9.8398 13.078 9.9609 6.9609 0.12109 9-4.5586 12-9.1211 1.7812-2.9453 2.8125-6.2812 3-9.7188-0.48047-6.3594 2.3672-12.512 7.5312-16.258 5.1602-3.7422 11.898-4.5391 17.789-2.1016 2.7617 0 5.5195 1.6797 8.3984 2.2812l0.003906-0.003907c6.6094 2.5078 14.055 1.3203 19.559-3.1172 3.1172-3.9375 4.9219-8.7539 5.1602-13.77 0.23438-5.0156-1.1094-9.9805-3.8398-14.191-3.2656-3.6992-7.8281-6-12.742-6.4258-4.918-0.42188-9.8086 1.0625-13.656 4.1445-2.8789 2.2812-5.7617 4.8008-8.6406 6.9609-4.2578 4.0117-10.32 5.457-15.93 3.8047-5.6094-1.6562-9.9141-6.168-11.312-11.844-1.6211-4.7891-2.3516-9.832-2.1602-14.879 0.72656-11.48-1.5898-22.949-6.7188-33.242-2.0391-4.9219-4.1992-9.7188-6.1211-14.52-12.84-30.602-17.039-63.719-27.602-94.922-4.0781-12-2.7617-31.801-18-37.199-15.238-5.3984-17.398 16.199-14.637 24.961 5.6719 20.605 9.6836 41.633 12 62.879 2.5938 16.438-1.75 33.215-12 46.32-9.7617 12.648-15.039 28.184-15 44.16-0.60156 24.242 2.6406 47.762 2.1602 63.602z"/>
  <path d="m564 950.28c-6.5469 0.66406-12.562 3.9141-16.707 9.0273-4.1445 5.1133-6.0781 11.668-5.3711 18.211-0.27734 5.3438 1.7148 10.551 5.4844 14.348 3.7734 3.793 8.9688 5.8164 14.312 5.5742 6.0898-0.75391 11.66-3.8086 15.566-8.543 3.9023-4.7305 5.8477-10.777 5.4336-16.898 0.46484-5.3789-1.2617-10.715-4.7852-14.801-3.5234-4.0898-8.5469-6.582-13.934-6.918z"/>
  <path d="m480.72 1007c1.7109 9.1719-0.55859 18.641-6.2383 26.039-2.6914 4.25-4.8633 8.8008-6.4805 13.562-1.6953 4.8945-0.83203 10.312 2.3047 14.438 3.1328 4.125 8.125 6.4062 13.297 6.082 4.9922 0.17188 9.8828-1.4531 13.777-4.582 3.8984-3.125 6.5469-7.5469 7.4609-12.457 3.2344-16.938 5-34.121 5.2812-51.359-0.90234-14.168 0.47656-28.391 4.0781-42.121 5.3984-24 8.3984-49.559 12-74.52 0.43359-11.121 3.1719-22.031 8.0391-32.043 6.1211-10.441 18.48-13.078 24-4.9219v0.003906c4.4648 5.1797 6.1641 12.191 4.5625 18.84-4.3203 15.238-7.5586 30.719-10.801 46.199-1.5195 6.6641 0.54688 13.633 5.4492 18.391 4.9062 4.7578 11.938 6.6133 18.551 4.8906 5.0781-1.5625 9.4961-4.7656 12.559-9.1094s4.5977-9.582 4.3633-14.891c0.60156-15.121-2.2812-30.121-1.9219-45.359 0.35938-15.242-3-28.32-3-42.48 0.89453-9.4922 3.3242-18.773 7.1992-27.48 7.1992-18 3.6016-36.719 2.7617-55.199 0-8.7617-2.7617-17.398-2.5195-26.16 0.41406-12.051 1.4961-24.07 3.2383-36 0.98828-3.3047 1.3945-6.7578 1.1992-10.199-1.1992-6.1211-2.5195-12-9.4805-15.359v-0.003907c-5.2188-1.6719-10.934-0.066406-14.52 4.082-3.8906 3.1133-6.8047 7.2773-8.3984 12-2.9648 9.6523-4.582 19.664-4.8008 29.758 1.1172 24.105-0.49609 48.258-4.8008 72-2.3164 10.602-5.8203 20.906-10.438 30.723-2.2812 4.6797-5.2812 8.8789-7.6797 13.441v-0.003907c-2.7891 4.5547-6.3203 8.6094-10.441 12-5.6406 5.1016-10.785 10.727-15.359 16.801-9.0742 14.641-15.078 30.969-17.641 48-6.8555 29.137-23.242 55.152-46.559 73.922-11.582 9.3867-21.977 20.145-30.961 32.039l-3.6016 5.3984c-9 15.121-13.559 32.641-21.719 48-1.8594 3.2773-2.4141 7.1328-1.5586 10.801 2.2695 5.4219 5.9688 10.125 10.703 13.613s10.324 5.625 16.176 6.1875h4.0781c5.9531-1.6016 11.129-5.3047 14.566-10.418 3.4414-5.1172 4.918-11.305 4.1562-17.422-1.1758-10.113-1.5742-20.305-1.2031-30.48-0.15625-10.094 4.8125-19.582 13.203-25.199 2.9648-2.8203 6.8906-4.4023 10.984-4.4258 4.0898-0.023438 8.0352 1.5156 11.035 4.2969 2.9961 2.7852 4.8203 6.6055 5.0977 10.688z"/>
  <path d="m624 190.2c7.4414 1.9219 11.281-2.6406 15.48-6.8398 5.0156-5.1719 10.566-9.7969 16.559-13.801 3.5508-2.0391 6.4375-5.0586 8.3125-8.6992 1.8711-3.6406 2.6523-7.7461 2.25-11.82 0.19922-6-1.5703-11.898-5.043-16.801-3.9375-5.7227-10.164-9.4609-17.07-10.242-6.9023-0.78516-13.809 1.4648-18.93 6.1641-10.199 13.406-15.035 30.137-13.559 46.918-0.03125 3.5156 1.1445 6.9297 3.3281 9.6836 2.1836 2.75 5.2461 4.6719 8.6719 5.4375z"/>
  <path d="m487.32 305.64c-1.5781 9.25-0.41016 18.766 3.3594 27.359 8.0391 19.559 15.359 39.359 23.16 58.922 6.2383 15.602 7.8008 32.281 13.441 48 0.67969 2.918 2.168 5.5898 4.2852 7.7109 2.1211 2.1211 4.793 3.6055 7.7148 4.2891 10.32 1.8008 16.078-8.5195 13.559-20.16-3.332-17.562-4.9414-35.406-4.8008-53.281 1.2227-13.969-3.6289-27.785-13.32-37.922-9.1797-8.7188-14.199-20.941-13.797-33.598-0.71875-14.641-3.3594-29.039-5.5195-43.441h-0.003906c-4.832-22.969-7.3672-46.367-7.5586-69.84v-21.602c0.078125-8.0469-2.6836-15.867-7.8008-22.078-3.7773-4.6133-9.0625-7.7422-14.926-8.8398-5.8594-1.0977-11.922-0.09375-17.113 2.8398-5.0352 1.8672-9.0469 5.7695-11.059 10.746-2.0078 4.9805-1.8281 10.574 0.5 15.414 9.8398 28.199 17.762 56.879 25.801 85.559h-0.003907c5.1914 16.105 6.5859 33.188 4.082 49.922z"/>
  <path d="m549.96 247.2c1.1328 20.105 3.3359 40.133 6.5977 60 0.92578 12.711 4.7852 25.035 11.281 36 5.2344 6.3516 13.289 9.6797 21.48 8.8789 3.75-0.97656 7.0859-3.1406 9.5039-6.168 2.4219-3.0273 3.8047-6.7578 3.9375-10.629 0.40234-3.8164-0.28516-7.6719-1.9844-11.113-1.6992-3.4414-4.3398-6.3281-7.6172-8.3281-3.8906-2.1484-7.3789-4.9492-10.32-8.2812-2.8711-3.9414-4.0547-8.8672-3.2891-13.684 0.76562-4.8203 3.418-9.1367 7.3711-11.996 3.2383-2.3945 5.7617-5.625 7.3047-9.3438 1.543-3.7227 2.0469-7.793 1.4531-11.773-1.3984-5.1133-3.6719-9.9453-6.7188-14.281-3.5547-5.2344-4.8125-11.695-3.4805-17.879 1.3711-7.0469 2.2148-14.188 2.5195-21.363-1.3203-9.1211-0.96094-19.68-10.559-26.039-4.0664-2.6328-8.8555-3.9336-13.695-3.7188-4.8359 0.21484-9.4883 1.9336-13.305 4.918-3.625 2.6992-6.3047 6.4688-7.6641 10.777-1.3555 4.3086-1.3203 8.9375 0.10156 13.223 2.1602 13.801 5.5195 27.242 7.082 40.801z"/>
  <path d="m590.76 390.6c-9.8398 3-14.16 12-10.922 24.84 2.8203 10.207 2.8203 20.988 0 31.199-4.5352 11.461-6.8555 23.676-6.8398 36 0.60156 8.0625 1.7227 16.082 3.3594 24 0.95703 11.027 3.6289 21.836 7.9219 32.039 1.9883 3.9766 5.3203 7.1211 9.4062 8.8789 4.082 1.7578 8.6562 2.0117 12.914 0.72266 3.3789-1.3945 6.1133-4.0039 7.668-7.3125 1.5547-3.3086 1.8164-7.0781 0.73047-10.57-0.90234-3.8867-2.4883-7.582-4.6797-10.918-7.043-12.395-8.7734-27.109-4.8008-40.801 3.0547-19.906 10.832-38.793 22.68-55.078 6.2969-7.3594 11.734-15.41 16.199-24 7.7891-17.305 14.051-35.25 18.723-53.641 6.8398-21.359 15.48-42 20.879-63.84 2.6094-15.18 4.4492-30.477 5.5195-45.84 2.3086-9.3047 3.4766-18.855 3.4805-28.441 0.17969-2.7773-0.38281-5.5469-1.6289-8.0352-1.2422-2.4883-3.125-4.6016-5.4492-6.125-2.7031-1.4727-5.7656-2.1641-8.8398-1.9922-3.0703 0.16797-6.0391 1.1914-8.5625 2.9531-10.801 7.9844-17.867 20.035-19.559 33.359-1.25 11.562-3.457 23.004-6.6016 34.199-4.0977 9.5664-5.7461 20-4.8008 30.359 1.0195 9.3281-0.25781 18.762-3.7188 27.48-4.7656 11.586-6.8594 24.098-6.1211 36.602 0.64062 6.9453 0.19531 13.949-1.3203 20.758-0.73047 5.4297-3.8281 10.254-8.4648 13.172-4.6328 2.9219-10.324 3.6328-15.535 1.9492-3.6719-1.5508-7.6602-2.2109-11.637-1.918z"/>
  <path d="m987.96 667.08c7.4414 1.9219 14.879 4.1992 22.32 6.4805 10.441 2.3984 20.879 5.7617 31.199 8.5195 4.3203 1.0781 8.6406 2.1602 12.961 2.8789h18.602l-0.003907 0.003907c3.0508-0.65625 6.0547-1.5 9-2.5195h1.0781l3.2383-1.9219 0.83984-0.96094v-0.71875h0.003907c-0.17578-0.66797-0.17578-1.3711 0-2.0391 0.058593-0.71875 0.058593-1.4414 0-2.1602 0 0-0.60156-1.4414-0.83984-2.2812-1.0859-1.9883-2.2891-3.9102-3.5977-5.7578l-2.7617-4.5625c-1.6836-1.8008-3.4844-3.4844-5.3984-5.0391-23.723-8.707-46.992-18.598-69.723-29.641-7.1797-4.4258-15.59-6.4453-24-5.7578-13.199 2.3984-17.398 12-19.801 24-0.64062 6.1797-4.1133 11.711-9.3984 14.977-5.2852 3.2656-11.785 3.8945-17.602 1.7031-4.9766-1.8125-10.191-2.9023-15.477-3.2422-23.48 0.99609-46.969-1.7148-69.602-8.0391-3.9453-0.63672-7.9922-0.089844-11.621 1.5781-3.6328 1.668-6.6875 4.375-8.7773 7.7812-1.9219 5.5195 2.7617 12 11.039 16.559v0.003906c6.0352 2.6406 12.25 4.8477 18.598 6.5977 8.7266 3.5469 17.262 7.5508 25.562 12 12.625 4.7266 25.75 7.9883 39.121 9.7188 21.359 5.0391 33.719 3.1211 37.441-22.922l-0.003906 0.003906c1.2266-5.9375 4.9883-11.039 10.297-13.969 5.3047-2.9297 11.625-3.3945 17.305-1.2734z"/>
 </g>
</svg>
