<?xml version="1.0" encoding="UTF-8"?>
<svg width="1200pt" height="1200pt" version="1.1" viewBox="0 0 1200 1200" xmlns="http://www.w3.org/2000/svg">
 <path d="m1086.1 985.82c0 98.203-250.45 151.18-486.14 151.18-235.64 0-486.14-52.969-486.14-151.18 0-10.781 3.0938-21.234 9.1875-31.266l280.03-881.16c2.4844-7.8281 10.875-12.188 18.703-9.7031 7.8281 2.4844 12.188 10.875 9.7031 18.703l-264.32 831.84c20.766-12.562 47.438-24.047 79.781-34.359 79.828-25.359 188.26-41.203 305.21-44.578 8.1562-0.23438 15.094 6.2344 15.328 14.484s-6.2344 15.094-14.484 15.328c-114.28 3.2812-219.79 18.656-297.05 43.172-70.312 22.312-112.27 51.281-112.27 77.484 0 28.312 47.578 58.969 127.26 82.031 87.703 25.359 204.56 39.328 329.06 39.328s241.36-13.969 329.06-39.328c79.688-23.062 127.26-53.719 127.26-82.031 0-5.3438-1.7344-10.781-5.1094-16.266l-0.14062-0.28125c-28.078-45.141-167.11-93.516-377.44-103.12-8.2031-0.375-14.578-7.3594-14.203-15.562s7.3125-14.578 15.562-14.203c110.91 5.0625 212.76 21.562 286.87 46.406 28.406 9.5625 52.172 20.109 71.016 31.5l-264.37-831.79c-2.4844-7.8281 1.8281-16.219 9.7031-18.703 7.8281-2.4844 16.219 1.8281 18.703 9.7031l280.03 881.26c6.0469 10.031 9.1406 20.391 9.1406 31.125zm-582.14-656.76c-13.078-14.297-19.781-32.906-18.891-52.312s9.2812-37.266 23.578-50.344c14.344-13.078 32.906-19.828 52.266-18.938 19.406 0.89062 37.266 9.2812 50.344 23.625l12.234 13.406c2.6719 2.9062 4.0781 6.7969 3.8906 10.734s-1.9219 7.6875-4.8281 10.312l-3.4219 3.1406 112.69 151.22c4.5938 6.1406 3.75 14.766-1.875 19.922l-37.125 33.891c-2.8594 2.625-6.4219 3.8906-10.031 3.8906-3.7031 0-7.4062-1.3594-10.266-4.0781l-44.25-42.047v540.37l61.688 35.906c7.125 4.125 9.5156 13.266 5.3906 20.391s-13.266 9.5156-20.391 5.3906l-46.688-27.188v35.906c0 8.25-6.6562 14.906-14.906 14.906s-14.906-6.6562-14.906-14.906v-35.109l-45.375 27.984c-2.4375 1.5-5.1562 2.2031-7.8281 2.2031-5.0156 0-9.8906-2.5312-12.703-7.0781-4.3125-7.0312-2.1562-16.172 4.875-20.531l61.031-37.641v-568.92l-62.062-58.969c-2.625 2.0625-5.8594 3.1875-9.1875 3.1875h-0.65625c-3.9375-0.1875-7.6875-1.9219-10.312-4.8281l-12.281-13.453zm93.094-40.219-38.531 35.203 124.45 118.27 16.922-15.422-102.84-138zm-82.219-10.734c-0.51562 11.438 3.4219 22.406 11.109 30.844l2.2031 2.4375 63.281-57.797-2.2031-2.3906c-7.7344-8.4844-18.281-13.406-29.719-13.922-0.65625-0.046875-1.3125-0.046875-1.9688-0.046875-10.688 0-20.859 3.9375-28.828 11.203-8.4375 7.6875-13.359 18.234-13.922 29.719z"/>
</svg>
