<?xml version="1.0" encoding="UTF-8"?>
<svg width="1200pt" height="1200pt" version="1.1" viewBox="0 0 1200 1200" xmlns="http://www.w3.org/2000/svg">
 <path d="m600 1080c264.67 0 480-215.33 480-480s-215.33-480-480-480-480 215.33-480 480 215.33 480 480 480zm0-936c251.44 0 456 204.56 456 456s-204.56 456-456 456-456-204.56-456-456 204.56-456 456-456z"/>
 <path d="m600 1001.1c221.18 0 401.12-179.95 401.12-401.13s-179.94-401.13-401.12-401.13-401.12 179.95-401.12 401.13 179.94 401.13 401.12 401.13zm0-778.26c207.95 0 377.12 169.18 377.12 377.13 0 207.95-169.17 377.13-377.12 377.13s-377.12-169.18-377.12-377.13 169.17-377.13 377.12-377.13z"/>
 <path d="m479.65 546.14c-7.2422 11.832-9.4336 25.762-6.1758 39.242l20.566 85.324c3.2461 13.477 11.555 24.883 23.379 32.117 8.25 5.043 17.531 7.6328 26.965 7.6328 4.0898 0 8.2031-0.48828 12.27-1.4648 13.477-3.2461 24.879-11.547 32.109-23.371 7.2422-11.832 9.4336-25.762 6.1758-39.242l-20.566-85.324c-6.7148-27.809-34.781-45.008-62.613-38.285-13.477 3.2422-24.879 11.547-32.109 23.371zm20.473 12.523c3.8789-6.3516 10.02-10.816 17.262-12.562 2.1914-0.52734 4.3828-0.77734 6.5391-0.77734 12.586 0 24.047 8.5977 27.129 21.359l20.566 85.324c1.7461 7.2422 0.5625 14.738-3.3281 21.094-3.8789 6.3516-10.02 10.816-17.262 12.562-14.977 3.6172-30.059-5.6328-33.668-20.578l-20.566-85.324c-1.7461-7.25-0.5625-14.742 3.3281-21.098z"/>
 <path d="m787.25 483.19c8.7422 10.754 21.152 17.457 34.945 18.879 1.8047 0.18359 3.6094 0.27734 5.4023 0.27734 11.883 0 23.309-4.043 32.648-11.648v0.007812c22.195-18.059 25.57-50.812 7.5117-73.02l-55.395-68.074c-18.047-22.188-50.812-25.551-73.02-7.5-22.184 18.07-25.547 50.816-7.4883 73.012zm-32.754-122.46c5.168-4.2031 11.391-6.2461 17.578-6.2461 8.1211 0 16.172 3.5156 21.68 10.281l55.395 68.066c9.7031 11.938 7.8867 29.543-4.043 39.254v0.007813c-5.7891 4.6992-13.031 6.8438-20.461 6.1055-7.4062-0.76172-14.086-4.3672-18.785-10.148l-55.395-68.074c-9.7031-11.93-7.8984-29.535 4.0312-39.246z"/>
 <path d="m826.85 583.99-19.969 85.465c-6.5156 27.863 10.863 55.828 38.73 62.344 3.9609 0.92578 7.9102 1.3672 11.801 1.3672 23.566 0 44.953-16.188 50.543-40.098l19.969-85.473c6.5039-27.863-10.875-55.828-38.73-62.336-27.984-6.5469-55.828 10.875-62.344 38.73zm77.707 18.148-19.969 85.465c-3.5156 14.965-18.516 24.312-33.516 20.824-14.977-3.5039-24.328-18.539-20.824-33.516l19.969-85.465c3.5039-14.977 18.516-24.328 33.516-20.824 14.977 3.5078 24.316 18.543 20.824 33.516z"/>
 <path d="m564.83 806.41-99.34-29.918c-27.375-8.2383-56.391 7.3242-64.652 34.723 0 0-0.31641 1.0625-0.32812 1.0664-8.2383 27.402 7.3359 56.406 34.734 64.656l99.34 29.918c4.9453 1.4883 9.9375 2.2031 14.859 2.2031 22.336 0 43.09-14.672 50.121-37.996 3.9961-13.266 2.5781-27.305-3.9844-39.516-6.5508-12.211-17.473-21.141-30.75-25.137zm11.438 58.793c-4.4531 14.738-20.039 23.098-34.77 18.672l-99.34-29.918c-14.719-4.4375-23.098-20.027-18.656-34.789l0.30469-1.0312c4.4531-14.738 20.039-23.121 34.77-18.668l99.34 29.918c14.719 4.4414 23.098 20.031 18.352 35.816z"/>
 <path d="m377.54 534.25c12.281 0 24.598-4.3164 34.477-13.102l65.566-58.336c10.359-9.2188 16.5-21.906 17.309-35.746 0.80859-13.84-3.8203-27.168-13.031-37.523v-0.007813c-19.031-21.367-51.891-23.273-73.277-4.2734l-65.566 58.344c-21.375 19.027-23.297 51.891-4.2773 73.277 10.242 11.5 24.492 17.367 38.801 17.367zm-18.562-72.715 65.555-58.344c5.3086-4.7188 11.941-7.0391 18.539-7.0391 7.6875 0 15.352 3.1523 20.859 9.332 10.219 11.496 9.1875 29.164-2.3086 39.391l-65.566 58.336c-11.508 10.238-29.156 9.1875-39.387-2.293-10.219-11.488-9.1875-29.156 2.3086-39.383z"/>
 <path d="m628.05 561.47c0 38.574 31.383 69.949 69.949 69.949s69.938-31.379 69.938-69.949c0-38.566-31.371-69.941-69.938-69.941s-69.949 31.375-69.949 69.941zm69.949-45.941c25.324 0 45.938 20.609 45.938 45.941 0 25.336-20.613 45.949-45.938 45.949-25.336 0-45.949-20.613-45.949-45.949 0-25.336 20.613-45.941 45.949-45.941z"/>
 <path d="m422.31 677.98c0-38.566-31.383-69.941-69.949-69.941s-69.949 31.379-69.949 69.941c0 38.574 31.383 69.949 69.949 69.949s69.949-31.379 69.949-69.949zm-115.9 0c0-25.336 20.613-45.941 45.949-45.941s45.949 20.609 45.949 45.941c0 25.336-20.613 45.949-45.949 45.949s-45.949-20.617-45.949-45.949z"/>
 <path d="m600.16 396.11c38.566 0 69.938-31.379 69.938-69.941 0-38.574-31.371-69.949-69.938-69.949-38.566 0-69.949 31.379-69.949 69.949 0 38.562 31.383 69.941 69.949 69.941zm0-115.89c25.336 0 45.938 20.613 45.938 45.949 0 25.336-20.602 45.941-45.938 45.941-25.336 0-45.949-20.609-45.949-45.941 0-25.336 20.613-45.949 45.949-45.949z"/>
 <path d="m722.12 726.84c-38.566 0-69.938 31.379-69.938 69.949 0 38.566 31.371 69.941 69.938 69.941s69.949-31.379 69.949-69.941c0-38.57-31.383-69.949-69.949-69.949zm0 115.89c-25.324 0-45.938-20.609-45.938-45.941 0-25.336 20.613-45.949 45.938-45.949 25.336 0 45.949 20.613 45.949 45.949 0 25.336-20.613 45.941-45.949 45.941z"/>
</svg>
