<?xml version="1.0" encoding="UTF-8"?>
<svg width="1200pt" height="1200pt" version="1.1" viewBox="0 0 1200 1200" xmlns="http://www.w3.org/2000/svg">
 <path d="m986.76 313.91c-24.648-31.68-53.195-60.215-84.816-84.875-86.258-67.211-189.52-102.72-298.68-102.72-268.13 0-486.28 218.12-486.28 486.28 0 109.27 35.484 212.53 102.71 298.69 24.805 31.703 53.328 60.301 84.816 84.852 86.16 67.152 189.48 102.65 298.75 102.65 268.09 0 486.24-218.09 486.24-486.18 0-109.27-35.508-212.57-102.74-298.7zm-383.5 626.02c-59.844 0-117.5-15.996-168.27-46.586l449.05-449c30.457 50.773 46.477 108.42 46.477 168.27 0 180.46-146.81 327.32-327.26 327.32zm0-654.7c59.82 0 117.47 16.043 168.19 46.633l-448.95 448.97c-30.562-50.773-46.609-108.39-46.609-168.24 0-180.49 146.82-327.36 327.36-327.36z"/>
</svg>
