<?xml version="1.0" encoding="UTF-8"?>
<svg width="1200pt" height="1200pt" version="1.1" viewBox="0 0 1200 1200" xmlns="http://www.w3.org/2000/svg">
 <g>
  <path d="m1050 503.12h-900c-51.695 0-93.75 42.055-93.75 93.75v6.2617c0 51.695 42.055 93.75 93.75 93.75h900c51.695 0 93.75-42.055 93.75-93.75v-6.2617c0-51.691-42.055-93.75-93.75-93.75zm56.25 100.02c0 31.012-25.238 56.25-56.25 56.25h-900c-31.012 0-56.25-25.238-56.25-56.25v-6.2617c0-31.012 25.238-56.25 56.25-56.25h900c31.012 0 56.25 25.238 56.25 56.25z"/>
  <path d="m600 406.27c55.145 0 100.01-44.867 100.01-100.01s-44.867-100.01-100.01-100.01-100.01 44.867-100.01 100.01 44.867 100.01 100.01 100.01zm0-162.52c34.461 0 62.512 28.051 62.512 62.512 0 34.465-28.051 62.512-62.512 62.512s-62.512-28.051-62.512-62.512c0-34.461 28.051-62.512 62.512-62.512z"/>
  <path d="m600 793.73c-55.145 0-100.01 44.867-100.01 100.01s44.867 100.01 100.01 100.01 99.992-44.867 99.992-100.01-44.848-100.01-99.992-100.01zm0 162.52c-34.461 0-62.512-28.051-62.512-62.512 0-34.461 28.051-62.512 62.512-62.512s62.492 28.051 62.492 62.512c0 34.461-28.012 62.512-62.492 62.512z"/>
 </g>
</svg>
