<?xml version="1.0" encoding="UTF-8"?>
<svg width="1200pt" height="1200pt" version="1.1" viewBox="0 0 1200 1200" xmlns="http://www.w3.org/2000/svg">
 <path d="m75 346.69h252.94c4.9727 0 9.7422-1.9766 13.258-5.4922 3.5156-3.5156 5.4922-8.2852 5.4922-13.258v-107.62h778.31c6.6992 0 12.887-3.5742 16.238-9.375 3.3477-5.8008 3.3477-12.949 0-18.75-3.3516-5.8008-9.5391-9.375-16.238-9.375h-778.31v-107.81c0-4.9727-1.9766-9.7422-5.4922-13.258-3.5156-3.5156-8.2852-5.4922-13.258-5.4922h-252.94c-4.9727 0-9.7422 1.9766-13.258 5.4922-3.5156 3.5156-5.4922 8.2852-5.4922 13.258v252.94c0 4.9727 1.9766 9.7422 5.4922 13.258 3.5156 3.5156 8.2852 5.4922 13.258 5.4922zm18.75-252.94h215.44v215.44h-215.44z"/>
 <path d="m1125 979.69h-559.88v-107.62c0-4.9727-1.9766-9.7422-5.4922-13.258-3.5156-3.5156-8.2852-5.4922-13.258-5.4922h-252.94c-4.9727 0-9.7422 1.9766-13.258 5.4922-3.5156 3.5156-5.4922 8.2852-5.4922 13.258v107.62h-199.69c-6.6992 0-12.887 3.5742-16.238 9.375-3.3477 5.8008-3.3477 12.949 0 18.75 3.3516 5.8008 9.5391 9.375 16.238 9.375h199.69v107.81c0 4.9727 1.9766 9.7422 5.4922 13.258 3.5156 3.5156 8.2852 5.4922 13.258 5.4922h252.94c4.9727 0 9.7422-1.9766 13.258-5.4922 3.5156-3.5156 5.4922-8.2852 5.4922-13.258v-107.81h559.88c6.6992 0 12.887-3.5742 16.238-9.375 3.3477-5.8008 3.3477-12.949 0-18.75-3.3516-5.8008-9.5391-9.375-16.238-9.375zm-812.81 126.56v-215.44h215.44v215.44z"/>
 <path d="m1125 581.25h-131.25v-107.81c0-4.9727-1.9766-9.7422-5.4922-13.258-3.5156-3.5156-8.2852-5.4922-13.258-5.4922h-252.94c-4.9727 0-9.7422 1.9766-13.258 5.4922-3.5156 3.5156-5.4922 8.2852-5.4922 13.258v107.81h-628.31c-6.6992 0-12.887 3.5742-16.238 9.375-3.3477 5.8008-3.3477 12.949 0 18.75 3.3516 5.8008 9.5391 9.375 16.238 9.375h628.31v107.81c0 4.9727 1.9766 9.7422 5.4922 13.258 3.5156 3.5156 8.2852 5.4922 13.258 5.4922h252.94c4.9727 0 9.7422-1.9766 13.258-5.4922 3.5156-3.5156 5.4922-8.2852 5.4922-13.258v-107.81h131.25c6.6992 0 12.887-3.5742 16.238-9.375 3.3477-5.8008 3.3477-12.949 0-18.75-3.3516-5.8008-9.5391-9.375-16.238-9.375zm-168.75 126.56h-215.44v-215.62h215.44z"/>
</svg>
