<?xml version="1.0" encoding="UTF-8"?>
<svg width="1200pt" height="1200pt" version="1.1" viewBox="0 0 1200 1200" xmlns="http://www.w3.org/2000/svg">
 <path d="m600 1122c-287.81 0-522-234.19-522-522s234.19-522 522-522 522 234.19 522 522-234.19 522-522 522zm0-1020c-274.6 0-498 223.4-498 498s223.4 498 498 498 498-223.4 498-498-223.4-498-498-498zm0 966.42c-258.28 0-468.42-210.14-468.42-468.42s210.14-468.42 468.42-468.42 468.42 210.14 468.42 468.42-210.14 468.42-468.42 468.42zm0-912.84c-245.06 0-444.42 199.36-444.42 444.42 0 245.06 199.36 444.42 444.42 444.42 245.06 0 444.42-199.36 444.42-444.42 0-245.06-199.36-444.42-444.42-444.42zm-106.12 832.87c-27.047 0-49.031-21.984-49.031-49.031s21.984-49.031 49.031-49.031c27 0 49.031 21.984 49.031 49.031s-21.984 49.031-49.031 49.031zm0-74.016c-13.781 0-25.031 11.25-25.031 25.031s11.25 25.031 25.031 25.031 25.031-11.203 25.031-25.031-11.25-25.031-25.031-25.031zm303.94-5.7188c-30.516 0-55.359-22.172-55.359-49.406s24.844-49.406 55.359-49.406 55.359 22.172 55.359 49.406-24.844 49.406-55.359 49.406zm0-74.812c-17.297 0-31.359 11.391-31.359 25.406s14.062 25.406 31.359 25.406 31.359-11.391 31.359-25.406-14.062-25.406-31.359-25.406zm-317.16 29.25c-12.656 0-21.75-7.6406-28.547-13.406-6.8438-5.7656-10.266-8.25-14.391-7.6406-6.5625 1.0781-12.656-3.5625-13.594-10.125-0.98438-6.5625 3.5625-12.656 10.125-13.594 15.188-2.2969 25.688 6.5625 33.328 13.031 6.8438 5.7656 10.219 8.2031 14.391 7.6406 2.3438-0.375 3.0938-0.75 6.1406-8.625 3.0938-7.9219 8.25-21.188 25.031-23.672 15.188-2.25 25.688 6.5625 33.375 13.031 6.8438 5.7656 10.219 8.25 14.391 7.6406 2.3438-0.375 3.0938-0.75 6.1875-8.6719s8.25-21.188 25.031-23.672c15.188-2.25 25.734 6.5625 33.375 13.031 6.8438 5.7656 10.266 8.25 14.438 7.6406 6.6562-0.9375 12.656 3.5625 13.641 10.125s-3.5625 12.656-10.125 13.641c-15.328 2.2969-25.734-6.5625-33.375-13.031-6.8906-5.8125-10.406-8.25-14.438-7.6406-2.3906 0.32812-3.1406 0.75-6.2344 8.625-3.0938 7.9219-8.25 21.188-25.031 23.672-15.281 2.25-25.688-6.6094-33.375-13.031-6.8438-5.7656-10.312-8.25-14.391-7.6406-2.3438 0.375-3.0938 0.75-6.1406 8.625-3.0938 7.9219-8.25 21.188-25.031 23.672-1.6406 0.28125-3.2344 0.375-4.7812 0.375zm-157.82-90.328c-19.5 0-37.312-7.0312-51.562-20.438-18.516-17.438-29.016-43.875-29.016-71.484 0-5.4375 0.375-10.875 1.2188-16.359 5.8594-49.453 9.375-99.703 10.406-148.97 0.65625-37.453 15.844-73.312 38.719-91.406 14.438-11.391 30.984-15.469 48.094-11.812 45.469 11.484 81.328 70.688 83.297 116.02 1.5469 39.141 5.0156 78.422 10.359 116.86 0.65625 3.7031 1.0312 7.5938 1.0312 11.531 0 43.5-39.328 100.5-94.312 114.14-6.2812 1.3125-12.328 1.9219-18.234 1.9219zm-56.531-92.344c0 21.281 7.875 41.625 21.422 54.469 8.9531 8.4375 24.562 17.531 47.859 12.562 46.734-11.625 75.75-59.578 75.75-90.469 0-2.7188-0.23438-5.25-0.65625-7.6875-0.046875-0.1875-0.09375-0.375-0.09375-0.5625-5.4844-39.281-9.0469-79.5-10.594-119.44-1.5469-35.344-30.797-85.031-64.828-93.656-9.5156-2.0156-18.938 0.375-27.703 7.2656-17.156 13.594-29.062 42.938-29.578 73.031-1.0312 50.062-4.5938 101.11-10.594 151.74-0.65625 4.2656-0.98438 8.5312-0.98438 12.75zm694.78 28.828c-35.672 0-64.688-29.016-64.688-64.688s29.016-64.688 64.688-64.688 64.688 29.016 64.688 64.688-29.016 64.688-64.688 64.688zm0-105.33c-22.406 0-40.688 18.234-40.688 40.688s18.234 40.688 40.688 40.688c22.406 0 40.688-18.234 40.688-40.688s-18.234-40.688-40.688-40.688zm-397.69 100.45c-39.328 0-71.297-31.969-71.297-71.297s31.969-71.297 71.297-71.297c39.328 0 71.297 31.969 71.297 71.297s-31.969 71.297-71.297 71.297zm0-118.59c-26.062 0-47.297 21.234-47.297 47.297s21.234 47.297 47.297 47.297 47.297-21.234 47.297-47.297c0-26.109-21.234-47.297-47.297-47.297zm214.69 101.91c-3.8438 0-7.5938-1.8281-9.8906-5.2031-11.672-17.016 0.09375-33.047 7.8281-43.641 7.4062-10.125 9-13.5 7.4062-15.844-3.3281-4.8281-14.484-4.9219-25.266-5.0156-15.328-0.14062-34.453-0.28125-44.859-15.422-11.672-17.016 0.09375-33 7.875-43.594 6.6562-9.0938 9.1875-13.266 7.4531-15.797-3.2812-4.8281-14.438-4.875-25.219-4.9688-15.375-0.09375-34.453-0.28125-44.812-15.375-11.672-17.016 0.09375-33 7.875-43.594 6.6562-9.0469 9.1875-13.266 7.4531-15.797-3.75-5.4844-2.3438-12.938 3.0938-16.688s12.938-2.3438 16.688 3.0938c11.672 17.016-0.09375 33-7.875 43.594-6.6562 9.0469-9.1875 13.266-7.4531 15.797 3.2812 4.8281 14.438 4.875 25.219 4.9688 15.328 0.09375 34.453 0.28125 44.812 15.375 11.672 17.016-0.09375 33-7.875 43.594-6.6562 9.0938-9.1875 13.266-7.4531 15.844 3.3281 4.8281 14.484 4.9219 25.266 5.0156 15.375 0.14062 34.453 0.28125 44.859 15.422 11.672 17.016-0.09375 33.047-7.8281 43.641-7.4062 10.125-9 13.5-7.4062 15.844 3.75 5.4375 2.3438 12.938-3.0938 16.688-2.1094 1.3594-4.4531 2.0625-6.7969 2.0625zm96.984-201.28c-34.969 0-63.422-28.453-63.422-63.422s28.453-63.422 63.422-63.422 63.422 28.453 63.422 63.422-28.453 63.422-63.422 63.422zm0-102.89c-21.75 0-39.422 17.672-39.422 39.422s17.719 39.422 39.422 39.422c21.75 0 39.422-17.672 39.422-39.422 0-21.703-17.672-39.422-39.422-39.422zm-370.97 21.844c-44.156 0-80.062-35.906-80.062-80.109 0-44.156 35.906-80.109 80.062-80.109s80.109 35.906 80.109 80.109c-0.046875 44.156-35.953 80.109-80.109 80.109zm0-136.22c-30.938 0-56.062 25.172-56.062 56.109s25.172 56.109 56.062 56.109c30.938 0 56.109-25.172 56.109-56.109-0.046875-30.938-25.172-56.109-56.109-56.109zm197.72 64.312c-22.594 0-41.016-18.422-41.016-41.062s18.422-41.016 41.016-41.016c22.641 0 41.062 18.422 41.062 41.016 0 22.641-18.422 41.062-41.062 41.062zm0-58.078c-9.375 0-17.016 7.6406-17.016 17.016s7.6406 17.062 17.016 17.062 17.062-7.6406 17.062-17.062c0-9.375-7.6406-17.016-17.062-17.016z"/>
</svg>
