<?xml version="1.0" encoding="UTF-8"?>
<svg width="1200pt" height="1200pt" version="1.1" viewBox="0 0 1200 1200" xmlns="http://www.w3.org/2000/svg">
 <path d="m192.1 112.11c30.789 0 55.75 24.961 55.75 55.75 0 30.789-24.961 55.75-55.75 55.75-30.789 0-55.75-24.961-55.75-55.75 0-30.789 24.961-55.75 55.75-55.75zm0.011719 785.89c30.789 0 55.75 24.961 55.75 55.75s-24.961 55.75-55.75 55.75c-30.789 0-55.75-24.961-55.75-55.75s24.949-55.75 55.75-55.75zm646.24-858.23h241.39c30.875 0 56.062 25.188 56.062 56.062v241.39c0 30.875-25.188 56.062-56.062 56.062l-241.39 0.003906c-30.875 0-56.062-25.188-56.062-56.062v-241.39c-0.015624-30.875 25.188-56.062 56.062-56.062zm14.773 315.79c13.648-47.113 56.875-79.539 105.93-79.539 49.039 0 92.273 32.438 105.91 79.539h14.773c10.051 0 18.336-8.2891 18.336-18.336v-241.39c0-10.051-8.2891-18.336-18.336-18.336h-241.39c-10.051 0-18.336 8.2891-18.336 18.336v241.39c0 10.051 8.2891 18.336 18.336 18.336zm105.91 496.04-187.24 270.9h85.5c17.176-41.023 57.262-67.727 101.74-67.727 44.488 0 84.574 26.699 101.74 67.727h85.5zm-219.02 250.73 192.86-279.05c13.102-18.961 39.199-18.961 52.301 0l192.86 279.05c15.539 22.488 2.3633 57.887-26.148 57.887l-385.73 0.003906c-28.512 0-41.699-35.402-26.152-57.891zm-515.23-282.12c-17.914-17.914-47.449-17.914-65.363 0l-130.57 130.58c-17.914 17.914-17.914 47.449 0 65.363l130.57 130.57c17.914 17.914 47.449 17.914 65.363 0l130.57-130.57c17.914-17.914 17.914-47.449 0-65.363zm103.9 157.25-130.57-130.57c-3.2617-3.2617-8.75-3.2617-12.012 0l-130.58 130.57c-3.2617 3.2617-3.2617 8.75 0 12.012l59.551 59.562c20.664-20.188 48.137-31.375 77.023-31.375 28.887 0 56.363 11.188 77.023 31.375l59.551-59.551c3.2773-3.2734 3.2773-8.7578 0.015625-12.023zm-136.59-937.69c-97.625 0-176.76 79.137-176.76 176.76s79.137 176.76 176.76 176.76 176.76-79.137 176.76-176.76c0-97.621-79.137-176.76-176.76-176.76zm239.11 195.61c-10.414 0-18.863-8.4492-18.863-18.863 0-10.414 8.4492-18.863 18.863-18.863h288.74c10.414 0 18.863 8.4492 18.863 18.863 0 10.414-8.4492 18.863-18.863 18.863zm508.96 220.25c0-10.414 8.4492-18.863 18.863-18.863 10.414 0 18.863 8.4492 18.863 18.863l-0.003906 291.11c0 10.414-8.4492 18.863-18.863 18.863-10.414 0-18.863-8.4492-18.863-18.863zm-193.85 508.98h-315.12c-10.414 0-18.863 8.4492-18.863 18.863 0 10.414 8.4492 18.863 18.863 18.863h315.12c10.414 0 18.863-8.4492 18.863-18.863 0-10.426-8.4492-18.863-18.863-18.863zm-535.36-220.24c0 10.414-8.4492 18.863-18.863 18.863-10.414 0-18.863-8.4492-18.863-18.863v-288.75c0-10.414 8.4492-18.863 18.863-18.863 10.414 0 18.863 8.4492 18.863 18.863zm748.08 190.76c30.789 0 55.75 24.961 55.75 55.75 0 30.789-24.961 55.75-55.75 55.75-30.789 0-55.75-24.961-55.75-55.75 0-30.785 24.961-55.75 55.75-55.75zm0.011719-778.76c-30.789 0-55.75 24.961-55.75 55.75s24.961 55.75 55.75 55.75c30.789 0 55.75-24.961 55.75-55.75s-24.965-55.75-55.75-55.75zm-343.05 274.25c17.926 4.2617 35.051 11.375 50.738 21.039l32.961-14.637 38.852 38.852-14.637 32.961c9.6641 15.688 16.773 32.812 21.039 50.75l33.637 12.949v54.949l-33.637 12.949c-4.2617 17.926-11.375 35.051-21.039 50.738l14.637 32.961-38.852 38.852-32.961-14.637c-15.688 9.6641-32.824 16.773-50.75 21.039l-12.949 33.637h-54.949l-12.949-33.637c-17.926-4.2617-35.051-11.375-50.738-21.039l-32.961 14.637-38.852-38.852 14.637-32.961c-9.6641-15.688-16.773-32.824-21.039-50.75l-33.637-12.949v-54.949l33.637-12.949c4.2617-17.926 11.375-35.051 21.039-50.738l-14.637-32.961 38.852-38.852 32.961 14.637c15.688-9.6641 32.812-16.762 50.738-21.039l12.949-33.637h54.949zm-40.426 65.164c-57.562 0-104.21 46.648-104.21 104.21s46.648 104.21 104.21 104.21 104.21-46.648 104.21-104.21c0.003906-57.562-46.66-104.21-104.21-104.21zm-278.61-187.95c21.289-24.426 34.176-56.363 34.176-91.312 0-76.789-62.25-139.04-139.04-139.04-76.789 0-139.04 62.25-139.04 139.04 0 34.949 12.887 66.875 34.176 91.301 14.789-45.363 57.148-76.074 104.86-76.074 47.715 0.011719 90.078 30.727 104.86 76.086z" fill-rule="evenodd"/>
</svg>
