<?xml version="1.0" encoding="UTF-8"?>
<svg width="1200pt" height="1200pt" version="1.1" viewBox="0 0 1200 1200" xmlns="http://www.w3.org/2000/svg">
 <path d="m428.4 326.4h702c12 0 21.602-9.6016 21.602-21.602s-9.6016-21.602-21.602-21.602l-702 0.003907c-12 0-21.602 9.6016-21.602 21.602 0.003906 12 9.6016 21.598 21.602 21.598z"/>
 <path d="m1129.2 567.6h-700.8c-12 0-21.602 9.6016-21.602 21.602s9.6016 21.602 21.602 21.602h702c12 0 21.602-9.6016 21.602-21.602 0-12.004-10.801-21.602-22.801-21.602z"/>
 <path d="m1129.2 850.8h-700.8c-12 0-21.602 9.6016-21.602 21.602s9.6016 21.602 21.602 21.602h702c12 0 21.602-9.6016 21.602-21.602 0-12.004-10.801-21.602-22.801-21.602z"/>
 <path d="m272.4 476.4h-182.4c-12 0-21.602 9.6016-21.602 21.602v182.4c0 12 9.6016 21.602 21.602 21.602h182.4c12 0 21.602-9.6016 21.602-21.602v-182.4c-1.1992-12-10.801-21.602-21.602-21.602z"/>
 <path d="m85.199 408h187.2c7.1992 0 14.398-3.6016 18-10.801 3.6016-7.1992 3.6016-14.398 0-21.602l-93.602-162c-3.6016-6-10.801-10.801-18-10.801s-14.398 3.6016-18 10.801l-93.598 163.2c-3.6016 6-3.6016 14.398 0 21.602 3.6016 7.1992 10.801 9.5977 18 9.5977z"/>
 <path d="m184.8 751.2c-66 0-120 54-120 120s54 120 120 120 120-54 120-120-54-120-120-120z"/>
</svg>
