<?xml version="1.0" encoding="UTF-8"?>
<svg width="1200pt" height="1200pt" version="1.1" viewBox="0 0 1200 1200" xmlns="http://www.w3.org/2000/svg">
 <g fill="none" stroke="#000" stroke-miterlimit="10" stroke-width="3">
  <path transform="scale(12)" d="m51.42 63.96c0 4.6504-3.7695 8.4199-8.4199 8.4199s-8.4199-3.7695-8.4199-8.4199c0-4.6501 3.7695-8.4199 8.4199-8.4199s8.4199 3.7699 8.4199 8.4199"/>
  <path transform="scale(12)" d="m80.431 9.8249c0 1.7972-1.4567 3.2542-3.2539 3.2542-1.7972 0-3.2542-1.457-3.2542-3.2542 0-1.7969 1.457-3.2539 3.2542-3.2539 1.7972 0 3.2539 1.457 3.2539 3.2539"/>
  <path transform="scale(12)" d="m94.99 65.528c0 2.848-2.3089 5.1569-5.1569 5.1569s-5.1569-2.3089-5.1569-5.1569 2.3089-5.1569 5.1569-5.1569 5.1569 2.3089 5.1569 5.1569"/>
  <path transform="scale(12)" d="m71.201 24.305c0 3.0299-2.4561 5.486-5.486 5.486-3.0296 0-5.486-2.4561-5.486-5.486s2.4564-5.486 5.486-5.486c3.0299 0 5.486 2.4561 5.486 5.486"/>
  <path transform="scale(12)" d="m57.041 83.69c0 3.1602-2.5618 5.722-5.722 5.722-3.1602 0-5.722-2.5618-5.722-5.722s2.5618-5.722 5.722-5.722c3.1602 0 5.722 2.5618 5.722 5.722"/>
  <path transform="scale(12)" d="m29.333 33.464c0 2.4163-1.9587 4.375-4.375 4.375s-4.375-1.9587-4.375-4.375c0-2.416 1.9587-4.375 4.375-4.375s4.375 1.959 4.375 4.375"/>
  <path transform="scale(12)" d="m84.676 37.866c0 2.4313-1.971 4.402-4.402 4.402-2.4313 0-4.402-1.9707-4.402-4.402 0-2.431 1.9707-4.402 4.402-4.402 2.431 0 4.402 1.971 4.402 4.402"/>
  <path transform="scale(12)" d="m49.33 11.058c0 2.9349-2.3792 5.3141-5.3141 5.3141-2.9349 0-5.3138-2.3792-5.3138-5.3141s2.3789-5.3138 5.3138-5.3138c2.9349 0 5.3141 2.3789 5.3141 5.3138"/>
  <path transform="scale(12)" d="m41.171 44.5c0 2.4085-1.9525 4.361-4.361 4.361-2.4085 0-4.361-1.9525-4.361-4.361s1.9525-4.361 4.361-4.361c2.4085 0 4.361 1.9525 4.361 4.361"/>
  <path transform="scale(12)" d="m83.624 80.87c0 2.6784-2.1715 4.8499-4.8499 4.8499-2.6787 0-4.8499-2.1715-4.8499-4.8499 0-2.6787 2.1712-4.8503 4.8499-4.8503 2.6784 0 4.8499 2.1715 4.8499 4.8503"/>
  <path transform="scale(12)" d="m68.144 69.694c0 2.9264-2.3724 5.2988-5.2988 5.2988-2.9268 0-5.2992-2.3724-5.2992-5.2988 0-2.9264 2.3724-5.2992 5.2992-5.2992 2.9264 0 5.2988 2.3727 5.2988 5.2992"/>
  <path transform="scale(12)" d="m23.024 18.819c0 2.7035-2.1917 4.8949-4.8952 4.8949-2.7034 0-4.8949-2.1914-4.8949-4.8949 0-2.7034 2.1914-4.8949 4.8949-4.8949 2.7035 0 4.8952 2.1914 4.8952 4.8949"/>
  <path transform="scale(12)" d="m79.899 56.166c0 2.8581-2.3171 5.1751-5.1751 5.1751s-5.1748-2.3171-5.1748-5.1751 2.3167-5.1751 5.1748-5.1751 5.1751 2.3171 5.1751 5.1751"/>
  <path transform="scale(12)" d="m62.892 48.125c0 2.9525-2.3936 5.346-5.346 5.346s-5.346-2.3936-5.346-5.346 2.3936-5.346 5.346-5.346 5.346 2.3936 5.346 5.346"/>
  <path transform="scale(12)" d="m51.318 28.465c0 2.5059-2.0312 4.5371-4.5371 4.5371-2.5055 0-4.5368-2.0312-4.5368-4.5371 0-2.5055 2.0312-4.5368 4.5368-4.5368 2.5059 0 4.5371 2.0312 4.5371 4.5368"/>
  <path transform="scale(12)" d="m23.718 52.491c0 4.4134-3.5778 7.9912-7.9912 7.9912-4.4131 0-7.9909-3.5778-7.9909-7.9912 0-4.4131 3.5778-7.9909 7.9909-7.9909 4.4134 0 7.9912 3.5778 7.9912 7.9909"/>
  <path transform="scale(12)" d="m32.449 81.383c0 7.0299-5.7021 12.717-12.732 12.717-7.0146-3.25e-4 -12.717-5.6862-12.717-12.717 0-7.0299 5.7021-12.717 12.717-12.717 7.0299 9.76e-4 12.732 5.6868 12.732 12.717z"/>
 </g>
</svg>
