<?xml version="1.0" encoding="UTF-8"?>
<svg width="1200pt" height="1200pt" version="1.1" viewBox="0 0 1200 1200" xmlns="http://www.w3.org/2000/svg">
 <path d="m1139.9 284.74c-39.73 0-70.902-33.246-72.223-76.234 1.3203-42.988 32.492-76.234 72.223-76.234-40.598 0-72.348-34.691-72.348-79.047h-0.003906c0.027343 19.988-7.3984 39.273-20.824 54.086s-31.887 24.09-51.785 26.023c-44.23-0.12891-78.785-31.82-78.785-72.336 0 40.598-34.688 72.348-79.047 72.348h0.003907c19.367-0.94922 38.355 5.6172 53 18.324 14.645 12.711 23.816 30.586 25.605 49.895h-157.21c1.7891-19.309 10.961-37.184 25.605-49.895 14.645-12.707 33.633-19.273 53-18.324-44.355 0-79.047-31.75-79.047-72.348 0 40.598-34.688 72.348-79.047 72.348h0.003906c19.367-0.94922 38.352 5.6172 53 18.324 14.645 12.711 23.816 30.586 25.602 49.895h-157.21c1.7852-19.309 10.961-37.184 25.605-49.895 14.645-12.707 33.633-19.273 53-18.324-44.359 0-79.047-31.75-79.047-72.348 0 40.598-34.688 72.348-79.047 72.348 19.367-0.94922 38.355 5.6172 53 18.324 14.645 12.711 23.82 30.586 25.605 49.895h-157.21c1.7852-19.309 10.957-37.184 25.602-49.895 14.648-12.707 33.633-19.273 53-18.324-44.355 0-79.047-31.75-79.047-72.348 0 40.598-34.688 72.348-79.047 72.348h0.003906c19.367-0.94922 38.355 5.6172 53 18.324 14.645 12.711 23.816 30.586 25.605 49.895h-157.21c1.7891-19.309 10.961-37.184 25.605-49.891 14.645-12.711 33.633-19.277 53-18.328-44.355 0-79.047-31.75-79.047-72.348 0 40.598-34.688 72.348-79.047 72.348h0.003907c19.367-0.94922 38.352 5.6172 53 18.324 14.645 12.711 23.816 30.586 25.602 49.895h-82.738v82.734c-25.59-2.6328-48.094-18.062-59.773-40.98-11.676-22.922-10.93-50.199 1.9844-72.445 12.914-22.246 36.23-36.426 61.926-37.652-40.598 0-72.348-34.691-72.348-79.047v0.003906c0.089844 19.934-7.2812 39.184-20.672 53.957-13.391 14.77-31.828 23.992-51.68 25.852 19.164 1.4727 37.117 9.9453 50.434 23.805 13.312 13.863 21.062 32.141 21.762 51.348 0.26562 19.543-7.1484 38.414-20.648 52.551s-32.008 22.414-51.547 23.051c40.598 0 72.348 34.688 72.348 79.047h0.003906c-0.95312-19.367 5.6133-38.355 18.32-53 12.711-14.645 30.582-23.816 49.891-25.605v157.21c-19.309-1.7852-37.18-10.961-49.891-25.605-12.707-14.645-19.273-33.629-18.32-52.996 0 44.355-31.75 79.047-72.348 79.047 40.598 0 72.348 34.688 72.348 79.047v-0.003906c-0.95312-19.367 5.6133-38.352 18.32-52.996 12.711-14.648 30.582-23.82 49.891-25.605v157.2c-19.309-1.7852-37.18-10.957-49.891-25.602-12.707-14.648-19.273-33.633-18.32-53 0 44.355-31.75 79.047-72.348 79.047 40.598 0 72.348 34.688 72.348 79.047v-0.003906c-0.95312-19.367 5.6133-38.352 18.32-52.996 12.711-14.645 30.582-23.816 49.891-25.605v157.21c-19.309-1.7891-37.18-10.961-49.891-25.605-12.707-14.645-19.273-33.633-18.32-53 0 44.355-31.75 79.047-72.348 79.047 40.598 0 72.348 34.688 72.348 79.047-0.95312-19.367 5.6133-38.355 18.32-53 12.711-14.645 30.582-23.816 49.891-25.605v157.21c-19.309-1.7852-37.18-10.961-49.891-25.605-12.707-14.645-19.273-33.629-18.32-52.996 0 44.355-31.75 79.047-72.348 79.047l-0.003906-0.003907c19.461 0.62891 37.902 8.8398 51.387 22.879 13.484 14.039 20.945 32.797 20.789 52.266-0.74219 19.297-8.4688 37.672-21.746 51.699-13.277 14.027-31.199 22.754-50.43 24.551 19.715 1.5078 38.129 10.414 51.551 24.934 13.418 14.52 20.848 33.578 20.801 53.348 0-44.355 31.75-79.047 72.348-79.047-25.637-1.0781-48.961-15.137-61.887-37.301-12.926-22.168-13.676-49.387-1.9883-72.23s34.199-38.164 59.738-40.652v82.742h82.738c-1.7891 19.305-10.961 37.176-25.605 49.887-14.645 12.707-33.633 19.27-52.996 18.32 44.355 0 79.047 31.75 79.047 72.348 0-40.598 34.691-72.348 79.047-72.348h-0.003907c-19.367 0.94922-38.352-5.6133-52.996-18.32-14.645-12.711-23.82-30.582-25.609-49.887h157.21c-1.7852 19.305-10.961 37.176-25.605 49.887-14.645 12.707-33.629 19.27-52.996 18.32 44.355 0 79.047 31.75 79.047 72.348 0-40.598 34.688-72.348 79.047-72.348h-0.003906c-19.367 0.94922-38.352-5.6133-52.996-18.32-14.645-12.711-23.816-30.582-25.605-49.887h157.21c-1.7891 19.305-10.961 37.176-25.609 49.887-14.645 12.707-33.629 19.27-52.996 18.32 44.355 0 79.047 31.75 79.047 72.348 0-40.598 34.688-72.348 79.047-72.348-19.367 0.94922-38.352-5.6133-52.996-18.32-14.645-12.711-23.82-30.582-25.609-49.887h157.21c-1.7891 19.305-10.961 37.176-25.605 49.887-14.645 12.707-33.629 19.27-52.996 18.32 44.355 0 79.047 31.75 79.047 72.348 0-40.598 34.688-72.348 79.047-72.348h-0.003906c-19.367 0.94922-38.352-5.6133-52.996-18.32-14.645-12.711-23.82-30.582-25.605-49.887h157.21c-1.7891 19.305-10.965 37.176-25.609 49.887-14.645 12.707-33.629 19.27-52.996 18.32 44.355 0 79.047 31.75 79.047 72.348 0-40.598 34.688-72.348 79.047-72.348h-0.003907c-19.363 0.94922-38.352-5.6133-52.996-18.32-14.645-12.711-23.816-30.582-25.605-49.887h82.738v-82.742c18.824 1.7266 36.293 10.516 48.902 24.594 12.609 14.082 19.426 32.41 19.078 51.309-1.0195 19.082-8.8594 37.16-22.102 50.938-13.238 13.777-30.988 22.336-50.016 24.109 19.715 1.5078 38.129 10.414 51.551 24.934 13.418 14.52 20.848 33.578 20.801 53.348 0-44.355 31.75-79.047 72.348-79.047-26.148-1.1094-49.848-15.703-62.609-38.551-12.762-22.848-12.762-50.676 0-73.523 12.762-22.848 36.461-37.441 62.609-38.555-40.598 0-72.348-34.691-72.348-79.047v0.003906c0.94922 19.367-5.6172 38.352-18.324 52.996-12.711 14.645-30.582 23.82-49.891 25.605v-157.21c19.309 1.7891 37.18 10.961 49.891 25.605 12.707 14.645 19.273 33.633 18.324 53 0-44.355 31.75-79.047 72.348-79.047-40.598 0-72.348-34.688-72.348-79.047 0.94922 19.367-5.6172 38.355-18.324 53-12.711 14.645-30.582 23.816-49.891 25.605v-157.21c19.309 1.7852 37.18 10.961 49.891 25.605 12.707 14.645 19.273 33.629 18.324 52.996 0-44.355 31.75-79.047 72.348-79.047-40.598 0-72.348-34.688-72.348-79.047v0.003906c0.94922 19.367-5.6172 38.352-18.324 53-12.711 14.645-30.582 23.816-49.891 25.602v-157.2c19.309 1.7852 37.18 10.957 49.891 25.605 12.707 14.645 19.273 33.629 18.324 52.996 0-44.355 31.75-79.047 72.348-79.047-40.598 0-72.348-34.688-72.348-79.047v0.003906c0.94922 19.367-5.6172 38.352-18.324 52.996-12.711 14.645-30.582 23.82-49.891 25.605v-157.21c19.309 1.7891 37.18 10.961 49.891 25.605 12.707 14.645 19.273 33.633 18.324 53-0.003906-44.355 31.746-79.047 72.348-79.047zm-146.78 709.34h-786.3v-786.3h786.3zm6.2148-709.78v-82.734h-82.738c1.7812-19.277 10.926-37.121 25.531-49.824s33.547-19.285 52.883-18.375c19.062 1.4219 36.945 9.7734 50.277 23.473 13.328 13.703 21.184 31.809 22.082 50.906 0.49219 19.012-6.2617 37.5-18.898 51.715-12.633 14.215-30.199 23.094-49.137 24.84z"/>
</svg>
