<?xml version="1.0" encoding="UTF-8"?>
<svg width="1200pt" height="1200pt" version="1.1" viewBox="0 0 1200 1200" xmlns="http://www.w3.org/2000/svg">
 <path d="m1197.7 588.28h-257.81v-290.95l-177.79-177.79h-56.578v-117.19h-703.13v1078.1h117.19v117.19h820.31v-187.5h257.81zm-421.87-388.74 84.047 84.047h-84.047zm-726.56 834.05v-984.37h609.37v70.312h-539.06v914.06zm843.74 117.19h-726.56v-984.37h562.5v164.06h164.06v257.81h-632.81v421.87h632.81zm257.81-187.5h-843.74v-328.13h843.74z"/>
 <path d="m260.16 236.72h398.44v46.875h-398.44z"/>
 <path d="m260.16 353.9h398.44v46.875h-398.44z"/>
 <path d="m260.16 471.1h562.5v46.875h-562.5z"/>
 <path d="m400.78 822.66h70.312v70.312h46.875v-187.5h-46.875v70.312h-70.312v-70.312h-46.875v187.5h46.875z"/>
 <path d="m611.72 892.97h46.875v-140.63h46.875v-46.875h-140.63v46.875h46.875z"/>
 <path d="m799.22 799.13 46.922 62.531 46.922-62.531-0.046875 93.844h46.875c0-5.3906 0 36.938-0.046875-187.5h-35.156l-58.594 78.094c-5.5312-7.3594 20.953 27.891-58.594-78.094h-35.156v187.5h46.875z"/>
 <path d="m1103.9 846.1h-70.312v-140.63h-46.875v187.5h117.19z"/>
</svg>
