<?xml version="1.0" encoding="UTF-8"?>
<svg width="1200pt" height="1200pt" version="1.1" viewBox="0 0 1200 1200" xmlns="http://www.w3.org/2000/svg">
 <path d="m748.91 571.18c-4.0781-0.003906-7.9922-1.6289-10.875-4.5156-2.8828-2.8867-4.5-6.8008-4.4961-10.879 0-4.0781 1.6211-7.9922 4.5078-10.875s6.8008-4.5039 10.879-4.5039c4.082 0.003906 7.9922 1.625 10.879 4.5078 2.8828 2.8867 4.5039 6.8008 4.5039 10.879-0.007812 4.082-1.6328 7.9922-4.5195 10.875-2.8867 2.8867-6.7969 4.5078-10.879 4.5117zm-107.6 195.79c0.89062 4.3359-0.21875 8.8438-3.0234 12.273-2.8008 3.4297-6.9961 5.418-11.426 5.4102h-49.402c-3.332 0.035156-6.5742-1.0742-9.1875-3.1406-2.6133-2.0703-4.4336-4.9766-5.1602-8.2266-3.0156-12.758-6.7656-25.332-11.23-37.656 8.2812-7.3281 13.332-17.629 14.059-28.664 0.72656-11.031-2.9336-21.906-10.18-30.258s-17.496-13.508-28.523-14.34l-10.965-44.098c0.88281-0.57031 1.7422-1.1758 2.5273-1.8203l62.754 43.414c-1.125 3.8086-1.6953 7.7539-1.6914 11.723-0.011719 11.172 4.4219 21.883 12.316 29.781 7.8984 7.8984 18.613 12.332 29.781 12.32 1.3438 0.003906 2.6836-0.0625 4.0195-0.20312 6.5312 17.41 11.66 35.316 15.332 53.547zm-132.76-62.703c0.003906 4.0781 1.6289 7.9922 4.5156 10.875 2.8867 2.8828 6.8008 4.5 10.879 4.4961 4.082 0 7.9922-1.625 10.875-4.5117 2.8828-2.8828 4.5039-6.7969 4.5039-10.875-0.003906-4.082-1.625-7.9922-4.5078-10.879-2.8867-2.8828-6.8008-4.5039-10.879-4.5039-4.0781 0.011719-7.9883 1.6367-10.871 4.5234-2.8867 2.8828-4.5078 6.793-4.5156 10.875zm-30.316-121.4h0.003906c0-4.082 1.6211-8 4.5078-10.887 2.8867-2.8867 6.8008-4.5117 10.883-4.5117 4.0859 0 8 1.6211 10.891 4.5039 2.8867 2.8867 4.5117 6.8008 4.5117 10.887 0.003907 4.082-1.6172 8-4.5 10.887-2.8867 2.8906-6.8008 4.5156-10.883 4.5195-4.0859 0-8.0039-1.6211-10.895-4.5117-2.8906-2.8867-4.5156-6.8008-4.5156-10.887zm-95.141-79.855c-4.082 0-7.9961-1.625-10.887-4.5117-2.8867-2.8867-4.5078-6.8008-4.5078-10.883-0.003906-4.0859 1.6172-8 4.5039-10.887 2.8867-2.8906 6.8008-4.5156 10.883-4.5156 4.0859-0.003906 8 1.6172 10.891 4.5 2.8867 2.8867 4.5117 6.8008 4.5156 10.883-0.003906 4.0859-1.625 8-4.5117 10.891s-6.8008 4.5156-10.887 4.5234zm-104.11 11.117v-0.003906c-2.4648-2.9375-5.3164-5.5273-8.4727-7.7031l16.789-58.926-0.003906-0.003906c7.0898-0.30469 13.984-2.4219 20.023-6.1484l36.719 30.848v-0.003906c-1.9727 4.8984-2.9844 10.133-2.9805 15.41 0 0.73438 0 1.4414 0.10156 2.1484l-62.109 24.367zm-32.199 42.367 0.003906-0.003906c-4.0859 0-8-1.6211-10.887-4.5078-2.8867-2.8867-4.5117-6.8047-4.5117-10.887 0-4.082 1.6172-8 4.5039-10.887 2.8867-2.8867 6.8008-4.5117 10.887-4.5156 4.082 0 8 1.6172 10.887 4.5039 2.8906 2.8828 4.5156 6.8008 4.5195 10.883 0 4.0859-1.625 8.0039-4.5117 10.891-2.8867 2.8906-6.8047 4.5156-10.887 4.5195zm-96.871-81.309 0.003906-0.003907c-4.082-0.007812-7.9883-1.6328-10.871-4.5234-2.8789-2.8867-4.4961-6.8008-4.4922-10.879 0.007812-4.0781 1.6289-7.9883 4.5156-10.871 2.8867-2.8828 6.8008-4.5 10.879-4.5 4.0781 0.003906 7.9922 1.625 10.875 4.5117 2.8828 2.8828 4.5039 6.7969 4.5039 10.875-0.007813 4.082-1.6328 7.9961-4.5234 10.883-2.8906 2.8828-6.8047 4.5039-10.887 4.5039zm46.293-107.75h0.51953l0.003906-0.007813c7.2305 0.007813 14.34-1.8711 20.625-5.4414l29.559 26.703c-3.9531 8.957-4.6406 19.016-1.9414 28.43 2.6953 9.4102 8.6094 17.578 16.707 23.082l-16.801 58.926c-7.0742 0.31641-13.949 2.4258-19.98 6.1367l-35.836-30.09v0.003906c3.3672-8.4609 3.8828-17.785 1.4688-26.562-2.418-8.7812-7.6367-16.527-14.859-22.07l20.602-59.141zm0.51953-57.422 0.003906-0.007813c4.082-0.003906 8.0039 1.6172 10.895 4.5039 2.8906 2.8867 4.5117 6.8047 4.5156 10.891 0 4.0859-1.6211 8.0039-4.5117 10.891-2.8867 2.8906-6.8047 4.5117-10.891 4.5117-4.0859 0-8.0039-1.625-10.891-4.5156s-4.5078-6.8086-4.5039-10.895c0.011719-4.0781 1.6328-7.9844 4.5156-10.867 2.8867-2.8867 6.793-4.5078 10.871-4.5195zm218.84-132.4c4.0859-0.003906 8.0039 1.6133 10.891 4.5 2.8906 2.8867 4.5156 6.8008 4.5195 10.883 0.003907 4.0859-1.6133 8.0039-4.5 10.895s-6.8008 4.5156-10.883 4.5195c-4.0859 0-8.0039-1.6172-10.895-4.5039-2.8867-2.8828-4.5156-6.8008-4.5156-10.883 0-4.082 1.6172-8 4.5039-10.887 2.8828-2.8906 6.7969-4.5156 10.879-4.5234zm238.31 31.438c4.082 0 8 1.6172 10.891 4.5039 2.8906 2.8828 4.5156 6.8008 4.5195 10.883 0.003906 4.0859-1.6172 8.0039-4.5 10.891-2.8867 2.8906-6.8008 4.5156-10.887 4.5195-4.082 0.003906-8-1.6133-10.891-4.5-2.8906-2.8867-4.5156-6.8008-4.5195-10.883 0-4.0859 1.6211-8 4.5039-10.891 2.8867-2.8867 6.8008-4.5156 10.883-4.5234zm115.29 105.56c4.082 0 8 1.6172 10.891 4.5039 2.8906 2.8828 4.5156 6.8008 4.5195 10.883 0.003906 4.082-1.6172 8-4.5 10.891-2.8867 2.8906-6.8008 4.5156-10.887 4.5195-4.082 0.003906-8-1.6172-10.891-4.5-2.8906-2.8867-4.5156-6.8008-4.5195-10.887 0-4.082 1.6211-7.9961 4.5039-10.887 2.8867-2.8906 6.8008-4.5156 10.883-4.5234zm-483.7 106.34c-4.0859 0-8.0039-1.6172-10.895-4.5039-2.8906-2.8906-4.5156-6.8047-4.5156-10.891 0-4.0859 1.6211-8.0039 4.5117-10.895 2.8867-2.8867 6.8047-4.5078 10.891-4.5078 4.0859 0 8.0039 1.625 10.891 4.5156s4.5078 6.8086 4.5039 10.895c-0.007813 4.0781-1.6289 7.9883-4.5156 10.871-2.8828 2.8828-6.793 4.5078-10.871 4.5156zm241.38-63.156 0.003906-0.003907c-0.003906-4.0859 1.6172-8.0039 4.5039-10.895s6.8047-4.5156 10.891-4.5156c4.082 0 8 1.6211 10.891 4.5117 2.8867 2.8867 4.5117 6.8047 4.5078 10.891 0 4.0859-1.625 8.0039-4.5156 10.891s-6.8086 4.5078-10.895 4.5039c-4.0781-0.007812-7.9883-1.6289-10.871-4.5156-2.8828-2.8828-4.5078-6.793-4.5117-10.871zm-131.63-24.32c4.0859 0 8.0078 1.625 10.898 4.5195 2.8906 2.8906 4.5117 6.8125 4.5117 10.902-0.003906 4.0859-1.6289 8.0078-4.5234 10.895-2.8945 2.8906-6.8164 4.5117-10.906 4.5039-4.0859-0.003907-8.0078-1.6328-10.895-4.5273-2.8867-2.8945-4.5039-6.8164-4.5-10.906 0.007812-4.082 1.6367-7.9961 4.5234-10.883 2.8906-2.8828 6.8047-4.5039 10.891-4.5039zm10.383 118.74c-1.8242-1.1719-3.7383-2.1992-5.7227-3.0703l5.168-59.367h-0.003906c13.176-3.1992 24.012-12.531 29.129-25.086l67.516 4.1289c0.34766 1.3438 0.76953 2.668 1.2656 3.9648l-97.375 79.453zm205.29 6.2383h-0.003906c0.003906-4.082 1.6289-7.9961 4.5195-10.883 2.8906-2.8828 6.8047-4.5039 10.887-4.5 4.0859 0 8 1.625 10.887 4.5117 2.8867 2.8906 4.5039 6.8047 4.5039 10.891 0 4.082-1.625 7.9961-4.5117 10.883-2.8867 2.8867-6.8008 4.5078-10.887 4.5078-4.0859 0-8.0039-1.6211-10.891-4.5117s-4.5078-6.8125-4.5078-10.898zm63.398-197.18 56.527 51.789-0.003906 0.003906c-4.832 10.738-4.8984 23.023-0.17578 33.812l-83.633 75.02c-6.3086-3.6055-13.449-5.5039-20.719-5.5078-5.2539 0.015625-10.457 1.0078-15.348 2.9297l-32.93-39.41c4.1133-6.5977 6.293-14.215 6.293-21.992 0-7.7734-2.1797-15.391-6.293-21.988l60.531-72.316c11.664 4.6328 24.793 3.7656 35.746-2.3633zm-220.94-49.844c-5.7891 11.848-16.785 20.305-29.723 22.852l-10.031 76.801h0.003906c10.934 5.3359 19.027 15.145 22.191 26.891l67.527 4.1289v0.003906c3.1328-7.7617 8.5117-14.414 15.449-19.102 6.9336-4.6875 15.113-7.1992 23.484-7.2109 5.2578 0 10.473 1.0039 15.359 2.957l60.504-72.305c-2.6484-4.3086-4.5039-9.0586-5.4805-14.02zm-215.56 104.77c0.69922 3.0195 1.0586 6.1055 1.0625 9.207-0.003906 5.8008-1.2148 11.539-3.5508 16.852l29.559 26.691v-0.003906c7.8906-4.4766 17.027-6.2656 26.023-5.0938 9 1.168 17.371 5.2305 23.859 11.574l38.941-20.133c-0.35938-2.1367-0.54297-4.3008-0.55469-6.4688 0.019532-9.75 3.4219-19.191 9.625-26.715 6.2031-7.5234 14.824-12.66 24.391-14.539l10.105-76.801c-3.1719-1.5352-6.1406-3.457-8.8398-5.7227zm123.47 135.61c3.7461-2.3125 7.8359-4.0156 12.113-5.0508l5.1406-59.367h0.003906c-4.6719-2.0234-8.9297-4.8828-12.57-8.4375l-38.992 20.207c0.35547 2.1406 0.54297 4.3008 0.55469 6.4688 0 5.2773-1.0078 10.508-2.9688 15.41l36.633 30.832zm111.01 94.988v0.003906c6.4805-3.9141 13.906-5.9805 21.473-5.9766 6.9609 0.007813 13.812 1.7422 19.934 5.0547l74.527-69.941c-5.9375-12.746-5.0352-27.629 2.3984-39.562l-32.93-39.41c-4.8906 1.9219-10.094 2.9141-15.348 2.9297-7.9453-0.003906-15.727-2.2773-22.422-6.5547l-97.391 79.426h0.003906c3.8281 9.9336 3.6953 20.961-0.38281 30.797l50.184 43.25zm149.7 82.766c7.1602-0.007813 14.199 1.832 20.438 5.3438l68.109-62.109h0.003906c-2.3906-5.3516-3.6289-11.145-3.6289-17.004 0.007812-4.8945 0.86328-9.75 2.5273-14.348l-60.254-47.859v-0.003906c-6.3164 4.1328-13.633 6.4844-21.176 6.8008-7.5391 0.3125-15.027-1.4141-21.668-5.0078l-74.527 69.941c4.2695 9.1641 5.0547 19.566 2.2109 29.27l62.742 43.414c7.2461-5.4688 16.078-8.4336 25.16-8.4375zm0 57.438v-0.003906c4.0859 0 8.0039-1.6211 10.891-4.5117 2.8867-2.8867 4.5117-6.8047 4.5078-10.891 0-4.082-1.625-8-4.5117-10.887-2.8906-2.8867-6.8086-4.5078-10.895-4.5039-4.082 0-8 1.625-10.887 4.5156-2.8867 2.8906-4.5039 6.8086-4.5 10.895 0.003907 4.0781 1.6289 7.9922 4.5156 10.875 2.8867 2.8828 6.8008 4.5078 10.879 4.5078zm163.54-277.21-14.488-37.82c-0.63281 0-1.2617 0.089843-1.8438 0.089843-7.2773-0.003906-14.426-1.8984-20.742-5.5078l-83.598 75.094h0.003906c2.2891 5.2812 3.4766 10.973 3.4844 16.727 0.007812 4.8906-0.84766 9.7422-2.5273 14.336l60.289 47.875h0.003906c6.7969-4.4531 14.75-6.8203 22.875-6.8086 2.6094 0.003906 5.2148 0.25 7.7812 0.73047l24.504-43.996c-7.7812-8.4883-11.727-19.801-10.91-31.285 0.8125-11.484 6.3164-22.129 15.219-29.434zm42.125 32.438c0.003907 4.082-1.6133 8-4.5 10.891-2.8828 2.8906-6.7969 4.5156-10.879 4.5195-4.0859 0.003906-8.0039-1.6133-10.895-4.4961-2.8906-2.8828-4.5156-6.7969-4.5195-10.879-0.007813-4.0859 1.6094-8.0039 4.4922-10.895 2.8828-2.8906 6.7969-4.5195 10.879-4.5273 4.082 0.003907 7.9922 1.625 10.879 4.5117 2.8867 2.8828 4.5117 6.793 4.5195 10.875zm-47.695 85.289 24.543-43.996c11.594 2.1133 23.543-0.73828 32.934-7.8594 9.3867-7.1211 15.355-17.859 16.449-29.59 1.0898-11.734-2.793-23.391-10.711-32.121-7.9141-8.7305-19.133-13.738-30.918-13.797-0.61719 0-1.2617 0.074219-1.832 0.089844l-14.523-37.707c10.914-8.957 16.598-22.793 15.137-36.836-1.4648-14.039-9.8828-26.41-22.41-32.922-12.523-6.5117-27.484-6.2969-39.816 0.57422l-56.5-51.789h-0.003906c5.9453-13.535 4.3359-29.199-4.2305-41.246-8.5703-12.047-22.84-18.703-37.578-17.527-14.738 1.1758-27.77 10.012-34.32 23.266l-159.3-21.02c-2.0703-11.117-8.5352-20.93-17.93-27.223-9.3984-6.293-20.934-8.5312-32.004-6.2148-11.066 2.3203-20.734 9-26.812 18.535-6.082 9.5352-8.0625 21.117-5.5 32.133l-150.62 91.125c-8.6133-7.3672-19.836-10.938-31.121-9.9062s-21.676 6.5781-28.809 15.383c-7.1328 8.8047-10.406 20.121-9.0781 31.375 1.332 11.254 7.1523 21.492 16.145 28.391l-20.602 59.168h-0.54297v-0.003907c-13.18-0.027343-25.609 6.125-33.574 16.621-7.9648 10.5-10.543 24.125-6.9688 36.809 3.5781 12.684 12.895 22.957 25.172 27.746 12.277 4.7891 26.09 3.543 37.312-3.3633l35.836 30.09v-0.003906c-4.5977 11.652-3.7539 24.746 2.2891 35.715 6.0469 10.969 16.668 18.668 28.973 21.008 12.305 2.3359 25.012-0.9375 34.656-8.9258 9.6484-7.9883 15.23-19.859 15.227-32.387 0-0.70703-0.10156-1.4141-0.11328-2.1328l62.148-24.391h-0.003906c7.9609 9.5859 19.766 15.137 32.227 15.156 7.5664 0.003906 14.992-2.0625 21.473-5.9766l50.184 43.262v0.003906c-5.1133 12.418-3.9727 26.531 3.0664 37.969s19.129 18.816 32.52 19.844l11.004 44.098h-0.003906c-10.305 6.5508-17.25 17.262-19.027 29.344-1.7773 12.082 1.7891 24.34 9.7734 33.578 7.9805 9.2422 19.59 14.551 31.801 14.547 1.1602 0 2.3125-0.089844 3.4492-0.17578 3.8672 10.895 7.1445 21.988 9.8164 33.234 2.1094 9.082 7.2422 17.184 14.555 22.973 7.3125 5.7891 16.375 8.9258 25.699 8.8984h49.402c12.426-0.003906 24.191-5.582 32.051-15.207 7.8594-9.6211 10.977-22.262 8.4961-34.438-4.0547-20.156-9.7617-39.945-17.062-59.164 6.4883-5.9219 10.949-13.738 12.746-22.34 1.793-8.6016 0.83594-17.551-2.7422-25.574l68.109-62.109c11.707 6.5664 25.844 7.1406 38.043 1.5391 12.199-5.5977 20.984-16.691 23.637-29.848 2.6562-13.16-1.1445-26.793-10.219-36.68zm344.69 597.14c-11.035 11.008-25.98 17.188-41.566 17.188-15.582 0-30.531-6.1797-41.562-17.188l-151.19-151.21 83.141-83.129 151.18 151.19c10.984 11.047 17.152 25.996 17.152 41.574 0 15.582-6.168 30.531-17.152 41.578zm-230.96-314.11 27.172 27.133-83.168 83.168-27.145-27.133 83.141-83.129zm-108.52 1.6562c4.6836-4.3125 9.3125-8.7148 13.895-13.211 4.582-4.5 8.9688-9.1094 13.164-13.836l34.559 34.637-26.98 26.98-34.637-34.559zm-603.07-32.059c79.309 79.305 186.87 123.86 299.03 123.86 112.16-0.003906 219.72-44.559 299.03-123.87 79.309-79.309 123.86-186.88 123.86-299.03 0-112.16-44.555-219.72-123.86-299.03-79.309-79.305-186.88-123.86-299.04-123.86-112.16 0.003906-219.72 44.559-299.03 123.87s-123.86 186.88-123.86 299.03c0 112.16 44.559 219.72 123.87 299.03zm772.54 91.328-14.969-14.969-83.141 83.152 14.957 14.969zm-51.465-89.195c-2.4961-2.5039-5.8867-3.9141-9.4219-3.9141s-6.9258 1.4102-9.4219 3.9141l-18.684 18.57-35.91-35.898v-0.003906c72.691-89.383 108.29-203.27 99.445-318.14-8.8438-114.87-61.453-221.96-146.97-299.17-85.516-77.207-197.41-118.63-312.59-115.73s-224.84 49.922-306.36 131.34c-81.516 81.5-128.61 191.2-131.56 306.43-2.9453 115.23 38.484 227.19 115.73 312.75 77.25 85.559 184.41 138.17 299.34 146.97 114.93 8.8008 228.86-26.883 318.23-99.68l35.91 35.898-18.629 18.594c-5.1914 5.2109-5.1914 13.637 0 18.848l240.38 240.38c21.586 21.582 53.047 30.012 82.531 22.113 29.484-7.9023 52.516-30.934 60.418-60.418 7.8984-29.484-0.53125-60.945-22.117-82.531z" fill-rule="evenodd"/>
</svg>
