<?xml version="1.0" encoding="UTF-8"?>
<svg width="1200pt" height="1200pt" version="1.1" viewBox="0 0 1200 1200" xmlns="http://www.w3.org/2000/svg">
 <path d="m600 19.199c-322.8 0-585.6 261.6-585.6 585.6s262.8 584.4 585.6 584.4 585.6-261.6 585.6-585.6c0-324-262.8-584.4-585.6-584.4zm0 979.2c-162 0-265.2-156-265.2-398.4 0-241.2 104.4-398.4 265.2-398.4 105.6 0 187.2 66 230.4 183.6 4.8008 14.398-2.3984 28.801-15.602 33.602-13.199 4.8008-28.801-2.3984-33.602-15.602-24-68.398-76.801-148.8-180-148.8-157.2 0-212.4 186-212.4 345.6 0 159.6 55.199 345.6 212.4 345.6 139.2 0 199.2-145.2 210-291.6l-211.2-0.003906c-14.398 0-26.398-12-26.398-26.398 0-14.398 12-26.398 26.398-26.398h238.8c6 0 14.398 3.6016 19.199 8.3984 4.8008 4.8008 7.1992 12 7.1992 19.199-8.3984 228-109.2 369.6-265.2 369.6z"/>
</svg>
