<?xml version="1.0" encoding="UTF-8"?>
<svg width="1200pt" height="1200pt" version="1.1" viewBox="0 0 1200 1200" xmlns="http://www.w3.org/2000/svg">
 <path d="m1108.9 506.44-90.75-12.938c-10.125-39.938-26.062-78-47.25-113.62l55.125-73.5c5.625-7.5 4.875-18-1.6875-24.562l-106.12-106.12c-6.5625-6.5625-17.062-7.3125-24.562-1.6875l-73.5 55.125c-35.438-21-73.5-36.75-113.62-47.062l-12.938-90.938c-1.3125-9.1875-9.1875-16.125-18.562-16.125h-150c-9.375 0-17.25 6.9375-18.562 16.125l-12.938 90.938c-40.312 10.312-78.375 26.062-113.62 47.062l-73.5-55.125c-7.5-5.625-18-4.875-24.562 1.6875l-106.12 106.12c-6.5625 6.5625-7.3125 17.062-1.6875 24.562l55.125 73.5c-21.188 35.625-37.125 73.688-47.25 113.62l-90.75 12.938c-9.1875 1.3125-16.125 9.1875-16.125 18.562v150c0 9.375 6.9375 17.25 16.125 18.562l90.75 12.938c10.125 39.938 26.062 78 47.25 113.62l-55.125 73.5c-5.625 7.5-4.875 18 1.6875 24.562l106.12 106.12c6.5625 6.5625 17.062 7.3125 24.562 1.6875l73.5-55.125c35.438 21 73.5 36.75 113.62 47.062l12.938 90.938c1.3125 9.1875 9.1875 16.125 18.562 16.125h150c9.375 0 17.25-6.9375 18.562-16.125l12.938-90.75c39.938-10.312 78-26.062 113.62-47.25l73.5 55.125c7.5 5.625 18 4.875 24.562-1.6875l106.12-106.12c6.5625-6.5625 7.3125-17.062 1.6875-24.562l-55.125-73.5c21-35.438 36.75-73.5 47.062-113.62l90.938-12.938c9.1875-1.3125 16.125-9.1875 16.125-18.562v-150c0-9.375-6.9375-17.25-16.125-18.562zm-508.87 449.81c-196.5 0-356.26-159.74-356.26-356.26 19.5-472.64 693.1-472.5 712.5 0 0 196.5-159.74 356.26-356.26 356.26z"/>
 <path d="m600 281.26c-175.69 0-318.74 143.06-318.74 318.74 17.812 422.9 619.74 422.81 637.5 0 0-175.69-143.06-318.74-318.74-318.74zm225 468.74h-97.125c-7.6875 21.75-28.5 37.5-52.875 37.5h-37.5c-24.375 0-45.188-15.75-52.875-37.5h-209.63c-24.469-0.42188-24.75-37.031 0-37.5h209.63c7.6875-21.75 28.5-37.5 52.875-37.5h37.5c24.375 0 45.188 15.75 52.875 37.5h97.125c24.516 0.42188 24.75 37.031 0 37.5zm0-131.26h-247.13c-7.6875 21.75-28.5 37.5-52.875 37.5h-37.5c-24.375 0-45.188-15.75-52.875-37.5h-59.625c-24.516-0.42188-24.703-37.031 0-37.5h59.625c7.6875-21.75 28.5-37.5 52.875-37.5h37.5c24.375 0 45.188 15.75 52.875 37.5h247.13c24.422 0.42187 24.797 37.031 0 37.5zm18.75-150c0 10.312-8.4375 18.75-18.75 18.75h-59.625c-7.6875 21.75-28.5 37.5-52.875 37.5h-37.5c-24.375 0-45.188-15.75-52.875-37.5h-247.13c-10.312 0-18.75-8.4375-18.75-18.75s8.4375-18.75 18.75-18.75h247.13c7.6875-21.75 28.5-37.5 52.875-37.5h37.5c24.375 0 45.188 15.75 52.875 37.5h59.625c10.312 0 18.75 8.4375 18.75 18.75z"/>
 <path d="m675 712.5h-37.5c-24.609 0.46875-24.656 37.031 0 37.5h37.5c24.609-0.46875 24.656-37.031 0-37.5z"/>
 <path d="m525 581.26h-37.5c-24.609 0.46875-24.656 37.031 0 37.5h37.5c24.609-0.46875 24.656-37.031 0-37.5z"/>
 <path d="m712.5 450h-37.5c-24.609 0.46875-24.656 37.031 0 37.5h37.5c24.609-0.46875 24.656-37.031 0-37.5z"/>
</svg>
