<?xml version="1.0" encoding="UTF-8"?>
<svg width="1200pt" height="1200pt" version="1.1" viewBox="0 0 1200 1200" xmlns="http://www.w3.org/2000/svg">
 <path d="m1050 320.16h-900c-36.234 0-65.578 29.391-65.625 65.625v428.44c0.046875 36.234 29.391 65.625 65.625 65.625h900c36.234 0 65.578-29.391 65.625-65.625v-428.44c-0.046875-36.234-29.391-65.625-65.625-65.625zm-900 503.44c-5.1562 0-9.375-4.1719-9.375-9.375v-428.44c0-5.2031 4.2188-9.375 9.375-9.375h900c5.1562 0 9.375 4.1719 9.375 9.375v428.44c0 5.2031-4.2188 9.375-9.375 9.375zm849-405.28h18.75v368.21h-18.75zm-49.5 0h18.75v368.21h-18.75zm-99 0h18.75v368.21h-18.75zm-49.5 0h18.75v368.21h-18.75zm-49.5 0h18.75v368.21h-18.75zm-49.5 0h18.75v368.21h-18.75zm-74.25 0h18.75v368.21h-18.75zm-49.5 0h18.75v368.21h-18.75zm-49.5 0h18.75v368.21h-18.75zm-49.5 0h18.75v368.21h-18.75zm-49.5 0h18.75v368.21h-18.75zm-148.5 0h18.75v368.21h-18.75zm-49.5 0h18.75v368.21h-18.75zm151.45 305.26h18.75v19.734h-18.75zm0 41.484h18.75v19.781h-18.75zm0-83.016h18.75v19.781h-18.75zm0-263.76h18.75v240.89h-18.75zm-202.74 42.938h18.75v19.734h-18.75zm0-41.484h18.75v19.734h-18.75zm0 83.016h18.75v19.734h-18.75zm0 42.703h18.75v240.79h-18.75z"/>
</svg>
