<?xml version="1.0" encoding="UTF-8"?>
<svg width="1200pt" height="1200pt" version="1.1" viewBox="0 0 1200 1200" xmlns="http://www.w3.org/2000/svg">
 <path d="m1037.5 504.84c-23.625-19.312-53.812-24.188-85.875-14.109-7.1719-24.609-23.719-42.094-45.75-47.766-20.578-5.2969-42.562 0.98438-61.547 16.875-4.9219-33.141-25.453-60.938-59.391-79.734-55.688-30.844-132.66-29.016-179.06 4.2188-29.625 21.234-44.203 53.344-42.094 91.641-19.172-6.5625-39.047-4.4062-54.75 6.6094-17.531 12.281-26.438 33.469-25.125 58.594-34.969-13.734-66.938-12.656-89.391 3.5625-21.938 15.844-31.734 44.344-27.984 80.812-38.531 12.891-68.203 30.891-86.156 52.406-18.094 21.656-24.094 46.594-16.922 70.172 17.25 56.672 105.38 94.172 223.6 59.906 53.484 26.578 96.375 35.812 131.06 28.266 24.422-5.2969 40.688-17.719 54.234-31.406 22.078 32.391 70.406 49.453 113.3 49.453 6.2344 0 12.328-0.375 18.234-1.0781 42.047-5.1562 71.109-26.297 81.656-58.688 42.281 22.266 81.375 8.1562 105-14.062 26.812-25.219 36.188-60.797 24.844-90.094 31.219-13.406 52.547-40.078 59.109-74.531 8.0156-41.812-6.8438-86.438-36.984-111.05zm18.281 107.48c-3.4688 18.234-15.469 50.766-56.438 63.75-2.7656 0.89062-4.9688 2.9531-6.0469 5.6719-1.0312 2.7188-0.79688 5.7656 0.70312 8.25 13.688 23.109 6.8906 54.609-16.547 76.641-20.391 19.172-55.5 30.609-92.812 5.2031-2.7188-1.8281-6.1406-2.1562-9.1406-0.89062-3 1.3125-5.1094 4.0312-5.625 7.2656-6.9844 43.922-50.109 53.906-68.344 56.109-50.203 6.1875-104.44-16.359-118.41-49.219-1.2656-3-3.9844-5.1094-7.1719-5.6719-0.51562-0.09375-1.0781-0.14062-1.5938-0.14062-2.6719 0-5.25 1.125-7.0781 3.1406-23.578 26.109-59.25 65.531-175.03 6.8438-2.2031-1.125-4.6875-1.3125-7.0312-0.60938-107.25 32.25-189.14 1.1719-203.53-46.078-12-39.516 26.484-79.219 98.109-101.25 4.5-1.4062 7.3594-5.8594 6.6094-10.547-5.0156-32.906 1.8281-57.984 19.266-70.547 19.547-14.109 51.609-12.141 85.688 5.25 3.2812 1.6875 7.2656 1.3125 10.172-0.9375s4.2656-6 3.4688-9.6094c-5.7188-25.312-0.28125-45.984 15-56.672 13.922-9.75 33.141-9 50.156 1.9219 3.1875 2.0625 7.3125 2.0156 10.453-0.09375s4.7344-5.9062 4.0781-9.6094c-7.0312-39.047 4.125-70.406 32.297-90.609 40.125-28.781 109.88-30.094 158.72-3.0469 20.156 11.156 53.531 37.031 50.531 85.078-0.28125 4.1719 2.2031 8.0156 6.1406 9.5156 3.8906 1.5 8.2969 0.23438 10.875-3.0469 17.062-21.797 38.719-31.875 57.891-26.953 17.672 4.5 30.422 20.766 34.172 43.453 0.46875 2.8594 2.2031 5.3438 4.7812 6.7969 2.5312 1.4062 5.5781 1.5938 8.25 0.51562 29.625-12.141 56.25-9.6094 77.062 7.4062 24.469 20.016 36.938 58.125 30.328 92.719zm-726.24-55.875c3.75 0 7.5938-0.1875 11.484-0.5625 27.047-2.5312 58.5-15.422 71.484-43.219 3.0938 0.51562 6.2812 0.79688 9.5156 0.84375h1.0781c31.641 0 59.719-21.375 64.078-49.078 2.0156-12.797-1.4062-25.266-9.7031-35.062-7.875-9.3281-19.547-15.281-32.766-17.438 0.14062-0.65625 0.32812-1.2656 0.46875-1.875 2.2031-13.875-1.7812-27.656-11.156-38.859-13.359-15.891-35.859-25.219-61.734-25.594-31.406-0.46875-61.219 12.516-77.625 32.953-8.3906-4.1719-18.281-6.5156-28.828-6.6562-28.594-0.375-54 14.578-61.969 35.203-5.1094-1.2188-10.406-2.0625-15.891-2.1562-32.109-0.42188-60.281 18.375-64.172 42.938-1.6406 10.312 1.3125 20.578 8.2969 28.875 9.6562 11.484 25.828 18.234 44.297 18.516h1.1719c0.60938 0 1.2188-0.09375 1.8281-0.09375 0.1875 8.1094 3.0469 15.984 8.5781 22.594 9.6562 11.484 25.828 18.234 44.297 18.516h1.1719c10.828 0 21.562-2.2969 31.172-6.5625 13.125 16.828 36.984 26.672 64.922 26.672zm-96.984-39.188c-12.797-0.1875-24-4.5938-30-11.719-3.4688-4.125-4.8281-8.7188-4.0312-13.641 0.1875-1.3125 0.5625-2.625 1.0781-3.9375 0.09375-0.23438 0.046875-0.51562 0.14062-0.75 0.1875-0.60938 0.28125-1.2188 0.32812-1.875s0.09375-1.2656 0-1.9219c-0.046875-0.23438 0.046875-0.51562 0-0.75-0.046875-0.32812-0.28125-0.60938-0.375-0.9375-0.1875-0.60938-0.42188-1.2188-0.75-1.7812-0.28125-0.5625-0.65625-1.0312-1.0312-1.4531-0.375-0.46875-0.79688-0.89062-1.2656-1.2656-0.51562-0.42188-1.0781-0.75-1.6406-1.0781-0.28125-0.14062-0.51562-0.42188-0.84375-0.5625-0.23438-0.09375-0.46875-0.046875-0.75-0.14062-0.60938-0.1875-1.2188-0.28125-1.875-0.32812s-1.2656-0.09375-1.875 0c-0.23438 0.046875-0.51562-0.046875-0.75 0-4.0312 0.79688-8.1094 1.125-12.188 1.0781-12.797-0.1875-24-4.5938-30-11.719-3.4688-4.125-4.8281-8.7188-4.0312-13.641 2.3438-14.906 23.016-27.188 45.047-26.859 6.9844 0.09375 13.641 1.4531 19.219 3.9375 0.5625 0.23438 1.1719 0.23438 1.7344 0.375s1.0781 0.375 1.6875 0.42188h0.42188c0.60938 0 1.125-0.23438 1.6875-0.32812 0.60938-0.09375 1.2188-0.14062 1.7812-0.32812 0.75-0.28125 1.4062-0.79688 2.0625-1.3125 0.32812-0.23438 0.70312-0.375 0.98438-0.60938 0.89062-0.84375 1.5938-1.875 2.1094-3l0.046875-0.046875c0.1875-0.42188 0.14062-0.84375 0.28125-1.2656 0.1875-0.70312 0.51562-1.4062 0.51562-2.2031 0.046875-0.60938 0.09375-1.2656 0.1875-1.875 2.3438-14.906 23.016-27.188 45.047-26.859 10.266 0.14062 19.5 2.9531 26.016 7.9219 0.1875 0.14062 0.375 0.14062 0.5625 0.28125s0.28125 0.32812 0.46875 0.42188c0.375 0.23438 0.79688 0.23438 1.2188 0.42188 0.60938 0.23438 1.1719 0.46875 1.8281 0.60938 0.60938 0.09375 1.1719 0.09375 1.7812 0.09375s1.2188 0 1.8281-0.14062 1.125-0.32812 1.6875-0.5625 1.125-0.46875 1.6406-0.79688 0.98438-0.79688 1.4062-1.2656c0.32812-0.28125 0.70312-0.46875 0.98438-0.84375 0.14062-0.1875 0.14062-0.375 0.28125-0.5625s0.32812-0.28125 0.42188-0.46875c10.875-18.938 38.203-31.781 66.375-31.406 20.062 0.28125 37.781 7.3125 47.438 18.797 5.8594 6.9844 8.2969 15.141 6.9375 23.578-0.51562 3.1406-1.5 6.2344-2.9531 9.2812-0.046875 0.14062-0.046875 0.28125-0.09375 0.42188-0.23438 0.5625-0.32812 1.1719-0.46875 1.8281s-0.28125 1.2656-0.28125 1.875c0 0.14062-0.09375 0.28125-0.046875 0.42188 0 0.46875 0.23438 0.84375 0.32812 1.3125 0.14062 0.65625 0.23438 1.2656 0.46875 1.875s0.60938 1.0781 0.9375 1.6406c0.32812 0.46875 0.60938 0.98438 1.0312 1.4062 0.46875 0.51562 1.0312 0.84375 1.6406 1.2188 0.375 0.23438 0.60938 0.5625 0.98438 0.75 0.14062 0.046875 0.23438 0.046875 0.375 0.09375 0.89062 0.375 1.875 0.5625 2.8594 0.65625 0.32812 0.046875 0.60938 0.1875 0.89062 0.1875 0.09375 0 0.14062-0.046875 0.1875-0.046875 0.09375 0 0.14062 0.046875 0.1875 0.046875 0.9375-0.046875 1.9219-0.046875 2.8594-0.046875 11.484 0.1875 21.562 4.4062 27.656 11.625 4.7344 5.625 6.6094 12.469 5.4375 19.828-2.9062 18.188-23.953 33.375-46.031 33-4.5-0.046875-8.7656-0.75-12.75-2.0156-5.0156-1.5938-10.359 1.125-12 6.1406-0.09375 0.28125-0.046875 0.60938-0.09375 0.89062-7.6406 24.281-36 35.391-58.172 37.453-28.875 2.7188-54.141-6.8906-62.859-23.906-0.046875-0.09375-0.1875-0.1875-0.23438-0.28125s-0.046875-0.23438-0.14062-0.32812c-0.28125-0.46875-0.70312-0.75-1.0312-1.125-0.42188-0.46875-0.79688-0.98438-1.2656-1.3594-0.51562-0.375-1.0312-0.60938-1.5938-0.89062s-1.0781-0.5625-1.6406-0.75c-0.60938-0.1875-1.1719-0.1875-1.7812-0.23438s-1.1719-0.14062-1.8281-0.09375c-0.60938 0.046875-1.2188 0.32812-1.8281 0.51562-0.46875 0.14062-0.98438 0.1875-1.4531 0.42188-0.09375 0.046875-0.1875 0.1875-0.28125 0.23438s-0.23438 0.046875-0.32812 0.14062c-8.6719 5.3438-19.406 8.1562-30.328 8.0156zm580.5 10.031c8.25 9.8438 11.719 22.312 9.7031 35.062-4.4062 27.703-32.438 49.078-64.078 49.078h-1.0781c-6.375-0.09375-12.562-1.0781-18.328-2.9531-5.0156-1.5938-7.7812-6.9844-6.1406-12 1.5938-5.0156 6.9844-7.7812 12-6.1406 3.9844 1.2656 8.25 1.9688 12.75 2.0156 22.078 0.32812 43.125-14.766 46.031-33 1.1719-7.3594-0.70312-14.203-5.4375-19.828-6.0938-7.2188-16.172-11.484-27.656-11.625-0.98438 0-1.9219 0-2.8594 0.046875-5.25 0.1875-9.7031-3.8438-9.9375-9.0938-0.14062-3.2812 1.5-6.1406 3.9844-7.9688 0.98438-31.734-23.672-47.906-48.234-52.453-29.438-5.4844-63.844 5.25-70.547 32.719-1.2656 5.1094-6.4219 8.25-11.531 6.9844s-8.25-6.4219-6.9844-11.531c9.7031-39.844 54.938-53.953 92.531-46.922 33.141 6.1875 64.219 30.141 63.797 70.312 12.891 2.2031 24.281 8.1562 32.016 17.344z"/>
</svg>
