<?xml version="1.0" encoding="UTF-8"?>
<svg width="1200pt" height="1200pt" version="1.1" viewBox="0 0 1200 1200" xmlns="http://www.w3.org/2000/svg">
 <path d="m365.48 545.06c4.8281 4.8281 4.8281 12.656 0 17.484s-12.656 4.8281-17.484 0l-54.094-54.094c-4.8281-4.8281-4.8281-12.656 0-17.484l54.094-54.094c4.8281-4.8281 12.656-4.8281 17.484 0s4.8281 12.656 0 17.484l-45.328 45.328 45.328 45.328zm115.64 19.312c-4.8281 4.8281-12.656 4.8281-17.484 0s-4.8281-12.656 0-17.484l45.328-45.328-45.328-45.328c-4.8281-4.8281-4.8281-12.656 0-17.484s12.656-4.8281 17.484 0l54.094 54.094c4.8281 4.8281 4.8281 12.656 0 17.484l-54.094 54.094zm-77.109 23.391c-1.7812 6.6094-8.5312 10.5-15.141 8.7656-6.6094-1.7812-10.5-8.5312-8.7656-15.141l45-167.86c1.7812-6.6094 8.5312-10.5 15.141-8.7656 6.6094 1.7812 10.5 8.5312 8.7656 15.141zm-298.69-468.47c-12.469 0-23.812 5.1094-32.016 13.312s-13.312 19.547-13.312 32.016v870.79c0 12.469 5.1094 23.812 13.312 32.016s19.547 13.312 32.016 13.312h989.34c12.469 0 23.812-5.1094 32.016-13.312 8.2031-8.2031 13.312-19.547 13.312-32.016v-870.84c0-12.469-5.1094-23.812-13.312-32.016-8.2031-8.2031-19.547-13.312-32.016-13.312h-989.34zm81.562 115.64c-6.8438 0-12.375-5.5312-12.375-12.375s5.5312-12.375 12.375-12.375h0.60938c6.8438 0 12.375 5.5312 12.375 12.375s-5.5312 12.375-12.375 12.375zm83.297 0c-6.8438 0-12.375-5.5312-12.375-12.375s5.5312-12.375 12.375-12.375h0.60938c6.8438 0 12.375 5.5312 12.375 12.375s-5.5312 12.375-12.375 12.375zm83.25 0c-6.8438 0-12.375-5.5312-12.375-12.375s5.5312-12.375 12.375-12.375h0.60938c6.8438 0 12.375 5.5312 12.375 12.375s-5.5312 12.375-12.375 12.375zm98.25 0c-6.8438 0-12.375-5.5312-12.375-12.375s5.5312-12.375 12.375-12.375h561.37c6.8438 0 12.375 5.5312 12.375 12.375s-5.5312 12.375-12.375 12.375zm663.56 83.109h-1030.5v717.37c0 5.6719 2.2969 10.781 6.0469 14.531s8.8594 6.0469 14.531 6.0469h989.34c5.6719 0 10.781-2.2969 14.531-6.0469s6.0469-8.8594 6.0469-14.531l0.046874-717.37zm-1030.5-24.75v-128.68c0-5.6719 2.2969-10.781 6.0469-14.531s8.8594-6.0469 14.531-6.0469h989.34c5.6719 0 10.781 2.2969 14.531 6.0469s6.0469 8.8594 6.0469 14.531v128.68zm108.33 121.5c0-6.8438 5.5312-12.375 12.375-12.375s12.375 5.5312 12.375 12.375v544.4c0 6.8438-5.5312 12.375-12.375 12.375s-12.375-5.5312-12.375-12.375zm515.95 14.25c-6.8438 0-12.375-5.5312-12.375-12.375s5.5312-12.375 12.375-12.375h277.92c6.8438 0 12.375 5.5312 12.375 12.375s-5.5312 12.375-12.375 12.375zm-109.03 84.891c-6.8438 0-12.375-5.5312-12.375-12.375s5.5312-12.375 12.375-12.375h386.95c6.8438 0 12.375 5.5312 12.375 12.375s-5.5312 12.375-12.375 12.375zm0 84.844c-6.8438 0-12.375-5.5312-12.375-12.375s5.5312-12.375 12.375-12.375h386.95c6.8438 0 12.375 5.5312 12.375 12.375s-5.5312 12.375-12.375 12.375zm-73.547 84.891c-6.8438 0-12.375-5.5312-12.375-12.375s5.5312-12.375 12.375-12.375h460.5c6.8438 0 12.375 5.5312 12.375 12.375s-5.5312 12.375-12.375 12.375zm-206.53 0c-6.8438 0-12.375-5.5312-12.375-12.375s5.5312-12.375 12.375-12.375h136.55c6.8438 0 12.375 5.5312 12.375 12.375s-5.5312 12.375-12.375 12.375zm566.81 84.891c-6.8438 0-12.375-5.5312-12.375-12.375s5.5312-12.375 12.375-12.375h100.22c6.8438 0 12.375 5.5312 12.375 12.375s-5.5312 12.375-12.375 12.375zm-566.81 0c-6.8438 0-12.375-5.5312-12.375-12.375s5.5312-12.375 12.375-12.375h496.82c6.8438 0 12.375 5.5312 12.375 12.375s-5.5312 12.375-12.375 12.375zm0 84.844c-6.8438 0-12.375-5.5312-12.375-12.375s5.5312-12.375 12.375-12.375h667.03c6.8438 0 12.375 5.5312 12.375 12.375s-5.5312 12.375-12.375 12.375zm349.03 84.891c-6.8438 0-12.375-5.5312-12.375-12.375s5.5312-12.375 12.375-12.375h317.95c6.8438 0 12.375 5.5312 12.375 12.375s-5.5312 12.375-12.375 12.375zm-349.03 0c-6.8438 0-12.375-5.5312-12.375-12.375s5.5312-12.375 12.375-12.375h279.05c6.8438 0 12.375 5.5312 12.375 12.375s-5.5312 12.375-12.375 12.375z" fill-rule="evenodd"/>
</svg>
