<?xml version="1.0" encoding="UTF-8"?>
<svg width="1200pt" height="1200pt" version="1.1" viewBox="0 0 1200 1200" xmlns="http://www.w3.org/2000/svg">
 <path d="m1181.3 421.87h-534.37c-10.359 0-18.75 8.3906-18.75 18.75v112.5c0 10.359 8.3906 18.75 18.75 18.75h103.12v75h-103.12c-10.359 0-18.75 8.3906-18.75 18.75v112.5c0 10.359 8.3906 18.75 18.75 18.75h103.12v93.75c0 10.359 8.3906 18.75 18.75 18.75h412.5c10.359 0 18.75-8.3906 18.75-18.75v-450c0-10.359-8.3906-18.75-18.75-18.75zm-309.37 37.5h168.74v75h-168.74zm84.375 187.5h-168.74v-75h168.74zm84.375 37.5v75h-168.74v-75zm-375-150v-75h168.74v75zm0 225v-75h168.74v75zm290.63 112.5h-168.74v-75h168.74zm206.26 0h-168.74v-75h168.74zm0-112.5h-84.375v-75h84.375zm0-112.5h-168.74v-75h168.74zm0-112.5h-84.375v-75h84.375z"/>
 <path d="m553.13 534.37h-103.12v-93.75c0-10.359-8.3906-18.75-18.75-18.75h-412.5c-10.359 0-18.75 8.3906-18.75 18.75v450c0 10.359 8.3906 18.75 18.75 18.75h534.37c10.359 0 18.75-8.3906 18.75-18.75v-112.5c0-10.359-8.3906-18.75-18.75-18.75h-103.12v-75h103.12c10.359 0 18.75-8.3906 18.75-18.75v-112.5c0-10.359-8.3906-18.75-18.75-18.75zm-309.37-75h168.74v75h-168.74zm84.375 187.5h-168.74v-75h168.74zm84.375 37.5v75h-168.74v-75zm-375-225h168.74v75h-168.74zm0 112.5h84.375v75h-84.375zm0 112.5h168.74v75h-168.74zm84.375 187.5h-84.375v-75h84.375zm206.26 0h-168.74v-75h168.74zm206.26-75v75h-168.74v-75zm0-150h-168.74v-75h168.74z"/>
 <path d="m321.89 378.42c7.0781 7.5938 18.938 7.9688 26.531 0.89062l30.047-28.125h-0.046875c3.7969-3.5625 5.9531-8.4844 5.9531-13.688s-2.1562-10.125-5.9531-13.688l-30.047-28.125h0.046875c-6.7969-6.375-17.203-6.7969-24.469-1.0312-7.3125 5.8125-9.1875 16.078-4.5 24.094h-47.578c-10.359 0-18.75 8.3906-18.75 18.75s8.3906 18.75 18.75 18.75h47.578c-4.1719 7.125-3.1875 16.172 2.4375 22.172z"/>
 <path d="m853.13 337.5c0-10.359-8.3906-18.75-18.75-18.75h-47.578c4.6875-8.0156 2.8125-18.281-4.5-24.094-7.2656-5.7656-17.672-5.3438-24.469 1.0312l-30.047 28.125h0.046875c-3.7969 3.5625-5.9531 8.4844-5.9531 13.688s2.1562 10.125 5.9531 13.688l30.047 28.125h-0.046875c6.7969 6.375 17.203 6.7969 24.469 1.0312 7.3125-5.8125 9.1875-16.078 4.5-24.094h47.578c10.359 0 18.75-8.3906 18.75-18.75z"/>
</svg>
