<?xml version="1.0" encoding="UTF-8"?>
<svg width="1200pt" height="1200pt" version="1.1" viewBox="0 0 1200 1200" xmlns="http://www.w3.org/2000/svg">
 <g>
  <path d="m403.6 401.65c77.484 0 140.51-63.035 140.51-140.52 0-77.473-63.035-140.51-140.51-140.51s-140.51 63.035-140.51 140.51c-0.015625 77.484 63.023 140.52 140.51 140.52zm0-257.03c64.246 0 116.51 52.262 116.51 116.51 0 64.246-52.262 116.52-116.51 116.52s-116.51-52.262-116.51-116.52c-0.015625-64.25 52.258-116.51 116.51-116.51z"/>
  <path d="m347.76 272.93c6.625 0 12-5.3633 12-12 0-24.18 19.668-43.836 43.836-43.836 6.625 0 12-5.3633 12-12s-5.375-12-12-12c-37.402 0-67.836 30.434-67.836 67.836 0 6.6328 5.375 12 12 12z"/>
  <path d="m120.54 616.12c-3.2656 37.379 8.2188 73.801 32.34 102.55 24.121 28.754 57.996 46.391 95.387 49.668 4.1758 0.35937 8.3398 0.55078 12.492 0.55078 32.953 0 64.535-11.461 90.07-32.891 59.352-49.789 67.129-138.6 17.328-197.95-24.133-28.754-58.008-46.379-95.398-49.656-37.344-3.3594-73.812 8.2188-102.56 32.34-28.75 24.109-46.391 57.996-49.656 95.391zm65.09-77.016c21.18-17.762 47.363-27.266 74.688-27.266 3.4336 0 6.8867 0.15625 10.355 0.45703 31.008 2.7109 59.102 17.328 79.105 41.172 41.293 49.223 34.848 122.86-14.363 164.16-23.832 20.004-54.023 29.555-85.043 26.809-30.996-2.7227-59.09-17.34-79.094-41.184s-29.52-54.047-26.82-85.043c2.6992-31.012 17.328-59.102 41.172-79.105z"/>
  <path d="m217.62 676.08c2.7227 0 5.4609-0.92578 7.7148-2.8086 5.0742-4.2461 5.7344-11.82 1.4766-16.895-7.5234-8.9648-11.113-20.328-10.094-31.992 1.0195-11.676 6.5156-22.246 15.492-29.762 5.0742-4.2461 5.7461-11.82 1.4883-16.895-4.2617-5.0898-11.832-5.7227-16.906-1.4766-13.883 11.641-22.391 27.996-23.977 46.043-1.5859 18.059 3.9609 35.641 15.613 49.512 2.3633 2.8242 5.7695 4.2734 9.1914 4.2734z"/>
  <path d="m539.58 1078.5c8.2422 1.4648 16.5 2.1836 24.707 2.1836 28.559 0 56.41-8.7227 80.293-25.453 30.742-21.527 51.266-53.734 57.781-90.695 13.453-76.297-37.68-149.32-113.98-162.77-76.32-13.477-149.32 37.68-162.78 113.96-6.5156 36.973 1.7539 74.258 23.281 105 21.527 30.746 53.738 51.266 90.695 57.77zm-90.336-158.6c9.9609-56.461 59.23-96.289 114.68-96.289 6.6953 0 13.488 0.58984 20.293 1.7773 63.277 11.172 105.67 71.723 94.512 134.98-5.3984 30.648-22.414 57.348-47.914 75.215-25.5 17.844-56.387 24.672-87.059 19.297-30.648-5.3984-57.348-22.414-75.203-47.914-17.859-25.492-24.711-56.418-19.312-87.062z"/>
  <path d="m552 1006.9c0.70703 0.13281 1.4023 0.19141 2.1016 0.19141 5.7227 0 10.777-4.0938 11.809-9.9102 1.1523-6.5273-3.2031-12.742-9.7305-13.895-23.797-4.2109-39.742-26.988-35.555-50.785 1.1523-6.5273-3.2031-12.742-9.7305-13.895-6.5742-1.2109-12.758 3.2031-13.906 9.7305-6.5 36.824 18.184 72.07 55.012 78.562z"/>
  <path d="m915.06 628.86c-76.297 13.453-127.43 86.473-113.98 162.77 6.5156 36.961 27.035 69.18 57.781 90.707 23.891 16.738 51.719 25.453 80.293 25.453 8.1953 0 16.465-0.73047 24.707-2.1836 36.961-6.5156 69.168-27.035 90.695-57.781 21.527-30.742 29.797-68.027 23.281-104.99-13.441-76.285-86.398-127.49-162.78-113.98zm139.15 118.15c5.4102 30.648-1.4531 61.559-19.297 87.059-17.844 25.488-44.555 42.504-75.215 47.914-30.637 5.375-61.559-1.4531-87.059-19.297-25.488-17.855-42.504-44.566-47.914-75.227-11.16-63.254 31.246-123.8 94.5-134.98 6.8164-1.1992 13.586-1.7656 20.281-1.7656 55.461 0.003906 104.75 39.832 114.7 96.293z"/>
  <path d="m918.16 714.3c1.1523 6.5273 7.3086 10.895 13.906 9.7305 11.508-2.0039 23.16 0.55078 32.746 7.2617 9.5898 6.7188 15.996 16.766 18.023 28.297 1.0195 5.8203 6.0859 9.9102 11.809 9.9102 0.69531 0 1.3906-0.058594 2.1016-0.19141 6.5156-1.1523 10.883-7.3672 9.7305-13.895-3.1445-17.844-13.055-33.395-27.898-43.789-14.844-10.391-32.844-14.375-50.688-11.23-6.5273 1.1602-10.883 7.3789-9.7305 13.906z"/>
  <path d="m980.54 189.55c-59.352-49.801-148.16-42.035-197.96 17.305-49.801 59.352-42.023 148.16 17.316 197.95 26.27 22.055 58.32 32.82 90.215 32.82 40.129 0 79.992-17.062 107.75-50.137 49.816-59.34 42.039-148.15-17.312-197.94zm-1.0547 182.54c-41.281 49.211-114.93 55.668-164.15 14.352-49.211-41.293-55.656-114.94-14.352-164.16 23.016-27.422 56.062-41.555 89.34-41.555 26.438 0 53.016 8.9297 74.809 27.203 49.199 41.301 55.645 114.93 14.352 164.16z"/>
  <path d="m838.39 253.41c-4.2617 5.0742-3.6016 12.648 1.4766 16.895 2.2578 1.8828 4.9922 2.8086 7.7148 2.8086 3.4219 0 6.8281-1.4531 9.2031-4.2852 15.539-18.504 43.234-20.914 61.754-5.3984 5.0625 4.2617 12.648 3.625 16.906-1.4766 4.2617-5.0742 3.6016-12.648-1.4883-16.895-28.629-24.047-71.504-20.289-95.566 8.3516z"/>
  <path d="m757.18 615.9c11.258-35.809 7.8828-73.848-9.4922-107.14-17.363-33.266-46.645-57.781-82.453-69.035-35.82-11.242-73.848-7.8828-107.12 9.4805-68.688 35.855-95.398 120.9-59.555 189.59 25.043 47.977 74.102 75.48 124.81 75.48 21.875 0 44.062-5.125 64.766-15.926 33.273-17.363 57.805-46.645 69.047-82.453zm-80.148 61.176c-56.977 29.746-127.48 7.5703-157.2-49.379-29.723-56.941-7.5586-127.46 49.391-157.2 17.172-8.9648 35.566-13.211 53.711-13.211 42.047 0 82.715 22.801 103.48 62.594 14.398 27.59 17.195 59.148 7.8711 88.824-9.3203 29.695-29.66 53.984-57.25 68.371z"/>
  <path d="m591.93 513.55c-5.8789 3.0703-8.1602 10.309-5.0898 16.199 3.0703 5.8672 10.332 8.1719 16.188 5.0898 21.422-11.207 47.953-2.8438 59.148 18.59 2.1484 4.1055 6.3242 6.4453 10.656 6.4453 1.8711 0 3.7695-0.43359 5.543-1.3555 5.8672-3.0703 8.1484-10.309 5.0898-16.199-17.316-33.16-58.383-46.086-91.535-28.77z"/>
 </g>
</svg>
