<?xml version="1.0" encoding="UTF-8"?>
<svg width="1200pt" height="1200pt" version="1.1" viewBox="0 0 1200 1200" xmlns="http://www.w3.org/2000/svg">
 <g>
  <path d="m1119.9 593.32c-19.871-27.527-62.832-81.828-127.41-136.16-119.99-100.86-251.72-152-391.51-152h-1.9219c-139.79 0-271.52 51.145-391.51 152.02-64.57 54.336-107.54 108.64-127.41 136.16-3.1562 4.3672-3.1562 8.9883 0 13.355 19.859 27.516 62.832 81.816 127.41 136.16 119.99 100.86 251.72 152 391.51 152h1.9219c139.79 0 271.52-51.145 391.51-152.02 64.586-54.348 107.54-108.64 127.41-136.16 3.1562-4.3672 3.1562-8.9883 0-13.355zm-519.89 221.03c-118.19 0-214.34-96.156-214.34-214.34s96.156-214.34 214.34-214.34 214.34 96.156 214.34 214.34-96.156 214.34-214.34 214.34z"/>
  <path d="m600 409.66c-104.96 0-190.34 85.391-190.34 190.34s85.391 190.34 190.34 190.34 190.34-85.391 190.34-190.34-85.391-190.34-190.34-190.34zm0 269.21c-43.488 0-78.852-35.375-78.852-78.852 0-43.477 35.375-78.852 78.852-78.852s78.852 35.375 78.852 78.852c0 43.477-35.375 78.852-78.852 78.852z"/>
  <path d="m654.85 600c0 30.293-24.559 54.852-54.852 54.852s-54.852-24.559-54.852-54.852 24.559-54.852 54.852-54.852 54.852 24.559 54.852 54.852"/>
 </g>
</svg>
