<?xml version="1.0" encoding="UTF-8"?>
<svg width="1200pt" height="1200pt" version="1.1" viewBox="0 0 1200 1200" xmlns="http://www.w3.org/2000/svg">
 <path d="m548.81 288.38v-0.75c0-127.5-103.69-231.38-231.38-231.38s-231.38 103.69-231.38 232.12c-18 13.688-29.812 35.062-29.812 59.25 0 22.312 10.125 42.188 25.688 55.688-15.562 13.688-25.688 33.375-25.688 55.688 0 28.688 16.5 53.438 40.5 65.812l25.125 559.31c1.5 33.188 28.688 59.25 61.875 59.25h15.188c27.562 0 52.875-13.875 66.375-36.188 11.062-18.562 30.562-29.625 52.125-29.625s41.062 11.062 52.125 29.625c13.5 22.312 38.812 36.188 66.375 36.188h15.188c33.188 0 60.375-26.062 61.875-59.25l25.125-559.31c23.812-12.375 40.5-37.125 40.5-65.812 0-22.312-10.125-42.188-25.688-55.688 15.562-13.688 25.688-33.562 25.688-55.688 0-24.188-11.812-45.75-29.812-59.25zm-105-147.75c38.25 32.812 63.375 80.062 66.938 133.12-2.25-0.1875-4.3125-0.75-6.5625-0.75h-62.812zm-107.62-46.125c25.312 2.4375 49.125 9.75 70.5 21l-3 157.5h-67.688v-178.31zm-37.5 0v178.5h-67.5l-2.625-157.69c21.375-11.062 45.188-18.375 70.312-20.812zm-107.62 46.125 2.4375 132.38h-62.812c-2.25 0-4.3125 0.375-6.5625 0.75 3.75-53.062 28.875-100.31 66.938-132.94zm7.875 965.44h-15.188c-13.125 0-24-10.312-24.562-23.438l-24.562-549h63.75l10.688 571.31c-3.1875 0.75-6.75 1.125-10.125 1.125zm99.75-63.938c-20.25 3.9375-38.625 14.062-52.688 29.062l-10.125-537.56h62.812zm90.188 29.062c-14.062-15.188-32.438-25.125-52.688-29.062v-508.5h62.812l-9.9375 537.56zm86.812 11.438c-0.5625 13.125-11.438 23.438-24.562 23.438h-15.188c-3.5625 0-6.9375-0.375-10.125-1.125l10.688-571.31h63.75zm28.5-586.5h-373.5c-20.438 0-36.938-16.688-36.938-36.938s16.688-36.938 36.938-36.938h373.31c20.438 0 36.938 16.688 36.938 36.938s-16.688 36.938-36.938 36.938zm0-111.56h-373.5c-20.438 0-36.938-16.688-36.938-36.938s16.688-36.938 36.938-36.938h373.31c6.1875 0 12 1.6875 17.062 4.3125 0 0 0.375 0.1875 0.5625 0.1875 11.438 6.375 19.312 18.375 19.312 32.438 0 20.438-16.688 36.938-36.938 36.938zm639.56-36.938c0-24.188-11.812-45.75-29.812-59.25v-0.75c0-127.5-103.69-231.38-231.38-231.38s-231.38 103.88-231.38 232.12c-18 13.688-29.812 35.062-29.812 59.25 0 22.312 10.125 42.188 25.688 55.688-15.562 13.688-25.688 33.562-25.688 55.688 0 28.688 16.5 53.438 40.5 65.812l25.125 559.31c1.5 33.188 28.688 59.25 61.875 59.25h15.375c27.562 0 52.875-13.875 66.375-36.188 11.062-18.562 30.562-29.625 52.125-29.625s41.062 11.062 52.125 29.625c13.312 22.312 38.812 36.188 66.375 36.188h15.188c33.188 0 60.562-26.062 61.875-59.25l25.125-559.31c23.812-12.375 40.5-37.125 40.5-65.812 0-22.312-10.125-42.188-25.688-55.688 15.562-13.688 25.688-33.562 25.688-55.688zm-134.81-207c38.25 32.812 63.375 80.062 66.938 133.12-2.25-0.1875-4.3125-0.75-6.5625-0.75h-62.812zm-107.62-46.125c25.312 2.4375 49.125 9.75 70.5 21l-3 157.5h-67.688v-178.12zm-37.5 0v178.5h-67.688l-3-157.5c21.562-11.25 45.375-18.562 70.5-21zm-107.62 46.125 2.4375 132.38h-62.812c-2.25 0-4.3125 0.375-6.5625 0.75 3.75-53.062 28.875-100.31 66.938-132.94zm7.875 965.44h-15.375c-13.125 0-24-10.312-24.562-23.438l-24.562-549h63.75l10.688 571.31c-3.1875 0.75-6.5625 1.125-10.125 1.125zm99.75-63.938c-20.25 3.9375-38.625 14.062-52.688 29.062l-9.9375-537.56h62.812v508.5zm90.188 29.062c-14.062-15-32.438-25.125-52.688-29.062v-508.5h62.812zm86.812 11.438c-0.5625 13.125-11.438 23.438-24.562 23.438h-15.188c-3.5625 0-6.9375-0.375-10.125-1.125l10.688-571.31h63.75zm28.5-586.5h-373.31c-20.438 0-36.938-16.688-36.938-36.938s16.688-36.938 36.938-36.938h373.31c20.438 0 36.938 16.688 36.938 36.938s-16.688 36.938-36.938 36.938zm0-111.56h-373.31c-20.438 0-36.938-16.688-36.938-36.938s16.688-36.938 36.938-36.938h373.31c20.438 0 36.938 16.688 36.938 36.938s-16.688 36.938-36.938 36.938z"/>
</svg>
