<?xml version="1.0" encoding="UTF-8"?>
<svg width="1200pt" height="1200pt" version="1.1" viewBox="0 0 1200 1200" xmlns="http://www.w3.org/2000/svg">
 <path d="m324.52 196.55v-18.844c0-35.766 30.234-64.359 66.141-64.359h455.21c35.906 0 66.141 28.594 66.141 64.359v563.11c0 1.1719-0.98438 2.1562-2.1562 2.1562l-27.703-0.046875c-1.1719 0-2.1562-0.98438-2.1562-2.1562v-563.06c0-18.234-15.75-32.344-34.125-32.344h-455.21c-18.375 0-34.125 14.109-34.125 32.344v18.844c0 1.1719 0.98438 2.1562 2.1562 2.1562h379.97c34.641 0 62.906 28.266 62.906 62.906v479.21c0 1.1719-0.98438 2.1562-2.1562 2.1562h-27.75c-1.1719 0-2.1562-0.98437-2.1562-2.1562l0.046875-479.26c0-16.969-13.922-30.891-30.891-30.891h-425.76c-16.969 0-30.891 13.922-30.891 30.891v405.24c0 1.1719-0.98438 2.1562-2.1562 2.1562h-27.75c-1.1719 0-2.1562-0.98438-2.1562-2.1562l0.09375-405.24c0-34.641 28.266-62.906 62.906-62.906h9.4688c1.1719 0 2.1094-0.9375 2.1094-2.1094zm192.79 669.37h-42.75c-1.1719 0-2.1562-0.98438-2.1562-2.1562v-42.75c0-5.1094-4.1719-9.2812-9.2812-9.2812h-37.172c-5.1094 0-9.2812 4.1719-9.2812 9.2812v42.75c0 1.1719-0.98438 2.1562-2.1562 2.1562h-42.75c-5.1094 0-9.2812 4.1719-9.2812 9.2812v37.172c0 5.1094 4.1719 9.2812 9.2812 9.2812h42.75c1.1719 0 2.1562 0.98438 2.1562 2.1562v42.75c0 5.1094 4.1719 9.2812 9.2812 9.2812h37.172c5.1094 0 9.2812-4.1719 9.2812-9.2812v-42.75c0-1.1719 0.98438-2.1562 2.1562-2.1562h42.75c5.1094 0 9.2812-4.1719 9.2812-9.2812v-37.172c0-5.1094-4.1719-9.2812-9.2812-9.2812zm136.08-98.156c-8.6719-4.6875-16.078-11.484-21.797-20.203l-22.172-33.797c-5.5312-8.4375-13.734-12.844-23.859-12.844h-336.84c-8.9062 0-16.172 7.2656-16.172 16.172v323.72c0 25.219 20.625 45.844 45.844 45.844h643.22c25.219 0 45.844-20.625 45.844-45.844v-249.74c0-8.9062-7.2656-16.172-16.172-16.172h-269.11c-10.359 0-20.109-2.4375-28.781-7.125zm-208.82-18c79.547 0 144 64.453 144 144s-64.453 144-144 144-144-64.453-144-144c-0.046875-79.5 64.453-144 144-144zm-5.3438-366.61c22.406 0 40.594-18.188 40.594-40.594s-18.188-40.594-40.594-40.594-40.594 18.188-40.594 40.594c-0.046875 22.406 18.141 40.594 40.594 40.594zm-81.141 144.61h162.24c1.1719 0 2.1562-0.98438 2.1562-2.1562v-43.219c0-45.797-37.453-83.25-83.25-83.25s-83.25 37.453-83.25 83.25v43.219c-0.046875 1.1719 0.9375 2.1562 2.1094 2.1562zm-2.1562 86.953h339.71c8.8594 0 15.984-7.1719 15.984-15.984 0-8.8594-7.1719-15.984-15.984-15.984l-339.71-0.046875c-8.8594 0-15.984 7.1719-15.984 15.984 0 8.8594 7.1719 16.031 15.984 16.031zm240.74-115.17h98.953c8.8594 0 15.984-7.1719 15.984-15.984 0-8.8594-7.1719-15.984-15.984-15.984h-98.953c-8.8594 0-15.984 7.1719-15.984 15.984 0 8.7656 7.1719 15.984 15.984 15.984zm0-115.22h98.953c8.8594 0 15.984-7.1719 15.984-15.984 0-8.8594-7.1719-15.984-15.984-15.984h-98.953c-8.8594 0-15.984 7.1719-15.984 15.984s7.1719 15.984 15.984 15.984z" fill-rule="evenodd"/>
</svg>
