<?xml version="1.0" encoding="UTF-8"?>
<svg width="1200pt" height="1200pt" version="1.1" viewBox="0 0 1200 1200" xmlns="http://www.w3.org/2000/svg">
 <path d="m181.6 1018.4h836.81v-836.81h-836.81zm123.61-812.81v99.609h-99.609v-99.609zm116.11 0v99.609h-107.11v-99.609zm116.11 0v99.609h-107.11v-99.609zm116.16 0v99.609h-107.11v-99.609zm116.11 0v99.609h-107.11v-99.609zm116.11 0v99.609h-107.11v-99.609zm9 788.81v-99.609h99.609v99.609zm-116.11 0v-99.609h107.11v99.609zm-116.11 0v-99.609h107.11v99.609zm-116.16 0v-99.609h107.11v99.609zm-116.11 0v-99.609h107.11v99.609zm-116.11 0v-99.609h107.11v99.609zm571.6-340.82h-107.11v-107.11h107.11zm-116.11 0h-107.11v-107.11h107.11zm-116.11 0h-107.11v-107.11h107.11zm-116.16 0h-107.11v-107.11h107.11zm-116.11 0h-107.11v-107.11h107.11zm-107.11 9h107.11v107.11h-107.11zm116.11 0h107.11v107.11h-107.11zm116.11 0h107.11v107.11h-107.11zm116.16 0h107.11v107.11h-107.11zm116.11 0h107.11v107.11h-107.11zm116.11 0h99.609v107.11h-99.609zm0-9v-107.11h99.609v107.11zm0-116.16v-107.11h99.609v107.11zm-9 0h-107.11v-107.11h107.11zm-116.11 0h-107.11v-107.11h107.11zm-116.11 0h-107.11v-107.11h107.11zm-116.16 0h-107.11v-107.11h107.11zm-116.11 0h-107.11v-107.11h107.11zm-116.11 0h-99.609v-107.11h99.609zm0 9v107.11h-99.609v-107.11zm0 116.16v107.11h-99.609v-107.11zm0 116.11v107.11h-99.609v-107.11zm9 0h107.11v107.11h-107.11zm116.11 0h107.11v107.11h-107.11zm116.11 0h107.11v107.11h-107.11zm116.16 0h107.11v107.11h-107.11zm116.11 0h107.11v107.11h-107.11zm116.11 0h99.609v107.11h-99.609zm99.609-357.37h-99.609v-107.11h99.609zm-108.61 0h-107.11v-107.11h107.11zm-116.11 0h-107.11v-107.11h107.11zm-116.11 0h-107.11v-107.11h107.11zm-116.16 0h-107.11v-107.11h107.11zm-116.11 0h-107.11v-107.11h107.11zm-116.11 0h-99.609v-107.11h99.609zm-99.609 573.1v-99.609h99.609v99.609zm788.81-788.81v99.609h-99.609v-99.609z"/>
</svg>
