<?xml version="1.0" encoding="UTF-8"?>
<svg width="1200pt" height="1200pt" version="1.1" viewBox="0 0 1200 1200" xmlns="http://www.w3.org/2000/svg">
 <g>
  <path d="m731.25 750c-39.781 0-77.938-15.805-106.07-43.934s-43.934-66.285-43.934-106.07 15.805-77.938 43.934-106.07 66.285-43.934 106.07-43.934 77.938 15.805 106.07 43.934 43.934 66.285 43.934 106.07c-0.042969 39.77-15.863 77.895-43.984 106.02s-66.246 43.941-106.02 43.984zm0-262.5c-29.836 0-58.453 11.852-79.551 32.949-21.098 21.098-32.949 49.715-32.949 79.551s11.852 58.453 32.949 79.551c21.098 21.098 49.715 32.949 79.551 32.949s58.453-11.852 79.551-32.949c21.098-21.098 32.949-49.715 32.949-79.551-0.03125-29.828-11.891-58.426-32.984-79.516-21.09-21.094-49.688-32.953-79.516-32.984z"/>
  <path d="m731.25 656.25c-14.918 0-29.227-5.9258-39.773-16.477-10.551-10.547-16.477-24.855-16.477-39.773s5.9258-29.227 16.477-39.773c10.547-10.551 24.855-16.477 39.773-16.477s29.227 5.9258 39.773 16.477c10.551 10.547 16.477 24.855 16.477 39.773s-5.9258 29.227-16.477 39.773c-10.547 10.551-24.855 16.477-39.773 16.477zm0-75c-4.9727 0-9.7422 1.9766-13.258 5.4922-3.5156 3.5156-5.4922 8.2852-5.4922 13.258s1.9766 9.7422 5.4922 13.258c3.5156 3.5156 8.2852 5.4922 13.258 5.4922s9.7422-1.9766 13.258-5.4922c3.5156-3.5156 5.4922-8.2852 5.4922-13.258s-1.9766-9.7422-5.4922-13.258c-3.5156-3.5156-8.2852-5.4922-13.258-5.4922z"/>
  <path d="m1031.2 881.25c0 10.355-8.3945 18.75-18.75 18.75s-18.75-8.3945-18.75-18.75 8.3945-18.75 18.75-18.75 18.75 8.3945 18.75 18.75"/>
  <path d="m1012.5 731.25c-39.781 0-77.938 15.805-106.07 43.934s-43.934 66.285-43.934 106.07 15.805 77.938 43.934 106.07 66.285 43.934 106.07 43.934 77.938-15.805 106.07-43.934 43.934-66.285 43.934-106.07c-0.042969-39.77-15.863-77.895-43.984-106.02s-66.246-43.941-106.02-43.984zm0 206.25c-14.918 0-29.227-5.9258-39.773-16.477-10.551-10.547-16.477-24.855-16.477-39.773s5.9258-29.227 16.477-39.773c10.547-10.551 24.855-16.477 39.773-16.477s29.227 5.9258 39.773 16.477c10.551 10.547 16.477 24.855 16.477 39.773s-5.9258 29.227-16.477 39.773c-10.547 10.551-24.855 16.477-39.773 16.477z"/>
  <path d="m468.75 375c0 10.355-8.3945 18.75-18.75 18.75s-18.75-8.3945-18.75-18.75 8.3945-18.75 18.75-18.75 18.75 8.3945 18.75 18.75"/>
  <path d="m450 225c-39.781 0-77.938 15.805-106.07 43.934s-43.934 66.285-43.934 106.07 15.805 77.938 43.934 106.07 66.285 43.934 106.07 43.934 77.938-15.805 106.07-43.934 43.934-66.285 43.934-106.07c-0.042969-39.77-15.863-77.895-43.984-106.02s-66.246-43.941-106.02-43.984zm0 206.25c-14.918 0-29.227-5.9258-39.773-16.477-10.551-10.547-16.477-24.855-16.477-39.773s5.9258-29.227 16.477-39.773c10.547-10.551 24.855-16.477 39.773-16.477s29.227 5.9258 39.773 16.477c10.551 10.547 16.477 24.855 16.477 39.773s-5.9258 29.227-16.477 39.773c-10.547 10.551-24.855 16.477-39.773 16.477z"/>
  <path d="m187.5 1031.2c-39.781 0-77.938-15.805-106.07-43.934s-43.934-66.285-43.934-106.07 15.805-77.938 43.934-106.07 66.285-43.934 106.07-43.934 77.938 15.805 106.07 43.934 43.934 66.285 43.934 106.07c-0.042969 39.77-15.863 77.895-43.984 106.02s-66.246 43.941-106.02 43.984zm0-262.5c-29.836 0-58.453 11.852-79.551 32.949-21.098 21.098-32.949 49.715-32.949 79.551s11.852 58.453 32.949 79.551c21.098 21.098 49.715 32.949 79.551 32.949s58.453-11.852 79.551-32.949c21.098-21.098 32.949-49.715 32.949-79.551-0.03125-29.828-11.891-58.426-32.984-79.516-21.09-21.094-49.688-32.953-79.516-32.984z"/>
  <path d="m187.5 937.5c-14.918 0-29.227-5.9258-39.773-16.477-10.551-10.547-16.477-24.855-16.477-39.773s5.9258-29.227 16.477-39.773c10.547-10.551 24.855-16.477 39.773-16.477s29.227 5.9258 39.773 16.477c10.551 10.547 16.477 24.855 16.477 39.773s-5.9258 29.227-16.477 39.773c-10.547 10.551-24.855 16.477-39.773 16.477zm0-75c-4.9727 0-9.7422 1.9766-13.258 5.4922-3.5156 3.5156-5.4922 8.2852-5.4922 13.258s1.9766 9.7422 5.4922 13.258c3.5156 3.5156 8.2852 5.4922 13.258 5.4922s9.7422-1.9766 13.258-5.4922c3.5156-3.5156 5.4922-8.2852 5.4922-13.258s-1.9766-9.7422-5.4922-13.258c-3.5156-3.5156-8.2852-5.4922-13.258-5.4922z"/>
  <path d="m1012.5 703.12c25.922 0.023438 51.523 5.7344 75 16.727v-644.85c0-9.9453-3.9492-19.484-10.984-26.516-7.0312-7.0352-16.57-10.984-26.516-10.984h-75c-9.9453 0-19.484 3.9492-26.516 10.984-7.0352 7.0312-10.984 16.57-10.984 26.516v644.85c23.477-10.992 49.078-16.703 75-16.727z"/>
  <path d="m1012.5 1059.4c-25.922-0.023438-51.523-5.7344-75-16.727v82.352c0 9.9453 3.9492 19.484 10.984 26.516 7.0312 7.0352 16.57 10.984 26.516 10.984h75c9.9453 0 19.484-3.9492 26.516-10.984 7.0352-7.0312 10.984-16.57 10.984-26.516v-82.352c-23.477 10.992-49.078 16.703-75 16.727z"/>
  <path d="m731.25 421.88c25.922 0.023438 51.523 5.7344 75 16.727v-363.6c0-9.9453-3.9492-19.484-10.984-26.516-7.0312-7.0352-16.57-10.984-26.516-10.984h-75c-9.9453 0-19.484 3.9492-26.516 10.984-7.0352 7.0312-10.984 16.57-10.984 26.516v363.6c23.477-10.992 49.078-16.703 75-16.727z"/>
  <path d="m731.25 778.12c-25.922-0.023438-51.523-5.7344-75-16.727v363.6c0 9.9453 3.9492 19.484 10.984 26.516 7.0312 7.0352 16.57 10.984 26.516 10.984h75c9.9453 0 19.484-3.9492 26.516-10.984 7.0352-7.0312 10.984-16.57 10.984-26.516v-363.6c-23.477 10.992-49.078 16.703-75 16.727z"/>
  <path d="m450 196.88c25.922 0.023438 51.523 5.7344 75 16.727v-138.6c0-9.9453-3.9492-19.484-10.984-26.516-7.0312-7.0352-16.57-10.984-26.516-10.984h-75c-9.9453 0-19.484 3.9492-26.516 10.984-7.0352 7.0312-10.984 16.57-10.984 26.516v138.6c23.477-10.992 49.078-16.703 75-16.727z"/>
  <path d="m450 553.12c-25.922-0.023438-51.523-5.7344-75-16.727v588.6c0 9.9453 3.9492 19.484 10.984 26.516 7.0312 7.0352 16.57 10.984 26.516 10.984h75c9.9453 0 19.484-3.9492 26.516-10.984 7.0352-7.0312 10.984-16.57 10.984-26.516v-588.6c-23.477 10.992-49.078 16.703-75 16.727z"/>
  <path d="m187.5 703.12c25.922 0.023438 51.523 5.7344 75 16.727v-644.85c0-9.9453-3.9492-19.484-10.984-26.516-7.0312-7.0352-16.57-10.984-26.516-10.984h-75c-9.9453 0-19.484 3.9492-26.516 10.984-7.0352 7.0312-10.984 16.57-10.984 26.516v644.85c23.477-10.992 49.078-16.703 75-16.727z"/>
  <path d="m187.5 1059.4c-25.922-0.023438-51.523-5.7344-75-16.727v82.352c0 9.9453 3.9492 19.484 10.984 26.516 7.0312 7.0352 16.57 10.984 26.516 10.984h75c9.9453 0 19.484-3.9492 26.516-10.984 7.0352-7.0312 10.984-16.57 10.984-26.516v-82.352c-23.477 10.992-49.078 16.703-75 16.727z"/>
 </g>
</svg>
