<?xml version="1.0" encoding="UTF-8"?>
<svg width="1200pt" height="1200pt" version="1.1" viewBox="0 0 1200 1200" xmlns="http://www.w3.org/2000/svg">
 <path d="m600.01 874.61c193.01 0 372.98-103.84 469.66-271.01 1.2734-2.2188 1.2734-4.9805 0-7.1992-96.695-167.16-276.66-271.01-469.68-271.01-193.01 0-372.97 103.84-469.66 271.01-1.2852 2.2188-1.2852 4.9805 0 7.1992 96.684 167.16 276.67 271.01 469.68 271.01zm172.79-304.61c0-8.0391-0.57422-16.164-1.7031-24.145-0.32422-2.3516-1.7891-4.3906-3.9258-5.4492-2.0898-1.0312-4.668-0.97266-6.7188 0.16797-7.7383 4.332-16.535 6.6367-25.465 6.6367-28.777 0-52.199-23.426-52.199-52.211 0-18.828 10.344-36.301 27.023-45.613 2.0625-1.1523 3.4336-3.2539 3.6719-5.6055 0.22656-2.3516-0.73047-4.668-2.5312-6.1914-1.6445-1.3672-3.2773-2.7109-4.957-4.0195-2.6758-2.0742-3.5273-5.7852-2.0508-8.832 1.4297-2.9023 5.0625-4.6211 8.2305-3.8164 104.15 26.207 196.4 88.285 259.77 174.82 1.8594 2.543 1.8594 5.9648 0 8.5078-86.531 118.2-225.57 188.75-371.94 188.75-146.38 0-285.43-70.559-371.96-188.75-1.8711-2.543-1.8711-5.9648-0.011718-8.5078 63.359-86.555 155.63-148.64 259.79-174.83 0.57422-0.15625 1.1641-0.22656 1.7539-0.22656 2.7227 0 5.2578 1.5977 6.4688 4.043 1.4766 3.0469 0.61328 6.7578-2.0625 8.8438-42.438 33.039-66.773 82.766-66.773 136.43 0 95.281 77.508 172.79 172.79 172.79 95.293 0 172.81-77.508 172.81-172.79z"/>
</svg>
