<?xml version="1.0" encoding="UTF-8"?>
<svg width="1200pt" height="1200pt" version="1.1" viewBox="0 0 1200 1200" xmlns="http://www.w3.org/2000/svg">
 <path d="m143.76 672.47c-11.766 0-21.328 9.5625-21.328 21.328v398.76c0 11.766 9.5625 21.328 21.328 21.328h150.37c11.766 0 21.328-9.5625 21.328-21.328v-398.76c-0.046876-11.719-9.6094-21.328-21.328-21.328zm150.37 466.08h-150.37c-25.359 0-45.984-20.625-45.984-45.984v-398.76c0-25.359 20.625-45.984 45.984-45.984h150.32c25.312 0 45.984 20.625 46.031 45.938v398.81c0 25.359-20.625 45.984-45.984 45.984z" fill-rule="evenodd"/>
 <path d="m429.56 1138.5c-26.906 0-53.719-6.6562-77.484-19.219l-30.094-15.844c-6-3.1875-8.3438-10.641-5.1562-16.641 3.1875-6.0469 10.641-8.3438 16.641-5.1562l30.141 15.891c20.25 10.688 43.031 16.312 65.953 16.312h358.08c21.141 0 41.156-8.25 54.984-22.641 20.531-21.375 24.234-49.125 11.109-82.453-1.2188-3.1406-1.125-6.6562 0.23438-9.7031 1.4062-3.0469 4.0312-5.4375 7.1719-6.5156 52.547-18.094 29.719-92.531 28.734-95.672-1.6406-5.25 0.32812-10.969 4.9219-14.016 75.469-50.297 28.969-122.86 26.906-125.9-3.0469-4.6875-2.625-10.828 1.0781-14.953 7.9219-8.9062 15.047-18.328 21.141-27.984 13.406-21.094 14.109-46.828 2.0156-68.812-12.234-22.219-34.641-35.484-59.953-35.484h-236.21c-10.641 0-20.578-4.2188-27.984-11.859s-11.297-17.719-10.922-28.359l4.7812-144.98c1.0312-32.016-10.641-62.297-32.859-85.312-22.266-23.016-52.172-35.672-84.188-35.672-0.09375 0-0.23438 0-0.375 0.1875-0.1875 0.1875-0.1875 0.42188-0.1875 0.46875 11.438 156.98-33.422 257.21-73.125 313.69-43.453 61.828-89.625 85.875-91.594 86.859-6.0469 3.0938-13.5 0.70312-16.594-5.3906-3.0938-6.0469-0.70312-13.453 5.3438-16.594 0.5625-0.28125 43.594-23.016 83.531-80.344 36.938-53.062 78.703-147.56 67.828-296.48-0.46875-6.9844 1.9688-13.969 6.7031-19.078 4.7344-5.1094 11.484-8.0156 18.422-8.0156 38.766 0 74.953 15.328 101.91 43.172s41.062 64.547 39.797 103.27l-4.7812 144.98c-0.14062 3.8906 1.3125 7.5938 4.0312 10.406 2.7188 2.7656 6.3281 4.3594 10.219 4.3594h236.21c34.453 0 64.922 18.047 81.562 48.281 16.5 29.953 15.469 65.109-2.7656 93.891-5.2969 8.3906-11.25 16.547-17.766 24.422 4.9219 9.5625 12.188 26.578 14.531 47.016 3.1875 27.938-2.5312 67.172-45.656 99.516 8.2969 34.031 8.8594 89.625-35.203 112.78 14.625 47.297-2.4844 78.797-20.203 97.312-18.469 19.219-45 30.234-72.797 30.234h-358.08z" fill-rule="evenodd"/>
 <path d="m973.26 131.48c-30.844 0-71.062 7.875-114.66 25.969-41.484 17.156-77.438 40.125-101.25 64.641-21 21.609-29.859 41.812-24.281 55.312 5.625 13.5 26.109 21.516 56.25 21.938 34.219 0.51562 75.844-8.6719 117.33-25.875 88.125-36.516 136.87-92.531 125.48-119.95-5.7188-13.875-27.469-22.031-58.875-22.031zm-181.31 192.56h-3c-41.062-0.60938-69-13.828-78.703-37.172-9.6562-23.391 0.75-52.5 29.344-81.938 26.109-26.859 65.016-51.844 109.5-70.266 44.531-18.422 89.625-28.312 127.13-27.75 41.062 0.5625 69 13.781 78.703 37.172s-0.75 52.453-29.344 81.938c-26.109 26.906-64.969 51.844-109.5 70.266-43.312 17.953-87.281 27.75-124.13 27.75z" fill-rule="evenodd"/>
 <path d="m820.69 393.42h-2.9531c-41.062-0.60938-69-13.781-78.703-37.172l-28.734-69.422c-2.5781-6.2812 0.375-13.5 6.6562-16.078 6.2812-2.625 13.5 0.375 16.125 6.6562l28.734 69.422c5.5781 13.5 26.109 21.516 56.25 21.938 34.172 0.46875 75.844-8.6719 117.33-25.875 88.125-36.516 136.87-92.531 125.53-120l-28.734-69.375c-2.625-6.2812 0.375-13.5 6.6562-16.125s13.5 0.375 16.125 6.7031l28.734 69.422c9.6562 23.391-0.75 52.453-29.344 81.938-26.109 26.859-65.016 51.797-109.5 70.266-43.312 17.953-87.234 27.75-124.13 27.75z" fill-rule="evenodd"/>
 <path d="m546.32 135.32 24.516 16.453c1.4531 0.98438 2.6719 2.25 3.5625 3.7031l11.297 18.094 11.297-18.094c0.9375-1.5 2.1562-2.7188 3.6094-3.7031l24.516-16.453-24.516-16.453c-1.4531-0.98438-2.6719-2.25-3.6094-3.7031l-11.297-18.094-11.297 18.094c-0.9375 1.5-2.1562 2.7188-3.5625 3.7031zm39.422 73.875c-4.2656 0-8.2031-2.2031-10.453-5.8125l-20.344-32.625-37.594-25.219c-3.4219-2.2969-5.4844-6.1406-5.4844-10.266 0-4.0781 2.0156-7.9219 5.4375-10.219l37.594-25.219 20.344-32.625c2.25-3.6094 6.1875-5.7656 10.453-5.7656 4.2188 0 8.2031 2.2031 10.453 5.7656l20.344 32.625 37.641 25.219c3.4219 2.2969 5.4375 6.1406 5.4375 10.219 0 4.125-2.0625 7.9688-5.4375 10.266l-37.594 25.219-20.344 32.625c-2.25 3.6094-6.2344 5.8125-10.453 5.8125z" fill-rule="evenodd"/>
 <path d="m988.97 497.29 24.516 16.453c1.4531 0.98438 2.6719 2.25 3.5625 3.7031l11.297 18.094 11.297-18.094c0.9375-1.5 2.1562-2.7188 3.5625-3.7031l24.516-16.453-24.516-16.453c-1.4531-0.98438-2.6719-2.2031-3.5625-3.7031l-11.297-18.094-11.297 18.047c-0.9375 1.5-2.1562 2.7188-3.5625 3.7031l-24.516 16.453zm39.375 73.875c-4.2656 0-8.2031-2.2031-10.453-5.8125l-20.344-32.625-37.594-25.219c-3.4219-2.2969-5.4844-6.1406-5.4844-10.266s2.0625-7.9219 5.4375-10.219l37.594-25.266 20.344-32.578c2.25-3.6094 6.1875-5.7656 10.453-5.7656s8.2031 2.2031 10.453 5.7656l20.344 32.578 37.594 25.266c3.4219 2.2969 5.4375 6.1406 5.4375 10.219 0 4.125-2.0625 7.9688-5.4375 10.266l-37.594 25.219-20.344 32.625c-2.25 3.6094-6.2344 5.8125-10.453 5.8125z" fill-rule="evenodd"/>
</svg>
