<?xml version="1.0" encoding="UTF-8"?>
<svg width="1200pt" height="1200pt" version="1.1" viewBox="0 0 1200 1200" xmlns="http://www.w3.org/2000/svg">
 <path d="m641.58 334.97c25.078-75.797 65.297-106.22 89.719-124.69 12.422-9.375 21.469-16.172 24.938-26.484 1.0781-3.1875 1.0781-6.6562 0.28125-9.8438-6.375-23.766-23.297-50.531-47.203-56.859-2.6719-0.75-5.3906-0.75-8.25-0.14062-19.266 4.5938-53.203 24.375-82.688 69.047-5.7656-12.047-12.703-23.812-21.094-35.156-68.812-93.047-207.71-134.9-274.22-116.62-4.9688 1.3594-9.2344 4.9688-11.203 9.8438-19.219 45.234-0.14062 125.86 46.266 196.18 35.578 53.719 80.766 91.453 129.42 109.41-174.37 53.016-306.19 224.86-306.19 422.26 0 226.97 179.95 398.11 418.64 398.11s418.64-171.14 418.64-398.11c0-223.4-168.74-414.19-377.06-436.92zm62.625-183.1c5.9062 3.9375 12.422 12.844 16.5 23.156-2.8594 2.25-6.7969 5.2969-10.125 7.875-26.719 20.109-76.172 57.469-104.25 149.95-1.1719 0-2.3438-0.09375-3.5156-0.09375 18.422-123.74 76.969-171.05 101.39-180.89zm-134.63 19.359c12.75 17.297 21.562 35.578 27.094 54.562-6.7969 15.328-12.844 32.766-17.953 52.078-47.812-47.531-128.68-128.06-213.19-213.28 64.594 2.4375 156.28 42.047 204.05 106.64zm-182.72 50.062c-32.391-48.703-47.484-99.844-47.953-134.76 95.344 96.188 186.52 186.89 231.19 231.24-0.46875 2.7188-0.89062 5.4844-1.2656 8.25-5.5781 0.60938-11.109 1.0312-16.594 1.0312-60.703 0-120.89-38.578-165.37-105.75zm213.14 914.34c-219.1 0-384.28-156.37-384.28-363.74 0-219.42 175.97-404.81 384.28-404.81s384.28 185.39 384.28 404.81c0 207.37-165.19 363.74-384.28 363.74z" fill-rule="evenodd"/>
 <path d="m894.24 914.95c-8.1094-4.9219-18.656-2.3906-23.625 5.7188-41.812 68.484-114.7 117.66-199.97 134.9-9.2812 1.875-15.328 10.922-13.453 20.25 1.6406 8.1562 8.8125 13.781 16.828 13.781 1.125 0 2.2969-0.14062 3.4219-0.375 94.594-19.125 175.69-74.062 222.52-150.66 4.9219-8.1094 2.3906-18.656-5.7188-23.625z" fill-rule="evenodd"/>
 <path d="m918.84 851.48c-9.0469-2.9062-18.703 2.1094-21.609 11.156-0.75 2.4375-1.5938 4.8281-2.4375 7.2188-3.1875 8.9531 1.5 18.75 10.453 21.938 1.9219 0.65625 3.8438 0.98438 5.7656 0.98438 7.0781 0 13.688-4.4062 16.172-11.438 0.98438-2.7188 1.9219-5.4844 2.8125-8.25 2.8594-9.0469-2.1094-18.703-11.156-21.609z" fill-rule="evenodd"/>
 <path d="m422.72 521.53c0-17.531-14.297-31.828-31.828-31.828s-31.828 14.297-31.828 31.828 14.297 31.828 31.828 31.828 31.828-14.297 31.828-31.828z" fill-rule="evenodd"/>
 <path d="m332.48 575.48c-17.531 0-31.828 14.297-31.828 31.828s14.297 31.828 31.828 31.828 31.828-14.297 31.828-31.828-14.297-31.828-31.828-31.828z" fill-rule="evenodd"/>
 <path d="m435.61 575.48c-17.531 0-31.828 14.297-31.828 31.828s14.297 31.828 31.828 31.828 31.828-14.297 31.828-31.828-14.297-31.828-31.828-31.828z" fill-rule="evenodd"/>
</svg>
