<?xml version="1.0" encoding="UTF-8"?>
<svg width="1200pt" height="1200pt" version="1.1" viewBox="0 0 1200 1200" xmlns="http://www.w3.org/2000/svg">
 <g>
  <path d="m225 562.5c-20.711 0-37.5 16.789-37.5 37.5s16.789 37.5 37.5 37.5h225c20.711 0 37.5-16.789 37.5-37.5s-16.789-37.5-37.5-37.5z"/>
  <path d="m225 450c-82.844 0-150 67.16-150 150s67.156 150 150 150h750c82.84 0 150-67.16 150-150s-67.16-150-150-150zm-75 150c0-41.422 33.578-75 75-75h750c41.422 0 75 33.578 75 75s-33.578 75-75 75h-750c-41.422 0-75-33.578-75-75z" fill-rule="evenodd"/>
 </g>
</svg>
