<?xml version="1.0" encoding="UTF-8"?>
<svg width="1200pt" height="1200pt" version="1.1" viewBox="0 0 1200 1200" xmlns="http://www.w3.org/2000/svg">
 <path d="m1184.1 443.88c0.88281-1.3086 0.83984-2.3945 0.32422-3.2773 0.45703-1.1211 0.39844-2.3203-0.42188-3.5391-6.9766-10.352-15.496-20.109-26.238-26.277 12.258-1.4648 23.996-10.133 26.441-22.348 3.2656-16.336-8.7656-37.844-24.34-43.801-0.4375-0.16797-0.85938-0.26172-1.2891-0.40625 14.055-6.7109 24.977-22.281 26.07-37.516 1.0703-14.914-8.7812-24.785-21.336-26.594 8.0977-6.3555 14.91-14.418 20.789-23.137 0.88281-1.3086 0.83984-2.3945 0.32422-3.2773 0.45703-1.1211 0.39844-2.3203-0.42188-3.5391-6.9766-10.352-15.496-20.109-26.238-26.273 12.258-1.4648 23.996-10.133 26.441-22.348 3.2656-16.34-8.7656-37.844-24.34-43.801-0.4375-0.16797-0.85938-0.26172-1.2891-0.40625 14.055-6.7109 24.977-22.281 26.07-37.516 1.4531-20.254-17.188-31.34-35.473-25.324-9.1836 3.0195-19.016 11.09-19.07 21.602-0.0625 12.395 15.168 11.27 22.684 6.75 2.9531-1.7734 4.9844-5.4062 1.4805-7.6758-1.5859-1.0273-3.6719-1.1367-5.7773-0.87109 0.86328-1.168 0.22266-3.3242 0.91406-5.0977 0.63281-1.6211 1.9141-4.2891 3.6523-5.0117 2.5234-1.0469 5.75 0.95703 7.6719 2.6523 7.3203 6.457 6.2266 17.977 2.7344 26.055-2.2188 5.1367-7.6328 16.156-14.07 16.918-7.4922 0.89062-15.879-9.1641-20.516-13.719-6.1406-6.0352-12.598-11.551-20.98-14.102-8.8164-2.6797-18.727-2.0234-27.496 0.51172-1.5508 0.44922-3.0078 1.0352-4.4844 1.5977 1.0469-2.2266 1.9805-4.5234 2.6875-6.9492 2.4375-8.332 2.4336-17.941-1.3203-25.887-3.7578-7.9531-10.262-13.688-16.199-19.961-5.5898-5.9102-11.703-13.742-10.016-22.441 1.5078-7.7695 8.5469-13.102 15.258-16.398 7.5547-3.7109 16.961-3.1055 21.266 5.2109 1.7188 3.3242 2.25 7.5 1.1602 11.086-0.61719 2.0352-1.7578 3.2617-2.8047 4.9844-1.6914 2.7773-1.1445 1.0078-0.28906-0.42188 2.2617-3.7617-1.9688-5.6758-5.1211-5.9062-3.9883-0.29688-9.9023 1.4844-12.109 5.1523-5.2969 8.8203 4.5117 13.824 12.219 13.488 9.125-0.39844 18.602-5.2773 23.668-13.004 4.5781-6.9883 4.6445-16.121 0.12109-23.148-4.9102-7.6289-14.324-10.777-23.027-10.977-14.008-0.32422-31.547 7.0391-41.516 18.613-7.6055-10.594-22.758-17.387-34.297-18.438-12.855-1.168-30.062 5.4453-35.129 17.703-5.8242-6.5703-12.992-12.121-20.211-16.984-1.2617-0.84766-3.1758-1.0508-5.25-0.81641-3.5312-0.61719-8.0703 0.73438-10.551 2.4062-5.3164 3.582-10.59 7.5117-15.363 11.914-0.47656-1.1602-0.85938-2.3516-1.5508-3.4258-4.9102-7.6289-14.324-10.777-23.023-10.977-14.008-0.32422-31.547 7.043-41.516 18.613-7.6055-10.598-22.758-17.387-34.297-18.438-12.855-1.168-30.062 5.4453-35.129 17.703-5.8242-6.5703-12.992-12.121-20.211-16.984-1.2617-0.84766-3.1758-1.0508-5.25-0.81641-3.5312-0.61719-8.0703 0.73438-10.551 2.4062-5.3164 3.582-10.59 7.5117-15.363 11.914-0.47656-1.1602-0.85938-2.3516-1.5508-3.4258-4.9102-7.6289-14.324-10.777-23.023-10.977-14.008-0.32422-31.547 7.043-41.516 18.613-7.6055-10.598-22.758-17.387-34.297-18.438-12.855-1.168-30.062 5.4453-35.129 17.703-5.8242-6.5703-12.992-12.121-20.211-16.984-1.2617-0.84766-3.1758-1.0508-5.25-0.81641-3.5312-0.61719-8.0703 0.73438-10.551 2.4062-5.3164 3.582-10.59 7.5117-15.363 11.914-0.47656-1.1602-0.85938-2.3516-1.5508-3.4258-4.9102-7.6289-14.324-10.777-23.023-10.977-14.008-0.32422-31.547 7.043-41.516 18.613-7.6055-10.598-22.758-17.387-34.297-18.438-12.855-1.168-30.062 5.4453-35.129 17.703-5.8242-6.5703-12.992-12.121-20.211-16.984-1.2617-0.84766-3.1758-1.0508-5.25-0.81641-3.5312-0.61719-8.0703 0.73438-10.551 2.4062-5.3164 3.582-10.59 7.5117-15.363 11.914-0.47656-1.1602-0.85938-2.3516-1.5508-3.4258-4.9102-7.6289-14.324-10.777-23.023-10.977-14.008-0.32422-31.547 7.043-41.516 18.613-7.6055-10.598-22.758-17.387-34.297-18.438-12.855-1.168-30.062 5.4453-35.129 17.703-5.8242-6.5703-12.992-12.117-20.211-16.984-1.2617-0.84766-3.1758-1.0508-5.25-0.81641-3.5312-0.61719-8.0703 0.73438-10.551 2.4062-14.148 9.5352-27.973 21.488-32.934 38.453-2.4375 8.332-2.4336 17.941 1.3203 25.887 3.7578 7.9531 10.262 13.688 16.199 19.961 5.5898 5.9102 11.703 13.742 10.016 22.445-0.65625 3.3867-2.4023 6.2852-4.6758 8.7773-1.0664-7.7617-5.332-13.664-11.316-17.207 0-5.8203-7.4023-9.0352-13.586-8.7656-9.125 0.39844-18.602 5.2773-23.668 13.004-1.0469 1.5977-1.793 3.3281-2.3672 5.1016-2.0039 2.9922-3.2891 6.3828-3.3086 10.102-0.027344 5.3555 2.8633 8.082 6.6914 9.207 5.1172 6.6094 13.742 9.5312 21.883 9.7188 1.2656 0.03125 2.6094-0.12891 3.9258-0.22266-2.5781 5.5469-7.4805 14.336-13.215 15.02-7.4922 0.89063-15.879-9.1602-20.516-13.719-6.1367-6.0352-12.598-11.551-20.98-14.102-8.8164-2.6797-18.727-2.0234-27.496 0.51172-18.238 5.2734-31.309 18.762-41.641 34.09-0.88281 1.3086-0.83984 2.3945-0.32422 3.2773-0.45703 1.1211-0.39844 2.3203 0.42188 3.5391 6.9766 10.352 15.496 20.109 26.238 26.273-12.258 1.4648-23.996 10.133-26.441 22.348-3.2656 16.34 8.7656 37.844 24.34 43.801 0.4375 0.16797 0.85937 0.26172 1.2891 0.40625-14.055 6.7109-24.977 22.281-26.07 37.516-1.0703 14.914 8.7812 24.785 21.332 26.594-8.0977 6.3555-14.91 14.418-20.789 23.137-0.88281 1.3086-0.83984 2.3945-0.32422 3.2773-0.45703 1.1211-0.39844 2.3203 0.42187 3.5391 6.9766 10.352 15.496 20.109 26.238 26.273-12.258 1.4648-23.996 10.133-26.441 22.348-3.2656 16.34 8.7656 37.844 24.34 43.801 0.4375 0.16797 0.85938 0.26172 1.2891 0.40625-14.055 6.7109-24.977 22.281-26.07 37.516-1.0703 14.914 8.7812 24.785 21.332 26.594-8.0977 6.3555-14.91 14.418-20.789 23.137-0.88281 1.3086-0.83984 2.3945-0.32422 3.2773-0.45703 1.1211-0.39844 2.3203 0.42188 3.5391 6.9766 10.352 15.496 20.109 26.238 26.273-12.258 1.4648-23.996 10.133-26.441 22.348-3.2656 16.34 8.7656 37.844 24.34 43.801 0.4375 0.16797 0.85938 0.26172 1.2891 0.40625-14.055 6.7109-24.977 22.281-26.07 37.516-1.0703 14.914 8.7812 24.785 21.332 26.594-8.0977 6.3555-14.91 14.418-20.789 23.137-0.88281 1.3086-0.83984 2.3945-0.32422 3.2773-0.45703 1.1211-0.39844 2.3203 0.42188 3.5391 6.9766 10.352 15.496 20.109 26.238 26.273-12.258 1.4648-23.996 10.133-26.441 22.348-3.2656 16.34 8.7656 37.844 24.34 43.801 0.4375 0.16797 0.85938 0.26172 1.2891 0.40625-14.055 6.7109-24.977 22.281-26.07 37.516-1.0703 14.914 8.7812 24.785 21.332 26.594-8.0977 6.3555-14.91 14.418-20.789 23.137-0.88281 1.3086-0.83984 2.3945-0.32422 3.2773-0.45703 1.1211-0.39844 2.3203 0.42188 3.5391 6.9766 10.352 15.496 20.109 26.238 26.273-12.258 1.4648-23.996 10.133-26.441 22.348-3.2656 16.34 8.7656 37.844 24.34 43.801 0.4375 0.16797 0.85938 0.26172 1.2891 0.40625-14.055 6.7109-24.977 22.281-26.07 37.516-1.4531 20.254 17.188 31.34 35.473 25.324 9.1836-3.0195 19.016-11.09 19.07-21.602 0.0625-12.395-15.168-11.27-22.684-6.75-2.9531 1.7734-4.9844 5.4062-1.4805 7.6758 1.5859 1.0273 3.6719 1.1328 5.7773 0.87109-0.86328 1.168-0.22266 3.3281-0.91406 5.0977-0.63281 1.6211-1.9141 4.2891-3.6523 5.0117-2.5234 1.0469-5.75-0.95703-7.6719-2.6523-7.3203-6.457-6.2266-17.977-2.7344-26.055 2.2188-5.1367 7.6328-16.152 14.07-16.918 7.4922-0.89062 15.879 9.1602 20.512 13.719 6.1406 6.0352 12.598 11.551 20.98 14.102 8.8164 2.6797 18.727 2.0234 27.496-0.51172 1.5508-0.44922 3.0078-1.0352 4.4844-1.5977-1.0469 2.2266-1.9805 4.5234-2.6875 6.9492-2.4375 8.332-2.4336 17.941 1.3203 25.887 3.7578 7.9531 10.262 13.688 16.199 19.961 5.5898 5.9102 11.703 13.742 10.016 22.445-1.5078 7.7695-8.5469 13.102-15.258 16.398-7.5547 3.7109-16.961 3.1055-21.266-5.2109-1.7188-3.3242-2.25-7.5-1.1602-11.086 0.61719-2.0352 1.7578-3.2617 2.8047-4.9844 1.6914-2.7773 1.1445-1.0039 0.28906 0.42187-2.2617 3.7617 1.9688 5.6758 5.1211 5.9062 3.9883 0.29297 9.9023-1.4844 12.109-5.1523 5.2969-8.8203-4.5117-13.824-12.219-13.488-9.125 0.39844-18.602 5.2773-23.668 13.004-4.5781 6.9883-4.6445 16.125-0.12109 23.148 4.9102 7.6328 14.324 10.777 23.023 10.977 14.008 0.32422 31.547-7.043 41.516-18.613 7.6055 10.598 22.758 17.387 34.297 18.438 12.855 1.168 30.062-5.4453 35.129-17.703 5.8242 6.5703 12.992 12.121 20.211 16.984 1.2617 0.84766 3.1758 1.0508 5.25 0.81641 3.5312 0.61719 8.0703-0.73438 10.551-2.4062 5.3164-3.582 10.59-7.5117 15.363-11.918 0.47656 1.1602 0.85937 2.3516 1.5508 3.4258 4.9102 7.6328 14.324 10.777 23.023 10.977 14.008 0.32422 31.547-7.0391 41.516-18.613 7.6016 10.594 22.758 17.387 34.297 18.438 12.855 1.168 30.062-5.4453 35.129-17.703 5.8242 6.5703 12.992 12.121 20.211 16.984 1.2617 0.84766 3.1758 1.0508 5.25 0.81641 3.5312 0.61719 8.0703-0.73438 10.551-2.4062 5.3164-3.582 10.59-7.5117 15.363-11.918 0.47656 1.1602 0.85938 2.3516 1.5508 3.4258 4.9102 7.6328 14.324 10.777 23.023 10.977 14.008 0.32422 31.547-7.0391 41.516-18.613 7.6016 10.594 22.758 17.387 34.297 18.438 12.855 1.168 30.062-5.4453 35.129-17.703 5.8242 6.5703 12.992 12.121 20.211 16.984 1.2617 0.84766 3.1758 1.0508 5.25 0.81641 3.5312 0.61719 8.0703-0.73438 10.551-2.4062 5.3164-3.582 10.59-7.5117 15.363-11.918 0.47656 1.1602 0.85937 2.3516 1.5508 3.4258 4.9102 7.6328 14.324 10.777 23.023 10.977 14.008 0.32422 31.547-7.0391 41.516-18.613 7.6016 10.594 22.758 17.387 34.297 18.438 12.855 1.168 30.062-5.4453 35.129-17.703 5.8242 6.5703 12.992 12.121 20.211 16.984 1.2617 0.84766 3.1758 1.0508 5.25 0.81641 3.5312 0.61719 8.0703-0.73438 10.551-2.4062 5.3164-3.582 10.59-7.5117 15.363-11.918 0.47656 1.1602 0.85938 2.3516 1.5508 3.4258 4.9102 7.6328 14.324 10.777 23.023 10.977 14.008 0.32422 31.547-7.0391 41.516-18.613 7.6016 10.594 22.758 17.387 34.297 18.438 12.855 1.168 30.062-5.4453 35.129-17.703 5.8242 6.5703 12.992 12.121 20.211 16.984 1.2617 0.84766 3.1758 1.0508 5.25 0.81641 3.5312 0.61719 8.0703-0.73438 10.551-2.4062 14.148-9.5352 27.973-21.488 32.934-38.453 2.4375-8.332 2.4336-17.941-1.3203-25.887-3.7578-7.9531-10.262-13.688-16.199-19.961-5.5898-5.9102-11.703-13.742-10.016-22.441 0.65625-3.3867 2.3984-6.2852 4.6758-8.7773 1.0664 7.7617 5.332 13.664 11.316 17.207 0 5.8203 7.4023 9.0391 13.586 8.7656 9.125-0.39844 18.602-5.2773 23.668-13.004 1.0469-1.5977 1.793-3.332 2.3672-5.1016 2.0039-2.9922 3.2891-6.3828 3.3047-10.098 0.027344-5.3555-2.8633-8.082-6.6914-9.207-5.1172-6.6094-13.742-9.5312-21.883-9.7188-1.2656-0.03125-2.6094 0.12891-3.9258 0.22266 2.5781-5.5469 7.4805-14.336 13.215-15.02 7.4922-0.89062 15.879 9.1641 20.516 13.719 6.1367 6.0352 12.598 11.551 20.98 14.102 8.8164 2.6797 18.727 2.0234 27.496-0.51172 18.238-5.2734 31.309-18.762 41.641-34.09 0.88281-1.3086 0.83984-2.3945 0.32422-3.2773 0.45703-1.1211 0.39844-2.3203-0.42188-3.5391-6.9766-10.352-15.496-20.109-26.234-26.273 12.258-1.4648 23.996-10.133 26.441-22.348 3.2656-16.336-8.7656-37.844-24.34-43.801-0.43359-0.16797-0.85938-0.26172-1.2891-0.40625 14.055-6.7109 24.977-22.281 26.07-37.516 1.0703-14.914-8.7812-24.785-21.336-26.594 8.0977-6.3555 14.91-14.418 20.789-23.137 0.88281-1.3086 0.83984-2.3945 0.32422-3.2773 0.45703-1.1211 0.39844-2.3203-0.42188-3.5391-6.9766-10.352-15.496-20.109-26.234-26.273 12.258-1.4648 23.996-10.133 26.441-22.348 3.2656-16.336-8.7656-37.844-24.34-43.801-0.43359-0.16797-0.85938-0.26172-1.2891-0.40625 14.055-6.7109 24.977-22.281 26.07-37.516 1.0703-14.914-8.7812-24.785-21.336-26.594 8.0977-6.3555 14.91-14.418 20.789-23.137 0.88281-1.3086 0.83984-2.3945 0.32422-3.2773 0.45703-1.1211 0.39844-2.3203-0.42188-3.5391-6.9766-10.352-15.496-20.109-26.234-26.273 12.258-1.4648 23.996-10.133 26.441-22.348 3.2656-16.336-8.7656-37.844-24.34-43.801-0.43359-0.16797-0.85937-0.26172-1.2891-0.40625 14.055-6.7109 24.977-22.281 26.07-37.516 1.0703-14.914-8.7812-24.785-21.336-26.594 8.0977-6.3555 14.91-14.418 20.789-23.137zm-63.855 21.121c-8.1836-5.3086-13.914-13.676-21.992-19.211-3.0508-2.0898-6.4062-3.5117-9.8594-4.5508 9.4023-4.5508 17.723-12.641 25.402-19.594 19.477-17.633 41.551 5.8516 52.66 22.078-10.078 14.789-27.172 33.629-46.211 21.277zm42.633-92.223c3.0625 6.7969 6.4453 20.383-1.0781 25.898-2.4648 1.8047-4.8086 0.83203-7.2617-0.87109-1.5117-1.0469-2.9375-2.6211-3.918-4.1953-0.72266-1.1641-1.2617-2.4062-1.6211-3.7266-0.039062-0.69922-0.27344-1.1406-0.46875-1.6328 5.707-1.8711 10.691-6.1289 5.7383-9.1016-7.2852-4.375-19.789-0.69141-23.246 7.168-2.7656 6.293 0.68359 13.312 5.5039 17.941-16.402-1.082-30.285 6.5469-42.234 18.309-4.5625 4.4883-11.207 13.094-18.434 10.211-7.3828-2.9453-12.754-11.246-15.879-18.18-3.0625-6.7969-6.4453-20.383 1.0781-25.898 2.4648-1.8047 4.8086-0.83203 7.2617 0.87109 1.5117 1.0469 2.9375 2.6211 3.918 4.1953 0.72266 1.1641 1.2656 2.4062 1.6211 3.7266 0.039063 0.69922 0.27344 1.1406 0.46875 1.6328-5.707 1.8711-10.691 6.1289-5.7383 9.1016 7.2852 4.375 19.789 0.69141 23.246-7.168 2.7656-6.293-0.68359-13.312-5.5039-17.941 16.402 1.082 30.285-6.5469 42.234-18.309 4.5586-4.4883 11.207-13.094 18.434-10.211 7.3828 2.9453 12.754 11.246 15.879 18.18zm-60.262-50.402c8.1836 5.3086 13.914 13.676 21.992 19.211 3.0508 2.0898 6.4062 3.5117 9.8594 4.5508-9.4023 4.5508-17.723 12.641-25.402 19.594-19.477 17.633-41.551-5.8555-52.66-22.078 10.078-14.789 27.172-33.629 46.211-21.277zm60.848-2.5781c-2.2188 5.1367-7.6328 16.156-14.07 16.918-7.4922 0.89062-15.879-9.1641-20.516-13.719-6.1406-6.0352-12.598-11.551-20.98-14.102-5.9023-1.793-12.277-1.9961-18.488-1.2344 2.0312-3.0078 3.3281-6.4258 3.3477-10.172 0.0625-12.395-15.164-11.27-22.684-6.75-2.9531 1.7734-4.9844 5.4062-1.4805 7.6758 1.5859 1.0273 3.6719 1.1328 5.7773 0.87109-0.86328 1.168-0.22266 3.3242-0.91406 5.0977-0.63281 1.6211-1.9141 4.2891-3.6523 5.0117-2.5234 1.0469-5.75-0.95703-7.6719-2.6523-7.3203-6.457-6.2266-17.977-2.7344-26.055 2.2188-5.1367 7.6328-16.152 14.07-16.918 7.4922-0.89062 15.879 9.1602 20.516 13.719 6.1367 6.0352 12.598 11.551 20.98 14.102 5.9023 1.793 12.277 1.9961 18.488 1.2344-2.0312 3.0078-3.332 6.4258-3.3477 10.172-0.0625 12.395 15.168 11.27 22.684 6.75 2.9531-1.7734 4.9844-5.4062 1.4805-7.6758-1.5859-1.0273-3.6719-1.1367-5.7773-0.87109 0.86328-1.168 0.22266-3.3242 0.91406-5.0977 0.63281-1.6211 1.9141-4.2891 3.6523-5.0117 2.5234-1.0469 5.75 0.95703 7.6719 2.6523 7.3203 6.457 6.2266 17.977 2.7344 26.055zm-43.219-41.688c-8.1836-5.3086-13.914-13.676-21.992-19.211-3.0508-2.0898-6.4062-3.5117-9.8594-4.5508 9.4023-4.5508 17.723-12.641 25.402-19.594 19.477-17.633 41.551 5.8516 52.66 22.078-10.078 14.789-27.172 33.629-46.211 21.277zm42.633-92.223c3.0625 6.7969 6.4453 20.383-1.0781 25.898-2.4648 1.8047-4.8086 0.83203-7.2617-0.87109-1.5117-1.0469-2.9375-2.6211-3.918-4.1953-0.72266-1.1641-1.2617-2.4062-1.6211-3.7266-0.039062-0.69922-0.27344-1.1406-0.46875-1.6328 5.707-1.8711 10.691-6.1289 5.7383-9.1016-7.2852-4.375-19.789-0.69141-23.246 7.168-2.7656 6.293 0.68359 13.312 5.5039 17.941-16.402-1.082-30.285 6.5469-42.234 18.309-4.5625 4.4883-11.207 13.094-18.434 10.211-7.3828-2.9453-12.754-11.246-15.879-18.18-3.0625-6.7969-6.4453-20.383 1.0781-25.895 2.4648-1.8047 4.8086-0.83203 7.2617 0.87109 1.5117 1.0469 2.9375 2.6211 3.918 4.1953 0.72266 1.1641 1.2656 2.4062 1.6211 3.7266 0.039063 0.69922 0.27344 1.1406 0.46875 1.6328-5.707 1.8711-10.691 6.1289-5.7383 9.1016 7.2852 4.375 19.789 0.69141 23.246-7.168 2.7656-6.293-0.68359-13.312-5.5039-17.941 16.402 1.082 30.285-6.5469 42.234-18.309 4.5586-4.4883 11.207-13.094 18.434-10.211 7.3828 2.9453 12.754 11.246 15.879 18.18zm-60.262-50.402c8.1836 5.3086 13.914 13.676 21.992 19.211 3.0508 2.0898 6.4062 3.5117 9.8594 4.5508-9.4023 4.5508-17.723 12.641-25.402 19.594-19.477 17.633-41.551-5.8555-52.66-22.078 10.078-14.789 27.172-33.629 46.211-21.277zm-46.32-43.453c13.992 19.461-0.18359 40.09-16.07 52.945-14.652-10.852-28.828-26.992-24.141-46.41 2.8555-11.836 13.84-19.312 21.336-28.559 5.3672 7.8438 13.652 14.762 18.871 22.027zm-76.484-8.3477c2.9297-6.0586 3.9023-12.684 3.3125-19.285 2.4258 0.97266 5 1.5938 7.625 1.7188 8.6328 0.41406 24.188-6.1172 17.734-16.855-2.4492-4.0781-12.707-1.9141-16.348 2.2656-1.0703-1.0742-2.1133-2.1719-2.8125-3.5391-1.9062-3.7109-2.1641-8.2383-0.57812-12.133 3.5742-8.7812 12.758-5.7148 19.375-2.4102 7.1406 3.5625 15.117 9.1211 17.43 17.211 2.4688 8.6484-2.8477 16.566-8.5469 22.59-5.9531 6.293-12.848 12.188-16.684 20.121-2.9297 6.0586-3.9023 12.684-3.3125 19.285-2.4258-0.97266-5-1.5938-7.625-1.7188-8.6328-0.41406-24.188 6.1172-17.734 16.855 2.4492 4.0781 12.707 1.9141 16.348-2.2656 1.0703 1.0742 2.1133 2.1719 2.8125 3.5391 1.9062 3.7109 2.1641 8.2383 0.57812 12.133-3.5742 8.7812-12.758 5.7148-19.375 2.4102-7.1406-3.5664-15.117-9.1211-17.426-17.211-2.4688-8.6484 2.8477-16.566 8.5469-22.59 5.9531-6.293 12.848-12.188 16.684-20.121zm-39.914-51.609c14.652 10.852 28.828 26.992 24.141 46.41-2.8555 11.836-13.84 19.312-21.336 28.559-5.3672-7.8438-13.652-14.762-18.871-22.027-13.992-19.461 0.18359-40.09 16.07-52.945zm-75.719 16.801c1.5078-7.7695 8.5469-13.102 15.258-16.398 7.5547-3.7109 16.961-3.1055 21.266 5.2109 1.7188 3.3242 2.25 7.5 1.1602 11.086-0.61719 2.0352-1.7578 3.2617-2.8047 4.9844-1.6914 2.7773-1.1445 1.0078-0.28906-0.42188 2.2617-3.7617-1.9688-5.6758-5.1211-5.9062-3.9883-0.29688-9.9023 1.4844-12.109 5.1523-5.2969 8.8203 4.5117 13.824 12.219 13.488 2.2344-0.097656 4.4883-0.48047 6.6992-1.0898-1.1406 6.9961-0.625 14.418 2.3867 20.793 3.7578 7.9531 10.262 13.688 16.199 19.961 5.5898 5.9102 11.703 13.742 10.016 22.445-1.5078 7.7695-8.5469 13.102-15.258 16.398-7.5547 3.7109-16.961 3.1055-21.262-5.2109-1.7188-3.3242-2.25-7.5-1.1602-11.086 0.61719-2.0352 1.7578-3.2617 2.8047-4.9844 1.6914-2.7773 1.1445-1.0039 0.28906 0.42188-2.2617 3.7617 1.9688 5.6758 5.1211 5.9062 3.9883 0.29297 9.9023-1.4844 12.109-5.1523 5.2969-8.8203-4.5117-13.824-12.219-13.488-2.2344 0.097656-4.4883 0.48047-6.6992 1.0898 1.1406-6.9961 0.625-14.418-2.3867-20.793-3.7578-7.9531-10.262-13.688-16.199-19.961-5.5898-5.9102-11.703-13.742-10.016-22.441zm-10.844 96.102c-14.652-10.852-28.828-26.992-24.141-46.41 2.8555-11.836 13.84-19.312 21.336-28.559 5.3672 7.8438 13.652 14.762 18.871 22.027 13.992 19.461-0.18359 40.09-16.07 52.945zm-60.418-61.293c2.9297-6.0586 3.9023-12.684 3.3125-19.285 2.4258 0.97266 5 1.5938 7.625 1.7188 8.6328 0.41406 24.188-6.1172 17.734-16.855-2.4492-4.0781-12.707-1.9141-16.348 2.2656-1.0703-1.0742-2.1133-2.1719-2.8125-3.5391-1.9062-3.7109-2.1641-8.2383-0.57813-12.133 3.5742-8.7812 12.758-5.7148 19.375-2.4102 7.1406 3.5625 15.117 9.1211 17.43 17.211 2.4688 8.6484-2.8477 16.566-8.5469 22.59-5.9531 6.293-12.848 12.188-16.684 20.121-2.9297 6.0586-3.9023 12.684-3.3125 19.285-2.4258-0.97266-5-1.5938-7.625-1.7188-8.6328-0.41406-24.188 6.1172-17.734 16.855 2.4492 4.0781 12.707 1.9141 16.348-2.2656 1.0703 1.0742 2.1133 2.1719 2.8125 3.5391 1.9062 3.7109 2.1641 8.2383 0.57813 12.133-3.5742 8.7812-12.758 5.7148-19.375 2.4102-7.1406-3.5664-15.117-9.1211-17.426-17.211-2.4688-8.6484 2.8477-16.566 8.5469-22.59 5.9531-6.293 12.848-12.188 16.684-20.121zm-39.91-51.609c14.652 10.852 28.828 26.992 24.141 46.41-2.8555 11.836-13.84 19.312-21.336 28.559-5.3672-7.8438-13.652-14.762-18.871-22.027-13.992-19.461 0.18359-40.09 16.07-52.945zm-75.719 16.801c1.5078-7.7695 8.5469-13.102 15.258-16.398 7.5547-3.7109 16.961-3.1055 21.262 5.2109 1.7188 3.3242 2.25 7.5 1.1602 11.086-0.61719 2.0352-1.7578 3.2617-2.8047 4.9844-1.6914 2.7773-1.1445 1.0078-0.28906-0.42188 2.2617-3.7617-1.9688-5.6758-5.1211-5.9062-3.9883-0.29688-9.9023 1.4844-12.109 5.1523-5.2969 8.8203 4.5117 13.824 12.219 13.488 2.2344-0.097656 4.4922-0.48047 6.6992-1.0898-1.1406 6.9961-0.625 14.418 2.3867 20.793 3.7578 7.9531 10.262 13.688 16.199 19.961 5.5898 5.9102 11.703 13.742 10.016 22.445-1.5078 7.7695-8.5469 13.102-15.258 16.398-7.5547 3.7109-16.961 3.1055-21.262-5.2109-1.7188-3.3242-2.25-7.5-1.1602-11.086 0.61719-2.0352 1.7578-3.2617 2.8047-4.9844 1.6914-2.7773 1.1445-1.0039 0.28906 0.42188-2.2617 3.7617 1.9688 5.6758 5.1211 5.9062 3.9883 0.29297 9.9023-1.4844 12.109-5.1523 5.2969-8.8203-4.5117-13.824-12.219-13.488-2.2344 0.097656-4.4883 0.48047-6.6992 1.0898 1.1406-6.9961 0.625-14.418-2.3867-20.793-3.7578-7.9531-10.262-13.688-16.199-19.961-5.5898-5.9102-11.703-13.742-10.016-22.441zm-10.844 96.102c-14.652-10.852-28.828-26.992-24.141-46.41 2.8555-11.836 13.84-19.312 21.336-28.559 5.3672 7.8438 13.652 14.762 18.871 22.027 13.992 19.461-0.18359 40.09-16.07 52.945zm-60.418-61.293c2.9297-6.0586 3.9023-12.684 3.3125-19.285 2.4258 0.97266 5 1.5938 7.625 1.7188 8.6328 0.41406 24.188-6.1172 17.734-16.855-2.4492-4.0781-12.707-1.9141-16.348 2.2656-1.0703-1.0742-2.1133-2.1719-2.8125-3.5391-1.9062-3.7109-2.1641-8.2383-0.57812-12.133 3.5742-8.7812 12.758-5.7148 19.375-2.4102 7.1406 3.5625 15.117 9.1211 17.426 17.211 2.4688 8.6484-2.8477 16.566-8.543 22.59-5.9531 6.293-12.848 12.188-16.684 20.121-2.9297 6.0586-3.9023 12.684-3.3125 19.285-2.4258-0.97266-5-1.5938-7.625-1.7188-8.6328-0.41406-24.188 6.1172-17.734 16.855 2.4492 4.0781 12.707 1.9141 16.348-2.2656 1.0703 1.0742 2.1133 2.1719 2.8125 3.5391 1.9062 3.7109 2.1641 8.2383 0.57812 12.133-3.5742 8.7812-12.758 5.7148-19.375 2.4102-7.1406-3.5664-15.117-9.1211-17.426-17.211-2.4688-8.6484 2.8477-16.566 8.5469-22.59 5.9531-6.293 12.848-12.188 16.684-20.121zm-39.91-51.609c14.652 10.852 28.828 26.992 24.141 46.41-2.8555 11.836-13.84 19.312-21.336 28.559-5.3672-7.8438-13.652-14.762-18.871-22.027-13.992-19.461 0.18359-40.09 16.07-52.945zm-75.719 16.801c1.5078-7.7695 8.5469-13.102 15.258-16.398 7.5547-3.7109 16.961-3.1055 21.262 5.2109 1.7188 3.3242 2.25 7.5 1.1602 11.086-0.61719 2.0352-1.7578 3.2617-2.8047 4.9844-1.6914 2.7773-1.1445 1.0078-0.28906-0.42188 2.2617-3.7617-1.9688-5.6758-5.1211-5.9062-3.9883-0.29688-9.9023 1.4844-12.109 5.1523-5.2969 8.8203 4.5117 13.824 12.219 13.488 2.2344-0.097656 4.4922-0.48047 6.6992-1.0898-1.1406 6.9961-0.625 14.418 2.3867 20.793 3.7578 7.9531 10.262 13.688 16.199 19.961 5.5898 5.9102 11.703 13.742 10.016 22.445-1.5078 7.7695-8.5469 13.102-15.258 16.398-7.5547 3.7109-16.961 3.1055-21.262-5.2109-1.7188-3.3242-2.25-7.5-1.1602-11.086 0.61719-2.0352 1.7578-3.2617 2.8047-4.9844 1.6914-2.7773 1.1445-1.0039 0.28906 0.42188-2.2617 3.7617 1.9688 5.6758 5.1211 5.9062 3.9883 0.29297 9.9023-1.4844 12.109-5.1523 5.2969-8.8203-4.5117-13.824-12.219-13.488-2.2344 0.097656-4.4883 0.48047-6.6992 1.0898 1.1406-6.9961 0.625-14.418-2.3867-20.793-3.7578-7.9531-10.262-13.688-16.199-19.961-5.5898-5.9102-11.703-13.742-10.016-22.441zm-10.844 96.102c-14.652-10.852-28.828-26.992-24.141-46.41 2.8555-11.836 13.84-19.312 21.336-28.559 5.3672 7.8438 13.652 14.762 18.871 22.027 13.992 19.461-0.18359 40.09-16.07 52.945zm-60.418-61.293c2.9297-6.0586 3.9023-12.684 3.3125-19.285 2.4258 0.97266 5 1.5938 7.625 1.7188 8.6328 0.41406 24.188-6.1172 17.734-16.855-2.4492-4.0781-12.707-1.9141-16.348 2.2656-1.0703-1.0742-2.1133-2.1719-2.8125-3.5391-1.9062-3.7109-2.1641-8.2383-0.57813-12.133 3.5742-8.7812 12.758-5.7148 19.375-2.4102 7.1406 3.5625 15.117 9.1211 17.426 17.211 2.4688 8.6484-2.8477 16.566-8.543 22.59-5.9531 6.293-12.848 12.188-16.684 20.121-2.9297 6.0586-3.9023 12.684-3.3125 19.285-2.4258-0.97266-5-1.5938-7.625-1.7188-8.6328-0.41406-24.188 6.1172-17.734 16.855 2.4492 4.0781 12.707 1.9141 16.348-2.2656 1.0703 1.0742 2.1133 2.1719 2.8125 3.5391 1.9062 3.7109 2.1641 8.2383 0.57813 12.133-3.5742 8.7812-12.758 5.7148-19.375 2.4102-7.1406-3.5664-15.117-9.1211-17.426-17.211-2.4688-8.6484 2.8477-16.566 8.5469-22.59 5.9531-6.293 12.848-12.188 16.684-20.121zm-39.91-51.609c14.652 10.852 28.828 26.992 24.141 46.41-2.8555 11.836-13.84 19.312-21.336 28.559-5.3672-7.8438-13.652-14.762-18.871-22.027-13.992-19.461 0.18359-40.09 16.07-52.945zm-75.719 16.801c1.5078-7.7695 8.5469-13.102 15.258-16.398 7.5547-3.7109 16.961-3.1055 21.262 5.2109 1.7188 3.3242 2.25 7.5 1.1602 11.086-0.61719 2.0352-1.7578 3.2617-2.8047 4.9844-1.6914 2.7773-1.1445 1.0078-0.28906-0.42188 2.2617-3.7617-1.9688-5.6758-5.1211-5.9062-3.9883-0.29688-9.9023 1.4844-12.109 5.1523-5.2969 8.8203 4.5117 13.824 12.219 13.488 2.2344-0.097656 4.4922-0.48047 6.6992-1.0898-1.1406 6.9961-0.625 14.418 2.3867 20.793 3.7578 7.9531 10.262 13.688 16.199 19.961 5.5898 5.9102 11.703 13.742 10.016 22.445-1.5078 7.7695-8.5469 13.102-15.258 16.398-7.5547 3.7109-16.961 3.1055-21.262-5.2109-1.7188-3.3242-2.25-7.5-1.1602-11.086 0.61719-2.0352 1.7578-3.2617 2.8047-4.9844 1.6914-2.7773 1.1445-1.0039 0.28906 0.42188-2.2617 3.7617 1.9688 5.6758 5.1211 5.9062 3.9883 0.29297 9.9023-1.4844 12.109-5.1523 5.2969-8.8203-4.5117-13.824-12.219-13.488-2.2344 0.097656-4.4922 0.48047-6.6992 1.0898 1.1406-6.9961 0.625-14.418-2.3867-20.793-3.7578-7.9531-10.262-13.688-16.199-19.961-5.5898-5.9102-11.703-13.742-10.016-22.441zm-10.844 96.102c-14.652-10.852-28.828-26.992-24.141-46.41 2.8555-11.836 13.84-19.312 21.336-28.559 5.3672 7.8438 13.652 14.762 18.871 22.027 13.992 19.461-0.18359 40.09-16.07 52.945zm-60.418-61.293c2.9297-6.0586 3.9023-12.684 3.3125-19.285 2.4258 0.97266 5 1.5938 7.625 1.7188 8.6328 0.41406 24.188-6.1172 17.734-16.855-2.4492-4.0781-12.707-1.9141-16.348 2.2656-1.0703-1.0742-2.1133-2.1719-2.8125-3.5391-1.9062-3.7109-2.1641-8.2383-0.57812-12.133 3.5742-8.7812 12.758-5.7148 19.375-2.4102 7.1406 3.5625 15.117 9.1211 17.426 17.211 2.4688 8.6484-2.8477 16.566-8.543 22.59-5.9531 6.293-12.848 12.188-16.684 20.121-2.9297 6.0586-3.9023 12.684-3.3125 19.285-2.4258-0.97266-5-1.5938-7.625-1.7188-8.6328-0.41406-24.188 6.1172-17.734 16.855 2.4492 4.0781 12.707 1.9141 16.348-2.2656 1.0703 1.0742 2.1133 2.1719 2.8125 3.5391 1.9062 3.7109 2.1641 8.2383 0.57812 12.133-3.5742 8.7812-12.758 5.7148-19.375 2.4102-7.1406-3.5664-15.117-9.1211-17.426-17.211-2.4688-8.6484 2.8477-16.566 8.543-22.59 5.9531-6.293 12.848-12.188 16.684-20.121zm-55.98 1.3359c-13.992-19.461 0.18359-40.09 16.07-52.945 14.652 10.852 28.828 26.992 24.141 46.41-2.8555 11.836-13.84 19.312-21.336 28.559-5.3672-7.8438-13.652-14.762-18.871-22.027zm-28.273 58.207c0.94922-1.6719 0.89453-3.5742-1.2539-4.9648-0.74219-0.48047-1.6367-0.67578-2.5469-0.83203-0.96094-2.7148-1.1836-5.7305-0.50391-8.4961 0.53906-0.72266 1.1406-1.3633 1.8398-1.6562 0.36328-0.15234 0.76562-0.12109 1.1523-0.15234 0.94531 1.5273 3.3555 2.3477 5.3438 2.4961 0.22266 0.015624 0.49219-0.039063 0.72656-0.035157 0.14062 0.11719 0.31641 0.23047 0.44922 0.34766 4.7734 4.2109 5.9336 10.566 5.2227 16.727-3.8438 0.23828-7.5508-0.79688-10.426-3.4297zm-52.906 15.336c8.1836 5.3086 13.914 13.676 21.992 19.211 3.0508 2.0898 6.4062 3.5117 9.8594 4.5508-9.4023 4.5508-17.723 12.641-25.402 19.594-19.477 17.633-41.551-5.8516-52.66-22.078 10.078-14.789 27.172-33.629 46.211-21.277zm-42.633 92.223c-3.0625-6.7969-6.4453-20.383 1.0781-25.898 2.4648-1.8047 4.8086-0.83203 7.2617 0.87109 1.5117 1.0469 2.9375 2.6211 3.918 4.1953 0.72266 1.1641 1.2617 2.4062 1.6211 3.7266 0.039063 0.69922 0.27344 1.1406 0.46875 1.6328-5.707 1.8711-10.691 6.1289-5.7383 9.1016 7.2852 4.375 19.789 0.69141 23.246-7.168 2.7656-6.293-0.68359-13.312-5.5039-17.941 16.402 1.082 30.285-6.5469 42.234-18.309 4.5625-4.4883 11.207-13.094 18.434-10.211 7.3828 2.9453 12.754 11.246 15.879 18.18 3.0625 6.7969 6.4453 20.383-1.0781 25.895-2.4648 1.8047-4.8086 0.83203-7.2617-0.87109-1.5117-1.0469-2.9375-2.6211-3.918-4.1953-0.72266-1.1641-1.2656-2.4062-1.6211-3.7266-0.039062-0.69922-0.27344-1.1406-0.46875-1.6328 5.707-1.8711 10.691-6.1289 5.7383-9.1016-7.2852-4.375-19.789-0.69141-23.246 7.168-2.7656 6.293 0.68359 13.312 5.5039 17.941-16.402-1.082-30.285 6.5469-42.234 18.309-4.5586 4.4883-11.207 13.094-18.434 10.211-7.3828-2.9453-12.75-11.246-15.879-18.18zm60.262 50.402c-8.1836-5.3086-13.914-13.676-21.992-19.211-3.0508-2.0898-6.4062-3.5117-9.8594-4.5508 9.4023-4.5508 17.723-12.641 25.402-19.594 19.477-17.633 41.551 5.8555 52.66 22.078-10.078 14.789-27.172 33.629-46.211 21.277zm-60.848 2.5781c2.2188-5.1367 7.6328-16.156 14.07-16.918 7.4922-0.89062 15.879 9.1641 20.512 13.719 6.1406 6.0352 12.598 11.551 20.98 14.102 5.9023 1.793 12.277 1.9961 18.488 1.2344-2.0312 3.0078-3.3281 6.4258-3.3477 10.172-0.0625 12.395 15.164 11.27 22.684 6.75 2.9531-1.7734 4.9844-5.4062 1.4805-7.6758-1.5859-1.0273-3.6719-1.1328-5.7773-0.87109 0.86328-1.168 0.22266-3.3281 0.91406-5.0977 0.63281-1.6211 1.9141-4.2891 3.6523-5.0117 2.5234-1.0469 5.75 0.95703 7.6719 2.6523 7.3203 6.457 6.2266 17.977 2.7344 26.055-2.2188 5.1367-7.6328 16.152-14.07 16.918-7.4922 0.89063-15.879-9.1602-20.516-13.719-6.1367-6.0352-12.598-11.551-20.98-14.102-5.9023-1.793-12.277-1.9961-18.488-1.2344 2.0312-3.0078 3.332-6.4258 3.3477-10.172 0.0625-12.395-15.168-11.27-22.684-6.75-2.9531 1.7734-4.9844 5.4062-1.4805 7.6758 1.5859 1.0273 3.6719 1.1367 5.7773 0.87109-0.86328 1.168-0.22266 3.3242-0.91406 5.0977-0.63281 1.6211-1.9141 4.2891-3.6523 5.0117-2.5234 1.0469-5.75-0.95703-7.6719-2.6523-7.3203-6.457-6.2266-17.977-2.7344-26.055zm43.219 41.688c8.1836 5.3086 13.914 13.676 21.992 19.211 3.0508 2.0898 6.4062 3.5117 9.8594 4.5508-9.4023 4.5508-17.723 12.641-25.402 19.594-19.477 17.633-41.551-5.8516-52.66-22.078 10.078-14.789 27.172-33.629 46.211-21.277zm-42.633 92.223c-3.0625-6.7969-6.4453-20.383 1.0781-25.895 2.4648-1.8047 4.8086-0.83203 7.2617 0.87109 1.5117 1.0469 2.9375 2.6211 3.918 4.1953 0.72266 1.1641 1.2617 2.4062 1.6211 3.7266 0.039063 0.69922 0.27344 1.1406 0.46875 1.6328-5.707 1.8711-10.691 6.1289-5.7383 9.1016 7.2852 4.375 19.789 0.69141 23.246-7.168 2.7656-6.293-0.68359-13.312-5.5039-17.941 16.402 1.082 30.285-6.5469 42.234-18.309 4.5625-4.4883 11.207-13.094 18.434-10.211 7.3828 2.9453 12.754 11.246 15.879 18.18 3.0625 6.7969 6.4453 20.383-1.0781 25.895-2.4648 1.8047-4.8086 0.83203-7.2617-0.87109-1.5117-1.0469-2.9375-2.6211-3.918-4.1953-0.72266-1.1641-1.2656-2.4062-1.6211-3.7266-0.039062-0.69922-0.27344-1.1406-0.46875-1.6328 5.707-1.8711 10.691-6.1289 5.7383-9.1016-7.2852-4.375-19.789-0.69141-23.246 7.168-2.7656 6.293 0.68359 13.312 5.5 17.941-16.402-1.082-30.285 6.5469-42.23 18.309-4.5586 4.4883-11.207 13.094-18.434 10.211-7.3828-2.9453-12.75-11.246-15.879-18.18zm60.262 50.402c-8.1836-5.3086-13.914-13.676-21.992-19.211-3.0508-2.0898-6.4062-3.5117-9.8594-4.5508 9.4023-4.5508 17.723-12.641 25.402-19.594 19.477-17.633 41.551 5.8555 52.66 22.078-10.078 14.789-27.172 33.629-46.211 21.277zm-60.848 2.5781c2.2188-5.1367 7.6328-16.156 14.07-16.918 7.4922-0.89062 15.879 9.1641 20.512 13.723 6.1406 6.0352 12.598 11.551 20.98 14.102 5.9023 1.793 12.277 1.9961 18.488 1.2344-2.0312 3.0078-3.3281 6.4258-3.3477 10.172-0.0625 12.395 15.164 11.27 22.684 6.75 2.9531-1.7734 4.9844-5.4062 1.4805-7.6758-1.5859-1.0273-3.6719-1.1328-5.7773-0.87109 0.86328-1.168 0.22266-3.3281 0.91406-5.0977 0.63281-1.6211 1.9141-4.2891 3.6523-5.0117 2.5234-1.0469 5.75 0.95703 7.6719 2.6523 7.3203 6.457 6.2266 17.977 2.7344 26.055-2.2188 5.1367-7.6328 16.152-14.07 16.918-7.4922 0.89062-15.879-9.1602-20.516-13.719-6.1367-6.0352-12.598-11.551-20.98-14.102-5.9023-1.793-12.277-1.9961-18.488-1.2344 2.0312-3.0078 3.332-6.4258 3.3477-10.172 0.0625-12.395-15.168-11.27-22.684-6.75-2.9531 1.7734-4.9844 5.4062-1.4805 7.6758 1.5859 1.0273 3.6719 1.1328 5.7773 0.87109-0.86328 1.168-0.22266 3.3281-0.91406 5.0977-0.63281 1.6211-1.9141 4.2891-3.6523 5.0117-2.5234 1.0469-5.75-0.95703-7.6719-2.6523-7.3203-6.457-6.2266-17.977-2.7344-26.055zm43.219 41.688c8.1836 5.3086 13.914 13.676 21.992 19.211 3.0508 2.0898 6.4062 3.5117 9.8594 4.5508-9.4023 4.5508-17.723 12.641-25.402 19.594-19.477 17.633-41.551-5.8516-52.66-22.078 10.078-14.789 27.172-33.629 46.211-21.277zm-42.633 92.223c-3.0625-6.7969-6.4453-20.383 1.0781-25.895 2.4648-1.8047 4.8086-0.83203 7.2617 0.87109 1.5117 1.0469 2.9375 2.6211 3.918 4.1953 0.72266 1.1641 1.2617 2.4062 1.6211 3.7266 0.039063 0.69922 0.27344 1.1406 0.46875 1.6328-5.707 1.8711-10.691 6.1289-5.7383 9.1016 7.2852 4.375 19.789 0.69141 23.246-7.168 2.7656-6.293-0.68359-13.312-5.5039-17.941 16.402 1.082 30.285-6.5469 42.234-18.309 4.5625-4.4883 11.207-13.094 18.434-10.211 7.3828 2.9453 12.754 11.246 15.879 18.18 3.0625 6.7969 6.4453 20.383-1.0781 25.895-2.4648 1.8047-4.8086 0.83203-7.2617-0.87109-1.5117-1.0469-2.9375-2.6211-3.918-4.1953-0.72266-1.1641-1.2656-2.4062-1.6211-3.7266-0.039062-0.69922-0.27344-1.1406-0.46875-1.6328 5.707-1.8711 10.691-6.1289 5.7383-9.1016-7.2852-4.375-19.789-0.69141-23.246 7.168-2.7656 6.293 0.68359 13.312 5.5039 17.941-16.402-1.082-30.285 6.5469-42.234 18.309-4.5586 4.4883-11.207 13.094-18.434 10.211-7.3828-2.9453-12.75-11.246-15.879-18.18zm60.262 50.402c-8.1836-5.3086-13.914-13.676-21.992-19.211-3.0508-2.0898-6.4062-3.5117-9.8594-4.5508 9.4023-4.5508 17.723-12.641 25.402-19.594 19.477-17.633 41.551 5.8516 52.66 22.078-10.078 14.789-27.172 33.629-46.211 21.277zm-60.848 2.5781c2.2188-5.1367 7.6328-16.152 14.07-16.918 7.4922-0.89062 15.879 9.1641 20.512 13.723 6.1406 6.0352 12.598 11.551 20.98 14.102 5.9023 1.793 12.277 1.9961 18.488 1.2344-2.0312 3.0078-3.3281 6.4258-3.3477 10.172-0.0625 12.395 15.164 11.27 22.684 6.75 2.9531-1.7734 4.9844-5.4062 1.4805-7.6758-1.5859-1.0273-3.6719-1.1328-5.7773-0.87109 0.86328-1.168 0.22266-3.3281 0.91406-5.0977 0.63281-1.6211 1.9141-4.2891 3.6523-5.0117 2.5234-1.0469 5.75 0.95703 7.6719 2.6523 7.3203 6.457 6.2266 17.977 2.7344 26.055-2.2188 5.1367-7.6328 16.152-14.07 16.918-7.4922 0.89062-15.879-9.1641-20.516-13.723-6.1367-6.0352-12.598-11.551-20.98-14.102-5.9023-1.793-12.277-1.9922-18.488-1.2344 2.0312-3.0078 3.332-6.4258 3.3477-10.172 0.0625-12.395-15.168-11.27-22.684-6.75-2.9531 1.7734-4.9844 5.4062-1.4805 7.6758 1.5859 1.0273 3.6719 1.1328 5.7773 0.87109-0.86328 1.168-0.22266 3.3281-0.91406 5.0977-0.63281 1.6211-1.9141 4.2891-3.6523 5.0117-2.5234 1.0469-5.75-0.95703-7.6719-2.6523-7.3203-6.457-6.2266-17.977-2.7344-26.055zm43.219 41.688c8.1836 5.3086 13.914 13.676 21.992 19.211 3.0508 2.0898 6.4062 3.5117 9.8594 4.5508-9.4023 4.5508-17.723 12.641-25.402 19.594-19.477 17.633-41.551-5.8516-52.66-22.078 10.078-14.789 27.172-33.629 46.211-21.277zm-42.633 92.223c-3.0625-6.7969-6.4453-20.383 1.0781-25.895 2.4648-1.8047 4.8086-0.83203 7.2617 0.87109 1.5117 1.0469 2.9375 2.6211 3.918 4.1953 0.72266 1.1641 1.2617 2.4062 1.6211 3.7266 0.039063 0.69922 0.27344 1.1406 0.46875 1.6328-5.707 1.8711-10.691 6.1289-5.7383 9.1016 7.2852 4.375 19.789 0.69141 23.246-7.168 2.7656-6.293-0.68359-13.312-5.5039-17.941 16.402 1.082 30.285-6.5469 42.234-18.309 4.5625-4.4883 11.207-13.094 18.434-10.211 7.3828 2.9453 12.754 11.246 15.879 18.18 3.0625 6.7969 6.4453 20.383-1.0781 25.895-2.4648 1.8047-4.8086 0.83203-7.2617-0.87109-1.5117-1.0469-2.9375-2.6211-3.918-4.1953-0.72266-1.1641-1.2656-2.4062-1.6211-3.7266-0.039062-0.69922-0.27344-1.1406-0.46875-1.6328 5.707-1.8711 10.691-6.1289 5.7383-9.1016-7.2852-4.375-19.789-0.69141-23.246 7.168-2.7656 6.293 0.68359 13.312 5.5039 17.941-16.402-1.082-30.285 6.5469-42.234 18.309-4.5586 4.4883-11.207 13.094-18.434 10.211-7.3828-2.9453-12.75-11.246-15.879-18.18zm60.262 50.402c-8.1836-5.3086-13.914-13.676-21.992-19.211-3.0508-2.0898-6.4062-3.5117-9.8594-4.5508 9.4023-4.5508 17.723-12.641 25.402-19.594 19.477-17.633 41.551 5.8516 52.66 22.078-10.078 14.789-27.172 33.629-46.211 21.277zm-60.848 2.5781c2.2188-5.1367 7.6328-16.152 14.07-16.918 7.4922-0.89062 15.879 9.1641 20.512 13.723 6.1406 6.0352 12.598 11.551 20.98 14.102 5.9023 1.793 12.277 1.9961 18.488 1.2344-2.0312 3.0078-3.3281 6.4258-3.3477 10.172-0.0625 12.395 15.164 11.27 22.684 6.75 2.9531-1.7734 4.9844-5.4062 1.4805-7.6758-1.5859-1.0273-3.6719-1.1328-5.7773-0.87109 0.86328-1.168 0.22266-3.3281 0.91406-5.0977 0.63281-1.6211 1.9141-4.2891 3.6523-5.0117 2.5234-1.0469 5.75 0.95703 7.6719 2.6523 7.3203 6.457 6.2266 17.977 2.7344 26.055-2.2188 5.1367-7.6328 16.156-14.07 16.918-7.4922 0.89062-15.879-9.1641-20.516-13.723-6.1367-6.0352-12.598-11.551-20.98-14.102-5.9023-1.793-12.277-1.9922-18.488-1.2344 2.0312-3.0078 3.332-6.4258 3.3477-10.172 0.0625-12.395-15.168-11.27-22.684-6.75-2.9531 1.7734-4.9844 5.4062-1.4805 7.6758 1.5859 1.0273 3.6719 1.1328 5.7773 0.87109-0.86328 1.168-0.22266 3.3281-0.91406 5.0977-0.63281 1.6211-1.9141 4.2891-3.6523 5.0117-2.5234 1.0469-5.75-0.95703-7.6719-2.6523-7.3203-6.457-6.2266-17.977-2.7344-26.055zm43.219 41.688c8.1836 5.3086 13.914 13.676 21.992 19.211 3.0508 2.0898 6.4062 3.5117 9.8594 4.5508-9.4023 4.5508-17.723 12.641-25.402 19.594-19.477 17.633-41.551-5.8555-52.66-22.078 10.078-14.789 27.172-33.629 46.211-21.277zm-42.633 92.223c-3.0625-6.7969-6.4453-20.383 1.0781-25.895 2.4648-1.8047 4.8086-0.83203 7.2617 0.87109 1.5117 1.0469 2.9375 2.6211 3.918 4.1953 0.72266 1.1641 1.2617 2.4062 1.6211 3.7266 0.039063 0.69922 0.27344 1.1406 0.46875 1.6328-5.707 1.8711-10.691 6.1289-5.7383 9.1016 7.2852 4.375 19.789 0.69141 23.246-7.168 2.7656-6.293-0.68359-13.312-5.5039-17.941 16.402 1.082 30.285-6.5469 42.234-18.309 4.5625-4.4883 11.207-13.094 18.434-10.211 7.3828 2.9453 12.754 11.246 15.879 18.18 3.0625 6.7969 6.4453 20.383-1.0781 25.895-2.4648 1.8047-4.8086 0.83203-7.2617-0.87109-1.5117-1.0469-2.9375-2.6211-3.918-4.1953-0.72266-1.1641-1.2656-2.4062-1.6211-3.7266-0.039062-0.69922-0.27344-1.1406-0.46875-1.6328 5.707-1.8711 10.691-6.1289 5.7383-9.1016-7.2852-4.375-19.789-0.69141-23.246 7.168-2.7656 6.293 0.68359 13.312 5.5039 17.941-16.402-1.082-30.285 6.5469-42.234 18.309-4.5586 4.4883-11.207 13.094-18.434 10.211-7.3828-2.9453-12.75-11.246-15.879-18.18zm60.262 50.402c-8.1836-5.3086-13.914-13.676-21.992-19.211-3.0508-2.0898-6.4062-3.5117-9.8594-4.5508 9.4023-4.5508 17.723-12.641 25.402-19.594 19.477-17.633 41.551 5.8516 52.66 22.078-10.078 14.789-27.172 33.629-46.211 21.277zm46.32 43.453c-13.992-19.461 0.18359-40.09 16.07-52.945 14.652 10.852 28.828 26.992 24.141 46.41-2.8555 11.836-13.84 19.312-21.336 28.559-5.3672-7.8438-13.652-14.762-18.871-22.027zm76.484 8.3477c-2.9297 6.0586-3.9023 12.684-3.3125 19.289-2.4258-0.97266-5-1.5938-7.625-1.7188-8.6328-0.41406-24.188 6.1172-17.734 16.855 2.4492 4.0781 12.707 1.9141 16.348-2.2656 1.0703 1.0742 2.1133 2.1719 2.8125 3.5391 1.9062 3.7109 2.1641 8.2383 0.57813 12.133-3.5742 8.7812-12.758 5.7148-19.375 2.4102-7.1406-3.5664-15.117-9.1211-17.43-17.211-2.4688-8.6484 2.8477-16.566 8.5469-22.59 5.9531-6.293 12.848-12.188 16.684-20.121 2.9297-6.0586 3.9023-12.684 3.3125-19.285 2.4258 0.97266 5 1.5938 7.625 1.7188 8.6328 0.41406 24.188-6.1172 17.734-16.855-2.4492-4.0781-12.707-1.9141-16.348 2.2656-1.0703-1.0742-2.1133-2.1719-2.8125-3.5391-1.9062-3.7109-2.1641-8.2383-0.57813-12.133 3.5742-8.7812 12.758-5.7148 19.375-2.4102 7.1406 3.5625 15.117 9.1211 17.426 17.211 2.4688 8.6484-2.8477 16.566-8.5469 22.59-5.9531 6.293-12.848 12.188-16.684 20.121zm39.914 51.609c-14.652-10.852-28.828-26.992-24.141-46.41 2.8555-11.836 13.84-19.312 21.336-28.559 5.3672 7.8438 13.652 14.762 18.871 22.027 13.992 19.461-0.18359 40.09-16.07 52.945zm75.719-16.801c-1.5078 7.7695-8.5469 13.102-15.258 16.398-7.5547 3.7109-16.961 3.1055-21.262-5.2109-1.7188-3.3242-2.25-7.5-1.1602-11.086 0.61719-2.0352 1.7578-3.2617 2.8047-4.9844 1.6914-2.7773 1.1445-1.0039 0.28906 0.42188-2.2617 3.7617 1.9688 5.6758 5.1211 5.9062 3.9883 0.29297 9.9023-1.4844 12.109-5.1523 5.2969-8.8203-4.5117-13.824-12.219-13.488-2.2344 0.097656-4.4922 0.48047-6.6992 1.0898 1.1406-6.9961 0.625-14.418-2.3867-20.793-3.7578-7.9531-10.262-13.688-16.199-19.961-5.5898-5.9102-11.703-13.742-10.016-22.441 1.5078-7.7695 8.5469-13.102 15.258-16.398 7.5547-3.7109 16.961-3.1055 21.262 5.2109 1.7188 3.3242 2.25 7.5 1.1602 11.086-0.61719 2.0352-1.7578 3.2617-2.8047 4.9805-1.6914 2.7773-1.1445 1.0078-0.28906-0.42188 2.2617-3.7617-1.9688-5.6758-5.1211-5.9062-3.9883-0.29688-9.9023 1.4844-12.109 5.1523-5.2969 8.8203 4.5117 13.824 12.219 13.488 2.2344-0.097656 4.4883-0.48047 6.6992-1.0898-1.1406 6.9961-0.625 14.418 2.3867 20.793 3.7578 7.9531 10.262 13.688 16.199 19.961 5.5898 5.9102 11.703 13.742 10.016 22.445zm10.844-96.102c14.652 10.852 28.828 26.992 24.141 46.41-2.8555 11.836-13.84 19.312-21.336 28.559-5.3672-7.8438-13.652-14.762-18.871-22.027-13.992-19.461 0.18359-40.09 16.07-52.945zm60.418 61.293c-2.9297 6.0586-3.9023 12.684-3.3125 19.289-2.4258-0.97266-5-1.5938-7.625-1.7188-8.6328-0.41406-24.188 6.1172-17.734 16.855 2.4492 4.0781 12.707 1.9141 16.348-2.2656 1.0703 1.0742 2.1133 2.1719 2.8125 3.5391 1.9062 3.7109 2.1641 8.2383 0.57812 12.133-3.5742 8.7812-12.758 5.7148-19.375 2.4102-7.1406-3.5664-15.117-9.1211-17.426-17.211-2.4688-8.6484 2.8477-16.566 8.543-22.59 5.9531-6.293 12.848-12.188 16.684-20.121 2.9297-6.0586 3.9023-12.684 3.3125-19.285 2.4258 0.97266 5 1.5938 7.625 1.7188 8.6328 0.41406 24.188-6.1172 17.734-16.855-2.4492-4.0781-12.707-1.9141-16.348 2.2656-1.0703-1.0742-2.1133-2.1719-2.8125-3.5391-1.9062-3.7109-2.1641-8.2383-0.57812-12.133 3.5742-8.7812 12.758-5.7148 19.375-2.4102 7.1406 3.5625 15.117 9.1211 17.426 17.211 2.4688 8.6484-2.8477 16.566-8.5469 22.59-5.9531 6.293-12.848 12.188-16.684 20.121zm39.91 51.609c-14.652-10.852-28.828-26.992-24.141-46.41 2.8555-11.836 13.84-19.312 21.336-28.559 5.3672 7.8438 13.652 14.762 18.871 22.027 13.992 19.461-0.18359 40.09-16.07 52.945zm75.719-16.801c-1.5078 7.7695-8.5469 13.102-15.258 16.398-7.5547 3.7109-16.961 3.1055-21.262-5.2109-1.7188-3.3242-2.25-7.5-1.1602-11.086 0.61719-2.0352 1.7578-3.2617 2.8047-4.9844 1.6914-2.7773 1.1445-1.0039 0.28906 0.42188-2.2617 3.7617 1.9688 5.6758 5.1211 5.9062 3.9883 0.29297 9.9023-1.4844 12.109-5.1523 5.2969-8.8203-4.5117-13.824-12.219-13.488-2.2344 0.097656-4.4922 0.48047-6.6992 1.0898 1.1406-6.9961 0.625-14.418-2.3867-20.793-3.7578-7.9531-10.262-13.688-16.199-19.961-5.5898-5.9102-11.703-13.742-10.016-22.441 1.5078-7.7695 8.5469-13.102 15.258-16.398 7.5547-3.7109 16.961-3.1055 21.262 5.2109 1.7188 3.3242 2.25 7.5 1.1602 11.086-0.61719 2.0352-1.7578 3.2617-2.8047 4.9805-1.6914 2.7773-1.1445 1.0078-0.28906-0.42188 2.2617-3.7617-1.9688-5.6758-5.1211-5.9062-3.9883-0.29688-9.9023 1.4844-12.109 5.1523-5.2969 8.8203 4.5117 13.824 12.219 13.488 2.2344-0.097656 4.4883-0.48047 6.6992-1.0898-1.1406 6.9961-0.625 14.418 2.3867 20.793 3.7578 7.9531 10.262 13.688 16.199 19.961 5.5898 5.9102 11.703 13.742 10.016 22.445zm10.844-96.102c14.652 10.852 28.828 26.992 24.141 46.41-2.8555 11.836-13.84 19.312-21.336 28.559-5.3672-7.8438-13.652-14.762-18.871-22.027-13.992-19.461 0.18359-40.09 16.07-52.945zm60.418 61.293c-2.9297 6.0586-3.9023 12.684-3.3125 19.289-2.4258-0.97266-5-1.5938-7.625-1.7188-8.6328-0.41406-24.188 6.1172-17.734 16.855 2.4492 4.0781 12.707 1.9141 16.348-2.2656 1.0703 1.0742 2.1133 2.1719 2.8125 3.5391 1.9062 3.7109 2.1641 8.2383 0.57812 12.133-3.5742 8.7812-12.758 5.7148-19.375 2.4102-7.1406-3.5664-15.117-9.1211-17.426-17.211-2.4688-8.6484 2.8477-16.566 8.543-22.59 5.9531-6.293 12.848-12.188 16.684-20.121 2.9297-6.0586 3.9023-12.684 3.3125-19.285 2.4258 0.97266 5 1.5938 7.625 1.7188 8.6328 0.41406 24.188-6.1172 17.734-16.855-2.4492-4.0781-12.707-1.9141-16.348 2.2656-1.0703-1.0742-2.1133-2.1719-2.8125-3.5391-1.9062-3.7109-2.1641-8.2383-0.57812-12.133 3.5742-8.7812 12.758-5.7148 19.375-2.4102 7.1406 3.5625 15.117 9.1211 17.426 17.211 2.4688 8.6484-2.8477 16.566-8.5469 22.59-5.9531 6.293-12.848 12.188-16.684 20.121zm39.91 51.609c-14.652-10.852-28.828-26.992-24.141-46.41 2.8555-11.836 13.84-19.312 21.336-28.559 5.3672 7.8438 13.652 14.762 18.871 22.027 13.992 19.461-0.18359 40.09-16.07 52.945zm75.719-16.801c-1.5078 7.7695-8.5469 13.102-15.258 16.398-7.5547 3.7109-16.961 3.1055-21.262-5.2109-1.7188-3.3242-2.25-7.5-1.1602-11.086 0.61719-2.0352 1.7578-3.2617 2.8047-4.9844 1.6914-2.7773 1.1445-1.0039 0.28906 0.42188-2.2617 3.7617 1.9688 5.6758 5.1211 5.9062 3.9883 0.29297 9.9023-1.4844 12.109-5.1523 5.2969-8.8203-4.5117-13.824-12.219-13.488-2.2344 0.097656-4.4922 0.48047-6.6992 1.0898 1.1406-6.9961 0.625-14.418-2.3867-20.793-3.7578-7.9531-10.262-13.688-16.199-19.961-5.5898-5.9102-11.703-13.742-10.016-22.441 1.5078-7.7695 8.5469-13.102 15.258-16.398 7.5547-3.7109 16.961-3.1055 21.262 5.2109 1.7188 3.3242 2.25 7.5 1.1602 11.086-0.61719 2.0352-1.7578 3.2617-2.8047 4.9805-1.6914 2.7773-1.1445 1.0078-0.28906-0.42188 2.2617-3.7617-1.9688-5.6758-5.1211-5.9062-3.9883-0.29688-9.9023 1.4844-12.109 5.1523-5.2969 8.8203 4.5117 13.824 12.219 13.488 2.2344-0.097656 4.4883-0.48047 6.6992-1.0898-1.1406 6.9961-0.625 14.418 2.3867 20.793 3.7578 7.9531 10.262 13.688 16.199 19.961 5.5898 5.9102 11.703 13.742 10.016 22.445zm10.844-96.102c14.652 10.852 28.828 26.992 24.141 46.41-2.8555 11.836-13.84 19.312-21.336 28.559-5.3672-7.8438-13.652-14.762-18.871-22.027-13.992-19.461 0.18359-40.09 16.07-52.945zm60.418 61.293c-2.9297 6.0586-3.9023 12.684-3.3125 19.289-2.4258-0.97266-5-1.5938-7.625-1.7188-8.6328-0.41406-24.188 6.1172-17.734 16.855 2.4492 4.0781 12.707 1.9141 16.348-2.2656 1.0703 1.0742 2.1133 2.1719 2.8125 3.5391 1.9062 3.7109 2.1641 8.2383 0.57812 12.133-3.5742 8.7812-12.758 5.7148-19.375 2.4102-7.1406-3.5664-15.117-9.1211-17.426-17.211-2.4688-8.6484 2.8477-16.566 8.543-22.59 5.9531-6.293 12.848-12.188 16.684-20.121 2.9297-6.0586 3.9023-12.684 3.3125-19.285 2.4258 0.97266 5 1.5938 7.625 1.7188 8.6328 0.41406 24.188-6.1172 17.734-16.855-2.4492-4.0781-12.707-1.9141-16.348 2.2656-1.0703-1.0742-2.1133-2.1719-2.8125-3.5391-1.9062-3.7109-2.1641-8.2383-0.57812-12.133 3.5742-8.7812 12.758-5.7148 19.375-2.4102 7.1406 3.5625 15.117 9.1211 17.426 17.211 2.4688 8.6484-2.8477 16.566-8.5469 22.59-5.9531 6.293-12.848 12.188-16.684 20.121zm39.91 51.609c-14.652-10.852-28.828-26.992-24.141-46.41 2.8555-11.836 13.84-19.312 21.336-28.559 5.3672 7.8438 13.652 14.762 18.871 22.027 13.992 19.461-0.18359 40.09-16.07 52.945zm75.719-16.801c-1.5078 7.7695-8.5469 13.102-15.258 16.398-7.5547 3.7109-16.961 3.1055-21.262-5.2109-1.7188-3.3242-2.25-7.5-1.1602-11.086 0.61719-2.0352 1.7578-3.2617 2.8047-4.9844 1.6914-2.7773 1.1445-1.0039 0.28906 0.42188-2.2617 3.7617 1.9688 5.6758 5.1211 5.9062 3.9883 0.29297 9.9023-1.4844 12.109-5.1523 5.2969-8.8203-4.5117-13.824-12.219-13.488-2.2344 0.097656-4.4922 0.48047-6.6992 1.0898 1.1406-6.9961 0.625-14.418-2.3867-20.793-3.7578-7.9531-10.262-13.688-16.199-19.961-5.5898-5.9102-11.703-13.742-10.016-22.441 1.5078-7.7695 8.5469-13.102 15.258-16.398 7.5547-3.7109 16.961-3.1055 21.262 5.2109 1.7188 3.3242 2.25 7.5 1.1602 11.086-0.61719 2.0352-1.7578 3.2617-2.8047 4.9805-1.6914 2.7773-1.1445 1.0078-0.28906-0.42188 2.2617-3.7617-1.9688-5.6758-5.1211-5.9062-3.9883-0.29688-9.9023 1.4844-12.109 5.1523-5.2969 8.8203 4.5117 13.824 12.219 13.488 2.2344-0.097656 4.4922-0.48047 6.6992-1.0898-1.1406 6.9961-0.625 14.418 2.3867 20.793 3.7578 7.9531 10.262 13.688 16.199 19.961 5.5898 5.9102 11.703 13.742 10.016 22.445zm10.844-96.102c14.652 10.852 28.828 26.992 24.141 46.41-2.8555 11.836-13.84 19.312-21.336 28.559-5.3672-7.8438-13.652-14.762-18.871-22.027-13.992-19.461 0.18359-40.09 16.07-52.945zm60.418 61.293c-2.9297 6.0586-3.9023 12.684-3.3125 19.289-2.4258-0.97266-5-1.5938-7.625-1.7188-8.6328-0.41406-24.188 6.1172-17.734 16.855 2.4492 4.0781 12.707 1.9141 16.348-2.2656 1.0703 1.0742 2.1133 2.1719 2.8125 3.5391 1.9062 3.7109 2.1641 8.2383 0.57812 12.133-3.5742 8.7812-12.758 5.7148-19.375 2.4102-7.1406-3.5664-15.117-9.1211-17.426-17.211-2.4688-8.6484 2.8477-16.566 8.543-22.59 5.9531-6.293 12.848-12.188 16.684-20.121 2.9297-6.0586 3.9023-12.684 3.3125-19.285 2.4258 0.97266 5 1.5938 7.625 1.7188 8.6328 0.41406 24.188-6.1172 17.734-16.855-2.4492-4.0781-12.707-1.9141-16.348 2.2656-1.0703-1.0742-2.1133-2.1719-2.8125-3.5391-1.9062-3.7109-2.1641-8.2383-0.57812-12.133 3.5742-8.7812 12.758-5.7148 19.375-2.4102 7.1406 3.5625 15.117 9.1211 17.426 17.211 2.4688 8.6484-2.8477 16.566-8.543 22.59-5.9531 6.293-12.848 12.188-16.684 20.121zm55.98-1.3359c13.992 19.461-0.18359 40.09-16.07 52.945-14.652-10.852-28.828-26.992-24.141-46.41 2.8555-11.836 13.84-19.312 21.336-28.559 5.3672 7.8438 13.652 14.762 18.871 22.027zm28.273-58.207c-0.94922 1.6758-0.89453 3.5742 1.2539 4.9648 0.74219 0.48047 1.6367 0.67969 2.5469 0.83203 0.95703 2.7148 1.1836 5.7305 0.50391 8.4922-0.53906 0.72266-1.1406 1.3633-1.8398 1.6562-0.36328 0.15234-0.76563 0.12109-1.1523 0.15234-0.94531-1.5273-3.3555-2.3477-5.3438-2.4961-0.22266-0.015625-0.49219 0.039062-0.72656 0.035156-0.14062-0.11719-0.32031-0.23047-0.44922-0.34766-4.7734-4.2109-5.9336-10.566-5.2227-16.727 3.8438-0.23828 7.5508 0.79297 10.426 3.4297zm-44.672 3.7305c-7.6055-10.598-22.758-17.387-34.297-18.438-12.855-1.168-30.062 5.4453-35.129 17.703-5.8242-6.5703-12.992-12.117-20.211-16.984-1.2617-0.84766-3.1758-1.0508-5.25-0.81641-3.5312-0.61719-8.0703 0.73438-10.551 2.4062-5.3164 3.582-10.59 7.5117-15.363 11.914-0.47656-1.1602-0.85938-2.3516-1.5508-3.4258-4.9102-7.6289-14.324-10.777-23.023-10.977-14.008-0.32422-31.547 7.043-41.516 18.613-7.6055-10.598-22.758-17.387-34.297-18.438-12.855-1.168-30.062 5.4453-35.129 17.703-5.8242-6.5703-12.992-12.117-20.211-16.984-1.2617-0.84766-3.1758-1.0508-5.25-0.81641-3.5312-0.61719-8.0703 0.73438-10.555 2.4062-5.3164 3.582-10.59 7.5117-15.363 11.914-0.47656-1.1602-0.85938-2.3516-1.5508-3.4258-4.9102-7.6289-14.324-10.777-23.023-10.977-14.008-0.32422-31.547 7.043-41.516 18.613-7.6055-10.598-22.758-17.387-34.297-18.438-12.855-1.168-30.062 5.4453-35.129 17.703-5.8242-6.5703-12.992-12.117-20.211-16.984-1.2617-0.84766-3.1758-1.0508-5.25-0.81641-3.5312-0.61719-8.0703 0.73438-10.555 2.4062-5.3164 3.582-10.59 7.5117-15.363 11.914-0.47656-1.1602-0.85938-2.3516-1.5508-3.4258-4.9102-7.6289-14.324-10.777-23.023-10.977-14.008-0.32422-31.547 7.043-41.516 18.613-7.6055-10.598-22.758-17.387-34.297-18.438-12.855-1.168-30.062 5.4453-35.129 17.703-5.8242-6.5703-12.992-12.117-20.211-16.984-1.2617-0.84766-3.1758-1.0508-5.25-0.81641-3.5312-0.61719-8.0703 0.73438-10.555 2.4062-5.3164 3.582-10.59 7.5117-15.363 11.914-0.47656-1.1602-0.85938-2.3516-1.5508-3.4258-4.9102-7.6289-14.324-10.777-23.023-10.977-14.008-0.32422-31.547 7.043-41.516 18.613-7.6055-10.598-22.758-17.387-34.297-18.438-12.855-1.168-30.062 5.4453-35.129 17.703-5.8242-6.5703-12.992-12.121-20.211-16.984-1.2617-0.84766-3.1758-1.0508-5.25-0.81641-0.96094-0.16797-1.9648-0.17578-3.0195-0.074219 0.125-0.66797 0.003906-1.2617-0.30078-1.7812 0.45703-1.1211 0.39844-2.3203-0.42188-3.5391-6.9766-10.352-15.496-20.109-26.234-26.273 12.258-1.4648 23.996-10.133 26.441-22.348 3.2695-16.34-8.7656-37.844-24.34-43.801-0.4375-0.16797-0.85938-0.26172-1.2891-0.40625 14.055-6.7109 24.977-22.281 26.07-37.516 1.0703-14.914-8.7812-24.789-21.332-26.594 8.0977-6.3555 14.91-14.418 20.789-23.137 0.88281-1.3086 0.83984-2.3945 0.32422-3.2773 0.45703-1.1211 0.39844-2.3203-0.42188-3.5391-6.9766-10.352-15.496-20.109-26.234-26.273 12.258-1.4648 23.996-10.133 26.441-22.348 3.2695-16.34-8.7656-37.844-24.34-43.801-0.4375-0.16797-0.85938-0.26172-1.2891-0.40625 14.055-6.7109 24.977-22.281 26.07-37.516 1.0703-14.914-8.7812-24.785-21.332-26.594 8.0977-6.3555 14.91-14.418 20.789-23.137 0.88281-1.3086 0.83984-2.3945 0.32422-3.2773 0.45703-1.1211 0.39844-2.3203-0.42188-3.5391-6.9766-10.352-15.496-20.109-26.234-26.273 12.258-1.4648 23.996-10.133 26.441-22.348 3.2695-16.34-8.7656-37.844-24.34-43.801-0.4375-0.16797-0.85938-0.26172-1.2891-0.40625 14.055-6.7109 24.977-22.281 26.07-37.516 1.0703-14.914-8.7812-24.785-21.332-26.594 8.0977-6.3555 14.91-14.418 20.789-23.137 0.88281-1.3086 0.83984-2.3945 0.32422-3.2773 0.45703-1.1211 0.39844-2.3203-0.42188-3.5391-6.9766-10.352-15.496-20.109-26.234-26.273 12.258-1.4648 23.996-10.133 26.438-22.348 3.2695-16.34-8.7656-37.844-24.34-43.801-0.4375-0.16797-0.85937-0.26172-1.2891-0.40625 14.055-6.7109 24.977-22.281 26.07-37.516 1.0703-14.914-8.7812-24.785-21.332-26.594 8.0977-6.3555 14.91-14.418 20.789-23.137 0.88281-1.3086 0.83984-2.3945 0.32422-3.2773 0.45703-1.1211 0.39844-2.3203-0.42187-3.5391-6.9766-10.352-15.496-20.109-26.234-26.273 12.258-1.4648 23.996-10.133 26.438-22.348 3.2695-16.34-8.7656-37.844-24.34-43.801-0.4375-0.16797-0.85938-0.26172-1.2891-0.40625 11.098-5.2969 20.117-16.117 24.004-27.949 6.8047-3.1914 12.988-7.6094 17.613-12.98 7.6016 10.594 22.758 17.387 34.297 18.438 12.855 1.168 30.062-5.4453 35.129-17.703 5.8242 6.5703 12.992 12.121 20.211 16.984 1.2617 0.84766 3.1758 1.0508 5.25 0.81641 3.5312 0.61719 8.0703-0.73438 10.551-2.4062 5.3164-3.582 10.59-7.5117 15.363-11.914 0.47656 1.1602 0.85938 2.3516 1.5508 3.4258 4.9102 7.6289 14.324 10.777 23.023 10.977 14.008 0.32422 31.547-7.0391 41.516-18.613 7.6016 10.594 22.758 17.387 34.297 18.438 12.855 1.168 30.062-5.4453 35.129-17.703 5.8242 6.5703 12.992 12.121 20.211 16.984 1.2617 0.84766 3.1758 1.0508 5.25 0.81641 3.5312 0.61719 8.0703-0.73437 10.551-2.4062 5.3164-3.582 10.59-7.5117 15.363-11.914 0.47656 1.1602 0.85938 2.3516 1.5508 3.4258 4.9102 7.6289 14.324 10.777 23.023 10.977 14.008 0.32422 31.547-7.0391 41.516-18.613 7.6016 10.594 22.758 17.387 34.297 18.438 12.855 1.168 30.062-5.4453 35.129-17.703 5.8242 6.5703 12.992 12.121 20.211 16.984 1.2617 0.84766 3.1758 1.0508 5.25 0.81641 3.5312 0.61719 8.0703-0.73438 10.551-2.4062 5.3164-3.582 10.59-7.5117 15.363-11.914 0.47656 1.1602 0.85938 2.3516 1.5508 3.4258 4.9102 7.6289 14.324 10.777 23.023 10.977 14.008 0.32422 31.547-7.0391 41.516-18.613 7.6016 10.594 22.758 17.387 34.297 18.438 12.855 1.168 30.062-5.4453 35.129-17.703 5.8242 6.5703 12.992 12.121 20.211 16.984 1.2617 0.84766 3.1758 1.0508 5.25 0.81641 3.5312 0.61719 8.0703-0.73438 10.551-2.4062 5.3164-3.582 10.59-7.5117 15.363-11.914 0.47656 1.1602 0.85938 2.3516 1.5508 3.4258 4.9102 7.6289 14.324 10.777 23.023 10.977 14.008 0.32422 31.547-7.0391 41.516-18.613 7.6016 10.594 22.758 17.387 34.297 18.438 12.855 1.168 30.062-5.4453 35.129-17.703 5.8242 6.5703 12.992 12.121 20.211 16.984 1.2617 0.84766 3.1758 1.0508 5.25 0.81641 0.96094 0.16797 1.9648 0.17578 3.0195 0.074219-0.125 0.66797-0.003906 1.2617 0.30078 1.7812-0.45703 1.1211-0.39844 2.3203 0.42188 3.5391 6.9766 10.352 15.496 20.109 26.234 26.273-12.258 1.4648-23.996 10.133-26.438 22.348-3.2656 16.34 8.7656 37.844 24.34 43.801 0.4375 0.16797 0.85938 0.26172 1.2891 0.40625-14.055 6.7109-24.977 22.281-26.07 37.516-1.0703 14.914 8.7812 24.785 21.332 26.594-8.0977 6.3555-14.91 14.418-20.789 23.137-0.88281 1.3086-0.83984 2.3945-0.32422 3.2773-0.45703 1.1211-0.39844 2.3203 0.42188 3.5391 6.9766 10.352 15.496 20.109 26.234 26.273-12.258 1.4648-23.996 10.133-26.438 22.348-3.2656 16.336 8.7656 37.844 24.34 43.801 0.4375 0.16797 0.85938 0.26172 1.2891 0.40625-14.055 6.7109-24.977 22.281-26.07 37.516-1.0703 14.914 8.7812 24.785 21.332 26.594-8.0977 6.3555-14.91 14.418-20.789 23.137-0.88281 1.3086-0.83984 2.3945-0.32422 3.2773-0.45703 1.1211-0.39844 2.3203 0.42188 3.5391 6.9766 10.352 15.496 20.109 26.234 26.273-12.258 1.4648-23.996 10.133-26.438 22.348-3.2656 16.336 8.7656 37.844 24.34 43.801 0.4375 0.16797 0.85938 0.26172 1.2891 0.40625-14.055 6.7109-24.977 22.281-26.07 37.516-1.0703 14.914 8.7812 24.785 21.332 26.594-8.0977 6.3555-14.91 14.418-20.789 23.137-0.88281 1.3086-0.83984 2.3945-0.32422 3.2773-0.45703 1.1211-0.39844 2.3203 0.42188 3.5391 6.9766 10.352 15.496 20.109 26.234 26.273-12.258 1.4648-23.996 10.133-26.438 22.348-3.2656 16.336 8.7656 37.844 24.34 43.801 0.43359 0.16797 0.85547 0.26172 1.2891 0.40625-14.055 6.7109-24.977 22.281-26.07 37.516-1.0703 14.914 8.7812 24.785 21.332 26.594-8.0977 6.3555-14.91 14.418-20.789 23.137-0.88281 1.3086-0.83984 2.3945-0.32422 3.2773-0.45703 1.1211-0.39844 2.3203 0.42188 3.5391 6.9766 10.352 15.496 20.109 26.234 26.273-12.258 1.4648-23.996 10.133-26.438 22.348-3.2656 16.336 8.7656 37.844 24.34 43.801 0.43359 0.16797 0.85547 0.26172 1.2891 0.40625-11.094 5.2969-20.117 16.117-24.004 27.949-6.8047 3.1914-12.988 7.6133-17.613 12.98zm33.738-514.2c10.078-14.789 27.172-33.629 46.211-21.277 8.1836 5.3086 13.914 13.676 21.992 19.211 3.0508 2.0898 6.4062 3.5117 9.8594 4.5508-9.4023 4.5508-17.723 12.641-25.402 19.594-19.477 17.633-41.551-5.8555-52.66-22.078zm63.84 121.35c-8.1836-5.3086-13.914-13.676-21.992-19.211-3.0508-2.0898-6.4062-3.5117-9.8594-4.5508 9.4023-4.5508 17.723-12.641 25.402-19.594 19.477-17.633 41.551 5.8516 52.66 22.078-10.078 14.789-27.172 33.629-46.211 21.277zm-63.84 65.543c10.078-14.789 27.172-33.629 46.211-21.277 8.1836 5.3086 13.914 13.676 21.992 19.211 3.0508 2.0898 6.4062 3.5117 9.8594 4.5508-9.4023 4.5508-17.723 12.641-25.402 19.594-19.477 17.633-41.551-5.8516-52.66-22.078zm63.84 121.35c-8.1836-5.3086-13.914-13.676-21.992-19.211-3.0508-2.0898-6.4062-3.5117-9.8594-4.5508 9.4023-4.5508 17.723-12.641 25.402-19.594 19.477-17.633 41.551 5.8516 52.66 22.078-10.078 14.789-27.172 33.629-46.211 21.277zm-63.84 65.543c10.078-14.789 27.172-33.629 46.211-21.277 8.1836 5.3086 13.914 13.676 21.992 19.211 3.0508 2.0898 6.4062 3.5117 9.8594 4.5508-9.4023 4.5508-17.723 12.641-25.402 19.594-19.477 17.633-41.551-5.8516-52.66-22.078zm63.84 121.35c-8.1836-5.3086-13.914-13.676-21.992-19.211-3.0508-2.0898-6.4062-3.5117-9.8594-4.5508 9.4023-4.5508 17.723-12.641 25.402-19.594 19.477-17.633 41.551 5.8516 52.66 22.078-10.078 14.789-27.172 33.629-46.211 21.277zm42.633-92.223c3.0625 6.7969 6.4453 20.383-1.0781 25.898-2.4648 1.8047-4.8086 0.83203-7.2617-0.87109-1.5117-1.0469-2.9375-2.6211-3.918-4.1953-0.72266-1.1641-1.2617-2.4062-1.6211-3.7266-0.039062-0.69922-0.27344-1.1406-0.46875-1.6328 5.707-1.8711 10.691-6.1289 5.7383-9.1016-7.2852-4.375-19.789-0.69141-23.246 7.168-2.7656 6.293 0.68359 13.312 5.5039 17.941-16.402-1.082-30.285 6.5469-42.234 18.309-4.5625 4.4883-11.207 13.094-18.434 10.211-7.3828-2.9453-12.754-11.246-15.879-18.18-3.0625-6.7969-6.4453-20.383 1.0781-25.898 2.4648-1.8047 4.8086-0.83203 7.2617 0.87109 1.5117 1.0469 2.9375 2.6211 3.918 4.1953 0.72266 1.1641 1.2656 2.4062 1.6211 3.7266 0.039063 0.69922 0.27344 1.1406 0.46875 1.6328-5.707 1.8711-10.691 6.1289-5.7383 9.1016 7.2852 4.375 19.789 0.69141 23.246-7.168 2.7656-6.293-0.68359-13.312-5.5039-17.941 16.402 1.082 30.285-6.5469 42.234-18.309 4.5586-4.4883 11.207-13.094 18.434-10.211 7.3828 2.9453 12.754 11.246 15.879 18.18zm0.58594-52.98c-2.2188 5.1367-7.6328 16.156-14.07 16.918-7.4922 0.89063-15.879-9.1602-20.516-13.719-6.1406-6.0352-12.598-11.551-20.98-14.102-5.9023-1.793-12.277-1.9961-18.488-1.2344 2.0312-3.0078 3.3281-6.4258 3.3477-10.172 0.0625-12.395-15.164-11.27-22.684-6.75-2.9531 1.7734-4.9844 5.4062-1.4805 7.6758 1.5859 1.0273 3.6719 1.1367 5.7773 0.87109-0.86328 1.168-0.22266 3.3242-0.91406 5.0977-0.63281 1.6211-1.9141 4.2891-3.6523 5.0117-2.5234 1.0469-5.75-0.95703-7.6719-2.6523-7.3203-6.457-6.2266-17.977-2.7344-26.055 2.2188-5.1367 7.6328-16.152 14.07-16.918 7.4922-0.89062 15.879 9.1602 20.516 13.719 6.1367 6.0352 12.598 11.551 20.98 14.102 5.9023 1.793 12.277 1.9961 18.488 1.2344-2.0312 3.0078-3.332 6.4258-3.3477 10.172-0.0625 12.395 15.168 11.27 22.684 6.75 2.9531-1.7734 4.9844-5.4062 1.4805-7.6758-1.5859-1.0273-3.6719-1.1367-5.7773-0.87109 0.86328-1.168 0.22266-3.3242 0.91406-5.0977 0.63281-1.6211 1.9141-4.2891 3.6523-5.0117 2.5234-1.0469 5.75 0.95703 7.6719 2.6523 7.3203 6.457 6.2266 17.977 2.7344 26.055zm-0.58594-133.91c3.0625 6.7969 6.4453 20.383-1.0781 25.898-2.4648 1.8047-4.8086 0.83203-7.2617-0.87109-1.5117-1.0469-2.9375-2.6211-3.918-4.1953-0.72266-1.1641-1.2617-2.4062-1.6211-3.7266-0.039062-0.69922-0.27344-1.1406-0.46875-1.6328 5.707-1.8711 10.691-6.1289 5.7383-9.1016-7.2852-4.375-19.789-0.69141-23.246 7.168-2.7656 6.293 0.68359 13.312 5.5039 17.941-16.402-1.082-30.285 6.5469-42.234 18.309-4.5625 4.4883-11.207 13.094-18.434 10.211-7.3828-2.9453-12.754-11.246-15.879-18.18-3.0625-6.7969-6.4453-20.383 1.0781-25.898 2.4648-1.8047 4.8086-0.83203 7.2617 0.87109 1.5117 1.0469 2.9375 2.6211 3.918 4.1953 0.72266 1.1641 1.2656 2.4062 1.6211 3.7266 0.039063 0.69922 0.27344 1.1406 0.46875 1.6328-5.707 1.8711-10.691 6.125-5.7383 9.1016 7.2852 4.375 19.789 0.69141 23.246-7.168 2.7656-6.293-0.68359-13.312-5.5039-17.941 16.402 1.082 30.285-6.5469 42.234-18.309 4.5586-4.4883 11.207-13.094 18.434-10.211 7.3828 2.9453 12.754 11.246 15.879 18.18zm0.58594-52.98c-2.2188 5.1367-7.6328 16.156-14.07 16.918-7.4922 0.89062-15.879-9.1641-20.516-13.719-6.1406-6.0352-12.598-11.551-20.98-14.102-5.9023-1.793-12.277-1.9961-18.488-1.2344 2.0312-3.0078 3.3281-6.4258 3.3477-10.172 0.0625-12.395-15.164-11.27-22.684-6.75-2.9531 1.7734-4.9844 5.4062-1.4805 7.6758 1.5859 1.0273 3.6719 1.1367 5.7773 0.87109-0.86328 1.168-0.22266 3.3242-0.91406 5.0977-0.63281 1.6211-1.9141 4.2891-3.6523 5.0117-2.5234 1.0469-5.75-0.95703-7.6719-2.6523-7.3203-6.457-6.2266-17.977-2.7344-26.055 2.2188-5.1367 7.6328-16.152 14.07-16.918 7.4922-0.89062 15.879 9.1602 20.516 13.719 6.1367 6.0352 12.598 11.551 20.98 14.102 5.9023 1.793 12.277 1.9961 18.488 1.2344-2.0312 3.0078-3.332 6.4258-3.3477 10.172-0.0625 12.395 15.168 11.27 22.684 6.75 2.9531-1.7734 4.9844-5.4062 1.4805-7.6758-1.5859-1.0273-3.6719-1.1367-5.7773-0.87109 0.86328-1.168 0.22266-3.3242 0.91406-5.0977 0.63281-1.6211 1.9141-4.2891 3.6523-5.0117 2.5234-1.0469 5.75 0.95703 7.6719 2.6523 7.3203 6.457 6.2266 17.977 2.7344 26.055zm-0.58594-133.91c3.0625 6.7969 6.4453 20.383-1.0781 25.898-2.4648 1.8047-4.8086 0.83203-7.2617-0.87109-1.5117-1.0469-2.9375-2.6211-3.918-4.1953-0.72266-1.1641-1.2617-2.4062-1.6211-3.7266-0.039062-0.69922-0.27344-1.1406-0.46875-1.6328 5.707-1.8711 10.691-6.1289 5.7383-9.1016-7.2852-4.375-19.789-0.69141-23.246 7.168-2.7656 6.293 0.68359 13.312 5.5039 17.941-16.402-1.082-30.285 6.5469-42.234 18.309-4.5625 4.4883-11.207 13.094-18.434 10.211-7.3828-2.9453-12.754-11.246-15.879-18.18-3.0625-6.7969-6.4453-20.383 1.0781-25.898 2.4648-1.8047 4.8086-0.83203 7.2617 0.87109 1.5117 1.0469 2.9375 2.6211 3.918 4.1953 0.72266 1.1641 1.2656 2.4062 1.6211 3.7266 0.039063 0.69922 0.27344 1.1406 0.46875 1.6328-5.707 1.8711-10.691 6.125-5.7383 9.1016 7.2852 4.375 19.789 0.69141 23.246-7.168 2.7656-6.293-0.68359-13.312-5.5039-17.941 16.402 1.082 30.285-6.5469 42.234-18.309 4.5586-4.4883 11.207-13.094 18.434-10.211 7.3828 2.9453 12.754 11.246 15.879 18.18zm0.58594-52.98c-2.2188 5.1367-7.6328 16.156-14.07 16.918-7.4922 0.89063-15.879-9.1641-20.516-13.719-6.1406-6.0352-12.598-11.551-20.98-14.102-5.9023-1.793-12.277-1.9961-18.488-1.2344 2.0312-3.0078 3.3281-6.4258 3.3477-10.172 0.0625-12.395-15.164-11.27-22.684-6.75-2.9531 1.7734-4.9844 5.4062-1.4805 7.6758 1.5859 1.0273 3.6719 1.1328 5.7773 0.87109-0.86328 1.168-0.22266 3.3242-0.91406 5.0977-0.63281 1.6211-1.9141 4.2891-3.6523 5.0117-2.5234 1.0469-5.75-0.95703-7.6719-2.6523-7.3203-6.457-6.2266-17.977-2.7344-26.055 2.2188-5.1367 7.6328-16.152 14.07-16.918 7.4922-0.89062 15.879 9.1602 20.516 13.719 6.1367 6.0352 12.598 11.551 20.98 14.102 5.9023 1.793 12.277 1.9961 18.488 1.2344-2.0312 3.0078-3.332 6.4258-3.3477 10.172-0.0625 12.395 15.168 11.27 22.684 6.75 2.9531-1.7734 4.9844-5.4062 1.4805-7.6758-1.5859-1.0273-3.6719-1.1367-5.7773-0.87109 0.86328-1.168 0.22266-3.3242 0.91406-5.0977 0.63281-1.6211 1.9141-4.2891 3.6523-5.0117 2.5234-1.0469 5.75 0.95703 7.6719 2.6523 7.3203 6.457 6.2266 17.977 2.7344 26.055z"/>
</svg>
