<?xml version="1.0" encoding="UTF-8"?>
<svg width="1200pt" height="1200pt" version="1.1" viewBox="0 0 1200 1200" xmlns="http://www.w3.org/2000/svg">
 <path d="m461.42 844.28h111.02v-273.86c-10.945 15.875-23.328 30.746-36.938 44.352-51.156 51.156-119.81 84.816-195.91 91.008-5.6523 34.883-22.25 66.098-46.117 90-29.809 29.809-71.027 48.277-116.53 48.277s-86.688-18.469-116.5-48.277c-29.809-29.809-48.277-70.992-48.277-116.5 0-45.504 18.469-86.688 48.277-116.53 29.809-29.809 70.992-48.277 116.5-48.277s86.688 18.469 116.53 48.277c23.398 23.398 39.781 53.785 45.758 87.734 61.055-5.9414 116.07-33.41 157.32-74.664 46.801-46.836 75.891-111.39 75.891-182.38v-272.05l-151.71 164.52c-10.297 11.16-27.684 11.879-38.879 1.6211-11.16-10.297-11.879-27.684-1.6211-38.879l199.52-216.32c10.297-11.195 27.684-11.918 38.879-1.6211 0.57422 0.50391 1.0781 1.0781 1.6211 1.6211l199.52 216.32c10.262 11.16 9.5391 28.586-1.6211 38.879-11.16 10.262-28.586 9.5391-38.879-1.6211l-151.71-164.52v272.05c0 70.992 29.051 135.54 75.891 182.38 41.258 41.258 96.266 68.727 157.32 74.664 5.9766-33.984 22.355-64.367 45.758-87.734 29.809-29.809 71.027-48.277 116.53-48.277s86.688 18.434 116.5 48.277c29.809 29.809 48.277 71.027 48.277 116.53 0 45.504-18.469 86.688-48.277 116.5-29.809 29.809-70.992 48.277-116.5 48.277s-86.688-18.469-116.53-48.277c-23.902-23.902-40.5-55.117-46.117-90-76.141-6.1914-144.76-39.852-195.91-91.008-13.609-13.609-25.957-28.477-36.938-44.352v273.86h111.02c15.227 0 27.539 12.348 27.539 27.539v277.2c0 15.191-12.348 27.539-27.539 27.539h-277.17c-15.227 0-27.539-12.348-27.539-27.539v-277.2c0-15.191 12.348-27.539 27.539-27.539zm-284.48-274.68c-30.277 0-57.707 12.277-77.543 32.113-19.871 19.836-32.148 47.27-32.148 77.543 0 30.277 12.277 57.707 32.148 77.543 19.836 19.836 47.27 32.113 77.543 32.113 30.277 0 57.707-12.277 77.543-32.113 19.836-19.871 32.113-47.27 32.113-77.543 0-30.277-12.277-57.707-32.113-77.543-19.836-19.836-47.27-32.113-77.543-32.113zm923.62 32.113c-19.836-19.836-47.27-32.113-77.543-32.113-30.277 0-57.707 12.277-77.543 32.113-19.836 19.836-32.113 47.27-32.113 77.543 0 30.277 12.277 57.707 32.113 77.543 19.836 19.836 47.27 32.113 77.543 32.113 30.277 0 57.707-12.277 77.543-32.113 19.836-19.836 32.148-47.27 32.148-77.543 0-30.277-12.277-57.707-32.148-77.543zm-389.56 297.69h-222.05v222.09h222.09v-222.09z"/>
</svg>
