<?xml version="1.0" encoding="UTF-8"?>
<svg width="1200pt" height="1200pt" version="1.1" viewBox="0 0 1200 1200" xmlns="http://www.w3.org/2000/svg">
 <path d="m1064.6 559.5c-8.2969-79.688-46.781-144.79-108.8-195.56-28.594-23.578-62.531-35.859-98.578-42.094 0.1875-1.4062 0-2.0625 0.1875-2.4375 3.2812-5.0156 6.5625-9.8906 9.8906-14.906 35.344-54.047 59.062-112.08 61.125-177.71 0.51562-17.484-6.75-25.969-22.688-28.078-57.703-7.9688-115.55-9.7031-171.66 7.4531-67.219 20.625-121.78 56.625-142.55 129.05-6.4219 21.656-9.1875 44.016-10.734 66.844-9.5156-24.75-21.469-47.484-34.125-70.172-20.25-36.703-48.844-66-83.484-89.016-11.25-7.4531-24.422-9-34.641 1.0312-10.547 10.219-10.734 23.203-4.8281 36.375 2.9531 6.75 7.9688 11.766 13.359 16.641 9.8906 8.6719 19.734 17.344 29.109 26.672 38.953 39.141 63.234 86.438 77.438 141.19-13.688-7.2656-25.453-14.391-37.781-19.922-68.766-31.359-140.81-38.438-208.03-3.7969-106.03 54.891-163.18 144.47-165.42 266.26-1.2188 67.922 13.688 133.36 33.094 197.48 28.406 93.375 71.391 179.44 146.72 245.11 29.438 25.641 62.719 45.234 101.67 52.641 58.359 11.25 113.62 0 165.61-27.375 17.484-9.1875 32.062-9.5156 49.547 0.32812 61.312 34.453 125.39 42.281 191.76 15.75 55.453-21.984 98.719-60.094 130.45-109.12 83.016-128.34 129.28-267.79 113.34-422.63zm-424.6-303.84c21.469-61.125 69.469-86.766 129.94-96.328 32.719-5.2031 65.484-2.4375 99.234-3.4688-17.156 57.703-41.203 110.34-88.172 149.48-9 7.6406-19.734 10.547-30.469 14.016-40.875 13.688-79.875 32.391-120.56 52.5-0.84375-40.688-3.0938-79.125 10.031-116.2zm371.26 412.6c-11.438 85.219-33.609 167.48-75.891 243.05-30.844 55.078-71.203 100.97-129.74 128.72-44.344 21.141-88.359 18.516-132.52 0-11.953-5.0156-23.906-9.8906-36.188-14.203-27-9.7031-53.344-8.6719-79.875 3.1406-29.812 13.172-59.766 25.969-93.188 26.672-46.922 1.0312-85.031-19.734-119.34-49.031-64.453-55.266-99.609-128.72-125.39-207.32-18.703-57.328-31.172-115.88-29.109-176.68-3.6562-77.766 21.656-144.14 78.469-197.48 30.328-28.594 67.031-43.125 108.09-49.875 62.531-10.219 114.66 16.641 165.61 45.75 33.797 19.406 64.781 19.922 99.234 2.7656 36.891-18.516 73.453-38.109 115.17-45.188 94.219-16.266 185.16 28.219 228.47 112.92 28.781 56.062 34.312 115.45 26.203 176.76z"/>
</svg>
