<?xml version="1.0" encoding="UTF-8"?>
<svg width="1200pt" height="1200pt" version="1.1" viewBox="0 0 1200 1200" xmlns="http://www.w3.org/2000/svg">
 <path d="m418.72 350.61c-4.4844-4.4883-6.2344-11.031-4.5859-17.16 1.6445-6.1289 6.4336-10.918 12.566-12.559 6.1328-1.6367 12.672 0.11719 17.156 4.6094l15.852 15.879h0.003906c3.4375 3.3047 5.4023 7.8555 5.4492 12.625 0.046876 4.7734-1.8281 9.3594-5.1992 12.734-3.375 3.375-7.9648 5.2461-12.734 5.1992s-9.3203-2.0078-12.629-5.4492zm-37.477 68.008v0.003906c-0.003906-4.7148 1.8672-9.2305 5.1992-12.562 3.332-3.332 7.8516-5.2031 12.562-5.1992h22.457c6.2344 0.16797 11.926 3.5898 14.996 9.0156 3.0703 5.4297 3.0703 12.07 0 17.5-3.0703 5.4297-8.7617 8.8516-14.996 9.0156h-22.457c-4.7109-0.003906-9.2266-1.8789-12.559-5.2109-3.3281-3.332-5.1992-7.8516-5.2031-12.559zm80.336 51.359v0.003906c3.3281 3.332 5.1953 7.8477 5.1953 12.555 0 4.707-1.8672 9.2227-5.1953 12.555l-15.879 15.879h0.003906c-4.4922 4.4844-11.035 6.2344-17.164 4.5898-6.1289-1.6445-10.918-6.4375-12.555-12.57-1.6406-6.1289 0.11328-12.672 4.6055-17.156l15.852-15.852c3.332-3.3398 7.8555-5.2148 12.57-5.2148s9.2344 1.875 12.566 5.2148zm69.879 38.262v22.449c-0.16797 6.2344-3.5898 11.926-9.0156 14.996-5.4297 3.0703-12.07 3.0703-17.5 0-5.4297-3.0703-8.8516-8.7617-9.0156-14.996v-22.445c0.16406-6.2383 3.5859-11.93 9.0156-14.996 5.4297-3.0703 12.07-3.0703 17.5 0 5.4258 3.0664 8.8477 8.7578 9.0156 14.996zm74.527-24.254v0.003907c4.4883 4.4844 6.2422 11.023 4.6016 17.152-1.6406 6.1328-6.4297 10.922-12.559 12.562-6.1289 1.6445-12.668-0.10547-17.156-4.5898l-15.879-15.879c-3.4258-3.3125-5.3789-7.8633-5.418-12.629-0.042969-4.7695 1.8359-9.3516 5.207-12.723 3.3711-3.3672 7.957-5.2422 12.723-5.1992 4.7656 0.042969 9.3164 1.9961 12.625 5.4258l15.852 15.879zm-2.7031-85.754h22.445c6.2344 0.16797 11.926 3.5898 14.996 9.0195 3.0703 5.4297 3.0703 12.07 0 17.496-3.0703 5.4297-8.7617 8.8516-14.996 9.0195h-22.395c-6.2344-0.16797-11.926-3.5898-14.996-9.0195-3.0703-5.4258-3.0703-12.066 0-17.496 3.0703-5.4297 8.7617-8.8516 14.996-9.0195zm-40.129-33.586h-0.003906c-3.3359-3.332-5.2109-7.8516-5.2109-12.57 0-4.7148 1.875-9.2344 5.2109-12.566l15.879-15.879c3.332-3.3281 7.8516-5.1992 12.566-5.1953 4.7109 0 9.2266 1.875 12.559 5.207 3.3281 3.3359 5.1992 7.8555 5.1953 12.566 0 4.7109-1.875 9.2305-5.207 12.559l-15.879 15.879c-3.332 3.3242-7.8477 5.1953-12.555 5.1953-4.7109 0-9.2266-1.8711-12.559-5.1953zm-69.891-38.273-0.003906-22.445c0-6.3477 3.3867-12.211 8.8828-15.383 5.4922-3.1719 12.262-3.1719 17.758 0s8.8789 9.0352 8.8789 15.383v22.445c0 6.3438-3.3828 12.207-8.8789 15.379-5.4961 3.1758-12.266 3.1758-17.758 0-5.4961-3.1719-8.8828-9.0352-8.8828-15.379zm19.074 64.016h-0.003906c7.1406 0 13.984 2.8359 19.035 7.8828 5.0469 5.0469 7.8828 11.895 7.8828 19.031 0 7.1406-2.832 13.984-7.8789 19.035-5.0469 5.0469-11.891 7.8867-19.031 7.8867-7.1367 0.003907-13.984-2.832-19.035-7.875-5.0469-5.0469-7.8867-11.891-7.8906-19.031 0.007812-7.1367 2.8438-13.98 7.8906-19.027 5.0469-5.0508 11.891-7.8906 19.027-7.9023zm0 89.367-0.003906 0.003907c16.566 0 32.453-6.5742 44.168-18.285 11.715-11.715 18.297-27.598 18.297-44.164 0-16.562-6.5781-32.449-18.293-44.164-11.711-11.711-27.598-18.289-44.164-18.289-16.562 0-32.449 6.582-44.16 18.297-11.711 11.715-18.289 27.602-18.285 44.164 0.023437 16.555 6.6094 32.422 18.312 44.125 11.707 11.707 27.574 18.293 44.125 18.316zm593.86 502.36c7.0625-0.007813 13.836-2.8164 18.828-7.8086 4.9961-4.9961 7.8047-11.766 7.8125-18.832v-164.57l-349.28-349.34-250.22 250.22 79.227 79.199c4.4883 4.4922 6.2422 11.035 4.5977 17.168-1.6445 6.1367-6.4336 10.926-12.566 12.57-6.1367 1.6445-12.68-0.10938-17.172-4.6016l-262.74-262.74-257.58 257.52v164.57c0.003907 7.0664 2.8125 13.836 7.8086 18.832 4.9961 4.9922 11.766 7.8008 18.828 7.8086zm-1012.4-764.23c-7.0625 0.007813-13.832 2.8164-18.828 7.8086-4.9961 4.9961-7.8047 11.766-7.8086 18.832v496.13l245.05-245.05c3.3398-3.3242 7.8555-5.1914 12.57-5.1914 4.7109 0 9.2305 1.8672 12.566 5.1914l170.93 171.04 262.74-262.74c3.332-3.3242 7.8477-5.1914 12.555-5.1914 4.707 0 9.2227 1.8672 12.555 5.1914l336.81 336.75v-496.13c-0.003907-7.0664-2.8125-13.836-7.8086-18.832-4.9961-4.9922-11.766-7.8008-18.828-7.8086zm1012.5-35.52h-1012.5c-16.48 0.015625-32.281 6.5703-43.938 18.223-11.656 11.652-18.215 27.453-18.234 43.938v710.95c0.019531 16.484 6.5781 32.285 18.234 43.938 11.656 11.652 27.457 18.207 43.938 18.223h1012.5c16.48-0.015625 32.281-6.5703 43.938-18.223 11.656-11.652 18.215-27.453 18.234-43.938v-710.95c-0.019531-16.484-6.5781-32.285-18.234-43.938-11.656-11.652-27.457-18.207-43.938-18.223z" fill-rule="evenodd"/>
</svg>
