<?xml version="1.0" encoding="UTF-8"?>
<svg width="1200pt" height="1200pt" version="1.1" viewBox="0 0 1200 1200" xmlns="http://www.w3.org/2000/svg">
 <path d="m1118.9 622.26c-1.0781-6.6562-5.1562-12.422-11.062-15.656-46.359-24.562-98.812-35.25-151.03-30.703-25.828 3.6562-51.844 5.3906-77.906 5.1094l-449.39-234.66c-18.562-9.4219-41.25-2.7188-51.703 15.281l-55.922 97.688v-0.046874c-9 15.938-5.7188 35.953 7.8281 48.234l30.328 27.375c-52.969 53.203-141.71 58.734-187.55-6.2344v-0.046876c-6.9375-9.5625-17.812-15.469-29.578-16.078-11.766-0.65625-23.203 4.0781-31.125 12.797-24.422 28.312-37.5 64.594-36.75 101.95v114.7c0.14062 0.46875 0.14062 0.98438 0.046875 1.4531l5.3438 67.969c1.3594 19.688 17.109 35.25 36.797 36.469 49.312 3.2344 169.55 10.031 311.21 10.031 256.87 0 584.11-22.312 685.97-128.53 7.6875-8.1094 11.484-19.125 10.5-30.281zm-158.39-9.0469h-0.046875c36.469-3.6094 73.266 2.0625 106.97 16.453-42.891 30.234-91.688 51.141-143.16 61.406-8.625-25.219-5.0156-53.062 9.75-75.234zm-606-135.42 55.734-97.359c2.3438-4.4062 257.21 134.53 259.64 133.74l-206.63-67.641c-44.391-10.828-48 31.453-76.969 61.453l-31.312-28.266h-0.046875c-0.5625-0.46875-0.75-1.2656-0.42188-1.9219zm-213.94 72c107.02 131.72 252.1 38.156 311.02-67.594l61.922 20.25-31.875 52.781c-2.625 4.2656-3.4219 9.375-2.25 14.25 1.1719 4.8281 4.2656 9 8.5312 11.625 4.2656 2.5781 9.375 3.3281 14.25 2.1094 4.8281-1.2188 9-4.3125 11.531-8.5781l36.375-60.234 42.328 13.875-27.141 44.719c-5.1094 8.8594-2.2031 20.109 6.5156 25.406s20.062 2.6719 25.547-5.9531l31.688-52.219 42.938 14.062-24.375 40.312c-5.3438 8.8594-2.5312 20.391 6.3281 25.734 8.8594 5.3906 20.391 2.5312 25.734-6.3281l28.922-47.719c26.109 6.6562 155.81 56.391 181.69 53.25-9.6094 25.547-10.5 53.578-2.5312 79.734-127.13 26.062-290.11 34.312-435.37 35.109l-5.2031-4.9219 0.046876-0.046875c-54.422-51.281-124.78-82.312-199.36-87.938l-135.28-10.125c-1.5-29.812 8.5312-59.016 28.031-81.562zm-28.031 119.16 132.52 9.9375c53.906 4.125 105.56 23.344 149.11 55.406-131.58-0.9375-240.71-7.1719-281.63-9.8438zm7.125 141.52c-1.0312-0.09375-1.8281-0.9375-1.875-1.9688l-3.6094-46.312c189 14.062 596.29 20.203 806.76-33.047 58.172-11.297 113.62-33.609 163.4-65.719l3 40.031c-113.67 118.45-592.36 131.68-967.69 107.02z"/>
</svg>
