<?xml version="1.0" encoding="UTF-8"?>
<svg width="1200pt" height="1200pt" version="1.1" viewBox="0 0 1200 1200" xmlns="http://www.w3.org/2000/svg">
 <g>
  <path d="m471.18 841.75c8.125 7.8047 19.277 11.629 30.48 10.449 118.72-16.461 232.64-57.777 334.3-121.25-101.88-15.621-199.27-52.762-285.68-108.95-51.82 9.6133-104.55 13.426-157.22 11.359-6.6641-0.30469-12.66-4.1289-15.75-10.043-3.0898-5.9102-2.8047-13.02 0.74609-18.668 3.5547-5.6445 9.8398-8.9766 16.508-8.75 36.801 1.3125 73.648-0.35938 110.18-5-13.5-8.168-25.164-19.039-34.254-31.938-40.844 2.6797-81.852 1.457-122.47-3.6367-6.6289-0.84375-12.309-5.1523-14.906-11.312-2.6016-6.1562-1.7227-13.234 2.3008-18.57 4.0234-5.3359 10.586-8.1289 17.223-7.3242 35.613 4.2812 71.527 5.5312 107.35 3.7344-1.7227-12.145-3.2422-24.164-4.8906-36.262l0.003907-0.003906c-49.297 1.5859-98.605-2.8359-146.83-13.164-6.5195-1.4219-11.793-6.1992-13.852-12.547-2.0547-6.3477-0.58203-13.312 3.8711-18.285 4.4492-4.9727 11.207-7.2031 17.742-5.8633 44.059 9.207 89.023 13.375 134.02 12.43-3.1211-23.949-6.0742-47.773-8.8672-71.469l-0.003906 0.003906c-76.273-0.94531-151.57-17.281-221.38-48.023-7.3125-3.2734-11.129 2.3672-8.4258 12.773 46.176 184.83 135.17 356.21 259.79 500.31z"/>
  <path d="m568.68 373.23c-2.3164-1.2734-4.7031-2.3477-7.0117-3.6445 2.3203 1.3164 4.7305 2.3867 7.0586 3.6719z"/>
  <path d="m277.57 1092.8c147.25 60.07 308.13 66.68 445.68 13.527 9.5117-3.6992 12.953-12.391 7.8828-19.078-55.449-73.625-106.4-150.54-152.56-230.31-38.551 5.6133-90.047 29.848-121.46-2.7812-29.086-32.863-56.145-67.465-81.031-103.61-4.1602 4.2695-10.125 6.2617-16.016 5.3555-57.105-9.0547-112.29-27.641-163.23-54.988-5.7617-3.2383-9.3984-9.2734-9.5586-15.887-0.16406-6.6094 3.1641-12.816 8.7617-16.34 5.5977-3.5195 12.637-3.832 18.523-0.82031 43.602 23.277 90.555 39.645 139.18 48.523-16.195-25.273-31.566-51.324-46.105-78.152-60.402-15.02-116.98-42.535-166.1-80.773-6.0703-4.7812-10.293-1.9062-9.4961 6.7344v0.003906c18.012 172.72 58.688 342.32 120.98 504.42 5.0078 10.754 13.727 19.34 24.555 24.184zm-69.465-336.34c2.1836-4.4648 6.0508-7.8828 10.75-9.5039 4.6992-1.6211 9.8477-1.3086 14.32 0.86328 51.098 24.973 105.99 41.277 162.43 48.258 6.6523 0.82031 12.359 5.125 14.973 11.293 2.6133 6.1719 1.7383 13.266-2.2969 18.613-4.0391 5.3477-10.621 8.1367-17.27 7.3164-28.512-3.2305-204.09-36.652-182.91-76.84zm22.688 81.398c2-4.5508 5.7266-8.1211 10.359-9.9258 4.6328-1.8086 9.7891-1.6992 14.344 0.29688 54.773 24.168 113.16 39.129 172.8 44.273 6.3945 0.67188 12 4.5664 14.859 10.324 2.8594 5.7578 2.5703 12.578-0.76172 18.074-3.332 5.5-9.2461 8.9102-15.672 9.0391-28.125-1.3008-216.8-30.992-195.93-72.082z"/>
  <path d="m906.6 643.43c2.7695 10.742 5.4648 21.414 8.2734 32.188 30.172-21.066 17.297-23.613-8.2734-32.188z"/>
  <path d="m796.81 652.16c-16.379 23-56.387 31.902-89.805 26.996 58.812 22.145 120.74 34.902 183.52 37.812 3.8789 0.375 7.6758-1.2734 10.055-4.3594 2.3789-3.0859 3.0039-7.1797 1.6562-10.832-10.797-41.18-21.363-82.289-31.707-123.33z"/>
  <path d="m498.21 562.56c54.156 42.223 113.6 77.195 176.81 104.02-10.883-19.047-15.238-41.133-12.398-62.883 2.8359-21.754 12.711-41.98 28.117-57.602l138.23-138.23c-15.668-66.129-30.844-132.03-45.094-197.41h0.003906c-0.88281-4.2734-3.0586-8.168-6.2344-11.164-3.1719-2.9922-7.1914-4.9336-11.508-5.5664-119.75-8.1406-233.66-54.801-324.71-133.02-6.3789-5.457-11.016-3.4258-10.5 4.7734 9.6367 148.74 26.184 305.94 49.77 469.57 2.6523 10.848 8.8086 20.52 17.516 27.512zm204.52-133.11c-9.3203 43.477-168.11-53.742-193.86-70.41-4.1367-2.7617-7.0039-7.0547-7.9766-11.93s0.03125-9.9375 2.793-14.074c2.7617-4.1367 7.0508-7.0039 11.926-7.9766 4.8789-0.97266 9.9414 0.03125 14.078 2.793 49.734 33.375 103.89 59.633 160.89 78.02 4.7344 1.5195 8.6758 4.8516 10.953 9.2734s2.707 9.5664 1.1953 14.301zm-15.617-79.211v-0.003906c-1.5273 4.7305-4.8672 8.6641-9.2891 10.938-4.4219 2.2734-9.5625 2.6992-14.297 1.1836-25.723-8.6992-197.75-71.926-170.12-106.55v0.003906c2.7773-4.125 7.082-6.9805 11.965-7.9297 4.8828-0.94922 9.9414 0.082031 14.066 2.8633 48.012 32.512 100.38 58.066 155.55 75.906 4.7383 1.5195 8.6758 4.8594 10.945 9.2812 2.2734 4.4219 2.6992 9.5664 1.1758 14.301zm-203.04-171.36c2.7969-4.1094 7.1133-6.9414 11.996-7.875 4.8828-0.92969 9.9375 0.11328 14.051 2.9062 46.227 31.5 96.738 56.203 149.98 73.359 4.75 1.5078 8.7031 4.8438 10.988 9.2695s2.7148 9.5781 1.1953 14.324c-1.5195 4.7422-4.8672 8.6836-9.3008 10.957-4.4297 2.2734-9.5859 2.6875-14.324 1.1562-25.66-8.6367-192.24-69.941-164.59-104.1z"/>
  <path d="m683.66 644.02c3.8047 28.238 83.656 21.219 99.043-4.2734 132.22-132.22 147.57-147.57 279.79-279.79 6.9688-14.934 7.4688-32.082 1.3828-47.402-6.0859-15.316-18.215-27.445-33.535-33.531-15.316-6.082-32.465-5.582-47.402 1.3867l-279.79 279.79c-26.191 19.758-23.023 62.508-19.492 83.824z"/>
 </g>
</svg>
