<?xml version="1.0" encoding="UTF-8"?>
<svg width="1200pt" height="1200pt" version="1.1" viewBox="0 0 1200 1200" xmlns="http://www.w3.org/2000/svg">
 <path d="m1167.9 201.28c-1.125-55.453-24.047-106.97-64.547-145.08-40.734-38.391-94.078-58.266-150.14-56.016l-549.47 22.031-259.36-17.203c-30.375-2.0156-59.391 8.1094-81.844 28.5-22.312 20.25-35.109 47.906-36.047 77.953l-26.484 848.26c-1.0312 33.703 9.8438 65.812 30.844 91.688l-7.0312 40.641c-4.6406 26.812 2.8125 54.094 20.344 74.953 17.672 20.953 43.547 33 71.062 33h951.52c51.141 0 92.719-41.438 92.719-92.297l0.046875-77.344c0-32.625-17.109-61.359-42.844-77.766 48.047-13.781 83.297-57.938 83.297-110.16v-291.79c0-38.719-9.4688-76.266-27.141-109.83zm-375.14 343.36c-18.422 0-35.672-7.2188-48.562-20.344-12.797-12.984-19.641-30.188-19.359-48.375l5.8125-349.6c0.42188-25.734-10.453-49.078-28.172-65.25l19.219 1.2656c55.594 3.7031 107.2 28.031 145.26 68.484l254.9 271.03c36.703 39 57.422 89.484 58.875 142.74zm161.21-525.42c50.859-2.0625 99.328 16.031 136.36 50.859 36.75 34.594 57.516 81.328 58.547 131.63l4.2656 207.98c-5.3906-7.2188-11.156-14.156-17.391-20.812l-206.63-219.71v-88.875c0-5.25-4.2656-9.5156-9.5156-9.5156s-9.5156 4.2656-9.5156 9.5156v68.578l-29.25-31.078c-41.391-44.016-97.453-70.453-157.92-74.438l-73.5-4.875h-0.046874l-66.375-4.4062zm-878.63 28.406c18.609-16.875 42.656-25.266 67.781-23.578l505.08 33.469c32.766 2.2031 58.734 27.141 62.812 58.641l-659.44-34.031c5.0156-13.031 13.078-24.797 23.766-34.5zm1009.5 890.44h-919.26c-29.156 0-52.922 23.625-52.922 52.688s23.719 52.688 52.922 52.688c5.25 0 9.5156-4.2656 9.5156-9.5156s-4.2656-9.5156-9.5156-9.5156c-18.656 0-33.844-15.094-33.844-33.656s15.188-33.656 33.844-33.656h191.34v66.984c0 5.25 4.2656 9.5156 9.5156 9.5156s9.5156-4.2656 9.5156-9.5156v-66.984h295.97v66.984c0 5.25 4.2656 9.5156 9.5156 9.5156s9.5156-4.2656 9.5156-9.5156v-66.984h375.84c40.641 0 73.688 32.859 73.688 73.266v77.344c0 40.406-33.047 73.266-73.688 73.266h-951.47c-21.844 0-42.469-9.5625-56.484-26.203-13.922-16.5-19.781-38.203-16.125-59.438l4.6406-26.812c25.594 22.641 58.172 35.016 92.812 35.016h922.26c5.25 0 9.5156-4.2656 9.5156-9.5156s-4.2656-9.5156-9.5156-9.5156l-922.31-0.046876c-33.188 0-64.125-13.078-87.141-36.844-22.828-23.578-34.875-54.562-33.844-87.281l26.438-848.26c0.09375-3.75 0.46875-7.5 1.0312-11.156l664.87 34.266-5.6719 340.4c-0.375 23.344 8.4375 45.375 24.844 62.016 16.5 16.781 38.578 26.016 62.156 26.016h117.33v313.45c0 5.25 4.2656 9.5156 9.5156 9.5156s9.5156-4.2656 9.5156-9.5156v-313.4h251.81v278.76c0 52.734-43.125 95.625-96.141 95.625zm27.75-461.95c0 5.25-4.2656 9.5156-9.5156 9.5156h-245.53c-43.594 0-79.031-35.297-79.031-78.703v-268.03c0-5.25 4.2656-9.5156 9.5156-9.5156s9.5156 4.2656 9.5156 9.5156v268.03c0 32.906 26.906 59.625 60 59.625h245.48c5.2969 0.046876 9.5625 4.3125 9.5625 9.5625zm-980.9-302.72-36.938 749.16c-0.23438 5.1094-4.4531 9.0469-9.5156 9.0469h-0.46875c-5.25-0.23438-9.2812-4.7344-9.0469-9.9844l36.938-749.16c0.23438-5.25 4.6406-9.3281 9.9844-9.0469 5.2969 0.23438 9.3281 4.7344 9.0469 9.9844zm347.68-0.46875v672.94c0 5.25-4.2656 9.5156-9.5156 9.5156s-9.5156-4.2656-9.5156-9.5156l-0.046875-672.94c0-5.25 4.2656-9.5156 9.5156-9.5156 5.2969 0 9.5625 4.2656 9.5625 9.5156z"/>
</svg>
