<?xml version="1.0" encoding="UTF-8"?>
<svg width="1200pt" height="1200pt" version="1.1" viewBox="0 0 1200 1200" xmlns="http://www.w3.org/2000/svg">
 <path d="m854.53 635.26c-0.28125-41.062-18.844-57.516-30.797-63.844-19.172-10.172-44.812-7.4531-70.594 6.6094 6.1406-31.219-0.79688-59.438-19.922-75.891-18.703-16.172-45.188-17.578-74.297-4.5 2.2969-75.328-26.344-109.55-51.797-125.06-35.953-21.938-86.719-18.797-129.32 7.9688-28.641 18-47.062 42.938-52.125 69.516-13.828-11.25-27.984-16.078-42.141-14.484-18.469 2.1094-32.344 14.906-40.781 25.406-12.938-18-34.781-26.25-61.219-22.359-32.344 4.7344-68.156 29.109-74.859 61.406-65.438 10.922-79.312 55.172-82.266 74.156-5.2031 33.891 9.6562 69.984 34.781 87.75-9.2344 17.016-11.531 48.047-0.46875 72.562 11.344 25.125 44.484 61.219 139.6 27.984 9.8438 33.469 34.125 54.469 69.234 59.531 40.078 5.7656 85.828-11.25 106.31-38.109 51.844 33.188 106.83 52.875 159.61 57.188 7.2656 0.60937 14.484 0.89062 21.516 0.89062 37.125 0 70.359-8.1094 93.281-23.062 19.594-12.75 29.109-29.484 26.203-45.891-1.4531-8.0156-6.0469-17.578-17.906-26.438 115.78-1.3594 186.42-20.859 200.68-56.016 5.625-13.875 1.5469-28.594-11.25-40.359-18.844-17.25-55.5-26.906-91.406-15zm85.031 48.188c-3.375 8.2969-30.328 49.359-231.74 43.688-4.9219-0.14062-9.0938 3.4688-9.7031 8.3438-0.60938 4.875 2.5781 9.4219 7.3125 10.5 29.25 6.6562 48.047 18.047 50.25 30.469 1.5 8.4844-4.9688 18.141-17.859 26.531-41.109 26.812-144.71 38.25-261.56-40.172-1.5938-1.0781-3.4219-1.6406-5.2969-1.6406-0.79688 0-1.5938 0.09375-2.3906 0.28125-2.625 0.70313-4.875 2.4375-6.0938 4.875-11.297 22.031-53.109 42.469-92.25 36.797-21.281-3.0469-48.234-15.094-55.828-55.031-0.51563-2.7656-2.25-5.1562-4.7344-6.5625-2.4844-1.3594-5.4375-1.5938-8.0625-0.5625-63.094 24.188-107.11 20.297-123.89-11.016-13.828-25.734-4.6406-58.594 0.375-62.156 3.2344-1.6875 5.2031-5.0625 5.1094-8.7188s-2.25-6.8906-5.5781-8.3906c-23.531-10.688-38.953-43.688-34.359-73.594 2.9531-19.172 16.359-52.312 73.031-59.203 4.5938-0.5625 8.1094-4.3125 8.3906-8.9531 1.4062-25.781 31.969-47.438 59.625-51.516 13.969-2.0625 38.766-1.5 48.469 25.266 1.2656 3.5625 4.5469 6 8.3438 6.2812 3.7969 0.23437 7.3594-1.7812 9.0938-5.1094 0.14062-0.28125 14.297-27 35.531-29.344 12.891-1.4531 26.719 6.4688 41.109 23.484 2.7188 3.1875 7.1719 4.2656 10.969 2.625 3.8438-1.6406 6.1875-5.5781 5.7656-9.7031-2.6719-27.328 13.875-55.078 44.344-74.203 29.953-18.797 75.375-28.547 109.27-7.8281 32.531 19.875 46.969 62.859 41.719 124.31-0.32812 3.5625 1.4062 7.0312 4.5 8.9062 3.0469 1.875 6.8906 1.9219 9.9844 0.046875 27.516-16.734 52.078-18.75 67.359-5.5312 17.812 15.375 20.391 47.906 6.4688 80.906-1.6875 4.0312-0.42188 8.7188 3.0938 11.344s8.3906 2.5312 11.766-0.28125c26.812-22.078 54.703-29.859 72.75-20.297 15.797 8.3906 22.922 29.906 20.016 60.656-0.32812 3.4688 1.2656 6.8438 4.125 8.7656 2.8594 1.9688 6.5625 2.2031 9.7031 0.60938 31.359-15.984 67.547-9.4688 84.422 6 4.7344 4.3594 9.7031 11.203 6.5156 19.125zm90.797-231.1c-3.3281 0-6.6562 0.375-9.9375 0.9375-5.3906-15.609-23.156-27.141-44.438-27.141-7.4531 0-14.625 1.5-21.141 4.1719-10.969-15.516-31.875-25.5-55.406-25.5-35.016 0-63.469 22.266-63.469 49.688 0 0.09375 0.046875 0.23438 0.046875 0.32812-21.516 3.5625-37.922 20.438-37.922 40.828 0 22.922 20.766 41.578 46.266 41.578 1.6406 0 3.2344-0.1875 4.8281-0.32812 5.9062 15.656 20.531 27.422 41.062 32.109 6 1.3594 12.422 2.1094 18.984 2.1094 18.797 0 38.484-5.9531 51.281-19.172 6.9844 3.1875 14.906 4.9688 23.109 4.9688 22.922 0 41.906-13.406 45.516-30.891 0.42188 0 0.79688 0.14062 1.1719 0.14062 25.5 0 46.266-16.547 46.266-36.844 0-20.344-20.766-36.891-46.266-36.891zm0 54.656c-2.8594 0-5.7188-0.28125-8.3906-0.89062h-0.1875c-0.60938-0.14062-1.2188-0.046875-1.875-0.046875s-1.3125-0.09375-1.9219 0.046875h-0.1875c-0.46875 0.09375-0.84375 0.375-1.2656 0.5625-0.70312 0.28125-1.3594 0.46875-1.9688 0.89062-0.51562 0.32812-0.89062 0.79688-1.3125 1.2656-0.42188 0.42188-0.89062 0.79688-1.2656 1.3125-0.42188 0.60938-0.60938 1.2656-0.84375 1.9688-0.1875 0.42188-0.46875 0.79688-0.5625 1.2656v0.1875c-0.14062 0.60938-0.046875 1.2656-0.046875 1.9219s-0.09375 1.2656 0.046875 1.875v0.1875c0.1875 0.79688 0.28125 1.6406 0.28125 2.4375 0 9.6562-12.469 17.812-27.188 17.812-7.5469 0-14.625-2.0625-19.875-5.8594-0.046875-0.046875-0.09375-0.046875-0.14062-0.046875-0.046875-0.046875-0.046875-0.09375-0.14062-0.14062-0.51562-0.32812-1.0781-0.42188-1.5938-0.65625-0.60938-0.23438-1.1719-0.60938-1.7812-0.70312-0.60938-0.14062-1.2188-0.046875-1.8281-0.046875s-1.2188-0.09375-1.8281 0-1.125 0.42188-1.6875 0.60938c-0.5625 0.23438-1.1719 0.375-1.6875 0.70312s-0.9375 0.84375-1.3594 1.2656-0.9375 0.70312-1.2656 1.1719c-0.046875 0.046875-0.046875 0.09375-0.046875 0.14062-0.046875 0.046875-0.09375 0.046875-0.14062 0.14062-9.4219 14.25-33.375 21.094-55.734 15.984-7.9219-1.8281-26.625-7.9688-28.969-25.688-0.046875-0.51562 0-0.98438-0.14062-1.5-0.23438-0.75-0.70312-1.3594-1.0781-2.0625v-0.046875c-0.60938-1.0312-1.4062-1.9219-2.3438-2.625l-0.14062-0.14062c-0.84375-0.60938-1.7812-1.0781-2.8125-1.4062-0.23438-0.09375-0.46875-0.14062-0.70312-0.23438-0.84375-0.1875-1.6875-0.23438-2.5312-0.1875-0.32812 0-0.60938-0.09375-0.9375-0.046875-0.1875 0.046875-0.375 0.14062-0.5625 0.1875-0.23438 0.046875-0.46875 0-0.70312 0.046875-2.9531 0.89062-6.0469 1.3125-9.1875 1.3125-15 0-27.188-10.078-27.188-22.5s12.188-22.5 27.188-22.5c0.65625 0 1.3125 0 1.9688 0.046875 0.09375 0 0.1875-0.046875 0.28125-0.046875s0.1875 0.046875 0.28125 0.046875c0.9375 0 1.9219-0.14062 2.8594-0.42188 0.046875 0 0.046875-0.046875 0.09375-0.046875 0.9375-0.28125 1.6875-0.79688 2.4844-1.3594 0.23438-0.1875 0.5625-0.28125 0.79688-0.46875 0.5625-0.51562 0.98438-1.1719 1.4531-1.7812 0.28125-0.375 0.60938-0.65625 0.84375-1.0781 0.23438-0.46875 0.28125-0.98438 0.42188-1.5 0.23438-0.70312 0.51562-1.3594 0.5625-2.1094 0-0.046875 0.046875-0.09375 0.046875-0.14062 0.046875-0.60938-0.1875-1.125-0.23438-1.6875-0.046875-0.60938 0-1.1719-0.1875-1.7812-0.65625-2.0625-0.98438-4.1719-0.98438-6.3281 0-16.594 20.344-30.609 44.438-30.609 19.828 0 37.453 9.2812 42.844 22.594 0.14062 0.32812 0.42188 0.5625 0.5625 0.84375 0.1875 0.32812 0.1875 0.65625 0.42188 0.9375 0.1875 0.23438 0.42188 0.375 0.60938 0.60938 0.42188 0.51562 0.89062 0.9375 1.3594 1.3594 0.46875 0.375 0.9375 0.70312 1.4531 0.98438 0.5625 0.28125 1.0781 0.46875 1.6875 0.65625 0.5625 0.1875 1.1719 0.32812 1.7344 0.375 0.60938 0.046875 1.1719 0.046875 1.7812 0 0.65625-0.046875 1.2656-0.14062 1.875-0.375 0.28125-0.09375 0.5625-0.046875 0.84375-0.14062 0.32812-0.14062 0.5625-0.42188 0.84375-0.5625 0.32812-0.1875 0.65625-0.1875 0.9375-0.42188 5.2031-3.5625 12.141-5.5312 19.453-5.5312 14.766 0 27.188 8.1562 27.188 17.812 0 0.42188 0 0.79688-0.046875 1.2188 0 0.14062 0.046875 0.28125 0.046875 0.46875-0.046875 0.65625 0.09375 1.2656 0.1875 1.875 0.09375 0.65625 0.14062 1.2656 0.375 1.875 0.046875 0.14062 0.046875 0.28125 0.09375 0.46875 0.1875 0.42188 0.46875 0.70312 0.70312 1.0781 0.32812 0.5625 0.65625 1.125 1.0781 1.6406 0.42188 0.46875 0.89062 0.79688 1.3594 1.1719s0.9375 0.75 1.5 0.98438c0.60938 0.28125 1.2188 0.42188 1.875 0.60938 0.42188 0.09375 0.79688 0.32812 1.2188 0.375 0.28125 0.046875 0.60938 0.046875 0.89062 0.046875h0.1875c1.2188 0 2.4375-0.28125 3.5156-0.70312h0.09375c4.2656-1.7344 9.1406-2.6719 14.109-2.6719 14.766 0 27.188 8.1562 27.188 17.812s-12.469 17.812-27.188 17.812zm-589.78 157.5c-12.047 18.141-35.156 26.109-56.953 26.109-6.5625 0-12.984-0.70312-18.984-2.1094-20.531-4.7344-35.156-16.453-41.062-32.109-1.5938 0.14062-3.2344 0.32812-4.8281 0.32812-25.5 0-46.266-18.656-46.266-41.578 0-20.344 16.406-37.266 37.922-40.828 0-0.09375-0.046875-0.23438-0.046875-0.32812 0-27.375 28.5-49.688 63.469-49.688 27.844 0 52.172 13.875 60.516 34.5 1.9688 4.875-0.375 10.453-5.25 12.422s-10.453-0.375-12.422-5.25c-5.3906-13.312-23.016-22.594-42.844-22.594-24.094 0-44.438 14.016-44.438 30.609 0 2.1094 0.32812 4.2656 0.98438 6.3281 0.1875 0.60938 0.14062 1.1719 0.1875 1.7812 0.046875 0.5625 0.28125 1.0781 0.23438 1.6875 0 0.046875-0.046875 0.09375-0.046875 0.14062-0.046875 0.75-0.32812 1.4062-0.5625 2.1094-0.14062 0.51562-0.1875 1.0312-0.42188 1.5-0.23438 0.42188-0.5625 0.75-0.84375 1.125-0.42188 0.60938-0.84375 1.2656-1.4062 1.7344-0.23438 0.23438-0.5625 0.32812-0.84375 0.51562-0.75 0.51562-1.5 1.0312-2.3906 1.3125-0.046875 0-0.046875 0.046875-0.09375 0.046875-0.9375 0.28125-1.9219 0.42188-2.8594 0.42188-0.09375 0-0.1875-0.046875-0.28125-0.046875s-0.1875 0.046875-0.28125 0.046875c-0.65625-0.046875-1.3125-0.046875-1.9688-0.046875-15 0-27.188 10.078-27.188 22.5s12.188 22.5 27.188 22.5c3.1406 0 6.2344-0.46875 9.1875-1.3125 0.23438-0.09375 0.46875 0 0.70312-0.046875 0.1875-0.046875 0.375-0.1875 0.5625-0.1875 0.32812-0.046875 0.60938 0.09375 0.9375 0.046875 0.89062-0.046875 1.7344 0 2.5312 0.1875 0.23438 0.046875 0.46875 0.14062 0.70312 0.23438 1.0312 0.32812 1.9219 0.75 2.8125 1.4062l0.14062 0.14062c0.9375 0.70312 1.7344 1.5938 2.3438 2.625 0.375 0.65625 0.84375 1.2656 1.0781 2.0625 0.14062 0.51562 0.09375 1.0312 0.14062 1.5 2.3906 17.719 21.047 23.859 28.969 25.688 22.359 5.1562 46.312-1.7344 55.734-15.984 2.9062-4.4062 8.8125-5.5781 13.219-2.6719s5.5781 8.8125 2.6719 13.219z"/>
</svg>
