<?xml version="1.0" encoding="UTF-8"?>
<svg width="1200pt" height="1200pt" version="1.1" viewBox="0 0 1200 1200" xmlns="http://www.w3.org/2000/svg">
 <path d="m185.13 690.7v-181.36c-15.039-2.75-29.863-8.0664-43.879-16.145-65.438-37.785-87.875-121.51-50.09-186.95 37.785-65.453 121.51-87.891 186.95-50.102 14.031 8.0938 26.066 18.312 35.984 30.004l157.05-90.668c-5.1875-14.43-8.0078-29.977-8.0078-46.164 0-75.559 61.285-136.86 136.86-136.86 75.559 0 136.86 61.301 136.86 136.86 0 16.188-2.8203 31.734-8.0078 46.164l157.07 90.668c9.8945-11.691 21.941-21.91 35.973-30.004 65.438-37.785 149.16-15.363 186.95 50.102 37.773 65.438 15.352 149.16-50.102 186.95-14.004 8.0781-28.828 13.395-43.867 16.145v181.36c15.039 2.75 29.863 8.0508 43.867 16.145 65.453 37.785 87.891 121.49 50.102 186.95-37.785 65.453-121.51 87.875-186.95 50.102-14.031-8.1211-26.078-18.324-35.973-30.004l-157.07 90.652c5.1875 14.441 8.0078 29.977 8.0078 46.164 0 75.57-61.301 136.86-136.86 136.86-75.57 0-136.86-61.285-136.86-136.86 0-16.188 2.8203-31.719 8.0078-46.164l-157.05-90.652c-9.9219 11.68-21.953 21.883-35.984 30.004-65.438 37.773-149.16 15.352-186.95-50.102-37.785-65.453-15.352-149.16 50.09-186.95 14.016-8.0938 28.844-13.395 43.879-16.145zm751.74-332.9 37.855 65.539c7.5703 13.109 7.1719 28.699 0.35547 41.133 20.184 3.4453 41.641 0.12891 60.762-10.914 43.57-25.145 58.492-80.859 33.352-124.43-25.156-43.555-80.859-58.48-124.43-33.336-17.262 9.9648-30.035 24.734-37.586 41.641 12.047 1.9258 23.16 9.043 29.691 20.367zm113.86-22.039c13.832 23.938 5.625 54.582-18.324 68.43-23.953 13.82-54.598 5.6133-68.43-18.34-13.82-23.953-5.625-54.609 18.34-68.43 23.953-13.832 54.598-5.6133 68.414 18.34zm-75.996 432.87-37.855 65.551c-7.0742 12.262-19.531 19.586-32.711 20.734 6.8867 20.082 20.777 37.871 40.605 49.324 43.57 25.156 99.27 10.234 124.43-33.32 25.145-43.57 10.219-99.285-33.352-124.43-18.098-10.445-38.281-13.977-57.516-11.41 3.4141 10.844 2.4961 23.004-3.6016 33.547zm75.996 87.59c-13.82 23.953-44.461 32.172-68.414 18.34-23.969-13.832-32.16-44.477-18.34-68.43 13.832-23.953 44.477-32.16 68.43-18.34 23.953 13.848 32.16 44.488 18.324 68.43zm-412.88 150.61h-75.672c-12.715 0-24.152-5.7539-31.848-14.77-13.352 15.848-21.402 36.312-21.402 58.648 0 50.301 40.777 91.094 91.078 91.094s91.078-40.789 91.078-91.094c0-22.336-8.0508-42.805-21.402-58.648-7.6953 9.0156-19.121 14.77-31.832 14.77zm-37.844 109.63c-27.652 0-50.09-22.438-50.09-50.102 0-27.652 22.438-50.09 50.09-50.09s50.09 22.438 50.09 50.09c0 27.668-22.438 50.102-50.09 50.102zm-336.87-282.28-37.844-65.551c-6.0938-10.547-7.0312-22.719-3.6016-33.547-19.234-2.5664-39.43 0.94922-57.531 11.41-43.57 25.145-58.492 80.859-33.336 124.41 25.129 43.57 80.844 58.492 124.41 33.336 19.828-11.453 33.719-29.238 40.605-49.324-13.18-1.1484-25.641-8.4766-32.711-20.734zm-113.87 22.039c-13.832-23.938-5.6133-54.582 18.34-68.43 23.969-13.82 54.582-5.6133 68.43 18.34 13.82 23.953 5.625 54.598-18.34 68.43-23.953 13.832-54.609 5.6133-68.43-18.34zm76.027-432.88 37.844-65.539c6.5352-11.324 17.66-18.426 29.691-20.367-7.5547-16.91-20.324-31.676-37.586-41.641-43.57-25.145-99.285-10.219-124.41 33.336-25.156 43.57-10.234 99.285 33.336 124.43 19.121 11.043 40.578 14.359 60.773 10.914-6.8047-12.43-7.2148-28.02 0.35547-41.133zm-76.027-87.578c13.82-23.953 44.477-32.172 68.43-18.34 23.969 13.82 32.16 44.477 18.34 68.43-13.848 23.953-44.461 32.16-68.43 18.34-23.953-13.848-32.172-44.488-18.34-68.43zm412.91-150.61h75.672c14.555 0 27.453 7.5391 34.953 18.906 11.465-15.238 18.285-34.199 18.285-54.738 0-50.301-40.777-91.078-91.078-91.078-50.301 0-91.078 40.777-91.078 91.078 0 20.539 6.8164 39.5 18.285 54.738 7.5117-11.367 20.383-18.906 34.965-18.906zm37.828-109.62c27.652 0 50.09 22.422 50.09 50.09 0 27.652-22.438 50.09-50.09 50.09s-50.09-22.438-50.09-50.09c0-27.668 22.438-50.09 50.09-50.09zm-62.164 520.46h124.33c37.828 0 68.785 30.941 68.785 68.797v78.988h-261.91v-78.988c0-37.855 30.953-68.797 68.797-68.797zm62.164-180.1c45.441 0 82.289 36.836 82.289 82.277 0 45.453-36.852 82.289-82.289 82.289-45.441 0-82.289-36.836-82.289-82.289 0-45.441 36.852-82.277 82.289-82.277zm22.875-103.92c89.277 7 167.13 54.566 215.18 124.29l23.98-13.848c-11.949-31.977-11.156-66.5 0.60938-97.059l-156.12-90.129c-20.539 25.441-50.02 43.383-83.652 49.055v27.695zm238.01 163.73c17.984 37.66 28.062 79.797 28.062 124.31 0 44.52-10.078 86.656-28.062 124.31l23.938 13.805c21.715-26.305 51.973-42.875 84.273-47.961v-180.33c-32.301-5.0898-62.562-21.656-84.273-47.949l-23.938 13.805zm-22.832 288.07c-48.047 69.703-125.9 117.27-215.18 124.27v27.707c33.633 5.668 63.113 23.613 83.652 49.055l156.12-90.129c-11.766-30.559-12.559-65.082-0.60938-97.059l-23.98-13.848zm-260.93 124.27c-89.277-7-167.13-54.566-215.18-124.27l-23.98 13.848c11.949 31.977 11.156 66.5-0.625 97.059l156.12 90.129c20.551-25.441 50.02-43.383 83.664-49.055zm-238.01-163.71c-17.984-37.66-28.051-79.824-28.051-124.31 0-44.52 10.062-86.656 28.051-124.31l-23.938-13.805c-21.715 26.293-51.973 42.859-84.273 47.949v180.33c32.301 5.0898 62.562 21.672 84.273 47.961l23.938-13.805zm22.832-288.07c48.047-69.719 125.9-117.29 215.18-124.29v-27.695c-33.648-5.668-63.113-23.613-83.664-49.055l-156.12 90.129c11.777 30.559 12.57 65.07 0.625 97.059zm238.05-79.426c-134.29 0-243.17 108.89-243.17 243.19s108.88 243.17 243.17 243.17 243.17-108.88 243.17-243.17-108.88-243.19-243.17-243.19z"/>
</svg>
