<?xml version="1.0" encoding="UTF-8"?>
<svg width="1200pt" height="1200pt" version="1.1" viewBox="0 0 1200 1200" xmlns="http://www.w3.org/2000/svg">
 <g>
  <path d="m937.5 728.46v-372.21c0-186.09-151.41-337.5-337.5-337.5s-337.5 151.41-337.5 337.5v372.21l95.98-119.96 29.758 26.773-26.492 26.492 26.512 26.512 27.883-27.883 31.293 28.18-29.457 29.457 26.512 26.512 30.844-30.844 50.383 45.355 35.137 386.51c1.875 20.332 18.691 35.688 39.148 35.688s37.273-15.355 39.113-35.738l35.137-386.51 50.383-45.355 30.844 30.844 26.512-26.512-29.457-29.457 31.293-28.18 27.883 27.883 26.512-26.512-26.492-26.492 29.758-26.773zm-637.5-372.21c0-165.41 134.59-300 300-300s300 134.59 300 300v265.29l-41.23-51.523-99.113-138.77h-88.762l-37.5-150h-66.789l-37.5 150h-88.762l-99.133 138.77-41.211 51.523zm332.23 75h-64.461l28.125-112.5h8.2109zm-30.469 710.89c-0.16797 1.8555-3.375 1.8555-3.5234 0l-35.25-387.71c5.082-7.5938 17.848-23.176 37.012-23.176 19.219 0 31.949 15.617 37.012 23.176zm57.488-420.07c-11.852-13.238-31.445-28.312-59.25-28.312s-47.398 15.074-59.25 28.312l-159.51-143.55 65.906-92.289 42.32 84.637 33.543-16.781-42.676-85.328h239.32l-42.676 85.367 33.543 16.781 42.32-84.637 65.906 92.289z"/>
  <path d="m675 196.88c0-15.508 12.617-28.125 28.125-28.125s28.125 12.617 28.125 28.125v196.88h37.5v-40.164c32.25-8.3828 56.25-37.5 56.25-72.336s-24-63.957-56.25-72.336v-12.039c0-36.188-29.438-65.625-65.625-65.625s-65.625 29.438-65.625 65.625v28.125h37.5zm112.5 84.375c0 13.82-7.5938 25.781-18.75 32.289v-64.574c11.156 6.5039 18.75 18.465 18.75 32.285z"/>
  <path d="m431.25 353.59v40.164h37.5v-196.88c0-15.508 12.617-28.125 28.125-28.125s28.125 12.617 28.125 28.125v28.125h37.5v-28.125c0-36.188-29.438-65.625-65.625-65.625s-65.625 29.438-65.625 65.625v12.039c-32.25 8.3828-56.25 37.5-56.25 72.336s24 63.957 56.25 72.336zm0-104.62v64.574c-11.156-6.5078-18.75-18.469-18.75-32.289 0-13.816 7.5938-25.777 18.75-32.285z"/>
  <path d="m639.45 629.12 18.75-37.496 33.539 16.77-18.75 37.496z"/>
  <path d="m508.21 608.38 33.539-16.77 18.75 37.496-33.539 16.77z"/>
 </g>
</svg>
