<?xml version="1.0" encoding="UTF-8"?>
<svg width="1200pt" height="1200pt" version="1.1" viewBox="0 0 1200 1200" xmlns="http://www.w3.org/2000/svg">
 <path d="m968.86 312c-12.281 0-24.422 2.1094-36 6.1875v-114.19c-0.84375-59.625-49.875-107.3-109.55-106.45-58.453 0.84375-105.61 48-106.45 106.45v8.2031l-50.344-121.5c-22.828-55.125-85.969-81.281-141.1-58.453-55.125 22.828-81.281 85.969-58.453 141.1l85.406 206.21c-22.781-5.25-46.125-7.9219-69.516-7.9219h-180c-59.672 0-108.05 48.375-108.05 108.05 0 59.672 48.375 108.05 108.05 108.05h180c49.688 0.046876 90 40.312 89.953 90.047-0.046876 49.688-40.312 90-90.047 89.953-23.391 0-45.844-9.1406-62.672-25.406l-7.0781-7.0781c-48.188-48.516-113.81-75.703-182.21-75.562-59.672 0.14062-107.86 48.609-107.72 108.28 0.14062 56.578 43.875 103.41 100.31 107.44 17.109 1.2656 33.188 8.6719 45.281 20.859l200.16 200.16c106.12 106.17 278.21 106.17 384.37 0.046875 51-50.953 79.641-120.14 79.641-192.24v-119.81l91.266-91.266c33.844-33.656 52.828-79.5 52.734-127.22v-145.78c-0.046875-59.719-48.375-108.09-108-108.14zm-435.37-166.22c-7.5938-18.375 1.125-39.422 19.5-47.062 18.375-7.5938 39.422 1.125 47.062 19.5l172.4 416.21-73.172-73.172c-15.938-15.938-33.562-30.094-52.547-42.188zm319.13 582.37c5.4375 13.078 8.25 27.141 8.2031 41.344l-0.046875 134.76c0 110.34-89.438 199.82-199.82 199.82-52.969 0-103.83-21.047-141.28-58.547l-200.11-200.16c-24.375-24.469-56.812-39.328-91.266-41.766-19.828-1.3594-34.781-18.562-33.422-38.391 1.3125-18.891 17.016-33.516 35.953-33.516 49.266-0.14062 96.516 19.453 131.26 54.375l7.2188 7.2188c30.188 29.906 71.016 46.594 113.53 46.406 89.438 0 162-72.516 162-162s-72.516-162-162-162h-180c-19.875 0-36-16.125-35.953-36.047 0-19.875 16.125-36 36.047-35.953h180c62.062-0.14062 121.64 24.516 165.42 68.531l180.89 180.89c9.4688 9.4219 17.109 20.578 22.5 32.812zm-63.75-342.14-0.046875-181.97c0-19.875 16.125-36 36.047-36 19.875 0 36 16.125 35.953 36.047l0.046875 215.81v139.92zm216 33.984v145.78c0.09375 28.641-11.297 56.156-31.641 76.359l-40.406 40.406v-262.6c0-19.875 16.172-36 36.047-35.953 19.875 0 36 16.172 35.953 36.047z"/>
</svg>
