<?xml version="1.0" encoding="UTF-8"?>
<svg width="1200pt" height="1200pt" version="1.1" viewBox="0 0 1200 1200" xmlns="http://www.w3.org/2000/svg">
 <path d="m1028.2 741.34-18.742-250.3c37.848-12.793 65.375-48.266 65.375-90.406 0-52.824-42.961-95.785-95.762-95.785-9.1211 0-17.785 1.6797-26.16 4.0781l-66.023-143.23c12.551-16.223 20.375-36.312 20.375-58.367 0-52.824-42.984-95.785-95.809-95.785-49.105 0-89.23 37.246-94.703 84.887l-303.96 33.121c-14.184-38.879-51.191-66.887-94.945-66.887-55.945 0-101.47 45.504-101.47 101.4 0 30.863 14.137 58.199 35.953 76.824l-57.719 129.96c-3.793-0.45703-7.5352-1.1523-11.473-1.1523-52.848 0-95.832 42.961-95.832 95.785 0 48.719 36.695 88.633 83.832 94.609v149.73c-47.137 5.9766-83.832 45.84-83.832 94.535 0 52.824 42.984 95.809 95.832 95.809 16.895 0 32.52-4.7539 46.32-12.48l196.61 58.895c-2.2578 8.1602-3.8633 16.559-3.8633 25.441 0 52.824 42.984 95.809 95.832 95.809 34.199 0 64.055-18.191 81.023-45.238l172.51 41.762c-2.8086 8.9766-4.7539 18.359-4.7539 28.273 0 52.824 42.984 95.809 95.809 95.809 52.801 0 95.762-42.984 95.762-95.809 0-28.223-12.504-53.375-31.945-70.922l75.168-91.465c5.0391 0.81641 10.129 1.5352 15.383 1.5352 52.801 0 95.762-42.984 95.762-95.809-0.023437-48.938-37.102-88.992-84.551-94.633zm-24.07 0.16797c-24.719 3.3828-46.273 16.031-61.273 34.512l-133.61-62.543c0.50391-3.9375 1.1992-7.8008 1.1992-11.879 0-30.359-14.473-57.121-36.551-74.664l153.31-145.95c14.977 9.6953 32.734 15.48 51.863 15.48 2.2812 0 4.4414-0.50391 6.6484-0.67188zm-289.46 31.895c-39.602 0-71.832-32.23-71.832-71.809 0-39.551 32.23-71.762 71.832-71.762 39.551 0 71.762 32.207 71.762 71.762 0.023438 39.578-32.188 71.809-71.762 71.809zm-94.895-81.168-342.43 96.719c-3.1445-19.273-11.953-36.574-24.793-50.184l263.23-239.69c16.992 15.336 39.266 24.961 63.91 24.961 5.543 0 10.895-0.71875 16.199-1.6328l62.207 102.31c-21.281 15.672-35.562 39.816-38.32 67.512zm-341.91-216.36 207.41-33.77c2.0898 14.23 7.0078 27.504 14.617 39l-266.14 242.33c-11.473-7.1992-24.574-11.809-38.617-13.586v-149.73c43.684-5.5703 77.906-40.344 82.73-84.242zm301.82-119.42c39.574 0 71.785 32.184 71.785 71.762 0 39.602-32.207 71.832-71.785 71.832-39.602 0-71.832-32.207-71.832-71.832 0.023437-39.578 32.23-71.762 71.832-71.762zm94.703 82.559 210.21-25.008c2.7617 19.68 11.375 37.367 24.238 51.336l-156.05 148.51c-11.688-5.1133-24.551-8.0156-38.113-8.0156-12.625 0-24.648 2.5938-35.711 7.0547l-59.426-97.777c29.766-13.727 50.98-42.238 54.844-76.102zm376.42-38.375c0 39.602-32.207 71.832-71.762 71.832-39.574 0-71.809-32.207-71.809-71.832 0-39.574 32.23-71.785 71.809-71.785 39.555 0 71.762 32.207 71.762 71.785zm-166.46-10.801-210.21 25.008c-2.9531-20.953-12.336-39.84-26.594-54.168l135.41-162.36c9.0469 2.8555 18.504 4.8242 28.512 4.8242 21.551 0 41.258-7.4141 57.289-19.488l62.113 134.69c-25.367 14.93-43.055 40.969-46.512 71.496zm-72.914-354.29c39.574 0 71.809 32.207 71.809 71.785 0 39.602-32.23 71.832-71.809 71.832-39.574 0-71.809-32.207-71.809-71.832-0.019531-39.574 32.211-71.785 71.809-71.785zm-94.484 85.008c3.9844 28.367 20.137 52.727 43.297 67.488l-131.86 158.16c-14.328-8.5195-30.84-13.754-48.672-13.754-17.902 0-34.465 5.2305-48.816 13.801l-128.23-126.96c10.391-15.91 16.535-34.848 16.535-55.223 0-3.7422-0.71875-7.3203-1.1055-10.969zm-476.59 43.539c0-42.672 34.754-77.398 77.473-77.398 42.672 0 77.398 34.727 77.398 77.398 0 42.695-34.727 77.449-77.398 77.449-42.719-0.003906-77.473-34.754-77.473-77.449zm32.207 90.309c13.68 6.8867 28.922 11.137 45.238 11.137 26.879 0 51.168-10.703 69.336-27.816l124.49 123.24c-14.809 14.977-24.289 34.871-26.688 56.879l-207.43 33.77c-5.0156-34.246-27.961-62.566-59.184-75zm-161.25 211.08c0-39.574 32.207-71.785 71.832-71.785 39.574 0 71.785 32.207 71.785 71.785 0 39.602-32.207 71.832-71.785 71.832-39.625 0-71.832-32.234-71.832-71.832zm0 338.9c0-39.551 32.207-71.762 71.832-71.762 39.574 0 71.785 32.207 71.785 71.762 0 39.574-32.207 71.809-71.785 71.809-39.625 0-71.832-32.23-71.832-71.809zm141.5 65.305c14.016-14.977 23.016-34.441 25.152-55.969l342.46-96.719c4.0078 24.504 17.305 45.742 36.215 60.289l-93.383 110.88c-13.535-7.3438-28.801-11.879-45.238-11.879-35.398 0-66.023 19.512-82.609 48.098zm265.2 174.17c-39.602 0-71.832-32.23-71.832-71.809 0-39.551 32.207-71.762 71.832-71.762 39.574 0 71.785 32.207 71.785 71.762 0 39.578-32.211 71.809-71.785 71.809zm91.031-43.512c2.8086-9 4.7539-18.383 4.7539-28.297 0-27.695-12-52.488-30.887-69.984l94.512-112.2c11.473 4.8242 24.047 7.5117 37.246 7.5117 11.785 0 22.969-2.4492 33.434-6.3594l77.016 213.5c-18.121 7.7266-33.191 21.023-43.535 37.559zm325.34 92.305c0 39.574-32.207 71.809-71.762 71.809-39.574 0-71.809-32.23-71.809-71.809 0-39.574 32.23-71.809 71.809-71.809 39.555 0 71.762 32.23 71.762 71.809zm-27.793-84.602c-13.246-6.9102-28.055-11.207-43.992-11.207-4.8711 0-9.5273 0.71875-14.23 1.4414l-78.793-218.45c15.023-10.559 26.832-25.32 33.816-42.574l126.5 59.207c-5.5195 12.098-8.7852 25.441-8.7852 39.551 0 38.449 22.895 71.426 55.633 86.664zm110.38-100.22c-39.625 0-71.855-32.23-71.855-71.809 0-39.574 32.23-71.809 71.855-71.809 39.551 0 71.762 32.23 71.762 71.809-0.003906 39.578-32.211 71.809-71.762 71.809z"/>
</svg>
