<?xml version="1.0" encoding="UTF-8"?>
<svg width="1200pt" height="1200pt" version="1.1" viewBox="0 0 1200 1200" xmlns="http://www.w3.org/2000/svg">
 <path d="m1162.4 78.172v-40.723h-40.723v29.367h-30.762v-29.203h-983.36v29.203h-29.227v-29.367h-40.723v40.723h29.215v29.379h-29.215v984.9h29.215v29.215h-29.215v40.723h40.723v-29.215h29.227v29.215h983.36v-29.215h30.762v29.215h40.723v-40.723h-29.215v-29.215h29.215v-984.9h-29.215v-29.379zm-29.215-29.215h17.707v17.707h-17.707zm-1014.1 0.16406h960.34v17.695h-960.34zm960.34 1072.5h-960.34v-40.723h-40.734v-961.89h40.734v-40.734h960.34v40.734h42.27v961.89h-42.27zm-1030.3-1072.7h17.707v17.707h-17.707zm29.215 29.367h29.227v29.227h-29.227zm-29.215 1002.6v-961.89h17.707v961.89zm17.707 69.938h-17.707v-17.707h17.707zm11.508-29.215v-29.215h29.227v29.215zm1001.1 29.215h-960.34v-17.707h960.34zm71.484-17.707v17.707h-17.707v-17.707zm-29.215-11.508h-30.762v-29.215h30.762zm29.215-1002.6v961.89h-17.707v-961.89zm-59.977-11.508v-29.227h30.762v29.227z"/>
</svg>
