<?xml version="1.0" encoding="UTF-8"?>
<svg width="1200pt" height="1200pt" version="1.1" viewBox="0 0 1200 1200" xmlns="http://www.w3.org/2000/svg">
 <path d="m0 0h213.74v321.74h-213.74z"/>
 <path d="m368.26 0v266.26c0 191.26-182.26 203.26-182.26 203.26h-186v150.74h288.74c0-153 124.5-277.5 277.5-277.5 95.25 0 179.26 48 229.5 121.5l404.26-338.26v-126zm402 277.5c-28.5 0-51-23.25-51-51s23.25-51 51-51 51 23.25 51 51-23.25 51-51 51z"/>
 <path d="m566.26 897.74c-90.75 0-171-43.5-222-111l-344.26 334.5v78.75h1200v-579.74h-356.26c0 153-124.5 277.5-277.5 277.5zm-196.5 183c-28.5 0-51-23.25-51-51s23.25-51 51-51 51 23.25 51 51-23.25 51-51 51z"/>
</svg>
