<?xml version="1.0" encoding="UTF-8"?>
<svg width="1200pt" height="1200pt" version="1.1" viewBox="0 0 1200 1200" xmlns="http://www.w3.org/2000/svg">
 <path d="m379.5 1044.2c-26.812 4.5-53.438 8.25-80.25 10.875 48.562 30 101.62 52.688 158.62 66.562-26.812-24.375-52.875-50.25-78.375-77.438z"/>
 <path d="m425.81 1035.6c34.5 35.438 70.312 68.812 106.88 99.188 18.75 1.6875 37.688 2.8125 56.812 2.8125 2.0625 0 3.9375 0 6-0.1875-44.062-33.562-86.812-70.875-127.12-111.56-14.438 3.375-28.5 6.75-42.562 9.75z"/>
 <path d="m512.62 1013.8c45.75 44.438 94.312 84.562 144.38 119.44 17.812-2.25 35.438-5.25 52.688-9-54.188-34.875-106.88-75.938-156.56-122.62-13.688 4.3125-27.188 8.4375-40.5 12.188z"/>
 <path d="m675.56 956.06c55.875 46.688 114.56 85.312 175.31 115.69 12.938-7.125 25.875-14.625 38.25-22.688-60.375-27.562-119.06-64.5-175.5-110.06-12.562 6-25.5 11.625-38.062 17.062z"/>
 <path d="m959.06 995.81c-1.6875-0.5625-3.5625-1.125-5.25-1.6875-55.5-21.938-110.81-53.25-164.06-92.625-12 6.5625-24.375 12.75-36.75 18.938 56.062 43.312 114.19 77.438 173.62 102.38 11.062-8.8125 21.938-17.625 32.438-27z"/>
 <path d="m828 880.12c13.312 9.1875 26.812 18.188 40.5 26.438 0.375-16.875 0.1875-33.938-0.1875-50.438-13.312 8.0625-26.812 16.125-40.312 24z"/>
 <path d="m1138.7 639.38c-6.75 7.125-13.875 14.062-20.812 20.812 3.375 17.812 6.1875 35.625 8.4375 54 6-24.375 10.125-49.312 12.375-74.812z"/>
 <path d="m1061.2 872.81c12.938-21.562 24.562-43.875 34.688-66.938-2.4375-37.875-6.5625-75.75-12.375-112.5-10.875 10.125-22.125 20.062-33.375 30 6.75 48.188 10.5 98.25 11.062 149.44z"/>
 <path d="m982.12 962.06c2.8125 0.9375 5.4375 2.0625 8.25 3 10.875-11.438 21.375-23.25 31.125-35.625 2.0625-59.812-0.5625-118.88-7.3125-176.06-11.25 9-22.875 18-34.5 26.812 4.6875 49.5 6.375 100.69 4.125 152.25-0.375 9.9375-1.125 19.688-1.6875 29.625z"/>
 <path d="m943.69 946.5c0.1875-5.25 0.5625-10.5 0.75-15.75 1.6875-41.625 0.9375-83.25-2.0625-123.56-11.625 8.25-23.625 16.312-35.625 24.188 1.5 31.5 2.0625 64.312 0.5625 97.5 12 6.375 24.188 12.188 36.375 17.625z"/>
 <path d="m1141.1 578.81c-0.375-17.625-1.3125-35.062-3.375-52.312-93.75 111.38-213.75 210.56-349.5 288.19-185.62 106.31-389.62 165.75-579.56 170.44 12.562 12 26.062 23.625 39.75 34.5 186.75-11.062 379.5-70.688 558.19-172.88 129.19-73.5 241.5-163.69 334.5-267.94z"/>
 <path d="m1129.5 474.56c-3.375-15.375-7.3125-30.75-11.812-45.75-92.25 124.31-218.44 234.56-367.69 319.88-183.38 104.62-381 160.69-563.81 160.69-15.188 0-30.188-0.5625-45-1.3125 9.375 13.125 19.312 25.875 30 38.062 193.31 3.1875 405.19-55.5 597.19-165.38 142.88-81.75 267.38-187.31 361.12-306.19z"/>
 <path d="m730.5 714.38c153.19-87.562 281.06-201.56 371.25-330.56-5.25-13.312-11.25-26.625-17.812-39.562-87 132-215.06 248.62-372.19 338.25-171.75 98.25-356.06 150.56-525.56 150.56-20.062 0-39.938-0.5625-59.438-2.25-11.625-0.9375-23.062-2.25-34.125-3.5625 6.75 13.312 13.875 26.625 21.562 39.375 3.1875 0.1875 6.375 0.5625 9.75 0.75 192.56 15 408-39.375 606.56-153z"/>
 <path d="m692.25 648.19c158.62-90.75 286.12-209.25 369.94-343.5-7.125-11.625-14.625-22.875-22.5-33.938-79.125 133.5-207.94 255.19-366 345.56-160.12 91.5-330.75 140.62-486.94 140.62-18.375 0-36.375-0.5625-54.375-2.0625-25.125-2.0625-49.125-5.25-72-9.9375 4.125 13.312 8.625 26.625 13.688 39.75 17.812 3 36 5.25 55.5 6.9375 177.56 13.312 377.44-37.312 562.69-143.44z"/>
 <path d="m615.94 516s0.1875 0 0.1875-0.1875c-34.312-11.438-70.125-20.625-107.25-27.938 10.125 22.312 21.375 44.438 33.562 66.375 24.75-11.625 49.312-24.562 73.5-38.25z"/>
 <path d="m52.312 462c-9.75 40.312-14.812 82.5-14.812 125.81 0 10.688 0.375 21 0.9375 31.5 22.5 7.6875 47.625 13.312 75.375 17.062-24.938-57.375-45.75-115.69-61.5-174.38z"/>
 <path d="m654.19 582c157.69-90 284.81-212.25 359.25-345.19-8.25-10.125-17.062-19.688-26.25-29.25-70.125 131.62-194.06 252.56-351.56 342.56-148.69 84.938-306.19 130.5-448.88 130.5-16.312 0-32.438-0.5625-48.562-1.6875-34.875-2.8125-66.75-8.25-95.625-16.5 2.0625 13.688 4.125 26.812 6.9375 39.75 26.625 6.5625 55.312 11.25 85.875 13.312 162.56 12.375 346.88-34.875 518.81-133.5z"/>
 <path d="m199.5 640.88c-47.438-101.25-80.812-207-97.5-310.31-10.125 18.562-18.938 37.875-26.625 57.75 17.812 84.562 45.75 169.31 83.062 252 13.5 0.5625 27.188 0.9375 41.062 0.5625z"/>
 <path d="m281.06 634.5c-65.812-132.38-104.62-269.44-113.25-400.5-11.812 13.875-23.062 28.312-33.562 43.5 13.688 119.06 50.625 243.38 107.62 361.31 13.125-1.3125 26.062-2.625 39.188-4.3125z"/>
 <path d="m359.25 619.69c-76.125-147-116.81-299.06-117.19-441.56 0-6 0.1875-11.438 0.375-17.062-12.75 10.312-25.312 21.375-37.125 32.812 2.8125 140.62 42.938 289.88 116.25 434.06 12.562-2.625 24.938-5.4375 37.688-8.25z"/>
 <path d="m434.44 597.94c-75.188-140.06-115.5-284.81-115.69-420 0-25.125 1.5-48.75 4.125-71.25-13.688 7.5-26.812 15.562-39.562 24-0.9375 15.188-1.6875 30.75-1.6875 47.25 0.375 138.56 40.875 287.44 116.62 431.06 12-3.1875 24-6.9375 36.188-11.062z"/>
 <path d="m506.44 570.38c-72.375-131.62-111-266.81-111-392.44-0.1875-39.75 3.9375-76.125 11.812-108.75-14.062 4.875-27.75 10.5-41.438 16.312-4.875 28.125-7.6875 59.062-7.6875 92.438 0.1875 130.31 39.562 270.38 113.62 406.5 11.625-4.5 23.25-9.1875 34.688-14.062z"/>
 <path d="m697.12 464.44c-68.062-28.125-142.31-48.375-221.62-60 4.5 13.125 9.75 26.438 14.812 39.75 59.438 9.9375 116.25 25.125 169.31 45.188 12.75-7.875 25.125-16.125 37.5-24.938z"/>
 <path d="m765.75 412.12c-93-44.062-200.25-74.062-313.69-87.562 3 12.75 6.5625 25.688 10.125 38.438 97.875 12.562 189.19 37.875 271.5 74.625 11.062-8.4375 21.75-16.875 32.062-25.5z"/>
 <path d="m826.31 356.62c-112.88-58.125-245.62-96-387.19-110.25 1.3125 12.375 3.1875 24.75 5.0625 37.5 128.25 13.875 249.94 48.188 353.62 99.938 9.9375-9 19.5-17.812 28.5-27.188z"/>
 <path d="m854.62 327c8.4375-9.375 16.5-18.938 24.375-28.5-128.62-69.75-280.88-113.81-444-129 0 2.8125-0.1875 5.4375-0.1875 8.4375 0 9.375 0.5625 18.938 1.125 28.5 153.38 14.625 297.19 56.062 418.69 120.56z"/>
 <path d="m924.38 236.81c-139.69-77.625-305.25-126.94-481.88-143.25-2.25 11.625-3.9375 23.812-5.25 36.375 171.38 15.75 331.5 62.625 466.31 136.88 7.3125-9.9375 14.062-19.875 20.812-30z"/>
 <path d="m957.75 179.06c-97.688-87.562-226.88-140.81-368.44-140.81-46.688 0-92.25 6-135.56 16.688 179.81 17.812 348.56 68.625 491.06 148.12 4.5-7.875 8.8125-15.938 12.938-24z"/>
 <path d="m1150.1 1089.8c-3.75-1.5-94.688-37.312-196.31 15.75-81 42.375-144.75-10.312-147.56-12.562-59.438-32.25-117.38-72.75-171.94-120.19-12.938 4.875-25.875 9.9375-38.812 14.438 52.688 47.438 108.19 88.875 165.56 122.81 10.5 7.875 65.438 51.562 128.62 51.562 24.75 0 52.688-5.625 82.312-21.188 84.75-44.25 162.38-14.438 163.12-14.25 10.125 4.125 21.562-0.75 25.688-10.875 4.3125-9.9375-0.5625-21.375-10.688-25.5z"/>
</svg>
