<?xml version="1.0" encoding="UTF-8"?>
<svg width="1200pt" height="1200pt" version="1.1" viewBox="0 0 1200 1200" xmlns="http://www.w3.org/2000/svg">
 <path d="m1012.5 0h-825c-72.375 0-131.26 58.875-131.26 131.26v937.5c0 72.375 58.875 131.26 131.26 131.26h825c72.375 0 131.26-58.875 131.26-131.26v-937.5c0-72.375-58.875-131.26-131.26-131.26zm93.75 1068.7c0 51.703-42.047 93.75-93.75 93.75h-825c-51.703 0-93.75-42.047-93.75-93.75v-937.5c0-51.703 42.047-93.75 93.75-93.75h825c51.703 0 93.75 42.047 93.75 93.75z"/>
 <path d="m1012.5 93.75h-825c-20.672 0-37.5 16.828-37.5 37.5v937.5c0 20.672 16.828 37.5 37.5 37.5h825c20.672 0 37.5-16.828 37.5-37.5v-937.5c0-20.672-16.828-37.5-37.5-37.5zm0 262.5h-131.26v-37.5h28.125c17.578 0 34.078-6.7969 46.453-19.172s19.172-28.875 19.172-46.453c0-36.188-29.438-65.625-65.625-65.625h-28.125v-56.203h131.26zm0 93.75h-825v-56.25h825zm-628.13-225c15.516 0 28.125 12.609 28.125 28.125s-12.609 28.125-28.125 28.125h-93.75c-15.516 0-28.125-12.609-28.125-28.125s12.609-28.125 28.125-28.125zm0 93.75c36.188 0 65.625-29.438 65.625-65.625s-29.438-65.625-65.625-65.625h-28.125v-56.25h225v56.25h-28.125c-17.578 0-34.078 6.7969-46.453 19.172s-19.172 28.875-19.172 46.453c0 36.188 29.438 65.625 65.625 65.625h28.125v37.5h-225v-37.5zm431.26-37.5c-15.516 0-28.125-12.609-28.125-28.125 0-7.4531 3-14.719 8.2031-19.922s12.469-8.2031 19.922-8.2031h93.75c15.516 0 28.125 12.609 28.125 28.125 0 7.4531-3 14.719-8.2031 19.922s-12.469 8.2031-19.922 8.2031zm0-93.75c-17.578 0-34.078 6.7969-46.453 19.172s-19.172 28.875-19.172 46.453c0 36.188 29.438 65.625 65.625 65.625h28.125v37.5h-225v-37.5h28.125c17.578 0 34.078-6.7969 46.453-19.172s19.172-28.875 19.172-46.453c0-36.188-29.438-65.625-65.625-65.625h-28.125v-56.203h225v56.203zm-168.74 37.5c15.516 0 28.125 12.609 28.125 28.125 0 7.5938-2.9062 14.625-8.2031 19.922-5.2031 5.2031-12.469 8.2031-19.922 8.2031h-93.75c-15.516 0-28.125-12.609-28.125-28.125 0-7.4531 3-14.719 8.2031-19.922s12.469-8.2031 19.922-8.2031zm-328.13-93.75v56.25h-28.125c-36.188 0-65.625 29.438-65.625 65.625s29.438 65.625 65.625 65.625h28.125v37.5h-131.26v-225zm-131.26 356.26h131.26v75h-28.125c-17.578 0-34.078 6.7969-46.453 19.172s-19.172 28.875-19.172 46.453c0 36.188 29.438 65.625 65.625 65.625h28.125v93.75h-28.125c-36.188 0-65.625 29.438-65.625 65.625 0 18.375 7.6406 34.969 19.828 46.875-12.188 11.906-19.828 28.5-19.828 46.875s7.6406 34.969 19.828 46.875c-12.188 11.906-19.828 28.5-19.828 46.875 0 10.125 2.4844 19.594 6.5625 28.125h-44.062zm103.12 168.74c-15.516 0-28.125-12.609-28.125-28.125 0-7.4531 3-14.719 8.2031-19.922 5.2969-5.2969 12.375-8.2031 19.922-8.2031h93.75c15.516 0 28.125 12.609 28.125 28.125 0 7.5938-2.9062 14.625-8.2031 19.922-5.2031 5.2031-12.469 8.2031-19.922 8.2031zm93.75 225h-93.75c-15.516 0-28.125-12.609-28.125-28.125s12.609-28.125 28.125-28.125h93.75c15.516 0 28.125 12.609 28.125 28.125s-12.609 28.125-28.125 28.125zm28.125 65.625c0 15.516-12.609 28.125-28.125 28.125h-93.75c-15.516 0-28.125-12.609-28.125-28.125s12.609-28.125 28.125-28.125h93.75c15.516 0 28.125 12.609 28.125 28.125zm-121.87 121.87c-15.516 0-28.125-12.609-28.125-28.125s12.609-28.125 28.125-28.125h93.75c15.516 0 28.125 12.609 28.125 28.125s-12.609 28.125-28.125 28.125zm152.81 0c4.125-8.5312 6.5625-18 6.5625-28.125 0-18.375-7.6406-34.969-19.828-46.875 12.188-11.906 19.828-28.5 19.828-46.875s-7.6406-34.969-19.828-46.875c12.188-11.906 19.828-28.5 19.828-46.875 0-36.188-29.438-65.625-65.625-65.625h-28.125v-93.75h28.125c17.578 0 34.078-6.7969 46.453-19.172s19.172-28.875 19.172-46.453c0-36.188-29.438-65.625-65.625-65.625h-28.125v-75h225v37.5h-28.125c-17.578 0-34.078 6.7969-46.453 19.172s-19.172 28.875-19.172 46.453c0 18.328 7.5938 34.875 19.781 46.828-0.1875 0.1875-0.42188 0.28125-0.60938 0.46875-12.375 12.375-19.172 28.875-19.172 46.453 0 36.188 29.438 65.625 65.625 65.625h28.125v131.26h-28.125c-17.578 0-34.078 6.7969-46.453 19.172s-19.172 28.875-19.172 46.453c0 18.328 7.5938 34.875 19.781 46.828-0.1875 0.1875-0.42188 0.28125-0.60938 0.46875-12.375 12.375-19.172 28.875-19.172 46.453 0 4.7812 0.5625 9.4688 1.5938 13.969 0.32812 1.5 0.9375 2.8594 1.3594 4.3125 0.84375 2.9062 1.7344 5.8125 3 8.5781 0.1875 0.42188 0.23438 0.84375 0.42188 1.2656zm223.36-458.21c-5.2031 5.2031-12.469 8.2031-19.922 8.2031h-93.75c-15.516 0-28.125-12.609-28.125-28.125 0-7.4531 3-14.719 8.2031-19.922 5.2969-5.2969 12.375-8.2031 19.922-8.2031h93.75c15.516 0 28.125 12.609 28.125 28.125 0 7.5938-2.9062 14.625-8.2031 19.922zm8.2031 73.828c0 7.5938-2.9062 14.625-8.2031 19.922-5.2031 5.2031-12.469 8.2031-19.922 8.2031h-93.75c-15.516 0-28.125-12.609-28.125-28.125 0-7.4531 3-14.719 8.2031-19.922 5.2969-5.2969 12.375-8.2031 19.922-8.2031h93.75c15.516 0 28.125 12.609 28.125 28.125zm-8.2031 282.42c-5.2031 5.2031-12.469 8.2031-19.922 8.2031h-93.75c-15.516 0-28.125-12.609-28.125-28.125 0-7.4531 3-14.719 8.2031-19.922 5.2969-5.2969 12.375-8.2031 19.922-8.2031h93.75c15.516 0 28.125 12.609 28.125 28.125 0 7.5938-2.9062 14.625-8.2031 19.922zm-141.79 73.828c0-7.4531 3-14.719 8.2031-19.922 5.2969-5.2969 12.375-8.2031 19.922-8.2031h93.75c15.516 0 28.125 12.609 28.125 28.125 0 7.5938-2.9062 14.625-8.2031 19.922-5.2031 5.2031-12.469 8.2031-19.922 8.2031h-93.75c-15.516 0-28.125-12.609-28.125-28.125zm181.74 26.719c1.2188-2.8125 2.1094-5.7188 2.9531-8.625 0.42188-1.4531 0.98438-2.8125 1.3125-4.3125 0.9375-4.5 1.5-9.0938 1.5-13.781 0-18.328-7.5938-34.875-19.781-46.828 0.1875-0.1875 0.42188-0.28125 0.60938-0.46875 12.375-12.375 19.172-28.875 19.172-46.453 0-36.188-29.438-65.625-65.625-65.625h-28.125v-131.26h28.125c17.578 0 34.078-6.7969 46.453-19.172s19.172-28.875 19.172-46.453c0-18.328-7.5938-34.875-19.781-46.828 0.1875-0.1875 0.42188-0.28125 0.60938-0.46875 12.375-12.375 19.172-28.875 19.172-46.453 0-36.188-29.438-65.625-65.625-65.625h-28.125v-37.5h225v206.26h-28.125c-17.578 0-34.078 6.7969-46.453 19.172s-19.172 28.875-19.172 46.453c0 18.328 7.5938 34.875 19.781 46.828-0.1875 0.1875-0.42188 0.28125-0.60938 0.46875-12.375 12.375-19.172 28.875-19.172 46.453 0 18.328 7.5938 34.875 19.781 46.828-0.1875 0.1875-0.42188 0.28125-0.60938 0.46875-12.375 12.375-19.172 28.875-19.172 46.453 0 18.328 7.5938 34.875 19.781 46.828-0.1875 0.1875-0.42188 0.28125-0.60938 0.46875-12.375 12.375-19.172 28.875-19.172 46.453 0 10.125 2.4844 19.594 6.5625 28.125h-50.344c0.1875-0.46875 0.28125-0.9375 0.46875-1.4062zm222.56-288.05c-5.2031 5.2031-12.469 8.2031-19.922 8.2031h-93.75c-15.516 0-28.125-12.609-28.125-28.125 0-7.4531 3-14.719 8.2031-19.922 5.2969-5.2969 12.375-8.2031 19.922-8.2031h93.75c15.516 0 28.125 12.609 28.125 28.125 0 7.4531-3 14.719-8.2031 19.922zm8.2031 73.828c0 7.4531-3 14.719-8.2031 19.922-5.2031 5.2031-12.469 8.2031-19.922 8.2031h-93.75c-15.516 0-28.125-12.609-28.125-28.125 0-7.4531 3-14.719 8.2031-19.922 5.2969-5.2969 12.375-8.2031 19.922-8.2031h93.75c15.516 0 28.125 12.609 28.125 28.125zm0 93.75c0 7.4531-3 14.719-8.2031 19.922-5.2031 5.2031-12.469 8.2031-19.922 8.2031h-93.75c-15.516 0-28.125-12.609-28.125-28.125 0-7.4531 3-14.719 8.2031-19.922 5.2969-5.2969 12.375-8.2031 19.922-8.2031h93.75c15.516 0 28.125 12.609 28.125 28.125zm-121.87 121.87c-15.516 0-28.125-12.609-28.125-28.125 0-7.4531 3-14.719 8.2031-19.922 5.2969-5.2969 12.375-8.2031 19.922-8.2031h93.75c15.516 0 28.125 12.609 28.125 28.125 0 7.4531-3 14.719-8.2031 19.922-5.2031 5.2031-12.469 8.2031-19.922 8.2031zm152.86 0c4.125-8.7188 6.5156-18.188 6.5156-28.125 0-18.328-7.5938-34.875-19.781-46.828 0.1875-0.1875 0.42188-0.28125 0.60938-0.46875 12.375-12.375 19.172-28.875 19.172-46.453 0-18.328-7.5938-34.875-19.781-46.828 0.1875-0.1875 0.42188-0.28125 0.60938-0.46875 12.375-12.375 19.172-28.875 19.172-46.453 0-18.328-7.5938-34.875-19.781-46.828 0.1875-0.1875 0.42188-0.28125 0.60938-0.46875 12.375-12.375 19.172-28.875 19.172-46.453 0-36.188-29.438-65.625-65.625-65.625h-28.125v-206.26h131.26v581.26z"/>
</svg>
