<?xml version="1.0" encoding="UTF-8"?>
<svg width="1200pt" height="1200pt" version="1.1" viewBox="0 0 1200 1200" xmlns="http://www.w3.org/2000/svg">
 <path d="m604.44 302.77c-3.2188 0.046875-5.7891 2.6953-5.7422 5.9102v582.63c-0.027343 1.5625 0.57422 3.0703 1.668 4.1875 1.0977 1.1172 2.5938 1.7422 4.1562 1.7422 1.5664 0 3.0625-0.625 4.1602-1.7422 1.0938-1.1172 1.6953-2.625 1.668-4.1875v-582.63c0.023438-1.5742-0.59375-3.0898-1.707-4.2031-1.1133-1.1172-2.6289-1.7305-4.2031-1.707zm-132.58 54.051v116.54h116.54v-116.54zm324.1 58.48v101.97h101.97v-101.97zm-437.23 58.062v101.97h101.97v-101.97zm284.57 45.961v72.836h72.836v-72.836zm124.31 11.586v58.27h58.27v-58.27zm-522.01 44.426v87.406h87.406v-87.406zm592.27 33.961v116.54h116.54v-116.54zm-50.031 23.59v29.137h29.137v-29.137zm-425.39 29.859v72.84l72.836-0.007812v-72.84zm359.72 17.164v87.406h87.406v-87.406zm-242.88 55.668v58.27h58.27v-58.27zm-72.461 58.27v43.703h43.703v-43.703zm407.16 7.4727v43.703h43.703v-43.703zm-487.77 36.234v29.133h29.137v-29.133z"/>
</svg>
