<?xml version="1.0" encoding="UTF-8"?>
<svg width="1200pt" height="1200pt" version="1.1" viewBox="0 0 1200 1200" xmlns="http://www.w3.org/2000/svg">
 <path d="m470.4 259.2 2.3984 1.1992-1.1992 2.3984 1.1992 1.1992 3.6016-1.1992 1.1992 1.1992-4.8008 3.6016v2.3984l4.8008 4.8008h2.3984l3.6016 1.1992 4.8008-1.1992 2.3984-1.1992 2.3984 1.1992 4.8008-4.8008 2.3984-1.1992 6-2.3984 4.8008-1.1992 2.3984-2.3984 2.3984-1.1992 1.1992 1.1992v1.1992l-1.1992 1.1992-1.1992 2.3984-1.1992 1.1992h-3.6016l-4.8008 1.1992h-3.6016v1.1992l1.1992 1.1992h6l2.3984 1.1992v1.1992l1.2109 1.207h-3.6016l-1.1992 1.1992h-2.3984l-3.5977-1.1992h-3.6016l-4.8008 2.3984 1.1992 1.1992h2.3984l7.1992 3.6016h2.3984l2.3984-2.3984h2.3984l2.3984 2.3984v2.3984h2.3984l3.6016-1.1992 4.8008-1.1992 4.8008-2.3984 3.6016-1.1992 4.8008-2.3984 1.1992 1.1992v2.3984l1.1992 2.3984 4.8008 1.1992h3.6016l4.8008-2.3984 1.1992-2.3984-2.3984-2.3984 1.1992-2.3984 2.3984-3.6016 2.3984-1.1992 2.3984 1.1992 3.6016 1.1992 3.6016-1.1992 4.8008-4.8008-1.1953-2.4023-1.1992-2.3984 1.1992-2.3984 2.3984-2.3984 1.1992-6 1.1992-3.6016 2.3984-4.8008v-2.3984l-2.3984-4.7969 0.003906-2.4062 1.1992-2.3984v-2.3984h-1.1992l-4.8008 1.1992-4.8008-1.2031h-2.3984l-6 2.3984h-3.6016l-2.3984-1.1992-3.6016 1.1992-2.3984-1.1992-2.3984-2.3984-2.3984 2.3984v-3.5977l-1.1992-1.1992-1.1992 2.3984v3.6016l-1.1992 1.1992-1.1992-3.6016h-4.8047l1.1992 1.1992v1.1992l-1.1992 2.3984 1.1992 2.3984v2.3984h-2.3984l-1.1992-1.1992h-1.1992v4.7969l-1.1992-1.1992-1.1992-2.3984v-3.6016l-2.4062-5.9922-1.1992-2.3984-3.6016-1.1992-2.3984-1.2031h-1.1992v2.3984l1.1992 2.4023 1.1992 2.3984h-2.3984l-1.1992-2.3984-1.1992 1.1992 1.1992 3.6016 3.6016 2.3984 1.1992 3.6016v3.6016l1.1992 3.6016 3.6016 3.6016v3.6016h-1.1992l-2.3984-2.3984-7.2031-2.3984-1.1992-2.3984 1.1992-2.3984v-1.1992h-2.3984l-6.0039-0.015624h-1.1992l-3.5977 3.5977h-2.3984v-1.1992l-1.1992-1.1992-2.3984 1.1992-2.3984-2.3984-1.1992-2.3984h-2.3984l-1.1992 1.1992-2.3984-1.1992v-2.3984l-2.3984-2.3984h-1.1992l-1.1992 2.3984v4.8008l1.1992 3.6016 2.3984 2.3984 2.3984 3.6016-1.1992 1.1992-2.3984-1.1992-1.1992-2.3984-1.1992-1.1992v2.3984l1.1836 1.1953 2.3984 2.3984v4.7969h-1.1992l-2.3984-3.6016-1.1992-1.1992-6 2.3984-3.6016-2.3945-1.1992 2.3984 2.3984 2.3984zm20.402-36h2.3984l1.1992-1.1992 1.1992-2.3984-2.3984-1.1992-3.6016 1.1992-4.8008-1.1992h-2.3984l-1.1992 1.1992 1.1992 1.1992zm-70.801 139.2h1.1992l2.3984 3.6016 1.1992 1.1992 1.1992-1.1992v-2.3984l-6-6 0.003906-3.6016h-1.1992l-1.1992-1.1992h-1.1992l-2.3984-1.1992-3.6016-3.6016v-3.6016l-1.1992-3.6016-4.8008-3.6016h-2.3984l-1.1992 2.3984 1.1992 3.6016 4.7969 4.7969 1.1992 6 2.3984 2.3984h2.3984l3.6016 1.1992zm52.801-110.4 2.3984-2.3984v-2.3984l-2.3984-2.3984h-2.3984l-2.4023 2.3945v2.3984l1.1992 1.1992zm75.598 68.398 1.1992-3.6016-2.3984-2.3984h-2.3984l-1.1992-1.1992h-1.1992l-2.4023 2.4023-4.8008 3.6016-1.1992-1.1992h-1.1992l-2.3984 2.3984v2.3984l-1.1992 1.1992h-2.3984l-1.1992 2.3984-2.3984 2.3984 3.6016 1.1992 3.6016-1.1992 3.5977 3.5977v2.3984l2.3984 1.1992-1.1992 2.3984 2.3984-1.1992h2.3984l4.8008-4.8008h2.3984l2.3984-2.3984-1.1992-1.1992v-4.8008zm48-19.199h2.3984l2.3984-3.6016v-2.3984l-3.6016-1.1992-1.1992-3.6016h-1.1992l-2.3984 2.3984 1.1992 2.3984 2.3984 2.3984zm-86.398-3.5977-1.1992 2.3984 1.1992 2.3984 2.3984 2.3984 7.2031-2.3984v-2.3984l-2.3984-1.1992zm-114 24 4.8008 3.6016 1.1992 2.3984 2.3984-1.1992 1.1992-2.3984-1.1992-2.3984v-3.6016l1.1992-1.1992 2.3984 1.1992 2.3984-2.3984h1.1992l-1.1992 3.6016v6l1.1992 2.3984 3.6016 1.1992v1.1992h2.3984l2.3984-1.1992h1.1992v2.3984l-3.5898 4.7969h-1.1992v-1.1992l-1.1992-1.1992-7.2031-1.2031-1.1992 1.1992v2.3984l2.3984 2.3984 4.7969 2.3984v1.1992l-1.1992 2.3984 2.3984 1.1992 3.6016 1.1992 2.3984 1.1992 1.1992 2.3984 2.3984 1.1992 1.1992-1.1992h2.3984l1.1992 1.1992-1.1992 2.3984-3.6016 1.1992 1.1992 2.3984 2.3984 2.3984h3.5977l4.8008 2.3984 2.3984 2.3984-1.1992 1.1992v1.1992h3.6016l6-2.3984 2.3984-2.3984v-2.3984l1.1992-3.6016 2.3984-1.1992h2.3984v-2.3984l-4.7969-4.7969-1.1992-3.6016-1.1992-2.3984v-2.3984l1.1992-1.1992h2.3984l2.3984 2.3984v1.1992l1.1992 1.1992 1.1992-2.3984v-2.3984l-1.1797-8.3867 1.1992-2.3984h1.1992l1.1992 1.1992 1.1992 3.6016 1.1992 1.1992v2.3984l-1.1992 2.3984v1.1992l2.3984 3.6016h2.3984l2.3984-1.1992 3.6016-6v-3.6016l-1.1992-3.6016 1.1992-2.3984h1.1992l2.3984 2.3984 1.1992 3.6016-1.1992 3.6016v2.3984l2.3984 1.1992 2.3984-1.1992 2.3984-2.3984h2.3984v1.1992l-1.1992 2.3984-3.6016 2.3984-2.3984 2.3984-6 1.1992-4.8008 2.3984 1.2148 3.6094 1.1992 2.3984-3.6016 2.3984-2.3984 3.6016-1.1992 3.6016h-1.1992l-2.3984 2.3984v2.3984h-1.1992l-1.1992-2.3984-1.1992-1.1992-4.7969 2.3984v2.3984l2.3984 4.8008 1.1992 4.8008h1.1992l2.3984-1.1992 2.3984-2.3984 3.6016-1.1992 1.1992-1.1992h2.3984l2.3984-1.1992 2.3984-3.6016h1.1992l1.1992-1.1992 2.3984-1.1992 1.1992 1.1992 2.3984-1.1992 7.1992-1.1992 1.1992-2.3984 2.3984-2.3984h1.1992v1.1992l-1.1992 1.1992v2.3984h-2.3984l-2.3984 1.1992-4.8008 1.1992-2.3984 2.3984-6 3.6016-4.7969 2.3984v1.1992h8.4023l2.3984-1.1992 3.6016 1.1992v1.1992l-4.7969 6-2.3984 1.1992h-6l-1.1992 1.1992h-1.1992l-1.1992-1.1992-1.207-1.1992h-2.3984l-3.6016 3.6016v1.1992l2.3984 1.1992v3.5977h1.1992v1.1992l1.1992 1.1992 2.3984 1.1992 1.1992 2.3984 1.1992 1.1992h1.1992l2.3984 1.1992v1.1992l2.3984 1.1992h3.5977l2.3984 1.1992h1.1992l1.1992 2.3984 4.8008 2.3984 3.6016-2.3984 1.1992-2.3984h1.1992l1.1992 1.1992 2.3984-1.1992h1.1992v2.3984l-1.1992 1.1992h-1.1992l-3.582 3.6133v1.1992l7.1992 3.6016h2.3984l1.1992 1.1992 1.1992 4.8008 1.1992 2.3984h1.1992l2.3984-2.3984 2.3984 1.1992 2.3984-1.1992 1.1992-3.6016v-3.6016l1.1992-1.1992v-2.3984l-2.3984-3.6016-1.1992-3.6016 2.3984-4.7969-2.3984-10.801v-4.7969l2.3984-2.3984v-1.1992l-3.6016-1.1992 2.3984-3.6016h4.8008v-3.6016l-1.1992-4.8008v-3.6016l-1.1992-3.6016-3.6016-3.6016v-3.6016l1.1992-1.1992h3.6016l1.1992-2.3984-1.1992-1.1992-1.1992-3.6016v-2.3984l-1.1992-6-2.3984-3.6016v-2.3984l3.6016-3.6016v-2.3984l-3.5938-1.1992v-1.1992l3.6016-1.1992 3.6016-4.8008h2.3984l3.6016-2.3984 2.3984 2.3984 1.1992-1.1992v-2.3984l1.1992-2.3984-1.1992-3.6016h-10.797l-4.8008-1.1992-6-3.6016-2.3984-1.1992-6-3.6016h-2.3984l-3.6016 1.1992-1.2031-1.1992v-2.4023l-4.8008-7.1992-3.6016-6-4.8008-2.3984-2.3984 2.3984v3.6016l2.3984 6 1.1992 3.6016-2.3984 2.3984h-1.1992v-1.1992l-1.1992-4.8008-1.1992-7.1992 1.1992-2.3984-1.1992-3.6016-3.6016-2.4023-4.8008-3.6016-3.6016-1.1992-2.3984 2.3984 0.003906 2.4023-2.3984-1.1992-1.2031-3.6016-4.8008-3.6016h-1.1992l-2.3984 1.1992-1.1992 3.6016 1.1992 4.8008-1.1992 3.6016 1.1992 3.6016v3.6016h2.3984l1.1992 1.1992 3.5977 14.402 2.3984 3.6016 3.6016 3.6016 1.1992 3.6016 4.8008 2.3984v2.3984l-2.3984 1.1992-2.3984-1.1992-3.6016-4.8008-2.3984-1.207h-2.3984l-2.3984 2.3984h-1.1992l-1.1992-1.1992 2.3984-2.3984v-2.3984l-1.1992-2.3984-3.6055-7.2031-1.1992-6-1.1992-2.3984-4.8008-1.1992-3.5977-2.4023h-2.3984l-1.2031 1.1992v3.6016l-2.3984 6v3.6016l1.1992 3.6016 2.3984 3.6016 2.3984 4.8008h-1.1992l-2.3984-2.4062-1.1992-3.6016v-2.3984l-3.5977-3.5977h-1.1992l-1.1992 1.1992h-2.3984v-1.1992l2.3984-3.6016v-1.1992h-2.3984l-2.4062 3.5977-2.3984 2.3984-2.3984-1.1992v-2.3984l1.1992-1.1992v-1.1992l4.8008-4.8008h3.5977l1.1992-2.3984v-2.3984l-3.6016-3.6016-2.3984-1.1992-3.6016 1.1992-6 7.1992-2.3984 2.3984-1.1992-1.1992-1.1992-2.3984-2.3984-1.1992-1.1992 1.1992 1.1992 3.6016 4.7969 5.9961v1.1992h-3.6016l-6-6h-2.3984l-2.3984 3.6016 1.1992 3.6016 1.1992 1.1992 1.1992 2.3984-3.5977 3.5977-1.2031 2.4023 1.1992 2.3984 2.3984 3.6016zm186 28.797 2.3984-6 3.6016-2.3984 1.1992-1.1992-3.6016-1.1992-2.3984-1.1992-3.6016-1.1992-5.9961 5.9961-4.8008-1.1992-4.8008-2.3984-1.1992-3.6016 1.1992-1.1992 2.3984-1.1992v-1.1992l-3.6016-3.6016-3.5977-4.8008-4.8008 4.8008-2.3984 3.5977-3.6016 1.1992-7.1992 3.6016-2.3984 3.6016-1.1992 3.6016 3.6016 1.1992 3.6016 2.3984 3.6016-1.1992 1.1992 1.1992v2.3984l1.1992 3.6016-1.1992 4.8008v4.8008l-2.3984 2.3984 1.1992 2.3984-1.1992 2.3984 1.1992 2.3984h1.1992l2.3984-2.3984 3.6016-1.1992 2.3984-3.6016h2.3984l2.3984-2.3984 1.1992-4.8008 1.1992-1.1992h2.3984l1.1992-1.1992 1.1992 3.6016v4.8008l1.1992 3.6016-1.1992 2.3984 2.3984 2.3984h2.3984l2.3984-2.3984-1.1992-2.3984 1.1992-2.3984 2.3984-2.3984 2.3984-1.1992 1.1992-7.1992zm28.801-67.199h2.3984l1.1992-1.1992h2.3984v-2.3984l-1.1953-3.6016-2.3984 2.3984h-2.3984l-2.3984 2.3984-1.1992 6h1.1992zm-28.801-56.398 1.1992-2.3984-2.3984-2.3984-2.3984-1.1992-1.1992 1.1992v1.1992l2.3984 2.3984zm-12 570 3.6016-4.8008h-3.6016l-1.1992 2.3984zm-12-68.402-2.3984 6 1.1992 3.6016 3.6016-4.8008zm-36 156-1.1992-2.3984-3.6016 1.1992 4.8008 2.3984c-1.1992 0.003906 0-1.1992 0-1.1992zm33.602-141.6-1.1992 2.3984 2.3984 1.1992 1.1992-2.3984zm3.5977 86.398-2.3984 3.6016 3.6016-1.1992 1.1992 1.1992 1.1992-2.3984 3.6016-6-2.4023 2.3984zm6-25.199h-1.1992l-1.1992 3.6016 2.3984 1.1992 1.1992-2.3984zm-66 116.4-1.1992-1.1992h-2.3984l1.1992 4.8008zm32.402-39.598 3.6016-1.1992 2.3984-3.6016-2.3984-1.1992-2.3984 1.1992-1.1992 2.3984h-3.6055l-1.1992 4.8008h2.3984zm37.199-61.199-4.8008 2.3984v2.3984h2.3984zm-37.199 52.797-2.3984-1.1992-4.8047 4.8008 4.8008-1.1992zm-6 19.203 1.1992-2.3984-1.1992-3.6016-2.3984 3.6016zm-19.203 88.797-1.1992 3.6016 1.1992-1.1992zm-2.3984 1.2031v-3.6016l-2.3984 3.6016zm10.801 22.797v3.6016l2.3984-1.1992zm-22.801-84-2.3984 3.6016 3.6016-1.1992zm301.2-332.4-1.1992-1.1992h-2.3984l-3.6016 1.1992-6-2.3984h-2.3984l-2.3984 3.6016h-2.3984l-1.1992-1.1992 2.3984-2.3984v-2.3984h-3.6016l-1.1992-1.1992-1.2031 1.1914-1.1992 4.8008h-1.1992v-2.3984l-1.1992 1.1992-1.2031 1.1992h-1.1992l-1.1992-1.1992 2.3984-2.3984v-2.3984l-3.6016-1.1992-3.6016 1.1992-2.3984 1.1992v4.8008l-2.3984 1.1992v1.1992l3.6016 4.8008v2.3984l-2.4023 2.3984-2.3984-2.3984h-2.3984v1.1992h-3.6016l-3.6016 2.3984 2.3984-4.8008 2.3984-1.1992 1.1992-3.6016-1.1992-1.1992h-1.1992l-2.3984 3.6016h-2.3984v-1.1992l2.3984-2.3984v-1.1992h-3.6016l-1.1953-1.2031 2.3984-1.1992 1.1992 1.1992 3.6016-1.1992 1.1992-6-1.1992-2.3984-3.6016 1.1992-2.3984-1.1992v-2.4023l-2.3984 2.3984h-2.3984l-1.2031-1.1992-2.3984 2.3984v1.1992l2.3984 2.3984v2.4062h-1.1992l-3.6016-2.3984-1.1992 2.3984v3.6016l1.1992 1.1992h2.3984l1.1992 1.1992v1.1992l-2.3984 1.1992v2.3984l-2.3984 1.1992v2.3984l1.1992 1.1992-2.3984 1.1992 2.3984 3.6016-1.1992 1.1992-2.3984-1.1992-1.1992 2.3984v1.1992l-2.3984 2.3984-0.003906-4.793 1.1992-6h-3.6016v-1.1992l1.1992-2.3984-1.1992-4.8008-1.1992-1.1992h-1.1992l-3.6016 8.3984 1.1992 3.6016-3.6016 7.1992v4.8008l1.1992 1.1992v3.6016l-2.3945 3.5977-2.3984 1.1992-1.1992-2.3984-1.1992-1.1992 2.3984-4.8008-1.1992-2.3984 1.1992-2.3984-2.3984-2.3984 3.6016-6v-3.6016l1.1992-1.1992-0.003906-3.6055h-2.3984l-3.6016-2.3984-1.1992 1.1992 1.1992 2.3984-2.3984 3.6016-1.1992-2.3984-2.4023-2.4023h-3.6016l-2.3984 1.1992 1.1992 3.6016-1.1992 2.3984-4.7969-2.3984-1.1992 1.1992 1.1992 1.1992 4.8008 1.1992 1.1992 2.3984-1.1992 1.1992-2.3984-1.1992-2.3984 2.3984v1.1992l1.1992 1.1992-1.1992 1.1992-3.6016-1.1992h-1.1992l-1.1992 3.6016-2.3984 1.1992v1.1992l1.1992 1.1992 1.1914 6.0078v2.3984l3.6016 2.3984-1.1992 2.3984h3.6016l1.1992 1.1992-2.4023 2.4062-4.8008 1.1992-2.3984-3.6016h-2.3984l1.1992-2.3984-3.6016-1.1992-7.2031 2.3984-4.7969-4.8008h-1.1992l-1.1992 2.3984-1.1992-2.3984-2.3984 2.3984-3.6016 1.1992v1.1992l4.8008 3.6016 2.3984-1.1992 2.3984 1.1992 4.8008-1.1992-1.1992 3.6016 1.1992 2.3984 3.6016 2.3984v2.3984l-2.3984-1.1992-3.6016-3.6016h-3.6016l-2.3984-1.1992v3.6016l-3.6016 6.0039-1.1992-3.6016-2.3984 2.3984v1.1992l-2.3984 3.6016 1.1992 2.3984 3.6016 1.1992 2.3984 2.3984h-3.6016l-2.3984-1.1992-1.2031 3.6055v2.3984l-3.6016 3.6016v-1.1992l2.3984-2.3984-1.1992-2.3984 1.1992-4.8008-4.8008-8.3984-2.3984 2.3984-2.3984 5.9961 1.1992 3.6016 1.1992 1.1992-2.3984 4.8008-1.1992-3.6016 1.1992-3.6016-2.3984-4.8008h-2.3984l-3.6016 2.3984-1.1992 4.8008 2.3984 2.3984v2.3984l6 2.3984 2.3984 2.3984-1.1992 6.0117-2.3984-3.6016-3.6016-1.1992-3.6016-4.8008h-1.1992l-4.8008 2.3984v2.3984l6 2.3984h2.3984l1.1992 1.1992h-3.6016l-2.3984 1.1992 2.3984 2.3984-3.6016-1.1992-2.3945-4.793h-1.1992l-1.1992-2.3984-1.1992 2.3984v4.8008l2.3984 1.1992v3.6016l-3.6016-1.1992-2.3984 1.1992-2.3984 4.8008h1.1992l2.3984-1.1992 2.3984 2.3984-4.7969 2.3984 2.3984 1.1992-1.1992 2.3984-2.3984 1.1992v1.1992h1.1992l-2.3984 1.1992-1.2031-1.1953-2.3984 1.1992-1.1992 3.6016 1.1992 1.1992-1.1992 1.1992h-4.8008v3.6016h3.6016l7.1992-3.6016 2.3984 1.1992 3.6016-2.3984 2.3984-1.1992v2.3984l-2.3984 2.3984v4.8008l-1.1992 1.1992-1.1992-1.1992-1.2031-2.3984-2.3984 1.1992-1.1992-1.1992-3.6016 1.1992 1.1992 1.1992-1.1992 2.3984-2.3984-1.1992-3.6016 1.2031 3.6016 1.1992 1.1992 2.3984h-1.1992l-1.1992 2.3984 1.1992 2.3984v2.3984l-2.3984-2.3984v-3.6016l-3.6016-2.3984-2.3984 2.3984-1.2031 2.4062-1.1992-1.1992 1.1992-1.1992h-2.3984l-3.6016 2.3984 2.3984 2.3984 3.6016-1.1992 3.6016 1.1992-1.1992 2.3984-6 2.3984-1.1992-1.1992-2.3984 1.1992-1.1992 3.6016 2.3984 1.1992-1.1992 3.6016 2.3984-1.1992 2.3984-4.8008h2.3984l2.3984 1.1992-4.8008 1.1992v3.6016l2.3984 2.3984 4.8008 1.1992v2.3984l-3.6016-1.1992-2.3984 1.1992-3.6016-2.3984-1.1992 1.1992 0.003906 1.207 2.3984 1.1992-3.5977 1.1992-2.3984 2.3984v2.3984l3.6016 1.1992 2.3984-2.3984 2.3984 1.1992 2.3984-1.1992 1.1992 2.3984 2.3984 1.1992v2.3984l-4.8008-1.1992-3.6016 1.1992-1.1992 1.1992-4.8008 2.3984v2.3984l-2.3984 2.3984-1.1992-1.1992-3.6016 3.6016-1.1953-2.3906v1.1992h3.6016l2.3984 2.3984-3.6016 2.4023h-2.3984l2.3984 1.1992v1.1992h-3.6016v-1.1992l-1.1992 1.1992 2.3984 1.1992-1.1992 1.1992 1.1992 1.1992h2.3984l-2.3945 3.6055-2.3984 1.1992-1.1992-1.1992v2.3984l-1.1992 2.3984h7.1992l1.1992 2.3984h2.3984l2.3984-1.1992-1.1992 2.3984v1.1992l-3.6016 1.1992-1.1992-1.1992-4.8008 1.1992-2.3984 3.6016 1.1992 1.1992 3.6016-1.1992 1.1992 2.3984 2.3984 1.1992v2.3984l-2.3984-1.1992h-1.1992l-1.1992 2.3984 1.1992 2.3984-1.1992 1.1992 2.3984 1.1992 1.1992 2.3984-2.3984-2.3867-2.3984-1.1992-1.2031 1.1992 1.1992 2.3984h3.6016l1.1992 1.1992v2.3984l-4.8008-1.1992-1.1992 1.1992v2.3984h1.1992v2.3984l2.3984 2.3984 2.3984-1.1992 1.1992-2.3984h1.1992l-1.1992 3.6016-2.3984 1.1992-2.3984 3.6016-4.7969 2.3984v1.1992l-2.3984 2.4062-2.3984 2.3984h2.3984v1.1992l-3.6016 2.4023-1.1992 3.6016v1.1992h3.6016l-2.4023 1.1992-1.1992 3.6016-2.3984 1.1992-1.1992-2.3984-2.3984-1.1992-1.1992 1.1992h-2.3984l1.1992 1.1992-1.1992 2.3984v2.3984l1.1992 1.1992-3.6055 2.4023-1.1992 1.1992 1.1992 3.6016-2.3984 2.3984 1.1992 1.1992v3.6016l-2.3984 2.3984-2.3984 3.6016 1.1992 1.1992 3.6016-2.3984h2.3984v2.3984l-2.3984 1.1992v3.6016h2.3945l3.6016-2.3984 3.6016-1.1992 4.8008-6v-2.3984l-3.6055-0.003906 2.3984-3.6016v-3.6016l2.3984-2.3984h6l-4.8008 3.6016v2.3984h4.8008l-1.1992 2.3984-2.3945 1.2031-3.6016 6 3.6016 1.1992-1.1992 2.3984 1.1992 2.3984h-3.6016l-3.6016-1.1992-3.5977 1.2031-2.3984 2.3984v2.3984l-4.8008 4.8008 1.1992-2.3984 1.1992-1.1992-2.3984-2.3984v-3.6016l-3.6016-2.3984h-2.3984l-1.2031 2.3984-3.6016 1.1992v1.1992l4.8008-1.1992-3.5977 6h-3.6016l-2.3984 1.1992-2.3984 3.6016h2.3984l1.1992-1.1992 1.1992 1.1992-3.6016 3.6016-1.1992 2.3984-2.3984-1.1992h-2.3984v1.1992l4.8008 1.1992 4.8008-1.1992v2.3984h2.3984v2.3984h-4.8008l-1.1992-2.3984-3.6016 1.1992-3.6016-2.3984-1.1992-1.1992h-1.1992v2.3984l3.6016 3.6016 3.6016 1.1992h3.6016l2.3984 1.1992-3.6016 1.1992-4.8008-2.3984-6-3.6016-2.3984 1.1992-3.6016-1.1992-3.6016 1.1992-2.3984-1.1992v2.4023l1.1992 2.3984-1.1992 2.3984 3.6016 2.3984 6-3.6016 1.1992 1.1992-2.3984 2.3984h1.1992l3.6016-3.6016h2.3984l-1.1992 2.3984-4.8008 3.6016-1.2031 2.4102h-3.6016l-3.6016-2.3984h-1.1992l-1.1992 2.3984-3.6016-1.1992-2.3984 1.1992h-3.5977l1.1992 1.1992h6l3.6016 1.1992 4.8008 1.1992-1.1992 2.3984 2.3984 1.1992-2.3984 2.3984-1.1992-1.1992-1.1992-4.8008h-3.6016l-3.6016 1.1992 1.1992 2.3984v1.1992l-4.8008-1.1992-1.1992 4.8086 3.6016 1.1992-2.3984 1.1992-1.1992 1.1992-1.1992-2.3984h-6.0039l2.3984 2.3984-2.3984 2.4023-1.1992-2.3984-3.6016-2.3984-1.1992 1.1992 1.1992 1.1992 3.6016 2.3984-1.1992 2.3984 2.3984 1.1992 3.6016-2.3984h6l3.6016 1.1992 4.8008-1.1992 1.1992-1.1992 2.3984-1.1992-2.3984 3.6016h-4.8008l-2.4023 2.3984-6-1.1992-3.6016 1.1992h-1.1992l-2.3984 2.3984-3.6016 1.1992v1.1992l6 1.1992-1.1992 3.6016h3.6016l1.1992-1.1992 4.8008-1.1992-3.6016 3.6016-4.8008 1.1992h-2.3984v1.1992h4.7969l-3.5977 2.3984-1.1992 1.1992 1.1992 1.1992 2.3984 1.1992 1.1992 1.1992 3.6016-1.1992 2.3984-2.3984 4.8008-2.3984h4.8008l2.3984-2.3984v-2.3984l2.3984-1.1992 1.1992 1.1992 2.3984-1.1992 3.6016-3.6016h2.3984v1.1992l-1.1992 1.1992h3.6016l1.1992-2.3984-1.1992-1.1992 1.1992-3.6016v2.3984l3.6016 2.3984-1.1992 2.3984-4.7969 6.0039-2.3984 2.3984 1.1992 1.1992-1.1992 2.3984-3.6016 1.1992v-1.1992l1.1992-2.3984-1.1992-2.3984h-3.6016l-2.3984 3.6016v2.3984l-3.6016-2.3984h-3.6016l-3.5977 1.1992h-2.3984l-3.6016 3.6016h-2.3984l-3.6016-1.2031h-1.1992l2.3984 2.3984v2.3984l2.3984 1.1992 2.3984-1.1992 1.1992-2.3984h2.3984l-2.3984 2.3984 1.1992 2.3984-1.1992 1.1992-2.3984-1.1992 2.3984 3.6016 2.3984 1.1992 3.6016-6h3.6016l-1.1992 1.1992 1.1992 2.3984-4.7969 6.0078 1.1992 1.1992h2.3984l-1.1992 2.3984 2.3984 2.3984v3.6016h1.1992l2.3984-4.8008 2.3984-2.3984v-3.6016l6-3.6016h3.6016l2.3984-1.1992-4.8008 4.8008 1.1992 3.6016 1.1992 2.3984-3.6016-1.1992-1.1992-3.6016h-2.3984l-1.1914 3.6055-1.1992 1.1992h3.6016l-2.4023 3.5977h-2.3984l-1.2031 3.6016h2.3984l4.8008-1.1992 1.1992 1.1992-3.6016 1.1992-1.1992 2.3984v2.3984l-4.8008-1.1992-1.1992 1.1992v2.3984l-1.1992-3.6016-2.3984 2.3984-1.1992 4.8086 2.3984 2.3984 6 3.6016v-2.3984l1.1992 1.1992 2.3984-1.1992-1.1953-2.4023 1.1992-3.6016 4.8008 1.1992-1.1992 1.1992 2.3984 1.1992v2.3984l-2.3984 2.3984 3.6016 3.6016 1.1992-2.3984 4.8008-2.3984 2.3984 2.3984-4.8008 3.6055-1.1992 1.1992 2.3984 2.3984v1.1992l-7.1992-2.3984-2.3984 1.1992-2.3984-1.1992-2.3984 1.1992v2.3984l-1.1992 2.3984 6 6h3.6016l6 2.3984 7.1992 1.1992 1.1992 2.3984-1.1992 1.1992 3.6016 1.1992 2.3984-1.1992-2.4062-3.5898 2.3984-1.1992 2.3984 1.1992v1.1992l4.8008 3.6016 1.1992-2.3984h1.1992l2.3984-2.3984 2.3984-3.6016h1.1992l1.1992-2.3984h1.1992l1.1992 2.3984h2.3984l4.8008-7.1992-1.1992-2.3984-3.6016-2.3984 6 1.1992 3.6016-4.8008-1.1992-1.1992 2.3984-2.3984-1.1992-2.3984 2.3984-2.3984 2.3984-1.1992v-2.3984l-2.3867-1.2148v-2.3984l-3.6016-2.3984-3.6016-1.1992v-2.3984h2.3984l4.8008 2.3984 2.3984 4.8008 1.1992 1.1992h2.3984v2.3984l2.3984 1.1992 3.6016-2.3984-1.1992-1.1992-2.3984-1.1992 1.1992-2.3984 3.6016 1.1992v1.1992l3.6016-4.8008v-3.6016l-2.3984-2.3984h-2.3984l-1.1992-1.1992 1.1992-1.1992v-1.1992l2.3984-2.3984-2.3984-3.6055v-3.6016l2.3984-2.3984 3.6016 1.1992-1.1992 3.6016 1.1992 3.6016v2.3984l2.3984 2.3984 1.1992 2.3984 4.8008 2.3984 4.8008-1.1992 2.3984 1.1992-1.1992 1.1992 2.3984 1.1992 2.3984 2.3984 1.1992-3.6016-3.6016-9.6016-3.6016-3.6016 1.1992-3.6016 2.3984-2.3984-2.3984-2.3984 1.1992-2.3984 6-2.3984 1.1992-2.3984-1.1992-3.6016 1.1992-6-4.7891-1.1953-3.6016-7.1992-4.8008-4.8008v-2.3984l7.1992-4.8008-1.1992-6 1.1992-3.6016-8.3984-4.8008-6-1.1992-1.1992-6v-6l-2.3984-6-3.6016-3.6016v-6l-3.6016-8.3984-2.3984-9.5977v-7.1992l2.3984-7.1992 3.6016-3.6016h4.8008l6-1.1992 2.3984-4.8008-2.3984-6-2.3984-2.3984-1.1992-3.6016 3.6016-15.602-0.003906-8.3984v-12l-1.1992-4.8008-3.6016-2.3984-1.1992-3.6016 4.8008-4.8008 6-2.3984 2.3984-2.3984v-3.6016l3.6016-9.6016 3.6016-7.1992 1.1992-4.8008-3.6016-4.8008-2.3984-1.1992-2.3984-7.1992 2.3984-1.1992 1.1992-3.6016v-4.8008l2.3984-1.1992 1.1992-6 3.6016-3.6016 4.8008 1.1992 2.3984 1.1992 2.3984-1.1992 2.3984-2.3984-2.3945-3.5977 1.1992-2.3984v-4.7969l-3.6016-3.6016 1.1992-1.1992 4.8008-1.1992 3.6016-2.3984h6l4.8008 1.1992 4.8008-1.1992 2.3984 1.1992 1.1992-1.1992h2.3984l-1.1992-3.6016-2.3984-2.3984-1.1992-4.8008 2.3984-2.3984-2.3984-3.6016-3.6016-1.1992-1.1992-3.6016h4.8008l3.6016-1.1992 1.1992-1.1992v-1.1992h1.1992l1.1992-1.1992-1.1992-2.3984v-3.6016l2.3984-2.3984h3.6016l3.6016 3.6016 9.6016 3.6016 2.3984 3.6016 3.6016 2.3984 6 1.1992 8.3984-1.1992 3.6016-4.8008 2.3984-2.3984 3.6016-1.1992 7.1992 2.3984h4.8008l1.1992-3.6016 2.3984-1.1992 2.3984-3.6016h3.6016l2.3984-2.3984 1.1992-2.3984-2.3984-2.3984-2.3984-4.8008-0.003906-8.4141v-2.3984l-2.3984-2.3984 2.3984-1.1992 2.3984-4.8008-1.1992-1.2031 3.6016-2.3984h4.8008l2.3984-1.1992-1.1992-1.1992 2.3984-3.6016 7.1992-2.3984 3.6016 1.1992 6 3.6016 3.6016 2.3984h4.8008l6-1.1992 1.1992 2.3984 4.8008 2.3984v3.6016l-2.3984 6 2.3984 6 2.3984-1.1992v-4.8008l3.6016-4.8008 4.8008-1.1992 2.3984-3.6016-1.1992-4.8008 3.6016-1.1992h3.6016l1.1992-3.6016-1.1992-3.6016h-1.1992l-3.6055-1.1953h-1.1992l-1.1992 1.1992v2.3984l-1.2031-1.1992-1.1992-1.1992h-2.3984l1.1992 1.1992v3.6016h-1.1992l-2.3984-2.3984-2.4023 2.3984v2.3984l-1.1992-2.3984-2.4023-3.6016h-1.1992l-2.3984-3.6016h-1.1992l-3.6016 1.2031h-7.1992l-2.3984-2.3984v-1.1992h6l4.8008-1.1992h3.6016l7.1992-1.1992 4.8008-2.3984 2.3984-7.1992 7.1992-3.6016 2.3984-2.3984v-1.1992zm-286.8 399.6-2.3984-1.2031-2.3984 1.1992 3.6016 3.6016zm-2.3984-9.6016v-3.6016l-3.6016-2.3984zm-20.398-48 2.3984 3.6016 1.1992-2.3984zm4.7969 7.1992-4.7969-1.1992 1.1992 2.3984zm8.4023 40.801v-3.6016l-3.6016 1.1992zm-1.1992-7.1992h-2.3984l1.1992 1.1992zm-6-12-2.3984 2.3984 2.3984 1.1992 1.1992-2.3984zm3.5977 6-2.3984 2.3984 3.6016 1.1992c-1.2031-1.1992-1.2031-3.5977-1.2031-3.5977zm112.8-271.2 2.3984-2.3984-2.3984-2.3984zm36-60-2.3984 2.3984 1.1992 6h2.3984l2.3984 2.3984 1.1992-3.6016-2.3984-2.3984 1.1992-3.6016zm24-22.801-1.1992 3.6016-2.4023-2.4023-2.3984 3.6016h-3.6016l2.3984 3.6016h6l2.3984-1.1992 7.1992-10.801-1.1992-2.3984-4.8008 6zm-37.199 34.801-3.6016 1.1992-1.1992-1.1992-4.8008 6 6 3.6016h2.3984l1.1992-1.1992-1.1992-2.3984zm-18 33.598 3.6016-1.1992-1.1992-2.3984v-2.3984l-1.2031-3.6016h-2.3984l-1.1992-2.3984-6 1.1992 1.1992 3.6016-3.6016-1.1992-1.1992 3.6016 4.8008 1.1992-3.6016 1.1953-1.1992 4.8008h3.6016l-2.4023 2.3984h3.6016l1.1992 3.6016h1.1992v-4.8008h4.8008zm10.801-24-1.1992 3.6016-4.8008 1.1992v2.3984l-3.6016 1.2031 4.8008 3.6016 3.6016-2.3984 4.8008-1.1992-1.1992-2.3984 2.3984-3.6016zm58.797-57.598 3.6016 2.3984 1.1992-2.3984-2.3984-1.1992zm-14.398 24-2.3984 2.3984 4.8008 1.1992h3.6016v-3.6016l-2.3984-1.1992zm39.602-28.801 3.6016-1.1992 1.1992-3.6016h-4.8008l2.3984-3.6016h-3.6016l-2.3984-1.1992v2.3984l-1.1992 2.3984h-2.3984l-1.1992 1.1992v1.1992h3.6016zm-13.203-1.1992 1.1992-2.3984-2.3984 1.1992-1.1992 2.3984zm-15.598 30v-2.3984l2.3984-3.6016-2.3984-3.6016-4.8008 6zm-56.402 21.598-4.8008 2.3984 1.1992 3.6016 3.6016-3.6016zm61.203-30 4.8008-2.3984 1.1992-3.6016-4.8008-2.3984-4.8008 2.3984 3.6016 2.3984zm-120 116.4 1.1992-3.6016h-1.1992l-1.1992 2.3984zm25.199-43.203 3.6016-3.6016-2.4023-3.5977-4.8008 2.3984v3.6016l-3.6016 4.8008 1.1992 4.8008 2.3984 1.1992 3.6016-6zm-6 13.203-2.3984-3.6016h-2.4023l1.1992 1.1992-2.3984 3.6016h-3.6016v3.6016l2.3984 2.3984 3.6016-4.8008h2.3984l-3.6016 3.6016 2.3984 1.1992 4.8008-2.3984zm-15.602 90 2.3984 3.6016 2.3984-4.8008-1.1992-2.3984zm10.801-81.602-1.1992 3.6016 4.8008-2.3984zm-10.801 20.398 6-6v-2.3984l-6 2.3984zm34.801-38.398-3.6016-1.1992-2.3984 1.1992 1.1992 1.1992 6 1.1992zm36-48-1.1992-1.1992-3.6016-1.1992-1.1992-4.8008-2.3984 1.1992 2.3984 3.6016 1.1992 3.6016h4.8008zm-52.801 114 1.1992-3.6016h-2.3984l-1.1992 2.3984zm48-108v4.8008l2.3984-2.3984zm-49.199 70.801-1.1992-7.1992-7.1992 6v3.6016l4.8008-3.6016zm38.398-79.199 1.1992 2.3984 1.1992-3.6016zm-28.797 72 1.1992-2.3984 3.6016-3.6016 4.8008-7.1992-6-3.6016-2.3984-1.1992 1.1992 2.3984 2.3984 2.3984-6 1.1992-1.1992 4.8008-1.2031-2.3984v-9.6016l-2.3984 7.1992 1.1992 3.6016-2.3984 3.6016 1.1992 2.3984-1.1992 1.1992v4.8008h2.3984l1.1992-7.1992v3.6016z"/>
</svg>
