<?xml version="1.0" encoding="UTF-8"?>
<svg width="1200pt" height="1200pt" version="1.1" viewBox="0 0 1200 1200" xmlns="http://www.w3.org/2000/svg">
 <path d="m68.398 703.2c7.1992 9.6016 36 8.3984 45.602 7.1992-9.6016-6-21.602-6-28.801-14.398 16.801-16.801 75.602 16.801 103.2 10.801 2.3984 0 19.199-7.1992 19.199-7.1992 4.8008-9.6016-8.3984-15.602-7.1992-20.398 3.6016-14.398 33.602-8.3984 48-8.3984 15.602 0 38.398 2.3984 50.398-7.1992 13.199-10.801 15.602-22.801 33.602-32.398 32.398-18 56.398-22.801 82.801-51.602 14.398-14.398 15.602-18 37.199-14.398 7.1992 1.1992 6 10.801 15.602 8.3984 7.1992-1.1992 7.1992-12 12-15.602 15.602-12 27.602-4.8008 44.398-10.801 16.801-6 27.602-27.602 36-42 16.801 1.1992 20.398 22.801 42 24 18 1.1992 32.398-12 50.398-14.398 22.801-2.3984 36 3.6016 58.801-7.1992 16.801-8.3984 32.398-24 50.398-27.602 10.801 24-4.8008 63.602 22.801 66 8.3984 1.1992 78-28.801 51.602 7.1992 18 0 49.199 7.1992 58.801-4.8008-4.8008 24 13.199 27.602 33.602 26.398 19.199-1.1992 31.199-2.3984 50.398 0 19.199 2.3984 33.602 1.1992 45.602-12 10.801-12 15.602-31.199 33.602-34.801 2.3984 14.398-22.801 56.398 15.602 39.602 18-7.1992 24-32.398 32.398-45.602 3.6016 8.3984 4.8008 18 4.8008 27.602 22.801 7.1992 27.602-22.801 25.199-39.602-4.8008 3.6016-8.3984 4.8008-8.3984 14.398-15.602-7.1992-7.1992-27.602-13.199-39.602-4.8008 7.1992 3.6016 12-4.8008 15.602-25.199-22.801-39.602-52.801-68.398-72-15.602-10.801-33.602-18-49.199-27.602-15.602-9.6016-27.602-24-43.199-33.602-27.602-19.199-60-31.199-92.398-40.801-37.199-10.801-54-32.398-82.801-55.199-27.602-21.602-67.199-37.199-102-37.199-19.199 0-34.801 3.6016-51.602 13.199-15.602 8.3984-27.602 26.398-43.199 33.602-38.398 16.801-73.199-12-108-15.602-40.801-2.3984-79.199 27.602-110.4 50.398-50.398 38.398-98.398 92.398-134.4 145.2-8.3984 12-15.602 26.398-26.398 37.199-10.801 9.6016-27.602 14.398-37.199 26.398-8.3984 9.6016-14.398 28.801-15.602 39.602-2.3984 16.801 4.8008 20.398 6 34.801-13.199 2.3984-28.801-7.1992-37.199 0 26.398 19.199-18 19.199-28.801 28.801-4.8008 6-24 32.398-25.199 40.801 19.188 8.4062 1.1875 24.004 8.3867 34.805zm930-219.6 1.1992 2.3984c28.801-4.8008 2.3984 34.801-7.1992 42-13.199-8.3984-10.797-39.602 6-44.398zm-156 37.199c2.3984-24 25.199-43.199 30-68.398 6-32.398 21.602 0 10.801 21.602-7.1992 14.395-20.398 57.598-40.801 46.797zm-249.6-124.8c3.6016-16.801 16.801-10.801 22.801-2.3984 4.8008 6 4.8008 25.199 6 33.602 2.3984 25.199 8.3984 51.602 7.1992 76.801-21.602 1.1953-57.602-103.2-36-108zm-13.199-79.199c20.398-22.801 34.801 44.398 28.801 50.398-16.801 13.199-43.203-33.598-28.801-50.398zm-44.402 108c4.8008-7.1992 13.199-10.801 21.602-8.3984-1.1992 15.598 8.3984 27.598 7.1992 43.199-13.199 3.5977-27.602-22.801-28.801-34.801zm-43.199 30c6-25.199 22.801 1.1992 26.398 8.3984 4.8008 10.801 8.3984 24 10.801 34.801-20.398 7.1992-40.801-26.398-37.199-43.199zm-48 15.598c1.1992-3.6016 4.8008-3.6016 8.3984 2.3984 6 8.3984 19.199 19.199 26.398 31.199 4.8008 7.1992 6 14.398 3.6016 21.602-13.199 37.199-37.199-4.8008-39.602-21.602-1.1953-3.5977-2.3984-26.395 1.2031-33.598zm-164.4 52.801c-22.801 6-52.801-15.602-48-40.801 8.3984-2.3984 15.602-1.1992 19.199 3.6016-2.3984-1.1992-4.8008 0-6-1.1992-1.1992 8.3984 31.199 24 34.801 38.398zm-38.402 28.801s-1.1992 0 0 0v-2.3984c-1.1992 1.1992-1.1992 1.1992 0 2.3984 15.602-12 45.602 15.602 43.199 34.801-14.398 2.3984-40.797-20.402-43.199-34.801zm-16.801 70.801c8.3984 10.801 31.199 15.602 30 32.398-16.797 4.8008-28.797-16.801-30-32.398z"/>
 <path d="m184.8 828c13.199 6 22.801 19.199 34.801 26.398 14.398 8.3984 30 12 46.801 18 6 28.801 142.8 79.199 146.4 42 16.801 3.6016 33.602 32.398 48 43.199 20.398 14.398 44.398 9.6016 68.398 9.6016 55.199 0 104.4-2.3984 156-13.199 37.199-7.1992 80.398 2.3984 112.8-21.602 14.398-10.801 16.801-26.398 26.398-39.602 10.801-16.801 21.602-20.398 37.199-28.801 14.398-8.3984 22.801-22.801 37.199-31.199 18-9.6016 27.602-4.8008 44.398-19.199 13.199-12 22.801-16.801 19.199-33.602-3.6016-20.398-34.801-26.398-28.801-50.398 19.199 2.3984 25.199 39.602 42 42 10.801 1.1992 32.398-25.199 37.199-33.602 9.6016-14.398 8.3984-37.199 20.398-50.398 14.398-15.602 30-12 25.199-39.602-20.398-4.8008-9.6016-21.602-21.602-31.199-15.602-13.199-24 6-38.398 6-15.602 0-19.199-16.801-32.398-21.602-18-6-26.398 14.398-42 13.199-12-1.1992-19.199-18-27.602-25.199-14.398-12-14.398-7.1992-31.199-7.1992-19.199-1.1992-66-19.199-76.801 13.199-4.8008 14.398-26.398 7.1992-25.199 21.602 1.1992 13.199 21.602 9.6016 15.602 30-20.398-8.3984-25.199-28.801-48-10.801-19.199 16.801-24 30-55.199 26.398-21.602-2.3984-37.199-9.6016-37.199 18 0 14.398 24 50.398-3.6016 52.801 0-13.199-8.3984-60-18-67.199-13.199-9.6016-58.801 0-66 12 4.8008 9.6016 10.801 20.398 13.199 31.199-18-3.6016-13.199-38.398-39.602-30-2.3984 13.199 6 28.801 0 42-13.199 25.199-22.801-4.8008-28.801-19.199-9.6016-24-15.602-24-34.801-33.602-36-19.199-52.801-44.398-93.602-14.398-18 13.199-28.801 21.602-48 30-18 8.3984-22.801 21.602-37.199 33.602-13.199 9.6016-31.199 13.199-46.801 18-24 7.1992-24 9.6016-27.602 34.801-3.6016-8.3984-10.801-13.199-20.398-9.6016-2.3984 15.602-7.1992 27.602-13.199 42-10.789 19.203-9.5898 14.402 10.812 25.203zm564-67.199c-8.3984-1.1992-14.398-7.1992-21.602-10.801-1.1992 12 3.6016 26.398-9.6016 31.199-12-9.6016-27.602-34.801-24-50.398 7.1992-28.801 16.801 9.6016 34.801 6 0-3.6016 2.3984-6 2.3984-10.801 1.1992 0 3.6016-6 3.6016-7.1992 7.2031 15.598 18 25.199 14.402 42zm-52.801 51.598c1.1992 6 4.8008 14.398 10.801 15.602 18 1.1992 4.8008-13.199 10.801-20.398 9.6016-10.801 28.801-13.199 34.801 4.8008 2.3984-26.398 30-10.801 31.199-34.801 2.3984 0 3.6016 0 6-1.1992 2.3984-14.398-1.1992-39.602-6-55.199-3.6016-13.199-28.801-34.801-20.398-48 20.398-32.398 38.398 62.398 39.602 75.602 1.1992 14.398-2.3984 25.199 3.6016 42 6 14.398 13.199 28.801 15.602 44.398-13.199-9.6016-13.199-25.199-22.801-34.801 6 25.199-15.602 9.6016-25.199 16.801-9.6016 8.3984 2.3984 28.801-4.8008 36-15.602 14.398-15.602-26.398-20.398-28.801-13.199-8.3984-20.398 7.1992-18 19.199-2.3984-1.1992-6-1.1992-8.3984-3.6016 0 15.602 6 32.398 3.6016 48-21.602-7.1992-16.801-67.199-45.602-42 2.3906-13.199-8.4102-40.801 15.59-33.602zm-32.398-66 4.8008 7.1992c8.3984-1.1992 14.398 49.199-3.6016 39.602-12-7.1992-3.6016-39.598-1.1992-46.801zm-74.402-24c13.199-2.3984 9.6016 7.1992 10.801 14.398 3.6016 13.199 0 30-2.3984 42-19.199-3.6016-14.398-28.801-16.801-43.199-2.4023-9.5977 0-11.996 8.3984-13.199zm-210 40.801c4.8008-8.3984 10.801-14.398 13.199-24 3.6016-9.6016-6-26.398 4.8008-26.398 9.6016-6 18 6 16.801 16.801-37.199 9.6016-8.3984 99.602-37.199 97.199-4.8008-20.402-8.4023-44.402 2.3984-63.602zm-34.801 14.402-4.8008 4.8008c13.199-1.1992 12 32.398-1.1992 26.398-12-7.1992-6-30 6-31.199zm-64.797-20.402c7.1992 9.6016 4.8008 21.602 2.3984 32.398 8.3984-15.602 1.1992-32.398 10.801-48 7.1992-12 22.801-14.398 24-30 1.1992 3.6016 6 0 4.8008 1.1992 0 28.801-4.8008 52.801-2.3984 81.602 1.1992 7.1992 6 36-8.3984 31.199-9.6016-3.6016-4.8008-25.199-10.801-31.199-3.6016 15.602-19.199 21.602-34.801 20.398 0 10.801 3.6016 25.199-10.801 24-12.004-22.797 2.3984-70.797 25.199-81.598z"/>
</svg>
