<?xml version="1.0" encoding="UTF-8"?>
<svg width="1200pt" height="1200pt" version="1.1" viewBox="0 0 1200 1200" xmlns="http://www.w3.org/2000/svg">
 <path d="m904.8 60h-609.6c-39.602 0-70.801 31.199-70.801 70.801v938.4c0 39.602 31.199 70.801 70.801 70.801h609.6c39.602 0 70.801-31.199 70.801-70.801v-938.4c0-39.602-31.203-70.801-70.801-70.801zm-594 72h580.8c8.3984 0 14.398 6 14.398 14.398v344.4c0 8.3984-6 14.398-14.398 14.398l-580.8 0.003907c-8.3984 0-14.398-6-14.398-14.398l-0.003906-344.4c0-8.3984 6-14.398 14.402-14.398zm297.6 732-27.602-38.398c73.199-42 128.4 0 128.4 0l-27.594 38.398c-27.602-10.801-73.203 0-73.203 0zm68.402 44.398c0 16.801-14.398 31.199-31.199 31.199-16.801 0-31.199-14.398-31.199-31.199 0-16.801 14.398-31.199 31.199-31.199 16.797 0 31.199 14.402 31.199 31.199zm-54-282c0 9.6016-7.1992 16.801-16.801 16.801h-57.602c-9.6016 0-16.801-7.1992-16.801-16.801v-9.6016c0-9.6016 7.1992-16.801 16.801-16.801h57.602c9.6016 0 16.801 7.1992 16.801 16.801zm34.801 133.2c-9.6016 0-16.801-7.1992-16.801-16.801v-52.801c0-9.6016 7.1992-16.801 16.801-16.801h57.602c9.6016 0 16.801 7.1992 16.801 16.801v52.801c0 9.6016-7.1992 16.801-16.801 16.801zm58.797-117.6h-57.602c-9.6016 0-16.801-7.1992-16.801-16.801v-9.6016c0-9.6016 7.1992-16.801 16.801-16.801h57.602c9.6016 0 16.801 7.1992 16.801 16.801v9.6016c0 9.6016-8.3984 16.801-16.801 16.801zm-330 343.2c0 20.398-16.801 37.199-37.199 37.199-20.398 0-37.199-16.801-37.199-37.199v-22.801h74.398zm0-45.598h-74.398v-34.801h74.398zm0-51.602h-74.398v-34.801h74.398zm0-54h-74.398v-18c0-15.602 16.801-28.801 37.199-28.801 20.398 0 37.199 13.199 37.199 28.801zm10.801-91.199c0 9.6016-7.1992 16.801-16.801 16.801h-57.602c-9.6016 0-16.801-7.1992-16.801-16.801v-52.801c0-9.6016 7.1992-16.801 16.801-16.801h57.602c9.6016 0 16.801 7.1992 16.801 16.801zm0-116.4c0 9.6016-7.1992 16.801-16.801 16.801h-57.602c-9.6016 0-16.801-7.1992-16.801-16.801v-9.6016c0-9.6016 7.1992-16.801 16.801-16.801h57.602c9.6016 0 16.801 7.1992 16.801 16.801zm69.602 396c-20.398 0-37.199-16.801-37.199-37.199l-1.1992-22.801h75.598l1.1992 22.801c-1.1992 20.402-18 37.199-38.398 37.199zm37.199-116.4v34.801h-74.398v-34.801zm-74.398-18v-34.801h74.398v34.801zm74.398-54h-74.398l1.1992-18c0-15.602 16.801-28.801 37.199-28.801s37.199 13.199 37.199 28.801zm3.6016-91.199c0 9.6016-7.1992 16.801-16.801 16.801h-57.602c-9.6016 0-16.801-7.1992-16.801-16.801v-52.801c0-9.6016 7.1992-16.801 16.801-16.801h57.602c9.6016 0 16.801 7.1992 16.801 16.801zm0-116.4c0 9.6016-7.1992 16.801-16.801 16.801h-57.602c-9.6016 0-16.801-7.1992-16.801-16.801v-9.6016c0-9.6016 7.1992-16.801 16.801-16.801h57.602c9.6016 0 16.801 7.1992 16.801 16.801zm24 116.4v-52.801c0-9.6016 7.1992-16.801 16.801-16.801h57.602c9.6016 0 16.801 7.1992 16.801 16.801v52.801c0 9.6016-7.1992 16.801-16.801 16.801h-57.602c-9.6016 0-16.801-7.2031-16.801-16.801zm26.398 103.2 38.398 27.602s-10.801 45.602 0 73.199l-38.398 26.398s-42-54 0-127.2zm22.801 145.2 27.602-38.398s45.602 10.801 73.199 0l26.398 38.398c1.1992 0-54 43.199-127.2 0zm153.6-18-38.398-26.398c10.801-28.801 0-73.199 0-73.199l38.398-27.602c42 73.199 0 127.2 0 127.2zm98.402 55.199c-30 0-55.199-25.199-55.199-55.199s25.199-55.199 55.199-55.199 55.199 25.199 55.199 55.199-25.199 55.199-55.199 55.199zm0-133.2c-30 0-55.199-25.199-55.199-55.199s25.199-55.199 55.199-55.199 55.199 24 55.199 55.199-25.199 55.199-55.199 55.199zm0-146.4c-42 0-75.602-33.602-75.602-75.602s33.602-75.602 75.602-75.602 75.602 33.602 75.602 75.602c-0.003906 42-33.602 75.602-75.602 75.602z"/>
</svg>
