<?xml version="1.0" encoding="UTF-8"?>
<svg width="1200pt" height="1200pt" version="1.1" viewBox="0 0 1200 1200" xmlns="http://www.w3.org/2000/svg">
 <path d="m968.11 311.29c-1.875-1.875-3.7969-3.7031-5.6719-5.5312l9.6562-16.125v0.046875c18.75-31.359 8.625-72-22.688-90.891l-18.234-10.969c-31.406-18.703-72-8.5312-90.844 22.781l-3.0938 5.1562v0.046875c-50.297-25.781-104.48-43.125-160.36-51.328v-42c21.984-1.125 39.234-19.219 39.281-41.203v-39.938c-0.046874-22.828-18.516-41.297-41.344-41.344h-149.63c-22.828 0.046875-41.297 18.516-41.344 41.344v39.891c0.046875 22.031 17.297 40.125 39.281 41.25v42c-127.78 19.078-243.89 84.984-325.78 184.87-81.938 99.938-123.74 226.74-117.33 355.78 6.375 129.05 60.516 251.11 151.87 342.47 131.53 131.48 323.21 182.86 502.87 134.72 179.68-48.141 319.97-188.48 368.11-368.16 48.145-179.68-3.2344-371.34-134.76-502.87zm-99.609-83.812c9.5156-15.797 29.953-20.906 45.797-11.484l18.234 10.969c15.75 9.5156 20.906 30.047 11.438 45.844l-6.2344 10.406-0.046875 0.046875c-22.406-19.219-46.406-36.422-71.719-51.562zm-351.79-146.26v-39.891c0.046874-4.6875 3.7969-8.4375 8.4844-8.5312h149.63c4.6875 0.09375 8.4375 3.8438 8.4844 8.5312v39.891c-0.046875 4.6875-3.7969 8.4844-8.4844 8.5312h-149.63c-4.6875-0.046875-8.4375-3.8438-8.4844-8.5312zm127.36 41.344v38.156c-14.578-1.2188-29.25-1.875-44.062-1.875-14.766 0-29.484 0.65625-44.062 1.875v-38.156zm-44.062 1044.6c-129.37 0-253.4-51.422-344.86-142.87-91.5-91.5-142.87-215.58-142.87-344.9 0.046875-129.37 51.422-253.45 142.92-344.9 91.453-91.453 215.53-142.82 344.9-142.82 129.32 0 253.4 51.422 344.86 142.87 91.453 91.5 142.82 215.58 142.82 344.9-0.14062 129.32-51.609 253.31-143.06 344.72-91.406 91.453-215.39 142.87-344.72 143.02zm0-928.92c-117-0.046874-229.22 46.453-311.95 129.19-82.781 82.734-129.24 194.95-129.28 311.95 0 117 46.5 229.22 129.24 311.95 82.688 82.734 194.9 129.24 311.9 129.24 117.05 0.046875 229.26-46.453 312-129.19 82.734-82.734 129.24-194.95 129.24-311.95-0.14062-116.95-46.641-229.08-129.32-311.81-82.684-82.727-194.86-129.24-311.81-129.37zm300 717.89-44.625-44.625c-6.4219-6.375-16.828-6.375-23.25 0.046875s-6.375 16.828 0.046875 23.203l44.625 44.625c-71.156 65.906-163.5 104.2-260.44 108v-63.281c0.14062-4.4062-1.5469-8.7188-4.6406-11.859-3.0938-3.1875-7.3125-4.9688-11.766-4.9688-4.4062 0-8.6719 1.7812-11.766 4.9688-3.0938 3.1406-4.7344 7.4531-4.6406 11.859v63.281c-96.891-3.7969-189.24-42.094-260.39-108l44.672-44.625c6.1406-6.4219 6-16.594-0.28125-22.875-6.2812-6.3281-16.453-6.4219-22.922-0.32812l-44.625 44.578c-65.859-71.109-104.16-163.4-108-260.29h63.281c8.9062-0.23437 15.984-7.5 15.984-16.406s-7.0781-16.172-15.984-16.406h-63.281c3.7969-96.891 42.094-189.24 108-260.39l44.625 44.625v-0.046875c6.4688 6.1406 16.594 6 22.922-0.28125 6.2812-6.2812 6.4219-16.453 0.28125-22.922l-44.625-44.625v0.046875c71.156-65.906 163.5-104.2 260.39-108v63.281c-0.09375 4.4062 1.5469 8.7188 4.6406 11.906 3.0938 3.1406 7.3594 4.9688 11.766 4.9688 4.4531 0 8.6719-1.8281 11.766-4.9688 3.0938-3.1875 4.7812-7.5 4.6406-11.906v-63.328c96.938 3.8438 189.28 42.141 260.44 108l-44.625 44.625c-3.2344 3.0469-5.0625 7.2656-5.1094 11.672-0.046875 4.4531 1.6875 8.7188 4.7812 11.859 3.1406 3.0938 7.4062 4.8281 11.859 4.7812 4.4062-0.046875 8.625-1.875 11.672-5.1094l44.578-44.531c65.906 71.156 104.2 163.5 108 260.39h-63.328c-8.9062 0.23437-15.984 7.5-15.984 16.406s7.0781 16.172 15.984 16.406h63.328c-3.8438 96.844-42.141 189.14-108 260.26zm-67.781-293.11h-174.94c-5.7188-19.734-21.141-35.156-40.875-40.875v-235.18c-0.23438-8.9062-7.5-15.984-16.406-15.984s-16.172 7.0781-16.406 15.984v235.22c-20.297 5.8125-35.953 21.891-41.203 42.328-5.2969 20.391 0.60938 42.094 15.516 57s36.609 20.812 57.047 15.562c20.391-5.2969 36.516-20.953 42.328-41.203h174.94c8.8594-0.23438 15.938-7.5469 15.938-16.406 0-8.9062-7.0781-16.172-15.938-16.406zm-205.55 18.891c-1.3594 14.25-13.641 24.938-27.938 24.281s-25.547-12.469-25.547-26.766 11.25-26.109 25.547-26.766 26.578 10.031 27.938 24.281c-0.28125 1.6406-0.28125 3.3281 0 4.9688z"/>
</svg>
