<?xml version="1.0" encoding="UTF-8"?>
<svg width="1200pt" height="1200pt" version="1.1" viewBox="0 0 1200 1200" xmlns="http://www.w3.org/2000/svg">
 <path d="m1138.5 594.62c-0.71875-0.83984-1.6797-1.1875-2.7461-1.1875-4.668 0-67.211-4.7773-104.76-8.1133-119.82-10.5-169.93 0.83984-191.34 43.32-7.7773 15.156-12.551 18.973-27.145 21.48-19.609 3.6953-29.773 2.2695-72.469-10.621-20.809-6.2031-40.055-13.008-41.137-19.691-0.96094-6.5625 16.859-18.371 24.516-23.387 5.8555-4.0547 15.539-9.5508 21.648-12.648 6.0977-3.1094 20.09-10.621 30.73-16.824 19.848-11.219 55.129-28.402 80.363-39.023 12.312-5.2578 14.832-5.8438 24.395-5.8438 12.434 0 28.344 3.457 45.684 9.8984 29.172 10.738 46.871 11.461 90.289 3.9375 14.352-2.6289 32.762-6.0859 37.547-7.2852 18.539-4.7773 62.543-10.859 78.562-10.859 6.457 0 6.9375-4.0547 6.9375-5.375 0-1.4297-0.35938-2.5078-1.3203-3.3359-1.9062-1.7891-4.7891-1.9062-17.461-1.0781-19.008 1.1875-57.395 7.1641-77.605 12.047-19.609 4.5352-59.914 10.738-69.602 10.738-10.285 0-26.543-3.457-40.535-8.5938-14.953-5.4844-31.812-9.7812-44.125-11.102h-0.23828c19.367-10.738 34.199-10.141 52.621 2.3867 6.6953 4.5352 23.316 8.5938 35.039 8.5938 17.941 0 55.969-8.5938 86.461-19.691 0.71875-0.23828 69.48-25.895 69.48-33.77 0-2.5078-1.3203-3.6953-2.1484-4.1758-2.6289-1.5469-6.457-0.35938-15.66 4.6562-33.48 18.266-83.832 34.969-122.45 40.57-19.02 2.7461-31.691 1.4297-42.574-4.5352-15.434-8.2305-20.809-10.738-28.223-11.699l11.242-6.2031c51.059-28.883 68.762-38.305 91.598-49.883 26.543-13.367 66.371-31.738 76.176-34.848 5.4961-1.7891 8.4844-3.6953 9.3242-6.3242 0.60156-1.4297 0.35938-2.9883-0.48047-4.2969-2.6289-3.9375-2.5078-3.9375-30.613 7.9922-8.7227 3.8164-17.941 7.8711-27.383 12.289 38.988-21.48 44.605-24.59 47.711-25.777 3.5898-1.3086 5.7344-4.0547 5.7344-7.4023 0-0.96094 0-3.457-1.9062-4.7773-1.8008-1.1875-3.8281-0.48047-4.668-0.12109-1.7891 0.71875-21.648 11.461-40.895 22.078-16.621 9.0703-34.199 18.613-43.883 23.867l-5.7344 3.2266c-6.457 3.457-17.461 9.4336-24.395 13.246-6.9375 3.9375-21.77 11.461-32.293 16.465l-15.07 7.043 0.12109-0.48047c2.3867-16.465 21.887-44.039 42.574-60.266 20.688-16.344 69.359-40.934 101.88-51.551 5.9766-1.7891 9.2031-3.457 9.5625-6.4453 0.23828-1.1875-0.12109-2.9883-2.6289-4.5352-0.48047-0.35938-1.0781-0.48047-1.9062-0.48047 0.96094-0.83984 1.4414-1.668 1.5586-2.7461 0.12109-1.0781-0.23828-2.7461-2.3867-4.0547-5.9766-3.6953-84.898 28.883-100.33 36.395-14.473 7.1641-39.59 23.027-57.277 36.156-38.027 28.285-64.211 61.344-71.508 90.574-2.0273 8.4727-2.2695 8.5938-6.9375 11.102-3.3477 1.5469-12.672 7.4023-20.93 13.008-2.8672 1.9062-5.8555 3.8164-8.4961 5.4844 7.0547-9.3125 12.312-21 13.391-30.312 0.83984-6.8047 0.12109-9.8984-4.1875-19.332-5.1367-11.102-5.1367-17.902 0.12109-28.164 10.645-20.879 62.785-65.16 124.13-105.25 18.66-12.168 67.559-36.395 88.488-44.039 12.551-4.5352 16.859-6.5625 16.859-10.98 0-5.0156-2.5078-5.6055-3.707-5.6055-3.2266 0-44.605 17.664-58.355 24.109-23.555 10.5-38.027 18.852-67.441 38.785-43.402 29.23-79.645 59.074-99.371 81.742-16.141 18.613-19.969 36.516-11.363 53.102 4.7891 9.6719 4.668 17.426-0.48047 27.805-1.8008 3.8164-5.9766 9.7812-9.8047 14.676 2.8672-10.141 2.7461-22.68-0.12109-38.305-2.2695-11.578-2.2695-12.289 0-20.52 6.8164-24.109 22.008-43.922 56.09-73.031 38.508-33.059 72.227-56.809 116.35-81.863 14.473-8.1133 35.52-19.211 45.684-23.629 16.98-7.5234 20.328-10.379 20.93-13.367 0.23828-1.0781 0.12109-2.6289-1.4414-4.2969-3.3477-2.7461-35.16 12.406-41.496 15.395-14.832 7.5234-52.859 29.953-72.828 42.961-26.785 17.664-45.324 31.738-73.547 56.09-35.879 30.793-50.82 49.285-59.195 73.273-5.2578 14.914-5.375 17.664-1.3203 36.875 2.6289 11.82 2.8672 14.914 1.6797 22.078-3.707 19.094-13.633 31.738-32.172 41.051-1.1992 0.60156-2.3867 1.1875-3.4688 1.668 6.8164-9.6719 11.004-21.238 11.004-30.312 0-3.6953-2.0273-14.316-4.1875-22.559-4.9062-19.812-4.5469-29.832 1.668-43.078 11.484-24.348 27.742-41.773 72.707-77.93 36.348-29.352 72.227-61.105 93.758-82.586 19.727-20.051 65.891-71.242 62.664-79.836-0.83984-2.0273-2.0273-3.1094-3.707-3.2266-2.9883-0.35938-5.1484 2.0273-12.91 13.488-4.1875 6.3242-13.031 17.664-19.246 24.816-4.0664 4.7773-9.0859 10.141-14.594 16.117 13.633-19.691 31.812-50.484 33.121-57.277 0.96094-4.5352-0.83984-7.2852-2.9883-7.8711-0.71875-0.23828-4.1875-0.96094-6.0977 4.2969-3.8281 10.02-33.238 57.516-44.242 71.484-5.9766 7.7539-29.531 27.086-44.125 36.516-35.52 22.789-64.211 42.602-76.535 52.98-19.02 15.758-40.656 39.383-72.469 79.117-31.57 39.383-58.117 66.828-76.895 79.117-8.4961 5.7227-17.219 10.02-22.008 11.82 3.3477-8.4727 12.191-27.203 17.82-37.598 9.8047-17.902 61.344-89.27 61.344-89.27 34.199-46.43 34.199-46.43 64.332-59.543l0.96094-0.48047c29.773-13.008 55.727-27.086 81.91-44.629 17.219-11.461 51.539-43.68 66.852-62.652 8.1367-10.02 35.281-49.285 35.281-53.941 0-2.5078-1.5586-4.4141-3.9492-4.7773-2.8672-0.48047-5.9766 1.7891-7.0547 4.8945-1.4414 4.7773-22.598 35.676-34.32 49.645-17.941 21.359-47.23 47.375-71.148 63.254-18.66 12.406-53.449 31.031-67.559 36.277-6.6953 2.5078-14.711 5.9648-19.609 8.3516 2.2695-3.3359 5.0273-7.5234 8.1367-11.93 9.5625-14.195 13.633-19.211 16.98-20.641 36-15.875 50.699-25.656 71.508-47.617 22.008-23.027 46.871-60.625 58.957-89.508 6.6953-15.875 7.8945-18.973 6.2148-21.602-1.3203-1.7891-3.4688-1.7891-4.0664-1.7891-3.707 0-6.3359 6.0859-7.4141 8.832-16.262 43.559-50.102 91.297-82.391 115.99-9.4453 7.2852-25.945 16.586-35.281 21 9.2031-13.848 32.051-45.949 49.031-68.734 7.5352-10.262 19.969-27.684 27.863-38.902 3.3477-4.6562 6.9375-9.8984 10.402-14.797l1.9062-2.6289c3.707-5.375 7.0547-10.262 9.2031-13.129 8.8438-12.406 8.9648-16.234 7.7773-18.492-1.0781-2.0273-3.707-3.1094-6.2148-1.5469 0.12109-0.23828 0.12109-0.35938 0.12109-0.60156-30.012 41.652-162.39 229.01-164.18 231.39-3.4805 4.9336-29.688 38.398-49.812 61.621-0.92578-3.793-2.6055-7.3086-4.2227-10.668-3.0977-6.4336-6.0234-12.504-4.8008-20.891 2.6758-18.266 9.3477-22.727 25.477-33.527 25.176-16.859 67.32-45.07 138.55-151.09 29.258-43.547 48-81.77 48.18-82.152 1.2344-2.5195 0.19141-5.5547-2.3398-6.7812-2.543-1.2109-5.5664-0.17969-6.793 2.3398-0.19141 0.37109-18.625 37.969-47.484 80.941-18.445 27.445-34.824 49.453-49.477 67.465 1.3789-19.199 11.004-33.516 26.531-56.004 15.023-21.758 35.578-51.539 57.215-100.04 1.1289-2.5547-0.023438-5.5547-2.5781-6.6953-2.5938-1.1289-5.5664 0.011719-6.7188 2.5664-21.227 47.652-41.496 76.992-56.293 98.426-18.469 26.734-30.707 44.734-28.262 73.871-35.484 41.41-59.641 57.66-76.211 68.746-16.559 11.09-26.555 17.773-29.879 40.488-1.668 11.461 2.4102 19.945 5.7109 26.762 3.9844 8.2695 6.1797 13.078 0.058593 20.953-3.4922 3.5898-6.3828 6.2773-8.1484 7.3555-6.2148 4.8945-15.434 8.4727-20.09 8.2305-6.0977-0.48047-10.883-6.9258-12.551-16.586-1.0781-7.4023 0.96094-42.359 3.707-62.41l0.83984-6.2031c7.1758-52.273 7.1758-52.273 11.484-57.516l0.48047-0.60156c9.2031-11.219 14.953-12.648 32.172-8.1133 15.781 3.9375 23.797 2.7461 35.762-5.4844 22.246-15.277 39.348-42.961 67.801-109.91 5.2578-12.289 13.871-32.82 19.02-45.109l4.1875-10.02c4.1875-9.7812 8.375-19.691 10.523-24.59 5.4961-13.367 4.668-15.156 2.3867-16.703-1.3203-0.71875-2.8672-0.83984-4.1875-0.35938-2.8672 1.0781-5.1484 4.6562-8.0156 12.289-2.2695 6.2031-22.367 53.82-36.59 87-9.6836 22.441-29.531 61.465-36.707 71.965-8.4961 12.77-15.898 20.641-24.875 26.617-8.2578 5.375-13.633 6.4453-23.195 4.4141-5.4961-1.3086-10.164-2.2695-14.113-2.6289h-0.60156c-3.3477-0.35938-6.2148-0.48047-8.8438-0.35938-9.0859-0.35938-19.129 10.379-19.129 10.379s-1.1992-4.6562 4.4297-15.758c0.60156-1.3086 1.5586-2.8672 2.9883-4.4141 3.3477-3.3359 3.3477-3.3359 15.312-3.3359 5.1484 0 9.5625-0.23828 13.633-0.48047 9.9258-2.5078 31.934 1.7891 54.887-55.848 7.2969-18.73 12.434-40.812 15.07-64.441 2.2695-21.48 6.6953-45.828 11.605-65.039l1.0781-4.0547c3.5898-13.488 3.707-14.316 2.2695-16.117-1.1992-1.4297-2.9883-1.3086-3.4688-1.1875h-0.48047c-10.164 0-19.848 65.281-20.566 72.551-6.0977 54.781-17.219 89.629-35.039 109.67-10.285 11.219-12.191 11.93-33.719 13.129-9.8047 0.48047-16.5 1.0664-20.09 1.7891 1.1992-4.7773 4.4297-17.543 7.2969-29.125l1.9062-7.7539c4.9062-19.453 9.0859-39.145 9.6836-43.68 0.83984-6.3242 1.0781-6.9258 5.6172-10.379 14.352-11.102 29.652-32.699 35.641-50.242 3.8281-10.859 10.523-46.656 10.523-56.207 0-5.0156-0.48047-9.6719-4.4297-9.8984-3.3477 0-5.1484 4.0547-6.0977 12.887-1.3203 12.77-6.5742 38.543-9.8047 47.734-3.8281 11.34-10.523 23.746-16.859 31.859-3.5898 4.4141-7.5352 8.1133-10.285 10.262 0.48047-6.6836 1.8008-20.293 3.5898-36.395 4.0664-35.566 6.2148-50.363 9.4453-63.133 0.48047-1.7891 1.0781-4.1758-0.35938-5.9648-1.3203-1.668-3.4688-1.668-4.5469-1.668-4.5469 0-6.0977 2.0273-6.0977 3.9375 0 0.71875-1.0781 6.5625-1.8008 11.34l-0.35938 1.668c-1.4414 7.4023-4.5469 31.5-6.6953 49.766-6.8164 58.234-8.1367 66.109-18.059 105.37-2.3867 9.0703-4.4297 17.305-6.2148 25.414 1.8008-9.5508 3.9492-19.691 6.3359-30.672 7.0547-31.273 15.66-83.652 18.18-109.67 5.1484-54.66 5.2578-59.902 1.3203-62.051-1.0781-0.60156-2.8672-0.83984-5.375 1.1875-2.3867 1.7891-3.3477 5.4844-3.3477 12.527 0 11.578-5.2578 62.652-8.7227 84.012-0.96094 5.8438-2.3867 15.035-2.8672 18.852-0.96094-0.48047-2.5078-1.5469-4.4297-3.5742-6.3359-7.043-12.91-21.359-16.141-34.848-2.6289-10.5-5.2578-38.184-6.0977-64.441-0.29688-9.7539-2.0859-14.293-5.6758-14.531-3.5898 0-4.3086 5.0156-4.668 7.043-1.3203 8.7109 1.4414 57.516 3.9492 69.574 5.8555 27.684 15.191 44.16 30.133 53.219 0.71875 3.3359-4.0664 25.535-12.312 64.078-4.9062 22.078-7.8945 41.891-9.0859 58.715l-0.71875 10.141-3.9492-0.23828c-6.5742-0.48047-9.0859 0.23828-13.754 4.0547-3.1094 2.6289-7.4141 8.9531-9.6836 13.488-4.4297 8.7109-6.457 9.0703-6.6953 9.0703-0.71875-0.12109-3.4688-1.4297-9.2031-16.945-9.9258-27.445-14.953-56.809-18.66-108.48-3.8281-54.781-9.4453-117.78-11.844-132.23-1.5586-8.832-4.9062-23.148-8.1367-26.617-2.6289-2.8672-4.9062-3.6953-6.9375-2.5078-2.6289 1.5469-2.6289 5.0156-0.23828 12.047 1.4414 4.1758 3.3477 12.047 4.3086 17.305 2.0273 13.727 7.0547 67.668 8.1367 88.547 0.48047 9.7812 1.7891 26.855 2.9883 38.062 0.96094 11.219 2.2695 25.895 2.8672 32.699 2.2695 31.98 13.633 84.012 21.77 99.406 4.5469 8.4727 5.7344 10.738 12.91 10.141 8.4961-0.83984 12.551-4.0547 18.539-14.555 5.8555-10.738 8.7227-11.93 13.754-11.93h2.3867v8.2305c0 18.266-2.0273 20.051-2.5078 20.172-9.8047 3.2266-23.914 23.508-27.984 40.211-1.8008 7.8711-5.2578 13.008-6.457 14.195-1.5469-0.96094-6.0977-5.2578-10.645-13.129-7.6562-13.367-21.168-56.207-26.664-84.973-3.4688-17.305-7.8945-51.551-10.285-79.836-5.0273-59.074-10.645-111.82-13.992-131.15-7.7773-43.68-11.605-43.68-14.594-43.68-0.96094 0-2.8672 0-4.1875 1.7891-1.5586 2.1484-0.83984 4.6562 2.0273 13.969 3.1094 10.02 3.9492 15.395 9.2031 57.637 5.1484 39.504 7.8945 65.988 10.402 101.44 2.2695 31.738 6.2148 62.891 10.285 83.172 3.3477 15.996 12.91 50.605 17.82 63.84 7.0547 19.691 19.02 42.84 29.652 42.84 7.0547 0 13.391-8.1133 17.34-22.199 1.9062-6.2031 4.9062-13.727 6.5742-16.824 2.2695-4.0547 8.2578-10.141 12.086-13.246-0.35938 19.934-9.8047 111.7-14.711 123.16-1.9062 5.0156-4.9062 7.6328-6.6953 7.6328-4.5469 0-10.164-8.1133-22.836-33.301-7.8945-15.637-22.367-41.531-32.172-57.637-22.367-36.875-35.16-61.812-37.906-74.23-2.3867-11.578-2.5078-28.523-0.35938-58.234 1.6797-20.172 1.5586-26.617-0.71875-45.59-3.9492-35.09-14.594-72.324-31.453-110.39-2.9883-6.9258-8.375-20.762-11.965-31.152-6.2148-18.492-7.6562-21.48-10.883-22.199-2.2695-0.60156-3.707 0.96094-4.3086 1.5469-4.9062 4.8945 18.18 58.836 18.422 59.426 8.4844 18.852 21.047 57.395 24.516 74.941 5.2578 28.285 6.3359 43.32 5.0273 72.91-0.71875 15.156-1.0781 32.102-1.1992 38.664-11.965-23.027-29.652-67.906-39.59-100.6-12.91-42.961-43.164-126.73-52.02-129.24-2.6289-0.71875-4.0664 0.60156-4.5469 1.1875-1.7891 2.2695-1.668 5.4844 4.3086 18.266 9.8047 20.641 24.277 59.316 40.777 108.72 9.0859 27.562 19.367 57.047 22.836 65.762 9.4453 24.469 51.66 106.69 69.48 135.32 7.1758 11.699 18.887 32.34 27.266 48.457-10.285-17.062-22.957-37.234-38.27-61.105-24.035-37.477-31.453-50.953-49.992-90.816-25.598-55.367-28.703-62.293-37.789-87.238-4.5469-12.406-11.363-30.434-15.434-41.293l-0.96094-2.5078c-8.2578-21.48-15.781-45.828-21.887-70.176-3.9492-15.996-5.9766-18.852-9.2031-18.973-1.9062-0.12109-3.5898 1.3086-4.668 3.9375-2.3867 6.6836 20.328 76.02 30.371 102.28 5.8555 15.395 12.551 32.82 11.605 34.969-0.48047 0.96094-1.0781 1.3086-2.1484 1.4297-4.5469 0.35938-13.992-5.0156-24.277-17.664-17.578-21.84-37.547-58.715-46.402-85.801-5.6172-17.426-8.2578-18.973-10.285-18.973-1.6797 0-2.9883 0.60156-3.8281 1.7891-1.9062 2.6289-0.71875 6.4453 4.0664 20.531 13.031 38.184 33.121 74.578 52.5 95.352 13.992 15.035 25.824 19.691 36 14.195 0.12109-0.12109 0.35938-0.23828 0.60156-0.35938 0.48047 0.96094 1.0781 2.2695 1.4414 3.1094 1.4414 3.2266 4.5469 10.5 6.8164 15.996 3.1094 7.8711 13.391 30.312 13.754 31.273 3.5898 7.6328 6.3359 13.727 8.0156 17.305-3.2266-0.71875-8.2578-2.2695-13.871-4.7773-10.883-5.0156-27.504-18.023-39.227-31.152-24.875-27.684-56.449-78.168-78.445-125.79-10.766-23.148-12.793-24.938-16.02-24.227-2.0273 0.48047-2.9883 2.1484-2.9883 5.1367 0 9.7812 34.801 73.992 55.008 105.85 33.359 52.633 66.973 82.703 97.223 86.762l4.5469 0.60156 4.9062 11.219c11.242 25.297 25.598 50.004 56.93 97.98 6.6953 10.262 8.9648 14.438 9.5625 16.117-2.3867 1.0781-8.2578 2.6289-13.754 3.9375-0.12109 0.12109-2.7461 0.35938-12.07-4.2969-14.23-7.043-32.773-25.535-52.262-52.273-75.457-102.74-98.426-130.68-144.21-175.91-13.391-13.129-58.957-54.422-64.094-54.422-2.9883 0-4.0664 1.7891-4.4297 2.7461-1.0781 2.8672 0.71875 6.0859 13.152 15.996 15.312 12.168 48.551 42.961 67.211 62.293 27.383 28.645 68.52 79.957 110.02 137.35 39.348 54.422 59.195 73.273 81.91 77.688 7.4141 1.3086 16.262 0.12109 24.996-3.457 0.96094 0.96094 3.1094 3.9375 8.0156 12.527 2.3867 3.9375 4.1875 7.043 5.375 9.3125-6.3359-1.668-12.551 0.23828-22.957 7.043-7.5352 4.7773-10.285 5.8438-16.5 6.3242-11.965 0.83984-19.727-3.457-37.789-21.121-18.422-17.785-28.344-31.031-62.305-83.652-46.992-72.793-77.258-113.26-111.57-149.17-12.672-13.246-46.871-40.691-63.145-50.605-8.2578-4.8945-11.004-6.4453-13.512-5.0156-2.0273 1.1875-2.0273 3.5742-2.0273 4.2969 0 1.3086 0 3.5742 14.832 13.008 26.785 17.062 50.102 37.117 73.188 63.371 28.465 32.34 51.781 65.039 100.09 139.98 27.266 42.359 38.27 57.047 55.848 74.699 19.969 19.934 29.062 25.055 44.125 25.176 9.0859 0.12109 11.965-0.71875 23.797-7.1641 8.2578-4.2969 13.871-6.5625 18.059-5.2578 6.0977 1.9062 11.965 11.699 22.129 31.5 4.5469 9.0703 7.4141 21.121 6.457 26.855-0.60156 3.1094-2.0273 5.6055-4.4297 7.6328-3.1094 2.6289-3.8281 2.9883-9.8047 2.2695-8.4961-0.83984-24.996-7.4023-41.016-16.344-25.355-14.195-49.992-31.273-119.82-83.172-3.5898-2.6289-3.5898-2.6289-3.5898-9.1914-0.12109-22.559-17.941-65.879-41.496-100.71-25.957-38.902-69.961-81.742-111.82-109.19-19.367-12.648-45.203-29.004-48.191-30.191-0.83984-0.23828-2.9883-0.96094-4.668 0.48047-1.6797 1.5469-1.4414 3.6953-1.1992 4.7773 0.12109 0.35938 0.23828 1.1875 3.1094 3.5742-5.375-2.6289-7.6562-2.5078-9.5625-0.48047-0.83984 0.96094-1.1992 1.9062-1.0781 2.9883 0.23828 2.6289 1.1992 3.457 26.184 19.691 83.352 53.941 121.02 97.379 143.86 166.23l2.3867 6.9258c1.6797 5.1367 3.5898 10.738 4.4297 14.074-2.8672-1.9062-7.7773-5.6055-12.086-8.9531l-5.9766-4.6562c-38.387-29.004-63.742-48.926-96.984-76.141-26.902-21.961-90.527-73.152-100.57-73.152-0.35938 0-0.83984 0.12109-1.0781 0.23828-1.5586 0.60156-2.8672 1.7891-3.3477 3.1094-0.23828 0.83984-0.23828 1.668-0.12109 2.3867-0.35938 0.12109-0.71875 0.23828-1.0781 0.35938-1.9062 0.71875-2.6289 2.0273-2.9883 2.8672-0.35938 0.96094-0.48047 2.5078 0.60156 4.2969 4.4297 7.4023 118.63 101.44 150.67 124.82 6.2148 4.5352 9.5625 7.2852 11.363 8.832-2.1484 0.23828-5.2578 0.48047-8.9648 0.35938-9.2031 0-13.273-0.71875-21.887-4.1758-13.031-5.1367-33.359-17.664-58.598-36.156-28.586-20.879-86.941-60.863-93.156-60.863-2.3867 0-4.3086 2.2695-4.3086 5.2578 0 4.1758 8.4961 8.1133 8.7344 8.2305 3.5898 1.9062 12.086 7.1641 19.008 11.82 29.652 20.172 44.242 30.191 55.008 37.824-18.539-12.047-36.707-22.32-57.395-32.699-25.234-12.77-30.613-14.074-33.602-12.168-1.1992 0.71875-1.9062 1.9062-1.9062 3.457 0 2.0273 0 2.7461 25.715 15.758 31.812 15.875 65.652 36.035 86.461 51.551 9.4453 7.2852 32.051 25.414 49.273 39.863 18.422 15.395 36.238 29.953 40.297 33.059 11.242 8.3516 27.504 15.758 38.867 17.543 21.047 3.2266 35.762 1.3086 54.648-7.1641l9.8047-4.5352 8.4961 5.4844c17.699 11.461 29.652 25.777 29.773 35.566 0 2.1484-0.96094 4.0547-2.7461 5.6055-5.8555 5.1367-20.207 6.8047-38.508 4.4141-25.715-3.457-91.957-18.852-102.84-23.746-11.965-5.6055-28.465-16.465-41.137-27.086-34.441-29.004-44.605-36.277-63.973-45.348-14.953-7.1641-27.504-9.6719-60.984-11.82-26.664-1.5469-38.508-3.8164-51.18-9.5508-8.0156-3.5742-11.363-3.9375-13.152-1.4297-2.0273 2.7461 0.83984 5.8438 2.0273 7.1641 8.8438 9.6719 41.496 13.848 67.441 15.516 26.785 1.9062 38.988 4.4141 52.141 10.5 15.312 7.4023 27.984 15.996 48.434 33.059 17.219 14.438 26.785 21.961 35.52 27.445-2.9883-0.60156-6.2148-1.3086-9.9258-2.1484l-3.1094-0.60156c-33.961-7.4023-46.164-9.5508-93.637-16.344-28.344-4.1758-38.746-5.375-79.645-9.6719-26.426-2.7461-29.652-2.7461-31.691 0.23828-0.83984 1.3086-2.2695 3.6953-1.0781 5.9648 1.3203 2.3867 4.1875 2.7461 7.7773 2.7461l1.1992 0.12109c4.9062 0.12109 5.2578 0.23828 40.656 3.9375 50.578 5.3633 111.46 14.676 147.93 22.789 9.4453 2.0273 28.586 5.7227 41.734 8.1133 1.9062 0.35938 4.0664 0.71875 6.457 1.1875-46.992-6.5625-102.72-13.848-139.2-18.266-27.863-3.457-88.848-12.289-100.45-14.555-2.9883-0.60156-5.2578-1.0781-6.9375 0.60156-1.5586 1.5469-1.0781 3.5742-0.83984 4.6562 0.83984 4.4141 5.2578 5.4844 16.738 7.4023 24.277 4.2969 44.484 7.1641 86.578 12.168 89.93 10.859 204.61 26.734 232.12 31.859-7.6562 3.6953-21.527 9.1914-28.105 10.621-22.715 4.8945-81.434-2.9883-169.69-22.668-6.0977-1.3086-20.809-4.5352-25.715-5.0156-3.9492-0.60156-21.527-3.2266-38.746-5.9648-36.109-5.7227-53.566-7.1641-64.453-5.6055-6.0977 0.96094-10.043 1.9062-9.8047 5.375 0.23828 2.9883 1.4414 4.6562 26.184 5.6055 27.266 1.0781 80.363 9.4336 141.95 22.32 76.176 16.117 90.406 18.266 118.03 18.266 21.77 0 34.68-2.9883 53.34-12.406 13.031-6.4453 15.191-7.1641 19.488-6.3242 1.1992 0.12109 2.9883 0.35938 5.2578 0.71875l3.2266 0.48047c3.1094 0.48047 6.6953 0.96094 10.043 1.4297-5.1484 2.1484-11.484 5.7227-18.66 10.621-10.645 7.1641-16.262 10.02-22.367 11.34-11.484 2.5078-48.191 0.96094-81.91-3.5742-41.617-5.375-92.797-10.98-114.09-12.289-49.871-2.9883-107.75 5.6055-131.66 19.691-7.4141 4.4141-9.0859 6.5625-9.4453 8.7109-0.23828 1.3086 0.12109 2.6289 1.1992 3.6953l0.48047 0.35938c1.1992 0.83984 2.1484 1.4297 15.898-5.0156 7.6562-3.8164 17.941-7.2852 27.504-9.4336 50.102-11.34 85.859-10.738 191.81 2.9883 65.41 8.4727 89.449 9.5508 107.51 4.8945 3.8281-0.96094 12.191-5.7227 18.18-9.7812 18.66-12.77 21.289-13.848 35.879-14.438 16.02-0.96094 32.652 3.457 53.93 13.969 16.621 7.9922 23.676 14.555 23.676 21.961 0 3.6953-0.48047 4.6562-3.4688 7.2852-6.8164 5.6055-18.422 10.98-39.109 17.902l-18.422 6.2031-19.969-0.23828c-27.266-0.35938-42.215-3.5742-84.551-18.023-48.672-16.465-60.035-19.934-76.176-23.027-47.113-9.5508-121.26-13.246-152.47-7.5234-23.074 4.2969-71.27 18.613-78.086 24.938-0.96094 0.96094-3.8281 3.5742-2.0273 6.3242 1.5586 2.5078 4.5469 2.8672 16.738-2.0273 15.781-6.0859 55.246-17.062 68.16-18.852 41.734-5.7227 108.71-1.4297 155.94 10.02 9.0859 2.2695 27.145 7.6328 40.535 12.527 31.453 11.102 46.043 15.875 60.035 19.57 11.363 2.8672 30.492 6.2031 41.137 7.1641-14.711 4.8945-47.473 13.246-83.832 20.531-29.652 6.2031-51.781 10.141-53.34 10.141-10.523-0.12109-24.996-5.0156-48.551-16.344-34.559-16.586-42.695-18.613-79.402-19.691-22.477-0.60156-30.371-0.23828-38.867 1.5469-34.559 7.7539-50.578 10.98-61.223 12.648-11.484 1.7891-15.07 3.1094-16.02 6.0859-0.48047 1.1875-0.48047 2.9883 1.4414 4.8945 1.9062 1.9062 4.3086 2.3867 41.375-5.375l36.469-7.5234h31.453c38.629 0 46.754 1.7891 78.926 16.945 15.312 7.1641 25.234 11.578 31.934 13.848-4.5469 1.3086-9.8047 2.9883-13.031 3.9375l-20.09 5.8438-10.285-10.379c-21.168-21.48-41.734-27.926-83.594-26.375-19.848 0.83984-86.699 8.4727-91.367 13.246-1.0781 1.668-0.71875 3.8164 1.0781 5.9648 3.3477 3.2266 36.949-2.2695 38.746-2.9883 3.8281-1.5469 43.523-5.1367 61.105-5.375 30.73 0 49.031 6.2031 65.293 22.199 2.8672 2.8672 5.2578 5.3633 6.8164 7.1641-6.8164 2.7461-24.996 9.4336-49.992 18.145-44.965 15.395-65.172 21.719-102.84 32.578-2.7461 0.83984-4.7891 3.3359-4.7891 5.9648 0 1.9062 0.83984 2.9883 1.5586 3.5742 1.6797 1.4297 4.0664 1.1875 5.9766 0.71875 10.766-1.7891 65.891-18.973 120.42-37.598 32.531-10.98 69.719-22.906 81.191-26.137 9.8047-2.6289 38.387-9.1914 63.742-14.797-40.777 13.367-94.945 30.672-109.3 34.727-1.5586 0.35938-156.3 44.867-156.3 54.422 0 1.7891 0.71875 3.1094 1.9062 3.9375 2.6289 1.9062 6.6953 0.96094 20.566-4.2969 8.7344-3.3359 34.32-12.168 55.969-19.332l0.60156-0.23828c17.102-5.7227 32.051-10.738 36.227-11.219-0.71875 1.668-2.3867 4.6562-3.4688 6.5625-11.242 20.641-45.805 44.746-80.605 56.09-13.633 4.4141-16.141 5.8438-16.262 8.9531 0 1.1875 0.48047 2.8672 3.1094 3.9375 4.5469 1.9062 34.32-9.5508 42.336-13.609 36.469-18.266 60.984-40.812 65.531-60.383l1.5586-5.9648 8.6055-2.5078c5.1484-1.5469 12.312-3.5742 14.953-4.5352 0.48047-0.12109 0.83984-0.23828 1.3203-0.23828-1.5586 3.8164-5.2578 11.34-11.004 20.293-13.633 20.641-38.027 39.984-70.32 55.609-18.059 8.832-40.535 16.465-44.484 16.465-4.1875 0-6.0977 2.7461-6.0977 5.3633 0 1.5469 0.71875 2.8672 2.1484 3.6953 8.0156 5.1367 45.203-12.289 52.5-15.758 44.965-21.719 75.336-49.883 85.5-79.477l3.2266-9.3125 15.312-4.4141c9.4453-2.7461 43.043-13.367 73.906-23.27 25.715-8.3516 53.809-17.426 69.359-22.559l8.0156-2.5078c19.129-6.0859 60.395-16.824 74.027-19.57-1.5586 2.9883-4.1875 7.4023-7.5352 12.047-5.0273 6.8047-16.141 15.996-27.266 22.32-7.6562 4.2969-27.984 10.98-51.539 16.703-44.484 11.219-87.18 29.473-111.34 47.496-14.594 10.859-55.848 46.895-73.668 64.199-23.914 23.27-48.672 39.863-71.387 48.098-15.07 5.2578-15.781 7.7539-16.02 8.4727-0.48047 1.4297-0.12109 2.9883 0.96094 3.9375 1.5586 1.5469 3.1094 2.9883 23.316-4.6562 21.887-8.4727 47.953-26.258 73.188-50.004 16.98-16.344 44.242-40.332 62.062-54.66 27.863-22.906 65.051-39.504 117.07-52.512 12.191-2.9883 26.902-7.1641 32.41-8.832 29.41-9.8984 50.461-26.977 60.742-49.523l3.4688-7.4023 11.125-2.6289c15.434-3.457 34.801-4.8945 41.617-2.9883 2.7461 0.83984 6.457 2.8672 8.0156 4.4141 2.5078 2.5078 2.5078 2.5078-0.60156 14.074-2.1484 8.4727-26.426 43.32-37.547 53.941-12.434 12.047-29.184 23.387-39.109 26.258-10.523 3.2148-30.012 3.1094-44.484-0.35938-41.375-9.6719-69.121 3.5742-141.59 67.188-54.648 47.977-66.613 58.477-80.844 70.055-15.434 12.406-34.801 25.895-48.07 33.527-6.5742 3.6953-9.3242 5.8438-9.6836 8.7109-0.23828 1.5469 0.35938 2.9883 1.668 4.4141 8.4961 8.4727 80.125-52.273 80.844-52.871 10.043-8.5938 31.57-27.562 48.07-42.238 59.555-52.98 86.699-72.086 111.7-78.648 11.363-2.8672 20.09-2.6289 37.547 0.96094 11.844 2.3867 18.898 2.9883 29.062 2.3867 13.512-0.83984 22.598-3.1094 32.172-8.4727-6.8164 9.1914-11.242 13.727-16.262 16.586-9.8047 5.7227-23.195 9.6719-32.879 9.6719-7.0547 0-8.2578-0.48047-18.66-7.4023-14.832-9.7812-21.527-12.168-30.73-10.98-13.273 1.668-21.406 7.4023-57.758 40.453-11.723 10.5-31.691 29.23-45.324 42.359-49.152 47.258-97.344 89.629-114.56 100.48-3.3477 2.1484-7.2969 5.2578-7.6562 8.1133-0.12109 2.9883 1.3203 4.4141 2.3867 5.0156 2.9883 1.5469 6.9375-0.23828 15.898-6.8047 24.156-17.785 50.102-40.691 102.84-90.938 16.738-15.875 35.641-33.527 43.176-40.332 4.5469-4.2969 10.766-9.8984 16.5-15.035l3.1094-2.8672c2.3867-2.1484 4.7891-4.1758 6.5742-5.9648 13.512-12.406 26.426-21.359 33.719-23.387 7.7773-2.1484 11.844-0.35938 33.359 14.676 6.2148 4.2969 8.0156 4.6562 18.898 3.9375 8.2578-0.48047 14.473-1.9062 24.516-5.9648-11.004 17.426-39.707 59.902-55.129 81.145l-15.434 21.238-4.7891-0.83984c-13.391-2.3867-28.703-1.1875-41.016 3.3359-25.945 9.3125-60.277 32.461-94.477 63.73-10.285 9.4336-43.402 44.629-43.402 50.125 0 2.3867 1.6797 4.4141 4.1875 4.7773 2.3867 0.23828 5.375-0.96094 6.3359-3.8164 1.1992-2.9883 24.395-29.004 37.066-40.57 49.391-44.629 89.688-68.137 116.59-68.137 4.9062 0 9.9258 0.48047 11.965 0.96094-1.0781 1.7891-3.5898 5.1367-5.375 7.7539l-6.9375 9.4336-10.043 0.35938c-24.395 0.96094-55.488 16.465-92.316 46.188-12.793 10.262-49.754 46.309-49.754 52.391 0 2.9883 0.96094 4.7773 2.7461 5.375 2.9883 1.0664 5.6172-1.5469 9.8047-6.9258 14.473-18.023 44.242-44.988 66.371-60.145 14.352-9.6719 34.68-20.293 45.562-23.508 8.0156-2.2695 16.02-3.3359 19.848-3.3359-2.8672 4.5352-12.086 16.945-26.902 37.117-0.60156 0.83984-64.934 87.707-64.934 92.125 0 2.1484 1.4414 3.8164 3.5898 4.2969 2.9883 0.60156 7.5352-0.83984 9.2031-4.1758 1.7891-2.9883 57.637-73.273 99.492-124.95 9.2031-11.219 19.367-23.867 23.676-28.043 1.4414 8.7109 1.8008 36.035-0.48047 48.098-2.3867 13.129-9.2031 36.035-15.539 52.273-8.6172 21.602-32.051 62.773-46.523 81.504-4.1875 5.4844-5.375 8.832-4.1875 11.219 0.60156 1.3086 2.0273 2.1484 3.5898 2.1484 3.707 0 6.0977-2.9883 20.09-24.109 5.9766-8.9531 11.363-17.785 16.379-26.496-5.2578 11.102-8.7344 19.691-12.086 29.473-8.7227 26.137-6.6953 29.832-3.8281 31.5 1.3203 0.83984 2.8672 0.83984 4.3086 0 2.7461-1.5469 4.7891-6.3242 4.7891-11.219 0-5.2578 9.4453-32.82 16.98-47.855 3.4688-6.5625 13.992-26.375 23.316-43.199 29.773-53.578 35.641-69.816 36.59-102.74 0.60156-15.758 0.23828-23.27-1.8008-32.102l-0.12109-0.48047c-4.0664-17.664-4.0664-17.664 1.3203-25.055 8.6055-11.34 42.457-60.625 52.5-76.379 18.059-27.926 41.496-59.785 49.031-66.949 7.2969-6.9258 7.8945-6.8047 11.363-6.4453 4.7891 0.35938 6.2148 1.4297 8.1367 24.828 3.4688 41.051-4.1875 78.289-19.848 97.141-7.4141 8.832-35.641 35.566-45.203 42.602-10.043 7.2852-22.715 22.789-27.625 33.887-3.4688 7.9922-9.6836 32.34-12.551 49.164-4.7891 27.805-16.738 189.5-5.6172 193.44l1.6797 0.23828 1.1992-0.83984c1.9062-1.3086 2.6289-1.9062 2.6289-32.941 0-47.977 6.457-138.31 11.844-166.71 6.8164-35.449 16.621-53.941 36.121-68.258 11.363-8.4727 44.363-41.891 50.34-51.07 4.7891-7.4023 8.1367-14.797 10.883-23.867-0.35938 6.6836-1.3203 11.82-3.2266 19.332-4.0664 15.156-14.953 38.305-23.195 49.645-3.3477 4.5352-11.125 15.156-17.699 23.867-13.871 18.852-23.316 35.328-30.73 53.699-10.164 25.297-12.086 35.328-21.047 108.12l-2.0273 15.637c-8.8438 72.086-8.8438 72.086-6.3359 74.113 1.4414 1.3086 3.2266 0.71875 4.0664 0.48047 4.4297-0.96094 5.1484-5.375 5.9766-12.527 0.60156-5.7227 2.0273-17.902 3.3477-27.684l0.60156-5.6055c1.3203-11.102 3.3477-27.926 4.668-41.051 9.3242-89.27 20.566-123.16 54.527-165.05 15.312-18.852 27.504-39.742 33.48-56.688l0.12109 2.1484c1.1992 21.121 0 112.54-1.668 123.76-0.60156 4.7773-0.60156 4.7773-5.6172 6.9258-13.754 6.5625-28.105 22.32-37.43 41.41-6.9375 13.969-16.379 44.039-20.207 64.441-3.5898 19.691-6.9375 58.234-5.375 68.027 0.60156 3.3359 1.5586 9.5508 6.2148 9.5508 1.3203 0 2.5078-0.48047 3.3477-1.3086 1.668-1.9062 1.5586-4.5352 0.96094-11.82-1.7891-17.785 4.5469-66.109 11.723-90.574 10.402-36.156 24.156-57.875 43.285-68.617 0.23828-0.12109 0.60156-0.35938 0.96094-0.60156-0.35937 2.5078-0.96094 6.2031-1.6797 10.141l-0.23828 1.4297c-4.668 27.086-7.1758 69.098-5.9766 104.54 1.6797 57.516 2.9883 60.742 6.8164 62.172 0.36719 0.17578 0.84766 0.29688 1.3281 0.29688 0.71875 0 1.4414-0.23828 2.0273-0.71875 0.60156-0.48047 1.0781-0.96094 1.4414-1.7891 0.60156 0.48047 1.3203 0.71875 2.1484 0.96094 0.60156 0.12109 2.2695 0.35938 3.707-0.83984 2.2695-2.0273 2.1484-4.7773 1.5586-26.258-1.0781-24.707 1.1992-59.316 6.0977-95.352 1.1992-8.832 2.9883-22.906 4.1875-31.379 1.0781-7.9922 2.2695-18.371 2.2695-22.789v-1.668c2.3867 2.7461 5.8555 7.5234 8.2578 12.887 9.3242 20.293 7.1758 47.016-9.0859 114.68-10.883 45.707-8.1367 48.215-6.2148 49.883 0.96094 0.96094 2.3867 1.1875 3.8281 0.71875 2.2695-0.83984 3.9492-2.9883 4.1875-5.2578 1.3203-10.379 6.3359-35.207 11.484-56.328 9.8047-40.094 13.633-70.523 10.883-88.066-2.2695-14.195-9.8047-29.953-17.34-36.637l-4.668-3.9375 0.96094-26.375c0.48047-10.379 0.96094-18.492 1.3203-23.148 3.2266 2.9883 8.1367 8.5938 10.766 13.727 11.484 21.359 16.859 51.672 15.66 87.707-0.96094 30.91-2.8672 41.172-17.219 91.535-12.793 44.867-11.844 45.348-8.9648 47.137 0.71875 0.35938 2.6289 1.0664 4.668-0.96094 3.2266-2.9883 24.758-81.266 25.715-85.922 4.5469-21.48 6.6953-40.934 6.6953-61.105 0-50.004-11.844-85.922-34.199-103.59l-3.5898-2.8672-1.5586-37.234c-0.83984-19.934-2.3867-46.895-3.8281-57.758-1.3203-11.82-3.1094-27.926-4.3086-37.945-4.7891-40.453-0.71875-54.66 2.5078-56.688 0-0.12109 3.9492-2.0273 25.477 24.109 27.984 33.77 46.523 79.234 52.379 128.05 2.3867 19.211 2.9883 54.18 2.1484 113.26-0.48047 27.684 0 38.184 1.9062 50.832 5.4961 33.422 14.953 63.371 28.945 91.414 9.4453 18.266 10.285 18.73 11.242 19.094 2.0273 1.3086 5.0273 0.48047 6.5742-1.668 2.7461-3.3359 0.35938-7.8711-3.3477-14.074-14.832-24.227-27.863-62.891-33.121-98.566-1.9062-14.074-2.1484-21.961-1.0781-56.328 2.6289-79.836-0.48047-122.32-13.512-160.51 6.8164 15.395 13.273 32.699 16.141 44.867 4.0664 17.426 7.4141 47.734 8.7227 79.234 2.6289 65.879 15.07 109.55 42.574 150.96 0.23828 0.35938 24.875 36.996 30.73 36.996 2.9883 0 4.0664-1.5469 4.5469-2.3867 1.4414-3.1094-0.96094-6.8047-6.2148-13.008-14.473-17.062-33.359-49.402-43.043-73.512-11.605-29.23-15.539-51.551-17.461-99.289-2.2695-59.316-7.5352-86.879-24.637-125.18 4.1875 4.0547 10.523 10.262 19.609 19.57 35.641 36.035 38.508 40.211 39.469 56.207 0.60156 9.1914 0.60156 9.5508-11.484 41.891-10.043 26.977-2.9883 55.488 23.555 95.473 12.191 18.145 27.504 34.488 49.754 53.102 9.5625 7.8711 19.129 16.223 21.047 18.145 3.1094 3.1094 6.457 4.1758 8.8438 2.8672 0.71875-0.48047 2.9883-2.0273 2.0273-6.0859-0.60156-1.7891-7.8945-8.7109-21.887-20.641-11.363-9.7812-25.234-22.668-30.973-28.766-19.129-20.641-37.789-52.633-43.285-74.23-4.668-18.023-3.707-25.535 5.4961-47.496 7.8945-18.492 9.9258-28.766 7.6562-39.625 15.898 15.035 27.984 26.617 32.531 31.738-11.723 1.5469-22.598 12.887-27.383 28.645-2.7461 9.1914-2.8672 14.438-0.60156 26.496 2.6289 15.516 21.168 49.766 38.148 70.523 5.9766 7.1641 45.562 49.164 51.059 49.164 2.1484 0 3.8281-0.71875 4.668-1.9062 0.83984-1.0781 0.96094-2.2695 0.48047-3.6953-0.96094-2.2695-23.676-25.055-23.914-25.297-17.941-18.266-24.996-26.617-34.441-40.812-19.609-29.594-25.836-44.27-25.836-60.266 0-18.973 10.402-32.699 24.875-32.699h5.2578l37.789 37.945c19.727 20.051 45.562 47.137 54.648 57.875 19.02 22.441 22.129 25.535 25.715 25.777 1.1992-0.12109 2.3867-0.48047 3.1094-1.4297 4.1875-3.9375 1.7891-6.9258-25.234-36.758-2.6289-2.8672-5.375-5.9648-8.0156-8.832 0.60156 0.48047 1.1992 0.96094 1.6797 1.3086 15.898 13.008 32.531 26.617 35.281 28.883 1.5586 1.3086 6.6953 5.375 10.285 3.8164 1.6797-0.60156 2.9883-1.7891 3.4688-3.1094 0.48047-1.0664 0.48047-2.1484 0.12109-2.8672-0.48047-1.1875-1.1992-3.1094-38.629-32.941-36.238-28.645-60.504-49.645-81.312-70.285-10.164-10.262-19.727-20.531-22.836-24.109l2.6289 0.23828c16.02 1.7891 27.266 5.2578 46.512 14.676 11.723 5.7227 23.797 13.008 33.84 20.531 17.699 13.367 53.102 45.707 67.559 61.691 10.285 11.461 13.391 12.887 16.262 11.82 1.0781-0.35938 2.7461-1.5469 2.7461-4.6562 0-5.4844-67.68-68.734-71.988-72.086-32.172-25.656-67.094-41.172-98.184-43.801l-10.766-0.96094-18.539-21c-10.402-11.82-32.293-35.449-48.672-52.512-5.375-5.6055-10.645-11.219-15.434-16.117l-5.6172-5.9648c-3.3477-3.5742-6.3359-6.5625-8.4961-8.832 4.4297 1.3086 9.9258 2.7461 14.113 3.5742 31.57 6.4453 43.164 9.7812 73.309 21.238 66.012 25.055 121.74 63.133 175.55 119.7 38.27 39.973 42.695 43.801 46.992 42.961 1.5586-0.35938 2.6289-1.4297 3.2266-2.9883 3.1094-7.4023-95.305-98.102-96.266-98.93-22.246-17.543-56.566-39.863-78.086-50.723-33.961-17.305-77.605-32.941-111.21-39.863-22.715-4.6562-33.84-8.2305-42.215-13.609-10.645-6.6836-62.664-62.172-67.801-72.324-3.9492-7.7539-5.375-13.129-4.3086-16.344 0.71875-1.7891 2.1484-3.2266 4.668-4.2969 11.242-5.0156 25.715 0.23828 77.723 28.285 22.957 12.406 59.914 36.875 80.605 53.699 60.277 48.336 78.086 60.625 111.57 77.328 22.246 10.859 37.43 16.344 67.68 23.988 36.227 9.0703 82.871 22.668 95.902 27.926 10.164 4.2969 14.711 5.4844 16.5 2.1484 1.4414-2.1484 0.71875-5.1367-1.7891-7.4023-4.5469-3.3359-26.902-10.98-57.035-19.332-11.844-3.3359-27.023-7.6328-38.387-10.859l-9.9258-2.7461c-10.766-3.1094-25.957-7.4023-33.602-9.4336-13.633-3.6953-42.098-16.586-58.355-26.496-15.07-8.832-37.906-25.777-74.375-54.898-41.258-32.941-66.613-49.523-108.47-71.004-6.0977-3.2148-11.605-6.0859-16.02-8.4727 12.551 2.1484 29.305 5.7227 33.961 7.7539 17.34 7.1641 46.871 28.883 73.668 53.82 34.32 32.102 54.289 46.066 85.141 59.902 16.379 7.2852 69.121 25.535 104.52 36.277 33 10.02 96.145 34.969 99.613 38.062 2.5078 2.3867 4.5469 2.2695 5.8555 1.668 1.0781-0.48047 2.7461-1.668 2.7461-5.2578 0-4.7773-3.5898-6.6836-38.27-21.121-10.402-4.5352-56.566-20.879-68.281-24.59-32.531-10.262-82.152-27.086-94.836-32.34-30.613-12.887-52.98-27.805-82.512-55.367-22.598-21-40.176-35.328-57.395-46.656 4.3086 0.71875 9.5625 1.7891 15.312 2.8672 54.047 10.98 96.504 28.043 151.75 61.105 45.562 27.324 68.641 37.117 124.13 52.754 67.094 18.852 67.094 18.852 70.199 15.875 1.0781-1.1875 1.8008-2.6289 1.8008-3.9375 0-0.96094-0.48047-1.9062-1.0781-2.6289-0.96094-0.83984-2.2695-2.1484-47.113-13.488-54.648-13.609-95.664-29.711-132.98-52.152-16.02-9.5508-28.945-16.945-40.535-23.27 30.254 15.277 30.254 15.277 67.211 26.617l5.375 1.668c44.004 13.367 59.676 17.543 105.35 27.562 42.695 9.3125 47.352 9.6719 50.34 7.2852 0.96094-0.83984 1.5586-2.0273 1.5586-3.3359 0-3.8164-4.3086-5.2578-17.102-7.5234-63.625-11.102-154.38-37.477-197.55-56.93 1.3203 0.23828 2.6289 0.48047 4.0664 0.71875l1.0781 0.23828c40.535 7.2852 89.809 13.848 131.66 17.543 28.465 2.5078 33.121 3.1094 63.023 7.9922 18.539 3.1094 22.367 3.1094 23.914 0.12109 0.83984-1.668 0.35938-3.457-1.5586-5.375-0.83984-0.83984-2.8672-1.668-5.8555-2.6289 3.8281 0.35938 6.457 0.60156 7.2969 0.60156 3.3477 0 3.3477-4.2969 3.3477-5.7227 0-5.4844-4.5469-5.7227-18.422-6.6836-26.305-1.668-59.555-6.3242-101.53-14.074-45.805-8.4727-69.359-12.887-76.297-14.914 1.8008-1.7891 5.8555-4.8945 12.086-7.7539 11.363-5.0156 27.742-8.832 50.102-11.34 32.172-3.5742 120.54-2.6289 137.04 1.5469 1.9062 0.48047 3.9492 0.71875 5.4961-0.48047 1.7891-1.4297 1.7891-3.5742 1.7891-4.2969 0-6.8047-2.3867-6.9258-64.691-9.4336-83.953-3.457-139.2 6.5625-151.51 27.203-0.96094 1.5469-1.7891 2.5078-2.2695 2.9883-3.707-0.71875-14.594-2.2695-15.898-2.5078h-0.60156c-3.8281-0.60156-7.1758-0.96094-9.3242-1.4297 2.9883-5.4844 2.1484-13.129-2.8672-24.348-5.375-12.527-4.1875-14.914-1.9062-17.305 7.6562-7.6328 25.715-12.047 62.305-15.156 24.395-2.0273 129.74-2.6289 163.36-0.83984l25.715 1.3086 0.96094-8.7109c0.34766-5.1562-0.49219-6.9414-1.4531-7.9023zm-269.89-105.49c5.7344-23.27 30.133-52.754 65.172-78.875 26.902-20.051 53.93-35.449 87.66-49.402-8.7227 4.1758-16.141 7.9922-20.809 10.621-42.215 23.867-70.668 56.207-76.297 86.281l-1.4414 8.2305-29.184 14.797c-12.91 6.4453-21.648 10.621-26.184 12.77 0.23828-1.3164 0.60156-2.8633 1.082-4.4219zm67.316-16.703c-0.96094 0.60156-2.0273 1.1875-3.1094 1.7891-23.797 13.848-70.078 37.836-93.395 48.684-0.60156 0.23828-1.0781 0.48047-1.6797 0.71875 22.129-13.25 63.023-34.73 98.184-51.191zm-612.86-146.91c-9.9258-12.289-20.207-23.27-32.531-34.367 5.8555 5.1367 11.363 10.379 17.102 16.117 38.988 39.023 65.051 78.289 79.523 119.93 4.1875 12.047 6.457 23.746 6.6953 28.766-3.8281-2.1484-10.523-6.9258-11.605-8.832-0.48047-0.83984-2.8672-7.6328-9.6836-28.402-13.391-40.34-25.824-63.859-49.5-93.211zm-85.859 27.324-13.031-10.738c-8.0156-6.6836-15.539-12.77-19.609-16.117-5.6172-4.5352-17.461-14.797-27.504-23.629 13.152 9.4336 32.051 23.746 43.883 33.18 13.992 11.34 42.215 33.887 51.898 41.531 16.02 12.887 48.191 37.715 71.746 55.367 1.6797 1.3086 3.4688 2.6289 5.1484 3.9375-6.2148-3.9375-12.086-7.7539-16.379-10.5-31.699-21.238-55.977-39.73-96.152-73.031zm150.79 132.23c-10.164 3.3359-12.91 3.6953-26.664 3.1094-25.117-1.1875-30.133-3.9375-75.938-41.891-18.301-15.277-34.32-27.926-49.152-39.023 10.766 7.043 20.207 12.77 26.664 15.996 19.969 10.02 39.109 12.168 51.18 5.9648l2.9883-1.5469 13.391 8.832c8.8438 5.7227 29.062 18.266 44.242 27.203l4.4297 2.6289c8.9648 5.375 18.059 10.738 22.477 13.488-2.375 1.3047-6.6836 3.2109-13.617 5.2383zm38.988 508.02c-2.2695 4.1758-4.4297 7.9922-6.3359 11.578 10.164-22.078 16.98-42.84 20.09-61.934 2.9883-17.664 3.2266-45.828 0.60156-57.047l-1.5586-6.6836 10.402-13.367c4.1875-5.2578 7.2969-9.0703 9.3242-11.461 0.48047 1.3086 1.0781 3.2266 1.6797 5.7227 1.9062 7.2852 2.6289 15.156 2.6289 28.766-0.125 30.914-6.9414 50.484-36.832 104.43zm82.871-231.04c-34.922 52.031-52.379 76.969-81.551 114.09 1.6797-2.1484 3.2266-4.2969 4.5469-6.0859 8.6055-11.34 27.625-38.664 41.855-59.902 30.012-44.387 41.977-61.344 52.02-73.152-5.2773 7.8711-11.137 16.465-16.871 25.055zm98.891 211.59-0.83984 7.5234c-1.668 13.008-4.0664 32.461-6.0977 47.855-0.35938 2.7461-0.71875 5.4844-0.96094 8.1133 1.1992-23.746 3.9492-50.723 8.6055-88.309 0.60156-5.0156 1.1992-9.3125 1.5586-13.609-0.47656 16.586-1.1836 30.312-2.2656 38.426zm35.281-381.64c-6.0977 0-12.793-2.7461-15.312-6.2031-1.9062-2.7461-2.5078-12.406-0.71875-18.492 0.83984-2.3867 2.1484-7.1641 2.9883-10.379 1.1992-4.2969 1.3203-4.5352 6.6953-6.5625 8.8438-3.3359 23.797-12.168 37.188-22.078 16.738-12.527 35.281-32.34 66.133-71.004 22.246-27.684 36.121-43.441 55.008-62.293 27.625-27.445 35.398-33.301 91.246-69.457 4.9062-3.1094 9.3242-6.2031 13.633-9.1914-17.219 16.117-33.48 30.672-44.484 39.266-54.047 42.133-65.531 52.391-81.191 73.512-9.3242 12.406-18.18 31.379-20.207 43.078-1.5586 9.1914-1.3203 11.699 3.1094 30.191 5.375 21.238 5.2578 25.535-1.0781 38.305-9.0859 18.023-25.355 28.402-64.332 41.051-18.422 5.9609-38.871 10.258-48.676 10.258zm346.67 104.29c5.0273 0.96094 10.164 1.9062 15.191 2.7461-47.594-5.0156-91.957-12.289-136.8-22.199 57.879 7.8828 72.219 10.273 121.61 19.453zm-90.875-89.016c-9.8047 2.9883-20.09 9.6719-23.074 14.797-3.2266 6.0859-2.5078 12.527 2.9883 25.176 5.375 12.887 3.8281 14.797 0.96094 16.824-3.2266 2.3867-11.844 1.668-48.191-3.8164l-0.35938-0.12109c-2.5078-0.35938-5.375-0.71875-8.1367-1.1875 7.5352-3.1094 14.473-7.5234 17.578-11.578 2.3867-2.9883 5.9766-9.3125 8.375-14.074 6.3359-13.008 15.07-21.719 28.223-28.043 30.973-15.035 69.48-17.184 158.09-8.832 5.7344 0.60156 11.723 1.0664 17.699 1.668-78.938-0.60547-132.16 2.6211-154.15 9.1875z"/>
</svg>
