<?xml version="1.0" encoding="UTF-8"?>
<svg width="1200pt" height="1200pt" version="1.1" viewBox="0 0 1200 1200" xmlns="http://www.w3.org/2000/svg">
 <defs>
  <clipPath id="b">
   <path d="m498 614h479.86v340h-479.86z"/>
  </clipPath>
  <clipPath id="a">
   <path d="m222.14 422h312.86v507h-312.86z"/>
  </clipPath>
 </defs>
 <g clip-path="url(#b)">
  <path d="m817.23 615.02c-1.5859 0.17969-3.0352 1-4.0078 2.2656-2.9766 3.9141-6.2578 7.7617-9.6758 11.594-0.88281 0.99219-1.7383 1.9961-2.6133 2.9648-4.25 4.6797-8.5273 9.332-12.812 14.211l-0.003906-0.003907-0.089844 0.089844c-0.17969 0.22266-0.46484 0.57422-0.87109 1.043-1.125 1.2891-2.2656 2.5781-3.3125 3.832-0.86719 1.0391-1.7148 2.1172-2.5273 3.1367-0.8125 1.0234-1.6211 2.0586-2.4414 3.1367-1.1094 1.4688-2.1367 2.9141-3.1367 4.3594-0.48438 0.69531-1.0938 1.5391-1.7422 2.5273-1.5547 2.3555-3.1133 4.8359-4.5312 7.4102-10.012 18.16-12.523 38.453-17 56.402-4.4766 17.945-10.395 33.078-26.152 43.5-3.7109 2.4531-7.3672 3.957-11.156 4.793-2.5312 0.55859-5.082 0.8125-7.7578 0.87109-14.734 0.3125-32.023-6.8281-50.734-4.3594-9.1055 1.2031-16.91 5.418-23.973 9.0664-7.0625 3.6523-13.352 6.6016-18.656 6.9727-21.402 1.5078-34.805-3.1719-43.41-11.246-8.6055-8.0703-12.996-20.203-14.035-35.305-2.0078-29.203 9.5039-67.824 21.531-99.027l-0.007812 0.003906c1.3711-1.0586 2.2109-2.6602 2.293-4.3867 0.085938-1.7305-0.59375-3.4062-1.8555-4.5938 0.039062 0.039062-0.023438-0.042969-0.17578-0.17969-0.042968-0.039062-0.15234-0.089844-0.26172-0.17969-0.058594-0.042969-0.035157-0.042969-0.089844-0.089844-0.042969-0.03125-0.042969-0.042969-0.089844-0.089844-0.097656-0.089843-0.097656-0.13281-0.17578-0.17969-0.082031-0.042969-0.20703-0.042969-0.26172-0.089844l0.003906 0.007812c-0.03125-0.03125-0.058594-0.0625-0.089844-0.089843-0.042968-0.03125-0.15625-0.17969-0.17578-0.17969h-0.089843v-0.089843h0.003906c-0.03125-0.027344-0.0625-0.058594-0.089844-0.089844 0.066406 0.042968-0.30469-0.22266-1.0469-0.96094v0.003906c-0.058594-0.0625-0.11719-0.12109-0.17578-0.17969 0.097656 0.089844-0.13672-0.13281-0.26172-0.26953l-0.17578-0.17969c-0.5-0.52344-1.0156-1.0664-1.4805-1.6562-0.17578-0.22266-0.27344-0.48047-0.17578-0.35547v0.003906c-0.027344-0.03125-0.058594-0.0625-0.085938-0.089844-0.51953-0.69141-0.97656-1.3828-1.3945-2.0938-0.058594-0.089844-0.11719-0.17969-0.17578-0.26953 0.16016 0.22266 0.11328 0.17969-0.17578-0.26953-0.375-0.67578-0.75781-1.4297-1.0469-2.0938l0.003906 0.003906c-0.054688-0.12109-0.11328-0.24219-0.17578-0.35938-0.015624-0.027344-0.042968-0.089844-0.089843-0.17969-0.074219-0.13281-0.16406-0.26953-0.17578-0.26953l0.003906 0.003906c-0.054688-0.12109-0.11328-0.23828-0.17578-0.35547-0.054687-0.089844-0.11328-0.17969-0.17578-0.26953-1.1953-1.5508-3.0859-2.4062-5.043-2.2852-1.957 0.12109-3.7227 1.207-4.7188 2.8984-4.2188 7.0703-8.1445 15.051-11.941 23.535-0.03125 0.089844-0.0625 0.17969-0.089844 0.26953-5.2305 11.707-10.223 24.371-15.344 36.699-1.1758 2.8359-2.375 5.6445-3.5742 8.457-0.28906 0.68359-0.55078 1.2773-0.78516 1.8281-0.035157 0.089844-0.13672 0.17969-0.17578 0.26953l0.003906-0.003906v0.17969c-0.03125 0.03125-0.058593 0.058594-0.089843 0.089844-0.66797 1.5547-1.3672 3.0703-2.0938 4.707-1.6914 3.8242-3.3945 7.5508-5.1445 11.156-0.48828 1.0039-0.99219 1.9805-1.3945 2.7891-0.86328 1.7344-1.7344 3.418-2.7031 5.2305-0.58203 1.0938-1.0703 2.1289-1.4805 2.875-0.17187 0.30859-0.32031 0.62891-0.4375 0.96094-10.934 33.262-17.824 68.273-16.648 99.637s10.609 59.594 32.953 77.32c22.594 17.93 44.102 20.801 64.422 20.922 20.316 0.13281 39.555-2.0156 61.02 4.9688 16.414 5.3438 30.773 14.75 47.246 21.27 16.473 6.5195 35.348 9.6445 58.492 1.4805 18.766-6.6172 31.023-19.289 41.844-32.254 10.816-12.965 20.461-26.242 34.172-35.914 18.148-12.801 43.48-20.098 67.645-30.074 24.164-9.9766 47.652-23.184 59.887-49.078 11.859-25.09 14.238-48.234 9.4141-68.867-4.8242-20.633-16.699-38.551-32.602-53.785-31.312-30-78.266-49.871-121.43-62.414v0.003906c-0.55078-0.42578-1.168-0.75-1.832-0.96094h-0.089844c-0.76172-0.21484-1.5625-0.27734-2.3516-0.17969zm2.3516 13.164c41.629 12.273 86.551 31.523 115.16 58.93 14.703 14.086 25.105 30.039 29.289 47.945 4.1875 17.906 2.3086 37.961-8.6289 61.109-10.418 22.043-30.426 33.629-53.699 43.238-23.27 9.6094-49.34 16.781-69.914 31.293-15.691 11.066-25.98 25.477-36.438 38.008-10.461 12.531-20.875 23.098-36.699 28.68-20.477 7.2227-35.258 4.6094-50.211-1.3086s-29.656-15.578-47.945-21.531c-24.094-7.8438-45.23-5.4648-64.594-5.5781-19.363-0.13281-36.879-2.1914-57.184-18.305-18.832-14.941-27.41-39.223-28.504-68.52-1.0938-29.242 5.4531-63.02 16.039-95.281 0.41016-0.78516 0.80859-1.5742 1.1328-2.1797 0.93359-1.75 1.9727-3.5938 2.9648-5.5781 0.51563-1.0312 0.97266-2.0078 1.3945-2.8789 1.8164-3.7461 3.5781-7.5742 5.3164-11.508 0.59375-1.3359 1.1211-2.7578 1.7422-4.1875 0.007812-0.011719 0.16797-0.17969 0.26172-0.35547 0.039063-0.089843 0.050782-0.17969 0.089844-0.26953v-0.089844c0.011719-0.027344 0.085938-0.089844 0.089844-0.089844 0.03125-0.027343 0.0625-0.058593 0.089844-0.085937 0.34766-0.80859 0.59766-1.5391 0.87109-2.1797 1.2109-2.8281 2.4609-5.6562 3.6602-8.543 5.0625-12.191 9.9219-24.527 14.906-35.742 0.011718-0.023437 0.32422-0.81641 0.34766-0.87109 0.023437-0.042969 0.082031 0.011718 0 0.17969h0.003906c0.03125-0.058594 0.058594-0.11719 0.089844-0.17578 2.2617-5.0508 4.5781-9.2227 6.8867-13.688 0.30078 0.35547 0.55078 0.71484 0.87109 1.043-12.27 31.852-24.379 70.836-22.141 103.39 1.1641 16.934 6.2266 32.395 17.695 43.148 11.473 10.754 28.781 16.129 52.305 14.469 8.6953-0.61328 16.184-4.7031 23.273-8.3672 7.0938-3.6641 13.848-7.0117 20.137-7.8438 14.453-1.9062 31.105 4.8398 49.34 4.4453v0.003906h0.089844c3.3203-0.089844 6.6406-0.40234 10.023-1.1328 5.082-1.1211 10.242-3.1914 15.168-6.4492 19.086-12.621 26.414-31.602 31.121-50.473 4.707-18.871 7.293-38.062 15.867-53.609 1.2422-2.25 2.5664-4.4414 4.0117-6.625 0.41406-0.62891 0.95312-1.3828 1.5703-2.2656 0.94922-1.3672 1.9336-2.6719 2.875-3.9219v-0.089844c0.71875-0.94531 1.4961-1.9062 2.2656-2.8789 0.79297-0.99609 1.5781-1.9453 2.3516-2.875 1.0586-1.2734 2.1094-2.5664 3.1367-3.75 0.17969-0.22266 0.49609-0.52344 0.87109-0.96094l0.089844-0.089844c4.1445-4.7148 8.3867-9.3516 12.641-14.035v-0.003906h0.089844c0.91797-1.0117 1.8125-2.0547 2.7031-3.0547 2.457-2.7539 4.793-5.6406 7.1484-8.543z"/>
 </g>
 <path d="m668.87 246.8c-23.977 0.49609-49.16 17.105-76.887 34.086-27.727 16.977-57.691 34.723-88.305 39.84-21.223 3.543-52.207 4.2812-77.934 13.074-12.863 4.3945-24.656 10.949-32.863 21.355-8.207 10.41-12.434 24.559-10.898 42.453 2.7227 31.684 14.68 54.102 31.383 70.609s37.863 27.266 59.363 37.137h0.003907c1.6445 0.73047 3.5312 0.67188 5.125-0.16016 1.5977-0.83203 2.7266-2.3438 3.0664-4.1094 0.48047-2.375 1.0312-4.668 1.5703-6.9727 0.13672-0.59766 0.29297-1.3477 0.52344-2.2656v-0.003906h0.089844c1.0156-4.0703 2.0625-7.9727 3.4883-11.68l-1.3086 2.0039c0.019532-0.019531 1.3672-2.4023 1.4805-2.6172l-0.089844 0.44531c0.0625-0.17969 0.10547-0.35547 0.17578-0.52344 0.27344-0.68359 0.57031-1.3867 0.87109-2.0938 0.16016-0.35547 0.35547-0.67969 0.52344-1.043 0.35156-0.77734 0.6875-1.5391 1.0469-2.2656 0.22266-0.44531 0.44531-0.91406 0.69922-1.3906 0.37891-0.72266 0.73047-1.2852 1.0469-1.8281 0.37109-0.63672 0.75781-1.3555 1.2188-2.0938 0.37891-0.60156 0.60938-1.043 0.78516-1.3086l-0.003907-0.003907c0.09375-0.11328 0.17969-0.23437 0.26563-0.35547-0.11328 0.17969 0.12109-0.13281 0.089843-0.089844l0.17578-0.26953c0.58984-0.86328 1.207-1.7188 1.832-2.5273 0.16406-0.22266 0.52344-0.58984 0.95703-1.1328h-0.089844c0.63281-0.77734 1.2422-1.4375 1.832-2.0938 0.3125-0.35547 0.74609-0.80469 1.2188-1.3086 0.61719-0.65625 1.2305-1.3398 1.918-2.0039v0.003907h0.085938c0.42969-0.40234 0.80859-0.75391 1.2188-1.1328 0.82031-0.75 1.668-1.5703 2.6133-2.3516v0.089844c0.53906-0.44531 0.82812-0.76953 0.95703-0.87109 1.3438-1.0742 2.7305-2.1289 4.1836-3.1367 1.1758-0.81641 2.3281-1.5391 3.4883-2.1797 3.4609-1.9062 6.7539-3.0273 10.199-3.75 2.2891-0.47656 4.6523-0.71875 7.0625-0.87109 12.031-0.75781 26.238 2.1992 42.367-3.4844 1.3516-0.48047 2.6602-1 4.0117-1.5664 6.6953-2.8086 13.051-6.4219 19.18-10.113 4.0117-2.418 7.9102-4.8086 11.855-7.0625 3.6875-2.1055 7.375-4.0938 10.984-5.668 0.87891-0.35547 1.5312-0.65234 2.0938-0.87109 1.0898-0.44531 2.2812-0.84766 3.3984-1.2227l0.17578-0.089843c1.2188-0.40234 2.4492-0.78516 3.4883-1.043l-0.089843 0.089844c1.25-0.3125 2.3828-0.60156 3.4883-0.78516 17.387-2.9062 37.938 0.22266 52.738 9.4141 1.8555 1.1484 3.6641 2.4297 5.3164 3.75 8.3086 6.6367 14.105 15.312 16.039 26.762 0.77344 4.5781 0.91797 9.6914 0.26172 15.254-1.0586 8.9453-3.1484 16.734-6.1016 23.797-2.2109 5.293-4.9375 10.207-8.0195 14.73-1.0195 1.4961-2.1016 2.9062-3.2266 4.3555-19.688 25.441-52.973 40.465-80.199 62.938v0.007812c-1.5625 1.3203-2.332 3.3594-2.0312 5.3828 0.30469 2.0234 1.6328 3.7461 3.5117 4.5547 1.0469 0.44531 2.207 1.0703 3.4883 1.7461 1.8828 0.98047 4.1445 0.87891 5.9297-0.26953 33.238-20.93 88.773-41.34 134.33-46.465 22.781-2.5625 42.977-1.1641 56.312 4.8828 13.336 6.0469 20.379 15.398 19.441 33.301-0.89062 16.984-7.4531 29.52-16.562 41.496-1.2188 1.5508-1.5781 3.6055-0.96484 5.4766 0.60938 1.8711 2.1172 3.3164 4.0156 3.8477 33.316 9.5352 69.016 23.867 97.023 43.238h-0.003907c2.4609 1.6836 5.7852 1.2734 7.7617-0.95703 9.9844-11.422 17.25-25.848 20.922-43.324 6.3477-30.215-0.86328-61.746-3.8359-90.051-3.1797-30.293 5.2266-66.812-5.1445-99.727-8.1641-25.918-24.898-40.18-43.062-50.473-18.164-10.293-37.781-17.246-54.223-29.289-15.258-11.176-29.707-31.703-44.547-51.691-14.836-19.988-30.047-39.648-49.688-48.555-14.812-6.7148-30.039-9.8555-72.613-8.9805zm0.26172 11.855c41.984-0.86719 54.051 1.7578 67.473 7.8438 15.578 7.0625 30.387 25.117 45.066 44.895 14.68 19.777 29.242 41.074 47.074 54.133 18.25 13.367 38.543 20.414 55.441 29.988 16.898 9.5742 30.383 21.035 37.57 43.848 9.0039 28.586 1.1328 64.176 4.6211 97.371 3.0742 29.281 9.7148 59.637 4.0977 86.387-2.9805 14.199-9.1719 24.984-16.562 34.348-26.859-17.457-58.25-30.621-88.656-39.75 7.9844-11.789 15.406-24.309 16.301-41.32 1.1367-21.684-9.668-37.168-26.324-44.719-16.656-7.5508-38.543-8.5352-62.504-5.8398-40.273 4.5273-82.461 22.668-117.07 40.621 21.789-14.754 45.738-27.621 62.676-49.516 1.2422-1.6055 2.4883-3.2422 3.6602-4.9688 3.5-5.1367 6.6172-10.758 9.1523-16.824 3.3789-8.0859 5.707-17.047 6.8867-27.023 0.77734-6.5859 0.625-12.727-0.34766-18.48-2.4297-14.391-10.086-25.918-20.312-34.086-2.0547-1.6406-4.1406-3.1562-6.3633-4.5352-17.824-11.051-40.77-14.352-60.934-10.984v-0.089844c-1.5469 0.26953-2.9961 0.63281-4.3594 0.96094l0.007812 0.007813h-0.089844c-1.5273 0.40234-2.9023 0.82031-4.1836 1.2227-0.03125 0.027344-0.058593 0.058594-0.089843 0.089844-1.3828 0.46094-2.8008 0.92969-4.1836 1.4805-0.94922 0.35547-1.6445 0.69922-2.2656 0.96094-0.03125 0.027344-0.058594 0.058594-0.089844 0.089844-4.207 1.8281-8.2891 3.9531-12.203 6.1875-4.1328 2.3594-8.1289 4.832-12.117 7.2344-6.0156 3.625-11.879 6.9219-17.609 9.3281-1.1367 0.47656-2.332 0.98047-3.4883 1.3906-12.68 4.4414-24.883 1.8125-39.055 2.6992-2.8359 0.17969-5.7539 0.60156-8.7188 1.2227-4.4375 0.92969-9.0547 2.4648-13.598 4.9688-1.5039 0.83203-3.0234 1.7422-4.5312 2.7891-1.7227 1.1953-3.293 2.4609-4.793 3.6602v-0.089844c-0.55469 0.44531-0.82812 0.76953-0.95703 0.87109l-0.003906 0.003906c-0.027344 0.027344-0.058594 0.058594-0.085938 0.089844-1.0547 0.87109-2.1172 1.7656-3.1367 2.6992-0.53906 0.49609-1 0.91797-1.4805 1.3906-0.79297 0.76953-1.6016 1.5547-2.3516 2.3516-0.40234 0.44531-0.87891 0.90234-1.3945 1.4805-0.8125 0.90625-1.5195 1.8047-2.1797 2.6172-0.22266 0.26953-0.58594 0.71875-1.0469 1.3086-0.86719 1.125-1.6953 2.3047-2.4414 3.4023h-0.003906c-0.0625 0.085937-0.12109 0.17578-0.17578 0.26953 0.35156-0.57422 0.17578-0.44922-0.4375 0.61328-0.29297 0.46094-0.53125 0.96094-0.69922 1.2227-0.48438 0.76953-1.0625 1.5625-1.5703 2.4414-0.48438 0.83594-0.85938 1.5859-1.2188 2.2656-0.26953 0.50391-0.50781 1.0234-0.78516 1.5664h0.003906c-0.003906 0.027344-0.003906 0.058594 0 0.089844-0.44531 0.89844-0.91797 1.7578-1.3086 2.6172-0.19141 0.44531-0.33594 0.875-0.52344 1.3086-0.30469 0.70703-0.57812 1.4453-0.87109 2.1797-0.10547 0.26953-0.24219 0.51172-0.34766 0.78516v-0.003907c-0.03125 0.058594-0.0625 0.11719-0.089844 0.17578-0.03125 0.089844-0.0625 0.17969-0.089844 0.26953-0.035156 0.11719-0.0625 0.23438-0.089843 0.35547-1.5547 4.1523-2.8047 8.332-3.8359 12.465-0.11328 0.45703-0.28125 1.0547-0.4375 1.6562-18.445-8.7656-36.289-17.699-49.516-30.773-14.949-14.773-25.379-33.992-27.895-63.285-1.3438-15.625 2.0898-26.121 8.3672-34.086 6.2773-7.9609 15.906-13.484 27.461-17.434 23.105-7.8984 53.336-8.9375 76.016-12.727 33.699-5.6289 64.77-24.379 92.578-41.406s52.656-31.879 70.957-32.254z"/>
 <path d="m777.4 524.54c-0.65625 0.011719-1.3047 0.12891-1.918 0.35547-51.906-0.22266-120.96 23.289-162.05 49.164-1.8086 1.1406-2.8594 3.1641-2.75 5.2969 0.10938 2.1328 1.3594 4.043 3.2734 4.9922 0.070312 0.035156 0.023437 0.042969 0.089843 0.089844 10.117 9.4258 14.988 22.816 13.25 33.734-1.7344 10.91-9.0312 19.637-26.066 22.141-11.363-0.17969-19.129-2.9805-24.059-7.1484-1.4531-1.2383-3.418-1.6953-5.2695-1.2266-1.8516 0.46484-3.3633 1.8008-4.0586 3.5781-12.805 32.484-25.34 73.707-23.012 107.57 1.1641 16.934 6.2266 32.395 17.695 43.148 11.473 10.754 28.781 16.043 52.305 14.383 8.6992-0.61328 16.184-4.6133 23.273-8.2812 7.0938-3.6641 13.848-7.0117 20.137-7.8438 10.508-1.3867 22.262 1.5781 34.867 3.4023 12.605 1.8203 26.609 2.1523 39.75-6.5391 19.086-12.621 26.414-31.602 31.121-50.473 4.707-18.871 7.293-38.062 15.867-53.609 9.0742-16.461 23.312-29.562 36.176-44.547 12.867-14.98 24.281-32.285 25.543-56.312 0.93359-17.82-6.0195-31.691-17.957-40.012-11.938-8.3203-28.039-11.578-46.203-11.855zm-0.17578 11.77c16.793 0.26953 30.723 3.5312 39.664 9.7617 8.9414 6.2305 13.676 15.016 12.902 29.727-1.0859 20.66-10.523 34.926-22.754 49.164-12.227 14.238-27.289 27.984-37.57 46.637-10.012 18.16-12.523 38.453-17 56.402-4.4766 17.945-10.395 33.078-26.152 43.5-9.8906 6.543-19.883 6.3945-31.555 4.707-11.672-1.6875-24.48-5.1992-38.094-3.4023-9.1094 1.2031-16.91 5.418-23.973 9.0664-7.0625 3.6523-13.352 6.6016-18.656 6.9727-21.402 1.5078-34.805-3.1719-43.41-11.246-8.6055-8.0703-12.996-20.203-14.035-35.305-1.9766-28.766 9.3672-66.59 21.184-97.547 6.8438 3.6914 13.652 7.5469 23.973 7.582v0.003906c0.26172-0.011719 0.52344-0.042969 0.78516-0.089844 21.367-2.9336 33.949-16.621 36.438-32.254 2.082-13.098-5.1836-26.141-14.297-37.398 39.773-23.809 105.91-47.004 152.55-46.289z"/>
 <path d="m645.59 398.74c-5.2891-0.042969-10.488 0.35547-15.516 1.2188-23.883 3.9844-42.398 22.527-60.586 28.941-10.168 3.582-19.988 2.6641-30.859 2.5273-10.871-0.13281-23.055 0.75781-35.129 9.1523-28.648 19.914-31.645 46.316-36.613 70.957-4.9688 24.641-11.59 48.512-47.859 72.09-13.531 8.7969-20.852 25.109-23.711 43.848-2.8594 18.738-1.2461 40.23 4.4453 60.672 5.6914 20.441 15.465 39.867 29.465 54.133s32.621 23.273 54.484 21.793c11.824-0.80469 21.637-7.9141 29.727-17.695s14.848-22.48 21.184-36.266c12.668-27.566 23.57-59.754 35.828-80.285l-0.003906 0.003906c0.98438-1.6016 1.1484-3.5742 0.4375-5.3164-4.3047-10.105-1.7148-24.129 5.8398-33.562 7.5547-9.4297 18.676-14.523 33.562-8.3672 2.0117 0.84375 4.3242 0.50781 6.0156-0.87109 18.488-15.258 41.664-27.516 61.543-43.934s36.492-37.637 40.273-69.652c2.7227-23.055-6.4336-41.137-20.746-52.566s-33.383-16.738-51.781-16.824zm-0.089844 11.855c16.125 0.089844 32.906 4.9141 44.547 14.211 11.637 9.293 18.602 22.457 16.301 41.93-3.3906 28.699-17.496 46.621-36.09 61.98s-41.68 27.523-61.457 43.848l6.0156-0.87109c-19.293-7.9727-37.102-0.80859-47.246 11.855-10.145 12.664-13.977 30.586-7.5859 45.59l0.34766-5.3164c-13.414 22.477-24.164 54.625-36.438 81.332-6.1367 13.352-12.598 25.359-19.527 33.734-6.9297 8.3789-13.883 12.91-21.445 13.426-18.281 1.2344-33.102-5.9336-45.242-18.305-12.141-12.371-21.234-30.07-26.5-48.992s-6.7344-38.984-4.1836-55.703 9.0547-29.699 18.48-35.828c38.91-25.301 47.805-54.324 52.914-79.676 5.1094-25.348 6.8086-46.105 31.906-63.551 9.4492-6.5664 18.008-7.1055 28.242-6.9727 10.238 0.13281 21.969 1.2344 34.867-3.3125 21.977-7.75 40.098-25.23 58.668-28.332 4.3594-0.72656 8.8477-1.0898 13.426-1.043z"/>
 <path d="m580.91 572.48c-11 5.7344-18.637 16.254-22.055 27.809-3.418 11.551-2.7109 24.461 4.2695 34.781 6.9805 10.32 20.148 17.223 38.617 17.262h0.003906c0.26172-0.011719 0.52344-0.042969 0.78125-0.089844 21.367-2.9336 33.949-16.621 36.438-32.254 2.4883-15.633-4.0078-32.68-17.086-44.633h0.003906c-0.32031-0.29687-0.67187-0.5625-1.0469-0.78516-14.555-8.168-28.926-7.8281-39.926-2.0938zm5.4062 10.461c7.4297-3.875 16.621-4.1875 27.895 1.8281 9.8945 9.4062 14.797 22.582 13.074 33.387-1.7344 10.891-9.0156 19.613-25.977 22.141-15.254-0.17969-23.887-5.0703-28.418-11.77-4.6016-6.8008-5.3047-16.059-2.7031-24.844 2.6016-8.7891 8.4883-16.766 16.125-20.746z"/>
 <g clip-path="url(#a)">
  <path d="m367.86 422.89c-0.66016 0.039063-1.3086 0.19141-1.918 0.44531-18.316 0.53125-32.891 3.6914-44.023 10.113-11.637 6.7148-19.715 16.504-26.066 28.07-12.695 23.129-19.316 53.613-35.914 88.742-8.6172 18.23-19.191 33.645-27.109 50.82-7.918 17.18-12.934 36.285-9.6758 60.41 2.5 18.504 13.617 34.09 25.105 48.816 11.488 14.727 23.48 28.758 29.203 42.891 7.3672 18.191 6.9688 38.031 9.0664 58.32 2.0938 20.285 7.2383 41.309 26.762 59.016 41.828 37.934 82.574 55.918 120.04 58.145 37.465 2.2266 71.312-11.41 98.855-35.043v-0.003907c1.2266-1.0547 1.9688-2.5625 2.0508-4.1797 0.082031-1.6133-0.5-3.1914-1.6133-4.3633-15.469-15.988-22.277-39.996-22.492-68.082-0.21484-28.086 6.2031-59.953 16.215-90.398 1.082-2.9336-0.31641-6.2031-3.1836-7.4492-2.8672-1.25-6.2109-0.046875-7.625 2.7422-1.1719 2.1172-2.3594 4.1367-3.5742 6.1016-0.24609 0.35547-0.45703 0.71484-0.60938 0.96094-1.0547 1.6719-2.0625 3.2656-3.1367 4.793-0.26172 0.35547-0.53125 0.63672-0.69922 0.87109-1.1328 1.5664-2.2617 3.0859-3.3984 4.4453-0.25781 0.3125-0.52734 0.62891-0.4375 0.52344-1.3086 1.5352-2.6172 2.9375-3.9219 4.1875v0.085938c-0.85156 0.8125-1.7539 1.5859-2.7031 2.3516-0.39844 0.3125-0.81641 0.58984-0.95703 0.69531-0.95312 0.72656-1.8281 1.3828-2.7031 1.918 0.25-0.13281-0.003906-0.089844-0.69922 0.35547-0.76953 0.44531-1.5195 0.84766-2.3516 1.2188-0.33984 0.13281-0.70312 0.3125-0.95703 0.44531-0.84375 0.35547-1.6719 0.53906-2.6133 0.78516l-0.003906 0.007813c-0.089844 0.027343-0.17969 0.058593-0.26562 0.089843 0.12109-0.035156-0.29297 0.042969-0.4375 0.089844-1.2422 0.26953-2.2617 0.46484-3.1367 0.52344-1.1172 0.089844-2.2305 0.089844-3.3125 0.089844h-0.17578c-1.9609 0.035156-3.9336-0.089844-5.9297-0.26953h0.003907c-0.089844-0.003906-0.17578-0.003906-0.26562 0-0.13281-0.015625-0.085938 0.007813-0.17578 0-1.168-0.13281-2.25-0.26953-3.1367-0.44531-2.0898-0.35547-4.0977-0.83984-6.0156-1.3906h-0.089844c-0.3125-0.089844-0.92188-0.35547-1.918-0.69531-1.4922-0.5-2.7969-0.95703-3.8359-1.3906-1.8789-0.78906-3.7148-1.625-5.4922-2.6172-3.5742-1.9961-6.9844-4.4023-10.199-7.1484-6.4414-5.5-12.211-12.496-17.086-20.398-0.34766-0.56641-0.76172-1.3281-1.3086-2.2656-3.1094-5.3203-5.8711-10.922-8.1953-16.824-4.4531-11.301-7.4023-23.504-8.8906-35.48-0.30078-2.4062-0.60938-4.7891-0.78516-7.1484-0.52734-7.1055-0.41406-14.102 0.17578-20.66 0.38672-4.3711 0.94922-8.5117 1.832-12.465 0.87891-3.9492 2.0508-7.6875 3.3984-11.07 1.3516-3.3828 2.9258-6.457 4.707-9.1523 2.668-4.0391 5.7969-7.207 9.3281-9.5039 2.6641-1.7305 5.1328-3.4961 7.4961-5.2305 0.92187-0.67969 1.6523-1.293 2.3516-1.8281l0.007812-0.007812h0.085938c1.4961-1.1484 2.9102-2.2812 4.3594-3.4844 0.03125-0.03125 0.0625-0.058594 0.089844-0.089844 0.85938-0.71875 1.6016-1.3438 2.3516-2.0039 1.2578-1.1016 2.457-2.2539 3.6602-3.4023h0.003906 0.089844c0.71875-0.6875 1.4609-1.3711 2.1797-2.0938v-0.089844c1.1055-1.1055 2.2109-2.2109 3.2266-3.3125 0.64844-0.70703 1.3203-1.4766 2.0039-2.2656 1.0234-1.1836 1.9219-2.3125 2.7891-3.4023 0.45312-0.57031 1.0117-1.2344 1.6562-2.0938 1.332-1.7656 2.6562-3.6016 3.8359-5.4062l-4.9688 2.7031v-5.9258l4.9688 3.2266c0.51953-0.80078 0.85547-1.3828 1.1328-1.8281 0.69922-1.1289 1.4609-2.293 2.1797-3.5742 0.60547-1.082 1.0898-2.1289 1.5703-3.0547 0.38281-0.74219 0.79297-1.5547 1.2188-2.4414 0.53125-1.1016 1.0273-2.1875 1.4805-3.2266 0.28906-0.66797 0.625-1.3672 0.95703-2.1797 0.45312-1.0977 0.88672-2.2734 1.3086-3.4023 0.25391-0.67578 0.49219-1.25 0.69922-1.8281 0.33594-0.94922 0.63281-1.9766 0.95703-2.9648 0 0-0.007812-0.042969 0-0.089844 0.050781-0.13281 0.125-0.26953 0.17578-0.44531 0.011719-0.03125 0.085938-0.089844 0.089844-0.089844 0.015625-0.042969-0.015625-0.13281 0-0.17969v0.007813c0.03125-0.058594 0.058594-0.12109 0.089844-0.17969 0.007812-0.042969-0.011719-0.089843 0-0.17969 0.039062-0.13281 0.17578-0.26953 0.17578-0.26953 0-0.007812-0.035156-0.3125 0-0.61328 1.8398-5.9883 3.2812-11.824 4.4453-17.523v-0.089844c0.011719-0.042969 0.070313-0.17969 0.089844-0.26953 0.003906-0.011719 0.058594-0.17969 0.089844-0.26953v-0.089844c0-0.003906 0.066406-0.26953 0.089844-0.44531v-0.089843c0.85156-4.2461 1.707-8.3906 2.5273-12.465l-0.003907 0.007812c0.54688-2.6836-0.82422-5.3867-3.3125-6.5352-33.633-15.449-63.434-31.723-76.887-66.426-0.79687-2.0664-2.6797-3.5156-4.8828-3.75-10.258-1.0898-19.527-1.5977-27.895-1.4805h-0.089844zm0.26172 11.855c7.1445-0.089844 15.527 0.40234 24.496 1.3086 15.223 34.258 44.742 52.281 75.926 66.863-0.50781 2.5781-0.96094 5.1641-1.4805 7.7578 0.003906-0.015625-0.089844 0.26953-0.089844 0.26953-0.007812 0.03125 0 0.089844 0 0.089844-0.019531 0.089844-0.066406 0.17969-0.089844 0.26953l0.003907-0.007813c-0.003907 0.12109-0.003907 0.23828 0 0.35938-0.046875 0.25781-0.078125 0.51953-0.089844 0.78516l-0.089844-0.089844c-1.168 5.7383-2.5078 11.441-4.2695 17.086-0.011719 0.035156-0.074219 0.042969-0.089844 0.089844-0.011718 0.03125 0 0.089844 0 0.089844-0.007812 0.027343 0.007813 0.042968 0 0.089843-0.003906 0.023438-0.074218 0.17969-0.089844 0.26953-0.003906 0.019532 0.003907 0.042969 0 0.089844-0.003906 0.011719 0 0.089844 0 0.089844-0.33203 1.0312-0.74609 2.1328-1.1328 3.2266-0.20703 0.57422-0.42969 1.168-0.60938 1.6562-0.36328 0.96875-0.71875 1.9648-1.1328 2.9648-0.24609 0.59766-0.54687 1.2539-0.87109 2.0039-0.42969 0.97656-0.86719 1.875-1.3086 2.7891-0.30859 0.63672-0.64453 1.4023-1.0469 2.1797-0.5 0.96875-0.94141 1.8047-1.3945 2.6172-0.54688 0.97656-1.2188 2.0977-1.918 3.2266-0.34375 0.55469-0.57812 0.87891-0.78516 1.2188-0.0625 0.089844-0.20703 0.26953-0.26172 0.35547-1.0156 1.5547-2.1211 3.1289-3.3125 4.707-0.35547 0.47656-0.875 1.1562-1.4805 1.918-0.84375 1.0625-1.6875 2.0859-2.5273 3.0547h0.089844c-0.53906 0.62109-1.1914 1.2227-1.832 1.918-0.92578 1.0039-1.8828 2.0586-2.875 3.0547-0.62891 0.62891-1.3086 1.2539-2.0039 1.918-1.0508 1-2.1367 2.0234-3.3125 3.0547-0.75 0.66016-1.4688 1.2344-2.1797 1.8281-1.2656 1.0547-2.6641 2.2148-4.0977 3.3125v-0.089844c-0.83594 0.64453-1.5 1.2461-2.1797 1.7461-2.2188 1.6289-4.5195 3.1992-6.9727 4.793-5.0781 3.2969-9.3086 7.8125-12.727 12.988-2.2773 3.4492-4.2266 7.2031-5.8398 11.246s-2.918 8.3125-3.9219 12.812c-1.0039 4.4961-1.6602 9.1914-2.0938 14.035-0.65234 7.2617-0.74609 14.875-0.17578 22.578 0.19141 2.5742 0.46484 5.1836 0.78516 7.7578 1.6094 12.938 4.8359 25.977 9.6758 38.27 2.5508 6.4727 5.5703 12.645 8.9805 18.48 0.38672 0.66797 0.86328 1.6094 1.4805 2.6172 5.418 8.7812 11.898 16.66 19.438 23.102 3.7656 3.2188 7.8164 6.0586 12.117 8.457 2.1602 1.2031 4.3477 2.2656 6.625 3.2266 1.6992 0.71875 3.2695 1.2031 4.6211 1.6562 0.41016 0.13281 1.1836 0.51953 2.3516 0.87109l-0.003907-0.011719h0.089844c2.4297 0.71094 4.8516 1.2227 7.3242 1.6562 1.2422 0.22266 2.3359 0.3125 3.3984 0.44531 0.21875 0.042969 0.37109 0.13281 0.52344 0.17969 0.54688 0.089844 0.82812 0 0.87109 0 2.2344 0.22266 4.5469 0.40234 6.9727 0.35547 1.3711 0 2.707-0.089843 4.0977-0.17969 1.8242-0.13281 3.3477-0.40234 4.707-0.69531 0.17578-0.019531 0.35156-0.050781 0.52344-0.085937-0.15234 0.042968 0.29297-0.089844 0.69922-0.17969l0.26172-0.089844c1.3633-0.35547 2.7969-0.82422 4.1836-1.3906 0.058594-0.03125 0.11719-0.058594 0.17578-0.089844 0.34375-0.13281 0.61328-0.22266 0.87109-0.35547 1.2109-0.53906 2.4414-1.2109 3.6602-1.918v-0.003906c0.03125-0.03125 0.0625-0.058594 0.089844-0.089844-0.25391 0.17969-0.074219 0.089844 0.60938-0.35547v0.089843c1.3164-0.80469 2.5781-1.7227 3.75-2.6172 0.54297-0.40234 0.97266-0.75 1.1328-0.87109 0.03125-0.027344 0.058593-0.058594 0.089843-0.089844 1.1172-0.90625 2.3359-1.9453 3.4883-3.0547 0.82813-0.78906 1.5625-1.6797 2.3516-2.5273-5.7031 22.77-12.191 45.902-12.031 67.297 0.20703 26.988 8.668 50.16 23.273 68.691-25.105 20.648-54.414 33.004-87.52 31.035-34.23-2.0352-72.426-18.391-112.8-55.008-16.922-15.348-20.938-32.27-22.926-51.52-1.9883-19.246-1.3359-40.523-9.8516-61.543-6.8047-16.797-19.625-31.277-30.859-45.68-11.234-14.402-20.773-28.508-22.754-43.148-2.9414-21.781 1.3672-37.934 8.7188-53.871 7.3477-15.941 17.926-31.48 27.023-50.734 17.191-36.383 24.293-67.438 35.652-88.133 5.6797-10.348 12.184-18.004 21.617-23.449 9.4375-5.4453 22.059-8.7266 40.273-8.9805zm98.594 77.582 0.17578-0.69531c-0.035156 0.13281-0.11328 0.3125-0.17578 0.61328v0.085937z"/>
 </g>
 <path d="m625.98 568.99c-1.0781 0-2.0039 0.042968-2.875 0.089843-0.94922 0.039063-1.8789 0.30859-2.7031 0.78516-2.3828 1.3789-4.6992 2.75-6.9727 4.1875-1.8516 1.125-2.9375 3.1758-2.8281 5.3398 0.10938 2.168 1.3945 4.0977 3.3516 5.0312 0.12109 0.042969 0.074219 0.039063 0.17578 0.089844 10.055 9.418 14.895 22.762 13.164 33.648-1.7539 11.027-8.8906 20.008-26.324 22.402-1.1133-0.015625-2.1914-0.089844-3.1367-0.17969l-0.007813 0.003906c-0.058593-0.003906-0.11328-0.003906-0.17187 0-0.25781-0.015625-0.96875-0.17969-2.1797-0.26953-0.38672-0.027344-0.91406-0.089844-1.4805-0.17969h-0.089843c-0.58984-0.089844-1.2656-0.22266-2.0039-0.35547l-0.34766-0.089844c-0.40625-0.089844-0.71094-0.13281-0.95703-0.17969l-0.4375-0.089844c-0.71094-0.17969-1.4688-0.35547-2.2656-0.61328l0.089843 0.089844-0.003906 0.003906c-0.11719-0.035156-0.23438-0.0625-0.35156-0.089843-3.8672-1.1641-6.9883-2.7852-9.5-4.707-1.75-1.3477-4.1055-1.6055-6.1055-0.66797-2 0.93359-3.3086 2.9062-3.3984 5.1133-0.37109 9.543-1.582 20.727-0.78516 31.906 0.79688 11.176 3.7969 22.656 12.293 31.645 5.0391 5.332 10.293 8.3711 15.691 8.8906 5.3984 0.51953 10.137-1.5898 13.773-4.2695 7.2695-5.3633 12.441-13.242 15.168-15.344 1.3828-1.0664 4.5938-2.1055 8.457-3.1367 3.8594-1.0312 8.4219-2.0039 12.379-5.668 4.0273-3.7305 4.75-8.3984 5.4062-11.941 0.65234-3.543 1.3516-6.332 2.0938-7.4102 2.9102-4.2305 11.82-10.934 19.441-18.742 3.8086-3.9062 7.3516-8.2617 9.5898-13.426s2.9531-11.402 0.78516-17.523c-7.6133-21.48-29.223-40.242-52.828-42.801-0.039062-0.003906-0.050781-0.089844-0.089843-0.089844h-0.007813c-1.0352-0.91797-2.3633-1.4414-3.7461-1.4805-0.089843-0.003906-0.17578-0.003906-0.26172 0zm-0.87109 11.77c0.23047-0.007813 0.48438 0 0.69922 0 0.027343 0.027343 0.058593 0.058593 0.089843 0.085937 18.238 0.3125 39.555 18.668 45.852 36.438 1.1562 3.2617 0.89453 5.8203-0.4375 8.8906-1.332 3.0703-3.9453 6.4805-7.2344 9.8516-6.5781 6.7383-15.516 12.789-20.746 20.398-2.918 4.2461-3.3203 8.6016-3.9219 11.855s-1.3711 5.0625-1.832 5.4922c-0.80859 0.75-3.625 1.8672-7.4102 2.8789-3.7852 1.0078-8.4336 1.9922-12.641 5.2305-6.1367 4.7227-10.523 11.871-14.992 15.168-2.2344 1.6523-3.8984 2.2617-5.668 2.0938-1.7656-0.17969-4.3828-1.2852-8.1953-5.3164-5.9922-6.3398-8.375-14.598-9.0664-24.32-0.48828-6.8516 0.19141-14.316 0.60938-21.617 1.4219 0.59375 2.4648 1.5391 4.0117 2.0039v-0.003906c0.14453 0.066406 0.28906 0.125 0.4375 0.17969 1.0508 0.3125 2.1797 0.59766 3.4883 0.87109 0.14453 0.035156 0.28906 0.066406 0.4375 0.089844 0.37891 0.042969 0.48828 0.035156 0.34766 0 0.14453 0.035156 0.28906 0.0625 0.4375 0.089844 0.82031 0.13281 1.7305 0.35547 2.875 0.52344v-0.003906h0.089844c0.67969 0.089844 1.4336 0.17969 2.3516 0.26953h0.003906 0.085938c0.20703 0.011719 0.86719 0.17969 1.918 0.26953 1.7031 0.17969 3.4102 0.17969 5.0547 0.17969l0.003906-0.003906c0.26172-0.011719 0.52344-0.042969 0.78516-0.089844 21.367-2.9336 33.949-16.535 36.438-32.168 2.1523-13.535-5.0664-27.27-14.82-38.703 0.33203-0.17969 0.625-0.40234 0.95703-0.61328z"/>
 <path d="m593.2 511.98c-0.38281 0.023437-0.76562 0.082031-1.1328 0.17969-0.089843-0.003906-0.17578-0.003906-0.26562 0-0.69141 0.023438-1.3867 0.023438-2.0938 0.089844-11.816 1.1914-19.496 7.75-24.758 14.469s-8.9414 13.41-14.469 17.957c-3.5312 2.9062-8.7422 4.9766-14.469 7.4961-5.7305 2.5234-12.172 5.6406-17 11.77-4.2656 5.4141-4.8125 11.754-4.5312 16.91 0.28125 5.1602 1.0938 9.6406 0.87109 13.164-0.33984 5.3555-4.6641 12.949-3.8359 22.578 0.58594 6.8125 4.0664 12.465 8.7188 16.301 4.6484 3.8398 10.395 6.0586 16.301 7.0625 11.809 2.0039 24.738-0.17969 32.777-8.3672l-0.003906-0.003906c0.26172-0.26563 0.49609-0.55859 0.69922-0.86719 0.52734-0.78125 0.57422-1.0508 0.52344-0.96094 0.89844-1.5703 1.0273-3.4648 0.34766-5.1445-0.12109-0.3125-0.25781-0.66016-0.4375-1.1328-0.19922-0.53516-0.33594-0.83203-0.34766-0.87109-0.21875-0.66406-0.35547-1.3398-0.52344-2.0039v0.17969s-0.30859 0.089844-0.34766 0.089844c0.11719-0.085938 0.23438-0.17578 0.34766-0.26953-0.30859-1.2773-0.56641-2.6992-0.69922-4.0977 0.003906-0.085937 0.003906-0.17578 0-0.26562-0.11719-1.2812-0.14453-2.5859-0.089844-4.0078h0.003906v-0.26953-0.44531c0.039063-0.35547 0.082032-0.91406 0.17578-1.7461v-0.089844c0.12109-1.0078 0.23047-1.8867 0.34766-2.5273v-0.089844c0.082031-0.40234 0.30469-1.0586 0.52344-1.918v-0.089844c0.25391-1.0078 0.49219-1.9062 0.69922-2.5273 0.15625-0.48828 0.44531-1.1445 0.78516-2.0039 0.37109-0.94531 0.67188-1.7461 0.95703-2.3516 0.25781-0.55078 0.62109-1.2305 1.0469-2.0039l0.089843-0.089844c0.41406-0.75781 0.80859-1.4961 1.1328-2.0039 0.36719-0.57422 0.82422-1.2305 1.3945-2.0039 0.49219-0.66797 0.91406-1.1875 1.3086-1.6562 0.87891-1.0547 1.7148-2.0117 2.5273-2.7891 4.2656-4.0586 9.418-6.7031 15.344-7.4102 0.91797-0.089844 1.6875-0.17969 2.2656-0.17969l-0.003907 0.003907c0.085938 0.003906 0.17578 0.003906 0.26172 0 0.55859-0.027344 1.3203-0.042969 2.2656 0 0.17578 0.007812 0.35156 0.007812 0.52344 0 0.52344 0.042969 1.1289 0.13281 1.918 0.26953 0.11719 0.003906 0.23438 0.003906 0.34766 0 0.027343 0.003906 0.058593 0.089844 0.089843 0.089844 0.035157 0.003906 0.10547 0 0.17578 0h0.17578c0.55078 0.089844 1.0625 0.26953 1.832 0.44531l-1.3945-1.7461h-0.003906c0.12109-0.11328 0.23828-0.23437 0.34766-0.35547 0.62891 0.64453 0.96875 1.0508 1.3086 1.3906 0.027343 0.03125 0.058593 0.0625 0.089843 0.089843l0.78516 0.78516-1.0469-0.17969c0.6875 0.17969 1.4141 0.35547 2.1797 0.61328 0.09375 0.03125 0.16406 0.042969 0.26172 0.089844 0.035156 0.007813 0.12109-0.011718 0.17578 0 0.027344 0.03125 0.058594 0.058594 0.085938 0.089844 0.73438 0.22266 1.582 0.57422 2.5273 0.96094l0.003907-0.003907c0.054687 0.003907 0.11328 0.003907 0.17188 0v0.089844c0.36719 0.12891 0.75 0.21875 1.1328 0.26953 0.14453 0.035156 0.29297 0.0625 0.4375 0.089844 0.14844 0.003906 0.29297 0.003906 0.4375 0 1.4219 0.050781 2.8164-0.41406 3.9219-1.3086 3.375-2.7891 6.9375-5.5156 10.637-8.1953 1.1172-0.80469 1.9219-1.9766 2.2656-3.3125 3.2969-13.051 1.2578-27.125-4.9688-38.355s-17.27-19.895-31.121-19.875zm-0.089844 11.855h0.089844 0.089844c9.0039 0.015624 15.984 5.3359 20.66 13.773 4.457 8.0391 5.7266 18.734 3.75 28.242-2.0352 1.5-4.1016 3.0391-6.1016 4.6211-0.011718-0.003906-0.070312 0.003906-0.089843 0-0.035157-0.007812-0.12109-0.089844-0.17578-0.089844h-0.003907c-0.085937-0.03125-0.17188-0.058593-0.26172-0.089843-0.007812-0.003907-0.085937-0.089844-0.089843-0.089844-0.003907 0-0.22656-0.042969-0.4375-0.089844-0.86719-0.26953-1.7109-0.48047-2.6133-0.69531v0.003906c-0.089844-0.035156-0.17578-0.0625-0.26563-0.089844-0.058593-0.003906-0.11328-0.003906-0.17187 0-0.097657-0.023437-0.24609-0.042969-0.34766-0.089843-0.89844-0.17969-1.8711-0.44531-3.0508-0.61328h-0.17578c-0.074219-0.011718-0.18359 0.011719-0.26172 0-0.082031-0.011718-0.17969-0.089844-0.26172-0.089844h-0.26172c-0.027343-0.003906-0.058593 0.003907-0.089843 0-0.76562-0.089843-1.4766-0.22266-2.4414-0.26953l-0.003906 0.003907h-0.089844c-0.125-0.003907-0.30859 0.007812-0.4375 0l0.17578 5.9258-0.4375-5.9258c-0.74609-0.035157-1.5234-0.13281-2.4414-0.089844h-0.26172c-1.1914 0.015625-2.2812 0.17969-3.1367 0.26953h-0.003906-0.089844c-8.7188 1-16.32 5.0156-22.23 10.637-1.3164 1.25-2.4727 2.5352-3.4883 3.75-0.69141 0.82422-1.2344 1.5703-1.7422 2.2656-0.55859 0.75781-1.1758 1.668-1.832 2.6992-0.60938 0.96484-1.1484 1.8555-1.5703 2.6172-0.42578 0.76953-0.97656 1.7188-1.4805 2.7891-0.54297 1.1523-0.87891 2.1836-1.2188 3.0547-0.27734 0.69922-0.6875 1.5039-1.0469 2.6172-0.41797 1.2852-0.64062 2.4023-0.87109 3.3125-0.15625 0.62109-0.46875 1.5117-0.69922 2.6992l0.003907-0.007812v0.089843c-0.25 1.3359-0.32422 2.4727-0.4375 3.4023-0.066407 0.59766-0.28125 1.4922-0.34766 2.7891-0.003906 0.12109-0.003906 0.23828 0 0.35547v0.44531c-0.058593 1.6719 0.023438 3.3789 0.17578 5.1445 0.007812 0.089844-0.007813 0.17969 0 0.26953h-0.003906v0.26563c0.015624 0.13281 0.070312 0.26953 0.089843 0.35547 0.003907 0.027344-0.003906 0.089844 0 0.089844 0.035157 0.17969 0.085938 0.3125 0.089844 0.35547 0.18359 1.625 0.38672 3.2461 0.78516 4.8828 0.050781 0.22266 0.12109 0.40234 0.17578 0.61328-4.5391 3.1211-12.195 5.6445-19.789 4.3555-4.3008-0.72656-8.1211-2.2969-10.723-4.4453-2.6016-2.1484-4.1289-4.6016-4.4453-8.2812-0.39844-4.6016 3.2578-11.602 3.8359-20.746 0.35547-5.6602-0.65625-10.605-0.87109-14.559-0.21484-3.9492 0.097656-6.4492 2.0938-8.9805 2.8398-3.6055 7.1289-5.9336 12.465-8.2812 5.3359-2.3477 11.609-4.5742 17.172-9.1523 7.7266-6.3594 11.883-14.234 16.301-19.875s8.2031-9.1797 16.562-10.023c0.78906-0.089843 1.5-0.089843 2.2656-0.089843zm12.902 45.328h0.089844 0.26172v0.61328c-0.10547-0.21094-0.22266-0.41406-0.34766-0.61328zm-5.668 5.9297h4.9688c-0.60547 0.625-1.1875 1.2422-2.3516 2.4414zm0 0s1.2422 1.2969 2.4414 2.5273c-0.10156 0.089844-0.070312 0.17969-0.17578 0.26953zm5.668 0h0.26172s0.25 5.582 0.26172 5.7539l-2.3516-2.1797c1.0078-0.94141 1.6562-2.207 1.832-3.5742zm2.4414 6.1875h-0.003906c0.19141 0.1875 0.39844 0.36328 0.61328 0.52344h0.089844l0.089844 0.089843c-0.042969-0.023437-0.16016-0.089843-0.17578-0.089843h-0.17578c-0.0625-0.042969-0.34766-0.44531-0.4375-0.52344zm-40.098 36.875-4.5312 3.75h-0.003906c-0.88281-0.23828-1.8086-0.26953-2.7031-0.089844z"/>
</svg>
