<?xml version="1.0" encoding="UTF-8"?>
<svg width="1200pt" height="1200pt" version="1.1" viewBox="0 0 1200 1200" xmlns="http://www.w3.org/2000/svg">
 <path d="m935.44 125.81c-13.875-66.188-280.87-69.562-335.44-69.562-54.562 0-321.56 3.375-335.44 69.562-64.125 150.74-96.562 310.31-96.562 474.19s33.562 327.19 98.062 477.56c29.062 54.75 197.63 66.188 333.94 66.188s304.87-11.438 334.69-67.688c63.75-148.87 97.312-313.5 97.312-476.06s-32.438-323.44-96.562-474.19zm-0.1875 842.06c-34.5 15.938-71.625 22.688-94.312 26.625-13.688 2.4375-28.688 4.6875-44.062 6.5625 12.375-87.188 20.625-176.06 24.75-264.94 13.5-1.875 26.438-3.75 38.812-6 50.062-8.8125 93.75-22.5 130.31-40.688-7.3125 94.688-26.062 188.63-55.5 278.26zm-725.81-278.26c36.562 18.188 80.25 31.875 130.31 40.688 12.375 2.25 25.312 4.125 38.812 6 4.125 88.875 12.375 177.74 24.75 264.94-15.375-1.875-30.375-4.125-44.062-6.5625-22.688-3.9375-59.812-10.688-94.125-26.625-29.438-89.812-48.188-183.74-55.5-278.26zm80.062-525.19c70.5 39.562 264.74 41.812 310.5 41.812 45.758 0 240-2.4375 310.5-41.812 7.3125 18.375 14.25 36.938 20.625 55.5-33.562 14.625-69.562 21-90.188 24.75-64.875 11.625-150.37 17.812-240.74 17.812-90.371 0-176.06-6.375-240.94-18-20.625-3.75-56.625-10.125-90.188-24.75 6.375-18.562 13.312-37.125 20.625-55.5zm291.74 135.37v262.5c-59.625-0.5625-117-3.9375-168.19-9.5625 1.125-86.812 6.375-174.37 15.75-261 46.688 4.6875 98.625 7.5 152.63 8.0625zm37.5 0c54-0.5625 105.94-3.1875 152.63-8.0625 9.1875 86.625 14.438 174.19 15.75 261-51.188 5.625-108.75 9-168.19 9.5625v-262.5zm205.69 248.26c-1.3125-86.625-6.5625-174.19-15.938-260.63 13.5-1.875 26.625-3.75 39-6 21.562-3.9375 58.875-10.688 95.438-26.062 24.188 78.938 39.75 159.74 46.875 242.26-35.625 20.625-81.188 36.188-135.94 45.75-9.375 1.6875-19.312 3.1875-29.438 4.6875zm-471.94-266.63c12.188 2.25 25.312 4.125 38.812 6-9.1875 86.625-14.625 174-15.938 260.63-10.125-1.5-20.062-3-29.438-4.6875-54.75-9.75-100.31-25.125-135.94-45.75 7.125-82.312 22.688-163.31 46.875-242.26 36.562 15.375 73.875 22.125 95.438 26.062zm-12.75 299.06c71.812 12.562 164.26 19.5 260.26 19.5s188.44-6.9375 260.26-19.688c51.375-9.1875 95.812-23.25 132.56-41.812 1.125 20.438 1.6875 40.875 1.6875 61.312 0 15.188-0.5625 30.375-1.125 45.375-36.75 21.938-83.438 38.062-139.5 48-69.75 12.188-159.94 18.938-253.87 18.938-93.938 0-184.13-6.75-253.87-18.938-56.062-9.9375-102.75-26.062-139.5-48-0.5625-15.188-1.125-30.375-1.125-45.375 0-20.625 0.5625-41.062 1.6875-61.312 36.75 18.562 81 32.625 132.56 41.812zm101.81 425.06c-12.562-87-21-175.87-25.312-264.56 50.812 5.4375 106.88 8.4375 165 9v262.5c-49.125-0.5625-96.562-2.8125-139.69-6.9375zm177.19-255.74c58.125-0.5625 114.19-3.5625 165-9-4.3125 88.875-12.75 177.56-25.312 264.56-42.938 4.125-90.375 6.375-139.69 6.9375zm-18.75-656.06c171.94 0 271.69 22.875 295.13 37.5-23.438 14.625-123 37.5-295.13 37.5s-271.69-22.875-295.13-37.5c23.438-14.625 123-37.5 295.13-37.5zm0 1012.5c-189.74 0-288.94-24-300.19-44.812-6.5625-15.375-12.75-31.125-18.562-46.875 28.125 9.1875 54.75 14.062 71.438 17.062 66.938 12 154.69 18.562 247.31 18.562 92.617 0 180.37-6.5625 247.31-18.562 16.688-3 43.312-7.6875 71.438-17.062-5.8125 15.375-11.625 30.562-18 45.375-11.812 22.312-111.19 46.312-300.94 46.312z"/>
</svg>
