<?xml version="1.0" encoding="UTF-8"?>
<svg width="1200pt" height="1200pt" version="1.1" viewBox="0 0 1200 1200" xmlns="http://www.w3.org/2000/svg">
 <g>
  <path d="m234.09 733.62 162.07 174.49c7.0117-7.6133 14.023-15.023 21.234-22.438l-159.27-171.48c-8.0117 6.6094-16.027 13.02-24.039 19.43z"/>
  <path d="m58.797 872.45c-57.898 42.672-29.449 134.02 10.617 176.89 40.469 47.078 127.21 74.523 175.69 23.438 47.078-51.484 93.957-103.37 141.64-154.26l-163.47-175.89c-54.688 43.676-109.58 86.551-164.47 129.82z"/>
  <path d="m985.54 198.13c-127.61-137.43-345.18-143.64-484.81-13.824-111.59 103.57-140.23 263.04-82.336 393.05-0.60156 0.60156-1.4023 1-2.0039 1.6016-48.082 43.473-97.363 85.344-147.45 126.41l158.06 170.08c44.473-46.879 89.949-93.156 136.83-137.83 0.60156-0.60156 1.2031-1.2031 1.8047-1.8047 125.41 67.312 286.48 50.484 398.06-53.09 139.83-129.81 149.65-347.17 21.836-484.6zm-76.93 424.91c-106.78 99.164-272.86 94.957-370.02-9.6172s-89.348-270.45 17.629-369.62c106.78-99.164 272.86-94.957 370.02 9.6172 96.965 104.57 89.148 270.45-17.629 369.62z"/>
  <path d="m1132.2 19.434h-94.758c-23.039 0-41.871 18.832-41.871 41.871v92.953c0 23.039 18.832 41.871 41.871 41.871h94.758c23.039 0 41.871-18.832 41.871-41.871v-92.957c0-23.035-18.633-41.867-41.871-41.867zm-4.6094 130.02h-85.543v-83.539h85.543z"/>
  <path d="m858.93 422.5c-45.676 0-82.738 37.062-82.738 82.738 0 45.676 37.062 82.738 82.738 82.738 45.676 0 82.738-37.062 82.738-82.738 0-45.676-37.059-82.738-82.738-82.738zm0 118.8c-20.035 0-36.262-16.227-36.262-36.262 0-20.035 16.227-36.262 36.262-36.262 20.035 0 36.262 16.227 36.262 36.262 0 20.035-16.227 36.262-36.262 36.262z"/>
  <path d="m680.43 416.89h-94.758c-23.039 0-41.871 18.832-41.871 41.871v92.953c0 23.039 18.832 41.871 41.871 41.871h94.758c23.039 0 41.871-18.832 41.871-41.871v-92.953c0-23.039-18.832-41.871-41.871-41.871zm-4.6055 130.22h-85.543v-83.539h85.543z"/>
  <path d="m407.18 188.31c45.676 0 82.738-37.062 82.738-82.738s-37.062-82.738-82.738-82.738c-45.676 0-82.738 37.062-82.738 82.738 0 45.477 37.062 82.738 82.738 82.738zm0-119c20.035 0 36.262 16.227 36.262 36.262s-16.227 36.262-36.262 36.262c-20.035 0-36.262-16.227-36.262-36.262s16.227-36.262 36.262-36.262z"/>
  <path d="m133.92 195.93h94.758c23.039 0 41.871-18.832 41.871-41.871v-92.754c0-23.039-18.832-41.871-41.871-41.871l-94.758 0.003906c-23.039 0-41.871 18.832-41.871 41.871v92.953c0.003907 23.039 18.633 41.668 41.871 41.668zm4.6094-130.02h85.543v83.539h-85.543z"/>
  <path d="m133.92 394.66h94.758c23.039 0 41.871-18.832 41.871-41.871v-92.953c0-23.039-18.832-41.871-41.871-41.871l-94.758 0.003906c-23.039 0-41.871 18.832-41.871 41.871v92.953c0.003907 23.238 18.633 41.867 41.871 41.867zm4.6094-130.02h85.543v83.539h-85.543z"/>
  <path d="m133.92 593.59h94.758c23.039 0 41.871-18.832 41.871-41.871v-92.953c0-23.039-18.832-41.871-41.871-41.871h-94.758c-23.039 0-41.871 18.832-41.871 41.871v92.953c0.003907 23.039 18.633 41.871 41.871 41.871zm4.6094-130.22h85.543v83.539h-85.543z"/>
  <path d="m906.41 990.05h-94.758c-23.039 0-41.871 18.832-41.871 41.871v92.953c0 23.039 18.832 41.871 41.871 41.871h94.758c23.039 0 41.871-18.832 41.871-41.871v-92.953c-0.19922-23.039-18.832-41.871-41.871-41.871zm-4.8086 130.02h-85.543v-83.539h85.543z"/>
  <path d="m1075.3 994.66c-45.676 0-82.738 37.062-82.738 82.738s37.062 82.738 82.738 82.738 82.738-37.062 82.738-82.738-37.062-82.738-82.738-82.738zm0 118.8c-20.035 0-36.262-16.227-36.262-36.262 0-20.035 16.227-36.262 36.262-36.262 20.035 0 36.262 16.227 36.262 36.262-0.003907 20.035-16.23 36.262-36.262 36.262z"/>
  <path d="m680.43 990.05h-94.758c-23.039 0-41.871 18.832-41.871 41.871v92.953c0 23.039 18.832 41.871 41.871 41.871h94.758c23.039 0 41.871-18.832 41.871-41.871v-92.953c0-23.039-18.832-41.871-41.871-41.871zm-4.6055 130.02h-85.543v-83.539h85.543z"/>
  <path d="m1028.6 819.57 51.086 117.6c2.0039 4.4062 8.4141 4.4062 10.219-0.19922l48.68-118.6c1.8047-4.6094-2.8047-9.2148-7.4141-7.2109l-28.246 12.219-1.6016-141.64c-0.19922-10.617-8.8164-19.23-19.633-19.23-10.617 0.19922-19.23 8.8164-19.23 19.633l1.6016 141.64-28.449-11.621c-4.4062-1.8047-9.0156 2.8008-7.0117 7.4102z"/>
  <path d="m386.34 585.18c4.6094-4.0078 9.2148-8.2148 13.621-12.219-5.0078-12.422-9.4141-25.043-13.023-37.863-9.6172-6.4102-16.027-17.629-16.027-30.051 0-7.2109 2.2031-14.023 5.8086-19.633-2.4023-18.43-3.4062-37.262-2.8047-56.094-29.047 12.82-49.484 41.871-49.484 75.727 0.007812 38.461 26.25 70.918 61.91 80.133z"/>
  <path d="m378.13 383.84c0.80078-5.4102 1.8047-10.816 2.8047-16.027 2.0039-10.219 4.6094-20.434 7.4141-30.25-10.418-6.4102-17.43-17.828-17.43-31.051 0-20.035 16.227-36.262 36.262-36.262 2.8047 0 5.4102 0.40234 8.0117 0.80078 7.4141-14.023 15.625-27.645 24.84-40.668-10.016-4.4062-21.035-6.8125-32.656-6.8125-45.676 0-82.738 37.062-82.738 82.738-0.19531 35.461 22.242 65.711 53.492 77.531z"/>
  <path d="m590.29 65.91h85.543v14.824c15.426-2.6055 30.852-4.4062 46.477-5.0078v-14.426c0-23.039-18.832-41.871-41.871-41.871h-94.758c-23.039 0-41.871 18.832-41.871 41.871v70.316c15.023-9.4141 30.449-17.828 46.477-24.84z"/>
  <path d="m858.93 69.316c20.035 0 36.262 16.227 36.262 36.262 0 2.0039-0.19922 4.0078-0.40234 6.0117 14.223 7.0117 28.047 15.023 41.469 23.84 3.6055-9.2148 5.6094-19.23 5.6094-29.852 0-45.676-37.062-82.738-82.738-82.738-35.859 0-66.512 23.039-77.93 55.094 15.828 2.0039 31.453 4.8086 46.879 8.8164 6.2109-10.422 17.832-17.434 30.852-17.434z"/>
  <path d="m1132.2 218.16h-94.758c-4.8086 0-9.2148 0.80078-13.422 2.2031 10.219 14.023 19.434 28.848 27.445 44.273h76.125v83.539h-45.676c3.4062 15.227 5.8086 30.652 7.4141 46.477h42.871c23.039 0 41.871-18.832 41.871-41.871v-92.953c0-22.836-18.633-41.668-41.871-41.668z"/>
  <path d="m1132.2 416.89h-41.668c0.19922 9.0156 0.19922 18.031-0.19922 27.047-0.19922 6.6094-0.80078 13.023-1.4023 19.434l38.66-0.003906v83.539h-56.895c-5.6094 16.027-12.219 31.453-20.035 46.477h81.535c23.039 0 41.871-18.832 41.871-41.871l0.003906-92.75c0-23.039-18.633-41.871-41.871-41.871z"/>
  <path d="m680.43 218.16h-62.703c-18.23 10.016-35.461 22.438-51.086 36.863-8.2148 7.6133-15.828 15.625-22.84 24.039v73.723c0 23.039 18.832 41.871 41.871 41.871h94.758c23.039 0 41.871-18.832 41.871-41.871v-92.953c0-22.84-18.832-41.672-41.871-41.672zm-4.6055 130.02h-85.543v-83.539h85.543z"/>
  <path d="m858.93 389.05c45.676 0 82.738-37.062 82.738-82.738 0-2.8047-0.19922-5.6094-0.40234-8.2148-7.6133-12.02-16.629-23.438-26.445-34.258-14.426-15.426-30.652-28.848-48.082-39.867-2.6055-0.19922-5.0078-0.40234-7.6133-0.40234-45.676 0-82.738 37.062-82.738 82.738 0.007812 45.684 37.07 82.742 82.543 82.742zm0-118.8c20.035 0 36.262 16.227 36.262 36.262 0 20.035-16.227 36.262-36.262 36.262-20.035 0-36.262-16.227-36.262-36.262 0.003906-20.035 16.23-36.262 36.262-36.262z"/>
 </g>
</svg>
