<?xml version="1.0" encoding="UTF-8"?>
<svg width="1200pt" height="1200pt" version="1.1" viewBox="0 0 1200 1200" xmlns="http://www.w3.org/2000/svg">
 <path d="m705.52 477.32c-7.5469 0-14.906 0.98438-22.406 1.5938 0.65625-7.3125 1.5938-14.578 1.5938-21.984 0-146.53-119.2-265.74-265.69-265.74-146.29 0.046876-265.26 119.2-265.26 265.78 0 146.53 118.97 265.74 265.26 265.74 7.5469 0 14.953-0.98438 22.406-1.5938-0.65625 7.3125-1.5938 14.578-1.5938 21.984 0 146.53 119.16 265.74 265.69 265.74 146.53 0 265.69-119.2 265.69-265.74 0-146.58-119.16-265.78-265.69-265.78zm-286.5 177.84c-109.03 0-197.76-88.922-197.76-198.19 0-109.27 88.734-198.24 197.76-198.24 109.31 0 198.24 88.922 198.24 198.19 0 18.281-2.6719 36.328-8.0625 54.422-18.141 65.484-70.031 117.52-135.94 135.89-17.531 5.25-35.719 7.9219-54.234 7.9219zm286.5 286.08c-109.27 0-198.19-88.922-198.19-198.19 0-12.469 1.2188-24.891 3.7031-37.031 2.4844-0.89062 4.7812-2.1094 7.2188-3.0938 3.9844-1.5938 7.875-3.2812 11.719-5.0156 5.8125-2.6719 11.484-5.5312 17.062-8.625 3.6562-2.0156 7.4062-4.0312 10.969-6.2344 5.625-3.4688 11.016-7.2188 16.359-11.109 3.1406-2.2969 6.375-4.4062 9.4688-6.8438 6.5625-5.1562 12.75-10.781 18.797-16.594 2.8125-2.7188 5.5312-5.4375 8.2031-8.25 5.6719-5.9062 11.156-12 16.219-18.469 2.7656-3.5156 5.25-7.2656 7.8281-10.922 3.4219-4.7812 6.8438-9.5625 9.8906-14.578 2.5312-4.0781 4.7812-8.25 7.0312-12.469 2.7188-5.0625 5.3438-10.172 7.7812-15.422 1.9688-4.2188 3.7969-8.5312 5.4844-12.844 0.9375-2.3438 2.1562-4.5938 3-7.0312 12.281-2.4375 24.844-3.7031 37.453-3.7031 109.31 0 198.24 88.922 198.24 198.19 0 109.27-88.922 198.24-198.24 198.24z"/>
 <path d="m484.78 368.06-71.578 94.969-40.594-32.438c-14.531-11.625-35.766-9.2344-47.438 5.2969-11.625 14.578-9.2812 35.812 5.2969 47.484l67.688 54.094c6 4.7812 13.453 7.4062 21.094 7.4062 1.4062 0 2.8125-0.09375 4.2188-0.28125 9.0469-1.125 17.25-5.8594 22.734-13.172l92.531-122.68c11.203-14.906 8.25-36.047-6.6562-47.297-14.906-11.203-36-8.2969-47.297 6.6094z"/>
 <path d="m793.45 673.78c-13.266-13.031-34.641-12.797-47.719 0.46875l-32.344 32.906-32.344-32.906c-13.078-13.219-34.406-13.453-47.719-0.46875-13.312 13.078-13.5 34.406-0.46875 47.719l33.188 33.844-33.188 33.844c-13.031 13.312-12.844 34.688 0.46875 47.719 6.5625 6.4688 15.094 9.6562 23.625 9.6562 8.7188 0 17.484-3.4219 24.094-10.125l32.344-32.906 32.344 32.906c6.6094 6.7031 15.375 10.125 24.094 10.125 8.5312 0 17.062-3.2344 23.625-9.6562 13.312-13.078 13.5-34.406 0.46875-47.719l-33.188-33.844 33.188-33.844c13.078-13.312 12.844-34.688-0.46875-47.719z"/>
</svg>
