<?xml version="1.0" encoding="UTF-8"?>
<svg width="1200pt" height="1200pt" version="1.1" viewBox="0 0 1200 1200" xmlns="http://www.w3.org/2000/svg">
 <path d="m623.9 759.24v-127.82h-125.06c-8.3906 0-15.188-6.7969-15.188-15.188v-50.156h-88.078c-8.3906 0-15.188-6.7969-15.188-15.188v-50.156h-52.922v389.16h52.922v-50.156c0-8.3906 6.7969-15.188 15.188-15.188h88.078v-50.156c0-8.3906 6.7969-15.188 15.188-15.188h125.06zm30.375-127.82v127.82h255.42c8.3906 0 15.188 6.7969 15.188 15.188s-6.7969 15.188-15.188 15.188h-395.68v100.31h395.68c8.3906 0 15.188 6.7969 15.188 15.188s-6.7969 15.188-15.188 15.188h-410.86c-8.3906 0-15.188-6.7969-15.188-15.188v-50.156h-72.891v100.31h520.69c8.3906 0 15.188 6.7969 15.188 15.188s-6.7969 15.188-15.188 15.188h-535.87c-8.3906 0-15.188-6.7969-15.188-15.188v-50.156h-68.109c-8.3906 0-15.188-6.7969-15.188-15.188v-194.58h-92.156c-8.3906 0-15.188-6.7969-15.188-15.188s6.7969-15.188 15.188-15.188h92.156v-194.58c0-8.3906 6.7969-15.188 15.188-15.188h68.109v-50.156c0-8.3906 6.7969-15.188 15.188-15.188h535.87c8.3906 0 15.188 6.7969 15.188 15.188s-6.7969 15.188-15.188 15.188h-520.69v100.31h72.891v-50.156c0-8.3906 6.7969-15.188 15.188-15.188h410.86c8.3906 0 15.188 6.7969 15.188 15.188s-6.7969 15.188-15.188 15.188h-395.68v100.31h395.68c8.3906 0 15.188 6.7969 15.188 15.188s-6.7969 15.188-15.188 15.188h-255.42zm-219.56-396.61c-8.3906 0-15.188-6.7969-15.188-15.188s6.7969-15.188 15.188-15.188h594.05c8.3906 0 15.188 6.7969 15.188 15.188s-6.7969 15.188-15.188 15.188zm-96.844-30.375c8.3906 0 15.188 6.7969 15.188 15.188s-6.7969 15.188-15.188 15.188h-0.046875c-8.3906 0-15.188-6.7969-15.188-15.188s6.7969-15.188 15.188-15.188zm-83.297 0c8.3906 0 15.188 6.7969 15.188 15.188s-6.7969 15.188-15.188 15.188h-0.046875c-8.3906 0-15.188-6.7969-15.188-15.188s6.7969-15.188 15.188-15.188zm-83.297 0c8.3906 0 15.188 6.7969 15.188 15.188s-6.7969 15.188-15.188 15.188h-0.046875c-8.3906 0-15.188-6.7969-15.188-15.188s6.7969-15.188 15.188-15.188zm-111.33 121.92h1080v722.34c0 5.9062-2.4375 11.297-6.3281 15.188s-9.2812 6.3281-15.188 6.3281h-1036.9c-5.9062 0-11.297-2.4375-15.188-6.3281s-6.3281-9.2812-6.3281-15.188l-0.046875-722.39zm1058.5-196.55h-1036.9c-5.9062 0-11.297 2.4375-15.188 6.3281s-6.3281 9.2812-6.3281 15.188v144.61h1080v-144.61c0-5.9062-2.4375-11.297-6.3281-15.188s-9.2812-6.3281-15.188-6.3281z" fill-rule="evenodd"/>
</svg>
