<?xml version="1.0" encoding="UTF-8"?>
<svg width="1200pt" height="1200pt" version="1.1" viewBox="0 0 1200 1200" xmlns="http://www.w3.org/2000/svg">
 <path d="m1058.5 0h-917.05c-46.418 0-84.168 37.754-84.168 84.156v1031.7c0 46.402 37.754 84.168 84.156 84.168h917.05c46.402 0 84.156-37.754 84.156-84.168v-1031.7c0.011719-46.402-37.738-84.156-84.145-84.156zm-21.145 1112.8c0.82812 1.2227 1.7773 2.207 2.8086 3h-41.594c1.1875-0.92578 2.2305-2.1133 3.0352-3.4922 4.4883-7.7773-1.1172-17.902-10.332-17.902-9.1445 0-15.277 9.8398-10.141 18.395 0.82813 1.2227 1.7773 2.207 2.7969 3h-41.629c1.1875-0.92578 2.2305-2.1133 3.0234-3.4922 4.5-7.7773-1.1055-17.902-10.332-17.902-9.1328 0-15.277 9.8398-10.129 18.395 0.81641 1.2227 1.7773 2.207 2.7969 3h-41.711c1.1875-0.92578 2.2305-2.1133 3.0234-3.4922 4.5-7.7773-1.1055-17.902-10.32-17.902-9.1562 0-15.289 9.8398-10.141 18.395 0.81641 1.2227 1.7773 2.207 2.7969 3h-41.594c1.1992-0.92578 2.2305-2.1133 3.0352-3.4922 4.4883-7.7773-1.1172-17.902-10.332-17.902-9.1445 0-15.277 9.8398-10.141 18.395 0.82812 1.2227 1.7773 2.207 2.8086 3h-41.641c1.1875-0.92578 2.2305-2.1133 3.0352-3.4922 4.4883-7.7773-1.1172-17.902-10.332-17.902-9.1445 0-15.277 9.8398-10.141 18.395 0.82813 1.2227 1.7773 2.207 2.7969 3h-41.664c1.1875-0.92578 2.2305-2.1133 3.0352-3.4922 4.4883-7.7773-1.1172-17.902-10.332-17.902-9.1445 0-15.277 9.8398-10.141 18.395 0.82812 1.2227 1.7773 2.207 2.7969 3h-41.578c1.1875-0.92578 2.2305-2.1133 3.0234-3.4922 4.4883-7.7773-1.1055-17.902-10.332-17.902-9.1445 0-15.277 9.8398-10.129 18.395 0.81641 1.2227 1.7656 2.207 2.7852 3h-41.629c1.1875-0.92578 2.2305-2.1133 3.0352-3.4922 4.4883-7.7773-1.1172-17.902-10.332-17.902-9.1445 0-15.277 9.8398-10.141 18.395 0.82812 1.2227 1.7773 2.207 2.7969 3h-41.844c1.1875-0.92578 2.2305-2.1133 3.0352-3.4922 4.4883-7.7773-1.1172-17.902-10.332-17.902-9.1445 0-15.289 9.8398-10.141 18.395 0.82812 1.2227 1.7773 2.207 2.7969 3h-41.578c1.1875-0.92578 2.2188-2.1133 3.0234-3.4922 4.4883-7.7773-1.1055-17.902-10.332-17.902-9.1328 0-15.277 9.8398-10.141 18.395 0.82812 1.2227 1.7773 2.207 2.8086 3h-41.629c1.1875-0.92578 2.2305-2.1133 3.0352-3.4922 4.4883-7.7773-1.1172-17.902-10.332-17.902-9.1445 0-15.277 9.8398-10.141 18.395 0.82812 1.2227 1.7773 2.207 2.7969 3h-41.664c1.1875-0.92578 2.2305-2.1133 3.0352-3.4922 4.4883-7.7773-1.1172-17.902-10.332-17.902-9.1445 0-15.277 9.8398-10.141 18.395 0.82812 1.2227 1.7773 2.207 2.8086 3h-41.594c1.1875-0.92578 2.2305-2.1133 3.0234-3.4922 4.5-7.7773-1.1055-17.902-10.332-17.902-9.1445 0-15.289 9.8398-10.141 18.395 0.82812 1.2227 1.7773 2.207 2.7969 3h-41.629c1.1875-0.92578 2.2305-2.1133 3.0352-3.4922 4.4883-7.7773-1.1172-17.902-10.332-17.902-9.1445 0-15.277 9.8398-10.141 18.395 0.82812 1.2227 1.7773 2.207 2.7969 3h-41.699c1.1992-0.92578 2.2305-2.1133 3.0352-3.4922 4.4883-7.7773-1.1172-17.902-10.332-17.902-9.1445 0-15.277 9.8398-10.141 18.395 0.82812 1.2227 1.7773 2.207 2.8086 3h-41.578c1.1875-0.92578 2.2305-2.1133 3.0352-3.4922 4.4883-7.7773-1.1172-17.902-10.332-17.902-2.0742 0-3.9844 0.52734-5.6523 1.4023l0.011719-35.16c5.6055 3.0703 12.707 1.0664 15.996-4.6211 4.4883-7.7773-1.1172-17.902-10.332-17.902-2.0742 0-3.9844 0.52734-5.6523 1.4141v-35.184c5.6055 3.0703 12.707 1.0781 15.996-4.6211 4.4883-7.7773-1.1172-17.891-10.332-17.891-2.0742 0-3.9844 0.52734-5.6523 1.4141l0.003906-35.168c5.6055 3.0703 12.707 1.0664 15.996-4.6211 4.4883-7.7773-1.1172-17.902-10.332-17.902-2.0742 0-3.9844 0.52734-5.6523 1.4023v-35.16c5.6055 3.0586 12.707 1.0547 15.996-4.6328 4.4883-7.7773-1.1172-17.891-10.332-17.891-2.0742 0-3.9844 0.51562-5.6523 1.4023v-35.184c5.6055 3.0703 12.707 1.0781 15.996-4.6211 0.3125-0.53906 0.5625-1.1055 0.78125-1.668h33.926c0.27734 0.73047 0.60156 1.4531 1.0312 2.1719 5.4961 8.1016 16.211 6.875 20.473-0.50391 0.3125-0.53906 0.5625-1.1055 0.78125-1.668h34.043c0.27734 0.73047 0.60156 1.4531 1.0312 2.1719 5.4961 8.1016 16.211 6.875 20.473-0.50391 0.3125-0.53906 0.5625-1.1055 0.78125-1.668h33.984c0.27734 0.73047 0.60156 1.4531 1.0312 2.1719 5.4961 8.1016 16.211 6.875 20.473-0.50391 0.3125-0.53906 0.57422-1.1055 0.79297-1.668h33.938c0.27734 0.73047 0.60156 1.4531 1.0312 2.1719 5.4961 8.1016 16.211 6.875 20.473-0.50391 0.3125-0.53906 0.5625-1.1055 0.78125-1.668h34.008c0.27734 0.73047 0.60156 1.4531 1.0312 2.1719 5.4961 8.1016 16.211 6.875 20.473-0.50391 0.3125-0.53906 0.5625-1.1055 0.78125-1.668h33.973c0.27734 0.73047 0.61328 1.4531 1.0312 2.1719 5.4961 8.1016 16.211 6.875 20.473-0.50391 0.3125-0.53906 0.57422-1.1055 0.78125-1.668h33.938c0.27734 0.73047 0.60156 1.4531 1.0312 2.1719 5.4961 8.1016 16.211 6.875 20.473-0.50391 0.3125-0.53906 0.5625-1.1055 0.78125-1.668h34.199c0.27734 0.73047 0.60156 1.4531 1.0312 2.1719 5.4961 8.1016 16.211 6.875 20.473-0.50391 0.3125-0.53906 0.5625-1.1055 0.78125-1.668h33.984c0.26562 0.73047 0.60156 1.4531 1.0312 2.1719 5.4844 8.1016 16.199 6.875 20.461-0.50391 0.3125-0.53906 0.57422-1.1055 0.79297-1.668h33.926c0.26562 0.73047 0.60156 1.4531 1.0312 2.1719 5.4961 8.1016 16.211 6.875 20.473-0.50391 0.30078-0.53906 0.5625-1.1055 0.78125-1.668h34.008c0.26562 0.73047 0.60156 1.4531 1.0312 2.1719 5.4961 8.1016 16.211 6.875 20.473-0.50391 0.30078-0.53906 0.5625-1.1055 0.78125-1.668h33.973c0.27734 0.73047 0.61328 1.4531 1.0312 2.1719 5.4961 8.1016 16.211 6.875 20.473-0.50391 0.3125-0.53906 0.57422-1.1055 0.78125-1.668h33.938c0.26562 0.73047 0.60156 1.4531 1.0312 2.1719 5.4844 8.1016 16.211 6.875 20.461-0.50391 0.3125-0.53906 0.57422-1.1055 0.79297-1.668h34.055c0.26562 0.73047 0.60156 1.4531 1.0312 2.1719 5.4844 8.1016 16.211 6.875 20.461-0.50391 0.3125-0.53906 0.57422-1.1055 0.79297-1.668h33.973c0.26563 0.73047 0.60156 1.4531 1.0312 2.1719 5.4961 8.1016 16.211 6.875 20.473-0.50391 0.30078-0.53906 0.5625-1.1055 0.78125-1.668h56.102v47.484c-1.7383-4.2109-5.7852-7.4297-10.992-7.4297-9.1445 0-15.277 9.8398-10.152 18.383 5.4961 8.1016 16.223 6.8984 20.473-0.49219 0.25391-0.43359 0.46875-0.88672 0.67188-1.3438v47.16c-1.7383-4.2109-5.7852-7.4297-10.992-7.4297-9.1445 0-15.277 9.8398-10.152 18.395 5.4961 8.0898 16.223 6.8867 20.473-0.49219 0.25391-0.44531 0.46875-0.88672 0.67188-1.3438v47.16c-1.7383-4.2109-5.7852-7.4297-10.992-7.4297-9.1445 0-15.277 9.8398-10.152 18.383 5.4961 8.1016 16.223 6.8867 20.473-0.49219 0.25391-0.43359 0.46875-0.88672 0.67188-1.332v47.16c-1.7383-4.2227-5.7852-7.4414-10.992-7.4414-9.1445 0-15.277 9.8398-10.152 18.395 5.4961 8.1016 16.223 6.8867 20.473-0.49219 0.25391-0.44531 0.46875-0.88672 0.67188-1.3438v47.16c-1.7383-4.1992-5.7852-7.4297-10.992-7.4297-9.1016 0.003906-15.242 9.8438-10.109 18.398zm-895.91-1028.7h917.05v687.79h-917.05zm916.38 1028.2c0.25391-0.44531 0.46875-0.88672 0.67188-1.3438v4.8359h-3.6953c1.1875-0.92578 2.2188-2.1016 3.0234-3.4922zm-590.94-28.355c-4.2617 7.3906-14.977 8.6055-20.473 0.50391-5.1484-8.543 0.99609-18.395 10.141-18.395 9.2266 0 14.816 10.125 10.332 17.891zm0-56.27c-4.2617 7.3789-14.977 8.5938-20.473 0.49219-5.1484-8.543 0.99609-18.395 10.141-18.395 9.2266-0.011719 14.816 10.117 10.332 17.902zm-28.129-84.215c-4.2617 7.3789-14.977 8.5781-20.473 0.49219-5.1484-8.5547 0.99609-18.395 10.141-18.395 9.2266 0 14.82 10.125 10.332 17.902zm56.266 112.56c-4.2617 7.3789-14.977 8.5938-20.473 0.49219-5.1484-8.5547 0.99609-18.395 10.141-18.395 9.2305 0 14.82 10.117 10.332 17.902zm-28.137-197.2c-4.2617 7.3789-14.977 8.5938-20.473 0.49219-5.1484-8.543 0.99609-18.383 10.141-18.383 9.2266 0 14.816 10.117 10.332 17.891zm0 56.293c-4.2617 7.3789-14.977 8.5938-20.473 0.49219-5.1484-8.543 0.99609-18.383 10.141-18.383 9.2266-0.011719 14.816 10.102 10.332 17.891zm0 56.281c-4.2617 7.3789-14.977 8.5781-20.473 0.49219-5.1484-8.5547 0.99609-18.395 10.141-18.395 9.2266-0.003906 14.816 10.125 10.332 17.902zm-56.293 56.277c-4.2617 7.3789-14.977 8.5938-20.473 0.49219-5.1484-8.543 0.99609-18.395 10.129-18.395 9.2266-0.011719 14.832 10.117 10.344 17.902zm0-56.277c-4.2617 7.3789-14.977 8.5781-20.473 0.49219-5.1484-8.5547 0.99609-18.395 10.129-18.395 9.2266-0.003906 14.832 10.125 10.344 17.902zm0 112.55c-4.2617 7.3906-14.977 8.6055-20.473 0.50391-5.1484-8.543 0.99609-18.395 10.129-18.395 9.2266 0 14.832 10.125 10.344 17.891zm28.164-84.215c-4.2617 7.3789-14.977 8.5938-20.473 0.49219-5.1484-8.543 0.99609-18.383 10.141-18.383 9.2266-0.003906 14.82 10.113 10.332 17.891zm-56.293-112.55c-4.2617 7.3906-14.977 8.5938-20.473 0.49219-5.1484-8.543 0.99609-18.383 10.141-18.383 9.2148-0.011719 14.82 10.105 10.332 17.891zm56.293 168.84c-4.2617 7.3789-14.977 8.5938-20.473 0.49219-5.1484-8.5547 0.99609-18.395 10.141-18.395 9.2266 0 14.82 10.117 10.332 17.902zm-28.164-197.2c-4.2617 7.3789-14.977 8.5938-20.473 0.49219-5.1484-8.543 0.99609-18.383 10.129-18.383 9.2266 0 14.832 10.117 10.344 17.891zm0 56.293c-4.2617 7.3789-14.977 8.5938-20.473 0.49219-5.1484-8.543 0.99609-18.383 10.129-18.383 9.2266-0.011719 14.832 10.102 10.344 17.891zm112.56 0c-4.2617 7.3789-14.988 8.5938-20.473 0.49219-5.1484-8.543 0.99609-18.383 10.141-18.383 9.2305-0.011719 14.82 10.102 10.332 17.891zm56.219 112.56c-4.2617 7.3789-14.977 8.5938-20.473 0.49219-5.1484-8.543 0.99609-18.395 10.141-18.395 9.2188-0.011719 14.82 10.117 10.332 17.902zm0 56.27c-4.2617 7.3906-14.977 8.6055-20.473 0.50391-5.1484-8.543 0.99609-18.395 10.141-18.395 9.2188 0 14.82 10.125 10.332 17.891zm-28.125-196.77c-4.2617 7.3906-14.988 8.5938-20.473 0.49219-5.1484-8.543 0.99609-18.383 10.141-18.383 9.2266-0.011719 14.82 10.105 10.332 17.891zm0 112.55c-4.2617 7.3789-14.988 8.5938-20.473 0.49219-5.1484-8.543 0.99609-18.383 10.141-18.383 9.2266-0.003906 14.82 10.113 10.332 17.891zm0-56.27c-4.2617 7.3789-14.988 8.5781-20.473 0.49219-5.1484-8.5547 0.99609-18.395 10.141-18.395 9.2266 0 14.82 10.125 10.332 17.902zm28.125-84.637c-4.2617 7.3789-14.977 8.5938-20.473 0.49219-5.1484-8.543 0.99609-18.383 10.141-18.383 9.2188 0 14.82 10.117 10.332 17.891zm0 112.57c-4.2617 7.3789-14.977 8.5781-20.473 0.49219-5.1484-8.5547 0.99609-18.395 10.141-18.395 9.2188-0.003906 14.82 10.125 10.332 17.902zm-84.348 28.332c-4.2617 7.3789-14.977 8.5938-20.473 0.49219-5.1484-8.543 0.99609-18.383 10.141-18.383 9.2305-0.003906 14.82 10.113 10.332 17.891zm84.348-84.613c-4.2617 7.3789-14.977 8.5938-20.473 0.49219-5.1484-8.543 0.99609-18.383 10.141-18.383 9.2188-0.011719 14.82 10.102 10.332 17.891zm-56.219 112.56c-4.2617 7.3789-14.988 8.5938-20.473 0.49219-5.1484-8.543 0.99609-18.395 10.141-18.395 9.2305-0.011719 14.82 10.117 10.332 17.902zm-28.129-140.5c-4.2617 7.3906-14.977 8.5938-20.473 0.49219-5.1484-8.543 0.99609-18.383 10.141-18.383 9.2305-0.011719 14.82 10.105 10.332 17.891zm28.129 196.77c-4.2617 7.3906-14.988 8.6055-20.473 0.50391-5.1484-8.543 0.99609-18.395 10.141-18.395 9.2305 0 14.82 10.125 10.332 17.891zm28.094-27.926c-4.2617 7.3789-14.988 8.5938-20.473 0.49219-5.1484-8.5547 0.99609-18.395 10.141-18.395 9.2266 0 14.82 10.117 10.332 17.902zm-56.223-112.56c-4.2617 7.3789-14.977 8.5781-20.473 0.49219-5.1484-8.5547 0.99609-18.395 10.141-18.395 9.2305 0 14.82 10.125 10.332 17.902zm28.129-84.637c-4.2617 7.3789-14.988 8.5938-20.473 0.49219-5.1484-8.543 0.99609-18.383 10.141-18.383 9.2305 0 14.82 10.117 10.332 17.891zm0 112.57c-4.2617 7.3789-14.988 8.5781-20.473 0.49219-5.1484-8.5547 0.99609-18.395 10.141-18.395 9.2305-0.003906 14.82 10.125 10.332 17.902zm-140.69-27.938c-4.2617 7.3789-14.977 8.5781-20.473 0.49219-5.1484-8.5547 0.99609-18.395 10.141-18.395 9.2148 0 14.82 10.125 10.332 17.902zm-196.91 140.48c-4.2617 7.3906-14.977 8.6055-20.473 0.50391-5.1484-8.543 0.99609-18.395 10.141-18.395 9.2148 0 14.816 10.125 10.332 17.891zm56.219-56.27c-4.2617 7.3789-14.988 8.5938-20.473 0.49219-5.1602-8.543 0.99609-18.395 10.129-18.395 9.2383-0.011719 14.832 10.117 10.344 17.902zm0-56.277c-4.2617 7.3789-14.988 8.5781-20.473 0.49219-5.1602-8.5547 0.99609-18.395 10.129-18.395 9.2383-0.003906 14.832 10.125 10.344 17.902zm-28.129-84.219c-4.2617 7.3906-14.977 8.5938-20.473 0.49219-5.1484-8.543 0.99609-18.383 10.141-18.383 9.2148-0.011719 14.82 10.105 10.332 17.891zm28.129 27.938c-4.2617 7.3789-14.988 8.5938-20.473 0.49219-5.1602-8.543 0.99609-18.383 10.129-18.383 9.2383-0.011719 14.832 10.102 10.344 17.891zm0 168.83c-4.2617 7.3906-14.988 8.6055-20.473 0.50391-5.1602-8.543 0.99609-18.395 10.129-18.395 9.2383 0 14.832 10.125 10.344 17.891zm28.199-84.215c-4.2617 7.3789-14.977 8.5938-20.473 0.49219-5.1484-8.543 0.99609-18.383 10.141-18.383 9.2148-0.003906 14.82 10.113 10.332 17.891zm0 56.289c-4.2617 7.3789-14.977 8.5938-20.473 0.49219-5.1484-8.5547 0.99609-18.395 10.141-18.395 9.2148 0 14.82 10.117 10.332 17.902zm-28.199-197.2c-4.2617 7.3789-14.988 8.5938-20.473 0.49219-5.1602-8.543 0.99609-18.383 10.129-18.383 9.2383 0 14.832 10.117 10.344 17.891zm28.199 84.637c-4.2617 7.3789-14.977 8.5781-20.473 0.49219-5.1484-8.5547 0.99609-18.395 10.141-18.395 9.2148 0 14.82 10.125 10.332 17.902zm-84.418 27.938c-4.2617 7.3789-14.977 8.5781-20.473 0.49219-5.1484-8.5547 0.99609-18.395 10.141-18.395 9.2148-0.003906 14.816 10.125 10.332 17.902zm0 56.277c-4.2617 7.3789-14.977 8.5938-20.473 0.49219-5.1484-8.543 0.99609-18.395 10.141-18.395 9.2148-0.011719 14.816 10.117 10.332 17.902zm0-112.56c-4.2617 7.3789-14.977 8.5938-20.473 0.49219-5.1484-8.543 0.99609-18.383 10.141-18.383 9.2148-0.011719 14.816 10.102 10.332 17.891zm422.17 140.9c-4.2617 7.3789-14.977 8.5938-20.473 0.49219-5.1484-8.5547 0.99609-18.395 10.141-18.395 9.2266 0 14.82 10.117 10.332 17.902zm-422.17-197.2c-4.2617 7.3789-14.977 8.5938-20.473 0.49219-5.1484-8.543 0.99609-18.383 10.141-18.383 9.2148 0 14.816 10.117 10.332 17.891zm28.09 140.91c-4.2617 7.3789-14.977 8.5938-20.473 0.49219-5.1484-8.543 0.99609-18.383 10.141-18.383 9.2148-0.003906 14.82 10.113 10.332 17.891zm0-56.27c-4.2617 7.3789-14.977 8.5781-20.473 0.49219-5.1484-8.5547 0.99609-18.395 10.141-18.395 9.2148 0 14.82 10.125 10.332 17.902zm0 112.56c-4.2617 7.3789-14.977 8.5938-20.473 0.49219-5.1484-8.5547 0.99609-18.395 10.141-18.395 9.2148 0 14.82 10.117 10.332 17.902zm84.457-140.9c-4.2617 7.3789-14.977 8.5938-20.473 0.49219-5.1484-8.543 0.99609-18.383 10.141-18.383 9.2266-0.011719 14.82 10.102 10.332 17.891zm56.266 56.281c-4.2617 7.3789-14.988 8.5781-20.473 0.49219-5.1484-8.5547 0.99609-18.395 10.141-18.395 9.2188-0.003906 14.82 10.125 10.332 17.902zm-28.137-27.938c-4.2461 7.3789-14.977 8.5781-20.473 0.49219-5.1484-8.5547 0.99609-18.395 10.141-18.395 9.2266 0 14.832 10.125 10.332 17.902zm28.137 84.215c-4.2617 7.3789-14.988 8.5938-20.473 0.49219-5.1484-8.543 0.99609-18.395 10.141-18.395 9.2188-0.011719 14.82 10.117 10.332 17.902zm-28.137-140.5c-4.2461 7.3906-14.977 8.5938-20.473 0.49219-5.1484-8.543 0.99609-18.383 10.141-18.383 9.2266-0.011719 14.832 10.105 10.332 17.891zm28.137 196.77c-4.2617 7.3906-14.988 8.6055-20.473 0.50391-5.1484-8.543 0.99609-18.395 10.141-18.395 9.2188 0 14.82 10.125 10.332 17.891zm28.094-27.926c-4.2617 7.3789-14.977 8.5938-20.473 0.49219-5.1484-8.5547 0.99609-18.395 10.141-18.395 9.2148 0 14.82 10.117 10.332 17.902zm-28.094-197.2c-4.2617 7.3789-14.988 8.5938-20.473 0.49219-5.1484-8.543 0.99609-18.383 10.141-18.383 9.2188 0 14.82 10.117 10.332 17.891zm0 56.293c-4.2617 7.3789-14.988 8.5938-20.473 0.49219-5.1484-8.543 0.99609-18.383 10.141-18.383 9.2188-0.011719 14.82 10.102 10.332 17.891zm-56.266 112.56c-4.2617 7.3789-14.977 8.5938-20.473 0.49219-5.1484-8.543 0.99609-18.395 10.141-18.395 9.2266-0.011719 14.82 10.117 10.332 17.902zm-28.129-140.5c-4.2617 7.3906-14.977 8.5938-20.473 0.49219-5.1484-8.543 0.99609-18.383 10.141-18.383 9.2148-0.011719 14.82 10.105 10.332 17.891zm28.129 196.77c-4.2617 7.3906-14.977 8.6055-20.473 0.50391-5.1484-8.543 0.99609-18.395 10.141-18.395 9.2266 0 14.82 10.125 10.332 17.891zm0-112.55c-4.2617 7.3789-14.977 8.5781-20.473 0.49219-5.1484-8.5547 0.99609-18.395 10.141-18.395 9.2266-0.003906 14.82 10.125 10.332 17.902zm28.129 84.621c-4.2461 7.3789-14.977 8.5938-20.473 0.49219-5.1484-8.5547 0.99609-18.395 10.141-18.395 9.2266 0 14.832 10.117 10.332 17.902zm56.23-56.289c-4.2617 7.3789-14.977 8.5938-20.473 0.49219-5.1484-8.543 0.99609-18.383 10.141-18.383 9.2148-0.003906 14.82 10.113 10.332 17.891zm-56.23 0c-4.2461 7.3789-14.977 8.5938-20.473 0.49219-5.1484-8.543 0.99609-18.383 10.141-18.383 9.2266-0.003906 14.832 10.113 10.332 17.891zm-28.129-140.91c-4.2617 7.3789-14.977 8.5938-20.473 0.49219-5.1484-8.543 0.99609-18.383 10.141-18.383 9.2266 0 14.82 10.117 10.332 17.891zm140.65 28.355c-4.2617 7.3906-14.977 8.5938-20.473 0.49219-5.1484-8.543 0.99609-18.383 10.141-18.383 9.2266-0.011719 14.82 10.105 10.332 17.891zm562.86 0c-4.2617 7.3906-14.977 8.5938-20.473 0.49219-5.1484-8.543 0.99609-18.383 10.141-18.383 9.2148-0.011719 14.82 10.105 10.332 17.891zm28.117 196.77c-4.2617 7.3906-14.977 8.6055-20.461 0.50391-5.1602-8.543 0.98438-18.395 10.129-18.395 9.2383 0 14.82 10.125 10.332 17.891zm-422-84.215c-4.2617 7.3789-14.977 8.5938-20.473 0.49219-5.1484-8.543 0.99609-18.383 10.141-18.383 9.2266-0.003906 14.82 10.113 10.332 17.891zm307.47-113.2c-47.461 0-85.969 38.52-85.969 85.98 0 47.461 38.508 85.969 85.969 85.969 47.461 0 85.969-38.508 85.969-85.969 0-47.457-38.508-85.98-85.969-85.98zm0 114.64c-15.781 0-28.668-12.863-28.668-28.656s12.875-28.656 28.668-28.656 28.656 12.863 28.656 28.656-12.875 28.656-28.656 28.656zm86.414 54.852c-4.2617 7.3789-14.977 8.5938-20.473 0.49219-5.1484-8.5547 0.99609-18.395 10.141-18.395 9.2148 0 14.82 10.117 10.332 17.902zm28.117-140.9c-4.2617 7.3789-14.977 8.5938-20.461 0.49219-5.1602-8.543 0.98438-18.383 10.129-18.383 9.2383-0.011719 14.82 10.102 10.332 17.891zm-727.88-257.84c0 25.344-20.496 45.828-45.781 45.828-25.414 0-45.898-20.484-45.898-45.828 0-25.355 20.484-45.84 45.898-45.84 25.285 0 45.781 20.484 45.781 45.84zm727.88 201.55c-4.2617 7.3789-14.977 8.5938-20.461 0.49219-5.1602-8.543 0.98438-18.383 10.129-18.383 9.2383 0 14.82 10.117 10.332 17.891zm-168.82 225.12c-4.2617 7.3906-14.988 8.6055-20.473 0.50391-5.1602-8.543 0.99609-18.395 10.141-18.395 9.2148 0 14.809 10.125 10.332 17.891zm-48.613-196.27c-5.1484-8.543 0.99609-18.383 10.141-18.383 9.2266 0 14.82 10.117 10.332 17.891-4.2617 7.3945-14.977 8.582-20.473 0.49219zm161.17 196.27c-4.2617 7.3906-14.977 8.6055-20.473 0.50391-5.1484-8.543 0.99609-18.395 10.141-18.395 9.2148 0 14.82 10.125 10.332 17.891zm-133.03-224.63c-5.1602-8.543 0.99609-18.383 10.141-18.383 9.2266 0 14.809 10.117 10.332 17.891-4.2617 7.3945-14.988 8.5938-20.473 0.49219zm112.56 0c-5.1484-8.543 0.99609-18.383 10.141-18.383 9.2266 0 14.82 10.117 10.332 17.891-4.2578 7.3945-14.977 8.5938-20.473 0.49219zm-56.34 0c-5.1484-8.543 0.99609-18.383 10.141-18.383 9.2266 0 14.82 10.117 10.332 17.891-4.2734 7.3945-14.977 8.5938-20.473 0.49219zm20.473 224.63c-4.2617 7.3906-14.977 8.6055-20.473 0.50391-5.1484-8.543 0.99609-18.395 10.141-18.395 9.2148 0 14.82 10.125 10.332 17.891zm-615.28-655.93c0 25.355-20.496 45.84-45.781 45.84-25.414 0-45.898-20.484-45.898-45.84s20.484-45.84 45.898-45.84c25.285 0 45.781 20.484 45.781 45.84zm530.92 628.01c-4.2617 7.3789-14.977 8.5938-20.473 0.49219-5.1484-8.5547 0.99609-18.395 10.141-18.395 9.2266 0 14.82 10.117 10.332 17.902zm42.238-513.37c0 25.355-20.496 45.84-45.781 45.84-25.414 0-45.898-20.484-45.898-45.84s20.484-45.84 45.898-45.84c25.285 0 45.781 20.484 45.781 45.84zm-114.64 114.62c0 25.344-20.484 45.828-45.781 45.828-25.414 0-45.898-20.484-45.898-45.828 0-25.355 20.484-45.84 45.898-45.84 25.301 0 45.781 20.484 45.781 45.84zm114.64-343.88c0 25.355-20.496 45.84-45.781 45.84-25.414 0-45.898-20.484-45.898-45.84 0-25.355 20.484-45.84 45.898-45.84 25.285-0.015625 45.781 20.469 45.781 45.84zm-114.64-114.64c0 25.355-20.484 45.84-45.781 45.84-25.414 0-45.898-20.496-45.898-45.84s20.484-45.84 45.898-45.84c25.301 0 45.781 20.484 45.781 45.84zm-458.52 0c0 25.355-20.496 45.84-45.781 45.84-25.414 0-45.898-20.496-45.898-45.84s20.484-45.84 45.898-45.84c25.285 0 45.781 20.484 45.781 45.84zm502.79 660.07c-4.2617 7.3789-14.977 8.5938-20.473 0.49219-5.1484-8.543 0.99609-18.383 10.141-18.383 9.2148 0 14.82 10.117 10.332 17.891zm184.99-201.55c0 25.344-20.484 45.828-45.781 45.828-25.402 0-45.887-20.484-45.887-45.828 0-25.355 20.484-45.84 45.887-45.84 25.297 0 45.781 20.484 45.781 45.84zm0-458.52c0 25.355-20.484 45.84-45.781 45.84-25.402 0-45.887-20.496-45.887-45.84s20.484-45.84 45.887-45.84c25.297 0 45.781 20.484 45.781 45.84zm0 229.26c0 25.355-20.484 45.84-45.781 45.84-25.402 0-45.887-20.484-45.887-45.84s20.484-45.84 45.887-45.84c25.297 0 45.781 20.484 45.781 45.84zm-229.26 0c0 25.355-20.484 45.84-45.781 45.84-25.414 0-45.898-20.484-45.898-45.84s20.484-45.84 45.898-45.84c25.301 0 45.781 20.484 45.781 45.84zm-229.26 229.26c0 25.344-20.484 45.828-45.781 45.828-25.414 0-45.898-20.484-45.898-45.828 0-25.355 20.484-45.84 45.898-45.84 25.297 0 45.781 20.484 45.781 45.84zm-114.64-343.88c0 25.355-20.484 45.84-45.781 45.84-25.402 0-45.887-20.484-45.887-45.84 0-25.355 20.484-45.84 45.887-45.84 25.297-0.015625 45.781 20.469 45.781 45.84zm0 229.26c0 25.355-20.484 45.84-45.781 45.84-25.402 0-45.887-20.484-45.887-45.84s20.484-45.84 45.887-45.84c25.297 0 45.781 20.484 45.781 45.84zm229.26-229.26c0 25.355-20.484 45.84-45.781 45.84-25.402 0-45.898-20.484-45.898-45.84 0-25.355 20.496-45.84 45.898-45.84 25.297-0.015625 45.781 20.469 45.781 45.84zm0 229.26c0 25.355-20.484 45.84-45.781 45.84-25.402 0-45.898-20.484-45.898-45.84s20.496-45.84 45.898-45.84c25.297 0 45.781 20.484 45.781 45.84zm-114.62-114.64c0 25.355-20.484 45.84-45.781 45.84-25.414 0-45.898-20.484-45.898-45.84s20.484-45.84 45.898-45.84c25.297 0 45.781 20.484 45.781 45.84zm0-229.26c0 25.355-20.484 45.84-45.781 45.84-25.414 0-45.898-20.496-45.898-45.84s20.484-45.84 45.898-45.84c25.297 0 45.781 20.484 45.781 45.84zm498.61 828.92c-4.2617 7.3789-14.977 8.5938-20.461 0.49219-5.1602-8.543 0.98438-18.395 10.129-18.395 9.2383-0.011719 14.82 10.117 10.332 17.902zm-365.74-84.215c-4.2617 7.3789-14.977 8.5781-20.461 0.49219-5.1602-8.5547 0.98438-18.395 10.129-18.395 9.2305 0 14.82 10.125 10.332 17.902zm0-56.281c-4.2617 7.3906-14.977 8.5938-20.461 0.49219-5.1602-8.543 0.98438-18.383 10.129-18.383 9.2305-0.011719 14.82 10.105 10.332 17.891zm28.129 196.77c-4.2461 7.3906-14.977 8.6055-20.461 0.50391-5.1484-8.543 0.98438-18.395 10.141-18.395 9.2148 0 14.82 10.125 10.32 17.891zm-28.129-27.926c-4.2617 7.3789-14.977 8.5938-20.461 0.49219-5.1602-8.5547 0.98438-18.395 10.129-18.395 9.2305 0 14.82 10.117 10.332 17.902zm0-56.289c-4.2617 7.3789-14.977 8.5938-20.461 0.49219-5.1602-8.543 0.98438-18.383 10.129-18.383 9.2305-0.003906 14.82 10.113 10.332 17.891zm28.129-84.613c-4.2461 7.3789-14.977 8.5938-20.461 0.49219-5.1484-8.543 0.98438-18.383 10.141-18.383 9.2148-0.011719 14.82 10.102 10.32 17.891zm0 112.56c-4.2461 7.3789-14.977 8.5938-20.461 0.49219-5.1484-8.543 0.98438-18.395 10.141-18.395 9.2148-0.011719 14.82 10.117 10.32 17.902zm0-56.277c-4.2461 7.3789-14.977 8.5781-20.461 0.49219-5.1484-8.5547 0.98438-18.395 10.141-18.395 9.2148-0.003906 14.82 10.125 10.32 17.902zm-56.27 0c-4.2461 7.3789-14.977 8.5781-20.473 0.49219-5.1484-8.5547 0.99609-18.395 10.141-18.395 9.2188-0.003906 14.82 10.125 10.332 17.902zm0 112.55c-4.2461 7.3906-14.977 8.6055-20.473 0.50391-5.1484-8.543 0.99609-18.395 10.141-18.395 9.2188 0 14.82 10.125 10.332 17.891zm-28.125-196.77c-4.2617 7.3906-14.977 8.5938-20.473 0.49219-5.1484-8.543 0.99609-18.383 10.141-18.383 9.2266-0.011719 14.82 10.105 10.332 17.891zm28.125-28.355c-4.2461 7.3789-14.977 8.5938-20.473 0.49219-5.1484-8.543 0.99609-18.383 10.141-18.383 9.2188 0 14.82 10.117 10.332 17.891zm-28.125 84.637c-4.2617 7.3789-14.977 8.5781-20.473 0.49219-5.1484-8.5547 0.99609-18.395 10.141-18.395 9.2266 0 14.82 10.125 10.332 17.902zm28.125-28.344c-4.2461 7.3789-14.977 8.5938-20.473 0.49219-5.1484-8.543 0.99609-18.383 10.141-18.383 9.2188-0.011719 14.82 10.102 10.332 17.891zm0 112.56c-4.2461 7.3789-14.977 8.5938-20.473 0.49219-5.1484-8.543 0.99609-18.395 10.141-18.395 9.2188-0.011719 14.82 10.117 10.332 17.902zm56.27-168.85c-4.2461 7.3789-14.977 8.5938-20.461 0.49219-5.1484-8.543 0.98438-18.383 10.141-18.383 9.2148 0 14.82 10.117 10.32 17.891zm84.395 197.2c-4.2617 7.3789-14.977 8.5938-20.473 0.49219-5.1484-8.5547 0.99609-18.395 10.141-18.395 9.2188 0 14.82 10.117 10.332 17.902zm0-112.56c-4.2617 7.3789-14.977 8.5781-20.473 0.49219-5.1484-8.5547 0.99609-18.395 10.141-18.395 9.2188 0 14.82 10.125 10.332 17.902zm0 56.27c-4.2617 7.3789-14.977 8.5938-20.473 0.49219-5.1484-8.543 0.99609-18.383 10.141-18.383 9.2188-0.003906 14.82 10.113 10.332 17.891zm-28.176-140.91c-4.2617 7.3789-14.977 8.5938-20.473 0.49219-5.1484-8.543 0.99609-18.383 10.141-18.383 9.2188 0 14.82 10.117 10.332 17.891zm56.305 56.293c-4.2617 7.3789-14.977 8.5938-20.473 0.49219-5.1484-8.543 0.99609-18.383 10.141-18.383 9.2148-0.011719 14.82 10.102 10.332 17.891zm-28.129-27.938c-4.2617 7.3906-14.977 8.5938-20.473 0.49219-5.1484-8.543 0.99609-18.383 10.141-18.383 9.2188-0.011719 14.82 10.105 10.332 17.891zm28.129 84.219c-4.2617 7.3789-14.977 8.5781-20.473 0.49219-5.1484-8.5547 0.99609-18.395 10.141-18.395 9.2148-0.003906 14.82 10.125 10.332 17.902zm0 56.277c-4.2617 7.3789-14.977 8.5938-20.473 0.49219-5.1484-8.543 0.99609-18.395 10.141-18.395 9.2148-0.011719 14.82 10.117 10.332 17.902zm0 56.27c-4.2617 7.3906-14.977 8.6055-20.473 0.50391-5.1484-8.543 0.99609-18.395 10.141-18.395 9.2148 0 14.82 10.125 10.332 17.891zm-56.305-56.27c-4.2617 7.3789-14.977 8.5938-20.473 0.49219-5.1484-8.543 0.99609-18.395 10.141-18.395 9.2188-0.011719 14.82 10.117 10.332 17.902zm-28.125-140.5c-4.2617 7.3906-14.977 8.5938-20.473 0.49219-5.1484-8.543 0.99609-18.383 10.141-18.383 9.2266-0.011719 14.832 10.105 10.332 17.891zm0 56.281c-4.2617 7.3789-14.977 8.5781-20.473 0.49219-5.1484-8.5547 0.99609-18.395 10.141-18.395 9.2266 0 14.832 10.125 10.332 17.902zm28.125-28.344c-4.2617 7.3789-14.977 8.5938-20.473 0.49219-5.1484-8.543 0.99609-18.383 10.141-18.383 9.2188-0.011719 14.82 10.102 10.332 17.891zm-28.125 84.613c-4.2617 7.3789-14.977 8.5938-20.473 0.49219-5.1484-8.543 0.99609-18.383 10.141-18.383 9.2266-0.003906 14.832 10.113 10.332 17.891zm28.125-28.332c-4.2617 7.3789-14.977 8.5781-20.473 0.49219-5.1484-8.5547 0.99609-18.395 10.141-18.395 9.2188-0.003906 14.82 10.125 10.332 17.902zm-28.125 84.621c-4.2617 7.3789-14.977 8.5938-20.473 0.49219-5.1484-8.5547 0.99609-18.395 10.141-18.395 9.2266 0 14.832 10.117 10.332 17.902zm28.125 27.926c-4.2617 7.3906-14.977 8.6055-20.473 0.50391-5.1484-8.543 0.99609-18.395 10.141-18.395 9.2188 0 14.82 10.125 10.332 17.891z"/>
</svg>
