<?xml version="1.0" encoding="UTF-8"?>
<svg width="1200pt" height="1200pt" version="1.1" viewBox="0 0 1200 1200" xmlns="http://www.w3.org/2000/svg">
 <path d="m1082.3 146.06h-213v-45.375c0-33.469-27.234-60.703-60.703-60.703l-417.14-0.046875c-33.469 0-60.703 27.234-60.703 60.703v45.375l-213.05 0.046875c-25.547 0-46.312 20.766-46.312 46.312v736.31c0 25.547 20.766 46.312 46.312 46.312h361.92v70.219l-50.625 26.297c-1.5469 0.70312-3 1.5469-4.5469 2.2969-14.391 7.3125-34.219 17.297-34.219 41.297 0 24.844 20.297 45.141 45.141 45.141h329.29c24.844 0 45.141-20.297 45.141-45.141 0-24-19.781-33.938-34.219-41.297-1.4531-0.70312-3-1.5469-4.5469-2.2969l-50.625-26.297v-70.219h361.92c25.547 0 46.312-20.766 46.312-46.312l-0.046875-736.31c0-25.594-20.766-46.312-46.312-46.312zm0 27.797c10.078 0 18.375 8.2969 18.375 18.375v620.86l-231.37 0.046875v-639.28zm-690.84-106.08h417c18.141 0 32.859 14.766 32.859 32.859v712.55l-482.63 0.046875v-712.55c0-18.141 14.625-32.906 32.766-32.906zm-273.74 106.08h213v639.24l-231.32 0.046875v-620.76c0-10.219 8.25-18.516 18.328-18.516zm582.37 891.98 58.219 30.234c1.5469 0.84375 3.2344 1.6875 4.7812 2.3906 14.391 7.3125 18.844 10.453 18.844 16.312 0 9.4688-7.6875 17.297-17.297 17.297h-329.26c-9.4688 0-17.297-7.6875-17.297-17.297 0-5.8594 4.4531-9.1406 18.844-16.312 1.5469-0.84375 3.2344-1.5469 4.7812-2.3906l58.219-30.234c4.5469-2.3906 7.5469-7.2188 7.5469-12.375v-78.609h185.06v78.609c0 5.2969 2.8594 9.9844 7.5469 12.375zm382.22-118.78h-964.6c-10.078 0-18.375-8.2969-18.375-18.375v-87.609h1001.3v87.609c0 10.078-8.25 18.375-18.328 18.375zm-689.06-501.52c0-7.6875 6.2344-13.922 13.922-13.922h369c7.6875 0 13.922 6.2344 13.922 13.922s-6.2344 13.922-13.922 13.922h-369c-7.6875 0-13.922-6.2344-13.922-13.922zm225.37-93.234h157.55c7.6875 0 13.922 6.2344 13.922 13.922s-6.2344 13.922-13.922 13.922h-157.55c-7.6875 0-13.922-6.2344-13.922-13.922s6.2344-13.922 13.922-13.922zm-225.37 181.08c0-7.6875 6.2344-13.922 13.922-13.922h369c7.6875 0 13.922 6.2344 13.922 13.922s-6.2344 13.922-13.922 13.922h-369c-7.6875 0-13.922-6.2344-13.922-13.922zm0 87.844c0-7.6875 6.2344-13.922 13.922-13.922h369c7.6875 0 13.922 6.2344 13.922 13.922s-6.2344 13.922-13.922 13.922h-369c-7.6875 0-13.922-6.2344-13.922-13.922zm0 87.844c0-7.6875 6.2344-13.922 13.922-13.922h369c7.6875 0 13.922 6.2344 13.922 13.922s-6.2344 13.922-13.922 13.922h-369c-7.6875 0-13.922-6.2344-13.922-13.922zm55.547-479.39c0-7.6875 6.2344-13.922 13.922-13.922h34.219v-34.219c0-7.6875 6.2344-13.922 13.922-13.922s13.922 6.2344 13.922 13.922v34.219h34.219c7.6875 0 13.922 6.2344 13.922 13.922s-6.2344 13.922-13.922 13.922h-34.219v34.219c0 7.6875-6.2344 13.922-13.922 13.922s-13.922-6.2344-13.922-13.922v-34.219h-34.219c-7.6406 0-13.922-6.2344-13.922-13.922zm62.062 117c64.547 0 117-52.453 117-117s-52.453-117-117-117c-64.547 0-117 52.453-117 117s52.453 117 117 117zm0-206.16c49.219 0 89.156 39.938 89.156 89.156s-39.938 89.156-89.156 89.156-89.156-39.938-89.156-89.156 39.938-89.156 89.156-89.156z"/>
</svg>
