<?xml version="1.0" encoding="UTF-8"?>
<svg width="1200pt" height="1200pt" version="1.1" viewBox="0 0 1200 1200" xmlns="http://www.w3.org/2000/svg">
 <path d="m1049.6 145.13c-54-54-141.84-53.953-195.79 0l-659.86 659.81c-1.5469 1.5469-2.7188 3.4219-3.6094 5.4375l-0.42188 0.84375c-0.09375 0.1875-0.23438 0.375-0.28125 0.60938l-88.594 258.98c-2.2031 6.5156-0.5625 13.688 4.3125 18.562 3.4219 3.4219 8.0156 5.25 12.75 5.25 1.9688 0 3.9375-0.32812 5.8125-0.98438l258.94-88.641 0.5625-0.28125c0.32812-0.14062 0.60938-0.28125 0.89062-0.42188 1.9688-0.89062 3.8438-2.0625 5.4375-3.6094l629.95-629.9 29.906-29.906c54-53.953 54-141.79 0-195.74zm-25.453 25.453c39.938 39.938 39.938 104.95 0 144.89l-17.156 17.156-144.89-144.89 17.156-17.156c39.938-39.938 104.95-39.938 144.89 0zm-647.11 792-144.89-144.89 604.5-604.5 144.89 144.89zm-162.66-111.75 129.52 129.52-196.92 67.406z"/>
</svg>
