<?xml version="1.0" encoding="UTF-8"?>
<svg width="1200pt" height="1200pt" version="1.1" viewBox="0 0 1200 1200" xmlns="http://www.w3.org/2000/svg">
 <path d="m901.49 412.49c9.9805-0.16016 19.898-1.5625 29.527-4.1797v-13.562c-0.023437-2.7891 0.75391-5.5234 2.2383-7.8828 1.4883-2.3594 3.625-4.2422 6.1523-5.418 4.8203-2.1758 9.4492-4.7539 13.832-7.7109 2.3945-1.5312 5.1602-2.375 8-2.4414 2.8398-0.066406 5.6406 0.64844 8.1016 2.0625l12.152 6.7852v0.003907c14.93-14.133 25.66-32.117 31.008-51.969l-21.066-11.762c2.1562-10.84 2.1562-21.996 0-32.836l21.062-11.762c-5.3242-19.855-16.031-37.852-30.941-52.004l-12.211 6.8203h-0.003906c-2.4609 1.418-5.2617 2.1328-8.1016 2.0664-2.8398-0.066406-5.6094-0.91016-8-2.4414-4.3828-2.957-9.0117-5.5352-13.832-7.7109-2.5273-1.1797-4.6641-3.0586-6.1523-5.418-1.4883-2.3594-2.2617-5.0977-2.2383-7.8867v-13.613c-20.309-5.5312-41.734-5.5117-62.035 0.054688v13.559c0.027343 2.7891-0.75 5.5273-2.2383 7.8867-1.4883 2.3594-3.6211 4.2383-6.1484 5.418-4.8203 2.1758-9.4492 4.7539-13.832 7.7109-2.3906 1.5312-5.1602 2.375-8 2.4414-2.8398 0.066406-5.6406-0.64844-8.1016-2.0664l-12.152-6.7852c-14.93 14.133-25.66 32.117-31.008 51.969l21.066 11.762c-2.1562 10.84-2.1562 21.996 0 32.836l-21.062 11.762v-0.003907c5.3203 19.859 16.027 37.855 30.941 52.004l12.215-6.8203c2.4609-1.4141 5.2617-2.1289 8.1016-2.0625 2.8398 0.066406 5.6055 0.91016 8 2.4414 4.3828 2.957 9.0117 5.5352 13.832 7.7109 2.5273 1.1758 4.6602 3.0586 6.1484 5.418 1.4883 2.3594 2.2656 5.0938 2.2383 7.8828v13.617c10.598 2.8555 21.535 4.2422 32.508 4.125zm-49.703-112.49c0-12.789 5.082-25.051 14.121-34.094 9.043-9.0391 21.305-14.121 34.094-14.121s25.051 5.082 34.094 14.121c9.0391 9.043 14.121 21.305 14.121 34.094s-5.082 25.051-14.121 34.094c-9.043 9.0391-21.305 14.121-34.094 14.121-12.785 0-25.051-5.082-34.094-14.121-9.0391-9.043-14.121-21.309-14.121-34.094z"/>
 <path d="m468.75 1125h168.75c29.836 0 58.453-11.852 79.551-32.949 21.098-21.098 32.949-49.715 32.949-79.551v-93.75l131.25-37.5-112.5-187.5v-131.25c0-94.484-37.535-185.1-104.34-251.91s-157.42-104.34-251.91-104.34h-37.5c-94.484 0-185.1 37.535-251.91 104.34s-104.34 157.42-104.34 251.91v618.75h450zm-65.625-843.75h42.117c57.695 0.027344 113.43 20.922 156.93 58.828 43.496 37.91 71.809 90.27 79.719 147.42h-91.266c-4.9727 0-9.7422 1.9766-13.258 5.4922-3.5156 3.5156-5.4922 8.2852-5.4922 13.258v18.75c0 6.6992-3.5742 12.887-9.375 16.238-5.8008 3.3477-12.949 3.3477-18.75 0-5.8008-3.3516-9.375-9.5391-9.375-16.238v-18.75c0-4.9727-1.9766-9.7422-5.4922-13.258-3.5156-3.5156-8.2852-5.4922-13.258-5.4922h-112.5v-37.5c20.098 0 38.664-10.723 48.715-28.125 10.047-17.402 10.047-38.848 0-56.25-10.051-17.402-28.617-28.125-48.715-28.125zm-37.5 0.94531v74.055c0 4.9727 1.9766 9.7422 5.4922 13.258 3.5156 3.5156 8.2852 5.4922 13.258 5.4922h18.75c6.6992 0 12.887 3.5742 16.238 9.375 3.3477 5.8008 3.3477 12.949 0 18.75-3.3516 5.8008-9.5391 9.375-16.238 9.375h-18.75c-4.9727 0-9.7422 1.9766-13.258 5.4922-3.5156 3.5156-5.4922 8.2852-5.4922 13.258v56.25h-56.25c0-20.098-10.723-38.664-28.125-48.715-17.402-10.047-38.848-10.047-56.25 0-17.402 10.051-28.125 28.617-28.125 48.715h-97.352c18.77-56.891 54.148-106.85 101.58-143.45 47.43-36.594 104.73-58.137 164.52-61.859zm0 468.45c-35.395 33.504-64.711 72.887-86.652 116.4l-17.961 35.918h0.003906c-5.1875 10.379-13.164 19.102-23.031 25.203-9.8672 6.0977-21.238 9.3281-32.84 9.3281-15.227 0-29.926-5.5625-41.34-15.637-11.414-10.074-18.754-23.973-20.645-39.082l-6.6289-53.023v0.003907c-3.5039-28.062-10.527-55.574-20.895-81.887-20.18-51.199-30.762-105.68-31.215-160.71l-0.046875-5.9141c0.050781-18.879 1.875-37.711 5.4531-56.25h125.8c4.9727 0 9.7422-1.9766 13.258-5.4922 3.5156-3.5156 5.4922-8.2852 5.4922-13.258v-18.75c0-6.6992 3.5742-12.887 9.375-16.238 5.8008-3.3477 12.949-3.3477 18.75 0 5.8008 3.3516 9.375 9.5391 9.375 16.238v18.75c0 4.9727 1.9766 9.7422 5.4922 13.258 3.5156 3.5156 8.2852 5.4922 13.258 5.4922h75v37.5c-20.098 0-38.664 10.723-48.715 28.125-10.047 17.402-10.047 38.848 0 56.25 10.051 17.402 28.617 28.125 48.715 28.125zm37.5-31.617v-62.781c0-4.9727-1.9766-9.7422-5.4922-13.258-3.5156-3.5156-8.2852-5.4922-13.258-5.4922h-18.75c-6.6992 0-12.887-3.5742-16.238-9.375-3.3477-5.8008-3.3477-12.949 0-18.75 3.3516-5.8008 9.5391-9.375 16.238-9.375h18.75c4.9727 0 9.7422-1.9766 13.258-5.4922 3.5156-3.5156 5.4922-8.2852 5.4922-13.258v-56.25h93.75c0 20.098 10.723 38.664 28.125 48.715 17.402 10.047 38.848 10.047 56.25 0 17.402-10.051 28.125-28.617 28.125-48.715h74.75c-1.332 32.871-13.289 64.418-34.082 89.914-20.789 25.492-49.289 43.555-81.219 51.473l-107.44 26.859h-0.003907c-20.746 5.207-40.453 13.93-58.258 25.789z"/>
 <path d="m1087.5 300c0-49.727-19.754-97.418-54.918-132.58-35.164-35.164-82.855-54.918-132.58-54.918s-97.418 19.754-132.58 54.918c-35.164 35.164-54.918 82.855-54.918 132.58s19.754 97.418 54.918 132.58c35.164 35.164 82.855 54.918 132.58 54.918 49.711-0.054688 97.371-19.828 132.52-54.98 35.152-35.148 54.926-82.809 54.98-132.52zm-337.5 0c0-39.781 15.805-77.938 43.934-106.07s66.285-43.934 106.07-43.934 77.938 15.805 106.07 43.934 43.934 66.285 43.934 106.07-15.805 77.938-43.934 106.07-66.285 43.934-106.07 43.934c-39.77-0.046875-77.895-15.863-106.02-43.984s-43.938-66.246-43.984-106.02z"/>
 <path d="m900 18.75c-67.57 0.24609-132.82 24.703-183.89 68.938s-84.609 105.32-94.508 172.16l37.117 5.3086-0.003906 0.003906c7.2734-50.109 29.98-96.707 64.961-133.32s80.5-61.406 130.23-70.945c49.727-9.543 101.19-3.3477 147.24 17.715 46.043 21.062 84.383 55.949 109.68 99.812 25.301 43.859 36.305 94.512 31.484 144.92-4.8242 50.402-25.23 98.051-58.387 136.32-33.156 38.27-77.414 65.254-126.62 77.207-49.203 11.949-100.91 8.2734-147.93-10.52l-13.953 34.809v-0.003906c51.469 20.609 107.88 25.547 162.15 14.195 54.266-11.352 103.96-38.488 142.86-77.996 38.891-39.512 65.242-89.633 75.738-144.07 10.496-54.438 4.6719-110.77-16.746-161.9-21.414-51.137-57.465-94.805-103.62-125.52-46.156-30.715-100.36-47.105-155.8-47.109z"/>
</svg>
