<?xml version="1.0" encoding="UTF-8"?>
<svg width="1200pt" height="1200pt" version="1.1" viewBox="0 0 1200 1200" xmlns="http://www.w3.org/2000/svg">
 <path d="m639.42 23.844c-209.63 0-379.56 379.93-379.56 693.14 0 313.25 169.93 441.19 379.56 441.19 209.64 0 379.59-127.93 379.59-441.19-0.003906-313.21-169.95-693.14-379.59-693.14zm-320.75 497.98c5.1836 0 9.3828 7.7773 9.3828 17.352s-4.1992 17.352-9.3828 17.352c-5.1719 0-9.3711-7.7773-9.3711-17.352s4.1992-17.352 9.3711-17.352zm-34.453 210.37c0-18.781 8.2305-34.008 18.371-34.008 10.152 0 18.383 15.227 18.383 34.008s-8.2305 33.996-18.383 33.996c-10.137 0-18.371-15.215-18.371-33.996zm37.035 134.41c-6.7422 1.2852-12.996-1.7773-14.941-11.867-1.9336-10.078 1.1992-23.328 7.9336-24.637 6.7578-1.2852 14.555 9.875 16.488 19.945 1.9531 10.102-2.7266 15.262-9.4805 16.559zm20.602-434.34c4.3906-18.469 19.754-38.496 32.113-35.555 12.371 2.9531 17.062 27.758 12.684 46.223-4.4023 18.492-16.223 23.652-28.598 20.723-12.371-2.9648-20.602-12.887-16.199-31.391zm36.59 195.02c0 10.273-5.5664 14.461-12.445 14.461-6.8633 0-12.434-4.1875-12.434-14.461 0-10.246 5.5664-22.703 12.434-22.703 6.875 0.011718 12.445 12.453 12.445 22.703zm0.28516 373.41c-8.7461 4.7148-18.719 3.1797-25.754-9.9102-7.0195-13.078-8.4492-32.746 0.30078-37.453 8.7461-4.7148 24.383 7.3438 31.402 20.438 7.0352 13.066 2.8125 22.223-5.9492 26.926zm25.719-198.95c-12.492 2.3164-24.047-3.4219-27.516-22.117-3.4688-18.684 2.4727-43.223 14.965-45.527 12.504-2.3164 26.844 18.457 30.301 37.141 3.4766 18.656-5.2461 28.188-17.75 30.504zm9.8047-256.5c-6.8633 0-12.434-4.1875-12.434-14.461 0-10.262 5.5664-22.703 12.434-22.703 6.875 0 12.445 12.445 12.445 22.703-0.003907 10.27-5.5703 14.461-12.445 14.461zm58.199 72.336c-3.2383-18.863 3.0703-43.477 15.684-45.648 12.625-2.1719 26.785 18.938 30.012 37.789 3.2266 18.852-5.6758 28.309-18.277 30.48-12.625 2.168-24.18-3.7812-27.418-22.621zm70.477 297.59c-6.8633 0-12.434-4.1992-12.434-14.461 0-10.246 5.5664-22.703 12.434-22.703 6.875 0 12.445 12.445 12.445 22.703-0.015625 10.262-5.582 14.461-12.445 14.461zm-8.8828-94.211c-15.613 0-28.273-9.5273-28.273-32.879 0-23.328 12.66-51.648 28.273-51.648s28.285 28.309 28.285 51.648c0 23.352-12.672 32.879-28.285 32.879zm51.973-255.09c0-17.531 9.5039-38.797 21.238-38.797 11.746 0 21.266 21.266 21.266 38.797 0 17.555-9.5156 24.719-21.266 24.719-11.734 0.003907-21.238-7.1602-21.238-24.719zm37.32 349.3c-6.8633 0-12.434-4.1992-12.434-14.461 0-10.246 5.5664-22.703 12.434-22.703 6.8633 0 12.445 12.445 12.445 22.703 0 10.262-5.5703 14.461-12.445 14.461zm48.254-126.38c-19.586 0-35.484-11.965-35.484-41.27 0-29.27 15.898-64.801 35.484-64.801 19.609 0 35.496 35.531 35.496 64.801 0 29.305-15.891 41.27-35.496 41.27zm201.39-7.6094c-12.527 0-22.715-7.6445-22.715-26.41 0-18.742 10.188-41.484 22.715-41.484 12.574 0 22.738 22.754 22.738 41.484 0 18.766-10.164 26.41-22.738 26.41zm93.238 94.992c-3.5156 18.695-15.07 24.406-27.574 22.066-12.469-2.3516-21.18-11.891-17.664-30.574 3.5039-18.648 17.902-39.371 30.371-37.055 12.504 2.3516 18.371 26.902 14.867 45.562zm8.0156-170.46c-15.996 1.1523-29.676-7.6797-31.367-31.621-1.7148-23.902 9.1914-53.82 25.164-54.973 16.031-1.1523 31.078 26.941 32.785 50.844 1.7031 23.918-10.57 34.625-26.582 35.75z"/>
</svg>
