<?xml version="1.0" encoding="UTF-8"?>
<svg width="1200pt" height="1200pt" version="1.1" viewBox="0 0 1200 1200" xmlns="http://www.w3.org/2000/svg">
 <path d="m316.8 762c36.719-32.281 54.48-79.199 88.559-142.68 34.078-63.48 107.16-153.72 107.16-153.72s7.1992 19.68 1.4414 50.16c0 0 39.238-48.48 101.4-93.84 55.922-40.922 125.16-58.559 206.52-59.039 0 0-54.48 90.121-96.84 149.52-73.68 103.44-234.12 183-338.52 237.12 0 0 89.398-113.4 152.16-170.16 62.762-56.762 134.4-130.8 179.04-154.8 0 0-78.238 18.121-258.96 206.4-101.04 105.24-112.44 168-336.72 269.28l-54.961-2.1602c0-0.003906 152.88-50.883 249.72-136.08z"/>
 <path d="m911.76 519.36s-84 86.398-207.36 118.2c-4.9219 1.1992-5.3984 8.0391-0.71875 9.9609 10.68 4.5586 29.762 14.52 41.641 13.32 0 0-154.44 118.2-295.32 187.56-7.1992 3.6016-9.9609 12.719-5.2812 19.199 5.8789 8.1602 53.281 31.441 100.56 31.922 72.602 0.83984 287.16-13.32 354.36-276.84 0 0 167.76-202.44 233.28-307.2l-23.398-15.84s-349.92 541.68-538.32 544.92c-0.003906-0.003906 201.84-77.164 340.56-325.2z"/>
</svg>
