<?xml version="1.0" encoding="UTF-8"?>
<svg width="1200pt" height="1200pt" version="1.1" viewBox="0 0 1200 1200" xmlns="http://www.w3.org/2000/svg">
 <path d="m1114.5 720.89c-4.7734-10.039-5.3125-26.523-5.9375-45.613-0.75-22.926-1.6758-51.477-10.039-82.977-3.4141-12.863-5.1875-25.863-6.8984-38.426-5.9883-43.949-12.176-89.387-85.574-140.86-43.25-30.336-70.625-60.461-87.289-83.227 13.586-46.301 75.836-183.57 109.34-254.88l6.2734-13.363h-329.5l-2.0078 6.6562c-0.52344 1.75-53.25 175.15-81.012 220.96-10.512 17.34-17.312 31.902-21.863 43.715-4.5508-11.812-11.352-26.363-21.863-43.711-27.762-45.812-80.473-219.21-81.012-220.96l-2.0234-6.6484h-329.5l6.2734 13.363c33.512 71.336 95.824 208.75 109.36 254.96-16.625 22.688-43.949 52.727-87.324 83.137-73.387 51.477-79.574 96.914-85.562 140.86-1.7109 12.562-3.4766 25.551-6.8984 38.426-8.3516 31.5-9.2891 60.039-10.023 82.961-0.625 19.102-1.1641 35.586-5.9492 45.625-2.8125 5.8984-6.75 12.176-10.551 18.238-11.461 18.262-27.164 43.289-2.5625 58.836 3.6133 2.2734 7.7734 3.4141 12.449 3.4141 5.125 0 10.863-1.3633 17.188-4.0859 33.074-14.273 79.5-64.773 87.562-106.09 1.8125-9.3125 5.4766-18.648 10.211-27.977 1.9609 51.988 8.25 156.9 28 236.79 36.301 146.8 63.262 227.46 99.562 227.46 1.1367 0 2.3008-0.074218 3.4492-0.23828 9.9492-1.375 18.414-6.9141 24.477-16.012 4.9492-7.4375 8.3516-17.512 10.301-29.738 16.273 24.262 43.5 56.074 74.613 56.074 6.0391 0 12.227-1.1992 18.5-3.8867 8.2891-3.5508 14.625-8.5859 19.199-14.852 8.8008 8.9258 22.613 19.664 38.488 19.664 2.7266 0 5.5117-0.3125 8.3359-1.0234 10.875-2.6875 19.199-8.7266 24.762-17.961 10.086-16.75 10.414-43.176 1.0234-80.75-1.8516-7.3984-3.6758-15.199-5.4766-23.148 5.7383 2.4375 12.426 4.25 20.227 4.25 1.7891 0 3.625-0.085938 5.5117-0.27344 15.562-1.5859 24.387-8.4492 29.211-18.574 4.8242 10.125 13.648 16.977 29.211 18.574 1.8867 0.19922 3.7266 0.27344 5.5117 0.27344 7.8008 0 14.477-1.8125 20.227-4.25-1.7891 7.9492-3.625 15.75-5.4766 23.148-9.3867 37.586-9.0625 64 1.0234 80.75 5.5625 9.2383 13.887 15.273 24.75 17.961 2.8359 0.69922 5.6133 1.0234 8.3359 1.0234 15.875 0 29.688-10.738 38.5-19.664 4.5742 6.2617 10.914 11.301 19.199 14.852 6.2734 2.6875 12.461 3.8867 18.5 3.8867 31.102 0 58.336-31.801 74.613-56.062 1.9492 12.227 5.3516 22.301 10.301 29.738 6.0625 9.1016 14.539 14.637 24.477 16.012 1.1641 0.16406 2.3125 0.23828 3.4492 0.23828 36.301 0 63.262-80.664 99.551-227.46 19.762-79.887 26.039-184.8 28-236.79 4.7383 9.3242 8.3984 18.664 10.227 27.977 8.0508 41.301 54.477 91.801 87.551 106.09 6.3242 2.7266 12.074 4.1016 17.188 4.1016 4.6875 0 8.8516-1.1367 12.461-3.4258 24.602-15.551 8.8984-40.562-2.5742-58.824-3.7227-6.0898-7.6602-12.363-10.473-18.266zm-524.39-92c-0.75 48.227-7.8008 103.44-12 136.44-2.3359 18.324-3.4609 27.336-3.4609 31.812 0 4.2266 0.23828 9.4258 0.5 14.898 0.48828 10.324 1.0742 23.164-0.26172 29.227-1.7266 7.7109-0.13672 20.762 3.3242 47.211 1.8242 13.988 4.1133 31.398 5.9609 50.438 5.125 52.363 1.3359 60.273-15.301 61.977-15.75 1.5234-26.086-7.8242-29.426-11.398-8.2266-40.086-14.512-78.539-15.062-88.688-0.375-6.9258-3.7109-18.352-8.3359-34.137-6.5234-22.336-15.477-52.926-16.164-74.977l-18.738 0.60156c0.77344 24.426 9.7109 55.039 16.914 79.637 3.7734 12.926 7.3516 25.137 7.6016 29.898 0.89844 16.711 13.738 89.75 26.664 141.45 9.9766 39.926 6.1016 58.227 1.1016 66.551-2.9766 4.9492-7.1758 7.9375-13.199 9.4258-13.148 3.2891-27.852-11.25-34.664-19.852 3.1641-23.887-10.137-53.051-21.113-77.113-4.5859-10.039-8.9141-19.523-11.137-26.676-4.0625-13.086-9.1758-27.176-14.125-40.801-5.9883-16.488-14.188-39.074-13.914-44.176 0.55078-4.9883-1.25-14.039-5.3516-34.023-5.4258-26.438-13.625-66.387-10.188-82.688l-18.352-3.875c-3.9258 18.602 2.2891 51.914 10.164 90.324 2.4375 11.836 5.1875 25.262 5.0742 28.188-0.9375 8.4375 4.4766 23.863 14.938 52.648 4.875 13.414 9.8984 27.289 13.836 39.949 2.5742 8.3125 7.1484 18.312 11.988 28.914 11.176 24.477 25.086 54.926 18.125 72.914-2.2891 5.9258-6.9375 10.324-14.199 13.438-37.414 16.012-77.887-57.125-83.914-68.523-0.80078-27.023-6.0508-59.887-15.801-96.887-14.301-54.352-18.488-91.938-21.852-122.14-2.1758-19.586-3.8984-35.062-7.7617-49.539l-18.113 4.8359c3.5 13.113 5.1484 27.961 7.2383 46.773 3.25 29.188 7.6992 69.164 22.352 124.84 17.961 68.262 20.336 123.84 6.1992 145.04-3.125 4.6992-6.7734 7.1992-11.438 7.8359-28.125 3.9883-67.562-153.76-82.25-213.15-24.664-99.738-27.926-240.09-28.289-261.61 4.8242-6.9766 9.8633-13.914 14.875-20.789 13.938-19.086 27.102-37.113 33.5-54.176l-17.551-6.5742c-5.4883 14.648-17.926 31.676-31.086 49.699-18.926 25.926-40.375 55.301-46.289 85.562-6.6992 34.324-48.414 80.301-76.586 92.461-6.75 2.9258-10.773 2.9258-12.188 2.0391-7.1641-4.5234-5.5859-10.699 8.4258-33.012 4.0859-6.5117 8.3242-13.262 11.602-20.137 6.4609-13.574 7.0391-31.012 7.75-53.086 0.75-23.125 1.6016-49.324 9.4141-78.762 3.7109-14 5.5625-27.574 7.3516-40.699 5.6992-41.801 11.062-81.273 77.75-128.04 48.062-33.711 77.426-67 94.773-91.664l2.6133-0.4375c-0.125-0.77344-0.33594-1.6875-0.52344-2.5742 14.461-21.137 19.789-35.289 20.227-36.512l-17.648-6.3242c-0.074219 0.19922-2.8125 7.4258-9.7266 19.137-21.512-61.211-79.887-187.95-99.301-229.7h286.12c10.164 33.051 54.773 175.5 80.887 218.57 26.664 44 28.023 68.586 28.023 68.586 0.023438 1.9062 1.1133 191.3 0.011719 261.42zm13.062 257.21c-0.97656 7.4727-2.0859 15.984-3.1875 25.148-1.1016-9.1875-2.2109-17.711-3.1875-25.211-2.4141-18.449-4.6875-35.887-3.625-40.699 1.8984-8.5234 1.2891-21.562 0.69922-34.176-0.25-5.1641-0.47656-10.051-0.47656-14.039 0-3.4883 1.5391-15.512 3.3125-29.438 0.97656-7.6484 2.1133-16.586 3.2734-26.25 1.1641 9.6641 2.3008 18.613 3.2734 26.262 1.7734 13.914 3.3125 25.938 3.3125 29.426 0 3.9766-0.23828 8.875-0.47656 14.039-0.58594 12.613-1.1992 25.664 0.69922 34.176 1.082 4.8242-1.2031 22.285-3.6172 40.762zm514.44-104c-1.3984 0.89844-5.4375 0.88672-12.211-2.0391-28.188-12.176-69.887-58.137-76.574-92.461-5.9141-30.262-27.363-59.648-46.301-85.562-13.164-18.023-25.586-35.051-31.086-49.699l-17.551 6.5742c6.3984 17.062 19.562 35.086 33.5 54.164 5.0234 6.875 10.062 13.812 14.887 20.801-0.36328 21.539-3.625 161.88-28.289 261.61-14.676 59.375-53.289 216.96-82.25 213.15-4.6758-0.63672-8.3125-3.125-11.449-7.8359-14.137-21.199-11.762-76.773 6.1992-145.04 14.664-55.688 19.102-95.664 22.352-124.85 2.0859-18.801 3.7383-33.648 7.2383-46.762l-18.113-4.8359c-3.8633 14.477-5.5742 29.949-7.7617 49.523-3.3633 30.199-7.5391 67.789-21.852 122.14-9.7383 37-15 69.863-15.801 96.887-6 11.375-46.414 84.574-83.914 68.523-7.2617-3.1133-11.914-7.5117-14.199-13.438-6.9609-18 6.9492-48.438 18.125-72.914 4.8359-10.602 9.4141-20.613 11.988-28.914 3.9258-12.648 8.9609-26.512 13.824-39.926 10.461-28.801 15.887-44.227 14.961-52.512-0.125-3.0859 2.6367-16.512 5.0625-28.352 7.8867-38.414 14.102-71.711 10.176-90.324l-18.352 3.875c3.4375 16.301-4.7617 56.25-10.188 82.676-4.1133 20-5.8984 29.051-5.3633 33.977 0.27344 5.1641-7.9258 27.762-13.926 44.262-4.9492 13.613-10.062 27.688-14.113 40.773-2.2266 7.1641-6.5508 16.648-11.137 26.688-10.988 24.062-24.273 53.227-21.113 77.113-6.6641 8.3516-21.602 23.125-34.676 19.836-6.0117-1.4883-10.211-4.4883-13.188-9.4258-5-8.3242-8.875-26.613 1.1016-66.539 12.926-51.676 25.762-124.73 26.664-141.45 0.26172-4.7617 3.8242-16.961 7.6016-29.875 7.1992-24.613 16.148-55.227 16.914-79.676l-18.738-0.58594c-0.69922 22.062-9.6367 52.648-16.176 75-4.6133 15.789-7.9492 27.188-8.3242 34.113-0.55078 10.164-6.8242 48.613-15.051 88.676-3.3516 3.5625-13.699 12.938-29.438 11.414-16.637-1.6992-20.398-9.6133-15.301-61.977 1.8633-19.051 4.0859-36.086 5.9609-50.375 3.4609-26.488 5.0508-39.562 3.3359-47.273-1.3516-6.0742-0.75-18.914-0.26172-29.227 0.26172-5.4766 0.5-10.676 0.5-14.898 0-4.4766-1.125-13.488-3.4609-31.801-4.2109-33-11.25-88.211-12-136.45-1.1016-70.113-0.011719-259.51 0-261.15 0.011719-0.25 1.3516-24.852 28.039-68.863 26.113-43.074 70.711-185.52 80.887-218.57h286.12c-19.414 41.727-77.738 168.39-99.273 229.62-6.9141-11.676-9.6875-18.887-9.7617-19.086l-17.637 6.3516c0.4375 1.2383 5.7617 15.375 20.227 36.512-0.1875 0.88672-0.39844 1.8008-0.52344 2.5742l2.6133 0.4375c17.352 24.664 46.699 57.949 94.773 91.664 66.688 46.762 72.062 86.238 77.762 128.04 1.7891 13.125 3.6367 26.711 7.3516 40.699 7.8125 29.438 8.6641 55.648 9.4258 78.773 0.72656 22.062 1.2891 39.488 7.75 53.062 3.2891 6.8867 7.5117 13.625 11.613 20.137 13.969 22.352 15.543 28.523 8.3945 33.039z"/>
 <path d="m650.26 652.05 0.050781 18.75h0.86328c107.77 0 171.82 57.637 172.46 58.227l12.711-13.789c-2.8008-2.5859-69.727-63.188-185.15-63.188h-0.9375z"/>
 <path d="m755.3 557.01-14.426 11.977c42.648 51.363 162.48 99.148 167.55 101.16l6.8984-17.438c-1.2109-0.47656-120.43-48.004-160.02-95.703z"/>
 <path d="m796.05 525.68 9.5117-16.164c-0.57422-0.33594-58.352-34.926-94-107.9l-16.852 8.2266c38.102 77.984 98.777 114.32 101.34 115.84z"/>
 <path d="m363.66 715.24 12.727 13.773c0.63672-0.57422 64.262-58.211 172.44-58.211h0.875l0.050781-18.75h-0.9375c-115.42 0-182.37 60.598-185.15 63.188z"/>
 <path d="m459.12 568.99-14.426-11.977c-39.586 47.664-158.82 95.227-160.01 95.699l6.8984 17.438c5.0781-2.0117 124.9-49.812 167.54-101.16z"/>
 <path d="m505.27 409.84-16.852-8.2266c-35.5 72.688-93.426 107.56-94 107.9l9.5117 16.148c2.5781-1.4922 63.254-37.832 101.34-115.82z"/>
</svg>
